<?xml version="1.0" encoding="UTF-8" standalone="no"?>
<!-- Created with Inkscape (http://www.inkscape.org/) -->

<svg
   width="96"
   height="96"
   viewBox="0 0 96 96"
   version="1.1"
   id="svg5"
   inkscape:version="1.3 (0e150ed6c4, 2023-07-21)"
   sodipodi:docname="system-log-out.svg"
   xmlns:inkscape="http://www.inkscape.org/namespaces/inkscape"
   xmlns:sodipodi="http://sodipodi.sourceforge.net/DTD/sodipodi-0.dtd"
   xmlns="http://www.w3.org/2000/svg"
   xmlns:svg="http://www.w3.org/2000/svg">
  <sodipodi:namedview
     id="namedview7"
     pagecolor="#ffffff"
     bordercolor="#000000"
     borderopacity="0.25"
     inkscape:showpageshadow="2"
     inkscape:pageopacity="0.0"
     inkscape:pagecheckerboard="0"
     inkscape:deskcolor="#d1d1d1"
     inkscape:document-units="px"
     showgrid="false"
     inkscape:zoom="8.15625"
     inkscape:cx="47.938697"
     inkscape:cy="48"
     inkscape:window-width="1920"
     inkscape:window-height="984"
     inkscape:window-x="0"
     inkscape:window-y="29"
     inkscape:window-maximized="1"
     inkscape:current-layer="svg5" />
  <defs
     id="defs2" />
  <rect
     style="opacity:0.2;fill:#000000;stroke-width:6;stroke-linecap:square"
     id="rect234"
     width="84"
     height="84"
     x="6"
     y="7.5"
     ry="18" />
  <rect
     style="fill:#fba72d;fill-opacity:1;stroke-width:6;stroke-linecap:square"
     id="rect396"
     width="84"
     height="84"
     x="6"
     y="6"
     ry="18" />
  <path
     id="path2"
     style="opacity:0.2;fill:#000000;stroke-width:3"
     d="M 47.550781 18.017578 C 46.73857 17.990575 45.927535 17.99386 45.117188 18.029297 C 44.191076 18.069797 43.269901 18.154098 42.351562 18.275391 C 35.004855 19.245703 27.993212 22.785704 22.798828 28.710938 C 12.410052 40.561406 12.395578 58.37359 22.763672 70.242188 C 33.13177 82.110785 50.771314 84.474759 63.890625 75.75 C 68.889758 72.426527 63.909289 64.920668 58.910156 68.244141 C 49.489797 74.508977 36.98195 72.840637 29.537109 64.318359 C 22.09227 55.796082 22.106498 43.161607 29.566406 34.652344 C 37.026097 26.143089 49.535891 24.492152 58.945312 30.773438 C 63.942436 34.133798 68.957928 26.604672 63.9375 23.279297 C 58.921083 19.930582 53.236257 18.206597 47.550781 18.017578 z M 66 34 L 66 45 L 49.5 45 C 47.014721 45 45 47.014667 45 49.5 C 45 51.985333 47.014721 54 49.5 54 L 66 54 L 66 65 L 85 49.5 L 66 34 z " />
  <path
     id="path3"
     style="fill:#ffffff;stroke-width:3"
     d="M 47.550781 17.017578 C 46.73857 16.990575 45.927535 16.99386 45.117188 17.029297 C 44.191076 17.069797 43.269901 17.154097 42.351562 17.275391 C 35.004855 18.245702 27.993212 21.785704 22.798828 27.710938 C 12.410052 39.561406 12.395578 57.37359 22.763672 69.242188 C 33.13177 81.110785 50.771314 83.474759 63.890625 74.75 C 68.889758 71.426527 63.909289 63.920668 58.910156 67.244141 C 49.489797 73.508977 36.98195 71.840637 29.537109 63.318359 C 22.09227 54.796082 22.106498 42.161607 29.566406 33.652344 C 37.026097 25.143089 49.535891 23.492153 58.945312 29.773438 C 63.942564 33.134455 68.958583 25.604539 63.9375 22.279297 C 58.921083 18.930582 53.236257 17.206597 47.550781 17.017578 z M 66 33 L 66 44 L 49.5 44 C 47.014721 44 45 46.014667 45 48.5 C 45 50.985333 47.014721 53 49.5 53 L 66 53 L 66 64 L 85 48.5 L 66 33 z " />
  <path
     id="path1040"
     style="opacity:0.2;fill:#ffffff;stroke-width:6;stroke-linecap:square"
     d="M 24 6 C 14.02803 6 6 14.02803 6 24 L 6 25 C 6 15.028031 14.02803 7 24 7 L 72 7 C 81.971969 7 90 15.028031 90 25 L 90 24 C 90 14.02803 81.971969 6 72 6 L 24 6 z " />
</svg>
