<?xml version="1.0" encoding="UTF-8" standalone="no"?>
<!-- Created with Inkscape (http://www.inkscape.org/) -->

<svg
   width="96"
   height="96"
   viewBox="0 0 96 96"
   version="1.1"
   id="svg5"
   inkscape:version="1.4.3 (0d15f75042, 2025-12-25)"
   sodipodi:docname="system-lock-screen.svg"
   xmlns:inkscape="http://www.inkscape.org/namespaces/inkscape"
   xmlns:sodipodi="http://sodipodi.sourceforge.net/DTD/sodipodi-0.dtd"
   xmlns="http://www.w3.org/2000/svg"
   xmlns:svg="http://www.w3.org/2000/svg">
  <sodipodi:namedview
     id="namedview7"
     pagecolor="#ffffff"
     bordercolor="#000000"
     borderopacity="0.25"
     inkscape:showpageshadow="2"
     inkscape:pageopacity="0.0"
     inkscape:pagecheckerboard="0"
     inkscape:deskcolor="#d1d1d1"
     inkscape:document-units="px"
     showgrid="false"
     inkscape:zoom="7.59375"
     inkscape:cx="47.868313"
     inkscape:cy="47.868313"
     inkscape:window-width="1920"
     inkscape:window-height="1008"
     inkscape:window-x="0"
     inkscape:window-y="0"
     inkscape:window-maximized="1"
     inkscape:current-layer="svg5" />
  <defs
     id="defs2" />
  <circle
     style="opacity:0.2;fill:#000000;stroke-width:1.5"
     id="path1"
     cx="48"
     cy="49"
     r="42" />
  <circle
     style="fill:#ff5722;fill-opacity:1;stroke-width:1.5"
     id="path2"
     cx="48"
     cy="48"
     r="42" />
  <path
     id="path3"
     style="opacity:0.2;fill:#ffffff;fill-opacity:1;stroke-width:1.5"
     d="M 48,6 A 42,42 0 0 0 6,48 42,42 0 0 0 6.035156,48.503906 42,42 0 0 1 48,7 42,42 0 0 1 89.982422,48.267578 42,42 0 0 0 90,48 42,42 0 0 0 48,6 Z" />
  <path
     id="path4"
     style="opacity:0.2;fill:#000000;fill-opacity:1;stroke-width:3"
     d="m 48,19 c -9.97197,0 -18,8.02803 -18,18 v 6 h -3 c -1.661996,0 -3,1.338006 -3,3 v 30 c 0,1.661994 1.338004,3 3,3 h 42 c 1.661994,0 3,-1.338006 3,-3 V 46 c 0,-1.661994 -1.338006,-3 -3,-3 H 66 V 37 C 66,27.02803 57.971973,19 48,19 Z m 0,6 c 6.647982,0 12,5.352018 12,12 v 6 H 36 v -6 c 0,-6.647982 5.352018,-12 12,-12 z" />
  <path
     id="path5"
     style="fill:#ffffff;fill-opacity:1;stroke-width:3"
     d="m 48,18 c -9.971982,0 -18,8.02802 -18,18 v 6 h -3 c -1.661998,0 -3,1.338003 -3,3 v 30 c 0,1.661997 1.338002,3 3,3 h 42 c 1.661997,0 3,-1.338003 3,-3 V 45 c 0,-1.661997 -1.338003,-3 -3,-3 H 66 V 36 C 66,26.02802 57.971982,18 48,18 Z m 0,6 c 6.647988,0 12,5.352013 12,12 v 6 H 36 v -6 c 0,-6.647987 5.352012,-12 12,-12 z" />
</svg>
