<?xml version="1.0" encoding="UTF-8" standalone="no"?>
<!-- Created with Inkscape (http://www.inkscape.org/) -->

<svg
   width="96"
   height="96"
   viewBox="0 0 96 96"
   version="1.1"
   id="svg5"
   inkscape:version="1.3.2 (1:1.3.2+202404261509+091e20ef0f)"
   sodipodi:docname="folder-blue-games.svg"
   xmlns:inkscape="http://www.inkscape.org/namespaces/inkscape"
   xmlns:sodipodi="http://sodipodi.sourceforge.net/DTD/sodipodi-0.dtd"
   xmlns="http://www.w3.org/2000/svg"
   xmlns:svg="http://www.w3.org/2000/svg">
  <sodipodi:namedview
     id="namedview7"
     pagecolor="#ffffff"
     bordercolor="#000000"
     borderopacity="0.25"
     inkscape:showpageshadow="2"
     inkscape:pageopacity="0.0"
     inkscape:pagecheckerboard="0"
     inkscape:deskcolor="#d1d1d1"
     inkscape:document-units="px"
     showgrid="false"
     inkscape:zoom="8.3229167"
     inkscape:cx="47.939925"
     inkscape:cy="48"
     inkscape:window-width="1920"
     inkscape:window-height="1006"
     inkscape:window-x="0"
     inkscape:window-y="0"
     inkscape:window-maximized="1"
     inkscape:current-layer="svg5" />
  <defs
     id="defs2" />
  <path
     d="m 12.000224,13 c -3.3239878,0 -5.9999831,2.675995 -5.9999831,5.999982 0.038775,19.959923 0,39.957282 0,59.999828 0,3.323988 2.6759953,5.999983 5.9999831,5.999983 H 84.000018 C 87.324005,84.999793 90,82.323798 90,78.99981 V 27.999957 c 0,-3.323988 -2.675995,-5.999983 -5.999982,-5.999983 H 48.000121 L 45.000129,17.499987 C 43.156314,14.734262 42.324134,13 39.000147,13 Z"
     style="opacity:0.2;fill:#000000;fill-opacity:1;stroke-width:5.99998;stroke-linecap:square"
     id="path2595" />
  <path
     d="m 12.000224,12 c -3.3239878,0 -5.9999831,2.675996 -5.9999831,5.999983 0.038775,19.959922 0,39.957281 0,59.999828 0,3.323987 2.6759953,5.999983 5.9999831,5.999983 H 84.000018 C 87.324005,83.999794 90,81.323798 90,77.999811 V 26.999957 C 90,23.67597 87.324005,20.999974 84.000018,20.999974 H 48.000121 L 45.000129,16.499987 C 43.156314,13.734263 42.324134,12 39.000147,12 Z"
     style="fill:#3a87e5;fill-opacity:1;stroke-width:5.99998;stroke-linecap:square"
     id="path2567" />
  <path
     id="path2855"
     style="opacity:0.1;fill:#ffffff;fill-opacity:1;stroke-width:5.99998;stroke-linecap:square"
     d="m 12,12 c -3.3239812,0 -6,2.67602 -6,6 6.473e-4,0.333241 2.074e-4,0.666349 0,1 0,-3.323984 2.6760163,-6 6,-6 h 27 c 3.323984,0 4.156187,1.734278 6,4.5 l 3,4.5 h 36 c 3.323984,0 6,2.676015 6,6 v -1 c 0,-3.323981 -2.676019,-6 -6,-6 H 48 L 45,16.5 C 43.156188,13.734281 42.323981,12 39,12 Z" />
  <rect
     style="opacity:0.2;fill:#000000;fill-opacity:1;stroke-width:5.99998;stroke-linecap:square"
     id="rect2667"
     width="83.999756"
     height="47.999863"
     x="6.0002408"
     y="35"
     ry="5.9999828" />
  <rect
     style="opacity:1;fill:#f2f2f2;fill-opacity:1;stroke-width:5.99998;stroke-linecap:square"
     id="rect3435"
     width="71.999794"
     height="38"
     x="11.999982"
     y="26.999956"
     ry="4.4999871" />
  <rect
     style="opacity:1;fill:#93c0ea;fill-opacity:1;stroke-width:5.99998;stroke-linecap:square"
     id="rect2727"
     width="83.999756"
     height="47.999863"
     x="6.0002408"
     y="35.999928"
     ry="5.9999828" />
  <path
     id="path5"
     style="opacity:1;fill:#3a87e5;stroke-width:1.5"
     d="m 40.095562,48.000042 c -0.452998,0.0015 -0.973815,0.145171 -1.507812,0.451172 -1.945493,1.094998 -3.73894,4.683999 -4.710938,9.333984 -0.829496,3.950988 -1.132169,9.347538 -0.638672,11.519532 0.4305,1.867495 1.173097,2.695312 2.496094,2.695312 1.961993,-0.036 4.428739,-2.37118 5.990234,-5.513672 1.130997,-1.738494 3.7494,-2.530357 6.275391,-2.443359 2.525991,-0.0945 5.148301,0.704865 6.279297,2.443359 1.561495,3.142491 4.026288,5.477672 5.988281,5.513672 1.322997,0 2.065594,-0.827817 2.496094,-2.695312 0.493499,-2.171994 0.190824,-7.568545 -0.638672,-11.519532 -0.971998,-4.649986 -2.763491,-8.238986 -4.708984,-9.333984 -0.534,-0.306 -1.025064,-0.452672 -1.476563,-0.451172 -0.451497,0.003 -0.863907,0.154172 -1.253906,0.451172 -0.988496,0.754498 -3.049558,1.561453 -6.685547,1.564453 -3.635989,0.003 -5.69705,-0.809955 -6.685547,-1.564453 -0.389998,-0.297 -0.764251,-0.454172 -1.21875,-0.451172 z m -0.0957,5 h 3 v 3 h 3 v 3 h -3 v 3 h -3 v -3 h -3 v -3 h 3 z m 14.5,0 c 0.827996,0 1.5,0.672003 1.5,1.5 0,0.827997 -0.672004,1.5 -1.5,1.5 -0.827997,0 -1.5,-0.672003 -1.5,-1.5 0,-0.827997 0.672003,-1.5 1.5,-1.5 z m -3,3 c 0.827996,0 1.5,0.672003 1.5,1.5 0,0.827997 -0.672004,1.5 -1.5,1.5 -0.827997,0 -1.5,-0.672003 -1.5,-1.5 0,-0.827997 0.672003,-1.5 1.5,-1.5 z m 6,0 c 0.827997,0 1.5,0.672003 1.5,1.5 0,0.827997 -0.672003,1.5 -1.5,1.5 -0.827997,0 -1.5,-0.672003 -1.5,-1.5 0,-0.827997 0.672003,-1.5 1.5,-1.5 z m -3,3 c 0.827996,0 1.5,0.672003 1.5,1.5 0,0.827997 -0.672004,1.5 -1.5,1.5 -0.827997,0 -1.5,-0.672003 -1.5,-1.5 0,-0.827997 0.672003,-1.5 1.5,-1.5 z" />
</svg>
