<?xml version="1.0" encoding="UTF-8" standalone="no"?>
<svg
   height="24"
   viewBox="0 0 24 24"
   width="24"
   version="1.1"
   id="svg1"
   sodipodi:docname="emoji-nature-symbolic.svg"
   inkscape:version="1.4.3 (0d15f75042, 2025-12-25)"
   xmlns:inkscape="http://www.inkscape.org/namespaces/inkscape"
   xmlns:sodipodi="http://sodipodi.sourceforge.net/DTD/sodipodi-0.dtd"
   xmlns="http://www.w3.org/2000/svg"
   xmlns:svg="http://www.w3.org/2000/svg">
  <defs
     id="defs1">
    <style
       id="current-color-scheme"
       type="text/css">
        .ColorScheme-Text { color:#dfdfdf; } .ColorScheme-Highlight { color:#4285f4; } .ColorScheme-NeutralText { color:#ff9800; } .ColorScheme-PositiveText { color:#4caf50; } .ColorScheme-NegativeText { color:#f44336; }
     </style>
  </defs>
  <sodipodi:namedview
     id="namedview1"
     pagecolor="#ffffff"
     bordercolor="#000000"
     borderopacity="0.25"
     inkscape:showpageshadow="2"
     inkscape:pageopacity="0.0"
     inkscape:pagecheckerboard="0"
     inkscape:deskcolor="#d1d1d1"
     inkscape:zoom="33.625"
     inkscape:cx="11.98513"
     inkscape:cy="12"
     inkscape:window-width="1920"
     inkscape:window-height="1010"
     inkscape:window-x="0"
     inkscape:window-y="0"
     inkscape:window-maximized="1"
     inkscape:current-layer="svg1" />
  <path
     id="path1"
     style="fill:currentColor"
     class="ColorScheme-Text"
     d="M 10,5 C 10,5 7,5 7,8 v 5 c 0,0 0.042969,1.417969 0.027344,2 0,1 -0.5351558,1.414062 -1.4023438,2.121094 -0.628906,0.488281 -0.7734378,1.308594 -0.3085938,1.699218 0.4296881,0.351564 1.1640633,0.300782 1.6601563,-0.34375 L 7.9960938,17 c 0.699218,-1.015625 0.984375,-1.875 1,-3 L 9,8 C 9,7 9.9960937,7 9.9960938,7 v 6.574219 L 13,10.5 V 8 C 13,7 13.996094,7 13.996094,7 L 14,9.5 15.996094,7.4648438 C 16.335938,7.1523438 16.5,7 16.996094,7 L 17,8 12.996094,12 h 4 c 0,0 0.0039,1 -1,1 h -4 l -2.0000002,2 c 0,0.425781 0,2.007813 2.0000002,2.007812 L 16,17 c 0,0 3,0 2.996094,-2.992188 V 5 Z" />
</svg>
