<?xml version="1.0" encoding="UTF-8" standalone="no"?>
<svg
   width="24"
   height="24"
   version="1.1"
   id="svg4"
   sodipodi:docname="preferences-other-symbolic.svg"
   inkscape:version="1.4.3 (0d15f75042, 2025-12-25)"
   xmlns:inkscape="http://www.inkscape.org/namespaces/inkscape"
   xmlns:sodipodi="http://sodipodi.sourceforge.net/DTD/sodipodi-0.dtd"
   xmlns="http://www.w3.org/2000/svg"
   xmlns:svg="http://www.w3.org/2000/svg">
  <defs
     id="defs4">
    <style
       id="current-color-scheme"
       type="text/css">
        .ColorScheme-Text { color:#dfdfdf; } .ColorScheme-Highlight { color:#4285f4; } .ColorScheme-NeutralText { color:#ff9800; } .ColorScheme-PositiveText { color:#4caf50; } .ColorScheme-NegativeText { color:#f44336; }
     </style>
  </defs>
  <sodipodi:namedview
     id="namedview4"
     pagecolor="#ffffff"
     bordercolor="#000000"
     borderopacity="0.25"
     inkscape:showpageshadow="2"
     inkscape:pageopacity="0.0"
     inkscape:pagecheckerboard="0"
     inkscape:deskcolor="#d1d1d1"
     inkscape:zoom="33.625"
     inkscape:cx="11.98513"
     inkscape:cy="12"
     inkscape:window-width="1920"
     inkscape:window-height="1010"
     inkscape:window-x="0"
     inkscape:window-y="0"
     inkscape:window-maximized="1"
     inkscape:current-layer="svg4" />
  <path
     style="fill:currentColor;fill-opacity:1"
     class="ColorScheme-Text"
     d="m 15.62,4.11988 c 0.39,-0.1 0.79,-0.11 1.17,-0.08 L 15.43,6.3399 c -0.28,0.48 -0.13,1.07 0.35,1.35 l 0.87,0.51 c 0.48,0.28 1.08,0.12 1.36,-0.35 l 1.36,-2.31 c 0.21,0.31 0.4,0.67 0.5,1.05 0.49,1.86 -0.63,3.75 -2.49,4.24 -0.39,0.1 -0.79,0.11 -1.17,0.08 L 15.4,12 11.99,11.9999 c 0,0 1.52,-2.58 1.63,-2.59 -0.21,-0.32 -0.4,-0.67 -0.5,-1.06 -0.49,-1.85 0.63,-3.75002 2.5,-4.23002 z"
     id="path1" />
  <path
     style="fill:currentColor;fill-opacity:1"
     class="ColorScheme-Text"
     d="m 7.6,4.71988 c -0.23,0.05 -0.45,0.13 -0.66,0.22 C 6.92,5.5599 7.03,6.3799 6.78,6.5899 c -0.23,0.21 -1.03,0.04 -1.65,-0.03 -0.13002,0.24 -0.23,0.49 -0.31,0.75 0.48,0.4 1.14,0.84 1.15,1.16 0.02,0.32 -0.62,0.8 -1.06,1.25 0.11,0.26 0.25,0.49 0.41,0.72 0.61,-0.13 1.36,-0.38 1.62,-0.19 0.26,0.19 0.27,1.01 0.34,1.62 0.25,0.08 0.52,0.11 0.78,0.13 0.28,-0.55 0.57,-1.32 0.88,-1.41 0.31,-0.08 0.96,0.46 1.5,0.78 0.21,-0.15 0.41,-0.33 0.59,-0.53 -0.26,-0.57 -0.72,-1.29 -0.59,-1.59 0.12,-0.3 0.97,-0.47 1.56,-0.69 0,-0.07 0.03,-0.14 0.03,-0.22 0,-0.19 -0.04,-0.38 -0.07,-0.56 -0.6,-0.16 -1.46,-0.24 -1.62,-0.53 -0.16,-0.29 0.24,-1.06 0.44,-1.66 -0.2,-0.17 -0.42,-0.33 -0.66,-0.47 -0.5,0.38 -1.08,1 -1.4,0.94 -0.32,-0.05 -0.66,-0.82 -1,-1.34002 -0.04,0.01 -0.08,-0.01 -0.12,0 z M 8.22,6.5899 c 0.93,0 1.68,0.76 1.68,1.69 0,0.93 -0.75,1.69 -1.68,1.69 -0.93,0 -1.69,-0.76 -1.69,-1.69 0,-0.93 0.76,-1.69 1.69,-1.69 z"
     id="path2" />
  <path
     id="path3"
     style="fill:currentColor;fill-opacity:1"
     class="ColorScheme-Text"
     d="m 7,13 v 6 c 0,0 1e-6,1 1,1 h 8 c 0.999999,0 1,-0.94 1,-1 v -6 z m 2,2 h 6 v 3 H 9 Z" />
  <path
     style="fill:currentColor;fill-opacity:1"
     class="ColorScheme-Text"
     d="M 6.5859,13 4.29297,15.293 A 1.0001,1.0001 0 1 0 5.707,16.707 L 7.4141,15 h 9.1719 l 1.707,1.707 a 1.0001,1.0001 0 1 0 1.414,-1.414 L 17.414,13 Z"
     id="path4" />
</svg>
