<?xml version="1.0" encoding="UTF-8" standalone="no"?>
<!-- Created with Inkscape (http://www.inkscape.org/) -->

<svg
   width="32"
   height="32"
   viewBox="0 0 32 32"
   version="1.1"
   id="svg5"
   inkscape:version="1.2.2 (1:1.2.2+202305151914+b0a8486541)"
   sodipodi:docname="audio-input-microphone.svg"
   xmlns:inkscape="http://www.inkscape.org/namespaces/inkscape"
   xmlns:sodipodi="http://sodipodi.sourceforge.net/DTD/sodipodi-0.dtd"
   xmlns="http://www.w3.org/2000/svg"
   xmlns:svg="http://www.w3.org/2000/svg">
  <sodipodi:namedview
     id="namedview7"
     pagecolor="#ffffff"
     bordercolor="#000000"
     borderopacity="0.25"
     inkscape:showpageshadow="2"
     inkscape:pageopacity="0.0"
     inkscape:pagecheckerboard="0"
     inkscape:deskcolor="#d1d1d1"
     inkscape:document-units="px"
     showgrid="false"
     inkscape:zoom="25.1875"
     inkscape:cx="15.980149"
     inkscape:cy="16"
     inkscape:window-width="1920"
     inkscape:window-height="1008"
     inkscape:window-x="0"
     inkscape:window-y="0"
     inkscape:window-maximized="1"
     inkscape:current-layer="svg5" />
  <defs
     id="defs2" />
  <path
     d="m 16.500338,2.9999999 c -3.600996,0 -6.5,2.7875035 -6.5,6.2500001 v 4.5 c 0,3.462496 2.899004,6.25 6.5,6.25 3.600996,0 6.5,-2.787504 6.5,-6.25 v -4.5 c 0,-3.4624966 -2.899004,-6.2500001 -6.5,-6.2500001 z m 9.001953,8.9707041 c -0.893629,-0.0027 -1.591413,0.77162 -1.496094,1.660156 0,0 0.140488,1.905575 -0.699218,3.746093 C 22.467271,19.217472 20.934475,21 16.500338,21 12.066202,21 10.533404,19.217472 9.693697,17.376953 8.85399,15.536433 8.994479,13.630859 8.994479,13.630859 9.086659,12.73029 8.366215,11.953866 7.4612763,11.978517 c -0.770165,0.02111 -1.399118,0.622206 -1.455079,1.390625 0,0 -0.254358,2.594429 0.958985,5.253904 1.0943617,2.398687 3.6229857,4.838302 8.0351557,5.294922 V 28 h -5.5 c -0.828426,0 -1.5,0.671573 -1.5,1.5 0,0.828426 0.671574,1.5 1.5,1.5 h 14 c 0.828426,0 1.5,-0.671574 1.5,-1.5 0,-0.828427 -0.671574,-1.5 -1.5,-1.5 h -5.5 v -4.082032 c 4.41217,-0.45662 6.940794,-2.896236 8.035156,-5.294922 1.213343,-2.659476 0.958985,-5.253905 0.958985,-5.253905 -0.05338,-0.785486 -0.704894,-1.396071 -1.492188,-1.398437 z"
     style="opacity:0.2;fill:#000000;fill-rule:evenodd"
     id="path544" />
  <path
     d="m 25.502292,10.970704 c -0.893629,-0.0027 -1.591413,0.77162 -1.496094,1.660156 0,0 0.140489,1.905572 -0.699218,3.746093 C 22.467272,18.217473 20.93448,20 16.500339,20 12.066199,20 10.533406,18.217473 9.693698,16.376953 8.853991,14.536431 8.99448,12.630859 8.99448,12.630859 9.08666,11.73029 8.366216,10.953866 7.4612773,10.978517 c -0.770165,0.02111 -1.3991178,0.622206 -1.4550786,1.390625 0,0 -0.2543595,2.594426 0.9589846,5.253904 1.0943627,2.39869 3.6229817,4.838302 8.0351557,5.294922 V 27 h -5.5 c -0.828427,0 -1.5,0.671572 -1.5,1.5 0,0.828427 0.671573,1.5 1.5,1.5 h 14 c 0.828427,0 1.5,-0.671573 1.5,-1.5 0,-0.828428 -0.671573,-1.5 -1.5,-1.5 h -5.5 v -4.082032 c 4.412174,-0.45662 6.940793,-2.896232 8.035156,-5.294922 1.213344,-2.659479 0.958985,-5.253905 0.958985,-5.253905 -0.05338,-0.785486 -0.704894,-1.396071 -1.492188,-1.398437 z"
     style="fill:#4f4f4f;fill-rule:evenodd"
     id="path438" />
  <path
     d="m 25.50229,10.970704 c -0.893629,-0.0027 -1.591413,0.77162 -1.496094,1.660155 0,0 0.140489,1.905572 -0.699217,3.746094 C 22.46727,18.217473 20.934478,20 16.500337,20 12.066198,20 10.533405,18.217473 9.693697,16.376953 8.85399,14.536431 8.994479,12.630859 8.994479,12.630859 c 0.09218,-0.90057 -0.628264,-1.676994 -1.5332042,-1.652343 -0.770164,0.02111 -1.399117,0.622206 -1.455078,1.390625 0,0 -0.01632,0.42471 0,0.996093 0.05787,-0.766882 0.686301,-1.365792 1.455078,-1.386718 0.9049402,-0.02465 1.6253812,0.751773 1.5332042,1.652343 0,0 -0.140489,1.905573 0.699218,3.746094 C 10.533405,19.217473 12.066198,21 16.500338,21 c 4.43414,0 5.966932,-1.782527 6.806641,-3.623047 0.839706,-1.840521 0.699217,-3.746093 0.699217,-3.746093 -0.09532,-0.888535 0.602465,-1.662838 1.496095,-1.660156 0.786592,0.0023 1.437835,0.611769 1.492188,1.396485 0.01645,-0.572533 0,-0.998047 0,-0.998047 -0.05338,-0.785486 -0.704895,-1.396071 -1.492189,-1.398438 z M 9.500338,27 c -0.828427,0 -1.5,0.671572 -1.5,1.5 0,0.176211 0.03598,0.342935 0.0918,0.5 0.206592,-0.581345 0.755988,-1 1.408203,-1 h 5.5 v -1 z m 8.5,0 v 1 h 5.5 c 0.652215,0 1.201611,0.418655 1.408203,1 0.05582,-0.157065 0.0918,-0.323789 0.0918,-0.5 0,-0.828428 -0.671573,-1.5 -1.5,-1.5 z"
     style="opacity:0.1;fill:#ffffff;fill-rule:evenodd"
     id="path515" />
  <rect
     style="fill:#8e8e8e;stroke-width:2;stroke-linecap:square"
     id="rect353"
     width="13"
     height="17"
     x="10.00034"
     y="2"
     rx="6.25"
     ry="6.5" />
  <path
     d="m 16.500339,2 c -3.601,0 -6.5,2.787327 -6.5,6.25 v 1 c 0,-3.462673 2.899,-6.25 6.5,-6.25 3.601,0 6.5,2.787327 6.5,6.25 v -1 c 0,-3.462673 -2.899,-6.25 -6.5,-6.25 z"
     style="opacity:0.1;fill:#ffffff"
     id="path410" />
</svg>
