<?xml version="1.0" encoding="UTF-8" standalone="no"?>
<svg
   width="32"
   height="32"
   version="1"
   id="svg19"
   sodipodi:docname="audio-card.svg"
   inkscape:version="1.3 (0e150ed6c4, 2023-07-21)"
   xmlns:inkscape="http://www.inkscape.org/namespaces/inkscape"
   xmlns:sodipodi="http://sodipodi.sourceforge.net/DTD/sodipodi-0.dtd"
   xmlns="http://www.w3.org/2000/svg"
   xmlns:svg="http://www.w3.org/2000/svg">
  <defs
     id="defs19" />
  <sodipodi:namedview
     id="namedview19"
     pagecolor="#ffffff"
     bordercolor="#000000"
     borderopacity="0.25"
     inkscape:showpageshadow="2"
     inkscape:pageopacity="0.0"
     inkscape:pagecheckerboard="0"
     inkscape:deskcolor="#d1d1d1"
     inkscape:zoom="24.46875"
     inkscape:cx="15.979566"
     inkscape:cy="16"
     inkscape:window-width="1920"
     inkscape:window-height="984"
     inkscape:window-x="0"
     inkscape:window-y="29"
     inkscape:window-maximized="1"
     inkscape:current-layer="svg19" />
  <path
     style="opacity:0.2;fill:#000000"
     d="M 7.3333,8.0004 C 6.5947,8.0004 6,8.6179 6,9.385 V 24.615 C 6,25.382 6.5947,26 7.3333,26 H 10 V 23 H 16 V 26 H 28.667 C 29.405,26 30,25.382 30,24.615 V 9.385 C 30,8.6175 29.405,8 28.667,8 Z"
     id="path1" />
  <path
     fill="#419d45"
     d="m7.3333 7c-0.7386 0-1.3333 0.6175-1.3333 1.3846v15.23c0 0.767 0.5947 1.385 1.3333 1.385h2.6667v-3h6v3h12.667c0.738 0 1.333-0.618 1.333-1.385v-15.23c0-0.7675-0.595-1.385-1.333-1.385z"
     id="path2" />
  <path
     id="rect2"
     style="fill:#b7b7b7"
     d="M 16 10 L 16 12 L 17 12 L 17 10 L 16 10 z M 19 10 L 19 12 L 20 12 L 20 10 L 19 10 z M 13 13 L 13 14 L 15 14 L 15 13 L 13 13 z M 21 13 L 21 14 L 23 14 L 23 13 L 21 13 z M 13 16 L 13 17 L 15 17 L 15 16 L 13 16 z M 21 16 L 21 17 L 23 17 L 23 16 L 21 16 z M 16 18 L 16 20 L 17 20 L 17 18 L 16 18 z M 19 18 L 19 20 L 20 20 L 20 18 L 19 18 z " />
  <rect
     fill="#4e4e4e"
     width="6"
     height="6"
     x="15"
     y="12"
     rx="1.2"
     ry="1.2"
     id="rect10" />
  <path
     id="path10"
     style="color:#000000;fill:#000000;stroke-linecap:round;stroke-linejoin:round;-inkscape-stroke:none;opacity:0.2"
     d="M 3 5 A 1 1 0 0 0 2 6 A 1 1 0 0 0 3 7 L 4 7 L 4 27 A 1 1 0 0 0 5 28 A 1 1 0 0 0 6 27 L 6 6 A 1.0001 1.0001 0 0 0 5 5 L 3 5 z " />
  <path
     style="color:#000000;fill:#b7b7b7;stroke-linecap:round;stroke-linejoin:round;-inkscape-stroke:none"
     d="M 3,4 A 1,1 0 0 0 2,5 1,1 0 0 0 3,6 h 1 v 20 a 1,1 0 0 0 1,1 1,1 0 0 0 1,-1 V 5 A 1.0001,1.0001 0 0 0 5,4 Z"
     id="path11" />
  <path
     id="rect11"
     style="opacity:0.2;fill:#000000"
     d="M 17 23 L 17 27 L 19 27 L 19 23 L 17 23 z M 20 23 L 20 27 L 22 27 L 22 23 L 20 23 z M 23 23 L 23 27 L 25 27 L 25 23 L 23 23 z M 26 23 L 26 27 L 28 27 L 28 23 L 26 23 z " />
  <path
     id="rect15"
     style="fill:#f8c44e"
     d="M 17 22 L 17 26 L 19 26 L 19 22 L 17 22 z M 20 22 L 20 26 L 22 26 L 22 22 L 20 22 z M 23 22 L 23 26 L 25 26 L 25 22 L 23 22 z M 26 22 L 26 26 L 28 26 L 28 22 L 26 22 z " />
  <path
     fill="#fff"
     opacity=".1"
     d="m7.334 7c-0.7387 0-1.334 0.6177-1.334 1.3848v1c0-0.7671 0.5953-1.3848 1.334-1.3848h21.332c0.739 0 1.334 0.6177 1.334 1.3848v-1c0-0.7671-0.595-1.3848-1.334-1.3848h-21.332z"
     id="path18" />
  <path
     id="path19"
     style="opacity:0.2;fill:#ffffff"
     d="M 3.015625 4 C 2.2429689 3.9897445 1.7510569 4.8223034 2.1328125 5.4941406 C 2.3124056 5.1765002 2.6507562 4.9818705 3.015625 4.9863281 L 5 4.9863281 C 5.5522607 4.9863833 5.9999448 5.4340674 6 5.9863281 L 6 5 C 5.9999448 4.4477393 5.5522607 4.0000552 5 4 L 3.015625 4 z " />
</svg>
