<?xml version="1.0" encoding="UTF-8" standalone="no"?>
<svg
   width="32"
   height="32"
   version="1"
   id="svg6"
   sodipodi:docname="battery.svg"
   inkscape:version="1.3 (0e150ed6c4, 2023-07-21)"
   xmlns:inkscape="http://www.inkscape.org/namespaces/inkscape"
   xmlns:sodipodi="http://sodipodi.sourceforge.net/DTD/sodipodi-0.dtd"
   xmlns="http://www.w3.org/2000/svg"
   xmlns:svg="http://www.w3.org/2000/svg">
  <defs
     id="defs6" />
  <sodipodi:namedview
     id="namedview6"
     pagecolor="#ffffff"
     bordercolor="#000000"
     borderopacity="0.25"
     inkscape:showpageshadow="2"
     inkscape:pageopacity="0.0"
     inkscape:pagecheckerboard="0"
     inkscape:deskcolor="#d1d1d1"
     inkscape:zoom="24.46875"
     inkscape:cx="15.979566"
     inkscape:cy="16"
     inkscape:window-width="1920"
     inkscape:window-height="984"
     inkscape:window-x="0"
     inkscape:window-y="29"
     inkscape:window-maximized="1"
     inkscape:current-layer="svg6" />
  <rect
     style="opacity:0.2;fill:#000000;fill-opacity:1"
     id="rect6"
     width="22"
     height="25"
     x="5"
     y="6"
     ry="1" />
  <rect
     style="opacity:1;fill:#4f4f4f;fill-opacity:1"
     id="rect7"
     width="22"
     height="25"
     x="5"
     y="5"
     ry="1" />
  <rect
     style="fill:#8e8e8e"
     width="14"
     height="3"
     x="9"
     y="2"
     id="rect2" />
  <path
     style="opacity:0.2;fill:#000000"
     d="m 8,9 v 5 H 24 V 9 Z m 0,7 v 5 h 16 v -5 z m 0,7 v 5 h 16 v -5 z"
     id="path3" />
  <path
     style="fill:#c0f957"
     d="m 8,8 v 5 H 24 V 8 Z m 0,7 v 5 h 16 v -5 z m 0,7 v 5 h 16 v -5 z"
     id="path4" />
  <path
     style="opacity:0.2;fill:#ffffff"
     d="M 9,2 V 3 H 23 V 2 Z"
     id="path5" />
  <path
     style="fill:#ffffff;opacity:0.2"
     d="M 8 8 L 8 9 L 24 9 L 24 8 L 8 8 z M 8 15 L 8 16 L 24 16 L 24 15 L 8 15 z M 8 22 L 8 23 L 24 23 L 24 22 L 8 22 z"
     id="path6" />
</svg>
