<?xml version="1.0" encoding="UTF-8" standalone="no"?>
<svg
   width="32"
   height="32"
   version="1"
   id="svg6"
   sodipodi:docname="computer-laptop.svg"
   inkscape:version="1.3 (0e150ed6c4, 2023-07-21)"
   xmlns:inkscape="http://www.inkscape.org/namespaces/inkscape"
   xmlns:sodipodi="http://sodipodi.sourceforge.net/DTD/sodipodi-0.dtd"
   xmlns="http://www.w3.org/2000/svg"
   xmlns:svg="http://www.w3.org/2000/svg">
  <defs
     id="defs6" />
  <sodipodi:namedview
     id="namedview6"
     pagecolor="#ffffff"
     bordercolor="#000000"
     borderopacity="0.25"
     inkscape:showpageshadow="2"
     inkscape:pageopacity="0.0"
     inkscape:pagecheckerboard="0"
     inkscape:deskcolor="#d1d1d1"
     inkscape:zoom="25"
     inkscape:cx="15.98"
     inkscape:cy="16"
     inkscape:window-width="1920"
     inkscape:window-height="1004"
     inkscape:window-x="0"
     inkscape:window-y="0"
     inkscape:window-maximized="1"
     inkscape:current-layer="svg6" />
  <rect
     style="opacity:0.2;fill:#000000"
     width="26"
     height="18"
     x="3"
     y="7"
     ry="1.25"
     id="rect1" />
  <rect
     style="opacity:0.2;fill:#000000"
     width="3"
     height="30"
     x="-28"
     y="-31"
     ry="1.25"
     transform="matrix(0,-1,-1,0,0,0)"
     id="rect2" />
  <rect
     style="fill:#595959"
     width="3"
     height="30"
     x="-27"
     y="-31"
     ry="1.25"
     transform="matrix(0,-1,-1,0,0,0)"
     id="rect3" />
  <path
     style="fill:#595959"
     d="M 4.25 6 C 3.5575 6 3 6.5575 3 7.25 L 3 9 L 29 9 L 29 7.25 C 29 6.5575 28.4425 6 27.75 6 L 4.25 6 z"
     id="path3" />
  <path
     style="opacity:0.1;fill:#ffffff"
     d="M 4.25 6 C 3.5575 6 3 6.5575 3 7.25 L 3 8.25 C 3 7.5575 3.5575 7 4.25 7 L 27.75 7 C 28.442 7 29 7.5575 29 8.25 L 29 7.25 C 29 6.5575 28.442 6 27.75 6 L 4.25 6 z"
     id="path4" />
  <path
     style="fill:#333333"
     d="M 3 9 L 3 22.75 C 3 23.4425 3.5575 24 4.25 24 L 27.75 24 C 28.4425 24 29 23.4425 29 22.75 L 29 9 L 3 9 z"
     id="path5" />
  <rect
     style="opacity:0.2;fill:#000000"
     width="26"
     height="1"
     x="3"
     y="9"
     id="rect5" />
  <rect
     style="fill:#333333"
     width="2"
     height="1"
     x="15"
     y="7"
     id="rect6" />
  <path
     id="path6"
     style="fill:#ffffff;opacity:0.1"
     d="M 2.25 24 C 1.5575014 24 1 24.557502 1 25.25 L 1 25.75 C 1 25.835234 1.0092872 25.917691 1.0253906 25.998047 C 1.1415672 25.427417 1.6440637 25 2.25 25 L 29.75 25 C 30.355935 25 30.858433 25.427417 30.974609 25.998047 C 30.990713 25.917691 31 25.835234 31 25.75 L 31 25.25 C 31 24.557502 30.442498 24 29.75 24 L 2.25 24 z " />
</svg>
