<?xml version="1.0" encoding="UTF-8" standalone="no"?>
<!-- Created with Inkscape (http://www.inkscape.org/) -->

<svg
   width="32"
   height="32"
   viewBox="0 0 32 32"
   version="1.1"
   id="svg5"
   inkscape:version="1.2.2 (1:1.2.2+202305151914+b0a8486541)"
   sodipodi:docname="computer.svg"
   xmlns:inkscape="http://www.inkscape.org/namespaces/inkscape"
   xmlns:sodipodi="http://sodipodi.sourceforge.net/DTD/sodipodi-0.dtd"
   xmlns="http://www.w3.org/2000/svg"
   xmlns:svg="http://www.w3.org/2000/svg">
  <sodipodi:namedview
     id="namedview7"
     pagecolor="#ffffff"
     bordercolor="#000000"
     borderopacity="0.25"
     inkscape:showpageshadow="2"
     inkscape:pageopacity="0.0"
     inkscape:pagecheckerboard="0"
     inkscape:deskcolor="#d1d1d1"
     inkscape:document-units="px"
     showgrid="false"
     inkscape:zoom="25.1875"
     inkscape:cx="15.980149"
     inkscape:cy="16"
     inkscape:window-width="1920"
     inkscape:window-height="1008"
     inkscape:window-x="0"
     inkscape:window-y="0"
     inkscape:window-maximized="1"
     inkscape:current-layer="svg5" />
  <defs
     id="defs2" />
  <rect
     style="opacity:0.2"
     width="16"
     height="21"
     x="8.0000095"
     y="8.000001"
     rx="1.25"
     ry="1.25"
     id="rect1173" />
  <rect
     style="fill:#8e8e8e"
     width="16"
     height="21"
     x="8.0000095"
     y="7.000001"
     rx="1.25"
     ry="1.25"
     id="rect1175" />
  <rect
     style="opacity:0.2"
     width="26"
     height="20"
     x="3.0000093"
     y="6.000001"
     rx="1.25"
     ry="1.25"
     id="rect1177" />
  <path
     style="fill:#595959"
     d="m 3,22 v 1.75 C 3,24.4425 3.5575,25 4.25,25 h 23.5 C 28.4425,25 29,24.4425 29,23.75 V 22 Z"
     id="path1179" />
  <path
     style="fill:#333333"
     d="M 4.25,5 C 3.5575,5 3,5.5575 3,6.25 V 22 H 29 V 6.25 C 29,5.5575 28.4425,5 27.75,5 Z"
     id="path1181" />
  <rect
     style="opacity:0.1;fill:#ffffff"
     width="26"
     height="1"
     x="3.0000093"
     y="22"
     id="rect1183" />
  <path
     style="opacity:0.1;fill:#ffffff"
     d="M 4.25,5 C 3.5575,5 3,5.5575 3,6.25 v 1 C 3,6.5575 3.5575,6 4.25,6 h 23.5 C 28.442,6 29,6.5575 29,7.25 v -1 C 29,5.5575 28.442,5 27.75,5 Z"
     id="path1185" />
  <rect
     style="opacity:0.2;fill:#000000;fill-opacity:1;stroke-width:2;stroke-linecap:square"
     id="rect1462"
     width="16"
     height="11"
     x="14.00001"
     y="20.000002"
     ry="1" />
  <rect
     style="fill:#adadad;fill-opacity:1;stroke-width:2;stroke-linecap:square"
     id="rect622"
     width="16"
     height="11"
     x="14.00001"
     y="19.000002"
     ry="1" />
  <path
     d="m 16,21.000002 c -0.55229,0 -1,0.44772 -1,1 0,0.55229 0.44771,1 1,1 0.55228,0 1,-0.44771 1,-1 0,-0.55228 -0.44772,-1 -1,-1 z m 4,0 c -0.55229,0 -1,0.44772 -1,1 0,0.55229 0.44771,1 1,1 0.55228,0 1,-0.44771 1,-1 0,-0.55228 -0.44772,-1 -1,-1 z m 4,0 c -0.55229,0 -1,0.44772 -1,1 0,0.55229 0.44771,1 1,1 0.55228,0 1,-0.44771 1,-1 0,-0.55228 -0.44772,-1 -1,-1 z m 4,0 c -0.55229,0 -1,0.44772 -1,1 0,0.55229 0.44771,1 1,1 0.55228,0 1,-0.44771 1,-1 0,-0.55228 -0.44772,-1 -1,-1 z m -10,3 c -0.55228,0 -1,0.44772 -1,1 0,0.55229 0.44772,1 1,1 0.55228,0 1,-0.44771 1,-1 0,-0.55228 -0.44772,-1 -1,-1 z m 4,0 c -0.55228,0 -1,0.44772 -1,1 0,0.55229 0.44772,1 1,1 0.55228,0 1,-0.44771 1,-1 0,-0.55228 -0.44772,-1 -1,-1 z m 4,0 c -0.55228,0 -1,0.44772 -1,1 0,0.55229 0.44772,1 1,1 0.55228,0 1,-0.44771 1,-1 0,-0.55228 -0.44772,-1 -1,-1 z m -10,3 v 2 h 12 v -2 z"
     style="opacity:0.2;fill:#000000;fill-opacity:1;stroke-width:16;stroke-linecap:round;stroke-linejoin:round"
     id="path522" />
  <path
     d="m 16,20.000002 c -0.55229,0 -1,0.44772 -1,1 0,0.55229 0.44771,1 1,1 0.55228,0 1,-0.44771 1,-1 0,-0.55228 -0.44772,-1 -1,-1 z m 4,0 c -0.55229,0 -1,0.44772 -1,1 0,0.55229 0.44771,1 1,1 0.55228,0 1,-0.44771 1,-1 0,-0.55228 -0.44772,-1 -1,-1 z m 4,0 c -0.55229,0 -1,0.44772 -1,1 0,0.55229 0.44771,1 1,1 0.55228,0 1,-0.44771 1,-1 0,-0.55228 -0.44772,-1 -1,-1 z m 4,0 c -0.55229,0 -1,0.44772 -1,1 0,0.55229 0.44771,1 1,1 0.55228,0 1,-0.44771 1,-1 0,-0.55228 -0.44772,-1 -1,-1 z m -10,3 c -0.55229,0 -1,0.44772 -1,1 0,0.55229 0.44771,1 1,1 0.55228,0 1,-0.44771 1,-1 0,-0.55228 -0.44772,-1 -1,-1 z m 4,0 c -0.55229,0 -1,0.44772 -1,1 0,0.55229 0.44771,1 1,1 0.55228,0 1,-0.44771 1,-1 0,-0.55228 -0.44772,-1 -1,-1 z m 4,0 c -0.55229,0 -1,0.44772 -1,1 0,0.55229 0.44771,1 1,1 0.55228,0 1,-0.44771 1,-1 0,-0.55228 -0.44772,-1 -1,-1 z m -10,3 v 2 h 12 v -2 z"
     style="fill:#e8e8e8;fill-opacity:1;stroke-width:8;stroke-linecap:round;stroke-linejoin:round"
     id="path445" />
  <path
     d="m 15.00001,19.000002 c -0.554,0 -1,0.446 -1,1 v 1 c 0,-0.554 0.446,-1 1,-1 H 29 c 0.554,0 1,0.446 1,1 v -1 c 0,-0.554 -0.446,-1 -1,-1 z"
     style="opacity:0.2;fill:#ffffff;fill-opacity:1;stroke-width:4;stroke-linecap:round;stroke-linejoin:round"
     id="path550" />
</svg>
