<?xml version="1.0" encoding="UTF-8" standalone="no"?>
<svg
   width="32"
   height="32"
   version="1"
   id="svg3"
   sodipodi:docname="drive-harddisk-ieee1394.svg"
   inkscape:version="1.3.2 (091e20ef0f, 2023-11-25, custom)"
   xmlns:inkscape="http://www.inkscape.org/namespaces/inkscape"
   xmlns:sodipodi="http://sodipodi.sourceforge.net/DTD/sodipodi-0.dtd"
   xmlns="http://www.w3.org/2000/svg"
   xmlns:svg="http://www.w3.org/2000/svg">
  <defs
     id="defs3" />
  <sodipodi:namedview
     id="namedview3"
     pagecolor="#ffffff"
     bordercolor="#000000"
     borderopacity="0.25"
     inkscape:showpageshadow="2"
     inkscape:pageopacity="0.0"
     inkscape:pagecheckerboard="0"
     inkscape:deskcolor="#d1d1d1"
     inkscape:zoom="22.75"
     inkscape:cx="15.978022"
     inkscape:cy="16"
     inkscape:window-width="1920"
     inkscape:window-height="942"
     inkscape:window-x="0"
     inkscape:window-y="32"
     inkscape:window-maximized="1"
     inkscape:current-layer="svg3" />
  <rect
     style="opacity:0.2"
     width="28"
     height="22"
     x="-31"
     y="-27"
     ry="2"
     transform="matrix(0,-1,-1,0,0,0)"
     id="rect1" />
  <rect
     style="fill:#8e8e8e"
     width="28"
     height="22"
     x="-30"
     y="-27"
     ry="2"
     transform="matrix(0,-1,-1,0,0,0)"
     id="rect2" />
  <path
     d="M 11.384766,8.0605469 8.5566406,10.888672 9.6171875,11.949219 12.445312,9.1210938 Z m 9.191406,0 -2.828125,2.8281251 2.828125,2.830078 2.828125,-2.830078 z m -7.423828,1.7675781 -2.828125,2.828125 1.060547,1.0625 2.828125,-2.830078 z M 16,12 c -1.932997,0 -3.5,1.567003 -3.5,3.5 0,1.932997 1.567003,3.5 3.5,3.5 1.932997,0 3.5,-1.567003 3.5,-3.5 C 19.5,13.567003 17.932997,12 16,12 Z m 0,2 c 0.828427,0 1.5,0.671573 1.5,1.5 0,0.828427 -0.671573,1.5 -1.5,1.5 -0.828427,0 -1.5,-0.671573 -1.5,-1.5 0,-0.828427 0.671573,-1.5 1.5,-1.5 z m -2,6 v 1.5 h 4 V 20 Z m 0,2.5 V 24 h 4 v -1.5 z"
     style="opacity:0.5;fill:#000000"
     id="path1" />
  <path
     style="fill:#ffffff;opacity:0.2"
     d="m7 2c-1.108 0-2 0.892-2 2v1c0-1.108 0.892-2 2-2h18c1.108 0 2 0.892 2 2v-1c0-1.108-0.892-2-2-2h-18z"
     id="path3" />
</svg>
