<?xml version="1.0" encoding="UTF-8" standalone="no"?>
<!-- Created with Inkscape (http://www.inkscape.org/) -->

<svg
   width="32"
   height="32"
   viewBox="0 0 32 32"
   version="1.1"
   id="svg1"
   inkscape:version="1.3.2 (091e20ef0f, 2023-11-25, custom)"
   sodipodi:docname="phone-apple-iphone.svg"
   xmlns:inkscape="http://www.inkscape.org/namespaces/inkscape"
   xmlns:sodipodi="http://sodipodi.sourceforge.net/DTD/sodipodi-0.dtd"
   xmlns="http://www.w3.org/2000/svg"
   xmlns:svg="http://www.w3.org/2000/svg">
  <sodipodi:namedview
     id="namedview1"
     pagecolor="#ffffff"
     bordercolor="#000000"
     borderopacity="0.25"
     inkscape:showpageshadow="2"
     inkscape:pageopacity="0.0"
     inkscape:pagecheckerboard="0"
     inkscape:deskcolor="#d1d1d1"
     inkscape:document-units="px"
     inkscape:zoom="25.125"
     inkscape:cx="16"
     inkscape:cy="16"
     inkscape:window-width="1920"
     inkscape:window-height="1008"
     inkscape:window-x="0"
     inkscape:window-y="0"
     inkscape:window-maximized="1"
     inkscape:current-layer="svg1" />
  <defs
     id="defs1" />
  <rect
     style="opacity:0.2;fill:#000000"
     id="rect1"
     width="18"
     height="28"
     x="7"
     y="3"
     ry="3" />
  <rect
     style="fill:#595959;fill-opacity:1"
     id="rect2"
     width="18"
     height="28"
     x="7"
     y="2"
     ry="3" />
  <rect
     style="fill:#2196f3;fill-opacity:1"
     id="rect3"
     width="14"
     height="24"
     x="9"
     y="4"
     ry="1" />
  <path
     id="rect6"
     style="opacity:0.2;fill:#000000;fill-opacity:1"
     d="M 10.5,25 C 10.223,25 10,25.223 10,25.5 v 1 c 0,0.277 0.223,0.5 0.5,0.5 h 1 c 0.277,0 0.5,-0.223 0.5,-0.5 v -1 C 12,25.223 11.777,25 11.5,25 Z m 3,0 C 13.223,25 13,25.223 13,25.5 v 1 c 0,0.277 0.223,0.5 0.5,0.5 h 1 c 0.277,0 0.5,-0.223 0.5,-0.5 v -1 C 15,25.223 14.777,25 14.5,25 Z m 3,0 C 16.223,25 16,25.223 16,25.5 v 1 c 0,0.277 0.223,0.5 0.5,0.5 h 1 c 0.277,0 0.5,-0.223 0.5,-0.5 v -1 C 18,25.223 17.777,25 17.5,25 Z m 3,0 C 19.223,25 19,25.223 19,25.5 v 1 c 0,0.277 0.223,0.5 0.5,0.5 h 1 c 0.277,0 0.5,-0.223 0.5,-0.5 v -1 C 21,25.223 20.777,25 20.5,25 Z" />
  <rect
     style="fill:#8bc34a;fill-opacity:1"
     id="rect7"
     width="2"
     height="2"
     x="10"
     y="24"
     ry="0.5" />
  <rect
     style="fill:#fbc02d;fill-opacity:1"
     id="rect8"
     width="2"
     height="2"
     x="13"
     y="24"
     ry="0.5" />
  <rect
     style="fill:#ef5350;fill-opacity:1"
     id="rect9"
     width="2"
     height="2"
     x="16"
     y="24"
     ry="0.5" />
  <rect
     style="fill:#9db8f6;fill-opacity:1"
     id="rect9-2"
     width="2"
     height="2"
     x="19"
     y="24"
     ry="0.5" />
  <path
     id="rect4"
     style="opacity:0.2;fill:#000000"
     d="M 10,4 C 9.4460006,4 9,4.4460006 9,5 V 6 C 9,5.4460006 9.4460006,5 10,5 h 12 c 0.553999,0 1,0.4460006 1,1 V 5 C 23,4.4460006 22.553999,4 22,4 Z" />
  <rect
     style="fill:#333333"
     id="rect10"
     width="6"
     height="2"
     x="13"
     y="6"
     ry="1" />
  <path
     id="rect5"
     style="opacity:0.1;fill:#ffffff;fill-opacity:1"
     d="M 10,2 C 8.3380017,2 7,3.3380017 7,5 V 6 C 7,4.3380017 8.3380017,3 10,3 h 12 c 1.661998,0 3,1.3380017 3,3 V 5 C 25,3.3380017 23.661998,2 22,2 Z" />
</svg>
