<?xml version="1.0" encoding="UTF-8" standalone="no"?>
<!-- Created with Inkscape (http://www.inkscape.org/) -->

<svg
   width="16"
   height="16"
   viewBox="0 0 16 16"
   version="1.1"
   id="svg5"
   inkscape:version="1.2.2 (1:1.2.2+202305151914+b0a8486541)"
   sodipodi:docname="airplane-mode-symbolic.svg"
   xmlns:inkscape="http://www.inkscape.org/namespaces/inkscape"
   xmlns:sodipodi="http://sodipodi.sourceforge.net/DTD/sodipodi-0.dtd"
   xmlns="http://www.w3.org/2000/svg"
   xmlns:svg="http://www.w3.org/2000/svg">
  <sodipodi:namedview
     id="namedview7"
     pagecolor="#ffffff"
     bordercolor="#000000"
     borderopacity="0.25"
     inkscape:showpageshadow="2"
     inkscape:pageopacity="0.0"
     inkscape:pagecheckerboard="0"
     inkscape:deskcolor="#d1d1d1"
     inkscape:document-units="px"
     showgrid="false"
     showguides="true"
     inkscape:zoom="51.875"
     inkscape:cx="7.7975904"
     inkscape:cy="8"
     inkscape:window-width="1920"
     inkscape:window-height="1008"
     inkscape:window-x="0"
     inkscape:window-y="0"
     inkscape:window-maximized="1"
     inkscape:current-layer="svg5" />
  <defs
     id="defs2" />
  <path
     d="m 6.5003241,1 c -0.8,0 -0.78,0.03 -0.53,1.03 l 1.62,4.97 h -4.5 l -1.22,-1.78 c -0.14,-0.21 -0.12,-0.22 -0.34,-0.22 h -0.22 c -0.42996997,0 -0.28,0.43 -0.28,0.43 l 0.28,2.57 -0.28,2.56 c 0,0 -0.13996997,0.44 0.25,0.44 h 0.25 c 0.21,0 0.2,-0.01 0.34,-0.22 l 1.22,-1.78 h 4.5 l -1.62,4.93 c -0.27,1.05 -0.27,1.07 0.53,1.07 0.43,0 0.43,-0.02 0.72,-0.5 L 10.900324,9 h 3.1 c 0.55,0 1,-0.45 1,-1 0,-0.56 -0.45,-1 -1,-1 h -3.1 L 7.2203241,1.5 c -0.27,-0.46 -0.29,-0.5 -0.66,-0.5 z"
     style="fill:#dfdfdf;fill-opacity:1"
     id="path1194" />
</svg>
