<?xml version="1.0" encoding="UTF-8" standalone="no"?>
<!-- Created with Inkscape (http://www.inkscape.org/) -->

<svg
   width="16"
   height="16"
   viewBox="0 0 16 16"
   version="1.1"
   id="svg5"
   inkscape:version="1.2.2 (1:1.2.2+202305151914+b0a8486541)"
   sodipodi:docname="audio-volume-low-symbolic.svg"
   xmlns:inkscape="http://www.inkscape.org/namespaces/inkscape"
   xmlns:sodipodi="http://sodipodi.sourceforge.net/DTD/sodipodi-0.dtd"
   xmlns="http://www.w3.org/2000/svg"
   xmlns:svg="http://www.w3.org/2000/svg">
  <sodipodi:namedview
     id="namedview7"
     pagecolor="#ffffff"
     bordercolor="#000000"
     borderopacity="0.25"
     inkscape:showpageshadow="2"
     inkscape:pageopacity="0.0"
     inkscape:pagecheckerboard="0"
     inkscape:deskcolor="#d1d1d1"
     inkscape:document-units="px"
     showgrid="false"
     inkscape:zoom="51.875"
     inkscape:cx="7.0072289"
     inkscape:cy="8"
     inkscape:window-width="1920"
     inkscape:window-height="1008"
     inkscape:window-x="0"
     inkscape:window-y="0"
     inkscape:window-maximized="1"
     inkscape:current-layer="svg5" />
  <defs
     id="defs2" />
  <path
     id="path971"
     d="M 8,1 4,5 H 1 v 6 h 3 l 4,4 z M 6,6 v 4 L 5,9 H 3 V 7 h 2 z"
     style="fill:#dfdfdf;stroke:none;stroke-width:4;-inkscape-stroke:none;fill-opacity:1" />
  <path
     d="m 10,1 v 1.5 c 2.32,0.739999 4.000002,2.930003 4.000002,5.5 0,2.569997 -1.680002,4.760001 -4.000002,5.5 V 15 c 3.149999,-0.779999 5.500002,-3.600003 5.500002,-7 0,-3.399997 -2.350003,-6.220001 -5.500002,-7 z m 0,4 v 6 C 11.060001,10.420001 11.789065,9.2999993 11.789064,8 11.789064,6.700001 11.070001,5.579999 10,5 Z"
     style="fill:#dfdfdf;stroke:none;stroke-width:4;-inkscape-stroke:none;opacity:0.35;fill-opacity:1"
     id="path1186" />
</svg>
