<?xml version="1.0" encoding="UTF-8" standalone="no"?>
<!-- Created with Inkscape (http://www.inkscape.org/) -->

<svg
   width="16"
   height="16"
   viewBox="0 0 16 16"
   version="1.1"
   id="svg5"
   inkscape:version="1.2.2 (1:1.2.2+202305151914+b0a8486541)"
   sodipodi:docname="camera-disabled-symbolic.svg"
   xmlns:inkscape="http://www.inkscape.org/namespaces/inkscape"
   xmlns:sodipodi="http://sodipodi.sourceforge.net/DTD/sodipodi-0.dtd"
   xmlns="http://www.w3.org/2000/svg"
   xmlns:svg="http://www.w3.org/2000/svg">
  <sodipodi:namedview
     id="namedview7"
     pagecolor="#ffffff"
     bordercolor="#000000"
     borderopacity="0.25"
     inkscape:showpageshadow="2"
     inkscape:pageopacity="0.0"
     inkscape:pagecheckerboard="0"
     inkscape:deskcolor="#d1d1d1"
     inkscape:document-units="px"
     showgrid="false"
     showguides="true"
     inkscape:zoom="51.875"
     inkscape:cx="8"
     inkscape:cy="8"
     inkscape:window-width="1920"
     inkscape:window-height="1008"
     inkscape:window-x="0"
     inkscape:window-y="0"
     inkscape:window-maximized="1"
     inkscape:current-layer="svg5" />
  <defs
     id="defs2" />
  <path
     id="rect339"
     style="fill:#dfdfdf;fill-opacity:1;stroke-width:4;stroke-linecap:square;opacity:0.35"
     d="M 5.8671875 1 C 5.6654111 1.0041775 5.5892601 1.0317438 5.4296875 1.1875 L 7.2421875 3 L 9.5 3 L 11 5 L 14 5 L 14 9.7578125 L 16 11.757812 L 16 5 C 16 3.892011 15.10799 3 14 3 L 12 3 L 10.765625 1.3886719 C 10.400447 1.0006758 10.4 1 10 1 L 6 1 C 5.95 1 5.9061954 0.9991924 5.8671875 1 z M 2.5644531 1.1503906 L 1.1503906 2.5644531 L 1.6230469 3.0371094 C 0.6966114 3.2125537 0 4.0210252 0 5 L 0 13 C 0 14.10799 0.89201107 15 2 15 L 13.585938 15 L 14.585938 16 L 16 14.585938 L 2.5644531 1.1503906 z M 2 5 L 3.5859375 5 L 5.7070312 7.1210938 A 3 3 0 0 0 5 9 A 3 3 0 0 0 8 12 A 3 3 0 0 0 9.8789062 11.292969 L 11.585938 13 L 2 13 L 2 5 z M 7.1269531 8.5410156 L 8.4589844 9.8730469 A 1 1 0 0 1 8 10 A 1 1 0 0 1 7 9 A 1 1 0 0 1 7.1269531 8.5410156 z " />
</svg>
