<?xml version="1.0" encoding="UTF-8" standalone="no"?>
<!-- Created with Inkscape (http://www.inkscape.org/) -->

<svg
   width="16"
   height="16"
   viewBox="0 0 16 16"
   version="1.1"
   id="svg5"
   inkscape:version="1.2.2 (1:1.2.2+202305151914+b0a8486541)"
   sodipodi:docname="changes-allow-symbolic.svg"
   xmlns:inkscape="http://www.inkscape.org/namespaces/inkscape"
   xmlns:sodipodi="http://sodipodi.sourceforge.net/DTD/sodipodi-0.dtd"
   xmlns="http://www.w3.org/2000/svg"
   xmlns:svg="http://www.w3.org/2000/svg">
  <sodipodi:namedview
     id="namedview7"
     pagecolor="#ffffff"
     bordercolor="#000000"
     borderopacity="0.25"
     inkscape:showpageshadow="2"
     inkscape:pageopacity="0.0"
     inkscape:pagecheckerboard="0"
     inkscape:deskcolor="#d1d1d1"
     inkscape:document-units="px"
     showgrid="false"
     showguides="true"
     inkscape:zoom="51.875"
     inkscape:cx="7.9903614"
     inkscape:cy="8"
     inkscape:window-width="1920"
     inkscape:window-height="1008"
     inkscape:window-x="0"
     inkscape:window-y="0"
     inkscape:window-maximized="1"
     inkscape:current-layer="svg5" />
  <defs
     id="defs2" />
  <path
     id="path346"
     style="fill:#dfdfdf;fill-opacity:1"
     d="M 8,1 C 5.7840022,1 4,2.7840022 4,5 H 6 C 6,3.8920011 6.8920011,3 8,3 9.1079989,3 10,3.8920011 10,5 V 7 C 7.6666667,7 5.3333333,7 3,7 2.4460006,7 2,7.4460006 2,8 v 6 c 0,0.553999 0.4460006,1 1,1 h 10 c 0.553999,0 1,-0.446001 1,-1 V 8 C 14,7.4460006 13.553999,7 13,7 H 12 V 5 C 12,2.7840022 10.215998,1 8,1 Z M 4,9 h 8 v 4 H 4 Z" />
</svg>
