<?xml version="1.0" encoding="UTF-8" standalone="no"?>
<!-- Created with Inkscape (http://www.inkscape.org/) -->

<svg
   width="16"
   height="16"
   viewBox="0 0 16 16"
   version="1.1"
   id="svg5"
   inkscape:version="1.2.2 (1:1.2.2+202305151914+b0a8486541)"
   sodipodi:docname="network-wireless-secure-signal-weak-symbolic.svg"
   xmlns:inkscape="http://www.inkscape.org/namespaces/inkscape"
   xmlns:sodipodi="http://sodipodi.sourceforge.net/DTD/sodipodi-0.dtd"
   xmlns="http://www.w3.org/2000/svg"
   xmlns:svg="http://www.w3.org/2000/svg">
  <sodipodi:namedview
     id="namedview7"
     pagecolor="#ffffff"
     bordercolor="#000000"
     borderopacity="0.25"
     inkscape:showpageshadow="2"
     inkscape:pageopacity="0.0"
     inkscape:pagecheckerboard="0"
     inkscape:deskcolor="#d1d1d1"
     inkscape:document-units="px"
     showgrid="false"
     showguides="true"
     inkscape:zoom="51.875"
     inkscape:cx="7.9903614"
     inkscape:cy="8"
     inkscape:window-width="1920"
     inkscape:window-height="1008"
     inkscape:window-x="0"
     inkscape:window-y="0"
     inkscape:window-maximized="1"
     inkscape:current-layer="svg5" />
  <defs
     id="defs2" />
  <path
     id="path346"
     style="fill:#dfdfdf;fill-opacity:1"
     d="M 8 1 C 5.7125046 1.00938 3.4847495 1.731699 1.6269531 3.0664062 C 1.0830943 3.4549956 0.5757272 3.8923979 0.11132812 4.3730469 L 8 14 L 9 12.779297 L 9 11 L 10 11 C 10 9.3662716 11.29341 8.0464057 12.916016 8.0019531 L 15.904297 4.3554688 C 15.439837 3.8747796 14.9325 3.4373773 14.388672 3.0488281 C 12.524476 1.7172309 10.290996 1.001 8 1 z M 8 3 C 9.8269496 3.0003906 11.610131 3.5572617 13.113281 4.5957031 L 10.544922 7.7324219 C 9.7895437 7.2598633 8.9090991 7.0002309 8 7 C 7.0900253 7.0008481 6.2106251 7.2623902 5.4550781 7.7363281 L 2.890625 4.6074219 C 4.391122 3.5655239 6.1732036 3.0048 8 3 z " />
  <path
     d="m 13,9.0000003 c -1.108,0 -2,0.9100001 -2,2.0309997 V 12 h -1 v 4 h 6 V 12 H 15 V 11.031 C 15,9.9110004 14.108,9.0000003 13,9.0000003 Z M 13,10 c 0.554,0 1,0.442001 1,1 v 1 h -2 v -1 c 0,-0.557999 0.446,-1 1,-1 z"
     id="path2053"
     style="fill:#dfdfdf;fill-opacity:1" />
</svg>
