<?xml version="1.0" encoding="UTF-8" standalone="no"?>
<!-- Created with Inkscape (http://www.inkscape.org/) -->

<svg
   width="16"
   height="16"
   viewBox="0 0 16 16"
   version="1.1"
   id="svg5"
   inkscape:version="1.2.2 (1:1.2.2+202305151914+b0a8486541)"
   sodipodi:docname="night-light-disabled-symbolic.svg"
   xmlns:inkscape="http://www.inkscape.org/namespaces/inkscape"
   xmlns:sodipodi="http://sodipodi.sourceforge.net/DTD/sodipodi-0.dtd"
   xmlns="http://www.w3.org/2000/svg"
   xmlns:svg="http://www.w3.org/2000/svg">
  <sodipodi:namedview
     id="namedview7"
     pagecolor="#ffffff"
     bordercolor="#000000"
     borderopacity="0.25"
     inkscape:showpageshadow="2"
     inkscape:pageopacity="0.0"
     inkscape:pagecheckerboard="0"
     inkscape:deskcolor="#d1d1d1"
     inkscape:document-units="px"
     showgrid="false"
     inkscape:zoom="51.875"
     inkscape:cx="8.0192771"
     inkscape:cy="8"
     inkscape:window-width="1920"
     inkscape:window-height="1008"
     inkscape:window-x="0"
     inkscape:window-y="0"
     inkscape:window-maximized="1"
     inkscape:current-layer="svg5" />
  <defs
     id="defs2" />
  <path
     id="path300"
     style="fill:#dfdfdf;stroke-width:1.633;stroke-linecap:square;paint-order:fill markers stroke;fill-opacity:1"
     d="M 5.8789062 0.22265625 L 4.4121094 0.82617188 L 5.9433594 2.3574219 L 6.640625 2.0703125 L 5.8789062 0.22265625 z M 10.154297 0.23046875 L 9.3847656 2.0761719 L 11.230469 2.8457031 L 12 1 L 10.154297 0.23046875 z M 8 3 C 7.5670203 3 7.1467513 3.0566995 6.7460938 3.1601562 L 12.839844 9.2539062 C 12.943301 8.8532486 13 8.4329798 13 8 C 13 5.2385791 10.761421 3 8 3 z M 1 4 L 0.23046875 5.8457031 L 2.0761719 6.6152344 L 2.8457031 4.7695312 L 1 4 z M 15.017578 4.0292969 L 13.167969 4.7910156 L 13.929688 6.640625 L 15.777344 5.8789062 L 15.017578 4.0292969 z M 4.8632812 4.1074219 C 3.7267171 5.0239548 3 6.426248 3 8 C 3 10.761421 5.2385791 13 8 13 C 9.5733304 13 10.97603 12.272759 11.892578 11.136719 L 10.458984 9.703125 C 9.9117913 10.496226 9.0014057 10.99645 8 11 C 6.3431475 11 5 9.6568522 5 8 C 5.0035458 6.9985942 5.5037734 6.0882087 6.296875 5.5410156 L 4.8632812 4.1074219 z M 7.0136719 6.2578125 C 7.1374627 7.7084674 8.2915326 8.8625373 9.7421875 8.9863281 L 7.0136719 6.2578125 z M 2.0703125 9.359375 L 0.22265625 10.121094 L 0.98242188 11.970703 L 2.8320312 11.208984 L 2.0703125 9.359375 z M 13.923828 9.3847656 L 13.642578 10.056641 L 15.171875 11.585938 L 15.769531 10.154297 L 13.923828 9.3847656 z M 4.7695312 13.154297 L 4 15 L 5.8457031 15.769531 L 6.6152344 13.923828 L 4.7695312 13.154297 z M 11.208984 13.167969 L 9.359375 13.929688 L 10.121094 15.777344 L 11.970703 15.017578 L 11.208984 13.167969 z " />
  <path
     id="rect1117"
     style="opacity:1;fill:#dfdfdf;stroke-linecap:square"
     transform="rotate(-45)"
     d="m -1,1 h 2 l 3e-7,20.627417 h -2.00000003 z"
     sodipodi:nodetypes="ccccc" />
</svg>
