<?xml version="1.0" encoding="UTF-8" standalone="no"?>
<!-- Created with Inkscape (http://www.inkscape.org/) -->

<svg
   width="16"
   height="16"
   viewBox="0 0 16 16"
   version="1.1"
   id="svg5"
   inkscape:version="1.2.2 (1:1.2.2+202305151914+b0a8486541)"
   sodipodi:docname="notification-disabled-new-symbolic.svg"
   xmlns:inkscape="http://www.inkscape.org/namespaces/inkscape"
   xmlns:sodipodi="http://sodipodi.sourceforge.net/DTD/sodipodi-0.dtd"
   xmlns="http://www.w3.org/2000/svg"
   xmlns:svg="http://www.w3.org/2000/svg">
  <sodipodi:namedview
     id="namedview7"
     pagecolor="#ffffff"
     bordercolor="#000000"
     borderopacity="0.25"
     inkscape:showpageshadow="2"
     inkscape:pageopacity="0.0"
     inkscape:pagecheckerboard="0"
     inkscape:deskcolor="#d1d1d1"
     inkscape:document-units="px"
     showgrid="false"
     showguides="true"
     inkscape:zoom="51.875"
     inkscape:cx="8"
     inkscape:cy="8"
     inkscape:window-width="1920"
     inkscape:window-height="1008"
     inkscape:window-x="0"
     inkscape:window-y="0"
     inkscape:window-maximized="1"
     inkscape:current-layer="svg5" />
  <defs
     id="defs2" />
  <path
     id="path345"
     style="fill:#dfdfdf;fill-opacity:1;opacity:0.35"
     d="M 8 1 C 7.4500006 1 7 1.4500005 7 2 C 7 2.03 6.9997612 2.0696094 7.0097656 2.0996094 C 4.7197679 2.5596089 3 4.5700024 3 7 L 3 11.5 L 1 13.5 L 1 14 L 15 14 L 15 13.5 L 13 11.5 L 13 7 C 13 6.940825 12.994211 6.8828797 12.992188 6.8242188 A 3 3 0 0 1 12 7 A 3 3 0 0 1 10.990234 6.8183594 C 10.993852 6.8789592 11 6.9384602 11 7 L 11 12 L 5 12 L 5 7 C 5 5.3380017 6.3380017 4 8 4 C 8.3565484 4 8.6969579 4.0645882 9.0136719 4.1777344 A 3 3 0 0 1 9 4 A 3 3 0 0 1 9.5683594 2.2558594 C 9.3797429 2.1936903 9.188107 2.1393567 8.9902344 2.0996094 C 9.0002344 2.0696094 9 2.03 9 2 C 9 1.4500005 8.5499995 1 8 1 z M 6.2695312 15 C 6.6295309 15.619999 7.2900007 16 8 16 C 8.7099993 16 9.3704691 15.619999 9.7304688 15 L 6.2695312 15 z " />
  <circle
     style="opacity:1;fill:#4285f4;stroke-linecap:square;fill-opacity:1"
     id="path283"
     cx="12"
     cy="4"
     r="2"
     class="suggested" />
</svg>
