<?xml version="1.0" encoding="UTF-8" standalone="no"?>
<!-- Created with Inkscape (http://www.inkscape.org/) -->

<svg
   width="16"
   height="16"
   viewBox="0 0 16 16"
   version="1.1"
   id="svg5"
   inkscape:version="1.2.2 (1:1.2.2+202305151914+b0a8486541)"
   sodipodi:docname="printer-error-symbolic.svg"
   xmlns:inkscape="http://www.inkscape.org/namespaces/inkscape"
   xmlns:sodipodi="http://sodipodi.sourceforge.net/DTD/sodipodi-0.dtd"
   xmlns="http://www.w3.org/2000/svg"
   xmlns:svg="http://www.w3.org/2000/svg">
  <sodipodi:namedview
     id="namedview7"
     pagecolor="#ffffff"
     bordercolor="#000000"
     borderopacity="0.25"
     inkscape:showpageshadow="2"
     inkscape:pageopacity="0.0"
     inkscape:pagecheckerboard="0"
     inkscape:deskcolor="#d1d1d1"
     inkscape:document-units="px"
     showgrid="false"
     showguides="true"
     inkscape:zoom="51.875"
     inkscape:cx="8.2891566"
     inkscape:cy="8.1349398"
     inkscape:window-width="1920"
     inkscape:window-height="1008"
     inkscape:window-x="0"
     inkscape:window-y="0"
     inkscape:window-maximized="1"
     inkscape:current-layer="svg5" />
  <defs
     id="defs2" />
  <path
     id="path635"
     style="fill:#dfdfdf;stroke-width:4;stroke-linecap:square"
     d="M 3 1 L 3 5 C 1.3380085 5 0 6.3380085 0 8 L 0 12 L 3 12 L 3 15 L 10 15 L 10 13 L 5 13 L 5 11 L 10 11 L 10 9 L 3 9 L 3 10 L 2 10 L 2 8 C 2 7.4460024 2.4460024 7 3 7 L 10 7 L 10 6 L 14 6 L 14 8 L 14 10 L 14 12 L 16 12 L 16 8 C 16 6.3380085 14.66199 5 13 5 L 13 1 L 3 1 z M 5 3 L 11 3 L 11 5 L 5 5 L 5 3 z " />
  <path
     style="fill:#f44336"
     class="error"
     d="m 11,7 v 4.01 L 11.25,13 h 1.5 L 13,11 V 7 Z m 0,7 v 2 h 2 v -2 z"
     id="path4" />
</svg>
