<?xml version="1.0" encoding="UTF-8" standalone="no"?>
<!-- Created with Inkscape (http://www.inkscape.org/) -->

<svg
   width="16"
   height="16"
   viewBox="0 0 16 16"
   version="1.1"
   id="svg5"
   inkscape:version="1.2.2 (1:1.2.2+202305151914+b0a8486541)"
   sodipodi:docname="weather-few-clouds-symbolic.svg"
   xmlns:inkscape="http://www.inkscape.org/namespaces/inkscape"
   xmlns:sodipodi="http://sodipodi.sourceforge.net/DTD/sodipodi-0.dtd"
   xmlns="http://www.w3.org/2000/svg"
   xmlns:svg="http://www.w3.org/2000/svg">
  <sodipodi:namedview
     id="namedview7"
     pagecolor="#ffffff"
     bordercolor="#000000"
     borderopacity="0.25"
     inkscape:showpageshadow="2"
     inkscape:pageopacity="0.0"
     inkscape:pagecheckerboard="0"
     inkscape:deskcolor="#d1d1d1"
     inkscape:document-units="px"
     showgrid="false"
     inkscape:zoom="51.875"
     inkscape:cx="7.9903614"
     inkscape:cy="8"
     inkscape:window-width="1920"
     inkscape:window-height="1008"
     inkscape:window-x="0"
     inkscape:window-y="0"
     inkscape:window-maximized="1"
     inkscape:current-layer="svg5" />
  <defs
     id="defs2" />
  <path
     id="path1861"
     style="fill:#dfdfdf;fill-opacity:1"
     d="M 7,0 V 2.0859375 C 7.3303476,2.0294127 7.6648521,2.000666 8,2 8.3352573,2.00196 8.6697627,2.0320108 9,2.0898438 V 0 Z M 3.0507812,1.6367188 1.6367188,3.0507812 3.1132812,4.5273438 C 3.5029679,3.9807426 3.9816214,3.5034096 4.5292969,3.1152344 Z m 9.8984378,0 -1.476563,1.4765624 c 0.546602,0.3896867 1.023934,0.8683402 1.41211,1.4160157 L 14.363281,3.0507812 Z M 8,3 C 5.2385819,3 3,5.2385819 3,8 3,9.6755008 3.8248341,11.157175 5.0898438,12.064453 5.2477199,11.376076 5.6068141,10.782807 6.0820312,10.298828 5.398655,9.7306498 5.0023687,8.8887204 5,8 5,6.3431458 6.3431458,5 8,5 c 1.2727604,0.001 2.406358,0.8050129 2.828125,2.0058594 C 10.885417,7.0032588 10.941672,7 11,7 11.747574,7 12.41079,7.2171964 12.980469,7.5722656 12.763511,5.0110406 10.617357,3.0000001 8,3 Z M 0,7 V 9 H 2.0859375 C 2.0294127,8.6696525 2.000667,8.3351479 2,8 2.00196,7.6647427 2.0320108,7.3302373 2.0898438,7 Z M 13.914062,7 C 13.970592,7.3303475 13.99933,7.6648521 14,8 13.99914,8.1441379 13.991669,8.2880603 13.980469,8.4316406 14.137272,8.611138 14.279793,8.8019185 14.410156,9 H 16 V 7 Z M 3.1152344,11.470703 1.6367188,12.949219 3.0507812,14.363281 4.5273438,12.886719 C 3.9807426,12.497032 3.5034096,12.018379 3.1152344,11.470703 Z"
     sodipodi:nodetypes="ccccccccccccccccsscccccscscccccccccccccccccc" />
  <path
     d="m 11,8.0000003 c -1.3558,0 -2.4019995,0.90846 -2.9452995,2.0624997 -1.1641,0.44786 -2.0547,1.4689 -2.0547,2.7949 0,1.6879 1.3164,3.1426 3,3.1426 H 13 c 1.6836,0 3,-1.4547 3,-3.1426 0,-1.327 -0.89114,-2.3497 -2.0566,-2.7969 C 13.40248,8.9032003 12.3531,8.0000003 11,8.0000003 Z M 11,10 c 0.57908,0 1.0932,0.41268 1.2949,1.0449 l 0.19141,0.59961 0.62305,0.08594 c 0.46769,0.06518 0.89062,0.50872 0.89062,1.127 0,0.67906 -0.47447,1.1426 -1,1.1426 H 8.9999805 c -0.52553,0 -1,-0.46352 -1,-1.1426 0,-0.61823 0.42294,-1.0618 0.89062,-1.127 L 9.50779,11.64451 9.7031,11.05076 C 9.91332,10.40801 10.4209,9.9999603 11,9.9999603 Z"
     style="color:#000000;fill:#dfdfdf;stroke-width:2;-inkscape-stroke:none;fill-opacity:1"
     id="path2749" />
</svg>
