<?xml version="1.0" encoding="UTF-8" standalone="no"?>
<!-- Created with Inkscape (http://www.inkscape.org/) -->

<svg
   width="16"
   height="16"
   viewBox="0 0 16 16"
   version="1.1"
   id="svg5"
   inkscape:version="1.2.2 (1:1.2.2+202305151914+b0a8486541)"
   sodipodi:docname="weather-severe-alert-symbolic.svg"
   xmlns:inkscape="http://www.inkscape.org/namespaces/inkscape"
   xmlns:sodipodi="http://sodipodi.sourceforge.net/DTD/sodipodi-0.dtd"
   xmlns="http://www.w3.org/2000/svg"
   xmlns:svg="http://www.w3.org/2000/svg">
  <sodipodi:namedview
     id="namedview7"
     pagecolor="#ffffff"
     bordercolor="#000000"
     borderopacity="0.25"
     inkscape:showpageshadow="2"
     inkscape:pageopacity="0.0"
     inkscape:pagecheckerboard="0"
     inkscape:deskcolor="#d1d1d1"
     inkscape:document-units="px"
     showgrid="false"
     inkscape:zoom="51.875"
     inkscape:cx="8.0192771"
     inkscape:cy="8"
     inkscape:window-width="1920"
     inkscape:window-height="1008"
     inkscape:window-x="0"
     inkscape:window-y="0"
     inkscape:window-maximized="1"
     inkscape:current-layer="svg5" />
  <defs
     id="defs2" />
  <path
     id="path4554"
     style="fill:#dfdfdf"
     d="M 8.5546875 0 C 6.4585896 0.0033999966 4.7500584 1.2776017 3.7558594 3 L 3.6894531 3.078125 L 3.5351562 3.1230469 C 1.5204583 3.5378365 2.9605918e-16 5.3182647 0 7.4765625 C 0 9.9290598 1.9306243 12 4.3574219 12 L 6 12 L 6 10 L 4.3574219 10 C 3.0706232 10 2 8.8944611 2 7.4765625 C 2 6.1223639 2.9917668 5.0604562 4.1972656 4.9726562 L 4.9082031 4.921875 L 5.2089844 4.2695312 L 5.2089844 4.2675781 C 5.8293838 2.9096795 7.0859483 2.0014 8.5605469 2 L 8.5644531 2 C 10.562451 2.0014 12.196969 3.6653021 12.292969 5.8125 L 12.292969 5.828125 L 12.349609 6.5800781 L 13.027344 6.8691406 C 13.616943 7.1208004 14 7.7035119 14 8.3632812 C 14 9.2897803 13.305321 10 12.482422 10 L 10 10 L 10 12 L 12.482422 12 C 14.44562 12 16 10.327679 16 8.3632812 C 16 7.1244825 15.285224 6.0703556 14.265625 5.4101562 L 14.203125 5.359375 L 14.160156 5.1777344 C 13.764757 2.3059372 11.476444 0.001999998 8.5605469 0 L 8.5546875 0 z " />
  <path
     style="fill:#ff9800"
     class="warning"
     d="m 7,6 v 4 l 0.25,2 h 1.5 L 9,10 V 6 Z m 0,7 v 2 h 2 v -2 z"
     id="path5339" />
</svg>
