<?xml version="1.0" encoding="UTF-8" standalone="no"?>
<!-- Created with Inkscape (http://www.inkscape.org/) -->

<svg
   width="256"
   height="256"
   viewBox="0 0 256 256"
   version="1.1"
   id="svg5"
   inkscape:version="1.4 (e7c3feb100, 2024-10-09)"
   sodipodi:docname="gnome-2048.svg"
   xmlns:inkscape="http://www.inkscape.org/namespaces/inkscape"
   xmlns:sodipodi="http://sodipodi.sourceforge.net/DTD/sodipodi-0.dtd"
   xmlns="http://www.w3.org/2000/svg"
   xmlns:svg="http://www.w3.org/2000/svg">
  <sodipodi:namedview
     id="namedview7"
     pagecolor="#ffffff"
     bordercolor="#000000"
     borderopacity="0.25"
     inkscape:showpageshadow="2"
     inkscape:pageopacity="0.0"
     inkscape:pagecheckerboard="0"
     inkscape:deskcolor="#d1d1d1"
     inkscape:document-units="px"
     showgrid="false"
     inkscape:zoom="3.0703125"
     inkscape:cx="128"
     inkscape:cy="128"
     inkscape:window-width="1920"
     inkscape:window-height="1011"
     inkscape:window-x="0"
     inkscape:window-y="0"
     inkscape:window-maximized="1"
     inkscape:current-layer="svg5" />
  <defs
     id="defs2" />
  <rect
     style="opacity:0.2;fill:#000000;stroke-width:16;stroke-linecap:square"
     id="rect234"
     width="224"
     height="224"
     x="16"
     y="18"
     ry="48" />
  <path
     id="rect396"
     style="fill:#4f4f4f;fill-opacity:1;stroke-width:16;stroke-linecap:square"
     d="M 128,16 V 144 H 240 V 64 C 240,37.408028 218.59198,16 192,16 Z" />
  <path
     id="rect3568"
     style="fill:#3584e4;fill-opacity:1;stroke-width:8"
     d="m 112,128 v 112 h 80 c 26.592,0 48,-21.40802 48,-48 v -64 z"
     sodipodi:nodetypes="ccsscc" />
  <path
     id="rect3708"
     style="fill:#2ec27e;fill-opacity:1;stroke-width:8"
     d="m 16,112 v 80 c 0,26.59198 21.408,48 48,48 h 64 V 112 Z"
     sodipodi:nodetypes="cssccc" />
  <path
     id="rect3848"
     style="fill:#ff7800;fill-opacity:1;stroke-width:8"
     d="M 64,16 C 37.408,16 16,37.408024 16,64 v 64 H 128 V 16 Z" />
  <path
     id="path1040"
     style="opacity:0.1;fill:#ffffff;stroke-width:16;stroke-linecap:square"
     d="M 64,16 C 37.40816,16 16,37.40816 16,64 v 2 C 16,39.40816 37.40816,18 64,18 h 128 c 26.59184,0 48,21.40816 48,48 V 64 C 240,37.40816 218.59184,16 192,16 Z" />
  <rect
     style="opacity:0.1;fill:#000000;stroke-width:4"
     id="rect1"
     width="224"
     height="2"
     x="16"
     y="128" />
  <path
     style="opacity:0.2;fill:#000000;stroke-width:8"
     d="M 68.656248,42 C 61.30784,42 54.22454,43.907676 48,47.453124 l 3.375,11.906252 c 5.70582,-2.727248 10.022188,-3.906252 14.171872,-3.906252 6.829712,0 10.718752,3.17898 10.718752,8.906252 0,7.27272 -8.29524,15.370728 -28.265624,31.734376 V 106 H 96 V 90 H 73.328128 c 11.757456,-8.818184 17.625,-16.643472 17.625,-27.734376 C 90.953128,49.53836 83.180168,42 68.656248,42 Z M 72,154 40,194.09376 V 210 h 32 v 16 h 16 v -16 h 16 V 194.09376 H 88 V 154 Z m 112.39062,0 c -13.66485,0 -22.75,7.61623 -22.75,19 0,6.90195 3.36936,11.02228 7.95313,13.89062 C 163.45322,189.5797 160,194.42038 160,200.51562 160,211.00302 169.51098,218 183.78125,218 198.31098,218 208,210.2933 208,198.64062 c 0,-8.15684 -5.1876,-12.37754 -11.32812,-15.15624 6.05404,-3.22689 9.34374,-8.06017 9.34374,-13.79688 0,-9.41176 -8.7385,-15.6875 -21.625,-15.6875 z m -0.5156,13.26562 c 4.06486,0 6.73438,2.05436 6.73438,5.28125 0,3.22687 -2.24366,5.83803 -5.70312,6.73438 -4.4973,-1.70307 -7.87501,-3.49598 -7.87501,-6.8125 0,-3.13724 2.69242,-5.20313 6.84375,-5.20313 z M 72,172.85938 V 194 l -16.8125,-0.0938 z m 108.32813,18.60938 c 6.48649,2.15126 12.28125,3.77148 12.28125,7.98436 0,3.13726 -3.29012,5.28126 -8.04688,5.28126 -5.53513,0 -9.17188,-2.78298 -9.17188,-6.90626 0,-2.95796 1.824,-5.28374 4.93751,-6.35936 z"
     id="path6" />
  <path
     style="fill:#ffffff;stroke-width:8"
     d="M 68.656248,40 C 61.30784,40 54.22454,41.907676 48,45.453124 l 3.375,11.906252 c 5.70582,-2.727248 10.022188,-3.906252 14.171872,-3.906252 6.829712,0 10.718752,3.17898 10.718752,8.906252 0,7.27272 -8.29524,15.370728 -28.265624,31.734376 V 104 H 96 V 88 H 73.328128 c 11.757456,-8.818184 17.625,-16.643472 17.625,-27.734376 C 90.953128,47.53836 83.180168,40 68.656248,40 Z M 72,152 40,192.09376 V 208 h 32 v 16 h 16 v -16 h 16 V 192.09376 H 88 V 152 Z m 112.39062,0 c -13.66485,0 -22.75,7.61623 -22.75,19 0,6.90195 3.36936,11.02228 7.95313,13.89062 C 163.45322,187.5797 160,192.42038 160,198.51562 160,209.00302 169.51098,216 183.78125,216 198.31098,216 208,208.2933 208,196.64062 c 0,-8.15684 -5.1876,-12.37754 -11.32812,-15.15624 6.05404,-3.22689 9.34374,-8.06017 9.34374,-13.79688 0,-9.41176 -8.7385,-15.6875 -21.625,-15.6875 z m -0.5156,13.26562 c 4.06486,0 6.73438,2.05436 6.73438,5.28125 0,3.22687 -2.24366,5.83803 -5.70312,6.73438 -4.4973,-1.70307 -7.87501,-3.49598 -7.87501,-6.8125 0,-3.13724 2.69242,-5.20313 6.84375,-5.20313 z M 72,170.85938 V 192 l -16.8125,-0.0938 z m 108.32813,18.60938 c 6.48649,2.15126 12.28125,3.77148 12.28125,7.98436 0,3.13726 -3.29012,5.28126 -8.04688,5.28126 -5.53513,0 -9.17188,-2.78298 -9.17188,-6.90626 0,-2.95796 1.824,-5.28374 4.93751,-6.35936 z"
     id="path7" />
</svg>
