<?xml version="1.0" encoding="UTF-8" standalone="no"?>
<!-- Created with Inkscape (http://www.inkscape.org/) -->

<svg
   width="256"
   height="256"
   viewBox="0 0 256 256"
   version="1.1"
   id="svg5"
   inkscape:version="1.4 (e7c3feb100, 2024-10-09)"
   sodipodi:docname="inkscape.svg"
   xmlns:inkscape="http://www.inkscape.org/namespaces/inkscape"
   xmlns:sodipodi="http://sodipodi.sourceforge.net/DTD/sodipodi-0.dtd"
   xmlns="http://www.w3.org/2000/svg"
   xmlns:svg="http://www.w3.org/2000/svg">
  <sodipodi:namedview
     id="namedview7"
     pagecolor="#ffffff"
     bordercolor="#000000"
     borderopacity="0.25"
     inkscape:showpageshadow="2"
     inkscape:pageopacity="0.0"
     inkscape:pagecheckerboard="0"
     inkscape:deskcolor="#d1d1d1"
     inkscape:document-units="px"
     showgrid="false"
     inkscape:zoom="3.0703125"
     inkscape:cx="128"
     inkscape:cy="128"
     inkscape:window-width="1920"
     inkscape:window-height="1011"
     inkscape:window-x="0"
     inkscape:window-y="0"
     inkscape:window-maximized="1"
     inkscape:current-layer="svg5" />
  <defs
     id="defs2" />
  <rect
     style="opacity:0.2;fill:#000000;stroke-width:16;stroke-linecap:square"
     id="rect234"
     width="224"
     height="224"
     x="16"
     y="18"
     ry="48" />
  <rect
     style="fill:#4f4f4f;fill-opacity:1;stroke-width:16;stroke-linecap:square"
     id="rect396"
     width="224"
     height="224"
     x="16"
     y="16"
     ry="48" />
  <path
     d="m 127.98344,45.999948 c -4.78745,0.0019 -9.44019,1.798302 -13.1092,5.593866 L 49.578502,119.03296 c -3.597858,3.72228 -5.506448,8.62698 -5.578046,13.48472 -10e-4,0.0736 0,0.2476 0,0.328 -6.4e-4,14.45274 36.518224,0.42385 39.999324,18.09422 1.883548,9.56339 -15.999746,5.17517 -15.999746,14.79725 0,11.28701 31.641694,2.08263 39.202446,12.82843 5.78757,8.22566 -10.998052,8.5787 -6.40612,16.45356 3.93898,6.75516 18.02553,2.43698 20.37464,11.51592 2.68322,10.37066 15.95866,9.20716 25.71833,0.98438 5.98276,-5.04066 -6.79588,-8.18894 -1.35936,-13.81284 5.43609,-5.62434 27.91524,-4.57454 26.46829,-16.78172 -0.95756,-8.07881 -7.84508,-8.96858 -7.99983,-18.09417 -0.5408,-7.7283 8.6743,-5.46551 36.51493,-13.15659 11.1323,-5.23046 11.52662,-8.01142 11.48422,-12.82844 -8.8e-4,-0.0956 0,-0.2264 0,-0.328 -0.064,-4.85738 -2.30866,-9.7626 -5.90612,-13.48472 L 141.10812,51.593814 c -3.66974,-3.795964 -8.32407,-5.591946 -13.10908,-5.593866 z M 203.1384,158.01834 c -1.52628,-0.0616 -3.05462,0.096 -4.14058,0.48436 -2.04702,0.75506 -11.75208,1.18934 -10.95294,10.62529 8.78572,4.71578 22.18428,8.46602 23.78086,-0.96878 1.19864,-7.07515 -4.10788,-9.92431 -8.68734,-10.14087 z M 78.187374,182.09706 c -0.856036,0.1304 -1.444592,0.57505 -2.281266,1.00002 -6.6902,3.396 -11.172174,10.55082 -4.921732,13.6722 6.251364,3.12068 10.44174,-0.1928 15.921546,-4.0626 5.480728,-3.87174 5.318248,-4.5691 4.921852,-6.06264 -0.759956,0.2028 -5.737246,-3.93137 -10.984216,-4.54698 -0.874396,-0.098 -1.800348,-0.13 -2.656184,0 z"
     style="opacity:0.2;fill:#000000;fill-rule:evenodd;stroke-width:2"
     id="path2028" />
  <path
     d="m 127.98344,44 c -4.78745,0.0019 -9.44019,1.798302 -13.1092,5.593868 L 49.578502,117.03303 c -3.597858,3.72224 -5.506448,8.62693 -5.578046,13.48472 -10e-4,0.0736 0,0.24759 0,0.328 -6.4e-4,14.45269 36.518224,0.42384 39.999324,18.09422 1.883548,9.56335 -15.999746,5.17514 -15.999746,14.79725 0,11.28697 31.641694,2.08259 39.202446,12.82843 5.78757,8.22567 -10.998052,8.57867 -6.40612,16.45353 3.93898,6.75514 18.02553,2.43698 20.37464,11.51592 2.68322,10.37068 15.95866,9.20714 25.71833,0.98436 5.98276,-5.04066 -6.79588,-8.18888 -1.35936,-13.81282 5.43609,-5.62434 27.91524,-4.57454 26.46829,-16.78173 -0.95756,-8.07881 -7.84508,-8.96858 -7.99983,-18.09413 -0.5408,-7.72829 8.6743,-5.46551 36.51493,-13.1566 11.1323,-5.2305 11.52662,-8.01141 11.48422,-12.82843 -8.8e-4,-0.0956 0,-0.2264 0,-0.328 -0.064,-4.85743 -2.30866,-9.76264 -5.90612,-13.48472 L 141.10812,49.593868 C 137.43838,45.797902 132.78405,44.00192 127.99904,44 Z m 75.15496,112.01841 c -1.52628,-0.0616 -3.05462,0.096 -4.14058,0.48436 -2.04702,0.75506 -11.75208,1.18934 -10.95294,10.62525 8.78572,4.71577 22.18428,8.46606 23.78086,-0.96877 1.19864,-7.07516 -4.10788,-9.92432 -8.68734,-10.14084 z M 78.187374,180.09709 c -0.856036,0.1304 -1.444592,0.57505 -2.281226,1.00002 -6.690242,3.39601 -11.172214,10.55085 -4.921772,13.67221 6.251364,3.12068 10.44174,-0.1928 15.921546,-4.06258 5.480728,-3.87176 5.318248,-4.56912 4.921852,-6.06262 -0.759956,0.2028 -5.737246,-3.93142 -10.984216,-4.54703 -0.874396,-0.098 -1.800348,-0.13 -2.656184,0 z"
     style="fill:#efefef;fill-opacity:1;fill-rule:evenodd;stroke-width:2"
     id="path1944" />
  <path
     d="m 128.2999,58.000122 c 4.92692,0.04 18.42724,16.748796 30.47232,29.260718 3.38808,4.54612 -1.31053,9.205406 -1.31053,9.205406 L 132.23309,82.657926 121.09282,97.78228 111.26458,82.989926 105.36445,106.00248 88.000012,95.48224 92.588138,89.562086 119.78078,61.618602 c 2.08583,-2.12628 3.68315,-3.654158 8.51904,-3.61648 z"
     style="opacity:0.2;fill:#000000;fill-rule:evenodd;stroke-width:2.00006"
     id="path2285" />
  <path
     d="m 127.98392,44.00004 c -4.78741,0.0019 -9.44027,1.79827 -13.10928,5.593726 L 49.578062,117.03093 c -3.597818,3.72217 -5.506486,8.62666 -5.578086,13.48436 -10e-4,0.0736 0,0.24759 0,0.32799 0,0.2148 0.044,0.3936 0.0624,0.5938 0.317598,-4.49829 2.184106,-8.95955 5.515608,-12.40625 L 114.87456,51.593676 c 3.66901,-3.795458 8.32187,-5.591808 13.10928,-5.593728 h 0.016 c 4.78505,0.0019 9.43974,1.79787 13.10932,5.593728 l 64.9841,67.437154 c 3.44498,3.56438 5.63032,8.21392 5.86712,12.86717 0.012,-0.3516 0.0424,-0.67732 0.04,-1.05472 -8.8e-4,-0.0956 0,-0.22639 0,-0.32799 -0.064,-4.85734 -2.30878,-9.76235 -5.9062,-13.48436 L 141.10888,49.593766 C 137.4393,45.79791 132.78461,44.00196 127.99956,44.00004 Z m -44.218498,108.0776 c -2.358786,5.49145 -15.765588,3.31854 -15.765588,11.65621 0,0.3588 0.036,0.69648 0.1016,1.01563 1.050434,-7.15747 13.40564,-5.41412 15.664026,-10.67185 0.0792,0.2856 0.1744,0.55539 0.2344,0.85939 0.016,0.0792 0.003,0.1416 0.016,0.2188 0.1196,-0.6518 0.1524,-1.36491 -0.016,-2.21871 -0.06,-0.30399 -0.1552,-0.57391 -0.2344,-0.85939 z m 119.374458,3.9375 c -1.52628,-0.0616 -3.05468,0.096 -4.14062,0.48435 -2.04702,0.75504 -11.75224,1.18928 -10.9531,10.62498 0.004,0.002 0.004,0.008 0.008,0.008 0.6472,-7.49364 9.05476,-7.93543 10.9453,-8.63279 1.08594,-0.3884 2.61434,-0.54596 4.14062,-0.48436 3.88558,0.1836 8.28212,2.27115 8.79678,7.21872 0.59976,-6.39672 -4.4234,-9.01191 -8.79678,-9.2187 z m -38.97642,2.81246 c -0.14678,0.58912 -0.21759,1.23411 -0.16398,2.00003 0.004,0.2548 0.032,0.48403 0.0468,0.72651 0.032,-0.2488 0.0604,-0.49843 0.11718,-0.72651 1.04636,7.27687 6.92276,8.64835 7.82812,16.03898 0.0672,-0.61191 0.09,-1.25095 0.008,-1.94531 -0.88196,-7.44075 -6.78684,-8.79806 -7.83592,-16.0937 z m -84.655854,21.17959 c -0.447758,-0.004 -0.892436,0.02 -1.320312,0.086 -0.855996,0.1304 -1.444592,0.57504 -2.281228,1 -4.87813,2.4761 -8.550548,6.94641 -7.773434,10.39843 0.621438,-3.03732 3.797578,-6.38034 7.773434,-8.39844 0.836636,-0.42496 1.425232,-0.8696 2.281228,-1 0.427876,-0.066 0.872554,-0.09 1.320312,-0.086 0.447796,0.004 0.898754,0.036 1.335952,0.086 4.95709,0.5816 9.626582,4.26154 10.773376,4.49998 0.439878,-0.72956 0.391198,-1.27384 0.210798,-1.9531 -0.759954,0.2028 -5.737366,-3.93127 -10.984294,-4.54687 -0.437198,-0.0488 -0.888156,-0.082 -1.335952,-0.086 z m 28.351434,1.70311 c -2.04103,3.42222 -8.87463,5.17712 -7.67188,9.76562 0.88048,-3.18578 5.95849,-4.89272 7.67188,-7.76563 0.1752,0.35759 0.2956,0.69641 0.38279,1.02343 0.2448,-0.87811 0.1856,-1.86234 -0.38279,-3.02342 z m 36.93734,14.92968 c -0.69464,1.06622 -0.72272,2.03682 -0.43752,2.9609 0.102,-0.3132 0.2232,-0.63188 0.43752,-0.96092 1.00867,1.74458 2.89726,3.33814 3.50778,5.0312 0.96939,-2.5011 -2.11395,-4.62048 -3.50778,-7.03118 z"
     style="opacity:0.2;fill:#ffffff;fill-rule:evenodd;stroke-width:1.99997"
     id="path1916" />
  <path
     d="m 128.29988,56.00009 c 4.92693,0.04 18.42725,16.748782 30.47234,29.260706 3.38806,4.546134 -1.31056,9.205426 -1.31056,9.205426 L 132.23309,80.657904 121.0928,95.782256 111.26458,80.989902 105.36445,104.00244 87.999996,93.482188 92.588128,87.562062 119.78077,59.618548 c 2.08582,-2.126268 3.68313,-3.654138 8.51903,-3.616458 z"
     style="opacity:0.2;fill:#000000;fill-rule:evenodd;stroke-width:2.00006"
     id="path2000" />
  <path
     d="m 128.29988,56.00009 c 4.92693,0.04 18.42725,16.74882 30.47234,29.260706 3.38806,4.546174 -1.31056,9.205466 -1.31056,9.205466 L 132.23309,80.657904 121.0928,95.782256 111.26458,80.989942 105.36445,104.00248 87.999996,93.482228 92.588128,87.562102 119.78077,59.618628 c 2.08582,-2.126306 3.68313,-3.654178 8.51903,-3.616498 z"
     style="fill:#3d3d3d;fill-opacity:1;fill-rule:evenodd;stroke-width:2.00006"
     id="path1972" />
  <path
     id="path1040"
     style="opacity:0.1;fill:#ffffff;stroke-width:16;stroke-linecap:square"
     d="M 64,16 C 37.408052,16 16,37.408054 16,64 v 2 C 16,39.408026 37.408026,18 64,18 h 128 c 26.59198,0 48,21.408026 48,48 V 64 C 240,37.408054 218.59194,16 192,16 Z" />
</svg>
