<?xml version="1.0" encoding="UTF-8" standalone="no"?>
<!-- Created with Inkscape (http://www.inkscape.org/) -->

<svg
   width="256"
   height="256"
   viewBox="0 0 256 256"
   version="1.1"
   id="svg5"
   inkscape:version="1.4 (e7c3feb100, 2024-10-09)"
   sodipodi:docname="preferences-mail.svg"
   xmlns:inkscape="http://www.inkscape.org/namespaces/inkscape"
   xmlns:sodipodi="http://sodipodi.sourceforge.net/DTD/sodipodi-0.dtd"
   xmlns="http://www.w3.org/2000/svg"
   xmlns:svg="http://www.w3.org/2000/svg">
  <sodipodi:namedview
     id="namedview7"
     pagecolor="#ffffff"
     bordercolor="#000000"
     borderopacity="0.25"
     inkscape:showpageshadow="2"
     inkscape:pageopacity="0.0"
     inkscape:pagecheckerboard="0"
     inkscape:deskcolor="#d1d1d1"
     inkscape:document-units="px"
     showgrid="false"
     inkscape:zoom="3.1484375"
     inkscape:cx="128"
     inkscape:cy="128"
     inkscape:window-width="1920"
     inkscape:window-height="1011"
     inkscape:window-x="0"
     inkscape:window-y="0"
     inkscape:window-maximized="1"
     inkscape:current-layer="svg5" />
  <defs
     id="defs2" />
  <rect
     style="opacity:0.2;fill:#000000;stroke-width:16;stroke-linecap:square"
     id="rect234"
     width="224"
     height="224"
     x="16.000004"
     y="18"
     ry="48" />
  <rect
     style="fill:#fbc02d;fill-opacity:1;stroke-width:16;stroke-linecap:square"
     id="rect396"
     width="224"
     height="224"
     x="16"
     y="16"
     ry="48" />
  <rect
     style="opacity:0.2;fill:#000000;stroke-width:16;stroke-linecap:round;stroke-linejoin:round"
     id="rect288"
     width="160"
     height="127.99999"
     x="48"
     y="66"
     ry="15.999999" />
  <rect
     style="fill:#ededed;fill-opacity:1;stroke-width:16;stroke-linecap:round;stroke-linejoin:round"
     id="rect397"
     width="160"
     height="112"
     x="48"
     y="80"
     ry="15.999999" />
  <path
     d="M 64.000003,65.999999 H 192 c 8.864,0 16,7.136 16,16 v 16 L 128,146 48.000003,97.999999 v -16 c 0,-8.864 7.136,-16 16,-16 z"
     style="opacity:0.2;fill:#000000;stroke-width:16;stroke-linecap:round;stroke-linejoin:round"
     id="path1140" />
  <path
     d="M 64.000003,63.999999 H 192 c 8.864,0 16,7.136 16,16 v 16 L 128,144 48.000003,95.999999 v -16 c 0,-8.864 7.136,-16 16,-16 z"
     style="fill:#ffffff;stroke-width:16;stroke-linecap:round;stroke-linejoin:round"
     id="path1112" />
  <path
     id="path1040"
     style="opacity:0.2;fill:#ffffff;stroke-width:16;stroke-linecap:square"
     d="M 64.000003,16 C 37.408056,16 16.000004,37.408054 16.000004,63.999999 v 2 C 16.000004,39.408026 37.40803,18 64.000003,18 H 192 c 26.59198,0 48,21.408026 48,47.999999 v -2 C 240,37.408054 218.59194,16 192,16 Z" />
</svg>
