<?xml version="1.0" encoding="UTF-8" standalone="no"?>
<!-- Created with Inkscape (http://www.inkscape.org/) -->

<svg
   width="256"
   height="256"
   viewBox="0 0 256 256"
   version="1.1"
   id="svg5"
   inkscape:version="1.2.2 (1:1.2.2+202305151914+b0a8486541)"
   sodipodi:docname="preferences-system-network.svg"
   xmlns:inkscape="http://www.inkscape.org/namespaces/inkscape"
   xmlns:sodipodi="http://sodipodi.sourceforge.net/DTD/sodipodi-0.dtd"
   xmlns="http://www.w3.org/2000/svg"
   xmlns:svg="http://www.w3.org/2000/svg">
  <sodipodi:namedview
     id="namedview7"
     pagecolor="#ffffff"
     bordercolor="#000000"
     borderopacity="0.25"
     inkscape:showpageshadow="2"
     inkscape:pageopacity="0.0"
     inkscape:pagecheckerboard="0"
     inkscape:deskcolor="#d1d1d1"
     inkscape:document-units="px"
     showgrid="false"
     inkscape:zoom="3.1484375"
     inkscape:cx="127.84119"
     inkscape:cy="128"
     inkscape:window-width="1920"
     inkscape:window-height="1008"
     inkscape:window-x="0"
     inkscape:window-y="0"
     inkscape:window-maximized="1"
     inkscape:current-layer="svg5" />
  <defs
     id="defs2" />
  <rect
     style="opacity:0.2;fill:#000000;stroke-width:16;stroke-linecap:square"
     id="rect234"
     width="224"
     height="224"
     x="16"
     y="18"
     ry="48" />
  <rect
     style="fill:#4d4d4d;fill-opacity:1;stroke-width:16;stroke-linecap:square"
     id="rect396"
     width="224"
     height="224"
     x="16"
     y="16"
     ry="48" />
  <path
     d="M 96,202 80,186 H 60.000004 c -6.648,0 -12,-5.352 -12,-12 V 78 c 0,-6.648 5.352,-12 12,-12 H 196 c 6.648,0 12,5.352 12,12 v 96 c 0,6.648 -5.352,12 -12,12 h -20 l -16,16 z"
     style="opacity:0.2;fill:#000000;stroke-width:4"
     id="path1618" />
  <path
     d="M 96,200 80,184 H 60.000004 c -6.648,0 -12,-5.352 -12,-12 V 76.000004 C 48.000004,69.352 53.352004,64 60.000004,64 H 196 c 6.648,0 12,5.352 12,12.000004 V 172 c 0,6.648 -5.352,12 -12,12 h -20 l -16,16 z"
     style="fill:#e4e4e4;fill-opacity:1;stroke-width:4"
     id="path316" />
  <path
     d="M 112,176 94,160 H 72 V 88 h 112 v 72 h -24 l -16,16 z"
     style="opacity:0.6;stroke-width:4"
     id="path1562" />
  <path
     id="path1590"
     style="opacity:0.2;fill:#ffffff;stroke-width:4"
     d="m 72,160 v 2 h 22 l 18,16 h 32 l 16,-16 h 24 v -2 h -24 l -16,16 H 112 L 94,160 Z" />
  <path
     id="path1646"
     style="opacity:0.2;fill:#ffffff;stroke-width:4"
     d="m 60,64 c -6.647992,0 -12,5.352008 -12,12 v 2 c 0,-6.647996 5.352008,-12 12,-12 h 136 c 6.648,0 12,5.352004 12,12 v -2 c 0,-6.647992 -5.352,-12 -12,-12 z" />
  <path
     d="m 92,88 v 16 h 8 V 88 Z m 16,0 v 16 h 8 V 88 Z m 16,0 v 16 h 8 V 88 Z m 16,0 v 16 h 8 V 88 Z m 16,0 v 16 h 8 V 88 Z"
     style="fill:#f8c44e;fill-opacity:1;stroke-width:8;stroke-linecap:square"
     id="path1816" />
  <path
     id="path1040"
     style="opacity:0.1;fill:#ffffff;stroke-width:16;stroke-linecap:square"
     d="M 64,16 C 37.408052,16 16,37.408054 16,64 v 2 C 16,39.408026 37.408026,18 64,18 h 128 c 26.59198,0 48,21.408026 48,48 V 64 C 240,37.408054 218.59194,16 192,16 Z" />
</svg>
