<?xml version="1.0" encoding="UTF-8" standalone="no"?>
<!-- Created with Inkscape (http://www.inkscape.org/) -->

<svg
   width="256"
   height="256"
   viewBox="0 0 256 256"
   version="1.1"
   id="svg5"
   inkscape:version="1.3 (0e150ed6c4, 2023-07-21)"
   sodipodi:docname="preferences-system-windows-behavior.svg"
   xmlns:inkscape="http://www.inkscape.org/namespaces/inkscape"
   xmlns:sodipodi="http://sodipodi.sourceforge.net/DTD/sodipodi-0.dtd"
   xmlns="http://www.w3.org/2000/svg"
   xmlns:svg="http://www.w3.org/2000/svg">
  <sodipodi:namedview
     id="namedview7"
     pagecolor="#ffffff"
     bordercolor="#000000"
     borderopacity="0.25"
     inkscape:showpageshadow="2"
     inkscape:pageopacity="0.0"
     inkscape:pagecheckerboard="0"
     inkscape:deskcolor="#d1d1d1"
     inkscape:document-units="px"
     showgrid="false"
     inkscape:zoom="3.0585938"
     inkscape:cx="127.83653"
     inkscape:cy="128"
     inkscape:window-width="1920"
     inkscape:window-height="984"
     inkscape:window-x="0"
     inkscape:window-y="29"
     inkscape:window-maximized="1"
     inkscape:current-layer="svg5"
     showguides="false" />
  <defs
     id="defs2" />
  <rect
     style="opacity:0.2;fill:#000000;stroke-width:16;stroke-linecap:square"
     id="rect234"
     width="224"
     height="224"
     x="16"
     y="18"
     ry="48" />
  <rect
     style="fill:#e4e4e4;fill-opacity:1;stroke-width:16;stroke-linecap:square"
     id="rect396"
     width="224"
     height="216"
     x="16"
     y="24"
     ry="48" />
  <path
     style="opacity:0.1;fill:#000000;stroke-width:8"
     d="m 114,98 -1.2,14.72 a 44,44 0 0 0 -12.88,7.44 l -13.44,-6.32 -14,24.32 12.16,8.4 A 44,44 0 0 0 84,154 a 44,44 0 0 0 0.64,7.44 l -12.16,8.4 14,24.32 13.36,-6.32 a 44,44 0 0 0 12.96,7.36 L 114,210 h 28 l 1.2,-14.72 a 44,44 0 0 0 12.88,-7.44 l 13.44,6.32 14,-24.32 -12.16,-8.4 A 44,44 0 0 0 172,154 a 44,44 0 0 0 -0.64,-7.44 l 12.16,-8.4 -14,-24.32 -13.36,6.32 A 44,44 0 0 0 143.2,112.8 L 142,98 Z m 14,40 a 16,16 0 0 1 16,16 16,16 0 0 1 -16,16 16,16 0 0 1 -16,-16 16,16 0 0 1 16,-16 z"
     id="path7" />
  <path
     style="fill:#636e73;stroke-width:8"
     d="m 114,96 -1.2,14.72 a 44,44 0 0 0 -12.88,7.44 l -13.44,-6.32 -14,24.32 12.16,8.4 A 44,44 0 0 0 84,152 a 44,44 0 0 0 0.64,7.44 l -12.16,8.4 14,24.32 13.36,-6.32 a 44,44 0 0 0 12.96,7.36 L 114,208 h 28 l 1.2,-14.72 a 44,44 0 0 0 12.88,-7.44 l 13.44,6.32 14,-24.32 -12.16,-8.4 A 44,44 0 0 0 172,152 a 44,44 0 0 0 -0.64,-7.44 l 12.16,-8.4 -14,-24.32 -13.36,6.32 A 44,44 0 0 0 143.2,110.8 L 142,96 Z m 14,40 a 16,16 0 0 1 16,16 16,16 0 0 1 -16,16 16,16 0 0 1 -16,-16 16,16 0 0 1 16,-16 z"
     id="path8" />
  <path
     id="rect1233"
     style="fill:#636e73;fill-opacity:1;stroke-width:16;stroke-linecap:square"
     d="m 64,16 h 128 c 26.592,0 48,21.408 48,48 v 8 H 16 V 64 C 16,37.408 37.408,16 64,16 Z"
     sodipodi:nodetypes="sssccss" />
  <path
     id="path1"
     style="opacity:0.2;fill:#000000;fill-opacity:1;stroke-width:12"
     d="m 124,34 c -6.62741,0 -12,5.372592 -12,12 0,6.627408 5.37259,12 12,12 6.62741,0 12,-5.372592 12,-12 0,-6.627408 -5.37259,-12 -12,-12 z m 40,0 c -6.62741,0 -12,5.372592 -12,12 0,6.627408 5.37259,12 12,12 6.62741,0 12,-5.372592 12,-12 0,-6.627408 -5.37259,-12 -12,-12 z m 40,0 c -6.6274,0 -12,5.372592 -12,12 0,6.627408 5.3726,12 12,12 6.6274,0 12,-5.372592 12,-12 0,-6.627408 -5.3726,-12 -12,-12 z" />
  <path
     id="path2"
     style="fill:#ffffff;stroke-width:8"
     d="m 124,32 a 12,12 0 0 0 -12,12 12,12 0 0 0 12,12 12,12 0 0 0 12,-12 12,12 0 0 0 -12,-12 z m 40,0 a 12,12 0 0 0 -12,12 12,12 0 0 0 12,12 12,12 0 0 0 12,-12 12,12 0 0 0 -12,-12 z m 40,0 a 12,12 0 0 0 -12,12 12,12 0 0 0 12,12 12,12 0 0 0 12,-12 12,12 0 0 0 -12,-12 z" />
  <path
     id="path1040"
     style="opacity:0.1;fill:#ffffff;stroke-width:16;stroke-linecap:square"
     d="M 64,16 C 37.40808,16 16,37.40808 16,64 v 2 C 16,39.408028 37.408028,18 64,18 h 128 c 26.59198,0 48,21.408028 48,48 V 64 C 240,37.40808 218.59192,16 192,16 Z" />
</svg>
