<?xml version="1.0" encoding="UTF-8" standalone="no"?>
<!-- Created with Inkscape (http://www.inkscape.org/) -->

<svg
   width="256"
   height="256"
   viewBox="0 0 256 256"
   version="1.1"
   id="svg5"
   inkscape:version="1.4 (e7c3feb100, 2024-10-09)"
   sodipodi:docname="youtube-music-desktop-app.svg"
   xmlns:inkscape="http://www.inkscape.org/namespaces/inkscape"
   xmlns:sodipodi="http://sodipodi.sourceforge.net/DTD/sodipodi-0.dtd"
   xmlns="http://www.w3.org/2000/svg"
   xmlns:svg="http://www.w3.org/2000/svg">
  <sodipodi:namedview
     id="namedview7"
     pagecolor="#ffffff"
     bordercolor="#000000"
     borderopacity="0.25"
     inkscape:showpageshadow="2"
     inkscape:pageopacity="0.0"
     inkscape:pagecheckerboard="0"
     inkscape:deskcolor="#d1d1d1"
     inkscape:document-units="px"
     showgrid="false"
     inkscape:zoom="3.0703125"
     inkscape:cx="128"
     inkscape:cy="128"
     inkscape:window-width="1920"
     inkscape:window-height="1011"
     inkscape:window-x="0"
     inkscape:window-y="0"
     inkscape:window-maximized="1"
     inkscape:current-layer="svg5" />
  <defs
     id="defs2" />
  <rect
     style="opacity:0.2;fill:#000000;stroke-width:16;stroke-linecap:square"
     id="rect234"
     width="224"
     height="224"
     x="16"
     y="18"
     ry="48" />
  <rect
     style="fill:#4f4f4f;fill-opacity:1;stroke-width:16;stroke-linecap:square"
     id="rect396"
     width="224"
     height="224"
     x="16"
     y="16"
     ry="48" />
  <circle
     style="opacity:0.2;fill:#000000;fill-opacity:1;stroke-width:31.9998;stroke-linecap:square"
     id="path744"
     cx="128"
     cy="129.99971"
     r="79.99971" />
  <circle
     style="fill:#fa2235;fill-opacity:1;stroke-width:31.9998;stroke-linecap:square"
     id="path345"
     cx="128"
     cy="127.99971"
     r="79.99971" />
  <path
     d="m 104,90 64,40 -64,40 z"
     style="opacity:0.2;fill:#000000;stroke-width:19.1237;stroke-linecap:square"
     id="path1342" />
  <path
     d="m 104,88 64,40 -64,40 z"
     style="fill:#4f4f4f;fill-opacity:1;stroke-width:19.1237;stroke-linecap:square"
     id="path1314" />
  <path
     id="path909"
     style="opacity:0.2;fill:#ffffff;fill-opacity:1;stroke-width:22.857;stroke-linecap:square"
     d="m 128.00014,48 a 79.99973,79.99973 0 0 0 -79.999868,79.99987 79.99973,79.99973 0 0 0 0.07034,1.00781 79.99971,79.99971 0 0 1 79.929558,-79.007682 79.99971,79.99971 0 0 1 79.96081,78.476432 79.99973,79.99973 0 0 0 0.0392,-0.47656 A 79.99973,79.99973 0 0 0 128.00031,48 Z" />
  <path
     id="path1040"
     style="opacity:0.1;fill:#ffffff;stroke-width:16;stroke-linecap:square"
     d="M 64,16 C 37.408052,16 16,37.408056 16,64 v 2 C 16,39.408028 37.408028,18 64,18 h 128 c 26.59198,0 48,21.408028 48,48 V 64 C 240,37.408056 218.59194,16 192,16 Z" />
</svg>
