<?xml version="1.0" encoding="UTF-8" standalone="no"?>
<!-- Created with Inkscape (http://www.inkscape.org/) -->

<svg
   width="24"
   height="24"
   viewBox="0 0 24 24"
   version="1.1"
   id="svg5"
   inkscape:version="1.2.2 (1:1.2.2+202305151914+b0a8486541)"
   sodipodi:docname="folder-red-drag-accept.svg"
   xmlns:inkscape="http://www.inkscape.org/namespaces/inkscape"
   xmlns:sodipodi="http://sodipodi.sourceforge.net/DTD/sodipodi-0.dtd"
   xmlns="http://www.w3.org/2000/svg"
   xmlns:svg="http://www.w3.org/2000/svg">
  <sodipodi:namedview
     id="namedview7"
     pagecolor="#ffffff"
     bordercolor="#000000"
     borderopacity="0.25"
     inkscape:showpageshadow="2"
     inkscape:pageopacity="0.0"
     inkscape:pagecheckerboard="0"
     inkscape:deskcolor="#d1d1d1"
     inkscape:document-units="px"
     showgrid="false"
     inkscape:zoom="34.583333"
     inkscape:cx="12.057831"
     inkscape:cy="12"
     inkscape:window-width="1920"
     inkscape:window-height="1008"
     inkscape:window-x="0"
     inkscape:window-y="0"
     inkscape:window-maximized="1"
     inkscape:current-layer="svg5" />
  <defs
     id="defs2" />
  <path
     id="path2024"
     style="opacity:0.2;fill:#000000;stroke-width:4;stroke-linecap:square"
     d="M 3.5 4.5 A 1.5 1.5 0 0 0 2 6 L 2 20 A 1.5 1.5 0 0 0 3.5 21.5 L 20.5 21.5 A 1.5 1.5 0 0 0 22 20 L 22 9 A 1.5 1.5 0 0 0 20.5 7.5 L 12.5 7.5 L 11.5 6 C 10.885394 5.0780908 10.607997 4.5 9.5 4.5 L 3.5 4.5 z " />
  <path
     id="path2052"
     style="fill:#9a2623;fill-opacity:1;stroke-width:4;stroke-linecap:square"
     d="M 3.5 4 A 1.5 1.5 0 0 0 2 5.5 L 2 19.5 A 1.5 1.5 0 0 0 3.5 21 L 20.5 21 A 1.5 1.5 0 0 0 22 19.5 L 22 8.5 A 1.5 1.5 0 0 0 20.5 7 L 12.5 7 L 11.5 5.5 C 10.885394 4.5780908 10.607997 4 9.5 4 L 3.5 4 z " />
  <path
     id="path447"
     style="opacity:0.1;fill:#ffffff;fill-opacity:1;stroke-width:4;stroke-linecap:square"
     d="M 3.5,4 C 2.6715737,4 2,4.6715737 2,5.5 V 6 C 2,5.1715737 2.6715737,4.5 3.5,4.5 h 6 c 1.107996,0 1.385395,0.5780917 2,1.5 l 1,1.5 h 8 C 21.328426,7.5 22,8.1715737 22,9 V 8.5 C 22,7.6715737 21.328426,7 20.5,7 h -8 l -1,-1.5 C 10.885395,4.5780917 10.607996,4 9.5,4 Z" />
  <rect
     style="opacity:0.2;fill:#000000;fill-opacity:1;stroke-width:4;stroke-linecap:square"
     id="rect2667"
     width="20"
     height="10"
     x="2"
     y="10.5"
     ry="1.5" />
  <rect
     style="opacity:1;fill:#ef5350;fill-opacity:1;stroke-width:4;stroke-linecap:square"
     id="rect2072"
     width="20"
     height="10"
     x="2"
     y="11"
     ry="1.5" />
</svg>
