<?xml version="1.0" encoding="UTF-8" standalone="no"?>
<svg
   width="24"
   height="24"
   version="1"
   id="svg3"
   sodipodi:docname="user-bookmarks.svg"
   inkscape:version="1.3 (0e150ed6c4, 2023-07-21)"
   xmlns:inkscape="http://www.inkscape.org/namespaces/inkscape"
   xmlns:sodipodi="http://sodipodi.sourceforge.net/DTD/sodipodi-0.dtd"
   xmlns="http://www.w3.org/2000/svg"
   xmlns:svg="http://www.w3.org/2000/svg">
  <defs
     id="defs3" />
  <sodipodi:namedview
     id="namedview3"
     pagecolor="#ffffff"
     bordercolor="#000000"
     borderopacity="0.25"
     inkscape:showpageshadow="2"
     inkscape:pageopacity="0.0"
     inkscape:pagecheckerboard="0"
     inkscape:deskcolor="#d1d1d1"
     inkscape:zoom="32.625"
     inkscape:cx="11.984674"
     inkscape:cy="12"
     inkscape:window-width="1920"
     inkscape:window-height="984"
     inkscape:window-x="0"
     inkscape:window-y="29"
     inkscape:window-maximized="1"
     inkscape:current-layer="svg3" />
  <path
     style="opacity:0.2;fill:#000000"
     d="m 11.500964,2.5002401 c -0.946591,0.013346 -1.6216668,0.575785 -1.9384792,1.5068378 l 0.01172,-0.041992 -1.4873064,4.535162 H 3.0712671 c -0.010935,-1.73e-4 -0.021291,-1.73e-4 -0.032227,0 C 2.4400868,8.5193979 1.9000154,8.7952497 1.5195074,9.2522018 0.69658188,10.18398 0.87100045,11.65007 1.9159922,12.34498 l 3.9433644,2.842777 -1.5302754,4.689459 c -0.0017,0.0052 -0.00328,0.01041 -0.00489,0.01563 -0.2338278,0.757682 -0.013944,1.538281 0.5742197,2.072269 0.00425,0.0039 0.00932,0.0079 0.01367,0.01172 0.7067884,0.619773 1.6998681,0.698544 2.4980497,0.185547 0.015185,-0.0097 0.030285,-0.01981 0.04492,-0.03027 l 4.0459084,-2.88184 4.045904,2.88184 c 0.01464,0.01047 0.02974,0.02058 0.04492,0.03027 0.798181,0.512997 1.791261,0.434226 2.49805,-0.185547 0.0043,-0.0038 0.0094,-0.0078 0.01367,-0.01172 0.588163,-0.533988 0.808047,-1.314587 0.574219,-2.072269 -0.0016,-0.0052 -0.0032,-0.01043 -0.0049,-0.01563 l -1.530275,-4.689459 3.943364,-2.842777 c 1.044992,-0.69491 1.219411,-2.161 0.396485,-3.0927782 -0.380508,-0.4569521 -0.920579,-0.7328039 -1.519533,-0.7519539 -0.01093,-1.73e-4 -0.02129,-1.73e-4 -0.03223,0 h -5.015631 l -1.487307,-4.5351622 0.01172,0.041992 C 13.122631,3.0760251 12.447555,2.5135856 11.500964,2.5002401 Z"
     id="path1" />
  <path
     style="fill:#ffbc2c"
     d="M 11.457982,1.996257 C 11.312177,1.998507 11.16035,2.017216 11.000951,2.050944 V 2.070475 C 10.31705,2.2434657 9.8189073,2.7495422 9.5614973,3.5060226 l 0.011719,-0.041016 -1.4863281,4.5351562 h -5.015625 c -0.010935,-1.73e-4 -0.022268,-1.73e-4 -0.033203,0 -0.5989537,0.01915 -1.1390233,0.295001 -1.5195313,0.7519531 -0.82292545,0.9317786 -0.64850735,2.3968881 0.3964844,3.0917981 l 3.9433594,2.84375 -1.5292969,4.689453 c -0.0017,0.0052 -0.00426,0.01042 -0.00586,0.01563 -0.2338278,0.757682 -0.013945,1.538278 0.5742188,2.072266 0,0 0.00195,0 0.00195,0 0.00403,0.0036 0.00773,0.0082 0.011719,0.01172 0,0 0.00195,0 0.00195,0 0.7067884,0.619773 1.6998653,0.698544 2.4980468,0.185547 0.015185,-0.0097 0.030287,-0.01884 0.044922,-0.0293 l 4.0449286,-2.882816 4.046875,2.882812 c 0.01464,0.01047 0.02974,0.01962 0.04492,0.0293 0.798181,0.512997 1.791258,0.434226 2.498047,-0.185547 0.0043,-0.0038 0.0094,-0.0078 0.01367,-0.01172 0.588163,-0.533988 0.808046,-1.314584 0.574218,-2.072266 -0.0016,-0.0052 -0.0042,-0.01044 -0.0059,-0.01563 l -1.529252,-4.689449 3.94336,-2.84375 c 1.044992,-0.69491 1.21941,-2.1600195 0.396484,-3.0917981 -0.380508,-0.4569521 -0.920577,-0.7328031 -1.519531,-0.7519531 -0.01094,-1.73e-4 -0.02227,-1.73e-4 -0.0332,0 h -5.015626 l -1.486328,-4.5351562 0.01172,0.041016 C 13.163194,2.6913514 12.478618,1.9805013 11.457982,1.996257 Z"
     id="path2" />
  <path
     style="opacity:0.2;fill:#ffffff"
     d="M 11.500964,2.0001358 C 10.554373,2.0134817 9.8792972,2.5759207 9.5624848,3.5069735 L 9.5742038,3.4649815 8.0868974,8.0001434 H 3.0712661 c -0.010935,-1.73e-4 -0.021292,-1.73e-4 -0.032227,0 C 2.4400853,8.0192933 1.9000139,8.2951451 1.5195059,8.7520972 1.1061211,9.2201628 0.94561774,9.8224385 1.0195053,10.394677 1.0650098,9.9856117 1.2259796,9.5844507 1.5195059,9.2520978 1.9000138,8.7951457 2.4400852,8.5192939 3.039039,8.5001439 c 0.010935,-1.73e-4 0.021291,-1.73e-4 0.032227,0 h 5.0156314 l 1.4873064,-4.535162 -0.01172,0.041992 C 9.8792972,3.0759213 10.554373,2.5134818 11.500964,2.5001363 c 0.946591,0.013345 1.621685,0.5757852 1.938479,1.5068378 l -0.01172,-0.041992 1.487306,4.535162 h 5.015631 c 0.01093,-1.73e-4 0.02129,-1.73e-4 0.03223,0 0.598954,0.01915 1.139026,0.2950018 1.519534,0.7519539 0.293526,0.3323529 0.454496,0.7335139 0.500001,1.142579 0.07389,-0.5722383 -0.08662,-1.174514 -0.500001,-1.6425796 -0.380507,-0.4569521 -0.920578,-0.7328039 -1.519532,-0.751954 -0.01093,-1.73e-4 -0.02129,-1.73e-4 -0.03223,0 h -5.015631 l -1.487307,-4.5351619 0.01172,0.041992 C 13.122631,2.5759207 12.447555,2.0134812 11.500964,2.0001358 Z M 5.7275189,15.09195 4.3290797,19.377111 c -0.0017,0.0052 -0.00328,0.0104 -0.00488,0.01563 -0.089255,0.289222 -0.1114522,0.581397 -0.07324,0.862306 0.014579,-0.120583 0.036052,-0.241797 0.073242,-0.362305 0.0016,-0.0052 0.00319,-0.01043 0.00488,-0.01563 l 1.5302732,-4.689459 -0.1318362,-0.0957 z m 11.5468901,0 -0.131836,0.0957 1.530275,4.689459 c 0.0017,0.0052 0.0033,0.01041 0.0049,0.01563 0.03719,0.120508 0.05866,0.241722 0.07324,0.362305 0.03821,-0.280909 0.01601,-0.573084 -0.07324,-0.862306 -0.0016,-0.0052 -0.0032,-0.01044 -0.0049,-0.01563 l -1.398439,-4.285161 z"
     id="path3" />
</svg>
