<?xml version="1.0" encoding="UTF-8" standalone="no"?>
<!-- Created with Inkscape (http://www.inkscape.org/) -->

<svg
   width="96"
   height="96"
   viewBox="0 0 96 96"
   version="1.1"
   id="svg5"
   inkscape:version="1.4 (e7c3feb100, 2024-10-09)"
   sodipodi:docname="maps.svg"
   xmlns:inkscape="http://www.inkscape.org/namespaces/inkscape"
   xmlns:sodipodi="http://sodipodi.sourceforge.net/DTD/sodipodi-0.dtd"
   xmlns="http://www.w3.org/2000/svg"
   xmlns:svg="http://www.w3.org/2000/svg">
  <sodipodi:namedview
     id="namedview7"
     pagecolor="#ffffff"
     bordercolor="#000000"
     borderopacity="0.25"
     inkscape:showpageshadow="2"
     inkscape:pageopacity="0.0"
     inkscape:pagecheckerboard="0"
     inkscape:deskcolor="#d1d1d1"
     inkscape:document-units="px"
     showgrid="false"
     inkscape:zoom="8.15625"
     inkscape:cx="47.938697"
     inkscape:cy="47.938697"
     inkscape:window-width="1920"
     inkscape:window-height="1011"
     inkscape:window-x="0"
     inkscape:window-y="0"
     inkscape:window-maximized="1"
     inkscape:current-layer="svg5" />
  <defs
     id="defs2" />
  <rect
     style="opacity:0.2;fill:#000000;stroke-width:6;stroke-linecap:square"
     id="rect234"
     width="84"
     height="84"
     x="6"
     y="7"
     ry="18" />
  <rect
     style="fill:#3f3f3f;fill-opacity:1;stroke-width:6;stroke-linecap:square"
     id="rect396"
     width="84"
     height="84"
     x="6"
     y="6"
     ry="18" />
  <path
     id="path3"
     style="opacity:0.1;fill:#000000;stroke-width:3"
     d="M 12.445312 10.181641 C 10.227741 12.035887 8.4701663 14.416688 7.3535156 17.134766 L 77.742188 89.054688 C 80.565068 88.109764 83.067621 86.490349 85.066406 84.380859 L 53.941406 52.601562 L 88.648438 17.138672 C 87.531872 14.41893 85.773346 12.036796 83.554688 10.181641 L 48 46.507812 L 12.445312 10.181641 z " />
  <path
     id="path4"
     style="fill:#2a2a2a;stroke-width:3;fill-opacity:1"
     d="M 13.003906 9.7519531 C 10.721904 11.512867 8.8824223 13.8057 7.6621094 16.455078 L 78.458984 88.794922 C 81.209735 87.741659 83.627975 86.039834 85.533203 83.867188 L 53.939453 51.599609 L 88.337891 16.457031 C 87.117583 13.806978 85.278556 11.513221 82.996094 9.7519531 L 48 45.509766 L 13.003906 9.7519531 z " />
  <path
     id="path5"
     style="fill:#f64d4d;stroke-width:3"
     d="M 84.611328 11.142578 L 46.515625 50.078125 C 45.697349 50.918997 45.697349 52.280222 46.515625 53.121094 L 57.462891 64.351562 C 56.990205 62.184692 56.650391 60.466797 56.650391 60.466797 C 56.650391 60.466797 58.317614 60.816561 60.427734 61.300781 L 50.970703 51.599609 L 87.28125 14.496094 C 86.521885 13.274197 85.632751 12.144435 84.611328 11.142578 z " />
  <path
     style="fill:#6a6a6a;stroke-width:3;fill-opacity:1"
     d="m 6.000576,40.274505 v 8.788446 c 0.254049,0.06684 0.5052858,0.13851 0.75096,0.21927 1.8092967,0.594891 3.452249,1.57962 4.678299,2.838216 1.992494,2.045388 3.349671,5.389755 4.825885,9.255915 1.494075,3.912945 3.296455,8.624055 7.339209,12.16314 4.034581,3.531927 8.95085,4.658436 13.236191,5.255709 4.243443,0.591405 8.04885,0.769845 11.162367,1.754127 2.925723,0.924927 5.66895,2.64165 7.873125,4.892856 1.310448,1.338393 2.439525,2.884083 3.365214,4.556724 h 9.26109 C 67.019541,86.030286 64.759857,82.367502 61.793976,79.338348 58.645419,76.122609 54.76092,73.672389 50.467743,72.315156 45.938559,70.883316 41.643144,70.771359 37.961895,70.258287 34.322544,69.751059 31.097589,68.779227 29.049144,66.985992 26.988412,65.181999 25.509907,61.985931 24.077841,58.235388 22.627915,54.438069 21.051525,49.808982 17.372389,46.032183 15.071253,43.669962 12.257657,42.04683 9.3147771,41.079222 8.2152162,40.717692 7.1066139,40.460427 6.000576,40.274505 Z"
     id="path6" />
  <path
     id="path7"
     style="fill:#194764;stroke-width:3;fill-opacity:1"
     d="M 6,44.642577 V 72 c 0,9.971991 8.02801,18 18,18 H 63.949218 C 62.698812,87.178434 60.96882,84.575043 58.828125,82.388673 56.151765,79.655205 52.839906,77.570772 49.230468,76.429686 45.409125,75.221625 41.356869,75.083502 37.394532,74.53125 33.432192,73.97901 29.361818,72.9282 26.320312,70.265625 23.268575,67.594092 21.631038,63.638373 20.167969,59.806641 18.704899,55.974906 17.238153,51.989211 14.402344,49.078125 12.638754,47.267727 10.409287,45.962889 8.0332032,45.181641 7.3660194,44.962272 6.686403,44.782953 6,44.642577 Z" />
  <path
     style="opacity:0.1;fill:#000000;stroke-width:3"
     d="m 60,63.999721 c 0,0 2.754435,15.05496 6.150792,18.451848 3.396639,3.397227 8.904069,3.397578 12.301146,7.98e-4 3.397416,-3.397074 3.397416,-8.905305 0,-12.302379 C 75.054861,66.753205 60,63.999721 60,63.999721 Z"
     id="path8" />
  <path
     style="fill:#f64d4d;stroke-width:3"
     d="m 60,63 c 0,0 2.754435,15.05496 6.150792,18.451848 3.396639,3.397227 8.904069,3.397578 12.301146,7.98e-4 3.397416,-3.397074 3.397416,-8.905305 0,-12.302379 C 75.054861,65.753484 60,63 60,63 Z"
     id="path9" />
  <circle
     style="fill:#eff0f1;stroke-width:3"
     cx="-2.1198397"
     cy="105.0056"
     r="4.5"
     transform="rotate(-45)"
     id="circle9" />
  <path
     id="path11"
     style="opacity:0.1;fill:#000000;stroke-width:3"
     d="M 6 44.640625 L 6 45.642578 C 6.6864035 45.782954 7.3660188 45.962272 8.0332031 46.181641 C 10.40929 46.962888 12.638753 48.267723 14.402344 50.078125 C 17.238156 52.989214 18.704898 56.974903 20.167969 60.806641 C 21.631039 64.638375 23.268573 68.594089 26.320312 71.265625 C 29.36182 73.928203 33.432189 74.979011 37.394531 75.53125 C 41.356876 76.083501 45.409118 76.221622 49.230469 77.429688 C 52.839909 78.570775 56.151762 80.655201 58.828125 83.388672 C 60.712755 85.313513 62.277538 87.562455 63.478516 89.998047 L 63.949219 89.998047 C 62.698808 87.176478 60.968824 84.573093 58.828125 82.386719 C 56.151762 79.653247 52.839909 77.568822 49.230469 76.427734 C 45.409118 75.219669 41.356876 75.081548 37.394531 74.529297 C 33.432189 73.977057 29.36182 72.92625 26.320312 70.263672 C 23.268573 67.592136 21.631039 63.636422 20.167969 59.804688 C 18.704898 55.97295 17.238156 51.987261 14.402344 49.076172 C 12.638753 47.26577 10.409289 45.960935 8.0332031 45.179688 C 7.3660188 44.960319 6.6864035 44.781001 6 44.640625 z " />
  <circle
     style="fill:#eff0f1;fill-opacity:1;stroke-width:3;stroke-linecap:round;stroke-linejoin:round"
     id="path12"
     cx="72.5"
     cy="75.5"
     r="4.5" />
  <path
     id="path1040"
     style="opacity:0.1;fill:#ffffff;stroke-width:6;stroke-linecap:square"
     d="M 24 6 C 14.02802 6 6 14.028021 6 24 L 6 25 C 6 15.02802 14.02802 7 24 7 L 72 7 C 81.971978 7 90 15.02802 90 25 L 90 24 C 90 14.028021 81.971978 6 72 6 L 24 6 z " />
</svg>
