<?xml version="1.0" encoding="UTF-8" standalone="no"?>
<!-- Created with Inkscape (http://www.inkscape.org/) -->

<svg
   width="96"
   height="96"
   viewBox="0 0 96 96"
   version="1.1"
   id="svg5"
   inkscape:version="1.4 (e7c3feb100, 2024-10-09)"
   sodipodi:docname="office-calendar.svg"
   xmlns:inkscape="http://www.inkscape.org/namespaces/inkscape"
   xmlns:sodipodi="http://sodipodi.sourceforge.net/DTD/sodipodi-0.dtd"
   xmlns="http://www.w3.org/2000/svg"
   xmlns:svg="http://www.w3.org/2000/svg">
  <sodipodi:namedview
     id="namedview7"
     pagecolor="#ffffff"
     bordercolor="#000000"
     borderopacity="0.25"
     inkscape:showpageshadow="2"
     inkscape:pageopacity="0.0"
     inkscape:pagecheckerboard="0"
     inkscape:deskcolor="#d1d1d1"
     inkscape:document-units="px"
     showgrid="false"
     inkscape:zoom="8.3958333"
     inkscape:cx="48"
     inkscape:cy="48"
     inkscape:window-width="1920"
     inkscape:window-height="1011"
     inkscape:window-x="0"
     inkscape:window-y="0"
     inkscape:window-maximized="1"
     inkscape:current-layer="svg5" />
  <defs
     id="defs2" />
  <rect
     style="opacity:0.2;fill:#000000;stroke-width:6;stroke-linecap:square"
     id="rect234"
     width="84"
     height="84"
     x="6"
     y="7"
     ry="18" />
  <rect
     style="fill:#4f4f4f;fill-opacity:1;stroke-width:6;stroke-linecap:square"
     id="rect396"
     width="84"
     height="84"
     x="6"
     y="6"
     ry="18" />
  <path
     d="m 45.000001,35.999999 v 6 h 6 v -6 z m -8.999999,9 v 6 h 5.999999 v -6 z m 17.999999,-9 v 6 h 6 v -6 z m 9,0 v 6 h 6 v -6 z m 9,0 v 6 h 6.000001 v -6 z m 0,9 v 6 h 6.000001 v -6 z m -53.999999,0 v 6 h 6 v -6 z m 9,0 v 6 h 6 v -6 z m 17.999999,0 v 6 h 6 v -6 z m 18,0 v 6 h 6 v -6 z m -44.999999,9 v 6 h 6 v -6 z m 9,0 v 6 h 6 v -6 z m 9,0 v 6 h 5.999999 v -6 z m 8.999999,0 v 6 h 6 v -6 z m 9,0 v 6 h 6 v -6 z m 9,0 v 6 h 6 v -6 z m 9,0 v 6 h 6.000001 v -6 z m -53.999999,9 v 5.999999 h 6 v -5.999999 z m 9,0 v 5.999999 h 6 v -5.999999 z m 9,0 v 5.999999 h 5.999999 v -5.999999 z m 8.999999,0 v 5.999999 h 6 v -5.999999 z m 9,0 v 5.999999 h 6 v -5.999999 z m 9,0 v 5.999999 h 6 v -5.999999 z m 9,0 v 5.999999 h 6.000001 v -5.999999 z m -53.999999,8.999999 v 6 h 6 v -6 z m 9,0 v 6 h 6 v -6 z m 9,0 v 6 h 5.999999 v -6 z m 8.999999,0 v 6 h 6 v -6 z"
     style="fill:#ffffff;fill-opacity:1;stroke-width:0.75;opacity:0.2"
     id="path4563" />
  <rect
     style="fill:#f54b3e;fill-opacity:1;stroke-width:3;stroke-linecap:square"
     id="rect4635"
     width="6"
     height="6"
     x="54.000099"
     y="45" />
  <path
     id="rect1233"
     style="fill:#f54b3e;fill-opacity:1;stroke-width:6;stroke-linecap:square"
     d="m 24.000002,6 h 47.999999 c 9.972001,0 18.000001,8.028 18.000001,18 v 2.999999 H 6.0000021 V 24 c 0,-9.972 8.0279999,-18 17.9999999,-18 z"
     sodipodi:nodetypes="sssccss" />
  <rect
     style="opacity:0.2;fill:#000000;fill-opacity:1;stroke-width:8.66025;stroke-linecap:round;stroke-linejoin:round"
     id="rect4964"
     width="84"
     height="1"
     x="6"
     y="27" />
  <path
     d="m 21.000002,16 c -1.656855,0 -3,1.343145 -3,3 0,1.656855 1.343145,3 3,3 1.656855,0 3,-1.343145 3,-3 0,-1.656855 -1.343145,-3 -3,-3 z m 54,0 c -1.656853,0 -3.000001,1.343145 -3.000001,3 0,1.656855 1.343148,3 3.000001,3 1.65685,0 3,-1.343145 3,-3 0,-1.656855 -1.34315,-3 -3,-3 z"
     style="opacity:0.2;fill:#000000;stroke-width:2"
     id="path2633" />
  <path
     d="m 21.000002,15 c -1.656855,0 -3,1.343145 -3,3 0,1.656855 1.343145,3 3,3 1.656855,0 3,-1.343145 3,-3 0,-1.656855 -1.343145,-3 -3,-3 z m 54,0 c -1.656853,0 -3.000001,1.343145 -3.000001,3 0,1.656855 1.343148,3 3.000001,3 1.65685,0 3,-1.343145 3,-3 0,-1.656855 -1.34315,-3 -3,-3 z"
     style="fill:#3a3a3a;stroke-width:2;fill-opacity:1"
     id="path2605" />
  <path
     d="M 24,6.0000003 C 14.028011,6.0000003 6,14.028011 6,24 v 1 C 6,15.028011 14.028011,7 24,7 h 48 c 9.97199,0 18,8.028011 18,18 V 24 C 90,14.028011 81.97199,6.0000003 72,6.0000003 Z"
     style="opacity:0.2;fill:#ffffff;stroke-width:6;stroke-linecap:square"
     id="path1040" />
</svg>
