<?xml version="1.0" encoding="UTF-8" standalone="no"?>
<!-- Created with Inkscape (http://www.inkscape.org/) -->

<svg
   width="96"
   height="96"
   viewBox="0 0 96 96"
   version="1.1"
   id="svg5"
   inkscape:version="1.4 (e7c3feb100, 2024-10-09)"
   sodipodi:docname="preferences-system-login.svg"
   xmlns:inkscape="http://www.inkscape.org/namespaces/inkscape"
   xmlns:sodipodi="http://sodipodi.sourceforge.net/DTD/sodipodi-0.dtd"
   xmlns="http://www.w3.org/2000/svg"
   xmlns:svg="http://www.w3.org/2000/svg">
  <sodipodi:namedview
     id="namedview7"
     pagecolor="#ffffff"
     bordercolor="#000000"
     borderopacity="0.25"
     inkscape:showpageshadow="2"
     inkscape:pageopacity="0.0"
     inkscape:pagecheckerboard="0"
     inkscape:deskcolor="#d1d1d1"
     inkscape:document-units="px"
     showgrid="false"
     inkscape:zoom="8.3333333"
     inkscape:cx="47.88"
     inkscape:cy="48"
     inkscape:window-width="1920"
     inkscape:window-height="1011"
     inkscape:window-x="0"
     inkscape:window-y="0"
     inkscape:window-maximized="1"
     inkscape:current-layer="svg5" />
  <defs
     id="defs2" />
  <rect
     style="opacity:0.2;fill:#000000;stroke-width:6;stroke-linecap:square"
     id="rect234"
     width="84"
     height="84"
     x="6"
     y="7"
     ry="18" />
  <rect
     style="fill:#4d4d4d;fill-opacity:1;stroke-width:6;stroke-linecap:square"
     id="rect396"
     width="84"
     height="84"
     x="6"
     y="6"
     ry="18" />
  <path
     id="rect1"
     style="opacity:0.2;fill:#000000;stroke-width:6"
     d="M 22.5,28 C 20.007007,28 18,30.007006 18,32.5 v 6 c 0,2.492991 2.007007,4.5 4.5,4.5 h 51 c 2.492991,0 4.5,-2.007009 4.5,-4.5 v -6 C 78,30.007006 75.992991,28 73.5,28 Z m 0,27 C 20.007007,55 18,57.007009 18,59.5 v 6 c 0,2.492991 2.007007,4.5 4.5,4.5 h 51 c 2.492991,0 4.5,-2.007009 4.5,-4.5 v -6 C 78,57.007009 75.992991,55 73.5,55 Z" />
  <path
     id="rect2"
     style="opacity:1;fill:#2f2f2f;stroke-width:6;fill-opacity:1"
     d="M 22.5,27 C 20.007002,27 18,29.007002 18,31.5 v 6 c 0,2.492997 2.007002,4.5 4.5,4.5 h 51 c 2.492997,0 4.5,-2.007003 4.5,-4.5 v -6 C 78,29.007002 75.992997,27 73.5,27 Z m 0,27 C 20.007002,54 18,56.007003 18,58.5 v 6 c 0,2.492997 2.007002,4.5 4.5,4.5 h 51 c 2.492997,0 4.5,-2.007003 4.5,-4.5 v -6 C 78,56.007003 75.992997,54 73.5,54 Z" />
  <path
     id="path8"
     style="fill:#ff4f4f;fill-opacity:1;stroke-width:9"
     d="M 25.5,57 C 23.014721,57 21,59.014722 21,61.5 21,63.985278 23.014721,66 25.5,66 27.985279,66 30,63.985278 30,61.5 30,59.014722 27.985279,57 25.5,57 Z m 15,0 C 38.014722,57 36,59.014722 36,61.5 36,63.985278 38.014722,66 40.5,66 42.985278,66 45,63.985278 45,61.5 45,59.014722 42.985278,57 40.5,57 Z m 15,0 C 53.014722,57 51,59.014722 51,61.5 51,63.985278 53.014722,66 55.5,66 57.985278,66 60,63.985278 60,61.5 60,59.014722 57.985278,57 55.5,57 Z" />
  <path
     id="path9"
     style="fill:#4fa0ff;fill-opacity:1;stroke-width:9"
     d="M 25.5,30 C 23.014721,30 21,32.014722 21,34.5 21,36.985278 23.014721,39 25.5,39 27.985279,39 30,36.985278 30,34.5 30,32.014722 27.985279,30 25.5,30 Z m 15,0 C 38.014722,30 36,32.014722 36,34.5 36,36.985278 38.014722,39 40.5,39 42.985278,39 45,36.985278 45,34.5 45,32.014722 42.985278,30 40.5,30 Z m 15,0 C 53.014722,30 51,32.014722 51,34.5 51,36.985278 53.014722,39 55.5,39 57.985278,39 60,36.985278 60,34.5 60,32.014722 57.985278,30 55.5,30 Z" />
  <path
     id="path1040"
     style="opacity:0.1;fill:#ffffff;stroke-width:6;stroke-linecap:square"
     d="M 24 6 C 14.02802 6 6 14.028021 6 24 L 6 25 C 6 15.028021 14.02802 7 24 7 L 72 7 C 81.971978 7 90 15.028021 90 25 L 90 24 C 90 14.028021 81.971978 6 72 6 L 24 6 z " />
</svg>
