<?xml version="1.0" encoding="UTF-8" standalone="no"?>
<!-- Created with Inkscape (http://www.inkscape.org/) -->

<svg
   width="96"
   height="96"
   viewBox="0 0 96 96"
   version="1.1"
   id="svg5"
   inkscape:version="1.4.3 (0d15f75042, 2025-12-25)"
   sodipodi:docname="xbox.svg"
   xmlns:inkscape="http://www.inkscape.org/namespaces/inkscape"
   xmlns:sodipodi="http://sodipodi.sourceforge.net/DTD/sodipodi-0.dtd"
   xmlns="http://www.w3.org/2000/svg"
   xmlns:svg="http://www.w3.org/2000/svg">
  <sodipodi:namedview
     id="namedview7"
     pagecolor="#ffffff"
     bordercolor="#000000"
     borderopacity="0.25"
     inkscape:showpageshadow="2"
     inkscape:pageopacity="0.0"
     inkscape:pagecheckerboard="0"
     inkscape:deskcolor="#d1d1d1"
     inkscape:document-units="px"
     showgrid="false"
     inkscape:zoom="8.65625"
     inkscape:cx="48"
     inkscape:cy="48"
     inkscape:window-width="1920"
     inkscape:window-height="1012"
     inkscape:window-x="0"
     inkscape:window-y="0"
     inkscape:window-maximized="1"
     inkscape:current-layer="svg5" />
  <defs
     id="defs2" />
  <rect
     style="opacity:0.2;fill:#000000;stroke-width:6;stroke-linecap:square"
     id="rect234"
     width="84"
     height="84"
     x="6"
     y="7"
     ry="18" />
  <rect
     style="fill:#4d4d4d;fill-opacity:1;stroke-width:6;stroke-linecap:square"
     id="rect396"
     width="84"
     height="84"
     x="6"
     y="6"
     ry="18" />
  <path
     id="path1040"
     style="opacity:0.2;fill:#ffffff;stroke-width:6;stroke-linecap:square"
     d="M 24 6 C 14.028011 6 6 14.028011 6 24 L 6 25 C 6 15.028 14.028 7 24 7 L 72 7 C 81.972 7 90 15.028 90 25 L 90 24 C 90 14.028011 81.971985 6 72 6 L 24 6 z " />
  <path
     style="opacity:0.2;stroke-width:3"
     d="m 45.008355,78.876775 c -4.62207,-0.442569 -9.301323,-2.101359 -13.320879,-4.722654 -3.368229,-2.195451 -4.128342,-3.099417 -4.128342,-4.901082 0,-3.619356 3.9819,-9.959679 10.795059,-17.185842 3.86823,-4.105143 9.257391,-8.914233 9.839682,-8.784588 1.133901,0.25302 10.192545,9.084282 13.584483,13.242393 5.362662,6.572415 7.827117,11.955798 6.574668,14.355459 -0.951894,1.823964 -6.859884,5.389659 -11.199528,6.759204 -3.577434,1.12908 -8.275518,1.607205 -12.145143,1.23711 z M 23.009583,65.490109 C 20.2104,61.198174 18.796164,56.973151 18.11415,50.862139 c -0.225942,-2.017725 -0.146445,-3.171207 0.511161,-7.313985 0.817998,-5.15757 3.758745,-11.130588 7.294338,-14.803611 1.504893,-1.561209 1.638783,-1.603029 3.474225,-0.982725 2.224566,0.752724 4.602546,2.394783 8.29155,5.729079 l 2.154834,1.94733 -1.178532,1.442724 c -5.458899,6.697866 -11.220447,16.197546 -13.389222,22.072989 -1.178532,3.192114 -1.652733,6.398169 -1.143663,7.732866 0.341703,0.901875 0.0279,0.565935 -1.122744,-1.194606 z m 49.130778,0.729726 c 0.27687,-1.349334 -0.0732,-3.826359 -0.892611,-6.325692 C 69.472971,54.482191 63.539181,44.414485 58.090743,37.56886 l -1.715499,-2.155029 1.856367,-1.702692 c 2.422608,-2.223327 4.104633,-3.554538 5.920542,-4.685718 1.431672,-0.892119 3.478413,-1.681785 4.358472,-1.681785 0.541845,0 2.4519,1.98636 3.99306,4.14696 2.387745,3.34545 4.143681,7.408776 5.033505,11.632404 0.575316,2.732121 0.623436,8.57271 0.09276,11.297859 -0.439329,2.235873 -1.35984,5.133867 -2.252454,7.100013 -0.676431,1.472694 -2.343111,4.333749 -3.07533,5.264901 -0.376581,0.478818 -0.376581,0.478116 -0.16737,-0.554787 z M 45.503484,26.321881 c -2.514669,-1.275453 -6.393363,-2.644995 -8.535636,-3.014388 -0.750351,-0.12894 -2.031393,-0.20211 -2.845209,-0.16032 -1.768494,0.08922 -1.68969,-0.0028 1.145757,-1.341663 2.357061,-1.11306 4.323603,-1.767513 6.99447,-2.327877 3.002115,-0.630756 8.647209,-0.637725 11.6019,-0.0153 3.190404,0.672573 6.94845,2.069994 9.065622,3.373326 l 0.630408,0.386124 -1.443525,-0.07248 c -2.870313,-0.14487 -7.053051,1.014183 -11.544018,3.197088 -1.354263,0.659331 -2.5314,1.184847 -2.617869,1.170906 -0.08577,-0.0168 -1.189695,-0.554088 -2.454696,-1.195299 z"
     id="path2" />
  <path
     style="fill:#1fa510;fill-opacity:1;stroke-width:3"
     d="m 45.008355,77.876775 c -4.62207,-0.442569 -9.301323,-2.101359 -13.320879,-4.722654 -3.368229,-2.195451 -4.128342,-3.099417 -4.128342,-4.901082 0,-3.619356 3.9819,-9.959679 10.795059,-17.185842 3.86823,-4.105143 9.257391,-8.914233 9.839682,-8.784588 1.133901,0.25302 10.192545,9.084282 13.584483,13.24239 5.362662,6.572415 7.827117,11.955801 6.574668,14.355462 -0.951894,1.823964 -6.859887,5.389659 -11.199528,6.759204 -3.577434,1.12908 -8.275518,1.607205 -12.145143,1.23711 z M 23.009583,64.490109 C 20.2104,60.198174 18.796164,55.973157 18.11415,49.862139 c -0.225942,-2.017725 -0.146445,-3.171207 0.511161,-7.313985 0.817998,-5.15757 3.758745,-11.130588 7.294338,-14.803611 1.504893,-1.561209 1.638783,-1.603029 3.474225,-0.982722 2.224566,0.752724 4.602546,2.39478 8.29155,5.729076 l 2.154834,1.94733 -1.178532,1.442724 c -5.458899,6.697866 -11.220447,16.197543 -13.389222,22.072989 -1.178532,3.192114 -1.652733,6.398169 -1.143663,7.732866 0.341703,0.901875 0.0279,0.565935 -1.122744,-1.194606 z m 49.130778,0.729726 c 0.27687,-1.349334 -0.0732,-3.826359 -0.892611,-6.325689 C 69.472971,53.482191 63.539181,43.414485 58.090743,36.56886 l -1.715499,-2.155029 1.856367,-1.702692 c 2.422608,-2.223327 4.104633,-3.554538 5.920542,-4.685718 1.431672,-0.892119 3.478413,-1.681785 4.358472,-1.681785 0.541845,0 2.4519,1.98636 3.99306,4.14696 2.387745,3.345447 4.143681,7.408776 5.033505,11.632404 0.575316,2.732121 0.623436,8.57271 0.09276,11.297859 -0.439329,2.235873 -1.35984,5.133867 -2.252454,7.100013 -0.676431,1.472694 -2.343111,4.333749 -3.07533,5.264901 -0.376581,0.478818 -0.376581,0.478116 -0.16737,-0.554787 z M 45.503484,25.321881 c -2.514669,-1.275453 -6.393363,-2.644995 -8.535636,-3.014388 -0.750351,-0.12894 -2.031393,-0.20211 -2.845209,-0.16032 -1.768494,0.08922 -1.68969,-0.0028 1.145757,-1.341663 2.357061,-1.11306 4.323603,-1.767513 6.99447,-2.327877 3.002115,-0.630756 8.647209,-0.637725 11.6019,-0.0153 3.190404,0.672576 6.94845,2.069997 9.065622,3.373326 l 0.630408,0.386124 -1.443525,-0.07248 c -2.870313,-0.14487 -7.053051,1.014168 -11.544018,3.197073 -1.354263,0.659331 -2.5314,1.184847 -2.617869,1.170906 -0.08577,-0.0168 -1.189695,-0.554088 -2.454696,-1.195299 z"
     id="path3" />
</svg>
