<?xml version="1.0" encoding="UTF-8" standalone="no"?>
<!-- Created with Inkscape (http://www.inkscape.org/) -->

<svg
   width="256"
   height="256"
   viewBox="0 0 256 256"
   version="1.1"
   id="svg5"
   inkscape:version="1.3 (0e150ed6c4, 2023-07-21)"
   sodipodi:docname="folder-yellow-image-people.svg"
   xmlns:inkscape="http://www.inkscape.org/namespaces/inkscape"
   xmlns:sodipodi="http://sodipodi.sourceforge.net/DTD/sodipodi-0.dtd"
   xmlns="http://www.w3.org/2000/svg"
   xmlns:svg="http://www.w3.org/2000/svg">
  <sodipodi:namedview
     id="namedview7"
     pagecolor="#ffffff"
     bordercolor="#000000"
     borderopacity="0.25"
     inkscape:showpageshadow="2"
     inkscape:pageopacity="0.0"
     inkscape:pagecheckerboard="0"
     inkscape:deskcolor="#d1d1d1"
     inkscape:document-units="px"
     showgrid="false"
     inkscape:zoom="3.1367188"
     inkscape:cx="127.8406"
     inkscape:cy="128"
     inkscape:window-width="1850"
     inkscape:window-height="1011"
     inkscape:window-x="70"
     inkscape:window-y="32"
     inkscape:window-maximized="1"
     inkscape:current-layer="svg5" />
  <defs
     id="defs2" />
  <path
     d="m 32,34 c -8.863992,0 -16,7.136008 -16,16 0.1034,53.22661 0,106.55306 0,160 0,8.864 7.136008,16 16,16 h 192 c 8.864,0 16,-7.136 16,-16 V 74 c 0,-8.863992 -7.136,-16 -16,-16 h -96 l -8,-12 c -4.91686,-7.375288 -7.13601,-12 -16,-12 z"
     style="opacity:0.2;fill:#000000;fill-opacity:1;stroke-width:16;stroke-linecap:square"
     id="path2595" />
  <path
     d="m 32,32 c -8.863992,0 -16,7.136008 -16,16 0.1034,53.22661 0,106.55306 0,160 0,8.864 7.136008,16 16,16 h 192 c 8.864,0 16,-7.136 16,-16 V 72 c 0,-8.863992 -7.136,-16 -16,-16 h -96 l -8,-12 c -4.91686,-7.375286 -7.13601,-12 -16,-12 z"
     style="fill:#e5a50a;fill-opacity:1;stroke-width:16;stroke-linecap:square"
     id="path2567" />
  <path
     id="path2855"
     style="opacity:0.1;fill:#ffffff;fill-opacity:1;stroke-width:16;stroke-linecap:square"
     d="m 32,32 c -8.863974,0 -16,7.136028 -16,16 0.0013,0.666044 6.16e-4,1.33304 0,2 0,-8.863984 7.136016,-16 16,-16 h 72 c 8.86398,0 11.08315,4.62472 16,12 l 8,12 h 96 c 8.86398,0 16,7.136016 16,16 v -2 c 0,-8.863976 -7.13602,-16 -16,-16 h -96 l -8,-12 c -4.91685,-7.375272 -7.13602,-12 -16,-12 z" />
  <rect
     style="opacity:0.2;fill:#000000;fill-opacity:1;stroke-width:16;stroke-linecap:square"
     id="rect2667"
     width="224"
     height="128"
     x="16"
     y="94"
     ry="16" />
  <rect
     style="opacity:1;fill:#f2f2f2;fill-opacity:1;stroke-width:16;stroke-linecap:square"
     id="rect3435"
     width="192"
     height="100"
     x="31.999359"
     y="72"
     ry="12" />
  <rect
     style="opacity:1;fill:#f8e45c;fill-opacity:1;stroke-width:16;stroke-linecap:square"
     id="rect2727"
     width="224"
     height="128"
     x="16"
     y="95.999992"
     ry="16" />
  <path
     id="path1"
     style="opacity:1;fill:#e5a50a;stroke-width:12.7279"
     d="m 128,115.99999 c -11.04567,0 -20,8.95433 -20,20 0,11.04567 8.95433,20 20,20 11.04567,0 20,-8.95433 20,-20 0,-11.04567 -8.95433,-20 -20,-20 z m 0,52 c -22.09134,0 -40,16.11779 -40,36.00001 h 80 c 0,-19.88222 -17.90866,-36.00001 -40,-36.00001 z" />
</svg>
