<?xml version="1.0" encoding="UTF-8" standalone="no"?>
<svg
   width="96"
   height="96"
   version="1"
   id="svg6"
   sodipodi:docname="battery.svg"
   inkscape:version="1.3 (0e150ed6c4, 2023-07-21)"
   xmlns:inkscape="http://www.inkscape.org/namespaces/inkscape"
   xmlns:sodipodi="http://sodipodi.sourceforge.net/DTD/sodipodi-0.dtd"
   xmlns="http://www.w3.org/2000/svg"
   xmlns:svg="http://www.w3.org/2000/svg">
  <defs
     id="defs6" />
  <sodipodi:namedview
     id="namedview6"
     pagecolor="#ffffff"
     bordercolor="#000000"
     borderopacity="0.25"
     inkscape:showpageshadow="2"
     inkscape:pageopacity="0.0"
     inkscape:pagecheckerboard="0"
     inkscape:deskcolor="#d1d1d1"
     inkscape:zoom="8.15625"
     inkscape:cx="48"
     inkscape:cy="48"
     inkscape:window-width="1920"
     inkscape:window-height="984"
     inkscape:window-x="0"
     inkscape:window-y="29"
     inkscape:window-maximized="1"
     inkscape:current-layer="svg6" />
  <rect
     style="opacity:0.2;fill:#000000;fill-opacity:1;stroke-width:3"
     id="rect6"
     width="66"
     height="75"
     x="15"
     y="16"
     ry="3" />
  <rect
     style="opacity:1;fill:#4f4f4f;fill-opacity:1;stroke-width:3"
     id="rect7"
     width="66"
     height="75"
     x="15"
     y="15"
     ry="3" />
  <rect
     style="fill:#8e8e8e;stroke-width:3"
     width="42"
     height="9"
     x="27"
     y="6"
     id="rect2" />
  <path
     style="opacity:0.2;fill:#000000;stroke-width:3"
     d="M 24,25 V 40 H 72 V 25 Z m 0,21 V 61 H 72 V 46 Z m 0,21 V 82 H 72 V 67 Z"
     id="path3" />
  <path
     style="fill:#c0f957;stroke-width:3"
     d="M 24,24 V 39 H 72 V 24 Z m 0,21 V 60 H 72 V 45 Z m 0,21 V 81 H 72 V 66 Z"
     id="path4" />
  <path
     style="opacity:0.2;fill:#ffffff;stroke-width:1.73205"
     d="M 27,6 V 7 H 69 V 6 Z"
     id="path5" />
  <path
     id="path6"
     style="opacity:0.2;fill:#ffffff;stroke-width:3"
     d="M 24 24 L 24 25 L 72 25 L 72 24 L 24 24 z M 24 45 L 24 46 L 72 46 L 72 45 L 24 45 z M 24 66 L 24 67 L 72 67 L 72 66 L 24 66 z " />
</svg>
