<?xml version="1.0" encoding="UTF-8" standalone="no"?>
<svg
   width="96"
   height="96"
   version="1"
   id="svg7"
   sodipodi:docname="network-wireless.svg"
   inkscape:version="1.3 (1:1.3+202307231459+0e150ed6c4)"
   xmlns:inkscape="http://www.inkscape.org/namespaces/inkscape"
   xmlns:sodipodi="http://sodipodi.sourceforge.net/DTD/sodipodi-0.dtd"
   xmlns="http://www.w3.org/2000/svg"
   xmlns:svg="http://www.w3.org/2000/svg">
  <defs
     id="defs7" />
  <sodipodi:namedview
     id="namedview7"
     pagecolor="#ffffff"
     bordercolor="#000000"
     borderopacity="0.25"
     inkscape:showpageshadow="2"
     inkscape:pageopacity="0.0"
     inkscape:pagecheckerboard="0"
     inkscape:deskcolor="#d1d1d1"
     inkscape:zoom="7.4791667"
     inkscape:cx="48"
     inkscape:cy="47.933148"
     inkscape:window-width="1920"
     inkscape:window-height="1008"
     inkscape:window-x="0"
     inkscape:window-y="0"
     inkscape:window-maximized="1"
     inkscape:current-layer="svg7" />
  <path
     style="fill:#4f4f4f;stroke-width:1.5"
     d="m 48.227245,18.001131 c -15.830433,0 -30.07992,5.6249 -41.8994949,14.348742 L 48.227245,78.000054 89.80275,32.184876 C 78.031173,23.55883 63.93768,17.999931 48.227245,17.999931 Z"
     id="path1" />
  <path
     style="fill:#797979;stroke-width:1.5"
     d="m 48.066001,29.999998 c -12.610873,0 -24.315163,4.134509 -33.716395,11.117527 L 48.242997,77.999999 81.782396,41.117525 C 72.383565,34.135707 60.677775,30.000899 48.066001,30.000899 Z"
     id="path2" />
  <path
     style="fill:#e4e4e4;stroke-width:1.5"
     d="m 48.066001,42.000654 c -9.45823,0 -18.236372,3.100916 -25.286246,8.337681 L 48.197998,78.000654 73.351947,50.340435 C 66.302073,45.103368 57.52363,42.002754 48.065702,42.002754 Z"
     id="path3" />
  <path
     id="path4"
     style="opacity:0.1;fill:#ffffff;stroke-width:1.5"
     d="M 48.021484 18.029297 C 32.220407 18.029996 17.995069 23.645741 6.1972656 32.351562 L 6.7363281 32.939453 C 18.434882 24.470383 32.462504 19.029297 48.021484 19.029297 L 48.021484 19.027344 C 63.464942 19.027344 77.339376 24.406919 88.988281 32.783203 L 89.525391 32.191406 C 77.772537 23.580809 63.701731 18.029993 48.023438 18.029297 L 48.021484 18.029297 z " />
  <path
     id="path5"
     style="opacity:0.1;fill:#ffffff;stroke-width:1.5"
     d="M 48.070312 29.988281 C 35.45945 29.988281 23.749032 34.124608 14.349609 41.109375 L 14.904297 41.710938 C 24.210936 34.97053 35.702369 30.986328 48.070312 30.986328 L 48.070312 30.988281 C 60.439992 30.988281 71.933512 34.972759 81.238281 41.712891 L 81.787109 41.109375 C 72.388319 34.125537 60.681026 29.992187 48.072266 29.992188 L 48.070312 29.988281 z " />
  <path
     id="path6"
     style="opacity:0.1;fill:#ffffff;stroke-width:1.5"
     d="M 48.070312 41.988281 C 38.612092 41.988281 29.831417 45.09353 22.78125 50.332031 L 23.333984 50.933594 C 30.289134 45.937562 38.853711 42.986328 48.070312 42.986328 L 48.070312 42.988281 C 57.284666 42.988281 65.850313 45.937273 72.804688 50.931641 L 73.351562 50.332031 C 66.301697 45.09323 57.528233 41.988281 48.070312 41.988281 z " />
  <path
     id="path7"
     style="opacity:0.2;fill:#000000;stroke-width:1.5"
     d="M 89.251953 32.810547 L 48.242188 78 L 6.9003906 32.957031 C 6.7082127 33.085978 6.5141688 33.212364 6.328125 33.349609 L 48.230469 79 L 89.800781 33.185547 C 89.622419 33.05501 89.436617 32.933831 89.251953 32.810547 z " />
</svg>
