<?xml version="1.0" encoding="UTF-8" standalone="no"?>
<!-- Created with Inkscape (http://www.inkscape.org/) -->

<svg
   width="256"
   height="256"
   viewBox="0 0 256 256.00002"
   version="1.1"
   id="svg5"
   inkscape:version="1.3 (1:1.3+202307231459+0e150ed6c4)"
   sodipodi:docname="application-json.svg"
   xmlns:inkscape="http://www.inkscape.org/namespaces/inkscape"
   xmlns:sodipodi="http://sodipodi.sourceforge.net/DTD/sodipodi-0.dtd"
   xmlns="http://www.w3.org/2000/svg"
   xmlns:svg="http://www.w3.org/2000/svg">
  <sodipodi:namedview
     id="namedview7"
     pagecolor="#ffffff"
     bordercolor="#000000"
     borderopacity="0.25"
     inkscape:showpageshadow="2"
     inkscape:pageopacity="0.0"
     inkscape:pagecheckerboard="0"
     inkscape:deskcolor="#d1d1d1"
     inkscape:document-units="px"
     showgrid="false"
     inkscape:zoom="2.8164062"
     inkscape:cx="128"
     inkscape:cy="128"
     inkscape:window-width="1920"
     inkscape:window-height="1008"
     inkscape:window-x="0"
     inkscape:window-y="0"
     inkscape:window-maximized="1"
     inkscape:current-layer="svg5" />
  <defs
     id="defs2" />
  <path
     id="rect234"
     style="opacity:0.2;stroke-width:4;stroke-linecap:round;stroke-linejoin:round"
     d="m 56,18 h 96 l 64,64 v 144 c 0,8.864 -7.136,16 -16,16 H 56 c -8.864,0 -16,-7.136 -16,-16 V 34 c 0,-8.864 7.136,-16 16,-16 z" />
  <path
     id="rect448"
     style="fill:#e0e0e0;fill-opacity:1;stroke-width:4;stroke-linecap:round;stroke-linejoin:round"
     d="m 56,16 h 96 l 24,40 40,24 v 144 c 0,8.864 -7.136,16 -16,16 H 56 c -8.864,0 -16,-7.136 -16,-16 V 32 c 0,-8.864 7.136,-16 16,-16 z" />
  <path
     d="m 113.82872,120.00093 c -0.1512,-0.002 -0.3024,0.003 -0.4528,0.016 -0.43116,0.0264 -0.857,0.1104 -1.26556,0.25 0,0 -2.99468,0.98365 -6.46856,2.79678 -3.47364,1.81313 -7.68996,4.35821 -10.40588,8.71845 -3.023,4.8526 -1.8776,10.04908 -0.93748,13.15578 0.94012,3.10676 1.44652,4.46644 0.5784,6.54664 -0.424,1.01578 -3.01608,3.22666 -5.85916,4.60922 -2.84504,1.3828 -5.42164,2.1093 -5.42164,2.1093 -2.58104,0.66358 -4.11924,3.29034 -3.4218,5.84354 -0.608,2.50716 0.9106,5.0378 3.4218,5.70292 0,0 2.5786,0.72678 5.42164,2.1093 2.84316,1.38248 5.43524,3.60906 5.85916,4.62484 0.86836,2.07996 0.3624,3.43962 -0.5784,6.54664 -0.94012,3.10676 -2.08552,8.30238 0.93748,13.15578 2.71608,4.36014 6.93224,6.88944 10.40588,8.70282 3.47364,1.81312 6.46856,2.79678 6.46856,2.79678 6.20244,2.28684 9.36544,-7.1694 3.01552,-9.01532 0,0 -2.27136,-0.755 -5.01544,-2.18742 -2.7442,-1.43232 -5.68116,-3.64658 -6.71856,-5.3123 -1.17372,-1.88416 -0.79436,-2.5377 0.08,-5.42168 0.87276,-2.88408 2.45208,-7.66866 0.2656,-12.9058 -1.93632,-4.63792 -5.80444,-7.08856 -9.26528,-8.85906 3.46036,-1.77026 7.32848,-4.23654 9.26528,-8.87468 2.18648,-5.23708 0.60716,-10.02182 -0.2656,-12.9058 -0.87276,-2.88406 -1.25172,-3.53762 -0.08,-5.42168 1.03756,-1.66566 3.97468,-3.87984 6.71856,-5.31232 2.74424,-1.43232 5.01544,-2.18742 5.01544,-2.18742 5.13292,-1.61036 4.09904,-9.09986 -1.28124,-9.2813 z m 28.31092,0 c -5.37264,0.19688 -6.39236,7.67481 -1.26556,9.28093 0,0 2.2712,0.75508 5.0154,2.18742 2.74392,1.4324 5.681,3.64658 6.71856,5.3123 1.17364,1.88408 0.7944,2.53762 -0.08,5.4217 -0.87276,2.8839 -2.45212,7.68426 -0.2656,12.9214 1.9364,4.63776 5.8046,7.0885 9.26524,8.85906 -3.4604,1.7701 -7.32852,4.22076 -9.26524,8.85908 -2.1864,5.23706 -0.6072,10.0218 0.2656,12.90578 0.8728,2.88398 1.2518,3.53754 0.08,5.42168 -1.0374,1.66572 -3.9744,3.88 -6.71856,5.31232 -2.74404,1.4324 -5.0154,2.18742 -5.0154,2.18742 -6.34996,1.84592 -3.18692,11.30216 3.01548,9.0153 0,0 2.99492,-0.98364 6.46856,-2.79678 3.4734,-1.81328 7.6896,-4.34266 10.40588,-8.7028 3.023,-4.8531 1.87756,-10.04832 0.93748,-13.1558 -0.94012,-3.107 -1.44648,-4.46666 -0.57836,-6.54664 0.42396,-1.01578 3.01596,-3.24236 5.85916,-4.62482 2.843,-1.38248 5.42164,-2.10932 5.42164,-2.10932 2.5112,-0.66508 4.0296,-3.19574 3.4218,-5.70292 0.69756,-2.5532 -0.84076,-5.17998 -3.4218,-5.84354 0,0 -2.57664,-0.72652 -5.42164,-2.1093 -2.84312,-1.38248 -5.4352,-3.59342 -5.85916,-4.6092 -0.86844,-2.08022 -0.3624,-3.43988 0.57836,-6.54664 0.94008,-3.10678 2.0856,-8.30318 -0.93748,-13.1558 -2.71564,-4.36014 -6.932,-6.90522 -10.40588,-8.71844 -3.4738,-1.81313 -6.48416,-2.79678 -6.48416,-2.79678 -0.404,-0.13824 -0.82396,-0.22232 -1.24996,-0.25 -0.156,-0.0128 -0.312,-0.0184 -0.46876,-0.016 h -0.016 z"
     style="fill:#1c59a5;fill-opacity:1;fill-rule:evenodd;stroke-width:7.99972"
     id="path1178"
     sodipodi:nodetypes="cccscssccccsccccccsccsccsccccccccscsccscscccccsscccccccsccccc" />
  <path
     d="m 216,82 h -48 c -8.864,0 -16,-7.136 -16,-16 V 16 l 64,64 z"
     style="opacity:0.2;fill:#000000;stroke-width:4;stroke-linecap:round;stroke-linejoin:round"
     id="path611" />
  <path
     id="rect600"
     style="fill:#f5f5f5;fill-opacity:1;stroke-width:4;stroke-linecap:round;stroke-linejoin:round"
     d="m 216,80 h -48 c -8.864,0 -16,-7.136 -16,-16 V 16 Z" />
  <path
     id="path1133"
     style="opacity:0.2;fill:#ffffff;fill-opacity:1;stroke-width:4;stroke-linecap:round;stroke-linejoin:round"
     d="m 56,16 c -8.863976,0 -16,7.136026 -16,16 v 2 c 0,-8.863976 7.136024,-16 16,-16 h 96 l 62,62 h 2 L 152,16 Z" />
</svg>
