<?xml version="1.0" encoding="UTF-8" standalone="no"?>
<!-- Created with Inkscape (http://www.inkscape.org/) -->

<svg
   width="256"
   height="256"
   viewBox="0 0 256 256.00002"
   version="1.1"
   id="svg5"
   inkscape:version="1.2.2 (1:1.2.2+202305151914+b0a8486541)"
   sodipodi:docname="application-vnd.ms-excel.svg"
   xmlns:inkscape="http://www.inkscape.org/namespaces/inkscape"
   xmlns:sodipodi="http://sodipodi.sourceforge.net/DTD/sodipodi-0.dtd"
   xmlns="http://www.w3.org/2000/svg"
   xmlns:svg="http://www.w3.org/2000/svg">
  <sodipodi:namedview
     id="namedview7"
     pagecolor="#ffffff"
     bordercolor="#000000"
     borderopacity="0.25"
     inkscape:showpageshadow="2"
     inkscape:pageopacity="0.0"
     inkscape:pagecheckerboard="0"
     inkscape:deskcolor="#d1d1d1"
     inkscape:document-units="px"
     showgrid="false"
     inkscape:zoom="3.1484375"
     inkscape:cx="127.84119"
     inkscape:cy="128"
     inkscape:window-width="1920"
     inkscape:window-height="1008"
     inkscape:window-x="0"
     inkscape:window-y="0"
     inkscape:window-maximized="1"
     inkscape:current-layer="svg5" />
  <defs
     id="defs2" />
  <path
     id="rect234"
     style="opacity:0.2;stroke-width:4;stroke-linecap:round;stroke-linejoin:round"
     d="m 56,18 h 96 l 64,64 v 144 c 0,8.864 -7.136,16 -16,16 H 56 c -8.864,0 -16,-7.136 -16,-16 V 34 c 0,-8.864 7.136,-16 16,-16 z" />
  <path
     id="rect448"
     style="fill:#e0e0e0;fill-opacity:1;stroke-width:4;stroke-linecap:round;stroke-linejoin:round"
     d="m 56,16 h 96 l 24,40 40,24 v 144 c 0,8.864 -7.136,16 -16,16 H 56 c -8.864,0 -16,-7.136 -16,-16 V 32 c 0,-8.864 7.136,-16 16,-16 z" />
  <rect
     style="opacity:0.2;fill:#000000;stroke-width:4"
     width="95.999962"
     height="111.99995"
     x="91.999985"
     y="106"
     ry="5.9999976"
     id="rect5892" />
  <path
     id="path5894"
     style="fill:#33c481;fill-opacity:1;stroke-width:4"
     d="m 97.999988,104 a 5.9999976,5.9999976 0 0 0 -5.999996,6 v 21.99999 l 47.999978,15.99999 47.99999,-15.99999 V 110 a 5.9999976,5.9999976 0 0 0 -6,-6 z" />
  <path
     style="fill:#107c41;fill-opacity:1;stroke-width:4"
     d="M 92.000038,131.99999 H 140.00002 L 188,159.99997 v 27.99999 H 140.00002 L 92.000038,155.99997 Z"
     id="path5898"
     sodipodi:nodetypes="ccccccc" />
  <path
     id="path5896"
     style="fill:#21a366;fill-opacity:1;stroke-width:4"
     d="m 97.999988,104 a 5.9999976,5.9999976 0 0 0 -5.999996,6 v 21.99999 H 139.99997 V 104 Z m 41.999982,27.99999 v 27.99999 h 47.99999 v -27.99999 z" />
  <path
     id="path5900"
     style="fill:#185c37;fill-opacity:1;stroke-width:4"
     d="m 91.999992,159.99998 v 49.99998 a 5.9999976,5.9999976 0 0 0 5.999996,6 h 83.999972 a 5.9999976,5.9999976 0 0 0 6,-6 v -22 h -47.99999 v -27.99998 z" />
  <path
     style="opacity:0.2;fill:#000000;stroke-width:4"
     d="M 92.000038,159.99997 H 188 v 2.00001 H 92.000038 Z m 47.999982,27.99999 H 188 v 2 H 140.00002 Z M 92.000038,131.99998 h 47.999982 v 2.00001 H 92.000038 Z"
     id="path5902" />
  <rect
     style="opacity:0.2;fill:#000000;fill-opacity:1;stroke-width:20;stroke-linecap:round;stroke-linejoin:round"
     id="rect6618"
     width="63.999973"
     height="63.999973"
     x="60"
     y="129.99998"
     ry="7.9999967" />
  <rect
     style="fill:#0d7239;fill-opacity:1;stroke-width:20;stroke-linecap:round;stroke-linejoin:round"
     id="rect6150"
     width="63.999973"
     height="63.999973"
     x="60"
     y="128"
     ry="7.9999967" />
  <path
     d="m 75.999998,139.99999 11.999994,20 -11.999994,19.99998 h 7.999996 l 7.999998,-13.99998 7.999996,13.99998 h 7.999992 l -11.99999,-19.99998 11.99999,-20 H 99.999988 L 91.999992,154 83.999994,139.99999 Z"
     style="fill:#ffffff;stroke-width:40;stroke-linecap:round;stroke-linejoin:round"
     id="path940" />
  <path
     id="rect1753"
     style="opacity:0.2;fill:#ffffff;fill-opacity:1;stroke-width:8;stroke-linecap:square"
     d="m 97.999988,104 c -3.32399,0 -5.999996,2.67601 -5.999996,6 v 2 c 0,-3.32399 2.676006,-6 5.999996,-6 h 83.999972 c 3.32398,0 6,2.67601 6,6 v -2 c 0,-3.32399 -2.67602,-6 -6,-6 z" />
  <path
     d="m 216,82 h -48 c -8.864,0 -16,-7.136 -16,-16 V 16 l 64,64 z"
     style="opacity:0.2;fill:#000000;stroke-width:4;stroke-linecap:round;stroke-linejoin:round"
     id="path611" />
  <path
     id="rect600"
     style="fill:#f5f5f5;fill-opacity:1;stroke-width:4;stroke-linecap:round;stroke-linejoin:round"
     d="m 216,80 h -48 c -8.864,0 -16,-7.136 -16,-16 V 16 Z" />
  <path
     id="path1133"
     style="opacity:0.2;fill:#ffffff;fill-opacity:1;stroke-width:4;stroke-linecap:round;stroke-linejoin:round"
     d="m 56,16 c -8.863976,0 -16,7.136026 -16,16 v 2 c 0,-8.863976 7.136024,-16 16,-16 h 96 l 62,62 h 2 L 152,16 Z" />
</svg>
