<?xml version="1.0" encoding="UTF-8" standalone="no"?>
<!-- Created with Inkscape (http://www.inkscape.org/) -->

<svg
   width="256"
   height="256"
   viewBox="0 0 256 256.00002"
   version="1.1"
   id="svg5"
   inkscape:version="1.2.2 (1:1.2.2+202305151914+b0a8486541)"
   sodipodi:docname="application-x-executable.svg"
   xmlns:inkscape="http://www.inkscape.org/namespaces/inkscape"
   xmlns:sodipodi="http://sodipodi.sourceforge.net/DTD/sodipodi-0.dtd"
   xmlns="http://www.w3.org/2000/svg"
   xmlns:svg="http://www.w3.org/2000/svg">
  <sodipodi:namedview
     id="namedview7"
     pagecolor="#ffffff"
     bordercolor="#000000"
     borderopacity="0.25"
     inkscape:showpageshadow="2"
     inkscape:pageopacity="0.0"
     inkscape:pagecheckerboard="0"
     inkscape:deskcolor="#d1d1d1"
     inkscape:document-units="px"
     showgrid="false"
     inkscape:zoom="3.1484375"
     inkscape:cx="127.84119"
     inkscape:cy="128"
     inkscape:window-width="1920"
     inkscape:window-height="1008"
     inkscape:window-x="0"
     inkscape:window-y="0"
     inkscape:window-maximized="1"
     inkscape:current-layer="svg5" />
  <defs
     id="defs2" />
  <path
     d="m 151.92293,18.786628 c -12.15935,-3.258086 -24.57738,3.911468 -27.83547,16.07081 -1.71494,6.400244 -5.77768,9.145834 -14.99645,12.230296 -11.369067,3.803916 -18.873961,4.95998 -25.272569,-1.438604 -8.90125,-8.901262 -23.235145,-8.89535 -32.136407,0.006 l -8.038418,8.025514 c -8.901258,8.901266 -8.895342,23.235148 0.006,32.136406 4.455522,4.455516 4.04059,12.751106 2.042012,22.12889 -2.547788,11.95478 -3.29427,15.58732 -12.83288,18.14318 -12.159344,3.25808 -19.331412,15.66863 -16.07333,27.82798 l 2.948714,10.96953 c 3.258082,12.15934 15.668642,19.33141 27.827986,16.07333 8.347614,-2.23673 12.734618,2.06419 19.523579,8.52634 9.130794,8.69128 12.094848,12.96642 9.954568,20.95404 -3.25808,12.15936 3.911474,24.57736 16.07081,27.83544 l 5.483004,1.4692 5.483001,1.46916 c 12.15934,3.25808 24.57737,-3.91148 27.83546,-16.0708 2.14027,-7.98764 6.8448,-10.20798 19.09794,-13.16946 9.11048,-2.20192 15.06019,-3.73312 21.17108,2.37776 8.90125,8.90126 23.23514,8.89534 32.1364,-0.006 l 8.03842,-8.02554 c 8.90126,-8.90126 8.89536,-23.23515 -0.006,-32.1364 -6.98274,-6.98274 -5.81294,-10.50185 -2.042,-22.12889 2.95806,-9.12069 6.74652,-16.51234 12.83288,-18.14318 12.15934,-3.25808 19.3314,-15.66863 16.07332,-27.82798 l -2.94872,-10.96951 c -3.25808,-12.159348 -15.66864,-19.331418 -27.82798,-16.07333 -8.74064,2.342044 -14.66204,-2.411594 -22.60598,-11.390416 -6.44146,-7.280606 -8.5871,-11.68973 -6.87216,-18.08997 3.25808,-12.159352 -3.91147,-24.57738 -16.07081,-27.835462 l -5.483,-1.469166 z"
     style="opacity:0.2;fill:#000000;stroke-width:4"
     id="path459" />
  <path
     d="m 151.92293,16.786698 c -12.15935,-3.258086 -24.57738,3.911468 -27.83547,16.07081 -1.71494,6.400238 -5.77768,9.145832 -14.99645,12.230294 C 97.721943,48.89172 90.217049,50.047784 83.818441,43.6492 74.917191,34.747938 60.583296,34.753854 51.682034,43.6552 l -8.038418,8.025514 c -8.901258,8.901266 -8.895342,23.235148 0.006,32.136406 4.455522,4.455516 4.04059,12.751106 2.042012,22.12889 -2.547788,11.95478 -3.29427,15.58732 -12.83288,18.14318 -12.159344,3.25808 -19.331412,15.66863 -16.07333,27.82798 l 2.948714,10.96953 c 3.258082,12.15934 15.668642,19.33141 27.827986,16.07333 8.347614,-2.23673 12.734618,2.06418 19.523579,8.52633 9.130794,8.69128 12.094848,12.96642 9.954568,20.95406 -3.25808,12.15934 3.911474,24.57738 16.07081,27.83546 l 5.483004,1.46916 5.483001,1.46916 c 12.15934,3.2581 24.57737,-3.91146 27.83546,-16.0708 2.14027,-7.98764 6.8448,-10.20798 19.09794,-13.16944 9.11048,-2.20192 15.06019,-3.73312 21.17108,2.37774 8.90125,8.90126 23.23514,8.89536 32.1364,-0.006 l 8.03842,-8.02552 c 8.90126,-8.90126 8.89536,-23.23516 -0.006,-32.13641 -6.98274,-6.98274 -5.81294,-10.50185 -2.042,-22.12889 2.95806,-9.12069 6.74652,-16.51234 12.83288,-18.14318 12.15934,-3.25808 19.3314,-15.66864 16.07332,-27.82798 L 236.26586,93.114208 C 233.00778,80.954862 220.59722,73.78279 208.43788,77.04088 199.69724,79.382922 193.77584,74.629286 185.8319,65.650464 179.39044,58.369858 177.2448,53.960732 178.95974,47.560494 182.21782,35.401146 175.04827,22.983118 162.88893,19.72503 l -5.483,-1.469166 z"
     style="fill:#455a64;stroke-width:4"
     id="path304" />
  <path
     id="path431"
     style="opacity:0.1;fill:#ffffff;stroke-width:4"
     d="m 145.1171,16.016656 c -9.68924,0.374648 -18.38404,6.964284 -21.03124,16.84374 -1.71494,6.40023 -5.77341,9.142092 -14.99217,12.22655 -11.369063,3.803914 -18.874821,4.961082 -25.273425,-1.437498 -8.901242,-8.90125 -23.239349,-8.89371 -32.140603,0.008 l -8.039058,8.023434 c -4.65976,4.659588 -6.83137,10.804396 -6.60937,16.8828 0.281118,-5.40728 2.461874,-10.7353 6.60937,-14.882802 l 8.039058,-8.023434 c 8.901254,-8.901334 23.239361,-8.909062 32.140603,-0.008 6.398604,6.39858 13.904366,5.241412 25.273425,1.4375 9.21876,-3.084458 13.27723,-5.82632 14.99217,-12.226552 3.25809,-12.159332 15.67659,-19.328386 27.83592,-16.070302 l 5.48437,1.468748 5.48437,1.46875 c 9.74841,2.61208 16.27293,11.114634 16.80468,20.648422 0.33904,-10.323504 -6.38004,-19.855146 -16.80468,-22.648422 l -5.48437,-1.468748 -5.48437,-1.46875 c -2.27988,-0.61089 -4.56871,-0.859892 -6.80468,-0.773436 z m 33.46872,37.42966 c -0.0642,0.419556 -0.0749,0.819684 -0.10156,1.226564 0.37752,4.040738 2.74437,7.77801 7.34374,12.97655 7.94392,8.978814 13.86874,13.73266 22.60936,11.39062 12.15934,-3.258088 24.57004,3.910966 27.8281,16.070302 l 2.94532,10.976548 c 0.4045,1.50961 0.65662,3.01627 0.75,4.51563 0.061,-2.14518 -0.1644,-4.33047 -0.75,-6.51562 L 236.26546,93.118164 C 233.0074,80.95883 220.5967,73.781962 208.43736,77.040052 c -8.74062,2.342038 -14.65762,-2.411806 -22.60154,-11.39062 -4.30515,-4.86598 -6.65272,-8.45075 -7.25,-12.203116 z M 47.046854,96.64941 c -0.17156,2.894142 -0.653432,6.02108 -1.351562,9.29687 -2.547784,11.95476 -3.29733,15.58476 -12.835928,18.14061 -10.422794,2.79278 -17.148058,12.32025 -16.812488,22.64061 0.532934,-9.53134 7.064536,-18.02865 16.812488,-20.64061 9.538598,-2.55585 10.288144,-6.18585 12.835928,-18.14061 0.721622,-3.38602 1.221014,-6.61972 1.374998,-9.593742 -0.0052,-0.570144 0.0144,-1.157724 -0.0236,-1.703128 z m 160.445206,67.50776 c -0.0632,0.41182 -0.0928,0.7984 -0.125,1.18751 0.23804,2.98507 1.67512,5.52669 4.98436,8.83593 4.18848,4.18842 6.37686,9.58472 6.625,15.04687 0.26128,-6.12991 -1.9253,-12.34723 -6.625,-17.04687 -3.00334,-3.00335 -4.43066,-5.38087 -4.85936,-8.02344 z M 77.507769,206.08684 c -0.11096,0.75734 -0.24688,1.52348 -0.468748,2.35156 -0.58555,2.1853 -0.805314,4.37702 -0.742186,6.52344 0.09344,-1.49956 0.33768,-3.01384 0.742186,-4.52344 0.31036,-1.15828 0.477856,-2.22306 0.570312,-3.25 -0.0252,-0.36948 -0.04624,-0.7406 -0.10156,-1.10156 z" />
  <circle
     style="opacity:0.2;fill:#000000;stroke-width:8;stroke-linecap:square"
     id="path819"
     cx="127.99992"
     cy="129.99959"
     r="43.999969" />
  <circle
     style="opacity:1;fill:#ffffff;stroke-width:8;stroke-linecap:square"
     id="path821"
     cx="127.99992"
     cy="128.00096"
     r="43.999969" />
</svg>
