<?xml version="1.0" encoding="UTF-8" standalone="no"?>
<!-- Created with Inkscape (http://www.inkscape.org/) -->

<svg
   width="256"
   height="256"
   viewBox="0 0 256 256"
   version="1.1"
   id="svg5"
   inkscape:version="1.3 (1:1.3+202307231459+0e150ed6c4)"
   sodipodi:docname="image-svg+xml-compressed.svg"
   xmlns:inkscape="http://www.inkscape.org/namespaces/inkscape"
   xmlns:sodipodi="http://sodipodi.sourceforge.net/DTD/sodipodi-0.dtd"
   xmlns="http://www.w3.org/2000/svg"
   xmlns:svg="http://www.w3.org/2000/svg">
  <sodipodi:namedview
     id="namedview7"
     pagecolor="#ffffff"
     bordercolor="#000000"
     borderopacity="0.25"
     inkscape:showpageshadow="2"
     inkscape:pageopacity="0.0"
     inkscape:pagecheckerboard="0"
     inkscape:deskcolor="#d1d1d1"
     inkscape:document-units="px"
     showgrid="false"
     inkscape:zoom="2.9179688"
     inkscape:cx="128"
     inkscape:cy="128"
     inkscape:window-width="1920"
     inkscape:window-height="1008"
     inkscape:window-x="0"
     inkscape:window-y="0"
     inkscape:window-maximized="1"
     inkscape:current-layer="svg5" />
  <defs
     id="defs2" />
  <rect
     style="opacity:0.2;fill:#000000;stroke-width:4;stroke-linecap:round;stroke-linejoin:round"
     id="rect344"
     width="224"
     height="192"
     x="16"
     y="34"
     ry="24" />
  <rect
     style="fill:#e0e0e0;fill-opacity:1;stroke-width:4;stroke-linecap:round;stroke-linejoin:round"
     id="rect234"
     width="224"
     height="192"
     x="16"
     y="32"
     ry="24" />
  <path
     style="fill:#757575;fill-opacity:1;stroke-width:8"
     d="M 60,80 A 12,12 0 0 0 48,92 12,12 0 0 0 60,104 12,12 0 0 0 71.312504,96 H 96.093752 A 64.000016,64.000016 0 0 0 64.437504,144 H 53.328128 C 50.373456,144 48,146.37346 48,149.32813 v 21.34374 C 48,173.62654 50.373456,176 53.328128,176 H 74.671872 C 77.626544,176 80,173.62654 80,170.67187 v -21.34374 c 0,-2.77107 -2.115104,-4.94803 -4.812496,-5.21875 a 53.333344,53.333344 0 0 1 36.015626,-43.25 v 5.81249 c 0,2.95467 2.37345,5.32813 5.32812,5.32813 h 21.32813 c 2.95466,0 5.34375,-2.37346 5.34375,-5.32813 v -6.32812 a 53.333344,53.333344 0 0 1 37.625,43.76563 C 178.12321,144.37293 176,146.55173 176,149.32813 v 21.34374 c 0,2.95467 2.37346,5.32813 5.32813,5.32813 h 21.34375 C 205.62654,176 208,173.62654 208,170.67187 V 149.32813 C 208,146.37346 205.62654,144 202.67188,144 H 191.5625 a 64.000016,64.000016 0 0 0 -31.625,-48 h 24.76563 A 12,12 0 0 0 196,104 12,12 0 0 0 208,92 12,12 0 0 0 196,80 12,12 0 0 0 184.6875,88 H 143.20313 V 85.328128 C 143.20313,82.373456 140.81404,80 137.85938,80 h -21.32813 c -2.95467,0 -5.32812,2.373456 -5.32812,5.328128 V 88 H 71.296872 A 12,12 0 0 0 60,80 Z"
     id="path2" />
  <path
     id="rect1810"
     style="opacity:0.2;fill:#ffffff;fill-opacity:1;stroke-width:16;stroke-linecap:square"
     d="M 40,32 C 26.704026,32 16,42.704024 16,56 v 2 C 16,44.704012 26.704014,34 40,34 h 176 c 13.29598,0 24,10.704012 24,24 V 56 C 240,42.704024 229.29598,32 216,32 Z" />
</svg>
