<?xml version="1.0" encoding="UTF-8" standalone="no"?>
<!-- Created with Inkscape (http://www.inkscape.org/) -->

<svg
   width="256"
   height="256"
   viewBox="0 0 256 256.00002"
   version="1.1"
   id="svg5"
   inkscape:version="1.3 (0e150ed6c4, 2023-07-21)"
   sodipodi:docname="text-enriched.svg"
   xmlns:inkscape="http://www.inkscape.org/namespaces/inkscape"
   xmlns:sodipodi="http://sodipodi.sourceforge.net/DTD/sodipodi-0.dtd"
   xmlns="http://www.w3.org/2000/svg"
   xmlns:svg="http://www.w3.org/2000/svg">
  <sodipodi:namedview
     id="namedview7"
     pagecolor="#ffffff"
     bordercolor="#000000"
     borderopacity="0.25"
     inkscape:showpageshadow="2"
     inkscape:pageopacity="0.0"
     inkscape:pagecheckerboard="0"
     inkscape:deskcolor="#d1d1d1"
     inkscape:document-units="px"
     showgrid="false"
     inkscape:zoom="3.1367188"
     inkscape:cx="128"
     inkscape:cy="128"
     inkscape:window-width="1850"
     inkscape:window-height="1011"
     inkscape:window-x="70"
     inkscape:window-y="32"
     inkscape:window-maximized="1"
     inkscape:current-layer="svg5" />
  <defs
     id="defs2" />
  <path
     id="rect234"
     style="opacity:0.2;stroke-width:4;stroke-linecap:round;stroke-linejoin:round"
     d="m 56,18 h 96 l 64,64 v 144 c 0,8.864 -7.136,16 -16,16 H 56 c -8.864,0 -16,-7.136 -16,-16 V 34 c 0,-8.864 7.136,-16 16,-16 z" />
  <path
     id="rect448"
     style="fill:#e0e0e0;fill-opacity:1;stroke-width:4;stroke-linecap:round;stroke-linejoin:round"
     d="m 56,16 h 96 l 24,40 40,24 v 144 c 0,8.864 -7.136,16 -16,16 H 56 c -8.864,0 -16,-7.136 -16,-16 V 32 c 0,-8.864 7.136,-16 16,-16 z" />
  <path
     id="path2519"
     style="opacity:0.2;fill:#000000;fill-opacity:1;stroke-width:4"
     d="m 92,122 -20,48 h 8 l 6.671876,-16 H 105.32812 L 112,170 h 8 l -20,-48 z m 44,0 v 8 h 48 v -8 z M 96,131.59375 102,146 H 90 Z M 136,142 v 8 h 48 v -8 z m 0,20 v 8 h 48 v -8 z m -64,24 v 8 h 80 v -8 z" />
  <path
     id="path2408"
     style="fill:#757575;fill-opacity:1;stroke-width:4"
     d="m 92,120 -20,48 h 8 l 6.671876,-16 H 105.32812 L 112,168 h 8 l -20,-48 z m 44,0 v 8 h 48 v -8 z M 96,129.59375 102,144 H 90 Z M 136,140 v 8 h 48 v -8 z m 0,20 v 8 h 48 v -8 z m -64,24 v 8 h 80 v -8 z" />
  <path
     d="m 216,82 h -48 c -8.864,0 -16,-7.136 -16,-16 V 16 l 64,64 z"
     style="opacity:0.2;fill:#000000;stroke-width:4;stroke-linecap:round;stroke-linejoin:round"
     id="path611" />
  <path
     id="rect600"
     style="fill:#f5f5f5;fill-opacity:1;stroke-width:4;stroke-linecap:round;stroke-linejoin:round"
     d="m 216,80 h -48 c -8.864,0 -16,-7.136 -16,-16 V 16 Z" />
  <path
     id="path1133"
     style="opacity:0.2;fill:#ffffff;fill-opacity:1;stroke-width:4;stroke-linecap:round;stroke-linejoin:round"
     d="m 56,16 c -8.863976,0 -16,7.136026 -16,16 v 2 c 0,-8.863976 7.136024,-16 16,-16 h 96 l 62,62 h 2 L 152,16 Z" />
</svg>
