<?xml version="1.0" encoding="UTF-8" standalone="no"?>
<!-- Created with Inkscape (http://www.inkscape.org/) -->

<svg
   width="256"
   height="256"
   viewBox="0 0 256 256.00002"
   version="1.1"
   id="svg5"
   inkscape:version="1.2.2 (1:1.2.2+202305151914+b0a8486541)"
   sodipodi:docname="text-x-html.svg"
   xmlns:inkscape="http://www.inkscape.org/namespaces/inkscape"
   xmlns:sodipodi="http://sodipodi.sourceforge.net/DTD/sodipodi-0.dtd"
   xmlns="http://www.w3.org/2000/svg"
   xmlns:svg="http://www.w3.org/2000/svg">
  <sodipodi:namedview
     id="namedview7"
     pagecolor="#ffffff"
     bordercolor="#000000"
     borderopacity="0.25"
     inkscape:showpageshadow="2"
     inkscape:pageopacity="0.0"
     inkscape:pagecheckerboard="0"
     inkscape:deskcolor="#d1d1d1"
     inkscape:document-units="px"
     showgrid="false"
     inkscape:zoom="3.1484375"
     inkscape:cx="127.84119"
     inkscape:cy="128"
     inkscape:window-width="1920"
     inkscape:window-height="1008"
     inkscape:window-x="0"
     inkscape:window-y="0"
     inkscape:window-maximized="1"
     inkscape:current-layer="svg5" />
  <defs
     id="defs2" />
  <path
     id="rect234"
     style="opacity:0.2;stroke-width:4;stroke-linecap:round;stroke-linejoin:round"
     d="m 56,18 h 96 l 64,64 v 144 c 0,8.864 -7.136,16 -16,16 H 56 c -8.864,0 -16,-7.136 -16,-16 V 34 c 0,-8.864 7.136,-16 16,-16 z" />
  <path
     id="rect448"
     style="fill:#e0e0e0;fill-opacity:1;stroke-width:4;stroke-linecap:round;stroke-linejoin:round"
     d="m 56,16 h 96 l 24,40 40,24 v 144 c 0,8.864 -7.136,16 -16,16 H 56 c -8.864,0 -16,-7.136 -16,-16 V 32 c 0,-8.864 7.136,-16 16,-16 z" />
  <path
     d="M 127.99999,104 C 97.071996,104 72,129.072 72,159.99999 c 0,30.92799 25.071996,55.99999 55.99999,55.99999 30.928,0 56.00001,-25.072 56.00001,-55.99999 C 184,129.072 158.92799,104 127.99999,104 Z m -5.60937,10.70313 c 0.65288,-0.068 1.4819,0.0392 2.14062,0 0.0784,0.31232 -0.47408,1.42071 -1.21875,3.04687 -4.74154,10.35835 -5.00996,22.5004 -0.60936,28.98437 0.79632,1.17558 1.51562,2.29206 1.51562,2.4375 0,0.14536 -0.85709,0.29688 -1.82813,0.29688 -2.27953,0 -4.43623,-1.38484 -8.84375,-4.875 -1.95797,-1.55044 -4.49821,-2.84976 -5.48437,-3.04688 -1.54858,-0.30936 -1.96539,-0.17544 -3.96874,1.82812 -1.86395,1.86361 -2.43751,2.87204 -2.43751,4.57813 0,6.46973 7.67629,11.59869 21.95313,14.625 19.38847,4.10928 24.16832,7.80482 24.70311,18 0.67144,12.78446 -6.1388,22.4278 -21.04687,29.89062 -1.77937,0.89102 -2.90968,1.2277 -3.65624,1.51562 -0.3308,-0.0296 -0.5764,0.0296 -0.90625,0 -0.12688,-0.39528 -0.31248,-1.30936 -0.31248,-3.04688 0,-6.7902 -2.67016,-13.77896 -6.70312,-17.6875 -1.08258,-1.0493 -4.12302,-3.26816 -6.71875,-4.875 -2.59564,-1.60674 -5.21328,-3.4693 -5.79688,-4.26562 -0.96712,-1.32148 -1.03991,-2.13687 -0.29688,-4.57812 1.35418,-4.45866 2.96029,-6.94845 6.09375,-9.76563 1.64275,-1.47694 3.29233,-2.70477 3.65625,-2.73437 0.364,-0.0296 -2.08643,-0.77544 -5.78125,-1.53125 -3.69461,-0.75728 -9.11191,-2.34804 -11.906246,-3.35937 -5.109686,-1.84888 -11.99491,-5.72218 -14.625006,-8.53125 -0.11128,-0.11904 -0.21584,-0.20704 -0.31248,-0.31248 3.768296,-15.01053 14.340374,-27.30569 28.359372,-33.23437 2.9333,-1.24068 5.96423,-2.09712 9.15625,-2.75 1.58996,-0.32496 3.23332,-0.44248 4.875,-0.60936 z m 45.75,22.87499 c 1.1462,0.70848 5.4677,10.07335 6.70312,14.64063 1.59504,5.89637 1.47958,16.09567 0,21.95311 -0.56312,2.22938 -1.27554,4.31853 -1.51562,4.57813 -0.24008,0.2596 -1.1165,-1.23197 -2.14062,-3.04687 -1.02424,-1.81462 -4.29686,-5.67819 -7.01564,-8.54688 -7.84771,-8.28092 -9.08414,-12.59423 -5.79687,-19.20312 1.65779,-3.33264 8.87851,-10.92252 9.76563,-10.375 z"
     style="fill:#2095f2;fill-opacity:1;stroke-width:8"
     id="path1576" />
  <path
     d="m 216,82 h -48 c -8.864,0 -16,-7.136 -16,-16 V 16 l 64,64 z"
     style="opacity:0.2;fill:#000000;stroke-width:4;stroke-linecap:round;stroke-linejoin:round"
     id="path611" />
  <path
     id="rect600"
     style="fill:#f5f5f5;fill-opacity:1;stroke-width:4;stroke-linecap:round;stroke-linejoin:round"
     d="m 216,80 h -48 c -8.864,0 -16,-7.136 -16,-16 V 16 Z" />
  <path
     id="path1133"
     style="opacity:0.2;fill:#ffffff;fill-opacity:1;stroke-width:4;stroke-linecap:round;stroke-linejoin:round"
     d="m 56,16 c -8.863976,0 -16,7.136026 -16,16 v 2 c 0,-8.863976 7.136024,-16 16,-16 h 96 l 62,62 h 2 L 152,16 Z" />
</svg>
