<?xml version="1.0" encoding="UTF-8" standalone="no"?>
<!-- Created with Inkscape (http://www.inkscape.org/) -->

<svg
   width="256"
   height="256"
   viewBox="0 0 256 256.00002"
   version="1.1"
   id="svg5"
   inkscape:version="1.3 (0e150ed6c4, 2023-07-21)"
   sodipodi:docname="text-r.svg"
   xmlns:inkscape="http://www.inkscape.org/namespaces/inkscape"
   xmlns:sodipodi="http://sodipodi.sourceforge.net/DTD/sodipodi-0.dtd"
   xmlns="http://www.w3.org/2000/svg"
   xmlns:svg="http://www.w3.org/2000/svg">
  <sodipodi:namedview
     id="namedview7"
     pagecolor="#ffffff"
     bordercolor="#000000"
     borderopacity="0.25"
     inkscape:showpageshadow="2"
     inkscape:pageopacity="0.0"
     inkscape:pagecheckerboard="0"
     inkscape:deskcolor="#d1d1d1"
     inkscape:document-units="px"
     showgrid="false"
     inkscape:zoom="3.0585938"
     inkscape:cx="127.83653"
     inkscape:cy="128"
     inkscape:window-width="1920"
     inkscape:window-height="984"
     inkscape:window-x="0"
     inkscape:window-y="29"
     inkscape:window-maximized="1"
     inkscape:current-layer="svg5" />
  <defs
     id="defs2" />
  <path
     id="rect234"
     style="opacity:0.2;stroke-width:4;stroke-linecap:round;stroke-linejoin:round"
     d="m 56,18 h 96 l 64,64 v 144 c 0,8.864 -7.136,16 -16,16 H 56 c -8.864,0 -16,-7.136 -16,-16 V 34 c 0,-8.864 7.136,-16 16,-16 z" />
  <path
     id="rect448"
     style="fill:#e0e0e0;fill-opacity:1;stroke-width:4;stroke-linecap:round;stroke-linejoin:round"
     d="m 56,16 h 96 l 24,40 40,24 v 144 c 0,8.864 -7.136,16 -16,16 H 56 c -8.864,0 -16,-7.136 -16,-16 V 32 c 0,-8.864 7.136,-16 16,-16 z" />
  <path
     style="fill:#1e62b2;fill-rule:evenodd;stroke-width:8"
     d="m 153.68375,174.40135 c 0,0 2.79442,-0.0832 5.58116,1.38113 0.96707,0.5044 2.64021,1.52465 3.84713,2.85742 1.18222,1.30572 1.75864,2.62912 1.75864,2.62912 L 184,216 H 148.63146 C 142.70975,204.33634 137.67731,188.54066 130.12866,178.1562 128.62802,176.8926 127.38002,176 125.89454,176 h -5.89672 l 0.004,39.97972 H 88 V 112 h 54.69998 c 5.92979,0 32.42338,5.20002 33.30002,31.20016 -0.87698,26.00013 -22.31809,31.20015 -22.31809,31.20015 z M 120.0015,135.99324 V 160 h 18.5243 c 0,0 5.05266,1.19911 5.05266,-12.816 0,-11.98502 -5.05266,-11.17724 -5.05266,-11.17724 z"
     id="path6" />
  <path
     id="path611"
     style="opacity:0.2;fill:#000000;stroke-width:4;stroke-linecap:round;stroke-linejoin:round"
     d="m 152,16 v 50 c 0,8.863984 7.13602,16 16,16 h 48 v -2 z" />
  <path
     id="rect600"
     style="fill:#f5f5f5;fill-opacity:1;stroke-width:4;stroke-linecap:round;stroke-linejoin:round"
     d="m 216,80 h -48 c -8.864,0 -16,-7.136 -16,-16 V 16 Z" />
  <path
     id="path1133"
     style="opacity:0.2;fill:#ffffff;fill-opacity:1;stroke-width:4;stroke-linecap:round;stroke-linejoin:round"
     d="m 56,16 c -8.863968,0 -16,7.136036 -16,16 v 2 c 0,-8.863964 7.136032,-16 16,-16 h 96 l 62,62 h 2 L 152,16 Z" />
</svg>
