<?xml version="1.0" encoding="UTF-8" standalone="no"?>
<!-- Created with Inkscape (http://www.inkscape.org/) -->

<svg
   width="256"
   height="256"
   viewBox="0 0 256 256.00002"
   version="1.1"
   id="svg5"
   inkscape:version="1.2.2 (1:1.2.2+202305151914+b0a8486541)"
   sodipodi:docname="x-office-presentation.svg"
   xmlns:inkscape="http://www.inkscape.org/namespaces/inkscape"
   xmlns:sodipodi="http://sodipodi.sourceforge.net/DTD/sodipodi-0.dtd"
   xmlns="http://www.w3.org/2000/svg"
   xmlns:svg="http://www.w3.org/2000/svg">
  <sodipodi:namedview
     id="namedview7"
     pagecolor="#ffffff"
     bordercolor="#000000"
     borderopacity="0.25"
     inkscape:showpageshadow="2"
     inkscape:pageopacity="0.0"
     inkscape:pagecheckerboard="0"
     inkscape:deskcolor="#d1d1d1"
     inkscape:document-units="px"
     showgrid="false"
     inkscape:zoom="3.1484375"
     inkscape:cx="127.84119"
     inkscape:cy="128"
     inkscape:window-width="1920"
     inkscape:window-height="1008"
     inkscape:window-x="0"
     inkscape:window-y="0"
     inkscape:window-maximized="1"
     inkscape:current-layer="svg5" />
  <defs
     id="defs2" />
  <path
     id="rect234"
     style="opacity:0.2;stroke-width:4;stroke-linecap:round;stroke-linejoin:round"
     d="m 56,18 h 96 l 64,64 v 144 c 0,8.864 -7.136,16 -16,16 H 56 c -8.864,0 -16,-7.136 -16,-16 V 34 c 0,-8.864 7.136,-16 16,-16 z" />
  <path
     id="rect448"
     style="fill:#e0e0e0;fill-opacity:1;stroke-width:4;stroke-linecap:round;stroke-linejoin:round"
     d="m 56,16 h 96 l 24,40 40,24 v 144 c 0,8.864 -7.136,16 -16,16 H 56 c -8.864,0 -16,-7.136 -16,-16 V 32 c 0,-8.864 7.136,-16 16,-16 z" />
  <path
     id="path308"
     style="opacity:0.2;fill:#000000;stroke-width:4"
     d="M 95.999998,122 C 82.7454,122 72,132.74541 72,146 72,159.25459 82.7454,170 95.999998,170 109.2546,170 120,159.25459 120,146 H 95.999998 Z M 132,122 v 8 h 52 v -8 z m 0,20 v 8 h 52 v -8 z m 0,20 v 8 h 52 v -8 z m -60,24 v 8 h 80 v -8 z"
     sodipodi:nodetypes="cssccccccccccccccccccccccc" />
  <path
     id="path1705"
     style="fill:#757575;fill-opacity:1;stroke-width:4"
     d="m 132,120 v 8 h 52 v -8 z m 0,20 v 8 h 52 v -8 z m 0,20 v 8 h 52 v -8 z m -60,24 v 8 h 80 v -8 z"
     sodipodi:nodetypes="cccccccccccccccccccc" />
  <path
     d="M 95.999998,120 C 82.7454,120 72,130.7454 72,144 72,157.2546 82.7454,168 95.999998,168 109.2546,168 120,157.2546 120,144 H 95.999998 Z"
     style="fill:#ff5722;fill-opacity:1;stroke-width:4"
     id="path549"
     sodipodi:nodetypes="cssccc" />
  <path
     id="path1588"
     style="opacity:0.2;fill:#ffffff;fill-opacity:1;stroke-width:8.00002;stroke-linecap:square"
     d="m 72,144 c 0,13.25483 10.74516,24 23.999998,24 C 109.25484,168 120,157.25483 120,144 Z"
     sodipodi:nodetypes="cscc" />
  <path
     d="m 216,82 h -48 c -8.864,0 -16,-7.136 -16,-16 V 16 l 64,64 z"
     style="opacity:0.2;fill:#000000;stroke-width:4;stroke-linecap:round;stroke-linejoin:round"
     id="path611" />
  <path
     id="rect600"
     style="fill:#f5f5f5;fill-opacity:1;stroke-width:4;stroke-linecap:round;stroke-linejoin:round"
     d="m 216,80 h -48 c -8.864,0 -16,-7.136 -16,-16 V 16 Z" />
  <path
     id="path1133"
     style="opacity:0.2;fill:#ffffff;fill-opacity:1;stroke-width:4;stroke-linecap:round;stroke-linejoin:round"
     d="m 56,16 c -8.863976,0 -16,7.136026 -16,16 v 2 c 0,-8.863976 7.136024,-16 16,-16 h 96 l 62,62 h 2 L 152,16 Z" />
</svg>
