<?xml version="1.0" encoding="UTF-8" standalone="no"?>
<!-- Created with Inkscape (http://www.inkscape.org/) -->

<svg
   width="22"
   height="22"
   viewBox="0 0 22 22"
   version="1.1"
   id="svg5"
   inkscape:version="1.4.3 (0d15f75042, 2025-12-25)"
   sodipodi:docname="alligator.svg"
   xmlns:inkscape="http://www.inkscape.org/namespaces/inkscape"
   xmlns:sodipodi="http://sodipodi.sourceforge.net/DTD/sodipodi-0.dtd"
   xmlns="http://www.w3.org/2000/svg"
   xmlns:svg="http://www.w3.org/2000/svg">
  <sodipodi:namedview
     id="namedview7"
     pagecolor="#ffffff"
     bordercolor="#000000"
     borderopacity="0.25"
     inkscape:showpageshadow="2"
     inkscape:pageopacity="0.0"
     inkscape:pagecheckerboard="0"
     inkscape:deskcolor="#d1d1d1"
     inkscape:document-units="px"
     showgrid="false"
     inkscape:zoom="36.681818"
     inkscape:cx="10.986369"
     inkscape:cy="11"
     inkscape:window-width="1920"
     inkscape:window-height="1010"
     inkscape:window-x="0"
     inkscape:window-y="0"
     inkscape:window-maximized="1"
     inkscape:current-layer="svg5" />
  <defs
     id="defs2" />
  <rect
     style="opacity:0.2;fill:#000000;stroke-width:1.42857;stroke-linecap:square"
     id="rect234"
     width="20"
     height="20"
     x="1"
     y="1.4999995"
     ry="4.5" />
  <rect
     style="fill:#4d4d4d;fill-opacity:1;stroke-width:1.42857;stroke-linecap:square"
     id="rect396"
     width="20"
     height="20"
     x="1"
     y="1"
     ry="4.5" />
  <path
     id="path1040"
     style="opacity:0.1;fill:#ffffff;stroke-width:4;stroke-linecap:square"
     d="M 5.5,1.0000001 C 3.007005,1.0000001 1,3.0070051 1,5.5 V 6 C 1,3.5070051 3.007005,1.5000001 5.5,1.5000001 h 11 C 18.992996,1.5000001 21,3.5070051 21,6 V 5.5 C 21,3.0070052 18.992996,1.0000001 16.5,1.0000001 Z" />
  <path
     style="fill:#e4e4e4;stroke-width:0.5"
     d="M 9.503,5.624 9,7.5 c 2.5295,0.0925 5.07,1.3505 7,3 C 14.4695,8.238 12.078,6.3175 9.503,5.624 Z M 10,10 c 1.7025,1.1695 2.66,3.138 3.5,5 l 1.671,-0.447 C 13.8305,12.6295 12.2765,10.7875 10,10 Z"
     id="path1" />
  <path
     id="path2"
     style="opacity:0.2;fill:#000000;stroke-width:0.5"
     d="M 8.089844,3.7695312 C 7.734552,3.7787712 7.413438,4.017867 7.316406,4.379883 l -0.15625,0.5830075 c -0.1754995,0.655 0.463586,0.7756875 0.288086,1.4296875 L 6.7001955,9.184571 c -0.4505,1.015 -0.992719,1.419429 -1.949219,1.315429 -1.24265,0 -2.25,1.0075 -2.25,2.25 5.01e-5,0.2055 0.028334,0.410398 0.083984,0.608398 0.1357,0.6275 -0.018536,1.300594 -0.4755859,1.808594 L 1,16.5 C 1,18.993 3.007,21 5.5,21 H 6.9121095 L 7.264649,20.572265 c 1.9295,-2.340499 7.490734,-3.189265 11.365234,-4.759765 0.948,-0.3955 1.16525,-0.945711 0.96875,-1.678711 L 19.469726,13.651367 6.6533205,17.084961 10.087891,4.269531 8.161133,3.7705078 c -0.02394,-0.00146 -0.0476,-0.00159 -0.071289,-9.766e-4 z" />
  <path
     style="opacity:0.2;stroke-width:0.5"
     d="M 9.003,6.124 8.5,8 C 11.0295,8.0925 14.07,9.3505 16,11 14.4695,8.738 11.578,6.8175 9.003,6.124 Z M 10,10.5 c 1.7025,1.1695 3.16,3.638 4,5.5 l 1.671,-0.447 C 14.3305,13.6295 12.2765,11.2875 10,10.5 Z"
     id="path3" />
  <path
     style="fill:#e4e4e4;stroke-width:0.5"
     d="M 9.003,5.624 8.5,7.5 c 2.5295,0.0925 5.57,1.3505 7.5,3 C 14.4695,8.238 11.578,6.3175 9.003,5.624 Z M 10,10 c 1.7025,1.1695 3.16,3.638 4,5.5 l 1.671,-0.447 C 14.3305,13.1295 12.2765,10.7875 10,10 Z"
     id="path4" />
  <path
     id="path5"
     style="fill:#4bae4f;stroke-width:0.5"
     d="M 8.089844,3.2695312 C 7.734552,3.2787812 7.413438,3.5180547 7.316406,3.8798828 l -0.15625,0.5830077 c -0.1754995,0.655 0.463586,0.7756875 0.288086,1.4296875 L 6.7001955,8.684571 C 6.2496955,9.699571 5.7074765,10.104 4.7509765,10 c -1.24265,0 -2.25,1.0075 -2.25,2.25 5.01e-5,0.2055 0.028334,0.410398 0.083984,0.608399 0.1357,0.627499 -0.018486,1.300593 -0.4755859,1.808593 L 1,16 v 0.5 C 1,18.993 3.007,21 5.5,21 h 1 l 0.764649,-0.927735 c 1.9295,-2.340499 7.490734,-3.189265 11.365234,-4.759765 0.948,-0.3955 1.16525,-0.945711 0.96875,-1.678711 L 19.469726,13.151367 6.6533205,16.584961 10.087891,3.7695312 8.161133,3.2705078 c -0.02394,-0.00146 -0.0476,-0.00159 -0.071289,-9.766e-4 z" />
  <circle
     style="fill:#e4e4e4;stroke-width:0.5"
     cx="4.75"
     cy="12.25"
     r="1.75"
     id="circle5" />
  <path
     style="fill:#79de7d;stroke-width:0.5"
     d="M 9.603785,3.639648 5.1702895,17.456053 h 0.001 c -0.04357,0.162728 -0.002,0.336453 0.1103485,0.461915 0.125649,0.139972 0.319347,0.197366 0.500966,0.148437 v 0.002 L 19.597704,13.633809 19.468801,13.151387 6.6526785,16.584981 10.087173,3.7695515 Z"
     id="path6" />
  <circle
     style="fill:#4f4f4f;stroke-width:0.5"
     cx="5.25"
     cy="11.75"
     r="0.75"
     id="circle6" />
  <path
     style="fill:#3c8b3f;stroke-width:0.5"
     d="M 8.0275,3.5 A 0.5273,0.49999 0 0 0 7.5,4.0005 0.5273,0.49999 0 0 0 7.8925,4.4825 0.5273,0.49999 0 0 1 7.8195,4.2305 0.5273,0.49999 0 0 1 8.3465,3.73055 0.5273,0.49999 0 0 1 8.4815,3.74815 0.5273,0.49999 0 0 0 8.0275,3.5 Z"
     id="path7" />
</svg>
