<?xml version="1.0" encoding="UTF-8" standalone="no"?>
<!-- Created with Inkscape (http://www.inkscape.org/) -->

<svg
   width="22"
   height="22"
   viewBox="0 0 22 22"
   version="1.1"
   id="svg5"
   inkscape:version="1.4 (e7c3feb100, 2024-10-09)"
   sodipodi:docname="application-default-icon.svg"
   xmlns:inkscape="http://www.inkscape.org/namespaces/inkscape"
   xmlns:sodipodi="http://sodipodi.sourceforge.net/DTD/sodipodi-0.dtd"
   xmlns="http://www.w3.org/2000/svg"
   xmlns:svg="http://www.w3.org/2000/svg">
  <sodipodi:namedview
     id="namedview7"
     pagecolor="#ffffff"
     bordercolor="#000000"
     borderopacity="0.25"
     inkscape:showpageshadow="2"
     inkscape:pageopacity="0.0"
     inkscape:pagecheckerboard="0"
     inkscape:deskcolor="#d1d1d1"
     inkscape:document-units="px"
     showgrid="false"
     inkscape:zoom="36.636364"
     inkscape:cx="10.972705"
     inkscape:cy="11"
     inkscape:window-width="1920"
     inkscape:window-height="1011"
     inkscape:window-x="0"
     inkscape:window-y="0"
     inkscape:window-maximized="1"
     inkscape:current-layer="svg5" />
  <defs
     id="defs2" />
  <rect
     style="opacity:0.2;fill:#000000;stroke-width:1.42857;stroke-linecap:square"
     id="rect234"
     width="20"
     height="20"
     x="1"
     y="1.5"
     ry="4.5" />
  <rect
     style="fill:#4f4f4f;fill-opacity:1;stroke-width:1.42857;stroke-linecap:square"
     id="rect396"
     width="20"
     height="20"
     x="1"
     y="1"
     ry="4.5" />
  <path
     style="opacity:0.2;fill:#000000;stroke-width:0.5"
     d="M 12.495193,4.549261 C 11.735233,4.3456305 10.959106,4.793728 10.755475,5.5536875 10.648292,5.9537025 10.39437,6.1253025 9.818196,6.3180815 9.107629,6.555826 8.6385725,6.6280805 8.2386595,6.2281685 7.682331,5.6718395 6.786462,5.672209 6.230133,6.2285395 l -0.502402,0.501595 c -0.556329,0.5563295 -0.555959,1.452198 3.71e-4,2.0085265 0.2784705,0.278471 0.2525375,0.796945 0.127626,1.383057 -0.159237,0.747174 -0.205892,0.974208 -0.8020555,1.13395 -0.7599595,0.20363 -1.2082142,0.97929 -1.0045835,1.73925 l 0.1842945,0.685596 c 0.2036305,0.759959 0.979291,1.208214 1.73925,1.004584 0.5217265,-0.139796 0.7959145,0.129011 1.2202245,0.532896 0.570675,0.543205 0.755929,0.810402 0.622161,1.309628 -0.20363,0.75996 0.2444675,1.536088 1.0044265,1.739718 l 0.3426885,0.09182 0.342688,0.09182 c 0.759959,0.203631 1.536087,-0.244467 1.739717,-1.004426 0.133767,-0.499227 0.4278,-0.637999 1.193622,-0.823091 0.569406,-0.13762 0.941263,-0.23332 1.323193,0.14861 0.556329,0.556329 1.452198,0.555959 2.008527,-3.85e-4 l 0.502402,-0.501596 c 0.556329,-0.55633 0.55596,-1.452198 -3.85e-4,-2.008527 -0.436422,-0.436422 -0.36331,-0.656366 -0.127626,-1.383057 0.18488,-0.570043 0.421658,-1.032022 0.802056,-1.133949 0.75996,-0.20363 1.208214,-0.97929 1.004583,-1.73925 L 17.766631,9.319728 C 17.563,8.559774 16.78734,8.1115195 16.02738,8.31515 15.48109,8.461528 15.111002,8.1644255 14.614506,7.603249 14.211914,7.14821 14.077811,6.87264 14.184995,6.4726245 14.388625,5.712665 13.940528,4.9365375 13.180569,4.732907 L 12.837881,4.641084 Z"
     id="path1207" />
  <path
     style="fill:#6f8e9d;stroke-width:0.5;fill-opacity:1"
     d="M 12.495193,4.0492235 C 11.735233,3.8455929 10.959106,4.2936905 10.755475,5.05365 10.648292,5.453665 10.39437,5.625265 9.818196,5.818044 9.107629,6.0557885 8.6385725,6.128043 8.2386595,5.728131 7.682331,5.171802 6.786462,5.1721715 6.230133,5.728502 L 5.727731,6.230097 C 5.171402,6.7864265 5.171772,7.682295 5.728102,8.2386235 6.0065725,8.517094 5.9806395,9.035569 5.855728,9.621681 5.696491,10.368854 5.649836,10.595889 5.0536725,10.75563 4.293713,10.95926 3.8454583,11.73492 4.049089,12.49488 l 0.1842945,0.685596 c 0.2036305,0.75996 0.979291,1.208214 1.73925,1.004584 0.5217265,-0.139796 0.7959145,0.129012 1.2202245,0.532897 0.570675,0.543204 0.755929,0.810401 0.622161,1.309628 -0.20363,0.75996 0.2444675,1.536087 1.0044265,1.739717 l 0.3426885,0.09182 0.342688,0.09182 c 0.759959,0.20363 1.536087,-0.244467 1.739717,-1.004427 0.133767,-0.499227 0.4278,-0.637999 1.193622,-0.823091 0.569406,-0.13762 0.941263,-0.23332 1.323193,0.14861 0.556329,0.556329 1.452198,0.55596 2.008527,-3.85e-4 l 0.502402,-0.501596 c 0.556329,-0.556329 0.55596,-1.452198 -3.85e-4,-2.008526 -0.436422,-0.436422 -0.36331,-0.656367 -0.127626,-1.383057 0.18488,-0.570043 0.421658,-1.032022 0.802056,-1.133949 0.75996,-0.203631 1.208214,-0.979291 1.004583,-1.739251 L 17.766631,8.819696 C 17.563,8.0597365 16.78734,7.611482 16.02738,7.8151125 15.48109,7.9614905 15.111002,7.664388 14.614506,7.103211 14.211914,6.6481725 14.077811,6.3726025 14.184995,5.972587 14.388625,5.2126275 13.940528,4.4365 13.180569,4.2328695 l -0.342688,-0.091823 z"
     id="path1209" />
  <circle
     style="opacity:0.2;fill:#000000;stroke-width:2;stroke-linecap:square"
     id="path1488"
     cx="11"
     cy="11.500123"
     r="3" />
  <circle
     style="fill:#ffffff;stroke-width:2;stroke-linecap:square"
     id="path1490"
     cx="11"
     cy="11.000086"
     r="3" />
  <path
     style="opacity:0.1;fill:#ffffff;stroke-width:0.5"
     d="M 12.070313,4.0010625 C 11.464734,4.0244775 10.921309,4.43633 10.75586,5.053797 10.648676,5.453812 10.394534,5.6256665 9.81836,5.8184455 9.107793,6.0561905 8.6381945,6.1285135 8.238281,5.7286015 c -0.556328,-0.556329 -1.451483,-0.5563305 -2.0078125,0 L 5.727539,6.230555 C 5.385123,6.572971 5.254784,7.043128 5.3339845,7.484461 5.3832145,7.2084625 5.513418,6.944676 5.727539,6.730555 L 6.2304685,6.2286015 c 0.5563295,-0.5563305 1.4514845,-0.556329 2.0078125,0 0.3999135,0.399912 0.869512,0.3275885 1.580079,0.089844 0.576174,-0.192779 0.830316,-0.3646335 0.9375,-0.7646485 0.20363,-0.7599595 0.979298,-1.2085135 1.739257,-1.004883 l 0.342774,0.091797 0.342773,0.091797 c 0.550864,0.1476035 0.936568,0.59706 1.030274,1.1220705 C 14.340809,5.133926 13.901227,4.425582 13.180664,4.232508 L 12.837891,4.140711 12.495117,4.048914 C 12.352625,4.010734 12.210062,3.995659 12.070313,4.001064 Z m 2.118164,2.4521485 c -0.0017,0.00649 -0.0022,0.01305 -0.0039,0.01953 -0.107184,0.400015 0.02709,0.675821 0.429687,1.1308595 0.496496,0.561177 0.866795,0.858292 1.413086,0.711914 0.759959,-0.2036305 1.535627,0.243947 1.739258,1.0039065 l 0.18457,0.685547 c 0.01056,0.03938 0.01829,0.07878 0.02539,0.118164 0.03547,-0.199064 0.03058,-0.409267 -0.02539,-0.618164 L 17.766602,8.819422 C 17.562971,8.0594625 16.787303,7.611885 16.027344,7.8155155 15.481054,7.9618935 15.110755,7.6647785 14.614258,7.1036015 14.38831,6.8482185 14.250095,6.6492605 14.188477,6.453211 Z M 5.928711,9.185633 C 5.913176,9.324609 5.887626,9.471275 5.8554685,9.622156 5.696232,10.36933 5.6498745,10.596204 5.053711,10.755945 4.333136,10.949023 3.8935598,11.656418 4.0234375,12.377039 4.117011,11.851919 4.5026485,11.403602 5.053711,11.255945 5.6498745,11.096204 5.696232,10.86933 5.8554685,10.122156 5.929701,9.773842 5.967505,9.449996 5.928711,9.185633 Z m 10.068359,4.18457 c -0.08905,0.368352 -0.04378,0.573405 0.274414,0.891602 0.213919,0.213913 0.345051,0.478198 0.394531,0.753906 0.07868,-0.441101 -0.05231,-0.911698 -0.394531,-1.253906 -0.145429,-0.14543 -0.229306,-0.267487 -0.274414,-0.391602 z m -8.1787105,2.644531 c -0.00115,0.0044 -0.0017,0.0082 -0.00295,0.0127 -0.056027,0.209096 -0.061936,0.418881 -0.026365,0.618164 0.0071,-0.0394 0.01581,-0.07877 0.026365,-0.118164 0.052705,-0.196696 0.053334,-0.356966 0.00295,-0.512695 z"
     id="path1215" />
  <path
     id="path1040"
     style="opacity:0.1;fill:#ffffff;stroke-width:4;stroke-linecap:square"
     d="M 5.5,1 C 3.0070049,1 1,3.0070048 1,5.5 V 6 C 1,3.5070048 3.0070049,1.5 5.5,1.5 h 11 C 18.992996,1.5 21,3.5070048 21,6 V 5.5 C 21,3.0070048 18.992996,1 16.5,1 Z" />
</svg>
