<?xml version="1.0" encoding="UTF-8" standalone="no"?>
<!-- Created with Inkscape (http://www.inkscape.org/) -->

<svg
   width="22"
   height="22"
   viewBox="0 0 22 22"
   version="1.1"
   id="svg5"
   inkscape:version="1.4 (e7c3feb100, 2024-10-09)"
   sodipodi:docname="com.github.maoschanz.drawing.svg"
   xmlns:inkscape="http://www.inkscape.org/namespaces/inkscape"
   xmlns:sodipodi="http://sodipodi.sourceforge.net/DTD/sodipodi-0.dtd"
   xmlns="http://www.w3.org/2000/svg"
   xmlns:svg="http://www.w3.org/2000/svg">
  <sodipodi:namedview
     id="namedview7"
     pagecolor="#ffffff"
     bordercolor="#000000"
     borderopacity="0.25"
     inkscape:showpageshadow="2"
     inkscape:pageopacity="0.0"
     inkscape:pagecheckerboard="0"
     inkscape:deskcolor="#d1d1d1"
     inkscape:document-units="px"
     showgrid="false"
     inkscape:zoom="35.727273"
     inkscape:cx="11"
     inkscape:cy="11"
     inkscape:window-width="1920"
     inkscape:window-height="1011"
     inkscape:window-x="0"
     inkscape:window-y="0"
     inkscape:window-maximized="1"
     inkscape:current-layer="svg5" />
  <defs
     id="defs2" />
  <rect
     style="opacity:0.2;fill:#000000;stroke-width:1.42857;stroke-linecap:square"
     id="rect234"
     width="20"
     height="20"
     x="1"
     y="1.5"
     ry="4.5" />
  <rect
     style="fill:#4d4d4d;fill-opacity:1;stroke-width:1.42857;stroke-linecap:square"
     id="rect396"
     width="20"
     height="20"
     x="1"
     y="1"
     ry="4.5" />
  <rect
     style="opacity:0.2;fill:#000000;stroke-width:1;stroke-linecap:round;stroke-linejoin:round"
     id="rect5067"
     width="20"
     height="0.5"
     x="1"
     y="6" />
  <path
     id="rect5065"
     style="opacity:1;fill:#565064;fill-opacity:1;stroke-width:1;stroke-linecap:round;stroke-linejoin:round"
     d="M 5.5,1 C 3.0070025,1 1,3.0070025 1,5.5 V 6 H 21 V 5.5 C 21,3.0070025 18.992998,1 16.5,1 Z" />
  <path
     id="path1040"
     style="opacity:0.1;fill:#ffffff;stroke-width:4;stroke-linecap:square"
     d="M 5.5,1 C 3.007005,1 1,3.007005 1,5.5 V 6 C 1,3.507005 3.007005,1.5 5.5,1.5 h 11 C 18.992996,1.5 21,3.507005 21,6 V 5.5 C 21,3.007005 18.992996,1 16.5,1 Z" />
  <path
     style="color:#000000;fill:#ff4e4a;stroke-width:0.5;stroke-linecap:round;-inkscape-stroke:none"
     d="m 3.1605031,9.026367 a 0.5,0.5 0 0 0 -0.6347655,0.3125 0.5,0.5 0 0 0 0.3125,0.634766 c 0.513706,0.174345 0.5684695,0.312599 0.611328,0.532227 0.04286,0.219627 -0.02526,0.592601 -0.092773,1.019531 -0.067511,0.426929 -0.133911,0.972435 0.213867,1.450195 0.347778,0.47776 0.980035,0.707144 1.955078,0.769531 0.412972,0.02642 0.6585155,0.173076 0.866211,0.402344 0.207696,0.229268 0.3604555,0.560233 0.456055,0.909179 0.191199,0.697895 0.1523435,1.41211 0.1523435,1.41211 a 0.5,0.5 0 0 0 0.4677735,0.530273 0.5,0.5 0 0 0 0.5302735,-0.467773 c 0,0 0.058671,-0.844275 -0.1865235,-1.739258 C 7.6892731,14.344501 7.4898161,13.870263 7.1331596,13.476563 6.7765031,13.082862 6.2457656,12.789017 5.5901911,12.747071 4.7470251,12.693121 4.4623116,12.501796 4.3792536,12.387696 4.2961951,12.273594 4.2848596,12.056252 4.3440986,11.681641 4.4033366,11.307029 4.5336091,10.840202 4.4310126,10.314453 4.3284166,9.788705 3.8942466,9.275389 3.1605047,9.026367 Z"
     id="path5" />
  <path
     style="opacity:0.1;fill:#000000;stroke-width:0.5"
     d="M 19.562847,2.5009765 C 19.40447,2.489863 19.219638,2.5465415 19.035503,2.755859 L 8.0901911,13.6875 8.3626516,13.959961 6.9993706,16.955078 7.5442926,17.5 10.544293,16.138672 10.816754,16.411133 21.779644,5.461914 C 22.316622,4.9256275 21.700542,4.40625 21.700542,4.40625 L 20.018901,2.7265625 c 0,0 -0.192092,-0.2070635 -0.456054,-0.225586 z"
     id="path6" />
  <path
     style="fill:#ff4e4a;stroke-width:0.5"
     d="M 10.816696,15.910739 8.0900341,13.187591 19.035677,2.2560504 c 0.491026,-0.5581797 0.982828,-0.029806 0.982828,-0.029806 L 21.70034,3.905911 c 0,0 0.616316,0.5196855 0.07934,1.055972 z"
     id="path7" />
  <rect
     style="fill:#3d3846;stroke-width:0.5"
     width="3.8534999"
     height="0.7705"
     x="-18.899118"
     y="9.4866858"
     transform="matrix(-0.70756248,-0.70665079,0.70756248,-0.70665079,0,0)"
     id="rect7" />
  <rect
     style="fill:#3d3846;stroke-width:0.5"
     width="3.8534999"
     height="0.7705"
     x="-18.899118"
     y="-1.3033144"
     transform="matrix(-0.70756248,-0.70665079,0.70756248,-0.70665079,0,0)"
     id="rect8" />
  <path
     style="fill:#c02924;stroke-width:0.5"
     d="M 10.544031,15.638425 8.3627016,13.459907 6.9993706,16.45537 7.5447031,17 Z"
     id="path8" />
  <path
     style="fill:#3d3846;stroke-width:0.5"
     d="M 12.452697,8.830682 A 0.96339865,1.9267999 45.06156 0 0 14.497693,8.149895 0.96339865,1.9267999 45.06156 0 0 15.179359,6.1075335 Z"
     id="path9" />
</svg>
