<?xml version="1.0" encoding="UTF-8" standalone="no"?>
<!-- Created with Inkscape (http://www.inkscape.org/) -->

<svg
   width="22"
   height="22"
   viewBox="0 0 22 22"
   version="1.1"
   id="svg5"
   inkscape:version="1.4 (e7c3feb100, 2024-10-09)"
   sodipodi:docname="google-maps.svg"
   xmlns:inkscape="http://www.inkscape.org/namespaces/inkscape"
   xmlns:sodipodi="http://sodipodi.sourceforge.net/DTD/sodipodi-0.dtd"
   xmlns="http://www.w3.org/2000/svg"
   xmlns:svg="http://www.w3.org/2000/svg">
  <sodipodi:namedview
     id="namedview7"
     pagecolor="#ffffff"
     bordercolor="#000000"
     borderopacity="0.25"
     inkscape:showpageshadow="2"
     inkscape:pageopacity="0.0"
     inkscape:pagecheckerboard="0"
     inkscape:deskcolor="#d1d1d1"
     inkscape:document-units="px"
     showgrid="false"
     inkscape:zoom="36.136364"
     inkscape:cx="10.986163"
     inkscape:cy="11.013836"
     inkscape:window-width="1920"
     inkscape:window-height="1011"
     inkscape:window-x="0"
     inkscape:window-y="0"
     inkscape:window-maximized="1"
     inkscape:current-layer="svg5" />
  <defs
     id="defs2" />
  <rect
     style="opacity:0.2;fill:#000000;stroke-width:1.42857;stroke-linecap:square"
     id="rect234"
     width="20"
     height="20"
     x="1"
     y="1.5"
     ry="4.5" />
  <rect
     style="fill:#4f4f4f;fill-opacity:1;stroke-width:1.42857;stroke-linecap:square"
     id="rect396"
     width="20"
     height="20"
     x="1"
     y="1"
     ry="4.5" />
  <path
     style="opacity:0.2;stroke-width:0.5"
     d="m 11,4.5 c -2.76,0 -5,2.24 -5,5 0,3.5 4.549,6.7695 4.5,8.5 0,0 0,0.505 0.5,0.5 0.51,0 0.5,-0.5 0.5,-0.5 0,-1.75 4.5,-5 4.5,-8.5 0,-2.76 -2.24,-5 -5,-5 z"
     id="path1" />
  <path
     style="fill:#0079e1;stroke-width:0.5"
     d="M 12.463,4.21875 C 12,4.07715 11.509,4 11,4 9.457,4 8.0775,4.70105 7.16015,5.8008 L 11,10.5 Z"
     id="path2" />
  <path
     style="fill:#00a85c;stroke-width:0.5"
     d="M 15.499,6.8301 11,9 8.8225,14.62 c 0.914,1.1605 1.698,2.159 1.6775,2.88 0,0 0,0.505 0.5,0.5 0.51,0 0.5,-0.5 0.5,-0.5 0,-1.188 2.0715,-3.068 3.4035,-5.247 C 15.5335,11.2215 16,10.124 16,9 16,8.2215 15.817,7.48725 15.499,6.8301 Z"
     id="path3" />
  <path
     style="fill:#008bed;stroke-width:0.5"
     d="M 15.499,6.8301 C 14.898,5.58715 13.8015,4.62835 12.463,4.21875 l -3,3.5 3.076,2.56425 z"
     id="path4" />
  <path
     style="fill:#fa373c;stroke-width:0.5"
     d="M 9.463,7.71875 7.16015,5.8008 C 6.43665,6.6681 6,7.78305 6,9 c 0,0.732 0.2062,1.4525 0.5205,2.1525 z"
     id="path5" />
  <path
     style="fill:#ffb83f;stroke-width:0.5"
     d="M 12.539,10.283 9.463,7.71875 6.5205,11.1525 c 0.56245,1.2525 1.4805,2.425 2.302,3.4675 z"
     id="path6" />
  <path
     style="opacity:0.2;fill:#ffffff;stroke-width:0.5"
     d="M 11,4 C 8.24,4 6,6.24 6,9 6,9.0735 6.00485,9.1465 6.0088,9.2195 6.15455,6.59015 8.334,4.5 11,4.5 c 2.666,0 4.8455,2.09015 4.991,4.7195 C 15.995,9.1465 16,9.0735 16,9 16,6.24 13.76,4 11,4 Z"
     id="path7" />
  <circle
     style="opacity:0.2;fill:#000000;stroke-width:0.666665"
     id="path8"
     cx="11"
     cy="9.5"
     r="2" />
  <circle
     style="fill:#4f4f4f;stroke-width:0.666665;fill-opacity:1"
     id="path9"
     cx="11"
     cy="9"
     r="2" />
  <path
     id="path1040"
     style="opacity:0.1;fill:#ffffff;stroke-width:4;stroke-linecap:square"
     d="M 5.5,1 C 3.007005,1 1,3.007005 1,5.5 V 6 C 1,3.507005 3.007005,1.5 5.5,1.5 h 11 C 18.992996,1.5 21,3.507005 21,6 V 5.5 C 21,3.007005 18.992996,1 16.5,1 Z" />
</svg>
