<?xml version="1.0" encoding="UTF-8" standalone="no"?>
<!-- Created with Inkscape (http://www.inkscape.org/) -->

<svg
   width="22"
   height="22"
   viewBox="0 0 22 22"
   version="1.1"
   id="svg5"
   inkscape:version="1.4 (e7c3feb100, 2024-10-09)"
   sodipodi:docname="maps.svg"
   xmlns:inkscape="http://www.inkscape.org/namespaces/inkscape"
   xmlns:sodipodi="http://sodipodi.sourceforge.net/DTD/sodipodi-0.dtd"
   xmlns="http://www.w3.org/2000/svg"
   xmlns:svg="http://www.w3.org/2000/svg">
  <sodipodi:namedview
     id="namedview7"
     pagecolor="#ffffff"
     bordercolor="#000000"
     borderopacity="0.25"
     inkscape:showpageshadow="2"
     inkscape:pageopacity="0.0"
     inkscape:pagecheckerboard="0"
     inkscape:deskcolor="#d1d1d1"
     inkscape:document-units="px"
     showgrid="false"
     inkscape:zoom="35.727273"
     inkscape:cx="11"
     inkscape:cy="11"
     inkscape:window-width="1920"
     inkscape:window-height="1011"
     inkscape:window-x="0"
     inkscape:window-y="0"
     inkscape:window-maximized="1"
     inkscape:current-layer="svg5" />
  <defs
     id="defs2" />
  <rect
     style="opacity:0.2;fill:#000000;stroke-width:1.42857;stroke-linecap:square"
     id="rect234"
     width="20"
     height="20"
     x="1"
     y="1.4999995"
     ry="4.5" />
  <rect
     style="fill:#3f3f3f;fill-opacity:1;stroke-width:1.42857;stroke-linecap:square"
     id="rect396"
     width="20"
     height="20"
     x="1"
     y="1"
     ry="4.5" />
  <path
     id="path2"
     style="opacity:0.1;fill:#000000"
     d="M 2.4550781 2.1875 C 1.9459169 2.6555339 1.547065 3.2389468 1.296875 3.8984375 L 17.853516 20.794922 C 18.533767 20.582149 19.141097 20.210565 19.638672 19.726562 L 12.414062 12.357422 L 20.703125 3.8984375 C 20.452935 3.2389468 20.054083 2.6555339 19.544922 2.1875 L 11 10.908203 L 2.4550781 2.1875 z " />
  <path
     id="path3"
     style="fill:#2a2a2a;fill-opacity:1"
     d="M 2.7226562 1.9589844 C 2.1834569 2.3818883 1.747017 2.9262594 1.4472656 3.5507812 L 18.212891 20.662109 C 18.858512 20.397366 19.425864 19.985981 19.878906 19.470703 L 12.414062 11.857422 L 20.554688 3.5507812 C 20.254928 2.9259423 19.816761 2.3820589 19.277344 1.9589844 L 11 10.408203 L 2.7226562 1.9589844 z " />
  <path
     id="path4"
     style="fill:#f64d4d"
     d="M 19.662109 2.2929688 L 10.646484 11.494141 C 10.451658 11.694347 10.451658 12.020495 10.646484 12.220703 L 12.751953 14.392578 C 12.639408 13.876658 12.558594 13.46875 12.558594 13.46875 C 12.558594 13.46875 12.956575 13.550724 13.458984 13.666016 L 11.707031 11.857422 L 20.298828 3.0878906 C 20.115883 2.7996307 19.903998 2.5314669 19.662109 2.2929688 z " />
  <path
     style="fill:#6a6a6a;fill-opacity:1"
     d="m 1.0000088,9.160859 v 2.092487 c 0.060488,0.01591 0.1203062,0.03297 0.1788,0.0522 0.4307849,0.14164 0.8219639,0.3761 1.1138806,0.675766 0.4744035,0.486997 0.7975408,1.283275 1.1490203,2.203789 0.3557321,0.931653 0.7848703,2.053346 1.7474308,2.895985 0.9606145,0.840935 2.1311545,1.109152 3.1514735,1.251359 1.010344,0.140811 1.916393,0.183297 2.657707,0.41765 0.696601,0.220221 1.349749,0.628964 1.874553,1.164966 0.312012,0.318665 0.580839,0.686686 0.801241,1.084934 h 2.205022 C 15.528333,20.055092 14.990313,19.183 14.284152,18.461773 13.534495,17.696121 12.609614,17.112736 11.58743,16.789585 10.509052,16.44867 9.486335,16.422014 8.6098465,16.299854 7.743334,16.179086 6.975488,15.947697 6.487763,15.520737 5.9971125,15.091214 5.6450875,14.330246 5.3041195,13.43726 4.958899,12.533136 4.583568,11.430972 3.7075834,10.531735 3.1596938,9.969301 2.4897899,9.582841 1.7891042,9.352458 1.5273041,9.266379 1.2633512,9.205126 1.0000088,9.160859 Z"
     id="path5" />
  <path
     id="path6"
     style="fill:#194764;fill-opacity:1"
     d="M 1 10.201172 L 1 16.5 C 1 18.992998 3.0070025 21 5.5 21 L 14.796875 21 C 14.499158 20.328199 14.087815 19.708065 13.578125 19.1875 C 12.940896 18.536674 12.15236 18.041218 11.292969 17.769531 C 10.383124 17.481896 9.4199776 17.447894 8.4765625 17.316406 C 7.5331474 17.18492 6.5620594 16.934728 5.8378906 16.300781 C 5.1112859 15.664701 4.721397 14.724818 4.3730469 13.8125 C 4.0246967 12.900181 3.6751933 11.950929 3 11.257812 C 2.5800973 10.826764 2.0501098 10.516089 1.484375 10.330078 C 1.3255217 10.277847 1.1634294 10.234595 1 10.201172 z " />
  <path
     style="opacity:0.1;fill:#000000"
     d="m 13,14.5 c 0,0 0.655818,3.584514 1.464474,4.393297 0.808724,0.808863 2.120016,0.808947 2.928844,1.9e-4 0.808909,-0.808827 0.808909,-2.12031 0,-2.929138 C 16.58449,15.155591 13,14.5 13,14.5 Z"
     id="path7" />
  <path
     style="fill:#f64d4d"
     d="m 13,14 c 0,0 0.655818,3.584514 1.464474,4.393297 0.808724,0.808863 2.120016,0.808947 2.928844,1.9e-4 0.808909,-0.808827 0.808909,-2.12031 0,-2.929138 C 16.58449,14.655591 13,14 13,14 Z"
     id="path8" />
  <path
     style="opacity:0.1;fill:#000000"
     d="m 1,10.201172 v 0.5 c 0.1634296,0.03343 0.3255215,0.0757 0.484375,0.12793 0.5657353,0.186011 1.0957219,0.496685 1.515625,0.927734 0.675194,0.693117 1.0246965,1.642368 1.373047,2.554688 0.3483505,0.912318 0.7392145,1.853176 1.46582,2.489257 0.7241695,0.633948 1.693303,0.884139 2.636719,1.015625 0.943416,0.131488 1.907537,0.165489 2.817383,0.453125 0.859391,0.271687 1.647926,0.768118 2.285156,1.418945 0.380445,0.388563 0.706201,0.83221 0.970703,1.311524 h 0.248047 C 14.499158,20.328198 14.087816,19.709042 13.578125,19.188476 12.940895,18.537649 12.152361,18.041218 11.292969,17.769531 10.383123,17.481895 9.419002,17.447894 8.475586,17.316406 7.53217,17.18492 6.5630365,16.934728 5.838867,16.300781 5.1122615,15.6647 4.7213975,14.723843 4.373047,13.811524 4.0246965,12.899204 3.675194,11.949953 3,11.256836 2.5800969,10.825787 2.0501104,10.515113 1.484375,10.329102 1.3255215,10.276871 1.1634296,10.234595 1,10.201172 Z"
     id="path9" />
  <ellipse
     style="fill:#eff0f1;fill-opacity:1;stroke-linecap:round;stroke-linejoin:round"
     id="path11"
     cx="16.000128"
     cy="17.000561"
     rx="0.9999823"
     ry="1.0000178" />
  <path
     id="path1040"
     style="opacity:0.1;fill:#ffffff;stroke-width:4;stroke-linecap:square"
     d="M 5.5,1.0000001 C 3.007005,1.0000001 1,3.0070051 1,5.5 V 6 C 1,3.5070051 3.007005,1.5000001 5.5,1.5000001 h 11 C 18.992996,1.5000001 21,3.5070051 21,6 V 5.5 C 21,3.0070052 18.992996,1.0000001 16.5,1.0000001 Z" />
</svg>
