<?xml version="1.0" encoding="UTF-8" standalone="no"?>
<!-- Created with Inkscape (http://www.inkscape.org/) -->

<svg
   width="22"
   height="22"
   viewBox="0 0 22 22"
   version="1.1"
   id="svg5"
   inkscape:version="1.2.2 (1:1.2.2+202305151914+b0a8486541)"
   sodipodi:docname="preferences-system-network.svg"
   xmlns:inkscape="http://www.inkscape.org/namespaces/inkscape"
   xmlns:sodipodi="http://sodipodi.sourceforge.net/DTD/sodipodi-0.dtd"
   xmlns="http://www.w3.org/2000/svg"
   xmlns:svg="http://www.w3.org/2000/svg">
  <sodipodi:namedview
     id="namedview7"
     pagecolor="#ffffff"
     bordercolor="#000000"
     borderopacity="0.25"
     inkscape:showpageshadow="2"
     inkscape:pageopacity="0.0"
     inkscape:pagecheckerboard="0"
     inkscape:deskcolor="#d1d1d1"
     inkscape:document-units="px"
     showgrid="false"
     inkscape:zoom="36.636364"
     inkscape:cx="10.986352"
     inkscape:cy="11"
     inkscape:window-width="1920"
     inkscape:window-height="1008"
     inkscape:window-x="0"
     inkscape:window-y="0"
     inkscape:window-maximized="1"
     inkscape:current-layer="svg5" />
  <defs
     id="defs2" />
  <rect
     style="opacity:0.2;fill:#000000;stroke-width:1.42857;stroke-linecap:square"
     id="rect234"
     width="20"
     height="20"
     x="1"
     y="1.4999995"
     ry="4.5" />
  <rect
     style="fill:#4f4f4f;fill-opacity:1;stroke-width:1.42857;stroke-linecap:square"
     id="rect396"
     width="20"
     height="20"
     x="1"
     y="1"
     ry="4.5" />
  <path
     style="opacity:0.2;stroke-width:0.5"
     d="m 8,17.5 -1,-1 H 5 c -0.554,0 -1,-0.446001 -1,-1 v -9 c 0,-0.554 0.446,-1 1,-1 h 12 c 0.554,0 1,0.446 1,1 v 9 c 0,0.553999 -0.446,1 -1,1 h -2 l -1,1 z"
     id="path6357" />
  <path
     style="fill:#e4e4e4;fill-opacity:1;stroke-width:0.5"
     d="M 8,17 7,16 H 5 C 4.446,16 4,15.553999 4,15 V 6 C 4,5.446 4.446,5 5,5 h 12 c 0.554,0 1,0.446 1,1 v 9 c 0,0.553999 -0.446,1 -1,1 h -2 l -1,1 z"
     id="path6359" />
  <path
     style="fill:#5d5d5d;fill-opacity:1;stroke-width:0.5"
     d="M 9,15 8,14 H 6 V 7 h 10 v 7 h -2 l -1,1 z"
     id="path6361" />
  <path
     id="rect6363"
     style="fill:#f8c44e"
     d="M 7,7 V 8.999999 H 8 V 7 Z m 2,0 v 1.999999 h 1 V 7 Z m 2,0 v 1.999999 h 1 V 7 Z m 2,0 v 1.999999 h 1 V 7 Z" />
  <path
     style="opacity:0.2;fill:#ffffff;stroke-width:0.5"
     d="M 5,5 C 4.446,5 4,5.446 4,6 v 0.5 c 0,-0.554 0.446,-1 1,-1 h 12 c 0.554,0 1,0.446 1,1 V 6 C 18,5.446 17.554,5 17,5 Z"
     id="path6375" />
  <path
     style="opacity:0.2;fill:#ffffff;stroke-width:0.5"
     d="m 6,14 v 0.5 h 2 l 1,1 h 4 l 1,-1 h 2 V 14 h -2 l -1,1 H 9 L 8,14 Z"
     id="path6377" />
  <path
     id="path1040"
     style="opacity:0.1;fill:#ffffff;stroke-width:4;stroke-linecap:square"
     d="M 5.5,1.0000001 C 3.007005,1.0000001 1,3.0070051 1,5.5 V 6 C 1,3.5070051 3.007005,1.5000001 5.5,1.5000001 h 11 C 18.992996,1.5000001 21,3.5070051 21,6 V 5.5 C 21,3.0070052 18.992996,1.0000001 16.5,1.0000001 Z" />
</svg>
