<?xml version="1.0" encoding="UTF-8" standalone="no"?>
<!-- Created with Inkscape (http://www.inkscape.org/) -->

<svg
   width="24"
   height="24"
   viewBox="0 0 24 24"
   version="1.1"
   id="svg5"
   inkscape:version="1.4.3 (0d15f75042, 2025-12-25)"
   sodipodi:docname="system-shutdown.svg"
   xmlns:inkscape="http://www.inkscape.org/namespaces/inkscape"
   xmlns:sodipodi="http://sodipodi.sourceforge.net/DTD/sodipodi-0.dtd"
   xmlns="http://www.w3.org/2000/svg"
   xmlns:svg="http://www.w3.org/2000/svg">
  <sodipodi:namedview
     id="namedview7"
     pagecolor="#ffffff"
     bordercolor="#000000"
     borderopacity="0.25"
     inkscape:showpageshadow="2"
     inkscape:pageopacity="0.0"
     inkscape:pagecheckerboard="0"
     inkscape:deskcolor="#d1d1d1"
     inkscape:document-units="px"
     showgrid="false"
     inkscape:zoom="33.625"
     inkscape:cx="11.98513"
     inkscape:cy="12"
     inkscape:window-width="1920"
     inkscape:window-height="1010"
     inkscape:window-x="0"
     inkscape:window-y="0"
     inkscape:window-maximized="1"
     inkscape:current-layer="svg5" />
  <defs
     id="defs2">
    <style
       id="current-color-scheme"
       type="text/css">
        .ColorScheme-Text { color:#4d4d4d; } .ColorScheme-Highlight { color:#4285f4; } .ColorScheme-NeutralText { color:#ff9800; } .ColorScheme-PositiveText { color:#4caf50; } .ColorScheme-NegativeText { color:#f44336; }
     </style>
  </defs>
  <path
     d="m 11.000002,5 v 6 h 2 V 5 Z m 5.242188,1.34375 -1.414063,1.4140625 0.707031,0.7070313 C 16.473157,9.4026428 16.999802,10.673601 17.000002,12 c 0,2.773297 -2.226703,5 -5,5 -2.7718973,0 -4.9979001,-2.224697 -5.0000001,-4.996094 v -0.002 -0.0019 C 7.0055422,10.676701 7.5345491,9.4100616 8.4726581,8.4765625 L 9.1816425,7.7714844 7.7714863,6.3535156 7.0625019,7.0585938 c -1.3138987,1.3075986 -2.0562,3.0838022 -2.0625,4.9375002 -2.5e-6,0.0013 -2.5e-6,0.0026 0,0.0039 0,3.854096 3.1459039,7 7.0000001,7 3.854096,0 7,-3.145904 7,-7 -2.8e-4,-1.855999 -0.738223,-3.6370207 -2.050781,-4.9492194 z"
     id="path2612"
     style="fill:currentColor;fill-opacity:1"
     class="ColorScheme-Text" />
</svg>
