<?xml version="1.0" encoding="UTF-8" standalone="no"?>
<!-- Created with Inkscape (http://www.inkscape.org/) -->

<svg
   width="24"
   height="24"
   viewBox="0 0 24 24"
   version="1.1"
   id="svg5"
   inkscape:version="1.4.3 (0d15f75042, 2025-12-25)"
   sodipodi:docname="tag-edit.svg"
   xmlns:inkscape="http://www.inkscape.org/namespaces/inkscape"
   xmlns:sodipodi="http://sodipodi.sourceforge.net/DTD/sodipodi-0.dtd"
   xmlns="http://www.w3.org/2000/svg"
   xmlns:svg="http://www.w3.org/2000/svg">
  <sodipodi:namedview
     id="namedview7"
     pagecolor="#ffffff"
     bordercolor="#000000"
     borderopacity="0.25"
     inkscape:showpageshadow="2"
     inkscape:pageopacity="0.0"
     inkscape:pagecheckerboard="0"
     inkscape:deskcolor="#d1d1d1"
     inkscape:document-units="px"
     showgrid="false"
     inkscape:zoom="33.625"
     inkscape:cx="11.98513"
     inkscape:cy="12"
     inkscape:window-width="1920"
     inkscape:window-height="1010"
     inkscape:window-x="0"
     inkscape:window-y="0"
     inkscape:window-maximized="1"
     inkscape:current-layer="svg5" />
  <defs
     id="defs2">
    <style
       id="current-color-scheme"
       type="text/css">
        .ColorScheme-Text { color:#4d4d4d; } .ColorScheme-Highlight { color:#4285f4; } .ColorScheme-NeutralText { color:#ff9800; } .ColorScheme-PositiveText { color:#4caf50; } .ColorScheme-NegativeText { color:#f44336; }
     </style>
  </defs>
  <path
     id="path1"
     style="fill:currentColor;stroke-linecap:square"
     class="ColorScheme-Text"
     d="M 5,5 C 4.4478246,5.0001159 4.0001159,5.4478246 4,6 v 5.65625 c -1.72e-5,0.2652 0.1054789,0.519471 0.2929688,0.707031 l 7.0703122,7.072266 c 0.390546,0.390459 1.023517,0.390459 1.414063,0 l 5.658203,-5.658203 c 0.390459,-0.390545 0.390459,-1.023517 0,-1.414063 L 11.363281,5.2929688 C 11.175721,5.1054789 10.92145,4.9999828 10.65625,5 Z m 1,2 h 4.242188 l 6.072265,6.070313 -4.24414,4.24414 L 6,11.242188 Z M 8,8 A 1,1 0 0 0 7,9 1,1 0 0 0 8,10 1,1 0 0 0 9,9 1,1 0 0 0 8,8 Z m 11.003906,7 c -0.0076,6.38e-4 -0.01559,0.0023 -0.02344,0.0039 -0.04186,0.0084 -0.08621,0.03153 -0.13086,0.07617 l -0.634765,0.634766 1.070312,1.070312 0.634766,-0.634765 c 0.178594,-0.178569 0,-0.357422 0,-0.357422 L 19.207028,15.08007 c 0,0 -0.08856,-0.08964 -0.203125,-0.08008 z M 17.857422,16.072266 15,18.927734 V 20 h 1.072266 l 2.855468,-2.857422 z" />
</svg>
