<?xml version="1.0" encoding="UTF-8" standalone="no"?>
<!-- Created with Inkscape (http://www.inkscape.org/) -->

<svg
   width="22"
   height="22"
   viewBox="0 0 22 22"
   version="1.1"
   id="svg5"
   inkscape:version="1.3 (0e150ed6c4, 2023-07-21)"
   sodipodi:docname="weather-clouds.svg"
   xmlns:inkscape="http://www.inkscape.org/namespaces/inkscape"
   xmlns:sodipodi="http://sodipodi.sourceforge.net/DTD/sodipodi-0.dtd"
   xmlns="http://www.w3.org/2000/svg"
   xmlns:svg="http://www.w3.org/2000/svg">
  <sodipodi:namedview
     id="namedview7"
     pagecolor="#ffffff"
     bordercolor="#000000"
     borderopacity="0.25"
     inkscape:showpageshadow="2"
     inkscape:pageopacity="0.0"
     inkscape:pagecheckerboard="0"
     inkscape:deskcolor="#d1d1d1"
     inkscape:document-units="px"
     showgrid="false"
     inkscape:zoom="35.590909"
     inkscape:cx="10.985951"
     inkscape:cy="11"
     inkscape:window-width="1920"
     inkscape:window-height="984"
     inkscape:window-x="0"
     inkscape:window-y="29"
     inkscape:window-maximized="1"
     inkscape:current-layer="svg5" />
  <defs
     id="defs2" />
  <path
     style="opacity:0.2;fill:#000000"
     d="m 15,2.5 -2,2 h -3 v 3 l -2,2 2,2 v 3 h 3 l 2,2 2,-2 h 3 v -3 l 2,-2 -2,-2 v -3 h -3 z"
     id="path3" />
  <path
     style="fill:#ff8a47"
     d="m 15,2 -2,2 h -3 v 3 l -2,2 2,2 v 3 h 3 l 2,2 2,-2 h 3 V 11 L 22,9 20,7 V 4 h -3 z"
     id="path4" />
  <path
     id="path12"
     style="opacity:0.2;fill:#ffffff"
     d="m 15,2 -2,2 h -3 v 0.5 h 3 l 2,-2 2,2 h 3 V 4 H 17 Z M 10,7 8,9 8.25,9.25 10,7.5 Z M 20,7 V 7.5 L 21.75,9.25 22,9 Z" />
  <circle
     style="opacity:0.2;fill:#000000;stroke-linecap:round;stroke-linejoin:round"
     id="path9"
     cx="15"
     cy="9.5"
     r="4" />
  <circle
     style="fill:#ffcc42;fill-opacity:1;stroke-linecap:round;stroke-linejoin:round"
     id="path10"
     cx="15"
     cy="9"
     r="4" />
  <path
     id="path11"
     style="opacity:0.2;fill:#ffffff;fill-opacity:1;stroke-linecap:round;stroke-linejoin:round"
     d="M 15,5 A 4,4 0 0 0 11,9 4,4 0 0 0 11.017578,9.253906 4,4 0 0 1 15,5.5 4,4 0 0 1 18.986328,9.183594 4,4 0 0 0 19,9 4,4 0 0 0 15,5 Z" />
  <path
     style="opacity:0.2;fill:#000000"
     d="M 10.5,9.5 A 4.5,4.5 0 0 0 6,14 4.5,4.5 0 0 0 6.058594,14.697266 3,3 0 0 0 5,14.5 a 3,3 0 0 0 -3,3 3,3 0 0 0 3,3 h 11 a 3,3 0 0 0 3,-3 3,3 0 0 0 -3,-3 3,3 0 0 0 -1.060547,0.193359 A 4.5,4.5 0 0 0 15,14 4.5,4.5 0 0 0 10.5,9.5 Z"
     id="path7" />
  <path
     d="M 10.5,9 C 8.014719,9 6,11.014719 6,13.5 6.00096,13.732235 6.0199,13.964047 6.05664,14.193359 5.718929,14.06586 5.360978,14.000357 5,14 c -1.6568542,0 -3,1.343146 -3,3 0,1.656854 1.3431458,3 3,3 h 11 c 1.656854,0 3,-1.343146 3,-3 0,-1.656854 -1.343146,-3 -3,-3 -0.362114,0.0026 -0.720763,0.07077 -1.058594,0.201172 C 14.979208,13.969336 14.998799,13.734895 15,13.5 15,11.014719 12.985281,9 10.5,9 Z"
     style="fill:#f2f2f2;fill-opacity:1"
     id="path8" />
</svg>
