<?xml version="1.0" encoding="UTF-8" standalone="no"?>
<!-- Created with Inkscape (http://www.inkscape.org/) -->

<svg
   width="22"
   height="22"
   viewBox="0 0 22 22"
   version="1.1"
   id="svg5"
   inkscape:version="1.3 (0e150ed6c4, 2023-07-21)"
   sodipodi:docname="weather-showers.svg"
   xmlns:inkscape="http://www.inkscape.org/namespaces/inkscape"
   xmlns:sodipodi="http://sodipodi.sourceforge.net/DTD/sodipodi-0.dtd"
   xmlns="http://www.w3.org/2000/svg"
   xmlns:svg="http://www.w3.org/2000/svg">
  <sodipodi:namedview
     id="namedview7"
     pagecolor="#ffffff"
     bordercolor="#000000"
     borderopacity="0.25"
     inkscape:showpageshadow="2"
     inkscape:pageopacity="0.0"
     inkscape:pagecheckerboard="0"
     inkscape:deskcolor="#d1d1d1"
     inkscape:document-units="px"
     showgrid="false"
     inkscape:zoom="35.590909"
     inkscape:cx="10.985951"
     inkscape:cy="11"
     inkscape:window-width="1920"
     inkscape:window-height="984"
     inkscape:window-x="0"
     inkscape:window-y="29"
     inkscape:window-maximized="1"
     inkscape:current-layer="svg5" />
  <defs
     id="defs2" />
  <path
     style="opacity:0.2;fill:#000000"
     d="M 10.5,3.5 A 4.5,4.5 0 0 0 6,8 4.5,4.5 0 0 0 6.058594,8.697266 3,3 0 0 0 5,8.5 a 3,3 0 0 0 -3,3 3,3 0 0 0 3,3 h 11 a 3,3 0 0 0 3,-3 3,3 0 0 0 -3,-3 A 3,3 0 0 0 14.939453,8.693359 4.5,4.5 0 0 0 15,8 4.5,4.5 0 0 0 10.5,3.5 Z"
     id="path7" />
  <path
     d="M 10.5,3 C 8.014719,3 6,5.014719 6,7.5 6.00096,7.732235 6.0199,7.964047 6.05664,8.193359 5.718929,8.06586 5.360978,8.000357 5,8 3.3431458,8 2,9.343146 2,11 c 0,1.656854 1.3431458,3 3,3 h 11 c 1.656854,0 3,-1.343146 3,-3 C 19,9.343146 17.656854,8 16,8 15.637886,8.0026 15.279237,8.07077 14.941406,8.201172 14.979208,7.969336 14.998799,7.734895 15,7.5 15,5.014719 12.985281,3 10.5,3 Z"
     style="fill:#d0d0d0;fill-opacity:1"
     id="path8" />
  <path
     id="path1"
     style="opacity:0.2;fill:#000000;stroke-linecap:round;stroke-linejoin:round"
     d="m 5,15.5 c 0,0 -1,1.447716 -1,2 0,0.552284 0.4477159,1 1,1 0.5522841,0 1,-0.447716 1,-1 0,-0.552284 -1,-2 -1,-2 z m 5,0 c 0,0 -1,1.447716 -1,2 0,0.552284 0.447716,1 1,1 0.552284,0 1,-0.447716 1,-1 0,-0.552284 -1,-2 -1,-2 z m 5,0 c 0,0 -1,1.447716 -1,2 0,0.552284 0.447716,1 1,1 0.552284,0 1,-0.447716 1,-1 0,-0.552284 -1,-2 -1,-2 z m -8,3 c 0,0 -1,1.447716 -1,2 0,0.552284 0.4477159,1 1,1 0.5522844,0 1,-0.447716 1,-1 0,-0.552284 -1,-2 -1,-2 z m 6,0 c 0,0 -1,1.447716 -1,2 0,0.552284 0.447716,1 1,1 0.552284,0 1,-0.447716 1,-1 0,-0.552284 -1,-2 -1,-2 z" />
  <path
     id="path2"
     style="fill:#83e0f7;stroke-linecap:round;stroke-linejoin:round;fill-opacity:1"
     d="m 5,15 c 0,0 -1,1.447716 -1,2 0,0.552284 0.4477159,1 1,1 0.5522841,0 1,-0.447716 1,-1 0,-0.552284 -1,-2 -1,-2 z m 5,0 c 0,0 -1,1.447716 -1,2 0,0.552284 0.447716,1 1,1 0.552284,0 1,-0.447716 1,-1 0,-0.552284 -1,-2 -1,-2 z m 5,0 c 0,0 -1,1.447716 -1,2 0,0.552284 0.447716,1 1,1 0.552284,0 1,-0.447716 1,-1 0,-0.552284 -1,-2 -1,-2 z m -8,3 c 0,0 -1,1.447716 -1,2 0,0.552284 0.4477159,1 1,1 0.5522841,0 1,-0.447716 1,-1 0,-0.552284 -1,-2 -1,-2 z m 6,0 c 0,0 -1,1.447716 -1,2 0,0.552284 0.447716,1 1,1 0.552284,0 1,-0.447716 1,-1 0,-0.552284 -1,-2 -1,-2 z" />
</svg>
