<?xml version="1.0" encoding="UTF-8" standalone="no"?>
<!-- Created with Inkscape (http://www.inkscape.org/) -->

<svg
   width="22"
   height="22"
   viewBox="0 0 22 22"
   version="1.1"
   id="svg5"
   inkscape:version="1.3 (0e150ed6c4, 2023-07-21)"
   sodipodi:docname="weather-snow-scattered-night.svg"
   xmlns:inkscape="http://www.inkscape.org/namespaces/inkscape"
   xmlns:sodipodi="http://sodipodi.sourceforge.net/DTD/sodipodi-0.dtd"
   xmlns="http://www.w3.org/2000/svg"
   xmlns:svg="http://www.w3.org/2000/svg">
  <sodipodi:namedview
     id="namedview7"
     pagecolor="#ffffff"
     bordercolor="#000000"
     borderopacity="0.25"
     inkscape:showpageshadow="2"
     inkscape:pageopacity="0.0"
     inkscape:pagecheckerboard="0"
     inkscape:deskcolor="#d1d1d1"
     inkscape:document-units="px"
     showgrid="false"
     inkscape:zoom="35.590909"
     inkscape:cx="10.985951"
     inkscape:cy="11"
     inkscape:window-width="1920"
     inkscape:window-height="984"
     inkscape:window-x="0"
     inkscape:window-y="29"
     inkscape:window-maximized="1"
     inkscape:current-layer="svg5" />
  <defs
     id="defs2" />
  <path
     style="opacity:0.2;fill:#000000;stroke-width:0.562495"
     d="m 13.794619,0.5009835 c 0.584258,0.02894 0.925662,0.671485 0.622645,1.1718605 -0.511196,0.8444711 -0.935023,1.8122451 -0.935135,2.7993881 0,2.994616 2.564014,5.5885109 5.558201,5.5902809 0.655777,-0.0051 1.305936,-0.312239 1.917224,-0.549772 0.686527,-0.266377 1.321116,0.487537 0.941512,1.118549 -1.254384,2.085317 -3.511288,3.364018 -5.944804,3.368722 h -10e-4 c -3.830706,0 -6.952692,-3.121985 -6.952692,-6.9527039 8e-4,-2.883166 1.786374,-5.4721606 4.481235,-6.4970361 0.09976,-0.037855 0.20627,-0.054636 0.312831,-0.04929 z"
     id="path3" />
  <path
     style="fill:#ffcc42;stroke-width:0.562495"
     d="m 13.794619,9.835e-4 c 0.584258,0.02894 0.925662,0.671485 0.622645,1.1718605 -0.511196,0.8444716 -0.935023,1.8122456 -0.935135,2.7993891 0,2.994615 2.564014,5.5885099 5.558201,5.5902799 0.655777,-0.0051 1.305937,-0.312239 1.917224,-0.549772 0.686528,-0.266377 1.321116,0.487537 0.941512,1.118549 -1.254383,2.085317 -3.511288,3.364019 -5.944804,3.368722 h -10e-4 c -3.830706,0 -6.952692,-3.121985 -6.952692,-6.9527039 8e-4,-2.8831655 1.786374,-5.4721606 4.481235,-6.4970361 0.09976,-0.037855 0.206269,-0.054636 0.312831,-0.04929 z"
     id="path4" />
  <path
     id="path1"
     style="opacity:0.2;fill:#ffffff;stroke-width:0.562495"
     d="m 13.794962,9.89e-4 c 0.527063,0.026105 0.854413,0.5515165 0.691406,1.0214845 C 14.388908,0.7409185 14.133321,0.517749 13.794962,0.500989 13.6884,0.495639 13.581241,0.511964 13.481486,0.549819 10.872679,1.5419675 9.116153,4.0008181 9.0059,6.7724751 9.0035,6.6974951 9,6.6224411 9,6.5468891 9.0008,3.6637266 10.786586,1.0746935 13.481445,0.049819 13.581195,0.011964 13.68836,-0.004355 13.794922,9.89e-4 Z m -0.305664,4.2548831 c 0.155277,2.872994 2.651479,5.3049269 5.550781,5.3066399 0.655777,-0.0051 1.305706,-0.312272 1.916993,-0.549804 0.633498,-0.245802 1.221748,0.377205 1.010742,0.970703 -0.134246,-0.380356 -0.560611,-0.645358 -1.010742,-0.470703 -0.611287,0.237532 -1.261216,0.544664 -1.916993,0.549804 -2.994184,-0.0018 -5.557617,-2.5952309 -5.557617,-5.5898439 8e-6,-0.07219 0.0024,-0.144856 0.0068,-0.216796 z" />
  <path
     style="opacity:0.2;fill:#000000"
     d="M 10.5,7.5 A 4.5,4.5 0 0 0 6,12 4.5,4.5 0 0 0 6.058594,12.697266 3,3 0 0 0 5,12.5 a 3,3 0 0 0 -3,3 3,3 0 0 0 3,3 h 11 a 3,3 0 0 0 3,-3 3,3 0 0 0 -3,-3 3,3 0 0 0 -1.060547,0.193359 A 4.5,4.5 0 0 0 15,12 4.5,4.5 0 0 0 10.5,7.5 Z"
     id="path7" />
  <path
     d="M 10.5,7 C 8.014719,7 6,9.014719 6,11.5 6.00096,11.732235 6.0199,11.964047 6.05664,12.193359 5.718929,12.06586 5.360978,12.000357 5,12 c -1.6568542,0 -3,1.343146 -3,3 0,1.656854 1.3431458,3 3,3 h 11 c 1.656854,0 3,-1.343146 3,-3 0,-1.656854 -1.343146,-3 -3,-3 -0.362114,0.0026 -0.720763,0.07077 -1.058594,0.201172 C 14.979208,11.969336 14.998799,11.734895 15,11.5 15,9.014719 12.985281,7 10.5,7 Z"
     style="fill:#f2f2f2;fill-opacity:1"
     id="path8" />
  <path
     id="path6"
     style="opacity:0.2;fill:#000000;stroke-width:0.5"
     d="M 5.25 18.5 L 4.7109375 19.03125 L 4 19.25 L 4.1738281 20 L 4 20.75 L 4.7109375 20.966797 L 5.25 21.5 L 5.7890625 20.966797 L 6.5 20.75 L 6.3261719 20 L 6.5 19.25 L 5.7890625 19.03125 L 5.25 18.5 z M 10.25 18.5 L 9.7109375 19.03125 L 9 19.25 L 9.1738281 20 L 9 20.75 L 9.7109375 20.966797 L 10.25 21.5 L 10.789062 20.966797 L 11.5 20.75 L 11.326172 20 L 11.5 19.25 L 10.789062 19.03125 L 10.25 18.5 z M 15.25 18.5 L 14.710938 19.03125 L 14 19.25 L 14.173828 20 L 14 20.75 L 14.710938 20.966797 L 15.25 21.5 L 15.789062 20.966797 L 16.5 20.75 L 16.326172 20 L 16.5 19.25 L 15.789062 19.03125 L 15.25 18.5 z " />
  <path
     id="path9-7"
     style="fill:#edfafe;fill-opacity:1;stroke-width:0.5"
     d="M 5.25 18 L 4.7109375 18.53125 L 4 18.75 L 4.1738281 19.5 L 4 20.25 L 4.7109375 20.466797 L 5.25 21 L 5.7890625 20.466797 L 6.5 20.25 L 6.3261719 19.5 L 6.5 18.75 L 5.7890625 18.53125 L 5.25 18 z M 10.25 18 L 9.7109375 18.53125 L 9 18.75 L 9.1738281 19.5 L 9 20.25 L 9.7109375 20.466797 L 10.25 21 L 10.789062 20.466797 L 11.5 20.25 L 11.326172 19.5 L 11.5 18.75 L 10.789062 18.53125 L 10.25 18 z M 15.25 18 L 14.710938 18.53125 L 14 18.75 L 14.173828 19.5 L 14 20.25 L 14.710938 20.466797 L 15.25 21 L 15.789062 20.466797 L 16.5 20.25 L 16.326172 19.5 L 16.5 18.75 L 15.789062 18.53125 L 15.25 18 z " />
</svg>
