<?xml version="1.0" encoding="UTF-8" standalone="no"?>
<!-- Created with Inkscape (http://www.inkscape.org/) -->

<svg
   width="22"
   height="22"
   viewBox="0 0 22 22"
   version="1.1"
   id="svg5"
   inkscape:version="1.3 (0e150ed6c4, 2023-07-21)"
   sodipodi:docname="weather-snow-scattered-day.svg"
   xmlns:inkscape="http://www.inkscape.org/namespaces/inkscape"
   xmlns:sodipodi="http://sodipodi.sourceforge.net/DTD/sodipodi-0.dtd"
   xmlns="http://www.w3.org/2000/svg"
   xmlns:svg="http://www.w3.org/2000/svg">
  <sodipodi:namedview
     id="namedview7"
     pagecolor="#ffffff"
     bordercolor="#000000"
     borderopacity="0.25"
     inkscape:showpageshadow="2"
     inkscape:pageopacity="0.0"
     inkscape:pagecheckerboard="0"
     inkscape:deskcolor="#d1d1d1"
     inkscape:document-units="px"
     showgrid="false"
     inkscape:zoom="35.590909"
     inkscape:cx="10.985951"
     inkscape:cy="11"
     inkscape:window-width="1920"
     inkscape:window-height="984"
     inkscape:window-x="0"
     inkscape:window-y="29"
     inkscape:window-maximized="1"
     inkscape:current-layer="svg5" />
  <defs
     id="defs2" />
  <path
     style="opacity:0.2;fill:#000000"
     d="m 15,0.5 -2,2 h -3 v 3 l -2,2 2,2 v 3 h 3 l 2,2 2,-2 h 3 v -3 l 2,-2 -2,-2 v -3 h -3 z"
     id="path3" />
  <path
     style="fill:#ff8a47"
     d="m 15,0 -2,2 h -3 v 3 l -2,2 2,2 v 3 h 3 l 2,2 2,-2 h 3 V 9 L 22,7 20,5 V 2 h -3 z"
     id="path4" />
  <path
     id="path12"
     style="opacity:0.2;fill:#ffffff"
     d="m 15,0 -2,2 h -3 v 0.5 h 3 l 2,-2 2,2 h 3 V 2 H 17 Z M 10,5 8,7 8.25,7.25 10,5.5 Z M 20,5 V 5.5 L 21.75,7.25 22,7 Z" />
  <circle
     style="opacity:0.2;fill:#000000;stroke-linecap:round;stroke-linejoin:round"
     id="path9"
     cx="15"
     cy="7.5"
     r="4" />
  <circle
     style="fill:#ffcc42;fill-opacity:1;stroke-linecap:round;stroke-linejoin:round"
     id="path10"
     cx="15"
     cy="7"
     r="4" />
  <path
     id="path11"
     style="opacity:0.2;fill:#ffffff;fill-opacity:1;stroke-linecap:round;stroke-linejoin:round"
     d="M 15,3 A 4,4 0 0 0 11,7 4,4 0 0 0 11.017578,7.253906 4,4 0 0 1 15,3.5 4,4 0 0 1 18.986328,7.183594 4,4 0 0 0 19,7 4,4 0 0 0 15,3 Z" />
  <path
     style="opacity:0.2;fill:#000000"
     d="M 10.5,7.5 A 4.5,4.5 0 0 0 6,12 4.5,4.5 0 0 0 6.058594,12.697266 3,3 0 0 0 5,12.5 a 3,3 0 0 0 -3,3 3,3 0 0 0 3,3 h 11 a 3,3 0 0 0 3,-3 3,3 0 0 0 -3,-3 3,3 0 0 0 -1.060547,0.193359 A 4.5,4.5 0 0 0 15,12 4.5,4.5 0 0 0 10.5,7.5 Z"
     id="path7" />
  <path
     d="M 10.5,7 C 8.014719,7 6,9.014719 6,11.5 6.00096,11.732235 6.0199,11.964047 6.05664,12.193359 5.718929,12.06586 5.360978,12.000357 5,12 c -1.6568542,0 -3,1.343146 -3,3 0,1.656854 1.3431458,3 3,3 h 11 c 1.656854,0 3,-1.343146 3,-3 0,-1.656854 -1.343146,-3 -3,-3 -0.362114,0.0026 -0.720763,0.07077 -1.058594,0.201172 C 14.979208,11.969336 14.998799,11.734895 15,11.5 15,9.014719 12.985281,7 10.5,7 Z"
     style="fill:#f2f2f2;fill-opacity:1"
     id="path8" />
  <path
     id="path6"
     style="opacity:0.2;fill:#000000;stroke-width:0.5"
     d="M 5.25,18.5 4.7109375,19.03125 4,19.25 4.1738281,20 4,20.75 4.7109375,20.966797 5.25,21.5 5.7890625,20.966797 6.5,20.75 6.3261719,20 6.5,19.25 5.7890625,19.03125 Z m 5,0 L 9.7109375,19.03125 9,19.25 9.1738281,20 9,20.75 9.7109375,20.966797 10.25,21.5 10.789062,20.966797 11.5,20.75 11.326172,20 11.5,19.25 10.789062,19.03125 Z m 5,0 -0.539062,0.53125 L 14,19.25 14.173828,20 14,20.75 14.710938,20.966797 15.25,21.5 15.789062,20.966797 16.5,20.75 16.326172,20 16.5,19.25 15.789062,19.03125 Z" />
  <path
     id="path9-7"
     style="fill:#edfafe;fill-opacity:1;stroke-width:0.5"
     d="M 5.25,18 4.7109375,18.53125 4,18.75 4.1738281,19.5 4,20.25 4.7109375,20.466797 5.25,21 5.7890625,20.466797 6.5,20.25 6.3261719,19.5 6.5,18.75 5.7890625,18.53125 Z m 5,0 L 9.7109375,18.53125 9,18.75 9.1738281,19.5 9,20.25 9.7109375,20.466797 10.25,21 10.789062,20.466797 11.5,20.25 11.326172,19.5 11.5,18.75 10.789062,18.53125 Z m 5,0 -0.539062,0.53125 L 14,18.75 14.173828,19.5 14,20.25 14.710938,20.466797 15.25,21 15.789062,20.466797 16.5,20.25 16.326172,19.5 16.5,18.75 15.789062,18.53125 Z" />
</svg>
