<?xml version="1.0" encoding="UTF-8" standalone="no"?>
<!-- Created with Inkscape (http://www.inkscape.org/) -->

<svg
   width="32"
   height="32"
   viewBox="0 0 32 32"
   version="1.1"
   id="svg5"
   inkscape:version="1.4 (e7c3feb100, 2024-10-09)"
   sodipodi:docname="libreoffice-impress.svg"
   xmlns:inkscape="http://www.inkscape.org/namespaces/inkscape"
   xmlns:sodipodi="http://sodipodi.sourceforge.net/DTD/sodipodi-0.dtd"
   xmlns="http://www.w3.org/2000/svg"
   xmlns:svg="http://www.w3.org/2000/svg">
  <sodipodi:namedview
     id="namedview7"
     pagecolor="#ffffff"
     bordercolor="#000000"
     borderopacity="0.25"
     inkscape:showpageshadow="2"
     inkscape:pageopacity="0.0"
     inkscape:pagecheckerboard="0"
     inkscape:deskcolor="#d1d1d1"
     inkscape:document-units="px"
     showgrid="false"
     inkscape:zoom="25.1875"
     inkscape:cx="16"
     inkscape:cy="16"
     inkscape:window-width="1920"
     inkscape:window-height="1011"
     inkscape:window-x="0"
     inkscape:window-y="0"
     inkscape:window-maximized="1"
     inkscape:current-layer="svg5" />
  <defs
     id="defs2" />
  <rect
     style="opacity:0.2;fill:#000000;stroke-width:2;stroke-linecap:square"
     id="rect234"
     width="28"
     height="28"
     x="2"
     y="3"
     ry="6" />
  <rect
     style="fill:#4f4f4f;fill-opacity:1;stroke-width:2;stroke-linecap:square"
     id="rect396"
     width="28"
     height="28"
     x="2"
     y="2"
     ry="6" />
  <path
     d="M 8.5,11 C 8.223,11 8,11.223 8,11.5 8,11.777 8.223,12 8.5,12 h 15 C 23.777,12 24,11.777 24,11.5 24,11.223 23.777,11 23.5,11 Z m 2,2 c -0.277,0 -0.5,0.223 -0.5,0.5 0,0.277 0.223,0.5 0.5,0.5 h 11 C 21.777,14 22,13.777 22,13.5 22,13.223 21.777,13 21.5,13 Z m -2,4 C 8.22386,17 8,17.22386 8,17.5 8,17.77614 8.22386,18 8.5,18 8.77614,18 9,17.77614 9,17.5 9,17.22386 8.77614,17 8.5,17 Z m 2,0 c -0.277,0 -0.5,0.223 -0.5,0.5 0,0.277 0.223,0.5 0.5,0.5 h 4 C 14.777,18 15,17.777 15,17.5 15,17.223 14.777,17 14.5,17 Z m -2,2 C 8.22386,19 8,19.22386 8,19.5 8,19.77614 8.22386,20 8.5,20 8.77614,20 9,19.77614 9,19.5 9,19.22386 8.77614,19 8.5,19 Z m 2,0 c -0.277,0 -0.5,0.223 -0.5,0.5 0,0.277 0.223,0.5 0.5,0.5 h 4 C 14.777,20 15,19.777 15,19.5 15,19.223 14.777,19 14.5,19 Z m -2,2 C 8.22386,21 8,21.22386 8,21.5 8,21.77614 8.22386,22 8.5,22 8.77614,22 9,21.77614 9,21.5 9,21.22386 8.77614,21 8.5,21 Z m 2,0 c -0.277,0 -0.5,0.223 -0.5,0.5 0,0.277 0.223,0.5 0.5,0.5 h 4 C 14.777,22 15,21.777 15,21.5 15,21.223 14.777,21 14.5,21 Z"
     style="opacity:0.2;fill:#000000;stroke-width:0.999995;stroke-linecap:round;stroke-linejoin:round"
     id="path619" />
  <path
     d="M 8.5,10 C 8.223,10 8,10.223 8,10.5 8,10.777 8.223,11 8.5,11 h 15 C 23.777,11 24,10.777 24,10.5 24,10.223 23.777,10 23.5,10 Z m 2,2 c -0.277,0 -0.5,0.223 -0.5,0.5 0,0.277 0.223,0.5 0.5,0.5 h 11 C 21.777,13 22,12.777 22,12.5 22,12.223 21.777,12 21.5,12 Z m -2,4 C 8.22386,16 8,16.22386 8,16.5 8,16.77614 8.22386,17 8.5,17 8.77614,17 9,16.77614 9,16.5 9,16.22386 8.77614,16 8.5,16 Z m 2,0 c -0.277,0 -0.5,0.223 -0.5,0.5 0,0.277 0.223,0.5 0.5,0.5 h 4 C 14.777,17 15,16.777 15,16.5 15,16.223 14.777,16 14.5,16 Z m -2,2 C 8.22386,18 8,18.22386 8,18.5 8,18.77614 8.22386,19 8.5,19 8.77614,19 9,18.77614 9,18.5 9,18.22386 8.77614,18 8.5,18 Z m 2,0 c -0.277,0 -0.5,0.223 -0.5,0.5 0,0.277 0.223,0.5 0.5,0.5 h 4 C 14.777,19 15,18.777 15,18.5 15,18.223 14.777,18 14.5,18 Z m -2,2 C 8.22386,20 8,20.22386 8,20.5 8,20.77614 8.22386,21 8.5,21 8.77614,21 9,20.77614 9,20.5 9,20.22386 8.77614,20 8.5,20 Z m 2,0 c -0.277,0 -0.5,0.223 -0.5,0.5 0,0.277 0.223,0.5 0.5,0.5 h 4 C 14.777,21 15,20.777 15,20.5 15,20.223 14.777,20 14.5,20 Z"
     style="fill:#ffffff;stroke-width:0.999995;stroke-linecap:round;stroke-linejoin:round"
     id="path416" />
  <rect
     style="opacity:0.2;fill:#000000;stroke-width:2;stroke-linecap:square"
     id="rect691"
     width="8"
     height="6"
     x="16"
     y="17"
     ry="1" />
  <rect
     style="fill:#e96412;fill-opacity:1;stroke-width:2;stroke-linecap:square"
     id="rect693"
     width="8"
     height="6"
     x="16"
     y="16"
     ry="1" />
  <path
     d="m 22.812369,17.109734 c -0.215695,-0.172725 -0.530605,-0.137735 -0.703125,0.07813 l -1.427771,1.81244 -1.107424,-0.92383 c -0.210105,-0.175365 -0.522155,-0.149255 -0.700196,0.0586 l -1.75387,2.040195 c -0.179635,0.20979 -0.15515,0.525495 0.05469,0.70508 0.20979,0.179635 0.525495,0.15515 0.70508,-0.05469 l 1.432581,-1.665195 1.12109,0.93457 c 0.21509,0.179655 0.535805,0.147495 0.71094,-0.07129 l 1.74613,-2.210875 c 0.17273,-0.215695 0.13774,-0.530605 -0.07813,-0.703125 z"
     style="color:#000000;fill:#4f4f4f;fill-opacity:1;stroke-width:0.5;stroke-linecap:round;stroke-linejoin:round;-inkscape-stroke:none"
     id="path1620" />
  <path
     d="M 8,2.0000001 C 4.6760033,2.0000001 2,4.6760035 2,8 V 9 C 2,5.6760035 4.6760033,3 8,3 h 16 c 3.323996,0 6,2.6760035 6,6 V 8 C 30,4.6760035 27.323996,2.0000001 24,2.0000001 Z"
     style="opacity:0.1;fill:#ffffff;stroke-width:2;stroke-linecap:square"
     id="path1040" />
</svg>
