<?xml version="1.0" encoding="UTF-8" standalone="no"?>
<!-- Created with Inkscape (http://www.inkscape.org/) -->

<svg
   width="32"
   height="32"
   viewBox="0 0 32 32"
   version="1.1"
   id="svg5"
   inkscape:version="1.4 (e7c3feb100, 2024-10-09)"
   sodipodi:docname="office-calendar.svg"
   xmlns:inkscape="http://www.inkscape.org/namespaces/inkscape"
   xmlns:sodipodi="http://sodipodi.sourceforge.net/DTD/sodipodi-0.dtd"
   xmlns="http://www.w3.org/2000/svg"
   xmlns:svg="http://www.w3.org/2000/svg">
  <sodipodi:namedview
     id="namedview7"
     pagecolor="#ffffff"
     bordercolor="#000000"
     borderopacity="0.25"
     inkscape:showpageshadow="2"
     inkscape:pageopacity="0.0"
     inkscape:pagecheckerboard="0"
     inkscape:deskcolor="#d1d1d1"
     inkscape:document-units="px"
     showgrid="false"
     inkscape:zoom="24.5625"
     inkscape:cx="16"
     inkscape:cy="16"
     inkscape:window-width="1920"
     inkscape:window-height="1011"
     inkscape:window-x="0"
     inkscape:window-y="0"
     inkscape:window-maximized="1"
     inkscape:current-layer="svg5" />
  <defs
     id="defs2" />
  <rect
     style="opacity:0.2;fill:#000000;stroke-width:2;stroke-linecap:square"
     id="rect234"
     width="28"
     height="28"
     x="2"
     y="3"
     ry="6" />
  <rect
     style="fill:#4f4f4f;fill-opacity:1;stroke-width:2;stroke-linecap:square"
     id="rect396"
     width="28"
     height="28"
     x="2"
     y="2"
     ry="6" />
  <path
     d="m 15,12 v 2 h 2 v -2 z m -3,3 v 2 h 2 v -2 z m 6,-3 v 2 h 2 v -2 z m 3,0 v 2 h 2 v -2 z m 3,0 v 2 h 2 v -2 z m 0,3 v 2 h 2 V 15 Z M 6,15 v 2 h 2 v -2 z m 3,0 v 2 h 2 v -2 z m 6,0 v 2 h 2 v -2 z m 6,0 v 2 h 2 V 15 Z M 6,18 v 2 h 2 v -2 z m 3,0 v 2 h 2 v -2 z m 3,0 v 2 h 2 v -2 z m 3,0 v 2 h 2 v -2 z m 3,0 v 2 h 2 v -2 z m 3,0 v 2 h 2 v -2 z m 3,0 v 2 h 2 V 18 Z M 6,21 v 2 h 2 v -2 z m 3,0 v 2 h 2 v -2 z m 3,0 v 2 h 2 v -2 z m 3,0 v 2 h 2 v -2 z m 3,0 v 2 h 2 v -2 z m 3,0 v 2 h 2 v -2 z m 3,0 v 2 h 2 V 21 Z M 6,24 v 2 h 2 v -2 z m 3,0 v 2 h 2 v -2 z m 3,0 v 2 h 2 v -2 z m 3,0 v 2 h 2 v -2 z"
     style="fill:#ffffff;fill-opacity:1;stroke-width:0.25;opacity:0.2"
     id="path4563" />
  <rect
     style="fill:#f54b3e;fill-opacity:1;stroke-linecap:square"
     id="rect4635"
     width="2"
     height="2"
     x="18.000031"
     y="15" />
  <path
     id="rect1233"
     style="fill:#f54b3e;fill-opacity:1;stroke-width:2;stroke-linecap:square"
     d="m 8,2 h 16 c 3.324,0 6,2.676 6,5.9999999 V 9 H 1.9999999 V 7.9999999 C 1.9999999,4.676 4.6759999,2 8,2 Z"
     sodipodi:nodetypes="sssccss" />
  <rect
     style="opacity:0.2;fill:#000000;fill-opacity:1;stroke-width:5;stroke-linecap:round;stroke-linejoin:round"
     id="rect4964"
     width="28"
     height="1"
     x="2.0000002"
     y="8.999999" />
  <path
     d="M 7,6 C 6.4477153,6 6,6.4477153 6,7 6,7.5522847 6.4477153,8 7,8 7.5522847,8 8,7.5522847 8,7 8,6.4477153 7.5522847,6 7,6 Z m 18,0 c -0.552284,0 -1,0.4477153 -1,1 0,0.5522847 0.447716,1 1,1 0.552285,0 1,-0.4477153 1,-1 0,-0.5522847 -0.447715,-1 -1,-1 z"
     style="opacity:0.2;fill:#000000;stroke-width:0.666667"
     id="path2633" />
  <path
     d="M 7,5 C 6.4477153,5 6,5.4477153 6,6 6,6.5522848 6.4477153,7 7,7 7.5522847,7 8.0000002,6.5522848 8.0000002,6 8.0000002,5.4477153 7.5522847,5 7,5 Z m 18,0 c -0.552284,0 -1,0.4477153 -1,1 0,0.5522848 0.447716,1 1,1 0.552285,0 1,-0.4477152 1,-1 0,-0.5522847 -0.447715,-1 -1,-1 z"
     style="fill:#3a3a3a;stroke-width:0.666667;fill-opacity:1"
     id="path2605" />
  <path
     d="M 8,2.0000001 C 4.6760033,2.0000001 2,4.6760035 2,8 V 9 C 2,5.6760035 4.6760033,3 8,3 h 16 c 3.323996,0 6,2.6760035 6,6 V 8 C 30,4.6760035 27.323996,2.0000001 24,2.0000001 Z"
     style="opacity:0.2;fill:#ffffff;stroke-width:2;stroke-linecap:square"
     id="path1040"
     sodipodi:nodetypes="sscsscsss" />
</svg>
