<?xml version="1.0" encoding="UTF-8" standalone="no"?>
<!-- Created with Inkscape (http://www.inkscape.org/) -->

<svg
   width="32"
   height="32"
   viewBox="0 0 32 32"
   version="1.1"
   id="svg5"
   inkscape:version="1.2.2 (1:1.2.2+202305151914+b0a8486541)"
   sodipodi:docname="preferences-system-network.svg"
   xmlns:inkscape="http://www.inkscape.org/namespaces/inkscape"
   xmlns:sodipodi="http://sodipodi.sourceforge.net/DTD/sodipodi-0.dtd"
   xmlns="http://www.w3.org/2000/svg"
   xmlns:svg="http://www.w3.org/2000/svg">
  <sodipodi:namedview
     id="namedview7"
     pagecolor="#ffffff"
     bordercolor="#000000"
     borderopacity="0.25"
     inkscape:showpageshadow="2"
     inkscape:pageopacity="0.0"
     inkscape:pagecheckerboard="0"
     inkscape:deskcolor="#d1d1d1"
     inkscape:document-units="px"
     showgrid="false"
     inkscape:zoom="25.1875"
     inkscape:cx="15.980149"
     inkscape:cy="16"
     inkscape:window-width="1920"
     inkscape:window-height="1008"
     inkscape:window-x="0"
     inkscape:window-y="0"
     inkscape:window-maximized="1"
     inkscape:current-layer="svg5" />
  <defs
     id="defs2" />
  <rect
     style="opacity:0.2;fill:#000000;stroke-width:2;stroke-linecap:square"
     id="rect234"
     width="28"
     height="28"
     x="2"
     y="3"
     ry="6" />
  <rect
     style="fill:#4d4d4d;fill-opacity:1;stroke-width:2;stroke-linecap:square"
     id="rect396"
     width="28"
     height="28"
     x="2"
     y="2"
     ry="6" />
  <path
     d="M 12,26 9.9999999,24 H 7.5000001 c -0.831,0 -1.5,-0.669 -1.5,-1.5 v -12 c 0,-0.831 0.669,-1.5 1.5,-1.5 H 24.5 c 0.831,0 1.5,0.669 1.5,1.5 v 12 C 26,23.331 25.331,24 24.5,24 H 22 l -2,2 z"
     style="opacity:0.2;fill:#000000;stroke-width:0.5"
     id="path1618" />
  <path
     d="M 12,25 9.9999999,23 H 7.5000002 c -0.831,0 -1.5000001,-0.669 -1.5000001,-1.5 V 9.500001 C 6.0000001,8.6690001 6.6690002,8 7.5000002,8 H 24.5 C 25.331,8 26,8.6690001 26,9.500001 V 21.5 C 26,22.331 25.331,23 24.5,23 H 22 l -2,2 z"
     style="fill:#e4e4e4;fill-opacity:1;stroke-width:0.5"
     id="path316" />
  <path
     d="M 14,22 11.75,20 H 9.0000001 V 11 H 23 v 9 h -3 l -2,2 z"
     style="opacity:0.6;stroke-width:0.5"
     id="path1562" />
  <path
     d="m 9.0000001,20 v 1 H 11.75 L 14,23 h 4 l 2,-2 h 3 v -1 h -3 l -2,2 h -4 l -2.25,-2 z"
     style="opacity:0.2;fill:#ffffff;stroke-width:0.5"
     id="path1590" />
  <path
     d="m 7.5000002,8 c -0.831,0 -1.5,0.669 -1.5,1.5 v 1 c 0,-0.831 0.669,-1.5 1.5,-1.5 H 24.5 c 0.831,0 1.5,0.669 1.5,1.5 v -1 C 26,8.669 25.331,8 24.5,8 Z"
     style="opacity:0.2;fill:#ffffff;stroke-width:0.5"
     id="path1646" />
  <path
     d="m 12,11 v 2 h 1 v -2 z m 2,0 v 2 h 1 v -2 z m 2,0 v 2 h 1 v -2 z m 2,0 v 2 h 1 v -2 z m 2,0 v 2 h 1 v -2 z"
     style="fill:#f8c44e;fill-opacity:1;stroke-width:1;stroke-linecap:square"
     id="path1816" />
  <path
     d="M 8,2.0000001 C 4.6760033,2.0000001 2,4.6760035 2,8 V 9 C 2,5.6760035 4.6760033,3 8,3 h 16 c 3.323996,0 6,2.6760035 6,6 V 8 C 30,4.6760035 27.323996,2.0000001 24,2.0000001 Z"
     style="opacity:0.1;fill:#ffffff;stroke-width:2;stroke-linecap:square"
     id="path1040" />
</svg>
