<?xml version="1.0" encoding="UTF-8" standalone="no"?>
<!-- Created with Inkscape (http://www.inkscape.org/) -->

<svg
   width="32"
   height="32"
   viewBox="0 0 32 32"
   version="1.1"
   id="svg5"
   inkscape:version="1.4 (e7c3feb100, 2024-10-09)"
   sodipodi:docname="weather-app.svg"
   xmlns:inkscape="http://www.inkscape.org/namespaces/inkscape"
   xmlns:sodipodi="http://sodipodi.sourceforge.net/DTD/sodipodi-0.dtd"
   xmlns="http://www.w3.org/2000/svg"
   xmlns:svg="http://www.w3.org/2000/svg">
  <sodipodi:namedview
     id="namedview7"
     pagecolor="#ffffff"
     bordercolor="#000000"
     borderopacity="0.25"
     inkscape:showpageshadow="2"
     inkscape:pageopacity="0.0"
     inkscape:pagecheckerboard="0"
     inkscape:deskcolor="#d1d1d1"
     inkscape:document-units="px"
     showgrid="false"
     inkscape:zoom="22.4375"
     inkscape:cx="16"
     inkscape:cy="16"
     inkscape:window-width="1920"
     inkscape:window-height="1011"
     inkscape:window-x="0"
     inkscape:window-y="0"
     inkscape:window-maximized="1"
     inkscape:current-layer="svg5" />
  <defs
     id="defs2" />
  <rect
     style="opacity:0.2;fill:#000000;stroke-width:2;stroke-linecap:square"
     id="rect234"
     width="28"
     height="28"
     x="2"
     y="3"
     ry="6" />
  <rect
     style="fill:#4f4f4f;fill-opacity:1;stroke-width:2;stroke-linecap:square"
     id="rect396"
     width="28"
     height="28"
     x="2"
     y="2"
     ry="6" />
  <path
     style="opacity:0.2;fill:#000000"
     d="m 20,7 -2,2 h -3 v 3 l -2,2 2,2 v 3 h 3 l 2,2 2,-2 h 3 v -3 l 2,-2 -2,-2 V 9 h -3 z"
     id="path3" />
  <path
     style="fill:#ff8a47"
     d="m 20,6 -2,2 h -3 v 3 l -2,2 2,2 v 3 h 3 l 2,2 2,-2 h 3 v -3 l 2,-2 -2,-2 V 8 h -3 z"
     id="path4" />
  <path
     id="path12"
     style="opacity:0.2;fill:#ffffff"
     d="m 20,6 -2,2 h -3 v 1 h 3 l 2,-2 2,2 h 3 V 8 h -3 z m -5,5 -2,2 0.5,0.5 L 15,12 Z m 10,0 v 1 L 26.5,13.5 27,13 Z" />
  <circle
     style="opacity:0.2;fill:#000000;stroke-linecap:round;stroke-linejoin:round"
     id="path9"
     cx="20"
     cy="14"
     r="4" />
  <circle
     style="fill:#ffcc42;fill-opacity:1;stroke-linecap:round;stroke-linejoin:round"
     id="path10"
     cx="20"
     cy="13"
     r="4" />
  <path
     id="path11"
     style="opacity:0.2;fill:#ffffff;fill-opacity:1;stroke-linecap:round;stroke-linejoin:round"
     d="m 20,9 a 4,4 0 0 0 -4,4 4,4 0 0 0 0.03516,0.5 A 4,4 0 0 1 20,10 4,4 0 0 1 23.964844,13.480469 4,4 0 0 0 24,13 4,4 0 0 0 20,9 Z" />
  <path
     style="opacity:0.2;fill:#000000"
     d="M 15.5,14 A 4.5,4.5 0 0 0 11,18.5 4.5,4.5 0 0 0 11.058594,19.197266 3,3 0 0 0 10,19 3,3 0 0 0 7,22 3,3 0 0 0 10,25 H 21 A 3,3 0 0 0 24,22 3,3 0 0 0 21,19 3,3 0 0 0 19.939453,19.193359 4.5,4.5 0 0 0 20,18.5 4.5,4.5 0 0 0 15.5,14 Z"
     id="path7" />
  <path
     d="m 15.5,13 c -2.485281,0 -4.5,2.014719 -4.5,4.5 9.6e-4,0.232235 0.0199,0.464047 0.05664,0.693359 C 10.718929,18.06586 10.360978,18.000357 10,18 c -1.6568542,0 -3,1.343146 -3,3 0,1.656854 1.3431458,3 3,3 h 11 c 1.656854,0 3,-1.343146 3,-3 0,-1.656854 -1.343146,-3 -3,-3 -0.362114,0.0026 -0.720763,0.07077 -1.058594,0.201172 C 19.979208,17.969336 19.998799,17.734895 20,17.5 20,15.014719 17.985281,13 15.5,13 Z"
     style="fill:#ffffff"
     id="path8" />
  <path
     d="M 8,2.0000001 C 4.6760033,2.0000001 2,4.6760035 2,8 V 9 C 2,5.6760035 4.6760033,3 8,3 h 16 c 3.323996,0 6,2.6760035 6,6 V 8 C 30,4.6760035 27.323996,2.0000001 24,2.0000001 Z"
     style="opacity:0.1;fill:#ffffff;stroke-width:2;stroke-linecap:square"
     id="path1040" />
</svg>
