<?xml version="1.0" encoding="UTF-8" standalone="no"?>
<!-- Created with Inkscape (http://www.inkscape.org/) -->

<svg
   width="48"
   height="48"
   viewBox="0 0 48 48.000003"
   version="1.1"
   id="svg5"
   inkscape:version="1.2.2 (1:1.2.2+202305151914+b0a8486541)"
   sodipodi:docname="application-pgp-keys.svg"
   xmlns:inkscape="http://www.inkscape.org/namespaces/inkscape"
   xmlns:sodipodi="http://sodipodi.sourceforge.net/DTD/sodipodi-0.dtd"
   xmlns="http://www.w3.org/2000/svg"
   xmlns:svg="http://www.w3.org/2000/svg">
  <sodipodi:namedview
     id="namedview7"
     pagecolor="#ffffff"
     bordercolor="#000000"
     borderopacity="0.25"
     inkscape:showpageshadow="2"
     inkscape:pageopacity="0.0"
     inkscape:pagecheckerboard="0"
     inkscape:deskcolor="#d1d1d1"
     inkscape:document-units="px"
     showgrid="false"
     inkscape:zoom="16.791667"
     inkscape:cx="23.970223"
     inkscape:cy="24"
     inkscape:window-width="1920"
     inkscape:window-height="1008"
     inkscape:window-x="0"
     inkscape:window-y="0"
     inkscape:window-maximized="1"
     inkscape:current-layer="svg5" />
  <defs
     id="defs2" />
  <path
     id="rect234"
     style="opacity:0.2;stroke-width:0.75;stroke-linecap:round;stroke-linejoin:round"
     d="m 11,5 h 17 l 12,12 v 25 c 0,1.662 -1.338,3 -3,3 H 11 C 9.338,45 8,43.662 8,42 V 8 C 8,6.338 9.338,5 11,5 Z" />
  <path
     id="rect448"
     style="fill:#e0e0e0;fill-opacity:1;stroke-width:0.75;stroke-linecap:round;stroke-linejoin:round"
     d="m 11,4 h 17 l 4.5,7.5 7.5,4.5 v 25 c 0,1.662 -1.338,3 -3,3 H 11 C 9.338,44 8,42.662 8,41 V 7 C 8,5.338 9.338,4 11,4 Z" />
  <path
     d="m 20,26 c -3.31371,0 -6,2.68629 -6,6 0,3.31371 2.68629,6 6,6 2.53959,-0.004 4.80187,-1.60564 5.6484,-4 H 29 v 2 h 4 v -2 h 2.0004 v -4 h -9.3496 c -0.84673,-2.39491 -3.10982,-3.9971 -5.65,-4 z m 0,4 c 1.10457,0 2,0.89543 2,2 0,1.10457 -0.89543,2 -2,2 -1.10457,0 -2,-0.89543 -2,-2 0,-1.10457 0.89543,-2 2,-2 z"
     style="opacity:0.2;fill:#000000"
     id="path3662" />
  <path
     d="m 20,25 c -3.31371,0 -6,2.68629 -6,6 0,3.31371 2.68629,6 6,6 2.53959,-0.004 4.80187,-1.60565 5.6484,-4 H 29 v 2 h 4 v -2 h 2.0004 v -4 h -9.3496 c -0.84673,-2.39491 -3.10982,-3.9971 -5.65,-4 z m 0,4 c 1.10457,0 2,0.89543 2,2 0,1.10457 -0.89543,2 -2,2 -1.10457,0 -2,-0.89543 -2,-2 0,-1.10457 0.89543,-2 2,-2 z"
     style="fill:#607d8b;fill-opacity:1"
     id="path3427" />
  <path
     d="m 40,17 h -9 c -1.662,0 -3,-1.338 -3,-3 V 4 l 12,12 z"
     style="opacity:0.2;fill:#000000;stroke-width:0.75;stroke-linecap:round;stroke-linejoin:round"
     id="path611"
     sodipodi:nodetypes="cssccc" />
  <path
     id="rect600"
     style="fill:#f5f5f5;fill-opacity:1;stroke-width:0.75;stroke-linecap:round;stroke-linejoin:round"
     d="m 40,16 h -9 c -1.662,0 -3,-1.338 -3,-3 V 4 Z" />
  <path
     id="path1133"
     style="opacity:0.2;fill:#ffffff;fill-opacity:1;stroke-width:0.75;stroke-linecap:round;stroke-linejoin:round"
     d="M 11,4 C 9.338005,4 8,5.338005 8,7 V 8 C 8,6.338005 9.338005,5 11,5 h 17 l 11,11 h 1 L 28,4 Z" />
</svg>
