<?xml version="1.0" encoding="UTF-8" standalone="no"?>
<!-- Created with Inkscape (http://www.inkscape.org/) -->

<svg
   width="48"
   height="48"
   viewBox="0 0 48 48.000003"
   version="1.1"
   id="svg5"
   inkscape:version="1.2.2 (1:1.2.2+202305151914+b0a8486541)"
   sodipodi:docname="application-x-tar.svg"
   xmlns:inkscape="http://www.inkscape.org/namespaces/inkscape"
   xmlns:sodipodi="http://sodipodi.sourceforge.net/DTD/sodipodi-0.dtd"
   xmlns="http://www.w3.org/2000/svg"
   xmlns:svg="http://www.w3.org/2000/svg">
  <sodipodi:namedview
     id="namedview7"
     pagecolor="#ffffff"
     bordercolor="#000000"
     borderopacity="0.25"
     inkscape:showpageshadow="2"
     inkscape:pageopacity="0.0"
     inkscape:pagecheckerboard="0"
     inkscape:deskcolor="#d1d1d1"
     inkscape:document-units="px"
     showgrid="false"
     inkscape:zoom="16.791667"
     inkscape:cx="23.970223"
     inkscape:cy="24"
     inkscape:window-width="1920"
     inkscape:window-height="1008"
     inkscape:window-x="0"
     inkscape:window-y="0"
     inkscape:window-maximized="1"
     inkscape:current-layer="svg5" />
  <defs
     id="defs2" />
  <rect
     style="opacity:0.2;fill:#000000;fill-opacity:1;stroke-width:2;stroke-linecap:square"
     id="rect1785"
     width="40"
     height="40"
     x="3.999999"
     y="5"
     ry="4" />
  <rect
     style="opacity:1;fill:#d0b07c;fill-opacity:1;stroke-width:2;stroke-linecap:square"
     id="rect1787"
     width="40"
     height="40"
     x="4.0000019"
     y="4"
     ry="4" />
  <rect
     style="opacity:0.2;fill:#000000;stroke-width:2;stroke-linecap:square"
     id="rect373"
     width="8"
     height="20.5"
     x="20"
     y="4" />
  <path
     d="m 24.000001,4.0000002 v 2 h 2 v -2 z m 0,2 h -2 V 8.000001 h 2 z m 0,2.0000008 v 2 h 2 v -2 z m 0,2 h -2 v 2 h 2 z m 0,2 V 14 h 2 v -1.999999 z m 0,1.999999 h -2 v 2 h 2 z m 0,2 v 2 h 2 v -2 z m 0,2 h -2 v 2 h 2 z"
     style="fill:#ffffff"
     id="path431" />
  <path
     d="m 24.000001,18 c 3,0 3,4 4,4 v 5 c 0,0.554 -0.446,1 -1,1 h -6 c -0.554,0 -1,-0.446 -1,-1 v -5 c 1,0 1,-4 4,-4 z"
     style="fill:#4b4b4b"
     id="path459" />
  <path
     d="m 23.734376,24 c -2.068267,0 -3.734375,1.659635 -3.734375,3.71875 v 7.5625 c 0,2.059116 1.666108,3.71875 3.734375,3.71875 h 0.53125 c 2.068267,0 3.734375,-1.659634 3.734375,-3.71875 v -7.5625 C 28.000001,25.659635 26.333893,24 24.265626,24 Z m 0.265625,8 c 1.656854,3e-6 3,1.345149 3,3.001953 0,1.656805 -1.343146,2.998047 -3,2.998047 -1.656854,0 -3,-1.341242 -3,-2.998047 0,-1.656804 1.343146,-3.00195 3,-3.001953 z"
     style="opacity:0.2;fill:#000000"
     id="path931" />
  <path
     d="m 23.734376,23 c -2.068267,0 -3.734375,1.659635 -3.734375,3.71875 v 7.5625 c 0,2.059116 1.666108,3.71875 3.734375,3.71875 h 0.53125 c 2.068267,0 3.734375,-1.659634 3.734375,-3.71875 v -7.5625 C 28.000001,24.659635 26.333893,23 24.265626,23 Z m 0.265625,8 c 1.656854,3e-6 3,1.345149 3,3.001953 0,1.656805 -1.343146,2.998047 -3,2.998047 -1.656854,0 -3,-1.341242 -3,-2.998047 0,-1.656804 1.343146,-3.00195 3,-3.001953 z"
     style="fill:#ffffff"
     id="path903" />
  <rect
     style="fill:#909090;fill-opacity:1;stroke-width:2;stroke-linecap:square"
     id="rect479"
     width="2.0000999"
     height="6.0000005"
     x="23"
     y="20"
     ry="1" />
  <path
     id="rect1816"
     style="opacity:0.1;fill:#ffffff;fill-opacity:1;stroke-width:2;stroke-linecap:square"
     d="M 8 4 C 5.7840022 4 4 5.7840022 4 8 L 4 9 C 4 6.7840022 5.7840022 5 8 5 L 40 5 C 42.215998 5 44 6.7840022 44 9 L 44 8 C 44 5.7840022 42.215998 4 40 4 L 8 4 z " />
  <g
     id="g1143">
    <rect
       style="opacity:0.2;fill:#000000;fill-opacity:1;stroke-width:2;stroke-linecap:square"
       id="rect640"
       width="28"
       height="14"
       x="18"
       y="33"
       ry="2" />
    <rect
       style="fill:#db792e;fill-opacity:1;stroke-width:2;stroke-linecap:square"
       id="rect241"
       width="28"
       height="14"
       x="18"
       y="32"
       ry="2" />
    <path
       id="path305"
       style="opacity:0.2;fill:#000000;stroke-linecap:round;stroke-linejoin:round;-inkscape-stroke:none"
       d="M 22 35 C 21.447721 35 21 35.447716 21 36 C 21 36.552284 21.447721 37 22 37 L 23 37 L 23 44 C 23 44.552284 23.447721 45 24 45 C 24.552279 45 25 44.552284 25 44 L 25 37 L 26 37 C 26.552279 37 27 36.552284 27 36 C 27 35.447716 26.552279 35 26 35 L 24 35 L 22 35 z M 32 35 C 30.666669 35 29.724724 35.814222 29.355469 36.552734 C 28.986212 37.291247 29 38 29 38 L 29 41 L 29 44 C 29 44.552283 29.447716 45 30 45 C 30.552284 45 31 44.552283 31 44 L 31 42 L 33 42 L 33 44 C 33 44.552283 33.447716 45 34 45 C 34.552284 45 35 44.552283 35 44 L 35 41 L 35 38 C 35 38 35.01379 37.291248 34.644531 36.552734 C 34.275276 35.814221 33.333331 35 32 35 z M 38.126953 35.003906 C 38.005417 35.007321 37.9375 35.011719 37.9375 35.011719 C 37.410539 35.044769 37.000049 35.481769 37 36.009766 L 37 44.009766 C 37 44.562049 37.447716 45.009766 38 45.009766 C 38.552284 45.009766 39 44.562049 39 44.009766 L 39 40.925781 C 39.01452 40.925485 39.026096 40.922275 39.041016 40.921875 C 39.009996 41.144247 39.054716 41.370585 39.167969 41.564453 L 41.167969 44.564453 C 41.474321 45.023958 42.095167 45.148128 42.554688 44.841797 C 43.014194 44.535443 43.138363 43.914599 42.832031 43.455078 L 40.886719 40.537109 C 41.261539 40.407185 41.643526 40.329459 41.990234 40.058594 C 42.54874 39.622261 43 38.86856 43 38.009766 C 43 37.150971 42.54874 36.395316 41.990234 35.958984 C 41.43173 35.522653 40.800291 35.317946 40.212891 35.189453 C 39.331789 34.996712 38.491562 34.993663 38.126953 35.003906 z M 32 37 C 32.666665 37 32.724726 37.185781 32.855469 37.447266 C 32.986212 37.70875 33 38 33 38 L 33 40 L 31 40 L 31 38 C 31 38 31.01379 37.70875 31.144531 37.447266 C 31.275274 37.185781 31.333335 37 32 37 z M 39 37.082031 C 39.314806 37.096091 39.410528 37.060198 39.787109 37.142578 C 40.199707 37.232838 40.568272 37.385551 40.759766 37.535156 C 40.951258 37.684757 41 37.743562 41 38.009766 C 41 38.275968 40.951259 38.332817 40.759766 38.482422 C 40.568272 38.632026 40.199707 38.786696 39.787109 38.876953 C 39.410528 38.959333 39.314806 38.92343 39 38.9375 L 39 37.082031 z " />
    <path
       id="rect750"
       style="opacity:0.1;fill:#ffffff;fill-opacity:1;stroke-width:2;stroke-linecap:square"
       d="m 20,32 c -1.107999,0 -2,0.892001 -2,2 v 1 c 0,-1.107999 0.892001,-2 2,-2 h 24 c 1.107999,0 2,0.892001 2,2 v -1 c 0,-1.107999 -0.892001,-2 -2,-2 z" />
    <path
       id="path1119"
       style="fill:#ffffff;stroke-linecap:round;stroke-linejoin:round;-inkscape-stroke:none"
       d="M 22 34 C 21.447721 34 21 34.447716 21 35 C 21 35.552284 21.447721 36 22 36 L 23 36 L 23 43 C 23 43.552284 23.447721 44 24 44 C 24.552279 44 25 43.552284 25 43 L 25 36 L 26 36 C 26.552279 36 27 35.552284 27 35 C 27 34.447716 26.552279 34 26 34 L 24 34 L 22 34 z M 32 34 C 30.666669 34 29.724724 34.814222 29.355469 35.552734 C 28.986212 36.291248 29 37 29 37 L 29 40 L 29 43 C 29 43.552283 29.447716 44 30 44 C 30.552284 44 31 43.552283 31 43 L 31 41 L 33 41 L 33 43 C 33 43.552283 33.447716 44 34 44 C 34.552284 44 35 43.552283 35 43 L 35 40 L 35 37 C 35 37 35.01379 36.291248 34.644531 35.552734 C 34.275276 34.814222 33.333331 34 32 34 z M 38.126953 34.003906 C 38.005417 34.007321 37.9375 34.011719 37.9375 34.011719 C 37.410539 34.044769 37.000049 34.481769 37 35.009766 L 37 43.009766 C 37 43.562049 37.447716 44.009766 38 44.009766 C 38.552284 44.009766 39 43.562049 39 43.009766 L 39 39.925781 C 39.01452 39.925485 39.026096 39.922275 39.041016 39.921875 C 39.009996 40.144246 39.054716 40.370586 39.167969 40.564453 L 41.167969 43.564453 C 41.474321 44.023959 42.095167 44.148128 42.554688 43.841797 C 43.014194 43.535444 43.138363 42.914599 42.832031 42.455078 L 40.886719 39.537109 C 41.261539 39.407186 41.643526 39.329459 41.990234 39.058594 C 42.54874 38.622261 43 37.86856 43 37.009766 C 43 36.15097 42.54874 35.395317 41.990234 34.958984 C 41.43173 34.522653 40.800291 34.317947 40.212891 34.189453 C 39.331789 33.996712 38.491562 33.993662 38.126953 34.003906 z M 32 36 C 32.666665 36 32.724726 36.18578 32.855469 36.447266 C 32.986212 36.70875 33 37 33 37 L 33 39 L 31 39 L 31 37 C 31 37 31.01379 36.70875 31.144531 36.447266 C 31.275274 36.18578 31.333335 36 32 36 z M 39 36.082031 C 39.314806 36.096091 39.410528 36.060198 39.787109 36.142578 C 40.199707 36.232838 40.568272 36.385552 40.759766 36.535156 C 40.951258 36.684758 41 36.743562 41 37.009766 C 41 37.275968 40.951259 37.332817 40.759766 37.482422 C 40.568272 37.632026 40.199707 37.786697 39.787109 37.876953 C 39.410528 37.959333 39.314806 37.92343 39 37.9375 L 39 36.082031 z " />
  </g>
</svg>
