<?xml version="1.0" encoding="UTF-8" standalone="no"?>
<!-- Created with Inkscape (http://www.inkscape.org/) -->

<svg
   width="48"
   height="48"
   viewBox="0 0 48 48.000002"
   version="1.1"
   id="svg5"
   inkscape:version="1.2.2 (1:1.2.2+202305151914+b0a8486541)"
   sodipodi:docname="text-x-html.svg"
   xmlns:inkscape="http://www.inkscape.org/namespaces/inkscape"
   xmlns:sodipodi="http://sodipodi.sourceforge.net/DTD/sodipodi-0.dtd"
   xmlns="http://www.w3.org/2000/svg"
   xmlns:svg="http://www.w3.org/2000/svg">
  <sodipodi:namedview
     id="namedview7"
     pagecolor="#ffffff"
     bordercolor="#000000"
     borderopacity="0.25"
     inkscape:showpageshadow="2"
     inkscape:pageopacity="0.0"
     inkscape:pagecheckerboard="0"
     inkscape:deskcolor="#d1d1d1"
     inkscape:document-units="px"
     showgrid="false"
     inkscape:zoom="16.791667"
     inkscape:cx="23.970223"
     inkscape:cy="24"
     inkscape:window-width="1920"
     inkscape:window-height="1008"
     inkscape:window-x="0"
     inkscape:window-y="0"
     inkscape:window-maximized="1"
     inkscape:current-layer="svg5" />
  <defs
     id="defs2" />
  <path
     id="rect234"
     style="opacity:0.2;stroke-width:0.75;stroke-linecap:round;stroke-linejoin:round"
     d="m 11,5 h 17 l 12,12 v 25 c 0,1.662 -1.338,3 -3,3 H 11 C 9.338,45 8,43.662 8,42 V 8 C 8,6.338 9.338,5 11,5 Z" />
  <path
     id="rect448"
     style="fill:#e0e0e0;fill-opacity:1;stroke-width:0.75;stroke-linecap:round;stroke-linejoin:round"
     d="m 11,4 h 17 l 4.5,7.5 7.5,4.5 v 25 c 0,1.662 -1.338,3 -3,3 H 11 C 9.338,44 8,42.662 8,41 V 7 C 8,5.338 9.338,4 11,4 Z" />
  <path
     d="m 24,20 c -5.522858,0 -10,4.477144 -10,10 0,5.522856 4.477142,10 10,10 5.522856,0 10,-4.477144 10,-10 0,-5.522856 -4.477144,-10 -10,-10 z m -0.935548,1.994142 c 0.1088,-0.0114 0.245686,0.0064 0.35547,0 0.013,0.05204 -0.07708,0.238754 -0.201172,0.509764 -0.790216,1.726288 -0.8369,3.747528 -0.10352,4.828124 0.13272,0.19592 0.253906,0.38202 0.253906,0.40625 0,0.02424 -0.14286,0.05078 -0.304688,0.05078 -0.3799,2e-6 -0.740064,-0.23084 -1.474608,-0.8125 -0.326312,-0.25839 -0.749712,-0.474962 -0.914064,-0.507812 -0.25808,-0.05156 -0.326284,-0.02922 -0.660156,0.304688 -0.310634,0.310584 -0.406248,0.47934 -0.406248,0.763672 0,1.078222 1.280826,1.933144 3.660154,2.4375 3.231224,0.684838 4.026106,1.298952 4.115236,2.998046 0.1119,2.130618 -1.02133,3.736742 -3.50586,4.98047 -0.296546,0.1485 -0.484954,0.207878 -0.609376,0.255858 -0.05514,-0.0048 -0.09934,0.0048 -0.1543,0 -0.02114,-0.06586 -0.05078,-0.218244 -0.05078,-0.507812 0,-1.131634 -0.445068,-2.297836 -1.117186,-2.949218 -0.18042,-0.17488 -0.684592,-0.54471 -1.117188,-0.8125 -0.432582,-0.267776 -0.869538,-0.578222 -0.966798,-0.710938 -0.16114,-0.220234 -0.17266,-0.354868 -0.04882,-0.761718 0.22568,-0.743064 0.493412,-1.159404 1.015626,-1.628906 0.273776,-0.246142 0.548724,-0.45018 0.609374,-0.45508 0.06066,-0.0048 -0.34908,-0.1299 -0.964844,-0.255858 -0.615732,-0.12622 -1.518682,-0.390048 -1.984374,-0.558594 -0.851564,-0.308126 -2.001132,-0.955678 -2.439452,-1.423828 -0.0186,-0.0198 -0.03468,-0.0332 -0.05078,-0.05078 0.628012,-2.501604 2.3902,-4.551006 4.726562,-5.53906 0.488854,-0.206768 0.99342,-0.348224 1.52539,-0.457032 0.264978,-0.05416 0.538902,-0.0757 0.8125,-0.10352 z m 7.625002,3.8125 c 0.19102,0.11808 0.913248,1.680236 1.11914,2.441404 0.26582,0.982672 0.24658,2.682022 0,3.658204 -0.09386,0.37154 -0.21585,0.718458 -0.25586,0.761718 -0.04,0.04326 -0.18674,-0.203394 -0.357422,-0.50586 -0.1707,-0.302418 -0.712908,-0.94574 -1.166016,-1.423828 -1.307874,-1.380072 -1.514642,-2.099756 -0.966796,-3.201172 0.276282,-0.555408 1.479112,-1.821706 1.626954,-1.730466 z"
     style="fill:#2095f2;fill-opacity:1;stroke-width:2"
     id="path308" />
  <path
     d="m 40,17 h -9 c -1.662,0 -3,-1.338 -3,-3 V 4 l 12,12 z"
     style="opacity:0.2;fill:#000000;stroke-width:0.75;stroke-linecap:round;stroke-linejoin:round"
     id="path611"
     sodipodi:nodetypes="cssccc" />
  <path
     id="rect600"
     style="fill:#f5f5f5;fill-opacity:1;stroke-width:0.75;stroke-linecap:round;stroke-linejoin:round"
     d="m 40,16 h -9 c -1.662,0 -3,-1.338 -3,-3 V 4 Z" />
  <path
     id="path1133"
     style="opacity:0.2;fill:#ffffff;fill-opacity:1;stroke-width:0.75;stroke-linecap:round;stroke-linejoin:round"
     d="M 11,4 C 9.338005,4 8,5.338005 8,7 V 8 C 8,6.338005 9.338005,5 11,5 h 17 l 11,11 h 1 L 28,4 Z" />
</svg>
