<?xml version="1.0" encoding="UTF-8" standalone="no"?>
<!-- Created with Inkscape (http://www.inkscape.org/) -->

<svg
   width="48"
   height="48"
   viewBox="0 0 48 48.000002"
   version="1.1"
   id="svg5"
   inkscape:version="1.3 (0e150ed6c4, 2023-07-21)"
   sodipodi:docname="text-enriched.svg"
   xmlns:inkscape="http://www.inkscape.org/namespaces/inkscape"
   xmlns:sodipodi="http://sodipodi.sourceforge.net/DTD/sodipodi-0.dtd"
   xmlns="http://www.w3.org/2000/svg"
   xmlns:svg="http://www.w3.org/2000/svg">
  <sodipodi:namedview
     id="namedview7"
     pagecolor="#ffffff"
     bordercolor="#000000"
     borderopacity="0.25"
     inkscape:showpageshadow="2"
     inkscape:pageopacity="0.0"
     inkscape:pagecheckerboard="0"
     inkscape:deskcolor="#d1d1d1"
     inkscape:document-units="px"
     showgrid="false"
     inkscape:zoom="16.791667"
     inkscape:cx="23.970223"
     inkscape:cy="23.970223"
     inkscape:window-width="1850"
     inkscape:window-height="1011"
     inkscape:window-x="70"
     inkscape:window-y="32"
     inkscape:window-maximized="1"
     inkscape:current-layer="svg5" />
  <defs
     id="defs2" />
  <path
     id="rect234"
     style="opacity:0.2;stroke-width:0.75;stroke-linecap:round;stroke-linejoin:round"
     d="m 11,5 h 17 l 12,12 v 25 c 0,1.662 -1.338,3 -3,3 H 11 C 9.338,45 8,43.662 8,42 V 8 C 8,6.338 9.338,5 11,5 Z" />
  <path
     id="rect448"
     style="fill:#e0e0e0;fill-opacity:1;stroke-width:0.75;stroke-linecap:round;stroke-linejoin:round"
     d="m 11,4 h 17 l 4.5,7.5 7.5,4.5 v 25 c 0,1.662 -1.338,3 -3,3 H 11 C 9.338,44 8,42.662 8,41 V 7 C 8,5.338 9.338,4 11,4 Z" />
  <path
     id="path2811"
     style="opacity:0.2;fill:#000000;fill-opacity:1;stroke-width:1"
     d="m 18,23 -4,10 h 2 l 0.80078,-2 h 4.39844 L 22,33 h 2 L 20,23 Z m 8,1 v 2 h 8 v -2 z m -7,1.5 1.40234,3.5 h -2.80468 z m 7,4.5 v 2 h 8 v -2 z m -12,6 v 2 h 16 v -2 z" />
  <path
     id="path2755"
     style="fill:#757575;fill-opacity:1;stroke-width:1"
     d="M 18 22 L 14 32 L 16 32 L 16.800781 30 L 21.199219 30 L 22 32 L 24 32 L 20 22 L 18 22 z M 26 23 L 26 25 L 34 25 L 34 23 L 26 23 z M 19 24.5 L 20.400391 28 L 17.599609 28 L 19 24.5 z M 26 29 L 26 31 L 34 31 L 34 29 L 26 29 z M 14 35 L 14 37 L 30 37 L 30 35 L 14 35 z " />
  <path
     d="m 40,17 h -9 c -1.662,0 -3,-1.338 -3,-3 V 4 l 12,12 z"
     style="opacity:0.2;fill:#000000;stroke-width:0.75;stroke-linecap:round;stroke-linejoin:round"
     id="path611"
     sodipodi:nodetypes="cssccc" />
  <path
     id="rect600"
     style="fill:#f5f5f5;fill-opacity:1;stroke-width:0.75;stroke-linecap:round;stroke-linejoin:round"
     d="m 40,16 h -9 c -1.662,0 -3,-1.338 -3,-3 V 4 Z" />
  <path
     id="path1133"
     style="opacity:0.2;fill:#ffffff;fill-opacity:1;stroke-width:0.75;stroke-linecap:round;stroke-linejoin:round"
     d="M 11,4 C 9.338005,4 8,5.338005 8,7 V 8 C 8,6.338005 9.338005,5 11,5 h 17 l 11,11 h 1 L 28,4 Z" />
</svg>
