<?xml version="1.0" encoding="UTF-8" standalone="no"?>
<!-- Created with Inkscape (http://www.inkscape.org/) -->

<svg
   width="48"
   height="48"
   viewBox="0 0 48 48.000002"
   version="1.1"
   id="svg5"
   inkscape:version="1.3 (0e150ed6c4, 2023-07-21)"
   sodipodi:docname="text-x-vala.svg"
   xmlns:inkscape="http://www.inkscape.org/namespaces/inkscape"
   xmlns:sodipodi="http://sodipodi.sourceforge.net/DTD/sodipodi-0.dtd"
   xmlns="http://www.w3.org/2000/svg"
   xmlns:svg="http://www.w3.org/2000/svg">
  <sodipodi:namedview
     id="namedview7"
     pagecolor="#ffffff"
     bordercolor="#000000"
     borderopacity="0.25"
     inkscape:showpageshadow="2"
     inkscape:pageopacity="0.0"
     inkscape:pagecheckerboard="0"
     inkscape:deskcolor="#d1d1d1"
     inkscape:document-units="px"
     showgrid="false"
     inkscape:zoom="16.729167"
     inkscape:cx="24"
     inkscape:cy="24"
     inkscape:window-width="1850"
     inkscape:window-height="1011"
     inkscape:window-x="70"
     inkscape:window-y="32"
     inkscape:window-maximized="1"
     inkscape:current-layer="svg5" />
  <defs
     id="defs2" />
  <path
     id="rect234"
     style="opacity:0.2;stroke-width:0.75;stroke-linecap:round;stroke-linejoin:round"
     d="m 11,5 h 17 l 12,12 v 25 c 0,1.662 -1.338,3 -3,3 H 11 C 9.338,45 8,43.662 8,42 V 8 C 8,6.338 9.338,5 11,5 Z" />
  <path
     id="rect448"
     style="fill:#e0e0e0;fill-opacity:1;stroke-width:0.75;stroke-linecap:round;stroke-linejoin:round"
     d="m 11,4 h 17 l 4.5,7.5 7.5,4.5 v 25 c 0,1.662 -1.338,3 -3,3 H 11 C 9.338,44 8,42.662 8,41 V 7 C 8,5.338 9.338,4 11,4 Z" />
  <path
     style="fill:#634d9f;fill-opacity:1;stroke-width:2"
     d="M 20.000582,39.999952 20,22.000542 c -1.240746,0.468628 -1.79982,0.98549 -2.497254,1.983528 -0.689652,0.998432 -1.034476,2.739454 -1.034476,4.223766 0,0.338432 0.0174,0.616276 0.05194,0.83353 0.04282,0.208234 0.08582,0.37745 0.12902,0.507646 0.0432,0.12158 0.08212,0.21706 0.11676,0.286472 0.0428,0.0694 0.06422,0.1302 0.06422,0.18236 -0.456522,0 -0.861284,-0.04334 -1.214282,-0.13 C 15.262544,29.79215 14.9652,29.644504 14.7239,29.444896 14.491164,29.24568 14.310188,28.980974 14.180976,28.650778 14.060324,28.321366 14,27.913522 14,27.427248 c 0,-0.590196 0.12474,-1.671414 0.37421,-2.244354 0.258424,-0.572548 0.607336,-1.1151 1.046736,-1.627648 0.447962,-0.511766 0.969286,-0.984706 1.563972,-1.418824 0.60325,-0.434116 1.24503,-0.80745 1.92534,-1.12 0.688874,-0.321176 1.403822,-0.568432 2.144846,-0.741764 0.749586,-0.18274 1.494892,-0.274118 2.235914,-0.274118 0.278844,-0.03532 0.687718,0.0502 0.708982,0.05176 v 16.405882 l 6.152304,-16.328234 h 1.8477 L 24.647752,40.000542 H 20 Z"
     id="path7" />
  <path
     d="m 40,17 h -9 c -1.662,0 -3,-1.338 -3,-3 V 4 l 12,12 z"
     style="opacity:0.2;fill:#000000;stroke-width:0.75;stroke-linecap:round;stroke-linejoin:round"
     id="path611"
     sodipodi:nodetypes="cssccc" />
  <path
     id="rect600"
     style="fill:#f5f5f5;fill-opacity:1;stroke-width:0.75;stroke-linecap:round;stroke-linejoin:round"
     d="m 40,16 h -9 c -1.662,0 -3,-1.338 -3,-3 V 4 Z" />
  <path
     id="path1133"
     style="opacity:0.2;fill:#ffffff;fill-opacity:1;stroke-width:0.75;stroke-linecap:round;stroke-linejoin:round"
     d="M 11,4 C 9.338005,4 8,5.338005 8,7 V 8 C 8,6.338005 9.338005,5 11,5 h 17 l 11,11 h 1 L 28,4 Z" />
</svg>
