<?xml version="1.0" encoding="UTF-8" standalone="no"?>
<!-- Created with Inkscape (http://www.inkscape.org/) -->

<svg
   width="48"
   height="48"
   viewBox="0 0 48 48.000003"
   version="1.1"
   id="svg5"
   inkscape:version="1.3.2 (091e20ef0f, 2023-11-25, custom)"
   sodipodi:docname="unknown.svg"
   xmlns:inkscape="http://www.inkscape.org/namespaces/inkscape"
   xmlns:sodipodi="http://sodipodi.sourceforge.net/DTD/sodipodi-0.dtd"
   xmlns="http://www.w3.org/2000/svg"
   xmlns:svg="http://www.w3.org/2000/svg">
  <sodipodi:namedview
     id="namedview7"
     pagecolor="#ffffff"
     bordercolor="#000000"
     borderopacity="0.25"
     inkscape:showpageshadow="2"
     inkscape:pageopacity="0.0"
     inkscape:pagecheckerboard="0"
     inkscape:deskcolor="#d1d1d1"
     inkscape:document-units="px"
     showgrid="false"
     inkscape:zoom="16.5625"
     inkscape:cx="23.969811"
     inkscape:cy="24"
     inkscape:window-width="1920"
     inkscape:window-height="1008"
     inkscape:window-x="0"
     inkscape:window-y="0"
     inkscape:window-maximized="1"
     inkscape:current-layer="svg5" />
  <defs
     id="defs2" />
  <path
     id="rect234"
     style="opacity:0.2;stroke-width:0.75;stroke-linecap:round;stroke-linejoin:round"
     d="m 11,5 h 17 l 12,12 v 25 c 0,1.662 -1.338,3 -3,3 H 11 C 9.338,45 8,43.662 8,42 V 8 C 8,6.338 9.338,5 11,5 Z" />
  <path
     id="rect448"
     style="fill:#e0e0e0;fill-opacity:1;stroke-width:0.75;stroke-linecap:round;stroke-linejoin:round"
     d="m 11,4 h 17 l 4.5,7.5 7.5,4.5 v 25 c 0,1.662 -1.338,3 -3,3 H 11 C 9.338,44 8,42.662 8,41 V 7 C 8,5.338 9.338,4 11,4 Z" />
  <path
     id="path1"
     style="opacity:0.2;fill:#000000"
     d="m 23.5,22 c -2.84208,0.002 -5.21429,2.1697 -5.47266,5 h 3.02344 c 0.23758,-1.16387 1.26134,-1.99987 2.44922,-2 1.38071,0 2.5,1.11929 2.5,2.5 0,2.5 -4,2.50001 -4,7.52148 l 3,-0.043 c -0.24369,-3.47577 3.91694,-4.37051 4,-7.47852 0,-3.03756 -2.46243,-5.5 -5.5,-5.5 z M 22,37 v 3.08594 h 3 V 37 Z" />
  <path
     id="path2"
     style="fill:#868686;fill-opacity:1"
     d="m 23.5,21 c -2.84208,0.002 -5.21429,2.1697 -5.47266,5 h 3.02344 c 0.23758,-1.16387 1.26134,-1.99987 2.44922,-2 1.38071,0 2.5,1.11929 2.5,2.5 0,2.5 -4,2.50001 -4,7.52148 l 3,-0.043 c -0.24369,-3.47577 3.91694,-4.37051 4,-7.47852 0,-3.03756 -2.46243,-5.5 -5.5,-5.5 z M 22,36 v 3.08594 h 3 V 36 Z" />
  <path
     d="m 40,17 h -9 c -1.662,0 -3,-1.338 -3,-3 V 4 l 12,12 z"
     style="opacity:0.2;fill:#000000;stroke-width:0.75;stroke-linecap:round;stroke-linejoin:round"
     id="path611"
     sodipodi:nodetypes="cssccc" />
  <path
     id="rect600"
     style="fill:#f5f5f5;fill-opacity:1;stroke-width:0.75;stroke-linecap:round;stroke-linejoin:round"
     d="m 40,16 h -9 c -1.662,0 -3,-1.338 -3,-3 V 4 Z" />
  <path
     id="path1133"
     style="opacity:0.2;fill:#ffffff;fill-opacity:1;stroke-width:0.75;stroke-linecap:round;stroke-linejoin:round"
     d="M 11,4 C 9.338005,4 8,5.338005 8,7 V 8 C 8,6.338005 9.338005,5 11,5 h 17 l 11,11 h 1 L 28,4 Z" />
</svg>
