<?xml version="1.0" encoding="UTF-8" standalone="no"?>
<!-- Created with Inkscape (http://www.inkscape.org/) -->

<svg
   width="24"
   height="24"
   viewBox="0 0 24 24"
   version="1.1"
   id="svg5"
   inkscape:version="1.4.3 (0d15f75042, 2025-12-25)"
   sodipodi:docname="text-html-symbolic.svg"
   xmlns:inkscape="http://www.inkscape.org/namespaces/inkscape"
   xmlns:sodipodi="http://sodipodi.sourceforge.net/DTD/sodipodi-0.dtd"
   xmlns="http://www.w3.org/2000/svg"
   xmlns:svg="http://www.w3.org/2000/svg">
  <sodipodi:namedview
     id="namedview7"
     pagecolor="#ffffff"
     bordercolor="#000000"
     borderopacity="0.25"
     inkscape:showpageshadow="2"
     inkscape:pageopacity="0.0"
     inkscape:pagecheckerboard="0"
     inkscape:deskcolor="#d1d1d1"
     inkscape:document-units="px"
     showgrid="false"
     showguides="true"
     inkscape:zoom="24.291667"
     inkscape:cx="12"
     inkscape:cy="12"
     inkscape:window-width="1440"
     inkscape:window-height="831"
     inkscape:window-x="0"
     inkscape:window-y="0"
     inkscape:window-maximized="1"
     inkscape:current-layer="svg5" />
  <defs
     id="defs2">
    <style
       id="current-color-scheme"
       type="text/css">
        .ColorScheme-Text { color:#dfdfdf; } .ColorScheme-Highlight { color:#4285f4; } .ColorScheme-NeutralText { color:#ff9800; } .ColorScheme-PositiveText { color:#4caf50; } .ColorScheme-NegativeText { color:#f44336; }
     </style>
  </defs>
  <path
     d="m 11.5,6.94 c 0.07,-0.01 0.15,0 0.22,0 0.01,0.03 -0.05,0.14 -0.13,0.31 -0.48,1.06 -0.51,2.3 -0.06,2.97 0.08,0.12 0.16,0.23 0.16,0.25 0,0.01 -0.09,0.03 -0.19,0.03 -0.23,0 -0.45,-0.14 -0.91,-0.5 C 10.39,9.84 10.13,9.71 10.03,9.69 9.87,9.66 9.83,9.67 9.63,9.87 c -0.2,0.2 -0.25,0.3 -0.25,0.47 0,0.67 0.78,1.19 2.25,1.5 1.98,0.42 2.47,0.8 2.53,1.85 0.07,1.31 -0.63,2.3 -2.16,3.06 -0.18,0.09 -0.3,0.13 -0.37,0.16 -0.04,-0.01 -0.06,0 -0.1,0 C 11.52,16.87 11.5,16.77 11.5,16.59 11.5,15.9 11.23,15.18 10.81,14.78 10.7,14.67 10.39,14.45 10.13,14.28 9.86,14.12 9.59,13.93 9.53,13.84 9.43,13.71 9.42,13.63 9.5,13.37 c 0.14,-0.45 0.3,-0.71 0.63,-1 0.16,-0.15 0.33,-0.27 0.37,-0.28 0.04,0 -0.21,-0.08 -0.59,-0.15 C 9.53,11.86 8.97,11.7 8.69,11.59 8.16,11.4 7.46,11.01 7.19,10.72 L 7.16,10.69 C 7.54,9.15 8.63,7.89 10.06,7.28 10.36,7.15 10.67,7.07 11,7 11.16,6.97 11.33,6.95 11.5,6.94 Z m 4.69,2.34 c 0.12,0.07 0.56,1.03 0.69,1.5 0.16,0.61 0.15,1.65 0,2.25 -0.06,0.23 -0.14,0.44 -0.16,0.47 C 16.69,13.53 16.61,13.37 16.5,13.19 16.4,13 16.06,12.61 15.78,12.31 14.98,11.46 14.85,11.02 15.19,10.34 15.36,10 16.1,9.23 16.19,9.28 Z M 12,4 c -4.418278,0 -8,3.581722 -8,8 0,4.418278 3.581722,8 8,8 4.418278,0 8,-3.581722 8,-8 0,-4.418278 -3.581722,-8 -8,-8 z m 0,2 c 3.313708,0 6,2.6862915 6,6 0,3.313708 -2.686292,6 -6,6 C 8.6862915,18 6,15.313708 6,12 6,8.6862915 8.6862915,6 12,6 Z"
     style="fill:currentColor;fill-opacity:1"
     class="ColorScheme-Text"
     id="path2973" />
</svg>
