<?xml version="1.0" encoding="UTF-8" standalone="no"?>
<svg
   width="24"
   height="24"
   version="1.1"
   id="svg2"
   sodipodi:docname="applications-multimedia-symbolic.svg"
   inkscape:version="1.4.3 (0d15f75042, 2025-12-25)"
   xmlns:inkscape="http://www.inkscape.org/namespaces/inkscape"
   xmlns:sodipodi="http://sodipodi.sourceforge.net/DTD/sodipodi-0.dtd"
   xmlns="http://www.w3.org/2000/svg"
   xmlns:svg="http://www.w3.org/2000/svg">
  <defs
     id="defs2">
    <style
       id="current-color-scheme"
       type="text/css">
        .ColorScheme-Text { color:#4d4d4d; } .ColorScheme-Highlight { color:#4285f4; } .ColorScheme-NeutralText { color:#ff9800; } .ColorScheme-PositiveText { color:#4caf50; } .ColorScheme-NegativeText { color:#f44336; }
     </style>
  </defs>
  <sodipodi:namedview
     id="namedview2"
     pagecolor="#ffffff"
     bordercolor="#000000"
     borderopacity="0.25"
     inkscape:showpageshadow="2"
     inkscape:pageopacity="0.0"
     inkscape:pagecheckerboard="0"
     inkscape:deskcolor="#d1d1d1"
     inkscape:zoom="33.625"
     inkscape:cx="11.98513"
     inkscape:cy="12"
     inkscape:window-width="1920"
     inkscape:window-height="1010"
     inkscape:window-x="0"
     inkscape:window-y="0"
     inkscape:window-maximized="1"
     inkscape:current-layer="svg2" />
  <path
     id="path1"
     style="fill:currentColor"
     class="ColorScheme-Text"
     d="m 5,5 v 15 h 1 v -1 h 1 v 1 H 8 V 17 H 9 V 15 H 8 v -5 h 8 v 1 h 3 V 5 H 18 V 6 H 17 V 5 H 16 V 8 H 8 V 5 H 7 V 6 H 6 V 5 Z M 6,7 H 7 V 8 H 6 Z m 11,0 h 1 V 8 H 17 Z M 6,9 h 1 v 1 H 6 Z m 11,0 h 1 v 1 H 17 Z M 6,11 h 1 v 1 H 6 Z m 7,1 v 4.279297 C 12.7,16.109297 12.36,16 12,16 c -1.11,0 -2,0.9 -2,2 0,1.1 0.89,2 2,2 1.1,0 2,-0.9 2,-2 v -4 h 4 v 2.279297 C 17.7,16.109297 17.36,16 17,16 c -1.11,0 -2,0.9 -2,2 0,1.1 0.89,2 2,2 1.1,0 2,-0.9 2,-2 v -6 z m -7,1 h 1 v 1 H 6 Z m 0,2 h 1 v 1 H 6 Z m 0,2 h 1 v 1 H 6 Z" />
</svg>
