<?xml version="1.0" encoding="UTF-8" standalone="no"?>
<!-- Created with Inkscape (http://www.inkscape.org/) -->

<svg
   width="24"
   height="24"
   viewBox="0 0 24 24"
   version="1.1"
   id="svg5"
   inkscape:version="1.4.3 (0d15f75042, 2025-12-25)"
   sodipodi:docname="applications-internet-symbolic.svg"
   xmlns:inkscape="http://www.inkscape.org/namespaces/inkscape"
   xmlns:sodipodi="http://sodipodi.sourceforge.net/DTD/sodipodi-0.dtd"
   xmlns="http://www.w3.org/2000/svg"
   xmlns:svg="http://www.w3.org/2000/svg">
  <sodipodi:namedview
     id="namedview7"
     pagecolor="#ffffff"
     bordercolor="#000000"
     borderopacity="0.25"
     inkscape:showpageshadow="2"
     inkscape:pageopacity="0.0"
     inkscape:pagecheckerboard="0"
     inkscape:deskcolor="#d1d1d1"
     inkscape:document-units="px"
     showgrid="false"
     inkscape:zoom="33.625"
     inkscape:cx="11.98513"
     inkscape:cy="12"
     inkscape:window-width="1920"
     inkscape:window-height="1010"
     inkscape:window-x="0"
     inkscape:window-y="0"
     inkscape:window-maximized="1"
     inkscape:current-layer="svg5" />
  <defs
     id="defs2">
    <style
       id="current-color-scheme"
       type="text/css">
        .ColorScheme-Text { color:#4d4d4d; } .ColorScheme-Highlight { color:#4285f4; } .ColorScheme-NeutralText { color:#ff9800; } .ColorScheme-PositiveText { color:#4caf50; } .ColorScheme-NegativeText { color:#f44336; }
     </style>
  </defs>
  <path
     d="m 12,4 c -4.418278,0 -8,3.581722 -8,8 0,4.418278 3.581722,8 8,8 4.418278,0 8,-3.581722 8,-8 0,-4.418278 -3.581722,-8 -8,-8 z m 2.304688,2.4628906 C 15.517627,6.9699311 16.530464,7.8613104 17.1875,9 H 15.503906 C 15.222633,8.1461563 14.817854,7.2993746 14.304688,6.4628906 Z m -4.6113286,0.00391 C 9.1812973,7.3020617 8.7769473,8.1474312 8.4960938,9 H 6.8105469 C 7.4682445,7.8627688 8.4810084,6.9728266 9.6933594,6.4667969 Z M 12,6.609375 C 12.596402,7.420226 13.052829,8.2159929 13.376953,9 H 10.623047 C 10.947171,8.2159929 11.403598,7.420226 12,6.609375 Z M 6.0898438,11 h 1.9667968 c -0.036816,0.337751 -0.057608,0.676423 -0.056641,1.015625 9.374e-4,0.328657 0.018432,0.657479 0.054687,0.984375 h -1.96875 c -0.056525,-0.330348 -0.085271,-0.664851 -0.085937,-1 0.00196,-0.335258 0.03201,-0.669762 0.089844,-1 z m 3.9863282,0 h 3.847656 c 0.04619,0.338032 0.07713,0.674539 0.07617,1.009766 -9.38e-4,0.328851 -0.03382,0.658838 -0.08008,0.990234 h -3.83984 C 10.033815,12.668604 10.000938,12.338617 10,12.009766 9.9990441,11.674539 10.029982,11.338032 10.076172,11 Z m 5.867187,0 h 1.970703 c 0.05653,0.330348 0.08527,0.664851 0.08594,1 -0.002,0.335258 -0.03201,0.669762 -0.08984,1 h -1.96485 c 0.03625,-0.326896 0.05375,-0.655718 0.05469,-0.984375 C 16.000969,11.676423 15.980182,11.337751 15.943362,11 Z M 6.8125,15 H 8.5 c 0.2829315,0.856334 0.6906009,1.702417 1.203125,2.539062 C 8.4869936,17.032957 7.4712063,16.140712 6.8125,15 Z m 3.818359,0 h 2.738282 C 13.0447,15.783493 12.590675,16.577094 12,17.384766 11.409325,16.577094 10.9553,15.783493 10.630859,15 Z M 15.5,15 h 1.689453 c -0.659369,1.139253 -1.675082,2.030061 -2.890625,2.535156 C 14.810255,16.699728 15.217491,15.855055 15.5,15 Z"
     style="fill:currentColor;fill-opacity:1"
     class="ColorScheme-Text"
     id="path417" />
</svg>
