<?xml version="1.0" encoding="UTF-8" standalone="no"?>
<svg
   height="24"
   viewBox="0 0 24 24"
   width="24"
   version="1.1"
   id="svg2"
   sodipodi:docname="emoji-objects-symbolic.svg"
   inkscape:version="1.4.3 (0d15f75042, 2025-12-25)"
   xmlns:inkscape="http://www.inkscape.org/namespaces/inkscape"
   xmlns:sodipodi="http://sodipodi.sourceforge.net/DTD/sodipodi-0.dtd"
   xmlns="http://www.w3.org/2000/svg"
   xmlns:svg="http://www.w3.org/2000/svg">
  <defs
     id="defs2">
    <style
       id="current-color-scheme"
       type="text/css">
        .ColorScheme-Text { color:#4d4d4d; } .ColorScheme-Highlight { color:#4285f4; } .ColorScheme-NeutralText { color:#ff9800; } .ColorScheme-PositiveText { color:#4caf50; } .ColorScheme-NegativeText { color:#f44336; }
     </style>
  </defs>
  <sodipodi:namedview
     id="namedview2"
     pagecolor="#ffffff"
     bordercolor="#000000"
     borderopacity="0.25"
     inkscape:showpageshadow="2"
     inkscape:pageopacity="0.0"
     inkscape:pagecheckerboard="0"
     inkscape:deskcolor="#d1d1d1"
     inkscape:zoom="33.625"
     inkscape:cx="11.98513"
     inkscape:cy="12"
     inkscape:window-width="1920"
     inkscape:window-height="1010"
     inkscape:window-x="0"
     inkscape:window-y="0"
     inkscape:window-maximized="1"
     inkscape:current-layer="svg2" />
  <path
     id="path1"
     style="fill:currentColor"
     class="ColorScheme-Text"
     d="M 11.996094,4 C 9.1640618,4 6.707031,5.9999997 6.125,8.7773438 5.597656,11.3125 6.816406,13.8125 9,15.105469 l 0.00391,0.898437 c 0,0.550782 0.445313,0.996094 1,0.996094 h 4 c 0.550782,0 0.996094,-0.445312 1,-0.996094 V 15.101562 C 17.187496,13.808595 18.402344,11.304688 17.875,8.7734375 17.292969,5.9960935 14.832031,4 12,4 Z m 0,2 c 1.902344,0 3.53125,1.3203118 3.917968,3.1835938 0.390626,1.8593752 -0.570311,3.7226562 -2.312499,4.4843752 -0.363282,0.15625 -0.597657,0.515625 -0.597657,0.914062 V 15 H 11 V 14.582031 C 11,14.183594 10.765625,13.828125 10.398438,13.667969 8.6601555,12.90625 7.6953123,11.042969 8.0820312,9.1835938 8.4726562,7.3242187 10.097656,6 11.996094,6 Z M 10,18 v 1 c 0,0.554688 0.449219,1 1,1 h 2 c 0.554688,0 1,-0.445312 1,-1 v -1 z" />
  <path
     id="path2"
     style="opacity:0.35;fill:currentColor"
     class="ColorScheme-Text"
     d="m 11,10 c -0.128418,0 -0.255859,0.04883 -0.351562,0.144531 -0.195313,0.195313 -0.195313,0.515625 0,0.710938 l 1,1 c 0.191406,0.191406 0.511718,0.191406 0.707031,0 l 1,-1 c 0.191406,-0.195313 0.191406,-0.515625 0,-0.710938 -0.195313,-0.1914057 -0.515625,-0.1914057 -0.707031,0 L 12,10.792969 11.355469,10.144531 C 11.257812,10.048828 11.128418,10 11,10 Z" />
</svg>
