<?xml version="1.0" encoding="UTF-8" standalone="no"?>
<!-- Created with Inkscape (http://www.inkscape.org/) -->

<svg
   width="22"
   height="22"
   viewBox="0 0 22 22"
   version="1.1"
   id="svg5"
   inkscape:version="1.4.3 (0d15f75042, 2025-12-25)"
   sodipodi:docname="camera-switch-symbolic.svg"
   xmlns:inkscape="http://www.inkscape.org/namespaces/inkscape"
   xmlns:sodipodi="http://sodipodi.sourceforge.net/DTD/sodipodi-0.dtd"
   xmlns="http://www.w3.org/2000/svg"
   xmlns:svg="http://www.w3.org/2000/svg">
  <sodipodi:namedview
     id="namedview7"
     pagecolor="#ffffff"
     bordercolor="#000000"
     borderopacity="0.25"
     inkscape:showpageshadow="2"
     inkscape:pageopacity="0.0"
     inkscape:pagecheckerboard="0"
     inkscape:deskcolor="#d1d1d1"
     inkscape:document-units="px"
     showgrid="false"
     showguides="true"
     inkscape:zoom="37.772727"
     inkscape:cx="11"
     inkscape:cy="11"
     inkscape:window-width="1920"
     inkscape:window-height="1012"
     inkscape:window-x="0"
     inkscape:window-y="0"
     inkscape:window-maximized="1"
     inkscape:current-layer="svg5" />
  <defs
     id="defs2">
    <style
       id="current-color-scheme"
       type="text/css">
        .ColorScheme-Text { color:#4d4d4d; } .ColorScheme-Highlight { color:#4285f4; } .ColorScheme-NeutralText { color:#ff9800; } .ColorScheme-PositiveText { color:#4caf50; } .ColorScheme-NegativeText { color:#f44336; }
     </style>
  </defs>
  <path
     id="path298"
     style="fill:currentColor"
     class="ColorScheme-Text"
     d="M 11,9 C 9.8920023,9 9.0000003,9.892002 9.0000003,11 v 3 c 0,1.107998 0.892002,2 1.9999997,2 h 3 c 1.107998,0 2,-0.892002 2,-2 V 13.794922 L 18.353516,14.9375 C 18.640714,15.11488 19.00021,14.891559 19,14.537109 V 10.460938 C 19.000287,10.201548 18.799309,9.99274 18.556641,10 c -0.07157,0.0022 -0.141185,0.02414 -0.203125,0.0625 L 16,11.205078 V 11 C 16,9.892002 15.107998,9 14,9 Z m 0,2 h 3 v 3 h -3 z" />
  <path
     id="path585"
     style="opacity:0.35;fill:currentColor"
     class="ColorScheme-Text"
     d="m 8.0000003,5 c -1.1079969,0 -2,0.8920033 -2,2 V 7.2050781 L 3.6464847,6.0625 C 3.5845447,6.024137 3.5149296,6.00222 3.4433597,6 3.2006919,5.99274 2.9997133,6.2015484 3.0000003,6.4609375 v 4.0761715 c -2.1e-4,0.35445 0.3592867,0.577771 0.6464844,0.400391 L 6.0000003,9.794922 V 10 c 0,1.107997 0.8920031,2 2,2 V 7 H 11 v 1 h 2 V 7 C 13,5.8920033 12.107997,5 11,5 Z" />
</svg>
