<?xml version="1.0" encoding="UTF-8" standalone="no"?>
<!-- Created with Inkscape (http://www.inkscape.org/) -->

<svg
   width="256"
   height="256"
   viewBox="0 0 256 256"
   version="1.1"
   id="svg5"
   inkscape:version="1.4.3 (0d15f75042, 2025-12-25)"
   sodipodi:docname="user-trash.svg"
   xmlns:inkscape="http://www.inkscape.org/namespaces/inkscape"
   xmlns:sodipodi="http://sodipodi.sourceforge.net/DTD/sodipodi-0.dtd"
   xmlns="http://www.w3.org/2000/svg"
   xmlns:svg="http://www.w3.org/2000/svg">
  <sodipodi:namedview
     id="namedview7"
     pagecolor="#ffffff"
     bordercolor="#000000"
     borderopacity="0.25"
     inkscape:showpageshadow="2"
     inkscape:pageopacity="0.0"
     inkscape:pagecheckerboard="0"
     inkscape:deskcolor="#d1d1d1"
     inkscape:document-units="px"
     showgrid="false"
     inkscape:zoom="1.8789062"
     inkscape:cx="128"
     inkscape:cy="127.73389"
     inkscape:window-width="1440"
     inkscape:window-height="833"
     inkscape:window-x="0"
     inkscape:window-y="0"
     inkscape:window-maximized="1"
     inkscape:current-layer="svg5" />
  <defs
     id="defs2">
    <style
       type="text/css"
       id="current-color-scheme">
        .ColorScheme-Text {
        color:#31363b;
        }
        .ColorScheme-Accent {
        color:#3daee9;
        }
     </style>
  </defs>
  <rect
     style="opacity:0.2;fill:#000000;fill-opacity:1;stroke-width:8;stroke-linecap:square"
     id="rect1972"
     width="175.99998"
     height="223.99998"
     x="40"
     y="18"
     ry="23.999998" />
  <rect
     style="fill:#c9c9c9;fill-opacity:1;stroke-width:8;stroke-linecap:square"
     id="rect2026"
     width="175.99998"
     height="223.99998"
     x="40"
     y="16"
     ry="23.999998" />
  <rect
     style="fill:#7e7e7e;fill-opacity:1;stroke-width:8;stroke-linecap:square"
     id="rect2112"
     width="175.99998"
     height="71.999992"
     x="40"
     y="16"
     ry="23.999998" />
  <path
     id="rect2107"
     style="fill:#a6a6a6;fill-opacity:1;stroke-width:8;stroke-linecap:square"
     d="M 64.000002,16 C 50.704016,16 40,26.704012 40,39.999998 v 23.999998 c 0,13.295988 10.704016,24 24.000002,24 H 192 c 13.29598,0 23.99998,-10.704012 23.99998,-24 V 39.999998 C 215.99998,26.704012 205.29598,16 192,16 Z m 0,15.999998 H 192 c 4.43198,0 8,3.568004 8,8 v 23.999998 c 0,4.431996 -3.56802,8 -8,8 H 64.000002 c -4.431996,0 -8,-3.568004 -8,-8 V 39.999998 c 0,-4.431996 3.568004,-8 8,-8 z"
     sodipodi:nodetypes="ssssssssssssssssss" />
  <path
     id="rect3237"
     style="opacity:0.2;fill:#ffffff;fill-opacity:1;stroke-width:8;stroke-linecap:square"
     d="M 64.00001,16 C 50.704024,16 40.000012,26.704016 40.000012,39.999998 v 2 C 40.000012,28.704012 50.704024,18 64.00001,18 H 192 c 13.29598,0 24,10.704012 24,23.999998 v -2 C 216,26.704016 205.29598,16 192,16 Z" />
  <g
     id="g1"
     style="fill:currentColor"
     class="ColorScheme-Accent"
     transform="matrix(3.9999998,0,0,3.9999998,1.4e-5,1e-6)">
    <rect
       style="opacity:1;stroke-width:4;stroke-linecap:square"
       id="rect776"
       width="4"
       height="30"
       x="15"
       y="26"
       ry="2" />
    <rect
       style="opacity:1;stroke-width:4;stroke-linecap:square"
       id="rect830"
       width="4"
       height="30"
       x="25"
       y="26"
       ry="2" />
    <rect
       style="opacity:1;stroke-width:4;stroke-linecap:square"
       id="rect832"
       width="4"
       height="30"
       x="35"
       y="26"
       ry="2" />
    <rect
       style="opacity:1;stroke-width:4;stroke-linecap:square"
       id="rect834"
       width="4"
       height="30"
       x="45"
       y="26"
       ry="2" />
  </g>
</svg>
