<?xml version="1.0" encoding="UTF-8" standalone="no"?>
<!-- Created with Inkscape (http://www.inkscape.org/) -->

<svg
   width="16"
   height="16"
   viewBox="0 0 16 16"
   version="1.1"
   id="svg5"
   inkscape:version="1.3 (0e150ed6c4, 2023-07-21)"
   sodipodi:docname="user-trash-symbolic.svg"
   xmlns:inkscape="http://www.inkscape.org/namespaces/inkscape"
   xmlns:sodipodi="http://sodipodi.sourceforge.net/DTD/sodipodi-0.dtd"
   xmlns="http://www.w3.org/2000/svg"
   xmlns:svg="http://www.w3.org/2000/svg">
  <sodipodi:namedview
     id="namedview7"
     pagecolor="#ffffff"
     bordercolor="#000000"
     borderopacity="0.25"
     inkscape:showpageshadow="2"
     inkscape:pageopacity="0.0"
     inkscape:pagecheckerboard="0"
     inkscape:deskcolor="#d1d1d1"
     inkscape:document-units="px"
     showgrid="false"
     inkscape:zoom="48.9375"
     inkscape:cx="8"
     inkscape:cy="8"
     inkscape:window-width="1920"
     inkscape:window-height="984"
     inkscape:window-x="0"
     inkscape:window-y="29"
     inkscape:window-maximized="1"
     inkscape:current-layer="svg5" />
  <defs
     id="defs2" />
  <path
     id="path5775"
     style="opacity:1;fill:#dfdfdf;fill-opacity:1"
     d="M 7 1 C 6.446003 1 6 1.446003 6 2 L 3 2 C 2.4460036 2 2 2.4460036 2 3 L 2 4 L 14 4 L 14 3 C 14 2.4460036 13.553994 2 13 2 L 10 2 C 10 1.446003 9.553997 1 9 1 L 7 1 z M 3 5 L 3 13 C 3 14.107995 3.8920055 15 5 15 L 11 15 C 12.107995 15 13 14.107995 13 13 L 13 5 L 11 5 L 11 13 L 5 13 L 5 5 L 3 5 z " />
</svg>
