<?xml version="1.0" encoding="UTF-8" standalone="no"?>
<!-- Created with Inkscape (http://www.inkscape.org/) -->

<svg
   width="16"
   height="16"
   viewBox="0 0 16 16"
   version="1.1"
   id="svg5"
   inkscape:version="1.2.2 (1:1.2.2+202305151914+b0a8486541)"
   sodipodi:docname="applications-internet-symbolic.svg"
   xmlns:inkscape="http://www.inkscape.org/namespaces/inkscape"
   xmlns:sodipodi="http://sodipodi.sourceforge.net/DTD/sodipodi-0.dtd"
   xmlns="http://www.w3.org/2000/svg"
   xmlns:svg="http://www.w3.org/2000/svg">
  <sodipodi:namedview
     id="namedview7"
     pagecolor="#ffffff"
     bordercolor="#000000"
     borderopacity="0.25"
     inkscape:showpageshadow="2"
     inkscape:pageopacity="0.0"
     inkscape:pagecheckerboard="0"
     inkscape:deskcolor="#d1d1d1"
     inkscape:document-units="px"
     showgrid="false"
     inkscape:zoom="51.875"
     inkscape:cx="7.6144578"
     inkscape:cy="8"
     inkscape:window-width="1920"
     inkscape:window-height="1008"
     inkscape:window-x="0"
     inkscape:window-y="0"
     inkscape:window-maximized="1"
     inkscape:current-layer="svg5" />
  <defs
     id="defs2" />
  <path
     d="M 8,0 C 3.581722,0 0,3.581722 0,8 c 0,4.418278 3.581722,8 8,8 4.418278,0 8,-3.581722 8,-8 C 16,3.581722 12.418278,0 8,0 Z m 2.304688,2.4628906 C 11.517627,2.9699311 12.530464,3.8613104 13.1875,5 H 11.503906 C 11.222633,4.1461563 10.817854,3.2993746 10.304688,2.4628906 Z m -4.6113286,0.00391 C 5.1812973,3.3020617 4.7769473,4.1474312 4.4960938,5 H 2.8105469 C 3.4682445,3.8627688 4.4810084,2.9728266 5.6933594,2.4667969 Z M 8,2.609375 C 8.5964021,3.420226 9.0528286,4.2159929 9.3769531,5 H 6.6230469 C 6.9471713,4.2159929 7.403598,3.420226 8,2.609375 Z M 2.0898438,7 H 4.0566406 C 4.0198246,7.3377506 3.9990326,7.6764232 3.9999996,8.015625 4.000937,8.344282 4.0184316,8.673104 4.0546866,9 h -1.96875 C 2.0294116,8.669652 2.0006656,8.335149 1.9999996,8 c 0.00196,-0.335258 0.03201,-0.6697622 0.089844,-1 z m 3.9863281,0 h 3.8476562 c 0.04619,0.3380323 0.07713,0.6745387 0.07617,1.009766 C 9.9990601,8.338617 9.9661781,8.668604 9.9199181,9 h -3.83984 C 6.0338154,8.668604 6.0009377,8.338617 6,8.009766 5.9990441,7.6745387 6.029982,7.3380323 6.0761719,7 Z m 5.8671871,0 h 1.970703 c 0.05653,0.3303481 0.08527,0.6648515 0.08594,1 -0.002,0.335258 -0.03201,0.669762 -0.08984,1 h -1.96485 c 0.03625,-0.326896 0.05375,-0.655718 0.05469,-0.984375 C 12.000969,7.6764232 11.980182,7.3377506 11.943362,7 Z M 2.8125,11 H 4.5 c 0.2829315,0.856334 0.6906009,1.702417 1.203125,2.539062 C 4.4869936,13.032957 3.4712063,12.140712 2.8125,11 Z m 3.8183594,0 H 9.3691406 C 9.0447003,11.783493 8.5906746,12.577094 8,13.384766 7.4093254,12.577094 6.9552997,11.783493 6.6308594,11 Z M 11.5,11 h 1.689453 c -0.659369,1.139253 -1.675082,2.030061 -2.890625,2.535156 C 10.810255,12.699728 11.217491,11.855055 11.5,11 Z"
     style="fill:#dfdfdf;fill-opacity:1"
     id="path417" />
</svg>
