<?xml version="1.0" encoding="UTF-8" standalone="no"?>
<!-- Created with Inkscape (http://www.inkscape.org/) -->

<svg
   width="16"
   height="16"
   viewBox="0 0 16 16"
   version="1.1"
   id="svg5"
   inkscape:version="1.3.2 (091e20ef0f, 2023-11-25, custom)"
   sodipodi:docname="applications-health-symbolic.svg"
   xmlns:inkscape="http://www.inkscape.org/namespaces/inkscape"
   xmlns:sodipodi="http://sodipodi.sourceforge.net/DTD/sodipodi-0.dtd"
   xmlns="http://www.w3.org/2000/svg"
   xmlns:svg="http://www.w3.org/2000/svg">
  <sodipodi:namedview
     id="namedview7"
     pagecolor="#ffffff"
     bordercolor="#000000"
     borderopacity="0.25"
     inkscape:showpageshadow="2"
     inkscape:pageopacity="0.0"
     inkscape:pagecheckerboard="0"
     inkscape:deskcolor="#d1d1d1"
     inkscape:document-units="px"
     showgrid="false"
     inkscape:zoom="51.875"
     inkscape:cx="7.2481928"
     inkscape:cy="7.9903614"
     inkscape:window-width="1878"
     inkscape:window-height="1052"
     inkscape:window-x="0"
     inkscape:window-y="0"
     inkscape:window-maximized="1"
     inkscape:current-layer="svg5" />
  <defs
     id="defs2" />
  <path
     d="M 5.2148,1.0000542 C 2.9347,1.0000903 1.051,2.8416542 1,5.1211542 v 0.021484 c 0,0.9829 0.26727,1.7666 0.49219,2.3711 l 0.00586,0.021484 0.00977,0.019531 c 1.1209,2.6535998 3.2219,4.7457998 5.8086,7.1737998 l 0.68359,0.64258 0.68359,-0.64258 c 2.5867,-2.428 4.6877,-4.5202 5.8086,-7.1737998 l 0.0098,-0.019531 0.0059,-0.021484 c 0.22484,-0.60452 0.49219,-1.3875 0.49219,-2.3711 v -0.023438 c -0.04777,-2.0635 -1.5037,-3.5607 -3.1719,-3.9863 -1.3165,-0.33588999 -2.8192,0.00526 -3.9082,1.0312 -0.90788,-1.0203 -1.6609,-1.16429999 -2.7051,-1.1641 z m 5.4336,1.9902 c 0.22746,-0.00636 0.45875,0.022203 0.68555,0.080078 0.90396,0.23064 1.6298,0.90649 1.6621,2.0859 -0.0025,0.61728 -0.15314,1.0892 -0.35547,1.6348 -0.17334,0.40805 -0.38732,0.80968 -0.63281,1.209 -0.09773,0.15895 -0.20019,0.31813 -0.30859,0.47656 -0.05403,0.078959 -0.10942,0.15741 -0.16602,0.23633 0.05667,-0.079168 0.11192,-0.15713 0.16602,-0.23633 0.1082,-0.1584 0.21093,-0.31771 0.30859,-0.47656 h -0.39062 l -0.72266,-1.4473 c -0.34347,-0.68671 -1.3006,-0.74626 -1.7266,-0.10742 l -0.94531,1.4199 -1.2949,-3.2363 c -0.14649,-0.36524 -0.49354,-0.61062 -0.88672,-0.62695 -0.39303,-0.016374 -0.75916,0.19917 -0.93555,0.55078 l -1.4395,2.8789 c -0.11179,-0.21203 -0.21533,-0.42565 -0.30664,-0.64062 -0.2021,-0.54499 -0.3526,-1.0176 -0.35547,-1.6328 0.032041,-1.2102 0.99906,-2.1582 2.2109,-2.1582 0.7937,-1.44e-4 1.5224,0.42126 1.918,1.1094 l 0.86523,1.5059 0.86914,-1.5039 c 0.4447,-0.77167 1.0989,-1.102 1.7813,-1.1211 z m -4.75,4.4473 1.1738,2.9335998 c 0.29931,0.74662 1.3128,0.85235 1.7598,0.18359 l 1.0449,-1.5663998 0.22852,0.45898 c 0.10451,0.20321 0.27545,0.3645 0.48438,0.45703 C 9.84777,10.764824 8.9743,11.642254 8,12.576254 6.8142,11.439554 5.7762,10.385954 4.9453,9.3457542 l 0.95312,-1.9082 z m -2.2168,0.023438 c 0.021591,0.0406 0.044095,0.080577 0.066406,0.12109 C 3.72573,7.5416452 3.70315,7.5015062 3.6816,7.4609922 Z m 0.17188,0.30859 c 0.027567,0.047576 0.055441,0.095087 0.083984,0.14258 C 3.908865,7.8646232 3.881093,7.8172062 3.85348,7.7695822 Z m 0.24219,0.39844 c 0.042303,0.066207 0.086705,0.13115 0.13086,0.19727 -0.044032,-0.065879 -0.088668,-0.1313 -0.13086,-0.19727 z m 0.1582,0.23828 c 0.04999,0.074206 0.10006,0.1485 0.15234,0.22266 -0.052419,-0.074291 -0.10222,-0.14831 -0.15234,-0.22266 z m 6.7344,1.0195 c -0.12213,0.15105 -0.24828,0.30317 -0.37891,0.45508 0.13056,-0.15186 0.25695,-0.30402 0.37891,-0.45508 z"
     style="fill:#dfdfdf;-inkscape-stroke:none;fill-opacity:1"
     id="path1" />
</svg>
