<?xml version="1.0" encoding="UTF-8" standalone="no"?>
<!-- Created with Inkscape (http://www.inkscape.org/) -->

<svg
   width="128"
   height="128"
   viewBox="0 0 128 128"
   version="1.1"
   id="svg5"
   inkscape:version="1.2.2 (1:1.2.2+202305151914+b0a8486541)"
   sodipodi:docname="dialog-question.svg"
   xmlns:inkscape="http://www.inkscape.org/namespaces/inkscape"
   xmlns:sodipodi="http://sodipodi.sourceforge.net/DTD/sodipodi-0.dtd"
   xmlns="http://www.w3.org/2000/svg"
   xmlns:svg="http://www.w3.org/2000/svg">
  <sodipodi:namedview
     id="namedview7"
     pagecolor="#ffffff"
     bordercolor="#666666"
     borderopacity="1.0"
     inkscape:showpageshadow="2"
     inkscape:pageopacity="0.0"
     inkscape:pagecheckerboard="0"
     inkscape:deskcolor="#d1d1d1"
     inkscape:document-units="px"
     showgrid="false"
     inkscape:zoom="6.296875"
     inkscape:cx="63.920596"
     inkscape:cy="64"
     inkscape:window-width="1920"
     inkscape:window-height="1008"
     inkscape:window-x="0"
     inkscape:window-y="0"
     inkscape:window-maximized="1"
     inkscape:current-layer="svg5" />
  <defs
     id="defs2" />
  <circle
     style="opacity:0.2;fill:#000000;fill-opacity:1;stroke:none;stroke-width:8.61538;stroke-linecap:round;stroke-linejoin:round;stroke-dasharray:none;stroke-opacity:1"
     id="path2871"
     cx="64"
     cy="65"
     r="56" />
  <circle
     style="opacity:1;fill:#5294e2;fill-opacity:1;stroke:none;stroke-width:8.61538;stroke-linecap:round;stroke-linejoin:round;stroke-dasharray:none;stroke-opacity:1"
     id="path2873"
     cx="64"
     cy="64"
     r="56" />
  <path
     d="m 63.99871,25 c -12.818,0 -23.80078,11.182006 -23.80078,24 h 11.60156 c 0,-6.379994 5.81922,-12.398434 12.19922,-12.398434 6.38,0 12.20182,5.22156 12.20182,11.601554 0,3.19 -1.27588,6.08388 -3.42188,8.17188 l -7.19532,7.3125 c -4.176,4.234 -7.3815,10.03406 -7.3815,16.41406 V 81 83 h 11.79688 v -2 h -0.1172 c 0.38852,-7.22966 3.47182,-10.5293 7.30338,-14.41408 L 82.40363,61.25 c 3.306,-3.306 5.39844,-7.94288 5.39844,-13.04688 C 87.80207,35.385126 76.81669,25 63.99869,25 Z m -6,68 v 12 h 12 V 93 Z"
     style="opacity:0.2;fill:#000000;stroke-width:2"
     id="path4158"
     sodipodi:nodetypes="sccssccscccccccsssccccc" />
  <path
     d="m 63.99871,24.000252 c -12.818,0 -23.80078,11.182008 -23.80078,24 h 11.60156 c 0,-6.379992 5.81922,-12.398432 12.19922,-12.398432 6.38,0 12.20182,5.22156 12.20182,11.60156 0,3.189992 -1.27588,6.083872 -3.42188,8.171872 l -7.19532,7.3125 c -4.176,4.234 -7.3815,10.03406 -7.3815,16.41406 v 0.89844 2 h 11.79688 v -2 h -0.1172 c 0.38852,-7.22966 3.47182,-10.5293 7.30338,-14.41408 l 5.21874,-5.33592 c 3.306,-3.306 5.39844,-7.94288 5.39844,-13.046872 0,-12.818 -10.98538,-23.203128 -23.80338,-23.203128 z m -6,68 v 11.999998 h 12 V 92.000252 Z"
     style="fill:#ffffff;stroke-width:2"
     id="path3967"
     sodipodi:nodetypes="sccssccscccccccsssccccc" />
  <path
     id="path2840"
     style="opacity:0.2;fill:#ffffff;fill-opacity:1;stroke-width:8;stroke-linecap:square"
     d="M 64,8 A 56,56 0 0 0 8,64 56,56 0 0 0 8.0351562,64.503906 56,56 0 0 1 64,9 56,56 0 0 1 119.98047,64.257812 56,56 0 0 0 120,64 56,56 0 0 0 64,8 Z" />
</svg>
