<?xml version="1.0" encoding="UTF-8" standalone="no"?>
<!-- Created with Inkscape (http://www.inkscape.org/) -->

<svg
   width="128"
   height="128"
   viewBox="0 0 128 128"
   version="1.1"
   id="svg5"
   inkscape:version="1.3 (0e150ed6c4, 2023-07-21)"
   sodipodi:docname="system-suspend.svg"
   xmlns:inkscape="http://www.inkscape.org/namespaces/inkscape"
   xmlns:sodipodi="http://sodipodi.sourceforge.net/DTD/sodipodi-0.dtd"
   xmlns="http://www.w3.org/2000/svg"
   xmlns:svg="http://www.w3.org/2000/svg">
  <sodipodi:namedview
     id="namedview7"
     pagecolor="#ffffff"
     bordercolor="#000000"
     borderopacity="0.25"
     inkscape:showpageshadow="2"
     inkscape:pageopacity="0.0"
     inkscape:pagecheckerboard="0"
     inkscape:deskcolor="#d1d1d1"
     inkscape:document-units="px"
     showgrid="false"
     inkscape:zoom="6.15625"
     inkscape:cx="64"
     inkscape:cy="64"
     inkscape:window-width="1920"
     inkscape:window-height="1004"
     inkscape:window-x="0"
     inkscape:window-y="0"
     inkscape:window-maximized="1"
     inkscape:current-layer="svg5" />
  <defs
     id="defs2" />
  <rect
     style="opacity:0.2;fill:#000000;stroke-width:8.00004;stroke-linecap:square"
     id="rect234"
     width="111.99999"
     height="111.99999"
     x="8"
     y="9"
     ry="24" />
  <rect
     style="fill:#00bcd4;fill-opacity:1;stroke-width:8.00004;stroke-linecap:square"
     id="rect396"
     width="111.99999"
     height="111.99999"
     x="8"
     y="8"
     ry="24" />
  <path
     id="path2"
     style="opacity:0.2;stroke-width:3.80952"
     d="m 64,25 c -22.091328,0 -40,17.908686 -40,40 0,22.091324 17.908672,40 40,40 22.091322,0 40,-17.908676 40,-40 C 104,42.908686 86.091322,25 64,25 Z m 0,12 C 79.463926,37 92,49.536076 92,65 92,80.463926 79.463926,93 64,93 48.536074,93 36,80.463926 36,65 36,49.536076 48.536074,37 64,37 Z M 50,59 c -3.323992,0 -6,2.676006 -6,6 0,3.323992 2.676008,6 6,6 h 28 c 3.323994,0 6,-2.676008 6,-6 0,-3.323994 -2.676006,-6 -6,-6 z" />
  <path
     id="path3"
     style="fill:#ffffff;stroke-width:3.80952"
     d="m 64,24 c -22.091328,0 -40,17.908672 -40,40 0,22.091322 17.908672,40 40,40 22.091322,0 40,-17.908678 40,-40 C 104,41.908672 86.091322,24 64,24 Z m 0,12 C 79.463926,36 92,48.536074 92,64 92,79.463926 79.463926,92 64,92 48.536074,92 36,79.463926 36,64 36,48.536074 48.536074,36 64,36 Z M 50,58 c -3.323992,0 -6,2.676006 -6,6 0,3.323992 2.676008,6 6,6 h 28 c 3.323994,0 6,-2.676008 6,-6 0,-3.323994 -2.676006,-6 -6,-6 z" />
  <path
     id="path1040"
     style="opacity:0.2;fill:#ffffff;stroke-width:8.00004;stroke-linecap:square"
     d="M 32,8 C 18.70404,8 8,18.70404 8,32 v 1 C 8,19.704036 18.70404,9 32,9 h 64 c 13.29595,0 24,10.704036 24,24 V 32 C 120,18.70404 109.29595,8 96,8 Z" />
</svg>
