<?xml version="1.0" encoding="UTF-8" standalone="no"?>
<!-- Created with Inkscape (http://www.inkscape.org/) -->

<svg
   width="128"
   height="128"
   viewBox="0 0 128 128"
   version="1.1"
   id="svg5"
   inkscape:version="1.4.3 (0d15f75042, 2025-12-25)"
   sodipodi:docname="system-switch-user.svg"
   xmlns:inkscape="http://www.inkscape.org/namespaces/inkscape"
   xmlns:sodipodi="http://sodipodi.sourceforge.net/DTD/sodipodi-0.dtd"
   xmlns="http://www.w3.org/2000/svg"
   xmlns:svg="http://www.w3.org/2000/svg">
  <sodipodi:namedview
     id="namedview7"
     pagecolor="#ffffff"
     bordercolor="#000000"
     borderopacity="0.25"
     inkscape:showpageshadow="2"
     inkscape:pageopacity="0.0"
     inkscape:pagecheckerboard="0"
     inkscape:deskcolor="#d1d1d1"
     inkscape:document-units="px"
     showgrid="false"
     inkscape:zoom="6.4609375"
     inkscape:cx="64"
     inkscape:cy="64"
     inkscape:window-width="1920"
     inkscape:window-height="1008"
     inkscape:window-x="0"
     inkscape:window-y="0"
     inkscape:window-maximized="1"
     inkscape:current-layer="svg5" />
  <defs
     id="defs2" />
  <circle
     style="opacity:0.2;fill:#000000;stroke-width:2"
     id="path1"
     cx="64"
     cy="65"
     r="56" />
  <circle
     style="fill:#3f51b5;fill-opacity:1;stroke-width:2"
     id="path2"
     cx="64"
     cy="64"
     r="56" />
  <path
     id="path3"
     style="opacity:0.2;fill:#ffffff;fill-opacity:1;stroke-width:2"
     d="M 64,8 A 56,56 0 0 0 8,64 56,56 0 0 0 8.0351562,64.484376 56,56 0 0 1 64,9 56,56 0 0 1 119.96484,64.484376 56,56 0 0 0 120,64 56,56 0 0 0 64,8 Z" />
  <path
     id="path4"
     style="opacity:0.2;stroke-width:4"
     d="m 84,25 c -3.027316,0 -6.05464,1.961902 -6,5.882812 V 77 H 64 l 20,26 20,-26 H 90 V 30.882812 C 90.054644,26.961902 87.027316,25 84,25 Z M 44,27 24,53 h 14 v 46.117188 c -0.10928,7.841822 12.109284,7.841822 12,0 V 53 h 14 z" />
  <path
     id="path5"
     style="fill:#ffffff;stroke-width:4"
     d="m 84,24 c -3.027316,0 -6.05464,1.961902 -6,5.882812 V 76 H 64 l 20,26 20,-26 H 90 V 29.882812 C 90.054644,25.961902 87.027316,24 84,24 Z M 44,26 24,52 h 14 v 46.117188 c -0.10928,7.841822 12.109284,7.841822 12,0 V 52 h 14 z" />
</svg>
