<?xml version="1.0" encoding="UTF-8" standalone="no"?>
<!-- Created with Inkscape (http://www.inkscape.org/) -->

<svg
   width="128"
   height="128"
   viewBox="0 0 128 128"
   version="1.1"
   id="svg5"
   inkscape:version="1.3 (0e150ed6c4, 2023-07-21)"
   sodipodi:docname="system-suspend-hibernate.svg"
   xmlns:inkscape="http://www.inkscape.org/namespaces/inkscape"
   xmlns:sodipodi="http://sodipodi.sourceforge.net/DTD/sodipodi-0.dtd"
   xmlns="http://www.w3.org/2000/svg"
   xmlns:svg="http://www.w3.org/2000/svg">
  <sodipodi:namedview
     id="namedview7"
     pagecolor="#ffffff"
     bordercolor="#000000"
     borderopacity="0.25"
     inkscape:showpageshadow="2"
     inkscape:pageopacity="0.0"
     inkscape:pagecheckerboard="0"
     inkscape:deskcolor="#d1d1d1"
     inkscape:document-units="px"
     showgrid="false"
     inkscape:zoom="6.15625"
     inkscape:cx="64"
     inkscape:cy="64"
     inkscape:window-width="1920"
     inkscape:window-height="1004"
     inkscape:window-x="0"
     inkscape:window-y="0"
     inkscape:window-maximized="1"
     inkscape:current-layer="svg5" />
  <defs
     id="defs2" />
  <rect
     style="opacity:0.2;fill:#000000;stroke-width:8.00004;stroke-linecap:square"
     id="rect234"
     width="111.99999"
     height="111.99999"
     x="8"
     y="9"
     ry="24" />
  <rect
     style="fill:#673ab7;fill-opacity:1;stroke-width:8.00004;stroke-linecap:square"
     id="rect396"
     width="111.99999"
     height="111.99999"
     x="8"
     y="8"
     ry="24" />
  <path
     id="path2"
     style="opacity:0.2;stroke-width:3.80952"
     d="M 64,25 C 41.90865,25 24,42.90866 24,64.999996 24,87.091342 41.90865,105 64,105 86.091344,105 104,87.091342 104,64.999996 104,42.90866 86.091344,25 64,25 Z m 0,11.999996 c 15.463942,0 28,12.53606 28,28 0,15.463942 -12.536058,28 -28,28 -15.463942,0 -28,-12.536058 -28,-28 0,-15.46394 12.536058,-28 28,-28 z m 0,16.00001 c -6.627412,0 -12.000004,5.37259 -12.000004,11.99999 C 51.999996,71.627408 57.372588,77 64,77 c 6.627412,0 12.000004,-5.372592 12.000004,-12.000004 0,-6.6274 -5.372592,-11.99999 -12.000004,-11.99999 z" />
  <path
     id="path3"
     style="fill:#ffffff;stroke-width:3.80952"
     d="m 64,24 c -22.09135,0 -40,17.90865 -40,40 0,22.091344 17.90865,40 40,40 22.091344,0 40,-17.908656 40,-40 C 104,41.90865 86.091344,24 64,24 Z m 0,12 C 79.463942,36 92,48.536058 92,64 92,79.463942 79.463942,92 64,92 48.536058,92 36,79.463942 36,64 36,48.536058 48.536058,36 64,36 Z m 0,15.999996 c -6.627412,0 -12.000004,5.372592 -12.000004,12.000004 0,6.627412 5.372592,12.000004 12.000004,12.000004 6.627412,0 12.000004,-5.372592 12.000004,-12.000004 0,-6.627412 -5.372592,-12.000004 -12.000004,-12.000004 z" />
  <path
     id="path1040"
     style="opacity:0.1;fill:#ffffff;stroke-width:8.00004;stroke-linecap:square"
     d="M 32,8 C 18.70404,8 8,18.70404 8,32 v 1 C 8,19.704036 18.70404,9 32,9 h 64 c 13.29595,0 24,10.704036 24,24 V 32 C 120,18.70404 109.29595,8 96,8 Z" />
</svg>
