<?xml version="1.0" encoding="UTF-8" standalone="no"?>
<!-- Created with Inkscape (http://www.inkscape.org/) -->

<svg
   width="128"
   height="128"
   viewBox="0 0 128 128"
   version="1.1"
   id="svg5"
   inkscape:version="1.3 (0e150ed6c4, 2023-07-21)"
   sodipodi:docname="system-shutdown.svg"
   xmlns:inkscape="http://www.inkscape.org/namespaces/inkscape"
   xmlns:sodipodi="http://sodipodi.sourceforge.net/DTD/sodipodi-0.dtd"
   xmlns="http://www.w3.org/2000/svg"
   xmlns:svg="http://www.w3.org/2000/svg">
  <sodipodi:namedview
     id="namedview7"
     pagecolor="#ffffff"
     bordercolor="#000000"
     borderopacity="0.25"
     inkscape:showpageshadow="2"
     inkscape:pageopacity="0.0"
     inkscape:pagecheckerboard="0"
     inkscape:deskcolor="#d1d1d1"
     inkscape:document-units="px"
     showgrid="false"
     inkscape:zoom="6.1171875"
     inkscape:cx="63.918263"
     inkscape:cy="64"
     inkscape:window-width="1920"
     inkscape:window-height="984"
     inkscape:window-x="0"
     inkscape:window-y="29"
     inkscape:window-maximized="1"
     inkscape:current-layer="svg5" />
  <defs
     id="defs2" />
  <rect
     style="opacity:0.2;fill:#000000;stroke-width:8;stroke-linecap:square"
     id="rect234"
     width="112"
     height="112"
     x="8"
     y="9"
     ry="24" />
  <rect
     style="fill:#ef5350;fill-opacity:1;stroke-width:8;stroke-linecap:square"
     id="rect396"
     width="112"
     height="112"
     x="8"
     y="8"
     ry="24" />
  <path
     style="opacity:0.2;fill:#000000;stroke-width:4"
     d="m 63.906684,21.00073 a 6.0006,5.9791592 0 0 0 -5.906248,6.0625 v 35.874998 a 6.0006,5.9791592 0 1 0 12,0 V 27.06323 a 6.0006,5.9791592 0 0 0 -6.093752,-6.0625 z m -19.945312,9.999998 a 6.0012412,5.997932 0 0 0 -3.20312,1.046876 c -15.383688,10.21526 -22.291798,29.35826 -16.984376,47.03906 5.30742,17.680804 21.608684,29.849626 40.078124,29.914066 18.46944,0.0644 34.86608,-11.989478 40.29687,-29.632814 5.43081,-17.643344 -1.3521,-36.8339 -16.664058,-47.156248 a 6.0012412,5.997932 0 1 0 -6.71094,9.945312 c 10.973424,7.39758 15.79046,21.035464 11.89844,33.679684 C 88.780296,88.480884 77.135128,97.05472 63.898872,97.00854 50.662624,96.96234 39.069668,88.304608 35.266064,75.63354 31.462464,62.962472 36.374052,49.368436 47.398876,42.047604 A 6.0012412,5.997932 0 0 0 43.961372,31.000728 Z"
     id="path2" />
  <path
     style="fill:#ffffff;stroke-width:4"
     d="m 63.906684,20.00073 a 6.0006,5.9791592 0 0 0 -5.906248,6.0625 v 35.874998 a 6.0006,5.9791592 0 1 0 12,0 V 26.06323 a 6.0006,5.9791592 0 0 0 -6.093752,-6.0625 z m -19.945312,10 a 6.0012412,5.997932 0 0 0 -3.20312,1.046874 c -15.383688,10.21526 -22.291798,29.35826 -16.984376,47.03906 5.30742,17.680804 21.608684,29.849626 40.078124,29.914066 18.46944,0.0644 34.86608,-11.989478 40.29687,-29.632814 5.43081,-17.643344 -1.3521,-36.8339 -16.664058,-47.156248 a 6.0012412,5.997932 0 1 0 -6.71094,9.945312 c 10.973424,7.39758 15.79046,21.035464 11.89844,33.679684 C 88.780296,87.480884 77.135128,96.05472 63.898872,96.00854 50.662624,95.96234 39.069668,87.304608 35.266064,74.63354 31.462464,61.962472 36.374052,48.368436 47.398872,41.047604 a 6.0012412,5.997932 0 0 0 -3.4375,-11.046874 z"
     id="path3" />
  <path
     id="path1040"
     style="opacity:0.2;fill:#ffffff;stroke-width:8;stroke-linecap:square"
     d="M 32,8 C 18.70404,8 8,18.70404 8,32 v 1 C 8,19.70404 18.70404,9 32,9 h 64 c 13.29596,0 24,10.70404 24,24 V 32 C 120,18.70404 109.29596,8 96,8 Z" />
</svg>
