<?xml version="1.0" encoding="UTF-8" standalone="no"?>
<!-- Created with Inkscape (http://www.inkscape.org/) -->

<svg
   width="256"
   height="256"
   viewBox="0 0 256 256"
   version="1.1"
   id="svg5"
   inkscape:version="1.3.2 (1:1.3.2+202404261509+091e20ef0f)"
   sodipodi:docname="preferences-system-windows-move.svg"
   xmlns:inkscape="http://www.inkscape.org/namespaces/inkscape"
   xmlns:sodipodi="http://sodipodi.sourceforge.net/DTD/sodipodi-0.dtd"
   xmlns="http://www.w3.org/2000/svg"
   xmlns:svg="http://www.w3.org/2000/svg">
  <sodipodi:namedview
     id="namedview7"
     pagecolor="#ffffff"
     bordercolor="#000000"
     borderopacity="0.25"
     inkscape:showpageshadow="2"
     inkscape:pageopacity="0.0"
     inkscape:pagecheckerboard="0"
     inkscape:deskcolor="#d1d1d1"
     inkscape:document-units="px"
     showgrid="false"
     inkscape:zoom="3.1210938"
     inkscape:cx="127.8398"
     inkscape:cy="128"
     inkscape:window-width="1920"
     inkscape:window-height="1006"
     inkscape:window-x="0"
     inkscape:window-y="0"
     inkscape:window-maximized="1"
     inkscape:current-layer="svg5" />
  <defs
     id="defs2" />
  <rect
     style="opacity:0.2;fill:#000000;stroke-width:16;stroke-linecap:square"
     id="rect234"
     width="224"
     height="224"
     x="16"
     y="18"
     ry="48" />
  <rect
     style="fill:#83a598;fill-opacity:1;stroke-width:16;stroke-linecap:square"
     id="rect396"
     width="224"
     height="224"
     x="16"
     y="16"
     ry="48" />
  <path
     id="rect2"
     style="opacity:0.2;fill:#000000;stroke-width:8"
     d="m 48,66.000004 c -4.431996,0 -8,3.568004 -8,7.999992 V 122 c 0,4.43199 3.568004,8 8,8 h 64 c 4.43199,0 8,-3.56801 8,-8 V 73.999996 c 0,-4.431988 -3.56801,-7.999992 -8,-7.999992 z m 96,0 c -4.43199,0 -8,3.568004 -8,7.999992 V 122 c 0,4.43199 3.56801,8 8,8 h 64 c 4.432,0 8,-3.56801 8,-8 V 73.999996 c 0,-4.431988 -3.568,-7.999992 -8,-7.999992 z M 96.000004,146 C 91.568004,146 88,149.56801 88,154 v 48 c 0,4.432 3.568004,8 8.000004,8 H 160 c 4.432,0 8,-3.568 8,-8 v -48 c 0,-4.43199 -3.568,-8 -8,-8 z" />
  <path
     id="rect3"
     style="fill:#f5f5f5;fill-opacity:1;stroke-width:8"
     d="m 48,64 c -4.431996,0 -8,3.568012 -8,8 v 48 c 0,4.43199 3.568004,8 8,8 h 64 c 4.43199,0 8,-3.56801 8,-8 V 72 c 0,-4.431988 -3.56801,-8 -8,-8 z m 96,0 c -4.43199,0 -8,3.568012 -8,8 v 48 c 0,4.43199 3.56801,8 8,8 h 64 c 4.432,0 8,-3.56801 8,-8 V 72 c 0,-4.431988 -3.568,-8 -8,-8 z M 96.000004,144 C 91.568004,144 88,147.568 88,152 v 48 c 0,4.432 3.568004,8 8.000004,8 H 160 c 4.432,0 8,-3.568 8,-8 v -48 c 0,-4.432 -3.568,-8 -8,-8 z" />
  <path
     id="path1040"
     style="opacity:0.2;fill:#ffffff;stroke-width:16;stroke-linecap:square"
     d="M 64,16 C 37.40808,16 16,37.40808 16,64 v 2 C 16,39.40808 37.40808,18 64,18 h 128 c 26.59192,0 48,21.40808 48,48 V 64 C 240,37.40808 218.59192,16 192,16 Z" />
</svg>
