<?xml version="1.0" encoding="UTF-8" standalone="no"?>
<!-- Created with Inkscape (http://www.inkscape.org/) -->

<svg
   width="256"
   height="256"
   viewBox="0 0 256 256"
   version="1.1"
   id="svg5"
   inkscape:version="1.3.2 (1:1.3.2+202404261509+091e20ef0f)"
   sodipodi:docname="system-file-manager.svg"
   xmlns:inkscape="http://www.inkscape.org/namespaces/inkscape"
   xmlns:sodipodi="http://sodipodi.sourceforge.net/DTD/sodipodi-0.dtd"
   xmlns="http://www.w3.org/2000/svg"
   xmlns:svg="http://www.w3.org/2000/svg">
  <sodipodi:namedview
     id="namedview7"
     pagecolor="#ffffff"
     bordercolor="#000000"
     borderopacity="0.25"
     inkscape:showpageshadow="2"
     inkscape:pageopacity="0.0"
     inkscape:pagecheckerboard="0"
     inkscape:deskcolor="#d1d1d1"
     inkscape:document-units="px"
     showgrid="false"
     inkscape:zoom="3.1210938"
     inkscape:cx="127.8398"
     inkscape:cy="128"
     inkscape:window-width="1920"
     inkscape:window-height="1006"
     inkscape:window-x="0"
     inkscape:window-y="0"
     inkscape:window-maximized="1"
     inkscape:current-layer="svg5" />
  <defs
     id="defs2" />
  <rect
     style="opacity:0.2;fill:#000000;stroke-width:16;stroke-linecap:square"
     id="rect234"
     width="224"
     height="224"
     x="16"
     y="18"
     ry="48" />
  <rect
     style="fill:#efefef;fill-opacity:1;stroke-width:16;stroke-linecap:square"
     id="rect396"
     width="224"
     height="224"
     x="16"
     y="16"
     ry="48" />
  <path
     id="path2024"
     style="opacity:0.2;fill:#000000;stroke-width:32;stroke-linecap:square"
     d="m 60,62 c -6.627416,0 -12,5.37258 -12,12 v 112 c 0,6.62742 5.372584,12 12,12 h 136 c 6.62742,0 12,-5.37258 12,-12 V 94.000002 C 208,87.372584 202.62742,82 196,82 h -68 l -8,-12 c -4.91685,-7.375272 -7.13602,-8 -16,-8 z" />
  <path
     id="path2052"
     style="fill:#49665b;fill-opacity:1;stroke-width:32;stroke-linecap:square"
     d="m 60,60 c -6.627416,0 -12,5.37258 -12,12 v 112 c 0,6.62742 5.372584,12 12,12 h 136 c 6.62742,0 12,-5.37258 12,-12 V 91.999998 C 208,85.372584 202.62742,80 196,80 h -68 l -8,-12 c -4.91685,-7.375276 -7.13602,-8 -16,-8 z" />
  <path
     id="path3024"
     style="opacity:0.1;fill:#ffffff;fill-opacity:1;stroke-width:32;stroke-linecap:square"
     d="m 60,60 c -6.6274,0 -12,5.372596 -12,12 v 2 c 0,-6.627412 5.372592,-12 12,-12 h 44 c 8.86397,0 11.08315,0.624732 16,8 l 8,12 h 68 c 6.6274,0 12,5.372592 12,12.000002 V 91.999998 C 208,85.3726 202.6274,80 196,80 h -68 l -8,-12 c -4.91684,-7.37526 -7.13604,-8 -16,-8 z" />
  <rect
     style="opacity:0.2;fill:#000000;fill-opacity:1;stroke-width:32;stroke-linecap:square"
     id="rect2667"
     width="160"
     height="96"
     x="48"
     y="98"
     ry="12" />
  <rect
     style="fill:#f5edc5;fill-opacity:1;stroke-width:12;stroke-linecap:square"
     id="rect3435"
     width="144"
     height="72"
     x="56"
     y="87.999992"
     ry="6" />
  <rect
     style="fill:#83a598;fill-opacity:1;stroke-width:32;stroke-linecap:square"
     id="rect2072"
     width="160"
     height="96"
     x="48"
     y="99.999992"
     ry="12" />
  <path
     id="path1040"
     style="opacity:0.2;fill:#ffffff;stroke-width:16;stroke-linecap:square"
     d="M 64,16 C 37.40808,16 16,37.40808 16,64 v 2 C 16,39.408026 37.408026,18 64,18 h 128 c 26.59198,0 48,21.408026 48,48 V 64 C 240,37.40808 218.59192,16 192,16 Z" />
</svg>
