<?xml version="1.0" encoding="UTF-8" standalone="no"?>
<!-- Created with Inkscape (http://www.inkscape.org/) -->

<svg
   width="32"
   height="32"
   viewBox="0 0 32 32"
   version="1.1"
   id="svg5"
   inkscape:version="1.3.2 (091e20ef0f, 2023-11-25, custom)"
   sodipodi:docname="accessories-painting.svg"
   xmlns:inkscape="http://www.inkscape.org/namespaces/inkscape"
   xmlns:sodipodi="http://sodipodi.sourceforge.net/DTD/sodipodi-0.dtd"
   xmlns="http://www.w3.org/2000/svg"
   xmlns:svg="http://www.w3.org/2000/svg">
  <sodipodi:namedview
     id="namedview7"
     pagecolor="#ffffff"
     bordercolor="#000000"
     borderopacity="0.25"
     inkscape:showpageshadow="2"
     inkscape:pageopacity="0.0"
     inkscape:pagecheckerboard="0"
     inkscape:deskcolor="#d1d1d1"
     inkscape:document-units="px"
     showgrid="false"
     inkscape:zoom="25.125"
     inkscape:cx="15.9801"
     inkscape:cy="16"
     inkscape:window-width="1920"
     inkscape:window-height="1008"
     inkscape:window-x="0"
     inkscape:window-y="0"
     inkscape:window-maximized="1"
     inkscape:current-layer="svg5" />
  <defs
     id="defs2" />
  <rect
     style="opacity:0.2;fill:#000000;stroke-width:2;stroke-linecap:square"
     id="rect234"
     width="28"
     height="28"
     x="2"
     y="3"
     ry="6" />
  <rect
     style="fill:#fbc02d;fill-opacity:1;stroke-width:2;stroke-linecap:square"
     id="rect396"
     width="28"
     height="28"
     x="2"
     y="2"
     ry="6" />
  <path
     d="m 15.99958,7.000298 c 5.5556,0 10,4.4444 10,9.999597 0,5.5554 -4.4444,9.9998 -9.9998,9.9998 -0.88888,0 -1.6666,-0.77779 -1.6666,-1.6666 0,-0.44444 0.11111,-0.77779 0.44443,-1.1111 0.222,-0.33349 0.44399,-0.66699 0.44399,-1.1115 0,-0.88888 -0.77779,-1.6666 -1.6666,-1.6666 h -2 c -3.111,0 -5.555,-2.444 -5.555,-5.555 0,-4.889097 4.444,-8.888997 10,-8.888997 z"
     style="opacity:0.2;fill:#000000"
     id="path2740" />
  <path
     d="m 15.99979,6.0004 c 5.5556,0 10,4.4444 10,9.999596 0,5.5554 -4.4444,9.9998 -9.9998,9.9998 -0.88888,0 -1.6666,-0.77779 -1.6666,-1.6666 0,-0.44444 0.11111,-0.77779 0.44443,-1.1111 0.222,-0.33349 0.44399,-0.66699 0.44399,-1.1115 0,-0.88888 -0.77779,-1.6666 -1.6666,-1.6666 h -2 c -3.111,0 -5.555,-2.444 -5.555,-5.555 C 6.00021,9.9999 10.44421,6 16.00021,6 Z"
     style="fill:#ffffff"
     id="path910" />
  <circle
     style="fill:#ffcc80;fill-opacity:1;stroke-width:4;stroke-linecap:square"
     id="path1757"
     cx="9.5"
     cy="14.499898"
     r="1.5" />
  <circle
     style="fill:#ffe082;fill-opacity:1;stroke-width:4;stroke-linecap:square"
     id="path1811"
     cx="12.5"
     cy="10.499898"
     r="1.5" />
  <circle
     style="fill:#ffcc80;fill-opacity:1;stroke-width:4;stroke-linecap:square"
     id="path1813"
     cx="18.5"
     cy="10.499898"
     r="1.5" />
  <circle
     style="fill:#ffe082;fill-opacity:1;stroke-width:4;stroke-linecap:square"
     id="path1952"
     cx="22.5"
     cy="14.499898"
     r="1.5" />
  <g
     id="g361"
     transform="matrix(0.49999709,0,0,0.49999709,3.4946207e-5,3.492e-5)" />
  <path
     d="M 8,2.0000001 C 4.6760033,2.0000001 2,4.6760035 2,8 V 9 C 2,5.6760035 4.6760033,3 8,3 h 16 c 3.323996,0 6,2.6760035 6,6 V 8 C 30,4.6760035 27.323996,2.0000001 24,2.0000001 Z"
     style="opacity:0.2;fill:#ffffff;stroke-width:2;stroke-linecap:square"
     id="path1040"
     sodipodi:nodetypes="sscsscsss" />
</svg>
