<?xml version="1.0" encoding="UTF-8" standalone="no"?>
<!-- Created with Inkscape (http://www.inkscape.org/) -->

<svg
   width="32"
   height="32"
   viewBox="0 0 32 32"
   version="1.1"
   id="svg5"
   inkscape:version="1.3 (0e150ed6c4, 2023-07-21)"
   sodipodi:docname="accessories-text-editor.svg"
   xmlns:inkscape="http://www.inkscape.org/namespaces/inkscape"
   xmlns:sodipodi="http://sodipodi.sourceforge.net/DTD/sodipodi-0.dtd"
   xmlns="http://www.w3.org/2000/svg"
   xmlns:svg="http://www.w3.org/2000/svg">
  <sodipodi:namedview
     id="namedview7"
     pagecolor="#ffffff"
     bordercolor="#000000"
     borderopacity="0.25"
     inkscape:showpageshadow="2"
     inkscape:pageopacity="0.0"
     inkscape:pagecheckerboard="0"
     inkscape:deskcolor="#d1d1d1"
     inkscape:document-units="px"
     showgrid="false"
     inkscape:zoom="25.09375"
     inkscape:cx="16"
     inkscape:cy="16"
     inkscape:window-width="1850"
     inkscape:window-height="1011"
     inkscape:window-x="70"
     inkscape:window-y="32"
     inkscape:window-maximized="1"
     inkscape:current-layer="svg5" />
  <defs
     id="defs2" />
  <rect
     style="opacity:0.2;fill:#000000;stroke-width:2;stroke-linecap:square"
     id="rect234"
     width="28"
     height="28"
     x="2"
     y="3"
     ry="6" />
  <rect
     style="fill:#ffbc2c;fill-opacity:1;stroke-width:2;stroke-linecap:square"
     id="rect396"
     width="28"
     height="28"
     x="2"
     y="2"
     ry="6" />
  <path
     id="path1-9"
     style="opacity:0.2;fill:#000000;stroke-width:2"
     d="m 23.222656,7 c -0.364091,0 -0.727047,0.1411187 -1.009765,0.4238281 l -1.792969,1.8105469 3.345703,3.345703 1.810547,-1.792969 c 0.565418,-0.565418 0.565418,-1.4560452 0,-2.021484 L 24.234375,7.4238281 C 23.951665,7.1411186 23.586748,7 23.222656,7 Z M 18.501953,11.152344 6,23.654297 V 27 H 9.3457031 L 21.847656,14.498047 Z" />
  <path
     id="path1"
     style="fill:#ffffff;stroke-width:2"
     d="m 23.222656,6 c -0.364091,0 -0.727047,0.1411187 -1.009765,0.4238281 l -1.792969,1.8105469 3.345703,3.345703 1.810547,-1.7929686 c 0.565418,-0.565419 0.565418,-1.4560456 0,-2.0214844 L 24.234375,6.4238281 C 23.951665,6.1411186 23.586748,6 23.222656,6 Z M 18.501953,10.152344 6,22.654297 V 26 H 9.3457031 L 21.847656,13.498047 Z" />
  <path
     d="M 8,2.0000001 C 4.6760033,2.0000001 2,4.6760035 2,8 V 9 C 2,5.6760035 4.6760033,3 8,3 h 16 c 3.323996,0 6,2.6760035 6,6 V 8 C 30,4.6760035 27.323996,2.0000001 24,2.0000001 Z"
     style="opacity:0.2;fill:#ffffff;stroke-width:2;stroke-linecap:square"
     id="path1040"
     sodipodi:nodetypes="sscsscsss" />
</svg>
