<?xml version="1.0" encoding="UTF-8" standalone="no"?>
<!-- Created with Inkscape (http://www.inkscape.org/) -->

<svg
   width="32"
   height="32"
   viewBox="0 0 32 32"
   version="1.1"
   id="svg5"
   inkscape:version="1.3.2 (091e20ef0f, 2023-11-25, custom)"
   sodipodi:docname="AdobeIllustrator.svg"
   xmlns:inkscape="http://www.inkscape.org/namespaces/inkscape"
   xmlns:sodipodi="http://sodipodi.sourceforge.net/DTD/sodipodi-0.dtd"
   xmlns="http://www.w3.org/2000/svg"
   xmlns:svg="http://www.w3.org/2000/svg">
  <sodipodi:namedview
     id="namedview7"
     pagecolor="#ffffff"
     bordercolor="#000000"
     borderopacity="0.25"
     inkscape:showpageshadow="2"
     inkscape:pageopacity="0.0"
     inkscape:pagecheckerboard="0"
     inkscape:deskcolor="#d1d1d1"
     inkscape:document-units="px"
     showgrid="false"
     inkscape:zoom="24.84375"
     inkscape:cx="16"
     inkscape:cy="16"
     inkscape:window-width="1920"
     inkscape:window-height="1008"
     inkscape:window-x="0"
     inkscape:window-y="0"
     inkscape:window-maximized="1"
     inkscape:current-layer="svg5" />
  <defs
     id="defs2" />
  <rect
     style="opacity:0.2;fill:#000000;stroke-width:2;stroke-linecap:square"
     id="rect234"
     width="28"
     height="28"
     x="2"
     y="3"
     ry="6" />
  <rect
     style="fill:#ce6f23;fill-opacity:1;stroke-width:2;stroke-linecap:square"
     id="rect396"
     width="28"
     height="28"
     x="2"
     y="2"
     ry="6" />
  <path
     style="opacity:0.2"
     d="M 11,10 8,24 h 3 l 0.599609,-4 h 1.800782 L 14,24 h 3 L 14,10 Z m 10.5,0 A 1.5,1.5 0 0 0 20,11.5 1.5,1.5 0 0 0 21.5,13 1.5,1.5 0 0 0 23,11.5 1.5,1.5 0 0 0 21.5,10 Z m -9,4 0.599609,4 h -1.199218 z m 7.5,0 v 10 h 3 V 14 Z"
     id="path3" />
  <path
     style="fill:#fed642"
     d="M 11,9 8,23 h 3 l 0.599609,-4 h 1.800782 L 14,23 h 3 L 14,9 Z M 21.5,9 A 1.5,1.5 0 0 0 20,10.5 1.5,1.5 0 0 0 21.5,12 1.5,1.5 0 0 0 23,10.5 1.5,1.5 0 0 0 21.5,9 Z m -9,4 0.599609,4 h -1.199218 z m 7.5,0 v 10 h 3 V 13 Z"
     id="path4" />
  <path
     d="M 8,2.0000001 C 4.6760033,2.0000001 2,4.6760035 2,8 V 9 C 2,5.6760035 4.6760033,3 8,3 h 16 c 3.323996,0 6,2.6760035 6,6 V 8 C 30,4.6760035 27.323996,2.0000001 24,2.0000001 Z"
     style="opacity:0.1;fill:#ffffff;stroke-width:2;stroke-linecap:square"
     id="path1040" />
</svg>
