<?xml version="1.0" encoding="UTF-8" standalone="no"?>
<!-- Created with Inkscape (http://www.inkscape.org/) -->

<svg
   width="32"
   height="32"
   viewBox="0 0 32 32"
   version="1.1"
   id="svg5"
   inkscape:version="1.3.2 (091e20ef0f, 2023-11-25, custom)"
   sodipodi:docname="AdobePremierePro.svg"
   xmlns:inkscape="http://www.inkscape.org/namespaces/inkscape"
   xmlns:sodipodi="http://sodipodi.sourceforge.net/DTD/sodipodi-0.dtd"
   xmlns="http://www.w3.org/2000/svg"
   xmlns:svg="http://www.w3.org/2000/svg">
  <sodipodi:namedview
     id="namedview7"
     pagecolor="#ffffff"
     bordercolor="#000000"
     borderopacity="0.25"
     inkscape:showpageshadow="2"
     inkscape:pageopacity="0.0"
     inkscape:pagecheckerboard="0"
     inkscape:deskcolor="#d1d1d1"
     inkscape:document-units="px"
     showgrid="false"
     inkscape:zoom="25.09375"
     inkscape:cx="16.019925"
     inkscape:cy="16"
     inkscape:window-width="1920"
     inkscape:window-height="1008"
     inkscape:window-x="0"
     inkscape:window-y="0"
     inkscape:window-maximized="1"
     inkscape:current-layer="svg5" />
  <defs
     id="defs2" />
  <rect
     style="opacity:0.2;fill:#000000;stroke-width:2;stroke-linecap:square"
     id="rect234"
     width="28"
     height="28"
     x="2"
     y="3"
     ry="6" />
  <rect
     style="fill:#97719d;fill-opacity:1;stroke-width:2;stroke-linecap:square"
     id="rect396"
     width="28"
     height="28"
     x="2"
     y="2"
     ry="6" />
  <path
     d="M 10.830078,9.9433594 C 9.1004781,9.9433594 7,10 7,10 v 13.943359 h 3 v -3.986328 c 0,0 0.298948,-0.0061 0.830078,-0.0293 C 13.230178,19.942034 16,19.143359 16,14.943359 c 0,-4.2 -2.769922,-4.9999996 -5.169922,-4.9999996 z M 10,11.943359 c 0,0 0.403469,-0.022 0.980469,0 1.446,0.055 2.019531,1.606391 2.019531,2.900391 0,1.441 -0.738141,3.084515 -2.244141,3.103515 C 10.303709,17.952915 10.30505,17.96838 10,17.9375 Z m 8,1 v 11 h 3 v -6 c 2,-3 4,-2 4,-2 v -3 c 0,0 -3,0 -4,2 v -2 z"
     style="opacity:0.2;fill:#000000"
     id="path1" />
  <path
     id="path2"
     style="fill:#dccdde"
     d="M 10.830078,9 C 9.1004799,9 7,9.0566406 7,9.0566406 V 23 h 3 v -3.986328 c 0,0 0.298949,-0.0061 0.830078,-0.0293 C 13.230176,18.998675 16,18.199996 16,14 16,9.8000042 13.230076,9 10.830078,9 Z m -0.246094,1.990234 c 0.118932,0.001 0.252235,0.0043 0.396485,0.0098 C 12.426467,11.055 13,12.606392 13,13.900391 13,15.341389 12.261858,16.984906 10.755859,17.003906 10.30371,17.009556 10.30505,17.025021 10,16.994141 V 11 c 0,0 0.227191,-0.01286 0.583984,-0.0098 z M 18,12 v 11 h 3 v -6 c 1.999998,-2.999997 4,-2 4,-2 v -3 c 0,0 -3.000001,2e-6 -4,2 v -2 z" />
  <path
     d="M 8,2.0000001 C 4.6760033,2.0000001 2,4.6760035 2,8 V 9 C 2,5.6760035 4.6760033,3 8,3 h 16 c 3.323996,0 6,2.6760035 6,6 V 8 C 30,4.6760035 27.323996,2.0000001 24,2.0000001 Z"
     style="opacity:0.1;fill:#ffffff;stroke-width:2;stroke-linecap:square"
     id="path1040" />
</svg>
