<?xml version="1.0" encoding="UTF-8" standalone="no"?>
<!-- Created with Inkscape (http://www.inkscape.org/) -->

<svg
   width="32"
   height="32"
   viewBox="0 0 32 32"
   version="1.1"
   id="svg5"
   inkscape:version="1.2.2 (1:1.2.2+202305151914+b0a8486541)"
   sodipodi:docname="applications-internet.svg"
   xmlns:inkscape="http://www.inkscape.org/namespaces/inkscape"
   xmlns:sodipodi="http://sodipodi.sourceforge.net/DTD/sodipodi-0.dtd"
   xmlns="http://www.w3.org/2000/svg"
   xmlns:svg="http://www.w3.org/2000/svg">
  <sodipodi:namedview
     id="namedview7"
     pagecolor="#ffffff"
     bordercolor="#000000"
     borderopacity="0.25"
     inkscape:showpageshadow="2"
     inkscape:pageopacity="0.0"
     inkscape:pagecheckerboard="0"
     inkscape:deskcolor="#d1d1d1"
     inkscape:document-units="px"
     showgrid="false"
     inkscape:zoom="25.1875"
     inkscape:cx="16.019851"
     inkscape:cy="16"
     inkscape:window-width="1920"
     inkscape:window-height="1008"
     inkscape:window-x="0"
     inkscape:window-y="0"
     inkscape:window-maximized="1"
     inkscape:current-layer="svg5" />
  <defs
     id="defs2" />
  <rect
     style="opacity:0.2;fill:#000000;stroke-width:2;stroke-linecap:square"
     id="rect234"
     width="28"
     height="28"
     x="2"
     y="3"
     ry="6" />
  <rect
     style="fill:#3a56d3;fill-opacity:1;stroke-width:2;stroke-linecap:square"
     id="rect396"
     width="28"
     height="28"
     x="2"
     y="2"
     ry="6" />
  <path
     d="m 22.972528,16.390613 c -0.20691,3.70212 -3.26478,6.60067 -6.97266,6.60938 -2.85154,-0.007 -5.32321,-1.72446 -6.4034601,-4.20821 l -0.28238,-0.31642 c 0.004,0.78288 0.35055,1.48435 0.66377,2.09534 1.2200801,2.05325 3.4603801,3.42929 6.0220701,3.42929 3.86599,0 7,-3.13401 7,-7 -2.6e-4,-0.20343 -0.009,-0.40674 -0.0273,-0.60938 z"
     style="opacity:0.2;fill:#000000"
     id="path1194" />
  <circle
     style="fill:#ffffff;stroke-linecap:square"
     id="path1294"
     cx="15.999872"
     cy="16"
     r="7" />
  <path
     d="m 20.667838,12.937493 c -1.5103,0 -3.4754,0.42204 -5.38086,1.1582 -1.90547,0.73068 -3.64792,1.74342 -4.7793,2.75977 -1.0122801,0.91196 -1.2275101,1.55907 -1.1679701,1.71289 0.0186,0.0481 0.0948,0.11517 0.22266,0.18359 0.0154,0.036 0.0348,0.0698 0.0508,0.10547 0.18225,-0.27505 0.4622401,-0.6125 0.8945301,-1.00195 1.13138,-1.01635 2.87383,-2.0291 4.7793,-2.75977 1.90546,-0.73616 3.87056,-1.1582 5.38086,-1.1582 0.44665,0 0.80636,0.0373 1.09139,0.0926 0.41382,0.0531 0.6825,0.2339 1.06486,0.41126 -0.0565,-0.24783 -0.12515,-0.4915 -0.20703,-0.72851 0.0488,-0.13419 0.0613,-0.2339 0.043,-0.28125 -0.0596,-0.15382 -0.63887,-0.49414 -1.99219,-0.49414 z m 5.28711,0.74219 c -0.14384,0.87348 -0.68511,1.99152 -2.11524,3.28125 -0.26859,0.24193 -0.56523,0.48039 -0.875,0.71484 -0.0384,0.3964 -0.10764,0.7839 -0.20898,1.1582 0.38865,-0.2854 0.75465,-0.57639 1.08398,-0.87304 2.05669,-1.85477 2.27895,-3.35728 2.11524,-4.28125 z m -19.9101601,5.64062 c -0.1028,0.62428 -0.004,1.12469 0.125,1.46875 0.30957,0.82547 1.316,2.21094 4.5937501,2.21094 0.47379,0 0.97398,-0.0297 1.49024,-0.0859 -0.41872,-0.26583 -0.80608,-0.5777 -1.15821,-0.92383 -0.11058,0.003 -0.22406,0.01 -0.33203,0.01 -3.2777501,0 -4.2841801,-1.38547 -4.5937501,-2.21093 -0.0499,-0.13315 -0.0935,-0.29105 -0.125,-0.46875 z"
     style="opacity:0.1;fill:#000000"
     id="path1166" />
  <path
     d="m 21.236198,9.9999926 c -2.02129,0 -4.48135,0.5242904 -6.9336,1.4668004 -2.45224,0.9425 -4.6311601,2.21086 -6.1425701,3.57226 -2.45225,2.2115 -2.2998,3.92454 -1.99024,4.75 0.30957,0.82546 1.316,2.21094 4.5937501,2.21094 0.47379,0 0.97398,-0.0297 1.49024,-0.0859 -1.1874,-0.75386 -2.13233,-1.85603 -2.6914101,-3.16211 -0.12789,-0.0684 -0.20405,-0.13552 -0.22266,-0.18359 -0.0596,-0.15382 0.15569,-0.80093 1.1679701,-1.71289 1.13138,-1.01635 2.87383,-2.0291 4.7793,-2.75977 1.90546,-0.73616 3.87056,-1.1582 5.38086,-1.1582 1.35332,0 1.93263,0.34031 1.99219,0.49414 0.0183,0.0474 0.006,0.14707 -0.043,0.28125 0.24756,0.7166 0.38281,1.48635 0.38281,2.28711 0,0.63459 -0.0859,1.24946 -0.24414,1.83398 0.38865,-0.2854 0.75465,-0.57639 1.08398,-0.87304 2.45225,-2.2115 2.29981,-3.92454 1.99024,-4.75 -0.3035,-0.82546 -1.30993,-2.21094 -4.59375,-2.21094 z"
     style="fill:#3ea0f4"
     id="path1222" />
  <g
     id="g361"
     transform="matrix(0.49999709,0,0,0.49999709,3.4946207e-5,3.492e-5)" />
  <path
     d="M 8,2.0000001 C 4.6760033,2.0000001 2,4.6760035 2,8 V 9 C 2,5.6760035 4.6760033,3 8,3 h 16 c 3.323996,0 6,2.6760035 6,6 V 8 C 30,4.6760035 27.323996,2.0000001 24,2.0000001 Z"
     style="opacity:0.1;fill:#ffffff;stroke-width:2;stroke-linecap:square"
     id="path1040"
     sodipodi:nodetypes="sscsscsss" />
</svg>
