<?xml version="1.0" encoding="UTF-8" standalone="no"?>
<!-- Created with Inkscape (http://www.inkscape.org/) -->

<svg
   width="32"
   height="32"
   viewBox="0 0 32 32"
   version="1.1"
   id="svg5"
   inkscape:version="1.3 (0e150ed6c4, 2023-07-21)"
   sodipodi:docname="applications-all.svg"
   xmlns:inkscape="http://www.inkscape.org/namespaces/inkscape"
   xmlns:sodipodi="http://sodipodi.sourceforge.net/DTD/sodipodi-0.dtd"
   xmlns="http://www.w3.org/2000/svg"
   xmlns:svg="http://www.w3.org/2000/svg">
  <sodipodi:namedview
     id="namedview7"
     pagecolor="#ffffff"
     bordercolor="#000000"
     borderopacity="0.25"
     inkscape:showpageshadow="2"
     inkscape:pageopacity="0.0"
     inkscape:pagecheckerboard="0"
     inkscape:deskcolor="#d1d1d1"
     inkscape:document-units="px"
     showgrid="false"
     inkscape:zoom="24.46875"
     inkscape:cx="15.979566"
     inkscape:cy="16"
     inkscape:window-width="1920"
     inkscape:window-height="984"
     inkscape:window-x="0"
     inkscape:window-y="29"
     inkscape:window-maximized="1"
     inkscape:current-layer="svg5" />
  <defs
     id="defs2" />
  <rect
     style="opacity:0.2;fill:#000000;stroke-width:2;stroke-linecap:square"
     id="rect234"
     width="28"
     height="28"
     x="2"
     y="3"
     ry="6" />
  <rect
     style="fill:#0090ef;fill-opacity:1;stroke-width:2;stroke-linecap:square"
     id="rect396"
     width="28"
     height="28"
     x="2"
     y="2"
     ry="6" />
  <path
     d="M 9.3007812,9 C 8.580582,9 8,9.580582 8,10.300781 v 1.398438 C 8,12.419418 8.580582,13 9.3007812,13 H 10.699219 C 11.419418,13 12,12.419418 12,11.699219 V 10.300781 C 12,9.580582 11.419418,9 10.699219,9 Z M 15.300781,9 C 14.580582,9 14,9.580582 14,10.300781 v 1.398438 C 14,12.419418 14.580582,13 15.300781,13 h 1.398438 C 17.419418,13 18,12.419418 18,11.699219 V 10.300781 C 18,9.580582 17.419418,9 16.699219,9 Z m 6,0 C 20.580582,9 20,9.580582 20,10.300781 v 1.398438 C 20,12.419418 20.580582,13 21.300781,13 h 1.398438 C 23.419418,13 24,12.419418 24,11.699219 V 10.300781 C 24,9.580582 23.419418,9 22.699219,9 Z M 9.3007812,15 C 8.580582,15 8,15.580582 8,16.300781 v 1.398438 C 8,18.419418 8.580582,19 9.3007812,19 H 10.699219 C 11.419418,19 12,18.419418 12,17.699219 V 16.300781 C 12,15.580582 11.419418,15 10.699219,15 Z m 5.9999998,0 C 14.580582,15 14,15.580582 14,16.300781 v 1.398438 C 14,18.419418 14.580582,19 15.300781,19 h 1.398438 C 17.419418,19 18,18.419418 18,17.699219 V 16.300781 C 18,15.580582 17.419418,15 16.699219,15 Z m 6,0 C 20.580582,15 20,15.580582 20,16.300781 v 1.398438 C 20,18.419418 20.580582,19 21.300781,19 h 1.398438 C 23.419418,19 24,18.419418 24,17.699219 V 16.300781 C 24,15.580582 23.419418,15 22.699219,15 Z M 9.3007812,21 C 8.580582,21 8,21.580582 8,22.300781 v 1.398438 C 8,24.419418 8.580582,25 9.3007812,25 H 10.699219 C 11.419418,25 12,24.419418 12,23.699219 V 22.300781 C 12,21.580582 11.419418,21 10.699219,21 Z m 5.9999998,0 C 14.580582,21 14,21.580582 14,22.300781 v 1.398438 C 14,24.419418 14.580582,25 15.300781,25 h 1.398438 C 17.419418,25 18,24.419418 18,23.699219 V 22.300781 C 18,21.580582 17.419418,21 16.699219,21 Z m 6,0 C 20.580582,21 20,21.580582 20,22.300781 v 1.398438 C 20,24.419418 20.580582,25 21.300781,25 h 1.398438 C 23.419418,25 24,24.419418 24,23.699219 V 22.300781 C 24,21.580582 23.419418,21 22.699219,21 Z"
     style="fill:#000000;opacity:0.2"
     id="path1-3" />
  <path
     d="M 9.3007812,8 C 8.580582,8 8,8.580582 8,9.3007812 V 10.699219 C 8,11.419418 8.580582,12 9.3007812,12 H 10.699219 C 11.419418,12 12,11.419418 12,10.699219 V 9.3007812 C 12,8.580582 11.419418,8 10.699219,8 Z M 15.300781,8 C 14.580582,8 14,8.580582 14,9.3007812 V 10.699219 C 14,11.419418 14.580582,12 15.300781,12 h 1.398438 C 17.419418,12 18,11.419418 18,10.699219 V 9.3007812 C 18,8.580582 17.419418,8 16.699219,8 Z m 6,0 C 20.580582,8 20,8.580582 20,9.3007812 V 10.699219 C 20,11.419418 20.580582,12 21.300781,12 h 1.398438 C 23.419418,12 24,11.419418 24,10.699219 V 9.3007812 C 24,8.580582 23.419418,8 22.699219,8 Z M 9.3007812,14 C 8.580582,14 8,14.580582 8,15.300781 v 1.398438 C 8,17.419418 8.580582,18 9.3007812,18 H 10.699219 C 11.419418,18 12,17.419418 12,16.699219 V 15.300781 C 12,14.580582 11.419418,14 10.699219,14 Z m 5.9999998,0 C 14.580582,14 14,14.580582 14,15.300781 v 1.398438 C 14,17.419418 14.580582,18 15.300781,18 h 1.398438 C 17.419418,18 18,17.419418 18,16.699219 V 15.300781 C 18,14.580582 17.419418,14 16.699219,14 Z m 6,0 C 20.580582,14 20,14.580582 20,15.300781 v 1.398438 C 20,17.419418 20.580582,18 21.300781,18 h 1.398438 C 23.419418,18 24,17.419418 24,16.699219 V 15.300781 C 24,14.580582 23.419418,14 22.699219,14 Z M 9.3007812,20 C 8.580582,20 8,20.580582 8,21.300781 v 1.398438 C 8,23.419418 8.580582,24 9.3007812,24 H 10.699219 C 11.419418,24 12,23.419418 12,22.699219 V 21.300781 C 12,20.580582 11.419418,20 10.699219,20 Z m 5.9999998,0 C 14.580582,20 14,20.580582 14,21.300781 v 1.398438 C 14,23.419418 14.580582,24 15.300781,24 h 1.398438 C 17.419418,24 18,23.419418 18,22.699219 V 21.300781 C 18,20.580582 17.419418,20 16.699219,20 Z m 6,0 C 20.580582,20 20,20.580582 20,21.300781 v 1.398438 C 20,23.419418 20.580582,24 21.300781,24 h 1.398438 C 23.419418,24 24,23.419418 24,22.699219 V 21.300781 C 24,20.580582 23.419418,20 22.699219,20 Z"
     style="fill:#ffffff"
     id="path1" />
  <path
     d="M 8,2.0000001 C 4.6760033,2.0000001 2,4.6760035 2,8 V 9 C 2,5.6760035 4.6760033,3 8,3 h 16 c 3.323996,0 6,2.6760035 6,6 V 8 C 30,4.6760035 27.323996,2.0000001 24,2.0000001 Z"
     style="opacity:0.2;fill:#ffffff;stroke-width:2;stroke-linecap:square"
     id="path1040" />
</svg>
