<?xml version="1.0" encoding="UTF-8" standalone="no"?>
<!-- Created with Inkscape (http://www.inkscape.org/) -->

<svg
   width="32"
   height="32"
   viewBox="0 0 32 32"
   version="1.1"
   id="svg5"
   inkscape:version="1.2.2 (1:1.2.2+202305151914+b0a8486541)"
   sodipodi:docname="ark.svg"
   xmlns:inkscape="http://www.inkscape.org/namespaces/inkscape"
   xmlns:sodipodi="http://sodipodi.sourceforge.net/DTD/sodipodi-0.dtd"
   xmlns="http://www.w3.org/2000/svg"
   xmlns:svg="http://www.w3.org/2000/svg">
  <sodipodi:namedview
     id="namedview7"
     pagecolor="#ffffff"
     bordercolor="#000000"
     borderopacity="0.25"
     inkscape:showpageshadow="2"
     inkscape:pageopacity="0.0"
     inkscape:pagecheckerboard="0"
     inkscape:deskcolor="#d1d1d1"
     inkscape:document-units="px"
     showgrid="false"
     inkscape:zoom="25.1875"
     inkscape:cx="15.980149"
     inkscape:cy="16"
     inkscape:window-width="1920"
     inkscape:window-height="1008"
     inkscape:window-x="0"
     inkscape:window-y="0"
     inkscape:window-maximized="1"
     inkscape:current-layer="svg5" />
  <defs
     id="defs2" />
  <rect
     style="opacity:0.2;fill:#000000;stroke-width:2;stroke-linecap:square"
     id="rect234"
     width="28"
     height="28"
     x="2"
     y="3"
     ry="6" />
  <rect
     style="fill:#d0b07c;fill-opacity:1;stroke-width:2;stroke-linecap:square"
     id="rect396"
     width="28"
     height="28"
     x="2"
     y="2"
     ry="6" />
  <g
     id="g3548"
     transform="translate(-416,-52)">
    <rect
       style="opacity:0.2;fill:#000000"
       width="6"
       height="13.3"
       x="429"
       y="54"
       id="rect3337" />
    <path
       id="rect3339"
       style="fill:#ffffff"
       d="m 432,54 v 2 h 2 v -2 z m 0,2 h -2 v 2 h 2 z m 0,2 v 2 h 2 v -2 z m 0,2 h -2 v 2 h 2 z m 0,2 v 2 h 2 v -2 z m 0,2 h -2 v 2 h 2 z" />
    <path
       style="fill:#4b4b4b"
       d="m 432,64 c 2.25,0 2.25,2.8 3,2.8 v 3.5 c 0,0.3878 -0.3345,0.7 -0.75,0.7 h -4.5 C 429.3345,71 429,70.6878 429,70.3 v -3.5 c 0.75,0 0.75,-2.8 3,-2.8 z"
       id="path3343" />
    <path
       style="opacity:0.2;fill:#000000"
       d="M 431.80078,68 C 430.24958,68 429,69.249581 429,70.800781 v 5.398438 C 429,77.750419 430.24958,79 431.80078,79 h 0.39844 C 433.75042,79 435,77.750419 435,76.199219 V 70.800781 C 435,69.249581 433.75042,68 432.19922,68 Z M 432,74 a 2,2 0 0 1 2,2 2,2 0 0 1 -2,2 2,2 0 0 1 -2,-2 2,2 0 0 1 2,-2 z"
       id="path3347" />
    <path
       style="fill:#ffffff"
       d="M 431.80078,67 C 430.24958,67 429,68.249581 429,69.800781 v 5.398438 C 429,76.750419 430.24958,78 431.80078,78 h 0.39844 C 433.75042,78 435,76.750419 435,75.199219 V 69.800781 C 435,68.249581 433.75042,67 432.19922,67 Z M 432,73 a 2,2 0 0 1 2,2 2,2 0 0 1 -2,2 2,2 0 0 1 -2,-2 2,2 0 0 1 2,-2 z"
       id="path3349" />
    <path
       style="fill:#909090"
       d="m 431.98438,65.0001 a 1,0.82954037 0 0 0 -0.98428,0.840798 v 3.31783 a 1,0.82954037 0 1 0 1.9998,0 v -3.31783 A 1,0.82954037 0 0 0 431.98438,65.0001 Z"
       id="path3351" />
  </g>
  <path
     d="M 8,2.0000001 C 4.6760033,2.0000001 2,4.6760035 2,8 V 9 C 2,5.6760035 4.6760033,3 8,3 h 16 c 3.323996,0 6,2.6760035 6,6 V 8 C 30,4.6760035 27.323996,2.0000001 24,2.0000001 Z"
     style="opacity:0.1;fill:#ffffff;stroke-width:2;stroke-linecap:square"
     id="path1040"
     sodipodi:nodetypes="sscsscsss" />
</svg>
