<?xml version="1.0" encoding="UTF-8" standalone="no"?>
<!-- Created with Inkscape (http://www.inkscape.org/) -->

<svg
   width="32"
   height="32"
   viewBox="0 0 32 32"
   version="1.1"
   id="svg5"
   inkscape:version="1.3.1 (91b66b0783, 2023-11-16, custom)"
   sodipodi:docname="beamng-drive.svg"
   xmlns:inkscape="http://www.inkscape.org/namespaces/inkscape"
   xmlns:sodipodi="http://sodipodi.sourceforge.net/DTD/sodipodi-0.dtd"
   xmlns="http://www.w3.org/2000/svg"
   xmlns:svg="http://www.w3.org/2000/svg">
  <sodipodi:namedview
     id="namedview7"
     pagecolor="#ffffff"
     bordercolor="#000000"
     borderopacity="0.25"
     inkscape:showpageshadow="2"
     inkscape:pageopacity="0.0"
     inkscape:pagecheckerboard="0"
     inkscape:deskcolor="#d1d1d1"
     inkscape:document-units="px"
     showgrid="false"
     inkscape:zoom="22.6875"
     inkscape:cx="16"
     inkscape:cy="16"
     inkscape:window-width="1920"
     inkscape:window-height="937"
     inkscape:window-x="0"
     inkscape:window-y="32"
     inkscape:window-maximized="1"
     inkscape:current-layer="svg5" />
  <defs
     id="defs2" />
  <rect
     style="opacity:0.2;fill:#000000;stroke-width:2;stroke-linecap:square"
     id="rect234"
     width="28"
     height="28"
     x="2"
     y="3"
     ry="6" />
  <rect
     style="fill:#efefef;fill-opacity:1;stroke-width:2;stroke-linecap:square"
     id="rect396"
     width="28"
     height="28"
     x="2"
     y="2"
     ry="6" />
  <path
     d="m 20.5,8 a 2.5,2.5 0 0 0 -2.5,2.5 2.5,2.5 0 0 0 0.03418,0.40918 l -3.678711,2.391601 A 5,5 0 0 0 11,12 a 5,5 0 0 0 -5,5 5,5 0 0 0 5,5 5,5 0 0 0 3.844727,-1.805664 l 4.170898,2.001953 A 3.5,3.5 0 0 0 19,22.5 3.5,3.5 0 0 0 22.5,26 3.5,3.5 0 0 0 26,22.5 3.5,3.5 0 0 0 23.235351,19.080078 l -1.30664,-6.533203 A 2.5,2.5 0 0 0 23,10.5 2.5,2.5 0 0 0 20.5,8 Z m -1.374023,4.585938 a 2.5,2.5 0 0 0 0.842773,0.355468 l 1.259765,6.297852 A 3.5,3.5 0 0 0 19.75586,20.333985 L 15.789063,18.429688 A 5,5 0 0 0 16,17 5,5 0 0 0 15.539063,14.917969 Z"
     style="opacity:0.2;fill:#000000"
     id="path1" />
  <path
     d="m 20.473633,8.5 a 1.0001,1.0001 0 0 0 -0.518555,0.161133 l -10,6.5 a 1.0001,1.0001 0 0 0 0.112305,1.740234 l 12.5,6 a 1.0001,1.0001 0 0 0 1.413086,-1.097656 l -2.5,-12.5 A 1.0001,1.0001 0 0 0 20.473633,8.5 Z m -0.665039,2.642578 1.818359,9.088867 -9.089843,-4.362304 z"
     style="fill:#353535"
     id="path2" />
  <path
     d="m 20.473633,8.5003417 a 1.0001,1.0001 0 0 0 -0.518555,0.161133 l -1.953125,1.269531 A 2.5,2.5 0 0 0 18,10.000342 a 2.5,2.5 0 0 0 0.779297,1.811523 l 1.029297,-0.668945 0.264648,1.320312 A 2.5,2.5 0 0 0 20.5,12.500342 2.5,2.5 0 0 0 22.016601,11.98374 L 21.480469,9.3040527 a 1.0001,1.0001 0 0 0 -1.006836,-0.803711 z m -6.454102,4.0195313 -4.064453,2.641602 a 1.0001,1.0001 0 0 0 0.112305,1.740234 l 5.050781,2.424805 a 5,5 0 0 0 0.779297,-1.84375 l -3.360351,-1.613281 2.8125,-1.828125 A 5,5 0 0 0 14.019531,12.519873 Z M 22.5,18.500342 a 3.5,3.5 0 0 0 -1.177735,0.208985 l 0.304688,1.52246 -1.555664,-0.746093 a 3.5,3.5 0 0 0 -0.981445,1.74707 l 3.477539,1.668945 a 1.0001,1.0001 0 0 0 1.413086,-1.097656 L 23.34082,18.606788 A 3.5,3.5 0 0 0 22.5,18.500342 Z"
     style="opacity:0.2"
     id="path3" />
  <path
     id="path4"
     style="opacity:0.1;fill:#ffffff"
     d="M 20.474609,8.5 A 1.0001,1.0001 0 0 0 19.955078,8.6621094 L 9.9550781,15.162109 A 1.0001,1.0001 0 0 0 9.6503906,16.5 1.0001,1.0001 0 0 1 9.9550781,16.162109 L 19.955078,9.6621094 A 1.0001,1.0001 0 0 1 20.474609,9.5 a 1.0001,1.0001 0 0 1 1.00586,0.804688 l 2.423828,12.115234 a 1.0001,1.0001 0 0 0 0.07617,-0.615234 l -2.5,-12.5019536 A 1.0001,1.0001 0 0 0 20.474609,8.5 Z m -7.052734,7.792969 -0.884766,0.576172 9.089844,4.363281 L 21.404297,20.125 Z" />
  <path
     id="path5"
     style="fill:#fe6501"
     d="M 20.5,7 A 2.5,2.5 0 0 0 18,9.5 2.5,2.5 0 0 0 20.5,12 2.5,2.5 0 0 0 23,9.5 2.5,2.5 0 0 0 20.5,7 Z M 11,11 a 5,5 0 0 0 -5,5 5,5 0 0 0 5,5 5,5 0 0 0 5,-5 5,5 0 0 0 -5,-5 z m 11.5,7 A 3.5,3.5 0 0 0 19,21.5 3.5,3.5 0 0 0 22.5,25 3.5,3.5 0 0 0 26,21.5 3.5,3.5 0 0 0 22.5,18 Z" />
  <path
     id="path6"
     style="opacity:0.2;fill:#ffffff"
     d="M 20.5,7 C 19.119289,7 18,8.1192895 18,9.5 18,9.6712596 18.017977,9.8384216 18.050781,10 18.282446,8.8589188 19.290549,8 20.5,8 21.709451,8 22.717554,8.8589188 22.949219,10 22.982023,9.8384216 23,9.6712596 23,9.5 23,8.1192895 21.880711,7 20.5,7 Z M 11,11 c -2.7614212,0 -5,2.238579 -5,5 0,0.168646 0.00908,0.335645 0.025391,0.5 C 6.2761125,13.973196 8.4072249,12 11,12 c 2.592775,0 4.723887,1.973196 4.974609,4.5 C 15.990917,16.335645 16,16.168646 16,16 16,13.238579 13.761421,11 11,11 Z m 11.5,7 c -1.932995,0 -3.5,1.567005 -3.5,3.5 0,0.170351 0.01554,0.336156 0.03906,0.5 0.243348,-1.695314 1.698294,-3 3.460938,-3 1.762644,0 3.21759,1.304686 3.460938,3 C 25.984456,21.836156 26,21.670351 26,21.5 26,19.567005 24.432995,18 22.5,18 Z" />
  <path
     d="M 8,2.0000001 C 4.6760033,2.0000001 2,4.6760035 2,8 V 9 C 2,5.6760035 4.6760033,3 8,3 h 16 c 3.323996,0 6,2.6760035 6,6 V 8 C 30,4.6760035 27.323996,2.0000001 24,2.0000001 Z"
     style="opacity:0.2;fill:#ffffff;stroke-width:2;stroke-linecap:square"
     id="path1040"
     sodipodi:nodetypes="sscsscsss" />
</svg>
