<?xml version="1.0" encoding="UTF-8" standalone="no"?>
<!-- Created with Inkscape (http://www.inkscape.org/) -->

<svg
   width="32"
   height="32"
   viewBox="0 0 32 32"
   version="1.1"
   id="svg5"
   inkscape:version="1.4.3 (0d15f75042, 2025-12-25)"
   sodipodi:docname="blockbench.svg"
   xmlns:inkscape="http://www.inkscape.org/namespaces/inkscape"
   xmlns:sodipodi="http://sodipodi.sourceforge.net/DTD/sodipodi-0.dtd"
   xmlns="http://www.w3.org/2000/svg"
   xmlns:svg="http://www.w3.org/2000/svg">
  <sodipodi:namedview
     id="namedview7"
     pagecolor="#ffffff"
     bordercolor="#000000"
     borderopacity="0.25"
     inkscape:showpageshadow="2"
     inkscape:pageopacity="0.0"
     inkscape:pagecheckerboard="0"
     inkscape:deskcolor="#d1d1d1"
     inkscape:document-units="px"
     showgrid="false"
     inkscape:zoom="25.21875"
     inkscape:cx="15.980173"
     inkscape:cy="16"
     inkscape:window-width="1920"
     inkscape:window-height="1010"
     inkscape:window-x="0"
     inkscape:window-y="0"
     inkscape:window-maximized="1"
     inkscape:current-layer="svg5" />
  <defs
     id="defs2" />
  <rect
     style="opacity:0.2;fill:#000000;stroke-width:2;stroke-linecap:square"
     id="rect234"
     width="28"
     height="28"
     x="2"
     y="3"
     ry="6" />
  <rect
     style="fill:#1d93d8;fill-opacity:1;stroke-width:2;stroke-linecap:square"
     id="rect396"
     width="28"
     height="28"
     x="2"
     y="2"
     ry="6" />
  <path
     id="path2"
     style="opacity:0.2;fill:#000000"
     d="m 25.679688,10 c -0.228879,0.002 -0.923902,0.05169 -3.179688,0.207031 -0.846764,0.0583 -2.155208,0.149532 -2.90625,0.201172 -0.751043,0.05164 -1.973117,0.134411 -2.716797,0.185547 -0.74368,0.05114 -1.984679,0.137141 -2.757812,0.189453 -2.64269,0.178811 -2.47958,0.16396 -2.603516,0.232422 -0.154667,0.08544 -0.252287,0.25467 -0.298828,0.517578 -0.02077,0.117368 -0.05051,0.24248 -0.06445,0.279297 -0.01394,0.03681 -0.03431,0.138145 -0.04492,0.224609 -0.01061,0.08646 -0.03517,0.202471 -0.05469,0.257813 -0.01952,0.05534 -0.04394,0.171804 -0.05469,0.257812 -0.01074,0.08601 -0.03451,0.191694 -0.05274,0.236328 -0.0182,0.04463 -0.04037,0.151819 -0.05078,0.238282 -0.01043,0.08646 -0.03572,0.20212 -0.05469,0.255859 -0.01897,0.05374 -0.04365,0.163739 -0.05469,0.244141 -0.01106,0.08041 -0.03434,0.188097 -0.05273,0.240234 -0.01839,0.05213 -0.04363,0.161786 -0.05469,0.242188 -0.01106,0.08041 -0.03433,0.188095 -0.05273,0.240234 -0.01839,0.05213 -0.04167,0.159832 -0.05273,0.240234 -0.01106,0.08041 -0.03629,0.190051 -0.05469,0.242188 -0.0184,0.05213 -0.04166,0.159831 -0.05273,0.240234 -0.01105,0.08041 -0.03629,0.188098 -0.05469,0.240235 -0.0184,0.05213 -0.04166,0.161784 -0.05273,0.242187 -0.01106,0.08041 -0.03629,0.188097 -0.05469,0.240234 -0.0184,0.05213 -0.04168,0.161489 -0.05273,0.242188 -0.01104,0.0807 -0.03083,0.176074 -0.04492,0.212891 -0.01409,0.03681 -0.04353,0.163436 -0.06445,0.28125 -0.03544,0.199563 -0.03358,0.218887 0.01172,0.28125 0.09563,0.131638 0.210183,0.161345 1.042968,0.269531 0.437377,0.05682 1.119967,0.1467 1.517579,0.199219 0.397611,0.05252 1.087731,0.142713 1.533203,0.201171 0.445471,0.05846 1.179976,0.155354 1.632812,0.214844 0.452834,0.05949 1.142956,0.150659 1.533203,0.201172 0.848274,0.109798 2.217663,0.28824 2.765625,0.361328 0.898415,0.119827 1.218918,0.163244 1.919922,0.25586 0.404973,0.05351 1.031781,0.135256 1.392578,0.183593 0.823925,0.110381 0.845973,0.112276 0.894532,0.03516 0.03758,-0.05968 0.08904,-0.296618 0.203125,-0.917969 0.03245,-0.176721 0.08714,-0.465856 0.121093,-0.642578 0.03395,-0.176721 0.08724,-0.459547 0.119141,-0.628907 0.03189,-0.169357 0.08004,-0.409978 0.107422,-0.535156 0.02738,-0.125177 0.05877,-0.275076 0.06836,-0.333984 0.01783,-0.1095 0.0628,-0.349371 0.183594,-0.964844 0.03758,-0.191449 0.0929,-0.478475 0.123047,-0.636719 0.03014,-0.158243 0.0792,-0.415837 0.109375,-0.574218 0.03019,-0.158382 0.08458,-0.432654 0.11914,-0.609375 0.03455,-0.176722 0.08811,-0.455194 0.119141,-0.617188 0.05123,-0.267506 0.08748,-0.456501 0.242188,-1.24414 0.115621,-0.588676 0.12211,-0.653235 0.06445,-0.751954 -0.02882,-0.04936 -0.09238,-0.112444 -0.140625,-0.140625 C 25.78712,10.015439 25.81703,9.9988273 25.679688,10 Z M 9.5,17.341797 c -0.109808,-0.0012 -0.213397,0.0069 -0.320312,0.02344 -0.147263,0.02283 -1.2975393,0.186877 -2.5566411,0.365235 -1.2591019,0.178358 -2.3424153,0.342105 -2.40625,0.365234 -0.270737,0.0981 -0.2929537,0.440197 -0.037109,0.568359 0.054921,0.02751 0.1714077,0.07001 0.2597656,0.0957 0.088357,0.02569 0.1917,0.05686 0.2285157,0.06836 0.036816,0.01152 0.1149228,0.03474 0.1738281,0.05078 0.1679712,0.04573 0.6025958,0.168327 0.7695312,0.216797 0.047864,0.01389 0.1344537,0.0383 0.1933594,0.05469 0.058905,0.01639 0.1433213,0.04 0.1875,0.05273 0.130478,0.03758 0.6621248,0.186919 0.7636719,0.214844 0.051542,0.01418 0.1759876,0.0505 0.2753906,0.08008 0.099402,0.02958 0.2619259,0.07785 0.3613281,0.107422 0.099403,0.02958 0.2282044,0.06766 0.2871094,0.08398 0.058904,0.01631 0.1370124,0.03752 0.1738281,0.04883 0.036815,0.01131 0.1149224,0.03505 0.1738282,0.05078 0.2510249,0.06705 0.4372631,0.118261 1.0449218,0.294922 0.353432,0.102752 0.750276,0.216369 0.882812,0.251954 0.397199,0.106646 2.230374,0.631464 2.503906,0.716796 0.139899,0.04365 0.302424,0.09269 0.361328,0.109375 0.05891,0.01669 0.16072,0.04745 0.226563,0.06836 0.06583,0.0209 0.192464,0.056 0.28125,0.07813 0.08879,0.02212 0.198009,0.05152 0.242187,0.06445 0.04418,0.01293 0.122287,0.03448 0.173829,0.04883 0.05155,0.01435 0.220372,0.06473 0.375,0.111328 0.402765,0.121394 0.584541,0.172959 0.763671,0.216797 0.05891,0.01441 0.18553,0.0495 0.28125,0.07813 0.09572,0.02861 0.306762,0.08917 0.46875,0.134766 0.16199,0.0456 0.344698,0.09996 0.408204,0.121093 0.0635,0.02114 0.21536,0.06327 0.335937,0.09375 0.120574,0.03047 0.45938,0.126184 0.753906,0.212891 0.778173,0.229085 0.821955,0.240831 0.917969,0.228516 0.04804,-0.0062 1.325011,-0.635431 2.837891,-1.398438 2.974768,-1.500303 2.871093,-1.441249 2.871093,-1.65625 0,-0.146691 0.118113,-0.117339 -1.378906,-0.335937 -0.397611,-0.05806 -0.885178,-0.129374 -1.083984,-0.158204 -0.198805,-0.02883 -0.481641,-0.07111 -0.628906,-0.09375 -0.147263,-0.02264 -0.598934,-0.08982 -1.003907,-0.148437 -0.404976,-0.05861 -1.067682,-0.155578 -1.472656,-0.214844 -0.404974,-0.05926 -0.983267,-0.141909 -1.285156,-0.185547 -0.696819,-0.10073 -2.180627,-0.317854 -3.013672,-0.441411 -0.353432,-0.05242 -0.889516,-0.132253 -1.191406,-0.175781 C 10.853518,17.544424 10.283883,17.460009 10.128906,17.425781 9.880412,17.370891 9.683013,17.343731 9.5,17.341801 Z m -1.5546875,2.992187 c -0.048166,0.01022 -1.0292969,2.111874 -1.0292969,2.205078 0,0.105724 0.077049,0.227186 0.1699219,0.267579 0.1082943,0.04711 0.129114,0.0472 0.2519531,0.002 0.055523,-0.02048 0.2281855,-0.07594 0.3828125,-0.123047 C 7.8753295,22.638474 8.0949913,22.569148 8.2089844,22.53325 8.4078377,22.47062 8.5420029,22.430084 9.072266,22.269578 9.510907,22.136758 9.785386,22.042743 9.857422,22 c 0.143634,-0.08522 0.297381,-0.365794 0.460937,-0.841797 0.03105,-0.09039 0.04138,-0.129203 0.0332,-0.152344 -4.75e-4,-0.001 -0.0033,-0.0049 -0.0039,-0.0059 -0.0052,-0.0077 -0.01287,-0.01548 -0.02344,-0.02344 -0.02484,-0.0187 -0.09493,-0.0457 -0.154297,-0.06055 C 9.958076,20.862939 9.356618,20.700194 8.6757812,20.513672 8.2953783,20.409456 7.9666924,20.329455 7.9453125,20.333984 Z m 12.4980465,1.660157 c -0.02813,7.65e-4 -0.06369,0.01401 -0.103515,0.03711 -0.04874,0.02828 -0.193027,0.109809 -0.322266,0.181641 -0.207519,0.115341 -0.617077,0.355109 -0.890625,0.521484 -0.05155,0.03134 -0.154884,0.08757 -0.228515,0.125 -0.07363,0.03743 -0.200254,0.109865 -0.28125,0.160156 -0.396101,0.245947 -0.558277,0.297156 -0.728516,0.230469 -0.03383,-0.01325 -0.209622,-0.06506 -0.390625,-0.113281 -0.256593,-0.06834 -0.324904,-0.07744 -0.357422,-0.05469 -0.0021,0.0017 -0.004,0.0038 -0.0059,0.0059 -0.03255,0.03542 -0.07048,0.127444 -0.207032,0.505859 -0.02923,0.08099 -0.07737,0.207617 -0.107422,0.28125 -0.03005,0.07364 -0.06574,0.170664 -0.07812,0.214844 -0.0124,0.04418 -0.06113,0.183416 -0.107422,0.308594 -0.0463,0.125177 -0.0931,0.258104 -0.105469,0.294921 -0.01236,0.03681 -0.06124,0.167791 -0.107422,0.292969 -0.07863,0.213128 -0.215035,0.703931 -0.212891,0.763672 0.0022,0.05936 0.129893,0.1797 0.228516,0.214844 0.13733,0.04893 0.146903,0.04911 0.326172,-0.01172 0.237652,-0.08066 1.745021,-0.853795 2.148437,-1.101563 0.198806,-0.122098 0.490478,-0.290119 0.648438,-0.375 0.15796,-0.08488 0.312493,-0.173418 0.34375,-0.195312 0.109309,-0.07656 0.187375,-0.229895 0.242187,-0.478516 0.03001,-0.136151 0.07226,-0.326151 0.09375,-0.421875 0.02148,-0.09572 0.04917,-0.22865 0.0625,-0.294921 0.01332,-0.06627 0.06868,-0.305751 0.121094,-0.53125 0.0524,-0.225499 0.09375,-0.438245 0.09375,-0.47461 0,-0.05677 -0.02733,-0.08723 -0.07422,-0.08594 z" />
  <path
     style="fill:#ffffff"
     d="m 25.680408,9.0000507 c -0.228879,0.00195 -0.924811,0.052494 -3.180597,0.2078283 -0.846764,0.058303 -2.154062,0.1482373 -2.905104,0.1998777 -0.751043,0.051638 -1.973998,0.1357204 -2.717678,0.1868571 -0.74368,0.051138 -1.984708,0.1357998 -2.757841,0.1881114 -2.64269,0.1788113 -2.480366,0.1643125 -2.604302,0.2327738 -0.154667,0.08544 -0.252326,0.254516 -0.298867,0.517424 -0.02077,0.117368 -0.04918,0.243495 -0.06312,0.280312 -0.01394,0.03681 -0.03405,0.137681 -0.04466,0.224145 -0.01061,0.08646 -0.03528,0.202481 -0.0548,0.257823 -0.01952,0.05534 -0.04432,0.17103 -0.05507,0.257038 -0.01074,0.08601 -0.03445,0.192899 -0.05267,0.237533 -0.0182,0.04463 -0.04162,0.151854 -0.05203,0.238317 -0.01043,0.08646 -0.03448,0.201207 -0.05345,0.254946 -0.01897,0.05374 -0.04349,0.163458 -0.05453,0.24386 -0.01106,0.08041 -0.03516,0.188847 -0.05355,0.240984 -0.01839,0.05213 -0.04249,0.160582 -0.05355,0.240984 -0.01106,0.08041 -0.03516,0.188846 -0.05356,0.240985 -0.01839,0.05213 -0.04249,0.160581 -0.05355,0.240983 -0.01106,0.08041 -0.03516,0.188846 -0.05356,0.240983 -0.0184,0.05213 -0.04249,0.160582 -0.05356,0.240985 -0.01105,0.08041 -0.03516,0.188846 -0.05356,0.240983 -0.0184,0.05213 -0.04249,0.160581 -0.05356,0.240984 -0.01106,0.08041 -0.03516,0.188847 -0.05356,0.240984 -0.0184,0.05213 -0.04251,0.16086 -0.05356,0.241559 -0.01104,0.0807 -0.03161,0.176816 -0.0457,0.213633 -0.01409,0.03681 -0.04272,0.163334 -0.06364,0.281148 -0.03544,0.199563 -0.03469,0.218785 0.01061,0.281148 0.09563,0.131638 0.211079,0.161457 1.043864,0.269643 0.437376,0.05682 1.120572,0.146314 1.518184,0.198833 0.397611,0.05252 1.087406,0.143303 1.532878,0.201761 0.445471,0.05846 1.180448,0.154979 1.633284,0.214469 0.452834,0.05949 1.14263,0.14947 1.532877,0.199983 0.848274,0.109798 2.216574,0.289017 2.764536,0.362105 0.898415,0.119827 1.220113,0.162539 1.921117,0.255155 0.404973,0.05351 1.031511,0.136847 1.392308,0.185184 0.823925,0.110381 0.844903,0.111169 0.893462,0.03405 0.03758,-0.05968 0.09018,-0.295728 0.204267,-0.917079 0.03245,-0.176721 0.08674,-0.465901 0.120697,-0.642623 0.03395,-0.176721 0.08786,-0.459877 0.119756,-0.629236 0.03189,-0.169358 0.0804,-0.410342 0.107779,-0.53552 0.02738,-0.125177 0.05761,-0.275792 0.0672,-0.3347 0.01783,-0.1095 0.06355,-0.348462 0.18434,-0.963935 0.03758,-0.191449 0.09296,-0.477529 0.123103,-0.635773 0.03014,-0.158243 0.07954,-0.417302 0.109716,-0.575683 0.03019,-0.158382 0.08316,-0.43259 0.117716,-0.609311 0.03455,-0.176722 0.08815,-0.453853 0.119181,-0.615847 0.05123,-0.267506 0.08831,-0.457445 0.243018,-1.2450841 0.115621,-0.5886744 0.121087,-0.6530473 0.06343,-0.7517667 -0.02882,-0.049357 -0.0919,-0.1128105 -0.14015,-0.1409921 -0.0371,-0.021669 -0.0063,-0.037983 -0.143604,-0.036814 z M 9.500369,16.341012 c -0.109808,-0.0012 -0.214282,0.0068 -0.321197,0.02332 -0.147263,0.02283 -1.2979254,0.187458 -2.5570272,0.365816 -1.2591019,0.178358 -2.3415369,0.343211 -2.4053716,0.36634 -0.270737,0.0981 -0.2931833,0.439204 -0.037339,0.567367 0.054921,0.02751 0.1721769,0.07101 0.2605348,0.0967 0.088357,0.02569 0.1907732,0.05617 0.2275889,0.06767 0.036816,0.01152 0.1151332,0.03401 0.1740385,0.05005 0.1679712,0.04573 0.6028505,0.168039 0.7697859,0.216509 0.047864,0.01389 0.1352142,0.03868 0.1941199,0.05507 0.058905,0.01639 0.1432469,0.0402 0.1874256,0.05293 0.130478,0.03758 0.6615452,0.187485 0.7630923,0.21541 0.051542,0.01418 0.1750424,0.04996 0.2744454,0.07954 0.099402,0.02958 0.262062,0.078 0.3614642,0.107575 0.099403,0.02958 0.2289281,0.0671 0.2878331,0.08342 0.058904,0.01631 0.1372229,0.0389 0.1740386,0.05021 0.036815,0.01131 0.1151329,0.03347 0.1740386,0.0492 0.2510249,0.06705 0.4365717,0.119704 1.04423,0.296365 0.353433,0.102752 0.751044,0.215911 0.883581,0.251496 0.397199,0.106646 2.229945,0.63124 2.503477,0.716572 0.139899,0.04365 0.302559,0.09298 0.361464,0.109665 0.05891,0.01669 0.160962,0.04739 0.226805,0.0683 0.06583,0.0209 0.192353,0.05611 0.281139,0.07823 0.08879,0.02212 0.197582,0.05082 0.241761,0.06375 0.04418,0.01293 0.122496,0.03523 0.174038,0.04958 0.05155,0.01435 0.220225,0.06422 0.374853,0.110817 0.402765,0.121394 0.58396,0.17288 0.763091,0.216718 0.05891,0.01441 0.185418,0.04962 0.281139,0.07824 0.09572,0.02861 0.306576,0.08928 0.468565,0.134873 0.16199,0.0456 0.346439,0.100193 0.409945,0.121329 0.0635,0.02114 0.214112,0.06334 0.334689,0.09382 0.120574,0.03047 0.460249,0.126351 0.754775,0.213058 0.778173,0.229085 0.82135,0.239805 0.917364,0.22749 0.04804,-0.0062 1.32513,-0.635461 2.83801,-1.398468 2.974768,-1.500303 2.871477,-1.440771 2.871477,-1.655772 0,-0.146691 0.118098,-0.117879 -1.378921,-0.336477 -0.397611,-0.05806 -0.885587,-0.129108 -1.084393,-0.157937 -0.198805,-0.02883 -0.481952,-0.07097 -0.629217,-0.09361 -0.147263,-0.02264 -0.599093,-0.08912 -1.004066,-0.147738 -0.404976,-0.05861 -1.067661,-0.155047 -1.472635,-0.214313 -0.404974,-0.05926 -0.983318,-0.14348 -1.285207,-0.187118 -0.696819,-0.100725 -2.17916,-0.318038 -3.012205,-0.441595 -0.353432,-0.05242 -0.889605,-0.130933 -1.191495,-0.174461 -1.845701,-0.266123 -2.415438,-0.35167 -2.570415,-0.385898 -0.248495,-0.05489 -0.446307,-0.08211 -0.62932,-0.08404 z m -1.5559398,2.992164 c -0.048166,0.01022 -1.0277579,2.113357 -1.0277579,2.206561 0,0.105723 0.076197,0.22564 0.1690701,0.266033 0.1082943,0.04711 0.1292239,0.04725 0.252063,0.002 0.055523,-0.02048 0.2274946,-0.07579 0.3821216,-0.122898 0.1546264,-0.04712 0.374392,-0.115031 0.4883851,-0.150929 0.1988533,-0.06263 0.3334968,-0.103802 0.8637599,-0.264308 0.438641,-0.132773 0.713648,-0.227266 0.785683,-0.270009 0.143634,-0.08522 0.297008,-0.365505 0.460564,-0.841508 0.04732,-0.137732 0.04768,-0.149446 0.0054,-0.181261 -0.02484,-0.0187 -0.09376,-0.04617 -0.153123,-0.06102 C 9.95875,19.86276 9.355767,19.70098 8.6749307,19.514458 8.2945278,19.410242 7.9657988,19.328667 7.9444189,19.333196 Z m 12.4991868,1.661732 c -0.02813,7.65e-4 -0.06309,0.01241 -0.102919,0.03551 -0.04874,0.02828 -0.194362,0.110213 -0.323601,0.182045 -0.207519,0.115341 -0.617406,0.355391 -0.890954,0.521766 -0.05155,0.03134 -0.153958,0.08761 -0.22759,0.125041 -0.07363,0.03743 -0.200143,0.109162 -0.281139,0.159453 -0.3961,0.245947 -0.558127,0.297264 -0.728366,0.230577 -0.03383,-0.01325 -0.209591,-0.06354 -0.390594,-0.111758 -0.283137,-0.07541 -0.333993,-0.08232 -0.364131,-0.04952 -0.03255,0.03542 -0.07049,0.128238 -0.207037,0.506653 -0.02923,0.08099 -0.07773,0.207514 -0.10778,0.281147 -0.03005,0.07364 -0.06484,0.170027 -0.07723,0.214207 -0.0124,0.04418 -0.06039,0.182748 -0.106683,0.307926 -0.0463,0.125177 -0.09426,0.257718 -0.10663,0.294535 -0.01236,0.03681 -0.06029,0.169358 -0.106473,0.294536 -0.07863,0.213128 -0.21603,0.703322 -0.213886,0.763063 0.0022,0.05936 0.130323,0.179587 0.228946,0.214731 0.13733,0.04893 0.147266,0.0486 0.326535,-0.01223 0.237652,-0.08066 1.744451,-0.852611 2.147867,-1.100378 0.198806,-0.122099 0.490658,-0.291446 0.648618,-0.376327 0.15796,-0.08488 0.312793,-0.172232 0.34405,-0.194126 0.109309,-0.07656 0.187316,-0.231045 0.242128,-0.479666 0.03001,-0.136151 0.07212,-0.325894 0.09361,-0.421618 0.02148,-0.09572 0.04995,-0.228266 0.06328,-0.294537 0.01332,-0.06627 0.06713,-0.304947 0.119545,-0.530446 0.0524,-0.225498 0.09528,-0.439798 0.09528,-0.476163 0,-0.05677 -0.02795,-0.08569 -0.07484,-0.0844 z"
     id="path3" />
  <path
     d="M 8,2.0000001 C 4.6760033,2.0000001 2,4.6760035 2,8 V 9 C 2,5.6760035 4.6760033,3 8,3 h 16 c 3.323996,0 6,2.6760035 6,6 V 8 C 30,4.6760035 27.323996,2.0000001 24,2.0000001 Z"
     style="opacity:0.2;fill:#ffffff;stroke-width:2;stroke-linecap:square"
     id="path1040"
     sodipodi:nodetypes="sscsscsss" />
</svg>
