<?xml version="1.0" encoding="UTF-8" standalone="no"?>
<!-- Created with Inkscape (http://www.inkscape.org/) -->

<svg
   width="32"
   height="32"
   viewBox="0 0 32 32"
   version="1.1"
   id="svg5"
   inkscape:version="1.2.2 (1:1.2.2+202305151914+b0a8486541)"
   sodipodi:docname="code-oss.svg"
   xmlns:inkscape="http://www.inkscape.org/namespaces/inkscape"
   xmlns:sodipodi="http://sodipodi.sourceforge.net/DTD/sodipodi-0.dtd"
   xmlns="http://www.w3.org/2000/svg"
   xmlns:svg="http://www.w3.org/2000/svg">
  <sodipodi:namedview
     id="namedview7"
     pagecolor="#ffffff"
     bordercolor="#000000"
     borderopacity="0.25"
     inkscape:showpageshadow="2"
     inkscape:pageopacity="0.0"
     inkscape:pagecheckerboard="0"
     inkscape:deskcolor="#d1d1d1"
     inkscape:document-units="px"
     showgrid="false"
     inkscape:zoom="25.1875"
     inkscape:cx="16"
     inkscape:cy="16"
     inkscape:window-width="1920"
     inkscape:window-height="1008"
     inkscape:window-x="0"
     inkscape:window-y="0"
     inkscape:window-maximized="1"
     inkscape:current-layer="svg5" />
  <defs
     id="defs2" />
  <rect
     style="opacity:0.2;fill:#000000;stroke-width:2;stroke-linecap:square"
     id="rect234"
     width="28"
     height="28"
     x="2"
     y="3"
     ry="6" />
  <rect
     style="fill:#efefef;fill-opacity:1;stroke-width:2;stroke-linecap:square"
     id="rect396"
     width="28"
     height="28"
     x="2"
     y="2"
     ry="6" />
  <rect
     style="opacity:0.2;fill:#000000;fill-opacity:1;stroke-linecap:round;stroke-linejoin:round"
     id="rect872"
     width="20"
     height="18"
     x="6"
     y="7.9999995"
     ry="1" />
  <rect
     style="fill:#167abf;fill-opacity:1;stroke-linecap:round;stroke-linejoin:round"
     id="rect410"
     width="20"
     height="18"
     x="6"
     y="7"
     ry="1" />
  <path
     d="M 6.9999999,7.0000001 H 12.5 V 25.000001 H 6.9999999 c -0.554,0 -1,-0.446 -1,-1 V 8.0000001 c 0,-0.554 0.446,-1 1,-1 z"
     style="opacity:0.2;fill:#000000;stroke-linecap:round;stroke-linejoin:round"
     id="path803" />
  <path
     d="m 17,9.9999997 c -0.553999,0 -1,0.4460013 -1,1.0000003 0,0.554 0.446001,1.000001 1,1.000001 h 4 c 0.553999,0 1,-0.446001 1,-1.000001 0,-0.553999 -0.446001,-1.0000003 -1,-1.0000003 z m 1,4.0000013 c -0.554,0 -1,0.446 -1,1 0,0.553999 0.446,1 1,1 h 5 c 0.553999,0 1,-0.446001 1,-1 0,-0.554 -0.446001,-1 -1,-1 z M 18,18 c -0.554,0 -1,0.446002 -1,1 0,0.553999 0.446,1 1,1 h 5 c 0.553999,0 1,-0.446001 1,-1 0,-0.553998 -0.446001,-1 -1,-1 z m -1,4 c -0.553999,0 -1,0.446001 -1,1 0,0.553999 0.446001,1 1,1 h 4 c 0.553999,0 1,-0.446001 1,-1 0,-0.553999 -0.446001,-1 -1,-1 z"
     style="opacity:0.2;fill:#000000;fill-opacity:1;stroke-linecap:round;stroke-linejoin:round"
     id="path1073" />
  <path
     d="m 17,9.0000001 c -0.553999,0 -1,0.4460006 -1,0.9999996 C 16,10.554 16.446001,11 17,11 h 4 c 0.553999,0 1,-0.446 1,-1.0000003 0,-0.553999 -0.446001,-0.9999996 -1,-0.9999996 z m 1,4.0000009 c -0.554,0 -1,0.446 -1,1 0,0.553999 0.446,1 1,1 h 5 c 0.553999,0 1,-0.446001 1,-1 0,-0.554 -0.446001,-1 -1,-1 z M 18,17 c -0.554,0 -1,0.446002 -1,1 0,0.553999 0.446,1 1,1 h 5 c 0.553999,0 1,-0.446001 1,-1 0,-0.553998 -0.446001,-1 -1,-1 z m -1,4 c -0.553999,0 -1,0.446001 -1,1 0,0.553999 0.446001,1 1,1 h 4 c 0.553999,0 1,-0.446001 1,-1 0,-0.553999 -0.446001,-1 -1,-1 z"
     style="fill:#ffffff;fill-opacity:1;stroke-linecap:round;stroke-linejoin:round"
     id="path1035" />
  <path
     d="m 6.9999999,7.0000001 c -0.553999,0 -1,0.4460009 -1,0.9999999 v 1 c 0,-0.553999 0.446001,-1 1,-1 H 25 c 0.553999,0 1,0.446001 1,1 V 8 C 26,7.446001 25.553999,7.0000001 25,7.0000001 Z"
     style="opacity:0.1;fill:#ffffff;fill-opacity:1;stroke-linecap:round;stroke-linejoin:round"
     id="path969" />
  <rect
     style="opacity:0.2;fill:#000000;fill-opacity:1;stroke-linecap:round;stroke-linejoin:round"
     id="rect874"
     width="2"
     height="20"
     x="12"
     y="7"
     ry="1" />
  <rect
     style="fill:#ffffff;fill-opacity:1;stroke-linecap:round;stroke-linejoin:round"
     id="rect876"
     width="2"
     height="20"
     x="12"
     y="6"
     ry="1" />
  <path
     d="M 8,2.0000001 C 4.6760033,2.0000001 2,4.6760035 2,8 V 9 C 2,5.6760035 4.6760033,3 8,3 h 16 c 3.323996,0 6,2.6760035 6,6 V 8 C 30,4.6760035 27.323996,2.0000001 24,2.0000001 Z"
     style="opacity:0.2;fill:#ffffff;stroke-width:2;stroke-linecap:square"
     id="path1040"
     sodipodi:nodetypes="sscsscsss" />
</svg>
