<?xml version="1.0" encoding="UTF-8" standalone="no"?>
<!-- Created with Inkscape (http://www.inkscape.org/) -->

<svg
   width="32"
   height="32"
   viewBox="0 0 32 32"
   version="1.1"
   id="svg5"
   inkscape:version="1.3 (0e150ed6c4, 2023-07-21)"
   sodipodi:docname="com.github.maoschanz.drawing.svg"
   xmlns:inkscape="http://www.inkscape.org/namespaces/inkscape"
   xmlns:sodipodi="http://sodipodi.sourceforge.net/DTD/sodipodi-0.dtd"
   xmlns="http://www.w3.org/2000/svg"
   xmlns:svg="http://www.w3.org/2000/svg">
  <sodipodi:namedview
     id="namedview7"
     pagecolor="#ffffff"
     bordercolor="#000000"
     borderopacity="0.25"
     inkscape:showpageshadow="2"
     inkscape:pageopacity="0.0"
     inkscape:pagecheckerboard="0"
     inkscape:deskcolor="#d1d1d1"
     inkscape:document-units="px"
     showgrid="false"
     inkscape:zoom="24.46875"
     inkscape:cx="16"
     inkscape:cy="16"
     inkscape:window-width="1920"
     inkscape:window-height="984"
     inkscape:window-x="0"
     inkscape:window-y="29"
     inkscape:window-maximized="1"
     inkscape:current-layer="svg5" />
  <defs
     id="defs2" />
  <rect
     style="opacity:0.2;fill:#000000;stroke-width:2;stroke-linecap:square"
     id="rect234"
     width="28"
     height="28"
     x="2"
     y="3"
     ry="6" />
  <rect
     style="fill:#e4e4e4;fill-opacity:1;stroke-width:2;stroke-linecap:square"
     id="rect396"
     width="28"
     height="27"
     x="2"
     y="3"
     ry="6" />
  <path
     id="rect1233"
     style="fill:#565064;fill-opacity:1;stroke-width:2;stroke-linecap:square"
     d="m 8,2 h 16 c 3.324,0 6,2.676 6,5.9999999 V 9 H 1.9999999 V 7.9999999 C 1.9999999,4.676 4.6759999,2 8,2 Z"
     sodipodi:nodetypes="sssccss" />
  <rect
     style="opacity:0.2;fill:#000000;fill-opacity:1;stroke-width:5;stroke-linecap:round;stroke-linejoin:round"
     id="rect4964"
     width="28"
     height="1"
     x="2.0000002"
     y="8.999999" />
  <path
     d="M 8,2.0000001 C 4.6760033,2.0000001 2,4.6760035 2,8 V 9 C 2,5.6760035 4.6760033,3 8,3 h 16 c 3.323996,0 6,2.6760035 6,6 V 8 C 30,4.6760035 27.323996,2.0000001 24,2.0000001 Z"
     style="opacity:0.1;fill:#ffffff;stroke-width:2;stroke-linecap:square"
     id="path1040"
     sodipodi:nodetypes="sscsscsss" />
  <path
     style="color:#000000;fill:#ff4e4a;stroke-linecap:round;-inkscape-stroke:none"
     d="m 6.8808594,12.09375 a 0.65908998,0.65908998 0 0 0 -0.8359375,0.412109 0.65908998,0.65908998 0 0 0 0.4121093,0.835938 c 0.6743164,0.228853 0.7468652,0.412872 0.8046875,0.714844 0.057822,0.301972 -0.034285,0.808188 -0.1230468,1.382812 -0.088762,0.574624 -0.1772058,1.299981 0.2773437,1.939453 0.4545495,0.639472 1.2944655,0.952773 2.5820313,1.035156 0.5327631,0.03409 0.8510721,0.232881 1.1289061,0.560547 0.277834,0.327667 0.48325,0.805797 0.611328,1.306641 0.256157,1.001688 0.203125,2.025391 0.203125,2.025391 a 0.65908998,0.65908998 0 0 0 0.619141,0.697265 0.65908998,0.65908998 0 0 0 0.697266,-0.621094 c 0,0 0.0769,-1.179947 -0.242188,-2.427734 C 12.85608,19.331185 12.598898,18.67273 12.132813,18.123047 11.666727,17.573364 10.957806,17.153692 10.082031,17.097656 8.9728669,17.026687 8.6055582,16.774727 8.4921875,16.615234 8.3788168,16.455742 8.3630904,16.147623 8.4414063,15.640625 8.5197221,15.133627 8.6905546,14.507947 8.5566406,13.808594 8.4227267,13.10924 7.8509054,12.42297 6.8808594,12.09375 Z"
     id="path5" />
  <path
     style="opacity:0.1;fill:#000000"
     d="m 28.750106,4.0019539 c -0.21117,-0.014818 -0.455659,0.060754 -0.701172,0.3398438 l -14.59375,14.5742193 0.363281,0.363281 -1.818359,3.994141 0.726562,0.726562 4,-1.816406 0.363282,0.363281 L 31.707137,7.9492196 C 32.423109,7.2341709 31.601668,6.5410164 31.601668,6.5410164 L 29.359481,4.300782 c 0,0 -0.257426,-0.2741314 -0.609375,-0.2988281 z"
     id="path6" />
  <path
     style="fill:#ff4e4a"
     d="M 17.089872,21.547654 13.454324,17.916788 28.048516,3.3414007 c 0.654701,-0.7442397 1.310437,-0.039742 1.310437,-0.039742 L 31.6014,5.5412146 c 0,0 0.821755,0.6929136 0.105783,1.4079622 z"
     id="path7" />
  <rect
     style="fill:#3d3846"
     width="5.138"
     height="1.028"
     x="-27.326725"
     y="14.296726"
     transform="matrix(-0.70756248,-0.70665079,0.70756248,-0.70665079,0,0)"
     id="rect7" />
  <rect
     style="fill:#3d3846"
     width="5.138"
     height="1.028"
     x="-27.326725"
     y="-0.083274178"
     transform="matrix(-0.70756248,-0.70665079,0.70756248,-0.70665079,0,0)"
     id="rect8" />
  <path
     style="fill:#c02924"
     d="m 16.72632,21.184569 -2.908439,-2.904693 -1.817775,3.993952 0.72711,0.726173 z"
     id="path8" />
  <path
     style="fill:#3d3846"
     d="M 19.271209,12.107577 A 1.2845316,2.5690668 45.06156 0 0 21.99787,11.199861 1.2845316,2.5690668 45.06156 0 0 22.906758,8.476712 Z"
     id="path9" />
</svg>
