<?xml version="1.0" encoding="UTF-8" standalone="no"?>
<!-- Created with Inkscape (http://www.inkscape.org/) -->

<svg
   width="32"
   height="32"
   viewBox="0 0 32 32"
   version="1.1"
   id="svg5"
   inkscape:version="1.3 (0e150ed6c4, 2023-07-21)"
   sodipodi:docname="cs-user-accounts.svg"
   xmlns:inkscape="http://www.inkscape.org/namespaces/inkscape"
   xmlns:sodipodi="http://sodipodi.sourceforge.net/DTD/sodipodi-0.dtd"
   xmlns="http://www.w3.org/2000/svg"
   xmlns:svg="http://www.w3.org/2000/svg">
  <sodipodi:namedview
     id="namedview7"
     pagecolor="#ffffff"
     bordercolor="#000000"
     borderopacity="0.25"
     inkscape:showpageshadow="2"
     inkscape:pageopacity="0.0"
     inkscape:pagecheckerboard="0"
     inkscape:deskcolor="#d1d1d1"
     inkscape:document-units="px"
     showgrid="false"
     inkscape:zoom="24.46875"
     inkscape:cx="15.979566"
     inkscape:cy="16"
     inkscape:window-width="1920"
     inkscape:window-height="984"
     inkscape:window-x="0"
     inkscape:window-y="29"
     inkscape:window-maximized="1"
     inkscape:current-layer="svg5" />
  <defs
     id="defs2" />
  <rect
     style="opacity:0.2;fill:#000000;stroke-width:2;stroke-linecap:square"
     id="rect234"
     width="28"
     height="28"
     x="2"
     y="3"
     ry="6" />
  <rect
     style="fill:#1976d2;fill-opacity:1;stroke-width:2;stroke-linecap:square"
     id="rect396"
     width="28"
     height="28"
     x="2"
     y="2"
     ry="6" />
  <path
     d="m 22,16 c 4,-0.002 4,3.201 4,3.201 V 20 h -8 v -0.79946 c 0,0 0,-3.1979 4.0002,-3.2005 z M 12,19.000685 C 18,18.997685 18,23 18,23 v 1.000015 H 6 V 23 c 0,0 0,-3.996615 6.0002,-4.000015 z M 22,11 c 1.105,0 2,0.895 2,2 0,1.105 -0.895,2 -2,2 -1.105,0 -2,-0.895 -2,-2 0,-1.1045 0.89543,-2 2,-2 z m -10,0 c 1.6569,0 3,1.3432 3,3 0,1.6568 -1.3431,3 -3,3 -1.6569,0 -3,-1.3432 -3,-3 0,-1.6568 1.3431,-3 3,-3 z"
     style="opacity:0.2;fill:#000000"
     id="path2171" />
  <path
     d="m 22,15 c 4,-0.002 4,3.201 4,3.201 V 19 h -8 v -0.79946 c 0,0 0,-3.1979 4.0002,-3.2005 z M 12,18.000685 C 18,17.997685 18,22 18,22 v 1.000015 H 6 V 22 c 0,0 0,-3.996615 6.0002,-4.000015 z M 22,10 c 1.105,0 2,0.895 2,2 0,1.105 -0.895,2 -2,2 -1.105,0 -2,-0.895 -2,-2 0,-1.1045 0.89543,-2 2,-2 z m -10,0 c 1.6569,0 3,1.3432 3,3 0,1.6568 -1.3431,3 -3,3 -1.6569,0 -3,-1.3432 -3,-3 0,-1.6568 1.3431,-3 3,-3 z"
     style="fill:#ffffff"
     id="path2143"
     sodipodi:nodetypes="ccccccccccccccssssssssss" />
  <g
     id="g361"
     transform="matrix(0.49999709,0,0,0.49999709,3.4946207e-5,3.492e-5)" />
  <path
     d="M 8,2.0000001 C 4.6760033,2.0000001 2,4.6760035 2,8 V 9 C 2,5.6760035 4.6760033,3 8,3 h 16 c 3.323996,0 6,2.6760035 6,6 V 8 C 30,4.6760035 27.323996,2.0000001 24,2.0000001 Z"
     style="opacity:0.2;fill:#ffffff;stroke-width:2;stroke-linecap:square"
     id="path1040"
     sodipodi:nodetypes="sscsscsss" />
</svg>
