<?xml version="1.0" encoding="UTF-8" standalone="no"?>
<!-- Created with Inkscape (http://www.inkscape.org/) -->

<svg
   width="32"
   height="32"
   viewBox="0 0 32 32"
   version="1.1"
   id="svg5"
   inkscape:version="1.3.2 (091e20ef0f, 2023-11-25, custom)"
   sodipodi:docname="desktop-profiler.svg"
   xmlns:inkscape="http://www.inkscape.org/namespaces/inkscape"
   xmlns:sodipodi="http://sodipodi.sourceforge.net/DTD/sodipodi-0.dtd"
   xmlns="http://www.w3.org/2000/svg"
   xmlns:svg="http://www.w3.org/2000/svg">
  <sodipodi:namedview
     id="namedview7"
     pagecolor="#ffffff"
     bordercolor="#000000"
     borderopacity="0.25"
     inkscape:showpageshadow="2"
     inkscape:pageopacity="0.0"
     inkscape:pagecheckerboard="0"
     inkscape:deskcolor="#d1d1d1"
     inkscape:document-units="px"
     showgrid="false"
     inkscape:zoom="25.6875"
     inkscape:cx="16"
     inkscape:cy="16"
     inkscape:window-width="1920"
     inkscape:window-height="1008"
     inkscape:window-x="0"
     inkscape:window-y="0"
     inkscape:window-maximized="1"
     inkscape:current-layer="svg5" />
  <defs
     id="defs2" />
  <rect
     style="opacity:0.2;fill:#000000;stroke-width:2;stroke-linecap:square"
     id="rect234"
     width="28"
     height="28"
     x="2"
     y="3"
     ry="6" />
  <rect
     style="fill:#673ab7;fill-opacity:1;stroke-width:2;stroke-linecap:square"
     id="rect396"
     width="28"
     height="24"
     x="2.0000005"
     y="2"
     ry="6" />
  <path
     id="rect391"
     style="fill:#7e57c2;fill-opacity:1;stroke-width:2;stroke-linecap:square"
     d="m 2,9 v 15 c 0,3.323992 2.6760084,6 6,6 h 16 c 3.323992,0 6,-2.676008 6,-6 V 9 Z" />
  <path
     id="path4"
     style="opacity:0.2;fill:#000000"
     d="M 14 13 L 14 15.236328 A 5 5 0 0 0 12.123047 16.318359 L 10.1875 15.201172 L 8.6875 17.798828 L 10.623047 18.916016 A 5 5 0 0 0 10.5 20 A 5 5 0 0 0 10.625 21.082031 L 8.6875 22.201172 L 10.1875 24.798828 L 12.125 23.679688 A 5 5 0 0 0 14 24.769531 L 14 27 L 17 27 L 17 24.763672 A 5 5 0 0 0 18.876953 23.681641 L 20.8125 24.798828 L 22.3125 22.201172 L 20.376953 21.083984 A 5 5 0 0 0 20.5 20 A 5 5 0 0 0 20.375 18.917969 L 22.3125 17.798828 L 20.8125 15.201172 L 18.875 16.320312 A 5 5 0 0 0 17 15.230469 L 17 13 L 14 13 z M 15.5 17 A 3 3 0 0 1 18.5 20 A 3 3 0 0 1 15.5 23 A 3 3 0 0 1 12.5 20 A 3 3 0 0 1 15.5 17 z " />
  <path
     style="fill:#ffffff"
     d="m 14.0005,12 v 2.236328 a 5,5 0 0 0 -1.876953,1.082031 L 10.188,14.201172 l -1.5,2.597656 1.935547,1.117188 A 5,5 0 0 0 10.5005,19 a 5,5 0 0 0 0.125,1.082031 l -1.9375,1.119141 1.5,2.597656 1.9375,-1.11914 a 5,5 0 0 0 1.875,1.089843 V 26 h 3 v -2.236328 a 5,5 0 0 0 1.876953,-1.082031 l 1.935547,1.117187 1.5,-2.597656 -1.935547,-1.117188 A 5,5 0 0 0 20.5005,19 5,5 0 0 0 20.3755,17.917969 l 1.9375,-1.119141 -1.5,-2.597656 -1.9375,1.11914 a 5,5 0 0 0 -1.875,-1.089843 V 12 Z m 1.5,4 a 3,3 0 0 1 3,3 3,3 0 0 1 -3,3 3,3 0 0 1 -3,-3 3,3 0 0 1 3,-3 z"
     id="path5" />
  <g
     id="g361"
     transform="matrix(0.49999709,0,0,0.49999709,3.4946207e-5,3.492e-5)" />
  <path
     d="M 8,2.0000001 C 4.6760033,2.0000001 2,4.6760035 2,8 V 9 C 2,5.6760035 4.6760033,3 8,3 h 16 c 3.323996,0 6,2.6760035 6,6 V 8 C 30,4.6760035 27.323996,2.0000001 24,2.0000001 Z"
     style="opacity:0.1;fill:#ffffff;stroke-width:2;stroke-linecap:square"
     id="path1040"
     sodipodi:nodetypes="sscsscsss" />
</svg>
