<?xml version="1.0" encoding="UTF-8" standalone="no"?>
<!-- Created with Inkscape (http://www.inkscape.org/) -->

<svg
   width="32"
   height="32"
   viewBox="0 0 32 32"
   version="1.1"
   id="svg5"
   inkscape:version="1.3.2 (091e20ef0f, 2023-11-25, custom)"
   sodipodi:docname="dragonplayer.svg"
   xmlns:inkscape="http://www.inkscape.org/namespaces/inkscape"
   xmlns:sodipodi="http://sodipodi.sourceforge.net/DTD/sodipodi-0.dtd"
   xmlns="http://www.w3.org/2000/svg"
   xmlns:svg="http://www.w3.org/2000/svg">
  <sodipodi:namedview
     id="namedview7"
     pagecolor="#ffffff"
     bordercolor="#000000"
     borderopacity="0.25"
     inkscape:showpageshadow="2"
     inkscape:pageopacity="0.0"
     inkscape:pagecheckerboard="0"
     inkscape:deskcolor="#d1d1d1"
     inkscape:document-units="px"
     showgrid="false"
     inkscape:zoom="26.21875"
     inkscape:cx="15.98093"
     inkscape:cy="16"
     inkscape:window-width="1878"
     inkscape:window-height="1052"
     inkscape:window-x="0"
     inkscape:window-y="0"
     inkscape:window-maximized="1"
     inkscape:current-layer="svg5" />
  <defs
     id="defs2" />
  <rect
     style="opacity:0.2;fill:#000000;stroke-width:2;stroke-linecap:square"
     id="rect234"
     width="28"
     height="28"
     x="2"
     y="3"
     ry="6" />
  <rect
     style="fill:#413d58;fill-opacity:1;stroke-width:2;stroke-linecap:square"
     id="rect396"
     width="28"
     height="28"
     x="2"
     y="2"
     ry="6" />
  <path
     style="opacity:0.2;fill:#000000"
     d="m 18.1007,14.199131 c 0,0 0.1316,2.45 -1.9691,3.85 -2.1,1.4 -7.5047,2.2673 -10.15,3.7191 -1.9362,1.0619 -3.2816,2.9316 -3.2816,2.9316 0,0 2.8,-1.7 4.2,-1.7 1.4,0 3.5,1 3.5,1 0,0 1.4,-1.5 3.5,-1.5 2.1,0 5.6,1.5 5.6,1.5 l -0.7,-8.4 z"
     id="path2" />
  <path
     style="fill:#00d6cc"
     d="m 17.4,11.099831 c 0,0 0,4.2 -2.1,5.6 -2.1,1.4 -6.3,2.1 -9.1,3.5 -2.8,1.4 -3.5,3.5 -3.5,3.5 0,0 2.8,-2.138137 4.2,-2.138137 1.4,0 3.5,-0.661863 3.5,-0.661863 0,0 1.687053,-0.448213 3.787053,-0.448213 2.1,0 3.912947,-0.251787 3.912947,-0.251787 l 0.7,-5.6 z"
     id="path3" />
  <path
     style="fill:#365d78"
     d="m 18.1007,13.199131 c 0,0 0.1316,2.45 -1.9691,3.85 -2.1,1.4 -7.5047,2.2673 -10.15,3.7191 -1.9362,1.0619 -3.2816,2.9316 -3.2816,2.9316 0,0 2.8,-1.7 4.2,-1.7 1.4,0 3.5,1 3.5,1 0,0 1.4,-1.5 3.5,-1.5 2.1,0 5.6,1.5 5.6,1.5 l -0.7,-8.4 z"
     id="path4" />
  <path
     style="opacity:0.2;fill:#000000"
     d="m 15.608145,7.0138896 c -0.367746,0.07901 -1.513031,1.5138312 -2.106766,2.0835941 -0.678555,0.6511582 -0.73319,0.3506601 -1.520312,0.7847658 -0.787124,0.4341045 -1.270966,1.1485785 -1.569531,1.6912105 -0.298565,0.542631 -1.0540424,0.735795 -1.838867,1.520313 -0.7848246,0.784517 -1.5708987,1.234878 -1.5708987,2.672852 0.032641,0.02712 -0.1042216,0.215071 0.2214842,0.269335 0.3257065,0.05426 0.4963336,-0.06932 0.6863283,-0.367774 0.1899961,-0.298446 2.0678522,-0.975984 3.2621092,-1.491484 1.194257,-0.5155 1.952229,-0.784696 2.305078,-1.300195 0.352848,-0.515501 0.471451,-0.464232 1.177149,-0.735547 0.705697,-0.271316 2.109025,0.04763 3.140429,1.594141 1.031403,1.546498 1.232796,2.565672 1.205653,5.658672 -0.02714,3.092999 -1.13426,4.953043 -2.382801,7.015042 -0.708009,1.169297 -3.663158,3.289512 -5.702539,4.591016 h 8.289258 c 0.204363,-0.363357 0.450422,-0.785416 0.576952,-1.034961 0.310948,-0.613253 2.69948,-7.348487 3.285352,-11.526761 0.103831,-0.740485 1.25097,-0.918266 0.913281,-1.803321 -0.256295,-0.671729 -2.002245,-2.161506 -2.04121,-2.242187 -0.156963,-0.32501 0.773559,-0.652598 0.449804,-1.151172 -0.460023,-0.708426 -1.843207,-1.537436 -2.034375,-1.696679 -0.325706,-0.271315 0.155543,-0.478329 0.48125,-0.803907 -0.397537,-0.804683 -1.322001,-1.17051 -2.377609,-1.3056639 -0.542843,0 -0.144072,-0.8515703 0.154492,-1.1771487 -0.538804,-0.5536405 -1.546364,-0.3746099 -2.46504,-0.1900388 -0.428393,-0.045129 0.232166,-1.2048547 -0.538671,-1.054102 z"
     id="path5" />
  <path
     style="fill:#167ddd"
     d="m 15.608145,6.0138896 c -0.367746,0.07901 -1.513031,1.5138312 -2.106766,2.0835941 -0.678555,0.6511582 -0.73319,0.3506601 -1.520312,0.7847658 -0.787124,0.434105 -1.270966,1.1485785 -1.569531,1.6912105 -0.298565,0.542631 -1.0540424,0.735795 -1.838867,1.520313 -0.7848246,0.784517 -1.5708987,1.234878 -1.5708987,2.672852 0.032641,0.02712 -0.1042216,0.215071 0.2214842,0.269335 0.3257065,0.05426 0.4963336,-0.06932 0.6863283,-0.367774 0.1899961,-0.298446 2.0678522,-0.975984 3.2621092,-1.491484 1.194257,-0.5155 1.952229,-0.784696 2.305078,-1.300195 0.352848,-0.515501 0.471451,-0.464232 1.177149,-0.735547 0.705697,-0.271316 2.109025,0.04763 3.140429,1.594141 1.031403,1.546498 1.232796,2.565672 1.205653,5.658672 -0.02714,3.092999 -1.13426,4.953043 -2.382801,7.015042 -0.708009,1.169297 -3.663158,3.289512 -5.702539,4.591016 h 8.289258 c 0.204363,-0.363357 0.450422,-0.785416 0.576952,-1.034961 0.310948,-0.613253 2.69948,-7.348487 3.285352,-11.526761 0.103831,-0.740485 1.25097,-0.918266 0.913281,-1.803321 -0.256295,-0.671729 -2.002245,-2.161506 -2.04121,-2.242187 -0.156963,-0.32501 0.773559,-0.652598 0.449804,-1.151172 -0.460023,-0.708426 -1.843207,-1.537436 -2.034375,-1.696679 -0.325706,-0.271315 0.155543,-0.478329 0.48125,-0.8039071 C 20.437436,8.93616 19.512972,8.570333 18.457364,8.4351791 c -0.542843,0 -0.144072,-0.8515703 0.154492,-1.1771487 -0.538804,-0.5536405 -1.546364,-0.3746099 -2.46504,-0.1900388 -0.428393,-0.045129 0.232166,-1.2048547 -0.538671,-1.054102 z"
     id="path6" />
  <path
     style="opacity:0.2;fill:#ffffff"
     d="m 15.607423,6.0135031 c -0.367746,0.07901 -1.511734,1.5142215 -2.105469,2.0839843 -0.678555,0.6511582 -0.734362,0.3510506 -1.521484,0.7851563 -0.787124,0.434105 -1.269795,1.1487743 -1.56836,1.6914063 -0.298565,0.542631 -1.0550188,0.735013 -1.8398434,1.519531 -0.7848246,0.784517 -1.5703125,1.235854 -1.5703125,2.673828 0.026793,0.02226 -0.046378,0.148506 0.1015625,0.22461 0.2323698,-0.857631 0.8475751,-1.277507 1.46875,-1.898438 0.7848246,-0.784518 1.5412784,-0.9769 1.8398434,-1.519531 0.298565,-0.542632 0.781236,-1.257302 1.56836,-1.6914063 0.787122,-0.4341057 0.842929,-0.1339981 1.521484,-0.7851563 0.593735,-0.5697628 1.737723,-2.0049743 2.105469,-2.0839843 0.770837,-0.1507527 0.110669,1.0095585 0.539062,1.0546875 0.72611,-0.1458827 1.504586,-0.2825711 2.066407,-0.0625 C 18.273841,7.743916 18.454346,7.4288309 18.611329,7.2576437 18.072525,6.7040032 17.065161,6.8836195 16.146485,7.0681906 15.718092,7.0230616 16.37826,5.8627504 15.607423,6.0135031 Z m 2.875,2.4277343 c -0.26242,0.3837263 -0.490953,0.9941407 -0.02539,0.9941407 0.750648,0.096108 1.424692,0.3183997 1.900391,0.7226559 C 20.478314,10.03337 20.675545,9.900397 20.83594,9.7400656 20.441738,8.9421336 19.526966,8.57911 18.482423,8.4412374 Z m 2.261719,2.3789056 c -0.313783,0.276039 -0.685579,0.478912 -0.390625,0.72461 0.167314,0.139373 1.217536,0.790182 1.792968,1.425781 0.199985,-0.207981 0.431144,-0.437528 0.242188,-0.728515 -0.361775,-0.557127 -1.169647,-1.100007 -1.644531,-1.421876 z m 1.570312,2.933594 c -0.182239,0.237413 -0.472402,0.441034 -0.376953,0.638672 0.03516,0.07281 1.451778,1.288412 1.917969,2.019531 0.164674,-0.203014 0.25451,-0.437907 0.125,-0.777343 -0.204873,-0.536956 -1.190194,-1.436046 -1.666016,-1.88086 z m -3.326172,4.871094 c -0.08072,2.950527 -1.155143,4.775029 -2.371093,6.783203 -0.708009,1.169297 -3.663745,3.290293 -5.703126,4.591797 h 1.5 c 1.771937,-1.222941 3.655799,-2.687872 4.203126,-3.591797 1.24854,-2.061999 2.355672,-3.920673 2.382812,-7.013672 0.0026,-0.301641 -0.0095,-0.504925 -0.01172,-0.769531 z"
     id="path7" />
  <path
     style="opacity:0.1;fill:#000000"
     d="m 25.8007,10.699131 c -0.7,0 -0.7,2.1 -2.8,4.2 -2.1,2.1 -2.8,2.1 -2.8,2.1 0,0 2.1,1.4 2.1,4.2 2.1,1.4 2.1,4.2 2.1,4.2 l 2.8,-7.7 -0.7,-5.6 z"
     id="path8" />
  <path
     style="fill:#365d78"
     d="m 25.8007,9.6991313 c -0.7,0 -0.7,2.0999997 -2.8,4.1999997 -2.1,2.1 -2.8,2.1 -2.8,2.1 0,0 2.1,1.4 2.1,4.2 2.1,1.4 2.1,4.2 2.1,4.2 l 2.8,-7.7 -0.7,-5.6 z"
     id="path9" />
  <path
     style="fill:#ffffff"
     d="m 11.000001,10.453153 c 0.06538,-0.257331 0.321479,-0.4954635 0.73389,-0.6294548 0.412411,-0.1339912 0.719057,-0.074872 0.761463,0.090481 0.04438,0.1730468 -0.233283,0.4188808 -0.654769,0.5295458 -0.418479,0.109877 -0.739078,0.02768 -0.840584,0.0094 z"
     id="path10" />
  <path
     style="fill:#2e3436"
     d="m 11.641589,9.8574221 c -0.03866,0.016087 -0.06714,0.043965 -0.103018,0.063307 -0.01309,0.075702 -0.0151,0.1695399 0.02486,0.2956999 0.03162,0.09976 0.0663,0.200482 0.109436,0.258534 0.06249,-0.01303 0.109419,-0.01183 0.176377,-0.02941 0.0075,-0.07563 -0.0105,-0.177306 -0.04691,-0.292023 -0.04215,-0.133012 -0.104186,-0.2454183 -0.160745,-0.2961118 z"
     id="path11" />
  <path
     style="opacity:0.2;fill:#000000"
     d="m 25.8,10.699831 c 0.7,0 2.66,4.2 1.96,10.5 -0.7,6.3 -4.06,7.7 -4.06,7.7 0,0 -4.9,-0.9 -6.3,-0.9 -1.4,0 -2.1,0.9 -2.1,0.9 0,0 -2.1,-1.4 -4.9,-1.4 -2.8,0 -6.399999,2.5 -6.399999,2.5 0,0 0.799999,-2.5 4.999999,-3.9 4.2,-1.4 11.0593,-0.1113 13.3,-2.8 7,-8.4 2.8,-12.6 3.5,-12.6"
     id="path12" />
  <path
     style="fill:#00d6cc"
     d="m 25.8,9.6998313 c 0.7,0 2.66,4.1999997 1.96,10.4999997 -0.7,6.3 -4.06,7.7 -4.06,7.7 0,0 -4.9,-0.9 -6.3,-0.9 -1.4,0 -2.1,0.9 -2.1,0.9 0,0 -2.1,-1.4 -4.9,-1.4 -2.8,0 -6.399999,2.5 -6.399999,2.5 0,0 0.799999,-2.5 4.999999,-3.9 4.2,-1.4 11.0593,-0.1113 13.3,-2.8 7,-8.4 2.8,-12.5999997 3.5,-12.5999997"
     id="path13" />
  <path
     style="opacity:0.2;fill:#ffffff"
     d="m 25.800782,9.69905 c -0.20557,0 0.01034,0.408369 0.242188,1.132812 0.67416,0.599317 1.805192,3.39879 1.845703,7.521485 C 28.068536,13.095736 26.429699,9.69905 25.800782,9.69905 Z m 0.59961,4.019531 c -0.130241,2.064951 -1.051774,4.924628 -4.09961,8.582031 -2.2407,2.6887 -9.100781,1.398828 -13.300781,2.798828 -4.2,1.4 -5,3.900391 -5,3.900391 0,0 0.5523372,-0.350215 1.2734375,-0.761719 0.7547959,-0.726156 1.9088217,-1.532758 3.7265625,-2.138672 4.2,-1.4 11.060081,-0.110128 13.300781,-2.798828 3.577562,-4.293073 4.223715,-7.483062 4.09961,-9.582031 z"
     id="path14" />
  <path
     d="M 8,2.0000001 C 4.6760033,2.0000001 2,4.6760035 2,8 V 9 C 2,5.6760035 4.6760033,3 8,3 h 16 c 3.323996,0 6,2.6760035 6,6 V 8 C 30,4.6760035 27.323996,2.0000001 24,2.0000001 Z"
     style="opacity:0.1;fill:#ffffff;stroke-width:2;stroke-linecap:square"
     id="path1040" />
</svg>
