<?xml version="1.0" encoding="UTF-8" standalone="no"?>
<!-- Created with Inkscape (http://www.inkscape.org/) -->

<svg
   width="32"
   height="32"
   viewBox="0 0 32 32"
   version="1.1"
   id="svg5"
   inkscape:version="1.3.2 (091e20ef0f, 2023-11-25, custom)"
   sodipodi:docname="falkon.svg"
   xmlns:inkscape="http://www.inkscape.org/namespaces/inkscape"
   xmlns:sodipodi="http://sodipodi.sourceforge.net/DTD/sodipodi-0.dtd"
   xmlns="http://www.w3.org/2000/svg"
   xmlns:svg="http://www.w3.org/2000/svg">
  <sodipodi:namedview
     id="namedview7"
     pagecolor="#ffffff"
     bordercolor="#000000"
     borderopacity="0.25"
     inkscape:showpageshadow="2"
     inkscape:pageopacity="0.0"
     inkscape:pagecheckerboard="0"
     inkscape:deskcolor="#d1d1d1"
     inkscape:document-units="px"
     showgrid="false"
     inkscape:zoom="25.6875"
     inkscape:cx="16"
     inkscape:cy="16"
     inkscape:window-width="1920"
     inkscape:window-height="1008"
     inkscape:window-x="0"
     inkscape:window-y="0"
     inkscape:window-maximized="1"
     inkscape:current-layer="svg5" />
  <defs
     id="defs2" />
  <rect
     style="opacity:0.2;fill:#000000;stroke-width:2;stroke-linecap:square"
     id="rect234"
     width="28"
     height="28"
     x="2"
     y="3"
     ry="6" />
  <rect
     style="fill:#8767d9;fill-opacity:1;stroke-width:2;stroke-linecap:square"
     id="rect396"
     width="28"
     height="28"
     x="2"
     y="2"
     ry="6" />
  <path
     id="path2"
     style="opacity:0.2;fill:#000000;fill-rule:evenodd"
     d="M 14.238281 8 C 12.508048 7.99398 10.522027 8.2281887 8.265625 9.1621094 C 11.36051 9.4030845 12.688319 9.8355868 12.763672 10.164062 C 7.4115134 9.2442343 5.1850593 16.862249 5.0117188 20.255859 C 5.0117188 20.255859 7.3704226 17.219996 8 17 C 8.1939878 16.93221 8.2427137 17.06313 8.4765625 17 C 7.8548771 17.816775 7.3732203 18.64743 6.9648438 19.501953 C 5.906876 21.952561 5.9709766 25.091933 5.9804688 26.759766 C 5.9903389 28.494288 6.6706839 29.502688 7.4863281 30.974609 C 7.6559541 30.988893 7.8265574 31 8 31 L 24 31 C 25.408473 31 26.697256 30.515626 27.71875 29.708984 C 22.789984 26.605509 20.83133 23.052294 20.900391 20.673828 C 20.942851 19.21135 21.772799 17.896512 24.478516 17.148438 C 25.769454 16.996111 27.040214 16.936531 28.5 17 C 28.256847 15.115633 26.531879 13.143022 23.644531 12.535156 C 23.149434 12.299394 20.222259 8.0208334 14.238281 8 z " />
  <path
     id="path3"
     style="fill:#ffffff;fill-rule:evenodd"
     d="M 14.238281 7 C 12.50805 6.99398 10.522025 7.2281896 8.265625 8.1621094 C 11.360507 8.4030842 12.688319 8.835587 12.763672 9.1640625 C 7.4115187 8.2442351 5.1850591 15.862253 5.0117188 19.255859 C 5.0117188 19.255859 7.3704225 16.219996 8 16 C 8.1939876 15.93221 8.2427141 16.06313 8.4765625 16 C 7.8548783 16.816774 7.3732201 17.647431 6.9648438 18.501953 C 5.906877 20.952559 5.9709766 24.091934 5.9804688 25.759766 C 5.9903389 27.494286 6.670684 28.502688 7.4863281 29.974609 C 7.6559541 29.988893 7.8265574 30 8 30 L 24 30 C 25.408473 30 26.697256 29.515626 27.71875 28.708984 C 22.789988 25.60551 20.83133 22.052292 20.900391 19.673828 C 20.942851 18.211352 21.772801 16.896511 24.478516 16.148438 C 25.769452 15.996111 27.040215 15.936531 28.5 16 C 28.256847 14.115635 26.531876 12.143022 23.644531 11.535156 C 23.149435 11.299394 20.222253 7.0208334 14.238281 7 z " />
  <path
     style="fill:#3f3f3f;fill-rule:evenodd"
     d="m 19.000281,11.150038 c 0,0 2.654321,-0.92733 3,1.830584 -2.617281,0.240878 -3,-1.830584 -3,-1.830584 z"
     id="path4" />
  <path
     id="path5"
     style="opacity:0.1;fill:#000000;fill-rule:evenodd"
     d="m 18.252234,14.67394 c 0,0 -12.0842962,0.516851 -13.0449216,3.748047 -0.2670671,0.776984 -0.1660157,1.849609 -0.1660156,1.849609 0,0 4.8050866,-5.000193 13.2109372,-5.597656 z m 4.691406,2.273438 c -3.502055,0.04476 -11.22178,1.270665 -16.9531244,10.349609 -0.042369,1.712606 1.1386718,3.380859 1.1386718,3.380859 0,0 4.3476216,-13.125564 17.6816406,-13.628906 0,0 -0.699836,-0.116482 -1.867188,-0.101562 z" />
  <path
     id="path6"
     style="fill:#ffb039;fill-rule:evenodd"
     d="m 9.9905156,7.9805811 c -0.7104478,0.00918 -1.3435102,0.060753 -1.7128906,0.1816406 0,0 3.324329,0.1931002 4.511718,1.0097656 0.49577,-0.101992 0.916724,-0.4400334 0.988282,-0.9023438 C 13.485145,8.1485992 11.5535,7.9603785 9.9905156,7.9805811 Z M 18.252234,13.67394 c 0,0 -12.0842962,0.516851 -13.0449216,3.748047 -0.2670671,0.776984 -0.1660157,1.849609 -0.1660156,1.849609 0,0 4.8050866,-5.000193 13.2109372,-5.597656 z m 4.691406,2.273438 c -3.502055,0.04476 -11.22178,1.270665 -16.9531244,10.349609 -0.042369,1.712606 1.1386718,3.380859 1.1386718,3.380859 0,0 4.3476216,-13.125564 17.6816406,-13.628906 0,0 -0.699836,-0.116482 -1.867188,-0.101562 z" />
  <path
     d="M 8,2.0000001 C 4.6760033,2.0000001 2,4.6760035 2,8 V 9 C 2,5.6760035 4.6760033,3 8,3 h 16 c 3.323996,0 6,2.6760035 6,6 V 8 C 30,4.6760035 27.323996,2.0000001 24,2.0000001 Z"
     style="opacity:0.1;fill:#ffffff;stroke-width:2;stroke-linecap:square"
     id="path1040" />
</svg>
