<?xml version="1.0" encoding="UTF-8" standalone="no"?>
<!-- Created with Inkscape (http://www.inkscape.org/) -->

<svg
   width="32"
   height="32"
   viewBox="0 0 32 32"
   version="1.1"
   id="svg5"
   inkscape:version="1.3 (0e150ed6c4, 2023-07-21)"
   sodipodi:docname="gnome-2048.svg"
   xmlns:inkscape="http://www.inkscape.org/namespaces/inkscape"
   xmlns:sodipodi="http://sodipodi.sourceforge.net/DTD/sodipodi-0.dtd"
   xmlns="http://www.w3.org/2000/svg"
   xmlns:svg="http://www.w3.org/2000/svg">
  <sodipodi:namedview
     id="namedview7"
     pagecolor="#ffffff"
     bordercolor="#000000"
     borderopacity="0.25"
     inkscape:showpageshadow="2"
     inkscape:pageopacity="0.0"
     inkscape:pagecheckerboard="0"
     inkscape:deskcolor="#d1d1d1"
     inkscape:document-units="px"
     showgrid="false"
     inkscape:zoom="24.46875"
     inkscape:cx="16"
     inkscape:cy="16"
     inkscape:window-width="1920"
     inkscape:window-height="984"
     inkscape:window-x="0"
     inkscape:window-y="29"
     inkscape:window-maximized="1"
     inkscape:current-layer="svg5" />
  <defs
     id="defs2" />
  <rect
     style="opacity:0.2;fill:#000000;stroke-width:2;stroke-linecap:square"
     id="rect234"
     width="28"
     height="28"
     x="2"
     y="3"
     ry="6" />
  <path
     id="rect396"
     style="fill:#e4e4e4;fill-opacity:1;stroke-width:2;stroke-linecap:square"
     d="M 16 2 L 16 18 L 30 18 L 30 8 C 30 4.6760033 27.323997 2 24 2 L 16 2 z " />
  <path
     id="rect3568"
     style="fill:#3584e4;fill-opacity:1"
     d="m 14,16 v 14 h 10 c 3.324,0 6,-2.676003 6,-6 v -8 z"
     sodipodi:nodetypes="ccsscc" />
  <path
     id="rect3708"
     style="fill:#2ec27e;fill-opacity:1"
     d="m 2,14 v 10 c 0,3.323997 2.676,6 6,6 h 8 V 14 Z"
     sodipodi:nodetypes="cssccc" />
  <path
     id="rect3848"
     style="fill:#ff7800;fill-opacity:1"
     d="M 8,2 C 4.676,2 2,4.676003 2,8 v 8 H 16 V 2 Z" />
  <path
     id="path1040"
     style="opacity:0.2;fill:#ffffff;stroke-width:2;stroke-linecap:square"
     d="M 8 2 C 4.6760132 2 2 4.6760134 2 8 L 2 9 C 2 5.6760133 4.6760132 3 8 3 L 24 3 C 27.323987 3 30 5.6760134 30 9 L 30 8 C 30 4.6760134 27.323987 2 24 2 L 8 2 z " />
  <rect
     style="opacity:0.1;fill:#000000"
     id="rect1"
     width="28"
     height="1"
     x="2"
     y="16" />
  <path
     style="opacity:0.2;fill:#000000"
     d="M 8.5820312,6 C 7.6634798,6 6.7780674,6.2384593 6,6.6816406 l 0.421875,1.4882813 c 0.7132276,-0.340906 1.2527737,-0.4882813 1.7714844,-0.4882813 0.8537135,0 1.3398437,0.3973726 1.3398437,1.1132813 C 9.5332031,9.704012 8.4962976,10.716263 6,12.761719 V 14 h 6 V 12 H 9.1660156 C 10.635698,10.897727 11.369141,9.919566 11.369141,8.5332031 11.369141,6.9422951 10.397521,6 8.5820312,6 Z M 9,20 5,25.011719 V 27 h 4 v 2 h 2 v -2 h 2 V 25.011719 H 11 V 20 Z m 14.048828,0 c -1.708107,0 -2.84375,0.952029 -2.84375,2.375 0,0.862744 0.421169,1.377785 0.994141,1.736328 C 20.431652,24.447462 20,25.052548 20,25.814453 20,27.125377 21.188873,28 22.972656,28 24.788873,28 26,27.036662 26,25.580078 26,24.560472 25.351551,24.032885 24.583984,23.685547 25.340741,23.282186 25.751953,22.678026 25.751953,21.960938 25.751953,20.784467 24.65964,20 23.048828,20 Z m -0.06445,1.658203 c 0.508108,0 0.841797,0.256795 0.841797,0.660156 0,0.403359 -0.280458,0.729754 -0.712891,0.841797 -0.562162,-0.212883 -0.984375,-0.436997 -0.984375,-0.851562 0,-0.392155 0.336552,-0.650391 0.855469,-0.650391 z M 9,22.357422 V 25 L 6.8984375,24.98828 Z m 13.541016,2.326172 c 0.810812,0.268908 1.535156,0.471437 1.535156,0.998047 0,0.392157 -0.411265,0.660156 -1.00586,0.660156 -0.691891,0 -1.146484,-0.347873 -1.146484,-0.863281 0,-0.369747 0.227999,-0.660468 0.617188,-0.794922 z"
     id="path6" />
  <path
     style="fill:#ffffff"
     d="M 8.5820312,5 C 7.6634798,5 6.7780674,5.2384593 6,5.6816406 l 0.421875,1.4882813 c 0.7132276,-0.340906 1.2527737,-0.4882813 1.7714844,-0.4882813 0.8537135,0 1.3398437,0.3973726 1.3398437,1.1132813 0,0.90909 -1.0369055,1.9213411 -3.5332031,3.9667971 V 13 h 6 V 11 H 9.1660156 C 10.635698,9.897727 11.369141,8.9195664 11.369141,7.5332031 11.369141,5.9422951 10.397521,5 8.5820312,5 Z M 9,19 5,24.011719 V 26 h 4 v 2 h 2 v -2 h 2 V 24.011719 H 11 V 19 Z m 14.048828,0 c -1.708107,0 -2.84375,0.952029 -2.84375,2.375 0,0.862744 0.421169,1.377785 0.994141,1.736328 C 20.431652,23.447462 20,24.052548 20,24.814453 20,26.125377 21.188873,27 22.972656,27 24.788873,27 26,26.036662 26,24.580078 26,23.560472 25.351551,23.032885 24.583984,22.685547 25.340741,22.282186 25.751953,21.678026 25.751953,20.960938 25.751953,19.784467 24.65964,19 23.048828,19 Z m -0.06445,1.658203 c 0.508108,0 0.841797,0.256795 0.841797,0.660156 0,0.403359 -0.280458,0.729754 -0.712891,0.841797 -0.562162,-0.212883 -0.984375,-0.436997 -0.984375,-0.851562 0,-0.392155 0.336552,-0.650391 0.855469,-0.650391 z M 9,21.357422 V 24 L 6.8984375,23.98828 Z m 13.541016,2.326172 c 0.810812,0.268908 1.535156,0.471437 1.535156,0.998047 0,0.392157 -0.411265,0.660156 -1.00586,0.660156 -0.691891,0 -1.146484,-0.347873 -1.146484,-0.863281 0,-0.369747 0.227999,-0.660468 0.617188,-0.794922 z"
     id="path7" />
</svg>
