<?xml version="1.0" encoding="UTF-8" standalone="no"?>
<!-- Created with Inkscape (http://www.inkscape.org/) -->

<svg
   width="32"
   height="32"
   viewBox="0 0 32 32"
   version="1.1"
   id="svg5"
   inkscape:version="1.3 (0e150ed6c4, 2023-07-21)"
   sodipodi:docname="gnome-boxes.svg"
   xmlns:inkscape="http://www.inkscape.org/namespaces/inkscape"
   xmlns:sodipodi="http://sodipodi.sourceforge.net/DTD/sodipodi-0.dtd"
   xmlns="http://www.w3.org/2000/svg"
   xmlns:svg="http://www.w3.org/2000/svg">
  <sodipodi:namedview
     id="namedview7"
     pagecolor="#ffffff"
     bordercolor="#000000"
     borderopacity="0.25"
     inkscape:showpageshadow="2"
     inkscape:pageopacity="0.0"
     inkscape:pagecheckerboard="0"
     inkscape:deskcolor="#d1d1d1"
     inkscape:document-units="px"
     showgrid="false"
     inkscape:zoom="27"
     inkscape:cx="16"
     inkscape:cy="16.5"
     inkscape:window-width="1920"
     inkscape:window-height="984"
     inkscape:window-x="0"
     inkscape:window-y="29"
     inkscape:window-maximized="1"
     inkscape:current-layer="svg5" />
  <defs
     id="defs2" />
  <rect
     style="opacity:0.2;fill:#000000;stroke-width:2;stroke-linecap:square"
     id="rect234"
     width="28"
     height="28"
     x="2"
     y="3"
     ry="6" />
  <rect
     style="fill:#4d4d4d;fill-opacity:1;stroke-width:2;stroke-linecap:square"
     id="rect396"
     width="28"
     height="28"
     x="2"
     y="2"
     ry="6" />
  <path
     opacity="0.2"
     d="M 7,8 V 26 H 25 V 8 Z m 2.707,2 h 12.586 l -3,3 h -6.5859 l -3,-3 z M 9,10.71 l 3,3 v 6.5859 l -3,3 v -12.586 z m 14,0 v 12.586 l -3,-3 v -6.5859 l 3,-3 z M 13,14 h 6 v 6 h -6 z m -0.29297,7 h 6.5859 l 3,3 h -12.586 l 3,-3 z"
     id="path3"
     style="fill:#000000;enable-background:new" />
  <path
     fill="#c4c4c4"
     d="M 7,7 V 25 H 25 V 7 Z m 2.707,2 h 12.586 l -3,3 h -6.5859 l -3,-3 z M 9,9.71 l 3,3 v 6.5859 l -3,3 V 9.7099 Z m 14,0 v 12.586 l -3,-3 v -6.5859 l 3,-3 z M 13,13 h 6 v 6 h -6 z m -0.29297,7 h 6.5859 l 3,3 h -12.586 l 3,-3 z"
     id="path4"
     style="enable-background:new" />
  <path
     opacity="0.2"
     d="M 8,6 A 3,3 0 0 0 5,9 3,3 0 0 0 8,12 3,3 0 0 0 11,9 3,3 0 0 0 8,6 Z m 16,0 a 3,3 0 0 0 -3,3 3,3 0 0 0 3,3 3,3 0 0 0 3,-3 3,3 0 0 0 -3,-3 z M 12.5,12 C 11.67157,12 11,12.67157 11,13.5 11,14.32843 11.67157,15 12.5,15 13.32843,15 14,14.32843 14,13.5 14,12.67157 13.32843,12 12.5,12 Z m 7,0 C 18.67157,12 18,12.67157 18,13.5 18,14.32843 18.67157,15 19.5,15 20.32843,15 21,14.32843 21,13.5 21,12.67157 20.32843,12 19.5,12 Z m -7,7 A 1.5,1.5 0 0 0 11,20.5 1.5,1.5 0 0 0 12.5,22 1.5,1.5 0 0 0 14,20.5 1.5,1.5 0 0 0 12.5,19 Z m 7,0 A 1.5,1.5 0 0 0 18,20.5 1.5,1.5 0 0 0 19.5,22 1.5,1.5 0 0 0 21,20.5 1.5,1.5 0 0 0 19.5,19 Z M 8,22 a 3,3 0 0 0 -3,3 3,3 0 0 0 3,3 3,3 0 0 0 3,-3 3,3 0 0 0 -3,-3 z m 16,0 a 3,3 0 0 0 -3,3 3,3 0 0 0 3,3 3,3 0 0 0 3,-3 3,3 0 0 0 -3,-3 z"
     id="path5"
     style="fill:#000000;enable-background:new" />
  <path
     fill="#e8e8e8"
     d="M 8,5 A 3,3 0 0 0 5,8 3,3 0 0 0 8,11 3,3 0 0 0 11,8 3,3 0 0 0 8,5 Z m 16,0 a 3,3 0 0 0 -3,3 3,3 0 0 0 3,3 3,3 0 0 0 3,-3 3,3 0 0 0 -3,-3 z M 12.5,11 A 1.5,1.5 0 0 0 11,12.5 1.5,1.5 0 0 0 12.5,14 1.5,1.5 0 0 0 14,12.5 1.5,1.5 0 0 0 12.5,11 Z m 7,0 A 1.5,1.5 0 0 0 18,12.5 1.5,1.5 0 0 0 19.5,14 1.5,1.5 0 0 0 21,12.5 1.5,1.5 0 0 0 19.5,11 Z m -7,7 A 1.5,1.5 0 0 0 11,19.5 1.5,1.5 0 0 0 12.5,21 1.5,1.5 0 0 0 14,19.5 1.5,1.5 0 0 0 12.5,18 Z m 7,0 A 1.5,1.5 0 0 0 18,19.5 1.5,1.5 0 0 0 19.5,21 1.5,1.5 0 0 0 21,19.5 1.5,1.5 0 0 0 19.5,18 Z M 8,21 a 3,3 0 0 0 -3,3 3,3 0 0 0 3,3 3,3 0 0 0 3,-3 3,3 0 0 0 -3,-3 z m 16,0 a 3,3 0 0 0 -3,3 3,3 0 0 0 3,3 3,3 0 0 0 3,-3 3,3 0 0 0 -3,-3 z"
     id="path6"
     style="enable-background:new" />
  <path
     d="M 8,2.0000001 C 4.6760033,2.0000001 2,4.6760035 2,8 V 9 C 2,5.6760035 4.6760033,3 8,3 h 16 c 3.323996,0 6,2.6760035 6,6 V 8 C 30,4.6760035 27.323996,2.0000001 24,2.0000001 Z"
     style="opacity:0.1;fill:#ffffff;stroke-width:2;stroke-linecap:square"
     id="path1040" />
</svg>
