<?xml version="1.0" encoding="UTF-8" standalone="no"?>
<!-- Created with Inkscape (http://www.inkscape.org/) -->

<svg
   width="32"
   height="32"
   viewBox="0 0 32 32"
   version="1.1"
   id="svg5"
   inkscape:version="1.3 (1:1.3+202307231459+0e150ed6c4)"
   sodipodi:docname="gnome-contacts.svg"
   xmlns:inkscape="http://www.inkscape.org/namespaces/inkscape"
   xmlns:sodipodi="http://sodipodi.sourceforge.net/DTD/sodipodi-0.dtd"
   xmlns="http://www.w3.org/2000/svg"
   xmlns:svg="http://www.w3.org/2000/svg">
  <sodipodi:namedview
     id="namedview7"
     pagecolor="#ffffff"
     bordercolor="#000000"
     borderopacity="0.25"
     inkscape:showpageshadow="2"
     inkscape:pageopacity="0.0"
     inkscape:pagecheckerboard="0"
     inkscape:deskcolor="#d1d1d1"
     inkscape:document-units="px"
     showgrid="false"
     inkscape:zoom="22.4375"
     inkscape:cx="16"
     inkscape:cy="15.977716"
     inkscape:window-width="1920"
     inkscape:window-height="1008"
     inkscape:window-x="0"
     inkscape:window-y="0"
     inkscape:window-maximized="1"
     inkscape:current-layer="svg5" />
  <defs
     id="defs2" />
  <rect
     style="opacity:0.2;fill:#000000;stroke-width:2;stroke-linecap:square"
     id="rect234"
     width="28"
     height="28"
     x="2"
     y="3"
     ry="6" />
  <rect
     style="fill:#3f89db;fill-opacity:1;stroke-width:2;stroke-linecap:square"
     id="rect396"
     width="27"
     height="28"
     x="2"
     y="2"
     ry="6" />
  <path
     d="m 12.9999,9.000387 c -4.418145,0 -7.9997,3.581556 -7.9997,7.9997 0,4.417745 3.581555,7.999701 7.9997,7.999701 h 4.999738 c 0,0 0.937388,0 0.999987,-0.999988 0,-0.999987 -0.999987,-0.999987 -0.999987,-0.999987 H 12.9999 c -3.3135585,0 -5.999725,-2.686167 -5.999725,-5.999726 0,-3.313558 2.6861665,-5.999725 5.999725,-5.999725 3.313559,0 5.999725,2.686167 5.999725,5.999725 v 0.999988 c 0,0.552193 -0.447794,0.999987 -0.999987,0.999987 -0.552194,0 -0.999987,-0.447794 -0.999987,-0.999987 v -0.999988 c 0,-2.208972 -1.790778,-3.99995 -3.999951,-3.99995 -2.208971,0 -3.99995,1.790778 -3.99995,3.99995 0,2.208973 1.790779,3.999751 3.99995,3.999751 1.046187,0 1.990176,-0.410595 2.702966,-1.068187 0.569993,0.676991 1.410983,1.067987 2.296972,1.067987 C 19.656017,20.999638 21,19.656454 21,17.999675 v -0.999987 c 0,-4.417745 -3.582355,-7.9997 -8.0003,-7.9997 z m 0,5.999725 c 1.104587,0 1.999976,0.895389 1.999976,1.999975 0,1.104387 -0.895389,1.999776 -1.999975,1.999776 -1.104586,0 -1.999975,-0.895389 -1.999975,-1.999975 0,-1.104587 0.895389,-1.999975 1.999975,-1.999975 z"
     style="opacity:0.2;fill:#000000;stroke-width:1.99997"
     id="path1" />
  <path
     style="fill:#ffffff;stroke-width:1.99997"
     d="M 12.9997,8.0004 C 8.581555,8.0004 5,11.581955 5,16.0001 c 0,4.417745 3.581555,7.9997 7.9997,7.9997 h 4.999738 c 0,0 0.937388,0 0.999987,-0.999987 0,-0.999988 -0.999987,-0.999988 -0.999987,-0.999988 H 12.9997 c -3.3135585,0 -5.999725,-2.686166 -5.999725,-5.999725 0,-3.313559 2.6861665,-5.999725 5.999725,-5.999725 3.313559,0 5.999725,2.686166 5.999725,5.999725 v 0.999987 c 0,0.552194 -0.447794,0.999988 -0.999987,0.999988 -0.552194,0 -0.999987,-0.447794 -0.999987,-0.999988 V 16.0001 c 0,-2.208972 -1.790778,-3.99995 -3.99995,-3.99995 -2.208972,0 -3.999951,1.790778 -3.999951,3.99995 0,2.208972 1.790779,3.99975 3.999951,3.99975 1.046187,0 1.990175,-0.410595 2.702966,-1.068187 0.569992,0.676992 1.410983,1.067987 2.296971,1.067987 1.65638,0 3.000362,-1.343183 3.000362,-2.999962 V 15.9997 C 20.9998,11.581955 17.417445,8 12.999501,8 Z m 0,5.999725 c 1.104587,0 1.999976,0.895389 1.999976,1.999975 0,1.104386 -0.895389,1.999775 -1.999975,1.999775 -1.104586,0 -1.999975,-0.895389 -1.999975,-1.999975 0,-1.104586 0.895389,-1.999975 1.999975,-1.999975 z"
     id="path4" />
  <path
     id="rect1"
     style="fill:#55b65a;fill-opacity:1;stroke-width:1.34164;stroke-linecap:round;stroke-linejoin:round"
     d="M 24,2.0000001 23,2 v 10 h 7 V 8.0000001 c 0,-3.3239967 -2.676003,-6 -6,-6 z"
     sodipodi:nodetypes="ccccsc" />
  <rect
     style="fill:#fec006;fill-opacity:1;stroke-width:1.44914;stroke-linecap:round;stroke-linejoin:round"
     id="rect2"
     width="7"
     height="9"
     x="23"
     y="10" />
  <path
     id="rect3"
     style="fill:#fe6c06;fill-opacity:1;stroke-width:1.34164;stroke-linecap:round;stroke-linejoin:round"
     d="m 23,19 v 11 h 1 c 3.323997,0 6,-2.676003 6,-6 v -5 z"
     sodipodi:nodetypes="cccscc" />
  <path
     id="rect4"
     style="opacity:0.2;fill:#ffffff;fill-opacity:1;stroke-width:1.62019;stroke-linecap:round;stroke-linejoin:round"
     d="m 23,10 v 1 h 7 v -1 z m 0,9 v 1 h 7 v -1 z"
     sodipodi:nodetypes="cccccccccc" />
  <path
     d="M 8,2.0000001 C 4.6760033,2.0000001 2,4.6760035 2,8 V 9 C 2,5.6760035 4.6760033,3 8,3 h 16 c 3.323996,0 6,2.6760035 6,6 V 8 C 30,4.6760035 27.323996,2.0000001 24,2.0000001 Z"
     style="opacity:0.2;fill:#ffffff;stroke-width:2;stroke-linecap:square"
     id="path1040" />
</svg>
