<?xml version="1.0" encoding="UTF-8" standalone="no"?>
<!-- Created with Inkscape (http://www.inkscape.org/) -->

<svg
   width="32"
   height="32"
   viewBox="0 0 32 32"
   version="1.1"
   id="svg5"
   inkscape:version="1.3 (0e150ed6c4, 2023-07-21)"
   sodipodi:docname="gnome-todo.svg"
   xmlns:inkscape="http://www.inkscape.org/namespaces/inkscape"
   xmlns:sodipodi="http://sodipodi.sourceforge.net/DTD/sodipodi-0.dtd"
   xmlns="http://www.w3.org/2000/svg"
   xmlns:svg="http://www.w3.org/2000/svg">
  <sodipodi:namedview
     id="namedview7"
     pagecolor="#ffffff"
     bordercolor="#000000"
     borderopacity="0.25"
     inkscape:showpageshadow="2"
     inkscape:pageopacity="0.0"
     inkscape:pagecheckerboard="0"
     inkscape:deskcolor="#d1d1d1"
     inkscape:document-units="px"
     showgrid="false"
     inkscape:zoom="25.09375"
     inkscape:cx="16"
     inkscape:cy="16"
     inkscape:window-width="1850"
     inkscape:window-height="1011"
     inkscape:window-x="70"
     inkscape:window-y="32"
     inkscape:window-maximized="1"
     inkscape:current-layer="svg5" />
  <defs
     id="defs2" />
  <rect
     style="opacity:0.2;fill:#000000;stroke-width:2;stroke-linecap:square"
     id="rect234"
     width="28"
     height="28"
     x="2"
     y="3"
     ry="6" />
  <rect
     style="fill:#c48f61;fill-opacity:1;stroke-width:2;stroke-linecap:square"
     id="rect396"
     width="28"
     height="28"
     x="2"
     y="2"
     ry="6" />
  <path
     d="M 8,2.0000001 C 4.6760033,2.0000001 2,4.6760035 2,8 V 9 C 2,5.6760035 4.6760033,3 8,3 h 16 c 3.323996,0 6,2.6760035 6,6 V 8 C 30,4.6760035 27.323996,2.0000001 24,2.0000001 Z"
     style="opacity:0.1;fill:#ffffff;stroke-width:2;stroke-linecap:square"
     id="path1040"
     sodipodi:nodetypes="sscsscsss" />
  <rect
     style="opacity:0.2;fill:#000000;fill-opacity:1"
     id="rect2658"
     width="22"
     height="22"
     x="5"
     y="6"
     ry="3" />
  <rect
     style="fill:#ffffff;fill-opacity:1"
     id="rect2660"
     width="22"
     height="22"
     x="5"
     y="5"
     ry="3" />
  <path
     d="M 16,1 C 14.343148,1 13,2.3431475 13,4 H 10 C 9.446001,4 9,4.3825654 9,4.8574219 V 6.1425781 8 H 23 V 6.1425781 4.8574219 C 23,4.3825654 22.553999,4 22,4 H 19 C 19,2.3431475 17.656852,1 16,1 Z m 0,1.5 c 0.828426,0 1.5,0.6715737 1.5,1.5 -6.41e-4,0.095769 -0.01045,0.1912576 -0.0293,0.2851562 -6.05e-4,0.00315 6.25e-4,0.00663 0,0.00977 -6.6e-4,0.00261 -0.0013,0.00521 -0.002,0.00781 -0.01855,0.090161 -0.04535,0.1784246 -0.08008,0.2636718 -0.0013,0.00323 -0.0026,0.00655 -0.0039,0.00977 -6.6e-4,0.00261 -0.0013,0.00521 -0.002,0.00781 -0.03431,0.079579 -0.07553,0.1560397 -0.123046,0.2285156 -0.0072,0.011113 -0.01402,0.022295 -0.02148,0.033203 -0.05245,0.076978 -0.111947,0.1489029 -0.177734,0.2148438 -0.06594,0.065787 -0.137866,0.1252887 -0.214844,0.1777343 -0.01091,0.00747 -0.02209,0.014295 -0.0332,0.021484 -0.07247,0.047541 -0.148932,0.088711 -0.228516,0.1230469 -0.0026,6.57e-4 -0.0052,0.00131 -0.0078,0.00195 -0.0032,0.00134 -0.0065,0.00259 -0.0098,0.00391 -0.08525,0.034726 -0.17351,0.061532 -0.263672,0.080078 -0.0033,6.609e-4 -0.0065,0.00131 -0.0098,0.00195 -0.0025,4.969e-4 -0.0053,-4.843e-4 -0.0078,0 C 16.191269,5.4895484 16.095757,5.4993567 16,5.5 15.90423,5.49936 15.808743,5.48955 15.714844,5.470703 c -0.0058,-0.00111 -0.01184,-7.816e-4 -0.01758,-0.00195 -0.09016,-0.018546 -0.178425,-0.045352 -0.263672,-0.080078 -0.0033,-0.00129 -0.0065,-0.0026 -0.0098,-0.00391 -0.0025,-0.00102 -0.0054,-9.213e-4 -0.0078,-0.00195 -0.07958,-0.034339 -0.15605,-0.075506 -0.228516,-0.1230469 -0.0085,-0.00512 -0.01698,-0.010333 -0.02539,-0.015625 -0.0027,-0.00181 -0.0051,-0.00403 -0.0078,-0.00586 -0.07698,-0.052446 -0.148903,-0.1119475 -0.214844,-0.1777343 -0.06579,-0.065941 -0.125288,-0.1378663 -0.177734,-0.2148438 -0.002,-0.0026 -0.0039,-0.0052 -0.0059,-0.00781 -10e-4,-0.00149 -0.0029,-0.00241 -0.0039,-0.00391 -0.004,-0.00713 -0.0079,-0.014292 -0.01172,-0.021484 -0.04754,-0.072474 -0.08871,-0.1489319 -0.123046,-0.2285156 -10e-4,-0.00245 -8.85e-4,-0.00536 -0.002,-0.00781 -0.0013,-0.00325 -0.0026,-0.00651 -0.0039,-0.00977 -0.03473,-0.085247 -0.06153,-0.1735104 -0.08008,-0.2636718 -5.33e-4,-0.00261 -0.0014,-0.0052 -0.002,-0.00781 -1.1e-5,-0.00326 -1.1e-5,-0.00651 0,-0.00977 C 14.510483,4.1912554 14.500611,4.0957652 14.5,4 14.5,3.1715737 15.171574,2.5 16,2.5 Z"
     style="fill:#000000;opacity:0.2"
     id="path1" />
  <path
     id="path6"
     style="color:#000000;fill:#c8c8c8;stroke-linecap:round;-inkscape-stroke:none"
     d="m 16,10 c -0.552283,0 -1,0.447717 -1,1 0,0.552283 0.447717,1 1,1 h 7 c 0.552283,0 1,-0.447717 1,-1 0,-0.552283 -0.447717,-1 -1,-1 z m 0,6 c -0.552283,0 -1,0.447717 -1,1 0,0.552283 0.447717,1 1,1 h 7 c 0.552283,0 1,-0.447717 1,-1 0,-0.552283 -0.447717,-1 -1,-1 z m 0,6 c -0.552283,0 -1,0.447717 -1,1 0,0.552283 0.447717,1 1,1 h 7 c 0.552283,0 1,-0.447717 1,-1 0,-0.552283 -0.447717,-1 -1,-1 z" />
  <path
     id="path7"
     style="color:#000000;fill:#5f5f5f;stroke-linecap:round;-inkscape-stroke:none"
     d="M 12.482302,8.9591537 A 1,1 0 0 0 11.779177,9.265794 l -1.417969,1.470703 -0.738281,-0.568359 a 1,1 0 0 0 -1.4023438,0.179687 1,1 0 0 0 0.1796875,1.402344 l 2.1582033,1.664062 2.662109,-2.761718 A 1,1 0 0 0 13.193243,9.23845 1,1 0 0 0 12.482306,8.9591537 Z m 0.109375,6.0039063 a 1,1 0 0 0 -0.8125,0.302734 l -1.417969,1.470703 -0.738281,-0.568359 a 1,1 0 0 0 -1.4023438,0.179687 1,1 0 0 0 0.1796875,1.402344 l 2.1582033,1.664062 2.662109,-2.761718 a 1,1 0 0 0 -0.02734,-1.414063 1,1 0 0 0 -0.601562,-0.27539 z m 0,6 a 1,1 0 0 0 -0.8125,0.302734 l -1.417969,1.470703 -0.738281,-0.568359 a 1,1 0 0 0 -1.4023438,0.179687 1,1 0 0 0 0.1796875,1.402344 l 2.1582033,1.664062 2.662109,-2.761718 a 1,1 0 0 0 -0.02734,-1.414063 1,1 0 0 0 -0.601562,-0.27539 z" />
  <path
     id="path2"
     style="fill:#989898"
     d="M 16,0 C 14.343148,0 13,1.3431475 13,3 H 10 C 9.4460006,3 9,3.3825654 9,3.8574219 V 5.1425781 7 H 23 V 5.1425781 3.8574219 C 23,3.3825654 22.553999,3 22,3 H 19 C 19,1.3431475 17.656852,0 16,0 Z m 0,1.5 c 0.828426,0 1.5,0.6715737 1.5,1.5 -6.41e-4,0.095769 -0.01045,0.1912576 -0.0293,0.2851562 -6.05e-4,0.00315 6.25e-4,0.00663 0,0.00977 -6.6e-4,0.00261 -0.0013,0.00521 -0.002,0.00781 -0.01855,0.090161 -0.04535,0.1784246 -0.08008,0.2636718 -0.0013,0.00323 -0.0026,0.00655 -0.0039,0.00977 -6.6e-4,0.00261 -0.0013,0.00521 -0.002,0.00781 -0.03431,0.079579 -0.07553,0.1560397 -0.123046,0.2285156 -0.0072,0.011113 -0.01402,0.022295 -0.02148,0.033203 -0.05245,0.076978 -0.111947,0.1489029 -0.177734,0.2148438 -0.06594,0.065787 -0.137866,0.1252887 -0.214844,0.1777343 -0.01091,0.00747 -0.02209,0.014295 -0.0332,0.021484 -0.07247,0.047541 -0.148932,0.088711 -0.228516,0.1230469 -0.0026,6.57e-4 -0.0052,0.00131 -0.0078,0.00195 -0.0032,0.00134 -0.0065,0.00259 -0.0098,0.00391 -0.08525,0.034726 -0.17351,0.061532 -0.263672,0.080078 -0.0033,6.609e-4 -0.0065,0.00131 -0.0098,0.00195 -0.0025,4.969e-4 -0.0053,-4.843e-4 -0.0078,0 C 16.191269,4.4895484 16.095757,4.4993567 16,4.5 c -0.09577,-6.4e-4 -0.191257,-0.01045 -0.285156,-0.029297 -0.0058,-0.00111 -0.01184,-7.816e-4 -0.01758,-0.00195 -0.09016,-0.018546 -0.178425,-0.045352 -0.263672,-0.080078 -0.0033,-0.00129 -0.0065,-0.0026 -0.0098,-0.00391 -0.0025,-0.00102 -0.0054,-9.213e-4 -0.0078,-0.00195 -0.07958,-0.034339 -0.15605,-0.075506 -0.228516,-0.1230469 -0.0085,-0.00512 -0.01698,-0.010333 -0.02539,-0.015625 -0.0027,-0.00181 -0.0051,-0.00403 -0.0078,-0.00586 -0.07698,-0.052446 -0.148903,-0.1119475 -0.214844,-0.1777343 -0.06579,-0.065941 -0.125288,-0.1378663 -0.177734,-0.2148438 -0.002,-0.0026 -0.0039,-0.0052 -0.0059,-0.00781 -10e-4,-0.00149 -0.0029,-0.00241 -0.0039,-0.00391 -0.004,-0.00713 -0.0079,-0.014292 -0.01172,-0.021484 -0.04754,-0.072474 -0.08871,-0.1489319 -0.123046,-0.2285156 -0.001,-0.00245 -8.85e-4,-0.00536 -0.002,-0.00781 -0.0013,-0.00325 -0.0026,-0.00651 -0.0039,-0.00977 -0.03473,-0.085247 -0.06153,-0.1735104 -0.08008,-0.2636718 -5.33e-4,-0.00261 -0.0014,-0.0052 -0.002,-0.00781 -1.1e-5,-0.00326 -1.1e-5,-0.00651 0,-0.00977 C 14.510483,3.1912554 14.500611,3.0957652 14.5,3 14.5,2.1715737 15.171574,1.5 16,1.5 Z" />
  <path
     id="path12"
     style="opacity:0.1;fill:#ffffff"
     d="M 16 0 C 14.343148 0 13 1.3431475 13 3 L 10 3 C 9.4459996 3 9 3.382565 9 3.8574219 L 9 4.8574219 C 9 4.382565 9.4459996 4 10 4 L 13 4 C 13 2.3431475 14.343148 1 16 1 C 17.656852 1 19 2.3431475 19 4 L 22 4 C 22.554 4 23 4.382565 23 4.8574219 L 23 3.8574219 C 23 3.382565 22.554 3 22 3 L 19 3 C 19 1.3431475 17.656852 0 16 0 z M 17.410156 3.4921875 C 17.402656 3.5132315 17.398935 3.5358976 17.390625 3.5566406 C 17.383225 3.5756786 17.375387 3.5945623 17.367188 3.6132812 C 17.331878 3.6917942 17.291868 3.7672483 17.244141 3.8378906 C 17.192801 3.9138895 17.134352 3.9855673 17.070312 4.0507812 C 17.065813 4.0553712 17.061211 4.0599211 17.056641 4.0644531 C 16.994731 4.1259171 16.925337 4.1804878 16.853516 4.2304688 C 16.844516 4.2370787 16.835352 4.243592 16.826172 4.25 C 16.760672 4.293424 16.691308 4.3304151 16.619141 4.3632812 C 16.600441 4.3721312 16.58155 4.3805999 16.5625 4.3886719 C 16.48331 4.4207868 16.401647 4.4465388 16.316406 4.4648438 C 16.309206 4.4662037 16.302092 4.4675 16.294922 4.46875 C 16.199589 4.4877439 16.100909 4.5 16 4.5 C 15.896447 4.5 15.794912 4.488731 15.697266 4.46875 C 15.609056 4.4507 15.525184 4.423418 15.443359 4.390625 C 15.424319 4.383195 15.405439 4.3753845 15.386719 4.3671875 C 15.308209 4.3318795 15.232752 4.2918655 15.162109 4.2441406 C 15.086109 4.1927967 15.014433 4.1343519 14.949219 4.0703125 C 14.944619 4.0658325 14.940017 4.0611826 14.935547 4.0566406 C 14.874087 3.9947287 14.819512 3.9253374 14.769531 3.8535156 C 14.762918 3.8444741 14.756409 3.8353592 14.75 3.8261719 C 14.706576 3.760674 14.669585 3.6913077 14.636719 3.6191406 C 14.627866 3.6004376 14.6194 3.5815533 14.611328 3.5625 C 14.602428 3.540474 14.597764 3.5165736 14.589844 3.4941406 C 14.531025 3.6563381 14.500634 3.8274681 14.5 4 C 14.5 4.1009091 14.51224 4.1995973 14.53125 4.2949219 C 14.53265 4.3021519 14.533656 4.3092163 14.535156 4.3164062 C 14.553456 4.4016472 14.579208 4.4833141 14.611328 4.5625 C 14.619428 4.581553 14.627869 4.6004376 14.636719 4.6191406 C 14.669589 4.6913076 14.706579 4.760674 14.75 4.8261719 C 14.7564 4.8353619 14.762921 4.8444736 14.769531 4.8535156 C 14.819511 4.9253376 14.874087 4.9947287 14.935547 5.0566406 C 14.940047 5.0611806 14.944649 5.0658305 14.949219 5.0703125 C 15.014429 5.1343514 15.086109 5.1927967 15.162109 5.2441406 C 15.232749 5.2918656 15.308209 5.3318796 15.386719 5.3671875 C 15.405439 5.3753875 15.424319 5.383199 15.443359 5.390625 C 15.525189 5.423418 15.60906 5.4507 15.697266 5.46875 C 15.794924 5.4887313 15.896447 5.5 16 5.5 C 16.100909 5.5 16.199592 5.487744 16.294922 5.46875 C 16.302122 5.4675 16.309256 5.4662037 16.316406 5.4648438 C 16.401646 5.4465388 16.48331 5.4207868 16.5625 5.3886719 C 16.58155 5.3806019 16.600441 5.3721342 16.619141 5.3632812 C 16.691311 5.3304193 16.760672 5.293424 16.826172 5.25 C 16.835372 5.24359 16.844476 5.2370807 16.853516 5.2304688 C 16.925336 5.1804878 16.994731 5.1259171 17.056641 5.0644531 C 17.061241 5.0599231 17.065743 5.0553632 17.070312 5.0507812 C 17.134352 4.9855673 17.192801 4.9138895 17.244141 4.8378906 C 17.291871 4.7672487 17.331881 4.6917943 17.367188 4.6132812 C 17.375387 4.5945623 17.383195 4.5756786 17.390625 4.5566406 C 17.423425 4.4748167 17.4507 4.3909403 17.46875 4.3027344 C 17.488727 4.2050881 17.5 4.1035533 17.5 4 C 17.499594 3.8268122 17.469194 3.6550024 17.410156 3.4921875 z " />
</svg>
