<?xml version="1.0" encoding="UTF-8" standalone="no"?>
<!-- Created with Inkscape (http://www.inkscape.org/) -->

<svg
   width="32"
   height="32"
   viewBox="0 0 32 32"
   version="1.1"
   id="svg5"
   inkscape:version="1.3 (0e150ed6c4, 2023-07-21)"
   sodipodi:docname="gnome-twofactorauth.svg"
   xmlns:inkscape="http://www.inkscape.org/namespaces/inkscape"
   xmlns:sodipodi="http://sodipodi.sourceforge.net/DTD/sodipodi-0.dtd"
   xmlns="http://www.w3.org/2000/svg"
   xmlns:svg="http://www.w3.org/2000/svg">
  <sodipodi:namedview
     id="namedview7"
     pagecolor="#ffffff"
     bordercolor="#000000"
     borderopacity="0.25"
     inkscape:showpageshadow="2"
     inkscape:pageopacity="0.0"
     inkscape:pagecheckerboard="0"
     inkscape:deskcolor="#d1d1d1"
     inkscape:document-units="px"
     showgrid="false"
     inkscape:zoom="24.46875"
     inkscape:cx="16"
     inkscape:cy="16"
     inkscape:window-width="1920"
     inkscape:window-height="984"
     inkscape:window-x="0"
     inkscape:window-y="29"
     inkscape:window-maximized="1"
     inkscape:current-layer="svg5" />
  <defs
     id="defs2" />
  <rect
     style="opacity:0.2;fill:#000000;stroke-width:2;stroke-linecap:square"
     id="rect234"
     width="28"
     height="28"
     x="2"
     y="3"
     ry="6" />
  <rect
     style="fill:#4d4d4d;fill-opacity:1;stroke-width:2;stroke-linecap:square"
     id="rect396"
     width="28"
     height="28"
     x="2"
     y="2"
     ry="6" />
  <path
     id="rect5"
     style="opacity:0.2;fill:#000000"
     d="m 16,7 c -2.769994,0 -5,2.230006 -5,5 v 3.5 h 2 V 12 c 0,-1.661997 1.338003,-3 3,-3 1.661996,0 3,1.338003 3,3 v 3.5 h 2 V 12 C 21,9.230006 18.769994,7 16,7 Z" />
  <path
     id="rect6"
     style="fill:#e4e4e4;fill-opacity:1"
     d="m 16,6 c -2.769958,0 -5,2.230006 -5,5 v 3.5 h 2 V 11 c 0,-1.661997 1.338003,-3 3,-3 1.661996,0 3,1.338003 3,3 v 3.5 h 2 V 11 C 21,8.230006 18.769958,6 16,6 Z" />
  <circle
     style="opacity:0.2;fill:#000000;fill-opacity:1"
     id="path7"
     cx="16"
     cy="20"
     r="7" />
  <circle
     style="fill:#a0a0a0;fill-opacity:1"
     id="path8"
     cx="16"
     cy="19"
     r="7" />
  <circle
     style="fill:#4f4f4f;fill-opacity:1"
     id="path9"
     cx="16"
     cy="19"
     r="5" />
  <path
     style="opacity:0.2;fill:#000000"
     d="m 18.474611,17.525 -1.060548,0.353515 -0.731445,0.244141 a 2,2 0 0 0 -2.09668,0.462891 2,2 0 0 0 0,2.828125 2,2 0 0 0 2.828125,0 2,2 0 0 0 0.462891,-2.09668 l 0.244141,-0.731445 z"
     id="path4" />
  <path
     style="fill:#ff5969"
     d="m 18.47461,16.525391 -1.060547,0.353515 -0.731446,0.244141 a 2,2 0 0 0 -2.096679,0.462891 2,2 0 0 0 0,2.828125 2,2 0 0 0 2.828125,0 2,2 0 0 0 0.46289,-2.09668 l 0.244141,-0.731445 z"
     id="path5" />
  <path
     id="rect9"
     style="opacity:0.2;fill:#ffffff;fill-opacity:1"
     d="m 16,6 c -2.769994,0 -5,2.230006 -5,5 v 1 c 0,-2.769994 2.230006,-5 5,-5 2.769994,0 5,2.230006 5,5 V 11 C 21,8.230006 18.769994,6 16,6 Z"
     sodipodi:nodetypes="sscscss" />
  <path
     d="M 8,2.0000001 C 4.6760033,2.0000001 2,4.6760035 2,8 V 9 C 2,5.6760035 4.6760033,3 8,3 h 16 c 3.323996,0 6,2.6760035 6,6 V 8 C 30,4.6760035 27.323996,2.0000001 24,2.0000001 Z"
     style="opacity:0.1;fill:#ffffff;stroke-width:2;stroke-linecap:square"
     id="path1040" />
</svg>
