<?xml version="1.0" encoding="UTF-8" standalone="no"?>
<!-- Created with Inkscape (http://www.inkscape.org/) -->

<svg
   width="32"
   height="32"
   viewBox="0 0 32 32"
   version="1.1"
   id="svg5"
   inkscape:version="1.2.2 (1:1.2.2+202305151914+b0a8486541)"
   sodipodi:docname="gwenview.svg"
   xmlns:inkscape="http://www.inkscape.org/namespaces/inkscape"
   xmlns:sodipodi="http://sodipodi.sourceforge.net/DTD/sodipodi-0.dtd"
   xmlns="http://www.w3.org/2000/svg"
   xmlns:svg="http://www.w3.org/2000/svg">
  <sodipodi:namedview
     id="namedview7"
     pagecolor="#ffffff"
     bordercolor="#000000"
     borderopacity="0.25"
     inkscape:showpageshadow="2"
     inkscape:pageopacity="0.0"
     inkscape:pagecheckerboard="0"
     inkscape:deskcolor="#d1d1d1"
     inkscape:document-units="px"
     showgrid="false"
     inkscape:zoom="25.1875"
     inkscape:cx="16"
     inkscape:cy="16"
     inkscape:window-width="1920"
     inkscape:window-height="1008"
     inkscape:window-x="0"
     inkscape:window-y="0"
     inkscape:window-maximized="1"
     inkscape:current-layer="svg5" />
  <defs
     id="defs2" />
  <rect
     style="opacity:0.2;fill:#000000;stroke-width:2;stroke-linecap:square"
     id="rect234"
     width="28"
     height="28"
     x="2"
     y="3"
     ry="6" />
  <rect
     style="fill:#eebfd9;fill-opacity:1;stroke-width:2;stroke-linecap:square"
     id="rect396"
     width="28"
     height="28"
     x="2"
     y="2"
     ry="6" />
  <path
     d="M 16,9 C 9.924888,9 5.4801775,13.383577 5,17 c 0.4801775,3.616423 4.924887,8 11,8 6.075111,0 10.519821,-4.383577 11,-8 C 26.519821,13.383577 22.075112,9 16,9 Z"
     style="opacity:0.2;fill:#000000;stroke-width:0.938083;stroke-linecap:round;stroke-linejoin:round"
     id="path618" />
  <path
     id="path1040"
     style="opacity:0.2;fill:#ffffff;stroke-width:2;stroke-linecap:square"
     d="M 8,2 C 4.6760066,2 2,4.6760068 2,8 V 9 C 2,5.6760035 4.6760033,3 8,3 h 16 c 3.323997,0 6,2.6760035 6,6 V 8 C 30,4.6760068 27.323993,2 24,2 Z" />
  <path
     id="path396"
     style="fill:#d35297;fill-opacity:1;stroke-width:0.938083;stroke-linecap:round;stroke-linejoin:round"
     d="M 16,8 C 9.924888,8 5.4801777,12.383577 5,16 c 0.4801778,3.616423 4.924887,8 11,8 6.075111,0 10.519821,-4.383577 11,-8 C 26.519821,12.383577 22.075112,8 16,8 Z" />
  <circle
     style="opacity:0.1;fill:#000000;fill-opacity:1;stroke-linecap:round;stroke-linejoin:round"
     id="path1729"
     cx="16"
     cy="17"
     r="6" />
  <path
     id="path646"
     style="opacity:0.1;fill:#ffffff;stroke-width:0.938083;stroke-linecap:round;stroke-linejoin:round"
     d="M 16,8 C 9.924895,8 5.4801773,12.383581 5,16 5.021911,16.165021 5.054184,16.332274 5.092383,16.5 5.8913124,12.99202 10.202108,9 16,9 21.797892,9 26.108686,12.99202 26.907618,16.5 26.945816,16.332274 26.978089,16.165021 27,16 26.519821,12.383581 22.075105,8 16,8 Z" />
  <circle
     style="opacity:1;fill:#e4e4e4;fill-opacity:1;stroke-linecap:round;stroke-linejoin:round"
     id="path1300"
     cx="16"
     cy="16"
     r="6" />
  <path
     id="rect1614"
     style="opacity:0.2;fill:#000000;stroke-linecap:round;stroke-linejoin:round"
     d="m 18,12 c -0.552285,0 -1,0.447715 -1,1 0,0.552285 0.447715,1 1,1 0.552285,0 1,-0.447715 1,-1 0,-0.552285 -0.447715,-1 -1,-1 z m -4,2 -2.576172,4 c 0.794313,1.820005 2.590386,2.997456 4.576172,3 1.985786,-0.0025 3.781859,-1.179995 4.576172,-3 H 19 L 17.5,16 16,17.5 Z" />
</svg>
