<?xml version="1.0" encoding="UTF-8" standalone="no"?>
<!-- Created with Inkscape (http://www.inkscape.org/) -->

<svg
   width="32"
   height="32"
   viewBox="0 0 32 32"
   version="1.1"
   id="svg5"
   inkscape:version="1.2.2 (1:1.2.2+202305151914+b0a8486541)"
   sodipodi:docname="heroic.svg"
   xmlns:inkscape="http://www.inkscape.org/namespaces/inkscape"
   xmlns:sodipodi="http://sodipodi.sourceforge.net/DTD/sodipodi-0.dtd"
   xmlns="http://www.w3.org/2000/svg"
   xmlns:svg="http://www.w3.org/2000/svg">
  <sodipodi:namedview
     id="namedview7"
     pagecolor="#ffffff"
     bordercolor="#000000"
     borderopacity="0.25"
     inkscape:showpageshadow="2"
     inkscape:pageopacity="0.0"
     inkscape:pagecheckerboard="0"
     inkscape:deskcolor="#d1d1d1"
     inkscape:document-units="px"
     showgrid="false"
     inkscape:zoom="25.1875"
     inkscape:cx="16"
     inkscape:cy="16"
     inkscape:window-width="1920"
     inkscape:window-height="1008"
     inkscape:window-x="0"
     inkscape:window-y="0"
     inkscape:window-maximized="1"
     inkscape:current-layer="svg5" />
  <defs
     id="defs2" />
  <rect
     style="opacity:0.2;fill:#000000;stroke-width:2;stroke-linecap:square"
     id="rect234"
     width="28"
     height="28"
     x="2"
     y="3"
     ry="6" />
  <rect
     style="fill:#4d4d4d;fill-opacity:1;stroke-width:2;stroke-linecap:square"
     id="rect396"
     width="28"
     height="28"
     x="2"
     y="2"
     ry="6" />
  <path
     d="m 17.455,7.3568001 c -0.364,-0.145 -1.092,-0.3571 -1.455,-0.3571 -0.363,0 -1.091,0.2121 -1.455,0.3571 L 8.7272998,9.4996999 c -0.4174,0.1647 -0.7273,0.3843 -0.7273,0.7143001 0,0.3571 0.0836,0.5331 0.1817,0.8928 L 11.6364,23.0707 c 0,0 0.147,0.415 0.3636,0.715 0.1984,0.274 0.7273,0.714 0.7273,0.714 l 2.5457,2.143 c 0,0 0.456,0.357 0.727,0.357 0.271,0 0.727,-0.357 0.727,-0.357 l 2.546,-2.143 c 0,0 0.521,-0.446 0.727,-0.714 0.215,-0.28 0.364,-0.715 0.364,-0.715 L 23.818,11.1068 C 23.933,10.7532 24,10.5711 24,10.214 24,9.8981999 23.767,9.6735999 23.273,9.4996999 Z"
     style="opacity:0.2;fill:#000000"
     id="path573" />
  <path
     d="m 17.455,6.3571001 c -0.364,-0.145 -1.092,-0.3571 -1.455,-0.3571 -0.363,0 -1.091,0.2121 -1.455,0.3571 l -5.8177002,2.1429 c -0.4174,0.1647 -0.7273,0.3843 -0.7273,0.7143 0,0.3570998 0.0836,0.5330998 0.1817,0.8927999 L 11.6364,22.071 c 0,0 0.147,0.415 0.3636,0.715 0.1984,0.274 0.7273,0.714 0.7273,0.714 l 2.5457,2.143 c 0,0 0.456,0.357 0.727,0.357 0.271,0 0.727,-0.357 0.727,-0.357 L 19.273,23.5 c 0,0 0.521,-0.446 0.727,-0.714 0.215,-0.28 0.364,-0.715 0.364,-0.715 L 23.818,10.1071 C 23.933,9.7534999 24,9.5713999 24,9.2143001 c 0,-0.3158 -0.233,-0.5404 -0.727,-0.7143 z"
     style="fill:#50beee"
     id="path461" />
  <path
     d="m 16,9.4996999 -1.5,2.5000001 1,9 0.5,0.5 0.5,-0.5 1,-9 z M 13.5,21.2497 l -0.5,0.75 0.5,0.75 1.5,-0.25 0.5,-0.5 -0.5,-0.5 z m 5,0 -1.5,0.25 -0.5,0.5 0.5,0.5 1.5,0.25 0.5,-0.75 z m -2.5,1.25 -0.5,0.5 -0.25,1.5 0.75,0.5 0.75,-0.5 -0.25,-1.5 z"
     style="opacity:0.2;fill:#000000"
     id="path405" />
  <path
     d="m 16,8.4997001 -1.5,2.4999999 1,9 0.5,0.5 0.5,-0.5 1,-9 z M 13.5,20.2497 l -0.5,0.75 0.5,0.75 1.5,-0.25 0.5,-0.5 -0.5,-0.5 z m 5,0 -1.5,0.25 -0.5,0.5 0.5,0.5 1.5,0.25 0.5,-0.75 z m -2.5,1.25 -0.5,0.5 -0.25,1.5 0.75,0.5 0.75,-0.5 -0.25,-1.5 z"
     style="fill:#4f4f4f"
     id="path433"
     sodipodi:nodetypes="cccccccccccccccccccccccccccc" />
  <path
     id="path781"
     style="fill:#ffffff;opacity:0.1"
     d="M 16 8.5 L 14.5 11 L 14.59375 11.84375 L 16 9.5 L 17.40625 11.84375 L 17.5 11 L 16 8.5 z M 13.5 20.25 L 13 21 L 13.333984 21.5 L 13.5 21.25 L 15 21.5 L 15.5 21 L 15 20.5 L 13.5 20.25 z M 18.5 20.25 L 17 20.5 L 16.5 21 L 17 21.5 L 18.5 21.25 L 18.666016 21.5 L 19 21 L 18.5 20.25 z M 16 21.5 L 15.5 22 L 15.25 23.5 L 15.400391 23.599609 L 15.5 23 L 16 22.5 L 16.5 23 L 16.599609 23.599609 L 16.75 23.5 L 16.5 22 L 16 21.5 z " />
  <path
     id="path517"
     style="opacity:0.2;fill:#ffffff"
     d="m 16,5.9997001 c -0.363,0 -1.091078,0.212422 -1.455078,0.3574219 L 8.7265623,8.4997001 C 8.3091627,8.6643999 7.9999998,8.8845442 7.9999998,9.2145439 c 0,0.269009 0.053797,0.452458 0.1191406,0.671875 0.1274765,-0.159378 0.3465472,-0.283781 0.6074219,-0.386719 L 14.544922,7.357122 C 14.908922,7.2121221 15.637,6.9997001 16,6.9997001 c 0.363,0 1.091078,0.212422 1.455078,0.3574219 l 5.81836,2.1425779 c 0.300839,0.105903 0.503615,0.230157 0.617187,0.382813 C 23.960405,9.6593749 24,9.4874409 24,9.2145439 24,8.8987442 23.767437,8.6735999 23.273438,8.4997001 L 17.455078,6.357122 C 17.091078,6.2121221 16.363,5.9997001 16,5.9997001 Z" />
  <path
     d="M 8,2.0000001 C 4.6760033,2.0000001 2,4.6760035 2,8 V 9 C 2,5.6760035 4.6760033,3 8,3 h 16 c 3.323996,0 6,2.6760035 6,6 V 8 C 30,4.6760035 27.323996,2.0000001 24,2.0000001 Z"
     style="opacity:0.1;fill:#ffffff;stroke-width:2;stroke-linecap:square"
     id="path1040" />
</svg>
