<?xml version="1.0" encoding="UTF-8" standalone="no"?>
<!-- Created with Inkscape (http://www.inkscape.org/) -->

<svg
   width="32"
   height="32"
   viewBox="0 0 32 32"
   version="1.1"
   id="svg5"
   inkscape:version="1.3 (0e150ed6c4, 2023-07-21)"
   sodipodi:docname="htop.svg"
   xmlns:inkscape="http://www.inkscape.org/namespaces/inkscape"
   xmlns:sodipodi="http://sodipodi.sourceforge.net/DTD/sodipodi-0.dtd"
   xmlns="http://www.w3.org/2000/svg"
   xmlns:svg="http://www.w3.org/2000/svg">
  <sodipodi:namedview
     id="namedview7"
     pagecolor="#ffffff"
     bordercolor="#000000"
     borderopacity="0.25"
     inkscape:showpageshadow="2"
     inkscape:pageopacity="0.0"
     inkscape:pagecheckerboard="0"
     inkscape:deskcolor="#d1d1d1"
     inkscape:document-units="px"
     showgrid="false"
     inkscape:zoom="24.46875"
     inkscape:cx="15.979566"
     inkscape:cy="16"
     inkscape:window-width="1920"
     inkscape:window-height="984"
     inkscape:window-x="0"
     inkscape:window-y="29"
     inkscape:window-maximized="1"
     inkscape:current-layer="svg5" />
  <defs
     id="defs2" />
  <rect
     style="opacity:0.2;fill:#000000;stroke-width:2;stroke-linecap:square"
     id="rect234"
     width="28"
     height="28"
     x="2"
     y="3"
     ry="6" />
  <rect
     style="fill:#4d4d4d;fill-opacity:1;stroke-width:2;stroke-linecap:square"
     id="rect396"
     width="28"
     height="28"
     x="2"
     y="2"
     ry="6" />
  <path
     d="m 6,7 v 6 H 8 V 12 H 7 V 8 H 8 V 7 Z m 3,0 v 6 h 1 V 7 Z m 2,0 v 6 h 1 V 7 Z m 9,0 v 6 h 1 V 7 Z m 2,0 v 6 h 1 V 7 Z m 2,0 v 1 h 1 v 4 h -1 v 1 h 2 V 7 Z M 6,14 v 6 H 8 V 19 H 7 v -4 h 1 v -1 z m 3,0 v 6 h 1 v -6 z m 2,0 v 6 h 1 v -6 z m 2,0 v 6 h 1 v -6 z m 5,0 v 6 h 1 v -6 z m 2,0 v 6 h 1 v -6 z m 2,0 v 6 h 1 v -6 z m 2,0 v 1 h 1 v 4 h -1 v 1 h 2 V 14 Z M 6,21 v 6 H 8 V 26 H 7 v -4 h 1 v -1 z m 3,0 v 6 h 1 v -6 z m 2,0 v 6 h 1 v -6 z m 9,0 v 6 h 1 v -6 z m 2,0 v 6 h 1 v -6 z m 2,0 v 1 h 1 v 4 h -1 v 1 h 2 v -6 z"
     style="fill:#000000;stroke-width:2;opacity:0.2"
     id="path1" />
  <path
     d="m 6,6 v 6 H 8 V 11 H 7 V 7 H 8 V 6 Z m 18,0 v 1 h 1 v 4 h -1 v 1 h 2 V 6 Z M 6,13 v 6 H 8 V 18 H 7 v -4 h 1 v -1 z m 18,0 v 1 h 1 v 4 h -1 v 1 h 2 V 13 Z M 6,20 v 6 H 8 V 25 H 7 v -4 h 1 v -1 z m 18,0 v 1 h 1 v 4 h -1 v 1 h 2 v -6 z"
     style="fill:#d4d4d4;fill-opacity:1"
     id="path2" />
  <path
     d="m 9,6 v 6 h 1.000001 V 6 Z m 2,0 v 6 h 1 V 6 Z m -2,7 v 6 h 1.000001 v -6 z m 2,0 v 6 h 1 v -6 z m -2,7 v 6 h 1.000001 v -6 z m 2,0 v 6 h 1 v -6 z"
     style="fill:#8bc34a;stroke-width:2"
     id="path3" />
  <path
     d="m 13.000001,13 v 6 H 14 V 13 Z M 18,13 v 6 h 1 v -6 z"
     style="fill:#ff9800"
     id="path4" />
  <path
     d="m 20.000001,6 v 6 h 1 V 6 Z m 2,0 v 6 h 1 V 6 Z m -2,7 v 6 h 1 v -6 z m 2,0 v 6 h 1 v -6 z m -2,7 v 6 h 1 v -6 z m 2,0 v 6 h 1 v -6 z"
     style="fill:#ff5722"
     id="path5" />
  <path
     d="M 8,2.0000001 C 4.6760033,2.0000001 2,4.6760035 2,8 V 9 C 2,5.6760035 4.6760033,3 8,3 h 16 c 3.323996,0 6,2.6760035 6,6 V 8 C 30,4.6760035 27.323996,2.0000001 24,2.0000001 Z"
     style="opacity:0.1;fill:#ffffff;stroke-width:2;stroke-linecap:square"
     id="path1040" />
</svg>
