<?xml version="1.0" encoding="UTF-8" standalone="no"?>
<!-- Created with Inkscape (http://www.inkscape.org/) -->

<svg
   width="32"
   height="32"
   viewBox="0 0 32 32"
   version="1.1"
   id="svg5"
   inkscape:version="1.3.2 (091e20ef0f, 2023-11-25, custom)"
   sodipodi:docname="kmymoney.svg"
   xmlns:inkscape="http://www.inkscape.org/namespaces/inkscape"
   xmlns:sodipodi="http://sodipodi.sourceforge.net/DTD/sodipodi-0.dtd"
   xmlns="http://www.w3.org/2000/svg"
   xmlns:svg="http://www.w3.org/2000/svg">
  <sodipodi:namedview
     id="namedview7"
     pagecolor="#ffffff"
     bordercolor="#000000"
     borderopacity="0.25"
     inkscape:showpageshadow="2"
     inkscape:pageopacity="0.0"
     inkscape:pagecheckerboard="0"
     inkscape:deskcolor="#d1d1d1"
     inkscape:document-units="px"
     showgrid="false"
     inkscape:zoom="25.6875"
     inkscape:cx="16"
     inkscape:cy="16"
     inkscape:window-width="1920"
     inkscape:window-height="1008"
     inkscape:window-x="0"
     inkscape:window-y="0"
     inkscape:window-maximized="1"
     inkscape:current-layer="svg5" />
  <defs
     id="defs2" />
  <rect
     style="opacity:0.2;fill:#000000;stroke-width:2;stroke-linecap:square"
     id="rect234"
     width="28"
     height="28"
     x="2"
     y="3"
     ry="6" />
  <rect
     style="fill:#e4e4e4;fill-opacity:1;stroke-width:2;stroke-linecap:square"
     id="rect396"
     width="28"
     height="28"
     x="2"
     y="2"
     ry="6" />
  <path
     style="fill:#f1ae3b"
     d="M 16,5 C 22.127647,5 27,9.872353 27,16 27,22.127647 22.127647,27 16,27 9.872353,27 5,22.127647 5,16 5,9.872353 9.872353,5 16,5 Z"
     id="path3" />
  <path
     id="path4"
     style="opacity:0.2;fill:#000000"
     d="m 11,9 v 7 H 8 v 0.5 h 3 v 1 H 8 V 18 h 3 v 7 h 2 v -7 h 0.578125 L 20.585938,25 22,23.587891 16.40625,18 H 24 v -0.5 h -8.09375 l -0.5,-0.5 0.5,-0.5 H 24 V 16 H 16.40625 L 22,10.412109 20.585938,9 13.578125,16 H 13 V 9 Z" />
  <path
     style="fill:#fff2af"
     d="m 11,8 v 7 H 8 v 0.5 h 3 v 1 H 8 V 17 h 3 v 7 h 2 v -7 h 0.578125 L 20.585938,24 22,22.587891 16.40625,17 H 24 v -0.5 h -8.09375 l -0.5,-0.5 0.5,-0.5 H 24 V 15 H 16.40625 L 22,9.412109 20.585938,8 13.578125,15 H 13 V 8 Z"
     id="path5" />
  <path
     style="opacity:0.2;fill:#ffffff"
     d="m 11,8 v 1 h 2 V 8 Z m 9.585938,0 -7.007813,7 H 13 v 1 h 0.578125 L 20.585938,9 21.5,9.912109 l 0.5,-0.5 z M 8,15 v 0.5 h 3 V 15 Z m 9.408203,0 -0.501953,0.5 H 24 V 15 Z M 8,16.5 V 17 h 3 v -0.5 z m 7.90625,0 -0.5,0.5 0.5,0.5 h 1 l -0.5,-0.5 H 24 v -0.5 z m 0.5,1.5 5.09375,5.087891 0.5,-0.5 L 17.408203,18 Z"
     id="path7" />
  <path
     d="M 8,2.0000001 C 4.6760033,2.0000001 2,4.6760035 2,8 V 9 C 2,5.6760035 4.6760033,3 8,3 h 16 c 3.323996,0 6,2.6760035 6,6 V 8 C 30,4.6760035 27.323996,2.0000001 24,2.0000001 Z"
     style="opacity:0.2;fill:#ffffff;stroke-width:2;stroke-linecap:square"
     id="path1040"
     sodipodi:nodetypes="sscsscsss" />
</svg>
