<?xml version="1.0" encoding="UTF-8" standalone="no"?>
<!-- Created with Inkscape (http://www.inkscape.org/) -->

<svg
   width="32"
   height="32"
   viewBox="0 0 32 32"
   version="1.1"
   id="svg5"
   inkscape:version="1.2.2 (1:1.2.2+202305151914+b0a8486541)"
   sodipodi:docname="konqueror.svg"
   xmlns:inkscape="http://www.inkscape.org/namespaces/inkscape"
   xmlns:sodipodi="http://sodipodi.sourceforge.net/DTD/sodipodi-0.dtd"
   xmlns="http://www.w3.org/2000/svg"
   xmlns:svg="http://www.w3.org/2000/svg">
  <sodipodi:namedview
     id="namedview7"
     pagecolor="#ffffff"
     bordercolor="#000000"
     borderopacity="0.25"
     inkscape:showpageshadow="2"
     inkscape:pageopacity="0.0"
     inkscape:pagecheckerboard="0"
     inkscape:deskcolor="#d1d1d1"
     inkscape:document-units="px"
     showgrid="false"
     inkscape:zoom="25.9375"
     inkscape:cx="16"
     inkscape:cy="16"
     inkscape:window-width="1920"
     inkscape:window-height="1008"
     inkscape:window-x="0"
     inkscape:window-y="0"
     inkscape:window-maximized="1"
     inkscape:current-layer="svg5" />
  <defs
     id="defs2" />
  <rect
     style="opacity:0.2;fill:#000000;stroke-width:2;stroke-linecap:square"
     id="rect234"
     width="28"
     height="28"
     x="2"
     y="3"
     ry="6" />
  <rect
     style="fill:#4f4f4f;fill-opacity:1;stroke-width:2;stroke-linecap:square"
     id="rect396"
     width="28"
     height="28"
     x="2"
     y="2"
     ry="6" />
  <path
     d="m 15.899344,7.0003903 c -0.308004,0.00273 -0.615966,0.019705 -0.922406,0.050827 -0.164007,0.016577 -0.296025,0.1420155 -0.32096,0.3049646 l -0.193893,1.2640975 c -0.449227,0.08217 -0.890151,0.2002637 -1.320547,0.3529683 L 12.344316,7.9783478 C 12.241266,7.84987 12.064398,7.8072971 11.914174,7.8748104 11.288915,8.1553448 10.694876,8.4995723 10.139955,8.9017128 10.006357,8.9981458 9.9548746,9.1727211 10.01477,9.326216 l 0.463086,1.185973 c -0.348718,0.295044 -0.6731694,0.616045 -0.9704095,0.962898 l -1.178421,-0.458389 c -0.153226,-0.05941 -0.327241,-0.008 -0.423553,0.125187 -0.4019015,0.555604 -0.7458485,1.151159 -1.0259425,1.777077 -0.06681,0.150184 -0.02388,0.326536 0.104477,0.42921 l 0.9704095,0.779354 c -0.07844,0.216997 -0.157698,0.433354 -0.218366,0.65605 -6.42e-4,0.0019 -0.0013,0.0038 -0.0019,0.0057 -0.05694,0.222549 -0.09387,0.449476 -0.132716,0.675813 L 6.35901,15.655221 c -0.162636,0.02484 -0.287979,0.156379 -0.304959,0.320025 -0.07115,0.681275 -0.07201,1.36762 -0.0028,2.049098 0.01658,0.16401 0.142013,0.29603 0.304959,0.320966 l 1.2640735,0.192955 c 0.08212,0.449254 0.200309,0.890145 0.352961,1.320573 L 6.978365,20.655134 c -0.128809,0.102801 -0.171779,0.279715 -0.104477,0.430151 0.280832,0.625326 0.625361,1.220295 1.0278245,1.775195 0.09669,0.133257 0.271214,0.184339 0.424495,0.124245 l 1.184068,-0.462154 c 0.2954881,0.349148 0.6173435,0.672915 0.9647615,0.970428 l -0.458379,1.178444 c -0.0599,0.153495 -0.0084,0.32807 0.125184,0.424504 0.555891,0.401975 1.151752,0.744973 1.777984,1.025019 0.149974,0.06703 0.326284,0.02449 0.429206,-0.103537 L 13.12743,25.04606 c 0.217013,0.07845 0.433322,0.158634 0.656038,0.219312 0.0019,3.32e-4 0.0038,6.48e-4 0.0056,9.5e-4 0.222561,0.05695 0.449457,0.09481 0.675803,0.133656 L 14.655,26.640545 c 0.02484,0.162638 0.156375,0.287984 0.320018,0.304964 0.681217,0.07147 1.367576,0.07265 2.04906,0.0038 0.164007,-0.01658 0.296023,-0.142015 0.320959,-0.304964 l 0.193898,-1.264198 c 0.448896,-0.08216 0.889518,-0.199433 1.319606,-0.352027 l 0.797222,0.9949 c 0.10305,0.128479 0.279918,0.171051 0.430143,0.103537 0.6253,-0.280843 1.220281,-0.625364 1.77516,-1.027843 0.132805,-0.09657 0.183834,-0.270527 0.124243,-0.42354 l -0.462144,-1.185032 c 0.348556,-0.29533 0.672441,-0.617661 0.969467,-0.964779 l 1.178421,0.45839 c 0.153016,0.05961 0.326982,0.0086 0.423554,-0.124246 0.401959,-0.555914 0.745907,-1.151764 1.025941,-1.778019 0.0673,-0.150436 0.02433,-0.327349 -0.104477,-0.43015 l -0.970408,-0.777472 c 0.07862,-0.217604 0.158557,-0.434601 0.219307,-0.657934 3.27e-4,-0.0016 6.44e-4,-0.0031 9.5e-4,-0.0047 0.05721,-0.222538 0.09454,-0.449471 0.133655,-0.675816 l 1.241482,-0.191074 c 0.162331,-0.02475 0.287581,-0.155817 0.304952,-0.319106 0.07108,-0.680953 0.07192,-1.367944 0.0028,-2.049099 -0.01654,-0.164002 -0.141968,-0.29602 -0.304906,-0.320966 L 24.379831,15.462215 C 24.297671,15.01327 24.179419,14.572727 24.02687,14.142586 l 0.995821,-0.79818 c 0.128476,-0.103052 0.171048,-0.279923 0.103535,-0.43015 -0.280837,-0.625325 -0.625353,-1.219354 -1.027822,-1.774253 -0.09643,-0.133601 -0.271003,-0.185083 -0.424495,-0.125187 l -1.18501,0.462153 c -0.295283,-0.348517 -0.616767,-0.672485 -0.96382,-0.969486 l 0.45838,-1.177502 c 0.05989,-0.1534949 0.0084,-0.3280706 -0.125184,-0.4245032 -0.555582,-0.4019175 -1.15115,-0.7458556 -1.777043,-1.0259612 -0.150181,-0.066813 -0.32653,-0.023885 -0.429202,0.1044787 l -0.778397,0.9704274 c -0.217298,-0.078488 -0.433971,-0.1577026 -0.65698,-0.2183697 -0.0019,-6.453e-4 -0.0037,-0.00128 -0.0056,-0.00189 C 17.988247,8.676935 17.761776,8.639614 17.535203,8.6005132 L 17.346016,7.3590061 C 17.321176,7.1963673 17.18964,7.0710212 17.025997,7.0540414 16.651541,7.0149304 16.275822,6.9970704 15.899344,7.0003903 Z"
     style="fill:#000000;opacity:0.2"
     id="path1094" />
  <path
     d="m 15.899344,6.0003668 c -0.308004,0.00273 -0.615966,0.019705 -0.922406,0.050827 -0.164007,0.016577 -0.296025,0.1420155 -0.32096,0.3049646 l -0.193893,1.2640975 c -0.449227,0.08217 -0.890151,0.2002637 -1.320547,0.3529683 L 12.344316,6.9783243 C 12.241266,6.8498465 12.064398,6.8072736 11.914174,6.8747869 11.288915,7.1553213 10.694876,7.4995488 10.139955,7.9016893 10.006357,7.9981223 9.9548746,8.1726976 10.01477,8.3261925 l 0.463086,1.1859733 C 10.129138,9.8072093 9.8046866,10.128211 9.5074465,10.475064 l -1.178421,-0.458389 c -0.153226,-0.059408 -0.327241,-0.008 -0.423553,0.125187 -0.401901,0.555604 -0.745848,1.151159 -1.025942,1.777077 -0.06681,0.150184 -0.02388,0.326536 0.104477,0.42921 l 0.970409,0.779354 c -0.07844,0.216997 -0.157698,0.433354 -0.218366,0.65605 -6.42e-4,0.0019 -0.0013,0.0038 -0.0019,0.0057 -0.05694,0.222549 -0.09387,0.449476 -0.132716,0.675813 l -1.242424,0.190132 c -0.162636,0.02484 -0.287979,0.156379 -0.304959,0.320025 -0.07115,0.681275 -0.07201,1.367621 -0.0028,2.049099 0.01658,0.16401 0.142013,0.29603 0.304959,0.320966 l 1.264073,0.192955 c 0.08212,0.449254 0.200309,0.890145 0.352961,1.320573 l -0.994879,0.796296 c -0.128809,0.102801 -0.171779,0.279715 -0.104477,0.43015 0.280832,0.625326 0.625361,1.220295 1.027824,1.775195 0.09669,0.133257 0.271214,0.184339 0.424495,0.124246 l 1.184068,-0.462154 c 0.2954881,0.349147 0.6173435,0.672915 0.9647615,0.970428 l -0.458379,1.178444 c -0.0599,0.153495 -0.0084,0.32807 0.125184,0.424503 0.555891,0.401975 1.151752,0.744973 1.777984,1.025019 0.149974,0.06703 0.326284,0.02449 0.429206,-0.103537 l 0.778398,-0.971369 c 0.217013,0.07845 0.433322,0.158634 0.656038,0.219312 0.0019,3.32e-4 0.0038,6.48e-4 0.0056,9.5e-4 0.222561,0.05695 0.449457,0.09481 0.675803,0.133657 L 14.655,25.640522 c 0.02484,0.162639 0.156375,0.287985 0.320018,0.304965 0.681217,0.07147 1.367576,0.07265 2.04906,0.0038 0.164007,-0.01658 0.296023,-0.142015 0.320959,-0.304964 l 0.193898,-1.264198 c 0.448896,-0.08216 0.889518,-0.199433 1.319606,-0.352027 l 0.797222,0.9949 c 0.10305,0.128478 0.279918,0.171051 0.430143,0.103537 0.6253,-0.280844 1.220281,-0.625364 1.77516,-1.027843 0.132805,-0.09657 0.183834,-0.270527 0.124243,-0.42354 L 21.523165,22.49012 c 0.348556,-0.295332 0.672441,-0.617661 0.969467,-0.96478 l 1.178421,0.458389 c 0.153016,0.05961 0.326982,0.0086 0.423554,-0.124246 0.401959,-0.555913 0.745907,-1.151762 1.025941,-1.778018 0.0673,-0.150436 0.02433,-0.32735 -0.104477,-0.430151 l -0.970408,-0.777471 c 0.07862,-0.217604 0.158557,-0.434602 0.219307,-0.657934 3.27e-4,-0.0016 6.44e-4,-0.0031 9.5e-4,-0.0047 0.05721,-0.222538 0.09454,-0.449471 0.133655,-0.675816 l 1.241482,-0.191074 c 0.162331,-0.02475 0.287581,-0.155817 0.304952,-0.319106 0.07108,-0.680952 0.07192,-1.367944 0.0028,-2.049099 -0.01654,-0.164002 -0.141968,-0.29602 -0.304906,-0.320966 l -1.264072,-0.192956 c -0.08216,-0.448945 -0.200412,-0.889488 -0.352961,-1.319629 l 0.995821,-0.79818 c 0.128476,-0.103052 0.171048,-0.279923 0.103535,-0.43015 -0.280837,-0.625325 -0.625353,-1.219354 -1.027822,-1.774253 -0.09643,-0.133601 -0.271003,-0.1850834 -0.424495,-0.125187 l -1.18501,0.462153 C 22.193616,10.128429 21.872132,9.8044608 21.525079,9.5074598 l 0.45838,-1.1775023 c 0.05989,-0.1534949 0.0084,-0.3280706 -0.125184,-0.4245032 -0.555582,-0.4019175 -1.15115,-0.7458556 -1.777043,-1.0259612 -0.150181,-0.066813 -0.32653,-0.023885 -0.429202,0.1044787 l -0.778397,0.9704274 c -0.217298,-0.078488 -0.433971,-0.1577026 -0.65698,-0.2183697 -0.0019,-6.453e-4 -0.0037,-0.00128 -0.0056,-0.00189 -0.222806,-0.057228 -0.449277,-0.094549 -0.67585,-0.1336498 L 17.346016,6.3589826 C 17.321176,6.1963438 17.18964,6.0709977 17.025997,6.0540179 16.651541,6.0149069 16.275822,5.9970469 15.899344,6.0003668 Z"
     style="fill:#cdd2d3"
     id="path308" />
  <path
     id="path1122"
     style="fill:#ffffff;opacity:0.2"
     d="M 15.898438 6 C 15.590434 6.00273 15.283002 6.0196593 14.976562 6.0507812 C 14.812556 6.0673582 14.681185 6.1925198 14.65625 6.3554688 L 14.462891 7.6210938 C 14.013664 7.7032637 13.571021 7.8199518 13.140625 7.9726562 L 12.34375 6.9785156 C 12.2407 6.850038 12.064286 6.8074868 11.914062 6.875 C 11.288804 7.1555341 10.695545 7.5002037 10.140625 7.9023438 C 10.007027 7.9987767 9.9557298 8.1726771 10.015625 8.3261719 L 10.21875 8.8476562 C 10.751311 8.4693711 11.317889 8.1424842 11.914062 7.875 C 12.064286 7.8074861 12.2407 7.8500378 12.34375 7.9785156 L 13.140625 8.9726562 C 13.571021 8.8199514 14.013664 8.7032637 14.462891 8.6210938 L 14.65625 7.3554688 C 14.681185 7.1925198 14.812556 7.0673582 14.976562 7.0507812 C 15.283002 7.0196593 15.590434 7.00273 15.898438 7 C 16.274915 6.9966801 16.650935 7.0155765 17.025391 7.0546875 C 17.189033 7.0716673 17.320863 7.1967364 17.345703 7.359375 L 17.535156 8.5996094 C 17.761729 8.6387093 17.988132 8.6771451 18.210938 8.734375 C 18.212837 8.734975 18.214897 8.7356831 18.216797 8.7363281 C 18.439806 8.7969951 18.655749 8.8765882 18.873047 8.9550781 L 19.652344 7.984375 C 19.755016 7.8560171 19.93185 7.8120963 20.082031 7.8789062 C 20.679727 8.1463923 21.247276 8.4747043 21.78125 8.8535156 L 21.984375 8.3300781 C 22.044265 8.1765834 21.991006 8.0026825 21.857422 7.90625 C 21.30184 7.5043329 20.707924 7.1590116 20.082031 6.8789062 C 19.93185 6.8120933 19.755016 6.8560114 19.652344 6.984375 L 18.873047 7.9550781 C 18.655749 7.8765902 18.439806 7.7969952 18.216797 7.7363281 C 18.214897 7.7356828 18.212837 7.734985 18.210938 7.734375 C 17.988132 7.6771471 17.761729 7.6387101 17.535156 7.5996094 L 17.345703 6.359375 C 17.320863 6.1967364 17.189033 6.0716673 17.025391 6.0546875 C 16.650935 6.0155765 16.274915 5.9966801 15.898438 6 z M 21.8125 9.7734375 L 21.525391 10.507812 C 21.872443 10.804813 22.192999 11.128046 22.488281 11.476562 L 23.673828 11.015625 C 23.82732 10.955729 24.001226 11.007024 24.097656 11.140625 C 24.397799 11.554443 24.667084 11.989267 24.900391 12.443359 L 25.023438 12.34375 C 25.151913 12.240698 25.194466 12.064289 25.126953 11.914062 C 24.846116 11.288738 24.500125 10.695523 24.097656 10.140625 C 24.001226 10.007024 23.82732 9.955729 23.673828 10.015625 L 22.488281 10.476562 C 22.277409 10.227674 22.049866 9.9964057 21.8125 9.7734375 z M 10.191406 9.7753906 C 9.9518566 9.9971236 9.7205614 10.22635 9.5078125 10.474609 L 8.328125 10.017578 C 8.1748992 9.9581682 8.0025619 10.009391 7.90625 10.142578 C 7.5043494 10.698182 7.159 11.292051 6.8789062 11.917969 C 6.8120963 12.068153 6.8560181 12.244982 6.984375 12.347656 L 7.1074219 12.445312 C 7.3399494 11.991358 7.6070488 11.556205 7.90625 11.142578 C 8.0025619 11.009391 8.1748992 10.958168 8.328125 11.017578 L 9.5078125 11.474609 C 9.8050522 11.127757 10.129798 10.806762 10.478516 10.511719 L 10.191406 9.7753906 z M 7.7050781 13.925781 C 7.6654669 14.104362 7.6325148 14.284499 7.6015625 14.464844 L 6.359375 14.654297 C 6.1967392 14.679137 6.0716675 14.810964 6.0546875 14.974609 C 6.0009201 15.489443 5.9853001 16.007101 6.0117188 16.523438 C 6.0206939 16.340269 6.0356141 16.157241 6.0546875 15.974609 C 6.0716675 15.810964 6.1967392 15.679137 6.359375 15.654297 L 7.6015625 15.464844 C 7.6404085 15.238507 7.6774351 15.011611 7.734375 14.789062 C 7.734975 14.787163 7.7356861 14.785103 7.7363281 14.783203 C 7.7969961 14.560507 7.8766382 14.34395 7.9550781 14.126953 L 7.7050781 13.925781 z M 24.265625 13.951172 L 24.027344 14.142578 C 24.179893 14.572719 24.296746 15.013946 24.378906 15.462891 L 25.644531 15.654297 C 25.807469 15.679243 25.932679 15.812561 25.949219 15.976562 C 25.966105 16.142974 25.97975 16.309628 25.988281 16.476562 C 26.012758 15.976411 25.999809 15.475118 25.949219 14.976562 C 25.932679 14.812561 25.807469 14.679243 25.644531 14.654297 L 24.378906 14.462891 C 24.347441 14.290957 24.307576 14.120528 24.265625 13.951172 z M 7.734375 19.048828 L 6.9785156 19.654297 C 6.8497068 19.757098 6.8057449 19.935503 6.8730469 20.085938 C 6.9444473 20.244924 7.0200688 20.401738 7.0996094 20.556641 L 7.9726562 19.859375 C 7.8784159 19.593648 7.801968 19.322036 7.734375 19.048828 z M 24.294922 19.074219 C 24.284757 19.11976 24.27725 19.165717 24.265625 19.210938 C 24.265319 19.212537 24.265952 19.215197 24.265625 19.216797 C 24.204875 19.44013 24.123542 19.655443 24.044922 19.873047 L 24.894531 20.552734 C 24.973895 20.397599 25.049896 20.241254 25.121094 20.082031 C 25.188394 19.931595 25.144432 19.753192 25.015625 19.650391 L 24.294922 19.074219 z M 21.810547 23.226562 C 21.715315 23.315018 21.622724 23.40611 21.523438 23.490234 L 21.78125 24.154297 C 21.807649 24.135537 21.835107 24.118628 21.861328 24.099609 C 21.994133 24.003039 22.043966 23.828794 21.984375 23.675781 L 21.810547 23.226562 z M 10.189453 23.228516 L 10.017578 23.671875 C 9.9576782 23.82537 10.008994 23.99927 10.142578 24.095703 C 10.168056 24.114127 10.195058 24.130262 10.220703 24.148438 L 10.474609 23.492188 C 10.375996 23.40774 10.283929 23.317174 10.189453 23.228516 z " />
  <path
     d="M 8,2.0000001 C 4.6760033,2.0000001 2,4.6760035 2,8 V 9 C 2,5.6760035 4.6760033,3 8,3 h 16 c 3.323996,0 6,2.6760035 6,6 V 8 C 30,4.6760035 27.323996,2.0000001 24,2.0000001 Z"
     style="opacity:0.2;fill:#ffffff;stroke-width:2;stroke-linecap:square"
     id="path1040" />
  <circle
     style="opacity:0.1;fill:#000000;stroke-width:4;stroke-linecap:square"
     id="path1690"
     cx="16"
     cy="17"
     r="6" />
  <circle
     style="opacity:1;fill:#1486ff;stroke-width:4;stroke-linecap:square;fill-opacity:1"
     id="path1744"
     cx="16"
     cy="16"
     r="6" />
  <path
     d="m 16.000384,11 c -0.435693,0 -0.859385,0.048 -1.267846,0.135225 l -0.532154,1.064728 -0.804,-0.602746 c -1.441846,0.693204 -2.558769,1.941618 -3.076154,3.475251 l 1.180154,-0.472136 0.9,0.599977 0.3,-0.899965 3.9,-2.09992 -0.237692,-1.188415 c -0.12,-0.0069 -0.240462,-0.01154 -0.362308,-0.01154 m 4.443231,1.970231 -0.243231,0.729665 0.3,0.299988 -1.2,1.799929 0.6,2.09992 1.989692,0.249221 c 0.07154,-0.371985 0.110308,-0.755509 0.110308,-1.149186 0,-1.027345 -0.257077,-1.991923 -0.708461,-2.836044 L 20.800384,14.000346 20.979,13.642207 c -0.160616,-0.238146 -0.343385,-0.459215 -0.535385,-0.671514 m -10.324154,2.829582 c -0.066,0.328603 -0.103846,0.668283 -0.114462,1.014424 l 2.095385,0.785508 -0.3,-0.899966 -0.6,-0.899966 z m 1.980923,1.799932 1.5,3.599861 v 1.301488 c 0.734769,0.319373 1.545231,0.498443 2.4,0.498443 0.05954,0 0.118154,-0.0023 0.177692,-0.0042 l 1.922308,-3.29572 -4.8,-2.699896 z"
     style="fill:#000000;opacity:0.2"
     id="path1782" />
  <path
     d="m 16.000384,10 c -0.435693,0 -0.859385,0.048 -1.267845,0.135225 l -0.532154,1.064729 -0.804,-0.602746 c -1.441847,0.693204 -2.55877,1.941617 -3.076155,3.475251 l 1.180155,-0.472136 0.9,0.599977 0.3,-0.899966 3.899999,-2.099919 -0.237692,-1.188416 c -0.12,-0.0069 -0.240462,-0.01154 -0.362308,-0.01154 m 4.443231,1.970232 -0.243231,0.729664 0.3,0.299988 -1.2,1.79993 0.6,2.099919 1.989692,0.249221 c 0.07154,-0.371984 0.110308,-0.755508 0.110308,-1.149185 0,-1.027345 -0.257077,-1.991923 -0.708461,-2.836044 l -0.491539,-0.16384 0.178616,-0.35814 c -0.160616,-0.238144 -0.343385,-0.459213 -0.535385,-0.671513 m -10.324154,2.829583 c -0.066,0.328603 -0.103846,0.668283 -0.114461,1.014424 l 2.095385,0.785508 -0.3,-0.899966 -0.600001,-0.899966 z m 1.980924,1.799932 1.5,3.59986 v 1.301489 c 0.734769,0.319372 1.54523,0.498442 2.399999,0.498442 0.05954,0 0.118154,-0.0023 0.177692,-0.0042 l 1.922308,-3.29572 -4.799999,-2.699895 z"
     style="fill:#55f38d"
     id="path1754" />
</svg>
