<?xml version="1.0" encoding="UTF-8" standalone="no"?>
<!-- Created with Inkscape (http://www.inkscape.org/) -->

<svg
   width="32"
   height="32"
   viewBox="0 0 32 32"
   version="1.1"
   id="svg5"
   inkscape:version="1.3 (0e150ed6c4, 2023-07-21)"
   sodipodi:docname="krita.svg"
   xmlns:inkscape="http://www.inkscape.org/namespaces/inkscape"
   xmlns:sodipodi="http://sodipodi.sourceforge.net/DTD/sodipodi-0.dtd"
   xmlns="http://www.w3.org/2000/svg"
   xmlns:svg="http://www.w3.org/2000/svg">
  <sodipodi:namedview
     id="namedview7"
     pagecolor="#ffffff"
     bordercolor="#000000"
     borderopacity="0.25"
     inkscape:showpageshadow="2"
     inkscape:pageopacity="0.0"
     inkscape:pagecheckerboard="0"
     inkscape:deskcolor="#d1d1d1"
     inkscape:document-units="px"
     showgrid="false"
     inkscape:zoom="25.09375"
     inkscape:cx="16"
     inkscape:cy="16"
     inkscape:window-width="1850"
     inkscape:window-height="1011"
     inkscape:window-x="70"
     inkscape:window-y="32"
     inkscape:window-maximized="1"
     inkscape:current-layer="svg5" />
  <defs
     id="defs2" />
  <rect
     style="opacity:0.2;fill:#000000;stroke-width:2;stroke-linecap:square"
     id="rect234"
     width="28"
     height="28"
     x="2"
     y="3"
     ry="6" />
  <path
     id="rect396"
     style="fill:#e040fb;fill-opacity:1;stroke-width:2;stroke-linecap:square"
     d="M 8 2 C 5.3051463 2 3.037747 3.760182 2.2753906 6.1972656 L 16 16 L 29.724609 6.1972656 C 28.962253 3.760182 26.694854 2 24 2 L 8 2 z M 29.724609 6.1972656 C 29.740426 6.2478261 29.751093 6.3004466 29.765625 6.3515625 C 29.751093 6.3003394 29.740453 6.2479126 29.724609 6.1972656 z M 2.2753906 6.1972656 C 2.2595475 6.2479126 2.2489071 6.3003394 2.234375 6.3515625 C 2.2489068 6.3004466 2.2595746 6.2478261 2.2753906 6.1972656 z M 2.1484375 6.6835938 C 2.1310307 6.7618485 2.1158978 6.8405287 2.1015625 6.9199219 C 2.1159857 6.8407699 2.1309716 6.7616255 2.1484375 6.6835938 z M 29.851562 6.6835938 C 29.869028 6.7616255 29.884014 6.8407699 29.898438 6.9199219 C 29.884102 6.8405287 29.868969 6.7618485 29.851562 6.6835938 z M 2.046875 7.2851562 C 2.0408862 7.3359476 2.0340187 7.3863203 2.0292969 7.4375 C 2.0340779 7.386392 2.0408215 7.3358705 2.046875 7.2851562 z M 29.953125 7.2851562 C 29.959178 7.3358705 29.965922 7.386392 29.970703 7.4375 C 29.965981 7.3863203 29.959114 7.3359476 29.953125 7.2851562 z " />
  <path
     id="rect1"
     style="fill:#18ffff;fill-opacity:1;stroke-width:1.75"
     d="M 2.2753906 6.1972656 C 2.0974102 6.7662294 2 7.370857 2 8 L 2 24 C 2 27.323997 4.6760033 30 8 30 L 16 30 L 16 16 L 2.2753906 6.1972656 z " />
  <path
     id="rect2"
     style="fill:#fdfd4b;fill-opacity:1;stroke-width:1.75"
     d="M 29.724609 6.1972656 L 16 16 L 16 30 L 24 30 C 27.323997 30 30 27.323997 30 24 L 30 8 C 30 7.370857 29.90259 6.7662294 29.724609 6.1972656 z " />
  <path
     d="M 8,2.0000001 C 4.6760033,2.0000001 2,4.6760035 2,8 V 9 C 2,5.6760035 4.6760033,3 8,3 h 16 c 3.323996,0 6,2.6760035 6,6 V 8 C 30,4.6760035 27.323996,2.0000001 24,2.0000001 Z"
     style="opacity:0.2;fill:#ffffff;stroke-width:2;stroke-linecap:square"
     id="path1040"
     sodipodi:nodetypes="sscsscsss" />
  <path
     style="opacity:0.1;fill:#000000"
     d="m 18.758192,18.36596 c -2.16228,1.991312 -6.322227,-1.167312 -8.07809,-3.151079 C 8.8741419,13.174506 2.1307349,6.2928729 1.6378425,5.8465595 1.1449736,5.4002628 0.75244179,4.8491064 1.1882639,4.3007419 1.641967,3.766699 2.2693868,4.0320291 2.813547,4.4159123 3.3577425,4.7998095 11.57172,9.891986 13.967222,11.214994 c 2.329025,1.286306 6.318931,4.651859 4.79097,7.150966 z"
     id="path5" />
  <path
     style="fill:#4f4f4f"
     d="m 18.758192,17.36596 c -2.16228,1.991312 -6.322227,-1.167312 -8.07809,-3.151079 C 8.8741419,12.174506 2.1307349,5.2928731 1.6378425,4.8465597 1.1449736,4.400263 0.75244179,3.8491066 1.1882639,3.3007421 1.641967,2.7666992 2.2693868,3.0320293 2.813547,3.4159125 3.3577425,3.7998097 11.57172,8.891986 13.967222,10.214994 c 2.329025,1.286306 6.318931,4.651859 4.79097,7.150966 z"
     id="path6" />
  <path
     style="opacity:0.1;fill:#000000"
     d="M 21.9,19.839784 C 14,26.72271 6.7704403,20.575183 5.7219277,18.166164 c 0.6200397,4.181376 3.4860433,7.923213 7.8156733,9.363251 3.269936,1.087561 10.000682,0.366725 10.507083,-2.967973 z"
     id="path7" />
  <path
     style="fill:#4883f7"
     d="M 21.9,18.839784 C 14,25.72271 6.7704403,19.575183 5.7219277,17.166164 c 0.6200397,4.181376 3.4860433,7.923213 7.8156733,9.363251 3.269936,1.087561 10.000682,0.366725 10.507083,-2.967973 z"
     id="path8" />
  <path
     style="opacity:0.1;fill:#000000"
     d="m 21.777206,20.821229 c -0.675854,0.304304 -0.602764,0.52425 -1.202862,0.42937 -0.413897,-0.06544 -3.999484,-2.737446 -3.999484,-2.737446 -0.181741,-0.428776 0.03627,-1.018226 0.445784,-1.484758 0.379819,-0.490204 0.921508,-0.821553 1.385773,-0.735217 0,0 3.399362,2.89772 3.549911,3.282359 0.218275,0.557686 -0.01572,0.532766 -0.179122,1.245692 z"
     id="path9" />
  <path
     style="fill:#9b9b9b"
     d="m 21.777206,19.821229 c -0.675854,0.304304 -0.602764,0.52425 -1.202862,0.42937 -0.413897,-0.06544 -3.999484,-2.737446 -3.999484,-2.737446 -0.181741,-0.428776 0.03627,-1.018226 0.445784,-1.484758 0.379819,-0.490204 0.921508,-0.821553 1.385773,-0.735217 0,0 3.399362,2.89772 3.549911,3.282359 0.218275,0.557686 -0.01572,0.532766 -0.179122,1.245692 z"
     id="path10" />
  <path
     style="opacity:0.1;fill:#000000"
     d="m 22.443279,26.683961 c 2.541652,-1.409784 3.139221,-3.950175 2.135626,-5.746974 -0.779889,-1.396277 -2.060423,-1.660264 -2.944883,-0.985123 -0.877402,0.669754 -0.95475,1.467826 -0.693026,2.260451 0.533746,1.616596 2.822577,2.804345 1.502283,4.471646 z"
     id="path11" />
  <path
     style="fill:#3f3f3f"
     d="m 22.443279,25.683961 c 2.541652,-1.409784 3.139221,-3.950175 2.135626,-5.746974 -0.779889,-1.396277 -2.060423,-1.660264 -2.944883,-0.985123 -0.877402,0.669754 -0.95475,1.467826 -0.693026,2.260451 0.533746,1.616596 2.822577,2.804345 1.502283,4.471646 z"
     id="path12" />
</svg>
