<?xml version="1.0" encoding="UTF-8" standalone="no"?>
<!-- Created with Inkscape (http://www.inkscape.org/) -->

<svg
   width="32"
   height="32"
   viewBox="0 0 32 32"
   version="1.1"
   id="svg5"
   inkscape:version="1.2.2 (1:1.2.2+202305151914+b0a8486541)"
   sodipodi:docname="minecraft.svg"
   xmlns:inkscape="http://www.inkscape.org/namespaces/inkscape"
   xmlns:sodipodi="http://sodipodi.sourceforge.net/DTD/sodipodi-0.dtd"
   xmlns="http://www.w3.org/2000/svg"
   xmlns:svg="http://www.w3.org/2000/svg">
  <sodipodi:namedview
     id="namedview7"
     pagecolor="#ffffff"
     bordercolor="#000000"
     borderopacity="0.25"
     inkscape:showpageshadow="2"
     inkscape:pageopacity="0.0"
     inkscape:pagecheckerboard="0"
     inkscape:deskcolor="#d1d1d1"
     inkscape:document-units="px"
     showgrid="false"
     inkscape:zoom="25.1875"
     inkscape:cx="15.980149"
     inkscape:cy="16"
     inkscape:window-width="1920"
     inkscape:window-height="1008"
     inkscape:window-x="0"
     inkscape:window-y="0"
     inkscape:window-maximized="1"
     inkscape:current-layer="svg5" />
  <defs
     id="defs2" />
  <rect
     style="opacity:0.2;fill:#000000;stroke-width:2;stroke-linecap:square"
     id="rect234"
     width="28"
     height="28"
     x="2"
     y="3"
     ry="6" />
  <rect
     style="fill:#4caf50;fill-opacity:1;stroke-width:2;stroke-linecap:square"
     id="rect396"
     width="28"
     height="28"
     x="2"
     y="2"
     ry="6" />
  <path
     d="m 7,8 v 6 h 6 V 8 Z m 6,6 v 5 H 9 v 8 h 4 v -4 h 6 v 4 h 4 v -8 h -4 v -5 z m 6,0 h 6 V 8 h -6 z"
     style="opacity:0.2;fill:#ffffff"
     id="path2328"
     sodipodi:nodetypes="ccccccccccccccccccccccc" />
  <path
     d="m 7,7 v 6 h 6 V 7 Z m 6,7 v 4 H 9 v 8 h 4 v -4 h 6 v 4 h 4 v -8 h -4 v -4 z m 6,-1 h 6 V 7 h -6 z"
     style="fill:#212121;fill-opacity:1"
     id="path2272"
     sodipodi:nodetypes="ccccccccccccccccccccccc" />
  <path
     d="m 7,6 v 1 h 6 V 6 Z m 12,0 v 1 h 6 V 6 Z m -6,7 v 1 h 6 v -1 z m -4,4 v 1 h 4 v -1 z m 10,0 v 1 h 4 v -1 z"
     style="opacity:0.3;fill:#000000"
     id="path2300"
     sodipodi:nodetypes="ccccccccccccccccccccccccc" />
  <path
     d="M 8,2.0000001 C 4.6760033,2.0000001 2,4.6760035 2,8 V 9 C 2,5.6760035 4.6760033,3 8,3 h 16 c 3.323996,0 6,2.6760035 6,6 V 8 C 30,4.6760035 27.323996,2.0000001 24,2.0000001 Z"
     style="opacity:0.2;fill:#ffffff;stroke-width:2;stroke-linecap:square"
     id="path1040"
     sodipodi:nodetypes="sscsscsss" />
</svg>
