<?xml version="1.0" encoding="UTF-8" standalone="no"?>
<!-- Created with Inkscape (http://www.inkscape.org/) -->

<svg
   width="32"
   height="32"
   viewBox="0 0 32 32"
   version="1.1"
   id="svg5"
   inkscape:version="1.3.2 (091e20ef0f, 2023-11-25, custom)"
   sodipodi:docname="mintreport.svg"
   xmlns:inkscape="http://www.inkscape.org/namespaces/inkscape"
   xmlns:sodipodi="http://sodipodi.sourceforge.net/DTD/sodipodi-0.dtd"
   xmlns="http://www.w3.org/2000/svg"
   xmlns:svg="http://www.w3.org/2000/svg">
  <sodipodi:namedview
     id="namedview7"
     pagecolor="#ffffff"
     bordercolor="#000000"
     borderopacity="0.25"
     inkscape:showpageshadow="2"
     inkscape:pageopacity="0.0"
     inkscape:pagecheckerboard="0"
     inkscape:deskcolor="#d1d1d1"
     inkscape:document-units="px"
     showgrid="false"
     inkscape:zoom="25.53125"
     inkscape:cx="15.980416"
     inkscape:cy="16"
     inkscape:window-width="1920"
     inkscape:window-height="1020"
     inkscape:window-x="0"
     inkscape:window-y="31"
     inkscape:window-maximized="1"
     inkscape:current-layer="svg5" />
  <defs
     id="defs2" />
  <rect
     style="opacity:0.2;fill:#000000;stroke-width:2;stroke-linecap:square"
     id="rect234"
     width="28"
     height="28"
     x="2"
     y="3"
     ry="6" />
  <rect
     style="fill:#9e744f;fill-opacity:1;stroke-width:2;stroke-linecap:square"
     id="rect396"
     width="28"
     height="28"
     x="2"
     y="2"
     ry="6" />
  <rect
     style="opacity:0.2;fill:#000000;fill-opacity:1"
     id="rect2658"
     width="20"
     height="20"
     x="6"
     y="7"
     ry="3" />
  <rect
     style="fill:#efefef;fill-opacity:1"
     id="rect2660"
     width="20"
     height="20"
     x="6"
     y="6"
     ry="3" />
  <path
     d="m 15,10 v 8 h 2 v -8 z m 0,10 v 2 h 2 v -2 z"
     style="fill:#f44336;fill-opacity:1;stroke-width:0.5"
     id="path3336" />
  <path
     id="rect5134"
     style="opacity:0.2;fill:#000000;fill-opacity:1"
     d="M 16,5 A 2,2 0 0 0 14,7 H 10.5 C 10.223,7 10,7.223 10,7.5 v 1 C 10,8.777 10.223,9 10.5,9 H 16 21.5 C 21.777,9 22,8.777 22,8.5 v -1 C 22,7.223 21.777,7 21.5,7 H 18 A 2,2 0 0 0 16,5 Z m 0,1 a 1,1 0 0 1 1,1 1,1 0 0 1 -1,1 1,1 0 0 1 -1,-1 1,1 0 0 1 1,-1 z" />
  <path
     id="rect5136"
     style="fill:#989fa5;fill-opacity:1"
     d="M 16,4 A 2,2 0 0 0 14,6 H 10.5 C 10.223,6 10,6.223 10,6.5 v 1 C 10,7.777 10.223,8 10.5,8 H 16 21.5 C 21.777,8 22,7.777 22,7.5 v -1 C 22,6.223 21.777,6 21.5,6 H 18 A 2,2 0 0 0 16,4 Z m 0,1 a 1,1 0 0 1 1,1 1,1 0 0 1 -1,1 1,1 0 0 1 -1,-1 1,1 0 0 1 1,-1 z" />
  <path
     d="M 8,2.0000001 C 4.6760033,2.0000001 2,4.6760035 2,8 V 9 C 2,5.6760035 4.6760033,3 8,3 h 16 c 3.323996,0 6,2.6760035 6,6 V 8 C 30,4.6760035 27.323996,2.0000001 24,2.0000001 Z"
     style="opacity:0.2;fill:#ffffff;stroke-width:2;stroke-linecap:square"
     id="path1040" />
</svg>
