<?xml version="1.0" encoding="UTF-8" standalone="no"?>
<!-- Created with Inkscape (http://www.inkscape.org/) -->

<svg
   width="32"
   height="32"
   viewBox="0 0 32 32"
   version="1.1"
   id="svg5"
   inkscape:version="1.4.3 (0d15f75042, 2025-12-25)"
   sodipodi:docname="modrinth-app.svg"
   xmlns:inkscape="http://www.inkscape.org/namespaces/inkscape"
   xmlns:sodipodi="http://sodipodi.sourceforge.net/DTD/sodipodi-0.dtd"
   xmlns="http://www.w3.org/2000/svg"
   xmlns:svg="http://www.w3.org/2000/svg">
  <sodipodi:namedview
     id="namedview7"
     pagecolor="#ffffff"
     bordercolor="#000000"
     borderopacity="0.25"
     inkscape:showpageshadow="2"
     inkscape:pageopacity="0.0"
     inkscape:pagecheckerboard="0"
     inkscape:deskcolor="#d1d1d1"
     inkscape:document-units="px"
     showgrid="false"
     inkscape:zoom="25.21875"
     inkscape:cx="15.980173"
     inkscape:cy="16"
     inkscape:window-width="1920"
     inkscape:window-height="1010"
     inkscape:window-x="0"
     inkscape:window-y="0"
     inkscape:window-maximized="1"
     inkscape:current-layer="svg5" />
  <defs
     id="defs2" />
  <rect
     style="opacity:0.2;fill:#000000;stroke-width:2;stroke-linecap:square"
     id="rect234"
     width="28"
     height="28"
     x="2"
     y="3"
     ry="6" />
  <rect
     style="fill:#4d4d4d;fill-opacity:1;stroke-width:2;stroke-linecap:square"
     id="rect396"
     width="28"
     height="28"
     x="2"
     y="2"
     ry="6" />
  <path
     d="M 8,2.0000001 C 4.6760033,2.0000001 2,4.6760035 2,8 V 9 C 2,5.6760035 4.6760033,3 8,3 h 16 c 3.323996,0 6,2.6760035 6,6 V 8 C 30,4.6760035 27.323996,2.0000001 24,2.0000001 Z"
     style="opacity:0.1;fill:#ffffff;stroke-width:2;stroke-linecap:square"
     id="path1040" />
  <path
     d="M 16.387607,7.0078557 C 15.403564,6.9687129 14.397034,7.0751414 13.395734,7.3430271 9.2738452,8.4461557 6.4449003,11.963798 6.0269286,15.963798 h 1.6914441 c 0.4023431,-3.247657 2.7246163,-6.0835995 6.0843903,-6.9828138 4.15236,-1.1113285 8.413307,1.1312428 9.89925,5.0652428 l -1.64613,0.440214 c -0.757415,-1.830086 -2.283545,-3.171886 -4.09096,-3.743371 l -0.302357,1.7125 c 1.426958,0.526171 2.584387,1.7125 3.007817,3.291028 0.6172,2.3004 -0.53203,4.657429 -2.617189,5.635157 l 0.450359,1.679314 c 2.74063,-1.130871 4.387117,-3.9789 3.99766,-6.914842 l 1.639872,-0.4387 c 0.172115,1.094771 0.120858,2.2131 -0.150758,3.287514 l 1.66443,0.6051 c 0.44493,-1.644157 0.474973,-3.423871 0.0014,-5.187557 C 24.493614,10.079356 20.65174,7.1773557 16.387507,7.0078557 Z M 16.27075,10.44347 c -0.652343,-0.02771 -1.320272,0.04143 -1.98433,0.219114 -3.504702,0.937886 -5.5843895,4.535586 -4.6453316,8.0356 0.085143,0.317585 0.1921858,0.623014 0.3191431,0.915985 L 8.4527304,20.518484 C 8.2441445,20.076298 8.0719015,19.609455 7.9406443,19.120784 7.8152157,18.65437 7.7328298,18.18647 7.6902441,17.721241 H 6 c 0.046714,0.6307 0.152743,1.2556 0.3167717,1.866386 1.4312581,5.333214 6.9203763,8.498471 12.2610243,7.069571 2.977744,-0.796886 5.280488,-2.853914 6.487132,-5.442986 l -1.665644,-0.605471 c -1.016414,2.077357 -2.893401,3.721086 -5.305118,4.3664 -3.350402,0.896486 -6.771862,-0.390257 -8.7488206,-2.987529 l 1.5004006,-0.899971 c 1.408215,1.764857 3.674945,2.7254 5.995662,2.418371 L 16.39105,21.826698 c -1.555086,0.131714 -3.055102,-0.499271 -4.05276,-1.6352 l 1.946116,-1.167543 1.116415,1.242986 2.489473,-0.788343 1.48553,-1.821443 -0.428928,-0.9649 -1.439816,0.455857 -0.659414,0.724272 -0.926516,0.2465 c -0.0012,-3.86e-4 -0.657043,-0.697329 -0.657043,-0.697329 l -0.323871,-0.901114 0.660928,-0.679314 0.925073,-0.290986 1.060486,-1.074229 -0.665972,-0.819928 -2.300801,0.495686 -1.820302,1.869885 0.580829,1.5403 -1.92773,1.156629 c -0.057,-0.150786 -0.107,-0.305886 -0.15,-0.464857 -0.692958,-2.583615 0.842171,-5.238686 3.428903,-5.931272 0.413271,-0.110571 0.828128,-0.164057 1.236728,-0.166014 z"
     style="opacity:0.2;fill:#000000;fill-opacity:1;stroke-width:0.0390626"
     id="path1" />
  <path
     d="M 16.387607,6.0078557 C 15.403564,5.9687128 14.397034,6.0751414 13.395734,6.3430271 9.2738452,7.4461557 6.4449003,10.963798 6.0269286,14.963798 h 1.6914441 c 0.4023431,-3.247657 2.7246163,-6.0835995 6.0843903,-6.9828138 4.15236,-1.1113285 8.413307,1.1312429 9.89925,5.0652428 l -1.64613,0.440214 C 21.298468,11.656356 19.772338,10.314556 17.964923,9.7430699 L 17.662566,11.45557 c 1.426958,0.526171 2.584387,1.7125 3.007817,3.291028 0.6172,2.3004 -0.53203,4.657429 -2.617189,5.635157 l 0.450359,1.679315 c 2.74063,-1.130872 4.387117,-3.9789 3.99766,-6.914843 l 1.639872,-0.4387 c 0.172115,1.094771 0.120858,2.2131 -0.150758,3.287514 l 1.66443,0.6051 c 0.44493,-1.644157 0.474973,-3.423871 0.0014,-5.187557 C 24.493614,9.0793557 20.65174,6.1773557 16.387507,6.0078557 Z M 16.27075,9.4434699 C 15.618407,9.4157557 14.950478,9.4848985 14.28642,9.6625842 10.781718,10.60047 8.7020305,14.19817 9.6410884,17.698184 9.7262312,18.01577 9.8332742,18.321198 9.9602315,18.61417 L 8.4527304,19.518484 C 8.2441445,19.076298 8.0719015,18.609456 7.9406443,18.120784 7.8152157,17.65437 7.7328298,17.18647 7.6902441,16.721241 H 6 c 0.046714,0.6307 0.152743,1.2556 0.3167717,1.866386 1.4312581,5.333214 6.9203763,8.498471 12.2610243,7.069571 2.977744,-0.796885 5.280488,-2.853914 6.487132,-5.442985 l -1.665644,-0.605472 c -1.016414,2.077357 -2.893401,3.721086 -5.305118,4.3664 -3.350402,0.896486 -6.771862,-0.390257 -8.7488206,-2.987528 l 1.5004006,-0.899972 c 1.408215,1.764857 3.674945,2.7254 5.995662,2.418372 L 16.39105,20.826698 c -1.555086,0.131715 -3.055102,-0.499271 -4.05276,-1.6352 l 1.946116,-1.167542 1.116415,1.242985 2.489473,-0.788343 1.48553,-1.821442 -0.428928,-0.9649 -1.439816,0.455857 -0.659414,0.724271 -0.926516,0.2465 c -0.0012,-3.86e-4 -0.657043,-0.697328 -0.657043,-0.697328 l -0.323871,-0.901115 0.660928,-0.679314 0.925073,-0.290986 1.060486,-1.074228 -0.665972,-0.819929 -2.300801,0.495686 -1.820302,1.869886 0.580829,1.5403 -1.92773,1.156628 c -0.057,-0.150786 -0.107,-0.305886 -0.15,-0.464857 -0.692958,-2.583614 0.842171,-5.238686 3.428903,-5.931271 0.413271,-0.110572 0.828128,-0.164058 1.236728,-0.166015 z"
     style="fill:#1bd96a;fill-opacity:1;stroke-width:0.0390626"
     id="path2" />
  <path
     id="path3"
     style="fill:#ffffff;fill-opacity:1;stroke-width:0.0390626;opacity:0.2"
     d="M 16.386719 6.0078125 C 15.402676 5.9686696 14.397784 6.0758643 13.396484 6.34375 C 9.2745956 7.4468786 6.4453155 10.962891 6.0273438 14.962891 L 6.1835938 14.962891 C 6.9312315 11.387065 9.6220149 8.3538998 13.396484 7.34375 C 14.397129 7.0760396 15.40329 6.9688857 16.386719 7.0078125 L 16.388672 7.0078125 C 20.652125 7.1781202 24.493884 10.079542 25.65625 14.412109 C 25.843736 15.110348 25.953158 15.812002 25.988281 16.505859 C 26.039538 15.489845 25.934337 14.447763 25.65625 13.412109 C 24.493707 9.0788811 20.650952 6.1773125 16.386719 6.0078125 z M 16.271484 9.4433594 C 15.619141 9.4156452 14.951167 9.4844237 14.287109 9.6621094 C 11.183536 10.49265 9.1974084 13.408859 9.4355469 16.496094 C 9.6433091 13.798443 11.521499 11.402209 14.287109 10.662109 C 14.891662 10.500347 15.499415 10.42816 16.095703 10.4375 L 16.271484 9.4433594 z M 17.964844 9.7421875 L 17.662109 11.455078 C 17.717623 11.475548 17.773455 11.497079 17.828125 11.519531 L 17.964844 10.742188 C 19.772259 11.313674 21.299226 12.656243 22.056641 14.486328 L 23.701172 14.046875 C 23.584678 13.73846 23.45195 13.439166 23.302734 13.152344 L 22.056641 13.486328 C 21.299226 11.656243 19.772259 10.313674 17.964844 9.7421875 z M 16.919922 12.65625 L 14.619141 13.152344 L 12.798828 15.021484 L 13.070312 15.742188 L 14.619141 14.152344 L 16.919922 13.65625 L 17.140625 13.927734 L 17.585938 13.476562 L 16.919922 12.65625 z M 18.947266 15.691406 L 17.507812 16.148438 L 16.847656 16.873047 L 15.921875 17.119141 C 15.920675 17.118755 15.263672 16.421875 15.263672 16.421875 L 15.201172 16.25 L 14.939453 16.519531 L 15.263672 17.421875 C 15.263672 17.421875 15.920675 18.118755 15.921875 18.119141 L 16.847656 17.873047 L 17.507812 17.148438 L 18.947266 16.691406 L 19.087891 17.007812 L 19.375 16.65625 L 18.947266 15.691406 z M 22.556641 16.130859 L 22.501953 16.146484 C 22.517767 16.2657 22.529899 16.385089 22.539062 16.503906 C 22.548564 16.380521 22.554203 16.255377 22.556641 16.130859 z M 24.224609 16.482422 C 24.19359 16.991715 24.115921 17.496968 23.990234 17.994141 L 24.169922 18.058594 C 24.238936 17.536277 24.25676 17.008566 24.224609 16.482422 z M 11.162109 16.498047 C 11.102189 17.070855 11.144615 17.664375 11.302734 18.253906 C 11.345734 18.412877 11.396125 18.567964 11.453125 18.71875 L 13.380859 17.5625 L 13.072266 16.748047 L 11.453125 17.71875 C 11.396125 17.567964 11.345734 17.412877 11.302734 17.253906 C 11.235195 17.002093 11.188407 16.749334 11.162109 16.498047 z M 20.810547 16.501953 C 20.636664 18.164111 19.603399 19.653755 18.052734 20.380859 L 18.289062 21.263672 C 20.003367 20.342074 21.015241 18.45789 20.810547 16.501953 z M 6 16.720703 C 6.0248413 17.056093 6.0668098 17.389843 6.125 17.720703 L 7.6894531 17.720703 C 7.7320388 18.185932 7.8159776 18.65468 7.9414062 19.121094 C 8.0726634 19.609766 8.2445391 20.075392 8.453125 20.517578 L 9.9609375 19.613281 C 9.8463026 19.348745 9.7467164 19.075643 9.6660156 18.791016 L 8.453125 19.517578 C 8.2445391 19.075392 8.0726635 18.609766 7.9414062 18.121094 C 7.8159777 17.65468 7.7320388 17.185932 7.6894531 16.720703 L 6 16.720703 z M 23.398438 19.609375 C 22.382023 21.686732 20.505467 23.329295 18.09375 23.974609 C 15.042073 24.791164 11.93254 23.796907 9.9082031 21.650391 L 9.3457031 21.988281 C 11.322662 24.585552 14.743348 25.871095 18.09375 24.974609 C 20.505467 24.329295 22.382023 22.686732 23.398438 20.609375 L 24.625 21.054688 C 24.784976 20.781956 24.9308 20.50162 25.064453 20.214844 L 23.398438 19.609375 z M 12.984375 19.802734 L 12.337891 20.191406 C 13.335549 21.327335 14.835539 21.957887 16.390625 21.826172 L 16.582031 22.535156 C 16.66868 22.527193 16.754955 22.517348 16.841797 22.505859 L 16.390625 20.826172 C 15.142753 20.931866 13.930208 20.546089 12.984375 19.802734 z " />
</svg>
