<?xml version="1.0" encoding="UTF-8" standalone="no"?>
<!-- Created with Inkscape (http://www.inkscape.org/) -->

<svg
   width="32"
   height="32"
   viewBox="0 0 32 32"
   version="1.1"
   id="svg5"
   inkscape:version="1.3 (0e150ed6c4, 2023-07-21)"
   sodipodi:docname="ms-onenote.svg"
   xmlns:inkscape="http://www.inkscape.org/namespaces/inkscape"
   xmlns:sodipodi="http://sodipodi.sourceforge.net/DTD/sodipodi-0.dtd"
   xmlns="http://www.w3.org/2000/svg"
   xmlns:svg="http://www.w3.org/2000/svg">
  <sodipodi:namedview
     id="namedview7"
     pagecolor="#ffffff"
     bordercolor="#000000"
     borderopacity="0.25"
     inkscape:showpageshadow="2"
     inkscape:pageopacity="0.0"
     inkscape:pagecheckerboard="0"
     inkscape:deskcolor="#d1d1d1"
     inkscape:document-units="px"
     showgrid="false"
     inkscape:zoom="25.09375"
     inkscape:cx="16"
     inkscape:cy="16"
     inkscape:window-width="1850"
     inkscape:window-height="1011"
     inkscape:window-x="70"
     inkscape:window-y="32"
     inkscape:window-maximized="1"
     inkscape:current-layer="svg5" />
  <defs
     id="defs2" />
  <rect
     style="opacity:0.2;fill:#000000;stroke-width:2;stroke-linecap:square"
     id="rect234"
     width="28"
     height="28"
     x="2"
     y="3"
     ry="6" />
  <rect
     style="fill:#efefef;fill-opacity:1;stroke-width:2;stroke-linecap:square"
     id="rect396"
     width="28"
     height="28"
     x="2"
     y="2"
     ry="6" />
  <rect
     style="opacity:0.2;fill:#000000;stroke-linecap:round;stroke-linejoin:round"
     id="rect2051"
     width="16"
     height="20"
     x="10"
     y="6.9999995"
     ry="1" />
  <path
     id="rect1"
     style="opacity:1;fill:#ca64ea;fill-opacity:1"
     d="M 11 6 C 10.446001 6 10 6.4460006 10 7 L 10 25 C 10 25.553999 10.446001 26 11 26 L 21 26 L 26 11 L 26 7 C 26 6.4460006 25.553999 6 25 6 L 11 6 z " />
  <path
     d="m 11,5.9999996 c -0.554,0 -1,0.446 -1,1 v 1 c 0,-0.554 0.446,-1 1,-1 h 14 c 0.554,0 1,0.446 1,1 v -1 c 0,-0.554 -0.446,-1 -1,-1 z"
     style="opacity:0.2;fill:#ffffff"
     id="path598" />
  <rect
     style="opacity:1;fill:#ae4bd5;fill-opacity:1"
     id="rect2"
     width="5"
     height="7"
     x="21"
     y="11" />
  <rect
     style="opacity:1;fill:#9332bf;fill-opacity:1"
     id="rect3"
     width="5"
     height="7"
     x="21"
     y="16" />
  <path
     id="rect4"
     style="opacity:1;fill:#7719aa;fill-opacity:1"
     d="M 21 21 L 21 26 L 25 26 C 25.553999 26 26 25.553999 26 25 L 26 21 L 21 21 z " />
  <path
     id="path415"
     style="opacity:0.1;fill:#000000"
     d="M 21 11 L 21 12 L 26 12 L 26 11 L 21 11 z M 21 16 L 21 17 L 26 17 L 26 16 L 21 16 z M 21 21 L 21 22 L 26 22 L 26 21 L 21 21 z " />
  <rect
     style="opacity:0.2;fill:#000000;stroke-linecap:round;stroke-linejoin:round"
     id="rect670"
     width="11"
     height="11"
     x="5"
     y="11"
     ry="1" />
  <rect
     style="fill:#7719aa;fill-opacity:1;stroke-linecap:round;stroke-linejoin:round"
     id="rect672"
     width="11"
     height="11"
     x="5"
     y="10"
     ry="1" />
  <path
     id="path3"
     style="fill:#ffffff"
     d="M 8 12 L 8 19 L 9 19 L 9 13.75 L 11.75 19 L 13 19 L 13 12 L 12 12 L 12 17.25 L 9.25 12 L 8 12 z " />
  <path
     d="M 8,2.0000001 C 4.6760033,2.0000001 2,4.6760035 2,8 V 9 C 2,5.6760035 4.6760033,3 8,3 h 16 c 3.323996,0 6,2.6760035 6,6 V 8 C 30,4.6760035 27.323996,2.0000001 24,2.0000001 Z"
     style="opacity:0.2;fill:#ffffff;stroke-width:2;stroke-linecap:square"
     id="path1040"
     sodipodi:nodetypes="sscsscsss" />
</svg>
