<?xml version="1.0" encoding="UTF-8" standalone="no"?>
<!-- Created with Inkscape (http://www.inkscape.org/) -->

<svg
   width="32"
   height="32"
   viewBox="0 0 32 32"
   version="1.1"
   id="svg5"
   inkscape:version="1.2.2 (1:1.2.2+202305151914+b0a8486541)"
   sodipodi:docname="naver-whale.svg"
   xmlns:inkscape="http://www.inkscape.org/namespaces/inkscape"
   xmlns:sodipodi="http://sodipodi.sourceforge.net/DTD/sodipodi-0.dtd"
   xmlns="http://www.w3.org/2000/svg"
   xmlns:svg="http://www.w3.org/2000/svg">
  <sodipodi:namedview
     id="namedview7"
     pagecolor="#ffffff"
     bordercolor="#000000"
     borderopacity="0.25"
     inkscape:showpageshadow="2"
     inkscape:pageopacity="0.0"
     inkscape:pagecheckerboard="0"
     inkscape:deskcolor="#d1d1d1"
     inkscape:document-units="px"
     showgrid="false"
     inkscape:zoom="25.1875"
     inkscape:cx="16"
     inkscape:cy="16"
     inkscape:window-width="1920"
     inkscape:window-height="1008"
     inkscape:window-x="0"
     inkscape:window-y="0"
     inkscape:window-maximized="1"
     inkscape:current-layer="svg5" />
  <defs
     id="defs2" />
  <rect
     style="opacity:0.2;fill:#000000;stroke-width:2;stroke-linecap:square"
     id="rect234"
     width="28"
     height="28"
     x="2"
     y="3"
     ry="6" />
  <rect
     style="fill:#001e55;fill-opacity:1;stroke-width:2;stroke-linecap:square"
     id="rect396"
     width="28"
     height="28"
     x="2"
     y="2"
     ry="6" />
  <path
     d="m 26.000041,17.000085 c 0,5.522843 -4.477148,9.999991 -9.999991,9.999991 -1.612464,0 -3.135791,-0.381642 -4.48458,-1.059526 0.420639,-2.157144 0.969809,-3.998994 1.603484,-5.571537 0.73282,-1.818584 2.499303,-1.576932 3.390068,-2.746297 1.42678,-1.873027 2.048179,-4.704542 3.425678,-5.386707 C 21.637292,11.392852 24.049815,11.056 24.049815,11.056 l 0.108901,0.160311 c 0.105795,0.148966 0.207613,0.300954 0.305297,0.45581 0.973011,1.542472 1.536028,3.369469 1.536028,5.327964 z"
     style="opacity:0.2"
     id="path561" />
  <path
     d="m 16.75006,7.5 c -0.138071,0 -0.25,0.1119288 -0.25,0.25 0,0.1380712 0.111929,0.25 0.25,0.25 0.138071,0 0.25,-0.1119288 0.25,-0.25 0,-0.1380712 -0.111929,-0.25 -0.25,-0.25 z m 2.875,1.25 c -0.06904,0 -0.125,0.055964 -0.125,0.125 0,0.069036 0.05596,0.125 0.125,0.125 0.06904,0 0.125,-0.055964 0.125,-0.125 0,-0.069036 -0.05596,-0.125 -0.125,-0.125 z m -6.443359,1.828125 c -0.04158,4.28e-4 -0.07487,0.0346 -0.07422,0.07617 4.23e-4,0.04081 0.03341,0.0738 0.07422,0.07422 0.04157,6.52e-4 0.07574,-0.03264 0.07617,-0.07422 -1.01e-4,-0.0053 -7.56e-4,-0.0105 -0.002,-0.01563 -0.0012,-0.0061 -0.0032,-0.01198 -0.0059,-0.01758 -0.0012,-0.002 -0.0025,-0.004 -0.0039,-0.0059 -0.0017,-0.0034 -0.0037,-0.0067 -0.0059,-0.0098 -0.0024,-0.0028 -0.005,-0.0054 -0.0078,-0.0078 -0.0019,-0.0014 -0.0038,-0.0027 -0.0059,-0.0039 -0.0031,-0.0022 -0.0064,-0.0042 -0.0098,-0.0059 -0.0044,-0.0024 -0.0089,-0.0044 -0.01367,-0.0059 -0.0069,-0.0023 -0.01417,-0.0037 -0.02148,-0.0039 z M 16.12506,10.75 c -0.06904,0 -0.125,0.05596 -0.125,0.125 0,0.06904 0.05596,0.125 0.125,0.125 0.06904,0 0.125,-0.05596 0.125,-0.125 0,-0.06904 -0.05596,-0.125 -0.125,-0.125 z m -3.050781,0.09961 c -0.04158,4.28e-4 -0.07487,0.0346 -0.07422,0.07617 4.23e-4,0.04081 0.03341,0.0738 0.07422,0.07422 0.04157,6.52e-4 0.07574,-0.03264 0.07617,-0.07422 -4.8e-5,-0.008 -0.0014,-0.01588 -0.0039,-0.02344 -0.0015,-0.0047 -0.0035,-0.0093 -0.0059,-0.01367 -0.0012,-0.002 -0.0025,-0.004 -0.0039,-0.0059 -0.0012,-0.002 -0.0025,-0.004 -0.0039,-0.0059 -0.0024,-0.0028 -0.005,-0.0054 -0.0078,-0.0078 -0.0019,-0.0014 -0.0038,-0.0027 -0.0059,-0.0039 -0.0019,-0.0014 -0.0038,-0.0027 -0.0059,-0.0039 -0.0043,-0.0031 -0.0089,-0.0057 -0.01367,-0.0078 -0.0082,-0.0028 -0.01676,-0.0041 -0.02539,-0.0039 z M 10.62506,11.25 c -0.06904,0 -0.125,0.05596 -0.125,0.125 0,0.06904 0.05596,0.125 0.125,0.125 0.06904,0 0.125,-0.05596 0.125,-0.125 0,-0.06904 -0.05596,-0.125 -0.125,-0.125 z m 1.625,0.75 c -0.138071,0 -0.25,0.111929 -0.25,0.25 0,0.138072 0.111929,0.25 0.25,0.25 0.138071,0 0.25,-0.111928 0.25,-0.25 0,-0.138071 -0.111929,-0.25 -0.25,-0.25 z"
     style="fill:#ffffff"
     id="path605" />
  <path
     d="m 26.000041,16.00001 c 0,5.522842 -4.477148,9.99999 -9.999991,9.99999 -1.612464,0 -3.135791,-0.381642 -4.48458,-1.059526 0.420639,-2.157144 0.969809,-3.998994 1.603484,-5.571537 0.73282,-1.818583 2.499303,-1.576931 3.390068,-2.746297 1.42678,-1.873026 2.048179,-4.704542 3.425678,-5.386707 1.702592,-0.843157 4.115115,-1.180009 4.115115,-1.180009 l 0.108901,0.160311 c 0.105795,0.148966 0.207613,0.300954 0.305297,0.45581 0.973011,1.542473 1.536028,3.369469 1.536028,5.327965 z"
     style="fill:#cdfaf0"
     id="path533" />
  <path
     d="m 23.035203,11 c -1.296543,4.74e-4 -2.692533,0.30617 -3.849609,0.853516 -0.991679,0.469106 -1.960458,1.280156 -3.835938,2.769531 -1.236252,1.028314 -2.446878,1.335633 -3.853415,1.378907 -1.9395488,0.05967 -3.6009888,-1.47995 -3.8399438,-2.945313 -0.06943,-0.499203 -0.02172,-1.173378 0.115235,-1.623047 0.02864,-0.09403 0.04738,-0.177227 0.04101,-0.183594 -0.01894,-0.01895 -0.415141,0.606434 -0.603515,0.953125 -0.56638,1.042385 -0.918833,2.082562 -1.113282,3.283204 -0.102188,0.63096 -0.126777,1.947754 -0.04883,2.623047 0.267774,2.319787 1.324463,4.481257 2.970703,6.074219 l 0.267579,0.257812 -0.220704,0.205078 c -0.865965,0.79901 -1.963689,1.478378 -3.015625,1.867188 -0.05907,0.02183 -0.04978,0.03187 0.06836,0.07422 0.426238,0.152805 1.319944,0.331353 1.951172,0.390624 0.500078,0.04696 1.402151,0.01377 1.88086,-0.06836 0.5932578,-0.101783 1.1367908,-0.252957 1.6914058,-0.472656 l 0.798828,-0.369141 c 0.995612,-0.514213 2.029544,-1.364992 2.625,-2.160156 0.777814,-1.038681 1.765262,-3.082438 2.839844,-5.884766 0.518144,-1.35123 0.752834,-1.908393 1.105469,-2.615234 0.493617,-0.989437 0.993214,-1.738083 1.498046,-2.248048 0.79947,-0.807596 2.092266,-1.68188 3.339844,-2.017578 l 0.191406,-0.07813 -0.0059,-0.0078 -0.449219,-0.03711 C 23.404433,11.006926 23.221776,11.000024 23.03715,11 Z m -7.560547,5.001954 c 0.0085,-4.32e-4 0.01676,0 0.02539,0 0.276143,0 0.5,0.223858 0.5,0.5 0,0.276142 -0.223857,0.5 -0.5,0.5 -0.276142,0 -0.5,-0.223858 -0.5,-0.5 0,-0.267513 0.210425,-0.486608 0.47461,-0.5 z"
     style="opacity:0.2"
     id="path477" />
  <path
     d="m 23.03522,9.9980469 c -1.296543,4.741e-4 -2.692533,0.3061691 -3.849609,0.8535161 -0.991679,0.469106 -1.960458,1.280156 -3.835938,2.769531 C 14.113422,14.649407 12.902796,14.956726 11.496259,15 9.5567094,15.05967 7.8952696,13.520051 7.6563146,12.054688 c -0.06943,-0.499203 -0.02172,-1.173378 0.115235,-1.623047 0.02864,-0.09403 0.04738,-0.177227 0.04101,-0.183594 -0.01894,-0.01895 -0.415141,0.606434 -0.603515,0.953125 -0.56638,1.042385 -0.918833,2.082562 -1.113282,3.283203 -0.102188,0.63096 -0.126777,1.947754 -0.04883,2.623047 0.267774,2.319787 1.324463,4.481257 2.9707034,6.074219 l 0.2675781,0.257812 -0.2207031,0.205078 c -0.8659656,0.79901 -1.9636894,1.478378 -3.0156254,1.867188 -0.05907,0.02183 -0.04978,0.03187 0.06836,0.07422 0.426238,0.152805 1.319944,0.331353 1.951172,0.390624 0.5000779,0.04696 1.4021505,0.01377 1.8808597,-0.06836 0.5932587,-0.101783 1.1367917,-0.252957 1.6914067,-0.472656 l 0.798828,-0.369141 c 0.995611,-0.514213 2.029544,-1.364992 2.624999,-2.160156 0.777814,-1.038681 1.765262,-3.082438 2.839844,-5.884766 0.51815,-1.35123 0.75284,-1.908393 1.105475,-2.615234 0.493617,-0.989436 0.993214,-1.738082 1.498046,-2.248047 0.79947,-0.807596 2.092266,-1.68188 3.339844,-2.017578 l 0.191406,-0.07813 -0.0059,-0.0078 -0.449219,-0.03711 C 23.404456,10.004973 23.221799,9.998071 23.037173,9.998047 Z M 15.474673,15 c 0.0085,-4.32e-4 0.01676,0 0.02539,0 0.276143,0 0.5,0.223858 0.5,0.5 0,0.276142 -0.223857,0.5 -0.5,0.5 -0.276142,0 -0.499999,-0.223858 -0.499999,-0.5 0,-0.267513 0.210424,-0.486608 0.474609,-0.5 z"
     style="fill:#00e6b9"
     id="path505" />
  <path
     id="path421"
     style="opacity:0.2;fill:#ffffff"
     d="m 23.035216,9.9980469 c -1.296541,4.741e-4 -2.692533,0.3061701 -3.849609,0.8535161 -0.991678,0.469105 -1.96046,1.280157 -3.835938,2.769531 C 14.113419,14.649406 12.90269,14.956726 11.496154,15 9.5566064,15.05967 7.8952644,13.52005 7.6563102,12.054688 c -0.036867,0.339773 -0.041739,0.699905 0,1 0.2389542,1.465361 1.9002962,3.004984 3.8398438,2.945312 1.406536,-0.04327 2.617265,-0.350594 3.853515,-1.378906 1.875478,-1.489375 2.84426,-2.300426 3.835938,-2.769531 0.808053,-0.382243 1.732355,-0.644648 2.658203,-0.769531 0.623075,-0.408817 1.318972,-0.757105 2.003906,-0.941407 l 0.191406,-0.07813 -0.0059,-0.0078 -0.449219,-0.03711 C 23.404453,10.004974 23.221755,9.998074 23.037128,9.99805 Z M 7.8125602,10.248047 c -0.018943,-0.01895 -0.4151411,0.606434 -0.6035156,0.953125 -0.5663794,1.042384 -0.9188324,2.082563 -1.1132813,3.283203 -0.080181,0.495076 -0.1114004,1.409063 -0.083984,2.107422 0.013059,-0.424148 0.039591,-0.833318 0.083984,-1.107422 0.1944489,-1.20064 0.5469019,-2.240819 1.1132813,-3.283203 0.1101149,-0.202659 0.284645,-0.488515 0.4199218,-0.697265 0.00428,-0.378823 0.051848,-0.774359 0.1425782,-1.072266 0.028638,-0.09403 0.047383,-0.177227 0.041016,-0.183594 z M 15.474669,16 c -0.264184,0.01339 -0.474609,0.232487 -0.474609,0.5 0,0.276142 0.223858,0.5 0.5,0.5 0.276143,0 0.5,-0.223858 0.5,-0.5 0,-0.276142 -0.223857,-0.5 -0.5,-0.5 -0.0086,0 -0.01689,-4.32e-4 -0.02539,0 z m -6.7207026,7.914062 c -0.8101283,0.680451 -1.7744461,1.253682 -2.7050781,1.597657 -0.059071,0.02183 -0.049781,0.03187 0.068359,0.07422 0.2839319,0.101787 0.7747801,0.213152 1.2578129,0.29492 0.6048997,-0.349851 1.1865261,-0.772287 1.6894531,-1.236328 L 9.2852164,24.439453 9.0176383,24.181641 c -0.090278,-0.08736 -0.1769725,-0.17687 -0.2636719,-0.267579 z" />
  <path
     d="M 8,2.0000001 C 4.6760033,2.0000001 2,4.6760035 2,8 V 9 C 2,5.6760035 4.6760033,3 8,3 h 16 c 3.323996,0 6,2.6760035 6,6 V 8 C 30,4.6760035 27.323996,2.0000001 24,2.0000001 Z"
     style="opacity:0.1;fill:#ffffff;stroke-width:2;stroke-linecap:square"
     id="path1040"
     sodipodi:nodetypes="sscsscsss" />
</svg>
