<?xml version="1.0" encoding="UTF-8" standalone="no"?>
<!-- Created with Inkscape (http://www.inkscape.org/) -->

<svg
   width="32"
   height="32"
   viewBox="0 0 32 32"
   version="1.1"
   id="svg5"
   inkscape:version="1.3.2 (091e20ef0f, 2023-11-25, custom)"
   sodipodi:docname="obsidian.svg"
   xmlns:inkscape="http://www.inkscape.org/namespaces/inkscape"
   xmlns:sodipodi="http://sodipodi.sourceforge.net/DTD/sodipodi-0.dtd"
   xmlns="http://www.w3.org/2000/svg"
   xmlns:svg="http://www.w3.org/2000/svg">
  <sodipodi:namedview
     id="namedview7"
     pagecolor="#ffffff"
     bordercolor="#000000"
     borderopacity="0.25"
     inkscape:showpageshadow="2"
     inkscape:pageopacity="0.0"
     inkscape:pagecheckerboard="0"
     inkscape:deskcolor="#d1d1d1"
     inkscape:document-units="px"
     showgrid="false"
     inkscape:zoom="25.6875"
     inkscape:cx="16"
     inkscape:cy="16"
     inkscape:window-width="1920"
     inkscape:window-height="1008"
     inkscape:window-x="0"
     inkscape:window-y="0"
     inkscape:window-maximized="1"
     inkscape:current-layer="svg5" />
  <defs
     id="defs2" />
  <rect
     style="opacity:0.2;fill:#000000;stroke-width:2;stroke-linecap:square"
     id="rect234"
     width="28"
     height="28"
     x="2"
     y="3"
     ry="6" />
  <rect
     style="fill:#4d4d4d;fill-opacity:1;stroke-width:2;stroke-linecap:square"
     id="rect396"
     width="28"
     height="28"
     x="2"
     y="2"
     ry="6" />
  <path
     id="path1"
     style="opacity:0.2;stroke-width:0.946789"
     d="m 16.524167,7.0007178 c -0.297413,0.012191 -0.591018,0.1248099 -0.830079,0.3437733 l -4.382812,3.6350129 c -0.229649,0.208105 -0.379593,0.489724 -0.423829,0.798882 l -0.5,3.347884 c -0.0052,0.03334 -0.01953,0.09571 -0.01953,0.09571 -0.01835,0.08762 -0.04721,0.172063 -0.08203,0.255877 l -2.169922,4.890957 c -0.2224953,0.501929 -0.1188716,1.09017 0.2597656,1.484476 l 3.7285154,3.791273 c 0.110118,0.111434 0.235329,0.203881 0.375,0.271503 0.150589,0.07429 0.315433,0.120391 0.484375,0.130868 0,0 0.960638,0.0079 2.095704,0.0879 1.132241,0.08382 2.82905,0.522451 3.970703,0.828181 0.761416,0.203819 2.046627,-0.469672 2.169922,-1.388766 0.106353,-0.791468 0.314233,-1.640628 0.75,-2.443526 0,0 1.656865,-2.631482 1.958984,-3.148651 0.139295,-0.238107 0.114937,-0.536852 -0.04883,-0.755911 -0.428236,-0.573367 -1.246367,-1.738499 -1.695311,-2.818554 -0.45459,-1.10958 -0.525531,-2.83113 -0.529296,-3.672125 -0.0019,-0.319921 -0.100168,-0.631431 -0.296875,-0.882872 L 17.563229,7.4421541 C 17.290286,7.1345195 16.906287,6.9849075 16.524167,7.0007178 Z" />
  <path
     style="fill:#b091f0;stroke-width:0.94676"
     d="m 13.647031,18.856754 h 3.764687 L 17.882304,7.4284616 17.564188,6.44408 C 17.079484,5.8971749 16.239959,5.8450796 15.692197,6.3454132 l -4.381624,3.6344784 c -0.229646,0.2080954 -0.380234,0.4909524 -0.424469,0.8000004 l -0.500233,3.348097 -0.01835,0.09476"
     id="path2" />
  <path
     style="fill:#8251e6;stroke-width:0.94676"
     d="m 21.950048,22.130089 c 0,0 1.657403,-2.629525 1.959519,-3.146668 0.139294,-0.238095 0.113882,-0.536191 -0.04988,-0.755238 -0.428235,-0.573334 -1.246113,-1.740002 -1.695052,-2.820002 -0.454586,-1.109239 -0.525174,-2.831621 -0.528938,-3.672574 -0.0019,-0.32 -0.100706,-0.630477 -0.297411,-0.881905 L 17.564188,6.44408 c 0.252234,0.8388576 0.234352,1.4217151 0.07812,2.035525 -0.143999,0.5691432 -0.408468,1.0840959 -0.687996,1.629334 -0.09318,0.184286 -0.188235,0.368096 -0.28047,0.561905 -0.370821,0.764287 -0.703996,1.630954 -0.753878,2.795716 -0.04894,1.160668 0.186352,2.619717 0.953407,4.566385"
     id="path3" />
  <path
     style="fill:#6135ba;stroke-width:0.94676"
     d="m 19.029592,25.963425 c 0.761408,0.20381 2.047049,-0.469524 2.170342,-1.388572 0.106352,-0.792382 0.314351,-1.640954 0.750114,-2.444764 -0.997642,-2.168572 -2.477164,-3.299049 -3.796687,-3.797144 -1.400463,-0.528573 -2.927985,-0.355239 -4.477153,0.02571 l -1.197641,6.559053 c 0.150587,0.07428 0.316233,0.119047 0.485174,0.129523 0,0 0.959995,0.0076 2.095048,0.08762 1.132229,0.08381 2.829162,0.522858 3.970803,0.828572 z"
     id="path4" />
  <path
     style="fill:#8a61d9;stroke-width:0.94676"
     d="m 12.478567,24.917711 c 1.610815,-3.307621 1.579756,-5.848576 0.894113,-7.537148 -0.630585,-1.559049 -2.078578,-2.549526 -3.005161,-3.157812 -0.01835,0.08762 -0.04753,0.172857 -0.08235,0.256667 l -2.1690242,4.89067 c -0.222493,0.501905 -0.1194347,1.090476 0.2591987,1.484762 l 3.7281695,3.791432 c 0.110117,0.111428 0.235293,0.20381 0.375057,0.271429 z"
     id="path5" />
  <path
     id="path6"
     style="opacity:0.2;fill:#ffffff;stroke-width:0.946789"
     d="m 16.525391,6.0015368 c -0.297414,0.012191 -0.591018,0.1247868 -0.830079,0.34375 L 11.3125,9.9800525 c -0.229648,0.2081055 -0.379593,0.4896695 -0.423828,0.7988285 l -0.5,3.347656 c -0.0052,0.03333 -0.01953,0.0957 -0.01953,0.0957 -0.01835,0.08762 -0.04721,0.172046 -0.08203,0.255859 l -2.1699225,4.890626 c -0.1500693,0.338542 -0.1505019,0.715792 -0.019531,1.046875 0.00623,-0.01561 0.010729,-0.03142 0.017578,-0.04687 l 2.1699215,-4.890631 c 0.03482,-0.08381 0.06368,-0.168239 0.08203,-0.255859 0,0 0.01435,-0.06236 0.01953,-0.0957 l 0.5,-3.347656 c 0.04424,-0.309159 0.194181,-0.590723 0.423829,-0.798829 l 4.382812,-3.6347652 c 0.239061,-0.2189632 0.532666,-0.3315592 0.830079,-0.34375 0.382119,-0.01581 0.766119,0.133772 1.039062,0.4414063 l 3.775391,4.4101559 c 0.196706,0.251441 0.294975,0.562892 0.296875,0.882813 0.0038,0.840994 0.07471,2.562296 0.529296,3.671875 0.433116,1.041976 1.201875,2.151545 1.640626,2.744141 0.02047,-0.03414 0.09093,-0.145043 0.105468,-0.169922 0.139295,-0.238107 0.114939,-0.536801 -0.04883,-0.75586 -0.428233,-0.573366 -1.246367,-1.738305 -1.69531,-2.818359 -0.45459,-1.109579 -0.525532,-2.830881 -0.529297,-3.671875 -0.0019,-0.319921 -0.100167,-0.631372 -0.296875,-0.882813 L 17.564453,6.4429431 C 17.291511,6.1353088 16.90751,5.9857265 16.525391,6.0015368 Z" />
  <path
     d="M 8,2.0000001 C 4.6760033,2.0000001 2,4.6760035 2,8 V 9 C 2,5.6760035 4.6760033,3 8,3 h 16 c 3.323996,0 6,2.6760035 6,6 V 8 C 30,4.6760035 27.323996,2.0000001 24,2.0000001 Z"
     style="opacity:0.1;fill:#ffffff;stroke-width:2;stroke-linecap:square"
     id="path1040" />
</svg>
