<?xml version="1.0" encoding="UTF-8" standalone="no"?>
<!-- Created with Inkscape (http://www.inkscape.org/) -->

<svg
   width="32"
   height="32"
   viewBox="0 0 32 32"
   version="1.1"
   id="svg5"
   inkscape:version="1.3 (0e150ed6c4, 2023-07-21)"
   sodipodi:docname="openttd.svg"
   xmlns:inkscape="http://www.inkscape.org/namespaces/inkscape"
   xmlns:sodipodi="http://sodipodi.sourceforge.net/DTD/sodipodi-0.dtd"
   xmlns="http://www.w3.org/2000/svg"
   xmlns:svg="http://www.w3.org/2000/svg">
  <sodipodi:namedview
     id="namedview7"
     pagecolor="#ffffff"
     bordercolor="#000000"
     borderopacity="0.25"
     inkscape:showpageshadow="2"
     inkscape:pageopacity="0.0"
     inkscape:pagecheckerboard="0"
     inkscape:deskcolor="#d1d1d1"
     inkscape:document-units="px"
     showgrid="false"
     inkscape:zoom="24.46875"
     inkscape:cx="15.979566"
     inkscape:cy="16"
     inkscape:window-width="1920"
     inkscape:window-height="984"
     inkscape:window-x="0"
     inkscape:window-y="29"
     inkscape:window-maximized="1"
     inkscape:current-layer="svg5" />
  <defs
     id="defs2" />
  <rect
     style="opacity:0.2;fill:#000000;stroke-width:2;stroke-linecap:square"
     id="rect234"
     width="28"
     height="28"
     x="2"
     y="3"
     ry="6" />
  <rect
     style="fill:#fde5cd;fill-opacity:1;stroke-width:2;stroke-linecap:square"
     id="rect396"
     width="28"
     height="28"
     x="2"
     y="2"
     ry="6" />
  <path
     id="rect309"
     style="opacity:0.2;fill:#000000;stroke-width:2;stroke-linecap:square"
     d="m 16,7.0000002 c -0.199894,-10e-8 -0.399565,0.0773 -0.552734,0.2304687 L 6.2304687,16.447266 c -0.3063382,0.306338 -0.3063382,0.79913 0,1.105468 l 0.5527344,0.552735 -0.5996095,0.597656 c -0.240918,0.240918 -0.2409178,0.628223 -1e-7,0.86914 l 7.2402345,7.238282 c 0.240918,0.240918 0.628223,0.240918 0.869141,0 l 0.597656,-0.597656 0.556641,0.55664 c 0.306338,0.306338 0.79913,0.306338 1.105468,0 l 0.556641,-0.556641 0.605469,0.605469 c 0.240918,0.240918 0.630176,0.240919 0.871094,10e-7 l 7.238281,-7.238282 c 0.240918,-0.240918 0.240918,-0.628222 -1e-6,-0.869141 l -0.605468,-0.607422 0.550781,-0.550781 c 0.306338,-0.306338 0.306338,-0.79913 0,-1.105468 L 16.552734,7.2304689 C 16.399565,7.0772998 16.199894,7.0000001 16,7.0000002 Z" />
  <rect
     style="fill:#4bae4f;fill-opacity:1;stroke-width:2;stroke-linecap:square"
     id="rect391"
     width="11.467"
     height="11.467"
     x="16.891005"
     y="-2.7071464"
     ry="0.61500001"
     transform="rotate(45)" />
  <rect
     style="fill:#4bae4f;fill-opacity:1;stroke-width:2;stroke-linecap:square"
     id="rect393"
     width="11.467"
     height="11.467"
     x="19.931107"
     y="-5.7371678"
     ry="0.61500001"
     transform="rotate(45)" />
  <rect
     style="fill:#f58411;fill-opacity:1;stroke-width:2;stroke-linecap:square"
     id="rect930"
     width="14.599"
     height="14.599"
     x="15.327703"
     y="-7.2995"
     ry="0.78200001"
     transform="rotate(45)" />
  <path
     d="m 16.333332,20.666668 c 0.471326,-0.04306 0.726507,-0.23317 0.972597,-0.470106 0.250252,-0.23695 0.360737,-0.453963 0.360737,-0.863227 0,-0.370491 -0.108387,-0.791052 -0.35448,-1.049533 -0.246075,-0.25847 -0.503358,-0.483585 -0.978854,-0.617133 z m -0.666664,-7.333334 c -0.429617,0.03017 -0.825808,0.211652 -1.063556,0.439965 -0.237748,0.22402 -0.269779,0.514264 -0.269779,0.893368 0,0.344642 0.02162,0.642442 0.238495,0.870766 0.221065,0.22833 0.627682,0.320404 1.094837,0.462568 z M 13,20.666668 v -1.666665 h 0.666667 c 0.01668,0.590198 0.206518,0.843301 0.523515,1.144863 0.316997,0.301561 0.850832,0.508879 1.476486,0.521802 V 17.666669 C 14.707335,17.390955 13.971204,16.890155 13.5833,16.532587 13.195396,16.170712 13,15.692509 13,15.098 c 0,-0.689282 0.230849,-1.242848 0.689661,-1.660727 0.458811,-0.417881 1.159488,-0.71891 1.977007,-0.770604 V 11 h 0.666664 v 1.666669 c 0.421272,0.03448 0.722336,0.171801 1.110239,0.279487 0.392076,0.103375 0.851877,0.243532 1.223096,0.420175 V 15 H 18 c -0.05006,-0.499732 -0.312425,-0.834676 -0.600223,-1.123311 -0.287814,-0.288637 -0.574262,-0.504585 -1.066445,-0.543358 v 3.000002 c 1.026071,0.288638 1.639956,0.593437 2.048716,0.968235 C 18.794978,17.672057 19,18.042001 19,18.666667 c 0,0.715133 -0.240465,1.41573 -0.724312,1.846531 -0.483838,0.430805 -1.062271,0.755515 -1.942356,0.820135 V 23 H 15.666668 V 21.333333 C 15.26625,21.324833 14.788722,21.187391 14.359108,21.075396 13.929494,20.96771 13.467153,20.882075 13,20.666668 Z"
     id="path1871"
     style="opacity:0.2;fill:#000000;stroke-width:0.999998"
     sodipodi:nodetypes="ccscccccsccccccscccssccccccccccccsccccccc" />
  <path
     d="m 16.333332,19.666668 c 0.471326,-0.04306 0.726507,-0.23317 0.972597,-0.470106 0.250252,-0.23695 0.360737,-0.453963 0.360737,-0.863227 0,-0.370491 -0.108387,-0.791052 -0.35448,-1.049533 -0.246075,-0.25847 -0.503358,-0.483585 -0.978854,-0.617133 z m -0.666664,-7.333334 c -0.429617,0.03017 -0.825808,0.211652 -1.063556,0.439965 -0.237748,0.22402 -0.269779,0.514264 -0.269779,0.893368 0,0.344642 0.02162,0.642442 0.238495,0.870766 0.221065,0.22833 0.627682,0.320404 1.094837,0.462568 z M 13,19.666668 v -1.666665 h 0.666667 c 0.01668,0.590198 0.206518,0.843301 0.523515,1.144863 0.316997,0.301561 0.850832,0.508879 1.476486,0.521802 V 16.666669 C 14.707335,16.390955 13.971204,15.890155 13.5833,15.532587 13.195396,15.170712 13,14.692509 13,14.098 c 0,-0.689282 0.230849,-1.242848 0.689661,-1.660727 0.458811,-0.417881 1.159488,-0.71891 1.977007,-0.770604 V 10 h 0.666664 v 1.666669 c 0.421272,0.03448 0.722336,0.171801 1.110239,0.279487 0.392076,0.103375 0.851877,0.243532 1.223096,0.420175 V 14 H 18 c -0.05006,-0.499732 -0.312425,-0.834676 -0.600223,-1.123311 -0.287814,-0.288637 -0.574262,-0.504585 -1.066445,-0.543358 v 3.000002 c 1.026071,0.288638 1.639956,0.593437 2.048716,0.968235 C 18.794978,16.672057 19,17.042001 19,17.666667 c 0,0.715133 -0.240465,1.41573 -0.724312,1.846531 -0.483838,0.430805 -1.062271,0.755515 -1.942356,0.820135 V 22 H 15.666668 V 20.333333 C 15.26625,20.324833 14.788722,20.187391 14.359108,20.075396 13.929494,19.96771 13.467153,19.882075 13,19.666668 Z"
     style="fill:#ffffff;stroke-width:0.999998"
     id="path1899" />
  <path
     id="rect1260"
     style="opacity:0.2;fill:#ffffff;fill-opacity:1;stroke-width:2;stroke-linecap:square"
     d="m 16,6.0000002 c -0.199894,0 -0.399565,0.0773 -0.552734,0.2304688 L 6.2304687,15.447266 C 5.9404563,15.737278 5.9283989,16.192133 6.1875,16.5 6.202086,16.48267 6.214139,16.46359 6.230465,16.44726 l 9.216797,-9.2167943 c 0.306338,-0.3063382 0.799131,-0.3063381 1.105469,0 l 9.216801,9.2168003 c 0.01633,0.01633 0.02838,0.0354 0.04296,0.05274 0.259103,-0.307865 0.247044,-0.762722 -0.04297,-1.052734 L 16.55273,6.2304709 C 16.39956,6.0773018 16.199889,6.0000022 15.999995,6.0000021 Z" />
  <path
     d="M 8,2.0000001 C 4.6760033,2.0000001 2,4.6760035 2,8 V 9 C 2,5.6760035 4.6760033,3 8,3 h 16 c 3.323996,0 6,2.6760035 6,6 V 8 C 30,4.6760035 27.323996,2.0000001 24,2.0000001 Z"
     style="opacity:0.2;fill:#ffffff;stroke-width:2;stroke-linecap:square"
     id="path1040"
     sodipodi:nodetypes="sscsscsss" />
</svg>
