<?xml version="1.0" encoding="UTF-8" standalone="no"?>
<!-- Created with Inkscape (http://www.inkscape.org/) -->

<svg
   width="32"
   height="32"
   viewBox="0 0 32 32"
   version="1.1"
   id="svg5"
   inkscape:version="1.3 (0e150ed6c4, 2023-07-21)"
   sodipodi:docname="org.gnome.font-viewer.svg"
   xmlns:inkscape="http://www.inkscape.org/namespaces/inkscape"
   xmlns:sodipodi="http://sodipodi.sourceforge.net/DTD/sodipodi-0.dtd"
   xmlns="http://www.w3.org/2000/svg"
   xmlns:svg="http://www.w3.org/2000/svg">
  <sodipodi:namedview
     id="namedview7"
     pagecolor="#ffffff"
     bordercolor="#000000"
     borderopacity="0.25"
     inkscape:showpageshadow="2"
     inkscape:pageopacity="0.0"
     inkscape:pagecheckerboard="0"
     inkscape:deskcolor="#d1d1d1"
     inkscape:document-units="px"
     showgrid="false"
     inkscape:zoom="24.46875"
     inkscape:cx="15.979566"
     inkscape:cy="16"
     inkscape:window-width="1920"
     inkscape:window-height="984"
     inkscape:window-x="0"
     inkscape:window-y="29"
     inkscape:window-maximized="1"
     inkscape:current-layer="svg5" />
  <defs
     id="defs2" />
  <rect
     style="opacity:0.2;fill:#000000;stroke-width:2;stroke-linecap:square"
     id="rect234"
     width="28"
     height="28"
     x="2"
     y="3"
     ry="6" />
  <rect
     style="fill:#a448ba;fill-opacity:1;stroke-width:2;stroke-linecap:square"
     id="rect396"
     width="28"
     height="28"
     x="2"
     y="2"
     ry="6" />
  <path
     id="path907"
     style="opacity:0.3;fill:#000000"
     d="M 8,30 C 4.676003,30 2,27.323997 2,24 V 8 C 2,4.6760033 4.676003,2 8,2 Z"
     sodipodi:nodetypes="csscc" />
  <path
     id="path2"
     style="font-weight:bold;font-size:322.102px;line-height:1.25;font-family:Montserrat;letter-spacing:0px;word-spacing:0px;opacity:0.2;fill:#000000;stroke-width:0.0386457"
     d="m 13.624775,8 c -1.385096,0 -2.474609,0.7296708 -2.474609,1.667969 0,0.342552 0.27917,0.640625 0.632812,0.640625 0.353641,0 0.664063,-0.297339 0.664063,-0.625 0,-0.05957 -0.01458,-0.134027 -0.0293,-0.238281 -0.02947,-0.134042 -0.04492,-0.253166 -0.04492,-0.357422 0,-0.4021285 0.471142,-0.7304691 1.060547,-0.7304691 0.722015,0 1.238281,0.4320719 1.238281,1.2363281 v 1.183594 c -2.029398,0.605437 -2.637878,0.768027 -3.271484,1.333984 -0.324179,0.297869 -0.53125,0.803433 -0.53125,1.294922 0,0.938297 0.649991,1.59375 1.548828,1.59375 0.648343,0 1.370693,-0.313422 2.269531,-1.087891 C 14.760951,14.70147 15.161262,15 15.7654,15 c 0.500991,0 0.810446,-0.178183 1.326172,-0.744141 v -0.388671 c -0.250495,0.208508 -0.427411,0.283203 -0.648438,0.283203 -0.338906,0 -0.441406,-0.207963 -0.441406,-0.863282 v -2.904297 c 0,-0.774468 -0.0739,-1.207006 -0.294922,-1.5644526 C 15.382637,8.2821895 14.494142,8 13.624775,8 Z m 9.878906,0 c -1.090917,0 -2.19494,0.2818891 -2.943359,0.7949219 L 21.271259,10.125 c 0.494718,-0.378668 1.243748,-0.609375 1.966797,-0.609375 1.065546,0 1.66211,0.779249 1.66211,1.597656 l -1.970703,-0.0098 c -2.080328,-0.0094 -2.929688,0.777101 -2.929688,1.937535 0,1.135999 0.868477,1.958984 2.466797,1.958984 1.00212,0 2.065727,-0.286227 2.433594,-0.884766 v 0.810547 h 2.099609 V 10.980469 C 26.999657,8.9894161 25.584033,8 23.503681,8 Z m -8.832031,3.134766 v 1.884765 c 0,0.44681 -0.07337,0.610343 -0.382813,0.789063 -0.368377,0.208514 -0.883923,0.328125 -1.193359,0.328125 -0.515729,0 -0.929687,-0.506057 -0.929687,-1.146485 v -0.06055 c 0.01475,-0.893618 0.781857,-1.184286 2.505859,-1.794922 z m 8.308594,1.183593 c 0.053,-0.0013 0.108141,-3.57e-4 0.166015,0 l 1.753907,0.0078 v 0.378906 C 24.900284,13.342722 23.704321,13.75 23.044697,13.75 c -0.697678,0 -1.117188,-0.318533 -1.117188,-0.794922 0,-0.412255 0.2577,-0.617441 1.052735,-0.636719 z M 11.681416,18 c -0.801169,-0.01113 -0.801169,1.175194 0,1.164062 h 2.925781 c 0.0033,2.91e-4 0.08487,0.0087 0.173828,0.05664 0.09073,0.04886 0.144986,0.05484 0.160156,0.273438 l 0.07227,1.740234 c -0.136461,-0.05135 -0.228516,-0.07422 -0.228516,-0.07422 l -0.07031,-0.01563 h -2.738282 c -1.283617,0 -1.746093,1.269532 -1.746093,1.269531 l -0.03125,0.08984 v 0.44336 c 0,0.882787 0.424346,1.493254 0.871093,1.767578 0.446748,0.274323 0.90625,0.269531 0.90625,0.269531 h 2.25 l 1.003907,-0.640625 0.0059,0.09375 c 0.02657,0.796065 1.252021,0.725291 1.183594,-0.06836 l -0.296875,-4.951172 v -0.002 C 16.081159,18.814885 15.69076,18.383879 15.351384,18.201113 15.01201,18.018349 14.681463,18.001894 14.681463,18.001894 L 14.661884,18 Z m 12.136718,0 c -0.224796,0.0047 -0.499173,0.09126 -0.820312,0.259766 -0.367014,0.192572 -0.737735,0.482043 -1.115235,0.867187 -0.3775,0.374446 -0.729616,0.828361 -1.054687,1.363281 -0.314584,0.534923 -0.5446,1.128647 -0.691406,1.78125 -0.115346,0.48143 -0.158411,0.898904 -0.126953,1.251954 0.03146,0.342348 0.10535,0.626896 0.220703,0.851562 0.115348,0.213972 0.256049,0.36856 0.423828,0.464844 C 20.82185,24.946833 20.979922,25 21.126728,25 c 0.314584,-0.0214 0.628775,-0.09129 0.943359,-0.208984 0.272639,-0.106978 0.561137,-0.273379 0.865235,-0.498047 0.304098,-0.235368 0.582319,-0.566201 0.833984,-0.994141 -0.01044,0.288858 0.005,0.530087 0.04687,0.722656 0.05243,0.192572 0.105779,0.347153 0.158203,0.464844 0.06291,0.13908 0.140002,0.245421 0.234375,0.320313 0.09438,0.0642 0.206198,0.107513 0.332032,0.128906 0.125832,0.03209 0.256257,0.04391 0.392578,0.0332 0.146803,-0.01067 0.28751,-0.03924 0.423828,-0.08203 0.136321,-0.04279 0.258421,-0.09596 0.363281,-0.160157 0.157294,-0.106977 0.351336,-0.28816 0.582031,-0.544921 0.241181,-0.267459 0.481472,-0.556929 0.722657,-0.867188 0.251665,-0.320953 0.491962,-0.635059 0.722656,-0.945312 0.230693,-0.320952 0.4196,-0.588768 0.566406,-0.802735 0.125841,-0.171175 0.199734,-0.320834 0.220703,-0.449218 0.03145,-0.128378 0.0263,-0.224873 -0.01563,-0.289063 -0.04194,-0.06418 -0.105565,-0.08584 -0.189453,-0.06445 -0.08389,0.01067 -0.166108,0.06388 -0.25,0.160156 -0.06291,0.08559 -0.1696,0.21852 -0.316406,0.400391 -0.136322,0.181877 -0.292439,0.391586 -0.470703,0.626953 -0.178265,0.235364 -0.372308,0.481518 -0.582031,0.738281 -0.199236,0.246061 -0.393285,0.475487 -0.582032,0.689453 -0.188751,0.203272 -0.367376,0.374595 -0.535156,0.513672 -0.167775,0.128383 -0.303341,0.193359 -0.408203,0.19336 -0.125834,0 -0.225426,-0.02658 -0.298828,-0.08008 -0.06291,-0.06419 -0.111114,-0.145899 -0.142578,-0.242187 -0.03146,-0.09629 -0.05202,-0.197706 -0.0625,-0.304688 0,-0.117686 0.0052,-0.224025 0.01563,-0.320312 0.03146,-0.160475 0.05717,-0.295357 0.07813,-0.402344 0.02099,-0.106978 0.03835,-0.196597 0.04883,-0.271484 0.02099,-0.08559 0.03638,-0.165345 0.04687,-0.240235 0.02095,-0.08559 0.04153,-0.177153 0.0625,-0.273437 0.104856,-0.49213 0.189036,-0.892869 0.251953,-1.203125 0.06291,-0.310254 0.109164,-0.556408 0.140625,-0.738281 0.03146,-0.181871 0.04687,-0.304951 0.04687,-0.369141 0,-0.0749 -0.0052,-0.123141 -0.01563,-0.144531 -0.02099,-0.01067 -0.06208,-0.01563 -0.125,-0.01563 -0.05243,0 -0.131463,0.0049 -0.236328,0.01563 -0.09438,0.01067 -0.214522,0.03235 -0.361328,0.06445 0.220211,-0.342352 0.304383,-0.615088 0.251953,-0.818359 -0.04194,-0.213968 -0.136397,-0.375438 -0.283203,-0.482422 -0.178264,-0.11768 -0.410235,-0.202369 -0.69336,-0.25586 -0.03015,-0.0027 -0.05968,-0.0046 -0.0918,-0.0039 z m -0.277343,1.007812 c 0.03998,0.0022 0.07273,0.01501 0.101562,0.03906 0.03145,0.0428 0.05396,0.10089 0.06445,0.175781 0.01044,0.06419 0.0054,0.155753 -0.01563,0.273438 -0.01045,0.106978 -0.05869,0.244838 -0.142578,0.416015 0.08389,-0.02138 0.168064,-0.03618 0.251953,-0.04687 0.08389,-0.01067 0.152647,-0.02742 0.205078,-0.04883 0.06291,-0.02138 0.119444,-0.03811 0.171875,-0.04883 0.04194,-0.01067 0.04708,0.07594 0.01563,0.257813 -0.02097,0.171176 -0.05696,0.390741 -0.109375,0.658203 -0.05243,0.267464 -0.11605,0.54513 -0.189453,0.833984 -0.07341,0.288859 -0.13507,0.539936 -0.1875,0.753906 -0.01044,0.05349 -0.0587,0.140127 -0.142578,0.257813 -0.07341,0.117683 -0.172993,0.245687 -0.298828,0.384765 -0.115346,0.13908 -0.250909,0.272011 -0.408203,0.400391 -0.146805,0.128382 -0.299741,0.23668 -0.457031,0.322266 -0.146806,0.07489 -0.292649,0.116244 -0.439453,0.126953 -0.146806,0 -0.279185,-0.05811 -0.394532,-0.175781 -0.06291,-0.0642 -0.104021,-0.197119 -0.125,-0.400391 -0.02097,-0.213969 -0.01583,-0.460127 0.01563,-0.738281 0.04194,-0.278162 0.110698,-0.57256 0.205078,-0.882813 0.09438,-0.320952 0.219661,-0.620281 0.376953,-0.898437 0.3775,-0.674007 0.707111,-1.134794 0.990235,-1.38086 0.220209,-0.192569 0.391785,-0.285311 0.511719,-0.279297 z m -11.564454,3.300782 h 2.560547 c 0.03167,0.0091 0.156975,0.0394 0.308594,0.138672 0.165443,0.108325 0.258724,0.200691 0.263672,0.394531 l 0.04102,0.164062 -1.275391,0.814453 h -1.898438 c 0,0 -0.131651,-0.0043 -0.277343,-0.09375 -0.145691,-0.08946 -0.314453,-0.206938 -0.314453,-0.779296 v -0.222657 c 0.03046,-0.08876 0.157763,-0.416015 0.591796,-0.416015 z" />
  <path
     id="path6"
     style="font-weight:bold;font-size:322.102px;line-height:1.25;font-family:Montserrat;letter-spacing:0px;word-spacing:0px;fill:#ffffff;stroke-width:0.0386457"
     d="m 13.625775,7 c -1.385096,0 -2.474609,0.7296708 -2.474609,1.6679688 0,0.3425532 0.27917,0.6406252 0.632812,0.6406252 0.353641,0 0.664063,-0.297339 0.664063,-0.6250002 0,-0.059573 -0.01458,-0.1340272 -0.0293,-0.2382813 -0.02947,-0.1340418 -0.04492,-0.2531651 -0.04492,-0.3574219 0,-0.4021281 0.471142,-0.7304687 1.060547,-0.7304687 0.722015,0 1.238281,0.4320719 1.238281,1.2363281 v 1.183594 c -2.029398,0.605437 -2.637878,0.768027 -3.271484,1.333984 -0.324179,0.297869 -0.53125,0.803433 -0.53125,1.294922 0,0.938297 0.649991,1.59375 1.548828,1.59375 0.648343,0 1.370693,-0.313422 2.269531,-1.087891 C 14.761951,13.70147 15.162262,14 15.7664,14 c 0.500991,0 0.810446,-0.178183 1.326172,-0.744141 v -0.388671 c -0.250495,0.208508 -0.427411,0.283203 -0.648438,0.283203 -0.338906,0 -0.441406,-0.207963 -0.441406,-0.863282 V 9.382813 c 0,-0.7744689 -0.0739,-1.2070071 -0.294922,-1.5644536 C 15.383637,7.2821895 14.495142,7 13.625775,7 Z m 9.878906,0 c -1.090917,0 -2.19494,0.2818891 -2.943359,0.7949219 L 21.272259,9.125 c 0.494718,-0.378668 1.243748,-0.609375 1.966797,-0.609375 1.065546,0 1.66211,0.77925 1.66211,1.597656 l -1.970703,-0.0098 c -2.080328,-0.0094 -2.929688,0.777101 -2.929688,1.937535 0,1.135999 0.868477,1.958984 2.466797,1.958984 1.00212,0 2.065727,-0.286227 2.433594,-0.884766 v 0.810547 h 2.099609 V 9.980469 C 27.000657,7.9894162 25.585033,7 23.504681,7 Z m -8.832031,3.134766 v 1.884765 c 0,0.44681 -0.07337,0.610343 -0.382813,0.789063 -0.368377,0.208514 -0.883923,0.328125 -1.193359,0.328125 -0.515729,0 -0.929687,-0.506057 -0.929687,-1.146485 v -0.06055 c 0.01475,-0.893618 0.781857,-1.184286 2.505859,-1.794922 z m 8.308594,1.183593 c 0.053,-0.0013 0.108141,-3.57e-4 0.166015,0 l 1.753907,0.0078 v 0.378906 C 24.901284,12.342722 23.705321,12.75 23.045697,12.75 c -0.697678,0 -1.117188,-0.318533 -1.117188,-0.794922 0,-0.412255 0.2577,-0.617441 1.052735,-0.636719 z M 11.682416,17 c -0.801169,-0.01113 -0.801169,1.175194 0,1.164062 h 2.925781 c 0.0033,2.91e-4 0.08487,0.0087 0.173828,0.05664 0.09073,0.04886 0.144986,0.05484 0.160156,0.273438 l 0.07227,1.740234 c -0.136461,-0.05135 -0.228516,-0.07422 -0.228516,-0.07422 l -0.07031,-0.01563 h -2.738282 c -1.283617,0 -1.746093,1.269532 -1.746093,1.269531 L 10.2,21.503895 v 0.44336 c 0,0.882787 0.424346,1.493254 0.871093,1.767578 0.446748,0.274323 0.90625,0.269531 0.90625,0.269531 h 2.25 l 1.003907,-0.640625 0.0059,0.09375 c 0.02657,0.796065 1.252021,0.725291 1.183594,-0.06836 l -0.296875,-4.951172 v -0.002 C 16.082159,17.814885 15.69176,17.383879 15.352384,17.201113 15.01301,17.018349 14.682463,17.001894 14.682463,17.001894 L 14.662884,17 Z m 12.136718,0 c -0.224796,0.0047 -0.499173,0.09126 -0.820312,0.259766 -0.367014,0.192572 -0.737735,0.482043 -1.115235,0.867187 -0.3775,0.374446 -0.729616,0.828361 -1.054687,1.363281 -0.314584,0.534923 -0.5446,1.128647 -0.691406,1.78125 -0.115346,0.48143 -0.158411,0.898904 -0.126953,1.251954 0.03146,0.342348 0.10535,0.626896 0.220703,0.851562 0.115348,0.213972 0.256049,0.36856 0.423828,0.464844 C 20.82285,23.946833 20.980922,24 21.127728,24 c 0.314584,-0.0214 0.628775,-0.09129 0.943359,-0.208984 0.272639,-0.106978 0.561137,-0.273379 0.865235,-0.498047 0.304098,-0.235368 0.582319,-0.566201 0.833984,-0.994141 -0.01044,0.288858 0.005,0.530087 0.04687,0.722656 0.05243,0.192572 0.105779,0.347153 0.158203,0.464844 0.06291,0.13908 0.140002,0.245421 0.234375,0.320313 0.09438,0.0642 0.206198,0.107513 0.332032,0.128906 0.125832,0.03209 0.256257,0.04391 0.392578,0.0332 0.146803,-0.01067 0.28751,-0.03924 0.423828,-0.08203 0.136321,-0.04279 0.258421,-0.09596 0.363281,-0.160157 0.157294,-0.106977 0.351336,-0.28816 0.582031,-0.544921 0.241181,-0.267459 0.481472,-0.556929 0.722657,-0.867188 0.251665,-0.320953 0.491962,-0.635059 0.722656,-0.945312 0.230693,-0.320952 0.4196,-0.588768 0.566406,-0.802735 0.125841,-0.171175 0.199734,-0.320834 0.220703,-0.449218 0.03145,-0.128378 0.0263,-0.224873 -0.01563,-0.289063 -0.04194,-0.06418 -0.105565,-0.08584 -0.189453,-0.06445 -0.08389,0.01067 -0.166108,0.06388 -0.25,0.160156 -0.06291,0.08559 -0.1696,0.21852 -0.316406,0.400391 -0.136322,0.181877 -0.292439,0.391586 -0.470703,0.626953 -0.178265,0.235364 -0.372308,0.481518 -0.582031,0.738281 -0.199236,0.246061 -0.393285,0.475487 -0.582032,0.689453 -0.188751,0.203272 -0.367376,0.374595 -0.535156,0.513672 -0.167775,0.128383 -0.303341,0.193359 -0.408203,0.19336 -0.125834,0 -0.225426,-0.02658 -0.298828,-0.08008 -0.06291,-0.06419 -0.111114,-0.145899 -0.142578,-0.242187 -0.03146,-0.09629 -0.05202,-0.197706 -0.0625,-0.304688 0,-0.117686 0.0052,-0.224025 0.01563,-0.320312 0.03146,-0.160475 0.05717,-0.295357 0.07813,-0.402344 0.02099,-0.106978 0.03835,-0.196597 0.04883,-0.271484 0.02099,-0.08559 0.03638,-0.165345 0.04687,-0.240235 0.02095,-0.08559 0.04153,-0.177153 0.0625,-0.273437 0.104856,-0.49213 0.189036,-0.892869 0.251953,-1.203125 0.06291,-0.310254 0.109164,-0.556408 0.140625,-0.738281 0.03146,-0.181871 0.04687,-0.304951 0.04687,-0.369141 0,-0.0749 -0.0052,-0.123141 -0.01563,-0.144531 -0.02099,-0.01067 -0.06208,-0.01563 -0.125,-0.01563 -0.05243,0 -0.131463,0.0049 -0.236328,0.01563 -0.09438,0.01067 -0.214522,0.03235 -0.361328,0.06445 0.220211,-0.342352 0.304383,-0.615088 0.251953,-0.818359 -0.04194,-0.213968 -0.136397,-0.375438 -0.283203,-0.482422 -0.178264,-0.11768 -0.410235,-0.202369 -0.69336,-0.25586 -0.03015,-0.0027 -0.05968,-0.0046 -0.0918,-0.0039 z m -0.277343,1.007812 c 0.03998,0.0022 0.07273,0.01501 0.101562,0.03906 0.03145,0.0428 0.05396,0.10089 0.06445,0.175781 0.01044,0.06419 0.0054,0.155753 -0.01563,0.273438 -0.01045,0.106978 -0.05869,0.244838 -0.142578,0.416015 0.08389,-0.02138 0.168064,-0.03618 0.251953,-0.04687 0.08389,-0.01067 0.152647,-0.02742 0.205078,-0.04883 0.06291,-0.02138 0.119444,-0.03811 0.171875,-0.04883 0.04194,-0.01067 0.04708,0.07594 0.01563,0.257813 -0.02097,0.171176 -0.05696,0.390741 -0.109375,0.658203 -0.05243,0.267464 -0.11605,0.54513 -0.189453,0.833984 -0.07341,0.288859 -0.13507,0.539936 -0.1875,0.753906 -0.01044,0.05349 -0.0587,0.140127 -0.142578,0.257813 -0.07341,0.117683 -0.172993,0.245687 -0.298828,0.384765 -0.115346,0.13908 -0.250909,0.272011 -0.408203,0.400391 -0.146805,0.128382 -0.299741,0.23668 -0.457031,0.322266 -0.146806,0.07489 -0.292649,0.116244 -0.439453,0.126953 -0.146806,0 -0.279185,-0.05811 -0.394532,-0.175781 -0.06291,-0.0642 -0.104021,-0.197119 -0.125,-0.400391 -0.02097,-0.213969 -0.01583,-0.460127 0.01563,-0.738281 0.04194,-0.278162 0.110698,-0.57256 0.205078,-0.882813 0.09438,-0.320952 0.219661,-0.620281 0.376953,-0.898437 0.3775,-0.674007 0.707111,-1.134794 0.990235,-1.38086 0.220209,-0.192569 0.391785,-0.285311 0.511719,-0.279297 z m -11.564454,3.300782 h 2.560547 c 0.03167,0.0091 0.156975,0.0394 0.308594,0.138672 0.165443,0.108325 0.258724,0.200691 0.263672,0.394531 l 0.04102,0.164062 -1.275391,0.814453 h -1.898438 c 0,0 -0.131651,-0.0043 -0.277343,-0.09375 -0.145691,-0.08946 -0.314453,-0.206938 -0.314453,-0.779296 v -0.222657 c 0.03046,-0.08876 0.157763,-0.416015 0.591796,-0.416015 z" />
  <path
     d="M 8,2.0000001 C 4.6760033,2.0000001 2,4.6760035 2,8 V 9 C 2,5.6760035 4.6760033,3 8,3 h 16 c 3.323996,0 6,2.6760035 6,6 V 8 C 30,4.6760035 27.323996,2.0000001 24,2.0000001 Z"
     style="opacity:0.1;fill:#ffffff;stroke-width:2;stroke-linecap:square"
     id="path1040"
     sodipodi:nodetypes="sscsscsss" />
</svg>
