<?xml version="1.0" encoding="UTF-8" standalone="no"?>
<!-- Created with Inkscape (http://www.inkscape.org/) -->

<svg
   width="32"
   height="32"
   viewBox="0 0 32 32"
   version="1.1"
   id="svg5"
   inkscape:version="1.3 (0e150ed6c4, 2023-07-21)"
   sodipodi:docname="org.gnome.Tour.svg"
   xmlns:inkscape="http://www.inkscape.org/namespaces/inkscape"
   xmlns:sodipodi="http://sodipodi.sourceforge.net/DTD/sodipodi-0.dtd"
   xmlns="http://www.w3.org/2000/svg"
   xmlns:svg="http://www.w3.org/2000/svg">
  <sodipodi:namedview
     id="namedview7"
     pagecolor="#ffffff"
     bordercolor="#000000"
     borderopacity="0.25"
     inkscape:showpageshadow="2"
     inkscape:pageopacity="0.0"
     inkscape:pagecheckerboard="0"
     inkscape:deskcolor="#d1d1d1"
     inkscape:document-units="px"
     showgrid="false"
     inkscape:zoom="24.46875"
     inkscape:cx="15.979566"
     inkscape:cy="16"
     inkscape:window-width="1920"
     inkscape:window-height="984"
     inkscape:window-x="0"
     inkscape:window-y="29"
     inkscape:window-maximized="1"
     inkscape:current-layer="svg5" />
  <defs
     id="defs2" />
  <rect
     style="opacity:0.2;fill:#000000;stroke-width:2;stroke-linecap:square"
     id="rect234"
     width="28"
     height="28"
     x="2"
     y="3"
     ry="6" />
  <rect
     style="fill:#4d4d4d;fill-opacity:1;stroke-width:2;stroke-linecap:square"
     id="rect396"
     width="28"
     height="28"
     x="2"
     y="2"
     ry="6" />
  <path
     style="opacity:0.2;fill:#000000"
     d="m 18.9999,24.000043 v 2.122784 a 0.87487422,0.87530133 0 0 1 -0.876749,0.877177 h -4.246496 a 0.87487422,0.87530133 0 0 1 -0.87675,-0.877177 v -2.122784 z m 0,0"
     id="path1" />
  <path
     style="opacity:0.2;fill:#000000"
     d="M 15.992053,7.000501 C 13.941843,7.0155003 11.86359,7.679482 10.32083,9.0362776 9.54887,9.7139253 8.918789,10.558402 8.5123978,11.503709 c -0.4058933,0.945806 -0.5847784,1.992778 -0.4855453,3.017416 0.1153294,1.1933 0.5963944,2.323436 1.1959415,3.359906 a 15.051408,15.116745 0 0 0 2.389228,3.116579 l 1.126744,2.002446 h 6.299146 l 1.434566,-2.166607 a 18.945063,19.027303 0 0 0 2.177984,-2.94125 c 0.624936,-1.040472 1.157775,-2.16544 1.306791,-3.371074 0.127111,-1.027972 -0.03435,-2.086608 -0.433606,-3.042249 C 23.124889,10.523236 22.491656,9.6709268 21.713721,8.9906122 20.158018,7.6293167 18.055371,6.9856681 15.992053,7.000501 Z m 0,0"
     id="path2" />
  <path
     style="color:#000000;fill:#989898;-inkscape-stroke:none"
     d="m 17.587891,19.965094 -0.830078,3.666015 0.324218,0.07422 0.830078,-3.667969 z"
     id="path3" />
  <path
     style="fill:#d03141"
     d="m 15.992053,6.0007515 c -2.05021,0.015 -4.128463,0.678981 -5.671223,2.0357766 -0.77196,0.6776477 -1.402041,1.5221244 -1.8084322,2.4674309 -0.4058933,0.945807 -0.5847784,1.992778 -0.4855453,3.017417 0.1153294,1.1933 0.5963944,2.323434 1.1959415,3.359906 a 15.051408,15.116745 0 0 0 2.389228,3.116579 l 1.126744,2.002444 h 6.299146 L 20.472478,19.8337 a 18.945063,19.027303 0 0 0 2.177984,-2.941251 c 0.624936,-1.040473 1.157775,-2.16544 1.306791,-3.371073 0.127111,-1.027972 -0.03435,-2.086609 -0.433606,-3.042249 C 23.124889,9.5234869 22.491656,8.6711771 21.713721,7.9908627 20.158018,6.6295673 18.055371,5.9859186 15.992053,6.0007515 Z m 0,0"
     id="path4" />
  <path
     style="fill:#ffffff"
     d="m 16.201471,6.0034179 c -2.85735,0.4327852 -5.664458,1.3831794 -6.878487,4.7044761 -1.0958789,4.116877 0.707448,6.102156 2.867345,9.291301 l 0.970925,2.00111 h 1.31459 c -0.817263,-2.418398 -2.935387,-6.610597 -2.935387,-8.71653 0,-6.1756467 4.627327,-7.2588596 4.661014,-7.2803571 z m 6.5e-4,0 c 0.01162,0.031163 1.41233,2.8726805 1.411666,7.2803571 0,2.325908 -0.32342,6.340461 -0.638378,8.71653 h 1.671697 C 20.665042,18.3647 22.134016,14.898172 21.999829,12.071968 21.900399,9.9778149 20.875344,8.2352292 18.779136,7.0359295 18.061944,6.6256033 17.207575,6.0034179 16.202134,6.0034179 Z"
     id="path5" />
  <path
     style="color:#000000;fill:#989898;-inkscape-stroke:none"
     d="m 14.162109,19.633063 -0.324218,0.07031 0.830078,3.833984 0.324219,-0.07031 z"
     id="path6" />
  <path
     style="color:#000000;fill:#989898;-inkscape-stroke:none"
     d="m 11.837891,19.664313 -0.300782,0.140625 1.759766,3.767578 0.300781,-0.140625 z"
     id="path7" />
  <path
     style="fill:#989898"
     d="m 11.499957,19.500336 v 0.249996 c 0,0 0,0.249997 0.300693,0.249997 h 8.398665 c 0.300532,0 0.300532,-0.249997 0.300532,-0.249997 v -0.249996 z m 0,0"
     id="path8" />
  <path
     style="color:#000000;fill:#989898;-inkscape-stroke:none"
     d="M 20.123047,19.765875 18.449219,23.431891 18.75,23.570562 20.425781,19.904547 Z"
     id="path9" />
  <path
     style="fill:#ff7800"
     d="m 18.9999,23.000294 v 2.122783 a 0.87487422,0.87530133 0 0 1 -0.876749,0.877177 h -4.246496 a 0.87487422,0.87530133 0 0 1 -0.87675,-0.877177 v -2.122783 z m 0,0"
     id="path10" />
  <path
     id="path11"
     style="opacity:0.1;fill:#ffffff"
     d="m 15.992188,6.0002505 c -2.050208,0.015 -4.129117,0.6803151 -5.671875,2.0371094 -0.77196,0.677647 -1.4022035,1.5214908 -1.8085942,2.4667971 -0.3976534,0.926605 -0.5744582,1.950402 -0.4882813,2.955078 0.056598,-0.672076 0.2222388,-1.33515 0.4882813,-1.955078 0.4063907,-0.945306 1.0366342,-1.7911032 1.8085942,-2.4687503 1.542758,-1.3567942 3.621667,-2.0201562 5.671875,-2.0351562 2.063315,-0.014833 4.165001,0.6289403 5.720703,1.9902344 0.777934,0.6803137 1.411789,1.5326421 1.810547,2.4882811 0.244001,0.584031 0.398343,1.207432 0.453124,1.837891 0.08316,-0.963051 -0.08035,-1.945624 -0.453124,-2.837891 C 23.12468,9.5231272 22.490825,8.6707986 21.712891,7.9904849 20.157189,6.6291908 18.055503,5.9854176 15.992188,6.0002505 Z" />
  <rect
     style="opacity:0.2;fill:#ffffff"
     width="6"
     height="1"
     x="13"
     y="23.00025"
     id="rect11" />
  <path
     d="M 8,2.0000001 C 4.6760033,2.0000001 2,4.6760035 2,8 V 9 C 2,5.6760035 4.6760033,3 8,3 h 16 c 3.323996,0 6,2.6760035 6,6 V 8 C 30,4.6760035 27.323996,2.0000001 24,2.0000001 Z"
     style="opacity:0.1;fill:#ffffff;stroke-width:2;stroke-linecap:square"
     id="path1040" />
</svg>
