<?xml version="1.0" encoding="UTF-8" standalone="no"?>
<!-- Created with Inkscape (http://www.inkscape.org/) -->

<svg
   width="32"
   height="32"
   viewBox="0 0 32 32"
   version="1.1"
   id="svg5"
   inkscape:version="1.3 (0e150ed6c4, 2023-07-21)"
   sodipodi:docname="org.gnome.Connections.svg"
   xmlns:inkscape="http://www.inkscape.org/namespaces/inkscape"
   xmlns:sodipodi="http://sodipodi.sourceforge.net/DTD/sodipodi-0.dtd"
   xmlns="http://www.w3.org/2000/svg"
   xmlns:svg="http://www.w3.org/2000/svg">
  <sodipodi:namedview
     id="namedview7"
     pagecolor="#ffffff"
     bordercolor="#000000"
     borderopacity="0.25"
     inkscape:showpageshadow="2"
     inkscape:pageopacity="0.0"
     inkscape:pagecheckerboard="0"
     inkscape:deskcolor="#d1d1d1"
     inkscape:document-units="px"
     showgrid="false"
     inkscape:zoom="25"
     inkscape:cx="16"
     inkscape:cy="16"
     inkscape:window-width="1920"
     inkscape:window-height="1004"
     inkscape:window-x="0"
     inkscape:window-y="0"
     inkscape:window-maximized="1"
     inkscape:current-layer="svg5" />
  <defs
     id="defs2" />
  <rect
     style="opacity:0.2;fill:#000000;stroke-width:2;stroke-linecap:square"
     id="rect234"
     width="28"
     height="28"
     x="2"
     y="3"
     ry="6" />
  <rect
     style="fill:#1c64d8;fill-opacity:1;stroke-width:2;stroke-linecap:square"
     id="rect396"
     width="28"
     height="28"
     x="2"
     y="2"
     ry="6" />
  <path
     id="path1"
     style="fill:#000000;fill-opacity:1;opacity:0.2"
     d="M 9,6 C 8.0714425,6 6.9648437,7.0507662 6.9648438,8 H 5.4609375 5.2949219 3.5390625 C 3.2405649,8 3,8.2230006 3,8.5 3,8.7769994 3.2405649,9 3.5390625,9 H 4.5449219 5 v 1 H 3 c -0.8129115,0.002 -1,0.469203 -1,1 v 14 c 0,2.354707 1.3457159,4.377922 3.3105469,5.361328 1.3136126,-0.658177 1.6492584,-1.824501 1.6542969,-2.68164 v -5.81836 c 2.85e-5,-0.949234 -1.399569,-1.71875 -2.328125,-1.71875 -0.9285565,0 -1.6562501,-1.126099 -1.65625,-2.076172 0,-0.949233 0.7276935,-1.937499 1.65625,-1.9375 0.928556,0 2.3281249,-0.549928 2.328125,-1.5 0,-0.949233 0.038245,-1.677734 0.9667968,-1.677734 0.9285565,0 2.0937504,-0.770629 2.0937504,-1.720703 V 8.8222656 c 0,-0.4884653 0.274126,-0.8847656 0.751953,-0.8847656 0.479465,-0.029373 1.221797,0.062495 1.185547,-1.125 C 11.999141,6.000004 11.000219,6.0206543 10.492188,6 Z m 12.824219,3.5898438 c -0.897037,0 -1.625,0.7450972 -1.625,1.6621092 v 0.707031 c 0,0.917012 -0.427184,1.66211 -1.324219,1.66211 -1.078943,0.08204 -1.955252,1.042605 -1.875,2.146484 v 2.898438 c 0,0.941623 0.514435,2.234375 1.435547,2.234375 0.983711,0 1.564453,0.803419 1.564453,1.578125 v 1.634765 C 20,25.14606 20.438938,26 21.449219,26 22.458608,25.99909 23.000891,25.145148 23,24.113281 v -3.152343 c 0,-0.756583 0.29405,-1.881854 0.818359,-2.416016 0.523424,-0.534167 1.234506,-1.534115 1.97461,-1.533203 l 0.972656,0.0078 c 0.430685,9.1e-4 0.845432,-0.173537 1.150391,-0.484375 0.304062,-0.310828 0.474609,-0.73355 0.474609,-1.173828 v -4.109375 c 0,-0.917012 -0.727073,-1.6621092 -1.625,-1.6621092 z" />
  <path
     d="m 23.99986,17.7 v 7.080078 c 0,0.527627 -0.292454,1.096257 -0.759766,1.535156 -0.467311,0.4389 -1.092106,0.685547 -1.441406,0.685547 h -7.443359 c -0.519977,0 -1.204171,-0.113747 -1.677735,-0.310547 -0.473564,-0.1968 -0.612833,-0.3961 -0.626953,-0.484375 -0.14071,-0.879723 -0.169253,-1.569706 -0.210937,-2.179687 -0.04168,-0.609981 -0.06227,-1.191155 -0.433594,-1.785157 C 11.034785,21.647014 10.345365,21.310874 9.599469,21.170703 8.853573,21.030532 7.933304,21.000781 6.619,21.000781 v 2 c 1.275694,0 2.1327,0.04482 2.611329,0.134766 0.478628,0.08995 0.463927,0.139554 0.480468,0.166015 0.01654,0.02646 0.09642,0.300267 0.134766,0.861328 0.03834,0.561062 0.06823,1.357245 0.228516,2.359375 0.169611,1.060412 1.03181,1.6795 1.835937,2.013672 0.804127,0.334173 1.673663,0.464844 2.445313,0.464844 h 7.443359 c 1.052029,0 2.02736,-0.492946 2.810547,-1.228516 0.783187,-0.73557 1.390625,-1.776205 1.390625,-2.992187 V 17.7 Z"
     style="opacity:0.2;fill:#000000;-inkscape-stroke:none"
     id="path3" />
  <path
     id="path2"
     style="fill:#26a269;fill-opacity:1"
     d="M 9,5 C 8.0714425,5 6.9648437,6.0507662 6.9648438,7 H 5.4609375 5.2949219 3.5390625 C 3.2405649,7 3,7.2230006 3,7.5 3,7.7769994 3.2405649,8 3.5390625,8 H 4.5449219 5 V 9 H 3 C 2.1870885,9.00197 2,9.4692033 2,10 v 14 c 0,2.354707 1.3457159,4.377922 3.3105469,5.361328 1.3136126,-0.658177 1.6492584,-1.824501 1.6542969,-2.68164 v -5.81836 c 2.85e-5,-0.949234 -1.399569,-1.71875 -2.328125,-1.71875 -0.9285565,0 -1.6562501,-1.126099 -1.65625,-2.076172 0,-0.949233 0.7276935,-1.937499 1.65625,-1.9375 0.928556,0 2.3281249,-0.549928 2.328125,-1.5 0,-0.949233 0.038245,-1.677734 0.9667968,-1.677734 0.9285565,0 2.0937504,-0.770629 2.0937504,-1.720703 V 7.8222656 c 0,-0.4884653 0.274126,-0.8847656 0.751953,-0.8847656 0.479465,-0.029373 1.221797,0.062495 1.185547,-1.125 C 11.999141,5.000004 11.000219,5.0206543 10.492188,5 Z m 12.824219,3.5898438 c -0.897037,0 -1.625,0.7450974 -1.625,1.6621092 v 0.707031 c 0,0.917012 -0.427184,1.66211 -1.324219,1.66211 -1.078943,0.08204 -1.955252,1.042605 -1.875,2.146484 v 2.898438 c 0,0.941623 0.514435,2.234375 1.435547,2.234375 0.983711,0 1.564453,0.803419 1.564453,1.578125 v 1.634765 C 20,24.14606 20.438938,25 21.449219,25 22.458608,24.99909 23.000891,24.145148 23,23.113281 v -3.152343 c 0,-0.756583 0.29405,-1.881854 0.818359,-2.416016 0.523424,-0.534167 1.234506,-1.534115 1.97461,-1.533203 l 0.972656,0.0078 c 0.430685,9.1e-4 0.845432,-0.173537 1.150391,-0.484375 0.304062,-0.310828 0.474609,-0.73355 0.474609,-1.173828 v -4.109375 c 0,-0.9170118 -0.727073,-1.6621092 -1.625,-1.6621092 z" />
  <path
     d="m 23.99986,16.7 v 7.080078 c 0,0.527627 -0.292454,1.096257 -0.759766,1.535156 -0.467311,0.4389 -1.092106,0.685547 -1.441406,0.685547 h -7.443359 c -0.519977,0 -1.204171,-0.113747 -1.677735,-0.310547 -0.473564,-0.1968 -0.612833,-0.3961 -0.626953,-0.484375 -0.14071,-0.879723 -0.169253,-1.569706 -0.210937,-2.179687 -0.04168,-0.609981 -0.06227,-1.191155 -0.433594,-1.785157 C 11.034785,20.647014 10.345365,20.310874 9.599469,20.170703 8.853573,20.030532 7.933304,20.000781 6.619,20.000781 v 2 c 1.275694,0 2.1327,0.04482 2.611329,0.134766 0.478628,0.08995 0.463927,0.139554 0.480468,0.166015 0.01654,0.02646 0.09642,0.300267 0.134766,0.861328 0.03834,0.561062 0.06823,1.357245 0.228516,2.359375 0.169611,1.060412 1.03181,1.6795 1.835937,2.013672 0.804127,0.334173 1.673663,0.464844 2.445313,0.464844 h 7.443359 c 1.052029,0 2.02736,-0.492946 2.810547,-1.228516 0.783187,-0.73557 1.390625,-1.776205 1.390625,-2.992187 V 16.7 Z"
     style="opacity:1;fill:#ed9700;-inkscape-stroke:none;fill-opacity:1"
     id="path4" />
  <path
     d="m 5,20 c -1.1046954,0 -2,0.895575 -2,2 0,1.104427 0.8953046,2 2,2 1.1046958,0 2.0000005,-0.895573 2.0000005,-2 0,-1.104425 -0.8953047,-2 -2.0000005,-2 z"
     style="fill:#000000;opacity:0.2"
     id="path5" />
  <path
     d="m 5,19 c -1.1046954,0 -2,0.895575 -2,2 0,1.104427 0.8953046,2 2,2 1.1046958,0 2.0000005,-0.895573 2.0000005,-2 0,-1.104425 -0.8953047,-2 -2.0000005,-2 z m 20,0 c -0.552735,0 -1,0.447267 -1,1 0,0.552733 0.447265,1 1,1 0.552732,0 1,-0.447267 1,-1 0,-0.552733 -0.447268,-1 -1,-1 z M 9.0000005,20 c -0.552736,0 -1,0.447267 -1,1 0,0.552733 0.447264,1 1,1 0.552733,0 1.0000005,-0.447267 1.0000005,-1 0,-0.552733 -0.4472675,-1 -1.0000005,-1 z M 25,23 c -0.552735,0 -1,0.447267 -1,1 0,0.552733 0.447265,1 1,1 0.552732,0 1,-0.447267 1,-1 0,-0.552733 -0.447268,-1 -1,-1 z m -13.999999,1 c -0.552736,0 -1,0.447267 -1,1 0,0.552733 0.447264,1 1,1 0.552733,0 1,-0.447267 1,-1 0,-0.552733 -0.447267,-1 -1,-1 z M 14,26 c -0.552735,0 -1,0.447267 -1,1 0,0.552733 0.447265,1 1,1 0.552733,0 1,-0.447267 1,-1 0,-0.552733 -0.447267,-1 -1,-1 z m 4,0 c -0.552735,0 -1,0.447267 -1,1 0,0.552733 0.447265,1 1,1 0.552732,0 1,-0.447267 1,-1 0,-0.552733 -0.447268,-1 -1,-1 z m 4,0 c -0.552735,0 -1,0.447267 -1,1 0,0.552733 0.447265,1 1,1 0.552732,0 1,-0.447267 1,-1 0,-0.552733 -0.447268,-1 -1,-1 z"
     style="fill:#ffffff"
     id="path6" />
  <path
     d="M 8,2.0000001 C 4.6760033,2.0000001 2,4.6760035 2,8 V 9 C 2,5.6760035 4.6760033,3 8,3 h 16 c 3.323996,0 6,2.6760035 6,6 V 8 C 30,4.6760035 27.323996,2.0000001 24,2.0000001 Z"
     style="opacity:0.2;fill:#ffffff;stroke-width:2;stroke-linecap:square"
     id="path1040"
     sodipodi:nodetypes="sscsscsss" />
  <rect
     style="opacity:0.2;fill:#000000;stroke-width:2"
     id="rect1"
     width="18"
     height="15"
     x="12"
     y="3"
     ry="2" />
  <rect
     style="opacity:1;fill:#463c5f;stroke-width:2;fill-opacity:1"
     id="rect2"
     width="18"
     height="15"
     x="12"
     y="2"
     ry="2" />
  <path
     d="m 17.3,6 2.544677,7.836525 1.66028,-1.459263 1.079224,1.328596 c 0.281128,0.346399 0.783569,0.393755 1.121094,0.105235 0.336669,-0.289396 0.382811,-0.803296 0.101682,-1.149696 L 22.713208,11.314384 24.3,9.9182624 Z"
     style="fill:#000000;opacity:0.2"
     id="path7" />
  <path
     d="m 17.3,5 2.544677,7.836525 1.66028,-1.459263 1.079224,1.328596 c 0.281128,0.346399 0.783569,0.393755 1.121094,0.105235 0.336669,-0.289396 0.382811,-0.803296 0.101682,-1.149696 L 22.713208,10.314384 24.3,8.9182624 Z"
     style="fill:#ffffff"
     id="path8" />
  <path
     d="M 12,5 V 4 c 0,-1.107999 0.892001,-2 2,-2 h 14 c 1.107999,0 2,0.892001 2,2 V 5 C 30,3.892001 29.107999,3 28,3 H 14 c -1.107999,0 -2,0.892001 -2,2 z"
     style="opacity:0.1;fill:#ffffff;stroke-width:2"
     id="path9" />
</svg>
