<?xml version="1.0" encoding="UTF-8" standalone="no"?>
<!-- Created with Inkscape (http://www.inkscape.org/) -->

<svg
   width="32"
   height="32"
   viewBox="0 0 32 32"
   version="1.1"
   id="svg5"
   inkscape:version="1.3 (0e150ed6c4, 2023-07-21)"
   sodipodi:docname="org.kde.merkuro.calendar.svg"
   xmlns:inkscape="http://www.inkscape.org/namespaces/inkscape"
   xmlns:sodipodi="http://sodipodi.sourceforge.net/DTD/sodipodi-0.dtd"
   xmlns="http://www.w3.org/2000/svg"
   xmlns:svg="http://www.w3.org/2000/svg">
  <sodipodi:namedview
     id="namedview7"
     pagecolor="#ffffff"
     bordercolor="#000000"
     borderopacity="0.25"
     inkscape:showpageshadow="2"
     inkscape:pageopacity="0.0"
     inkscape:pagecheckerboard="0"
     inkscape:deskcolor="#d1d1d1"
     inkscape:document-units="px"
     showgrid="false"
     inkscape:zoom="24.46875"
     inkscape:cx="15.979566"
     inkscape:cy="16"
     inkscape:window-width="1920"
     inkscape:window-height="984"
     inkscape:window-x="0"
     inkscape:window-y="29"
     inkscape:window-maximized="1"
     inkscape:current-layer="svg5" />
  <defs
     id="defs2" />
  <rect
     style="opacity:0.2;fill:#000000;stroke-width:2;stroke-linecap:square"
     id="rect234"
     width="28"
     height="28"
     x="2"
     y="3"
     ry="6" />
  <rect
     style="fill:#e97e10;fill-opacity:1;stroke-width:2;stroke-linecap:square"
     id="rect396"
     width="28"
     height="28"
     x="2"
     y="2"
     ry="6" />
  <rect
     style="opacity:0.6;fill:#ffffff"
     width="4"
     height="4"
     x="17"
     y="14"
     ry="1"
     id="rect3" />
  <rect
     style="opacity:0.6;fill:#ffffff"
     width="4"
     height="4"
     x="23"
     y="20"
     ry="1"
     id="rect4" />
  <path
     style="color:#000000;fill:#ffffff;stroke-linecap:round;stroke-linejoin:round;-inkscape-stroke:none"
     d="m 21.320312,20.115234 a 0.5,0.5 0 0 0 -0.705078,0.06445 l -2.148437,2.580079 -0.613281,-0.613282 a 0.5,0.5 0 0 0 -0.707032,0 0.5,0.5 0 0 0 0,0.707032 l 1,1 a 0.50005,0.50005 0 0 0 0.738282,-0.0332 l 2.5,-3 a 0.5,0.5 0 0 0 -0.06445,-0.705078 z"
     id="path6" />
  <rect
     style="fill:#ffffff"
     width="4"
     height="4"
     x="23"
     y="14"
     ry="1"
     id="rect7" />
  <rect
     style="fill:#ffffff"
     width="4"
     height="4"
     x="11"
     y="14"
     ry="1"
     id="rect8" />
  <rect
     style="fill:#ffffff"
     width="4"
     height="4"
     x="11"
     y="20"
     ry="1"
     id="rect9" />
  <rect
     style="fill:#ffffff"
     width="4"
     height="4"
     x="5"
     y="20"
     ry="1"
     id="rect10" />
  <path
     id="rect1233"
     style="fill:#643106;fill-opacity:1;stroke-width:2;stroke-linecap:square"
     d="m 8,2 h 16 c 3.324,0 6,2.676 6,5.9999999 V 9 H 1.9999999 V 7.9999999 C 1.9999999,4.676 4.6759999,2 8,2 Z"
     sodipodi:nodetypes="sssccss" />
  <rect
     style="opacity:0.2;fill:#000000;fill-opacity:1;stroke-width:5;stroke-linecap:round;stroke-linejoin:round"
     id="rect4964"
     width="28"
     height="1"
     x="2.0000002"
     y="8.999999" />
  <path
     d="M 8,2.0000001 C 4.6760033,2.0000001 2,4.6760035 2,8 V 9 C 2,5.6760035 4.6760033,3 8,3 h 16 c 3.323996,0 6,2.6760035 6,6 V 8 C 30,4.6760035 27.323996,2.0000001 24,2.0000001 Z"
     style="opacity:0.1;fill:#ffffff;stroke-width:2;stroke-linecap:square"
     id="path1040"
     sodipodi:nodetypes="sscsscsss" />
</svg>
