<?xml version="1.0" encoding="UTF-8" standalone="no"?>
<!-- Created with Inkscape (http://www.inkscape.org/) -->

<svg
   width="32"
   height="32"
   viewBox="0 0 32 32"
   version="1.1"
   id="svg5"
   inkscape:version="1.3.2 (091e20ef0f, 2023-11-25, custom)"
   sodipodi:docname="plank.svg"
   xmlns:inkscape="http://www.inkscape.org/namespaces/inkscape"
   xmlns:sodipodi="http://sodipodi.sourceforge.net/DTD/sodipodi-0.dtd"
   xmlns="http://www.w3.org/2000/svg"
   xmlns:svg="http://www.w3.org/2000/svg">
  <sodipodi:namedview
     id="namedview7"
     pagecolor="#ffffff"
     bordercolor="#000000"
     borderopacity="0.25"
     inkscape:showpageshadow="2"
     inkscape:pageopacity="0.0"
     inkscape:pagecheckerboard="0"
     inkscape:deskcolor="#d1d1d1"
     inkscape:document-units="px"
     showgrid="false"
     inkscape:zoom="25.53125"
     inkscape:cx="15.980416"
     inkscape:cy="16"
     inkscape:window-width="1920"
     inkscape:window-height="1020"
     inkscape:window-x="0"
     inkscape:window-y="31"
     inkscape:window-maximized="1"
     inkscape:current-layer="svg5" />
  <defs
     id="defs2" />
  <rect
     style="opacity:0.2;fill:#000000;stroke-width:2;stroke-linecap:square"
     id="rect234"
     width="28"
     height="28"
     x="2"
     y="3"
     ry="6" />
  <rect
     style="fill:#3c94e7;fill-opacity:1;stroke-width:2;stroke-linecap:square"
     id="rect396"
     width="28"
     height="28"
     x="2"
     y="2"
     ry="6" />
  <path
     d="m 15.9995,7 c -1.6569,0 -3,1.3431 -3,3 0.002,1.2698 0.80282,2.400999 2,2.8242 v 2.175695 H 11 v 2 h 3.9995 v 5.500099 c 0,0.75 -0.78343,0.56472 -1.2773,0.5 -2.2141,-0.29018 -4.665,-0.493114 -5.6988,-1.451495 l 1.1706,-0.069 -1.2927,-1.207 -1.2949,-1.272551 c -0.488,1.105001 -0.5451,2.27055 -0.6074,3.45055 l 0.80078,-0.78906 c 0.38491,1.587901 6.6426,3.089115 7.3853,3.742416 l 1.814,1.596001 1.814,-1.596001 c 0.74438,-0.654821 6.99953,-2.156856 7.37863,-3.746455 l 0.807,0.793 c 0,-1.2012 -0.26103,-2.321151 -0.60742,-3.45035 l -1.295,1.272549 -1.098,1.207 0.97955,0.06825 c -1.032,0.956 -3.47573,1.161355 -5.68073,1.452356 -0.501,0.066 -1.299,0.25 -1.299,-0.5 V 17.000103 H 20.999 V 15.000104 H 16.99811 V 12.82661 C 18.19611,12.40361 18.9985,11.271 18.9995,10 c 0,-1.6569 -1.343,-3 -3,-3 z m 0,2 c 0.55228,0 1,0.4477 1,1 0,0.5523 -0.44772,1 -1,1 -0.55228,0 -1,-0.4477 -1,-1 0,-0.5523 0.44772,-1 1,-1 z"
     style="opacity:0.2;fill:#000000;fill-opacity:1"
     id="path4069"
     sodipodi:nodetypes="sccccccssccccccccccccccccsccccccssssss" />
  <path
     d="m 15.9995,6 c -1.6569,0 -3,1.3431 -3,3 0.002,1.2698 0.80282,2.400999 2,2.8242 v 2.175695 H 11 v 2 h 3.9995 v 5.500099 c 0,0.75 -0.78343,0.56472 -1.2773,0.5 -2.2141,-0.29018 -4.665,-0.493114 -5.6988,-1.451495 l 1.1706,-0.069 -1.2927,-1.207 -1.2949,-1.272551 c -0.488,1.105001 -0.5451,2.27055 -0.6074,3.45055 l 0.80078,-0.78906 c 0.38491,1.587901 6.6426,3.089115 7.3853,3.742416 l 1.814,1.596 1.814,-1.596 c 0.74438,-0.654821 6.99953,-2.156856 7.37863,-3.746455 l 0.807,0.793 c 0,-1.2012 -0.26103,-2.321151 -0.60742,-3.45035 l -1.295,1.272549 -1.098,1.207 0.97955,0.06825 c -1.032,0.956 -3.47573,1.161355 -5.68073,1.452356 -0.501,0.066 -1.299,0.25 -1.299,-0.5 V 16.000103 H 20.999 V 14.000104 H 16.99811 V 11.82661 C 18.19611,11.40361 18.9985,10.271 18.9995,9 c 0,-1.6569 -1.343,-3 -3,-3 z m 0,2 c 0.55228,0 1,0.4477 1,1 0,0.5523 -0.44772,1 -1,1 -0.55228,0 -1,-0.4477 -1,-1 0,-0.5523 0.44772,-1 1,-1 z"
     style="fill:#235583;fill-opacity:1"
     id="path3610"
     sodipodi:nodetypes="cccccccssccccccccccccccccscccccccsssss" />
  <path
     d="M 8,2.0000001 C 4.6760033,2.0000001 2,4.6760035 2,8 V 9 C 2,5.6760035 4.6760033,3 8,3 h 16 c 3.323996,0 6,2.6760035 6,6 V 8 C 30,4.6760035 27.323996,2.0000001 24,2.0000001 Z"
     style="opacity:0.2;fill:#ffffff;stroke-width:2;stroke-linecap:square"
     id="path1040" />
</svg>
