<?xml version="1.0" encoding="UTF-8" standalone="no"?>
<!-- Created with Inkscape (http://www.inkscape.org/) -->

<svg
   width="32"
   height="32"
   viewBox="0 0 32 32"
   version="1.1"
   id="svg5"
   inkscape:version="1.4.3 (0d15f75042, 2025-12-25)"
   sodipodi:docname="preferences-desktop-animations.svg"
   xmlns:inkscape="http://www.inkscape.org/namespaces/inkscape"
   xmlns:sodipodi="http://sodipodi.sourceforge.net/DTD/sodipodi-0.dtd"
   xmlns="http://www.w3.org/2000/svg"
   xmlns:svg="http://www.w3.org/2000/svg">
  <sodipodi:namedview
     id="namedview7"
     pagecolor="#ffffff"
     bordercolor="#000000"
     borderopacity="0.25"
     inkscape:showpageshadow="2"
     inkscape:pageopacity="0.0"
     inkscape:pagecheckerboard="0"
     inkscape:deskcolor="#d1d1d1"
     inkscape:document-units="px"
     showgrid="false"
     inkscape:zoom="25.21875"
     inkscape:cx="15.980173"
     inkscape:cy="16"
     inkscape:window-width="1920"
     inkscape:window-height="1010"
     inkscape:window-x="0"
     inkscape:window-y="0"
     inkscape:window-maximized="1"
     inkscape:current-layer="svg5" />
  <defs
     id="defs2" />
  <rect
     style="opacity:0.2;fill:#000000;stroke-width:2;stroke-linecap:square"
     id="rect234"
     width="28"
     height="28"
     x="2"
     y="3"
     ry="6" />
  <rect
     style="fill:#2196f3;fill-opacity:1;stroke-width:2;stroke-linecap:square"
     id="rect396"
     width="28"
     height="28"
     x="2"
     y="2"
     ry="6" />
  <path
     d="M 8,2.0000001 C 4.6760033,2.0000001 2,4.6760035 2,8 V 9 C 2,5.6760035 4.6760033,3 8,3 h 16 c 3.323996,0 6,2.6760035 6,6 V 8 C 30,4.6760035 27.323996,2.0000001 24,2.0000001 Z"
     style="opacity:0.2;fill:#ffffff;stroke-width:2;stroke-linecap:square"
     id="path1040" />
  <path
     d="M 14.023076,7.0084667 C 11.822097,6.8659212 9.9575824,8.5362707 9.9899713,11.038438 l 0.020416,1.527059 -1.4368198,0.81661 c -2.554033,1.804201 -1.8688264,6.138787 1.117395,7.066398 l 1.4195398,0.44097 0.440968,1.419539 c 0.927735,2.986322 5.26205,3.67139 7.066397,1.117395 l 0.81661,-1.436708 1.528422,0.02041 c 3.334746,0.04264 5.191063,-3.543422 3.247385,-6.149598 l -0.890105,-1.192247 0.477716,-1.407291 0.0014,-0.0027 C 24.283258,11.8267 23.908478,10.228372 22.839764,9.1602566 21.771518,8.091895 20.174323,7.7182946 18.743105,8.2021014 h -0.0027 L 17.331753,8.6798179 16.140864,7.7910741 C 15.489467,7.3044324 14.756774,7.0559888 14.023114,7.0084729 Z"
     style="opacity:0.2;fill:#ffffff"
     id="path3" />
  <path
     style="baseline-shift:baseline;display:inline;overflow:visible;opacity:0.1;vector-effect:none;fill:#000000;stroke-linecap:round;stroke-linejoin:round;enable-background:accumulate;stop-color:#000000"
     d="M 15.009945,16.009672 2.4103356,28.60928 a 1.4,1.4 0 0 0 0,1.980469 1.4,1.4 0 0 0 1.9804687,0 L 16.990413,17.99014 a 1.4,1.4 0 0 0 0,-1.980468 1.4,1.4 0 0 0 -1.980468,0 z"
     id="path4" />
  <path
     style="baseline-shift:baseline;display:inline;overflow:visible;vector-effect:none;fill:#4f4f4f;stroke-linecap:round;stroke-linejoin:round;enable-background:accumulate;stop-color:#000000"
     d="M 15.009945,15.009672 2.4103356,27.60928 a 1.4,1.4 0 0 0 0,1.980469 1.4,1.4 0 0 0 1.9804687,0 L 16.990413,16.99014 a 1.4,1.4 0 0 0 0,-1.980468 1.4,1.4 0 0 0 -1.980468,0 z"
     id="path5" />
  <path
     d="m 13.558264,11.094872 a 1.0001,1.0002002 0 0 0 -0.574219,0.918061 l 0.03516,2.810829 c -0.0015,-0.118445 0.02681,-0.08381 -0.0625,0.02344 -0.08931,0.107251 -0.253916,0.253303 -0.410156,0.369178 v -0.002 l -2.140625,1.586096 a 1.0001,1.0002002 0 0 0 0.298828,1.759942 l 2.607422,0.810628 c 0.15209,0.04727 0.269137,0.164338 0.316406,0.316438 l 0.8125,2.609637 a 1.0001,1.0002002 0 0 0 1.757813,0.298858 l 1.58789,-2.14084 h -0.002 c 0.115541,-0.155817 0.262181,-0.323142 0.369141,-0.41215 0.106959,-0.08901 0.141211,-0.05912 0.02344,-0.06056 l 2.810547,0.03516 a 1.0001,1.0002002 0 0 0 0.775391,-1.646649 l -1.677735,-1.978714 c -0.09315,-0.127105 -0.120966,-0.288071 -0.07031,-0.437544 l 0.875,-2.57643 a 1.0001,1.0002002 0 0 0 -1.267578,-1.26965 l -2.578125,0.875088 c -0.149453,0.05065 -0.310403,0.02285 -0.4375,-0.07032 l -1.976563,-1.67595 a 1.0001,1.0002002 0 0 0 -1.072265,-0.142592 z"
     style="opacity:0.2;fill:#000000"
     id="path6" />
  <path
     d="m 13.558264,10.094416 a 1.0001,1.0002002 0 0 0 -0.574219,0.918061 l 0.03516,2.810829 c -0.0015,-0.118445 0.02681,-0.08381 -0.0625,0.02344 -0.08931,0.107251 -0.253916,0.253303 -0.410156,0.369178 v -0.002 l -2.140625,1.586096 a 1.0001,1.0002002 0 0 0 0.298828,1.759942 l 2.607422,0.810628 c 0.15209,0.04727 0.269137,0.164338 0.316406,0.316438 l 0.8125,2.609637 a 1.0001,1.0002002 0 0 0 1.757813,0.298858 l 1.58789,-2.14084 h -0.002 c 0.115541,-0.155817 0.262181,-0.323142 0.369141,-0.41215 0.106959,-0.08901 0.141211,-0.05912 0.02344,-0.06056 l 2.810547,0.03516 a 1.0001,1.0002002 0 0 0 0.775391,-1.646649 l -1.677735,-1.978714 c -0.09315,-0.127105 -0.120966,-0.288071 -0.07031,-0.437544 l 0.875,-2.57643 a 1.0001,1.0002002 0 0 0 -1.267578,-1.26965 l -2.578125,0.875088 c -0.149453,0.05065 -0.310403,0.02285 -0.4375,-0.07032 l -1.976563,-1.67595 a 1.0001,1.0002002 0 0 0 -1.072265,-0.142591 z"
     style="fill:#ffcb33"
     id="path7" />
  <path
     d="m 14.46574,11.999906 1.164821,0.987501 c 0.02786,0.023 0.05651,0.04499 0.08591,0.06596 0.510803,0.3746 1.214426,0.50205 1.846131,0.287855 h 0.002 l 1.654325,-0.561716 -0.561431,1.655163 c -0.214137,0.632122 -0.08663,1.338068 0.287709,1.849065 0.02096,0.02942 0.04295,0.05808 0.06593,0.08595 l 0.988999,1.16741 -1.750229,-0.02198 c -6.69e-4,-5e-6 -0.0013,3e-6 -0.002,0 -0.443522,0.03963 -0.537296,0.01346 -1.022965,0.417788 -0.305248,0.254119 -0.452928,0.450334 -0.627365,0.685654 -5.3e-4,7.14e-4 -0.0014,0.0013 -0.002,0.002 l -1.023012,1.37935 -0.531462,-1.707137 C 14.845892,17.66438 14.336546,17.154757 13.708449,16.959443 l -1.70827,-0.531731 1.378605,-1.021483 c 0.0013,2e-6 0.0027,2e-6 0.004,0 0.653958,-0.485202 1.104879,-1.529773 1.104879,-1.807085 -10e-7,-1.3e-5 -0.0017,-0.01394 -0.002,-0.016 z"
     style="fill:#ff9800"
     id="path8" />
  <path
     d="m 13.92596,10.001859 a 1.0001,1.0002002 0 0 0 -0.367187,0.0918 1.0001,1.0002002 0 0 0 -0.574219,0.917969 l 0.01172,0.839843 a 1.0001,1.0002002 0 0 1 0.5625,-0.755859 1.0001,1.0002002 0 0 1 1.072265,0.142578 l 1.976563,1.675781 c 0.127097,0.09317 0.288047,0.120963 0.4375,0.07031 l 2.578125,-0.875 a 1.0001,1.0002002 0 0 1 1.199219,0.46875 l 0.06836,-0.201172 a 1.0001,1.0002002 0 0 0 -1.267578,-1.269531 l -2.578125,0.875 c -0.149453,0.05065 -0.310403,0.02286 -0.4375,-0.07031 L 14.63104,10.236237 a 1.0001,1.0002002 0 0 0 -0.705078,-0.234375 z m -0.917969,3.773438 c -0.0097,0.01691 -0.02521,0.04155 -0.05078,0.07226 -0.08931,0.107251 -0.253916,0.253266 -0.410156,0.369141 v -0.002 l -2.140625,1.585937 a 1.0001,1.0002002 0 0 0 -0.269531,1.302735 1.0001,1.0002002 0 0 1 0.269531,-0.302735 l 2.140625,-1.585937 v 0.002 c 0.15624,-0.115875 0.320846,-0.26189 0.410156,-0.369141 0.03833,-0.04602 0.05389,-0.07888 0.06055,-0.0918 l 0.002,-0.002 z m 7.164063,1.71875 -0.15625,0.460937 c -0.05066,0.149473 -0.02284,0.310395 0.07031,0.4375 L 21.763848,18.371 A 1.0001,1.0002002 0 0 1 21.86541,18.517484 1.0001,1.0002002 0 0 0 21.763848,17.371 Z"
     style="opacity:0.2;fill:#ffffff"
     id="path9" />
</svg>
