<?xml version="1.0" encoding="UTF-8" standalone="no"?>
<!-- Created with Inkscape (http://www.inkscape.org/) -->

<svg
   width="32"
   height="32"
   viewBox="0 0 32 32"
   version="1.1"
   id="svg5"
   inkscape:version="1.3.2 (091e20ef0f, 2023-11-25, custom)"
   sodipodi:docname="preferences-desktop-default-applications.svg"
   xmlns:inkscape="http://www.inkscape.org/namespaces/inkscape"
   xmlns:sodipodi="http://sodipodi.sourceforge.net/DTD/sodipodi-0.dtd"
   xmlns="http://www.w3.org/2000/svg"
   xmlns:svg="http://www.w3.org/2000/svg">
  <sodipodi:namedview
     id="namedview7"
     pagecolor="#ffffff"
     bordercolor="#000000"
     borderopacity="0.25"
     inkscape:showpageshadow="2"
     inkscape:pageopacity="0.0"
     inkscape:pagecheckerboard="0"
     inkscape:deskcolor="#d1d1d1"
     inkscape:document-units="px"
     showgrid="false"
     inkscape:zoom="25.125"
     inkscape:cx="16"
     inkscape:cy="16"
     inkscape:window-width="1920"
     inkscape:window-height="1008"
     inkscape:window-x="0"
     inkscape:window-y="0"
     inkscape:window-maximized="1"
     inkscape:current-layer="svg5" />
  <defs
     id="defs2" />
  <rect
     style="opacity:0.2;fill:#000000;stroke-width:2;stroke-linecap:square"
     id="rect234"
     width="28"
     height="28"
     x="2"
     y="3"
     ry="6" />
  <rect
     style="fill:#d9efdb;fill-opacity:1;stroke-width:2;stroke-linecap:square"
     id="rect396"
     width="28"
     height="28"
     x="2"
     y="2"
     ry="6" />
  <path
     id="path1"
     style="opacity:0.2;fill:#000000"
     d="M 15.999951,7 C 15.05336,7.013345 14.377311,7.5767595 14.060498,8.5078125 L 14.072217,8.4648438 12.585889,13 H 7.5702634 c -0.010935,-1.73e-4 -0.022268,-1.73e-4 -0.033203,0 -0.5989535,0.01915 -1.1390232,0.295001 -1.5195313,0.751953 -0.8229257,0.931779 -0.6485077,2.39884 0.3964844,3.09375 L 10.357373,19.6875 8.8280759,24.376953 c -0.0017,0.0052 -0.00426,0.0104 -0.00586,0.01563 -0.2338278,0.757682 -0.013945,1.538278 0.5742188,2.072266 0.00425,0.0039 0.00932,0.0079 0.013672,0.01172 0.7067883,0.619774 1.6998653,0.698545 2.4980473,0.185547 0.01519,-0.0097 0.03029,-0.01884 0.04492,-0.0293 L 15.999951,23.75 l 4.046875,2.882812 c 0.01463,0.01047 0.02973,0.01962 0.04492,0.0293 0.798181,0.512998 1.791258,0.434227 2.498047,-0.185547 0.0043,-0.0038 0.0094,-0.0078 0.01367,-0.01172 0.588164,-0.533988 0.808046,-1.314584 0.574218,-2.072266 -0.0016,-0.0052 -0.0042,-0.01044 -0.0059,-0.01563 l -1.53125,-4.689453 3.945313,-2.841797 c 1.044991,-0.6949 1.219409,-2.161971 0.396484,-3.09375 C 25.601864,13.295001 25.059843,13.01915 24.460889,13 c -0.01093,-1.73e-4 -0.02031,-1.73e-4 -0.03125,0 h -5.015626 l -1.488281,-4.5351562 0.01172,0.042969 C 17.620661,7.5767598 16.946542,7.0133455 15.999951,7 Z" />
  <path
     id="path2"
     style="fill:#4caf50"
     d="M 15.999951,6 C 15.05336,6.013346 14.377311,6.5748063 14.060498,7.5058594 L 14.072217,7.4648438 12.585889,12 H 7.5702634 c -0.010935,-1.73e-4 -0.022268,-1.73e-4 -0.033203,0 -0.5989535,0.01915 -1.1390232,0.295001 -1.5195313,0.751953 -0.8229257,0.931779 -0.6485077,2.396887 0.3964844,3.091797 l 3.9433595,2.84375 -1.5292971,4.689453 c -0.0017,0.0052 -0.00426,0.01039 -0.00586,0.01563 -0.2338278,0.757682 -0.013945,1.538277 0.5742188,2.072266 0.00425,0.0039 0.00932,0.0079 0.013672,0.01172 0.7067883,0.619774 1.6998653,0.698544 2.4980473,0.185547 0.01519,-0.0097 0.03029,-0.01883 0.04492,-0.0293 L 15.999951,22.75 l 4.046875,2.880859 c 0.01463,0.01047 0.02973,0.02157 0.04492,0.03125 0.798181,0.512997 1.791258,0.434227 2.498047,-0.185547 0.0043,-0.0038 0.0094,-0.0078 0.01367,-0.01172 0.588164,-0.533989 0.808046,-1.314584 0.574218,-2.072266 -0.0016,-0.0052 -0.0042,-0.01044 -0.0059,-0.01563 l -1.529252,-4.689446 3.94336,-2.84375 c 1.044991,-0.6949 1.219409,-2.160018 0.396484,-3.091797 C 25.601864,12.295001 25.061796,12.01915 24.462842,12 c -0.01093,-1.73e-4 -0.02226,-1.73e-4 -0.0332,0 h -5.015626 l -1.486328,-4.5351562 0.01172,0.041016 C 17.622593,6.5748066 16.946542,6.0133456 15.999951,6 Z" />
  <path
     id="path3"
     style="opacity:0.2;fill:#ffffff"
     d="M 15.999951,6 C 15.053361,6.013345 14.37731,6.5767604 14.060498,7.5078125 L 14.072217,7.4648438 12.585889,12 H 7.5702634 c -0.010935,-1.73e-4 -0.022268,-1.73e-4 -0.033203,0 C 6.9381074,12.01915 6.3980367,12.295002 6.017529,12.751953 5.5468284,13.284916 5.4042797,13.992309 5.5624509,14.630859 5.639407,14.31537 5.7875402,14.012364 6.017529,13.751953 6.3980367,13.295002 6.9381074,13.01915 7.5370603,13 c 0.010935,-1.73e-4 0.022268,-1.73e-4 0.033203,0 h 5.0156247 l 1.486329,-4.5351562 -0.01172,0.042969 C 14.37731,7.5767604 15.053361,7.013345 15.999951,7 c 0.94659,0.013345 1.620709,0.5767607 1.9375,1.5078125 L 17.925732,8.4648438 19.414013,13 h 5.015626 c 0.01094,-1.73e-4 0.02032,-1.73e-4 0.03125,0 0.598953,0.01915 1.14102,0.295006 1.521484,0.751953 0.229989,0.260411 0.378122,0.563416 0.455078,0.878906 0.158171,-0.63855 0.01562,-1.345943 -0.455078,-1.878906 C 25.601909,12.295006 25.059842,12.01915 24.460889,12 c -0.01093,-1.73e-4 -0.02031,-1.73e-4 -0.03125,0 h -5.015626 l -1.488281,-4.5351562 0.01172,0.042969 C 17.62066,6.5767607 16.946541,6.0133455 15.999951,6 Z m -5.90625,13.498047 -1.2656251,3.878906 c -0.0017,0.0052 -0.00426,0.01039 -0.00586,0.01563 -0.1154585,0.374125 -0.1189369,0.752618 -0.023437,1.105469 0.00886,-0.03502 0.012652,-0.07052 0.023437,-0.105469 0.0016,-0.0052 0.00416,-0.01043 0.00586,-0.01563 L 10.357373,19.6875 Z m 11.810547,0 -0.263672,0.189453 1.53125,4.689453 c 0.0017,0.0052 0.0043,0.01042 0.0059,0.01563 0.01078,0.03495 0.01458,0.07045 0.02344,0.105469 0.0955,-0.352851 0.09202,-0.731344 -0.02344,-1.105469 -0.0016,-0.0052 -0.0042,-0.01044 -0.0059,-0.01563 z" />
  <path
     id="path4"
     style="font-size:19.9042px;line-height:1.25;letter-spacing:0px;word-spacing:0px;opacity:0.2;fill:#000000;stroke-width:0.571429"
     d="m 14.921826,13 -2.921875,8 h 1.890625 l 0.601563,-2 h 3.015624 l 0.601563,2 h 1.890625 L 17.066357,13 Z M 15.999951,14.238281 16.990185,17 h -1.957031 z" />
  <path
     id="path5"
     style="font-size:19.9042px;line-height:1.25;letter-spacing:0px;word-spacing:0px;fill:#ffffff;stroke-width:0.571429"
     d="m 14.921826,12 -2.921875,8 h 1.890625 l 0.601563,-2 h 3.015624 l 0.601563,2 h 1.890625 L 17.066357,12 Z M 15.999951,13.238281 16.990185,16 h -1.957031 z" />
  <path
     d="M 8,2.0000001 C 4.6760033,2.0000001 2,4.6760035 2,8 V 9 C 2,5.6760035 4.6760033,3 8,3 h 16 c 3.323996,0 6,2.6760035 6,6 V 8 C 30,4.6760035 27.323996,2.0000001 24,2.0000001 Z"
     style="opacity:0.2;fill:#ffffff;stroke-width:2;stroke-linecap:square"
     id="path1040"
     sodipodi:nodetypes="sscsscsss" />
</svg>
