<?xml version="1.0" encoding="UTF-8" standalone="no"?>
<!-- Created with Inkscape (http://www.inkscape.org/) -->

<svg
   width="32"
   height="32"
   viewBox="0 0 32 32"
   version="1.1"
   id="svg5"
   inkscape:version="1.3.2 (091e20ef0f, 2023-11-25, custom)"
   sodipodi:docname="preferences-system-notifications.svg"
   xmlns:inkscape="http://www.inkscape.org/namespaces/inkscape"
   xmlns:sodipodi="http://sodipodi.sourceforge.net/DTD/sodipodi-0.dtd"
   xmlns="http://www.w3.org/2000/svg"
   xmlns:svg="http://www.w3.org/2000/svg">
  <sodipodi:namedview
     id="namedview7"
     pagecolor="#ffffff"
     bordercolor="#000000"
     borderopacity="0.25"
     inkscape:showpageshadow="2"
     inkscape:pageopacity="0.0"
     inkscape:pagecheckerboard="0"
     inkscape:deskcolor="#d1d1d1"
     inkscape:document-units="px"
     showgrid="false"
     inkscape:zoom="25.09375"
     inkscape:cx="16"
     inkscape:cy="16"
     inkscape:window-width="1900"
     inkscape:window-height="1004"
     inkscape:window-x="10"
     inkscape:window-y="37"
     inkscape:window-maximized="1"
     inkscape:current-layer="svg5" />
  <defs
     id="defs2" />
  <rect
     style="opacity:0.2;fill:#000000;stroke-width:2;stroke-linecap:square"
     id="rect234"
     width="28"
     height="28"
     x="2"
     y="3"
     ry="6" />
  <rect
     style="fill:#bee0fc;fill-opacity:1;stroke-width:2;stroke-linecap:square"
     id="rect396"
     width="28"
     height="28"
     x="2"
     y="2"
     ry="6" />
  <path
     id="path1"
     d="m 8,10 c -0.5539994,0 -1,0.446001 -1,1 v 12 c 0,0.553999 0.4460006,1 1,1 h 9 l 2,2 2,-2 h 3 c 0.553999,0 1,-0.446001 1,-1 V 11 c 0,-0.553999 -0.446001,-1 -1,-1 z"
     style="opacity:0.2;fill:#000000" />
  <path
     id="path2"
     d="M 8,9 C 7.4460006,9 7,9.446001 7,10 v 12 c 0,0.553999 0.4460006,1 1,1 h 9 l 2,2 2,-2 h 3 c 0.553999,0 1,-0.446001 1,-1 V 10 C 25,9.446001 24.553999,9 24,9 Z"
     style="opacity:1;fill:#4f4f4f;fill-opacity:1" />
  <path
     id="path3"
     d="M 8 9 C 7.4460012 9 7 9.4460012 7 10 L 7 11 C 7 10.446002 7.4460012 10 8 10 L 24 10 C 24.553998 10 25 10.446002 25 11 L 25 10 C 25 9.4460012 24.553998 9 24 9 L 8 9 z "
     style="fill:#ffffff;opacity:0.1" />
  <path
     d="M 8,2.0000001 C 4.6760033,2.0000001 2,4.6760035 2,8 V 9 C 2,5.6760035 4.6760033,3 8,3 h 16 c 3.323996,0 6,2.6760035 6,6 V 8 C 30,4.6760035 27.323996,2.0000001 24,2.0000001 Z"
     style="opacity:0.2;fill:#ffffff;stroke-width:2;stroke-linecap:square"
     id="path1040" />
  <circle
     style="opacity:0.2;fill:#000000;stroke-width:1.2"
     id="circle4"
     cx="12"
     cy="14"
     r="6" />
  <circle
     style="opacity:1;fill:#4daaf5;fill-opacity:1;stroke-width:1.2"
     id="path4"
     cx="12"
     cy="13"
     r="6" />
  <path
     d="m 11,17 v -2 h 2 v 2 z m 0,-3 V 9 h 2 v 5 z"
     style="fill:#ffffff;opacity:1"
     id="path1-7" />
</svg>
