<?xml version="1.0" encoding="UTF-8" standalone="no"?>
<!-- Created with Inkscape (http://www.inkscape.org/) -->

<svg
   width="32"
   height="32"
   viewBox="0 0 32 32"
   version="1.1"
   id="svg5"
   inkscape:version="1.3 (0e150ed6c4, 2023-07-21)"
   sodipodi:docname="preferences-desktop-user-password.svg"
   xmlns:inkscape="http://www.inkscape.org/namespaces/inkscape"
   xmlns:sodipodi="http://sodipodi.sourceforge.net/DTD/sodipodi-0.dtd"
   xmlns="http://www.w3.org/2000/svg"
   xmlns:svg="http://www.w3.org/2000/svg">
  <sodipodi:namedview
     id="namedview7"
     pagecolor="#ffffff"
     bordercolor="#000000"
     borderopacity="0.25"
     inkscape:showpageshadow="2"
     inkscape:pageopacity="0.0"
     inkscape:pagecheckerboard="0"
     inkscape:deskcolor="#d1d1d1"
     inkscape:document-units="px"
     showgrid="false"
     inkscape:zoom="22.78125"
     inkscape:cx="16"
     inkscape:cy="16"
     inkscape:window-width="1920"
     inkscape:window-height="937"
     inkscape:window-x="0"
     inkscape:window-y="32"
     inkscape:window-maximized="1"
     inkscape:current-layer="svg5" />
  <defs
     id="defs2" />
  <rect
     style="opacity:0.2;fill:#000000;stroke-width:2;stroke-linecap:square"
     id="rect234"
     width="28"
     height="28"
     x="2"
     y="3"
     ry="6" />
  <rect
     style="fill:#2196f3;fill-opacity:1;stroke-width:2;stroke-linecap:square"
     id="rect396"
     width="28"
     height="28"
     x="2"
     y="2"
     ry="6" />
  <path
     id="rect1"
     style="opacity:0.2;fill:#000000;fill-opacity:1"
     d="M 16 7 C 12.67601 7 10 9.6760099 10 13 L 10 15 L 9 15 C 8.4460012 15 8 15.446002 8 16 L 8 26 C 8 26.553998 8.4460012 27 9 27 L 23 27 C 23.553998 27 24 26.553998 24 26 L 24 16 C 24 15.446002 23.553998 15 23 15 L 22 15 L 22 13 C 22 9.6760099 19.323991 7 16 7 z M 16 9 C 18.215994 9 20 10.784006 20 13 L 20 15 L 12 15 L 12 13 C 12 10.784006 13.784006 9 16 9 z " />
  <path
     id="rect2"
     style="fill:#ffffff;fill-opacity:1"
     d="M 16 6 C 12.676006 6 10 8.6760066 10 12 L 10 14 L 9 14 C 8.4460006 14 8 14.446001 8 15 L 8 25 C 8 25.553999 8.4460006 26 9 26 L 23 26 C 23.553999 26 24 25.553999 24 25 L 24 15 C 24 14.446001 23.553999 14 23 14 L 22 14 L 22 12 C 22 8.6760066 19.323994 6 16 6 z M 16 8 C 18.215996 8 20 9.7840044 20 12 L 20 14 L 12 14 L 12 12 C 12 9.7840044 13.784004 8 16 8 z " />
  <path
     d="M 8,2.0000001 C 4.6760033,2.0000001 2,4.6760035 2,8 V 9 C 2,5.6760035 4.6760033,3 8,3 h 16 c 3.323996,0 6,2.6760035 6,6 V 8 C 30,4.6760035 27.323996,2.0000001 24,2.0000001 Z"
     style="opacity:0.2;fill:#ffffff;stroke-width:2;stroke-linecap:square"
     id="path1040"
     sodipodi:nodetypes="sscsscsss" />
</svg>
