<?xml version="1.0" encoding="UTF-8" standalone="no"?>
<!-- Created with Inkscape (http://www.inkscape.org/) -->

<svg
   width="32"
   height="32"
   viewBox="0 0 32 32"
   version="1.1"
   id="svg5"
   inkscape:version="1.2.2 (1:1.2.2+202305151914+b0a8486541)"
   sodipodi:docname="preferences-system-network-share-windows.svg"
   xmlns:inkscape="http://www.inkscape.org/namespaces/inkscape"
   xmlns:sodipodi="http://sodipodi.sourceforge.net/DTD/sodipodi-0.dtd"
   xmlns="http://www.w3.org/2000/svg"
   xmlns:svg="http://www.w3.org/2000/svg">
  <sodipodi:namedview
     id="namedview7"
     pagecolor="#ffffff"
     bordercolor="#000000"
     borderopacity="0.25"
     inkscape:showpageshadow="2"
     inkscape:pageopacity="0.0"
     inkscape:pagecheckerboard="0"
     inkscape:deskcolor="#d1d1d1"
     inkscape:document-units="px"
     showgrid="false"
     inkscape:zoom="25.1875"
     inkscape:cx="15.920596"
     inkscape:cy="16"
     inkscape:window-width="1920"
     inkscape:window-height="1008"
     inkscape:window-x="0"
     inkscape:window-y="0"
     inkscape:window-maximized="1"
     inkscape:current-layer="svg5" />
  <defs
     id="defs2" />
  <rect
     style="opacity:0.2;fill:#000000;stroke-width:2;stroke-linecap:square"
     id="rect234"
     width="28"
     height="28"
     x="2"
     y="3"
     ry="6" />
  <rect
     style="fill:#36a9e9;fill-opacity:1;stroke-width:2;stroke-linecap:square"
     id="rect396"
     width="28"
     height="28"
     x="2"
     y="2"
     ry="6" />
  <path
     d="M 20.939757,6.0002674 C 20.424591,5.9876354 20.000456,6.4241157 20.000304,6.9670643 V 8.0002674 H 8.5003041 C 7.671911,8.0003502 7.000387,8.6718743 7.000304,9.5002672 v 6.9998138 c 8.3e-5,0.828393 0.671607,1.499917 1.5000001,1.5 H 21.000304 v 4.000186 h -10 v -1.033204 c -1.52e-4,-0.542949 -0.424287,-0.979428 -0.939453,-0.966796 -0.15378,0.0037 -0.304218,0.048 -0.4374999,0.128906 L 7.5413201,21.39675 5.459288,22.662375 c -0.612384,0.372265 -0.612384,1.303517 0,1.675782 l 2.082032,1.265625 2.0820311,1.267578 c 0.6120739,0.372137 1.3769779,-0.09332 1.3769529,-0.83789 v -1.033203 h 11.5 c 0.828393,-8.3e-5 1.499917,-0.671608 1.5,-1.5 v -7.000186 c -8.3e-5,-0.828393 -0.671607,-1.499917 -1.5,-1.5 h -12.5 v -3.999814 h 10 v 1.033203 c -2.5e-5,0.744576 0.764879,1.210028 1.376953,0.837891 l 2.082031,-1.267578 2.082032,-1.265625 c 0.612383,-0.3722658 0.612383,-1.3035158 0,-1.6757807 L 23.459288,7.3967518 21.377257,6.1291736 c -0.133282,-0.080906 -0.283721,-0.1252318 -0.4375,-0.1289062 z"
     style="color:#000000;opacity:0.2;fill:#000000;stroke-linecap:round;stroke-linejoin:round;-inkscape-stroke:none"
     id="path3254" />
  <path
     d="M 20.939757,5.0002674 C 20.424591,4.9876351 20.000456,5.4241157 20.000304,5.9670643 V 7.0002674 H 8.5003038 c -0.8283929,8.28e-5 -1.4999173,0.6716072 -1.5000001,1.5 v 6.9998146 c 8.28e-5,0.828393 0.6716072,1.499917 1.5000001,1.5 H 21.000304 v 4.000185 h -10 v -1.033203 c -1.52e-4,-0.542949 -0.424287,-0.979429 -0.939453,-0.966797 -0.15378,0.0037 -0.304218,0.048 -0.4374999,0.128906 l -2.0820319,1.267578 -2.0820311,1.265625 c -0.6123842,0.372265 -0.6123842,1.303517 0,1.675783 l 2.0820311,1.265625 2.0820319,1.267578 c 0.6120739,0.372136 1.3769779,-0.09332 1.3769529,-0.837891 v -1.033203 h 11.5 c 0.828393,-8.3e-5 1.499917,-0.671608 1.5,-1.5 v -7.000186 c -8.3e-5,-0.828393 -0.671607,-1.499917 -1.5,-1.5 h -12.5 v -3.999815 h 10 v 1.033204 c -2.5e-5,0.744576 0.764879,1.210028 1.376953,0.837891 l 2.082031,-1.267579 2.082032,-1.2656248 c 0.612383,-0.3722655 0.612383,-1.3035161 0,-1.6757814 L 23.459288,6.3967518 21.377257,5.1291736 c -0.133282,-0.080906 -0.283721,-0.1252318 -0.4375,-0.1289062 z"
     style="color:#000000;fill:#ffffff;stroke-linecap:round;stroke-linejoin:round;-inkscape-stroke:none"
     id="path2461" />
  <path
     d="M 8,2.0000001 C 4.6760033,2.0000001 2,4.6760035 2,8 V 9 C 2,5.6760035 4.6760033,3 8,3 h 16 c 3.323996,0 6,2.6760035 6,6 V 8 C 30,4.6760035 27.323996,2.0000001 24,2.0000001 Z"
     style="opacity:0.2;fill:#ffffff;stroke-width:2;stroke-linecap:square"
     id="path1040"
     sodipodi:nodetypes="sscsscsss" />
</svg>
