<?xml version="1.0" encoding="UTF-8" standalone="no"?>
<!-- Created with Inkscape (http://www.inkscape.org/) -->

<svg
   width="32"
   height="32"
   viewBox="0 0 32 32"
   version="1.1"
   id="svg5"
   inkscape:version="1.3 (0e150ed6c4, 2023-07-21)"
   sodipodi:docname="preferences-desktop-emoticons.svg"
   xmlns:inkscape="http://www.inkscape.org/namespaces/inkscape"
   xmlns:sodipodi="http://sodipodi.sourceforge.net/DTD/sodipodi-0.dtd"
   xmlns="http://www.w3.org/2000/svg"
   xmlns:svg="http://www.w3.org/2000/svg">
  <sodipodi:namedview
     id="namedview7"
     pagecolor="#ffffff"
     bordercolor="#000000"
     borderopacity="0.25"
     inkscape:showpageshadow="2"
     inkscape:pageopacity="0.0"
     inkscape:pagecheckerboard="0"
     inkscape:deskcolor="#d1d1d1"
     inkscape:document-units="px"
     showgrid="false"
     inkscape:zoom="24.46875"
     inkscape:cx="15.979566"
     inkscape:cy="16"
     inkscape:window-width="1920"
     inkscape:window-height="984"
     inkscape:window-x="0"
     inkscape:window-y="29"
     inkscape:window-maximized="1"
     inkscape:current-layer="svg5" />
  <defs
     id="defs2" />
  <rect
     style="opacity:0.2;fill:#000000;stroke-width:2;stroke-linecap:square"
     id="rect234"
     width="28"
     height="28"
     x="2"
     y="3"
     ry="6" />
  <rect
     style="fill:#fecd38;fill-opacity:1;stroke-width:2;stroke-linecap:square"
     id="rect396"
     width="28"
     height="28"
     x="2"
     y="2"
     ry="6" />
  <path
     d="M 9.9999999,9 C 8.8954069,8.999944 7.9999447,9.895407 8,11 7.9999447,12.104593 8.8954089,13.000056 9.9999999,13 11.104591,13.000054 12.000056,12.104591 12,11 12.000056,9.895409 11.104591,8.999946 9.9999999,9 Z M 22,9 c -1.104591,-5.6e-5 -2.000056,0.895407 -2,2 -5.6e-5,1.104593 0.895409,2.000056 2,2 1.104593,5.6e-5 2.000056,-0.895407 2,-2 5.6e-5,-1.104593 -0.895407,-2.000056 -2,-2 z M 9.9999999,19 c 1.2382141,2.473006 3.5256191,3.997447 6.0019531,4 C 18.476891,22.9959 20.762486,21.471614 22,19 h -0.84375 c -1.312359,1.691574 -3.186033,2.660716 -5.154297,2.666016 C 14.033009,21.661316 12.158517,20.692159 10.845703,19 Z"
     id="path1"
     style="stroke-width:1;fill:#3f3f3f;fill-opacity:1" />
  <path
     d="M 8,2.0000001 C 4.6760033,2.0000001 2,4.6760035 2,8 V 9 C 2,5.6760035 4.6760033,3 8,3 h 16 c 3.323996,0 6,2.6760035 6,6 V 8 C 30,4.6760035 27.323996,2.0000001 24,2.0000001 Z"
     style="opacity:0.2;fill:#ffffff;stroke-width:2;stroke-linecap:square"
     id="path1040"
     sodipodi:nodetypes="sscsscsss" />
</svg>
