<?xml version="1.0" encoding="UTF-8" standalone="no"?>
<!-- Created with Inkscape (http://www.inkscape.org/) -->

<svg
   width="32"
   height="32"
   viewBox="0 0 32 32"
   version="1.1"
   id="svg5"
   inkscape:version="1.2.2 (1:1.2.2+202305151914+b0a8486541)"
   sodipodi:docname="scrcpy.svg"
   xmlns:inkscape="http://www.inkscape.org/namespaces/inkscape"
   xmlns:sodipodi="http://sodipodi.sourceforge.net/DTD/sodipodi-0.dtd"
   xmlns="http://www.w3.org/2000/svg"
   xmlns:svg="http://www.w3.org/2000/svg">
  <sodipodi:namedview
     id="namedview7"
     pagecolor="#ffffff"
     bordercolor="#000000"
     borderopacity="0.25"
     inkscape:showpageshadow="2"
     inkscape:pageopacity="0.0"
     inkscape:pagecheckerboard="0"
     inkscape:deskcolor="#d1d1d1"
     inkscape:document-units="px"
     showgrid="false"
     inkscape:zoom="25.1875"
     inkscape:cx="16"
     inkscape:cy="16"
     inkscape:window-width="1920"
     inkscape:window-height="1008"
     inkscape:window-x="0"
     inkscape:window-y="0"
     inkscape:window-maximized="1"
     inkscape:current-layer="svg5" />
  <defs
     id="defs2" />
  <rect
     style="opacity:0.2;fill:#000000;stroke-width:2;stroke-linecap:square"
     id="rect234"
     width="28"
     height="28"
     x="2"
     y="3"
     ry="6" />
  <rect
     style="fill:#e4e4e4;fill-opacity:1;stroke-width:2;stroke-linecap:square"
     id="rect396"
     width="28"
     height="28"
     x="2"
     y="2"
     ry="6" />
  <path
     id="rect391"
     style="fill:#077063;fill-opacity:1;stroke-width:2;stroke-linecap:square"
     d="m 7.9999999,2 c -3.323995,0 -6,2.676005 -6,6 V 23 H 30 V 8 C 30,4.676005 27.323995,2 24,2 Z" />
  <path
     d="m 7.0859414,11.00196 c -0.23756,-0.0086 -0.47099,0.06374 -0.66211,0.205078 -0.46536,0.345774 -0.56241,1.003272 -0.2168,1.46875 l 2.36719,3.181641 c -1.97869,1.789782 -3.3035495,4.283106 -3.5722695,7.083982 -0.0505,1.058711 1.0664095,1.058594 1.0664095,1.058594 H 25.904298 c 0,0 1.14947,2.58e-4 1.09375,-1.111328 -0.28032,-2.780403 -1.600539,-5.256711 -3.568359,-7.035154 l 2.363279,-3.175782 c 0.34694,-0.465817 0.2498,-1.12481 -0.216799,-1.470703 -0.46548,-0.345611 -1.12297,-0.24856 -1.46875,0.216797 l -2.36328,3.177734 c -1.67387,-1.015349 -3.638709,-1.601562 -5.742189,-1.601562 -2.10458,0 -4.069969,0.587035 -5.744139,1.603516 L 7.8925814,11.423835 c -0.19078,-0.255927 -0.48761,-0.411173 -0.80664,-0.421875 z"
     style="color:#000000;opacity:0.2;fill:#000000;stroke-width:1;stroke-linecap:round;-inkscape-stroke:none"
     id="path4999"
     sodipodi:nodetypes="cccccccccccccsccc" />
  <path
     d="m 7.0857914,10.00196 c -0.23756,-0.0086 -0.47099,0.06374 -0.66211,0.205078 -0.46536,0.345774 -0.56241,1.003272 -0.2168,1.46875 l 2.36719,3.181641 c -1.97869,1.789782 -3.3035495,4.283106 -3.5722695,7.083982 -0.0505,1.058711 1.0664095,1.058594 1.0664095,1.058594 H 25.904148 c 0,0 1.14947,2.58e-4 1.09375,-1.111328 -0.28032,-2.780403 -1.600539,-5.256711 -3.568359,-7.035154 l 2.363279,-3.175782 c 0.34694,-0.465817 0.2498,-1.12481 -0.216799,-1.470703 -0.46548,-0.3456109 -1.12297,-0.2485599 -1.46875,0.216797 l -2.36328,3.177734 C 20.070119,12.58622 18.10528,12.000007 16.0018,12.000007 c -2.10458,0 -4.069969,0.587035 -5.744139,1.603516 L 7.8924314,10.423835 c -0.19078,-0.255927 -0.48761,-0.411173 -0.80664,-0.421875 z"
     style="color:#000000;fill:#30dd81;stroke-width:1;stroke-linecap:round;-inkscape-stroke:none"
     id="path4971"
     sodipodi:nodetypes="cccccccccccccsccc" />
  <path
     id="path1079"
     style="color:#000000;opacity:0.2;fill:#ffffff;stroke-width:1;stroke-linecap:round;-inkscape-stroke:none"
     d="m 24.998047,10.000977 c -0.336657,-0.015045 -0.674513,0.132004 -0.890625,0.422851 L 21.74414,13.601563 C 20.070272,12.586215 18.105431,12 16.001953,12 c -2.104578,0 -4.069972,0.587036 -5.744141,1.603516 L 7.8925779,10.423828 c -0.1907795,-0.255926 -0.487611,-0.411173 -0.8066405,-0.421875 -0.23756,-0.0086 -0.4709895,0.06374 -0.6621095,0.205078 -0.4249015,0.315713 -0.538767,0.889779 -0.2929685,1.341797 0.07057,-0.129885 0.166515,-0.247838 0.2929685,-0.341797 0.19112,-0.141337 0.4245495,-0.213678 0.6621095,-0.205078 0.3190295,0.0107 0.615861,0.165949 0.8066405,0.421875 l 2.3652341,3.179688 C 11.931981,13.587036 13.897375,13 16.001953,13 c 2.103478,0 4.068319,0.586215 5.742187,1.601563 l 2.363282,-3.177735 c 0.345779,-0.465356 1.00327,-0.562407 1.46875,-0.216797 0.12658,0.09383 0.223235,0.211986 0.293945,0.341797 0.245423,-0.452207 0.131491,-1.026418 -0.293945,-1.341797 -0.174555,-0.129603 -0.376131,-0.197028 -0.578125,-0.206054 z m -1.134766,5.269531 -0.433594,0.583008 c 1.842463,1.66515 3.116933,3.942301 3.501953,6.507812 0.04832,-0.129927 0.07585,-0.284281 0.06641,-0.472656 -0.259126,-2.57018 -1.408328,-4.878719 -3.134766,-6.618164 z m -15.7226561,0.0039 c -1.7368745,1.75098 -2.8901575,4.076718 -3.138672,6.666992 -0.00864,0.181145 0.018135,0.329647 0.066407,0.454102 0.378746,-2.578294 1.656708,-4.865476 3.5058595,-6.538086 z" />
  <path
     d="m 10.500001,19.000002 c -0.8284201,0 -1.5000001,0.67158 -1.5000001,1.499999 0,0.82842 0.67158,1.5 1.5000001,1.5 0.82842,0 1.5,-0.67158 1.5,-1.5 0,-0.828419 -0.67158,-1.499999 -1.5,-1.499999 z m 10.999998,0 c -0.82842,0 -1.5,0.67158 -1.5,1.499999 0,0.82842 0.67158,1.5 1.5,1.5 0.82842,0 1.5,-0.67158 1.5,-1.5 0,-0.828419 -0.67158,-1.499999 -1.5,-1.499999 z"
     style="opacity:0.2;fill:#000000;fill-opacity:1;stroke-width:3;stroke-linecap:square"
     id="path5111"
     sodipodi:nodetypes="ssssssssss" />
  <path
     d="m 10.500001,18.000002 c -0.8284201,0 -1.5000001,0.67158 -1.5000001,1.5 0,0.828419 0.67158,1.499999 1.5000001,1.499999 0.82842,0 1.5,-0.67158 1.5,-1.499999 0,-0.82842 -0.67158,-1.5 -1.5,-1.5 z m 10.999998,0 c -0.82842,0 -1.5,0.67158 -1.5,1.5 0,0.828419 0.67158,1.499999 1.5,1.499999 0.82842,0 1.5,-0.67158 1.5,-1.499999 0,-0.82842 -0.67158,-1.5 -1.5,-1.5 z"
     style="fill:#ffffff;fill-opacity:1;stroke-width:3;stroke-linecap:square"
     id="path5083"
     sodipodi:nodetypes="ssssssssss" />
  <path
     d="M 8,2.0000001 C 4.6760033,2.0000001 2,4.6760035 2,8 V 9 C 2,5.6760035 4.6760033,3 8,3 h 16 c 3.323996,0 6,2.6760035 6,6 V 8 C 30,4.6760035 27.323996,2.0000001 24,2.0000001 Z"
     style="opacity:0.2;fill:#ffffff;stroke-width:2;stroke-linecap:square"
     id="path1040"
     sodipodi:nodetypes="sscsscsss" />
</svg>
