<?xml version="1.0" encoding="UTF-8" standalone="no"?>
<!-- Created with Inkscape (http://www.inkscape.org/) -->

<svg
   width="32"
   height="32"
   viewBox="0 0 32 32"
   version="1.1"
   id="svg5"
   inkscape:version="1.2.2 (1:1.2.2+202305151914+b0a8486541)"
   sodipodi:docname="software-properties.svg"
   xmlns:inkscape="http://www.inkscape.org/namespaces/inkscape"
   xmlns:sodipodi="http://sodipodi.sourceforge.net/DTD/sodipodi-0.dtd"
   xmlns="http://www.w3.org/2000/svg"
   xmlns:svg="http://www.w3.org/2000/svg">
  <sodipodi:namedview
     id="namedview7"
     pagecolor="#ffffff"
     bordercolor="#000000"
     borderopacity="0.25"
     inkscape:showpageshadow="2"
     inkscape:pageopacity="0.0"
     inkscape:pagecheckerboard="0"
     inkscape:deskcolor="#d1d1d1"
     inkscape:document-units="px"
     showgrid="false"
     inkscape:zoom="25.1875"
     inkscape:cx="16.039702"
     inkscape:cy="16"
     inkscape:window-width="1920"
     inkscape:window-height="1008"
     inkscape:window-x="0"
     inkscape:window-y="0"
     inkscape:window-maximized="1"
     inkscape:current-layer="svg5" />
  <defs
     id="defs2" />
  <rect
     style="opacity:0.2;fill:#000000;stroke-width:2;stroke-linecap:square"
     id="rect234"
     width="28"
     height="28"
     x="2"
     y="3"
     ry="6" />
  <rect
     style="fill:#546e7a;fill-opacity:1;stroke-width:2;stroke-linecap:square"
     id="rect396"
     width="28"
     height="28"
     x="2"
     y="2"
     ry="6" />
  <path
     d="m 16.96079,6.0000169 c -0.19003,-0.0011 -0.26363,0.149531 -0.64914,1.322828 l -0.38365,1.166298 -0.58468,0.05218 c -0.32201,0.02909 -0.69386,0.07543 -0.82562,0.102818 -0.17419,0.03619 -0.25535,0.03701 -0.29771,0.0016 -0.032,-0.02662 -0.30355,-0.466732 -0.6031,-0.977546 -0.59864,-1.020841 -0.7202,-1.184714 -0.88854,-1.184714 -0.17691,0 -1.36234,0.472137 -1.44866,0.577011 -0.0424,0.05148 -0.0759,0.1572 -0.0752,0.23326 5.5e-4,0.07606 0.10705,0.632718 0.23633,1.238424 0.12928,0.605712 0.22732,1.122122 0.21791,1.146349 -0.009,0.0242 -0.15012,0.1256952 -0.31306,0.2271212 -0.16294,0.1014259 -0.45926,0.3151649 -0.65681,0.4741919 -0.19754,0.159028 -0.37754,0.29004 -0.40053,0.29004 -0.023,0 -0.48478,-0.250935 -1.02665,-0.557061 C 8.14751,9.4833799 8.0945,9.4591039 7.93732,9.5189279 7.7675,9.5835579 6.93369,10.641612 6.93369,10.792648 c 0,0.163691 0.0403,0.214674 0.89007,1.16016 0.40626,0.452024 0.73814,0.854055 0.73814,0.893138 0,0.03905 -0.085,0.244264 -0.19029,0.455778 -0.10527,0.211514 -0.24593,0.527425 -0.31153,0.701313 -0.0656,0.173883 -0.14346,0.335755 -0.17341,0.360632 -0.0334,0.02783 -0.52346,0.05028 -1.27218,0.05831 -1.50214,0.01612 -1.36998,-0.05622 -1.51159,0.837892 -0.0548,0.346319 -0.10147,0.681875 -0.10281,0.745818 -0.005,0.238222 0.0958,0.291106 1.31822,0.693641 l 1.16476,0.383651 0.0507,0.570871 c 0.0284,0.314481 0.0736,0.68876 0.0997,0.830221 0.0261,0.141465 0.0363,0.274673 0.023,0.296178 -0.0133,0.02151 -0.46352,0.298723 -1.00056,0.61691 -0.53704,0.318193 -1.01976,0.627354 -1.07422,0.685967 -0.0545,0.05862 -0.0998,0.158558 -0.0998,0.222518 0,0.187116 0.47995,1.368013 0.58622,1.442527 0.13893,0.09741 0.25888,0.083 1.45941,-0.17341 0.60483,-0.129185 1.12036,-0.225267 1.14481,-0.214844 0.0244,0.01045 0.12714,0.150814 0.22866,0.313059 0.10151,0.162239 0.31629,0.459248 0.47726,0.659878 0.20029,0.24964 0.28322,0.388616 0.26395,0.438897 -0.0155,0.04043 -0.26348,0.493174 -0.55246,1.006699 -0.59229,1.052549 -0.62639,1.125749 -0.58775,1.279859 0.0395,0.157608 1.12887,1.02858 1.286,1.028184 0.16206,-4.07e-4 0.23967,-0.05965 1.14788,-0.880862 0.44212,-0.399769 0.83705,-0.732633 0.87779,-0.739679 0.0408,-0.0071 0.251,0.07512 0.46806,0.182618 0.21705,0.107498 0.54903,0.249892 0.7366,0.316128 0.18758,0.06623 0.34511,0.122917 0.34989,0.125838 0.005,0.0027 0.0188,0.574712 0.0322,1.270651 0.0299,1.554167 -0.041,1.418592 0.82715,1.559156 0.65238,0.105622 0.90969,0.106338 1.01437,0.0016 0.0365,-0.03652 0.23708,-0.588465 0.44657,-1.226148 l 0.38058,-1.158625 0.4389,-0.03377 c 0.24082,-0.01853 0.61545,-0.06391 0.83328,-0.09975 0.39433,-0.06489 0.39717,-0.06467 0.4788,0.03377 0.0451,0.05439 0.32551,0.514785 0.62459,1.023581 0.29906,0.508795 0.58657,0.96123 0.63839,1.003629 0.14188,0.1161 0.24317,0.09752 0.92843,-0.164202 0.65352,-0.249602 0.78463,-0.340745 0.78419,-0.546319 -1.4e-4,-0.06395 -0.10708,-0.620783 -0.23787,-1.238424 -0.13078,-0.617641 -0.22795,-1.139882 -0.21638,-1.158625 0.0116,-0.01876 0.16228,-0.12959 0.33608,-0.247072 0.1738,-0.117479 0.46455,-0.334788 0.64607,-0.483399 0.18153,-0.148611 0.3491,-0.270062 0.37137,-0.27009 0.0223,-3.3e-5 0.4972,0.254902 1.05581,0.566268 1.14199,0.636533 1.13494,0.63338 1.286,0.595426 0.16073,-0.04037 1.02818,-1.131788 1.02818,-1.293669 0,-0.151445 -0.0366,-0.198516 -0.90081,-1.161696 -0.38799,-0.432433 -0.71229,-0.821675 -0.71973,-0.865515 -0.008,-0.04383 0.0674,-0.239956 0.16574,-0.435827 0.0984,-0.195873 0.23881,-0.510286 0.31306,-0.698245 0.0742,-0.187958 0.15444,-0.360957 0.17801,-0.385185 0.0255,-0.02618 0.54132,-0.05288 1.27219,-0.06599 1.17255,-0.02101 1.23363,-0.02724 1.32129,-0.115096 0.072,-0.07211 0.11448,-0.234492 0.19796,-0.748886 0.0586,-0.361241 0.10707,-0.698594 0.10742,-0.750421 0.002,-0.209397 -0.12431,-0.273404 -1.31975,-0.67062 L 24.514,16.940324 24.4649,16.370987 c -0.0273,-0.313105 -0.0713,-0.686565 -0.0982,-0.828687 -0.0269,-0.14212 -0.038,-0.275915 -0.0246,-0.297711 0.0135,-0.02178 0.4637,-0.299472 1.00056,-0.616911 0.53686,-0.317439 1.01977,-0.625352 1.07422,-0.684434 0.0544,-0.05908 0.0997,-0.157386 0.0997,-0.217913 0,-0.173575 -0.47281,-1.351699 -0.57701,-1.437922 -0.13238,-0.109545 -0.22285,-0.100209 -1.27525,0.124302 -1.23568,0.263615 -1.3021,0.27539 -1.34739,0.244002 -0.0212,-0.01468 -0.13409,-0.17055 -0.25013,-0.34682 -0.11605,-0.17627 -0.32821,-0.463352 -0.47113,-0.638395 -0.14292,-0.175038 -0.25931,-0.337213 -0.25935,-0.359097 -2e-5,-0.02189 0.25569,-0.496207 0.56781,-1.055806 0.3121,-0.5596231 0.57864,-1.0597691 0.59389,-1.1110841 0.0527,-0.177507 -0.0573,-0.315199 -0.61078,-0.759628 -0.58985,-0.473634 -0.69322,-0.51746 -0.90388,-0.372908 -0.0598,0.04109 -0.47973,0.407713 -0.9315,0.814873 -0.45178,0.407161 -0.85278,0.741214 -0.89161,0.741214 -0.0388,0 -0.24294,-0.0875 -0.45424,-0.19336 -0.21129,-0.105845 -0.5133,-0.236549 -0.67062,-0.291566 -0.46091,-0.161183 -0.44025,-0.09408 -0.44043,-1.425646 -1.5e-4,-1.058517 -0.007,-1.162857 -0.0844,-1.290601 -0.051,-0.08371 -0.13388,-0.148313 -0.20871,-0.164208 -0.19017,-0.04045 -1.25961,-0.202118 -1.34125,-0.202646 z"
     style="opacity:0.1;fill:#000000"
     id="path2942"
     sodipodi:nodetypes="ccccscssscscsssssssssssssscccsssssssssssssssssscsssscsssssssssssssssscssssssccccscsssssssssssssssssscscc" />
  <path
     d="m 16.96079,5.0000059 c -0.19003,-0.0011 -0.26363,0.149531 -0.64914,1.322828 l -0.38365,1.166298 -0.58468,0.05218 c -0.32201,0.02909 -0.69386,0.07543 -0.82562,0.102818 -0.17419,0.03619 -0.25535,0.03701 -0.29771,0.0016 -0.032,-0.02662 -0.30355,-0.466732 -0.6031,-0.977546 -0.59864,-1.020841 -0.7202,-1.184714 -0.88854,-1.184714 -0.17691,0 -1.36234,0.472137 -1.44866,0.577011 -0.0424,0.05148 -0.0759,0.1572 -0.0752,0.23326 5.5e-4,0.07606 0.10705,0.632718 0.23633,1.238424 0.12928,0.605712 0.22732,1.122122 0.21791,1.146349 -0.009,0.0242 -0.15012,0.125695 -0.31306,0.227121 -0.16294,0.101426 -0.45926,0.315165 -0.65681,0.474192 -0.19754,0.159028 -0.37754,0.29004 -0.40053,0.29004 -0.023,0 -0.48478,-0.250935 -1.02665,-0.557061 C 8.14751,8.4833689 8.0945,8.4590929 7.93732,8.5189169 7.7675,8.5835469 6.93369,9.6416009 6.93369,9.7926371 c 0,0.163691 0.0403,0.2146739 0.89007,1.1601599 0.40626,0.452024 0.73814,0.854055 0.73814,0.893138 0,0.03905 -0.085,0.244264 -0.19029,0.455778 -0.10527,0.211514 -0.24593,0.527425 -0.31153,0.701313 -0.0656,0.173883 -0.14346,0.335755 -0.17341,0.360632 -0.0334,0.02783 -0.52346,0.05028 -1.27218,0.05831 -1.50214,0.01612 -1.36998,-0.05622 -1.51159,0.837892 -0.0548,0.346319 -0.10147,0.681875 -0.10281,0.745818 -0.005,0.238222 0.0958,0.291106 1.31822,0.693641 l 1.16476,0.383651 0.0507,0.570871 c 0.0284,0.314481 0.0736,0.68876 0.0997,0.830221 0.0261,0.141465 0.0363,0.274673 0.023,0.296178 -0.0133,0.02151 -0.46352,0.298723 -1.00056,0.61691 -0.53704,0.318193 -1.01976,0.627354 -1.07422,0.685967 -0.0545,0.05862 -0.0998,0.158558 -0.0998,0.222518 0,0.187116 0.47995,1.368013 0.58622,1.442527 0.13893,0.09741 0.25888,0.083 1.45941,-0.17341 0.60483,-0.129185 1.12036,-0.225267 1.14481,-0.214844 0.0244,0.01045 0.12714,0.150814 0.22866,0.313059 0.10151,0.162239 0.31629,0.459248 0.47726,0.659878 0.20029,0.24964 0.28322,0.388616 0.26395,0.438897 -0.0155,0.04043 -0.26348,0.493174 -0.55246,1.006699 -0.59229,1.052549 -0.62639,1.125749 -0.58775,1.279859 0.0395,0.157608 1.12887,1.02858 1.286,1.028184 0.16206,-4.07e-4 0.23967,-0.05965 1.14788,-0.880862 0.44212,-0.399769 0.83705,-0.732633 0.87779,-0.739679 0.0408,-0.0071 0.251,0.07512 0.46806,0.182618 0.21705,0.107498 0.54903,0.249892 0.7366,0.316128 0.18758,0.06623 0.34511,0.122917 0.34989,0.125838 0.005,0.0027 0.0188,0.574712 0.0322,1.270651 0.0299,1.554167 -0.041,1.418592 0.82715,1.559156 0.65238,0.105622 0.90969,0.106338 1.01437,0.0016 0.0365,-0.03652 0.23708,-0.588465 0.44657,-1.226148 l 0.38058,-1.158625 0.4389,-0.03377 c 0.24082,-0.01853 0.61545,-0.06391 0.83328,-0.09975 0.39433,-0.06489 0.39717,-0.06467 0.4788,0.03377 0.0451,0.05439 0.32551,0.514785 0.62459,1.023581 0.29906,0.508795 0.58657,0.96123 0.63839,1.003629 0.14188,0.1161 0.24317,0.09752 0.92843,-0.164202 0.65352,-0.249602 0.78463,-0.340745 0.78419,-0.546319 -1.4e-4,-0.06395 -0.10708,-0.620783 -0.23787,-1.238424 -0.13078,-0.617641 -0.22795,-1.139882 -0.21638,-1.158625 0.0116,-0.01876 0.16228,-0.12959 0.33608,-0.247072 0.1738,-0.117479 0.46455,-0.334788 0.64607,-0.483399 0.18153,-0.148611 0.3491,-0.270062 0.37137,-0.27009 0.0223,-3.3e-5 0.4972,0.254902 1.05581,0.566268 1.14199,0.636533 1.13494,0.63338 1.286,0.595426 0.16073,-0.04037 1.02818,-1.131788 1.02818,-1.293669 0,-0.151445 -0.0366,-0.198516 -0.90081,-1.161696 -0.38799,-0.432433 -0.71229,-0.821675 -0.71973,-0.865515 -0.008,-0.04383 0.0674,-0.239956 0.16574,-0.435827 0.0984,-0.195873 0.23881,-0.510286 0.31306,-0.698245 0.0742,-0.187958 0.15444,-0.360957 0.17801,-0.385185 0.0255,-0.02618 0.54132,-0.05288 1.27219,-0.06599 1.17255,-0.02101 1.23363,-0.02724 1.32129,-0.115096 0.072,-0.07211 0.11448,-0.234492 0.19796,-0.748886 0.0586,-0.361241 0.10707,-0.698594 0.10742,-0.750421 0.002,-0.209397 -0.12431,-0.273404 -1.31975,-0.67062 L 24.514,15.940313 24.4649,15.370976 c -0.0273,-0.313105 -0.0713,-0.686565 -0.0982,-0.828687 -0.0269,-0.14212 -0.038,-0.275915 -0.0246,-0.297711 0.0135,-0.02178 0.4637,-0.299472 1.00056,-0.616911 0.53686,-0.317439 1.01977,-0.625352 1.07422,-0.684434 0.0544,-0.05908 0.0997,-0.157386 0.0997,-0.217913 0,-0.173575 -0.47281,-1.351699 -0.57701,-1.437922 -0.13238,-0.109545 -0.22285,-0.100209 -1.27525,0.124302 -1.23568,0.263615 -1.3021,0.27539 -1.34739,0.244002 -0.0212,-0.01468 -0.13409,-0.17055 -0.25013,-0.34682 -0.11605,-0.17627 -0.32821,-0.463352 -0.47113,-0.638395 -0.14292,-0.175038 -0.25931,-0.337213 -0.25935,-0.359097 -2e-5,-0.02189 0.25569,-0.4962069 0.56781,-1.0558061 0.3121,-0.559623 0.57864,-1.059769 0.59389,-1.111084 0.0527,-0.177507 -0.0573,-0.315199 -0.61078,-0.759628 -0.58985,-0.473634 -0.69322,-0.51746 -0.90388,-0.372908 -0.0598,0.04109 -0.47973,0.407713 -0.9315,0.814873 -0.45178,0.407161 -0.85278,0.741214 -0.89161,0.741214 -0.0388,0 -0.24294,-0.0875 -0.45424,-0.19336 -0.21129,-0.105845 -0.5133,-0.236549 -0.67062,-0.291566 -0.46091,-0.161183 -0.44025,-0.09408 -0.44043,-1.425646 -1.5e-4,-1.058517 -0.007,-1.162857 -0.0844,-1.290601 -0.051,-0.08371 -0.13388,-0.148313 -0.20871,-0.164208 -0.19017,-0.04045 -1.25961,-0.202118 -1.34125,-0.202646 z"
     style="fill:#768b95"
     id="path2976"
     sodipodi:nodetypes="ccccscssscscsssssssssssssscccsssssssssssssssssscsssscsssssssssssssssscssssssccccscsssssssssssssssssscscc" />
  <path
     d="m 14,12.000011 v 5 h -3 l 5,6 5,-6 h -3 v -5 z"
     style="opacity:0.2;fill:#000000"
     id="path3088" />
  <path
     d="m 14,11.000011 v 5 h -3 l 5,6 5,-6 h -3 v -5 z"
     style="fill:#ffffff"
     id="path3060"
     sodipodi:nodetypes="cccccccc" />
  <path
     id="path3004"
     style="opacity:0.1;fill:#ffffff"
     d="m 16.96094,5.0000109 c -0.19003,-0.0011 -0.26293,0.14897 -0.64844,1.322266 l -0.38477,1.166015 -0.58398,0.05273 c -0.32201,0.02909 -0.69441,0.07613 -0.82617,0.103515 -0.17419,0.03619 -0.25452,0.03736 -0.29688,0.002 -0.032,-0.02662 -0.30396,-0.467702 -0.60351,-0.978515 -0.59864,-1.02084 -0.72033,-1.183594 -0.88867,-1.183594 -0.17691,0 -1.3629,0.471298 -1.44922,0.576172 -0.0424,0.05148 -0.0749,0.156362 -0.0742,0.232422 3.8e-4,0.05231 0.0573,0.361963 0.13086,0.728515 0.24122,-0.148923 1.23136,-0.537109 1.39258,-0.537109 0.16834,0 0.29003,0.162754 0.88867,1.183594 0.29955,0.510813 0.57151,0.951895 0.60351,0.978515 0.0424,0.03541 0.12269,0.03424 0.29688,-0.002 0.13176,-0.02739 0.50416,-0.07442 0.82617,-0.103515 l 0.58398,-0.05273 0.38477,-1.166015 c 0.38549,-1.173296 0.45839,-1.323366 0.64842,-1.322266 0.0816,5.28e-4 1.15162,0.162675 1.34179,0.203125 0.0748,0.0159 0.15604,0.08035 0.20704,0.164063 0.0774,0.127743 0.0858,0.232499 0.0859,1.291015 1.8e-4,1.331565 -0.0215,1.264599 0.43946,1.425781 0.15732,0.05502 0.46058,0.185171 0.67187,0.291016 0.2113,0.10586 0.41433,0.193359 0.45313,0.193359 0.0388,0 0.44079,-0.335027 0.89257,-0.742187 0.45177,-0.40716 0.87185,-0.773363 0.93165,-0.814453 0.21065,-0.144552 0.31249,-0.100587 0.90234,0.373047 0.13974,0.112207 0.25212,0.204523 0.33984,0.283203 0.14796,-0.273993 0.26225,-0.492349 0.27149,-0.523438 0.0527,-0.177507 -0.0578,-0.315337 -0.61133,-0.759765 -0.58985,-0.473634 -0.69364,-0.517599 -0.9043,-0.373047 -0.0598,0.04109 -0.47792,0.407293 -0.92969,0.814453 -0.45178,0.40716 -0.85374,0.742187 -0.89257,0.742187 -0.0388,0 -0.24378,-0.0875 -0.45508,-0.193359 -0.21129,-0.105845 -0.5126,-0.235999 -0.66992,-0.291016 -0.46091,-0.161182 -0.43928,-0.09422 -0.43946,-1.425781 -1.5e-4,-1.058516 -0.009,-1.163272 -0.0859,-1.291015 -0.051,-0.08371 -0.13221,-0.148168 -0.20704,-0.164063 -0.19017,-0.04045 -1.26015,-0.202597 -1.34179,-0.203125 z m -8.90625,3.498047 c -0.0445,-0.0037 -0.0779,0.0065 -0.11719,0.02148 -0.16982,0.06463 -1.00391,1.122402 -1.00391,1.2734382 0,0.109986 0.0408,0.190151 0.31055,0.5039059 0.25705,-0.3452469 0.59073,-0.7382841 0.69336,-0.7773441 0.15718,-0.05982 0.21005,-0.03569 1.32422,0.5937501 0.54187,0.306126 1.00434,0.556641 1.02734,0.556641 0.023,0 0.20285,-0.131988 0.40039,-0.291016 0.19755,-0.159027 0.49331,-0.37123 0.65625,-0.4726559 0.16294,-0.101426 0.3035,-0.2043162 0.3125,-0.2285162 0.008,-0.02002 -0.0661,-0.406133 -0.16211,-0.871093 -0.0469,0.03218 -0.0934,0.06413 -0.15039,0.09961 -0.16294,0.101426 -0.4587,0.313629 -0.65625,0.472656 -0.19754,0.159028 -0.3774,0.291016 -0.40039,0.291016 -0.023,0 -0.48547,-0.250515 -1.02734,-0.556641 C 8.42609,8.6412119 8.18813,8.5091489 8.05469,8.4980549 Z M 22.64258,10.73048 c -0.17131,0.313401 -0.30666,0.565324 -0.30664,0.580078 4e-5,0.02188 0.11684,0.184337 0.25976,0.359375 0.14292,0.175043 0.35466,0.462402 0.47071,0.638672 0.11604,0.17627 0.2288,0.332976 0.25,0.347656 0.0453,0.03139 0.11197,0.01947 1.34765,-0.244141 1.0524,-0.22451 1.14301,-0.234545 1.27539,-0.125 0.0554,0.04581 0.21234,0.39629 0.34961,0.744141 0.0349,-0.02506 0.11723,-0.07734 0.12696,-0.08789 0.0544,-0.05908 0.0996,-0.158223 0.0996,-0.21875 0,-0.173574 -0.47197,-1.351277 -0.57617,-1.4375 -0.13238,-0.109545 -0.22299,-0.09951 -1.27539,0.125 -1.23568,0.263615 -1.30236,0.275529 -1.34765,0.244141 -0.0212,-0.01468 -0.13396,-0.171386 -0.25,-0.347656 C 22.9614,11.149107 22.78247,10.906335 22.64258,10.73048 Z M 8.28516,12.484386 c -0.0869,0.185936 -0.17552,0.389395 -0.22461,0.519531 -0.0656,0.173883 -0.14388,0.334498 -0.17383,0.359375 -0.0334,0.02783 -0.52277,0.05056 -1.27149,0.05859 -1.50213,0.01612 -1.3701,-0.05622 -1.51171,0.837891 -0.0548,0.346318 -0.10218,0.68215 -0.10352,0.746093 -0.002,0.09368 0.0149,0.159626 0.10742,0.228516 0.13438,-0.863607 0.0221,-0.796556 1.50781,-0.8125 0.74872,-0.008 1.23809,-0.03076 1.27149,-0.05859 0.0299,-0.02488 0.10823,-0.185492 0.17383,-0.359375 0.0656,-0.173888 0.20527,-0.491611 0.31054,-0.703125 0.10529,-0.211514 0.19141,-0.416028 0.19141,-0.455078 0,-0.02182 -0.11527,-0.167722 -0.27734,-0.361328 z m 16.15625,2.695313 c -0.024,0.01629 -0.0974,0.06089 -0.0996,0.06445 -0.0134,0.0218 -0.002,0.156708 0.0254,0.298828 0.0269,0.142122 0.0704,0.51502 0.0976,0.828125 l 0.0488,0.568359 1.16602,0.386719 c 0.72876,0.242151 1.05782,0.361928 1.20508,0.464844 0.003,-0.0193 0.005,-0.02258 0.008,-0.04297 0.0586,-0.361241 0.10707,-0.698173 0.10742,-0.75 0.002,-0.209397 -0.12487,-0.27466 -1.32031,-0.671875 L 24.5138,15.93946 24.465,15.371101 c -0.006,-0.07241 -0.0157,-0.116152 -0.0234,-0.191406 z M 7.55664,17.843761 c -0.12314,0.08332 -0.45152,0.286785 -0.90039,0.552734 -0.53704,0.318193 -1.01976,0.628887 -1.07422,0.6875 -0.0545,0.05862 -0.0996,0.156744 -0.0996,0.220704 0,0.08634 0.1041,0.388222 0.22461,0.691406 0.15984,-0.114949 0.50708,-0.337646 0.94922,-0.59961 0.53704,-0.318186 0.9867,-0.595677 1,-0.617187 0.0133,-0.02151 0.003,-0.153457 -0.0234,-0.294922 -0.0201,-0.10916 -0.0498,-0.388651 -0.0762,-0.640625 z m 16.15234,2.695312 c -0.0363,0.07843 -0.0683,0.160339 -0.0996,0.222657 -0.0983,0.195871 -0.17207,0.391717 -0.16407,0.435547 0.007,0.04384 0.33076,0.432801 0.71875,0.865234 0.28211,0.314417 0.45465,0.50939 0.58789,0.664062 0.16995,-0.227799 0.3125,-0.438959 0.3125,-0.501953 0,-0.151444 -0.0362,-0.19893 -0.90039,-1.162109 -0.17574,-0.195876 -0.32899,-0.373372 -0.45508,-0.523438 z M 9.35352,22.298839 c -0.0984,0.17911 -0.12589,0.235615 -0.26368,0.480469 -0.59229,1.052548 -0.62653,1.125187 -0.58789,1.279297 0.0117,0.04659 0.12558,0.15874 0.26953,0.289062 0.0829,-0.150989 0.18284,-0.327524 0.31836,-0.568359 0.28898,-0.513525 0.53724,-0.967383 0.55274,-1.007813 0.0193,-0.05028 -0.0634,-0.189813 -0.26367,-0.439453 -0.008,-0.0097 -0.0174,-0.02307 -0.0254,-0.0332 z m 11.14843,1.939453 c -0.0564,0.04171 -0.15461,0.110174 -0.16015,0.119141 -0.0116,0.01874 0.086,0.540563 0.21679,1.158203 0.0385,0.181841 0.0674,0.326055 0.0996,0.486328 0.10531,-0.07668 0.13693,-0.148714 0.13672,-0.248047 -1.4e-4,-0.06395 -0.10554,-0.620641 -0.23633,-1.238281 -0.0225,-0.106495 -0.0365,-0.178613 -0.0566,-0.277344 z" />
  <path
     d="M 8,2.0000001 C 4.6760033,2.0000001 2,4.6760035 2,8 V 9 C 2,5.6760035 4.6760033,3 8,3 h 16 c 3.323996,0 6,2.6760035 6,6 V 8 C 30,4.6760035 27.323996,2.0000001 24,2.0000001 Z"
     style="opacity:0.1;fill:#ffffff;stroke-width:2;stroke-linecap:square"
     id="path1040"
     sodipodi:nodetypes="sscsscsss" />
</svg>
