<?xml version="1.0" encoding="UTF-8" standalone="no"?>
<!-- Created with Inkscape (http://www.inkscape.org/) -->

<svg
   width="32"
   height="32"
   viewBox="0 0 32 32"
   version="1.1"
   id="svg5"
   inkscape:version="1.3.2 (091e20ef0f, 2023-11-25, custom)"
   sodipodi:docname="vivaldi.svg"
   xmlns:inkscape="http://www.inkscape.org/namespaces/inkscape"
   xmlns:sodipodi="http://sodipodi.sourceforge.net/DTD/sodipodi-0.dtd"
   xmlns="http://www.w3.org/2000/svg"
   xmlns:svg="http://www.w3.org/2000/svg">
  <sodipodi:namedview
     id="namedview7"
     pagecolor="#ffffff"
     bordercolor="#000000"
     borderopacity="0.25"
     inkscape:showpageshadow="2"
     inkscape:pageopacity="0.0"
     inkscape:pagecheckerboard="0"
     inkscape:deskcolor="#d1d1d1"
     inkscape:document-units="px"
     showgrid="false"
     inkscape:zoom="25.125"
     inkscape:cx="16"
     inkscape:cy="15.9801"
     inkscape:window-width="1920"
     inkscape:window-height="1020"
     inkscape:window-x="0"
     inkscape:window-y="31"
     inkscape:window-maximized="1"
     inkscape:current-layer="svg5" />
  <defs
     id="defs2" />
  <rect
     style="opacity:0.2;fill:#000000;stroke-width:2;stroke-linecap:square"
     id="rect234"
     width="28"
     height="28"
     x="2"
     y="3"
     ry="6" />
  <rect
     style="fill:#ef3939;fill-opacity:1;stroke-width:2;stroke-linecap:square"
     id="rect396"
     width="28"
     height="28"
     x="2"
     y="2"
     ry="6" />
  <circle
     style="opacity:0.2;fill:#000000;fill-opacity:1;stroke-width:2;stroke-linecap:square"
     id="path2168"
     cx="16"
     cy="17"
     r="10" />
  <circle
     style="fill:#ffffff;fill-opacity:1;stroke-width:2;stroke-linecap:square"
     id="path2170"
     cx="16"
     cy="16"
     r="10" />
  <path
     id="path2148"
     style="fill:#cc2626"
     d="m 20.60742,10 c -0.26067,1.95e-4 -0.52506,0.05577 -0.73633,0.162109 -0.30872,0.155403 -0.61996,0.483093 -0.75781,0.800782 -0.14649,0.337616 -0.1664,0.93363 -0.043,1.25 0.0522,0.133782 0.14136,0.364553 0.19922,0.511718 0.13068,0.332357 0.17852,0.763226 0.0957,1.173829 -0.0933,0.462329 -0.38289,0.996321 -0.72265,1.332031 -1.01955,1.007273 -2.76082,1.023092 -3.77344,0.03906 -0.34943,-0.339572 -0.39919,-0.118757 -1.97656,-2.933593 -0.53516,-0.955746 -1.01558,-1.755966 -1.11524,-1.859376 -0.31344,-0.331686 -0.74934,-0.451148 -1.14843,-0.453124 -0.858,-0.01392 -1.45262,0.658257 -1.59375,1.378906 -0.10423,0.576706 -0.15246,0.477251 2.61914,5.416015 1.74943,3.117323 2.58043,4.554069 2.71679,4.695313 0.48295,0.500403 1.37177,0.62344 2.01563,0.326172 0.16929,-0.07817 0.36,-0.217854 0.48242,-0.353516 0.23979,-0.265724 4.99768,-9.068277 5.07813,-9.371094 0.0843,-0.317365 0.0647,-0.768013 -0.0488,-1.080078 -0.14117,-0.388157 -0.33077,-0.786538 -0.71485,-0.935547 -0.17241,-0.06688 -0.37343,-0.09977 -0.57617,-0.09961 z" />
  <path
     d="M 8,2.0000001 C 4.6760033,2.0000001 2,4.6760035 2,8 V 9 C 2,5.6760035 4.6760033,3 8,3 h 16 c 3.323996,0 6,2.6760035 6,6 V 8 C 30,4.6760035 27.323996,2.0000001 24,2.0000001 Z"
     style="opacity:0.2;fill:#ffffff;stroke-width:2;stroke-linecap:square"
     id="path1040" />
</svg>
