<?xml version="1.0" encoding="UTF-8" standalone="no"?>
<!-- Created with Inkscape (http://www.inkscape.org/) -->

<svg
   width="32"
   height="32"
   viewBox="0 0 32 32"
   version="1.1"
   id="svg5"
   inkscape:version="1.3 (0e150ed6c4, 2023-07-21)"
   sodipodi:docname="vscodium.svg"
   xmlns:inkscape="http://www.inkscape.org/namespaces/inkscape"
   xmlns:sodipodi="http://sodipodi.sourceforge.net/DTD/sodipodi-0.dtd"
   xmlns="http://www.w3.org/2000/svg"
   xmlns:svg="http://www.w3.org/2000/svg">
  <sodipodi:namedview
     id="namedview7"
     pagecolor="#ffffff"
     bordercolor="#000000"
     borderopacity="0.25"
     inkscape:showpageshadow="2"
     inkscape:pageopacity="0.0"
     inkscape:pagecheckerboard="0"
     inkscape:deskcolor="#d1d1d1"
     inkscape:document-units="px"
     showgrid="false"
     inkscape:zoom="25.09375"
     inkscape:cx="16"
     inkscape:cy="16"
     inkscape:window-width="1850"
     inkscape:window-height="1011"
     inkscape:window-x="70"
     inkscape:window-y="32"
     inkscape:window-maximized="1"
     inkscape:current-layer="svg5" />
  <defs
     id="defs2" />
  <rect
     style="opacity:0.2;fill:#000000;stroke-width:2;stroke-linecap:square"
     id="rect234"
     width="28"
     height="28"
     x="2"
     y="3"
     ry="6" />
  <rect
     style="fill:#e4e4e4;fill-opacity:1;stroke-width:2;stroke-linecap:square"
     id="rect396"
     width="28"
     height="28"
     x="2"
     y="2"
     ry="6" />
  <path
     d="m 15.653049,8.1895495 c -0.571,0.3572 -0.736,1.0965 -0.368,1.651 2.022,3.0526005 2.499,5.3546005 2.292,7.3726005 -0.837,3.864 -2.656,4.648 -4.245,4.648 -1.552,0 -1.137,-2.49 0.03,-3.219 0.696,-0.424 1.588,-0.699 2.273,-0.699 0.678,0 1.228,-0.535 1.228,-1.194 0,-0.66 -0.55,-1.194 -1.228,-1.194 -0.799,0 -1.584,0.163 -2.317,0.442 0.151,-0.688 0.205,-1.432 0.012,-2.222 -0.294,-1.2 -1.139,-2.3472 -2.606,-3.4584 -0.257,-0.1953 -0.583,-0.2828 -0.9069997,-0.2437 -0.3232,0.0392 -0.6173,0.201 -0.8177,0.4513 -0.4164,0.5205 -0.3197,1.271 0.2156,1.6758 1.1960997,0.905 1.5900997,1.576 1.7250997,2.127 0.135,0.552 0.027,1.144 -0.244,1.957 -0.347,1.096 -0.7494997,2.074 -0.9257997,3.012 -0.0866,0.462 -0.0941,0.964 -0.1163,1.366 -0.861,-0.818 -1.1983,-1.899 -1.1983,-3.477 0,-0.66 -0.5499,-1.194 -1.2281,-1.194 -0.6782,0.001 -1.2271,0.535 -1.2276,1.194 0,2.156 0.6465,4.207 2.3796,5.575 1.569,1.458 5.5584997,0.919 5.5584997,3.259 0,0.66 0.991,0.981 1.669,0.981 0.696,0 1.571,-0.453 1.571,-0.981 0,-2.655 2.869,-4.268 7.592,-4.261 0.679,0.001 1.229,-0.533 1.23,-1.192 10e-4,-0.66 -0.547,-1.196 -1.226,-1.197 -0.323,0 -0.638,0.011 -0.948,0.028 0.528,-1.211 0.762,-2.544 0.714,-3.983 -0.022,-0.659 -0.59,-1.176 -1.268,-1.155 -0.679,0.022 -1.21,0.574 -1.188,1.234 0.064,1.885 -0.008,3.569 -1.449,4.456 -0.41,0.252 -0.886,0.47 -1.337,0.47 0.35,-0.929 0.615,-1.91 0.723,-2.968 0.07,-0.675 0.077,-1.477 -0.002,-2.1 -0.123,-0.966 -0.271,-2.061 0.105,-2.885 0.338,-0.71 1.094,-1.0076 2.205,-1.0076 0.677,-6e-4 1.227,-0.5348 1.227,-1.1936 0,-0.6599005 -0.549,-1.1952005 -1.227,-1.1957005 -1.651,0 -2.901,0.8471 -3.611,1.8703005 -0.371,-0.7723 -0.822,-1.5681005 -1.368,-2.3918005 -0.176,-0.2661 -0.454,-0.4533 -0.772,-0.5205 -0.157,-0.033 -0.321,-0.0361 -0.479,-0.0086 -0.159,0.028 -0.311,0.086 -0.446,0.1709 z"
     style="opacity:0.2;fill:#000000"
     id="path3186"
     sodipodi:nodetypes="cccscsssccccccccccscccsssssccsccccccccscccccc" />
  <path
     d="m 15.653049,7.1894995 c -0.571,0.3572 -0.736,1.0965 -0.368,1.651 2.022,3.0526005 2.499,5.3546005 2.292,7.3726005 -0.837,3.864 -2.656,4.648 -4.245,4.648 -1.552,0 -1.137,-2.49 0.03,-3.219 0.696,-0.424 1.588,-0.699 2.273,-0.699 0.678,0 1.228,-0.535 1.228,-1.194 0,-0.66 -0.55,-1.194 -1.228,-1.194 -0.799,0 -1.584,0.163 -2.317,0.442 0.151,-0.688 0.205,-1.432 0.012,-2.222 -0.294,-1.2 -1.139,-2.3472 -2.606,-3.4584005 -0.257,-0.1953 -0.583,-0.2828 -0.9069997,-0.2437 -0.3232,0.0392 -0.6173,0.201 -0.8177,0.4513 -0.4164,0.5205005 -0.3197,1.2710005 0.2156,1.6758005 1.1960997,0.905 1.5900997,1.576 1.7250997,2.127 0.135,0.552 0.027,1.144 -0.244,1.957 -0.347,1.096 -0.7494997,2.074 -0.9257997,3.012 -0.0866,0.462 -0.0941,0.964 -0.1163,1.366 -0.861,-0.818 -1.1983,-1.899 -1.1983,-3.477 0,-0.66 -0.5499,-1.194 -1.2281,-1.194 -0.6782,0.001 -1.2271,0.535 -1.2276,1.194 0,2.156 0.6465,4.207 2.3796,5.575 1.569,1.458 5.5584997,0.919 5.5584997,3.259 0,0.66 0.991,0.981 1.669,0.981 0.696,0 1.571,-0.453 1.571,-0.981 0,-2.655 2.869,-4.268 7.592,-4.261 0.679,0.001 1.229,-0.533 1.23,-1.192 10e-4,-0.66 -0.547,-1.196 -1.226,-1.197 -0.323,0 -0.638,0.011 -0.948,0.028 0.528,-1.211 0.762,-2.544 0.714,-3.983 -0.022,-0.659 -0.59,-1.176 -1.268,-1.155 -0.679,0.022 -1.21,0.574 -1.188,1.234 0.064,1.885 -0.008,3.569 -1.449,4.456 -0.41,0.252 -0.886,0.47 -1.337,0.47 0.35,-0.929 0.615,-1.91 0.723,-2.968 0.07,-0.675 0.077,-1.477 -0.002,-2.1 -0.123,-0.966 -0.271,-2.061 0.105,-2.885 0.338,-0.71 1.094,-1.0076 2.205,-1.0076 0.677,-6e-4 1.227,-0.5348005 1.227,-1.1936005 0,-0.6599 -0.549,-1.1952 -1.227,-1.1957 -1.651,0 -2.901,0.8471 -3.611,1.8703 -0.371,-0.7723 -0.822,-1.5681 -1.368,-2.3918 -0.176,-0.2661 -0.454,-0.4533 -0.772,-0.5205 -0.157,-0.033 -0.321,-0.0361 -0.479,-0.0086 -0.159,0.028 -0.311,0.086 -0.446,0.1709 z"
     style="fill:#2689fd"
     id="path3158"
     sodipodi:nodetypes="cccscsssccccccccccscccsssssccsccccccccscccccc" />
  <g
     id="g361"
     transform="matrix(0.49999709,0,0,0.49999709,3.4946207e-5,3.492e-5)" />
  <path
     d="M 8,2.0000001 C 4.6760033,2.0000001 2,4.6760035 2,8 V 9 C 2,5.6760035 4.6760033,3 8,3 h 16 c 3.323996,0 6,2.6760035 6,6 V 8 C 30,4.6760035 27.323996,2.0000001 24,2.0000001 Z"
     style="opacity:0.2;fill:#ffffff;stroke-width:2;stroke-linecap:square"
     id="path1040"
     sodipodi:nodetypes="sscsscsss" />
</svg>
