<?xml version="1.0" encoding="UTF-8" standalone="no"?>
<!-- Created with Inkscape (http://www.inkscape.org/) -->

<svg
   width="32"
   height="32"
   viewBox="0 0 32 32"
   version="1.1"
   id="svg5"
   inkscape:version="1.3 (0e150ed6c4, 2023-07-21)"
   sodipodi:docname="waydroid.svg"
   xmlns:inkscape="http://www.inkscape.org/namespaces/inkscape"
   xmlns:sodipodi="http://sodipodi.sourceforge.net/DTD/sodipodi-0.dtd"
   xmlns="http://www.w3.org/2000/svg"
   xmlns:svg="http://www.w3.org/2000/svg">
  <sodipodi:namedview
     id="namedview7"
     pagecolor="#ffffff"
     bordercolor="#000000"
     borderopacity="0.25"
     inkscape:showpageshadow="2"
     inkscape:pageopacity="0.0"
     inkscape:pagecheckerboard="0"
     inkscape:deskcolor="#d1d1d1"
     inkscape:document-units="px"
     showgrid="false"
     inkscape:zoom="24.46875"
     inkscape:cx="16"
     inkscape:cy="16"
     inkscape:window-width="1920"
     inkscape:window-height="984"
     inkscape:window-x="0"
     inkscape:window-y="29"
     inkscape:window-maximized="1"
     inkscape:current-layer="svg5" />
  <defs
     id="defs2" />
  <rect
     style="opacity:0.2;fill:#000000;stroke-width:2;stroke-linecap:square"
     id="rect234"
     width="28"
     height="28"
     x="2"
     y="3"
     ry="6" />
  <rect
     style="fill:#efefef;fill-opacity:1;stroke-width:2;stroke-linecap:square"
     id="rect396"
     width="28"
     height="28"
     x="2"
     y="2"
     ry="6" />
  <path
     d="m 8.945312,7.0024047 c -0.19713,0.01053 -0.386734,0.07916 -0.544921,0.197266 C 7.957931,7.5307067 7.867837,8.15786 8.199219,8.600061 l 1.933593,2.576172 c -1.5742,1.354775 -2.67579,3.245739 -3.019531,5.388672 -0.01,0.06218 -0.0097,0.124797 -0.0059,0.189453 C 7.042762,17.166729 7.006868,17.583099 7,18.000452 c 0,4.970563 4.029437,9 9,9 4.970563,0 9,-4.029437 9,-9 -0.0035,-0.427653 -0.0374,-0.854516 -0.101563,-1.277344 0.002,-0.03221 0.0029,-0.06388 -0.002,-0.0957 -0.33204,-2.168389 -1.438328,-4.083195 -3.027346,-5.451175 l 1.93164,-2.576172 C 24.132163,8.15786 24.04207,7.5307067 23.599609,7.1996707 23.38767,7.0410247 23.12147,6.9728947 22.859375,7.0102177 c -0.263228,0.037278 -0.500777,0.17784 -0.660156,0.390625 L 20.214844,10.047327 C 18.957434,9.379624 17.522935,9.000452 16,9.000452 c -1.523407,0 -2.957154,0.378786 -4.214844,1.046875 L 9.800781,7.4008427 C 9.641402,7.1880577 9.403853,7.0474957 9.140625,7.0102177 c -0.06469,-0.009 -0.13011,-0.01159 -0.195313,-0.0078 z"
     style="opacity:0.2;fill:#000000;stroke-width:0.947368"
     id="path1" />
  <path
     style="fill:#37ce87;stroke-width:0.947368"
     d="m 24.305352,17.029557 c 0,4.970562 -3.14247,8.004162 -8.113031,8.004162 -4.970564,0 -8.7827585,-2.995878 -8.7827585,-7.96644 0,-0.488924 -0.3705759,-1.035794 -0.2955419,-1.503567 C 7.8018075,11.275948 11.518361,8.000226 16,8.000226 c 4.503578,0 8.234562,3.307873 8.895862,7.62653 0.06857,0.44781 -0.59051,0.935817 -0.59051,1.402801 z"
     id="path2" />
  <path
     style="fill:#fd9c01;stroke-width:0.947368"
     d="M 24.852898,15.391365 C 21.519795,16.112774 17.866029,16.526542 16,16.526542 c -1.947222,0 -5.631947,-0.370663 -8.8510486,-1.06949 A 9,9 0 0 0 7,17.000226 a 9,9 0 0 0 9,9 9,9 0 0 0 9,-9 9,9 0 0 0 -0.147102,-1.608861 z"
     id="path3" />
  <path
     id="path9"
     style="opacity:0.2;fill:#ffffff;stroke-width:0.947368"
     d="m 24.853516,15.390851 c -3.3331,0.721408 -6.987489,1.134766 -8.853516,1.134766 -1.94722,0 -5.632464,-0.369533 -8.8515625,-1.06836 A 9,9 0 0 0 7,17.000226 9,9 0 0 0 7.0292969,17.449445 9,9 0 0 1 7.1484375,16.457257 C 10.367536,17.156084 14.05278,17.52757 16,17.52757 c 1.866027,0 5.520416,-0.415311 8.853516,-1.136719 a 9,9 0 0 1 0.11914,1.023437 A 9,9 0 0 0 25,17.000226 9,9 0 0 0 24.853516,15.390851 Z" />
  <path
     style="opacity:0.2;fill:#000000;stroke-width:0.947368"
     d="m 23.629831,16.640226 c -1.011026,0.193015 -2.021127,0.352896 -2.987356,0.485712 l -0.877056,3.366674 -2.511821,-3.014187 c -0.467107,0.02894 -0.900331,0.04811 -1.253598,0.04811 -0.356757,0 -0.787268,-0.01701 -1.247121,-0.04164 l -2.517373,2.951281 -0.842825,-3.264905 C 10.382083,17.042931 9.3304297,16.883078 8.2924549,16.68741 l 2.4849921,7.433185 c 0.352374,0.717282 0.806905,0.584886 1.293379,0.183182 l 3.968031,-4.22934 3.836657,4.108144 c 0.461909,0.626148 1.10456,0.674034 1.426603,-0.450555 z"
     id="path5" />
  <path
     style="color:#000000;fill:#37ce87;stroke-linecap:round;stroke-linejoin:round;-inkscape-stroke:none"
     d="M 9.140625,6.0099916 A 1,1 0 0 0 8.4003906,6.1994447 1,1 0 0 0 8.1992187,7.5998354 l 3.0000003,3.9999996 a 1,1 0 0 0 1.40039,0.201172 1,1 0 0 0 0.201172,-1.40039 L 9.8007812,6.4006166 A 1,1 0 0 0 9.140625,6.0099916 Z"
     id="path4" />
  <path
     style="fill:#ffffff;stroke-width:0.947368"
     d="m 23.629831,15.640234 c -1.011026,0.193015 -2.021127,0.352896 -2.987356,0.485712 l -0.877056,3.366674 -2.511821,-3.014187 c -0.467107,0.02894 -0.900331,0.04811 -1.253598,0.04811 -0.356757,0 -0.787268,-0.01701 -1.247121,-0.04164 l -2.517373,2.951281 -0.842825,-3.264905 C 10.382082,16.042939 9.3304296,15.883086 8.2924548,15.687418 l 2.4849912,7.433185 c 0.352374,0.717282 0.806906,0.584886 1.29338,0.183182 l 3.968031,-4.22934 3.836657,4.108144 c 0.461909,0.626148 1.10456,0.674034 1.426603,-0.450555 z"
     id="path6" />
  <path
     style="color:#000000;fill:#37ce87;stroke-linecap:round;stroke-linejoin:round;-inkscape-stroke:none"
     d="m 22.859375,6.0099916 a 1,1 0 0 0 -0.660156,0.390625 l -3,4.0000004 a 1,1 0 0 0 0.201172,1.40039 1,1 0 0 0 1.40039,-0.201172 l 3,-3.9999996 A 1,1 0 0 0 23.599609,6.1994447 1,1 0 0 0 22.859375,6.0099916 Z"
     id="path7" />
  <path
     id="path8"
     style="opacity:0.2;fill:#ffffff;stroke-width:0.947368"
     d="M 8.9453125,6.0021791 C 8.7481827,6.0127091 8.5585775,6.0813389 8.4003906,6.1994448 7.9915534,6.5053251 7.8873848,7.0623627 8.1347656,7.4943666 8.2001776,7.3826427 8.290215,7.281875 8.4003906,7.1994448 8.5585775,7.0813389 8.7481827,7.0127091 8.9453125,7.0021791 c 0.065203,-0.00379 0.1306226,-0.00119 0.1953125,0.00781 0.2632277,0.037278 0.5007774,0.1778402 0.6601562,0.390625 L 11.785156,10.047101 C 13.042845,9.379013 14.476595,9.000226 16,9.000226 c 1.522933,0 2.957435,0.379173 4.214844,1.046875 l 1.984375,-2.6464844 c 0.159379,-0.2127848 0.396928,-0.353347 0.660156,-0.390625 0.262095,-0.037323 0.528296,0.030807 0.740234,0.1894532 0.110176,0.08243 0.200214,0.1831979 0.265625,0.2949218 C 24.112655,7.0623627 24.008448,6.5053251 23.599609,6.1994448 23.387671,6.0407989 23.12147,5.9726687 22.859375,6.0099916 22.596147,6.0472696 22.358598,6.1878318 22.199219,6.4006166 L 20.214844,9.047101 C 18.957435,8.379399 17.522933,8.000226 16,8.000226 c -1.523405,0 -2.957155,0.378787 -4.214844,1.046875 L 9.8007812,6.4006166 C 9.6414024,6.1878318 9.4038527,6.0472696 9.140625,6.0099916 c -0.06469,-0.009 -0.1301096,-0.011602 -0.1953125,-0.00781 z m 0.7441406,4.5839849 c -1.3363968,1.314901 -2.2657579,3.043348 -2.5761719,4.978515 -0.01,0.06218 -0.00966,0.124797 -0.00586,0.189453 C 7.0428029,16.166503 7.006868,16.582873 7,17.000226 c 0,0.195838 0.00916,0.389304 0.021484,0.582031 0.01747,-0.277128 0.042927,-0.55365 0.085937,-0.828125 -0.0038,-0.06466 -0.00414,-0.127273 0.00586,-0.189453 0.3437409,-2.142931 1.4453331,-4.033898 3.019532,-5.388672 z m 12.6230469,0 -0.443359,0.589843 c 1.589016,1.367979 2.695304,3.282785 3.027343,5.451172 0.0049,0.03182 0.004,0.06349 0.002,0.0957 0.04196,0.276505 0.06599,0.554936 0.08203,0.833985 C 24.991736,17.372494 25,17.187434 25,17.000226 24.9965,16.572573 24.9626,16.14571 24.898438,15.722882 c 0.002,-0.03221 0.0029,-0.06388 -0.002,-0.0957 -0.300094,-1.960073 -1.233851,-3.711935 -2.583938,-5.041018 z" />
  <path
     d="M 8,2.0000001 C 4.6760033,2.0000001 2,4.6760035 2,8 V 9 C 2,5.6760035 4.6760033,3 8,3 h 16 c 3.323996,0 6,2.6760035 6,6 V 8 C 30,4.6760035 27.323996,2.0000001 24,2.0000001 Z"
     style="opacity:0.2;fill:#ffffff;stroke-width:2;stroke-linecap:square"
     id="path1040"
     sodipodi:nodetypes="sscsscsss" />
</svg>
