<?xml version="1.0" encoding="UTF-8" standalone="no"?>
<!-- Created with Inkscape (http://www.inkscape.org/) -->

<svg
   width="32"
   height="32"
   viewBox="0 0 32 32"
   version="1.1"
   id="svg5"
   inkscape:version="1.3.2 (091e20ef0f, 2023-11-25, custom)"
   sodipodi:docname="winecfg.svg"
   xmlns:inkscape="http://www.inkscape.org/namespaces/inkscape"
   xmlns:sodipodi="http://sodipodi.sourceforge.net/DTD/sodipodi-0.dtd"
   xmlns="http://www.w3.org/2000/svg"
   xmlns:svg="http://www.w3.org/2000/svg">
  <sodipodi:namedview
     id="namedview7"
     pagecolor="#ffffff"
     bordercolor="#000000"
     borderopacity="0.25"
     inkscape:showpageshadow="2"
     inkscape:pageopacity="0.0"
     inkscape:pagecheckerboard="0"
     inkscape:deskcolor="#d1d1d1"
     inkscape:document-units="px"
     showgrid="false"
     inkscape:zoom="25.09375"
     inkscape:cx="15.980075"
     inkscape:cy="15.940224"
     inkscape:window-width="1920"
     inkscape:window-height="1008"
     inkscape:window-x="0"
     inkscape:window-y="0"
     inkscape:window-maximized="1"
     inkscape:current-layer="svg5" />
  <defs
     id="defs2" />
  <rect
     style="opacity:0.2;fill:#000000;stroke-width:2;stroke-linecap:square"
     id="rect234"
     width="28"
     height="28"
     x="2"
     y="3"
     ry="6" />
  <rect
     style="fill:#ac3131;fill-opacity:1;stroke-width:2;stroke-linecap:square"
     id="rect396"
     width="28"
     height="26"
     x="2"
     y="2"
     ry="6" />
  <path
     id="rect1"
     style="fill:#e7dbd0;fill-opacity:1;stroke-width:1.87083"
     d="m 10,14 c -4.6172649,0.0075 -8,2 -8,2 v 8 c 0,3.323991 2.6760099,6 6,6 h 16 c 3.323991,0 6,-2.676009 6,-6 v -8 c 0,0 -2.41856,1.267781 -8,1 -4.406835,-0.211427 -5.412435,-3.010731 -12,-3 z" />
  <path
     id="path1"
     style="fill:#ffffff;fill-opacity:1;stroke-width:1.87083;opacity:0.2"
     d="M 10 14 C 5.3827397 14.0075 2 16 2 16 L 2 17 C 2 17 5.3827397 15.0075 10 15 C 16.587558 14.989269 17.593169 17.788573 22 18 C 27.581434 18.267781 30 17 30 17 L 30 16 C 30 16 27.581434 17.267781 22 17 C 17.593169 16.788573 16.587558 13.989269 10 14 z " />
  <path
     d="M 8,2.0000001 C 4.6760033,2.0000001 2,4.6760035 2,8 V 9 C 2,5.6760035 4.6760033,3 8,3 h 16 c 3.323996,0 6,2.6760035 6,6 V 8 C 30,4.6760035 27.323996,2.0000001 24,2.0000001 Z"
     style="opacity:0.1;fill:#ffffff;stroke-width:2;stroke-linecap:square"
     id="path1040"
     sodipodi:nodetypes="sscsscsss" />
  <circle
     style="opacity:0.2;fill:#000000;stroke-width:1.4"
     id="path10"
     cx="24"
     cy="25"
     r="7" />
  <circle
     style="fill:#b7b7b7;fill-opacity:1;stroke-width:1.4"
     id="path11"
     cx="24"
     cy="24"
     r="7" />
  <path
     id="path9"
     style="fill:#ffffff"
     d="m 23,20 -0.08789,1.052734 c -0.333868,0.123723 -0.644256,0.303529 -0.917968,0.53125 l -0.958985,-0.449218 -1,1.730468 0.869141,0.603516 c -0.03101,0.175321 -0.04594,0.35321 -0.04687,0.53125 2.14e-4,0.178317 0.01452,0.355543 0.04492,0.53125 l -0.867188,0.603516 1,1.730468 0.955078,-0.449218 c 0.274839,0.22695 0.587157,0.404841 0.921875,0.527343 L 23,28 h 2 l 0.08789,-1.054688 c 0.333868,-0.123722 0.644256,-0.303528 0.917968,-0.53125 l 0.958985,0.451172 1,-1.730468 -0.871094,-0.605469 C 27.1247,24.354305 27.141588,24.177706 27.142578,24 c 1.17e-4,-0.178289 -0.01486,-0.355514 -0.04492,-0.53125 l 0.867188,-0.603516 -1,-1.730468 -0.957032,0.449218 C 25.733276,21.357132 25.422257,21.179245 25.087891,21.056641 L 25,20 Z m 1,3 a 1,1 0 0 1 1,1 1,1 0 0 1 -1,1 1,1 0 0 1 -1,-1 1,1 0 0 1 1,-1 z" />
  <path
     id="path12"
     style="opacity:0.2;fill:#ffffff;fill-opacity:1;stroke-width:1.4"
     d="m 24,17 a 7,7 0 0 0 -7,7 7,7 0 0 0 0.03516,0.5 A 7,7 0 0 1 24,18 7,7 0 0 1 30.972656,24.390625 7,7 0 0 0 31,24 7,7 0 0 0 24,17 Z" />
</svg>
