<?xml version="1.0" encoding="UTF-8" standalone="no"?>
<!-- Created with Inkscape (http://www.inkscape.org/) -->

<svg
   width="32"
   height="32"
   viewBox="0 0 32 32"
   version="1.1"
   id="svg5"
   inkscape:version="1.4.3 (0d15f75042, 2025-12-25)"
   sodipodi:docname="xbox.svg"
   xmlns:inkscape="http://www.inkscape.org/namespaces/inkscape"
   xmlns:sodipodi="http://sodipodi.sourceforge.net/DTD/sodipodi-0.dtd"
   xmlns="http://www.w3.org/2000/svg"
   xmlns:svg="http://www.w3.org/2000/svg">
  <sodipodi:namedview
     id="namedview7"
     pagecolor="#ffffff"
     bordercolor="#000000"
     borderopacity="0.25"
     inkscape:showpageshadow="2"
     inkscape:pageopacity="0.0"
     inkscape:pagecheckerboard="0"
     inkscape:deskcolor="#d1d1d1"
     inkscape:document-units="px"
     showgrid="false"
     inkscape:zoom="25.96875"
     inkscape:cx="16"
     inkscape:cy="16"
     inkscape:window-width="1920"
     inkscape:window-height="1012"
     inkscape:window-x="0"
     inkscape:window-y="0"
     inkscape:window-maximized="1"
     inkscape:current-layer="svg5" />
  <defs
     id="defs2" />
  <rect
     style="opacity:0.2;fill:#000000;stroke-width:2;stroke-linecap:square"
     id="rect234"
     width="28"
     height="28"
     x="2"
     y="3"
     ry="6" />
  <rect
     style="fill:#107c10;fill-opacity:1;stroke-width:2;stroke-linecap:square"
     id="rect396"
     width="28"
     height="28"
     x="2"
     y="2"
     ry="6" />
  <path
     d="M 8,2.0000001 C 4.6760033,2.0000001 2,4.6760035 2,8 V 9 C 2,5.6760035 4.6760033,3 8,3 h 16 c 3.323996,0 6,2.6760035 6,6 V 8 C 30,4.6760035 27.323996,2.0000001 24,2.0000001 Z"
     style="opacity:0.1;fill:#ffffff;stroke-width:2;stroke-linecap:square"
     id="path1040" />
  <path
     style="opacity:0.2"
     d="m 15.002785,26.958926 c -1.54069,-0.147524 -3.100441,-0.700453 -4.440293,-1.574219 -1.1227429,-0.731816 -1.3761143,-1.033139 -1.3761143,-1.633694 0,-1.206452 1.3273003,-3.319893 3.5983533,-5.728614 1.28941,-1.368382 3.085798,-2.97141 3.279894,-2.928197 0.377967,0.08434 3.397515,3.028095 4.528161,4.414132 1.787554,2.190805 2.609039,3.985266 2.191556,4.785154 -0.317298,0.607987 -2.286628,1.796552 -3.733176,2.253066 -1.192478,0.376362 -2.758506,0.535736 -4.048381,0.412372 z M 7.6698613,22.496703 C 6.7367998,21.066059 6.2653877,19.657718 6.0380505,17.620712 5.9627365,16.948137 5.9892355,16.563644 6.2084377,15.182717 6.4811034,13.463528 7.461352,11.472522 8.6398827,10.248181 9.1415141,9.727778 9.1861441,9.713838 9.7979577,9.920606 10.53948,10.171514 11.33214,10.718867 12.561809,11.830299 l 0.718277,0.64911 -0.392844,0.480908 C 11.067609,15.192939 9.1470927,18.359499 8.4241677,20.31798 8.0313241,21.382018 7.873257,22.450703 8.042947,22.895601 8.1568484,23.196226 8.052247,23.084247 7.6686991,22.4974 Z m 16.3769257,0.243242 c 0.09229,-0.449777 -0.02441,-1.275452 -0.297538,-2.108563 -0.591591,-1.803985 -2.569522,-5.159887 -4.385668,-7.441762 l -0.571832,-0.718343 0.618788,-0.567564 c 0.807537,-0.741109 1.36821,-1.184846 1.973514,-1.561906 0.477224,-0.297373 1.159471,-0.560595 1.452824,-0.560595 0.180615,0 0.817301,0.66212 1.331019,1.38232 0.795915,1.11515 1.381229,2.469592 1.677837,3.877468 0.191772,0.910706 0.207812,2.85757 0.03092,3.765952 -0.146444,0.745292 -0.45328,1.71129 -0.750818,2.366672 -0.225478,0.490899 -0.781039,1.444584 -1.025112,1.754967 -0.125525,0.159606 -0.125525,0.159373 -0.05579,-0.184929 z M 15.167827,9.440627 C 14.329605,9.015476 13.036708,8.558962 12.322616,8.4358313 c -0.250117,-0.042979 -0.677131,-0.067372 -0.948403,-0.053436 -0.589498,0.029736 -0.56323,-9.285e-4 0.381919,-0.4472214 0.785686,-0.37102 1.441201,-0.5891707 2.331491,-0.7759586 1.000705,-0.2102523 2.882402,-0.2125752 3.8673,-0.00514 1.063467,0.2241914 2.31615,0.6899985 3.021873,1.1244421 l 0.210137,0.1287072 -0.481176,-0.024164 C 19.748986,8.3347716 18.35474,8.721122 16.857751,9.448757 16.40633,9.668534 16.013951,9.843706 15.985128,9.839059 15.956538,9.833459 15.588563,9.654363 15.166896,9.440626 Z"
     id="path2" />
  <path
     style="fill:#ffffff"
     d="m 15.002785,25.958926 c -1.54069,-0.147524 -3.100441,-0.700453 -4.440293,-1.574219 -1.1227429,-0.731816 -1.3761143,-1.033139 -1.3761143,-1.633694 0,-1.206452 1.3273003,-3.319893 3.5983533,-5.728614 1.28941,-1.368382 3.085798,-2.97141 3.279894,-2.928197 0.377967,0.08434 3.397515,3.028095 4.528161,4.414132 1.787554,2.190805 2.609039,3.985266 2.191556,4.785154 -0.317298,0.607987 -2.286628,1.796552 -3.733176,2.253066 -1.192478,0.376362 -2.758506,0.535736 -4.048381,0.412372 z M 7.6698613,21.496703 C 6.7367998,20.066059 6.2653877,18.657718 6.0380505,16.620712 5.9627361,15.948137 5.9892355,15.563644 6.2084377,14.182717 6.4811034,12.463528 7.461352,10.472522 8.6398827,9.248181 9.1415141,8.7277777 9.1861441,8.7138384 9.7979577,8.9206056 10.53948,9.171514 11.33214,9.718867 12.561809,10.830299 l 0.718277,0.64911 -0.392844,0.480908 C 11.067609,14.192939 9.1470927,17.359499 8.4241677,19.31798 8.0313241,20.382018 7.873257,21.450703 8.042947,21.895601 8.1568484,22.196226 8.052247,22.084247 7.6686991,21.4974 Z m 16.3769257,0.243242 c 0.09229,-0.449777 -0.02441,-1.275452 -0.297538,-2.108563 -0.591591,-1.803985 -2.569522,-5.159887 -4.385668,-7.441762 l -0.571832,-0.718343 0.618788,-0.567564 c 0.807537,-0.741109 1.36821,-1.184846 1.973514,-1.561906 0.477224,-0.297373 1.159471,-0.560595 1.452824,-0.560595 0.180615,0 0.817301,0.66212 1.331019,1.38232 0.795915,1.11515 1.381229,2.469592 1.677837,3.877468 0.191772,0.910706 0.207812,2.85757 0.03092,3.765952 -0.146444,0.745292 -0.45328,1.71129 -0.750818,2.366672 -0.225478,0.490899 -0.781039,1.444584 -1.025112,1.754967 -0.125525,0.159606 -0.125525,0.159373 -0.05579,-0.184929 z M 15.167827,8.440627 C 14.329605,8.0154763 13.036708,7.558962 12.322616,7.4358313 c -0.250117,-0.042979 -0.677131,-0.067372 -0.948403,-0.053436 -0.589498,0.029736 -0.56323,-9.285e-4 0.381919,-0.4472214 0.785686,-0.37102 1.441201,-0.5891707 2.331491,-0.7759586 1.000705,-0.2102523 2.882402,-0.2125752 3.8673,-0.00514 1.063467,0.2241914 2.31615,0.6899985 3.021873,1.1244421 l 0.210137,0.1287072 -0.481176,-0.024164 C 19.748986,7.3347716 18.35474,7.721122 16.857751,8.448757 16.40633,8.6685341 16.013951,8.8437056 15.985128,8.8390591 15.956538,8.8334891 15.588563,8.6543627 15.166896,8.4406256 Z"
     id="path3" />
</svg>
