<?xml version="1.0" encoding="UTF-8" standalone="no"?>
<!-- Created with Inkscape (http://www.inkscape.org/) -->

<svg
   width="32"
   height="32"
   viewBox="0 0 32 32"
   version="1.1"
   id="svg5"
   inkscape:version="1.3 (0e150ed6c4, 2023-07-21)"
   sodipodi:docname="xorg.svg"
   xmlns:inkscape="http://www.inkscape.org/namespaces/inkscape"
   xmlns:sodipodi="http://sodipodi.sourceforge.net/DTD/sodipodi-0.dtd"
   xmlns="http://www.w3.org/2000/svg"
   xmlns:svg="http://www.w3.org/2000/svg">
  <sodipodi:namedview
     id="namedview7"
     pagecolor="#ffffff"
     bordercolor="#000000"
     borderopacity="0.25"
     inkscape:showpageshadow="2"
     inkscape:pageopacity="0.0"
     inkscape:pagecheckerboard="0"
     inkscape:deskcolor="#d1d1d1"
     inkscape:document-units="px"
     showgrid="false"
     inkscape:zoom="25.09375"
     inkscape:cx="16"
     inkscape:cy="16"
     inkscape:window-width="1850"
     inkscape:window-height="1011"
     inkscape:window-x="70"
     inkscape:window-y="32"
     inkscape:window-maximized="1"
     inkscape:current-layer="svg5" />
  <defs
     id="defs2" />
  <rect
     style="opacity:0.2;fill:#000000;stroke-width:2;stroke-linecap:square"
     id="rect234"
     width="28"
     height="28"
     x="2"
     y="3"
     ry="6" />
  <rect
     style="fill:#bcbcbc;fill-opacity:1;stroke-width:2;stroke-linecap:square"
     id="rect396"
     width="28"
     height="28"
     x="2"
     y="2"
     ry="6" />
  <path
     d="M 7,8 14,17.693359 8,26 H 9 L 14.5,18.384766 17,14.923828 12,8 Z M 23,8 15,19.076172 20,26 h 5 L 18,16.306641 24,8 Z"
     style="opacity:0.2;fill:#000000;fill-opacity:1;stroke-width:1.63299"
     id="path1" />
  <path
     id="rect2346"
     style="fill:#4d4d4d;fill-opacity:1;stroke-width:1.63299"
     d="M 7,7 14,16.693359 8,25 H 9 L 14.5,17.384766 17,13.923828 12,7 Z M 23,7 15,18.076172 20,25 h 5 L 18,15.306641 24,7 Z" />
  <path
     d="m 16,11 c -0.536936,0 -1.110642,0.04103 -1.626953,0.08984 0.919874,1.185249 1.681923,2.189517 2.560547,3.330078 -0.492938,-1.048435 -1.506188,-2.055266 -1.15625,-2.572266 0.347186,-0.511499 0.986344,-0.425781 1.035156,-0.425781 1.024374,0 2.011658,0.11511 2.933594,0.326172 l 0.214844,-0.292969 C 18.731002,11.142269 17.397,11 16,11 Z m 5.548828,0.957031 -0.199219,0.28125 c 2.840748,1.099312 4.761719,3.19669 4.761719,5.601563 0,3.542684 -4.165958,6.417968 -9.298828,6.417968 -5.13287,0 -9.3007813,-2.873332 -9.3007812,-6.416015 0,-1.781816 1.0566303,-3.395135 2.7578122,-4.558594 L 9.6601561,12.296875 C 6.8421002,13.607112 5,15.764466 5,18.205078 5,22.198761 9.9280061,25.4375 16,25.4375 c 6.071307,0 11,-3.239425 11,-7.232422 0,-2.663372 -2.190362,-4.991986 -5.451172,-6.248047 z"
     style="opacity:0.2;fill:#000000;fill-opacity:1;stroke-width:0.528846"
     id="path1-3" />
  <path
     id="path3649"
     style="fill:#f88c18;fill-opacity:1;stroke-width:0.528846"
     d="m 16,10 c -0.536936,0 -1.110642,0.04103 -1.626953,0.08984 0.919874,1.185249 1.681923,2.189517 2.560547,3.330078 -0.492938,-1.048435 -1.506188,-2.055266 -1.15625,-2.572266 0.347186,-0.511499 0.986344,-0.425781 1.035156,-0.425781 1.024374,0 2.011658,0.11511 2.933594,0.326172 l 0.214844,-0.292969 C 18.731002,10.142269 17.397,10 16,10 Z m 5.548828,0.957031 -0.199219,0.28125 c 2.840748,1.099312 4.761719,3.19669 4.761719,5.601563 0,3.542684 -4.165958,6.417968 -9.298828,6.417968 -5.13287,0 -9.3007813,-2.873332 -9.3007812,-6.416015 0,-1.781816 1.0566303,-3.395135 2.7578122,-4.558594 L 9.6601563,11.296875 C 6.8421002,12.607112 5,14.764466 5,17.205078 5,21.198761 9.9280063,24.4375 16,24.4375 c 6.071307,0 11,-3.239425 11,-7.232422 0,-2.663372 -2.190362,-4.991986 -5.451172,-6.248047 z" />
  <path
     id="path1040"
     style="opacity:0.2;fill:#ffffff;stroke-width:2;stroke-linecap:square"
     d="M 8,2 C 4.6760066,2 2,4.6760068 2,8 V 9 C 2,5.6760035 4.6760033,3 8,3 h 16 c 3.323997,0 6,2.6760035 6,6 V 8 C 30,4.6760068 27.323993,2 24,2 Z" />
</svg>
