<?xml version="1.0" encoding="UTF-8" standalone="no"?>
<!-- Created with Inkscape (http://www.inkscape.org/) -->

<svg
   width="32"
   height="32"
   viewBox="0 0 32 32"
   version="1.1"
   id="svg5"
   inkscape:version="1.3.2 (091e20ef0f, 2023-11-25, custom)"
   sodipodi:docname="yast-snapper.svg"
   xmlns:inkscape="http://www.inkscape.org/namespaces/inkscape"
   xmlns:sodipodi="http://sodipodi.sourceforge.net/DTD/sodipodi-0.dtd"
   xmlns="http://www.w3.org/2000/svg"
   xmlns:svg="http://www.w3.org/2000/svg">
  <sodipodi:namedview
     id="namedview7"
     pagecolor="#ffffff"
     bordercolor="#000000"
     borderopacity="0.25"
     inkscape:showpageshadow="2"
     inkscape:pageopacity="0.0"
     inkscape:pagecheckerboard="0"
     inkscape:deskcolor="#d1d1d1"
     inkscape:document-units="px"
     showgrid="false"
     inkscape:zoom="25.53125"
     inkscape:cx="15.980416"
     inkscape:cy="16"
     inkscape:window-width="1920"
     inkscape:window-height="1020"
     inkscape:window-x="0"
     inkscape:window-y="31"
     inkscape:window-maximized="1"
     inkscape:current-layer="svg5" />
  <defs
     id="defs2" />
  <rect
     style="opacity:0.2;fill:#000000;stroke-width:2;stroke-linecap:square"
     id="rect234"
     width="28"
     height="28"
     x="2"
     y="3"
     ry="6" />
  <rect
     style="fill:#5db43e;fill-opacity:1;stroke-width:2;stroke-linecap:square"
     id="rect396"
     width="28"
     height="28"
     x="2"
     y="2"
     ry="6" />
  <path
     id="path2"
     d="M 16.017578 9 C 15.238679 8.99225 14.465043 9.1033614 13.714844 9.3007812 C 10.218247 10.201381 7.6130027 13.509132 7.6660156 16.986328 L 6 16.986328 L 8.6660156 20.826172 C 9.5549147 19.546173 10.444785 18.266327 11.333984 16.986328 L 9.6660156 16.986328 C 9.6593156 15.53003 10.228782 14.079286 11.238281 12.992188 C 13.135779 10.80155 16.692846 10.284801 19.214844 11.75 C 20.052653 12.802899 21.913739 11.646205 20.9375 10.566406 C 19.548901 9.5279371 17.770776 9.0037 16.017578 9 z M 23.332031 13.160156 L 20.666016 17.001953 L 22.332031 17.001953 C 22.340531 18.542152 21.69903 20.072735 20.582031 21.177734 C 18.653233 23.210812 15.230607 23.66178 12.787109 22.238281 C 11.94157 21.175782 10.055801 22.322123 11.0625 23.419922 C 13.035598 24.89272 15.751546 25.362459 18.152344 24.71875 C 21.71024 23.865751 24.379281 20.52065 24.332031 17.001953 L 26 17.001953 C 25.111001 15.721954 24.221983 14.440155 23.333984 13.160156 L 23.332031 13.160156 z "
     style="fill:#000000;opacity:0.2" />
  <path
     id="path4"
     d="M 16.017578 8 C 15.238679 7.99225 14.465043 8.1033614 13.714844 8.3007812 C 10.218247 9.2013803 7.6130027 12.509132 7.6660156 15.986328 L 6 15.986328 L 8.6660156 19.826172 C 9.5549147 18.546173 10.444785 17.266327 11.333984 15.986328 L 9.6660156 15.986328 C 9.6593156 14.53003 10.228782 13.079286 11.238281 11.992188 C 13.135779 9.8015495 16.692846 9.2848013 19.214844 10.75 C 20.052653 11.802899 21.913739 10.646205 20.9375 9.5664062 C 19.548901 8.5279373 17.770776 8.0037 16.017578 8 z M 23.333984 12.160156 L 23.332031 12.162109 L 20.666016 16.001953 L 22.332031 16.001953 C 22.340531 17.542152 21.69903 19.072735 20.582031 20.177734 C 18.653233 22.210812 15.230607 22.66178 12.787109 21.238281 C 11.94157 20.175782 10.055801 21.322123 11.0625 22.419922 C 13.035598 23.89272 15.751546 24.362459 18.152344 23.71875 C 21.71024 22.865751 24.379281 19.52065 24.332031 16.001953 L 26 16.001953 C 25.111001 14.721954 24.221983 13.440155 23.333984 12.160156 z "
     style="fill:#ffffff" />
  <path
     d="M 8,2.0000001 C 4.6760033,2.0000001 2,4.6760035 2,8 V 9 C 2,5.6760035 4.6760033,3 8,3 h 16 c 3.323996,0 6,2.6760035 6,6 V 8 C 30,4.6760035 27.323996,2.0000001 24,2.0000001 Z"
     style="opacity:0.2;fill:#ffffff;stroke-width:2;stroke-linecap:square"
     id="path1040" />
</svg>
