<?xml version="1.0" encoding="UTF-8" standalone="no"?>
<!-- Created with Inkscape (http://www.inkscape.org/) -->

<svg
   width="32"
   height="32"
   viewBox="0 0 32 32"
   version="1.1"
   id="svg5"
   inkscape:version="1.3 (0e150ed6c4, 2023-07-21)"
   sodipodi:docname="zanshin.svg"
   xmlns:inkscape="http://www.inkscape.org/namespaces/inkscape"
   xmlns:sodipodi="http://sodipodi.sourceforge.net/DTD/sodipodi-0.dtd"
   xmlns="http://www.w3.org/2000/svg"
   xmlns:svg="http://www.w3.org/2000/svg">
  <sodipodi:namedview
     id="namedview7"
     pagecolor="#ffffff"
     bordercolor="#000000"
     borderopacity="0.25"
     inkscape:showpageshadow="2"
     inkscape:pageopacity="0.0"
     inkscape:pagecheckerboard="0"
     inkscape:deskcolor="#d1d1d1"
     inkscape:document-units="px"
     showgrid="false"
     inkscape:zoom="24.46875"
     inkscape:cx="15.979566"
     inkscape:cy="16"
     inkscape:window-width="1920"
     inkscape:window-height="984"
     inkscape:window-x="0"
     inkscape:window-y="29"
     inkscape:window-maximized="1"
     inkscape:current-layer="svg5" />
  <defs
     id="defs2" />
  <rect
     style="opacity:0.2;fill:#000000;stroke-width:2;stroke-linecap:square"
     id="rect234"
     width="28"
     height="28"
     x="2"
     y="3"
     ry="6" />
  <rect
     style="fill:#e4e4e4;fill-opacity:1;stroke-width:2;stroke-linecap:square"
     id="rect396"
     width="28"
     height="28"
     x="2"
     y="2"
     ry="6" />
  <rect
     style="fill:#182d33;fill-opacity:1;stroke-width:2;stroke-linecap:round;stroke-linejoin:round"
     id="rect1"
     width="22"
     height="22"
     x="5"
     y="5"
     ry="3" />
  <circle
     style="opacity:0.2;fill:#000000;fill-opacity:1;stroke-width:2;stroke-linecap:round;stroke-linejoin:round"
     id="path1"
     cx="16"
     cy="17"
     r="8" />
  <circle
     style="fill:#223f48;fill-opacity:1;stroke-width:2;stroke-linecap:round;stroke-linejoin:round"
     id="path2"
     cx="16"
     cy="16"
     r="8" />
  <path
     id="path3"
     style="opacity:0.1;fill:#ffffff;stroke-linecap:round;stroke-linejoin:round"
     d="M 16,8 A 8,8 0 0 0 8,16 8,8 0 0 0 8.0351562,16.5 8,8 0 0 1 16,9 8,8 0 0 1 23.972656,16.376953 8,8 0 0 0 24,16 8,8 0 0 0 16,8 Z" />
  <circle
     style="opacity:0.2;fill:#000000;fill-opacity:1;stroke-width:2;stroke-linecap:round;stroke-linejoin:round"
     id="path4"
     cx="16"
     cy="17"
     r="5" />
  <circle
     style="fill:#325e6a;fill-opacity:1;stroke-width:2;stroke-linecap:round;stroke-linejoin:round"
     id="path5"
     cx="16"
     cy="16"
     r="5" />
  <path
     id="path6"
     style="opacity:0.1;fill:#ffffff;stroke-linecap:round;stroke-linejoin:round"
     d="m 16,11 a 5,5 0 0 0 -5,5 5,5 0 0 0 0.03516,0.5 A 5,5 0 0 1 16,12 5,5 0 0 1 20.96875,16.445312 5,5 0 0 0 21,16 5,5 0 0 0 16,11 Z" />
  <circle
     style="opacity:0.2;fill:#000000;fill-opacity:1;stroke-width:2;stroke-linecap:round;stroke-linejoin:round"
     id="path7"
     cx="16"
     cy="17"
     r="2" />
  <circle
     style="fill:#1996b4;fill-opacity:1;stroke-width:2;stroke-linecap:round;stroke-linejoin:round"
     id="path8"
     cx="16"
     cy="16"
     r="2" />
  <path
     id="path9"
     style="opacity:0.2;fill:#ffffff;fill-opacity:1;stroke-width:2;stroke-linecap:round;stroke-linejoin:round"
     d="m 16,14 a 2,2 0 0 0 -2,2 2,2 0 0 0 0.0664,0.5 A 2,2 0 0 1 16,15 2,2 0 0 1 17.933594,16.488282 2,2 0 0 0 18,16 2,2 0 0 0 16,14 Z" />
  <g
     id="g361"
     transform="matrix(0.49999709,0,0,0.49999709,3.4946207e-5,3.492e-5)" />
  <path
     d="M 8,2.0000001 C 4.6760033,2.0000001 2,4.6760035 2,8 V 9 C 2,5.6760035 4.6760033,3 8,3 h 16 c 3.323996,0 6,2.6760035 6,6 V 8 C 30,4.6760035 27.323996,2.0000001 24,2.0000001 Z"
     style="opacity:0.2;fill:#ffffff;stroke-width:2;stroke-linecap:square"
     id="path1040"
     sodipodi:nodetypes="sscsscsss" />
</svg>
