<?xml version="1.0" encoding="UTF-8" standalone="no"?>
<!-- Created with Inkscape (http://www.inkscape.org/) -->

<svg
   width="64"
   height="64"
   viewBox="0 0 64 64"
   version="1.1"
   id="svg5"
   inkscape:version="1.4.3 (0d15f75042, 2025-12-25)"
   sodipodi:docname="folder-projects.svg"
   xmlns:inkscape="http://www.inkscape.org/namespaces/inkscape"
   xmlns:sodipodi="http://sodipodi.sourceforge.net/DTD/sodipodi-0.dtd"
   xmlns="http://www.w3.org/2000/svg"
   xmlns:svg="http://www.w3.org/2000/svg">
  <sodipodi:namedview
     id="namedview7"
     pagecolor="#ffffff"
     bordercolor="#000000"
     borderopacity="0.25"
     inkscape:showpageshadow="2"
     inkscape:pageopacity="0.0"
     inkscape:pagecheckerboard="0"
     inkscape:deskcolor="#d1d1d1"
     inkscape:document-units="px"
     showgrid="false"
     inkscape:zoom="7.515625"
     inkscape:cx="32"
     inkscape:cy="32.066528"
     inkscape:window-width="1440"
     inkscape:window-height="833"
     inkscape:window-x="0"
     inkscape:window-y="0"
     inkscape:window-maximized="1"
     inkscape:current-layer="svg5" />
  <defs
     id="defs2">
    <style
       type="text/css"
       id="current-color-scheme">
        .ColorScheme-Text {
        color:#31363b;
        }
        .ColorScheme-Accent {
        color:#3daee9;
        }
     </style>
  </defs>
  <path
     d="m 8,9 c -2.215998,0 -4,1.784002 -4,4 0.02585,13.306653 0,26.638264 0,40 0,2.216 1.784002,4 4,4 h 48 c 2.216,0 4,-1.784 4,-4 V 19 c 0,-2.215998 -1.784,-4 -4,-4 H 32 L 30,12 C 28.770786,10.156178 28.215998,9 26,9 Z"
     style="opacity:0.2;fill:#000000;fill-opacity:1;stroke-width:4;stroke-linecap:square"
     id="path2595" />
  <path
     d="m 8,8 c -2.215998,0 -4,1.784002 -4,4 0.02585,13.306653 0,26.638264 0,40 0,2.216 1.784002,4 4,4 h 48 c 2.216,0 4,-1.784 4,-4 V 18 c 0,-2.215998 -1.784,-4 -4,-4 H 32 L 30,11 C 28.770786,9.1561785 28.215998,8 26,8 Z"
     style="fill:currentColor;fill-opacity:1;stroke-width:4;stroke-linecap:square"
     class="ColorScheme-Accent"
     id="path2567" />
  <path
     id="path2569"
     style="color:#3daee9;opacity:0.25;fill:#000000;fill-opacity:1;stroke-width:4;stroke-linecap:square"
     d="m 8,8 c -2.215998,0 -4,1.784002 -4,4 0.02585,13.306653 0,21.638264 0,35 0,2.216 1.784002,4 4,4 h 48 c 2.216,0 4,-1.784 4,-4 V 18 c 0,-2.215998 -1.784,-4 -4,-4 H 32 L 30,11 C 28.770786,9.1561785 28.215998,8 26,8 Z" />
  <path
     id="path2855"
     style="opacity:0.1;fill:#ffffff;fill-opacity:1;stroke-width:4;stroke-linecap:square"
     d="m 8,8 c -2.2159935,0 -4,1.784007 -4,4 3.19e-4,0.16417 1.521e-4,0.814122 0,0.992188 C 4.003927,10.779587 5.7864465,9 8,9 h 18 c 2.215996,0 2.770787,1.15618 4,3 l 2,3 h 24 c 2.215995,0 4,1.784004 4,4 v -1 c 0,-2.215994 -1.784005,-4 -4,-4 H 32 L 30,11 C 28.770788,9.156182 28.215994,8 26,8 Z" />
  <rect
     style="opacity:0.2;fill:#000000;fill-opacity:1;stroke-width:4;stroke-linecap:square"
     id="rect2667"
     width="56"
     height="32"
     x="4"
     y="23"
     ry="4" />
  <rect
     style="opacity:1;fill:#f2f2f2;fill-opacity:1;stroke-width:4;stroke-linecap:square"
     id="rect3435"
     width="48"
     height="25"
     x="7.9998393"
     y="18"
     ry="3" />
  <rect
     style="opacity:1;fill:currentColor;fill-opacity:1;stroke-width:4;stroke-linecap:square"
     class="ColorScheme-Accent"
     id="rect2727"
     width="56"
     height="32"
     x="4"
     y="23.999998"
     ry="4" />
  <path
     id="path5"
     style="opacity:0.5;fill:currentColor;stroke-width:2"
     d="m 36.000008,30 c -0.438,0.162 -0.888,0.375782 -1.25,0.675782 -1.726,1.388 -0.438,3.900218 1.25,5.324218 v 4 c 1.262,0.874 1.554782,1.16 2.300782,2 0.38,0.428 1.437218,1.512 1.699218,2 v -8 c 1.724,-1.4 2.924,-3.812 1.25,-5.25 -0.362,-0.3 -0.812,-0.574 -1.25,-0.75 v 2.8125 c 0,0.576 -0.798124,1.148438 -1.578124,1.148438 h -0.85547 c -0.7,0 -1.566406,-0.572438 -1.566406,-1.148438 z m -4,10 c -5,0 -8,4.25 -8,8 l -1.6875,0.0118 c -0.312,0.0019 -0.3125,0.308594 -0.3125,0.308594 V 49.6875 C 21.998208,49.9995 22.304696,50 22.304696,50 h 19.42578 c 0,0 0.279532,-5e-4 0.269532,-0.3125 v -1.359376 c 0,0 -5e-4,-0.306592 -0.3125,-0.308592 l -1.671876,-0.01953 c 0,-3.75 -3.015624,-8 -8.015624,-8 z m 0,4 c 4,0 4,2.45 4,4 h -8 c 0,-1.5 0,-4 4,-4 z"
     class="ColorScheme-Text" />
</svg>
