<?xml version="1.0" encoding="UTF-8" standalone="no"?>
<svg
   width="24"
   height="24"
   version="1.1"
   id="svg1"
   sodipodi:docname="cm_extractfiles.svg"
   inkscape:version="1.4.3 (0d15f75042, 2025-12-25)"
   xmlns:inkscape="http://www.inkscape.org/namespaces/inkscape"
   xmlns:sodipodi="http://sodipodi.sourceforge.net/DTD/sodipodi-0.dtd"
   xmlns="http://www.w3.org/2000/svg"
   xmlns:svg="http://www.w3.org/2000/svg">
  <sodipodi:namedview
     id="namedview1"
     pagecolor="#ffffff"
     bordercolor="#000000"
     borderopacity="0.25"
     inkscape:showpageshadow="2"
     inkscape:pageopacity="0.0"
     inkscape:pagecheckerboard="0"
     inkscape:deskcolor="#d1d1d1"
     inkscape:zoom="33.625"
     inkscape:cx="11.98513"
     inkscape:cy="12"
     inkscape:window-width="1920"
     inkscape:window-height="1010"
     inkscape:window-x="0"
     inkscape:window-y="0"
     inkscape:window-maximized="1"
     inkscape:current-layer="svg1" />
  <defs
     id="defs1">
    <style
       id="current-color-scheme"
       type="text/css">
   .ColorScheme-Text { color:#dfdfdf; } .ColorScheme-Highlight { color:#4285f4; } .ColorScheme-NeutralText { color:#ff9800; } .ColorScheme-PositiveText { color:#4caf50; } .ColorScheme-NegativeText { color:#f44336; }
  </style>
  </defs>
  <path
     id="path1"
     style="fill:currentColor"
     class="ColorScheme-Text"
     d="m 7.2363281,5 c -0.50686,0 -1.1595656,0.4798 -1.2597656,0.9375 -0.2918,0.8915 -0.592,1.7934 -0.875,2.6875 L 5.0078125,9 v 8 c 0,0.554 0.446,1 1,1 H 18.007812 c 0.554001,0 1.000001,-0.446 1,-1 V 9 l -0.125,-0.46875 c -0.337999,-0.9897 -0.643,-2.0177 -1,-3 C 17.668812,5.09315 17.188333,4.99232 16.726562,5 H 7.2382812 Z m 0.4960938,2 h 8.5332031 c 0.108,0.323 0.222031,0.6678 0.332031,1 H 7.40625 C 7.51505,7.6662 7.6221219,7.3359 7.7324219,7 Z M 12.007813,8.5195312 13.365234,10 h 3.642578 v 3.974609 L 17.03125,14 h -0.02344 v 2 h -3 v 1 H 10.007813 V 16 H 7.0078125 V 14 H 6.984375 L 7.007812,13.97461 V 10 h 3.644532 l 0.61914,-0.6757812 z M 12,10 9.25,13 H 11 v 3 h 2 v -3 h 1.75 z" />
</svg>
