<?xml version="1.0" encoding="UTF-8" standalone="no"?>
<!-- Created with Inkscape (http://www.inkscape.org/) -->

<svg
   width="24"
   height="24"
   viewBox="0 0 24 24"
   version="1.1"
   id="svg5"
   inkscape:version="1.4.3 (0d15f75042, 2025-12-25)"
   sodipodi:docname="document-print-preview.svg"
   xmlns:inkscape="http://www.inkscape.org/namespaces/inkscape"
   xmlns:sodipodi="http://sodipodi.sourceforge.net/DTD/sodipodi-0.dtd"
   xmlns="http://www.w3.org/2000/svg"
   xmlns:svg="http://www.w3.org/2000/svg">
  <sodipodi:namedview
     id="namedview7"
     pagecolor="#ffffff"
     bordercolor="#000000"
     borderopacity="0.25"
     inkscape:showpageshadow="2"
     inkscape:pageopacity="0.0"
     inkscape:pagecheckerboard="0"
     inkscape:deskcolor="#d1d1d1"
     inkscape:document-units="px"
     showgrid="false"
     showguides="true"
     inkscape:zoom="33.625"
     inkscape:cx="11.98513"
     inkscape:cy="12"
     inkscape:window-width="1920"
     inkscape:window-height="1010"
     inkscape:window-x="0"
     inkscape:window-y="0"
     inkscape:window-maximized="1"
     inkscape:current-layer="svg5" />
  <defs
     id="defs2">
    <style
       id="current-color-scheme"
       type="text/css">
        .ColorScheme-Text { color:#dfdfdf; } .ColorScheme-Highlight { color:#4285f4; } .ColorScheme-NeutralText { color:#ff9800; } .ColorScheme-PositiveText { color:#4caf50; } .ColorScheme-NegativeText { color:#f44336; }
     </style>
  </defs>
  <path
     id="path1"
     style="fill:currentColor;stroke-width:4;stroke-linecap:square"
     class="ColorScheme-Text"
     d="M 7,5 V 9 C 5.3380102,9 4,10.33801 4,12 v 4 h 3 v 3 h 8 C 13.574862,18.9961 12.259441,18.234214 11.546875,17 H 9 v -2 h 2 c 0.0033,-0.703145 0.191964,-1.392989 0.546875,-2 H 7 v 1 H 6 v -2 c 0,-0.553997 0.446003,-1 1,-1 h 8 2 c 0.553995,0 1,0.446003 1,1 v 0.357422 c 0.643696,0.729882 0.999228,1.669401 1,2.642578 -0.0025,0.337686 -0.04781,0.673692 -0.134766,1 H 20 V 12 C 20,10.33801 18.661988,9 17,9 V 5 Z m 2,2 h 6 V 9 H 9 Z m 5.947266,5 c -0.05408,9.4e-4 -0.107852,0.0039 -0.16211,0.0078 -0.719459,0.05176 -1.396235,0.36101 -1.90625,0.871094 -1.171278,1.17152 -1.171278,3.070666 0,4.242187 1.03548,1.031858 2.66391,1.16715 3.855469,0.320312 l 2.154297,2.154297 0.707031,-0.707031 -2.150391,-2.150391 C 18.293353,15.54502 18.15633,13.913957 17.121094,12.878906 16.544148,12.301913 15.758478,11.9859 14.947266,12 Z m 0.09766,1 c 0.511369,0.01182 1.003482,0.220331 1.36914,0.585938 0.780831,0.78101 0.780831,2.047114 0,2.828124 -0.78101,0.780831 -2.047114,0.780831 -2.828124,0 -0.78083,-0.78101 -0.78083,-2.047114 0,-2.828124 0.332569,-0.332528 0.77172,-0.537228 1.240234,-0.578125 0.07359,-0.0064 0.145697,-0.0095 0.21875,-0.0078 z" />
</svg>
