<?xml version="1.0" encoding="UTF-8" standalone="no"?>
<!-- Created with Inkscape (http://www.inkscape.org/) -->

<svg
   width="24"
   height="24"
   viewBox="0 0 24 24"
   version="1.1"
   id="svg5"
   inkscape:version="1.4.3 (0d15f75042, 2025-12-25)"
   sodipodi:docname="document-preview.svg"
   xmlns:inkscape="http://www.inkscape.org/namespaces/inkscape"
   xmlns:sodipodi="http://sodipodi.sourceforge.net/DTD/sodipodi-0.dtd"
   xmlns="http://www.w3.org/2000/svg"
   xmlns:svg="http://www.w3.org/2000/svg">
  <sodipodi:namedview
     id="namedview7"
     pagecolor="#ffffff"
     bordercolor="#000000"
     borderopacity="0.25"
     inkscape:showpageshadow="2"
     inkscape:pageopacity="0.0"
     inkscape:pagecheckerboard="0"
     inkscape:deskcolor="#d1d1d1"
     inkscape:document-units="px"
     showgrid="false"
     inkscape:zoom="33.625"
     inkscape:cx="11.98513"
     inkscape:cy="12"
     inkscape:window-width="1920"
     inkscape:window-height="1010"
     inkscape:window-x="0"
     inkscape:window-y="0"
     inkscape:window-maximized="1"
     inkscape:current-layer="svg5" />
  <defs
     id="defs2">
    <style
       id="current-color-scheme"
       type="text/css">
        .ColorScheme-Text { color:#dfdfdf; } .ColorScheme-Highlight { color:#4285f4; } .ColorScheme-NeutralText { color:#ff9800; } .ColorScheme-PositiveText { color:#4caf50; } .ColorScheme-NegativeText { color:#f44336; }
     </style>
  </defs>
  <path
     id="path1"
     style="opacity:1;fill:currentColor;fill-opacity:1"
     class="ColorScheme-Text"
     d="M 7,4 C 6.44774,4.0000552 6.00006,4.4477399 6,5 v 12 c 5.52e-5,0.55226 0.44774,0.99994 1,1 h 6.154297 C 12.217507,17.640086 11.464063,16.919707 11.0625,16 H 8 V 6 h 5.585938 L 16,8.4140625 V 11.0625 c 0.919707,0.401563 1.640086,1.155007 2,2.091797 V 8 C 17.999949,7.7348 17.894571,7.4804787 17.707031,7.2929688 l -3,-3 C 14.519521,4.1054288 14.2652,4.00005 14,4 Z"
     sodipodi:nodetypes="ccccccccccccccccc" />
  <path
     style="fill:currentColor"
     class="ColorScheme-Text"
     d="m 15.5,16.5 2.278,2.278 c 0,0 0.5,0.5 1,0 0.5,-0.5 0,-1 0,-1 L 16.5,15.5 Z m -3.75,-2 c 0,1.5 1.25,2.75 2.75,2.75 1.5,0 2.75,-1.25 2.75,-2.75 0,-1.5 -1.25,-2.75 -2.75,-2.75 -1.5,0 -2.75,1.25 -2.75,2.75 z m 2.75,-1.75 c 1,0 1.75,0.75 1.75,1.75 0,1 -0.75,1.75 -1.75,1.75 -1,0 -1.75,-0.75 -1.75,-1.75 0,-1 0.75,-1.75 1.75,-1.75 z"
     id="path2" />
</svg>
