<?xml version="1.0" encoding="UTF-8" standalone="no"?>
<!-- Created with Inkscape (http://www.inkscape.org/) -->

<svg
   width="128"
   height="128"
   viewBox="0 0 128 128"
   version="1.1"
   id="svg5"
   inkscape:version="1.3.2 (1:1.3.2+202404261509+091e20ef0f)"
   sodipodi:docname="preferences-system.svg"
   xmlns:inkscape="http://www.inkscape.org/namespaces/inkscape"
   xmlns:sodipodi="http://sodipodi.sourceforge.net/DTD/sodipodi-0.dtd"
   xmlns="http://www.w3.org/2000/svg"
   xmlns:svg="http://www.w3.org/2000/svg">
  <sodipodi:namedview
     id="namedview7"
     pagecolor="#ffffff"
     bordercolor="#000000"
     borderopacity="0.25"
     inkscape:showpageshadow="2"
     inkscape:pageopacity="0.0"
     inkscape:pagecheckerboard="0"
     inkscape:deskcolor="#d1d1d1"
     inkscape:document-units="px"
     showgrid="false"
     inkscape:zoom="6.484375"
     inkscape:cx="64"
     inkscape:cy="64.077108"
     inkscape:window-width="1920"
     inkscape:window-height="1006"
     inkscape:window-x="0"
     inkscape:window-y="0"
     inkscape:window-maximized="1"
     inkscape:current-layer="svg5" />
  <defs
     id="defs2" />
  <rect
     style="opacity:0.2;fill:#000000;stroke-width:8;stroke-linecap:square"
     id="rect234"
     width="112"
     height="112"
     x="8"
     y="9"
     ry="24" />
  <rect
     style="fill:#458588;fill-opacity:1;stroke-width:8;stroke-linecap:square"
     id="rect396"
     width="112"
     height="112"
     x="8"
     y="8"
     ry="24" />
  <path
     id="path1250"
     style="opacity:0.2;fill:#000000;stroke-width:3.99996"
     d="m 55.800782,25 -0.004,0.004 c -0.849992,0.0924 -1.59791,0.782302 -1.753908,1.621094 l -1.6875,8.5625 C 49.321504,36.372286 46.468816,38.000022 43.964844,40 l -8.328126,-2.8125 c -0.86519,-0.297798 -1.91411,0.08842 -2.378906,0.875 l -8.015624,13.875 c -0.451396,0.797992 -0.254788,1.902006 0.441406,2.5 l 6.636718,5.8125 c -0.233718,1.558462 -0.378906,3.126418 -0.378906,4.75 0,1.623462 0.14532,3.191418 0.378906,4.75 l -6.636718,5.8125 c -0.696194,0.597994 -0.892802,1.702008 -0.441406,2.5 l 8.015624,13.875 c 0.464796,0.786832 1.513836,1.172798 2.378906,0.875 L 43.964844,90 c 2.502772,1.999898 5.35586,3.627714 8.390624,4.8125 l 1.6875,8.5625 c 0.17132,0.89627 1.027376,1.6126 1.941408,1.625 h 16.031248 c 0.913992,-0.012 1.766144,-0.72873 1.9375,-1.625 l 1.691408,-8.5625 C 78.679296,93.627794 81.532384,91.999778 84.035156,90 l 8.328126,2.8125 c 0.86511,0.297798 1.91415,-0.08826 2.378906,-0.875 l 8.015622,-13.875 c 0.45144,-0.797992 0.25467,-1.902406 -0.4414,-2.5 L 95.683594,69.75 c 0.233718,-1.558462 0.375,-3.126418 0.375,-4.75 0,-1.623462 -0.1414,-3.191418 -0.375,-4.75 l 6.636716,-5.8125 c 0.69608,-0.597554 0.8889,-1.701928 0.4375,-2.5 l -8.011716,-13.875 c -0.463996,-0.786792 -1.514916,-1.172798 -2.378906,-0.875 L 84.039062,40 c -2.50397,-1.999978 -5.35666,-3.627914 -8.390624,-4.8125 l -1.6875,-8.5625 C 73.788938,25.728808 72.933522,25.0124 72.019532,25 h -16.03125 c -0.06252,-0.002 -0.12498,-0.002 -0.1875,0 z M 64,47 A 18,18 0 0 1 82,65 18,18 0 0 1 64,83 18,18 0 0 1 46,65 18,18 0 0 1 64,47 Z m 0,4 A 14,14 0 0 0 50,65 14,14 0 0 0 64,79 14,14 0 0 0 78,65 14,14 0 0 0 64,51 Z" />
  <path
     id="path1082"
     style="fill:#ffffff;stroke-width:3.99996"
     d="m 55.800782,24 -0.0039,0.0039 c -0.849992,0.0924 -1.59791,0.782302 -1.753908,1.621094 l -1.6875,8.5625 C 49.321504,35.372286 46.468816,37.000022 43.964844,39 l -8.328126,-2.8125 c -0.86519,-0.297798 -1.91411,0.08841 -2.378906,0.875 l -8.015624,13.875 c -0.451396,0.797992 -0.254788,1.902006 0.441406,2.5 l 6.636718,5.8125 c -0.233718,1.558462 -0.378906,3.126418 -0.378906,4.75 0,1.623462 0.14531,3.191418 0.378906,4.75 l -6.636718,5.8125 c -0.696194,0.597994 -0.892802,1.702008 -0.441406,2.5 l 8.015624,13.875 c 0.464796,0.786832 1.513836,1.172798 2.378906,0.875 L 43.964844,89 c 2.502772,1.999898 5.35586,3.627714 8.390624,4.8125 l 1.6875,8.5625 c 0.17132,0.89627 1.027376,1.6126 1.941408,1.625 h 16.031248 c 0.913992,-0.012 1.766144,-0.72873 1.9375,-1.625 l 1.691408,-8.5625 C 78.679296,92.627794 81.532384,90.999778 84.035156,89 l 8.328126,2.8125 c 0.86511,0.297798 1.91415,-0.08825 2.378906,-0.875 l 8.015622,-13.875 c 0.45144,-0.797992 0.25467,-1.902406 -0.4414,-2.5 L 95.683594,68.75 c 0.233718,-1.558462 0.375,-3.126418 0.375,-4.75 0,-1.623462 -0.141404,-3.191418 -0.375,-4.75 l 6.636716,-5.8125 c 0.69608,-0.597554 0.8889,-1.701928 0.4375,-2.5 l -8.011716,-13.875 c -0.463996,-0.786792 -1.514916,-1.172798 -2.378906,-0.875 L 84.039062,39 c -2.50397,-1.999978 -5.35666,-3.627914 -8.390624,-4.8125 l -1.6875,-8.5625 C 73.788938,24.728808 72.933522,24.0124 72.019532,24 h -16.03125 c -0.06252,-0.002 -0.12498,-0.002 -0.1875,0 z M 64,46 A 18,18 0 0 1 82,64 18,18 0 0 1 64,82 18,18 0 0 1 46,64 18,18 0 0 1 64,46 Z m 0,4 A 14,14 0 0 0 50,64 14,14 0 0 0 64,78 14,14 0 0 0 78,64 14,14 0 0 0 64,50 Z" />
  <path
     id="path1040"
     style="opacity:0.2;fill:#ffffff;stroke-width:8;stroke-linecap:square"
     d="M 32,8 C 18.704026,8 8,18.704027 8,32 v 1 C 8,19.704013 18.704013,9 32,9 h 64 c 13.29599,0 24,10.704013 24,24 V 32 C 120,18.704027 109.29597,8 96,8 Z" />
</svg>
