<?xml version="1.0" encoding="UTF-8" standalone="no"?>
<!-- Created with Inkscape (http://www.inkscape.org/) -->

<svg
   width="24"
   height="24"
   viewBox="0 0 24 24"
   version="1.1"
   id="svg5"
   inkscape:version="1.3 (0e150ed6c4, 2023-07-21)"
   sodipodi:docname="system-switch-user.svg"
   xmlns:inkscape="http://www.inkscape.org/namespaces/inkscape"
   xmlns:sodipodi="http://sodipodi.sourceforge.net/DTD/sodipodi-0.dtd"
   xmlns="http://www.w3.org/2000/svg"
   xmlns:svg="http://www.w3.org/2000/svg">
  <sodipodi:namedview
     id="namedview7"
     pagecolor="#ffffff"
     bordercolor="#000000"
     borderopacity="0.25"
     inkscape:showpageshadow="2"
     inkscape:pageopacity="0.0"
     inkscape:pagecheckerboard="0"
     inkscape:deskcolor="#d1d1d1"
     inkscape:document-units="px"
     showgrid="false"
     inkscape:zoom="33.333333"
     inkscape:cx="11.985"
     inkscape:cy="12"
     inkscape:window-width="1920"
     inkscape:window-height="1004"
     inkscape:window-x="0"
     inkscape:window-y="0"
     inkscape:window-maximized="1"
     inkscape:current-layer="svg5" />
  <defs
     id="defs2" />
  <rect
     style="opacity:0.2;fill:#000000;stroke-width:1.42857;stroke-linecap:square"
     id="rect234"
     width="20"
     height="20"
     x="2"
     y="2.4999995"
     ry="4.5" />
  <rect
     style="fill:#3f51b5;fill-opacity:1;stroke-width:1.42857;stroke-linecap:square"
     id="rect396"
     width="20"
     height="20"
     x="2"
     y="2"
     ry="4.5" />
  <path
     style="opacity:0.2;fill:#000000"
     d="m 16,5.5001764 c -0.504781,0 -1.00956,0.3373573 -1,1.0117188 v 7.9882818 h -2.5 l 3.5,4.5 3.5,-4.5 H 17 V 6.5118952 C 17.0096,5.8375337 16.504781,5.5001764 16,5.5001764 Z m -8,0.5 -3.5,4.5000006 H 7 v 7.988281 c -0.019125,1.348723 2.019125,1.348723 2,0 v -7.988281 h 2.5 z"
     id="path3" />
  <path
     style="fill:#ffffff"
     d="M 16,5 C 15.495219,5 14.99044,5.3373573 15,6.0117188 V 14 H 12.5 L 16,18.5 19.5,14 H 17 V 6.0117188 C 17.009563,5.3373573 16.504781,5 16,5 Z M 8,5.5 4.5,10 H 7 v 7.988281 c -0.019125,1.348723 2.019125,1.348723 2,0 V 10 h 2.5 z"
     id="path4" />
  <path
     id="path1040"
     style="opacity:0.1;fill:#ffffff;stroke-width:4;stroke-linecap:square"
     d="M 6.5,2.0000002 C 4.007005,2.0000002 2,4.0070051 2,6.5 V 7 C 2,4.5070051 4.007005,2.5000002 6.5,2.5000002 h 11 C 19.992996,2.5000002 22,4.5070051 22,7 V 6.5 C 22,4.0070051 19.992996,2.0000002 17.5,2.0000002 Z" />
</svg>
