<?xml version="1.0" encoding="UTF-8" standalone="no"?>
<svg
   width="24"
   height="24"
   version="1"
   id="svg6"
   sodipodi:docname="system-lock-screen.svg"
   inkscape:version="1.4.3 (0d15f75042, 2025-12-25)"
   xmlns:inkscape="http://www.inkscape.org/namespaces/inkscape"
   xmlns:sodipodi="http://sodipodi.sourceforge.net/DTD/sodipodi-0.dtd"
   xmlns="http://www.w3.org/2000/svg"
   xmlns:svg="http://www.w3.org/2000/svg">
  <defs
     id="defs6" />
  <sodipodi:namedview
     id="namedview6"
     pagecolor="#ffffff"
     bordercolor="#000000"
     borderopacity="0.25"
     inkscape:showpageshadow="2"
     inkscape:pageopacity="0.0"
     inkscape:pagecheckerboard="0"
     inkscape:deskcolor="#d1d1d1"
     inkscape:zoom="34.458333"
     inkscape:cx="12"
     inkscape:cy="12"
     inkscape:window-width="1920"
     inkscape:window-height="1008"
     inkscape:window-x="0"
     inkscape:window-y="0"
     inkscape:window-maximized="1"
     inkscape:current-layer="svg6" />
  <circle
     style="fill:#ff5722;fill-opacity:1"
     cx="12"
     cy="12"
     r="10"
     id="circle1" />
  <path
     style="opacity:0.2;fill:#ffffff"
     d="m 12,2 a 10,10 0 0 0 -10,10 10,10 0 0 0 0.01075,0.291 10,10 0 0 1 9.989,-9.791 10,10 0 0 1 9.9895,9.709 10,10 0 0 0 0.0105,-0.209 10,10 0 0 0 -10,-10 z"
     id="path1" />
  <path
     style="opacity:0.2"
     d="M 21.9895,12.209 A 10,10 0 0 1 12,22 10,10 0 0 1 2.011,12.291 10,10 0 0 0 2,12.5 a 10,10 0 0 0 10,10 10,10 0 0 0 10,-10 10,10 0 0 0 -0.0105,-0.291 z"
     id="path2" />
  <path
     id="path3"
     style="opacity:0.1;fill:#000000"
     d="m 12,5.5 c -2.2159936,0 -4,1.7840066 -4,4 v 2 H 7 c -0.5539988,0 -1,0.446002 -1,1 v 6 c 0,0.553998 0.4460012,1 1,1 h 10 c 0.553998,0 1,-0.446002 1,-1 v -6 c 0,-0.553998 -0.446002,-1 -1,-1 h -1 v -2 c 0,-2.2159934 -1.784006,-4 -4,-4 z m 0,1 c 1.661994,0 3,1.3380051 3,3 v 2 H 9 v -2 c 0,-1.6619949 1.338005,-3 3,-3 z" />
  <path
     id="path4"
     style="fill:#ffffff;fill-opacity:1"
     d="M 12,5 C 9.7840108,5 8,6.784011 8,9 v 2 H 7 c -0.5539994,0 -1,0.446001 -1,1 v 6 c 0,0.553999 0.4460006,1 1,1 h 10 c 0.553999,0 1,-0.446001 1,-1 v -6 c 0,-0.553999 -0.446001,-1 -1,-1 H 16 V 9 C 16,6.784011 14.21599,5 12,5 Z m 0,1 c 1.66199,0 3,1.3380085 3,3 v 2 H 9 V 9 C 9,7.3380085 10.338009,6 12,6 Z" />
</svg>
