<?xml version="1.0" encoding="UTF-8" standalone="no"?>
<!-- Created with Inkscape (http://www.inkscape.org/) -->

<svg
   width="24"
   height="24"
   viewBox="0 0 24 24"
   version="1.1"
   id="svg2123"
   inkscape:version="1.3 (0e150ed6c4, 2023-07-21)"
   sodipodi:docname="weather-mist.svg"
   xmlns:inkscape="http://www.inkscape.org/namespaces/inkscape"
   xmlns:sodipodi="http://sodipodi.sourceforge.net/DTD/sodipodi-0.dtd"
   xmlns="http://www.w3.org/2000/svg"
   xmlns:svg="http://www.w3.org/2000/svg">
  <path
     d="M 5,5.5 C 4.446,5.5 4,5.9460001 4,6.4999999 4,7.054 4.446,7.5000002 5,7.5000002 h 9 c 0.554,0 1.000001,-0.4460002 1.000001,-1.0000003 C 15.000001,5.9460001 14.554,5.5 14,5.5 Z m 3,4 c -0.554,0 -1,0.4460001 -1,1 0,0.554 0.446,1 1,1 h 12 c 0.554,0 1,-0.446 1,-1 0,-0.5539999 -0.446,-1 -1,-1 z m -4,4 c -0.554,0 -1,0.446001 -1,1 0,0.554 0.446,1 1,1 H 16.000001 C 16.554,15.5 17,15.054 17,14.5 c 0,-0.553999 -0.446,-1 -0.999999,-1 z m 3,4.000001 c -0.554,0 -1,0.445999 -1,1 C 6,19.054 6.446,19.5 7,19.5 h 13 c 0.554,0 1,-0.446 1,-0.999999 0,-0.554001 -0.446,-1 -1,-1 z"
     style="opacity:0.2;fill:#000000;fill-opacity:1;stroke-width:0.500001;stroke-linejoin:round"
     id="path1" />
  <path
     d="M 5,5 C 4.446,5 4,5.4460001 4,5.9999999 4,6.554 4.446,7.0000002 5,7.0000002 h 9 c 0.554,0 1.000001,-0.4460002 1.000001,-1.0000003 C 15.000001,5.4460001 14.554,5 14,5 Z m 3,4 c -0.554,0 -1,0.4460001 -1,1 0,0.554 0.446,1 1,1 h 12 c 0.554,0 1,-0.446 1,-1 0,-0.5539999 -0.446,-1 -1,-1 z m -4,4 c -0.554,0 -1,0.446001 -1,1 0,0.554 0.446,1 1,1 H 16.000001 C 16.554,15 17,14.554 17,14 17,13.446001 16.554,13 16.000001,13 Z m 3,4.000001 c -0.554,0 -1,0.445999 -1,1 C 6,18.554 6.446,19 7,19 h 13 c 0.554,0 1,-0.446 1,-0.999999 0,-0.554001 -0.446,-1 -1,-1 z"
     style="fill:#dfdfdf;fill-opacity:1;stroke-width:0.500001;stroke-linejoin:round"
     id="path2" />
  <sodipodi:namedview
     id="namedview2125"
     pagecolor="#ffffff"
     bordercolor="#666666"
     borderopacity="1.0"
     inkscape:pageshadow="2"
     inkscape:pageopacity="0.0"
     inkscape:pagecheckerboard="0"
     inkscape:document-units="px"
     showgrid="false"
     units="px"
     inkscape:zoom="32.625"
     inkscape:cx="11.984674"
     inkscape:cy="12"
     inkscape:window-width="1920"
     inkscape:window-height="984"
     inkscape:window-x="0"
     inkscape:window-y="29"
     inkscape:window-maximized="1"
     inkscape:current-layer="svg2123"
     inkscape:showpageshadow="2"
     inkscape:deskcolor="#d1d1d1" />
  <defs
     id="defs2120" />
  <path
     id="path3"
     style="opacity:0.2;fill:#ffffff;fill-opacity:1;stroke-width:0.500001;stroke-linejoin:round"
     d="M 5,5 C 4.4460006,5 4,5.4460008 4,6 4,6.0871519 4.0143972,6.1695095 4.0351562,6.25 4.1463564,5.8188356 4.5331524,5.5 5,5.5 h 9 c 0.466848,0 0.853643,0.3188356 0.964844,0.75 C 14.985603,6.1695095 15,6.0871519 15,6 15,5.4460008 14.553999,5 14,5 Z M 8,9 C 7.4460006,9 7,9.4460005 7,10 7,10.08715 7.014397,10.16951 7.035156,10.25 7.1463564,9.8188355 7.5331524,9.5 8,9.5 h 12 c 0.466848,0 0.853644,0.3188355 0.964844,0.75 C 20.985603,10.16951 21,10.087152 21,10 21,9.4460005 20.553999,9 20,9 Z m -4,4 c -0.5539994,0 -1,0.446002 -1,1 0,0.08715 0.014397,0.16951 0.035156,0.25 C 3.1463564,13.818836 3.5331524,13.5 4,13.5 h 12 c 0.466847,0 0.853644,0.318836 0.964844,0.75 C 16.985603,14.16951 17,14.087152 17,14 17,13.446002 16.553998,13 16,13 Z m 3,4 c -0.5539994,0 -1,0.446 -1,1 0,0.08715 0.014397,0.16951 0.035156,0.25 C 6.1463564,17.818835 6.5331524,17.5 7,17.5 h 13 c 0.466848,0 0.853644,0.318835 0.964844,0.75 C 20.985603,18.16951 21,18.087152 21,18 21,17.446 20.553999,17 20,17 Z" />
</svg>
