<?xml version="1.0" encoding="UTF-8" standalone="no"?>
<!-- Created with Inkscape (http://www.inkscape.org/) -->

<svg
   width="24"
   height="24"
   viewBox="0 0 24 24"
   version="1.1"
   id="svg5"
   inkscape:version="1.3 (0e150ed6c4, 2023-07-21)"
   sodipodi:docname="weather-snow-scattered-day.svg"
   xmlns:inkscape="http://www.inkscape.org/namespaces/inkscape"
   xmlns:sodipodi="http://sodipodi.sourceforge.net/DTD/sodipodi-0.dtd"
   xmlns="http://www.w3.org/2000/svg"
   xmlns:svg="http://www.w3.org/2000/svg">
  <sodipodi:namedview
     id="namedview7"
     pagecolor="#ffffff"
     bordercolor="#000000"
     borderopacity="0.25"
     inkscape:showpageshadow="2"
     inkscape:pageopacity="0.0"
     inkscape:pagecheckerboard="0"
     inkscape:deskcolor="#d1d1d1"
     inkscape:document-units="px"
     showgrid="false"
     inkscape:zoom="32.625"
     inkscape:cx="11.984674"
     inkscape:cy="12"
     inkscape:window-width="1920"
     inkscape:window-height="984"
     inkscape:window-x="0"
     inkscape:window-y="29"
     inkscape:window-maximized="1"
     inkscape:current-layer="svg5" />
  <defs
     id="defs2" />
  <path
     style="opacity:0.2;fill:#000000"
     d="m 16,1.5 -2,2 h -3 v 3 l -2,2 2,2 v 3 h 3 l 2,2 2,-2 h 3 v -3 l 2,-2 -2,-2 v -3 h -3 z"
     id="path3" />
  <path
     style="fill:#ff8a47"
     d="m 16,1 -2,2 h -3 v 3 l -2,2 2,2 v 3 h 3 l 2,2 2,-2 h 3 V 10 L 23,8 21,6 V 3 h -3 z"
     id="path4" />
  <path
     id="path12"
     style="opacity:0.2;fill:#ffffff"
     d="m 16,1 -2,2 h -3 v 0.5 h 3 l 2,-2 2,2 h 3 V 3 H 18 Z M 11,6 9,8 9.25,8.25 11,6.5 Z M 21,6 V 6.5 L 22.75,8.25 23,8 Z" />
  <circle
     style="opacity:0.2;fill:#000000;stroke-linecap:round;stroke-linejoin:round"
     id="path9"
     cx="16"
     cy="8.5"
     r="4" />
  <circle
     style="fill:#ffcc42;fill-opacity:1;stroke-linecap:round;stroke-linejoin:round"
     id="path10"
     cx="16"
     cy="8"
     r="4" />
  <path
     id="path11"
     style="opacity:0.2;fill:#ffffff;fill-opacity:1;stroke-linecap:round;stroke-linejoin:round"
     d="M 16,4 A 4,4 0 0 0 12,8 4,4 0 0 0 12.017578,8.253906 4,4 0 0 1 16,4.5 4,4 0 0 1 19.986328,8.183594 4,4 0 0 0 20,8 4,4 0 0 0 16,4 Z" />
  <path
     style="opacity:0.2;fill:#000000"
     d="M 11.5,8.5 A 4.5,4.5 0 0 0 7,13 4.5,4.5 0 0 0 7.058594,13.697266 3,3 0 0 0 6,13.5 a 3,3 0 0 0 -3,3 3,3 0 0 0 3,3 h 11 a 3,3 0 0 0 3,-3 3,3 0 0 0 -3,-3 3,3 0 0 0 -1.060547,0.193359 A 4.5,4.5 0 0 0 16,13 4.5,4.5 0 0 0 11.5,8.5 Z"
     id="path7" />
  <path
     d="M 11.5,8 C 9.014719,8 7,10.014719 7,12.5 7.00096,12.732235 7.0199,12.964047 7.05664,13.193359 6.718929,13.06586 6.360978,13.000357 6,13 c -1.6568542,0 -3,1.343146 -3,3 0,1.656854 1.3431458,3 3,3 h 11 c 1.656854,0 3,-1.343146 3,-3 0,-1.656854 -1.343146,-3 -3,-3 -0.362114,0.0026 -0.720763,0.07077 -1.058594,0.201172 C 15.979208,12.969336 15.998799,12.734895 16,12.5 16,10.014719 13.985281,8 11.5,8 Z"
     style="fill:#f2f2f2;fill-opacity:1"
     id="path8" />
  <path
     id="path6"
     style="opacity:0.2;fill:#000000;stroke-width:0.5"
     d="M 6.25,20.5 5.7109375,21.03125 5,21.25 5.1738281,22 5,22.75 5.7109375,22.966797 6.25,23.5 6.7890625,22.966797 7.5,22.75 7.3261719,22 7.5,21.25 6.7890625,21.03125 Z m 5,0 -0.539062,0.53125 L 10,21.25 10.173828,22 10,22.75 10.710938,22.966797 11.25,23.5 11.789062,22.966797 12.5,22.75 12.326172,22 12.5,21.25 11.789062,21.03125 Z m 5,0 -0.539062,0.53125 L 15,21.25 15.173828,22 15,22.75 15.710938,22.966797 16.25,23.5 16.789062,22.966797 17.5,22.75 17.326172,22 17.5,21.25 16.789062,21.03125 Z" />
  <path
     id="path9-7"
     style="fill:#edfafe;fill-opacity:1;stroke-width:0.5"
     d="M 6.25,20 5.7109375,20.53125 5,20.75 5.1738281,21.5 5,22.25 5.7109375,22.466797 6.25,23 6.7890625,22.466797 7.5,22.25 7.3261719,21.5 7.5,20.75 6.7890625,20.53125 Z m 5,0 -0.539062,0.53125 L 10,20.75 10.173828,21.5 10,22.25 10.710938,22.466797 11.25,23 11.789062,22.466797 12.5,22.25 12.326172,21.5 12.5,20.75 11.789062,20.53125 Z m 5,0 -0.539062,0.53125 L 15,20.75 15.173828,21.5 15,22.25 15.710938,22.466797 16.25,23 16.789062,22.466797 17.5,22.25 17.326172,21.5 17.5,20.75 16.789062,20.53125 Z" />
</svg>
