<?xml version="1.0" encoding="UTF-8" standalone="no"?>
<!-- Created with Inkscape (http://www.inkscape.org/) -->

<svg
   width="24"
   height="24"
   viewBox="0 0 24 24"
   version="1.1"
   id="svg5"
   inkscape:version="1.3 (0e150ed6c4, 2023-07-21)"
   sodipodi:docname="weather-many-clouds.svg"
   xmlns:inkscape="http://www.inkscape.org/namespaces/inkscape"
   xmlns:sodipodi="http://sodipodi.sourceforge.net/DTD/sodipodi-0.dtd"
   xmlns="http://www.w3.org/2000/svg"
   xmlns:svg="http://www.w3.org/2000/svg">
  <sodipodi:namedview
     id="namedview7"
     pagecolor="#ffffff"
     bordercolor="#000000"
     borderopacity="0.25"
     inkscape:showpageshadow="2"
     inkscape:pageopacity="0.0"
     inkscape:pagecheckerboard="0"
     inkscape:deskcolor="#d1d1d1"
     inkscape:document-units="px"
     showgrid="false"
     inkscape:zoom="32.625"
     inkscape:cx="11.984674"
     inkscape:cy="12"
     inkscape:window-width="1920"
     inkscape:window-height="984"
     inkscape:window-x="0"
     inkscape:window-y="29"
     inkscape:window-maximized="1"
     inkscape:current-layer="svg5" />
  <defs
     id="defs2" />
  <path
     id="path1"
     style="opacity:0.2;fill:#000000;stroke-linecap:round;stroke-linejoin:round"
     d="M 15,5.5 A 4,4 0 0 1 18.480469,7.546875 3,3 0 0 1 19,7.5 a 3,3 0 0 1 3,3 3,3 0 0 1 -3,3 h -4 a 4,4 0 0 1 -4,-4 4,4 0 0 1 4,-4 z" />
  <path
     id="path2"
     style="opacity:1;fill:#d0d0d0;fill-opacity:1;stroke-linecap:round;stroke-linejoin:round"
     d="M 15,5 A 4,4 0 0 1 18.480469,7.046875 3,3 0 0 1 19,7 a 3,3 0 0 1 3,3 3,3 0 0 1 -3,3 H 15 A 4,4 0 0 1 11,9 4,4 0 0 1 15,5 Z" />
  <path
     style="opacity:0.2;fill:#000000"
     d="M 11.5,7.5 A 4.5,4.5 0 0 0 7,12 4.5,4.5 0 0 0 7.058594,12.697266 3,3 0 0 0 6,12.5 a 3,3 0 0 0 -3,3 3,3 0 0 0 3,3 h 11 a 3,3 0 0 0 3,-3 3,3 0 0 0 -3,-3 3,3 0 0 0 -1.060547,0.193359 A 4.5,4.5 0 0 0 16,12 4.5,4.5 0 0 0 11.5,7.5 Z"
     id="path7" />
  <path
     d="M 11.5,7 C 9.014719,7 7,9.014719 7,11.5 7.00096,11.732235 7.0199,11.964047 7.05664,12.193359 6.718929,12.06586 6.360978,12.000357 6,12 c -1.6568542,0 -3,1.343146 -3,3 0,1.656854 1.3431458,3 3,3 h 11 c 1.656854,0 3,-1.343146 3,-3 0,-1.656854 -1.343146,-3 -3,-3 -0.362114,0.0026 -0.720763,0.07077 -1.058594,0.201172 C 15.979208,11.969336 15.998799,11.734895 16,11.5 16,9.014719 13.985281,7 11.5,7 Z"
     style="fill:#f2f2f2;fill-opacity:1"
     id="path8" />
</svg>
