<?xml version="1.0" encoding="UTF-8" standalone="no"?>
<!-- Created with Inkscape (http://www.inkscape.org/) -->

<svg
   width="48"
   height="48"
   viewBox="0 0 48 48"
   version="1.1"
   id="svg5"
   inkscape:version="1.4 (e7c3feb100, 2024-10-09)"
   sodipodi:docname="gmail.svg"
   xmlns:inkscape="http://www.inkscape.org/namespaces/inkscape"
   xmlns:sodipodi="http://sodipodi.sourceforge.net/DTD/sodipodi-0.dtd"
   xmlns="http://www.w3.org/2000/svg"
   xmlns:svg="http://www.w3.org/2000/svg">
  <sodipodi:namedview
     id="namedview7"
     pagecolor="#ffffff"
     bordercolor="#000000"
     borderopacity="0.25"
     inkscape:showpageshadow="2"
     inkscape:pageopacity="0.0"
     inkscape:pagecheckerboard="0"
     inkscape:deskcolor="#d1d1d1"
     inkscape:document-units="px"
     showgrid="false"
     inkscape:zoom="16.375"
     inkscape:cx="24"
     inkscape:cy="24"
     inkscape:window-width="1920"
     inkscape:window-height="1011"
     inkscape:window-x="0"
     inkscape:window-y="0"
     inkscape:window-maximized="1"
     inkscape:current-layer="svg5" />
  <defs
     id="defs2" />
  <rect
     style="opacity:0.2;fill:#000000;stroke-width:2.85714;stroke-linecap:square"
     id="rect234"
     width="40"
     height="40"
     x="4"
     y="5"
     ry="9" />
  <rect
     style="fill:#4f4f4f;fill-opacity:1;stroke-width:2.85714;stroke-linecap:square"
     id="rect396"
     width="40"
     height="40"
     x="4"
     y="4"
     ry="9" />
  <path
     d="m 10,18.31293 v 14.778972 c 0,1.054516 0.80628,1.908204 1.800781,1.908204 H 16 V 24.039492 L 11.277344,20.51996 c -0.846526,-0.624708 -1.222158,-1.413674 -1.267578,-2.199218 z m 28,0 -0.0098,0.0078 c -0.04542,0.785542 -0.421052,1.57451 -1.267578,2.19922 L 32,24.039482 v 10.960614 h 4.199218 C 37.19372,35.000096 38,34.146408 38,33.091892 Z"
     style="opacity:0.2;fill:#000000;stroke-width:1"
     id="path556" />
  <path
     d="m 38.009524,18.492508 -0.0098,0.0078 c 0,0 -1.033134,0.824156 -1.277102,1.019652 L 32,23.039492 v 10.960614 h 4.199218 C 37.19372,34.000106 38,33.146418 38,32.091902 Z"
     style="fill:#34a853;stroke-width:1"
     id="path444" />
  <path
     d="M 10.000373,18.5 11.277378,19.51995 16,23.039482 V 34.000096 H 11.800781 C 10.80628,34.000096 10,33.146408 10,32.091892 Z"
     style="fill:#4285f4;stroke-width:1"
     id="path472" />
  <path
     id="path360"
     style="opacity:0.2;fill:#000000;stroke-width:0.999974"
     d="m 13.131149,15.002355 c -1.737508,-0.0744 -3.2191168,1.606543 -3.124916,3.310459 h -0.0059 v 1.187468 l 1.033175,0.82615 c 0.0018,0.0016 0.0041,0.0024 0.0059,0.0038 l 0.238236,0.18956 4.72253,3.519436 L 24,30 l 7.999784,-5.960778 4.72253,-3.519436 c 0.0839,-0.06192 0.16338,-0.1264 0.238276,-0.1914 l 1.039034,-0.828104 v -1.187468 h -0.006 c 0.09426,-1.703908 -1.38725,-3.384833 -3.124916,-3.310459 -0.586408,0.0251 -1.201344,0.250806 -1.794874,0.742168 L 31.999784,16.529658 24,22.371298 16.000214,16.529658 14.926023,15.744523 c -0.59353,-0.491362 -1.208518,-0.717061 -1.794874,-0.742168 z" />
  <path
     id="path500"
     style="fill:#c5221f;stroke-width:0.999974"
     d="m 13.131149,14.002382 c -1.73751,-0.0744 -3.2191176,1.606541 -3.124916,3.310458 h -0.0059 v 1.187468 l 1.033175,0.824198 c 0.0021,0.0018 0.0038,0.004 0.0059,0.006 0.07489,0.065 0.154372,0.12754 0.238276,0.18944 l 4.72249,3.519394 V 15.529685 L 14.926023,14.74455 c -0.593531,-0.491362 -1.208518,-0.717061 -1.794874,-0.742168 z" />
  <path
     id="path416"
     style="fill:#fbbc04;stroke-width:0.999974"
     d="m 34.868848,14.002382 c -0.586408,0.0251 -1.201342,0.250806 -1.794874,0.742168 l -1.07419,0.785135 v 7.509563 l 4.72253,-3.519436 c 0.0839,-0.06192 0.16338,-0.12444 0.238276,-0.18944 0.0022,-0.0018 0.0038,-0.004 0.006,-0.006 l 1.033134,-0.824156 V 17.31284 h -0.006 c 0.09426,-1.703908 -1.387248,-3.384832 -3.124916,-3.310458 z" />
  <path
     d="m 16,15.529727 v 7.509765 l 8,5.960938 8,-5.960938 v -7.509765 l -8,5.841797 z"
     style="fill:#ea4335;stroke-width:1"
     id="path388" />
  <path
     d="m 13.13086,14.002383 c -1.853851,-0.07938 -3.410274,1.839325 -3.078125,3.652345 0.255755,-1.45147 1.566694,-2.717063 3.078125,-2.652345 0.58637,0.02511 1.201374,0.250813 1.794921,0.742188 L 16,16.529728 l 8,5.841796 8,-5.841796 1.074218,-0.785157 c 0.593548,-0.491375 1.208498,-0.717088 1.794922,-0.742188 1.511566,-0.0647 2.822412,1.200883 3.078126,2.652345 0.332202,-1.813012 -1.224108,-3.731699 -3.078126,-3.652345 -0.586424,0.0251 -1.201374,0.250813 -1.794922,0.742188 L 32,15.529727 24,21.371524 16,15.529727 14.925781,14.744571 C 14.332234,14.253196 13.71723,14.027491 13.13086,14.002383 Z"
     style="opacity:0.2;fill:#ffffff;stroke-width:1"
     id="path528" />
  <path
     id="path1040"
     style="opacity:0.1;fill:#ffffff;stroke-width:8;stroke-linecap:square"
     d="M 13,4 C 8.0140098,4 4,8.0140096 4,13 v 1 C 4,9.0140096 8.0140098,5 13,5 h 22 c 4.985992,0 9,4.0140096 9,9 V 13 C 44,8.0140096 39.985992,4 35,4 Z" />
</svg>
