<?xml version="1.0" encoding="UTF-8" standalone="no"?>
<!-- Created with Inkscape (http://www.inkscape.org/) -->

<svg
   width="48"
   height="48"
   viewBox="0 0 48 48"
   version="1.1"
   id="svg5"
   inkscape:version="1.4 (e7c3feb100, 2024-10-09)"
   sodipodi:docname="gnome-characters.svg"
   xmlns:inkscape="http://www.inkscape.org/namespaces/inkscape"
   xmlns:sodipodi="http://sodipodi.sourceforge.net/DTD/sodipodi-0.dtd"
   xmlns="http://www.w3.org/2000/svg"
   xmlns:svg="http://www.w3.org/2000/svg">
  <sodipodi:namedview
     id="namedview7"
     pagecolor="#ffffff"
     bordercolor="#000000"
     borderopacity="0.25"
     inkscape:showpageshadow="2"
     inkscape:pageopacity="0.0"
     inkscape:pagecheckerboard="0"
     inkscape:deskcolor="#d1d1d1"
     inkscape:document-units="px"
     showgrid="false"
     inkscape:zoom="16.729167"
     inkscape:cx="24.029887"
     inkscape:cy="24.029887"
     inkscape:window-width="1920"
     inkscape:window-height="1011"
     inkscape:window-x="0"
     inkscape:window-y="0"
     inkscape:window-maximized="1"
     inkscape:current-layer="svg5" />
  <defs
     id="defs2" />
  <rect
     style="opacity:0.2;fill:#000000;stroke-width:2.85714;stroke-linecap:square"
     id="rect234"
     width="40"
     height="40"
     x="4"
     y="5"
     ry="9" />
  <rect
     style="fill:#4f4f4f;fill-opacity:1;stroke-width:2.85714;stroke-linecap:square"
     id="rect396"
     width="40"
     height="40"
     x="4"
     y="4"
     ry="9" />
  <path
     id="path2"
     style="opacity:0.1;fill:#000000"
     d="M 10 9 L 10 16.845703 C 10 16.845703 10.025849 18.147234 8.6328125 18.84375 L 9.6582031 20.494141 C 11.957471 19.344505 12 16.845703 12 16.845703 L 12 17 L 17 17 L 17 17.308594 C 17 17.308594 17.040359 17.847257 16.835938 18.337891 C 16.631504 18.828524 16.454537 19.154297 15.669922 19.154297 L 15.207031 19.154297 L 14.384766 21 L 15.308594 21 L 15.769531 21 C 17.292607 21 18.268136 19.940856 18.640625 19.046875 C 19.013119 18.152894 19 17.308594 19 17.308594 L 19 9 L 10 9 z M 34.601562 9 C 31.497859 9 29 11.497859 29 14.601562 L 29 15.398438 C 29 18.502141 31.497859 21 34.601562 21 L 35.398438 21 C 38.502141 21 41 18.502141 41 15.398438 L 41 14.601562 C 41 11.497859 38.502141 9 35.398438 9 L 34.601562 9 z M 12 11 L 17 11 L 17 12 L 12 12 L 12 11 z M 12 14 L 17 14 L 17 15 L 12 15 L 12 14 z M 36 29 C 35.447728 29 35 29.447723 35 30 C 35 30.552269 35.447728 31.000001 36 31 C 36.552272 31 37 30.552269 37 30 C 37 29.447727 36.552272 29.000001 36 29 z M 12.996094 30 C 12.70171 30 12.434837 30.0563 12.197266 30.169922 C 11.897718 30.314531 11.665268 30.469498 11.5 30.634766 C 11.303744 30.831021 11.151425 31.05553 11.042969 31.308594 C 10.934511 31.56166 10.880859 31.839124 10.880859 32.138672 C 10.880859 32.42789 10.933819 32.700754 11.037109 32.958984 C 11.140402 33.217218 11.293415 33.44437 11.5 33.640625 C 11.55165 33.692265 11.63972 33.764455 11.763672 33.857422 C 11.846302 33.919392 11.923791 33.986292 11.996094 34.058594 C 12.182021 34.234194 12.331692 34.452706 12.445312 34.710938 C 12.558934 34.964001 12.617187 35.263341 12.617188 35.609375 C 12.291817 35.609375 12.001114 35.556425 11.748047 35.453125 C 11.49498 35.349829 11.265178 35.194865 11.058594 34.988281 C 10.955306 34.884995 10.888415 34.812804 10.857422 34.771484 C 10.764452 34.637203 10.692265 34.545787 10.640625 34.494141 C 10.44437 34.297888 10.222511 34.145565 9.9746094 34.037109 C 9.7318716 33.928651 9.4537136 33.873047 9.1386719 33.873047 C 8.839124 33.873047 8.5616599 33.928647 8.3085938 34.037109 C 8.0555275 34.145565 7.8310214 34.297888 7.6347656 34.494141 C 7.4488397 34.680068 7.2938729 34.912514 7.1699219 35.191406 C 7.0563005 35.439304 7 35.709523 7 36.003906 C 7 36.29829 7.0563001 36.565162 7.1699219 36.802734 C 7.3093663 37.102282 7.4643332 37.334733 7.6347656 37.5 C 7.8310214 37.696256 8.0555275 37.848577 8.3085938 37.957031 C 8.5616599 38.06549 8.839124 38.119141 9.1386719 38.119141 C 9.4278909 38.119141 9.7007539 38.066191 9.9589844 37.962891 C 10.217216 37.859605 10.44437 37.706585 10.640625 37.5 C 10.692275 37.44835 10.764459 37.360281 10.857422 37.236328 C 10.919402 37.153688 10.986291 37.076209 11.058594 37.003906 C 11.260013 36.802488 11.487168 36.650166 11.740234 36.546875 C 11.998466 36.438419 12.291817 36.382812 12.617188 36.382812 C 12.617188 36.713345 12.561578 37.006694 12.453125 37.259766 C 12.349832 37.507663 12.197514 37.737471 11.996094 37.949219 C 11.928954 38.016369 11.854118 38.080605 11.771484 38.142578 C 11.642364 38.235548 11.55164 38.307735 11.5 38.359375 C 11.298579 38.560796 11.145566 38.790601 11.037109 39.048828 C 10.933817 39.307059 10.880859 39.579919 10.880859 39.869141 C 10.880859 40.168684 10.934509 40.446151 11.042969 40.699219 C 11.151425 40.952286 11.303744 41.176795 11.5 41.373047 C 11.685927 41.55898 11.918376 41.713943 12.197266 41.837891 C 12.440002 41.946349 12.709524 42 13.003906 42 C 13.29829 42 13.565856 41.94635 13.808594 41.837891 C 14.087483 41.713943 14.319934 41.55898 14.505859 41.373047 C 14.702115 41.176795 14.854433 40.952286 14.962891 40.699219 C 15.071347 40.446151 15.126953 40.168684 15.126953 39.869141 C 15.126953 39.579919 15.071343 39.307059 14.962891 39.048828 C 14.859599 38.790601 14.70728 38.560796 14.505859 38.359375 C 14.454209 38.307725 14.365443 38.23554 14.236328 38.142578 C 14.153698 38.080598 14.07886 38.01636 14.011719 37.949219 C 13.841287 37.778787 13.694264 37.562914 13.570312 37.304688 C 13.451527 37.041284 13.390625 36.734 13.390625 36.382812 C 13.72116 36.382812 14.011864 36.438422 14.259766 36.546875 C 14.512831 36.650166 14.745282 36.802488 14.957031 37.003906 C 15.024171 37.071046 15.088417 37.145882 15.150391 37.228516 C 15.243361 37.357638 15.315547 37.44836 15.367188 37.5 C 15.568606 37.701421 15.798409 37.854441 16.056641 37.962891 C 16.31487 38.066189 16.587734 38.119141 16.876953 38.119141 C 17.176501 38.119141 17.453965 38.065491 17.707031 37.957031 C 17.960097 37.848577 18.184604 37.696256 18.380859 37.5 C 18.566786 37.314071 18.721752 37.08162 18.845703 36.802734 C 18.95416 36.559999 19.007812 36.290477 19.007812 35.996094 C 19.007812 35.701709 18.954162 35.434141 18.845703 35.191406 C 18.721752 34.912514 18.566786 34.680068 18.380859 34.494141 C 18.184604 34.297888 17.960097 34.145565 17.707031 34.037109 C 17.453965 33.928651 17.176501 33.873047 16.876953 33.873047 C 16.587734 33.873047 16.31487 33.928647 16.056641 34.037109 C 15.798409 34.140402 15.568607 34.292725 15.367188 34.494141 C 15.315538 34.545791 15.243354 34.634555 15.150391 34.763672 C 15.088411 34.846312 15.024173 34.921147 14.957031 34.988281 C 14.786599 35.158718 14.568082 35.30574 14.304688 35.429688 C 14.046456 35.548477 13.741819 35.609375 13.390625 35.609375 C 13.390625 35.284006 13.440936 34.995952 13.539062 34.748047 C 13.642354 34.494979 13.799969 34.265181 14.011719 34.058594 C 14.115009 33.95529 14.187196 33.888395 14.228516 33.857422 C 14.362801 33.764452 14.454219 33.692265 14.505859 33.640625 C 14.702115 33.44437 14.854433 33.225161 14.962891 32.982422 C 15.071347 32.734521 15.126953 32.453715 15.126953 32.138672 C 15.126953 31.839124 15.071343 31.56166 14.962891 31.308594 C 14.854433 31.05553 14.702115 30.831021 14.505859 30.634766 C 14.319934 30.44884 14.087483 30.293873 13.808594 30.169922 C 13.560692 30.0563 13.290476 30 12.996094 30 z M 34 32 C 33.447728 32 33 32.447731 33 33 C 33 33.552276 33.447728 34 34 34 C 34.552272 34 35 33.552273 35 33 C 35 32.447731 34.552272 32 34 32 z M 38 32 C 37.447728 32 37 32.447731 37 33 C 37 33.552276 37.447728 34 38 34 C 38.552272 34 39 33.552273 39 33 C 39 32.447731 38.552272 32 38 32 z M 41 34.425781 L 39 35.285156 L 39 37.003906 L 37 37.003906 L 37 36.144531 L 37 35.285156 L 35 36.144531 L 35 37.003906 L 33 37 L 33 36 L 31 37.154297 L 31 39 C 31 39.552284 30.552284 40 30 40 C 29.447716 40 29 39.552284 29 39 L 29 38.308594 L 27.037109 39.443359 C 27.256429 40.91111 28.515955 41.997938 30 42 C 31.647737 41.999 32.986247 40.66918 32.998047 39.021484 L 33 39.021484 L 41 39.023438 L 41 34.425781 z " />
  <path
     style="opacity:0.1;fill:#ffffff"
     d="M 23,4 V 23 H 4 v 2 h 19 v 19 h 2 V 25 H 44 V 23 H 25 V 4 Z"
     id="path3" />
  <rect
     style="fill:#ffb820"
     width="12"
     height="12"
     x="29"
     y="8"
     rx="5.6020002"
     ry="5.6020002"
     id="rect4" />
  <path
     style="fill:#c01c27"
     d="m 33,16 h 4 c 0,0 0,1 -2,1 -2,0 -2,-1 -2,-1 z"
     id="path5" />
  <rect
     style="fill:#ffffff"
     width="4"
     height="1"
     x="33"
     y="15"
     id="rect5" />
  <path
     style="fill:#b45600"
     d="M 32,12.500001 C 32,12.223855 32.22386,12 32.500001,12 32.77614,12 33,12.223855 33,12.500001 V 14 h -1 z"
     id="path6" />
  <path
     style="fill:#4191ef"
     d="m 10,8.0000002 v 7.8461538 c 0,0 0.02599,1.301079 -1.3670455,1.997596 l 1.0258601,1.650541 C 11.958084,18.344654 12,15.846154 12,15.846154 V 16 h 5 v 0.307692 c 0,0 0.04125,0.538814 -0.163171,1.029448 -0.204434,0.490634 -0.382752,0.816706 -1.167368,0.816706 H 15.207923 L 14.384616,20 h 0.923077 0.461538 c 1.523077,0 2.498605,-1.058542 2.871094,-1.952524 C 19.012819,17.153494 19,16.307692 19,16.307692 V 8.0000002 Z M 12,10 h 5 v 1 h -5 z m 0,3 h 5 v 1 h -5 z"
     id="path7" />
  <path
     style="fill:#26a269"
     d="m 35.999891,28 c -0.552273,0 -1,0.447722 -1,1 0,0.55227 0.447727,1.000001 1,1 0.552273,0 1,-0.44773 1,-1 0,-0.552274 -0.447727,-0.999999 -1,-1 z m -2,3 c -0.552273,0 -1,0.44773 -1,1 0,0.552277 0.447727,1 1,1 0.552273,0 1,-0.447726 1,-1 0,-0.55227 -0.447727,-1 -1,-1 z m 4,0 c -0.552273,0 -1,0.44773 -1,1 0,0.552277 0.447727,1 1,1 0.552273,0 1,-0.447726 1,-1 0,-0.55227 -0.447727,-1 -1,-1 z m 3,2.425781 -2,0.859375 v 1.71875 h -2 v -0.859375 -0.859375 l -2,0.859375 v 0.859375 l -2,-0.0039 v -1 l -2,1.154297 V 38 c 0,0.552285 -0.447715,1 -1,1 -0.552285,0 -1,-0.447715 -1,-1 V 37.308594 L 27.037,38.443359 c 0.21932,1.467752 1.478845,2.554579 2.962891,2.556641 1.647739,-10e-4 2.986247,-1.330819 2.998047,-2.978516 h 0.002 l 8,0.002 z"
     id="path8" />
  <path
     style="fill:#a347ba"
     d="m 12.616527,34.608782 q 0,-0.519051 -0.170432,-0.898647 -0.170432,-0.387347 -0.449323,-0.650747 -0.108454,-0.108453 -0.232407,-0.201415 -0.185928,-0.13945 -0.263396,-0.216914 -0.309877,-0.294383 -0.464816,-0.681734 -0.154939,-0.387347 -0.154939,-0.821174 0,-0.449322 0.162686,-0.828923 0.162685,-0.379596 0.457069,-0.67398 0.247902,-0.247901 0.697224,-0.464815 Q 12.554552,29 12.996127,29 q 0.441575,0 0.813428,0.170433 0.418335,0.185926 0.697224,0.464815 0.294383,0.294384 0.457069,0.67398 0.162685,0.379601 0.162685,0.828923 0,0.472565 -0.162685,0.844417 -0.162686,0.364108 -0.457069,0.658491 -0.07746,0.07746 -0.278889,0.216914 -0.06198,0.04646 -0.216915,0.201415 -0.317624,0.309881 -0.472562,0.689483 -0.147192,0.371857 -0.147192,0.859911 0.526791,0 0.914138,-0.178186 0.395093,-0.185922 0.650742,-0.441577 0.100712,-0.100701 0.193674,-0.224654 0.139445,-0.193675 0.216914,-0.271149 0.30213,-0.302123 0.689477,-0.457062 0.387346,-0.162688 0.821175,-0.162688 0.449322,0 0.828923,0.162688 0.379598,0.162683 0.673982,0.457062 0.27889,0.278893 0.464816,0.697233 0.162685,0.364102 0.162685,0.805679 0,0.441577 -0.162685,0.805681 -0.185926,0.418329 -0.464816,0.697222 -0.294384,0.294384 -0.673982,0.457066 -0.379601,0.162688 -0.828923,0.162688 -0.433829,0 -0.821175,-0.154948 -0.387347,-0.162674 -0.689477,-0.464806 -0.07746,-0.07746 -0.216914,-0.271145 -0.09296,-0.12395 -0.193674,-0.224663 -0.317624,-0.302128 -0.697224,-0.457065 -0.371853,-0.162684 -0.867656,-0.162684 0,0.526781 0.178179,0.921886 0.185927,0.387341 0.441575,0.642988 0.100712,0.100712 0.224662,0.193681 0.193673,0.139443 0.271142,0.216913 0.302131,0.302132 0.457069,0.689473 0.162685,0.387347 0.162685,0.821179 0,0.449317 -0.162685,0.828919 -0.162686,0.379602 -0.457069,0.67398 -0.278889,0.278899 -0.697224,0.46482 Q 13.445449,41 13.003874,41 q -0.441575,0 -0.805681,-0.162687 -0.418334,-0.185921 -0.697224,-0.46482 -0.294384,-0.294378 -0.457069,-0.67398 -0.162686,-0.379602 -0.162686,-0.828919 0,-0.433832 0.154939,-0.821179 0.162685,-0.387341 0.464816,-0.689473 0.07746,-0.07746 0.271142,-0.216913 0.123951,-0.09296 0.224661,-0.193681 0.302131,-0.317621 0.45707,-0.689469 0.162685,-0.379607 0.162685,-0.875405 -0.488056,0 -0.875403,0.162684 -0.379601,0.154937 -0.68173,0.457065 -0.108454,0.108454 -0.201421,0.232408 -0.139445,0.18593 -0.216914,0.2634 -0.294383,0.309877 -0.6817303,0.464806 -0.387346,0.154948 -0.821175,0.154948 -0.4493222,0 -0.8289219,-0.162688 Q 7.9296321,36.793415 7.6352481,36.499031 7.3795992,36.25113 7.1704322,35.801809 7,35.445449 7,35.003873 q 0,-0.441577 0.1704322,-0.813424 0.1859267,-0.41834 0.4648159,-0.697233 0.294384,-0.294379 0.6739837,-0.457062 0.3795997,-0.162688 0.8289219,-0.162688 0.472563,0 0.83667,0.162688 0.3718523,0.162683 0.6662353,0.457062 0.07746,0.07747 0.216914,0.278893 0.04649,0.06198 0.201421,0.21691 0.309877,0.309876 0.689477,0.46482 0.3796,0.154943 0.867656,0.154943 z"
     id="path9" />
  <path
     style="fill:#b45600"
     d="M 37,12.500001 C 37,12.223855 37.22386,12 37.500001,12 37.77614,12 38,12.223855 38,12.500001 V 14 h -1 z"
     id="path10" />
  <path
     id="path1040"
     style="opacity:0.1;fill:#ffffff;stroke-width:8;stroke-linecap:square"
     d="M 13,4 C 8.01401,4 4,8.01401 4,13 v 1 C 4,9.01401 8.01401,5 13,5 h 22 c 4.985992,0 9,4.01401 9,9 V 13 C 44,8.01401 39.985992,4 35,4 Z" />
</svg>
