<?xml version="1.0" encoding="UTF-8" standalone="no"?>
<!-- Created with Inkscape (http://www.inkscape.org/) -->

<svg
   width="48"
   height="48"
   viewBox="0 0 48 48"
   version="1.1"
   id="svg5"
   inkscape:version="1.2.2 (1:1.2.2+202305151914+b0a8486541)"
   sodipodi:docname="libreoffice-chart.svg"
   xmlns:inkscape="http://www.inkscape.org/namespaces/inkscape"
   xmlns:sodipodi="http://sodipodi.sourceforge.net/DTD/sodipodi-0.dtd"
   xmlns="http://www.w3.org/2000/svg"
   xmlns:svg="http://www.w3.org/2000/svg">
  <sodipodi:namedview
     id="namedview7"
     pagecolor="#ffffff"
     bordercolor="#000000"
     borderopacity="0.25"
     inkscape:showpageshadow="2"
     inkscape:pageopacity="0.0"
     inkscape:pagecheckerboard="0"
     inkscape:deskcolor="#d1d1d1"
     inkscape:document-units="px"
     showgrid="false"
     inkscape:zoom="16.791667"
     inkscape:cx="24"
     inkscape:cy="24"
     inkscape:window-width="1920"
     inkscape:window-height="1008"
     inkscape:window-x="0"
     inkscape:window-y="0"
     inkscape:window-maximized="1"
     inkscape:current-layer="svg5" />
  <defs
     id="defs2" />
  <rect
     style="opacity:0.2;fill:#000000;stroke-width:2.85714;stroke-linecap:square"
     id="rect234"
     width="40"
     height="40"
     x="4"
     y="4.999999"
     ry="9" />
  <rect
     style="fill:#4f4f4f;fill-opacity:1;stroke-width:2.85714;stroke-linecap:square"
     id="rect396"
     width="40"
     height="40"
     x="4"
     y="4"
     ry="9" />
  <path
     d="m 13,11 h 10 l 15,15 v 10 c 0,1.662 -1.338,3 -3,3 H 13 c -1.662,0 -3,-1.338 -3,-3 V 14 c 0,-1.662 1.338,-3 3,-3 z"
     style="opacity:0.2;fill:#000000;stroke-width:3;stroke-linecap:round;stroke-linejoin:round"
     id="path621" />
  <path
     d="m 13,10 h 13 l 12,12 v 13 c 0,1.662 -1.338,3 -3,3 H 13 c -1.662,0 -3,-1.338 -3,-3 V 13 c 0,-1.662 1.338,-3 3,-3 z"
     style="fill:#ededed;stroke-width:3;stroke-linecap:round;stroke-linejoin:round"
     id="path414"
     sodipodi:nodetypes="sccssssss" />
  <rect
     style="fill:#0c9ce8;fill-opacity:1;stroke-width:4.6188;stroke-linecap:square"
     id="rect317"
     width="6"
     height="9.999999"
     x="12"
     y="26" />
  <rect
     style="fill:#e8660c;fill-opacity:1;stroke-width:4.6188;stroke-linecap:square"
     id="rect904"
     width="6"
     height="15.999999"
     x="18"
     y="20" />
  <rect
     style="fill:#e8a30c;fill-opacity:1;stroke-width:4.6188;stroke-linecap:square"
     id="rect1005"
     width="6"
     height="5.9999995"
     x="24"
     y="30" />
  <rect
     style="fill:#7bcd27;fill-opacity:1;stroke-width:4.6188;stroke-linecap:square"
     id="rect1128"
     width="6"
     height="9.999999"
     x="30"
     y="26" />
  <path
     d="M 26,10.75 38,22 v 1 H 26 Z"
     style="opacity:0.1;fill:#000000;fill-opacity:1;stroke-width:6;stroke-linecap:round;stroke-linejoin:round"
     id="path593" />
  <path
     d="M 26,10 38,22 H 26 Z"
     style="fill:#ababab;fill-opacity:1;stroke-width:6;stroke-linecap:round;stroke-linejoin:round"
     id="path565" />
  <path
     id="path1040"
     style="opacity:0.2;fill:#ffffff;stroke-width:8;stroke-linecap:square"
     d="m 13,4.0000003 c -4.9859899,0 -8.9999999,4.01401 -8.9999999,8.9999997 v 1 c 0,-4.9859897 4.01401,-8.9999997 8.9999999,-8.9999997 h 22 c 4.985992,0 9,4.01401 9,8.9999997 V 13 C 44,8.0140103 39.985992,4.0000003 35,4.0000003 Z" />
</svg>
