<?xml version="1.0" encoding="UTF-8" standalone="no"?>
<!-- Created with Inkscape (http://www.inkscape.org/) -->

<svg
   width="48"
   height="48"
   viewBox="0 0 48 48"
   version="1.1"
   id="svg5"
   inkscape:version="1.4 (e7c3feb100, 2024-10-09)"
   sodipodi:docname="libreoffice-calc.svg"
   xmlns:inkscape="http://www.inkscape.org/namespaces/inkscape"
   xmlns:sodipodi="http://sodipodi.sourceforge.net/DTD/sodipodi-0.dtd"
   xmlns="http://www.w3.org/2000/svg"
   xmlns:svg="http://www.w3.org/2000/svg">
  <sodipodi:namedview
     id="namedview7"
     pagecolor="#ffffff"
     bordercolor="#000000"
     borderopacity="0.25"
     inkscape:showpageshadow="2"
     inkscape:pageopacity="0.0"
     inkscape:pagecheckerboard="0"
     inkscape:deskcolor="#d1d1d1"
     inkscape:document-units="px"
     showgrid="false"
     inkscape:zoom="17.291667"
     inkscape:cx="24"
     inkscape:cy="24"
     inkscape:window-width="1920"
     inkscape:window-height="1011"
     inkscape:window-x="0"
     inkscape:window-y="0"
     inkscape:window-maximized="1"
     inkscape:current-layer="svg5" />
  <defs
     id="defs2" />
  <rect
     style="opacity:0.2;fill:#000000;stroke-width:2.85714;stroke-linecap:square"
     id="rect234"
     width="40"
     height="40"
     x="4"
     y="5"
     ry="9" />
  <rect
     style="fill:#4f4f4f;fill-opacity:1;stroke-width:2.85714;stroke-linecap:square"
     id="rect396"
     width="40"
     height="40"
     x="4"
     y="4"
     ry="9" />
  <path
     id="rect9316"
     style="opacity:0.2;fill:#000000"
     d="m 13,17 c -0.553999,0 -1,0.446001 -1,1 v 10 c 0,0.553999 0.446001,1 1,1 h 10 v 4 c 0,0.553999 0.446001,1 1,1 h 11 c 0.553999,0 1,-0.446001 1,-1 v -8 c 0,-0.553999 -0.446001,-1 -1,-1 h -4 v -6 c 0,-0.553999 -0.446001,-1 -1,-1 z m 1,2 h 4 v 2 h -4 z m 5,0 h 5 v 2 h -5 z m 6,0 h 4 v 2 h -4 z m -11,3 h 4 v 2 h -4 z m 5,0 h 5 v 2 h -5 z m 6,0 h 4 v 2 h -4 z m -11,3 h 4 v 2 h -4 z m 5,0 h 4 v 2 h -4 z" />
  <path
     style="fill:#dff6d4"
     d="m 13,16 c -0.554,0 -1,0.446 -1,1 v 10 c 0,0.554 0.446,1 1,1 h 17 c 0.554,0 1,-0.446 1,-1 V 17 c 0,-0.554 -0.446,-1 -1,-1 z m 1,2 h 4 v 2 h -4 z m 5,0 h 5 v 2 h -5 z m 6,0 h 4 v 2 h -4 z m -11,3 h 4 v 2 h -4 z m 5,0 h 5 v 2 h -5 z m 6,0 h 4 v 2 h -4 z m -11,3 h 4 v 2 h -4 z m 5,0 h 5 v 2 h -5 z m 6,0 h 4 v 2 h -4 z"
     id="path9322"
     sodipodi:nodetypes="sssssssssccccccccccccccccccccccccccccccccccccccccccccc" />
  <rect
     style="fill:#4ba425;fill-opacity:1;stroke-width:4;stroke-linecap:square"
     id="rect9535"
     width="13"
     height="10"
     x="23"
     y="23"
     ry="1" />
  <path
     style="fill:#4f4f4f;fill-opacity:1"
     d="m 27,24 v 8 h 2 v -8 z m -3,2 v 6 h 2 v -6 z m 6,4 v 2 h 2 v -2 z m 3,-2 v 4 h 2 v -4 z"
     id="path9326" />
  <path
     id="path1040"
     style="opacity:0.1;fill:#ffffff;stroke-width:8;stroke-linecap:square"
     d="M 13,4 C 8.0140102,4 4.0000002,8.01401 4.0000002,13 v 1 c 0,-4.98599 4.01401,-9 8.9999998,-9 h 22 c 4.985992,0 9,4.01401 9,9 V 13 C 44,8.01401 39.985992,4 35,4 Z" />
</svg>
