<?xml version="1.0" encoding="UTF-8" standalone="no"?>
<!-- Created with Inkscape (http://www.inkscape.org/) -->

<svg
   width="48"
   height="48"
   viewBox="0 0 48 48"
   version="1.1"
   id="svg5"
   inkscape:version="1.4 (e7c3feb100, 2024-10-09)"
   sodipodi:docname="youtube-music-desktop-app.svg"
   xmlns:inkscape="http://www.inkscape.org/namespaces/inkscape"
   xmlns:sodipodi="http://sodipodi.sourceforge.net/DTD/sodipodi-0.dtd"
   xmlns="http://www.w3.org/2000/svg"
   xmlns:svg="http://www.w3.org/2000/svg">
  <sodipodi:namedview
     id="namedview7"
     pagecolor="#ffffff"
     bordercolor="#000000"
     borderopacity="0.25"
     inkscape:showpageshadow="2"
     inkscape:pageopacity="0.0"
     inkscape:pagecheckerboard="0"
     inkscape:deskcolor="#d1d1d1"
     inkscape:document-units="px"
     showgrid="false"
     inkscape:zoom="16.791667"
     inkscape:cx="24"
     inkscape:cy="24"
     inkscape:window-width="1920"
     inkscape:window-height="1011"
     inkscape:window-x="0"
     inkscape:window-y="0"
     inkscape:window-maximized="1"
     inkscape:current-layer="svg5" />
  <defs
     id="defs2" />
  <rect
     style="opacity:0.2;fill:#000000;stroke-width:2.85714;stroke-linecap:square"
     id="rect234"
     width="40"
     height="40"
     x="4"
     y="5"
     ry="9" />
  <rect
     style="fill:#4f4f4f;fill-opacity:1;stroke-width:2.85714;stroke-linecap:square"
     id="rect396"
     width="40"
     height="40"
     x="4"
     y="4"
     ry="9" />
  <circle
     style="opacity:0.2;fill:#000000;fill-opacity:1;stroke-width:5.6;stroke-linecap:square"
     id="path744"
     cx="24"
     cy="25"
     r="13.999999" />
  <circle
     style="fill:#fa2235;fill-opacity:1;stroke-width:5.6;stroke-linecap:square"
     id="path345"
     cx="24"
     cy="24"
     r="13.999999" />
  <path
     id="path909"
     style="opacity:0.2;fill:#ffffff;fill-opacity:1;stroke-width:5.6;stroke-linecap:square"
     d="M 24,10 A 13.999999,13.999999 0 0 0 10,24 13.999999,13.999999 0 0 0 10.035156,24.488282 13.999999,13.999999 0 0 1 24,11 13.999999,13.999999 0 0 1 37.980468,24.265624 13.999999,13.999999 0 0 0 38,24 13.999999,13.999999 0 0 0 24,10 Z" />
  <path
     d="m 19,18 12,7 -12,7 z"
     style="opacity:0.2;fill:#000000;stroke-width:5.29151"
     id="path649" />
  <path
     d="m 19,17 12,7 -12,7 z"
     style="fill:#4f4f4f;stroke-width:5.29151;fill-opacity:1"
     id="path2099" />
  <path
     id="path1040"
     style="opacity:0.1;fill:#ffffff;stroke-width:8;stroke-linecap:square"
     d="M 13,4 C 8.01401,4 4,8.01401 4,13 v 1 C 4,9.01401 8.01401,5 13,5 h 22 c 4.985992,0 9,4.01401 9,9 V 13 C 44,8.01401 39.985992,4 35,4 Z" />
</svg>
