<?xml version="1.0" encoding="UTF-8" standalone="no"?>
<!-- Created with Inkscape (http://www.inkscape.org/) -->

<svg
   width="96"
   height="96"
   viewBox="0 0 96 96.000006"
   version="1.1"
   id="svg5"
   inkscape:version="1.2.2 (1:1.2.2+202305151914+b0a8486541)"
   sodipodi:docname="application-vnd.oasis.opendocument.text.svg"
   xmlns:inkscape="http://www.inkscape.org/namespaces/inkscape"
   xmlns:sodipodi="http://sodipodi.sourceforge.net/DTD/sodipodi-0.dtd"
   xmlns="http://www.w3.org/2000/svg"
   xmlns:svg="http://www.w3.org/2000/svg">
  <sodipodi:namedview
     id="namedview7"
     pagecolor="#ffffff"
     bordercolor="#000000"
     borderopacity="0.25"
     inkscape:showpageshadow="2"
     inkscape:pageopacity="0.0"
     inkscape:pagecheckerboard="0"
     inkscape:deskcolor="#d1d1d1"
     inkscape:document-units="px"
     showgrid="false"
     inkscape:zoom="8.3958333"
     inkscape:cx="48"
     inkscape:cy="48"
     inkscape:window-width="1920"
     inkscape:window-height="1008"
     inkscape:window-x="0"
     inkscape:window-y="0"
     inkscape:window-maximized="1"
     inkscape:current-layer="svg5" />
  <defs
     id="defs2" />
  <path
     id="rect234"
     style="opacity:0.2;stroke-width:1.5;stroke-linecap:round;stroke-linejoin:round"
     d="m 21,7 h 36 l 24,24 v 54 c 0,3.324 -2.676,6 -6,6 H 21 c -3.324,0 -6,-2.676 -6,-6 V 13 c 0,-3.324 2.676,-6 6,-6 z" />
  <path
     id="rect448"
     style="fill:#1b83d4;fill-opacity:1;stroke-width:1.5;stroke-linecap:round;stroke-linejoin:round"
     d="m 21,6 h 36 l 9,15 15,9 v 54 c 0,3.324 -2.676,6 -6,6 H 21 c -3.324,0 -6,-2.676 -6,-6 V 12 c 0,-3.324 2.676,-6 6,-6 z" />
  <path
     d="M 24.20508,41.75 C 24.07743,41.97086 24,42.225515 24,42.5 c 0,0.831 0.669,1.5 1.5,1.5 h 18 C 44.331,44 45,43.331 45,42.5 45,42.225515 44.9226,41.97086 44.79492,41.75 44.53599,42.197795 44.056515,42.5 43.5,42.5 h -18 c -0.556515,0 -1.03599,-0.302205 -1.29492,-0.75 z m 0,6 C 24.07743,47.97086 24,48.225515 24,48.5 c 0,0.831 0.669,1.5 1.5,1.5 h 18 C 44.331,50 45,49.331 45,48.5 45,48.225515 44.9226,47.97086 44.79492,47.75 44.53599,48.197795 44.056515,48.5 43.5,48.5 h -18 c -0.556515,0 -1.03599,-0.302205 -1.29492,-0.75 z M 51,51.5 V 53 c 0,1.662 1.338,3 3,3 h 15 c 1.662,0 3,-1.338 3,-3 v -1.5 c 0,1.662 -1.338,3 -3,3 H 54 c -1.662,0 -3,-1.338 -3,-3 z M 24.20508,53.75 C 24.07743,53.97086 24,54.225515 24,54.5 c 0,0.831 0.669,1.5 1.5,1.5 h 18 C 44.331,56 45,55.331 45,54.5 45,54.225515 44.9226,53.97086 44.79492,53.75 44.53599,54.197795 44.056515,54.5 43.5,54.5 h -18 c -0.556515,0 -1.03599,-0.302205 -1.29492,-0.75 z m 0,9 C 24.07743,62.97086 24,63.225515 24,63.5 c 0,0.831 0.669,1.5 1.5,1.5 h 45 C 71.331,65 72,64.331 72,63.5 72,63.225515 71.9226,62.97086 71.79492,62.75 71.53599,63.197795 71.056515,63.5 70.5,63.5 h -45 c -0.556515,0 -1.03599,-0.302205 -1.29492,-0.75 z m 0,6 C 24.07743,68.97086 24,69.225515 24,69.5 c 0,0.831 0.669,1.5 1.5,1.5 h 45 C 71.331,71 72,70.331 72,69.5 72,69.225515 71.9226,68.97086 71.79492,68.75 71.53599,69.197795 71.056515,69.5 70.5,69.5 h -45 c -0.556515,0 -1.03599,-0.302205 -1.29492,-0.75 z m 0,6 C 24.07743,74.97086 24,75.225515 24,75.5 c 0,0.831 0.669,1.5 1.5,1.5 h 18 C 44.331,77 45,76.331 45,75.5 45,75.225515 44.9226,74.97086 44.79492,74.75 44.53599,75.197795 44.056515,75.5 43.5,75.5 h -18 c -0.556515,0 -1.03599,-0.302205 -1.29492,-0.75 z"
     style="opacity:0.2;fill:#000000;stroke-width:3"
     id="path515" />
  <path
     d="m 25.5,40 c -0.831,0 -1.5,0.669 -1.5,1.5 0,0.831 0.669,1.5 1.5,1.5 h 18 C 44.331,43 45,42.331 45,41.5 45,40.669 44.331,40 43.5,40 Z m 0,6 c -0.831,0 -1.5,0.669 -1.5,1.5 0,0.831 0.669,1.5 1.5,1.5 h 18 C 44.331,49 45,48.331 45,47.5 45,46.669 44.331,46 43.5,46 Z m 0,6 c -0.831,0 -1.5,0.669 -1.5,1.5 0,0.831 0.669,1.5 1.5,1.5 h 18 C 44.331,55 45,54.331 45,53.5 45,52.669 44.331,52 43.5,52 Z m 0,9 c -0.831,0 -1.5,0.669 -1.5,1.5 0,0.831 0.669,1.5 1.5,1.5 h 45 C 71.331,64 72,63.331 72,62.5 72,61.669 71.331,61 70.5,61 Z m 0,6 c -0.831,0 -1.5,0.669 -1.5,1.5 0,0.831 0.669,1.5 1.5,1.5 h 45 C 71.331,70 72,69.331 72,68.5 72,67.669 71.331,67 70.5,67 Z m 0,6 c -0.831,0 -1.5,0.669 -1.5,1.5 0,0.831 0.669,1.5 1.5,1.5 h 18 C 44.331,76 45,75.331 45,74.5 45,73.669 44.331,73 43.5,73 Z"
     style="fill:#ffffff;stroke-width:3"
     id="path407" />
  <path
     d="m 54,40 c -1.662,0 -3,1.338 -3,3 v 9 c 0,1.662 1.338,3 3,3 h 15 c 1.662,0 3,-1.338 3,-3 v -9 c 0,-1.662 -1.338,-3 -3,-3 z m 3,4.5 9,7.5 H 54 Z M 67.5,43 C 68.32842,43 69,43.67158 69,44.5 69,45.32842 68.32842,46 67.5,46 66.67158,46 66,45.32842 66,44.5 66,43.67158 66.67158,43 67.5,43 Z"
     style="fill:#7ad2f9;fill-opacity:1;stroke-width:3"
     id="path487" />
  <path
     d="M 81,31 H 63 c -3.324,0 -6,-2.676 -6,-6 V 6 l 24,24 z"
     style="opacity:0.2;fill:#000000;stroke-width:1.5;stroke-linecap:round;stroke-linejoin:round"
     id="path611" />
  <path
     id="rect600"
     style="fill:#68b2ec;fill-opacity:1;stroke-width:1.5;stroke-linecap:round;stroke-linejoin:round"
     d="M 81,30 H 63 c -3.324,0 -6,-2.676 -6,-6 V 6 Z" />
  <path
     id="path1133"
     style="opacity:0.2;fill:#ffffff;fill-opacity:1;stroke-width:1.5;stroke-linecap:round;stroke-linejoin:round"
     d="M 21 6 C 17.676009 6 15 8.6760098 15 12 L 15 13 C 15 9.6760103 17.676009 7 21 7 L 57 7 L 80 30 L 81 30 L 57 6 L 21 6 z " />
</svg>
