<?xml version="1.0" encoding="UTF-8" standalone="no"?>
<svg
   width="96"
   height="96"
   version="1"
   id="svg5"
   sodipodi:docname="application-x-iso9660-appimage.svg"
   inkscape:version="1.3 (1:1.3+202307231459+0e150ed6c4)"
   xmlns:inkscape="http://www.inkscape.org/namespaces/inkscape"
   xmlns:sodipodi="http://sodipodi.sourceforge.net/DTD/sodipodi-0.dtd"
   xmlns="http://www.w3.org/2000/svg"
   xmlns:svg="http://www.w3.org/2000/svg">
  <defs
     id="defs5" />
  <sodipodi:namedview
     id="namedview5"
     pagecolor="#ffffff"
     bordercolor="#000000"
     borderopacity="0.25"
     inkscape:showpageshadow="2"
     inkscape:pageopacity="0.0"
     inkscape:pagecheckerboard="0"
     inkscape:deskcolor="#d1d1d1"
     inkscape:zoom="7.78125"
     inkscape:cx="48"
     inkscape:cy="48"
     inkscape:window-width="1920"
     inkscape:window-height="1008"
     inkscape:window-x="0"
     inkscape:window-y="0"
     inkscape:window-maximized="1"
     inkscape:current-layer="svg5" />
  <path
     id="path1"
     style="opacity:0.2;fill:#000000;stroke-width:1.5"
     d="M 7.1933594 35.777344 C 7.0051221 36.534562 7.2419715 37.399642 7.8378906 37.912109 L 14.689453 43.919922 C 14.727595 43.618621 14.749995 43.313996 14.794922 43.013672 L 7.8378906 36.912109 C 7.5000048 36.62154 7.2904932 36.21134 7.1933594 35.777344 z M 88.806641 35.777344 C 88.709502 36.21134 88.499954 36.62154 88.162109 36.912109 L 81.205078 43.013672 C 81.249972 43.314013 81.272419 43.618618 81.310547 43.919922 L 88.162109 37.912109 C 88.757956 37.399642 88.994849 36.534562 88.806641 35.777344 z M 14.421875 48.501953 C 14.41898 48.670014 14.400391 48.83281 14.400391 49.001953 C 14.400391 50.393491 14.519586 51.742116 14.689453 53.082031 L 14.794922 52.988281 C 14.574281 51.514193 14.448008 50.027442 14.421875 48.501953 z M 81.578125 48.501953 C 81.551974 50.027592 81.425583 51.514274 81.205078 52.988281 L 81.310547 53.082031 C 81.480368 51.742195 81.599609 50.393687 81.599609 49.001953 C 81.599609 48.832804 81.581023 48.670017 81.578125 48.501953 z M 7.1933594 61.224609 C 7.0803596 61.728258 7.1246022 62.266461 7.3789062 62.716797 L 15.779297 77.285156 C 16.266459 78.111342 17.366701 78.515781 18.273438 78.203125 L 27 75.251953 C 29.623187 77.351828 32.614074 79.060608 35.794922 80.304688 L 37.566406 89.294922 C 37.746103 90.236007 38.641636 90.98695 39.599609 91 L 56.400391 91 C 57.358366 90.988 58.253985 90.236007 58.433594 89.294922 L 60.205078 80.304688 C 63.385925 79.060728 66.376843 77.351948 69 75.251953 L 77.726562 78.203125 C 78.63327 78.515781 79.733542 78.11146 80.220703 77.285156 L 88.621094 62.716797 C 88.875381 62.266461 88.919626 61.728258 88.806641 61.224609 C 88.764427 61.395271 88.708163 61.562603 88.621094 61.716797 L 80.220703 76.285156 C 79.733541 77.111461 78.63327 77.515781 77.726562 77.203125 L 69 74.251953 C 66.37684 76.35195 63.385928 78.060727 60.205078 79.304688 L 58.433594 88.294922 C 58.253985 89.236008 57.358367 89.988 56.400391 90 L 39.599609 90 C 38.641635 89.98695 37.746103 89.236008 37.566406 88.294922 L 35.794922 79.304688 C 32.614071 78.060607 29.62319 76.35183 27 74.251953 L 18.273438 77.203125 C 17.366701 77.515781 16.26646 77.111343 15.779297 76.285156 L 7.3789062 61.716797 C 7.2918737 61.562674 7.2355712 61.395186 7.1933594 61.224609 z " />
  <path
     style="fill:#1fa5cd;stroke-width:1.5"
     d="m 39.402414,6.0027658 c -0.890417,0.096898 -1.674726,0.825438 -1.837473,1.7061951 L 35.793137,16.69923 c -3.180854,1.243962 -6.170311,2.953096 -8.793473,5.053126 L 18.272791,18.7992 c -0.906736,-0.312656 -2.00652,0.0924 -2.493684,0.918736 L 7.3792302,34.286325 c -0.4731531,0.837886 -0.2702961,1.99746 0.4593532,2.624931 l 6.9559986,6.102811 c -0.244796,1.636386 -0.393744,3.282853 -0.393744,4.987427 0,1.704636 0.148797,3.350952 0.393744,4.987428 l -6.9559986,6.103112 c -0.7295593,0.627471 -0.9325063,1.787044 -0.4593532,2.624931 l 8.3998778,14.568388 c 0.487164,0.826188 1.586947,1.231362 2.493684,0.918706 l 8.727772,-2.953036 c 2.623193,2.099879 5.612619,3.809045 8.793473,5.053127 l 1.771804,8.990269 c 0.179697,0.941087 1.076355,1.693145 2.03433,1.706195 h 16.799455 c 0.957977,-0.012 1.854693,-0.765108 2.034302,-1.706195 l 1.771833,-8.990269 c 3.180853,-1.243962 6.17031,-2.953128 8.793473,-5.053127 l 8.727772,2.953036 c 0.906708,0.312656 2.006521,-0.0924 2.493684,-0.918706 l 8.399878,-14.568388 c 0.473123,-0.837887 0.270296,-1.997461 -0.459354,-2.624932 l -6.955998,-6.103111 c 0.244796,-1.636386 0.393714,-3.282552 0.393714,-4.987428 0,-1.704635 -0.1491,-3.350951 -0.393714,-4.987427 l 6.955998,-6.102811 c 0.72956,-0.627471 0.932477,-1.787045 0.459354,-2.624931 L 80.22069,19.717936 C 79.733527,18.891749 78.633714,18.486544 77.727006,18.7992 l -8.727772,2.953036 c -2.624961,-2.10147 -5.61292,-3.810544 -8.792873,-5.054626 L 58.434528,7.7073409 C 58.254829,6.7662547 57.358203,6.0141657 56.400226,6.0011459 H 39.600771 c -0.0657,-0.00153 -0.1314,-0.00153 -0.196797,0 z"
     id="path2" />
  <path
     style="opacity:0.2;fill:#000000;stroke-width:1.5"
     d="m 44.013776,28.001 c -1.187127,0 -2.013399,0.9557 -2.013399,2.142827 v 24.85678 H 33 L 48.00029,73.000346 63.000071,55.000607 h -8.999869 v -24.85678 c 0,-1.187127 -0.826272,-2.142827 -2.0134,-2.142827 z"
     id="path3" />
  <path
     style="fill:#ffffff;stroke-width:1.5"
     d="m 44.013776,27.00066 c -1.187127,0 -2.013399,0.955701 -2.013399,2.142827 v 24.85678 H 33 L 48.00029,72.000006 63.000071,54.000267 h -8.999869 v -24.85678 c 0,-1.187126 -0.826272,-2.142827 -2.0134,-2.142827 z"
     id="path4" />
  <path
     id="path5"
     style="opacity:0.2;fill:#ffffff;stroke-width:1.5"
     d="M 39.402344 6.0019531 C 38.511929 6.0988529 37.7272 6.8282292 37.564453 7.7089844 L 35.792969 16.699219 C 32.612121 17.943179 29.623156 19.651927 27 21.751953 L 18.273438 18.798828 C 17.366702 18.486172 16.266459 18.892416 15.779297 19.71875 L 7.3789062 34.287109 C 7.1249067 34.736907 7.0809167 35.274203 7.1933594 35.777344 C 7.2355958 35.606763 7.2918738 35.441232 7.3789062 35.287109 L 15.779297 20.71875 C 16.266459 19.892419 17.366702 19.486172 18.273438 19.798828 L 27 22.751953 C 29.623156 20.651927 32.612121 18.943179 35.792969 17.699219 L 37.564453 8.7089844 C 37.7272 7.8282293 38.511929 7.098853 39.402344 7.0019531 L 39.404297 7.0019531 C 39.469694 7.0004531 39.535863 7.0004531 39.601562 7.0019531 L 56.400391 7.0019531 C 57.358366 7.0149731 58.253895 7.7659472 58.433594 8.7070312 L 60.207031 17.697266 C 63.386978 18.941344 66.375045 20.650487 69 22.751953 L 77.726562 19.798828 C 78.63327 19.486172 79.733542 19.892565 80.220703 20.71875 L 88.621094 35.287109 C 88.708121 35.441232 88.764411 35.606763 88.806641 35.777344 C 88.919089 35.274203 88.875077 34.736907 88.621094 34.287109 L 80.220703 19.71875 C 79.733542 18.892565 78.63327 18.486172 77.726562 18.798828 L 69 21.751953 C 66.375045 19.650487 63.386978 17.941344 60.207031 16.697266 L 58.433594 7.7070312 C 58.253895 6.7659472 57.358366 6.0149731 56.400391 6.0019531 L 39.601562 6.0019531 C 39.535864 6.0004531 39.469694 6.0004531 39.404297 6.0019531 L 39.402344 6.0019531 z M 14.689453 43.919922 C 14.519577 45.260533 14.400391 46.610221 14.400391 48.001953 C 14.400391 48.171103 14.418982 48.333924 14.421875 48.501953 C 14.44814 46.976212 14.574398 45.487803 14.794922 44.013672 L 14.689453 43.919922 z M 81.310547 43.919922 L 81.205078 44.013672 C 81.425438 45.487884 81.551832 46.976191 81.578125 48.501953 C 81.58102 48.333907 81.599609 48.171127 81.599609 48.001953 C 81.599609 46.610172 81.480368 45.260546 81.310547 43.919922 z M 14.689453 53.082031 L 7.8378906 59.091797 C 7.2436145 59.602915 7.005956 60.464904 7.1914062 61.220703 C 7.2889034 60.788064 7.500988 60.381556 7.8378906 60.091797 L 14.794922 53.988281 C 14.749967 53.687941 14.727649 53.383274 14.689453 53.082031 z M 81.310547 53.082031 C 81.272362 53.383256 81.250005 53.687957 81.205078 53.988281 L 88.162109 60.091797 C 88.499996 60.382366 88.709596 60.790598 88.806641 61.224609 C 88.994014 60.467828 88.757546 59.603848 88.162109 59.091797 L 81.310547 53.082031 z " />
</svg>
