<?xml version="1.0" encoding="UTF-8" standalone="no"?>
<!-- Created with Inkscape (http://www.inkscape.org/) -->

<svg
   width="96"
   height="96"
   viewBox="0 0 96 96.000006"
   version="1.1"
   id="svg5"
   inkscape:version="1.2.2 (1:1.2.2+202305151914+b0a8486541)"
   sodipodi:docname="application-vnd.ms-excel.svg"
   xmlns:inkscape="http://www.inkscape.org/namespaces/inkscape"
   xmlns:sodipodi="http://sodipodi.sourceforge.net/DTD/sodipodi-0.dtd"
   xmlns="http://www.w3.org/2000/svg"
   xmlns:svg="http://www.w3.org/2000/svg">
  <sodipodi:namedview
     id="namedview7"
     pagecolor="#ffffff"
     bordercolor="#000000"
     borderopacity="0.25"
     inkscape:showpageshadow="2"
     inkscape:pageopacity="0.0"
     inkscape:pagecheckerboard="0"
     inkscape:deskcolor="#d1d1d1"
     inkscape:document-units="px"
     showgrid="false"
     inkscape:zoom="8.3958333"
     inkscape:cx="48"
     inkscape:cy="48"
     inkscape:window-width="1920"
     inkscape:window-height="1008"
     inkscape:window-x="0"
     inkscape:window-y="0"
     inkscape:window-maximized="1"
     inkscape:current-layer="svg5" />
  <defs
     id="defs2" />
  <path
     id="rect234"
     style="opacity:0.2;stroke-width:1.5;stroke-linecap:round;stroke-linejoin:round"
     d="m 21,7 h 36 l 24,24 v 54 c 0,3.324 -2.676,6 -6,6 H 21 c -3.324,0 -6,-2.676 -6,-6 V 13 c 0,-3.324 2.676,-6 6,-6 z" />
  <path
     id="rect448"
     style="fill:#e0e0e0;fill-opacity:1;stroke-width:1.5;stroke-linecap:round;stroke-linejoin:round"
     d="m 21,6 h 36 l 9,15 15,9 v 54 c 0,3.324 -2.676,6 -6,6 H 21 c -3.324,0 -6,-2.676 -6,-6 V 12 c 0,-3.324 2.676,-6 6,-6 z" />
  <rect
     style="opacity:0.2;stroke-width:1.5"
     width="34"
     height="40"
     x="35.000015"
     y="41"
     ry="2.0999992"
     id="rect5892" />
  <path
     style="fill:#33c481;stroke-width:1.5;fill-opacity:1"
     d="m 37.100014,40 c -1.1625,0 -2.1,0.937199 -2.1,2.100599 V 50 L 53.000008,56.499993 69,50 V 42.100599 C 69,40.937199 68.0625,40 66.900001,40 Z"
     id="path5894" />
  <path
     style="fill:#107c41;stroke-width:1.5;fill-opacity:1"
     d="M 35.000014,50 H 52 L 69,60 V 70.000001 L 51.999989,70 35.000014,60.000001 Z"
     id="path5898" />
  <path
     id="path5896"
     style="fill:#21a366;stroke-width:1.5;fill-opacity:1"
     d="M 37.099609 40 A 2.0999999 2.0999999 0 0 0 35 42.099609 L 35 50 L 52 50 L 52 40 L 37.099609 40 z M 52 50 L 52 60 L 69 60 L 69 50 L 52 50 z " />
  <path
     style="fill:#185c37;stroke-width:1.5;fill-opacity:1"
     d="m 35.000014,60.000001 v 17.899983 c 0,1.162499 0.9375,2.099999 2.1,2.099999 H 66.900001 C 68.0625,79.999983 69,79.062483 69,77.899984 V 70.000001 L 51.999989,70 52,60 Z"
     id="path5900" />
  <path
     id="path5902"
     style="opacity:0.2;stroke-width:1.5;fill:#000000"
     d="m 34.999996,50 v 1 H 52 v -1 z m 0,10 v 1 H 68.999982 V 60 Z M 52,70 v 1 h 16.999982 v -1 z" />
  <path
     id="path5904"
     style="opacity:0.2;fill:#ffffff;stroke-width:1.5"
     d="m 37.100582,40.000003 c -1.162499,0 -2.100586,0.937186 -2.100586,2.100586 v 0.749999 c 0,-1.163399 0.938087,-2.100585 2.100586,-2.100585 h 29.798814 c 1.1625,0 2.100586,0.937186 2.100586,2.100585 v -0.749999 c 0,-1.1634 -0.938086,-2.100586 -2.100586,-2.100586 z" />
  <rect
     style="opacity:0.2;fill:#000000;fill-opacity:1;stroke-width:7.5;stroke-linecap:round;stroke-linejoin:round"
     id="rect6618"
     width="23.99999"
     height="23.99999"
     x="24"
     y="49"
     ry="2.9999988" />
  <rect
     style="fill:#0d7239;fill-opacity:1;stroke-width:7.5;stroke-linecap:round;stroke-linejoin:round"
     id="rect6150"
     width="23.99999"
     height="23.99999"
     x="24"
     y="48"
     ry="2.9999988" />
  <path
     d="M 29,52 34.25,60.000006 29,68 h 3.500001 L 36.000002,62.400006 39.500001,68 H 43 L 37.750001,60.000006 43,52 H 39.5 L 36.000001,57.600007 32.5,52 Z"
     style="fill:#ffffff;stroke-width:16.7332;stroke-linecap:round;stroke-linejoin:round"
     id="path940" />
  <path
     d="M 81,31 H 63 c -3.324,0 -6,-2.676 -6,-6 V 6 l 24,24 z"
     style="opacity:0.2;fill:#000000;stroke-width:1.5;stroke-linecap:round;stroke-linejoin:round"
     id="path611" />
  <path
     id="rect600"
     style="fill:#f5f5f5;fill-opacity:1;stroke-width:1.5;stroke-linecap:round;stroke-linejoin:round"
     d="M 81,30 H 63 c -3.324,0 -6,-2.676 -6,-6 V 6 Z" />
  <path
     id="path1133"
     style="opacity:0.2;fill:#ffffff;fill-opacity:1;stroke-width:1.5;stroke-linecap:round;stroke-linejoin:round"
     d="M 21 6 C 17.676009 6 15 8.6760098 15 12 L 15 13 C 15 9.6760103 17.676009 7 21 7 L 57 7 L 80 30 L 81 30 L 57 6 L 21 6 z " />
</svg>
