<?xml version="1.0" encoding="UTF-8" standalone="no"?>
<!-- Created with Inkscape (http://www.inkscape.org/) -->

<svg
   width="96"
   height="96"
   viewBox="0 0 96 96.000006"
   version="1.1"
   id="svg5"
   inkscape:version="1.3 (0e150ed6c4, 2023-07-21)"
   sodipodi:docname="application-x-hwp.svg"
   xmlns:inkscape="http://www.inkscape.org/namespaces/inkscape"
   xmlns:sodipodi="http://sodipodi.sourceforge.net/DTD/sodipodi-0.dtd"
   xmlns="http://www.w3.org/2000/svg"
   xmlns:svg="http://www.w3.org/2000/svg">
  <sodipodi:namedview
     id="namedview7"
     pagecolor="#ffffff"
     bordercolor="#000000"
     borderopacity="0.25"
     inkscape:showpageshadow="2"
     inkscape:pageopacity="0.0"
     inkscape:pagecheckerboard="0"
     inkscape:deskcolor="#d1d1d1"
     inkscape:document-units="px"
     showgrid="false"
     inkscape:zoom="8.3333333"
     inkscape:cx="48"
     inkscape:cy="48"
     inkscape:window-width="1850"
     inkscape:window-height="1011"
     inkscape:window-x="0"
     inkscape:window-y="0"
     inkscape:window-maximized="1"
     inkscape:current-layer="svg5" />
  <defs
     id="defs2" />
  <path
     id="rect234"
     style="opacity:0.2;stroke-width:1.5;stroke-linecap:round;stroke-linejoin:round"
     d="m 21,7 h 36 l 24,24 v 54 c 0,3.324 -2.676,6 -6,6 H 21 c -3.324,0 -6,-2.676 -6,-6 V 13 c 0,-3.324 2.676,-6 6,-6 z" />
  <path
     id="rect448"
     style="fill:#e0e0e0;fill-opacity:1;stroke-width:1.5;stroke-linecap:round;stroke-linejoin:round"
     d="m 21,6 h 36 l 9,15 15,9 v 54 c 0,3.324 -2.676,6 -6,6 H 21 c -3.324,0 -6,-2.676 -6,-6 V 12 c 0,-3.324 2.676,-6 6,-6 z" />
  <path
     id="path6"
     style="opacity:0.2;stroke-width:1.5"
     d="M 47 38 L 47 42 L 35 42 L 35 45 L 62 45 L 62 42 L 50 42 L 50 38 L 47 38 z M 48.5 48 C 42.701021 48 38 52.701021 38 58.5 C 38 64.298979 42.701021 69 48.5 69 C 54.298979 69 59 64.298979 59 58.5 C 59 52.701021 54.298979 48 48.5 48 z M 48.5 51 C 52.642128 51 56 54.357872 56 58.5 C 56 62.642128 52.642128 66 48.5 66 C 44.357872 66 41 62.642128 41 58.5 C 41 54.357872 44.357872 51 48.5 51 z M 47 72 L 47 75 L 50 75 L 50 72 L 47 72 z M 35 73.5 L 35 81 L 62 81 L 62 78 L 38 78 L 38 73.5 L 35 73.5 z " />
  <path
     id="path7"
     style="fill:#50beee;fill-opacity:1;stroke-width:1.5"
     d="m 47,37 v 4 H 35 v 3 H 62 V 41 H 50 v -4 z m 1.5,10 C 42.701015,47 38,51.701015 38,57.5 38,63.298985 42.701015,68 48.5,68 54.298985,68 59,63.298985 59,57.5 59,51.701015 54.298985,47 48.5,47 Z m 0,3 C 52.642132,50 56,53.357868 56,57.5 56,61.642132 52.642132,65 48.5,65 44.357868,65 41,61.642132 41,57.5 41,53.357868 44.357868,50 48.5,50 Z M 47,71 v 3 h 3 V 71 Z M 35,72.5 V 80 H 62 V 77 H 38 v -4.5 z" />
  <path
     d="M 81,31 H 63 c -3.324,0 -6,-2.676 -6,-6 V 6 l 24,24 z"
     style="opacity:0.2;fill:#000000;stroke-width:1.5;stroke-linecap:round;stroke-linejoin:round"
     id="path611" />
  <path
     id="rect600"
     style="fill:#f5f5f5;fill-opacity:1;stroke-width:1.5;stroke-linecap:round;stroke-linejoin:round"
     d="M 81,30 H 63 c -3.324,0 -6,-2.676 -6,-6 V 6 Z" />
  <path
     id="path1133"
     style="opacity:0.2;fill:#ffffff;fill-opacity:1;stroke-width:1.5;stroke-linecap:round;stroke-linejoin:round"
     d="M 21 6 C 17.676009 6 15 8.6760098 15 12 L 15 13 C 15 9.6760103 17.676009 7 21 7 L 57 7 L 80 30 L 81 30 L 57 6 L 21 6 z " />
</svg>
