<?xml version="1.0" encoding="UTF-8" standalone="no"?>
<!-- Created with Inkscape (http://www.inkscape.org/) -->

<svg
   width="96"
   height="96"
   viewBox="0 0 96 96.000006"
   version="1.1"
   id="svg5"
   inkscape:version="1.2.2 (1:1.2.2+202305151914+b0a8486541)"
   sodipodi:docname="application-x-executable.svg"
   xmlns:inkscape="http://www.inkscape.org/namespaces/inkscape"
   xmlns:sodipodi="http://sodipodi.sourceforge.net/DTD/sodipodi-0.dtd"
   xmlns="http://www.w3.org/2000/svg"
   xmlns:svg="http://www.w3.org/2000/svg">
  <sodipodi:namedview
     id="namedview7"
     pagecolor="#ffffff"
     bordercolor="#000000"
     borderopacity="0.25"
     inkscape:showpageshadow="2"
     inkscape:pageopacity="0.0"
     inkscape:pagecheckerboard="0"
     inkscape:deskcolor="#d1d1d1"
     inkscape:document-units="px"
     showgrid="false"
     inkscape:zoom="8.3958333"
     inkscape:cx="47.940447"
     inkscape:cy="48"
     inkscape:window-width="1920"
     inkscape:window-height="1008"
     inkscape:window-x="0"
     inkscape:window-y="0"
     inkscape:window-maximized="1"
     inkscape:current-layer="svg5" />
  <defs
     id="defs2" />
  <path
     d="m 56.971047,7.2945995 c -4.559756,-1.2217822 -9.216516,1.4668009 -10.4383,6.0265555 -0.643102,2.40009 -2.16663,3.429687 -5.62367,4.58636 -4.263399,1.426469 -7.077734,1.859992 -9.477212,-0.539476 -3.337969,-3.337973 -8.713179,-3.335756 -12.051152,0.0023 l -3.014407,3.009567 c -3.337972,3.337975 -3.335753,8.713181 0.0023,12.051152 1.670821,1.670819 1.515221,4.781666 0.765754,8.298335 -0.95542,4.483041 -1.235351,5.845244 -4.81233,6.803691 -4.5597537,1.221782 -7.2492788,5.875739 -6.0274982,10.435494 l 1.1057678,4.113573 c 1.2217806,4.559754 5.8757404,7.249279 10.4354944,6.0275 3.130355,-0.838776 4.775482,0.774068 7.321342,3.197377 3.424048,3.259229 4.535568,4.862405 3.732963,7.857765 -1.22178,4.559757 1.466803,9.216509 6.026554,10.438289 l 2.056126,0.550949 2.056125,0.550935 c 4.559752,1.221779 9.216516,-1.466804 10.438299,-6.026553 0.802602,-2.995363 2.566797,-3.827993 7.161726,-4.938544 3.416432,-0.82572 5.647572,-1.399918 7.939154,0.891659 3.337971,3.337972 8.713182,3.335756 12.051152,-0.0022 l 3.01441,-3.009574 c 3.337973,-3.337972 3.335754,-8.713182 -0.0023,-12.05115 -2.618529,-2.618531 -2.179857,-3.938197 -0.765754,-8.298337 1.109276,-3.420257 2.529947,-6.192126 4.812329,-6.80369 4.559755,-1.221781 7.249281,-5.875739 6.027497,-10.435493 L 88.599651,35.917417 C 87.37787,31.357662 82.723909,28.668135 78.164155,29.889919 74.886417,30.768185 72.665891,28.985571 69.686916,25.618513 67.271364,22.888285 66.466749,21.234863 67.109851,18.834774 68.331632,14.275018 65.64305,9.6182565 61.083298,8.3964747 L 59.027172,7.8455371 Z"
     style="opacity:0.2;fill:#000000;stroke-width:1.5"
     id="path459" />
  <path
     d="m 56.971047,6.2946253 c -4.559756,-1.2217825 -9.216516,1.4668 -10.4383,6.0265537 -0.643102,2.40009 -2.16663,3.429687 -5.62367,4.58636 -4.263399,1.426469 -7.077734,1.859993 -9.477212,-0.539476 -3.337969,-3.337973 -8.713179,-3.335755 -12.051152,0.0023 l -3.014407,3.009568 c -3.337972,3.337975 -3.335753,8.71318 0.0023,12.051152 1.670821,1.670819 1.515221,4.781665 0.765754,8.298335 -0.95542,4.483041 -1.235351,5.845244 -4.81233,6.80369 -4.5597537,1.221783 -7.2492788,5.875739 -6.0274982,10.435495 l 1.1057678,4.113573 c 1.2217806,4.559753 5.8757404,7.249278 10.4354944,6.027499 3.130355,-0.838775 4.775482,0.774069 7.321342,3.197377 3.424048,3.259229 4.535568,4.862406 3.732963,7.857766 -1.22178,4.559756 1.466803,9.216517 6.026554,10.438296 l 2.056126,0.550939 2.056125,0.550937 c 4.559752,1.221783 9.216516,-1.466801 10.438299,-6.026553 0.802602,-2.995363 2.566797,-3.827993 7.161726,-4.938544 3.416432,-0.825719 5.647572,-1.399917 7.939154,0.89166 3.337971,3.337971 8.713182,3.335756 12.051152,-0.0022 l 3.01441,-3.009574 c 3.337973,-3.337972 3.335754,-8.713182 -0.0023,-12.051151 -2.618529,-2.61853 -2.179857,-3.938196 -0.765754,-8.298336 1.109276,-3.420257 2.529947,-6.192126 4.812329,-6.803691 4.559755,-1.22178 7.249281,-5.875739 6.027497,-10.435492 L 88.599651,34.917442 C 87.37787,30.357686 82.723909,27.66816 78.164155,28.889943 74.886417,29.768209 72.665891,27.985595 69.686916,24.618537 67.271364,21.88831 66.466749,20.234888 67.109851,17.834798 68.331632,13.275043 65.64305,8.6182823 61.083298,7.3964998 L 59.027172,6.8455626 Z"
     style="fill:#455a64;stroke-width:1.5"
     id="path304" />
  <path
     id="path431"
     style="opacity:0.1;fill:#ffffff;stroke-width:1.5"
     d="m 54.417969,6.0058594 c -3.633465,0.1404927 -6.89402,2.6116095 -7.886719,6.3164066 -0.643101,2.400086 -2.164057,3.429265 -5.621094,4.585937 -4.263395,1.426468 -7.07904,1.860404 -9.478515,-0.539062 -3.337966,-3.337969 -8.714765,-3.336119 -12.052735,0.002 l -3.013672,3.009765 c -1.78273,1.782664 -2.597099,4.14458 -2.474609,6.46875 0.129616,-1.989246 0.94983,-3.942016 2.476563,-5.46875 l 3.013671,-3.009765 c 3.33797,-3.338052 8.712816,-3.341876 12.050782,-0.0039 2.399475,2.399466 5.213167,1.967483 9.476562,0.541015 3.457037,-1.156672 4.981899,-2.187803 5.625,-4.587891 1.221783,-4.5597482 5.877749,-7.2471714 10.4375,-6.0253901 l 2.056641,0.5507812 2.05664,0.5507813 C 64.70583,9.3670084 67.138183,12.50622 67.376953,16.041069 67.575537,12.11218 65.043836,8.45953 61.083984,7.3984905 L 59.027344,6.8476562 56.970703,6.296875 C 56.115749,6.067791 55.25646,5.9734382 54.417969,6.0058594 Z M 66.96875,20.042969 c -0.03188,0.208417 -0.04165,0.408951 -0.04883,0.609375 0.110591,1.553929 1.005037,2.974649 2.767578,4.966797 2.978972,3.367054 5.198828,5.149749 8.476562,4.271484 4.55975,-1.221782 9.213768,1.467592 10.435547,6.027344 l 1.105469,4.113281 c 0.145016,0.541205 0.231306,1.083131 0.269531,1.621094 0.04193,-0.860526 -0.03583,-1.739873 -0.271484,-2.619141 L 88.599609,34.919922 C 87.37783,30.360171 82.723811,27.668842 78.164062,28.890625 74.886328,29.76889 72.666472,27.986195 69.6875,24.619141 68.07307,22.794397 67.19273,21.450106 66.96875,20.042969 Z M 17.642578,36.244141 c -0.06433,1.085302 -0.246014,2.257908 -0.507812,3.486328 -0.955419,4.483036 -1.235526,5.844289 -4.8125,6.802734 -3.9628151,1.061833 -6.4974757,4.718544 -6.2949222,8.650391 0.2359575,-3.537295 2.67042,-6.679208 6.2949222,-7.650391 3.576974,-0.958445 3.857081,-2.321651 4.8125,-6.804687 0.274572,-1.288357 0.466933,-2.519872 0.521484,-3.648438 0.0021,-0.283671 0.005,-0.568 -0.01367,-0.835937 z m 60.166016,25.314453 c -0.03122,0.203509 -0.04972,0.39873 -0.06055,0.58789 0.06122,1.167681 0.601539,2.140601 1.882812,3.421875 1.541748,1.541709 2.36238,3.517901 2.480469,5.527344 0.137242,-2.342342 -0.683419,-4.730314 -2.480469,-6.527344 -1.126255,-1.126255 -1.661498,-2.018802 -1.822265,-3.009765 z M 29.064453,77.283203 c -0.04161,0.284 -0.09258,0.570331 -0.175781,0.880859 -0.235601,0.879277 -0.310055,1.760192 -0.267578,2.621094 0.03832,-0.537466 0.124671,-1.080467 0.269531,-1.621094 0.137669,-0.513786 0.195725,-0.976578 0.21875,-1.423828 -0.0091,-0.154061 -0.02192,-0.306972 -0.04492,-0.457031 z" />
  <circle
     style="opacity:0.2;fill:#000000;stroke-width:2.72727;stroke-linecap:square"
     id="path819"
     cx="47.99992"
     cy="48.999073"
     r="17" />
  <circle
     style="opacity:1;fill:#ffffff;stroke-width:2.72727;stroke-linecap:square"
     id="path821"
     cx="47.99992"
     cy="47.999969"
     r="17" />
</svg>
