<?xml version="1.0" encoding="UTF-8" standalone="no"?>
<!-- Created with Inkscape (http://www.inkscape.org/) -->

<svg
   width="96"
   height="96"
   viewBox="0 0 96 96.000006"
   version="1.1"
   id="svg5"
   inkscape:version="1.2.2 (1:1.2.2+202305151914+b0a8486541)"
   sodipodi:docname="application-x-partial-download.svg"
   xmlns:inkscape="http://www.inkscape.org/namespaces/inkscape"
   xmlns:sodipodi="http://sodipodi.sourceforge.net/DTD/sodipodi-0.dtd"
   xmlns="http://www.w3.org/2000/svg"
   xmlns:svg="http://www.w3.org/2000/svg">
  <sodipodi:namedview
     id="namedview7"
     pagecolor="#ffffff"
     bordercolor="#000000"
     borderopacity="0.25"
     inkscape:showpageshadow="2"
     inkscape:pageopacity="0.0"
     inkscape:pagecheckerboard="0"
     inkscape:deskcolor="#d1d1d1"
     inkscape:document-units="px"
     showgrid="false"
     inkscape:zoom="8.3958333"
     inkscape:cx="47.940447"
     inkscape:cy="48"
     inkscape:window-width="1920"
     inkscape:window-height="1008"
     inkscape:window-x="0"
     inkscape:window-y="0"
     inkscape:window-maximized="1"
     inkscape:current-layer="svg5" />
  <defs
     id="defs2" />
  <path
     id="rect234"
     style="opacity:0.2;stroke-width:1.5;stroke-linecap:round;stroke-linejoin:round"
     d="m 21,7 h 36 l 24,24 v 54 c 0,3.324 -2.676,6 -6,6 H 21 c -3.324,0 -6,-2.676 -6,-6 V 13 c 0,-3.324 2.676,-6 6,-6 z" />
  <path
     id="rect448"
     style="fill:#e0e0e0;fill-opacity:1;stroke-width:1.5;stroke-linecap:round;stroke-linejoin:round"
     d="m 21,6 h 36 l 9,15 15,9 v 54 c 0,3.324 -2.676,6 -6,6 H 21 c -3.324,0 -6,-2.676 -6,-6 V 12 c 0,-3.324 2.676,-6 6,-6 z" />
  <path
     d="M 42,39 V 63.000003 H 30 L 48,81 66,63.000003 H 54 V 39 Z"
     style="fill:#7cb342;fill-opacity:1;stroke-width:18;stroke-linecap:round;stroke-linejoin:round"
     id="path534"
     sodipodi:nodetypes="cccccccc" />
  <path
     d="M 42,39 H 54 V 57 H 51 V 54 H 48 V 51 H 45 V 48 H 42 Z"
     style="opacity:0.2;fill:#ffffff;stroke-width:3;stroke-linecap:square"
     id="path541"
     sodipodi:nodetypes="ccccccccccc" />
  <path
     d="M 81,31 H 63 c -3.324,0 -6,-2.676 -6,-6 V 6 l 24,24 z"
     style="opacity:0.2;fill:#000000;stroke-width:1.5;stroke-linecap:round;stroke-linejoin:round"
     id="path611" />
  <path
     id="rect600"
     style="fill:#f5f5f5;fill-opacity:1;stroke-width:1.5;stroke-linecap:round;stroke-linejoin:round"
     d="M 81,30 H 63 c -3.324,0 -6,-2.676 -6,-6 V 6 Z" />
  <path
     id="path1133"
     style="opacity:0.2;fill:#ffffff;fill-opacity:1;stroke-width:1.5;stroke-linecap:round;stroke-linejoin:round"
     d="M 21 6 C 17.676009 6 15 8.6760098 15 12 L 15 13 C 15 9.6760103 17.676009 7 21 7 L 57 7 L 80 30 L 81 30 L 57 6 L 21 6 z " />
</svg>
