<?xml version="1.0" encoding="UTF-8" standalone="no"?>
<!-- Created with Inkscape (http://www.inkscape.org/) -->

<svg
   width="96"
   height="96"
   viewBox="0 0 96 96.000006"
   version="1.1"
   id="svg5"
   inkscape:version="1.2.2 (1:1.2.2+202305151914+b0a8486541)"
   sodipodi:docname="application-x-tar.svg"
   xmlns:inkscape="http://www.inkscape.org/namespaces/inkscape"
   xmlns:sodipodi="http://sodipodi.sourceforge.net/DTD/sodipodi-0.dtd"
   xmlns="http://www.w3.org/2000/svg"
   xmlns:svg="http://www.w3.org/2000/svg">
  <sodipodi:namedview
     id="namedview7"
     pagecolor="#ffffff"
     bordercolor="#000000"
     borderopacity="0.25"
     inkscape:showpageshadow="2"
     inkscape:pageopacity="0.0"
     inkscape:pagecheckerboard="0"
     inkscape:deskcolor="#d1d1d1"
     inkscape:document-units="px"
     showgrid="false"
     inkscape:zoom="8.3958333"
     inkscape:cx="48"
     inkscape:cy="48"
     inkscape:window-width="1920"
     inkscape:window-height="1008"
     inkscape:window-x="0"
     inkscape:window-y="0"
     inkscape:window-maximized="1"
     inkscape:current-layer="svg5"
     showguides="false" />
  <defs
     id="defs2" />
  <rect
     style="opacity:0.2;fill:#000000;fill-opacity:1;stroke-width:6;stroke-linecap:square"
     id="rect1785"
     width="83.999992"
     height="83.999992"
     x="5.999999"
     y="7"
     ry="8.999999" />
  <rect
     style="opacity:1;fill:#d0b07c;fill-opacity:1;stroke-width:6;stroke-linecap:square"
     id="rect1787"
     width="83.999992"
     height="83.999992"
     x="6.0000076"
     y="6"
     ry="8.999999" />
  <rect
     style="opacity:0.2;fill:#000000;stroke-width:2"
     width="15.99997"
     height="37.999931"
     x="40.000015"
     y="5.9999967"
     id="rect2877" />
  <path
     id="rect2881"
     style="fill:#ffffff;stroke-width:2"
     d="M 47.999969,6.0000075 V 10 h 3.999993 V 6.0000075 Z m 0,3.9999925 h -3.999992 v 3.999993 h 3.999992 z m 0,3.999993 v 3.999992 h 3.999993 v -3.999992 z m 0,3.999992 h -3.999992 v 3.999993 h 3.999992 z m 0,3.999993 v 3.999992 h 3.999993 v -3.999992 z m 0,3.999992 h -3.999992 v 3.999993 h 3.999992 z m 0,3.999993 v 3.999993 h 3.999993 v -3.999993 z m 0,3.999993 h -3.999992 v 3.999992 h 3.999992 z" />
  <path
     style="fill:#4b4b4b;stroke-width:2"
     d="m 47.999969,33.999936 c 5.999989,0 5.999989,7.999985 7.999986,7.999985 v 9.999981 c 0,1.107998 -0.891999,1.999997 -1.999997,1.999997 H 41.999981 c -1.107998,0 -1.999997,-0.891999 -1.999997,-1.999997 v -9.999981 c 1.999997,0 1.999997,-7.999985 7.999985,-7.999985 z"
     id="path2883" />
  <path
     style="opacity:0.2;fill:#000000;stroke-width:2"
     d="m 47.46871,44.999995 c -4.136512,0 -7.468726,3.319254 -7.468726,7.437487 v 15.124972 c 0,4.118232 3.332214,7.437486 7.468726,7.437486 h 1.062498 c 4.136533,0 7.468747,-3.319254 7.468747,-7.437486 V 52.437482 c 0,-4.118233 -3.332214,-7.437487 -7.468747,-7.437487 z m 0.531259,15.999971 c 3.313694,0 5.999989,2.690295 5.999989,6.003889 0,3.313613 -2.686295,5.996089 -5.999989,5.996089 -3.313693,0 -5.999988,-2.682476 -5.999988,-5.996089 0,-3.313594 2.686295,-6.003889 5.999988,-6.003889 z"
     id="path2899" />
  <path
     style="fill:#ffffff;stroke-width:2"
     d="m 47.46871,43.999917 c -4.136512,0 -7.468726,3.319254 -7.468726,7.437486 v 15.124972 c 0,4.118233 3.332214,7.437487 7.468726,7.437487 h 1.062498 c 4.136533,0 7.468747,-3.319254 7.468747,-7.437487 V 51.437403 c 0,-4.118232 -3.332214,-7.437486 -7.468747,-7.437486 z m 0.531259,15.999971 c 3.313694,0 5.999989,2.690295 5.999989,6.003888 0,3.313614 -2.686295,5.996089 -5.999989,5.996089 -3.313693,0 -5.999988,-2.682475 -5.999988,-5.996089 0,-3.313593 2.686295,-6.003888 5.999988,-6.003888 z"
     id="path2901" />
  <path
     style="fill:#909090;stroke-width:2"
     d="m 47.968709,38.000168 a 2.0001963,1.9908934 0 0 0 -1.968736,2.017917 v 7.962765 a 2.0001963,1.9908934 0 1 0 3.999993,0 v -7.962765 a 2.0001963,1.9908934 0 0 0 -2.031257,-2.017917 z"
     id="path2903" />
  <path
     id="rect814"
     style="opacity:0.1;fill:#ffffff;stroke-width:6;stroke-linecap:square"
     d="M 15.000001,6 C 10.014007,6 6.000002,10.014005 6.000002,14.999999 V 16 c 0,-4.985995 4.014005,-8.9999996 8.999999,-8.9999996 h 65.99999 c 4.985994,0 8.999999,4.0140046 8.999999,8.9999996 V 14.999999 C 89.99999,10.014005 85.985985,6 80.999991,6 Z" />
  <g
     id="g1143"
     transform="matrix(3,0,0,3,-21,-33)">
    <rect
       style="opacity:0.2;fill:#000000;fill-opacity:1;stroke-width:2;stroke-linecap:square"
       id="rect640"
       width="20"
       height="10"
       x="18"
       y="32.333332"
       ry="1.3333334" />
    <rect
       style="fill:#db792e;fill-opacity:1;stroke-width:2;stroke-linecap:square"
       id="rect241"
       width="20"
       height="10"
       x="18"
       y="32"
       ry="1.3333334" />
    <path
       id="rect750"
       style="opacity:0.1;fill:#ffffff;fill-opacity:1;stroke-width:1.5;stroke-linecap:square"
       d="M 19.333333 32 C 18.594668 32 18 32.594668 18 33.333333 L 18 33.666667 C 18 32.928001 18.594668 32.333333 19.333333 32.333333 L 36.666667 32.333333 C 37.405332 32.333333 38 32.928001 38 33.666667 L 38 33.333333 C 38 32.594668 37.405332 32 36.666667 32 L 19.333333 32 z " />
  </g>
  <path
     id="path6341"
     style="opacity:0.2;fill:#000000;stroke-linecap:round;stroke-linejoin:round;-inkscape-stroke:none"
     d="M 43 69 C 41.895432 69 41 69.895431 41 71 C 41 72.104568 41.895432 73 43 73 L 45 73 L 45 87 C 45 88.104568 45.895432 89 47 89 C 48.104569 89 49 88.104568 49 87 L 49 73 L 51 73 C 52.104569 73 53 72.104568 53 71 C 53 69.895431 52.104569 69 51 69 L 47 69 L 43 69 z M 76.855469 69.001953 C 76.608325 68.997741 76.375786 68.998858 76.162109 69.003906 C 75.307402 69.024096 74.751953 69.101563 74.751953 69.101562 C 73.7512 69.226734 73.000182 70.077387 73 71.085938 L 73 87.085938 C 73 88.190505 73.895432 89.085938 75 89.085938 C 76.104568 89.085938 77 88.190505 77 87.085938 L 77 81.105469 C 77.0369 81.104793 77.081601 81.096703 77.119141 81.095703 C 77.085141 81.47541 77.160338 81.85693 77.335938 82.195312 L 81.335938 88.195312 C 81.948647 89.114326 83.190336 89.362663 84.109375 88.75 C 85.028384 88.137295 85.276722 86.895603 84.664062 85.976562 L 80.994141 80.472656 C 81.68682 80.22153 82.374859 79.890499 83.011719 79.373047 C 84.151298 78.447176 85 76.869268 85 75.085938 C 85 73.302607 84.151298 71.724733 83.011719 70.798828 C 81.87214 69.872922 80.566949 69.470684 79.369141 69.246094 C 78.470784 69.077652 77.596901 69.01459 76.855469 69.001953 z M 63 69.085938 C 60.333339 69.085938 58.44945 70.714381 57.710938 72.191406 C 56.972424 73.668431 57 75.085938 57 75.085938 L 57 81.085938 L 57 87.085938 C 57 88.190505 57.895432 89.085938 59 89.085938 C 60.104568 89.085938 61 88.190505 61 87.085938 L 61 83.085938 L 65 83.085938 L 65 87.085938 C 65 88.190505 65.895432 89.085938 67 89.085938 C 68.104568 89.085938 69 88.190505 69 87.085938 L 69 81.085938 L 69 75.085938 C 69 75.085938 69.027579 73.668431 68.289062 72.191406 C 67.550549 70.714381 65.666661 69.085938 63 69.085938 z M 63 73.085938 C 64.333331 73.085938 64.449452 73.457498 64.710938 73.980469 C 64.972422 74.50344 65 75.085938 65 75.085938 L 65 79.085938 L 61 79.085938 L 61 75.085938 C 61 75.085938 61.02758 74.50344 61.289062 73.980469 C 61.550547 73.457498 61.666669 73.085938 63 73.085938 z M 77.763672 73.09375 C 77.995235 73.089316 78.244125 73.103266 78.630859 73.175781 C 79.433049 73.326192 80.127862 73.611455 80.488281 73.904297 C 80.848711 74.197139 81 74.369272 81 75.085938 C 81 75.802603 80.848711 75.974736 80.488281 76.267578 C 80.127862 76.56042 79.433049 76.845684 78.630859 76.996094 C 77.85739 77.14112 77.635739 77.054835 77 77.046875 L 77 73.125 C 77.31787 73.121 77.532108 73.098184 77.763672 73.09375 z " />
  <path
     id="path6313"
     style="fill:#ffffff;stroke-linecap:round;stroke-linejoin:round;-inkscape-stroke:none"
     d="M 43 68 C 41.895432 68 41 68.895431 41 70 C 41 71.104568 41.895432 72 43 72 L 45 72 L 45 86 C 45 87.104568 45.895432 88 47 88 C 48.104569 88 49 87.104568 49 86 L 49 72 L 51 72 C 52.104569 72 53 71.104568 53 70 C 53 68.895431 52.104569 68 51 68 L 47 68 L 43 68 z M 76.855469 68.001953 C 76.608324 67.997741 76.375786 67.998858 76.162109 68.003906 C 75.307402 68.024096 74.751953 68.101562 74.751953 68.101562 C 73.7512 68.226734 73.000182 69.077387 73 70.085938 L 73 86.085938 C 73 87.190505 73.895432 88.085938 75 88.085938 C 76.104568 88.085938 77 87.190505 77 86.085938 L 77 80.105469 C 77.03693 80.104793 77.08158 80.096703 77.119141 80.095703 C 77.085131 80.47541 77.160352 80.85693 77.335938 81.195312 L 81.335938 87.195312 C 81.948643 88.114326 83.190334 88.362663 84.109375 87.75 C 85.028387 87.137295 85.276726 85.895603 84.664062 84.976562 L 80.994141 79.472656 C 81.686812 79.22153 82.374854 78.890499 83.011719 78.373047 C 84.151295 77.447177 85 75.869268 85 74.085938 C 85 72.302607 84.151295 70.724733 83.011719 69.798828 C 81.872142 68.872922 80.566948 68.470684 79.369141 68.246094 C 78.470784 68.077652 77.596902 68.01459 76.855469 68.001953 z M 63 68.085938 C 60.333339 68.085938 58.44945 69.714381 57.710938 71.191406 C 56.972424 72.668431 57 74.085938 57 74.085938 L 57 80.085938 L 57 86.085938 C 57 87.190505 57.895432 88.085938 59 88.085938 C 60.104569 88.085938 61 87.190505 61 86.085938 L 61 82.085938 L 65 82.085938 L 65 86.085938 C 65 87.190505 65.895431 88.085938 67 88.085938 C 68.104568 88.085938 69 87.190505 69 86.085938 L 69 80.085938 L 69 74.085938 C 69 74.085938 69.027579 72.668431 68.289062 71.191406 C 67.550549 69.714381 65.666661 68.085938 63 68.085938 z M 63 72.085938 C 64.333332 72.085938 64.449453 72.457498 64.710938 72.980469 C 64.972423 73.50344 65 74.085938 65 74.085938 L 65 78.085938 L 61 78.085938 L 61 74.085938 C 61 74.085938 61.02758 73.50344 61.289062 72.980469 C 61.550547 72.457498 61.666669 72.085938 63 72.085938 z M 77.763672 72.09375 C 77.995236 72.089316 78.244124 72.103266 78.630859 72.175781 C 79.433048 72.326191 80.127861 72.611455 80.488281 72.904297 C 80.848702 73.197139 81 73.369272 81 74.085938 C 81 74.802603 80.848702 74.974736 80.488281 75.267578 C 80.127861 75.56042 79.433048 75.845684 78.630859 75.996094 C 77.857389 76.14112 77.635732 76.054835 77 76.046875 L 77 72.125 C 77.317866 72.121 77.532108 72.098184 77.763672 72.09375 z " />
</svg>
