<?xml version="1.0" encoding="UTF-8" standalone="no"?>
<!-- Created with Inkscape (http://www.inkscape.org/) -->

<svg
   width="96"
   height="96"
   viewBox="0 0 96 96.000006"
   version="1.1"
   id="svg5"
   inkscape:version="1.3 (1:1.3+202307231459+0e150ed6c4)"
   sodipodi:docname="application-7zip.svg"
   xmlns:inkscape="http://www.inkscape.org/namespaces/inkscape"
   xmlns:sodipodi="http://sodipodi.sourceforge.net/DTD/sodipodi-0.dtd"
   xmlns="http://www.w3.org/2000/svg"
   xmlns:svg="http://www.w3.org/2000/svg">
  <sodipodi:namedview
     id="namedview7"
     pagecolor="#ffffff"
     bordercolor="#000000"
     borderopacity="0.25"
     inkscape:showpageshadow="2"
     inkscape:pageopacity="0.0"
     inkscape:pagecheckerboard="0"
     inkscape:deskcolor="#d1d1d1"
     inkscape:document-units="px"
     showgrid="false"
     inkscape:zoom="7.5104167"
     inkscape:cx="48"
     inkscape:cy="48"
     inkscape:window-width="1920"
     inkscape:window-height="1008"
     inkscape:window-x="0"
     inkscape:window-y="0"
     inkscape:window-maximized="1"
     inkscape:current-layer="svg5"
     showguides="false" />
  <defs
     id="defs2" />
  <rect
     style="opacity:0.2;fill:#000000;fill-opacity:1;stroke-width:6;stroke-linecap:square"
     id="rect1785"
     width="83.999992"
     height="83.999992"
     x="5.999999"
     y="7"
     ry="8.999999" />
  <rect
     style="opacity:1;fill:#d0b07c;fill-opacity:1;stroke-width:6;stroke-linecap:square"
     id="rect1787"
     width="83.999992"
     height="83.999992"
     x="6.0000076"
     y="6"
     ry="8.999999" />
  <rect
     style="opacity:0.2;fill:#000000;stroke-width:2"
     width="15.99997"
     height="37.999931"
     x="40.000015"
     y="5.9999967"
     id="rect2877" />
  <path
     id="rect2881"
     style="fill:#ffffff;stroke-width:2"
     d="M 47.999969,6.0000075 V 10 h 3.999993 V 6.0000075 Z m 0,3.9999925 h -3.999992 v 3.999993 h 3.999992 z m 0,3.999993 v 3.999992 h 3.999993 v -3.999992 z m 0,3.999992 h -3.999992 v 3.999993 h 3.999992 z m 0,3.999993 v 3.999992 h 3.999993 v -3.999992 z m 0,3.999992 h -3.999992 v 3.999993 h 3.999992 z m 0,3.999993 v 3.999993 h 3.999993 v -3.999993 z m 0,3.999993 h -3.999992 v 3.999992 h 3.999992 z" />
  <path
     style="fill:#4b4b4b;stroke-width:2"
     d="m 47.999969,33.999936 c 5.999989,0 5.999989,7.999985 7.999986,7.999985 v 9.999981 c 0,1.107998 -0.891999,1.999997 -1.999997,1.999997 H 41.999981 c -1.107998,0 -1.999997,-0.891999 -1.999997,-1.999997 v -9.999981 c 1.999997,0 1.999997,-7.999985 7.999985,-7.999985 z"
     id="path2883" />
  <path
     style="opacity:0.2;fill:#000000;stroke-width:2"
     d="m 47.46871,44.999995 c -4.136512,0 -7.468726,3.319254 -7.468726,7.437487 v 15.124972 c 0,4.118232 3.332214,7.437486 7.468726,7.437486 h 1.062498 c 4.136533,0 7.468747,-3.319254 7.468747,-7.437486 V 52.437482 c 0,-4.118233 -3.332214,-7.437487 -7.468747,-7.437487 z m 0.531259,15.999971 c 3.313694,0 5.999989,2.690295 5.999989,6.003889 0,3.313613 -2.686295,5.996089 -5.999989,5.996089 -3.313693,0 -5.999988,-2.682476 -5.999988,-5.996089 0,-3.313594 2.686295,-6.003889 5.999988,-6.003889 z"
     id="path2899" />
  <path
     style="fill:#ffffff;stroke-width:2"
     d="m 47.46871,43.999917 c -4.136512,0 -7.468726,3.319254 -7.468726,7.437486 v 15.124972 c 0,4.118233 3.332214,7.437487 7.468726,7.437487 h 1.062498 c 4.136533,0 7.468747,-3.319254 7.468747,-7.437487 V 51.437403 c 0,-4.118232 -3.332214,-7.437486 -7.468747,-7.437486 z m 0.531259,15.999971 c 3.313694,0 5.999989,2.690295 5.999989,6.003888 0,3.313614 -2.686295,5.996089 -5.999989,5.996089 -3.313693,0 -5.999988,-2.682475 -5.999988,-5.996089 0,-3.313593 2.686295,-6.003888 5.999988,-6.003888 z"
     id="path2901" />
  <path
     style="fill:#909090;stroke-width:2"
     d="m 47.968709,38.000168 a 2.0001963,1.9908934 0 0 0 -1.968736,2.017917 v 7.962765 a 2.0001963,1.9908934 0 1 0 3.999993,0 v -7.962765 a 2.0001963,1.9908934 0 0 0 -2.031257,-2.017917 z"
     id="path2903" />
  <path
     id="rect814"
     style="opacity:0.1;fill:#ffffff;stroke-width:6;stroke-linecap:square"
     d="M 15.000001,6 C 10.014007,6 6.000002,10.014005 6.000002,14.999999 V 16 c 0,-4.985995 4.014005,-8.9999996 8.999999,-8.9999996 h 65.99999 c 4.985994,0 8.999999,4.0140046 8.999999,8.9999996 V 14.999999 C 89.99999,10.014005 85.985985,6 80.999991,6 Z" />
  <g
     id="g1143"
     transform="matrix(3,0,0,3,-21,-33)">
    <rect
       style="opacity:0.2;fill:#000000;fill-opacity:1;stroke-width:2;stroke-linecap:square"
       id="rect640"
       width="20"
       height="10"
       x="18"
       y="32.333332"
       ry="1.3333334" />
    <rect
       style="fill:#b0b0b0;fill-opacity:1;stroke-width:2;stroke-linecap:square;stroke:none"
       id="rect241"
       width="20"
       height="10"
       x="18"
       y="32"
       ry="1.3333334" />
    <path
       id="path7549"
       style="opacity:0.2;fill:#000000;stroke-width:0.111112;stroke-linecap:round;stroke-linejoin:round;-inkscape-stroke:none"
       d="M 23.334635 34 A 0.66666502 0.66666502 0 0 0 22.666667 34.667969 A 0.66666502 0.66666502 0 0 0 23.334635 35.333984 L 25.03776 35.333984 L 23.375651 39.765625 A 0.66666502 0.66666502 0 0 0 23.766276 40.625 A 0.66666502 0.66666502 0 0 0 24.625651 40.234375 L 26.625651 34.902344 A 0.66673168 0.66673168 0 0 0 26.000651 34 L 23.334635 34 z M 29.333984 34 C 28.965793 34 28.667318 34.298474 28.667318 34.666667 C 28.667318 35.034859 28.965793 35.333333 29.333984 35.333333 L 30.921875 35.333333 L 28.73763 39.701823 C 28.516034 40.145123 28.838385 40.666651 29.333984 40.666667 L 32.000651 40.666667 C 32.368842 40.666667 32.667318 40.368192 32.667318 40 C 32.667318 39.631808 32.368842 39.333333 32.000651 39.333333 L 30.41276 39.333333 L 32.597005 34.964844 C 32.8186 34.52154 32.496251 34.000016 32.000651 34 L 29.333984 34 z " />
    <path
       id="path6985"
       style="fill:#ffffff;stroke-width:0.333333;stroke-linecap:round;stroke-linejoin:round;-inkscape-stroke:none"
       d="M 23.334635 33.666667 A 0.66666502 0.66666502 0 0 0 22.666667 34.334635 A 0.66666502 0.66666502 0 0 0 23.334635 35.000651 L 25.03776 35.000651 L 23.375651 39.432292 A 0.66666502 0.66666502 0 0 0 23.766276 40.291667 A 0.66666502 0.66666502 0 0 0 24.625651 39.901042 L 26.625651 34.56901 A 0.66673168 0.66673168 0 0 0 26.000651 33.666667 L 23.334635 33.666667 z M 29.334635 33.666667 C 28.966446 33.666667 28.667969 33.965144 28.667969 34.333333 C 28.667969 34.701523 28.966446 35 29.334635 35 L 30.922526 35 L 28.738281 39.36849 C 28.516687 39.811788 28.839039 40.333317 29.334635 40.333333 L 32.001302 40.333333 C 32.369492 40.333333 32.667969 40.034855 32.667969 39.666667 C 32.667969 39.298477 32.369492 39 32.001302 39 L 30.413411 39 L 32.597656 34.63151 C 32.819249 34.188212 32.496898 33.666683 32.001302 33.666667 L 29.334635 33.666667 z " />
    <path
       id="rect750"
       style="opacity:0.2;fill:#ffffff;fill-opacity:1;stroke-width:1.5;stroke-linecap:square"
       d="M 19.333333 32 C 18.594668 32 18 32.594668 18 33.333333 L 18 33.666667 C 18 32.928001 18.594668 32.333333 19.333333 32.333333 L 36.666667 32.333333 C 37.405332 32.333333 38 32.928001 38 33.666667 L 38 33.333333 C 38 32.594668 37.405332 32 36.666667 32 L 19.333333 32 z " />
  </g>
</svg>
