<?xml version="1.0" encoding="UTF-8" standalone="no"?>
<!-- Created with Inkscape (http://www.inkscape.org/) -->

<svg
   width="96"
   height="96"
   viewBox="0 0 96 96"
   version="1.1"
   id="svg5"
   inkscape:version="1.3 (1:1.3+202307231459+0e150ed6c4)"
   sodipodi:docname="image-x-generic.svg"
   xmlns:inkscape="http://www.inkscape.org/namespaces/inkscape"
   xmlns:sodipodi="http://sodipodi.sourceforge.net/DTD/sodipodi-0.dtd"
   xmlns="http://www.w3.org/2000/svg"
   xmlns:svg="http://www.w3.org/2000/svg">
  <sodipodi:namedview
     id="namedview7"
     pagecolor="#ffffff"
     bordercolor="#000000"
     borderopacity="0.25"
     inkscape:showpageshadow="2"
     inkscape:pageopacity="0.0"
     inkscape:pagecheckerboard="0"
     inkscape:deskcolor="#d1d1d1"
     inkscape:document-units="px"
     showgrid="false"
     inkscape:zoom="8.3854167"
     inkscape:cx="47.940373"
     inkscape:cy="48"
     inkscape:window-width="1920"
     inkscape:window-height="1008"
     inkscape:window-x="0"
     inkscape:window-y="0"
     inkscape:window-maximized="1"
     inkscape:current-layer="svg5" />
  <defs
     id="defs2" />
  <rect
     style="opacity:0.2;fill:#000000;stroke-width:1.5;stroke-linecap:round;stroke-linejoin:round"
     id="rect344"
     width="84"
     height="72"
     x="6"
     y="13"
     ry="9" />
  <rect
     style="fill:#66bdb5;fill-opacity:1;stroke-width:1.5;stroke-linecap:round;stroke-linejoin:round"
     id="rect234"
     width="84"
     height="72"
     x="6"
     y="12"
     ry="9" />
  <path
     d="M 33,40 54,61 69,49 81,61 V 76 H 15 V 58 Z"
     style="opacity:0.2;fill:#000000;stroke-width:3"
     id="path1720" />
  <path
     d="M 33,39 54,60 69,48 81,60 V 75 H 15 V 57 Z"
     style="fill:#ffffff;stroke-width:3"
     id="path1692" />
  <path
     id="rect1810"
     style="opacity:0.2;fill:#ffffff;fill-opacity:1;stroke-width:6;stroke-linecap:square"
     d="m 15,12 c -4.985995,0 -9,4.014004 -9,9 v 1 c 0,-4.985996 4.014005,-9 9,-9 h 66 c 4.985996,0 9,4.014004 9,9 v -1 c 0,-4.985996 -4.014004,-9 -9,-9 z" />
</svg>
