<?xml version="1.0" encoding="UTF-8" standalone="no"?>
<!-- Created with Inkscape (http://www.inkscape.org/) -->

<svg
   width="96"
   height="96"
   viewBox="0 0 96 96.000006"
   version="1.1"
   id="svg5"
   inkscape:version="1.3.2 (091e20ef0f, 2023-11-25, custom)"
   sodipodi:docname="text-x-ruby.svg"
   xmlns:inkscape="http://www.inkscape.org/namespaces/inkscape"
   xmlns:sodipodi="http://sodipodi.sourceforge.net/DTD/sodipodi-0.dtd"
   xmlns="http://www.w3.org/2000/svg"
   xmlns:svg="http://www.w3.org/2000/svg">
  <sodipodi:namedview
     id="namedview7"
     pagecolor="#ffffff"
     bordercolor="#000000"
     borderopacity="0.25"
     inkscape:showpageshadow="2"
     inkscape:pageopacity="0.0"
     inkscape:pagecheckerboard="0"
     inkscape:deskcolor="#d1d1d1"
     inkscape:document-units="px"
     showgrid="false"
     inkscape:zoom="8.28125"
     inkscape:cx="47.939623"
     inkscape:cy="48"
     inkscape:window-width="1920"
     inkscape:window-height="1008"
     inkscape:window-x="0"
     inkscape:window-y="0"
     inkscape:window-maximized="1"
     inkscape:current-layer="svg5" />
  <defs
     id="defs2" />
  <path
     id="rect234"
     style="opacity:0.2;stroke-width:1.5;stroke-linecap:round;stroke-linejoin:round"
     d="m 21,7 h 36 l 24,24 v 54 c 0,3.324 -2.676,6 -6,6 H 21 c -3.324,0 -6,-2.676 -6,-6 V 13 c 0,-3.324 2.676,-6 6,-6 z" />
  <path
     id="rect448"
     style="fill:#e0e0e0;fill-opacity:1;stroke-width:1.5;stroke-linecap:round;stroke-linejoin:round"
     d="m 21,6 h 36 l 9,15 15,9 v 54 c 0,3.324 -2.676,6 -6,6 H 21 c -3.324,0 -6,-2.676 -6,-6 V 12 c 0,-3.324 2.676,-6 6,-6 z" />
  <path
     d="m 47.5,46.000015 c -0.3978,7.5e-5 -0.77928,0.15816 -1.06056,0.439452 l -15,15 C 31.15804,61.720747 31.00006,62.102215 31,62.500015 v 15 c 9e-5,0.828393 0.67161,1.499916 1.5,1.5 h 30 c 0.0411,-0.03687 0.0804,-0.07599 0.1173,-0.11718 0.6549,-0.09642 1.16919,-0.610716 1.26561,-1.265625 0.0411,-0.03687 0.0804,-0.07599 0.1173,-0.11721 v -30 c -9e-5,-0.828393 -0.67161,-1.499916 -1.5,-1.5 z m 1.5,3 h 9.87891 L 52.43944,55.439467 49,58.878922 Z m -3,2.121093 v 9.878907 h -9.87891 z m 15,0 V 70.193374 L 55.2754,56.845717 Z m -8.00391,8.003907 6.6504,15.521484 L 44.125,67.996108 Z M 34,64.000015 h 9.87891 L 40.43944,67.439467 34,73.878922 Z m 7.84569,6.275391 13.34766,5.724609 H 36.12109 Z"
     style="opacity:0.2;fill:#000000;stroke:none;stroke-width:3;stroke-linejoin:round;-inkscape-stroke:none"
     id="path1" />
  <path
     d="m 47.5,45.000015 c -0.3978,7.5e-5 -0.77928,0.15816 -1.06056,0.439452 l -15,15 C 31.15804,60.720747 31.00006,61.102215 31,61.500015 v 15 c 9e-5,0.828393 0.67161,1.499916 1.5,1.5 h 30 c 0.0411,-0.03687 0.0804,-0.07599 0.1173,-0.11718 0.6549,-0.09642 1.16919,-0.610716 1.26561,-1.265625 0.0411,-0.03687 0.0804,-0.07599 0.1173,-0.11721 v -30 c -9e-5,-0.828393 -0.67161,-1.499916 -1.5,-1.5 z m 1.5,3 h 9.87891 L 52.43944,54.439467 49,57.878922 Z m -3,2.121093 v 9.878907 h -9.87891 z m 15,0 V 69.193374 L 55.2754,55.845717 Z m -8.00391,8.003907 6.6504,15.521484 L 44.125,66.996108 Z M 34,63.000015 h 9.87891 L 40.43944,66.439467 34,72.878922 Z m 7.84569,6.275391 13.34766,5.724609 H 36.12109 Z"
     style="fill:#f44336;fill-opacity:1;stroke:none;stroke-width:3;stroke-linejoin:round;-inkscape-stroke:none"
     id="path2" />
  <path
     d="M 81,31 H 63 c -3.324,0 -6,-2.676 -6,-6 V 6 l 24,24 z"
     style="opacity:0.2;fill:#000000;stroke-width:1.5;stroke-linecap:round;stroke-linejoin:round"
     id="path611" />
  <path
     id="rect600"
     style="fill:#f5f5f5;fill-opacity:1;stroke-width:1.5;stroke-linecap:round;stroke-linejoin:round"
     d="M 81,30 H 63 c -3.324,0 -6,-2.676 -6,-6 V 6 Z" />
  <path
     id="path1133"
     style="opacity:0.2;fill:#ffffff;fill-opacity:1;stroke-width:1.5;stroke-linecap:round;stroke-linejoin:round"
     d="M 21 6 C 17.676009 6 15 8.6760098 15 12 L 15 13 C 15 9.6760103 17.676009 7 21 7 L 57 7 L 80 30 L 81 30 L 57 6 L 21 6 z " />
</svg>
