<?xml version="1.0" encoding="UTF-8" standalone="no"?>
<!-- Created with Inkscape (http://www.inkscape.org/) -->

<svg
   width="96"
   height="96"
   viewBox="0 0 96 96"
   version="1.1"
   id="svg5"
   inkscape:version="1.3 (0e150ed6c4, 2023-07-21)"
   sodipodi:docname="x-content-blank-cd.svg"
   xmlns:inkscape="http://www.inkscape.org/namespaces/inkscape"
   xmlns:sodipodi="http://sodipodi.sourceforge.net/DTD/sodipodi-0.dtd"
   xmlns="http://www.w3.org/2000/svg"
   xmlns:svg="http://www.w3.org/2000/svg">
  <sodipodi:namedview
     id="namedview7"
     pagecolor="#ffffff"
     bordercolor="#000000"
     borderopacity="0.25"
     inkscape:showpageshadow="2"
     inkscape:pageopacity="0.0"
     inkscape:pagecheckerboard="0"
     inkscape:deskcolor="#d1d1d1"
     inkscape:document-units="px"
     showgrid="false"
     inkscape:zoom="8.3958333"
     inkscape:cx="47.940447"
     inkscape:cy="47.940447"
     inkscape:window-width="1850"
     inkscape:window-height="1011"
     inkscape:window-x="70"
     inkscape:window-y="32"
     inkscape:window-maximized="1"
     inkscape:current-layer="svg5" />
  <defs
     id="defs2" />
  <path
     d="M 48,7 C 24.804042,7 6,25.804042 6,49 6,72.195958 24.804042,91 48,91 71.195955,91 90,72.195958 90,49 90,25.804042 71.195955,7 48,7 Z m 0,24 c 9.941121,0 18,8.058876 18,18 0,9.941124 -8.058879,18 -18,18 -9.941124,0 -17.999997,-8.058876 -17.999997,-18 0,-9.941124 8.058876,-18 17.999997,-18 z"
     style="opacity:0.2;fill:#000000;stroke-width:3"
     id="path408" />
  <path
     d="M 48,24 C 34.745163,24 24,34.745166 24,48 24,61.254834 34.745163,72 48,72 61.254834,72 72,61.254834 72,48 72,34.745166 61.254834,24 48,24 Z m 0,15 c 4.970559,0 9,4.029438 9,9 0,4.970562 -4.029441,9 -9,9 -4.970559,0 -8.999997,-4.029438 -8.999997,-9 0,-4.970562 4.029438,-9 8.999997,-9 z"
     style="fill:#848484;stroke-width:3"
     id="path380" />
  <path
     d="M 48,6 C 24.804042,6 6,24.804039 6,48 6,71.195958 24.804042,90 48,90 71.195955,90 90,71.195958 90,48 90,24.804039 71.195955,6 48,6 Z m 0,24 c 9.941121,0 18,8.058876 18,18 0,9.941124 -8.058879,18 -18,18 -9.941124,0 -17.999997,-8.058876 -17.999997,-18 0,-9.941124 8.058876,-18 17.999997,-18 z"
     style="fill:#e4e4e4;stroke-width:3"
     id="path302" />
  <path
     id="path436"
     style="opacity:0.2;fill:#ffffff;stroke-width:2.625"
     d="M 48 6 A 42 42 0 0 0 6 48 A 42 42 0 0 0 6.0351562 48.5 A 42 42 0 0 1 48 7 A 42 42 0 0 1 89.982422 48.255859 A 42 42 0 0 0 90 48 A 42 42 0 0 0 48 6 z " />
</svg>
