<?xml version="1.0" encoding="UTF-8" standalone="no"?>
<!-- Created with Inkscape (http://www.inkscape.org/) -->

<svg
   width="96"
   height="96"
   viewBox="0 0 96 96.000006"
   version="1.1"
   id="svg5"
   inkscape:version="1.2.2 (1:1.2.2+202305151914+b0a8486541)"
   sodipodi:docname="x-office-spreadsheet.svg"
   xmlns:inkscape="http://www.inkscape.org/namespaces/inkscape"
   xmlns:sodipodi="http://sodipodi.sourceforge.net/DTD/sodipodi-0.dtd"
   xmlns="http://www.w3.org/2000/svg"
   xmlns:svg="http://www.w3.org/2000/svg">
  <sodipodi:namedview
     id="namedview7"
     pagecolor="#ffffff"
     bordercolor="#000000"
     borderopacity="0.25"
     inkscape:showpageshadow="2"
     inkscape:pageopacity="0.0"
     inkscape:pagecheckerboard="0"
     inkscape:deskcolor="#d1d1d1"
     inkscape:document-units="px"
     showgrid="false"
     inkscape:zoom="8.3958333"
     inkscape:cx="48"
     inkscape:cy="48"
     inkscape:window-width="1920"
     inkscape:window-height="1008"
     inkscape:window-x="0"
     inkscape:window-y="0"
     inkscape:window-maximized="1"
     inkscape:current-layer="svg5" />
  <defs
     id="defs2" />
  <path
     id="rect234"
     style="opacity:0.2;stroke-width:1.5;stroke-linecap:round;stroke-linejoin:round"
     d="m 21,7 h 36 l 24,24 v 54 c 0,3.324 -2.676,6 -6,6 H 21 c -3.324,0 -6,-2.676 -6,-6 V 13 c 0,-3.324 2.676,-6 6,-6 z" />
  <path
     id="rect448"
     style="fill:#e0e0e0;fill-opacity:1;stroke-width:1.5;stroke-linecap:round;stroke-linejoin:round"
     d="m 21,6 h 36 l 9,15 15,9 v 54 c 0,3.324 -2.676,6 -6,6 H 21 c -3.324,0 -6,-2.676 -6,-6 V 12 c 0,-3.324 2.676,-6 6,-6 z" />
  <path
     id="path3443"
     style="opacity:0.2;fill:#000000;fill-opacity:1;stroke-width:2"
     d="M 28 43 L 28 73 L 67 73 L 67 43 L 28 43 z M 31 46 L 40 46 L 40 52 L 31 52 L 31 46 z M 43 46 L 52 46 L 52 52 L 43 52 L 43 46 z M 55 46 L 64 46 L 64 52 L 55 52 L 55 46 z M 31 55 L 40 55 L 40 61 L 31 61 L 31 55 z M 43 55 L 52 55 L 52 61 L 43 61 L 43 55 z M 55 55 L 64 55 L 64 61 L 55 61 L 55 55 z M 31 64 L 40 64 L 40 69 L 31 69 L 31 64 z M 43 64 L 52 64 L 52 69 L 43 69 L 43 64 z M 55 64 L 64 64 L 64 69 L 55 69 L 55 64 z " />
  <path
     id="path3075"
     style="fill:#757575;fill-opacity:1;stroke-width:2"
     d="M 28 54 L 28 72 L 67 72 L 67 54 L 64 54 L 64 60 L 55 60 L 55 54 L 52 54 L 52 60 L 43 60 L 43 54 L 40 54 L 40 60 L 31 60 L 31 54 L 28 54 z M 31 63 L 40 63 L 40 69 L 31 69 L 31 63 z M 43 63 L 52 63 L 52 69 L 43 69 L 43 63 z M 55 63 L 64 63 L 64 69 L 55 69 L 55 63 z " />
  <path
     id="path3359"
     style="fill:#9ccc65;stroke-width:4;stroke-linecap:square"
     d="M 29 43 L 29 53 L 66 53 L 66 43 L 29 43 z " />
  <path
     id="path3124"
     style="fill:#4aae4c;fill-opacity:1;stroke-width:2"
     d="M 28 42 L 28 54 L 67 54 L 67 42 L 28 42 z M 31 45 L 40 45 L 40 51 L 31 51 L 31 45 z M 43 45 L 52 45 L 52 51 L 43 51 L 43 45 z M 55 45 L 64 45 L 64 51 L 55 51 L 55 45 z " />
  <path
     d="M 81,31 H 63 c -3.324,0 -6,-2.676 -6,-6 V 6 l 24,24 z"
     style="opacity:0.2;fill:#000000;stroke-width:1.5;stroke-linecap:round;stroke-linejoin:round"
     id="path611" />
  <path
     id="rect600"
     style="fill:#f5f5f5;fill-opacity:1;stroke-width:1.5;stroke-linecap:round;stroke-linejoin:round"
     d="M 81,30 H 63 c -3.324,0 -6,-2.676 -6,-6 V 6 Z" />
  <path
     id="path1133"
     style="opacity:0.2;fill:#ffffff;fill-opacity:1;stroke-width:1.5;stroke-linecap:round;stroke-linejoin:round"
     d="M 21 6 C 17.676009 6 15 8.6760098 15 12 L 15 13 C 15 9.6760103 17.676009 7 21 7 L 57 7 L 80 30 L 81 30 L 57 6 L 21 6 z " />
</svg>
