<?xml version="1.0" encoding="UTF-8" standalone="no"?>
<svg
   width="16"
   height="16"
   version="1.1"
   id="svg1"
   sodipodi:docname="archive.svg"
   inkscape:version="1.4.3 (0d15f75042, 2025-12-25)"
   xmlns:inkscape="http://www.inkscape.org/namespaces/inkscape"
   xmlns:sodipodi="http://sodipodi.sourceforge.net/DTD/sodipodi-0.dtd"
   xmlns="http://www.w3.org/2000/svg"
   xmlns:svg="http://www.w3.org/2000/svg">
  <sodipodi:namedview
     id="namedview1"
     pagecolor="#ffffff"
     bordercolor="#000000"
     borderopacity="0.25"
     inkscape:showpageshadow="2"
     inkscape:pageopacity="0.0"
     inkscape:pagecheckerboard="0"
     inkscape:deskcolor="#d1d1d1"
     inkscape:zoom="50.4375"
     inkscape:cx="7.9900867"
     inkscape:cy="8"
     inkscape:window-width="1920"
     inkscape:window-height="1010"
     inkscape:window-x="0"
     inkscape:window-y="0"
     inkscape:window-maximized="1"
     inkscape:current-layer="svg1" />
  <defs
     id="defs1">
    <style
       id="current-color-scheme"
       type="text/css">
   .ColorScheme-Text { color:#dfdfdf; } .ColorScheme-Highlight { color:#4285f4; } .ColorScheme-NeutralText { color:#ff9800; } .ColorScheme-PositiveText { color:#4caf50; } .ColorScheme-NegativeText { color:#f44336; }
    </style>
  </defs>
  <path
     id="path1"
     style="fill:currentColor"
     class="ColorScheme-Text"
     d="M 3.1386719 1 C 2.6542419 1 2.0767625 1.47989 1.9765625 1.9375 C 1.6848125 2.82902 1.3846625 3.7309 1.1015625 4.625 L 1.0097656 5 L 1.0097656 13 C 1.0097656 13.554 1.4557656 14 2.0097656 14 L 14.009766 14 C 14.563766 14 15.009766 13.554 15.009766 13 L 15.009766 5 L 14.884766 4.53125 C 14.546536 3.54152 14.242116 2.51345 13.884766 1.53125 C 13.670686 1.09312 13.174166 1 12.728516 1 L 3.140625 1 L 3.1386719 1 z M 3.7324219 3 L 12.265625 3 C 12.373665 3.32301 12.487666 3.66784 12.597656 4 L 3.40625 4 C 3.515 3.66623 3.6220719 3.33595 3.7324219 3 z M 6.0078125 5.0019531 L 10.007812 5.0019531 L 10.007812 6 L 13.007812 6 L 13.007812 12 L 9.3652344 12 L 8.0078125 13.480469 L 6.6503906 12 L 3.0078125 12 L 3.0078125 6 L 6.0078125 6 L 6.0078125 5.0019531 z M 7 6 L 7 9 L 5.25 9 L 8 12 L 10.75 9 L 9 9 L 9 6 L 7 6 z " />
</svg>
