<?xml version="1.0" encoding="UTF-8" standalone="no"?>
<!-- Created with Inkscape (http://www.inkscape.org/) -->

<svg
   width="16"
   height="16"
   viewBox="0 0 16 16"
   version="1.1"
   id="svg5"
   inkscape:version="1.2.2 (1:1.2.2+202305151914+b0a8486541)"
   sodipodi:docname="audio-volume-medium.svg"
   xmlns:inkscape="http://www.inkscape.org/namespaces/inkscape"
   xmlns:sodipodi="http://sodipodi.sourceforge.net/DTD/sodipodi-0.dtd"
   xmlns="http://www.w3.org/2000/svg"
   xmlns:svg="http://www.w3.org/2000/svg">
  <sodipodi:namedview
     id="namedview7"
     pagecolor="#ffffff"
     bordercolor="#000000"
     borderopacity="0.25"
     inkscape:showpageshadow="2"
     inkscape:pageopacity="0.0"
     inkscape:pagecheckerboard="0"
     inkscape:deskcolor="#d1d1d1"
     inkscape:document-units="px"
     showgrid="false"
     showguides="true"
     inkscape:zoom="51.875"
     inkscape:cx="8"
     inkscape:cy="8"
     inkscape:window-width="1920"
     inkscape:window-height="1008"
     inkscape:window-x="0"
     inkscape:window-y="0"
     inkscape:window-maximized="1"
     inkscape:current-layer="svg5" />
  <defs
     id="defs2">
    <style
       id="current-color-scheme"
       type="text/css">
   .ColorScheme-Text { color:#dfdfdf; } .ColorScheme-Highlight { color:#4285f4; } .ColorScheme-NeutralText { color:#ff9800; } .ColorScheme-PositiveText { color:#4caf50; } .ColorScheme-NegativeText { color:#f44336; }
     </style>
  </defs>
  <path
     id="path971"
     d="M 8,1 4,5 H 1 v 6.000001 h 3 l 4,4 z m 1.999999,4 v 6.000001 c 1.06,-0.58 1.789064,-1.700002 1.789063,-3.000001 0,-1.299999 -0.719063,-2.420001 -1.789063,-3 z M 6,6 v 4 L 5,9 H 3 V 7 h 2 z"
     style="fill:currentColor;fill-opacity:1;stroke:none;stroke-width:4;-inkscape-stroke:none"
     class="ColorScheme-Text" />
  <path
     d="m 9.999999,1 v 1.5 c 2.32,0.739999 4.000002,2.9300031 4.000002,5.5 0,2.569997 -1.680002,4.760001 -4.000002,5.5 V 15 c 3.149999,-0.779999 5.500002,-3.600003 5.500002,-7 0,-3.399997 -2.350003,-6.220001 -5.500002,-7 z"
     style="opacity:0.35;fill:currentColor;fill-opacity:1;stroke:none;stroke-width:4;-inkscape-stroke:none"
     id="path1186"
     class="ColorScheme-Text" />
</svg>
