<?xml version="1.0" encoding="UTF-8" standalone="no"?>
<svg
   width="16"
   height="16"
   version="1.1"
   id="svg1"
   sodipodi:docname="gnome-power-manager-symbolic.svg"
   inkscape:version="1.3 (0e150ed6c4, 2023-07-21)"
   xmlns:inkscape="http://www.inkscape.org/namespaces/inkscape"
   xmlns:sodipodi="http://sodipodi.sourceforge.net/DTD/sodipodi-0.dtd"
   xmlns="http://www.w3.org/2000/svg"
   xmlns:svg="http://www.w3.org/2000/svg">
  <defs
     id="defs1" />
  <sodipodi:namedview
     id="namedview1"
     pagecolor="#ffffff"
     bordercolor="#000000"
     borderopacity="0.25"
     inkscape:showpageshadow="2"
     inkscape:pageopacity="0.0"
     inkscape:pagecheckerboard="0"
     inkscape:deskcolor="#d1d1d1"
     inkscape:zoom="50"
     inkscape:cx="7.99"
     inkscape:cy="8"
     inkscape:window-width="1920"
     inkscape:window-height="1004"
     inkscape:window-x="0"
     inkscape:window-y="0"
     inkscape:window-maximized="1"
     inkscape:current-layer="svg1" />
  <path
     id="path1"
     style="fill:#4d4d4d"
     d="M 8 1 C 4.1340107 1 1 4.1340107 1 8 C 1 11.865989 4.1340107 15 8 15 C 11.865989 15 15 11.865989 15 8 C 15 4.1340107 11.865989 1 8 1 z M 8 3 C 10.761421 3 13 5.2385791 13 8 C 13 10.761421 10.761421 13 8 13 C 5.2385791 13 3 10.761421 3 8 C 3 5.2385791 5.2385791 3 8 3 z M 8 4 L 5 9 L 8 9 L 8 12 L 11 7 L 8 7 L 8 4 z " />
</svg>
