<?xml version="1.0" encoding="UTF-8" standalone="no"?>
<svg
   width="16"
   height="16"
   version="1.1"
   id="svg3193"
   sodipodi:docname="org.gnome.Settings-thunderbolt-symbolic.svg"
   inkscape:version="1.2.2 (1:1.2.2+202305151914+b0a8486541)"
   xmlns:inkscape="http://www.inkscape.org/namespaces/inkscape"
   xmlns:sodipodi="http://sodipodi.sourceforge.net/DTD/sodipodi-0.dtd"
   xmlns="http://www.w3.org/2000/svg"
   xmlns:svg="http://www.w3.org/2000/svg">
  <defs
     id="defs3197" />
  <sodipodi:namedview
     id="namedview3195"
     pagecolor="#ffffff"
     bordercolor="#000000"
     borderopacity="0.25"
     inkscape:showpageshadow="2"
     inkscape:pageopacity="0.0"
     inkscape:pagecheckerboard="0"
     inkscape:deskcolor="#d1d1d1"
     showgrid="false"
     inkscape:zoom="50.375"
     inkscape:cx="8"
     inkscape:cy="8"
     inkscape:window-width="1920"
     inkscape:window-height="1008"
     inkscape:window-x="0"
     inkscape:window-y="0"
     inkscape:window-maximized="1"
     inkscape:current-layer="svg3193" />
  <path
     id="path3191"
     style="fill:#4d4d4d;fill-opacity:1"
     d="M 11 0 L 6.8164062 1.1132812 L 4 8 L 8 8 L 6.4863281 10.777344 L 5.2949219 9.4199219 L 4.515625 15.269531 L 9.4785156 11.761719 L 7.7480469 11.447266 L 12 6 L 8 6 L 11 0 z M 5.7050781 1.3867188 C 2.9668754 2.3370756 1 4.9382781 1 8 C 1 10.263921 2.0766871 12.275448 3.7441406 13.554688 L 4.0722656 11.09375 C 3.4012681 10.242474 3 9.1679555 3 8 C 3 6.6366568 3.5468027 5.4019799 4.4316406 4.5 L 5.7050781 1.3867188 z M 11.130859 1.7382812 L 10.236328 3.5273438 C 11.874747 4.3482863 13 6.0426523 13 8 C 13 10.267905 11.489379 12.182936 9.4199219 12.794922 L 6.5253906 14.839844 C 7.0012445 14.942049 7.4937539 15 8 15 C 11.865969 15 15 11.865969 15 8 C 15 5.2596282 13.424763 2.8875611 11.130859 1.7382812 z " />
</svg>
