<?xml version="1.0" encoding="UTF-8" standalone="no"?>
<!-- Created with Inkscape (http://www.inkscape.org/) -->

<svg
   width="16"
   height="16"
   viewBox="0 0 16 16"
   version="1.1"
   id="svg5"
   inkscape:version="1.3 (0e150ed6c4, 2023-07-21)"
   sodipodi:docname="org.gnome.Settings-applications-symbolic.svg"
   xmlns:inkscape="http://www.inkscape.org/namespaces/inkscape"
   xmlns:sodipodi="http://sodipodi.sourceforge.net/DTD/sodipodi-0.dtd"
   xmlns="http://www.w3.org/2000/svg"
   xmlns:svg="http://www.w3.org/2000/svg">
  <sodipodi:namedview
     id="namedview7"
     pagecolor="#ffffff"
     bordercolor="#000000"
     borderopacity="0.25"
     inkscape:showpageshadow="2"
     inkscape:pageopacity="0.0"
     inkscape:pagecheckerboard="0"
     inkscape:deskcolor="#d1d1d1"
     inkscape:document-units="px"
     showgrid="false"
     inkscape:zoom="50"
     inkscape:cx="7.99"
     inkscape:cy="8"
     inkscape:window-width="1920"
     inkscape:window-height="1004"
     inkscape:window-x="0"
     inkscape:window-y="0"
     inkscape:window-maximized="1"
     inkscape:current-layer="svg5" />
  <defs
     id="defs2" />
  <path
     id="path296"
     style="fill:#4d4d4d;fill-opacity:1"
     d="M 2 1 C 1.4460012 1 1 1.4460012 1 2 L 1 6 C 1 6.5539988 1.4460012 7 2 7 L 6 7 C 6.5539988 7 7 6.5539988 7 6 L 7 2 C 7 1.4460012 6.5539988 1 6 1 L 2 1 z M 10 1 C 9.4460012 1 9 1.4460012 9 2 L 9 6 C 9 6.5539988 9.4460012 7 10 7 L 14 7 C 14.553998 7 15 6.5539988 15 6 L 15 2 C 15 1.4460012 14.553998 1 14 1 L 10 1 z M 3 3 L 5 3 L 5 5 L 3 5 L 3 3 z M 11 3 L 13 3 L 13 5 L 11 5 L 11 3 z M 2 9 C 1.4460012 9 1 9.4460017 1 10 L 1 14 C 1 14.553998 1.4460012 15 2 15 L 6 15 C 6.5539988 15 7 14.553998 7 14 L 7 10 C 7 9.4460017 6.5539988 9 6 9 L 2 9 z M 10 9 C 9.4460012 9 9 9.4460017 9 10 L 9 14 C 9 14.553998 9.4460012 15 10 15 L 14 15 C 14.553998 15 15 14.553998 15 14 L 15 10 C 15 9.4460017 14.553998 9 14 9 L 10 9 z M 3 11 L 5 11 L 5 13 L 3 13 L 3 11 z M 11 11 L 13 11 L 13 13 L 11 13 L 11 11 z " />
</svg>
