<?xml version="1.0" encoding="UTF-8" standalone="no"?>
<svg
   width="16"
   height="16"
   version="1.1"
   id="svg2"
   sodipodi:docname="accessories-dictionary-symbolic.svg"
   inkscape:version="1.4.3 (0d15f75042, 2025-12-25)"
   xmlns:inkscape="http://www.inkscape.org/namespaces/inkscape"
   xmlns:sodipodi="http://sodipodi.sourceforge.net/DTD/sodipodi-0.dtd"
   xmlns="http://www.w3.org/2000/svg"
   xmlns:svg="http://www.w3.org/2000/svg">
  <defs
     id="defs2">
     <style
        id="current-color-scheme"
        type="text/css">
        .ColorScheme-Text { color:#4d4d4d; } .ColorScheme-Highlight { color:#4285f4; } .ColorScheme-NeutralText { color:#ff9800; } .ColorScheme-PositiveText { color:#4caf50; } .ColorScheme-NegativeText { color:#f44336; }
     </style>
  </defs>
  <sodipodi:namedview
     id="namedview2"
     pagecolor="#ffffff"
     bordercolor="#000000"
     borderopacity="0.25"
     inkscape:showpageshadow="2"
     inkscape:pageopacity="0.0"
     inkscape:pagecheckerboard="0"
     inkscape:deskcolor="#d1d1d1"
     inkscape:zoom="36.25"
     inkscape:cx="7.9862069"
     inkscape:cy="8"
     inkscape:window-width="1440"
     inkscape:window-height="828"
     inkscape:window-x="0"
     inkscape:window-y="0"
     inkscape:window-maximized="1"
     inkscape:current-layer="svg2" />
  <path
     style="fill:currentColor"
     class="ColorScheme-Text"
     d="M 10.03,1.15 C 9.88,1.15 9.73,1.16 9.57,1.18 9,1.26 8.32,1.53 7.55,1.94 6.01,1.09 4.81,1.04 3.81,1.3 2.74,1.57 1.87,2.02 0.52,1.98 L 0,1.96 V 16 H 15 V 1.98 L 14.48,2 C 12.97,2.05 12.21,1.61 11.23,1.32 10.87,1.21 10.47,1.14 10.03,1.15 Z M 4.74,2.14 C 5.36,2.07 6.04,2.22 7,2.74 v 8.64 C 5.9,10.75 4.79,10.7 3.82,10.94 3.16,11.1 2.57,11.28 2,11.43 V 2.79 C 2.8,2.65 3.47,2.42 4.05,2.27 4.29,2.21 4.51,2.16 4.74,2.14 Z m 5.6,0 c 0.2,0.02 0.4,0.07 0.61,0.14 0.53,0.15 1.19,0.4 2.05,0.55 v 8.6 C 12.43,11.28 11.84,11.09 11.19,10.93 10.21,10.69 9.1,10.75 8,11.41 V 2.8 C 8.7,2.42 9.25,2.21 9.68,2.14 c 0.24,-0.03 0.45,-0.03 0.66,0 z M 9.8,11.75 c 0.37,-0.01 0.75,0.05 1.15,0.15 0.64,0.16 1.32,0.43 2.05,0.63 V 14 H 2 v -1.46 c 0.72,-0.2 1.41,-0.47 2.05,-0.63 1.08,-0.27 2,-0.3 3.15,0.74 l 0.34,0.3 0.33,-0.31 C 8.57,12 9.18,11.77 9.8,11.75 Z"
     id="path1" />
  <path
     style="opacity:.35;fill:currentColor"
     class="ColorScheme-Text"
     d="M 0.94,14.75 V 12.56 L 5.16,11.43 7.5,12.03 9.89,11.36 13.63,12.36 V 14.81 Z"
     id="path2" />
</svg>
