<?xml version="1.0" encoding="UTF-8" standalone="no"?>
<svg
   width="16"
   height="16"
   version="1.1"
   id="svg1"
   sodipodi:docname="inkscape-symbolic.svg"
   inkscape:version="1.4.3 (0d15f75042, 2025-12-25)"
   xmlns:inkscape="http://www.inkscape.org/namespaces/inkscape"
   xmlns:sodipodi="http://sodipodi.sourceforge.net/DTD/sodipodi-0.dtd"
   xmlns="http://www.w3.org/2000/svg"
   xmlns:svg="http://www.w3.org/2000/svg">
  <defs
     id="defs1">
     <style
        id="current-color-scheme"
        type="text/css">
        .ColorScheme-Text { color:#4d4d4d; } .ColorScheme-Highlight { color:#4285f4; } .ColorScheme-NeutralText { color:#ff9800; } .ColorScheme-PositiveText { color:#4caf50; } .ColorScheme-NegativeText { color:#f44336; }
     </style>
  </defs>
  <sodipodi:namedview
     id="namedview1"
     pagecolor="#ffffff"
     bordercolor="#000000"
     borderopacity="0.25"
     inkscape:showpageshadow="2"
     inkscape:pageopacity="0.0"
     inkscape:pagecheckerboard="0"
     inkscape:deskcolor="#d1d1d1"
     inkscape:zoom="36.25"
     inkscape:cx="7.9862069"
     inkscape:cy="8"
     inkscape:window-width="1440"
     inkscape:window-height="828"
     inkscape:window-x="0"
     inkscape:window-y="0"
     inkscape:window-maximized="1"
     inkscape:current-layer="svg1" />
  <path
     style="fill:currentColor"
     class="ColorScheme-Text"
     d="M 8,0 C 7.55,0 7.1,0.17 6.76,0.53 L 0.57,6.91 C 0.23,7.26 0.05,7.72 0.04,8.18 c 0,0.01 0,0.02 0,0.03 0,1.37 3.65,0.04 3.98,1.71 0.18,0.91 -1.99,0.49 -1.99,1.4 0,1.07 3.07,0.34 3.95,1.21 0.36,0.88 -1.18,0.74 -0.9,1.56 0.51,0.53 1.67,0.23 1.89,1.09 0.26,0.98 1.92,0.81 2.89,0.09 0.52,-0.53 -0.79,-0.77 -0.28,-1.31 0.52,-0.53 3.06,-0.42 3.08,-1.58 -0.24,-0.73 -1.2,-0.85 -1.21,-1.71 -0.05,-0.73 0.78,-0.52 3.42,-1.24 1.05,-0.5 1.09,-0.76 1.09,-1.22 0,-0.01 0,-0.02 0,-0.03 C 15.95,7.72 15.74,7.26 15.4,6.91 L 9.24,0.53 C 8.89,0.17 8.45,0 8,0 Z m 0.12,1.34 c 0.47,0 1.75,1.58 2.89,2.77 0.33,0.43 -0.12,0.87 -0.12,0.87 L 8.5,3.67 7.44,5.1 6.51,3.7 5.95,5.88 4.3,4.89 4.74,4.33 7.32,1.68 C 7.51,1.48 7.67,1.34 8.12,1.34 Z m 7.09,9.58 c -0.13,-0.01 -0.25,0 -0.34,0.03 -0.17,0.05 -0.97,0.08 -0.9,0.68 0.72,0.31 1.82,0.55 1.95,-0.06 0.1,-0.45 -0.33,-0.64 -0.71,-0.65 z M 2.87,12.94 C 2.8,12.95 2.75,12.97 2.69,13 c -0.55,0.21 -0.92,0.65 -0.41,0.84 0.51,0.19 0.86,-0.01 1.31,-0.25 0.45,-0.24 0.43,-0.28 0.4,-0.37 -0.06,0.01 -0.47,-0.24 -0.9,-0.28 -0.07,-0.01 -0.15,-0.01 -0.22,0 z"
     id="path1" />
</svg>
