<?xml version="1.0" encoding="UTF-8" standalone="no"?>
<svg
   width="16"
   height="16"
   version="1.1"
   id="svg3"
   sodipodi:docname="org.gnome.Terminal.Preferences-symbolic.svg"
   inkscape:version="1.4.3 (0d15f75042, 2025-12-25)"
   xmlns:inkscape="http://www.inkscape.org/namespaces/inkscape"
   xmlns:sodipodi="http://sodipodi.sourceforge.net/DTD/sodipodi-0.dtd"
   xmlns="http://www.w3.org/2000/svg"
   xmlns:svg="http://www.w3.org/2000/svg">
  <defs
     id="defs3">
    <style
       id="current-color-scheme"
       type="text/css">
        .ColorScheme-Text { color:#4d4d4d; } .ColorScheme-Highlight { color:#4285f4; } .ColorScheme-NeutralText { color:#ff9800; } .ColorScheme-PositiveText { color:#4caf50; } .ColorScheme-NegativeText { color:#f44336; }
     </style>
  </defs>
  <sodipodi:namedview
     id="namedview3"
     pagecolor="#ffffff"
     bordercolor="#000000"
     borderopacity="0.25"
     inkscape:showpageshadow="2"
     inkscape:pageopacity="0.0"
     inkscape:pagecheckerboard="0"
     inkscape:deskcolor="#d1d1d1"
     inkscape:zoom="36.25"
     inkscape:cx="7.9862069"
     inkscape:cy="8"
     inkscape:window-width="1440"
     inkscape:window-height="828"
     inkscape:window-x="0"
     inkscape:window-y="0"
     inkscape:window-maximized="1"
     inkscape:current-layer="svg3" />
  <path
     id="path2"
     style="fill:currentColor;fill-opacity:1"
     class="ColorScheme-Text"
     d="M 2 1 C 2e-06 1 0 3 0 3 L 0 12 C 0 12 2e-06 14 2 14 L 9 14 L 9 12 L 2 12 L 2 3 L 14 3 L 14 8 L 16 8 L 16 3 C 16 3 15.999998 1 14 1 L 2 1 z M 3.5 4 C 3.3700001 4 3.2403905 4.050391 3.1503906 4.1503906 C 2.9503908 4.3403904 2.9503908 4.6596096 3.1503906 4.8496094 L 5.7890625 7.5 L 3.1503906 10.150391 C 2.9503908 10.34039 2.9503908 10.65961 3.1503906 10.849609 C 3.3403904 11.049609 3.6596096 11.049609 3.8496094 10.849609 L 6.8496094 7.8496094 C 7.0496092 7.6596096 7.0496092 7.3403904 6.8496094 7.1503906 L 3.8496094 4.1503906 C 3.7596095 4.0503907 3.6299999 4 3.5 4 z M 12.376953 8.9980469 C 12.304853 8.9980469 12.238562 9.05297 12.226562 9.125 L 12.107422 9.9414062 C 11.951272 10.007506 11.800239 10.097269 11.662109 10.193359 L 10.894531 9.8945312 C 10.822431 9.8645313 10.743061 9.8948375 10.707031 9.9609375 L 10.089844 11.035156 C 10.053844 11.101256 10.065 11.178512 10.125 11.226562 L 10.767578 11.744141 C 10.749578 11.918321 10.743719 12.091606 10.761719 12.259766 L 10.119141 12.771484 C 10.059141 12.819584 10.047884 12.896821 10.083984 12.962891 L 10.701172 14.039062 C 10.737172 14.105163 10.816592 14.127516 10.888672 14.103516 L 11.650391 13.804688 C 11.788531 13.906778 11.939403 13.990581 12.101562 14.056641 L 12.220703 14.873047 C 12.232703 14.945147 12.293054 15 12.371094 15 L 13.615234 15 C 13.687334 15 13.753605 14.945067 13.765625 14.873047 L 13.884766 14.056641 C 14.040926 13.990541 14.191948 13.900778 14.330078 13.804688 L 15.097656 14.103516 C 15.169756 14.133516 15.249106 14.105163 15.285156 14.039062 L 15.902344 12.962891 C 15.938344 12.896791 15.927188 12.819534 15.867188 12.771484 L 15.230469 12.259766 C 15.248469 12.085596 15.254328 11.912301 15.236328 11.744141 L 15.878906 11.232422 C 15.939006 11.184422 15.952116 11.107086 15.916016 11.041016 L 15.296875 9.9667969 C 15.260875 9.9006969 15.181445 9.8763906 15.109375 9.9003906 L 14.341797 10.201172 C 14.203647 10.099072 14.052795 10.013326 13.890625 9.9472656 L 13.771484 9.1308594 C 13.759484 9.0527594 13.699134 8.9980469 13.621094 8.9980469 L 12.376953 8.9980469 z M 13.001953 11.101562 C 13.500463 11.101562 13.902344 11.503463 13.902344 12.001953 C 13.902344 12.500443 13.500453 12.902344 13.001953 12.902344 C 12.503453 12.902344 12.101562 12.500443 12.101562 12.001953 C 12.101562 11.503443 12.503463 11.101562 13.001953 11.101562 z " />
</svg>
