<?xml version="1.0" encoding="UTF-8" standalone="no"?>
<svg
   width="16"
   height="16"
   version="1.1"
   id="svg2"
   sodipodi:docname="password-manager-symbolic.svg"
   inkscape:version="1.4.3 (0d15f75042, 2025-12-25)"
   xmlns:inkscape="http://www.inkscape.org/namespaces/inkscape"
   xmlns:sodipodi="http://sodipodi.sourceforge.net/DTD/sodipodi-0.dtd"
   xmlns="http://www.w3.org/2000/svg"
   xmlns:svg="http://www.w3.org/2000/svg">
  <defs
     id="defs2">
     <style
        id="current-color-scheme"
        type="text/css">
        .ColorScheme-Text { color:#4d4d4d; } .ColorScheme-Highlight { color:#4285f4; } .ColorScheme-NeutralText { color:#ff9800; } .ColorScheme-PositiveText { color:#4caf50; } .ColorScheme-NegativeText { color:#f44336; }
     </style>
  </defs>
  <sodipodi:namedview
     id="namedview2"
     pagecolor="#ffffff"
     bordercolor="#000000"
     borderopacity="0.25"
     inkscape:showpageshadow="2"
     inkscape:pageopacity="0.0"
     inkscape:pagecheckerboard="0"
     inkscape:deskcolor="#d1d1d1"
     inkscape:zoom="36.25"
     inkscape:cx="7.9862069"
     inkscape:cy="8"
     inkscape:window-width="1440"
     inkscape:window-height="828"
     inkscape:window-x="0"
     inkscape:window-y="0"
     inkscape:window-maximized="1"
     inkscape:current-layer="svg2" />
  <path
     style="fill:currentColor"
     class="ColorScheme-Text"
     d="M 4.5,1 C 2.01,1 0,3.02 0,5.5 0,7.99 2.01,10 4.5,10 6.4,10 8.1,8.8 8.74,7 H 12 v 2 h 3 V 7 h 1 V 4 H 8.74 C 8.1,2.21 6.4,1.01 4.5,1 Z m 0,3 C 5.33,4 6,4.68 6,5.5 6,6.33 5.33,7 4.5,7 3.67,7 3,6.33 3,5.5 3,4.68 3.67,4 4.5,4 Z"
     id="path1" />
  <path
     style="opacity:.35;fill:currentColor"
     class="ColorScheme-Text"
     d="M 9.24,8.13 C 8.74,9.03 8.02,9.77 7.15,10.28 L 8.75,11.87 7.33,13.28 9.45,15.4 10.87,13.98 11.57,14.69 13.7,12.57 Z"
     id="path2" />
</svg>
