<?xml version="1.0" encoding="UTF-8" standalone="no"?>
<svg
   width="16"
   height="16"
   version="1.1"
   id="svg1"
   sodipodi:docname="preferences-desktop-keyboard-shortcuts-symbolic.svg"
   inkscape:version="1.4.3 (0d15f75042, 2025-12-25)"
   xmlns:inkscape="http://www.inkscape.org/namespaces/inkscape"
   xmlns:sodipodi="http://sodipodi.sourceforge.net/DTD/sodipodi-0.dtd"
   xmlns="http://www.w3.org/2000/svg"
   xmlns:svg="http://www.w3.org/2000/svg">
  <defs
     id="defs1">
     <style
        id="current-color-scheme"
        type="text/css">
        .ColorScheme-Text { color:#4d4d4d; } .ColorScheme-Highlight { color:#4285f4; } .ColorScheme-NeutralText { color:#ff9800; } .ColorScheme-PositiveText { color:#4caf50; } .ColorScheme-NegativeText { color:#f44336; }
     </style>
  </defs>
  <sodipodi:namedview
     id="namedview1"
     pagecolor="#ffffff"
     bordercolor="#000000"
     borderopacity="0.25"
     inkscape:showpageshadow="2"
     inkscape:pageopacity="0.0"
     inkscape:pagecheckerboard="0"
     inkscape:deskcolor="#d1d1d1"
     inkscape:zoom="36.25"
     inkscape:cx="7.9862069"
     inkscape:cy="8"
     inkscape:window-width="1440"
     inkscape:window-height="828"
     inkscape:window-x="0"
     inkscape:window-y="0"
     inkscape:window-maximized="1"
     inkscape:current-layer="svg1" />
  <path
     id="path1"
     style="fill:currentColor"
     class="ColorScheme-Text"
     d="M 10 0 C 8.892 0 8 0.89201 8 2 L 8 7 L 15 7 L 15 2 C 15 0.892 14.108 0 13 0 L 10 0 z M 2 1 C 0.892 1 0 1.89201 0 3 L 0 7 L 7 7 L 7 3 C 7 1.892 6.10799 1 5 1 L 2 1 z M 10 2 L 13 2 L 13 5 L 10 5 L 10 2 z M 2 3 L 5 3 L 5 5 L 2 5 L 2 3 z M 2 8 C 0.892 8 0 8.89201 0 10 L 0 15 L 12 15 L 12 10 C 12 8.892 11.108 8 10 8 L 2 8 z M 2 10 L 10 10 L 10 13 L 2 13 L 2 10 z " />
</svg>
