<?xml version="1.0" encoding="UTF-8" standalone="no"?>
<svg
   width="16"
   height="16"
   version="1.1"
   id="svg1"
   sodipodi:docname="accessories-calculator-symbolic.svg"
   inkscape:version="1.4.3 (0d15f75042, 2025-12-25)"
   xmlns:inkscape="http://www.inkscape.org/namespaces/inkscape"
   xmlns:sodipodi="http://sodipodi.sourceforge.net/DTD/sodipodi-0.dtd"
   xmlns="http://www.w3.org/2000/svg"
   xmlns:svg="http://www.w3.org/2000/svg">
  <defs
     id="defs1">
     <style
        id="current-color-scheme"
        type="text/css">
        .ColorScheme-Text { color:#dfdfdf; } .ColorScheme-Highlight { color:#4285f4; } .ColorScheme-NeutralText { color:#ff9800; } .ColorScheme-PositiveText { color:#4caf50; } .ColorScheme-NegativeText { color:#f44336; }
     </style>
  </defs>
  <sodipodi:namedview
     id="namedview1"
     pagecolor="#ffffff"
     bordercolor="#000000"
     borderopacity="0.25"
     inkscape:showpageshadow="2"
     inkscape:pageopacity="0.0"
     inkscape:pagecheckerboard="0"
     inkscape:deskcolor="#d1d1d1"
     inkscape:zoom="36.25"
     inkscape:cx="7.9862069"
     inkscape:cy="8"
     inkscape:window-width="1440"
     inkscape:window-height="828"
     inkscape:window-x="0"
     inkscape:window-y="0"
     inkscape:window-maximized="1"
     inkscape:current-layer="svg1" />
  <path
     style="fill:currentColor"
     class="ColorScheme-Text"
     d="M 2,1 C 2,1 0,1 0,3 v 11 c 0,0 0,2 2,2 h 11 c 0,0 2,0 2,-2 V 3 C 15,1 13,1 13,1 Z M 2,3 H 2.84 7 V 8 H 2 V 4.41 4 Z m 6,0 h 5 V 8 H 8 Z M 9.44,4 C 9.1,4.08 8.9,4.58 9.16,4.84 L 9.81,5.5 9.16,6.16 C 8.9,6.31 8.85,6.72 9.06,6.94 9.28,7.15 9.69,7.1 9.84,6.84 l 0.66,-0.65 0.66,0.65 c 0.15,0.26 0.56,0.31 0.78,0.1 0.21,-0.22 0.16,-0.63 -0.1,-0.78 L 11.19,5.5 11.84,4.84 C 12.1,4.61 11.99,4.11 11.66,4 11.64,4 11.61,4 11.59,4 11.43,3.98 11.27,4.04 11.16,4.16 L 10.5,4.81 9.84,4.16 C 9.78,4.08 9.69,4.03 9.59,4 9.54,3.99 9.49,3.99 9.44,4 Z M 3,5 V 6 H 4 5 6 V 5 H 5 4 Z M 2,9 h 5 v 5 H 2.84 2 v -1 z m 6,0 h 5 v 4 1 H 8 Z m -4,1 v 1 H 3 v 1 h 1 v 1 H 5 V 12 H 6 V 11 H 5 v -1 z m 5,0 v 1 h 3 v -1 z m 0,2 v 1 h 3 v -1 z"
     id="path1" />
</svg>
