<?xml version="1.0" encoding="UTF-8" standalone="no"?>
<svg
   width="16"
   height="16"
   version="1"
   id="svg1"
   sodipodi:docname="com.github.bilelmoussaoui.Authenticator-symbolic.svg"
   inkscape:version="1.4.3 (0d15f75042, 2025-12-25)"
   xmlns:inkscape="http://www.inkscape.org/namespaces/inkscape"
   xmlns:sodipodi="http://sodipodi.sourceforge.net/DTD/sodipodi-0.dtd"
   xmlns="http://www.w3.org/2000/svg"
   xmlns:svg="http://www.w3.org/2000/svg">
  <defs
     id="defs1">
     <style
        id="current-color-scheme"
        type="text/css">
        .ColorScheme-Text { color:#dfdfdf; } .ColorScheme-Highlight { color:#4285f4; } .ColorScheme-NeutralText { color:#ff9800; } .ColorScheme-PositiveText { color:#4caf50; } .ColorScheme-NegativeText { color:#f44336; }
     </style>
  </defs>
  <sodipodi:namedview
     id="namedview1"
     pagecolor="#ffffff"
     bordercolor="#000000"
     borderopacity="0.25"
     inkscape:showpageshadow="2"
     inkscape:pageopacity="0.0"
     inkscape:pagecheckerboard="0"
     inkscape:deskcolor="#d1d1d1"
     inkscape:zoom="36.25"
     inkscape:cx="7.9862069"
     inkscape:cy="8"
     inkscape:window-width="1440"
     inkscape:window-height="828"
     inkscape:window-x="0"
     inkscape:window-y="0"
     inkscape:window-maximized="1"
     inkscape:current-layer="svg1" />
  <path
     style="fill:currentColor"
     class="ColorScheme-Text"
     d="M 8,0 C 4.8995789,0 4.1791235,2.4508372 4.0371094,5.4960938 2.7893308,6.5940337 2,8.199674 2,10 c 0,3.324 2.676,6 6,6 3.324,0 6,-2.676 6,-6 C 14,8.199674 13.210669,6.5940337 11.962891,5.4960938 11.820772,2.4507208 11.100324,0 8,0 Z M 8,2 C 9.052645,2 9.6265557,2.6497587 9.8652344,4.296875 9.2780277,4.1059935 8.6524822,4 8,4 7.3475178,4 6.7219723,4.1059935 6.1347656,4.296875 6.3734319,2.6497398 6.9473498,2 8,2 Z m 0,4 c 2.216,0 4,1.784 4,4 0,2.216 -1.784,4 -4,4 C 5.784,14 4,12.216 4,10 4,7.784 5.784,6 8,6 Z M 10.474609,7.5253906 9.4140625,7.8789062 8.6816406,8.121094 a 2,2 0 0 0 -2.0957031,0.464844 2,2 0 0 0 0,2.828124 2,2 0 0 0 2.828125,0 2,2 0 0 0 0.4648437,-2.095703 L 10.121094,8.585938 Z"
     id="path1" />
</svg>
