<?xml version="1.0" encoding="UTF-8" standalone="no"?>
<svg
   width="16"
   height="16"
   version="1.1"
   id="svg2"
   sodipodi:docname="utilities-system-monitor-symbolic.svg"
   inkscape:version="1.4.3 (0d15f75042, 2025-12-25)"
   xmlns:inkscape="http://www.inkscape.org/namespaces/inkscape"
   xmlns:sodipodi="http://sodipodi.sourceforge.net/DTD/sodipodi-0.dtd"
   xmlns="http://www.w3.org/2000/svg"
   xmlns:svg="http://www.w3.org/2000/svg">
  <defs
     id="defs2">
     <style
        id="current-color-scheme"
        type="text/css">
        .ColorScheme-Text { color:#dfdfdf; } .ColorScheme-Highlight { color:#4285f4; } .ColorScheme-NeutralText { color:#ff9800; } .ColorScheme-PositiveText { color:#4caf50; } .ColorScheme-NegativeText { color:#f44336; }
     </style>
  </defs>
  <sodipodi:namedview
     id="namedview2"
     pagecolor="#ffffff"
     bordercolor="#000000"
     borderopacity="0.25"
     inkscape:showpageshadow="2"
     inkscape:pageopacity="0.0"
     inkscape:pagecheckerboard="0"
     inkscape:deskcolor="#d1d1d1"
     inkscape:zoom="36.25"
     inkscape:cx="7.9862069"
     inkscape:cy="8"
     inkscape:window-width="1440"
     inkscape:window-height="828"
     inkscape:window-x="0"
     inkscape:window-y="0"
     inkscape:window-maximized="1"
     inkscape:current-layer="svg2" />
  <path
     id="path1"
     style="fill:currentColor"
     class="ColorScheme-Text"
     d="M 9.4082031 4.9511719 C 9.3749805 4.9536914 9.3430469 4.9607031 9.3105469 4.9707031 C 9.1505469 5.0207031 9.0207031 5.1505469 8.9707031 5.3105469 L 7.2792969 11.410156 L 6.4101562 10.220703 C 6.3201562 10.090703 6.16 10 6 10 L 2 10 L 2 11 L 5.75 11 L 7.0605469 12.779297 C 7.2805469 13.069297 7.8294531 12.969141 7.9394531 12.619141 L 9.4707031 7.1894531 L 10.529297 10.660156 C 10.602317 10.858466 10.7888 10.9927 11 11 L 14 11 L 14 10 L 11.369141 10 L 9.9394531 5.3105469 C 9.8782031 5.0917969 9.6407617 4.9335352 9.4082031 4.9511719 z " />
  <path
     id="path2"
     style="fill:currentColor"
     class="ColorScheme-Text"
     d="M 1 1 C 0.446 1 0 1.446 0 2 L 0 14 C 0 14.554 0.446 15 1 15 L 15 15 C 15.554 15 16 14.554 16 14 L 16 2 C 16 1.446 15.554 1 15 1 L 1 1 z M 2 3 L 14 3 L 14 13 L 2 13 L 2 3 z " />
</svg>
