<?xml version="1.0" encoding="UTF-8" standalone="no"?>
<!-- Created with Inkscape (http://www.inkscape.org/) -->

<svg
   width="22"
   height="22"
   viewBox="0 0 22 22"
   version="1.1"
   id="svg5"
   inkscape:version="1.4.3 (0d15f75042, 2025-12-25)"
   sodipodi:docname="camera-hardware-disabled-symbolic.svg"
   xmlns:inkscape="http://www.inkscape.org/namespaces/inkscape"
   xmlns:sodipodi="http://sodipodi.sourceforge.net/DTD/sodipodi-0.dtd"
   xmlns="http://www.w3.org/2000/svg"
   xmlns:svg="http://www.w3.org/2000/svg">
  <sodipodi:namedview
     id="namedview7"
     pagecolor="#ffffff"
     bordercolor="#000000"
     borderopacity="0.25"
     inkscape:showpageshadow="2"
     inkscape:pageopacity="0.0"
     inkscape:pagecheckerboard="0"
     inkscape:deskcolor="#d1d1d1"
     inkscape:document-units="px"
     showgrid="false"
     showguides="true"
     inkscape:zoom="37.772727"
     inkscape:cx="11"
     inkscape:cy="11"
     inkscape:window-width="1920"
     inkscape:window-height="1012"
     inkscape:window-x="0"
     inkscape:window-y="0"
     inkscape:window-maximized="1"
     inkscape:current-layer="svg5" />
  <defs
     id="defs2">
    <style
       id="current-color-scheme"
       type="text/css">
        .ColorScheme-Text { color:#4d4d4d; } .ColorScheme-Highlight { color:#4285f4; } .ColorScheme-NeutralText { color:#ff9800; } .ColorScheme-PositiveText { color:#4caf50; } .ColorScheme-NegativeText { color:#f44336; }
     </style>
  </defs>
  <path
     id="rect339"
     style="opacity:0.35;fill:currentColor;fill-opacity:1;stroke-width:4;stroke-linecap:square"
     class="ColorScheme-Text"
     d="M 8.8671875,4.0003589 C 8.5941332,4.0060121 8.5530721,4.0515162 8.2207031,4.4046558 L 7,6.0003589 H 5 c -1.1079911,0 -2,0.8920088 -2,2 V 10.000359 H 5 V 8.0003589 h 3 l 1.5,-2 h 3 l 1.5,2 h 3 v 2.0000001 h 2 V 8.0003589 c 0,-1.1079912 -0.892008,-2 -2,-2 H 15 L 13.765625,4.3890308 C 13.400447,4.0010339 13.4,4.0003589 13,4.0003589 H 9 c -0.05,0 -0.093805,-8.076e-4 -0.1328125,0 z m 2.1328125,5 A 3,3 0 0 0 8.7832031,10.000359 H 13.234375 A 3,3 0 0 0 11,9.0003589 Z M 3,12.000359 v 4 c 0,1.107992 0.8920089,2 2,2 h 12 c 1.107992,0 2,-0.892008 2,-2 v -4 h -2 v 4 H 5 v -4 z m 5,0 a 3,3 0 0 0 3,3 3,3 0 0 0 3,-3 h -2 a 1,1 0 0 1 -1,1 1,1 0 0 1 -1,-1 z" />
  <rect
     style="opacity:1;fill:currentColor;stroke-linecap:square"
     class="ColorScheme-Text"
     id="rect283"
     width="16"
     height="2"
     x="3"
     y="12.000359" />
</svg>
