<?xml version="1.0" encoding="UTF-8" standalone="no"?>
<!-- Created with Inkscape (http://www.inkscape.org/) -->

<svg
   width="16"
   height="16"
   viewBox="0 0 16 16"
   version="1.1"
   id="svg5"
   inkscape:version="1.2.2 (1:1.2.2+202305151914+b0a8486541)"
   sodipodi:docname="audio-volume-muted.svg"
   xmlns:inkscape="http://www.inkscape.org/namespaces/inkscape"
   xmlns:sodipodi="http://sodipodi.sourceforge.net/DTD/sodipodi-0.dtd"
   xmlns="http://www.w3.org/2000/svg"
   xmlns:svg="http://www.w3.org/2000/svg">
  <sodipodi:namedview
     id="namedview7"
     pagecolor="#ffffff"
     bordercolor="#000000"
     borderopacity="0.25"
     inkscape:showpageshadow="2"
     inkscape:pageopacity="0.0"
     inkscape:pagecheckerboard="0"
     inkscape:deskcolor="#d1d1d1"
     inkscape:document-units="px"
     showgrid="false"
     inkscape:zoom="50.375"
     inkscape:cx="7.9900744"
     inkscape:cy="8"
     inkscape:window-width="1920"
     inkscape:window-height="1008"
     inkscape:window-x="0"
     inkscape:window-y="0"
     inkscape:window-maximized="1"
     inkscape:current-layer="svg5" />
  <defs
     id="defs2">
    <style
       id="current-color-scheme"
       type="text/css">
   .ColorScheme-Text { color:#4d4d4d; } .ColorScheme-Highlight { color:#4285f4; } .ColorScheme-NeutralText { color:#ff9800; } .ColorScheme-PositiveText { color:#4caf50; } .ColorScheme-NegativeText { color:#f44336; }
     </style>
  </defs>
  <path
     id="path971"
     style="opacity:0.35;fill:currentColor;fill-opacity:1;stroke:none;stroke-width:4;-inkscape-stroke:none"
     class="ColorScheme-Text"
     d="M 2.4140625,1 1,2.4140625 3.5859375,5 H 1 v 6 h 3 l 4,4 V 9.414063 l 3.408203,3.408203 C 10.975969,13.109362 10.50379,13.339308 10,13.5 V 15 c 0.895724,-0.221798 1.724742,-0.612143 2.455078,-1.130859 l 1.273438,1.273437 1.414062,-1.414062 z M 8,1 6.6210938,2.3789062 8,3.7578125 Z m 2,0 v 1.5 c 2.319992,0.7399969 4,2.9300108 4,5.5 0,0.535196 -0.07657,1.052348 -0.212891,1.544922 l 1.179688,1.179687 C 15.310618,9.885765 15.5,8.965955 15.5,8 15.5,4.6000132 13.149988,1.7799966 10,1 Z m 0,4 v 0.7578125 l 1.753906,1.7539063 C 11.598988,6.4228861 10.933402,5.5059558 10,5 Z M 5.2929688,6.7070312 6,7.4140625 V 10 L 5,9 H 3 V 7 h 2 z" />
</svg>
