<?xml version="1.0" encoding="UTF-8" standalone="no"?>
<!-- Created with Inkscape (http://www.inkscape.org/) -->

<svg
   width="16"
   height="16"
   viewBox="0 0 16 16"
   version="1.1"
   id="svg5"
   inkscape:version="1.2.2 (1:1.2.2+202305151914+b0a8486541)"
   sodipodi:docname="folder-open-recent.svg"
   xmlns:inkscape="http://www.inkscape.org/namespaces/inkscape"
   xmlns:sodipodi="http://sodipodi.sourceforge.net/DTD/sodipodi-0.dtd"
   xmlns="http://www.w3.org/2000/svg"
   xmlns:svg="http://www.w3.org/2000/svg">
  <sodipodi:namedview
     id="namedview7"
     pagecolor="#ffffff"
     bordercolor="#000000"
     borderopacity="0.25"
     inkscape:showpageshadow="2"
     inkscape:pageopacity="0.0"
     inkscape:pagecheckerboard="0"
     inkscape:deskcolor="#d1d1d1"
     inkscape:document-units="px"
     showgrid="false"
     inkscape:zoom="51.875"
     inkscape:cx="8"
     inkscape:cy="8"
     inkscape:window-width="1920"
     inkscape:window-height="1008"
     inkscape:window-x="0"
     inkscape:window-y="0"
     inkscape:window-maximized="1"
     inkscape:current-layer="svg5" />
  <defs
     id="defs2">
    <style
       id="current-color-scheme"
       type="text/css">
   .ColorScheme-Text { color:#4d4d4d; } .ColorScheme-Highlight { color:#4285f4; } .ColorScheme-NeutralText { color:#ff9800; } .ColorScheme-PositiveText { color:#4caf50; } .ColorScheme-NegativeText { color:#f44336; }
     </style>
  </defs>
  <path
     id="path1494"
     style="fill:currentColor;fill-opacity:1"
     class="ColorScheme-Text"
     d="M 3 1 C 1.8954349 1 1 1.8954349 1 3 L 1 12 A 2 2 0 0 0 3 14 L 9.546875 14 A 4 4 0 0 1 9 12 L 3 12 L 3 5 L 13 5 L 13 8 A 4 4 0 0 1 15 8.5371094 L 15 5 C 15 3.8954349 14.104565 3 13 3 L 9 3 L 7 1 L 3 1 z M 13 9 A 3 3 0 0 0 10 12 A 3 3 0 0 0 13 15 A 3 3 0 0 0 16 12 A 3 3 0 0 0 13 9 z M 12 10 L 13 10 L 13 12 L 15 12 L 15 13 L 12 13 L 12 10 z " />
</svg>
