<?xml version="1.0" encoding="UTF-8" standalone="no"?>
<!-- Created with Inkscape (http://www.inkscape.org/) -->

<svg
   width="22"
   height="22"
   viewBox="0 0 22 22"
   version="1.1"
   id="svg5"
   inkscape:version="1.3 (0e150ed6c4, 2023-07-21)"
   sodipodi:docname="folder-grey-public-open.svg"
   xmlns:inkscape="http://www.inkscape.org/namespaces/inkscape"
   xmlns:sodipodi="http://sodipodi.sourceforge.net/DTD/sodipodi-0.dtd"
   xmlns="http://www.w3.org/2000/svg"
   xmlns:svg="http://www.w3.org/2000/svg">
  <sodipodi:namedview
     id="namedview7"
     pagecolor="#ffffff"
     bordercolor="#000000"
     borderopacity="0.25"
     inkscape:showpageshadow="2"
     inkscape:pageopacity="0.0"
     inkscape:pagecheckerboard="0"
     inkscape:deskcolor="#d1d1d1"
     inkscape:document-units="px"
     showgrid="false"
     inkscape:zoom="36.5"
     inkscape:cx="11"
     inkscape:cy="11"
     inkscape:window-width="1850"
     inkscape:window-height="1011"
     inkscape:window-x="70"
     inkscape:window-y="32"
     inkscape:window-maximized="1"
     inkscape:current-layer="svg5" />
  <defs
     id="defs2" />
  <path
     id="path2024"
     style="opacity:0.2;fill:#000000;stroke-width:4;stroke-linecap:square"
     d="M 2.5,3.5 A 1.5,1.5 0 0 0 1,5 v 14 a 1.5,1.5 0 0 0 1.5,1.5 h 17 A 1.5,1.5 0 0 0 21,19 V 8 A 1.5,1.5 0 0 0 19.5,6.5 h -8 L 10.5,5 C 9.885394,4.0780908 9.607997,3.5 8.5,3.5 Z" />
  <path
     id="path2052"
     style="fill:#5e5c64;fill-opacity:1;stroke-width:4;stroke-linecap:square"
     d="M 2.5,3 A 1.5,1.5 0 0 0 1,4.5 v 14 A 1.5,1.5 0 0 0 2.5,20 h 17 A 1.5,1.5 0 0 0 21,18.5 V 7.5 A 1.5,1.5 0 0 0 19.5,6 h -8 l -1,-1.5 C 9.885394,3.5780908 9.607997,3 8.5,3 Z" />
  <path
     id="path447"
     style="opacity:0.1;fill:#ffffff;fill-opacity:1;stroke-width:4;stroke-linecap:square"
     d="M 2.5,3 C 1.6715737,3 1,3.6715737 1,4.5 V 5 C 1,4.1715737 1.6715737,3.5 2.5,3.5 h 6 c 1.107996,0 1.385395,0.5780917 2,1.5 l 1,1.5 h 8 C 20.328426,6.5 21,7.1715737 21,8 V 7.5 C 21,6.6715737 20.328426,6 19.5,6 h -8 l -1,-1.5 C 9.885395,3.5780917 9.607996,3 8.5,3 Z" />
  <rect
     style="opacity:0.2;fill:#000000;fill-opacity:1;stroke-width:4;stroke-linecap:square"
     id="rect2667"
     width="20"
     height="10"
     x="1"
     y="9.5"
     ry="1.5" />
  <rect
     style="fill:#f2f2f2;fill-opacity:1;stroke-width:1.5;stroke-linecap:square"
     id="rect3435"
     width="18"
     height="9"
     x="2"
     y="7"
     ry="1" />
  <rect
     style="opacity:1;fill:#9a9996;fill-opacity:1;stroke-width:4;stroke-linecap:square"
     id="rect2072"
     width="20"
     height="10"
     x="1"
     y="10"
     ry="1.5" />
  <path
     id="path1"
     style="opacity:0.5;fill:#000000"
     d="m 11,11 a 2,2 0 0 0 -2,2 2,2 0 0 0 2,2 2,2 0 0 0 2,-2 2,2 0 0 0 -2,-2 z m 0,5 a 4,3 0 0 0 -4,3 h 8 a 4,3 0 0 0 -4,-3 z" />
</svg>
