<?xml version="1.0" encoding="UTF-8" standalone="no"?>
<!-- Created with Inkscape (http://www.inkscape.org/) -->

<svg
   width="22"
   height="22"
   viewBox="0 0 22 22"
   version="1.1"
   id="svg5"
   inkscape:version="1.4.3 (0d15f75042, 2025-12-25)"
   sodipodi:docname="folder-red-projects.svg"
   xmlns:inkscape="http://www.inkscape.org/namespaces/inkscape"
   xmlns:sodipodi="http://sodipodi.sourceforge.net/DTD/sodipodi-0.dtd"
   xmlns="http://www.w3.org/2000/svg"
   xmlns:svg="http://www.w3.org/2000/svg">
  <sodipodi:namedview
     id="namedview7"
     pagecolor="#ffffff"
     bordercolor="#000000"
     borderopacity="0.25"
     inkscape:showpageshadow="2"
     inkscape:pageopacity="0.0"
     inkscape:pagecheckerboard="0"
     inkscape:deskcolor="#d1d1d1"
     inkscape:document-units="px"
     showgrid="false"
     inkscape:zoom="21.863636"
     inkscape:cx="11"
     inkscape:cy="10.977131"
     inkscape:window-width="1440"
     inkscape:window-height="833"
     inkscape:window-x="0"
     inkscape:window-y="0"
     inkscape:window-maximized="1"
     inkscape:current-layer="svg5" />
  <defs
     id="defs2" />
  <path
     id="path2024"
     style="opacity:0.2;fill:#000000;stroke-width:4;stroke-linecap:square"
     d="M 2.5,3.5 A 1.5,1.5 0 0 0 1,5 v 14 a 1.5,1.5 0 0 0 1.5,1.5 h 17 A 1.5,1.5 0 0 0 21,19 V 8 A 1.5,1.5 0 0 0 19.5,6.5 h -8 L 10.5,5 C 9.885394,4.0780908 9.607997,3.5 8.5,3.5 Z" />
  <path
     id="path2052"
     style="fill:#bf2334;fill-opacity:1;stroke-width:4;stroke-linecap:square"
     d="M 2.5,3 A 1.5,1.5 0 0 0 1,4.5 v 14 A 1.5,1.5 0 0 0 2.5,20 h 17 A 1.5,1.5 0 0 0 21,18.5 V 7.5 A 1.5,1.5 0 0 0 19.5,6 h -8 l -1,-1.5 C 9.885394,3.5780908 9.607997,3 8.5,3 Z" />
  <path
     id="path447"
     style="opacity:0.1;fill:#ffffff;fill-opacity:1;stroke-width:4;stroke-linecap:square"
     d="M 2.5,3 C 1.6715737,3 1,3.6715737 1,4.5 V 5 C 1,4.1715737 1.6715737,3.5 2.5,3.5 h 6 c 1.107996,0 1.385395,0.5780917 2,1.5 l 1,1.5 h 8 c 0.828426,0 1.5,0.6715737 1.5,1.5000001 v -0.5 C 21,6.6715737 20.328426,6 19.5,6 h -8 l -1,-1.5 C 9.885395,3.5780917 9.607996,3 8.5,3 Z" />
  <rect
     style="opacity:0.2;fill:#000000;fill-opacity:1;stroke-width:4;stroke-linecap:square"
     id="rect2667"
     width="20"
     height="11"
     x="1"
     y="8.5"
     ry="1.5" />
  <rect
     style="fill:#f2f2f2;fill-opacity:1;stroke-width:1.5;stroke-linecap:square"
     id="rect3435"
     width="18"
     height="9"
     x="2"
     y="7"
     ry="1" />
  <rect
     style="opacity:1;fill:#f99a90;fill-opacity:1;stroke-width:4;stroke-linecap:square"
     id="rect2072"
     width="20"
     height="11"
     x="1"
     y="9"
     ry="1.5" />
  <path
     style="opacity:1;fill:#e01b24"
     d="m 13,11 c -0.6,0.212 -1,0.777 -1,1.412 0,0.652 0.419,1.202 1,1.408 V 15 c 0.456,0.304 0.781,0.695 1,1.088 V 13.82 c 0.581,-0.206 1,-0.756 1,-1.408 0,-0.635 -0.4,-1.2 -1,-1.412 v 1 c 0,0.277 -0.223,0.5 -0.5,0.5 C 13.223,12.5 13,12.277 13,12 Z m -2,4 C 8,15 8,18 8,18 H 7 v 1 h 8 v -1 h -1 c 0,0 0,-3 -3,-3 z m 0,1 c 2,0 2,2 2,2 H 9 c 0,0 0,-2 2,-2 z"
     id="path5" />
</svg>
