<?xml version="1.0" encoding="UTF-8" standalone="no"?>
<!-- Created with Inkscape (http://www.inkscape.org/) -->

<svg
   width="48"
   height="48"
   viewBox="0 0 48 48"
   version="1.1"
   id="svg5"
   inkscape:version="1.3 (0e150ed6c4, 2023-07-21)"
   sodipodi:docname="0ad.svg"
   xmlns:inkscape="http://www.inkscape.org/namespaces/inkscape"
   xmlns:sodipodi="http://sodipodi.sourceforge.net/DTD/sodipodi-0.dtd"
   xmlns="http://www.w3.org/2000/svg"
   xmlns:svg="http://www.w3.org/2000/svg">
  <sodipodi:namedview
     id="namedview7"
     pagecolor="#ffffff"
     bordercolor="#000000"
     borderopacity="0.25"
     inkscape:showpageshadow="2"
     inkscape:pageopacity="0.0"
     inkscape:pagecheckerboard="0"
     inkscape:deskcolor="#d1d1d1"
     inkscape:document-units="px"
     showgrid="false"
     inkscape:zoom="16.75"
     inkscape:cx="24"
     inkscape:cy="24"
     inkscape:window-width="1920"
     inkscape:window-height="1008"
     inkscape:window-x="0"
     inkscape:window-y="0"
     inkscape:window-maximized="1"
     inkscape:current-layer="svg5" />
  <defs
     id="defs2" />
  <rect
     style="opacity:0.2;fill:#000000;stroke-width:2.85714;stroke-linecap:square"
     id="rect234"
     width="40"
     height="40"
     x="4"
     y="4.999999"
     ry="9" />
  <rect
     style="fill:#e4d6bd;fill-opacity:1;stroke-width:2.85714;stroke-linecap:square"
     id="rect396"
     width="40"
     height="40"
     x="4"
     y="4"
     ry="9" />
  <circle
     style="opacity:0.2;fill:#000000;stroke-width:1"
     cx="24"
     cy="25"
     r="14"
     id="circle1" />
  <circle
     style="fill:#886c38;fill-opacity:1;stroke-width:1"
     cx="24"
     cy="24"
     r="14"
     id="circle2" />
  <path
     opacity="0.2"
     d="M 25.0002,14.0508 V 24 h 9.9453 a 11,11 0 0 0 -9.945,-9.9494 z m -2,0.0039 a 11,11 0 0 0 -9.9492,9.94551 h 9.9492 v -9.9453 z m -9.9453,11.946 a 11,11 0 0 0 9.9453,9.949 v -9.9492 h -9.9453 z m 11.945,0 v 9.9453 a 11,11 0 0 0 9.9492,-9.9453 z"
     id="path4"
     style="fill:#000000" />
  <path
     fill="#ffffff"
     d="m 25.0002,13.051 v 9.9492 h 9.945 a 11,11 0 0 0 -9.945,-9.9492 z m -2,0.0039 a 11,11 0 0 0 -9.9492,9.9453 h 9.9492 z m -9.9453,11.945 a 11,11 0 0 0 9.9453,9.949 v -9.949 z m 11.945,0 v 9.945 a 11,11 0 0 0 9.949,-9.945 z"
     id="path5" />
  <path
     style="opacity:0.2;fill:#ffffff;stroke-width:1"
     d="M 24,10 A 14,14 0 0 0 10,24 14,14 0 0 0 10.021484,24.585938 14,14 0 0 1 24,11 14,14 0 0 1 37.978516,24.414062 14,14 0 0 0 38,24 14,14 0 0 0 24,10 Z"
     id="path7" />
  <path
     id="path1040"
     style="opacity:0.2;fill:#ffffff;stroke-width:8;stroke-linecap:square"
     d="m 13,4.0000002 c -4.98599,0 -9,4.01401 -9,8.9999998 v 1 C 4,9.0140102 8.01401,5.0000002 13,5.0000002 h 22 c 4.985992,0 9,4.01401 9,8.9999998 V 13 C 44,8.0140104 39.985992,4.0000002 35,4.0000002 Z" />
</svg>
