<?xml version="1.0" encoding="UTF-8" standalone="no"?>
<!-- Created with Inkscape (http://www.inkscape.org/) -->

<svg
   width="48"
   height="48"
   viewBox="0 0 48 48"
   version="1.1"
   id="svg5"
   inkscape:version="1.3.2 (091e20ef0f, 2023-11-25, custom)"
   sodipodi:docname="1cedt.svg"
   xmlns:inkscape="http://www.inkscape.org/namespaces/inkscape"
   xmlns:sodipodi="http://sodipodi.sourceforge.net/DTD/sodipodi-0.dtd"
   xmlns="http://www.w3.org/2000/svg"
   xmlns:svg="http://www.w3.org/2000/svg">
  <sodipodi:namedview
     id="namedview7"
     pagecolor="#ffffff"
     bordercolor="#000000"
     borderopacity="0.25"
     inkscape:showpageshadow="2"
     inkscape:pageopacity="0.0"
     inkscape:pagecheckerboard="0"
     inkscape:deskcolor="#d1d1d1"
     inkscape:document-units="px"
     showgrid="false"
     inkscape:zoom="16.5625"
     inkscape:cx="23.969811"
     inkscape:cy="24"
     inkscape:window-width="1920"
     inkscape:window-height="1008"
     inkscape:window-x="0"
     inkscape:window-y="0"
     inkscape:window-maximized="1"
     inkscape:current-layer="svg5" />
  <defs
     id="defs2" />
  <rect
     style="opacity:0.2;fill:#000000;stroke-width:2.85714;stroke-linecap:square"
     id="rect234"
     width="40"
     height="40"
     x="4"
     y="5"
     ry="9" />
  <rect
     style="fill:#e4e4e4;fill-opacity:1;stroke-width:2.85714;stroke-linecap:square"
     id="rect396"
     width="40"
     height="40"
     x="4"
     y="4"
     ry="9" />
  <rect
     style="opacity:0.1;fill:#000000"
     width="2.9189999"
     height="8.3690004"
     x="31.819683"
     y="-4.6498165"
     transform="rotate(30)"
     id="rect2" />
  <rect
     style="opacity:0.1;fill:#000000"
     width="2.9189999"
     height="8.3690004"
     x="31.829681"
     y="-23.950184"
     transform="matrix(0.8660254,0.5,0.5,-0.8660254,0,0)"
     id="rect3" />
  <rect
     style="fill:#0d65d7"
     width="2.9189999"
     height="8.3690004"
     x="31.319683"
     y="-5.5098166"
     transform="rotate(30)"
     id="rect4" />
  <path
     style="opacity:0.1;fill:#000000"
     d="M 15.924438,19 10.151,29 15.924438,39 H 27.471313 L 33.244751,29 27.471313,19 Z m 1.730469,3 h 8.083984 l 4.041016,7 -4.041016,7 H 17.65686 l -4.042969,-7 z"
     id="path4" />
  <path
     style="fill:#7f80a1"
     d="M 15.924438,18 10.151,28 15.924438,38 H 27.471313 L 33.244751,28 27.471313,18 Z m 1.730469,3 h 8.083984 l 4.041016,7 -4.041016,7 H 17.65686 l -4.042969,-7 z"
     id="path5" />
  <rect
     style="fill:#7f80a1"
     width="2.9189999"
     height="8.3690004"
     x="31.329683"
     y="-23.080183"
     transform="matrix(0.8660254,0.5,0.5,-0.8660254,0,0)"
     id="rect5" />
  <path
     style="opacity:0.1;fill:#000000"
     d="m 20.527954,11 -5.773438,10 5.775391,10 H 32.074829 L 37.848266,21 32.076782,11 Z m 1.732422,3 h 8.082031 l 4.042969,7 -4.041016,7 H 22.260376 L 18.21936,21 Z"
     id="path6" />
  <path
     style="fill:#0d65d7"
     d="m 20.527954,10 -5.773438,10 5.775391,10 H 32.074829 L 37.848266,20 32.076782,10 Z m 1.732422,3 h 8.082031 l 4.042969,7 -4.041016,7 H 22.260376 L 18.21936,20 Z"
     id="path7" />
  <path
     id="path1040"
     style="opacity:0.2;fill:#ffffff;stroke-width:8;stroke-linecap:square"
     d="M 13,4 C 8.01401,4 4,8.01401 4,13 v 1 C 4,9.01401 8.01401,5 13,5 h 22 c 4.985992,0 9,4.01401 9,9 V 13 C 44,8.01401 39.985992,4 35,4 Z" />
</svg>
