<?xml version="1.0" encoding="UTF-8" standalone="no"?>
<!-- Created with Inkscape (http://www.inkscape.org/) -->

<svg
   width="48"
   height="48"
   viewBox="0 0 48 48"
   version="1.1"
   id="svg5"
   inkscape:version="1.3.2 (091e20ef0f, 2023-11-25, custom)"
   sodipodi:docname="2048-qt.svg"
   xmlns:inkscape="http://www.inkscape.org/namespaces/inkscape"
   xmlns:sodipodi="http://sodipodi.sourceforge.net/DTD/sodipodi-0.dtd"
   xmlns="http://www.w3.org/2000/svg"
   xmlns:svg="http://www.w3.org/2000/svg">
  <sodipodi:namedview
     id="namedview7"
     pagecolor="#ffffff"
     bordercolor="#000000"
     borderopacity="0.25"
     inkscape:showpageshadow="2"
     inkscape:pageopacity="0.0"
     inkscape:pagecheckerboard="0"
     inkscape:deskcolor="#d1d1d1"
     inkscape:document-units="px"
     showgrid="false"
     inkscape:zoom="16.75"
     inkscape:cx="24.029851"
     inkscape:cy="24"
     inkscape:window-width="1920"
     inkscape:window-height="1019"
     inkscape:window-x="0"
     inkscape:window-y="0"
     inkscape:window-maximized="1"
     inkscape:current-layer="svg5" />
  <defs
     id="defs2" />
  <rect
     style="opacity:0.2;fill:#000000;stroke-width:2.85714;stroke-linecap:square"
     id="rect234"
     width="40"
     height="40"
     x="4"
     y="4.999999"
     ry="9" />
  <rect
     style="fill:#70c74d;fill-opacity:1;stroke-width:2.85714;stroke-linecap:square"
     id="rect396"
     width="40"
     height="40"
     x="4"
     y="4"
     ry="9" />
  <path
     style="opacity:0.2;fill:#000000"
     d="m 36,20.000034 c -1.64501,0 -3,0 -3,3 0,0.7686 0.51702,1.4666 1,2 -0.48298,0.5334 -1,1.2314 -1,2 0,3 1.35499,3 3,3 1.64501,0 3,0 3,-3 0,-0.7686 -0.51702,-1.4666 -1,-2 0.48298,-0.5334 1,-1.2314 1,-2 0,-3 -1.35499,-3 -3,-3 z m 0,2 c 0.56413,0 1,0.4359 1,1 0,0.5641 -0.43587,1 -1,1 -0.56413,0 -1,-0.4359 -1,-1 0,-0.5641 0.43587,-1 1,-1 z m 0,4 c 0.56413,0 1,0.4359 1,1 0,0.5641 -0.43587,1 -1,1 -0.56413,0 -1,-0.4359 -1,-1 0,-0.5641 0.43587,-1 1,-1 z"
     id="path3" />
  <path
     style="fill:#ffffff"
     d="m 36,19.000034 c -1.64501,0 -3,0 -3,3 0,0.7686 0.51702,1.4666 1,2 -0.48298,0.5334 -1,1.2314 -1,2 0,3 1.35499,3 3,3 1.64501,0 3,0 3,-3 0,-0.7686 -0.51702,-1.4666 -1,-2 0.48298,-0.5334 1,-1.2314 1,-2 0,-3 -1.35499,-3 -3,-3 z m 0,2 c 0.56413,0 1,0.4359 1,1 0,0.5641 -0.43587,1 -1,1 -0.56413,0 -1,-0.4359 -1,-1 0,-0.5641 0.43587,-1 1,-1 z m 0,4 c 0.56413,0 1,0.4359 1,1 0,0.5641 -0.43587,1 -1,1 -0.56413,0 -1,-0.4359 -1,-1 0,-0.5641 0.43587,-1 1,-1 z"
     id="path4" />
  <path
     style="opacity:0.2;fill-rule:evenodd;fill:#000000"
     d="m 27,19.999999 v 4 h 2 v -4 h 2 v 4 h 1 v 2 h -1 v 4 h -2 v -4 h -4 v -6 h 2 v 0"
     id="path5" />
  <path
     style="fill:#ffffff;fill-rule:evenodd"
     d="m 27,19.000034 v 4 h 2 v -4 h 2 v 4 h 1 v 2 h -1 v 4 h -2 v -4 h -4 v -6 h 2 v 0"
     id="path6" />
  <path
     style="opacity:0.2;fill-rule:evenodd;fill:#000000"
     d="m 11,20.000034 c 0,0 -0.70875,-0.014 -1.44727,0.3555 C 8.81422,20.724734 8,21.666734 8,23.000034 h 2 c 0,-1 1,-1 1,-1 0,0 1,0 1,1 0,0.5278 -0.1396,0.8229 -0.40625,1.1562 -0.26665,0.3334 -0.69336,0.668 -1.19336,1.043 -0.5,0.375 -1.07329,0.7904 -1.55664,1.3946 C 8.3604,27.197934 8,28.027834 8,29.000034 v 1 h 6 v -2 h -3.64844 c 0.0313,-0.044 0.0187,-0.1112 0.0547,-0.1562 0.26665,-0.3334 0.69336,-0.668 1.19336,-1.043 0.5,-0.375 1.07329,-0.7904 1.55664,-1.3946 0.48335,-0.6041 0.84375,-1.434 0.84375,-2.4062 0,-1.3333 -0.81422,-2.2753 -1.55273,-2.6445 C 11.70875,19.986234 11,20.000034 11,20.000034 Z"
     id="path7" />
  <path
     style="fill:#ffffff;fill-rule:evenodd"
     d="m 11,19.000069 c 0,0 -0.70875,-0.014 -1.44727,0.3555 C 8.81422,19.724769 8,20.666769 8,22.000069 h 2 c 0,-1 1,-1 1,-1 0,0 1,0 1,1 0,0.5278 -0.1396,0.8229 -0.40625,1.1562 -0.26665,0.3334 -0.69336,0.668 -1.19336,1.043 -0.5,0.375 -1.07329,0.7904 -1.55664,1.3946 C 8.3604,26.197969 8,27.027869 8,28.000069 v 1 h 6 v -2 h -3.64844 c 0.0313,-0.044 0.0187,-0.1112 0.0547,-0.1562 0.26665,-0.3334 0.69336,-0.668 1.19336,-1.043 0.5,-0.375 1.07329,-0.7904 1.55664,-1.3946 0.48335,-0.6041 0.84375,-1.434 0.84375,-2.4062 0,-1.3333 -0.81422,-2.2753 -1.55273,-2.6445 C 11.70875,18.986269 11,19.000069 11,19.000069 Z"
     id="path8" />
  <path
     style="opacity:0.2;fill:#000000"
     d="m 19.5,19.999999 c -1.9217,0 -3.5,1.5783 -3.5,3.5 v 3 c 0,1.9217 1.5783,3.5 3.5,3.5 1.9217,0 3.5,-1.5783 3.5,-3.5 v -3 c 0,-1.9217 -1.5783,-3.5 -3.5,-3.5 z m 0,2 c 0.8483,0 1.5,0.6517 1.5,1.5 v 3 c 0,0.8483 -0.6517,1.5 -1.5,1.5 -0.8483,0 -1.5,-0.6517 -1.5,-1.5 v -3 c 0,-0.8483 0.6517,-1.5 1.5,-1.5 z"
     id="path9" />
  <path
     style="fill:#ffffff"
     d="m 19.5,19.000034 c -1.9217,0 -3.5,1.5783 -3.5,3.5 v 3 c 0,1.9217 1.5783,3.5 3.5,3.5 1.9217,0 3.5,-1.5783 3.5,-3.5 v -3 c 0,-1.9217 -1.5783,-3.5 -3.5,-3.5 z m 0,2 c 0.8483,0 1.5,0.6517 1.5,1.5 v 3 c 0,0.8483 -0.6517,1.5 -1.5,1.5 -0.8483,0 -1.5,-0.6517 -1.5,-1.5 v -3 c 0,-0.8483 0.6517,-1.5 1.5,-1.5 z"
     id="path10" />
  <path
     id="path1040"
     style="opacity:0.2;fill:#ffffff;stroke-width:8;stroke-linecap:square"
     d="m 13,4.0000002 c -4.98599,0 -9,4.01401 -9,8.9999998 v 1 C 4,9.0140102 8.01401,5.0000002 13,5.0000002 h 22 c 4.985992,0 9,4.01401 9,8.9999998 V 13 C 44,8.0140104 39.985992,4.0000002 35,4.0000002 Z" />
</svg>
