<?xml version="1.0" encoding="UTF-8" standalone="no"?>
<!-- Created with Inkscape (http://www.inkscape.org/) -->

<svg
   width="48"
   height="48"
   viewBox="0 0 48 48"
   version="1.1"
   id="svg5"
   inkscape:version="1.3 (0e150ed6c4, 2023-07-21)"
   sodipodi:docname="accessories-character-map.svg"
   xmlns:inkscape="http://www.inkscape.org/namespaces/inkscape"
   xmlns:sodipodi="http://sodipodi.sourceforge.net/DTD/sodipodi-0.dtd"
   xmlns="http://www.w3.org/2000/svg"
   xmlns:svg="http://www.w3.org/2000/svg">
  <sodipodi:namedview
     id="namedview7"
     pagecolor="#ffffff"
     bordercolor="#000000"
     borderopacity="0.25"
     inkscape:showpageshadow="2"
     inkscape:pageopacity="0.0"
     inkscape:pagecheckerboard="0"
     inkscape:deskcolor="#d1d1d1"
     inkscape:document-units="px"
     showgrid="false"
     inkscape:zoom="16.3125"
     inkscape:cx="23.969349"
     inkscape:cy="24"
     inkscape:window-width="1920"
     inkscape:window-height="984"
     inkscape:window-x="0"
     inkscape:window-y="29"
     inkscape:window-maximized="1"
     inkscape:current-layer="svg5" />
  <defs
     id="defs2" />
  <rect
     style="opacity:0.2;fill:#000000;stroke-width:2.85714;stroke-linecap:square"
     id="rect234"
     width="40"
     height="40"
     x="4"
     y="5"
     ry="9" />
  <rect
     style="fill:#e4e4e4;fill-opacity:1;stroke-width:2.85714;stroke-linecap:square"
     id="rect396"
     width="40"
     height="40"
     x="4"
     y="4"
     ry="9" />
  <path
     d="m 25.56706,29.07438 c -2.2002,2e-5 -3.7244,0.24474 -4.573,0.73426 -0.8485,0.4895 -1.27274,1.32452 -1.27274,2.50518 0,0.94062 0.31572,1.08886 0.94716,1.64558 0.64128,0.5471 1.5095,0.82064 2.6046,0.82064 1.5095,0 2.718,-0.5183 3.6258,-1.55488 0.91752,-1.0462 1.3763,-1.83276 1.37632,-3.56036 V 29.07452 H 25.567 m 5.432,-1.094 v 9.01742 h -2.723 v -2.86566 c -0.62,0.98 -1.396,1.704 -2.322,2.174 -0.928,0.462 -2.062,0.692 -3.404,0.692 -1.698,0 -3.048,-0.46 -4.056,-1.382 C 17.498,34.68428 17,34.0427 17,32.4887 c 0,-1.81402 0.62156,-3.1818 1.8647,-4.10318 1.253,-0.9214 3.121,-1.2526 5.594,-1.38212 h 3.8182 v -0.25916 c -2e-5,-1.21894 -0.41438,-1.95976 -1.24312,-2.62196 -0.8189,-0.67184 -1.97322,-1.0078 -3.463,-1.0078 -0.94714,2e-5 -1.86962,0.1104 -2.7674,0.33114 -0.89782,0.22076 -1.7611,1.15232 -2.5898,1.59382 v -3.04802 c 0.99648,-0.37432 1.96334,-0.65264 2.9006,-0.83504 0.93728,-0.192 1.8499,-0.28792 2.7378,-0.28794 2.3974,2e-5 4.1882,0.6047 5.372,1.81404 1.18392,1.20938 1.77588,2.84276 1.7759,5.29996 M 21.82588,13 l 4.1734,5.99794 h -2.2642 l -4.824,-5.99734 h 2.9154"
     style="opacity:0.2;fill:#000000;stroke-width:2"
     id="path1" />
  <path
     d="m 25.56706,28.07438 c -2.2002,2e-5 -3.7244,0.24474 -4.573,0.73426 -0.8485,0.4895 -1.27274,1.32452 -1.27274,2.50518 0,0.94062 0.31572,1.08886 0.94716,1.64558 0.64128,0.5471 1.5095,0.82064 2.6046,0.82064 1.5095,0 2.718,-0.5183 3.6258,-1.55488 0.91752,-1.0462 1.3763,-1.83276 1.37632,-3.56036 V 28.07452 H 25.567 m 5.432,-1.094 v 9.01742 h -2.723 v -2.86566 c -0.62,0.98 -1.396,1.704 -2.322,2.174 -0.928,0.462 -2.062,0.692 -3.404,0.692 -1.698,0 -3.048,-0.46 -4.056,-1.382 C 17.498,33.68428 17,33.0427 17,31.4887 c 0,-1.81402 0.62156,-3.1818 1.8647,-4.10318 1.253,-0.9214 3.121,-1.2526 5.594,-1.38212 h 3.8182 v -0.25916 c -2e-5,-1.21894 -0.41438,-1.95976 -1.24312,-2.62196 -0.8189,-0.67184 -1.97322,-1.0078 -3.463,-1.0078 -0.94714,2e-5 -1.86962,0.1104 -2.7674,0.33114 -0.89782,0.22076 -1.7611,1.15232 -2.5898,1.59382 v -3.04802 c 0.99648,-0.37432 1.96334,-0.65264 2.9006,-0.83504 0.93728,-0.192 1.8499,-0.28792 2.7378,-0.28794 2.3974,2e-5 4.1882,0.6047 5.372,1.81404 1.18392,1.20938 1.77588,2.84276 1.7759,5.29996 M 21.82588,12 l 4.1734,5.99794 h -2.2642 l -4.824,-5.99734 h 2.9154"
     style="fill:#3f3f3f;stroke-width:2"
     id="path2" />
  <path
     id="path1040"
     style="opacity:0.2;fill:#ffffff;stroke-width:8;stroke-linecap:square"
     d="M 13,4 C 8.01401,4 4,8.01401 4,13 v 1 C 4,9.01401 8.01401,5 13,5 h 22 c 4.985992,0 9,4.01401 9,9 V 13 C 44,8.01401 39.985992,4 35,4 Z" />
</svg>
