<?xml version="1.0" encoding="UTF-8" standalone="no"?>
<!-- Created with Inkscape (http://www.inkscape.org/) -->

<svg
   width="48"
   height="48"
   viewBox="0 0 48 48"
   version="1.1"
   id="svg5"
   inkscape:version="1.3.2 (091e20ef0f, 2023-11-25, custom)"
   sodipodi:docname="air.svg"
   xmlns:inkscape="http://www.inkscape.org/namespaces/inkscape"
   xmlns:sodipodi="http://sodipodi.sourceforge.net/DTD/sodipodi-0.dtd"
   xmlns="http://www.w3.org/2000/svg"
   xmlns:svg="http://www.w3.org/2000/svg">
  <sodipodi:namedview
     id="namedview7"
     pagecolor="#ffffff"
     bordercolor="#000000"
     borderopacity="0.25"
     inkscape:showpageshadow="2"
     inkscape:pageopacity="0.0"
     inkscape:pagecheckerboard="0"
     inkscape:deskcolor="#d1d1d1"
     inkscape:document-units="px"
     showgrid="false"
     inkscape:zoom="16.5625"
     inkscape:cx="23.969811"
     inkscape:cy="24"
     inkscape:window-width="1920"
     inkscape:window-height="1008"
     inkscape:window-x="0"
     inkscape:window-y="0"
     inkscape:window-maximized="1"
     inkscape:current-layer="svg5" />
  <defs
     id="defs2" />
  <rect
     style="opacity:0.2;fill:#000000;stroke-width:2.85714;stroke-linecap:square"
     id="rect234"
     width="40"
     height="40"
     x="4"
     y="5"
     ry="9" />
  <rect
     style="fill:#c2352a;fill-opacity:1;stroke-width:2.85714;stroke-linecap:square"
     id="rect396"
     width="40"
     height="40"
     x="4"
     y="4"
     ry="9" />
  <path
     d="m 36.81604,30.40228 c -0.0816,-0.1106 -0.21114,-0.26598 -0.35686,-0.4154 -1.51598,-1.5557 -2.64826,-3.39256 -3.25824,-5.4271 -0.028,-0.0946 -0.056,-0.1892 -0.081,-0.284 -0.0262,-0.0954 -0.049,-0.1928 -0.0724,-0.2897 -0.48828,-2.0657 -0.42858,-4.22368 0.1088,-6.32794 0,0 0.082,-0.34742 0.1032,-0.49056 0.4517,-2.65884 -1.18514,-5.27252 -3.84082,-5.98452 -2.70768,-0.72542 -5.4828,0.79286 -6.36822,3.41168 -0.0366,0.0978 -0.1112,0.34458 -0.112,0.34828 -0.582,2.06284 -1.59312,3.93568 -3.02168,5.46882 -1.62284,1.7034 -3.68596,2.91454 -5.99908,3.53424 -2.81768,0.75484 -4.49166,3.65624 -3.73654,6.47508 0.75628,2.81824 3.65312,4.49222 6.4728,3.73624 2.10396,-0.53714 4.26194,-0.598 6.3285,-0.11 0.0962,0.024 0.1932,0.0478 0.28914,0.0738 0.0964,0.0258 0.1916,0.0538 0.28714,0.0808 2.0337,0.61054 3.87252,1.74196 5.42594,3.2588 0.1908,0.1912 0.3557,0.32572 0.5097,0.43458 2.08826,1.59142 5.05966,1.4694 6.96366,-0.43458 1.93254,-1.9314 2.04454,-4.98308 0.35828,-7.05848 z M 24.0119,31.35742 c -2.75856,-0.73914 -4.39626,-3.57568 -3.65712,-6.33422 0.73972,-2.75882 3.57568,-4.39652 6.33422,-3.65738 2.75968,0.7397 4.39682,3.57538 3.6574,6.33422 -0.73942,2.75882 -3.57482,4.3968 -6.3345,3.65738 z"
     style="display:inline;opacity:0.2;fill:#000000;fill-opacity:1;stroke-width:1;enable-background:new"
     id="path1" />
  <path
     d="m 36.816046,29.400278 c -0.0816,-0.1106 -0.21114,-0.26598 -0.35686,-0.4154 -1.51598,-1.5557 -2.64826,-3.39256 -3.25824,-5.4271 -0.028,-0.0946 -0.056,-0.1892 -0.081,-0.284 -0.0262,-0.0954 -0.049,-0.1928 -0.0724,-0.2897 -0.48828,-2.0657 -0.42858,-4.22368 0.1088,-6.32794 0,0 0.082,-0.34742 0.1032,-0.49056 0.4517,-2.65884 -1.18514,-5.272519 -3.84082,-5.984519 -2.70768,-0.7254202 -5.4828,0.79286 -6.36822,3.411679 -0.0366,0.0978 -0.1112,0.34458 -0.112,0.34828 -0.582,2.06284 -1.59312,3.93568 -3.02168,5.46882 -1.62284,1.7034 -3.68596,2.91454 -5.99908,3.53424 -2.81768,0.75484 -4.4916596,3.65624 -3.73654,6.47508 0.75628,2.81824 3.65312,4.49222 6.4728,3.73624 2.10396,-0.53714 4.26194,-0.598 6.3285,-0.11 0.0962,0.024 0.1932,0.0478 0.28914,0.0738 0.0964,0.0258 0.1916,0.0538 0.28714,0.0808 2.0337,0.61054 3.87252,1.74196 5.42594,3.2588 0.1908,0.1912 0.3557,0.32572 0.5097,0.43458 2.08826,1.59142 5.05966,1.4694 6.96366,-0.43458 1.93254,-1.9314 2.04454,-4.98308 0.35828,-7.05848 z m -12.80414,0.95514 c -2.75856,-0.73914 -4.39626,-3.57568 -3.65712,-6.33422 0.73972,-2.75882 3.57568,-4.39652 6.33422,-3.65738 2.75968,0.7397 4.39682,3.57538 3.6574,6.33422 -0.73942,2.75882 -3.57482,4.3968 -6.3345,3.65738 z"
     style="display:inline;opacity:1;fill:#ffffff;fill-opacity:1;stroke-width:1;enable-background:new"
     id="path2" />
  <path
     id="path1040"
     style="opacity:0.2;fill:#ffffff;stroke-width:8;stroke-linecap:square"
     d="m 13,4.000002 c -4.9859894,0 -8.9999996,4.0140098 -8.9999996,9 v 1 c 0,-4.9859902 4.01401,-9 8.9999996,-9 h 22 c 4.985992,0 9,4.0140098 9,9 v -1 c 0,-4.9859902 -4.014008,-9 -9,-9 z" />
</svg>
