<?xml version="1.0" encoding="UTF-8" standalone="no"?>
<!-- Created with Inkscape (http://www.inkscape.org/) -->

<svg
   width="48"
   height="48"
   viewBox="0 0 48 48"
   version="1.1"
   id="svg5"
   inkscape:version="1.3 (0e150ed6c4, 2023-07-21)"
   sodipodi:docname="applications-multimedia.svg"
   xmlns:inkscape="http://www.inkscape.org/namespaces/inkscape"
   xmlns:sodipodi="http://sodipodi.sourceforge.net/DTD/sodipodi-0.dtd"
   xmlns="http://www.w3.org/2000/svg"
   xmlns:svg="http://www.w3.org/2000/svg">
  <sodipodi:namedview
     id="namedview7"
     pagecolor="#ffffff"
     bordercolor="#000000"
     borderopacity="0.25"
     inkscape:showpageshadow="2"
     inkscape:pageopacity="0.0"
     inkscape:pagecheckerboard="0"
     inkscape:deskcolor="#d1d1d1"
     inkscape:document-units="px"
     showgrid="false"
     inkscape:zoom="16.75"
     inkscape:cx="24"
     inkscape:cy="24"
     inkscape:window-width="1920"
     inkscape:window-height="1008"
     inkscape:window-x="0"
     inkscape:window-y="0"
     inkscape:window-maximized="1"
     inkscape:current-layer="svg5" />
  <defs
     id="defs2" />
  <rect
     style="opacity:0.2;fill:#000000;stroke-width:2.85714;stroke-linecap:square"
     id="rect234"
     width="40"
     height="40"
     x="4"
     y="4.999999"
     ry="9" />
  <rect
     style="fill:#863ea7;fill-opacity:1;stroke-width:2.85714;stroke-linecap:square"
     id="rect396"
     width="40"
     height="40"
     x="4"
     y="4"
     ry="9" />
  <path
     style="opacity:0.2;stroke-width:3;fill:#000000"
     d="M 16.690944,13.000453 A 1.6524616,1.6708306 0 0 0 15,14.66991 v 10.331958 10.326916 a 1.6524616,1.6708306 0 0 0 2.478404,1.447536 l 8.84721,-5.16472 8.847208,-5.16472 a 1.6524616,1.6708306 0 0 0 0,-2.895068 l -8.847208,-5.164718 -8.84721,-5.162197 a 1.6524616,1.6708306 0 0 0 -0.78746,-0.224444 z"
     id="path1" />
  <path
     style="fill:#ffffff;stroke-width:2.99998"
     d="M 16.690944,12.000453 A 1.6524616,1.6708306 0 0 0 15,13.66991 v 10.331958 10.326916 a 1.6524616,1.6708306 0 0 0 2.478404,1.447536 l 8.84721,-5.164718 8.847208,-5.164722 a 1.6524616,1.6708306 0 0 0 0,-2.895068 l -8.847208,-5.164718 -8.84721,-5.162197 a 1.6524616,1.6708306 0 0 0 -0.78746,-0.224444 z"
     id="path10" />
  <path
     id="path1040"
     style="opacity:0.1;fill:#ffffff;stroke-width:8;stroke-linecap:square"
     d="m 13,4.0000002 c -4.98599,0 -9,4.01401 -9,8.9999998 v 1 C 4,9.0140102 8.01401,5.0000002 13,5.0000002 h 22 c 4.985992,0 9,4.01401 9,8.9999998 V 13 C 44,8.0140104 39.985992,4.0000002 35,4.0000002 Z" />
</svg>
