<?xml version="1.0" encoding="UTF-8" standalone="no"?>
<!-- Created with Inkscape (http://www.inkscape.org/) -->

<svg
   width="48"
   height="48"
   viewBox="0 0 48 48"
   version="1.1"
   id="svg5"
   inkscape:version="1.3 (0e150ed6c4, 2023-07-21)"
   sodipodi:docname="applications-utilities.svg"
   xmlns:inkscape="http://www.inkscape.org/namespaces/inkscape"
   xmlns:sodipodi="http://sodipodi.sourceforge.net/DTD/sodipodi-0.dtd"
   xmlns="http://www.w3.org/2000/svg"
   xmlns:svg="http://www.w3.org/2000/svg">
  <sodipodi:namedview
     id="namedview7"
     pagecolor="#ffffff"
     bordercolor="#000000"
     borderopacity="0.25"
     inkscape:showpageshadow="2"
     inkscape:pageopacity="0.0"
     inkscape:pagecheckerboard="0"
     inkscape:deskcolor="#d1d1d1"
     inkscape:document-units="px"
     showgrid="false"
     inkscape:zoom="16.3125"
     inkscape:cx="24"
     inkscape:cy="24"
     inkscape:window-width="1920"
     inkscape:window-height="984"
     inkscape:window-x="0"
     inkscape:window-y="29"
     inkscape:window-maximized="1"
     inkscape:current-layer="svg5" />
  <defs
     id="defs2" />
  <rect
     style="opacity:0.2;fill:#000000;stroke-width:2.85714;stroke-linecap:square"
     id="rect234"
     width="40"
     height="40"
     x="4"
     y="5"
     ry="9" />
  <rect
     style="fill:#b7b7b7;fill-opacity:1;stroke-width:2.85714;stroke-linecap:square"
     id="rect396"
     width="40"
     height="40"
     x="4"
     y="4"
     ry="9" />
  <path
     d="m 15,11 c -2.769998,0 -5,2.230003 -5,5 v 18 c 0,2.769998 2.230002,5 5,5 2.769998,0 5,-2.230002 5,-5 V 16 c 0,-2.769997 -2.230002,-5 -5,-5 z m 4.90625,0 C 21.199068,12.268691 22,14.03717 22,16 v 3 h 4 c -0.148,-2.185996 2.498004,-4 4,-4 1.359996,0 2,0.022 2,2 v 2 h 2.4375 C 36.893496,17.800002 38,15.060997 38,13.625 38,12.153003 33.228996,11 30.625,11 Z M 22,21 v 8.625 c 5.531988,5.321968 12.25,4.8125 12.25,4.8125 0,0 0.705492,-3.040532 -3.8125,-8.0625 L 26,21 Z m 5.949218,5.0625 3.367188,3.476562 c -3.597992,0.33 -4.301184,-1.714566 -3.367188,-3.476562 z"
     style="opacity:0.2;fill:#000000;stroke-width:4;stroke-linecap:round;stroke-linejoin:round"
     id="path1" />
  <path
     d="m 15,10 c -2.769998,0 -5,2.230003 -5,5 v 18 c 0,2.769998 2.230002,5 5,5 2.769998,0 5,-2.230002 5,-5 V 15 c 0,-2.769997 -2.230002,-5 -5,-5 z m 4.90625,0 C 21.199068,11.268691 22,13.03717 22,15 v 3 h 4 c -0.148,-2.185996 2.498004,-4 4,-4 1.359996,0 2,0.022 2,2 v 2 h 2.4375 C 36.893496,16.800002 38,14.060997 38,12.625 38,11.153003 33.228996,10 30.625,10 Z M 22,20 v 8.625 c 5.531988,5.321968 12.25,4.8125 12.25,4.8125 0,0 0.705492,-3.040532 -3.8125,-8.0625 L 26,20 Z m 5.949218,5.0625 3.367188,3.476562 c -3.597992,0.33 -4.301184,-1.714566 -3.367188,-3.476562 z"
     style="fill:#ffffff;stroke-width:4;stroke-linecap:round;stroke-linejoin:round"
     id="path2" />
  <path
     id="path1040"
     style="opacity:0.2;fill:#ffffff;stroke-width:8;stroke-linecap:square"
     d="M 13,4 C 8.01401,4 4,8.01401 4,13 v 1 C 4,9.01401 8.01401,5 13,5 h 22 c 4.985992,0 9,4.01401 9,9 V 13 C 44,8.01401 39.985992,4 35,4 Z" />
</svg>
