<?xml version="1.0" encoding="UTF-8" standalone="no"?>
<!-- Created with Inkscape (http://www.inkscape.org/) -->

<svg
   width="48"
   height="48"
   viewBox="0 0 48 48"
   version="1.1"
   id="svg5"
   inkscape:version="1.3 (0e150ed6c4, 2023-07-21)"
   sodipodi:docname="BadlionClient.svg"
   xmlns:inkscape="http://www.inkscape.org/namespaces/inkscape"
   xmlns:sodipodi="http://sodipodi.sourceforge.net/DTD/sodipodi-0.dtd"
   xmlns="http://www.w3.org/2000/svg"
   xmlns:svg="http://www.w3.org/2000/svg">
  <sodipodi:namedview
     id="namedview7"
     pagecolor="#ffffff"
     bordercolor="#000000"
     borderopacity="0.25"
     inkscape:showpageshadow="2"
     inkscape:pageopacity="0.0"
     inkscape:pagecheckerboard="0"
     inkscape:deskcolor="#d1d1d1"
     inkscape:document-units="px"
     showgrid="false"
     inkscape:zoom="16.729167"
     inkscape:cx="24"
     inkscape:cy="24"
     inkscape:window-width="1850"
     inkscape:window-height="1011"
     inkscape:window-x="70"
     inkscape:window-y="32"
     inkscape:window-maximized="1"
     inkscape:current-layer="svg5" />
  <defs
     id="defs2" />
  <rect
     style="opacity:0.2;fill:#000000;stroke-width:2.85714;stroke-linecap:square"
     id="rect234"
     width="40"
     height="40"
     x="4"
     y="5"
     ry="9" />
  <rect
     style="fill:#10a5f1;fill-opacity:1;stroke-width:2.85714;stroke-linecap:square"
     id="rect396"
     width="40"
     height="40"
     x="4"
     y="4"
     ry="9" />
  <path
     style="opacity:0.1;fill:#000000;stroke-width:2"
     d="m 24.949482,39.000008 c -0.261504,-0.754974 -0.600898,-2.011932 -0.759302,-0.528488 -0.1325,0.888978 -0.381404,-1.378294 -0.604318,-0.0019 -0.13702,0.2434 -0.08392,-1.7383 -0.50899,-0.624552 -0.10802,1.461972 -1.141522,0.53993 -1.44447,-0.07368 -0.28397,1.038462 -0.07244,-0.700976 -0.494176,0.22492 -0.912244,1.56993 -0.227482,-2.298792 -1.220808,-0.608162 -0.616256,0.985346 -0.282396,-0.440418 -0.858602,-0.378736 -0.759676,0.643296 -0.638862,-0.981628 -1.59903,-0.627552 -0.369,-0.554684 -0.608382,-1.818064 -1.430954,-1.353908 0.267354,-1.005814 -0.900418,-1.801882 -1.477215,-2.281846 -0.654248,0.303794 -1.033572,0.247024 -0.621117,-0.5165 0.336284,-0.747894 -0.227238,-1.238398 -0.261546,-2.001034 -0.939878,3.24e-4 0.318872,-1.409446 -0.90658,-1.128622 -0.12356,-0.469224 1.092261,-1.26726 -0.171802,-1.273872 -0.483168,-0.318598 1.092828,-1.056206 -0.106208,-0.8055 0.709847,-0.37046 -1.010107,-0.993402 -0.315621,-1.472528 1.253616,-0.315938 -0.161394,-0.801372 0.08701,-0.861 0.751796,-0.237758 -0.556679,-0.552006 0.296579,-0.695198 -0.248991,-0.629036 -0.757388,-0.814888 -0.244764,-1.565968 -0.12457,-0.7492 -0.55058,-1.637728 0.08066,-2.263876 -0.343042,-0.59131 -0.573826,-0.758228 0.117906,-1.115218 0.02508,-1.10025 0.567829,-2.254762 0.58457,-3.30369 0.92539,-0.669472 1.173537,-2.146098 2.412683,-2.354236 0.876399,-0.744054 2.377569,-0.6463 3.330345,-1.180662 0.372994,0.361277 1.143832,-0.258339 1.372334,-0.204913 0.55295,0.762563 1.890304,-0.596685 2.45677,0.57746 0.552504,0.593412 0.72317,-1.066408 1.102856,-0.02145 0.45172,0.717273 1.094716,-0.927212 1.614904,0.0061 1.32394,-0.09624 2.657336,-0.219973 3.96507,-0.432628 0.225706,0.960365 1.453378,-0.816584 1.18194,0.51642 1.049732,0.434736 2.408586,0.361448 3.023352,1.482969 0.499038,0.654411 1.616566,1.45531 1.217396,2.110728 0.786168,0.18052 0.56212,0.612218 0.475318,1.076972 -0.18016,0.722096 0.69052,1.341194 0.24501,2.023902 0.83885,0.679988 -0.515954,1.35497 0.404672,2.066952 0.4804,0.451046 -0.851644,0.407212 -0.275802,1.180002 0.588402,0.721928 -0.256928,0.773702 -0.268284,1.44854 1.037024,0.0233 -0.695246,0.50332 0.430366,0.749786 -1.139256,7.42e-4 -0.08894,0.725078 0.0166,1.03104 -0.16362,0.600648 -0.779496,0.975454 -0.447174,1.24634 -1.301312,-0.436738 0.955098,0.894912 -0.49152,0.89986 -0.717612,0.12216 1.119064,1.398266 -0.237998,1.177962 -0.503242,0.258754 0.584802,1.146124 -0.447236,1.088756 -0.093,0.600394 -0.19416,1.14771 -0.607276,1.487414 0.1342,0.647032 0.697856,1.915478 -0.503592,1.24182 -0.526642,-0.203074 -1.309968,0.666994 -1.354626,1.190114 0.16802,0.622684 0.255252,1.216788 -0.52749,0.663016 -0.924498,0.13952 -0.422602,1.794692 -1.657352,1.402072 -0.284274,0.704336 -0.538606,0.71096 -1.147858,0.55774 -0.0244,0.82813 -0.14736,1.73137 -0.83407,0.683906 -0.619014,-0.948478 -0.336698,1.488516 -0.954632,0.309836 -0.640958,-1.205186 -0.0122,1.499534 -0.5683,0.20778 C 25.82137,38.559746 25.449572,38.888478 24.949588,39 Z"
     id="path3" />
  <path
     style="fill:#2c2c2c;stroke-width:2"
     d="m 24.949482,38.000012 c -0.261504,-0.754972 -0.600898,-2.01193 -0.759302,-0.528488 -0.1325,0.88898 -0.381404,-1.378294 -0.604318,-0.0019 -0.13702,0.2434 -0.08392,-1.738298 -0.50899,-0.62455 -0.10802,1.461972 -1.141522,0.539928 -1.44447,-0.07368 -0.28397,1.03846 -0.07244,-0.700978 -0.494176,0.22492 -0.912244,1.569928 -0.227482,-2.298794 -1.220808,-0.608162 -0.616256,0.985344 -0.282396,-0.440418 -0.858602,-0.378736 -0.759676,0.643296 -0.638862,-0.98163 -1.59903,-0.627554 -0.369,-0.554682 -0.608382,-1.818064 -1.430954,-1.353906 0.267354,-1.005814 -0.900418,-1.801882 -1.477215,-2.281848 -0.654248,0.303794 -1.033572,0.247024 -0.621117,-0.516498 0.336284,-0.747896 -0.227238,-1.2384 -0.261546,-2.001034 -0.939878,3.22e-4 0.318872,-1.409448 -0.90658,-1.128622 -0.123561,-0.469226 1.092261,-1.26726 -0.171801,-1.273874 -0.483168,-0.318598 1.092828,-1.056204 -0.106209,-0.8055 0.709847,-0.37046 -1.010107,-0.993402 -0.315621,-1.472526 1.253616,-0.315938 -0.161395,-0.801372 0.08701,-0.861002 0.751796,-0.237756 -0.556679,-0.552006 0.296579,-0.695196 -0.248991,-0.629036 -0.757388,-0.814888 -0.244764,-1.565968 -0.124569,-0.749202 -0.55058,-1.637728 0.08066,-2.263876 -0.343042,-0.591312 -0.573826,-0.75823 0.117906,-1.115218 0.02508,-1.100252 0.567829,-2.254762 0.58457,-3.303691 0.92539,-0.669472 1.173537,-2.146098 2.412683,-2.354236 0.876399,-0.744054 2.377569,-0.6463 3.330345,-1.180662 0.372994,0.361277 1.143832,-0.258338 1.372334,-0.204912 0.55295,0.762562 1.890304,-0.596685 2.45677,0.577459 0.552504,0.593412 0.72317,-1.066407 1.102856,-0.02145 0.45172,0.717273 1.094716,-0.927211 1.614904,0.0061 1.32394,-0.09624 2.657336,-0.219973 3.96507,-0.432628 0.225706,0.960365 1.453378,-0.816583 1.18194,0.51642 1.049732,0.434736 2.408586,0.361448 3.023352,1.482969 0.499038,0.654411 1.616566,1.455309 1.217396,2.110729 0.786168,0.18052 0.56212,0.612218 0.475318,1.07697 -0.18016,0.722096 0.69052,1.341196 0.24501,2.023904 0.83885,0.679988 -0.515954,1.354968 0.404672,2.066952 0.4804,0.451044 -0.851644,0.407212 -0.275802,1.180002 0.588402,0.721926 -0.256928,0.7737 -0.268284,1.448538 1.037024,0.0233 -0.695246,0.50332 0.430366,0.749786 -1.139256,7.44e-4 -0.08894,0.72508 0.0166,1.03104 -0.16362,0.600648 -0.779496,0.975456 -0.447174,1.24634 -1.301312,-0.436736 0.955098,0.894912 -0.49152,0.89986 -0.717612,0.12216 1.119064,1.398266 -0.237998,1.177964 -0.503242,0.258754 0.584802,1.146122 -0.447236,1.088756 -0.093,0.600392 -0.19416,1.14771 -0.607276,1.487414 0.1342,0.64703 0.697856,1.915476 -0.503592,1.24182 -0.526642,-0.203074 -1.309968,0.666994 -1.354626,1.190114 0.16802,0.622684 0.255252,1.216788 -0.52749,0.663014 -0.924498,0.13952 -0.422602,1.794692 -1.657352,1.402072 -0.284274,0.704338 -0.538606,0.71096 -1.147858,0.55774 -0.0244,0.828132 -0.14736,1.73137 -0.83407,0.683908 -0.619014,-0.94848 -0.336698,1.488516 -0.954632,0.309836 -0.640958,-1.205186 -0.0122,1.499534 -0.5683,0.20778 -0.19574,0.583048 -0.567538,0.911782 -1.067522,1.023302 z"
     id="path4" />
  <path
     style="opacity:0.2;fill:#000000;stroke-width:2"
     d="m 23.725162,17.002042 c -0.08412,0.0134 -0.17282,0.09544 -0.275702,0.308002 -0.769536,-1.12518 -1.053376,1.575782 -1.463056,0.1382 -0.369786,-0.978906 -0.1236,1.291018 -0.714988,0.252718 -0.608112,-0.929896 -1.046218,-0.492432 -1.5329,0.22113 -1.052152,0.3517 -2.156938,0.937872 -2.663278,2.100724 l -0.661686,0.815414 c -1.164778,0.604984 1.5299,1.918918 -0.30511,1.848006 0.67811,0.306604 0.992828,0.577888 0.11396,0.961516 -0.39543,0.655748 0.228262,1.335198 -0.222398,2.02175 0.252496,0.637102 1.477784,0.772164 0.244454,1.1708 -0.56632,0.287148 1.207432,0.03782 0.391498,0.617976 -1.407017,1.117842 0.698234,1.566308 0.92452,2.746342 1.12569,0.97674 2.471814,1.636254 3.712782,2.434394 0.553002,-0.681918 0.392338,-0.13818 0.705796,0.420538 0.373956,-0.554678 0.423112,-0.711594 0.652496,0.13624 0.235888,1.0714 1.197074,-0.79042 1.202058,0.64167 0.02638,0.424762 0.13612,-0.10756 0.23159,-0.19152 0.22735,-0.368228 0.816928,0.759876 0.871216,-0.302078 0.20383,-0.564342 0.498232,-1.652112 0.705796,-0.438308 0.457482,1.087374 0.09606,-1.248548 0.678226,-0.01 0.96592,-0.346848 1.944358,-1.1653 2.913248,-1.69598 0.433628,-0.289394 0.981124,-0.460432 1.11935,-1.052338 0.409802,-1.019722 2.204362,-1.637222 0.884084,-2.716726 -0.65381,-0.619924 1.380502,-0.273862 0.18196,-0.716696 -1.251864,-0.36179 1.357878,-0.71594 0.226076,-1.514338 0.489086,-0.237758 0.469184,-0.489856 -0.0386,-0.663386 1.208286,-0.880368 -1.588144,-1.293702 0.011,-1.703878 0.645228,-0.355864 -1.371856,-0.05054 -0.220562,-0.827258 0.415494,-0.311268 0.523714,-0.881684 0.235266,-0.746312 l -0.542214,-0.677208 c -0.019,-0.08872 -0.08086,-0.17568 -0.207696,-0.25864 -0.813936,-0.98472 -1.56942,-2.06341 -2.841566,-2.298162 -0.626396,-0.545598 -1.022058,-1.401884 -1.705674,-0.34354 -0.693462,0.999606 -0.37016,-1.421254 -0.782994,-0.10662 -0.301794,1.178836 -0.481944,-0.63394 -0.937384,-0.568618 -0.426714,0.527372 -0.637274,-0.04402 -0.889596,-0.004 z"
     id="path5" />
  <path
     style="fill:#ffae15;stroke-width:2"
     d="m 23.725162,16.002048 c -0.08412,0.0134 -0.17282,0.09544 -0.275702,0.308 -0.769536,-1.125178 -1.053376,1.575784 -1.463056,0.1382 -0.369786,-0.978904 -0.1236,1.29102 -0.714988,0.252718 -0.608112,-0.929894 -1.046218,-0.492432 -1.5329,0.22113 -1.052152,0.351702 -2.156938,0.937874 -2.663278,2.100726 l -0.661686,0.815412 c -1.164778,0.604986 1.5299,1.91892 -0.30511,1.848008 0.67811,0.306604 0.992828,0.577888 0.11396,0.961516 -0.39543,0.655748 0.228262,1.335198 -0.222398,2.02175 0.252496,0.637102 1.477784,0.772164 0.244454,1.170798 -0.56632,0.287148 1.207432,0.03782 0.391498,0.617976 -1.407017,1.117844 0.698234,1.566308 0.92452,2.746344 1.12569,0.97674 2.471814,1.636254 3.712782,2.434392 0.553002,-0.681916 0.392338,-0.13818 0.705796,0.42054 0.373956,-0.554678 0.423112,-0.711594 0.652496,0.13624 0.235888,1.071398 1.197074,-0.79042 1.202058,0.641668 0.02638,0.424764 0.13612,-0.10756 0.23159,-0.19152 0.22735,-0.368228 0.816928,0.759876 0.871216,-0.302078 0.20383,-0.564342 0.498232,-1.65211 0.705796,-0.438308 0.457482,1.087374 0.09606,-1.248546 0.678226,-0.01 0.96592,-0.346848 1.944358,-1.1653 2.913248,-1.69598 0.433628,-0.289392 0.981124,-0.46043 1.11935,-1.052336 0.409802,-1.019724 2.204362,-1.637222 0.884084,-2.716728 -0.65381,-0.619924 1.380502,-0.273862 0.18196,-0.716694 -1.251864,-0.36179 1.357878,-0.715942 0.226076,-1.514338 0.489086,-0.237758 0.469184,-0.489856 -0.0386,-0.663386 1.208286,-0.88037 -1.588144,-1.293704 0.011,-1.703878 0.645228,-0.355864 -1.371856,-0.05054 -0.220562,-0.82726 0.415494,-0.311268 0.523714,-0.881684 0.235266,-0.74631 l -0.54221,-0.677208 c -0.019,-0.08872 -0.08086,-0.17568 -0.207696,-0.258642 -0.813918,-0.98462 -1.569402,-2.06331 -2.841548,-2.298064 -0.626396,-0.545598 -1.022058,-1.401882 -1.705674,-0.34354 -0.693462,0.999608 -0.37016,-1.421252 -0.782994,-0.10662 -0.301794,1.178838 -0.481944,-0.633938 -0.937384,-0.568616 -0.426714,0.52737 -0.637274,-0.04402 -0.889596,-0.004 z"
     id="path6" />
  <path
     style="opacity:0.2;fill:#ffffff;stroke-width:2"
     d="m 23.72461,16.001968 c -0.0841,0.0134 -0.17252,0.09602 -0.27539,0.308592 -0.769536,-1.125178 -1.053212,1.574298 -1.462892,0.13672 -0.369784,-0.978904 -0.12344,1.292206 -0.714844,0.253906 -0.608112,-0.929892 -1.04652,-0.492858 -1.533202,0.220704 -1.052152,0.351702 -2.155768,0.938712 -2.66211,2.101564 l -0.66211,0.814454 c -0.504204,0.261884 -0.283194,0.65398 -0.02148,1.011718 0.0074,-0.0042 0.0138,-0.0076 0.02148,-0.0118 l 0.66211,-0.814454 c 0.506342,-1.162772 1.609958,-1.749782 2.66211,-2.101484 0.486682,-0.713562 0.92509,-1.150598 1.533202,-0.220702 0.591398,1.0383 0.34506,-1.232812 0.714844,-0.253906 0.40968,1.437576 0.693356,-1.261898 1.462892,-0.13672 0.10288,-0.212572 0.19128,-0.295244 0.27539,-0.308594 0.252322,-0.04012 0.46391,0.531276 0.890624,0.004 0.45544,-0.06532 0.635704,1.747196 0.9375,0.56836 0.412834,-1.314638 0.08974,1.10703 0.783204,0.10742 0.683614,-1.058342 1.07868,-0.201848 1.705078,0.34375 1.272144,0.234754 2.02786,1.312158 2.841796,2.296876 0.12684,0.08296 0.18804,0.17104 0.207032,0.259766 l 0.326172,0.40625 c 0.397928,-0.314396 0.50028,-0.863512 0.216796,-0.73047 l -0.542968,-0.67578 c -0.019,-0.08872 -0.0802,-0.1768 -0.207032,-0.259766 -0.813936,-0.984816 -1.569652,-2.06222 -2.841796,-2.296972 -0.626398,-0.545598 -1.021464,-1.402092 -1.705078,-0.343752 -0.693462,0.99961 -0.37037,-1.422058 -0.783204,-0.10742 -0.301796,1.178838 -0.48206,-0.63368 -0.9375,-0.568358 -0.426714,0.52737 -0.638302,-0.04402 -0.890624,-0.0038 z m 7.968748,5.660156 c -0.0351,0.06274 -0.07774,0.1266 -0.13086,0.1875 0.02028,-0.0056 0.03276,-0.012 0.0547,-0.0176 0.1613,-0.08898 0.15654,-0.13636 0.07616,-0.16992 z m -15.417966,0.02148 c -0.054,8.7e-4 -0.10102,0.0046 -0.16602,0.002 0.0945,0.04272 0.17772,0.08716 0.255858,0.1289 -0.03128,-0.04364 -0.0617,-0.0866 -0.08984,-0.13086 z m 14.865232,0.527344 c -0.333378,0.34208 0.237484,0.365496 0.490234,0.435546 -0.19174,-0.1629 -0.413416,-0.306332 -0.490234,-0.435546 z m -14.421874,0.11134 c -0.06878,0.10092 -0.226146,0.20834 -0.496094,0.326172 -0.0074,0.0122 -0.011,0.0249 -0.0176,0.0371 0.560326,0.0052 0.62785,-0.1417 0.513672,-0.36328 z m -0.533202,0.40039 c -0.17262,0.35269 -0.08062,0.710812 -0.03516,1.07422 0.0192,-0.0498 0.0424,-0.0989 0.07226,-0.14844 0.84323,-0.36807 0.583914,-0.634126 -0.0371,-0.925782 z m 15.55078,0.0156 c -0.0146,0.02534 -0.04878,0.05494 -0.11914,0.09374 -1.249354,0.32045 0.18414,0.643956 0.29492,1.189454 0.18064,-0.18028 0.07806,-0.35358 -0.304686,-0.484376 0.440296,-0.320804 0.345682,-0.579608 0.1289,-0.798828 z m 0.07812,1.60547 c -0.04926,0.06178 -0.11508,0.12636 -0.207032,0.19336 0.14544,0.0497 0.24565,0.1056 0.310548,0.16602 0.03978,-0.10828 0.0194,-0.227512 -0.10352,-0.359374 z m -15.708984,0.11132 c -0.026,0.07126 -0.05856,0.1434 -0.105468,0.214844 0.0371,0.09362 0.09584,0.17562 0.164062,0.249998 -0.0126,-0.15588 -0.0387,-0.31054 -0.0586,-0.464842 z m 15.68164,1.43164 c -0.03182,0.03168 -0.0657,0.06198 -0.10352,0.0918 0.0927,-0.0198 0.14904,-0.04636 0.10352,-0.0918 z m -15.636718,0.0176 c -0.03772,0.0406 0.0046,0.0638 0.08008,0.08204 -0.02764,-0.02614 -0.05492,-0.0536 -0.08008,-0.08204 z m 15.01367,0.443358 c -0.1485,0.1317 -0.15154,0.249446 0.25586,0.367188 0.07004,0.02588 0.09538,0.0397 0.14454,0.06054 -0.076,-0.11012 -0.18086,-0.225292 -0.328126,-0.345702 -0.03228,-0.0306 -0.05238,-0.05592 -0.07226,-0.08202 z m -14.441404,0.04102 c -0.02624,0.02236 -0.05018,0.04488 -0.08594,0.0703 -0.16578,0.13172 -0.280342,0.253722 -0.357422,0.369142 0.523318,-0.17418 0.572592,-0.298932 0.443358,-0.439454 z m -0.52539,0.591798 c -0.10198,0.261364 0.0019,0.488304 0.18946,0.71289 0.06752,-0.0753 0.14686,-0.15244 0.25,-0.234376 0.60142,-0.427636 -0.201096,-0.405194 -0.439454,-0.478514 z m 15.47656,0 c -0.266124,0.05488 -0.827652,0.0793 -0.4375,0.449218 0.11994,0.09806 0.207396,0.19212 0.279298,0.283204 0.16566,-0.233052 0.250928,-0.47086 0.1582,-0.732422 z"
     id="path7" />
  <path
     style="fill:#2c2c2c;stroke-width:2"
     d="M 15.017579,17.332042 14.28711,18.015638 18,21.9922 v 1.507812 l 4,-1 v -0.5 h 4 v 0.5 l 4,1 V 21.9922 L 33.71289,18.015638 32.982422,17.332042 30,20.527356 v -1.027344 l -4,1 v 0.5 h -4 v -0.5 l -4,-1 v 1.027344 z"
     id="path8" />
  <path
     style="fill:#2c2c2c;stroke-width:2"
     d="m 21,25.000014 c 0,0 1.801202,1.170528 2.722656,1.753906 v 1.902344 c -0.339694,0.621304 -1.832232,0.435766 -2.125,1.05078 0.738482,-0.06546 1.44938,-0.333078 2.16797,-0.511718 0.804594,-0.0036 1.603074,0.425084 2.42578,0.464844 0.306724,-0.381968 -1.58103,-0.542116 -2.123046,-0.867188 0.0158,-0.677436 0.05078,-2.033202 0.05078,-2.033202 L 27,25.000014 Z m -0.25,1.5 a 0.24999998,0.24999998 0 0 0 -0.25,0.25 0.24999998,0.24999998 0 0 0 0.25,0.25 0.24999998,0.24999998 0 0 0 0.25,-0.25 0.24999998,0.24999998 0 0 0 -0.25,-0.25 z m 1,0 a 0.24999998,0.24999998 0 0 0 -0.25,0.25 0.24999998,0.24999998 0 0 0 0.25,0.25 0.24999998,0.24999998 0 0 0 0.25,-0.25 0.24999998,0.24999998 0 0 0 -0.25,-0.25 z m 1,0 a 0.24999998,0.24999998 0 0 0 -0.25,0.25 0.24999998,0.24999998 0 0 0 0.25,0.25 0.24999998,0.24999998 0 0 0 0.25,-0.25 0.24999998,0.24999998 0 0 0 -0.25,-0.25 z m 2.5,0 a 0.24999998,0.24999998 0 0 0 -0.25,0.25 0.24999998,0.24999998 0 0 0 0.25,0.25 0.24999998,0.24999998 0 0 0 0.25,-0.25 0.24999998,0.24999998 0 0 0 -0.25,-0.25 z m 1,0 a 0.24999998,0.24999998 0 0 0 -0.25,0.25 0.24999998,0.24999998 0 0 0 0.25,0.25 0.24999998,0.24999998 0 0 0 0.25,-0.25 0.24999998,0.24999998 0 0 0 -0.25,-0.25 z m 1,0 a 0.24999998,0.24999998 0 0 0 -0.25,0.25 0.24999998,0.24999998 0 0 0 0.25,0.25 0.24999998,0.24999998 0 0 0 0.25,-0.25 0.24999998,0.24999998 0 0 0 -0.25,-0.25 z m -6.5,1 a 0.24999998,0.24999998 0 0 0 -0.25,0.25 0.24999998,0.24999998 0 0 0 0.25,0.25 0.24999998,0.24999998 0 0 0 0.25,-0.25 0.24999998,0.24999998 0 0 0 -0.25,-0.25 z m 1,0 a 0.24999998,0.24999998 0 0 0 -0.25,0.25 0.24999998,0.24999998 0 0 0 0.25,0.25 0.24999998,0.24999998 0 0 0 0.25,-0.25 0.24999998,0.24999998 0 0 0 -0.25,-0.25 z m 1,0 a 0.24999998,0.24999998 0 0 0 -0.25,0.25 0.24999998,0.24999998 0 0 0 0.25,0.25 0.24999998,0.24999998 0 0 0 0.25,-0.25 0.24999998,0.24999998 0 0 0 -0.25,-0.25 z m 2.5,0 a 0.24999998,0.24999998 0 0 0 -0.25,0.25 0.24999998,0.24999998 0 0 0 0.25,0.25 0.24999998,0.24999998 0 0 0 0.25,-0.25 0.24999998,0.24999998 0 0 0 -0.25,-0.25 z m 1,0 a 0.24999998,0.24999998 0 0 0 -0.25,0.25 0.24999998,0.24999998 0 0 0 0.25,0.25 0.24999998,0.24999998 0 0 0 0.25,-0.25 0.24999998,0.24999998 0 0 0 -0.25,-0.25 z m 1,0 a 0.24999998,0.24999998 0 0 0 -0.25,0.25 0.24999998,0.24999998 0 0 0 0.25,0.25 0.24999998,0.24999998 0 0 0 0.25,-0.25 0.24999998,0.24999998 0 0 0 -0.25,-0.25 z m -5.5,1 a 0.24999998,0.24999998 0 0 0 -0.25,0.25 0.24999998,0.24999998 0 0 0 0.25,0.25 0.24999998,0.24999998 0 0 0 0.25,-0.25 0.24999998,0.24999998 0 0 0 -0.25,-0.25 z m 4.5,0 a 0.24999998,0.24999998 0 0 0 -0.25,0.25 0.24999998,0.24999998 0 0 0 0.25,0.25 0.24999998,0.24999998 0 0 0 0.25,-0.25 0.24999998,0.24999998 0 0 0 -0.25,-0.25 z"
     id="path9" />
  <path
     id="path1040"
     style="opacity:0.2;fill:#ffffff;stroke-width:8;stroke-linecap:square"
     d="M 13,4 C 8.01401,4 4,8.01401 4,13 v 1 C 4,9.01401 8.01401,5 13,5 h 22 c 4.985992,0 9,4.01401 9,9 V 13 C 44,8.01401 39.985992,4 35,4 Z" />
</svg>
