<?xml version="1.0" encoding="UTF-8" standalone="no"?>
<!-- Created with Inkscape (http://www.inkscape.org/) -->

<svg
   width="48"
   height="48"
   viewBox="0 0 48 48"
   version="1.1"
   id="svg5"
   inkscape:version="1.3.2 (091e20ef0f, 2023-11-25, custom)"
   sodipodi:docname="chrome-app-list.svg"
   xmlns:inkscape="http://www.inkscape.org/namespaces/inkscape"
   xmlns:sodipodi="http://sodipodi.sourceforge.net/DTD/sodipodi-0.dtd"
   xmlns="http://www.w3.org/2000/svg"
   xmlns:svg="http://www.w3.org/2000/svg">
  <sodipodi:namedview
     id="namedview7"
     pagecolor="#ffffff"
     bordercolor="#000000"
     borderopacity="0.25"
     inkscape:showpageshadow="2"
     inkscape:pageopacity="0.0"
     inkscape:pagecheckerboard="0"
     inkscape:deskcolor="#d1d1d1"
     inkscape:document-units="px"
     showgrid="false"
     inkscape:zoom="15.458333"
     inkscape:cx="23.967655"
     inkscape:cy="24"
     inkscape:window-width="1920"
     inkscape:window-height="962"
     inkscape:window-x="0"
     inkscape:window-y="0"
     inkscape:window-maximized="1"
     inkscape:current-layer="svg5" />
  <defs
     id="defs2" />
  <rect
     style="opacity:0.2;fill:#000000;stroke-width:2.85714;stroke-linecap:square"
     id="rect234"
     width="40"
     height="40"
     x="4"
     y="5"
     ry="9" />
  <rect
     style="fill:#e4e4e4;fill-opacity:1;stroke-width:2.85714;stroke-linecap:square"
     id="rect396"
     width="40"
     height="40"
     x="4"
     y="4"
     ry="9" />
  <path
     id="path1"
     style="fill:#000000;opacity:0.2"
     d="m 14,13 c -1.107998,0 -2,0.892002 -2,2 v 2 c 0,1.107998 0.892002,2 2,2 h 2 c 1.107998,0 2,-0.892002 2,-2 v -2 c 0,-1.107998 -0.892002,-2 -2,-2 z m 9,0 c -1.107998,0 -2,0.892002 -2,2 v 2 c 0,1.107998 0.892002,2 2,2 h 2 c 1.107998,0 2,-0.892002 2,-2 v -2 c 0,-1.107998 -0.892002,-2 -2,-2 z m 9,0 c -1.107998,0 -2,0.892002 -2,2 v 2 c 0,1.107998 0.892002,2 2,2 h 2 c 1.107998,0 2,-0.892002 2,-2 v -2 c 0,-1.107998 -0.892002,-2 -2,-2 z m -18,9 c -1.107998,0 -2,0.892002 -2,2 v 2 c 0,1.107998 0.892002,2 2,2 h 2 c 1.107998,0 2,-0.892002 2,-2 v -2 c 0,-1.107998 -0.892002,-2 -2,-2 z m 9,0 c -1.107998,0 -2,0.892002 -2,2 v 2 c 0,1.107998 0.892002,2 2,2 h 2 c 1.107998,0 2,-0.892002 2,-2 v -2 c 0,-1.107998 -0.892002,-2 -2,-2 z m 9,0 c -1.107998,0 -2,0.892002 -2,2 v 2 c 0,1.107998 0.892002,2 2,2 h 2 c 1.107998,0 2,-0.892002 2,-2 v -2 c 0,-1.107998 -0.892002,-2 -2,-2 z m -18,9 c -1.107998,0 -2,0.892002 -2,2 v 2 c 0,1.107998 0.892002,2 2,2 h 2 c 1.107998,0 2,-0.892002 2,-2 v -2 c 0,-1.107998 -0.892002,-2 -2,-2 z m 9,0 c -1.107998,0 -2,0.892002 -2,2 v 2 c 0,1.107998 0.892002,2 2,2 h 2 c 1.107998,0 2,-0.892002 2,-2 v -2 c 0,-1.107998 -0.892002,-2 -2,-2 z m 9,0 c -1.107998,0 -2,0.892002 -2,2 v 2 c 0,1.107998 0.892002,2 2,2 h 2 c 1.107998,0 2,-0.892002 2,-2 v -2 c 0,-1.107998 -0.892002,-2 -2,-2 z" />
  <rect
     style="fill:#4d9133;fill-opacity:1;stroke-width:1.5"
     id="rect1"
     width="6"
     height="6"
     x="12"
     y="30"
     ry="1.9499999" />
  <rect
     style="fill:#4d9133;fill-opacity:1;stroke-width:1.5"
     id="rect2"
     width="6"
     height="6"
     x="21"
     y="30"
     ry="1.9499999" />
  <rect
     style="fill:#4d9133;fill-opacity:1;stroke-width:1.5"
     id="rect3"
     width="6"
     height="6"
     x="12"
     y="21"
     ry="1.9499999" />
  <rect
     style="fill:#eb6253;fill-opacity:1;stroke-width:1.5"
     id="rect4"
     width="6"
     height="6"
     x="12"
     y="12"
     ry="1.9499999" />
  <rect
     style="fill:#eb6253;fill-opacity:1;stroke-width:1.5"
     id="rect5"
     width="6"
     height="6"
     x="21"
     y="21"
     ry="1.9499999" />
  <rect
     style="fill:#eb6253;fill-opacity:1;stroke-width:1.5"
     id="rect6"
     width="6"
     height="6"
     x="30"
     y="30"
     ry="1.9499999" />
  <rect
     style="fill:#2181dd;fill-opacity:1;stroke-width:1.5"
     id="rect7"
     width="6"
     height="6"
     x="30"
     y="21"
     ry="1.9499999" />
  <rect
     style="fill:#2181dd;fill-opacity:1;stroke-width:1.5"
     id="rect8"
     width="6"
     height="6"
     x="21"
     y="12"
     ry="1.9499999" />
  <rect
     style="fill:#2181dd;fill-opacity:1;stroke-width:1.5"
     id="rect9"
     width="6"
     height="6"
     x="30"
     y="12"
     ry="1.9499999" />
  <path
     id="path1040"
     style="opacity:0.2;fill:#ffffff;stroke-width:8;stroke-linecap:square"
     d="M 13,4 C 8.01401,4 4,8.01401 4,13 v 1 C 4,9.01401 8.01401,5 13,5 h 22 c 4.985992,0 9,4.01401 9,9 V 13 C 44,8.01401 39.985992,4 35,4 Z" />
</svg>
