<?xml version="1.0" encoding="UTF-8" standalone="no"?>
<!-- Created with Inkscape (http://www.inkscape.org/) -->

<svg
   width="48"
   height="48"
   viewBox="0 0 48 48"
   version="1.1"
   id="svg5"
   inkscape:version="1.2.2 (1:1.2.2+202305151914+b0a8486541)"
   sodipodi:docname="cups.svg"
   xmlns:inkscape="http://www.inkscape.org/namespaces/inkscape"
   xmlns:sodipodi="http://sodipodi.sourceforge.net/DTD/sodipodi-0.dtd"
   xmlns="http://www.w3.org/2000/svg"
   xmlns:svg="http://www.w3.org/2000/svg">
  <sodipodi:namedview
     id="namedview7"
     pagecolor="#ffffff"
     bordercolor="#000000"
     borderopacity="0.25"
     inkscape:showpageshadow="2"
     inkscape:pageopacity="0.0"
     inkscape:pagecheckerboard="0"
     inkscape:deskcolor="#d1d1d1"
     inkscape:document-units="px"
     showgrid="false"
     inkscape:zoom="16.791667"
     inkscape:cx="23.970223"
     inkscape:cy="24"
     inkscape:window-width="1920"
     inkscape:window-height="1008"
     inkscape:window-x="0"
     inkscape:window-y="0"
     inkscape:window-maximized="1"
     inkscape:current-layer="svg5" />
  <defs
     id="defs2" />
  <rect
     style="opacity:0.2;fill:#000000;stroke-width:2.85714;stroke-linecap:square"
     id="rect234"
     width="40"
     height="40"
     x="4"
     y="4.999999"
     ry="9" />
  <rect
     style="fill:#c5c5c5;fill-opacity:1;stroke-width:2.85714;stroke-linecap:square"
     id="rect396"
     width="40"
     height="40"
     x="4"
     y="4"
     ry="9" />
  <rect
     style="opacity:0.2"
     width="12"
     height="28"
     x="-31.000002"
     y="-38"
     rx="1.4119999"
     ry="1.4"
     transform="matrix(0,-1,-1,0,0,0)"
     id="rect7625" />
  <path
     style="opacity:0.2"
     d="m 13.000001,27 v 10.58823 c 0,0.78213 0.61325,1.41178 1.375,1.41178 H 33.625 c 0.76175,0 1.375,-0.62965 1.375,-1.41178 V 27 Z"
     id="path7627" />
  <path
     style="fill:#e4e4e4"
     d="m 14.375001,10 c -0.76175,0 -1.375,0.63714 -1.375,1.42857 V 20 H 35 V 11.42857 C 35,10.63714 34.38675,10 33.625,10 Z"
     id="path7629" />
  <rect
     style="fill:#4f4f4f"
     width="12"
     height="28"
     x="-30.000002"
     y="-38"
     rx="1.4119999"
     ry="1.4"
     transform="matrix(0,-1,-1,0,0,0)"
     id="rect7631" />
  <rect
     style="opacity:0.2"
     width="24"
     height="2"
     x="12.000001"
     y="25.000002"
     id="rect7633" />
  <rect
     style="opacity:0.2"
     width="3"
     height="3"
     x="12.000001"
     y="21.000002"
     rx="1.125"
     ry="1.125"
     id="rect7635" />
  <rect
     style="fill:#76ff03"
     width="3"
     height="3"
     x="12.000001"
     y="20.000002"
     rx="1.125"
     ry="1.125"
     id="rect7637" />
  <path
     style="fill:#e4e4e4"
     d="m 13.000001,26 v 10.58823 c 0,0.78213 0.61325,1.41178 1.375,1.41178 H 33.625 c 0.76175,0 1.375,-0.62965 1.375,-1.41178 V 26 Z"
     id="path7639" />
  <path
     style="opacity:0.5;fill-rule:evenodd"
     d="M 16.000001,34.00001 H 30 v 2 H 16.000001 Z"
     id="path7641" />
  <path
     style="opacity:0.5;fill-rule:evenodd"
     d="M 16.000001,31.00001 H 27 v 2 H 16.000001 Z"
     id="path7643" />
  <path
     style="opacity:0.5;fill-rule:evenodd"
     d="M 16.000001,28.00001 H 32 v 2 H 16.000001 Z"
     id="path7645" />
  <path
     style="opacity:0.2;fill:#ffffff"
     d="m 13.125001,20 c -0.62325,0 -1.125,0.50176 -1.125,1.125 v 0.75 c 0,0.0444 0.0204,0.082 0.0254,0.125 0.0645,-0.56106 0.52071,-1 1.09961,-1 h 0.75 c 0.5789,0 1.03508,0.43894 1.09961,1 0.005,-0.043 0.0254,-0.0806 0.0254,-0.125 v -0.75 c 0,-0.62324 -0.50175,-1.125 -1.125,-1.125 z"
     id="path7647" />
  <path
     style="opacity:0.1;fill:#ffffff"
     d="m 11.400391,18 c -0.7756,0 -1.40039,0.63 -1.40039,1.41211 v 1 C 10.000001,19.62999 10.624791,19 11.400391,19 H 36.59961 C 37.37521,19 38,19.63 38,20.41211 v -1 C 38,18.62999 37.37521,18 36.59961,18 Z"
     id="path7649" />
  <path
     style="opacity:0.2;fill:#ffffff"
     d="m 14.375001,10 c -0.76175,0 -1.375,0.63631 -1.375,1.42773 v 1 c 0,-0.79142 0.61325,-1.42773 1.375,-1.42773 H 33.625 C 34.38675,11 35,11.63631 35,12.42773 v -1 C 35,10.63631 34.38675,10 33.625,10 Z"
     id="path7651" />
  <path
     id="path1040"
     style="opacity:0.2;fill:#ffffff;stroke-width:8;stroke-linecap:square"
     d="m 13,4.0000003 c -4.9859901,0 -8.9999999,4.01401 -8.9999999,8.9999997 v 1 C 4.0000001,9.0140103 8.0140099,5.0000003 13,5.0000003 h 22 c 4.985992,0 9,4.01401 9,8.9999997 V 13 C 44,8.0140103 39.985992,4.0000003 35,4.0000003 Z" />
</svg>
