<?xml version="1.0" encoding="UTF-8" standalone="no"?>
<!-- Created with Inkscape (http://www.inkscape.org/) -->

<svg
   width="48"
   height="48"
   viewBox="0 0 48 48"
   version="1.1"
   id="svg5"
   inkscape:version="1.3.2 (091e20ef0f, 2023-11-25, custom)"
   sodipodi:docname="falkon.svg"
   xmlns:inkscape="http://www.inkscape.org/namespaces/inkscape"
   xmlns:sodipodi="http://sodipodi.sourceforge.net/DTD/sodipodi-0.dtd"
   xmlns="http://www.w3.org/2000/svg"
   xmlns:svg="http://www.w3.org/2000/svg">
  <sodipodi:namedview
     id="namedview7"
     pagecolor="#ffffff"
     bordercolor="#000000"
     borderopacity="0.25"
     inkscape:showpageshadow="2"
     inkscape:pageopacity="0.0"
     inkscape:pagecheckerboard="0"
     inkscape:deskcolor="#d1d1d1"
     inkscape:document-units="px"
     showgrid="false"
     inkscape:zoom="17.125"
     inkscape:cx="24"
     inkscape:cy="24"
     inkscape:window-width="1920"
     inkscape:window-height="1008"
     inkscape:window-x="0"
     inkscape:window-y="0"
     inkscape:window-maximized="1"
     inkscape:current-layer="svg5" />
  <defs
     id="defs2" />
  <rect
     style="opacity:0.2;fill:#000000;stroke-width:2.85714;stroke-linecap:square"
     id="rect234"
     width="40"
     height="40"
     x="4"
     y="5"
     ry="9" />
  <rect
     style="fill:#8767d9;fill-opacity:1;stroke-width:2.85714;stroke-linecap:square"
     id="rect396"
     width="40"
     height="40"
     x="4"
     y="4"
     ry="9" />
  <path
     id="path2"
     style="opacity:0.2;fill:#000000;fill-rule:evenodd;stroke-width:2"
     d="m 21.484376,11 c -2.471762,-0.0086 -5.307818,1.466608 -8.531251,2.800781 4.421263,0.34425 6.314229,0.964344 6.421875,1.433594 -7.64594,-1.314039 -11.1117472,9.569951 -11.359375,14.417969 0,0 2.799822,-3.595874 3.699219,-3.910156 0.277125,-0.09684 0.587805,-0.18716 0.921875,-0.277344 -0.799427,0.825136 -1.469723,1.5363 -1.972657,1.92578 -0.1782,0.353254 -0.356436,0.802854 -0.570312,1.183594 C 8.5823676,32.075086 8.1070312,37.730634 8.1132812,40.113282 8.1140632,40.411774 8.436929,40.72682 8.453125,41 8.9301726,42.2667 8.9825554,43.064896 9.6367188,44.347656 10.675832,44.764724 11.808301,45 13,45 h 22 c 2.13211,0 4.082326,-0.738628 5.621094,-1.96875 C 32.838286,38.24199 30,34.326954 30,30.25 30.06066,28.160744 32.244066,26.279616 36.109376,25.210938 37.953574,24.993328 39.914592,24.90933 42,25 41.65264,22.308046 39.046656,18.48947 34.921876,17.621094 34.214592,17.284292 30.032916,11.029762 21.484376,11 Z" />
  <path
     id="path3"
     style="fill:#ffffff;fill-rule:evenodd;stroke-width:2"
     d="m 21.484376,10 c -2.471764,-0.0086 -5.30782,1.466609 -8.531251,2.800781 4.421263,0.344251 6.314229,0.964343 6.421875,1.433594 -7.645941,-1.31404 -11.1117456,9.569951 -11.359375,14.417969 0,0 2.799821,-3.595874 3.699219,-3.910156 0.277125,-0.09684 0.587805,-0.18716 0.921875,-0.277344 -0.799429,0.825136 -1.469724,1.5363 -1.972657,1.92578 -0.178209,0.353254 -0.356435,0.802854 -0.570312,1.183594 C 8.5823678,31.075086 8.1070322,36.730634 8.1132812,39.113282 8.1140642,39.411774 8.436929,39.72682 8.453125,40 8.9301736,41.2667 8.982555,42.064896 9.6367188,43.347656 10.675832,43.764724 11.808301,44 13,44 h 22 c 2.13211,0 4.082326,-0.738628 5.621094,-1.96875 C 32.838286,37.24199 30,33.326954 30,29.25 30.06066,27.160744 32.244066,25.279616 36.109376,24.210938 37.953574,23.993328 39.914592,23.90933 42,24 41.65264,21.308046 39.046656,17.489472 34.921876,16.621094 34.214592,16.284292 30.032914,10.029762 21.484376,10 Z" />
  <path
     style="fill:#3f3f3f;fill-rule:evenodd;stroke-width:2"
     d="m 27.628494,16.804494 c 0,0 3.360612,-3.096394 5.502458,2.860448 -3.71244,1.565144 -5.502458,-2.860448 -5.502458,-2.860448 z"
     id="path4" />
  <path
     id="path5"
     style="opacity:0.1;fill:#000000;fill-rule:evenodd;stroke-width:2"
     d="m 27.21522,21.675818 c 0,0 -17.5456482,0.739476 -18.91797,5.35547 -0.3815246,1.109978 -0.2382812,2.644532 -0.2382812,2.644532 0,0 7.1478912,-7.146482 19.1562512,-8.000002 z m 6.449218,3.250002 c -5.46089,0.06394 -17.406116,1.81133 -25.5937506,14.78125 -0.060526,2.44658 1.6289064,4.83203 1.6289064,4.83203 0,0 7.8381202,-18.749692 26.8867202,-19.46875 0,0 -1.101578,-0.16584 -2.921876,-0.14452 z" />
  <path
     id="path6"
     style="fill:#ffb039;fill-rule:evenodd;stroke-width:2"
     d="m 15.414437,12.543006 c -1.014925,0.01312 -1.921532,0.08902 -2.449218,0.261719 0,0 4.752947,0.274741 6.449219,1.441406 0.70824,-0.145704 1.30793,-0.628619 1.410156,-1.289062 -0.417828,-0.17292 -3.17732,-0.442924 -5.410157,-0.414063 z m 11.800783,8.132812 c 0,0 -17.5456482,0.739474 -18.91797,5.35547 -0.3815246,1.109978 -0.2382812,2.644532 -0.2382812,2.644532 0,0 7.1478912,-7.146482 19.1562512,-8.000002 z m 6.449218,3.250002 c -5.46089,0.06394 -17.406116,1.81133 -25.5937506,14.78125 -0.060528,2.446578 1.6289064,4.83203 1.6289064,4.83203 0,0 7.8381202,-18.749692 26.8867202,-19.46875 0,0 -1.101578,-0.16584 -2.921876,-0.14452 z" />
  <path
     id="path1040"
     style="opacity:0.1;fill:#ffffff;stroke-width:8;stroke-linecap:square"
     d="M 13,4 C 8.01401,4 4,8.01401 4,13 v 1 C 4,9.01401 8.01401,5 13,5 h 22 c 4.985992,0 9,4.01401 9,9 V 13 C 44,8.01401 39.985992,4 35,4 Z" />
</svg>
