<?xml version="1.0" encoding="UTF-8" standalone="no"?>
<!-- Created with Inkscape (http://www.inkscape.org/) -->

<svg
   width="48"
   height="48"
   viewBox="0 0 48 48"
   version="1.1"
   id="svg5"
   inkscape:version="1.4.3 (0d15f75042, 2025-12-25)"
   sodipodi:docname="filelight.svg"
   xmlns:inkscape="http://www.inkscape.org/namespaces/inkscape"
   xmlns:sodipodi="http://sodipodi.sourceforge.net/DTD/sodipodi-0.dtd"
   xmlns="http://www.w3.org/2000/svg"
   xmlns:svg="http://www.w3.org/2000/svg">
  <sodipodi:namedview
     id="namedview7"
     pagecolor="#ffffff"
     bordercolor="#000000"
     borderopacity="0.25"
     inkscape:showpageshadow="2"
     inkscape:pageopacity="0.0"
     inkscape:pagecheckerboard="0"
     inkscape:deskcolor="#d1d1d1"
     inkscape:document-units="px"
     showgrid="false"
     inkscape:zoom="17.3125"
     inkscape:cx="24"
     inkscape:cy="24"
     inkscape:window-width="1920"
     inkscape:window-height="1012"
     inkscape:window-x="0"
     inkscape:window-y="0"
     inkscape:window-maximized="1"
     inkscape:current-layer="svg5" />
  <defs
     id="defs2" />
  <rect
     style="opacity:0.2;fill:#000000;stroke-width:2.85714;stroke-linecap:square"
     id="rect234"
     width="40"
     height="40"
     x="4"
     y="5"
     ry="9" />
  <rect
     style="fill:#e4e4e4;fill-opacity:1;stroke-width:2.85714;stroke-linecap:square"
     id="rect396"
     width="40"
     height="40"
     x="4"
     y="4"
     ry="9" />
  <path
     id="path1040"
     style="opacity:0.2;fill:#ffffff;stroke-width:8;stroke-linecap:square"
     d="M 13,4 C 8.01401,4 4,8.01401 4,13 v 1 C 4,9.01401 8.01401,5 13,5 h 22 c 4.985992,0 9,4.01401 9,9 V 13 C 44,8.01401 39.985992,4 35,4 Z" />
  <path
     style="opacity:0.2"
     d="m 24,11.017968 a 14,14 0 0 0 -14,14 h 4.2 a 9.8,9.8 0 0 1 9.8,-9.8 z m 9.8,14 a 9.8,9.8 0 0 1 -9.1,9.774024 v 4.19043 A 14,14 0 0 0 38,25.017968 Z"
     id="path1" />
  <path
     style="fill:#514694"
     d="m 24,10.000195 a 14,14 0 0 0 -14,14 h 4.2 a 9.8,9.8 0 0 1 9.8,-9.8 z m 9.8,14 a 9.8,9.8 0 0 1 -9.1,9.774024 v 4.19043 A 14,14 0 0 0 38,24.000195 Z"
     id="path2" />
  <path
     style="opacity:0.2"
     d="m 24,14.000195 c -6.075132,0 -11,4.924868 -11,11 0,6.075133 4.924868,11 11,11 6.075132,0 11,-4.924867 11,-11 H 30.875 24 v -6.875 z"
     id="path3" />
  <path
     style="fill:#2d7ad6"
     d="m 24,12.982422 c -6.075132,0 -11,4.924868 -11,11 0,6.075133 4.924868,11 11,11 6.075132,0 11,-4.924867 11,-11 H 30.875 24 v -6.875 z"
     id="path4" />
  <path
     style="opacity:0.2"
     d="m 24,17.000195 a 8,8 0 0 0 -8,8 8,8 0 0 0 8,8 8,8 0 0 0 8,-8 8,8 0 0 0 -8,-8 z"
     id="path5" />
  <path
     style="fill:#07c486"
     d="m 24,15.982422 a 8,8 0 0 0 -8,8 8,8 0 0 0 8,8 8,8 0 0 0 8,-8 8,8 0 0 0 -8,-8 z"
     id="path6" />
  <path
     style="opacity:0.2"
     d="m 24,20.000195 a 5,5 0 0 1 5,5 5,5 0 0 1 -5,5 5,5 0 0 1 -5,-5 5,5 0 0 1 5,-5 z"
     id="path7" />
  <path
     style="fill:#ffffff"
     d="m 24,18.982422 a 5,5 0 0 1 5,5 5,5 0 0 1 -5,5 5,5 0 0 1 -5,-5 5,5 0 0 1 5,-5 z"
     id="path8" />
  <path
     style="opacity:0.1;fill:#ffffff"
     d="m 24,10 c -7.731986,0 -14,6.268013 -14,14 h 0.03711 C 10.561641,16.675316 16.656559,11.000708 24,11 Z"
     id="path9" />
  <path
     style="opacity:0.1;fill:#ffffff"
     d="m 24,12.982422 c -6.075132,0 -11,4.924868 -11,11 0,0.168757 0.01787,0.333099 0.02539,0.5 0.263177,-5.841413 5.068234,-10.5 10.974609,-10.5 z"
     id="path10" />
  <path
     style="opacity:0.2;fill:#ffffff"
     d="m 24,15.982422 a 8,8 0 0 0 -8,8 8,8 0 0 0 0.02148,0.423828 A 8,8 0 0 1 24,16.982422 8,8 0 0 1 31.978516,24.558594 8,8 0 0 0 32,23.982422 a 8,8 0 0 0 -8,-8 z"
     id="path11" />
</svg>
