<?xml version="1.0" encoding="UTF-8" standalone="no"?>
<!-- Created with Inkscape (http://www.inkscape.org/) -->

<svg
   width="48"
   height="48"
   viewBox="0 0 48 48"
   version="1.1"
   id="svg5"
   inkscape:version="1.3.2 (091e20ef0f, 2023-11-25, custom)"
   sodipodi:docname="forza-horizon-5.svg"
   xmlns:inkscape="http://www.inkscape.org/namespaces/inkscape"
   xmlns:sodipodi="http://sodipodi.sourceforge.net/DTD/sodipodi-0.dtd"
   xmlns="http://www.w3.org/2000/svg"
   xmlns:svg="http://www.w3.org/2000/svg">
  <sodipodi:namedview
     id="namedview7"
     pagecolor="#ffffff"
     bordercolor="#000000"
     borderopacity="0.25"
     inkscape:showpageshadow="2"
     inkscape:pageopacity="0.0"
     inkscape:pagecheckerboard="0"
     inkscape:deskcolor="#d1d1d1"
     inkscape:document-units="px"
     showgrid="false"
     inkscape:zoom="17.020833"
     inkscape:cx="23.970624"
     inkscape:cy="24"
     inkscape:window-width="1920"
     inkscape:window-height="1020"
     inkscape:window-x="0"
     inkscape:window-y="31"
     inkscape:window-maximized="1"
     inkscape:current-layer="svg5" />
  <defs
     id="defs2" />
  <rect
     style="opacity:0.2;fill:#000000;stroke-width:2.85714;stroke-linecap:square"
     id="rect234"
     width="40"
     height="40"
     x="4"
     y="5"
     ry="9" />
  <rect
     style="fill:#e3536d;fill-opacity:1;stroke-width:2.85714;stroke-linecap:square"
     id="rect396"
     width="40"
     height="40"
     x="4"
     y="4"
     ry="9" />
  <path
     style="opacity:0.2;fill:#000000"
     d="m 23,17 c -4.193,0 -5.332,2.485 -7,5 h 20 c 2.89,0 5.384,-2.266 6,-5 z M 7,23 21.332,25.803 19,30 l 4,-1 4,-6 h -3 z m 21,0 -4,6 4,-1 3,-5 z m 4,0 -3,5 2.5,-0.5 c 1.288,-0.258 1.798,-1.264 2.5,-1.904 L 36,23 Z m -18,2.5 -6,9.5 9,-3 2.803,-5.605 z"
     id="path3" />
  <path
     style="fill:#2f2f2f"
     d="m 23,16 c -4.193,0 -5.332,2.485 -7,5 h 20 c 2.89,0 5.384,-2.266 6,-5 z M 7,22 21.332,24.803 19,29 l 4,-1 4,-6 z m 21,0 -4,6 4,-1 3,-5 z m 4,0 -3,5 2.5,-0.5 c 1.288,-0.258 1.798,-1.264 2.5,-1.904 L 36,22 Z m -18,2.5 -6,9.5 9,-3 2.803,-5.605 z"
     id="path4" />
  <path
     id="path1040"
     style="opacity:0.1;fill:#ffffff;stroke-width:8;stroke-linecap:square"
     d="M 13,4 C 8.01401,4 4,8.01401 4,13 v 1 C 4,9.01401 8.01401,5 13,5 h 22 c 4.985992,0 9,4.01401 9,9 V 13 C 44,8.01401 39.985992,4 35,4 Z" />
</svg>
