<?xml version="1.0" encoding="UTF-8" standalone="no"?>
<!-- Created with Inkscape (http://www.inkscape.org/) -->

<svg
   width="48"
   height="48"
   viewBox="0 0 48 48"
   version="1.1"
   id="svg5"
   inkscape:version="1.2.2 (1:1.2.2+202305151914+b0a8486541)"
   sodipodi:docname="gmail.svg"
   xmlns:inkscape="http://www.inkscape.org/namespaces/inkscape"
   xmlns:sodipodi="http://sodipodi.sourceforge.net/DTD/sodipodi-0.dtd"
   xmlns="http://www.w3.org/2000/svg"
   xmlns:svg="http://www.w3.org/2000/svg">
  <sodipodi:namedview
     id="namedview7"
     pagecolor="#ffffff"
     bordercolor="#000000"
     borderopacity="0.25"
     inkscape:showpageshadow="2"
     inkscape:pageopacity="0.0"
     inkscape:pagecheckerboard="0"
     inkscape:deskcolor="#d1d1d1"
     inkscape:document-units="px"
     showgrid="false"
     inkscape:zoom="16.791667"
     inkscape:cx="24"
     inkscape:cy="24"
     inkscape:window-width="1920"
     inkscape:window-height="1008"
     inkscape:window-x="0"
     inkscape:window-y="0"
     inkscape:window-maximized="1"
     inkscape:current-layer="svg5" />
  <defs
     id="defs2" />
  <rect
     style="opacity:0.2;fill:#000000;stroke-width:2.85714;stroke-linecap:square"
     id="rect234"
     width="40"
     height="40"
     x="4"
     y="5"
     ry="9" />
  <rect
     style="fill:#efefef;fill-opacity:1;stroke-width:2.85714;stroke-linecap:square"
     id="rect396"
     width="40"
     height="40"
     x="4"
     y="4"
     ry="9" />
  <path
     d="m 10,18.31293 v 15.779297 c 0,1.054515 0.80628,1.908203 1.800781,1.908203 H 16 V 24.039492 l -4.722656,-3.519531 c -0.846526,-0.624709 -1.222158,-1.413676 -1.267578,-2.199219 z m 28,0 -0.0098,0.0078 c -0.04542,0.785542 -0.421052,1.574509 -1.267578,2.199219 L 32,24.039482 V 36.00042 h 4.199219 C 37.19372,36.00042 38,35.146732 38,34.092217 Z"
     style="opacity:0.2;fill:#000000"
     id="path556" />
  <path
     d="m 38,17.31294 -0.0098,0.0078 c -0.04542,0.785543 -0.421052,1.574509 -1.267578,2.199219 L 32,23.039492 V 35.00043 h 4.199219 C 37.19372,35.00043 38,34.146742 38,33.092227 Z"
     style="fill:#34a853"
     id="path444" />
  <path
     d="m 10,17.31293 0.0098,0.0078 c 0.04542,0.785543 0.421052,1.57451 1.267578,2.199219 L 16,23.039482 V 35.00042 H 11.800781 C 10.80628,35.00042 10,34.146732 10,33.092217 Z"
     style="fill:#4285f4"
     id="path472" />
  <path
     id="path360"
     style="opacity:0.2;fill:#000000"
     d="M 13.130859 15.001953 C 11.393304 14.927552 9.9116557 16.608539 10.005859 18.3125 L 10 18.3125 L 10 19.5 L 11.033203 20.326172 C 11.03499 20.327729 11.037272 20.328523 11.039062 20.330078 L 11.277344 20.519531 L 16 24.039062 L 24 30 L 32 24.039062 L 36.722656 20.519531 C 36.806562 20.457612 36.886051 20.393128 36.960938 20.328125 L 38 19.5 L 38 18.3125 L 37.994141 18.3125 C 38.088397 16.608546 36.606853 14.927577 34.869141 15.001953 C 34.282717 15.027053 33.667765 15.252766 33.074219 15.744141 L 32 16.529297 L 24 22.371094 L 16 16.529297 L 14.925781 15.744141 C 14.332235 15.252766 13.71723 15.027061 13.130859 15.001953 z " />
  <path
     d="m 16,15.529727 v 7.509765 l 8,5.960938 8,-5.960938 v -7.509765 l -8,5.841797 z"
     style="fill:#ea4335"
     id="path388" />
  <path
     id="path500"
     style="fill:#c5221f"
     d="M 13.130859 14.001953 C 11.393302 13.927552 9.9116549 15.608537 10.005859 17.3125 L 10 17.3125 L 10 18.5 L 11.033203 19.324219 C 11.035291 19.32604 11.036967 19.32826 11.039062 19.330078 C 11.113949 19.395082 11.193438 19.457612 11.277344 19.519531 L 16 23.039062 L 16 15.529297 L 14.925781 14.744141 C 14.332234 14.252766 13.71723 14.027061 13.130859 14.001953 z " />
  <path
     id="path416"
     style="fill:#fbbc04"
     d="M 34.869141 14.001953 C 34.282717 14.027053 33.667766 14.252766 33.074219 14.744141 L 32 15.529297 L 32 23.039062 L 36.722656 19.519531 C 36.806562 19.457612 36.886051 19.395081 36.960938 19.330078 C 36.963033 19.32826 36.964709 19.32604 36.966797 19.324219 L 38 18.5 L 38 17.3125 L 37.994141 17.3125 C 38.088397 15.608546 36.606855 13.927577 34.869141 14.001953 z " />
  <path
     d="m 13.13086,14.002383 c -1.853851,-0.07938 -3.410274,1.839325 -3.078125,3.652344 0.255755,-1.451469 1.566694,-2.717062 3.078125,-2.652344 0.58637,0.02511 1.201374,0.250813 1.794921,0.742188 L 16,16.529727 l 8,5.841797 8,-5.841797 1.074219,-0.785156 c 0.593548,-0.491375 1.208498,-0.717088 1.794922,-0.742188 1.511566,-0.0647 2.822412,1.200882 3.078125,2.652344 0.332202,-1.813011 -1.224107,-3.731698 -3.078125,-3.652344 -0.586424,0.0251 -1.201374,0.250813 -1.794922,0.742188 L 32,15.529727 24,21.371524 16,15.529727 14.925781,14.744571 C 14.332234,14.253196 13.71723,14.027491 13.13086,14.002383 Z"
     style="opacity:0.2;fill:#ffffff"
     id="path528" />
  <path
     id="path1040"
     style="opacity:0.2;fill:#ffffff;stroke-width:8;stroke-linecap:square"
     d="M 13,4 C 8.0140099,4 4,8.0140096 4,13 v 1 C 4,9.0140096 8.0140099,5 13,5 h 22 c 4.985992,0 9,4.0140096 9,9 V 13 C 44,8.0140096 39.985992,4 35,4 Z" />
</svg>
