<?xml version="1.0" encoding="UTF-8" standalone="no"?>
<!-- Created with Inkscape (http://www.inkscape.org/) -->

<svg
   width="48"
   height="48"
   viewBox="0 0 48 48"
   version="1.1"
   id="svg5"
   inkscape:version="1.3.1 (91b66b0783, 2023-11-16, custom)"
   sodipodi:docname="gnome-power-statistics.svg"
   xmlns:inkscape="http://www.inkscape.org/namespaces/inkscape"
   xmlns:sodipodi="http://sodipodi.sourceforge.net/DTD/sodipodi-0.dtd"
   xmlns="http://www.w3.org/2000/svg"
   xmlns:svg="http://www.w3.org/2000/svg">
  <sodipodi:namedview
     id="namedview7"
     pagecolor="#ffffff"
     bordercolor="#000000"
     borderopacity="0.25"
     inkscape:showpageshadow="2"
     inkscape:pageopacity="0.0"
     inkscape:pagecheckerboard="0"
     inkscape:deskcolor="#d1d1d1"
     inkscape:document-units="px"
     showgrid="false"
     inkscape:zoom="15.125"
     inkscape:cx="23.966942"
     inkscape:cy="24"
     inkscape:window-width="1920"
     inkscape:window-height="937"
     inkscape:window-x="0"
     inkscape:window-y="32"
     inkscape:window-maximized="1"
     inkscape:current-layer="svg5" />
  <defs
     id="defs2" />
  <rect
     style="opacity:0.2;fill:#000000;stroke-width:2.85714;stroke-linecap:square"
     id="rect234"
     width="40"
     height="40"
     x="4"
     y="5"
     ry="9" />
  <rect
     style="fill:#fecd38;fill-opacity:1;stroke-width:2.85714;stroke-linecap:square"
     id="rect396"
     width="40"
     height="40"
     x="4"
     y="4"
     ry="9" />
  <path
     d="m 35.04296,13.6289 -0.6289,1.13282 -9.69922,17.0664 -11.28906,-9.51562 -0.6875,-0.58204 -0.625,0.64064 L 4,31.02734 v 2.82812 l 8.86328,-9.48046 11.5,9.71484 0.89844,0.76562 L 25.84376,33.8164 35.5,16.83984 44,26.09376 V 23.2461 l -8.04296,-8.69922 z"
     style="opacity:1;fill:#3f3f3f;fill-opacity:1;stroke-width:2"
     id="path1" />
  <path
     d="m 35,13 c -1.65686,0 -3,1.34314 -3,3 0,1.65686 1.34314,3 3,3 1.65686,0 3,-1.34314 3,-3 0,-1.65686 -1.34314,-3 -3,-3 z m -22,8 c -1.65686,0 -3,1.34314 -3,3 0,1.65686 1.34314,3 3,3 1.65686,0 3,-1.34314 3,-3 0,-1.65686 -1.34314,-3 -3,-3 z m 12,10 c -1.65686,0 -3,1.34314 -3,3 0,1.65686 1.34314,3 3,3 1.65686,0 3,-1.34314 3,-3 0,-1.65686 -1.34314,-3 -3,-3 z"
     style="opacity:0.2;fill:#000000;fill-opacity:1;stroke-width:2;stroke-linecap:round;stroke-linejoin:round"
     id="path2" />
  <path
     d="m 35,12 c -1.65686,0 -3,1.34314 -3,3 0,1.65686 1.34314,3 3,3 1.65686,0 3,-1.34314 3,-3 0,-1.65686 -1.34314,-3 -3,-3 z m -22,8 c -1.65686,0 -3,1.34314 -3,3 0,1.65686 1.34314,3 3,3 1.65686,0 3,-1.34314 3,-3 0,-1.65686 -1.34314,-3 -3,-3 z m 12,10 c -1.65686,0 -3,1.34314 -3,3 0,1.65686 1.34314,3 3,3 1.65686,0 3,-1.34314 3,-3 0,-1.65686 -1.34314,-3 -3,-3 z"
     style="fill:#4f4f4f;fill-opacity:1;stroke-width:2;stroke-linecap:round;stroke-linejoin:round"
     id="path3" />
  <path
     id="path1040"
     style="opacity:0.2;fill:#ffffff;stroke-width:8;stroke-linecap:square"
     d="M 13,4 C 8.01401,4 4,8.01401 4,13 v 1 C 4,9.01401 8.01401,5 13,5 h 22 c 4.985992,0 9,4.01401 9,9 V 13 C 44,8.01401 39.985992,4 35,4 Z" />
</svg>
