<?xml version="1.0" encoding="UTF-8" standalone="no"?>
<!-- Created with Inkscape (http://www.inkscape.org/) -->

<svg
   width="48"
   height="48"
   viewBox="0 0 48 48"
   version="1.1"
   id="svg5"
   inkscape:version="1.3 (0e150ed6c4, 2023-07-21)"
   sodipodi:docname="gnome-todo.svg"
   xmlns:inkscape="http://www.inkscape.org/namespaces/inkscape"
   xmlns:sodipodi="http://sodipodi.sourceforge.net/DTD/sodipodi-0.dtd"
   xmlns="http://www.w3.org/2000/svg"
   xmlns:svg="http://www.w3.org/2000/svg">
  <sodipodi:namedview
     id="namedview7"
     pagecolor="#ffffff"
     bordercolor="#000000"
     borderopacity="0.25"
     inkscape:showpageshadow="2"
     inkscape:pageopacity="0.0"
     inkscape:pagecheckerboard="0"
     inkscape:deskcolor="#d1d1d1"
     inkscape:document-units="px"
     showgrid="false"
     inkscape:zoom="16.729167"
     inkscape:cx="24"
     inkscape:cy="24"
     inkscape:window-width="1850"
     inkscape:window-height="1011"
     inkscape:window-x="70"
     inkscape:window-y="32"
     inkscape:window-maximized="1"
     inkscape:current-layer="svg5" />
  <defs
     id="defs2" />
  <rect
     style="opacity:0.2;fill:#000000;stroke-width:2.85714;stroke-linecap:square"
     id="rect234"
     width="40"
     height="40"
     x="4"
     y="4.999999"
     ry="9" />
  <rect
     style="fill:#c48f61;fill-opacity:1;stroke-width:2.85714;stroke-linecap:square"
     id="rect396"
     width="40"
     height="40"
     x="4"
     y="4"
     ry="9" />
  <rect
     style="opacity:0.2;fill:#000000;fill-opacity:1;stroke-width:2"
     id="rect2272"
     width="30"
     height="30"
     x="9"
     y="10"
     ry="4" />
  <rect
     style="fill:#ffffff;fill-opacity:1;stroke-width:2"
     id="rect2481"
     width="30"
     height="30"
     x="9"
     y="9"
     ry="4" />
  <path
     id="path4"
     style="color:#000000;fill:#5f5f5f;stroke-width:2;stroke-linecap:round;-inkscape-stroke:none"
     d="m 19.543397,12.996583 c -0.456024,-0.01271 -0.893048,0.182801 -1.1875,0.53125 l -2.082031,2.457031 -0.980469,-0.703125 c -0.674071,-0.482622 -1.611826,-0.326912 -2.09375,0.347656 -0.479959,0.673359 -0.324453,1.608137 0.347656,2.089844 l 3.230469,2.3125 3.867187,-4.566406 C 21.179687,14.83313 21.101007,13.88722 20.469178,13.352051 20.209809,13.13203 19.883366,13.006687 19.543397,12.996583 Z m 0,8 c -0.456024,-0.01271 -0.893048,0.182801 -1.1875,0.53125 l -2.082031,2.457031 -0.980469,-0.703125 c -0.674071,-0.482622 -1.611826,-0.326912 -2.09375,0.347656 -0.479959,0.673359 -0.324453,1.608137 0.347656,2.089844 l 3.230469,2.3125 3.867187,-4.566406 c 0.534729,-0.632202 0.456047,-1.578112 -0.175781,-2.113282 -0.259369,-0.220021 -0.585812,-0.345364 -0.925781,-0.355468 z m 0,8 c -0.456201,0 -0.893048,0.182801 -1.1875,0.53125 l -2.082031,2.457031 -0.980469,-0.703125 c -0.674071,-0.482622 -1.611826,-0.326912 -2.09375,0.347656 -0.479959,0.673359 -0.324453,1.608137 0.347656,2.089844 l 3.230469,2.3125 3.867187,-4.566406 c 0.534729,-0.632202 0.456047,-1.578112 -0.175781,-2.113282 -0.259369,-0.220021 -0.585662,-0.355468 -0.925781,-0.355468 z" />
  <path
     id="path5"
     style="color:#000000;fill:#c8c8c8;stroke-width:2;stroke-linecap:round;-inkscape-stroke:none"
     d="m 24.5,15.000489 c -0.828425,0 -1.5,0.671575 -1.5,1.5 0,0.828425 0.671575,1.5 1.5,1.5 h 9 c 0.828425,0 1.5,-0.671575 1.5,-1.5 0,-0.828425 -0.671575,-1.5 -1.5,-1.5 z m 0,8 c -0.828425,0 -1.5,0.671575 -1.5,1.5 0,0.828425 0.671575,1.5 1.5,1.5 h 9 c 0.828425,0 1.5,-0.671575 1.5,-1.5 0,-0.828425 -0.671575,-1.5 -1.5,-1.5 z m 0,8 c -0.828425,0 -1.5,0.671575 -1.5,1.5 0,0.828425 0.671575,1.5 1.5,1.5 h 9 c 0.828425,0 1.5,-0.671575 1.5,-1.5 0,-0.828425 -0.671575,-1.5 -1.5,-1.5 z" />
  <path
     id="path1040"
     style="opacity:0.1;fill:#ffffff;stroke-width:8;stroke-linecap:square"
     d="m 13,4.0000002 c -4.98599,0 -9,4.01401 -9,8.9999998 v 1 C 4,9.0140102 8.01401,5.0000002 13,5.0000002 h 22 c 4.985992,0 9,4.01401 9,8.9999998 V 13 C 44,8.0140104 39.985992,4.0000002 35,4.0000002 Z" />
  <path
     d="M 24,2 C 21.790861,2 20,3.790861 20,6 H 17.333984 C 16.595318,6 16,6.636306 16,7.427734 V 9.572266 11 H 32 V 9.572266 7.427734 C 32,6.636306 31.404682,6 30.666016,6 H 28 C 28,3.790861 26.209139,2 24,2 Z m 0,2 c 1.104569,0 2,0.895431 2,2 -0.0014,0.141306 -0.01776,0.282066 -0.04883,0.419922 -0.01153,0.04405 -0.02456,0.0877 -0.03906,0.130859 -0.02433,0.09058 -0.05501,0.179345 -0.0918,0.265625 -0.02572,0.05264 -0.05374,0.10412 -0.08398,0.154297 -0.03865,0.07224 -0.0817,0.142029 -0.128906,0.208985 -0.03572,0.04723 -0.07352,0.09284 -0.113281,0.136718 -0.05546,0.06291 -0.114822,0.122275 -0.177735,0.177735 -0.04387,0.03977 -0.08949,0.07756 -0.136718,0.113281 -0.06696,0.04721 -0.136749,0.09026 -0.208985,0.128906 -0.05018,0.03024 -0.101659,0.05826 -0.154297,0.08398 -0.08628,0.03679 -0.17504,0.06746 -0.265625,0.0918 -0.04316,0.01451 -0.08681,0.02754 -0.130859,0.03906 C 24.282066,7.982237 24.141306,7.998605 24,8 23.858694,7.9986 23.717934,7.98224 23.580078,7.95117 23.536028,7.93964 23.492378,7.92661 23.449219,7.91211 23.358629,7.88778 23.269874,7.8571 23.183594,7.82031 23.130954,7.79459 23.079474,7.76657 23.029297,7.73633 22.957057,7.69768 22.887268,7.65463 22.820312,7.607424 22.773082,7.571704 22.727462,7.533904 22.683594,7.494143 22.620684,7.438683 22.561319,7.379321 22.505859,7.316408 22.466089,7.272538 22.428299,7.226918 22.392578,7.17969 22.345368,7.11273 22.302318,7.042941 22.263672,6.970705 c -0.03024,-0.05018 -0.05826,-0.101659 -0.08398,-0.154297 -0.03679,-0.08628 -0.06746,-0.17504 -0.0918,-0.265625 -0.01451,-0.04316 -0.02754,-0.08681 -0.03906,-0.130859 C 22.017762,6.282066 22.001392,6.141306 22.000002,6 c 0,-1.104569 0.895431,-2 2,-2 z"
     style="opacity:0.1;fill:#000000"
     id="path1-7" />
  <path
     style="fill:#989898"
     d="m 24,1 a 4,4 0 0 0 -4,4 4,4 0 0 0 4,4 4,4 0 0 0 4,-4 4,4 0 0 0 -4,-4 z m 0,2 a 2,2 0 0 1 2,2 2,2 0 0 1 -2,2 2,2 0 0 1 -2,-2 2,2 0 0 1 2,-2 z"
     id="path1" />
  <path
     style="fill:#989898"
     d="M 17.333984,5 C 16.595317,5 16,5.6363054 16,6.427734 V 8.572266 10 H 32 V 8.572266 6.427734 C 32,5.6363054 31.404683,5 30.666016,5 H 26 A 2,2 0 0 1 24,7 2,2 0 0 1 22,5 Z"
     id="path3" />
  <path
     style="opacity:0.1;fill:#ffffff"
     d="M 24,1 A 4,4 0 0 0 20,5 H 17.333984 C 16.595317,5 16,5.6363054 16,6.427734 v 1 C 16,6.636305 16.595317,6 17.333984,6 H 20 a 4,4 0 0 1 4,-4 4,4 0 0 1 4,4 h 2.666016 C 31.404683,6 32,6.636305 32,7.427734 v -1 C 32,5.6363054 31.404683,5 30.666016,5 H 28 A 4,4 0 0 0 24,1 Z m 1.935547,4.4960938 A 2,2 0 0 1 24,7 2,2 0 0 1 22.064453,5.5039062 2,2 0 0 0 22,6 2,2 0 0 0 24,8 2,2 0 0 0 26,6 2,2 0 0 0 25.93555,5.4960938 Z"
     id="path10" />
</svg>
