<?xml version="1.0" encoding="UTF-8" standalone="no"?>
<!-- Created with Inkscape (http://www.inkscape.org/) -->

<svg
   width="48"
   height="48"
   viewBox="0 0 48 48"
   version="1.1"
   id="svg5"
   inkscape:version="1.2.2 (1:1.2.2+202305151914+b0a8486541)"
   sodipodi:docname="gnome-tweak-tool.svg"
   xmlns:inkscape="http://www.inkscape.org/namespaces/inkscape"
   xmlns:sodipodi="http://sodipodi.sourceforge.net/DTD/sodipodi-0.dtd"
   xmlns="http://www.w3.org/2000/svg"
   xmlns:svg="http://www.w3.org/2000/svg">
  <sodipodi:namedview
     id="namedview7"
     pagecolor="#ffffff"
     bordercolor="#000000"
     borderopacity="0.25"
     inkscape:showpageshadow="2"
     inkscape:pageopacity="0.0"
     inkscape:pagecheckerboard="0"
     inkscape:deskcolor="#d1d1d1"
     inkscape:document-units="px"
     showgrid="false"
     inkscape:zoom="16.791667"
     inkscape:cx="23.970223"
     inkscape:cy="24"
     inkscape:window-width="1920"
     inkscape:window-height="1008"
     inkscape:window-x="0"
     inkscape:window-y="0"
     inkscape:window-maximized="1"
     inkscape:current-layer="svg5" />
  <defs
     id="defs2" />
  <rect
     style="opacity:0.2;fill:#000000;stroke-width:2.85714;stroke-linecap:square"
     id="rect234"
     width="40"
     height="40"
     x="4"
     y="5"
     ry="9" />
  <rect
     style="fill:#e4e4e4;fill-opacity:1;stroke-width:2.85714;stroke-linecap:square"
     id="rect396"
     width="40"
     height="40"
     x="4"
     y="4"
     ry="9" />
  <path
     d="m 17.000002,12 c -2.761424,0 -5,2.238576 -5,5 0,2.761424 2.238576,5 5,5 h 14 V 12 Z"
     style="fill:#3084e9"
     id="path6655" />
  <path
     d="m 17.000002,26 v 10 h 14 c 2.761424,0 5,-2.238576 5,-5 0,-2.761424 -2.238576,-5 -5,-5 z"
     style="fill:#aeaeae"
     id="path6683" />
  <path
     d="m 17.000002,12 c -2.761424,0 -5,2.238576 -5,5 2.28e-4,0.172231 0.0094,0.344336 0.02734,0.515625 0.2492,-2.560251 2.400311,-4.513656 4.97266,-4.515625 h 14 v -1 z m 0,14 v 1 h 14 c 2.56153,3.51e-4 4.708498,1.936502 4.972656,4.484375 0.01695,-0.160921 0.02607,-0.322569 0.02734,-0.484375 0,-2.761424 -2.238576,-5 -5,-5 z"
     style="opacity:0.1;fill:#000000"
     id="path6739" />
  <path
     d="m 31.000002,13 c -2.761424,0 -5,2.238576 -5,5 0,2.761424 2.238576,5 5,5 2.761424,0 5,-2.238576 5,-5 0,-2.761424 -2.238576,-5 -5,-5 z m -14,14 c -2.761424,0 -5,2.238576 -5,5 0,2.761424 2.238576,5 5,5 2.761424,0 5,-2.238576 5,-5 0,-2.761424 -2.238576,-5 -5,-5 z"
     style="opacity:0.2;fill:#000000"
     id="path6711" />
  <circle
     style="fill:#ffffff;stroke-width:2;stroke-linecap:square"
     id="path6811"
     cx="31.000004"
     cy="17"
     r="5" />
  <circle
     style="fill:#ffffff;stroke-width:2;stroke-linecap:square"
     id="path6813"
     cx="17.000002"
     cy="31"
     r="5" />
  <path
     id="path1040"
     style="opacity:0.2;fill:#ffffff;stroke-width:8;stroke-linecap:square"
     d="M 13,4 C 8.01401,4 4,8.01401 4,13 v 1 C 4,9.01401 8.01401,5 13,5 h 22 c 4.985992,0 9,4.01401 9,9 V 13 C 44,8.01401 39.985992,4 35,4 Z" />
</svg>
