<?xml version="1.0" encoding="UTF-8" standalone="no"?>
<!-- Created with Inkscape (http://www.inkscape.org/) -->

<svg
   width="48"
   height="48"
   viewBox="0 0 48 48"
   version="1.1"
   id="svg5"
   inkscape:version="1.3 (0e150ed6c4, 2023-07-21)"
   sodipodi:docname="gnome-mahjongg.svg"
   xmlns:inkscape="http://www.inkscape.org/namespaces/inkscape"
   xmlns:sodipodi="http://sodipodi.sourceforge.net/DTD/sodipodi-0.dtd"
   xmlns="http://www.w3.org/2000/svg"
   xmlns:svg="http://www.w3.org/2000/svg">
  <sodipodi:namedview
     id="namedview7"
     pagecolor="#ffffff"
     bordercolor="#000000"
     borderopacity="0.25"
     inkscape:showpageshadow="2"
     inkscape:pageopacity="0.0"
     inkscape:pagecheckerboard="0"
     inkscape:deskcolor="#d1d1d1"
     inkscape:document-units="px"
     showgrid="false"
     inkscape:zoom="16.3125"
     inkscape:cx="23.969349"
     inkscape:cy="24"
     inkscape:window-width="1920"
     inkscape:window-height="984"
     inkscape:window-x="0"
     inkscape:window-y="29"
     inkscape:window-maximized="1"
     inkscape:current-layer="svg5"
     showguides="false" />
  <defs
     id="defs2" />
  <rect
     style="opacity:0.2;fill:#000000;stroke-width:2.85714;stroke-linecap:square"
     id="rect234"
     width="40"
     height="40"
     x="4"
     y="5"
     ry="9" />
  <rect
     style="fill:#fff689;fill-opacity:1;stroke-width:2.85714;stroke-linecap:square"
     id="rect396"
     width="38"
     height="40"
     x="4"
     y="4"
     ry="9" />
  <path
     id="path304"
     style="opacity:1;fill:#ffe658;fill-opacity:1;stroke-width:1"
     d="m 24,4 v 40 h 11 c 4.985996,0 9,-4.014004 9,-9 V 13 C 44,8.014005 39.985996,4 35,4 Z" />
  <path
     style="opacity:0.1;fill:#000000;stroke-width:2"
     d="m 13.886719,17.216078 -0.871094,0.779298 0.01952,2.06836 L 7,19.884046 7.921875,21.13014 h 5.121094 l 0.01368,2.058594 h -2.808594 l -1.1933596,-0.570312 0.05078,5.869138 1.3066406,-0.673828 v -0.779294 h 2.67382 l 0.01562,1.996092 -5.9746092,-0.04882 1.6132814,1.636716 0.6914062,-0.597656 h 3.6777346 l 0.0098,1.376954 c 0,0.49455 0.460937,0.986328 0.460937,0.986328 l 1.279297,-0.935548 c 0,0 -0.613281,-0.385396 -0.613281,-0.830078 l -0.01562,-0.597662 h 6.570312 l -1.80665,-1.832032 -0.869142,0.882814 -3.921874,-0.03126 -0.05273,-2.00586 h 1.984376 l 0.544922,0.857422 0.949218,-0.96289 -0.384766,-0.441408 v -2.935546 l 0.84375,-0.517578 -2.021486,-1.091796 0.0118,1.246094 h -2.031329 l -0.04102,-2.058594 h 5.693359 l -1.804686,-1.83008 -0.871094,0.882814 -3.046876,-0.08984 z m 19.499999,0.33789 c 0,1.95009 -0.0386,3.781722 -0.308594,5.490236 L 27,23.01686 l 0.66211,1.02539 h 5.224608 c -0.65499,2.923544 -2.163672,5.455744 -5.656248,7.544922 L 27.462892,33.011 c 3.722552,-1.766834 6.10063,-4.523296 6.855466,-8.96875 h 6.615236 l -2.333986,-2.333984 -1.02539,1.357422 -3.117188,-0.0136 c 0.08068,-0.730494 0.1211,-1.502826 0.1211,-2.320312 l 1.160156,-0.263672 z m 3.044922,1.689454 -0.660156,0.330078 c 0.690018,0.636534 1.622522,1.15322 1.654296,2.11914 L 38.75,20.698502 c -0.532208,-0.785342 -1.445642,-1.095508 -2.31836,-1.45508 z m -26.019531,4.595704 h 2.648438 l 0.0078,1.039062 h -2.65625 z m 3.652344,0 h 2.021485 l 0.0098,1.039062 h -2.003906 z m 20.580077,0.798828 c 0,4.516094 5.064454,8.40625 5.064454,8.40625 L 41,30.99147 c 0,0 -5.626954,-2.712358 -5.626954,-6.189454 z m -24.232421,0.888672 h 2.66211 l 0.0059,0.857422 H 10.41215 Z m 3.697266,0 h 1.992187 l 0.0098,0.857422 h -1.978516 z"
     id="path2" />
  <path
     style="fill:#c58c00;stroke-width:2"
     d="m 13.886719,16.216 -0.871094,0.779298 0.01952,2.068538 L 7,18.88415 7.921875,20.130244 h 5.121094 l 0.01368,2.058414 H 10.248637 L 9.0552774,21.618346 9.1060594,27.487486 10.4127,26.813658 V 26.03436 h 2.673236 l 0.01562,1.996094 -5.9746092,-0.04882 1.6132814,1.63672 0.6914062,-0.597658 h 3.6777346 l 0.0098,1.376954 c 0,0.494552 0.460937,0.986328 0.460937,0.986328 l 1.279297,-0.935546 c 0,0 -0.613281,-0.385396 -0.613281,-0.830078 l -0.01562,-0.59766 h 6.570312 l -1.80665,-1.83204 -0.869142,0.882814 -3.921874,-0.03126 -0.05273,-2.005862 h 1.984198 l 0.544922,0.857422 0.94922,-0.962888 -0.384766,-0.441408 v -2.935546 l 0.84375,-0.517578 -2.021484,-1.091798 0.0118,1.246094 h -2.031154 l -0.04102,-2.058404 h 5.69336 l -1.804688,-1.830078 -0.871092,0.882814 -3.046877,-0.08984 z m -3.474027,6.623048 h 2.647855 l 0.0078,1.039062 H 10.41268 Z m 3.651761,0 h 2.021309 l 0.0098,1.039062 h -2.00373 z m -3.651761,1.6875 h 2.661527 l 0.0059,0.857422 h -2.667386 z m 3.696683,0 h 1.992013 l 0.0098,0.857422 h -1.97834 z"
     id="path3" />
  <path
     style="fill:#c58c00;stroke-width:2"
     d="m 33.386718,16.553892 c 0,1.95009 -0.0386,3.781718 -0.308594,5.490234 L 27,22.016782 l 0.66211,1.025392 h 5.224608 c -0.65499,2.923544 -2.163672,5.455742 -5.656248,7.544922 l 0.232422,1.423826 c 3.722552,-1.766832 6.10063,-4.523296 6.855466,-8.968748 h 6.615236 l -2.333986,-2.333988 -1.02539,1.357424 -3.117188,-0.0136 c 0.08068,-0.730492 0.1211,-1.502826 0.1211,-2.32031 l 1.16015,-0.263744 z m 3.044922,1.689452 -0.660156,0.330078 c 0.690018,0.636532 1.622522,1.153222 1.654296,2.119142 L 38.75,19.698422 c -0.532208,-0.785338 -1.445642,-1.095506 -2.31836,-1.455078 z m -1.78711,5.394532 c 0,4.516092 5.064454,8.40625 5.064454,8.40625 L 41,29.991392 c 0,0 -5.626954,-2.71236 -5.626954,-6.189454 z"
     id="path4" />
  <path
     id="path1040"
     style="opacity:0.2;fill:#ffffff;stroke-width:8;stroke-linecap:square"
     d="M 13,4 C 8.01401,4 4,8.01401 4,13 v 1 C 4,9.01401 8.01401,5 13,5 h 22 c 4.985992,0 9,4.01401 9,9 V 13 C 44,8.01401 39.985992,4 35,4 Z" />
</svg>
