<?xml version="1.0" encoding="UTF-8" standalone="no"?>
<!-- Created with Inkscape (http://www.inkscape.org/) -->

<svg
   width="48"
   height="48"
   viewBox="0 0 48 48"
   version="1.1"
   id="svg5"
   inkscape:version="1.2.2 (1:1.2.2+202305151914+b0a8486541)"
   sodipodi:docname="google-drive.svg"
   xmlns:inkscape="http://www.inkscape.org/namespaces/inkscape"
   xmlns:sodipodi="http://sodipodi.sourceforge.net/DTD/sodipodi-0.dtd"
   xmlns="http://www.w3.org/2000/svg"
   xmlns:svg="http://www.w3.org/2000/svg">
  <sodipodi:namedview
     id="namedview7"
     pagecolor="#ffffff"
     bordercolor="#000000"
     borderopacity="0.25"
     inkscape:showpageshadow="2"
     inkscape:pageopacity="0.0"
     inkscape:pagecheckerboard="0"
     inkscape:deskcolor="#d1d1d1"
     inkscape:document-units="px"
     showgrid="false"
     inkscape:zoom="16.791667"
     inkscape:cx="24"
     inkscape:cy="24"
     inkscape:window-width="1920"
     inkscape:window-height="1008"
     inkscape:window-x="0"
     inkscape:window-y="0"
     inkscape:window-maximized="1"
     inkscape:current-layer="svg5" />
  <defs
     id="defs2" />
  <rect
     style="opacity:0.2;fill:#000000;stroke-width:2.85714;stroke-linecap:square"
     id="rect234"
     width="40"
     height="40"
     x="4"
     y="5"
     ry="9" />
  <rect
     style="fill:#efefef;fill-opacity:1;stroke-width:2.85714;stroke-linecap:square"
     id="rect396"
     width="40"
     height="40"
     x="4"
     y="4"
     ry="9" />
  <g
     id="g2174"
     transform="translate(-363.09679,-37.379653)">
    <path
       style="opacity:0.2;fill:#000000"
       d="m 384.0245,49.379653 c -0.5315,0 -1.04764,0.150391 -1.49609,0.400391 -0.44845,0.266666 -0.82995,0.632942 -1.0957,1.099609 l -8.4375,14.666016 c -0.26087,0.456602 -0.39809,1.307671 -0.39844,1.833984 0,0.516666 0.13269,0.699349 0.39844,1.166016 l 1.79492,3.117187 1.27734,2.216797 c 0.26575,0.466667 0.64921,0.832942 1.09766,1.099609 0.44845,0.266667 0.96264,0.400391 1.49414,0.400391 h 16.875 c 0.5315,0 1.04569,-0.150391 1.49414,-0.400391 0.44845,-0.266667 0.83191,-0.632942 1.09766,-1.099609 l 0.53125,-0.916016 2.54101,-4.417968 c 0.26575,-0.466667 0.39844,-0.64935 0.39844,-1.166016 h -0.0176 c 0,-0.516667 -0.13269,-1.367318 -0.39844,-1.833984 l -4.20117,-7.332032 -4.21875,-7.333984 c -0.26575,-0.466667 -0.64725,-0.832943 -1.0957,-1.099609 -0.44845,-0.266667 -0.96459,-0.400391 -1.49609,-0.400391 z m 3.07227,8.333984 5.36523,9.666016 h -0.002 -10.72851 z"
       id="path1958" />
    <path
       style="fill:#00832d"
       d="m 387.09677,56.712986 c 1.79624,-2.479459 3.50361,-5.012486 4.56758,-7.933333 -0.44845,-0.266667 -0.96334,-0.4 -1.49484,-0.4 h -6.14548 c -0.5315,0 -1.04639,0.15 -1.49484,0.4 1.18889,2.731788 2.71145,5.376224 4.56758,7.933333 z"
       id="path1960"
       sodipodi:nodetypes="ccsscc" />
    <path
       style="fill:#0066da"
       d="m 374.78921,70.662987 1.27892,2.216666 c 0.26575,0.466667 0.64777,0.833333 1.09622,1.1 1.70818,-2.444767 3.81556,-4.33768 4.56759,-7.6 h -9.13517 c 0,0.516666 0.13288,0.7 0.39863,1.166667 z"
       id="path1962"
       sodipodi:nodetypes="ccccccc" />
    <path
       style="fill:#00ac47"
       d="m 387.09677,56.712986 -4.56758,-7.933333 c -0.44846,0.266667 -0.83047,0.633333 -1.09622,1.1 L 372.9954,64.54632 c -0.26087,0.456602 -0.39828,1.30702 -0.39863,1.833333 h 9.13517 z"
       id="path1964"
       sodipodi:nodetypes="ccccccc" />
    <path
       style="fill:#ea4335"
       d="m 397.02919,73.979653 c 0.44845,-0.266667 0.83047,-0.633333 1.09622,-1.1 l 0.5315,-0.916666 2.54123,-4.416667 c 0.26575,-0.466667 0.39863,-0.650001 0.39863,-1.166667 h -9.13583 l 0.63585,3.999997 z"
       id="path1966"
       sodipodi:nodetypes="cccccccc" />
    <path
       style="fill:#2684fc"
       d="m 392.4616,66.379653 h -10.72966 l -4.56759,7.6 c 0.44846,0.266667 0.96335,0.4 1.49485,0.4 h 16.87514 c 0.5315,0 1.04639,-0.15 1.49485,-0.4 z"
       id="path1968"
       sodipodi:nodetypes="cccsscc" />
    <path
       style="fill:#ffba00"
       d="m 396.97936,57.212986 -4.21879,-7.333333 c -0.26575,-0.466667 -0.64776,-0.833333 -1.09622,-1.1 l -4.56758,7.933333 5.36483,9.666667 h 9.11856 c 0,-0.516667 -0.13288,-1.366667 -0.39862,-1.833333 z"
       id="path1970"
       sodipodi:nodetypes="cccccccc" />
    <path
       style="opacity:0.2;fill:#ffffff"
       d="m 384.0245,48.379653 c -0.5315,0 -1.04764,0.150391 -1.49609,0.400391 -0.44845,0.266666 -0.82995,0.632942 -1.0957,1.099609 l -8.4375,14.666016 c -0.26087,0.456602 -0.39809,1.307671 -0.39844,1.833984 0,0.166856 0.0192,0.294105 0.0469,0.412109 0.059,-0.448322 0.17458,-0.936309 0.35157,-1.246093 l 8.4375,-14.666016 c 0.26575,-0.466667 0.64725,-0.832943 1.0957,-1.099609 0.44845,-0.25 0.96459,-0.400391 1.49609,-0.400391 h 6.14454 c 0.5315,0 1.04764,0.133724 1.49609,0.400391 0.44845,0.266666 0.82995,0.632942 1.0957,1.099609 l 4.21875,7.333984 4.20117,7.332032 c 0.18519,0.325201 0.30134,0.833888 0.35743,1.289062 0.035,-0.129104 0.0586,-0.267504 0.0586,-0.455078 h -0.0176 c 0,-0.516667 -0.13269,-1.367318 -0.39844,-1.833984 l -4.20117,-7.332032 -4.21875,-7.333984 c -0.26575,-0.466667 -0.64725,-0.832943 -1.0957,-1.099609 -0.44845,-0.266667 -0.96459,-0.400391 -1.49609,-0.400391 z m -1.73828,18 -0.55468,1 h 10.72851 0.002 l -0.55469,-1 z"
       id="path1972" />
  </g>
  <path
     id="path1040"
     style="opacity:0.2;fill:#ffffff;stroke-width:8;stroke-linecap:square"
     d="m 13,3.9999999 c -4.9859898,0 -8.9999997,4.01401 -8.9999997,9.0000001 v 1 C 4.0000003,9.0140099 8.0140102,4.9999999 13,4.9999999 h 22 c 4.985992,0 9,4.01401 9,9.0000001 V 13 C 44,8.0140099 39.985992,3.9999999 35,3.9999999 Z" />
</svg>
