<?xml version="1.0" encoding="UTF-8" standalone="no"?>
<!-- Created with Inkscape (http://www.inkscape.org/) -->

<svg
   width="48"
   height="48"
   viewBox="0 0 48 48"
   version="1.1"
   id="svg5"
   inkscape:version="1.2.2 (1:1.2.2+202305151914+b0a8486541)"
   sodipodi:docname="google-chrome-beta.svg"
   xmlns:inkscape="http://www.inkscape.org/namespaces/inkscape"
   xmlns:sodipodi="http://sodipodi.sourceforge.net/DTD/sodipodi-0.dtd"
   xmlns="http://www.w3.org/2000/svg"
   xmlns:svg="http://www.w3.org/2000/svg">
  <sodipodi:namedview
     id="namedview7"
     pagecolor="#ffffff"
     bordercolor="#000000"
     borderopacity="0.25"
     inkscape:showpageshadow="2"
     inkscape:pageopacity="0.0"
     inkscape:pagecheckerboard="0"
     inkscape:deskcolor="#d1d1d1"
     inkscape:document-units="px"
     showgrid="false"
     inkscape:zoom="16.791667"
     inkscape:cx="23.970223"
     inkscape:cy="24"
     inkscape:window-width="1920"
     inkscape:window-height="1008"
     inkscape:window-x="0"
     inkscape:window-y="0"
     inkscape:window-maximized="1"
     inkscape:current-layer="svg5" />
  <defs
     id="defs2" />
  <rect
     style="opacity:0.2;fill:#000000;stroke-width:2.85714;stroke-linecap:square"
     id="rect234"
     width="40"
     height="40"
     x="4"
     y="5"
     ry="9" />
  <rect
     style="fill:#efefef;fill-opacity:1;stroke-width:2.85714;stroke-linecap:square"
     id="rect396"
     width="40"
     height="40"
     x="4"
     y="4"
     ry="9" />
  <g
     id="g2558">
    <ellipse
       style="opacity:0.2;fill:#000000;stroke-width:6;stroke-linecap:square"
       id="path1441"
       cx="24"
       cy="25.000002"
       rx="15"
       ry="15.000002" />
    <path
       id="path6246"
       style="fill:#dd4d3e;fill-opacity:1;stroke-width:0.0585935"
       d="m 24,9 c -6.05765,0.012015 -11.030411,3.439109 -13.599609,8.6875 l 2.947265,6.816406 3.36445,8.091136 L 24,24 V 16 H 36.683594 C 33.937416,11.644363 29.149083,9.0017107 24,9 Z" />
    <path
       id="path6306"
       style="fill:#109f5b;fill-opacity:1;stroke-width:0.0585935"
       d="M 10.400391 17.6875 A 15 15.000002 0 0 0 9 24 A 15 15.000002 0 0 0 24 39 A 15 15.000002 0 0 0 30.761719 37.355469 L 30.578125 35.482422 L 32.96875 25.810547 L 24 24 L 17.78125 29.033203 L 10.400391 17.6875 z " />
    <path
       id="path6218"
       style="fill:#ffce41;fill-opacity:1;stroke-width:0.0585935"
       d="M 24 16 L 24 17 L 24 24 L 31.021484 27.833984 L 25.041016 38.925781 A 15 15.000002 0 0 0 39 24 A 15 15.000002 0 0 0 36.683594 16 L 24 16 z " />
    <circle
       style="opacity:0.2;fill:#000000;stroke-width:9.33325;stroke-linecap:square"
       id="path3779"
       cx="24"
       cy="25"
       r="8" />
    <circle
       style="fill:#ffffff;fill-opacity:1;stroke-width:6.99994;stroke-linecap:square"
       id="path4264"
       cx="24"
       cy="24"
       r="8" />
    <circle
       style="fill:#4688f4;fill-opacity:1;stroke-width:7.99999;stroke-linecap:square"
       id="path4594"
       cx="24"
       cy="24"
       r="6" />
    <path
       id="path1495"
       style="opacity:0.2;fill:#f9f9f9;stroke-width:6;stroke-linecap:square"
       d="M 24,9 A 15,15.000002 0 0 0 9,24 15,15.000002 0 0 0 9.035156,24.503906 15,15.000002 0 0 1 24,10 15,15.000002 0 0 1 38.982422,24.259766 15,15.000002 0 0 0 39,24 15,15.000002 0 0 0 24,9 Z" />
    <path
       id="path2271"
       style="opacity:1;fill:#4f4f4f;fill-opacity:1;stroke-width:2;stroke-linecap:square"
       d="M 9.3398438 27 A 15 15.000002 0 0 0 24 39 A 15 15.000002 0 0 0 38.660156 27 L 9.3398438 27 z " />
    <path
       d="m 17,30 v 6 h 2.667969 c 0.738575,0 1.330078,-0.927498 1.330078,-1.666016 0,-0.461006 -0.232162,-1.297962 -0.585938,-1.634765 0.353776,-0.336803 0.585938,-0.572197 0.585938,-1.033203 C 20.998047,30.927498 20.406544,30 19.667969,30 m -2.001954,0.667969 h 2.001954 c 0.380817,0 0.664062,0.617259 0.664062,0.998047 0,0.380788 -0.28372,0.682167 -0.664062,0.701172 H 17.666015 Z M 25.964844,31 c 0,0.431926 0.0057,0.64484 0.0059,1 h -0.671875 v 0.666016 h 0.675781 c 0.0074,1.154663 0.03239,2.026533 0.169922,2.507812 0.09945,0.348038 0.316909,0.619344 0.597657,0.728516 0.280709,0.109171 0.557291,0.09766 0.890583,0.09766 v -0.667969 c -0.333292,0 -0.556187,-0.0122 -0.65039,-0.04883 -0.09421,-0.03663 -0.128114,-0.05779 -0.195313,-0.292969 -0.09283,-0.324863 -0.123731,-1.174264 -0.138671,-2.324218 h 0.65039 V 32 h -0.65625 c -0.002,-0.356769 -0.0098,-0.567027 -0.0098,-1 z m -2.240235,1.001953 c -0.34445,0 -0.64818,0.07915 -0.910156,0.242188 -0.257124,0.163036 -0.457974,0.395169 -0.603515,0.697265 C 22.070246,33.243503 22,33.607319 22,34.029297 c 0,0.431567 0.07718,0.793429 0.232422,1.085937 0.160097,0.292506 0.380727,0.513459 0.662109,0.66211 C 23.175912,35.925995 23.503394,36 23.876953,36 c 0.266828,0 0.497349,-0.02129 0.691406,-0.06445 0.194056,-0.03836 0.390935,-0.101191 0.589844,-0.1875 v -0.554688 c -0.20376,0.08631 -0.403599,0.155175 -0.597656,0.203125 -0.189205,0.04316 -0.406874,0.06445 -0.654297,0.06445 -0.388112,0 -0.691843,-0.112517 -0.910156,-0.337891 -0.213464,-0.23017 -0.324286,-0.698403 -0.333985,-1.134766 h 0.0039 V 34 h 2.666015 v -0.259766 c 0,-0.35005 -0.06432,-0.655122 -0.195312,-0.914062 -0.126138,-0.263729 -0.310164,-0.465519 -0.552735,-0.609375 -0.242571,-0.143855 -0.529479,-0.214843 -0.859375,-0.214844 z m 6.097657,0 c -0.266828,0 -0.499305,0.0213 -0.69336,0.06445 -0.194056,0.03837 -0.390935,0.09924 -0.589844,0.185547 v 0.554688 c 0.20376,-0.08631 0.4036,-0.155176 0.597657,-0.203125 0.189205,-0.04316 0.408828,-0.06445 0.65625,-0.06445 0.388113,0 0.689889,0.112517 0.908203,0.337891 0.101532,0.109477 0.179221,0.274963 0.234375,0.462891 l -0.416016,0.01367 c -0.731977,0.02139 -1.27298,0.149511 -1.625,0.384765 -0.352019,0.229908 -0.529297,0.558595 -0.529297,0.986328 0,0.438424 0.136093,0.762184 0.404297,0.970703 C 29.037736,35.898487 29.375307,36 29.783203,36 c 0.374369,0 0.668802,-0.05763 0.886719,-0.169922 0.124558,-0.06417 0.24385,-0.153254 0.361328,-0.257812 v 0.07226 0.355469 h 0.666016 v -2 h -0.002 c 7.9e-5,-0.0102 0.002,-0.01902 0.002,-0.0293 0,-0.431568 -0.07719,-0.793429 -0.232422,-1.085937 -0.160097,-0.292507 -0.380729,-0.51346 -0.66211,-0.66211 -0.281383,-0.148646 -0.60691,-0.220698 -0.980468,-0.220698 z m -6.105469,0.515625 c 0.325044,0 0.564449,0.102401 0.714844,0.308594 0.101957,0.136534 0.15634,0.312029 0.191406,0.505859 h -1.882813 c 0.05353,-0.205324 0.129526,-0.387221 0.25,-0.519531 0.179503,-0.196603 0.420924,-0.294922 0.726563,-0.294922 z m -6.050782,0.515625 h 2.001954 c 0.380817,0 0.664062,0.919993 0.664062,1.300781 0,0.380788 -0.283245,0.998047 -0.664062,0.998047 h -2.001954 z m 13.355469,0.794922 c 0.005,0.05796 0.0102,0.114293 0.01172,0.171875 h -0.002 v 0.01172 0.974609 c -0.04292,0.05272 -0.08809,0.103416 -0.142578,0.146484 -0.251442,0.197828 -0.565083,0.298829 -0.939453,0.298829 -0.240266,0 -0.439249,-0.05764 -0.595703,-0.169922 -0.150865,-0.112281 -0.22461,-0.286743 -0.22461,-0.527344 0,-0.27268 0.104078,-0.48506 0.316406,-0.634766 0.217916,-0.149708 0.607255,-0.236426 1.166016,-0.257812 z"
       style="fill:#000000;opacity:0.2"
       id="path2972" />
    <path
       d="m 17,29 v 6 h 2.667969 c 0.738575,0 1.330078,-0.927498 1.330078,-1.666016 0,-0.461006 -0.232162,-1.297962 -0.585938,-1.634765 0.353776,-0.336803 0.585938,-0.572197 0.585938,-1.033203 C 20.998047,29.927498 20.406544,29 19.667969,29 m -2.001954,0.667969 h 2.001954 c 0.380817,0 0.664062,0.617259 0.664062,0.998047 0,0.380788 -0.28372,0.682167 -0.664062,0.701172 H 17.666015 Z M 25.964844,30 c 0,0.431926 0.0057,0.64484 0.0059,1 h -0.671875 v 0.666016 h 0.675781 c 0.0074,1.154663 0.03239,2.026533 0.169922,2.507812 0.09945,0.348038 0.316909,0.619344 0.597657,0.728516 0.280709,0.109171 0.557291,0.09766 0.890583,0.09766 v -0.667969 c -0.333292,0 -0.556187,-0.0122 -0.65039,-0.04883 -0.09421,-0.03663 -0.128114,-0.05779 -0.195313,-0.292969 -0.09283,-0.324863 -0.123731,-1.174264 -0.138671,-2.324218 h 0.65039 V 31 h -0.65625 c -0.002,-0.356769 -0.0098,-0.567027 -0.0098,-1 z m -2.240235,1.001953 c -0.34445,0 -0.64818,0.07915 -0.910156,0.242188 -0.257124,0.163036 -0.457974,0.395169 -0.603515,0.697265 C 22.070246,32.243503 22,32.607319 22,33.029297 c 0,0.431567 0.07718,0.793429 0.232422,1.085937 0.160097,0.292506 0.380727,0.513459 0.662109,0.66211 C 23.175912,34.925995 23.503394,35 23.876953,35 c 0.266828,0 0.497349,-0.02129 0.691406,-0.06445 0.194056,-0.03836 0.390935,-0.101191 0.589844,-0.1875 v -0.554688 c -0.20376,0.08631 -0.403599,0.155175 -0.597656,0.203125 -0.189205,0.04316 -0.406874,0.06445 -0.654297,0.06445 -0.388112,0 -0.691843,-0.112517 -0.910156,-0.337891 -0.213464,-0.23017 -0.324286,-0.698403 -0.333985,-1.134766 h 0.0039 V 33 h 2.666015 v -0.259766 c 0,-0.35005 -0.06432,-0.655122 -0.195312,-0.914062 -0.126138,-0.263729 -0.310164,-0.465519 -0.552735,-0.609375 -0.242571,-0.143855 -0.529479,-0.214843 -0.859375,-0.214844 z m 6.097657,0 c -0.266828,0 -0.499305,0.0213 -0.69336,0.06445 -0.194056,0.03837 -0.390935,0.09924 -0.589844,0.185547 v 0.554688 c 0.20376,-0.08631 0.4036,-0.155176 0.597657,-0.203125 0.189205,-0.04316 0.408828,-0.06445 0.65625,-0.06445 0.388113,0 0.689889,0.112517 0.908203,0.337891 0.101532,0.109477 0.179221,0.274963 0.234375,0.462891 l -0.416016,0.01367 c -0.731977,0.02139 -1.27298,0.149511 -1.625,0.384765 -0.352019,0.229908 -0.529297,0.558595 -0.529297,0.986328 0,0.438424 0.136093,0.762184 0.404297,0.970703 C 29.037736,34.898487 29.375307,35 29.783203,35 c 0.374369,0 0.668802,-0.05763 0.886719,-0.169922 0.124558,-0.06417 0.24385,-0.153254 0.361328,-0.257812 v 0.07226 0.355469 h 0.666016 v -2 h -0.002 c 7.9e-5,-0.0102 0.002,-0.01902 0.002,-0.0293 0,-0.431568 -0.07719,-0.793429 -0.232422,-1.085937 -0.160097,-0.292507 -0.380729,-0.51346 -0.66211,-0.66211 -0.281383,-0.148646 -0.60691,-0.220698 -0.980468,-0.220698 z m -6.105469,0.515625 c 0.325044,0 0.564449,0.102401 0.714844,0.308594 0.101957,0.136534 0.15634,0.312029 0.191406,0.505859 h -1.882813 c 0.05353,-0.205324 0.129526,-0.387221 0.25,-0.519531 0.179503,-0.196603 0.420924,-0.294922 0.726563,-0.294922 z m -6.050782,0.515625 h 2.001954 c 0.380817,0 0.664062,0.919993 0.664062,1.300781 0,0.380788 -0.283245,0.998047 -0.664062,0.998047 h -2.001954 z m 13.355469,0.794922 c 0.005,0.05796 0.0102,0.114293 0.01172,0.171875 h -0.002 v 0.01172 0.974609 c -0.04292,0.05272 -0.08809,0.103416 -0.142578,0.146484 -0.251442,0.197828 -0.565083,0.298829 -0.939453,0.298829 -0.240266,0 -0.439249,-0.05764 -0.595703,-0.169922 -0.150865,-0.112281 -0.22461,-0.286743 -0.22461,-0.527344 0,-0.27268 0.104078,-0.48506 0.316406,-0.634766 0.217916,-0.149708 0.607255,-0.236426 1.166016,-0.257812 z"
       style="fill:#ffffff"
       id="path2917" />
  </g>
  <path
     id="path1040"
     style="opacity:0.2;fill:#ffffff;stroke-width:8;stroke-linecap:square"
     d="m 13,3.9999999 c -4.9859898,0 -8.9999997,4.01401 -8.9999997,9.0000001 v 1 C 4.0000003,9.0140099 8.0140102,4.9999999 13,4.9999999 h 22 c 4.985992,0 9,4.01401 9,9.0000001 V 13 C 44,8.0140099 39.985992,3.9999999 35,3.9999999 Z" />
</svg>
