<?xml version="1.0" encoding="UTF-8" standalone="no"?>
<!-- Created with Inkscape (http://www.inkscape.org/) -->

<svg
   width="48"
   height="48"
   viewBox="0 0 48 48"
   version="1.1"
   id="svg5"
   inkscape:version="1.4.3 (0d15f75042, 2025-12-25)"
   sodipodi:docname="gta-sa.svg"
   xmlns:inkscape="http://www.inkscape.org/namespaces/inkscape"
   xmlns:sodipodi="http://sodipodi.sourceforge.net/DTD/sodipodi-0.dtd"
   xmlns="http://www.w3.org/2000/svg"
   xmlns:svg="http://www.w3.org/2000/svg">
  <sodipodi:namedview
     id="namedview7"
     pagecolor="#ffffff"
     bordercolor="#000000"
     borderopacity="0.25"
     inkscape:showpageshadow="2"
     inkscape:pageopacity="0.0"
     inkscape:pagecheckerboard="0"
     inkscape:deskcolor="#d1d1d1"
     inkscape:document-units="px"
     showgrid="false"
     inkscape:zoom="16.8125"
     inkscape:cx="23.97026"
     inkscape:cy="24"
     inkscape:window-width="1920"
     inkscape:window-height="1010"
     inkscape:window-x="0"
     inkscape:window-y="0"
     inkscape:window-maximized="1"
     inkscape:current-layer="svg5" />
  <defs
     id="defs2" />
  <rect
     style="opacity:0.2;fill:#000000;stroke-width:2.85714;stroke-linecap:square"
     id="rect234"
     width="40"
     height="40"
     x="4"
     y="4.999999"
     ry="9" />
  <rect
     style="fill:#cce7b0;fill-opacity:1;stroke-width:2.85714;stroke-linecap:square"
     id="rect396"
     width="40"
     height="40"
     x="4"
     y="4"
     ry="9" />
  <path
     id="path1040"
     style="opacity:0.2;fill:#ffffff;stroke-width:8;stroke-linecap:square"
     d="m 13,4.0000002 c -4.98599,0 -9,4.01401 -9,8.9999998 v 1 C 4,9.0140102 8.01401,5.0000002 13,5.0000002 h 22 c 4.985992,0 9,4.01401 9,8.9999998 V 13 C 44,8.0140104 39.985992,4.0000002 35,4.0000002 Z" />
  <path
     id="path1"
     d="m 16.089998,14 c -1.015575,0.02404 -1.674129,0.479933 -1.985435,0.717466 -0.307158,0.234371 -0.450592,0.389132 -0.619714,0.556109 l -0.003,0.0029 c -0.0016,0.0016 -0.0042,0.0041 -0.0059,0.0057 -0.503423,0.493179 -0.887619,0.957233 -1.277595,1.504101 -0.005,0.0068 -0.0098,0.0134 -0.0147,0.02018 -0.506315,0.722466 -0.773158,1.355382 -1.039714,2.048652 -0.195906,0.509516 -0.308283,1.086774 -0.402373,1.749004 -0.583422,0.861542 -1.0222444,1.717216 -1.1689398,2.587488 -0.183466,1.088428 -0.2627344,2.181544 0.3406964,3.535468 0.00195,0.0038 0.0039,0.0074 0.00586,0.0112 0.09459,0.209442 0.3168404,0.313466 0.4346804,0.507128 C 9.567282,28.241748 9,29.391342 9,30.622744 c 0,1.723952 0.9098534,3.591866 2.53466,4.480564 1.621908,0.887116 3.53801,0.722332 5.084004,-0.003 0.08148,-0.0381 0.1492,-0.08684 0.22615,-0.12388 0.09212,0.0587 0.19376,0.13122 0.281956,0.18442 0.1323,0.0798 0.253832,0.15194 0.411184,0.233392 0.07866,0.04074 0.1636,0.08286 0.302514,0.14118 0.13892,0.05832 0.212176,0.1635 0.916352,0.23628 0.10536,0.011 0.21123,0.0172 0.317202,0.0174 1.310312,0 1.372774,-0.309206 1.568376,-0.420682 0.1956,-0.11148 0.295808,-0.18658 0.390624,-0.256438 0.18964,-0.1397 0.327006,-0.256986 0.4758,-0.386108 0.11064,-0.09602 0.234024,-0.219834 0.349508,-0.325596 0.213556,0.296196 0.277314,0.673148 0.58447,0.901874 1.093326,0.813506 3.378064,0.987 4.6317,0.1383 0.0138,-0.0084 0.02748,-0.0172 0.04112,-0.02586 0.19768,-0.1386 0.323508,-0.462772 0.528668,-0.7117 l 0.842928,0.469662 c 1.09547,0.61207 2.463766,0.48899 3.427516,-0.308306 l 0.1263,-0.10374 c 0.485514,0.274642 0.94557,0.570514 1.891448,0.570514 1.358222,0 1.859644,-0.4153 2.431864,-0.775092 0.568818,-0.357656 1.067158,-0.767042 1.544878,-1.36866 v -0.003 c 0.361348,-0.452844 0.720834,-0.845194 1.001532,-1.737476 0.279632,-0.8889 -0.11476,-2.742966 -0.945726,-3.498008 -0.03012,-0.02876 -0.15076,-0.10004 -0.19678,-0.14118 -0.0104,-0.925858 -0.0178,-1.931022 -0.0178,-3.160888 v -4.471878 l -0.208528,0.22475 c 0.0158,-0.0182 0.03152,-0.0363 0.047,-0.05476 0.257972,-0.29082 0.471296,-0.496606 0.769504,-1.022892 0.1491,-0.263132 0.365452,-0.626018 0.422932,-1.351364 0.05754,-0.724958 -0.34101,-1.884254 -0.954536,-2.457828 -0.728608,-0.681161 -1.613758,-0.833896 -2.129348,-0.838484 -0.515592,-0.0045 -0.815644,0.0842 -1.057334,0.158478 -0.483374,0.148536 -0.743944,0.297138 -1.016212,0.452378 -0.0074,0.0043 -0.0158,0.01012 -0.02346,0.01438 -0.31488,0.03029 -0.15854,-0.05664 -0.572632,0.262169 -0.645406,-0.307446 -1.203746,-0.779536 -1.879698,-0.89621 h -0.003 c -0.51036,-0.09112 -1.038976,-0.170596 -1.6418,-0.152714 -0.596064,0.01776 -1.108762,0.126046 -1.60656,0.242037 -1.863846,0.419777 -3.451922,1.58577 -4.608166,3.062918 -0.08324,-0.204128 0.02548,-0.36849 -0.10868,-0.547464 -0.640722,-0.854576 -1.009868,-0.889962 -1.036774,-0.898994 -0.19566,-0.12648 -0.573504,-0.617015 -1.956064,-0.590686 -0.03658,6.98e-4 -0.0518,0.02379 -0.0881,0.02593 -0.394904,-0.22641 -0.838112,-0.483156 -2.088176,-1.244643 -0.02084,-0.01276 -0.04332,-0.02448 -0.06462,-0.03746 -0.297302,-0.191052 -0.921718,-0.536648 -1.841516,-0.521531 h -0.003 -0.003 V 14 h -0.003 -0.003 z"
     style="opacity:0.2;fill:#000000;stroke-width:1.48323" />
  <path
     id="path2"
     style="fill:#dfdfdf;stroke-width:1.48323"
     d="m 16.089998,13 c -1.015574,0.02403 -1.674129,0.479932 -1.985435,0.717466 -0.307158,0.23437 -0.450592,0.389131 -0.619713,0.556109 l -0.0029,0.0029 c -0.0017,0.0016 -0.0042,0.0041 -0.0059,0.0058 -0.503436,0.493175 -0.887634,0.957229 -1.27761,1.504098 -0.0049,0.0067 -0.0098,0.01334 -0.01468,0.02018 -0.506312,0.722456 -0.773154,1.355374 -1.03971,2.048642 -0.195906,0.509518 -0.308282,1.086776 -0.402373,1.749006 -0.583423,0.861544 -1.0222444,1.717214 -1.1689394,2.587488 -0.183466,1.088426 -0.2627374,2.181546 0.3406958,3.535468 0.00195,0.0038 0.0039,0.0074 0.0059,0.0112 0.09459,0.209438 0.3168406,0.313464 0.4346806,0.507126 C 9.5672816,27.24175 9,28.391342 9,29.622744 c 0,1.723954 0.9098532,3.591866 2.53466,4.480564 1.621908,0.887116 3.53801,0.722332 5.084004,-0.003 0.08148,-0.0381 0.1492,-0.08684 0.226152,-0.12388 0.09212,0.0587 0.19376,0.13122 0.281954,0.18442 0.1323,0.0798 0.253834,0.15194 0.411184,0.233392 0.07866,0.04074 0.1636,0.08286 0.302514,0.14118 0.13892,0.05832 0.212178,0.16348 0.916354,0.23628 0.10536,0.011 0.21123,0.0172 0.3172,0.0174 1.310312,0 1.372774,-0.309206 1.568376,-0.420684 0.1956,-0.11148 0.29581,-0.18658 0.390624,-0.256436 0.18964,-0.1397 0.327006,-0.256986 0.4758,-0.386108 0.11064,-0.096 0.234026,-0.219834 0.34951,-0.325596 0.213556,0.296196 0.277312,0.673148 0.584468,0.901874 1.093328,0.813506 3.378066,0.987 4.631702,0.1383 0.0138,-0.0084 0.02748,-0.0172 0.04112,-0.02586 0.1977,-0.1386 0.323508,-0.462772 0.528666,-0.7117 l 0.842928,0.469662 c 1.09547,0.61207 2.463764,0.48899 3.427514,-0.308306 l 0.1263,-0.10374 c 0.485512,0.274642 0.945568,0.570514 1.89145,0.570514 1.35822,0 1.859644,-0.4153 2.431862,-0.775092 0.568816,-0.357656 1.067158,-0.767042 1.54488,-1.36866 v -0.003 c 0.36135,-0.452844 0.720834,-0.845194 1.001532,-1.737476 0.279632,-0.888902 -0.11476,-2.742964 -0.945726,-3.498008 -0.03008,-0.02876 -0.15076,-0.10004 -0.19678,-0.14118 -0.0104,-0.925854 -0.0178,-1.931022 -0.0178,-3.160888 V 19.17484 l -0.208528,0.224748 c 0.0158,-0.0182 0.03152,-0.0363 0.047,-0.05476 0.257972,-0.290818 0.471294,-0.496608 0.769502,-1.022892 0.1491,-0.26314 0.365452,-0.626026 0.422934,-1.351372 0.05754,-0.724958 -0.341012,-1.884253 -0.954536,-2.457828 -0.72861,-0.681161 -1.613758,-0.833897 -2.12935,-0.838484 -0.515592,-0.0046 -0.815642,0.08421 -1.057332,0.158478 -0.483374,0.148536 -0.743946,0.297137 -1.016216,0.452378 -0.0074,0.0043 -0.0158,0.01006 -0.02346,0.01442 -0.31497,0.03033 -0.15864,-0.0566 -0.572724,0.262207 -0.645344,-0.307457 -1.203686,-0.779546 -1.87964,-0.89622 h -0.003 c -0.510354,-0.09112 -1.038968,-0.1706 -1.641794,-0.152716 -0.596062,0.01778 -1.108758,0.12604 -1.606558,0.242037 -1.863886,0.419786 -3.451964,1.585779 -4.608206,3.062926 -0.08324,-0.204126 0.02548,-0.36849 -0.10868,-0.547464 -0.640652,-0.854613 -1.009796,-0.889998 -1.036704,-0.899031 -0.195664,-0.126485 -0.573502,-0.617015 -1.956064,-0.590685 -0.03658,6.97e-4 -0.0518,0.02379 -0.0881,0.02593 -0.394904,-0.226411 -0.83811,-0.483156 -2.088176,-1.244643 -0.02084,-0.0127 -0.04332,-0.02448 -0.06462,-0.03746 -0.297308,-0.191052 -0.921726,-0.536648 -1.841524,-0.521531 h -0.003 -0.003 V 13 h -0.003 -0.003 z" />
  <path
     id="path3"
     style="opacity:0.2;fill:#ffffff;stroke-width:1.48323"
     d="m 16.089844,13 c -1.015575,0.02403 -1.673069,0.481216 -1.984375,0.71875 -0.307158,0.23437 -0.451973,0.38771 -0.621094,0.554688 l -0.0039,0.0039 -0.0039,0.0039 c -0.503436,0.493175 -0.887367,0.957037 -1.277344,1.503906 -0.0049,0.0067 -0.01074,0.01268 -0.01562,0.01954 -0.506312,0.722456 -0.772506,1.357512 -1.039062,2.05078 -0.195906,0.509518 -0.308253,1.08777 -0.402344,1.75 -0.583422,0.861544 -1.0212736,1.715664 -1.1679686,2.585938 -0.101254,0.600692 -0.172746,1.20496 -0.113282,1.851562 0.023508,-0.286428 0.065852,-0.570186 0.113282,-0.851562 0.146694,-0.870274 0.5845466,-1.724394 1.1679686,-2.585938 0.09409,-0.66223 0.206438,-1.240482 0.402344,-1.749998 0.266556,-0.69327 0.53275,-1.328324 1.039062,-2.050782 0.0049,-0.0068 0.01068,-0.0128 0.01562,-0.0196 0.389964,-0.546856 0.773895,-1.010719 1.277331,-1.503894 l 0.0039,-0.0039 0.0039,-0.0039 c 0.169134,-0.16693 0.313949,-0.32027 0.621107,-0.55464 0.311306,-0.237534 0.9688,-0.694718 1.984375,-0.71875 h 0.004 0.0038 v 0.0039 h 0.004 0.0038 c 0.919798,-0.01512 1.542538,0.32848 1.839844,0.519531 0.0213,0.01298 0.04556,0.02637 0.0664,0.03906 1.250066,0.761487 1.691038,1.015777 2.085936,1.242188 0.03176,-0.0019 0.0502,-0.01852 0.07812,-0.02344 0.0022,-2.08e-4 0.0094,4.4e-5 0.0118,0 1.382562,-0.02633 1.761366,0.463359 1.957032,0.589843 0.0269,0.009 0.394504,0.04382 1.035156,0.898438 0.13416,0.17898 0.02614,0.34275 0.10938,0.546876 1.156242,-1.477148 2.74549,-2.642723 4.609376,-3.062501 0.4978,-0.115998 1.009406,-0.224407 1.605468,-0.242187 0.602826,-0.01788 1.130272,0.06122 1.640626,0.152344 h 0.004 c 0.675954,0.116674 1.233562,0.590981 1.878906,0.898437 0.414084,-0.318802 0.259248,-0.231384 0.574218,-0.261718 0.0076,-0.0044 0.016,-0.0113 0.02344,-0.01562 0.27227,-0.155242 0.532252,-0.304589 1.015624,-0.453125 0.241692,-0.07427 0.543002,-0.16085 1.058594,-0.15625 0.515592,0.0046 1.400298,0.154776 2.128906,0.835937 0.452096,0.422658 0.787998,1.165811 0.910158,1.816407 0.0192,-0.10808 0.03268,-0.22959 0.04296,-0.359376 0.05747,-0.724956 -0.339668,-1.883456 -0.953194,-2.457031 -0.728608,-0.681161 -1.613314,-0.83135 -2.128906,-0.835937 -0.515592,-0.0046 -0.816904,0.08198 -1.058594,0.15625 -0.483374,0.148536 -0.743354,0.297883 -1.015624,0.453125 -0.0074,0.0043 -0.0158,0.01126 -0.02344,0.01562 -0.315038,0.03034 -0.1602,-0.05708 -0.574286,0.261725 -0.645344,-0.307453 -1.202952,-0.78176 -1.878906,-0.898434 h -0.004 c -0.510354,-0.09112 -1.0378,-0.170228 -1.640626,-0.152344 -0.596062,0.01778 -1.107668,0.12619 -1.605468,0.242188 -1.863886,0.419777 -3.453134,1.585354 -4.609376,3.0625 -0.08324,-0.204126 0.02478,-0.367902 -0.10938,-0.546876 -0.640552,-0.854612 -1.00815,-0.889403 -1.035056,-0.898436 -0.195666,-0.126485 -0.57447,-0.616174 -1.957032,-0.589844 -0.0022,4.4e-5 -0.0096,-2.08e-4 -0.0118,0 -0.02792,0.0049 -0.04636,0.02156 -0.07812,0.02344 -0.394824,-0.226412 -0.835796,-0.480701 -2.085862,-1.242188 -0.02084,-0.0127 -0.0451,-0.02608 -0.0664,-0.03906 -0.297304,-0.191052 -0.920046,-0.534649 -1.839844,-0.519531 h -0.0038 -0.004 V 13 h -0.004 z M 37.75,20.164062 c -0.0526,0.05868 -0.10472,0.11718 -0.16016,0.17968 -0.0154,0.0184 -0.03108,0.03654 -0.04688,0.05468 L 37.75,20.175782 Z m 0,3.722656 v 0.76172 c 0,1.229866 0.0092,2.234302 0.0196,3.160156 0.04602,0.04114 0.16524,0.11186 0.19532,0.14062 0.535016,0.486134 0.890314,1.42706 1,2.273438 0.16256,-0.946692 -0.233638,-2.577094 -1,-3.273438 -0.03008,-0.02876 -0.1493,-0.09948 -0.19532,-0.14062 C 37.7598,25.944026 37.751,25.00799 37.75,23.886718 Z M 9.953125,26.800782 C 9.382409,27.660858 9,28.611726 9,29.621094 c 0,0.1745 0.0089,0.351052 0.027344,0.527344 0.122612,-1.05282 0.643095,-2.034776 1.328125,-2.902344 -0.10589,-0.17402 -0.296224,-0.274528 -0.402344,-0.445312 z" />
  <path
     d="m 16.143856,17.000022 c -0.11928,0.0026 -0.255483,0.11632 -0.553139,0.40624 -0.269694,0.26054 -0.697033,0.760578 -0.942212,1.100416 -0.465828,0.657014 -1.054714,2.16361 -1.054714,2.718676 0,0.18126 -0.13488,0.47482 -0.318758,0.667392 -0.735524,0.804278 -1.043138,2.628718 -0.614079,3.58026 0.46584,1.019506 1.472033,1.687508 2.746946,1.834772 0.661974,0.06798 0.722238,0.12378 0.501576,0.508916 -0.122574,0.215226 -0.207595,0.226612 -1.028933,0.1473 -0.760052,-0.06798 -0.968397,-0.04542 -1.385192,0.15848 C 12.539166,28.575606 12,29.426072 12,30.479568 c 0,1.7898 1.531926,2.617062 3.30946,1.790128 0.367761,-0.16992 0.845772,-0.430846 1.066434,-0.57811 0.208398,-0.14726 0.466792,-0.272314 0.564858,-0.272312 0.0858,0 0.57609,0.282912 1.066434,0.62275 0.482696,0.334526 0.955898,0.614094 1.040652,0.62275 0.19614,0 2.244882,-1.970144 2.735226,-2.62716 0.220664,-0.294526 0.636814,-0.985238 0.918774,-1.528976 0.453576,-0.872246 0.515824,-1.110512 0.564858,-1.937446 0.03672,-0.826936 -0.0011,-1.00756 -0.29532,-1.551298 -0.416808,-0.79295 -1.212416,-1.440248 -2.475064,-2.00664 -0.563906,-0.249214 -1.041916,-0.486092 -1.066432,-0.520078 -0.02448,-0.0453 0.244516,-0.724864 0.600014,-1.517814 0.882636,-1.948394 0.869882,-1.85821 0.489856,-2.084766 -0.294212,-0.18124 -0.330146,-0.1814 -0.550794,0.0112 -0.245178,0.203904 -0.281574,0.19274 -3.62822,-1.82361 -0.07584,-0.05062 -0.13438,-0.07954 -0.19688,-0.07812 z m 13.399566,0.504452 c -0.289614,0.0086 -0.57824,0.06098 -1.01956,0.16294 -1.532344,0.339834 -2.658846,1.144326 -3.382118,2.401722 -0.612938,1.064816 -0.808614,1.858814 -0.808614,3.252142 0,1.574574 0.255908,2.435032 0.991432,3.352586 0.277552,0.36798 0.519862,0.694494 0.527358,0.74775 0,0.0453 -0.269022,0.464102 -0.600016,0.928546 -1.556862,2.1976 -1.923832,3.771432 -1.028932,4.428448 0.367762,0.271868 0.746092,0.295918 1.10159,0.05802 0.19614,-0.13592 0.258008,-0.317174 0.30704,-0.906222 0.04908,-0.80428 0.17258,-0.964262 0.724236,-0.964262 0.527126,0 1.665458,0.420524 2.646162,0.964262 l 0.921118,0.508914 0.967994,-0.792388 c 0.53096,-0.423736 1.005078,-0.783542 1.078152,-0.794622 h 0.0024 l 0.0024,0.0022 c 0.05774,0.0136 0.27156,0.234374 0.473448,0.497752 0.367766,0.475772 1.005896,0.859352 1.422696,0.859352 0.429056,0 1.18871,-0.474426 1.60551,-0.995508 0.539386,-0.668344 0.64885,-1.007782 0.391416,-1.23434 -0.17162,-0.15858 -0.231708,-0.1596 -0.611734,0.06696 -0.211094,0.1129 -0.41495,0.18792 -0.478138,0.16742 l -0.0024,-0.0022 c -9.26e-4,-4.7e-4 -0.0062,-0.0019 -0.0072,-0.0022 l -0.0024,-0.0022 v -0.0022 c -0.0489,-0.03398 -0.08658,-2.559628 -0.08658,-5.61815 v -5.54008 l 0.57658,-0.61159 c 0.416796,-0.464444 0.526986,-0.657124 0.428916,-0.747746 -0.1471,-0.13592 -0.858832,0.271752 -1.900828,1.064702 l -0.452358,0.36396 -0.527358,-0.464274 C 32.153922,18.07645 31.504,17.770378 30.57233,17.611788 30.124886,17.532496 29.833014,17.496148 29.5434,17.504642 Z m -13.146434,2.042352 h 0.0024 0.0024 0.0024 c 9e-4,5.2e-5 0.0062,-1.5e-4 0.007,0 l 0.0024,0.0022 c 0.04908,0.02266 0.613594,0.338212 1.263314,0.712038 1.323946,0.758964 1.298972,0.71465 0.808616,1.745486 l -0.234382,0.497814 -0.574232,-0.0781 c -1.225874,-0.14732 -1.96356,-0.815766 -1.816448,-1.65403 0.08185,-0.453698 0.410886,-1.19683 0.536734,-1.225414 z m 12.83939,0.20535 c 0.4168,0 0.931958,0.05702 1.164876,0.12498 0.539386,0.16992 0.525892,0.14676 0.292978,0.486596 -0.19614,0.271872 -0.25768,0.28208 -0.846114,0.22544 -1.140072,-0.12462 -2.070364,0.443064 -2.585224,1.575852 -0.09804,0.22656 -0.18516,0.544516 -0.18516,0.703108 v 0.305794 l 0.515636,-0.40847 c 0.551644,-0.441786 1.300306,-0.713874 1.631292,-0.589272 0.1839,0.05664 0.17054,0.1245 -0.13594,0.611592 -0.490358,0.781624 -2.243934,3.19411 -2.329748,3.19411 h -0.0024 l -0.0024,-0.0022 h -0.0024 c -0.04978,-0.03366 -0.211994,-0.314164 -0.384386,-0.654 -0.294212,-0.577724 -0.330476,-0.78128 -0.330476,-1.834772 0,-1.06482 0.03576,-1.258778 0.342196,-1.870484 0.649708,-1.280052 1.533152,-1.856928 2.857104,-1.868256 z m 2.683668,1.868256 0.0375,2.084766 c 0.0122,1.15544 -0.012,2.128736 -0.06094,2.174048 -0.09498,0.07682 -2.805228,0.301354 -2.974294,0.243306 h -0.0024 l -0.0024,-0.0022 v -0.0022 c 0,-0.03398 2.168792,-3.319552 2.683662,-4.044532 z m -17.737959,1.359338 0.269539,0.39731 c 0.147104,0.215226 0.391965,0.520296 0.539075,0.656234 0.343246,0.362492 0.993291,0.656956 1.643013,0.758904 0.588422,0.09062 0.564122,0.06798 0.367978,0.453116 -0.18388,0.373818 -0.589638,0.373818 -1.410975,0 -0.772304,-0.362492 -1.237894,-0.950974 -1.335971,-1.698614 z m 4.148545,1.906198 c 0.06972,-0.0022 0.15782,0.0102 0.276568,0.03126 0.245182,0.03398 0.710206,0.13688 1.028934,0.238826 1.127814,0.32851 1.680512,0.985066 1.680512,1.993248 0,0.498424 -0.0976,0.793002 -0.489856,1.506656 -0.269684,0.498426 -0.601112,1.020118 -0.735956,1.167378 -0.232914,0.249228 -0.26902,0.25904 -0.440638,0.10046 -0.17162,-0.15858 -0.14854,-0.226826 0.243758,-0.736586 0.772304,-0.996854 0.98185,-1.87863 0.614078,-2.535648 -0.22065,-0.4078 -1.26231,-0.895956 -2.083648,-0.98658 -0.588422,-0.05664 -0.61441,-0.09168 -0.39376,-0.533466 0.08424,-0.17134 0.14656,-0.240854 0.300008,-0.24552 z m -0.775802,2.62493 c 0.347084,0.0102 0.810798,0.11406 1.040652,0.25 0.15936,0.09062 0.319478,0.237494 0.35626,0.328112 0.0858,0.215228 -0.271006,0.940768 -0.50392,1.020064 h -0.0024 c -0.14144,0.0357 -1.531452,-0.512116 -1.762546,-0.691946 l -0.0024,-0.0022 -0.0024,-0.0022 -0.0024,-0.0022 v -0.0022 l -0.0024,-0.0022 c -0.05048,-0.126 0.42104,-0.840088 0.585952,-0.872744 0.07668,-0.0198 0.17962,-0.0256 0.29532,-0.0224 z m 12.281564,0.10266 h 2.158652 l -0.0375,1.2455 -0.0375,1.245502 -0.489856,0.261146 c -0.845858,0.441792 -1.410272,0.350448 -3.55556,-0.55578 -0.600688,-0.249214 -1.126294,-0.475102 -1.150812,-0.497756 h -0.0024 c -0.006,-0.02294 0.18922,-0.413314 0.4547,-0.859352 l 0.50392,-0.8281 z m -15.898063,2.013346 c 0.10164,0.0024 0.237776,0.05536 0.489857,0.14954 0.245179,0.10194 0.721923,0.340894 1.040652,0.533468 l 0.600014,0.350436 -0.281257,0.216508 c -0.931668,0.679672 -2.021659,0.870682 -2.364904,0.40624 -0.306475,-0.396478 -0.245315,-1.064312 0.11016,-1.392822 0.199974,-0.18478 0.274844,-0.26632 0.405478,-0.263386 z"
     id="path4"
     style="opacity:0.1;fill:#000000;stroke-width:1.47711" />
  <path
     d="m 16.143856,16.000006 c -0.11928,0.0026 -0.255483,0.11632 -0.553139,0.40624 -0.269694,0.26054 -0.697033,0.760578 -0.942211,1.100416 -0.465828,0.657014 -1.054715,2.163608 -1.054715,2.718676 0,0.18124 -0.134878,0.474818 -0.318758,0.66739 -0.735523,0.80428 -1.043138,2.628718 -0.614079,3.580262 0.46584,1.019504 1.472033,1.687508 2.746946,1.834772 0.661974,0.06798 0.722238,0.12376 0.501576,0.508914 -0.122574,0.215226 -0.207595,0.226614 -1.028933,0.1473 -0.760052,-0.06795 -0.968397,-0.04541 -1.385192,0.158498 C 12.539166,27.575586 12,28.42606 12,29.479548 c 0,1.789806 1.531926,2.617062 3.30946,1.79013 0.367761,-0.16992 0.845772,-0.430844 1.066434,-0.578108 0.208398,-0.14724 0.466792,-0.272314 0.564858,-0.27231 0.0858,0 0.57609,0.282912 1.066434,0.622748 0.482696,0.334528 0.955898,0.614094 1.040652,0.622752 0.19614,0 2.244882,-1.970148 2.735226,-2.627166 0.220664,-0.294522 0.636814,-0.985236 0.918774,-1.528974 0.453576,-0.872244 0.515824,-1.110512 0.564858,-1.937444 0.03672,-0.826936 -0.0011,-1.00756 -0.29532,-1.551298 -0.416808,-0.79295 -1.212416,-1.440248 -2.475064,-2.00664 -0.563906,-0.249216 -1.041916,-0.486096 -1.066432,-0.520076 -0.02448,-0.0453 0.244516,-0.724868 0.600014,-1.517816 0.882636,-1.948394 0.869882,-1.85821 0.489856,-2.084766 -0.294212,-0.18124 -0.330146,-0.1814 -0.550794,0.0112 -0.245178,0.203904 -0.281574,0.19276 -3.62822,-1.82361 -0.07584,-0.05062 -0.13438,-0.07953 -0.19688,-0.07812 z m 13.399566,0.504452 c -0.289614,0.0086 -0.57824,0.06098 -1.01956,0.16294 -1.532344,0.339834 -2.658846,1.144326 -3.382118,2.40172 -0.612938,1.06482 -0.808614,1.858814 -0.808614,3.25214 0,1.574578 0.25591,2.435034 0.991432,3.35259 0.27755,0.36798 0.519862,0.694494 0.527358,0.74775 0,0.0453 -0.269022,0.4641 -0.600016,0.928542 -1.55686,2.197608 -1.923832,3.771436 -1.02893,4.428454 0.36776,0.271866 0.74609,0.295916 1.101588,0.05806 0.19614,-0.13592 0.258008,-0.317176 0.30704,-0.906226 0.04908,-0.804278 0.17258,-0.964258 0.724236,-0.964258 0.527128,0 1.665458,0.420522 2.646162,0.964258 l 0.921118,0.508914 0.967994,-0.792386 c 0.53096,-0.423736 1.005078,-0.78354 1.078152,-0.794622 h 0.0024 l 0.0024,0.0022 c 0.05774,0.0136 0.27156,0.234374 0.473448,0.497756 0.367766,0.47577 1.005896,0.859352 1.422696,0.859352 0.429056,0 1.18871,-0.47443 1.60551,-0.99551 0.539386,-0.668344 0.64885,-1.007784 0.391416,-1.234338 -0.17162,-0.15858 -0.231706,-0.1596 -0.611734,0.06696 -0.211092,0.11292 -0.414948,0.18792 -0.478138,0.16742 l -0.0024,-0.0022 c -9.26e-4,-4.72e-4 -0.006,-0.0017 -0.0072,-0.0022 l -0.0024,-0.0022 v -0.0022 c -0.04904,-0.03398 -0.08672,-2.559628 -0.08672,-5.61815 v -5.54012 l 0.576718,-0.61159 c 0.416796,-0.464444 0.526986,-0.657124 0.428916,-0.747748 -0.1471,-0.13592 -0.858832,0.271752 -1.900828,1.064704 l -0.452364,0.363958 -0.527358,-0.464274 c -0.649704,-0.57772 -1.299626,-0.883792 -2.231296,-1.04238 -0.447444,-0.0793 -0.739316,-0.11562 -1.02893,-0.10714 z m -13.146434,2.042354 h 0.0024 0.0024 0.0024 c 9e-4,5e-5 0.0062,-1.52e-4 0.007,0 l 0.0024,0.0022 c 0.04908,0.02266 0.613594,0.33821 1.263314,0.712034 1.323946,0.758966 1.298972,0.714648 0.808616,1.745488 l -0.234396,0.49774 -0.574232,-0.0781 c -1.22588,-0.14732 -1.963566,-0.815772 -1.816454,-1.654036 0.08185,-0.4537 0.410886,-1.19683 0.536734,-1.225414 z M 29.23638,18.75216 c 0.416798,0 0.931956,0.05702 1.164874,0.12498 0.539386,0.16992 0.525892,0.14676 0.292978,0.486594 -0.19614,0.271872 -0.25768,0.28208 -0.846114,0.22544 -1.140072,-0.12462 -2.070362,0.443066 -2.585224,1.575854 -0.09804,0.226556 -0.18516,0.544514 -0.18516,0.703106 v 0.305796 l 0.515636,-0.40847 c 0.551644,-0.44179 1.300304,-0.713876 1.631292,-0.58927 0.1839,0.05664 0.17052,0.12448 -0.13596,0.61159 -0.490356,0.781622 -2.243932,3.194108 -2.329748,3.194108 h -0.0024 l -0.0024,-0.0022 h -0.0024 c -0.04978,-0.03366 -0.211994,-0.314166 -0.384384,-0.654 -0.294212,-0.577722 -0.330476,-0.781282 -0.330476,-1.83477 0,-1.06482 0.03576,-1.258782 0.342196,-1.870488 0.649708,-1.280052 1.533152,-1.856926 2.857104,-1.868254 z m 2.683666,1.868256 0.0375,2.084766 c 0.0122,1.155438 -0.012,2.128734 -0.06092,2.174046 -0.09498,0.07684 -2.805226,0.301356 -2.974294,0.243306 h -0.0024 l -0.0024,-0.0022 v -0.0022 c 0,-0.03398 2.168794,-3.319552 2.683662,-4.044536 z m -17.737959,1.35934 0.269539,0.397308 c 0.147102,0.215226 0.391965,0.520296 0.539075,0.656234 0.343246,0.36249 0.993291,0.656956 1.643013,0.758904 0.588422,0.09064 0.564122,0.06798 0.367978,0.453114 -0.18388,0.373818 -0.589638,0.373818 -1.410975,0 -0.772304,-0.36249 -1.237893,-0.950976 -1.335972,-1.698612 z m 4.148545,1.906196 c 0.06972,-0.0022 0.15782,0.0102 0.276568,0.03126 0.245182,0.03398 0.710206,0.13688 1.028934,0.238826 1.127814,0.328512 1.680512,0.985072 1.680512,1.993252 0,0.498426 -0.0976,0.793002 -0.489856,1.506656 -0.269684,0.498426 -0.601112,1.020118 -0.735956,1.167378 -0.232914,0.249228 -0.26902,0.259042 -0.440638,0.10044 -0.17162,-0.15858 -0.14854,-0.226828 0.243758,-0.73659 0.772304,-0.996852 0.981852,-1.878628 0.61408,-2.535642 -0.220652,-0.407806 -1.262312,-0.89596 -2.083648,-0.986584 -0.588424,-0.05664 -0.614412,-0.09168 -0.39376,-0.533466 0.08424,-0.17134 0.14656,-0.240852 0.300008,-0.24552 z m -0.775802,2.624932 c 0.347084,0.0102 0.810798,0.11408 1.040652,0.249998 0.15936,0.09062 0.319478,0.237492 0.35626,0.328114 0.0858,0.215226 -0.271006,0.940766 -0.50392,1.020062 h -0.0024 c -0.14144,0.0357 -1.531452,-0.512114 -1.762546,-0.691944 l -0.0024,-0.0022 -0.0024,-0.0022 -0.0024,-0.0022 v -0.0022 l -0.0024,-0.0022 c -0.05048,-0.126 0.42104,-0.840088 0.585952,-0.872744 0.07668,-0.0198 0.17962,-0.0256 0.29532,-0.0224 z m 12.281564,0.10266 h 2.158652 l -0.0375,1.2455 -0.0375,1.245502 -0.489858,0.261146 c -0.845856,0.441792 -1.41027,0.350448 -3.555558,-0.55578 -0.60069,-0.249214 -1.126294,-0.4751 -1.150814,-0.497756 h -0.0024 c -0.006,-0.02292 0.18922,-0.413314 0.4547,-0.85935 l 0.50392,-0.828102 z m -15.898063,2.01335 c 0.101642,0.0024 0.237779,0.05536 0.489856,0.14956 0.245179,0.10194 0.721924,0.340892 1.040653,0.533466 l 0.600014,0.350436 -0.281257,0.216506 c -0.931668,0.679672 -2.021659,0.870682 -2.364904,0.40624 -0.306476,-0.396474 -0.245315,-1.064312 0.11016,-1.392822 0.199974,-0.18478 0.274844,-0.26632 0.405478,-0.263386 z"
     id="path5"
     style="fill:#4d4d4d;stroke-width:1.47711" />
</svg>
