<?xml version="1.0" encoding="UTF-8" standalone="no"?>
<!-- Created with Inkscape (http://www.inkscape.org/) -->

<svg
   width="48"
   height="48"
   viewBox="0 0 48 48"
   version="1.1"
   id="svg5"
   inkscape:version="1.4.3 (0d15f75042, 2025-12-25)"
   sodipodi:docname="haruna.svg"
   xmlns:inkscape="http://www.inkscape.org/namespaces/inkscape"
   xmlns:sodipodi="http://sodipodi.sourceforge.net/DTD/sodipodi-0.dtd"
   xmlns="http://www.w3.org/2000/svg"
   xmlns:svg="http://www.w3.org/2000/svg">
  <sodipodi:namedview
     id="namedview7"
     pagecolor="#ffffff"
     bordercolor="#000000"
     borderopacity="0.25"
     inkscape:showpageshadow="2"
     inkscape:pageopacity="0.0"
     inkscape:pagecheckerboard="0"
     inkscape:deskcolor="#d1d1d1"
     inkscape:document-units="px"
     showgrid="false"
     inkscape:zoom="10.020833"
     inkscape:cx="24"
     inkscape:cy="23.950104"
     inkscape:window-width="1440"
     inkscape:window-height="833"
     inkscape:window-x="0"
     inkscape:window-y="0"
     inkscape:window-maximized="1"
     inkscape:current-layer="svg5" />
  <defs
     id="defs2" />
  <rect
     style="opacity:0.2;fill:#000000;stroke-width:2.85714;stroke-linecap:square"
     id="rect234"
     width="40"
     height="40"
     x="4"
     y="4.999999"
     ry="9" />
  <rect
     style="fill:#4d525a;fill-opacity:1;stroke-width:2.85714;stroke-linecap:square"
     id="rect396"
     width="40"
     height="40"
     x="4"
     y="4"
     ry="9" />
  <path
     id="path1040"
     style="opacity:0.1;fill:#ffffff;stroke-width:8;stroke-linecap:square"
     d="m 13,4.0000002 c -4.98599,0 -9,4.01401 -9,8.9999998 v 1 C 4,9.0140102 8.01401,5.0000002 13,5.0000002 h 22 c 4.985992,0 9,4.01401 9,8.9999998 V 13 C 44,8.0140104 39.985992,4.0000002 35,4.0000002 Z" />
  <path
     id="path1"
     style="opacity:0.2;fill:#000000;fill-opacity:1;stroke-width:1.5;stroke-linecap:round"
     d="m 10,11 v 28 h 9 V 29 h 10 v 10 h 9 V 11 H 29 V 21 H 19 V 11 Z" />
  <path
     id="path1-0"
     style="fill:#cccccc;fill-opacity:1;stroke-width:1.5;stroke-linecap:round"
     d="M 10 10 L 10 38 L 19 38 L 19 28 L 29 28 L 29 38 L 38 38 L 38 10 L 29 10 L 29 20 L 19 20 L 19 10 L 10 10 z " />
  <path
     id="path1-2"
     style="opacity:0.2;fill:#000000;fill-opacity:1;stroke-width:1.5;stroke-linecap:round"
     d="m 13,15 v 3 h 3 v -3 z m 19,0 v 3 h 3 v -3 z m -19,8 v 3 h 3 v -3 z m 19,0 v 3 h 3 v -3 z m -19,8 v 3 h 3 v -3 z m 19,0 v 3 h 3 v -3 z" />
  <path
     id="path1-2-1"
     style="opacity:1;fill:#4d525a;fill-opacity:1;stroke-width:1.5;stroke-linecap:round"
     d="m 13,14 v 3 h 3 v -3 z m 19,0 v 3 h 3 v -3 z m -19,8 v 3 h 3 v -3 z m 19,0 v 3 h 3 v -3 z m -19,8 v 3 h 3 v -3 z m 19,0 v 3 h 3 v -3 z" />
</svg>
