<?xml version="1.0" encoding="UTF-8" standalone="no"?>
<!-- Created with Inkscape (http://www.inkscape.org/) -->

<svg
   width="48"
   height="48"
   viewBox="0 0 48 48"
   version="1.1"
   id="svg5"
   inkscape:version="1.3 (0e150ed6c4, 2023-07-21)"
   sodipodi:docname="instagram.svg"
   xmlns:inkscape="http://www.inkscape.org/namespaces/inkscape"
   xmlns:sodipodi="http://sodipodi.sourceforge.net/DTD/sodipodi-0.dtd"
   xmlns="http://www.w3.org/2000/svg"
   xmlns:svg="http://www.w3.org/2000/svg">
  <sodipodi:namedview
     id="namedview7"
     pagecolor="#ffffff"
     bordercolor="#000000"
     borderopacity="0.25"
     inkscape:showpageshadow="2"
     inkscape:pageopacity="0.0"
     inkscape:pagecheckerboard="0"
     inkscape:deskcolor="#d1d1d1"
     inkscape:document-units="px"
     showgrid="false"
     inkscape:zoom="16.729167"
     inkscape:cx="24"
     inkscape:cy="24"
     inkscape:window-width="1850"
     inkscape:window-height="1011"
     inkscape:window-x="70"
     inkscape:window-y="32"
     inkscape:window-maximized="1"
     inkscape:current-layer="svg5" />
  <defs
     id="defs2" />
  <rect
     style="opacity:0.2;fill:#000000;stroke-width:2.85714;stroke-linecap:square"
     id="rect234"
     width="40"
     height="40"
     x="4"
     y="5"
     ry="9" />
  <path
     id="rect396"
     style="fill:#e53fa9;stroke-width:2.85714;stroke-linecap:square"
     d="m 25,4 h 10 c 4.986,0 9,4.014 9,9 v 22 c 0,4.986 -4.014,9 -9,9 H 29 C 15.266202,44 4,33.307372 4,24 4,19.014 20.014,4 25,4 Z"
     sodipodi:nodetypes="ssssssss" />
  <path
     id="path2"
     style="fill:#7e53cb;stroke-width:2"
     d="M 13,4 C 8.014015,4 4,8.014015 4,13 V 24 H 4.8984376 C 17.170682,23.989174 27.952422,15.801079 31.320312,4 Z" />
  <path
     id="path3"
     style="fill:#f97b49;stroke-width:2"
     d="m 4,24 v 11 c 0,4.985992 4.01401,9 9,9 H 31.132812 C 27.763528,32.194032 16.976548,24.004728 4.6992188,24 Z" />
  <path
     d="m 17,11 c -3.860696,0 -7,3.139305 -7,7 v 14 c 0,3.860694 3.139304,7 7,7 h 14 c 3.860694,0 7,-3.139306 7,-7 V 18 c 0,-3.860695 -3.139306,-7 -7,-7 z m 0,2 h 14 c 2.787292,0 5,2.212708 5,5 v 14 c 0,2.787292 -2.212708,5 -5,5 H 17 c -2.787292,0 -5,-2.212708 -5,-5 V 18 c 0,-2.787292 2.212708,-5 5,-5 z m 15,2 c -1.10457,0 -2,0.89543 -2,2 0,1.10457 0.89543,2 2,2 1.10457,0 2,-0.89543 2,-2 0,-1.10457 -0.89543,-2 -2,-2 z m -8,2 c -4.406424,0 -8,3.593576 -8,8 0,4.406424 3.593576,8 8,8 4.406424,0 8,-3.593576 8,-8 0,-4.406424 -3.593576,-8 -8,-8 z m 0,2 c 3.325546,0 6,2.674454 6,6 0,3.325546 -2.674454,6 -6,6 -3.325546,0 -6,-2.674454 -6,-6 0,-3.325546 2.674454,-6 6,-6 z"
     style="opacity:0.2;fill:#000000;stroke:none;stroke-width:2;stroke-linecap:round;stroke-linejoin:round;-inkscape-stroke:none"
     id="path1" />
  <path
     d="m 17,10 c -3.860695,0 -7,3.139305 -7,7 v 14 c 0,3.860694 3.139305,7 7,7 h 14 c 3.860694,0 7,-3.139306 7,-7 V 17 c 0,-3.860695 -3.139306,-7 -7,-7 z m 0,2 h 14 c 2.787292,0 5,2.212708 5,5 v 14 c 0,2.787292 -2.212708,5 -5,5 H 17 c -2.787292,0 -5,-2.212708 -5,-5 V 17 c 0,-2.787292 2.212708,-5 5,-5 z m 15,2 c -1.10457,0 -2,0.895431 -2,2 0,1.10457 0.89543,2 2,2 1.10457,0 2,-0.89543 2,-2 0,-1.104569 -0.89543,-2 -2,-2 z m -8,2 c -4.406424,0 -8,3.593576 -8,8 0,4.406424 3.593576,8 8,8 4.406424,0 8,-3.593576 8,-8 0,-4.406424 -3.593576,-8 -8,-8 z m 0,2 c 3.325546,0 6,2.674454 6,6 0,3.325546 -2.674454,6 -6,6 -3.325546,0 -6,-2.674454 -6,-6 0,-3.325546 2.674454,-6 6,-6 z"
     style="fill:#ffffff;stroke:none;stroke-width:2;stroke-linecap:round;stroke-linejoin:round;-inkscape-stroke:none"
     id="path6" />
  <path
     id="path1040"
     style="opacity:0.1;fill:#ffffff;stroke-width:8;stroke-linecap:square"
     d="m 13,4.000002 c -4.9859894,0 -8.9999996,4.0140098 -8.9999996,9 v 1 c 0,-4.9859902 4.01401,-9 8.9999996,-9 h 22 c 4.985992,0 9,4.0140098 9,9 v -1 c 0,-4.9859902 -4.014008,-9 -9,-9 z"
     sodipodi:nodetypes="sscsscsss" />
</svg>
