<?xml version="1.0" encoding="UTF-8" standalone="no"?>
<!-- Created with Inkscape (http://www.inkscape.org/) -->

<svg
   width="48"
   height="48"
   viewBox="0 0 48 48"
   version="1.1"
   id="svg5"
   inkscape:version="1.3 (0e150ed6c4, 2023-07-21)"
   sodipodi:docname="kjumpingcube.svg"
   xmlns:inkscape="http://www.inkscape.org/namespaces/inkscape"
   xmlns:sodipodi="http://sodipodi.sourceforge.net/DTD/sodipodi-0.dtd"
   xmlns="http://www.w3.org/2000/svg"
   xmlns:svg="http://www.w3.org/2000/svg">
  <sodipodi:namedview
     id="namedview7"
     pagecolor="#ffffff"
     bordercolor="#000000"
     borderopacity="0.25"
     inkscape:showpageshadow="2"
     inkscape:pageopacity="0.0"
     inkscape:pagecheckerboard="0"
     inkscape:deskcolor="#d1d1d1"
     inkscape:document-units="px"
     showgrid="false"
     inkscape:zoom="16.729167"
     inkscape:cx="24"
     inkscape:cy="24"
     inkscape:window-width="1850"
     inkscape:window-height="1011"
     inkscape:window-x="70"
     inkscape:window-y="32"
     inkscape:window-maximized="1"
     inkscape:current-layer="svg5" />
  <defs
     id="defs2" />
  <rect
     style="opacity:0.2;fill:#000000;stroke-width:2.85714;stroke-linecap:square"
     id="rect234"
     width="40"
     height="40"
     x="4"
     y="5"
     ry="9" />
  <rect
     style="fill:#e4e4e4;fill-opacity:1;stroke-width:2.85714;stroke-linecap:square"
     id="rect396"
     width="40"
     height="40"
     x="4"
     y="4"
     ry="9" />
  <path
     id="path1"
     d="m 14,10 c -2.209137,0 -4,1.790863 -4,4 0,2.209136 1.790863,4 4,4 2.209136,0 4,-1.790864 4,-4 0,-2.209137 -1.790864,-4 -4,-4 z m 20,0 c -2.209136,0 -4,1.790863 -4,4 0,2.209136 1.790864,4 4,4 2.209136,0 4,-1.790864 4,-4 0,-2.209137 -1.790864,-4 -4,-4 z M 24,20 c -2.209136,0 -4,1.790864 -4,4 0,2.209136 1.790864,4 4,4 2.209136,0 4,-1.790864 4,-4 0,-2.209136 -1.790864,-4 -4,-4 z M 14,30 c -2.209137,0 -4,1.790864 -4,4 0,2.209136 1.790863,4 4,4 2.209136,0 4,-1.790864 4,-4 0,-2.209136 -1.790864,-4 -4,-4 z m 20,0 c -2.209136,0 -4,1.790864 -4,4 0,2.209136 1.790864,4 4,4 2.209136,0 4,-1.790864 4,-4 0,-2.209136 -1.790864,-4 -4,-4 z"
     style="fill:#4d4d4d;fill-opacity:1;stroke-width:2" />
  <path
     id="path1040"
     style="opacity:0.2;fill:#ffffff;stroke-width:8;stroke-linecap:square"
     d="M 13,4 C 8.01401,4 4,8.01401 4,13 v 1 C 4,9.01401 8.01401,5 13,5 h 22 c 4.985992,0 9,4.01401 9,9 V 13 C 44,8.01401 39.985992,4 35,4 Z" />
</svg>
