<?xml version="1.0" encoding="UTF-8" standalone="no"?>
<!-- Created with Inkscape (http://www.inkscape.org/) -->

<svg
   width="48"
   height="48"
   viewBox="0 0 48 48"
   version="1.1"
   id="svg5"
   inkscape:version="1.3.2 (091e20ef0f, 2023-11-25, custom)"
   sodipodi:docname="kmymoney.svg"
   xmlns:inkscape="http://www.inkscape.org/namespaces/inkscape"
   xmlns:sodipodi="http://sodipodi.sourceforge.net/DTD/sodipodi-0.dtd"
   xmlns="http://www.w3.org/2000/svg"
   xmlns:svg="http://www.w3.org/2000/svg">
  <sodipodi:namedview
     id="namedview7"
     pagecolor="#ffffff"
     bordercolor="#000000"
     borderopacity="0.25"
     inkscape:showpageshadow="2"
     inkscape:pageopacity="0.0"
     inkscape:pagecheckerboard="0"
     inkscape:deskcolor="#d1d1d1"
     inkscape:document-units="px"
     showgrid="false"
     inkscape:zoom="17.125"
     inkscape:cx="24"
     inkscape:cy="24"
     inkscape:window-width="1920"
     inkscape:window-height="1008"
     inkscape:window-x="0"
     inkscape:window-y="0"
     inkscape:window-maximized="1"
     inkscape:current-layer="svg5" />
  <defs
     id="defs2" />
  <rect
     style="opacity:0.2;fill:#000000;stroke-width:2.85714;stroke-linecap:square"
     id="rect234"
     width="40"
     height="40"
     x="4"
     y="5"
     ry="9" />
  <rect
     style="fill:#e4e4e4;fill-opacity:1;stroke-width:2.85714;stroke-linecap:square"
     id="rect396"
     width="40"
     height="40"
     x="4"
     y="4"
     ry="9" />
  <path
     style="fill:#f1ae3b;stroke-width:2"
     d="m 24,8 c 8.91294,0 16,7.087059 16,16 0,8.91294 -7.08706,16 -16,16 C 15.087059,40 8,32.91294 8,24 8,15.087059 15.087059,8 24,8 Z"
     id="path3" />
  <path
     id="path4"
     style="opacity:0.2;fill:#000000;stroke-width:2"
     d="m 16,13 v 10 h -4 v 1 h 4 v 2 h -4 v 1 h 4 v 10 h 4 V 27 h 0.808594 L 31.292968,37 34,34.066406 26.601562,27 H 36 V 26 H 25.554688 l -1.046876,-1 1.046876,-1 H 36 V 23 H 26.601562 L 34,15.929688 31.292968,13 20.808594,23 H 20 V 13 Z" />
  <path
     style="fill:#fff2af;stroke-width:2"
     d="m 16,12 v 10 h -4 v 1 h 4 v 2 h -4 v 1 h 4 v 10 h 4 V 26 h 0.808594 L 31.292968,36 34,33.066406 26.601562,26 H 36 V 25 H 25.554688 l -1.046876,-1 1.046876,-1 H 36 V 22 H 26.601562 L 34,14.929688 31.292968,12 20.808594,22 H 20 V 12 Z"
     id="path5" />
  <path
     style="opacity:0.2;fill:#ffffff;stroke-width:2"
     d="m 16,12 v 1 h 4 V 12 Z M 31.292968,12 20.808594,22 H 20 v 1 h 0.808594 L 31.292968,13 33.507812,15.398438 34,14.929688 Z M 12,22 v 1 h 4 v -1 z m 15.648438,0 -1.046876,1 H 36 v -1 z m -2.617188,2.5 -0.523438,0.5 1.046876,1 H 26.601562 36 V 25 H 25.554688 Z M 12,25 v 1 h 4 v -1 z m 14.601562,2 6.90625,6.597656 L 34,33.066406 27.648438,27 Z"
     id="path7" />
  <path
     id="path1040"
     style="opacity:0.2;fill:#ffffff;stroke-width:8;stroke-linecap:square"
     d="M 13,4 C 8.01401,4 4,8.01401 4,13 v 1 C 4,9.01401 8.01401,5 13,5 h 22 c 4.985992,0 9,4.01401 9,9 V 13 C 44,8.01401 39.985992,4 35,4 Z" />
</svg>
