<?xml version="1.0" encoding="UTF-8" standalone="no"?>
<!-- Created with Inkscape (http://www.inkscape.org/) -->

<svg
   width="48"
   height="48"
   viewBox="0 0 48 48"
   version="1.1"
   id="svg5"
   inkscape:version="1.3 (1:1.3+202307231459+0e150ed6c4)"
   sodipodi:docname="KoboDeluxe.svg"
   xmlns:inkscape="http://www.inkscape.org/namespaces/inkscape"
   xmlns:sodipodi="http://sodipodi.sourceforge.net/DTD/sodipodi-0.dtd"
   xmlns="http://www.w3.org/2000/svg"
   xmlns:svg="http://www.w3.org/2000/svg">
  <sodipodi:namedview
     id="namedview7"
     pagecolor="#ffffff"
     bordercolor="#000000"
     borderopacity="0.25"
     inkscape:showpageshadow="2"
     inkscape:pageopacity="0.0"
     inkscape:pagecheckerboard="0"
     inkscape:deskcolor="#d1d1d1"
     inkscape:document-units="px"
     showgrid="false"
     inkscape:zoom="14.958333"
     inkscape:cx="24"
     inkscape:cy="23.966574"
     inkscape:window-width="1920"
     inkscape:window-height="1008"
     inkscape:window-x="0"
     inkscape:window-y="0"
     inkscape:window-maximized="1"
     inkscape:current-layer="svg5" />
  <defs
     id="defs2" />
  <rect
     style="opacity:0.2;fill:#000000;stroke-width:2.85714;stroke-linecap:square"
     id="rect234"
     width="40"
     height="40"
     x="4"
     y="4.999999"
     ry="9" />
  <rect
     style="fill:#4d4d4d;fill-opacity:1;stroke-width:2.85714;stroke-linecap:square"
     id="rect396"
     width="40"
     height="40"
     x="4"
     y="4"
     ry="9" />
  <path
     d="m 24.016128,11.004896 c -0.9354,-0.03875 -1.81718,0.383396 -2.28536,1.093979 L 10.087867,29.767962 c -0.4527596,1.709564 0.89336,2.98121 2.90668,3.913668 3.776501,1.749126 9.900561,2.304916 10.903421,2.319688 1.65354,0.03376 6.66424,-0.694916 10.24182,-2.061708 2.72122,-1.039648 4.61328,-2.44848 3.5681,-4.171648 L 26.065008,12.098875 c -0.42592,-0.646437 -1.19792,-1.058646 -2.04888,-1.093979 z"
     style="opacity:0.2;fill:#000000;stroke-width:1.73075"
     id="path4012"
     sodipodi:nodetypes="sccscsccs" />
  <path
     d="m 24.015568,11.00425 c -0.088,-0.0042 -0.175,-4.79e-4 -0.26172,0.0042 -0.055,0.0019 -0.1096,0.0062 -0.164,0.0125 -0.77008,0.08417 -1.46332,0.477 -1.85938,1.078063 l -1.73046,2.624945 v 20.677066 c 0,1.994334 1.784,3.60146 4,3.60146 2.216,0 4,-1.607126 4,-3.60146 V 15.03248 l -1.9336,-2.9335 c -0.42592,-0.646396 -1.19982,-1.058355 -2.05078,-1.093709 z"
     style="opacity:0.2;fill:#000000;fill-opacity:1;stroke-width:3.83992;stroke-linecap:square"
     id="path5439" />
  <path
     d="m 24.016128,10.004896 c -0.9354,-0.03875 -1.81718,0.383396 -2.28536,1.093979 L 10.087867,28.767962 c -0.4527596,1.709562 0.89336,2.98121 2.90668,3.913668 3.776501,1.749124 9.900561,2.304916 10.903421,2.319688 1.65354,0.03376 6.66424,-0.694918 10.24182,-2.06171 2.72122,-1.039646 4.61328,-2.448478 3.5681,-4.171646 L 26.065008,11.098875 c -0.42592,-0.646437 -1.19792,-1.058646 -2.04888,-1.093979 z"
     style="fill:#8e8e8e;stroke-width:1.73075"
     id="path4136"
     sodipodi:nodetypes="sccscsccs" />
  <path
     d="m 24.015628,10.00425 c -0.088,-0.0042 -0.175,-4.79e-4 -0.26172,0.0042 -0.055,0.002 -0.1096,0.0063 -0.164,0.0125 -0.77008,0.08396 -1.46332,0.477 -1.85938,1.078104 l -1.73046,2.624987 V 34.40163 c 0,1.994354 1.784,3.601542 4,3.601542 2.216,0 4,-1.607188 4,-3.601542 V 14.032584 l -1.9336,-2.933563 c -0.42592,-0.646438 -1.19982,-1.058417 -2.05078,-1.09375 z"
     style="fill:#686868;fill-opacity:1;stroke-width:3.91916;stroke-linecap:square"
     id="path5411"
     sodipodi:nodetypes="cccccssscccc" />
  <path
     id="path6004"
     style="opacity:0.1;fill:#ffffff;stroke-width:1.69578"
     d="m 24.015628,10.002437 c -0.9354,-0.03875 -1.81698,0.387063 -2.28516,1.097646 L 10.085947,28.768066 c -0.1077996,0.407022 -0.1081996,0.785812 -0.0274,1.144522 0.01,-0.04792 0.014,-0.09584 0.0274,-0.14458 L 21.730468,12.100021 c 0.46818,-0.710583 1.34976,-1.1325 2.28516,-1.09375 0.85096,0.03542 1.62486,0.447313 2.05078,1.09375 l 11.64064,17.667983 c 0.0922,0.15208 0.1552,0.30198 0.20312,0.449208 0.1532,-0.455312 0.1076,-0.936874 -0.20312,-1.449208 L 26.066408,11.100021 c -0.42592,-0.646438 -1.19982,-1.062313 -2.05078,-1.097646 z" />
  <ellipse
     style="fill:#64b0ff;fill-opacity:1;stroke-width:4;stroke-linecap:square"
     id="path5649"
     cx="24.000071"
     cy="27.002447"
     rx="3"
     ry="4" />
  <path
     id="rect6052"
     style="opacity:0.2;fill:#000000;fill-opacity:1;stroke-width:2.814;stroke-linecap:square"
     d="m 14.960947,21.00244 c -0.53184,0 -0.96094,0.446 -0.96094,1 v 13.999982 c 0,0.554 0.4291,1 0.96094,1 h 0.0782 c 0.53184,0 0.960941,-0.446 0.960941,-1 V 22.00244 c 0,-0.554 -0.429101,-1 -0.960941,-1 z m 18.000001,0 c -0.53184,0 -0.96094,0.446 -0.96094,1 v 13.999982 c 0,0.554 0.4291,1 0.96094,1 h 0.0782 c 0.53184,0 0.96094,-0.446 0.96094,-1 V 22.00244 c 0,-0.554 -0.4291,-1 -0.96094,-1 z" />
  <path
     id="rect6054"
     style="fill:#afafb1;fill-opacity:1;stroke-width:4;stroke-linecap:square"
     d="m 14.960947,20.00244 c -0.53184,0 -0.96094,0.446 -0.96094,1 v 14.000002 c 0,0.55398 0.4291,0.99998 0.96094,0.99998 h 0.0782 c 0.53176,0 0.960861,-0.446 0.960861,-0.99998 V 21.00244 c 0,-0.554 -0.429101,-1 -0.960941,-1 z m 18.000001,0 c -0.53184,0 -0.96094,0.446 -0.96094,1 v 14.000002 c 0,0.55398 0.4291,0.99998 0.96094,0.99998 h 0.0782 c 0.53176,0 0.96086,-0.446 0.96086,-0.99998 V 21.00244 c 0,-0.554 -0.4291,-1 -0.96094,-1 z" />
  <path
     id="rect6509"
     style="opacity:0.1;fill:#ffffff;fill-opacity:1;stroke-width:4;stroke-linecap:square"
     d="m 14.960947,20.00244 c -0.53184,0 -0.96094,0.446 -0.96094,1 v 1 c 0,-0.554 0.4291,-1 0.96094,-1 h 0.0782 c 0.53184,0 0.960941,0.446 0.960941,1 v -1 c 0,-0.554 -0.429101,-1 -0.960941,-1 z m 18.000001,0 c -0.53184,0 -0.96094,0.446 -0.96094,1 v 1 c 0,-0.554 0.4291,-1 0.96094,-1 h 0.0782 c 0.53184,0 0.96094,0.446 0.96094,1 v -1 c 0,-0.554 -0.4291,-1 -0.96094,-1 z" />
  <path
     id="path1040"
     style="opacity:0.1;fill:#ffffff;stroke-width:8;stroke-linecap:square"
     d="M 13,4.0000004 C 8.01401,4.0000004 4,8.0140102 4,13 v 1 C 4,9.0140102 8.01401,5.0000004 13,5.0000004 h 22 c 4.985992,0 9,4.0140098 9,8.9999996 V 13 C 44,8.0140102 39.985992,4.0000004 35,4.0000004 Z" />
</svg>
