<?xml version="1.0" encoding="UTF-8" standalone="no"?>
<!-- Created with Inkscape (http://www.inkscape.org/) -->

<svg
   width="48"
   height="48"
   viewBox="0 0 48 48"
   version="1.1"
   id="svg5"
   inkscape:version="1.2.2 (1:1.2.2+202305151914+b0a8486541)"
   sodipodi:docname="kpatience.svg"
   xmlns:inkscape="http://www.inkscape.org/namespaces/inkscape"
   xmlns:sodipodi="http://sodipodi.sourceforge.net/DTD/sodipodi-0.dtd"
   xmlns="http://www.w3.org/2000/svg"
   xmlns:svg="http://www.w3.org/2000/svg">
  <sodipodi:namedview
     id="namedview7"
     pagecolor="#ffffff"
     bordercolor="#000000"
     borderopacity="0.25"
     inkscape:showpageshadow="2"
     inkscape:pageopacity="0.0"
     inkscape:pagecheckerboard="0"
     inkscape:deskcolor="#d1d1d1"
     inkscape:document-units="px"
     showgrid="false"
     inkscape:zoom="16.791667"
     inkscape:cx="23.970223"
     inkscape:cy="24"
     inkscape:window-width="1920"
     inkscape:window-height="1008"
     inkscape:window-x="0"
     inkscape:window-y="0"
     inkscape:window-maximized="1"
     inkscape:current-layer="svg5" />
  <defs
     id="defs2" />
  <rect
     style="opacity:0.2;fill:#000000;stroke-width:2.85714;stroke-linecap:square"
     id="rect234"
     width="40"
     height="40"
     x="4"
     y="5"
     ry="9" />
  <rect
     style="fill:#e4e4e4;fill-opacity:1;stroke-width:2.85714;stroke-linecap:square"
     id="rect396"
     width="40"
     height="40"
     x="4"
     y="4"
     ry="9" />
  <path
     d="M 20.781,19 C 18.699,19 17,20.675 17,22.75 c 0,1.0797 0.45574,2.0647 1.1875,2.75 l 5.718,5.5 5.906,-5.5 c 0.732,-0.685 1.188,-1.67 1.188,-2.75 0,-2.075 -1.699,-3.75 -3.781,-3.75 -1.372,0 -2.56,0.721 -3.219,1.812 C 23.3395,19.721 22.1515,19 20.7795,19 Z m 13.8634,16.093 h 2.4193 L 37.4457,34 h 1.555 l -2.2224,6 h -1.8446 l -2.2224,-6 h 1.5553 l 0.37776,1.0931 z m 2.0335,1.1132 h -1.6437 l 0.81983,2.3871 0.82384,-2.3871 z M 37.3794,33 c 0.893,0 1.621,-0.698 1.621,-1.562 0,-0.45 -0.195,-0.861 -0.509,-1.146 L 36.0404,28 l -2.531,2.292 c -0.314,0.285 -0.509,0.696 -0.509,1.146 0,0.864 0.728,1.562 1.621,1.562 0.587,0 1.096,-0.3 1.379,-0.755 0.283,0.455 0.792,0.755 1.379,0.755 z M 10.621,17 C 9.728,17 9,17.698 9,18.562 c 0,0.44987 0.19532,0.8603 0.50893,1.1458 l 2.451,2.292 2.531,-2.292 c 0.314,-0.285 0.509,-0.696 0.509,-1.146 0,-0.864 -0.728,-1.562 -1.621,-1.562 -0.587,0 -1.096,0.3 -1.379,0.755 -0.283,-0.455 -0.792,-0.755 -1.379,-0.755 z m 2.735,-2.093 H 10.9367 L 10.5547,16 h -1.555 l 2.222,-6 h 1.8446 l 2.222,6 h -1.555 l -0.378,-1.093 z m -2.0335,-1.1132 h 1.6437 l -0.81983,-2.3871 -0.82384,2.3871 z"
     style="opacity:0.2;fill:#000000"
     id="path2915" />
  <path
     d="M 20.781,18 C 18.699,18 17,19.675 17,21.75 c 0,1.0797 0.45574,2.0647 1.1875,2.75 l 5.718,5.5 5.906,-5.5 c 0.732,-0.685 1.188,-1.67 1.188,-2.75 0,-2.075 -1.699,-3.75 -3.781,-3.75 -1.372,0 -2.56,0.721 -3.219,1.812 C 23.3395,18.721 22.1515,18 20.7795,18 Z m 13.8634,16.093 h 2.4193 L 37.4457,33 h 1.555 l -2.2224,6 h -1.8446 l -2.2224,-6 h 1.5553 l 0.37776,1.0931 z m 2.0335,1.1132 h -1.6437 l 0.81983,2.3871 0.82384,-2.3871 z M 37.3794,32 c 0.893,0 1.621,-0.698 1.621,-1.562 0,-0.45 -0.195,-0.861 -0.509,-1.146 L 36.0404,27 l -2.531,2.292 c -0.314,0.285 -0.509,0.696 -0.509,1.146 0,0.864 0.728,1.562 1.621,1.562 0.587,0 1.096,-0.3 1.379,-0.755 0.283,0.455 0.792,0.755 1.379,0.755 z M 10.621,16 C 9.728,16 9,16.698 9,17.562 c 0,0.44987 0.19532,0.8603 0.50893,1.1458 l 2.451,2.292 2.531,-2.292 c 0.314,-0.285 0.509,-0.696 0.509,-1.146 0,-0.864 -0.728,-1.562 -1.621,-1.562 -0.587,0 -1.096,0.3 -1.379,0.755 -0.283,-0.455 -0.792,-0.755 -1.379,-0.755 z m 2.735,-2.093 H 10.9367 L 10.5547,15 h -1.555 l 2.222,-6 h 1.8446 l 2.222,6 h -1.555 l -0.378,-1.093 z m -2.0335,-1.1132 h 1.6437 l -0.81983,-2.3871 -0.82384,2.3871 z"
     style="fill:#e74c3c"
     id="path2887" />
  <path
     id="path1040"
     style="opacity:0.2;fill:#ffffff;stroke-width:8;stroke-linecap:square"
     d="M 13,4 C 8.01401,4 4,8.01401 4,13 v 1 C 4,9.01401 8.01401,5 13,5 h 22 c 4.985992,0 9,4.01401 9,9 V 13 C 44,8.01401 39.985992,4 35,4 Z" />
</svg>
