<?xml version="1.0" encoding="UTF-8" standalone="no"?>
<!-- Created with Inkscape (http://www.inkscape.org/) -->

<svg
   width="48"
   height="48"
   viewBox="0 0 48 48"
   version="1.1"
   id="svg5"
   inkscape:version="1.3 (0e150ed6c4, 2023-07-21)"
   sodipodi:docname="kwalletmanager.svg"
   xmlns:inkscape="http://www.inkscape.org/namespaces/inkscape"
   xmlns:sodipodi="http://sodipodi.sourceforge.net/DTD/sodipodi-0.dtd"
   xmlns="http://www.w3.org/2000/svg"
   xmlns:svg="http://www.w3.org/2000/svg">
  <sodipodi:namedview
     id="namedview7"
     pagecolor="#ffffff"
     bordercolor="#000000"
     borderopacity="0.25"
     inkscape:showpageshadow="2"
     inkscape:pageopacity="0.0"
     inkscape:pagecheckerboard="0"
     inkscape:deskcolor="#d1d1d1"
     inkscape:document-units="px"
     showgrid="false"
     inkscape:zoom="16.75"
     inkscape:cx="24"
     inkscape:cy="24"
     inkscape:window-width="1920"
     inkscape:window-height="1008"
     inkscape:window-x="0"
     inkscape:window-y="0"
     inkscape:window-maximized="1"
     inkscape:current-layer="svg5" />
  <defs
     id="defs2" />
  <rect
     style="opacity:0.2;fill:#000000;stroke-width:2.85714;stroke-linecap:square"
     id="rect234"
     width="40"
     height="40"
     x="4"
     y="4.999999"
     ry="9" />
  <rect
     style="fill:#4d4d4d;fill-opacity:1;stroke-width:2.85714;stroke-linecap:square"
     id="rect396"
     width="40"
     height="40"
     x="4"
     y="4"
     ry="9" />
  <rect
     style="opacity:0.2;fill:#000000"
     width="22"
     height="15"
     x="16"
     y="22"
     ry="1"
     id="rect1" />
  <rect
     style="fill:#248afd"
     width="22"
     height="15"
     x="16"
     y="21"
     ry="1"
     id="rect2" />
  <rect
     style="fill:#4f4f4f"
     width="22"
     height="3"
     x="16"
     y="31"
     id="rect3" />
  <path
     style="opacity:0.2;fill:#ffffff"
     d="m 32,22 h 5 c 0.559,0 1,0.441 1,1 v -1 c 0,-0.566 -0.438,-1 -1,-1 h -5 z"
     id="path3" />
  <rect
     style="opacity:0.2;fill:#000000"
     width="22"
     height="15"
     x="10"
     y="13"
     ry="1"
     id="rect4" />
  <rect
     style="fill:#e4e4e4"
     width="22"
     height="15"
     x="10"
     y="12"
     ry="1"
     id="rect5" />
  <rect
     style="opacity:0.1;fill:#000000"
     width="9"
     height="9"
     x="12"
     y="15"
     ry="1"
     id="rect6" />
  <rect
     style="fill:#e97e10"
     width="9"
     height="9"
     x="12"
     y="14"
     ry="1"
     id="rect7" />
  <path
     style="fill:#4f4f4f"
     d="m 23,15 v 1 h 4 v -1 z m 5,0 v 1 h 2 v -1 z"
     id="path7" />
  <path
     style="fill:#8e8e8e"
     d="m 23,17 v 1 h 7 v -1 z m 0,2 v 1 h 2 v -1 z m 3,0 v 1 h 4 v -1 z"
     id="path8" />
  <rect
     style="opacity:0.2;fill:#000000"
     width="3"
     height="3"
     x="27"
     y="22"
     id="rect8" />
  <path
     style="opacity:0.2;fill:#ffffff"
     d="m 11,12 c -0.554,0 -1,0.446 -1,1 v 1 c 0,-0.554 0.446,-1 1,-1 h 20 c 0.554,0 1,0.446 1,1 v -1 c 0,-0.554 -0.446,-1 -1,-1 z"
     id="path9" />
  <path
     style="fill:#e4e4e4"
     d="M 16.5,16 A 1.5,1.5 0 0 0 15,17.5 1.5,1.5 0 0 0 16.5,19 1.5,1.5 0 0 0 18,17.5 1.5,1.5 0 0 0 16.5,16 Z m 0,4 C 14,20 14,21.5 14,21.5 V 22 h 5 v -0.5 c 0,0 0,-1.5 -2.5,-1.5 z"
     id="path10" />
  <path
     id="path1040"
     style="opacity:0.1;fill:#ffffff;stroke-width:8;stroke-linecap:square"
     d="m 13,4.0000003 c -4.9859899,0 -8.9999999,4.01401 -8.9999999,8.9999997 v 1 c 0,-4.9859897 4.01401,-8.9999997 8.9999999,-8.9999997 h 22 c 4.985992,0 9,4.01401 9,8.9999997 V 13 C 44,8.0140103 39.985992,4.0000003 35,4.0000003 Z" />
</svg>
