<?xml version="1.0" encoding="UTF-8" standalone="no"?>
<!-- Created with Inkscape (http://www.inkscape.org/) -->

<svg
   width="48"
   height="48"
   viewBox="0 0 48 48"
   version="1.1"
   id="svg5"
   inkscape:version="1.2.2 (1:1.2.2+202305151914+b0a8486541)"
   sodipodi:docname="libreoffice-writer.svg"
   xmlns:inkscape="http://www.inkscape.org/namespaces/inkscape"
   xmlns:sodipodi="http://sodipodi.sourceforge.net/DTD/sodipodi-0.dtd"
   xmlns="http://www.w3.org/2000/svg"
   xmlns:svg="http://www.w3.org/2000/svg">
  <sodipodi:namedview
     id="namedview7"
     pagecolor="#ffffff"
     bordercolor="#000000"
     borderopacity="0.25"
     inkscape:showpageshadow="2"
     inkscape:pageopacity="0.0"
     inkscape:pagecheckerboard="0"
     inkscape:deskcolor="#d1d1d1"
     inkscape:document-units="px"
     showgrid="false"
     inkscape:zoom="17.291667"
     inkscape:cx="24"
     inkscape:cy="24"
     inkscape:window-width="1920"
     inkscape:window-height="1008"
     inkscape:window-x="0"
     inkscape:window-y="0"
     inkscape:window-maximized="1"
     inkscape:current-layer="svg5" />
  <defs
     id="defs2" />
  <rect
     style="opacity:0.2;fill:#000000;stroke-width:2.85714;stroke-linecap:square"
     id="rect234"
     width="40"
     height="40"
     x="4"
     y="5"
     ry="9" />
  <rect
     style="fill:#1b83d4;fill-opacity:1;stroke-width:2.85714;stroke-linecap:square"
     id="rect396"
     width="40"
     height="40"
     x="4"
     y="4"
     ry="9" />
  <path
     id="path1040"
     style="opacity:0.2;fill:#ffffff;stroke-width:8;stroke-linecap:square"
     d="M 13.000001,4.0000004 C 8.0140106,4.0000004 4.0000016,8.0140103 4.0000016,13 v 1 c 0,-4.9859897 4.014009,-8.9999996 8.9999994,-8.9999996 h 22 C 39.985993,5.0000004 44,9.0140103 44,14 V 13 C 44,8.0140103 39.985993,4.0000004 35.000001,4.0000004 Z" />
  <path
     id="path504"
     style="opacity:0.2;fill:#000000"
     d="m 13,16 c -0.553998,0 -1,0.446002 -1,1 0,0.553998 0.446002,1 1,1 h 8 c 0.553998,0 1,-0.446002 1,-1 0,-0.553998 -0.446002,-1 -1,-1 z m 0,3 c -0.553998,0 -1,0.446002 -1,1 0,0.553998 0.446002,1 1,1 h 8 c 0.553998,0 1,-0.446002 1,-1 0,-0.553998 -0.446002,-1 -1,-1 z m 0,3 c -0.553998,0 -1,0.446002 -1,1 0,0.553998 0.446002,1 1,1 h 8 c 0.553998,0 1,-0.446002 1,-1 0,-0.553998 -0.446002,-1 -1,-1 z m 12,0 v 1 c 0,0.553998 0.446002,1 1,1 h 9 c 0.553998,0 1,-0.446002 1,-1 v -1 c 0,0.553999 -0.446001,1 -1,1 h -9 c -0.553999,0 -1,-0.446001 -1,-1 z m -12,4 c -0.553998,0 -1,0.423473 -1,0.949219 v 0.101562 C 12,27.576527 12.446002,28 13,28 h 22 c 0.553998,0 1,-0.423473 1,-0.949219 V 26.949219 C 36,26.423473 35.553998,26 35,26 Z m 0,3 c -0.553998,0 -1,0.446002 -1,1 0,0.553998 0.446002,1 1,1 h 22 c 0.553998,0 1,-0.446002 1,-1 0,-0.553998 -0.446002,-1 -1,-1 z m 0,3 c -0.553998,0 -1,0.446002 -1,1 0,0.553998 0.446002,1 1,1 h 8 c 0.553998,0 1,-0.446002 1,-1 0,-0.553998 -0.446002,-1 -1,-1 z" />
  <path
     d="m 26,15 c -0.553999,0 -1,0.446001 -1,1 v 6 c 0,0.553999 0.446001,1 1,1 h 9 c 0.553999,0 1,-0.446001 1,-1 v -6 c 0,-0.553999 -0.446001,-1 -1,-1 z m 8,1 c 0.552285,0 1,0.447715 1,1 0,0.552285 -0.447715,1 -1,1 -0.552285,0 -1,-0.447715 -1,-1 0,-0.552285 0.447715,-1 1,-1 z m -5,2 4,4 h -7 z"
     style="fill:#7ad2f9"
     id="path397" />
  <path
     d="m 13,15 c -0.553999,0 -1,0.446001 -1,1 0,0.553999 0.446001,1 1,1 h 8 c 0.553999,0 1,-0.446001 1,-1 0,-0.553999 -0.446001,-1 -1,-1 z m 0,3 c -0.553999,0 -1,0.446001 -1,1 0,0.553999 0.446001,1 1,1 h 8 c 0.553999,0 1,-0.446001 1,-1 0,-0.553999 -0.446001,-1 -1,-1 z m 0,3 c -0.553999,0 -1,0.446001 -1,1 0,0.553999 0.446001,1 1,1 h 8 c 0.553999,0 1,-0.446001 1,-1 0,-0.553999 -0.446001,-1 -1,-1 z m 0,4 c -0.553999,0 -1,0.423473 -1,0.949219 v 0.101562 C 12,26.576527 12.446001,27 13,27 h 22 c 0.553999,0 1,-0.423473 1,-0.949219 V 25.949219 C 36,25.423473 35.553999,25 35,25 Z m 0,3 c -0.553999,0 -1,0.446001 -1,1 0,0.553999 0.446001,1 1,1 h 22 c 0.553999,0 1,-0.446001 1,-1 0,-0.553999 -0.446001,-1 -1,-1 z m 0,3 c -0.553999,0 -1,0.446001 -1,1 0,0.553999 0.446001,1 1,1 h 8 c 0.553999,0 1,-0.446001 1,-1 0,-0.553999 -0.446001,-1 -1,-1 z"
     style="fill:#ffffff"
     id="path475" />
</svg>
