<?xml version="1.0" encoding="UTF-8" standalone="no"?>
<!-- Created with Inkscape (http://www.inkscape.org/) -->

<svg
   width="48"
   height="48"
   viewBox="0 0 48 48"
   version="1.1"
   id="svg5"
   inkscape:version="1.3 (0e150ed6c4, 2023-07-21)"
   sodipodi:docname="maps.svg"
   xmlns:inkscape="http://www.inkscape.org/namespaces/inkscape"
   xmlns:sodipodi="http://sodipodi.sourceforge.net/DTD/sodipodi-0.dtd"
   xmlns="http://www.w3.org/2000/svg"
   xmlns:svg="http://www.w3.org/2000/svg">
  <sodipodi:namedview
     id="namedview7"
     pagecolor="#ffffff"
     bordercolor="#000000"
     borderopacity="0.25"
     inkscape:showpageshadow="2"
     inkscape:pageopacity="0.0"
     inkscape:pagecheckerboard="0"
     inkscape:deskcolor="#d1d1d1"
     inkscape:document-units="px"
     showgrid="false"
     inkscape:zoom="16.3125"
     inkscape:cx="23.969349"
     inkscape:cy="24"
     inkscape:window-width="1920"
     inkscape:window-height="984"
     inkscape:window-x="0"
     inkscape:window-y="29"
     inkscape:window-maximized="1"
     inkscape:current-layer="svg5" />
  <defs
     id="defs2" />
  <rect
     style="opacity:0.2;fill:#000000;stroke-width:2.85714;stroke-linecap:square"
     id="rect234"
     width="40"
     height="40"
     x="4"
     y="4.999999"
     ry="9" />
  <rect
     style="fill:#219652;fill-opacity:1;stroke-width:2.85714;stroke-linecap:square"
     id="rect396"
     width="40"
     height="40"
     x="4"
     y="4"
     ry="9" />
  <path
     id="path2"
     style="opacity:0.1;fill:#000000;stroke-width:2"
     d="M 6.9101562,6.375 C 5.8918338,7.3110678 5.09413,8.4778936 4.59375,9.796875 l 33.113282,33.792969 c 1.360502,-0.425546 2.575162,-1.168714 3.570312,-2.13672 L 26.828124,26.714844 43.40625,9.796875 C 42.90587,8.4778936 42.108166,7.3110678 41.089844,6.375 L 24,23.816406 Z" />
  <path
     id="path3"
     style="fill:#eff0f1;stroke-width:2"
     d="M 7.4453124,5.9179688 C 6.3669138,6.7637766 5.494034,7.8525188 4.8945312,9.1015624 L 38.425782,43.324218 c 1.291242,-0.529486 2.425946,-1.352256 3.33203,-2.382812 L 26.828124,25.714844 43.109376,9.1015624 C 42.509856,7.8518846 41.633522,6.7641178 40.554688,5.9179688 L 24,22.816406 Z" />
  <path
     id="path4"
     style="fill:#f64d4d;stroke-width:2"
     d="M 41.324218,6.5859376 23.292968,24.988282 c -0.389652,0.400412 -0.389652,1.052708 0,1.453124 l 4.210938,4.34375 c -0.22509,-1.03184 -0.386718,-1.847656 -0.386718,-1.847656 0,0 0.795962,0.16394 1.80078,0.394532 L 25.414062,25.714844 42.597656,8.1757812 C 42.231766,7.5992614 41.807996,7.0629338 41.324218,6.5859376 Z" />
  <path
     style="fill:#fdbc4b;stroke-width:2"
     d="m 4.0000176,20.321718 v 4.184974 c 0.120976,0.03182 0.2406124,0.06594 0.3576,0.1044 0.8615698,0.28328 1.6439278,0.7522 2.2277612,1.351532 0.948807,0.973994 1.5950816,2.56655 2.2980406,4.407578 0.7114642,1.863306 1.5697406,4.106692 3.4948616,5.79197 1.921229,1.68187 4.262309,2.218304 6.302947,2.502718 2.020688,0.281622 3.832786,0.366594 5.315414,0.8353 1.393202,0.440442 2.699498,1.257928 3.749106,2.329932 0.624024,0.63733 1.161678,1.373372 1.602482,2.169868 h 4.410044 C 33.056666,42.110184 31.980626,40.366 30.568304,38.923546 29.06899,37.392242 27.219228,36.225472 25.17486,35.57917 23.018104,34.89734 20.97267,34.844028 19.219694,34.599708 17.486668,34.358172 15.950976,33.895394 14.975526,33.041474 13.994225,32.182428 13.290175,30.660492 12.608239,28.87452 11.917798,27.066272 11.167136,24.861944 9.4151668,23.06347 8.3193876,21.938602 6.9795798,21.165682 5.5782084,20.704916 5.0546082,20.532758 4.5267024,20.410252 4.0000176,20.321718 Z"
     id="path5" />
  <path
     id="path6"
     style="fill:#2980b9;stroke-width:2"
     d="M 4,22.402344 V 35 c 0,4.985996 4.014005,9 9,9 h 18.59375 c -0.595434,-1.343602 -1.41812,-2.58387 -2.4375,-3.625 -1.274458,-1.301652 -2.85153,-2.292564 -4.570312,-2.835938 -1.81969,-0.57527 -3.745982,-0.643274 -5.632812,-0.90625 C 17.066294,36.36984 15.124119,35.869456 13.675781,34.601562 12.222572,33.329402 11.442794,31.449636 10.746094,29.625 10.049393,27.800362 9.3503866,25.901858 8,24.515624 7.1601946,23.653528 6.1002196,23.032178 4.96875,22.660156 4.6510434,22.555694 4.3268588,22.46919 4,22.402344 Z" />
  <path
     style="opacity:0.1;fill:#000000;stroke-width:2"
     d="m 28,31 c 0,0 1.311636,7.169028 2.928948,8.786594 1.617448,1.617726 4.240032,1.617894 5.857688,3.8e-4 1.617818,-1.617654 1.617818,-4.24062 0,-5.858276 C 35.16898,32.311182 28,31 28,31 Z"
     id="path7" />
  <path
     style="fill:#f64d4d;stroke-width:2"
     d="m 28,30 c 0,0 1.311636,7.169028 2.928948,8.786594 1.617448,1.617726 4.240032,1.617894 5.857688,3.8e-4 1.617818,-1.617654 1.617818,-4.24062 0,-5.858276 C 35.16898,31.311182 28,30 28,30 Z"
     id="path8" />
  <path
     style="opacity:0.1;fill:#000000;stroke-width:2"
     d="m 4,22.402344 v 1 c 0.3268592,0.06686 0.651043,0.1514 0.96875,0.25586 1.1314706,0.372022 2.1914438,0.99337 3.03125,1.855468 1.350388,1.386234 2.049393,3.284736 2.746094,5.109376 0.696701,1.824636 1.478429,3.706352 2.93164,4.978514 1.448339,1.267896 3.386606,1.768278 5.273438,2.03125 1.886832,0.262976 3.815074,0.330978 5.634766,0.90625 1.718782,0.543374 3.295852,1.536236 4.570312,2.83789 0.76089,0.777126 1.412402,1.66442 1.941406,2.623048 H 31.59375 C 30.998316,42.656396 30.175632,41.418084 29.15625,40.376952 27.88179,39.075298 26.304722,38.082436 24.585938,37.539062 22.766246,36.96379 20.838004,36.895788 18.951172,36.632812 17.06434,36.36984 15.126073,35.869456 13.677734,34.601562 12.224523,33.3294 11.442795,31.447686 10.746094,29.623048 10.049393,27.798408 9.350388,25.899906 8,24.513672 7.1601938,23.651574 6.1002208,23.030226 4.96875,22.658204 4.651043,22.553742 4.3268592,22.46919 4,22.402344 Z"
     id="path9" />
  <ellipse
     style="fill:#eff0f1;fill-opacity:1;stroke-width:2;stroke-linecap:round;stroke-linejoin:round"
     id="path11"
     cx="34.000256"
     cy="36.001122"
     rx="1.9999646"
     ry="2.0000355" />
  <path
     id="path1040"
     style="opacity:0.2;fill:#ffffff;stroke-width:8;stroke-linecap:square"
     d="m 13,4.0000002 c -4.98599,0 -9,4.01401 -9,8.9999998 v 1 C 4,9.0140102 8.01401,5.0000002 13,5.0000002 h 22 c 4.985992,0 9,4.01401 9,8.9999998 V 13 C 44,8.0140104 39.985992,4.0000002 35,4.0000002 Z" />
</svg>
