<?xml version="1.0" encoding="UTF-8" standalone="no"?>
<!-- Created with Inkscape (http://www.inkscape.org/) -->

<svg
   width="48"
   height="48"
   viewBox="0 0 48 48"
   version="1.1"
   id="svg5"
   inkscape:version="1.2.2 (1:1.2.2+202305151914+b0a8486541)"
   sodipodi:docname="microsoft-edge.svg"
   xmlns:inkscape="http://www.inkscape.org/namespaces/inkscape"
   xmlns:sodipodi="http://sodipodi.sourceforge.net/DTD/sodipodi-0.dtd"
   xmlns="http://www.w3.org/2000/svg"
   xmlns:svg="http://www.w3.org/2000/svg">
  <sodipodi:namedview
     id="namedview7"
     pagecolor="#ffffff"
     bordercolor="#000000"
     borderopacity="0.25"
     inkscape:showpageshadow="2"
     inkscape:pageopacity="0.0"
     inkscape:pagecheckerboard="0"
     inkscape:deskcolor="#d1d1d1"
     inkscape:document-units="px"
     showgrid="false"
     inkscape:zoom="16.791667"
     inkscape:cx="23.970223"
     inkscape:cy="24"
     inkscape:window-width="1920"
     inkscape:window-height="1008"
     inkscape:window-x="0"
     inkscape:window-y="0"
     inkscape:window-maximized="1"
     inkscape:current-layer="svg5" />
  <defs
     id="defs2" />
  <rect
     style="opacity:0.2;fill:#000000;stroke-width:2.85714;stroke-linecap:square"
     id="rect234"
     width="40"
     height="40"
     x="4"
     y="5"
     ry="9" />
  <rect
     style="fill:#efefef;fill-opacity:1;stroke-width:2.85714;stroke-linecap:square"
     id="rect396"
     width="40"
     height="40"
     x="4"
     y="4"
     ry="9" />
  <g
     id="g1859"
     transform="translate(-0.83268,1.0956201)">
    <path
       d="m 36.90951,31.22887 c -1.43746,1.41426 -3.66725,1.74996 -5.44187,1.75868 -5.54496,0 -10.37511,-4.26366 -10.37511,-9.15761 0.014,-1.3366 0.75104,-2.56079 1.92526,-3.19975 -5.0153,0.21089 -6.30428,5.43642 -6.30428,8.49792 0,8.6561 7.97878,9.53365 9.69783,9.53365 0.92688,0 2.32484,-0.26947 3.16386,-0.53426 l 0.1536,-0.0516 c 3.2286,-1.116 5.98101,-3.29779 7.80421,-6.18628 0.26038,-0.41019 -0.1986,-0.89678 -0.6234,-0.6608 z"
       style="opacity:0.2;fill:#000000;stroke-width:1.49997"
       id="path1585" />
    <path
       d="m 36.90951,30.22931 c -1.43744,1.41427 -3.66723,1.74997 -5.44185,1.75869 -5.54496,0 -10.37513,-4.26366 -10.37513,-9.15761 0.014,-1.33661 0.75104,-2.56079 1.92526,-3.19976 -5.0153,0.2109 -6.30428,5.43642 -6.30428,8.49792 0,8.6561 7.97878,9.53366 9.69783,9.53366 0.92688,0 2.32484,-0.26948 3.16386,-0.53427 l 0.1536,-0.0516 c 3.2286,-1.116 5.98101,-3.29779 7.80421,-6.18627 0.26038,-0.4102 -0.1986,-0.89679 -0.6234,-0.66081 z"
       style="fill:#0e539b;stroke-width:1.49997"
       id="path1557" />
    <path
       d="m 21.77223,37.19034 c -1.04516,-0.64862 -1.95094,-1.49852 -2.66466,-2.50028 -3.46321,-4.74417 -1.35938,-11.46425 3.91022,-14.05971 0.3656,-0.17222 0.99016,-0.48389 1.82098,-0.46866 1.18657,0.009 2.30065,0.57232 3.01037,1.52314 0.4732,0.63173 0.7341,1.39709 0.74526,2.18628 0,-0.0246 2.86622,-9.32627 -9.37441,-9.32627 -5.14423,0 -9.37443,4.88106 -9.37443,9.16341 -0.0202,2.26531 0.46448,4.50668 1.41906,6.5612 3.2292,6.88904 11.10595,10.26886 18.32464,7.86289 -2.47122,0.77906 -5.60963,0.43651 -7.80647,-0.93731 z"
       style="opacity:0.2;fill:#000000;stroke-width:1.49997"
       id="path1613" />
    <path
       d="m 21.77223,36.19063 c -1.04516,-0.64862 -1.95094,-1.49852 -2.66466,-2.50029 -3.46321,-4.74417 -1.35938,-11.46424 3.91022,-14.05971 0.3656,-0.17224 0.99018,-0.48388 1.82098,-0.46865 1.18657,0.009 2.30065,0.57231 3.01037,1.52313 0.4732,0.63173 0.7341,1.3971 0.74526,2.18629 0,-0.0246 2.86622,-9.32628 -9.37441,-9.32628 -5.14423,0 -9.37443,4.88107 -9.37443,9.16342 -0.0202,2.26531 0.46448,4.50667 1.41906,6.5612 3.2292,6.88904 11.10595,10.26886 18.32464,7.86289 -2.47122,0.77905 -5.60963,0.4365 -7.80647,-0.93732 z"
       style="fill:#0b87da;stroke-width:1.49997"
       id="path1529" />
    <path
       d="m 27.68274,25.89571 c -0.095,0.12302 -0.3867,0.29291 -0.3867,0.66315 0,0.3058 0.1992,0.59988 0.5531,0.8471 1.68506,1.17164 4.86178,1.01698 4.86998,1.01698 1.2486,-0.003 2.47353,-0.34084 3.54707,-0.97832 2.20364,-1.28653 3.56056,-3.19444 3.56578,-5.7459 0.0304,-2.62564 -0.93742,-4.37139 -1.32882,-5.14468 C 36.02009,11.69759 30.66028,8.90439 24.83173,8.90439 16.62967,8.90358 9.94802,15.49037 9.83268,23.69052 c 0.0562,-4.28118 4.31222,-8.03868 9.37441,-8.03868 0.41014,0 2.74904,0.0398 4.92156,1.17985 1.91473,1.00526 2.91781,2.51906 3.61503,3.72234 1.01336,1.91188 1.05698,3.88212 -0.0608,5.34168 z"
       style="opacity:0.2;fill:#000000;stroke-width:1.49997"
       id="path1501" />
    <path
       d="m 27.68274,24.89616 c -0.095,0.12302 -0.3867,0.29291 -0.3867,0.66315 0,0.3058 0.1992,0.59988 0.5531,0.8471 1.68504,1.17164 4.86178,1.01698 4.87,1.01698 1.24858,-0.003 2.47351,-0.34085 3.54705,-0.97832 2.20364,-1.28653 3.56056,-3.19445 3.56578,-5.7459 0.0304,-2.62565 -0.93742,-4.3714 -1.32882,-5.14468 C 36.02011,10.69803 30.66028,7.90484 24.83173,7.90484 16.62967,7.90403 9.94802,14.49081 9.83268,22.69096 c 0.0562,-4.28118 4.31222,-8.03867 9.37441,-8.03867 0.41014,0 2.74906,0.0398 4.92156,1.17984 1.91473,1.00527 2.91781,2.51907 3.61503,3.72235 1.01338,1.91188 1.057,3.88212 -0.0608,5.34168 z"
       style="fill:#17dcbe;stroke-width:1.49997"
       id="path1445" />
    <path
       d="M 24.83173,7.90438 C 16.62985,7.90357 9.94902,14.49083 9.83368,22.69149 c 5.6e-4,-0.0399 0.0216,-0.0846 0.0586,-0.13476 0.68244,-7.6649 7.11923,-13.65312 14.93945,-13.65234 4.95783,0 9.57554,2.02248 12.37304,5.61523 0.49328,0.48067 0.93112,1.0659 1.29884,1.78516 0.3657,0.7226 1.2249,2.3051 1.3125,4.65039 0.004,-0.0861 0.018,-0.16818 0.018,-0.25586 0.0304,-2.62582 -0.93868,-4.3712 -1.33006,-5.14453 C 36.02061,10.69802 30.66056,7.90439 24.83217,7.90439 Z m 3.64453,14.91406 c -0.0722,0.75438 -0.32168,1.46276 -0.79296,2.07813 -0.095,0.12302 -0.38672,0.2938 -0.38672,0.66406 0,0.13394 0.0446,0.26413 0.1172,0.39063 0.0928,-0.13636 0.21364,-0.23222 0.26954,-0.30469 0.59576,-0.77789 0.84512,-1.70351 0.80858,-2.68555 -0.004,-0.0474 -0.01,-0.0949 -0.016,-0.14258 z"
       style="opacity:0.2;fill:#ffffff;stroke-width:1.5"
       id="path1473" />
  </g>
  <path
     id="path1040"
     style="opacity:0.2;fill:#ffffff;stroke-width:8;stroke-linecap:square"
     d="m 13,3.9999999 c -4.9859898,0 -8.9999997,4.01401 -8.9999997,9.0000001 v 1 C 4.0000003,9.0140099 8.0140102,4.9999999 13,4.9999999 h 22 c 4.985992,0 9,4.01401 9,9.0000001 V 13 C 44,8.0140099 39.985992,3.9999999 35,3.9999999 Z" />
</svg>
