<?xml version="1.0" encoding="UTF-8" standalone="no"?>
<!-- Created with Inkscape (http://www.inkscape.org/) -->

<svg
   width="48"
   height="48"
   viewBox="0 0 48 48"
   version="1.1"
   id="svg5"
   inkscape:version="1.3.2 (091e20ef0f, 2023-11-25, custom)"
   sodipodi:docname="mintreport.svg"
   xmlns:inkscape="http://www.inkscape.org/namespaces/inkscape"
   xmlns:sodipodi="http://sodipodi.sourceforge.net/DTD/sodipodi-0.dtd"
   xmlns="http://www.w3.org/2000/svg"
   xmlns:svg="http://www.w3.org/2000/svg">
  <sodipodi:namedview
     id="namedview7"
     pagecolor="#ffffff"
     bordercolor="#000000"
     borderopacity="0.25"
     inkscape:showpageshadow="2"
     inkscape:pageopacity="0.0"
     inkscape:pagecheckerboard="0"
     inkscape:deskcolor="#d1d1d1"
     inkscape:document-units="px"
     showgrid="false"
     inkscape:zoom="17.020833"
     inkscape:cx="23.970624"
     inkscape:cy="24"
     inkscape:window-width="1920"
     inkscape:window-height="1020"
     inkscape:window-x="0"
     inkscape:window-y="31"
     inkscape:window-maximized="1"
     inkscape:current-layer="svg5" />
  <defs
     id="defs2" />
  <rect
     style="opacity:0.2;fill:#000000;stroke-width:2.85714;stroke-linecap:square"
     id="rect234"
     width="40"
     height="40"
     x="4"
     y="4.999999"
     ry="9" />
  <rect
     style="fill:#9e744f;fill-opacity:1;stroke-width:2.85714;stroke-linecap:square"
     id="rect396"
     width="40"
     height="40"
     x="4"
     y="4"
     ry="9" />
  <rect
     style="opacity:0.2;fill:#000000;fill-opacity:1;stroke-width:2"
     id="rect2272"
     width="28"
     height="28"
     x="10"
     y="11"
     ry="4" />
  <rect
     style="fill:#efefef;fill-opacity:1;stroke-width:2"
     id="rect2481"
     width="28"
     height="28"
     x="10"
     y="10"
     ry="4" />
  <path
     d="M 24,7 C 22.81432,7.003 21.79377,7.83827 21.55664,9 H 16 c -0.554,0 -1,0.446 -1,1 v 2 c 0,0.554 0.446,1 1,1 h 16 c 0.554,0 1,-0.446 1,-1 V 10 C 33,9.446 32.554,9 32,9 H 26.44922 C 26.21164,7.83612 25.18788,7.00013 24,7 Z m 0,1.5 c 0.55228,0 1,0.44772 1,1 0,0.55228 -0.44772,1 -1,1 -0.55228,0 -1,-0.44772 -1,-1 0,-0.55228 0.44772,-1 1,-1 z"
     style="opacity:0.2;fill:#000000;fill-opacity:1"
     id="path4841" />
  <path
     id="path4746"
     style="fill:#989fa5;fill-opacity:1"
     d="M 24,6 C 22.81432,6.003 21.79377,6.83827 21.55664,8 H 16 c -0.554,0 -1,0.446 -1,1 v 2 c 0,0.554 0.446,1 1,1 h 16 c 0.554,0 1,-0.446 1,-1 V 9 C 33,8.446 32.554,8 32,8 H 26.44922 C 26.21164,6.83612 25.18788,6.00013 24,6 Z m 0,1.5 c 0.55228,0 1,0.44772 1,1 0,0.55228 -0.44772,1 -1,1 -0.55228,0 -1,-0.44772 -1,-1 0,-0.55228 0.44772,-1 1,-1 z"
     sodipodi:nodetypes="ccssssssssccsssss" />
  <path
     d="m 22,14 v 12 h 4 V 14 Z m 0,16 v 4 h 4 v -4 z"
     style="fill:#f44336;fill-opacity:1;stroke-width:1"
     id="path3390"
     sodipodi:nodetypes="cccccccccc" />
  <path
     id="path1040"
     style="opacity:0.2;fill:#ffffff;stroke-width:8;stroke-linecap:square"
     d="m 13,4.0000002 c -4.98599,0 -9,4.01401 -9,8.9999998 v 1 C 4,9.0140102 8.01401,5.0000002 13,5.0000002 h 22 c 4.985992,0 9,4.01401 9,8.9999998 V 13 C 44,8.0140104 39.985992,4.0000002 35,4.0000002 Z" />
</svg>
