<?xml version="1.0" encoding="UTF-8" standalone="no"?>
<!-- Created with Inkscape (http://www.inkscape.org/) -->

<svg
   width="48"
   height="48"
   viewBox="0 0 48 48"
   version="1.1"
   id="svg5"
   inkscape:version="1.3 (0e150ed6c4, 2023-07-21)"
   sodipodi:docname="org.gnome.font-viewer.svg"
   xmlns:inkscape="http://www.inkscape.org/namespaces/inkscape"
   xmlns:sodipodi="http://sodipodi.sourceforge.net/DTD/sodipodi-0.dtd"
   xmlns="http://www.w3.org/2000/svg"
   xmlns:svg="http://www.w3.org/2000/svg">
  <sodipodi:namedview
     id="namedview7"
     pagecolor="#ffffff"
     bordercolor="#000000"
     borderopacity="0.25"
     inkscape:showpageshadow="2"
     inkscape:pageopacity="0.0"
     inkscape:pagecheckerboard="0"
     inkscape:deskcolor="#d1d1d1"
     inkscape:document-units="px"
     showgrid="false"
     inkscape:zoom="16.3125"
     inkscape:cx="23.969349"
     inkscape:cy="24"
     inkscape:window-width="1920"
     inkscape:window-height="984"
     inkscape:window-x="0"
     inkscape:window-y="29"
     inkscape:window-maximized="1"
     inkscape:current-layer="svg5" />
  <defs
     id="defs2" />
  <rect
     style="opacity:0.2;fill:#000000;stroke-width:2.85714;stroke-linecap:square"
     id="rect234"
     width="40"
     height="40"
     x="4"
     y="5"
     ry="9" />
  <rect
     style="fill:#a448ba;fill-opacity:1;stroke-width:2.85714;stroke-linecap:square"
     id="rect396"
     width="40"
     height="40"
     x="4"
     y="4"
     ry="9" />
  <path
     id="path304"
     style="opacity:0.3;fill:#000000;stroke-width:1"
     d="M 13,4 C 8.014009,4 4,8.01401 4,13 v 22 c 0,4.985992 4.014009,9 9,9 z"
     sodipodi:nodetypes="csscc" />
  <path
     id="path2"
     style="font-weight:bold;font-size:322.102px;line-height:1.25;font-family:Montserrat;letter-spacing:0px;word-spacing:0px;opacity:0.2;fill:#000000;stroke-width:0.0552082"
     d="M 20.535156,13 C 18.556448,13 17,14.042387 17,15.382812 c 0,0.489362 0.401048,0.914064 0.90625,0.914064 0.5052,0 0.945312,-0.426444 0.945312,-0.894532 0,-0.0851 -0.02194,-0.190908 -0.04296,-0.339844 -0.0421,-0.191488 -0.0625,-0.358874 -0.0625,-0.507812 0,-0.574469 0.67362,-1.042969 1.515626,-1.042969 1.03145,0 1.76953,0.616687 1.76953,1.765625 v 1.691406 c -2.89914,0.86491 -3.766722,1.093834 -4.671874,1.902344 -0.463104,0.425526 -0.757814,1.149436 -0.757814,1.851562 0,1.340426 0.922978,2.277344 2.207032,2.277344 0.926204,0 1.96204,-0.448304 3.246094,-1.554688 C 22.159956,22.572968 22.730704,23 23.593758,23 c 0.715704,0 1.15778,-0.253988 1.894532,-1.0625 v -0.554688 c -0.357848,0.29787 -0.61003,0.40625 -0.925782,0.40625 -0.484154,0 -0.632812,-0.298206 -0.632812,-1.234374 v -4.152344 c 0,-1.106384 -0.1022,-1.719831 -0.41797,-2.230469 C 23.04862,13.405918 21.77711,13 20.535156,13 Z m 14.472656,0 c -1.558452,0 -3.13786,0.399908 -4.20703,1.132812 l 1.015624,1.902344 c 0.70674,-0.540954 1.775668,-0.871093 2.808594,-0.871094 1.52221,0 2.375,0.780066 2.375,1.94922 l -2.8125,-0.0118 C 31.215602,17.088102 30,18.545362 30,20.203126 30,21.825984 31.240126,23 33.523438,23 34.955038,23 36.474476,22.593336 37,21.738282 v 1.15625 h 3 v -5.63672 C 39.99983,14.413451 37.979744,13 35.007812,13 Z M 22.03125,17.480468 v 2.691408 c 0,0.638298 -0.10482,0.869684 -0.546874,1.125 -0.526256,0.297876 -1.26498,0.46875 -1.707032,0.46875 -0.736756,0 -1.324218,-0.721824 -1.324218,-1.63672 v -0.08594 c 0.02106,-1.276592 1.115264,-1.69016 3.578124,-2.562498 z M 34.492188,18.835938 37,18.847738 v 0.875 c 1.68e-4,0.91092 -1.710024,1.492188 -2.652344,1.492188 -0.996684,0 -1.59375,-0.456164 -1.59375,-1.136718 0,-0.6282 0.415436,-1.250358 1.738282,-1.242188 z M 17.8125,27.402344 c -0.935516,0.07636 -0.90804,1.509958 0.08984,1.496094 h 3.765626 c 0.0042,3.74e-4 0.10828,0.0126 0.222656,0.07422 0.11666,0.06282 0.18362,0.07052 0.203124,0.351562 l 0.09374,2.535158 c -0.17544,-0.06602 -0.292968,-0.09376 -0.292968,-0.09376 l -0.08984,-0.02344 h -3.519526 c -1.650366,0 -2.246094,1.632812 -2.246094,1.632812 L 16,33.492188 v 0.867188 c 0,1.13501 0.546704,1.920734 1.121094,2.273436 0.57439,0.352702 1.164062,0.347656 1.164062,0.347656 h 2.890626 l 1.292968,-0.824218 0.0078,0.1211 c 0.03416,1.023512 1.60751,0.930564 1.519532,-0.08984 l -0.378894,-6.964854 c -0.0536,-0.772874 -0.559754,-1.327516 -0.996094,-1.5625 -0.436338,-0.234982 -0.859376,-0.257812 -0.859376,-0.257812 h -0.02344 -3.835938 c -0.03218,-4.5e-4 -0.05966,-0.0024 -0.08984,0 z M 34.910156,28 c -0.289024,0.006 -0.641794,0.11928 -1.054688,0.335938 -0.471874,0.247594 -0.952142,0.618096 -1.4375,1.11328 -0.485356,0.48143 -0.933614,1.066152 -1.351562,1.753906 -0.404466,0.687758 -0.701874,1.450002 -0.890624,2.289064 -0.1483,0.618982 -0.204516,1.155452 -0.16406,1.609374 0.04044,0.440162 0.13686,0.804896 0.285158,1.09375 0.1483,0.275106 0.331158,0.47386 0.546874,0.597656 C 31.059462,36.930528 31.26047,37 31.449222,37 c 0.404464,-0.02752 0.81038,-0.11822 1.214844,-0.269532 0.350536,-0.13754 0.718394,-0.34786 1.109376,-0.636718 0.390984,-0.302616 0.750646,-0.731042 1.074218,-1.28125 -0.0134,0.371388 0.0048,0.682098 0.0586,0.929688 0.06742,0.247594 0.13572,0.44634 0.203126,0.597656 0.0809,0.17882 0.18334,0.31777 0.304686,0.414062 0.12134,0.08254 0.26009,0.13656 0.421876,0.16406 0.16178,0.04126 0.332542,0.05282 0.507812,0.03906 0.18874,-0.0138 0.37161,-0.04654 0.546874,-0.10156 0.17528,-0.05502 0.330024,-0.1245 0.464844,-0.20703 0.202236,-0.13754 0.449486,-0.369096 0.746094,-0.69922 0.31009,-0.343874 0.619594,-0.718284 0.929688,-1.117186 0.323572,-0.412654 0.63308,-0.815946 0.929688,-1.214844 0.296606,-0.412652 0.541718,-0.756148 0.730468,-1.03125 0.1618,-0.220082 0.25429,-0.41306 0.28125,-0.578126 0.04044,-0.16506 0.03438,-0.288564 -0.0196,-0.371094 -0.05394,-0.08252 -0.13432,-0.10952 -0.242186,-0.08202 -0.10786,0.0138 -0.216358,0.07934 -0.32422,0.203124 -0.0809,0.11004 -0.213594,0.281792 -0.402342,0.515626 -0.17528,0.233842 -0.380178,0.502072 -0.609376,0.804686 -0.229198,0.30261 -0.476448,0.619096 -0.746094,0.94922 -0.25616,0.316364 -0.507326,0.615528 -0.75,0.890624 -0.24268,0.26135 -0.471782,0.481346 -0.6875,0.660156 -0.21571,0.16506 -0.388616,0.246094 -0.523438,0.246094 -0.16178,0 -0.292342,-0.03278 -0.386718,-0.10156 -0.08088,-0.08252 -0.13922,-0.1887 -0.17968,-0.3125 -0.04044,-0.1238 -0.06856,-0.253076 -0.08204,-0.390624 0,-0.15132 0.0062,-0.290266 0.0196,-0.414064 0.04044,-0.206324 0.0746,-0.378068 0.10156,-0.515624 0.02698,-0.13754 0.04904,-0.255278 0.0625,-0.351562 0.02698,-0.11004 0.04512,-0.212308 0.0586,-0.308594 0.02694,-0.11004 0.0551,-0.22777 0.08204,-0.351564 0.13482,-0.632736 0.243326,-1.147972 0.324218,-1.546874 0.08088,-0.398896 0.13924,-0.715382 0.17968,-0.949218 0.04044,-0.233834 0.0625,-0.390128 0.0625,-0.472656 0,-0.0963 -0.0062,-0.16 -0.0196,-0.1875 -0.02698,-0.0138 -0.08316,-0.0196 -0.16406,-0.0196 -0.06742,0 -0.16986,0.0056 -0.304686,0.0196 -0.12134,0.0138 -0.276092,0.04074 -0.464844,0.08202 0.283128,-0.440166 0.391628,-0.789434 0.324218,-1.050782 -0.05394,-0.275102 -0.17452,-0.479634 -0.363282,-0.617186 -0.229196,-0.1513 -0.526606,-0.263258 -0.890624,-0.332032 -0.03876,-0.0034 -0.0759,-0.0048 -0.11718,-0.004 z m -0.359374,1.292968 c 0.0514,0.0028 0.09576,0.0198 0.13282,0.05078 0.04044,0.05504 0.06856,0.13028 0.08204,0.226562 0.0134,0.08254 0.0074,0.200246 -0.0196,0.351564 -0.0134,0.13754 -0.07576,0.318978 -0.1836,0.539062 0.10786,-0.02748 0.21636,-0.04874 0.324218,-0.0625 0.10786,-0.0138 0.19432,-0.03496 0.26172,-0.0625 0.08088,-0.02748 0.15524,-0.04874 0.222656,-0.0625 0.05394,-0.0138 0.05998,0.09818 0.0196,0.33203 -0.02696,0.220086 -0.07322,0.499874 -0.14062,0.84375 -0.0674,0.343884 -0.1478,0.702836 -0.242188,1.07422 -0.09438,0.37139 -0.17476,0.693644 -0.242188,0.96875 -0.0134,0.06878 -0.07576,0.18072 -0.1836,0.33203 -0.09438,0.1513 -0.221028,0.31337 -0.382814,0.492188 -0.1483,0.17882 -0.32511,0.350564 -0.527342,0.515626 -0.18874,0.16506 -0.383706,0.304024 -0.585938,0.414062 -0.18874,0.09628 -0.377656,0.1503 -0.566406,0.16406 -0.18874,0 -0.355604,-0.07526 -0.503908,-0.226562 -0.0809,-0.08254 -0.1371,-0.254276 -0.16406,-0.515626 -0.02696,-0.275102 -0.017,-0.59159 0.02344,-0.949218 0.05394,-0.357636 0.14038,-0.733914 0.261718,-1.132812 0.12134,-0.412654 0.282142,-0.798618 0.484376,-1.15625 0.485356,-0.86658 0.90942,-1.457068 1.273438,-1.773438 0.283124,-0.24759 0.502048,-0.371014 0.65625,-0.363282 z m -16.265626,3.945314 h 3.29297 c 0.04072,0.0116 0.1996,0.05204 0.39453,0.17968 0.212712,0.13928 0.333482,0.258592 0.339844,0.507814 l 0.05468,0.511718 -1.640626,1.046876 h -2.441398 c 0,0 -0.17206,-0.006 -0.359374,-0.1211 -0.18732,-0.11502 -0.402344,-0.268018 -0.402344,-1.003906 v -0.582032 c 0.03918,-0.11412 0.203676,-0.539062 0.761718,-0.539062 z" />
  <path
     id="path6"
     style="font-weight:bold;font-size:322.102px;line-height:1.25;font-family:Montserrat;letter-spacing:0px;word-spacing:0px;fill:#ffffff;stroke-width:0.0552082"
     d="M 20.535156,12 C 18.556448,12 17,13.042387 17,14.382812 c 0,0.489362 0.401048,0.914063 0.90625,0.914063 0.5052,0 0.945312,-0.426443 0.945312,-0.894531 0,-0.0851 -0.02194,-0.190908 -0.04296,-0.339844 -0.0421,-0.191488 -0.0625,-0.358874 -0.0625,-0.507812 0,-0.574469 0.67362,-1.042969 1.515626,-1.042969 1.03145,0 1.76953,0.616687 1.76953,1.765625 v 1.691406 c -2.89914,0.86491 -3.766722,1.093834 -4.671874,1.902344 -0.463104,0.425526 -0.757814,1.149436 -0.757814,1.851562 0,1.340426 0.922978,2.277344 2.207032,2.277344 0.926204,0 1.96204,-0.448304 3.246094,-1.554688 C 22.159948,21.57297 22.730696,22 23.59375,22 c 0.715704,0 1.15778,-0.25399 1.894532,-1.0625 v -0.554688 c -0.357848,0.29787 -0.61003,0.40625 -0.925782,0.40625 -0.484154,0 -0.632812,-0.298206 -0.632812,-1.234374 v -4.152344 c 0,-1.106384 -0.1022,-1.719831 -0.41797,-2.230469 C 23.04862,12.405918 21.77711,12 20.535156,12 Z m 14.472656,0 c -1.558452,0 -3.13786,0.399908 -4.20703,1.132812 l 1.015624,1.902344 c 0.70674,-0.540954 1.775668,-0.871093 2.808594,-0.871094 1.52221,0 2.375,0.780066 2.375,1.94922 l -2.8125,-0.0118 C 31.215602,16.088102 30,17.545362 30,19.203126 30,20.825984 31.240126,22 33.523438,22 34.955038,22 36.474476,21.593336 37,20.738282 v 1.15625 h 3 v -5.63672 C 39.99983,13.413451 37.979744,12 35.007812,12 Z M 22.03125,16.480468 v 2.691408 c 0,0.638298 -0.10482,0.869684 -0.546874,1.125 -0.526256,0.297876 -1.26498,0.46875 -1.707032,0.46875 -0.736756,0 -1.324218,-0.721824 -1.324218,-1.63672 v -0.08594 c 0.02106,-1.276594 1.115264,-1.690162 3.578124,-2.5625 z M 34.492188,17.835938 37,17.847738 v 0.875 c 1.68e-4,0.91092 -1.710024,1.492188 -2.652344,1.492188 -0.996684,0 -1.59375,-0.456164 -1.59375,-1.136718 0,-0.6282 0.415436,-1.250358 1.738282,-1.242188 z M 17.8125,26.402344 c -0.935516,0.07636 -0.90804,1.509958 0.08984,1.496094 h 3.765626 c 0.0042,3.74e-4 0.10828,0.0126 0.222656,0.07422 0.11666,0.06282 0.18362,0.07052 0.203124,0.351562 l 0.09374,2.535158 c -0.17544,-0.06602 -0.292968,-0.09376 -0.292968,-0.09376 l -0.08984,-0.02344 h -3.519526 c -1.650366,0 -2.246094,1.632812 -2.246094,1.632812 L 16,32.492188 v 0.867188 c 0,1.13501 0.546704,1.920734 1.121094,2.273436 0.57439,0.352702 1.164062,0.347656 1.164062,0.347656 h 2.890626 l 1.292968,-0.824218 0.0078,0.1211 c 0.03416,1.023512 1.60751,0.930564 1.519532,-0.08984 l -0.378894,-6.964854 c -0.0536,-0.772874 -0.559754,-1.327516 -0.996094,-1.5625 -0.436338,-0.234982 -0.859376,-0.257812 -0.859376,-0.257812 h -0.02344 -3.835938 c -0.03218,-4.5e-4 -0.05966,-0.0024 -0.08984,0 z M 34.910156,27 c -0.289024,0.006 -0.641794,0.11928 -1.054688,0.335938 -0.471874,0.247594 -0.952142,0.618096 -1.4375,1.11328 -0.485356,0.48143 -0.933614,1.066152 -1.351562,1.753906 -0.404466,0.687758 -0.701874,1.450002 -0.890624,2.289064 -0.1483,0.618982 -0.204516,1.155452 -0.16406,1.609374 0.04044,0.440162 0.13686,0.804896 0.285158,1.09375 0.1483,0.275106 0.331158,0.47386 0.546874,0.597656 C 31.059458,35.930522 31.260466,36 31.449218,36 c 0.404464,-0.02752 0.81038,-0.11822 1.214844,-0.269532 0.350536,-0.13754 0.718394,-0.34786 1.109376,-0.636718 0.390984,-0.302616 0.750646,-0.731042 1.074218,-1.28125 -0.0134,0.371388 0.0048,0.682098 0.0586,0.929688 0.06742,0.247594 0.13572,0.44634 0.203126,0.597656 0.0809,0.17882 0.18334,0.31777 0.304686,0.414062 0.12134,0.08254 0.26009,0.13656 0.421876,0.16406 0.16178,0.04126 0.332542,0.05282 0.507812,0.03906 0.18874,-0.0138 0.37161,-0.04654 0.546874,-0.10156 0.17528,-0.05502 0.330024,-0.1245 0.464844,-0.20703 0.202236,-0.13754 0.449486,-0.369096 0.746094,-0.69922 0.31009,-0.343874 0.619594,-0.718284 0.929688,-1.117186 0.323572,-0.412654 0.63308,-0.815946 0.929688,-1.214844 0.296606,-0.412652 0.541718,-0.756148 0.730468,-1.03125 0.1618,-0.220082 0.25429,-0.41306 0.28125,-0.578126 0.04044,-0.16506 0.03438,-0.288564 -0.0196,-0.371094 -0.05394,-0.08252 -0.13432,-0.10952 -0.242186,-0.08202 -0.10786,0.0138 -0.216358,0.07934 -0.32422,0.203124 -0.0809,0.11004 -0.213594,0.281792 -0.402342,0.515626 -0.17528,0.233842 -0.380178,0.502072 -0.609376,0.804686 -0.229198,0.30261 -0.476448,0.619096 -0.746094,0.94922 -0.25616,0.316364 -0.507326,0.615528 -0.75,0.890624 -0.24268,0.26135 -0.471782,0.481346 -0.6875,0.660156 -0.21571,0.16506 -0.388616,0.246094 -0.523438,0.246094 -0.16178,0 -0.292342,-0.03278 -0.386718,-0.10156 -0.08088,-0.08252 -0.13922,-0.1887 -0.17968,-0.3125 -0.04044,-0.1238 -0.06856,-0.253076 -0.08204,-0.390624 0,-0.15132 0.0062,-0.290266 0.0196,-0.414064 0.04044,-0.206324 0.0746,-0.378068 0.10156,-0.515624 0.02698,-0.13754 0.04904,-0.255278 0.0625,-0.351562 0.02698,-0.11004 0.04512,-0.212308 0.0586,-0.308594 0.02694,-0.11004 0.0551,-0.22777 0.08204,-0.351564 0.13482,-0.632736 0.243326,-1.147972 0.324218,-1.546874 0.08088,-0.398896 0.13924,-0.715382 0.17968,-0.949218 0.04044,-0.233834 0.0625,-0.390128 0.0625,-0.472656 0,-0.0963 -0.0062,-0.16 -0.0196,-0.1875 -0.02698,-0.0138 -0.08316,-0.0196 -0.16406,-0.0196 -0.06742,0 -0.16986,0.0056 -0.304686,0.0196 -0.12134,0.0138 -0.276092,0.04074 -0.464844,0.08202 0.283128,-0.440166 0.391628,-0.789434 0.324218,-1.050782 -0.05394,-0.275102 -0.17452,-0.479634 -0.363282,-0.617186 -0.229196,-0.1513 -0.526606,-0.263258 -0.890624,-0.332032 -0.03876,-0.0034 -0.0759,-0.0048 -0.11718,-0.004 z m -0.359374,1.292968 c 0.0514,0.0028 0.09576,0.0198 0.13282,0.05078 0.04044,0.05504 0.06856,0.13028 0.08204,0.226562 0.0134,0.08254 0.0074,0.200246 -0.0196,0.351564 -0.0134,0.13754 -0.07576,0.318978 -0.1836,0.539062 0.10786,-0.02748 0.21636,-0.04874 0.324218,-0.0625 0.10786,-0.0138 0.19432,-0.03496 0.26172,-0.0625 0.08088,-0.02748 0.15524,-0.04874 0.222656,-0.0625 0.05394,-0.0138 0.05998,0.09818 0.0196,0.33203 -0.02696,0.220086 -0.07322,0.499874 -0.14062,0.84375 -0.0674,0.343884 -0.1478,0.702836 -0.242188,1.07422 -0.09438,0.37139 -0.17476,0.693644 -0.242188,0.96875 -0.0134,0.06878 -0.07576,0.18072 -0.1836,0.33203 -0.09438,0.1513 -0.221028,0.31337 -0.382814,0.492188 -0.1483,0.17882 -0.32511,0.350564 -0.527342,0.515626 -0.18874,0.16506 -0.383706,0.304024 -0.585938,0.414062 -0.18874,0.09628 -0.377656,0.1503 -0.566406,0.16406 -0.18874,0 -0.355604,-0.07526 -0.503908,-0.226562 -0.0809,-0.08254 -0.1371,-0.254276 -0.16406,-0.515626 -0.02696,-0.275102 -0.017,-0.59159 0.02344,-0.949218 0.05394,-0.357636 0.14038,-0.733914 0.261718,-1.132812 0.12134,-0.412654 0.282142,-0.798618 0.484376,-1.15625 0.485356,-0.86658 0.90942,-1.457068 1.273438,-1.773438 0.283124,-0.24759 0.502048,-0.371014 0.65625,-0.363282 z m -16.265626,3.945314 h 3.29297 c 0.04072,0.0116 0.1996,0.05204 0.39453,0.17968 0.212712,0.13928 0.333482,0.258592 0.339844,0.507814 l 0.05468,0.511718 -1.640626,1.046876 h -2.441398 c 0,0 -0.17206,-0.006 -0.359374,-0.1211 -0.18732,-0.11502 -0.402344,-0.268018 -0.402344,-1.003906 v -0.582032 c 0.03918,-0.11412 0.203676,-0.539062 0.761718,-0.539062 z" />
  <path
     id="path1040"
     style="opacity:0.1;fill:#ffffff;stroke-width:8;stroke-linecap:square"
     d="M 13,4 C 8.01401,4 4,8.01401 4,13 v 1 C 4,9.01401 8.01401,5 13,5 h 22 c 4.985992,0 9,4.01401 9,9 V 13 C 44,8.01401 39.985992,4 35,4 Z" />
</svg>
