<?xml version="1.0" encoding="UTF-8" standalone="no"?>
<!-- Created with Inkscape (http://www.inkscape.org/) -->

<svg
   width="48"
   height="48"
   viewBox="0 0 48 48"
   version="1.1"
   id="svg5"
   inkscape:version="1.3 (0e150ed6c4, 2023-07-21)"
   sodipodi:docname="org.gnome.baobab.svg"
   xmlns:inkscape="http://www.inkscape.org/namespaces/inkscape"
   xmlns:sodipodi="http://sodipodi.sourceforge.net/DTD/sodipodi-0.dtd"
   xmlns="http://www.w3.org/2000/svg"
   xmlns:svg="http://www.w3.org/2000/svg">
  <sodipodi:namedview
     id="namedview7"
     pagecolor="#ffffff"
     bordercolor="#000000"
     borderopacity="0.25"
     inkscape:showpageshadow="2"
     inkscape:pageopacity="0.0"
     inkscape:pagecheckerboard="0"
     inkscape:deskcolor="#d1d1d1"
     inkscape:document-units="px"
     showgrid="false"
     inkscape:zoom="15.1875"
     inkscape:cx="24"
     inkscape:cy="24"
     inkscape:window-width="1920"
     inkscape:window-height="937"
     inkscape:window-x="0"
     inkscape:window-y="32"
     inkscape:window-maximized="1"
     inkscape:current-layer="svg5" />
  <defs
     id="defs2" />
  <rect
     style="opacity:0.2;fill:#000000;stroke-width:2.85714;stroke-linecap:square"
     id="rect234"
     width="40"
     height="40"
     x="4"
     y="5"
     ry="9" />
  <rect
     style="fill:#fff55d;fill-opacity:1;stroke-width:2.85714;stroke-linecap:square"
     id="rect396"
     width="40"
     height="36"
     x="4"
     y="8"
     ry="9" />
  <path
     id="rect1"
     style="opacity:0.2;fill:#000000;stroke-width:2"
     d="M 13,8 C 8.01401,8 4,12.01401 4,17 v 18 c 0,2.748732 1.2260552,5.195526 3.15625,6.84375 L 24,25 H 44 V 17 C 44,12.01401 39.985992,8 35,8 Z" />
  <path
     id="rect2"
     style="fill:#4098fe;fill-opacity:1;stroke-width:3"
     d="M 24,4 V 24 H 44 V 13 C 44,8.014005 39.985996,4 35,4 Z" />
  <path
     id="rect3"
     style="fill:#24db65;fill-opacity:1;stroke-width:3"
     d="M 13,4 C 8.014005,4 4,8.014005 4,13 v 22 c 0,2.492998 1.0021578,4.744346 2.6289062,6.371094 L 24,24 V 4 Z" />
  <path
     id="rect5"
     style="fill:#25a068;fill-opacity:1;stroke-width:3"
     d="M 24,21 5.3164062,39.683594 c 0.3730604,0.612398 0.8084596,1.18346 1.3125,1.6875 L 24,24 Z" />
  <rect
     style="fill:#2379e0;fill-opacity:1;stroke-width:3"
     id="rect4"
     width="20"
     height="4"
     x="24"
     y="20" />
  <path
     id="path1040"
     style="opacity:0.2;fill:#ffffff;stroke-width:8;stroke-linecap:square"
     d="M 13,4 C 8.01401,4 4,8.01401 4,13 v 1 C 4,9.01401 8.01401,5 13,5 h 22 c 4.985992,0 9,4.01401 9,9 V 13 C 44,8.01401 39.985992,4 35,4 Z" />
</svg>
