<?xml version="1.0" encoding="UTF-8" standalone="no"?>
<!-- Created with Inkscape (http://www.inkscape.org/) -->

<svg
   width="48"
   height="48"
   viewBox="0 0 48 48"
   version="1.1"
   id="svg5"
   inkscape:version="1.2.2 (1:1.2.2+202305151914+b0a8486541)"
   sodipodi:docname="preferences-desktop-color.svg"
   xmlns:inkscape="http://www.inkscape.org/namespaces/inkscape"
   xmlns:sodipodi="http://sodipodi.sourceforge.net/DTD/sodipodi-0.dtd"
   xmlns="http://www.w3.org/2000/svg"
   xmlns:svg="http://www.w3.org/2000/svg">
  <sodipodi:namedview
     id="namedview7"
     pagecolor="#ffffff"
     bordercolor="#000000"
     borderopacity="0.25"
     inkscape:showpageshadow="2"
     inkscape:pageopacity="0.0"
     inkscape:pagecheckerboard="0"
     inkscape:deskcolor="#d1d1d1"
     inkscape:document-units="px"
     showgrid="false"
     inkscape:zoom="16.791667"
     inkscape:cx="23.970223"
     inkscape:cy="24"
     inkscape:window-width="1920"
     inkscape:window-height="1008"
     inkscape:window-x="0"
     inkscape:window-y="0"
     inkscape:window-maximized="1"
     inkscape:current-layer="svg5" />
  <defs
     id="defs2" />
  <rect
     style="opacity:0.2;fill:#000000;stroke-width:2.85714;stroke-linecap:square"
     id="rect234"
     width="40"
     height="40"
     x="4"
     y="4.999999"
     ry="9" />
  <rect
     style="fill:#4f4f4f;fill-opacity:1;stroke-width:2.85714;stroke-linecap:square"
     id="rect396"
     width="40"
     height="40"
     x="4"
     y="4"
     ry="9" />
  <path
     d="m 24.000196,11 c -2.483865,0.003 -4.738318,1.600761 -5.770951,4.089844 C 15.539603,14.73217 13.017391,15.868985 11.772579,18 c -1.238374,2.134693 -0.969745,4.869149 0.687669,7 -1.657414,2.130851 -1.926043,4.865307 -0.687669,7 1.244224,2.131823 3.766558,3.269456 6.456666,2.912109 1.033154,2.48832 3.287498,4.085199 5.770951,4.087891 2.483864,-0.003 4.738318,-1.600762 5.77095,-4.089844 2.688969,0.35668 5.210407,-0.779488 6.454713,-2.910156 1.282653,-2.202662 0.91826,-4.934658 -0.685716,-7.001953 0.142303,-0.183227 0.275317,-0.372268 0.398536,-0.566406 v -0.002 c 0.122549,-0.192076 0.235348,-0.388935 0.337974,-0.589844 l 0.0059,-0.01172 c 0.09994,-0.197788 0.189916,-0.399202 0.269597,-0.603516 l 0.0039,-0.0098 c 0.07453,-0.193831 0.13972,-0.390006 0.195361,-0.587891 0.0059,-0.01886 0.01181,-0.03774 0.01758,-0.05664 0.05202,-0.191578 0.09505,-0.38448 0.128938,-0.578124 0.0047,-0.02408 0.0093,-0.04817 0.01367,-0.07227 0.02921,-0.177492 0.05072,-0.355377 0.06447,-0.533203 0.0038,-0.04819 0.0071,-0.09637 0.0098,-0.144531 0.0081,-0.157959 0.01008,-0.315616 0.0059,-0.472657 -8.88e-4,-0.06587 -0.0029,-0.131634 -0.0059,-0.197265 -0.0082,-0.138138 -0.02127,-0.275579 -0.03907,-0.41211 -0.0095,-0.07779 -0.0206,-0.155277 -0.03321,-0.232422 -0.02241,-0.129369 -0.04915,-0.257688 -0.08017,-0.384773 -0.01851,-0.07993 -0.03871,-0.159371 -0.06057,-0.238281 -0.03665,-0.127822 -0.07769,-0.254156 -0.123058,-0.378813 -0.02591,-0.0722 -0.05327,-0.143824 -0.08205,-0.214843 -0.04591,-0.112953 -0.09542,-0.224328 -0.148474,-0.333985 C 36.359517,18.248907 36.295009,18.123185 36.225859,18 c -0.09116,-0.153541 -0.189576,-0.302764 -0.294995,-0.447266 -0.06392,-0.08708 -0.130368,-0.172394 -0.199267,-0.255859 -0.06416,-0.08179 -0.130601,-0.161894 -0.199268,-0.240234 -0.07079,-0.07673 -0.143746,-0.151619 -0.218804,-0.22461 -0.07591,-0.07691 -0.154083,-0.151807 -0.234432,-0.224609 -0.08067,-0.07047 -0.163395,-0.138851 -0.248108,-0.205078 -0.08023,-0.06516 -0.162303,-0.128327 -0.246155,-0.189453 -0.09056,-0.06358 -0.183056,-0.124801 -0.277411,-0.183594 -0.08949,-0.05758 -0.180687,-0.112937 -0.273505,-0.166016 -0.09102,-0.05037 -0.183519,-0.09856 -0.277413,-0.144531 -0.103144,-0.05288 -0.208024,-0.103031 -0.31453,-0.150391 -0.09521,-0.03998 -0.191612,-0.07775 -0.289133,-0.113281 -0.104851,-0.0404 -0.211032,-0.07818 -0.318438,-0.113281 -0.09998,-0.03096 -0.200946,-0.05961 -0.302809,-0.08594 -0.117987,-0.03247 -0.237202,-0.06177 -0.35751,-0.08789 -0.09643,-0.01897 -0.193479,-0.0359 -0.291087,-0.05078 -0.120936,-0.02076 -0.242756,-0.03835 -0.365324,-0.05273 -0.189981,-0.02202 -0.381606,-0.03636 -0.574361,-0.04297 -0.38962,-0.0093 -0.78242,0.0129 -1.174116,0.06641 -1.03286,-2.487612 -3.286252,-4.084357 -5.768997,-4.08789 z"
     style="opacity:0.2;fill:#000000"
     id="path691" />
  <path
     d="m 35.292,24 c 0,6.185589 -5.055601,11.199999 -11.292,11.2 -6.236399,0 -11.292,-5.014411 -11.292,-11.2 0,-6.185589 5.055601,-11.2 11.292,-11.2 6.236399,10e-7 11.292,5.014412 11.292,11.2 z"
     style="fill:#278df2"
     id="path720" />
  <path
     d="m 33.288175,25.955987 c -3.375435,1.93301 -7.533617,1.057273 -9.287558,-1.956014 -1.75394,-3.013286 -0.439459,-7.02305 2.935977,-8.956059 3.375435,-1.933009 7.533616,-1.057272 9.287558,1.956013 1.753941,3.013285 0.43946,7.02305 -2.935977,8.95606 z"
     style="fill:#34e0c4"
     id="path558" />
  <path
     d="m 30.350999,31 c 0,3.865993 -2.843439,7 -6.350999,7 -3.50756,0 -6.351,-3.134007 -6.351,-7 0,-3.865993 2.84344,-7 6.351,-7 3.50756,0 6.350999,3.134007 6.350999,7 z"
     style="fill:#ffc107"
     id="path471" />
  <path
     d="m 21.064642,32.956033 c -3.375436,1.933009 -7.533617,1.057272 -9.287557,-1.956014 -1.753941,-3.013285 -0.43946,-7.023049 2.935976,-8.956059 3.375435,-1.93301 7.533616,-1.057273 9.287557,1.956013 1.753941,3.013286 0.43946,7.02305 -2.935976,8.95606 z"
     style="fill:#fb8300"
     id="path500" />
  <path
     d="m 14.714737,25.955671 c 3.375435,1.933009 7.533616,1.057273 9.287557,-1.956013 1.75394,-3.013285 0.439459,-7.023049 -2.935976,-8.956059 -3.375436,-1.933009 -7.533617,-1.057272 -9.287558,1.956013 -1.75394,3.013286 -0.439459,7.02305 2.935977,8.956059 z"
     style="fill:#fa3e30"
     id="path529" />
  <path
     d="m 24.000194,10 c -3.507833,-10e-7 -6.351494,3.134006 -6.351494,7 0,3.865994 2.843661,7.000001 6.351494,7 -1.754282,-3.013313 -0.439784,-7.023393 2.93591,-8.956446 0.878726,-0.500309 1.844798,-0.825784 2.832534,-0.954296 C 28.736267,11.600798 26.48293,10.003404 24.000194,10 Z m 0,14 c 2.751432,-0.0022 5.188689,-1.956654 6.037226,-4.841211 -0.197846,0.666569 -0.48546,1.296586 -0.853207,1.868945 -2.217594,0.09186 -4.150832,1.20029 -5.184019,2.972266 z m 6.037226,-4.841211 c 0.05953,-0.203309 0.110582,-0.409514 0.152999,-0.617969 -0.04242,0.208455 -0.09347,0.41466 -0.152999,0.617969 z m -0.194349,-4.883594 c 0.0801,0.20891 0.150938,0.421987 0.212267,0.638476 -0.06133,-0.216489 -0.132168,-0.429566 -0.212267,-0.638476 z m 0.221916,0.667188 c 0.05001,0.182548 0.09324,0.367272 0.129567,0.55371 -0.03633,-0.186438 -0.07955,-0.371162 -0.129567,-0.55371 z m 0.165403,0.724609 c 0.02504,0.148248 0.04572,0.297349 0.06202,0.44707 -0.0163,-0.149721 -0.03698,-0.298822 -0.06202,-0.44707 z m 0.09235,0.725976 c 0.01762,0.201787 0.02728,0.404321 0.02895,0.607032 -0.0017,-0.202711 -0.01132,-0.405245 -0.02894,-0.607032 z m 0.01516,0.916016 c -0.0046,0.153417 -0.01381,0.306625 -0.02757,0.459375 0.01376,-0.15275 0.02295,-0.305958 0.02757,-0.459375 z m -0.04962,0.620703 c -0.0211,0.18205 -0.04869,0.363114 -0.0827,0.542774 0.03401,-0.17966 0.0616,-0.360724 0.0827,-0.542774 z"
     style="fill:#a544c9"
     id="path635" />
  <path
     d="M 29.282077,21.020899 C 27.025032,21.084239 25.048571,22.199004 24.000194,24 c 3.507832,0 6.351492,3.134006 6.351492,7 -0.0025,1.005129 -0.201335,1.99788 -0.583048,2.910742 2.689043,0.357495 5.210568,-0.779555 6.454871,-2.910742 1.754281,-3.013315 0.439783,-7.023393 -2.935912,-8.956445 -1.231634,-0.705067 -2.627796,-1.061524 -4.00552,-1.022656 z"
     style="fill:#009688"
     id="path360" />
  <path
     d="m 30.944071,14.020898 c -1.377908,-0.03872 -2.774205,0.317981 -4.005866,1.02334 -3.375054,1.93298 -4.689451,5.942291 -2.935911,8.95542 1.048439,-1.800755 3.024665,-2.915427 5.281539,-2.97876 1.377724,-0.03886 2.773886,0.31759 4.00552,1.022657 0.907413,0.519619 1.664345,1.190215 2.254313,1.950293 C 37.196325,21.863535 37.462635,19.132319 36.225609,17 35.177291,15.199098 33.200982,14.084342 30.944071,14.020898 Z M 24.002294,24 c 1.034728,1.774586 2.972044,2.883486 5.193324,2.972607 C 28.046044,25.175209 26.149257,24.000126 24.002294,24 Z"
     style="fill:#03a9f4"
     id="path388" />
  <path
     d="m 24.002294,23.999658 c -10.94706,11.200228 -5.47353,5.600114 0,0 z m 0,3.42e-4 c 1.11441,2.263715 3.03075,3.24385 5.193324,2.972607 C 28.046044,25.175209 26.149257,24.000126 24.002294,24 Z"
     style="fill:#ffc107"
     id="path748" />
  <path
     d="m 24.001,10 c -2.484058,0.0028 -4.738771,1.600568 -5.771484,4.089844 C 15.539737,13.732028 13.017343,14.86886 11.772484,17 11.191156,18.007651 10.932958,19.172922 11.026391,20.367188 11.101541,19.525085 11.355104,18.720578 11.772484,18 13.017343,15.86886 15.539737,14.732028 18.229516,15.089844 19.262229,12.600568 21.516942,11.002812 24.001,11 c 2.482231,0.0041 4.734933,1.600792 5.767578,4.08789 0.3916,-0.05349 0.784302,-0.07571 1.173828,-0.06641 0.193365,0.0066 0.385595,0.02089 0.576172,0.04297 0.122538,0.01439 0.244328,0.03198 0.365234,0.05273 0.09758,0.01488 0.194613,0.03181 0.291016,0.05078 0.120278,0.02612 0.239464,0.05543 0.357422,0.08789 0.101837,0.02633 0.202777,0.05498 0.302734,0.08594 0.10738,0.0351 0.213535,0.07288 0.31836,0.113282 0.0975,0.03553 0.193878,0.0733 0.289062,0.113281 0.10648,0.04736 0.211335,0.09751 0.314453,0.15039 0.09387,0.04597 0.186345,0.09416 0.277344,0.144532 0.0928,0.05308 0.183969,0.108434 0.273438,0.166015 0.09433,0.05879 0.18681,0.120012 0.277343,0.183594 0.08383,0.06113 0.165886,0.124297 0.246094,0.189453 0.08469,0.06623 0.167401,0.134609 0.248047,0.205078 0.08033,0.0728 0.15848,0.147698 0.234375,0.22461 0.07504,0.07299 0.147978,0.147884 0.21875,0.224609 0.06865,0.07834 0.135077,0.158443 0.199219,0.240234 0.06888,0.08347 0.135311,0.16878 0.199219,0.25586 0.105393,0.144503 0.203789,0.293726 0.294921,0.447266 0.06913,0.123186 0.133624,0.248908 0.19336,0.376953 0.05304,0.109658 0.102538,0.221033 0.148437,0.333985 0.02878,0.07102 0.05613,0.142646 0.08203,0.214843 0.04537,0.124688 0.0864,0.251053 0.123046,0.378907 0.02186,0.07891 0.04204,0.158352 0.06055,0.238281 0.03099,0.127083 0.0577,0.255399 0.08008,0.384765 0.01261,0.07715 0.02368,0.154632 0.0332,0.232422 0.01042,0.08755 0.01888,0.175459 0.02539,0.263672 0.0013,-0.01237 0.0026,-0.02474 0.0039,-0.03711 0.0038,-0.04819 0.0071,-0.09637 0.0098,-0.144531 0.0081,-0.157959 0.01005,-0.315617 0.0059,-0.472657 -8.76e-4,-0.06587 -0.0028,-0.131634 -0.0059,-0.197265 -0.0082,-0.138137 -0.02127,-0.275579 -0.03906,-0.41211 -0.0095,-0.07779 -0.0206,-0.155277 -0.0332,-0.232422 -0.02238,-0.129366 -0.04909,-0.257682 -0.08008,-0.384765 -0.0185,-0.07993 -0.03869,-0.159371 -0.06055,-0.238281 -0.03665,-0.127854 -0.07768,-0.254219 -0.123046,-0.378907 -0.02591,-0.0722 -0.05326,-0.143824 -0.08203,-0.214844 -0.0459,-0.112952 -0.0954,-0.224327 -0.148437,-0.333985 -0.05977,-0.128043 -0.124256,-0.253765 -0.19339,-0.376951 -0.09113,-0.15354 -0.189528,-0.302763 -0.294921,-0.447266 -0.06391,-0.08708 -0.130336,-0.172394 -0.199219,-0.255859 -0.06414,-0.08179 -0.130569,-0.161894 -0.199219,-0.240235 -0.07077,-0.07672 -0.143711,-0.151617 -0.21875,-0.224609 -0.07589,-0.07691 -0.154046,-0.151806 -0.234375,-0.224609 -0.08065,-0.07047 -0.163354,-0.13885 -0.248047,-0.205078 -0.08021,-0.06516 -0.162263,-0.128326 -0.246094,-0.189454 -0.09053,-0.06358 -0.183011,-0.124799 -0.277343,-0.183593 -0.08947,-0.05758 -0.180642,-0.112937 -0.273438,-0.166016 -0.091,-0.05037 -0.183473,-0.09856 -0.277344,-0.144531 -0.103118,-0.05288 -0.207973,-0.10303 -0.314453,-0.150391 -0.09518,-0.03998 -0.191565,-0.07775 -0.289062,-0.113281 -0.104825,-0.0404 -0.21098,-0.07818 -0.31836,-0.113281 -0.09996,-0.03096 -0.200897,-0.05961 -0.302734,-0.08594 -0.117958,-0.03246 -0.237144,-0.06177 -0.357422,-0.08789 -0.0964,-0.01897 -0.193432,-0.0359 -0.291016,-0.05078 -0.120906,-0.02076 -0.242696,-0.03834 -0.365234,-0.05273 -0.190577,-0.02207 -0.382807,-0.03641 -0.576172,-0.04297 -0.389526,-0.0093 -0.782228,0.01292 -1.173828,0.06641 C 28.735933,11.600792 26.483231,10.004143 24.001,10 Z M 12.110375,24.496094 c -0.816061,1.253965 -1.196084,2.68831 -1.082031,4.083984 C 11.13436,27.312113 11.632119,26.067376 12.459984,25 12.335978,24.836346 12.219325,24.66821 12.110375,24.496094 Z m 23.775392,0.01367 c -0.10808,0.166774 -0.223425,0.329688 -0.345704,0.488281 0.829036,1.068508 1.319216,2.315435 1.429688,3.574219 0.110294,-1.393912 -0.277138,-2.818285 -1.083984,-4.0625 z"
     style="opacity:0.2;fill:#ffffff"
     id="path663" />
  <path
     id="path1040"
     style="opacity:0.1;fill:#ffffff;stroke-width:8;stroke-linecap:square"
     d="m 13,4.0000003 c -4.9859899,0 -8.9999999,4.01401 -8.9999999,8.9999997 v 1 c 0,-4.9859897 4.01401,-8.9999997 8.9999999,-8.9999997 h 22 c 4.985992,0 9,4.01401 9,8.9999997 V 13 C 44,8.0140103 39.985992,4.0000003 35,4.0000003 Z" />
</svg>
