<?xml version="1.0" encoding="UTF-8" standalone="no"?>
<!-- Created with Inkscape (http://www.inkscape.org/) -->

<svg
   width="48"
   height="48"
   viewBox="0 0 48 48"
   version="1.1"
   id="svg5"
   inkscape:version="1.2.2 (1:1.2.2+202305151914+b0a8486541)"
   sodipodi:docname="preferences-desktop-mouse.svg"
   xmlns:inkscape="http://www.inkscape.org/namespaces/inkscape"
   xmlns:sodipodi="http://sodipodi.sourceforge.net/DTD/sodipodi-0.dtd"
   xmlns="http://www.w3.org/2000/svg"
   xmlns:svg="http://www.w3.org/2000/svg">
  <sodipodi:namedview
     id="namedview7"
     pagecolor="#ffffff"
     bordercolor="#000000"
     borderopacity="0.25"
     inkscape:showpageshadow="2"
     inkscape:pageopacity="0.0"
     inkscape:pagecheckerboard="0"
     inkscape:deskcolor="#d1d1d1"
     inkscape:document-units="px"
     showgrid="false"
     inkscape:zoom="17.291667"
     inkscape:cx="24"
     inkscape:cy="24"
     inkscape:window-width="1920"
     inkscape:window-height="1008"
     inkscape:window-x="0"
     inkscape:window-y="0"
     inkscape:window-maximized="1"
     inkscape:current-layer="svg5" />
  <defs
     id="defs2" />
  <rect
     style="opacity:0.2;fill:#000000;stroke-width:3;stroke-linecap:square"
     id="rect234"
     width="42"
     height="42"
     x="3"
     y="4"
     ry="9" />
  <rect
     style="fill:#c5c5c5;fill-opacity:1;stroke-width:3;stroke-linecap:square"
     id="rect396"
     width="42"
     height="42"
     x="3"
     y="3"
     ry="9" />
  <rect
     style="opacity:0.2;fill:#000000;fill-opacity:1;stroke-width:5;stroke-linecap:round;stroke-linejoin:round"
     id="rect3241"
     width="18"
     height="30"
     x="15"
     y="10"
     ry="9" />
  <rect
     style="fill:#4f4f4f;fill-opacity:1;stroke-width:5;stroke-linecap:round;stroke-linejoin:round"
     id="rect3243"
     width="18"
     height="30"
     x="15"
     y="9"
     ry="9" />
  <path
     id="rect3661"
     style="opacity:0.1;fill:#000000;fill-opacity:1;stroke-width:4.5;stroke-linecap:round;stroke-linejoin:round"
     d="m 24.000001,9 c -4.98599,0 -9,4.01401 -9,9 v 3 h 18 v -3 c 0,-4.98599 -4.01401,-9 -9,-9 z"
     sodipodi:nodetypes="ssccss" />
  <path
     id="rect3659"
     style="opacity:0.1;fill:#000000;fill-opacity:1;stroke-width:4.5;stroke-linecap:round;stroke-linejoin:round"
     d="m 24.000001,9 c -4.98599,0 -9,4.01401 -9,9 v 3 h 9 z"
     sodipodi:nodetypes="csccc" />
  <rect
     style="opacity:0.2;fill:#000000;fill-opacity:1;stroke-width:5;stroke-linecap:round;stroke-linejoin:round"
     id="rect3718"
     width="2"
     height="6"
     x="23"
     y="13"
     ry="1" />
  <rect
     style="fill:#e4e4e4;fill-opacity:1;stroke-width:5;stroke-linecap:round;stroke-linejoin:round"
     id="rect3720"
     width="2"
     height="6"
     x="23"
     y="12"
     ry="1" />
  <path
     id="rect4067"
     style="opacity:0.1;fill:#ffffff;fill-opacity:1;stroke-width:5;stroke-linecap:round;stroke-linejoin:round"
     d="m 24.000001,9 c -4.986,0 -9,4.014 -9,9 v 1 c 0,-4.986 4.014,-9 9,-9 4.986,0 9,4.014 9,9 v -1 c 0,-4.986 -4.014,-9 -9,-9 z" />
  <path
     id="path1040"
     style="opacity:0.2;fill:#ffffff;stroke-width:3;stroke-linecap:square"
     d="M 12,3 C 7.0140099,3 3,7.0140102 3,12 v 1 C 3,8.014005 7.014005,4 12,4 h 24 c 4.985995,0 9,4.014005 9,9 V 12 C 45,7.0140102 40.985989,3 36,3 Z" />
</svg>
