<?xml version="1.0" encoding="UTF-8" standalone="no"?>
<!-- Created with Inkscape (http://www.inkscape.org/) -->

<svg
   width="48"
   height="48"
   viewBox="0 0 48 48"
   version="1.1"
   id="svg5"
   inkscape:version="1.2.2 (1:1.2.2+202305151914+b0a8486541)"
   sodipodi:docname="preferences-system-network.svg"
   xmlns:inkscape="http://www.inkscape.org/namespaces/inkscape"
   xmlns:sodipodi="http://sodipodi.sourceforge.net/DTD/sodipodi-0.dtd"
   xmlns="http://www.w3.org/2000/svg"
   xmlns:svg="http://www.w3.org/2000/svg">
  <sodipodi:namedview
     id="namedview7"
     pagecolor="#ffffff"
     bordercolor="#000000"
     borderopacity="0.25"
     inkscape:showpageshadow="2"
     inkscape:pageopacity="0.0"
     inkscape:pagecheckerboard="0"
     inkscape:deskcolor="#d1d1d1"
     inkscape:document-units="px"
     showgrid="false"
     inkscape:zoom="16.791667"
     inkscape:cx="23.970223"
     inkscape:cy="24"
     inkscape:window-width="1920"
     inkscape:window-height="1008"
     inkscape:window-x="0"
     inkscape:window-y="0"
     inkscape:window-maximized="1"
     inkscape:current-layer="svg5" />
  <defs
     id="defs2" />
  <rect
     style="opacity:0.2;fill:#000000;stroke-width:2.85714;stroke-linecap:square"
     id="rect234"
     width="40"
     height="40"
     x="4"
     y="4.999999"
     ry="9" />
  <rect
     style="fill:#4d4d4d;fill-opacity:1;stroke-width:2.85714;stroke-linecap:square"
     id="rect396"
     width="40"
     height="40"
     x="4"
     y="4"
     ry="9" />
  <path
     style="opacity:0.2"
     d="m 18,37 -2,-2 h -4 c -1.108,0 -2,-0.892001 -2,-2 V 15 c 0,-1.108 0.892,-2 2,-2 h 24 c 1.108,0 2,0.892 2,2 v 18 c 0,1.107999 -0.892,2 -2,2 h -4 l -2,2 z"
     id="path6357" />
  <path
     style="fill:#e4e4e4;fill-opacity:1"
     d="m 18,36 -2,-2 h -4 c -1.108,0 -2,-0.892001 -2,-2 V 14 c 0,-1.108 0.892,-2 2,-2 h 24 c 1.108,0 2,0.892 2,2 v 18 c 0,1.107999 -0.892,2 -2,2 h -4 l -2,2 z"
     id="path6359" />
  <path
     style="fill:#5d5d5d;fill-opacity:1"
     d="M 20,32 18,30 H 14 V 16 h 20 v 14 h -4 l -2,2 z"
     id="path6361" />
  <path
     id="rect6363"
     style="fill:#f8c44e"
     d="m 17,16 v 4 h 2 v -4 z m 3,0 v 4 h 2 v -4 z m 3,0 v 4 h 2 v -4 z m 3,0 v 4 h 2 v -4 z m 3,0 v 4 h 2 v -4 z" />
  <path
     style="opacity:0.2;fill:#ffffff"
     d="m 12,12 c -1.108,0 -2,0.892 -2,2 v 1 c 0,-1.108 0.892,-2 2,-2 h 24 c 1.108,0 2,0.892 2,2 v -1 c 0,-1.108 -0.892,-2 -2,-2 z"
     id="path6375" />
  <path
     style="opacity:0.2;fill:#ffffff"
     d="m 14,30 v 1 h 4 l 2,2 h 8 l 2,-2 h 4 v -1 h -4 l -2,2 h -8 l -2,-2 z"
     id="path6377" />
  <path
     id="path1040"
     style="opacity:0.1;fill:#ffffff;stroke-width:8;stroke-linecap:square"
     d="m 13,4.0000003 c -4.9859899,0 -8.9999999,4.01401 -8.9999999,8.9999997 v 1 c 0,-4.9859897 4.01401,-8.9999997 8.9999999,-8.9999997 h 22 c 4.985992,0 9,4.01401 9,8.9999997 V 13 C 44,8.0140103 39.985992,4.0000003 35,4.0000003 Z" />
</svg>
