<?xml version="1.0" encoding="UTF-8" standalone="no"?>
<!-- Created with Inkscape (http://www.inkscape.org/) -->

<svg
   width="48"
   height="48"
   viewBox="0 0 48 48"
   version="1.1"
   id="svg5"
   inkscape:version="1.3 (1:1.3+202307231459+0e150ed6c4)"
   sodipodi:docname="preferences-desktop-activities.svg"
   xmlns:inkscape="http://www.inkscape.org/namespaces/inkscape"
   xmlns:sodipodi="http://sodipodi.sourceforge.net/DTD/sodipodi-0.dtd"
   xmlns="http://www.w3.org/2000/svg"
   xmlns:svg="http://www.w3.org/2000/svg">
  <sodipodi:namedview
     id="namedview7"
     pagecolor="#ffffff"
     bordercolor="#000000"
     borderopacity="0.25"
     inkscape:showpageshadow="2"
     inkscape:pageopacity="0.0"
     inkscape:pagecheckerboard="0"
     inkscape:deskcolor="#d1d1d1"
     inkscape:document-units="px"
     showgrid="false"
     inkscape:zoom="14.958333"
     inkscape:cx="24"
     inkscape:cy="23.966574"
     inkscape:window-width="1920"
     inkscape:window-height="1008"
     inkscape:window-x="0"
     inkscape:window-y="0"
     inkscape:window-maximized="1"
     inkscape:current-layer="svg5" />
  <defs
     id="defs2" />
  <rect
     style="opacity:0.2;fill:#000000;stroke-width:2.85714;stroke-linecap:square"
     id="rect234"
     width="40"
     height="40"
     x="4"
     y="4.999999"
     ry="9" />
  <rect
     style="fill:#253951;fill-opacity:1;stroke-width:2.85714;stroke-linecap:square"
     id="rect396"
     width="40"
     height="40"
     x="4"
     y="4"
     ry="9" />
  <path
     id="path1040"
     style="opacity:0.1;fill:#ffffff;stroke-width:8;stroke-linecap:square"
     d="M 13,4.0000004 C 8.01401,4.0000004 4,8.0140102 4,13 v 1 C 4,9.0140102 8.01401,5.0000004 13,5.0000004 h 22 c 4.985992,0 9,4.0140098 9,8.9999996 V 13 C 44,8.0140102 39.985992,4.0000004 35,4.0000004 Z" />
  <rect
     style="opacity:0.2;fill:#000000;fill-opacity:1;stroke-linecap:round;stroke-linejoin:round"
     id="rect2"
     width="28"
     height="12"
     x="9.999999"
     y="11"
     ry="2" />
  <rect
     style="opacity:1;fill:#1e88e5;fill-opacity:1;stroke-linecap:round;stroke-linejoin:round"
     id="rect1"
     width="28"
     height="12"
     x="9.999999"
     y="10"
     ry="2" />
  <rect
     style="opacity:0.2;fill:#000000;fill-opacity:1;stroke-linecap:round;stroke-linejoin:round"
     id="rect3"
     width="28"
     height="12"
     x="9.999999"
     y="26"
     ry="2" />
  <path
     id="rect4"
     style="opacity:0.2;fill:#f9f9f9;fill-opacity:1;stroke-linecap:round;stroke-linejoin:round"
     d="M 12 10 C 10.892001 10 10 10.892001 10 12 L 10 13 C 10 11.892001 10.892001 11 12 11 L 36 11 C 37.107999 11 38 11.892001 38 13 L 38 12 C 38 10.892001 37.107999 10 36 10 L 12 10 z " />
</svg>
