<?xml version="1.0" encoding="UTF-8" standalone="no"?>
<!-- Created with Inkscape (http://www.inkscape.org/) -->

<svg
   width="48"
   height="48"
   viewBox="0 0 48 48"
   version="1.1"
   id="svg5"
   inkscape:version="1.3 (0e150ed6c4, 2023-07-21)"
   sodipodi:docname="qtcreator.svg"
   xmlns:inkscape="http://www.inkscape.org/namespaces/inkscape"
   xmlns:sodipodi="http://sodipodi.sourceforge.net/DTD/sodipodi-0.dtd"
   xmlns="http://www.w3.org/2000/svg"
   xmlns:svg="http://www.w3.org/2000/svg">
  <sodipodi:namedview
     id="namedview7"
     pagecolor="#ffffff"
     bordercolor="#000000"
     borderopacity="0.25"
     inkscape:showpageshadow="2"
     inkscape:pageopacity="0.0"
     inkscape:pagecheckerboard="0"
     inkscape:deskcolor="#d1d1d1"
     inkscape:document-units="px"
     showgrid="false"
     inkscape:zoom="16.3125"
     inkscape:cx="23.969349"
     inkscape:cy="24"
     inkscape:window-width="1920"
     inkscape:window-height="984"
     inkscape:window-x="0"
     inkscape:window-y="29"
     inkscape:window-maximized="1"
     inkscape:current-layer="svg5" />
  <defs
     id="defs2" />
  <rect
     style="opacity:0.2;fill:#000000;stroke-width:2.85714;stroke-linecap:square"
     id="rect234"
     width="40"
     height="40"
     x="4"
     y="5"
     ry="9" />
  <rect
     style="fill:#4cdb5d;fill-opacity:1;stroke-width:2.85714;stroke-linecap:square"
     id="rect396"
     width="40"
     height="36"
     x="4"
     y="4"
     ry="9" />
  <path
     id="path1"
     style="fill:#31ae3e;fill-opacity:1;stroke-width:2.52262;stroke-linecap:square"
     d="m 4,16 v 19 c 0,4.985996 4.014005,9 9,9 h 22 c 4.985996,0 9,-4.014004 9,-9 v -5 z" />
  <path
     id="path2"
     style="opacity:0.1;fill:#000000;stroke-width:2;stroke-linecap:square"
     d="m 4,16 v 1 l 40,14 v -1 z" />
  <path
     d="M 17.03516,15 C 11.47654,15 10,18.00001 10,24 c 0,5.99999 1.45056,9 7.03516,9 h 1.58593 l 2.31055,4 2.67773,-1 -2.18164,-4 C 23.50572,31 24,28 24,24 24,18.00001 22.59377,15 17.03516,15 Z M 33,15 c -3.601,0 -6,2.899 -6,6.5 v 5 c 0,3.601 2.399,6.5 6,6.5 h 4 v -3 c 0,0 -3.99331,0.002 -4,0 -1.99089,0 -3,-1.50911 -3,-3.5 v -5 C 30,19.50911 31.00911,18 33,18 h 4 v -3 z m -15.98828,3 c 3.22934,0 3.98829,2 3.98828,6 0,4 -0.73447,6 -3.98828,6 C 13.75792,30 13,28 13,24 c 0,-4 0.78238,-6 4.01172,-6 z"
     style="fill:#000000;opacity:0.2"
     id="path3" />
  <path
     d="M 17.03516,14 C 11.47654,14 10,17.00001 10,23 c 0,5.99999 1.45056,9 7.03516,9 h 1.58593 l 2.31055,4 2.67773,-1 -2.18164,-4 C 23.50572,30 24,27 24,23 24,17.00001 22.59377,14 17.03516,14 Z M 33,14 c -3.601,0 -6,2.899 -6,6.5 v 5 c 0,3.601 2.399,6.5 6,6.5 h 4 v -3 c 0,0 -3.99331,0.002 -4,0 -1.99089,0 -3,-1.50911 -3,-3.5 v -5 C 30,18.50911 31.00911,17 33,17 h 4 v -3 z m -15.98828,3 c 3.22934,0 3.98829,2 3.98828,6 0,4 -0.73447,6 -3.98828,6 C 13.75792,29 13,27 13,23 c 0,-4 0.78238,-6 4.01172,-6 z"
     style="fill:#ffffff"
     id="path4" />
  <path
     id="path1040"
     style="opacity:0.2;fill:#ffffff;stroke-width:8;stroke-linecap:square"
     d="M 13,4 C 8.01401,4 4,8.01401 4,13 v 1 C 4,9.01401 8.01401,5 13,5 h 22 c 4.985992,0 9,4.01401 9,9 V 13 C 44,8.01401 39.985992,4 35,4 Z" />
</svg>
