<?xml version="1.0" encoding="UTF-8" standalone="no"?>
<!-- Created with Inkscape (http://www.inkscape.org/) -->

<svg
   width="48"
   height="48"
   viewBox="0 0 48 48"
   version="1.1"
   id="svg5"
   inkscape:version="1.3 (0e150ed6c4, 2023-07-21)"
   sodipodi:docname="sheets.svg"
   xmlns:inkscape="http://www.inkscape.org/namespaces/inkscape"
   xmlns:sodipodi="http://sodipodi.sourceforge.net/DTD/sodipodi-0.dtd"
   xmlns="http://www.w3.org/2000/svg"
   xmlns:svg="http://www.w3.org/2000/svg">
  <sodipodi:namedview
     id="namedview7"
     pagecolor="#ffffff"
     bordercolor="#000000"
     borderopacity="0.25"
     inkscape:showpageshadow="2"
     inkscape:pageopacity="0.0"
     inkscape:pagecheckerboard="0"
     inkscape:deskcolor="#d1d1d1"
     inkscape:document-units="px"
     showgrid="false"
     inkscape:zoom="16.729167"
     inkscape:cx="24"
     inkscape:cy="24"
     inkscape:window-width="1850"
     inkscape:window-height="1011"
     inkscape:window-x="70"
     inkscape:window-y="32"
     inkscape:window-maximized="1"
     inkscape:current-layer="svg5" />
  <defs
     id="defs2" />
  <rect
     style="opacity:0.2;fill:#000000;stroke-width:2.85714;stroke-linecap:square"
     id="rect234"
     width="40"
     height="40"
     x="4"
     y="5"
     ry="9" />
  <rect
     style="fill:#efefef;fill-opacity:1;stroke-width:2.85714;stroke-linecap:square"
     id="rect396"
     width="40"
     height="40"
     x="4"
     y="4"
     ry="9" />
  <rect
     style="opacity:0.2;fill:#000000"
     width="28"
     height="18"
     x="10"
     y="21"
     ry="2.0769999"
     id="rect1" />
  <rect
     style="fill:#a8aebd"
     width="28"
     height="18"
     x="10"
     y="20"
     ry="2.0769999"
     id="rect2" />
  <path
     style="opacity:0.1;fill:#ffffff"
     d="M 12.076172,20 C 10.925557,20 10,20.925557 10,22.076172 v 1 C 10,21.925557 10.925557,21 12.076172,21 H 35.923828 C 37.074443,21 38,21.925557 38,23.076172 v -1 C 38,20.925557 37.074443,20 35.923828,20 Z"
     id="path2" />
  <path
     style="opacity:0.2;fill:#000000"
     d="m 13,28 v 3 h 3 v -3 z m 4,0 v 3 h 3 v -3 z m 4,0 v 3 h 9 v -3 z m 10,0 v 3 h 4 v -3 z m -18,5 v 3 h 3 v -3 z m 4,0 v 3 h 3 v -3 z m 4,0 v 3 h 9 v -3 z m 10,0 v 3 h 4 v -3 z"
     id="path3" />
  <path
     style="opacity:0.2;fill:#000000"
     d="M 14,26 V 23.692308 C 15.250001,23.692308 15.250001,22 16.500001,22 17.75,22 17.437501,25 19,25 c 1.562501,0 1.25,-3.615385 2.500001,-3.615385 1.25,0 1.25,-3.384615 2.5,-3.384615 C 25.25,18 25.25,22 26.5,22 c 1.250001,0 1.250001,-2.153846 2.500001,-2.153846 1.25,0 1.25,-3.846154 2.499999,-3.846154 1.25,0 1.25,5.384615 2.5,5.384615 V 26 Z"
     id="path4" />
  <rect
     style="fill:#00db94"
     width="3"
     height="6"
     x="15"
     y="19"
     id="rect4" />
  <rect
     style="fill:#f95757"
     width="3"
     height="9"
     x="18"
     y="16"
     id="rect5" />
  <rect
     style="fill:#0eaff8"
     width="3"
     height="13"
     x="21"
     y="12"
     id="rect6" />
  <rect
     style="fill:#f95757"
     width="3"
     height="8"
     x="24"
     y="17"
     id="rect7" />
  <rect
     style="fill:#00db94"
     width="3"
     height="15"
     x="27"
     y="10"
     id="rect8" />
  <rect
     style="fill:#f95757"
     width="3"
     height="12"
     x="30"
     y="13"
     id="rect9" />
  <rect
     style="fill:#eff0f1"
     width="3"
     height="3"
     x="13"
     y="27"
     id="rect10" />
  <rect
     style="fill:#eff0f1"
     width="9"
     height="3"
     x="21"
     y="27"
     id="rect11" />
  <rect
     style="fill:#eff0f1"
     width="4"
     height="3"
     x="31"
     y="27"
     id="rect12" />
  <rect
     fill="#4d4d4d"
     width="1"
     height="1"
     x="14"
     y="28"
     id="rect13" />
  <rect
     style="fill:#4d4d4d"
     width="3"
     height="1"
     x="22"
     y="28"
     id="rect14" />
  <rect
     style="fill:#00db94"
     width="2"
     height="1"
     x="32"
     y="28"
     id="rect15" />
  <rect
     style="fill:#eff0f1"
     width="3"
     height="3"
     x="17"
     y="27"
     id="rect16" />
  <rect
     style="fill:#f95757"
     width="1"
     height="1"
     x="18"
     y="28"
     id="rect17" />
  <rect
     style="fill:#eff0f1"
     width="3"
     height="3"
     x="13"
     y="32"
     id="rect18" />
  <rect
     style="fill:#eff0f1"
     width="9"
     height="3"
     x="21"
     y="32"
     id="rect19" />
  <rect
     style="fill:#eff0f1"
     width="4"
     height="3"
     x="31"
     y="32"
     id="rect20" />
  <rect
     style="fill:#0eaff8"
     width="1"
     height="1"
     x="14"
     y="33"
     id="rect21" />
  <rect
     style="fill:#ffbb27"
     width="3"
     height="1"
     x="22"
     y="33"
     id="rect22" />
  <rect
     style="fill:#f95757"
     width="2"
     height="1"
     x="32"
     y="33"
     id="rect23" />
  <rect
     style="fill:#eff0f1"
     width="3"
     height="3"
     x="17"
     y="32"
     id="rect24" />
  <rect
     style="fill:#4d4d4d"
     width="1"
     height="1"
     x="18"
     y="33"
     id="rect25" />
  <path
     style="opacity:0.2;fill:#ffffff"
     d="m 27,10 v 1 h 3 v -1 z m -6,2 v 1 h 3 v -1 z m 9,1 v 1 h 3 v -1 z m -12,3 v 1 h 3 v -1 z m 6,1 v 1 h 3 v -1 z m -9,2 v 1 h 3 v -1 z"
     id="path25" />
  <path
     style="fill:#ffbb27"
     d="M 14,25 V 22.692308 C 15.250001,22.692308 15.250001,21 16.500001,21 17.75,21 17.437501,24 19,24 c 1.562501,0 1.25,-3.615385 2.500001,-3.615385 1.25,0 1.25,-3.384615 2.5,-3.384615 C 25.25,17 25.25,21 26.5,21 c 1.250001,0 1.250001,-2.153846 2.500001,-2.153846 1.25,0 1.25,-3.846154 2.499999,-3.846154 1.25,0 1.25,5.384615 2.5,5.384615 V 25 Z"
     id="path26" />
  <path
     style="opacity:0.2;fill:#ffffff"
     d="M 31.5,15 C 30.250001,15 30.25,18.845703 29,18.845703 27.75,18.845703 27.750001,21 26.5,21 25.25,21 25.249999,17 24,17 22.75,17 22.75,20.384766 21.5,20.384766 20.249999,20.384766 20.562501,24 19,24 c -1.562499,0 -1.250001,-3 -2.5,-3 -1.25,0 -1.249999,1.691406 -2.5,1.691406 v 1 C 15.250001,23.691406 15.25,22 16.5,22 c 1.249999,0 0.937501,3 2.5,3 1.562501,0 1.249999,-3.615234 2.5,-3.615234 C 22.75,21.384766 22.75,18 24,18 c 1.249999,0 1.25,4 2.5,4 1.250001,0 1.25,-2.154297 2.5,-2.154297 1.25,0 1.250001,-3.845703 2.5,-3.845703 1.25,0 1.25,5.384766 2.5,5.384766 v -1 C 32.75,20.384766 32.75,15 31.5,15 Z"
     id="path27" />
  <path
     id="path1040"
     style="opacity:0.2;fill:#ffffff;stroke-width:8;stroke-linecap:square"
     d="M 13,4 C 8.0140099,4 4,8.0140096 4,13 v 1 C 4,9.0140096 8.0140099,5 13,5 h 22 c 4.985992,0 9,4.0140096 9,9 V 13 C 44,8.0140096 39.985992,4 35,4 Z" />
</svg>
