<?xml version="1.0" encoding="UTF-8" standalone="no"?>
<!-- Created with Inkscape (http://www.inkscape.org/) -->

<svg
   width="48"
   height="48"
   viewBox="0 0 48 48"
   version="1.1"
   id="svg5"
   inkscape:version="1.2.2 (1:1.2.2+202305151914+b0a8486541)"
   sodipodi:docname="soptify.svg"
   xmlns:inkscape="http://www.inkscape.org/namespaces/inkscape"
   xmlns:sodipodi="http://sodipodi.sourceforge.net/DTD/sodipodi-0.dtd"
   xmlns="http://www.w3.org/2000/svg"
   xmlns:svg="http://www.w3.org/2000/svg">
  <sodipodi:namedview
     id="namedview7"
     pagecolor="#ffffff"
     bordercolor="#000000"
     borderopacity="0.25"
     inkscape:showpageshadow="2"
     inkscape:pageopacity="0.0"
     inkscape:pagecheckerboard="0"
     inkscape:deskcolor="#d1d1d1"
     inkscape:document-units="px"
     showgrid="false"
     inkscape:zoom="16.791667"
     inkscape:cx="24"
     inkscape:cy="24"
     inkscape:window-width="1920"
     inkscape:window-height="1008"
     inkscape:window-x="0"
     inkscape:window-y="0"
     inkscape:window-maximized="1"
     inkscape:current-layer="svg5" />
  <defs
     id="defs2" />
  <rect
     style="opacity:0.2;fill:#000000;stroke-width:2.85714;stroke-linecap:square"
     id="rect234"
     width="40"
     height="40"
     x="4"
     y="4.999999"
     ry="9" />
  <rect
     style="fill:#4f4f4f;fill-opacity:1;stroke-width:2.85714;stroke-linecap:square"
     id="rect396"
     width="40"
     height="40"
     x="4"
     y="4"
     ry="9" />
  <g
     id="g6786">
    <circle
       style="opacity:0.2;fill:#000000;stroke-width:2;stroke-linecap:square"
       id="path6267"
       cx="24"
       cy="25"
       r="14" />
    <circle
       style="fill:#1ed760;fill-opacity:1;stroke-width:2;stroke-linecap:square"
       id="path6321"
       cx="24"
       cy="24"
       r="14" />
    <path
       id="path1445"
       style="color:#000000;opacity:0.2;fill:#ffffff;stroke:none;stroke-linecap:round;-inkscape-stroke:none"
       d="m 22.713481,18.00323 c -2.77094,-0.0116 -5.44193,0.397815 -7.64453,1.058594 a 1.5,1.5 0 0 0 -1.00586,1.867188 1.5,1.5 0 0 0 1.86914,1.005859 c 4.5782,-1.373459 12.3248,-1.277919 16.70898,1.791016 a 1.5,1.5 0 0 0 2.0879,-0.367188 1.5,1.5 0 0 0 -0.36914,-2.089844 c -2.80789,-1.965525 -6.27371,-2.923592 -9.7168,-3.1875 -0.64558,-0.04948 -1.29024,-0.07545 -1.92969,-0.07813 z m -0.23437,5.544922 c -2.34524,-0.02257 -4.6487,0.357111 -6.76563,0.992188 a 1,1 0 0 0 -0.66992,1.24414 1,1 0 0 0 1.24414,0.671875 c 4.78909,-1.436727 10.44659,-1.423135 15.13867,1.861328 a 1,1 0 0 0 1.39258,-0.246093 1,1 0 0 0 -0.24414,-1.392578 c -2.65395,-1.857762 -5.56645,-2.783213 -8.4668,-3.048829 -0.54381,-0.0498 -1.0877,-0.07682 -1.6289,-0.08203 z m -0.23633,4.425781 c -2.16154,-0.0066 -4.16825,0.368309 -5.68946,1.128907 a 1,1 0 0 0 -0.44726,1.341797 1,1 0 0 0 1.3418,0.447265 c 1.26147,-0.630741 3.38793,-1.014224 5.625,-0.896484 2.23705,0.11774 4.589,0.718712 6.39843,1.849609 a 1,1 0 0 0 1.37696,-0.316406 1,1 0 0 0 -0.31836,-1.378906 c -2.19056,-1.369099 -4.83864,-2.018131 -7.35157,-2.150391 -0.31411,-0.01653 -0.62675,-0.02445 -0.93554,-0.02539 z" />
    <path
       id="path1447"
       style="color:#000000;fill:#3f3f3f;stroke:none;stroke-linecap:round;-inkscape-stroke:none"
       d="m 22.713481,17.00323 c -2.77094,-0.0116 -5.44193,0.397815 -7.64453,1.058594 a 1.5,1.5 0 0 0 -1.00586,1.867188 1.5,1.5 0 0 0 1.86914,1.005859 c 4.5782,-1.373459 12.3248,-1.277919 16.70898,1.791016 a 1.5,1.5 0 0 0 2.0879,-0.367188 1.5,1.5 0 0 0 -0.36914,-2.089844 c -2.80789,-1.965525 -6.27371,-2.923592 -9.7168,-3.1875 -0.64558,-0.04948 -1.29024,-0.07545 -1.92969,-0.07813 z m -0.23437,5.544922 c -2.34524,-0.02257 -4.6487,0.357111 -6.76563,0.992188 a 1,1 0 0 0 -0.66992,1.24414 1,1 0 0 0 1.24414,0.671875 c 4.78909,-1.436727 10.44659,-1.423135 15.13867,1.861328 a 1,1 0 0 0 1.39258,-0.246093 1,1 0 0 0 -0.24414,-1.392578 c -2.65395,-1.857762 -5.56645,-2.783213 -8.4668,-3.048829 -0.54381,-0.0498 -1.0877,-0.07682 -1.6289,-0.08203 z m -0.23633,4.425781 c -2.16154,-0.0066 -4.16825,0.368309 -5.68946,1.128907 a 1,1 0 0 0 -0.44726,1.341797 1,1 0 0 0 1.3418,0.447265 c 1.26147,-0.630741 3.38793,-1.014224 5.625,-0.896484 2.23705,0.11774 4.589,0.718712 6.39843,1.849609 a 1,1 0 0 0 1.37696,-0.316406 1,1 0 0 0 -0.31836,-1.378906 c -2.19056,-1.369099 -4.83864,-2.018131 -7.35157,-2.150391 -0.31411,-0.01653 -0.62675,-0.02445 -0.93554,-0.02539 z" />
    <path
       id="path6185"
       style="opacity:0.2;fill:#ffffff;stroke-width:2;stroke-linecap:square"
       d="M 24,10 A 14,14 0 0 0 9.9999995,24 14,14 0 0 0 10.0352,24.5 14,14 0 0 1 24,11 14,14 0 0 1 37.98047,24.279297 14,14 0 0 0 38,24 14,14 0 0 0 24,10 Z" />
  </g>
  <path
     id="path1040"
     style="opacity:0.1;fill:#ffffff;stroke-width:8;stroke-linecap:square"
     d="m 13,4.0000003 c -4.9859899,0 -8.9999999,4.01401 -8.9999999,8.9999997 v 1 c 0,-4.9859897 4.01401,-8.9999997 8.9999999,-8.9999997 h 22 c 4.985992,0 9,4.01401 9,8.9999997 V 13 C 44,8.0140103 39.985992,4.0000003 35,4.0000003 Z" />
</svg>
