<?xml version="1.0" encoding="UTF-8" standalone="no"?>
<!-- Created with Inkscape (http://www.inkscape.org/) -->

<svg
   width="48"
   height="48"
   viewBox="0 0 48 48"
   version="1.1"
   id="svg5"
   inkscape:version="1.2.2 (1:1.2.2+202305151914+b0a8486541)"
   sodipodi:docname="steamlink.svg"
   xmlns:inkscape="http://www.inkscape.org/namespaces/inkscape"
   xmlns:sodipodi="http://sodipodi.sourceforge.net/DTD/sodipodi-0.dtd"
   xmlns="http://www.w3.org/2000/svg"
   xmlns:svg="http://www.w3.org/2000/svg">
  <sodipodi:namedview
     id="namedview7"
     pagecolor="#ffffff"
     bordercolor="#000000"
     borderopacity="0.25"
     inkscape:showpageshadow="2"
     inkscape:pageopacity="0.0"
     inkscape:pagecheckerboard="0"
     inkscape:deskcolor="#d1d1d1"
     inkscape:document-units="px"
     showgrid="false"
     inkscape:zoom="16.791667"
     inkscape:cx="23.970223"
     inkscape:cy="24"
     inkscape:window-width="1920"
     inkscape:window-height="1008"
     inkscape:window-x="0"
     inkscape:window-y="0"
     inkscape:window-maximized="1"
     inkscape:current-layer="svg5" />
  <defs
     id="defs2" />
  <rect
     style="opacity:0.2;fill:#000000;stroke-width:2.85714;stroke-linecap:square"
     id="rect234"
     width="40"
     height="40"
     x="4"
     y="5"
     ry="9" />
  <rect
     style="fill:#1955aa;fill-opacity:1;stroke-width:2.85714;stroke-linecap:square"
     id="rect396"
     width="40"
     height="40"
     x="4"
     y="4"
     ry="9" />
  <path
     d="m 24,11 c -7.731986,0 -14,6.268014 -14,14 0,7.731986 6.268014,14 14,14 7.731986,0 14,-6.268014 14,-14 0,-7.731986 -6.268014,-14 -14,-14 z m -0.0293,7 c 2.991618,-1.01e-4 5.981658,0.0344 6.380859,0.105469 0.949897,0.16917 1.233511,0.52151 1.988282,2.458984 0.766745,1.968214 1.415654,4.679838 1.613281,6.736328 0.114468,1.191138 0.01934,2.009003 -0.326172,2.796875 -0.519766,1.185223 -1.96301,2.077621 -3.029297,1.873047 -0.54858,-0.105249 -0.88776,-0.522984 -1.787106,-2.193359 C 28.352054,28.925776 27.879735,28.142823 27.742188,28 h -7.53711 l -0.0293,0.0332 c -0.132957,0.152181 -0.557766,0.8716 -0.945312,1.59961 -0.387546,0.72801 -0.803799,1.477097 -0.923828,1.664062 -0.396726,0.61797 -1.238355,0.864887 -2.001953,0.585938 -0.946502,-0.345765 -1.722417,-1.087368 -2.056641,-1.964844 -0.652303,-1.712553 0.0232,-5.970292 1.556641,-9.80078 0.597186,-1.49176 0.923511,-1.8612 1.773437,-2.009766 C 17.984997,18.0363 20.979086,18.000102 23.970703,18 Z M 19.5,20 C 18.119288,20 17,21.119288 17,22.5 17,23.880712 18.119288,25 19.5,25 20.880712,25 22,23.880712 22,22.5 22,21.119288 20.880712,20 19.5,20 Z m 9,0 C 27.119288,20 26,21.119288 26,22.5 26,23.880712 27.119288,25 28.5,25 29.880712,25 31,23.880712 31,22.5 31,21.119288 29.880712,20 28.5,20 Z"
     style="fill:#000000;opacity:0.2"
     id="path1587" />
  <path
     d="m 24,10 c -7.731986,0 -14,6.268014 -14,14 0,7.731986 6.268014,14 14,14 7.731986,0 14,-6.268014 14,-14 0,-7.731986 -6.268014,-14 -14,-14 z m -0.0293,7 c 2.991618,-1.02e-4 5.981658,0.0344 6.380859,0.105469 0.949897,0.16917 1.233511,0.52151 1.988282,2.458984 0.766745,1.968214 1.415654,4.679838 1.613281,6.736328 0.114468,1.191137 0.01934,2.009003 -0.326172,2.796875 -0.519766,1.185223 -1.96301,2.07762 -3.029297,1.873047 -0.54858,-0.105249 -0.88776,-0.522985 -1.787106,-2.193359 C 28.352054,27.925776 27.879735,27.142822 27.742188,27 h -7.53711 l -0.0293,0.0332 c -0.132957,0.15218 -0.557766,0.871599 -0.945312,1.599609 -0.387546,0.728011 -0.803799,1.477098 -0.923828,1.664063 -0.396726,0.61797 -1.238355,0.864887 -2.001953,0.585937 -0.946502,-0.345765 -1.722417,-1.087368 -2.056641,-1.964843 -0.652303,-1.712554 0.0232,-5.970293 1.556641,-9.800781 0.597186,-1.49176 0.923511,-1.8612 1.773437,-2.009766 C 17.984997,17.036301 20.979086,17.000102 23.970703,17 Z M 19.5,19 C 18.119288,19 17,20.119288 17,21.5 17,22.880712 18.119288,24 19.5,24 20.880712,24 22,22.880712 22,21.5 22,20.119288 20.880712,19 19.5,19 Z m 9,0 C 27.119288,19 26,20.119288 26,21.5 26,22.880712 27.119288,24 28.5,24 29.880712,24 31,22.880712 31,21.5 31,20.119288 29.880712,19 28.5,19 Z"
     style="fill:#ffffff"
     id="path1434" />
  <path
     id="path1040"
     style="opacity:0.1;fill:#ffffff;stroke-width:8;stroke-linecap:square"
     d="m 13,4.000002 c -4.9859894,0 -8.9999996,4.0140098 -8.9999996,9 v 1 c 0,-4.9859902 4.01401,-9 8.9999996,-9 h 22 c 4.985992,0 9,4.0140098 9,9 v -1 c 0,-4.9859902 -4.014008,-9 -9,-9 z" />
</svg>
