<?xml version="1.0" encoding="UTF-8" standalone="no"?>
<!-- Created with Inkscape (http://www.inkscape.org/) -->

<svg
   width="48"
   height="48"
   viewBox="0 0 48 48"
   version="1.1"
   id="svg5"
   inkscape:version="1.3.2 (091e20ef0f, 2023-11-25, custom)"
   sodipodi:docname="sublime-text.svg"
   xmlns:inkscape="http://www.inkscape.org/namespaces/inkscape"
   xmlns:sodipodi="http://sodipodi.sourceforge.net/DTD/sodipodi-0.dtd"
   xmlns="http://www.w3.org/2000/svg"
   xmlns:svg="http://www.w3.org/2000/svg">
  <sodipodi:namedview
     id="namedview7"
     pagecolor="#ffffff"
     bordercolor="#000000"
     borderopacity="0.25"
     inkscape:showpageshadow="2"
     inkscape:pageopacity="0.0"
     inkscape:pagecheckerboard="0"
     inkscape:deskcolor="#d1d1d1"
     inkscape:document-units="px"
     showgrid="false"
     inkscape:zoom="17.125"
     inkscape:cx="24"
     inkscape:cy="24"
     inkscape:window-width="1920"
     inkscape:window-height="1008"
     inkscape:window-x="0"
     inkscape:window-y="0"
     inkscape:window-maximized="1"
     inkscape:current-layer="svg5" />
  <defs
     id="defs2" />
  <rect
     style="opacity:0.2;fill:#000000;stroke-width:2.85714;stroke-linecap:square"
     id="rect234"
     width="40"
     height="40"
     x="4"
     y="4.999999"
     ry="9" />
  <rect
     style="fill:#4d4d4d;fill-opacity:1;stroke-width:2.85714;stroke-linecap:square"
     id="rect396"
     width="40"
     height="40"
     x="4"
     y="4"
     ry="9" />
  <path
     d="m 35,11 -22,7 v 8 L 22.4297,29 13,32 v 8 L 35,33 V 25 L 25.57032,22 35,19 Z"
     style="opacity:0.2;fill:#000000;stroke-width:2"
     id="path2195"
     sodipodi:nodetypes="ccccccccccc" />
  <path
     d="m 35,10 -22,7 v 8 l 22,-7 z"
     style="fill:#ffab36;stroke-width:2"
     id="path1998"
     sodipodi:nodetypes="ccccc" />
  <path
     d="m 35,24 -22,7 v 8 l 22,-7 z"
     style="fill:#ffab36;stroke-width:2"
     id="path2054"
     sodipodi:nodetypes="ccccc" />
  <path
     id="path2099"
     style="opacity:0.2;fill:#000000;stroke-width:2"
     d="m 33.42968,24.5 -12.57422,4 12.57422,4 L 35,32 v -7 z" />
  <path
     d="m 13,17 22,7 v 8 L 13,25 Z"
     style="fill:#ffab36;stroke-width:2"
     id="path2026"
     sodipodi:nodetypes="ccccc" />
  <path
     id="path1040"
     style="opacity:0.1;fill:#ffffff;stroke-width:8;stroke-linecap:square"
     d="m 13,4.0000002 c -4.98599,0 -9,4.01401 -9,8.9999998 v 1 C 4,9.0140102 8.01401,5.0000002 13,5.0000002 h 22 c 4.985992,0 9,4.01401 9,8.9999998 V 13 C 44,8.0140104 39.985992,4.0000002 35,4.0000002 Z" />
</svg>
