<?xml version="1.0" encoding="UTF-8" standalone="no"?>
<!-- Created with Inkscape (http://www.inkscape.org/) -->

<svg
   width="48"
   height="48"
   viewBox="0 0 48 48"
   version="1.1"
   id="svg5"
   inkscape:version="1.3.2 (091e20ef0f, 2023-11-25, custom)"
   sodipodi:docname="syncthing-gtk.svg"
   xmlns:inkscape="http://www.inkscape.org/namespaces/inkscape"
   xmlns:sodipodi="http://sodipodi.sourceforge.net/DTD/sodipodi-0.dtd"
   xmlns="http://www.w3.org/2000/svg"
   xmlns:svg="http://www.w3.org/2000/svg">
  <sodipodi:namedview
     id="namedview7"
     pagecolor="#ffffff"
     bordercolor="#000000"
     borderopacity="0.25"
     inkscape:showpageshadow="2"
     inkscape:pageopacity="0.0"
     inkscape:pagecheckerboard="0"
     inkscape:deskcolor="#d1d1d1"
     inkscape:document-units="px"
     showgrid="false"
     inkscape:zoom="17.125"
     inkscape:cx="24"
     inkscape:cy="24"
     inkscape:window-width="1920"
     inkscape:window-height="1008"
     inkscape:window-x="0"
     inkscape:window-y="0"
     inkscape:window-maximized="1"
     inkscape:current-layer="svg5" />
  <defs
     id="defs2" />
  <rect
     style="opacity:0.2;fill:#000000;stroke-width:2.85714;stroke-linecap:square"
     id="rect234"
     width="40"
     height="40"
     x="4"
     y="4.999999"
     ry="9" />
  <rect
     style="fill:#1ca4d4;fill-opacity:1;stroke-width:2.85714;stroke-linecap:square"
     id="rect396"
     width="40"
     height="40"
     x="4"
     y="4"
     ry="9" />
  <path
     d="m 24.00006,11 c -7.73198,0 -14,6.268 -14,14 0,7.73198 6.26802,14 14,14 7.732,0 14,-6.26802 14,-14 0,-7.732 -6.268,-14 -14,-14 z m 0,2 c 4.54818,0.0016 8.70456,2.5744 10.73438,6.64452 l -8.09376,5.39062 -14.49608,1.8125 C 12.0488,26.2364 12.0006,25.61868 12,25 12,18.37258 17.37256,13 24,13 Z m 11.4883,8.54296 c 0.33834,1.1212 0.51076,2.2859 0.5117,3.45704 -0.014,2.78754 -0.99666,5.48352 -2.78124,7.625 l -4.78126,-6.37892 z m -8.94142,5.52344 5.25392,7.0039 c -2.16684,1.877 -4.93404,2.91628 -7.8008,2.9297 -5.15912,-0.002 -9.73924,-3.30236 -11.375,-8.19532 z"
     style="opacity:0.2;fill:#000000;stroke-width:2"
     id="path2870" />
  <path
     d="m 24,10 c -7.73198,0 -14,6.268 -14,14 0,7.73198 6.26802,14 14,14 7.73198,0 14,-6.26802 14,-14 0,-7.732 -6.26802,-14 -14,-14 z m 0,2 c 4.54818,0.0016 8.70456,2.5744 10.73438,6.64452 l -8.09376,5.39062 -14.49608,1.8125 C 12.04874,25.2364 12.00054,24.61868 11.99994,24 c 0,-6.62742 5.37258,-12 12,-12 z m 11.48828,8.54296 C 35.82664,21.66416 35.99904,22.82886 36,24 c -0.014,2.78754 -0.99666,5.48352 -2.78126,7.625 L 28.4375,25.24608 Z m -8.9414,5.52344 5.2539,7.0039 C 29.63394,34.9473 26.86674,35.98658 24,36 18.84086,35.998 14.26074,32.69764 12.625,27.80468 Z"
     style="fill:#ffffff;stroke-width:2"
     id="path2752"
     sodipodi:nodetypes="ssssssccccsscccccccccc" />
  <path
     d="m 36,17 c -1.65686,0 -3,1.34314 -3,3 0,1.65684 1.34314,3 3,3 1.65686,0 3,-1.34316 3,-3 0,-1.65686 -1.34314,-3 -3,-3 z m -9,6 c -1.65686,0 -3,1.34314 -3,3 0,1.65684 1.34314,3 3,3 1.65686,0 3,-1.34316 3,-3 0,-1.65686 -1.34314,-3 -3,-3 z m -16,2 c -1.65686,0 -3,1.34314 -3,3 0,1.65684 1.34314,3 3,3 1.65686,0 3,-1.34316 3,-3 0,-1.65686 -1.34314,-3 -3,-3 z m 22,6 c -1.65686,0 -3,1.34314 -3,3 0,1.65684 1.34314,3 3,3 1.65686,0 3,-1.34316 3,-3 0,-1.65686 -1.34314,-3 -3,-3 z"
     style="opacity:0.2;fill:#000000;stroke-width:2"
     id="path2842" />
  <path
     d="m 36,16 c -1.65686,0 -3,1.34314 -3,3 0,1.65684 1.34314,3 3,3 1.65686,0 3,-1.34316 3,-3 0,-1.65686 -1.34314,-3 -3,-3 z m -9,6 c -1.65686,0 -3,1.34314 -3,3 0,1.65684 1.34314,3 3,3 1.65686,0 3,-1.34316 3,-3 0,-1.65686 -1.34314,-3 -3,-3 z m -16,2 c -1.65686,0 -3,1.34314 -3,3 0,1.65684 1.34314,3 3,3 1.65686,0 3,-1.34316 3,-3 0,-1.65686 -1.34314,-3 -3,-3 z m 22,6 c -1.65686,0 -3,1.34314 -3,3 0,1.65684 1.34314,3 3,3 1.65686,0 3,-1.34316 3,-3 0,-1.65686 -1.34314,-3 -3,-3 z"
     style="fill:#ffffff;stroke-width:2"
     id="path2781"
     sodipodi:nodetypes="ssssssssssssssssssss" />
  <path
     id="path1040"
     style="opacity:0.2;fill:#ffffff;stroke-width:8;stroke-linecap:square"
     d="m 13,4.0000002 c -4.98599,0 -9,4.01401 -9,8.9999998 v 1 C 4,9.0140102 8.01401,5.0000002 13,5.0000002 h 22 c 4.985992,0 9,4.01401 9,8.9999998 V 13 C 44,8.0140104 39.985992,4.0000002 35,4.0000002 Z" />
</svg>
