<?xml version="1.0" encoding="UTF-8" standalone="no"?>
<!-- Created with Inkscape (http://www.inkscape.org/) -->

<svg
   width="48"
   height="48"
   viewBox="0 0 48 48"
   version="1.1"
   id="svg5"
   inkscape:version="1.2.2 (1:1.2.2+202305151914+b0a8486541)"
   sodipodi:docname="visual-studio-code-insiders.svg"
   xmlns:inkscape="http://www.inkscape.org/namespaces/inkscape"
   xmlns:sodipodi="http://sodipodi.sourceforge.net/DTD/sodipodi-0.dtd"
   xmlns="http://www.w3.org/2000/svg"
   xmlns:svg="http://www.w3.org/2000/svg">
  <sodipodi:namedview
     id="namedview7"
     pagecolor="#ffffff"
     bordercolor="#000000"
     borderopacity="0.25"
     inkscape:showpageshadow="2"
     inkscape:pageopacity="0.0"
     inkscape:pagecheckerboard="0"
     inkscape:deskcolor="#d1d1d1"
     inkscape:document-units="px"
     showgrid="false"
     inkscape:zoom="16.791667"
     inkscape:cx="24"
     inkscape:cy="24"
     inkscape:window-width="1920"
     inkscape:window-height="1008"
     inkscape:window-x="0"
     inkscape:window-y="0"
     inkscape:window-maximized="1"
     inkscape:current-layer="svg5" />
  <defs
     id="defs2" />
  <rect
     style="opacity:0.2;fill:#000000;stroke-width:2.85714;stroke-linecap:square"
     id="rect234"
     width="40"
     height="40"
     x="4"
     y="4.999999"
     ry="9" />
  <rect
     style="fill:#efefef;fill-opacity:1;stroke-width:2.85714;stroke-linecap:square"
     id="rect396"
     width="40"
     height="40"
     x="4"
     y="4"
     ry="9" />
  <path
     d="m 31.244468,38.826644 c -0.667545,0.322896 -1.465167,0.186458 -1.988973,-0.340383 0.645356,0.649096 1.748932,0.189322 1.748932,-0.728693 v -25.51514 c 0,-0.918014 -1.103576,-1.377767 -1.748932,-0.728629 0.523806,-0.526841 1.321428,-0.663369 1.988973,-0.340459 l 5.764701,2.788352 c 0.605786,0.292991 0.990989,0.909228 0.990989,1.585283 v 18.90618 c 0,0.676032 -0.385203,1.292256 -0.990989,1.585248 z"
     style="opacity:0.2;fill:#000000"
     id="path607" />
  <path
     d="m 37.009785,13.966066 -5.765684,-2.792188 c -0.667328,-0.323197 -1.46495,-0.186865 -1.988755,0.339934 l -18.87484,16.998864 c -0.5076847,0.465605 -0.5071017,1.269499 0.0013,1.734334 l 1.541757,1.409674 c 0.415612,0.380071 1.041523,0.407995 1.488998,0.06664 L 36.142205,14.690426 c 0.762534,-0.581833 1.857803,-0.03479 1.857803,0.927892 v -0.06734 c 0,-0.675759 -0.384874,-1.291773 -0.990223,-1.584919 z"
     style="opacity:0.2;fill:#000000"
     id="path579" />
  <path
     d="M 37.00982,12.965801 31.244136,10.173614 C 30.576808,9.8504166 29.779186,9.9867486 29.255381,10.513547 L 10.380541,27.51241 c -0.5076847,0.465605 -0.5071017,1.269499 0.0013,1.734334 l 1.541758,1.409674 c 0.415611,0.380072 1.041522,0.407995 1.488997,0.06664 L 36.14224,13.690161 c 0.762534,-0.581833 1.857803,-0.03479 1.857803,0.927892 v -0.06734 c 0,-0.675759 -0.384874,-1.291773 -0.990223,-1.584919 z"
     style="fill:#007c64;fill-opacity:1"
     id="path467" />
  <path
     d="m 30.724936,10.016251 c -0.530413,-0.073312 -1.075896,0.102948 -1.46875,0.498047 L 10.381187,27.512344 c -0.3907827,0.358391 -0.4769067,0.916842 -0.265625,1.367188 0.06297,-0.134179 0.149206,-0.260419 0.265625,-0.367188 L 29.256186,11.514298 c 0.523805,-0.526799 1.320954,-0.663041 1.988282,-0.339844 l 5.035156,2.439453 c 0.75039,-0.428925 1.720703,0.09827 1.720703,1.005859 v -0.06836 c 0,-0.675759 -0.384885,-1.290838 -0.990234,-1.583984 l -5.765625,-2.792968 c -0.166832,-0.0808 -0.342727,-0.133765 -0.519532,-0.158203 z"
     style="opacity:0.1;fill:#ffffff"
     id="path495" />
  <path
     d="m 12.656408,17.007813 c -0.264364,0.01182 -0.524616,0.114679 -0.732422,0.304687 l -1.542969,1.410157 c -0.5083607,0.464821 -0.5076847,1.268805 0,1.734375 l 18.875,18.029296 c 0.07963,0.08007 0.174765,0.133528 0.265625,0.195313 5.79e-4,2.95e-4 0.0014,-2.95e-4 0.002,0 0.64263,0.327044 1.480468,-0.123628 1.480468,-0.923829 v -6.53125 L 13.412267,17.246094 c -0.223737,-0.170712 -0.491496,-0.2501 -0.755859,-0.238281 z"
     style="opacity:0.2;fill:#000000"
     id="path635" />
  <path
     d="m 37.009825,35.034008 -5.765684,2.792195 c -0.667328,0.32312 -1.46495,0.186788 -1.988755,-0.339941 L 10.380546,19.45631 c -0.5076857,-0.46557 -0.5071017,-1.269499 0.0013,-1.734319 l 1.541717,-1.409731 c 0.415612,-0.380016 1.041523,-0.407995 1.488998,-0.06657 l 22.729684,18.063909 c 0.762534,0.581812 1.857803,0.03486 1.857803,-0.927906 v 0.06741 c 0,0.675703 -0.384874,1.29171 -0.990223,1.584926 z"
     style="fill:#00a388;fill-opacity:1"
     id="path551" />
  <path
     d="m 12.656409,16.007817 c -0.264364,0.01182 -0.524617,0.11468 -0.732423,0.304688 l -1.542968,1.410156 c -0.3917867,0.35823 -0.4772597,0.916238 -0.265625,1.367187 0.0632,-0.134723 0.148566,-0.260155 0.265625,-0.367188 l 1.542969,-1.410156 c 0.415612,-0.380015 1.040806,-0.40783 1.488281,-0.06641 l 22.730468,18.064453 c 0.04364,0.0333 0.09117,0.05014 0.136719,0.07617 l 0.730469,-0.353516 c 0.605349,-0.293215 0.990234,-0.908279 0.990234,-1.583983 v -0.06836 c 0,0.962766 -1.094888,1.511501 -1.857422,0.929688 L 13.412268,16.246099 c -0.223737,-0.170713 -0.491496,-0.2501 -0.755859,-0.238282 z"
     style="opacity:0.1;fill:#ffffff"
     id="path523" />
  <path
     d="m 31.244468,37.826644 c -0.667545,0.322896 -1.465167,0.186459 -1.988973,-0.340382 0.645356,0.649097 1.748932,0.189322 1.748932,-0.728692 V 11.242429 c 0,-0.918015 -1.103576,-1.3777676 -1.748932,-0.72863 0.523806,-0.5268406 1.321428,-0.6633686 1.988973,-0.340459 l 5.764701,2.788352 c 0.605786,0.292992 0.990989,0.90923 0.990989,1.585283 v 18.906181 c 0,0.676032 -0.385203,1.292256 -0.990989,1.585248 z"
     style="fill:#24bfa5;fill-opacity:1"
     id="path362" />
  <path
     d="m 30.724767,10.015626 c -0.422465,-0.05824 -0.843993,0.06025 -1.201171,0.302734 0.599889,-0.305323 1.357184,0.07343 1.457031,0.775391 0.08804,0.02632 0.178993,0.03912 0.263672,0.08008 l 5.765625,2.787109 c 0.605786,0.292992 0.990234,0.909885 0.990234,1.585938 v -1 c 0,-0.676053 -0.384448,-1.292946 -0.990234,-1.585938 l -5.765625,-2.787111 c -0.166887,-0.08073 -0.342697,-0.133826 -0.519532,-0.158203 z m -1.201171,0.302734 c -0.09462,0.04816 -0.184756,0.112005 -0.267579,0.195313 0.08001,-0.08047 0.176235,-0.133301 0.267579,-0.195313 z m 1.480468,26.439452 c 0,0.800201 -0.837838,1.250872 -1.480468,0.923828 0.430825,0.292465 0.957034,0.374074 1.457031,0.22461 0.0071,-0.05001 0.02344,-0.09522 0.02344,-0.148438 z m -1.480468,0.923828 c -0.09134,-0.06201 -0.187572,-0.114843 -0.267579,-0.195312 0.08282,0.0833 0.172963,0.147162 0.267579,0.195312 z"
     style="opacity:0.2;fill:#ffffff"
     id="path439" />
  <path
     id="path1040"
     style="opacity:0.2;fill:#ffffff;stroke-width:8;stroke-linecap:square"
     d="m 13,4.0000003 c -4.9859899,0 -8.9999999,4.01401 -8.9999999,8.9999997 v 1 c 0,-4.9859897 4.01401,-8.9999997 8.9999999,-8.9999997 h 22 c 4.985992,0 9,4.01401 9,8.9999997 V 13 C 44,8.0140103 39.985992,4.0000003 35,4.0000003 Z" />
</svg>
