<?xml version="1.0" encoding="UTF-8" standalone="no"?>
<!-- Created with Inkscape (http://www.inkscape.org/) -->

<svg
   width="48"
   height="48"
   viewBox="0 0 48 48"
   version="1.1"
   id="svg5"
   inkscape:version="1.4.3 (0d15f75042, 2025-12-25)"
   sodipodi:docname="vncviewer.svg"
   xmlns:inkscape="http://www.inkscape.org/namespaces/inkscape"
   xmlns:sodipodi="http://sodipodi.sourceforge.net/DTD/sodipodi-0.dtd"
   xmlns="http://www.w3.org/2000/svg"
   xmlns:svg="http://www.w3.org/2000/svg">
  <sodipodi:namedview
     id="namedview7"
     pagecolor="#ffffff"
     bordercolor="#000000"
     borderopacity="0.25"
     inkscape:showpageshadow="2"
     inkscape:pageopacity="0.0"
     inkscape:pagecheckerboard="0"
     inkscape:deskcolor="#d1d1d1"
     inkscape:document-units="px"
     showgrid="false"
     inkscape:zoom="16.833333"
     inkscape:cx="24"
     inkscape:cy="24"
     inkscape:window-width="1920"
     inkscape:window-height="1010"
     inkscape:window-x="0"
     inkscape:window-y="0"
     inkscape:window-maximized="1"
     inkscape:current-layer="svg5" />
  <defs
     id="defs2" />
  <rect
     style="opacity:0.2;fill:#000000;stroke-width:2.85714;stroke-linecap:square"
     id="rect234"
     width="40"
     height="40"
     x="4"
     y="5"
     ry="9" />
  <rect
     style="fill:#288cf4;fill-opacity:1;stroke-width:2.85714;stroke-linecap:square"
     id="rect396"
     width="40"
     height="40"
     x="4"
     y="4"
     ry="9" />
  <path
     id="path1040"
     style="opacity:0.2;fill:#ffffff;stroke-width:8;stroke-linecap:square"
     d="M 13,4 C 8.01401,4 4,8.01401 4,13 v 1 C 4,9.01401 8.01401,5 13,5 h 22 c 4.985992,0 9,4.01401 9,9 V 13 C 44,8.01401 39.985992,4 35,4 Z" />
  <path
     style="opacity:0.2;fill:#000000"
     d="m 9.578,14 6.476563,21.484375 c 0.0069,0.0127 0.0127,0.01691 0.01953,0.0293 C 16.301955,36.36767 17.07407,37 17.999875,37 c 0.878425,0 1.616057,-0.569978 1.884766,-1.357422 0.0059,-0.01167 0.02028,-0.02577 0.02539,-0.03711 L 26.42175,14 H 24.333859 L 17.999875,35.009766 11.665891,14 Z m 23.421875,0 a 5,5 0 0 0 -5,5 v 5 h 2 v -2 -1 -2 c 0,-1.680544 1.319456,-3 3,-3 1.680544,0 3,1.319456 3,3 v 2 1 2 h 2 v -5 a 5,5 0 0 0 -5,-5 z m 0,13 a 5,5 0 0 0 -5,5 5,5 0 0 0 5,5 h 5 v -2 h -2 -1 -2 c -1.680544,0 -3,-1.319456 -3,-3 0,-1.680544 1.319456,-3 3,-3 h 2 1 2 v -2 z"
     id="path3" />
  <path
     style="fill:#ffffff"
     d="m 9.578,13 6.476563,21.484375 c 0.0069,0.0127 0.0127,0.01691 0.01953,0.0293 C 16.301955,35.36767 17.07407,36 17.999875,36 c 0.878425,0 1.616057,-0.569978 1.884766,-1.357422 0.0059,-0.01167 0.02028,-0.02577 0.02539,-0.03711 L 26.42175,13 H 24.333859 L 17.999875,34.009766 11.665891,13 Z m 23.421875,0 a 5,5 0 0 0 -5,5 v 5 h 2 v -2 -1 -2 c 0,-1.680544 1.319456,-3 3,-3 1.680544,0 3,1.319456 3,3 v 2 1 2 h 2 v -5 a 5,5 0 0 0 -5,-5 z m 0,13 a 5,5 0 0 0 -5,5 5,5 0 0 0 5,5 h 5 v -2 h -2 -1 -2 c -1.680544,0 -3,-1.319456 -3,-3 0,-1.680544 1.319456,-3 3,-3 h 2 1 2 v -2 z"
     id="path4" />
</svg>
