<?xml version="1.0" encoding="UTF-8" standalone="no"?>
<!-- Created with Inkscape (http://www.inkscape.org/) -->

<svg
   width="48"
   height="48"
   viewBox="0 0 48 48"
   version="1.1"
   id="svg5"
   inkscape:version="1.3 (0e150ed6c4, 2023-07-21)"
   sodipodi:docname="workspace-switcher-left-bottom.svg"
   xmlns:inkscape="http://www.inkscape.org/namespaces/inkscape"
   xmlns:sodipodi="http://sodipodi.sourceforge.net/DTD/sodipodi-0.dtd"
   xmlns="http://www.w3.org/2000/svg"
   xmlns:svg="http://www.w3.org/2000/svg">
  <sodipodi:namedview
     id="namedview7"
     pagecolor="#ffffff"
     bordercolor="#000000"
     borderopacity="0.25"
     inkscape:showpageshadow="2"
     inkscape:pageopacity="0.0"
     inkscape:pagecheckerboard="0"
     inkscape:deskcolor="#d1d1d1"
     inkscape:document-units="px"
     showgrid="false"
     inkscape:zoom="16.3125"
     inkscape:cx="24"
     inkscape:cy="24"
     inkscape:window-width="1920"
     inkscape:window-height="984"
     inkscape:window-x="0"
     inkscape:window-y="29"
     inkscape:window-maximized="1"
     inkscape:current-layer="svg5" />
  <defs
     id="defs2" />
  <rect
     style="opacity:0.2;fill:#000000;stroke-width:2.85714;stroke-linecap:square"
     id="rect234"
     width="40"
     height="40"
     x="4"
     y="5"
     ry="9" />
  <rect
     style="fill:#0245c5;fill-opacity:1;stroke-width:2.85714;stroke-linecap:square"
     id="rect396"
     width="40"
     height="40"
     x="4"
     y="4"
     ry="9" />
  <path
     d="m 24,4 v 40 h 11 c 4.985996,0 9,-4.014004 9,-9 V 13 C 44,8.014005 39.985996,4 35,4 Z"
     style="opacity:0.2;fill:#ffffff;stroke-width:1"
     id="path1" />
  <path
     d="M 44,24 H 4 V 13 C 4,8.014004 8.014004,4 13,4 h 22 c 4.985996,0 9,4.014004 9,9 z"
     style="opacity:0.1;fill:#ffffff;stroke-width:1"
     id="path2" />
  <path
     id="path1040"
     style="opacity:0.1;fill:#ffffff;stroke-width:8;stroke-linecap:square"
     d="M 13,4 C 8.01401,4 4,8.01401 4,13 v 1 C 4,9.01401 8.01401,5 13,5 h 22 c 4.985992,0 9,4.01401 9,9 V 13 C 44,8.01401 39.985992,4 35,4 Z" />
  <rect
     style="opacity:0.1;fill:#000000;stroke-width:2"
     id="rect1"
     width="22"
     height="22"
     x="2"
     y="25"
     ry="3" />
  <rect
     style="opacity:1;fill:#ebebeb;fill-opacity:1;stroke-width:2"
     id="rect2"
     width="22"
     height="22"
     x="2"
     y="24"
     ry="3" />
</svg>
