<?xml version="1.0" encoding="UTF-8" standalone="no"?>
<!-- Created with Inkscape (http://www.inkscape.org/) -->

<svg
   width="48"
   height="48"
   viewBox="0 0 48 48"
   version="1.1"
   id="svg5"
   inkscape:version="1.4.3 (0d15f75042, 2025-12-25)"
   sodipodi:docname="xbox.svg"
   xmlns:inkscape="http://www.inkscape.org/namespaces/inkscape"
   xmlns:sodipodi="http://sodipodi.sourceforge.net/DTD/sodipodi-0.dtd"
   xmlns="http://www.w3.org/2000/svg"
   xmlns:svg="http://www.w3.org/2000/svg">
  <sodipodi:namedview
     id="namedview7"
     pagecolor="#ffffff"
     bordercolor="#000000"
     borderopacity="0.25"
     inkscape:showpageshadow="2"
     inkscape:pageopacity="0.0"
     inkscape:pagecheckerboard="0"
     inkscape:deskcolor="#d1d1d1"
     inkscape:document-units="px"
     showgrid="false"
     inkscape:zoom="17.3125"
     inkscape:cx="24"
     inkscape:cy="24"
     inkscape:window-width="1920"
     inkscape:window-height="1012"
     inkscape:window-x="0"
     inkscape:window-y="0"
     inkscape:window-maximized="1"
     inkscape:current-layer="svg5" />
  <defs
     id="defs2" />
  <rect
     style="opacity:0.2;fill:#000000;stroke-width:2.85714;stroke-linecap:square"
     id="rect234"
     width="40"
     height="40"
     x="4"
     y="5"
     ry="9" />
  <rect
     style="fill:#107c10;fill-opacity:1;stroke-width:2.85714;stroke-linecap:square"
     id="rect396"
     width="40"
     height="40"
     x="4"
     y="4"
     ry="9" />
  <path
     id="path1040"
     style="opacity:0.1;fill:#ffffff;stroke-width:8;stroke-linecap:square"
     d="M 13,4 C 8.01401,4 4,8.01401 4,13 v 1 C 4,9.01401 8.01401,5 13,5 h 22 c 4.985992,0 9,4.01401 9,9 V 13 C 44,8.01401 39.985992,4 35,4 Z" />
  <path
     style="opacity:0.2;stroke-width:2"
     d="m 22.603898,38.942488 c -2.156966,-0.206534 -4.340616,-0.980634 -6.21641,-2.203906 -1.57184,-1.024544 -1.92656,-1.446396 -1.92656,-2.287172 0,-1.689032 1.85822,-4.647848 5.037694,-8.02006 1.805176,-1.915734 4.320118,-4.159972 4.591852,-4.099474 0.529154,0.11806 4.756522,4.239332 6.339426,6.179786 2.502576,3.067124 3.652654,5.57937 3.068178,6.699212 -0.444216,0.851184 -3.20128,2.515172 -5.226446,3.154294 -1.669468,0.526908 -3.861908,0.75003 -5.667734,0.57732 z M 12.337806,32.695376 c -1.306286,-2.0029 -1.966263,-3.974578 -2.284535,-6.826386 -0.1054402,-0.941604 -0.068342,-1.479896 0.238542,-3.413194 0.381732,-2.406864 1.754079,-5.194272 3.404023,-6.90835 0.702284,-0.728565 0.764766,-0.74808 1.621304,-0.458606 1.03813,0.351272 2.147856,1.117566 3.869392,2.673572 l 1.005588,0.908752 -0.549982,0.673272 c -2.547486,3.12567 -5.236208,7.558854 -6.248304,10.300728 -0.54998,1.489652 -0.771274,2.985812 -0.533708,3.608668 0.15946,0.420876 0.013,0.264106 -0.523948,-0.55748 z m 22.927696,0.34054 c 0.1292,-0.62969 -0.03416,-1.785634 -0.416554,-2.951988 -0.828226,-2.52558 -3.59733,-7.223844 -6.139936,-10.418468 l -0.800564,-1.00568 0.866302,-0.794588 c 1.130554,-1.037554 1.915496,-1.658786 2.762922,-2.18667 0.668112,-0.416322 1.623258,-0.784833 2.033952,-0.784833 0.252862,0 1.144222,0.926968 1.863428,1.935249 1.11428,1.56121 1.93372,3.457428 2.34897,5.428454 0.268482,1.274988 0.290938,4.000598 0.04328,5.272334 -0.20502,1.043408 -0.634592,2.395806 -1.051146,3.31334 -0.315668,0.687258 -1.093454,2.022418 -1.435156,2.456954 -0.17574,0.223448 -0.17574,0.223122 -0.0781,-0.2589 z M 22.834958,14.41687 c -1.17351,-0.595211 -2.983566,-1.234331 -3.983296,-1.406714 -0.350164,-0.06017 -0.947984,-0.09432 -1.327764,-0.07481 -0.825296,0.04163 -0.788522,-0.0013 0.534686,-0.62611 1.099962,-0.519428 2.017682,-0.824839 3.264088,-1.086342 1.400988,-0.294354 4.035364,-0.297606 5.41422,-0.0072 1.488854,0.313868 3.24261,0.965998 4.230622,1.574219 l 0.294192,0.18019 -0.673646,-0.03383 c -1.33948,-0.0676 -3.291424,0.47329 -5.387208,1.491979 -0.631992,0.307688 -1.18132,0.552928 -1.221674,0.546423 -0.04003,-0.0078 -0.555188,-0.258575 -1.145522,-0.557807 z"
     id="path3" />
  <path
     style="fill:#ffffff;stroke-width:2"
     d="m 22.603898,37.942492 c -2.156966,-0.206534 -4.340616,-0.980634 -6.21641,-2.203906 -1.57184,-1.024544 -1.92656,-1.446396 -1.92656,-2.287172 0,-1.689032 1.85822,-4.647848 5.037694,-8.02006 1.805176,-1.915734 4.320118,-4.159972 4.591852,-4.099474 0.529154,0.11806 4.756522,4.239332 6.339426,6.179786 2.502576,3.067124 3.652654,5.57937 3.068178,6.699212 -0.444216,0.851184 -3.20128,2.515172 -5.226446,3.154294 -1.669468,0.526906 -3.861908,0.75003 -5.667734,0.57732 z M 12.337806,31.69538 C 11.03152,29.692478 10.371543,27.720802 10.053271,24.868994 9.9478306,23.92739 9.9849298,23.389098 10.291813,21.4558 c 0.381732,-2.406864 1.754079,-5.194272 3.404023,-6.90835 0.702284,-0.728565 0.764766,-0.74808 1.621304,-0.458606 1.03813,0.351272 2.147856,1.117566 3.869392,2.673572 l 1.005588,0.908754 -0.549982,0.67327 c -2.547486,3.125672 -5.236208,7.558854 -6.248304,10.300728 -0.54998,1.489652 -0.771274,2.985812 -0.533708,3.608668 0.15946,0.420876 0.013,0.264106 -0.523948,-0.55748 z m 22.927696,0.340538 c 0.1292,-0.629688 -0.03416,-1.785632 -0.416554,-2.951986 -0.828226,-2.52558 -3.59733,-7.223844 -6.139936,-10.418468 l -0.800564,-1.005678 0.866302,-0.79459 c 1.130554,-1.037555 1.915496,-1.658786 2.762922,-2.18667 0.668112,-0.416322 1.623258,-0.784833 2.033952,-0.784833 0.252862,0 1.144222,0.926968 1.863428,1.935249 1.11428,1.56121 1.93372,3.457428 2.34897,5.428454 0.268482,1.274988 0.290938,4.000598 0.04328,5.272334 -0.20502,1.043408 -0.634592,2.395806 -1.051146,3.31334 -0.315668,0.687258 -1.093454,2.022418 -1.435156,2.456954 -0.17574,0.223446 -0.17574,0.223122 -0.0781,-0.2589 z M 22.834958,13.416874 c -1.17351,-0.595211 -2.983566,-1.234331 -3.983296,-1.406714 -0.350164,-0.06017 -0.947984,-0.09432 -1.327764,-0.07481 -0.825296,0.04163 -0.788522,-0.0013 0.534686,-0.62611 1.099962,-0.519428 2.017682,-0.824839 3.264088,-1.086342 1.400988,-0.2943534 4.035364,-0.2976054 5.41422,-0.0072 1.488854,0.313868 3.24261,0.965998 4.230622,1.574219 l 0.294192,0.18019 -0.673646,-0.03383 c -1.33948,-0.0676 -3.291424,0.47329 -5.387208,1.491979 -0.631992,0.307688 -1.18132,0.552928 -1.221674,0.546423 -0.04004,-0.0078 -0.555188,-0.258575 -1.145522,-0.557807 z"
     id="path4" />
</svg>
