<?xml version="1.0" encoding="UTF-8" standalone="no"?>
<!-- Created with Inkscape (http://www.inkscape.org/) -->

<svg
   width="48"
   height="48"
   viewBox="0 0 48 48"
   version="1.1"
   id="svg5"
   inkscape:version="1.3 (0e150ed6c4, 2023-07-21)"
   sodipodi:docname="yast-kerberos.svg"
   xmlns:inkscape="http://www.inkscape.org/namespaces/inkscape"
   xmlns:sodipodi="http://sodipodi.sourceforge.net/DTD/sodipodi-0.dtd"
   xmlns="http://www.w3.org/2000/svg"
   xmlns:svg="http://www.w3.org/2000/svg">
  <sodipodi:namedview
     id="namedview7"
     pagecolor="#ffffff"
     bordercolor="#000000"
     borderopacity="0.25"
     inkscape:showpageshadow="2"
     inkscape:pageopacity="0.0"
     inkscape:pagecheckerboard="0"
     inkscape:deskcolor="#d1d1d1"
     inkscape:document-units="px"
     showgrid="false"
     inkscape:zoom="15.1875"
     inkscape:cx="24"
     inkscape:cy="24"
     inkscape:window-width="1920"
     inkscape:window-height="937"
     inkscape:window-x="0"
     inkscape:window-y="32"
     inkscape:window-maximized="1"
     inkscape:current-layer="svg5" />
  <defs
     id="defs2" />
  <rect
     style="opacity:0.2;fill:#000000;stroke-width:2.85714;stroke-linecap:square"
     id="rect234"
     width="40"
     height="40"
     x="4"
     y="4.999999"
     ry="9" />
  <rect
     style="fill:#4d4d4d;fill-opacity:1;stroke-width:2.85714;stroke-linecap:square"
     id="rect396"
     width="40"
     height="40"
     x="4"
     y="4"
     ry="9" />
  <path
     id="path1040"
     style="opacity:0.1;fill:#ffffff;stroke-width:8;stroke-linecap:square"
     d="m 13,4.0000002 c -4.98599,0 -9,4.01401 -9,8.9999998 v 1 C 4,9.0140102 8.01401,5.0000002 13,5.0000002 h 22 c 4.985992,0 9,4.01401 9,8.9999998 V 13 C 44,8.0140104 39.985992,4.0000002 35,4.0000002 Z" />
  <path
     id="path1"
     style="opacity:0.1;fill:#000000;stroke-width:2"
     d="M 24 11 C 19.568016 11 16 14.568017 16 19 L 16 23 L 14 23 C 12.892003 23 12 23.892005 12 25 L 12 37 C 12 38.107995 12.892003 39 14 39 L 34 39 C 35.107995 39 36 38.107995 36 37 L 36 25 C 36 23.892005 35.107995 23 34 23 L 32 23 L 32 19 C 32 14.568017 28.431984 11 24 11 z M 24 14 C 26.769984 14 29 16.230015 29 19 L 29 23 L 19 23 L 19 19 C 19 16.230015 21.230015 14 24 14 z " />
  <path
     id="path2"
     style="opacity:1;fill:#d2d2d2;fill-opacity:1;stroke-width:2"
     d="M 24 10 C 19.568022 10 16 13.568022 16 18 L 16 22 L 19 22 L 19 18 C 19 15.230015 21.230015 13 24 13 C 26.769984 13 29 15.230015 29 18 L 29 22 L 32 22 L 32 18 C 32 13.568022 28.43198 10 24 10 z " />
  <path
     id="path3"
     style="opacity:0.2;fill:#ffffff;stroke-width:2"
     d="m 24,10 c -4.431978,0 -8,3.568022 -8,8 v 1 c 0,-4.431978 3.568022,-8 8,-8 4.43198,0 8,3.568022 8,8 v -1 c 0,-4.431978 -3.56802,-8 -8,-8 z" />
  <rect
     style="opacity:1;fill:#ffb437;fill-opacity:1;stroke-width:2"
     id="rect2"
     width="24"
     height="16"
     x="12"
     y="22"
     ry="2" />
  <path
     id="path4"
     style="opacity:0.2;fill:#ffffff;fill-opacity:1;stroke-width:2"
     d="m 14,22 c -1.107999,0 -2,0.892002 -2,2 v 1 c 0,-1.107998 0.892001,-2 2,-2 h 20 c 1.107998,0 2,0.892002 2,2 v -1 c 0,-1.107998 -0.892002,-2 -2,-2 z" />
  <rect
     style="opacity:1;fill:#fed96a;fill-opacity:1;stroke-width:1.89737"
     id="rect3"
     width="24"
     height="9"
     x="12"
     y="25" />
</svg>
