<?xml version="1.0" encoding="UTF-8" standalone="no"?>
<!-- Created with Inkscape (http://www.inkscape.org/) -->

<svg
   width="96"
   height="96"
   viewBox="0 0 96 96"
   version="1.1"
   id="svg5"
   inkscape:version="1.3 (0e150ed6c4, 2023-07-21)"
   sodipodi:docname="preferences-system-windows-move.svg"
   xmlns:inkscape="http://www.inkscape.org/namespaces/inkscape"
   xmlns:sodipodi="http://sodipodi.sourceforge.net/DTD/sodipodi-0.dtd"
   xmlns="http://www.w3.org/2000/svg"
   xmlns:svg="http://www.w3.org/2000/svg">
  <sodipodi:namedview
     id="namedview7"
     pagecolor="#ffffff"
     bordercolor="#000000"
     borderopacity="0.25"
     inkscape:showpageshadow="2"
     inkscape:pageopacity="0.0"
     inkscape:pagecheckerboard="0"
     inkscape:deskcolor="#d1d1d1"
     inkscape:document-units="px"
     showgrid="false"
     inkscape:zoom="8.15625"
     inkscape:cx="48"
     inkscape:cy="48"
     inkscape:window-width="1920"
     inkscape:window-height="984"
     inkscape:window-x="0"
     inkscape:window-y="29"
     inkscape:window-maximized="1"
     inkscape:current-layer="svg5" />
  <defs
     id="defs2" />
  <rect
     style="opacity:0.2;fill:#000000;stroke-width:6;stroke-linecap:square"
     id="rect234"
     width="84"
     height="84"
     x="6"
     y="7"
     ry="18" />
  <rect
     style="fill:#83a598;fill-opacity:1;stroke-width:6;stroke-linecap:square"
     id="rect396"
     width="84"
     height="84"
     x="6"
     y="6"
     ry="18" />
  <path
     id="rect2"
     style="opacity:0.2;fill:#000000;stroke-width:3"
     d="m 18,25 c -1.661998,0 -3,1.338002 -3,3 v 18 c 0,1.661997 1.338002,3 3,3 h 24 c 1.661997,0 3,-1.338003 3,-3 V 28 c 0,-1.661998 -1.338003,-3 -3,-3 z m 36,0 c -1.661997,0 -3,1.338002 -3,3 v 18 c 0,1.661997 1.338003,3 3,3 h 24 c 1.661997,0 3,-1.338003 3,-3 V 28 c 0,-1.661998 -1.338003,-3 -3,-3 z M 36,55 c -1.661997,0 -3,1.338003 -3,3 v 18 c 0,1.661997 1.338003,3 3,3 h 24 c 1.661997,0 3,-1.338003 3,-3 V 58 c 0,-1.661997 -1.338003,-3 -3,-3 z" />
  <path
     id="rect3"
     style="fill:#f5f5f5;fill-opacity:1;stroke-width:3"
     d="m 18,24 c -1.661998,0 -3,1.338002 -3,3 v 18 c 0,1.661997 1.338002,3 3,3 h 24 c 1.661997,0 3,-1.338003 3,-3 V 27 c 0,-1.661998 -1.338003,-3 -3,-3 z m 36,0 c -1.661997,0 -3,1.338002 -3,3 v 18 c 0,1.661997 1.338003,3 3,3 h 24 c 1.661997,0 3,-1.338003 3,-3 V 27 c 0,-1.661998 -1.338003,-3 -3,-3 z M 36,54 c -1.661997,0 -3,1.338003 -3,3 v 18 c 0,1.661997 1.338003,3 3,3 h 24 c 1.661997,0 3,-1.338003 3,-3 V 57 c 0,-1.661997 -1.338003,-3 -3,-3 z" />
  <path
     id="path1040"
     style="opacity:0.2;fill:#ffffff;stroke-width:6;stroke-linecap:square"
     d="M 24 6 C 14.02802 6 6 14.028021 6 24 L 6 25 C 6 15.028021 14.02802 7 24 7 L 72 7 C 81.971978 7 90 15.028021 90 25 L 90 24 C 90 14.028021 81.971978 6 72 6 L 24 6 z " />
</svg>
