<?xml version="1.0" encoding="UTF-8" standalone="no"?>
<!-- Created with Inkscape (http://www.inkscape.org/) -->

<svg
   width="24"
   height="24"
   viewBox="0 0 24 24"
   version="1.1"
   id="svg5"
   inkscape:version="1.4 (e7c3feb100, 2024-10-09)"
   sodipodi:docname="gmail.svg"
   xmlns:inkscape="http://www.inkscape.org/namespaces/inkscape"
   xmlns:sodipodi="http://sodipodi.sourceforge.net/DTD/sodipodi-0.dtd"
   xmlns="http://www.w3.org/2000/svg"
   xmlns:svg="http://www.w3.org/2000/svg">
  <sodipodi:namedview
     id="namedview7"
     pagecolor="#ffffff"
     bordercolor="#000000"
     borderopacity="0.25"
     inkscape:showpageshadow="2"
     inkscape:pageopacity="0.0"
     inkscape:pagecheckerboard="0"
     inkscape:deskcolor="#d1d1d1"
     inkscape:document-units="px"
     showgrid="false"
     inkscape:zoom="32.75"
     inkscape:cx="12"
     inkscape:cy="12"
     inkscape:window-width="1920"
     inkscape:window-height="1011"
     inkscape:window-x="0"
     inkscape:window-y="0"
     inkscape:window-maximized="1"
     inkscape:current-layer="svg5" />
  <defs
     id="defs2" />
  <rect
     style="opacity:0.2;fill:#000000;stroke-width:1.42857;stroke-linecap:square"
     id="rect234"
     width="20"
     height="20"
     x="2"
     y="2.5"
     ry="4.5" />
  <rect
     style="fill:#4f4f4f;fill-opacity:1;stroke-width:1.42857;stroke-linecap:square"
     id="rect396"
     width="20"
     height="20"
     x="2"
     y="2"
     ry="4.5" />
  <path
     d="m 5,9.156465 v 7.389486 c 0,0.527258 0.40314,0.954102 0.9003905,0.954102 H 8 V 12.019746 L 5.638672,10.25998 C 5.215409,9.947626 5.027593,9.553143 5.004883,9.160371 Z m 14,0 -0.0049,0.0039 c -0.02271,0.392771 -0.210526,0.787255 -0.633789,1.09961 L 16,12.019741 v 5.480307 h 2.099609 C 18.59686,17.500048 19,17.073204 19,16.545946 Z"
     style="opacity:0.2;fill:#000000;stroke-width:0.5"
     id="path556" />
  <path
     d="m 19.004762,9.246254 -0.0049,0.0039 c 0,0 -0.516567,0.412078 -0.638551,0.509826 L 16,11.519746 v 5.480307 h 2.099609 C 18.59686,17.000053 19,16.573209 19,16.045951 Z"
     style="fill:#34a853;stroke-width:0.5"
     id="path444" />
  <path
     d="M 5.0001865,9.25 5.638689,9.759975 8,11.519741 v 5.480307 H 5.9003905 C 5.40314,17.000048 5,16.573204 5,16.045946 Z"
     style="fill:#4285f4;stroke-width:0.5"
     id="path472" />
  <path
     id="path360"
     style="opacity:0.2;fill:#000000;stroke-width:0.499987"
     d="M 6.5655747,7.5011775 C 5.6968204,7.4639785 4.9560161,8.304449 5.0031165,9.1564066 h -0.00293 v 0.5937341 l 0.5165877,0.4130753 c 9e-4,8e-4 0.00205,0.0012 0.00295,0.0019 L 5.638842,10.259893 8.0001067,12.019611 12,15 l 3.999892,-2.980389 2.361265,-1.759718 c 0.04195,-0.03096 0.08169,-0.0632 0.119138,-0.0957 L 18.999812,9.7501407 V 9.1564066 h -0.003 c 0.04713,-0.8519541 -0.693625,-1.6924161 -1.562458,-1.6552291 -0.293204,0.01255 -0.600672,0.1254031 -0.897437,0.371084 L 15.999892,8.264829 12,11.185649 8.0001067,8.264829 7.4630116,7.8722615 C 7.1662466,7.6265806 6.8587523,7.5137311 6.5655747,7.5011775 Z" />
  <path
     id="path500"
     style="fill:#c5221f;stroke-width:0.499987"
     d="M 6.5655747,7.0011909 C 5.6968194,6.9639919 4.9560157,7.8044614 5.0031165,8.65642 h -0.00293 v 0.5937341 l 0.5165877,0.4120985 c 0.00105,8.999e-4 0.0019,0.002 0.00295,0.00295 0.037444,0.032499 0.077186,0.063765 0.1191378,0.094724 L 8.0001067,11.519624 V 7.7648424 L 7.4630116,7.3722749 C 7.1662461,7.126594 6.8587523,7.0137445 6.5655747,7.0011909 Z" />
  <path
     id="path416"
     style="fill:#fbbc04;stroke-width:0.499987"
     d="m 17.434424,7.0011909 c -0.293204,0.01255 -0.600671,0.1254031 -0.897437,0.371084 l -0.537095,0.3925675 v 3.7547816 l 2.361265,-1.759718 c 0.04195,-0.030959 0.08169,-0.062223 0.119138,-0.094724 0.0011,-9e-4 0.0019,-0.002 0.003,-0.00295 L 18.999862,9.250154 V 8.65642 h -0.003 C 19.043991,7.8044659 18.303238,6.9640039 17.434404,7.0011909 Z" />
  <path
     d="m 8,7.7648635 v 3.7548825 l 4,2.980469 4,-2.980469 V 7.7648635 l -4,2.9208985 z"
     style="fill:#ea4335;stroke-width:0.5"
     id="path388" />
  <path
     d="M 6.56543,7.0011915 C 5.6385045,6.9615015 4.860293,7.920854 5.0263675,8.827364 5.154245,8.101629 5.8097145,7.4688325 6.56543,7.5011915 6.858615,7.5137465 7.166117,7.626598 7.4628905,7.8722855 L 8,8.264864 l 4,2.920898 4,-2.920898 0.537109,-0.3925785 c 0.296774,-0.2456875 0.604249,-0.358544 0.897461,-0.371094 0.755783,-0.03235 1.411206,0.6004415 1.539063,1.3261725 0.166101,-0.906506 -0.612054,-1.8658495 -1.539063,-1.8261725 -0.293212,0.01255 -0.600687,0.1254065 -0.897461,0.371094 L 16,7.7648635 12,10.685762 8,7.7648635 7.4628905,7.3722855 C 7.166117,7.126598 6.858615,7.0137455 6.56543,7.0011915 Z"
     style="opacity:0.2;fill:#ffffff;stroke-width:0.5"
     id="path528" />
  <path
     id="path1040"
     style="opacity:0.1;fill:#ffffff;stroke-width:4;stroke-linecap:square"
     d="M 6.5,2 C 4.0070049,2 2,4.0070048 2,6.5 V 7 C 2,4.5070048 4.0070049,2.5 6.5,2.5 h 11 C 19.992996,2.5 22,4.5070048 22,7 V 6.5 C 22,4.0070048 19.992996,2 17.5,2 Z" />
</svg>
