<?xml version="1.0" encoding="UTF-8" standalone="no"?>
<!-- Created with Inkscape (http://www.inkscape.org/) -->

<svg
   width="24"
   height="24"
   viewBox="0 0 24 24"
   version="1.1"
   id="svg5"
   inkscape:version="1.4 (e7c3feb100, 2024-10-09)"
   sodipodi:docname="google-maps.svg"
   xmlns:inkscape="http://www.inkscape.org/namespaces/inkscape"
   xmlns:sodipodi="http://sodipodi.sourceforge.net/DTD/sodipodi-0.dtd"
   xmlns="http://www.w3.org/2000/svg"
   xmlns:svg="http://www.w3.org/2000/svg">
  <sodipodi:namedview
     id="namedview7"
     pagecolor="#ffffff"
     bordercolor="#000000"
     borderopacity="0.25"
     inkscape:showpageshadow="2"
     inkscape:pageopacity="0.0"
     inkscape:pagecheckerboard="0"
     inkscape:deskcolor="#d1d1d1"
     inkscape:document-units="px"
     showgrid="false"
     inkscape:zoom="32.75"
     inkscape:cx="12"
     inkscape:cy="12"
     inkscape:window-width="1920"
     inkscape:window-height="1011"
     inkscape:window-x="0"
     inkscape:window-y="0"
     inkscape:window-maximized="1"
     inkscape:current-layer="svg5" />
  <defs
     id="defs2" />
  <rect
     style="opacity:0.2;fill:#000000;stroke-width:1.42857;stroke-linecap:square"
     id="rect234"
     width="20"
     height="20"
     x="2"
     y="2.5"
     ry="4.5" />
  <rect
     style="fill:#4f4f4f;fill-opacity:1;stroke-width:1.42857;stroke-linecap:square"
     id="rect396"
     width="20"
     height="20"
     x="2"
     y="2"
     ry="4.5" />
  <path
     style="opacity:0.2;stroke-width:0.5"
     d="m 12,5.5 c -2.76,0 -5,2.24 -5,5 0,3.5 4.549,6.7695 4.5,8.5 0,0 0,0.505 0.5,0.5 0.51,0 0.5,-0.5 0.5,-0.5 0,-1.75 4.5,-5 4.5,-8.5 0,-2.76 -2.24,-5 -5,-5 z"
     id="path1" />
  <path
     style="fill:#0079e1;stroke-width:0.5"
     d="M 13.463,5.21875 C 13,5.07715 12.509,5 12,5 10.457,5 9.0775,5.70105 8.16015,6.8008 L 12,11.5 Z"
     id="path2" />
  <path
     style="fill:#00a85c;stroke-width:0.5"
     d="M 16.499,7.8301 12,10 9.8225,15.62 c 0.914,1.1605 1.698,2.159 1.6775,2.88 0,0 0,0.505 0.5,0.5 0.51,0 0.5,-0.5 0.5,-0.5 0,-1.188 2.0715,-3.068 3.4035,-5.247 C 16.5335,12.2215 17,11.124 17,10 17,9.2215 16.817,8.48725 16.499,7.8301 Z"
     id="path3" />
  <path
     style="fill:#008bed;stroke-width:0.5"
     d="M 16.499,7.8301 C 15.898,6.58715 14.8015,5.62835 13.463,5.21875 l -3,3.5 3.076,2.56425 z"
     id="path4" />
  <path
     style="fill:#fa373c;stroke-width:0.5"
     d="M 10.463,8.71875 8.16015,6.8008 C 7.43665,7.6681 7,8.78305 7,10 c 0,0.732 0.2062,1.4525 0.5205,2.1525 z"
     id="path5" />
  <path
     style="fill:#ffb83f;stroke-width:0.5"
     d="M 13.539,11.283 10.463,8.71875 7.5205,12.1525 c 0.56245,1.2525 1.4805,2.425 2.302,3.4675 z"
     id="path6" />
  <path
     style="opacity:0.2;fill:#ffffff;stroke-width:0.5"
     d="M 12,5 C 9.24,5 7,7.24 7,10 7,10.0735 7.00485,10.1465 7.0088,10.2195 7.15455,7.59015 9.334,5.5 12,5.5 c 2.666,0 4.8455,2.09015 4.991,4.7195 C 16.995,10.1465 17,10.0735 17,10 17,7.24 14.76,5 12,5 Z"
     id="path7" />
  <circle
     style="opacity:0.2;fill:#000000;stroke-width:0.666665"
     id="path8"
     cx="12"
     cy="10.5"
     r="2" />
  <circle
     style="fill:#4f4f4f;fill-opacity:1;stroke-width:0.666665"
     id="path9"
     cx="12"
     cy="10"
     r="2" />
  <path
     id="path1040"
     style="opacity:0.1;fill:#ffffff;stroke-width:4;stroke-linecap:square"
     d="M 6.5,2 C 4.007005,2 2,4.007005 2,6.5 V 7 C 2,4.507005 4.007005,2.5 6.5,2.5 h 11 C 19.992996,2.5 22,4.507005 22,7 V 6.5 C 22,4.007005 19.992996,2 17.5,2 Z" />
</svg>
