<?xml version="1.0" encoding="UTF-8" standalone="no"?>
<!-- Created with Inkscape (http://www.inkscape.org/) -->

<svg
   width="24"
   height="24"
   viewBox="0 0 24 24"
   version="1.1"
   id="svg5"
   inkscape:version="1.4 (e7c3feb100, 2024-10-09)"
   sodipodi:docname="inkscape.svg"
   xmlns:inkscape="http://www.inkscape.org/namespaces/inkscape"
   xmlns:sodipodi="http://sodipodi.sourceforge.net/DTD/sodipodi-0.dtd"
   xmlns="http://www.w3.org/2000/svg"
   xmlns:svg="http://www.w3.org/2000/svg">
  <sodipodi:namedview
     id="namedview7"
     pagecolor="#ffffff"
     bordercolor="#000000"
     borderopacity="0.25"
     inkscape:showpageshadow="2"
     inkscape:pageopacity="0.0"
     inkscape:pagecheckerboard="0"
     inkscape:deskcolor="#d1d1d1"
     inkscape:document-units="px"
     showgrid="false"
     inkscape:zoom="32.75"
     inkscape:cx="12"
     inkscape:cy="12"
     inkscape:window-width="1920"
     inkscape:window-height="1011"
     inkscape:window-x="0"
     inkscape:window-y="0"
     inkscape:window-maximized="1"
     inkscape:current-layer="svg5" />
  <defs
     id="defs2" />
  <rect
     style="opacity:0.2;fill:#000000;stroke-width:1.42857;stroke-linecap:square"
     id="rect234"
     width="20"
     height="20"
     x="2"
     y="2.5"
     ry="4.5" />
  <rect
     style="fill:#4f4f4f;fill-opacity:1;stroke-width:1.42857;stroke-linecap:square"
     id="rect396"
     width="20"
     height="20"
     x="2"
     y="2"
     ry="4.5" />
  <path
     d="m 19.347129,15.50078 c -0.10601,-0.004 -0.21299,0.006 -0.28842,0.0306 -0.14219,0.0472 -0.81598,0.0744 -0.76047,0.66412 0.61025,0.29473 1.5409,0.52911 1.6518,-0.0606 0.0832,-0.44219 -0.28482,-0.62063 -0.60291,-0.63417 z M 6.7074189,17.50537 c -0.0594,0.008 -0.10009,0.0366 -0.15818,0.0631 -0.46449,0.21224 -0.77569,0.65895 -0.34173,0.85403 0.43402,0.19503 0.72416,-0.0113 1.10462,-0.25322 0.38052,-0.24198 0.36991,-0.28615 0.34239,-0.3795 -0.0528,0.0127 -0.3986,-0.24598 -0.76289,-0.28446 -0.0607,-0.006 -0.12479,-0.008 -0.18421,10e-6 z M 11.999149,4.5 c -0.45595,1.8e-4 -0.8998,0.17126 -1.24923,0.53274 l -6.2186301,6.42262 c -0.34266,0.35449 -0.52443,0.82159 -0.53124,1.28422 -1.1e-4,0.007 0,0.0243 0,0.032 -7e-5,1.37642 3.67742,0.0396 4.00895,1.72247 0.17939,0.91078 -2.00436,0.49361 -2.00436,1.40997 0,1.07493 3.19427,0.19834 3.91436,1.22173 0.5512101,0.78338 -1.32811,0.817 -0.89078,1.56696 0.37515,0.64334 1.7167201,0.23135 1.9404401,1.09599 0.25555,0.98765 2.00083,0.87759 2.93034,0.0945 0.5698,-0.48006 -0.74652,-0.78063 -0.22875,-1.31623 0.51774,-0.53564 3.43897,-0.43491 3.30117,-1.59747 -0.0912,-0.76939 -0.92768,-0.85413 -0.94242,-1.72321 -0.0515,-0.73601 0.22548,-0.52125 2.87701,-1.25372 1.06024,-0.49813 1.09777,-0.76298 1.09373,-1.22173 -8e-5,-0.009 0,-0.0216 0,-0.0312 -0.006,-0.4626 -0.21987,-0.92975 -0.56249,-1.28423 L 13.249129,5.0328 c -0.34952,-0.36151 -0.79351,-0.53256 -1.24924,-0.53274 z"
     style="opacity:0.2;fill:#000000;fill-rule:evenodd"
     id="path1907" />
  <path
     d="m 19.347129,15.0008 c -0.10601,-0.004 -0.21299,0.006 -0.28842,0.0306 -0.14219,0.0472 -0.81598,0.0744 -0.76047,0.66412 0.61025,0.29473 1.5409,0.52911 1.6518,-0.0606 0.0832,-0.44219 -0.28482,-0.62063 -0.60291,-0.63417 z M 6.7074189,17.00539 c -0.0594,0.008 -0.10009,0.0366 -0.15818,0.0631 -0.46449,0.21224 -0.77569,0.65895 -0.34173,0.85403 0.43402,0.19503 0.72416,-0.0113 1.10462,-0.25322 0.38052,-0.24198 0.36991,-0.28615 0.34239,-0.3795 -0.0528,0.0127 -0.3986,-0.24598 -0.76289,-0.28446 -0.0607,-0.006 -0.12479,-0.008 -0.18421,10e-6 z M 11.999149,4.00002 c -0.45595,1.8e-4 -0.8998,0.17126 -1.24923,0.53274 l -6.2186301,6.42262 c -0.34266,0.35449 -0.52443,0.82159 -0.53124,1.28422 -1.1e-4,0.007 0,0.0243 0,0.032 -7e-5,1.37642 3.67742,0.0396 4.00895,1.72247 0.17939,0.91078 -2.00436,0.49361 -2.00436,1.40997 0,1.07493 3.19427,0.19834 3.91436,1.22173 0.5512101,0.78338 -1.32811,0.817 -0.89078,1.56696 0.37515,0.64334 1.7167201,0.23135 1.9404401,1.09599 0.25555,0.98765 2.00083,0.87759 2.93034,0.0945 0.5698,-0.48006 -0.74652,-0.78063 -0.22875,-1.31623 0.51774,-0.53564 3.43897,-0.43491 3.30117,-1.59747 -0.0912,-0.76939 -0.92768,-0.85413 -0.94242,-1.72321 -0.0515,-0.73601 0.22548,-0.52125 2.87701,-1.25372 1.06024,-0.49813 1.09777,-0.76298 1.09373,-1.22173 -8e-5,-0.009 0,-0.0216 0,-0.0312 -0.006,-0.4626 -0.21987,-0.92975 -0.56249,-1.28423 l -6.18812,-6.42261 c -0.34952,-0.36151 -0.79351,-0.53256 -1.24924,-0.53274 z"
     style="fill:#efefef;fill-opacity:1;fill-rule:evenodd"
     id="path1879"
     sodipodi:nodetypes="sccsssscssccsssccssssssssssccscccss" />
  <path
     d="m 12.029039,6.5 c 0.46921,0.004 1.75493,1.59508 2.90205,2.78666 0.32267,0.43296 -0.12481,0.87669 -0.12481,0.87669 l -2.40266,-1.31505 -1.06095,1.44038 -0.936,-1.40876 -0.5619101,2.19162 -1.65371,-1.0019 0.43695,-0.56381 2.5897101,-2.66122 c 0.19865,-0.2025 0.35077,-0.34801 0.81132,-0.34442 z"
     style="opacity:0.2;fill:#000000;fill-rule:evenodd"
     id="path1991"
     sodipodi:nodetypes="cccccccccccc" />
  <path
     d="m 12.029039,6 c 0.46921,0.004 1.75493,1.59508 2.90205,2.78666 0.32267,0.43296 -0.12481,0.87669 -0.12481,0.87669 l -2.40266,-1.31505 -1.06095,1.44038 -0.936,-1.40876 -0.5619101,2.19162 -1.65371,-1.0019 0.43695,-0.56381 2.5897101,-2.66122 c 0.19865,-0.2025 0.35077,-0.34801 0.81132,-0.34442 z"
     style="fill:#3d3d3d;fill-opacity:1;fill-rule:evenodd"
     id="path2019" />
  <path
     id="path1935"
     style="opacity:0.2;fill:#ffffff;fill-rule:evenodd"
     d="m 12.000049,4 c -0.45595,1.8e-4 -0.90057,0.17172 -1.25,0.5332 l -6.2187501,6.42188 c -0.34266,0.35449 -0.52444,0.82252 -0.53125,1.28515 -1.1e-4,0.007 0,0.0236 0,0.0312 0,0.0673 0.0106,0.12668 0.0273,0.18164 0.0624,-0.36418 0.2323,-0.71705 0.50391,-0.99804 L 10.750009,5.03315 c 0.34943,-0.36148 0.79405,-0.53302 1.25,-0.5332 0.45573,1.8e-4 0.90048,0.17169 1.25,0.5332 l 6.1875,6.42188 c 0.29538,0.3056 0.49358,0.69577 0.54687,1.09375 0.0135,-0.0864 0.0165,-0.17679 0.0156,-0.27735 -8e-5,-0.009 0,-0.0216 0,-0.0312 -0.006,-0.4626 -0.21988,-0.93067 -0.5625,-1.28515 L 13.249979,4.5332 C 12.900459,4.17169 12.455709,4.00018 11.999979,4 Z M 7.9512189,14.30859 c -0.34425,0.50304 -1.94726,0.30983 -1.94726,1.09571 0,0.0963 0.027,0.17639 0.0742,0.24414 0.37701,-0.58469 2.09141,-0.34314 1.93165,-1.1543 -0.0133,-0.0675 -0.035,-0.12742 -0.0586,-0.18555 z m 8.0957001,0.61914 c -0.0248,0.0825 -0.0269,0.18431 -0.0176,0.31836 0.0134,0.79024 0.70428,0.93362 0.89843,1.53125 0.0402,-0.0915 0.0565,-0.19455 0.043,-0.30859 -0.0844,-0.71181 -0.80453,-0.83796 -0.92383,-1.54102 z M 19.347709,15 c -0.10601,-0.004 -0.21364,0.007 -0.28907,0.0312 -0.14219,0.0472 -0.81527,0.0743 -0.75976,0.66406 0.0483,0.0233 0.10057,0.0442 0.15234,0.0664 0.19504,-0.17666 0.51444,-0.1996 0.60742,-0.23047 0.0754,-0.0246 0.18306,-0.0353 0.28907,-0.0312 0.2111,0.009 0.44023,0.0942 0.54882,0.27734 0.0239,-0.0414 0.0423,-0.0873 0.0527,-0.14257 0.0832,-0.44219 -0.28347,-0.62123 -0.60156,-0.63477 z M 6.7988789,17 c -0.031,-2.5e-4 -0.0621,0.002 -0.0918,0.006 -0.0594,0.008 -0.10011,0.036 -0.1582,0.0625 -0.43154,0.19718 -0.7296,0.59646 -0.42188,0.80859 0.0999,-0.11839 0.24965,-0.22989 0.42188,-0.30859 0.0581,-0.0265 0.0988,-0.0545 0.1582,-0.0625 0.0594,-0.008 0.1229,-0.006 0.18359,0 0.16458,0.0174 0.32337,0.0787 0.45508,0.14062 0.33727,-0.21827 0.33505,-0.26768 0.3086,-0.35742 -0.0528,0.0127 -0.39939,-0.24472 -0.76368,-0.2832 -0.0303,-0.003 -0.0607,-0.006 -0.0918,-0.006 z m 3.12304,0.12891 c -0.30652,0.35159 -1.21258,0.51904 -0.89453,1.06445 0.0102,0.0174 0.0236,0.031 0.0352,0.0469 0.3192,-0.36036 1.2647901,-0.52815 0.85937,-1.11132 z m 3.7363301,1.45312 c -0.28461,0.31356 0.053,0.5473 0.25586,0.78516 0.32827,-0.29606 -0.0523,-0.52464 -0.25586,-0.78516 z" />
  <path
     id="path1040"
     style="opacity:0.1;fill:#ffffff;stroke-width:4;stroke-linecap:square"
     d="M 6.5,2 C 4.007005,2 2,4.007005 2,6.5 V 7 C 2,4.507005 4.007005,2.5 6.5,2.5 h 11 C 19.992996,2.5 22,4.507005 22,7 V 6.5 C 22,4.007005 19.992996,2 17.5,2 Z" />
</svg>
