<?xml version="1.0" encoding="UTF-8" standalone="no"?>
<!-- Created with Inkscape (http://www.inkscape.org/) -->

<svg
   width="24"
   height="24"
   viewBox="0 0 24 24"
   version="1.1"
   id="svg5"
   inkscape:version="1.4 (e7c3feb100, 2024-10-09)"
   sodipodi:docname="libreoffice-base.svg"
   xmlns:inkscape="http://www.inkscape.org/namespaces/inkscape"
   xmlns:sodipodi="http://sodipodi.sourceforge.net/DTD/sodipodi-0.dtd"
   xmlns="http://www.w3.org/2000/svg"
   xmlns:svg="http://www.w3.org/2000/svg">
  <sodipodi:namedview
     id="namedview7"
     pagecolor="#ffffff"
     bordercolor="#000000"
     borderopacity="0.25"
     inkscape:showpageshadow="2"
     inkscape:pageopacity="0.0"
     inkscape:pagecheckerboard="0"
     inkscape:deskcolor="#d1d1d1"
     inkscape:document-units="px"
     showgrid="false"
     inkscape:zoom="32.75"
     inkscape:cx="12"
     inkscape:cy="12"
     inkscape:window-width="1920"
     inkscape:window-height="1011"
     inkscape:window-x="0"
     inkscape:window-y="0"
     inkscape:window-maximized="1"
     inkscape:current-layer="svg5" />
  <defs
     id="defs2" />
  <rect
     style="opacity:0.2;fill:#000000;stroke-width:1.42857;stroke-linecap:square"
     id="rect234"
     width="20"
     height="20"
     x="2"
     y="2.5"
     ry="4.5" />
  <rect
     style="fill:#4f4f4f;fill-opacity:1;stroke-width:1.42857;stroke-linecap:square"
     id="rect396"
     width="20"
     height="20"
     x="2"
     y="2"
     ry="4.5" />
  <path
     d="m 9,7.5 c -1.66,0 -3,0.45 -3,1 V 9.5000001 C 6,10.05 7.34,10.5 9,10.5 c 1.66,0 3,-0.45 3,-0.9999999 V 8.5 c 0,-0.55 -1.34,-1 -3,-1 z m 4,2.0000001 V 16.5 h 5 v -7 z M 6,10.5 v 1 c 0,0.55 1.34,1 3,1 1.66,0 3,-0.45 3,-1 v -1 c 0,0.55 -1.34,1 -3,1 -1.66,0 -3,-0.45 -3,-1 z m 8,0 h 1 v 1 h -1 z m 2,0 h 1 v 1 h -1 z m -10,2 v 1 c 0,0.55 1.34,1 3,1 1.66,0 3,-0.45 3,-1 v -1 c 0,0.55 -1.34,1 -3,1 -1.66,0 -3,-0.45 -3,-1 z m 8,0 h 1 v 1 h -1 z m 2,0 h 1 v 1 h -1 z m -10,2 v 1 c 0,0.55 1.34,1 3,1 1.66,0 3,-0.45 3,-1 v -1 c 0,0.55 -1.34,1 -3,1 -1.66,0 -3,-0.45 -3,-1 z m 8,0 h 1 v 1 h -1 z m 2,0 h 1 v 1 h -1 z"
     style="opacity:0.2;fill:#000000"
     id="path418" />
  <path
     d="m 13,9 v 7 h 5 V 9 Z m 1,1 h 1 v 1 h -1 z m 2,0 h 1 v 1 h -1 z m -2,2 h 1 v 1 h -1 z m 2,0 h 1 v 1 h -1 z m -2,2 h 1 v 1 h -1 z m 2,0 h 1 v 1 h -1 z"
     style="fill:#ebd9f1"
     id="path362" />
  <path
     d="M 9,7 C 7.34,7 6,7.4500002 6,8 V 9.0000001 C 6,9.5500001 7.34,10 9,10 10.66,10 12,9.5500001 12,9.0000001 V 8 C 12,7.4500002 10.66,7 9,7 Z m -3,3 v 1 c 0,0.55 1.34,1 3,1 1.66,0 3,-0.45 3,-1 v -1 c 0,0.55 -1.34,1 -3,1 -1.66,0 -3,-0.45 -3,-1 z m 0,2 v 1 c 0,0.55 1.34,1 3,1 1.66,0 3,-0.45 3,-1 v -1 c 0,0.55 -1.34,1 -3,1 -1.66,0 -3,-0.45 -3,-1 z m 0,2 v 1 c 0,0.55 1.34,1 3,1 1.66,0 3,-0.45 3,-1 v -1 c 0,0.55 -1.34,1 -3,1 -1.66,0 -3,-0.45 -3,-1 z"
     style="fill:#8b3ea7;fill-opacity:1"
     id="path390" />
  <path
     id="path1040"
     style="opacity:0.1;fill:#ffffff;stroke-width:4;stroke-linecap:square"
     d="M 6.5,2 C 4.007005,2 2,4.007005 2,6.5 V 7 C 2,4.507005 4.007005,2.5 6.5,2.5 h 11 C 19.992996,2.5 22,4.507005 22,7 V 6.5 C 22,4.007005 19.992996,2 17.5,2 Z" />
</svg>
