<?xml version="1.0" encoding="UTF-8" standalone="no"?>
<!-- Created with Inkscape (http://www.inkscape.org/) -->

<svg
   width="24"
   height="24"
   viewBox="0 0 24 24"
   version="1.1"
   id="svg5"
   inkscape:version="1.4 (e7c3feb100, 2024-10-09)"
   sodipodi:docname="org.gnome.Totem.svg"
   xmlns:inkscape="http://www.inkscape.org/namespaces/inkscape"
   xmlns:sodipodi="http://sodipodi.sourceforge.net/DTD/sodipodi-0.dtd"
   xmlns="http://www.w3.org/2000/svg"
   xmlns:svg="http://www.w3.org/2000/svg">
  <sodipodi:namedview
     id="namedview7"
     pagecolor="#ffffff"
     bordercolor="#000000"
     borderopacity="0.25"
     inkscape:showpageshadow="2"
     inkscape:pageopacity="0.0"
     inkscape:pagecheckerboard="0"
     inkscape:deskcolor="#d1d1d1"
     inkscape:document-units="px"
     showgrid="false"
     inkscape:zoom="32.75"
     inkscape:cx="12"
     inkscape:cy="12"
     inkscape:window-width="1920"
     inkscape:window-height="1011"
     inkscape:window-x="0"
     inkscape:window-y="0"
     inkscape:window-maximized="1"
     inkscape:current-layer="svg5" />
  <defs
     id="defs2" />
  <rect
     style="opacity:0.2;fill:#000000;stroke-width:1.42857;stroke-linecap:square"
     id="rect234"
     width="20"
     height="20"
     x="2"
     y="2.5"
     ry="4.5" />
  <rect
     style="fill:#4f4f4f;fill-opacity:1;stroke-width:1.42857;stroke-linecap:square"
     id="rect396"
     width="20"
     height="20"
     x="2"
     y="2"
     ry="4.5" />
  <g
     id="g1335"
     transform="matrix(0.5,0,0,0.5,0.5000001,0.49999999)">
    <path
       d="m 15.606355,10.001385 c -2.525863,-0.05937 -4.605401,1.986485 -4.605817,4.531208 v 10.467341 c -1e-6,9.75e-4 10e-7,0.0019 0,0.0029 v 10.464412 0.0029 0.0044 c -0.0075,0.456282 0.06559,0.903484 0.200698,1.330209 v 0.0029 c 0.0095,0.02842 0.01926,0.05674 0.0293,0.08497 0.02955,0.08693 0.05892,0.174409 0.09376,0.259302 0.04746,0.116907 0.09976,0.231765 0.156751,0.344273 0.439106,0.885224 1.153741,1.601418 2.034822,2.039263 0.115837,0.05834 0.23412,0.111618 0.354519,0.159684 4.13e-4,1.65e-4 10e-4,-1.65e-4 0.0015,0 0.272634,0.108785 0.555987,0.190131 0.848209,0.238793 0.234324,0.03982 0.471411,0.06088 0.709037,0.06299 0.05267,0.0014 0.105781,0.0038 0.158215,0.0029 0.08313,-0.0026 0.166179,-0.0074 0.249043,-0.01465 0.05329,-0.0044 0.1067,-0.0066 0.159679,-0.01319 0.61771,-0.06794 1.214761,-0.263966 1.753552,-0.57574 l 9.000682,-5.234268 c 0.0098,-0.0063 0.01955,-0.01265 0.02929,-0.01904 l 8.971389,-5.218302 c 1.473494,-0.857523 2.340785,-2.47877 2.241381,-4.189867 -0.02557,-0.576548 -0.159987,-1.148 -0.420442,-1.675947 -0.191209,-0.439891 -0.465276,-0.821741 -0.788146,-1.158806 -0.0049,-0.0049 -0.0098,-0.0098 -0.01465,-0.01465 -0.07341,-0.07596 -0.148745,-0.150022 -0.227068,-0.221215 -0.170347,-0.157962 -0.352543,-0.302448 -0.544965,-0.432172 -0.259228,-0.183366 -0.528677,-0.352 -0.807191,-0.499561 -0.0196,-0.0078 -0.04037,-0.01161 -0.06006,-0.01904 L 17.751049,10.606425 C 17.097767,10.22696 16.36029,10.01891 15.606355,10.001385 Z"
       style="opacity:0.2;fill:#000000;fill-rule:evenodd"
       id="path360" />
    <path
       d="m 15.607025,19.467479 c -2.525963,-0.05964 -4.605686,1.986268 -4.60594,4.531041 v 10.466492 c 6.22e-4,3.488508 3.749862,5.668746 6.749867,3.925146 l 8.999821,-5.234095 c 2.999252,-1.744859 2.999252,-6.105151 0,-7.85001 l -8.999821,-5.232679 c -0.652969,-0.379649 -1.390175,-0.587991 -2.143927,-0.605895 z"
       style="overflow:visible;fill:#3391d9;fill-rule:evenodd"
       id="path472" />
    <path
       d="m 15.605974,9.0012714 c -2.525743,-0.05963 -4.605371,1.9859246 -4.60594,4.5304756 v 20.93298 h 8.999822 V 21.381756 L 31.249633,27.923383 35.749545,20.073374 17.749901,9.6068844 c -0.652995,-0.379551 -1.3902,-0.587795 -2.143927,-0.605613 z"
       style="overflow:visible;fill:#9c5ac9;fill-rule:evenodd"
       id="path556" />
    <path
       d="m 24.606847,14.234517 c -2.525743,-0.05963 -4.605371,1.985924 -4.60594,4.530475 v 10.466491 c 8.38e-4,3.488382 3.74997,5.6684 6.749866,3.924863 l 8.999823,-5.232962 c 2.999252,-1.744859 2.999252,-6.105151 0,-7.85001 l -8.999823,-5.233245 c -0.652995,-0.37955 -1.390199,-0.587794 -2.143926,-0.605612 z"
       style="overflow:visible;fill:#3391d9;fill-rule:evenodd"
       id="path500" />
    <path
       d="m 26.642214,33.213565 c 3.041659,-1.753668 6.071505,-3.528298 9.108382,-5.290181 1.982492,-1.103868 2.829319,-3.80476 1.820214,-5.850188 -0.461241,-1.061095 -1.388223,-1.800406 -2.382141,-2.326988 -2.402389,-0.95034 -5.489047,0.512985 -6.047598,3.145896 -0.163685,0.354642 -0.143435,0.725714 -0.14006,1.121712 -0.01322,1.889918 0.02728,3.781534 -0.02306,5.670318 -0.13781,1.471257 -1.040604,2.834875 -2.335735,3.529431 z"
       style="overflow:visible;fill:#41caba;fill-rule:evenodd"
       id="path528" />
    <path
       d="m 11.005613,13.713572 c -0.01125,3.429156 -0.0014,6.85888 -0.0048,10.288036 V 34.4681 c 6.22e-4,3.488508 3.749862,5.668746 6.749867,3.925146 l 8.999821,-5.233812 c 2.998928,-1.744922 2.998928,-6.104805 0,-7.849727 L 17.75068,20.076462 c -0.107686,-0.06139 -0.21784,-0.118278 -0.330182,-0.170523 -1.51647,-0.889156 -3.052064,-1.746587 -4.54716,-2.67115 -1.120477,-0.801629 -1.824433,-2.14117 -1.867463,-3.521217 z"
       style="overflow:visible;opacity:0.2;fill:#ffffff;fill-rule:evenodd"
       id="path416" />
    <path
       d="m 11.006399,23.875302 c -0.01265,3.529431 -0.002,7.059712 -0.0056,10.58971 -0.04162,2.280817 1.857339,4.369866 4.120512,4.512629 1.142978,0.128318 2.242081,-0.310737 3.192124,-0.914366 2.018209,-1.620252 2.303392,-5.04431 0.318649,-6.847832 -0.223308,-0.320085 -0.552363,-0.488059 -0.894356,-0.682943 -1.618561,-0.956572 -3.265248,-1.866689 -4.864404,-2.85527 -1.196132,-0.856014 -1.917243,-2.325289 -1.8669,-3.801928 z"
       style="overflow:visible;fill:#f7d838;fill-rule:evenodd"
       id="path388" />
    <path
       d="M 15.605503,9.0019804 C 13.07976,8.9428104 11.000431,10.988631 11.000034,13.53323 v 1 c 3.97e-4,-2.544599 2.079726,-4.5904176 4.605469,-4.53125 0.754412,0.01676 1.492533,0.224293 2.146484,0.603516 L 35.12894,20.712918 c 0.01969,0.0074 0.04095,0.01173 0.06055,0.01953 0.278514,0.147561 0.547413,0.316634 0.806641,0.5 0.193062,0.129473 0.375898,0.273782 0.546875,0.43164 0.07832,0.07119 0.153152,0.144744 0.226562,0.220704 0.0046,0.0052 0.0091,0.01041 0.01367,0.01563 0.32287,0.337065 0.597854,0.718312 0.789063,1.158203 0.229522,0.465245 0.345094,0.966126 0.390625,1.472656 0.03299,-0.264243 0.04279,-0.530899 0.0293,-0.796875 -0.02557,-0.576548 -0.159467,-1.147834 -0.419922,-1.675781 -0.191209,-0.439891 -0.466193,-0.821138 -0.789063,-1.158203 -0.0045,-0.0052 -0.0091,-0.01043 -0.01367,-0.01563 -0.07341,-0.07596 -0.148239,-0.149511 -0.226562,-0.220704 -0.170977,-0.157858 -0.353813,-0.302167 -0.546875,-0.43164 -0.259228,-0.183366 -0.528127,-0.352439 -0.806641,-0.5 -0.0196,-0.0078 -0.04086,-0.0121 -0.06055,-0.01953 L 17.751987,9.6054964 c -0.653951,-0.379223 -1.392072,-0.586756 -2.146484,-0.603516 z"
       style="opacity:0.2;fill:#ffffff;fill-rule:evenodd"
       id="path444" />
  </g>
  <path
     id="path1040"
     style="opacity:0.1;fill:#ffffff;stroke-width:4;stroke-linecap:square"
     d="M 6.5,2 C 4.007005,2 2,4.007005 2,6.5 V 7 C 2,4.507005 4.007005,2.5 6.5,2.5 h 11 C 19.992996,2.5 22,4.507005 22,7 V 6.5 C 22,4.007005 19.992996,2 17.5,2 Z" />
</svg>
