<?xml version="1.0" encoding="UTF-8" standalone="no"?>
<!-- Created with Inkscape (http://www.inkscape.org/) -->

<svg
   width="24"
   height="24"
   viewBox="0 0 24 24"
   version="1.1"
   id="svg5"
   inkscape:version="1.4 (e7c3feb100, 2024-10-09)"
   sodipodi:docname="sound-recorder.svg"
   xmlns:inkscape="http://www.inkscape.org/namespaces/inkscape"
   xmlns:sodipodi="http://sodipodi.sourceforge.net/DTD/sodipodi-0.dtd"
   xmlns="http://www.w3.org/2000/svg"
   xmlns:svg="http://www.w3.org/2000/svg">
  <sodipodi:namedview
     id="namedview7"
     pagecolor="#ffffff"
     bordercolor="#000000"
     borderopacity="0.25"
     inkscape:showpageshadow="2"
     inkscape:pageopacity="0.0"
     inkscape:pagecheckerboard="0"
     inkscape:deskcolor="#d1d1d1"
     inkscape:document-units="px"
     showgrid="false"
     inkscape:zoom="32.75"
     inkscape:cx="12"
     inkscape:cy="12"
     inkscape:window-width="1920"
     inkscape:window-height="1011"
     inkscape:window-x="0"
     inkscape:window-y="0"
     inkscape:window-maximized="1"
     inkscape:current-layer="svg5" />
  <defs
     id="defs2" />
  <rect
     style="opacity:0.2;fill:#000000;stroke-width:1.42857;stroke-linecap:square"
     id="rect234"
     width="20"
     height="20"
     x="2"
     y="2.5"
     ry="4.5" />
  <rect
     style="fill:#4f4f4f;fill-opacity:1;stroke-width:1.42857;stroke-linecap:square"
     id="rect396"
     width="20"
     height="20"
     x="2"
     y="2"
     ry="4.5" />
  <path
     id="rect1"
     style="opacity:0.2;fill:#000000;stroke-linecap:round;stroke-linejoin:round"
     d="M 4,13.5 V 14 c 0,0.277 0.2230009,0.5 0.5,0.5 C 4.7769991,14.5 5,14.277 5,14 V 13.5 C 5,13.777 4.7769991,14 4.5,14 4.2230009,14 4,13.777 4,13.5 Z m 15,0 V 14 c 0,0.277 0.223,0.5 0.5,0.5 0.277,0 0.5,-0.223 0.5,-0.5 V 13.5 C 20,13.777 19.777,14 19.5,14 19.223,14 19,13.777 19,13.5 Z m -6,1 V 15 c 0,0.277 0.223,0.5 0.5,0.5 0.277,0 0.5,-0.223 0.5,-0.5 V 14.5 C 14,14.777 13.777,15 13.5,15 13.223,15 13,14.777 13,14.5 Z m -6,1 V 16 c 0,0.277 0.2230015,0.5 0.5,0.5 C 7.7769985,16.5 8,16.277 8,16 V 15.5 C 8,15.777 7.7769991,16 7.5,16 7.2230009,16 7,15.777 7,15.5 Z m 9,1 V 17 c 0,0.277 0.223,0.5 0.5,0.5 0.277,0 0.5,-0.223 0.5,-0.5 V 16.5 C 17,16.777 16.777,17 16.5,17 16.223,17 16,16.777 16,16.5 Z m -6,2 V 19 c 0,0.277 0.223001,0.5 0.5,0.5 0.276999,0 0.5,-0.223 0.5,-0.5 V 18.5 C 11,18.777 10.777,19 10.5,19 10.223,19 10,18.777 10,18.5 Z" />
  <path
     id="rect2"
     style="opacity:1;fill:#ffb8b7;fill-opacity:1;stroke-linecap:round;stroke-linejoin:round"
     d="M 7.5,9 C 7.2230003,9 7,9.2230003 7,9.5 v 6 C 7,15.777 7.2230003,16 7.5,16 7.7769997,16 8,15.777 8,15.5 v -6 C 8,9.2230003 7.7769997,9 7.5,9 Z m 6,1 C 13.223,10 13,10.223 13,10.5 v 4 c 0,0.277 0.223,0.5 0.5,0.5 0.277,0 0.5,-0.223 0.5,-0.5 v -4 C 14,10.223 13.777,10 13.5,10 Z m 6,1 C 19.223,11 19,11.223 19,11.5 v 2 c 0,0.277 0.223,0.5 0.5,0.5 0.277,0 0.5,-0.223 0.5,-0.5 v -2 C 20,11.223 19.777,11 19.5,11 Z" />
  <path
     id="rect3"
     style="fill:#ff4e4a;fill-opacity:1;stroke-linecap:round;stroke-linejoin:round"
     d="M 10.5,6 C 10.223,6 10,6.2230003 10,6.5 v 12 c 0,0.277 0.223,0.5 0.5,0.5 0.277,0 0.5,-0.223 0.5,-0.5 V 6.5 C 11,6.2230003 10.777,6 10.5,6 Z m 6,2 C 16.223,8 16,8.2230003 16,8.5 v 8 c 0,0.277 0.223,0.5 0.5,0.5 0.277,0 0.5,-0.223 0.5,-0.5 v -8 C 17,8.2230003 16.777,8 16.5,8 Z m -12,3 C 4.2230003,11 4,11.223 4,11.5 v 2 C 4,13.777 4.2230003,14 4.5,14 4.7769997,14 5,13.777 5,13.5 v -2 C 5,11.223 4.7769997,11 4.5,11 Z" />
  <path
     id="path1040"
     style="opacity:0.1;fill:#ffffff;stroke-width:4;stroke-linecap:square"
     d="M 6.5,2 C 4.007005,2 2,4.007005 2,6.5 V 7 C 2,4.507005 4.007005,2.5 6.5,2.5 h 11 C 19.992996,2.5 22,4.507005 22,7 V 6.5 C 22,4.007005 19.992996,2 17.5,2 Z" />
</svg>
