<?xml version="1.0" encoding="UTF-8" standalone="no"?>
<svg
   width="16px"
   height="16px"
   version="1.1"
   viewBox="0 0 16 16"
   id="svg1"
   sodipodi:docname="emoji-travel-symbolic.svg"
   inkscape:version="1.4.3 (0d15f75042, 2025-12-25)"
   xmlns:inkscape="http://www.inkscape.org/namespaces/inkscape"
   xmlns:sodipodi="http://sodipodi.sourceforge.net/DTD/sodipodi-0.dtd"
   xmlns="http://www.w3.org/2000/svg"
   xmlns:svg="http://www.w3.org/2000/svg">
  <defs
     id="defs1">
     <style
        id="current-color-scheme"
        type="text/css">
        .ColorScheme-Text { color:#4d4d4d; } .ColorScheme-Highlight { color:#4285f4; } .ColorScheme-NeutralText { color:#ff9800; } .ColorScheme-PositiveText { color:#4caf50; } .ColorScheme-NegativeText { color:#f44336; }
     </style>
  </defs>
  <sodipodi:namedview
     id="namedview1"
     pagecolor="#ffffff"
     bordercolor="#000000"
     borderopacity="0.25"
     inkscape:showpageshadow="2"
     inkscape:pageopacity="0.0"
     inkscape:pagecheckerboard="0"
     inkscape:deskcolor="#d1d1d1"
     inkscape:zoom="50.4375"
     inkscape:cx="7.9900867"
     inkscape:cy="8"
     inkscape:window-width="1920"
     inkscape:window-height="1010"
     inkscape:window-x="0"
     inkscape:window-y="0"
     inkscape:window-maximized="1"
     inkscape:current-layer="svg1" />
  <path
     id="path1"
     style="fill:currentColor"
     class="ColorScheme-Text"
     d="M 3.0351562 1 C 2.5742163 1 2.17578 1.3125025 2.0625 1.7578125 L 1.0625 5.7578125 C 1.042969 5.8359385 1.0351562 5.91797 1.0351562 6 L 1.0351562 6.0390625 C 0.46874625 6.1328125 0.03515625 6.6016125 0.03515625 7.1953125 L 0.03515625 11.808594 C 0.03515625 12.398434 0.46874625 12.867238 1.0351562 12.960938 L 1.0351562 14.5 C 1.0351562 14.77734 1.2578163 15 1.5351562 15 L 3.5351562 15 C 3.8124963 15 4.0351562 14.77734 4.0351562 14.5 L 4.0351562 13 L 12.035156 13 L 12.035156 14.5 C 12.035156 14.77734 12.257816 15 12.535156 15 L 14.535156 15 C 14.812496 15 15.035156 14.77734 15.035156 14.5 L 15.035156 12.960938 C 15.597656 12.867188 16.035156 12.398388 16.035156 11.804688 L 16.035156 7.1953125 C 16.035156 6.6015625 15.597656 6.1327625 15.035156 6.0390625 L 15.035156 6 C 15.035156 5.917969 15.023438 5.8359425 15.003906 5.7578125 L 14.003906 1.7578125 C 13.894526 1.3125025 13.492186 1 13.035156 1 L 3.0351562 1 z M 3.8164062 3 L 12.253906 3 L 13.003906 6 L 3.0664062 6 L 3.8164062 3 z M 3.5351562 8 C 4.3632763 8 5.0351562 8.67188 5.0351562 9.5 C 5.0351562 10.32812 4.3632763 11 3.5351562 11 C 2.7070362 11 2.0351562 10.32812 2.0351562 9.5 C 2.0351562 8.67188 2.7070362 8 3.5351562 8 z M 12.535156 8 C 13.363276 8 14.035156 8.67188 14.035156 9.5 C 14.035156 10.32812 13.363276 11 12.535156 11 C 11.707036 11 11.035156 10.32812 11.035156 9.5 C 11.035156 8.67188 11.707036 8 12.535156 8 z " />
</svg>
