<?xml version="1.0" encoding="UTF-8" standalone="no"?>
<svg
   width="16px"
   height="16px"
   version="1.1"
   viewBox="0 0 16 16"
   id="svg2"
   sodipodi:docname="emoji-food-symbolic.svg"
   inkscape:version="1.4.3 (0d15f75042, 2025-12-25)"
   xmlns:inkscape="http://www.inkscape.org/namespaces/inkscape"
   xmlns:sodipodi="http://sodipodi.sourceforge.net/DTD/sodipodi-0.dtd"
   xmlns="http://www.w3.org/2000/svg"
   xmlns:svg="http://www.w3.org/2000/svg">
  <defs
     id="defs2">
     <style
        id="current-color-scheme"
        type="text/css">
        .ColorScheme-Text { color:#4d4d4d; } .ColorScheme-Highlight { color:#4285f4; } .ColorScheme-NeutralText { color:#ff9800; } .ColorScheme-PositiveText { color:#4caf50; } .ColorScheme-NegativeText { color:#f44336; }
     </style>
  </defs>
  <sodipodi:namedview
     id="namedview2"
     pagecolor="#ffffff"
     bordercolor="#000000"
     borderopacity="0.25"
     inkscape:showpageshadow="2"
     inkscape:pageopacity="0.0"
     inkscape:pagecheckerboard="0"
     inkscape:deskcolor="#d1d1d1"
     inkscape:zoom="50.4375"
     inkscape:cx="7.9900867"
     inkscape:cy="8"
     inkscape:window-width="1920"
     inkscape:window-height="1010"
     inkscape:window-x="0"
     inkscape:window-y="0"
     inkscape:window-maximized="1"
     inkscape:current-layer="svg2" />
  <path
     id="path1"
     style="fill:currentColor;paint-order:stroke fill markers"
     class="ColorScheme-Text"
     d="M 0 0 L 0 4 C 0 5.8704539 1.2710112 7.4331366 3 7.875 L 3 16 L 5 16 L 5 7.875 C 6.7289888 7.4331366 8 5.8704539 8 4 L 8 0 L 6 0 L 6 4 C 6 4.7432125 5.598661 5.38955 5 5.734375 L 5 0 L 3 0 L 3 5.734375 C 2.401339 5.38955 2 4.7432125 2 4 L 2 0 L 0 0 z M 13.867188 0 C 12.476186 1.4532 10.2671 4.5847 10 10 L 13 10 L 13 16 L 15 16 L 15 10 L 15 0 L 13.867188 0 z " />
</svg>
