<?xml version="1.0" encoding="UTF-8" standalone="no"?>
<!-- Created with Inkscape (http://www.inkscape.org/) -->

<svg
   width="256"
   height="256"
   viewBox="0 0 256 256"
   version="1.1"
   id="svg5"
   inkscape:version="1.2.2 (1:1.2.2+202305151914+b0a8486541)"
   sodipodi:docname="computer.svg"
   xmlns:inkscape="http://www.inkscape.org/namespaces/inkscape"
   xmlns:sodipodi="http://sodipodi.sourceforge.net/DTD/sodipodi-0.dtd"
   xmlns="http://www.w3.org/2000/svg"
   xmlns:svg="http://www.w3.org/2000/svg">
  <sodipodi:namedview
     id="namedview7"
     pagecolor="#ffffff"
     bordercolor="#000000"
     borderopacity="0.25"
     inkscape:showpageshadow="2"
     inkscape:pageopacity="0.0"
     inkscape:pagecheckerboard="0"
     inkscape:deskcolor="#d1d1d1"
     inkscape:document-units="px"
     showgrid="false"
     inkscape:zoom="3.1484375"
     inkscape:cx="128"
     inkscape:cy="128"
     inkscape:window-width="1920"
     inkscape:window-height="1008"
     inkscape:window-x="0"
     inkscape:window-y="0"
     inkscape:window-maximized="1"
     inkscape:current-layer="svg5" />
  <defs
     id="defs2" />
  <rect
     style="opacity:0.2;stroke-width:4"
     width="127.99992"
     height="167.99989"
     x="64.000191"
     y="57.999989"
     rx="9.9999933"
     ry="9.9999933"
     id="rect2" />
  <rect
     style="fill:#8e8e8e;fill-opacity:1;stroke-width:7.99999;stroke-linecap:square"
     id="rect1174"
     width="127.99998"
     height="79.999947"
     x="64.00013"
     y="143.99992"
     ry="7.9999948" />
  <rect
     style="opacity:0.2;stroke-width:4"
     width="207.99986"
     height="159.99989"
     x="24.000221"
     y="42"
     rx="9.9999933"
     ry="9.9999933"
     id="rect6" />
  <path
     d="M 32.000075,40 H 224.00002 c 4.432,0 8,3.567998 8,7.999995 l 8e-5,131.999905 H 24.00012 l -4e-5,-131.999905 C 24.00008,43.567998 27.568078,40 32.000075,40 Z"
     style="fill:#333333;stroke-width:7.99999;stroke-linecap:square"
     id="path839" />
  <path
     d="M 31.999995,199.99993 H 223.99994 c 4.432,0 8,-3.568 8,-7.99999 l 4e-5,-11.99996 H 24.00004 L 24,191.99994 c 0,4.43199 3.567998,7.99999 7.999995,7.99999 z"
     style="fill:#595959;fill-opacity:1;stroke-width:7.99999;stroke-linecap:square"
     id="path895" />
  <rect
     style="opacity:0.1;fill:#ffffff;fill-opacity:1;stroke-width:5.65684;stroke-linecap:square"
     id="rect1491"
     width="207.99982"
     height="1.9999987"
     x="24.00016"
     y="179.99991" />
  <path
     id="path1553"
     style="opacity:0.1;fill:#ffffff;stroke-width:7.99999;stroke-linecap:square"
     d="m 32.000155,40 c -4.431993,0 -7.999995,3.568002 -7.999995,7.999995 v 1.999998 c 0,-4.431993 3.568002,-7.999994 7.999995,-7.999994 H 224.00002 c 4.432,0 8,3.568001 8,7.999994 v -1.999998 c 0,-4.431993 -3.568,-7.999995 -8,-7.999995 z" />
  <rect
     style="opacity:0.2;fill:#000000;fill-opacity:1;stroke-width:16;stroke-linecap:round;stroke-linejoin:round"
     id="rect3855"
     width="135.99983"
     height="87.999893"
     x="112.00017"
     y="153.99992"
     ry="7.9999905" />
  <rect
     style="fill:#adadad;fill-opacity:1;stroke-width:16;stroke-linecap:round;stroke-linejoin:round"
     id="rect2948"
     width="135.99983"
     height="87.999893"
     x="112.00017"
     y="151.99992"
     ry="7.9999905" />
  <path
     d="m 132.00015,165.99993 c -4.41827,0 -7.99998,3.5817 -7.99998,7.99998 0,4.41828 3.58171,7.99999 7.99998,7.99999 4.41828,0 7.99999,-3.58171 7.99999,-7.99999 0,-4.41826 -3.58171,-7.99998 -7.99999,-7.99998 z m 23.99998,0 c -4.41828,0 -7.99999,3.5817 -7.99999,7.99998 0,4.41828 3.58171,7.99999 7.99999,7.99999 4.41827,0 7.99998,-3.58171 7.99998,-7.99999 0,-4.41826 -3.58171,-7.99998 -7.99998,-7.99998 z m 23.99996,0 c -4.41827,0 -7.99998,3.5817 -7.99998,7.99998 0,4.41828 3.58171,7.99999 7.99998,7.99999 4.41828,0 8,-3.58171 8,-7.99999 0,-4.41826 -3.58172,-7.99998 -8,-7.99998 z m 23.99997,0 c -4.41828,0 -7.99998,3.5817 -7.99998,7.99998 0,4.41828 3.5817,7.99999 7.99998,7.99999 4.41827,0 7.99999,-3.58171 7.99999,-7.99999 0,-4.41826 -3.58172,-7.99998 -7.99999,-7.99998 z m 23.99998,0 c -4.41828,0 -7.99999,3.5817 -7.99999,7.99998 0,4.41828 3.58171,7.99999 7.99999,7.99999 4.41828,0 8,-3.58171 8,-7.99999 0,-4.41826 -3.58172,-7.99998 -8,-7.99998 z m -83.9999,23.99997 c -4.41827,0 -7.99999,3.58172 -7.99999,7.99999 0,4.41828 3.58172,7.99998 7.99999,7.99998 4.41828,0 7.99999,-3.5817 7.99999,-7.99998 0,-4.41827 -3.58171,-7.99999 -7.99999,-7.99999 z m 23.99997,0 c -4.41827,0 -7.99999,3.58172 -7.99999,7.99999 0,4.41828 3.58172,7.99998 7.99999,7.99998 4.41827,0 7.99999,-3.5817 7.99999,-7.99998 0,-4.41827 -3.58172,-7.99999 -7.99999,-7.99999 z m 23.99998,0 c -4.41828,0 -8,3.58172 -8,7.99999 0,4.41828 3.58172,7.99998 8,7.99998 4.41827,0 7.99999,-3.5817 7.99999,-7.99998 0,-4.41827 -3.58172,-7.99999 -7.99999,-7.99999 z m 23.99996,0 c -4.41828,0 -8,3.58172 -8,7.99999 0,4.41828 3.58172,7.99998 8,7.99998 4.41828,0 7.99999,-3.5817 7.99999,-7.99998 0,-4.41827 -3.58171,-7.99999 -7.99999,-7.99999 z m -79.9999,23.99996 c -2.216,0 -4,1.784 -4,4 v 7.99999 c 0,2.216 1.784,4 4,4 h 87.99989 c 2.216,0 4,-1.784 4,-4 v -7.99999 c 0,-2.216 -1.784,-4 -4,-4 z"
     style="opacity:0.2;fill:#000000;fill-opacity:1;stroke-width:16;stroke-linecap:round;stroke-linejoin:round"
     id="path3947" />
  <path
     id="path3002"
     style="fill:#e8e8e8;fill-opacity:1;stroke-width:16;stroke-linecap:round;stroke-linejoin:round"
     d="m 132.00015,163.99992 c -4.41827,0 -7.99998,3.58171 -7.99998,7.99999 0,4.41826 3.58171,7.99997 7.99998,7.99997 4.41828,0 7.99999,-3.58169 7.99999,-7.99997 0,-4.41828 -3.58171,-7.99999 -7.99999,-7.99999 z m 23.99998,0 c -4.41828,0 -7.99999,3.58171 -7.99999,7.99999 0,4.41826 3.58171,7.99997 7.99999,7.99997 4.41827,0 7.99998,-3.58169 7.99998,-7.99997 0,-4.41828 -3.58171,-7.99999 -7.99998,-7.99999 z m 23.99996,0 c -4.41827,0 -7.99998,3.58171 -7.99998,7.99999 0,4.41826 3.58171,7.99997 7.99998,7.99997 4.41828,0 8,-3.58169 8,-7.99997 0,-4.41828 -3.58172,-7.99999 -8,-7.99999 z m 23.99997,0 c -4.41828,0 -7.99998,3.58171 -7.99998,7.99999 0,4.41826 3.5817,7.99997 7.99998,7.99997 4.41827,0 7.99999,-3.58169 7.99999,-7.99997 0,-4.41828 -3.58172,-7.99999 -7.99999,-7.99999 z m 23.99998,0 c -4.41828,0 -7.99999,3.58171 -7.99999,7.99999 0,4.41826 3.58171,7.99997 7.99999,7.99997 4.41828,0 8,-3.58169 8,-7.99997 0,-4.41828 -3.58172,-7.99999 -8,-7.99999 z m -83.9999,23.99996 c -4.41827,0 -7.99999,3.58172 -7.99999,7.99999 0,4.41828 3.58172,8 7.99999,8 4.41828,0 7.99999,-3.58172 7.99999,-8 0,-4.41827 -3.58171,-7.99999 -7.99999,-7.99999 z m 23.99997,0 c -4.41827,0 -7.99999,3.58172 -7.99999,7.99999 0,4.41828 3.58172,8 7.99999,8 4.41827,0 7.99999,-3.58172 7.99999,-8 0,-4.41827 -3.58172,-7.99999 -7.99999,-7.99999 z m 23.99998,0 c -4.41828,0 -8,3.58172 -8,7.99999 0,4.41828 3.58172,8 8,8 4.41827,0 7.99999,-3.58172 7.99999,-8 0,-4.41827 -3.58172,-7.99999 -7.99999,-7.99999 z m 23.99996,0 c -4.41828,0 -8,3.58172 -8,7.99999 0,4.41828 3.58172,8 8,8 4.41828,0 7.99999,-3.58172 7.99999,-8 0,-4.41827 -3.58171,-7.99999 -7.99999,-7.99999 z m -79.9999,23.99998 c -2.216,0 -4,1.78398 -4,3.99998 v 7.99999 c 0,2.216 1.784,4 4,4 h 87.99989 c 2.216,0 4,-1.784 4,-4 v -7.99999 c 0,-2.216 -1.784,-3.99998 -4,-3.99998 z"
     sodipodi:nodetypes="ssssssssssssssssssssssssssssssssssssssssssssssssssssss" />
  <path
     id="rect3909"
     style="opacity:0.2;fill:#ffffff;fill-opacity:1;stroke-width:16;stroke-linecap:round;stroke-linejoin:round"
     d="m 120.00009,151.99993 c -4.43199,0 -7.99999,3.568 -7.99999,7.99999 v 2 c 0,-4.43199 3.568,-7.99999 7.99999,-7.99999 h 119.99984 c 4.432,0 8,3.568 8,7.99999 v -2 c 0,-4.43199 -3.568,-7.99999 -8,-7.99999 z" />
</svg>
