<?xml version="1.0" encoding="UTF-8" standalone="no"?>
<svg
   width="256"
   height="256"
   version="1"
   id="svg7"
   sodipodi:docname="media-floppy.svg"
   inkscape:version="1.3.2 (091e20ef0f, 2023-11-25, custom)"
   xmlns:inkscape="http://www.inkscape.org/namespaces/inkscape"
   xmlns:sodipodi="http://sodipodi.sourceforge.net/DTD/sodipodi-0.dtd"
   xmlns="http://www.w3.org/2000/svg"
   xmlns:svg="http://www.w3.org/2000/svg">
  <defs
     id="defs7" />
  <sodipodi:namedview
     id="namedview7"
     pagecolor="#ffffff"
     bordercolor="#000000"
     borderopacity="0.25"
     inkscape:showpageshadow="2"
     inkscape:pageopacity="0.0"
     inkscape:pagecheckerboard="0"
     inkscape:deskcolor="#d1d1d1"
     inkscape:zoom="2.8476562"
     inkscape:cx="127.82442"
     inkscape:cy="128"
     inkscape:window-width="1920"
     inkscape:window-height="942"
     inkscape:window-x="0"
     inkscape:window-y="32"
     inkscape:window-maximized="1"
     inkscape:current-layer="svg7" />
  <rect
     style="opacity:0.2;fill:#000000;stroke-width:8"
     width="208"
     height="208"
     x="-234"
     y="-232"
     ry="10"
     transform="matrix(0,-1,-1,0,0,0)"
     id="rect1" />
  <rect
     style="fill:#4f4f4f;stroke-width:8"
     width="208"
     height="208"
     x="-232"
     y="-232"
     ry="10"
     transform="matrix(0,-1,-1,0,0,0)"
     id="rect2" />
  <rect
     style="opacity:0.2;fill:#000000;stroke-width:8"
     width="160"
     height="96"
     x="48"
     y="122"
     ry="10"
     id="rect3" />
  <rect
     style="fill:#ffffff;stroke-width:8"
     width="160"
     height="96"
     x="48"
     y="120"
     ry="10"
     id="rect4" />
  <path
     style="fill:#ffae3f;stroke-width:8"
     d="m 48,192 v 14 c 0,5.536 4.46,10 10,10 h 140 c 5.536,0 10,-4.464 10,-10 v -14 z"
     id="path4" />
  <path
     style="opacity:0.2;fill:#000000;stroke-width:8"
     d="m 80,26 v 70 c 0,5.544 4.456,10 10,10 h 108 c 5.536,0 10,-4.456 10,-10 V 26 Z m 80,16 h 24 c 4.432,0 8,3.568 8,8 v 32 c 0,4.432 -3.568,8 -8,8 h -24 c -4.432,0 -8,-3.568 -8,-8 V 50 c 0,-4.432 3.568,-8 8,-8 z"
     id="path5" />
  <path
     style="fill:#b7b7b7;stroke-width:8"
     d="m 80,24 v 70 c 0,5.544 4.456,10 10,10 h 108 c 5.536,0 10,-4.456 10,-10 V 24 Z m 80,16 h 24 c 4.432,0 8,3.568 8,8 v 32 c 0,4.432 -3.568,8 -8,8 h -24 c -4.432,0 -8,-3.568 -8,-8 V 48 c 0,-4.432 3.568,-8 8,-8 z"
     id="path6" />
  <path
     id="path7"
     style="opacity:0.1;fill:#ffffff;stroke-width:8"
     d="m 34,24 c -5.539992,0 -10,4.460008 -10,10 v 2 c 0,-5.539992 4.460008,-10 10,-10 h 188 c 5.53598,0 10,4.460008 10,10 v -2 c 0,-5.539992 -4.46402,-10 -10,-10 z" />
</svg>
