<?xml version="1.0" encoding="UTF-8" standalone="no"?>
<!-- Created with Inkscape (http://www.inkscape.org/) -->

<svg
   width="256"
   height="256"
   viewBox="0 0 256 256"
   version="1.1"
   id="svg5"
   inkscape:version="1.2.2 (1:1.2.2+202305151914+b0a8486541)"
   sodipodi:docname="network-wired.svg"
   xmlns:inkscape="http://www.inkscape.org/namespaces/inkscape"
   xmlns:sodipodi="http://sodipodi.sourceforge.net/DTD/sodipodi-0.dtd"
   xmlns="http://www.w3.org/2000/svg"
   xmlns:svg="http://www.w3.org/2000/svg">
  <sodipodi:namedview
     id="namedview7"
     pagecolor="#ffffff"
     bordercolor="#000000"
     borderopacity="0.25"
     inkscape:showpageshadow="2"
     inkscape:pageopacity="0.0"
     inkscape:pagecheckerboard="0"
     inkscape:deskcolor="#d1d1d1"
     inkscape:document-units="px"
     showgrid="false"
     inkscape:zoom="3.1484375"
     inkscape:cx="128"
     inkscape:cy="128"
     inkscape:window-width="1920"
     inkscape:window-height="1008"
     inkscape:window-x="0"
     inkscape:window-y="0"
     inkscape:window-maximized="1"
     inkscape:current-layer="svg5" />
  <defs
     id="defs2" />
  <path
     style="opacity:0.2;stroke-width:4"
     d="M 80,226 64,210 H 32 c -8.864,0 -16,-7.136 -16,-16 V 50 c 0,-8.864 7.136,-16 16,-16 h 192 c 8.864,0 16,7.136 16,16 v 144 c 0,8.864 -7.136,16 -16,16 h -32 l -16,16 z"
     id="path3014" />
  <path
     style="fill:#e4e4e4;fill-opacity:1;stroke-width:4"
     d="M 80,224 64,208 H 32 c -8.864,0 -16,-7.136 -16,-16 V 48 c 0,-8.864 7.136,-16 16,-16 h 192 c 8.864,0 16,7.136 16,16 v 144 c 0,8.864 -7.136,16 -16,16 h -32 l -16,16 z"
     id="path3016" />
  <path
     style="fill:#5d5d5d;fill-opacity:1;stroke-width:4"
     d="M 96,192 80,176 H 48 V 64 h 160 v 112 h -32 l -16,16 z"
     id="path3018" />
  <path
     id="rect3020"
     style="fill:#f8c44e;stroke-width:4"
     d="m 72.00008,64 v 32 h 16 V 64 Z m 24,0 v 32 h 16 V 64 Z m 24,0 v 32 h 16 V 64 Z m 24,0 v 32 h 16 V 64 Z m 24,0 v 32 h 16 V 64 Z" />
  <path
     id="path3032"
     style="opacity:0.2;fill:#ffffff;stroke-width:4"
     d="m 32,32 c -8.863992,0 -16,7.136008 -16,16 v 2 c 0,-8.863992 7.13601,-16 16,-16 h 192 c 8.864,0 16,7.136008 16,16 v -2 c 0,-8.863992 -7.136,-16 -16,-16 z" />
  <path
     id="path3034"
     style="opacity:0.2;fill:#ffffff;stroke-width:4"
     d="m 48,176 v 2 h 32 l 16,16 h 64 l 16,-16 h 32 v -2 h -32 l -16,16 H 96 L 80,176 Z" />
</svg>
