<?xml version="1.0" encoding="UTF-8" standalone="no"?>
<!-- Created with Inkscape (http://www.inkscape.org/) -->

<svg
   width="24"
   height="24"
   viewBox="0 0 24 24"
   version="1.1"
   id="svg5"
   inkscape:version="1.3.2 (091e20ef0f, 2023-11-25, custom)"
   sodipodi:docname="1cedt.svg"
   xmlns:inkscape="http://www.inkscape.org/namespaces/inkscape"
   xmlns:sodipodi="http://sodipodi.sourceforge.net/DTD/sodipodi-0.dtd"
   xmlns="http://www.w3.org/2000/svg"
   xmlns:svg="http://www.w3.org/2000/svg">
  <sodipodi:namedview
     id="namedview7"
     pagecolor="#ffffff"
     bordercolor="#000000"
     borderopacity="0.25"
     inkscape:showpageshadow="2"
     inkscape:pageopacity="0.0"
     inkscape:pagecheckerboard="0"
     inkscape:deskcolor="#d1d1d1"
     inkscape:document-units="px"
     showgrid="false"
     inkscape:zoom="33.125"
     inkscape:cx="11.984906"
     inkscape:cy="12"
     inkscape:window-width="1920"
     inkscape:window-height="1008"
     inkscape:window-x="0"
     inkscape:window-y="0"
     inkscape:window-maximized="1"
     inkscape:current-layer="svg5" />
  <defs
     id="defs2" />
  <rect
     style="opacity:0.2;fill:#000000;stroke-width:1.42857;stroke-linecap:square"
     id="rect234"
     width="20"
     height="20"
     x="2"
     y="2.5"
     ry="4.5" />
  <rect
     style="fill:#e4e4e4;fill-opacity:1;stroke-width:1.42857;stroke-linecap:square"
     id="rect396"
     width="20"
     height="20"
     x="2"
     y="2"
     ry="4.5" />
  <rect
     style="opacity:0.1;fill:#000000;stroke-width:0.5"
     width="1.4595"
     height="4.1845002"
     x="15.909842"
     y="-2.3249083"
     transform="rotate(30)"
     id="rect2" />
  <rect
     style="opacity:0.1;fill:#000000;stroke-width:0.5"
     width="1.4595"
     height="4.1845002"
     x="15.914841"
     y="-11.975092"
     transform="matrix(0.8660254,0.5,0.5,-0.8660254,0,0)"
     id="rect3" />
  <rect
     style="fill:#0d65d7;stroke-width:0.5"
     width="1.4595"
     height="4.1845002"
     x="15.659842"
     y="-2.7549083"
     transform="rotate(30)"
     id="rect4" />
  <path
     style="opacity:0.1;fill:#000000;stroke-width:0.5"
     d="m 7.962219,9.5 -2.886719,5 2.886719,5 h 5.773437 l 2.886719,-5 -2.886719,-5 z M 8.8274535,11 h 4.0419915 l 2.020508,3.5 -2.020508,3.5 H 8.82843 L 6.8069455,14.5 Z"
     id="path4" />
  <path
     style="fill:#7f80a1;stroke-width:0.5"
     d="M 7.962219,9 5.0755,14 7.962219,19 h 5.773437 l 2.886719,-5 -2.886719,-5 z m 0.8652345,1.5 h 4.0419915 l 2.020508,3.5 -2.020508,3.5 H 8.82843 L 6.8069455,14 Z"
     id="path5" />
  <rect
     style="fill:#7f80a1;stroke-width:0.5"
     width="1.4595"
     height="4.1845002"
     x="15.664842"
     y="-11.540092"
     transform="matrix(0.8660254,0.5,0.5,-0.8660254,0,0)"
     id="rect5" />
  <path
     style="opacity:0.1;fill:#000000;stroke-width:0.5"
     d="m 10.263977,5.5 -2.886719,5 2.887696,5 h 5.77246 l 2.886719,-5 -2.885742,-5 z M 11.130188,7 h 4.041016 L 17.192688,10.5 15.17218,14 H 11.130188 L 9.10968,10.5 Z"
     id="path6" />
  <path
     style="fill:#0d65d7;stroke-width:0.5"
     d="m 10.263977,5 -2.886719,5 2.887696,5 h 5.77246 l 2.886719,-5 -2.885742,-5 z m 0.866211,1.5 h 4.041016 L 17.192688,10 15.17218,13.5 H 11.130188 L 9.10968,10 Z"
     id="path7" />
  <path
     id="path1040"
     style="opacity:0.2;fill:#ffffff;stroke-width:4;stroke-linecap:square"
     d="M 6.5,2 C 4.007005,2 2,4.007005 2,6.5 V 7 C 2,4.507005 4.007005,2.5 6.5,2.5 h 11 C 19.992996,2.5 22,4.507005 22,7 V 6.5 C 22,4.007005 19.992996,2 17.5,2 Z" />
</svg>
