<?xml version="1.0" encoding="UTF-8" standalone="no"?>
<!-- Created with Inkscape (http://www.inkscape.org/) -->

<svg
   width="24"
   height="24"
   viewBox="0 0 24 24"
   version="1.1"
   id="svg5"
   inkscape:version="1.3.2 (091e20ef0f, 2023-11-25, custom)"
   sodipodi:docname="abricotine.svg"
   xmlns:inkscape="http://www.inkscape.org/namespaces/inkscape"
   xmlns:sodipodi="http://sodipodi.sourceforge.net/DTD/sodipodi-0.dtd"
   xmlns="http://www.w3.org/2000/svg"
   xmlns:svg="http://www.w3.org/2000/svg">
  <sodipodi:namedview
     id="namedview7"
     pagecolor="#ffffff"
     bordercolor="#000000"
     borderopacity="0.25"
     inkscape:showpageshadow="2"
     inkscape:pageopacity="0.0"
     inkscape:pagecheckerboard="0"
     inkscape:deskcolor="#d1d1d1"
     inkscape:document-units="px"
     showgrid="false"
     inkscape:zoom="33.125"
     inkscape:cx="11.984906"
     inkscape:cy="12"
     inkscape:window-width="1920"
     inkscape:window-height="1008"
     inkscape:window-x="0"
     inkscape:window-y="0"
     inkscape:window-maximized="1"
     inkscape:current-layer="svg5" />
  <defs
     id="defs2" />
  <rect
     style="opacity:0.2;fill:#000000;stroke-width:1.42857;stroke-linecap:square"
     id="rect234"
     width="20"
     height="20"
     x="2"
     y="2.4999995"
     ry="4.5" />
  <rect
     style="fill:#f07826;fill-opacity:1;stroke-width:1.42857;stroke-linecap:square"
     id="rect396"
     width="20"
     height="20"
     x="2"
     y="2"
     ry="4.5" />
  <path
     style="opacity:0.2;fill:#000000;stroke-width:0.5"
     d="m 14,6 2,-1 v 14 l -2,1 z"
     id="path3" />
  <path
     fill="#ffffff"
     d="m 14,5.5 2,-1 v 14 l -2,1 z"
     id="path4"
     style="stroke-width:0.5" />
  <path
     style="opacity:0.2;fill:#000000;stroke-width:0.5"
     d="M 17.1245,7.268 18.9905,8.5 6.866,15.5 5,14.268 Z"
     id="path5" />
  <path
     fill="#ffffff"
     d="M 17.1245,6.768 18.9905,8 6.866,15 5,13.768 Z"
     id="path6"
     style="stroke-width:0.5" />
  <path
     style="opacity:0.2;fill:#000000;stroke-width:0.5"
     d="M 19.2585,16.268 19.1245,18.5 7,11.5 7.134,9.268 Z"
     id="path7" />
  <path
     fill="#ffffff"
     d="M 19.2585,15.768 19.1245,18 7,11 7.134,8.768 Z"
     id="path8"
     style="stroke-width:0.5" />
  <path
     id="path1040"
     style="opacity:0.2;fill:#ffffff;stroke-width:4;stroke-linecap:square"
     d="M 6.5,2.0000001 C 4.007005,2.0000001 2,4.0070051 2,6.5 V 7 C 2,4.5070051 4.007005,2.5000001 6.5,2.5000001 h 11 C 19.992996,2.5000001 22,4.5070051 22,7 V 6.5 C 22,4.0070052 19.992996,2.0000001 17.5,2.0000001 Z" />
</svg>
