<?xml version="1.0" encoding="UTF-8" standalone="no"?>
<!-- Created with Inkscape (http://www.inkscape.org/) -->

<svg
   width="24"
   height="24"
   viewBox="0 0 24 24"
   version="1.1"
   id="svg5"
   inkscape:version="1.3.2 (091e20ef0f, 2023-11-25, custom)"
   sodipodi:docname="accessories-camera.svg"
   xmlns:inkscape="http://www.inkscape.org/namespaces/inkscape"
   xmlns:sodipodi="http://sodipodi.sourceforge.net/DTD/sodipodi-0.dtd"
   xmlns="http://www.w3.org/2000/svg"
   xmlns:svg="http://www.w3.org/2000/svg">
  <sodipodi:namedview
     id="namedview7"
     pagecolor="#ffffff"
     bordercolor="#000000"
     borderopacity="0.25"
     inkscape:showpageshadow="2"
     inkscape:pageopacity="0.0"
     inkscape:pagecheckerboard="0"
     inkscape:deskcolor="#d1d1d1"
     inkscape:document-units="px"
     showgrid="false"
     inkscape:zoom="34.25"
     inkscape:cx="12"
     inkscape:cy="12"
     inkscape:window-width="1920"
     inkscape:window-height="1008"
     inkscape:window-x="0"
     inkscape:window-y="0"
     inkscape:window-maximized="1"
     inkscape:current-layer="svg5" />
  <defs
     id="defs2" />
  <rect
     style="opacity:0.2;fill:#000000;stroke-width:1.42857;stroke-linecap:square"
     id="rect234"
     width="20"
     height="20"
     x="2"
     y="2.5"
     ry="4.5" />
  <rect
     style="fill:#4f4f4f;fill-opacity:1;stroke-width:1.42857;stroke-linecap:square"
     id="rect396"
     width="20"
     height="20"
     x="2"
     y="2"
     ry="4.5" />
  <circle
     style="fill:#2f2f2f;fill-opacity:1;stroke-width:0.35;stroke-linecap:round;stroke-linejoin:round"
     id="path5622"
     cx="12"
     cy="12"
     r="7" />
  <circle
     style="opacity:0.2;fill:#000000;stroke-width:0.3125;stroke-linecap:round;stroke-linejoin:round"
     id="path5676"
     cx="12"
     cy="12.5"
     r="6" />
  <circle
     style="fill:#00b1c4;fill-opacity:1;stroke-width:0.3125;stroke-linecap:round;stroke-linejoin:round"
     id="path5825"
     cx="12"
     cy="12"
     r="6" />
  <circle
     style="opacity:0.2;fill:#000000;fill-opacity:1;stroke-width:0.25;stroke-linecap:round;stroke-linejoin:round"
     id="path7178"
     cx="12"
     cy="12.5"
     r="3" />
  <circle
     style="fill:#70f4ff;fill-opacity:1;stroke-width:0.375;stroke-linecap:round;stroke-linejoin:round"
     id="path7180"
     cx="12"
     cy="12"
     r="3" />
  <path
     id="path1"
     style="opacity:0.2;fill:#ffffff;fill-opacity:1;stroke-width:1.5"
     d="M 12,9 A 3,3 0 0 0 9,12 3,3 0 0 0 9.0175781,12.259766 3,3 0 0 1 12,9.5 3,3 0 0 1 14.986328,12.203125 3,3 0 0 0 15,12 3,3 0 0 0 12,9 Z" />
  <path
     id="path1040"
     style="opacity:0.1;fill:#ffffff;stroke-width:4;stroke-linecap:square"
     d="M 6.5,2 C 4.007005,2 2,4.007005 2,6.5 V 7 C 2,4.507005 4.007005,2.5 6.5,2.5 h 11 C 19.992996,2.5 22,4.507005 22,7 V 6.5 C 22,4.007005 19.992996,2 17.5,2 Z" />
</svg>
