<?xml version="1.0" encoding="UTF-8" standalone="no"?>
<!-- Created with Inkscape (http://www.inkscape.org/) -->

<svg
   width="24"
   height="24"
   viewBox="0 0 24 24"
   version="1.1"
   id="svg5"
   inkscape:version="1.3 (1:1.3+202307231459+0e150ed6c4)"
   sodipodi:docname="applications-office.svg"
   xmlns:inkscape="http://www.inkscape.org/namespaces/inkscape"
   xmlns:sodipodi="http://sodipodi.sourceforge.net/DTD/sodipodi-0.dtd"
   xmlns="http://www.w3.org/2000/svg"
   xmlns:svg="http://www.w3.org/2000/svg">
  <sodipodi:namedview
     id="namedview7"
     pagecolor="#ffffff"
     bordercolor="#000000"
     borderopacity="0.25"
     inkscape:showpageshadow="2"
     inkscape:pageopacity="0.0"
     inkscape:pagecheckerboard="0"
     inkscape:deskcolor="#d1d1d1"
     inkscape:document-units="px"
     showgrid="false"
     inkscape:zoom="29.916667"
     inkscape:cx="12"
     inkscape:cy="11.983287"
     inkscape:window-width="1920"
     inkscape:window-height="1008"
     inkscape:window-x="0"
     inkscape:window-y="0"
     inkscape:window-maximized="1"
     inkscape:current-layer="svg5" />
  <defs
     id="defs2" />
  <rect
     style="opacity:0.2;fill:#000000;stroke-width:1.42857;stroke-linecap:square"
     id="rect234"
     width="20"
     height="20"
     x="2"
     y="2.5"
     ry="4.5" />
  <rect
     style="fill:#e4e4e4;fill-opacity:1;stroke-width:1.42857;stroke-linecap:square"
     id="rect396"
     width="20"
     height="20"
     x="2"
     y="2"
     ry="4.5" />
  <path
     d="m 18.449727,6.7571072 c -0.976311,-0.9763107 -2.559223,-0.9763109 -3.535534,0 L 7.6108933,14.060408 c -0.585787,0.585787 -0.585787,1.535535 0,2.121321 0.585786,0.585786 1.535534,0.585786 2.12132,0 L 16.68196,9.2319811 15.974853,8.5248742 9.0251073,15.474622 c -0.195263,0.195262 -0.511845,0.195262 -0.707107,0 -0.195262,-0.195262 -0.195262,-0.511845 0,-0.707107 L 15.6213,7.4642141 c 0.585786,-0.5857859 1.535534,-0.5857859 2.12132,0 0.585786,0.585786 0.585786,1.535534 0,2.12132 l -7.656853,7.6568549 c -0.9763107,0.976311 -2.5592227,0.976311 -3.5355337,0 -0.976311,-0.976311 -0.976311,-2.559223 0,-3.535534 L 11.146426,9.1106601 10.439319,8.4035541 5.8431263,12.999748 c -1.3668349,1.366835 -1.3668353,3.582913 0,4.949748 1.366835,1.366835 3.5829121,1.366835 4.9497467,0 l 7.656854,-7.656855 c 0.976311,-0.9763109 0.976311,-2.5592228 0,-3.5355338 z"
     style="opacity:0.2;fill:#000000;stroke-linecap:round"
     id="path1" />
  <path
     id="path1945"
     style="fill:#666666;stroke-linecap:round"
     d="m 18.449727,6.2572331 c -0.976311,-0.9763108 -2.559223,-0.9763108 -3.535534,-10e-8 l -7.3032997,7.303301 c -0.5857867,0.585787 -0.5857868,1.535535 1e-7,2.121321 0.5857864,0.585786 1.5355339,0.585786 2.1213203,0 L 16.68196,8.7321068 15.974853,8.0250002 9.0251069,14.974748 c -0.1952621,0.195262 -0.5118446,0.195262 -0.7071067,0 -0.1952623,-0.195262 -0.1952622,-0.511845 0,-0.707107 L 15.6213,6.9643399 c 0.585786,-0.5857862 1.535534,-0.5857862 2.12132,0 0.585786,0.5857864 0.585786,1.5355338 0,2.1213204 l -7.656853,7.6568547 c -0.9763103,0.976311 -2.559223,0.976311 -3.5355338,0 -0.9763108,-0.976311 -0.9763109,-2.559223 -1e-7,-3.535534 L 11.146426,8.6107864 10.439319,7.9036796 5.8431264,12.499874 c -1.366835,1.366835 -1.3668354,3.582913 0,4.949748 1.366835,1.366835 3.5829122,1.366835 4.9497466,0 l 7.656854,-7.656855 c 0.976311,-0.9763108 0.976311,-2.5592232 0,-3.5355339 z"
     sodipodi:nodetypes="sssssccsssssssssccsssss" />
  <path
     id="path1040"
     style="opacity:0.2;fill:#ffffff;stroke-width:4;stroke-linecap:square"
     d="M 6.5,2 C 4.007005,2 2,4.007005 2,6.5 V 7 C 2,4.507005 4.007005,2.5 6.5,2.5 h 11 C 19.992996,2.5 22,4.507005 22,7 V 6.5 C 22,4.007005 19.992996,2 17.5,2 Z" />
</svg>
