<?xml version="1.0" encoding="UTF-8" standalone="no"?>
<!-- Created with Inkscape (http://www.inkscape.org/) -->

<svg
   width="24"
   height="24"
   viewBox="0 0 24 24"
   version="1.1"
   id="svg5"
   inkscape:version="1.4.3 (0d15f75042, 2025-12-25)"
   sodipodi:docname="CMakeSetup.svg"
   xmlns:inkscape="http://www.inkscape.org/namespaces/inkscape"
   xmlns:sodipodi="http://sodipodi.sourceforge.net/DTD/sodipodi-0.dtd"
   xmlns="http://www.w3.org/2000/svg"
   xmlns:svg="http://www.w3.org/2000/svg">
  <sodipodi:namedview
     id="namedview7"
     pagecolor="#ffffff"
     bordercolor="#000000"
     borderopacity="0.25"
     inkscape:showpageshadow="2"
     inkscape:pageopacity="0.0"
     inkscape:pagecheckerboard="0"
     inkscape:deskcolor="#d1d1d1"
     inkscape:document-units="px"
     showgrid="false"
     inkscape:zoom="33.625"
     inkscape:cx="11.98513"
     inkscape:cy="12"
     inkscape:window-width="1920"
     inkscape:window-height="1010"
     inkscape:window-x="0"
     inkscape:window-y="0"
     inkscape:window-maximized="1"
     inkscape:current-layer="svg5" />
  <defs
     id="defs2" />
  <rect
     style="opacity:0.2;fill:#000000;stroke-width:1.42857;stroke-linecap:square"
     id="rect234"
     width="20"
     height="20"
     x="2"
     y="2.4999995"
     ry="4.5" />
  <rect
     style="fill:#4d4d4d;fill-opacity:1;stroke-width:1.42857;stroke-linecap:square"
     id="rect396"
     width="20"
     height="20"
     x="2"
     y="2"
     ry="4.5" />
  <path
     id="path1040"
     style="opacity:0.1;fill:#ffffff;stroke-width:4;stroke-linecap:square"
     d="M 6.5,2.0000001 C 4.007005,2.0000001 2,4.0070051 2,6.5 V 7 C 2,4.5070051 4.007005,2.5000001 6.5,2.5000001 h 11 C 19.992996,2.5000001 22,4.5070051 22,7 V 6.5 C 22,4.0070052 19.992996,2.0000001 17.5,2.0000001 Z" />
  <path
     style="fill:#ffffff;stroke-width:0.457906"
     d="M 11.774194,8.785714 6.8064515,18.071428 H 17.193548 Z"
     id="path1" />
  <path
     style="opacity:0.2;stroke-width:0.457905"
     d="M 11.774194,6.5 5,19.5 h 14 z m 0.823742,6.567321 0.521613,4.160929 -3.732129,-1.442538 z"
     id="path2" />
  <path
     style="fill:#4a86d8;stroke-width:0.457906"
     d="M 12.677419,12.5 13.129032,10.178572 11.774194,6 12.677419,12.5 M 5,19 8.161291,17.607143 9.383355,15.288964 Z m 0,0 6.774193,-13 0.903226,6.5 z"
     id="path3" />
  <path
     style="fill:#dd3c3d;stroke-width:0.457906"
     d="M 11.774194,6 19,19 13.129032,16.803929 Z"
     id="path4" />
  <path
     style="fill:#339c33;stroke-width:0.457906"
     d="M 19,19 H 5 l 4.386065,-3.714286 z"
     id="path5" />
  <path
     id="path6"
     style="opacity:0.2;fill:#ffffff;stroke-width:0.457905"
     d="M 11.774414,6 5,19 H 5.260742 L 11.774414,6.5 18.721679,19 H 19 Z m -1.981445,9.442383 -0.405273,0.34375 3.731445,1.442382 -0.06543,-0.52539 z" />
</svg>
