<?xml version="1.0" encoding="UTF-8" standalone="no"?>
<!-- Created with Inkscape (http://www.inkscape.org/) -->

<svg
   width="24"
   height="24"
   viewBox="0 0 24 24"
   version="1.1"
   id="svg5"
   inkscape:version="1.2.2 (1:1.2.2+202305151914+b0a8486541)"
   sodipodi:docname="code-oss.svg"
   xmlns:inkscape="http://www.inkscape.org/namespaces/inkscape"
   xmlns:sodipodi="http://sodipodi.sourceforge.net/DTD/sodipodi-0.dtd"
   xmlns="http://www.w3.org/2000/svg"
   xmlns:svg="http://www.w3.org/2000/svg">
  <sodipodi:namedview
     id="namedview7"
     pagecolor="#ffffff"
     bordercolor="#000000"
     borderopacity="0.25"
     inkscape:showpageshadow="2"
     inkscape:pageopacity="0.0"
     inkscape:pagecheckerboard="0"
     inkscape:deskcolor="#d1d1d1"
     inkscape:document-units="px"
     showgrid="false"
     inkscape:zoom="33.583333"
     inkscape:cx="12"
     inkscape:cy="12"
     inkscape:window-width="1920"
     inkscape:window-height="1008"
     inkscape:window-x="0"
     inkscape:window-y="0"
     inkscape:window-maximized="1"
     inkscape:current-layer="svg5" />
  <defs
     id="defs2" />
  <rect
     style="opacity:0.2;fill:#000000;stroke-width:1.42857;stroke-linecap:square"
     id="rect234"
     width="20"
     height="20"
     x="2"
     y="2.5"
     ry="4.5" />
  <rect
     style="fill:#efefef;fill-opacity:1;stroke-width:1.42857;stroke-linecap:square"
     id="rect396"
     width="20"
     height="20"
     x="2"
     y="2"
     ry="4.5" />
  <rect
     style="opacity:0.2;fill:#000000;fill-opacity:1;stroke-width:1;stroke-linecap:round;stroke-linejoin:round"
     id="rect872"
     width="14"
     height="12"
     x="5"
     y="6.5"
     ry="1" />
  <rect
     style="fill:#167abf;fill-opacity:1;stroke-width:1;stroke-linecap:round;stroke-linejoin:round"
     id="rect410"
     width="14"
     height="12"
     x="5"
     y="6"
     ry="1" />
  <path
     d="M 6,6 H 8.5 V 18.000001 H 6 c -0.554,0 -1,-0.446 -1,-1 V 7 C 5,6.446 5.446,6 6,6 Z"
     style="opacity:0.2;fill:#000000;stroke-width:1;stroke-linecap:round;stroke-linejoin:round"
     id="path803" />
  <path
     id="path1073"
     style="opacity:0.2;fill:#000000;fill-opacity:1;stroke-width:1;stroke-linecap:round;stroke-linejoin:round"
     d="M 11.5,7.5 C 11.223001,7.5 11,7.723001 11,8 c 0,0.277 0.223001,0.5 0.5,0.5 h 3 C 14.776999,8.5 15,8.277 15,8 15,7.723001 14.776999,7.5 14.5,7.5 Z m 1,3 c -0.276999,0 -0.5,0.223001 -0.5,0.5 0,0.277 0.223001,0.5 0.5,0.5 h 4 c 0.276999,0 0.5,-0.223 0.5,-0.5 0,-0.276999 -0.223001,-0.5 -0.5,-0.5 z m 0,3 c -0.276999,0 -0.5,0.223001 -0.5,0.5 0,0.277 0.223001,0.5 0.5,0.5 h 4 c 0.276999,0 0.5,-0.223 0.5,-0.5 0,-0.276999 -0.223001,-0.5 -0.5,-0.5 z m -1,3 c -0.276999,0 -0.5,0.223001 -0.5,0.5 0,0.276999 0.223001,0.5 0.5,0.5 h 3 c 0.276999,0 0.5,-0.223001 0.5,-0.5 0,-0.276999 -0.223001,-0.5 -0.5,-0.5 z" />
  <path
     id="path1035"
     style="fill:#ffffff;fill-opacity:1;stroke-width:1;stroke-linecap:round;stroke-linejoin:round"
     d="M 11.5,7 C 11.223001,7 11,7.223001 11,7.5 11,7.776999 11.223001,8 11.5,8 h 3 C 14.776999,8 15,7.776999 15,7.5 15,7.223001 14.776999,7 14.5,7 Z m 1,3 c -0.276999,0 -0.5,0.223001 -0.5,0.5 0,0.276999 0.223001,0.5 0.5,0.5 h 4 C 16.776999,11 17,10.776999 17,10.5 17,10.223001 16.776999,10 16.5,10 Z m 0,3 c -0.276999,0 -0.5,0.223001 -0.5,0.5 0,0.276999 0.223001,0.5 0.5,0.5 h 4 C 16.776999,14 17,13.776999 17,13.5 17,13.223001 16.776999,13 16.5,13 Z m -1,3 c -0.276999,0 -0.5,0.223001 -0.5,0.5 0,0.276999 0.223001,0.5 0.5,0.5 h 3 C 14.776999,17 15,16.776999 15,16.5 15,16.223001 14.776999,16 14.5,16 Z" />
  <path
     id="path969"
     style="opacity:0.1;fill:#ffffff;fill-opacity:1;stroke-width:1;stroke-linecap:round;stroke-linejoin:round"
     d="M 6,6 C 5.446001,6 5,6.446002 5,7 v 0.5 c 0,-0.554 0.446,-1 1,-1 h 12 c 0.553999,0 1,0.446 1,1 V 7 C 19,6.446002 18.553998,6 18,6 Z" />
  <rect
     style="opacity:0.2;fill:#000000;fill-opacity:1;stroke-width:1;stroke-linecap:round;stroke-linejoin:round"
     id="rect874"
     width="1"
     height="14"
     x="8"
     y="5.5"
     ry="0.5" />
  <rect
     style="fill:#ffffff;fill-opacity:1;stroke-width:1;stroke-linecap:round;stroke-linejoin:round"
     id="rect876"
     width="1"
     height="14"
     x="8"
     y="5"
     ry="0.5" />
  <path
     id="path1040"
     style="opacity:0.2;fill:#ffffff;stroke-width:4;stroke-linecap:square"
     d="M 6.5,2 C 4.007005,2 2,4.007005 2,6.5 V 7 C 2,4.507005 4.007005,2.5 6.5,2.5 h 11 C 19.992996,2.5 22,4.507005 22,7 V 6.5 C 22,4.007005 19.992996,2 17.5,2 Z" />
</svg>
