<?xml version="1.0" encoding="UTF-8" standalone="no"?>
<!-- Created with Inkscape (http://www.inkscape.org/) -->

<svg
   width="24"
   height="24"
   viewBox="0 0 24 24"
   version="1.1"
   id="svg5"
   inkscape:version="1.3.2 (091e20ef0f, 2023-11-25, custom)"
   sodipodi:docname="cs-actions.svg"
   xmlns:inkscape="http://www.inkscape.org/namespaces/inkscape"
   xmlns:sodipodi="http://sodipodi.sourceforge.net/DTD/sodipodi-0.dtd"
   xmlns="http://www.w3.org/2000/svg"
   xmlns:svg="http://www.w3.org/2000/svg">
  <sodipodi:namedview
     id="namedview7"
     pagecolor="#ffffff"
     bordercolor="#000000"
     borderopacity="0.25"
     inkscape:showpageshadow="2"
     inkscape:pageopacity="0.0"
     inkscape:pagecheckerboard="0"
     inkscape:deskcolor="#d1d1d1"
     inkscape:document-units="px"
     showgrid="false"
     inkscape:zoom="33.5"
     inkscape:cx="12"
     inkscape:cy="12"
     inkscape:window-width="1920"
     inkscape:window-height="1008"
     inkscape:window-x="0"
     inkscape:window-y="0"
     inkscape:window-maximized="1"
     inkscape:current-layer="svg5" />
  <defs
     id="defs2" />
  <rect
     style="opacity:0.2;fill:#000000;stroke-width:1.42857;stroke-linecap:square"
     id="rect234"
     width="20"
     height="20"
     x="2"
     y="2.5"
     ry="4.5" />
  <rect
     style="fill:#e4e4e4;fill-opacity:1;stroke-width:1.42857;stroke-linecap:square"
     id="rect396"
     width="20"
     height="20"
     x="2"
     y="2"
     ry="4.5" />
  <path
     id="path1"
     style="opacity:0.2;fill:#000000;fill-opacity:1;stroke-width:1"
     d="M 5.5,5.5 C 5.2230008,5.5 5,5.7230006 5,6 v 1 c 0,0.2769997 0.2230008,0.5 0.5,0.5 h 1 C 6.7769992,7.5 7,7.2769997 7,7 V 6 C 7,5.7230006 6.7769992,5.5 6.5,5.5 Z m 4.5,0 c -0.5539982,0 -1,0.4460012 -1,1 0,0.5539984 0.4460018,1 1,1 h 8 c 0.553998,0 1,-0.4460016 1,-1 0,-0.5539988 -0.446002,-1 -1,-1 z m -4.5,6 C 5.2230008,11.5 5,11.723 5,12 v 1 c 0,0.277 0.2230008,0.5 0.5,0.5 h 1 C 6.7769992,13.5 7,13.277 7,13 V 12 C 7,11.723 6.7769992,11.5 6.5,11.5 Z m 4.5,0 c -0.5539982,0 -1,0.446002 -1,1 0,0.553998 0.4460018,1 1,1 h 8 c 0.553998,0 1,-0.446002 1,-1 0,-0.553998 -0.446002,-1 -1,-1 z m -4.5,6 C 5.2230008,17.5 5,17.723 5,18 v 1 c 0,0.277 0.2230008,0.5 0.5,0.5 h 1 C 6.7769992,19.5 7,19.277 7,19 V 18 C 7,17.723 6.7769992,17.5 6.5,17.5 Z m 4.5,0 c -0.5539982,0 -1,0.446002 -1,1 0,0.553998 0.4460018,1 1,1 h 8 c 0.553998,0 1,-0.446002 1,-1 0,-0.553998 -0.446002,-1 -1,-1 z" />
  <rect
     style="fill:#898989;fill-opacity:1;stroke-width:1"
     id="rect1"
     width="2"
     height="2"
     x="5"
     y="5"
     ry="0.5" />
  <rect
     style="fill:#898989;fill-opacity:1;stroke-width:1.29099"
     id="rect2"
     width="10"
     height="2"
     x="9"
     y="5"
     ry="1" />
  <rect
     style="fill:#898989;fill-opacity:1;stroke-width:1"
     id="rect5"
     width="2"
     height="2"
     x="5"
     y="17"
     ry="0.5" />
  <rect
     style="fill:#898989;fill-opacity:1;stroke-width:1.29099"
     id="rect6"
     width="10"
     height="2"
     x="9"
     y="17"
     ry="1" />
  <rect
     style="fill:#898989;fill-opacity:1;stroke-width:1"
     id="rect3"
     width="2"
     height="2"
     x="5"
     y="11"
     ry="0.5" />
  <rect
     style="fill:#898989;fill-opacity:1;stroke-width:1.29099"
     id="rect4"
     width="10"
     height="2"
     x="9"
     y="11"
     ry="1" />
  <path
     id="path1040"
     style="opacity:0.2;fill:#ffffff;stroke-width:4;stroke-linecap:square"
     d="M 6.5,2 C 4.007005,2 2,4.007005 2,6.5 V 7 C 2,4.507005 4.007005,2.5 6.5,2.5 h 11 C 19.992996,2.5 22,4.507005 22,7 V 6.5 C 22,4.007005 19.992996,2 17.5,2 Z" />
</svg>
