<?xml version="1.0" encoding="UTF-8" standalone="no"?>
<!-- Created with Inkscape (http://www.inkscape.org/) -->

<svg
   width="24"
   height="24"
   viewBox="0 0 24 24"
   version="1.1"
   id="svg5"
   inkscape:version="1.3 (0e150ed6c4, 2023-07-21)"
   sodipodi:docname="cs-user-accounts.svg"
   xmlns:inkscape="http://www.inkscape.org/namespaces/inkscape"
   xmlns:sodipodi="http://sodipodi.sourceforge.net/DTD/sodipodi-0.dtd"
   xmlns="http://www.w3.org/2000/svg"
   xmlns:svg="http://www.w3.org/2000/svg">
  <sodipodi:namedview
     id="namedview7"
     pagecolor="#ffffff"
     bordercolor="#000000"
     borderopacity="0.25"
     inkscape:showpageshadow="2"
     inkscape:pageopacity="0.0"
     inkscape:pagecheckerboard="0"
     inkscape:deskcolor="#d1d1d1"
     inkscape:document-units="px"
     showgrid="false"
     inkscape:zoom="32.625"
     inkscape:cx="11.984674"
     inkscape:cy="12"
     inkscape:window-width="1920"
     inkscape:window-height="984"
     inkscape:window-x="0"
     inkscape:window-y="29"
     inkscape:window-maximized="1"
     inkscape:current-layer="svg5" />
  <defs
     id="defs2" />
  <rect
     style="opacity:0.2;fill:#000000;stroke-width:1.42857;stroke-linecap:square"
     id="rect234"
     width="20"
     height="20"
     x="2"
     y="2.5"
     ry="4.5" />
  <rect
     style="fill:#1976d2;fill-opacity:1;stroke-width:1.42857;stroke-linecap:square"
     id="rect396"
     width="20"
     height="20"
     x="2"
     y="2"
     ry="4.5" />
  <path
     d="m 16.5,12.50025 c 3.5,-10e-4 3.5,2.4005 3.5,2.4005 v 0.6 h -7 v -0.6 c 0,0 0,-2.3984 3.5002,-2.4004 z m 0,-6 c 1.3808,0 2.5,1.1193 2.5,2.5 0,1.3807 -1.1192,2.5 -2.5,2.5 -1.3807,0 -2.5,-1.1193 -2.5,-2.5 0,-1.3807 1.1193,-2.5 2.5,-2.5 z m -7.5,1 c 1.657,0 3,1.3432 3,3 0,1.657 -1.343,3 -3,3 -1.6568,0 -3,-1.343 -3,-3 0,-1.6568 1.3432,-3 3,-3 z m 0,7 c 5,-0.002 5,3.2005 5,3.2005 v 0.8 H 4 v -0.799 c 0,0 0,-3.1979 5,-3.2006 z"
     id="path1760"
     style="opacity:0.2;fill:#000000" />
  <path
     d="M 16.5,12 C 20,11.999 20,14.4005 20,14.4005 v 0.6 h -7 v -0.6 c 0,0 0,-2.3984 3.5002,-2.4004 z m 0,-6 C 17.8808,6 19,7.1193 19,8.5 19,9.8807 17.8808,11 16.5,11 15.1193,11 14,9.8807 14,8.5 14,7.1193 15.1193,6 16.5,6 Z M 9,7 c 1.657,0 3,1.3432 3,3 0,1.657 -1.343,3 -3,3 C 7.3432,13 6,11.657 6,10 6,8.3432 7.3432,7 9,7 Z m 0,7 c 5,-0.002 5,3.2005 5,3.2005 v 0.8 H 4 v -0.799 c 0,0 0,-3.1979 5,-3.2006 z"
     id="path1732"
     sodipodi:nodetypes="cccccccssssssssssccccccc"
     style="fill:#ffffff" />
  <path
     id="path1040"
     style="opacity:0.2;fill:#ffffff;stroke-width:4;stroke-linecap:square"
     d="M 6.5,2 C 4.007005,2 2,4.007005 2,6.5 V 7 C 2,4.507005 4.007005,2.5 6.5,2.5 h 11 C 19.992996,2.5 22,4.507005 22,7 V 6.5 C 22,4.007005 19.992996,2 17.5,2 Z" />
</svg>
