<?xml version="1.0" encoding="UTF-8" standalone="no"?>
<!-- Created with Inkscape (http://www.inkscape.org/) -->

<svg
   width="24"
   height="24"
   viewBox="0 0 24 24"
   version="1.1"
   id="svg5"
   inkscape:version="1.3.2 (091e20ef0f, 2023-11-25, custom)"
   sodipodi:docname="falkon.svg"
   xmlns:inkscape="http://www.inkscape.org/namespaces/inkscape"
   xmlns:sodipodi="http://sodipodi.sourceforge.net/DTD/sodipodi-0.dtd"
   xmlns="http://www.w3.org/2000/svg"
   xmlns:svg="http://www.w3.org/2000/svg">
  <sodipodi:namedview
     id="namedview7"
     pagecolor="#ffffff"
     bordercolor="#000000"
     borderopacity="0.25"
     inkscape:showpageshadow="2"
     inkscape:pageopacity="0.0"
     inkscape:pagecheckerboard="0"
     inkscape:deskcolor="#d1d1d1"
     inkscape:document-units="px"
     showgrid="false"
     inkscape:zoom="34.25"
     inkscape:cx="12"
     inkscape:cy="12"
     inkscape:window-width="1920"
     inkscape:window-height="1008"
     inkscape:window-x="0"
     inkscape:window-y="0"
     inkscape:window-maximized="1"
     inkscape:current-layer="svg5" />
  <defs
     id="defs2" />
  <rect
     style="opacity:0.2;fill:#000000;stroke-width:1.42857;stroke-linecap:square"
     id="rect234"
     width="20"
     height="20"
     x="2"
     y="2.5"
     ry="4.5" />
  <rect
     style="fill:#8767d9;fill-opacity:1;stroke-width:1.42857;stroke-linecap:square"
     id="rect396"
     width="20"
     height="20"
     x="2"
     y="2"
     ry="4.5" />
  <path
     id="path2"
     style="opacity:0.2;fill:#000000;fill-rule:evenodd"
     d="M 10.742188,5.5 C 9.5063067,5.4957 8.0882789,6.2333041 6.4765625,6.9003906 8.6871943,7.0725155 9.6336771,7.3825627 9.6875,7.6171875 5.8645298,6.9601682 4.1316264,12.402163 4.0078125,14.826172 c 0,0 1.3999108,-1.797937 1.8496094,-1.955078 0.1385628,-0.04842 0.2939026,-0.09358 0.4609375,-0.138672 -0.3997136,0.412568 -0.7348614,0.76815 -0.9863282,0.96289 -0.0891,0.176627 -0.1782183,0.401427 -0.2851562,0.591797 -0.7556912,1.750434 -0.9933594,4.578208 -0.9902344,5.769532 3.91e-4,0.149246 0.1618239,0.306769 0.1699219,0.443359 0.2385238,0.63335 0.2647152,1.032448 0.5917969,1.673828 C 5.337916,22.382362 5.9041506,22.5 6.5,22.5 h 11 c 1.066055,0 2.041163,-0.369314 2.810547,-0.984375 C 16.419143,19.120995 15,17.163477 15,15.125 15.03033,14.080372 16.122033,13.139808 18.054688,12.605469 18.976787,12.496664 19.957296,12.454665 21,12.5 20.82632,11.154023 19.523328,9.2447354 17.460938,8.8105469 17.107296,8.642146 15.016458,5.514881 10.742188,5.5 Z" />
  <path
     id="path3"
     style="fill:#ffffff;fill-rule:evenodd"
     d="M 10.742188,5 C 9.5063064,4.9957 8.0882783,5.7333045 6.4765625,6.4003906 8.6871941,6.5725159 9.6336767,6.8825619 9.6875,7.1171875 5.8645296,6.4601674 4.1316272,11.902163 4.0078125,14.326172 c 0,0 1.3999107,-1.797937 1.8496094,-1.955078 0.1385626,-0.04842 0.2939027,-0.09358 0.4609375,-0.138672 -0.3997142,0.412568 -0.7348621,0.76815 -0.9863282,0.96289 C 5.2429263,13.371939 5.1538133,13.596739 5.046875,13.787109 4.2911839,15.537543 4.0535161,18.365317 4.0566406,19.556641 4.0570321,19.705887 4.2184645,19.86341 4.2265625,20 4.4650868,20.63335 4.4912775,21.032448 4.8183594,21.673828 5.337916,21.882362 5.9041506,22 6.5,22 h 11 c 1.066055,0 2.041163,-0.369314 2.810547,-0.984375 C 16.419143,18.620995 15,16.663477 15,14.625 15.03033,13.580372 16.122033,12.639808 18.054688,12.105469 18.976787,11.996664 19.957296,11.954665 21,12 20.82632,10.654023 19.523328,8.7447359 17.460938,8.3105469 17.107296,8.1421461 15.016457,5.014881 10.742188,5 Z" />
  <path
     style="fill:#3f3f3f;fill-rule:evenodd"
     d="m 13.814247,8.402247 c 0,0 1.680306,-1.5481969 2.751229,1.4302237 C 14.709256,10.615043 13.814247,8.402247 13.814247,8.402247 Z"
     id="path4" />
  <path
     id="path5"
     style="opacity:0.1;fill:#000000;fill-rule:evenodd"
     d="m 13.60761,10.837909 c 0,0 -8.7728241,0.369738 -9.458985,2.677735 -0.1907623,0.554989 -0.1191406,1.322266 -0.1191406,1.322266 0,0 3.5739455,-3.573241 9.5781256,-4.000001 z m 3.224609,1.625001 c -2.730445,0.03197 -8.7030577,0.905665 -12.7968753,7.390625 -0.030263,1.22329 0.8144532,2.416015 0.8144532,2.416015 0,0 3.9190604,-9.374846 13.4433601,-9.734375 0,0 -0.550789,-0.08292 -1.460938,-0.07226 z" />
  <path
     id="path6"
     style="fill:#ffb039;fill-rule:evenodd"
     d="m 7.7072187,6.2715031 c -0.5074626,0.00656 -0.9607662,0.044511 -1.2246093,0.1308594 0,0 2.3764737,0.1373707 3.2246093,0.7207031 C 10.061339,7.0502141 10.361184,6.808756 10.412297,6.4785343 10.203383,6.3920741 8.8236367,6.2570727 7.7072187,6.2715031 Z M 13.60761,10.337909 c 0,0 -8.7728241,0.369737 -9.458985,2.677735 -0.1907623,0.554989 -0.1191406,1.322266 -0.1191406,1.322266 0,0 3.5739455,-3.573241 9.5781256,-4.000001 z m 3.224609,1.625001 c -2.730445,0.03197 -8.7030577,0.905665 -12.7968753,7.390625 -0.030264,1.223289 0.8144532,2.416015 0.8144532,2.416015 0,0 3.9190604,-9.374846 13.4433601,-9.734375 0,0 -0.550789,-0.08292 -1.460938,-0.07226 z" />
  <path
     id="path1040"
     style="opacity:0.1;fill:#ffffff;stroke-width:4;stroke-linecap:square"
     d="M 6.5,2 C 4.007005,2 2,4.007005 2,6.5 V 7 C 2,4.507005 4.007005,2.5 6.5,2.5 h 11 C 19.992996,2.5 22,4.507005 22,7 V 6.5 C 22,4.007005 19.992996,2 17.5,2 Z" />
</svg>
