<?xml version="1.0" encoding="UTF-8" standalone="no"?>
<!-- Created with Inkscape (http://www.inkscape.org/) -->

<svg
   width="24"
   height="24"
   viewBox="0 0 24 24"
   version="1.1"
   id="svg5"
   inkscape:version="1.3 (0e150ed6c4, 2023-07-21)"
   sodipodi:docname="gnome-2048.svg"
   xmlns:inkscape="http://www.inkscape.org/namespaces/inkscape"
   xmlns:sodipodi="http://sodipodi.sourceforge.net/DTD/sodipodi-0.dtd"
   xmlns="http://www.w3.org/2000/svg"
   xmlns:svg="http://www.w3.org/2000/svg">
  <sodipodi:namedview
     id="namedview7"
     pagecolor="#ffffff"
     bordercolor="#000000"
     borderopacity="0.25"
     inkscape:showpageshadow="2"
     inkscape:pageopacity="0.0"
     inkscape:pagecheckerboard="0"
     inkscape:deskcolor="#d1d1d1"
     inkscape:document-units="px"
     showgrid="false"
     inkscape:zoom="32.625"
     inkscape:cx="12"
     inkscape:cy="12"
     inkscape:window-width="1920"
     inkscape:window-height="984"
     inkscape:window-x="0"
     inkscape:window-y="29"
     inkscape:window-maximized="1"
     inkscape:current-layer="svg5" />
  <defs
     id="defs2" />
  <rect
     style="opacity:0.2;fill:#000000;stroke-width:1.42857;stroke-linecap:square"
     id="rect234"
     width="20"
     height="20"
     x="2"
     y="2.4999995"
     ry="4.5" />
  <path
     id="rect396"
     style="fill:#e4e4e4;fill-opacity:1;stroke-width:1.42857;stroke-linecap:square"
     d="M 12,2 V 13 H 22 V 6.5 C 22,4.0070025 19.992998,2 17.5,2 Z" />
  <path
     id="rect2259"
     style="fill:#3584e4;fill-opacity:1;stroke-width:1"
     d="m 11,12 v 10 h 6.5 C 19.992998,22 22,19.992998 22,17.5 V 12 Z" />
  <path
     id="rect2816"
     style="fill:#2ec27e;fill-opacity:1;stroke-width:1"
     d="m 2,11 v 6.5 C 2,19.992998 4.0070025,22 6.5,22 H 12 V 11 Z" />
  <path
     id="rect2974"
     style="fill:#ff7800;fill-opacity:1;stroke-width:1"
     d="M 6.5,2 C 4.0070025,2 2,4.0070025 2,6.5 V 12 H 12 V 2 Z" />
  <rect
     style="opacity:0.1;fill:#000000;fill-opacity:1"
     id="rect1"
     width="20"
     height="0.5"
     x="2"
     y="12" />
  <path
     style="opacity:0.2;fill:#000000"
     d="M 6.7226562,4.5 C 6.1102886,4.5 5.5187116,4.6793328 5,5.0117188 L 5.28125,5.9277344 C 5.7567351,5.6720549 6.1170834,5.5605469 6.4628906,5.5605469 c 0.5691423,0 1.2929688,0.5001778 1.2929688,1.0371093 C 7.7558594,7.2794738 6.6641983,8.036221 5,9.5703125 V 10.5 h 4 v -1 H 6.8105469 C 7.7903347,8.673295 8.9785156,7.641335 8.9785156,6.6015625 8.9785156,5.4083815 7.9329817,4.5 6.7226562,4.5 Z M 8,14.5 5,18.507812 V 19.5 h 3 v 1 h 1 v -1 h 1 V 18.507812 H 9 V 14.5 Z m 9.033203,0 c -1.138739,0 -1.896484,0.714022 -1.896484,1.78125 0,0.647058 0.282081,1.033827 0.664062,1.302734 C 15.28907,17.836085 15,18.2899 15,18.861328 15,19.844522 15.793233,20.5 16.982422,20.5 18.193233,20.5 19,19.777985 19,18.685547 c 0,-0.764705 -0.431647,-1.159419 -0.943359,-1.419922 0.504505,-0.302521 0.777343,-0.757107 0.777343,-1.294922 0,-0.882354 -0.726906,-1.470703 -1.800781,-1.470703 z m -0.0918,0.945312 c 0.42869,2e-6 0.710938,0.244102 0.710938,0.626954 0,0.382852 -0.236722,0.690529 -0.601563,0.796875 -0.474295,-0.20206 -0.830078,-0.415106 -0.830078,-0.808594 0,-0.372216 0.282897,-0.615235 0.720703,-0.615235 z M 8,16.267578 V 18.5 L 6.3554688,18.4922 Z m 8.679688,1.728516 c 0.653518,0.243833 1.238281,0.42679 1.238281,0.904297 0,0.35559 -0.331302,0.59961 -0.810547,0.599609 -0.557667,0 -0.923828,-0.315856 -0.923828,-0.783203 0,-0.335271 0.182404,-0.598787 0.496094,-0.720703 z"
     id="path5" />
  <path
     style="fill:#ffffff"
     d="M 6.7226562,4 C 6.1102886,4 5.5187116,4.1793328 5,4.5117188 L 5.28125,5.4277344 C 5.7567351,5.1720549 6.1170834,5.0605469 6.4628906,5.0605469 c 0.5691423,0 1.2929688,0.5001778 1.2929688,1.0371093 C 7.7558594,6.7794738 6.6641983,7.536221 5,9.0703125 V 10 H 9 V 9 H 6.8105469 C 7.7903347,8.173295 8.9785156,7.141335 8.9785156,6.1015625 8.9785156,4.9083815 7.9329817,4 6.7226562,4 Z M 8,14 5,18.007812 V 19 h 3 v 1 h 1 v -1 h 1 V 18.007812 H 9 V 14 Z m 9.033203,0 c -1.138739,0 -1.896484,0.714022 -1.896484,1.78125 0,0.647058 0.282081,1.033827 0.664062,1.302734 C 15.28907,17.336085 15,17.7899 15,18.361328 15,19.344522 15.793233,20 16.982422,20 18.193233,20 19,19.277985 19,18.185547 19,17.420842 18.568353,17.026128 18.056641,16.765625 18.561146,16.463104 18.833984,16.008518 18.833984,15.470703 18.833984,14.588349 18.107078,14 17.033203,14 Z m -0.0918,0.945312 c 0.42869,2e-6 0.710938,0.244102 0.710938,0.626954 0,0.382852 -0.236722,0.690529 -0.601563,0.796875 -0.474295,-0.20206 -0.830078,-0.415106 -0.830078,-0.808594 0,-0.372216 0.282897,-0.615235 0.720703,-0.615235 z M 8,15.767578 V 18 L 6.3554688,17.9922 Z m 8.679688,1.728516 c 0.653518,0.243833 1.238281,0.42679 1.238281,0.904297 0,0.35559 -0.331302,0.59961 -0.810547,0.599609 -0.557667,0 -0.923828,-0.315856 -0.923828,-0.783203 0,-0.335271 0.182404,-0.598787 0.496094,-0.720703 z"
     id="path6" />
  <path
     id="path1040"
     style="opacity:0.2;fill:#ffffff;stroke-width:4;stroke-linecap:square"
     d="M 6.5,2 C 4.0070125,2 2,4.0070126 2,6.5 V 7 C 2,4.5070126 4.0070125,2.5 6.5,2.5 h 11 C 19.992989,2.5 22,4.5070124 22,7 V 6.5 C 22,4.0070124 19.992989,2 17.5,2 Z" />
</svg>
