<?xml version="1.0" encoding="UTF-8" standalone="no"?>
<!-- Created with Inkscape (http://www.inkscape.org/) -->

<svg
   width="24"
   height="24"
   viewBox="0 0 24 24"
   version="1.1"
   id="svg5"
   inkscape:version="1.4.3 (0d15f75042, 2025-12-25)"
   sodipodi:docname="gta-vice-city.svg"
   xmlns:inkscape="http://www.inkscape.org/namespaces/inkscape"
   xmlns:sodipodi="http://sodipodi.sourceforge.net/DTD/sodipodi-0.dtd"
   xmlns="http://www.w3.org/2000/svg"
   xmlns:svg="http://www.w3.org/2000/svg">
  <sodipodi:namedview
     id="namedview7"
     pagecolor="#ffffff"
     bordercolor="#000000"
     borderopacity="0.25"
     inkscape:showpageshadow="2"
     inkscape:pageopacity="0.0"
     inkscape:pagecheckerboard="0"
     inkscape:deskcolor="#d1d1d1"
     inkscape:document-units="px"
     showgrid="false"
     inkscape:zoom="33.625"
     inkscape:cx="11.98513"
     inkscape:cy="12"
     inkscape:window-width="1920"
     inkscape:window-height="1010"
     inkscape:window-x="0"
     inkscape:window-y="0"
     inkscape:window-maximized="1"
     inkscape:current-layer="svg5" />
  <defs
     id="defs2" />
  <rect
     style="opacity:0.2;fill:#000000;stroke-width:1.42856;stroke-linecap:square"
     id="rect234"
     width="19.999811"
     height="19.999811"
     x="2"
     y="2.4999952"
     ry="4.4999576" />
  <rect
     style="fill:#4cc4de;fill-opacity:1;stroke-width:1.42856;stroke-linecap:square"
     id="rect396"
     width="19.999811"
     height="19.999811"
     x="2"
     y="2"
     ry="4.4999576" />
  <path
     style="opacity:0.1;stroke-width:0.499995"
     d="m 12.219818,2.5010717 c -0.230515,0.00454 -0.459239,0.025684 -0.684564,0.067382 -0.126285,0.023358 -0.251824,0.012147 -0.374997,0.048828 -0.133378,0.039796 -0.263866,0.1287942 -0.392574,0.1855452 C 9.23149,3.481068 8.090049,4.7235079 7.6349,6.3486921 7.634727,6.3490381 7.4485908,7.046336 7.588025,7.5420404 7.594595,8.033073 7.536379,8.543433 7.7325552,9.000034 c 0.042905,0.09983 0.061368,0.276132 0.04199,0.392574 -0.028715,0.174405 -0.1750194,0.325726 -0.2236309,0.495113 -0.1081215,0.377359 -0.1541151,0.768784 -0.2011696,1.157216 -0.04377,0.360921 -0.1665784,0.758493 -0.1542956,1.120106 0.00365,0.105197 0.027225,0.199316 0.012695,0.304685 -0.070409,0.506778 -0.2319983,1.004939 -0.3271454,1.508775 -0.03996,0.211777 -0.079034,0.426184 -0.096679,0.641596 -0.024045,0.298114 0.078439,0.624036 0.3564422,0.763664 -0.019375,0.434628 -0.075644,1.172875 0.207029,1.540025 0.2055181,0.266625 0.3911308,0.548115 0.5283155,0.856437 0.057607,0.129247 0.095458,0.297876 0.2343726,0.363278 0.157944,0.07457 0.418161,-0.0023 0.577143,-0.03418 l 0.680658,-0.60351 c -0.160965,1.383647 -0.337921,2.765708 -0.49316,4.149375 0.103163,0.343081 0.395352,0.801668 0.768548,0.843742 1.084237,0.0018 2.168662,-0.0019 3.252899,0 -0.582832,-0.532492 -1.077648,-1.168962 -1.543931,-1.800764 -0.138038,-0.499738 0.190865,-0.966261 0.291013,-1.444322 0.26595,-0.97464 0.519657,-1.955293 0.877922,-2.90134 0.223253,-0.468103 0.207304,-0.999496 0.418941,-1.463854 0.09766,-0.250985 0.256766,-0.468007 0.403316,-0.6914 -0.09292,0.427417 -0.33917,0.81248 -0.45898,1.202137 0.189812,-0.151026 0.489882,-0.64429 0.278318,-0.189451 -0.194924,0.103885 -0.462969,0.646448 -0.08594,0.354489 0.0013,-0.0024 0.0035,-0.0035 0.0049,-0.0059 l -0.148435,0.284177 c -0.153212,0.08942 -0.266555,0.213584 -0.250975,0.476558 -0.14758,0.51923 -0.375082,1.010864 -0.458003,1.54686 -0.02763,0.06824 -0.03307,0.112686 -0.02637,0.145507 l -0.03028,0.170897 -0.0049,10e-4 c -0.03729,0.08566 -0.04384,0.138942 -0.02636,0.16699 l -0.05566,0.312497 c -0.123909,0.408665 -0.136734,0.903348 -0.246091,1.32616 0.02868,0.392659 -0.36631,0.869449 -0.002,1.165028 0.389206,0.459151 0.771599,0.978672 1.239245,1.344714 1.146852,0.0033 2.293546,-0.0033 3.440398,0 -0.383696,-0.612832 -0.797478,-1.266672 -0.792962,-2.018536 -0.02427,-0.508056 -0.01081,-1.031977 -0.09277,-1.536118 l 0.01269,0.001 c 0.01784,-0.318157 -0.09796,-0.635933 -0.295896,-0.954093 0.185984,0.03926 0.371483,0.04117 0.555659,-0.06641 0.723515,-0.329953 1.250041,-1.072308 1.319323,-1.86424 0.0168,-0.576708 -0.574993,-0.843412 -0.976553,-1.124013 C 15.631363,14.52005 15.011163,14.115656 14.46882,13.609366 14.350264,13.507678 14.242232,13.39462 14.133862,13.28222 l 0.05762,-0.05176 c -0.210774,-0.20711 -0.450173,-0.450272 -0.557612,-0.594721 0,0 -0.03858,-0.48819 -0.104491,-0.596674 0.229564,-0.05589 0.459694,-0.124994 0.678705,-0.212888 0.178704,-0.07163 0.338016,-0.181804 0.514643,-0.255857 0.136666,-0.05744 0.322616,-0.0608 0.440426,-0.155273 0.124902,-0.100352 0.06978,-0.392062 0.07324,-0.535151 0.0067,-0.28583 0.02141,-0.57141 0.02539,-0.857413 0.0037,-0.264722 0.331197,-0.530418 0.458003,-0.752923 0.428335,-0.75039 0.08965,-1.689263 0.06543,-2.4989999 -0.0085,-0.2879068 0.157122,-0.6165022 0.244139,-0.8886636 0.06055,-0.1894582 0.121091,-0.3795269 0.181638,-0.5693307 0.08806,-1.4319195 -1.125601,-2.2971859 -2.421851,-2.6181395 -0.147045,-0.036505 -0.29641,-0.0096 -0.447261,-0.037109 -0.142026,-0.025778 -0.285752,-0.1069549 -0.429684,-0.1230457 -0.229996,-0.02578 -0.46186,-0.037745 -0.692376,-0.033203 z m 1.837873,10.8475543 c 0.03841,0.04514 0.07771,0.08989 0.115234,0.135741 l -0.02636,0.05078 c -0.04084,-0.05184 -0.08483,-0.101612 -0.126953,-0.152343 z m -6.9081379,1.155263 v 0.802726 c 0,0 -0.5144857,-0.26567 0,-0.802726 z m 1.6484219,4.24703 c -0.231566,0.06565 -0.130454,0.651762 -0.03808,0.214842 0.08959,-0.09975 0.630685,-0.190902 0.159179,-0.20703 -0.04763,-0.01638 -0.08801,-0.01719 -0.121093,-0.0078 z M 9.07434,19.015565 C 8.758703,19.223883 8.29129,19.432759 8.350714,19.88958 8.262864,20.198882 8.892402,20.552618 8.92981,20.189382 9.01194,19.977639 8.635146,20.315047 8.517704,20.028251 8.322375,19.551247 8.884109,19.342823 9.07141,19.065369 Z"
     id="path2" />
  <path
     style="fill:#3c3c3c;stroke-width:0.499995"
     d="m 12.21948,2.0019439 c -0.230515,0.00454 -0.459238,0.025694 -0.684564,0.067392 -0.126285,0.023358 -0.251824,0.012155 -0.374996,0.048835 -0.133379,0.039796 -0.263866,0.128822 -0.392574,0.1855729 C 9.231152,2.9819852 8.089711,4.2239807 7.634562,5.8491645 7.634389,5.8495105 7.4482528,6.5469874 7.587687,7.0426918 7.594257,7.5337252 7.536041,8.044304 7.7322171,8.500905 c 0.042905,0.09983 0.061366,0.276191 0.04199,0.392634 -0.028715,0.174405 -0.1750189,0.325799 -0.2236304,0.495186 -0.108122,0.377359 -0.1541156,0.768958 -0.2011701,1.15739 -0.04377,0.360921 -0.1665779,0.758661 -0.1542951,1.120275 0.00365,0.105196 0.027225,0.19936 0.012695,0.304729 -0.070409,0.506778 -0.2319978,1.004189 -0.3271449,1.508026 -0.03996,0.211777 -0.079033,0.426281 -0.096679,0.641692 -0.024045,0.298114 0.078439,0.624151 0.3564417,0.763778 -0.019375,0.434628 -0.075644,1.173106 0.2070295,1.540256 0.2055181,0.266625 0.3911303,0.548243 0.528315,0.856566 0.057607,0.129247 0.095458,0.297931 0.2343732,0.363332 0.157944,0.07457 0.418161,-0.0023 0.577143,-0.03418 l 5.503854,-4.879592 c -0.210773,-0.20711 -0.450172,-0.449386 -0.557611,-0.593834 0,0 -0.03858,-0.48828 -0.104491,-0.596764 0.229564,-0.05589 0.459693,-0.125026 0.678704,-0.212921 0.178704,-0.07163 0.338016,-0.181842 0.514643,-0.255895 0.136667,-0.05744 0.322616,-0.06083 0.440426,-0.155295 0.124903,-0.100352 0.06978,-0.392144 0.07324,-0.535232 0.0067,-0.28583 0.02141,-0.571539 0.02539,-0.857542 0.0037,-0.264722 0.331198,-0.530531 0.458004,-0.753036 0.428335,-0.75039 0.08965,-1.6896381 0.06543,-2.499375 -0.0085,-0.2879068 0.157121,-0.6156592 0.244138,-0.8878206 0.06055,-0.1894582 0.121091,-0.3796119 0.181639,-0.5694157 0.08806,-1.4319195 -1.125602,-2.2975789 -2.421852,-2.6185325 -0.147046,-0.036505 -0.29641,-0.00961 -0.447262,-0.037115 -0.142025,-0.025778 -0.285748,-0.1069731 -0.42968,-0.1230639 -0.229997,-0.02578 -0.461861,-0.03775 -0.692377,-0.033208 z M 7.1492151,14.004609 v 0.802848 c 0,0 -0.5144857,-0.265792 0,-0.802848 z"
     id="path3" />
  <path
     style="fill:#e2a67f;stroke-width:0.499995"
     d="m 10.615979,10.156411 c -0.01414,-0.0024 -0.03672,-2.63e-4 -0.07226,0.0088 -0.438903,0.06832 0.273517,0.53991 -0.03613,0.85852 -0.284373,0.576563 -0.645962,1.115113 -1.005849,1.645739 -0.528594,0.851147 -0.464586,1.928766 -0.172851,2.849033 0.106139,0.379586 0.07767,-0.165192 0.107421,-0.304729 -0.138562,-0.457837 -0.281094,-0.938479 -0.193358,-1.425982 -0.04345,-0.264992 0.47783,-0.995908 0.203123,-0.400447 -0.167836,0.491726 -0.144159,1.042237 0.02246,1.530489 0.08001,-0.439975 0.222739,-0.86786 0.336911,-1.297058 -0.113809,-0.261852 0.136229,-0.558848 0.111328,-0.102554 -0.172135,0.725346 -0.351629,1.452037 -0.399411,2.198552 -0.184791,1.816384 -0.439092,3.625583 -0.642572,5.439241 0.103163,0.343082 0.395352,0.801795 0.768548,0.843869 1.084237,0.0019 2.168661,-0.0018 3.252899,0 -0.582833,-0.532492 -1.077648,-1.169232 -1.543931,-1.801034 -0.138038,-0.499737 0.190865,-0.966478 0.291013,-1.444539 0.26595,-0.97464 0.519657,-1.954752 0.877922,-2.900799 0.223253,-0.468102 0.207305,-0.999715 0.418941,-1.464074 0.09766,-0.250985 0.256766,-0.46811 0.403316,-0.691503 -0.09292,0.427417 -0.33917,0.81266 -0.45898,1.202318 0.189812,-0.151026 0.489882,-0.644319 0.278318,-0.18948 -0.194924,0.103884 -0.462969,0.6465 -0.08594,0.354542 0.0013,-0.0024 0.0035,-0.0034 0.0049,-0.0059 l -0.148436,0.28422 c -0.153211,0.08942 -0.266554,0.213656 -0.250974,0.476629 -0.14758,0.519231 -0.375083,1.011096 -0.458004,1.547092 -0.02763,0.06824 -0.03306,0.112708 -0.02636,0.145529 l -0.117187,0.651458 c -0.123908,0.408665 -0.136734,0.902571 -0.246091,1.325383 0.02868,0.392658 -0.366307,0.869623 -0.002,1.165203 0.389206,0.45915 0.771599,0.978873 1.239245,1.344915 1.146852,0.0033 2.293546,-0.0032 3.440398,0 -0.383696,-0.612831 -0.797478,-1.266975 -0.792962,-2.018838 -0.02427,-0.508056 -0.01081,-1.031231 -0.09277,-1.535373 l 0.0127,10e-4 c 0.01862,-0.332069 -0.105063,-0.664164 -0.319333,-0.996233 l 1.296863,-2.100882 -2.419899,-2.411472 -0.05078,0.09767 c -0.161079,-0.204493 -0.331245,-0.401443 -0.517573,-0.582113 0.0048,0.278212 -0.327751,0.997295 -0.208006,0.355519 0.05893,-0.512879 0.148363,-1.096491 -0.227556,-1.519769 -0.304727,-0.365058 -0.676313,-0.858643 -1.213855,-0.789173 -0.371812,0.272931 -0.603397,-0.138148 -1.001944,-0.212921 -0.182526,-0.0086 -0.546732,0.389469 -0.363278,-0.04004 0.0086,-0.03467 0.04439,-0.08359 0.002,-0.09083 z"
     id="path4" />
  <path
     style="fill:#f55588;stroke-width:0.499995"
     d="m 13.654037,12.284641 c -0.03679,0.157712 0.154609,0.236833 0.225695,0.357391 0.461366,0.513345 0.872218,1.071759 1.179565,1.691725 0.292149,0.512198 0.431043,1.138317 0.213865,1.704341 -0.141635,0.374567 -0.308842,0.780076 -0.633,1.030175 -0.278329,0.08352 -0.578011,0.08734 -0.856082,0.185797 l -1.62124,0.430745 c -0.08236,0.189161 -0.03117,0.237849 0.153578,0.146055 0.6906,-0.209359 1.394649,-0.373824 2.102332,-0.511813 0.503665,-0.08988 0.994525,0.390346 1.480609,0.106449 0.723515,-0.329953 1.2506,-1.072233 1.319882,-1.864166 0.01679,-0.576708 -0.575107,-0.843008 -0.976667,-1.123609 -0.610878,-0.416452 -1.231024,-0.821553 -1.773366,-1.327842 -0.293767,-0.25197 -0.542109,-0.551812 -0.815171,-0.825248 z M 8.91873,18.26009 C 8.537684,18.128993 8.653987,18.966488 8.759551,18.467151 8.849141,18.367401 9.390237,18.276218 8.91873,18.26009 Z m 0.155272,0.256872 c -0.315636,0.208318 -0.783194,0.416455 -0.72377,0.873276 -0.08785,0.309303 0.542637,0.662981 0.580045,0.299745 C 9.012407,19.47824 8.635573,19.816056 8.518132,19.52926 8.322802,19.052256 8.883689,18.843628 9.07099,18.566174 l 0.003,-0.04921 z"
     id="path5" />
  <path
     style="fill:#e2a57d;stroke-width:0.499995"
     d="m 11.534696,9.72682 0.639043,0.592769 c 0.454057,0.170846 0.918311,0.385486 1.413437,0.368745 0.293391,-0.0027 0.49794,-0.251332 0.585741,-0.508615 0.289956,-0.759971 0.652768,-1.497116 0.848944,-2.2893124 0.03601,-0.2193124 0.08036,-0.4550527 0.02114,-0.6719807 0.01499,0.080273 -0.08788,0.3283889 -0.270273,0.2087391 -0.108061,-0.02996 -0.218955,-0.050959 -0.325147,-0.08682 -0.0062,0.260847 -0.09727,-0.1078125 -0.01264,-0.2482057 0.112937,-0.2317578 0.294758,-0.4848814 0.582443,-0.4684116 0.27943,-0.030665 0.230585,-0.3321344 0.191793,-0.5310995 C 15.14594,5.7684126 15.086148,5.4426466 15.021537,5.1193947 14.954558,5.0077687 14.814029,4.7894543 14.758869,4.7542041 14.66763,5.088934 14.603007,5.4296837 14.584617,5.7764665 14.525226,6.3824128 14.296512,6.84325 14.039574,7.2769934 13.886471,7.5480443 13.660167,7.8134288 13.331537,7.853604 c -0.240375,0.018135 -0.416565,0.086754 -0.52367,0.314432 -0.207557,0.237775 -0.461862,0.530267 -0.363645,0.871647 0.06452,0.267761 -0.144027,-0.286209 -0.03046,-0.410132 0.08613,-0.259644 0.294879,-0.448277 0.445557,-0.6692735 -0.23564,-3.1e-5 -0.416024,0.1999215 -0.53836,0.3797815 -0.102066,0.307974 -0.215624,0.686554 -0.0058,0.976161 0.04912,0.09497 0.201198,0.280372 0.02569,0.121222 -0.229638,-0.218068 -0.322021,-0.5403 -0.293775,-0.850313 -0.01112,-0.165215 0.114435,-0.418903 -0.09524,-0.228045 -0.06191,0.05126 -0.158186,0.0841 -0.200135,0.146059 l 0.0038,1.024087 -0.220741,0.197589"
     id="path6" />
  <path
     style="fill:#f89dba;stroke-width:0.499995"
     d="m 9.093221,13.351777 c 0.02837,0.03218 -0.04134,0.202607 -0.06176,0.438781 -0.01384,0.16212 -0.03408,0.322683 -0.03806,0.486015 -0.0097,0.386009 0.03148,0.77271 0.144105,1.143148 0.05069,0.166619 0.138915,0.319569 0.216416,0.474423 v 0.201569 C 9.122975,15.660047 8.901368,15.246181 8.831824,14.750131 8.808814,14.586972 8.800514,14.421737 8.805694,14.257195 8.815194,13.952678 8.95101,13.515628 9.093212,13.351777"
     id="path7" />
  <path
     style="fill:#040606;stroke-width:0.499995"
     d="m 9.093221,13.351777 -0.0017,0.0014 0.0062,0.02543 c 0,0.06246 -0.05138,0.214372 -0.06833,0.41179 -0.01401,0.16212 -0.03408,0.322683 -0.03823,0.486187 -8.5e-4,0.03564 -0.0014,0.07146 -0.0014,0.107101 0,0.350539 0.04342,0.700387 0.145661,1.03674 0.05069,0.166792 0.139261,0.319915 0.21659,0.474768 l 0.0019,-0.001 h -0.0021 v 0.201569 h 0.0021 l 0.0019,-8.5e-4 C 9.124864,15.659074 8.903431,15.245554 8.833887,14.74985 c -0.01851,-0.132015 -0.0275,-0.265587 -0.0275,-0.398986 0,-0.03115 5e-4,-0.06229 0.0014,-0.09343 0.0095,-0.304171 0.145489,-0.741221 0.286998,-0.904207 l -0.0015,-0.0014 -0.0018,0.0014 0.0018,-0.0014 -0.0018,-0.0014 c -0.142547,0.164716 -0.278348,0.601594 -0.288036,0.906802 -0.001,0.03114 -0.0014,0.06229 -0.0014,0.0936 0,0.133573 0.009,0.267317 0.02751,0.399679 0.06972,0.496569 0.291496,0.910608 0.522444,1.346273 l 0.0041,-0.001 v -0.201569 -5e-4 l -3.46e-4,-3.46e-4 c -0.0775,-0.155027 -0.165729,-0.307977 -0.216243,-0.47425 -0.10224,-0.335833 -0.145489,-0.685162 -0.145489,-1.035355 0,-0.03564 5e-4,-0.07146 0.0014,-0.107101 0.0042,-0.163158 0.02422,-0.323548 0.03824,-0.485841 0.01678,-0.197071 0.06833,-0.347946 0.06833,-0.412136 l -0.0073,-0.0282 -0.0015,-0.0019 -0.0018,0.0019 0.0018,0.0014"
     id="path8" />
  <path
     style="fill:#f89dba;stroke-width:0.499995"
     d="m 10.987167,10.177366 0.673296,0.370091 0.114523,-0.04533 -0.654093,-0.427535 -0.133726,0.102774"
     id="path9" />
  <path
     style="fill:#040606;stroke-width:0.499995"
     d="m 10.987167,10.177366 -10e-4,0.0019 0.674161,0.37061 0.115561,-0.04585 0.0038,-0.0015 -0.658937,-0.430476 -0.137532,0.105715 0.003,0.0015 0.0011,-0.0019 0.0012,0.0018 0.132514,-0.101909 0.649423,0.42442 -0.109852,0.0436 -0.672258,-0.369745 -10e-4,0.0019 0.0012,0.0017 -0.0012,-0.0017"
     id="path10" />
  <path
     style="fill:#f89dba;stroke-width:0.499995"
     d="m 10.669549,10.088952 0.05484,-0.133572 -0.183893,0.107446 0.129054,0.02613"
     id="path11" />
  <path
     style="fill:#040606;stroke-width:0.499995"
     d="m 10.669549,10.088952 0.0019,8.5e-4 0.05501,-0.133744 0.0024,-0.0059 -0.194446,0.113674 0.13459,0.02717 0.0018,3.46e-4 7e-4,-0.0015 -0.0019,-8.5e-4 3.46e-4,-0.0021 -0.123345,-0.02509 0.17334,-0.10139 -0.05242,0.127862 0.0021,7e-4 3.46e-4,-0.0021 -3.46e-4,0.0021"
     id="path12" />
  <path
     style="fill:#ffffff;stroke-width:0.499995"
     d="m 10.701899,10.281005 0.952855,-0.790358 -0.02318,-1.452682 -0.929673,2.24304"
     id="path13" />
  <path
     style="fill:#040606;stroke-width:0.499995"
     d="m 10.701899,10.281005 0.0014,0.0015 0.95372,-0.790878 -0.02336,-1.453893 -0.0041,-7e-4 -0.9295,2.243041 0.0033,0.0024 -0.0014,-0.0015 0.0021,7e-4 0.925521,-2.233352 0.02301,1.441263 -0.95199,0.789667 0.0014,0.0017 0.0021,7e-4 -0.0021,-7e-4"
     id="path14" />
  <path
     style="fill:#e2a57d;stroke-width:0.499995"
     d="m 11.182133,10.021128 0.248074,-0.20503 0.542166,0.592597 -0.139434,0.06592 -0.650806,-0.453487"
     id="path15" />
  <path
     style="fill:#f03a25;stroke-width:0.499995"
     d="m 13.153754,9.459503 c 0,0 0.5112,-0.247939 0.751489,-0.290502 0,0 0.09688,-0.03097 0.185797,0.03097 0,0 0.03494,0.03097 0.120058,0.01938 0.05034,-0.0067 0.09964,-0.04671 0.150332,-0.02647 0.05726,0.02301 0.07595,0.103813 0.0628,0.158141 l -0.0929,0.147241 c -0.01765,0.0282 0.0026,0.131323 -0.0031,0.173193 -0.0087,0.06212 -0.03374,0.111253 -0.07889,0.154681 -0.0673,0.06471 -0.14445,0.07821 -0.23458,0.08184 -0.194966,0.008 -0.341319,-0.01609 -0.496669,-0.141358 -0.1294,-0.104678 -0.199289,-0.249669 -0.364326,-0.307112"
     id="path16" />
  <path
     style="fill:#ffffff;stroke-width:0.499995"
     d="m 13.517562,9.583905 c 0,0 0.249804,0.181152 0.27437,0.156757 0,0 0.02941,0.04775 -0.04774,0.04775 0,0 -0.162788,-0.06488 -0.226623,-0.20451"
     id="path17" />
  <path
     style="fill:#ffffff;stroke-width:0.499995"
     d="m 14.224765,9.714189 c 0,0 -0.01159,0.0391 0.02647,0.01921 0.03806,-0.01973 0.02993,-0.08219 0.02993,-0.08219 0,0 0.001,0.03011 -0.0564,0.06298"
     id="path18" />
  <path
     style="fill:#de9262;stroke-width:0.499995"
     d="m 14.618328,6.9555469 c 0,0 0.06678,-0.1214604 0.236657,-0.1214604 0,0 0.153273,0.01972 0.230601,-0.057616 0,0 0.03806,0.1199034 -0.03633,0.1943027 0,0 -0.07577,0.066613 -0.43093,-0.015225"
     id="path19" />
  <path
     style="fill:#e2a57d;stroke-width:0.499995"
     d="m 14.618328,6.9555469 c 0.01113,-0.00832 0.02097,-0.029355 0.0344,-0.039795 0.05251,-0.053444 0.128006,-0.080389 0.202252,-0.079578 0.0086,6e-4 0.03781,0.0034 0.05381,0.00215 0.06322,-0.00175 0.131439,-0.01478 0.178351,-0.060447 -0.0075,-1.455e-4 0.0049,0.02354 0.0035,0.03247 0.0081,0.055484 -0.0012,0.1180239 -0.04272,0.158856 -0.0034,0.0038 -0.03002,0.0147 -0.04236,0.0163 -0.07802,0.0158 -0.158472,0.00725 -0.236593,-0.0033 -0.05042,-0.00739 -0.10043,-0.01734 -0.150074,-0.02878 -0.004,0.00652 0.01129,0.00592 0.02083,0.00912 0.103227,0.022045 0.208701,0.040685 0.314646,0.034535 0.03292,-0.00315 0.06807,-0.0064 0.09653,-0.024745 0.0459,-0.04528 0.05366,-0.1153849 0.04184,-0.1760278 -0.003,-0.00786 -0.0026,-0.034235 -0.01328,-0.016755 -0.04768,0.042235 -0.114038,0.053389 -0.17574,0.054532 -0.02901,6.5e-4 -0.05794,-0.0049 -0.08686,-1.005e-4 -0.08076,0.00847 -0.159313,0.052669 -0.201743,0.1229484 0.0023,3.55e-4 0.0031,0.0018 0.0033,-0.0014"
     id="path20" />
  <path
     style="fill:#ffffff;stroke-width:0.499995"
     d="m 14.448447,7.3105856 c 0.05363,0.015395 0.107602,0.02976 0.161577,0.043945 0.08338,0.021975 0.191332,0.06419 0.276965,0.03547 0.06902,-0.023185 0.06314,-0.100352 0.06539,-0.159352 0.0021,-0.052079 0.0041,-0.1295923 -0.0519,-0.1551995 l -0.130438,-0.01696 c 0,0 0.0016,0.1686954 -0.115388,0.2005311 0,0 -0.09861,0.028895 -0.18199,-0.054674 0,0 -0.02422,0.036335 -0.02422,0.106235"
     id="path21" />
  <path
     style="fill:#040606;stroke-width:0.499995"
     d="m 14.448447,7.3105856 -7e-4,0.00225 c 0.0538,0.015395 0.107775,0.02959 0.16175,0.043775 0.06332,0.01678 0.140991,0.04533 0.212783,0.04533 0.02266,0 0.04463,-0.00295 0.06539,-0.00986 0.07093,-0.02405 0.0647,-0.1027745 0.06678,-0.1614285 l 8.5e-4,-0.031835 c 0,-0.04775 -0.0071,-0.1036395 -0.05398,-0.1252673 l -1.73e-4,-1.73e-4 -0.130784,-0.01696 -0.0024,-3.46e-4 v 0.0024 3.46e-4 c 0,0.00813 -0.0019,0.1680029 -0.113831,0.1979357 -1.72e-4,1.73e-4 -0.01626,0.00485 -0.04117,0.00485 -0.03616,0 -0.08996,-0.00986 -0.138915,-0.058827 l -0.0019,-0.0019 -0.0014,0.00225 c -1.73e-4,3.46e-4 -0.02456,0.037025 -0.02456,0.1074465 v 0.00175 l 0.0015,5e-4 7e-4,-0.00225 h 0.0021 c 0,-0.069381 0.02405,-0.1048511 0.02388,-0.1050241 l -0.0017,-0.0012 -0.0016,0.00155 c 0.04965,0.04983 0.105008,0.060038 0.141856,0.060038 0.02543,0 0.04221,-0.00485 0.04238,-0.00485 0.115907,-0.03201 0.116772,-0.1939562 0.116945,-0.2022616 v -1.73e-4 l -0.0023,-1.73e-4 -1.73e-4,0.00225 0.130438,0.01696 1.73e-4,-0.00225 -8.5e-4,0.0019 c 0.04412,0.02007 0.05138,0.07388 0.05138,0.1214603 l -8.5e-4,0.031665 c -0.0021,0.059692 0.0035,0.1351292 -0.06384,0.157622 -0.02024,0.00675 -0.04169,0.00951 -0.06401,0.00951 -0.07058,0 -0.148083,-0.028375 -0.211572,-0.045155 -0.05415,-0.014185 -0.107949,-0.02855 -0.16175,-0.043945 l -5e-4,0.0021 h 0.0021 -0.0021"
     id="path22" />
  <path
     style="fill:#ffffff;stroke-width:0.499995"
     d="m 14.521278,7.1162829 c 0,0 0.133378,0.1244023 0.163826,-0.03028 h 0.05155 c 0,0 -0.0455,0.2429212 -0.236657,0.085127 l 0.02128,-0.054848"
     id="path23" />
  <path
     style="fill:#040606;stroke-width:0.499995"
     d="m 14.521278,7.1162829 -0.0015,0.00155 c 1.73e-4,1.73e-4 0.05086,0.04775 0.09826,0.047925 0.02975,1.73e-4 0.05761,-0.019555 0.0692,-0.079417 l -0.0021,-3.46e-4 v 0.0021 h 0.05155 v -0.0021 l -0.0021,-5e-4 c -1.73e-4,1.73e-4 -0.0263,0.1373787 -0.118847,0.1366867 -0.0301,0 -0.06781,-0.014185 -0.11435,-0.052772 l -0.0014,0.00175 0.0019,7e-4 0.02128,-0.054674 -0.0019,-8.5e-4 -0.0016,0.00155 0.0016,-0.00155 -0.0021,-7e-4 -0.02128,0.054674 -5e-4,0.00155 0.0012,0.00105 c 0.04706,0.038755 0.08563,0.053636 0.117118,0.053636 0.0974,-5e-4 0.122826,-0.1401467 0.122999,-0.1401467 l 5e-4,-0.0026 h -0.05415 -0.0018 l -3.46e-4,0.00175 c -0.01177,0.059 -0.03754,0.075783 -0.06505,0.075956 -0.04463,1.73e-4 -0.09515,-0.046715 -0.09532,-0.046715 l -0.0023,-0.0021 -0.0012,0.00295 0.0021,7e-4"
     id="path24" />
  <path
     style="fill:#3c3c3c;stroke-width:0.499995"
     d="m 13.777573,8.549933 c 0,0 0.0015,0.132707 0.178358,0.05035 0,0 0.0564,-0.03495 0.204307,-0.02301 0,0 0.01384,0.01245 -0.0046,0.01678 0,0 -0.140126,-0.0061 -0.181299,0.02302 0,0 -0.198079,0.07769 -0.196695,-0.06713"
     id="path25" />
  <path
     style="fill:#3c3c3c;stroke-width:0.499995"
     d="m 14.152626,8.722261 c 0,0 0.190467,0.05329 0.263644,-0.05173 0,0 0.06262,-0.01228 0.0275,0.04706 0,0 -0.137184,0.06402 -0.29115,0.0047"
     id="path26" />
  <path
     style="fill:#ffffff;stroke-width:0.499995"
     d="m 14.248811,10.294846 0.502896,-0.417671 -0.008,-0.856972 -0.47366,1.072556 -0.02128,0.202087"
     id="path27" />
  <path
     style="fill:#3f3f3f;stroke-width:0.499995"
     d="m 13.167767,9.479746 c 0.211482,-0.0015 0.423375,-0.0054 0.634496,0.0095 0.02432,0.0031 0.04955,0.0044 0.0729,0.01219 0.0063,-0.0093 -0.0076,0.0045 0.0094,-0.01041 -0.02369,0.0031 0.0126,0.03772 0.03532,0.0405 0.06802,0.02347 0.139156,-0.0035 0.201521,-0.0312 0.06743,-0.02307 0.143334,-0.01386 0.20593,0.01902 0.0075,-0.01626 0.02688,-0.03695 -0.0038,-0.04013 -0.07709,-0.03428 -0.170103,-0.03682 -0.245889,0.0023 0.01482,0.03311 0.0055,-0.01709 -0.01429,0.0056 -0.0502,0.0185 -0.117422,0.0337 -0.161171,-0.0068 -0.03538,-0.02632 -0.0829,-0.02261 -0.124834,-0.02768 -0.20314,-0.01176 -0.406785,-0.0093 -0.610165,-0.0074 1.66e-4,0.01154 3.33e-4,0.02307 5e-4,0.03461"
     id="path28" />
  <path
     style="opacity:0.2;fill-rule:evenodd;stroke-width:0.499995"
     d="m 15.173892,10.005846 c -0.06342,0.01031 -0.125413,0.03342 -0.182616,0.0664 -0.122708,0.07423 -0.195756,0.173595 -0.228513,0.305661 l -0.130858,0.395504 a 13.982538,14.106888 0 0 1 -0.368161,1.023428 c -0.204473,0.0741 -0.408824,0.156763 -0.613276,0.239256 l -0.261716,0.123045 c -0.130897,0.05771 -0.212708,0.149182 -0.261716,0.281248 a 0.53970712,0.54450688 0 0 0 0.0088,0.395504 c 0.03275,0.06597 0.08148,0.124382 0.13867,0.173826 -0.106202,-0.0081 -0.203965,0.0082 -0.318356,0.05762 a 0.51489561,0.51947471 0 0 0 0.07324,-0.272458 v -0.0498 c -0.01625,-0.140195 -0.07323,-0.255925 -0.179686,-0.346676 -0.106203,-0.09075 -0.229201,-0.123492 -0.368161,-0.115233 -0.155465,0.0081 -0.32689,0.07468 -0.531245,0.173826 -0.376071,0.189768 -0.720311,0.494755 -1.014639,0.907219 -0.03275,0.04118 -0.06527,0.08252 -0.08984,0.131834 a 1.5692735,1.5832295 0 0 0 -0.147459,0.28906 c -0.08177,0.189768 -0.146929,0.362876 -0.179686,0.536128 -0.08982,0.437231 -0.0164,0.767036 0.220701,0.981436 0.08177,0.07423 0.179924,0.1232 0.28613,0.156248 0.171717,0.04944 0.351682,0.03334 0.547846,-0.04101 0.212664,-0.08249 0.458038,-0.246866 0.719721,-0.486324 l 0.409175,-0.363278 c 0.05745,0.305181 0.195894,0.495256 0.424801,0.569331 0.245162,0.07423 0.466888,-0.0082 0.687493,-0.239256 0.139215,-0.148457 0.310309,-0.404135 0.514644,-0.775383 0.04901,0.346617 0.195974,0.568573 0.441402,0.659173 0.359813,0.148458 0.711833,-0.05756 1.063467,-0.610345 0.0572,0.07423 0.138936,0.123649 0.220701,0.148436 0.204474,0.08249 0.401147,0.04104 0.581049,-0.107421 0.13896,-0.107279 0.301905,-0.304975 0.473628,-0.593745 l -0.105468,1.270496 c -1.243088,0.206293 -2.732141,0.519562 -4.441364,0.940421 a 100.11567,101.00603 0 0 0 -4.374959,1.171864 c -0.237231,0.0661 -0.4738342,0.131565 -0.7109305,0.206053 l -1.6601409,0.4873 -0.6464779,0.197264 c -0.1308978,0.04118 -0.2363681,0.124369 -0.3017551,0.248044 -0.057198,0.132062 -0.074022,0.255302 -0.033203,0.395504 0.049136,0.132063 0.1311918,0.240014 0.2539035,0.297849 0.1225809,0.06597 0.2530272,0.08233 0.3837854,0.04101 l 0.6542909,-0.19824 c 0.5479148,-0.164982 1.1122755,-0.337936 1.701156,-0.502926 a 128.79511,129.94052 0 0 1 4.3173426,-1.171864 25.654829,25.882985 0 0 1 0.842765,-0.206052 c 1.471751,-0.363012 2.78031,-0.643611 3.916956,-0.841789 -0.03276,0.371274 -0.06576,0.717886 -0.106445,1.047841 -0.09827,0.924074 -0.180199,1.641691 -0.253903,2.153301 -0.07345,0.04944 -0.129823,0.107408 -0.170897,0.181638 a 0.50901131,0.51353807 0 0 0 -0.06543,0.255858 v 0.02441 c 0.0082,0.140196 0.01597,0.255925 0.03222,0.346677 0.03276,0.214554 0.114563,0.370639 0.261716,0.45312 0.08996,0.04958 0.179574,0.08301 0.269529,0.08301 0.08995,0 0.172388,-0.02496 0.246091,-0.06641 0.130643,-0.06597 0.220148,-0.18059 0.277342,-0.3457 l 0.06543,-0.240232 0.106444,-0.684564 c 0.07344,-0.503329 0.15516,-1.195944 0.245115,-2.070293 l 0.0088,-0.09082 0.122069,-1.205066 0.450191,-0.04883 c 0.90772,-0.107275 1.594615,-0.124687 2.077129,-0.05859 0.261413,0.04131 0.424582,0.09907 0.498042,0.165037 v 0.04981 l -0.01563,0.115233 c 0,0.115542 0.03299,0.223378 0.106445,0.322263 0.0737,0.09075 0.171479,0.156852 0.28613,0.181638 0.138959,0.03305 0.261328,0.0078 0.383785,-0.0664 0.130897,-0.07423 0.204545,-0.17315 0.237303,-0.313474 0.04926,-0.206293 0.04107,-0.396109 -0.0078,-0.56933 -0.04926,-0.181506 -0.147643,-0.337797 -0.294919,-0.469723 -0.22917,-0.214555 -0.572055,-0.363707 -1.038077,-0.429683 -0.613279,-0.09088 -1.472259,-0.06566 -2.576147,0.06641 l 0.09082,-1.245106 0.03223,-0.330075 c 0.01625,-0.39594 0.02479,-0.668022 0.0166,-0.833 -0.0082,-0.412464 -0.147361,-0.669007 -0.43359,-0.759759 -0.187967,-0.05771 -0.368313,-0.02451 -0.540034,0.107421 -0.08995,0.07423 -0.187481,0.181489 -0.293942,0.330075 l -0.05761,0.08301 C 16.82339,11.895829 16.725867,11.739008 16.570397,11.61522 16.349672,11.441847 16.022376,11.383687 15.588961,11.441393 L 15.73642,10.6914 15.76084,10.517573 c 0,-0.115541 -0.04119,-0.222401 -0.106444,-0.321286 -0.08202,-0.09075 -0.171739,-0.14859 -0.28613,-0.181638 -0.06545,-0.01652 -0.130914,-0.0191 -0.194334,-0.0088 z m -9.5624105,1.904278 c -0.064393,-0.0062 -0.1299252,0.0016 -0.1953106,0.02637 -0.1309013,0.04118 -0.2372168,0.124373 -0.3027317,0.248045 l -1.3906116,2.582009 -0.5800727,1.080068 -0.1308581,-0.63476 c -0.032757,-0.140195 -0.106182,-0.248031 -0.2207011,-0.322262 -0.1143804,-0.08249 -0.2458024,-0.106816 -0.384762,-0.08203 -0.1390908,0.03305 -0.2447801,0.106985 -0.3183564,0.222654 -0.081766,0.115526 -0.1068467,0.247497 -0.074218,0.387692 l 0.3193329,1.60936 c 0.016379,0.156599 0.065694,0.279757 0.1474596,0.378903 0.081766,0.107275 0.1875861,0.173004 0.3183563,0.206052 0.3108189,0.0661 0.5812479,-0.09859 0.8183517,-0.502925 0.1309165,-0.214437 0.4737824,-0.850115 1.0380762,-1.906232 l -0.073241,0.264646 c -0.1063298,0.38781 -0.1633075,0.684402 -0.1796858,0.907218 -0.016378,0.181624 -1.808e-4,0.330427 0.048827,0.454098 0.057194,0.132065 0.14742,0.230826 0.2783177,0.28027 0.1307591,0.05771 0.2612045,0.05771 0.3837853,0 0.098145,-0.04131 0.1801053,-0.0987 0.2373028,-0.189451 0.057201,-0.09076 0.08203,-0.181784 0.08203,-0.28906 l -0.0166,-0.140623 v -0.01563 c 0,-0.06596 0.0162,-0.181695 0.04883,-0.346677 0.065503,0.264135 0.212864,0.445454 0.4335894,0.552729 0.1881103,0.09889 0.4170331,0.115246 0.6787047,0.04102 0.2700034,-0.08247 0.5721961,-0.247638 0.9238193,-0.495112 0.3026106,0.230954 0.7030226,0.222932 1.1855356,-0.02441 0.155458,-0.06597 0.311677,-0.173728 0.483394,-0.305661 0.29429,-0.239205 0.556011,-0.544206 0.768547,-0.907218 a 0.50709983,0.51160959 0 0 0 0.07324,-0.222655 v -0.0332 c 0,-0.09075 -0.02449,-0.181627 -0.06543,-0.255857 -0.04901,-0.07423 -0.106709,-0.139877 -0.188475,-0.189452 -0.114391,-0.07423 -0.236286,-0.09067 -0.367184,-0.05762 0.03263,-0.115409 0.05664,-0.231717 0.05664,-0.338864 v -0.0078 C 9.439183,13.64469 9.365643,13.462886 9.226682,13.314428 9.063159,13.141186 8.793621,13.058725 8.564579,13.091774 8.196566,13.132954 7.8687789,13.404957 7.5743542,13.908173 l -0.105471,0.198246 -0.098632,-0.173827 v -0.0078 C 7.263913,13.784558 7.1246058,13.718625 6.9610783,13.7021 A 0.63771645,0.64338785 0 0 0 6.6183081,13.77632 C 6.4302203,13.899999 6.2667884,14.0894 6.1358906,14.262644 A 4.7130676,4.7549822 0 0 0 5.8165576,14.73334 C 5.7675331,14.386845 5.4402486,14.247085 5.1212521,14.337836 L 6.0128453,12.67086 c 0.065384,-0.123808 0.074147,-0.25518 0.033205,-0.395505 -0.04082,-0.131933 -0.1233833,-0.239692 -0.2460916,-0.305661 -0.061285,-0.03305 -0.1240819,-0.05337 -0.1884748,-0.05957 z m 10.2225605,0.538081 a 25.618099,25.845927 0 0 0 -0.130858,0.784173 l -0.35156,-0.0166 c 0.0165,-0.189768 0.04074,-0.421494 0.07324,-0.702142 a 2.3293235,2.3500389 0 0 1 0.409176,-0.06543 z m -2.290018,0.684564 h 0.130858 l -0.04101,0.08301 z m -0.948233,0.165038 -0.220701,0.19824 -0.302732,0.263669 -0.409175,0.372067 c 0.147148,-0.247603 0.318928,-0.470758 0.547846,-0.635736 0.03275,-0.03292 0.07441,-0.05822 0.115233,-0.08301 0.08177,-0.04118 0.171384,-0.09044 0.269529,-0.115233 z m -5.4130352,1.576157 c -0.03263,0.11567 -0.04943,0.231139 -0.057616,0.346676 -0.2290418,0.189768 -0.4332999,0.321343 -0.5966739,0.412106 0.065387,-0.206293 0.1791148,-0.42036 0.3427703,-0.63476 0.1225808,-0.0083 0.2133795,-0.05793 0.3115196,-0.124022 z"
     id="path29" />
  <path
     style="fill:#ff89be;fill-rule:evenodd;stroke-width:0.499995"
     d="m 18.140254,12.995949 0.03275,-0.329963 c 0.01625,-0.39594 0.02444,-0.668307 0.01625,-0.833285 -0.0082,-0.412464 -0.147149,-0.668307 -0.433377,-0.759058 -0.187968,-0.05771 -0.367874,-0.02466 -0.539595,0.107276 -0.08995,0.07423 -0.188223,0.181505 -0.294684,0.330092 l -0.05694,0.08249 C 16.823718,11.3956 16.725444,11.23888 16.569974,11.115092 16.349249,10.941719 16.022209,10.884013 15.588794,10.941719 l 0.147149,-0.750701 0.02444,-0.173244 c 0,-0.115541 -0.04095,-0.222817 -0.106202,-0.321701 -0.08202,-0.09075 -0.171717,-0.148458 -0.286109,-0.181507 -0.130901,-0.03305 -0.261927,-0.0083 -0.376333,0.05771 -0.122709,0.07423 -0.196157,0.173244 -0.228915,0.305309 l -0.130643,0.395789 a 13.982538,14.106888 0 0 1 -0.368129,1.023219 c -0.204473,0.0741 -0.408828,0.15672 -0.61328,0.239213 l -0.261671,0.123799 c -0.130898,0.05771 -0.212664,0.148458 -0.261672,0.280524 a 0.53970712,0.54450688 0 0 0 0.0082,0.395939 c 0.03275,0.06597 0.08177,0.1238 0.138959,0.173244 -0.106202,-0.0081 -0.204474,0.0083 -0.318865,0.05771 a 0.51489561,0.51947471 0 0 0 0.07345,-0.272133 v -0.04957 c -0.01625,-0.140196 -0.07345,-0.255737 -0.179906,-0.346488 -0.106203,-0.09075 -0.228914,-0.1238 -0.367874,-0.115541 -0.155466,0.0081 -0.327182,0.0741 -0.531537,0.173243 -0.376071,0.189769 -0.719609,0.494935 -1.013937,0.907398 -0.03275,0.04118 -0.06539,0.08262 -0.08995,0.131934 A 1.5692735,1.5832295 0 0 0 10.69882,13.28465 c -0.08177,0.189768 -0.147149,0.363012 -0.179906,0.536264 -0.08982,0.437231 -0.01625,0.767225 0.220853,0.981625 0.08177,0.07423 0.179906,0.123799 0.286112,0.156848 0.171717,0.04945 0.35175,0.03305 0.547915,-0.04131 0.212663,-0.08249 0.457814,-0.247347 0.719497,-0.486805 l 0.408828,-0.363012 c 0.05745,0.305181 0.196413,0.495085 0.425319,0.569161 0.245163,0.07423 0.466135,-0.0081 0.68674,-0.239213 0.139215,-0.148457 0.310935,-0.404334 0.515271,-0.775582 0.04901,0.346617 0.196157,0.569312 0.441585,0.659912 0.359813,0.148458 0.711552,-0.05771 1.063186,-0.61049 0.0572,0.07423 0.13896,0.123671 0.220725,0.148457 0.204474,0.08249 0.40062,0.04118 0.580522,-0.107275 0.13896,-0.107279 0.302619,-0.30531 0.474343,-0.59408 l -0.106202,1.270554 c -1.243088,0.206293 -2.731368,0.51974 -4.440591,0.940598 A 100.11567,101.00603 0 0 0 8.188016,16.50171 c -0.237231,0.0661 -0.4743422,0.131933 -0.7114385,0.206421 l -1.6600869,0.486691 -0.6459244,0.198031 c -0.1308978,0.04118 -0.2372314,0.123799 -0.3026184,0.247474 -0.057198,0.132062 -0.073576,0.255737 -0.032757,0.39594 0.049136,0.132062 0.1307703,0.239341 0.2534824,0.297176 0.1225808,0.06597 0.2534826,0.08249 0.3842413,0.04118 L 6.1271452,18.176585 C 6.67506,18.011603 7.2392042,17.83836 7.8280847,17.67337 a 128.79511,129.94052 0 0 1 4.3176573,-1.171522 25.654829,25.882985 0 0 1 0.842468,-0.206292 c 1.471751,-0.363013 2.780353,-0.643388 3.916999,-0.841566 -0.03275,0.371274 -0.06551,0.717766 -0.106202,1.047722 -0.09827,0.924074 -0.179906,1.641802 -0.25361,2.153411 -0.07345,0.04944 -0.130643,0.107276 -0.171717,0.181507 a 0.50901131,0.51353807 0 0 0 -0.06552,0.255608 v 0.02479 c 0.0082,0.140195 0.01651,0.255737 0.03276,0.346488 0.03276,0.214554 0.11452,0.371274 0.261672,0.453756 0.08996,0.04957 0.179909,0.08263 0.269865,0.08263 0.08995,0 0.171717,-0.02465 0.24542,-0.0661 0.130643,-0.06597 0.220725,-0.181377 0.277919,-0.346488 l 0.06551,-0.239341 0.106461,-0.684717 c 0.07344,-0.503329 0.155211,-1.196441 0.245166,-2.07079 l 0.0082,-0.09088 0.122708,-1.204457 0.449644,-0.04957 c 0.90772,-0.107275 1.594722,-0.123799 2.077235,-0.05771 0.261413,0.04131 0.425057,0.09902 0.498517,0.164981 v 0.04958 l -0.01625,0.115541 c 0,0.115542 0.03276,0.222817 0.106203,0.321702 0.0737,0.09075 0.171716,0.156719 0.286367,0.181506 0.138959,0.03305 0.261672,0.0081 0.384129,-0.0661 0.130897,-0.07423 0.204474,-0.173244 0.237231,-0.313568 0.04926,-0.206293 0.04095,-0.39594 -0.0079,-0.569161 -0.04926,-0.181506 -0.147149,-0.338355 -0.294425,-0.47028 -0.229169,-0.214555 -0.572615,-0.363013 -1.038637,-0.428988 -0.613279,-0.09088 -1.472013,-0.0661 -2.575902,0.06597 z m -10.9579292,1.37783 c -0.03263,0.11567 -0.04901,0.231078 -0.057197,0.346616 -0.2290418,0.189768 -0.4335274,0.321701 -0.5969014,0.412464 0.065387,-0.206293 0.1797788,-0.420859 0.3434338,-0.635258 0.1225808,-0.0083 0.212536,-0.05771 0.3106766,-0.1238 z m -3.4590356,-0.107276 1.390121,-2.582286 c 0.065514,-0.123671 0.1717169,-0.206293 0.3026182,-0.247475 0.1307702,-0.04957 0.2616715,-0.03305 0.3842414,0.03305 0.1227083,0.06597 0.204474,0.173244 0.2452932,0.305177 0.040945,0.140324 0.032755,0.272133 -0.03263,0.39594 l -0.8913412,1.666607 c 0.3189965,-0.09075 0.646037,0.04944 0.69506,0.395939 a 4.7130676,4.7549822 0 0 1 0.318866,-0.470431 c 0.1308978,-0.173243 0.2944252,-0.363012 0.482513,-0.486691 a 0.63771645,0.64338785 0 0 1 0.3434337,-0.07436 c 0.1635275,0.01652 0.3024872,0.08262 0.4088282,0.222817 v 0.0083 l 0.098144,0.173244 0.10633,-0.19803 c 0.2944252,-0.503216 0.6214883,-0.775469 0.9895013,-0.816647 0.229042,-0.03305 0.498892,0.04957 0.662415,0.222817 0.13896,0.148457 0.212664,0.330092 0.220853,0.56916 v 0.0083 c 0,0.107147 -0.02457,0.222817 -0.0572,0.338226 0.130898,-0.03305 0.253483,-0.01652 0.367874,0.0577 0.08177,0.04957 0.139087,0.115541 0.188096,0.189768 0.04094,0.07423 0.06551,0.164982 0.06551,0.255736 v 0.03292 a 0.50709983,0.51160959 0 0 1 -0.07358,0.222945 C 9.7257,14.852242 9.463893,15.157422 9.169603,15.396628 8.997886,15.528561 8.842548,15.635968 8.68709,15.701937 8.204577,15.949283 7.8039185,15.957545 7.5013079,15.726587 7.1496951,15.97399 6.8472229,16.13898 6.5772195,16.22145 6.3155479,16.29568 6.0866481,16.27916 5.8985378,16.18027 5.6778124,16.072995 5.5306638,15.891617 5.4651604,15.627482 c -0.03263,0.164982 -0.04901,0.280652 -0.04901,0.346617 v 0.01652 l 0.01638,0.140196 c 0,0.107275 -0.024565,0.19803 -0.081766,0.288785 -0.057198,0.09076 -0.1390867,0.148458 -0.2372313,0.189768 -0.1225809,0.05771 -0.2534824,0.05771 -0.3842415,0 C 4.5983939,16.559928 4.508439,16.460911 4.451245,16.328845 4.402236,16.205174 4.385858,16.056712 4.402236,15.875089 4.418614,15.652273 4.475812,15.35535 4.5821421,14.96754 l 0.073577,-0.263997 C 4.0914269,15.759663 3.7480007,16.394921 3.6170842,16.609359 3.3799804,17.013693 3.1101344,17.178671 2.7993155,17.112574 2.6685452,17.079526 2.5620842,17.013557 2.4803186,16.906281 2.3985529,16.807136 2.3495483,16.683464 2.3331697,16.526866 L 2.0141728,14.917961 c -0.032629,-0.140195 -0.00819,-0.272132 0.073576,-0.387658 0.073576,-0.11567 0.1799061,-0.189769 0.3189969,-0.222817 0.1389596,-0.02479 0.2698611,0 0.3842415,0.08249 0.1145191,0.07423 0.1880954,0.181507 0.2208527,0.321702 l 0.1307703,0.635409 z m 8.6514308,-1.270554 -0.30236,0.263999 -0.40894,0.371403 c 0.147148,-0.247604 0.318997,-0.470431 0.547915,-0.635409 0.03275,-0.03292 0.0737,-0.05771 0.114522,-0.08249 0.08177,-0.04118 0.171717,-0.09075 0.269862,-0.115542 z m 3.328381,-0.263999 -0.351623,-0.01652 c 0.0165,-0.189768 0.04095,-0.420707 0.07344,-0.701355 a 2.3293235,2.3500389 0 0 1 0.409091,-0.06584 25.618099,25.845927 0 0 0 -0.130898,0.783712 z m -2.028099,-0.09901 -0.04069,0.08249 -0.08995,-0.08249 z"
     id="path30" />
  <path
     style="fill:#ffffff;fill-rule:evenodd;stroke-width:0.499995"
     d="m 9.145135,13.391851 v -0.0083 c 0,-0.148458 -0.04901,-0.263999 -0.13077,-0.35475 l -0.0081,-0.0081 C 8.891785,12.91343 8.752822,12.872248 8.597364,12.888773 8.32763,12.921822 8.074035,13.14451 7.8287307,13.556966 7.7060223,13.77152 7.6078783,13.986068 7.5343055,14.208748 7.4607291,14.448089 7.419783,14.662655 7.419783,14.860531 v 0.01652 c -0.3843919,0.313568 -0.7032314,0.51161 -0.9404776,0.60221 -0.1307703,0.04957 -0.2208524,0.0661 -0.269861,0.04131 -0.03263,-0.01652 -0.049135,-0.05784 -0.049135,-0.140195 0.01638,-0.206421 0.098144,-0.429102 0.2290418,-0.684831 a 3.2110701,3.239627 0 0 1 0.3435613,-0.528134 0.22929683,0.23133602 0 0 0 0.2289143,0 c 0.1389597,-0.09075 0.2126635,-0.197902 0.2372313,-0.313439 0.01625,-0.09088 -0.00819,-0.164982 -0.065387,-0.239341 A 0.23313474,0.23520808 0 0 0 6.937384,13.515481 c -0.057325,-0.0081 -0.1145225,0.0083 -0.1799058,0.04118 l -0.1799063,0.140324 c -0.04901,0.04958 -0.114519,0.131933 -0.1961572,0.23095 l -0.261672,0.38781 C 5.8988908,14.678764 5.77631,15.025237 5.7353519,15.33882 v 0.0083 c -0.00819,0.09889 0.00819,0.189768 0.049134,0.288657 0.04901,0.1238 0.1307703,0.214554 0.2372313,0.272261 a 0.83362266,0.84103629 0 0 0 0.4905714,0.0081 C 6.78215,15.841902 7.1255688,15.643872 7.534397,15.322053 l 0.065387,0.09075 c 0.220853,0.230951 0.531536,0.239341 0.964914,0.01652 0.122708,-0.04944 0.253482,-0.140324 0.408828,-0.255737 0.269861,-0.222817 0.50695,-0.503064 0.703381,-0.833172 l 0.03275,-0.115669 c 0,-0.07423 -0.03275,-0.140324 -0.09827,-0.181378 -0.04901,-0.02465 -0.10633,-0.04131 -0.163528,-0.02465 -0.0572,0.01639 -0.09814,0.04944 -0.130897,0.09888 -0.171717,0.297048 -0.376071,0.536264 -0.613168,0.726161 -0.122708,0.09062 -0.220852,0.156719 -0.310807,0.197901 h -0.01625 c -0.114519,0.0661 -0.212663,0.09902 -0.294425,0.115538 -0.08177,0.01653 -0.1389597,0 -0.1717169,-0.03305 -0.01638,-0.01639 -0.02444,-0.04118 -0.04082,-0.0741 L 8.499433,14.480735 c 0.433003,-0.412312 0.645663,-0.775468 0.645663,-1.0889 z m 11.153947,1.047873 c 0.556086,0.04958 0.940478,0.173244 1.161345,0.38781 0.204474,0.189769 0.277919,0.437232 0.204474,0.74242 -0.0165,0.05771 -0.04095,0.107275 -0.08995,0.132062 -0.04926,0.03292 -0.106461,0.04118 -0.163655,0.03292 -0.0572,-0.01653 -0.09801,-0.04945 -0.130642,-0.09901 -0.02444,-0.04957 -0.04095,-0.10728 -0.02444,-0.156849 0.0325,-0.148329 0.0079,-0.263866 -0.08202,-0.346487 -0.155211,-0.140196 -0.457815,-0.230951 -0.915666,-0.272261 -0.621488,-0.04945 -1.480184,0.0083 -2.592393,0.164981 l -0.147149,1.534678 c -0.08995,0.857977 -0.171717,1.542694 -0.245421,2.054266 l -0.106202,0.668306 -0.08177,0.280391 c -0.04901,0.08262 -0.114519,0.132062 -0.212663,0.132062 -0.130643,0 -0.212663,-0.09075 -0.237232,-0.272261 a 6.6638838,6.7231478 0 0 1 -0.02444,-0.321702 v -0.0083 c 0,-0.06597 0.01625,-0.115537 0.0572,-0.156719 0.04094,-0.04131 0.08995,-0.05771 0.147149,-0.0661 0.114523,-0.767225 0.253355,-2.029611 0.425319,-3.778575 -1.234767,0.197902 -2.739538,0.511459 -4.505805,0.940447 -1.553644,0.395939 -3.238205,0.841565 -5.0537574,1.369548 l -1.6599744,0.486804 -0.6378665,0.197902 -0.1553381,-0.0164 c -0.04901,-0.02478 -0.089951,-0.0661 -0.10633,-0.123799 -0.01625,-0.05771 -0.00819,-0.107275 0.01638,-0.164982 0.02457,-0.04957 0.065387,-0.08262 0.1225808,-0.09902 l 0.6378665,-0.198031 1.6600869,-0.486804 c 1.8234982,-0.527982 3.5162292,-0.9983 5.0698742,-1.377829 1.823647,-0.437231 3.369084,-0.759058 4.652725,-0.965365 0.08202,-0.940447 0.138959,-1.616921 0.163655,-2.037742 l 0.02444,-0.627014 c -0.09827,0.148457 -0.261672,0.404334 -0.482513,0.759057 -0.196158,0.330092 -0.351624,0.552788 -0.466135,0.668307 -0.122708,0.131933 -0.245421,0.164982 -0.359685,0.123671 -0.06552,-0.02466 -0.11465,-0.06597 -0.147149,-0.131933 -0.0247,-0.06597 -0.04094,-0.15672 -0.04094,-0.263871 0,-0.148586 0.04901,-0.495085 0.130642,-1.031349 l 0.04926,-0.288656 c 0.0082,-0.0661 0,-0.115542 -0.02469,-0.132062 -0.122453,-0.09062 -0.441323,-0.06597 -0.972972,0.08262 l -0.0082,0.07423 c -0.08177,0.594079 -0.122708,1.047722 -0.122708,1.377829 0,0.1238 0.0082,0.23095 0.0165,0.305177 0.08177,-0.09075 0.179651,-0.239341 0.294429,-0.437231 0.02444,-0.04957 0.07344,-0.08262 0.122453,-0.09915 a 0.19347002,0.1951906 0 0 1 0.163655,0.02478 c 0.04901,0.03292 0.08177,0.07423 0.09801,0.131933 0.0165,0.04945 0,0.107147 -0.02444,0.156848 -0.147148,0.263867 -0.277919,0.445361 -0.384129,0.552637 -0.155465,0.148458 -0.294425,0.197902 -0.43364,0.140195 -0.08995,-0.03292 -0.155465,-0.09902 -0.204474,-0.206292 -0.04901,-0.131934 -0.07344,-0.321702 -0.07344,-0.585685 0,-0.255737 0.02444,-0.59408 0.07344,-1.014825 -0.1634,0.396053 -0.359684,0.792106 -0.572351,1.20457 -0.212664,0.38781 -0.376071,0.651782 -0.5071,0.792106 -0.122709,0.140196 -0.253355,0.189769 -0.376071,0.15672 -0.08177,-0.03305 -0.147149,-0.08262 -0.179906,-0.173244 -0.03275,-0.08262 -0.04901,-0.19803 -0.04901,-0.338226 0,-0.11567 0.0079,-0.255736 0.02444,-0.429101 l -0.8994,0.792106 c -0.548027,0.470431 -0.932418,0.60221 -1.169515,0.379415 -0.155338,-0.148457 -0.196285,-0.39594 -0.114523,-0.750701 0.03275,-0.140195 0.08189,-0.288785 0.147149,-0.437231 0.06539,-0.140324 0.130898,-0.255737 0.196285,-0.346617 0.27805,-0.379415 0.572352,-0.643539 0.90772,-0.81676 0.106202,-0.04958 0.196157,-0.09075 0.29417,-0.115541 l 0.130898,-0.03305 c 0.0572,0 0.114523,0.01652 0.155466,0.04957 0.04069,0.04118 0.06551,0.09076 0.07344,0.148457 v 0.01652 c 0,0.0577 -0.01625,0.09901 -0.0572,0.140195 a 0.19193335,0.19364027 0 0 1 -0.130643,0.07423 l -0.09827,0.02479 a 0.68662739,0.69273379 0 0 0 -0.228915,0.09902 c -0.253355,0.140324 -0.490721,0.363012 -0.703231,0.659912 -0.08995,0.131934 -0.163527,0.288786 -0.229042,0.47028 -0.04901,0.156848 -0.07358,0.288786 -0.07358,0.404335 0,0.04118 0.0081,0.07423 0.01638,0.09075 0.122581,-0.0081 0.318866,-0.131934 0.605109,-0.379416 l 0.42532,-0.379529 0.596788,-0.519588 a 1.1024643,1.1122688 0 0 1 0.21266,-0.140325 c 0.08995,-0.04118 0.171717,-0.04118 0.253356,0 0.08995,0.04957 0.139218,0.148457 0.139218,0.297043 l -0.0082,0.15672 -0.0082,0.03305 -0.04095,0.420859 c 0.09827,-0.131933 0.196412,-0.321834 0.319125,-0.552788 a 28.944419,29.201829 0 0 0 0.539595,-1.121949 c -0.220726,0.09075 -0.408829,0.164982 -0.572352,0.239341 l -0.163655,0.0081 c -0.0572,-0.01652 -0.08996,-0.05771 -0.114523,-0.107276 -0.02444,-0.04944 -0.02444,-0.107146 -0.0082,-0.164981 0.01651,-0.0577 0.05745,-0.09888 0.106461,-0.123671 l 0.302359,-0.1238 c 0.22917,-0.09902 0.458077,-0.189768 0.678795,-0.263999 0.155466,-0.379416 0.294429,-0.750701 0.417149,-1.13023 l 0.09827,-0.321702 0.03276,-0.123799 c 0.01625,-0.05771 0.04901,-0.09902 0.09801,-0.1238 a 0.17529988,0.17685887 0 0 1 0.155465,-0.02465 c 0.04901,0.0081 0.08995,0.03305 0.122709,0.07423 0.02444,0.03305 0.04069,0.08249 0.04069,0.131934 v 0.04118 l -0.07344,0.379416 c -0.0572,0.305309 -0.106202,0.594079 -0.155466,0.8745 0.564294,-0.131933 0.940477,-0.123799 1.161345,0.04118 0.122454,0.09915 0.187968,0.239341 0.187968,0.412577 l -0.0572,0.412313 -0.09801,0.668306 0.204219,-0.321701 c 0.327183,-0.527983 0.539857,-0.849695 0.637979,-0.973495 0.07344,-0.09075 0.147149,-0.148457 0.204475,-0.181506 l 0.196157,-0.0081 c 0.0572,0.02466 0.106202,0.05771 0.138959,0.107275 0.04094,0.04945 0.06551,0.131934 0.0737,0.230951 0.01625,0.148457 0.0082,0.462036 -0.01651,0.948841 -0.02444,0.404183 -0.07344,1.064246 -0.155211,1.94699 l 0.376071,-0.04944 c 0.923987,-0.11567 1.668295,-0.148587 2.21606,-0.107276 z M 8.71187,13.325905 l 0.01625,0.0661 c 0,0.07423 -0.03263,0.173244 -0.09814,0.280523 -0.08995,0.148458 -0.229042,0.313572 -0.416999,0.494935 l -0.310804,0.288785 c 0.065387,-0.231079 0.163527,-0.453907 0.28624,-0.676588 0.171717,-0.280523 0.318997,-0.445361 0.449756,-0.461885 z m -3.5981228,0.915679 -0.081766,0.247604 -0.1635274,0.552636 c -0.098272,0.363012 -0.1553382,0.635258 -0.1718443,0.833285 -0.016251,0.140195 0,0.255608 0.032757,0.330092 0.016378,0.06597 0.057198,0.107147 0.1063298,0.123671 0.057198,0.02478 0.1063298,0.02478 0.1635275,0 0.049009,-0.01653 0.089955,-0.05771 0.1145229,-0.123671 a 0.17312606,0.17466571 0 0 0 0,-0.156848 c -0.01625,-0.07423 0.00819,-0.280523 0.089951,-0.610491 a 10.505549,10.598978 0 0 1 0.3108075,-1.056003 c 0.01638,-0.05771 0.01638,-0.11567 -0.00819,-0.164982 -0.02457,-0.04957 -0.065387,-0.09075 -0.1225808,-0.107275 -0.049135,-0.01652 -0.10633,-0.0081 -0.1553381,0.0081 -0.057325,0.02491 -0.090083,0.0661 -0.1146504,0.123799 z m 0.5479154,-2.499778 c 0.04901,0.02478 0.081766,0.0661 0.098141,0.1238 0.02457,0.05771 0.01638,0.107275 -0.01638,0.156719 L 4.6395362,14.10964 3.3638034,16.460964 A 1.9197458,1.9368186 0 0 1 3.1838973,16.708567 C 3.0693782,16.79919 2.971234,16.840372 2.8649042,16.815714 a 0.28355239,0.28607409 0 0 1 -0.1717169,-0.1238 0.50106559,0.50552175 0 0 1 -0.065387,-0.206292 L 2.3006179,14.860345 V 14.8109 c 0,-0.04958 0.016378,-0.09076 0.049136,-0.131933 0.024439,-0.04131 0.065387,-0.0661 0.1145228,-0.07423 0.065387,-0.0083 0.1145192,0 0.1635275,0.03292 0.049009,0.03318 0.081766,0.07423 0.089951,0.131933 l 0.2862396,1.435645 C 3.1511436,15.965894 3.5846671,15.173886 4.3124847,13.812618 L 5.3755581,11.82445 c 0.024565,-0.04957 0.073576,-0.08262 0.1227083,-0.09915 z"
     id="path31" />
  <path
     id="path1040"
     style="opacity:0.2;fill:#ffffff;stroke-width:3.99996;stroke-linecap:square"
     d="M 6.4999577,2 C 4.0069861,2 2,4.0069861 2,6.4999577 V 6.999953 C 2,4.5069814 4.0069861,2.4999953 6.4999577,2.4999953 H 17.499854 c 2.492973,0 4.499958,2.0069861 4.499958,4.4999577 V 6.4999577 C 21.999812,4.0069861 19.992827,2 17.499854,2 Z" />
</svg>
