<?xml version="1.0" encoding="UTF-8" standalone="no"?>
<!-- Created with Inkscape (http://www.inkscape.org/) -->

<svg
   width="24"
   height="24"
   viewBox="0 0 24 24"
   version="1.1"
   id="svg5"
   inkscape:version="1.3 (0e150ed6c4, 2023-07-21)"
   sodipodi:docname="hwinfo.svg"
   xmlns:inkscape="http://www.inkscape.org/namespaces/inkscape"
   xmlns:sodipodi="http://sodipodi.sourceforge.net/DTD/sodipodi-0.dtd"
   xmlns="http://www.w3.org/2000/svg"
   xmlns:svg="http://www.w3.org/2000/svg">
  <sodipodi:namedview
     id="namedview7"
     pagecolor="#ffffff"
     bordercolor="#000000"
     borderopacity="0.25"
     inkscape:showpageshadow="2"
     inkscape:pageopacity="0.0"
     inkscape:pagecheckerboard="0"
     inkscape:deskcolor="#d1d1d1"
     inkscape:document-units="px"
     showgrid="false"
     inkscape:zoom="32.625"
     inkscape:cx="11.984674"
     inkscape:cy="12"
     inkscape:window-width="1920"
     inkscape:window-height="984"
     inkscape:window-x="0"
     inkscape:window-y="29"
     inkscape:window-maximized="1"
     inkscape:current-layer="svg5" />
  <defs
     id="defs2" />
  <rect
     style="opacity:0.2;fill:#000000;stroke-width:1.42857;stroke-linecap:square"
     id="rect234"
     width="20"
     height="20"
     x="2"
     y="2.4999995"
     ry="4.5" />
  <rect
     style="fill:#419d45;fill-opacity:1;stroke-width:1.42857;stroke-linecap:square"
     id="rect396"
     width="20"
     height="20"
     x="2"
     y="2"
     ry="4.5" />
  <rect
     style="opacity:0.2;fill:#000000"
     id="rect1"
     width="14"
     height="14"
     x="5"
     y="5.5"
     ry="2" />
  <rect
     style="fill:#2c9bff;fill-opacity:1"
     id="rect2"
     width="14"
     height="14"
     x="5"
     y="5"
     ry="2" />
  <path
     id="path2"
     style="opacity:0.2;fill:#000000;stroke-width:0.88851"
     d="m 11,7.5 v 2 h 2 v -2 z m 0,4 v 6 h 2 v -6 z" />
  <path
     id="path1"
     style="fill:#ffffff;stroke-width:0.88851"
     d="m 11,7 v 2 h 2 V 7 Z m 0,4 v 6 h 2 v -6 z" />
  <path
     id="rect3"
     style="opacity:0.2;fill:#ffffff;fill-opacity:1;stroke-width:2"
     d="M 7,5 C 5.8920011,5 5,5.8920011 5,7 v 0.5 c 0,-1.1079989 0.8920011,-2 2,-2 h 10 c 1.107999,0 2,0.8920011 2,2 V 7 C 19,5.8920011 18.107999,5 17,5 Z" />
  <path
     id="path1040"
     style="opacity:0.2;fill:#ffffff;stroke-width:4;stroke-linecap:square"
     d="M 6.5,2.0000001 C 4.007005,2.0000001 2,4.0070051 2,6.5 V 7 C 2,4.5070051 4.007005,2.5000001 6.5,2.5000001 h 11 C 19.992996,2.5000001 22,4.5070051 22,7 V 6.5 C 22,4.0070052 19.992996,2.0000001 17.5,2.0000001 Z" />
</svg>
