<?xml version="1.0" encoding="UTF-8" standalone="no"?>
<!-- Created with Inkscape (http://www.inkscape.org/) -->

<svg
   width="24"
   height="24"
   viewBox="0 0 24 24"
   version="1.1"
   id="svg5"
   inkscape:version="1.3 (0e150ed6c4, 2023-07-21)"
   sodipodi:docname="kaddressbook.svg"
   xmlns:inkscape="http://www.inkscape.org/namespaces/inkscape"
   xmlns:sodipodi="http://sodipodi.sourceforge.net/DTD/sodipodi-0.dtd"
   xmlns="http://www.w3.org/2000/svg"
   xmlns:svg="http://www.w3.org/2000/svg">
  <sodipodi:namedview
     id="namedview7"
     pagecolor="#ffffff"
     bordercolor="#000000"
     borderopacity="0.25"
     inkscape:showpageshadow="2"
     inkscape:pageopacity="0.0"
     inkscape:pagecheckerboard="0"
     inkscape:deskcolor="#d1d1d1"
     inkscape:document-units="px"
     showgrid="false"
     inkscape:zoom="32.625"
     inkscape:cx="11.984674"
     inkscape:cy="12"
     inkscape:window-width="1920"
     inkscape:window-height="984"
     inkscape:window-x="0"
     inkscape:window-y="29"
     inkscape:window-maximized="1"
     inkscape:current-layer="svg5" />
  <defs
     id="defs2" />
  <rect
     style="opacity:0.2;fill:#000000;stroke-width:1.42857;stroke-linecap:square"
     id="rect234"
     width="20"
     height="20"
     x="2"
     y="2.5"
     ry="4.5" />
  <rect
     style="fill:#ec9006;fill-opacity:1;stroke-width:1.42857;stroke-linecap:square"
     id="rect396"
     width="20"
     height="20"
     x="2"
     y="2"
     ry="4.5" />
  <path
     id="path1-3"
     style="opacity:0.2;fill:#000000;stroke-width:0.5"
     d="m 14,7.5 c -1.380697,0 -2.5,1.1193529 -2.5,2.5 0,1.380648 1.119303,2.5 2.5,2.5 1.380697,0 2.5,-1.119352 2.5,-2.5 0,-1.3806471 -1.119303,-2.5 -2.5,-2.5 z m 0,7 c -4.99999,0.0027 -5,3 -5,3 h 10 c 0,0 -10e-6,-3.0025 -5,-3 z" />
  <path
     id="path1"
     style="fill:#ffffff;stroke-width:0.5"
     d="m 14,7 c -1.380697,0 -2.5,1.1193529 -2.5,2.5 0,1.380648 1.119303,2.5 2.5,2.5 1.380697,0 2.5,-1.119352 2.5,-2.5 C 16.5,8.1193529 15.380697,7 14,7 Z m 0,7 c -4.99999,0.0027 -5,3 -5,3 h 10 c 0,0 -10e-6,-3.0025 -5,-3 z" />
  <path
     id="rect391"
     style="opacity:0.4;fill:#000000;fill-opacity:1;stroke-width:2;stroke-linecap:square"
     d="M 6.5,2 C 4.007005,2 2,4.0070045 2,6.5 v 11 C 2,19.992995 4.007005,22 6.5,22 H 7 V 2 Z" />
  <path
     id="path1040"
     style="opacity:0.2;fill:#ffffff;stroke-width:4;stroke-linecap:square"
     d="M 6.5,2 C 4.007005,2 2,4.007005 2,6.5 V 7 C 2,4.507005 4.007005,2.5 6.5,2.5 h 11 C 19.992996,2.5 22,4.507005 22,7 V 6.5 C 22,4.007005 19.992996,2 17.5,2 Z" />
</svg>
