<?xml version="1.0" encoding="UTF-8" standalone="no"?>
<!-- Created with Inkscape (http://www.inkscape.org/) -->

<svg
   width="24"
   height="24"
   viewBox="0 0 24 24"
   version="1.1"
   id="svg5"
   inkscape:version="1.2.2 (1:1.2.2+202305151914+b0a8486541)"
   sodipodi:docname="libreoffice-writer.svg"
   xmlns:inkscape="http://www.inkscape.org/namespaces/inkscape"
   xmlns:sodipodi="http://sodipodi.sourceforge.net/DTD/sodipodi-0.dtd"
   xmlns="http://www.w3.org/2000/svg"
   xmlns:svg="http://www.w3.org/2000/svg">
  <sodipodi:namedview
     id="namedview7"
     pagecolor="#ffffff"
     bordercolor="#000000"
     borderopacity="0.25"
     inkscape:showpageshadow="2"
     inkscape:pageopacity="0.0"
     inkscape:pagecheckerboard="0"
     inkscape:deskcolor="#d1d1d1"
     inkscape:document-units="px"
     showgrid="false"
     inkscape:zoom="34.583333"
     inkscape:cx="12"
     inkscape:cy="12"
     inkscape:window-width="1920"
     inkscape:window-height="1008"
     inkscape:window-x="0"
     inkscape:window-y="0"
     inkscape:window-maximized="1"
     inkscape:current-layer="svg5" />
  <defs
     id="defs2" />
  <rect
     style="opacity:0.2;fill:#000000;stroke-width:1.42857;stroke-linecap:square"
     id="rect234"
     width="20"
     height="20"
     x="2"
     y="2.5"
     ry="4.5" />
  <rect
     style="fill:#1b83d4;fill-opacity:1;stroke-width:1.42857;stroke-linecap:square"
     id="rect396"
     width="20"
     height="20"
     x="2"
     y="2"
     ry="4.5" />
  <path
     d="m 6,9 v 0.5 h 5 V 9 Z m 0,2 v 0.499999 h 5 V 11 Z m 0,1.999999 v 0.5 h 5 v -0.5 z m 6,0 v 0.5 h 6 v -0.5 z m -6,2 v 0.5 h 12 v -0.5 z m 0,2 v 0.5 h 5 v -0.5 z"
     style="opacity:0.2;fill:#000000"
     id="path2126" />
  <path
     d="m 6,8 v 1 h 5 V 8 Z m 0,2 v 1 h 5 v -1 z m 0,1.999999 v 1 h 5 v -1 z m 0,2 v 1 h 12 v -1 z m 0,2 v 1 h 5 v -1 z"
     style="fill:#ffffff"
     id="path2154" />
  <path
     d="m 12,8 v 4.999999 h 6 V 8 Z m 4.5,1 C 16.776142,9 17,9.223858 17,9.5 17,9.776143 16.776142,10 16.5,10 16.223858,10 16,9.776143 16,9.5 16,9.223858 16.223858,9 16.5,9 Z m -2.5,1 2,1.999999 h -3 z"
     style="fill:#7ad2f9"
     id="path2182" />
  <path
     id="path1040"
     style="opacity:0.2;fill:#ffffff;stroke-width:4;stroke-linecap:square"
     d="M 6.5,2 C 4.007005,2 2,4.007005 2,6.5 V 7 C 2,4.507005 4.007005,2.5 6.5,2.5 h 11 C 19.992996,2.5 22,4.507005 22,7 V 6.5 C 22,4.007005 19.992996,2 17.5,2 Z" />
</svg>
