<?xml version="1.0" encoding="UTF-8" standalone="no"?>
<!-- Created with Inkscape (http://www.inkscape.org/) -->

<svg
   width="24"
   height="24"
   viewBox="0 0 24 24"
   version="1.1"
   id="svg5"
   inkscape:version="1.2.2 (1:1.2.2+202305151914+b0a8486541)"
   sodipodi:docname="libreoffice-draw.svg"
   xmlns:inkscape="http://www.inkscape.org/namespaces/inkscape"
   xmlns:sodipodi="http://sodipodi.sourceforge.net/DTD/sodipodi-0.dtd"
   xmlns="http://www.w3.org/2000/svg"
   xmlns:svg="http://www.w3.org/2000/svg">
  <sodipodi:namedview
     id="namedview7"
     pagecolor="#ffffff"
     bordercolor="#000000"
     borderopacity="0.25"
     inkscape:showpageshadow="2"
     inkscape:pageopacity="0.0"
     inkscape:pagecheckerboard="0"
     inkscape:deskcolor="#d1d1d1"
     inkscape:document-units="px"
     showgrid="false"
     inkscape:zoom="33.583333"
     inkscape:cx="12"
     inkscape:cy="12"
     inkscape:window-width="1920"
     inkscape:window-height="1008"
     inkscape:window-x="0"
     inkscape:window-y="0"
     inkscape:window-maximized="1"
     inkscape:current-layer="svg5" />
  <defs
     id="defs2" />
  <rect
     style="opacity:0.2;fill:#000000;stroke-width:1.42857;stroke-linecap:square"
     id="rect234"
     width="20"
     height="20"
     x="2"
     y="2.5"
     ry="4.5" />
  <rect
     style="fill:#f3ae16;fill-opacity:1;stroke-width:1.42857;stroke-linecap:square"
     id="rect396"
     width="20"
     height="20"
     x="2"
     y="2"
     ry="4.5" />
  <path
     d="m 9,7.5000005 c -1.66,0 -3,1.3399999 -3,3.0000005 0,1.66 1.34,3 3,3 0.4,0 0.79,-0.08 1.16,-0.24 l -2.16,3.24 h 8 l -1.33,-2 H 18 V 9.5000004 h -5 v 2.5000006 l -1,-1.5 C 12,8.8400004 10.66,7.5000005 9,7.5000005 Z m 5,3.0000005 h 3 v 3 h -3 z"
     style="opacity:0.2;fill:#000000"
     id="path846" />
  <circle
     style="fill:#fafafa;fill-opacity:1;stroke-width:2;stroke-linecap:square"
     id="path464"
     cx="9"
     cy="10"
     r="3" />
  <path
     d="m 13,9.0000004 v 5.0000006 h 5 V 9.0000004 Z M 14,10 h 3 v 3.000001 h -3 z"
     style="fill:#fafafa"
     id="path314" />
  <path
     d="m 12,10 4,6.000001 H 8.0000001 Z"
     style="fill:#fde9b6"
     id="path392" />
  <path
     id="path1040"
     style="opacity:0.2;fill:#ffffff;stroke-width:4;stroke-linecap:square"
     d="M 6.5,2 C 4.007005,2 2,4.007005 2,6.5 V 7 C 2,4.507005 4.007005,2.5 6.5,2.5 h 11 C 19.992996,2.5 22,4.507005 22,7 V 6.5 C 22,4.007005 19.992996,2 17.5,2 Z" />
</svg>
