<?xml version="1.0" encoding="UTF-8" standalone="no"?>
<!-- Created with Inkscape (http://www.inkscape.org/) -->

<svg
   width="24"
   height="24"
   viewBox="0 0 24 24"
   version="1.1"
   id="svg5"
   inkscape:version="1.2.2 (1:1.2.2+202305151914+b0a8486541)"
   sodipodi:docname="lunarclient.svg"
   xmlns:inkscape="http://www.inkscape.org/namespaces/inkscape"
   xmlns:sodipodi="http://sodipodi.sourceforge.net/DTD/sodipodi-0.dtd"
   xmlns="http://www.w3.org/2000/svg"
   xmlns:svg="http://www.w3.org/2000/svg">
  <sodipodi:namedview
     id="namedview7"
     pagecolor="#ffffff"
     bordercolor="#000000"
     borderopacity="0.25"
     inkscape:showpageshadow="2"
     inkscape:pageopacity="0.0"
     inkscape:pagecheckerboard="0"
     inkscape:deskcolor="#d1d1d1"
     inkscape:document-units="px"
     showgrid="false"
     inkscape:zoom="33.583333"
     inkscape:cx="11.985112"
     inkscape:cy="12"
     inkscape:window-width="1920"
     inkscape:window-height="1008"
     inkscape:window-x="0"
     inkscape:window-y="0"
     inkscape:window-maximized="1"
     inkscape:current-layer="svg5" />
  <defs
     id="defs2" />
  <rect
     style="opacity:0.2;fill:#000000;stroke-width:1.42857;stroke-linecap:square"
     id="rect234"
     width="20"
     height="20"
     x="2"
     y="2.4999995"
     ry="4.5" />
  <rect
     style="fill:#4f4f4f;fill-opacity:1;stroke-width:1.42857;stroke-linecap:square"
     id="rect396"
     width="20"
     height="20"
     x="2"
     y="2"
     ry="4.5" />
  <path
     d="m 12,5.0000021 c -0.0824,-2.387e-4 -0.163583,0.019889 -0.236328,0.058594 0,0 -1.630343,0.8760545 -3.263672,1.8183593 C 7.683336,7.3481078 6.866595,7.8358768 6.242187,8.2441428 5.929984,8.4482758 5.666721,8.6299158 5.464844,8.7929708 5.363905,8.8745008 5.279289,8.9499808 5.201172,9.0371118 5.123052,9.1242418 5,9.1959668 5,9.4980488 V 15.498049 H 6 V 9.6562518 c 0.02685,-0.02535 0.04522,-0.04479 0.09375,-0.08398 C 6.24734,9.4482178 6.491892,9.2743878 6.789062,9.0800838 7.383403,8.6914768 8.191667,8.2104928 9,7.7441468 c 1.498422,-0.8644744 2.788342,-1.5595409 3,-1.6738282 0.211658,0.1142873 1.501577,0.8093538 3,1.6738282 0.808332,0.466346 1.616598,0.94733 2.210938,1.335937 0.29717,0.194304 0.541722,0.368134 0.695312,0.492188 0.04853,0.0392 0.0669,0.05863 0.09375,0.08398 v 5.8417972 h 1 V 9.4980488 C 19,9.1959668 18.876945,9.1242418 18.798828,9.0371118 18.720708,8.9499808 18.636095,8.8744988 18.535156,8.7929708 18.333278,8.6299158 18.070017,8.4482758 17.757812,8.2441428 17.133405,7.8358768 16.316664,7.3481078 15.5,6.8769552 13.866672,5.9346504 12.236328,5.0585959 12.236328,5.0585959 12.163583,5.0198913 12.0824,4.9997634 12,5.0000021 Z m -0.244141,1.8710938 -0.132812,0.2421875 -0.242188,0.1328125 0.242188,0.1328125 0.132812,0.2421874 0.132813,-0.2421874 0.242187,-0.1328125 -0.242187,-0.1328125 z m -1.27539,1.1074219 C 8.960423,8.7418828 8.000699,10.297089 8,11.998049 c 0.0039,1.689173 0.953543,3.233863 2.458984,4 H 4.5 v 0.25 H 6 v 0.25 H 4.5 v 0.25 H 7 v 0.25 H 5 v 0.25 h 3 v 0.25 H 6.5 v 0.25 H 10 v 0.25 H 9.5 v 0.25 h 5 v -0.25 H 14 v -0.25 h 3.5 v -0.25 H 16 v -0.25 h 3 v -0.25 h -1.5 v -0.25 h 2 v -0.25 H 18 v -0.25 h 1.5 v -0.25 H 14.539062 C 15.393082,15.565372 16.086854,14.8716 16.519531,14.01758 15.893,14.332942 15.201423,14.497475 14.5,14.498049 c -2.485281,0 -4.5,-2.014719 -4.5,-4.5000002 5.73e-4,-0.701423 0.165107,-1.393 0.480469,-2.019531 z m 4.77539,0.867187 -0.132812,0.242188 -0.242188,0.132812 0.242188,0.132813 0.132812,0.242187 0.13086,-0.242187 0.24414,-0.132813 -0.24414,-0.132812 z m -4.009765,0.423829 -0.177735,0.322265 -0.322265,0.177735 0.322265,0.177734 0.177735,0.3222662 0.175781,-0.3222662 0.324219,-0.177734 -0.324219,-0.177735 z m -4.046875,0.128906 -0.13086,0.242187 -0.24414,0.132813 0.24414,0.132812 0.13086,0.2421882 0.132812,-0.2421882 0.242188,-0.132812 -0.242188,-0.132813 z m 6.001953,0.9765622 -0.13086,0.242188 -0.24414,0.132812 0.24414,0.132813 0.13086,0.242187 0.132812,-0.242187 0.242188,-0.132813 -0.242188,-0.132812 z M 16.25,10.998049 15.984375,11.482424 15.5,11.748049 15.984375,12.013674 16.25,12.498049 16.515625,12.013674 17,11.748049 16.515625,11.482424 Z m -2.5,0.75 -0.177734,0.322266 L 13.25,12.248049 13.572266,12.425783 13.75,12.748049 13.927734,12.425783 14.25,12.248049 13.927734,12.070315 Z M 7.265625,13.513674 7,13.998049 6.515625,14.263674 7,14.529299 7.265625,15.013674 7.53125,14.529299 8.015625,14.263674 7.53125,13.998049 Z"
     style="opacity:0.2;fill:#000000"
     id="path741" />
  <path
     d="m 12,4.5000021 c -0.0824,-2.387e-4 -0.163583,0.019889 -0.236328,0.058594 0,0 -1.630343,0.8760545 -3.263672,1.8183593 C 7.6833357,6.8481078 6.8665949,7.3358765 6.2421875,7.7441428 5.9299838,7.9482761 5.6667215,8.129916 5.4648438,8.292971 5.363905,8.374501 5.2792888,8.449981 5.2011719,8.537111 5.1230549,8.624241 5,8.695966 5,8.998049 v 6 H 6 V 9.156252 C 6.026849,9.130902 6.045221,9.111462 6.09375,9.072272 6.2473402,8.948214 6.4918924,8.774384 6.7890625,8.58008 7.3834027,8.191473 8.1916675,7.7104885 9,7.2441428 c 1.498422,-0.8644744 2.788342,-1.5595409 3,-1.6738282 0.211658,0.1142873 1.501577,0.8093538 3,1.6738282 0.808332,0.4663457 1.616598,0.9473302 2.210938,1.3359372 0.29717,0.194304 0.541722,0.368134 0.695312,0.492188 0.04853,0.0392 0.0669,0.05863 0.09375,0.08398 v 5.841797 h 1 v -6 C 19,8.695962 18.876945,8.624238 18.798828,8.537107 18.720708,8.449977 18.636095,8.374494 18.535156,8.292967 18.333278,8.129916 18.070017,7.9482761 17.757812,7.7441428 17.133405,7.3358765 16.316664,6.8481078 15.5,6.3769552 13.866672,5.4346504 12.236328,4.5585959 12.236328,4.5585959 12.163583,4.5198913 12.0824,4.4997634 12,4.5000021 Z m -0.244141,1.8710938 -0.132812,0.2421875 -0.242188,0.1328125 0.242188,0.1328125 0.132812,0.2421875 0.132813,-0.2421875 0.242187,-0.1328125 -0.242187,-0.1328125 z m -1.27539,1.1074219 C 8.9604227,8.241883 8.0006987,9.797089 8,11.498049 c 0.00395,1.689173 0.9535429,3.233863 2.458984,4 H 4.5 v 0.25 H 6 v 0.25 H 4.5 v 0.25 H 7 v 0.25 H 5 v 0.25 h 3 v 0.25 H 6.5 v 0.25 H 10 v 0.25 H 9.5 v 0.25 h 5 v -0.25 H 14 v -0.25 h 3.5 v -0.25 H 16 v -0.25 h 3 v -0.25 h -1.5 v -0.25 h 2 v -0.25 H 18 v -0.25 h 1.5 v -0.25 H 14.539062 C 15.393082,15.065372 16.086854,14.3716 16.519531,13.51758 15.893,13.832942 15.201423,13.997475 14.5,13.998049 c -2.485281,0 -4.5,-2.014719 -4.5,-4.5 5.74e-4,-0.701423 0.165107,-1.393 0.480469,-2.0195312 z m 4.77539,0.8671872 -0.132812,0.242188 -0.242188,0.132812 0.242188,0.132813 0.132812,0.242187 0.13086,-0.242187 0.24414,-0.132813 -0.24414,-0.132812 z m -4.009765,0.423828 -0.177735,0.322266 -0.322265,0.177734 0.322265,0.177735 0.177735,0.322265 0.175781,-0.322265 0.324219,-0.177735 -0.324219,-0.177734 z M 7.1992188,8.898439 7.0683594,9.140627 6.8242188,9.273439 7.0683594,9.406252 7.1992188,9.648439 7.3320312,9.406252 7.5742188,9.273439 7.3320312,9.140627 Z m 6.0019532,0.976563 -0.13086,0.242187 -0.24414,0.132813 0.24414,0.132812 0.13086,0.242188 0.132812,-0.242188 0.242188,-0.132812 -0.242188,-0.132813 z M 16.25,10.498049 15.984375,10.982424 15.5,11.248049 15.984375,11.513674 16.25,11.998049 16.515625,11.513674 17,11.248049 16.515625,10.982424 Z m -2.5,0.75 -0.177734,0.322266 L 13.25,11.748049 13.572266,11.925783 13.75,12.248049 13.927734,11.925783 14.25,11.748049 13.927734,11.570315 Z M 7.265625,13.013674 7,13.498049 6.515625,13.763674 7,14.029299 7.265625,14.513674 7.53125,14.029299 8.015625,13.763674 7.53125,13.498049 Z"
     style="fill:#ffffff"
     id="path444" />
  <path
     id="path1040"
     style="opacity:0.1;fill:#ffffff;stroke-width:4;stroke-linecap:square"
     d="M 6.5,2.0000002 C 4.007005,2.0000002 2,4.0070051 2,6.5 V 7 C 2,4.5070051 4.007005,2.5000002 6.5,2.5000002 h 11 C 19.992996,2.5000002 22,4.5070051 22,7 V 6.5 C 22,4.0070051 19.992996,2.0000002 17.5,2.0000002 Z" />
</svg>
