<?xml version="1.0" encoding="UTF-8" standalone="no"?>
<!-- Created with Inkscape (http://www.inkscape.org/) -->

<svg
   width="24"
   height="24"
   viewBox="0 0 24 24"
   version="1.1"
   id="svg5"
   inkscape:version="1.3.2 (091e20ef0f, 2023-11-25, custom)"
   sodipodi:docname="mcpelauncher-ui-qt.svg"
   xmlns:inkscape="http://www.inkscape.org/namespaces/inkscape"
   xmlns:sodipodi="http://sodipodi.sourceforge.net/DTD/sodipodi-0.dtd"
   xmlns="http://www.w3.org/2000/svg"
   xmlns:svg="http://www.w3.org/2000/svg">
  <sodipodi:namedview
     id="namedview7"
     pagecolor="#ffffff"
     bordercolor="#000000"
     borderopacity="0.25"
     inkscape:showpageshadow="2"
     inkscape:pageopacity="0.0"
     inkscape:pagecheckerboard="0"
     inkscape:deskcolor="#d1d1d1"
     inkscape:document-units="px"
     showgrid="false"
     inkscape:zoom="34.25"
     inkscape:cx="12"
     inkscape:cy="12"
     inkscape:window-width="1920"
     inkscape:window-height="1008"
     inkscape:window-x="0"
     inkscape:window-y="0"
     inkscape:window-maximized="1"
     inkscape:current-layer="svg5" />
  <defs
     id="defs2" />
  <rect
     style="opacity:0.2;fill:#000000;stroke-width:1.42857;stroke-linecap:square"
     id="rect234"
     width="20"
     height="20"
     x="2"
     y="2.5"
     ry="4.5" />
  <rect
     style="fill:#efefef;fill-opacity:1;stroke-width:1.42857;stroke-linecap:square"
     id="rect396"
     width="20"
     height="20"
     x="2"
     y="2"
     ry="4.5" />
  <path
     style="opacity:0.2;fill:#000000;stroke-width:0.5099"
     d="m 11.538594,5.4994515 v 9.5e-4 A 1.6487163,1.5917595 0 0 0 10.675312,5.712317 L 5.8246875,8.416418 A 1.6487163,1.5917595 0 0 0 5.489531,8.67035 C 5.178366,8.967864 5.0013225,9.371851 5,9.79535 v 0.866211 4.541992 a 1.6487163,1.5917595 0 0 0 0.8246875,1.377929 l 4.8506245,2.705079 a 1.6487163,1.5917595 0 0 0 1.649376,0 l 4.850624,-2.705079 A 1.6487163,1.5917595 0 0 0 18,15.203553 V 10.661561 9.79535 C 17.999939,9.680552 17.98642,9.566919 17.9614,9.456483 A 1.6487163,1.5917595 0 0 0 17.9563,9.436953 C 17.93146,9.333556 17.89608,9.233426 17.850675,9.137148 a 1.6487163,1.5917595 0 0 0 -0.01625,-0.03223 c -0.02424,-0.04848 -0.05098,-0.09564 -0.08023,-0.141602 l 0.0021,-0.001 a 1.6487163,1.5917595 0 0 0 -0.01422,-0.0166 c -0.02359,-0.03599 -0.04855,-0.0713 -0.07516,-0.105468 a 1.6487163,1.5917595 0 0 0 -0.01016,-0.01563 h -0.0021 C 17.609895,8.768548 17.562125,8.714771 17.509436,8.664457 A 1.6487163,1.5917595 0 0 0 17.175312,8.416444 L 12.324688,5.712342 A 1.6487163,1.5917595 0 0 0 11.538594,5.4994515 Z"
     id="path1" />
  <path
     style="fill:#474747;stroke-width:0.5099"
     d="M 5.3597005,8.324989 A 1.6487163,1.5917595 0 0 0 5,9.295689 v 5.408574 a 1.6487163,1.5917595 0 0 0 0.82449,1.378121 l 4.85102,2.704287 a 1.6487163,1.5917595 0 0 0 1.64898,0 l 4.85102,-2.704287 A 1.6487163,1.5917595 0 0 0 18,14.704263 V 9.295689 a 1.6487163,1.5917595 0 0 0 -0.342774,-0.9707 z"
     id="path2" />
  <path
     style="fill:#545454;stroke-width:0.5099"
     d="M 5.248264,8.465125 A 1.6487163,1.5917595 0 0 0 5,9.295689 v 5.408574 a 1.6487163,1.5917595 0 0 0 0.82449,1.378121 l 4.85102,2.704287 A 1.6487163,1.5917595 0 0 0 11.5,18.999952 v -6.999976 z"
     id="path3" />
  <path
     style="fill:#3d3d3d;stroke-width:0.5099"
     d="m 11.500001,15.674962 1.56,-0.848921 v 0.918747 l -1.56,0.848921 z"
     id="path4" />
  <path
     style="fill:#323232;stroke-width:0.5099"
     d="m 15.92,13.378096 1.56,-0.94897 v 0.918747 l -1.56,0.948969 z"
     id="path5" />
  <path
     style="fill:#363636;stroke-width:0.5099"
     d="m 12.28,16.823395 1.56,-0.848658 v 0.918747 l -1.56,0.848659 z"
     id="path6" />
  <path
     style="fill:#3e3e3e;stroke-width:0.5099"
     d="m 15.92,15.445276 1.56,-0.87865 v 0.918748 l -1.56,0.878648 z"
     id="path7" />
  <path
     style="fill:#393939;stroke-width:0.5099"
     d="m 14.36,13.837469 2.6,-1.478342 v 0.918747 l -2.6,1.478341 z"
     id="path8" />
  <path
     style="fill:#4b4b4b;stroke-width:0.5099"
     d="m 10.72,15.250589 0.78,0.424373 v 0.918747 l -0.78,-0.424373 z"
     id="path9" />
  <path
     style="fill:#4b4b4b;stroke-width:0.5099"
     d="m 8.12,16.134336 1.56,0.778748 v 0.918747 L 8.12,17.053083 Z"
     id="path10" />
  <path
     style="fill:#424242;stroke-width:0.5099"
     d="m 7.08,13.837469 1.56,0.883572 v 0.918748 L 7.08,14.756215 Z"
     id="path11" />
  <path
     style="fill:#494949;stroke-width:0.5099"
     d="m 6.04,12.689035 1.56,0.813661 v 0.918746 l -1.56,-0.81366 z"
     id="path12" />
  <path
     style="fill:#4b4b4b;stroke-width:0.5099"
     d="m 5,13.837469 1.04,0.68906 v 0.918747 L 5,14.756215 Z"
     id="path13" />
  <path
     style="fill:#3b3b3b;stroke-width:0.5099"
     d="m 5,11.281067 0.52,0.27956 v 0.918746 L 5,12.199813 Z"
     id="path14" />
  <path
     style="fill:#3c3c3c;stroke-width:0.5099"
     d="m 13.32,16.044563 1.56,-0.848573 v 0.918747 l -1.559999,0.848572 z"
     id="path15" />
  <path
     style="opacity:0.2;fill:#000000;stroke-width:0.5099"
     d="M 17.495234,8.650305 11.5,12.04093 5.506797,8.652258 C 5.184071,8.951278 5.0013485,9.363967 5,9.795813 v 0.866211 l 0.52,0.30957 v 0.748047 l 2.08,1.175781 v -0.769531 l 0.52,0.274414 v 0.789062 l 1.56,0.881836 v -0.807617 l 0.52,0.324219 v 0.777343 l 1.3,0.735352 0.78,-0.441407 v -0.810546 l 1.56,-0.889648 v 0.818359 l 1.04,-0.587891 v -0.789062 l 0.525079,-0.294922 -0.0091,0.791992 L 17.48,11.719641 V 10.971594 L 18,10.662024 V 9.795813 C 17.999773,9.363893 17.817275,8.950115 17.495234,8.650305 Z"
     id="path16" />
  <path
     style="fill:#638f01;stroke-width:0.5099"
     d="M 17.495234,8.150391 11.5,11.541016 v 2.296875 0.762695 l 0.78,-0.441407 v -0.810546 l 1.56,-0.889648 v 0.818359 l 1.04,-0.587891 v -0.789062 l 0.525078,-0.294922 -0.0091,0.791992 L 17.48,11.219727 V 10.47168 L 18,10.16211 V 9.295899 C 17.999773,8.863979 17.817275,8.4502 17.495234,8.150391 Z"
     id="path17" />
  <path
     style="fill:#74a011;stroke-width:0.5099"
     d="M 5.506797,8.152344 C 5.184071,8.451363 5.0013485,8.864053 5,9.295899 v 0.866211 l 0.52,0.30957 v 0.748047 l 2.08,1.175781 v -0.769531 l 0.52,0.274414 v 0.789062 l 1.56,0.881836 v -0.807617 l 0.52,0.324219 v 0.777344 l 1.3,0.735351 v -3.05957 z"
     id="path18" />
  <path
     style="fill:#8ec115;stroke-width:0.5099"
     d="m 11.538792,5 v 7e-4 A 1.6487163,1.5917595 0 0 0 10.67551,5.212612 L 5.82449,7.9169 A 1.6487163,1.5917595 0 0 0 5.248264,8.465125 L 11.5,11.999976 17.755967,8.463074 A 1.6487163,1.5917595 0 0 0 17.17551,7.916885 L 12.32449,5.212597 A 1.6487163,1.5917595 0 0 0 11.538792,5 Z"
     id="path19" />
  <path
     style="opacity:0.2;fill:#ffffff;stroke-width:0.5099"
     d="M 11.538594,5 V 5.001 A 1.6487163,1.5917595 0 0 0 10.675312,5.2129155 L 5.8246875,7.917018 A 1.6487163,1.5917595 0 0 0 5.489531,8.170924 C 5.178366,8.468438 5.0013225,8.872424 5,9.295924 V 9.794947 C 5.0013,9.371448 5.178366,8.967462 5.489531,8.669947 A 1.6487163,1.5917595 0 0 1 5.8246875,8.416041 L 10.675312,5.711939 A 1.6487163,1.5917595 0 0 1 11.538594,5.5 V 5.499 a 1.6487163,1.5917595 0 0 1 0.786094,0.2128905 l 4.850624,2.7041015 a 1.6487163,1.5917595 0 0 1 0.334141,0.248047 c 0.05269,0.05031 0.10047,0.104087 0.145235,0.160156 h 0.0021 a 1.6487163,1.5917595 0 0 1 0.01016,0.01563 c 0.02661,0.03417 0.05156,0.06948 0.07516,0.105469 a 1.6487163,1.5917595 0 0 1 0.01422,0.0166 l -0.0021,0.001 c 0.02926,0.04596 0.056,0.09312 0.08024,0.141601 a 1.6487163,1.5917595 0 0 1 0.01625,0.03223 c 0.0454,0.09628 0.08078,0.196408 0.105625,0.299805 a 1.6487163,1.5917595 0 0 1 0.0051,0.01953 c 0.02501,0.110436 0.03853,0.224069 0.0386,0.338867 v -0.49902 c -6.4e-5,-0.114799 -0.01358,-0.228432 -0.0386,-0.338867 a 1.6487163,1.5917595 0 0 0 -0.0051,-0.01953 C 17.931503,8.834113 17.896123,8.733984 17.850718,8.637706 a 1.6487163,1.5917595 0 0 0 -0.01625,-0.03223 c -0.02424,-0.04848 -0.05098,-0.09563 -0.08024,-0.141601 l 0.0021,-10e-4 a 1.6487163,1.5917595 0 0 0 -0.01422,-0.0166 c -0.0236,-0.03598 -0.04855,-0.0713 -0.07516,-0.105469 a 1.6487163,1.5917595 0 0 0 -0.01016,-0.01563 h -0.0021 C 17.609908,8.269106 17.562138,8.215332 17.509453,8.165018 A 1.6487163,1.5917595 0 0 0 17.175312,7.916992 L 12.324688,5.2128905 A 1.6487163,1.5917595 0 0 0 11.538594,5 Z"
     id="path20" />
  <path
     id="path1040"
     style="opacity:0.2;fill:#ffffff;stroke-width:4;stroke-linecap:square"
     d="M 6.5,2 C 4.0070049,2 2,4.0070048 2,6.5 V 7 C 2,4.5070048 4.0070049,2.5 6.5,2.5 h 11 C 19.992996,2.5 22,4.5070048 22,7 V 6.5 C 22,4.0070048 19.992996,2 17.5,2 Z" />
</svg>
