<?xml version="1.0" encoding="UTF-8" standalone="no"?>
<!-- Created with Inkscape (http://www.inkscape.org/) -->

<svg
   width="24"
   height="24"
   viewBox="0 0 24 24"
   version="1.1"
   id="svg5"
   inkscape:version="1.2.2 (1:1.2.2+202305151914+b0a8486541)"
   sodipodi:docname="mintinstall.svg"
   xmlns:inkscape="http://www.inkscape.org/namespaces/inkscape"
   xmlns:sodipodi="http://sodipodi.sourceforge.net/DTD/sodipodi-0.dtd"
   xmlns="http://www.w3.org/2000/svg"
   xmlns:svg="http://www.w3.org/2000/svg">
  <sodipodi:namedview
     id="namedview7"
     pagecolor="#ffffff"
     bordercolor="#000000"
     borderopacity="0.25"
     inkscape:showpageshadow="2"
     inkscape:pageopacity="0.0"
     inkscape:pagecheckerboard="0"
     inkscape:deskcolor="#d1d1d1"
     inkscape:document-units="px"
     showgrid="false"
     inkscape:zoom="33.583333"
     inkscape:cx="12"
     inkscape:cy="12"
     inkscape:window-width="1920"
     inkscape:window-height="1008"
     inkscape:window-x="0"
     inkscape:window-y="0"
     inkscape:window-maximized="1"
     inkscape:current-layer="svg5" />
  <defs
     id="defs2" />
  <rect
     style="opacity:0.2;fill:#000000;stroke-width:1.42857;stroke-linecap:square"
     id="rect234"
     width="20"
     height="20"
     x="2"
     y="2.5"
     ry="4.5" />
  <rect
     style="fill:#e4e4e4;fill-opacity:1;stroke-width:1.42857;stroke-linecap:square"
     id="rect396"
     width="20"
     height="20"
     x="2"
     y="2"
     ry="4.5" />
  <circle
     style="opacity:0.2;fill:#000000;fill-opacity:1;stroke-width:5;stroke-linecap:round;stroke-linejoin:round"
     id="path1572"
     cx="12"
     cy="12.5"
     r="7" />
  <circle
     style="fill:#8bc34a;fill-opacity:1"
     id="path3423"
     cx="12"
     cy="12"
     r="7" />
  <path
     d="m 8.3750004,8.5000001 h 1.25 c 0.21308,0 0.3749996,0.16515 0.3749996,0.375 V 10.125 C 10,10.33484 9.8380804,10.5 9.6250004,10.5 h -1.25 c -0.21308,0 -0.375,-0.16516 -0.375,-0.375 V 8.8750001 c 0,-0.20985 0.16192,-0.375 0.375,-0.375 z m 2.9999996,0 h 1.25 c 0.21308,0 0.375,0.16515 0.375,0.375 V 10.125 c 0,0.20984 -0.16192,0.375 -0.375,0.375 h -1.25 C 11.16192,10.5 11,10.33484 11,10.125 V 8.8750001 c 0,-0.20985 0.16192,-0.375 0.375,-0.375 z m 3,0 h 1.25 c 0.21308,0 0.375,0.16515 0.375,0.375 V 10.125 c 0,0.20984 -0.16192,0.375 -0.375,0.375 h -1.25 C 14.16192,10.5 14,10.33484 14,10.125 V 8.8750001 c 0,-0.20985 0.16192,-0.375 0.375,-0.375 z M 8.3750004,11.5 h 1.25 C 9.8380804,11.5 10,11.66515 10,11.875 v 1.25 C 10,13.33484 9.8380804,13.5 9.6250004,13.5 h -1.25 c -0.21308,0 -0.375,-0.16516 -0.375,-0.375 v -1.25 c 0,-0.20985 0.16192,-0.375 0.375,-0.375 z m 2.9999996,0 h 1.25 c 0.21308,0 0.375,0.16515 0.375,0.375 v 1.25 c 0,0.20984 -0.16192,0.375 -0.375,0.375 h -1.25 C 11.16192,13.5 11,13.33484 11,13.125 v -1.25 C 11,11.66515 11.16192,11.5 11.375,11.5 Z m 3,0 h 1.25 c 0.21308,0 0.375,0.16515 0.375,0.375 v 1.25 c 0,0.20984 -0.16192,0.375 -0.375,0.375 h -1.25 C 14.16192,13.5 14,13.33484 14,13.125 v -1.25 C 14,11.66515 14.16192,11.5 14.375,11.5 Z m -5.9999996,3 h 1.25 C 9.8380804,14.5 10,14.66515 10,14.875 v 1.25 C 10,16.33484 9.8380804,16.5 9.6250004,16.5 h -1.25 c -0.21308,0 -0.375,-0.16516 -0.375,-0.375 v -1.25 c 0,-0.20985 0.16192,-0.375 0.375,-0.375 z m 2.9999996,0 h 1.25 c 0.21308,0 0.375,0.16515 0.375,0.375 v 1.25 c 0,0.20984 -0.16192,0.375 -0.375,0.375 h -1.25 C 11.16192,16.5 11,16.33484 11,16.125 v -1.25 C 11,14.66515 11.16192,14.5 11.375,14.5 Z m 3,0 h 1.25 c 0.21308,0 0.375,0.16515 0.375,0.375 v 1.25 c 0,0.20984 -0.16192,0.375 -0.375,0.375 h -1.25 C 14.16192,16.5 14,16.33484 14,16.125 v -1.25 C 14,14.66515 14.16192,14.5 14.375,14.5 Z"
     style="color:#000000;display:inline;overflow:visible;visibility:visible;opacity:0.2;fill:#000000;fill-opacity:1;fill-rule:nonzero;stroke:none;stroke-width:4;marker:none;enable-background:accumulate"
     id="path1087" />
  <path
     d="m 8.375,8 h 1.25 C 9.83808,8 10,8.16515 10,8.375 v 1.2499999 c 0,0.20984 -0.16192,0.375 -0.375,0.375 h -1.25 c -0.21308,0 -0.375,-0.16516 -0.375,-0.375 V 8.375 C 8,8.16515 8.16192,8 8.375,8 Z m 3,0 h 1.25 C 12.83808,8 13,8.16515 13,8.375 v 1.2499999 c 0,0.20984 -0.16192,0.375 -0.375,0.375 h -1.25 c -0.21308,0 -0.375,-0.16516 -0.375,-0.375 V 8.375 C 11,8.16515 11.16192,8 11.375,8 Z m 3,0 h 1.25 C 15.83808,8 16,8.16515 16,8.375 v 1.2499999 c 0,0.20984 -0.16192,0.375 -0.375,0.375 h -1.25 c -0.21308,0 -0.375,-0.16516 -0.375,-0.375 V 8.375 C 14,8.16515 14.16192,8 14.375,8 Z m -6,3 h 1.25 C 9.83808,11 10,11.16515 10,11.375 v 1.25 C 10,12.83484 9.83808,13 9.625,13 H 8.375 C 8.16192,13 8,12.83484 8,12.625 v -1.25 C 8,11.16515 8.16192,11 8.375,11 Z m 3,0 h 1.25 C 12.83808,11 13,11.16515 13,11.375 v 1.25 C 13,12.83484 12.83808,13 12.625,13 h -1.25 C 11.16192,13 11,12.83484 11,12.625 v -1.25 C 11,11.16515 11.16192,11 11.375,11 Z m 3,0 h 1.25 C 15.83808,11 16,11.16515 16,11.375 v 1.25 C 16,12.83484 15.83808,13 15.625,13 h -1.25 C 14.16192,13 14,12.83484 14,12.625 v -1.25 C 14,11.16515 14.16192,11 14.375,11 Z m -6,3 h 1.25 C 9.83808,14 10,14.16515 10,14.375 v 1.25 C 10,15.83484 9.83808,16 9.625,16 H 8.375 C 8.16192,16 8,15.83484 8,15.625 v -1.25 C 8,14.16515 8.16192,14 8.375,14 Z m 3,0 h 1.25 C 12.83808,14 13,14.16515 13,14.375 v 1.25 C 13,15.83484 12.83808,16 12.625,16 h -1.25 C 11.16192,16 11,15.83484 11,15.625 v -1.25 C 11,14.16515 11.16192,14 11.375,14 Z m 3,0 h 1.25 C 15.83808,14 16,14.16515 16,14.375 v 1.25 C 16,15.83484 15.83808,16 15.625,16 h -1.25 C 14.16192,16 14,15.83484 14,15.625 v -1.25 C 14,14.16515 14.16192,14 14.375,14 Z"
     style="color:#000000;display:inline;overflow:visible;visibility:visible;fill:#ffffff;fill-opacity:1;fill-rule:nonzero;stroke:none;stroke-width:4;marker:none;enable-background:accumulate"
     id="path2232" />
  <path
     id="path1542"
     style="opacity:0.2;fill:#ffffff;fill-opacity:1;stroke-width:5;stroke-linecap:round;stroke-linejoin:round"
     d="M 12,5.0000001 A 7,7 0 0 0 5.0000004,12 7,7 0 0 0 5.0176004,12.25 7,7 0 0 1 12,5.5000001 7,7 0 0 1 18.99023,12.13477 7,7 0 0 0 19.00003,12 a 7,7 0 0 0 -7,-6.9999999 z" />
  <path
     id="path1040"
     style="opacity:0.2;fill:#ffffff;stroke-width:4;stroke-linecap:square"
     d="M 6.5,2 C 4.007005,2 2,4.007005 2,6.5 V 7 C 2,4.507005 4.007005,2.5 6.5,2.5 h 11 C 19.992996,2.5 22,4.507005 22,7 V 6.5 C 22,4.007005 19.992996,2 17.5,2 Z" />
</svg>
