<?xml version="1.0" encoding="UTF-8" standalone="no"?>
<!-- Created with Inkscape (http://www.inkscape.org/) -->

<svg
   width="24"
   height="24"
   viewBox="0 0 24 24"
   version="1.1"
   id="svg5"
   inkscape:version="1.4.3 (0d15f75042, 2025-12-25)"
   sodipodi:docname="modrinth-app.svg"
   xmlns:inkscape="http://www.inkscape.org/namespaces/inkscape"
   xmlns:sodipodi="http://sodipodi.sourceforge.net/DTD/sodipodi-0.dtd"
   xmlns="http://www.w3.org/2000/svg"
   xmlns:svg="http://www.w3.org/2000/svg">
  <sodipodi:namedview
     id="namedview7"
     pagecolor="#ffffff"
     bordercolor="#000000"
     borderopacity="0.25"
     inkscape:showpageshadow="2"
     inkscape:pageopacity="0.0"
     inkscape:pagecheckerboard="0"
     inkscape:deskcolor="#d1d1d1"
     inkscape:document-units="px"
     showgrid="false"
     inkscape:zoom="33.625"
     inkscape:cx="11.98513"
     inkscape:cy="12"
     inkscape:window-width="1920"
     inkscape:window-height="1010"
     inkscape:window-x="0"
     inkscape:window-y="0"
     inkscape:window-maximized="1"
     inkscape:current-layer="svg5" />
  <defs
     id="defs2" />
  <rect
     style="opacity:0.2;fill:#000000;stroke-width:1.42857;stroke-linecap:square"
     id="rect234"
     width="20"
     height="20"
     x="2"
     y="2.4999995"
     ry="4.5" />
  <rect
     style="fill:#4d4d4d;fill-opacity:1;stroke-width:1.42857;stroke-linecap:square"
     id="rect396"
     width="20"
     height="20"
     x="2"
     y="2"
     ry="4.5" />
  <path
     id="path1040"
     style="opacity:0.1;fill:#ffffff;stroke-width:4;stroke-linecap:square"
     d="M 6.5,2.0000001 C 4.007005,2.0000001 2,4.0070051 2,6.5 V 7 C 2,4.5070051 4.007005,2.5000001 6.5,2.5000001 h 11 C 19.992996,2.5000001 22,4.5070051 22,7 V 6.5 C 22,4.0070052 19.992996,2.0000001 17.5,2.0000001 Z" />
  <path
     d="m 12.271325,5.505499 c -0.68883,-0.0274 -1.393401,0.0471 -2.094311,0.23462 -2.8853223,0.77219 -4.8655838,3.23454 -5.158164,6.03454 h 1.1840109 c 0.2816402,-2.27336 1.9072314,-4.25852 4.2590731,-4.88797 2.906652,-0.77793 5.889315,0.79187 6.929475,3.54567 l -1.152291,0.30815 c -0.53019,-1.28106 -1.598481,-2.22032 -2.863672,-2.62036 l -0.21165,1.19875 c 0.998871,0.36832 1.809071,1.19875 2.105472,2.30372 0.43204,1.61028 -0.372421,3.2602 -1.832032,3.94461 l 0.315251,1.17552 c 1.918441,-0.79161 3.070982,-2.78523 2.798362,-4.84039 l 1.147911,-0.30709 c 0.12048,0.76634 0.0846,1.54917 -0.105531,2.30126 l 1.165101,0.42357 c 0.311451,-1.15091 0.332481,-2.39671 10e-4,-3.63129 -0.8138,-3.03326 -3.503112,-5.06466 -6.488075,-5.18331 z m -0.0818,2.40493 c -0.45664,-0.0194 -0.92419,0.029 -1.389031,0.15338 -2.4532915,0.65652 -3.9090726,3.17491 -3.2517321,5.62492 0.0596,0.22231 0.1345301,0.43611 0.2234002,0.64119 l -1.0552508,0.63302 c -0.1460101,-0.30953 -0.2665802,-0.63632 -0.3584603,-0.97839 -0.0878,-0.32649 -0.1454701,-0.65402 -0.1752801,-0.97968 H 5 c 0.0327,0.44149 0.1069201,0.87892 0.2217402,1.30647 1.0018807,3.73325 4.8442638,5.94893 8.5827168,4.9487 2.084421,-0.55782 3.696342,-1.99774 4.540993,-3.81009 l -1.165951,-0.42383 c -0.71149,1.45415 -2.025381,2.60476 -3.713583,3.05648 -2.345281,0.62754 -4.7403032,-0.27318 -6.1241742,-2.09127 l 1.0502807,-0.62998 c 0.9857505,1.2354 2.5724615,1.90778 4.1969635,1.69286 l -0.315251,-1.17552 c -1.08856,0.0922 -2.138571,-0.34949 -2.836932,-1.14464 l 1.362281,-0.81728 0.781491,0.87009 1.742631,-0.55184 1.039871,-1.27501 -0.30025,-0.67543 -1.007871,0.3191 -0.46159,0.50699 -0.648561,0.17255 c -8.2e-4,-2.7e-4 -0.45993,-0.48813 -0.45993,-0.48813 l -0.22671,-0.63078 0.46265,-0.47552 0.647551,-0.20369 0.74234,-0.75196 -0.46618,-0.57395 -1.610561,0.34698 -1.274211,1.30892 0.40658,1.07821 -1.3494111,0.80964 c -0.0399,-0.10555 -0.0749,-0.21412 -0.1050001,-0.3254 -0.4850704,-1.80853 0.5895202,-3.66708 2.4002322,-4.15189 0.28929,-0.0774 0.57969,-0.11484 0.86571,-0.11621 z"
     style="opacity:0.2;fill:#000000;fill-opacity:1;stroke-width:0.0273438"
     id="path1" />
  <path
     d="m 12.271325,5.005499 c -0.68883,-0.0274 -1.393401,0.0471 -2.094311,0.23462 -2.8853223,0.77219 -4.8655838,3.23454 -5.158164,6.03454 h 1.1840109 c 0.2816402,-2.27336 1.9072314,-4.25852 4.2590731,-4.88797 2.906652,-0.77793 5.889315,0.79187 6.929475,3.54567 l -1.152291,0.30815 c -0.53019,-1.28106 -1.598481,-2.22032 -2.863672,-2.62036 l -0.21165,1.19875 c 0.998871,0.36832 1.809071,1.19875 2.105472,2.30372 0.43204,1.61028 -0.372421,3.2602 -1.832032,3.94461 l 0.315251,1.17552 c 1.918441,-0.79161 3.070982,-2.78523 2.798362,-4.84039 l 1.147911,-0.30709 c 0.12048,0.76634 0.0846,1.54917 -0.105531,2.30126 l 1.165101,0.42357 c 0.311451,-1.15091 0.332481,-2.39671 10e-4,-3.63129 -0.8138,-3.03326 -3.503112,-5.06466 -6.488075,-5.18331 z m -0.0818,2.40493 c -0.45664,-0.0194 -0.92419,0.029 -1.389031,0.15338 -2.4532915,0.65652 -3.9090726,3.17491 -3.2517321,5.62492 0.0596,0.22231 0.1345301,0.43611 0.2234002,0.64119 l -1.0552508,0.63302 c -0.1460101,-0.30953 -0.2665802,-0.63632 -0.3584603,-0.97839 -0.0878,-0.32649 -0.1454701,-0.65402 -0.1752801,-0.97968 H 5 c 0.0327,0.44149 0.1069201,0.87892 0.2217402,1.30647 1.0018807,3.73325 4.8442638,5.94893 8.5827168,4.9487 2.084421,-0.55782 3.696342,-1.99774 4.540993,-3.81009 l -1.165951,-0.42383 c -0.71149,1.45415 -2.025381,2.60476 -3.713583,3.05648 -2.345281,0.62754 -4.7403032,-0.27318 -6.1241742,-2.09127 l 1.0502807,-0.62998 c 0.9857505,1.2354 2.5724615,1.90778 4.1969635,1.69286 l -0.315251,-1.17552 c -1.08856,0.0922 -2.138571,-0.34949 -2.836932,-1.14464 l 1.362281,-0.81728 0.781491,0.87009 1.742631,-0.55184 1.039871,-1.27501 -0.30025,-0.67543 -1.007871,0.3191 -0.46159,0.50699 -0.648561,0.17255 c -8.2e-4,-2.7e-4 -0.45993,-0.48813 -0.45993,-0.48813 l -0.22671,-0.63078 0.46265,-0.47552 0.647551,-0.20369 0.74234,-0.75196 -0.46618,-0.57395 -1.610561,0.34698 -1.274211,1.30892 0.40658,1.07821 -1.3494111,0.80964 c -0.0399,-0.10555 -0.0749,-0.21412 -0.1050001,-0.3254 -0.4850704,-1.80853 0.5895202,-3.66708 2.4002322,-4.15189 0.28929,-0.0774 0.57969,-0.11484 0.86571,-0.11621 z"
     style="fill:#1bd96a;fill-opacity:1;stroke-width:0.0273438"
     id="path2" />
  <path
     id="path3"
     style="opacity:0.2;fill:#ffffff;fill-opacity:1;stroke-width:0.0273438"
     d="m 12.271484,5.0058594 c -0.68883,-0.0274 -1.39284,0.046855 -2.09375,0.234375 -2.8853219,0.77219 -4.8656226,3.2351562 -5.1582028,6.0351566 h 0.070313 C 5.552572,8.6860282 7.46551,6.4660987 10.177734,5.7402344 c 0.70091,-0.18752 1.40492,-0.261775 2.09375,-0.234375 2.984963,0.11865 5.674482,2.1503337 6.488282,5.1835936 0.140307,0.522566 0.217624,1.045914 0.236328,1.564453 0.02452,-0.67966 -0.05073,-1.373202 -0.236328,-2.064453 -0.8138,-3.0332599 -3.503319,-5.0649436 -6.488282,-5.1835936 z m -0.08203,2.4042968 c -0.45664,-0.0194 -0.923831,0.029917 -1.388672,0.1542969 C 8.6619874,8.1368111 7.2817075,10.124484 7.3984375,12.248047 7.504532,10.31936 8.8309162,8.5916044 10.800781,8.0644531 11.23589,7.9480288 11.672876,7.8981939 12.101562,7.9082031 Z M 13.375,7.6210938 13.164062,8.8183594 c 0.02771,0.010217 0.05462,0.022279 0.08203,0.033203 L 13.375,8.1210938 c 1.265191,0.4000399 2.333091,1.3380806 2.863281,2.6191402 l 1.152344,-0.308593 C 17.3325,10.277756 17.269123,10.128709 17.199219,9.9824219 L 16.238281,10.240234 C 15.708091,8.9591744 14.640191,8.0211337 13.375,7.6210938 Z m -0.730469,2.0390624 -1.611328,0.3457028 -1.2734374,1.308594 0.1367188,0.361328 1.1367186,-1.169922 1.611328,-0.345703 0.244141,0.298828 0.222656,-0.226562 z m 1.417969,2.1249998 -1.007812,0.31836 -0.460938,0.507812 -0.648438,0.171875 c -8.19e-4,-2.7e-4 -0.460937,-0.488281 -0.460937,-0.488281 l -0.0957,-0.265625 -0.13086,0.134765 0.226563,0.63086 c 0,0 0.460118,0.488011 0.460937,0.488281 l 0.648438,-0.171875 0.460938,-0.507812 1.007812,-0.31836 0.15625,0.351563 0.144531,-0.175781 z m 2.527344,0.107422 -0.03906,0.0098 c 0.01553,0.117094 0.0268,0.233125 0.0332,0.349609 0.0066,-0.11955 0.0088,-0.238514 0.0059,-0.359375 z m 1.173828,0.345703 c -0.01698,0.389975 -0.07377,0.777844 -0.169922,1.158203 l 0.09766,0.03516 c 0.06568,-0.394507 0.08965,-0.794107 0.07227,-1.19336 z m -9.1582032,0.0098 c -0.0276,0.369922 0.00588,0.750307 0.1074218,1.128906 0.0301,0.11128 0.063616,0.220622 0.1035156,0.326172 l 1.3496098,-0.810547 -0.154297,-0.408203 -1.1953128,0.71875 c -0.0399,-0.10555 -0.073415,-0.214892 -0.1035156,-0.326172 -0.056281,-0.209839 -0.091847,-0.419945 -0.1074218,-0.628906 z m 6.7714842,0.0039 c -0.08978,1.203329 -0.823102,2.290998 -1.939453,2.814453 l 0.119141,0.44336 c 1.19876,-0.620347 1.920976,-1.907246 1.820312,-3.257813 z M 5,12.503906 c 0.012396,0.167356 0.03041,0.334128 0.054687,0.5 h 1.1289063 c 0.02981,0.32566 0.087981,0.653979 0.1757812,0.980469 0.09188,0.34207 0.2114118,0.668986 0.3574219,0.978516 l 1.054688,-0.632813 C 7.7141807,14.197842 7.6625268,14.061306 7.6171875,13.921875 L 6.7167969,14.462891 C 6.5707868,14.153361 6.4512551,13.826445 6.359375,13.484375 6.271575,13.157885 6.2134038,12.829566 6.1835938,12.503906 Z m 12.179688,2.021485 c -0.71149,1.45415 -2.024689,2.60492 -3.712891,3.05664 -2.196475,0.587723 -4.4373718,-0.164456 -5.8496095,-1.755859 l -0.2753906,0.166016 c 1.383871,1.818089 3.7797191,2.717383 6.1250001,2.089843 1.688202,-0.45172 3.001401,-1.60249 3.712891,-3.05664 l 0.951171,0.345703 c 0.07612,-0.138212 0.148149,-0.278768 0.214844,-0.421875 z M 9.75,14.546875 l -0.3125,0.1875 c 0.698361,0.79515 1.747378,1.236731 2.835938,1.144531 l 0.185546,0.691406 c 0.04329,-0.0045 0.0875,-0.0099 0.13086,-0.01562 L 12.273438,15.378906 C 11.337107,15.458213 10.430031,15.142758 9.75,14.546875 Z" />
</svg>
