<?xml version="1.0" encoding="UTF-8" standalone="no"?>
<!-- Created with Inkscape (http://www.inkscape.org/) -->

<svg
   width="24"
   height="24"
   viewBox="0 0 24 24"
   version="1.1"
   id="svg5"
   inkscape:version="1.3 (0e150ed6c4, 2023-07-21)"
   sodipodi:docname="ms-onenote.svg"
   xmlns:inkscape="http://www.inkscape.org/namespaces/inkscape"
   xmlns:sodipodi="http://sodipodi.sourceforge.net/DTD/sodipodi-0.dtd"
   xmlns="http://www.w3.org/2000/svg"
   xmlns:svg="http://www.w3.org/2000/svg">
  <sodipodi:namedview
     id="namedview7"
     pagecolor="#ffffff"
     bordercolor="#000000"
     borderopacity="0.25"
     inkscape:showpageshadow="2"
     inkscape:pageopacity="0.0"
     inkscape:pagecheckerboard="0"
     inkscape:deskcolor="#d1d1d1"
     inkscape:document-units="px"
     showgrid="false"
     inkscape:zoom="33.458333"
     inkscape:cx="12"
     inkscape:cy="12"
     inkscape:window-width="1850"
     inkscape:window-height="1011"
     inkscape:window-x="70"
     inkscape:window-y="32"
     inkscape:window-maximized="1"
     inkscape:current-layer="svg5" />
  <defs
     id="defs2" />
  <rect
     style="opacity:0.2;fill:#000000;stroke-width:1.42857;stroke-linecap:square"
     id="rect234"
     width="20"
     height="20"
     x="2"
     y="2.5"
     ry="4.5" />
  <rect
     style="fill:#efefef;fill-opacity:1;stroke-width:1.42857;stroke-linecap:square"
     id="rect396"
     width="20"
     height="20"
     x="2"
     y="2"
     ry="4.5" />
  <rect
     style="opacity:0.2;fill:#000000;fill-opacity:1;stroke-width:2;stroke-linecap:square"
     id="rect2906"
     width="10"
     height="12"
     x="8"
     y="6.4999995"
     ry="0.99999964" />
  <path
     id="rect1"
     style="opacity:1;fill:#ca64ea;fill-opacity:1"
     d="M 8.9999996,6 H 17 c 0.554,0 1,0.4459998 1,0.9999996 V 9 l -3,9 H 8.9999996 C 8.4459998,18 8,17.554 8,17 V 6.9999996 C 8,6.4459998 8.4459998,6 8.9999996,6 Z"
     sodipodi:nodetypes="sssccssss" />
  <path
     id="path1961"
     style="opacity:0.2;fill:#ffffff;stroke-width:2;stroke-linecap:square"
     d="m 9.0000004,6.000002 c -0.554,0 -1,0.446 -1,1 V 7.5 c 0,-0.554 0.446,-1 1,-1 h 8.0000036 c 0.554,0 1,0.446 1,1 V 7.000002 c 0,-0.554 -0.446,-1 -1,-1 z" />
  <rect
     style="opacity:0.2;fill:#000000;stroke-width:2;stroke-linecap:square"
     id="rect1099"
     width="7"
     height="7"
     x="5"
     y="9.5000019"
     ry="1" />
  <rect
     style="fill:#7719aa;fill-opacity:1;stroke-width:1.5;stroke-linecap:square"
     id="rect1101"
     width="7"
     height="7"
     x="5"
     y="9"
     ry="1" />
  <path
     id="path3"
     d="m 6,10 v 5 H 7 V 11.375 L 8.875,15 H 10 V 10 H 9 v 3.625 L 7.125,10 Z"
     style="fill:#ffffff;stroke-width:0.5" />
  <path
     id="path1040"
     style="opacity:0.2;fill:#ffffff;stroke-width:4;stroke-linecap:square"
     d="M 6.5,2 C 4.007005,2 2,4.007005 2,6.5 V 7 C 2,4.507005 4.007005,2.5 6.5,2.5 h 11 C 19.992996,2.5 22,4.507005 22,7 V 6.5 C 22,4.007005 19.992996,2 17.5,2 Z" />
  <rect
     style="opacity:1;fill:#ae4bd5;fill-opacity:1"
     id="rect2"
     width="3"
     height="4"
     x="15"
     y="9" />
  <rect
     style="opacity:1;fill:#9332bf;fill-opacity:1"
     id="rect3"
     width="3"
     height="4"
     x="15"
     y="12" />
  <path
     id="rect4"
     style="opacity:1;fill:#7719aa;fill-opacity:1"
     d="m 15,15 v 3 h 2 c 0.553999,0 1,-0.446001 1,-1 v -2 z" />
  <path
     id="path2886"
     style="opacity:0.1;fill:#000000;fill-opacity:1;stroke-width:2;stroke-linecap:square"
     d="m 15,9 v 0.5 h 3 V 9 Z m 0,3 v 0.5 h 3 V 12 Z m 0,3 v 0.5 h 3 V 15 Z" />
</svg>
