<?xml version="1.0" encoding="UTF-8" standalone="no"?>
<!-- Created with Inkscape (http://www.inkscape.org/) -->

<svg
   width="24"
   height="24"
   viewBox="0 0 24 24"
   version="1.1"
   id="svg5"
   inkscape:version="1.3.2 (091e20ef0f, 2023-11-25, custom)"
   sodipodi:docname="org.gnome.Shell.Extensions.GSConnect.svg"
   xmlns:inkscape="http://www.inkscape.org/namespaces/inkscape"
   xmlns:sodipodi="http://sodipodi.sourceforge.net/DTD/sodipodi-0.dtd"
   xmlns="http://www.w3.org/2000/svg"
   xmlns:svg="http://www.w3.org/2000/svg">
  <sodipodi:namedview
     id="namedview7"
     pagecolor="#ffffff"
     bordercolor="#000000"
     borderopacity="0.25"
     inkscape:showpageshadow="2"
     inkscape:pageopacity="0.0"
     inkscape:pagecheckerboard="0"
     inkscape:deskcolor="#d1d1d1"
     inkscape:document-units="px"
     showgrid="false"
     inkscape:zoom="31.083333"
     inkscape:cx="11.983914"
     inkscape:cy="12"
     inkscape:window-width="1920"
     inkscape:window-height="966"
     inkscape:window-x="0"
     inkscape:window-y="0"
     inkscape:window-maximized="1"
     inkscape:current-layer="svg5" />
  <defs
     id="defs2" />
  <rect
     style="opacity:0.2;fill:#000000;stroke-width:1.42857;stroke-linecap:square"
     id="rect234"
     width="20"
     height="20"
     x="2"
     y="2.4999995"
     ry="4.5" />
  <rect
     style="fill:#7d7d7d;fill-opacity:1;stroke-width:1.42857;stroke-linecap:square"
     id="rect396"
     width="20"
     height="20"
     x="2"
     y="2"
     ry="4.5" />
  <rect
     style="opacity:0.2;fill:#000000;stroke-width:2"
     id="rect1"
     width="9"
     height="14"
     x="7"
     y="5.5"
     ry="1" />
  <rect
     style="fill:#e4e4e4;fill-opacity:1;stroke-width:2"
     id="rect2"
     width="9"
     height="14"
     x="7"
     y="5"
     ry="1" />
  <rect
     style="fill:#4d4d4d;fill-opacity:1;stroke-width:2.12131"
     id="rect3"
     width="9"
     height="10"
     x="7"
     y="7" />
  <path
     id="rect4"
     style="opacity:0.2;fill:#ffffff;fill-opacity:1;stroke-width:2"
     d="M 8,5 C 7.4460018,5 7,5.4460018 7,6 v 0.5 c 0,-0.5539982 0.4460018,-1 1,-1 h 7 c 0.553997,0 1,0.4460018 1,1 V 6 C 16,5.4460018 15.553997,5 15,5 Z" />
  <rect
     style="opacity:0.1;fill:#000000;fill-opacity:1;stroke-width:2.12132"
     id="rect5"
     width="9"
     height="0.5"
     x="7"
     y="7" />
  <rect
     style="opacity:0.1;fill:#ffffff;fill-opacity:1;stroke-width:2.12132"
     id="rect6"
     width="9"
     height="0.5"
     x="7"
     y="17" />
  <path
     id="path1040"
     style="opacity:0.1;fill:#ffffff;stroke-width:4;stroke-linecap:square"
     d="M 6.5,2.0000001 C 4.007005,2.0000001 2,4.0070051 2,6.5 V 7 C 2,4.5070051 4.007005,2.5000001 6.5,2.5000001 h 11 C 19.992996,2.5000001 22,4.5070051 22,7 V 6.5 C 22,4.0070052 19.992996,2.0000001 17.5,2.0000001 Z" />
</svg>
