<?xml version="1.0" encoding="UTF-8" standalone="no"?>
<!-- Created with Inkscape (http://www.inkscape.org/) -->

<svg
   width="24"
   height="24"
   viewBox="0 0 24 24"
   version="1.1"
   id="svg5"
   inkscape:version="1.3 (1:1.3+202307231459+0e150ed6c4)"
   sodipodi:docname="org.kde.merkuro.contact.svg"
   xmlns:inkscape="http://www.inkscape.org/namespaces/inkscape"
   xmlns:sodipodi="http://sodipodi.sourceforge.net/DTD/sodipodi-0.dtd"
   xmlns="http://www.w3.org/2000/svg"
   xmlns:svg="http://www.w3.org/2000/svg">
  <sodipodi:namedview
     id="namedview7"
     pagecolor="#ffffff"
     bordercolor="#000000"
     borderopacity="0.25"
     inkscape:showpageshadow="2"
     inkscape:pageopacity="0.0"
     inkscape:pagecheckerboard="0"
     inkscape:deskcolor="#d1d1d1"
     inkscape:document-units="px"
     showgrid="false"
     inkscape:zoom="29.916667"
     inkscape:cx="12"
     inkscape:cy="11.983287"
     inkscape:window-width="1920"
     inkscape:window-height="1008"
     inkscape:window-x="0"
     inkscape:window-y="0"
     inkscape:window-maximized="1"
     inkscape:current-layer="svg5" />
  <defs
     id="defs2" />
  <rect
     style="opacity:0.2;fill:#000000;stroke-width:1.42857;stroke-linecap:square"
     id="rect234"
     width="20"
     height="20"
     x="2"
     y="2.4999995"
     ry="4.5" />
  <rect
     style="fill:#4bae4f;fill-opacity:1;stroke-width:1.42857;stroke-linecap:square"
     id="rect396"
     width="20"
     height="20"
     x="2"
     y="2"
     ry="4.5" />
  <path
     style="opacity:0.2"
     d="m 15,8.5 a 3,3 0 0 1 -3,3 3,3 0 0 1 -3,-3 3,3 0 0 1 3,-3 3,3 0 0 1 3,3 z m -3,4 c -5,0 -5,3.45 -5,3.45 v 1.4 c 0,0 0.92,2.15 5,2.15 4.08,0 5,-2.15 5,-2.15 v -1.4 c 0,0 0,-3.45 -5,-3.45 z"
     id="path2" />
  <path
     style="fill:#ffffff"
     d="m 15,8 a 3,3 0 0 1 -3,3 3,3 0 0 1 -3,-3 3,3 0 0 1 3,-3 3,3 0 0 1 3,3 z m -3,4 c -5,0 -5,3.45 -5,3.45 v 1.4 c 0,0 0.92,2.15 5,2.15 4.08,0 5,-2.15 5,-2.15 v -1.4 c 0,0 0,-3.45 -5,-3.45 z"
     id="path3" />
  <path
     id="path1040"
     style="opacity:0.2;fill:#ffffff;stroke-width:4;stroke-linecap:square"
     d="M 6.5,2.0000002 C 4.007005,2.0000002 2,4.0070051 2,6.5 V 7 C 2,4.5070051 4.007005,2.5000002 6.5,2.5000002 h 11 C 19.992996,2.5000002 22,4.5070051 22,7 V 6.5 C 22,4.0070051 19.992996,2.0000002 17.5,2.0000002 Z" />
</svg>
