<?xml version="1.0" encoding="UTF-8" standalone="no"?>
<!-- Created with Inkscape (http://www.inkscape.org/) -->

<svg
   width="24"
   height="24"
   viewBox="0 0 24 24"
   version="1.1"
   id="svg5"
   inkscape:version="1.3 (0e150ed6c4, 2023-07-21)"
   sodipodi:docname="org.gnome.baobab.svg"
   xmlns:inkscape="http://www.inkscape.org/namespaces/inkscape"
   xmlns:sodipodi="http://sodipodi.sourceforge.net/DTD/sodipodi-0.dtd"
   xmlns="http://www.w3.org/2000/svg"
   xmlns:svg="http://www.w3.org/2000/svg">
  <sodipodi:namedview
     id="namedview7"
     pagecolor="#ffffff"
     bordercolor="#000000"
     borderopacity="0.25"
     inkscape:showpageshadow="2"
     inkscape:pageopacity="0.0"
     inkscape:pagecheckerboard="0"
     inkscape:deskcolor="#d1d1d1"
     inkscape:document-units="px"
     showgrid="false"
     inkscape:zoom="30.375"
     inkscape:cx="12"
     inkscape:cy="12"
     inkscape:window-width="1920"
     inkscape:window-height="937"
     inkscape:window-x="0"
     inkscape:window-y="32"
     inkscape:window-maximized="1"
     inkscape:current-layer="svg5" />
  <defs
     id="defs2" />
  <rect
     style="opacity:0.2;fill:#000000;stroke-width:1.42857;stroke-linecap:square"
     id="rect234"
     width="20"
     height="20"
     x="2"
     y="2.5"
     ry="4.5" />
  <rect
     style="fill:#fff55d;fill-opacity:1;stroke-width:1.42857;stroke-linecap:square"
     id="rect396"
     width="20"
     height="18"
     x="2"
     y="4"
     ry="4.5" />
  <path
     id="rect1"
     style="opacity:0.2;fill:#000000"
     d="M 6.5,4 C 4.007005,4 2,6.007005 2,8.5 v 9 c 0,1.374366 0.6130276,2.597763 1.578125,3.421875 L 12,12.5 h 10 v -4 C 22,6.007005 19.992996,4 17.5,4 Z" />
  <path
     id="rect2"
     style="fill:#4098fe;fill-opacity:1;stroke-width:1.5"
     d="M 12,2 V 12 H 22 V 6.5 C 22,4.0070025 19.992998,2 17.5,2 Z" />
  <path
     id="rect3"
     style="fill:#24db65;fill-opacity:1;stroke-width:1.5"
     d="M 6.5,2 C 4.0070025,2 2,4.0070025 2,6.5 v 11 c 0,1.246499 0.5010789,2.372173 1.3144531,3.185547 L 12,12 V 2 Z" />
  <path
     id="rect5"
     style="fill:#25a068;fill-opacity:1;stroke-width:1.5"
     d="m 12,10.5 -9.3417969,9.341797 c 0.1865302,0.306199 0.4042298,0.59173 0.65625,0.84375 L 12,12 Z" />
  <rect
     style="fill:#2379e0;fill-opacity:1;stroke-width:1.5"
     id="rect4"
     width="10"
     height="2"
     x="12"
     y="10" />
  <path
     id="path1040"
     style="opacity:0.2;fill:#ffffff;stroke-width:4;stroke-linecap:square"
     d="M 6.5,2 C 4.007005,2 2,4.007005 2,6.5 V 7 C 2,4.507005 4.007005,2.5 6.5,2.5 h 11 C 19.992996,2.5 22,4.507005 22,7 V 6.5 C 22,4.007005 19.992996,2 17.5,2 Z" />
</svg>
