<?xml version="1.0" encoding="UTF-8" standalone="no"?>
<!-- Created with Inkscape (http://www.inkscape.org/) -->

<svg
   width="24"
   height="24"
   viewBox="0 0 24 24"
   version="1.1"
   id="svg5"
   inkscape:version="1.2.2 (1:1.2.2+202305151914+b0a8486541)"
   sodipodi:docname="org.gnome.TextEditor.svg"
   xmlns:inkscape="http://www.inkscape.org/namespaces/inkscape"
   xmlns:sodipodi="http://sodipodi.sourceforge.net/DTD/sodipodi-0.dtd"
   xmlns="http://www.w3.org/2000/svg"
   xmlns:svg="http://www.w3.org/2000/svg">
  <sodipodi:namedview
     id="namedview7"
     pagecolor="#ffffff"
     bordercolor="#000000"
     borderopacity="0.25"
     inkscape:showpageshadow="2"
     inkscape:pageopacity="0.0"
     inkscape:pagecheckerboard="0"
     inkscape:deskcolor="#d1d1d1"
     inkscape:document-units="px"
     showgrid="false"
     inkscape:zoom="33.583333"
     inkscape:cx="12"
     inkscape:cy="12"
     inkscape:window-width="1920"
     inkscape:window-height="1008"
     inkscape:window-x="0"
     inkscape:window-y="0"
     inkscape:window-maximized="1"
     inkscape:current-layer="svg5" />
  <defs
     id="defs2" />
  <rect
     style="opacity:0.2;fill:#000000;stroke-width:1.42857;stroke-linecap:square"
     id="rect234"
     width="20"
     height="20"
     x="2"
     y="2.5"
     ry="4.5" />
  <rect
     style="fill:#e4e4e4;fill-opacity:1;stroke-width:1.42857;stroke-linecap:square"
     id="rect396"
     width="20"
     height="20"
     x="2"
     y="2"
     ry="4.5" />
  <path
     d="m 10,13 v 1 H 5 V 9 h 14 v 4 z m 5,4 v 1 H 5 v -3 h 14 v 2 z"
     style="opacity:0.15"
     id="path5173"
     sodipodi:nodetypes="cccccccccccccc" />
  <path
     id="rect5135"
     style="opacity:1;fill:#afafaf;fill-opacity:1;stroke-linecap:round;stroke-linejoin:round"
     d="m 16,16 -2,6 h 3.5 C 19.992998,22 22,19.992998 22,17.5 V 14 Z" />
  <path
     d="m 14,22 8,-8 v 0.5 L 14.5,22 Z"
     style="opacity:0.2;fill:#000000;stroke-width:0.5;stroke-linecap:round;stroke-linejoin:round"
     id="path1876" />
  <path
     d="M 22,14 H 16.5 C 15.125713,14 14,15.075532 14,16.5 V 22 Z"
     style="fill:#fafafa;stroke-width:1.5"
     id="path5063"
     sodipodi:nodetypes="csscc" />
  <rect
     style="opacity:0.1;fill:#000000;stroke-width:1.11803;stroke-linecap:round;stroke-linejoin:round"
     id="rect3977"
     width="20"
     height="0.5"
     x="2"
     y="7" />
  <path
     id="rect5065"
     style="fill:#3584e4;fill-opacity:1;stroke-linecap:round;stroke-linejoin:round"
     d="M 6.5,2 C 4.0070025,2 2,4.0070025 2,6.5 V 7 H 22 V 6.5 C 22,4.0070025 19.992998,2 17.5,2 Z" />
  <path
     id="path1040"
     style="opacity:0.2;fill:#ffffff;stroke-width:4;stroke-linecap:square"
     d="M 6.5,2 C 4.007005,2 2,4.007005 2,6.5 V 7 C 2,4.507005 4.007005,2.5 6.5,2.5 h 11 C 19.992996,2.5 22,4.507005 22,7 V 6.5 C 22,4.007005 19.992996,2 17.5,2 Z" />
  <path
     d="m 22.154296,4.4999999 c -0.472423,0 -0.944127,0.1804565 -1.304688,0.5410156 L 9.53125,16.359376 9,19.500001 12.134766,18.960938 23.458983,7.6503905 c 0.721119,-0.7211178 0.721119,-1.8889778 0,-2.609375 -0.360162,-0.360523 -0.832266,-0.5410156 -1.304687,-0.5410156 z"
     style="opacity:0.1;fill:#000000"
     id="path3957" />
  <path
     style="fill:#fd8826"
     d="M 19.470395,5.9192524 9.53125,15.858399 12.141601,18.468751 22.03472,8.575629 Z"
     id="path3671" />
  <path
     style="fill:#ff2b6d"
     d="m 22.154294,4.0000003 c -0.472423,0 -0.945026,0.1802797 -1.305587,0.5408392 l -0.601053,0.6010539 2.605742,2.6151611 0.605764,-0.605764 c 0.721119,-0.7211185 0.721119,-1.8900529 0,-2.610451 C 23.098961,4.18028 22.626717,4.0000003 22.154294,4.0000003 Z"
     id="path3673" />
  <path
     style="fill:#facb64"
     d="M 10.205347,18.793134 12.151291,18.459162 9.5408395,15.848711 9.210787,17.771817 Z"
     id="path3675" />
  <path
     fill="#3d3846"
     d="m 9,19.000001 1.368684,-0.235086 -1.133599,-1.133598 z m 0,0"
     id="path3677" />
  <path
     style="opacity:0.2;fill:#ffffff"
     d="m 22.154296,4 c -0.472423,0 -0.945103,0.180456 -1.305664,0.5410155 l -1.043946,1.0439454 0.25,0.25 0.793946,-0.7939454 C 21.209193,4.6804561 21.681873,4.5 22.154296,4.5 c 0.472422,0 0.944489,0.180456 1.304687,0.5410155 0.29672,0.2964229 0.471878,0.6688274 0.524414,1.0546874 C 24.05854,5.5437304 23.883383,4.9649907 23.458983,4.5410155 23.098785,4.1804561 22.626718,4 22.154296,4 Z"
     id="path3679" />
  <path
     style="fill:#b4b3b0"
     d="m 19.282438,6.1071099 2.61045,2.6104511 1.04418,-1.0441801 -2.61045,-2.6104512 z m 0,0"
     id="path3681" />
</svg>
