<?xml version="1.0" encoding="UTF-8" standalone="no"?>
<!-- Created with Inkscape (http://www.inkscape.org/) -->

<svg
   width="24"
   height="24"
   viewBox="0 0 24 24"
   version="1.1"
   id="svg5"
   inkscape:version="1.2.2 (1:1.2.2+202305151914+b0a8486541)"
   sodipodi:docname="preferences-desktop-screensaver.svg"
   xmlns:inkscape="http://www.inkscape.org/namespaces/inkscape"
   xmlns:sodipodi="http://sodipodi.sourceforge.net/DTD/sodipodi-0.dtd"
   xmlns="http://www.w3.org/2000/svg"
   xmlns:svg="http://www.w3.org/2000/svg">
  <sodipodi:namedview
     id="namedview7"
     pagecolor="#ffffff"
     bordercolor="#000000"
     borderopacity="0.25"
     inkscape:showpageshadow="2"
     inkscape:pageopacity="0.0"
     inkscape:pagecheckerboard="0"
     inkscape:deskcolor="#d1d1d1"
     inkscape:document-units="px"
     showgrid="false"
     inkscape:zoom="33.583333"
     inkscape:cx="11.985112"
     inkscape:cy="12"
     inkscape:window-width="1920"
     inkscape:window-height="1008"
     inkscape:window-x="0"
     inkscape:window-y="0"
     inkscape:window-maximized="1"
     inkscape:current-layer="svg5" />
  <defs
     id="defs2" />
  <rect
     style="opacity:0.2;fill:#000000;stroke-width:1.42857;stroke-linecap:square"
     id="rect234"
     width="20"
     height="20"
     x="2"
     y="2.5"
     ry="4.5" />
  <rect
     style="fill:#6a1b9a;fill-opacity:1;stroke-width:1.42857;stroke-linecap:square"
     id="rect396"
     width="20"
     height="20"
     x="2"
     y="2"
     ry="4.5" />
  <path
     d="m 15.49776,9.49997 c 0.55771,0.67579 0.89593,1.53954 0.89593,2.48418 0,2.1591 -1.75032,3.90951 -3.90951,3.90951 -0.94464,0 -1.80837,-0.33821 -2.48418,-0.89592 C 10.47273,17.01275 12.27979,18.5 14.43889,18.5 16.9579,18.5 19,16.4579 19,13.93889 19,11.7797 17.51275,9.97268 15.49774,9.5 Z M 6.55,11.55 5.9291,9.6709 4.05,9.05 5.9291,8.4291 6.55,6.55 7.1709,8.4291 9.05,9.05 7.1709,9.6709 Z M 14.45,8.8 14.26373,8.23627 13.7,8.05 14.26373,7.86373 14.45,7.3 14.63627,7.86373 15.2,8.05 14.63627,8.23627 Z M 11.5,9.5 11.12746,8.37254 10,8 11.12746,7.62746 11.5,6.5 11.87254,7.62746 13,8 11.87254,8.37254 Z"
     style="opacity:0.2;fill:#000000"
     id="path981" />
  <path
     d="m 15.49776,8.99997 c 0.55771,0.67579 0.89593,1.53954 0.89593,2.48418 0,2.1591 -1.75032,3.90951 -3.90951,3.90951 -0.94464,0 -1.80837,-0.33821 -2.48418,-0.89592 C 10.47273,16.51275 12.27979,18 14.43889,18 16.9579,18 19,15.9579 19,13.43889 19,11.2797 17.51275,9.47268 15.49774,9 Z M 6.55,11.05 5.9291,9.1709 4.05,8.55 5.9291,7.9291 6.55,6.05 7.1709,7.9291 9.05,8.55 7.1709,9.1709 Z M 14.45,8.3 14.26373,7.73627 13.7,7.55 14.26373,7.36373 14.45,6.8 14.63627,7.36373 15.2,7.55 14.63627,7.73627 Z M 11.5,9 11.12746,7.87254 10,7.5 11.12746,7.12746 11.5,6 11.87254,7.12746 13,7.5 11.87254,7.87254 Z"
     style="fill:#ffffff"
     id="path953" />
  <path
     id="path1040"
     style="opacity:0.1;fill:#ffffff;stroke-width:4;stroke-linecap:square"
     d="m 6.5,2.000001 c -2.4929947,0 -4.4999998,2.0070049 -4.4999998,4.5 v 0.5 c 0,-2.4929951 2.007005,-4.5 4.4999998,-4.5 h 11 c 2.492996,0 4.5,2.0070049 4.5,4.5 v -0.5 c 0,-2.4929951 -2.007004,-4.5 -4.5,-4.5 z" />
</svg>
