<?xml version="1.0" encoding="UTF-8" standalone="no"?>
<!-- Created with Inkscape (http://www.inkscape.org/) -->

<svg
   width="24"
   height="24"
   viewBox="0 0 24 24"
   version="1.1"
   id="svg5"
   inkscape:version="1.3 (0e150ed6c4, 2023-07-21)"
   sodipodi:docname="preferences-system-login.svg"
   xmlns:inkscape="http://www.inkscape.org/namespaces/inkscape"
   xmlns:sodipodi="http://sodipodi.sourceforge.net/DTD/sodipodi-0.dtd"
   xmlns="http://www.w3.org/2000/svg"
   xmlns:svg="http://www.w3.org/2000/svg">
  <sodipodi:namedview
     id="namedview7"
     pagecolor="#ffffff"
     bordercolor="#000000"
     borderopacity="0.25"
     inkscape:showpageshadow="2"
     inkscape:pageopacity="0.0"
     inkscape:pagecheckerboard="0"
     inkscape:deskcolor="#d1d1d1"
     inkscape:document-units="px"
     showgrid="false"
     inkscape:zoom="33.333333"
     inkscape:cx="11.985"
     inkscape:cy="12"
     inkscape:window-width="1920"
     inkscape:window-height="1004"
     inkscape:window-x="0"
     inkscape:window-y="0"
     inkscape:window-maximized="1"
     inkscape:current-layer="svg5" />
  <defs
     id="defs2" />
  <rect
     style="opacity:0.2;fill:#000000;stroke-width:1.42857;stroke-linecap:square"
     id="rect234"
     width="20"
     height="20"
     x="2"
     y="2.4999995"
     ry="4.5" />
  <rect
     style="fill:#4f4f4f;fill-opacity:1;stroke-width:1.42857;stroke-linecap:square"
     id="rect396"
     width="20"
     height="20"
     x="2"
     y="2"
     ry="4.5" />
  <path
     id="rect2"
     style="opacity:0.2;fill:#000000"
     d="m 6,7.5 c -0.5539988,0 -1,0.4460012 -1,1 v 2 c 0,0.553998 0.4460012,1 1,1 h 12 c 0.553998,0 1,-0.446002 1,-1 v -2 c 0,-0.5539988 -0.446002,-1 -1,-1 z m 0,6 c -0.5539988,0 -1,0.446002 -1,1 v 2 c 0,0.553998 0.4460012,1 1,1 h 12 c 0.553998,0 1,-0.446002 1,-1 v -2 c 0,-0.553998 -0.446002,-1 -1,-1 z" />
  <path
     id="rect3"
     style="fill:#ffffff"
     d="M 6,7 C 5.4460012,7 5,7.4460012 5,8 v 2 c 0,0.553999 0.4460012,1 1,1 h 12 c 0.553998,0 1,-0.446001 1,-1 V 8 C 19,7.4460012 18.553998,7 18,7 Z m 0,6 c -0.5539988,0 -1,0.446002 -1,1 v 2 c 0,0.553998 0.4460012,1 1,1 h 12 c 0.553998,0 1,-0.446002 1,-1 v -2 c 0,-0.553998 -0.446002,-1 -1,-1 z" />
  <path
     id="path8"
     style="fill:#ff4f4f;fill-opacity:1;stroke-width:2"
     d="m 7,14 a 1,1 0 0 0 -1,1 1,1 0 0 0 1,1 1,1 0 0 0 1,-1 1,1 0 0 0 -1,-1 z m 3,0 a 1,1 0 0 0 -1,1 1,1 0 0 0 1,1 1,1 0 0 0 1,-1 1,1 0 0 0 -1,-1 z m 3,0 a 1,1 0 0 0 -1,1 1,1 0 0 0 1,1 1,1 0 0 0 1,-1 1,1 0 0 0 -1,-1 z" />
  <path
     id="path9"
     style="fill:#4fa0ff;fill-opacity:1;stroke-width:2"
     d="M 7,8 A 1,1 0 0 0 6,9 1,1 0 0 0 7,10 1,1 0 0 0 8,9 1,1 0 0 0 7,8 Z m 3,0 a 1,1 0 0 0 -1,1 1,1 0 0 0 1,1 1,1 0 0 0 1,-1 1,1 0 0 0 -1,-1 z m 3,0 a 1,1 0 0 0 -1,1 1,1 0 0 0 1,1 1,1 0 0 0 1,-1 1,1 0 0 0 -1,-1 z" />
  <path
     id="path1040"
     style="opacity:0.1;fill:#ffffff;stroke-width:4;stroke-linecap:square"
     d="M 6.5,2.0000001 C 4.007005,2.0000001 2,4.0070051 2,6.5 V 7 C 2,4.5070051 4.007005,2.5000001 6.5,2.5000001 h 11 C 19.992996,2.5000001 22,4.5070051 22,7 V 6.5 C 22,4.0070052 19.992996,2.0000001 17.5,2.0000001 Z" />
</svg>
