<?xml version="1.0" encoding="UTF-8" standalone="no"?>
<!-- Created with Inkscape (http://www.inkscape.org/) -->

<svg
   width="24"
   height="24"
   viewBox="0 0 24 24"
   version="1.1"
   id="svg5"
   inkscape:version="1.2.2 (1:1.2.2+202305151914+b0a8486541)"
   sodipodi:docname="preferences-web-browser-cookies.svg"
   xmlns:inkscape="http://www.inkscape.org/namespaces/inkscape"
   xmlns:sodipodi="http://sodipodi.sourceforge.net/DTD/sodipodi-0.dtd"
   xmlns="http://www.w3.org/2000/svg"
   xmlns:svg="http://www.w3.org/2000/svg">
  <sodipodi:namedview
     id="namedview7"
     pagecolor="#ffffff"
     bordercolor="#000000"
     borderopacity="0.25"
     inkscape:showpageshadow="2"
     inkscape:pageopacity="0.0"
     inkscape:pagecheckerboard="0"
     inkscape:deskcolor="#d1d1d1"
     inkscape:document-units="px"
     showgrid="false"
     inkscape:zoom="33.583333"
     inkscape:cx="11.985112"
     inkscape:cy="12"
     inkscape:window-width="1920"
     inkscape:window-height="1008"
     inkscape:window-x="0"
     inkscape:window-y="0"
     inkscape:window-maximized="1"
     inkscape:current-layer="svg5" />
  <defs
     id="defs2" />
  <rect
     style="opacity:0.2;fill:#000000;stroke-width:1.42857;stroke-linecap:square"
     id="rect234"
     width="20"
     height="20"
     x="2"
     y="2.4999995"
     ry="4.5" />
  <rect
     style="fill:#4f4f4f;fill-opacity:1;stroke-width:1.42857;stroke-linecap:square"
     id="rect396"
     width="20"
     height="20"
     x="2"
     y="2"
     ry="4.5" />
  <path
     d="M 12.393581,5.50057 C 12.092481,5.49392 11.765233,5.54911 11.346706,5.6626794 11.053855,5.7421454 10.401254,5.8944004 9.8320579,6.021078 9.9420052,6.3356569 9.9987725,6.6663564 10.000027,6.9995936 9.9996102,8.4672991 8.9373403,9.7192157 7.489285,9.958578 7.2473237,10.017979 6.9991704,10.048466 6.7500272,10.049398 6.3956528,10.048098 6.0440378,9.987028 5.709988,9.8687338 5.702378,9.8976278 5.686702,9.9379148 5.686553,9.9556478 5.685503,10.08204 5.5273945,10.639517 5.3349905,11.194906 4.9360892,12.346358 4.9082876,12.749711 5.172881,13.553304 c 0.103308,0.313751 0.221095,0.779868 0.261719,1.035157 0.1048805,0.659067 0.2968645,0.997878 0.990234,1.751953 0.3351869,0.364534 0.8112181,0.975944 1.0585939,1.358398 0.398297,0.615783 0.5363684,0.739841 1.200195,1.082032 0.802682,0.413764 1.4168021,0.525745 3.5986331,0.657226 0.712576,0.141734 1.100241,0.03615 1.699219,-0.292969 0.357087,-0.196257 0.82894,-0.416239 1.048827,-0.488281 0.674518,-0.220988 1.555684,-0.755311 1.800782,-1.091797 0.12807,-0.175823 0.449492,-0.767897 0.714843,-1.31543 0.31718,-0.654469 0.644913,-1.15757 0.957032,-1.469726 0.653018,-0.477207 0.474609,-1.051844 0.474609,-1.805664 0,-1.293314 -0.01062,-1.362192 -0.386718,-2.394531 C 18.377933,9.9952328 18.125714,9.2910047 18.0303,9.0142418 17.887756,8.6007795 17.703253,8.3767524 16.992214,7.7583825 15.902822,6.8109745 15.576314,6.6027373 14.830104,6.3794765 14.500272,6.280792 13.927334,6.0418262 13.557644,5.8482265 13.123189,5.6207119 12.78071,5.5091209 12.393581,5.50057 Z"
     style="opacity:0.2;stroke-width:0.5"
     id="path495" />
  <path
     d="m 12.393584,5.0005369 c -0.301101,-0.00665 -0.628348,0.04854 -1.046875,0.1621095 -0.292851,0.079466 -0.945452,0.2317211 -1.5146485,0.358398 0.1099472,0.3145795 0.1667145,0.6452783 0.1679685,0.978516 -4.163e-4,1.4677055 -1.0626862,2.7196227 -2.5107415,2.9589845 -0.2419613,0.059401 -0.490114,0.089888 -0.7392583,0.09082 -0.3543738,-0.00131 -0.7059894,-0.06237 -1.0400388,-0.1806644 -0.0076,0.028899 -0.023285,0.069181 -0.023435,0.086914 -0.00105,0.126392 -0.1591584,0.6838705 -0.3515624,1.2392585 -0.3989014,1.151453 -0.4267029,1.554806 -0.1621095,2.358399 0.1033085,0.31375 0.221095,0.779866 0.261719,1.035155 0.1048805,0.659069 0.2968645,0.997879 0.990234,1.751954 0.3351869,0.364533 0.8112181,0.975943 1.058594,1.358398 0.3982969,0.615783 0.5363683,0.739841 1.200195,1.082031 0.8026819,0.413765 1.4168015,0.525746 3.5986325,0.657227 0.712576,0.141734 1.100242,0.03615 1.69922,-0.292969 0.357086,-0.196257 0.828939,-0.416239 1.048827,-0.488281 0.674517,-0.220988 1.555683,-0.755311 1.800781,-1.091797 0.128071,-0.175823 0.449493,-0.767897 0.714844,-1.31543 0.317179,-0.654468 0.644913,-1.15757 0.957031,-1.469726 0.653018,-0.477207 0.47461,-1.051844 0.47461,-1.805664 0,-1.293314 -0.01062,-1.362192 -0.386719,-2.394532 C 18.377935,9.4951996 18.125717,8.7909715 18.030302,8.5142087 17.887758,8.1007463 17.703256,7.8767192 16.992217,7.2583493 15.902825,6.3109408 15.576317,6.1027036 14.830107,5.8794429 14.500275,5.7807584 13.927337,5.5417924 13.557646,5.3481929 13.123192,5.1206785 12.780712,5.0090879 12.393584,5.0005369 Z"
     style="fill:#ffaa46;stroke-width:0.5"
     id="path362" />
  <path
     d="m 13.271514,7.5045504 c -0.116967,0.014337 -0.231439,0.057373 -0.34961,0.094727 -0.572905,0.2023075 -1.203352,0.5406347 -1.349609,1.0546874 -0.08662,0.2558975 -0.09262,0.3458247 -0.03516,0.5244146 0.02244,0.069727 0.0488,0.1727568 0.05762,0.229492 0.02278,0.1464709 0.06428,0.2220643 0.214844,0.3896482 0.07279,0.081014 0.175774,0.2167614 0.229493,0.3017584 0.08649,0.13685 0.116589,0.164185 0.260741,0.240234 0.167546,0.07466 0.18613,-0.193153 0.781251,0.146484 0.154739,0.0315 0.239069,0.0077 0.36914,-0.06543 0.07754,-0.04362 0.17979,-0.09239 0.227539,-0.108398 0.146474,-0.04912 0.338377,-0.167408 0.391602,-0.242188 C 14.455902,9.5159449 14.579264,9.0748082 14.451202,8.5172459 14.404961,8.3873609 14.350827,8.2310971 14.330107,8.1695896 14.299152,8.0777016 14.258925,8.0277182 14.10452,7.8902931 13.867954,7.6797418 13.796837,7.6332695 13.634794,7.5836519 13.507965,7.5046896 13.38848,7.4902137 13.271514,7.5045504 Z M 8.1640921,10.501621 c -0.08553,-0.0093 -0.1682664,0.01669 -0.2412111,0.08789 -0.1784412,-0.0096 -0.2363035,0.003 -0.3388673,0.07227 -0.040045,0.02705 -0.101402,0.06218 -0.1357422,0.07813 -0.088654,0.04115 -0.1287965,0.08166 -0.2070317,0.208985 -0.2973437,0.423917 -0.2599829,0.596886 -0.1992181,0.944335 0.00885,0.105415 0.039724,0.154984 0.1103513,0.225586 0.04211,0.04209 0.092277,0.09908 0.1113276,0.126954 0.2900769,0.362646 0.9295106,0.253808 1.2822267,0.173828 0.073764,-0.05327 0.1630924,-0.117132 0.1982427,-0.141602 0.052512,-0.03656 0.076372,-0.07097 0.1347653,-0.195312 C 8.9683983,11.892173 8.9841031,11.838658 8.985381,11.725263 9.038282,11.533248 8.934219,11.407037 8.8428021,11.268231 8.7044308,10.875079 8.4206815,10.529628 8.1640921,10.50163 Z m 7.8691399,1.999023 c -0.221804,-0.0081 -0.451466,0.03911 -0.614257,0.0791 -0.06809,0.05327 -0.150172,0.117133 -0.182618,0.141602 -0.04848,0.03656 -0.07012,0.07097 -0.124024,0.195313 -0.08258,0.190512 -0.09745,0.245003 -0.09863,0.358399 -0.04883,0.192014 0.04648,0.317249 0.130859,0.456054 0.170303,0.524204 0.580276,0.963538 0.84961,0.678711 0.164713,0.0096 0.218802,-0.003 0.313477,-0.07227 0.03695,-0.02706 0.09232,-0.06218 0.124023,-0.07813 0.08183,-0.04115 0.11919,-0.08166 0.191407,-0.208984 0.592382,-0.492307 0.350308,-0.619498 0.18457,-0.943359 -0.0082,-0.105414 -0.03638,-0.155961 -0.101563,-0.226563 -0.03888,-0.04209 -0.08495,-0.09908 -0.102539,-0.126953 -0.13388,-0.181323 -0.348508,-0.244795 -0.570313,-0.25293 z m -6.2412107,1.00586 c -0.054189,0.01111 -0.1057513,0.03569 -0.1679684,0.07226 -0.074183,0.04362 -0.172093,0.09239 -0.2177734,0.108399 -0.1401271,0.04912 -0.323106,0.167407 -0.3740236,0.242187 -0.7522221,0.378701 -0.5387236,0.971801 -0.3652347,1.552735 0.044231,0.129885 0.096389,0.286149 0.1162111,0.347655 0.029608,0.09189 0.068106,0.141872 0.2158206,0.279298 0.2263156,0.210551 0.294197,0.257024 0.4492186,0.30664 0.2426658,0.157926 0.4555402,0.05908 0.6816405,-0.01562 1.003715,-0.202308 1.593277,-0.540635 1.291016,-1.054688 0.08287,-0.255897 0.08817,-0.345824 0.0332,-0.524414 -0.02146,-0.06973 -0.04625,-0.172758 -0.05469,-0.229491 -0.02179,-0.146472 -0.06103,-0.222065 -0.205078,-0.389649 -0.313954,-0.591011 -0.605839,-0.331335 -1.2167965,-0.688477 -0.074017,-0.01575 -0.1313578,-0.01794 -0.1855473,-0.0068 z m 3.9912107,2.499999 c -0.05638,0.01096 -0.117087,0.03336 -0.186523,0.05957 -0.44352,0.200192 -0.75993,0.183112 -1.048828,0.509766 -0.107631,0.224227 -0.01154,0.491172 0.07226,0.753906 0.03195,0.08786 0.07064,0.193747 0.08496,0.235351 0.02139,0.06215 0.04855,0.09552 0.155274,0.188477 0.163518,0.14242 0.212213,0.17347 0.324219,0.207031 0.382975,0.150378 0.440396,-0.170303 0.72168,-0.355469 0.370912,-0.196181 0.691805,-0.173867 0.543945,-0.408203 0.05987,-0.173093 0.06315,-0.233691 0.02343,-0.354492 -0.0155,-0.04716 -0.03296,-0.117874 -0.03907,-0.15625 -0.01574,-0.09908 -0.04437,-0.149338 -0.148438,-0.262695 -0.20402,-0.379037 -0.333791,-0.449841 -0.50293,-0.416993 z"
     style="opacity:0.1;fill:#000000;stroke-width:0.5"
     id="path390" />
  <path
     d="m 7.9227514,10.089309 c -0.1784412,-0.0096 -0.2363824,0.0028 -0.3389463,0.07208 -0.040045,0.02706 -0.1009045,0.06223 -0.1352442,0.07817 -0.088654,0.04115 -0.1287382,0.08164 -0.2069729,0.208967 -0.2973447,0.423917 -0.2603723,0.596662 -0.1996085,0.944111 0.00885,0.105415 0.039492,0.155393 0.1101211,0.225996 0.042111,0.04209 0.092161,0.09931 0.1112121,0.127186 0.2900769,0.362648 0.9298392,0.253854 1.2825553,0.173874 0.073764,-0.05327 0.1628713,-0.116861 0.1980216,-0.141332 0.052512,-0.03656 0.076596,-0.0715 0.1349884,-0.195842 C 8.968341,11.392007 8.9844524,11.338061 8.9857298,11.224666 9.0386313,11.03265 8.9343444,10.906913 8.8429278,10.768107 8.6584323,10.243903 8.2145328,9.8044826 7.9227524,10.089309 Z m 8.0716816,3.820606 c 0.164713,0.0096 0.218197,-0.0028 0.31287,-0.07208 0.03696,-0.02707 0.09314,-0.06223 0.12484,-0.07817 0.08184,-0.04115 0.118835,-0.08164 0.191052,-0.208966 0.592382,-0.492307 0.349991,-0.62025 0.184253,-0.944112 -0.0082,-0.105415 -0.03646,-0.155394 -0.101651,-0.225996 -0.03888,-0.04209 -0.08507,-0.09931 -0.102657,-0.127186 -0.26776,-0.362648 -0.858307,-0.253854 -1.183888,-0.173873 -0.06809,0.05327 -0.150342,0.11686 -0.182787,0.141331 -0.04848,0.03656 -0.07071,0.0715 -0.124605,0.195842 -0.08258,0.190512 -0.09745,0.244458 -0.09863,0.357854 -0.04883,0.192014 0.04743,0.317752 0.131816,0.456558 0.170302,0.524204 0.580054,0.963624 0.849389,0.678797 z M 11.572737,8.1540453 c -0.08662,0.2558975 -0.0926,0.3454965 -0.03514,0.524086 0.02244,0.069728 0.04798,0.1731899 0.0568,0.2299251 0.02278,0.1464709 0.06444,0.2219106 0.215012,0.3894945 0.07279,0.081014 0.176258,0.2168261 0.229975,0.3018226 0.08649,0.1368503 0.116305,0.164394 0.260456,0.2404422 0.167546,0.074658 0.186375,-0.1935316 0.781495,0.1461046 0.15474,0.031498 0.238909,0.0079 0.36898,-0.065232 0.07754,-0.043618 0.180021,-0.092425 0.227772,-0.1084347 0.146473,-0.049116 0.33784,-0.167793 0.391065,-0.2425724 C 14.455698,9.0156454 14.579428,8.5747956 14.451366,8.0172328 14.405125,7.8873479 14.350374,7.73077 14.329655,7.6692629 14.2987,7.577375 14.25845,7.527578 14.104045,7.3901524 13.867479,7.1796016 13.796724,7.1334147 13.634682,7.0837971 13.381023,6.9258715 13.158157,7.0248282 12.921816,7.0995358 12.34891,7.3018433 11.718999,7.6399931 11.57274,8.1540453 Z m -0.152108,6.6910317 c 0.08287,-0.255898 0.08859,-0.345497 0.03362,-0.524087 -0.02146,-0.06973 -0.04591,-0.17319 -0.05434,-0.229923 -0.02179,-0.146472 -0.06165,-0.221911 -0.205694,-0.389496 -0.313955,-0.591011 -0.605853,-0.331229 -1.2168109,-0.68837 -0.1480336,-0.0315 -0.2285557,-0.0079 -0.3529899,0.06523 -0.074183,0.04362 -0.1722211,0.09243 -0.217902,0.108435 -0.1401267,0.04911 -0.323202,0.167793 -0.3741191,0.242573 -0.7522217,0.378699 -0.5391332,0.971513 -0.3656443,1.552448 0.044231,0.129884 0.096612,0.286463 0.1164337,0.34797 0.029608,0.09189 0.068119,0.141684 0.2158327,0.27911 0.2263156,0.210551 0.2940035,0.256738 0.4490256,0.306355 0.2426658,0.157927 0.4558744,0.05897 0.6819752,-0.01574 1.003714,-0.202307 1.592878,-0.540458 1.290616,-1.05451 z m 3.029136,1.851466 c 0.05987,-0.173092 0.06401,-0.233698 0.0243,-0.354499 -0.0155,-0.04716 -0.03316,-0.117148 -0.03926,-0.155525 -0.01574,-0.09907 -0.04455,-0.150103 -0.148619,-0.263459 -0.272026,-0.505383 -0.41145,-0.461607 -0.689197,-0.356772 -0.44352,0.200191 -0.760356,0.183035 -1.049254,0.509689 -0.10763,0.224227 -0.01103,0.490553 0.07278,0.753287 0.03195,0.08786 0.0698,0.193768 0.08413,0.235372 0.02139,0.06215 0.04922,0.09584 0.155944,0.188795 0.163518,0.14242 0.212423,0.173662 0.324429,0.207224 0.382975,0.150377 0.439587,-0.170875 0.720871,-0.356041 0.370913,-0.196182 0.691752,-0.173734 0.543892,-0.408069 z"
     style="fill:#835145;stroke-width:0.5"
     id="path467" />
  <path
     d="m 12.393581,5.0005704 c -0.3011,-0.00665 -0.628348,0.04854 -1.046875,0.1621091 -0.292851,0.079466 -0.945452,0.2317209 -1.5146481,0.3583984 0.052748,0.1537135 0.09292,0.311459 0.1201176,0.4716795 C 10.485853,5.8729594 11.077076,5.7358449 11.346706,5.6626794 11.765233,5.54911 12.092481,5.4939189 12.393581,5.50057 c 0.387129,0.00855 0.729608,0.1201419 1.164063,0.3476565 0.36969,0.1935997 0.942628,0.4325655 1.27246,0.53125 0.74621,0.2232608 1.072718,0.431498 2.16211,1.378906 0.711039,0.6183699 0.895542,0.842397 1.038086,1.2558598 0.09541,0.2767629 0.347633,0.980991 0.560547,1.5654297 0.376104,1.032339 0.386719,1.101217 0.386719,2.394531 0,0.120465 0.0067,0.229173 0.01172,0.34082 0.01014,-0.255644 -0.01172,-0.529971 -0.01172,-0.84082 0,-1.293314 -0.01062,-1.362192 -0.386719,-2.394531 C 18.377933,9.4952333 18.125714,8.7910047 18.0303,8.5142418 17.887756,8.1007795 17.703253,7.8767524 16.992214,7.2583825 15.902822,6.3109745 15.576314,6.1027373 14.830104,5.8794764 14.500272,5.7807919 13.927334,5.5418259 13.557644,5.3482264 13.123189,5.1207119 12.78071,5.0091215 12.393581,5.0005704 Z M 9.9863549,6.7701011 C 9.8629338,8.1301529 8.8365363,9.2352263 7.489285,9.4585785 7.2473237,9.51798 6.9991704,9.5484665 6.7500272,9.5493981 6.3956528,9.5480916 6.0440378,9.4870283 5.709988,9.3687343 5.702378,9.3976283 5.686702,9.4379153 5.686553,9.4556483 5.685503,9.5820402 5.5273945,10.139518 5.3349905,10.694906 5.057624,11.495541 4.9635721,11.934733 5.018584,12.398031 5.054829,12.077901 5.1552355,11.713778 5.3349905,11.194906 5.5273945,10.639518 5.685503,10.08204 5.686553,9.9556483 5.686706,9.9379143 5.702388,9.8976293 5.709988,9.8687343 6.0440378,9.9870283 6.3956528,10.048107 6.7500272,10.049398 6.9991704,10.048443 7.2473237,10.017978 7.489285,9.958578 8.9373403,9.7192157 9.9996102,8.4672986 10.000027,6.9995931 9.998417,6.9229491 9.993837,6.8463956 9.986358,6.7701006 Z"
     style="opacity:0.2;fill:#ffffff;stroke-width:0.5"
     id="path523" />
  <path
     id="path1040"
     style="opacity:0.1;fill:#ffffff;stroke-width:4;stroke-linecap:square"
     d="m 6.5000001,2.0000002 c -2.4929951,0 -4.5,2.0070049 -4.5,4.4999999 v 0.5 c 0,-2.492995 2.0070049,-4.4999999 4.5,-4.4999999 H 17.5 c 2.492996,0 4.499999,2.0070049 4.499999,4.4999999 v -0.5 c 0,-2.492995 -2.007003,-4.4999999 -4.499999,-4.4999999 z" />
</svg>
