<?xml version="1.0" encoding="UTF-8" standalone="no"?>
<!-- Created with Inkscape (http://www.inkscape.org/) -->

<svg
   width="24"
   height="24"
   viewBox="0 0 24 24"
   version="1.1"
   id="svg5"
   inkscape:version="1.3 (0e150ed6c4, 2023-07-21)"
   sodipodi:docname="qvidcap.svg"
   xmlns:inkscape="http://www.inkscape.org/namespaces/inkscape"
   xmlns:sodipodi="http://sodipodi.sourceforge.net/DTD/sodipodi-0.dtd"
   xmlns="http://www.w3.org/2000/svg"
   xmlns:svg="http://www.w3.org/2000/svg">
  <sodipodi:namedview
     id="namedview7"
     pagecolor="#ffffff"
     bordercolor="#000000"
     borderopacity="0.25"
     inkscape:showpageshadow="2"
     inkscape:pageopacity="0.0"
     inkscape:pagecheckerboard="0"
     inkscape:deskcolor="#d1d1d1"
     inkscape:document-units="px"
     showgrid="false"
     inkscape:zoom="33.333333"
     inkscape:cx="11.985"
     inkscape:cy="12"
     inkscape:window-width="1920"
     inkscape:window-height="1004"
     inkscape:window-x="0"
     inkscape:window-y="0"
     inkscape:window-maximized="1"
     inkscape:current-layer="svg5" />
  <defs
     id="defs2" />
  <rect
     style="opacity:0.2;fill:#000000;stroke-width:1.42857;stroke-linecap:square"
     id="rect234"
     width="20"
     height="20"
     x="2"
     y="2.4999995"
     ry="4.5" />
  <rect
     style="fill:#ded4c3;fill-opacity:1;stroke-width:1.42857;stroke-linecap:square"
     id="rect396"
     width="20"
     height="20"
     x="2"
     y="2"
     ry="4.5" />
  <rect
     style="opacity:0.2;fill:#000000;stroke-width:0.5"
     width="2"
     height="4"
     x="16"
     y="15.5"
     id="rect1" />
  <rect
     style="opacity:0.2;fill:#000000;stroke-width:0.5"
     width="2"
     height="4"
     x="6"
     y="15.5"
     id="rect2" />
  <rect
     style="fill:#3f3f3f;stroke-width:0.5"
     width="2"
     height="4"
     x="16"
     y="15"
     id="rect3" />
  <rect
     style="fill:#3f3f3f;stroke-width:0.5"
     width="2"
     height="4"
     x="6"
     y="15"
     id="rect4" />
  <rect
     style="opacity:0.2;fill:#000000;stroke-width:0.5"
     width="11"
     height="14"
     x="-17.5"
     y="-19"
     rx="1.0315"
     ry="1.05"
     transform="matrix(0,-1,-1,0,0,0)"
     id="rect5" />
  <rect
     style="fill:#89774f;stroke-width:0.5"
     width="11"
     height="14"
     x="-17"
     y="-19"
     ry="1.05"
     transform="matrix(0,-1,-1,0,0,0)"
     id="rect6" />
  <rect
     style="opacity:0.2;fill:#000000;stroke-width:0.5"
     width="10"
     height="7"
     x="7"
     y="8.5"
     ry="0.69999999"
     id="rect7" />
  <rect
     style="fill:#d5cfc1;stroke-width:0.5"
     width="10"
     height="7"
     x="7"
     y="8"
     ry="0.69999999"
     id="rect8" />
  <path
     style="opacity:0.1;fill:#ffffff;stroke-width:0.5"
     d="M 6.0498045,6 C 5.4681045,6 5,6.4599375 5,7.03125 v 0.5 C 5,6.9599375 5.4681045,6.5 6.0498045,6.5 H 17.950195 C 18.531895,6.5 19,6.9599375 19,7.53125 v -0.5 C 19,6.4599375 18.531895,6 17.950195,6 Z"
     id="path8" />
  <path
     style="opacity:0.2;fill:#ffffff;stroke-width:0.5"
     d="M 7.713867,8 C 7.318153,8 7,8.3123955 7,8.7001955 v 0.5 C 7,8.8123955 7.318153,8.5 7.713867,8.5 h 8.572266 C 16.681847,8.5 17,8.8123955 17,9.2001955 v -0.5 C 17,8.3123955 16.681847,8 16.286133,8 Z"
     id="path9" />
  <path
     id="path1040"
     style="opacity:0.2;fill:#ffffff;stroke-width:4;stroke-linecap:square"
     d="M 6.5,2.0000001 C 4.007005,2.0000001 2,4.0070051 2,6.5 V 7 C 2,4.5070051 4.007005,2.5000001 6.5,2.5000001 h 11 C 19.992996,2.5000001 22,4.5070051 22,7 V 6.5 C 22,4.0070052 19.992996,2.0000001 17.5,2.0000001 Z" />
</svg>
