<?xml version="1.0" encoding="UTF-8" standalone="no"?>
<!-- Created with Inkscape (http://www.inkscape.org/) -->

<svg
   width="24"
   height="24"
   viewBox="0 0 24 24"
   version="1.1"
   id="svg5"
   inkscape:version="1.3 (0e150ed6c4, 2023-07-21)"
   sodipodi:docname="seahorse.svg"
   xmlns:inkscape="http://www.inkscape.org/namespaces/inkscape"
   xmlns:sodipodi="http://sodipodi.sourceforge.net/DTD/sodipodi-0.dtd"
   xmlns="http://www.w3.org/2000/svg"
   xmlns:svg="http://www.w3.org/2000/svg">
  <sodipodi:namedview
     id="namedview7"
     pagecolor="#ffffff"
     bordercolor="#000000"
     borderopacity="0.25"
     inkscape:showpageshadow="2"
     inkscape:pageopacity="0.0"
     inkscape:pagecheckerboard="0"
     inkscape:deskcolor="#d1d1d1"
     inkscape:document-units="px"
     showgrid="false"
     inkscape:zoom="30.375"
     inkscape:cx="12"
     inkscape:cy="12"
     inkscape:window-width="1920"
     inkscape:window-height="937"
     inkscape:window-x="0"
     inkscape:window-y="32"
     inkscape:window-maximized="1"
     inkscape:current-layer="svg5" />
  <defs
     id="defs2" />
  <rect
     style="opacity:0.2;fill:#000000;stroke-width:1.42857;stroke-linecap:square"
     id="rect234"
     width="20"
     height="20"
     x="2"
     y="2.4999995"
     ry="4.5" />
  <rect
     style="fill:#bbe8d3;fill-opacity:1;stroke-width:1.42857;stroke-linecap:square"
     id="rect396"
     width="20"
     height="20"
     x="2"
     y="2"
     ry="4.5" />
  <rect
     style="opacity:0.2;fill:#000000"
     id="rect1"
     width="14"
     height="11"
     x="5"
     y="7.5"
     ry="1" />
  <rect
     style="fill:#2cb978;fill-opacity:1"
     id="rect2"
     width="14"
     height="11"
     x="5"
     y="7"
     ry="1" />
  <path
     d="M 6.7011719,15.5 6.9023438,16.34375 6.25,15.798828 6.0039062,16.230469 6.84375,16.505859 6,16.771484 6.2402344,17.210938 6.9023438,16.660156 6.7011719,17.5 H 7.2714844 L 7.0878906,16.673828 7.7304688,17.226562 7.9765625,16.789062 7.1445312,16.507812 8,16.271484 7.7578125,15.833984 7.0820312,16.347656 7.2714844,15.5 Z m 3,0 0.2011719,0.84375 L 9.25,15.798828 9.0039062,16.230469 9.84375,16.505859 9,16.771484 9.2402344,17.210938 9.9023438,16.660156 9.7011719,17.5 h 0.5703121 l -0.183593,-0.826172 0.642578,0.552734 0.246094,-0.4375 -0.832032,-0.28125 L 11,16.271484 10.757813,15.833984 10.082031,16.347656 10.271484,15.5 Z m 3.0000001,0 0.201172,0.84375 L 12.25,15.798828 12.003906,16.230469 12.84375,16.505859 12,16.771484 12.240234,17.210938 12.902344,16.660156 12.701172,17.5 h 0.570312 l -0.183593,-0.826172 0.642578,0.552734 0.246094,-0.4375 -0.832032,-0.28125 L 14,16.271484 13.757813,15.833984 13.082031,16.347656 13.271484,15.5 Z m 3,0 0.201172,0.84375 L 15.25,15.798828 15.003906,16.230469 15.84375,16.505859 15,16.771484 15.240234,17.210938 15.902344,16.660156 15.701172,17.5 h 0.570312 l -0.183593,-0.826172 0.642578,0.552734 0.246093,-0.4375 -0.832031,-0.28125 L 17,16.271484 16.757812,15.833984 16.082031,16.347656 16.271484,15.5 Z"
     style="opacity:0.2;fill:#000000"
     id="path1" />
  <path
     d="M 6.7011719,15 6.9023438,15.84375 6.25,15.298828 6.0039062,15.730469 6.84375,16.005859 6,16.271484 6.2402344,16.710938 6.9023438,16.160156 6.7011719,17 H 7.2714844 L 7.0878906,16.173828 7.7304688,16.726562 7.9765625,16.289062 7.1445312,16.007812 8,15.771484 7.7578125,15.333984 7.0820312,15.847656 7.2714844,15 Z m 3,0 0.2011719,0.84375 L 9.25,15.298828 9.0039062,15.730469 9.84375,16.005859 9,16.271484 9.2402344,16.710938 9.9023438,16.160156 9.7011719,17 h 0.5703121 l -0.183593,-0.826172 0.642578,0.552734 0.246094,-0.4375 -0.832032,-0.28125 L 11,15.771484 10.757813,15.333984 10.082031,15.847656 10.271484,15 Z m 3.0000001,0 0.201172,0.84375 L 12.25,15.298828 12.003906,15.730469 12.84375,16.005859 12,16.271484 12.240234,16.710938 12.902344,16.160156 12.701172,17 h 0.570312 l -0.183593,-0.826172 0.642578,0.552734 0.246094,-0.4375 -0.832032,-0.28125 L 14,15.771484 13.757813,15.333984 13.082031,15.847656 13.271484,15 Z m 3,0 0.201172,0.84375 L 15.25,15.298828 15.003906,15.730469 15.84375,16.005859 15,16.271484 15.240234,16.710938 15.902344,16.160156 15.701172,17 h 0.570312 l -0.183593,-0.826172 0.642578,0.552734 0.246093,-0.4375 -0.832031,-0.28125 L 17,15.771484 16.757812,15.333984 16.082031,15.847656 16.271484,15 Z"
     style="fill:#b2f5c0"
     id="path2" />
  <path
     d="m 7,12 -1,1 1,1 z m 0.3333333,0 v 2 h 0.3333334 v -2 z m 0.6666666,0 v 2 h 0.6666668 v -2 z m 1,0 v 2 h 0.3333334 v -2 z m 0.6666668,0 v 2 h 0.3333332 v -2 z m 0.6666663,0 v 2 H 11 v -2 z m 1.000001,0 v 2 H 12 v -2 z m 1,0 v 2 h 0.333333 V 12 Z M 13,12 v 2 h 0.333334 v -2 z m 0.666667,0 v 2 H 14 v -2 z m 0.666667,0 v 2 h 0.333333 V 12 Z M 15,12 v 2 h 0.666667 v -2 z m 1,0 v 2 h 0.333334 v -2 z"
     style="opacity:0.2"
     id="path3" />
  <rect
     style="fill:#3f3f3f;fill-opacity:1;stroke-width:1.41421"
     id="rect3"
     width="14"
     height="2"
     x="5"
     y="9" />
  <rect
     style="opacity:0.1;fill:#000000;stroke-width:0.57735"
     id="rect6"
     width="14"
     height="0.5"
     x="5"
     y="11" />
  <path
     id="rect4"
     style="opacity:0.2;fill:#ffffff;fill-opacity:1"
     d="M 6,7 C 5.4460006,7 5,7.4460006 5,8 v 0.5 c 0,-0.5539994 0.4460006,-1 1,-1 h 12 c 0.553999,0 1,0.4460006 1,1 V 8 C 19,7.4460006 18.553999,7 18,7 Z" />
  <path
     id="path5"
     style="opacity:0.2;fill:#000000;fill-opacity:1;stroke-width:1.16667;stroke-linecap:round;stroke-linejoin:round;paint-order:stroke fill markers"
     d="M 10.5,5.5 C 8.5670072,5.5 7,7.0670069 7,9 c 0.00313,0.9117331 0.3619104,1.786264 1,2.4375 v 7.634766 L 8.4453125,19.5 H 9.666016 l 1.347656,-1.285156 -0.333984,-0.28711 0.333984,-0.285156 -0.667969,-0.570312 0.667969,-0.572266 -0.333984,-0.285156 0.333984,-0.28711 -0.5,-0.427734 0.5,-0.427734 v -0.429688 l -0.333984,-0.285156 0.333984,-0.285156 V 13.511719 L 12,13.488281 V 12.5 H 11 V 12.46484 C 12.722279,12.216262 14.000369,10.740126 14,9 14,7.0670069 12.432993,5.4999999 10.5,5.5 Z m 0,1 c 0.552284,0 1,0.4477159 1,1 0,0.5522841 -0.447716,1 -1,1 -0.552284,0 -1,-0.4477159 -1,-1 0,-0.5522841 0.447716,-1 1,-1 z" />
  <path
     id="path6"
     style="fill:#e4e4e4;fill-opacity:1;stroke-width:1.16667;stroke-linecap:round;stroke-linejoin:round;paint-order:stroke fill markers"
     d="M 10.5,5 C 8.5670072,5 7,6.5670069 7,8.5 c 0.00313,0.9117331 0.3619104,1.786264 1,2.4375 v 7.634766 L 8.4453125,19 H 9.666016 l 1.347656,-1.285156 -0.333984,-0.28711 0.333984,-0.285156 L 10.345703,16.572266 11.013672,16 l -0.333984,-0.285156 0.333984,-0.28711 -0.5,-0.427734 0.5,-0.427734 v -0.429688 l -0.333984,-0.285156 0.333984,-0.285156 V 13.011719 L 12,12.988281 V 12 H 11 V 11.96484 C 12.722279,11.716262 14.000369,10.240126 14,8.5 14,6.5670069 12.432993,4.9999999 10.5,5 Z m 0,1 c 0.552284,0 1,0.4477159 1,1 0,0.5522841 -0.447716,1 -1,1 -0.552284,0 -1,-0.4477159 -1,-1 0,-0.5522841 0.447716,-1 1,-1 z" />
  <path
     id="rect5"
     style="opacity:0.2;fill:#000000;fill-opacity:1"
     d="M 9.5,12 C 9.2230003,12 9,12.223 9,12.5 V 19 H 9.6660156 L 10,18.681641 V 12.5 C 10,12.223 9.7769997,12 9.5,12 Z" />
  <path
     id="path7"
     style="opacity:0.2;fill:#ffffff;fill-opacity:1;stroke-width:1.16667;stroke-linecap:round;stroke-linejoin:round;paint-order:stroke fill markers"
     d="M 10.5,5 C 8.5670091,5 7,6.5670088 7,8.5 7.0002811,8.581869 7.0038,8.6630058 7.00977,8.7441406 7.141144,6.930949 8.6533034,5.5 10.5,5.5 c 1.841367,-1e-7 3.34934,1.4227702 3.488281,3.2285156 C 13.993216,8.6525072 14.000016,8.5771296 14,8.5 14,6.5670088 12.432991,4.9999999 10.5,5 Z M 9.5332031,7.25 C 9.5124586,7.3302274 9.5,7.4132893 9.5,7.5 c 0,0.5522835 0.4477166,1 1,1 0.552283,0 1,-0.4477165 1,-1 C 11.5,7.413289 11.48754,7.3302274 11.4668,7.25 11.355414,7.6807623 10.965573,8 10.5,8 10.034427,8 9.6445861,7.6807623 9.5332031,7.25 Z" />
  <path
     id="path1040"
     style="opacity:0.2;fill:#ffffff;stroke-width:4;stroke-linecap:square"
     d="M 6.5,2.0000001 C 4.007005,2.0000001 2,4.0070051 2,6.5 V 7 C 2,4.5070051 4.007005,2.5000001 6.5,2.5000001 h 11 C 19.992996,2.5000001 22,4.5070051 22,7 V 6.5 C 22,4.0070052 19.992996,2.0000001 17.5,2.0000001 Z" />
</svg>
