<?xml version="1.0" encoding="UTF-8" standalone="no"?>
<!-- Created with Inkscape (http://www.inkscape.org/) -->

<svg
   width="24"
   height="24"
   viewBox="0 0 24 24"
   version="1.1"
   id="svg5"
   inkscape:version="1.3.2 (091e20ef0f, 2023-11-25, custom)"
   sodipodi:docname="shotcut.svg"
   xmlns:inkscape="http://www.inkscape.org/namespaces/inkscape"
   xmlns:sodipodi="http://sodipodi.sourceforge.net/DTD/sodipodi-0.dtd"
   xmlns="http://www.w3.org/2000/svg"
   xmlns:svg="http://www.w3.org/2000/svg">
  <sodipodi:namedview
     id="namedview7"
     pagecolor="#ffffff"
     bordercolor="#000000"
     borderopacity="0.25"
     inkscape:showpageshadow="2"
     inkscape:pageopacity="0.0"
     inkscape:pagecheckerboard="0"
     inkscape:deskcolor="#d1d1d1"
     inkscape:document-units="px"
     showgrid="false"
     inkscape:zoom="34.25"
     inkscape:cx="12"
     inkscape:cy="12"
     inkscape:window-width="1920"
     inkscape:window-height="1008"
     inkscape:window-x="0"
     inkscape:window-y="0"
     inkscape:window-maximized="1"
     inkscape:current-layer="svg5" />
  <defs
     id="defs2" />
  <rect
     style="opacity:0.2;fill:#000000;stroke-width:1.42857;stroke-linecap:square"
     id="rect234"
     width="20"
     height="20"
     x="2"
     y="2.5"
     ry="4.5" />
  <rect
     style="fill:#115c77;fill-opacity:1;stroke-width:1.42857;stroke-linecap:square"
     id="rect396"
     width="20"
     height="20"
     x="2"
     y="2"
     ry="4.5" />
  <path
     id="path304"
     style="opacity:0.3;fill:#000000;stroke-width:0.5"
     d="m 8.5,2 v 20 h -2 C 4.007004,22 2,19.992996 2,17.5 V 6.5 C 2,4.007005 4.007004,2 6.5,2 Z" />
  <path
     id="path1040"
     style="opacity:0.1;fill:#ffffff;stroke-width:4;stroke-linecap:square"
     d="M 6.5,2 C 4.007005,2 2,4.007005 2,6.5 V 7 C 2,4.507005 4.007005,2.5 6.5,2.5 h 11 C 19.992996,2.5 22,4.507005 22,7 V 6.5 C 22,4.007005 19.992996,2 17.5,2 Z" />
  <rect
     style="opacity:0.2;fill:#000000;fill-opacity:1;stroke-width:1.41421"
     id="rect1"
     width="2"
     height="22"
     x="8"
     y="1.5"
     ry="0.5" />
  <rect
     style="opacity:1;fill:#e4e4e4;fill-opacity:1"
     id="rect2"
     width="2"
     height="22"
     x="8"
     y="1"
     ry="0.5" />
</svg>
