<?xml version="1.0" encoding="UTF-8" standalone="no"?>
<!-- Created with Inkscape (http://www.inkscape.org/) -->

<svg
   width="24"
   height="24"
   viewBox="0 0 24 24"
   version="1.1"
   id="svg5"
   inkscape:version="1.2.2 (1:1.2.2+202305151914+b0a8486541)"
   sodipodi:docname="skype.svg"
   xmlns:inkscape="http://www.inkscape.org/namespaces/inkscape"
   xmlns:sodipodi="http://sodipodi.sourceforge.net/DTD/sodipodi-0.dtd"
   xmlns="http://www.w3.org/2000/svg"
   xmlns:svg="http://www.w3.org/2000/svg">
  <sodipodi:namedview
     id="namedview7"
     pagecolor="#ffffff"
     bordercolor="#000000"
     borderopacity="0.25"
     inkscape:showpageshadow="2"
     inkscape:pageopacity="0.0"
     inkscape:pagecheckerboard="0"
     inkscape:deskcolor="#d1d1d1"
     inkscape:document-units="px"
     showgrid="false"
     inkscape:zoom="33.583333"
     inkscape:cx="12"
     inkscape:cy="12"
     inkscape:window-width="1920"
     inkscape:window-height="1008"
     inkscape:window-x="0"
     inkscape:window-y="0"
     inkscape:window-maximized="1"
     inkscape:current-layer="svg5" />
  <defs
     id="defs2" />
  <rect
     style="opacity:0.2;fill:#000000;stroke-width:1.42857;stroke-linecap:square"
     id="rect234"
     width="20"
     height="20"
     x="2"
     y="2.5"
     ry="4.5" />
  <rect
     style="fill:#efefef;fill-opacity:1;stroke-width:1.42857;stroke-linecap:square"
     id="rect396"
     width="20"
     height="20"
     x="2"
     y="2"
     ry="4.5" />
  <g
     id="g4183"
     transform="translate(-452.14391,-76.335608)">
    <circle
       style="opacity:0.2;fill:#000000;fill-opacity:1;stroke-width:5;stroke-linecap:round;stroke-linejoin:round"
       id="path4026"
       cx="464.14392"
       cy="88.835609"
       r="7" />
    <ellipse
       style="opacity:0.2;fill:#000000;fill-opacity:1;stroke-width:4.90445;stroke-linecap:round;stroke-linejoin:round"
       id="path4028"
       cx="460.78391"
       cy="85.475609"
       rx="4.6399999"
       ry="4.6400003" />
    <ellipse
       style="opacity:0.2;fill:#000000;fill-opacity:1;stroke-width:4.9347;stroke-linecap:round;stroke-linejoin:round"
       id="path4030"
       cx="467.50391"
       cy="92.19561"
       rx="4.6399999"
       ry="4.6400003" />
    <circle
       style="fill:#1587d7;fill-opacity:1;stroke-width:5.08878;stroke-linecap:round;stroke-linejoin:round"
       id="path3654"
       cx="460.78391"
       cy="84.975609"
       r="4.6399999" />
    <ellipse
       style="fill:#1587d7;fill-opacity:1;stroke-width:4.87117;stroke-linecap:round;stroke-linejoin:round"
       id="path3968"
       cx="467.50391"
       cy="91.69561"
       rx="4.6399999"
       ry="4.6400003" />
    <path
       id="path4032"
       style="opacity:0.21;fill:#ffffff;fill-opacity:1;stroke-width:4.76114;stroke-linecap:round;stroke-linejoin:round"
       d="m 460.78454,80.335608 a 4.6399999,4.6399999 0 0 0 -4.64062,4.640625 4.6399999,4.6399999 0 0 0 0.0176,0.25 4.6399999,4.6399999 0 0 1 4.62304,-4.390625 4.6399999,4.6399999 0 0 1 4.62696,4.316406 4.6399999,4.6399999 0 0 0 0.0117,-0.175781 4.6399999,4.6399999 0 0 0 -4.63868,-4.640625 z" />
    <circle
       style="fill:#28a8ea;fill-opacity:1;stroke-width:5;stroke-linecap:round;stroke-linejoin:round"
       id="path2977"
       cx="464.14392"
       cy="88.335609"
       r="7" />
    <path
       d="m 462.30291,88.69945 c -0.27749,-0.182861 -0.509,-0.427375 -0.67646,-0.714472 -0.1618,-0.303148 -0.24167,-0.643297 -0.23172,-0.9868 -0.0123,-0.435957 0.13637,-0.861171 0.41768,-1.194383 0.29228,-0.334616 0.66796,-0.585798 1.08881,-0.727983 0.45783,-0.16172 0.94019,-0.242905 1.42571,-0.239957 0.31773,-0.003 0.63512,0.02134 0.94868,0.0728 0.22429,0.03469 0.44458,0.09159 0.65761,0.169864 0.1957,0.0663 0.37237,0.179177 0.5148,0.328915 0.10494,0.12316 0.1615,0.280359 0.159,0.442189 0.008,0.169771 -0.0525,0.335623 -0.16711,0.461052 -0.10868,0.115758 -0.26171,0.179531 -0.42044,0.17526 -0.10802,-8e-4 -0.2146,-0.02471 -0.31261,-0.07014 -0.2413,-0.108034 -0.48987,-0.199016 -0.74389,-0.272283 -0.23389,-0.06163 -0.475,-0.09155 -0.71686,-0.08896 -0.31499,-0.01169 -0.62665,0.06789 -0.8975,0.229153 -0.23302,0.141562 -0.37041,0.39889 -0.35844,0.671339 -10e-4,0.175469 0.065,0.344699 0.18594,0.471813 0.14381,0.149157 0.31373,0.270694 0.50133,0.358588 0.21023,0.104309 0.52376,0.242716 0.94057,0.415219 0.0462,0.01461 0.0913,0.03264 0.13477,0.05395 0.40675,0.160908 0.79671,0.361382 1.16427,0.598538 0.29037,0.189391 0.5352,0.440754 0.7169,0.736038 0.17884,0.310207 0.26839,0.663861 0.25873,1.021825 0.0151,0.438461 -0.11059,0.870231 -0.35847,1.232152 -0.2524,0.34262 -0.60157,0.601798 -1.00253,0.74415 -0.48314,0.17259 -0.99366,0.255731 -1.50659,0.245356 -0.70487,0.02481 -1.40642,-0.107827 -2.05362,-0.388252 -0.16562,-0.07369 -0.31084,-0.186577 -0.42313,-0.328916 -0.0931,-0.130361 -0.14133,-0.287434 -0.13748,-0.447587 -0.009,-0.170994 0.0565,-0.337521 0.18055,-0.45565 0.12856,-0.112639 0.29549,-0.171515 0.46624,-0.164458 0.19005,0.0027 0.37671,0.0507 0.5444,0.140191 0.20836,0.104309 0.37277,0.182516 0.49323,0.234606 0.13761,0.05766 0.28014,0.102767 0.42584,0.134789 0.17963,0.03947 0.36314,0.05846 0.54704,0.05659 0.32514,0.02314 0.64868,-0.06321 0.91907,-0.245314 0.20541,-0.160766 0.32077,-0.410688 0.30992,-0.671347 3.9e-4,-0.182366 -0.0691,-0.35796 -0.19402,-0.490719 -0.16517,-0.170208 -0.35845,-0.310657 -0.57133,-0.415169 -0.25159,-0.132995 -0.60556,-0.294768 -1.06192,-0.48532 -0.40827,-0.162714 -0.79922,-0.365945 -1.16698,-0.606644"
       style="opacity:0.2;fill:#000000;fill-rule:evenodd;stroke-width:0.560611"
       id="path3978"
       sodipodi:nodetypes="cccccccccccccccccccccccccccccccccccccccccc" />
    <path
       d="m 462.30291,88.19945 c -0.27749,-0.182861 -0.509,-0.427375 -0.67646,-0.714472 -0.1618,-0.303148 -0.24167,-0.643298 -0.23172,-0.9868 -0.0123,-0.435957 0.13637,-0.861171 0.41768,-1.194383 0.29228,-0.334616 0.66796,-0.585798 1.08881,-0.727983 0.45783,-0.16172 0.94019,-0.242905 1.42571,-0.239957 0.31773,-0.003 0.63512,0.02134 0.94868,0.0728 0.22429,0.03469 0.44458,0.09159 0.65761,0.169864 0.1957,0.0663 0.37237,0.179177 0.5148,0.328915 0.10494,0.12316 0.1615,0.280359 0.159,0.442189 0.008,0.169771 -0.0525,0.335623 -0.16711,0.461052 -0.10868,0.115758 -0.26171,0.179531 -0.42044,0.17526 -0.10802,-8e-4 -0.2146,-0.02471 -0.31261,-0.07014 -0.2413,-0.108034 -0.48987,-0.199016 -0.74389,-0.272283 -0.23389,-0.06163 -0.475,-0.09155 -0.71686,-0.08896 -0.31499,-0.01169 -0.62665,0.06789 -0.8975,0.229153 -0.23302,0.141562 -0.37041,0.39889 -0.35844,0.671339 -0.002,0.175469 0.065,0.344699 0.18594,0.471813 0.14381,0.149157 0.31373,0.270694 0.50133,0.358588 0.21023,0.104309 0.52376,0.242716 0.94057,0.415219 0.0462,0.01461 0.0913,0.03264 0.13477,0.05395 0.40675,0.160908 0.79671,0.361382 1.16427,0.598538 0.29037,0.189391 0.5352,0.440754 0.7169,0.736038 0.17884,0.310207 0.26839,0.663861 0.25873,1.021825 0.0151,0.438461 -0.11059,0.870231 -0.35847,1.232152 -0.2524,0.34262 -0.60157,0.601798 -1.00253,0.74415 -0.48314,0.17259 -0.99366,0.255731 -1.50659,0.245356 -0.70487,0.02481 -1.40642,-0.107827 -2.05362,-0.388252 -0.16562,-0.07369 -0.31084,-0.186577 -0.42314,-0.328916 -0.0931,-0.130361 -0.14132,-0.287434 -0.13747,-0.447587 -0.009,-0.170994 0.0565,-0.337521 0.18055,-0.45565 0.12855,-0.112639 0.29549,-0.171515 0.46624,-0.164458 0.19005,0.0027 0.37671,0.0507 0.5444,0.140191 0.20835,0.104309 0.37277,0.182516 0.49323,0.234606 0.13761,0.05766 0.28014,0.102767 0.42584,0.134789 0.17963,0.03947 0.36314,0.05846 0.54704,0.05659 0.32514,0.02314 0.64868,-0.06321 0.91907,-0.245314 0.20541,-0.160766 0.32077,-0.410688 0.30992,-0.671347 3.9e-4,-0.182366 -0.0691,-0.35796 -0.19402,-0.490719 -0.16517,-0.170208 -0.35845,-0.310657 -0.57133,-0.415169 -0.25159,-0.132995 -0.60556,-0.294768 -1.06192,-0.48532 -0.40827,-0.162714 -0.79922,-0.365945 -1.16698,-0.606644"
       style="fill:#ffffff;fill-rule:evenodd;stroke-width:0.560611"
       id="path4006" />
    <path
       id="path4062"
       style="opacity:0.21;fill:#ffffff;fill-opacity:1;stroke-width:5;stroke-linecap:round;stroke-linejoin:round"
       d="m 464.14392,81.335608 a 7,7 0 0 0 -7,7 7,7 0 0 0 0.0176,0.25 7,7 0 0 1 6.98242,-6.75 7,7 0 0 1 6.99023,6.634766 7,7 0 0 0 0.01,-0.134766 7,7 0 0 0 -7,-7 z" />
  </g>
  <path
     id="path1040"
     style="opacity:0.2;fill:#ffffff;stroke-width:4;stroke-linecap:square"
     d="M 6.5,2 C 4.007005,2 2,4.007005 2,6.5 V 7 C 2,4.507005 4.007005,2.5 6.5,2.5 h 11 C 19.992996,2.5 22,4.507005 22,7 V 6.5 C 22,4.007005 19.992996,2 17.5,2 Z" />
</svg>
