<?xml version="1.0" encoding="UTF-8" standalone="no"?>
<!-- Created with Inkscape (http://www.inkscape.org/) -->

<svg
   width="24"
   height="24"
   viewBox="0 0 24 24"
   version="1.1"
   id="svg5"
   inkscape:version="1.2.2 (1:1.2.2+202305151914+b0a8486541)"
   sodipodi:docname="steamdeck-gaming-return.svg"
   xmlns:inkscape="http://www.inkscape.org/namespaces/inkscape"
   xmlns:sodipodi="http://sodipodi.sourceforge.net/DTD/sodipodi-0.dtd"
   xmlns="http://www.w3.org/2000/svg"
   xmlns:svg="http://www.w3.org/2000/svg">
  <sodipodi:namedview
     id="namedview7"
     pagecolor="#ffffff"
     bordercolor="#000000"
     borderopacity="0.25"
     inkscape:showpageshadow="2"
     inkscape:pageopacity="0.0"
     inkscape:pagecheckerboard="0"
     inkscape:deskcolor="#d1d1d1"
     inkscape:document-units="px"
     showgrid="false"
     inkscape:zoom="33.583333"
     inkscape:cx="11.985112"
     inkscape:cy="12"
     inkscape:window-width="1920"
     inkscape:window-height="1008"
     inkscape:window-x="0"
     inkscape:window-y="0"
     inkscape:window-maximized="1"
     inkscape:current-layer="svg5" />
  <defs
     id="defs2" />
  <rect
     style="opacity:0.2;fill:#000000;stroke-width:1.42857;stroke-linecap:square"
     id="rect234"
     width="20"
     height="20"
     x="2"
     y="2.5"
     ry="4.5" />
  <rect
     style="fill:#4f4f4f;fill-opacity:1;stroke-width:1.42857;stroke-linecap:square"
     id="rect396"
     width="20"
     height="20"
     x="2"
     y="2"
     ry="4.5" />
  <path
     d="m 12,4.5 v 2 c 3.313708,0 6,2.6862915 6,6 0,3.313709 -2.686292,6 -6,6 v 2 c 4.418278,0 8,-3.581722 8,-8 0,-4.418278 -3.581722,-8 -8,-8 z m 0,4 c -2.209139,0 -4,1.790861 -4,4 0,2.209139 1.790861,4 4,4 2.209139,0 4,-1.790861 4,-4 0,-2.209139 -1.790861,-4 -4,-4 z"
     style="opacity:0.2;fill:#000000;fill-opacity:1;stroke-width:2.28571;stroke-linecap:round;stroke-linejoin:round"
     id="path1087" />
  <circle
     style="fill:#556af7;fill-opacity:1;stroke-width:2;stroke-linecap:round;stroke-linejoin:round"
     id="path466"
     cx="12"
     cy="12"
     r="4" />
  <path
     d="m 11.146485,9.646409 -2.0000009,2 c -0.093773,0.09375 -0.1464645,0.220915 -0.1464844,0.353516 1.99e-5,0.132601 0.052712,0.259763 0.1464844,0.353516 l 2.0000009,2 c 0.195252,0.195212 0.511777,0.195212 0.707031,0 0.195212,-0.195254 0.195212,-0.511778 0,-0.707032 l -1.146485,-1.146484 h 3.79297 c 0.276142,0 0.5,-0.223858 0.5,-0.5 0,-0.276142 -0.223858,-0.5 -0.5,-0.5 h -3.79297 l 1.146485,-1.146485 c 0.195212,-0.195253 0.195212,-0.511778 0,-0.707031 -0.195253,-0.195212 -0.511778,-0.195212 -0.707031,0 z"
     style="color:#000000;opacity:0.2;fill:#000000;stroke-linecap:round;stroke-linejoin:round;-inkscape-stroke:none"
     id="path376" />
  <path
     d="M 11.146485,9.1464089 9.1464844,11.146409 C 9.0527114,11.240159 9.0000199,11.367324 9,11.499925 c 1.99e-5,0.132601 0.052712,0.259763 0.1464844,0.353516 l 2.0000006,2 c 0.195252,0.195212 0.511777,0.195212 0.707031,0 0.195212,-0.195254 0.195212,-0.511778 0,-0.707032 l -1.146485,-1.146484 h 3.79297 c 0.276142,0 0.5,-0.223858 0.5,-0.5 0,-0.276142 -0.223858,-0.5 -0.5,-0.5 h -3.79297 l 1.146485,-1.1464849 c 0.195212,-0.1952535 0.195212,-0.5117777 0,-0.7070312 -0.195253,-0.1952118 -0.511778,-0.1952118 -0.707031,0 z"
     style="color:#000000;fill:#ffffff;stroke-linecap:round;stroke-linejoin:round;-inkscape-stroke:none"
     id="path715" />
  <path
     id="path1159"
     style="opacity:0.1;fill:#ffffff;fill-opacity:1;stroke-width:4;stroke-linecap:square"
     d="M 12,8 A 4,4 0 0 0 8,12 4,4 0 0 0 8.017578,12.25 4,4 0 0 1 12,8.5 4,4 0 0 1 15.986328,12.185547 4,4 0 0 0 15.999998,12 a 4,4 0 0 0 -4,-4 z" />
  <path
     id="path344"
     style="fill:#e4e4e4;fill-opacity:1;stroke-width:2.28571;stroke-linecap:round;stroke-linejoin:round"
     d="m 12,4 v 2 c 3.313708,0 6,2.6862915 6,6 0,3.313708 -2.686292,6 -6,6 v 2 c 4.418278,0 8,-3.581722 8,-8 0,-4.418278 -3.581722,-8 -8,-8 z" />
  <path
     id="path1249"
     style="opacity:0.2;fill:#ffffff;fill-opacity:1;stroke-width:2.28571;stroke-linecap:round;stroke-linejoin:round"
     d="m 12,4 v 0.5 c 4.334515,0 7.861884,3.4475688 7.994141,7.75 0.0026,-0.08314 0.0059,-0.166242 0.0059,-0.25 0,-4.4182736 -3.581726,-8 -8,-8 z m 5.994141,8.25 C 17.862862,15.447569 15.229817,18 12,18 v 0.5 c 3.313705,0 6,-2.686295 6,-6 0,-0.08389 -0.0024,-0.16695 -0.0059,-0.25 z" />
  <path
     id="path1040"
     style="opacity:0.1;fill:#ffffff;stroke-width:4;stroke-linecap:square"
     d="M 6.5,2.0000001 C 4.0070052,2.0000001 2.0000001,4.007005 2.0000001,6.5 V 7 c 0,-2.492995 2.007005,-4.4999999 4.4999999,-4.4999999 h 11 C 19.992996,2.5000001 22,4.507005 22,7 V 6.5 C 22,4.007005 19.992996,2.0000001 17.5,2.0000001 Z" />
</svg>
