<?xml version="1.0" encoding="UTF-8" standalone="no"?>
<!-- Created with Inkscape (http://www.inkscape.org/) -->

<svg
   width="24"
   height="24"
   viewBox="0 0 24 24"
   version="1.1"
   id="svg5"
   inkscape:version="1.2.2 (1:1.2.2+202305151914+b0a8486541)"
   sodipodi:docname="thunderbird.svg"
   xmlns:inkscape="http://www.inkscape.org/namespaces/inkscape"
   xmlns:sodipodi="http://sodipodi.sourceforge.net/DTD/sodipodi-0.dtd"
   xmlns="http://www.w3.org/2000/svg"
   xmlns:svg="http://www.w3.org/2000/svg">
  <sodipodi:namedview
     id="namedview7"
     pagecolor="#ffffff"
     bordercolor="#000000"
     borderopacity="0.25"
     inkscape:showpageshadow="2"
     inkscape:pageopacity="0.0"
     inkscape:pagecheckerboard="0"
     inkscape:deskcolor="#d1d1d1"
     inkscape:document-units="px"
     showgrid="false"
     inkscape:zoom="33.583333"
     inkscape:cx="11.985112"
     inkscape:cy="12"
     inkscape:window-width="1920"
     inkscape:window-height="1008"
     inkscape:window-x="0"
     inkscape:window-y="0"
     inkscape:window-maximized="1"
     inkscape:current-layer="svg5" />
  <defs
     id="defs2" />
  <rect
     style="opacity:0.2;fill:#000000;stroke-width:1.42857;stroke-linecap:square"
     id="rect234"
     width="20"
     height="20"
     x="2"
     y="2.5"
     ry="4.5" />
  <rect
     style="fill:#0a4f8d;fill-opacity:1;stroke-width:1.42857;stroke-linecap:square"
     id="rect396"
     width="20"
     height="20"
     x="2"
     y="2"
     ry="4.5" />
  <g
     id="g1812"
     transform="translate(0.6451617,1.2772954)">
    <path
       d="m 9.9248387,5.7927046 c 0.4400003,-1.63 2.7200003,-2.57 4.8600003,-2.57 1.54,0 2.62,0.19 3.57,1 -0.57,0.03 -1,0.59 -1.29,1 0.86,0.1 1.51,0.29 2,0.86 -0.36,-0.07 -0.76,-0.07 -1.14,0 0.92,1.3899996 1.43,3.4499996 1.43,5.1399994 0,4.620001 -3.43,8.000001 -8,8.000001 -4.5700003,0 -8.0000003,-3.43 -8.0000003,-8.000001 0,-0.72 0.12,-1.7999998 0.33,-2.5099998 0.05,-0.15 0.11,-0.28 0.2,-0.33 0.01,-0.01 0.03,-0.02 0.04,-0.02 0.09,0 0.16,0.15 0.17,0.2 0.12,0.46 0.06,1.23 0.26,1.6599998 0,-0.9499998 0.53,-2.1499998 1.07,-2.9099998 0.25,-0.35 0.65,-0.56 0.93,-1.0899996 0.12,-0.23 0.22,-0.47 0.27,-0.87 0,0 0.01,-0.13 0.17,-0.13 0.56,0 0.56,4.2899996 0.56,5.9999994 0.64,0.1 1.24,-3.0599998 1.24,-3.0599998 -0.08,-0.23 -0.1,-0.37 -0.1,-0.65 0,-0.58 0.44,-1.2899996 1.43,-1.7199996 z"
       style="opacity:0.2;fill:#000000"
       id="path1187" />
    <path
       d="m 9.9248387,5.2927046 c 0.4400003,-1.63 2.7200003,-2.57 4.8600003,-2.57 1.54,0 2.62,0.19 3.57,1 -0.57,0.03 -1,0.59 -1.29,1 0.86,0.1 1.51,0.29 2,0.86 -0.36,-0.07 -0.76,-0.07 -1.14,0 0.92,1.39 1.43,3.45 1.43,5.1399994 0,4.620001 -3.43,8.000001 -8,8.000001 -4.5700003,0 -8.0000005,-3.43 -8.0000005,-8.000001 0,-0.72 0.12,-1.7999994 0.33,-2.5099994 0.05,-0.15 0.1100002,-0.28 0.2000002,-0.33 0.01,-0.01 0.03,-0.02 0.04,-0.02 0.09,0 0.16,0.15 0.17,0.2 0.12,0.46 0.06,1.23 0.26,1.6599996 0,-0.9499996 0.53,-2.1499996 1.07,-2.9099996 0.25,-0.35 0.65,-0.56 0.93,-1.09 0.12,-0.23 0.22,-0.47 0.27,-0.87 0,0 0.01,-0.13 0.17,-0.13 0.56,0 0.56,4.29 0.56,5.9999994 0.64,0.1 1.24,-3.0599994 1.24,-3.0599994 -0.08,-0.23 -0.1,-0.37 -0.1,-0.65 0,-0.58 0.44,-1.29 1.43,-1.72 z"
       style="fill:#248afd"
       id="path1159" />
    <path
       d="m 18.934839,7.8627046 c 0.03,0.1 0.13,0.53 0.13,0.86 0,4.4000004 -3.45,8.2900004 -7.71,8.2900004 -1.6600003,0 -2.6800003,-0.39 -4.0000003,-1.44 -1.9,-1.53 -3.7099998,-3.51 -3.7099998,-5.9900004 0,-0.57 0.12,-1.34 0.2,-1.62 0.02,-0.08 0.04,-0.1 0.08,-0.1 -0.01,0 -0.03,0.01 -0.04,0.02 -0.09,0.05 -0.15,0.17 -0.2,0.33 -0.09,0.23 -0.22,0.99 -0.23,1.08 -0.04,0.29 -0.1,0.9500004 -0.1,1.4300004 0,4.57 3.4299998,8 8.0000001,8 4.57,0 8,-3.38 8,-8 0,-1.1400004 -0.19,-2.1400004 -0.42,-2.8600004 z"
       style="fill:#0271ef"
       id="path1264"
       sodipodi:nodetypes="csscscccccsssc" />
    <path
       d="m 3.8448387,7.9627046 c -0.12,0.5 -0.2,1.05 -0.2,1.62 0,1.7800004 0.97,3.5200004 2.71,5.1400004 -0.15,-0.18 -0.27,-0.43 -0.38,-0.72 -0.22,-0.62 -0.62,-1.44 -0.62,-2.28 0,-0.93 0,-1.7900004 0.62,-2.6500004 0.04,-0.05 0.09,-0.06 0.16,-0.06 0.09,0 0.18,0.09 0.19,0.21 0,0.17 0.01,0.33 0.03,0.5 0.36,3.8400004 3.16,6.0000004 7.0000003,6.0000004 -1.28,0 -4.6800003,-1.78 -1.86,-2.32 1.48,-0.29 3.86,-0.97 3.86,-2.68 0,-3.5100004 -2,-4.5700004 -4,-4.5700004 -1.22,0 -2.5100003,0.62 -2.7600003,1.51 0.12,0.38 -0.94,3.1000004 -1.24,3.0600004 0,-1.7100004 0,-6.0000004 -0.56,-6.0000004 -0.15,0 -0.17,0.13 -0.17,0.13 -0.04,0.37 -0.16,0.65 -0.27,0.87 -0.28,0.56 -0.67,0.73 -0.93,1.09 -0.54,0.76 -1.07,1.86 -1.07,2.91 -0.2,-0.43 -0.14,-1.2 -0.26,-1.66 -0.01,-0.05 -0.08,-0.2 -0.17,-0.2 -0.05,0 -0.07,0.05 -0.08,0.1 z"
       style="fill:#0259bb"
       id="path1131" />
    <path
       d="m 11.644839,13.792705 c 0.25,0 0.47,-0.03 0.71,-0.07 1.66,-0.29 3,-1.5 3,-3 0,-0.72 -0.18,-1.7100005 -0.57,-2.2900005 -0.7,-1.03 -1.97,-1.7099999 -3.43,-1.7099999 -1.4900003,0 -2.7400003,0.6499999 -3.4300003,1.7099999 -0.36,0.57 -0.57,1.5999995 -0.57,2.2899995 0,3.310001 2.57,5.000001 6.0000003,5.000001 -0.21,-0.03 -0.95,-0.29 -1.86,-1.36 -0.08,-0.1 -0.14,-0.18 -0.14,-0.29 0,-0.17 0.16,-0.28 0.29,-0.28 z"
       style="fill:#d6d6d6"
       id="path1075"
       sodipodi:nodetypes="scscscsccss" />
    <path
       d="m 11.924839,11.932704 c -0.18,0.19 -0.35,0.29 -0.57,0.29 -0.21,0 -0.4,-0.11 -0.570001,-0.29 L 7.6248385,9.1127046 c 0.02,-0.09 0.08,-0.27 0.15,-0.39 h 7.1700005 c 0.05,0.1 0.09,0.21 0.13,0.31 z"
       style="opacity:0.2;fill:#000000"
       id="path1047" />
    <path
       d="m 11.924839,11.432705 c -0.17,0.18 -0.35,0.29 -0.57,0.29 -0.21,0 -0.41,-0.13 -0.57,-0.29 L 7.7648387,8.7227046 c 0.48,-1 1.73,-2 3.5900003,-2 1.779999,0 3.11,1.01 3.59,2 z"
       style="fill:#e4e4e4"
       id="path1103" />
    <path
       id="path1589"
       style="opacity:0.2;fill:#000000"
       d="m 11.354839,6.7227046 c -1.092003,0 -2.0549291,0.3496355 -2.7630542,0.9536904 L 8.8154242,8.0002257 C 9.4969468,7.5048911 10.373805,7.2227046 11.354839,7.2227046 c 1.459998,0 2.729688,0.6809385 3.429688,1.7109375 0.338692,0.5036971 0.518966,1.3154349 0.560546,1.9921879 0.0055,-0.06706 0.0098,-0.134807 0.0098,-0.203125 0,-0.72 -0.180313,-1.7090635 -0.570312,-2.2890629 -0.7,-1.029999 -1.96969,-1.7109375 -3.429688,-1.7109375 z m 0.126953,7.6230474 c -0.07191,0.04832 -0.126953,0.126703 -0.126953,0.226562 0,0.11 0.06062,0.191016 0.140625,0.291016 0.294601,0.346399 0.569654,0.606442 0.816406,0.802734 0.337121,0.0367 0.685194,0.05664 1.042969,0.05664 -0.21,-0.03 -0.949376,-0.289376 -1.859375,-1.359375 -0.0048,-0.0061 -0.009,-0.01165 -0.01367,-0.01758 z"
       sodipodi:nodetypes="sccsccscscsccccc" />
    <path
       d="m 12.324839,5.6727046 c 0.58,-0.18 0.53,-0.74 0.53,-0.74 0,0 -0.29,-0.34 -0.87,-0.15 -0.55,0.17 -0.63,0.55 -0.63,0.55 0,0 0.3,0.55 0.97,0.34 z"
       style="fill:#e4e4e4"
       id="path1292" />
    <path
       id="path1384"
       style="opacity:0.2;fill:#ffffff"
       d="m 14.784527,2.7227046 c -2.139996,0 -4.419377,0.9403174 -4.8593758,2.5703125 -0.989997,0.4299988 -1.4296875,1.1387518 -1.4296875,1.71875 0,0.125965 0.00389,0.2222623 0.015625,0.3125 C 8.5950311,6.7848806 9.0393246,6.17777 9.9251512,5.7930171 10.36515,4.1630219 12.644531,3.2227046 14.784527,3.2227046 c 1.290627,0 2.256998,0.1362388 3.095703,0.65625 0.146258,-0.086593 0.302956,-0.1472156 0.474609,-0.15625 -0.949997,-0.8099976 -2.030318,-1 -3.570312,-1 z m -7.9902352,2 c -0.1599994,0 -0.1699218,0.1308594 -0.1699219,0.1308594 -0.05,0.3999988 -0.1495315,0.6391412 -0.2695312,0.8691406 C 6.0748396,6.2527027 5.6751505,6.4625493 5.4251512,6.8125484 4.8851527,7.572546 4.3548387,8.7727073 4.3548387,9.7227046 4.1548393,9.2927058 4.2150727,8.5225469 4.0950731,8.0625484 c -0.01,-0.05 -0.079922,-0.1992188 -0.1699219,-0.1992188 -0.01,0 -0.031016,0.00953 -0.041016,0.019531 -0.09,0.05 -0.1492189,0.1800785 -0.1992188,0.3300782 -0.2099994,0.7099983 -0.3300781,1.7897682 -0.3300781,2.5097662 0,0.102202 0.00441,0.203651 0.00781,0.304687 0.017877,-0.710655 0.1294818,-1.66266 0.3222656,-2.314453 0.05,-0.1499997 0.109219,-0.2800782 0.1992188,-0.3300782 0.01,-0.01 0.031016,-0.019531 0.041016,-0.019531 0.09,0 0.1599219,0.1492188 0.1699219,0.1992188 0.1199996,0.4599981 0.059766,1.2301572 0.2597656,1.6601564 0,-0.9499977 0.530314,-2.150159 1.0703125,-2.9101566 C 5.6751505,6.9625493 6.0748396,6.7527027 6.3548387,6.2227046 6.4748384,5.9927052 6.5743702,5.7535628 6.6243699,5.353564 c 0,0 0.00992,-0.1308594 0.1699219,-0.1308594 0.5599985,0 0.5605469,4.2900051 0.5605469,6.0000004 v -0.5 c 0,-1.7099948 -5.484e-4,-6.0000004 -0.5605469,-6.0000004 z m 0.5605469,6.0000004 c 0,0.0988 0.00328,0.195105 0.00781,0.291015 0.035798,-0.67623 0.2368957,-1.564538 0.5625,-2.0800779 C 8.1608696,8.5715239 8.462081,8.2571056 8.8157762,8.0000484 L 8.5931199,7.6777827 C 8.335049,7.8979319 8.1094493,8.1505175 7.9251512,8.4336421 7.5651523,9.0036403 7.3548387,10.032707 7.3548387,10.722705 Z M 17.417339,4.7734858 c -0.133628,0.1494279 -0.251364,0.3075564 -0.351562,0.4492188 0.489844,0.056959 0.908659,0.145507 1.271484,0.3144531 0.248456,-0.012831 0.497173,-6.14e-5 0.728516,0.044922 -0.420555,-0.4892156 -0.96055,-0.6958723 -1.648438,-0.8085939 z m 0.785156,1.2714844 c -0.09323,0.00874 -0.185602,0.02021 -0.277344,0.037109 0.87021,1.3147708 1.371892,3.2297475 1.423829,4.8632808 0.0018,-0.07416 0.0059,-0.147837 0.0059,-0.222655 0,-1.5116553 -0.407826,-3.3182966 -1.152344,-4.6777348 z M 6.1360887,9.0117671 c -0.07,0 -0.1201566,0.010547 -0.1601562,0.060547 -0.619997,0.8599952 -0.6210938,1.7203949 -0.6210938,2.6503909 0,0.03392 0.00459,0.06773 0.00586,0.101562 0.01142,-0.778828 0.085323,-1.516915 0.6152344,-2.251953 0.04,-0.05 0.090156,-0.060547 0.1601562,-0.060547 0.09,0 0.1794531,0.090939 0.1894531,0.2109375 0,0.1699994 0.0093,0.3300005 0.029297,0.5000005 0.2566082,2.737155 1.7551737,4.618663 3.9843746,5.474609 0.315226,0.140174 0.675326,0.248007 1.085938,0.324219 0.16442,0.03052 0.358526,0.06148 0.564453,0.08984 0.910309,0.05312 1.314914,-0.346904 1.365234,-0.388668 -0.317725,-0.03692 -1.685905,-0.155924 -1.929688,-0.201172 -0.410613,-0.07621 -0.770713,-0.184045 -1.085937,-0.324219 C 8.1100122,14.341368 6.6114469,12.45986 6.3548387,9.7227046 c -0.02,-0.169999 -0.029297,-0.3300009 -0.029297,-0.5 -0.01,-0.1199991 -0.099454,-0.2109375 -0.189453,-0.2109375 z m 9.2089843,1.9003909 c -0.107727,1.411172 -1.401096,2.532925 -2.990234,2.810547 -0.239999,0.04 -0.460939,0.07031 -0.710938,0.07031 -0.129999,0 -0.289062,0.109302 -0.289062,0.279297 0,0.104181 0.05714,0.182456 0.130859,0.275391 0.04977,-0.03277 0.105428,-0.05469 0.158203,-0.05469 0.249999,0 0.470939,-0.03031 0.710938,-0.07031 1.65999,-0.29 3,-1.500008 3,-3 0,-0.09 -0.0021,-0.184171 -0.0078,-0.28125 -5.24e-4,-0.0095 -8.57e-4,-0.01952 -0.002,-0.0293 z" />
  </g>
  <path
     id="path1040"
     style="opacity:0.1;fill:#ffffff;stroke-width:4;stroke-linecap:square"
     d="M 6.5,2 C 4.007005,2 2,4.007005 2,6.5 V 7 C 2,4.507005 4.007005,2.5 6.5,2.5 h 11 C 19.992996,2.5 22,4.507005 22,7 V 6.5 C 22,4.007005 19.992996,2 17.5,2 Z" />
</svg>
