<?xml version="1.0" encoding="UTF-8" standalone="no"?>
<!-- Created with Inkscape (http://www.inkscape.org/) -->

<svg
   width="24"
   height="24"
   viewBox="0 0 24 24"
   version="1.1"
   id="svg5"
   inkscape:version="1.3.2 (091e20ef0f, 2023-11-25, custom)"
   sodipodi:docname="tilix.svg"
   xmlns:inkscape="http://www.inkscape.org/namespaces/inkscape"
   xmlns:sodipodi="http://sodipodi.sourceforge.net/DTD/sodipodi-0.dtd"
   xmlns="http://www.w3.org/2000/svg"
   xmlns:svg="http://www.w3.org/2000/svg">
  <sodipodi:namedview
     id="namedview7"
     pagecolor="#ffffff"
     bordercolor="#000000"
     borderopacity="0.25"
     inkscape:showpageshadow="2"
     inkscape:pageopacity="0.0"
     inkscape:pagecheckerboard="0"
     inkscape:deskcolor="#d1d1d1"
     inkscape:document-units="px"
     showgrid="false"
     inkscape:zoom="33.5"
     inkscape:cx="12"
     inkscape:cy="12"
     inkscape:window-width="1920"
     inkscape:window-height="1008"
     inkscape:window-x="0"
     inkscape:window-y="0"
     inkscape:window-maximized="1"
     inkscape:current-layer="svg5" />
  <defs
     id="defs2" />
  <rect
     style="opacity:0.2;fill:#000000;stroke-width:1.42857;stroke-linecap:square"
     id="rect234"
     width="20"
     height="20"
     x="2"
     y="2.4999995"
     ry="4.5" />
  <rect
     style="fill:#4f4f4f;fill-opacity:1;stroke-width:1.42857;stroke-linecap:square"
     id="rect396"
     width="20"
     height="20"
     x="2"
     y="2"
     ry="4.5" />
  <path
     id="path304"
     style="opacity:0.1;fill:#000000;stroke-width:0.5"
     d="m 12,2 v 20 h 5.5 C 19.992998,22 22,19.992998 22,17.5 V 6.5 C 22,4.0070025 19.992998,2 17.5,2 Z" />
  <path
     id="path1"
     style="color:#000000;opacity:0.2;fill:#000000;stroke:none;stroke-linecap:round;stroke-linejoin:round;-inkscape-stroke:none"
     d="M 4.4960938,5.5 C 4.3417939,5.502 4.1953524,5.5735989 4.1015625,5.6992188 3.9349927,5.9202285 3.9796521,6.2345108 4.2011719,6.4003906 L 5.6679688,7.5 4.2011719,8.5996094 C 3.9796421,8.7654892 3.9349827,9.0797715 4.1015625,9.3007812 4.2674423,9.522311 4.5817246,9.5669705 4.8027344,9.4003906 l 2,-1.5 c 0.2673197,-0.1999998 0.2673197,-0.6007814 0,-0.8007812 l -2,-1.5 C 4.7326344,5.5465094 4.6497799,5.5128531 4.5625,5.5019531 4.5403,5.4989531 4.5180937,5.5 4.4960938,5.5 Z m 10.0000002,0 c -0.1543,0.002 -0.300742,0.073599 -0.394532,0.1992188 -0.166569,0.2210097 -0.12191,0.535292 0.09961,0.7011718 L 15.667969,7.5 14.201172,8.5996094 c -0.22153,0.1658798 -0.266189,0.4801621 -0.09961,0.7011718 0.16588,0.2215298 0.480163,0.2661893 0.701172,0.099609 l 2,-1.5 c 0.26732,-0.1999998 0.26732,-0.6007814 0,-0.8007812 l -2,-1.5 C 14.732634,5.5465094 14.64978,5.5128531 14.5625,5.5019531 14.5403,5.4989531 14.518094,5.5 14.496094,5.5 Z m -6.9941409,3 c -0.2761397,0 -0.5,0.2238603 -0.5,0.5 0,0.2761397 0.2238603,0.5 0.5,0.5 h 2 c 0.2761397,0 0.4999999,-0.2238603 0.4999999,-0.5 0,-0.2761397 -0.2238602,-0.5 -0.4999999,-0.5 z m 9.9999999,0 c -0.27614,0 -0.5,0.2238603 -0.5,0.5 0,0.2761397 0.22386,0.5 0.5,0.5 h 2 c 0.27614,0 0.5,-0.2238603 0.5,-0.5 0,-0.2761397 -0.22386,-0.5 -0.5,-0.5 z" />
  <path
     id="path1-3"
     style="color:#000000;fill:#ffffff;stroke:none;stroke-linecap:round;stroke-linejoin:round;-inkscape-stroke:none"
     d="M 4.4960938,5 C 4.3417939,5.002 4.1953524,5.0735989 4.1015625,5.1992188 3.9349927,5.4202285 3.9796521,5.7345108 4.2011719,5.9003906 L 5.6679688,7 4.2011719,8.0996094 C 3.9796421,8.2654892 3.9349827,8.5797715 4.1015625,8.8007812 4.2674423,9.022311 4.5817246,9.0669705 4.8027344,8.9003906 l 2,-1.5 c 0.2673197,-0.1999998 0.2673197,-0.6007814 0,-0.8007812 l -2,-1.5 C 4.7326344,5.0465094 4.6497799,5.0128531 4.5625,5.0019531 4.5403,4.9989531 4.5180937,5 4.4960938,5 Z M 14.496094,5 c -0.1543,0.002 -0.300742,0.073599 -0.394532,0.1992188 -0.166569,0.2210097 -0.12191,0.535292 0.09961,0.7011718 L 15.667969,7 14.201172,8.0996094 c -0.22153,0.1658798 -0.266189,0.4801621 -0.09961,0.7011718 0.16588,0.2215298 0.480163,0.2661893 0.701172,0.099609 l 2,-1.5 c 0.26732,-0.1999998 0.26732,-0.6007814 0,-0.8007812 l -2,-1.5 C 14.732634,5.0465094 14.64978,5.0128531 14.5625,5.0019531 14.5403,4.9989531 14.518094,5 14.496094,5 Z M 7.5019531,8 c -0.2761397,0 -0.5,0.2238603 -0.5,0.5 0,0.2761397 0.2238603,0.5 0.5,0.5 h 2 C 9.7780928,9 10.001953,8.7761397 10.001953,8.5 10.001953,8.2238603 9.7780928,8 9.5019531,8 Z m 9.9999999,0 c -0.27614,0 -0.5,0.2238603 -0.5,0.5 0,0.2761397 0.22386,0.5 0.5,0.5 h 2 c 0.27614,0 0.5,-0.2238603 0.5,-0.5 0,-0.2761397 -0.22386,-0.5 -0.5,-0.5 z" />
  <path
     id="path1040"
     style="opacity:0.1;fill:#ffffff;stroke-width:4;stroke-linecap:square"
     d="M 6.5,2.0000001 C 4.007005,2.0000001 2,4.0070051 2,6.5 V 7 C 2,4.5070051 4.007005,2.5000001 6.5,2.5000001 h 11 C 19.992996,2.5000001 22,4.5070051 22,7 V 6.5 C 22,4.0070052 19.992996,2.0000001 17.5,2.0000001 Z" />
</svg>
