<?xml version="1.0" encoding="UTF-8" standalone="no"?>
<!-- Created with Inkscape (http://www.inkscape.org/) -->

<svg
   width="24"
   height="24"
   viewBox="0 0 24 24"
   version="1.1"
   id="svg5"
   inkscape:version="1.2.2 (1:1.2.2+202305151914+b0a8486541)"
   sodipodi:docname="utilities-system-monitor.svg"
   xmlns:inkscape="http://www.inkscape.org/namespaces/inkscape"
   xmlns:sodipodi="http://sodipodi.sourceforge.net/DTD/sodipodi-0.dtd"
   xmlns="http://www.w3.org/2000/svg"
   xmlns:svg="http://www.w3.org/2000/svg">
  <sodipodi:namedview
     id="namedview7"
     pagecolor="#ffffff"
     bordercolor="#000000"
     borderopacity="0.25"
     inkscape:showpageshadow="2"
     inkscape:pageopacity="0.0"
     inkscape:pagecheckerboard="0"
     inkscape:deskcolor="#d1d1d1"
     inkscape:document-units="px"
     showgrid="false"
     inkscape:zoom="33.583333"
     inkscape:cx="12"
     inkscape:cy="12"
     inkscape:window-width="1920"
     inkscape:window-height="1008"
     inkscape:window-x="0"
     inkscape:window-y="0"
     inkscape:window-maximized="1"
     inkscape:current-layer="svg5" />
  <defs
     id="defs2" />
  <rect
     style="opacity:0.2;fill:#000000;stroke-width:1.42857;stroke-linecap:square"
     id="rect234"
     width="20"
     height="20"
     x="2"
     y="2.4999995"
     ry="4.5" />
  <rect
     style="fill:#4f4f4f;fill-opacity:1;stroke-width:1.42857;stroke-linecap:square"
     id="rect396"
     width="20"
     height="20"
     x="2"
     y="2"
     ry="4.5" />
  <path
     d="m 13.05859,4.5019898 c -0.45655,-0.0268 -0.87312,0.25948 -1.01172,0.69532 L 9.67187,12.66215 8.47656,7.2832398 C 8.27269,6.3635198 7.02643,6.2100198 6.60547,7.0527698 L 4.38281,11.50004 H 2 v 2 h 3 c 0.37879,3e-5 0.72509,-0.21395 0.89453,-0.55273 l 1.24023,-2.48047 1.38868,6.25 c 0.22125,0.99806 1.62059,1.06038 1.92968,0.0859 l 2.30665,-7.2519502 1.75781,9.1386702 c 0.18055,0.93917 1.44986,1.11352 1.87695,0.25781 L 19.11719,13.5 H 22 v -2 h -3.5 c -0.37879,-3e-5 -0.72509,0.21395 -0.89453,0.55273 L 15.92578,15.41406 13.98242,5.3105498 c -0.0868,-0.44908 -0.46721,-0.78203 -0.92383,-0.8086 z"
     style="color:#000000;opacity:0.2;fill:#000000;stroke-linejoin:round;-inkscape-stroke:none"
     id="path1651" />
  <path
     d="m 13.05859,4.0019898 c -0.45655,-0.0268 -0.87312,0.25948 -1.01172,0.69532 L 9.67187,12.16215 8.47656,6.7832398 C 8.27269,5.8635198 7.02643,5.7100198 6.60547,6.5527698 L 4.38281,11.00004 H 2 v 2 h 3 c 0.37879,3e-5 0.72509,-0.21395 0.89453,-0.55273 L 7.13476,9.9668398 8.52344,16.21684 c 0.22125,0.99806 1.62059,1.06038 1.92968,0.0859 l 2.30665,-7.2519502 1.75781,9.1386702 c 0.18055,0.93917 1.44986,1.11352 1.87695,0.25781 L 19.11719,13 H 22 v -2 h -3.5 c -0.37879,-3e-5 -0.72509,0.21395 -0.89453,0.55273 L 15.92578,14.91406 13.98242,4.8105498 c -0.0868,-0.44908 -0.46721,-0.78203 -0.92383,-0.8086 z"
     style="color:#000000;fill:#00e441;stroke-linejoin:round;-inkscape-stroke:none"
     id="path361"
     sodipodi:nodetypes="sccccccccccccccccccccccss" />
  <path
     id="path1679"
     style="color:#000000;opacity:0.2;fill:#ffffff;stroke-linejoin:round;-inkscape-stroke:none"
     d="m 13.05859,4.0022098 c -0.45655,-0.0268 -0.87312,0.25948 -1.01171,0.69532 L 9.67188,12.16237 8.47656,6.7834598 C 8.27269,5.8637398 7.02643,5.7102498 6.60547,6.5529898 L 4.38281,11.00026 H 2 v 0.5 H 4.38281 L 6.60547,7.0529898 c 0.42096,-0.84274 1.66722,-0.68925 1.87109,0.23047 l 1.19532,5.3789102 2.375,-7.4648402 c 0.13859,-0.43584 0.55516,-0.72212 1.01171,-0.69532 0.45662,0.0266 0.83703,0.35952 0.92383,0.8086 L 15.92578,15.41432 17.60547,12.05299 C 17.77491,11.71421 18.12121,11.50023 18.5,11.50026 H 22 v -0.5 h -3.5 c -0.37879,-3e-5 -0.72509,0.21395 -0.89453,0.55273 L 15.92578,14.91432 13.98242,4.8108098 c -0.0868,-0.44908 -0.46721,-0.78203 -0.92383,-0.8086 z" />
  <path
     id="path1040"
     style="opacity:0.1;fill:#ffffff;stroke-width:4;stroke-linecap:square"
     d="M 6.5,2.0000001 C 4.007005,2.0000001 2,4.0070051 2,6.5 V 7 C 2,4.5070051 4.007005,2.5000001 6.5,2.5000001 h 11 C 19.992996,2.5000001 22,4.5070051 22,7 V 6.5 C 22,4.0070052 19.992996,2.0000001 17.5,2.0000001 Z" />
</svg>
