<?xml version="1.0" encoding="UTF-8" standalone="no"?>
<!-- Created with Inkscape (http://www.inkscape.org/) -->

<svg
   width="24"
   height="24"
   viewBox="0 0 24 24"
   version="1.1"
   id="svg5"
   inkscape:version="1.2.2 (1:1.2.2+202305151914+b0a8486541)"
   sodipodi:docname="vmware-workstation.svg"
   xmlns:inkscape="http://www.inkscape.org/namespaces/inkscape"
   xmlns:sodipodi="http://sodipodi.sourceforge.net/DTD/sodipodi-0.dtd"
   xmlns="http://www.w3.org/2000/svg"
   xmlns:svg="http://www.w3.org/2000/svg">
  <sodipodi:namedview
     id="namedview7"
     pagecolor="#ffffff"
     bordercolor="#000000"
     borderopacity="0.25"
     inkscape:showpageshadow="2"
     inkscape:pageopacity="0.0"
     inkscape:pagecheckerboard="0"
     inkscape:deskcolor="#d1d1d1"
     inkscape:document-units="px"
     showgrid="false"
     inkscape:zoom="33.583333"
     inkscape:cx="11.985112"
     inkscape:cy="12"
     inkscape:window-width="1920"
     inkscape:window-height="1008"
     inkscape:window-x="0"
     inkscape:window-y="0"
     inkscape:window-maximized="1"
     inkscape:current-layer="svg5" />
  <defs
     id="defs2" />
  <rect
     style="opacity:0.2;fill:#000000;stroke-width:1.42857;stroke-linecap:square"
     id="rect234"
     width="20"
     height="20"
     x="2"
     y="2.5"
     ry="4.5" />
  <rect
     style="fill:#efefef;fill-opacity:1;stroke-width:1.42857;stroke-linecap:square"
     id="rect396"
     width="20"
     height="20"
     x="2"
     y="2"
     ry="4.5" />
  <path
     d="M 6.5,9.5 C 5.67157,9.5 5,10.17157 5,11 v 7 c 0,0.82843 0.67157,1.5 1.5,1.5 h 7 C 14.32843,19.5 15,18.82843 15,18 V 11 C 15,10.17157 14.32843,9.5 13.5,9.5 Z m 1.5,2 h 4 c 0.554,0 1,0.446 1,1 v 4 c 0,0.554 -0.446,1 -1,1 H 8 c -0.554,0 -1,-0.446 -1,-1 v -4 c 0,-0.554 0.446,-1 1,-1 z"
     style="opacity:0.2;fill:#000000;fill-opacity:1;stroke-width:2;stroke-linecap:square"
     id="path3628" />
  <path
     d="M 6.5,9 C 5.67157,9 5,9.67157 5,10.5 v 7 C 5,18.32843 5.67157,19 6.5,19 h 7 c 0.82843,0 1.5,-0.67157 1.5,-1.5 v -7 C 15,9.67157 14.32843,9 13.5,9 Z M 8,11 h 4 c 0.554,0 1,0.446 1,1 v 4 c 0,0.554 -0.446,1 -1,1 H 8 C 7.446,17 7,16.554 7,16 v -4 c 0,-0.554 0.446,-1 1,-1 z"
     style="fill:#f38b00;fill-opacity:1;stroke-width:2;stroke-linecap:square"
     id="path3129"
     sodipodi:nodetypes="ssssssssssssssssss" />
  <path
     id="path3565"
     style="opacity:0.2;fill:#000000;fill-opacity:1;stroke-width:2;stroke-linecap:square"
     d="M 10.5,5.5 C 9.67157,5.5 9,6.17157 9,7 v 2 h 2 V 8.5 c 0,-0.554 0.446,-1 1,-1 h 4 c 0.554,0 1,0.446 1,1 v 4 c 0,0.554 -0.446,1 -1,1 h -4 c -0.554,0 -1,-0.446 -1,-1 V 11 H 9 v 3 c 0,0.82843 0.67157,1.5 1.5,1.5 h 7 C 18.32843,15.5 19,14.82843 19,14 V 7 C 19,6.17157 18.32843,5.5 17.5,5.5 Z"
     sodipodi:nodetypes="ssccssssssssccsssssss" />
  <path
     id="path2501"
     style="fill:#0097d3;fill-opacity:1;stroke-width:2;stroke-linecap:square"
     d="M 10.5,5 C 9.67157,5 9,5.67157 9,6.5 V 9 h 2 V 8 c 0,-0.554 0.446,-1 1,-1 h 4 c 0.554,0 1,0.446 1,1 v 4 c 0,0.554 -0.446,1 -1,1 h -4 c -0.554,0 -1,-0.446 -1,-1 V 11 H 9 v 2.5 c 0,0.82843 0.67157,1.5 1.5,1.5 h 7 c 0.82843,0 1.5,-0.67157 1.5,-1.5 v -7 C 19,5.67157 18.32843,5 17.5,5 Z"
     sodipodi:nodetypes="ssccssssssssccsssssss" />
  <path
     id="path1040"
     style="opacity:0.2;fill:#ffffff;stroke-width:4;stroke-linecap:square"
     d="M 6.5,2 C 4.007005,2 2,4.007005 2,6.5 V 7 C 2,4.507005 4.007005,2.5 6.5,2.5 h 11 C 19.992996,2.5 22,4.507005 22,7 V 6.5 C 22,4.007005 19.992996,2 17.5,2 Z" />
</svg>
