<?xml version="1.0" encoding="UTF-8" standalone="no"?>
<!-- Created with Inkscape (http://www.inkscape.org/) -->

<svg
   width="24"
   height="24"
   viewBox="0 0 24 24"
   version="1.1"
   id="svg5"
   inkscape:version="1.3 (1:1.3+202307231459+0e150ed6c4)"
   sodipodi:docname="weather-app.svg"
   xmlns:inkscape="http://www.inkscape.org/namespaces/inkscape"
   xmlns:sodipodi="http://sodipodi.sourceforge.net/DTD/sodipodi-0.dtd"
   xmlns="http://www.w3.org/2000/svg"
   xmlns:svg="http://www.w3.org/2000/svg">
  <sodipodi:namedview
     id="namedview7"
     pagecolor="#ffffff"
     bordercolor="#000000"
     borderopacity="0.25"
     inkscape:showpageshadow="2"
     inkscape:pageopacity="0.0"
     inkscape:pagecheckerboard="0"
     inkscape:deskcolor="#d1d1d1"
     inkscape:document-units="px"
     showgrid="false"
     inkscape:zoom="29.916667"
     inkscape:cx="12"
     inkscape:cy="11.983287"
     inkscape:window-width="1920"
     inkscape:window-height="1008"
     inkscape:window-x="0"
     inkscape:window-y="0"
     inkscape:window-maximized="1"
     inkscape:current-layer="svg5" />
  <defs
     id="defs2" />
  <rect
     style="opacity:0.2;fill:#000000;stroke-width:1.42857;stroke-linecap:square"
     id="rect234"
     width="20"
     height="20"
     x="2"
     y="2.5"
     ry="4.5" />
  <rect
     style="fill:#039be5;fill-opacity:1;stroke-width:1.42857;stroke-linecap:square"
     id="rect396"
     width="20"
     height="20"
     x="2"
     y="2"
     ry="4.5" />
  <path
     d="m 14,4.5 -2,2 h -2 v 2 L 8.0000002,10.5 10,12.5 v 2 h 2 l 2,2 2,-2 h 2 v -2 l 2,-2 -2,-2 v -2 h -2 z"
     style="opacity:0.2;fill:#000000"
     id="path9" />
  <path
     style="fill:#ff8a47"
     d="M 14,4 12,6 H 10 V 8 L 8.0000002,10 10,12 v 2 h 2 l 2,2 2,-2 h 2 V 12 L 20,10 18,8 V 6 h -2 z"
     id="path2" />
  <path
     id="path10"
     style="opacity:0.2;fill:#ffffff"
     d="m 14,4 -2,2 h -2 v 0.5 h 2 l 2,-2 2,2 h 2 V 6 h -2 z m -4,4 -1.9999998,2 0.25,0.25 L 10,8.5 Z m 8,0 V 8.5 L 19.75,10.25 20,10 Z" />
  <circle
     style="opacity:0.2;fill:#000000;stroke-linecap:round;stroke-linejoin:round"
     id="path6"
     cx="14"
     cy="10.5"
     r="3" />
  <circle
     style="fill:#ffcc42;fill-opacity:1;stroke-linecap:round;stroke-linejoin:round"
     id="path7"
     cx="14"
     cy="10"
     r="3" />
  <path
     id="path8"
     style="opacity:0.2;fill:#ffffff;fill-opacity:1;stroke-linecap:round;stroke-linejoin:round"
     d="m 14,7 a 3,3 0 0 0 -3,3 3,3 0 0 0 0.01758,0.25 A 3,3 0 0 1 14,7.5 3,3 0 0 1 16.986328,10.199219 3,3 0 0 0 17,10 3,3 0 0 0 14,7 Z" />
  <path
     d="m 11.5,10.5 c -1.7610758,0.0017 -3.2466508,1.311579 -3.4687498,3.058594 -0.174481,-0.03846 -0.352582,-0.0581 -0.53125,-0.05859 -1.380712,0 -2.5000002,1.119288 -2.5000002,2.5 0,1.380712 1.1192882,2.5 2.5000002,2.5 0.103861,-7.03e-4 0.207578,-0.0079 0.310547,-0.02148 v 0.01953 h 7.6191408 v -0.0039 c 0.02341,0.0023 0.04685,0.0042 0.07031,0.0059 1.380712,0 2.5,-1.119288 2.5,-2.5 0,-1.380712 -1.119288,-2.5 -2.5,-2.5 -0.177502,0.0021 -0.35428,0.023 -0.527344,0.0625 C 14.752172,11.812463 13.263875,10.49995 11.5,10.500004 Z"
     style="opacity:0.2;fill:#000000"
     id="path4" />
  <path
     d="m 11.5,10 c -1.7610758,0.0017 -3.2466508,1.311579 -3.4687498,3.058594 -0.174481,-0.03846 -0.352582,-0.0581 -0.53125,-0.05859 -1.380712,0 -2.5,1.119288 -2.5,2.5 0,1.380712 1.119288,2.5 2.5,2.5 0.103861,-7.03e-4 0.207578,-0.0079 0.310547,-0.02148 v 0.01953 h 7.6191408 v -0.0039 c 0.02341,0.0023 0.04685,0.0042 0.07031,0.0059 1.380712,0 2.5,-1.119288 2.5,-2.5 0,-1.380712 -1.119288,-2.5 -2.5,-2.5 -0.177502,0.0021 -0.35428,0.023 -0.527344,0.0625 C 14.752172,11.312459 13.263875,9.999946 11.5,10 Z"
     style="fill:#ffffff"
     id="path3" />
  <path
     id="path1040"
     style="opacity:0.2;fill:#ffffff;stroke-width:4;stroke-linecap:square"
     d="M 6.5,2 C 4.007005,2 2,4.007005 2,6.5 V 7 C 2,4.507005 4.007005,2.5 6.5,2.5 h 11 C 19.992996,2.5 22,4.507005 22,7 V 6.5 C 22,4.007005 19.992996,2 17.5,2 Z" />
</svg>
