<?xml version="1.0" encoding="UTF-8" standalone="no"?>
<!-- Created with Inkscape (http://www.inkscape.org/) -->

<svg
   width="24"
   height="24"
   viewBox="0 0 24 24"
   version="1.1"
   id="svg5"
   inkscape:version="1.3 (0e150ed6c4, 2023-07-21)"
   sodipodi:docname="xfce4-taskbar.svg"
   xmlns:inkscape="http://www.inkscape.org/namespaces/inkscape"
   xmlns:sodipodi="http://sodipodi.sourceforge.net/DTD/sodipodi-0.dtd"
   xmlns="http://www.w3.org/2000/svg"
   xmlns:svg="http://www.w3.org/2000/svg">
  <sodipodi:namedview
     id="namedview7"
     pagecolor="#ffffff"
     bordercolor="#000000"
     borderopacity="0.25"
     inkscape:showpageshadow="2"
     inkscape:pageopacity="0.0"
     inkscape:pagecheckerboard="0"
     inkscape:deskcolor="#d1d1d1"
     inkscape:document-units="px"
     showgrid="false"
     inkscape:zoom="32.625"
     inkscape:cx="11.984674"
     inkscape:cy="12"
     inkscape:window-width="1920"
     inkscape:window-height="984"
     inkscape:window-x="0"
     inkscape:window-y="29"
     inkscape:window-maximized="1"
     inkscape:current-layer="svg5" />
  <defs
     id="defs2" />
  <rect
     style="opacity:0.2;fill:#000000;stroke-width:1.42857;stroke-linecap:square"
     id="rect234"
     width="20"
     height="20"
     x="2"
     y="2.5"
     ry="4.5" />
  <rect
     style="fill:#0d3c61;fill-opacity:1;stroke-width:1.42857;stroke-linecap:square"
     id="rect396"
     width="20"
     height="18"
     x="2"
     y="4"
     ry="4.5" />
  <path
     id="rect391"
     style="opacity:1;fill:#2196f3;fill-opacity:1;stroke-width:2;stroke-linecap:square"
     d="M 6.5,2 C 4.0070025,2 2,4.0070025 2,6.5 V 17 H 22 V 6.5 C 22,4.0070025 19.992998,2 17.5,2 Z" />
  <path
     id="path1040"
     style="opacity:0.2;fill:#ffffff;stroke-width:4;stroke-linecap:square"
     d="M 6.5,2 C 4.007005,2 2,4.007005 2,6.5 V 7 C 2,4.507005 4.007005,2.5 6.5,2.5 h 11 C 19.992996,2.5 22,4.507005 22,7 V 6.5 C 22,4.007005 19.992996,2 17.5,2 Z" />
  <rect
     style="opacity:0.2;fill:#f2f2f2"
     id="rect1"
     width="6"
     height="3"
     x="5"
     y="18"
     ry="1" />
  <rect
     style="opacity:0.2;fill:#f2f2f2"
     id="rect2"
     width="6"
     height="3"
     x="13"
     y="18"
     ry="1" />
  <rect
     style="opacity:1;fill:#f2f2f2"
     id="rect3"
     width="1"
     height="1"
     x="6"
     y="19" />
  <rect
     style="opacity:1;fill:#f2f2f2"
     id="rect4"
     width="1"
     height="1"
     x="14"
     y="19" />
</svg>
