<?xml version="1.0" encoding="UTF-8" standalone="no"?>
<!-- Created with Inkscape (http://www.inkscape.org/) -->

<svg
   width="24"
   height="24"
   viewBox="0 0 24 24"
   version="1.1"
   id="svg5"
   inkscape:version="1.3 (0e150ed6c4, 2023-07-21)"
   sodipodi:docname="xfwm4.svg"
   xmlns:inkscape="http://www.inkscape.org/namespaces/inkscape"
   xmlns:sodipodi="http://sodipodi.sourceforge.net/DTD/sodipodi-0.dtd"
   xmlns="http://www.w3.org/2000/svg"
   xmlns:svg="http://www.w3.org/2000/svg">
  <sodipodi:namedview
     id="namedview7"
     pagecolor="#ffffff"
     bordercolor="#000000"
     borderopacity="0.25"
     inkscape:showpageshadow="2"
     inkscape:pageopacity="0.0"
     inkscape:pagecheckerboard="0"
     inkscape:deskcolor="#d1d1d1"
     inkscape:document-units="px"
     showgrid="false"
     inkscape:zoom="32.625"
     inkscape:cx="12"
     inkscape:cy="12"
     inkscape:window-width="1920"
     inkscape:window-height="984"
     inkscape:window-x="0"
     inkscape:window-y="29"
     inkscape:window-maximized="1"
     inkscape:current-layer="svg5" />
  <defs
     id="defs2" />
  <rect
     style="opacity:0.2;fill:#000000;stroke-width:1.42857;stroke-linecap:square"
     id="rect234"
     width="20"
     height="20"
     x="2"
     y="2.5"
     ry="4.5" />
  <rect
     style="fill:#beddeb;fill-opacity:1;stroke-width:1.42857;stroke-linecap:square"
     id="rect396"
     width="20"
     height="20"
     x="2"
     y="2"
     ry="4.5" />
  <rect
     style="opacity:0.2;fill:#000000"
     id="rect3"
     width="10"
     height="8"
     x="9"
     y="6.5"
     ry="1" />
  <rect
     style="opacity:0.2;fill:#000000"
     id="rect2"
     width="10"
     height="8"
     x="7"
     y="8.5"
     ry="1" />
  <rect
     style="opacity:0.2;fill:#000000"
     id="rect1"
     width="10"
     height="8"
     x="5"
     y="10.5"
     ry="1" />
  <rect
     style="fill:#007dde;fill-opacity:1"
     id="rect8"
     width="10"
     height="8"
     x="9"
     y="6"
     ry="1" />
  <path
     id="path5"
     style="opacity:0.1;fill:#ffffff"
     d="M 10,6 C 9.4460006,6 9,6.4460006 9,7 v 0.5 c 0,-0.5539994 0.4460006,-1 1,-1 h 8 c 0.553999,0 1,0.4460006 1,1 V 7 C 19,6.4460006 18.553999,6 18,6 Z" />
  <rect
     style="fill:#2fbce5;fill-opacity:1"
     id="rect7"
     width="10"
     height="8"
     x="7"
     y="8"
     ry="1" />
  <path
     id="path4"
     style="opacity:0.2;fill:#ffffff"
     d="M 8,8 C 7.4460006,8 7,8.4460006 7,9 v 0.5 c 0,-0.5539994 0.4460006,-1 1,-1 h 8 c 0.553999,0 1,0.4460006 1,1 V 9 C 17,8.4460006 16.553999,8 16,8 Z" />
  <rect
     style="fill:#e4e4e4;fill-opacity:1"
     id="rect6"
     width="10"
     height="8"
     x="5"
     y="10"
     ry="1" />
  <path
     id="path3"
     style="opacity:0.2;fill:#ffffff"
     d="m 6,10 c -0.5539994,0 -1,0.446001 -1,1 v 0.5 c 0,-0.553999 0.4460006,-1 1,-1 h 8 c 0.553999,0 1,0.446001 1,1 V 11 c 0,-0.553999 -0.446001,-1 -1,-1 z" />
  <path
     d="M 8.5859379,12.379 7.8789066,13.086031 9.292969,14.500094 7.8789069,15.914156 8.585938,16.621187 10,15.207125 l 1.414062,1.414062 0.707031,-0.707031 -1.414062,-1.414062 1.414062,-1.414063 -0.707031,-0.70703 L 10,13.793063 Z"
     style="opacity:0.1;fill:#000000;fill-opacity:1"
     id="path1" />
  <path
     d="M 8.5859379,11.878906 7.8789066,12.585937 9.292969,14 7.8789069,15.414062 8.585938,16.121093 10,14.707031 11.414062,16.121093 12.121093,15.414062 10.707031,14 12.121093,12.585937 11.414062,11.878907 10,13.292969 Z"
     style="fill:#189ce5;fill-opacity:1"
     id="path2" />
  <path
     id="path1040"
     style="opacity:0.2;fill:#ffffff;stroke-width:4;stroke-linecap:square"
     d="M 6.5,2 C 4.007005,2 2,4.007005 2,6.5 V 7 C 2,4.507005 4.007005,2.5 6.5,2.5 h 11 C 19.992996,2.5 22,4.507005 22,7 V 6.5 C 22,4.007005 19.992996,2 17.5,2 Z" />
</svg>
