<?xml version="1.0" encoding="UTF-8" standalone="no"?>
<!-- Created with Inkscape (http://www.inkscape.org/) -->

<svg
   width="24"
   height="24"
   viewBox="0 0 24 24"
   version="1.1"
   id="svg5"
   inkscape:version="1.3 (0e150ed6c4, 2023-07-21)"
   sodipodi:docname="xorg.svg"
   xmlns:inkscape="http://www.inkscape.org/namespaces/inkscape"
   xmlns:sodipodi="http://sodipodi.sourceforge.net/DTD/sodipodi-0.dtd"
   xmlns="http://www.w3.org/2000/svg"
   xmlns:svg="http://www.w3.org/2000/svg">
  <sodipodi:namedview
     id="namedview7"
     pagecolor="#ffffff"
     bordercolor="#000000"
     borderopacity="0.25"
     inkscape:showpageshadow="2"
     inkscape:pageopacity="0.0"
     inkscape:pagecheckerboard="0"
     inkscape:deskcolor="#d1d1d1"
     inkscape:document-units="px"
     showgrid="false"
     inkscape:zoom="33.458333"
     inkscape:cx="12"
     inkscape:cy="12"
     inkscape:window-width="1850"
     inkscape:window-height="1011"
     inkscape:window-x="70"
     inkscape:window-y="32"
     inkscape:window-maximized="1"
     inkscape:current-layer="svg5" />
  <defs
     id="defs2" />
  <rect
     style="opacity:0.2;fill:#000000;stroke-width:1.42857;stroke-linecap:square"
     id="rect234"
     width="20"
     height="20"
     x="2"
     y="2.5"
     ry="4.5" />
  <rect
     style="fill:#bcbcbc;fill-opacity:1;stroke-width:1.42857;stroke-linecap:square"
     id="rect396"
     width="20"
     height="20"
     x="2"
     y="2"
     ry="4.5" />
  <path
     d="m 5.5,5.5 5,6.841797 L 5.9999998,18.5 h 1 L 12.75,10.631836 8.9999998,5.5 Z M 17,5.5 11.25,13.368164 15,18.5 h 3.5 L 13.5,11.658203 18,5.5 Z"
     style="opacity:0.2;fill:#000000;stroke-width:1.01925"
     id="path1" />
  <path
     d="m 5.5,5 5,6.841797 L 6,18 H 7 L 12.75,10.131836 9,5 Z M 17,5 11.25,12.868164 15,18 h 3.5 L 13.5,11.158203 18,5 Z"
     style="fill:#4d4d4d;fill-opacity:1;stroke-width:1.01925"
     id="path1543"
     sodipodi:nodetypes="cccccccccccccc" />
  <path
     d="m 12.004883,7.5 c -0.409076,0 -0.845895,0.03116 -1.239258,0.06836 0.700822,0.903003 1.282752,1.668151 1.952149,2.537109 C 12.342219,9.306699 11.569332,8.54037 11.835938,8.146485 12.100448,7.756789 12.587812,7.8222659 12.625,7.8222659 c 0.780438,0 1.53198,0.08725 2.234375,0.248047 l 0.164063,-0.223633 C 14.086388,7.6083569 13.069212,7.4999999 12.004883,7.5 Z m 4.227538,0.729492 -0.151367,0.212891 c 2.164275,0.837531 3.627929,2.437335 3.627929,4.269531 0,2.69906 -3.173411,4.888672 -7.083983,4.888672 -3.910571,0 -7.085938,-2.189612 -7.085938,-4.888672 0,-1.379265 0.829299,-2.626238 2.16211,-3.515625 L 7.18164,8.4853521 C 5.031206,9.4833 3.625,11.127093 3.625,12.988282 3.625,16.030942 7.379798,18.5 12.00586,18.5 c 4.625535,0 8.379882,-2.467627 8.379882,-5.509765 0,-2.029139 -1.669013,-3.803789 -4.153321,-4.760743 z"
     style="opacity:0.2;fill:#000000;fill-opacity:1;stroke-width:0.402911"
     id="path1-6" />
  <path
     id="path3649"
     style="fill:#f88c18;fill-opacity:1;stroke-width:0.402911"
     d="m 12.004883,7 c -0.409076,0 -0.845895,0.03116 -1.239258,0.06836 0.700822,0.903003 1.282752,1.668151 1.952149,2.537109 C 12.342219,8.806699 11.569332,8.04037 11.835938,7.646485 12.100448,7.256789 12.587812,7.3222659 12.625,7.3222659 c 0.780438,0 1.53198,0.08725 2.234375,0.248047 l 0.164063,-0.223633 C 14.086388,7.1083569 13.069212,6.9999999 12.004883,7 Z m 4.227538,0.729492 -0.151367,0.212891 c 2.164275,0.8375311 3.627929,2.437335 3.627929,4.269531 0,2.69906 -3.173411,4.888672 -7.083983,4.888672 -3.910571,0 -7.085938,-2.189612 -7.085938,-4.888672 0,-1.379265 0.829299,-2.626238 2.16211,-3.5156249 L 7.18164,7.9853521 C 5.031206,8.9833001 3.625,10.627093 3.625,12.488282 3.625,15.530942 7.379798,18 12.00586,18 c 4.625535,0 8.379882,-2.467627 8.379882,-5.509765 0,-2.029139 -1.669013,-3.8037889 -4.153321,-4.760743 z" />
  <path
     id="path1040"
     style="opacity:0.2;fill:#ffffff;stroke-width:4;stroke-linecap:square"
     d="M 6.5,2 C 4.0070049,2 2,4.0070048 2,6.5 V 7 C 2,4.5070048 4.0070049,2.5 6.5,2.5 h 11 C 19.992996,2.5 22,4.5070048 22,7 V 6.5 C 22,4.0070048 19.992996,2 17.5,2 Z" />
</svg>
