<?xml version="1.0" encoding="UTF-8" standalone="no"?>
<!-- Created with Inkscape (http://www.inkscape.org/) -->

<svg
   width="16"
   height="16"
   viewBox="0 0 16 16"
   version="1.1"
   id="svg5"
   inkscape:version="1.3 (0e150ed6c4, 2023-07-21)"
   sodipodi:docname="x-office-address-book-symbolic.svg"
   xmlns:inkscape="http://www.inkscape.org/namespaces/inkscape"
   xmlns:sodipodi="http://sodipodi.sourceforge.net/DTD/sodipodi-0.dtd"
   xmlns="http://www.w3.org/2000/svg"
   xmlns:svg="http://www.w3.org/2000/svg">
  <sodipodi:namedview
     id="namedview7"
     pagecolor="#ffffff"
     bordercolor="#000000"
     borderopacity="0.25"
     inkscape:showpageshadow="2"
     inkscape:pageopacity="0.0"
     inkscape:pagecheckerboard="0"
     inkscape:deskcolor="#d1d1d1"
     inkscape:document-units="px"
     showgrid="false"
     inkscape:zoom="48.9375"
     inkscape:cx="8"
     inkscape:cy="8"
     inkscape:window-width="1920"
     inkscape:window-height="984"
     inkscape:window-x="0"
     inkscape:window-y="29"
     inkscape:window-maximized="1"
     inkscape:current-layer="svg5" />
  <defs
     id="defs2" />
  <path
     id="path5775"
     style="opacity:1;fill:#4d4d4d;fill-opacity:1"
     d="M 3 1 C 1.8920011 1 1 1.8920011 1 3 L 1 13 C 1 14.107999 1.8920011 15 3 15 L 13 15 C 14.107999 15 15 14.107999 15 13 L 15 3 C 15 1.8920011 14.107999 1 13 1 L 3 1 z M 3 3 L 13 3 L 13 13 L 3 13 L 3 3 z M 8 4 C 5.7900022 4 4 5.7900022 4 8 C 4 10.209998 5.7900022 12 8 12 L 10.5 12 C 10.5 12 10.97 11.999999 11 11.5 C 11 11.000001 10.5 11 10.5 11 L 8 11 C 6.3400017 11 5 9.6599983 5 8 C 5 6.3400017 6.3400017 5 8 5 C 9.6599983 5 11 6.3400017 11 8 L 11 8.5 C 11 8.7799997 10.78 9 10.5 9 C 10.22 9 10 8.7799997 10 8.5 L 10 8 C 10 6.9000011 9.0999989 6 8 6 C 6.9000011 6 6 6.9000011 6 8 C 6 9.0999989 6.9000011 10 8 10 C 8.5199995 10 8.9996097 9.7907028 9.3496094 9.4707031 C 9.6396091 9.8007028 10.06 10 10.5 10 C 11.329999 10 12 9.3299992 12 8.5 L 12 8 C 12 5.7900022 10.209998 4 8 4 z M 8 7 C 8.5499995 7 9 7.4500006 9 8 C 9 8.5499995 8.5499995 9 8 9 C 7.4500006 9 7 8.5499995 7 8 C 7 7.4500006 7.4500006 7 8 7 z " />
</svg>
