<?xml version="1.0" encoding="UTF-8" standalone="no"?>
<!-- Created with Inkscape (http://www.inkscape.org/) -->

<svg
   width="22"
   height="22"
   viewBox="0 0 22 22"
   version="1.1"
   id="svg5"
   inkscape:version="1.4.3 (0d15f75042, 2025-12-25)"
   sodipodi:docname="edit-clear-rtl.svg"
   xmlns:inkscape="http://www.inkscape.org/namespaces/inkscape"
   xmlns:sodipodi="http://sodipodi.sourceforge.net/DTD/sodipodi-0.dtd"
   xmlns="http://www.w3.org/2000/svg"
   xmlns:svg="http://www.w3.org/2000/svg">
  <sodipodi:namedview
     id="namedview7"
     pagecolor="#ffffff"
     bordercolor="#000000"
     borderopacity="0.25"
     inkscape:showpageshadow="2"
     inkscape:pageopacity="0.0"
     inkscape:pagecheckerboard="0"
     inkscape:deskcolor="#d1d1d1"
     inkscape:document-units="px"
     showgrid="false"
     inkscape:zoom="36.681818"
     inkscape:cx="10.986369"
     inkscape:cy="11"
     inkscape:window-width="1920"
     inkscape:window-height="1010"
     inkscape:window-x="0"
     inkscape:window-y="0"
     inkscape:window-maximized="1"
     inkscape:current-layer="svg5" />
  <defs
     id="defs2">
    <style
       id="current-color-scheme"
       type="text/css">
        .ColorScheme-Text { color:#4d4d4d; } .ColorScheme-Highlight { color:#4285f4; } .ColorScheme-NeutralText { color:#ff9800; } .ColorScheme-PositiveText { color:#4caf50; } .ColorScheme-NegativeText { color:#f44336; }
     </style>
  </defs>
  <path
     d="M 12,8 H 11 C 10.72,8 10.47,8.11 10.29,8.29 L 9,9.59 7.71,8.29 C 7.53,8.11 7.28,8 7,8 H 6 V 9 C 6,9.28 6.11,9.53 6.29,9.71 L 7.59,11 6.29,12.29 C 6.11,12.47 6,12.72 6,13 v 1 h 1 c 0.28,0 0.53,-0.11 0.71,-0.289999 L 9,12.41 l 1.29,1.300001 c 0.18,0.18 0.43,0.29 0.71,0.29 h 1 v -1 C 12,12.72 11.89,12.47 11.71,12.29 L 10.41,11 11.71,9.71 C 11.89,9.53 12,9.28 12,9 Z m 2,-3 5,6 -5,6 H 3 V 5 Z M 13.0625,7 H 5 v 8.000001 h 8.0625 L 16.3965,11 Z"
     style="opacity:1;fill:currentColor;fill-opacity:1"
     class="ColorScheme-Text"
     id="path347" />
</svg>
