<?xml version="1.0" encoding="UTF-8" standalone="no"?>
<!-- Created with Inkscape (http://www.inkscape.org/) -->

<svg
   width="22"
   height="22"
   viewBox="0 0 22 22"
   version="1.1"
   id="svg5"
   inkscape:version="1.4.3 (0d15f75042, 2025-12-25)"
   sodipodi:docname="edit-clear.svg"
   xmlns:inkscape="http://www.inkscape.org/namespaces/inkscape"
   xmlns:sodipodi="http://sodipodi.sourceforge.net/DTD/sodipodi-0.dtd"
   xmlns="http://www.w3.org/2000/svg"
   xmlns:svg="http://www.w3.org/2000/svg">
  <sodipodi:namedview
     id="namedview7"
     pagecolor="#ffffff"
     bordercolor="#000000"
     borderopacity="0.25"
     inkscape:showpageshadow="2"
     inkscape:pageopacity="0.0"
     inkscape:pagecheckerboard="0"
     inkscape:deskcolor="#d1d1d1"
     inkscape:document-units="px"
     showgrid="false"
     inkscape:zoom="36.681818"
     inkscape:cx="10.986369"
     inkscape:cy="11"
     inkscape:window-width="1920"
     inkscape:window-height="1010"
     inkscape:window-x="0"
     inkscape:window-y="0"
     inkscape:window-maximized="1"
     inkscape:current-layer="svg5" />
  <defs
     id="defs2">
    <style
       id="current-color-scheme"
       type="text/css">
        .ColorScheme-Text { color:#4d4d4d; } .ColorScheme-Highlight { color:#4285f4; } .ColorScheme-NeutralText { color:#ff9800; } .ColorScheme-PositiveText { color:#4caf50; } .ColorScheme-NegativeText { color:#f44336; }
     </style>
  </defs>
  <path
     d="m 10,8 h 1 c 0.28,0 0.53,0.11 0.71,0.29 L 13,9.59 14.29,8.29 C 14.47,8.11 14.72,8 15,8 h 1 v 1 c 0,0.28 -0.11,0.53 -0.29,0.71 l -1.3,1.29 1.3,1.29 C 15.89,12.47 16,12.72 16,13 v 1 h -1 c -0.28,0 -0.53,-0.11 -0.71,-0.289999 L 13,12.41 11.71,13.710001 c -0.18,0.18 -0.43,0.29 -0.71,0.29 h -1 v -1 C 10,12.72 10.11,12.47 10.29,12.29 L 11.59,11 10.29,9.71 C 10.11,9.53 10,9.28 10,9 Z M 8,5 3,11 8,17 H 19 V 5 Z M 8.9375,7 H 17 v 8.000001 H 8.9375 L 5.6035,11 Z"
     style="opacity:1;fill:currentColor;fill-opacity:1"
     class="ColorScheme-Text"
     id="path347" />
</svg>
