<?xml version="1.0" encoding="UTF-8" standalone="no"?>
<!-- Created with Inkscape (http://www.inkscape.org/) -->

<svg
   width="48"
   height="48"
   viewBox="0 0 48 48"
   version="1.1"
   id="svg5"
   inkscape:version="1.2.2 (1:1.2.2+202305151914+b0a8486541)"
   sodipodi:docname="folder-yellow-onedrive.svg"
   xmlns:inkscape="http://www.inkscape.org/namespaces/inkscape"
   xmlns:sodipodi="http://sodipodi.sourceforge.net/DTD/sodipodi-0.dtd"
   xmlns="http://www.w3.org/2000/svg"
   xmlns:svg="http://www.w3.org/2000/svg">
  <sodipodi:namedview
     id="namedview7"
     pagecolor="#ffffff"
     bordercolor="#000000"
     borderopacity="0.25"
     inkscape:showpageshadow="2"
     inkscape:pageopacity="0.0"
     inkscape:pagecheckerboard="0"
     inkscape:deskcolor="#d1d1d1"
     inkscape:document-units="px"
     showgrid="false"
     inkscape:zoom="16.791667"
     inkscape:cx="24"
     inkscape:cy="24"
     inkscape:window-width="1920"
     inkscape:window-height="1008"
     inkscape:window-x="0"
     inkscape:window-y="0"
     inkscape:window-maximized="1"
     inkscape:current-layer="svg5" />
  <defs
     id="defs2" />
  <path
     id="path2024"
     style="opacity:0.2;fill:#000000;stroke-width:8;stroke-linecap:square"
     d="M 7,8 C 5.3431458,8 4,9.3431458 4,11 v 28 c 0,1.656854 1.3431458,3 3,3 h 34 c 1.656854,0 3,-1.343146 3,-3 V 16 c 0,-1.656854 -1.343146,-3 -3,-3 H 24 L 22,10 C 20.770788,8.156182 20.215994,8 18,8 Z" />
  <path
     id="path2052"
     style="fill:#c28c04;fill-opacity:1;stroke-width:8;stroke-linecap:square"
     d="M 7,7 C 5.3431458,7 4,8.3431458 4,10 v 28 c 0,1.656854 1.3431458,3 3,3 h 34 c 1.656854,0 3,-1.343146 3,-3 V 15 c 0,-1.656854 -1.343146,-3 -3,-3 H 24 L 22,9 C 20.770788,7.1561818 20.215994,7 18,7 Z" />
  <path
     id="path3024"
     style="opacity:0.1;fill:#ffffff;fill-opacity:1;stroke-width:8;stroke-linecap:square"
     d="M 7,7 C 5.3431477,7 4,8.3431475 4,10 v 1 C 4,9.3431475 5.3431477,8 7,8 h 11 c 2.215992,0 2.770789,0.1561834 4,2 l 2,3 h 17 c 1.656852,0 3,1.343148 3,3 v -1 c 0,-1.656852 -1.343148,-3 -3,-3 H 24 L 22,9 C 20.770789,7.1561834 20.215992,7 18,7 Z" />
  <rect
     style="opacity:0.2;fill:#000000;fill-opacity:1;stroke-width:8;stroke-linecap:square"
     id="rect2667"
     width="40"
     height="24"
     x="4"
     y="16"
     ry="3" />
  <rect
     style="fill:#f2f2f2;fill-opacity:1;stroke-width:3;stroke-linecap:square"
     id="rect3435"
     width="36"
     height="18"
     x="6"
     y="14"
     ry="1.5" />
  <rect
     style="opacity:1;fill:#fbc02d;fill-opacity:1;stroke-width:8;stroke-linecap:square"
     id="rect2072"
     width="40"
     height="24"
     x="4"
     y="17"
     ry="3" />
  <path
     id="path290"
     style="opacity:0.5;fill:#000000;stroke-width:4;stroke-linecap:square"
     d="m 23.999941,22.000002 a 6,6 0 0 0 -5.660156,4.046876 c -2.449288,0.323174 -4.339844,2.415572 -4.339844,4.953124 0,1.796432 0.948442,3.368918 2.371094,4.25 0.1974,0.12234 0.402384,0.23104 0.613282,0.324218 0.09792,0.04326 0.19656,0.08426 0.296874,0.1211 0.0078,0.0028 0.0156,0.005 0.02344,0.0078 0.10822,0.03914 0.217524,0.07392 0.328126,0.10546 0.19838,0.0566 0.401224,0.1011 0.605468,0.13282 0.0066,9.98e-4 0.013,0.003 0.0196,0.004 0.05944,0.0088 0.11958,0.0128 0.17968,0.0196 0.03256,0.0036 0.06492,0.0088 0.09766,0.0118 0.06226,0.0058 0.1246,0.0122 0.1875,0.0156 0.0064,3.66e-4 0.013,-3.42e-4 0.0196,0 0.08518,0.004 0.1715,0.0076 0.257794,0.0076 h 11 c 0.0975,-1.2e-4 0.19282,-0.0046 0.289062,-0.0118 0.09624,-0.0072 0.1944,-0.0174 0.289062,-0.03126 0.0104,-0.0015 0.02086,-0.0022 0.03126,-0.004 0.08472,-0.013 0.16712,-0.0287 0.25,-0.04688 0.0028,-6.2e-4 0.005,-0.0032 0.0078,-0.004 0.08992,-0.02008 0.17776,-0.04032 0.265624,-0.0664 0.08114,-0.0241 0.16302,-0.04904 0.242188,-0.07812 0.0092,-0.0034 0.0182,-0.0082 0.02734,-0.0118 0.08812,-0.03312 0.17248,-0.07024 0.257812,-0.10938 0.0827,-0.03792 0.1663,-0.0777 0.246094,-0.1211 0.0026,-0.0014 0.0052,-0.0026 0.0078,-0.004 0.08796,-0.04808 0.17376,-0.10174 0.257814,-0.15626 0.05734,-0.03718 0.11258,-0.0771 0.16796,-0.11718 0.0152,-0.011 0.03174,-0.02 0.04688,-0.03126 0.02156,-0.016 0.04126,-0.03428 0.0625,-0.05078 0.04618,-0.0359 0.0921,-0.07144 0.13672,-0.10938 0.0064,-0.0054 0.0132,-0.0102 0.0196,-0.0156 0.07114,-0.06124 0.1402,-0.12512 0.207032,-0.1914 0.04152,-0.0412 0.08132,-0.08582 0.1211,-0.1289 0.02434,-0.02634 0.05058,-0.05114 0.07422,-0.07812 0.011,-0.0126 0.02038,-0.02634 0.03126,-0.03906 0.0307,-0.03598 0.0603,-0.07238 0.08984,-0.10938 0.0022,-0.0028 0.0056,-0.005 0.0078,-0.0078 0.03478,-0.04398 0.06862,-0.08736 0.10156,-0.13282 0.0054,-0.0076 0.0102,-0.0158 0.0156,-0.02344 0.03318,-0.04634 0.06648,-0.0926 0.09766,-0.14062 0.1042,-0.1605 0.19584,-0.330648 0.277344,-0.507812 0.234964,-0.50884 0.371068,-1.073766 0.371068,-1.671448 0,-2.209134 -1.790866,-4 -4,-4 a 6,6 0 0 0 -6,-6 z" />
</svg>
