<?xml version="1.0" encoding="UTF-8" standalone="no"?>
<!-- Created with Inkscape (http://www.inkscape.org/) -->

<svg
   width="256"
   height="256"
   viewBox="0 0 256 256"
   version="1.1"
   id="svg5"
   inkscape:version="1.2.2 (1:1.2.2+202305151914+b0a8486541)"
   sodipodi:docname="dialog-warning.svg"
   xmlns:inkscape="http://www.inkscape.org/namespaces/inkscape"
   xmlns:sodipodi="http://sodipodi.sourceforge.net/DTD/sodipodi-0.dtd"
   xmlns="http://www.w3.org/2000/svg"
   xmlns:svg="http://www.w3.org/2000/svg">
  <sodipodi:namedview
     id="namedview7"
     pagecolor="#ffffff"
     bordercolor="#666666"
     borderopacity="1.0"
     inkscape:showpageshadow="2"
     inkscape:pageopacity="0.0"
     inkscape:pagecheckerboard="0"
     inkscape:deskcolor="#d1d1d1"
     inkscape:document-units="px"
     showgrid="false"
     inkscape:zoom="3.1484375"
     inkscape:cx="128"
     inkscape:cy="128"
     inkscape:window-width="1920"
     inkscape:window-height="1008"
     inkscape:window-x="0"
     inkscape:window-y="0"
     inkscape:window-maximized="1"
     inkscape:current-layer="svg5" />
  <defs
     id="defs2" />
  <path
     d="m 128,26 c -5.95936,-0.0014 -11.42552,3.31032 -14.18432,8.59376 l -95.978155,175.9992 c -5.56024,10.65432 2.168479,23.40792 14.184239,23.40624 H 223.97816 c 12.01576,0.002 19.74456,-12.75192 14.18432,-23.40624 L 142.18424,34.59376 C 139.42544,29.31032 133.95928,25.99856 128,26 Z"
     style="opacity:0.2;fill:#000000;stroke-width:31.9964;stroke-linecap:round;stroke-linejoin:round;-inkscape-stroke:none"
     id="path4081" />
  <path
     d="m 128,24 c -5.95936,-0.0014 -11.42552,3.31032 -14.18432,8.59376 L 17.837525,208.59288 c -5.56024,10.6544 2.168479,23.408 14.184239,23.40632 H 223.97816 c 12.01576,0.002 19.74448,-12.75192 14.18432,-23.40632 L 142.18424,32.59376 C 139.42544,27.31032 133.95928,23.99856 128,24 Z"
     style="fill:#ffa800;stroke:none;stroke-width:31.9964;stroke-linecap:round;stroke-linejoin:round;-inkscape-stroke:none"
     id="path4053" />
  <path
     d="m 115.99996,74 v 92 h 24 V 74 Z m 12,112 c -6.62744,0 -12,5.3726 -12,12 0,6.62732 5.37256,12 12,12 6.6274,0 12,-5.37268 12,-12 0,-6.6274 -5.3726,-12 -12,-12 z"
     style="opacity:0.1;fill:#000000;fill-opacity:1;stroke:none;stroke-width:36;stroke-linecap:round;stroke-linejoin:round;stroke-dasharray:none;stroke-opacity:1"
     id="path4196" />
  <path
     d="m 115.99996,72 v 92 h 24 V 72 Z m 12,112 c -6.62744,0 -12,5.3726 -12,12 0,6.62732 5.37256,12 12,12 6.6274,0 12,-5.37268 12,-12 0,-6.6274 -5.3726,-12 -12,-12 z"
     style="fill:#634200;fill-opacity:1;stroke:none;stroke-width:36;stroke-linecap:round;stroke-linejoin:round;stroke-dasharray:none;stroke-opacity:1"
     id="path4168" />
  <path
     id="path4109"
     style="opacity:0.2;fill:#ffffff;stroke:none;stroke-width:31.9964;stroke-linecap:round;stroke-linejoin:round;-inkscape-stroke:none"
     d="m 128,24 c -5.95928,-0.0014 -11.4287,3.31032 -14.1875,8.59375 L 17.84375,208.59376 c -1.329066,2.54658 -1.82421,5.20096 -1.742188,7.78124 0.200535,-1.93814 0.748577,-3.89228 1.734376,-5.78124 L 113.8125,34.59375 C 116.5713,29.310316 122.04064,25.99856 128,26 c 5.95928,-0.0014 11.4287,3.310316 14.1875,8.59375 l 95.97656,176.00001 c 0.98578,1.88896 1.53386,3.8431 1.73438,5.78124 0.082,-2.58028 -0.41306,-5.23466 -1.7422,-7.78124 L 142.1875,32.59375 C 139.42862,27.31032 133.95928,23.99856 128,24 Z" />
</svg>
