<?xml version="1.0" encoding="UTF-8" standalone="no"?>
<!-- Created with Inkscape (http://www.inkscape.org/) -->

<svg
   width="22"
   height="22"
   viewBox="0 0 22 22"
   version="1.1"
   id="svg5"
   inkscape:version="1.2.2 (1:1.2.2+202305151914+b0a8486541)"
   sodipodi:docname="bluetooth-paired.svg"
   xmlns:inkscape="http://www.inkscape.org/namespaces/inkscape"
   xmlns:sodipodi="http://sodipodi.sourceforge.net/DTD/sodipodi-0.dtd"
   xmlns="http://www.w3.org/2000/svg"
   xmlns:svg="http://www.w3.org/2000/svg">
  <sodipodi:namedview
     id="namedview7"
     pagecolor="#ffffff"
     bordercolor="#000000"
     borderopacity="0.25"
     inkscape:showpageshadow="2"
     inkscape:pageopacity="0.0"
     inkscape:pagecheckerboard="0"
     inkscape:deskcolor="#d1d1d1"
     inkscape:document-units="px"
     showgrid="false"
     showguides="true"
     inkscape:zoom="37.727273"
     inkscape:cx="11"
     inkscape:cy="11"
     inkscape:window-width="1920"
     inkscape:window-height="1008"
     inkscape:window-x="0"
     inkscape:window-y="0"
     inkscape:window-maximized="1"
     inkscape:current-layer="svg5" />
  <defs
     id="defs2">
    <style
       id="current-color-scheme"
       type="text/css">
   .ColorScheme-Text { color:#dfdfdf; } .ColorScheme-Highlight { color:#4285f4; } .ColorScheme-NeutralText { color:#ff9800; } .ColorScheme-PositiveText { color:#4caf50; } .ColorScheme-NegativeText { color:#f44336; }
     </style>
  </defs>
  <path
     d="M 9.5665636,3.0993885 C 9.2205692,3.2659001 9.0004572,3.6158024 9.0001574,3.999779 V 8.0661853 L 6.6134387,6.2107166 C 6.1775514,5.8723754 5.5499878,5.9510394 5.2110949,6.3864979 4.8727538,6.8223852 4.9514178,7.4499487 5.3868762,7.7888416 l 3.6132812,2.8105474 v 0.800781 l -3.6132812,2.810547 c -0.435458,0.338893 -0.5141219,0.966456 -0.1757813,1.402343 0.3388927,0.435459 0.9664563,0.514123 1.4023438,0.175782 l 2.3867187,-1.855469 v 4.066406 c -3.499e-4,0.838869 0.970049,1.305407 1.6249996,0.78125 l 5.000001,-4 c 0.504555,-0.404192 0.498811,-1.173696 -0.01172,-1.570312 l -2.841796,-2.210938 2.841796,-2.2109374 c 0.510532,-0.3966165 0.516275,-1.1661205 0.01172,-1.5703125 l -5.000001,-4 C 10.324563,2.978553 9.9129795,2.9322309 9.5665636,3.0993885 Z M 11.000157,6.0818104 13.384923,7.9900135 11.142736,9.7341541 11.000157,9.622826 Z m 0.142579,6.1835936 2.242187,1.744141 -2.384766,1.908203 v -3.541016 z"
     style="fill:currentColor;fill-opacity:1"
     id="path1243"
     class="ColorScheme-Text" />
  <path
     id="path231"
     style="fill:currentColor;stroke-linecap:round;stroke-linejoin:round"
     d="m 5,10 c -0.5522847,0 -1,0.447715 -1,1 0,0.552285 0.4477153,1 1,1 0.5522847,0 1,-0.447715 1,-1 0,-0.552285 -0.4477153,-1 -1,-1 z m 12.000001,0 c -0.552285,0 -1,0.447715 -1,1 0,0.552285 0.447715,1 1,1 0.552285,0 1,-0.447715 1,-1 0,-0.552285 -0.447715,-1 -1,-1 z"
     class="ColorScheme-Text" />
</svg>
