<?xml version="1.0" encoding="UTF-8" standalone="no"?>
<!-- Created with Inkscape (http://www.inkscape.org/) -->

<svg
   width="22"
   height="22"
   viewBox="0 0 22 22"
   version="1.1"
   id="svg5"
   inkscape:version="1.3.2 (091e20ef0f, 2023-11-25, custom)"
   sodipodi:docname="notification-active.svg"
   xmlns:inkscape="http://www.inkscape.org/namespaces/inkscape"
   xmlns:sodipodi="http://sodipodi.sourceforge.net/DTD/sodipodi-0.dtd"
   xmlns="http://www.w3.org/2000/svg"
   xmlns:svg="http://www.w3.org/2000/svg">
  <sodipodi:namedview
     id="namedview7"
     pagecolor="#ffffff"
     bordercolor="#000000"
     borderopacity="0.25"
     inkscape:showpageshadow="2"
     inkscape:pageopacity="0.0"
     inkscape:pagecheckerboard="0"
     inkscape:deskcolor="#d1d1d1"
     inkscape:document-units="px"
     showgrid="false"
     showguides="true"
     inkscape:zoom="36.545455"
     inkscape:cx="10.986318"
     inkscape:cy="11"
     inkscape:window-width="1920"
     inkscape:window-height="1008"
     inkscape:window-x="0"
     inkscape:window-y="0"
     inkscape:window-maximized="1"
     inkscape:current-layer="svg5" />
  <defs
     id="defs2">
    <style
       id="current-color-scheme"
       type="text/css">
        .ColorScheme-Text { color:#dfdfdf; } .ColorScheme-Highlight { color:#4285f4; } .ColorScheme-NeutralText { color:#ff9800; } .ColorScheme-PositiveText { color:#4caf50; } .ColorScheme-NegativeText { color:#f44336; }
     </style>
  </defs>
  <path
     id="path345"
     style="fill:currentColor;fill-opacity:1"
     class="ColorScheme-Text"
     d="M 11,3 C 10.450001,3 10,3.4500005 10,4 10,4.03 9.999761,4.069609 10.0098,4.099609 7.7197679,4.5596089 6,6.5700024 6,9 v 4.5 l -2,2 V 16 h 14 v -0.5 l -2,-2 V 9 C 16,8.94083 15.9942,8.88288 15.9922,8.824219 A 3,3 0 0 1 15,9 3,3 0 0 1 13.990234,8.818359 C 13.993852,8.878959 14,8.93846 14,9 v 5 H 8 V 9 c 0,-1.6619983 1.338002,-3 3,-3 0.356548,0 0.696958,0.064588 1.013672,0.1777344 A 3,3 0 0 1 12,6 3,3 0 0 1 12.568359,4.2558594 C 12.379743,4.1936903 12.188107,4.1393567 11.990234,4.0996094 12.000234,4.0696094 12,4.03 12,4 12,3.4500005 11.55,3 11,3 Z M 9.269531,17 c 0.36,0.619999 1.02047,1 1.730469,1 0.709999,0 1.370469,-0.380001 1.730469,-1 z" />
  <circle
     style="opacity:1;fill:#4285f4;fill-opacity:1;stroke-linecap:square"
     id="path283"
     cx="15"
     cy="6"
     r="2"
     class="ColorScheme-Highlight" />
</svg>
