<?xml version="1.0" encoding="UTF-8" standalone="no"?>
<!-- Created with Inkscape (http://www.inkscape.org/) -->

<svg
   width="22"
   height="22"
   viewBox="0 0 22 22"
   version="1.1"
   id="svg5"
   inkscape:version="1.2.2 (1:1.2.2+202305151914+b0a8486541)"
   sodipodi:docname="thunderbird-attention-panel.svg"
   xmlns:inkscape="http://www.inkscape.org/namespaces/inkscape"
   xmlns:sodipodi="http://sodipodi.sourceforge.net/DTD/sodipodi-0.dtd"
   xmlns="http://www.w3.org/2000/svg"
   xmlns:svg="http://www.w3.org/2000/svg">
  <sodipodi:namedview
     id="namedview7"
     pagecolor="#ffffff"
     bordercolor="#000000"
     borderopacity="0.25"
     inkscape:showpageshadow="2"
     inkscape:pageopacity="0.0"
     inkscape:pagecheckerboard="0"
     inkscape:deskcolor="#d1d1d1"
     inkscape:document-units="px"
     showgrid="false"
     showguides="true"
     inkscape:zoom="36.636364"
     inkscape:cx="10.986352"
     inkscape:cy="11"
     inkscape:window-width="1920"
     inkscape:window-height="1008"
     inkscape:window-x="0"
     inkscape:window-y="0"
     inkscape:window-maximized="1"
     inkscape:current-layer="svg5" />
  <defs
     id="defs2">
    <style
       id="current-color-scheme"
       type="text/css">
   .ColorScheme-Text { color:#dfdfdf; } .ColorScheme-Highlight { color:#4285f4; } .ColorScheme-NeutralText { color:#ff9800; } .ColorScheme-PositiveText { color:#4caf50; } .ColorScheme-NegativeText { color:#f44336; }
     </style>
  </defs>
  <path
     id="path377"
     style="fill:currentColor"
     class="ColorScheme-Text"
     d="M 13.800781,4 C 11.930783,4 10.950547,4.3200014 10.560547,5.75 9.510548,6.2699995 9,6.8890632 9,7.5390625 9,7.5390625 9.890001,7 11,7 c 2.169998,0 4,1.8300022 4,4 0,2.159998 -1.860002,4 -4,4 C 8.8300022,15 7,13.159998 7,11 7,9.400002 8,8.3496094 8,8.3496094 8,6.8496109 7.8499991,5.7499997 7,5.5 6.8600001,5.5 6.8496094,5.609375 6.8496094,5.609375 6.7096095,6.7793738 6.1205466,7.1400786 5.8105469,7.5800781 5.3405473,8.2400775 5.0507812,9.11922 5.0507812,9.949219 4.8807814,9.579219 4.7503905,9.130468 4.6503906,8.7304688 4.6403906,8.6804688 4.5799999,8.5507813 4.5,8.5507812 c -0.1099999,0 -0.2009375,0.2588282 -0.2109375,0.2988282 C 4.0990627,9.469609 4,10.370001 4,11 c 0,3.999996 3.000004,7 7,7 1.150966,0 2.214303,-0.239598 3.146484,-0.673828 A 2.5,2.5 0 0 1 14,16.5 2.5,2.5 0 0 1 16.5,14 2.5,2.5 0 0 1 17.330078,14.142578 C 17.762343,13.213336 18,12.15286 18,11 18,9.890001 17.770781,8.5899989 17.300781,7.5 c -0.17,-0.3499996 -0.461172,-0.7607815 -0.701172,-1.0507812 0.3,-0.08 0.711016,-0.018984 1.041016,0.041016 C 17.210625,5.9902349 16.65039,5.8299999 15.900391,5.75 16.09039,5.3300004 16.500001,5.02 17,5 16.170001,4.2900007 15.15078,4 13.800781,4 Z M 12.5,5 C 12.776142,5 13,5.2238579 13,5.5 13,5.7761421 12.776142,6 12.5,6 12.223858,6 12,5.7761421 12,5.5 12,5.2238579 12.223858,5 12.5,5 Z" />
  <path
     d="M 8.54,9.28 C 9.14,8.43 10.11,8 11,8 c 0.89,0 1.88,0.43 2.46,1.28 L 11,11 Z M 13.83,10 c 0.11,0.32 0.17,0.65 0.17,1 0,1.66 -1.34,3 -3,3 C 9.34,14 8,12.66 8,11 8,10.65 8.06,10.32 8.17,10 L 11,12 Z"
     style="opacity:0.35;fill:currentColor"
     id="path349"
     class="ColorScheme-Text" />
  <circle
     style="opacity:1;fill:currentColor;stroke-width:4;stroke-linecap:square"
     id="path756"
     cx="16.5"
     cy="16.5"
     r="1.5"
     class="ColorScheme-Highlight" />
</svg>
