<?xml version="1.0" encoding="UTF-8" standalone="no"?>
<!-- Created with Inkscape (http://www.inkscape.org/) -->

<svg
   width="64"
   height="64"
   viewBox="0 0 64 64"
   version="1.1"
   id="svg5"
   inkscape:version="1.3.2 (091e20ef0f, 2023-11-25, custom)"
   sodipodi:docname="1cedt.svg"
   xmlns:inkscape="http://www.inkscape.org/namespaces/inkscape"
   xmlns:sodipodi="http://sodipodi.sourceforge.net/DTD/sodipodi-0.dtd"
   xmlns="http://www.w3.org/2000/svg"
   xmlns:svg="http://www.w3.org/2000/svg">
  <sodipodi:namedview
     id="namedview7"
     pagecolor="#ffffff"
     bordercolor="#000000"
     borderopacity="0.25"
     inkscape:showpageshadow="2"
     inkscape:pageopacity="0.0"
     inkscape:pagecheckerboard="0"
     inkscape:deskcolor="#d1d1d1"
     inkscape:document-units="px"
     showgrid="false"
     inkscape:zoom="12.421875"
     inkscape:cx="31.959748"
     inkscape:cy="32"
     inkscape:window-width="1920"
     inkscape:window-height="1008"
     inkscape:window-x="0"
     inkscape:window-y="0"
     inkscape:window-maximized="1"
     inkscape:current-layer="svg5" />
  <defs
     id="defs2" />
  <rect
     style="opacity:0.2;fill:#000000;stroke-width:4;stroke-linecap:square"
     id="rect234"
     width="56"
     height="56"
     x="4"
     y="5"
     ry="12" />
  <rect
     style="fill:#e4e4e4;fill-opacity:1;stroke-width:4;stroke-linecap:square"
     id="rect396"
     width="56"
     height="56"
     x="4"
     y="4"
     ry="12" />
  <path
     style="opacity:0.1;fill:#000000;stroke-width:2"
     d="m 40.563218,14.1875 -7.175782,12.421876 3.460938,2 7.179688,-12.421876 z"
     id="path2" />
  <path
     style="opacity:0.1;fill:#000000;stroke-width:2"
     d="m 26.989,37.675782 -7.070312,12.234374 3.464842,2.003906 7.070312,-12.234374 z"
     id="path3" />
  <path
     style="fill:#7f80a1;stroke-width:2"
     d="m 26.989,36.675782 -7.070312,12.234374 3.464842,2.003906 7.070312,-12.234374 z"
     id="path4" />
  <path
     style="fill:#0d65d7;stroke-width:2"
     d="m 40.563218,13.1875 -7.175782,12.421876 3.460938,2 7.179688,-12.421876 z"
     id="path5" />
  <path
     style="opacity:0.1;fill:#000000;stroke-width:2"
     d="M 20.44603,25 12.364,39 20.44603,53 h 16.164064 l 8.08203,-14 -8.08203,-14 z m 2.308594,4 H 34.3015 L 40.074936,39 34.3015,49 H 22.754624 L 16.981188,39 Z"
     id="path6" />
  <path
     style="fill:#7f80a1;stroke-width:2"
     d="M 20.44603,24 12.364,38 20.44603,52 h 16.164064 l 8.08203,-14 -8.08203,-14 z m 2.308594,4 H 34.3015 L 40.074936,38 34.3015,48 H 22.754624 L 16.981188,38 Z"
     id="path7" />
  <path
     style="opacity:0.1;fill:#000000;stroke-width:2"
     d="m 27.391342,13 -8.08203,14 8.08203,14 h 16.164064 l 8.08203,-14 -8.078124,-14 z m 2.308594,4 H 41.250718 L 47.02025,27 41.246812,37 H 29.703842 L 23.9265,27 Z"
     id="path8" />
  <path
     style="fill:#0d65d7;stroke-width:2"
     d="m 27.391342,12 -8.08203,14 8.08203,14 h 16.164064 l 8.08203,-14 -8.078124,-14 z m 2.308594,4 H 41.250718 L 47.02025,26 41.246812,36 H 29.703842 L 23.9265,26 Z"
     id="path9" />
  <path
     d="M 16,4.0000002 C 9.3520066,4.0000002 4,9.352007 4,16 v 1 C 4,10.352007 9.3520066,5 16,5 h 32 c 6.647993,0 12,5.352007 12,12 V 16 C 60,9.352007 54.647993,4.0000002 48,4.0000002 Z"
     style="opacity:0.2;fill:#ffffff;stroke-width:4;stroke-linecap:square"
     id="path1040" />
</svg>
