<?xml version="1.0" encoding="UTF-8" standalone="no"?>
<!-- Created with Inkscape (http://www.inkscape.org/) -->

<svg
   width="64"
   height="64"
   viewBox="0 0 64 64"
   version="1.1"
   id="svg5"
   inkscape:version="1.3 (0e150ed6c4, 2023-07-21)"
   sodipodi:docname="a-dance-of-fire-and-ice.svg"
   xmlns:inkscape="http://www.inkscape.org/namespaces/inkscape"
   xmlns:sodipodi="http://sodipodi.sourceforge.net/DTD/sodipodi-0.dtd"
   xmlns="http://www.w3.org/2000/svg"
   xmlns:svg="http://www.w3.org/2000/svg">
  <sodipodi:namedview
     id="namedview7"
     pagecolor="#ffffff"
     bordercolor="#000000"
     borderopacity="0.25"
     inkscape:showpageshadow="2"
     inkscape:pageopacity="0.0"
     inkscape:pagecheckerboard="0"
     inkscape:deskcolor="#d1d1d1"
     inkscape:document-units="px"
     showgrid="false"
     inkscape:zoom="12.453125"
     inkscape:cx="31.959849"
     inkscape:cy="32"
     inkscape:window-width="1850"
     inkscape:window-height="1011"
     inkscape:window-x="0"
     inkscape:window-y="0"
     inkscape:window-maximized="1"
     inkscape:current-layer="svg5" />
  <defs
     id="defs2" />
  <rect
     style="opacity:0.2;fill:#000000;stroke-width:4;stroke-linecap:square"
     id="rect234"
     width="56"
     height="56"
     x="4"
     y="5"
     ry="12" />
  <rect
     style="fill:#3e265c;fill-opacity:1;stroke-width:4;stroke-linecap:square"
     id="rect396"
     width="56"
     height="56"
     x="4"
     y="4"
     ry="12" />
  <path
     style="fill:#2252c4;stroke-width:2"
     d="m 48,47.999428 c -14.611822,6.047634 -25.256718,3.621598 -32,-8 7.51744,0.531522 15.969512,3.20635 24,-6 z"
     id="path2" />
  <path
     style="fill:#ed2d30;stroke-width:2"
     d="m 16,15.999429 c 14.837644,-5.470244 27.71744,-3.876985 34,8.000001 -7.490822,-0.825778 -17.614824,-2.884504 -26,6 z"
     id="path4" />
  <circle
     style="opacity:0.2;fill:#000000;stroke-width:2.57142"
     id="path7"
     cx="44"
     cy="42"
     r="9" />
  <circle
     style="opacity:0.2;fill:#000000;stroke-width:2.57142"
     id="path8"
     cx="20"
     cy="24"
     r="9" />
  <circle
     style="fill:#ff7043;fill-opacity:1;stroke-width:2.57142"
     id="path9"
     cx="20"
     cy="23"
     r="9" />
  <circle
     style="fill:#448aff;fill-opacity:1;stroke-width:2.57142"
     id="path10"
     cx="44"
     cy="41"
     r="9" />
  <path
     id="path5"
     style="opacity:0.1;fill:#ffffff;stroke-width:2"
     d="m 44,32 a 9,9 0 0 0 -9,9 9,9 0 0 0 0.03516,0.5 A 9,9 0 0 1 44,33 9,9 0 0 1 52.972656,41.363282 9,9 0 0 0 53,41 9,9 0 0 0 44,32 Z" />
  <path
     id="path6"
     style="opacity:0.2;fill:#ffffff;stroke-width:2"
     d="m 20,14 a 9,9 0 0 0 -9,9 9,9 0 0 0 0.03516,0.5 A 9,9 0 0 1 20,15 9,9 0 0 1 28.972656,23.363282 9,9 0 0 0 29,23 9,9 0 0 0 20,14 Z" />
  <path
     id="path1040"
     style="opacity:0.1;fill:#ffffff;stroke-width:4;stroke-linecap:square"
     d="M 16,4 C 9.3520132,4 4,9.3520136 4,16 v 1 C 4,10.352014 9.3520132,5 16,5 h 32 c 6.647986,0 12,5.352014 12,12 V 16 C 60,9.3520136 54.647986,4 48,4 Z" />
</svg>
