<?xml version="1.0" encoding="UTF-8" standalone="no"?>
<!-- Created with Inkscape (http://www.inkscape.org/) -->

<svg
   width="64"
   height="64"
   viewBox="0 0 64 64"
   version="1.1"
   id="svg5"
   inkscape:version="1.3.2 (091e20ef0f, 2023-11-25, custom)"
   sodipodi:docname="accessories-painting.svg"
   xmlns:inkscape="http://www.inkscape.org/namespaces/inkscape"
   xmlns:sodipodi="http://sodipodi.sourceforge.net/DTD/sodipodi-0.dtd"
   xmlns="http://www.w3.org/2000/svg"
   xmlns:svg="http://www.w3.org/2000/svg">
  <sodipodi:namedview
     id="namedview7"
     pagecolor="#ffffff"
     bordercolor="#000000"
     borderopacity="0.25"
     inkscape:showpageshadow="2"
     inkscape:pageopacity="0.0"
     inkscape:pagecheckerboard="0"
     inkscape:deskcolor="#d1d1d1"
     inkscape:document-units="px"
     showgrid="false"
     inkscape:zoom="12.5625"
     inkscape:cx="32"
     inkscape:cy="32"
     inkscape:window-width="1920"
     inkscape:window-height="1008"
     inkscape:window-x="0"
     inkscape:window-y="0"
     inkscape:window-maximized="1"
     inkscape:current-layer="svg5" />
  <defs
     id="defs2" />
  <rect
     style="opacity:0.2;fill:#000000;stroke-width:4;stroke-linecap:square"
     id="rect234"
     width="56"
     height="56"
     x="4"
     y="5"
     ry="12" />
  <rect
     style="fill:#fbc02d;fill-opacity:1;stroke-width:4;stroke-linecap:square"
     id="rect396"
     width="56"
     height="56"
     x="4"
     y="4"
     ry="12" />
  <path
     d="m 31.99916,13.000596 c 11.1112,0 20,8.8888 20,19.999194 0,11.1108 -8.8888,19.9996 -19.9996,19.9996 -1.77776,0 -3.3332,-1.55558 -3.3332,-3.3332 0,-0.88888 0.22222,-1.55558 0.88886,-2.2222 0.444,-0.66698 0.88798,-1.33398 0.88798,-2.223 0,-1.77776 -1.55558,-3.3332 -3.3332,-3.3332 h -4 c -6.222,0 -11.11,-4.888 -11.11,-11.11 0,-9.778194 8.888,-17.777994 20,-17.777994 z"
     style="opacity:0.2;fill:#000000;stroke-width:2"
     id="path2740" />
  <path
     d="m 31.99958,12.0008 c 11.1112,0 20,8.8888 20,19.999192 0,11.1108 -8.8888,19.9996 -19.9996,19.9996 -1.77776,0 -3.3332,-1.55558 -3.3332,-3.3332 0,-0.88888 0.22222,-1.55558 0.88886,-2.2222 0.444,-0.66698 0.88798,-1.33398 0.88798,-2.223 0,-1.77776 -1.55558,-3.3332 -3.3332,-3.3332 h -4 c -6.222,0 -11.11,-4.888 -11.11,-11.11 0,-9.778192 8.888,-17.777992 20,-17.777992 z"
     style="fill:#ffffff;stroke-width:2"
     id="path910" />
  <circle
     style="fill:#ffcc80;fill-opacity:1;stroke-width:8;stroke-linecap:square"
     id="path1757"
     cx="19"
     cy="28.999794"
     r="3" />
  <circle
     style="fill:#ffe082;fill-opacity:1;stroke-width:8;stroke-linecap:square"
     id="path1811"
     cx="25"
     cy="20.999796"
     r="3" />
  <circle
     style="fill:#ffcc80;fill-opacity:1;stroke-width:8;stroke-linecap:square"
     id="path1813"
     cx="37"
     cy="20.999796"
     r="3" />
  <circle
     style="fill:#ffe082;fill-opacity:1;stroke-width:8;stroke-linecap:square"
     id="path1952"
     cx="45"
     cy="28.999794"
     r="3" />
  <g
     id="g361"
     transform="matrix(0.99999418,0,0,0.99999418,6.98e-5,6.98e-5)" />
  <path
     id="path1040"
     style="opacity:0.2;fill:#ffffff;stroke-width:4;stroke-linecap:square"
     d="M 16,4 C 9.3520132,4 4,9.3520136 4,16 v 1 C 4,10.352014 9.3520132,5 16,5 h 32 c 6.647986,0 12,5.352014 12,12 V 16 C 60,9.3520136 54.647986,4 48,4 Z" />
</svg>
