<?xml version="1.0" encoding="UTF-8" standalone="no"?>
<!-- Created with Inkscape (http://www.inkscape.org/) -->

<svg
   width="64"
   height="64"
   viewBox="0 0 64 64"
   version="1.1"
   id="svg5"
   inkscape:version="1.3 (0e150ed6c4, 2023-07-21)"
   sodipodi:docname="accessories-character-map.svg"
   xmlns:inkscape="http://www.inkscape.org/namespaces/inkscape"
   xmlns:sodipodi="http://sodipodi.sourceforge.net/DTD/sodipodi-0.dtd"
   xmlns="http://www.w3.org/2000/svg"
   xmlns:svg="http://www.w3.org/2000/svg">
  <sodipodi:namedview
     id="namedview7"
     pagecolor="#ffffff"
     bordercolor="#000000"
     borderopacity="0.25"
     inkscape:showpageshadow="2"
     inkscape:pageopacity="0.0"
     inkscape:pagecheckerboard="0"
     inkscape:deskcolor="#d1d1d1"
     inkscape:document-units="px"
     showgrid="false"
     inkscape:zoom="12.234375"
     inkscape:cx="31.959132"
     inkscape:cy="32"
     inkscape:window-width="1920"
     inkscape:window-height="984"
     inkscape:window-x="0"
     inkscape:window-y="29"
     inkscape:window-maximized="1"
     inkscape:current-layer="svg5" />
  <defs
     id="defs2" />
  <rect
     style="opacity:0.2;fill:#000000;stroke-width:4;stroke-linecap:square"
     id="rect234"
     width="56"
     height="56"
     x="4"
     y="5"
     ry="12" />
  <rect
     style="fill:#e4e4e4;fill-opacity:1;stroke-width:4;stroke-linecap:square"
     id="rect396"
     width="56"
     height="56"
     x="4"
     y="4"
     ry="12" />
  <path
     d="m 34.23876,39.113284 c -3.14316,3.2e-5 -5.32062,0.367164 -6.5329,1.10147 -1.21216,0.734332 -1.81822,1.98695 -1.81822,3.758068 0,1.411032 0.45104,1.633392 1.35308,2.468532 0.91614,0.820708 2.15646,1.231048 3.7209,1.231048 2.15646,0 3.88288,-0.777506 5.17974,-2.332488 1.31076,-1.569412 1.96618,-2.74935 1.9662,-5.340936 V 39.113494 H 34.2387 m 7.76004,-1.641118 V 50.99949 H 38.1087 v -4.298798 c -0.88572,1.470106 -1.9943,2.556184 -3.31716,3.261234 C 33.46582,50.654976 31.84578,51 29.92866,51 27.5029,51 25.57432,50.30995 24.1343,48.926852 22.71144,47.52875 22,46.566328 22,44.235162 c 0,-2.721256 0.88794,-4.773044 2.6639,-6.155244 1.79,-1.382198 4.45856,-1.879006 7.99146,-2.073326 H 38.11 v -0.388768 c -4e-5,-1.828542 -0.59198,-2.939846 -1.7759,-3.933218 -1.16986,-1.00783 -2.81892,-1.511806 -4.9472,-1.511806 -1.35304,3e-5 -2.6709,0.1656 -3.95344,0.496744 -1.28262,0.331164 -2.5159,1.72862 -3.69976,2.390916 v -4.572372 c 1.42356,-0.56152 2.8048,-0.97903 4.14376,-1.25265 1.33898,-0.28793 2.64272,-0.431912 3.91118,-0.431942 3.42486,3e-5 5.9832,0.907116 7.67432,2.721256 1.69134,1.814202 2.537,4.26444 2.53704,7.950504 M 28.89416,15 34.85624,23.997556 H 31.62162 L 24.73012,15.0009 h 4.16492"
     style="opacity:0.2;fill:#000000;stroke-width:2.92782"
     id="path1" />
  <path
     d="m 34.23876,38.113284 c -3.14316,3.2e-5 -5.32062,0.367164 -6.5329,1.10147 -1.21216,0.734332 -1.81822,1.98695 -1.81822,3.758068 0,1.411032 0.45104,1.633392 1.35308,2.468532 0.91614,0.820708 2.15646,1.231048 3.7209,1.231048 2.15646,0 3.88288,-0.777506 5.17974,-2.332488 1.31076,-1.569412 1.96618,-2.74935 1.9662,-5.340936 V 38.113494 H 34.2387 m 7.76004,-1.641118 V 49.99949 H 38.1087 v -4.298798 c -0.88572,1.470106 -1.9943,2.556184 -3.31716,3.261234 C 33.46582,49.654976 31.84578,50 29.92866,50 27.5029,50 25.57432,49.30995 24.1343,47.926852 22.71144,46.52875 22,45.566328 22,43.235162 c 0,-2.721256 0.88794,-4.773044 2.6639,-6.155244 1.79,-1.382198 4.45856,-1.879006 7.99146,-2.073326 H 38.11 v -0.388768 c -4e-5,-1.828542 -0.59198,-2.939846 -1.7759,-3.933218 -1.16986,-1.00783 -2.81892,-1.511806 -4.9472,-1.511806 -1.35304,3e-5 -2.6709,0.1656 -3.95344,0.496744 -1.28262,0.331164 -2.5159,1.72862 -3.69976,2.390916 v -4.572372 c 1.42356,-0.56152 2.8048,-0.97903 4.14376,-1.25265 1.33898,-0.28793 2.64272,-0.431912 3.91118,-0.431942 3.42486,3e-5 5.9832,0.907116 7.67432,2.721256 1.69134,1.814202 2.537,4.26444 2.53704,7.950504 M 28.89416,14 34.85624,22.997556 H 31.62162 L 24.73012,14.0009 h 4.16492"
     style="fill:#3f3f3f;stroke-width:2.92782"
     id="path2" />
  <g
     id="g361"
     transform="matrix(0.99999418,0,0,0.99999418,6.98e-5,6.98e-5)" />
  <path
     id="path1040"
     style="opacity:0.2;fill:#ffffff;stroke-width:4;stroke-linecap:square"
     d="M 16,4 C 9.3520132,4 4,9.3520136 4,16 v 1 C 4,10.352014 9.3520132,5 16,5 h 32 c 6.647986,0 12,5.352014 12,12 V 16 C 60,9.3520136 54.647986,4 48,4 Z" />
</svg>
