<?xml version="1.0" encoding="UTF-8" standalone="no"?>
<!-- Created with Inkscape (http://www.inkscape.org/) -->

<svg
   width="64"
   height="64"
   viewBox="0 0 64 64"
   version="1.1"
   id="svg5"
   inkscape:version="1.3.2 (091e20ef0f, 2023-11-25, custom)"
   sodipodi:docname="accessories-camera.svg"
   xmlns:inkscape="http://www.inkscape.org/namespaces/inkscape"
   xmlns:sodipodi="http://sodipodi.sourceforge.net/DTD/sodipodi-0.dtd"
   xmlns="http://www.w3.org/2000/svg"
   xmlns:svg="http://www.w3.org/2000/svg">
  <sodipodi:namedview
     id="namedview7"
     pagecolor="#ffffff"
     bordercolor="#000000"
     borderopacity="0.25"
     inkscape:showpageshadow="2"
     inkscape:pageopacity="0.0"
     inkscape:pagecheckerboard="0"
     inkscape:deskcolor="#d1d1d1"
     inkscape:document-units="px"
     showgrid="false"
     inkscape:zoom="12.84375"
     inkscape:cx="32"
     inkscape:cy="32"
     inkscape:window-width="1920"
     inkscape:window-height="1008"
     inkscape:window-x="0"
     inkscape:window-y="0"
     inkscape:window-maximized="1"
     inkscape:current-layer="svg5" />
  <defs
     id="defs2" />
  <rect
     style="opacity:0.2;fill:#000000;stroke-width:4;stroke-linecap:square"
     id="rect234"
     width="56"
     height="56"
     x="4"
     y="5"
     ry="12" />
  <rect
     style="fill:#4f4f4f;fill-opacity:1;stroke-width:4;stroke-linecap:square"
     id="rect396"
     width="56"
     height="56"
     x="4"
     y="4"
     ry="12" />
  <circle
     style="fill:#2f2f2f;fill-opacity:1;stroke-width:1;stroke-linecap:round;stroke-linejoin:round"
     id="path5622"
     cx="32"
     cy="32"
     r="20" />
  <circle
     style="opacity:0.2;fill:#000000;stroke-width:1;stroke-linecap:round;stroke-linejoin:round"
     id="path5676"
     cx="32"
     cy="33"
     r="16" />
  <circle
     style="fill:#00b1c4;fill-opacity:1;stroke-width:1;stroke-linecap:round;stroke-linejoin:round"
     id="path5825"
     cx="32"
     cy="32"
     r="16" />
  <circle
     style="opacity:0.2;fill:#000000;fill-opacity:1;stroke-width:1;stroke-linecap:round;stroke-linejoin:round"
     id="path7178"
     cx="32"
     cy="33"
     r="8" />
  <circle
     style="fill:#70f4ff;fill-opacity:1;stroke-width:1;stroke-linecap:round;stroke-linejoin:round"
     id="path7180"
     cx="32"
     cy="32"
     r="8" />
  <path
     id="path1"
     style="opacity:0.2;fill:#ffffff;fill-opacity:1;stroke-width:4"
     d="m 32,24 a 8,8 0 0 0 -8,8 8,8 0 0 0 0.03516,0.507812 A 8,8 0 0 1 32,25 8,8 0 0 1 39.972656,32.371094 8,8 0 0 0 40,32 8,8 0 0 0 32,24 Z" />
  <path
     id="path1040"
     style="opacity:0.1;fill:#ffffff;stroke-width:4;stroke-linecap:square"
     d="M 16,4 C 9.3520132,4 4,9.3520136 4,16 v 1 C 4,10.352013 9.3520132,5 16,5 h 32 c 6.647986,0 12,5.352013 12,12 V 16 C 60,9.3520136 54.647986,4 48,4 Z" />
</svg>
