<?xml version="1.0" encoding="UTF-8" standalone="no"?>
<!-- Created with Inkscape (http://www.inkscape.org/) -->

<svg
   width="64"
   height="64"
   viewBox="0 0 64 64"
   version="1.1"
   id="svg5"
   inkscape:version="1.3.2 (091e20ef0f, 2023-11-25, custom)"
   sodipodi:docname="AdobePhotoshop.svg"
   xmlns:inkscape="http://www.inkscape.org/namespaces/inkscape"
   xmlns:sodipodi="http://sodipodi.sourceforge.net/DTD/sodipodi-0.dtd"
   xmlns="http://www.w3.org/2000/svg"
   xmlns:svg="http://www.w3.org/2000/svg">
  <sodipodi:namedview
     id="namedview7"
     pagecolor="#ffffff"
     bordercolor="#000000"
     borderopacity="0.25"
     inkscape:showpageshadow="2"
     inkscape:pageopacity="0.0"
     inkscape:pagecheckerboard="0"
     inkscape:deskcolor="#d1d1d1"
     inkscape:document-units="px"
     showgrid="false"
     inkscape:zoom="12.421875"
     inkscape:cx="31.959748"
     inkscape:cy="32"
     inkscape:window-width="1920"
     inkscape:window-height="1008"
     inkscape:window-x="0"
     inkscape:window-y="0"
     inkscape:window-maximized="1"
     inkscape:current-layer="svg5"
     showguides="false" />
  <defs
     id="defs2" />
  <rect
     style="opacity:0.2;fill:#000000;stroke-width:4;stroke-linecap:square"
     id="rect234"
     width="56"
     height="56"
     x="4"
     y="5"
     ry="12" />
  <rect
     style="fill:#3b478c;fill-opacity:1;stroke-width:4;stroke-linecap:square"
     id="rect396"
     width="56"
     height="56"
     x="4"
     y="4"
     ry="12" />
  <path
     opacity="0.2"
     d="m 14.00066,19.113996 c 0,0 4.202,-0.114996 7.6612,-0.114996 4.8,0.001 10.338,1.601 10.338,10.001 0,8.4 -5.5384,10 -10.3386,9.9714 C 20.599,39.017717 20,39.028779 20,39.028779 v 7.972 h -6 z m 5.9996,15.8746 c 0.6101,0.06176 0.6083,0.03204 1.5126,0.02074 3.012,-0.03599 4.488,-3.325999 4.488,-6.208 0,-2.588 -1.148,-5.689999 -4.04,-5.8 -1.154,-0.044 -1.9602,0 -1.9602,0 z"
     id="path1"
     style="fill:#000000;stroke-width:2" />
  <path
     fill="#219fd1"
     d="m 14.00066,18.114996 c 0,0 4.202,-0.114996 7.6612,-0.114996 4.8,0 10.338,1.6 10.338,10 0,8.4 -5.5384,10 -10.3386,9.9714 C 20.599,38.017716 20,38.028778 20,38.028778 v 7.972 h -6 z m 5.9996,15.8746 c 0.6101,0.06176 0.6083,0.03204 1.5126,0.02074 3.012,-0.038 4.488,-3.328 4.488,-6.21 0,-2.588001 -1.148,-5.69 -4.04,-5.800001 -1.154,-0.044 -1.9602,0 -1.9602,0 z"
     id="path2"
     style="stroke-width:2" />
  <path
     d="m 36.00047,40.9993 c 1.094348,0.730706 3.18644,2.000014 4.946734,2.000014 1.798424,0 3.05278,-1.112328 3.05278,-2.187526 0,-1.076596 -0.334324,-2.397928 -2.563546,-3.215572 -3.949634,-1.46351 -5.474738,-3.215338 -5.435326,-5.66734 0,-3.960262 3.04978,-6.929702 7.781458,-6.929702 2.217398,0 5.21727,2.000014 5.21727,2.000014 v 4.000118 c -0.86087,-0.516972 -3.379434,-2.000012 -5.02149,-2.000012 -1.447564,0 -2.887202,1.16526 -2.887202,2.240458 0,1.383306 1.362418,1.506628 3.708444,2.410978 3.636258,1.377038 5.161362,3.39924 5.200134,6.498038 0,3.91691 -2.774748,7.031558 -8.289756,6.84253 -1.892456,-0.0648 -4.262794,-1.132024 -5.709714,-1.991856 -4e-5,-1.563802 -3e-5,-2.436152 2.14e-4,-4.000118 z"
     id="path3"
     style="opacity:0.2;fill:#000000;stroke-width:0.22344" />
  <path
     d="m 36.00047,39.9993 c 1.094348,0.730706 3.18644,2.000014 4.946734,2.000014 1.798424,0 3.05278,-1.112328 3.05278,-2.187526 0,-1.076596 -0.334324,-2.397928 -2.563546,-3.215572 -3.949634,-1.46351 -5.474738,-3.215338 -5.435326,-5.66734 0,-3.960262 3.04978,-6.929702 7.781458,-6.929702 2.217398,0 5.21727,2.000014 5.21727,2.000014 v 4.000118 c -0.86087,-0.516972 -3.379434,-2.000012 -5.02149,-2.000012 -1.447564,0 -2.887202,1.16526 -2.887202,2.240458 0,1.383306 1.362418,1.506628 3.708444,2.410978 3.636258,1.377038 5.161362,3.39924 5.200134,6.498038 0,3.91691 -2.774748,7.031558 -8.289756,6.84253 -1.892456,-0.0648 -4.262794,-1.132024 -5.709714,-1.991856 -4e-5,-1.563802 -3e-5,-2.436152 2.14e-4,-4.000118 z"
     id="path4"
     style="fill:#219fd1;stroke-width:0.22344" />
  <path
     id="path1040"
     style="opacity:0.1;fill:#ffffff;stroke-width:4;stroke-linecap:square"
     d="M 16,4 C 9.3520132,4 4,9.3520136 4,16 v 1 C 4,10.352014 9.3520132,5 16,5 h 32 c 6.647986,0 12,5.352014 12,12 V 16 C 60,9.3520136 54.647986,4 48,4 Z" />
</svg>
