<?xml version="1.0" encoding="UTF-8" standalone="no"?>
<!-- Created with Inkscape (http://www.inkscape.org/) -->

<svg
   width="64"
   height="64"
   viewBox="0 0 64 64"
   version="1.1"
   id="svg5"
   inkscape:version="1.3.2 (091e20ef0f, 2023-11-25, custom)"
   sodipodi:docname="AdobePremierePro.svg"
   xmlns:inkscape="http://www.inkscape.org/namespaces/inkscape"
   xmlns:sodipodi="http://sodipodi.sourceforge.net/DTD/sodipodi-0.dtd"
   xmlns="http://www.w3.org/2000/svg"
   xmlns:svg="http://www.w3.org/2000/svg">
  <sodipodi:namedview
     id="namedview7"
     pagecolor="#ffffff"
     bordercolor="#000000"
     borderopacity="0.25"
     inkscape:showpageshadow="2"
     inkscape:pageopacity="0.0"
     inkscape:pagecheckerboard="0"
     inkscape:deskcolor="#d1d1d1"
     inkscape:document-units="px"
     showgrid="false"
     inkscape:zoom="12.421875"
     inkscape:cx="31.959748"
     inkscape:cy="32"
     inkscape:window-width="1920"
     inkscape:window-height="1008"
     inkscape:window-x="0"
     inkscape:window-y="0"
     inkscape:window-maximized="1"
     inkscape:current-layer="svg5"
     showguides="false" />
  <defs
     id="defs2" />
  <rect
     style="opacity:0.2;fill:#000000;stroke-width:4;stroke-linecap:square"
     id="rect234"
     width="56"
     height="56"
     x="4"
     y="5"
     ry="12" />
  <rect
     style="fill:#97719d;fill-opacity:1;stroke-width:4;stroke-linecap:square"
     id="rect396"
     width="56"
     height="56"
     x="4"
     y="4"
     ry="12" />
  <path
     id="path2"
     style="opacity:0.2;fill:#000000"
     d="M 21.660156,19 C 18.201009,19 14,19.115234 14,19.115234 V 47 h 6 v -7.970704 c 0,0 0.597912,-0.01227 1.660156,-0.05859 4.800126,0.0286 10.337891,-1.570832 10.337891,-9.970703 0,-8.399872 -5.537965,-10 -10.337891,-10 z m -0.49414,3.982422 C 21.403875,22.984484 21.672442,22.989 21.960938,23 24.852893,23.109998 26,26.21282 26,28.800781 26,31.682737 24.523673,34.971765 21.511719,35.009765 20.607433,35.021065 20.61009,35.051994 20,34.990234 V 23 c 0,0 0.452439,-0.02377 1.166016,-0.01758 z M 36,25 v 22 h 5 V 32 c 2.999997,-2.999997 9,-2 9,-2 v -5 c 0,0 -6.000003,2e-6 -9,2 v -2 z" />
  <path
     id="path3"
     style="fill:#dccdde"
     d="M 21.662109,18 C 18.202962,18 14,18.115234 14,18.115234 V 46 h 6 v -7.972656 c 0,0 0.599865,-0.01032 1.662109,-0.05664 C 26.462236,37.999302 32,36.399872 32,28 32,19.600128 26.462036,18 21.662109,18 Z m -0.49414,3.980469 C 21.405828,21.982531 21.672442,21.989 21.960938,22 24.852893,22.109998 26,25.212821 26,27.800781 26,30.682737 24.525626,33.971766 21.513672,34.009766 20.609386,34.021066 20.61009,34.050041 20,33.988281 V 22 c 0,0 0.454392,-0.02572 1.167969,-0.01953 z M 36,24 v 22 h 5 V 31 c 2.999997,-2.999997 9,-2 9,-2 v -5 c 0,0 -6.000003,2e-6 -9,2 v -2 z" />
  <path
     id="path1040"
     style="opacity:0.1;fill:#ffffff;stroke-width:4;stroke-linecap:square"
     d="M 16,4 C 9.3520132,4 4,9.3520136 4,16 v 1 C 4,10.352014 9.3520132,5 16,5 h 32 c 6.647986,0 12,5.352014 12,12 V 16 C 60,9.3520136 54.647986,4 48,4 Z" />
</svg>
