<?xml version="1.0" encoding="UTF-8" standalone="no"?>
<!-- Created with Inkscape (http://www.inkscape.org/) -->

<svg
   width="64"
   height="64"
   viewBox="0 0 64 64"
   version="1.1"
   id="svg5"
   inkscape:version="1.3 (0e150ed6c4, 2023-07-21)"
   sodipodi:docname="androidstudio.svg"
   xmlns:inkscape="http://www.inkscape.org/namespaces/inkscape"
   xmlns:sodipodi="http://sodipodi.sourceforge.net/DTD/sodipodi-0.dtd"
   xmlns="http://www.w3.org/2000/svg"
   xmlns:svg="http://www.w3.org/2000/svg">
  <sodipodi:namedview
     id="namedview7"
     pagecolor="#ffffff"
     bordercolor="#000000"
     borderopacity="0.25"
     inkscape:showpageshadow="2"
     inkscape:pageopacity="0.0"
     inkscape:pagecheckerboard="0"
     inkscape:deskcolor="#d1d1d1"
     inkscape:document-units="px"
     showgrid="false"
     inkscape:zoom="12.453125"
     inkscape:cx="31.959849"
     inkscape:cy="32"
     inkscape:window-width="1850"
     inkscape:window-height="1011"
     inkscape:window-x="0"
     inkscape:window-y="0"
     inkscape:window-maximized="1"
     inkscape:current-layer="svg5" />
  <defs
     id="defs2" />
  <rect
     style="opacity:0.2;fill:#000000;stroke-width:4;stroke-linecap:square"
     id="rect234"
     width="56"
     height="56"
     x="4"
     y="5"
     ry="12" />
  <rect
     style="fill:#efefef;stroke-width:4;stroke-linecap:square;fill-opacity:1"
     id="rect396"
     width="56"
     height="56"
     x="4"
     y="4"
     ry="12" />
  <path
     d="M 48.0007,46.00017 H 19.2122 c -1.77295,-0.0114 -3.20578,-1.44744 -3.21146,-3.21861 V 20.71202 c -0.01,1.8677 1.56432,3.40265 3.43043,3.28815 h 23.87746 c 0,0 4.69207,-0.45494 4.69207,3.07615 z"
     style="opacity:0.2;fill:#000000"
     id="path517" />
  <path
     d="M 27.90624,17.00017 H 19.1969 c -1.76687,0.005 -3.19618,1.3491 -3.19617,3.00485 -0.0525,1.63995 1.35227,2.99589 3.10309,2.99515 h 8.89551 z"
     style="fill:#0a455f"
     id="path430" />
  <path
     d="m 19.19708,17.00017 c -1.76615,0.006 -3.19477,1.34884 -3.19532,3.00391 -0.005,0.18303 0.008,0.36614 0.0391,0.54687 0.23855,-1.46244 1.57754,-2.54457 3.15625,-2.55078 h 8.70899 l 0.0781,5 h 0.0156 l -0.0937,-6 z"
     style="opacity:0.1;fill:#000000"
     id="path458" />
  <path
     d="m 25.51105,13.00017 c -0.40072,-0.01 -0.64974,0.43195 -0.43359,0.76953 l 1.6914,2.71875 c -2.96002,1.81652 -4.7656,5.03875 -4.76953,8.51172 0,5.52285 4.47715,10 10,10 5.52285,0 10,-4.47715 10,-10 -0.005,-3.47266 -1.8113,-6.69408 -4.77148,-8.50977 l 1.69336,-2.7207 c 0.21614,-0.33758 -0.0329,-0.77953 -0.4336,-0.76953 -0.17026,0.005 -0.3263,0.0962 -0.41406,0.24219 l -1.72266,2.76758 c -1.35582,-0.66042 -2.84345,-1.00562 -4.35156,-1.00977 -1.50846,0.003 -2.99678,0.34651 -4.35352,1.00586 l -1.7207,-2.76367 c -0.0878,-0.14598 -0.2438,-0.23725 -0.41406,-0.24219 z"
     style="opacity:0.2;fill:#000000"
     id="path2014" />
  <path
     d="m 25.51105,12.00017 c -0.40072,-0.01 -0.64974,0.43195 -0.43359,0.76953 l 1.6914,2.71875 c -2.96002,1.81652 -4.7656,5.03875 -4.76953,8.51172 0,5.52285 4.47715,10 10,10 5.52285,0 10,-4.47715 10,-10 -0.005,-3.47266 -1.8113,-6.69408 -4.77148,-8.50977 l 1.69336,-2.7207 c 0.21614,-0.33758 -0.0329,-0.77953 -0.4336,-0.76953 -0.17026,0.005 -0.3263,0.0962 -0.41406,0.24219 l -1.72266,2.76758 c -1.35582,-0.66042 -2.84345,-1.00562 -4.35156,-1.00977 -1.50846,0.003 -2.99678,0.34651 -4.35352,1.00586 l -1.7207,-2.76367 c -0.0878,-0.14598 -0.2438,-0.23725 -0.41406,-0.24219 z"
     style="fill:#3ddc84"
     id="path374"
     sodipodi:nodetypes="ccccscccccccccc" />
  <path
     d="m 25.51105,12.00017 c -0.40072,-0.01 -0.64974,0.43195 -0.43359,0.76953 l 0.18164,0.29102 c 0.0772,-0.042 0.1641,-0.0629 0.25195,-0.0606 0.17026,0.005 0.3263,0.0962 0.41406,0.24219 l 1.7207,2.76367 c 1.35674,-0.65935 2.84506,-1.00322 4.35352,-1.00586 1.50811,0.004 2.99574,0.34935 4.35156,1.00977 l 1.72266,-2.76758 c 0.0878,-0.14598 0.2438,-0.23725 0.41406,-0.24219 0.0878,-0.002 0.17475,0.0186 0.25195,0.0606 l 0.18165,-0.29102 c 0.21614,-0.33758 -0.0329,-0.77953 -0.4336,-0.76953 -0.17026,0.005 -0.3263,0.0962 -0.41406,0.24219 l -1.72266,2.76758 c -1.35582,-0.66042 -2.84345,-1.00562 -4.35156,-1.00977 -1.50846,0.003 -2.99678,0.34651 -4.35352,1.00586 l -1.7207,-2.76367 c -0.0878,-0.14598 -0.2438,-0.23725 -0.41406,-0.24219 z m 0.82226,3.78711 c -2.70526,1.8602 -4.3251,4.9298 -4.33398,8.21289 0.004,0.16164 0.013,0.32315 0.0254,0.48437 0.17084,-3.28316 1.9445,-6.27261 4.74414,-7.99609 z m 11.33204,0 -0.4375,0.70312 c 2.83013,1.7417 4.61017,4.77553 4.75,8.09571 0.0129,-0.19506 0.02,-0.39046 0.0215,-0.58594 -0.009,-3.28309 -1.62873,-6.35269 -4.33399,-8.21289 z"
     style="opacity:0.2;fill:#ffffff"
     id="path402" />
  <path
     d="M 48.0007,45.00017 H 19.2122 c -1.77295,-0.0114 -3.20578,-1.44744 -3.21146,-3.21861 V 19.71202 c -0.01,1.8677 1.56432,3.40265 3.43043,3.28815 h 23.87746 c 0,0 4.69207,-0.45494 4.69207,3.07615 z"
     style="fill:#4285f4"
     id="path489" />
  <ellipse
     style="fill:#073042;fill-opacity:1;stroke-width:4;stroke-linecap:square"
     id="path750"
     cx="32.749321"
     cy="32.250664"
     rx="1.7499999"
     ry="1.75" />
  <path
     d="m 31.98371,28.00037 c -0.55122,0.009 -0.99151,0.45846 -0.98438,1.00586 v 1.16993 c -1.19719,0.42326 -1.99822,1.55441 -2,2.82421 0.001,0.88909 0.39691,1.7318 1.08008,2.30079 l -6.91016,14.44336 c -0.26286,0.50833 -0.21746,1.11274 0.11914,1.58007 0.34151,0.46297 0.91537,0.71744 1.50782,0.66993 0.59264,-0.0541 1.10791,-0.41049 1.3457,-0.92969 l 4.62305,-9.34375 c 0.22298,-0.43413 0.68541,-0.71869 1.19335,-0.72071 0.0142,-4e-5 0.0269,0.005 0.041,0.006 0.0141,-4e-4 0.0268,-0.006 0.041,-0.006 0.50794,0.002 0.97037,0.28658 1.19336,0.72071 l 4.62304,9.34375 c 0.23779,0.5192 0.75306,0.87555 1.34571,0.92969 0.59245,0.0475 1.1663,-0.20696 1.50781,-0.66993 0.3366,-0.46733 0.382,-1.07174 0.11914,-1.58007 l -6.9082,-14.43946 c 0.6835,-0.57023 1.07848,-1.41455 1.07816,-2.30469 -9.6e-4,-1.27052 -0.80214,-2.40266 -2,-2.82617 v -1.16797 c 0.007,-0.55954 -0.45218,-1.01459 -1.01562,-1.00586 z m 0.0156,3 c 1.10457,0 2,0.89544 2,2 0,1.10457 -0.89543,2 -2,2 -1.10457,0 -2,-0.89543 -2,-2 0,-1.10456 0.89543,-2 2,-2 z"
     style="opacity:0.1;fill:#000000"
     id="path650" />
  <path
     d="m 31.9837,27.00037 c -0.55121,0.009 -0.9915,0.45846 -0.98437,1.00586 v 1.16993 c -1.19719,0.42326 -1.99822,1.55441 -2,2.82421 0.001,0.88909 0.3969,1.7318 1.08008,2.30079 l -6.91016,14.44336 c -0.26286,0.50833 -0.21746,1.11274 0.11914,1.58007 0.34151,0.46297 0.91536,0.71744 1.50781,0.66993 0.59264,-0.0541 1.10792,-0.41049 1.34571,-0.92969 l 4.62304,-9.34375 c 0.22299,-0.43413 0.68542,-0.71869 1.19336,-0.72071 0.0141,-4e-5 0.0269,0.005 0.041,0.006 0.0141,-4e-4 0.0268,-0.006 0.041,-0.006 0.50794,0.002 0.97037,0.28658 1.19336,0.72071 l 4.62305,9.34375 c 0.23779,0.5192 0.75306,0.87555 1.3457,0.92969 0.59245,0.0475 1.1663,-0.20696 1.50781,-0.66993 0.3366,-0.46733 0.382,-1.07174 0.11914,-1.58007 L 33.92116,34.30506 c 0.68349,-0.57024 1.07846,-1.41455 1.07813,-2.30469 -9.6e-4,-1.27052 -0.80214,-2.40266 -2,-2.82617 v -1.16797 c 0.007,-0.55955 -0.45218,-1.01459 -1.01563,-1.00586 z m 0.0156,3 c 1.10457,0 2,0.89544 2,2 0,1.10457 -0.89543,2 -2,2 -1.10457,0 -2,-0.89543 -2,-2 0,-1.10456 0.89543,-2 2,-2 z"
     style="fill:#0a455f"
     id="path678" />
  <path
     d="m 45.35158,30.00017 h -1.20095 c -0.0836,0 -0.1513,0.0563 -0.1513,0.14794 V 50.8343 c -1.6e-4,0.0877 0.062,0.16039 0.14185,0.16587 h 1.23877 c 1.44817,-0.006 2.61939,-1.29439 2.61938,-2.88207 V 27.00017 c 4e-5,1.59986 -1.1885,3.01151 -2.64775,3 z"
     style="opacity:0.2;fill:#000000"
     id="path573" />
  <path
     d="m 45.35158,29.00017 h -1.20095 c -0.0836,0 -0.1513,0.0563 -0.1513,0.14794 V 49.8343 c -1.6e-4,0.0877 0.062,0.16039 0.14185,0.16587 h 1.23877 c 1.44817,-0.006 2.61939,-1.29439 2.61938,-2.88207 V 26.00017 c 4e-5,1.59986 -1.1885,3.01151 -2.64775,3 z"
     style="fill:#0a455f"
     id="path545" />
  <path
     id="path1691"
     style="opacity:0.2;fill:#000000;fill-opacity:1;stroke-width:4;stroke-linecap:square"
     d="m 27.99933,19.00017 a 1,1 0 0 0 -1,1 1,1 0 0 0 1,1 1,1 0 0 0 1,-1 1,1 0 0 0 -1,-1 z m 8,0 a 1,1 0 0 0 -1,1 1,1 0 0 0 1,1 1,1 0 0 0 1,-1 1,1 0 0 0 -1,-1 z" />
  <path
     id="path1316"
     style="fill:#ffffff;fill-opacity:1;stroke-width:4;stroke-linecap:square"
     d="m 27.99933,18.00017 a 1,1 0 0 0 -1,1 1,1 0 0 0 1,1 1,1 0 0 0 1,-1 1,1 0 0 0 -1,-1 z m 8,0 a 1,1 0 0 0 -1,1 1,1 0 0 0 1,1 1,1 0 0 0 1,-1 1,1 0 0 0 -1,-1 z" />
  <path
     d="M 16,4.0000002 C 9.3520066,4.0000002 4,9.352007 4,16 v 1 C 4,10.352007 9.3520066,5 16,5 h 32 c 6.647993,0 12,5.352007 12,12 V 16 C 60,9.352007 54.647993,4.0000002 48,4.0000002 Z"
     style="opacity:0.2;fill:#ffffff;stroke-width:4;stroke-linecap:square"
     id="path1040" />
</svg>
