<?xml version="1.0" encoding="UTF-8" standalone="no"?>
<!-- Created with Inkscape (http://www.inkscape.org/) -->

<svg
   width="64"
   height="64"
   viewBox="0 0 64 64"
   version="1.1"
   id="svg5"
   inkscape:version="1.2.2 (1:1.2.2+202305151914+b0a8486541)"
   sodipodi:docname="applications-internet.svg"
   xmlns:inkscape="http://www.inkscape.org/namespaces/inkscape"
   xmlns:sodipodi="http://sodipodi.sourceforge.net/DTD/sodipodi-0.dtd"
   xmlns="http://www.w3.org/2000/svg"
   xmlns:svg="http://www.w3.org/2000/svg">
  <sodipodi:namedview
     id="namedview7"
     pagecolor="#ffffff"
     bordercolor="#000000"
     borderopacity="0.25"
     inkscape:showpageshadow="2"
     inkscape:pageopacity="0.0"
     inkscape:pagecheckerboard="0"
     inkscape:deskcolor="#d1d1d1"
     inkscape:document-units="px"
     showgrid="false"
     inkscape:zoom="12.59375"
     inkscape:cx="31.960298"
     inkscape:cy="32"
     inkscape:window-width="1920"
     inkscape:window-height="1008"
     inkscape:window-x="0"
     inkscape:window-y="0"
     inkscape:window-maximized="1"
     inkscape:current-layer="svg5" />
  <defs
     id="defs2" />
  <rect
     style="opacity:0.2;fill:#000000;stroke-width:4;stroke-linecap:square"
     id="rect234"
     width="56"
     height="56"
     x="4"
     y="5"
     ry="12" />
  <rect
     style="fill:#3a56d3;stroke-width:4;stroke-linecap:square;fill-opacity:1"
     id="rect396"
     width="56"
     height="56"
     x="4"
     y="4"
     ry="12" />
  <circle
     style="fill:#ffffff;stroke-width:4;stroke-linecap:square"
     id="path409"
     cx="32"
     cy="32"
     r="14" />
  <path
     style="opacity:0.1;fill:#000000"
     d="m 41.335938,25.875001 c -3.0206,0 -6.95079,0.84409 -10.76172,2.31641 -3.81095,1.46134 -7.29585,3.48683 -9.5586,5.51953 -1.22526,1.10384 -1.86132,2.00851 -2.15039,2.62304 l -0.10901,0.26367 c 0,0 0.1602,0.38959 0.19216,0.4609 0.0623,-0.0941 0.4086,-0.53555 0.48293,-0.63684 0.36023,-0.4909 0.86762,-1.0651 1.58431,-1.71077 2.26276,-2.03269 5.74765,-4.05819 9.5586,-5.51953 3.81093,-1.47232 7.74112,-2.31641 10.76172,-2.31641 0.8933,0 1.61354,0.0748 2.18359,0.18555 0.69887,0.0897 1.20811,0.37004 1.80469,0.66601 -0.0319,-0.0995 -0.0558,-0.20228 -0.0898,-0.30078 0.0975,-0.26837 0.1226,-0.4678 0.0859,-0.5625 -0.11911,-0.30765 -1.27775,-0.98828 -3.98438,-0.98828 z m 10.63672,1.00781 c -0.16075,1.80768 -1.16662,4.21964 -4.29297,7.03906 -0.58125,0.52356 -1.22616,1.03694 -1.90235,1.54297 -0.0714,0.40713 -0.15901,0.80936 -0.26562,1.20313 0.7773,-0.57081 1.50929,-1.1528 2.16797,-1.7461 3.74725,-3.37937 4.44515,-6.17122 4.29297,-8.03906 z m -39.94532,11.28906 c -0.081,1.00253 0.0922,1.81893 0.3125,2.40625 0.61913,1.65093 2.63199,4.42188 9.1875,4.42188 0.94759,0 1.94796,-0.0594 2.98047,-0.17188 -0.43241,-0.27453 -0.84819,-0.57414 -1.24609,-0.89453 -0.59212,0.0401 -1.17482,0.0664 -1.73438,0.0664 -6.55551,0 -8.56837,-2.77095 -9.1875,-4.42188 -0.1416,-0.37757 -0.26233,-0.85227 -0.3125,-1.40625 z"
     id="path297" />
  <path
     style="fill:#3ea0f4"
     d="m 42.472658,20.000001 c -4.04257,0 -8.9627,1.04858 -13.86719,2.93359 -4.9045,1.88501 -9.26234,4.42174 -12.28516,7.14453 -4.90449,4.423 -4.5996,7.84908 -3.98047,9.5 0.61913,1.65093 2.63199,4.42188 9.1875,4.42188 0.94759,0 1.94796,-0.0594 2.98047,-0.17188 -2.3748,-1.50772 -4.26466,-3.71205 -5.38281,-6.32421 -0.25577,-0.13684 -0.4081,-0.27105 -0.44531,-0.36719 -0.11909,-0.30765 0.31137,-1.60185 2.33593,-3.42578 2.26275,-2.03269 5.74765,-4.05819 9.5586,-5.51953 3.81093,-1.47232 7.74112,-2.31641 10.76172,-2.31641 2.70664,0 3.86527,0.68063 3.98437,0.98828 0.0367,0.0947 0.0116,0.29413 -0.0859,0.5625 0.49514,1.43321 0.76563,2.9727 0.76563,4.57422 0,1.26919 -0.17176,2.49892 -0.48828,3.66797 0.7773,-0.57081 1.50929,-1.1528 2.16797,-1.74609 4.90449,-4.423 4.5996,-7.84908 3.98047,-9.5 -0.60699,-1.65093 -2.61985,-4.42188 -9.1875,-4.42188 z"
     id="path299"
     sodipodi:nodetypes="sscssccsccsscscccss" />
  <path
     style="opacity:0.2;fill:#000000"
     d="m 45.978518,32.287111 c -0.15612,7.61129 -6.36564,13.70281 -13.97852,13.71289 -5.80321,-0.006 -10.96366,-3.58526 -13.03732,-8.93427 -0.11739,-0.3028 -0.1093,-0.15426 -0.20646,-0.46808 -0.10946,0.58121 0.11908,1.09451 0.39232,1.80324 0.23705,0.61484 0.52746,1.19535 0.80654,1.73973 2.44015,4.1065 6.92153,6.85938 12.04492,6.85938 7.73199,0 14,-6.26801 14,-14 -3e-4,-0.238 -0.009,-0.47527 -0.0215,-0.71289 z"
     id="path301" />
  <path
     d="M 16,4.0000002 C 9.3520066,4.0000002 4,9.352007 4,16 v 1 C 4,10.352007 9.3520066,5 16,5 h 32 c 6.647993,0 12,5.352007 12,12 V 16 C 60,9.352007 54.647993,4.0000002 48,4.0000002 Z"
     style="opacity:0.1;fill:#ffffff;stroke-width:4;stroke-linecap:square"
     id="path1040" />
</svg>
