<?xml version="1.0" encoding="UTF-8" standalone="no"?>
<!-- Created with Inkscape (http://www.inkscape.org/) -->

<svg
   width="64"
   height="64"
   viewBox="0 0 64 64"
   version="1.1"
   id="svg5"
   inkscape:version="1.2.2 (1:1.2.2+202305151914+b0a8486541)"
   sodipodi:docname="application-default-icon.svg"
   xmlns:inkscape="http://www.inkscape.org/namespaces/inkscape"
   xmlns:sodipodi="http://sodipodi.sourceforge.net/DTD/sodipodi-0.dtd"
   xmlns="http://www.w3.org/2000/svg"
   xmlns:svg="http://www.w3.org/2000/svg">
  <sodipodi:namedview
     id="namedview7"
     pagecolor="#ffffff"
     bordercolor="#000000"
     borderopacity="0.25"
     inkscape:showpageshadow="2"
     inkscape:pageopacity="0.0"
     inkscape:pagecheckerboard="0"
     inkscape:deskcolor="#d1d1d1"
     inkscape:document-units="px"
     showgrid="false"
     inkscape:zoom="12.59375"
     inkscape:cx="31.960298"
     inkscape:cy="32"
     inkscape:window-width="1920"
     inkscape:window-height="1008"
     inkscape:window-x="0"
     inkscape:window-y="0"
     inkscape:window-maximized="1"
     inkscape:current-layer="svg5" />
  <defs
     id="defs2" />
  <rect
     style="opacity:0.2;fill:#000000;stroke-width:4;stroke-linecap:square"
     id="rect234"
     width="56"
     height="56"
     x="4"
     y="5"
     ry="12" />
  <rect
     style="fill:#c8d3d9;fill-opacity:1;stroke-width:4;stroke-linecap:square"
     id="rect396"
     width="56"
     height="56"
     x="4"
     y="4"
     ry="12" />
  <path
     d="m 36.27198,13.140286 c -2.171314,-0.581802 -4.38882,0.698478 -4.970622,2.86979 -0.30624,1.1429 -1.03173,1.633186 -2.67794,2.183984 -2.030192,0.67927 -3.370354,0.885708 -4.512962,-0.256896 -1.58951,-1.58951 -4.149136,-1.588454 -5.738648,0.0011 l -1.435434,1.43313 c -1.58951,1.58951 -1.588454,4.149134 0.0011,5.738648 0.79563,0.795628 0.721536,2.276984 0.364646,3.95159 -0.454962,2.134784 -0.588264,2.783452 -2.291588,3.239856 -2.171312,0.5818 -3.45204,2.797972 -2.870238,4.969286 l 0.526556,1.958846 c 0.5818,2.171312 2.797974,3.452038 4.969286,2.87024 1.490646,-0.399418 2.27404,0.368602 3.486356,1.52256 1.6305,1.552016 2.159796,2.315434 1.777602,3.741796 -0.5818,2.171314 0.698478,4.388822 2.86979,4.970622 l 0.979108,0.262352 0.979108,0.26235 c 2.171314,0.581802 4.388822,-0.698476 4.970624,-2.869788 0.38219,-1.426364 1.222284,-1.822856 3.410346,-2.35169 1.626874,-0.3932 2.689322,-0.666628 3.780552,0.4246 1.589512,1.589512 4.149138,1.588456 5.738648,-0.0011 l 1.435434,-1.433132 c 1.589512,-1.58951 1.588456,-4.149136 -0.0011,-5.738646 -1.246918,-1.24692 -1.038028,-1.875334 -0.364644,-3.951592 0.528226,-1.628694 1.204738,-2.948634 2.291586,-3.239854 2.171314,-0.581802 3.452042,-2.797974 2.87024,-4.969286 L 51.33323,26.770208 c -0.581802,-2.171312 -2.797974,-3.452042 -4.969288,-2.87024 -1.560828,0.418224 -2.618222,-0.430642 -4.036784,-2.034004 -1.150262,-1.30011 -1.533412,-2.087452 -1.227174,-3.230352 0.581802,-2.171314 -0.698476,-4.388822 -2.869788,-4.970622 l -0.97911,-0.262352 z"
     style="opacity:0.2;fill:#000000;stroke-width:2"
     id="path542" />
  <path
     d="m 36.27198,12.140286 c -2.171314,-0.581802 -4.38882,0.698476 -4.970622,2.869789 -0.30624,1.142901 -1.03173,1.633185 -2.67794,2.183983 -2.030192,0.67927 -3.370354,0.885712 -4.512962,-0.256894 -1.58951,-1.589512 -4.149136,-1.588456 -5.738648,0.0011 l -1.435434,1.433128 c -1.58951,1.589514 -1.588454,4.149138 0.0011,5.738648 0.79563,0.79563 0.721536,2.276986 0.364646,3.951592 -0.454962,2.134784 -0.588264,2.783452 -2.291588,3.239856 -2.171312,0.5818 -3.45204,2.797972 -2.870238,4.969286 l 0.526556,1.958846 c 0.5818,2.171312 2.797974,3.45204 4.969286,2.87024 1.490646,-0.399416 2.27404,0.368604 3.486356,1.522562 1.6305,1.552014 2.159796,2.315432 1.777602,3.741796 -0.5818,2.171314 0.698478,4.38882 2.86979,4.97062 l 0.979108,0.262352 0.979108,0.262352 c 2.171314,0.581802 4.388822,-0.698478 4.970624,-2.86979 0.38219,-1.426364 1.222284,-1.822854 3.410346,-2.351688 1.626874,-0.3932 2.689322,-0.666628 3.780552,0.4246 1.589512,1.58951 4.149138,1.588456 5.738648,-0.0011 l 1.435434,-1.433132 c 1.589512,-1.589512 1.588456,-4.149138 -0.0011,-5.738648 -1.246918,-1.24692 -1.038028,-1.875332 -0.364644,-3.95159 0.528226,-1.628696 1.204738,-2.948634 2.291586,-3.239856 2.171314,-0.5818 3.452042,-2.797974 2.87024,-4.969288 L 51.33323,25.770208 c -0.581802,-2.171314 -2.797974,-3.452042 -4.969288,-2.87024 -1.560828,0.418222 -2.618222,-0.430642 -4.036784,-2.034004 -1.150262,-1.30011 -1.533412,-2.087454 -1.227174,-3.230354 0.581802,-2.171314 -0.698476,-4.38882 -2.869788,-4.970622 l -0.97911,-0.262351 z"
     style="fill:#455a64;stroke-width:2"
     id="path514" />
  <circle
     style="opacity:0.2;fill:#000000;stroke-width:8;stroke-linecap:square"
     id="path398"
     cx="32"
     cy="33"
     r="8" />
  <circle
     style="fill:#ffffff;stroke-width:8;stroke-linecap:square"
     id="path452"
     cx="32"
     cy="31.999893"
     r="8" />
  <path
     id="path570"
     style="opacity:0.1;fill:#ffffff;stroke-width:2"
     d="M 35.058594 12.003906 C 33.328375 12.070806 31.773491 13.247533 31.300781 15.011719 C 30.994542 16.154615 30.271204 16.644517 28.625 17.195312 C 26.594814 17.874582 25.25198 18.080103 24.109375 16.9375 C 22.519869 15.347993 19.9606 15.347989 18.371094 16.9375 L 16.9375 18.371094 C 16.016335 19.292259 15.629911 20.539246 15.777344 21.734375 C 15.885438 20.871318 16.272115 20.036481 16.9375 19.371094 L 18.371094 17.9375 C 19.960602 16.347988 22.519867 16.347992 24.109375 17.9375 C 25.25198 19.080103 26.594812 18.874582 28.625 18.195312 C 30.271206 17.644517 30.994542 17.154618 31.300781 16.011719 C 31.882581 13.840411 34.102128 12.558825 36.273438 13.140625 L 37.25 13.402344 L 38.230469 13.664062 C 39.872269 14.103982 41.003899 15.479296 41.207031 17.0625 C 41.444441 15.087388 40.209883 13.194445 38.230469 12.664062 L 37.25 12.402344 L 36.273438 12.140625 C 35.866316 12.031537 35.457875 11.988467 35.058594 12.003906 z M 41.058594 18.841797 C 40.852568 19.874777 41.247803 20.646384 42.326172 21.865234 C 43.74473 23.468594 44.802457 24.318611 46.363281 23.900391 C 48.534591 23.318589 50.752184 24.598221 51.333984 26.769531 L 51.859375 28.728516 C 51.910785 28.920366 51.943805 29.113294 51.966797 29.304688 C 52.032967 28.793083 52.001597 28.259286 51.859375 27.728516 L 51.333984 25.769531 C 50.752184 23.598221 48.534591 22.318589 46.363281 22.900391 C 44.802457 23.318611 43.746685 22.468594 42.328125 20.865234 C 41.618935 20.063656 41.202795 19.457047 41.058594 18.841797 z M 17.464844 27.148438 C 17.421724 27.445001 17.367561 27.749182 17.300781 28.0625 C 16.84582 30.197276 16.715038 30.844378 15.011719 31.300781 C 13.032314 31.831159 11.797619 33.720708 12.035156 35.695312 C 12.239624 34.113946 13.371122 32.740377 15.011719 32.300781 C 16.71504 31.844378 16.84582 31.19728 17.300781 29.0625 C 17.411081 28.544961 17.492302 28.048117 17.53125 27.582031 C 17.51665 27.432331 17.495684 27.285683 17.464844 27.148438 z M 46.220703 38.621094 C 46.058438 39.502719 46.237684 40.065812 47.0625 40.890625 C 47.729845 41.557951 48.113485 42.395985 48.220703 43.261719 C 48.369777 42.063999 47.985856 40.813954 47.0625 39.890625 C 46.588328 39.416452 46.328342 39.030013 46.220703 38.621094 z M 22.957031 46.078125 C 22.939211 46.172585 22.927331 46.262742 22.900391 46.363281 C 22.75908 46.89066 22.730446 47.420958 22.794922 47.929688 C 22.817992 47.741535 22.849872 47.551839 22.900391 47.363281 C 23.031002 46.875833 23.046894 46.468659 22.957031 46.078125 z " />
  <path
     id="path1040"
     style="opacity:0.2;fill:#ffffff;stroke-width:4;stroke-linecap:square"
     d="M 16,4 C 9.3520132,4 4,9.3520136 4,16 v 1 C 4,10.352007 9.3520066,5 16,5 h 32 c 6.647994,0 12,5.352007 12,12 V 16 C 60,9.3520136 54.647986,4 48,4 Z" />
</svg>
