<?xml version="1.0" encoding="UTF-8" standalone="no"?>
<!-- Created with Inkscape (http://www.inkscape.org/) -->

<svg
   width="64"
   height="64"
   viewBox="0 0 64 64"
   version="1.1"
   id="svg5"
   inkscape:version="1.3 (0e150ed6c4, 2023-07-21)"
   sodipodi:docname="applications-interfacedesign.svg"
   xmlns:inkscape="http://www.inkscape.org/namespaces/inkscape"
   xmlns:sodipodi="http://sodipodi.sourceforge.net/DTD/sodipodi-0.dtd"
   xmlns="http://www.w3.org/2000/svg"
   xmlns:svg="http://www.w3.org/2000/svg">
  <sodipodi:namedview
     id="namedview7"
     pagecolor="#ffffff"
     bordercolor="#000000"
     borderopacity="0.25"
     inkscape:showpageshadow="2"
     inkscape:pageopacity="0.0"
     inkscape:pagecheckerboard="0"
     inkscape:deskcolor="#d1d1d1"
     inkscape:document-units="px"
     showgrid="false"
     inkscape:zoom="12.453125"
     inkscape:cx="31.959849"
     inkscape:cy="32"
     inkscape:window-width="1850"
     inkscape:window-height="1011"
     inkscape:window-x="0"
     inkscape:window-y="0"
     inkscape:window-maximized="1"
     inkscape:current-layer="svg5" />
  <defs
     id="defs2" />
  <rect
     style="opacity:0.2;fill:#000000;stroke-width:4;stroke-linecap:square"
     id="rect234"
     width="56"
     height="56"
     x="4"
     y="5"
     ry="12" />
  <rect
     style="fill:#c7c7c7;fill-opacity:1;stroke-width:4;stroke-linecap:square"
     id="rect396"
     width="56"
     height="56"
     x="4"
     y="4"
     ry="12" />
  <path
     id="path1"
     style="opacity:0.2;fill:#000000;stroke-width:2"
     d="m 13,23 a 3,3 0 0 0 -3,3 3,3 0 0 0 3,3 3,3 0 0 0 3,-3 3,3 0 0 0 -3,-3 z m 10,0 c -0.554,0 -1,0.446 -1,1 v 4 c 0,0.554 0.446,1 1,1 h 4 c 0.554,0 1,-0.446 1,-1 v -4 c 0,-0.554 -0.446,-1 -1,-1 z" />
  <rect
     style="fill:#ffffff;stroke-width:2"
     id="rect1"
     width="6"
     height="6"
     x="22"
     y="22"
     ry="1" />
  <circle
     style="fill:#ffffff;stroke-width:2"
     id="path2"
     cx="13"
     cy="25"
     r="3" />
  <path
     id="path3"
     style="opacity:0.1;fill:#000000;stroke-width:2"
     d="m 13,33 a 3,3 0 0 0 -3,3 3,3 0 0 0 3,3 3,3 0 0 0 3,-3 3,3 0 0 0 -3,-3 z m 10,0 c -0.554,0 -1,0.446 -1,1 v 4 c 0,0.554 0.446,1 1,1 h 4 c 0.554,0 1,-0.446 1,-1 v -4 c 0,-0.554 -0.446,-1 -1,-1 z" />
  <rect
     style="opacity:0.2;stroke-width:2"
     width="44"
     height="6"
     x="10"
     y="45"
     ry="2"
     id="rect3" />
  <rect
     style="fill:#ffffff;stroke-width:2"
     width="44"
     height="6"
     x="10"
     y="44"
     ry="2"
     id="rect4" />
  <circle
     style="opacity:1;fill:#5294e2;fill-opacity:1;stroke-width:2"
     id="path4"
     cx="13"
     cy="35"
     r="3" />
  <rect
     style="opacity:1;fill:#5294e2;fill-opacity:1;stroke-width:2"
     id="rect5"
     width="6"
     height="6"
     x="22"
     y="32"
     ry="1" />
  <circle
     style="opacity:0.1;fill:#000000;fill-opacity:1;stroke-width:2"
     id="path5"
     cx="41"
     cy="48"
     r="7" />
  <circle
     style="opacity:1;fill:#5294e2;fill-opacity:1;stroke-width:2"
     id="path6"
     cx="41"
     cy="47"
     r="7" />
  <path
     id="rect1233"
     style="fill:#5a6367;fill-opacity:1;stroke-width:4;stroke-linecap:square"
     d="m 16,4 h 32 c 6.648,0 12,5.352 12,12 H 3.9999999 C 3.9999999,9.352 9.3519999,4 16,4 Z"
     sodipodi:nodetypes="ssccs" />
  <path
     id="path1040"
     style="opacity:0.1;fill:#ffffff;stroke-width:4;stroke-linecap:square"
     d="M 16,4 C 9.3520133,4 4.0000001,9.3520136 4.0000001,16 v 1 C 4.0000001,10.352014 9.3520133,5 16,5 h 32 c 6.647986,0 12,5.352014 12,12 V 16 C 60,9.3520136 54.647986,4 48,4 Z" />
</svg>
