<?xml version="1.0" encoding="UTF-8" standalone="no"?>
<!-- Created with Inkscape (http://www.inkscape.org/) -->

<svg
   width="64"
   height="64"
   viewBox="0 0 64 64"
   version="1.1"
   id="svg5"
   inkscape:version="1.2.2 (1:1.2.2+202305151914+b0a8486541)"
   sodipodi:docname="applications-science.svg"
   xmlns:inkscape="http://www.inkscape.org/namespaces/inkscape"
   xmlns:sodipodi="http://sodipodi.sourceforge.net/DTD/sodipodi-0.dtd"
   xmlns="http://www.w3.org/2000/svg"
   xmlns:svg="http://www.w3.org/2000/svg">
  <sodipodi:namedview
     id="namedview7"
     pagecolor="#ffffff"
     bordercolor="#000000"
     borderopacity="0.25"
     inkscape:showpageshadow="2"
     inkscape:pageopacity="0.0"
     inkscape:pagecheckerboard="0"
     inkscape:deskcolor="#d1d1d1"
     inkscape:document-units="px"
     showgrid="false"
     inkscape:zoom="12.59375"
     inkscape:cx="31.960298"
     inkscape:cy="32"
     inkscape:window-width="1920"
     inkscape:window-height="1008"
     inkscape:window-x="0"
     inkscape:window-y="0"
     inkscape:window-maximized="1"
     inkscape:current-layer="svg5" />
  <defs
     id="defs2" />
  <rect
     style="opacity:0.2;fill:#000000;stroke-width:4;stroke-linecap:square"
     id="rect234"
     width="56"
     height="56"
     x="4"
     y="5"
     ry="12" />
  <rect
     style="fill:#48cac2;stroke-width:4;stroke-linecap:square;fill-opacity:1"
     id="rect396"
     width="56"
     height="56"
     x="4"
     y="4"
     ry="12" />
  <g
     id="g1597"
     transform="translate(-288,-140)">
    <path
       d="m 319.99879,152 c -1.83146,0.002 -3.42774,1.24727 -3.87489,3.02331 -1.9977,1.09855 -3.67829,2.99672 -4.94526,5.27725 -0.87321,1.57178 -1.57391,3.37011 -2.10154,5.32025 -1.74551,1.01379 -3.3023,2.15674 -4.59367,3.4061 -2.98831,2.89132 -4.77106,6.54122 -3.80449,10.14811 0.96645,3.6069 4.33728,5.88064 8.37076,6.89041 0.47379,0.11861 0.96356,0.21743 1.4609,0.30467 0.21229,0.45599 0.43165,0.90273 0.66794,1.32808 2.02194,3.6359 5.08786,6.30182 8.82175,6.30182 3.73409,0 6.80081,-2.66572 8.82015,-6.30062 0.87321,-1.57178 1.57391,-3.3701 2.10154,-5.32025 1.74551,-1.01379 3.3023,-2.15674 4.59367,-3.4061 0.95269,-0.92175 1.76419,-1.92647 2.42173,-2.97652 0.0207,0.001 0.0413,0.003 0.062,0.004 2.20907,0 3.99988,-1.79081 3.99988,-3.99988 -0.002,-1.79356 -1.19821,-3.36632 -2.92591,-3.84789 -1.18997,-3.20991 -4.35388,-5.27385 -8.12377,-6.21782 -0.47399,-0.12 -0.96397,-0.218 -1.46196,-0.306 -0.212,-0.45598 -0.43199,-0.90197 -0.66798,-1.32796 -1.26597,-2.27993 -2.94792,-4.17788 -4.94386,-5.27645 -0.44724,-1.7764 -2.04405,-3.02196 -3.87589,-3.02331 z m -2.65232,6.988 c 0.73053,0.65018 1.67396,1.01019 2.65192,1.01197 0.96899,-0.002 1.90422,-0.35614 2.63192,-0.99597 0.7244,0.53906 1.4388,1.27318 2.10535,2.27733 -2.49773,0.0412 -5.14606,0.40607 -7.84358,1.12887 -0.92412,0.24761 -1.81305,0.53711 -2.68352,0.84764 0.15725,-0.33431 0.29513,-0.71014 0.46482,-1.01559 0.82376,-1.48276 1.73593,-2.55453 2.67173,-3.25391 z m 7.10139,6.30062 c 0.76258,-0.0236 1.47282,0.0225 2.18354,0.0664 0.83398,2.48993 1.36596,5.44184 1.36596,8.64575 0,2.01515 -0.23357,3.91409 -0.58982,5.68744 -1.62019,0.80268 -3.3941,1.51768 -5.33965,2.03894 -3.09491,0.8293 -6.08242,1.07987 -8.70295,0.91794 -0.83598,-2.48793 -1.36796,-5.43985 -1.36796,-8.64376 0,-2.01514 0.23357,-3.91409 0.58982,-5.68743 1.62019,-0.80268 3.3941,-1.51768 5.33965,-2.03895 2.25553,-0.60436 4.47027,-0.92081 6.51941,-0.98435 z m 6.60921,0.84374 c 2.14774,0.7215 3.4785,1.81764 4.09369,3.06231 -0.73822,0.74747 -1.15272,1.75536 -1.15397,2.80592 7.5e-4,0.68406 0.17693,1.35651 0.51171,1.95306 -0.44745,0.70052 -1.02507,1.42058 -1.77729,2.14834 -0.25,0.24199 -0.57799,0.47199 -0.85798,0.70998 0.074,-0.92197 0.124,-1.85395 0.124,-2.81192 0,-2.79192 -0.33399,-5.44384 -0.94198,-7.86777 z m -11.05968,1.86794 c -3.31361,0 -5.99983,2.68622 -5.99983,5.99983 0,3.31361 2.68622,5.99983 5.99983,5.99983 3.31361,0 5.99983,-2.68622 5.99983,-5.99983 0,-3.31361 -2.68622,-5.99983 -5.99983,-5.99983 z m -11.87466,3.18751 c -0.074,0.92197 -0.124,1.85395 -0.124,2.81192 0,2.79212 0.33491,5.44405 0.94138,7.86698 -2.52733,-0.84998 -3.98709,-2.20594 -4.39508,-3.7279 -0.46279,-1.72795 0.35119,-3.94988 2.71872,-6.24182 0.2508,-0.24199 0.57779,-0.47199 0.85838,-0.70998 z m 17.66349,13.55422 c -0.15725,0.3343 -0.29513,0.71013 -0.46482,1.01559 -1.59996,2.87991 -3.5359,4.24187 -5.32385,4.24187 -1.5753,0 -3.26451,-1.06163 -4.73806,-3.2811 2.49772,-0.0412 5.14605,-0.40607 7.84357,-1.12887 0.92411,-0.24761 1.81305,-0.5371 2.68352,-0.84764 z"
       style="opacity:0.2;fill:#000000"
       id="path405"
       sodipodi:nodetypes="ccscccsccsscsccccccccccccccscsccccscccscsccccccccsccssssscscccccccscscc" />
    <path
       d="m 320.00061,151.00151 c -1.83146,0.002 -3.42774,1.24727 -3.87489,3.02331 -1.9977,1.09855 -3.67829,2.99672 -4.94526,5.27725 -0.87321,1.57177 -1.57391,3.3701 -2.10154,5.32025 -1.74551,1.01379 -3.3023,2.15674 -4.59367,3.4061 -2.98831,2.89132 -4.77106,6.54122 -3.80449,10.14811 0.96645,3.6069 4.33728,5.88063 8.37076,6.8904 0.47379,0.11862 0.96356,0.21744 1.4609,0.30467 0.21229,0.45599 0.43165,0.90274 0.66794,1.32809 2.02194,3.63589 5.08786,6.30182 8.82175,6.30182 3.73409,0 6.80081,-2.66573 8.82015,-6.30062 0.87321,-1.57178 1.57391,-3.37011 2.10154,-5.32025 1.74551,-1.01379 3.3023,-2.15674 4.59367,-3.4061 0.95269,-0.92176 1.76419,-1.92647 2.42173,-2.97652 0.0207,0.001 0.0413,0.003 0.062,0.004 2.20907,0 3.99988,-1.79081 3.99988,-3.99988 -0.002,-1.79357 -1.19821,-3.36633 -2.92591,-3.84789 -1.18997,-3.20991 -4.35388,-5.27385 -8.12377,-6.21783 -0.47399,-0.11999 -0.96397,-0.21799 -1.46196,-0.30599 -0.212,-0.45599 -0.43199,-0.90197 -0.66798,-1.32796 -1.26597,-2.27973 -2.94792,-4.17788 -4.94386,-5.27645 -0.44724,-1.7764 -2.04405,-3.02196 -3.87589,-3.02331 z m -2.65192,6.988 c 0.73056,0.6501 1.67398,1.01004 2.65192,1.01177 0.96899,-0.002 1.90422,-0.35614 2.63193,-0.99597 0.72439,0.53906 1.43879,1.27318 2.10534,2.27733 -2.49773,0.0412 -5.14606,0.40607 -7.84358,1.12887 -0.92411,0.24761 -1.81305,0.5371 -2.68352,0.84764 0.15725,-0.33431 0.29513,-0.71014 0.46482,-1.0156 0.82376,-1.48275 1.73593,-2.55452 2.67173,-3.2539 z m 7.10139,6.30062 c 0.76258,-0.0236 1.47282,0.0225 2.18354,0.0664 0.83398,2.48993 1.36596,5.44184 1.36596,8.64575 0,2.01514 -0.23357,3.91409 -0.58982,5.68744 -1.6202,0.80268 -3.39411,1.51767 -5.33965,2.03894 -3.09491,0.8293 -6.08243,1.07987 -8.70295,0.91793 -0.83598,-2.48793 -1.36796,-5.43984 -1.36796,-8.64375 0,-2.01514 0.23357,-3.91409 0.58982,-5.68744 1.6202,-0.80267 3.39411,-1.51767 5.33965,-2.03894 2.25554,-0.60436 4.47027,-0.92081 6.51941,-0.98435 z m 6.60921,0.84373 c 2.14774,0.7215 3.47851,1.81765 4.09369,3.06232 -0.73822,0.74747 -1.15272,1.75536 -1.15397,2.80591 7.5e-4,0.68407 0.17694,1.35652 0.51171,1.95307 -0.44745,0.70052 -1.02508,1.42058 -1.77729,2.14834 -0.25,0.24199 -0.57799,0.47199 -0.85798,0.70998 0.074,-0.92198 0.124,-1.85395 0.124,-2.81192 0,-2.79192 -0.33399,-5.44384 -0.94198,-7.86778 z m -11.05968,1.86795 c -3.31361,0 -5.99983,2.68621 -5.99983,5.99983 0,3.31361 2.68622,5.99983 5.99983,5.99983 3.31361,0 5.99983,-2.68622 5.99983,-5.99983 0,-3.31362 -2.68622,-5.99983 -5.99983,-5.99983 z m -11.87466,3.18751 c -0.074,0.92197 -0.124,1.85395 -0.124,2.81192 0,2.79212 0.33491,5.44404 0.94138,7.86697 -2.52733,-0.84997 -3.98709,-2.20593 -4.39508,-3.72789 -0.46279,-1.72795 0.35119,-3.94989 2.71872,-6.24182 0.2508,-0.24199 0.57779,-0.47199 0.85838,-0.70998 z m 17.6635,13.55421 c -0.15726,0.33431 -0.29514,0.71014 -0.46483,1.01559 -1.59996,2.87992 -3.5359,4.24188 -5.32385,4.24188 -1.57529,0 -3.26451,-1.06163 -4.73807,-3.2811 2.49773,-0.0412 5.14606,-0.40607 7.84358,-1.12887 0.92412,-0.24761 1.81305,-0.53711 2.68353,-0.84764 z"
       style="fill:#ffffff"
       id="path433"
       sodipodi:nodetypes="ccscccsccsscsccccccccccccccscsccccscccscsccccccccsccssssscsccccccsscscc" />
    <path
       d="m 320,151.00012 c -2.20908,0 -3.99989,1.79081 -3.99989,3.99988 0,2.20908 1.79081,3.99988 3.99989,3.99988 2.20908,0 3.99989,-1.7908 3.99989,-3.99988 0,-2.20907 -1.79081,-3.99988 -3.99989,-3.99988 z m 0,16.00005 c -3.31361,0 -5.99983,2.68621 -5.99983,5.99983 0,3.31361 2.68622,5.99983 5.99983,5.99983 3.31361,0 5.99983,-2.68622 5.99983,-5.99983 0,-3.31362 -2.68622,-5.99983 -5.99983,-5.99983 z m 18,-6e-5 c -2.20908,0 -3.99989,1.79081 -3.99989,3.99989 0,2.20907 1.79082,3.99988 3.99989,3.99988 2.20907,0 3.99988,-1.79081 3.99988,-3.99988 0,-2.20908 -1.79081,-3.99989 -3.99988,-3.99989 z"
       style="opacity:0.7;fill:#000000"
       id="path461"
       sodipodi:nodetypes="sssssssssssssss" />
  </g>
  <path
     d="M 16,4.0000002 C 9.3520066,4.0000002 4,9.352007 4,16 v 1 C 4,10.352007 9.3520066,5 16,5 h 32 c 6.647993,0 12,5.352007 12,12 V 16 C 60,9.352007 54.647993,4.0000002 48,4.0000002 Z"
     style="opacity:0.1;fill:#ffffff;stroke-width:4;stroke-linecap:square"
     id="path1040" />
</svg>
