<?xml version="1.0" encoding="UTF-8" standalone="no"?>
<!-- Created with Inkscape (http://www.inkscape.org/) -->

<svg
   width="64"
   height="64"
   viewBox="0 0 64 64"
   version="1.1"
   id="svg5"
   inkscape:version="1.3 (0e150ed6c4, 2023-07-21)"
   sodipodi:docname="applications-all.svg"
   xmlns:inkscape="http://www.inkscape.org/namespaces/inkscape"
   xmlns:sodipodi="http://sodipodi.sourceforge.net/DTD/sodipodi-0.dtd"
   xmlns="http://www.w3.org/2000/svg"
   xmlns:svg="http://www.w3.org/2000/svg">
  <sodipodi:namedview
     id="namedview7"
     pagecolor="#ffffff"
     bordercolor="#000000"
     borderopacity="0.25"
     inkscape:showpageshadow="2"
     inkscape:pageopacity="0.0"
     inkscape:pagecheckerboard="0"
     inkscape:deskcolor="#d1d1d1"
     inkscape:document-units="px"
     showgrid="false"
     inkscape:zoom="12.234375"
     inkscape:cx="31.959132"
     inkscape:cy="32"
     inkscape:window-width="1920"
     inkscape:window-height="984"
     inkscape:window-x="0"
     inkscape:window-y="29"
     inkscape:window-maximized="1"
     inkscape:current-layer="svg5" />
  <defs
     id="defs2" />
  <rect
     style="opacity:0.2;fill:#000000;stroke-width:4;stroke-linecap:square"
     id="rect234"
     width="56"
     height="56"
     x="4"
     y="5"
     ry="12" />
  <rect
     style="fill:#0090ef;fill-opacity:1;stroke-width:4;stroke-linecap:square"
     id="rect396"
     width="56"
     height="56"
     x="4"
     y="4"
     ry="12" />
  <path
     d="M 18.601562,17 C 17.161164,17 16,18.161164 16,19.601562 v 2.796876 C 16,23.838836 17.161164,25 18.601562,25 h 2.796876 C 22.838836,25 24,23.838836 24,22.398438 V 19.601562 C 24,18.161164 22.838836,17 21.398438,17 Z m 12,0 C 29.161164,17 28,18.161164 28,19.601562 v 2.796876 C 28,23.838836 29.161164,25 30.601562,25 h 2.796876 C 34.838836,25 36,23.838836 36,22.398438 V 19.601562 C 36,18.161164 34.838836,17 33.398438,17 Z m 12,0 C 41.161164,17 40,18.161164 40,19.601562 v 2.796876 C 40,23.838836 41.161164,25 42.601562,25 h 2.796876 C 46.838836,25 48,23.838836 48,22.398438 V 19.601562 C 48,18.161164 46.838836,17 45.398438,17 Z m -24,12 C 17.161164,29 16,30.161164 16,31.601562 v 2.796876 C 16,35.838836 17.161164,37 18.601562,37 h 2.796876 C 22.838836,37 24,35.838836 24,34.398438 V 31.601562 C 24,30.161164 22.838836,29 21.398438,29 Z m 12,0 C 29.161164,29 28,30.161164 28,31.601562 v 2.796876 C 28,35.838836 29.161164,37 30.601562,37 h 2.796876 C 34.838836,37 36,35.838836 36,34.398438 V 31.601562 C 36,30.161164 34.838836,29 33.398438,29 Z m 12,0 C 41.161164,29 40,30.161164 40,31.601562 v 2.796876 C 40,35.838836 41.161164,37 42.601562,37 h 2.796876 C 46.838836,37 48,35.838836 48,34.398438 V 31.601562 C 48,30.161164 46.838836,29 45.398438,29 Z m -24,12 C 17.161164,41 16,42.161164 16,43.601562 v 2.796876 C 16,47.838836 17.161164,49 18.601562,49 h 2.796876 C 22.838836,49 24,47.838836 24,46.398438 V 43.601562 C 24,42.161164 22.838836,41 21.398438,41 Z m 12,0 C 29.161164,41 28,42.161164 28,43.601562 v 2.796876 C 28,47.838836 29.161164,49 30.601562,49 h 2.796876 C 34.838836,49 36,47.838836 36,46.398438 V 43.601562 C 36,42.161164 34.838836,41 33.398438,41 Z m 12,0 C 41.161164,41 40,42.161164 40,43.601562 v 2.796876 C 40,47.838836 41.161164,49 42.601562,49 h 2.796876 C 46.838836,49 48,47.838836 48,46.398438 V 43.601562 C 48,42.161164 46.838836,41 45.398438,41 Z"
     style="opacity:0.2;fill:#000000;stroke-width:2"
     id="path1-3" />
  <path
     d="M 18.601562,16 C 17.161164,16 16,17.161164 16,18.601562 v 2.796876 C 16,22.838836 17.161164,24 18.601562,24 h 2.796876 C 22.838836,24 24,22.838836 24,21.398438 V 18.601562 C 24,17.161164 22.838836,16 21.398438,16 Z m 12,0 C 29.161164,16 28,17.161164 28,18.601562 v 2.796876 C 28,22.838836 29.161164,24 30.601562,24 h 2.796876 C 34.838836,24 36,22.838836 36,21.398438 V 18.601562 C 36,17.161164 34.838836,16 33.398438,16 Z m 12,0 C 41.161164,16 40,17.161164 40,18.601562 v 2.796876 C 40,22.838836 41.161164,24 42.601562,24 h 2.796876 C 46.838836,24 48,22.838836 48,21.398438 V 18.601562 C 48,17.161164 46.838836,16 45.398438,16 Z m -24,12 C 17.161164,28 16,29.161164 16,30.601562 v 2.796876 C 16,34.838836 17.161164,36 18.601562,36 h 2.796876 C 22.838836,36 24,34.838836 24,33.398438 V 30.601562 C 24,29.161164 22.838836,28 21.398438,28 Z m 12,0 C 29.161164,28 28,29.161164 28,30.601562 v 2.796876 C 28,34.838836 29.161164,36 30.601562,36 h 2.796876 C 34.838836,36 36,34.838836 36,33.398438 V 30.601562 C 36,29.161164 34.838836,28 33.398438,28 Z m 12,0 C 41.161164,28 40,29.161164 40,30.601562 v 2.796876 C 40,34.838836 41.161164,36 42.601562,36 h 2.796876 C 46.838836,36 48,34.838836 48,33.398438 V 30.601562 C 48,29.161164 46.838836,28 45.398438,28 Z m -24,12 C 17.161164,40 16,41.161164 16,42.601562 v 2.796876 C 16,46.838836 17.161164,48 18.601562,48 h 2.796876 C 22.838836,48 24,46.838836 24,45.398438 V 42.601562 C 24,41.161164 22.838836,40 21.398438,40 Z m 12,0 C 29.161164,40 28,41.161164 28,42.601562 v 2.796876 C 28,46.838836 29.161164,48 30.601562,48 h 2.796876 C 34.838836,48 36,46.838836 36,45.398438 V 42.601562 C 36,41.161164 34.838836,40 33.398438,40 Z m 12,0 C 41.161164,40 40,41.161164 40,42.601562 v 2.796876 C 40,46.838836 41.161164,48 42.601562,48 h 2.796876 C 46.838836,48 48,46.838836 48,45.398438 V 42.601562 C 48,41.161164 46.838836,40 45.398438,40 Z"
     style="fill:#ffffff;stroke-width:2"
     id="path1" />
  <path
     id="path1040"
     style="opacity:0.2;fill:#ffffff;stroke-width:4;stroke-linecap:square"
     d="M 16,4 C 9.3520132,4 4,9.3520136 4,16 v 1 C 4,10.352014 9.3520132,5 16,5 h 32 c 6.647986,0 12,5.352014 12,12 V 16 C 60,9.3520136 54.647986,4 48,4 Z" />
</svg>
