<?xml version="1.0" encoding="UTF-8" standalone="no"?>
<!-- Created with Inkscape (http://www.inkscape.org/) -->

<svg
   width="64"
   height="64"
   viewBox="0 0 64 64"
   version="1.1"
   id="svg5"
   inkscape:version="1.3 (0e150ed6c4, 2023-07-21)"
   sodipodi:docname="BadlionClient.svg"
   xmlns:inkscape="http://www.inkscape.org/namespaces/inkscape"
   xmlns:sodipodi="http://sodipodi.sourceforge.net/DTD/sodipodi-0.dtd"
   xmlns="http://www.w3.org/2000/svg"
   xmlns:svg="http://www.w3.org/2000/svg">
  <sodipodi:namedview
     id="namedview7"
     pagecolor="#ffffff"
     bordercolor="#000000"
     borderopacity="0.25"
     inkscape:showpageshadow="2"
     inkscape:pageopacity="0.0"
     inkscape:pagecheckerboard="0"
     inkscape:deskcolor="#d1d1d1"
     inkscape:document-units="px"
     showgrid="false"
     inkscape:zoom="12.546875"
     inkscape:cx="32"
     inkscape:cy="32"
     inkscape:window-width="1850"
     inkscape:window-height="1011"
     inkscape:window-x="70"
     inkscape:window-y="32"
     inkscape:window-maximized="1"
     inkscape:current-layer="svg5" />
  <defs
     id="defs2" />
  <rect
     style="opacity:0.2;fill:#000000;stroke-width:4;stroke-linecap:square"
     id="rect234"
     width="56"
     height="56"
     x="4"
     y="5"
     ry="12" />
  <rect
     style="fill:#10a5f1;stroke-width:4;stroke-linecap:square;fill-opacity:1"
     id="rect396"
     width="56"
     height="56"
     x="4"
     y="4"
     ry="12" />
  <path
     style="opacity:0.1;fill:#000000"
     d="m 33.345101,52.999996 c -0.370468,-1.062554 -0.851276,-2.831608 -1.07568,-0.743798 -0.1877,1.251154 -0.540322,-1.939822 -0.856116,-0.0026 -0.19412,0.342564 -0.11888,-2.446494 -0.721072,-0.878996 -0.15304,2.05759 -1.617154,0.7599 -2.046332,-0.1037 -0.402292,1.461538 -0.10262,-0.98656 -0.700082,0.316554 -1.292344,2.20953 -0.322266,-3.235338 -1.729476,-0.855932 -0.87303,1.38678 -0.400062,-0.619846 -1.216354,-0.533036 -1.076208,0.90534 -0.905056,-1.381592 -2.265292,-0.883262 -0.522748,-0.7807 -0.861873,-2.558788 -2.027185,-1.905532 0.378752,-1.41559 -1.275592,-2.535982 -2.09272,-3.211486 -0.926851,0.427562 -1.464227,0.347664 -0.879916,-0.726924 0.476402,-1.052594 -0.32192,-1.742932 -0.370523,-2.81627 -1.331494,4.56e-4 0.451735,-1.983664 -1.284322,-1.588428 -0.175044,-0.660392 1.54737,-1.783552 -0.243384,-1.792858 -0.684488,-0.448395 1.548172,-1.486509 -0.150463,-1.133667 1.005616,-0.521386 -1.430985,-1.398118 -0.44713,-2.072444 1.775956,-0.444652 -0.228643,-1.127856 0.123264,-1.211778 1.065044,-0.334622 -0.788628,-0.776898 0.420154,-0.978424 -0.352737,-0.88531 -1.072966,-1.14688 -0.346749,-2.203954 -0.176473,-1.054432 -0.779988,-2.30495 0.114268,-3.186196 -0.485976,-0.832214 -0.81292,-1.067136 0.167034,-1.569564 0.03553,-1.548498 0.804424,-3.173364 0.82814,-4.649636 1.31097,-0.942218 1.662511,-3.020431 3.417967,-3.313366 1.241566,-1.047186 3.368221,-0.909607 4.717987,-1.661671 0.52841,0.508464 1.62043,-0.363588 1.944142,-0.288396 0.783346,1.073236 2.67793,-0.839778 3.480424,0.812721 0.782712,0.835172 1.02449,-1.50087 1.562376,-0.03019 0.639938,1.009494 1.550852,-1.304965 2.287784,0.0086 1.87558,-0.135448 3.76456,-0.309591 5.617182,-0.608883 0.31975,1.351624 2.058952,-1.149266 1.674414,0.726812 1.487119,0.611851 3.412163,0.508705 4.283081,2.087141 0.706972,0.921022 2.290136,2.048212 1.724644,2.970652 1.113738,0.254066 0.796338,0.86164 0.673366,1.515734 -0.255228,1.016286 0.97824,1.88761 0.3471,2.848456 1.18837,0.95702 -0.730936,1.906992 0.573284,2.909042 0.680568,0.634804 -1.206496,0.573112 -0.39072,1.660742 0.833568,1.016046 -0.36398,1.088912 -0.38007,2.038686 1.46912,0.03278 -0.98493,0.708374 0.609686,1.055252 -1.613946,10e-4 -0.126,1.02048 0.02338,1.451094 -0.231802,0.845358 -1.104284,1.372862 -0.633494,1.754106 -1.843528,-0.614666 1.353054,1.259505 -0.69632,1.266469 -1.016618,0.17194 1.58534,1.96793 -0.337164,1.657874 -0.712924,0.364172 0.82847,1.61306 -0.633584,1.532322 -0.13176,0.844996 -0.275068,1.615294 -0.860306,2.093394 0.19012,0.910638 0.988628,2.695858 -0.713424,1.747748 -0.746078,-0.285808 -1.855786,0.938732 -1.919054,1.674974 0.238026,0.87637 0.361606,1.712514 -0.747275,0.933132 -1.309708,0.19634 -0.598686,2.525858 -2.347916,1.973286 -0.402722,0.991286 -0.763026,1.000608 -1.626132,0.784966 -0.03454,1.165518 -0.20877,2.436744 -1.1816,0.962536 -0.876936,-1.334896 -0.476988,2.094948 -1.352392,0.436064 -0.908028,-1.696188 -0.0174,2.110456 -0.805094,0.292432 -0.277308,0.820586 -0.804012,1.283248 -1.512322,1.440204 z"
     id="path3" />
  <path
     style="fill:#2c2c2c"
     d="m 33.345101,51.999998 c -0.370468,-1.062554 -0.851276,-2.831608 -1.07568,-0.743798 -0.1877,1.251154 -0.540322,-1.939822 -0.856116,-0.0026 -0.19412,0.342564 -0.11888,-2.446494 -0.721072,-0.878996 -0.15304,2.05759 -1.617154,0.7599 -2.046332,-0.1037 -0.402292,1.461538 -0.10262,-0.98656 -0.700082,0.316554 -1.292344,2.20953 -0.322266,-3.235338 -1.729476,-0.855932 -0.87303,1.38678 -0.400062,-0.619846 -1.216354,-0.533036 -1.076208,0.90534 -0.905056,-1.381592 -2.265292,-0.883262 -0.522748,-0.7807 -0.861873,-2.558788 -2.027185,-1.905532 0.378752,-1.41559 -1.275592,-2.535982 -2.09272,-3.211486 -0.926851,0.427562 -1.464227,0.347664 -0.879916,-0.726924 0.476402,-1.052594 -0.32192,-1.742932 -0.370523,-2.81627 -1.331494,4.56e-4 0.451735,-1.983663 -1.284322,-1.588427 -0.175044,-0.660392 1.54737,-1.783552 -0.243384,-1.792858 -0.684488,-0.448396 1.548172,-1.48651 -0.150463,-1.133668 1.005616,-0.521386 -1.430985,-1.398118 -0.44713,-2.072444 1.775956,-0.444652 -0.228643,-1.127856 0.123264,-1.211778 1.065044,-0.334622 -0.788628,-0.776898 0.420154,-0.978424 -0.352737,-0.88531 -1.072966,-1.14688 -0.346749,-2.203954 -0.176473,-1.054432 -0.779988,-2.30495 0.114268,-3.186196 -0.485976,-0.832214 -0.81292,-1.067136 0.167034,-1.569564 0.03553,-1.548498 0.804424,-3.173364 0.82814,-4.649636 1.31097,-0.942218 1.662511,-3.020431 3.417967,-3.313366 1.241566,-1.047187 3.368221,-0.909607 4.717987,-1.661671 0.52841,0.508463 1.62043,-0.363588 1.944142,-0.288396 0.783346,1.073236 2.67793,-0.839779 3.480424,0.812721 0.782712,0.835172 1.02449,-1.50087 1.562376,-0.03019 0.639938,1.009494 1.550852,-1.304965 2.287784,0.0086 1.87558,-0.135448 3.76456,-0.309592 5.617182,-0.608884 0.31975,1.351624 2.058952,-1.149266 1.674414,0.726813 1.487119,0.61185 3.412163,0.508704 4.283081,2.08714 0.706972,0.921023 2.290136,2.048213 1.724644,2.970653 1.113738,0.254066 0.796338,0.86164 0.673366,1.515734 -0.255228,1.016286 0.97824,1.88761 0.3471,2.848456 1.18837,0.95702 -0.730936,1.906992 0.573284,2.909042 0.680568,0.634804 -1.206496,0.573112 -0.39072,1.660742 0.833568,1.016046 -0.36398,1.088912 -0.38007,2.038686 1.46912,0.03278 -0.98493,0.708374 0.609686,1.055252 -1.613946,0.001 -0.126,1.02048 0.02338,1.451094 -0.231802,0.845358 -1.104284,1.372862 -0.633494,1.754106 -1.843528,-0.614666 1.353054,1.259506 -0.69632,1.26647 -1.016618,0.17194 1.58534,1.967929 -0.337164,1.657874 -0.712924,0.364171 0.82847,1.613059 -0.633584,1.532321 -0.13176,0.844996 -0.275068,1.615294 -0.860306,2.093394 0.19012,0.910638 0.988628,2.695858 -0.713424,1.747748 -0.746078,-0.285808 -1.855786,0.938732 -1.919054,1.674974 0.238026,0.87637 0.361606,1.712514 -0.747275,0.933132 -1.309708,0.19634 -0.598686,2.525858 -2.347916,1.973286 -0.402722,0.991286 -0.763026,1.000608 -1.626132,0.784966 -0.03454,1.165518 -0.20877,2.436744 -1.1816,0.962536 -0.876936,-1.334896 -0.476988,2.094948 -1.352392,0.436064 -0.908028,-1.696188 -0.0174,2.110456 -0.805094,0.292432 C 34.580129,51.380382 34.053425,51.843044 33.345115,52 Z"
     id="path4" />
  <path
     style="opacity:0.2;fill:#000000"
     d="m 31.622091,22.002891 c -0.11566,0.0186 -0.237636,0.13474 -0.379092,0.434824 -1.058112,-1.588484 -1.448392,2.224634 -2.011702,0.1951 -0.508456,-1.381982 -0.16994,1.822616 -0.983106,0.35678 -0.836154,-1.31279 -1.438552,-0.6952 -2.10774,0.312182 -1.44671,0.49652 -2.965788,1.324058 -3.66201,2.965728 l -0.909815,1.151168 c -1.601572,0.854096 2.103613,2.70906 -0.419526,2.608948 0.932402,0.432856 1.365137,0.815844 0.1567,1.357432 -0.543718,0.925764 0.313858,1.884986 -0.305798,2.854238 0.347182,0.899438 2.031953,1.090112 0.336124,1.65289 -0.778692,0.405386 1.660219,0.0534 0.538308,0.872436 -1.934648,1.578127 0.960073,2.211255 1.271215,3.877185 1.547826,1.378926 3.398742,2.310006 5.105076,3.436786 0.760378,-0.962706 0.539464,-0.19506 0.97047,0.593702 0.51419,-0.783074 0.58178,-1.0046 0.89718,0.19234 0.324348,1.512562 1.645978,-1.115886 1.65283,0.905884 0.03626,0.599666 0.18716,-0.15184 0.318436,-0.270372 0.312606,-0.519848 1.123278,1.072766 1.197926,-0.42646 0.280266,-0.79672 0.685068,-2.332392 0.970466,-0.61879 0.62904,1.535118 0.1321,-1.762652 0.932564,-0.014 1.32814,-0.489664 2.67349,-1.645128 4.005716,-2.394322 0.596238,-0.408556 1.349044,-0.650018 1.539106,-1.485652 0.563478,-1.439606 3.030997,-2.311366 1.215614,-3.835373 -0.898988,-0.875184 1.898191,-0.38663 0.250197,-1.011804 -1.721311,-0.510762 1.867086,-1.01074 0.310856,-2.13789 0.672492,-0.335656 0.645128,-0.69156 -0.0531,-0.936542 1.661394,-1.242874 -2.183697,-1.826404 0.0152,-2.405474 0.88719,-0.502394 -1.886301,-0.07136 -0.303271,-1.167894 0.571305,-0.439436 0.720105,-1.24473 0.323489,-1.053614 l -0.745539,-0.956058 c -0.02612,-0.12524 -0.11116,-0.248022 -0.285582,-0.365142 -1.119116,-1.390234 -2.157904,-2.91309 -3.907106,-3.244506 -0.861296,-0.770252 -1.40533,-1.979122 -2.345302,-0.484998 -0.95351,1.411212 -0.508968,-2.006468 -1.076616,-0.15052 -0.414966,1.66424 -0.662674,-0.89497 -1.288904,-0.802752 -0.586734,0.744522 -0.876254,-0.06216 -1.223196,-0.0054 z"
     id="path5" />
  <path
     style="fill:#ffae15"
     d="m 31.622091,21.002893 c -0.11566,0.0186 -0.237636,0.13474 -0.379092,0.434824 -1.058112,-1.588483 -1.448392,2.224634 -2.011702,0.1951 -0.508456,-1.381982 -0.16994,1.822616 -0.983106,0.35678 -0.836154,-1.31279 -1.438552,-0.6952 -2.10774,0.312182 -1.44671,0.49652 -2.965788,1.324058 -3.66201,2.965728 l -0.909815,1.151168 c -1.601572,0.854096 2.103613,2.70906 -0.419526,2.608948 0.932402,0.432856 1.365137,0.815844 0.1567,1.357432 -0.543718,0.925764 0.313858,1.884986 -0.305798,2.854238 0.347182,0.899438 2.031953,1.090112 0.336124,1.65289 -0.778692,0.405386 1.660219,0.0534 0.538308,0.872436 -1.934648,1.578128 0.960073,2.211256 1.271215,3.877185 1.547826,1.378926 3.398742,2.310006 5.105076,3.436786 0.760378,-0.962706 0.539464,-0.19506 0.97047,0.593702 0.51419,-0.783074 0.58178,-1.0046 0.89718,0.19234 0.324348,1.512562 1.645978,-1.115886 1.65283,0.905884 0.03626,0.599666 0.18716,-0.15184 0.318436,-0.270372 0.312606,-0.519848 1.123278,1.072766 1.197926,-0.42646 0.280266,-0.79672 0.685068,-2.332392 0.970466,-0.61879 0.62904,1.535118 0.1321,-1.762652 0.932564,-0.014 1.32814,-0.489664 2.67349,-1.645128 4.005716,-2.394322 0.596238,-0.408556 1.349044,-0.650018 1.539106,-1.485652 0.563478,-1.439605 3.030997,-2.311365 1.215614,-3.835373 -0.898988,-0.875184 1.898191,-0.38663 0.250197,-1.011804 -1.721311,-0.510762 1.867086,-1.01074 0.310856,-2.13789 0.672492,-0.335656 0.645128,-0.69156 -0.0531,-0.936542 1.661394,-1.242874 -2.183697,-1.826404 0.0152,-2.405474 0.88719,-0.502394 -1.886301,-0.07136 -0.303271,-1.167894 0.571305,-0.439436 0.720105,-1.24473 0.323489,-1.053614 l -0.745539,-0.956058 c -0.02612,-0.12524 -0.11116,-0.248022 -0.285582,-0.365142 -1.119116,-1.390234 -2.157904,-2.91309 -3.907106,-3.244506 -0.861296,-0.770252 -1.40533,-1.979122 -2.345302,-0.484998 -0.95351,1.411212 -0.508968,-2.006467 -1.076616,-0.15052 -0.414966,1.66424 -0.662674,-0.89497 -1.288904,-0.802752 -0.586734,0.744522 -0.876254,-0.06216 -1.223196,-0.0054 z"
     id="path6" />
  <path
     style="opacity:0.2;fill:#ffffff"
     d="m 31.623048,21.00195 c -0.11566,0.0186 -0.239403,0.135463 -0.380859,0.435547 -1.058113,-1.588483 -1.448409,2.224846 -2.011719,0.195312 -0.508456,-1.381982 -0.169256,1.823258 -0.982422,0.357422 -0.836154,-1.31279 -1.438234,-0.694882 -2.107422,0.3125 -1.44671,0.49652 -2.965887,1.323174 -3.662109,2.964844 l -0.910157,1.150391 c -0.565999,0.301839 -0.46527,0.729015 -0.214843,1.15039 0.05786,-0.05246 0.12687,-0.103475 0.214843,-0.15039 l 0.910157,-1.150391 c 0.696222,-1.64167 2.215399,-2.468324 3.662109,-2.964844 0.669188,-1.007382 1.271268,-1.62529 2.107422,-0.3125 0.813166,1.465836 0.473966,-1.739404 0.982422,-0.357422 0.56331,2.029534 0.953606,-1.783795 2.011719,-0.195312 0.141456,-0.300084 0.265199,-0.416947 0.380859,-0.435547 v 0.002 c 0.346942,-0.05676 0.635922,0.748428 1.222656,0.0039 0.62623,-0.09222 0.874097,2.466975 1.289063,0.802735 0.567648,-1.855947 0.122661,1.561602 1.076172,0.150391 0.939971,-1.494124 1.484407,-0.283924 2.345703,0.486328 1.749202,0.331416 2.787134,1.853906 3.90625,3.24414 0.174422,0.11712 0.259036,0.239995 0.285156,0.365235 l 0.632812,0.810547 c 0.390483,-0.443568 0.455346,-1.020299 0.113282,-0.855469 l -0.746094,-0.955078 c -0.02612,-0.12524 -0.110734,-0.248115 -0.285156,-0.365235 -1.119116,-1.390234 -2.157048,-2.912724 -3.90625,-3.24414 -0.861296,-0.770252 -1.405732,-1.980453 -2.345703,-0.486328 -0.953511,1.411211 -0.508524,-2.006338 -1.076172,-0.150391 -0.414966,1.66424 -0.662833,-0.894952 -1.289063,-0.802735 -0.586734,0.744522 -0.875714,-0.06067 -1.222656,-0.0039 z m 10.699219,7.925781 c -0.0473,0.0482 -0.09505,0.0961 -0.150391,0.138672 -0.613146,0.424715 -0.571885,0.619134 -0.34375,0.728516 -0.136697,-0.200194 -0.03607,-0.380799 0.646484,-0.560547 0.343915,-0.19475 0.136904,-0.249065 -0.152343,-0.306641 z m -20.669922,0.08008 c -0.131709,0.01805 -0.288832,0.02806 -0.503906,0.01953 0.59827,0.277739 0.989713,0.536377 0.875,0.828125 0.122993,-0.184236 -0.113117,-0.497366 -0.371094,-0.847657 z m -0.08008,1.240235 c -0.08168,0.04533 -0.159332,0.08908 -0.265625,0.136719 -0.255797,0.435533 -0.20149,0.878267 -0.136719,1.326172 0.02986,-0.108854 0.0733,-0.218192 0.136719,-0.326172 1.000119,-0.448226 0.866646,-0.787583 0.265625,-1.136719 z m 20.789062,0.02148 c -1.191807,0.353299 -0.243308,0.713507 0.263672,1.228516 0.534503,-0.509106 0.147044,-0.89948 -0.263672,-1.228516 z m 0.5,1.578125 c 0.06703,0.201763 0.0165,0.425948 -0.261719,0.677735 0.418004,-0.233926 0.505691,-0.474359 0.261719,-0.677735 z m -0.33789,0.738282 c -0.02169,0.01764 -0.04051,0.03482 -0.06445,0.05273 0.101703,0.03568 0.184666,0.07525 0.257813,0.115234 -0.05289,-0.05473 -0.114663,-0.10999 -0.193359,-0.167968 z m -21.339844,0.224609 c -0.03634,0.142783 -0.09198,0.28639 -0.183594,0.429687 0.05041,0.130593 0.130293,0.243639 0.222656,0.347657 0.02744,-0.260302 -0.0019,-0.519736 -0.03906,-0.777344 z m 21.679687,0.529297 c -0.08105,0.07858 -0.195206,0.158287 -0.351562,0.236328 0.03561,0.02579 0.05559,0.04908 0.08594,0.07422 0.115107,-0.09685 0.211002,-0.199077 0.265625,-0.310547 z m -0.46289,1.460937 c -0.406346,0.286896 -0.858015,0.51718 -0.59375,0.734375 -0.288196,-0.56925 1.584904,-0.302715 0.59375,-0.734375 z m -20.914063,0.03711 c -0.04959,0.01814 -0.09332,0.03575 -0.15039,0.05469 -0.479212,0.249477 0.258602,0.212635 0.636718,0.337891 -0.11239,-0.114969 -0.301669,-0.242109 -0.486328,-0.392578 z m 20.851563,1.291015 c -0.377294,0.06543 -0.828585,0.165537 -0.386719,0.595703 0.2487,0.208783 0.409826,0.406313 0.513672,0.59375 0.191337,-0.368822 0.205545,-0.753828 -0.126953,-1.189453 z m -20.837889,0.0078 c -0.36375,0.440087 -0.338351,0.808024 -0.123047,1.158203 0.105878,-0.165643 0.265784,-0.341789 0.498047,-0.53125 0.681182,-0.497288 0.05198,-0.561422 -0.375,-0.626953 z"
     id="path7" />
  <path
     style="fill:#2c2c2c"
     d="m 19.274904,22.911761 -1.03483,0.962096 5.759927,5.596642 v 2.122102 l 6,-1.407406 v -1.185196 h 4 v 1.185196 l 6,1.407406 v -2.122102 l 5.759927,-5.596642 -1.034834,-0.962096 -4.725093,4.497106 v -1.445892 l -6,1.407406 v 0.629618 h -4 v -0.629618 l -6,-1.407406 v 1.445892 z"
     id="path8" />
  <path
     style="fill:#2c2c2c"
     d="m 27.750001,33.999997 c 0,0 2.452419,1.550046 3.757812,2.371094 v 2.677734 c -0.481235,0.874428 -2.497355,0.612942 -2.912109,1.478516 1.046182,-0.09214 1.954654,-0.467332 2.972656,-0.71875 1.139842,-0.005 2.369657,0.598337 3.535157,0.654297 0.434526,-0.537586 -2.339566,-0.763195 -3.107422,-1.220703 0.02232,-0.953427 0.07227,-2.861329 0.07227,-2.861329 l 4.181636,-2.380859 z m -0.117188,2.300781 c -0.184928,0.0094 -0.332031,0.162343 -0.332031,0.34961 0,0.193298 0.156305,0.349609 0.34961,0.349609 0.193299,0 0.349609,-0.156319 0.349609,-0.349609 0,-0.193298 -0.156302,-0.34961 -0.349609,-0.34961 -0.006,0 -0.01161,-3.02e-4 -0.01758,0 z m 1,0 c -0.184928,0.0094 -0.332031,0.162343 -0.332031,0.34961 0,0.193298 0.156305,0.349609 0.34961,0.349609 0.193299,0 0.349609,-0.156319 0.349609,-0.349609 0,-0.193298 -0.156304,-0.34961 -0.349609,-0.34961 -0.006,0 -0.01161,-3.02e-4 -0.01758,0 z m 1,0 c -0.184928,0.0094 -0.332031,0.162343 -0.332031,0.34961 0,0.193298 0.156305,0.349609 0.34961,0.349609 0.193299,0 0.349609,-0.156319 0.349609,-0.349609 0,-0.193298 -0.156302,-0.34961 -0.349609,-0.34961 -0.006,0 -0.01161,-3.02e-4 -0.01758,0 z m 4,0 c -0.184928,0.0094 -0.332031,0.162343 -0.332031,0.34961 0,0.193298 0.156305,0.349609 0.34961,0.349609 0.193299,0 0.349609,-0.156319 0.349609,-0.349609 0,-0.193298 -0.156302,-0.34961 -0.349609,-0.34961 -0.006,0 -0.01161,-3.02e-4 -0.01758,0 z m 1,0 c -0.184928,0.0094 -0.332031,0.162343 -0.332031,0.34961 0,0.193298 0.156305,0.349609 0.34961,0.349609 0.193299,0 0.349609,-0.156319 0.349609,-0.349609 0,-0.193298 -0.156304,-0.34961 -0.349609,-0.34961 -0.006,0 -0.01161,-3.02e-4 -0.01758,0 z m 1,0 c -0.184928,0.0094 -0.332031,0.162343 -0.332031,0.34961 0,0.193298 0.156305,0.349609 0.34961,0.349609 0.193299,0 0.349609,-0.156319 0.349609,-0.349609 0,-0.193298 -0.156302,-0.34961 -0.349609,-0.34961 -0.006,0 -0.01161,-3.02e-4 -0.01758,0 z m -8,1 c -0.184928,0.0094 -0.332031,0.162343 -0.332031,0.34961 0,0.193298 0.156305,0.349609 0.34961,0.349609 0.193299,0 0.349609,-0.156319 0.349609,-0.349609 0,-0.193298 -0.156302,-0.34961 -0.349609,-0.34961 -0.006,0 -0.01161,-3.02e-4 -0.01758,0 z m 1,0 c -0.184928,0.0094 -0.332031,0.162343 -0.332031,0.34961 0,0.193298 0.156305,0.349609 0.34961,0.349609 0.193299,0 0.349609,-0.156319 0.349609,-0.349609 0,-0.193298 -0.156304,-0.34961 -0.349609,-0.34961 -0.006,0 -0.01161,-3.02e-4 -0.01758,0 z m 1,0 c -0.184928,0.0094 -0.332031,0.162343 -0.332031,0.34961 0,0.193298 0.156305,0.349609 0.34961,0.349609 0.193299,0 0.349609,-0.156319 0.349609,-0.349609 0,-0.193298 -0.156302,-0.34961 -0.349609,-0.34961 -0.006,0 -0.01161,-3.02e-4 -0.01758,0 z m 4,0 c -0.184928,0.0094 -0.332031,0.162343 -0.332031,0.34961 0,0.193298 0.156305,0.349609 0.34961,0.349609 0.193299,0 0.349609,-0.156319 0.349609,-0.349609 0,-0.193298 -0.156302,-0.34961 -0.349609,-0.34961 -0.006,0 -0.01161,-3.02e-4 -0.01758,0 z m 1,0 c -0.184928,0.0094 -0.332031,0.162343 -0.332031,0.34961 0,0.193298 0.156305,0.349609 0.34961,0.349609 0.193299,0 0.349609,-0.156319 0.349609,-0.349609 0,-0.193298 -0.156304,-0.34961 -0.349609,-0.34961 -0.006,0 -0.01161,-3.02e-4 -0.01758,0 z m 1,0 c -0.184928,0.0094 -0.332031,0.162343 -0.332031,0.34961 0,0.193298 0.156305,0.349609 0.34961,0.349609 0.193299,0 0.349609,-0.156319 0.349609,-0.349609 0,-0.193298 -0.156302,-0.34961 -0.349609,-0.34961 -0.006,0 -0.01161,-3.02e-4 -0.01758,0 z m -7,1 c -0.184928,0.0094 -0.332031,0.162343 -0.332031,0.34961 0,0.193298 0.156305,0.349609 0.34961,0.349609 0.193299,0 0.349609,-0.156319 0.349609,-0.349609 0,-0.193298 -0.156304,-0.34961 -0.349609,-0.34961 -0.006,0 -0.01161,-3.02e-4 -0.01758,0 z m 6,0 c -0.184928,0.0094 -0.332031,0.162343 -0.332031,0.34961 0,0.193298 0.156305,0.349609 0.34961,0.349609 0.193299,0 0.349609,-0.156319 0.349609,-0.349609 0,-0.193298 -0.156304,-0.34961 -0.349609,-0.34961 -0.006,0 -0.01161,-3.02e-4 -0.01758,0 z"
     id="path9" />
  <path
     d="M 16,4.0000002 C 9.3520066,4.0000002 4,9.352007 4,16 v 1 C 4,10.352007 9.3520066,5 16,5 h 32 c 6.647993,0 12,5.352007 12,12 V 16 C 60,9.352007 54.647993,4.0000002 48,4.0000002 Z"
     style="opacity:0.2;fill:#ffffff;stroke-width:4;stroke-linecap:square"
     id="path1040" />
</svg>
