<?xml version="1.0" encoding="UTF-8" standalone="no"?>
<!-- Created with Inkscape (http://www.inkscape.org/) -->

<svg
   width="64"
   height="64"
   viewBox="0 0 64 64"
   version="1.1"
   id="svg5"
   inkscape:version="1.2.2 (1:1.2.2+202305151914+b0a8486541)"
   sodipodi:docname="brave-browser-nightly.svg"
   xmlns:inkscape="http://www.inkscape.org/namespaces/inkscape"
   xmlns:sodipodi="http://sodipodi.sourceforge.net/DTD/sodipodi-0.dtd"
   xmlns="http://www.w3.org/2000/svg"
   xmlns:svg="http://www.w3.org/2000/svg">
  <sodipodi:namedview
     id="namedview7"
     pagecolor="#ffffff"
     bordercolor="#000000"
     borderopacity="0.25"
     inkscape:showpageshadow="2"
     inkscape:pageopacity="0.0"
     inkscape:pagecheckerboard="0"
     inkscape:deskcolor="#d1d1d1"
     inkscape:document-units="px"
     showgrid="false"
     inkscape:zoom="12.59375"
     inkscape:cx="32"
     inkscape:cy="32"
     inkscape:window-width="1920"
     inkscape:window-height="1008"
     inkscape:window-x="0"
     inkscape:window-y="0"
     inkscape:window-maximized="1"
     inkscape:current-layer="svg5" />
  <defs
     id="defs2" />
  <rect
     style="opacity:0.2;fill:#000000;stroke-width:4;stroke-linecap:square"
     id="rect234"
     width="56"
     height="56"
     x="4"
     y="5"
     ry="12" />
  <rect
     style="fill:#efefef;stroke-width:4;stroke-linecap:square;fill-opacity:1"
     id="rect396"
     width="56"
     height="56"
     x="4"
     y="4"
     ry="12" />
  <path
     id="path2593"
     style="opacity:0.2;fill:#000000;stroke-width:2.00002"
     d="m 25.35742,12 -3.5332,4.54492 c -0.047,0.016 -0.39293,-0.27221 -0.76953,-0.38281 -1.0096,-0.29662 -2.29131,-0.24718 -3.16211,0.14844 -0.5696,0.25879 -0.78993,0.44046 -2.14453,1.77148 C 14.28785,19.51647 14,19.69538 14,20 c 0,0.079 0.52731,1.01612 0.78711,1.61914 l 0.4707,1.0957 -0.60546,1.66211 c -0.3328,0.91342 -0.62023,1.71064 -0.64063,1.77344 -0.0516,0.1602 4.67683,17.41789 4.92383,18.0039 0.4484,1.06402 1.15321,2.02072 2.06641,2.80274 0.82459,0.706 9.19153,6.41589 10.01953,6.83789 0.246,0.126 0.64051,0.19706 0.97851,0.20508 0.338,-0.008 0.73252,-0.0791 0.97852,-0.20508 0.828,-0.422 9.19553,-6.13189 10.01953,-6.83789 0.914,-0.78202 1.61841,-1.73872 2.06641,-2.80274 0.248,-0.58601 4.97582,-17.8437 4.92382,-18.0039 -0.02,-0.0628 -0.30857,-0.86002 -0.64257,-1.77344 l -0.60352,-1.66211 0.46875,-1.0957 C 49.47094,21.01612 50,20.079 50,20 c 0,-0.30462 -0.28805,-0.48353 -1.74804,-1.91797 -1.356,-1.33102 -1.57649,-1.51269 -2.14649,-1.77148 -0.87,-0.39562 -2.15211,-0.44506 -3.16211,-0.14844 -0.376,0.1106 -0.72158,0.39821 -0.76758,0.38281 L 38.64258,12 Z" />
  <path
     id="path2565"
     style="fill:#ab47bc;stroke-width:2.00002;fill-opacity:1"
     d="m 25.35742,11 -3.5332,4.54492 c -0.047,0.016 -0.39293,-0.27416 -0.76953,-0.38476 -1.0096,-0.29662 -2.29131,-0.24523 -3.16211,0.15039 -0.5696,0.2588 -0.78993,0.44046 -2.14453,1.77148 C 14.28785,18.51647 14,18.69538 14,19 c 0,0.079 0.52731,1.01417 0.78711,1.61719 l 0.4707,1.09765 -0.60547,1.66211 c -0.3328,0.91342 -0.62022,1.71064 -0.64062,1.77344 -0.0516,0.1602 4.67683,17.41789 4.92383,18.00391 0.4484,1.06402 1.1532,2.01876 2.0664,2.80078 0.8246,0.706 9.19154,6.41784 10.01953,6.83984 0.246,0.126 0.64052,0.19706 0.97852,0.20508 0.338,-0.008 0.73252,-0.0791 0.97852,-0.20508 0.82799,-0.422 9.19553,-6.13384 10.01953,-6.83984 0.914,-0.78202 1.6184,-1.73676 2.0664,-2.80078 0.248,-0.58602 4.97583,-17.84371 4.92383,-18.00391 -0.02,-0.0628 -0.30858,-0.86002 -0.64258,-1.77344 l -0.60351,-1.66211 0.4707,-1.09765 C 49.47289,20.01417 50,19.079 50,19 c 0,-0.30462 -0.28805,-0.48353 -1.74805,-1.91797 -1.356,-1.33102 -1.57648,-1.51268 -2.14648,-1.77148 -0.87,-0.39562 -2.15211,-0.44701 -3.16211,-0.15039 -0.376,0.1106 -0.72158,0.40016 -0.76758,0.38476 L 38.64258,11 Z"
     sodipodi:nodetypes="cccscsccccsccccccccccscccccc" />
  <path
     d="m 36.82649,40.65051 c 0.86202,-0.62801 0.99802,-0.78802 0.85602,-1.01002 -0.112,-0.17801 -2.88807,-1.57004 -4.2161,-2.11405 -1.39403,-0.57402 -1.54204,-0.57402 -2.89607,-0.008 -1.21403,0.50201 -3.94569,1.88004 -4.1749,2.10605 -0.2368,0.232 -0.1176,0.44601 0.47902,0.85802 1.72584,0.80202 3.12587,2.51806 5.12392,2.51806 2.00204,0 3.17607,-1.49004 4.82811,-2.35006 z m -9.68603,-2.71006 c 1.66584,-0.79802 1.91585,-0.96402 3.18788,-2.11405 1.07202,-0.96602 1.27003,-1.25403 1.11802,-1.62004 -0.052,-0.124 -0.85602,-0.88202 -1.78804,-1.68204 -2.20285,-1.89404 -2.11065,-1.62804 -1.27203,-3.68209 0.49801,-1.22043 0.62602,-1.62884 0.62602,-1.96704 -0.004,-0.51102 -0.19001,-0.89482 -0.56402,-1.15983 -0.15,-0.1082 -1.48143,-0.65462 -2.95627,-1.21623 -1.47483,-0.56161 -2.67306,-1.05782 -2.66266,-1.10343 0.0236,-0.1042 1.65004,-0.2842 2.83067,-0.3144 l 0.89302,-0.0226 1.64124,0.58501 c 1.43403,0.51001 1.65804,0.61441 1.76604,0.82182 0.068,0.1308 0.122,0.30621 0.12,0.39001 0,0.084 -0.26601,1.29643 -0.59001,2.69446 -0.56602,2.44826 -0.58202,2.54826 -0.43401,2.69827 0.234,0.236 2.52406,0.78801 3.23807,0.73201 0.81602,-0.062 2.48406,-0.57201 2.65407,-0.74201 0.136,-0.13801 0.11,-0.29401 -0.44401,-2.68887 -0.32401,-1.39803 -0.59002,-2.61066 -0.59202,-2.69446 0,-0.084 0.054,-0.26001 0.122,-0.39161 0.10801,-0.20701 0.32001,-0.30901 1.59604,-0.76362 2.05605,-0.73382 2.01405,-0.72782 3.88209,-0.55861 0.87203,0.0794 1.62004,0.177 1.66404,0.2178 0.044,0.0452 -0.006,0.10661 -0.128,0.15341 -0.114,0.0454 -1.31603,0.50401 -2.67206,1.02282 -1.35803,0.51921 -2.61006,1.03743 -2.78407,1.15223 -0.40801,0.2698 -0.60801,0.65521 -0.61001,1.18423 -0.002,0.3348 0.126,0.74001 0.61201,1.92144 0.33601,0.82322 0.61202,1.57524 0.61202,1.66924 0,0.38201 -0.27801,0.69002 -1.82605,2.01805 -0.89002,0.76402 -1.68004,1.50003 -1.75604,1.63804 -0.074,0.136 -0.118,0.34601 -0.096,0.46401 0.04,0.204 1.10603,1.25403 2.19005,2.16005 0.45601,0.38001 3.21608,2.14205 3.65809,2.21205 0.37001,0.06 0.76602,-0.50201 1.41403,-1.05002 0.63602,-0.53802 1.01403,-1.07403 1.27003,-1.80405 0.24201,-0.68401 0.18201,-1.14602 -0.29601,-2.25405 -0.364,-0.84602 -0.46001,-1.31203 -0.338,-1.62804 0.028,-0.076 1.01402,-1.02402 2.19005,-2.11405 2.56206,-2.37445 3.17407,-2.79966 3.31408,-3.22387 0.156,-0.47101 0.046,-1.09123 -0.30401,-1.71524 -0.83802,-1.49224 -4.3161,-6.16475 -4.61211,-6.16475 -1.52204,0.24781 -2.79407,0.79722 -4.3981,1.04962 -0.12601,2e-4 -0.66202,-0.1338 -1.19203,-0.2978 C 33.1664,19.053 32.43439,19.0002 31.99638,19.0002 c -0.43601,0 -1.17003,0.0528 -3.42808,0.75202 -0.52802,0.164 -1.07063,0.2978 -1.20363,0.2978 C 25.78483,19.81722 24.6136,19.19 22.97816,19 c -0.255,0.1724 -2.51726,3.33748 -3.45388,4.72031 -1.10142,1.62624 -1.41283,1.83545 -1.50243,2.45446 -0.12521,0.86662 0.1934,1.01242 3.48408,4.0555 1.10682,1.02202 2.03505,1.91804 2.06265,1.99004 0.1234,0.32001 0.0258,0.80402 -0.33301,1.65204 -0.49301,1.16203 -0.53721,1.48604 -0.29921,2.18805 0.25861,0.76402 0.69722,1.38004 1.35963,1.91405 0.61602,0.49601 0.85442,0.99202 1.21783,1.00002 0.13001,0.004 0.86202,-0.66801 1.62664,-1.03402 z"
     style="opacity:0.2;fill:#000000;stroke-width:2.00005"
     id="path2708"
     sodipodi:nodetypes="ccccccsccccccccscccccccccccccccccccccscccccccccccccccscccscccccccc" />
  <path
     id="path2624"
     style="opacity:0.1;fill:#ffffff;stroke-width:2.00002"
     d="m 25.35742,11 -3.5332,4.54492 c -0.047,0.016 -0.39293,-0.27416 -0.76953,-0.38476 -1.0096,-0.29662 -2.29131,-0.24523 -3.16211,0.15039 -0.5696,0.2588 -0.78993,0.44046 -2.14453,1.77148 C 14.28785,18.51647 14,18.69538 14,19 c 0,0.0349 0.12424,0.27403 0.26172,0.54102 0.23706,-0.25823 0.66565,-0.65279 1.48633,-1.45899 1.3546,-1.33102 1.57493,-1.51268 2.14453,-1.77148 0.8708,-0.39562 2.15251,-0.44701 3.16211,-0.15039 0.3766,0.1106 0.72253,0.40076 0.76953,0.38476 L 25.35742,12 h 13.28516 l 3.5332,4.54492 c 0.046,0.0154 0.39158,-0.27416 0.76758,-0.38476 1.01,-0.29662 2.29211,-0.24523 3.16211,0.15039 0.57,0.2588 0.79048,0.44046 2.14648,1.77148 0.82057,0.8062 1.24923,1.20076 1.48633,1.45899 C 49.87573,19.27403 50,19.03493 50,19 c 0,-0.30462 -0.28805,-0.48353 -1.74805,-1.91797 -1.356,-1.33102 -1.57648,-1.51268 -2.14648,-1.77148 -0.87,-0.39562 -2.15211,-0.44701 -3.16211,-0.15039 -0.376,0.1106 -0.72158,0.40016 -0.76758,0.38476 L 38.64258,11 Z m -10.29687,11.25586 -0.40821,1.12109 c -0.3328,0.91342 -0.62022,1.71064 -0.64062,1.77344 -0.005,0.0153 0.0688,0.30944 0.14258,0.60547 0.0997,-0.27912 0.23928,-0.6687 0.49804,-1.37891 l 0.60547,-1.66211 z m 33.8789,0 -0.19726,0.45898 0.60351,1.66211 c 0.26005,0.71117 0.40035,1.10234 0.5,1.38086 0.0742,-0.298 0.14755,-0.59211 0.14258,-0.60742 -0.02,-0.0628 -0.30858,-0.86002 -0.64258,-1.77344 z" />
  <path
     d="m 36.82649,39.65051 c 0.86202,-0.62801 0.99802,-0.78802 0.85602,-1.01002 -0.112,-0.17801 -2.88807,-1.57004 -4.2161,-2.11405 -1.39403,-0.57402 -1.54204,-0.57402 -2.89607,-0.008 -1.21403,0.50201 -3.94569,1.88004 -4.1749,2.10605 -0.2368,0.232 -0.1176,0.44601 0.47902,0.85802 1.72584,0.80202 3.12587,2.51806 5.12392,2.51806 2.00204,0 3.17607,-1.49004 4.82811,-2.35006 z m -9.68603,-2.71006 c 1.66584,-0.79802 1.91585,-0.96402 3.18788,-2.11405 1.07202,-0.96602 1.27003,-1.25403 1.11802,-1.62004 -0.052,-0.124 -0.85602,-0.88202 -1.78804,-1.68204 -2.20285,-1.89404 -2.11065,-1.62804 -1.27203,-3.68209 0.49801,-1.22043 0.62602,-1.62884 0.62602,-1.96704 -0.004,-0.51102 -0.19001,-0.89482 -0.56402,-1.15983 -0.15,-0.1082 -1.48143,-0.65462 -2.95627,-1.21623 -1.47483,-0.56161 -2.67306,-1.05782 -2.66266,-1.10343 0.0236,-0.1042 1.65004,-0.2842 2.83067,-0.3144 l 0.89302,-0.0226 1.64124,0.58501 c 1.43403,0.51001 1.65804,0.61441 1.76604,0.82182 0.068,0.1308 0.122,0.30621 0.12,0.39001 0,0.084 -0.26601,1.29643 -0.59001,2.69446 -0.56602,2.44826 -0.58202,2.54826 -0.43401,2.69827 0.234,0.236 2.52406,0.78801 3.23807,0.73201 0.81602,-0.062 2.48406,-0.57201 2.65407,-0.74201 0.136,-0.13801 0.11,-0.29401 -0.44401,-2.68887 -0.32401,-1.39803 -0.59002,-2.61066 -0.59202,-2.69446 0,-0.084 0.054,-0.26001 0.122,-0.39161 0.10801,-0.20701 0.32001,-0.30901 1.59604,-0.76362 2.05605,-0.73382 2.01405,-0.72782 3.88209,-0.55861 0.87203,0.0794 1.62004,0.177 1.66404,0.2178 0.044,0.0452 -0.006,0.10661 -0.128,0.15341 -0.114,0.0454 -1.31603,0.50401 -2.67206,1.02282 -1.35803,0.51921 -2.61006,1.03743 -2.78407,1.15223 -0.40801,0.2698 -0.60801,0.65521 -0.61001,1.18423 -0.002,0.3348 0.126,0.74001 0.61201,1.92144 0.33601,0.82322 0.61202,1.57524 0.61202,1.66924 0,0.38201 -0.27801,0.69002 -1.82605,2.01805 -0.89002,0.76402 -1.68004,1.50003 -1.75604,1.63804 -0.074,0.136 -0.118,0.34601 -0.096,0.46401 0.04,0.204 1.10603,1.25403 2.19005,2.16005 0.45601,0.38001 3.21608,2.14205 3.65809,2.21205 0.37001,0.06 0.76602,-0.50201 1.41403,-1.05002 0.63602,-0.53802 1.01403,-1.07403 1.27003,-1.80405 0.24201,-0.68401 0.18201,-1.14602 -0.29601,-2.25405 -0.364,-0.84602 -0.46001,-1.31203 -0.338,-1.62804 0.028,-0.076 1.01402,-1.02402 2.19005,-2.11405 2.56206,-2.37445 3.17407,-2.79966 3.31408,-3.22387 0.156,-0.47101 0.046,-1.09123 -0.30401,-1.71524 -0.83802,-1.49224 -4.3161,-6.16475 -4.61211,-6.16475 -1.52204,0.24781 -2.79407,0.79722 -4.3981,1.04962 -0.12601,2e-4 -0.66202,-0.1338 -1.19203,-0.2978 C 33.1664,18.053 32.43439,18.0002 31.99638,18.0002 c -0.43601,0 -1.17003,0.0528 -3.42808,0.75202 -0.52802,0.164 -1.07063,0.2978 -1.20363,0.2978 C 25.78483,18.81722 24.6136,18.19 22.97816,18 c -0.255,0.1724 -2.51726,3.33748 -3.45388,4.72031 -1.10142,1.62624 -1.41283,1.83545 -1.50243,2.45446 -0.12521,0.86662 0.1934,1.01242 3.48408,4.0555 1.10682,1.02202 2.03505,1.91804 2.06265,1.99004 0.1234,0.32001 0.0258,0.80402 -0.33301,1.65204 -0.49301,1.16203 -0.53721,1.48604 -0.29921,2.18805 0.25861,0.76402 0.69722,1.38004 1.35963,1.91405 0.61602,0.49601 0.85442,0.99202 1.21783,1.00002 0.13001,0.004 0.86202,-0.66801 1.62664,-1.03402 z"
     style="fill:#ffffff;stroke-width:2.00005"
     id="path2680"
     sodipodi:nodetypes="ccccccsccccccccscccccccccccccccccccccscccccccccccccccscccscccccccc" />
  <path
     d="M 16,4.0000002 C 9.3520066,4.0000002 4,9.352007 4,16 v 1 C 4,10.352007 9.3520066,5 16,5 h 32 c 6.647993,0 12,5.352007 12,12 V 16 C 60,9.352007 54.647993,4.0000002 48,4.0000002 Z"
     style="opacity:0.2;fill:#ffffff;stroke-width:4;stroke-linecap:square"
     id="path1040" />
</svg>
