<?xml version="1.0" encoding="UTF-8" standalone="no"?>
<!-- Created with Inkscape (http://www.inkscape.org/) -->

<svg
   width="64"
   height="64"
   viewBox="0 0 64 64"
   version="1.1"
   id="svg5"
   inkscape:version="1.3.2 (091e20ef0f, 2023-11-25, custom)"
   sodipodi:docname="cities-skylines.svg"
   xmlns:inkscape="http://www.inkscape.org/namespaces/inkscape"
   xmlns:sodipodi="http://sodipodi.sourceforge.net/DTD/sodipodi-0.dtd"
   xmlns="http://www.w3.org/2000/svg"
   xmlns:svg="http://www.w3.org/2000/svg">
  <sodipodi:namedview
     id="namedview7"
     pagecolor="#ffffff"
     bordercolor="#000000"
     borderopacity="0.25"
     inkscape:showpageshadow="2"
     inkscape:pageopacity="0.0"
     inkscape:pagecheckerboard="0"
     inkscape:deskcolor="#d1d1d1"
     inkscape:document-units="px"
     showgrid="false"
     inkscape:zoom="12.765625"
     inkscape:cx="31.960832"
     inkscape:cy="32"
     inkscape:window-width="1920"
     inkscape:window-height="1020"
     inkscape:window-x="0"
     inkscape:window-y="31"
     inkscape:window-maximized="1"
     inkscape:current-layer="svg5" />
  <defs
     id="defs2" />
  <rect
     style="opacity:0.2;fill:#000000;stroke-width:4;stroke-linecap:square"
     id="rect234"
     width="56"
     height="56"
     x="4"
     y="5"
     ry="12" />
  <rect
     style="fill:#dbf3ff;fill-opacity:1;stroke-width:4;stroke-linecap:square"
     id="rect396"
     width="56"
     height="56"
     x="4"
     y="4"
     ry="12" />
  <path
     style="opacity:0.2;stroke-width:2"
     d="m 14,17 a 4.0004,4.0004 0 0 0 -4,4 v 24 a 4.0004,4.0004 0 0 0 4,4 h 12 a 4.0004,4.0004 0 0 0 4,-4 V 35 h -8 v 6 H 18 V 25 h 4 v 6 h 8 V 21 a 4.0004,4.0004 0 0 0 -4,-4 z m 24,0 a 4.0004,4.0004 0 0 0 -4,4 v 12 a 4.0004,4.0004 0 0 0 4,4 h 8 v 4 h -4 v -2 h -8 v 6 a 4.0004,4.0004 0 0 0 4,4 h 12 a 4.0004,4.0004 0 0 0 4,-4 V 33 a 4.0004,4.0004 0 0 0 -4,-4 h -8 v -4 h 4 v 2 h 8 v -6 a 4.0004,4.0004 0 0 0 -4,-4 z"
     id="path1" />
  <path
     id="path2"
     style="color:#000000;fill:#43c3ff;stroke-width:4;stroke-linejoin:round;-inkscape-stroke:none"
     d="m 14,16 a 4.0004,4.0004 0 0 0 -4,4 v 24 a 4.0004,4.0004 0 0 0 4,4 h 12 a 4.0004,4.0004 0 0 0 4,-4 V 34 h -8 v 6 H 18 V 24 h 4 v 6 h 8 V 20 a 4.0004,4.0004 0 0 0 -4,-4 z" />
  <path
     style="color:#000000;fill:#43c3ff;stroke-width:4;stroke-linejoin:round;-inkscape-stroke:none"
     d="m 38,16 a 4.0004,4.0004 0 0 0 -4,4 v 12 a 4.0004,4.0004 0 0 0 4,4 h 8 v 4 h -4 v -2 h -8 v 6 a 4.0004,4.0004 0 0 0 4,4 h 12 a 4.0004,4.0004 0 0 0 4,-4 V 32 a 4.0004,4.0004 0 0 0 -4,-4 h -8 v -4 h 4 v 2 h 8 v -6 a 4.0004,4.0004 0 0 0 -4,-4 z"
     id="path3" />
  <path
     style="fill:#4572ab;stroke-width:2"
     d="m 24,36 v 9 H 23 V 44 L 21.640626,44.03126 21,44.488292 V 46 h -1 v -4 h -2 v 2 h -1 l -1,0.550784 V 40.035156 L 14.835938,38.707032 14,40.035156 v 7.832032 c 0.32648,0.08564 0.662481,0.13156 1,0.1328 H 26 A 4.0004,4.0004 0 0 0 30,44 v -3 l -1,-1 -1,1 v -1 h -2 v -4 z m 29,1 -1,1 v 4 5.46094 a 4.0004,4.0004 0 0 0 1.984376,-3.140628 c 0.0022,-0.10952 0.0154,-0.20884 0.0156,-0.320312 v -6 z m -43,1 v 6 c 5.46e-4,0.34856 0.04967,0.691248 0.13672,1.019532 a 4.0004,4.0004 0 0 0 0.01172,0.0508 c 0.09036,0.32368 0.220116,0.632888 0.38672,0.921876 0.0053,0.0092 0.01024,0.0184 0.01564,0.0272 0.17184,0.29268 0.379088,0.562992 0.621094,0.804684 0.246656,0.24632 0.529272,0.462692 0.839844,0.640628 L 12.097656,38 Z m 24,2 v 4 c 2.8e-5,0.27612 0.0288,0.544308 0.08204,0.804688 0.0486,0.23752 0.12224,0.467356 0.21092,0.6875 a 4.0004,4.0004 0 0 0 0.05076,0.125 c 0.08872,0.20024 0.19352,0.39288 0.31252,0.57422 a 4.0004,4.0004 0 0 0 0.04296,0.06252 4.0004,4.0004 0 0 0 0,0.004 c 0.13348,0.19496 0.28416,0.37496 0.44922,0.542968 0.012,0.0124 0.0228,0.0268 0.0352,0.0392 0.16068,0.15936 0.33768,0.29924 0.523436,0.429688 a 4.0004,4.0004 0 0 0 0.08596,0.06252 c 0.17736,0.11764 0.3668,0.22004 0.5625,0.3086 a 4.0004,4.0004 0 0 0 0.15236,0.0664 c 0.20504,0.0826 0.420412,0.14732 0.640628,0.19532 a 4.0004,4.0004 0 0 0 0.082,0.0196 c 0.249724,0.0485 0.50544,0.07776 0.769496,0.07778 H 48 V 46 L 46.726564,45.164064 46,45 v -3 h -2 v 5 L 42,46 V 45 L 41.484376,44 H 40 v 2 h -2 v -4 h -2 v -2 z"
     id="path4" />
  <path
     style="fill:#4572ab;stroke-width:2"
     d="m 48,42 v 6 h 2 v -6 z"
     id="path5" />
  <path
     id="path6"
     style="opacity:0.2;fill:#ffffff;stroke-width:2"
     d="m 14,16 c -2.209043,2.2e-4 -3.999779,1.790956 -4,4 v 1 c 2.21e-4,-2.209044 1.790957,-3.99978 4,-4 h 12 c 2.209042,2.2e-4 3.99978,1.790956 4,4 v -1 c -2.2e-4,-2.209044 -1.790958,-3.99978 -4,-4 z m 24,0 c -2.209042,2.2e-4 -3.99978,1.790956 -4,4 v 1 c 2.2e-4,-2.209044 1.790958,-3.99978 4,-4 h 12 c 2.209046,2.2e-4 3.99978,1.790956 4,4 v -1 c -2.2e-4,-2.209044 -1.790954,-3.99978 -4,-4 z m 4,12 v 1 h 8 c 2.209046,2.2e-4 3.99978,1.790958 4,4 v -1 c -2.2e-4,-2.209042 -1.790954,-3.99978 -4,-4 z m -20,6 v 1 h 8 v -1 z m 12,4 v 1 h 8 v -1 z m -16,2 v 1 h 4 v -1 z m 24,0 v 1 h 4 v -1 z" />
  <path
     id="path1040"
     style="opacity:0.2;fill:#ffffff;stroke-width:4;stroke-linecap:square"
     d="M 16,4 C 9.3520132,4 4,9.3520136 4,16 v 1 C 4,10.352014 9.3520132,5 16,5 h 32 c 6.647986,0 12,5.352014 12,12 V 16 C 60,9.3520136 54.647986,4 48,4 Z" />
</svg>
