<?xml version="1.0" encoding="UTF-8" standalone="no"?>
<!-- Created with Inkscape (http://www.inkscape.org/) -->

<svg
   width="64"
   height="64"
   viewBox="0 0 64 64"
   version="1.1"
   id="svg5"
   inkscape:version="1.3 (0e150ed6c4, 2023-07-21)"
   sodipodi:docname="civilization5.svg"
   xmlns:inkscape="http://www.inkscape.org/namespaces/inkscape"
   xmlns:sodipodi="http://sodipodi.sourceforge.net/DTD/sodipodi-0.dtd"
   xmlns="http://www.w3.org/2000/svg"
   xmlns:svg="http://www.w3.org/2000/svg">
  <sodipodi:namedview
     id="namedview7"
     pagecolor="#ffffff"
     bordercolor="#000000"
     borderopacity="0.25"
     inkscape:showpageshadow="2"
     inkscape:pageopacity="0.0"
     inkscape:pagecheckerboard="0"
     inkscape:deskcolor="#d1d1d1"
     inkscape:document-units="px"
     showgrid="false"
     inkscape:zoom="11.390625"
     inkscape:cx="32"
     inkscape:cy="32"
     inkscape:window-width="1920"
     inkscape:window-height="937"
     inkscape:window-x="0"
     inkscape:window-y="32"
     inkscape:window-maximized="1"
     inkscape:current-layer="svg5" />
  <defs
     id="defs2" />
  <rect
     style="opacity:0.2;fill:#000000;stroke-width:4;stroke-linecap:square"
     id="rect234"
     width="56"
     height="56"
     x="4"
     y="5"
     ry="12" />
  <rect
     style="fill:#404d5a;fill-opacity:1;stroke-width:4;stroke-linecap:square"
     id="rect396"
     width="56"
     height="56"
     x="4"
     y="4"
     ry="12" />
  <path
     id="path1"
     style="opacity:0.2"
     d="m 20.001953,12.999902 a 4.9851094,4.9853989 0 0 0 -4.617187,6.904297 l 11.814453,29.490234 a 4.985209,4.9855306 0 0 1 -0.04687,-0.279297 4.985209,4.9855306 0 0 0 6.255859,3.648438 4.9851094,4.9853989 0 0 0 0.447266,-0.13086 4.985209,4.9855306 0 0 0 0.505859,-0.263671 4.9851094,4.9853989 0 0 0 0.621094,-0.38086 4.985209,4.9855306 0 0 0 0.322266,-0.277343 4.9851094,4.9853989 0 0 0 0.634765,-0.673829 4.985209,4.9855306 0 0 0 0.154297,-0.216797 4.9851094,4.9853989 0 0 0 0.535156,-1.007812 4.9851094,4.9853989 0 0 0 0.002,-0.0078 4.985209,4.9855306 0 0 0 0.02148,-0.03906 l 0.144531,-0.361328 11.818359,-29.5 a 4.985209,4.9855306 0 0 0 -4.769578,-6.902359 4.985209,4.9855306 0 0 0 -4.482422,3.195313 L 32,34.578027 24.636719,16.197168 a 4.9851094,4.9853989 0 0 0 -4.634766,-3.197266 z m 7.398438,33.058594 a 4.985209,4.9855306 0 0 0 -0.326172,1.15625 4.985209,4.9855306 0 0 1 0.326172,-1.15625 z m -0.363282,1.759765 a 4.985209,4.9855306 0 0 0 -0.0039,0.595703 4.985209,4.9855306 0 0 1 0.0039,-0.595703 z m 4.773438,5.171875 a 4.9851094,4.9853989 0 0 0 0.236328,0.0059 4.985209,4.9855306 0 0 1 -0.236328,-0.0059 z" />
  <path
     style="fill:#ffa000"
     d="m 20.002874,11.999937 a 4.9851094,4.9853989 0 0 0 -4.618555,6.904865 l 11.963067,29.860722 a 4.9851094,4.9853989 0 1 0 9.252684,-3.70752 L 24.637004,15.197283 a 4.9851094,4.9853989 0 0 0 -4.63413,-3.197346 z"
     id="path2" />
  <path
     style="opacity:0.2;fill:#ffffff"
     d="m 20.001953,11.999902 a 4.9851094,4.9853989 0 0 0 -4.972656,5.486328 4.9851094,4.9853989 0 0 1 4.972656,-4.486328 4.9851094,4.9853989 0 0 1 4.634766,3.197266 l 11.96289,29.861328 a 4.9851094,4.9853989 0 0 1 0.371094,1.457031 4.9851094,4.9853989 0 0 0 -0.371094,-2.457031 L 24.636719,15.197168 a 4.9851094,4.9853989 0 0 0 -4.634766,-3.197266 z"
     id="path3" />
  <path
     id="path5"
     style="fill:#ffca28"
     d="m 43.845703,12.001855 a 4.985209,4.9855306 0 0 0 -4.482422,3.195313 l -11.96289,29.861328 a 4.985209,4.9855306 0 1 0 9.251953,3.707031 l 11.96289,-29.861328 a 4.985209,4.9855306 0 0 0 -4.769531,-6.902344 z" />
  <path
     style="opacity:0.2;fill:#ffffff"
     d="m 43.845703,12.001855 a 4.985209,4.9855306 0 0 0 -4.482422,3.195313 l -11.96289,29.861328 a 4.985209,4.9855306 0 0 0 -0.373047,2.457031 4.985209,4.9855306 0 0 1 0.373047,-1.457031 l 11.96289,-29.861328 a 4.985209,4.9855306 0 0 1 4.482422,-3.195313 4.985209,4.9855306 0 0 1 5.126953,4.478516 4.985209,4.9855306 0 0 0 -5.126953,-5.478516 z"
     id="path6" />
  <path
     id="path1040"
     style="opacity:0.1;fill:#ffffff;stroke-width:4;stroke-linecap:square"
     d="M 16,4 C 9.3520132,4 4,9.3520136 4,16 v 1 C 4,10.352014 9.3520132,5 16,5 h 32 c 6.647986,0 12,5.352014 12,12 V 16 C 60,9.3520136 54.647986,4 48,4 Z" />
</svg>
