<?xml version="1.0" encoding="UTF-8" standalone="no"?>
<!-- Created with Inkscape (http://www.inkscape.org/) -->

<svg
   width="64"
   height="64"
   viewBox="0 0 64 64"
   version="1.1"
   id="svg5"
   inkscape:version="1.4.3 (0d15f75042, 2025-12-25)"
   sodipodi:docname="CMakeSetup.svg"
   xmlns:inkscape="http://www.inkscape.org/namespaces/inkscape"
   xmlns:sodipodi="http://sodipodi.sourceforge.net/DTD/sodipodi-0.dtd"
   xmlns="http://www.w3.org/2000/svg"
   xmlns:svg="http://www.w3.org/2000/svg">
  <sodipodi:namedview
     id="namedview7"
     pagecolor="#ffffff"
     bordercolor="#000000"
     borderopacity="0.25"
     inkscape:showpageshadow="2"
     inkscape:pageopacity="0.0"
     inkscape:pagecheckerboard="0"
     inkscape:deskcolor="#d1d1d1"
     inkscape:document-units="px"
     showgrid="false"
     inkscape:zoom="12.609375"
     inkscape:cx="31.960347"
     inkscape:cy="32"
     inkscape:window-width="1920"
     inkscape:window-height="1010"
     inkscape:window-x="0"
     inkscape:window-y="0"
     inkscape:window-maximized="1"
     inkscape:current-layer="svg5" />
  <defs
     id="defs2" />
  <rect
     style="opacity:0.2;fill:#000000;stroke-width:4;stroke-linecap:square"
     id="rect234"
     width="56"
     height="56"
     x="4"
     y="5"
     ry="12" />
  <rect
     style="fill:#4d4d4d;stroke-width:4;stroke-linecap:square;fill-opacity:1"
     id="rect396"
     width="56"
     height="56"
     x="4"
     y="4"
     ry="12" />
  <path
     d="M 16,4.0000002 C 9.3520066,4.0000002 4,9.352007 4,16 v 1 C 4,10.352007 9.3520066,5 16,5 h 32 c 6.647993,0 12,5.352007 12,12 V 16 C 60,9.352007 54.647993,4.0000002 48,4.0000002 Z"
     style="opacity:0.1;fill:#ffffff;stroke-width:4;stroke-linecap:square"
     id="path1040" />
  <path
     fill="#ffffff"
     d="M 40.582,39.2 A 9.0688,10.335 0 0 1 31.512,49.536 9.0688,10.335 0 0 1 22.4432,39.2 9.0688,10.335 0 0 1 31.512,28.864 9.0688,10.335 0 0 1 40.582,39.2 Z"
     id="path1"
     style="stroke-width:2" />
  <path
     style="opacity:0.2;stroke-width:2;fill:#000000"
     d="M 32,14 12,52 h 40 z m 1.954,19.008 1.256,12.234 -10.503,-4.23 z"
     id="path2" />
  <path
     style="fill:#4a86d8;stroke-width:2"
     d="M 32,13 33.96,32 34,23 Z m -20,38 8,-4 4.6974,-6.986 z m 0,0 20,-38 1.96,19 z"
     id="path3" />
  <path
     style="fill:#dd3c3d;stroke-width:2"
     d="M 52,51 40,49 35.22,44.3 Z M 32,13 52,51 35.22,44.3 Z"
     id="path4" />
  <path
     style="fill:#339c33;stroke-width:2"
     d="M 52,51 H 12 L 24.68,40 Z"
     id="path5" />
  <path
     style="opacity:0.2;fill:#ffffff;stroke-width:2"
     d="M 32,13 12,51 h 0.5274 L 32,14 51.472,51 H 52 Z m -6.504,27.328 -0.789,0.684 10.503,4.23 -0.104,-1.042 z"
     id="path6" />
</svg>
