<?xml version="1.0" encoding="UTF-8" standalone="no"?>
<!-- Created with Inkscape (http://www.inkscape.org/) -->

<svg
   width="64"
   height="64"
   viewBox="0 0 64 64"
   version="1.1"
   id="svg5"
   inkscape:version="1.3.2 (091e20ef0f, 2023-11-25, custom)"
   sodipodi:docname="com.github.fabiocolacio.marker.svg"
   xmlns:inkscape="http://www.inkscape.org/namespaces/inkscape"
   xmlns:sodipodi="http://sodipodi.sourceforge.net/DTD/sodipodi-0.dtd"
   xmlns="http://www.w3.org/2000/svg"
   xmlns:svg="http://www.w3.org/2000/svg">
  <sodipodi:namedview
     id="namedview7"
     pagecolor="#ffffff"
     bordercolor="#000000"
     borderopacity="0.25"
     inkscape:showpageshadow="2"
     inkscape:pageopacity="0.0"
     inkscape:pagecheckerboard="0"
     inkscape:deskcolor="#d1d1d1"
     inkscape:document-units="px"
     showgrid="false"
     inkscape:zoom="12.84375"
     inkscape:cx="32"
     inkscape:cy="32"
     inkscape:window-width="1920"
     inkscape:window-height="1008"
     inkscape:window-x="0"
     inkscape:window-y="0"
     inkscape:window-maximized="1"
     inkscape:current-layer="svg5" />
  <defs
     id="defs2" />
  <rect
     style="opacity:0.2;fill:#000000;stroke-width:4;stroke-linecap:square"
     id="rect234"
     width="56"
     height="56"
     x="4"
     y="5"
     ry="12" />
  <rect
     style="fill:#e4e4e4;fill-opacity:1;stroke-width:4;stroke-linecap:square"
     id="rect396"
     width="56"
     height="56"
     x="4"
     y="4"
     ry="12" />
  <path
     id="path2"
     style="opacity:0.15;fill:#000000;stroke-width:2"
     d="M 12,10 V 34 H 52 V 10 Z m 0,28 0.0039,12 H 24 v -4 h 28 v -8 z" />
  <path
     id="path3"
     style="opacity:0.1;fill:#000000;stroke-width:2"
     d="m 16,15 v 2 h 26 v -2 z m 12,8 v 2 h 18 v -2 z m -12,4 v 2 h 10 v -2 z" />
  <rect
     style="fill:#8ff0a4;stroke-width:2.08166"
     width="26"
     height="2"
     x="16"
     y="14"
     id="rect3" />
  <rect
     style="fill:#8ff0a4;stroke-width:2.23606"
     width="10"
     height="2"
     x="16"
     y="26"
     id="rect4" />
  <rect
     style="fill:#8ff0a4;stroke-width:2"
     width="18"
     height="2"
     x="28"
     y="22"
     id="rect5" />
  <path
     style="opacity:0.1;stroke-width:2;fill:#000000"
     d="m 25.875,26.047 -1.414062,4.242186 1.414062,1.41797 1.414062,7.070312 1.414062,1.414062 9.898438,9.898438 6.32422,6.324218 c 0.783474,0.783472 2.04465,0.783472 2.828124,0 l 5.65625,-5.660156 c 0.78347,-0.783474 0.78347,-2.04465 0,-2.828124 L 47.085938,41.605592 37.1875,31.707156 35.773438,30.293092 v -0.004 L 28.703124,28.87503 Z"
     id="path5" />
  <path
     style="fill:#33d17a;stroke-width:2"
     d="M 35.774156,29.291312 34.364,30.701468 c -0.0015,0.0015 -0.0034,0.0024 -0.005,0.004 l -5.65625,5.656228 c -0.0015,0.0015 -0.0024,0.0034 -0.004,0.0048 l -1.410158,1.410158 1.414064,1.414062 9.899414,9.899412 6.322266,6.322268 c 0.783474,0.783472 2.04465,0.783472 2.828124,0 l 5.657232,-5.657228 c 0.78347,-0.783474 0.78347,-2.04465 0,-2.828124 L 47.08743,40.60477 37.188018,30.705354 Z"
     id="path6" />
  <path
     style="fill:#33d17a;stroke-width:2"
     d="M 25.874214,25.048292 28.702642,27.87672 25.874214,30.705146 24.46,29.290932 Z"
     id="path7" />
  <path
     style="fill:#3d3846;stroke-width:2"
     d="m 25.874214,30.705146 1.414214,7.071068 8.48528,-8.485282 -7.071066,-1.414212 z"
     id="path8" />
  <path
     id="path1040"
     style="opacity:0.2;fill:#ffffff;stroke-width:4;stroke-linecap:square"
     d="M 16,4 C 9.3520132,4 4,9.3520136 4,16 v 1 C 4,10.352014 9.3520132,5 16,5 h 32 c 6.647986,0 12,5.352014 12,12 V 16 C 60,9.3520136 54.647986,4 48,4 Z" />
</svg>
