<?xml version="1.0" encoding="UTF-8" standalone="no"?>
<!-- Created with Inkscape (http://www.inkscape.org/) -->

<svg
   width="64"
   height="64"
   viewBox="0 0 64 64"
   version="1.1"
   id="svg5"
   inkscape:version="1.3 (0e150ed6c4, 2023-07-21)"
   sodipodi:docname="com.usebottles.bottles.svg"
   xmlns:inkscape="http://www.inkscape.org/namespaces/inkscape"
   xmlns:sodipodi="http://sodipodi.sourceforge.net/DTD/sodipodi-0.dtd"
   xmlns="http://www.w3.org/2000/svg"
   xmlns:svg="http://www.w3.org/2000/svg">
  <sodipodi:namedview
     id="namedview7"
     pagecolor="#ffffff"
     bordercolor="#000000"
     borderopacity="0.25"
     inkscape:showpageshadow="2"
     inkscape:pageopacity="0.0"
     inkscape:pagecheckerboard="0"
     inkscape:deskcolor="#d1d1d1"
     inkscape:document-units="px"
     showgrid="false"
     inkscape:zoom="12.546875"
     inkscape:cx="32"
     inkscape:cy="32"
     inkscape:window-width="1850"
     inkscape:window-height="1011"
     inkscape:window-x="70"
     inkscape:window-y="32"
     inkscape:window-maximized="1"
     inkscape:current-layer="svg5" />
  <defs
     id="defs2" />
  <rect
     style="opacity:0.2;fill:#000000;stroke-width:4;stroke-linecap:square"
     id="rect234"
     width="56"
     height="56"
     x="4"
     y="5"
     ry="12" />
  <rect
     style="fill:#4d4d4d;stroke-width:4;stroke-linecap:square;fill-opacity:1"
     id="rect396"
     width="56"
     height="56"
     x="4"
     y="4"
     ry="12" />
  <path
     style="opacity:0.2;fill:#000000"
     d="m 17.000001,14 v 2 c 0,0.930834 -0.595464,1.928856 -1.246093,3.001953 -1.336145,2.585782 -3.755385,5.230075 -3.753907,8.636719 v 21.322266 c 0,0.105389 0.0068,0.208124 0.01563,0.310546 0.0089,0.102421 0.02328,0.203282 0.04102,0.302735 0.01921,0.09945 0.04175,0.196481 0.06836,0.292969 0.0266,0.095 0.06023,0.186797 0.0957,0.277343 0.03547,0.09203 0.07432,0.181485 0.117188,0.267578 0.04286,0.0861 0.09037,0.16836 0.140625,0.25 0.05025,0.08016 0.104466,0.158671 0.162109,0.234375 0.05764,0.0757 0.11761,0.147033 0.179688,0.216797 0.06355,0.06828 0.131229,0.132503 0.199219,0.19336 0.06947,0.06234 0.141416,0.120859 0.216796,0.175781 0.07538,0.05492 0.152133,0.104844 0.230469,0.152344 0.07981,0.04602 0.163799,0.08837 0.248047,0.126953 0.08425,0.03713 0.16913,0.07188 0.257813,0.101562 0.04434,0.01486 0.08847,0.02766 0.132812,0.04102 0.04434,0.01186 0.0909,0.02431 0.136719,0.0332 0.0473,0.01037 0.09137,0.01993 0.138672,0.02734 0.0473,0.0089 0.09333,0.01508 0.140625,0.01953 0.04878,0.0059 0.09528,0.01023 0.142578,0.01172 0.04877,0.0031 0.09919,0.0039 0.146484,0.0039 h 11.189453 12 10.898438 c 1.651176,-0.0071 2.988663,-1.326205 3.091796,-3 h 0.0098 V 48.792969 48 46 28.392578 c 0,-1.839767 -1.411846,-3.602193 -3.027344,-4.392578 h 0.02734 v -1 -3 h -8 v 3 1 h 0.02734 c -1.609582,0.791874 -3.02734,2.557277 -3.02734,4.392578 V 24 c 0,-0.187801 -2,-6 -2,-6 v -2 h -8 v 2 c 0,0 -2,5.652944 -2,6 v 3.638672 c 0,-3.406644 -2.390891,-6.050937 -3.728516,-8.636719 -0.0015,-0.0015 -0.0025,-0.0024 -0.0039,-0.0039 C 21.617457,17.927077 21.018072,16.929213 21.000001,16 v -2 z"
     id="path1" />
  <path
     style="fill:#ff9a33"
     d="m 15.759221,17.997773 c -0.0015,0.0015 -0.003,0.003 -0.0044,0.0045 -1.336144,2.585782 -3.756259,5.229549 -3.754781,8.636193 V 47.96 c 0,0.105389 0.0059,0.209296 0.01478,0.311718 0.0089,0.102421 0.02365,0.203361 0.04139,0.302814 0.01921,0.09945 0.04286,0.195935 0.06947,0.292422 0.0266,0.095 0.05912,0.187032 0.09459,0.277578 0.03547,0.09203 0.07538,0.181093 0.118243,0.267186 0.04286,0.0861 0.09016,0.169222 0.140414,0.250862 0.05025,0.08016 0.103463,0.157342 0.161106,0.233046 0.05764,0.0757 0.118243,0.146954 0.180321,0.216718 0.06355,0.06828 0.131546,0.133597 0.199535,0.194454 0.06947,0.06234 0.141892,0.120235 0.217272,0.175157 0.07538,0.05492 0.152239,0.105389 0.230575,0.152889 0.07981,0.04602 0.162584,0.08907 0.246832,0.127657 0.08425,0.03713 0.169975,0.07126 0.258658,0.10094 0.04434,0.01486 0.08868,0.0282 0.133023,0.04156 0.04434,0.01186 0.09016,0.02375 0.13598,0.03264 0.0473,0.01037 0.09164,0.01931 0.138936,0.02672 0.0473,0.0089 0.09312,0.01486 0.140413,0.01931 0.04878,0.0059 0.09607,0.01037 0.14337,0.01186 0.04878,0.0031 0.09755,0.0044 0.144848,0.0044 H 25.999999 V 26.63842 c 0,-3.406644 -2.390173,-6.050411 -3.727798,-8.636193 -0.0015,-0.0015 -0.003,-0.003 -0.0044,-0.0045 z"
     id="path2" />
  <path
     style="fill:#ffffff"
     d="M 26.000001,23.000751 V 51 h 12 V 22.999249 l -12,0.0015 z"
     id="path3" />
  <path
     style="fill:#deddda"
     d="m 28.000001,17 c 0,0 -2,5.652944 -2,6 h 12 c 0,-0.187801 -2,-6 -2,-6 z"
     id="path4" />
  <path
     style="fill:#deddda"
     d="m 17.000001,15 c 0,0.930834 -0.59459,1.929136 -1.24522,3.002233 l 6.51742,-6e-6 C 21.621001,16.929499 21.018098,15.930554 21.000001,15 Z"
     id="path5" />
  <path
     style="fill:#3081e2"
     d="m 28.000001,15 v 2 h 8 v -2 z m 0,0"
     id="path6" />
  <path
     style="opacity:0.1;fill:#000000"
     d="m 19.000001,30 c -2.209375,0 -4,1.790625 -4,4 0,2.209375 1.790625,4 4,4 2.209375,0 4,-1.790625 4,-4 0,-2.209375 -1.790625,-4 -4,-4 z m 13,0 c -4,0 -4,5 -4,5 h -2 v 5 h 12 v -5 h -2 c 0,0 0,-5 -4,-5 z m 0,1.5 c 0,0 2.799505,2.412646 1.775391,3.605469 -1.024111,1.192821 -2.526667,1.192821 -3.550782,0 C 29.200497,33.912646 32.000001,31.5 32.000001,31.5 Z"
     id="path7" />
  <path
     style="fill:#3081e2"
     d="m 32.000001,29 c -4,0 -4,5 -4,5 h -2 v 5 h 12 v -5 h -2 c 0,0 0,-5 -4,-5 z m 0,1.5 c 0,0 2.799505,2.412646 1.775391,3.605469 -1.024111,1.192821 -2.526667,1.192821 -3.550782,0 C 29.200497,32.912646 32.000001,30.5 32.000001,30.5 Z"
     id="path8" />
  <path
     style="fill:#ee3a3e"
     d="m 41.027028,23 c -1.609586,0.791874 -3.027027,2.557216 -3.027027,4.392517 V 51 h 10.899072 c 1.718962,-0.0074 3.100928,-1.434897 3.100928,-3.206194 V 27.392517 c 0,-1.839767 -1.411529,-3.602132 -3.027027,-4.392517 z"
     id="path9" />
  <path
     style="fill:#2eae5d"
     d="m 17.000001,13 h 4 v 2 h -4 z m 0,0"
     id="path10" />
  <path
     style="fill:#64636a"
     d="m 41.000001,22 h 8 v 1 h -8 z m 0,0"
     id="path11" />
  <path
     style="fill:#cac9c6"
     d="m 41.000001,19 h 8 v 3 h -8 z m 0,0"
     id="path12" />
  <path
     style="fill:#c8c7c4;stroke-width:1.73204"
     d="m 46.000001,42 h 6 v 4 h -6 z m 0,0"
     id="path13" />
  <path
     style="fill:#2eae5d"
     d="m 19.000001,29 c -2.209375,0 -4,1.790625 -4,4 0,2.209375 1.790625,4 4,4 2.209375,0 4,-1.790625 4,-4 0,-2.209375 -1.790625,-4 -4,-4 z m 0,0"
     id="path14" />
  <path
     style="opacity:0.2;fill:#000000;stroke-width:1.22474"
     d="m 46.000001,46 h 6 v 1 h -6 z m 0,0"
     id="path15" />
  <path
     style="opacity:0.2;fill:#ffffff"
     d="m 17.000001,13 v 1 h 4 v -1 z m 0,2 c 0,0.930834 -0.595464,1.928856 -1.246093,3.001953 -1.336145,2.585782 -3.755385,5.230075 -3.753907,8.636719 v 1 c -0.0015,-3.406644 2.417762,-6.050937 3.753907,-8.636719 C 16.404537,17.928856 17.000001,16.930834 17.000001,16 Z m 4,0 v 1 c 0.01807,0.929213 0.61745,1.927071 1.267578,2.998047 0.0014,0.0015 0.0024,0.0024 0.0039,0.0039 1.337631,2.585788 3.728522,5.230081 3.728522,8.636725 v -1 c 0,-3.406644 -2.390891,-6.050937 -3.728516,-8.636719 -0.0015,-0.0015 -0.0025,-0.0024 -0.0039,-0.0039 C 21.617457,16.927077 21.018072,15.929213 21.000001,15 Z m 7,0 v 1 h 8 v -1 z m 0,2 c 0,0 -2,5.652944 -2,6 v 1 c 0,-0.347056 2,-6 2,-6 z m 8,0 v 1 c 0,0 2,5.812199 2,6 v -1 c 0,-0.187801 -2,-6 -2,-6 z m 5,2 v 1 h 8 v -1 z m 0,4.015625 c -1.598077,0.798434 -3,2.552224 -3,4.376953 v 1 c 0,-1.835301 1.417762,-3.600704 3.027344,-4.392578 h -0.02734 z m 8,0 V 24 h -0.02734 c 1.615494,0.790385 3.02734,2.552811 3.02734,4.392578 v -1 c 0,-1.82918 -1.396168,-3.580023 -3,-4.376953 z"
     id="path16" />
  <path
     d="M 16,4.0000002 C 9.3520066,4.0000002 4,9.352007 4,16 v 1 C 4,10.352007 9.3520066,5 16,5 h 32 c 6.647993,0 12,5.352007 12,12 V 16 C 60,9.352007 54.647993,4.0000002 48,4.0000002 Z"
     style="opacity:0.1;fill:#ffffff;stroke-width:4;stroke-linecap:square"
     id="path1040" />
</svg>
