<?xml version="1.0" encoding="UTF-8" standalone="no"?>
<!-- Created with Inkscape (http://www.inkscape.org/) -->

<svg
   width="64"
   height="64"
   viewBox="0 0 64 64"
   version="1.1"
   id="svg5"
   inkscape:version="1.3.2 (091e20ef0f, 2023-11-25, custom)"
   sodipodi:docname="diodon.svg"
   xmlns:inkscape="http://www.inkscape.org/namespaces/inkscape"
   xmlns:sodipodi="http://sodipodi.sourceforge.net/DTD/sodipodi-0.dtd"
   xmlns="http://www.w3.org/2000/svg"
   xmlns:svg="http://www.w3.org/2000/svg">
  <sodipodi:namedview
     id="namedview7"
     pagecolor="#ffffff"
     bordercolor="#000000"
     borderopacity="0.25"
     inkscape:showpageshadow="2"
     inkscape:pageopacity="0.0"
     inkscape:pagecheckerboard="0"
     inkscape:deskcolor="#d1d1d1"
     inkscape:document-units="px"
     showgrid="false"
     inkscape:zoom="12.84375"
     inkscape:cx="32"
     inkscape:cy="32"
     inkscape:window-width="1920"
     inkscape:window-height="1008"
     inkscape:window-x="0"
     inkscape:window-y="0"
     inkscape:window-maximized="1"
     inkscape:current-layer="svg5" />
  <defs
     id="defs2" />
  <rect
     style="opacity:0.2;fill:#000000;stroke-width:4;stroke-linecap:square"
     id="rect234"
     width="56"
     height="56"
     x="4"
     y="5"
     ry="12" />
  <rect
     style="fill:#b7b7b7;fill-opacity:1;stroke-width:4;stroke-linecap:square"
     id="rect396"
     width="56"
     height="56"
     x="4"
     y="4"
     ry="12" />
  <rect
     style="opacity:0.2;fill:#000000;stroke-width:2"
     id="rect1"
     width="28"
     height="28"
     x="24"
     y="13"
     ry="2" />
  <rect
     style="opacity:0.2;fill:#000000;stroke-width:2"
     id="rect2"
     width="28"
     height="28"
     x="12"
     y="25"
     ry="2" />
  <rect
     style="fill:#d3d3d3;fill-opacity:1;stroke-width:2"
     id="rect3"
     width="28"
     height="28"
     x="24"
     y="12"
     ry="2" />
  <path
     id="path1"
     style="opacity:0.2;fill:#000000;stroke-width:2"
     d="m 30,19 v 2 h 16 v -2 z m 0,4 v 2 h 16 v -2 z m 0,4 v 2 h 16 v -2 z m 0,4 v 2 h 10 v -2 z" />
  <rect
     style="fill:#e4e4e4;fill-opacity:1;stroke-width:2"
     id="rect4"
     width="28"
     height="28"
     x="12"
     y="24"
     ry="2" />
  <path
     id="path4"
     style="opacity:0.5;fill:#000000;stroke-width:2"
     d="m 18,31 v 2 h 16 v -2 z m 0,4 v 2 h 16 v -2 z m 0,4 v 2 h 16 v -2 z m 0,4 v 2 h 10 v -2 z" />
  <path
     id="rect5"
     style="opacity:0.1;fill:#ffffff;fill-opacity:1;stroke-width:2"
     d="m 26,12 c -1.107996,0 -2,0.892002 -2,2 v 1 c 0,-1.107998 0.892004,-2 2,-2 h 24 c 1.107996,0 2,0.892002 2,2 v -1 c 0,-1.107998 -0.892004,-2 -2,-2 z" />
  <path
     id="rect6"
     style="opacity:0.1;fill:#ffffff;fill-opacity:1;stroke-width:2"
     d="m 14,24 c -1.107998,0 -2,0.892004 -2,2 v 1 c 0,-1.107996 0.892002,-2 2,-2 h 24 c 1.107996,0 2,0.892004 2,2 v -1 c 0,-1.107996 -0.892004,-2 -2,-2 z" />
  <g
     id="g361"
     transform="matrix(0.99999418,0,0,0.99999418,6.98e-5,6.98e-5)" />
  <path
     id="path1040"
     style="opacity:0.2;fill:#ffffff;stroke-width:4;stroke-linecap:square"
     d="M 16,4 C 9.3520132,4 4,9.3520136 4,16 v 1 C 4,10.352014 9.3520132,5 16,5 h 32 c 6.647986,0 12,5.352014 12,12 V 16 C 60,9.3520136 54.647986,4 48,4 Z" />
</svg>
