<?xml version="1.0" encoding="UTF-8" standalone="no"?>
<!-- Created with Inkscape (http://www.inkscape.org/) -->

<svg
   width="64"
   height="64"
   viewBox="0 0 64 64"
   version="1.1"
   id="svg5"
   inkscape:version="1.3 (1:1.3+202307231459+0e150ed6c4)"
   sodipodi:docname="evince.svg"
   xmlns:inkscape="http://www.inkscape.org/namespaces/inkscape"
   xmlns:sodipodi="http://sodipodi.sourceforge.net/DTD/sodipodi-0.dtd"
   xmlns="http://www.w3.org/2000/svg"
   xmlns:svg="http://www.w3.org/2000/svg">
  <sodipodi:namedview
     id="namedview7"
     pagecolor="#ffffff"
     bordercolor="#000000"
     borderopacity="0.25"
     inkscape:showpageshadow="2"
     inkscape:pageopacity="0.0"
     inkscape:pagecheckerboard="0"
     inkscape:deskcolor="#d1d1d1"
     inkscape:document-units="px"
     showgrid="false"
     inkscape:zoom="11.21875"
     inkscape:cx="32"
     inkscape:cy="31.955432"
     inkscape:window-width="1920"
     inkscape:window-height="1008"
     inkscape:window-x="0"
     inkscape:window-y="0"
     inkscape:window-maximized="1"
     inkscape:current-layer="svg5" />
  <defs
     id="defs2" />
  <rect
     style="opacity:0.2;fill:#000000;stroke-width:4;stroke-linecap:square"
     id="rect234"
     width="56"
     height="56"
     x="4"
     y="5"
     ry="12" />
  <rect
     style="fill:#e4e4e4;fill-opacity:1;stroke-width:4;stroke-linecap:square"
     id="rect396"
     width="56"
     height="56"
     x="4"
     y="4"
     ry="12" />
  <path
     id="path2"
     style="opacity:0.2;fill:#000000;stroke-width:2"
     d="M 12,18 V 30 H 28 V 20 h 24 v -2 z m 0,16 v 10 h 10 v -2 h 6 v -8 z m 0,14 v 4 h 32 v -2 h 8 v -2 z" />
  <rect
     style="fill:#ff4d39;stroke-width:2.5"
     width="19.985001"
     height="20"
     x="32"
     y="24"
     rx="0"
     ry="0"
     id="rect3" />
  <path
     style="opacity:0.2;fill:#000000;stroke-width:2.5"
     d="m 32.318346,40.754966 c 3.72724,-1.075106 7.638506,-2.39863 10.50032,-5.04205 1.158744,-1.09652 2.023618,-3.138634 1.45228,-4.73839 -0.58851,-1.64231 -2.872696,-2.306326 -4.478366,-1.97626 -2.364052,0.408538 -4.765936,2.56603 -5.109312,5.026396 -0.341114,2.17705 1.261,3.771558 3.134066,4.762098 2.502544,1.330324 5.50012,1.440344 8.234316,0.891874 1.858852,-0.39218 4.391206,-1.15221 5.94835,-2.242418 l -0.015,-3.2425 c -2.681776,2.94818 -7.48992,4.694248 -11.486384,4.358318 -1.974206,-0.16534 -4.213124,-0.83514 -4.773166,-2.841526 -0.537392,-1.860512 0.7695,-4.185998 2.427504,-5.04309 1.190256,-0.64723 3.135482,-1.053552 4.321486,-0.18284 1.112642,0.842406 0.970392,2.86287 0.21775,3.898482 -1.227106,1.679158 -3.33859,2.361064 -5.008116,3.557378 -1.68468,1.120526 -3.485994,2.066082 -5.365714,2.81454 z"
     id="path3" />
  <path
     style="fill:#ffffff;stroke-width:2.5"
     d="m 32.318346,39.754376 c 3.72724,-1.075106 7.638506,-2.39863 10.50032,-5.04205 1.158744,-1.09652 2.023618,-3.138634 1.45228,-4.73839 -0.58851,-1.64231 -2.872696,-2.306326 -4.478366,-1.97626 -2.364052,0.408538 -4.765936,2.56603 -5.109312,5.026396 -0.341114,2.17705 1.261,3.771558 3.134066,4.762098 2.502544,1.330324 5.50012,1.440344 8.234316,0.891874 1.858852,-0.39218 4.391206,-1.15221 5.94835,-2.242418 l -0.015,-3.2425 c -2.681776,2.94818 -7.48992,4.694248 -11.486384,4.358318 -1.974206,-0.16534 -4.213124,-0.83514 -4.773166,-2.841526 -0.537392,-1.860512 0.7695,-4.185998 2.427504,-5.04309 1.190256,-0.64723 3.135482,-1.053552 4.321486,-0.18284 1.112642,0.842406 0.970392,2.86287 0.21775,3.898482 -1.227106,1.679158 -3.33859,2.361064 -5.008116,3.557378 -1.68468,1.120526 -3.485994,2.066082 -5.365714,2.81454 z"
     id="path4" />
  <path
     style="opacity:0.4;fill:#000000;stroke-width:2"
     d="m 12,12 v 2 h 20 v -2 z"
     id="path5" />
  <path
     d="M 16,4.0000002 C 9.3520066,4.0000002 4,9.352007 4,16 v 1 C 4,10.352007 9.3520066,5 16,5 h 32 c 6.647993,0 12,5.352007 12,12 V 16 C 60,9.352007 54.647993,4.0000002 48,4.0000002 Z"
     style="opacity:0.2;fill:#ffffff;stroke-width:4;stroke-linecap:square"
     id="path1040" />
</svg>
