<?xml version="1.0" encoding="UTF-8" standalone="no"?>
<!-- Created with Inkscape (http://www.inkscape.org/) -->

<svg
   width="64"
   height="64"
   viewBox="0 0 64 64"
   version="1.1"
   id="svg5"
   inkscape:version="1.3.2 (091e20ef0f, 2023-11-25, custom)"
   sodipodi:docname="flash.svg"
   xmlns:inkscape="http://www.inkscape.org/namespaces/inkscape"
   xmlns:sodipodi="http://sodipodi.sourceforge.net/DTD/sodipodi-0.dtd"
   xmlns="http://www.w3.org/2000/svg"
   xmlns:svg="http://www.w3.org/2000/svg">
  <sodipodi:namedview
     id="namedview7"
     pagecolor="#ffffff"
     bordercolor="#000000"
     borderopacity="0.25"
     inkscape:showpageshadow="2"
     inkscape:pageopacity="0.0"
     inkscape:pagecheckerboard="0"
     inkscape:deskcolor="#d1d1d1"
     inkscape:document-units="px"
     showgrid="false"
     inkscape:zoom="12.421875"
     inkscape:cx="31.959748"
     inkscape:cy="32"
     inkscape:window-width="1920"
     inkscape:window-height="1008"
     inkscape:window-x="0"
     inkscape:window-y="0"
     inkscape:window-maximized="1"
     inkscape:current-layer="svg5" />
  <defs
     id="defs2" />
  <rect
     style="opacity:0.2;fill:#000000;stroke-width:4;stroke-linecap:square"
     id="rect234"
     width="56"
     height="56"
     x="4"
     y="5"
     ry="12" />
  <rect
     style="fill:#c2352a;fill-opacity:1;stroke-width:4;stroke-linecap:square"
     id="rect396"
     width="56"
     height="56"
     x="4"
     y="4"
     ry="12" />
  <path
     opacity="0.2"
     d="m 48.0006,13.013166 v 8.0468 c -8.034,0.14128 -10.0084,7.9762 -10.0084,7.9762 h 6.0596 v 8.0468 H 34.656 C 29.004,54.518966 16,52.964966 16,52.964966 v -8.0468 c 0,0 8.252,1.5308 12.4596,-13.8348 5.262,-19.2218 19.54,-18.0708 19.54,-18.0708 z"
     id="path3"
     style="fill:#000000;stroke-width:2" />
  <path
     fill="#ffffff"
     d="m 48.0006,12.013766 v 8.0468 c -8.034,0.14128 -10.0084,7.9762 -10.0084,7.9762 h 6.0596 v 8.0468 H 34.656 C 29.004,53.519566 16,51.965566 16,51.965566 v -8.0468 c 0,0 8.252,1.5308 12.4596,-13.8348 5.262,-19.2218 19.54,-18.0708 19.54,-18.0708 z"
     id="path4"
     style="stroke-width:2" />
  <path
     id="path1040"
     style="opacity:0.2;fill:#ffffff;stroke-width:4;stroke-linecap:square"
     d="M 16,4 C 9.3520132,4 4,9.3520136 4,16 v 1 C 4,10.352014 9.3520132,5 16,5 h 32 c 6.647986,0 12,5.352014 12,12 V 16 C 60,9.3520136 54.647986,4 48,4 Z" />
</svg>
