<?xml version="1.0" encoding="UTF-8" standalone="no"?>
<!-- Created with Inkscape (http://www.inkscape.org/) -->

<svg
   width="64"
   height="64"
   viewBox="0 0 64 64"
   version="1.1"
   id="svg5"
   inkscape:version="1.3 (0e150ed6c4, 2023-07-21)"
   sodipodi:docname="gnome-characters.svg"
   xmlns:inkscape="http://www.inkscape.org/namespaces/inkscape"
   xmlns:sodipodi="http://sodipodi.sourceforge.net/DTD/sodipodi-0.dtd"
   xmlns="http://www.w3.org/2000/svg"
   xmlns:svg="http://www.w3.org/2000/svg">
  <sodipodi:namedview
     id="namedview7"
     pagecolor="#ffffff"
     bordercolor="#000000"
     borderopacity="0.25"
     inkscape:showpageshadow="2"
     inkscape:pageopacity="0.0"
     inkscape:pagecheckerboard="0"
     inkscape:deskcolor="#d1d1d1"
     inkscape:document-units="px"
     showgrid="false"
     inkscape:zoom="12.546875"
     inkscape:cx="32"
     inkscape:cy="32"
     inkscape:window-width="1850"
     inkscape:window-height="1011"
     inkscape:window-x="70"
     inkscape:window-y="32"
     inkscape:window-maximized="1"
     inkscape:current-layer="svg5" />
  <defs
     id="defs2" />
  <rect
     style="opacity:0.2;fill:#000000;stroke-width:4;stroke-linecap:square"
     id="rect234"
     width="56"
     height="56"
     x="4"
     y="5"
     ry="12" />
  <rect
     style="fill:#e4e4e4;fill-opacity:1;stroke-width:4;stroke-linecap:square"
     id="rect396"
     width="56"
     height="56"
     x="4"
     y="4"
     ry="12" />
  <path
     id="path2"
     style="opacity:0.1;fill:#000000"
     d="M 12.099609 10 L 12.099609 21.769531 C 12.099609 21.769531 12.138387 23.72085 10.048828 24.765625 L 11.587891 27.242188 C 15.036791 25.517734 15.099609 22.769531 15.099609 22.769531 L 15.099609 23 L 23 23 L 23 23.460938 C 23 23.460938 23.06248 23.269909 22.755859 24.005859 C 22.449209 24.74181 22.180829 25.230469 21.003906 25.230469 L 20.3125 25.230469 L 19.076172 28 L 20.460938 28 L 21.154297 28 C 23.43891 28 24.902206 26.411285 25.460938 25.070312 C 26.019679 23.729341 26 22.460938 26 22.460938 L 26 10 L 12.099609 10 z M 45.404297 10 C 40.74874 10 37 13.74874 37 18.404297 L 37 19.595703 C 37 24.25126 40.74874 28 45.404297 28 L 46.595703 28 C 51.25126 28 55 24.25126 55 19.595703 L 55 18.404297 C 55 13.74874 51.25126 10 46.595703 10 L 45.404297 10 z M 15.099609 13 L 23 13 L 23 15 L 15.099609 15 L 15.099609 13 z M 15.099609 18 L 23 18 L 23 20 L 15.099609 20 L 15.099609 18 z M 17.988281 38 C 17.546992 38 17.149096 38.085431 16.792969 38.255859 C 16.343937 38.472774 15.995789 38.705224 15.748047 38.953125 C 15.453853 39.247508 15.225081 39.583292 15.0625 39.962891 C 14.899919 40.342488 14.818359 40.757708 14.818359 41.207031 C 14.818359 41.640858 14.895939 42.052109 15.050781 42.439453 C 15.205621 42.826805 15.43837 43.166555 15.748047 43.460938 C 15.825467 43.538397 15.95677 43.64766 16.142578 43.787109 C 16.266451 43.880069 16.38185 43.98139 16.490234 44.089844 C 16.768946 44.353243 16.993742 44.677109 17.164062 45.064453 C 17.334385 45.44405 17.419922 45.895013 17.419922 46.414062 C 16.932181 46.414063 16.498494 46.336581 16.119141 46.181641 C 15.739785 46.026695 15.395614 45.794251 15.085938 45.484375 C 14.931107 45.329452 14.829663 45.22019 14.783203 45.158203 C 14.64384 44.95679 14.536395 44.817714 14.458984 44.740234 C 14.164792 44.445858 13.830596 44.21737 13.458984 44.054688 C 13.095113 43.892 12.677337 43.810547 12.205078 43.810547 C 11.756047 43.810547 11.342244 43.891997 10.962891 44.054688 C 10.583536 44.217371 10.247319 44.445858 9.953125 44.740234 C 9.6744163 45.019128 9.4416662 45.366817 9.2558594 45.785156 C 9.0855375 46.157004 9 46.564284 9 47.005859 C 9 47.447435 9.0855405 47.846764 9.2558594 48.203125 C 9.4648922 48.652445 9.6976413 49.000144 9.953125 49.248047 C 10.247319 49.542428 10.583536 49.77091 10.962891 49.933594 C 11.342244 50.09628 11.756047 50.177734 12.205078 50.177734 C 12.638627 50.177734 13.048451 50.100264 13.435547 49.945312 C 13.822643 49.790384 14.164792 49.557923 14.458984 49.248047 C 14.536404 49.170577 14.643848 49.039445 14.783203 48.853516 C 14.876113 48.729561 14.977554 48.61236 15.085938 48.503906 C 15.387871 48.201779 15.728066 47.973295 16.107422 47.818359 C 16.494518 47.655675 16.932181 47.576172 17.419922 47.576172 C 17.419922 48.071968 17.338362 48.509064 17.175781 48.888672 C 17.020942 49.260521 16.79217 49.604255 16.490234 49.921875 C 16.38959 50.022608 16.278169 50.119944 16.154297 50.212891 C 15.960741 50.35235 15.825458 50.46161 15.748047 50.539062 C 15.44611 50.841194 15.213361 51.184924 15.050781 51.572266 C 14.895943 51.959611 14.818359 52.370854 14.818359 52.804688 C 14.818359 53.254003 14.899919 53.667274 15.0625 54.046875 C 15.225081 54.426478 15.453853 54.764216 15.748047 55.058594 C 16.026757 55.337491 16.374905 55.569939 16.792969 55.755859 C 17.156838 55.918547 17.558709 56 18 56 C 18.44129 56 18.843162 55.91855 19.207031 55.755859 C 19.625097 55.569939 19.973244 55.337491 20.251953 55.058594 C 20.546146 54.764216 20.774919 54.426478 20.9375 54.046875 C 21.10008 53.667274 21.181641 53.254003 21.181641 52.804688 C 21.181641 52.370854 21.100081 51.959611 20.9375 51.572266 C 20.782663 51.184924 20.553889 50.841195 20.251953 50.539062 C 20.174533 50.461593 20.039251 50.352334 19.845703 50.212891 C 19.721833 50.119931 19.610412 50.022595 19.509766 49.921875 C 19.254282 49.666228 19.033464 49.346326 18.847656 48.958984 C 18.669592 48.56388 18.580078 48.102952 18.580078 47.576172 C 19.075561 47.576172 19.509247 47.655673 19.880859 47.818359 C 20.260214 47.973295 20.608363 48.201779 20.925781 48.503906 C 21.026424 48.604622 21.12389 48.71785 21.216797 48.841797 C 21.356158 49.035477 21.463602 49.17058 21.541016 49.248047 C 21.842949 49.550178 22.189075 49.782639 22.576172 49.945312 C 22.963267 50.100259 23.37309 50.177734 23.806641 50.177734 C 24.25567 50.177734 24.669472 50.096284 25.048828 49.933594 C 25.42818 49.77091 25.764399 49.542428 26.058594 49.248047 C 26.337302 48.969154 26.570055 48.621454 26.755859 48.203125 C 26.918441 47.83902 27 47.435714 27 46.994141 C 27 46.552562 26.91844 46.149259 26.755859 45.785156 C 26.570056 45.366817 26.337303 45.019128 26.058594 44.740234 C 25.764399 44.445858 25.42818 44.21737 25.048828 44.054688 C 24.669472 43.891999 24.255669 43.810547 23.806641 43.810547 C 23.37309 43.810547 22.963267 43.891997 22.576172 44.054688 C 22.189075 44.209625 21.842949 44.438113 21.541016 44.740234 C 21.463596 44.817704 21.356154 44.952811 21.216797 45.146484 C 21.123897 45.270431 21.026435 45.383668 20.925781 45.484375 C 20.670298 45.740032 20.346009 45.960564 19.951172 46.146484 C 19.564075 46.32467 19.106529 46.414063 18.580078 46.414062 C 18.580078 45.92601 18.653688 45.494904 18.800781 45.123047 C 18.955619 44.743444 19.192346 44.399723 19.509766 44.089844 C 19.664599 43.934881 19.772044 43.833563 19.833984 43.787109 C 20.035283 43.64765 20.174542 43.53839 20.251953 43.460938 C 20.546146 43.166555 20.774919 42.838717 20.9375 42.474609 C 21.10008 42.102757 21.181641 41.679594 21.181641 41.207031 C 21.181641 40.757708 21.100081 40.342488 20.9375 39.962891 C 20.774919 39.583292 20.546146 39.247508 20.251953 38.953125 C 19.973244 38.674234 19.625097 38.441785 19.207031 38.255859 C 18.83542 38.085428 18.429571 38 17.988281 38 z M 48.5 38 C 47.671593 38 47 38.671585 47 39.5 C 47 40.328407 47.671593 41.000002 48.5 41 C 49.328411 41 50 40.328407 50 39.5 C 50 38.671591 49.328411 38.000002 48.5 38 z M 45.5 42 C 44.671589 42 44 42.671597 44 43.5 C 44 44.328417 44.671589 45 45.5 45 C 46.328408 45 47 44.328411 47 43.5 C 47 42.671597 46.328408 42 45.5 42 z M 51.5 42 C 50.671591 42 50 42.671597 50 43.5 C 50 44.328417 50.671591 45 51.5 45 C 52.328409 45 53 44.328411 53 43.5 C 53 42.671597 52.328409 42 51.5 42 z M 56 46.492188 L 53 47.710938 L 53 50.003906 L 50 50.003906 L 50 48.925781 L 50 47.710938 L 47 48.925781 L 47 50.003906 L 44.078125 49.996094 L 44.078125 48.722656 L 41.402344 50.15625 L 41.402344 51.96875 C 41.402344 52.750443 40.613726 53.382812 39.832031 53.382812 C 39.050337 53.382812 38.402344 52.750443 38.402344 51.96875 L 38.402344 50.988281 L 35.636719 52.59375 C 35.94714 54.671182 37.731537 56.211926 39.832031 56.214844 C 42.164213 56.213444 44.057519 54.328217 44.074219 51.996094 L 44.078125 51.996094 L 56 52 L 56 46.492188 z " />
  <path
     style="fill:#26a269"
     d="m 48.500282,37 c -0.828408,0 -1.5,0.671584 -1.5,1.5 0,0.828408 0.671592,1.500002 1.5,1.5 0.828412,0 1.5,-0.671592 1.5,-1.5 0,-0.82841 -0.671588,-1.499998 -1.5,-1.5 z m -3,4 c -0.828412,0 -1.5,0.671596 -1.5,1.5 0,0.828418 0.671588,1.5 1.5,1.5 0.828408,0 1.5,-0.671588 1.5,-1.5 0,-0.828404 -0.671592,-1.5 -1.5,-1.5 z m 6,0 c -0.82841,0 -1.5,0.671596 -1.5,1.5 0,0.828418 0.67159,1.5 1.5,1.5 0.82841,0 1.5,-0.671588 1.5,-1.5 0,-0.828404 -0.67159,-1.5 -1.5,-1.5 z m 4.5,4.492188 -3,1.21875 v 2.292968 h -3 v -1.078124 -1.214844 l -3,1.214844 v 1.078124 l -2.921876,-0.0078 v -1.273438 l -2.67578,1.433594 v 1.8125 c 0,0.781694 -0.788616,1.414062 -1.570312,1.414062 -0.781696,0 -1.429688,-0.632368 -1.429688,-1.414062 V 49.988294 L 35.637,51.593762 c 0.310422,2.077434 2.094818,3.618176 4.195314,3.621094 2.332184,-0.0014 4.225486,-1.886624 4.242186,-4.21875 h 0.004 L 56.000282,51 Z"
     id="path3" />
  <path
     style="fill:#a347ba"
     d="m 17.419355,45.413172 q 0,-0.778576 -0.255483,-1.347972 -0.255483,-0.581018 -0.67355,-0.976118 -0.162576,-0.16268 -0.348385,-0.302124 -0.278712,-0.209176 -0.394839,-0.32537 -0.464516,-0.441574 -0.696775,-1.022602 -0.232258,-0.581018 -0.232258,-1.231758 0,-0.673986 0.243871,-1.243384 0.243871,-0.569398 0.685162,-1.010972 0.371613,-0.371852 1.045161,-0.697224 Q 17.326452,37 17.988388,37 q 0.661935,0 1.219354,0.255648 0.627098,0.278888 1.045162,0.697224 0.441289,0.441574 0.68516,1.010972 0.24387,0.569398 0.24387,1.243384 0,0.708844 -0.24387,1.266624 -0.243871,0.546162 -0.68516,0.987736 -0.116116,0.11618 -0.418064,0.32537 -0.09291,0.06968 -0.325162,0.302124 -0.476129,0.46482 -0.708386,1.034224 -0.220646,0.557786 -0.220646,1.289866 0.789677,0 1.370323,-0.267278 0.592257,-0.278882 0.975483,-0.662368 0.15098,-0.15106 0.290324,-0.33698 0.209036,-0.290512 0.325162,-0.406724 0.452902,-0.453184 1.033548,-0.685592 0.580644,-0.244032 1.23097,-0.244032 0.673544,0 1.24258,0.244032 0.569028,0.244026 1.01032,0.685592 0.418066,0.41834 0.696772,1.04585 0.243874,0.546154 0.243874,1.208522 0,0.662362 -0.243872,1.20852 -0.278708,0.627494 -0.696772,1.045834 -0.441292,0.441572 -1.01032,0.685598 -0.569036,0.24403 -1.242582,0.24403 -0.650326,0 -1.23097,-0.23242 -0.580646,-0.244012 -1.033548,-0.697208 -0.11612,-0.1162 -0.325162,-0.40672 -0.13936,-0.18592 -0.290324,-0.336994 -0.476129,-0.453192 -1.045161,-0.685596 -0.55742,-0.244028 -1.300645,-0.244028 0,0.790172 0.267096,1.38283 0.278711,0.581012 0.661936,0.964482 0.15097,0.15108 0.336775,0.29052 0.290322,0.209166 0.406451,0.32537 0.452904,0.453198 0.68516,1.03421 0.24387,0.58102 0.24387,1.23177 0,0.673974 -0.24387,1.243376 -0.243871,0.569404 -0.68516,1.01097 -0.418064,0.418348 -1.045162,0.69723 Q 18.661936,55 18.000001,55 q -0.661936,0 -1.207742,-0.244032 -0.627096,-0.278882 -1.045161,-0.69723 -0.441291,-0.441566 -0.685162,-1.01097 -0.243871,-0.569402 -0.243871,-1.243376 0,-0.65075 0.232258,-1.23177 0.24387,-0.581012 0.696775,-1.03421 0.116116,-0.11618 0.40645,-0.32537 0.185808,-0.13942 0.336774,-0.29052 0.452904,-0.47643 0.685163,-1.034204 0.24387,-0.569412 0.24387,-1.313108 -0.731612,0 -1.312257,0.244028 -0.569034,0.232404 -1.021936,0.685596 -0.162576,0.16268 -0.301936,0.348612 -0.209032,0.278896 -0.325161,0.395102 -0.44129,0.464814 -1.021936,0.697208 -0.580644,0.23242 -1.230968,0.23242 -0.673548,0 -1.24258,-0.24403 Q 10.393549,48.69012 9.952257,48.248548 9.569031,47.876694 9.255483,47.202714 9,46.668172 9,46.005808 q 0,-0.662364 0.255483,-1.220136 0.27871,-0.62751 0.696774,-1.04585 0.441292,-0.441566 1.010324,-0.685592 0.569032,-0.244032 1.24258,-0.244032 0.708388,0 1.254196,0.244032 0.557418,0.244026 0.998708,0.685592 0.116116,0.11622 0.325161,0.41834 0.06969,0.09298 0.301936,0.325364 0.464516,0.464814 1.033549,0.697232 0.569032,0.232414 1.300644,0.232414 z"
     id="path4" />
  <rect
     style="fill:#ffb820"
     width="18"
     height="18"
     x="37"
     y="9"
     ry="8.4040003"
     id="rect4" />
  <path
     style="fill:#c01c27"
     d="m 43,21 h 6 c 0,0 0,2 -3,2 -3,0 -3,-2 -3,-2 z"
     id="path5" />
  <rect
     style="fill:#ffffff"
     width="6"
     height="1"
     x="43"
     y="20"
     id="rect5" />
  <path
     style="fill:#b45600"
     d="m 41,15.750002 c 0,-0.414219 0.44772,-0.750001 1.000003,-0.750001 0.552277,0 0.999997,0.335782 0.999997,0.750001 v 2.249999 h -2 z"
     id="path6" />
  <path
     style="fill:#b45600"
     d="m 49,15.750002 c 0,-0.414219 0.44772,-0.750001 1.000003,-0.750001 0.552277,0 0.999997,0.335782 0.999997,0.750001 v 2.249999 h -2 z"
     id="path7" />
  <path
     style="fill:#4191ef"
     d="m 12.09987,9 v 11.769231 c 0,0 0.03899,1.951618 -2.050568,2.996394 l 1.538789,2.475811 c 3.448905,-1.724455 3.511779,-4.471974 3.511779,-4.471974 v 0.230769 h 7.899716 v 0.461538 c 0,0 0.06187,-0.19201 -0.244756,0.543941 -0.306651,0.735951 -0.574128,1.225059 -1.751052,1.225059 H 20.31147 L 19.07651,27 h 1.384615 0.692308 c 2.284615,0 3.747907,-1.587813 4.306639,-2.928786 0.558743,-1.340973 0.539514,-2.609676 0.539514,-2.609676 V 9 Z m 3,3 h 7.899716 v 2 H 15.09987 Z m 0,5 h 7.899716 v 2.000231 H 15.09987 Z"
     id="path9" />
  <path
     style="opacity:0.1;fill:#000000"
     d="M 31,4 V 31 H 4 v 2 h 27 v 27 h 2 V 33 H 60 V 31 H 33 V 4 Z"
     id="path10" />
  <path
     d="M 16,4.0000002 C 9.3520066,4.0000002 4,9.352007 4,16 v 1 C 4,10.352007 9.3520066,5 16,5 h 32 c 6.647993,0 12,5.352007 12,12 V 16 C 60,9.352007 54.647993,4.0000002 48,4.0000002 Z"
     style="opacity:0.2;fill:#ffffff;stroke-width:4;stroke-linecap:square"
     id="path1040" />
</svg>
