<?xml version="1.0" encoding="UTF-8" standalone="no"?>
<!-- Created with Inkscape (http://www.inkscape.org/) -->

<svg
   width="64"
   height="64"
   viewBox="0 0 64 64"
   version="1.1"
   id="svg5"
   inkscape:version="1.3 (1:1.3+202307231459+0e150ed6c4)"
   sodipodi:docname="gnome-contacts.svg"
   xmlns:inkscape="http://www.inkscape.org/namespaces/inkscape"
   xmlns:sodipodi="http://sodipodi.sourceforge.net/DTD/sodipodi-0.dtd"
   xmlns="http://www.w3.org/2000/svg"
   xmlns:svg="http://www.w3.org/2000/svg">
  <sodipodi:namedview
     id="namedview7"
     pagecolor="#ffffff"
     bordercolor="#000000"
     borderopacity="0.25"
     inkscape:showpageshadow="2"
     inkscape:pageopacity="0.0"
     inkscape:pagecheckerboard="0"
     inkscape:deskcolor="#d1d1d1"
     inkscape:document-units="px"
     showgrid="false"
     inkscape:zoom="11.21875"
     inkscape:cx="32"
     inkscape:cy="31.955432"
     inkscape:window-width="1920"
     inkscape:window-height="1008"
     inkscape:window-x="0"
     inkscape:window-y="0"
     inkscape:window-maximized="1"
     inkscape:current-layer="svg5" />
  <defs
     id="defs2" />
  <rect
     style="opacity:0.2;fill:#000000;stroke-width:4;stroke-linecap:square"
     id="rect234"
     width="56"
     height="56"
     x="4"
     y="5"
     ry="12" />
  <rect
     style="fill:#3f89db;fill-opacity:1;stroke-width:4;stroke-linecap:square"
     id="rect396"
     width="54"
     height="56"
     x="4"
     y="4"
     ry="12" />
  <path
     d="m 25.9998,17.000798 c -8.83629,0 -15.9994,7.163112 -15.9994,15.9994 0,8.83549 7.16311,15.999402 15.9994,15.999402 h 9.999476 c 0,0 1.874776,0 1.999974,-1.999976 0,-1.999974 -1.999974,-1.999974 -1.999974,-1.999974 H 25.9998 c -6.627116,0 -11.99945,-5.372334 -11.99945,-11.999452 0,-6.627116 5.372334,-11.99945 11.99945,-11.99945 6.627118,0 11.99945,5.372334 11.99945,11.99945 v 1.999976 c 0,1.104386 -0.895588,1.999974 -1.999974,1.999974 -1.104388,0 -1.999974,-0.895588 -1.999974,-1.999974 v -1.999976 c 0,-4.417944 -3.581556,-7.9999 -7.999902,-7.9999 -4.417942,0 -7.9999,3.581556 -7.9999,7.9999 0,4.417946 3.581558,7.999502 7.9999,7.999502 2.092374,0 3.980352,-0.82119 5.405932,-2.136374 1.139986,1.353982 2.821966,2.135974 4.593944,2.135974 C 39.312034,40.9993 42,38.312932 42,34.999374 V 32.9994 C 42,24.16391 34.83529,17 25.9994,17 Z m 0,11.99945 c 2.209174,0 3.999952,1.790778 3.999952,3.99995 0,2.208774 -1.790778,3.999552 -3.99995,3.999552 -2.209172,0 -3.99995,-1.790778 -3.99995,-3.99995 0,-2.209174 1.790778,-3.99995 3.99995,-3.99995 z"
     style="opacity:0.2;fill:#000000;stroke-width:3.99994"
     id="path1" />
  <path
     style="fill:#ffffff;stroke-width:3.99994"
     d="M 25.9994,16.0008 C 17.16311,16.0008 10,23.16391 10,32.0002 c 0,8.83549 7.16311,15.9994 15.9994,15.9994 h 9.999476 c 0,0 1.874776,0 1.999974,-1.999974 0,-1.999976 -1.999974,-1.999976 -1.999974,-1.999976 H 25.9994 c -6.627116,0 -11.99945,-5.372332 -11.99945,-11.99945 0,-6.627118 5.372334,-11.99945 11.99945,-11.99945 6.627118,0 11.99945,5.372332 11.99945,11.99945 v 1.999974 c 0,1.104388 -0.895588,1.999976 -1.999974,1.999976 -1.104388,0 -1.999974,-0.895588 -1.999974,-1.999976 V 32.0002 c 0,-4.417944 -3.581556,-7.9999 -7.9999,-7.9999 -4.417944,0 -7.999902,3.581556 -7.999902,7.9999 0,4.417944 3.581558,7.9995 7.999902,7.9995 2.092374,0 3.98035,-0.82119 5.405932,-2.136374 1.139984,1.353984 2.821966,2.135974 4.593942,2.135974 3.31276,0 6.000724,-2.686366 6.000724,-5.999924 V 31.9994 C 41.9996,23.16391 34.83489,16 25.999002,16 Z m 0,11.99945 c 2.209174,0 3.999952,1.790778 3.999952,3.99995 0,2.208772 -1.790778,3.99955 -3.99995,3.99955 -2.209172,0 -3.99995,-1.790778 -3.99995,-3.99995 0,-2.209172 1.790778,-3.99995 3.99995,-3.99995 z"
     id="path4" />
  <path
     id="rect1"
     style="fill:#55b65a;fill-opacity:1;stroke-width:2.68328;stroke-linecap:round;stroke-linejoin:round"
     d="M 48,4.0000002 46,4 V 24 H 60 V 16 C 60,9.3520068 54.647994,4.0000002 48,4.0000002 Z"
     sodipodi:nodetypes="ccccsc" />
  <path
     id="rect3"
     style="fill:#fe6c06;fill-opacity:1;stroke-width:2.68328;stroke-linecap:round;stroke-linejoin:round"
     d="m 46,34 v 26 h 2 c 6.647994,0 12,-5.352006 12,-12 V 34 Z" />
  <rect
     style="fill:#fec006;fill-opacity:1;stroke-width:2.89828;stroke-linecap:round;stroke-linejoin:round"
     id="rect2"
     width="14"
     height="18"
     x="46"
     y="20" />
  <path
     id="rect4"
     style="opacity:0.2;fill:#ffffff;fill-opacity:1;stroke-width:3.24038;stroke-linecap:round;stroke-linejoin:round"
     d="m 46,20 v 1 h 14 v -1 z m 0,18 v 1 h 14 v -1 z" />
  <path
     id="path1040"
     style="opacity:0.2;fill:#ffffff;stroke-width:4;stroke-linecap:square"
     d="M 16,4 C 9.3520132,4 4,9.3520136 4,16 v 1 C 4,10.352014 9.3520132,5 16,5 h 32 c 6.647986,0 12,5.352014 12,12 V 16 C 60,9.3520136 54.647986,4 48,4 Z" />
</svg>
