<?xml version="1.0" encoding="UTF-8" standalone="no"?>
<!-- Created with Inkscape (http://www.inkscape.org/) -->

<svg
   width="64"
   height="64"
   viewBox="0 0 64 64"
   version="1.1"
   id="svg5"
   inkscape:version="1.2.2 (1:1.2.2+202305151914+b0a8486541)"
   sodipodi:docname="google-drive.svg"
   xmlns:inkscape="http://www.inkscape.org/namespaces/inkscape"
   xmlns:sodipodi="http://sodipodi.sourceforge.net/DTD/sodipodi-0.dtd"
   xmlns="http://www.w3.org/2000/svg"
   xmlns:svg="http://www.w3.org/2000/svg">
  <sodipodi:namedview
     id="namedview7"
     pagecolor="#ffffff"
     bordercolor="#000000"
     borderopacity="0.25"
     inkscape:showpageshadow="2"
     inkscape:pageopacity="0.0"
     inkscape:pagecheckerboard="0"
     inkscape:deskcolor="#d1d1d1"
     inkscape:document-units="px"
     showgrid="false"
     inkscape:zoom="12.59375"
     inkscape:cx="32"
     inkscape:cy="32"
     inkscape:window-width="1920"
     inkscape:window-height="1008"
     inkscape:window-x="0"
     inkscape:window-y="0"
     inkscape:window-maximized="1"
     inkscape:current-layer="svg5" />
  <defs
     id="defs2" />
  <rect
     style="opacity:0.2;fill:#000000;stroke-width:4;stroke-linecap:square"
     id="rect234"
     width="56"
     height="56"
     x="4"
     y="5"
     ry="12" />
  <rect
     style="fill:#efefef;stroke-width:4;stroke-linecap:square;fill-opacity:1"
     id="rect396"
     width="56"
     height="56"
     x="4"
     y="4"
     ry="12" />
  <g
     id="g2323"
     transform="translate(8.0000001,8.0000001)">
    <path
       style="opacity:0.2;fill:#000000"
       d="M 19.550781,6 C 18.781022,6 18.03425,6.2185998 17.384766,6.5839844 16.735281,6.973728 16.181754,7.5093549 15.796875,8.1914062 L 3.578125,29.628906 C 3.2003236,30.296248 3.000503,31.230773 3,32 c 0,0.755128 0.1932453,1.33162 0.578125,2.013672 l 2.5976562,4.554687 1.8515626,3.240235 c 0.3848798,0.682052 0.9384061,1.217678 1.5878906,1.607422 C 10.264719,43.805759 11.009537,44 11.779297,44 h 24.441406 c 0.76976,0 1.514578,-0.2186 2.164063,-0.583984 0.649484,-0.389744 1.20301,-0.92537 1.58789,-1.607422 l 0.769532,-1.339844 3.679687,-6.455078 C 44.806754,33.33162 45,32.755128 45,32 h -0.02344 c 0,-0.755128 -0.193245,-1.689043 -0.578124,-2.371094 L 38.3125,18.910156 32.203125,8.1914062 C 31.818245,7.5093549 31.264719,6.973728 30.615234,6.5839844 29.96575,6.1942408 29.218978,6 28.449219,6 Z M 24,18.179688 31.769531,32 H 16.230469 Z"
       id="path2176" />
    <path
       style="fill:#00832d"
       d="M 24,17.179487 C 26.601449,13.555662 29.07419,9.8535453 30.61512,5.5846153 29.965636,5.1948717 29.219931,4.9999999 28.450172,4.9999999 h -8.900344 c -0.769759,0 -1.515464,0.2192308 -2.164948,0.5846154 C 19.106732,9.5772283 21.311814,13.442174 24,17.179487 Z"
       id="path2178" />
    <path
       style="fill:#0066da"
       d="m 6.1752576,37.567949 1.8522336,3.239743 C 8.412371,41.489744 8.9656356,42.025641 9.6151201,42.415385 12.089037,38.842264 15.141095,35.768007 16.23024,31 H 2.9999998 c 0,0.755128 0.1924399,1.330769 0.5773196,2.012821 z"
       id="path2180" />
    <path
       style="fill:#00ac47"
       d="M 24,17.179487 17.38488,5.5846153 c -0.649485,0.3897436 -1.20275,0.925641 -1.587629,1.6076923 L 3.5773194,28.628205 C 3.199518,29.295547 3.0005028,30.230773 2.9999998,31 H 16.23024 Z"
       id="path2182" />
    <path
       style="fill:#ea4335"
       d="m 38.38488,42.415385 c 0.649484,-0.389744 1.202749,-0.925641 1.587629,-1.607693 l 0.769759,-1.339743 3.680413,-6.455128 C 44.80756,32.330769 45,31.755128 45,31 H 31.768797 l 2.815395,5.423077 z"
       id="path2184" />
    <path
       style="fill:#2684fc"
       d="M 31.769759,31 H 16.23024 L 9.6151201,42.415385 C 10.264605,42.805128 11.010309,43 11.780069,43 h 24.439862 c 0.76976,0 1.515464,-0.219231 2.164949,-0.584615 z"
       id="path2186" />
    <path
       style="fill:#ffba00"
       d="M 38.312715,17.910256 32.202749,7.1923076 C 31.817869,6.5102563 31.264605,5.9743589 30.61512,5.5846153 L 24,17.179487 31.769759,31 h 13.206186 c 0,-0.755128 -0.19244,-1.689744 -0.577319,-2.371795 z"
       id="path2188" />
    <path
       style="opacity:0.2;fill:#ffffff"
       d="M 19.550781,5 C 18.781022,5 18.03425,5.2185998 17.384766,5.5839844 16.735281,5.973728 16.181754,6.5093549 15.796875,7.1914062 L 3.578125,28.628906 C 3.2003236,29.296248 3.000503,30.230773 3,31 c 0,0.166141 0.014511,0.320783 0.033203,0.472656 0.067813,-0.640988 0.2499244,-1.322671 0.5449219,-1.84375 L 15.796875,8.1914062 C 16.181754,7.509355 16.735281,6.973728 17.384766,6.5839844 18.03425,6.2185998 18.781022,6 19.550781,6 h 8.898438 c 0.769759,0 1.516531,0.1942408 2.166015,0.5839844 0.649485,0.3897436 1.203011,0.9253706 1.587891,1.6074218 l 6.109375,10.7187498 6.085938,10.71875 c 0.318729,0.564826 0.497763,1.297189 0.552734,1.962891 C 44.980888,31.403723 45,31.209505 45,31 h -0.02344 c 0,-0.755128 -0.193245,-1.689043 -0.578124,-2.371094 L 38.3125,17.910156 32.203125,7.1914062 C 31.818245,6.5093549 31.264719,5.973728 30.615234,5.5839844 29.96575,5.1942408 29.218978,5 28.449219,5 Z m -2.757812,26 -0.5625,1 h 15.539062 l -0.5625,-1 z"
       id="path2190" />
  </g>
  <path
     d="M 16,4.0000002 C 9.3520066,4.0000002 4,9.352007 4,16 v 1 C 4,10.352007 9.3520066,5 16,5 h 32 c 6.647993,0 12,5.352007 12,12 V 16 C 60,9.352007 54.647993,4.0000002 48,4.0000002 Z"
     style="opacity:0.2;fill:#ffffff;stroke-width:4;stroke-linecap:square"
     id="path1040" />
</svg>
