<?xml version="1.0" encoding="UTF-8" standalone="no"?>
<!-- Created with Inkscape (http://www.inkscape.org/) -->

<svg
   width="64"
   height="64"
   viewBox="0 0 64 64"
   version="1.1"
   id="svg5"
   inkscape:version="1.4.3 (0d15f75042, 2025-12-25)"
   sodipodi:docname="gta-vice-city.svg"
   xmlns:inkscape="http://www.inkscape.org/namespaces/inkscape"
   xmlns:sodipodi="http://sodipodi.sourceforge.net/DTD/sodipodi-0.dtd"
   xmlns="http://www.w3.org/2000/svg"
   xmlns:svg="http://www.w3.org/2000/svg">
  <sodipodi:namedview
     id="namedview7"
     pagecolor="#ffffff"
     bordercolor="#000000"
     borderopacity="0.25"
     inkscape:showpageshadow="2"
     inkscape:pageopacity="0.0"
     inkscape:pagecheckerboard="0"
     inkscape:deskcolor="#d1d1d1"
     inkscape:document-units="px"
     showgrid="false"
     inkscape:zoom="12.609375"
     inkscape:cx="31.960347"
     inkscape:cy="32"
     inkscape:window-width="1920"
     inkscape:window-height="1010"
     inkscape:window-x="0"
     inkscape:window-y="0"
     inkscape:window-maximized="1"
     inkscape:current-layer="svg5" />
  <defs
     id="defs2" />
  <rect
     style="opacity:0.2;fill:#000000;stroke-width:3.99999;stroke-linecap:square"
     id="rect234"
     width="55.99992"
     height="55.99992"
     x="4"
     y="5"
     ry="11.999983" />
  <rect
     style="fill:#4cc4de;fill-opacity:1;stroke-width:3.99999;stroke-linecap:square"
     id="rect396"
     width="55.99992"
     height="55.99992"
     x="4"
     y="4"
     ry="11.999983" />
  <path
     style="opacity:0.1;fill:#000000;stroke-width:2"
     d="m 32.613242,5.0026018 c -0.645447,0.01272 -1.283146,0.070744 -1.914061,0.1874997 -0.353604,0.065404 -0.705893,0.034012 -1.050779,0.1367178 -0.373463,0.1114279 -0.741177,0.3606265 -1.10156,0.5195305 -4.301378,1.8990912 -7.495094,5.3791232 -8.76952,9.9296742 -4.84e-4,9.68e-4 -0.523233,1.951855 -0.13282,3.339838 0.0184,1.374905 -0.143039,2.807439 0.40625,4.085931 0.120139,0.279538 0.171419,0.771613 0.117179,1.097657 -0.0804,0.488337 -0.488883,0.912428 -0.624996,1.386716 -0.302744,1.056612 -0.434652,2.154565 -0.566406,3.242183 -0.12256,1.010587 -0.464079,2.124187 -0.429687,3.136714 0.0102,0.294553 0.07584,0.556523 0.03516,0.851561 -0.19714,1.41899 -0.651554,2.8119 -0.917968,4.22265 -0.111888,0.592979 -0.220123,1.193718 -0.26953,1.796873 -0.06733,0.834727 0.221584,1.745756 0.999998,2.136715 -0.05424,1.216968 -0.213368,3.284466 0.578123,4.312494 0.575456,0.746557 1.096349,1.535124 1.480466,2.398435 0.1613,0.361893 0.267286,0.836405 0.656251,1.01953 0.442246,0.208804 1.168124,-0.0086 1.613278,-0.09766 l 1.906247,-1.691406 c -0.450769,3.875012 -0.944148,7.746015 -1.378904,11.621078 0.288858,0.960634 1.107383,2.245468 2.152341,2.363278 3.035888,0.0052 6.069566,-0.0052 9.105455,0 -1.631943,-1.49099 -3.014703,-3.273899 -4.320306,-5.042961 -0.386509,-1.399274 0.532084,-2.708288 0.812499,-4.04687 0.744667,-2.729014 1.457786,-5.47213 2.460935,-8.121083 0.625117,-1.310696 0.579285,-2.801342 1.171872,-4.101556 0.27346,-0.702763 0.718559,-1.308088 1.128905,-1.933591 -0.260184,1.196776 -0.949687,2.276135 -1.285155,3.367183 0.531478,-0.422877 1.369727,-1.804809 0.777343,-0.531249 -0.545789,0.290877 -1.29398,1.809677 -0.238281,0.992186 0.0036,-0.0068 0.0078,-0.0088 0.0118,-0.0156 l -0.414062,0.792969 c -0.428997,0.250382 -0.746749,0.599602 -0.703125,1.335935 -0.413227,1.453855 -1.049068,2.831222 -1.281248,4.332025 -0.07736,0.19108 -0.09298,0.31435 -0.07422,0.40625 l -0.08594,0.480467 -0.0118,0.004 c -0.105,0.24115 -0.12426,0.386766 -0.07422,0.464844 l -0.156259,0.874998 c -0.346948,1.144271 -0.3852,2.527051 -0.691405,3.710933 0.0803,1.099453 -1.024171,2.437991 -0.004,3.265622 1.089786,1.285632 2.159323,2.740694 3.468745,3.765618 3.211209,0.0092 6.425495,-0.009 9.636704,0 -1.074358,-1.715941 -2.235299,-3.547101 -2.222653,-5.652336 -0.06796,-1.422568 -0.02832,-2.889166 -0.257811,-4.300774 l 0.03516,0.004 c 0.05068,-0.903942 -0.28211,-1.806987 -0.851561,-2.710934 0.528405,0.11452 1.054944,0.15712 1.578122,-0.14844 2.025859,-0.923878 3.501315,-3.00522 3.695308,-5.222648 0.04702,-1.614794 -1.609995,-2.358841 -2.734372,-3.144528 -1.710471,-1.166074 -3.446265,-2.301123 -4.964837,-3.718745 -0.332243,-0.284971 -0.637719,-0.599055 -0.941404,-0.914061 l 0.164059,-0.144519 c -0.590171,-0.579914 -1.261666,-1.259603 -1.562497,-1.664062 0,0 -0.1084,-1.368114 -0.292968,-1.671872 0.642785,-0.15648 1.2852,-0.347641 1.898435,-0.593749 0.500376,-0.200566 0.946843,-0.511397 1.441404,-0.718749 0.382668,-0.16084 0.904501,-0.16908 1.234373,-0.433593 0.349729,-0.28099 0.197339,-1.099349 0.207031,-1.499998 0.0188,-0.800331 0.05916,-1.597618 0.07032,-2.398435 0.0102,-0.741227 0.926189,-1.486352 1.281248,-2.109371 1.199347,-2.101111 0.251412,-4.73271 0.1836,-6.999991 -0.02374,-0.806145 0.439943,-1.722313 0.683593,-2.484371 0.16954,-0.530487 0.338278,-1.062293 0.507811,-1.593748 C 44.035548,8.868186 40.637295,6.4442472 37.007766,5.5455698 36.596034,5.443354 36.180155,5.5171259 35.757768,5.440102 35.360092,5.3679221 34.957657,5.1414072 34.554645,5.0963525 33.910648,5.0241666 33.258693,4.9898866 32.613242,5.0026018 Z m 5.128899,30.3905822 c 0.11052,0.12992 0.212412,0.266422 0.320311,0.398436 l -0.05468,0.105479 c -0.11448,-0.145339 -0.2491,-0.271843 -0.367188,-0.414061 z M 18.41795,38.61193 v 2.24609 c 0,0 -1.440572,-0.74232 0,-2.24609 z m 4.617179,11.890607 c -0.648393,0.18382 -0.368009,1.824947 -0.109379,0.601561 0.250865,-0.279299 1.765539,-0.532965 0.445311,-0.578123 -0.13336,-0.04588 -0.24331,-0.0497 -0.335938,-0.02344 z m 0.773437,0.742187 c -0.883786,0.583295 -2.193729,1.166196 -2.027341,2.445309 -0.245975,0.866052 1.520254,1.856911 1.624998,0.839842 0.229958,-0.592885 -0.827411,0.35382 -1.156248,-0.449217 -0.546928,-1.335622 1.022422,-1.922339 1.546873,-2.699216 z"
     id="path2" />
  <path
     style="fill:#3c3c3c;stroke-width:2"
     d="m 32.614248,4.0046436 c -0.645447,0.01272 -1.285878,0.071944 -1.916793,0.1886997 -0.353604,0.065404 -0.705113,0.034034 -1.049999,0.1367398 -0.373463,0.1114279 -0.738831,0.3607043 -1.099216,0.5196083 -4.301376,1.8990912 -7.497438,5.3767066 -8.771864,9.9272566 -4.84e-4,9.69e-4 -0.521671,1.95392 -0.13126,3.341903 0.0184,1.374905 -0.14462,2.804533 0.404688,4.083028 0.120139,0.279535 0.171819,0.77334 0.117579,1.099384 -0.0804,0.488337 -0.490057,0.912245 -0.626171,1.386532 -0.302743,1.056613 -0.431525,2.153099 -0.563279,3.240718 -0.12256,1.010586 -0.466423,2.124267 -0.432031,3.136793 0.0102,0.294554 0.07622,0.558213 0.03554,0.853251 -0.19714,1.41899 -0.649598,2.811752 -0.916012,4.222504 -0.111888,0.592979 -0.221295,1.193596 -0.270702,1.796752 -0.06733,0.834726 0.21963,1.747637 0.998044,2.138597 -0.05424,1.216968 -0.211804,3.284721 0.579687,4.31275 0.575455,0.746557 1.095175,1.535093 1.479294,2.398404 0.1613,0.361894 0.267286,0.834213 0.656249,1.017339 0.442248,0.208803 1.17086,-0.0066 1.616014,-0.09572 L 38.13493,34.046216 c -0.590171,-0.579911 -1.260494,-1.258288 -1.561325,-1.662748 0,0 -0.10802,-1.367194 -0.292578,-1.670951 0.642785,-0.15648 1.287152,-0.350076 1.900387,-0.596184 0.500376,-0.200565 0.946453,-0.509161 1.441014,-0.716513 0.382668,-0.160839 0.903331,-0.170319 1.233203,-0.434827 0.349729,-0.28099 0.195379,-1.098012 0.205077,-1.498662 0.0188,-0.800331 0.05994,-1.600322 0.0711,-2.401138 0.0102,-0.741227 0.927361,-1.485496 1.28242,-2.108515 1.199347,-2.101112 0.251018,-4.731024 0.1832,-6.998306 -0.02374,-0.806145 0.439943,-1.723859 0.683593,-2.485917 0.16954,-0.530487 0.339058,-1.062922 0.508591,-1.594377 C 44.03617,7.8686732 40.637905,5.4448078 37.008376,4.5461304 36.596644,4.4439152 36.178421,4.5192337 35.756034,4.4422086 35.358358,4.3700289 34.955931,4.1426814 34.552919,4.0976267 33.908922,4.0254414 33.259699,3.9919268 32.614248,4.0046436 Z M 18.417394,37.612373 v 2.247991 c 0,0 -1.440572,-0.744221 0,-2.247991 z"
     id="path3" />
  <path
     style="fill:#e2a67f;stroke-width:2"
     d="m 28.12441,26.837334 c -0.0396,-0.0068 -0.10282,-7.36e-4 -0.202343,0.02462 -1.228937,0.19128 0.765855,1.51176 -0.10118,2.403873 -0.796251,1.614389 -1.808708,3.122343 -2.816398,4.608107 -1.480074,2.383229 -1.300853,5.400589 -0.483988,7.977357 0.297192,1.062849 0.21747,-0.462541 0.300782,-0.853251 -0.387978,-1.281954 -0.787069,-2.62776 -0.541405,-3.99278 -0.12166,-0.741983 1.337932,-2.788566 0.568749,-1.121261 -0.469947,1.376847 -0.403652,2.918288 0.06288,4.285402 0.224015,-1.231938 0.623671,-2.430024 0.943356,-3.631788 -0.318667,-0.733191 0.381444,-1.564786 0.31172,-0.287154 -0.481981,2.030985 -0.984567,4.065734 -1.118356,6.155993 -0.517422,5.085917 -1.229469,10.151716 -1.799218,15.229999 0.288858,0.960635 1.106993,2.245041 2.151951,2.362851 3.035888,0.0052 6.0723,-0.0052 9.108189,0 -1.631943,-1.49099 -3.017437,-3.273876 -4.32304,-5.042937 -0.386509,-1.399274 0.534428,-2.706158 0.814843,-4.044741 0.744667,-2.729014 1.45505,-5.47335 2.458199,-8.122302 0.625117,-1.310696 0.580459,-2.799224 1.173046,-4.099438 0.27346,-0.702764 0.718949,-1.310721 1.129295,-1.936224 -0.260184,1.196777 -0.949687,2.275467 -1.285155,3.366516 0.531478,-0.422878 1.371679,-1.804108 0.779295,-0.530548 -0.545789,0.290878 -1.296322,1.810216 -0.240623,0.992725 0.0036,-0.0068 0.0098,-0.0096 0.0138,-0.0164 l -0.415624,0.795821 c -0.428997,0.250381 -0.746359,0.598241 -0.702735,1.334574 -0.413227,1.453856 -1.05024,2.83109 -1.28242,4.331894 -0.07736,0.19108 -0.09258,0.315583 -0.07382,0.407483 l -0.328123,1.824098 c -0.346948,1.14427 -0.382858,2.527216 -0.689063,3.711099 0.0803,1.099452 -1.025665,2.434966 -0.0054,3.262595 1.089786,1.285632 2.160495,2.740868 3.469917,3.765793 3.211209,0.0092 6.421979,-0.009 9.633188,0 -1.074358,-1.715942 -2.232955,-3.547557 -2.220309,-5.652792 -0.06796,-1.422568 -0.03028,-2.88747 -0.259763,-4.299078 l 0.03554,0.0028 c 0.05214,-0.929801 -0.29418,-1.859674 -0.894141,-2.789476 l 3.631245,-5.882514 -6.775771,-6.752177 -0.142179,0.273478 c -0.451026,-0.572585 -0.927495,-1.124049 -1.449216,-1.62993 0.0134,0.779001 -0.917711,2.79245 -0.582422,0.995461 0.16502,-1.436072 0.415418,-3.0702 -0.637161,-4.255386 -0.853243,-1.022173 -1.893693,-2.404219 -3.398823,-2.209703 -1.041081,0.764215 -1.689526,-0.386818 -2.805466,-0.596183 -0.511075,-0.02422 -1.530862,1.090524 -1.017185,-0.11212 0.02416,-0.09708 0.12428,-0.234052 0.0054,-0.254334 z"
     id="path4" />
  <path
     style="fill:#f55588;stroke-width:2"
     d="m 36.631038,32.796424 c -0.102999,0.441599 0.432912,0.663137 0.631954,1.000702 1.291836,1.437376 2.442228,3.00095 3.302807,4.73687 0.818025,1.434164 1.206928,3.187311 0.598827,4.772191 -0.396581,1.048797 -0.864767,2.184231 -1.772415,2.884512 -0.779325,0.23386 -1.618442,0.244554 -2.397047,0.520237 l -4.53951,1.206095 c -0.230611,0.529657 -0.08728,0.665985 0.430024,0.408957 1.933695,-0.586209 3.905046,-1.046714 5.886575,-1.433086 1.410272,-0.251674 2.784693,1.092977 4.145739,0.29806 2.025859,-0.923879 3.501705,-3.002278 3.695698,-5.219707 0.04702,-1.614794 -1.610313,-2.360443 -2.73469,-3.14613 -1.710471,-1.166074 -3.446893,-2.300366 -4.965465,-3.717988 -0.822553,-0.705521 -1.517916,-1.545084 -2.282497,-2.310713 z m -13.258963,16.73139 c -1.066939,-0.367075 -0.741287,1.977932 -0.445703,0.579776 0.250865,-0.2793 1.765931,-0.534618 0.445703,-0.579776 z m 0.434763,0.719249 c -0.883786,0.583296 -2.192959,1.166081 -2.026571,2.445193 -0.245975,0.866053 1.519394,1.856359 1.624138,0.839291 0.229958,-0.592885 -0.825177,0.353007 -1.154014,-0.45003 -0.546928,-1.335622 1.023566,-1.919783 1.548015,-2.69666 l 0.0084,-0.13778 z"
     id="path5" />
  <path
     style="fill:#e2a57d;stroke-width:2"
     d="m 30.696837,25.634468 1.789335,1.659765 c 1.27137,0.478374 2.571293,1.079371 3.957655,1.032495 0.821501,-0.0076 1.394244,-0.703733 1.640087,-1.424132 0.811883,-2.127935 1.827766,-4.191958 2.377063,-6.410125 0.10082,-0.61408 0.22501,-1.274158 0.0592,-1.881561 0.04198,0.224765 -0.24608,0.919496 -0.756769,0.584474 -0.302574,-0.08389 -0.613079,-0.142686 -0.910421,-0.243099 -0.0172,0.730378 -0.272363,-0.301877 -0.0354,-0.694981 0.316228,-0.648927 0.825331,-1.357679 1.630854,-1.311563 0.782411,-0.08586 0.645645,-0.929984 0.537025,-1.487091 -0.177065,-0.90781 -0.344483,-1.819962 -0.525397,-2.725075 -0.187544,-0.312555 -0.581025,-0.923841 -0.735475,-1.022541 -0.255472,0.937251 -0.436417,1.891358 -0.487911,2.862357 -0.1663,1.696663 -0.806699,2.987018 -1.52613,4.201509 -0.428693,0.758948 -1.062351,1.502031 -1.982521,1.614521 -0.673055,0.05078 -1.166391,0.242914 -1.466288,0.880417 -0.581163,0.665775 -1.293224,1.484758 -1.018215,2.440632 0.18066,0.749735 -0.403279,-0.801392 -0.08528,-1.148378 0.241162,-0.727011 0.825667,-1.255186 1.247571,-1.873981 -0.659798,-8.8e-5 -1.164877,0.559783 -1.50742,1.063396 -0.285786,0.862335 -0.603754,1.922366 -0.0162,2.733272 0.137519,0.265918 0.563357,0.785047 0.07194,0.339424 -0.642992,-0.610595 -0.901665,-1.512852 -0.822577,-2.380895 -0.03112,-0.462607 0.320421,-1.172936 -0.266672,-0.638531 -0.17336,0.14354 -0.442925,0.235472 -0.560383,0.40897 l 0.0106,2.867464 -0.618079,0.553255"
     id="path6" />
  <path
     style="fill:#f89dba;stroke-width:2"
     d="m 23.860654,35.78443 c 0.07944,0.0901 -0.11576,0.567305 -0.172919,1.228596 -0.03876,0.453939 -0.09542,0.903519 -0.10656,1.360852 -0.02714,1.080834 0.08816,2.163607 0.403497,3.200841 0.14192,0.466536 0.388964,0.894801 0.605969,1.328395 v 0.564397 c -0.646657,-1.219874 -1.267162,-2.378707 -1.461886,-3.767659 -0.06442,-0.456849 -0.08766,-0.919511 -0.07314,-1.380234 0.02664,-0.852653 0.406888,-2.076403 0.805055,-2.535188"
     id="path7" />
  <path
     style="fill:#040606;stroke-width:2"
     d="m 23.860654,35.78443 -0.0048,0.004 0.0174,0.07122 c 0,0.1749 -0.14386,0.600248 -0.191339,1.153021 -0.03922,0.453939 -0.09542,0.903519 -0.10704,1.361336 -0.0024,0.0998 -0.004,0.200084 -0.004,0.299884 0,0.981518 0.12158,1.961101 0.407855,2.902895 0.14192,0.467022 0.389934,0.895769 0.606455,1.329363 l 0.0054,-0.003 h -0.0058 v 0.564397 h 0.0058 l 0.0054,-0.0024 c -0.646659,-1.220358 -1.266678,-2.378223 -1.461402,-3.766205 -0.05182,-0.369645 -0.07702,-0.743649 -0.07702,-1.11717 0,-0.0872 0.0014,-0.1744 0.004,-0.261608 0.02664,-0.851685 0.407372,-2.075437 0.803603,-2.531798 l -0.0044,-0.004 -0.0048,0.004 0.0048,-0.004 -0.0048,-0.004 c -0.399137,0.461207 -0.779383,1.684473 -0.806509,2.539064 -0.003,0.0872 -0.004,0.1744 -0.004,0.262094 0,0.374005 0.02518,0.748495 0.07702,1.119108 0.1952,1.390406 0.816197,2.549723 1.462856,3.769597 l 0.0116,-0.003 v -0.564397 -0.0014 l -9.68e-4,-9.7e-4 C 24.37896,42.46638 24.13192,42.038117 23.990478,41.572549 23.704204,40.632211 23.583107,39.65408 23.583107,38.67353 c 0,-0.0998 0.0014,-0.200084 0.004,-0.299884 0.0116,-0.456845 0.06782,-0.905943 0.10706,-1.360366 0.04698,-0.551803 0.191339,-0.974255 0.191339,-1.153989 l -0.02034,-0.07898 -0.0044,-0.0054 -0.005,0.0054 0.005,0.004"
     id="path8" />
  <path
     style="fill:#f89dba;stroke-width:2"
     d="m 29.163745,26.896006 1.885243,1.036265 0.320666,-0.12692 -1.831476,-1.197107 -0.374433,0.28777"
     id="path9" />
  <path
     style="fill:#040606;stroke-width:2"
     d="m 29.163745,26.896006 -0.003,0.0054 1.887665,1.037719 0.323572,-0.12838 0.0106,-0.0044 -1.845038,-1.205343 -0.385091,0.296006 0.0082,0.0044 0.003,-0.0054 0.0034,0.0048 0.371041,-0.285348 1.8184,1.188385 -0.307588,0.12208 -1.882337,-1.035295 -0.003,0.0054 0.0034,0.0048 -0.0034,-0.0048"
     id="path10" />
  <path
     style="fill:#f89dba;stroke-width:2"
     d="m 28.274408,26.648446 0.15354,-0.374003 -0.514905,0.300849 0.361355,0.07314"
     id="path11" />
  <path
     style="fill:#040606;stroke-width:2"
     d="m 28.274408,26.648446 0.0054,0.0024 0.15404,-0.374487 0.0068,-0.0164 -0.544453,0.318291 0.376855,0.07606 0.0048,9.68e-4 0.002,-0.0044 -0.0054,-0.0024 9.7e-4,-0.0058 -0.345369,-0.07026 0.485355,-0.283893 -0.14676,0.358017 0.0058,0.002 9.7e-4,-0.0058 -9.7e-4,0.0058"
     id="path12" />
  <path
     style="fill:#ffffff;stroke-width:2"
     d="m 28.364988,27.1862 2.668014,-2.213023 -0.0649,-4.067541 -2.603106,6.280564"
     id="path13" />
  <path
     style="fill:#040606;stroke-width:2"
     d="m 28.364988,27.1862 0.004,0.0044 2.670436,-2.214477 -0.0654,-4.070933 -0.0116,-0.002 -2.602622,6.280564 0.0092,0.0068 -0.004,-0.0044 0.0058,0.002 2.591482,-6.253434 0.06442,4.035569 -2.665594,2.211083 0.004,0.005 0.0058,0.002 -0.0058,-0.002"
     id="path14" />
  <path
     style="fill:#e2a57d;stroke-width:2"
     d="m 29.709652,26.458537 0.694615,-0.574088 1.518074,1.659284 -0.390417,0.18458 -1.822272,-1.269776"
     id="path15" />
  <path
     style="fill:#f03a25;stroke-width:2"
     d="m 35.230236,24.885975 c 0,0 1.43137,-0.694235 2.104185,-0.813413 0,0 0.271258,-0.08672 0.520236,0.08672 0,0 0.09784,0.08672 0.336165,0.05426 0.14096,-0.0188 0.27901,-0.1308 0.420934,-0.07414 0.160339,0.06444 0.212647,0.290677 0.175839,0.442797 l -0.260115,0.412278 c -0.0494,0.07898 0.0072,0.367707 -0.0086,0.484945 -0.02422,0.17392 -0.09446,0.311512 -0.220882,0.433111 -0.18842,0.18118 -0.404465,0.218976 -0.656833,0.22915 -0.545905,0.02228 -0.955699,-0.04506 -1.390682,-0.395805 -0.362324,-0.2931 -0.558015,-0.699079 -1.020123,-0.859921"
     id="path16" />
  <path
     style="fill:#ffffff;stroke-width:2"
     d="m 36.248907,25.234302 c 0,0 0.699457,0.507232 0.768241,0.438924 0,0 0.08234,0.1337 -0.13368,0.1337 0,0 -0.455811,-0.18168 -0.634549,-0.572636"
     id="path17" />
  <path
     style="fill:#ffffff;stroke-width:2"
     d="m 38.22909,25.599102 c 0,0 -0.03246,0.10948 0.07412,0.05378 0.10656,-0.05524 0.0838,-0.23012 0.0838,-0.23012 0,0 0.003,0.0843 -0.15792,0.17634"
     id="path18" />
  <path
     style="fill:#de9262;stroke-width:2"
     d="m 39.331075,17.874843 c 0,0 0.186979,-0.340092 0.662645,-0.340092 0,0 0.429167,0.05522 0.645689,-0.161328 0,0 0.10656,0.335732 -0.10172,0.544052 0,0 -0.212162,0.186518 -1.206612,-0.04263"
     id="path19" />
  <path
     style="fill:#e2a57d;stroke-width:2"
     d="m 39.331075,17.874843 c 0.03118,-0.02331 0.05872,-0.08219 0.09632,-0.111426 0.147039,-0.149644 0.358421,-0.225092 0.566311,-0.22282 0.0242,0.0017 0.10586,0.0095 0.15066,0.006 0.176999,-0.0049 0.368033,-0.04138 0.499389,-0.169253 -0.02102,-4.08e-4 0.0136,0.06591 0.0096,0.09092 0.02276,0.155356 -0.0034,0.33047 -0.11964,0.444801 -0.0096,0.01064 -0.08406,0.04116 -0.1186,0.04564 -0.218456,0.04424 -0.443725,0.0203 -0.662465,-0.0092 -0.14116,-0.02071 -0.281208,-0.04855 -0.420211,-0.08058 -0.011,0.01826 0.03162,0.01658 0.05834,0.02554 0.289037,0.06173 0.584367,0.113918 0.881016,0.0967 0.0922,-0.0088 0.1906,-0.01792 0.270276,-0.06929 0.12852,-0.126784 0.15026,-0.323081 0.11716,-0.492882 -0.0084,-0.02202 -0.0072,-0.09586 -0.03716,-0.04691 -0.13352,0.118258 -0.319312,0.14949 -0.492077,0.152692 -0.08122,0.0018 -0.16224,-0.01372 -0.243212,-2.82e-4 -0.22613,0.02372 -0.44608,0.147476 -0.564885,0.344258 0.0062,9.94e-4 0.0086,0.005 0.009,-0.0039"
     id="path20" />
  <path
     style="fill:#ffffff;stroke-width:2"
     d="m 38.855405,18.868959 c 0.15016,0.04311 0.30129,0.08333 0.45242,0.123045 0.233475,0.06153 0.535733,0.179734 0.775507,0.09932 0.193279,-0.06492 0.176799,-0.280988 0.183099,-0.446189 0.0058,-0.145824 0.0116,-0.362861 -0.145319,-0.434562 l -0.36523,-0.04749 c 0,0 0.0044,0.472351 -0.323087,0.561492 0,0 -0.276102,0.08091 -0.509578,-0.15309 0,0 -0.06782,0.101738 -0.06782,0.29746"
     id="path21" />
  <path
     style="fill:#040606;stroke-width:2"
     d="m 38.855405,18.868959 -0.002,0.0063 c 0.15064,0.04311 0.301774,0.08285 0.452904,0.122569 0.177279,0.04698 0.394777,0.126924 0.595799,0.126924 0.06344,0 0.12498,-0.0083 0.1831,-0.02761 0.198599,-0.06734 0.181159,-0.287771 0.186979,-0.452003 l 0.0024,-0.08914 c 0,-0.1337 -0.0198,-0.290193 -0.151139,-0.350751 l -4.84e-4,-4.84e-4 -0.3662,-0.04749 -0.0068,-9.69e-4 v 0.0067 9.69e-4 c 0,0.02276 -0.0054,0.470411 -0.318727,0.554224 -4.84e-4,4.84e-4 -0.04552,0.01358 -0.1153,0.01358 -0.10124,0 -0.251882,-0.02761 -0.388964,-0.164718 l -0.0054,-0.0053 -0.004,0.0063 c -4.86e-4,9.69e-4 -0.06878,0.10367 -0.06878,0.300852 v 0.0049 l 0.0044,0.0014 0.002,-0.0063 h 0.0058 c 0,-0.194269 0.06732,-0.293585 0.06686,-0.294069 l -0.005,-0.0034 -0.0044,0.0043 c 0.13902,0.139524 0.294022,0.16811 0.397198,0.16811 0.0712,0 0.11818,-0.01358 0.11868,-0.01358 0.324541,-0.08963 0.326963,-0.543082 0.327447,-0.566337 v -4.85e-4 l -0.0064,-4.84e-4 -4.84e-4,0.0063 0.36523,0.04749 4.84e-4,-0.0063 -0.0024,0.0053 c 0.123519,0.0562 0.143859,0.206865 0.143859,0.340091 l -0.0024,0.08866 c -0.0058,0.167138 0.0096,0.378365 -0.178739,0.441346 -0.05668,0.01888 -0.11674,0.02664 -0.17922,0.02664 -0.19764,0 -0.414638,-0.07945 -0.592407,-0.126433 -0.15162,-0.03972 -0.30226,-0.07994 -0.452904,-0.123046 l -0.0014,0.0059 h 0.0058 -0.0058"
     id="path22" />
  <path
     style="fill:#ffffff;stroke-width:2"
     d="m 39.059333,18.324907 c 0,0 0.373464,0.348329 0.458715,-0.08478 h 0.14434 c 0,0 -0.1274,0.680185 -0.662645,0.238357 l 0.05958,-0.153576"
     id="path23" />
  <path
     style="fill:#040606;stroke-width:2"
     d="m 39.059333,18.324907 -0.0044,0.0043 c 4.84e-4,4.84e-4 0.1424,0.1337 0.275134,0.13419 0.08332,4.84e-4 0.161299,-0.05475 0.193759,-0.222369 l -0.0058,-9.69e-4 v 0.0059 h 0.14434 v -0.0059 l -0.0058,-0.0014 c -4.84e-4,4.85e-4 -0.07362,0.384664 -0.332775,0.382726 -0.08428,0 -0.18988,-0.03972 -0.320182,-0.147762 l -0.004,0.0049 0.0054,0.002 0.05958,-0.15309 -0.0054,-0.0024 -0.0044,0.0043 0.0044,-0.0043 -0.0058,-0.002 -0.05958,0.15309 -0.0014,0.0043 0.0034,0.0029 c 0.13176,0.108514 0.239772,0.150182 0.327932,0.150182 0.272711,-0.0014 0.343917,-0.392414 0.344401,-0.392414 l 0.0014,-0.0073 h -0.15162 -0.0048 l -9.7e-4,0.0049 c -0.03294,0.165202 -0.105119,0.212195 -0.182139,0.21268 -0.12498,4.84e-4 -0.266414,-0.130802 -0.266898,-0.130802 l -0.0064,-0.0059 -0.0034,0.0083 0.0058,0.002"
     id="path24" />
  <path
     style="fill:#3c3c3c;stroke-width:2"
     d="m 36.976944,22.339158 c 0,0 0.0044,0.371582 0.499403,0.14098 0,0 0.15792,-0.09786 0.572065,-0.06444 0,0 0.03876,0.03488 -0.013,0.047 0,0 -0.392355,-0.017 -0.507639,0.06444 0,0 -0.554625,0.217524 -0.550751,-0.18796"
     id="path25" />
  <path
     style="fill:#3c3c3c;stroke-width:2"
     d="m 38.027098,22.821682 c 0,0 0.533314,0.149219 0.738209,-0.14486 0,0 0.17536,-0.0344 0.07702,0.13176 0,0 -0.384119,0.179259 -0.815227,0.013"
     id="path26" />
  <path
     style="fill:#ffffff;stroke-width:2"
     d="m 38.29642,27.224956 1.408118,-1.169491 -0.02228,-2.399538 -1.326256,3.003179 -0.05958,0.56585"
     id="path27" />
  <path
     style="fill:#3f3f3f;stroke-width:2"
     d="m 35.269472,24.942657 c 0.592156,-0.0044 1.185461,-0.015 1.776602,0.02648 0.0681,0.0088 0.13876,0.0122 0.204112,0.03414 0.0178,-0.02604 -0.02126,0.0124 0.02642,-0.02914 -0.06634,0.0088 0.03528,0.1056 0.09892,0.1134 0.19044,0.06574 0.389638,-0.01 0.564262,-0.08738 0.188799,-0.0646 0.401337,-0.03882 0.576609,0.05324 0.02088,-0.04552 0.07528,-0.10344 -0.0106,-0.11234 -0.21584,-0.096 -0.476294,-0.1031 -0.688493,0.0064 0.0415,0.09272 0.0156,-0.04786 -0.04002,0.0156 -0.14056,0.05182 -0.328784,0.09436 -0.451284,-0.019 -0.09906,-0.0737 -0.232129,-0.0633 -0.349535,-0.0775 -0.568797,-0.03292 -1.139008,-0.02616 -1.708476,-0.02074 4.66e-4,0.0323 9.34e-4,0.0646 0.0014,0.0969"
     id="path28" />
  <path
     style="opacity:0.2;fill:#000000;fill-rule:evenodd;stroke-width:2"
     d="m 40.886666,25.020877 c -0.177579,0.02946 -0.351547,0.09326 -0.511717,0.187499 -0.343587,0.21209 -0.548901,0.49376 -0.640623,0.871091 l -0.363281,1.132813 a 39.151417,40.305696 0 0 1 -1.031249,2.921869 c -0.572531,0.21171 -1.146278,0.447898 -1.718748,0.683594 l -0.730469,0.355469 c -0.366513,0.16488 -0.597149,0.423445 -0.734373,0.800779 a 1.511192,1.5557455 0 0 0 0.02344,1.128904 c 0.09172,0.1885 0.230478,0.354824 0.390624,0.496094 -0.29737,-0.02324 -0.574231,0.02278 -0.894529,0.164059 a 1.4417192,1.4842245 0 0 0 0.20703,-0.777341 v -0.140619 c -0.0455,-0.40056 -0.205812,-0.728989 -0.503905,-0.988281 -0.29737,-0.259292 -0.642158,-0.355625 -1.031249,-0.332029 -0.435305,0.02324 -0.916083,0.212817 -1.488278,0.496093 -1.053006,0.542197 -2.015717,1.41527 -2.83984,2.593746 -0.09172,0.11766 -0.1812,0.23411 -0.25,0.375 a 4.3940009,4.5235463 0 0 0 -0.414063,0.824217 c -0.228946,0.542199 -0.412183,1.03624 -0.503905,1.531247 -0.251508,1.249243 -0.0428,2.192109 0.621093,2.804684 0.228944,0.212088 0.503401,0.354792 0.800781,0.449218 0.480809,0.14126 0.981982,0.09526 1.531248,-0.11718 0.595463,-0.235698 1.282902,-0.706449 2.015621,-1.390622 l 1.14453,-1.039061 c 0.16086,0.871951 0.550461,1.417258 1.191404,1.628904 0.686462,0.212078 1.304171,-0.02336 1.921872,-0.683593 0.389803,-0.424169 0.873169,-1.158032 1.445312,-2.218747 0.13722,0.990341 0.547169,1.627856 1.234372,1.886716 1.007483,0.424167 1.991977,-0.1628 2.97656,-1.742184 0.16016,0.212088 0.392147,0.351055 0.621091,0.421873 0.572531,0.235696 1.121266,0.1195 1.624998,-0.304687 0.389089,-0.306514 0.847293,-0.874155 1.328124,-1.699216 l -0.296876,3.632807 c -3.480675,0.589413 -7.647713,1.481128 -12.433576,2.68359 a 280.32611,288.5908 0 0 0 -12.253889,3.347652 c -0.664253,0.188859 -1.324402,0.377019 -1.988277,0.589843 l -4.648433,1.390612 -1.808592,0.566405 c -0.366516,0.11768 -0.66457,0.353668 -0.847655,0.707029 -0.160155,0.377322 -0.208045,0.732231 -0.09375,1.132811 0.137582,0.377325 0.36734,0.682413 0.710937,0.847656 0.343229,0.1885 0.70809,0.235222 1.074217,0.11718 l 1.832029,-0.566405 c 1.534174,-0.471379 3.112834,-0.966097 4.761711,-1.437498 A 360.6292,371.2614 0 0 1 32.40621,45.005217 71.834094,73.951933 0 0 1 34.765581,44.41928 c 4.120934,-1.037185 7.786103,-1.840018 10.968737,-2.406247 -0.09172,1.060794 -0.18294,2.049447 -0.296876,2.992184 -0.275163,2.64023 -0.504565,4.690583 -0.710937,6.152335 -0.205648,0.14126 -0.365459,0.307442 -0.480467,0.519531 a 1.425243,1.4672625 0 0 0 -0.1836,0.730467 v 0.07032 c 0.02294,0.400562 0.04826,0.732895 0.09374,0.992187 0.09172,0.613017 0.318437,1.06121 0.730467,1.296872 0.251902,0.14162 0.505953,0.234374 0.757829,0.234374 0.251877,0 0.477219,-0.06908 0.683591,-0.1875 0.365803,-0.18848 0.621107,-0.520441 0.781251,-0.992187 l 0.1836,-0.683593 0.296875,-1.957027 c 0.20565,-1.438094 0.435624,-3.415895 0.687499,-5.914056 l 0.02344,-0.261717 0.34375,-3.441402 1.25781,-0.140619 c 2.541634,-0.306504 4.46535,-0.3529 5.816398,-0.16406 0.731963,0.11802 1.188838,0.280278 1.39453,0.468749 v 0.14454 l -0.04688,0.328124 c 0,0.330119 0.09514,0.635437 0.300781,0.917968 0.206372,0.25929 0.479756,0.44871 0.800779,0.51953 0.38909,0.09442 0.731335,0.0246 1.074219,-0.1875 0.366515,-0.21209 0.572339,-0.493601 0.664061,-0.894529 0.13794,-0.589413 0.11732,-1.13398 -0.0196,-1.628904 -0.13794,-0.518591 -0.411842,-0.966816 -0.824217,-1.343748 -0.641681,-0.613019 -1.60528,-1.038058 -2.910152,-1.226562 -1.717197,-0.259672 -4.120016,-0.18594 -7.210928,0.1914 l 0.25,-3.558589 0.09374,-0.941405 c 0.0455,-1.131266 0.0659,-1.911441 0.04296,-2.382811 -0.02294,-1.178478 -0.40949,-1.908673 -1.210935,-2.167965 -0.526315,-0.164879 -1.030896,-0.07226 -1.511718,0.304688 -0.251863,0.212088 -0.526125,0.520777 -0.824216,0.945311 l -0.16016,0.234373 c -0.11464,-0.565439 -0.3889,-1.0135 -0.824217,-1.367184 -0.618035,-0.495353 -1.536424,-0.657065 -2.749996,-0.492187 l 0.414061,-2.148435 0.0664,-0.492187 c 0,-0.330122 -0.11414,-0.639342 -0.296875,-0.921873 -0.22966,-0.259288 -0.48048,-0.4212 -0.800779,-0.515625 -0.18326,-0.0472 -0.365392,-0.0529 -0.54297,-0.02344 z m -26.777304,5.437492 c -0.180302,-0.0178 -0.363795,0.0074 -0.546875,0.07812 -0.366526,0.11766 -0.660307,0.353681 -0.843749,0.707031 L 8.8242127,38.61851 7.199215,41.708349 6.8320279,39.891944 C 6.7403068,39.491386 6.5354973,39.186069 6.2148413,38.973981 5.8945736,38.738285 5.5258077,38.664882 5.1367178,38.735701 c -0.3894574,0.09442 -0.6846084,0.30623 -0.8906237,0.636718 -0.2289455,0.330075 -0.298393,0.708813 -0.2070311,1.109372 l 0.8945301,4.59765 c 0.04586,0.447427 0.1812098,0.798754 0.4101557,1.08203 0.2289456,0.306504 0.5283702,0.495417 0.8945299,0.589843 0.8702998,0.18884 1.6251635,-0.282249 2.2890594,-1.437498 0.3665691,-0.612683 1.3301177,-2.427794 2.9101519,-5.445304 l -0.207031,0.753905 c -0.297725,1.108036 -0.458045,1.957123 -0.503905,2.593746 -0.04586,0.518929 -5.08e-4,0.943523 0.136717,1.296872 0.160144,0.377334 0.410827,0.659521 0.777343,0.800781 0.366128,0.16488 0.734894,0.16488 1.078124,0 0.274807,-0.11802 0.503907,-0.283663 0.664061,-0.542967 0.160164,-0.259302 0.226562,-0.517715 0.226562,-0.824219 l -0.04297,-0.402343 v -0.04688 c 0,-0.18848 0.04535,-0.516899 0.136718,-0.988281 0.18341,0.754679 0.5929,1.271612 1.210936,1.578124 0.526713,0.28253 1.169661,0.329284 1.902341,0.11718 0.756016,-0.23563 1.601382,-0.706985 2.585935,-1.41406 0.847316,0.659875 1.969261,0.636395 3.320307,-0.07032 0.435285,-0.18848 0.870749,-0.494139 1.35156,-0.871093 0.824019,-0.683449 1.557236,-1.556562 2.152341,-2.593746 a 1.4198908,1.4617525 0 0 0 0.207032,-0.636717 v -0.09374 c 0,-0.259298 -0.06896,-0.51838 -0.1836,-0.730469 -0.13722,-0.21208 -0.298396,-0.401328 -0.527343,-0.542967 -0.320298,-0.21206 -0.664731,-0.258482 -1.031249,-0.16406 0.09136,-0.329742 0.16016,-0.658707 0.16016,-0.964843 v -0.02344 c -0.02294,-0.683059 -0.228098,-1.204738 -0.617185,-1.628904 -0.45787,-0.494985 -1.214147,-0.731157 -1.855468,-0.636717 -1.030444,0.11766 -1.945129,0.898165 -2.769528,2.335933 l -0.296871,0.562509 -0.277344,-0.492185 v -0.02344 C 18.73738,35.81561 18.348486,35.626652 17.890606,35.579452 A 1.7856203,1.8382646 0 0 0 16.92967,35.79039 c -0.52665,0.353369 -0.985044,0.895638 -1.351561,1.390624 a 13.196694,13.585764 0 0 0 -0.890623,1.34375 C 14.55022,37.534757 13.631467,37.136568 12.73827,37.395859 l 2.49609,-4.761713 c 0.183078,-0.35374 0.208396,-0.731879 0.09375,-1.13281 -0.114294,-0.376954 -0.343913,-0.682593 -0.687499,-0.871093 -0.1716,-0.09442 -0.350948,-0.15418 -0.531249,-0.17188 z m 28.62496,1.53906 a 71.731248,73.846055 0 0 0 -0.367188,2.238279 l -0.984374,-0.04688 c 0.04622,-0.542199 0.11602,-1.202049 0.207031,-2.003903 a 6.5221579,6.7144464 0 0 1 1.144531,-0.1875 z m -6.410149,1.957027 h 0.367187 l -0.117179,0.234376 z m -2.656246,0.468751 -0.617186,0.566406 -0.847656,0.753905 -1.144529,1.062498 c 0.41202,-0.707441 0.890271,-1.345034 1.531248,-1.816403 0.09172,-0.09406 0.209922,-0.16356 0.324218,-0.234376 0.228945,-0.11766 0.479099,-0.261202 0.753905,-0.33203 z m -15.156227,4.5039 c -0.09136,0.330488 -0.13722,0.658169 -0.16016,0.988279 -0.641323,0.542199 -1.214422,0.920363 -1.671873,1.179686 0.183086,-0.589413 0.502698,-1.203828 0.960936,-1.816403 0.343229,-0.02362 0.596297,-0.16272 0.871093,-0.351562 z"
     id="path29" />
  <path
     style="fill:#ff89be;fill-rule:evenodd;stroke-width:2"
     d="m 49.192547,33.989186 0.09172,-0.942761 c 0.0455,-1.131264 0.06844,-1.909461 0.0455,-2.38083 -0.02294,-1.178479 -0.412022,-1.909462 -1.213467,-2.168753 -0.526315,-0.16488 -1.030056,-0.07044 -1.510878,0.306505 -0.251863,0.212088 -0.527029,0.518592 -0.82512,0.943125 l -0.15944,0.235696 c -0.11464,-0.56544 -0.3898,-1.013211 -0.825119,-1.366894 -0.618035,-0.495354 -1.533754,-0.660231 -2.747326,-0.495354 l 0.412021,-2.144879 0.06844,-0.494983 c 0,-0.330122 -0.11464,-0.636625 -0.297369,-0.919157 -0.22966,-0.259287 -0.480812,-0.424165 -0.801111,-0.518591 -0.366528,-0.09442 -0.733401,-0.0236 -1.053741,0.16488 -0.343587,0.212089 -0.549245,0.494987 -0.640967,0.872319 l -0.365803,1.130834 a 39.151417,40.305696 0 0 1 -1.030769,2.923506 c -0.572531,0.21171 -1.144728,0.447773 -1.717198,0.683469 l -0.732687,0.353713 c -0.366515,0.16488 -0.595461,0.42417 -0.732685,0.801503 a 1.511192,1.5557455 0 0 0 0.02294,1.131265 c 0.09172,0.188499 0.228944,0.353715 0.38909,0.494985 -0.29737,-0.02324 -0.572533,0.0236 -0.892831,0.16488 a 1.4417192,1.4842245 0 0 0 0.205648,-0.777527 v -0.14164 c -0.0455,-0.400559 -0.205648,-0.730679 -0.503741,-0.989971 -0.29737,-0.259291 -0.640966,-0.353717 -1.030057,-0.330121 -0.435305,0.02324 -0.916117,0.211712 -1.488314,0.494987 -1.053006,0.542197 -2.014923,1.414108 -2.839046,2.592585 -0.09172,0.117659 -0.18308,0.236063 -0.251878,0.376953 a 4.3940009,4.5235463 0 0 0 -0.412019,0.825109 c -0.228946,0.542199 -0.412019,1.037186 -0.503741,1.532194 -0.251508,1.249242 -0.0455,2.192089 0.618393,2.804664 0.228944,0.212088 0.503741,0.353715 0.801121,0.448141 0.480809,0.14126 0.984908,0.09442 1.534174,-0.11802 0.595463,-0.235697 1.28189,-0.706709 2.014609,-1.390882 l 1.144726,-1.037184 c 0.16086,0.871951 0.549959,1.41454 1.190902,1.626186 0.686462,0.212077 1.305189,-0.02324 1.92289,-0.683468 0.389803,-0.424169 0.870625,-1.155252 1.442768,-2.215966 0.13722,0.99034 0.549245,1.626617 1.236448,1.885477 1.007483,0.424167 1.992361,-0.16488 2.976944,-1.744272 0.16016,0.212088 0.389091,0.35335 0.618035,0.424168 0.572531,0.235695 1.121744,0.11768 1.625476,-0.306504 0.389089,-0.306513 0.847339,-0.872321 1.32817,-1.697381 l -0.297368,3.630179 c -3.480675,0.589413 -7.647891,1.484979 -12.433754,2.687442 a 280.32611,288.5908 0 0 0 -12.250099,3.346905 c -0.664253,0.18886 -1.32817,0.376956 -1.992045,0.589779 l -4.64828,1.390554 -1.808603,0.565808 c -0.366516,0.117679 -0.664253,0.353715 -0.847338,0.707077 -0.160156,0.377321 -0.206015,0.730681 -0.09172,1.131262 0.137582,0.377323 0.36616,0.683837 0.709757,0.849081 0.343229,0.1885 0.709757,0.235695 1.075884,0.11766 l 1.831901,-0.565804 c 1.534174,-0.471379 3.113792,-0.966366 4.762669,-1.437768 a 360.6292,371.2614 0 0 1 12.089535,-3.347231 71.834094,73.951933 0 0 1 2.358931,-0.589411 c 4.120934,-1.037185 7.785051,-1.838264 10.967685,-2.404493 -0.09172,1.060795 -0.18344,2.050779 -0.29737,2.993516 -0.275163,2.64023 -0.503741,4.690898 -0.710113,6.152649 -0.205648,0.14126 -0.365803,0.306504 -0.480811,0.518594 a 1.425243,1.4672625 0 0 0 -0.18344,0.730313 v 0.07082 c 0.02294,0.400561 0.04622,0.730681 0.09172,0.989972 0.09172,0.613017 0.320657,1.060791 0.732687,1.296454 0.251886,0.14162 0.503751,0.236066 0.755627,0.236066 0.251877,0 0.480811,-0.07044 0.687183,-0.18886 0.365803,-0.188479 0.618035,-0.518227 0.778179,-0.989972 l 0.18344,-0.683837 0.298091,-1.95635 c 0.20565,-1.438094 0.434596,-3.418429 0.686471,-5.916587 l 0.02294,-0.25967 0.343586,-3.441331 1.259014,-0.14166 c 2.541634,-0.306501 4.465256,-0.353715 5.816304,-0.16488 0.731963,0.11802 1.190168,0.282908 1.39586,0.47138 v 0.141639 l -0.0455,0.330122 c 0,0.33012 0.09172,0.636623 0.297367,0.919155 0.206372,0.259289 0.480812,0.447771 0.801835,0.518591 0.38909,0.09442 0.732687,0.02324 1.075571,-0.18886 0.366515,-0.212089 0.572531,-0.494987 0.664253,-0.895914 0.13794,-0.589414 0.11464,-1.131265 -0.02222,-1.626188 -0.13794,-0.518591 -0.412022,-0.966735 -0.824397,-1.343666 -0.641681,-0.613019 -1.603334,-1.037185 -2.908206,-1.225689 -1.717197,-0.259671 -4.121672,-0.188859 -7.212584,0.18848 z m -30.682445,3.936685 c -0.09136,0.330487 -0.13722,0.660231 -0.16016,0.99034 -0.641323,0.542199 -1.213887,0.919153 -1.671338,1.178477 0.183086,-0.589414 0.503385,-1.202463 0.961622,-1.815038 0.343229,-0.02362 0.595106,-0.16488 0.869902,-0.353715 z M 8.8247245,37.619367 12.717094,30.241351 c 0.183442,-0.353349 0.480812,-0.589413 0.847338,-0.707075 0.36616,-0.141639 0.732686,-0.09442 1.075884,0.09442 0.343586,0.1885 0.572532,0.494987 0.686827,0.871941 0.114646,0.400931 0.09171,0.777527 -0.09136,1.131266 l -2.495775,4.761768 c 0.893197,-0.259292 1.808918,0.14126 1.946183,1.131266 a 13.196694,13.585764 0 0 1 0.892832,-1.344092 C 15.94554,35.68586 16.40342,35.14366 16.93007,34.790291 a 1.7856203,1.8382646 0 0 1 0.961623,-0.212458 c 0.457881,0.0472 0.84697,0.236062 1.144728,0.636623 v 0.0236 l 0.274806,0.49499 0.297725,-0.565808 c 0.824397,-1.437768 1.74018,-2.21564 2.770624,-2.333292 0.641321,-0.09444 1.396908,0.141639 1.854778,0.636625 0.389089,0.424165 0.595463,0.943124 0.618393,1.626184 v 0.0236 c 0,0.306135 -0.0688,0.636623 -0.16016,0.966364 0.366518,-0.09442 0.709757,-0.0472 1.030055,0.16486 0.228947,0.14164 0.389447,0.330119 0.526673,0.542199 0.11464,0.21209 0.18344,0.471382 0.18344,0.730679 v 0.09406 a 1.4198908,1.4617525 0 0 1 -0.206016,0.636991 c -0.595105,1.037185 -1.32817,1.909137 -2.152189,2.592586 -0.480811,0.376954 -0.915763,0.683836 -1.351048,0.872319 -1.351046,0.706707 -2.472897,0.730315 -3.320213,0.07044 -0.984553,0.707075 -1.831482,1.178479 -2.587498,1.414108 -0.73268,0.212098 -1.373605,0.16488 -1.900318,-0.11764 -0.618036,-0.306511 -1.030055,-0.824736 -1.213466,-1.579415 -0.09136,0.471381 -0.137228,0.80187 -0.137228,0.99034 v 0.0472 l 0.04586,0.400562 c 0,0.306503 -0.06878,0.565805 -0.228946,0.825106 -0.160154,0.259304 -0.389446,0.424168 -0.664253,0.542198 -0.343229,0.164879 -0.709756,0.164879 -1.075885,0 -0.366516,-0.14126 -0.618392,-0.424166 -0.778536,-0.801499 -0.137226,-0.35335 -0.183086,-0.777527 -0.137226,-1.296456 0.04586,-0.636624 0.206015,-1.484978 0.503741,-2.593015 l 0.206018,-0.754281 C 9.8555181,41.885571 8.8939172,43.700607 8.5273481,44.31329 7.8634522,45.468538 7.1078771,45.939907 6.2375773,45.75106 5.8714176,45.656634 5.5733246,45.46815 5.344379,45.161646 5.1154333,44.878371 4.9782193,44.525021 4.9323589,44.077594 L 4.0391602,39.480688 c -0.091362,-0.400559 -0.02293,-0.777527 0.2060155,-1.107602 0.2060153,-0.330488 0.5037411,-0.542199 0.8931985,-0.636625 0.3890899,-0.07082 0.755617,0 1.0758847,0.235696 0.320656,0.212087 0.5266713,0.518593 0.6183924,0.919154 l 0.3661597,1.815468 z m 24.2241985,-3.630181 -0.846614,0.754289 -1.145043,1.061157 c 0.41202,-0.707441 0.893199,-1.344099 1.534176,-1.815468 0.09172,-0.09406 0.20637,-0.16488 0.320666,-0.235694 0.228945,-0.117659 0.480811,-0.259291 0.755617,-0.330121 z m 9.319541,-0.754289 -0.98455,-0.0472 c 0.04622,-0.542199 0.11464,-1.20203 0.205645,-2.003885 a 6.5221579,6.7144464 0 0 1 1.145465,-0.18812 71.731248,73.846055 0 0 0 -0.366518,2.239193 z M 36.68974,32.952 36.575801,33.187695 36.323937,32.952 Z"
     id="path30" />
  <path
     style="fill:#ffffff;fill-rule:evenodd;stroke-width:2"
     d="m 24.006012,35.120343 v -0.0236 c 0,-0.424168 -0.13722,-0.754291 -0.366159,-1.013579 l -0.02256,-0.02324 c -0.320656,-0.306504 -0.709757,-0.424167 -1.145043,-0.376955 -0.755261,0.09442 -1.465332,0.730682 -2.152191,1.909139 -0.343585,0.613017 -0.618391,1.226012 -0.824397,1.862249 -0.206013,0.683835 -0.320665,1.296886 -0.320665,1.862248 v 0.0472 c -1.076305,0.895916 -1.969063,1.461754 -2.633358,1.720609 -0.366159,0.14164 -0.618391,0.18886 -0.755616,0.11802 -0.09136,-0.0472 -0.137578,-0.16524 -0.137578,-0.400561 0.04586,-0.589782 0.274805,-1.226015 0.641322,-1.956676 a 8.9910678,9.2561459 0 0 1 0.961979,-1.508964 0.64203624,0.66096498 0 0 0 0.640966,0 c 0.389082,-0.259279 0.595454,-0.565427 0.664244,-0.895536 0.0455,-0.25967 -0.02294,-0.47138 -0.18308,-0.683835 a 0.65278249,0.67202806 0 0 0 -0.549613,-0.283268 c -0.160511,-0.02324 -0.320665,0.02362 -0.50374,0.11766 l -0.503742,0.400929 c -0.137227,0.14166 -0.320655,0.376956 -0.549244,0.659865 l -0.732688,1.108041 c -0.618391,1.037182 -0.961621,2.027113 -1.076304,2.923072 v 0.0236 c -0.02293,0.282539 0.02293,0.542199 0.137578,0.824739 0.137227,0.353717 0.366159,0.613017 0.664252,0.777894 a 2.3341619,2.4029786 0 0 0 1.373611,0.02324 c 0.755617,-0.212101 1.717198,-0.777906 2.861924,-1.697395 l 0.18308,0.259289 c 0.618395,0.659866 1.488316,0.683839 2.701782,0.0472 0.343586,-0.141259 0.709757,-0.400929 1.144729,-0.730683 0.755617,-0.636623 1.41947,-1.437336 1.969481,-2.380508 l 0.09172,-0.330486 c 0,-0.212088 -0.09172,-0.400929 -0.275162,-0.518225 -0.13722,-0.07046 -0.297727,-0.11802 -0.457883,-0.07046 -0.16016,0.04684 -0.274806,0.14126 -0.366518,0.28253 -0.480809,0.848714 -1.053004,1.532195 -1.716881,2.074761 -0.343584,0.258921 -0.618391,0.447773 -0.870267,0.565437 h -0.0455 c -0.320657,0.18886 -0.595463,0.28291 -0.824399,0.330111 -0.228945,0.0472 -0.389089,0 -0.480809,-0.09444 -0.04586,-0.04684 -0.06844,-0.11766 -0.1143,-0.211712 l 1.763056,-1.626616 c 1.212418,-1.178046 1.807869,-2.215641 1.807869,-3.111167 z m 31.231302,2.993945 c 1.557054,0.14164 2.633359,0.494988 3.251792,1.108037 0.572531,0.542199 0.778181,1.249242 0.572531,2.121215 -0.04622,0.16488 -0.11464,0.306501 -0.251876,0.377323 -0.137939,0.09406 -0.298091,0.11766 -0.458237,0.09406 -0.16016,-0.0472 -0.274438,-0.14126 -0.365801,-0.282895 -0.06844,-0.14164 -0.11464,-0.306516 -0.06844,-0.448142 0.091,-0.423801 0.02222,-0.753911 -0.22966,-0.989972 -0.434593,-0.400564 -1.281888,-0.659864 -2.563884,-0.777895 -1.74018,-0.14126 -4.144549,0.0236 -7.258758,0.471379 l -0.41202,4.384828 c -0.251877,2.451378 -0.480811,4.407728 -0.687183,5.869374 l -0.297369,1.909459 -0.228946,0.801123 c -0.13722,0.236066 -0.320656,0.377321 -0.595461,0.377321 -0.365806,0 -0.595463,-0.259289 -0.664255,-0.777893 a 18.659023,19.209136 0 0 1 -0.06844,-0.919154 v -0.0236 c 0,-0.1885 0.0455,-0.33011 0.16016,-0.447772 0.114639,-0.118019 0.251865,-0.164879 0.412021,-0.188859 0.320668,-2.192089 0.709399,-5.798934 1.190902,-10.796011 -3.457375,0.565439 -7.670767,1.461322 -12.616354,2.68701 -4.35024,1.131264 -9.067047,2.404491 -14.150634,3.913024 l -4.647955,1.390875 -1.78604,0.565439 -0.43495,-0.04684 c -0.137228,-0.07082 -0.251865,-0.18886 -0.297726,-0.353718 -0.0455,-0.164879 -0.02293,-0.306501 0.04586,-0.471379 0.06879,-0.14164 0.183085,-0.236064 0.343229,-0.282908 l 1.78604,-0.565807 4.64828,-1.39088 c 5.105835,-1.508532 9.845521,-2.852306 14.19576,-3.936682 5.106255,-1.249245 9.433511,-2.168753 13.027734,-2.758209 0.22966,-2.68701 0.38909,-4.619809 0.458238,-5.822161 l 0.06844,-1.791482 c -0.275161,0.424164 -0.732686,1.155248 -1.351046,2.168751 -0.549247,0.943127 -0.984554,1.579406 -1.305188,1.909461 -0.343585,0.376954 -0.687183,0.471382 -1.007126,0.353348 -0.18344,-0.07044 -0.321022,-0.1885 -0.41202,-0.376954 -0.06914,-0.188499 -0.11464,-0.447775 -0.11464,-0.753921 0,-0.424533 0.13722,-1.41454 0.365804,-2.946733 l 0.13794,-0.824739 c 0.02294,-0.18886 0,-0.330122 -0.06914,-0.377322 -0.342874,-0.258923 -1.235715,-0.188499 -2.724344,0.23606 l -0.02294,0.212092 c -0.228946,1.697383 -0.343586,2.993513 -0.343586,3.936682 0,0.353718 0.02294,0.659865 0.04622,0.871941 0.228944,-0.259292 0.503027,-0.683835 0.824407,-1.24924 0.06844,-0.14164 0.20565,-0.236062 0.342871,-0.283274 a 0.54172036,0.55769156 0 0 1 0.45824,0.07082 c 0.13722,0.09406 0.228945,0.21209 0.274437,0.376955 0.04622,0.14126 0,0.306134 -0.06844,0.44814 -0.412019,0.753911 -0.778178,1.272472 -1.075568,1.578976 -0.435307,0.424165 -0.824399,0.565437 -1.214202,0.400559 -0.251876,-0.09406 -0.435308,-0.282908 -0.572532,-0.589411 -0.137219,-0.376956 -0.205647,-0.919155 -0.205647,-1.673398 0,-0.730683 0.06844,-1.697385 0.205647,-2.899522 -0.457523,1.131591 -1.007124,2.263177 -1.602597,3.441655 -0.595463,1.108037 -1.053007,1.86225 -1.41989,2.263177 -0.343588,0.400562 -0.709401,0.5422 -1.053009,0.447776 -0.228946,-0.09444 -0.412019,-0.236064 -0.503741,-0.494988 -0.09172,-0.236063 -0.13722,-0.565805 -0.13722,-0.966366 0,-0.330488 0.02222,-0.730681 0.06844,-1.226013 l -2.518339,2.263177 c -1.534487,1.3441 -2.610792,1.720612 -3.274667,1.084051 -0.434951,-0.424166 -0.549603,-1.131265 -0.320668,-2.144875 0.09172,-0.40056 0.229302,-0.825107 0.41202,-1.249242 0.18308,-0.400928 0.366517,-0.730681 0.549601,-0.990341 0.778547,-1.084051 1.6026,-1.838698 2.541637,-2.333619 0.297369,-0.14164 0.549245,-0.259299 0.823684,-0.330119 l 0.366518,-0.09442 c 0.16016,0 0.320663,0.0472 0.435305,0.14164 0.11394,0.117679 0.18344,0.259303 0.205648,0.424169 v 0.0472 c 0,0.16486 -0.0455,0.282897 -0.16016,0.400559 a 0.53741767,0.55326201 0 0 1 -0.365803,0.21209 l -0.275162,0.07082 a 1.922572,1.9792541 0 0 0 -0.640967,0.282908 c -0.709401,0.400929 -1.37403,1.037186 -1.969063,1.885477 -0.251874,0.376957 -0.45788,0.825107 -0.641321,1.34367 -0.13722,0.448139 -0.206016,0.825107 -0.206016,1.155248 0,0.11766 0.02256,0.21209 0.04586,0.259292 0.343231,-0.02324 0.892833,-0.376957 1.69432,-1.084052 l 1.190904,-1.084379 1.671022,-1.484548 a 3.0869245,3.1779344 0 0 1 0.595453,-0.400931 c 0.251875,-0.11766 0.480811,-0.11766 0.709399,0 0.251875,0.14164 0.389815,0.424165 0.389815,0.848703 l -0.02294,0.447771 -0.02294,0.09442 -0.11464,1.202462 c 0.275162,-0.376955 0.549958,-0.919531 0.893555,-1.579406 a 81.045019,83.434417 0 0 0 1.510878,-3.205591 c -0.618035,0.259291 -1.144728,0.471379 -1.602598,0.683835 l -0.458237,0.02324 c -0.16016,-0.0472 -0.251878,-0.16488 -0.320668,-0.306504 -0.06844,-0.14126 -0.06844,-0.306135 -0.02294,-0.471379 0.04622,-0.16488 0.16086,-0.28253 0.298094,-0.35335 l 0.846613,-0.353715 c 0.641679,-0.282908 1.282626,-0.542199 1.900639,-0.754287 0.43531,-1.084055 0.824409,-2.144877 1.168027,-3.229256 l 0.275163,-0.919152 0.09172,-0.353716 c 0.0455,-0.16488 0.13722,-0.282907 0.274438,-0.353715 a 0.49084355,0.50531479 0 0 1 0.435307,-0.07046 c 0.13722,0.02324 0.251868,0.09442 0.343588,0.21209 0.06844,0.09442 0.113939,0.235695 0.113939,0.376955 v 0.11766 l -0.205647,1.084052 c -0.16016,0.872319 -0.29737,1.697384 -0.435308,2.498595 1.580036,-0.376958 2.633357,-0.35372 3.251792,0.11766 0.342871,0.283277 0.526313,0.683837 0.526313,1.178802 l -0.16016,1.178046 -0.274437,1.90946 0.571817,-0.919153 c 0.916119,-1.508534 1.511612,-2.427721 1.786355,-2.781436 0.205648,-0.259302 0.41202,-0.424166 0.572531,-0.518593 l 0.549246,-0.02324 c 0.16016,0.07044 0.297369,0.164879 0.389089,0.306503 0.11464,0.14126 0.18344,0.376954 0.206374,0.659863 0.0455,0.424168 0.02294,1.320114 -0.04622,2.710996 -0.06844,1.154815 -0.20565,3.040726 -0.434595,5.562869 l 1.053006,-0.14126 c 2.587182,-0.330488 4.671264,-0.424534 6.205019,-0.306504 z m -32.444452,-3.182365 0.0455,0.18886 c 0,0.212087 -0.09136,0.494985 -0.274806,0.801498 -0.251866,0.42417 -0.641323,0.895927 -1.167606,1.41411 l -0.870257,0.825107 c 0.18308,-0.660229 0.457879,-1.296888 0.801477,-1.933121 0.480811,-0.801503 0.893199,-1.27247 1.259326,-1.319682 z m -10.074824,2.616248 -0.228946,0.707441 -0.45788,1.578972 c -0.275163,1.037188 -0.434951,1.815039 -0.481168,2.380833 -0.0455,0.400563 0,0.730315 0.09172,0.943128 0.04586,0.1885 0.160156,0.306136 0.297726,0.353348 0.160155,0.07082 0.297725,0.07082 0.45788,0 0.137226,-0.0472 0.251875,-0.16488 0.320667,-0.353348 a 0.48475682,0.4990486 0 0 0 0,-0.448141 c -0.0455,-0.21209 0.02293,-0.801501 0.251865,-1.744274 a 29.415773,30.28302 0 0 1 0.870268,-3.017171 c 0.04586,-0.16488 0.04586,-0.330488 -0.02293,-0.471382 -0.0688,-0.14166 -0.183083,-0.259291 -0.343229,-0.306503 -0.137577,-0.0472 -0.297726,-0.02324 -0.43495,0.02324 -0.160511,0.07118 -0.252233,0.188859 -0.321023,0.353715 z m 1.534175,-7.142278 c 0.137228,0.07082 0.228946,0.18886 0.274796,0.353716 0.0688,0.164879 0.04586,0.306503 -0.04586,0.447775 L 11.390236,37.171182 7.8181563,43.8893 A 5.3753311,5.5338087 0 0 1 7.314415,44.596745 C 6.9937591,44.855669 6.718953,44.973331 6.4212273,44.902881 A 0.79395301,0.81736062 0 0 1 5.9404161,44.549165 1.4029948,1.4443586 0 0 1 5.757331,43.959752 L 4.8412131,39.316069 v -0.14126 c 0,-0.14166 0.04586,-0.259302 0.1375818,-0.376956 0.06843,-0.118019 0.1830857,-0.188859 0.3206665,-0.212089 0.1830858,-0.0236 0.3206562,0 0.4578808,0.09406 0.1372258,0.0948 0.2289455,0.212089 0.2518652,0.376955 l 0.8014771,4.101862 c 0.41202,-0.683837 1.6258955,-2.946736 3.6638015,-6.836098 l 2.976629,-5.680522 c 0.06878,-0.14164 0.206015,-0.236066 0.343586,-0.283278 z"
     id="path31" />
  <path
     id="path1040"
     style="opacity:0.2;fill:#ffffff;stroke-width:3.99999;stroke-linecap:square"
     d="M 15.999983,4 C 9.3519992,4 4,9.3519995 4,15.999983 v 0.999999 C 4,10.351998 9.3519992,4.9999986 15.999983,4.9999986 h 31.999956 c 6.647982,0 11.999983,5.3519994 11.999983,11.9999834 V 15.999983 C 59.999922,9.3519995 54.647921,4 47.999939,4 Z" />
</svg>
