<?xml version="1.0" encoding="UTF-8" standalone="no"?>
<!-- Created with Inkscape (http://www.inkscape.org/) -->

<svg
   width="64"
   height="64"
   viewBox="0 0 64 64"
   version="1.1"
   id="svg5"
   inkscape:version="1.3 (0e150ed6c4, 2023-07-21)"
   sodipodi:docname="io.github.seadve.Kooha.svg"
   xmlns:inkscape="http://www.inkscape.org/namespaces/inkscape"
   xmlns:sodipodi="http://sodipodi.sourceforge.net/DTD/sodipodi-0.dtd"
   xmlns="http://www.w3.org/2000/svg"
   xmlns:svg="http://www.w3.org/2000/svg">
  <sodipodi:namedview
     id="namedview7"
     pagecolor="#ffffff"
     bordercolor="#000000"
     borderopacity="0.25"
     inkscape:showpageshadow="2"
     inkscape:pageopacity="0.0"
     inkscape:pagecheckerboard="0"
     inkscape:deskcolor="#d1d1d1"
     inkscape:document-units="px"
     showgrid="false"
     inkscape:zoom="12.234375"
     inkscape:cx="31.959132"
     inkscape:cy="32"
     inkscape:window-width="1920"
     inkscape:window-height="984"
     inkscape:window-x="0"
     inkscape:window-y="29"
     inkscape:window-maximized="1"
     inkscape:current-layer="svg5" />
  <defs
     id="defs2" />
  <rect
     style="opacity:0.2;fill:#000000;stroke-width:4;stroke-linecap:square"
     id="rect234"
     width="56"
     height="56"
     x="4"
     y="5"
     ry="12" />
  <rect
     style="fill:#f1356a;fill-opacity:1;stroke-width:4;stroke-linecap:square"
     id="rect396"
     width="56"
     height="56"
     x="4"
     y="4"
     ry="12" />
  <path
     d="m 18,25 v 16 h 2 l 6,-6 v 3 c 0,1.661992 1.338008,3 3,3 h 14 c 1.661992,0 3,-1.338008 3,-3 V 28 c 0,-1.661992 -1.338008,-3 -3,-3 H 29 c -1.661992,0 -3,1.338008 -3,3 v 3 l -6,-6 z m 18,2 c 3.313704,0 6,2.686296 6,6 0,3.313704 -2.686296,6 -6,6 -3.313704,0 -6,-2.686296 -6,-6 0,-3.313704 2.686296,-6 6,-6 z m 0,2 c -2.209136,0 -4,1.790864 -4,4 0,2.209136 1.790864,4 4,4 2.209136,0 4,-1.790864 4,-4 0,-2.209136 -1.790864,-4 -4,-4 z"
     style="opacity:0.2;fill:#000000;stroke-width:4;stroke-linecap:round;stroke-linejoin:round"
     id="path1" />
  <path
     d="m 18,24 v 16 h 2 l 6,-6 v 3 c 0,1.661992 1.338008,3 3,3 h 14 c 1.661992,0 3,-1.338008 3,-3 V 27 c 0,-1.661992 -1.338008,-3 -3,-3 H 29 c -1.661992,0 -3,1.338008 -3,3 v 3 l -6,-6 z m 18,2 c 3.313704,0 6,2.686296 6,6 0,3.313704 -2.686296,6 -6,6 -3.313704,0 -6,-2.686296 -6,-6 0,-3.313704 2.686296,-6 6,-6 z m 0,2 c -2.209136,0 -4,1.790864 -4,4 0,2.209136 1.790864,4 4,4 2.209136,0 4,-1.790864 4,-4 0,-2.209136 -1.790864,-4 -4,-4 z"
     style="fill:#ffffff;stroke-width:4;stroke-linecap:round;stroke-linejoin:round"
     id="path2" />
  <path
     id="path3"
     style="opacity:0.2;fill:#000000"
     d="m 12,13 v 6.667969 C 12.000717,20.403329 12.696277,20.999282 13.431641,21 14.168527,21.00144 14.999282,20.404856 15,19.667969 V 16 h 3.667969 C 19.404855,15.999282 20.00144,15.168526 20,14.431641 19.999282,13.696279 19.403329,13.000718 18.667969,13 Z m 33.332031,0 C 44.596671,13.000718 44.000718,13.696279 44,14.431641 43.99856,15.168526 44.595145,15.999282 45.332031,16 H 49 v 3.667969 C 49.000718,20.404856 49.831473,21.0014 50.568359,21 51.303722,20.999282 51.999282,20.403329 52,19.667969 V 13 Z M 13.431641,45 C 12.696277,45.000718 12.000717,45.596671 12,46.332031 V 53 h 6.667969 C 19.403329,52.999282 19.999282,52.303722 20,51.568359 20.00144,50.831474 19.404855,50.000718 18.667969,50 H 15 V 46.332031 C 14.999282,45.595144 14.168527,44.99856 13.431641,45 Z m 37.136718,0 C 49.831473,44.9986 49.000718,45.595144 49,46.332031 V 50 H 45.332031 C 44.595145,50.000718 43.9986,50.831474 44,51.568359 44.000718,52.303722 44.596671,52.999282 45.332031,53 H 52 V 46.332031 C 51.999282,45.596671 51.303722,45.000718 50.568359,45 Z" />
  <path
     id="path5"
     style="fill:#f89ab5"
     d="m 12,12 v 6.667969 C 12.000717,19.403331 12.696277,19.999282 13.431641,20 14.168529,20.00144 14.999282,19.404858 15,18.667969 V 15 h 3.667969 C 19.404857,14.999282 20.00144,14.168528 20,13.431641 19.999282,12.696278 19.403331,12.000718 18.667969,12 Z m 33.332031,0 C 44.596669,12.000718 44.000718,12.696278 44,13.431641 43.99856,14.168528 44.595143,14.999282 45.332031,15 H 49 v 3.667969 C 49.000718,19.404858 49.831471,20.0014 50.568359,20 51.303722,19.999282 51.999282,19.403331 52,18.667969 V 12 Z M 13.431641,44 C 12.696277,44.000718 12.000717,44.596669 12,45.332031 V 52 h 6.667969 C 19.403331,51.999282 19.999282,51.303722 20,50.568359 20.00144,49.831472 19.404857,49.000718 18.667969,49 H 15 V 45.332031 C 14.999282,44.595142 14.168529,43.99856 13.431641,44 Z m 37.136718,0 C 49.831471,43.9986 49.000718,44.595142 49,45.332031 V 49 H 45.332031 C 44.595143,49.000718 43.9986,49.831472 44,50.568359 44.000718,51.303722 44.596669,51.999282 45.332031,52 H 52 V 45.332031 C 51.999282,44.596669 51.303722,44.000718 50.568359,44 Z" />
  <path
     id="path1040"
     style="opacity:0.2;fill:#ffffff;stroke-width:4;stroke-linecap:square"
     d="M 16,4 C 9.3520132,4 4,9.3520136 4,16 v 1 C 4,10.352007 9.3520066,5 16,5 h 32 c 6.647994,0 12,5.352007 12,12 V 16 C 60,9.3520136 54.647986,4 48,4 Z" />
</svg>
