<?xml version="1.0" encoding="UTF-8" standalone="no"?>
<!-- Created with Inkscape (http://www.inkscape.org/) -->

<svg
   width="64"
   height="64"
   viewBox="0 0 64 64"
   version="1.1"
   id="svg5"
   inkscape:version="1.3 (0e150ed6c4, 2023-07-21)"
   sodipodi:docname="kate.svg"
   xmlns:inkscape="http://www.inkscape.org/namespaces/inkscape"
   xmlns:sodipodi="http://sodipodi.sourceforge.net/DTD/sodipodi-0.dtd"
   xmlns="http://www.w3.org/2000/svg"
   xmlns:svg="http://www.w3.org/2000/svg">
  <sodipodi:namedview
     id="namedview7"
     pagecolor="#ffffff"
     bordercolor="#000000"
     borderopacity="0.25"
     inkscape:showpageshadow="2"
     inkscape:pageopacity="0.0"
     inkscape:pagecheckerboard="0"
     inkscape:deskcolor="#d1d1d1"
     inkscape:document-units="px"
     showgrid="false"
     inkscape:zoom="12.234375"
     inkscape:cx="32"
     inkscape:cy="32"
     inkscape:window-width="1920"
     inkscape:window-height="984"
     inkscape:window-x="0"
     inkscape:window-y="29"
     inkscape:window-maximized="1"
     inkscape:current-layer="svg5" />
  <defs
     id="defs2" />
  <rect
     style="opacity:0.2;fill:#000000;stroke-width:4;stroke-linecap:square"
     id="rect234"
     width="56"
     height="56"
     x="4"
     y="5"
     ry="12" />
  <rect
     style="fill:#1d99ff;fill-opacity:1;stroke-width:4;stroke-linecap:square"
     id="rect396"
     width="56"
     height="56"
     x="4"
     y="4"
     ry="12" />
  <path
     style="opacity:0.1;fill:#000000;stroke-width:2"
     d="m 29.972656,13.007812 c -2.949656,0.09663 -6.27714,1.005736 -9.511718,3.32422 -3.358102,2.40703 -4.832019,3.0632 -6.460938,3.86328 1.440776,0.10878 10.001506,-1.088388 11.628906,3.832032 -5.840424,2.007622 -8.169504,5.183968 -7.472656,8.875 0.02766,0.17126 0.05974,0.344518 0.10156,0.519532 0.0122,0.04686 0.02586,0.09362 0.03906,0.14062 0.13454,0.518688 0.313656,1.047484 0.578126,1.597656 0.399126,0.8303 0.861002,1.508304 1.351562,2.125 0.1145,0.15622 0.216652,0.311794 0.339844,0.46875 -0.1226,-0.15444 -0.218012,-0.305352 -0.328124,-0.45703 2.76662,3.466206 6.903262,4.071804 11.699218,7.246092 4.4136,2.921218 5.878652,4.407838 8.726566,8.457036 C 40.07184,47.405278 36.95102,40.196508 35.671876,37.019532 l -0.08594,-0.265626 c 4.01827,2.773286 8.786926,3.820444 14.414062,4.21875 -8.933706,-6.29245 -10.628628,-7.187122 -15.742188,-11.5 -3.430646,0.1711 -3.055078,0.14302 -5.078124,0.257812 0.608262,1.00329 1.246408,1.914538 1.90625,2.75 1.313518,3.233876 1.097036,6.656278 -2.660156,7.429688 -4.55795,0.93824 -9.530746,-2.951536 -8.28125,-7.121094 1.356812,-4.527658 7.391074,-3.659918 13.535156,-4.445312 6.144082,-0.785396 11.76015,-6.747076 15.136718,-11.160156 -4.924582,1.662564 -10.989218,3.217858 -17.910154,5.238282 -1.362476,-2.704596 -2.867884,-7.53013 6.300782,-7.875001 -0.335334,-0.183281 -0.70073,-0.341441 -1.082032,-0.484375 0,0 -0.004,-0.0039 -0.004,-0.0039 -1.639046,-0.665712 -3.75602,-1.129155 -6.148344,-1.050788 z"
     id="path2" />
  <path
     style="fill:#e4e4e4;fill-opacity:1;stroke-width:2"
     d="M 25.670148,23.12875 C 24.133746,18.081828 15.451301,19.30649 14,19.196924 c 1.628919,-0.800082 3.091736,-0.50418 6.44984,-2.91121 6.469156,-4.636967 11.007844,-4.698598 14.437698,-2.857143 -9.376726,0.352697 -5.270696,5.524851 -3.88959,8.188191 -1.75636,0.504796 -4.528908,1.266826 -5.3278,1.511988 z"
     id="path3" />
  <path
     style="fill:#c4c4c4;fill-opacity:1;stroke-width:2"
     d="m 48.815786,16.183956 c -3.376568,4.41308 -8.99046,10.37546 -15.134542,11.160856 -6.144082,0.785394 -12.179388,-0.08468 -13.5362,4.442978 -1.249496,4.169558 3.72253,8.06247 8.28048,7.12423 4.86932,-1.00234 3.817718,-6.463266 1.154394,-10.182016 2.023046,-0.11478 0.433206,0.583954 3.86385,0.412852 l 2.22833,6.874976 C 36.951244,39.194808 40.070396,46.405278 40.662618,52 37.814704,47.950802 36.349914,46.46273 31.936318,43.541516 26.282792,39.79963 21.526164,39.672956 18.876082,34.16001 c -2.64436,-5.501032 1.433226,-9.463638 7.696514,-11.179722 8.9507,-2.45242 16.26342,-4.777532 22.24319,-6.796332 z"
     id="path4" />
  <path
     style="fill:#e4e4e4;fill-opacity:1;stroke-width:2"
     d="m 29.18042,28.730004 c 2.023046,-0.1148 1.646728,-0.08508 5.077374,-0.256174 C 39.371354,32.786708 41.066294,33.67955 50,39.972 41.020426,39.336398 34.226238,37.05275 29.18042,28.730004 Z"
     id="path5" />
  <path
     style="fill:#f2f2f2;fill-opacity:1;stroke-width:2"
     d="m 14,19.196924 c 1.628919,-0.800082 3.100994,-1.45958 6.459096,-3.866611 6.469158,-4.636966 13.31828,-3.625708 16.748136,-1.784254 -9.376728,0.352697 -8.168562,2.201329 -8.203164,3.650545 C 22.774144,15.897239 20.95514,17.665146 14,19.196924 Z"
     id="path6" />
  <path
     style="fill:#c4c4c4;fill-opacity:1;stroke-width:2"
     d="m 37.207232,13.546059 c -9.376728,0.352697 -7.59039,5.407363 -6.209284,8.070703 -1.09421,0.314486 -1.559,0.672758 -3.021736,1.055804 -5.901984,-10.405631 4.413956,-11.75934 9.23102,-9.126507 z"
     id="path7" />
  <path
     style="fill:#c4c4c4;fill-opacity:1;stroke-width:2"
     d="m 37.207232,13.546059 c -9.376728,0.352697 -7.59039,5.407363 -6.209284,8.070703 -1.09421,0.314486 -1.559,0.672758 -3.021736,1.055804 -5.901984,-10.405631 4.413956,-11.75934 9.23102,-9.126507 z"
     id="path8" />
  <path
     style="fill:#f2f2f2;fill-opacity:1;stroke-width:2"
     d="M 20.564538,36.752288 C 15.97608,30.90628 17.400702,25.547902 26.385564,22.763868 35.252134,20.016484 42.836016,18.202756 48.815786,16.183956 32.678592,22.267852 12.293749,26.333084 20.564538,36.752288 Z"
     id="path9" />
  <path
     id="path1040"
     style="opacity:0.2;fill:#ffffff;stroke-width:4;stroke-linecap:square"
     d="M 16,4 C 9.3520132,4 4,9.3520136 4,16 v 1 C 4,10.352014 9.3520132,5 16,5 h 32 c 6.647986,0 12,5.352014 12,12 V 16 C 60,9.3520136 54.647986,4 48,4 Z" />
</svg>
