<?xml version="1.0" encoding="UTF-8" standalone="no"?>
<!-- Created with Inkscape (http://www.inkscape.org/) -->

<svg
   width="64"
   height="64"
   viewBox="0 0 64 64"
   version="1.1"
   id="svg5"
   inkscape:version="1.2.2 (1:1.2.2+202305151914+b0a8486541)"
   sodipodi:docname="kde-frameworks.svg"
   xmlns:inkscape="http://www.inkscape.org/namespaces/inkscape"
   xmlns:sodipodi="http://sodipodi.sourceforge.net/DTD/sodipodi-0.dtd"
   xmlns="http://www.w3.org/2000/svg"
   xmlns:svg="http://www.w3.org/2000/svg">
  <sodipodi:namedview
     id="namedview7"
     pagecolor="#ffffff"
     bordercolor="#000000"
     borderopacity="0.25"
     inkscape:showpageshadow="2"
     inkscape:pageopacity="0.0"
     inkscape:pagecheckerboard="0"
     inkscape:deskcolor="#d1d1d1"
     inkscape:document-units="px"
     showgrid="false"
     inkscape:zoom="12.59375"
     inkscape:cx="31.960298"
     inkscape:cy="32"
     inkscape:window-width="1920"
     inkscape:window-height="1008"
     inkscape:window-x="0"
     inkscape:window-y="0"
     inkscape:window-maximized="1"
     inkscape:current-layer="svg5" />
  <defs
     id="defs2" />
  <rect
     style="opacity:0.2;fill:#000000;stroke-width:4;stroke-linecap:square"
     id="rect234"
     width="56"
     height="56"
     x="4"
     y="5"
     ry="12" />
  <rect
     style="fill:#00acc1;fill-opacity:1;stroke-width:4;stroke-linecap:square"
     id="rect396"
     width="56"
     height="56"
     x="4"
     y="4"
     ry="12" />
  <path
     d="m 36.000053,11.999962 -8.000019,1.210941 v 28.93757 L 36.000053,40.00003 V 28.820315 l 8.00002,13.17972 8.000019,-3.000007 -10.000023,-12.00003 10.003929,-12.996125 -7.761736,-2.003911 -8.242209,13.11722 z m -16.2891,7.847676 c -0.189182,0 -0.378371,0.07367 -0.523439,0.218751 l -3.14454,3.144539 c -0.290135,0.290134 -0.220287,0.704615 0,1.050781 l 3.253915,5.109389 c -0.241086,0.500443 -0.449847,1.015823 -0.625001,1.542972 -0.0076,0.02268 -0.0198,0.04368 -0.02734,0.06639 L 12.74219,32.292964 C 12.341649,32.381974 12,32.62485 12,33.03516 v 1.964848 1.964849 c 0,0.410311 0.341649,0.653182 0.74219,0.74219 l 5.902358,1.312504 c 0.013,0.0388 0.03358,0.07461 0.04687,0.113279 0.170501,0.512086 0.372705,1.013057 0.605469,1.500004 l -3.253913,5.105483 c -0.220289,0.346166 -0.290137,0.760647 0,1.050782 l 3.14454,3.144539 c 0.290136,0.290135 0.756737,0.290135 1.046878,0 l 5.101574,-3.250008 c 0.501519,0.2439 1.018213,0.455274 1.546877,0.632815 0.0347,0.0122 0.06677,0.03108 0.101561,0.04295 l 1.308595,5.898451 c 0,0.410312 0.331881,0.74219 0.742189,0.74219 h 4.441417 c 0.410312,0 0.653182,-0.341649 0.74219,-0.74219 l 1.308597,-6.078139 c 0.60121,-0.226027 1.18484,-0.4963 1.746099,-0.808596 l 4.980479,3.562508 c 0.290138,0.290135 0.756744,0.290135 1.04688,0 l 3.144537,-3.144539 c 0.290136,-0.290135 0.220289,-0.704616 0,-1.050782 l -1.894535,-2.875007 -0.199221,0.07421 c -0.450502,0.16922 -0.957652,-0.0064 -1.207032,-0.417969 l -1.99219,-3.28125 c -1.659876,3.970399 -5.579878,6.761734 -10.152368,6.761734 -6.075146,0 -11.000026,-4.924881 -11.000026,-11.000027 0,-4.661851 2.905604,-8.636721 7.000017,-10.238306 v -2.191411 l -0.0156,0.07031 c -0.04415,0.015 -0.0849,0.03914 -0.1289,0.05467 -0.521651,0.17324 -1.031793,0.379377 -1.527348,0.61719 L 20.234401,20.06636 c -0.14508,-0.145062 -0.334256,-0.218751 -0.523439,-0.218751 z"
     style="opacity:0.2;fill:#000000;stroke-width:2"
     id="path1821" />
  <path
     d="m 36.000053,10.99996 -8.000019,1.210941 V 41.14847 l 8.000019,-2.148442 V 27.820312 l 8.00002,13.179721 8.000019,-3.000008 L 42.000069,25.999996 52.003998,13.003871 44.242262,10.99996 36.000053,24.11718 Z m -16.2891,7.847676 c -0.189182,0 -0.378373,0.07367 -0.523439,0.218749 l -3.14454,3.14454 c -0.290135,0.290134 -0.220287,0.704616 0,1.050782 l 3.253913,5.109389 c -0.241084,0.500443 -0.449845,1.015823 -0.625001,1.542971 -0.0076,0.02268 -0.0198,0.04368 -0.02734,0.06639 L 12.74219,31.29296 C 12.341647,31.38198 12,31.624845 12,32.035155 v 1.964849 1.964849 c 0,0.410311 0.341647,0.653181 0.74219,0.74219 l 5.902358,1.312504 c 0.013,0.0388 0.03358,0.07461 0.04687,0.113278 0.170501,0.512087 0.372703,1.013058 0.605469,1.500004 l -3.253913,5.105483 c -0.220289,0.346166 -0.290137,0.760648 0,1.050783 l 3.14454,3.144539 c 0.290134,0.290135 0.756735,0.290135 1.046878,0 l 5.101574,-3.250008 c 0.501519,0.243899 1.018213,0.455274 1.546877,0.632814 0.0347,0.0122 0.06677,0.03108 0.101561,0.04296 l 1.308595,5.898451 c 0,0.410312 0.331881,0.742189 0.742189,0.742189 h 4.441417 c 0.410312,0 0.653182,-0.341648 0.74219,-0.742189 l 1.308597,-6.078139 c 0.60121,-0.226027 1.18484,-0.4963 1.746099,-0.808597 l 4.980479,3.562509 c 0.290138,0.290135 0.756744,0.290135 1.04688,0 l 3.144537,-3.144539 c 0.290136,-0.290135 0.220289,-0.704617 0,-1.050783 l -1.894535,-2.875006 -0.199221,0.07421 c -0.450502,0.169222 -0.957652,-0.0064 -1.207032,-0.417967 l -1.99219,-3.281251 c -1.659876,3.9704 -5.579878,6.761735 -10.152368,6.761735 -6.075146,0 -11.000026,-4.924881 -11.000026,-11.000027 0,-4.661852 2.905604,-8.636721 7.000017,-10.238307 v -2.19141 l -0.0156,0.07031 c -0.04415,0.015 -0.0849,0.03914 -0.1289,0.05467 -0.521651,0.173241 -1.031793,0.379377 -1.527348,0.61719 l -5.093783,-3.246078 c -0.14508,-0.145061 -0.334256,-0.218749 -0.523439,-0.218749 z"
     style="fill:#ffffff;stroke-width:2"
     id="path1793" />
  <path
     id="path1040"
     style="opacity:0.2;fill:#ffffff;stroke-width:4;stroke-linecap:square"
     d="M 16 4 C 9.3520132 4 4 9.3520136 4 16 L 4 17 C 4 10.352007 9.3520066 5 16 5 L 48 5 C 54.647993 5 60 10.352007 60 17 L 60 16 C 60 9.3520136 54.647985 4 48 4 L 16 4 z " />
</svg>
