<?xml version="1.0" encoding="UTF-8" standalone="no"?>
<!-- Created with Inkscape (http://www.inkscape.org/) -->

<svg
   width="64"
   height="64"
   viewBox="0 0 64 64"
   version="1.1"
   id="svg5"
   inkscape:version="1.3.2 (091e20ef0f, 2023-11-25, custom)"
   sodipodi:docname="kget.svg"
   xmlns:inkscape="http://www.inkscape.org/namespaces/inkscape"
   xmlns:sodipodi="http://sodipodi.sourceforge.net/DTD/sodipodi-0.dtd"
   xmlns="http://www.w3.org/2000/svg"
   xmlns:svg="http://www.w3.org/2000/svg">
  <sodipodi:namedview
     id="namedview7"
     pagecolor="#ffffff"
     bordercolor="#000000"
     borderopacity="0.25"
     inkscape:showpageshadow="2"
     inkscape:pageopacity="0.0"
     inkscape:pagecheckerboard="0"
     inkscape:deskcolor="#d1d1d1"
     inkscape:document-units="px"
     showgrid="false"
     inkscape:zoom="12.84375"
     inkscape:cx="32"
     inkscape:cy="32"
     inkscape:window-width="1920"
     inkscape:window-height="1008"
     inkscape:window-x="0"
     inkscape:window-y="0"
     inkscape:window-maximized="1"
     inkscape:current-layer="svg5" />
  <defs
     id="defs2" />
  <rect
     style="opacity:0.2;fill:#000000;stroke-width:4;stroke-linecap:square"
     id="rect234"
     width="56"
     height="56"
     x="4"
     y="5"
     ry="12" />
  <rect
     style="fill:#37a0f2;fill-opacity:1;stroke-width:4;stroke-linecap:square"
     id="rect396"
     width="56"
     height="56"
     x="4"
     y="4"
     ry="12" />
  <path
     id="path1"
     style="opacity:0.2;fill:#000000;stroke-width:4"
     d="m 30,15 c -1.107994,0 -2,0.892004 -2,2 V 35 H 20 L 32,47 44,35 H 36 V 17 c 0,-1.107996 -0.892006,-2 -2,-2 z m 2,32 H 20 c -1.107994,0 -2,0.892008 -2,2 0,1.107992 0.892006,2 2,2 h 24 c 1.107992,0 2,-0.892008 2,-2 0,-1.107992 -0.892008,-2 -2,-2 z" />
  <path
     id="path2"
     style="fill:#ffffff;stroke-width:4"
     d="m 30,14 c -1.107994,0 -2,0.892004 -2,2 V 34 H 20 L 32,46 44,34 H 36 V 16 c 0,-1.107996 -0.892006,-2 -2,-2 z m 2,32 H 20 c -1.107994,0 -2,0.892008 -2,2 0,1.107992 0.892006,2 2,2 h 24 c 1.107992,0 2,-0.892008 2,-2 0,-1.107992 -0.892008,-2 -2,-2 z" />
  <path
     d="M 16,4.0000002 C 9.3520066,4.0000002 4,9.352007 4,16 v 1 C 4,10.352007 9.3520066,5 16,5 h 32 c 6.647992,0 12,5.352007 12,12 V 16 C 60,9.352007 54.647992,4.0000002 48,4.0000002 Z"
     style="opacity:0.2;fill:#ffffff;stroke-width:4;stroke-linecap:square"
     id="path1040"
     sodipodi:nodetypes="sscsscsss" />
</svg>
