<?xml version="1.0" encoding="UTF-8" standalone="no"?>
<!-- Created with Inkscape (http://www.inkscape.org/) -->

<svg
   width="64"
   height="64"
   viewBox="0 0 64 64"
   version="1.1"
   id="svg5"
   inkscape:version="1.2.2 (1:1.2.2+202305151914+b0a8486541)"
   sodipodi:docname="konqueror.svg"
   xmlns:inkscape="http://www.inkscape.org/namespaces/inkscape"
   xmlns:sodipodi="http://sodipodi.sourceforge.net/DTD/sodipodi-0.dtd"
   xmlns="http://www.w3.org/2000/svg"
   xmlns:svg="http://www.w3.org/2000/svg">
  <sodipodi:namedview
     id="namedview7"
     pagecolor="#ffffff"
     bordercolor="#000000"
     borderopacity="0.25"
     inkscape:showpageshadow="2"
     inkscape:pageopacity="0.0"
     inkscape:pagecheckerboard="0"
     inkscape:deskcolor="#d1d1d1"
     inkscape:document-units="px"
     showgrid="false"
     inkscape:zoom="12.96875"
     inkscape:cx="32"
     inkscape:cy="32"
     inkscape:window-width="1920"
     inkscape:window-height="1008"
     inkscape:window-x="0"
     inkscape:window-y="0"
     inkscape:window-maximized="1"
     inkscape:current-layer="svg5" />
  <defs
     id="defs2" />
  <rect
     style="opacity:0.2;fill:#000000;stroke-width:4;stroke-linecap:square"
     id="rect234"
     width="56"
     height="56"
     x="4"
     y="5"
     ry="12" />
  <rect
     style="fill:#4f4f4f;fill-opacity:1;stroke-width:4;stroke-linecap:square"
     id="rect396"
     width="56"
     height="56"
     x="4"
     y="4"
     ry="12" />
  <path
     d="m 31.798688,13.000781 c -0.616008,0.0055 -1.231932,0.03941 -1.844812,0.101654 -0.328014,0.03315 -0.59205,0.284031 -0.64192,0.609929 l -0.387786,2.528195 c -0.898454,0.16434 -1.780302,0.400527 -2.641094,0.705936 l -1.594444,-1.989799 c -0.2061,-0.256956 -0.559836,-0.342102 -0.860284,-0.207075 -1.250518,0.561069 -2.438596,1.249524 -3.548438,2.053805 -0.267196,0.192866 -0.370161,0.542016 -0.25037,0.849006 l 0.926172,2.371946 c -0.697436,0.590088 -1.346339,1.23209 -1.940819,1.925796 l -2.356842,-0.916778 c -0.306452,-0.11882 -0.654482,-0.016 -0.847106,0.250374 -0.803803,1.111208 -1.491697,2.302318 -2.051885,3.554154 -0.13362,0.300368 -0.04776,0.653072 0.208954,0.85842 l 1.940819,1.558708 c -0.15688,0.433994 -0.315396,0.866708 -0.436732,1.3121 -0.0013,0.0038 -0.0026,0.0076 -0.0038,0.0114 -0.11388,0.445098 -0.18774,0.898952 -0.265432,1.351626 l -2.484849,0.380264 c -0.325272,0.04968 -0.575958,0.312758 -0.609918,0.64005 -0.1423,1.36255 -0.14402,2.73524 -0.0056,4.098196 0.03316,0.32802 0.284026,0.59206 0.609918,0.641932 l 2.528147,0.38591 c 0.16424,0.898508 0.400618,1.78029 0.705922,2.641146 l -1.989759,1.592592 c -0.257618,0.205602 -0.343558,0.55943 -0.208954,0.860302 0.561664,1.250652 1.250722,2.44059 2.055649,3.55039 0.19338,0.266514 0.542428,0.368678 0.84899,0.24849 l 2.368136,-0.924308 c 0.590976,0.698296 1.234687,1.34583 1.929523,1.940856 l -0.916758,2.356888 c -0.1198,0.30699 -0.0168,0.65614 0.250368,0.849008 1.111782,0.80395 2.303504,1.489946 3.555968,2.050038 0.299948,0.13406 0.652568,0.04898 0.858412,-0.207074 L 26.25486,49.09212 c 0.434026,0.1569 0.866644,0.317268 1.312076,0.438624 0.0038,6.64e-4 0.0076,0.0013 0.0112,0.0019 0.445122,0.1139 0.898914,0.18962 1.351606,0.267312 L 29.31,52.28109 c 0.04968,0.325276 0.31275,0.575968 0.640036,0.609928 1.362434,0.14294 2.735152,0.1453 4.09812,0.0076 0.328014,-0.03316 0.592046,-0.28403 0.641918,-0.609928 l 0.387796,-2.528396 c 0.897792,-0.16432 1.779036,-0.398866 2.639212,-0.704054 l 1.594444,1.9898 c 0.2061,0.256958 0.559836,0.342102 0.860286,0.207074 1.2506,-0.561686 2.440562,-1.250728 3.55032,-2.055686 0.26561,-0.19314 0.367668,-0.541054 0.248486,-0.84708 L 43.04633,45.980284 c 0.697112,-0.59066 1.344882,-1.235322 1.938934,-1.929558 l 2.356842,0.91678 c 0.306032,0.11922 0.653964,0.0172 0.847108,-0.248492 0.803918,-1.111828 1.491814,-2.303528 2.051882,-3.556038 0.1346,-0.300872 0.04866,-0.654698 -0.208954,-0.8603 l -1.940816,-1.554944 c 0.15724,-0.435208 0.317114,-0.869202 0.438614,-1.315868 6.54e-4,-0.0032 0.0013,-0.0062 0.0019,-0.0094 0.11442,-0.445076 0.18908,-0.898942 0.26731,-1.351632 l 2.482964,-0.382148 c 0.324662,-0.0495 0.575162,-0.311634 0.609904,-0.638212 0.14216,-1.361906 0.14384,-2.735888 0.0056,-4.098198 -0.03308,-0.328004 -0.283936,-0.59204 -0.609812,-0.641932 L 48.759662,29.92443 c -0.16432,-0.89789 -0.400824,-1.778976 -0.705922,-2.639258 l 1.991642,-1.59636 c 0.256952,-0.206104 0.342096,-0.559846 0.20707,-0.8603 -0.561674,-1.25065 -1.250706,-2.438708 -2.055644,-3.548506 -0.19286,-0.267202 -0.542006,-0.370166 -0.84899,-0.250374 l -2.37002,0.924306 c -0.590566,-0.697034 -1.233534,-1.34497 -1.92764,-1.938972 l 0.91676,-2.355004 c 0.11978,-0.30699 0.0168,-0.656141 -0.250368,-0.849006 -1.111164,-0.803835 -2.3023,-1.491712 -3.554086,-2.051923 -0.300362,-0.133626 -0.65306,-0.04777 -0.858404,0.208958 l -1.556794,1.940854 c -0.434596,-0.156976 -0.867942,-0.315405 -1.31396,-0.436739 -0.0038,-0.0013 -0.0074,-0.0026 -0.0112,-0.0038 -0.445612,-0.114456 -0.898554,-0.189098 -1.3517,-0.2673 l -0.378374,-2.483014 c -0.04968,-0.325277 -0.312752,-0.57597 -0.640038,-0.609929 -0.748912,-0.07822 -1.50035,-0.113942 -2.253306,-0.107302 z"
     style="opacity:0.2;fill:#000000;stroke-width:2"
     id="path1094" />
  <path
     d="m 31.798688,12.000734 c -0.616008,0.0055 -1.231932,0.03941 -1.844812,0.101654 -0.328014,0.03315 -0.59205,0.284031 -0.64192,0.609929 l -0.387786,2.528195 c -0.898454,0.16434 -1.780302,0.400527 -2.641094,0.705936 l -1.594444,-1.989799 c -0.2061,-0.256956 -0.559836,-0.342102 -0.860284,-0.207075 -1.250518,0.561069 -2.438596,1.249524 -3.548438,2.053805 -0.267196,0.192866 -0.370161,0.542016 -0.25037,0.849006 l 0.926172,2.371947 c -0.697436,0.590087 -1.346339,1.23209 -1.940819,1.925796 L 16.658051,20.03335 c -0.306452,-0.118816 -0.654482,-0.016 -0.847106,0.250374 -0.803802,1.111208 -1.491696,2.302318 -2.051884,3.554154 -0.13362,0.300368 -0.04776,0.653072 0.208954,0.85842 l 1.940818,1.558708 c -0.15688,0.433994 -0.315396,0.866708 -0.436732,1.3121 -0.0013,0.0038 -0.0026,0.0076 -0.0038,0.0114 -0.11388,0.445098 -0.18774,0.898952 -0.265432,1.351626 l -2.484848,0.380264 c -0.325272,0.04968 -0.575958,0.312758 -0.609918,0.64005 -0.1423,1.36255 -0.14402,2.735242 -0.0056,4.098198 0.03316,0.32802 0.284026,0.59206 0.609918,0.641932 l 2.528146,0.38591 c 0.16424,0.898508 0.400618,1.78029 0.705922,2.641146 l -1.989758,1.592592 c -0.257618,0.205602 -0.343558,0.55943 -0.208954,0.8603 0.561664,1.250652 1.250722,2.44059 2.055648,3.55039 0.19338,0.266514 0.542428,0.368678 0.84899,0.248492 l 2.368136,-0.924308 c 0.590976,0.698294 1.234687,1.34583 1.929523,1.940856 l -0.916758,2.356888 c -0.1198,0.30699 -0.0168,0.65614 0.250368,0.849006 1.111782,0.80395 2.303504,1.489946 3.555968,2.050038 0.299948,0.13406 0.652568,0.04898 0.858412,-0.207074 l 1.556796,-1.942738 c 0.434026,0.1569 0.866644,0.317268 1.312076,0.438624 0.0038,6.64e-4 0.0076,0.0013 0.0112,0.0019 0.445122,0.1139 0.898914,0.18962 1.351606,0.267314 L 29.31,51.281044 c 0.04968,0.325278 0.31275,0.57597 0.640036,0.60993 1.362434,0.14294 2.735152,0.1453 4.09812,0.0076 0.328014,-0.03316 0.592046,-0.28403 0.641918,-0.609928 L 35.07787,48.76025 c 0.897792,-0.16432 1.779036,-0.398866 2.639212,-0.704054 l 1.594444,1.9898 c 0.2061,0.256956 0.559836,0.342102 0.860286,0.207074 1.2506,-0.561688 2.440562,-1.250728 3.55032,-2.055686 0.26561,-0.19314 0.367668,-0.541054 0.248486,-0.84708 L 43.04633,44.98024 c 0.697112,-0.590664 1.344882,-1.235322 1.938934,-1.92956 l 2.356842,0.916778 c 0.306032,0.11922 0.653964,0.0172 0.847108,-0.248492 0.803918,-1.111826 1.491814,-2.303524 2.051882,-3.556036 0.1346,-0.300872 0.04866,-0.6547 -0.208954,-0.860302 l -1.940816,-1.554942 c 0.15724,-0.435208 0.317114,-0.869204 0.438614,-1.315868 6.54e-4,-0.0032 0.0013,-0.0062 0.0019,-0.0094 0.11442,-0.445076 0.18908,-0.898942 0.26731,-1.351632 l 2.482964,-0.382148 c 0.324662,-0.0495 0.575162,-0.311634 0.609904,-0.638212 0.14216,-1.361904 0.14384,-2.735888 0.0056,-4.098198 -0.03308,-0.328004 -0.283936,-0.59204 -0.609812,-0.641932 l -2.528144,-0.385912 c -0.16432,-0.89789 -0.400824,-1.778976 -0.705922,-2.639258 l 1.991642,-1.59636 c 0.256952,-0.206104 0.342096,-0.559846 0.20707,-0.8603 -0.561674,-1.25065 -1.250706,-2.438708 -2.055644,-3.548506 -0.19286,-0.267202 -0.542006,-0.370167 -0.84899,-0.250374 l -2.37002,0.924306 c -0.590566,-0.697034 -1.233534,-1.34497 -1.92764,-1.938972 l 0.91676,-2.355005 c 0.11978,-0.30699 0.0168,-0.656141 -0.250368,-0.849006 -1.111164,-0.803835 -2.3023,-1.491712 -3.554086,-2.051923 -0.300362,-0.133626 -0.65306,-0.04777 -0.858404,0.208958 l -1.556794,1.940854 c -0.434596,-0.156976 -0.867942,-0.315405 -1.31396,-0.436739 -0.0038,-0.0013 -0.0074,-0.0026 -0.0112,-0.0038 -0.445612,-0.114456 -0.898554,-0.189098 -1.3517,-0.2673 l -0.378374,-2.483014 c -0.04968,-0.325277 -0.312752,-0.57597 -0.640038,-0.609929 -0.748912,-0.07822 -1.50035,-0.113942 -2.253306,-0.107302 z"
     style="fill:#cdd2d3;stroke-width:2"
     id="path308" />
  <path
     id="path1122"
     style="opacity:0.2;fill:#ffffff;stroke-width:2"
     d="m 31.796876,12 c -0.616008,0.0055 -1.230872,0.03932 -1.843752,0.101562 -0.32801,0.03315 -0.590754,0.283478 -0.640624,0.609376 l -0.386718,2.53125 c -0.898454,0.164339 -1.78374,0.397716 -2.644532,0.703124 L 24.6875,13.957031 C 24.4814,13.700076 24.128572,13.614974 23.828124,13.75 c -1.250514,0.561068 -2.437036,1.250408 -3.546874,2.054688 -0.267196,0.192865 -0.36979,0.540666 -0.25,0.847656 l 0.113282,0.289062 c 0.03998,-0.04982 0.08298,-0.09793 0.136718,-0.136718 1.10984,-0.804281 2.296358,-1.49362 3.546874,-2.054688 0.300448,-0.135026 0.653276,-0.04992 0.859376,0.207031 l 1.59375,1.988281 c 0.860792,-0.305408 1.742172,-0.538785 2.640626,-0.703124 l 0.390624,-2.53125 c 0.04987,-0.325898 0.312612,-0.576222 0.640624,-0.609376 0.61288,-0.06224 1.227744,-0.0961 1.843752,-0.101562 0.752954,-0.0066 1.504994,0.03115 2.253906,0.109375 0.327284,0.03396 0.590944,0.284098 0.640624,0.609375 l 0.378906,2.480469 c 0.453146,0.0782 0.905952,0.155075 1.351564,0.269531 0.0038,0.0012 0.0079,0.0026 0.01172,0.0039 0.446018,0.121334 0.877904,0.280524 1.3125,0.4375 l 1.558594,-1.941406 c 0.205344,-0.256727 0.555106,-0.344563 0.855468,-0.210938 1.251784,0.560211 2.443524,1.250854 3.554688,2.054688 0.05451,0.03935 0.100282,0.08604 0.140624,0.136719 l 0.113282,-0.289063 c 0.11978,-0.306989 0.01326,-0.654791 -0.253906,-0.847656 -1.111164,-0.803833 -2.298996,-1.494477 -3.550782,-2.054688 -0.300362,-0.133625 -0.65403,-0.04579 -0.859374,0.210938 l -1.558594,1.941406 c -0.434596,-0.156975 -0.866482,-0.316166 -1.3125,-0.4375 -0.0038,-0.0013 -0.0079,-0.0027 -0.01172,-0.0039 -0.445612,-0.114456 -0.898418,-0.19133 -1.351564,-0.269531 L 34.691406,12.71875 C 34.641726,12.393473 34.378064,12.143335 34.050782,12.109375 33.30187,12.031153 32.549828,11.99336 31.796876,12 Z M 43.625,19.546875 43.335938,20.28125 c 0.582516,0.522346 1.134338,1.074314 1.640624,1.671874 l 2.371094,-0.921874 c 0.306984,-0.119792 0.654796,-0.0172 0.847656,0.25 0.752236,1.037134 1.400968,2.143646 1.941406,3.304688 0.178354,-0.20919 0.233198,-0.499674 0.117188,-0.757814 -0.561674,-1.250646 -1.253656,-2.43708 -2.058594,-3.546874 -0.19286,-0.267202 -0.540672,-0.369792 -0.847656,-0.25 l -2.371094,0.921874 C 44.554818,20.45535 44.099732,19.992811 43.625,19.546875 Z m -23.242188,0.0039 c -0.479098,0.443466 -0.94169,0.901921 -1.367187,1.398437 L 16.65625,20.035156 c -0.306451,-0.118819 -0.651126,-0.01637 -0.84375,0.25 -0.8038,1.111208 -1.4945,2.298946 -2.054688,3.550782 -0.11444,0.257254 -0.06023,0.549032 0.117188,0.757812 0.538876,-1.161508 1.186832,-2.270842 1.9375,-3.308594 0.192624,-0.266374 0.537298,-0.36882 0.84375,-0.25 l 2.359375,0.914062 c 0.509962,-0.59508 1.066003,-1.145208 1.652343,-1.664062 z m -4.972656,8.300781 c -0.07922,0.357162 -0.145126,0.717436 -0.207031,1.078126 l -2.484375,0.378906 c -0.325271,0.04968 -0.575415,0.313336 -0.609375,0.640624 -0.09247,0.885372 -0.122958,1.77561 -0.09766,2.664064 0.01147,-0.55505 0.0399,-1.111026 0.09766,-1.664064 0.03396,-0.32729 0.284103,-0.590944 0.609375,-0.640624 l 2.484375,-0.378906 c 0.07769,-0.452674 0.151745,-0.906466 0.265625,-1.351564 0.0012,-0.0038 0.0026,-0.0079 0.0039,-0.01172 0.04884,-0.179268 0.10571,-0.35518 0.164063,-0.53125 z m 33.121094,0.05078 -0.226562,0.183594 c 0.182026,0.604802 0.339244,1.217568 0.453124,1.839844 l 2.53125,0.382812 c 0.325876,0.04989 0.576296,0.316528 0.609376,0.64453 0.05355,0.527756 0.07832,1.05606 0.08984,1.585938 0.02438,-0.862666 -0.0026,-1.726436 -0.08984,-2.585938 -0.03308,-0.328 -0.2835,-0.594638 -0.609376,-0.64453 l -2.53125,-0.382812 c -0.06293,-0.343868 -0.14266,-0.684726 -0.226562,-1.023438 z m -33.0625,10.195312 -1.511719,1.210938 c -0.257617,0.205602 -0.345541,0.562412 -0.210937,0.863282 0.03677,0.08188 0.0793,0.16087 0.117187,0.242186 0.03023,-0.03587 0.05599,-0.07533 0.09375,-0.105468 l 1.734375,-1.386718 c -0.07962,-0.273266 -0.154373,-0.548222 -0.222656,-0.82422 z m 33.121094,0.05078 c -0.02033,0.09108 -0.03534,0.182996 -0.05859,0.273438 -6.12e-4,0.0032 6.54e-4,0.0085 0,0.01172 -0.04892,0.179854 -0.108738,0.35525 -0.167968,0.53125 l 1.667968,1.335938 c 0.03776,0.03013 0.06352,0.0696 0.09375,0.105468 0.03789,-0.0813 0.08052,-0.160182 0.117188,-0.242188 0.1346,-0.300872 0.04668,-0.657678 -0.210938,-0.86328 z m -4.96875,8.304686 c -0.09591,0.08908 -0.193452,0.176322 -0.289062,0.265626 l 0.523436,1.34375 c 0.158518,-0.198 0.208832,-0.465592 0.113282,-0.710938 z m -23.242188,0.0039 -0.34375,0.886718 c -0.09502,0.243482 -0.04657,0.509866 0.109376,0.707032 l 0.51953,-1.332032 c -0.09398,-0.08826 -0.191002,-0.173364 -0.285156,-0.261718 z" />
  <path
     id="path1040"
     style="opacity:0.2;fill:#ffffff;stroke-width:4;stroke-linecap:square"
     d="M 16,4 C 9.3520132,4 4,9.3520136 4,16 v 1 C 4,10.352013 9.3520132,5 16,5 h 32 c 6.647986,0 12,5.352013 12,12 V 16 C 60,9.3520136 54.647986,4 48,4 Z" />
  <circle
     style="opacity:0.1;fill:#000000;stroke-width:8;stroke-linecap:square"
     id="path1690"
     cx="32"
     cy="33"
     r="12" />
  <circle
     style="opacity:1;fill:#1486ff;fill-opacity:1;stroke-width:8;stroke-linecap:square"
     id="path1744"
     cx="32"
     cy="32"
     r="12" />
  <path
     d="m 32.000768,21 c -0.871386,0 -1.71877,0.096 -2.535692,0.27045 l -1.064308,2.129456 -1.608,-1.205492 c -2.883692,1.386408 -5.117538,3.883236 -6.152308,6.950502 l 2.360308,-0.944272 1.8,1.199954 0.6,-1.79993 7.8,-4.19984 -0.475384,-2.37683 c -0.24,-0.0138 -0.480924,-0.02308 -0.724616,-0.02308 m 8.886462,3.940462 -0.486462,1.45933 0.6,0.599976 -2.4,3.599858 1.2,4.19984 3.979384,0.498442 c 0.14308,-0.74397 0.220616,-1.511018 0.220616,-2.298372 0,-2.05469 -0.514154,-3.983846 -1.416922,-5.672088 L 41.600768,27.000692 41.958,26.284414 c -0.321232,-0.476292 -0.68677,-0.91843 -1.07077,-1.343028 M 20.238922,30.60055 c -0.132,0.657206 -0.207692,1.336566 -0.228924,2.028848 l 4.19077,1.571016 -0.6,-1.799932 -1.2,-1.799932 z m 3.961846,3.599864 3,7.199722 v 2.602976 c 1.469538,0.638746 3.090462,0.996886 4.8,0.996886 0.11908,0 0.236308,-0.0046 0.355384,-0.0084 l 3.844616,-6.59144 -9.6,-5.399792 z"
     style="opacity:0.2;fill:#000000;stroke-width:2"
     id="path1782" />
  <path
     d="m 32.000768,20 c -0.871386,0 -1.71877,0.096 -2.53569,0.27045 l -1.064308,2.129458 -1.608,-1.205492 c -2.883694,1.386408 -5.11754,3.883234 -6.15231,6.950502 l 2.36031,-0.944272 1.8,1.199954 0.6,-1.799932 7.799998,-4.199838 -0.475384,-2.376832 c -0.24,-0.0138 -0.480924,-0.02308 -0.724616,-0.02308 m 8.886462,3.940464 -0.486462,1.459328 0.6,0.599976 -2.4,3.59986 1.2,4.199838 3.979384,0.498442 c 0.14308,-0.743968 0.220616,-1.511016 0.220616,-2.29837 0,-2.05469 -0.514154,-3.983846 -1.416922,-5.672088 L 41.600768,26.000688 41.958,25.284408 C 41.636768,24.80812 41.27123,24.365982 40.88723,23.941382 m -20.648308,5.659166 c -0.132,0.657206 -0.207692,1.336566 -0.228922,2.028848 l 4.19077,1.571016 -0.6,-1.799932 -1.200002,-1.799932 z m 3.961848,3.599864 3,7.19972 v 2.602978 c 1.469538,0.638744 3.09046,0.996884 4.799998,0.996884 0.11908,0 0.236308,-0.0046 0.355384,-0.0084 l 3.844616,-6.59144 -9.599998,-5.39979 z"
     style="fill:#55f38d;stroke-width:2"
     id="path1754" />
</svg>
