<?xml version="1.0" encoding="UTF-8" standalone="no"?>
<!-- Created with Inkscape (http://www.inkscape.org/) -->

<svg
   width="64"
   height="64"
   viewBox="0 0 64 64"
   version="1.1"
   id="svg5"
   inkscape:version="1.2.2 (1:1.2.2+202305151914+b0a8486541)"
   sodipodi:docname="konversation.svg"
   xmlns:inkscape="http://www.inkscape.org/namespaces/inkscape"
   xmlns:sodipodi="http://sodipodi.sourceforge.net/DTD/sodipodi-0.dtd"
   xmlns="http://www.w3.org/2000/svg"
   xmlns:svg="http://www.w3.org/2000/svg">
  <sodipodi:namedview
     id="namedview7"
     pagecolor="#ffffff"
     bordercolor="#000000"
     borderopacity="0.25"
     inkscape:showpageshadow="2"
     inkscape:pageopacity="0.0"
     inkscape:pagecheckerboard="0"
     inkscape:deskcolor="#d1d1d1"
     inkscape:document-units="px"
     showgrid="false"
     inkscape:zoom="12.59375"
     inkscape:cx="31.960298"
     inkscape:cy="32"
     inkscape:window-width="1920"
     inkscape:window-height="1008"
     inkscape:window-x="0"
     inkscape:window-y="0"
     inkscape:window-maximized="1"
     inkscape:current-layer="svg5" />
  <defs
     id="defs2" />
  <rect
     style="opacity:0.2;fill:#000000;stroke-width:4;stroke-linecap:square"
     id="rect234"
     width="56"
     height="56"
     x="4"
     y="5"
     ry="12" />
  <rect
     style="fill:#1891d1;fill-opacity:1;stroke-width:4;stroke-linecap:square"
     id="rect396"
     width="56"
     height="56"
     x="4"
     y="4"
     ry="12" />
  <path
     d="m 47.99952,25 v 12 h 4 V 25 Z m -28,8 v 16 h 4.000002 V 33 Z"
     style="opacity:0.2;fill:#000000;fill-opacity:1;stroke-width:2;stroke-linecap:round;stroke-linejoin:round"
     id="path2695" />
  <rect
     style="fill:#e4e4e4;fill-opacity:1;stroke-width:2;stroke-linecap:round;stroke-linejoin:round"
     id="rect1296"
     width="4"
     height="16"
     x="19.999521"
     y="32" />
  <path
     d="m 46.48269,17.000566 c -0.12584,0.0038 -0.25062,0.02164 -0.371294,0.05332 L 13.059192,23.553743 C 12.431722,23.716018 12.000474,24.223589 12,24.800405 v 12.399701 c 4.74e-4,0.576815 0.431722,1.084392 1.059192,1.246664 l 33.052204,6.499978 c 0.943142,0.243722 1.887358,-0.379712 1.888128,-1.246664 V 18.300549 c 2.72e-4,-0.733069 -0.686182,-1.321384 -1.516834,-1.299983 z"
     style="opacity:0.2;fill:#000000;fill-rule:evenodd;stroke-width:1.99997"
     id="path2633" />
  <path
     d="m 46.48269,16.000566 c -0.12584,0.0038 -0.25062,0.02164 -0.371294,0.05332 l -33.052204,6.49985 C 12.431722,22.716011 12.000474,23.223582 12,23.800397 v 12.399706 c 4.74e-4,0.576816 0.431722,1.084393 1.059192,1.246665 l 33.052204,6.49998 c 0.943142,0.243722 1.887358,-0.379713 1.888128,-1.246665 V 17.300549 c 2.72e-4,-0.733069 -0.686182,-1.321384 -1.516834,-1.299983 z"
     style="fill:#ffffff;fill-rule:evenodd;stroke-width:1.99997"
     id="path411" />
  <rect
     style="fill:#e4e4e4;fill-opacity:1;stroke-width:1.73205;stroke-linecap:round;stroke-linejoin:round"
     id="rect483"
     width="4.0004759"
     height="12"
     x="48"
     y="24" />
  <path
     id="path1040"
     style="opacity:0.2;fill:#ffffff;stroke-width:4;stroke-linecap:square"
     d="M 16 4 C 9.3520132 4 4 9.3520136 4 16 L 4 17 C 4 10.352007 9.3520066 5 16 5 L 48 5 C 54.647993 5 60 10.352007 60 17 L 60 16 C 60 9.3520136 54.647985 4 48 4 L 16 4 z " />
</svg>
