<?xml version="1.0" encoding="UTF-8" standalone="no"?>
<!-- Created with Inkscape (http://www.inkscape.org/) -->

<svg
   width="64"
   height="64"
   viewBox="0 0 64 64"
   version="1.1"
   id="svg5"
   inkscape:version="1.3 (0e150ed6c4, 2023-07-21)"
   sodipodi:docname="kwalletmanager.svg"
   xmlns:inkscape="http://www.inkscape.org/namespaces/inkscape"
   xmlns:sodipodi="http://sodipodi.sourceforge.net/DTD/sodipodi-0.dtd"
   xmlns="http://www.w3.org/2000/svg"
   xmlns:svg="http://www.w3.org/2000/svg">
  <sodipodi:namedview
     id="namedview7"
     pagecolor="#ffffff"
     bordercolor="#000000"
     borderopacity="0.25"
     inkscape:showpageshadow="2"
     inkscape:pageopacity="0.0"
     inkscape:pagecheckerboard="0"
     inkscape:deskcolor="#d1d1d1"
     inkscape:document-units="px"
     showgrid="false"
     inkscape:zoom="12.5625"
     inkscape:cx="32"
     inkscape:cy="32"
     inkscape:window-width="1920"
     inkscape:window-height="1008"
     inkscape:window-x="0"
     inkscape:window-y="0"
     inkscape:window-maximized="1"
     inkscape:current-layer="svg5" />
  <defs
     id="defs2" />
  <rect
     style="opacity:0.2;fill:#000000;stroke-width:4;stroke-linecap:square"
     id="rect234"
     width="56"
     height="56"
     x="4"
     y="5"
     ry="12" />
  <rect
     style="fill:#4d4d4d;fill-opacity:1;stroke-width:4;stroke-linecap:square"
     id="rect396"
     width="56"
     height="56"
     x="4"
     y="4"
     ry="12" />
  <rect
     style="opacity:0.2;fill:#000000;stroke-width:2"
     width="32"
     height="22"
     x="20"
     y="29"
     ry="2"
     id="rect1" />
  <rect
     style="fill:#248afd;stroke-width:2"
     width="32"
     height="22"
     x="20"
     y="28"
     ry="2"
     id="rect2" />
  <rect
     style="fill:#4f4f4f;stroke-width:2"
     width="32"
     height="4"
     x="20"
     y="42"
     id="rect3" />
  <path
     id="path3"
     style="opacity:0.2;fill:#ffffff;stroke-width:2"
     d="m 44,28 v 1 h 6 c 1.101996,0 2,0.898004 2,2 v -1 c 0,-1.101996 -0.900004,-2 -2,-2 z" />
  <rect
     style="opacity:0.2;fill:#000000;stroke-width:2"
     width="32"
     height="22"
     x="12"
     y="15"
     ry="2"
     id="rect4" />
  <rect
     style="fill:#e4e4e4;stroke-width:2"
     width="32"
     height="22"
     x="12"
     y="14"
     ry="2"
     id="rect5" />
  <rect
     style="opacity:0.2;fill:#000000;stroke-width:1"
     width="4"
     height="4"
     x="38"
     y="30"
     id="rect6" />
  <path
     style="fill:#8e8e8e;stroke-width:1"
     d="m 30,22 v 2 h 12 v -2 z m 0,4 v 2 h 2 v -2 z m 4,0 v 2 h 8 v -2 z"
     id="path6" />
  <path
     style="fill:#4f4f4f;stroke-width:1"
     d="m 30,18 v 2 h 6 v -2 z m 8,0 v 2 h 4 v -2 z"
     id="path7" />
  <rect
     style="opacity:0.1;fill:#000000;stroke-width:2"
     width="14"
     height="14"
     x="14"
     y="17"
     ry="2"
     id="rect7" />
  <rect
     style="fill:#e97e10;stroke-width:2"
     width="14"
     height="14"
     x="14"
     y="16"
     ry="2"
     id="rect8" />
  <path
     style="fill:#e4e4e4;stroke-width:2"
     d="m 21,18 a 3,3 0 0 0 -3,3 3,3 0 0 0 3,3 3,3 0 0 0 3,-3 3,3 0 0 0 -3,-3 z m 0,8 c -5,0 -5,1.5 -5,1.5 V 28 h 10 v -0.5 c 0,0 0,-1.5 -5,-1.5 z"
     id="path8" />
  <path
     id="rect9"
     style="opacity:0.2;fill:#ffffff;stroke-width:2"
     d="m 14,14 c -1.107998,0 -2,0.892002 -2,2 v 1 c 0,-1.107998 0.892002,-2 2,-2 h 28 c 1.107996,0 2,0.892002 2,2 v -1 c 0,-1.107998 -0.892004,-2 -2,-2 z" />
  <path
     id="path1040"
     style="opacity:0.1;fill:#ffffff;stroke-width:4;stroke-linecap:square"
     d="M 16,4 C 9.3520132,4 4,9.3520136 4,16 v 1 C 4,10.352014 9.3520132,5 16,5 h 32 c 6.647986,0 12,5.352014 12,12 V 16 C 60,9.3520136 54.647986,4 48,4 Z" />
</svg>
