<?xml version="1.0" encoding="UTF-8" standalone="no"?>
<!-- Created with Inkscape (http://www.inkscape.org/) -->

<svg
   width="64"
   height="64"
   viewBox="0 0 64 64"
   version="1.1"
   id="svg5"
   inkscape:version="1.2.2 (1:1.2.2+202305151914+b0a8486541)"
   sodipodi:docname="libreoffice-draw.svg"
   xmlns:inkscape="http://www.inkscape.org/namespaces/inkscape"
   xmlns:sodipodi="http://sodipodi.sourceforge.net/DTD/sodipodi-0.dtd"
   xmlns="http://www.w3.org/2000/svg"
   xmlns:svg="http://www.w3.org/2000/svg">
  <sodipodi:namedview
     id="namedview7"
     pagecolor="#ffffff"
     bordercolor="#000000"
     borderopacity="0.25"
     inkscape:showpageshadow="2"
     inkscape:pageopacity="0.0"
     inkscape:pagecheckerboard="0"
     inkscape:deskcolor="#d1d1d1"
     inkscape:document-units="px"
     showgrid="false"
     inkscape:zoom="12.96875"
     inkscape:cx="32"
     inkscape:cy="32"
     inkscape:window-width="1920"
     inkscape:window-height="1008"
     inkscape:window-x="0"
     inkscape:window-y="0"
     inkscape:window-maximized="1"
     inkscape:current-layer="svg5" />
  <defs
     id="defs2" />
  <rect
     style="opacity:0.2;fill:#000000;stroke-width:4;stroke-linecap:square"
     id="rect234"
     width="56"
     height="56"
     x="4"
     y="5"
     ry="12" />
  <rect
     style="fill:#f3ae16;stroke-width:4;stroke-linecap:square;fill-opacity:1"
     id="rect396"
     width="56"
     height="56"
     x="4"
     y="4"
     ry="12" />
  <path
     d="m 24.000001,20.999999 c -4.419999,0 -7.999999,3.58 -7.999999,7.999999 0,4.42 3.58,8 7.999999,8 0.1,0 0.22,-0.02 0.32,-0.02 l -4.139999,6.46 c -0.46,0.659999 0.02,1.559999 0.82,1.559999 h 17.999999 c 0.8,0 1.279999,-0.9 0.82,-1.559999 l -2.84,-4.44 H 46 c 1.1,0 2,-0.9 2,-2 v -9.999999 c 0,-1.1 -0.9,-2 -2,-2 h -9.999999 c -1.1,0 -2,0.9 -2,2 v 7.379999 l -2.24,-3.48 c 0.16,-0.62 0.24,-1.24 0.24,-1.88 0,-4.419999 -3.58,-7.999999 -8,-7.999999 z m 12,6 H 46 v 9.999999 h -9.999999 z"
     style="opacity:0.2;fill:#000000;stroke-width:2"
     id="path1054" />
  <path
     d="m 36.000001,23.999999 c -1.100002,0 -2,0.9 -2,2 v 9.999999 c 0,1.1 0.899998,2 2,2 H 46 c 1.1,0 2,-0.9 2,-2 v -9.999999 c 0,-1.1 -0.9,-2 -2,-2 z m 0,2 H 46 v 9.999999 h -9.999999 z"
     style="fill:#fafafa;stroke-width:2"
     id="path949" />
  <circle
     style="fill:#ffffff;stroke-width:8;stroke-linecap:square"
     id="path892"
     cx="24"
     cy="28"
     r="7.9999995" />
  <path
     d="m 30.000001,27.999999 c -0.32,0 -0.64,0.159999 -0.82,0.439999 l -8.999999,14 c -0.46,0.66 0.02,1.56 0.82,1.56 h 17.999999 c 0.8,0 1.279999,-0.9 0.82,-1.56 l -9,-14 c -0.18,-0.28 -0.5,-0.439999 -0.82,-0.439999 z"
     style="fill:#fde9b6;stroke-width:2"
     id="path977" />
  <path
     d="M 16,4.0000002 C 9.3520066,4.0000002 4,9.352007 4,16 v 1 C 4,10.352007 9.3520066,5 16,5 h 32 c 6.647993,0 12,5.352007 12,12 V 16 C 60,9.352007 54.647993,4.0000002 48,4.0000002 Z"
     style="opacity:0.2;fill:#ffffff;stroke-width:4;stroke-linecap:square"
     id="path1040" />
</svg>
