<?xml version="1.0" encoding="UTF-8" standalone="no"?>
<!-- Created with Inkscape (http://www.inkscape.org/) -->

<svg
   width="64"
   height="64"
   viewBox="0 0 64 64"
   version="1.1"
   id="svg5"
   inkscape:version="1.3 (0e150ed6c4, 2023-07-21)"
   sodipodi:docname="lightsoff.svg"
   xmlns:inkscape="http://www.inkscape.org/namespaces/inkscape"
   xmlns:sodipodi="http://sodipodi.sourceforge.net/DTD/sodipodi-0.dtd"
   xmlns="http://www.w3.org/2000/svg"
   xmlns:svg="http://www.w3.org/2000/svg">
  <sodipodi:namedview
     id="namedview7"
     pagecolor="#ffffff"
     bordercolor="#000000"
     borderopacity="0.25"
     inkscape:showpageshadow="2"
     inkscape:pageopacity="0.0"
     inkscape:pagecheckerboard="0"
     inkscape:deskcolor="#d1d1d1"
     inkscape:document-units="px"
     showgrid="false"
     inkscape:zoom="12.234375"
     inkscape:cx="31.959132"
     inkscape:cy="32"
     inkscape:window-width="1920"
     inkscape:window-height="984"
     inkscape:window-x="0"
     inkscape:window-y="29"
     inkscape:window-maximized="1"
     inkscape:current-layer="svg5" />
  <defs
     id="defs2" />
  <rect
     style="opacity:0.2;fill:#000000;stroke-width:4;stroke-linecap:square"
     id="rect234"
     width="56"
     height="56"
     x="4"
     y="5"
     ry="12" />
  <path
     id="rect396"
     style="fill:#1f8fd7;fill-opacity:1;stroke-width:4;stroke-linecap:square"
     d="M 32,4 4,32 v 16 c 0,6.647992 5.3520066,12 12,12 H 32 L 60,32 V 16 C 60,9.3520066 54.647992,4 48,4 Z" />
  <path
     id="rect3568"
     style="fill:#2d4a5d;fill-opacity:1;stroke-width:2"
     d="m 32,32 v 28 h 16 c 6.647992,0 12,-5.352014 12,-12 V 32 Z" />
  <path
     id="rect3848"
     style="fill:#2d4a5d;fill-opacity:1;stroke-width:2"
     d="M 16,4 C 9.352,4 4,9.352006 4,16 V 32 H 32 V 4 Z" />
  <path
     id="path1040"
     style="opacity:0.1;fill:#ffffff;stroke-width:4;stroke-linecap:square"
     d="M 16,4 C 9.3520396,4 4,9.35204 4,16 v 1 C 4,10.35204 9.3520396,5 16,5 h 32 c 6.64796,0 12,5.35204 12,12 V 16 C 60,9.35204 54.64796,4 48,4 Z" />
</svg>
