<?xml version="1.0" encoding="UTF-8" standalone="no"?>
<!-- Created with Inkscape (http://www.inkscape.org/) -->

<svg
   width="64"
   height="64"
   viewBox="0 0 64 64"
   version="1.1"
   id="svg5"
   inkscape:version="1.3 (0e150ed6c4, 2023-07-21)"
   sodipodi:docname="microsoft-365.svg"
   xmlns:inkscape="http://www.inkscape.org/namespaces/inkscape"
   xmlns:sodipodi="http://sodipodi.sourceforge.net/DTD/sodipodi-0.dtd"
   xmlns="http://www.w3.org/2000/svg"
   xmlns:svg="http://www.w3.org/2000/svg">
  <sodipodi:namedview
     id="namedview7"
     pagecolor="#ffffff"
     bordercolor="#000000"
     borderopacity="0.25"
     inkscape:showpageshadow="2"
     inkscape:pageopacity="0.0"
     inkscape:pagecheckerboard="0"
     inkscape:deskcolor="#d1d1d1"
     inkscape:document-units="px"
     showgrid="false"
     inkscape:zoom="12.546875"
     inkscape:cx="32"
     inkscape:cy="32"
     inkscape:window-width="1850"
     inkscape:window-height="1011"
     inkscape:window-x="70"
     inkscape:window-y="32"
     inkscape:window-maximized="1"
     inkscape:current-layer="svg5" />
  <defs
     id="defs2" />
  <rect
     style="opacity:0.2;fill:#000000;stroke-width:4;stroke-linecap:square"
     id="rect234"
     width="56"
     height="56"
     x="4"
     y="5"
     ry="12" />
  <rect
     style="fill:#efefef;stroke-width:4;stroke-linecap:square;fill-opacity:1"
     id="rect396"
     width="56"
     height="56"
     x="4"
     y="4"
     ry="12" />
  <path
     style="opacity:0.2;fill:#000000;stroke-width:2"
     d="m 32.122438,13.000998 c -1.251999,-0.021 -2.506,0.2896 -3.634,0.925801 l -11.0192,6.722599 c -2.15,1.320001 -3.4688,3.682601 -3.4688,6.222601 v 12.25 c 0,2.55 1.3188,4.909999 3.4688,6.23 l 10.8052,6.598 c 2.292,1.4 5.16,1.4 7.452,0 l 10.802001,-6.602001 c 2.096,-1.283999 3.395999,-3.555999 3.463999,-6.023999 l 0.008,-0.2 v -12.252 c 0,-2.546 -1.316,-4.9056 -3.471999,-6.222601 L 35.726438,14.051799 c -1.11,-0.678201 -2.354,-1.0298 -3.604,-1.050801 z m -0.122,14.000001 c 3.268001,0 6,1.999 6,1.999 l 1,0.628 v 2.958 c 0,2.546 -1.108,4.862 -3.274,6.164 l -3.632,2.188 -2.824,-2.188 c -2.1504,-1.32 -3.27,-3.56 -3.27,-6.11 v -3.64 c 0,0 2.846,-1.999 6,-1.999 z"
     id="path1" />
  <path
     style="fill:#1e73c7;stroke-width:2"
     d="m 28.270438,13.061398 4.73,-0.0598 v 6.999601 l -4,4.999999 -3,2.9998 v 3.640001 c 0,2.55 1.12,4.789999 3.27,6.11 l 3.74,2.9 -10.01,5.9 h -1.93 l -3.6,-2.199999 c -2.15,-1.32 -3.47,-3.68 -3.47,-6.23 V 25.8712 c 0,-2.54 1.32,-4.9 3.47,-6.22 z"
     id="path2" />
  <path
     style="fill:#8762b5;stroke-width:2"
     d="m 39.000438,27.001198 v 4.5858 c 0,2.546 -1.106,4.862 -3.272,6.164 l -8.728,5.25 c -2.391,1.439999 -7.03,2.752 -9.2782,1.5 l 10.5502,6.45 c 2.292,1.4 5.164,1.4 7.456,0 l 10.800001,-6.604 c 2.153999,-1.318 3.471999,-3.678 3.471999,-6.222 v -3.124 l -1,-2 z"
     id="path3" />
  <path
     style="fill:#4aafe8;stroke-width:2"
     d="m 35.726438,13.051198 c -2.22,-1.3564 -4.984,-1.3984 -7.238,-0.126 l -0.214,0.1312 c -2.157,1.3174 -2.274,3.7138 -2.274,6.2588 v 8.685799 c 0,0 2.846,-1.999999 6,-1.999999 3.268001,0 6,1.999999 6,1.999999 l 8.526,5.376001 c 2.07,1.306 3.39,2.532 3.47,4.985999 l 0.004,-0.237999 v -12.2518 c 0,-2.546 -1.318,-4.906 -3.474,-6.223 z"
     id="path4" />
  <path
     style="opacity:0.2;fill:#ffffff;stroke-width:2"
     d="m 32.122438,12.000998 c -1.251999,-0.021 -2.506,0.2896 -3.634,0.9258 l -11.0192,6.7226 c -2.15,1.32 -3.4688,3.6826 -3.4688,6.2226 v 1 c 0,-2.54 1.3188,-4.9026 3.4688,-6.222601 l 11.0192,-6.722599 c 1.128,-0.636201 2.382001,-0.9468 3.634,-0.925801 1.25,0.021 2.494,0.3726 3.604,1.050801 l 10.802001,6.597599 c 2.155999,1.317001 3.471999,3.676601 3.471999,6.222601 v -1 c 0,-2.546 -1.316,-4.9056 -3.471999,-6.2226 l -10.802001,-6.5976 c -1.11,-0.6782 -2.354,-1.0298 -3.604,-1.0508 z m -6.122,19.64 v 1 c 0,2.55 1.1188,4.79 3.27,6.11 l 2.098,1.626 0.726,-0.438 -2.824,-2.188 c -2.1512,-1.320001 -3.27,-3.56 -3.27,-6.11 z"
     id="path5" />
  <path
     style="opacity:0.2;fill:#000000;stroke-width:2"
     d="m 39.000438,28.628998 v 1 l 7.528001,4.748 c 1.923999,1.212 3.195999,2.36 3.429999,4.488 0.016,-0.18 0.028,-0.356 0.034,-0.536 -0.092,-2.43 -1.404,-3.654 -3.463999,-4.952 z"
     id="path6" />
  <path
     d="M 16,4.0000002 C 9.3520066,4.0000002 4,9.352007 4,16 v 1 C 4,10.352007 9.3520066,5 16,5 h 32 c 6.647993,0 12,5.352007 12,12 V 16 C 60,9.352007 54.647993,4.0000002 48,4.0000002 Z"
     style="opacity:0.2;fill:#ffffff;stroke-width:4;stroke-linecap:square"
     id="path1040" />
</svg>
