<?xml version="1.0" encoding="UTF-8" standalone="no"?>
<!-- Created with Inkscape (http://www.inkscape.org/) -->

<svg
   width="64"
   height="64"
   viewBox="0 0 64 64"
   version="1.1"
   id="svg5"
   inkscape:version="1.4.3 (0d15f75042, 2025-12-25)"
   sodipodi:docname="modrinth-app.svg"
   xmlns:inkscape="http://www.inkscape.org/namespaces/inkscape"
   xmlns:sodipodi="http://sodipodi.sourceforge.net/DTD/sodipodi-0.dtd"
   xmlns="http://www.w3.org/2000/svg"
   xmlns:svg="http://www.w3.org/2000/svg">
  <sodipodi:namedview
     id="namedview7"
     pagecolor="#ffffff"
     bordercolor="#000000"
     borderopacity="0.25"
     inkscape:showpageshadow="2"
     inkscape:pageopacity="0.0"
     inkscape:pagecheckerboard="0"
     inkscape:deskcolor="#d1d1d1"
     inkscape:document-units="px"
     showgrid="false"
     inkscape:zoom="12.609375"
     inkscape:cx="31.960347"
     inkscape:cy="32"
     inkscape:window-width="1920"
     inkscape:window-height="1010"
     inkscape:window-x="0"
     inkscape:window-y="0"
     inkscape:window-maximized="1"
     inkscape:current-layer="svg5" />
  <defs
     id="defs2" />
  <rect
     style="opacity:0.2;fill:#000000;stroke-width:4;stroke-linecap:square"
     id="rect234"
     width="56"
     height="56"
     x="4"
     y="5"
     ry="12" />
  <rect
     style="fill:#4d4d4d;fill-opacity:1;stroke-width:4;stroke-linecap:square"
     id="rect396"
     width="56"
     height="56"
     x="4"
     y="4"
     ry="12" />
  <path
     id="path1040"
     style="opacity:0.1;fill:#ffffff;stroke-width:4;stroke-linecap:square"
     d="M 16,4 C 9.3520066,4 4,9.352007 4,16 v 1 C 4,10.352007 9.3520066,5 16,5 h 32 c 6.647992,0 12,5.352007 12,12 V 16 C 60,9.352007 54.647992,4 48,4 Z" />
  <path
     d="m 32.775214,13.015711 c -1.968086,-0.07828 -3.981146,0.134572 -5.983746,0.670343 -8.243778,2.206257 -13.901667,9.241542 -14.737611,17.241542 h 3.382888 c 0.804687,-6.495314 5.449233,-12.167198 12.168781,-13.965628 8.30472,-2.222657 16.826614,2.262486 19.7985,10.130486 l -3.29226,0.880428 c -1.51483,-3.660172 -4.56709,-6.343772 -8.18192,-7.486742 l -0.604714,3.425 c 2.853916,1.052342 5.168774,3.425 6.015634,6.582056 1.2344,4.6008 -1.06406,9.314858 -5.234378,11.270314 l 0.900718,3.358628 c 5.48126,-2.261742 8.774234,-7.9578 7.99532,-13.829684 l 3.279744,-0.8774 c 0.34423,2.189542 0.241716,4.4262 -0.301516,6.575028 l 3.32886,1.2102 c 0.88986,-3.288314 0.949946,-6.847742 0.0028,-10.375114 C 48.987228,19.158712 41.30348,13.354711 32.775014,13.015711 Z M 32.5415,19.88694 c -1.304686,-0.05542 -2.640544,0.08286 -3.96866,0.438228 -7.009404,1.875772 -11.16878,9.071172 -9.290664,16.0712 0.17028,0.63517 0.384372,1.246028 0.638288,1.83197 l -3.015004,1.80863 C 16.48829,39.152596 16.143802,38.21891 15.881289,37.241568 15.630431,36.30874 15.46566,35.37294 15.380488,34.442482 H 12 c 0.09343,1.2614 0.305486,2.5112 0.633543,3.732772 2.862517,10.666428 13.840753,16.996942 24.522049,14.139142 5.955488,-1.593772 10.560976,-5.707828 12.974264,-10.885972 l -3.331288,-1.210942 c -2.032828,4.154714 -5.786802,7.442172 -10.610236,8.7328 -6.700804,1.792972 -13.543724,-0.780514 -17.497642,-5.975058 l 3.000802,-1.799942 c 2.81643,3.529714 7.34989,5.4508 11.991324,4.836742 L 32.7821,42.653396 c -3.110172,0.263428 -6.110204,-0.998542 -8.10552,-3.2704 l 3.892232,-2.335086 2.23283,2.485972 4.978946,-1.576686 2.97106,-3.642886 -0.857856,-1.9298 -2.879632,0.911714 -1.318828,1.448544 -1.853032,0.493 C 31.8399,35.236996 30.528214,33.84311 30.528214,33.84311 l -0.647742,-1.802228 1.321856,-1.358628 1.850146,-0.581972 2.120972,-2.148458 -1.331944,-1.639856 -4.601602,0.991372 -3.640604,3.73977 1.161658,3.0806 -3.85546,2.313258 c -0.114,-0.301572 -0.214,-0.611772 -0.3,-0.929714 -1.385916,-5.16723 1.684342,-10.477372 6.857806,-11.862544 0.826542,-0.221142 1.656256,-0.328114 2.473456,-0.332028 z"
     style="opacity:0.2;fill:#000000;fill-opacity:1;stroke-width:0.0781252"
     id="path1" />
  <path
     d="m 32.775214,12.015711 c -1.968086,-0.07828 -3.981146,0.134572 -5.983746,0.670343 -8.243778,2.206257 -13.901667,9.241542 -14.737611,17.241542 h 3.382888 c 0.804687,-6.495314 5.449233,-12.167198 12.168781,-13.965628 8.30472,-2.222657 16.826614,2.262486 19.7985,10.130486 l -3.29226,0.880428 c -1.51483,-3.66017 -4.56709,-6.34377 -8.18192,-7.486742 l -0.604714,3.425 c 2.853916,1.052342 5.168774,3.425 6.015634,6.582056 1.2344,4.6008 -1.06406,9.314858 -5.234378,11.270314 l 0.900718,3.35863 c 5.48126,-2.261744 8.774234,-7.9578 7.99532,-13.829686 l 3.279744,-0.8774 c 0.34423,2.189542 0.241716,4.4262 -0.301516,6.575028 l 3.32886,1.2102 c 0.88986,-3.288314 0.949946,-6.847742 0.0028,-10.375114 C 48.987228,18.158712 41.30348,12.354711 32.775014,12.015711 Z M 32.5415,18.88694 c -1.304686,-0.05542 -2.640544,0.08286 -3.96866,0.438228 -7.009404,1.875772 -11.16878,9.071172 -9.290664,16.0712 0.17028,0.635172 0.384372,1.246028 0.638288,1.831972 L 16.90546,39.036968 C 16.48829,38.152596 16.143802,37.218912 15.881289,36.241568 15.630431,35.30874 15.46566,34.37294 15.380488,33.442482 H 12 c 0.09343,1.2614 0.305486,2.5112 0.633543,3.732772 2.862517,10.666428 13.840753,16.996942 24.522049,14.139142 5.955488,-1.59377 10.560976,-5.707828 12.974264,-10.88597 l -3.331288,-1.210944 c -2.032828,4.154714 -5.786802,7.442172 -10.610236,8.7328 -6.700804,1.792972 -13.543724,-0.780514 -17.497642,-5.975056 l 3.000802,-1.799944 c 2.81643,3.529714 7.34989,5.4508 11.991324,4.836744 L 32.7821,41.653396 c -3.110172,0.26343 -6.110204,-0.998542 -8.10552,-3.2704 l 3.892232,-2.335084 2.23283,2.48597 4.978946,-1.576686 2.97106,-3.642884 -0.857856,-1.9298 -2.879632,0.911714 -1.318828,1.448542 -1.853032,0.493 c -0.0024,-7.72e-4 -1.314086,-1.394656 -1.314086,-1.394656 l -0.647742,-1.80223 1.321856,-1.358628 1.850146,-0.581972 2.120972,-2.148456 -1.331944,-1.639858 -4.601602,0.991372 -3.640604,3.739772 1.161658,3.0806 -3.85546,2.313256 c -0.114,-0.301572 -0.214,-0.611772 -0.3,-0.929714 -1.385916,-5.167228 1.684342,-10.477372 6.857806,-11.862542 0.826542,-0.221144 1.656256,-0.328116 2.473456,-0.33203 z"
     style="fill:#1bd96a;fill-opacity:1;stroke-width:0.0781252"
     id="path2" />
  <path
     id="path3"
     style="opacity:0.2;fill:#ffffff;fill-opacity:1;stroke-width:0.0781252"
     d="m 32.773438,12.015625 c -1.968086,-0.07829 -3.97787,0.136104 -5.98047,0.671875 -8.243776,2.206257 -13.902337,9.238282 -14.73828,17.238282 h 0.128906 c 1.184227,-7.580944 6.71093,-14.124445 14.609374,-16.238282 2.0026,-0.535771 4.012384,-0.750161 5.98047,-0.671875 8.528466,0.339 16.213976,6.142137 18.539062,14.808593 0.420252,1.56511 0.640528,3.136252 0.679688,4.6875 0.0473,-1.87354 -0.16886,-3.785044 -0.679688,-5.6875 C 48.987414,18.157762 41.301904,12.354625 32.773438,12.015625 Z m -0.23047,6.871093 c -1.304686,-0.05542 -2.640634,0.08212 -3.96875,0.4375 -6.038818,1.616036 -9.964594,7.181714 -9.734374,13.16797 0.215336,-5.59643 4.033354,-10.64233 9.734374,-12.16797 1.268656,-0.339458 2.544104,-0.481638 3.79297,-0.445312 z m 3.38672,0.597658 -0.60547,3.42578 c 0.05424,0.02 0.11022,0.04156 0.16406,0.0625 0.0011,4.38e-4 0.0028,-4.38e-4 0.004,0 l 0.4375,-2.48828 c 3.61483,1.142972 6.668764,3.82811 8.183594,7.48828 L 47.402434,27.09375 C 47.287074,26.788312 47.1631,26.486452 47.03134,26.191406 l -2.917968,0.78125 c -1.51492,-3.66017 -4.568854,-6.345308 -8.183684,-7.48828 z m -2.089844,5.828124 -4.601562,0.992188 -3.640626,3.73828 0.273438,0.71875 3.367188,-3.45703 4.601562,-0.992188 0.886718,1.09375 0.445314,-0.453126 z m 11.253906,5.957032 -0.08984,0.02344 c 0.05392,0.406438 0.08604,0.811172 0.10156,1.214844 0.0158,-0.410884 0.012,-0.822612 -0.0118,-1.23828 z m -7.199218,0.11328 -2.878908,0.914064 -1.320312,1.449218 -1.851562,0.492188 C 31.84135,34.23751 30.527344,32.84375 30.527344,32.84375 l -0.38672,-1.074218 -0.261718,0.26953 0.648438,1.804688 c 0,0 1.314006,1.39376 1.316406,1.394532 l 1.851562,-0.492188 1.320312,-1.449218 2.878908,-0.914064 0.570312,1.28125 L 38.75,33.3125 Z m 10.578124,1.082032 c -0.03614,1.186228 -0.19984,2.367048 -0.492188,3.523438 l 0.207032,0.07422 c 0.227532,-1.185376 0.321838,-2.393412 0.285156,-3.597658 z m -26.1875,0.03126 c -0.0516,0.989406 0.04974,2.002938 0.320312,3.011718 0.086,0.317942 0.18678,0.628116 0.300782,0.929688 l 3.855468,-2.3125 -0.308594,-0.816406 -3.546874,2.128906 c -0.114,-0.301572 -0.214782,-0.611746 -0.300782,-0.929688 -0.18006,-0.671366 -0.285534,-1.34445 -0.320312,-2.011718 z m 19.375,0.0118 c -0.18374,3.522692 -2.299004,6.727322 -5.554688,8.253906 l 0.238282,0.88672 c 3.421448,-1.719832 5.515392,-5.322958 5.316406,-9.140626 z M 12,33.441406 c 0.02476,0.334252 0.05629,0.667688 0.09766,1 h 3.28125 c 0.08517,0.930458 0.253049,1.867954 0.503906,2.800782 0.262516,0.977344 0.606266,1.908596 1.023438,2.792968 l 3.015626,-1.808594 c -0.1146,-0.264468 -0.222302,-0.53403 -0.320314,-0.808594 L 16.90625,39.035156 C 16.489078,38.150784 16.145328,37.219532 15.882812,36.242188 15.631955,35.30936 15.464078,34.371864 15.378906,33.441406 Z m 13.285156,5.574218 -0.609374,0.367188 c 1.995316,2.271858 4.995296,3.532962 8.105468,3.269532 l 0.640626,2.390624 c 0.08652,-0.0096 0.17512,-0.0198 0.261718,-0.03126 L 32.78125,41.652334 c -2.807566,0.2378 -5.52607,-0.767704 -7.496094,-2.63672 z m 21.51172,0.203126 c -2.03283,4.154714 -5.785942,7.43984 -10.609376,8.730468 -6.40396,1.713544 -12.935426,-0.561566 -16.953124,-5.30078 l -0.54297,0.328124 c 3.953918,5.194542 10.79529,7.765628 17.496094,5.972656 4.823434,-1.290628 8.576546,-4.575754 10.609376,-8.730468 l 2.914062,1.058594 c 0.14642,-0.279096 0.28476,-0.561832 0.417968,-0.847656 z" />
</svg>
