<?xml version="1.0" encoding="UTF-8" standalone="no"?>
<!-- Created with Inkscape (http://www.inkscape.org/) -->

<svg
   width="64"
   height="64"
   viewBox="0 0 64 64"
   version="1.1"
   id="svg5"
   inkscape:version="1.2.2 (1:1.2.2+202305151914+b0a8486541)"
   sodipodi:docname="ms-onedrive.svg"
   xmlns:inkscape="http://www.inkscape.org/namespaces/inkscape"
   xmlns:sodipodi="http://sodipodi.sourceforge.net/DTD/sodipodi-0.dtd"
   xmlns="http://www.w3.org/2000/svg"
   xmlns:svg="http://www.w3.org/2000/svg">
  <sodipodi:namedview
     id="namedview7"
     pagecolor="#ffffff"
     bordercolor="#000000"
     borderopacity="0.25"
     inkscape:showpageshadow="2"
     inkscape:pageopacity="0.0"
     inkscape:pagecheckerboard="0"
     inkscape:deskcolor="#d1d1d1"
     inkscape:document-units="px"
     showgrid="false"
     inkscape:zoom="12.59375"
     inkscape:cx="31.960298"
     inkscape:cy="32"
     inkscape:window-width="1920"
     inkscape:window-height="1008"
     inkscape:window-x="0"
     inkscape:window-y="0"
     inkscape:window-maximized="1"
     inkscape:current-layer="svg5" />
  <defs
     id="defs2" />
  <rect
     style="opacity:0.2;fill:#000000;stroke-width:4;stroke-linecap:square"
     id="rect234"
     width="56"
     height="56"
     x="4"
     y="5"
     ry="12" />
  <rect
     style="fill:#efefef;stroke-width:4;stroke-linecap:square;fill-opacity:1"
     id="rect396"
     width="56"
     height="56"
     x="4"
     y="4"
     ry="12" />
  <path
     d="M 32,19 C 27.4159,19.0108 23.1275,21.265198 20.51954,25.035156 14.6464,25.29192 10.01318,30.121272 10,36 c 0,6.075132 4.92486,11 11,11 h 24 c 4.97056,0 9,-4.029438 9,-9 C 53.9989,33.192726 50.22006,29.234972 45.41796,29.011718 43.6531,23.073264 38.19516,19.000854 32,19 Z"
     style="opacity:0.2;fill:#1a1a1a;fill-opacity:1;stroke-width:10;stroke-linecap:round;stroke-linejoin:round"
     id="path2109" />
  <circle
     style="fill:#056ab6;fill-opacity:1;stroke-width:10;stroke-linecap:round;stroke-linejoin:round"
     id="path1629"
     cx="32"
     cy="32"
     r="14" />
  <path
     id="path2137"
     style="opacity:0.1;fill:#ffffff;fill-opacity:1;stroke-width:10;stroke-linecap:round;stroke-linejoin:round"
     d="m 32,18 c -7.73198,0 -14,6.268022 -14,14 0.006,0.18398 0.018,0.36722 0.0312,0.550782 A 14,14 0 0 1 32,19 14,14 0 0 1 45.98046,32.269532 c 0.006,-0.08992 0.016,-0.17952 0.02,-0.269532 0,-7.731978 -6.26802,-14 -14,-14 z" />
  <path
     d="m 21,24.000002 c -4.03012,0.0048 -7.73492,2.2132 -9.65624,5.755862 l -0.02,0.006 C 10.47958,31.318904 10,33.104002 10,35.000002 10.002,40.685648 14.3379,45.432344 20,45.94922 V 46 h 1 24 c 3.32662,-0.0024 6.38062,-1.839608 7.9414,-4.777344 l -15.43358,-9.19922 -11.08594,-6.60742 -0.0352,0.0098 C 24.74328,24.496098 22.88818,24.00507 21,24.000002 Z"
     style="fill:#1581d9;stroke-width:2"
     id="path1557"
     sodipodi:nodetypes="ccccccccccccc" />
  <path
     d="m 45,28 c -1.27342,0.06308 -2.37956,0.299226 -3.41992,0.679696 l -0.002,0.002 c -3.33358,1.390166 -6.79742,2.837276 -9.8066,4.093694 L 11.85156,41.091796 C 13.6941,43.859122 16.68938,45.644658 20,45.949222 v 0.05078 h 1 24 c 4.97056,0 9,-4.029438 9,-9 0,-4.970562 -4.02944,-9 -9,-8.999998 z"
     style="fill:#138fe6;stroke-width:2"
     id="path2053"
     sodipodi:nodetypes="ccccccccssc" />
  <path
     d="m 35.8865,31.056634 c -1.37978,0.576144 -24.03124,10.033202 -24.03124,10.033202 0.014,0.02222 0.03,0.04432 0.045,0.06642 0.20016,0.295864 0.415,0.579122 0.64062,0.851562 0.0362,0.04354 0.0706,0.08788 0.1074,0.13086 0.23008,0.269252 0.47138,0.525268 0.7246,0.769532 0.0298,0.02876 0.0578,0.05946 0.088,0.0879 0.57762,0.544696 1.21166,1.02353 1.88868,1.429688 0.0306,0.0184 0.0628,0.03462 0.0938,0.05272 0.29924,0.17556 0.60702,0.337694 0.92188,0.484376 0.0676,0.03144 0.1368,0.05974 0.20508,0.08984 0.28362,0.12516 0.57302,0.238788 0.86718,0.339844 0.0844,0.0289 0.1684,0.05902 0.2539,0.08594 0.29598,0.09366 0.59778,0.16968 0.90236,0.238282 0.0812,0.0182 0.1602,0.0422 0.24218,0.0586 0.38302,0.07716 0.77072,0.13764 1.16406,0.17382 V 46 h 1 24 c 0.38024,-2.74e-4 0.75568,-0.03102 1.12696,-0.07814 0.088,-0.011 0.1746,-0.02748 0.26172,-0.04102 0.30986,-0.04868 0.61544,-0.10946 0.916,-0.18946 0.0594,-0.0156 0.119,-0.03 0.1778,-0.04686 0.72668,-0.209406 1.4214,-0.508474 2.06836,-0.888672 0.0572,-0.03366 0.1136,-0.06864 0.17,-0.10352 0.30134,-0.18616 0.59328,-0.38666 0.8711,-0.607422 0.008,-0.007 0.018,-0.0126 0.0274,-0.0196 0.002,-0.0022 0.004,-0.0054 0.008,-0.0078 0.29794,-0.239164 0.58108,-0.49861 0.84766,-0.77539 0.0332,-0.0345 0.063,-0.07238 0.0956,-0.10742 0.23514,-0.252086 0.45762,-0.518656 0.66406,-0.798828 0.0272,-0.03666 0.0554,-0.0723 0.082,-0.10938 0.22748,-0.318798 0.43822,-0.652322 0.625,-1.003906"
     style="fill:#38afec;stroke-width:2"
     id="path2081"
     sodipodi:nodetypes="cccccscscscccccccccccccsccccscccc" />
  <path
     id="path2220"
     style="opacity:0.1;fill:#ffffff;stroke-width:2"
     d="m 21,24 c -4.03012,0.0048 -7.73494,2.215154 -9.65624,5.757812 l -0.02,0.004 C 10.48004,31.318758 10,33.104002 10,35 c 6e-5,0.18964 0.006,0.378976 0.016,0.566406 0.0672,-1.734304 0.52914,-3.367018 1.3086,-4.804688 l 0.02,-0.004 C 13.26506,27.215154 16.96988,25.0048 21,25 c 1.88818,0.005 3.74332,0.496064 5.38672,1.425782 l 0.0352,-0.0118 11.08594,6.609376 14.99218,8.9375 c 0.1574,-0.238192 0.30578,-0.482986 0.4414,-0.738282 l -15.43358,-9.199218 -11.08594,-6.60547 -0.0352,0.0078 C 24.74332,24.496064 22.88818,24.005068 21,24 Z" />
  <path
     id="path2276"
     style="opacity:0.2;fill:#ffffff;stroke-width:2"
     d="m 45,28 c -1.27342,0.06308 -2.3776,0.299218 -3.41796,0.679688 l -0.004,0.004 c -3.33358,1.390164 -6.79942,2.833428 -9.80858,4.089844 l -19.91798,8.316406 c 0.1764,0.264906 0.36574,0.51915 0.5625,0.765624 l 19.35548,-8.08203 c 3.00916,-1.256416 6.475,-2.69968 9.80858,-4.089844 l 0.004,-0.004 C 42.6224,29.299218 43.72658,29.06308 45,29 c 4.80324,-2e-6 8.72562,3.761358 8.98438,8.5 0.01,-0.16506 0.016,-0.33269 0.016,-0.5 0,-4.970558 -4.02944,-9.000002 -9,-9 z" />
  <path
     d="M 16,4.0000002 C 9.3520066,4.0000002 4,9.352007 4,16 v 1 C 4,10.352007 9.3520066,5 16,5 h 32 c 6.647993,0 12,5.352007 12,12 V 16 C 60,9.352007 54.647993,4.0000002 48,4.0000002 Z"
     style="opacity:0.2;fill:#ffffff;stroke-width:4;stroke-linecap:square"
     id="path1040" />
</svg>
