<?xml version="1.0" encoding="UTF-8" standalone="no"?>
<!-- Created with Inkscape (http://www.inkscape.org/) -->

<svg
   width="64"
   height="64"
   viewBox="0 0 64 64"
   version="1.1"
   id="svg5"
   inkscape:version="1.2.2 (1:1.2.2+202305151914+b0a8486541)"
   sodipodi:docname="office-calendar.svg"
   xmlns:inkscape="http://www.inkscape.org/namespaces/inkscape"
   xmlns:sodipodi="http://sodipodi.sourceforge.net/DTD/sodipodi-0.dtd"
   xmlns="http://www.w3.org/2000/svg"
   xmlns:svg="http://www.w3.org/2000/svg">
  <sodipodi:namedview
     id="namedview7"
     pagecolor="#ffffff"
     bordercolor="#000000"
     borderopacity="0.25"
     inkscape:showpageshadow="2"
     inkscape:pageopacity="0.0"
     inkscape:pagecheckerboard="0"
     inkscape:deskcolor="#d1d1d1"
     inkscape:document-units="px"
     showgrid="false"
     inkscape:zoom="12.59375"
     inkscape:cx="32"
     inkscape:cy="32"
     inkscape:window-width="1920"
     inkscape:window-height="1008"
     inkscape:window-x="0"
     inkscape:window-y="0"
     inkscape:window-maximized="1"
     inkscape:current-layer="svg5" />
  <defs
     id="defs2" />
  <rect
     style="opacity:0.2;fill:#000000;stroke-width:4;stroke-linecap:square"
     id="rect234"
     width="56"
     height="56"
     x="4"
     y="5"
     ry="12" />
  <rect
     style="fill:#e4e4e4;stroke-width:4;stroke-linecap:square;fill-opacity:1"
     id="rect396"
     width="56"
     height="56"
     x="4"
     y="4"
     ry="12" />
  <path
     d="m 30,24 v 3.999999 h 4 V 24 Z m -6,5.999999 v 4 h 4 v -4 z M 36,24 v 3.999999 h 3.999999 V 24 Z m 5.999999,0 v 3.999999 h 4 V 24 Z m 6,0 v 3.999999 h 4 V 24 Z m 0,5.999999 v 4 h 4 v -4 z m -35.999999,0 v 4 h 4 v -4 z m 6,0 v 4 h 4 v -4 z m 12,0 v 4 h 4 v -4 z m 11.999999,0 v 4 h 4 v -4 z m -29.999999,6 v 4 h 4 v -4 z m 6,0 v 4 h 4 v -4 z m 6,0 v 4 h 4 v -4 z m 6,0 v 4 h 4 v -4 z m 6,0 v 4 h 3.999999 v -4 z m 5.999999,0 v 4 h 4 v -4 z m 6,0 v 4 h 4 v -4 z m -35.999999,6 v 4 h 4 v -4 z m 6,0 v 4 h 4 v -4 z m 6,0 v 4 h 4 v -4 z m 6,0 v 4 h 4 v -4 z m 6,0 v 4 h 3.999999 v -4 z m 5.999999,0 v 4 h 4 v -4 z m 6,0 v 4 h 4 v -4 z m -35.999999,6 v 4 h 4 v -4 z m 6,0 v 4 h 4 v -4 z m 6,0 v 4 h 4 v -4 z m 6,0 v 4 h 4 v -4 z"
     style="fill:#b6b6b6;fill-opacity:1;stroke-width:0.5"
     id="path4563" />
  <rect
     style="fill:#f54b3e;fill-opacity:1;stroke-width:2;stroke-linecap:square"
     id="rect4635"
     width="4"
     height="4"
     x="36.000061"
     y="30" />
  <path
     id="rect1233"
     style="fill:#f54b3e;fill-opacity:1;stroke-width:4;stroke-linecap:square"
     d="m 16,4 h 31.999999 c 6.648,0 12,5.3519998 12,12 v 2 H 4 V 16 C 4,9.3519998 9.352,4 16,4 Z"
     sodipodi:nodetypes="sssccss" />
  <rect
     style="opacity:0.2;fill:#000000;fill-opacity:1;stroke-width:7.07106;stroke-linecap:round;stroke-linejoin:round"
     id="rect4964"
     width="56"
     height="1"
     x="4.0000005"
     y="17.999998" />
  <path
     d="m 14,11 c -1.10457,0 -2,0.895431 -2,2 0,1.10457 0.89543,2 2,2 1.10457,0 2,-0.89543 2,-2 0,-1.104569 -0.89543,-2 -2,-2 z m 35.999999,0 c -1.104568,0 -2,0.895431 -2,2 0,1.10457 0.895432,2 2,2 1.10457,0 2,-0.89543 2,-2 0,-1.104569 -0.89543,-2 -2,-2 z"
     style="opacity:0.2;fill:#000000;stroke-width:1.33333"
     id="path2633" />
  <path
     d="m 14,9.9999998 c -1.10457,0 -2,0.8954312 -2,2.0000002 0,1.10457 0.89543,2 2,2 1.10457,0 2,-0.89543 2,-2 0,-1.104569 -0.89543,-2.0000002 -2,-2.0000002 z m 35.999999,0 c -1.104568,0 -2,0.8954312 -2,2.0000002 0,1.10457 0.895432,2 2,2 1.10457,0 2,-0.89543 2,-2 0,-1.104569 -0.89543,-2.0000002 -2,-2.0000002 z"
     style="fill:#ffffff;stroke-width:1.33333"
     id="path2605" />
  <path
     d="M 16,4.0000002 C 9.3520066,4.0000002 4,9.352007 4,16 v 1 C 4,10.352007 9.3520066,5 16,5 h 32 c 6.647993,0 12,5.352007 12,12 V 16 C 60,9.352007 54.647993,4.0000002 48,4.0000002 Z"
     style="opacity:0.2;fill:#ffffff;stroke-width:4;stroke-linecap:square"
     id="path1040" />
</svg>
