<?xml version="1.0" encoding="UTF-8" standalone="no"?>
<!-- Created with Inkscape (http://www.inkscape.org/) -->

<svg
   width="64"
   height="64"
   viewBox="0 0 64 64"
   version="1.1"
   id="svg5"
   inkscape:version="1.3 (0e150ed6c4, 2023-07-21)"
   sodipodi:docname="openttd.svg"
   xmlns:inkscape="http://www.inkscape.org/namespaces/inkscape"
   xmlns:sodipodi="http://sodipodi.sourceforge.net/DTD/sodipodi-0.dtd"
   xmlns="http://www.w3.org/2000/svg"
   xmlns:svg="http://www.w3.org/2000/svg">
  <sodipodi:namedview
     id="namedview7"
     pagecolor="#ffffff"
     bordercolor="#000000"
     borderopacity="0.25"
     inkscape:showpageshadow="2"
     inkscape:pageopacity="0.0"
     inkscape:pagecheckerboard="0"
     inkscape:deskcolor="#d1d1d1"
     inkscape:document-units="px"
     showgrid="false"
     inkscape:zoom="12.234375"
     inkscape:cx="31.959132"
     inkscape:cy="32"
     inkscape:window-width="1920"
     inkscape:window-height="984"
     inkscape:window-x="0"
     inkscape:window-y="29"
     inkscape:window-maximized="1"
     inkscape:current-layer="svg5"
     showguides="false" />
  <defs
     id="defs2" />
  <rect
     style="opacity:0.2;fill:#000000;stroke-width:4;stroke-linecap:square"
     id="rect234"
     width="56"
     height="56"
     x="4"
     y="5"
     ry="12" />
  <rect
     style="fill:#fde5cd;fill-opacity:1;stroke-width:4;stroke-linecap:square"
     id="rect396"
     width="56"
     height="56"
     x="4"
     y="4"
     ry="12" />
  <path
     id="rect309"
     style="opacity:0.2;fill:#000000;stroke-width:4;stroke-linecap:square"
     d="m 32,13 c -0.399788,0 -0.79913,0.1546 -1.105468,0.460938 L 12.460937,31.894532 c -0.612676,0.612676 -0.612676,1.59826 0,2.210936 l 1.105469,1.10547 -1.199219,1.195312 c -0.481836,0.481836 -0.481835,1.256446 0,1.73828 l 14.480469,14.476564 c 0.481836,0.481836 1.256446,0.481836 1.738282,0 l 1.195312,-1.195312 1.113282,1.11328 c 0.612676,0.612676 1.59826,0.612676 2.210936,0 l 1.113282,-1.113282 1.210938,1.210938 c 0.481836,0.481836 1.260352,0.481838 1.742188,2e-6 L 51.648438,38.160156 c 0.481836,-0.481836 0.481836,-1.256444 -2e-6,-1.738282 L 50.4375,35.20703 51.539062,34.105468 c 0.612676,-0.612676 0.612676,-1.59826 0,-2.210936 L 33.105468,13.460938 C 32.79913,13.1546 32.399788,13 32,13 Z" />
  <rect
     style="fill:#4bae4f;fill-opacity:1;stroke-width:4;stroke-linecap:square"
     id="rect391"
     width="22.934"
     height="22.934"
     x="33.782009"
     y="-5.4142928"
     ry="1.23"
     transform="rotate(45)" />
  <rect
     style="fill:#4bae4f;fill-opacity:1;stroke-width:4;stroke-linecap:square"
     id="rect393"
     width="22.934"
     height="22.934"
     x="39.862213"
     y="-11.474336"
     ry="1.23"
     transform="rotate(45)" />
  <rect
     style="fill:#f58411;fill-opacity:1;stroke-width:4;stroke-linecap:square"
     id="rect930"
     width="29.198"
     height="29.198"
     x="30.655407"
     y="-14.599"
     ry="1.564"
     transform="rotate(45)" />
  <path
     d="m 32.666664,40.333336 c 0.942652,-0.08612 1.453014,-0.46634 1.945194,-0.940212 0.500504,-0.4739 0.721474,-0.907926 0.721474,-1.726454 0,-0.740982 -0.216774,-1.582104 -0.70896,-2.099066 -0.49215,-0.51694 -1.006716,-0.96717 -1.957708,-1.234266 z M 31.333336,25.666668 c -0.859234,0.06034 -1.651616,0.423304 -2.127112,0.87993 -0.475496,0.44804 -0.539558,1.028528 -0.539558,1.786736 0,0.689284 0.04324,1.284884 0.47699,1.741532 0.44213,0.45666 1.255364,0.640808 2.189674,0.925136 z M 26,40.333336 v -3.33333 h 1.333334 c 0.03336,1.180396 0.413036,1.686602 1.04703,2.289726 0.633994,0.603122 1.701664,1.017758 2.952972,1.043604 V 34.333338 C 29.41467,33.78191 27.942408,32.78031 27.1666,32.065174 26.390792,31.341424 26,30.385018 26,29.196 c 0,-1.378564 0.461698,-2.485696 1.379322,-3.321454 0.917622,-0.835762 2.318976,-1.43782 3.954014,-1.541208 V 21 h 1.333328 v 3.333338 c 0.842544,0.06896 1.444672,0.343602 2.220478,0.558974 0.784152,0.20675 1.703754,0.487064 2.446192,0.84035 V 29 H 36 c -0.10012,-0.999464 -0.62485,-1.669352 -1.200446,-2.246622 -0.575628,-0.577274 -1.148524,-1.00917 -2.13289,-1.086716 v 6.000004 c 2.052142,0.577276 3.279912,1.186874 4.097432,1.93647 C 37.589956,34.344114 38,35.084002 38,36.333334 c 0,1.430266 -0.48093,2.83146 -1.448624,3.693062 -0.967676,0.86161 -2.124542,1.51103 -3.884712,1.64027 V 45 H 31.333336 V 41.666666 C 30.5325,41.649666 29.577444,41.374782 28.718216,41.150792 27.858988,40.93542 26.934306,40.76415 26,40.333336 Z"
     id="path1871"
     style="opacity:0.2;fill:#000000;stroke-width:2"
     sodipodi:nodetypes="ccscccccsccccccscccssccccccccccccsccccccc" />
  <path
     d="m 32.666664,39.333336 c 0.942652,-0.08612 1.453014,-0.46634 1.945194,-0.940212 0.500504,-0.4739 0.721474,-0.907926 0.721474,-1.726454 0,-0.740982 -0.216774,-1.582104 -0.70896,-2.099066 -0.49215,-0.51694 -1.006716,-0.96717 -1.957708,-1.234266 z M 31.333336,24.666668 c -0.859234,0.06034 -1.651616,0.423304 -2.127112,0.87993 -0.475496,0.44804 -0.539558,1.028528 -0.539558,1.786736 0,0.689284 0.04324,1.284884 0.47699,1.741532 0.44213,0.45666 1.255364,0.640808 2.189674,0.925136 z M 26,39.333336 v -3.33333 h 1.333334 c 0.03336,1.180396 0.413036,1.686602 1.04703,2.289726 0.633994,0.603122 1.701664,1.017758 2.952972,1.043604 V 33.333338 C 29.41467,32.78191 27.942408,31.78031 27.1666,31.065174 26.390792,30.341424 26,29.385018 26,28.196 c 0,-1.378564 0.461698,-2.485696 1.379322,-3.321454 0.917622,-0.835762 2.318976,-1.43782 3.954014,-1.541208 V 20 h 1.333328 v 3.333338 c 0.842544,0.06896 1.444672,0.343602 2.220478,0.558974 0.784152,0.20675 1.703754,0.487064 2.446192,0.84035 V 28 H 36 c -0.10012,-0.999464 -0.62485,-1.669352 -1.200446,-2.246622 -0.575628,-0.577274 -1.148524,-1.00917 -2.13289,-1.086716 v 6.000004 c 2.052142,0.577276 3.279912,1.186874 4.097432,1.93647 C 37.589956,33.344114 38,34.084002 38,35.333334 c 0,1.430266 -0.48093,2.83146 -1.448624,3.693062 -0.967676,0.86161 -2.124542,1.51103 -3.884712,1.64027 V 44 H 31.333336 V 40.666666 C 30.5325,40.649666 29.577444,40.374782 28.718216,40.150792 27.858988,39.93542 26.934306,39.76415 26,39.333336 Z"
     style="fill:#ffffff;stroke-width:2"
     id="path1899" />
  <path
     id="rect1260"
     style="opacity:0.2;fill:#ffffff;fill-opacity:1;stroke-width:4;stroke-linecap:square"
     d="m 32,12 c -0.399788,0 -0.799132,0.1546 -1.105468,0.460938 L 12.460938,30.894532 c -0.435019,0.435016 -0.55574,1.054848 -0.371094,1.597656 0.07509,-0.217968 0.196525,-0.423088 0.371094,-0.597656 L 30.894532,13.460938 c 0.612676,-0.612677 1.59826,-0.612677 2.210936,0 l 18.433594,18.433594 c 0.17551,0.175508 0.292232,0.382278 0.367188,0.601562 0.187012,-0.543948 0.06912,-1.165258 -0.367188,-1.601562 L 33.105468,12.460938 C 32.79913,12.1546 32.399788,12 32,12 Z" />
  <path
     id="path1040"
     style="opacity:0.2;fill:#ffffff;stroke-width:4;stroke-linecap:square"
     d="M 16,4 C 9.3520132,4 4,9.3520136 4,16 v 1 C 4,10.352014 9.3520132,5 16,5 h 32 c 6.647986,0 12,5.352014 12,12 V 16 C 60,9.3520136 54.647986,4 48,4 Z" />
</svg>
