<?xml version="1.0" encoding="UTF-8" standalone="no"?>
<!-- Created with Inkscape (http://www.inkscape.org/) -->

<svg
   width="64"
   height="64"
   viewBox="0 0 64 64"
   version="1.1"
   id="svg5"
   inkscape:version="1.3 (0e150ed6c4, 2023-07-21)"
   sodipodi:docname="org.gnome.Adwaita1.Demo.svg"
   xmlns:inkscape="http://www.inkscape.org/namespaces/inkscape"
   xmlns:sodipodi="http://sodipodi.sourceforge.net/DTD/sodipodi-0.dtd"
   xmlns="http://www.w3.org/2000/svg"
   xmlns:svg="http://www.w3.org/2000/svg">
  <sodipodi:namedview
     id="namedview7"
     pagecolor="#ffffff"
     bordercolor="#000000"
     borderopacity="0.25"
     inkscape:showpageshadow="2"
     inkscape:pageopacity="0.0"
     inkscape:pagecheckerboard="0"
     inkscape:deskcolor="#d1d1d1"
     inkscape:document-units="px"
     showgrid="false"
     inkscape:zoom="12.234375"
     inkscape:cx="31.959132"
     inkscape:cy="32"
     inkscape:window-width="1920"
     inkscape:window-height="984"
     inkscape:window-x="0"
     inkscape:window-y="29"
     inkscape:window-maximized="1"
     inkscape:current-layer="svg5" />
  <defs
     id="defs2" />
  <rect
     style="opacity:0.2;fill:#000000;stroke-width:4;stroke-linecap:square"
     id="rect234"
     width="56"
     height="56"
     x="4"
     y="5"
     ry="12" />
  <rect
     style="fill:#48de78;fill-opacity:1;stroke-width:4;stroke-linecap:square"
     id="rect396"
     width="56"
     height="52"
     x="4"
     y="8"
     ry="12" />
  <path
     id="path907"
     style="opacity:1;fill:#3686e3;fill-opacity:1;stroke-width:2"
     d="M 4,32 H 60 V 16 C 60,9.3520062 54.647994,4.0000002 48,4.0000002 H 16 C 9.352006,4.0000002 4,9.3520062 4,16 Z" />
  <path
     id="path5"
     style="opacity:0.2;stroke-width:2"
     d="m 32,17 v 15 h -1 l 1,1 10,10 2,2 V 33 H 43 V 32 H 33 L 48,17 Z m 0,16 H 12 l 20,20 z" />
  <path
     style="fill:#ffffff;stroke-width:2"
     d="m 12,32 h 20 v 20 z m 0,0"
     id="path6" />
  <path
     style="fill:#9ae5ff;stroke-width:2.28572"
     d="m 48.000002,16 h -16 v 16.000002 z m 0,0"
     id="path7" />
  <path
     style="fill:#97ffbe;stroke-width:2.4"
     d="m 32.000002,32 h 12 v 12 z m 0,0"
     id="path8" />
  <path
     id="path1040"
     style="opacity:0.2;fill:#ffffff;stroke-width:4;stroke-linecap:square"
     d="M 16,4 C 9.3520132,4 4,9.3520136 4,16 v 1 C 4,10.352014 9.3520132,5 16,5 h 32 c 6.647986,0 12,5.352014 12,12 V 16 C 60,9.3520136 54.647986,4 48,4 Z" />
</svg>
