<?xml version="1.0" encoding="UTF-8" standalone="no"?>
<!-- Created with Inkscape (http://www.inkscape.org/) -->

<svg
   width="64"
   height="64"
   viewBox="0 0 64 64"
   version="1.1"
   id="svg5"
   inkscape:version="1.3.2 (091e20ef0f, 2023-11-25, custom)"
   sodipodi:docname="org.xfce.volman.svg"
   xmlns:inkscape="http://www.inkscape.org/namespaces/inkscape"
   xmlns:sodipodi="http://sodipodi.sourceforge.net/DTD/sodipodi-0.dtd"
   xmlns="http://www.w3.org/2000/svg"
   xmlns:svg="http://www.w3.org/2000/svg">
  <sodipodi:namedview
     id="namedview7"
     pagecolor="#ffffff"
     bordercolor="#000000"
     borderopacity="0.25"
     inkscape:showpageshadow="2"
     inkscape:pageopacity="0.0"
     inkscape:pagecheckerboard="0"
     inkscape:deskcolor="#d1d1d1"
     inkscape:document-units="px"
     showgrid="false"
     inkscape:zoom="12.765625"
     inkscape:cx="31.960832"
     inkscape:cy="32"
     inkscape:window-width="1920"
     inkscape:window-height="1020"
     inkscape:window-x="0"
     inkscape:window-y="31"
     inkscape:window-maximized="1"
     inkscape:current-layer="svg5" />
  <defs
     id="defs2" />
  <rect
     style="opacity:0.2;fill:#000000;stroke-width:4;stroke-linecap:square"
     id="rect234"
     width="56"
     height="56"
     x="4"
     y="5"
     ry="12" />
  <rect
     style="fill:#9e9e9e;fill-opacity:1;stroke-width:4;stroke-linecap:square"
     id="rect396"
     width="56"
     height="56"
     x="4"
     y="4"
     ry="12" />
  <path
     d="m 32,13 -5,8 h 3 V 35 H 22 V 30.453124 C 23.23422,29.740558 23.99608,28.425138 24,27 c 0,-2.209138 -1.79086,-4 -4,-4 -2.20914,0 -4,1.790862 -4,4 0.004,1.425138 0.76578,2.740558 2,3.453124 V 35 c 0,2.215996 1.784,4 4,4 h 8 v 6.546876 C 28.76578,46.259442 28.00392,47.574862 28,49 c 0,2.209138 1.79086,4 4,4 2.20914,0 4,-1.790862 4,-4 -0.0011,-1.427932 -0.76338,-2.746972 -2,-3.460938 V 39 h 8 c 2.216,0 4,-1.784004 4,-4 v -4 c 1.108,0 2,-0.892002 2,-2 v -4 c 0,-1.107998 -0.892,-2 -2,-2 h -4 c -1.108,0 -2,0.892002 -2,2 v 4 c 0,1.107998 0.892,2 2,2 v 4 H 34 V 21 h 3 z"
     style="opacity:0.2;fill:#000000;stroke-width:10.328;stroke-linecap:square"
     id="path1449" />
  <path
     d="m 32,12 -5,8 h 3 V 34 H 22 V 29.453124 C 23.23422,28.740558 23.99608,27.425138 24,26 c 0,-2.209138 -1.79086,-4 -4,-4 -2.20914,0 -4,1.790862 -4,4 0.004,1.425138 0.76578,2.740558 2,3.453124 V 34 c 0,2.215996 1.784,4 4,4 h 8 v 6.546876 C 28.76578,45.259442 28.00392,46.574862 28,48 c 0,2.209138 1.79086,4 4,4 2.20914,0 4,-1.790862 4,-4 -0.0011,-1.427932 -0.76338,-2.746972 -2,-3.460938 V 38 h 8 c 2.216,0 4,-1.784004 4,-4 v -4 c 1.108,0 2,-0.892002 2,-2 v -4 c 0,-1.107998 -0.892,-2 -2,-2 h -4 c -1.108,0 -2,0.892002 -2,2 v 4 c 0,1.107998 0.892,2 2,2 v 4 H 34 V 20 h 3 z"
     style="fill:#ffffff;stroke-width:10.328;stroke-linecap:square"
     id="path1421" />
  <path
     id="path1040"
     style="opacity:0.2;fill:#ffffff;stroke-width:4;stroke-linecap:square"
     d="M 16,4 C 9.3520132,4 4,9.3520136 4,16 v 1 C 4,10.352014 9.3520132,5 16,5 h 32 c 6.647986,0 12,5.352014 12,12 V 16 C 60,9.3520136 54.647986,4 48,4 Z" />
</svg>
