<?xml version="1.0" encoding="UTF-8" standalone="no"?>
<!-- Created with Inkscape (http://www.inkscape.org/) -->

<svg
   width="64"
   height="64"
   viewBox="0 0 64 64"
   version="1.1"
   id="svg5"
   inkscape:version="1.3.2 (091e20ef0f, 2023-11-25, custom)"
   sodipodi:docname="org.gnome.Shell.Extensions.GSConnect.svg"
   xmlns:inkscape="http://www.inkscape.org/namespaces/inkscape"
   xmlns:sodipodi="http://sodipodi.sourceforge.net/DTD/sodipodi-0.dtd"
   xmlns="http://www.w3.org/2000/svg"
   xmlns:svg="http://www.w3.org/2000/svg">
  <sodipodi:namedview
     id="namedview7"
     pagecolor="#ffffff"
     bordercolor="#000000"
     borderopacity="0.25"
     inkscape:showpageshadow="2"
     inkscape:pageopacity="0.0"
     inkscape:pagecheckerboard="0"
     inkscape:deskcolor="#d1d1d1"
     inkscape:document-units="px"
     showgrid="false"
     inkscape:zoom="12.5"
     inkscape:cx="31.96"
     inkscape:cy="32"
     inkscape:window-width="1920"
     inkscape:window-height="966"
     inkscape:window-x="0"
     inkscape:window-y="0"
     inkscape:window-maximized="1"
     inkscape:current-layer="svg5"
     showguides="false" />
  <defs
     id="defs2" />
  <rect
     style="opacity:0.2;fill:#000000;stroke-width:4;stroke-linecap:square"
     id="rect234"
     width="56"
     height="56"
     x="4"
     y="5"
     ry="12" />
  <rect
     style="fill:#7d7d7d;fill-opacity:1;stroke-width:4;stroke-linecap:square"
     id="rect396"
     width="56"
     height="56"
     x="4"
     y="4"
     ry="12" />
  <rect
     style="opacity:0.2;fill:#000000;stroke-width:8"
     id="rect1"
     width="28"
     height="40"
     x="18"
     y="13"
     ry="3" />
  <rect
     style="fill:#e4e4e4;fill-opacity:1;stroke-width:8"
     id="rect2"
     width="28"
     height="40"
     x="18"
     y="12"
     ry="3" />
  <rect
     style="fill:#4d4d4d;fill-opacity:1;stroke-width:6.26096"
     id="rect3"
     width="28"
     height="28"
     x="18"
     y="18" />
  <rect
     style="opacity:0.1;fill:#000000;fill-opacity:1;stroke-width:7.48332"
     id="rect5"
     width="28"
     height="1"
     x="18"
     y="18" />
  <path
     id="rect4"
     style="opacity:0.2;fill:#ffffff;fill-opacity:1;stroke-width:6"
     d="m 21,12 c -1.661994,0 -3,1.338005 -3,3 v 1 c 0,-1.661995 1.338006,-3 3,-3 h 22 c 1.661992,0 3,1.338005 3,3 v -1 c 0,-1.661995 -1.338008,-3 -3,-3 z" />
  <rect
     style="opacity:0.1;fill:#ffffff;fill-opacity:1;stroke-width:7.48332"
     id="rect6"
     width="28"
     height="1"
     x="18"
     y="46" />
  <path
     id="path1040"
     style="opacity:0.1;fill:#ffffff;stroke-width:4;stroke-linecap:square"
     d="M 16,4 C 9.3520132,4 4,9.3520136 4,16 v 1 C 4,10.352014 9.3520132,5 16,5 h 32 c 6.647986,0 12,5.352014 12,12 V 16 C 60,9.3520136 54.647986,4 48,4 Z" />
</svg>
