<?xml version="1.0" encoding="UTF-8" standalone="no"?>
<!-- Created with Inkscape (http://www.inkscape.org/) -->

<svg
   width="64"
   height="64"
   viewBox="0 0 64 64"
   version="1.1"
   id="svg5"
   inkscape:version="1.3 (0e150ed6c4, 2023-07-21)"
   sodipodi:docname="org.gnome.Connections.svg"
   xmlns:inkscape="http://www.inkscape.org/namespaces/inkscape"
   xmlns:sodipodi="http://sodipodi.sourceforge.net/DTD/sodipodi-0.dtd"
   xmlns="http://www.w3.org/2000/svg"
   xmlns:svg="http://www.w3.org/2000/svg">
  <sodipodi:namedview
     id="namedview7"
     pagecolor="#ffffff"
     bordercolor="#000000"
     borderopacity="0.25"
     inkscape:showpageshadow="2"
     inkscape:pageopacity="0.0"
     inkscape:pagecheckerboard="0"
     inkscape:deskcolor="#d1d1d1"
     inkscape:document-units="px"
     showgrid="false"
     inkscape:zoom="12.5"
     inkscape:cx="31.96"
     inkscape:cy="32"
     inkscape:window-width="1920"
     inkscape:window-height="1004"
     inkscape:window-x="0"
     inkscape:window-y="0"
     inkscape:window-maximized="1"
     inkscape:current-layer="svg5" />
  <defs
     id="defs2" />
  <rect
     style="opacity:0.2;fill:#000000;stroke-width:4;stroke-linecap:square"
     id="rect234"
     width="56"
     height="56"
     x="4"
     y="5"
     ry="12" />
  <rect
     style="fill:#1c64d8;fill-opacity:1;stroke-width:4;stroke-linecap:square"
     id="rect396"
     width="56"
     height="56"
     x="4"
     y="4"
     ry="12" />
  <path
     id="path1"
     style="opacity:0.2;fill:#000000;fill-opacity:1;stroke-width:2"
     d="m 18,11 c -1.857114,0 -4.070313,2.101532 -4.070312,4 H 10.921875 10.589844 7.078125 C 6.4811298,15 6,15.446001 6,16 c 0,0.553998 0.4811298,1 1.078125,1 H 9.0898438 10 v 2 H 6 c -1.625823,0.004 -2,0.938406 -2,2 v 28 c 0,4.709414 2.6914318,8.755844 6.621094,10.722656 2.627225,-1.316354 3.298517,-3.649002 3.308594,-5.36328 v -11.63672 c 5.7e-5,-1.898468 -2.799138,-3.4375 -4.6562504,-3.4375 -1.857113,0 -3.3125002,-2.252198 -3.3125,-4.152344 0,-1.898466 1.455387,-3.874998 3.3125,-3.875 1.8571124,0 4.6562494,-1.099856 4.6562504,-3 0,-1.898466 0.07649,-3.355468 1.933593,-3.355468 1.857113,0 4.187501,-1.541258 4.187501,-3.441406 v -4.816406 c 0,-0.976931 0.548252,-1.769532 1.503906,-1.769532 0.95893,-0.05875 2.443594,0.12499 2.371094,-2.25 0.0725,-1.624992 -1.925344,-1.583691 -2.941406,-1.625 z m 25.648438,7.179688 c -1.794074,0 -3.25,1.490194 -3.25,3.324218 v 1.414062 c 0,1.834024 -0.854368,3.32422 -2.648438,3.32422 -2.157886,0.16408 -3.910504,2.08521 -3.75,4.292968 v 5.796876 c 0,1.883246 1.02887,4.46875 2.871094,4.46875 1.967422,0 3.128906,1.606838 3.128906,3.15625 v 3.26953 C 40,49.29212 40.877876,51 42.898438,51 44.917216,50.99818 46.001782,49.290296 46,47.226562 v -6.304686 c 0,-1.513166 0.5881,-3.763708 1.636718,-4.832032 1.046848,-1.068334 2.469012,-3.06823 3.94922,-3.066406 l 1.945312,0.0156 c 0.86137,0.0018 1.690864,-0.347074 2.300782,-0.96875 0.608124,-0.621656 0.949218,-1.4671 0.949218,-2.347656 v -8.21875 c 0,-1.834024 -1.454146,-3.324218 -3.25,-3.324218 z" />
  <path
     d="m 47.99972,34.4 v 14.160156 c 0,1.055254 -0.584908,2.192514 -1.519532,3.070312 -0.934622,0.8778 -2.184212,1.371094 -2.882812,1.371094 H 28.710658 c -1.039954,0 -2.408342,-0.227494 -3.35547,-0.621094 -0.947128,-0.3936 -1.225666,-0.7922 -1.253906,-0.96875 -0.28142,-1.759446 -0.338506,-3.139412 -0.421874,-4.359374 -0.08336,-1.219962 -0.12454,-2.38231 -0.867188,-3.570314 -0.74265,-1.188002 -2.12149,-1.860282 -3.613282,-2.140624 -1.491792,-0.280342 -3.33233,-0.339844 -5.960938,-0.339844 v 4 c 2.551388,0 4.2654,0.08964 5.222658,0.269532 0.957256,0.1799 0.927854,0.279108 0.960936,0.33203 0.03308,0.05292 0.19284,0.600534 0.269532,1.722656 0.07668,1.122124 0.13646,2.71449 0.457032,4.71875 0.339222,2.120824 2.06362,3.359 3.671874,4.027344 1.608254,0.668346 3.347326,0.929688 4.890626,0.929688 h 14.886718 c 2.104058,0 4.05472,-0.985892 5.621094,-2.457032 1.566374,-1.47114 2.78125,-3.55241 2.78125,-5.984374 V 34.4 Z"
     style="opacity:0.2;fill:#000000;stroke-width:2;-inkscape-stroke:none"
     id="path3" />
  <path
     id="path2"
     style="fill:#26a269;fill-opacity:1;stroke-width:2"
     d="m 18,10 c -1.857114,0 -4.070313,2.101532 -4.070312,4 H 10.921875 10.589844 7.078125 C 6.4811298,14 6,14.446001 6,15 c 0,0.553999 0.4811298,1 1.078125,1 H 9.0898438 10 v 2 H 6 c -1.625823,0.004 -2,0.938406 -2,2 v 28 c 0,4.709414 2.6914318,8.755844 6.621094,10.722656 2.627225,-1.316354 3.298517,-3.649002 3.308594,-5.36328 v -11.63672 c 5.7e-5,-1.898468 -2.799138,-3.4375 -4.6562504,-3.4375 -1.857113,0 -3.3125002,-2.252198 -3.3125,-4.152344 0,-1.898466 1.455387,-3.874998 3.3125,-3.875 1.8571124,0 4.6562494,-1.099856 4.6562504,-3 0,-1.898466 0.07649,-3.355468 1.933593,-3.355468 1.857113,0 4.187501,-1.541258 4.187501,-3.441406 v -4.816407 c 0,-0.97693 0.548252,-1.769531 1.503906,-1.769531 0.95893,-0.05875 2.443594,0.12499 2.371094,-2.25 0.0725,-1.624992 -1.925344,-1.583691 -2.941406,-1.625 z m 25.648438,7.179688 c -1.794074,0 -3.25,1.490194 -3.25,3.324218 v 1.414062 c 0,1.834024 -0.854368,3.32422 -2.648438,3.32422 -2.157886,0.16408 -3.910504,2.08521 -3.75,4.292968 v 5.796876 c 0,1.883246 1.02887,4.46875 2.871094,4.46875 1.967422,0 3.128906,1.606838 3.128906,3.15625 v 3.26953 C 40,48.29212 40.877876,50 42.898438,50 44.917216,49.99818 46.001782,48.290296 46,46.226562 v -6.304686 c 0,-1.513166 0.5881,-3.763708 1.636718,-4.832032 1.046848,-1.068334 2.469012,-3.06823 3.94922,-3.066406 l 1.945312,0.0156 c 0.86137,0.0018 1.690864,-0.347074 2.300782,-0.96875 0.608124,-0.621656 0.949218,-1.4671 0.949218,-2.347656 v -8.21875 c 0,-1.834024 -1.454146,-3.324218 -3.25,-3.324218 z" />
  <path
     d="m 47.99972,33.4 v 14.160156 c 0,1.055254 -0.584908,2.192514 -1.519532,3.070312 -0.934622,0.8778 -2.184212,1.371094 -2.882812,1.371094 H 28.710658 c -1.039954,0 -2.408342,-0.227494 -3.35547,-0.621094 -0.947128,-0.3936 -1.225666,-0.7922 -1.253906,-0.96875 -0.28142,-1.759446 -0.338506,-3.139412 -0.421874,-4.359374 -0.08336,-1.219962 -0.12454,-2.38231 -0.867188,-3.570314 -0.74265,-1.188002 -2.12149,-1.860282 -3.613282,-2.140624 -1.491792,-0.280342 -3.33233,-0.339844 -5.960938,-0.339844 v 4 c 2.551388,0 4.2654,0.08964 5.222658,0.269532 0.957256,0.1799 0.927854,0.279108 0.960936,0.33203 0.03308,0.05292 0.19284,0.600534 0.269532,1.722656 0.07668,1.122124 0.13646,2.71449 0.457032,4.71875 0.339222,2.120824 2.06362,3.359 3.671874,4.027344 1.608254,0.668346 3.347326,0.929688 4.890626,0.929688 h 14.886718 c 2.104058,0 4.05472,-0.985892 5.621094,-2.457032 1.566374,-1.47114 2.78125,-3.55241 2.78125,-5.984374 V 33.4 Z"
     style="opacity:1;fill:#ed9700;fill-opacity:1;stroke-width:2;-inkscape-stroke:none"
     id="path4" />
  <path
     d="m 10,39 c -2.2093908,0 -4,1.79115 -4,4 0,2.208854 1.7906092,4 4,4 2.209392,0 4.000001,-1.791146 4.000001,-4 0,-2.20885 -1.790609,-4 -4.000001,-4 z"
     style="opacity:0.2;fill:#000000;stroke-width:2"
     id="path5" />
  <path
     d="m 10,38 c -2.2093908,0 -4,1.79115 -4,4 0,2.208854 1.7906092,4 4,4 2.209392,0 4.000001,-1.791146 4.000001,-4 0,-2.20885 -1.790609,-4 -4.000001,-4 z m 40,0 c -1.10547,0 -2,0.894534 -2,2 0,1.105466 0.89453,2 2,2 1.105464,0 2,-0.894534 2,-2 0,-1.105466 -0.894536,-2 -2,-2 z m -31.999998,2 c -1.105472,0 -2,0.894534 -2,2 0,1.105466 0.894528,2 2,2 1.105466,0 2,-0.894534 2,-2 0,-1.105466 -0.894534,-2 -2,-2 z M 50,46 c -1.10547,0 -2,0.894534 -2,2 0,1.105466 0.89453,2 2,2 1.105464,0 2,-0.894534 2,-2 0,-1.105466 -0.894536,-2 -2,-2 z m -27.999998,2 c -1.105472,0 -2,0.894534 -2,2 0,1.105466 0.894528,2 2,2 1.105466,0 2,-0.894534 2,-2 0,-1.105466 -0.894534,-2 -2,-2 z M 28,52 c -1.10547,0 -2,0.894534 -2,2 0,1.105466 0.89453,2 2,2 1.105466,0 2,-0.894534 2,-2 0,-1.105466 -0.894534,-2 -2,-2 z m 8,0 c -1.10547,0 -2,0.894534 -2,2 0,1.105466 0.89453,2 2,2 1.105464,0 2,-0.894534 2,-2 0,-1.105466 -0.894536,-2 -2,-2 z m 8,0 c -1.10547,0 -2,0.894534 -2,2 0,1.105466 0.89453,2 2,2 1.105464,0 2,-0.894534 2,-2 0,-1.105466 -0.894536,-2 -2,-2 z"
     style="fill:#ffffff;stroke-width:2"
     id="path6" />
  <path
     id="path1040"
     style="opacity:0.2;fill:#ffffff;stroke-width:4;stroke-linecap:square"
     d="M 16,4 C 9.3520132,4 4,9.3520136 4,16 v 1 C 4,10.352014 9.3520132,5 16,5 h 32 c 6.647986,0 12,5.352014 12,12 V 16 C 60,9.3520136 54.647986,4 48,4 Z" />
  <rect
     style="opacity:0.2;fill:#000000;stroke-width:4"
     id="rect1"
     width="36"
     height="30"
     x="24"
     y="5"
     ry="4" />
  <rect
     style="opacity:1;fill:#463c5f;fill-opacity:1;stroke-width:4"
     id="rect2"
     width="36"
     height="30"
     x="24"
     y="4"
     ry="4" />
  <path
     d="m 34.6,11 5.089354,15.67305 3.32056,-2.918526 2.158448,2.657192 c 0.562256,0.692798 1.567138,0.78751 2.242188,0.21047 0.673338,-0.578792 0.765622,-1.606592 0.203364,-2.299392 L 45.426416,21.628768 48.6,18.836524 Z"
     style="opacity:0.2;fill:#000000;stroke-width:2"
     id="path7" />
  <path
     d="m 34.6,10 5.089354,15.67305 3.32056,-2.918526 2.158448,2.657192 c 0.562256,0.692798 1.567138,0.78751 2.242188,0.21047 0.673338,-0.578792 0.765622,-1.606592 0.203364,-2.299392 L 45.426416,20.628768 48.6,17.836524 Z"
     style="fill:#ffffff;stroke-width:2"
     id="path8" />
  <path
     id="path9"
     style="opacity:0.1;fill:#ffffff;stroke-width:4"
     d="m 28,4 c -2.215996,0 -4,1.7840042 -4,4 v 1 c 0,-2.2159958 1.784004,-4 4,-4 h 28 c 2.215996,0 4,1.7840042 4,4 V 8 C 60,5.7840042 58.215996,4 56,4 Z" />
</svg>
