<?xml version="1.0" encoding="UTF-8" standalone="no"?>
<!-- Created with Inkscape (http://www.inkscape.org/) -->

<svg
   width="64"
   height="64"
   viewBox="0 0 64 64"
   version="1.1"
   id="svg5"
   inkscape:version="1.3.2 (091e20ef0f, 2023-11-25, custom)"
   sodipodi:docname="partitionmanager.svg"
   xmlns:inkscape="http://www.inkscape.org/namespaces/inkscape"
   xmlns:sodipodi="http://sodipodi.sourceforge.net/DTD/sodipodi-0.dtd"
   xmlns="http://www.w3.org/2000/svg"
   xmlns:svg="http://www.w3.org/2000/svg">
  <sodipodi:namedview
     id="namedview7"
     pagecolor="#ffffff"
     bordercolor="#000000"
     borderopacity="0.25"
     inkscape:showpageshadow="2"
     inkscape:pageopacity="0.0"
     inkscape:pagecheckerboard="0"
     inkscape:deskcolor="#d1d1d1"
     inkscape:document-units="px"
     showgrid="false"
     inkscape:zoom="12.84375"
     inkscape:cx="32"
     inkscape:cy="32"
     inkscape:window-width="1920"
     inkscape:window-height="1008"
     inkscape:window-x="0"
     inkscape:window-y="0"
     inkscape:window-maximized="1"
     inkscape:current-layer="svg5"
     showguides="true" />
  <defs
     id="defs2" />
  <rect
     style="opacity:0.2;fill:#000000;stroke-width:4;stroke-linecap:square"
     id="rect234"
     width="56"
     height="56"
     x="4"
     y="5"
     ry="12" />
  <rect
     style="fill:#b7b7b7;fill-opacity:1;stroke-width:4;stroke-linecap:square"
     id="rect396"
     width="56"
     height="56"
     x="4"
     y="4"
     ry="12" />
  <path
     id="path3"
     style="opacity:0.2;fill:#000000;fill-opacity:1;stroke-width:2"
     d="M 32,13 C 20.954318,13 12,21.954318 12,33 12,44.045682 20.954318,53 32,53 43.045682,53 52,44.045682 52,33 52,21.954318 43.045682,13 32,13 Z" />
  <path
     id="path4"
     style="opacity:1;fill:#248afd;fill-opacity:1;stroke-width:2"
     d="M 32,12 V 32 H 52 C 52,20.95433 43.04567,12 32,12 Z" />
  <path
     id="path6"
     style="opacity:1;fill:#514694;fill-opacity:1;stroke-width:2"
     d="M 32,32 V 52 A 20,20 0 0 0 52,32 Z" />
  <path
     id="path7"
     style="fill:#fecd38;fill-opacity:1;stroke-width:2"
     d="M 12,32 A 20,20 0 0 0 32,52 V 32 Z" />
  <path
     id="path8"
     style="fill:#4bae4f;fill-opacity:1;stroke-width:2"
     d="M 32,12 A 20,20 0 0 0 12,32 h 20 z" />
  <circle
     style="opacity:1;fill:#ababab;fill-opacity:1;stroke-width:2"
     id="path5"
     cx="32"
     cy="32"
     r="8" />
  <circle
     style="opacity:0.2;fill:#000000;stroke-width:2"
     id="path1"
     cx="32"
     cy="33"
     r="4" />
  <circle
     style="fill:#e4e4e4;fill-opacity:1;stroke-width:2"
     id="path2"
     cx="32"
     cy="32"
     r="4" />
  <path
     id="path9"
     style="opacity:0.2;fill:#000000;fill-opacity:1;stroke-width:2"
     d="m 32,24 a 8,8 0 0 0 -8,8 8,8 0 0 0 0.03516,0.488282 A 8,8 0 0 1 32,25 8,8 0 0 1 39.972656,32.359376 8,8 0 0 0 40,32 8,8 0 0 0 32,24 Z" />
  <path
     id="path10"
     style="opacity:0.2;fill:#ffffff;fill-opacity:1;stroke-width:2"
     d="M 32,12 A 20,20 0 0 0 12,32 20,20 0 0 0 12.035156,32.484376 20,20 0 0 1 32,13 20,20 0 0 1 51.984376,32.246094 20,20 0 0 0 52,32 20,20 0 0 0 32,12 Z" />
  <path
     id="path1040"
     style="opacity:0.2;fill:#ffffff;stroke-width:4;stroke-linecap:square"
     d="M 16,4 C 9.3520132,4 4,9.3520136 4,16 v 1 C 4,10.352014 9.3520132,5 16,5 h 32 c 6.647986,0 12,5.352014 12,12 V 16 C 60,9.3520136 54.647986,4 48,4 Z" />
</svg>
