<?xml version="1.0" encoding="UTF-8" standalone="no"?>
<!-- Created with Inkscape (http://www.inkscape.org/) -->

<svg
   width="64"
   height="64"
   viewBox="0 0 64 64"
   version="1.1"
   id="svg5"
   inkscape:version="1.3.2 (091e20ef0f, 2023-11-25, custom)"
   sodipodi:docname="poedit.svg"
   xmlns:inkscape="http://www.inkscape.org/namespaces/inkscape"
   xmlns:sodipodi="http://sodipodi.sourceforge.net/DTD/sodipodi-0.dtd"
   xmlns="http://www.w3.org/2000/svg"
   xmlns:svg="http://www.w3.org/2000/svg">
  <sodipodi:namedview
     id="namedview7"
     pagecolor="#ffffff"
     bordercolor="#000000"
     borderopacity="0.25"
     inkscape:showpageshadow="2"
     inkscape:pageopacity="0.0"
     inkscape:pagecheckerboard="0"
     inkscape:deskcolor="#d1d1d1"
     inkscape:document-units="px"
     showgrid="false"
     inkscape:zoom="12.328125"
     inkscape:cx="32"
     inkscape:cy="32"
     inkscape:window-width="1920"
     inkscape:window-height="984"
     inkscape:window-x="0"
     inkscape:window-y="31"
     inkscape:window-maximized="1"
     inkscape:current-layer="svg5"
     showguides="false" />
  <defs
     id="defs2" />
  <rect
     style="opacity:0.2;fill:#000000;stroke-width:4;stroke-linecap:square"
     id="rect234"
     width="56"
     height="56"
     x="4"
     y="5"
     ry="12" />
  <rect
     style="fill:#dd9f59;fill-opacity:1;stroke-width:4;stroke-linecap:square"
     id="rect396"
     width="56"
     height="56"
     x="4"
     y="4"
     ry="12" />
  <rect
     style="opacity:0.2;fill:#000000;fill-opacity:1;stroke-width:4;stroke-linecap:square"
     id="rect2332"
     width="44"
     height="44"
     x="10"
     y="11"
     ry="6" />
  <rect
     style="fill:#ffffff;fill-opacity:1;stroke-width:4;stroke-linecap:square"
     id="rect2278"
     width="44"
     height="44"
     x="10"
     y="10"
     ry="6" />
  <path
     style="fill:#6b6b6b"
     d="M 24.058282,12 C 21.946896,13.296864 16.496982,14.957916 13,15.972656 l 0.10938,0.308594 c 1.663168,-0.1661 4.039308,-0.40147 5.70703,-0.683594 v 2.453127 h -5.792968 l 0.14062,2.07031 h 4.847656 c -0.832724,3.424176 -2.759832,4.864578 -4.953124,7.50836 l 0.33203,0.308594 c 2.05678,-1.490256 4.118188,-2.813846 5.421876,-4.777344 v 6.840782 h 0.53125 c 1.415174,0 2.73248,-0.546484 2.7575,-0.714844 v -6.969688 c 1.055692,0.951034 1.257466,2.06299 1.453126,3.246094 0.359482,0.302594 0.749892,0.445312 1.109374,0.445312 0.74854,0 1.38672,-0.541508 1.38672,-1.296874 0,-1.021566 -0.368056,-1.966386 -3.94922,-2.769532 v -1.82086 h 4.6875 c 0.750816,0 2.1116,-1.718562 2.305,-2.023436 L 24.058282,16 23.159844,18.046877 H 22.10125 V 15.03125 c 1.25136,-0.2844 2.419072,-0.567162 3.363282,-0.851562 C 26.013026,14.193648 29.058594,14 29.058594,14 Z"
     id="path4" />
  <path
     style="fill:#6b6b6b"
     d="m 30,14.062579 v 15.938906 c 2.609654,-2e-6 2.90906,-0.958106 2.945719,-0.992188 v -0.929688 h 5.042563 v 1.472658 c 2.197844,0 2.972688,-0.63809 2.972688,-0.683594 V 16.328205 c 0.582452,-0.116041 1.029222,-0.303388 1.195312,-0.519531 l -2.21097,-1.730469 -2.230468,1.921875 h -4.628499 z m 2.945719,4.007811 h 5.042563 v 8.009219 h -5.042563 z"
     id="path5" />
  <path
     style="fill:#6b6b6b"
     d="m 30,36 v 6 3 6 h 3 v -6 h 3.152344 A 7.5,7.5 0 0 0 43.5,51 7.5,7.5 0 0 0 51,43.5 7.5,7.5 0 0 0 43.5,36 7.5,7.5 0 0 0 36.160156,42 H 33 v -6 z m 13.5,3 A 4.5,4.5 0 0 1 48,43.5 4.5,4.5 0 0 1 43.5,48 4.5,4.5 0 0 1 39,43.5 4.5,4.5 0 0 1 43.5,39 Z"
     id="path7" />
  <path
     id="path1040"
     style="opacity:0.2;fill:#ffffff;stroke-width:4;stroke-linecap:square"
     d="M 16,4 C 9.3520132,4 4,9.3520136 4,16 v 1 C 4,10.352014 9.3520132,5 16,5 h 32 c 6.647986,0 12,5.352014 12,12 V 16 C 60,9.3520136 54.647986,4 48,4 Z" />
</svg>
