<?xml version="1.0" encoding="UTF-8" standalone="no"?>
<!-- Created with Inkscape (http://www.inkscape.org/) -->

<svg
   width="64"
   height="64"
   viewBox="0 0 64 64"
   version="1.1"
   id="svg5"
   inkscape:version="1.2.2 (1:1.2.2+202305151914+b0a8486541)"
   sodipodi:docname="preferences-desktop-keyboard.svg"
   xmlns:inkscape="http://www.inkscape.org/namespaces/inkscape"
   xmlns:sodipodi="http://sodipodi.sourceforge.net/DTD/sodipodi-0.dtd"
   xmlns="http://www.w3.org/2000/svg"
   xmlns:svg="http://www.w3.org/2000/svg">
  <sodipodi:namedview
     id="namedview7"
     pagecolor="#ffffff"
     bordercolor="#000000"
     borderopacity="0.25"
     inkscape:showpageshadow="2"
     inkscape:pageopacity="0.0"
     inkscape:pagecheckerboard="0"
     inkscape:deskcolor="#d1d1d1"
     inkscape:document-units="px"
     showgrid="false"
     inkscape:zoom="12.59375"
     inkscape:cx="31.960298"
     inkscape:cy="32"
     inkscape:window-width="1920"
     inkscape:window-height="1008"
     inkscape:window-x="0"
     inkscape:window-y="0"
     inkscape:window-maximized="1"
     inkscape:current-layer="svg5" />
  <defs
     id="defs2" />
  <rect
     style="opacity:0.2;fill:#000000;stroke-width:4;stroke-linecap:square"
     id="rect234"
     width="56"
     height="56"
     x="4"
     y="5"
     ry="12" />
  <rect
     style="fill:#adadad;stroke-width:4;stroke-linecap:square;fill-opacity:1"
     id="rect396"
     width="56"
     height="56"
     x="4"
     y="4"
     ry="12" />
  <path
     d="M 12.000001,18 C 10.343146,18 9,19.343146 9,21 c 0,1.656854 1.343146,3 3.000001,3 1.656854,0 3,-1.343146 3,-3 0,-1.656854 -1.343146,-3 -3,-3 z M 22,18 c -1.656853,0 -3,1.343146 -3,3 0,1.656854 1.343147,3 3,3 1.656855,0 3,-1.343146 3,-3 0,-1.656854 -1.343145,-3 -3,-3 z m 10,0 c -1.656853,0 -3,1.343146 -3,3 0,1.656854 1.343147,3 3,3 1.656855,0 3,-1.343146 3,-3 0,-1.656854 -1.343145,-3 -3,-3 z m 10,0 c -1.656854,0 -3,1.343146 -3,3 0,1.656854 1.343146,3 3,3 1.656855,0 3,-1.343146 3,-3 0,-1.656854 -1.343145,-3 -3,-3 z m 10,0 c -1.656854,0 -3,1.343146 -3,3 0,1.656854 1.343146,3 3,3 1.656855,0 3,-1.343146 3,-3 0,-1.656854 -1.343145,-3 -3,-3 z M 17,30 c -1.656853,0 -2.999999,1.343146 -2.999999,3 0,1.656854 1.343146,3 2.999999,3 1.656855,0 3,-1.343146 3,-3 0,-1.656854 -1.343145,-3 -3,-3 z m 10,0 c -1.656853,0 -3,1.343146 -3,3 0,1.656854 1.343147,3 3,3 1.656855,0 3,-1.343146 3,-3 0,-1.656854 -1.343145,-3 -3,-3 z m 10,0 c -1.656854,0 -3,1.343146 -3,3 0,1.656854 1.343146,3 3,3 1.656855,0 3,-1.343146 3,-3 0,-1.656854 -1.343145,-3 -3,-3 z m 10,0 c -1.656854,0 -3,1.343146 -3,3 0,1.656854 1.343146,3 3,3 1.656855,0 3,-1.343146 3,-3 0,-1.656854 -1.343145,-3 -3,-3 z M 13.500001,42 c -0.830999,0 -1.5,0.669001 -1.5,1.5 v 3 c 0,0.830999 0.669001,1.5 1.5,1.5 H 50.5 c 0.830999,0 1.5,-0.669001 1.5,-1.5 v -3 C 52,42.669001 51.330999,42 50.5,42 Z"
     style="opacity:0.2;fill:#000000;fill-opacity:1;stroke-width:2;stroke-linecap:square"
     id="path2953" />
  <path
     id="path1184"
     style="fill:#e8e8e8;fill-opacity:1;stroke-width:2;stroke-linecap:square"
     d="M 12.000001,17 C 10.343146,17 9,18.343146 9,20 c 0,1.656854 1.343146,3 3.000001,3 1.656854,0 3,-1.343146 3,-3 0,-1.656854 -1.343146,-3 -3,-3 z M 22,17 c -1.656853,0 -3,1.343146 -3,3 0,1.656854 1.343147,3 3,3 1.656855,0 3,-1.343146 3,-3 0,-1.656854 -1.343145,-3 -3,-3 z m 10,0 c -1.656853,0 -3,1.343146 -3,3 0,1.656854 1.343147,3 3,3 1.656855,0 3,-1.343146 3,-3 0,-1.656854 -1.343145,-3 -3,-3 z m 10,0 c -1.656854,0 -3,1.343146 -3,3 0,1.656854 1.343146,3 3,3 1.656855,0 3,-1.343146 3,-3 0,-1.656854 -1.343145,-3 -3,-3 z m 10,0 c -1.656854,0 -3,1.343146 -3,3 0,1.656854 1.343146,3 3,3 1.656855,0 3,-1.343146 3,-3 0,-1.656854 -1.343145,-3 -3,-3 z M 17,29 c -1.656853,0 -2.999999,1.343146 -2.999999,3 0,1.656854 1.343146,3 2.999999,3 1.656855,0 3,-1.343146 3,-3 0,-1.656854 -1.343145,-3 -3,-3 z m 10,0 c -1.656853,0 -3,1.343146 -3,3 0,1.656854 1.343147,3 3,3 1.656855,0 3,-1.343146 3,-3 0,-1.656854 -1.343145,-3 -3,-3 z m 10,0 c -1.656854,0 -3,1.343146 -3,3 0,1.656854 1.343146,3 3,3 1.656855,0 3,-1.343146 3,-3 0,-1.656854 -1.343145,-3 -3,-3 z m 10,0 c -1.656854,0 -3,1.343146 -3,3 0,1.656854 1.343146,3 3,3 1.656855,0 3,-1.343146 3,-3 0,-1.656854 -1.343145,-3 -3,-3 z M 13.500001,41 c -0.830999,0 -1.5,0.669001 -1.5,1.5 v 3 c 0,0.830999 0.669001,1.5 1.5,1.5 H 50.5 c 0.830999,0 1.5,-0.669001 1.5,-1.5 v -3 C 52,41.669001 51.330999,41 50.5,41 Z" />
  <path
     d="M 16,4.0000002 C 9.3520066,4.0000002 4,9.352007 4,16 v 1 C 4,10.352007 9.3520066,5 16,5 h 32 c 6.647993,0 12,5.352007 12,12 V 16 C 60,9.352007 54.647993,4.0000002 48,4.0000002 Z"
     style="opacity:0.2;fill:#ffffff;stroke-width:4;stroke-linecap:square"
     id="path1040" />
</svg>
