<?xml version="1.0" encoding="UTF-8" standalone="no"?>
<!-- Created with Inkscape (http://www.inkscape.org/) -->

<svg
   width="64"
   height="64"
   viewBox="0 0 64 64"
   version="1.1"
   id="svg5"
   inkscape:version="1.2.2 (1:1.2.2+202305151914+b0a8486541)"
   sodipodi:docname="preferences-desktop-color.svg"
   xmlns:inkscape="http://www.inkscape.org/namespaces/inkscape"
   xmlns:sodipodi="http://sodipodi.sourceforge.net/DTD/sodipodi-0.dtd"
   xmlns="http://www.w3.org/2000/svg"
   xmlns:svg="http://www.w3.org/2000/svg">
  <sodipodi:namedview
     id="namedview7"
     pagecolor="#ffffff"
     bordercolor="#000000"
     borderopacity="0.25"
     inkscape:showpageshadow="2"
     inkscape:pageopacity="0.0"
     inkscape:pagecheckerboard="0"
     inkscape:deskcolor="#d1d1d1"
     inkscape:document-units="px"
     showgrid="false"
     inkscape:zoom="12.59375"
     inkscape:cx="31.960298"
     inkscape:cy="32"
     inkscape:window-width="1920"
     inkscape:window-height="1008"
     inkscape:window-x="0"
     inkscape:window-y="0"
     inkscape:window-maximized="1"
     inkscape:current-layer="svg5" />
  <defs
     id="defs2" />
  <rect
     style="opacity:0.2;fill:#000000;stroke-width:4;stroke-linecap:square"
     id="rect234"
     width="56"
     height="56"
     x="4"
     y="5"
     ry="12" />
  <rect
     style="fill:#4d4d4d;stroke-width:4;stroke-linecap:square;fill-opacity:1"
     id="rect396"
     width="56"
     height="56"
     x="4"
     y="4"
     ry="12" />
  <path
     d="m 31.996218,13 c -3.628404,0.0062 -6.921066,2.28794 -8.429828,5.841796 -3.931678,-0.51128 -7.618648,1.11315 -9.43789,4.158204 -1.810224,3.0494 -1.417964,6.955764 1.004156,10 -2.42212,3.044236 -2.81438,6.950602 -1.004156,10 1.81864,3.045864 5.505736,4.67111 9.43789,4.160156 1.509296,3.553094 4.801846,5.834038 8.429828,5.839844 3.62982,-0.0046 6.924384,-2.286558 8.433736,-5.841798 3.931114,0.510708 7.616888,-1.11365 9.435936,-4.158202 1.88824,-3.169464 1.338746,-7.107698 -1.049088,-10.068358 0.0166,0.02068 0.03626,0.03978 0.05276,0.06054 C 51.285858,29.948522 51.674954,26.046274 49.86589,23 48.333424,20.427396 45.44444,18.8349 42.145222,18.74414 41.575936,18.73174 41.002096,18.76448 40.429954,18.8418 38.920602,15.286556 35.626038,13.00451 31.996218,13 Z m 14.51337,17.791016 c 0.0565,0.03914 0.10858,0.08114 0.1641,0.1211 -0.0555,-0.03988 -0.10762,-0.08202 -0.1641,-0.1211 z m 0.836146,0.638672 c 0.09216,0.0775 0.17674,0.1604 0.26569,0.240234 -0.0891,-0.07986 -0.17336,-0.16274 -0.26569,-0.240234 z m 0.769722,0.714842 c 0.07384,0.07516 0.14174,0.15366 0.212944,0.23047 -0.07118,-0.07672 -0.1391,-0.1554 -0.212944,-0.23047 z"
     style="opacity:0.2;fill:#000000;stroke-width:2"
     id="path1897" />
  <g
     id="g1912"
     transform="matrix(2,0,0,2,3.5179572e-4,0)">
    <path
       d="m 24.251822,16 c 0,4.418278 -3.694546,8 -8.251999,8 -4.557454,0 -8.2520002,-3.581722 -8.2520002,-8 0,-4.418278 3.6945462,-8.0000002 8.2520002,-8 4.557453,5e-7 8.251999,3.581723 8.251999,8 z"
       style="fill:#278df2"
       id="path1614" />
    <path
       d="m 20.640822,21 c 0,2.761423 -2.077846,5 -4.640999,5 -2.563154,0 -4.641001,-2.238576 -4.641001,-5 0,-2.761424 2.077847,-5 4.641001,-5 2.563153,0 4.640999,2.238577 4.640999,5 z"
       style="fill:#ffc107"
       id="path1643" />
    <path
       d="m 13.854715,22.397582 c -2.46648,1.380617 -5.5050368,0.754948 -6.7868062,-1.397471 -1.28177,-2.15242 -0.321372,-5.016513 2.1451082,-6.397131 2.46648,-1.380618 5.505037,-0.754949 6.786807,1.397472 1.281768,2.15242 0.321371,5.016512 -2.145109,6.39713 z"
       style="fill:#fb8300"
       id="path1473" />
    <path
       d="m 9.213598,17.397277 c 2.466481,1.380617 5.505038,0.754949 6.786807,-1.397471 1.28177,-2.15242 0.321372,-5.016512 -2.145109,-6.3971303 C 11.388816,8.2220579 8.3502594,8.847727 7.0684898,11.000147 5.7867203,13.152567 6.7471181,16.01666 9.213598,17.397277 Z"
       style="fill:#fa3e30"
       id="path1501" />
    <path
       d="m 15.999847,6 c -2.563417,-2e-7 -4.641476,2.2385761 -4.641476,5 0,2.761424 2.078059,5 4.641476,5 C 14.717872,13.847634 15.678467,10.983291 18.14532,9.602539 18.787466,9.2451754 19.493442,9.0126931 20.215249,8.9208985 19.460824,7.143427 17.814155,6.0024317 15.999847,6 Z m 0,10 c 2.010662,-0.0016 3.791735,-1.39761 4.411819,-3.458008 -0.14458,0.476121 -0.354759,0.926133 -0.623497,1.334961 C 18.16762,13.942573 16.754868,14.734303 15.999847,16 Z m 4.411819,-3.458008 c 0.0435,-0.14522 0.08081,-0.29251 0.111807,-0.441406 -0.031,0.148896 -0.0683,0.296186 -0.111807,0.441406 z M 20.269642,9.053711 c 0.05853,0.1492214 0.110301,0.3014191 0.155118,0.4560545 C 20.37994,9.3551301 20.32818,9.2029324 20.269642,9.053711 Z m 0.162169,0.4765625 c 0.03655,0.1303916 0.06813,0.2623371 0.09468,0.3955071 -0.02655,-0.13317 -0.05813,-0.2651155 -0.09468,-0.3955071 z m 0.120872,0.5175785 c 0.0183,0.105892 0.03341,0.212393 0.04532,0.319336 -0.01191,-0.106943 -0.02702,-0.213444 -0.04532,-0.319336 z m 0.06749,0.518554 c 0.01288,0.144134 0.01993,0.288801 0.02115,0.433594 -0.0012,-0.144793 -0.0083,-0.28946 -0.02115,-0.433594 z m 0.01107,0.654297 c -0.0034,0.109583 -0.01009,0.219018 -0.02014,0.328125 0.01005,-0.109107 0.01677,-0.218542 0.02014,-0.328125 z m -0.03626,0.44336 c -0.01542,0.130035 -0.03558,0.259367 -0.06044,0.387695 0.02486,-0.128328 0.04502,-0.25766 0.06044,-0.387695 z"
       style="fill:#a544c9"
       id="path1529" />
    <path
       d="M 19.859838,13.87207 C 18.210459,13.91731 16.766122,14.713575 16,16 c 2.563416,0 4.641475,2.238576 4.641475,5 -0.0018,0.717949 -0.147129,1.427057 -0.426073,2.079101 1.965069,0.255354 3.807722,-0.556825 4.717021,-2.079101 1.281974,-2.152367 0.321379,-5.016709 -2.145475,-6.397461 -0.90004,-0.503619 -1.920312,-0.758231 -2.92711,-0.730469 z"
       style="fill:#009688"
       id="path1585" />
    <path
       d="m 21.073089,8.8720703 c -1.006933,-0.027655 -2.027304,0.2271295 -2.927364,0.7309573 -2.466386,1.3807004 -3.426907,4.2444934 -2.145474,6.3967294 0.766167,-1.286255 2.210333,-2.082449 3.859587,-2.127687 1.006798,-0.02776 2.02707,0.22685 2.92711,0.730469 0.66311,0.371158 1.216253,0.850154 1.647383,1.393067 C 25.642044,14.473954 25.836655,12.523086 24.932674,11 24.166595,9.7136416 22.72237,8.9173875 21.073089,8.8720703 Z M 16.000251,16 c 0.756147,1.267563 2.171879,2.059635 3.795122,2.123292 C 18.955299,16.839436 17.569186,16.00009 16.000251,16 Z"
       style="fill:#03a9f4"
       id="path1557" />
    <path
       d="m 16.000485,15.999756 c -7.9997742,8.000162 -3.999887,4.000082 0,0 z m 0,2.44e-4 c 0.814377,1.61694 2.214779,2.317036 3.795122,2.123291 C 18.955533,16.839435 17.56942,16.00009 16.000485,16 Z"
       style="fill:#ffc107"
       id="path1671" />
  </g>
  <path
     id="path2076"
     style="opacity:0.2;fill:#ffffff;stroke-width:2"
     d="m 31.996446,12 c -3.6284,0.0062 -6.920928,2.285992 -8.429688,5.839844 -3.931672,-0.51128 -7.61826,1.115106 -9.4375,4.160156 -0.837634,1.411032 -1.197802,3.005594 -1.109374,4.613282 0.08054,-1.262438 0.446306,-2.496316 1.109374,-3.613282 1.81924,-3.045052 5.505828,-4.671436 9.4375,-4.160156 C 25.075518,15.28599 28.368046,13.0062 31.996446,13 c 3.629816,0.0046 6.924244,2.288508 8.433594,5.84375 0.57214,-0.07732 1.145558,-0.11396 1.714844,-0.10156 3.299214,0.09076 6.190192,1.68521 7.722656,4.257812 0.667462,1.123936 1.031786,2.365852 1.109374,3.636718 0.09296,-1.615528 -0.267526,-3.219132 -1.109374,-4.636718 C 48.335076,19.4274 45.444098,17.832948 42.144884,17.74219 41.575598,17.72979 41.00218,17.76643 40.43004,17.84375 38.92069,14.28851 35.626262,12.00451 31.996446,12 Z m 17.242188,20.492188 c -0.11816,0.16834 -0.23728,0.336362 -0.367188,0.5 -0.0166,-0.02076 -0.03808,-0.03792 -0.05468,-0.0586 1.29873,1.610286 2.049414,3.50638 2.164062,5.414062 0.11862,-2.017176 -0.497654,-4.08159 -1.742186,-5.855468 z m -34.472656,0.0078 c -1.27861,1.816754 -1.873654,3.887318 -1.746094,5.886718 0.10268,-1.866702 0.811938,-3.751128 2.11328,-5.386718 -0.1298,-0.16314 -0.249068,-0.332166 -0.367186,-0.5 z" />
  <path
     d="M 16,4.0000002 C 9.3520066,4.0000002 4,9.352007 4,16 v 1 C 4,10.352007 9.3520066,5 16,5 h 32 c 6.647993,0 12,5.352007 12,12 V 16 C 60,9.352007 54.647993,4.0000002 48,4.0000002 Z"
     style="opacity:0.1;fill:#ffffff;stroke-width:4;stroke-linecap:square"
     id="path1040" />
</svg>
