<?xml version="1.0" encoding="UTF-8" standalone="no"?>
<!-- Created with Inkscape (http://www.inkscape.org/) -->

<svg
   width="64"
   height="64"
   viewBox="0 0 64 64"
   version="1.1"
   id="svg5"
   inkscape:version="1.2.2 (1:1.2.2+202305151914+b0a8486541)"
   sodipodi:docname="preferences-system-network-share-windows.svg"
   xmlns:inkscape="http://www.inkscape.org/namespaces/inkscape"
   xmlns:sodipodi="http://sodipodi.sourceforge.net/DTD/sodipodi-0.dtd"
   xmlns="http://www.w3.org/2000/svg"
   xmlns:svg="http://www.w3.org/2000/svg">
  <sodipodi:namedview
     id="namedview7"
     pagecolor="#ffffff"
     bordercolor="#000000"
     borderopacity="0.25"
     inkscape:showpageshadow="2"
     inkscape:pageopacity="0.0"
     inkscape:pagecheckerboard="0"
     inkscape:deskcolor="#d1d1d1"
     inkscape:document-units="px"
     showgrid="false"
     inkscape:zoom="12.59375"
     inkscape:cx="31.960298"
     inkscape:cy="32"
     inkscape:window-width="1920"
     inkscape:window-height="1008"
     inkscape:window-x="0"
     inkscape:window-y="0"
     inkscape:window-maximized="1"
     inkscape:current-layer="svg5" />
  <defs
     id="defs2" />
  <rect
     style="opacity:0.2;fill:#000000;stroke-width:4;stroke-linecap:square"
     id="rect234"
     width="56"
     height="56"
     x="4"
     y="5"
     ry="12" />
  <rect
     style="fill:#36a9e9;stroke-width:4;stroke-linecap:square;fill-opacity:1"
     id="rect396"
     width="56"
     height="56"
     x="4"
     y="4"
     ry="12" />
  <path
     d="M 44.878906,9.999535 C 43.849301,9.974285 43.001342,10.846046 43,11.931176 v 2.068359 H 16 c -1.656786,1.66e-4 -2.999834,1.343214 -3,3 v 16 c 1.66e-4,1.656786 1.343214,2.999834 3,3 h 29 v 10 H 21 v -2.068359 c -0.0013,-1.085131 -0.849301,-1.956889 -1.878906,-1.931641 -0.307559,0.0073 -0.608436,0.096 -0.875,0.257812 l -4.164063,2.533204 -4.162109,2.53125 c -1.226911,0.744094 -1.226911,2.609421 0,3.353515 l 4.162109,2.53125 4.164063,2.533203 C 19.469529,56.483611 20.998624,55.554225 21,54.065941 v -2.066406 h 27 c 1.656786,-1.66e-4 2.999834,-1.343214 3,-3 v -16 c -1.66e-4,-1.656786 -1.343214,-2.999834 -3,-3 H 19 v -10 h 24 v 2.066406 c 0.0014,1.488283 1.530471,2.417669 2.753906,1.673828 l 4.164063,-2.533203 4.162109,-2.53125 c 1.226911,-0.744093 1.226911,-2.609422 0,-3.353515 l -4.162109,-2.53125 -4.164063,-2.533203 c -0.266564,-0.161812 -0.567441,-0.250464 -0.875,-0.257813 z"
     style="color:#000000;fill:#000000;stroke-linecap:round;stroke-linejoin:round;-inkscape-stroke:none;opacity:0.2"
     id="path1495" />
  <path
     d="M 44.878906,8.9992258 C 43.849301,8.9739778 43.001342,9.845736 43,10.930866 v 2.068359 H 16 c -1.656786,1.66e-4 -2.999834,1.343214 -3,3 v 16 c 1.66e-4,1.656786 1.343214,2.999834 3,3 h 29 v 10 H 21 v -2.068359 c -0.0013,-1.085131 -0.849301,-1.956889 -1.878906,-1.931641 -0.307559,0.0073 -0.608436,0.096 -0.875,0.257812 l -4.164063,2.533204 -4.1621093,2.53125 c -1.2269105,0.744094 -1.2269105,2.609421 0,3.353515 l 4.1621093,2.53125 4.164063,2.533203 C 19.469529,55.483301 20.998624,54.553915 21,53.065631 v -2.066406 h 27 c 1.656786,-1.66e-4 2.999834,-1.343214 3,-3 v -16 c -1.66e-4,-1.656786 -1.343214,-2.999834 -3,-3 H 19 v -10 h 24 v 2.066406 c 0.0014,1.488283 1.530471,2.417669 2.753906,1.673828 l 4.164063,-2.533203 4.162109,-2.53125 c 1.226911,-0.744093 1.226911,-2.609422 0,-3.353515 L 49.917969,11.790241 45.753906,9.2570383 C 45.487342,9.095226 45.186465,9.0065747 44.878906,8.9992258 Z"
     style="color:#000000;fill:#ffffff;stroke-linecap:round;stroke-linejoin:round;-inkscape-stroke:none"
     id="path425" />
  <path
     d="M 16,4.0000002 C 9.3520066,4.0000002 4,9.352007 4,16 v 1 C 4,10.352007 9.3520066,5 16,5 h 32 c 6.647993,0 12,5.352007 12,12 V 16 C 60,9.352007 54.647993,4.0000002 48,4.0000002 Z"
     style="opacity:0.2;fill:#ffffff;stroke-width:4;stroke-linecap:square"
     id="path1040" />
</svg>
