<?xml version="1.0" encoding="UTF-8" standalone="no"?>
<!-- Created with Inkscape (http://www.inkscape.org/) -->

<svg
   width="64"
   height="64"
   viewBox="0 0 64 64"
   version="1.1"
   id="svg5"
   inkscape:version="1.3 (0e150ed6c4, 2023-07-21)"
   sodipodi:docname="preferences-desktop-icons.svg"
   xmlns:inkscape="http://www.inkscape.org/namespaces/inkscape"
   xmlns:sodipodi="http://sodipodi.sourceforge.net/DTD/sodipodi-0.dtd"
   xmlns="http://www.w3.org/2000/svg"
   xmlns:svg="http://www.w3.org/2000/svg">
  <sodipodi:namedview
     id="namedview7"
     pagecolor="#ffffff"
     bordercolor="#000000"
     borderopacity="0.25"
     inkscape:showpageshadow="2"
     inkscape:pageopacity="0.0"
     inkscape:pagecheckerboard="0"
     inkscape:deskcolor="#d1d1d1"
     inkscape:document-units="px"
     showgrid="false"
     inkscape:zoom="12.5"
     inkscape:cx="31.96"
     inkscape:cy="32"
     inkscape:window-width="1920"
     inkscape:window-height="1004"
     inkscape:window-x="0"
     inkscape:window-y="0"
     inkscape:window-maximized="1"
     inkscape:current-layer="svg5" />
  <defs
     id="defs2" />
  <rect
     style="opacity:0.2;fill:#000000;stroke-width:4;stroke-linecap:square"
     id="rect234"
     width="56"
     height="56"
     x="4"
     y="5"
     ry="12" />
  <rect
     style="fill:#2196f3;fill-opacity:1;stroke-width:4;stroke-linecap:square"
     id="rect396"
     width="56"
     height="56"
     x="4"
     y="4"
     ry="12" />
  <path
     id="path1-3"
     style="opacity:0.2;fill:#000000;stroke-width:2"
     d="M 15.601562,14 C 14.161166,14 13,15.161166 13,16.601562 v 4.796876 C 13,22.838834 14.161166,24 15.601562,24 h 4.796876 C 21.838834,24 23,22.838834 23,21.398438 V 16.601562 C 23,15.161166 21.838834,14 20.398438,14 Z m 14,0 C 28.161166,14 27,15.161166 27,16.601562 v 4.796876 C 27,22.838834 28.161166,24 29.601562,24 h 4.796876 C 35.838836,24 37,22.838834 37,21.398438 V 16.601562 C 37,15.161166 35.838836,14 34.398438,14 Z m -14,14 C 14.161166,28 13,29.161166 13,30.601562 v 4.796876 C 13,36.838836 14.161166,38 15.601562,38 h 4.796876 C 21.838834,38 23,36.838836 23,35.398438 V 30.601562 C 23,29.161166 21.838834,28 20.398438,28 Z m 14,0 C 28.161166,28 27,29.161166 27,30.601562 v 4.796876 C 27,36.838836 28.161166,38 29.601562,38 h 4.796876 C 35.838836,38 37,36.838836 37,35.398438 V 30.601562 C 37,29.161166 35.838836,28 34.398438,28 Z m -14,14 C 14.161166,42 13,43.161166 13,44.601562 v 4.796876 C 13,50.838836 14.161166,52 15.601562,52 h 4.796876 C 21.838834,52 23,50.838836 23,49.398438 V 44.601562 C 23,43.161166 21.838834,42 20.398438,42 Z" />
  <path
     id="path1"
     style="fill:#ffffff;stroke-width:2"
     d="M 15.601562,13 C 14.161166,13 13,14.161166 13,15.601562 v 4.796876 C 13,21.838834 14.161166,23 15.601562,23 h 4.796876 C 21.838834,23 23,21.838834 23,20.398438 V 15.601562 C 23,14.161166 21.838834,13 20.398438,13 Z m 14,0 C 28.161166,13 27,14.161166 27,15.601562 v 4.796876 C 27,21.838834 28.161166,23 29.601562,23 h 4.796876 C 35.838836,23 37,21.838834 37,20.398438 V 15.601562 C 37,14.161166 35.838836,13 34.398438,13 Z m -14,14 C 14.161166,27 13,28.161166 13,29.601562 v 4.796876 C 13,35.838836 14.161166,37 15.601562,37 h 4.796876 C 21.838834,37 23,35.838836 23,34.398438 V 29.601562 C 23,28.161166 21.838834,27 20.398438,27 Z m 14,0 C 28.161166,27 27,28.161166 27,29.601562 v 4.796876 C 27,35.838836 28.161166,37 29.601562,37 h 4.796876 C 35.838836,37 37,35.838836 37,34.398438 V 29.601562 C 37,28.161166 35.838836,27 34.398438,27 Z m -14,14 C 14.161166,41 13,42.161166 13,43.601562 v 4.796876 C 13,49.838836 14.161166,51 15.601562,51 h 4.796876 C 21.838834,51 23,49.838836 23,48.398438 V 43.601562 C 23,42.161166 21.838834,41 20.398438,41 Z" />
  <path
     id="path1040"
     style="opacity:0.2;fill:#ffffff;stroke-width:4;stroke-linecap:square"
     d="M 16,4 C 9.3520132,4 4,9.3520136 4,16 v 1 C 4,10.352014 9.3520132,5 16,5 h 32 c 6.647986,0 12,5.352014 12,12 V 16 C 60,9.3520136 54.647986,4 48,4 Z" />
</svg>
