<?xml version="1.0" encoding="UTF-8" standalone="no"?>
<!-- Created with Inkscape (http://www.inkscape.org/) -->

<svg
   width="64"
   height="64"
   viewBox="0 0 64 64"
   version="1.1"
   id="svg5"
   inkscape:version="1.3 (0e150ed6c4, 2023-07-21)"
   sodipodi:docname="preferences-desktop-emoticons.svg"
   xmlns:inkscape="http://www.inkscape.org/namespaces/inkscape"
   xmlns:sodipodi="http://sodipodi.sourceforge.net/DTD/sodipodi-0.dtd"
   xmlns="http://www.w3.org/2000/svg"
   xmlns:svg="http://www.w3.org/2000/svg">
  <sodipodi:namedview
     id="namedview7"
     pagecolor="#ffffff"
     bordercolor="#000000"
     borderopacity="0.25"
     inkscape:showpageshadow="2"
     inkscape:pageopacity="0.0"
     inkscape:pagecheckerboard="0"
     inkscape:deskcolor="#d1d1d1"
     inkscape:document-units="px"
     showgrid="false"
     inkscape:zoom="12.234375"
     inkscape:cx="31.959132"
     inkscape:cy="32"
     inkscape:window-width="1920"
     inkscape:window-height="984"
     inkscape:window-x="0"
     inkscape:window-y="29"
     inkscape:window-maximized="1"
     inkscape:current-layer="svg5" />
  <defs
     id="defs2" />
  <rect
     style="opacity:0.2;fill:#000000;stroke-width:4;stroke-linecap:square"
     id="rect234"
     width="56"
     height="56"
     x="4"
     y="5"
     ry="12" />
  <rect
     style="fill:#fecd38;fill-opacity:1;stroke-width:4;stroke-linecap:square"
     id="rect396"
     width="56"
     height="56"
     x="4"
     y="4"
     ry="12" />
  <path
     d="m 20,18 c -2.209186,-1.12e-4 -4.000111,1.790814 -4,4 -1.11e-4,2.209186 1.790818,4.000112 4,4 2.209182,1.08e-4 4.000112,-1.790818 4,-4 1.12e-4,-2.209182 -1.790818,-4.000108 -4,-4 z m 24,0 c -2.209182,-1.12e-4 -4.000112,1.790814 -4,4 -1.12e-4,2.209186 1.790818,4.000112 4,4 2.209186,1.12e-4 4.000112,-1.790814 4,-4 1.12e-4,-2.209186 -1.790814,-4.000112 -4,-4 z M 20,38 c 2.476428,4.946012 7.051238,7.994894 12.003906,8 C 36.953782,45.9918 41.524972,42.943228 44,38 H 42.3125 C 39.687782,41.383148 35.940434,43.321432 32.003906,43.332032 28.066018,43.322632 24.317034,41.384318 21.691406,38 Z"
     id="path1"
     style="fill:#3f3f3f;fill-opacity:1;stroke-width:2" />
  <path
     id="path1040"
     style="opacity:0.2;fill:#ffffff;stroke-width:4;stroke-linecap:square"
     d="M 16,4 C 9.3520132,4 4,9.3520136 4,16 v 1 C 4,10.352014 9.3520132,5 16,5 h 32 c 6.647986,0 12,5.352014 12,12 V 16 C 60,9.3520136 54.647986,4 48,4 Z" />
</svg>
