<?xml version="1.0" encoding="UTF-8" standalone="no"?>
<!-- Created with Inkscape (http://www.inkscape.org/) -->

<svg
   width="64"
   height="64"
   viewBox="0 0 64 64"
   version="1.1"
   id="svg5"
   inkscape:version="1.3 (0e150ed6c4, 2023-07-21)"
   sodipodi:docname="qtassistant.svg"
   xmlns:inkscape="http://www.inkscape.org/namespaces/inkscape"
   xmlns:sodipodi="http://sodipodi.sourceforge.net/DTD/sodipodi-0.dtd"
   xmlns="http://www.w3.org/2000/svg"
   xmlns:svg="http://www.w3.org/2000/svg">
  <sodipodi:namedview
     id="namedview7"
     pagecolor="#ffffff"
     bordercolor="#000000"
     borderopacity="0.25"
     inkscape:showpageshadow="2"
     inkscape:pageopacity="0.0"
     inkscape:pagecheckerboard="0"
     inkscape:deskcolor="#d1d1d1"
     inkscape:document-units="px"
     showgrid="false"
     inkscape:zoom="12.234375"
     inkscape:cx="31.959132"
     inkscape:cy="32"
     inkscape:window-width="1920"
     inkscape:window-height="984"
     inkscape:window-x="0"
     inkscape:window-y="29"
     inkscape:window-maximized="1"
     inkscape:current-layer="svg5" />
  <defs
     id="defs2" />
  <rect
     style="opacity:0.2;fill:#000000;stroke-width:4;stroke-linecap:square"
     id="rect234"
     width="56"
     height="56"
     x="4"
     y="5"
     ry="12" />
  <rect
     style="fill:#4cdb5d;fill-opacity:1;stroke-width:4;stroke-linecap:square"
     id="rect396"
     width="56"
     height="52"
     x="4"
     y="4"
     ry="12" />
  <path
     id="path1"
     style="fill:#31ae3e;fill-opacity:1;stroke-width:1;stroke-linecap:square"
     d="m 4,20 v 28 c 0,6.647994 5.3520066,12 12,12 h 32 c 6.647994,0 12,-5.352006 12,-12 v -6 z" />
  <path
     id="path2"
     style="opacity:0.1;fill:#000000;fill-opacity:1;stroke-width:1;stroke-linecap:square"
     d="m 4,20 v 1 l 56,22 v -1 z" />
  <path
     d="m 30,21 -8,24 h 4 l 2,-6 h 8 l 2,6 h 4 L 34,21 Z m 2,6 2.66796,8 h -5.33592 z"
     style="opacity:0.2;fill:#000000;stroke-width:2"
     id="path3" />
  <path
     d="m 30,20 -8,24 h 4 l 2,-6 h 8 l 2,6 h 4 L 34,20 Z m 2,6 2.66796,8 h -5.33592 z"
     style="fill:#ffffff;stroke-width:2"
     id="path4" />
  <path
     id="path1040"
     style="opacity:0.2;fill:#ffffff;stroke-width:4;stroke-linecap:square"
     d="M 16,4 C 9.3520132,4 4,9.3520136 4,16 v 1 C 4,10.352014 9.3520132,5 16,5 h 32 c 6.647986,0 12,5.352014 12,12 V 16 C 60,9.3520136 54.647986,4 48,4 Z" />
</svg>
