<?xml version="1.0" encoding="UTF-8" standalone="no"?>
<!-- Created with Inkscape (http://www.inkscape.org/) -->

<svg
   width="64"
   height="64"
   viewBox="0 0 64 64"
   version="1.1"
   id="svg5"
   inkscape:version="1.3 (0e150ed6c4, 2023-07-21)"
   sodipodi:docname="reddit.svg"
   xmlns:inkscape="http://www.inkscape.org/namespaces/inkscape"
   xmlns:sodipodi="http://sodipodi.sourceforge.net/DTD/sodipodi-0.dtd"
   xmlns="http://www.w3.org/2000/svg"
   xmlns:svg="http://www.w3.org/2000/svg">
  <sodipodi:namedview
     id="namedview7"
     pagecolor="#ffffff"
     bordercolor="#000000"
     borderopacity="0.25"
     inkscape:showpageshadow="2"
     inkscape:pageopacity="0.0"
     inkscape:pagecheckerboard="0"
     inkscape:deskcolor="#d1d1d1"
     inkscape:document-units="px"
     showgrid="false"
     inkscape:zoom="12.234375"
     inkscape:cx="31.959132"
     inkscape:cy="32"
     inkscape:window-width="1920"
     inkscape:window-height="984"
     inkscape:window-x="0"
     inkscape:window-y="29"
     inkscape:window-maximized="1"
     inkscape:current-layer="svg5"
     showguides="false" />
  <defs
     id="defs2" />
  <rect
     style="opacity:0.2;fill:#000000;stroke-width:4;stroke-linecap:square"
     id="rect234"
     width="56"
     height="56"
     x="4"
     y="5"
     ry="12" />
  <rect
     style="fill:#ff5836;fill-opacity:1;stroke-width:4;stroke-linecap:square"
     id="rect396"
     width="56"
     height="56"
     x="4"
     y="4"
     ry="12" />
  <path
     style="opacity:0.2;fill:#000000"
     d="m 34.015616,16.000116 c -0.501908,-0.0076 -0.93138,0.358635 -1.003906,0.855395 l -1.714842,11.170542 c -3.939255,0.116773 -7.676984,1.229637 -10.496093,3.124618 -0.747101,-0.734841 -1.75279,-1.147177 -2.800782,-1.14831 -2.209149,0 -4.000014,1.790678 -4,3.99955 0.0011,1.491716 0.832302,2.858874 2.15625,3.546439 -0.09874,0.481417 -0.150936,0.966802 -0.15625,1.452943 C 15.999982,45.075709 23.163429,50 31.999992,50 c 8.836561,0 16.00001,-4.924291 15.999998,-10.998707 -0.0068,-0.484931 -0.06036,-0.968994 -0.160138,-1.44905 1.326701,-0.687151 2.159781,-2.056386 2.160155,-3.550332 1.5e-5,-2.208872 -1.79085,-3.99955 -3.999999,-3.99955 -1.051249,1.13e-4 -2.060198,0.414036 -2.808597,1.152203 -2.664805,-1.798729 -6.160996,-2.899952 -9.88281,-3.112904 l 1.51953,-9.826966 5.199218,1.156134 c 0.185197,1.501466 1.459623,2.630088 2.972659,2.632507 1.656854,0 3,-1.342972 3,-2.999644 0,-1.656674 -1.343146,-2.999644 -3,-2.999644 -1.031879,8.69e-4 -1.990877,0.531981 -2.539064,1.406082 l -6.238281,-1.382652 c -0.0679,-0.01512 -0.137287,-0.02646 -0.207031,-0.02646 z m -7.015624,18.001795 c 1.656854,0 3,1.342972 3,2.999644 0,1.656673 -1.343146,2.999644 -3,2.999644 -1.656854,0 -3,-1.342971 -3,-2.999644 0,-1.656672 1.343146,-2.999644 3,-2.999644 z m 10,0 c 1.656855,0 3.000001,1.342972 3.000001,2.999644 0,1.656673 -1.343146,2.999644 -3.000001,2.999644 -1.656855,0 -3,-1.342971 -3,-2.999644 0,-1.656672 1.343145,-2.999644 3,-2.999644 z m 1.945312,8.963485 c 0.930392,-0.0786 1.454691,1.044273 0.796876,1.706821 0,0 -0.655143,0.694973 -1.902346,1.269393 -1.247201,0.57457 -3.163104,1.107723 -5.86328,1.062374 -2.68461,-0.04572 -4.5664,-0.576801 -5.80078,-1.120989 -1.23438,-0.543809 -1.890626,-1.183455 -1.890626,-1.183455 -0.61236,-0.600572 -0.23399,-1.642728 0.621094,-1.710714 0.03247,-0.0028 0.06506,-0.0038 0.09766,-0.0038 0.27077,0.0031 0.528705,0.116018 0.714844,0.312529 0,0 0.28509,0.320088 1.269532,0.753814 0.984442,0.433838 2.595056,0.899874 5.035156,0.945223 2.424532,0.04158 4.001034,-0.423559 4.972656,-0.871002 0.971625,-0.447217 1.257811,-0.796781 1.257811,-0.796781 0.171969,-0.209362 0.42135,-0.340495 0.691408,-0.363169 z"
     id="path2" />
  <path
     style="fill:#ffffff"
     d="m 34.015616,15.000116 c -0.501908,-0.0076 -0.93138,0.358635 -1.003906,0.855395 l -1.714842,11.170542 c -3.939255,0.116773 -7.676984,1.229637 -10.496093,3.124618 -0.747101,-0.734842 -1.75279,-1.147177 -2.800782,-1.148311 -2.209149,0 -4.000014,1.790679 -4,3.999551 0.0011,1.491716 0.832302,2.858873 2.15625,3.546439 -0.09874,0.481417 -0.150936,0.966802 -0.15625,1.452942 C 15.999982,44.075708 23.163429,49 31.999992,49 c 8.836561,0 16.00001,-4.924292 15.999998,-10.998708 -0.0068,-0.484931 -0.06036,-0.968994 -0.160138,-1.44905 1.326701,-0.68715 2.159781,-2.056386 2.160155,-3.550331 1.5e-5,-2.208872 -1.79085,-3.999551 -3.999999,-3.999551 -1.051249,1.13e-4 -2.060198,0.414036 -2.808597,1.152204 -2.664805,-1.798729 -6.160996,-2.899952 -9.88281,-3.112903 l 1.51953,-9.826967 5.199218,1.156134 c 0.185197,1.501466 1.459623,2.630088 2.972659,2.632507 1.656854,0 3,-1.342972 3,-2.999644 0,-1.656673 -1.343146,-2.999644 -3,-2.999644 -1.031879,8.69e-4 -1.990877,0.531981 -2.539064,1.406082 l -6.238281,-1.382652 c -0.0679,-0.01512 -0.137287,-0.02646 -0.207031,-0.02646 z m -7.015624,18.001795 c 1.656854,0 3,1.342971 3,2.999644 0,1.656672 -1.343146,2.999644 -3,2.999644 -1.656854,0 -3,-1.342972 -3,-2.999644 0,-1.656673 1.343146,-2.999644 3,-2.999644 z m 10,0 c 1.656855,0 3.000001,1.342971 3.000001,2.999644 0,1.656672 -1.343146,2.999644 -3.000001,2.999644 -1.656855,0 -3,-1.342972 -3,-2.999644 0,-1.656673 1.343145,-2.999644 3,-2.999644 z m 1.945312,8.963484 c 0.930392,-0.0786 1.454691,1.044273 0.796876,1.706821 0,0 -0.655143,0.694973 -1.902346,1.269393 -1.247201,0.574571 -3.163104,1.107723 -5.86328,1.062375 -2.68461,-0.04573 -4.5664,-0.576801 -5.80078,-1.120988 -1.23438,-0.54381 -1.890626,-1.183457 -1.890626,-1.183457 -0.61236,-0.600572 -0.23399,-1.642728 0.621094,-1.710714 0.03247,-0.0028 0.06506,-0.0038 0.09766,-0.0038 0.27077,0.0031 0.528705,0.116017 0.714844,0.312529 0,0 0.28509,0.320088 1.269532,0.753813 0.984442,0.433838 2.595056,0.899874 5.035156,0.945223 2.424532,0.04158 4.001034,-0.423559 4.972656,-0.871002 0.971625,-0.447216 1.257811,-0.796781 1.257811,-0.796781 0.171969,-0.20936 0.42135,-0.340495 0.691408,-0.363169 z"
     id="path3" />
  <path
     id="path1040"
     style="opacity:0.2;fill:#ffffff;stroke-width:4;stroke-linecap:square"
     d="M 16,4 C 9.3520132,4 4,9.3520136 4,16 v 1 C 4,10.352014 9.3520132,5 16,5 h 32 c 6.647986,0 12,5.352014 12,12 V 16 C 60,9.3520136 54.647986,4 48,4 Z" />
</svg>
