<?xml version="1.0" encoding="UTF-8" standalone="no"?>
<!-- Created with Inkscape (http://www.inkscape.org/) -->

<svg
   width="64"
   height="64"
   viewBox="0 0 64 64"
   version="1.1"
   id="svg5"
   inkscape:version="1.2.2 (1:1.2.2+202305151914+b0a8486541)"
   sodipodi:docname="rhythmbox.svg"
   xmlns:inkscape="http://www.inkscape.org/namespaces/inkscape"
   xmlns:sodipodi="http://sodipodi.sourceforge.net/DTD/sodipodi-0.dtd"
   xmlns="http://www.w3.org/2000/svg"
   xmlns:svg="http://www.w3.org/2000/svg">
  <sodipodi:namedview
     id="namedview7"
     pagecolor="#ffffff"
     bordercolor="#000000"
     borderopacity="0.25"
     inkscape:showpageshadow="2"
     inkscape:pageopacity="0.0"
     inkscape:pagecheckerboard="0"
     inkscape:deskcolor="#d1d1d1"
     inkscape:document-units="px"
     showgrid="false"
     inkscape:zoom="12.96875"
     inkscape:cx="31.961446"
     inkscape:cy="32"
     inkscape:window-width="1920"
     inkscape:window-height="1008"
     inkscape:window-x="0"
     inkscape:window-y="0"
     inkscape:window-maximized="1"
     inkscape:current-layer="svg5" />
  <defs
     id="defs2" />
  <rect
     style="opacity:0.2;fill:#000000;stroke-width:4;stroke-linecap:square"
     id="rect234"
     width="56"
     height="56"
     x="4"
     y="5"
     ry="12" />
  <rect
     style="fill:#e4e4e4;stroke-width:4;stroke-linecap:square;fill-opacity:1"
     id="rect396"
     width="56"
     height="56"
     x="4"
     y="4"
     ry="12" />
  <circle
     style="fill:#333333;stroke-width:1.25"
     id="path1406"
     cx="32"
     cy="32"
     r="20" />
  <circle
     style="fill:#4d4d4d;stroke-width:1.23078"
     id="path1678"
     cx="32"
     cy="32"
     r="16" />
  <circle
     style="fill:#fec006;fill-opacity:1;stroke-width:10.1712;stroke-linecap:round;stroke-linejoin:round"
     id="path2453"
     cx="32"
     cy="32"
     r="14" />
  <path
     id="path1718"
     style="fill:#868686;fill-opacity:1;stroke-width:1;stroke-linecap:round;stroke-linejoin:round;paint-order:stroke fill markers"
     d="m 13,10.999999 a 2,2 0 0 0 -2,2 2,2 0 0 0 2,2 2,2 0 0 0 2,-2 2,2 0 0 0 -2,-2 z m 38,0 c -1.104568,0 -2,0.895432 -2,2 0,1.104568 0.895432,2 2,2 1.104568,0 2,-0.895432 2,-2 0,-1.104568 -0.895432,-2 -2,-2 z m -38,38 a 2,2 0 0 0 -2,2 2,2 0 0 0 2,2 2,2 0 0 0 2,-2 2,2 0 0 0 -2,-2 z m 38,0 c -1.104568,0 -2,0.895432 -2,2 0,1.104568 0.895432,2 2,2 1.104568,0 2,-0.895432 2,-2 0,-1.104568 -0.895432,-2 -2,-2 z" />
  <circle
     style="opacity:0.2;fill:#000000;fill-opacity:1;stroke-width:3;stroke-linecap:square"
     id="path1659"
     cx="32"
     cy="33"
     r="6" />
  <circle
     style="fill:#3f3f3f;fill-opacity:1;stroke-width:31.0172;stroke-linecap:round;stroke-linejoin:round"
     id="path3261"
     cx="32"
     cy="32"
     r="6" />
  <path
     d="M 16,4.0000002 C 9.3520066,4.0000002 4,9.352007 4,16 v 1 C 4,10.352007 9.3520066,5 16,5 h 32 c 6.647993,0 12,5.352007 12,12 V 16 C 60,9.352007 54.647993,4.0000002 48,4.0000002 Z"
     style="opacity:0.2;fill:#ffffff;stroke-width:4;stroke-linecap:square"
     id="path1040" />
</svg>
