<?xml version="1.0" encoding="UTF-8" standalone="no"?>
<!-- Created with Inkscape (http://www.inkscape.org/) -->

<svg
   width="64"
   height="64"
   viewBox="0 0 64 64"
   version="1.1"
   id="svg5"
   inkscape:version="1.2.2 (1:1.2.2+202305151914+b0a8486541)"
   sodipodi:docname="rnote.svg"
   xmlns:inkscape="http://www.inkscape.org/namespaces/inkscape"
   xmlns:sodipodi="http://sodipodi.sourceforge.net/DTD/sodipodi-0.dtd"
   xmlns="http://www.w3.org/2000/svg"
   xmlns:svg="http://www.w3.org/2000/svg">
  <sodipodi:namedview
     id="namedview7"
     pagecolor="#ffffff"
     bordercolor="#000000"
     borderopacity="0.25"
     inkscape:showpageshadow="2"
     inkscape:pageopacity="0.0"
     inkscape:pagecheckerboard="0"
     inkscape:deskcolor="#d1d1d1"
     inkscape:document-units="px"
     showgrid="false"
     inkscape:zoom="12.59375"
     inkscape:cx="32"
     inkscape:cy="32"
     inkscape:window-width="1920"
     inkscape:window-height="1008"
     inkscape:window-x="0"
     inkscape:window-y="0"
     inkscape:window-maximized="1"
     inkscape:current-layer="svg5" />
  <defs
     id="defs2" />
  <rect
     style="opacity:0.2;fill:#000000;stroke-width:4;stroke-linecap:square"
     id="rect234"
     width="56"
     height="56"
     x="4"
     y="5"
     ry="12" />
  <rect
     style="fill:#e4e4e4;fill-opacity:1;stroke-width:4;stroke-linecap:square"
     id="rect396"
     width="56"
     height="56"
     x="4"
     y="4"
     ry="12" />
  <path
     d="m 14,16 v 0.5 H 60 V 16 Z m 0,8 v 0.5 H 60 V 24 Z m 0,8 v 0.5 H 60 V 32 Z m 0,8 v 0.5 H 60 V 40 Z m 0,8 v 0.5 H 60 V 48 Z"
     style="fill:#cccccc"
     id="path1306" />
  <path
     d="m 50.911833,22.831907 c -0.06784,-0.552226 0.355726,-1.4261 0.298883,-2.615807 -0.05868,-1.191646 -0.636271,-2.852199 -3.00716,-4.057409 -0.04217,-0.02132 -0.08435,-0.04263 -0.128355,-0.06394 -1.542087,-0.751803 -3.790123,-1.290466 -6.41222,-1.026946 -2.037169,0.205389 -4.153182,0.885499 -6.148177,2.084895 -1.795129,1.075388 -3.449067,2.547991 -4.791288,4.369368 -0.788463,1.145142 -1.476076,2.44142 -1.96749,3.840392 -0.212701,0.604542 -0.38873,1.230399 -0.520752,1.869818 -0.170528,0.831246 -0.264043,1.739997 -0.227371,2.699126 0.09718,1.521044 0.526253,3.183536 1.485244,4.679389 0.452908,0.709175 1.015835,1.352471 1.666774,1.889195 0.647274,0.536725 1.388062,0.970756 2.196695,1.255588 1.296379,0.447593 2.570755,0.447593 3.625096,0.279019 0.559257,-0.08913 1.072675,-0.226703 1.525583,-0.379776 0.559259,-0.18795 1.072677,-0.404966 1.47791,-0.589041 0.883812,-0.408842 1.712615,-0.899063 2.372723,-1.294341 0.660109,-0.395277 1.307382,-0.792493 1.928984,-1.11414 0.370393,-0.186013 0.810467,-0.39334 1.245038,-0.550288 0.115519,-0.04068 0.231038,-0.07944 0.346556,-0.112383 0.432738,-0.125946 0.859975,-0.182138 1.239538,-0.141447 0.324553,0.03294 0.599598,0.145322 0.784795,0.282894 0.07885,0.05231 0.146691,0.125947 0.203534,0.203452 0.04951,0.0717 0.08252,0.13951 0.100849,0.176324 0.02017,0.0465 0.03118,0.141448 -0.0036,0.27902 -0.03301,0.13951 -0.104517,0.300334 -0.214536,0.461157 -0.113684,0.1647 -0.271377,0.335212 -0.484079,0.511536 -0.209034,0.170512 -0.458409,0.337149 -0.748123,0.497972 -0.636271,0.323585 -1.268875,0.540601 -2.158188,0.891313 -0.806799,0.317772 -1.769457,0.728551 -2.671606,1.379596 -0.473077,0.352649 -0.946156,0.792493 -1.353222,1.325342 -0.405233,0.53285 -0.757292,1.176145 -0.95349,1.929884 -0.176029,0.753741 -0.185197,1.590799 0.05134,2.394918 0.119186,0.408841 0.302549,0.796368 0.537255,1.141267 0.238372,0.348775 0.537255,0.664609 0.891146,0.916502 0.628937,0.44178 1.322051,0.604542 1.921649,0.621981 h 0.203534 c 0.507916,-0.01356 0.991996,-0.124009 1.433902,-0.280957 0.462076,-0.149198 0.880145,-0.350713 1.239537,-0.528975 0.366727,-0.184075 0.649107,-0.333273 0.944321,-0.457282 0.269545,-0.125946 0.504251,-0.207326 0.716952,-0.242205 0.2017,-0.03295 0.366727,-0.01744 0.485913,0.01744 0.05318,0.01551 0.10085,0.04069 0.139356,0.06588 0.03667,0.02519 0.06235,0.04844 0.07518,0.06007 0.02017,0.0097 0.03851,0.02519 0.05134,0.02906 0.01467,0 0.0275,0.0077 0.04584,0.0039 0.0165,-0.0039 0,0.05813 -0.06601,0.13951 -0.07701,0.09494 -0.188865,0.189888 -0.361226,0.331335 -0.166861,0.133697 -0.394232,0.310021 -0.601432,0.527037 -0.229204,0.238328 -0.452907,0.5406 -0.59043,0.914563 -0.137523,0.377839 -0.159527,0.765366 -0.102684,1.10639 0.06601,0.397215 0.240207,0.722738 0.441906,0.953317 0.271378,0.313897 0.586763,0.447594 0.819635,0.484408 0.05684,0.0077 0.110017,0.01163 0.159526,0.0097 0.414401,-0.01551 0.581263,-0.350713 0.654607,-0.449532 -0.102683,-0.102695 -0.2072,-0.366213 -0.289713,-0.590978 -0.0091,-0.02519 -0.01833,-0.04844 -0.02567,-0.07363 -0.03301,-0.09882 -0.06235,-0.207326 -0.05501,-0.304209 0.0036,-0.06975 0.02017,-0.143385 0.05134,-0.189888 0.02567,-0.04069 0.06235,-0.07751 0.09535,-0.09107 0.03301,-0.01551 0.08802,-0.062 0.187031,-0.125946 0.122854,-0.07751 0.209034,-0.122071 0.427236,-0.24608 0.170529,-0.09494 0.42357,-0.242204 0.66561,-0.44178 0.24204,-0.199577 0.520752,-0.490222 0.718785,-0.895188 0.176029,-0.362337 0.262209,-0.763428 0.262209,-1.158706 0.0019,-0.395277 -0.08251,-0.778929 -0.229204,-1.12189 -0.154025,-0.344899 -0.366727,-0.63942 -0.608767,-0.881625 -0.243873,-0.244142 -0.520751,-0.437905 -0.810466,-0.583228 -0.581262,-0.288707 -1.193695,-0.370089 -1.730951,-0.348774 -0.555591,0.02131 -1.065341,0.153073 -1.485244,0.292583 -0.414401,0.14726 -0.843472,0.341024 -1.147856,0.470845 -0.350224,0.149198 -0.619768,0.251892 -0.874643,0.313897 -0.240207,0.04456 -0.421736,0.04069 -0.553758,0.0097 -0.0165,-0.0039 -0.03301,-0.0077 -0.04951,-0.01356 -0.133855,-0.04456 -0.2072,-0.12207 -0.187031,-0.160823 0.01101,-0.01551 0.01284,-0.03488 0.0165,-0.06782 0.0036,-0.031 0.0074,-0.06588 0.02201,-0.09689 0.022,-0.06588 0.05868,-0.1802 0.133855,-0.28677 0.05501,-0.118196 0.146691,-0.251892 0.297049,-0.403028 0.154025,-0.155011 0.355724,-0.311959 0.597764,-0.451469 0.487747,-0.310021 1.069009,-0.5406 1.822633,-0.790555 0.696781,-0.232516 1.652105,-0.517349 2.530416,-0.902938 0.473078,-0.197639 0.964492,-0.439844 1.441237,-0.74599 0.487746,-0.311959 0.969992,-0.69561 1.410064,-1.170331 0.456576,-0.496035 0.85264,-1.081201 1.144189,-1.736122 0.298882,-0.674297 0.493246,-1.439663 0.511582,-2.259283 0.01835,-0.808055 -0.137519,-1.571484 -0.397897,-2.245781 -0.26771,-0.699486 -0.658274,-1.32728 -1.124018,-1.852379 -0.986496,-1.112202 -2.2352,-1.716744 -3.357385,-1.978325 -1.300046,-0.304209 -2.519414,-0.191827 -3.456401,0.01744 -0.260376,0.06007 -0.506084,0.125946 -0.735288,0.197639 -0.865475,0.269331 -1.58426,0.631669 -2.08851,0.912627 -0.819635,0.447593 -1.635602,0.992069 -2.191192,1.350531 -0.64544,0.416592 -1.223035,0.776992 -1.802463,1.054074 -0.258554,0.125949 -0.540933,0.238332 -0.834315,0.315837 -0.234705,0.06007 -0.463909,0.100758 -0.689447,0.112383 -0.430904,0.02324 -0.793963,-0.05813 -1.039671,-0.207327 -0.143022,-0.08138 -0.289713,-0.199577 -0.423569,-0.354587 -0.133855,-0.156949 -0.24754,-0.339087 -0.324553,-0.53285 -0.176029,-0.430155 -0.231038,-0.951379 -0.154026,-1.445476 0.02017,-0.308083 0.08435,-0.618105 0.185197,-0.926189 0.07885,-0.23833 0.187031,-0.480534 0.324553,-0.724676 0.32272,-0.57354 0.790298,-1.116078 1.338554,-1.583048 0.852641,-0.831246 1.850137,-1.431913 2.862304,-1.821378 1.125851,-0.43403 2.204029,-0.583227 3.150184,-0.590978 1.2102,-0.0077 2.293878,0.211202 3.14285,0.315835 0.02384,0.002 0.04767,0.0059 0.07151,0.0077 1.342221,0.156948 2.37089,-0.174387 3.28404,-0.635544 0.885647,-0.445656 1.677776,-1.048261 2.172857,-1.052136 z"
     style="opacity:0.1;fill:#000000"
     id="path396" />
  <path
     d="m 50.911833,21.831907 c -0.06784,-0.552226 0.355726,-1.4261 0.298883,-2.615807 -0.05868,-1.191646 -0.636271,-2.852199 -3.00716,-4.057409 -0.04217,-0.02132 -0.08435,-0.04263 -0.128355,-0.06394 -1.542087,-0.751803 -3.790123,-1.290466 -6.41222,-1.026946 -2.037169,0.205389 -4.153182,0.885499 -6.148177,2.084895 -1.795129,1.075388 -3.449067,2.547991 -4.791288,4.369368 -0.788463,1.145142 -1.476076,2.44142 -1.96749,3.840392 -0.212701,0.604542 -0.38873,1.230399 -0.520752,1.869818 -0.170528,0.831246 -0.264043,1.739997 -0.227371,2.699126 0.09718,1.521044 0.526253,3.183536 1.485244,4.679389 0.452908,0.709175 1.015835,1.352471 1.666774,1.889195 0.647274,0.536725 1.388062,0.970756 2.196695,1.255588 1.296379,0.447593 2.570755,0.447593 3.625096,0.279019 0.559257,-0.08913 1.072675,-0.226703 1.525583,-0.379776 0.559259,-0.18795 1.072677,-0.404966 1.47791,-0.589041 0.883812,-0.408842 1.712615,-0.899063 2.372723,-1.294341 0.660109,-0.395277 1.307382,-0.792493 1.928984,-1.11414 0.370393,-0.186013 0.810467,-0.39334 1.245038,-0.550288 0.115519,-0.04068 0.231038,-0.07944 0.346556,-0.112383 0.432738,-0.125946 0.859975,-0.182138 1.239538,-0.141447 0.324553,0.03294 0.599598,0.145322 0.784795,0.282894 0.07885,0.05231 0.146691,0.125947 0.203534,0.203452 0.04951,0.0717 0.08252,0.13951 0.100849,0.176324 0.02017,0.0465 0.03118,0.141448 -0.0036,0.27902 -0.03301,0.13951 -0.104517,0.300334 -0.214536,0.461157 -0.113684,0.1647 -0.271377,0.335212 -0.484079,0.511536 -0.209034,0.170512 -0.458409,0.337149 -0.748123,0.497972 -0.636271,0.323585 -1.268875,0.540601 -2.158188,0.891313 -0.806799,0.317772 -1.769457,0.728551 -2.671606,1.379596 -0.473077,0.352649 -0.946156,0.792493 -1.353222,1.325342 -0.405233,0.53285 -0.757292,1.176145 -0.95349,1.929884 -0.176029,0.753741 -0.185197,1.590799 0.05134,2.394918 0.119186,0.408841 0.302549,0.796368 0.537255,1.141267 0.238372,0.348775 0.537255,0.664609 0.891146,0.916502 0.628937,0.44178 1.322051,0.604542 1.921649,0.621981 h 0.203534 c 0.507916,-0.01356 0.991996,-0.124009 1.433902,-0.280957 0.462076,-0.149198 0.880145,-0.350713 1.239537,-0.528975 0.366727,-0.184075 0.649107,-0.333273 0.944321,-0.457282 0.269545,-0.125946 0.504251,-0.207326 0.716952,-0.242205 0.2017,-0.03295 0.366727,-0.01744 0.485913,0.01744 0.05318,0.01551 0.10085,0.04069 0.139356,0.06588 0.03667,0.02519 0.06235,0.04844 0.07518,0.06007 0.02017,0.0097 0.03851,0.02519 0.05134,0.02906 0.01467,0 0.0275,0.0077 0.04584,0.0039 0.0165,-0.0039 0,0.05813 -0.06601,0.13951 -0.07701,0.09494 -0.188865,0.189888 -0.361226,0.331335 -0.166861,0.133697 -0.394232,0.310021 -0.601432,0.527037 -0.229204,0.238328 -0.452907,0.5406 -0.59043,0.914563 -0.137523,0.377839 -0.159527,0.765366 -0.102684,1.10639 0.06601,0.397215 0.240207,0.722738 0.441906,0.953317 0.271378,0.313897 0.586763,0.447594 0.819635,0.484408 0.05684,0.0077 0.110017,0.01163 0.159526,0.0097 0.414401,-0.01551 0.581263,-0.350713 0.654607,-0.449532 -0.102683,-0.102695 -0.2072,-0.366213 -0.289713,-0.590978 -0.0091,-0.02519 -0.01833,-0.04844 -0.02567,-0.07363 -0.03301,-0.09882 -0.06235,-0.207326 -0.05501,-0.304209 0.0036,-0.06975 0.02017,-0.143385 0.05134,-0.189888 0.02567,-0.04069 0.06235,-0.07751 0.09535,-0.09107 0.03301,-0.01551 0.08802,-0.062 0.187031,-0.125946 0.122854,-0.07751 0.209034,-0.122071 0.427236,-0.24608 0.170529,-0.09494 0.42357,-0.242204 0.66561,-0.44178 0.24204,-0.199577 0.520752,-0.490222 0.718785,-0.895188 0.176029,-0.362337 0.262209,-0.763428 0.262209,-1.158706 0.0019,-0.395277 -0.08251,-0.778929 -0.229204,-1.12189 -0.154025,-0.344899 -0.366727,-0.63942 -0.608767,-0.881625 -0.243873,-0.244142 -0.520751,-0.437905 -0.810466,-0.583228 -0.581262,-0.288707 -1.193695,-0.370089 -1.730951,-0.348774 -0.555591,0.02131 -1.065341,0.153073 -1.485244,0.292583 -0.414401,0.14726 -0.843472,0.341024 -1.147856,0.470845 -0.350224,0.149198 -0.619768,0.251892 -0.874643,0.313897 -0.240207,0.04456 -0.421736,0.04069 -0.553758,0.0097 -0.0165,-0.0039 -0.03301,-0.0077 -0.04951,-0.01356 -0.133855,-0.04456 -0.2072,-0.12207 -0.187031,-0.160823 0.01101,-0.01551 0.01284,-0.03488 0.0165,-0.06782 0.0036,-0.031 0.0074,-0.06588 0.02201,-0.09689 0.022,-0.06588 0.05868,-0.1802 0.133855,-0.28677 0.05501,-0.118196 0.146691,-0.251892 0.297049,-0.403028 0.154025,-0.155011 0.355724,-0.311959 0.597764,-0.451469 0.487747,-0.310021 1.069009,-0.5406 1.822633,-0.790555 0.696781,-0.232516 1.652105,-0.517349 2.530416,-0.902938 0.473078,-0.197639 0.964492,-0.439844 1.441237,-0.74599 0.487746,-0.311959 0.969992,-0.69561 1.410064,-1.170331 0.456576,-0.496035 0.85264,-1.081201 1.144189,-1.736122 0.298882,-0.674297 0.493246,-1.439663 0.511582,-2.259283 0.01835,-0.808055 -0.137519,-1.571484 -0.397897,-2.245781 -0.26771,-0.699486 -0.658274,-1.32728 -1.124018,-1.852379 -0.986496,-1.112202 -2.2352,-1.716744 -3.357385,-1.978325 -1.300046,-0.304209 -2.519414,-0.191827 -3.456401,0.01744 -0.260376,0.06007 -0.506084,0.125946 -0.735288,0.197639 -0.865475,0.269331 -1.58426,0.631669 -2.08851,0.912627 -0.819635,0.447593 -1.635602,0.992069 -2.191192,1.350531 -0.64544,0.416592 -1.223035,0.776992 -1.802463,1.054074 -0.258554,0.125949 -0.540933,0.238332 -0.834315,0.315837 -0.234705,0.06007 -0.463909,0.100758 -0.689447,0.112383 -0.430904,0.02324 -0.793963,-0.05813 -1.039671,-0.207327 -0.143022,-0.08138 -0.289713,-0.199577 -0.423569,-0.354587 -0.133855,-0.156949 -0.24754,-0.339087 -0.324553,-0.53285 -0.176029,-0.430155 -0.231038,-0.951379 -0.154026,-1.445476 0.02017,-0.308083 0.08435,-0.618105 0.185197,-0.926189 0.07885,-0.23833 0.187031,-0.480534 0.324553,-0.724676 0.32272,-0.57354 0.790298,-1.116078 1.338554,-1.583048 0.852641,-0.831246 1.850137,-1.431913 2.862304,-1.821378 1.125851,-0.43403 2.204029,-0.583227 3.150184,-0.590978 1.2102,-0.0077 2.293878,0.211202 3.14285,0.315835 0.02384,0.002 0.04767,0.0059 0.07151,0.0077 1.342221,0.156948 2.37089,-0.174387 3.28404,-0.635544 0.885647,-0.445656 1.677776,-1.048261 2.172857,-1.052136 z"
     style="fill:#3f3f3f"
     id="path318" />
  <rect
     style="fill:#df574d;fill-opacity:1;stroke-width:2.0755;stroke-linecap:square"
     id="rect468"
     width="1"
     height="56"
     x="22"
     y="4" />
  <path
     id="rect2154"
     style="fill:#37474f;stroke-width:2;stroke-linecap:square;fill-opacity:1"
     d="M 16 4 C 9.3520066 4 4 9.3520066 4 16 L 4 48 C 4 54.647993 9.3520066 60 16 60 L 16 4 z " />
  <path
     d="M 16,4.0000002 C 9.3520066,4.0000002 4,9.352007 4,16 v 1 C 4,10.352007 9.3520066,5 16,5 h 32 c 6.647993,0 12,5.352007 12,12 V 16 C 60,9.352007 54.647993,4.0000002 48,4.0000002 Z"
     style="opacity:0.1;fill:#ffffff;stroke-width:4;stroke-linecap:square"
     id="path1040" />
</svg>
