<?xml version="1.0" encoding="UTF-8" standalone="no"?>
<!-- Created with Inkscape (http://www.inkscape.org/) -->

<svg
   width="64"
   height="64"
   viewBox="0 0 64 64"
   version="1.1"
   id="svg5"
   inkscape:version="1.2.2 (1:1.2.2+202305151914+b0a8486541)"
   sodipodi:docname="skype.svg"
   xmlns:inkscape="http://www.inkscape.org/namespaces/inkscape"
   xmlns:sodipodi="http://sodipodi.sourceforge.net/DTD/sodipodi-0.dtd"
   xmlns="http://www.w3.org/2000/svg"
   xmlns:svg="http://www.w3.org/2000/svg">
  <sodipodi:namedview
     id="namedview7"
     pagecolor="#ffffff"
     bordercolor="#000000"
     borderopacity="0.25"
     inkscape:showpageshadow="2"
     inkscape:pageopacity="0.0"
     inkscape:pagecheckerboard="0"
     inkscape:deskcolor="#d1d1d1"
     inkscape:document-units="px"
     showgrid="false"
     inkscape:zoom="12.59375"
     inkscape:cx="32"
     inkscape:cy="32"
     inkscape:window-width="1920"
     inkscape:window-height="1008"
     inkscape:window-x="0"
     inkscape:window-y="0"
     inkscape:window-maximized="1"
     inkscape:current-layer="svg5" />
  <defs
     id="defs2" />
  <rect
     style="opacity:0.2;fill:#000000;stroke-width:4;stroke-linecap:square"
     id="rect234"
     width="56"
     height="56"
     x="4"
     y="5"
     ry="12" />
  <rect
     style="fill:#efefef;stroke-width:4;stroke-linecap:square;fill-opacity:1"
     id="rect396"
     width="56"
     height="56"
     x="4"
     y="4"
     ry="12" />
  <g
     id="g2709"
     transform="matrix(2.0000001,0,0,2.0000001,-32.771086,-26.873496)">
    <circle
       style="opacity:0.2;fill:#000000;fill-opacity:1;stroke-linecap:round;stroke-linejoin:round"
       id="path1609"
       cx="36.585541"
       cy="34.136745"
       r="5.8000002" />
    <circle
       style="opacity:0.2;fill:#000000;fill-opacity:1;stroke-linecap:round;stroke-linejoin:round"
       id="path1580"
       cx="28.185543"
       cy="25.736748"
       r="5.8000002" />
    <circle
       style="fill:#1587d7;fill-opacity:1;stroke-linecap:round;stroke-linejoin:round"
       id="path361"
       cx="28.185543"
       cy="25.236748"
       r="5.8000002" />
    <path
       id="path1368"
       style="opacity:0.1;fill:#ffffff;fill-opacity:1;stroke-linecap:round;stroke-linejoin:round"
       d="m 28.18437,19.436747 a 5.8000002,5.7999997 0 0 0 -5.798828,5.800781 5.8000002,5.7999997 0 0 0 0.01758,0.251953 5.8000002,5.8000002 0 0 1 5.78125,-5.552734 5.8000002,5.8000002 0 0 1 5.791016,5.451172 5.8000002,5.7999997 0 0 0 0.0098,-0.150391 5.8000002,5.7999997 0 0 0 -5.800781,-5.800781 z" />
    <circle
       style="fill:#1587d7;fill-opacity:1;stroke-linecap:round;stroke-linejoin:round"
       id="path994"
       cx="36.585541"
       cy="33.636745"
       r="5.8000002" />
    <circle
       style="opacity:0.2;fill:#000000;fill-opacity:1;stroke-linecap:round;stroke-linejoin:round"
       id="path2163"
       cx="32.385544"
       cy="29.936747"
       r="9" />
    <circle
       style="fill:#28a8ea;fill-opacity:1;stroke-linecap:round;stroke-linejoin:round"
       id="path1638"
       cx="32.385544"
       cy="29.436747"
       r="9" />
    <path
       d="M 30.042461,29.766562 C 29.689294,29.537985 29.39465,29.232341 29.181513,28.87347 28.97559,28.494535 28.873932,28.069347 28.886595,27.639968 c -0.01568,-0.544948 0.173575,-1.076465 0.531596,-1.492981 0.371987,-0.418271 0.850129,-0.73225 1.385761,-0.909981 0.582687,-0.20215 1.196606,-0.303632 1.814543,-0.299946 0.404383,-0.0038 0.808345,0.02668 1.207412,0.09099 0.28546,0.04336 0.565826,0.114482 0.836963,0.212331 0.249075,0.08288 0.473922,0.223971 0.655191,0.411143 0.133606,0.153951 0.205547,0.350449 0.202365,0.552737 0.0097,0.212216 -0.06678,0.419531 -0.212674,0.576316 -0.138377,0.144699 -0.333091,0.224416 -0.535108,0.219076 -0.137472,-9.94e-4 -0.273136,-0.03089 -0.397872,-0.08767 -0.307113,-0.135039 -0.623481,-0.248769 -0.946778,-0.340355 -0.297681,-0.07705 -0.604549,-0.114447 -0.912369,-0.111202 -0.400892,-0.01461 -0.797545,0.08486 -1.142269,0.286441 -0.296571,0.176953 -0.471431,0.498614 -0.456189,0.839177 -0.0022,0.219337 0.08273,0.430874 0.236649,0.589767 0.18303,0.186446 0.399284,0.338366 0.638049,0.448235 0.267571,0.130385 0.666599,0.303394 1.197086,0.519025 0.05881,0.01825 0.116143,0.04079 0.171536,0.06742 0.51767,0.201134 1.013984,0.451728 1.481796,0.748174 0.369555,0.236738 0.681159,0.550945 0.912431,0.920051 0.227606,0.387759 0.341574,0.829827 0.329291,1.27728 0.01913,0.548079 -0.140753,1.087791 -0.456248,1.540194 -0.321235,0.428275 -0.765631,0.752249 -1.275943,0.930188 -0.614911,0.215738 -1.264669,0.319666 -1.91748,0.306698 -0.897116,0.03101 -1.789991,-0.13478 -2.613707,-0.485317 -0.210791,-0.09212 -0.395613,-0.233222 -0.538533,-0.411147 -0.118465,-0.162952 -0.179864,-0.359293 -0.174958,-0.559483 -0.01196,-0.213745 0.07202,-0.421903 0.229775,-0.569563 0.163626,-0.140793 0.376084,-0.214394 0.593408,-0.205574 0.241877,0.0033 0.479444,0.06337 0.692868,0.175238 0.265184,0.130393 0.474434,0.228146 0.627751,0.29326 0.175133,0.07207 0.35653,0.12846 0.541984,0.168485 0.228612,0.04934 0.462178,0.07307 0.696229,0.07074 0.41382,0.02893 0.825593,-0.07902 1.169736,-0.306643 0.261418,-0.200956 0.408253,-0.51336 0.39443,-0.839184 5.08e-4,-0.227957 -0.08785,-0.447451 -0.246928,-0.613401 -0.210218,-0.212769 -0.456205,-0.388331 -0.727151,-0.51897 -0.320204,-0.166238 -0.770716,-0.368453 -1.351537,-0.606646 -0.519622,-0.203396 -1.017191,-0.457435 -1.485251,-0.75831"
       style="opacity:0.2;fill:#000000;fill-rule:evenodd"
       id="path1508" />
    <path
       d="m 30.042461,29.26656 c -0.353167,-0.228577 -0.647811,-0.534221 -0.860948,-0.893092 -0.205923,-0.378935 -0.307581,-0.804123 -0.294918,-1.233502 -0.01568,-0.544948 0.173575,-1.076465 0.531596,-1.49298 0.371987,-0.418271 0.850129,-0.73225 1.385761,-0.909982 0.582687,-0.20215 1.196606,-0.303632 1.814543,-0.299946 0.404383,-0.0038 0.808345,0.02668 1.207412,0.09099 0.28546,0.04335 0.565826,0.114482 0.836963,0.212331 0.249075,0.08288 0.473922,0.223971 0.655191,0.411144 0.133606,0.15395 0.205547,0.350448 0.202365,0.552737 0.0097,0.212215 -0.06678,0.41953 -0.212674,0.576316 -0.138377,0.144698 -0.333091,0.224415 -0.535108,0.219076 -0.137472,-9.95e-4 -0.273136,-0.03089 -0.397872,-0.08767 -0.307113,-0.13504 -0.623481,-0.24877 -0.946778,-0.340355 -0.297681,-0.07705 -0.604549,-0.114448 -0.912369,-0.111202 -0.400892,-0.01461 -0.797545,0.08486 -1.142269,0.28644 -0.296571,0.176953 -0.471431,0.498615 -0.45619,0.839177 -0.0022,0.219337 0.08273,0.430874 0.236649,0.589766 0.183031,0.186447 0.399285,0.338367 0.63805,0.448236 0.267571,0.130386 0.666599,0.303394 1.197086,0.519025 0.05881,0.01825 0.116143,0.04079 0.171536,0.06742 0.51767,0.201134 1.013984,0.451728 1.481796,0.748174 0.369555,0.236738 0.681159,0.550945 0.912431,0.920051 0.227606,0.387759 0.341574,0.829827 0.329291,1.27728 0.01913,0.548079 -0.140753,1.087791 -0.456248,1.540194 -0.321235,0.428275 -0.765631,0.752249 -1.275943,0.930188 -0.614911,0.215738 -1.264669,0.319666 -1.91748,0.306698 -0.897116,0.03101 -1.789991,-0.13478 -2.613707,-0.485317 -0.210791,-0.09212 -0.395614,-0.233222 -0.538533,-0.411147 -0.118465,-0.162952 -0.179864,-0.359293 -0.174958,-0.559483 -0.01196,-0.213745 0.07202,-0.421903 0.229775,-0.569563 0.163626,-0.140793 0.376084,-0.214394 0.593408,-0.205574 0.241876,0.0033 0.479444,0.06337 0.692867,0.175238 0.265184,0.130393 0.474435,0.228146 0.627751,0.29326 0.175134,0.07207 0.356531,0.12846 0.541985,0.168485 0.228612,0.04934 0.462178,0.07307 0.696229,0.07074 0.41382,0.02893 0.825593,-0.07902 1.169736,-0.306643 0.261418,-0.200956 0.408253,-0.51336 0.39443,-0.839184 5.08e-4,-0.227957 -0.08785,-0.447451 -0.246928,-0.613401 -0.210218,-0.212769 -0.456205,-0.388331 -0.727151,-0.51897 C 32.559034,30.465278 32.108522,30.263063 31.527701,30.02487 31.008079,29.821474 30.51051,29.567435 30.04245,29.26656"
       style="fill:#ffffff;fill-rule:evenodd"
       id="path1480" />
    <path
       id="path2133"
       style="opacity:0.2;fill:#ffffff;fill-opacity:1;stroke-linecap:round;stroke-linejoin:round"
       d="m 32.385542,20.436747 a 9,9 0 0 0 -9,9 9,9 0 0 0 0.01758,0.251953 9,9 0 0 1 8.982422,-8.751953 9,9 0 0 1 8.990234,8.636719 9,9 0 0 0 0.0098,-0.136719 9,9 0 0 0 -9,-9 z" />
  </g>
  <path
     d="M 16,4.0000002 C 9.3520066,4.0000002 4,9.352007 4,16 v 1 C 4,10.352007 9.3520066,5 16,5 h 32 c 6.647993,0 12,5.352007 12,12 V 16 C 60,9.352007 54.647993,4.0000002 48,4.0000002 Z"
     style="opacity:0.2;fill:#ffffff;stroke-width:4;stroke-linecap:square"
     id="path1040" />
</svg>
