<?xml version="1.0" encoding="UTF-8" standalone="no"?>
<!-- Created with Inkscape (http://www.inkscape.org/) -->

<svg
   width="64"
   height="64"
   viewBox="0 0 64 64"
   version="1.1"
   id="svg5"
   inkscape:version="1.3 (0e150ed6c4, 2023-07-21)"
   sodipodi:docname="stardew-valley.svg"
   xmlns:inkscape="http://www.inkscape.org/namespaces/inkscape"
   xmlns:sodipodi="http://sodipodi.sourceforge.net/DTD/sodipodi-0.dtd"
   xmlns="http://www.w3.org/2000/svg"
   xmlns:svg="http://www.w3.org/2000/svg">
  <sodipodi:namedview
     id="namedview7"
     pagecolor="#ffffff"
     bordercolor="#000000"
     borderopacity="0.25"
     inkscape:showpageshadow="2"
     inkscape:pageopacity="0.0"
     inkscape:pagecheckerboard="0"
     inkscape:deskcolor="#d1d1d1"
     inkscape:document-units="px"
     showgrid="false"
     inkscape:zoom="12.5625"
     inkscape:cx="31.960199"
     inkscape:cy="31.920398"
     inkscape:window-width="1920"
     inkscape:window-height="1008"
     inkscape:window-x="0"
     inkscape:window-y="0"
     inkscape:window-maximized="1"
     inkscape:current-layer="svg5" />
  <defs
     id="defs2" />
  <rect
     style="opacity:0.2;fill:#000000;stroke-width:4;stroke-linecap:square"
     id="rect234"
     width="56"
     height="56"
     x="4"
     y="5"
     ry="12" />
  <rect
     style="fill:#4cb8eb;fill-opacity:1;stroke-width:4;stroke-linecap:square"
     id="rect396"
     width="56"
     height="56"
     x="4"
     y="4"
     ry="12" />
  <path
     style="opacity:0.2;stroke-width:2;fill:#000000"
     d="m 21.999154,13.00008 c -1.103578,0 -2,0.896421 -2,2 0,0.122086 0.0493,0.227666 0.07032,0.34375 -0.597522,-0.384497 -1.370288,-0.465326 -2.035156,-0.09766 -0.965874,0.529672 -1.31928,1.74897 -0.785156,2.714844 0.534122,0.970324 1.744518,1.323186 2.714844,0.789062 0.767966,-0.421144 0.812052,-0.274928 0.668066,-1.094062 0.310872,0.19912 0.65855,0.34375 1.054686,0.34375 0.0208,0 0.03796,-0.011 0.0586,-0.0118 -0.235828,1.120688 0.632574,1.2918 1.718654,1.78547 1.256952,0.571342 2.74133,0.0186 3.308592,-1.238282 0.571344,-1.252872 0.0186,-2.737251 -1.23828,-3.308594 -0.508926,-0.23133 -1.047474,-0.238704 -1.554688,-0.128906 0.0017,-0.03422 0.0196,-0.063 0.0196,-0.09766 0,-1.103578 -0.896422,-2 -2,-2 z"
     id="path1" />
  <path
     style="opacity:0.2;stroke-width:2;fill:#000000"
     d="m 16.101982,21.68012 c 1.16e-4,0.02906 -0.002,0.05922 -0.002,0.08788 -2e-6,0.49796 -2.104106,1.400112 -2.100026,3.89807 1.167347,-0.665306 2.93245,-0.666016 3.099796,-0.666016 0.0207,0.02902 0.04532,0.0534 0.0664,0.08202 C 16.493634,24.224232 16.12007,22.77005 16.101976,21.68012 Z"
     id="path2" />
  <path
     style="opacity:0.2;stroke-width:2;fill:#000000"
     d="m 30.947394,46.336018 c -0.0082,0.0062 0.01,0.06068 0.0646,0.125 -0.02914,-0.07112 -0.05836,-0.12974 -0.0646,-0.125 z m 0.0646,0.125 c 0.0078,0.019 0.0088,0.0072 0.0176,0.0332 0.5909,1.613898 -0.332402,2.784588 -0.571682,3.054686 -1.93,0.202048 -3.761386,0.972026 -3.906896,1.117188 -0.666884,0.50204 -0.666524,1.333898 -0.326934,1.835938 0.335504,0.330616 0.835282,0.49805 1.170778,0.49805 0.335498,0 0.666902,-0.16664 1.0024,-0.333984 0.331404,-0.16734 1.800916,-1.666016 2.971064,-1.666016 1.170148,0 1.936002,1.331322 2.2715,1.666016 0.666902,0.497958 1.505644,0.32999 2.004798,-0.16796 0.499154,-0.497958 0.498532,-1.32999 -0.16838,-1.83203 -0.06546,-0.0653 -0.46848,-0.264576 -1.004356,-0.47461 -0.0019,-0.0102 1.8e-4,-0.0168 -0.002,-0.02734 0,0 -1.10073,-0.498668 -1.10073,-2.666016 0,-0.334692 -0.670906,-0.999378 -1.505556,-0.83203 -0.496442,0.08288 -0.74555,-0.08002 -0.851652,-0.205078 z"
     id="path3" />
  <path
     style="fill:#ff9d20;stroke-width:2"
     d="m 16.101982,20.68012 c 1.16e-4,0.02906 -0.002,0.05922 -0.002,0.08788 -2e-6,0.49796 -2.104106,1.400112 -2.100026,3.89807 1.167347,-0.665306 2.93245,-0.666016 3.099796,-0.666016 0.0207,0.02902 0.04532,0.0534 0.0664,0.08202 C 16.493634,23.224232 16.12007,21.77005 16.101976,20.68012 Z"
     id="path4" />
  <path
     style="fill:#ff9d20;stroke-width:2"
     d="m 30.947394,45.336018 c -0.0082,0.0062 0.01,0.06068 0.0646,0.125 -0.02914,-0.07112 -0.05836,-0.12974 -0.0646,-0.125 z m 0.0646,0.125 c 0.0078,0.019 0.0088,0.0072 0.0176,0.0332 0.5909,1.613898 -0.332402,2.784588 -0.571682,3.054686 -1.93,0.202048 -3.761386,0.972026 -3.906896,1.117188 -0.666884,0.50204 -0.666524,1.333898 -0.326934,1.835938 0.335504,0.330616 0.835282,0.49805 1.170778,0.49805 0.335498,0 0.666902,-0.16664 1.0024,-0.333984 0.331404,-0.16734 1.800916,-1.666016 2.971064,-1.666016 1.170148,0 1.936002,1.331322 2.2715,1.666016 0.666902,0.497958 1.505644,0.32999 2.004798,-0.16796 0.499154,-0.497958 0.498532,-1.32999 -0.16838,-1.83203 -0.06546,-0.0653 -0.46848,-0.264576 -1.004356,-0.47461 -0.0019,-0.0102 1.8e-4,-0.0168 -0.002,-0.02734 0,0 -1.10073,-0.498668 -1.10073,-2.666016 0,-0.334692 -0.670906,-0.999378 -1.505556,-0.83203 -0.496442,0.08288 -0.74555,-0.08002 -0.851652,-0.205078 z"
     id="path5" />
  <path
     style="fill:#e53d3d;stroke-width:2"
     d="m 21.999154,12.00008 c -1.103578,0 -2,0.896421 -2,2 0,0.122086 0.0493,0.227666 0.07032,0.34375 -0.597522,-0.384497 -1.370288,-0.465326 -2.035156,-0.09766 -0.965874,0.529672 -1.31928,1.74897 -0.785156,2.714844 0.534122,0.970324 1.744518,1.323186 2.714844,0.789062 0.767966,-0.421144 0.812052,-0.274928 0.668066,-1.094062 0.310872,0.19912 0.65855,0.34375 1.054686,0.34375 0.0208,0 0.03796,-0.011 0.0586,-0.0118 -0.235828,1.120688 0.632574,1.2918 1.718654,1.78547 1.256952,0.571342 2.74133,0.0186 3.308592,-1.238282 0.571344,-1.252872 0.0186,-2.737251 -1.23828,-3.308594 -0.508934,-0.23133 -1.047482,-0.238704 -1.554696,-0.128906 0.0017,-0.03422 0.0196,-0.063 0.0196,-0.09766 0,-1.103578 -0.896422,-2 -2,-2 z"
     id="path6" />
  <path
     style="opacity:0.2;stroke-width:2;fill:#000000"
     d="m 21.000006,16.999088 c -2.651364,0.0032 -4.839262,2.075372 -4.986328,4.722656 -0.0142,0.11948 -0.0122,0.239184 -0.0118,0.357422 3.2e-5,0.002 -3.4e-5,0.0038 0,0.006 0.0194,1.087848 0.393092,2.13977 1.064452,2.996094 C 17.893688,26.203826 20,27.036336 20,28.501042 c 0,2.832652 -2,4.83203 -2,8.83203 0,8.334694 9.801496,11.667008 14.466802,11.667008 2.339976,0 4.207634,-0.455554 5.39453,-0.916016 4.950592,-2.139848 6.89612,-7.323094 12.138672,-10.083984 -0.50204,-0.665306 -0.665306,-1.666236 -2,-2.00093 0.669388,-0.832652 0.832654,-0.832652 2,-1 -0.832652,-1 -1.531872,-1.99414 -2.699218,-1.99414 2,-0.502042 4.699214,-5.503882 4.699214,-8.005922 -0.665306,1.665306 -6.369844,6 -16.035152,6 -6.743558,-0.580246 -8.426214,-6.955588 -10.69531,-11.59375 -0.891762,-1.470194 -2.498984,-2.40434 -4.269532,-2.40625 z"
     id="path7" />
  <path
     style="fill:#d8bfa2;stroke-width:2"
     d="m 21.000006,15.999088 c -2.651364,0.0032 -4.839262,2.075372 -4.986328,4.722656 -0.0142,0.11948 -0.0122,0.239184 -0.0118,0.357422 3.2e-5,0.002 -3.4e-5,0.0038 0,0.006 0.0194,1.087848 0.393092,2.13977 1.064452,2.996094 C 17.893688,25.203826 20,26.036336 20,27.501042 c 0,2.832652 -2,4.83203 -2,8.83203 0,8.334694 9.801496,11.667008 14.466802,11.667008 2.339976,0 4.207634,-0.455554 5.39453,-0.916016 4.950592,-2.139848 6.89612,-7.323094 12.138672,-10.083984 -0.50204,-0.665306 -0.665306,-1.666236 -2,-2.00093 0.669388,-0.832652 0.832654,-0.832652 2,-1 -0.832652,-1 -1.531872,-1.99414 -2.699218,-1.99414 2,-0.502042 4.699214,-5.503882 4.699214,-8.005922 -0.665306,1.665306 -6.369844,6 -16.035152,6 -6.743558,-0.580246 -8.426214,-6.955588 -10.69531,-11.59375 -0.891762,-1.470194 -2.498984,-2.40434 -4.269532,-2.40625 z"
     id="path8" />
  <path
     style="opacity:0.2;stroke-width:2"
     d="m 21,24.00008 c 0.995918,0 2,-1.004082 2,-2 0,-0.995918 -0.995918,-2 -2,-2 -1.004082,0 -2,1.004082 -2,2 0,0.995918 0.995918,2 2,2 z"
     id="path9" />
  <path
     style="fill:#ffffff;stroke-width:2"
     d="m 21,23.00008 c 0.995918,0 2,-1.004082 2,-2 0,-0.995918 -0.995918,-2 -2,-2 -1.004082,0 -2,1.004082 -2,2 0,0.995918 0.995918,2 2,2 z"
     id="path10" />
  <circle
     style="fill:#3f3f3f;fill-opacity:1;stroke-width:2"
     id="path13"
     cx="21"
     cy="21.00008"
     r="1" />
  <path
     style="opacity:0.1;fill:#ffffff;stroke-width:2"
     d="m 22,12.00008 c -1.103578,0 -2,0.896421 -2,2 0,0.122086 0.0493,0.227666 0.07032,0.34375 -0.597528,-0.384497 -1.370294,-0.465326 -2.035164,-0.09766 -0.796512,0.436796 -1.143894,1.337702 -0.953124,2.183594 0.14414,-0.486997 0.474022,-0.920861 0.953124,-1.183594 0.66487,-0.367669 1.437636,-0.286841 2.035156,0.09766 C 20.049304,15.227746 20,15.122166 20,15.00008 c 0,-1.103579 0.896422,-2 2,-2 1.10358,0 2,0.896421 2,2 0,0.03465 -0.0178,0.06343 -0.0196,0.09766 0.507214,-0.109798 1.045762,-0.102424 1.554688,0.128906 0.786856,0.357663 1.250912,1.08251 1.382812,1.875 0.284864,-1.144037 -0.26863,-2.368582 -1.382744,-2.875 -0.508926,-0.23133 -1.047474,-0.238704 -1.554688,-0.128906 0.0017,-0.03422 0.01953,-0.063 0.01953,-0.09766 0,-1.103579 -0.89642,-2 -2,-2 z"
     id="path11" />
  <path
     style="opacity:0.2;fill:#ffffff;stroke-width:2"
     d="m 21,16.00008 c -2.651364,0.0032 -4.837308,2.075372 -4.984374,4.722656 -0.0142,0.11948 -0.0122,0.237232 -0.0118,0.35547 3.2e-5,0.002 -3.6e-5,0.0058 0,0.0078 0.0026,0.14658 0.02764,0.288716 0.04296,0.433592 C 16.29365,18.97253 18.41845,17.003156 21,17.00008 c 1.770548,0.0019 3.37777,0.936056 4.269532,2.40625 2.269096,4.638162 3.951754,11.013504 10.695312,11.59375 9.189188,0 14.74169,-3.893788 15.84375,-5.710938 C 51.920216,24.820848 52,24.378306 52,24.00008 c -0.665306,1.665306 -6.369848,6 -16.035156,6 C 29.221286,29.419834 27.538628,23.044492 25.269532,18.40633 24.37777,16.936136 22.770548,16.00199 21,16.00008 Z M 19.941406,28.183674 C 19.662572,30.672748 18,32.663616 18,36.332112 c 0,0.15826 0.02428,0.30237 0.03126,0.45703 C 18.205652,33.158654 20,31.196424 20,28.50008 c 0,-0.1116 -0.03564,-0.211742 -0.0586,-0.316406 z m 28.429688,4.171874 c -0.365282,0.313168 -0.728878,0.562732 -1.070312,0.648438 0.823526,0 1.411692,0.505884 1.980468,1.148438 C 49.492496,34.104694 49.646622,34.05074 50,34.00008 49.458886,33.350212 48.964604,32.729226 48.371094,32.355548 Z m 0.34375,2.964844 C 48.490606,35.44977 48.291482,35.637506 48,36.00008 c 0.906074,0.227212 1.259758,0.749496 1.558594,1.277344 0.15306,-0.088 0.282468,-0.19364 0.441406,-0.277344 -0.390482,-0.517468 -0.593968,-1.227548 -1.285156,-1.679688 z"
     id="path12" />
  <path
     id="path1040"
     style="opacity:0.2;fill:#ffffff;stroke-width:4;stroke-linecap:square"
     d="M 16,4 C 9.3520132,4 4,9.3520136 4,16 v 1 C 4,10.352014 9.3520132,5 16,5 h 32 c 6.647986,0 12,5.352014 12,12 V 16 C 60,9.3520136 54.647986,4 48,4 Z" />
</svg>
