<?xml version="1.0" encoding="UTF-8" standalone="no"?>
<!-- Created with Inkscape (http://www.inkscape.org/) -->

<svg
   width="64"
   height="64"
   viewBox="0 0 64 64"
   version="1.1"
   id="svg5"
   inkscape:version="1.2.2 (1:1.2.2+202305151914+b0a8486541)"
   sodipodi:docname="steam.svg"
   xmlns:inkscape="http://www.inkscape.org/namespaces/inkscape"
   xmlns:sodipodi="http://sodipodi.sourceforge.net/DTD/sodipodi-0.dtd"
   xmlns="http://www.w3.org/2000/svg"
   xmlns:svg="http://www.w3.org/2000/svg">
  <sodipodi:namedview
     id="namedview7"
     pagecolor="#ffffff"
     bordercolor="#000000"
     borderopacity="0.25"
     inkscape:showpageshadow="2"
     inkscape:pageopacity="0.0"
     inkscape:pagecheckerboard="0"
     inkscape:deskcolor="#d1d1d1"
     inkscape:document-units="px"
     showgrid="false"
     inkscape:zoom="12.59375"
     inkscape:cx="31.960298"
     inkscape:cy="32"
     inkscape:window-width="1920"
     inkscape:window-height="1008"
     inkscape:window-x="0"
     inkscape:window-y="0"
     inkscape:window-maximized="1"
     inkscape:current-layer="svg5" />
  <defs
     id="defs2" />
  <rect
     style="opacity:0.2;fill:#000000;stroke-width:4;stroke-linecap:square"
     id="rect234"
     width="56"
     height="56"
     x="4"
     y="5"
     ry="12" />
  <rect
     style="fill:#1955aa;fill-opacity:1;stroke-width:4;stroke-linecap:square"
     id="rect396"
     width="56"
     height="56"
     x="4"
     y="4"
     ry="12" />
  <path
     d="m 40,16 c -6.075132,0 -11,4.924867 -11,10.999999 0.003,0.08207 0.0069,0.164109 0.01172,0.246094 l -5.257813,8.763673 c -0.08458,-0.0045 -0.169228,-0.0078 -0.253907,-0.0098 -2.090212,0.0032 -4.105978,0.776364 -5.662109,2.171875 L 4,31.999965 v 8.000001 l 11.003906,4.572266 c 0.03966,4.664652 3.831274,8.425758 8.496094,8.427734 4.69442,0 8.5,-3.80558 8.5,-8.5 -0.0028,-0.217143 -0.01383,-0.434098 -0.0332,-0.650391 l 9.40625,-5.945312 C 46.870261,37.212681 50.995128,32.540508 51,26.999965 51,20.924833 46.075132,15.999966 40,15.999966 Z m 0,3.999999 c 3.865993,0 7,3.134007 7,7 C 47,30.865992 43.865993,34 40,34 c -3.865993,0 -7,-3.134008 -7,-7.000001 0,-3.865993 3.134007,-7 7,-7 z m 0,2 c -2.761424,0 -5,2.238576 -5,5 0,2.761424 2.238576,5 5,5 2.761424,0 5,-2.238576 5,-5 0,-2.761424 -2.238576,-5 -5,-5 z M 23.5,39 c 3.037566,0 5.5,2.462434 5.5,5.5 0,3.037565 -2.462434,5.5 -5.5,5.5 -2.464252,-0.0011 -4.627026,-1.641109 -5.292969,-4.013672 l 3.878907,1.714844 c 4.318254,2.016657 7.227059,-4.568335 2.828124,-6.402344 L 21.035156,39.583984 C 21.800142,39.200195 22.644139,39.000231 23.5,39 Z"
     style="opacity:0.2;fill:#000000"
     id="path440" />
  <path
     d="m 40,15 c -6.075132,0 -11,4.924867 -11,10.999999 0.005,0.07949 0.01086,0.15892 0.01758,0.238281 l -5.261719,8.767579 c -0.08525,-0.0032 -0.17055,-0.0052 -0.255861,-0.0059 -2.0837,0.0027 -4.093803,0.770787 -5.648438,2.158203 L 4,30.999999 V 39 l 11.013672,4.689453 C 15.116554,48.304414 18.883897,51.993721 23.5,52 28.19442,52 32,48.19442 32,43.5 31.999293,43.28163 31.9902,43.06337 31.97266,42.845703 L 41.375,36.902344 C 46.870701,36.209954 50.994269,31.539142 51,25.999999 51,19.924867 46.075132,15 40,15 Z m 0,3.999999 c 3.865993,0 7,3.134007 7,7 0,3.865993 -3.134007,7 -7,7 -3.865993,0 -7,-3.134007 -7,-7 0,-3.865993 3.134007,-7 7,-7 z m 0,2 c -2.761424,0 -5,2.238576 -5,5 0,2.761424 2.238576,5 5,5 2.761424,0 5,-2.238576 5,-5 0,-2.761424 -2.238576,-5 -5,-5 z M 23.5,38 c 3.037566,0 5.5,2.462434 5.5,5.5 0,3.037565 -2.462434,5.5 -5.5,5.5 -2.426747,-0.0089 -4.560825,-1.607326 -5.251953,-3.933594 l 3.837891,1.634766 c 4.318249,2.016655 7.227055,-4.568337 2.828124,-6.402344 L 21.068359,38.587891 C 21.822986,38.20774 22.655055,38.006574 23.5,38 Z"
     style="fill:#ffffff"
     id="path412" />
  <path
     id="path1040"
     style="opacity:0.1;fill:#ffffff;stroke-width:4;stroke-linecap:square"
     d="M 16 4 C 9.3520132 4 4 9.3520136 4 16 L 4 17 C 4 10.352007 9.3520066 5 16 5 L 48 5 C 54.647993 5 60 10.352007 60 17 L 60 16 C 60 9.3520136 54.647985 4 48 4 L 16 4 z " />
</svg>
