<?xml version="1.0" encoding="UTF-8" standalone="no"?>
<!-- Created with Inkscape (http://www.inkscape.org/) -->

<svg
   width="64"
   height="64"
   viewBox="0 0 64 64"
   version="1.1"
   id="svg5"
   inkscape:version="1.3.2 (091e20ef0f, 2023-11-25, custom)"
   sodipodi:docname="supertuxkart.svg"
   xmlns:inkscape="http://www.inkscape.org/namespaces/inkscape"
   xmlns:sodipodi="http://sodipodi.sourceforge.net/DTD/sodipodi-0.dtd"
   xmlns="http://www.w3.org/2000/svg"
   xmlns:svg="http://www.w3.org/2000/svg">
  <sodipodi:namedview
     id="namedview7"
     pagecolor="#ffffff"
     bordercolor="#000000"
     borderopacity="0.25"
     inkscape:showpageshadow="2"
     inkscape:pageopacity="0.0"
     inkscape:pagecheckerboard="0"
     inkscape:deskcolor="#d1d1d1"
     inkscape:document-units="px"
     showgrid="false"
     inkscape:zoom="12.421875"
     inkscape:cx="31.959748"
     inkscape:cy="32"
     inkscape:window-width="1920"
     inkscape:window-height="1008"
     inkscape:window-x="0"
     inkscape:window-y="0"
     inkscape:window-maximized="1"
     inkscape:current-layer="svg5" />
  <defs
     id="defs2" />
  <rect
     style="opacity:0.2;fill:#000000;stroke-width:4;stroke-linecap:square"
     id="rect234"
     width="56"
     height="56"
     x="4"
     y="5"
     ry="12" />
  <rect
     style="fill:#efefef;stroke-width:4;stroke-linecap:square;fill-opacity:1"
     id="rect396"
     width="56"
     height="56"
     x="4"
     y="4"
     ry="12" />
  <path
     fill="#303030"
     d="m 14.0293,40.0005 c -1.1242,0 -2.0293,0.892 -2.0293,2 v 8 c 0,1.1077 0.90509,2 2.0293,2 h 1.9414 c 1.1242,0 2.0293,-0.892 2.0293,-2 v -8 c 0,-1.108 -0.9051,-2 -2.0293,-2 z m 34,0 c -1.124,0 -2.029,0.892 -2.029,2 v 8 c 0,1.1077 0.90509,2 2.0293,2 h 1.9414 c 1.125,0 2.03,-0.892 2.03,-2 v -8 c 0,-1.1077 -0.90509,-2 -2.0293,-2 h -1.9414 z"
     id="path1" />
  <path
     opacity="0.2"
     d="m 12,50.0005 v 1 c 0,1.1077 0.90509,2 2.0293,2 h 1.9414 c 1.1242,0 2.0293,-0.892 2.0293,-2 v -1 c 0,1.1077 -0.90509,2 -2.0293,2 h -1.9414 c -1.1242,0 -2.0293,-0.892 -2.0293,-2 z m 34,0 v 1 c 0,1.1077 0.90509,2 2.0293,2 h 1.9414 c 1.125,0 2.03,-0.892 2.03,-2 v -1 c 0,1.1077 -0.90509,2 -2.0293,2 h -1.941 c -1.125,0 -2.03,-0.892 -2.03,-2 z"
     id="path2" />
  <g
     fill="#4f4f4f"
     transform="matrix(1.2981,0,0,1.2651,11.4781,12.0005)"
     id="g4">
    <g
       id="g3">
      <path
         transform="matrix(0.77036,0,0,0.79045,-2.6794,-3.1618)"
         d="m 24.002,4 c -7.384,0 -13.371,5.8328 -13.371,13.031 0,1.2664 0.19247,2.487 0.53906,3.6445 0,0 -2.0468,7.2865 -1.3867,10.883 0.19231,1.0477 0.5872,2.0562 1.1094,3.0059 2.034,-2.741 7.26,-4.561 13.107,-4.565 5.8442,0.0017 11.071,1.8183 13.111,4.5566 0.52053,-0.94737 0.91546,-1.9531 1.1074,-2.998 0.66062,-3.5962 -1.3867,-10.883 -1.3867,-10.883 0.34789,-1.1576 0.53906,-2.3782 0.53906,-3.6445 10e-4,-7.1969 -5.982,-13.031 -13.368,-13.031 z"
         id="path3" />
    </g>
  </g>
  <circle
     opacity="0.2"
     cx="25"
     cy="22.0005"
     r="3"
     id="circle4" />
  <circle
     fill="#ffffff"
     cx="25"
     cy="21.0005"
     r="3"
     id="circle5" />
  <circle
     opacity="0.2"
     cx="39"
     cy="22.0005"
     r="3"
     id="circle6" />
  <circle
     fill="#ffffff"
     cx="39"
     cy="21.0005"
     r="3"
     id="circle7" />
  <ellipse
     fill="#ffffff"
     cx="32"
     cy="37.0005"
     rx="10"
     ry="11"
     id="ellipse7" />
  <g
     transform="matrix(1.2981,0,0,1.2651,11.4781,12.0005)"
     id="g8">
    <g
       id="g7">
      <path
         opacity="0.3"
         transform="matrix(0.77036,0,0,0.79045,-2.6794,-3.1618)"
         d="m 10.652,16.609 c -0.0047,0.14138 -0.02149,0.27939 -0.02149,0.42188 0,1.0876 0.14856,2.1393 0.4082,3.1484 0.04005,-0.14956 0.13086,-0.50391 0.13086,-0.50391 -0.29338,-0.97985 -0.46832,-2.0067 -0.51758,-3.0664 z m 26.697,0 c -0.049,1.0597 -0.2231,2.0866 -0.51758,3.0664 0,0 0.0911,0.35354 0.13086,0.50195 0.25989,-1.0086 0.4082,-2.0595 0.4082,-3.1465 0,-0.14246 -0.01683,-0.28052 -0.02148,-0.42188 z M 24,29 C 18.1533,29.0037 12.927,30.8237 10.893,33.5645 10.37082,32.61488 9.97593,31.6064 9.7836,30.5586 9.725102,30.23989 9.693514,29.88466 9.67422,29.5156 c -0.016777,0.74262 7.672e-4,1.4513 0.10938,2.043 0.19231,1.0477 0.5872,2.0562 1.1094,3.0059 2.034,-2.74 7.26,-4.56 13.107,-4.564 5.8442,0.0017 11.071,1.8183 13.111,4.5566 0.52053,-0.94737 0.91546,-1.9531 1.1074,-2.998 0.10869,-0.59169 0.12612,-1.3004 0.10938,-2.043 -0.01932,0.36902 -0.05083,0.72428 -0.10938,1.043 -0.19196,1.045 -0.58689,2.0507 -1.1074,2.998 -2.04,-2.739 -7.267,-4.555 -13.111,-4.557 z"
         id="path7" />
    </g>
  </g>
  <path
     opacity="0.2"
     d="m 29,24.0005 h 6 c -0.481,4.109 -3,8 -3,8 0,0 -3,-4.6183 -3,-8 z"
     id="path8" />
  <g
     fill="#303030"
     transform="translate(6,7.0005)"
     id="g9">
    <circle
       cx="18.5"
       cy="14.5"
       r="1.5"
       id="circle8" />
    <circle
       cx="32.5"
       cy="14.5"
       r="1.5"
       id="circle9" />
  </g>
  <path
     fill="#cd5252"
     d="m 29,23.0005 h 6 c -0.481,4.109 -3,8 -3,8 0,0 -3,-4.6183 -3,-8 z"
     id="path9" />
  <path
     fill="#303030"
     d="m 32,33.0005 a 5,5 0 0 0 -5,5 5,5 0 0 0 5,5 5,5 0 0 0 5,-5 5,5 0 0 0 -5,-5 z m 0,2 a 3,3 0 0 1 1.9492,0.7207 L 32,36.8462 30.0527,35.7232 a 3,3 0 0 1 1.948,-0.723 z m 2.9492,2.4512 a 3,3 0 0 1 0.051,0.549 3,3 0 0 1 -2,2.8262 v -2.25 l 1.9492,-1.125 z m -5.8965,0.002 1.9473,1.123 v 2.248 a 3,3 0 0 1 -2,-2.8242 3,3 0 0 1 0.05273,-0.54688 z"
     id="path10" />
  <path
     fill="#f5432a"
     d="m 32,38.0005 a 14,7 0 0 0 -14,7 14,7 0 0 0 0.59375,2 h -5.594 v 3 h 9.2207 a 14,7 0 0 0 9.779,2 14,7 0 0 0 9.793,-2 h 9.207 v -3 h -5.59 a 14,7 0 0 0 0.59,-2 14,7 0 0 0 -14,-7 z"
     id="path11" />
  <ellipse
     fill="#4f4f4f"
     cx="-16.029177"
     cy="41.683819"
     rx="3.5499916"
     ry="6.2770023"
     transform="matrix(0.70175164,-0.71242167,0.86960968,0.49373982,0,0)"
     id="ellipse11" />
  <ellipse
     fill="#4f4f4f"
     cx="-48.739906"
     cy="-5.5160022"
     rx="3.5499916"
     ry="6.2770023"
     transform="matrix(-0.70175164,-0.71242167,-0.86960968,0.49373982,0,0)"
     id="ellipse12" />
  <circle
     opacity="0.2"
     cx="24"
     cy="45.0005"
     id="ellipse13"
     r="2" />
  <circle
     fill="#ffffff"
     cx="24"
     cy="44.0005"
     id="ellipse14"
     r="2" />
  <circle
     opacity="0.2"
     cx="40"
     cy="45.0005"
     id="ellipse15"
     r="2" />
  <circle
     fill="#ffffff"
     cx="40"
     cy="44.0005"
     id="ellipse16"
     r="2" />
  <path
     opacity="0.5"
     d="m 31.5,41.0005 c -0.277,0 -0.5,0.669 -0.5,1.5 v 3 c 0,0.831 0.223,1.5 0.5,1.5 0.277,0 0.5,-0.669 0.5,-1.5 v -3 c 0,-0.831 -0.223,-1.5 -0.5,-1.5 z m -2,1 c -0.277,0 -0.5,0.446 -0.5,1 v 2 c 0,0.554 0.223,1 0.5,1 0.277,0 0.5,-0.446 0.5,-1 v -2 c 0,-0.554 -0.223,-1 -0.5,-1 z"
     id="path16" />
  <path
     opacity="0.5"
     d="m 33.5,41.0005 c 0.277,0 0.5,0.669 0.5,1.5 v 3 c 0,0.831 -0.223,1.5 -0.5,1.5 -0.277,0 -0.5,-0.669 -0.5,-1.5 v -3 c 0,-0.831 0.223,-1.5 0.5,-1.5 z m 2,1 c 0.277,0 0.5,0.446 0.5,1 v 2 c 0,0.554 -0.223,1 -0.5,1 -0.277,0 -0.5,-0.446 -0.5,-1 v -2 c 0,-0.554 0.223,-1 0.5,-1 z"
     id="path17" />
  <path
     fill="#ffffff"
     opacity="0.1"
     d="m 32.002,12.0005 c -7.384,0 -13.371,5.8328 -13.371,13.031 0,0.19442 0.01255,0.38592 0.02149,0.57812 0.231,-7.001 6.112,-12.609 13.35,-12.609 7.24,0 13.117,5.6093 13.348,12.609 0.0089,-0.1922 0.02148,-0.3837 0.02148,-0.57812 0.001,-7.1969 -5.982,-13.031 -13.368,-13.031 z m 12.961,17.178 c -0.04283,0.16614 -0.08167,0.33438 -0.13086,0.49805 0,0 1.4112,5.069 1.4961,8.8398 0.17579,-3.3578 -1.0608,-8.2015 -1.3652,-9.3379 z m -25.924,0.002 c -0.305,1.14 -1.5407,5.98 -1.3652,9.336 0.0851,-3.771 1.4962,-8.84 1.4962,-8.84 -0.049,-0.163 -0.088,-0.33 -0.131,-0.496 z"
     id="path18" />
  <path
     fill="#ffffff"
     opacity="0.2"
     d="m 32,38.0005 a 14,7 0 0 0 -14,7 14,7 0 0 0 0.049,0.451 14,7 0 0 1 13.951,-6.451 14,7 0 0 1 13.951,6.518 14,7 0 0 0 0.049,-0.518 14,7 0 0 0 -14,-7 z m -19,9 v 1 h 5.5938 a 14,7 0 0 1 -0.428,-1 h -5.166 z m 32.836,0 a 14,7 0 0 1 -0.42578,1 h 5.59 v -1 h -5.1641 z"
     id="path19" />
  <path
     opacity="0.2"
     d="m 18.049,45.4515 a 14,7 0 0 0 -0.049,0.549 14,7 0 0 0 0.16602,1 h 0.42773 a 14,7 0 0 1 -0.54492,-1.5488 z m 27.902,0.066 a 14,7 0 0 1 -0.541,1.483 h 0.42578 a 14,7 0 0 0 0.164,-1 14,7 0 0 0 -0.049,-0.482 z M 13,50.0005 v 1 h 9.2207 a 14,7 0 0 0 9.779,2 14,7 0 0 0 9.793,-2 h 9.207 v -1 h -9.207 a 14,7 0 0 1 -9.793,2 14,7 0 0 1 -9.779,-2 h -9.221 z"
     id="path20" />
  <path
     fill="#ffffff"
     opacity="0.1"
     d="m 14.0293,40.0005 c -1.1242,0 -2.0293,0.892 -2.0293,2 v 1 c 0,-1.1077 0.90509,-2 2.0293,-2 h 1.9414 c 1.1242,0 2.0293,0.892 2.0293,2 v -1 c 0,-1.108 -0.9051,-2 -2.0293,-2 z m 34,0 c -1.124,0 -2.029,0.892 -2.029,2 v 1 c 0,-1.1077 0.90509,-2 2.0293,-2 h 1.9414 c 1.125,0 2.03,0.892 2.03,2 v -1 c 0,-1.1077 -0.90509,-2 -2.0293,-2 h -1.9414 z"
     id="path21" />
  <path
     d="M 16,4.0000002 C 9.3520066,4.0000002 4,9.352007 4,16 v 1 C 4,10.352007 9.3520066,5 16,5 h 32 c 6.647993,0 12,5.352007 12,12 V 16 C 60,9.352007 54.647993,4.0000002 48,4.0000002 Z"
     style="opacity:0.2;fill:#ffffff;stroke-width:4;stroke-linecap:square"
     id="path1040" />
</svg>
