<?xml version="1.0" encoding="UTF-8" standalone="no"?>
<!-- Created with Inkscape (http://www.inkscape.org/) -->

<svg
   width="64"
   height="64"
   viewBox="0 0 64 64"
   version="1.1"
   id="svg5"
   inkscape:version="1.3.2 (091e20ef0f, 2023-11-25, custom)"
   sodipodi:docname="syncthing-gtk.svg"
   xmlns:inkscape="http://www.inkscape.org/namespaces/inkscape"
   xmlns:sodipodi="http://sodipodi.sourceforge.net/DTD/sodipodi-0.dtd"
   xmlns="http://www.w3.org/2000/svg"
   xmlns:svg="http://www.w3.org/2000/svg">
  <sodipodi:namedview
     id="namedview7"
     pagecolor="#ffffff"
     bordercolor="#000000"
     borderopacity="0.25"
     inkscape:showpageshadow="2"
     inkscape:pageopacity="0.0"
     inkscape:pagecheckerboard="0"
     inkscape:deskcolor="#d1d1d1"
     inkscape:document-units="px"
     showgrid="false"
     inkscape:zoom="12.84375"
     inkscape:cx="32"
     inkscape:cy="32"
     inkscape:window-width="1920"
     inkscape:window-height="1008"
     inkscape:window-x="0"
     inkscape:window-y="0"
     inkscape:window-maximized="1"
     inkscape:current-layer="svg5" />
  <defs
     id="defs2" />
  <rect
     style="opacity:0.2;fill:#000000;stroke-width:4;stroke-linecap:square"
     id="rect234"
     width="56"
     height="56"
     x="4"
     y="5"
     ry="12" />
  <rect
     style="fill:#1ca4d4;fill-opacity:1;stroke-width:4;stroke-linecap:square"
     id="rect396"
     width="56"
     height="56"
     x="4"
     y="4"
     ry="12" />
  <path
     d="m 31.99812,13.00076 c -11.04568,0 -20,8.95432 -20,20 0,11.04568 8.95432,20 20,20 11.04568,0 20,-8.95432 20,-20 -0.008,-2.3304 -0.42668,-4.64116 -1.232,-6.828 l 0.0428,-0.032 -0.1056,-0.1484 c -2.919482,-7.8042 -10.3716,-12.98068 -18.704,-12.9924 z m 0,2 c 6.72336,0.0028 12.88472,3.75244 15.9764,9.7228 l -12.48,8.918 -21.2928,1.9336 c -0.1292,-0.85216 -0.1972,-1.71252 -0.2032,-2.5744 0,-9.94112 8.05888,-18 17.999998,-18 z m 17.078,12.3788 c 0.60308,1.81304 0.91364,3.71052 0.92,5.6212 -0.004,4.73956 -1.87944,9.28584 -5.216,12.652 l -6.866,-10.3004 z m -13.7812,9.09 7.347598,11.0196 c -3.084918,2.27444 -6.81528,3.50484 -10.647998,3.512 -7.87976,-0.008 -14.83784,-5.14188 -17.172,-12.668 l 20.468798,-1.8632 z"
     style="opacity:0.2;fill:#000000;stroke-width:4"
     id="path2451" />
  <path
     d="m 31.998518,12.0008 c -11.045678,0 -19.999998,8.95432 -19.999998,20 0,11.04568 8.95432,20 19.999998,20 11.045682,0 20.000002,-8.95432 20.000002,-20 -0.008,-2.3304 -0.42668,-4.64116 -1.232,-6.828 l 0.0428,-0.032 -0.1056,-0.1484 C 47.78424,17.1882 40.33212,12.01172 31.99972,12 Z m 0,2 c 6.72336,0.0028 12.884682,3.75244 15.976402,9.7228 l -12.48,8.918 -21.2928,1.9336 c -0.1292,-0.85216 -0.1972,-1.71252 -0.2032,-2.5744 0,-9.94112 8.05888,-18 18,-18 z M 49.07652,26.3796 c 0.60308,1.81304 0.913638,3.71052 0.92,5.6212 -0.004,4.73956 -1.87944,9.28584 -5.216002,12.652 L 37.91452,34.3524 Z m -13.781202,9.09 7.347602,11.0196 c -3.084922,2.27444 -6.81528,3.50484 -10.648,3.512 -7.87976,-0.008 -14.83784,-5.14188 -17.172,-12.668 L 35.29172,35.47 Z"
     style="fill:#ffffff;stroke-width:4"
     id="path2314"
     sodipodi:nodetypes="csscccccccccccccccccccccccc" />
  <path
     d="m 50,21.00072 c -2.20912,0 -4,1.79088 -4,4 0,2.20912 1.79088,4 4,4 2.20912,0 4,-1.79088 4,-4 0,-2.20912 -1.79088,-4 -4,-4 z m -14,10 c -2.20912,0 -4,1.79088 -4,4 0,2.20912 1.79088,4 4,4 2.20912,0 4,-1.79088 4,-4 0,-2.20912 -1.79088,-4 -4,-4 z m -22,2 c -2.20912,0 -4,1.79088 -4,4 0,2.20912 1.79088,4 4,4 2.20912,0 4,-1.79088 4,-4 0,-2.20912 -1.79088,-4 -4,-4 z m 30,10 c -2.20912,0 -4,1.79084 -4,4 0,2.20912 1.79088,4 4,4 2.209118,0 3.999998,-1.79088 3.999998,-4 0,-2.20916 -1.79088,-4 -3.999998,-4 z"
     id="path2395"
     sodipodi:nodetypes="ssssssssssssssssssss"
     style="opacity:0.2;fill:#000000;stroke-width:4" />
  <path
     d="m 50,20.00072 c -2.20912,0 -4,1.79088 -4,4 0,2.20912 1.79088,4 4,4 2.20912,0 4,-1.79088 4,-4 0,-2.20912 -1.79088,-4 -4,-4 z m -14,10 c -2.20916,0 -4,1.79088 -4,4 0,2.20912 1.79084,4 4,4 2.20912,0 4,-1.79088 4,-4 0,-2.20912 -1.79088,-4 -4,-4 z m -22,2 c -2.20916,0 -4,1.79088 -4,4 0,2.20912 1.79084,4 4,4 2.20912,0 4,-1.79088 4,-4 0,-2.20912 -1.79088,-4 -4,-4 z m 30,10 c -2.20912,0 -4,1.79084 -4,4 0,2.20912 1.79088,4 4,4 2.209118,0 3.999998,-1.79088 3.999998,-4 0,-2.20916 -1.79088,-4 -3.999998,-4 z"
     id="path2423"
     style="fill:#ffffff;stroke-width:4" />
  <path
     id="path1040"
     style="opacity:0.2;fill:#ffffff;stroke-width:4;stroke-linecap:square"
     d="M 16,4 C 9.3520132,4 4,9.3520136 4,16 v 1 C 4,10.352014 9.3520132,5 16,5 H 47.999998 C 54.647986,5 60,10.352014 60,17 V 16 C 60,9.3520136 54.647986,4 47.999998,4 Z" />
</svg>
