<?xml version="1.0" encoding="UTF-8" standalone="no"?>
<!-- Created with Inkscape (http://www.inkscape.org/) -->

<svg
   width="64"
   height="64"
   viewBox="0 0 64 64"
   version="1.1"
   id="svg5"
   inkscape:version="1.3 (0e150ed6c4, 2023-07-21)"
   sodipodi:docname="telegram.svg"
   xmlns:inkscape="http://www.inkscape.org/namespaces/inkscape"
   xmlns:sodipodi="http://sodipodi.sourceforge.net/DTD/sodipodi-0.dtd"
   xmlns="http://www.w3.org/2000/svg"
   xmlns:svg="http://www.w3.org/2000/svg">
  <sodipodi:namedview
     id="namedview7"
     pagecolor="#ffffff"
     bordercolor="#000000"
     borderopacity="0.25"
     inkscape:showpageshadow="2"
     inkscape:pageopacity="0.0"
     inkscape:pagecheckerboard="0"
     inkscape:deskcolor="#d1d1d1"
     inkscape:document-units="px"
     showgrid="false"
     inkscape:zoom="12.234375"
     inkscape:cx="31.959132"
     inkscape:cy="32"
     inkscape:window-width="1920"
     inkscape:window-height="984"
     inkscape:window-x="0"
     inkscape:window-y="29"
     inkscape:window-maximized="1"
     inkscape:current-layer="svg5" />
  <defs
     id="defs2" />
  <rect
     style="opacity:0.2;fill:#000000;stroke-width:4;stroke-linecap:square"
     id="rect234"
     width="56"
     height="56"
     x="4"
     y="5"
     ry="12" />
  <rect
     style="fill:#28a4e2;fill-opacity:1;stroke-width:4;stroke-linecap:square"
     id="rect396"
     width="56"
     height="56"
     x="4"
     y="4"
     ry="12" />
  <path
     d="m 43.86193,45.78191 c 0.538,-1.034 3.636,-18.692 4.078,-23.258 0.48,-4.523 -2.018,-3.6818 -4.316,-2.9176 -5.638,1.8816 -23.4624,9.5076 -28.3414,12.0236 -1.201,0.492 -1.7202,1.328 -0.8462,2.05 0.7524,0.612 3.506,1.454 5.7266,1.882 1.893,0.566 3.363,0.024 4.721,-0.734 3.262,-1.91 12.982,-7.988 13.504,-8.328 0.524,-0.338 1.096,0.29 0.804,0.594 -0.292,0.306 -7.176,6.406 -9.436,9.164 -1.198,1.516 -1.162,2.326 0.068,3.282 2.76,2.138 10.132,7.014 11.23,7.308 1.398,0.376 2.218,0.064 2.808,-1.066 z"
     style="opacity:0.2;fill:#000000;stroke-width:2"
     id="path1951"
     sodipodi:nodetypes="ccccccccccccc" />
  <path
     d="m 43.86193,44.782086 c 0.538,-1.034 3.636,-18.692 4.078,-23.258 0.48,-4.523 -2.018,-3.6818 -4.316,-2.9176 -5.638,1.8816 -23.4624,9.5076 -28.3414,12.0236 -1.201,0.492 -1.7202,1.328 -0.8462,2.05 0.7524,0.612 3.506,1.454 5.7266,1.882 1.893,0.566 3.363,0.024 4.721,-0.734 3.262,-1.91 12.982,-7.988 13.504,-8.328 0.524,-0.338 1.096,0.29 0.804,0.594 -0.292,0.306 -7.176,6.406 -9.436,9.164 -1.198,1.516 -1.162,2.326 0.068,3.282 2.76,2.138 10.132,7.014 11.23,7.308 1.398,0.376 2.218,0.064 2.808,-1.066 z"
     style="fill:#ffffff;stroke-width:2"
     id="path1979" />
  <path
     id="path1040"
     style="opacity:0.2;fill:#ffffff;stroke-width:4;stroke-linecap:square"
     d="M 16,4 C 9.3520132,4 4,9.3520136 4,16 v 1 C 4,10.352014 9.3520132,5 16,5 h 32 c 6.647986,0 12,5.352014 12,12 V 16 C 60,9.3520136 54.647986,4 48,4 Z" />
</svg>
