<?xml version="1.0" encoding="UTF-8" standalone="no"?>
<!-- Created with Inkscape (http://www.inkscape.org/) -->

<svg
   width="64"
   height="64"
   viewBox="0 0 64 64"
   version="1.1"
   id="svg5"
   inkscape:version="1.3.2 (091e20ef0f, 2023-11-25, custom)"
   sodipodi:docname="tilix.svg"
   xmlns:inkscape="http://www.inkscape.org/namespaces/inkscape"
   xmlns:sodipodi="http://sodipodi.sourceforge.net/DTD/sodipodi-0.dtd"
   xmlns="http://www.w3.org/2000/svg"
   xmlns:svg="http://www.w3.org/2000/svg">
  <sodipodi:namedview
     id="namedview7"
     pagecolor="#ffffff"
     bordercolor="#000000"
     borderopacity="0.25"
     inkscape:showpageshadow="2"
     inkscape:pageopacity="0.0"
     inkscape:pagecheckerboard="0"
     inkscape:deskcolor="#d1d1d1"
     inkscape:document-units="px"
     showgrid="false"
     inkscape:zoom="12.5625"
     inkscape:cx="32"
     inkscape:cy="32"
     inkscape:window-width="1920"
     inkscape:window-height="1008"
     inkscape:window-x="0"
     inkscape:window-y="0"
     inkscape:window-maximized="1"
     inkscape:current-layer="svg5" />
  <defs
     id="defs2" />
  <rect
     style="opacity:0.2;fill:#000000;stroke-width:4;stroke-linecap:square"
     id="rect234"
     width="56"
     height="56"
     x="4"
     y="5"
     ry="12" />
  <rect
     style="fill:#4d4d4d;fill-opacity:1;stroke-width:4;stroke-linecap:square"
     id="rect396"
     width="56"
     height="56"
     x="4"
     y="4"
     ry="12" />
  <path
     id="path907"
     style="opacity:0.1;fill:#000000;stroke-width:2"
     d="m 32,4 v 56 h 16 c 6.647994,0 12,-5.352006 12,-12 V 16 C 60,9.3520066 54.647994,4 48,4 Z" />
  <path
     id="path1"
     style="opacity:0.2;fill:#000000;stroke-width:2;stroke-linecap:round;stroke-linejoin:round;-inkscape-stroke:none"
     d="m 11.015625,11.000199 c -0.0658,-6.22e-4 -0.129112,0.0019 -0.195312,0.0078 -0.52822,0.04787 -1.0157896,0.303595 -1.3554692,0.71093 -0.7073594,0.847921 -0.593713,2.108679 0.2539062,2.816406 L 13.875,18.0002 9.71875,21.465044 c -0.8476192,0.707728 -0.9612656,1.968484 -0.2539062,2.816406 0.7077392,0.847616 1.9685072,0.961276 2.8164062,0.253906 l 6,-5 c 0.9573,-0.799574 0.9573,-2.27074 0,-3.070312 l -6,-5.000001 c -0.3561,-0.29753 -0.805545,-0.460492 -1.265625,-0.464844 z m 26.804687,0.0078 c -0.528218,0.04788 -1.015788,0.303602 -1.355468,0.710938 -0.70736,0.847921 -0.593714,2.108679 0.253906,2.816406 L 40.875,18.0002 36.71875,21.465044 c -0.84762,0.707728 -0.961266,1.968484 -0.253906,2.816406 0.70774,0.847616 1.968486,0.961276 2.816406,0.253906 l 6,-5 c 0.9573,-0.799576 0.9573,-2.270738 0,-3.070312 l -6,-5.000001 c -0.4071,-0.340048 -0.932618,-0.504445 -1.460938,-0.457031 z M 21,21.0002 c -1.104558,0 -2,0.895434 -2,2 0,1.104566 0.895442,2 2,2 h 6 c 1.104558,0 2,-0.895434 2,-2 0,-1.104566 -0.895442,-2 -2,-2 z m 27,0 c -1.104558,0 -2,0.895432 -2,2 0,1.104568 0.895442,2 2,2 h 6 c 1.104558,0 2,-0.895432 2,-2 0,-1.104568 -0.895442,-2 -2,-2 z" />
  <path
     id="path2"
     style="fill:#ffffff;stroke-width:2;stroke-linecap:round;stroke-linejoin:round;-inkscape-stroke:none"
     d="m 11.015625,10 c -0.0658,-6.22e-4 -0.129112,0.0019 -0.195312,0.0078 -0.52822,0.04787 -1.0157896,0.303594 -1.3554692,0.71093 -0.7073594,0.847921 -0.593713,2.108679 0.2539062,2.816406 L 13.875,17 9.71875,20.464844 c -0.8476192,0.707728 -0.9612656,1.968484 -0.2539062,2.816406 0.7077392,0.847616 1.9685072,0.961276 2.8164062,0.253906 l 6,-5 c 0.9573,-0.799574 0.9573,-2.27074 0,-3.070312 l -6,-5 C 11.92515,10.167314 11.475705,10.004352 11.015625,10 Z m 26.804687,0.0078 c -0.528218,0.04788 -1.015788,0.303602 -1.355468,0.710938 -0.70736,0.847921 -0.593714,2.108679 0.253906,2.816406 L 40.875,17 36.71875,20.464844 c -0.84762,0.707728 -0.961266,1.968484 -0.253906,2.816406 0.70774,0.847616 1.968486,0.961276 2.816406,0.253906 l 6,-5 c 0.9573,-0.799576 0.9573,-2.270736 0,-3.070312 l -6,-5 C 38.87415,10.124796 38.348632,9.9603986 37.820312,10.007812 Z M 21,20 c -1.104558,0 -2,0.895434 -2,2 0,1.104566 0.895442,2 2,2 h 6 c 1.104558,0 2,-0.895434 2,-2 0,-1.104566 -0.895442,-2 -2,-2 z m 27,0 c -1.104558,0 -2,0.895432 -2,2 0,1.104568 0.895442,2 2,2 h 6 c 1.104558,0 2,-0.895432 2,-2 0,-1.104568 -0.895442,-2 -2,-2 z" />
  <path
     id="path1040"
     style="opacity:0.1;fill:#ffffff;stroke-width:4;stroke-linecap:square"
     d="M 16,4 C 9.3520132,4 4,9.3520136 4,16 v 1 C 4,10.352014 9.3520132,5 16,5 h 32 c 6.647986,0 12,5.352014 12,12 V 16 C 60,9.3520136 54.647986,4 48,4 Z" />
</svg>
