<?xml version="1.0" encoding="UTF-8" standalone="no"?>
<!-- Created with Inkscape (http://www.inkscape.org/) -->

<svg
   width="64"
   height="64"
   viewBox="0 0 64 64"
   version="1.1"
   id="svg5"
   inkscape:version="1.3.2 (091e20ef0f, 2023-11-25, custom)"
   sodipodi:docname="touchpad-indicator.svg"
   xmlns:inkscape="http://www.inkscape.org/namespaces/inkscape"
   xmlns:sodipodi="http://sodipodi.sourceforge.net/DTD/sodipodi-0.dtd"
   xmlns="http://www.w3.org/2000/svg"
   xmlns:svg="http://www.w3.org/2000/svg">
  <sodipodi:namedview
     id="namedview7"
     pagecolor="#ffffff"
     bordercolor="#000000"
     borderopacity="0.25"
     inkscape:showpageshadow="2"
     inkscape:pageopacity="0.0"
     inkscape:pagecheckerboard="0"
     inkscape:deskcolor="#d1d1d1"
     inkscape:document-units="px"
     showgrid="false"
     inkscape:zoom="12.84375"
     inkscape:cx="32"
     inkscape:cy="32"
     inkscape:window-width="1920"
     inkscape:window-height="1008"
     inkscape:window-x="0"
     inkscape:window-y="0"
     inkscape:window-maximized="1"
     inkscape:current-layer="svg5" />
  <defs
     id="defs2" />
  <rect
     style="opacity:0.2;fill:#000000;stroke-width:4;stroke-linecap:square"
     id="rect234"
     width="56"
     height="56"
     x="4"
     y="5"
     ry="12" />
  <rect
     style="fill:#4f4f4f;fill-opacity:1;stroke-width:4;stroke-linecap:square"
     id="rect396"
     width="56"
     height="56"
     x="4"
     y="4"
     ry="12" />
  <path
     id="rect3"
     style="opacity:0.4;fill:#000000;stroke-width:2"
     d="M 10.5,44 C 9.1150014,44 8,45.115002 8,46.5 V 48 c 0,4.431996 3.568004,8 8,8 h 11.5 c 1.384998,0 2.5,-1.115002 2.5,-2.5 v -7 C 30,45.115002 28.884998,44 27.5,44 Z" />
  <path
     id="rect4"
     style="opacity:0.4;fill:#000000;stroke-width:2"
     d="M 36.5,44 C 35.115002,44 34,45.115002 34,46.5 v 7 c 0,1.384998 1.115002,2.5 2.5,2.5 H 48 c 4.431996,0 8,-3.568004 8,-8 V 46.5 C 56,45.115002 54.884998,44 53.5,44 Z" />
  <rect
     width="8"
     height="2"
     x="48"
     y="14"
     id="rect5"
     style="opacity:0.4;fill:#000000;stroke-width:2" />
  <rect
     width="8"
     height="2"
     x="48"
     y="18"
     id="rect6"
     style="opacity:0.4;fill:#000000;stroke-width:2" />
  <rect
     width="8"
     height="2"
     x="48"
     y="22"
     id="rect7"
     style="opacity:0.4;fill:#000000;stroke-width:2" />
  <rect
     width="8"
     height="2"
     x="48"
     y="26"
     id="rect8"
     style="opacity:0.4;fill:#000000;stroke-width:2" />
  <rect
     width="8"
     height="2"
     x="48"
     y="30"
     id="rect9"
     style="opacity:0.4;fill:#000000;stroke-width:2" />
  <rect
     width="8"
     height="2"
     x="48"
     y="34"
     id="rect10"
     style="opacity:0.4;fill:#000000;stroke-width:2" />
  <path
     id="path1040"
     style="opacity:0.1;fill:#ffffff;stroke-width:4;stroke-linecap:square"
     d="M 16,4 C 9.3520132,4 4,9.3520136 4,16 v 1 C 4,10.352014 9.3520132,5 16,5 h 32 c 6.647986,0 12,5.352014 12,12 V 16 C 60,9.3520136 54.647986,4 48,4 Z" />
</svg>
