<?xml version="1.0" encoding="UTF-8" standalone="no"?>
<!-- Created with Inkscape (http://www.inkscape.org/) -->

<svg
   width="64"
   height="64"
   viewBox="0 0 64 64"
   version="1.1"
   id="svg5"
   inkscape:version="1.3 (0e150ed6c4, 2023-07-21)"
   sodipodi:docname="tuxpaint.svg"
   xmlns:inkscape="http://www.inkscape.org/namespaces/inkscape"
   xmlns:sodipodi="http://sodipodi.sourceforge.net/DTD/sodipodi-0.dtd"
   xmlns:xlink="http://www.w3.org/1999/xlink"
   xmlns="http://www.w3.org/2000/svg"
   xmlns:svg="http://www.w3.org/2000/svg">
  <sodipodi:namedview
     id="namedview7"
     pagecolor="#ffffff"
     bordercolor="#000000"
     borderopacity="0.25"
     inkscape:showpageshadow="2"
     inkscape:pageopacity="0.0"
     inkscape:pagecheckerboard="0"
     inkscape:deskcolor="#d1d1d1"
     inkscape:document-units="px"
     showgrid="false"
     inkscape:zoom="12.5"
     inkscape:cx="31.96"
     inkscape:cy="32"
     inkscape:window-width="1920"
     inkscape:window-height="1004"
     inkscape:window-x="0"
     inkscape:window-y="0"
     inkscape:window-maximized="1"
     inkscape:current-layer="svg5" />
  <defs
     id="defs2">
    <linearGradient
       xlink:href="#linearGradient1261"
       id="linearGradient1263"
       x1="34.241001"
       x2="37.168999"
       y1="38.945"
       y2="30.341999"
       gradientTransform="matrix(1.3919041,0,0,1.3888774,-2.3205059,-0.4865293)"
       gradientUnits="userSpaceOnUse" />
    <linearGradient
       id="linearGradient1261">
      <stop
         style="stop-color:#4f4f4f"
         offset="0"
         id="stop1" />
      <stop
         style="stop-color:#3f3f3f"
         offset="1"
         id="stop2" />
    </linearGradient>
  </defs>
  <rect
     style="opacity:0.2;fill:#000000;stroke-width:3.99997;stroke-linecap:square"
     id="rect234"
     width="55.999535"
     height="55.999535"
     x="4.000464"
     y="4.9999919"
     ry="11.999901" />
  <rect
     style="fill:#4cb6ff;fill-opacity:1;stroke-width:3.99997;stroke-linecap:square"
     id="rect396"
     width="55.999535"
     height="55.999535"
     x="4.000464"
     y="4"
     ry="11.999901" />
  <path
     id="path4"
     style="opacity:0.1;fill:#000000;stroke-width:1.99998"
     d="m 38.691582,11.007754 c -0.988132,-0.05114 -2.113699,0.104733 -3.38669,0.562496 -6.789298,2.441398 -7.111739,11.393785 -7.273378,11.800684 -0.969898,0.244142 -1.819285,0.528961 -2.667946,0.976553 -1.171962,0.813802 -1.711296,1.297832 -2.503885,2.644511 -0.687027,1.098626 -0.726558,3.703093 -0.726558,3.703093 0,0 -2.46593,-2.013343 -3.718717,-3.011693 -1.697326,-1.505528 -3.036349,-3.294143 -3.234349,-4.230435 0,0 -0.566786,-4.843386 -2.425761,-4.558554 -1.131549,-0.08138 -0.644526,2.441385 -0.644526,2.441385 0,0 -0.403016,-1.301417 -2.019515,-1.871078 -1.616499,-0.569659 -3.8020039,-0.897133 -4.9335527,-0.246092 -2.5863982,1.383457 -2.9891728,3.095026 -3.3124726,3.257785 -2.8692858,4.475897 -1.6973721,6.26427 -1.0507725,6.589789 0.6465995,0.325522 2.181502,0.325522 2.8281016,0 l 6.3163542,4.175748 c 5.104659,3.516641 9.687418,8.519459 9.687418,8.519459 l -1.054677,1.539052 c -1.005045,1.466735 -2.602797,3.561136 -2.960913,6.113229 -0.606018,4.318776 -0.110141,5.808558 0.32031,7.242128 0.620274,2.065763 2.566384,4.343714 2.566384,4.343714 h 29.503662 c 0.985315,0 1.940273,-0.117919 2.855444,-0.339841 0.05024,-0.55861 0.540305,-5.990115 0.617183,-6.609319 0.6466,-0.56966 4.362328,-4.070265 4.039028,-7.48822 0.727424,-3.011056 -7.999933,-11.230375 -7.999933,-11.230375 0,0 -1.013194,-0.772776 -0.851555,-2.156233 0.323297,-1.505531 1.418102,-11.27136 -1.976546,-17.863134 0,0 -1.710232,-4.083042 -5.992138,-4.304652 z" />
  <path
     id="path5"
     style="fill:#3f3f3f;stroke-width:1.99998"
     d="m 38.691582,10.007763 c -0.988132,-0.05114 -2.113699,0.104733 -3.38669,0.562495 -6.789298,2.441398 -7.111739,11.393785 -7.273378,11.800684 -0.969898,0.244142 -1.819285,0.528961 -2.667946,0.976554 -1.171962,0.813801 -1.711296,1.297831 -2.503885,2.64451 -0.687027,1.098627 -0.726558,3.703093 -0.726558,3.703093 0,0 -2.46593,-2.013343 -3.718717,-3.011693 -1.697326,-1.505527 -3.036349,-3.294143 -3.234349,-4.230435 0,0 -0.566786,-4.843386 -2.425761,-4.558554 -1.131549,-0.08138 -0.644526,2.441386 -0.644526,2.441386 0,0 -0.403016,-1.30142 -2.019515,-1.871079 -1.616499,-0.569659 -3.8020039,-0.897132 -4.9335527,-0.246092 -2.5863982,1.383459 -2.9891728,3.095027 -3.3124726,3.257785 -2.8692858,4.475897 -1.6973721,6.26427 -1.0507725,6.58979 0.6465995,0.325521 2.181502,0.325521 2.8281016,0 l 6.3163542,4.175747 c 5.104659,3.516641 9.687418,8.51946 9.687418,8.51946 l -1.054677,1.539051 c -1.005045,1.466736 -2.602797,3.561136 -2.960913,6.113229 -0.606018,4.318776 -0.110141,5.808558 0.32031,7.242128 0.620274,2.065763 2.566384,4.343714 2.566384,4.343714 h 29.503662 c 0.985315,0 1.940273,-0.117919 2.855444,-0.339841 0.05024,-0.558609 0.540305,-5.990114 0.617183,-6.609319 0.6466,-0.569659 4.362328,-4.070264 4.039028,-7.48822 0.727424,-3.011055 -7.999933,-11.230375 -7.999933,-11.230375 0,0 -1.013194,-0.772776 -0.851555,-2.156232 0.323297,-1.505532 1.418102,-11.271361 -1.976546,-17.863134 0,0 -1.710232,-4.083043 -5.992138,-4.304652 z" />
  <path
     style="opacity:0.2;fill:#000000;stroke-width:1.99998"
     d="m 32.933107,16.893849 c 0.96608,-0.162758 1.858863,0.232534 2.221142,0.842885 0.362281,0.610349 0.25372,0.355305 0.472974,1.508482 -0.0178,0.605151 -0.0096,1.119694 0.0058,1.264273 0.235814,0.224216 1.16449,-3.900469 4.022475,-3.574948 1.238921,0.09534 2.468079,0.631293 2.334692,3.051749 -0.684306,11.026988 -6.514692,6.066389 -6.92436,5.817921 -0.635623,-0.268087 -0.308924,-0.776891 -0.704697,-0.957772 -0.382552,-0.0144 -0.393762,0.393815 -0.898638,0.33206 -0.263732,-0.0036 -1.455122,-0.228032 -1.656386,-0.309412 -0.201269,-0.0814 -1.811401,-0.203448 -1.771146,-1.831051 -0.241522,-1.546219 0.782798,-5.271514 2.898234,-6.144187 z"
     id="path6" />
  <path
     style="fill:#ffffff;stroke-width:1.99998"
     d="m 32.933107,15.893858 c 0.96608,-0.162761 1.858863,0.232532 2.221142,0.842883 0.362281,0.61035 0.25372,0.355307 0.472974,1.508481 -0.0178,0.605151 -0.0096,1.119697 0.0058,1.264276 0.235814,0.224216 1.16449,-3.900471 4.022475,-3.57495 1.238921,0.09535 2.468079,0.631294 2.334692,3.05175 -0.684306,11.026989 -6.514692,6.06639 -6.92436,5.817922 -0.635623,-0.268088 -0.308924,-0.776892 -0.704697,-0.957772 -0.382552,-0.0144 -0.393762,0.393814 -0.898638,0.332059 -0.263732,-0.0036 -1.455122,-0.228032 -1.656386,-0.309412 -0.201269,-0.0814 -1.811401,-0.203448 -1.771146,-1.83105 -0.241522,-1.54622 0.782798,-5.271515 2.898234,-6.144187 z"
     id="path7" />
  <path
     style="fill:#3f3f3f;stroke-width:1.99998"
     d="m 31.36241,20.579095 c -0.131379,0.755639 0.196819,1.474487 0.733102,1.605584 0.53629,0.131099 1.077561,-0.375192 1.208964,-1.130834 0.131419,-0.755642 -0.196818,-1.474484 -0.733104,-1.605585 -0.536289,-0.131099 -1.077557,0.375193 -1.208962,1.130835 z"
     id="path8" />
  <path
     style="opacity:0.2;fill:#000000;stroke-width:1.99998"
     d="m 29.687944,25.004886 c 0.821885,-0.0406 4.40829,0.852663 6.052056,2.111349 1.643768,1.258687 2.390934,3.207627 2.241503,4.750534 -0.134018,1.347339 -0.641584,4.349244 -2.540368,4.872344 -2.935202,0.757726 -5.406016,-0.240066 -8.816573,-1.664716 -4.075487,-1.686792 -3.661122,-10.313129 3.063382,-10.069511 z"
     id="path9" />
  <path
     style="fill:#ffa903;stroke-width:1.99998"
     d="m 29.687944,24.004894 c 0.821885,-0.0406 4.40829,0.852663 6.052056,2.111349 1.643768,1.258687 2.390934,3.207627 2.241503,4.750535 -0.134018,1.347338 -0.641584,4.349243 -2.540368,4.872343 -2.935202,0.757726 -5.406016,-0.240066 -8.816573,-1.664716 -4.075487,-1.686792 -3.661122,-10.313129 3.063382,-10.069511 z"
     id="path10" />
  <path
     style="fill:#3f3f3f;stroke-width:1.99998"
     d="m 27.857867,28.281371 c 0.351925,-1.093159 0.02906,-2.105803 -0.72099,-2.261367 -0.750066,-0.155559 -1.643072,0.604907 -1.994193,1.698228 -0.351927,1.093161 -0.02906,2.105802 0.720994,2.261367 0.750064,0.155559 1.64307,-0.604909 1.994189,-1.698228 z"
     id="path11" />
  <path
     style="fill:#ffffff;stroke-width:1.99998"
     d="m 23.975953,59.999536 c -0.22667,-0.108319 -1.081365,-0.995034 -1.316471,-1.527631 -0.23511,-0.532598 -3.585374,-5.385144 -2.409842,-10.592754 1.175533,-5.207615 4.760905,-3.136406 4.996015,-5.444323 0.235106,-2.307921 0.764094,-4.024065 3.879254,-4.37913 3.115166,-0.355065 5.583784,1.006016 6.465432,3.313935 0.881647,2.30792 2.40984,6.687046 2.40984,8.699077 0,2.012034 -0.117559,6.864584 -0.117559,6.864584 0,0 -0.206866,2.205025 -1.254303,3.066242 z"
     id="path12" />
  <path
     style="opacity:0.1;fill:#000000;stroke-width:1.99998"
     d="m 33.715061,45.167225 c -0.465012,-0.0056 -2.060005,0.168459 -2.886696,0.78515 -1.948624,1.549191 -2.468118,2.920983 -2.74607,4.081998 -0.118099,0.297923 -0.09032,1.460868 -0.03126,1.699206 0.05906,0.238334 0.42968,0.332027 0.429682,0.332027 0.915267,-0.08938 2.377776,-1.16598 3.027319,-1.285145 0.649539,-0.119159 1.149401,0.38479 2.035139,0.265623 1.345081,0.04386 2.14132,-0.400406 2.249982,-0.46484 l 2.890602,0.355465 c 0,0 0.011,-0.04006 0.0118,-0.04296 l -0.0118,0.07032 4.042934,0.894525 3.136694,-0.953118 -1.691392,-1.964828 -4.578088,-1.41405 c 2.12e-4,-6.76e-4 0.004,-0.0156 0.004,-0.0156 L 36.51981,46.432883 c 0,0 0.004,-0.004 0.004,-0.004 0,0 -1.207336,-1.279786 -2.683572,-1.24999 -0.0148,-0.0074 -0.05856,-0.011 -0.124999,-0.0118 z m 19.027186,5.871045 -0.148439,0.08984 -4.999958,0.753899 3.554658,1.003898 c 0,0 1.917465,0.593689 3.246068,0.832025 1.328603,0.23834 1.358916,-0.324155 1.417956,-0.562495 0.05906,-0.238336 0.115559,-0.74749 -0.179679,-1.015618 -0.08858,-0.148958 -0.499108,-0.475918 -2.8906,-1.101553 z"
     id="path13" />
  <path
     style="fill:#ffa903;stroke-width:1.99998"
     d="m 52.740987,50.038925 c 2.391492,0.625635 2.804837,0.953348 2.893412,1.102309 0.295246,0.268127 0.236196,0.774593 0.177139,1.012929 -0.05904,0.23834 -0.08858,0.804392 -1.417182,0.566052 -1.328603,-0.238336 -3.247704,-0.834178 -3.247704,-0.834178 l -3.551154,-1.002805 4.99786,-0.75493"
     id="path14" />
  <path
     style="fill:#ffa903;stroke-width:1.99998"
     d="m 39.538365,46.510156 4.635363,1.430024 1.688778,1.967134 -3.135486,0.952494 -4.044872,-0.893765 0.265721,-1.84711 z"
     id="path15" />
  <path
     style="fill:#b38f4f;stroke-width:1.99998"
     d="m 35.759212,49.578745 v 0 c -0.20667,-1.996074 0.679066,-4.170896 0.679066,-4.170896 l 3.159134,1.102305 c 0,0 -0.531444,1.698154 -0.590493,2.025867 -0.05904,0.327711 -0.324769,1.400229 -0.324769,1.400229 z"
     id="path16" />
  <path
     style="fill:#3f3f3f;stroke-width:1.99998"
     d="m 37.93965,23.133884 c 0.188598,-0.755958 -0.07914,-1.47359 -0.598059,-1.602877 -0.518914,-0.129279 -1.092481,0.378723 -1.281094,1.13468 -0.188598,0.755958 0.07914,1.473588 0.598059,1.602877 0.518912,0.129279 1.092479,-0.378725 1.281094,-1.13468 z"
     id="path17" />
  <path
     style="fill:#e6407a;stroke-width:1.99998"
     d="m 28.479604,51.06611 c 0.915267,-0.08938 2.377168,-1.167006 3.026711,-1.286171 0.649539,-0.119159 1.151457,0.387297 2.037195,0.268128 1.448802,0.04724 2.273395,-0.476674 2.273395,-0.476674 -0.118099,0.05958 0.02952,-1.578983 0.206673,-2.115241 0,-0.834179 0.501918,-2.025863 0.501918,-2.025863 0,0 -1.210504,-1.281063 -2.68674,-1.251268 -0.118099,-0.0596 -2.066719,0.0698 -3.011507,0.774594 -1.948624,1.549189 -2.467838,2.920504 -2.74579,4.081518 -0.118099,0.297924 -0.08858,1.459814 -0.02952,1.698152 0.05906,0.238336 0.427668,0.332825 0.42767,0.332825 z"
     id="path18" />
  <path
     style="fill:url(#linearGradient1263);stroke-width:1.99998"
     d="m 46.662188,32.176817 c -1.488686,1.365124 -5.520907,6.52688 -5.931365,9.56603 -0.385315,2.853001 1.332483,4.084619 2.841706,6.629494 1.491344,2.514723 -4.03759,2.332328 -3.209559,8.295099 0.297737,2.144052 2.39909,2.309291 4.623993,1.480244 1.723836,-0.642337 5.060161,-2.41164 6.947079,-4.472313 0.646601,-0.56966 4.36456,-4.069087 4.04126,-7.487046 0.727424,-3.011059 -8.001569,-11.230333 -8.001569,-11.230333 0,0 -1.355527,-1.529412 -1.311545,-2.781175 z"
     id="path19" />
  <g
     id="g361"
     transform="matrix(0.9999859,0,0,0.9999859,5.668e-4,1.029e-4)" />
  <path
     id="path1040"
     style="opacity:0.2;fill:#ffffff;stroke-width:3.99997;stroke-linecap:square"
     d="M 15.999868,4 C 9.351937,4 3.9999669,9.351969 3.9999669,15.999901 v 0.999991 c 0,-6.647931 5.3519701,-11.9999003 11.9999011,-11.9999003 h 31.999735 c 6.64793,0 11.9999,5.3519693 11.9999,11.9999003 V 15.999901 C 59.999503,9.351969 54.647533,4 47.999603,4 Z" />
</svg>
