<?xml version="1.0" encoding="UTF-8" standalone="no"?>
<!-- Created with Inkscape (http://www.inkscape.org/) -->

<svg
   width="64"
   height="64"
   viewBox="0 0 64 64"
   version="1.1"
   id="svg5"
   inkscape:version="1.2.2 (1:1.2.2+202305151914+b0a8486541)"
   sodipodi:docname="visual-studio-code.svg"
   xmlns:inkscape="http://www.inkscape.org/namespaces/inkscape"
   xmlns:sodipodi="http://sodipodi.sourceforge.net/DTD/sodipodi-0.dtd"
   xmlns="http://www.w3.org/2000/svg"
   xmlns:svg="http://www.w3.org/2000/svg">
  <sodipodi:namedview
     id="namedview7"
     pagecolor="#ffffff"
     bordercolor="#000000"
     borderopacity="0.25"
     inkscape:showpageshadow="2"
     inkscape:pageopacity="0.0"
     inkscape:pagecheckerboard="0"
     inkscape:deskcolor="#d1d1d1"
     inkscape:document-units="px"
     showgrid="false"
     inkscape:zoom="12.59375"
     inkscape:cx="31.960298"
     inkscape:cy="32"
     inkscape:window-width="1920"
     inkscape:window-height="1008"
     inkscape:window-x="0"
     inkscape:window-y="0"
     inkscape:window-maximized="1"
     inkscape:current-layer="svg5" />
  <defs
     id="defs2" />
  <rect
     style="opacity:0.2;fill:#000000;stroke-width:4;stroke-linecap:square"
     id="rect234"
     width="56"
     height="56"
     x="4"
     y="5"
     ry="12" />
  <rect
     style="fill:#efefef;stroke-width:4;stroke-linecap:square;fill-opacity:1"
     id="rect396"
     width="56"
     height="56"
     x="4"
     y="4"
     ry="12" />
  <path
     d="m 50.585203,17.237879 -8.2366,-3.9888 c -0.95332,-0.4617 -2.09277,-0.26695 -2.84105,0.48562 l -26.96378,24.4274 c -0.72525,0.66514 -0.72442,1.81356 0.002,2.47759 l 2.20249,2.0138 c 0.59372,0.54296 1.48787,0.58285 2.12711,0.0952 l 32.47065,-24.47604 c 1.08932,-0.83118 2.65397,-0.0497 2.65397,1.32555 v -0.0962 c 0,-0.96536 -0.54981,-1.84537 -1.41459,-2.26414 z"
     style="opacity:0.2;fill:#000000;stroke-width:1.99999"
     id="path2287"
     sodipodi:nodetypes="cccccccccscc" />
  <path
     d="m 42.349073,52.752279 c -0.95363,0.46127 -2.09308,0.26636 -2.84136,-0.48626 0.92192,0.92727 2.49844,0.27046 2.49844,-1.04097 v -36.44983 c 0,-1.31144 -1.57652,-1.96821 -2.49844,-1.04088 0.74828,-0.75263 1.88773,-0.94766 2.84136,-0.48637 l 8.23519,3.98332 c 0.8654,0.41855 1.41569,1.29888 1.41569,2.26466 v 27.00856 c 0,0.96575 -0.55029,1.84606 -1.41569,2.2646 z"
     style="opacity:0.2;fill:#000000;stroke-width:1.99999"
     id="path2231"
     sodipodi:nodetypes="ccsscccsscc" />
  <path
     d="m 50.585593,16.237609 -8.23669,-3.98883 c -0.95333,-0.461719 -2.09279,-0.266949 -2.84108,0.48561 l -26.96404,24.42766 c -0.72527,0.66515 -0.72444,1.81356 0.002,2.47761 l 2.20251,2.01382 c 0.59372,0.54296 1.48788,0.58285 2.12713,0.0952 l 32.47097,-24.47627 c 1.08933,-0.83119 2.654,-0.0497 2.654,1.32556 v -0.0962 c 0,-0.96537 -0.54982,-1.84538 -1.4146,-2.26417 z"
     style="fill:#0072b0;stroke-width:2.00001"
     id="path2175"
     sodipodi:nodetypes="cccccccccscc" />
  <path
     d="m 41.228863,12.000339 c -0.63232,0.0105 -1.25298,0.26401 -1.72065,0.73435 l -26.96399,24.42696 c -0.49747,0.45623 -0.64452,1.13757 -0.45897,1.73627 0.0849,-0.27237 0.23258,-0.52868 0.45897,-0.7363 l 26.96399,-24.42696 c 0.74827,-0.75255 1.88646,-0.94801 2.83975,-0.48631 l 7.69312,3.72644 c 0.95849,-0.18201 1.95892,0.52254 1.95892,1.623 v -0.0957 c 0,-0.96534 -0.54926,-1.84679 -1.41402,-2.26556 l -8.23802,-3.98815 c -0.35748,-0.17314 -0.73971,-0.25433 -1.1191,-0.24804 z"
     style="opacity:0.1;fill:#ffffff;stroke-width:1.99995"
     id="path2343" />
  <path
     d="m 15.795253,22.013919 c -0.37766,0.0169 -0.75,0.16216 -1.04686,0.43359 l -2.20311,2.01365 c -0.72622,0.66403 -0.7272,1.8134 -0.002,2.47849 l 26.96456,25.32591 c 0.92193,0.92727 2.49802,0.27043 2.49802,-1.041 v -9.23233 l -25.1306,-19.64042 c -0.31961,-0.24388 -0.7024,-0.35477 -1.08006,-0.33789 z"
     style="opacity:0.2;fill:#000000;stroke-width:1.99999"
     id="path2259"
     sodipodi:nodetypes="cccccscccc" />
  <path
     d="m 50.585593,47.763229 -8.23669,3.98884 c -0.95333,0.46161 -2.09279,0.26685 -2.84108,-0.48562 l -26.96404,-25.32778 c -0.72527,-0.6651 -0.72444,-1.81357 0.002,-2.4776 l 2.20251,-2.0139 c 0.59372,-0.54288 1.48788,-0.58285 2.12713,-0.0951 l 32.47097,25.37629 c 1.08933,0.83116 2.654,0.0498 2.654,-1.32559 v 0.0963 c 0,0.96529 -0.54982,1.84531 -1.4146,2.26418 z"
     style="fill:#008eda;stroke-width:2.00001"
     id="path2147"
     sodipodi:nodetypes="cccccscccscc" />
  <path
     d="m 15.795173,21.013759 c -0.37765,0.0169 -0.74999,0.16215 -1.04684,0.43358 l -2.20306,2.01361 c -0.50001,0.45718 -0.64889,1.14154 -0.46092,1.74213 0.0849,-0.27447 0.23259,-0.53339 0.46092,-0.74216 l 2.20306,-2.01361 c 0.59371,-0.54286 1.48765,-0.58344 2.12688,-0.0957 l 32.46967,25.37615 c 0.21877,0.16691 0.45861,0.25177 0.6992,0.29686 l 0.541,-0.26171 c 0.86476,-0.41887 1.41402,-1.30029 1.41402,-2.26555 v -0.0957 c 0,1.37534 -1.56492,2.15726 -2.65422,1.32613 l -32.46967,-25.37615 c -0.31961,-0.24387 -0.70239,-0.35476 -1.08004,-0.33788 z"
     style="opacity:0.1;fill:#ffffff;stroke-width:1.99995"
     id="path2315" />
  <path
     d="m 42.349373,51.752699 c -0.95364,0.46129 -2.0931,0.26638 -2.84139,-0.48625 0.92193,0.92728 2.49847,0.27046 2.49847,-1.04099 v -36.45018 c 0,-1.31146 -1.57654,-1.96825 -2.49847,-1.04091 0.74829,-0.75262 1.88775,-0.94767 2.84139,-0.48636 l 8.23528,3.98335 c 0.8654,0.41857 1.4157,1.2989 1.4157,2.26469 v 27.00882 c 0,0.96576 -0.5503,1.84608 -1.4157,2.26464 z"
     style="fill:#1eacf8;stroke-width:2.00001"
     id="path2203"
     sodipodi:nodetypes="ccsscccsscc" />
  <path
     d="m 41.228863,12.000349 c -0.6324,0.0107 -1.25298,0.26397 -1.72065,0.73435 0.73325,-0.73755 1.86965,-0.46501 2.30852,0.33397 0.1811,0.0411 0.36083,0.0963 0.53319,0.17969 l 8.23411,3.98229 c 0.86538,0.41855 1.41597,1.2998 1.41597,2.26556 v -0.99997 c 0,-0.96576 -0.55059,-1.84701 -1.41597,-2.26556 l -8.23411,-3.98229 c -0.35761,-0.17298 -0.74163,-0.25444 -1.12106,-0.24804 z m 0.77732,38.22339 c 0,1.31141 -1.57606,1.96824 -2.49797,1.04099 0.61303,0.61658 1.48768,0.8522 2.30852,0.66599 0.11292,-0.20557 0.18946,-0.43864 0.18946,-0.70701 z"
     style="opacity:0.2;fill:#ffffff;stroke-width:1.99995"
     id="path2371" />
  <path
     d="M 16,4.0000002 C 9.3520066,4.0000002 4,9.352007 4,16 v 1 C 4,10.352007 9.3520066,5 16,5 h 32 c 6.647993,0 12,5.352007 12,12 V 16 C 60,9.352007 54.647993,4.0000002 48,4.0000002 Z"
     style="opacity:0.2;fill:#ffffff;stroke-width:4;stroke-linecap:square"
     id="path1040" />
</svg>
