<?xml version="1.0" encoding="UTF-8" standalone="no"?>
<!-- Created with Inkscape (http://www.inkscape.org/) -->

<svg
   width="64"
   height="64"
   viewBox="0 0 64 64"
   version="1.1"
   id="svg5"
   inkscape:version="1.4.3 (0d15f75042, 2025-12-25)"
   sodipodi:docname="vncviewer.svg"
   xmlns:inkscape="http://www.inkscape.org/namespaces/inkscape"
   xmlns:sodipodi="http://sodipodi.sourceforge.net/DTD/sodipodi-0.dtd"
   xmlns="http://www.w3.org/2000/svg"
   xmlns:svg="http://www.w3.org/2000/svg">
  <sodipodi:namedview
     id="namedview7"
     pagecolor="#ffffff"
     bordercolor="#000000"
     borderopacity="0.25"
     inkscape:showpageshadow="2"
     inkscape:pageopacity="0.0"
     inkscape:pagecheckerboard="0"
     inkscape:deskcolor="#d1d1d1"
     inkscape:document-units="px"
     showgrid="false"
     inkscape:zoom="12.625"
     inkscape:cx="32"
     inkscape:cy="32"
     inkscape:window-width="1920"
     inkscape:window-height="1010"
     inkscape:window-x="0"
     inkscape:window-y="0"
     inkscape:window-maximized="1"
     inkscape:current-layer="svg5" />
  <defs
     id="defs2" />
  <rect
     style="opacity:0.2;fill:#000000;stroke-width:4;stroke-linecap:square"
     id="rect234"
     width="56"
     height="56"
     x="4"
     y="5"
     ry="12" />
  <rect
     style="fill:#288cf4;stroke-width:4;stroke-linecap:square;fill-opacity:1"
     id="rect396"
     width="56"
     height="56"
     x="4"
     y="4"
     ry="12" />
  <path
     d="M 16,4.0000002 C 9.3520066,4.0000002 4,9.352007 4,16 v 1 C 4,10.352007 9.3520066,5 16,5 h 32 c 6.647993,0 12,5.352007 12,12 V 16 C 60,9.352007 54.647993,4.0000002 48,4.0000002 Z"
     style="opacity:0.2;fill:#ffffff;stroke-width:4;stroke-linecap:square"
     id="path1040" />
  <path
     style="opacity:0.2;fill:#000000"
     d="m 11.27,17 9.007813,29.878906 c 0.0096,0.0178 0.0178,0.02172 0.02734,0.03906 C 20.624173,48.113567 21.708247,49 23.004375,49 c 1.229794,0 2.260527,-0.796017 2.636719,-1.898438 0.0082,-0.0164 0.02802,-0.03881 0.03516,-0.05469 L 34.734844,17 H 31.71336 L 23.004375,46.115234 14.295391,17 Z m 32.730469,0 c -3.865993,0 -7,3.134007 -7,7 v 7 h 3 v -3 -2 -2 c 0,-2.244672 1.755328,-4 4,-4 2.244672,0 4,1.755328 4,4 v 2 2 3 h 3 v -7 c 0,-3.865993 -3.134007,-7 -7,-7 z m 0,18 c -3.865993,0 -7,3.134007 -7,7 0,3.865993 3.134007,7 7,7 h 7 v -3 h -3 -2 -2 c -2.244672,0 -4,-1.755328 -4,-4 0,-2.244672 1.755328,-4 4,-4 h 2 2 3 v -3 z"
     id="path2" />
  <path
     style="fill:#ffffff"
     d="m 11.27,16 9.007813,29.878906 c 0.0096,0.0178 0.0178,0.02172 0.02734,0.03906 C 20.624173,47.113567 21.708247,48 23.004375,48 c 1.229794,0 2.260527,-0.796017 2.636719,-1.898438 0.0082,-0.0164 0.02802,-0.03881 0.03516,-0.05469 L 34.734844,16 H 31.71336 L 23.004375,45.115234 14.295391,16 Z m 32.730469,0 c -3.865993,0 -7,3.134007 -7,7 v 7 h 3 v -3 -2 -2 c 0,-2.244672 1.755328,-4 4,-4 2.244672,0 4,1.755328 4,4 v 2 2 3 h 3 v -7 c 0,-3.865993 -3.134007,-7 -7,-7 z m 0,18 c -3.865993,0 -7,3.134007 -7,7 0,3.865993 3.134007,7 7,7 h 7 v -3 h -3 -2 -2 c -2.244672,0 -4,-1.755328 -4,-4 0,-2.244672 1.755328,-4 4,-4 h 2 2 3 v -3 z"
     id="path3" />
</svg>
