<?xml version="1.0" encoding="UTF-8" standalone="no"?>
<!-- Created with Inkscape (http://www.inkscape.org/) -->

<svg
   width="64"
   height="64"
   viewBox="0 0 64 64"
   version="1.1"
   id="svg5"
   inkscape:version="1.4.3 (0d15f75042, 2025-12-25)"
   sodipodi:docname="xbox.svg"
   xmlns:inkscape="http://www.inkscape.org/namespaces/inkscape"
   xmlns:sodipodi="http://sodipodi.sourceforge.net/DTD/sodipodi-0.dtd"
   xmlns="http://www.w3.org/2000/svg"
   xmlns:svg="http://www.w3.org/2000/svg">
  <sodipodi:namedview
     id="namedview7"
     pagecolor="#ffffff"
     bordercolor="#000000"
     borderopacity="0.25"
     inkscape:showpageshadow="2"
     inkscape:pageopacity="0.0"
     inkscape:pagecheckerboard="0"
     inkscape:deskcolor="#d1d1d1"
     inkscape:document-units="px"
     showgrid="false"
     inkscape:zoom="12.984375"
     inkscape:cx="32"
     inkscape:cy="32"
     inkscape:window-width="1920"
     inkscape:window-height="1012"
     inkscape:window-x="0"
     inkscape:window-y="0"
     inkscape:window-maximized="1"
     inkscape:current-layer="svg5" />
  <defs
     id="defs2" />
  <rect
     style="opacity:0.2;fill:#000000;stroke-width:4;stroke-linecap:square"
     id="rect234"
     width="56"
     height="56"
     x="4"
     y="5"
     ry="12" />
  <rect
     style="fill:#107c10;fill-opacity:1;stroke-width:4;stroke-linecap:square"
     id="rect396"
     width="56"
     height="56"
     x="4"
     y="4"
     ry="12" />
  <path
     id="path1040"
     style="opacity:0.1;fill:#ffffff;stroke-width:4;stroke-linecap:square"
     d="M 16 4 C 9.3520066 4 4 9.352007 4 16 L 4 17 C 4 10.352 9.352 5 16 5 L 48 5 C 54.648 5 60 10.352 60 17 L 60 16 C 60 9.352007 54.647992 4 48 4 L 16 4 z " />
  <path
     style="opacity:0.2;stroke-width:2"
     d="m 30.00557,52.917852 c -3.08138,-0.295047 -6.200882,-1.400906 -8.880586,-3.148438 -2.245486,-1.463632 -2.752228,-2.066278 -2.752228,-3.267388 0,-2.412904 2.6546,-6.639786 7.196706,-11.457228 2.57882,-2.736764 6.171596,-5.94282 6.559788,-5.856394 0.755934,0.16868 6.79503,6.05619 9.056322,8.828264 3.575108,4.38161 5.218078,7.970532 4.383112,9.570308 -0.634596,1.215974 -4.573256,3.593104 -7.466352,4.506132 -2.384956,0.752724 -5.517012,1.071472 -8.096762,0.824744 z M 15.339722,43.993406 c -1.866123,-2.861288 -2.808946,-5.67797 -3.263621,-9.751982 -0.150628,-1.34515 -0.09763,-2.114136 0.340774,-4.87599 0.545332,-3.438378 2.505829,-7.42039 4.862891,-9.869072 1.003262,-1.040806 1.092522,-1.068686 2.316149,-0.65515 1.483045,0.501816 3.068365,1.596522 5.527703,3.819386 l 1.436554,1.29822 -0.785688,0.961816 c -3.639266,4.465244 -7.480298,10.798364 -8.926148,14.715326 -0.785688,2.128076 -1.101822,4.265446 -0.762442,5.155242 0.227802,0.60125 0.0186,0.377292 -0.748495,-0.796402 z m 32.753852,0.486484 c 0.18458,-0.899554 -0.04881,-2.550904 -0.595076,-4.217127 C 46.315316,36.654794 42.359454,29.94299 38.727162,25.37924 l -1.143664,-1.436686 1.237576,-1.135128 c 1.615073,-1.482218 2.73642,-2.369692 3.947028,-3.123812 0.954448,-0.594746 2.318942,-1.12119 2.905648,-1.12119 0.36123,0 1.634602,1.32424 2.662039,2.76464 1.591829,2.2303 2.762457,4.939184 3.355673,7.754936 0.383544,1.821412 0.415624,5.71514 0.06184,7.531904 -0.292888,1.490584 -0.90656,3.42258 -1.501636,4.733344 -0.450955,0.981798 -1.562078,2.889168 -2.050223,3.509934 -0.251051,0.319212 -0.251051,0.318746 -0.111581,-0.369858 z M 30.335654,17.881254 c -1.676444,-0.850302 -4.262238,-1.76333 -5.690422,-2.009592 -0.500234,-0.08597 -1.354262,-0.13474 -1.896806,-0.10688 -1.178996,0.05948 -1.12646,-0.0019 0.763838,-0.894442 1.571373,-0.74204 2.882402,-1.178341 4.662982,-1.551917 2.00141,-0.420505 5.764804,-0.425151 7.7346,-0.01025 2.126934,0.448382 4.6323,1.379996 6.043746,2.248882 l 0.420274,0.257417 -0.962352,-0.04832 c -1.913542,-0.09658 -4.702034,0.676122 -7.696012,2.131392 -0.902842,0.439553 -1.6876,0.789898 -1.745246,0.780604 -0.05718,-0.0112 -0.79313,-0.369392 -1.636464,-0.796866 z"
     id="path2" />
  <path
     style="fill:#ffffff;stroke-width:2"
     d="m 30.00557,51.917852 c -3.08138,-0.295048 -6.200882,-1.400906 -8.880586,-3.148438 -2.245486,-1.463632 -2.752228,-2.066278 -2.752228,-3.267388 0,-2.412904 2.6546,-6.639786 7.196706,-11.457228 2.57882,-2.736764 6.171596,-5.94282 6.559788,-5.856394 0.755934,0.16868 6.79503,6.05619 9.056322,8.828264 3.575108,4.38161 5.218078,7.970532 4.383112,9.570308 -0.634596,1.215974 -4.573256,3.593104 -7.466352,4.506132 -2.384956,0.752724 -5.517012,1.071472 -8.096762,0.824744 z M 15.339722,42.993406 c -1.866123,-2.861288 -2.808946,-5.677969 -3.263621,-9.751982 -0.150629,-1.34515 -0.09763,-2.114136 0.340774,-4.87599 0.545332,-3.438378 2.505829,-7.42039 4.862891,-9.869072 1.003262,-1.040806 1.092522,-1.068686 2.316149,-0.655149 1.483045,0.501816 3.068365,1.596521 5.527703,3.819385 l 1.436554,1.29822 -0.785688,0.961816 c -3.639266,4.465244 -7.480298,10.798364 -8.926148,14.715326 -0.785688,2.128076 -1.101822,4.265446 -0.762442,5.155242 0.227802,0.60125 0.0186,0.377292 -0.748495,-0.796402 z m 32.753852,0.486484 c 0.18458,-0.899554 -0.04881,-2.550904 -0.595076,-4.217126 C 46.315316,35.654794 42.359454,28.94299 38.727162,24.37924 l -1.143664,-1.436686 1.237576,-1.135128 c 1.615073,-1.482218 2.73642,-2.369692 3.947028,-3.123812 0.954448,-0.594746 2.318942,-1.12119 2.905648,-1.12119 0.36123,0 1.634602,1.32424 2.662039,2.76464 1.591829,2.230299 2.762457,4.939184 3.355673,7.754936 0.383544,1.821412 0.415624,5.71514 0.06184,7.531904 -0.292888,1.490584 -0.90656,3.422579 -1.501636,4.733344 -0.450955,0.981798 -1.562078,2.889168 -2.050223,3.509934 -0.251051,0.319212 -0.251051,0.318746 -0.111581,-0.369858 z M 30.335654,16.881254 c -1.676444,-0.850302 -4.262238,-1.76333 -5.690422,-2.009592 -0.500234,-0.08595 -1.354262,-0.134743 -1.896806,-0.106872 -1.178996,0.05948 -1.12646,-0.0019 0.763838,-0.894442 1.571373,-0.742041 2.882402,-1.178342 4.662982,-1.551918 2.00141,-0.420504 5.764804,-0.42515 7.7346,-0.01025 2.126934,0.448383 4.6323,1.379998 6.043746,2.248884 l 0.420274,0.257415 -0.962352,-0.04833 c -1.913542,-0.09657 -4.702034,0.676123 -7.696012,2.131393 -0.902842,0.439553 -1.6876,0.789898 -1.745246,0.780604 -0.05718,-0.0112 -0.79313,-0.369392 -1.636464,-0.796866 z"
     id="path3" />
</svg>
