<?xml version="1.0" encoding="UTF-8" standalone="no"?>
<!-- Created with Inkscape (http://www.inkscape.org/) -->

<svg
   width="64"
   height="64"
   viewBox="0 0 64 64"
   version="1.1"
   id="svg5"
   inkscape:version="1.3.2 (091e20ef0f, 2023-11-25, custom)"
   sodipodi:docname="Xfwm4CompositeEditor.svg"
   xmlns:inkscape="http://www.inkscape.org/namespaces/inkscape"
   xmlns:sodipodi="http://sodipodi.sourceforge.net/DTD/sodipodi-0.dtd"
   xmlns="http://www.w3.org/2000/svg"
   xmlns:svg="http://www.w3.org/2000/svg">
  <sodipodi:namedview
     id="namedview7"
     pagecolor="#ffffff"
     bordercolor="#000000"
     borderopacity="0.25"
     inkscape:showpageshadow="2"
     inkscape:pageopacity="0.0"
     inkscape:pagecheckerboard="0"
     inkscape:deskcolor="#d1d1d1"
     inkscape:document-units="px"
     showgrid="false"
     inkscape:zoom="12.421875"
     inkscape:cx="31.959748"
     inkscape:cy="32"
     inkscape:window-width="1920"
     inkscape:window-height="1008"
     inkscape:window-x="0"
     inkscape:window-y="0"
     inkscape:window-maximized="1"
     inkscape:current-layer="svg5" />
  <defs
     id="defs2" />
  <rect
     style="opacity:0.2;fill:#000000;stroke-width:4;stroke-linecap:square"
     id="rect234"
     width="56"
     height="56"
     x="4"
     y="5"
     ry="12" />
  <rect
     style="fill:#00796b;fill-opacity:1;stroke-width:4;stroke-linecap:square"
     id="rect396"
     width="56"
     height="56"
     x="4"
     y="4"
     ry="12" />
  <path
     style="opacity:0.2;stroke-width:2"
     d="m 35.944442,13.000705 c -0.692326,-0.01576 -1.198448,0.23279 -1.652258,0.749975 -0.388214,0.442506 -0.823546,1.236473 -0.964794,1.765567 -0.51814,1.941035 -2.939666,3.189261 -5.077858,2.613195 -1.049144,-0.282658 -1.543848,-0.726338 -3.242018,-2.898342 -0.772936,-0.988622 -1.43582,-0.967467 -3.331858,0.113278 -1.801408,1.027012 -2.02032,1.690954 -1.206968,3.71472 0.33608,0.836528 0.62228,1.90917 0.628874,2.382736 0.0166,1.170846 -1.020612,3.022852 -2.062394,3.691284 -0.853894,0.54788 -2.64387,0.674356 -4.074006,0.289054 -1.359951,-0.366398 -2.054658,0.279162 -2.628769,2.433512 -0.44704,1.67752 -0.447003,1.924926 0.02344,2.460856 0.287428,0.327672 1.224703,0.89875 2.078017,1.265584 0.853359,0.366846 1.792332,0.938462 2.089734,1.277302 0.627894,0.715448 1.03067,2.783282 0.749962,3.867058 -0.203176,0.786934 -1.176934,2.012362 -1.964742,2.47648 -0.858648,0.505848 -1.685844,1.623352 -1.660069,2.242114 0.03303,0.7927 1.16181,2.775756 1.878808,3.30067 0.410656,0.300712 0.753481,0.337536 1.281183,0.14062 1.546672,-0.576914 4.038592,-0.983346 4.788814,-0.781224 1.13105,0.304724 2.742134,1.809092 2.93344,2.746004 0.09002,0.441256 0.0885,1.411542 0,2.156178 -0.214738,1.805956 -0.0398,2.731706 0.582002,3.050682 0.282776,0.14468 0.737036,0.382984 1.007758,0.527326 0.270242,0.14616 0.91823,0.323034 1.441332,0.390612 1.364188,0.17696 2.331714,-0.617408 3.08187,-2.542884 0.685914,-1.760526 0.931064,-2.011222 2.48815,-2.507728 1.581162,-0.504206 2.680262,-0.38941 3.589658,0.374988 0.753994,0.633832 1.046772,0.93818 2.206916,2.265546 0.849982,0.972702 1.525886,1.0322 3.015466,0.2539 2.239758,-1.1704 2.463294,-1.885968 1.3554,-4.210796 -1.054662,-2.212682 -0.477236,-4.43227 1.484296,-5.726376 0.75115,-0.495514 1.326224,-0.578124 3.128744,-0.460922 2.721524,0.177 3.258616,-0.1323 3.827926,-2.238208 0.56873,-2.103304 0.327804,-2.538682 -1.99599,-3.5741 -2.211112,-0.985166 -2.815316,-1.709498 -3.136554,-3.765502 -0.267096,-1.709498 0.15818,-2.555374 2.156134,-4.265484 1.024538,-0.876856 1.60206,-1.560166 1.605388,-1.914 0.0072,-0.789698 -1.797568,-3.63955 -2.410032,-3.80456 -0.283626,-0.07642 -1.142268,0.13234 -1.913962,0.457016 -2.128736,0.895954 -3.268266,0.921848 -4.667726,0.10938 -1.644416,-0.95443 -2.073212,-1.87723 -1.941304,-4.171746 0.151482,-2.635168 -0.06322,-3.172629 -1.48039,-3.734251 -0.472082,-0.187499 -0.88445,-0.325304 -1.253844,-0.410143 l 0.004,-0.0039 c -0.277136,-0.06364 -0.530996,-0.100216 -0.761772,-0.105471 z"
     id="path2" />
  <path
     style="fill:#18c28c;stroke-width:2"
     d="m 35.944442,12.002027 c -0.692326,-0.01576 -1.198448,0.23279 -1.652258,0.749975 -0.388214,0.442506 -0.823546,1.236473 -0.964794,1.765567 -0.51814,1.941035 -2.939666,3.189261 -5.077858,2.613195 -1.049144,-0.282658 -1.543848,-0.726338 -3.242018,-2.898342 -0.772936,-0.988622 -1.43582,-0.967467 -3.331858,0.113278 -1.801408,1.027012 -2.02032,1.690954 -1.206968,3.714722 0.33608,0.836528 0.62228,1.909168 0.628874,2.382732 0.0166,1.170846 -1.020612,3.022854 -2.062394,3.691286 -0.853894,0.54788 -2.64387,0.674356 -4.074006,0.289054 -1.359951,-0.366398 -2.054658,0.279162 -2.628769,2.433512 -0.44704,1.67752 -0.447003,1.924926 0.02344,2.460856 0.287428,0.327672 1.224703,0.89875 2.078017,1.265584 0.853359,0.366848 1.792332,0.938462 2.089734,1.277302 0.627894,0.715448 1.03067,2.783282 0.749962,3.867058 -0.203176,0.786934 -1.176934,2.012362 -1.964742,2.476478 -0.858648,0.505852 -1.685844,1.623356 -1.660069,2.242114 0.03303,0.7927 1.16181,2.775756 1.878808,3.300674 0.410656,0.300708 0.753481,0.337536 1.281183,0.14062 1.546672,-0.576916 4.038592,-0.98335 4.788814,-0.781226 1.13105,0.304724 2.742134,1.809092 2.93344,2.746004 0.09002,0.441258 0.0885,1.41154 0,2.156178 -0.214738,1.805956 -0.0398,2.731706 0.582002,3.050682 0.282776,0.14468 0.737036,0.382984 1.007758,0.527326 0.270242,0.14616 0.91823,0.323034 1.441332,0.39061 1.364188,0.17696 2.331714,-0.617406 3.08187,-2.542884 0.685914,-1.760522 0.931064,-2.01122 2.48815,-2.507728 1.581162,-0.504204 2.680262,-0.389408 3.589658,0.374988 0.753994,0.633836 1.046772,0.93818 2.206916,2.26555 0.849982,0.9727 1.525886,1.032196 3.015466,0.253896 2.239758,-1.1704 2.463294,-1.885964 1.3554,-4.210796 -1.054662,-2.212682 -0.477236,-4.432266 1.484296,-5.726376 0.75115,-0.495514 1.326224,-0.57812 3.128744,-0.46092 2.721524,0.177 3.258616,-0.1323 3.827926,-2.238208 0.56873,-2.103304 0.327804,-2.538684 -1.99599,-3.5741 -2.211112,-0.985166 -2.815316,-1.709498 -3.136554,-3.765502 -0.267096,-1.709498 0.15818,-2.555374 2.156134,-4.265484 1.024538,-0.876856 1.60206,-1.560166 1.605388,-1.914 0.0072,-0.789698 -1.797568,-3.63955 -2.410032,-3.80456 -0.283626,-0.07642 -1.142268,0.13234 -1.913962,0.457016 -2.128736,0.895954 -3.268266,0.921848 -4.667726,0.10938 -1.644416,-0.95443 -2.073212,-1.87723 -1.941304,-4.171746 0.151482,-2.635168 -0.06322,-3.172629 -1.48039,-3.734251 -0.472082,-0.187499 -0.88445,-0.325304 -1.253844,-0.410143 l 0.004,-0.0039 c -0.277136,-0.06364 -0.530996,-0.100216 -0.761772,-0.105471 z"
     id="path3" />
  <path
     id="path5"
     style="opacity:0.2;fill:#ffffff;stroke-width:2"
     d="M 35.945312 12 C 35.252987 11.9842 34.746778 12.232815 34.292969 12.75 C 33.904755 13.192504 33.469373 13.986532 33.328125 14.515625 C 32.809986 16.456659 30.38819 17.70497 28.25 17.128906 C 27.200857 16.846249 26.705981 16.402473 25.007812 14.230469 C 24.234877 13.24185 23.571817 13.263005 21.675781 14.34375 C 20.290513 15.133514 19.847851 15.715538 20.083984 16.859375 C 20.253214 16.297131 20.758398 15.866765 21.675781 15.34375 C 23.571817 14.263005 24.234877 14.24185 25.007812 15.230469 C 26.705981 17.402473 27.200857 17.846249 28.25 18.128906 C 30.38819 18.70497 32.809986 17.456659 33.328125 15.515625 C 33.469373 14.986532 33.904755 14.192504 34.292969 13.75 C 34.746778 13.232815 35.252987 12.9842 35.945312 13 C 36.176088 13.00526 36.429896 13.041829 36.707031 13.105469 L 36.703125 13.109375 C 37.072519 13.194213 37.48495 13.332031 37.957031 13.519531 C 39.006716 13.93552 39.39473 14.34398 39.464844 15.595703 C 39.534623 13.538163 39.243565 13.029382 37.957031 12.519531 C 37.48495 12.332031 37.072519 12.194213 36.703125 12.109375 L 36.707031 12.105469 C 36.429896 12.041829 36.176088 12.00526 35.945312 12 z M 39.431641 17.373047 C 39.322936 19.575056 39.7632 20.489148 41.376953 21.425781 C 42.776412 22.238248 43.916188 22.212359 46.044922 21.316406 C 46.816615 20.991731 47.675359 20.782955 47.958984 20.859375 C 48.463398 20.995274 49.763431 22.938994 50.207031 24.066406 C 50.303867 23.909066 50.368163 23.767995 50.369141 23.664062 C 50.376341 22.874365 48.571448 20.024385 47.958984 19.859375 C 47.675359 19.782955 46.816615 19.991731 46.044922 20.316406 C 43.916188 21.212359 42.776412 21.238248 41.376953 20.425781 C 40.033848 19.646234 39.509689 18.875038 39.431641 17.373047 z M 21.041016 20.976562 C 20.817545 22.115299 19.929744 23.558824 19.035156 24.132812 C 18.181263 24.680692 16.391071 24.807177 14.960938 24.421875 C 13.600987 24.055477 12.906143 24.701121 12.332031 26.855469 C 12.008323 28.070187 11.924132 28.532873 12.078125 28.900391 C 12.133511 28.627644 12.21602 28.290803 12.332031 27.855469 C 12.906143 25.701121 13.600987 25.055477 14.960938 25.421875 C 16.391071 25.807177 18.181263 25.680692 19.035156 25.132812 C 20.076937 24.464381 21.114256 22.612251 21.097656 21.441406 C 21.095976 21.320739 21.075203 21.161204 21.041016 20.976562 z M 46.576172 29.5625 C 46.520598 29.947599 46.531721 30.359243 46.607422 30.84375 C 46.92866 32.899752 47.533031 33.62421 49.744141 34.609375 C 51.11497 35.220178 51.756904 35.62444 51.939453 36.283203 C 52.163153 34.933347 51.685515 34.474397 49.744141 33.609375 C 47.533031 32.62421 46.92866 31.899752 46.607422 29.84375 C 46.591861 29.744156 46.586859 29.656573 46.576172 29.5625 z M 17.333984 35.359375 C 17.319078 35.488769 17.302239 35.615364 17.273438 35.726562 C 17.070264 36.513496 16.0964 37.739007 15.308594 38.203125 C 14.449947 38.708972 13.622662 39.826551 13.648438 40.445312 C 13.654054 40.580136 13.700124 40.756604 13.761719 40.947266 C 14.011364 40.339893 14.648462 39.592023 15.308594 39.203125 C 16.0964 38.739007 17.070264 37.513496 17.273438 36.726562 C 17.369498 36.355688 17.379635 35.867095 17.333984 35.359375 z M 42.810547 43.966797 C 42.715532 44.807111 42.869383 45.708403 43.298828 46.609375 C 43.588073 47.216332 43.78335 47.712408 43.878906 48.136719 C 44.071032 47.522591 43.849955 46.765871 43.298828 45.609375 C 43.035779 45.0575 42.874387 44.505065 42.810547 43.966797 z M 24.583984 47.310547 C 24.573128 47.549831 24.557327 47.788405 24.53125 48.007812 C 24.446866 48.717483 24.42541 49.285812 24.464844 49.740234 C 24.479397 49.512602 24.499794 49.27236 24.53125 49.007812 C 24.595965 48.463308 24.614071 47.801288 24.583984 47.310547 z " />
  <circle
     style="opacity:0.2;fill:#000000;fill-opacity:1;stroke-width:4"
     id="path1"
     cx="32"
     cy="32.999302"
     r="8" />
  <circle
     style="fill:#ffffff;fill-opacity:1;stroke-width:4"
     id="path2-3"
     cx="32"
     cy="32"
     r="8" />
  <path
     id="path1040"
     style="opacity:0.1;fill:#ffffff;stroke-width:4;stroke-linecap:square"
     d="M 16,4 C 9.3520132,4 4,9.3520136 4,16 v 1 C 4,10.352014 9.3520132,5 16,5 h 32 c 6.647986,0 12,5.352014 12,12 V 16 C 60,9.3520136 54.647986,4 48,4 Z" />
</svg>
