<?xml version="1.0" encoding="UTF-8" standalone="no"?>
<svg
   width="16"
   height="16"
   version="1.1"
   id="svg907"
   sodipodi:docname="keyboard-battery-good.svg"
   inkscape:version="1.2.2 (1:1.2.2+202305151914+b0a8486541)"
   xmlns:inkscape="http://www.inkscape.org/namespaces/inkscape"
   xmlns:sodipodi="http://sodipodi.sourceforge.net/DTD/sodipodi-0.dtd"
   xmlns="http://www.w3.org/2000/svg"
   xmlns:svg="http://www.w3.org/2000/svg">
  <sodipodi:namedview
     id="namedview909"
     pagecolor="#ffffff"
     bordercolor="#000000"
     borderopacity="0.25"
     inkscape:showpageshadow="2"
     inkscape:pageopacity="0.0"
     inkscape:pagecheckerboard="0"
     inkscape:deskcolor="#d1d1d1"
     showgrid="false"
     inkscape:zoom="51.875"
     inkscape:cx="8"
     inkscape:cy="8"
     inkscape:window-width="1920"
     inkscape:window-height="1008"
     inkscape:window-x="0"
     inkscape:window-y="0"
     inkscape:window-maximized="1"
     inkscape:current-layer="svg907" />
  <defs
     id="defs899">
    <style
       id="current-color-scheme"
       type="text/css">
   .ColorScheme-Text { color:#dfdfdf; } .ColorScheme-Highlight { color:#4285f4; } .ColorScheme-NeutralText { color:#ff9800; } .ColorScheme-PositiveText { color:#4caf50; } .ColorScheme-NegativeText { color:#f44336; }
  </style>
  </defs>
  <path
     style="fill:currentColor"
     class="ColorScheme-Text"
     d="M 10,2 C 9.446,2 9,2.446 9,3 V 14 C 9,14.554 9.446,15 10,15 H 15 C 15.554,15 16,14.554 16,14 V 3 C 16,2.446 15.554,2 15,2 Z M 10,4 H 11 V 5 H 10 Z M 12,4 H 13 V 5 H 12 Z M 14,5 H 15 V 12 H 14 Z M 10,6 H 11 V 7 H 10 Z M 12,6 H 13 V 7 H 12 Z M 10,8 H 11 V 9 H 10 Z M 12,8 H 13 V 9 H 12 Z M 10,10 H 11 V 11 H 10 Z M 12,10 H 13 V 11 H 12 Z M 10,12 H 11 V 13 H 10 Z M 12,12 H 13 V 13 H 12 Z"
     id="path905" />
  <path
     id="path574"
     style="fill:currentColor;stroke-width:4;stroke-linecap:round;stroke-linejoin:round"
     class="ColorScheme-Text"
     d="M 2,1 V 2 H 1 C 0.4460012,2 0,2.4460012 0,3 v 10.9996 c 0,0.553998 0.4460012,1 1,1 h 5 c 0.553998,0 1,-0.446002 1,-1 V 3 C 7,2.4460012 6.553998,2 6,2 H 5 V 1 Z M 2,4 H 5 V 6 H 2 Z" />
</svg>
