<?xml version="1.0" encoding="UTF-8" standalone="no"?>
<!-- Created with Inkscape (http://www.inkscape.org/) -->

<svg
   width="16"
   height="16"
   viewBox="0 0 16 16.000001"
   version="1.1"
   id="svg1"
   inkscape:version="1.3.2 (091e20ef0f, 2023-11-25, custom)"
   sodipodi:docname="klipper-symbolic.svg"
   xmlns:inkscape="http://www.inkscape.org/namespaces/inkscape"
   xmlns:sodipodi="http://sodipodi.sourceforge.net/DTD/sodipodi-0.dtd"
   xmlns="http://www.w3.org/2000/svg"
   xmlns:svg="http://www.w3.org/2000/svg">
  <sodipodi:namedview
     id="namedview1"
     pagecolor="#ffffff"
     bordercolor="#000000"
     borderopacity="0.25"
     inkscape:showpageshadow="2"
     inkscape:pageopacity="0.0"
     inkscape:pagecheckerboard="0"
     inkscape:deskcolor="#d1d1d1"
     inkscape:document-units="px"
     inkscape:zoom="52.4375"
     inkscape:cx="7.9904648"
     inkscape:cy="8"
     inkscape:window-width="1878"
     inkscape:window-height="1052"
     inkscape:window-x="0"
     inkscape:window-y="0"
     inkscape:window-maximized="1"
     inkscape:current-layer="svg1" />
  <defs
     id="defs1">
     <style
        id="current-color-scheme"
        type="text/css">
        .ColorScheme-Text { color:#dfdfdf; } .ColorScheme-Highlight { color:#4285f4; } .ColorScheme-NeutralText { color:#ff9800; } .ColorScheme-PositiveText { color:#4caf50; } .ColorScheme-NegativeText { color:#f44336; }
     </style>
  </defs>
  <path
     d="M 8,0 C 6.9,0 6,0.90000001 6,2 H 3 C 2,2 2,3 2,3 v 11.000001 c 0,1 1,1 1,1 h 10 c 0,0 1,0 1,-1 V 3 C 14,2 13,2 13,2 H 9.9999998 c 0,-0.14 0,-0.28 -0.03,-0.41 C 9.7799998,0.68000001 8.9699998,1e-8 8,0 Z m 0,1 c 0.41,0 0.7499998,0.27 0.9099998,0.62 0.05,0.12 0.09,0.24 0.09,0.38 0,0.55 -0.45,1 -0.9999998,1 C 7.45,3 7,2.55 7,2 7,1.45 7.45,1 8,1 Z M 4,4 h 1 v 1 h 6 V 4 h 1 v 9.000001 H 4 Z"
     style="fill:currentColor;fill-opacity:1"
     class="ColorScheme-Text"
     id="path1" />
</svg>
