<?xml version="1.0" encoding="UTF-8" standalone="no"?>
<!-- Created with Inkscape (http://www.inkscape.org/) -->

<svg
   width="16"
   height="16"
   viewBox="0 0 16 16"
   version="1.1"
   id="svg5"
   inkscape:version="1.2.2 (1:1.2.2+202305151914+b0a8486541)"
   sodipodi:docname="network-wireless-secure-signal-excellent.svg"
   xmlns:inkscape="http://www.inkscape.org/namespaces/inkscape"
   xmlns:sodipodi="http://sodipodi.sourceforge.net/DTD/sodipodi-0.dtd"
   xmlns="http://www.w3.org/2000/svg"
   xmlns:svg="http://www.w3.org/2000/svg">
  <sodipodi:namedview
     id="namedview7"
     pagecolor="#ffffff"
     bordercolor="#000000"
     borderopacity="0.25"
     inkscape:showpageshadow="2"
     inkscape:pageopacity="0.0"
     inkscape:pagecheckerboard="0"
     inkscape:deskcolor="#d1d1d1"
     inkscape:document-units="px"
     showgrid="false"
     showguides="true"
     inkscape:zoom="51.875"
     inkscape:cx="5.4457831"
     inkscape:cy="8"
     inkscape:window-width="1920"
     inkscape:window-height="1008"
     inkscape:window-x="0"
     inkscape:window-y="0"
     inkscape:window-maximized="1"
     inkscape:current-layer="svg5" />
  <defs
     id="defs2">
     <style
        id="current-color-scheme"
        type="text/css">
        .ColorScheme-Text { color:#dfdfdf; } .ColorScheme-Highlight { color:#4285f4; } .ColorScheme-NeutralText { color:#ff9800; } .ColorScheme-PositiveText { color:#4caf50; } .ColorScheme-NegativeText { color:#f44336; }
     </style>
  </defs>
  <path
     id="path346"
     style="fill:currentColor;fill-opacity:1"
     class="ColorScheme-Text"
     d="M 8 1 C 5.7125023 1.00938 3.4847513 1.7316976 1.6269531 3.0664062 C 1.0830937 3.4549959 0.57572766 3.8923974 0.11132812 4.3730469 L 8 14 L 9 12.779297 L 9 11 L 10 11 C 10 9.3662715 11.29341 8.0464057 12.916016 8.0019531 L 15.904297 4.3554688 C 15.439837 3.8747792 14.932501 3.4373777 14.388672 3.0488281 C 12.524474 1.7172295 10.290998 1.001 8 1 z " />
  <path
     d="m 13,9.0000002 c -1.108,0 -2,0.9100001 -2,2.0309998 V 12 h -1 v 4 h 6 V 12 H 15 V 11.031 C 15,9.9110003 14.108,9.0000002 13,9.0000002 Z m 0,0.9999997 c 0.554,0 1,0.4420011 1,1.0000001 v 1 h -2 v -1 c 0,-0.557999 0.446,-1.0000001 1,-1.0000001 z"
     id="path2053"
     style="fill:currentColor;fill-opacity:1"
     class="ColorScheme-Text" />
</svg>
