<?xml version="1.0" encoding="UTF-8" standalone="no"?>
<!-- Created with Inkscape (http://www.inkscape.org/) -->

<svg
   width="16"
   height="16"
   viewBox="0 0 16 16"
   version="1.1"
   id="svg5"
   inkscape:version="1.2.2 (1:1.2.2+202305151914+b0a8486541)"
   sodipodi:docname="thunderbird-panel.svg"
   xmlns:inkscape="http://www.inkscape.org/namespaces/inkscape"
   xmlns:sodipodi="http://sodipodi.sourceforge.net/DTD/sodipodi-0.dtd"
   xmlns="http://www.w3.org/2000/svg"
   xmlns:svg="http://www.w3.org/2000/svg">
  <sodipodi:namedview
     id="namedview7"
     pagecolor="#ffffff"
     bordercolor="#000000"
     borderopacity="0.25"
     inkscape:showpageshadow="2"
     inkscape:pageopacity="0.0"
     inkscape:pagecheckerboard="0"
     inkscape:deskcolor="#d1d1d1"
     inkscape:document-units="px"
     showgrid="false"
     showguides="true"
     inkscape:zoom="50.375"
     inkscape:cx="7.9900744"
     inkscape:cy="8"
     inkscape:window-width="1920"
     inkscape:window-height="1008"
     inkscape:window-x="0"
     inkscape:window-y="0"
     inkscape:window-maximized="1"
     inkscape:current-layer="svg5" />
  <defs
     id="defs2">
    <style
       id="current-color-scheme"
       type="text/css">
   .ColorScheme-Text { color:#dfdfdf; } .ColorScheme-Highlight { color:#4285f4; } .ColorScheme-NeutralText { color:#ff9800; } .ColorScheme-PositiveText { color:#4caf50; } .ColorScheme-NegativeText { color:#f44336; }
     </style>
  </defs>
  <path
     d="M 10.8,1 C 8.93,1 7.95,1.32 7.56,2.75 6.51,3.27 6,3.89 6,4.54 6,4.54 6.89,4 8,4 c 2.17,0 4,1.83 4,4 0,2.16 -1.86,4 -4,4 C 5.83,12 4,10.16 4,8 4,6.4 5,5.35 5,5.35 5,3.85 4.85,2.75 4,2.5 3.86,2.5 3.85,2.61 3.85,2.61 3.71,3.78 3.12,4.14 2.81,4.58 2.34,5.24 2.05,6.12 2.05,6.95 1.88,6.58 1.75,6.13 1.65,5.73 1.64,5.68 1.58,5.55 1.5,5.55 1.39,5.55 1.3,5.81 1.29,5.85 1.1,6.47 1,7.37 1,8 1,12 4,15.000001 8,15.000001 12.04,15.000001 15,12.07 15,8 15,6.89 14.77,5.59 14.3,4.5 14.13,4.15 13.84,3.74 13.6,3.45 13.9,3.37 14.31,3.43 14.64,3.49 14.21,2.99 13.65,2.83 12.9,2.75 13.09,2.33 13.5,2.02 14,2 13.17,1.29 12.15,1 10.8,1 Z M 9.5,2 C 9.7761424,2 9.9999996,2.2238576 9.9999996,2.5 9.9999996,2.7761424 9.7761424,3 9.5,3 9.2238576,3 9,2.7761424 9,2.5 9,2.2238576 9.2238576,2 9.5,2 Z"
     style="fill:currentColor"
     id="path377"
     class="ColorScheme-Text" />
  <path
     d="M 5.54,6.28 C 6.14,5.43 7.11,5 8,5 8.89,5 9.88,5.43 10.46,6.28 L 8,8 Z M 10.83,7 C 10.94,7.32 11,7.65 11,8 11,9.6599996 9.66,11 8,11 6.34,11 5,9.6599996 5,8 5,7.65 5.06,7.32 5.17,7 L 8,9 Z"
     style="opacity:0.35;fill:currentColor"
     id="path349"
     class="ColorScheme-Text" />
</svg>
