<?xml version="1.0" encoding="UTF-8" standalone="no"?>
<!-- Created with Inkscape (http://www.inkscape.org/) -->

<svg
   width="16"
   height="16"
   viewBox="0 0 16 16"
   version="1.1"
   id="svg5"
   inkscape:version="1.2.2 (1:1.2.2+202305151914+b0a8486541)"
   sodipodi:docname="location-services-active-symbolic.svg"
   xmlns:inkscape="http://www.inkscape.org/namespaces/inkscape"
   xmlns:sodipodi="http://sodipodi.sourceforge.net/DTD/sodipodi-0.dtd"
   xmlns="http://www.w3.org/2000/svg"
   xmlns:svg="http://www.w3.org/2000/svg">
  <sodipodi:namedview
     id="namedview7"
     pagecolor="#ffffff"
     bordercolor="#000000"
     borderopacity="0.25"
     inkscape:showpageshadow="2"
     inkscape:pageopacity="0.0"
     inkscape:pagecheckerboard="0"
     inkscape:deskcolor="#d1d1d1"
     inkscape:document-units="px"
     showgrid="false"
     inkscape:zoom="51.875"
     inkscape:cx="8.0192771"
     inkscape:cy="8"
     inkscape:window-width="1920"
     inkscape:window-height="1008"
     inkscape:window-x="0"
     inkscape:window-y="0"
     inkscape:window-maximized="1"
     inkscape:current-layer="svg5" />
  <defs
     id="defs2" />
  <path
     id="path449"
     style="fill:#4d4d4d;fill-opacity:1"
     d="M 8 0 C 4.7367033 0 2 2.4949281 2 5.640625 C 2 5.8654648 2.0217914 6.0522183 2.0371094 6.2050781 C 2.0543824 6.377458 2.075688 6.5584639 2.109375 6.7460938 C 2.7468444 10.38139 5.3020145 12.858824 7.3203125 14.732422 L 8 15.365234 L 8.6796875 14.732422 C 10.697485 12.859224 13.253326 10.38489 13.890625 6.7460938 L 13.890625 6.7421875 C 13.919865 6.5789377 13.947101 6.3993279 13.962891 6.2050781 C 13.978211 6.0522083 14 5.8654648 14 5.640625 C 14 2.4948281 11.263297 5.9211835e-16 8 0 z M 8 2 C 10.260098 2 12 3.658927 12 5.640625 C 12 5.7348919 11.990499 5.8468795 11.974609 6.0058594 L 11.972656 6.0175781 L 11.970703 6.03125 C 11.962703 6.1375799 11.945795 6.2593183 11.921875 6.3925781 L 11.921875 6.3984375 C 11.477655 8.941035 9.7518982 10.85337 8 12.542969 C 6.2484018 10.85287 4.5224246 8.937635 4.078125 6.3984375 L 4.078125 6.3925781 C 4.057124 6.2756082 4.0393666 6.1453392 4.0253906 6.0058594 C 4.0094586 5.8468695 4 5.7348849 4 5.640625 C 4 3.658927 5.7399023 2 8 2 z M 8 4 C 6.8954316 4 6 4.8954316 6 6 C 6 7.1045684 6.8954316 8 8 8 C 9.1045684 8 10 7.1045684 10 6 C 10 4.8954316 9.1045684 4 8 4 z " />
</svg>
