<?xml version="1.0" encoding="UTF-8" standalone="no"?>
<!-- Created with Inkscape (http://www.inkscape.org/) -->

<svg
   width="16"
   height="16"
   viewBox="0 0 16 16"
   version="1.1"
   id="svg5"
   inkscape:version="1.2.2 (1:1.2.2+202305151914+b0a8486541)"
   sodipodi:docname="network-wireless-secure-signal-ok-symbolic.svg"
   xmlns:inkscape="http://www.inkscape.org/namespaces/inkscape"
   xmlns:sodipodi="http://sodipodi.sourceforge.net/DTD/sodipodi-0.dtd"
   xmlns="http://www.w3.org/2000/svg"
   xmlns:svg="http://www.w3.org/2000/svg">
  <sodipodi:namedview
     id="namedview7"
     pagecolor="#ffffff"
     bordercolor="#000000"
     borderopacity="0.25"
     inkscape:showpageshadow="2"
     inkscape:pageopacity="0.0"
     inkscape:pagecheckerboard="0"
     inkscape:deskcolor="#d1d1d1"
     inkscape:document-units="px"
     showgrid="false"
     showguides="true"
     inkscape:zoom="51.875"
     inkscape:cx="5.4457831"
     inkscape:cy="8"
     inkscape:window-width="1920"
     inkscape:window-height="1008"
     inkscape:window-x="0"
     inkscape:window-y="0"
     inkscape:window-maximized="1"
     inkscape:current-layer="svg5" />
  <defs
     id="defs2" />
  <path
     id="path346"
     style="fill:#4d4d4d;fill-opacity:1"
     d="M 8 1 C 5.7125046 1.00938 3.4847495 1.731699 1.6269531 3.0664062 C 1.0830943 3.4549956 0.5757272 3.8923979 0.11132812 4.3730469 L 8 14 L 9 12.779297 L 9 11 L 10 11 C 10 9.3662712 11.29341 8.0464057 12.916016 8.0019531 L 15.904297 4.3554688 C 15.439837 3.8747796 14.9325 3.4373773 14.388672 3.0488281 C 12.524476 1.7172309 10.290996 1.001 8 1 z M 8 3 C 9.8269496 3.0003906 11.610131 3.5572617 13.113281 4.5957031 L 11.242188 6.8828125 C 10.269397 6.3108302 9.1523017 6.000276 8 6 C 6.8476956 6.001076 5.7302076 6.3121055 4.7578125 6.8847656 L 2.890625 4.6074219 C 4.391122 3.5655239 6.1732036 3.0048 8 3 z " />
  <path
     d="M 13,8.9999999 C 11.892,8.9999999 11,9.91 11,11.031 V 12 H 9.9999996 v 4 H 16 V 12 H 15 V 11.031 C 15,9.911 14.108,8.9999999 13,8.9999999 Z m 0,0.9999997 c 0.554,0 1,0.4420014 1,1.0000004 v 1 h -2 v -1 c 0,-0.557999 0.446,-1.0000004 1,-1.0000004 z"
     id="path2053"
     style="fill:#4d4d4d;fill-opacity:1" />
</svg>
