<?xml version="1.0" encoding="UTF-8" standalone="no"?>
<!-- Created with Inkscape (http://www.inkscape.org/) -->

<svg
   width="16"
   height="16"
   viewBox="0 0 16 16"
   version="1.1"
   id="svg5"
   inkscape:version="1.2.2 (1:1.2.2+202305151914+b0a8486541)"
   sodipodi:docname="network-wired-secure-symbolic.svg"
   xmlns:inkscape="http://www.inkscape.org/namespaces/inkscape"
   xmlns:sodipodi="http://sodipodi.sourceforge.net/DTD/sodipodi-0.dtd"
   xmlns="http://www.w3.org/2000/svg"
   xmlns:svg="http://www.w3.org/2000/svg">
  <sodipodi:namedview
     id="namedview7"
     pagecolor="#ffffff"
     bordercolor="#000000"
     borderopacity="0.25"
     inkscape:showpageshadow="2"
     inkscape:pageopacity="0.0"
     inkscape:pagecheckerboard="0"
     inkscape:deskcolor="#d1d1d1"
     inkscape:document-units="px"
     showgrid="false"
     showguides="true"
     inkscape:zoom="50.375"
     inkscape:cx="7.9900744"
     inkscape:cy="8"
     inkscape:window-width="1920"
     inkscape:window-height="1008"
     inkscape:window-x="0"
     inkscape:window-y="0"
     inkscape:window-maximized="1"
     inkscape:current-layer="svg5" />
  <defs
     id="defs2" />
  <path
     id="path346"
     style="fill:#4d4d4d;fill-opacity:1"
     d="m 2,2 c 0,0 -1,1e-6 -1,1 v 9 c 0,0.999999 1,1 1,1 h 2 l 1,1 H 9 V 12 H 6 L 5,11 H 3 V 4 h 10 v 4 h 2 V 3 C 15,2.000001 14,2 14,2 Z" />
  <path
     d="M 13,9.0000003 C 11.892,9.0000003 11,9.91 11,11.031 V 12 H 9.9999999 v 4 H 16 V 12 H 15 V 11.031 C 15,9.911 14.108,9.0000003 13,9.0000003 Z M 13,10 c 0.554,0 1,0.442001 1,1 v 1 h -2 v -1 c 0,-0.557999 0.446,-1 1,-1 z"
     id="path2053"
     style="fill:#4d4d4d;fill-opacity:1" />
</svg>
