<?xml version="1.0" encoding="UTF-8" standalone="no"?>
<!-- Created with Inkscape (http://www.inkscape.org/) -->

<svg
   width="16"
   height="16"
   viewBox="0 0 16 16"
   version="1.1"
   id="svg5"
   inkscape:version="1.2.2 (1:1.2.2+202305151914+b0a8486541)"
   sodipodi:docname="network-vpn-error-symbolic.svg"
   xmlns:inkscape="http://www.inkscape.org/namespaces/inkscape"
   xmlns:sodipodi="http://sodipodi.sourceforge.net/DTD/sodipodi-0.dtd"
   xmlns="http://www.w3.org/2000/svg"
   xmlns:svg="http://www.w3.org/2000/svg">
  <sodipodi:namedview
     id="namedview7"
     pagecolor="#ffffff"
     bordercolor="#000000"
     borderopacity="0.25"
     inkscape:showpageshadow="2"
     inkscape:pageopacity="0.0"
     inkscape:pagecheckerboard="0"
     inkscape:deskcolor="#d1d1d1"
     inkscape:document-units="px"
     showgrid="false"
     showguides="true"
     inkscape:zoom="51.875"
     inkscape:cx="8"
     inkscape:cy="8"
     inkscape:window-width="1920"
     inkscape:window-height="1008"
     inkscape:window-x="0"
     inkscape:window-y="0"
     inkscape:window-maximized="1"
     inkscape:current-layer="svg5" />
  <defs
     id="defs2" />
  <path
     id="path345"
     style="fill:#4d4d4d;fill-rule:evenodd;stroke-width:1.8516;stroke-linecap:round;paint-order:stroke fill markers;stop-color:#000000;fill-opacity:1;opacity:0.35"
     d="M 8 1 C 6.3380017 1 5 2.3380017 5 4 L 5 6 L 3 6 L 3 12 L 11 12 L 11 10 L 5 10 L 5 8 L 11 8 L 11 6 L 11 4 C 11 2.3380017 9.6619983 1 8 1 z M 8 3 C 8.5539994 3 9 3.4460006 9 4 L 9 6 L 7 6 L 7 4 C 7 3.4460006 7.4460006 3 8 3 z M 2 13 L 2 15 L 6 15 L 6 16 L 10 16 L 10 15 L 11 15 L 11 13 L 2 13 z " />
  <path
     style="fill:#f44336"
     class="error"
     d="M 12,5.9999998 V 10 l 0.25,2 h 1.5 L 14,10 V 5.9999998 Z M 12,13 v 2 h 2 v -2 z"
     id="path1554" />
</svg>
