<?xml version="1.0" encoding="UTF-8" standalone="no"?>
<!-- Created with Inkscape (http://www.inkscape.org/) -->

<svg
   width="16"
   height="16"
   viewBox="0 0 16 16"
   version="1.1"
   id="svg5"
   inkscape:version="1.2.2 (1:1.2.2+202305151914+b0a8486541)"
   sodipodi:docname="night-light-symbolic.svg"
   xmlns:inkscape="http://www.inkscape.org/namespaces/inkscape"
   xmlns:sodipodi="http://sodipodi.sourceforge.net/DTD/sodipodi-0.dtd"
   xmlns="http://www.w3.org/2000/svg"
   xmlns:svg="http://www.w3.org/2000/svg">
  <sodipodi:namedview
     id="namedview7"
     pagecolor="#ffffff"
     bordercolor="#000000"
     borderopacity="0.25"
     inkscape:showpageshadow="2"
     inkscape:pageopacity="0.0"
     inkscape:pagecheckerboard="0"
     inkscape:deskcolor="#d1d1d1"
     inkscape:document-units="px"
     showgrid="false"
     inkscape:zoom="51.875"
     inkscape:cx="7.8072289"
     inkscape:cy="8"
     inkscape:window-width="1920"
     inkscape:window-height="1008"
     inkscape:window-x="0"
     inkscape:window-y="0"
     inkscape:window-maximized="1"
     inkscape:current-layer="svg5" />
  <defs
     id="defs2" />
  <path
     d="m 5.8784901,0.22268025 -1.8496,0.75977 0.76172,1.84960015 1.8496,-0.76172 -0.76172,-1.84770015 z m 4.2753999,0.00781 -0.7695299,1.84570005 1.8456999,0.76953 0.76953,-1.8457005 z M 7.9995901,2.9999929 c -2.7614237,0 -5,2.2385762 -5,5 0,2.7614241 2.2385763,5.0000011 5,5.0000011 2.7614239,0 4.9999999,-2.238577 4.9999999,-5.0000011 0,-2.7614237 -2.238576,-5 -4.9999999,-5 z m -6.99999998,0.9999999 -0.76953,1.8457 1.84569998,0.7695301 0.76953,-1.8457 z m 14.01799988,0.029297 -1.8496,0.76172 0.76172,1.8496 1.8477,-0.76172 -0.75977,-1.8495999 z m -7.8847999,1.1094 c -0.08596,0.2791149 -0.1307015,0.569286 -0.13281,0.86133 0,1.6568542 1.3431458,3.0000001 3,3.0000001 0.2920439,-0.00211 0.5822149,-0.04685 0.8613299,-0.13281 -0.381245,1.2626071 -1.5423985,2.1281261 -2.8612999,2.1328011 -1.6568542,0 -3,-1.3431472 -3,-3.0000011 0.00467,-1.3189015 0.8701934,-2.4800556 2.1328,-2.8613001 z m -5.0625,4.2207 -1.84769998,0.7617212 0.75977,1.8496 1.84959998,-0.76172 -0.76172,-1.8496012 z m 11.8539999,0.02539 -0.76953,1.8457012 1.8457,0.769529 0.76953,-1.8457 z m -9.1542999,3.7695002 -0.76953,1.845701 1.8457,0.76953 0.76953,-1.845701 z M 11.20949,13.16795 9.3598901,13.929671 10.12161,15.77737 11.97121,15.017601 11.20949,13.168 Z"
     style="fill:#4d4d4d;stroke-width:1.633;stroke-linecap:square;paint-order:fill markers stroke;fill-opacity:1"
     id="path300" />
</svg>
