<?xml version="1.0" encoding="UTF-8" standalone="no"?>
<!-- Created with Inkscape (http://www.inkscape.org/) -->

<svg
   width="16"
   height="16"
   viewBox="0 0 16 16"
   version="1.1"
   id="svg5"
   inkscape:version="1.2.2 (1:1.2.2+202305151914+b0a8486541)"
   sodipodi:docname="notification-symbolic.svg"
   xmlns:inkscape="http://www.inkscape.org/namespaces/inkscape"
   xmlns:sodipodi="http://sodipodi.sourceforge.net/DTD/sodipodi-0.dtd"
   xmlns="http://www.w3.org/2000/svg"
   xmlns:svg="http://www.w3.org/2000/svg">
  <sodipodi:namedview
     id="namedview7"
     pagecolor="#ffffff"
     bordercolor="#000000"
     borderopacity="0.25"
     inkscape:showpageshadow="2"
     inkscape:pageopacity="0.0"
     inkscape:pagecheckerboard="0"
     inkscape:deskcolor="#d1d1d1"
     inkscape:document-units="px"
     showgrid="false"
     showguides="true"
     inkscape:zoom="51.875"
     inkscape:cx="7.0072289"
     inkscape:cy="8"
     inkscape:window-width="1920"
     inkscape:window-height="1008"
     inkscape:window-x="0"
     inkscape:window-y="0"
     inkscape:window-maximized="1"
     inkscape:current-layer="svg5" />
  <defs
     id="defs2" />
  <path
     d="m 8.00003,1 c -0.55,0 -1,0.45 -1,1 0,0.03 -2.344e-4,0.069609 0.00977,0.099609 C 4.7198,2.559609 3,4.570009 3,7.000009 v 4.5 l -2,2 v 0.5 h 13.999996 v -0.5 l -2,-2 v -4.5 c 0,-2.43 -1.7198,-4.4404 -4.0098004,-4.9004 0.01,-0.03 0.00977,-0.069609 0.00977,-0.099609 0,-0.55 -0.45,-1 -1,-1 z m 0,3 c 1.662,0 3,1.338 3,3 v 5 h -6 V 7 c 0,-1.662 1.338,-3 3,-3 z m -1.7305,11 c 0.36,0.62 1.0205,1 1.7305,1 0.71,0 1.3705,-0.38 1.7305,-1 h -3.4609 z"
     style="fill:#4d4d4d;fill-opacity:1"
     id="path345" />
</svg>
