<?xml version="1.0" encoding="UTF-8" standalone="no"?>
<svg
   width="22"
   height="22"
   version="1.1"
   id="svg1"
   sodipodi:docname="goa-panel-symbolic.svg"
   inkscape:version="1.4.3 (0d15f75042, 2025-12-25)"
   xmlns:inkscape="http://www.inkscape.org/namespaces/inkscape"
   xmlns:sodipodi="http://sodipodi.sourceforge.net/DTD/sodipodi-0.dtd"
   xmlns="http://www.w3.org/2000/svg"
   xmlns:svg="http://www.w3.org/2000/svg">
  <defs
     id="defs1">
    <style
       id="current-color-scheme"
       type="text/css">
        .ColorScheme-Text { color:#dfdfdf; } .ColorScheme-Highlight { color:#4285f4; } .ColorScheme-NeutralText { color:#ff9800; } .ColorScheme-PositiveText { color:#4caf50; } .ColorScheme-NegativeText { color:#f44336; }
     </style>
  </defs>
  <sodipodi:namedview
     id="namedview1"
     pagecolor="#ffffff"
     bordercolor="#000000"
     borderopacity="0.25"
     inkscape:showpageshadow="2"
     inkscape:pageopacity="0.0"
     inkscape:pagecheckerboard="0"
     inkscape:deskcolor="#d1d1d1"
     inkscape:zoom="26.363636"
     inkscape:cx="10.981034"
     inkscape:cy="11"
     inkscape:window-width="1440"
     inkscape:window-height="828"
     inkscape:window-x="0"
     inkscape:window-y="0"
     inkscape:window-maximized="1"
     inkscape:current-layer="svg1" />
  <path
     style="fill:currentColor"
     class="ColorScheme-Text"
     d="M 10.660673,3.0075408 A 8.0082745,8.0082291 0 0 0 4.2496524,6.7031079 8.0102748,8.0102294 0 0 0 4.9857695,16.278577 8.0072743,8.007229 0 0 0 14.384266,18.24988 1.0001592,1.0001535 0 1 0 13.538131,16.437602 5.9939539,5.99392 0 0 1 6.4880086,14.958375 5.9909534,5.9909195 0 0 1 5.937921,7.7772728 a 5.9909534,5.9909195 0 0 1 6.738073,-2.5373894 5.9919536,5.9919197 0 0 1 4.323688,5.7608846 1.0001592,1.0001535 0 0 0 0,0.04101 v 0.959147 a 0.99415821,0.99415258 0 0 1 -0.50008,0.865133 0.99315805,0.99315243 0 0 1 -1.000159,0 0.99515837,0.99515274 0 0 1 -0.500079,-0.865133 v -1.000153 c 0,-2.1973377 -1.803287,-4.0006145 -4.000637,-4.0006145 -2.1973503,0 -4.0006372,1.8032768 -4.0006372,4.0006145 0,2.197337 1.8032869,4.000613 4.0006372,4.000613 1.044166,0 1.990316,-0.416064 2.70543,-1.078165 0.222036,0.26504 0.487078,0.498076 0.795127,0.676104 a 3.0044781,3.0044611 0 0 0 3.000478,0 A 3.003478,3.003461 0 0 0 19,12.000921 V 11.000768 A 8.0092746,8.0092293 0 0 0 13.237083,3.3175883 7.9842706,7.9842254 0 0 0 10.660673,3.0075408 Z m 0.338054,5.9929202 c 1.117177,0 2.000318,0.884135 2.000318,2.000307 0,1.116171 -0.883141,2.000307 -2.000318,2.000307 -1.1161783,0 -2.0003189,-0.884136 -2.0003189,-2.000307 0,-1.116172 0.8841406,-2.000307 2.0003189,-2.000307 z"
     id="path1" />
</svg>
