<?xml version="1.0" encoding="UTF-8" standalone="no"?>
<!-- Created with Inkscape (http://www.inkscape.org/) -->

<svg
   width="96"
   height="96"
   viewBox="0 0 96 96"
   version="1.1"
   id="svg5"
   inkscape:version="1.3 (0e150ed6c4, 2023-07-21)"
   sodipodi:docname="1password.svg"
   xmlns:inkscape="http://www.inkscape.org/namespaces/inkscape"
   xmlns:sodipodi="http://sodipodi.sourceforge.net/DTD/sodipodi-0.dtd"
   xmlns="http://www.w3.org/2000/svg"
   xmlns:svg="http://www.w3.org/2000/svg">
  <sodipodi:namedview
     id="namedview7"
     pagecolor="#ffffff"
     bordercolor="#000000"
     borderopacity="0.25"
     inkscape:showpageshadow="2"
     inkscape:pageopacity="0.0"
     inkscape:pagecheckerboard="0"
     inkscape:deskcolor="#d1d1d1"
     inkscape:document-units="px"
     showgrid="false"
     inkscape:zoom="8.3645833"
     inkscape:cx="48"
     inkscape:cy="48"
     inkscape:window-width="1850"
     inkscape:window-height="1011"
     inkscape:window-x="70"
     inkscape:window-y="32"
     inkscape:window-maximized="1"
     inkscape:current-layer="svg5" />
  <defs
     id="defs2" />
  <rect
     style="opacity:0.2;fill:#000000;stroke-width:6;stroke-linecap:square"
     id="rect234"
     width="84"
     height="84"
     x="6"
     y="7"
     ry="18" />
  <rect
     style="fill:#4d4d4d;fill-opacity:1;stroke-width:6;stroke-linecap:square"
     id="rect396"
     width="84"
     height="84"
     x="6"
     y="6"
     ry="18" />
  <circle
     style="opacity:0.2;fill:#000000;stroke-width:3"
     cx="48"
     cy="49"
     r="30"
     id="circle1" />
  <circle
     style="fill:#e4e4e4;stroke-width:3"
     cx="48"
     cy="48"
     r="30"
     id="circle2" />
  <circle
     style="opacity:0.2;fill:#000000;stroke-width:3"
     cx="48"
     cy="48"
     r="9"
     id="circle3" />
  <path
     id="path2"
     style="opacity:0.2;fill:#000000;fill-opacity:1;stroke-width:6;stroke-linecap:round;stroke-linejoin:round"
     d="M 45.423828,37.000578 C 44.62909,37.040598 44,37.695547 44,38.500578 v 4.5 l 3,3 -3,3 v 10.5 c 0,0.830999 0.669001,1.5 1.5,1.5 h 5 c 0.830999,0 1.5,-0.669001 1.5,-1.5 v -4.5 l -3,-3 3,-3 v -10.5 c 0,-0.830999 -0.669001,-1.5 -1.5,-1.5 h -5 c -0.0261,0 -0.05055,-0.0013 -0.07617,0 z" />
  <path
     id="path1"
     style="fill:#394045;fill-opacity:1;stroke-width:6;stroke-linecap:round;stroke-linejoin:round"
     d="M 45.423828,36.000578 C 44.62909,36.040598 44,36.695547 44,37.500578 v 4.5 l 3,3 -3,3 v 10.5 c 0,0.830999 0.669001,1.5 1.5,1.5 h 5 c 0.830999,0 1.5,-0.669001 1.5,-1.5 v -4.5 l -3,-3 3,-3 v -10.5 c 0,-0.830999 -0.669001,-1.5 -1.5,-1.5 h -5 c -0.0261,0 -0.05055,-0.0013 -0.07617,0 z" />
  <path
     id="path3"
     style="opacity:0.2;fill:#ffffff;stroke-width:3"
     d="M 48 18 A 30 30 0 0 0 18 48 A 30 30 0 0 0 18.035156 48.503906 A 30 30 0 0 1 48 19 A 30 30 0 0 1 77.982422 48.269531 A 30 30 0 0 0 78 48 A 30 30 0 0 0 48 18 z " />
  <path
     style="opacity:0.1;fill:#000000;stroke-width:3"
     d="M 48,25 C 34.780701,25 24,35.780701 24,49 24,62.219299 34.780701,73 48,73 61.219299,73 72,62.219299 72,49 72,35.780701 61.219299,25 48,25 Z m 0,6 c 9.976659,0 18,8.023341 18,18 0,9.976659 -8.023341,18 -18,18 -9.976659,0 -18,-8.023341 -18,-18 0,-9.976659 8.023341,-18 18,-18 z"
     id="path6" />
  <path
     style="fill:#0076e2;stroke-width:3"
     d="M 48,24 C 34.780701,24 24,34.780701 24,48 24,61.219299 34.780701,72 48,72 61.219299,72 72,61.219299 72,48 72,34.780701 61.219299,24 48,24 Z m 0,6 c 9.976659,0 18,8.023341 18,18 0,9.976659 -8.023341,18 -18,18 -9.976659,0 -18,-8.023341 -18,-18 0,-9.976659 8.023341,-18 18,-18 z"
     id="path7" />
  <path
     id="path1040"
     style="opacity:0.1;fill:#ffffff;stroke-width:6;stroke-linecap:square"
     d="M 24 6 C 14.02802 6 6 14.028021 6 24 L 6 25 C 6 15.028021 14.02802 7 24 7 L 72 7 C 81.971978 7 90 15.028021 90 25 L 90 24 C 90 14.028021 81.971978 6 72 6 L 24 6 z " />
</svg>
