<?xml version="1.0" encoding="UTF-8" standalone="no"?>
<!-- Created with Inkscape (http://www.inkscape.org/) -->

<svg
   width="96"
   height="96"
   viewBox="0 0 96 96"
   version="1.1"
   id="svg5"
   inkscape:version="1.3.2 (1:1.3.2+202404261509+091e20ef0f)"
   sodipodi:docname="7-days-to-die.svg"
   xmlns:inkscape="http://www.inkscape.org/namespaces/inkscape"
   xmlns:sodipodi="http://sodipodi.sourceforge.net/DTD/sodipodi-0.dtd"
   xmlns="http://www.w3.org/2000/svg"
   xmlns:svg="http://www.w3.org/2000/svg">
  <sodipodi:namedview
     id="namedview7"
     pagecolor="#ffffff"
     bordercolor="#000000"
     borderopacity="0.25"
     inkscape:showpageshadow="2"
     inkscape:pageopacity="0.0"
     inkscape:pagecheckerboard="0"
     inkscape:deskcolor="#d1d1d1"
     inkscape:document-units="px"
     showgrid="false"
     inkscape:zoom="8.3229167"
     inkscape:cx="47.939925"
     inkscape:cy="48"
     inkscape:window-width="1920"
     inkscape:window-height="1006"
     inkscape:window-x="0"
     inkscape:window-y="0"
     inkscape:window-maximized="1"
     inkscape:current-layer="svg5" />
  <defs
     id="defs2" />
  <rect
     style="opacity:0.2;fill:#000000;stroke-width:6;stroke-linecap:square"
     id="rect234"
     width="84"
     height="84"
     x="6"
     y="7"
     ry="18" />
  <rect
     style="fill:#595552;fill-opacity:1;stroke-width:6;stroke-linecap:square"
     id="rect396"
     width="84"
     height="84"
     x="6"
     y="6"
     ry="18" />
  <path
     d="m 18,16 6,12 h 30 l -6,9 3,-3 v 1.693848 l 3,-0.60087 -7.231251,6.092364 L 46.301694,38.78983 43.420815,43 45,46 37.323372,55 33,61 v 3 L 34.601694,67 30.6,70.6 32.915118,71.831455 30,79 39,65.454952 42,64 30,82 43.570059,67 45,64 V 61.103266 L 48,58 v 1.830507 L 54,57.130726 57.721095,52 57,51.104584 54,53.957749 V 52.890373 L 57.9,47.2 V 43.3 L 66,31 78,16 Z"
     style="opacity:0.2;fill:#000000;stroke-width:3"
     id="path2" />
  <path
     d="m 18,15 6,12 h 30 l -6,9 3,-3 v 1.693848 l 3,-0.60087 -7.231251,6.092364 L 46.301694,37.78983 43.420815,42 45,45 37.323372,54 33,60 v 3 L 34.601694,66 30.6,69.6 32.915118,70.831455 30,78 39,64.454952 42,63 30,81 43.570059,66 45,63 V 60.103266 L 48,57 v 1.830507 L 54,56.130726 57.721095,51 57,50.104584 54,52.957749 V 51.890373 L 57.9,46.2 V 42.3 L 66,30 78,15 Z"
     style="fill:#c6241d;stroke-width:3"
     id="path3" />
  <path
     id="path5"
     style="opacity:0.2;fill:#ffffff;stroke-width:3"
     d="M 18 15 L 18.5 16 L 77.199219 16 L 78 15 L 18 15 z M 53.333984 28 L 48 36 L 50 34 L 53.998047 28 L 53.333984 28 z M 51 36.621094 L 46.769531 40.183594 L 46.300781 37.787109 L 43.417969 42 L 43.716797 42.566406 L 46.300781 38.789062 L 46.769531 41.185547 L 51 37.621094 L 51 36.621094 z M 44.021484 46.148438 L 37.324219 54 L 33 60 L 33 61 L 37.324219 55 L 44.347656 46.765625 L 44.021484 46.148438 z M 57.152344 50.291016 L 55.835938 52.212891 L 57 51.105469 L 57.339844 51.525391 L 57.720703 51 L 57.152344 50.291016 z M 40.03125 66.953125 L 39.046875 67.429688 L 30 81 L 32.535156 78.197266 L 40.03125 66.953125 z M 33.515625 66.972656 L 30.597656 69.597656 L 31.298828 69.970703 L 33.878906 67.650391 L 33.515625 66.972656 z M 31.916016 73.300781 L 30 78 L 31.048828 76.419922 L 32.246094 73.476562 L 31.916016 73.300781 z " />
  <path
     id="path1040"
     style="opacity:0.1;fill:#ffffff;stroke-width:6;stroke-linecap:square"
     d="M 24 6 C 14.02802 6 6 14.028021 6 24 L 6 25 C 6 15.028021 14.02802 7 24 7 L 72 7 C 81.971978 7 90 15.028021 90 25 L 90 24 C 90 14.028021 81.971978 6 72 6 L 24 6 z " />
</svg>
