<?xml version="1.0" encoding="UTF-8" standalone="no"?>
<!-- Created with Inkscape (http://www.inkscape.org/) -->

<svg
   width="96"
   height="96"
   viewBox="0 0 96 96"
   version="1.1"
   id="svg5"
   inkscape:version="1.3 (0e150ed6c4, 2023-07-21)"
   sodipodi:docname="a-dance-of-fire-and-ice.svg"
   xmlns:inkscape="http://www.inkscape.org/namespaces/inkscape"
   xmlns:sodipodi="http://sodipodi.sourceforge.net/DTD/sodipodi-0.dtd"
   xmlns="http://www.w3.org/2000/svg"
   xmlns:svg="http://www.w3.org/2000/svg">
  <sodipodi:namedview
     id="namedview7"
     pagecolor="#ffffff"
     bordercolor="#000000"
     borderopacity="0.25"
     inkscape:showpageshadow="2"
     inkscape:pageopacity="0.0"
     inkscape:pagecheckerboard="0"
     inkscape:deskcolor="#d1d1d1"
     inkscape:document-units="px"
     showgrid="false"
     inkscape:zoom="8.3020833"
     inkscape:cx="47.939774"
     inkscape:cy="48"
     inkscape:window-width="1850"
     inkscape:window-height="1011"
     inkscape:window-x="0"
     inkscape:window-y="0"
     inkscape:window-maximized="1"
     inkscape:current-layer="svg5" />
  <defs
     id="defs2" />
  <rect
     style="opacity:0.2;fill:#000000;stroke-width:6;stroke-linecap:square"
     id="rect234"
     width="84"
     height="84"
     x="6"
     y="7"
     ry="18" />
  <rect
     style="fill:#3e265c;fill-opacity:1;stroke-width:6;stroke-linecap:square"
     id="rect396"
     width="84"
     height="84"
     x="6"
     y="6"
     ry="18" />
  <path
     style="fill:#2252c4;stroke-width:3"
     d="m 72,71.999142 c -21.917733,9.071451 -37.885077,5.432397 -48,-12 11.27616,0.797283 23.954268,4.809525 36,-9 z"
     id="path2" />
  <path
     style="fill:#ed2d30;stroke-width:3"
     d="m 24,23.999145 c 22.256466,-8.205368 41.57616,-5.815479 51,12 -11.236233,-1.238667 -26.422236,-4.326756 -39,9 z"
     id="path4" />
  <circle
     style="opacity:0.2;fill:#000000;stroke-width:3.85713"
     id="path7"
     cx="66"
     cy="62.5"
     r="13.5" />
  <circle
     style="opacity:0.2;fill:#000000;stroke-width:3.85713"
     id="path8"
     cx="30"
     cy="35.5"
     r="13.5" />
  <circle
     style="fill:#ff7043;fill-opacity:1;stroke-width:3.85713"
     id="path9"
     cx="30"
     cy="34.5"
     r="13.5" />
  <circle
     style="fill:#448aff;fill-opacity:1;stroke-width:3.85713"
     id="path10"
     cx="66"
     cy="61.5"
     r="13.5" />
  <path
     id="path5"
     style="opacity:0.1;fill:#ffffff;stroke-width:3"
     d="M 66 48 A 13.5 13.5 0 0 0 52.5 61.5 A 13.5 13.5 0 0 0 52.535156 62.001953 A 13.5 13.5 0 0 1 66 49 A 13.5 13.5 0 0 1 79.480469 61.78125 A 13.5 13.5 0 0 0 79.5 61.5 A 13.5 13.5 0 0 0 66 48 z " />
  <path
     id="path6"
     style="opacity:0.2;fill:#ffffff;stroke-width:3"
     d="M 30 21 A 13.5 13.5 0 0 0 16.5 34.5 A 13.5 13.5 0 0 0 16.535156 35.001953 A 13.5 13.5 0 0 1 30 22 A 13.5 13.5 0 0 1 43.480469 34.78125 A 13.5 13.5 0 0 0 43.5 34.5 A 13.5 13.5 0 0 0 30 21 z " />
  <path
     id="path1040"
     style="opacity:0.1;fill:#ffffff;stroke-width:6;stroke-linecap:square"
     d="M 24 6 C 14.02802 6 6 14.028021 6 24 L 6 25 C 6 15.02802 14.02802 7 24 7 L 72 7 C 81.971978 7 90 15.02802 90 25 L 90 24 C 90 14.028021 81.971978 6 72 6 L 24 6 z " />
</svg>
