<?xml version="1.0" encoding="UTF-8" standalone="no"?>
<!-- Created with Inkscape (http://www.inkscape.org/) -->

<svg
   width="96"
   height="96"
   viewBox="0 0 96 96"
   version="1.1"
   id="svg5"
   inkscape:version="1.3.2 (091e20ef0f, 2023-11-25, custom)"
   sodipodi:docname="AdobeIllustrator.svg"
   xmlns:inkscape="http://www.inkscape.org/namespaces/inkscape"
   xmlns:sodipodi="http://sodipodi.sourceforge.net/DTD/sodipodi-0.dtd"
   xmlns="http://www.w3.org/2000/svg"
   xmlns:svg="http://www.w3.org/2000/svg">
  <sodipodi:namedview
     id="namedview7"
     pagecolor="#ffffff"
     bordercolor="#000000"
     borderopacity="0.25"
     inkscape:showpageshadow="2"
     inkscape:pageopacity="0.0"
     inkscape:pagecheckerboard="0"
     inkscape:deskcolor="#d1d1d1"
     inkscape:document-units="px"
     showgrid="false"
     inkscape:zoom="8.28125"
     inkscape:cx="47.939623"
     inkscape:cy="48"
     inkscape:window-width="1920"
     inkscape:window-height="1008"
     inkscape:window-x="0"
     inkscape:window-y="0"
     inkscape:window-maximized="1"
     inkscape:current-layer="svg5" />
  <defs
     id="defs2" />
  <rect
     style="opacity:0.2;fill:#000000;stroke-width:6;stroke-linecap:square"
     id="rect234"
     width="84"
     height="84"
     x="6"
     y="7"
     ry="18" />
  <rect
     style="fill:#ce6f23;fill-opacity:1;stroke-width:6;stroke-linecap:square"
     id="rect396"
     width="84"
     height="84"
     x="6"
     y="6"
     ry="18" />
  <path
     id="path3"
     style="opacity:0.2;stroke-width:1.5"
     d="M 62.5,28 C 60.567005,28 59,29.567005 59,31.5 59,33.432995 60.567005,35 62.5,35 64.432995,35 66,33.432995 66,31.5 66,29.567005 64.432995,28 62.5,28 Z m -27.5,0.5 -9,42 h 9 l 1.578125,-12 h 5.210937 L 44,70.5 h 9 l -10.5,-42 z m 24,12 v 30 h 7 v -30 z M 38.75,42 40.683594,52.5 h -3.316406 z" />
  <path
     id="path4"
     style="fill:#fed642;stroke-width:1.5"
     d="m 35,27 -9,42 h 9 l 1.578125,-12 h 5.210937 L 44,69 h 9 L 42.5,27 Z m 27.5,0 C 60.567005,27 59,28.567005 59,30.5 59,32.432995 60.567005,34 62.5,34 64.432995,34 66,32.432995 66,30.5 66,28.567005 64.432995,27 62.5,27 Z M 59,39 v 30 h 7 V 39 Z M 38.75,40.5 40.683594,51 h -3.316406 z" />
  <path
     id="path1040"
     style="opacity:0.1;fill:#ffffff;stroke-width:6;stroke-linecap:square"
     d="M 24,6 C 14.02803,6 6,14.02803 6,24 v 1 C 6,15.028031 14.02803,7 24,7 h 48 c 9.971969,0 18,8.028031 18,18 V 24 C 90,14.02803 81.971969,6 72,6 Z" />
</svg>
