<?xml version="1.0" encoding="UTF-8" standalone="no"?>
<!-- Created with Inkscape (http://www.inkscape.org/) -->

<svg
   width="96"
   height="96"
   viewBox="0 0 96 96"
   version="1.1"
   id="svg5"
   inkscape:version="1.3.2 (091e20ef0f, 2023-11-25, custom)"
   sodipodi:docname="app.bluebubbles.BlueBubbles.svg"
   xmlns:inkscape="http://www.inkscape.org/namespaces/inkscape"
   xmlns:sodipodi="http://sodipodi.sourceforge.net/DTD/sodipodi-0.dtd"
   xmlns="http://www.w3.org/2000/svg"
   xmlns:svg="http://www.w3.org/2000/svg">
  <sodipodi:namedview
     id="namedview7"
     pagecolor="#ffffff"
     bordercolor="#000000"
     borderopacity="0.25"
     inkscape:showpageshadow="2"
     inkscape:pageopacity="0.0"
     inkscape:pagecheckerboard="0"
     inkscape:deskcolor="#d1d1d1"
     inkscape:document-units="px"
     showgrid="false"
     inkscape:zoom="8.5625"
     inkscape:cx="48"
     inkscape:cy="48"
     inkscape:window-width="1920"
     inkscape:window-height="1008"
     inkscape:window-x="0"
     inkscape:window-y="0"
     inkscape:window-maximized="1"
     inkscape:current-layer="svg5" />
  <defs
     id="defs2" />
  <rect
     style="opacity:0.2;fill:#000000;stroke-width:6;stroke-linecap:square"
     id="rect234"
     width="84"
     height="84"
     x="6"
     y="7"
     ry="18" />
  <rect
     style="fill:#efefef;fill-opacity:1;stroke-width:6;stroke-linecap:square"
     id="rect396"
     width="84"
     height="84"
     x="6"
     y="6"
     ry="18" />
  <path
     d="m 48,19 c -0.72237,0 -1.435242,0.03231 -2.144532,0.08203 -0.08901,0.0066 -0.17469,0.01602 -0.26367,0.02343 -10.716891,0.845729 -19.795365,7.2798 -24.380861,16.400391 l -0.0059,0.006 c -0.296708,0.590115 -0.597478,1.174827 -0.855478,1.787124 -1.404598,3.171297 -2.169994,6.537351 -2.308593,10.060548 -0.0061,0.11382 -0.0069,0.23151 -0.01173,0.345702 -0.0093,0.3366 -0.02568,0.668364 -0.02343,1.007814 C 18.004989,48.808081 18,48.9046 18,49 c 0,3.488397 0.619979,6.816585 1.705078,9.925782 0.43671,1.393797 0.939826,2.804238 1.546875,4.230468 1.512089,3.552297 1.696944,4.520985 1.458984,7.488282 -0.165782,2.067537 -0.723238,4.178589 -1.423828,5.367186 -0.635189,1.07766 -1.154297,2.189577 -1.154297,2.472657 0,0.87534 5.062767,0.56595 9.539063,-0.580077 5.243694,-1.34256 5.702058,-1.337772 10.001952,0.0117 1.96698,0.61725 4.211844,0.951168 6.744141,1.042968 0.10596,0.0054 0.21603,0.0017 0.322266,0.006 0.34659,0.0096 0.679089,0.03516 1.037109,0.03516 0.0291,0 0.05295,-0.0057 0.08202,-0.006 C 47.905545,78.994348 47.95377,79 48,79 c 0.83772,0 1.664415,-0.04464 2.484375,-0.11133 7.416594,-0.52746 13.370826,-3.272406 18.732423,-8.625 4.417194,-4.409997 7.156482,-9.854088 8.238279,-15.550782 0.09969,-0.52062 0.17937,-1.046193 0.25194,-1.576173 0.04389,-0.32535 0.08994,-0.646227 0.12306,-0.972654 0.07275,-0.70002 0.11646,-1.413165 0.14061,-2.126955 0.0054,-0.17988 0.0156,-0.359091 0.0177,-0.539061 C 77.990964,49.330438 78,49.16818 78,49 78,32.657515 65.059755,19.454078 48.826173,19.017578 c -0.12609,-0.0037 -0.25473,-0.0038 -0.380859,-0.0058 C 48.295344,19.009532 48.15051,19 48,19 Z"
     style="opacity:0.2;fill:#000000;fill-opacity:1;stroke-width:3"
     id="path1" />
  <path
     d="m 48,18 c -0.72237,0 -1.435242,0.03231 -2.144532,0.08203 -0.08901,0.0066 -0.17469,0.01602 -0.26367,0.02343 -10.716891,0.845729 -19.795365,7.2798 -24.380861,16.400391 l -0.0059,0.006 c -0.296708,0.590115 -0.597478,1.174827 -0.855478,1.787124 -1.404598,3.171297 -2.169994,6.537351 -2.308593,10.060548 -0.0061,0.11382 -0.0069,0.23151 -0.01173,0.345702 -0.0093,0.3366 -0.02568,0.668364 -0.02343,1.007814 C 18.004989,47.808081 18,47.9046 18,48 c 0,3.488397 0.619979,6.816585 1.705078,9.925782 0.43671,1.393797 0.939826,2.804238 1.546875,4.230468 1.512089,3.552297 1.696944,4.520985 1.458984,7.488282 -0.165782,2.067537 -0.723238,4.178589 -1.423828,5.367186 -0.635189,1.07766 -1.154297,2.189577 -1.154297,2.472657 0,0.87534 5.062767,0.56595 9.539063,-0.580077 5.243694,-1.34256 5.702058,-1.337772 10.001952,0.0117 1.96698,0.61725 4.211844,0.951168 6.744141,1.042968 0.10596,0.0054 0.21603,0.0017 0.322266,0.006 0.34659,0.0096 0.679089,0.03516 1.037109,0.03516 0.0291,0 0.05295,-0.0057 0.08202,-0.006 C 47.905545,77.994348 47.95377,78 48,78 c 0.83772,0 1.664415,-0.04464 2.484375,-0.11133 7.416594,-0.52746 13.370826,-3.272406 18.732423,-8.625 4.417194,-4.409997 7.156482,-9.854088 8.238279,-15.550782 0.09969,-0.52062 0.17937,-1.046193 0.25194,-1.576173 0.04389,-0.32535 0.08994,-0.646227 0.12306,-0.972654 0.07275,-0.70002 0.11646,-1.413165 0.14061,-2.126955 0.0054,-0.17988 0.0156,-0.359091 0.0177,-0.539061 C 77.990964,48.330438 78,48.16818 78,48 78,31.657515 65.059755,18.454078 48.826173,18.017578 c -0.12609,-0.0037 -0.25473,-0.0038 -0.380859,-0.0059 C 48.295344,18.009532 48.15051,18 48,18 Z"
     style="fill:#248afd;fill-opacity:1;stroke-width:3"
     id="path2" />
  <path
     id="path3"
     style="opacity:0.2;fill:#000000;stroke-width:3"
     d="m 30,43 a 6,6 0 0 0 -6,6 6,6 0 0 0 6,6 6,6 0 0 0 6,-6 6,6 0 0 0 -6,-6 z m 18,0 a 6,6 0 0 0 -6,6 6,6 0 0 0 6,6 6,6 0 0 0 6,-6 6,6 0 0 0 -6,-6 z m 18,0 a 6,6 0 0 0 -6,6 6,6 0 0 0 6,6 6,6 0 0 0 6,-6 6,6 0 0 0 -6,-6 z" />
  <path
     id="path4"
     style="opacity:1;fill:#ffffff;stroke-width:3"
     d="m 30,42 a 6,6 0 0 0 -6,6 6,6 0 0 0 6,6 6,6 0 0 0 6,-6 6,6 0 0 0 -6,-6 z m 18,0 a 6,6 0 0 0 -6,6 6,6 0 0 0 6,6 6,6 0 0 0 6,-6 6,6 0 0 0 -6,-6 z m 18,0 a 6,6 0 0 0 -6,6 6,6 0 0 0 6,6 6,6 0 0 0 6,-6 6,6 0 0 0 -6,-6 z" />
  <path
     id="path5"
     style="fill:#ffffff;fill-opacity:1;stroke-width:3;opacity:0.2"
     d="M 48 18 C 47.277631 18 46.564758 18.032311 45.855469 18.082031 C 45.766459 18.088631 45.680777 18.098059 45.591797 18.105469 C 34.874917 18.951197 25.796429 25.385277 21.210938 34.505859 L 21.205078 34.511719 C 20.90837 35.101833 20.607609 35.686532 20.349609 36.298828 C 18.945013 39.470122 18.179614 42.836182 18.041016 46.359375 C 18.034916 46.473195 18.034127 46.590886 18.029297 46.705078 C 18.019997 47.041678 18.003609 47.373441 18.005859 47.712891 C 18.005042 47.807931 18 47.9046 18 48 C 18 48.164342 18.008983 48.32661 18.011719 48.490234 C 18.015402 48.227954 18.022052 47.967307 18.029297 47.705078 C 18.034127 47.590886 18.034916 47.473195 18.041016 47.359375 C 18.179614 43.836182 18.945013 40.470122 20.349609 37.298828 C 20.607609 36.686532 20.90837 36.101833 21.205078 35.511719 L 21.210938 35.505859 C 25.796429 26.385277 34.874917 19.951197 45.591797 19.105469 C 45.680777 19.098059 45.766459 19.088631 45.855469 19.082031 C 46.564758 19.032311 47.277631 19 48 19 C 48.15051 19 48.295343 19.009573 48.445312 19.011719 C 48.571441 19.013819 48.700082 19.013878 48.826172 19.017578 C 64.892593 19.449583 77.725566 32.388829 77.988281 48.498047 C 77.990881 48.33044 78 48.16818 78 48 C 77.999997 31.657505 65.059738 18.454078 48.826172 18.017578 C 48.700082 18.013878 48.571441 18.013819 48.445312 18.011719 C 48.295343 18.009619 48.15051 18 48 18 z M 22.783203 68.460938 C 22.769358 68.824967 22.745879 69.208825 22.710938 69.644531 C 22.545156 71.712066 21.987699 73.823123 21.287109 75.011719 C 20.651921 76.089378 20.132812 77.201295 20.132812 77.484375 C 20.132812 77.598165 20.22216 77.691111 20.380859 77.765625 C 20.591813 77.282342 20.910142 76.651281 21.287109 76.011719 C 21.987699 74.823123 22.545156 72.712066 22.710938 70.644531 C 22.779984 69.783537 22.807448 69.097334 22.783203 68.460938 z " />
  <path
     id="path1040"
     style="opacity:0.2;fill:#ffffff;stroke-width:6;stroke-linecap:square"
     d="M 24 6 C 14.02802 6 6 14.028021 6 24 L 6 25 C 6 15.028021 14.02802 7 24 7 L 72 7 C 81.971978 7 90 15.028021 90 25 L 90 24 C 90 14.028021 81.971978 6 72 6 L 24 6 z " />
</svg>
