<?xml version="1.0" encoding="UTF-8" standalone="no"?>
<!-- Created with Inkscape (http://www.inkscape.org/) -->

<svg
   width="96"
   height="96"
   viewBox="0 0 96 96"
   version="1.1"
   id="svg5"
   inkscape:version="1.3 (0e150ed6c4, 2023-07-21)"
   sodipodi:docname="AppImage.svg"
   xmlns:inkscape="http://www.inkscape.org/namespaces/inkscape"
   xmlns:sodipodi="http://sodipodi.sourceforge.net/DTD/sodipodi-0.dtd"
   xmlns="http://www.w3.org/2000/svg"
   xmlns:svg="http://www.w3.org/2000/svg">
  <sodipodi:namedview
     id="namedview7"
     pagecolor="#ffffff"
     bordercolor="#000000"
     borderopacity="0.25"
     inkscape:showpageshadow="2"
     inkscape:pageopacity="0.0"
     inkscape:pagecheckerboard="0"
     inkscape:deskcolor="#d1d1d1"
     inkscape:document-units="px"
     showgrid="false"
     inkscape:zoom="8.3645833"
     inkscape:cx="48"
     inkscape:cy="48"
     inkscape:window-width="1850"
     inkscape:window-height="1011"
     inkscape:window-x="70"
     inkscape:window-y="32"
     inkscape:window-maximized="1"
     inkscape:current-layer="svg5" />
  <defs
     id="defs2" />
  <rect
     style="opacity:0.2;fill:#000000;stroke-width:6;stroke-linecap:square"
     id="rect234"
     width="84"
     height="84"
     x="6"
     y="7"
     ry="18" />
  <rect
     style="fill:#a8dae8;fill-opacity:1;stroke-width:6;stroke-linecap:square"
     id="rect396"
     width="84"
     height="84"
     x="6"
     y="6"
     ry="18" />
  <path
     id="path1250"
     style="opacity:0.2;fill:#000000;stroke-width:2.99997"
     d="m 41.847657,19 c -0.637494,0.0693 -1.201359,0.589659 -1.318359,1.21875 l -1.265625,6.421875 C 36.988272,27.529141 34.854534,28.750018 32.976564,30.25 l -6.251955,-2.109375 c -0.648891,-0.22335 -1.432653,0.0663 -1.78125,0.65625 l -6.011718,10.40625 c -0.338547,0.598494 -0.18816,1.426503 0.333984,1.875 l 4.974609,4.359375 c -0.17529,1.168845 -0.2871,2.344812 -0.2871,3.5625 0,1.217595 0.11193,2.393562 0.2871,3.5625 l -4.974609,4.359375 c -0.522144,0.448494 -0.672531,1.276506 -0.333984,1.875 l 6.011718,10.40625 c 0.348597,0.590124 1.132449,0.879597 1.78125,0.65625 L 32.976564,67.75 c 1.87707,1.499922 4.011036,2.720784 6.287109,3.609375 l 1.265625,6.421875 c 0.12849,0.672204 0.77346,1.20945 1.458984,1.21875 h 12.023436 c 0.685494,-0.009 1.324608,-0.546546 1.453125,-1.21875 l 1.271484,-6.421875 C 59.0124,70.470844 61.146366,69.249832 63.023436,67.75 l 6.246096,2.109375 c 0.648834,0.22335 1.438542,-0.06618 1.787109,-0.65625 l 6.011718,-10.40625 c 0.338577,-0.598494 0.18807,-1.426806 -0.333984,-1.875 L 71.759766,52.5625 c 0.17529,-1.168848 0.28125,-2.344815 0.28125,-3.5625 0,-1.217598 -0.10605,-2.393565 -0.28125,-3.5625 l 4.980468,-4.359375 c 0.522054,-0.448167 0.666672,-1.276446 0.328125,-1.875 l -6.011718,-10.40625 c -0.347997,-0.590094 -1.133259,-0.879597 -1.78125,-0.65625 L 63.029298,30.25 C 61.151322,28.750018 59.0118,27.529063 56.736327,26.640625 L 55.470702,20.21875 C 55.341702,19.546609 54.703068,19.0093 54.017577,19 H 41.994141 c -0.04689,-0.0015 -0.09375,-0.0015 -0.14061,0 z" />
  <path
     id="path1082"
     style="fill:#1fa5cd;fill-opacity:1;stroke-width:2.99997"
     d="m 41.853516,18 -0.006,0.006 c -0.637494,0.0693 -1.201359,0.5838 -1.318359,1.212891 l -1.265625,6.421875 C 36.988413,26.52915 34.854534,27.750024 32.976564,29.25 l -6.251955,-2.109375 c -0.648891,-0.22335 -1.432653,0.0663 -1.78125,0.65625 l -6.011718,10.40625 c -0.338547,0.598494 -0.18816,1.426506 0.333984,1.875 l 4.974609,4.359375 c -0.17529,1.168848 -0.2871,2.344815 -0.2871,3.5625 0,1.217595 0.11193,2.393562 0.2871,3.5625 l -4.974609,4.359375 c -0.522144,0.448494 -0.672531,1.276506 -0.333984,1.875 l 6.011718,10.40625 c 0.348597,0.590124 1.132449,0.879597 1.78125,0.65625 L 32.976564,66.75 c 1.87707,1.499922 4.011036,2.720784 6.287109,3.609375 l 1.265625,6.421875 c 0.12849,0.672204 0.77346,1.20945 1.458984,1.21875 h 12.023436 c 0.685494,-0.009 1.324608,-0.546546 1.453125,-1.21875 l 1.271484,-6.421875 C 59.0124,69.470844 61.146366,68.249835 63.023436,66.75 l 6.246096,2.109375 c 0.648834,0.22335 1.438542,-0.06621 1.787109,-0.65625 l 6.011718,-10.40625 c 0.338577,-0.598494 0.18807,-1.426806 -0.333984,-1.875 L 71.759766,51.5625 c 0.17529,-1.168845 0.28125,-2.344815 0.28125,-3.5625 0,-1.217598 -0.10605,-2.393562 -0.28125,-3.5625 l 4.980468,-4.359375 c 0.522054,-0.448167 0.666672,-1.276446 0.328125,-1.875 l -6.011718,-10.40625 c -0.347997,-0.590094 -1.133259,-0.879597 -1.78125,-0.65625 L 63.029298,29.25 C 61.151322,27.750024 59.0118,26.529063 56.736327,25.640625 L 55.470702,19.21875 C 55.341702,18.546609 54.703068,18.0093 54.017577,18 H 41.994141 c -0.04689,-0.0015 -0.09375,-0.0015 -0.14061,0 z" />
  <path
     id="path1082-5"
     style="opacity:0.2;fill:#ffffff;fill-opacity:1;stroke-width:2.99997"
     d="M 41.853516 18 L 41.847656 18.005859 C 41.210163 18.075159 40.646297 18.58966 40.529297 19.21875 L 39.263672 25.640625 C 36.988555 26.529005 34.854528 27.750025 32.976562 29.25 L 26.724609 27.140625 C 26.075719 26.917275 25.291956 27.206926 24.943359 27.796875 L 18.931641 38.203125 C 18.72403 38.570146 18.70283 39.022682 18.835938 39.421875 C 18.86229 39.346892 18.892204 39.272842 18.931641 39.203125 L 24.943359 28.796875 C 25.291956 28.206926 26.075719 27.917275 26.724609 28.140625 L 32.976562 30.25 C 34.854531 28.750025 36.988555 27.529008 39.263672 26.640625 L 40.529297 20.21875 C 40.646297 19.58966 41.210163 19.075159 41.847656 19.005859 L 41.853516 19 C 41.900376 18.9985 41.947251 18.9985 41.994141 19 L 54.017578 19 C 54.703068 19.0093 55.341703 19.54661 55.470703 20.21875 L 56.736328 26.640625 C 59.011799 27.529062 61.151323 28.750025 63.029297 30.25 L 69.275391 28.140625 C 69.923381 27.917278 70.708644 28.206782 71.056641 28.796875 L 77.068359 39.203125 C 77.108229 39.273615 77.141329 39.347962 77.167969 39.423828 C 77.300031 39.024202 77.276274 38.57072 77.068359 38.203125 L 71.056641 27.796875 C 70.708644 27.206782 69.923381 26.917278 69.275391 27.140625 L 63.029297 29.25 C 61.151323 27.750025 59.011799 26.529059 56.736328 25.640625 L 55.470703 19.21875 C 55.341703 18.54661 54.703068 18.0093 54.017578 18 L 41.994141 18 C 41.947251 17.9985 41.900376 17.9985 41.853516 18 z M 23.988281 47.214844 C 23.978081 47.477013 23.953125 47.734224 23.953125 48 C 23.953125 48.169885 23.968949 48.334165 23.974609 48.501953 C 23.98506 48.081994 23.995423 47.662473 24.029297 47.25 L 23.988281 47.214844 z M 72.005859 47.220703 L 71.96875 47.253906 C 72.001138 47.661242 72.009458 48.075628 72.019531 48.490234 C 72.025074 48.326317 72.041016 48.165938 72.041016 48 C 72.041016 47.73621 72.015519 47.480926 72.005859 47.220703 z M 72.005859 51.779297 C 71.994126 52.098207 71.970954 52.412784 71.949219 52.728516 L 76.734375 56.921875 C 76.941493 57.09969 77.071482 57.344127 77.154297 57.603516 C 77.368492 57.030084 77.202536 56.323801 76.734375 55.921875 L 72.005859 51.779297 z M 23.988281 51.785156 L 19.265625 55.921875 C 18.797383 56.32407 18.63151 57.030131 18.845703 57.603516 C 18.92851 57.344141 19.058471 57.099809 19.265625 56.921875 L 24.046875 52.730469 C 24.02431 52.416274 24.00057 52.102483 23.988281 51.785156 z " />
  <path
     style="opacity:0.2;fill:#000000;stroke-width:3"
     d="M 43.970145,34 C 43.020426,34 42,34.729819 42,35.636365 v 16.362816 h -7.5 l 13.5,15 13.5,-15 H 54 V 35.636365 C 54,34.729819 52.979574,34 52.029858,34 Z"
     id="path4" />
  <path
     style="fill:#ffffff;stroke-width:3"
     d="M 43.970145,33 C 43.020426,33 42,33.729819 42,34.636362 v 16.362819 h -7.5 l 13.5,15 13.5,-15 H 54 V 34.636362 C 54,33.729819 52.979574,33 52.029858,33 Z"
     id="path5" />
  <path
     d="M 24,6.0000003 C 14.02801,6.0000003 6,14.028011 6,24 v 1 C 6,15.02801 14.02801,7 24,7 h 48 c 9.971988,0 18,8.02801 18,18 V 24 C 90,14.028011 81.971988,6.0000003 72,6.0000003 Z"
     style="opacity:0.2;fill:#ffffff;stroke-width:6;stroke-linecap:square"
     id="path1040"
     sodipodi:nodetypes="sscsscsss" />
</svg>
