<?xml version="1.0" encoding="UTF-8" standalone="no"?>
<!-- Created with Inkscape (http://www.inkscape.org/) -->

<svg
   width="96"
   height="96"
   viewBox="0 0 96 96"
   version="1.1"
   id="svg5"
   inkscape:version="1.3 (0e150ed6c4, 2023-07-21)"
   sodipodi:docname="applications-education.svg"
   xmlns:inkscape="http://www.inkscape.org/namespaces/inkscape"
   xmlns:sodipodi="http://sodipodi.sourceforge.net/DTD/sodipodi-0.dtd"
   xmlns="http://www.w3.org/2000/svg"
   xmlns:svg="http://www.w3.org/2000/svg">
  <sodipodi:namedview
     id="namedview7"
     pagecolor="#ffffff"
     bordercolor="#000000"
     borderopacity="0.25"
     inkscape:showpageshadow="2"
     inkscape:pageopacity="0.0"
     inkscape:pagecheckerboard="0"
     inkscape:deskcolor="#d1d1d1"
     inkscape:document-units="px"
     showgrid="false"
     inkscape:zoom="8.15625"
     inkscape:cx="47.938697"
     inkscape:cy="48"
     inkscape:window-width="1920"
     inkscape:window-height="984"
     inkscape:window-x="0"
     inkscape:window-y="29"
     inkscape:window-maximized="1"
     inkscape:current-layer="svg5"
     showguides="false" />
  <defs
     id="defs2" />
  <rect
     style="opacity:0.2;fill:#000000;stroke-width:6;stroke-linecap:square"
     id="rect234"
     width="84"
     height="84"
     x="6"
     y="7"
     ry="18" />
  <rect
     style="fill:#896a52;fill-opacity:1;stroke-width:6;stroke-linecap:square"
     id="rect396"
     width="84"
     height="84"
     x="6"
     y="6"
     ry="18" />
  <rect
     style="opacity:0.2;fill:#000000;fill-opacity:1;stroke-width:6;stroke-linecap:square"
     id="rect2332"
     width="66"
     height="66"
     x="15"
     y="16"
     ry="9" />
  <rect
     style="fill:#414f3b;fill-opacity:1;stroke-width:6;stroke-linecap:square"
     id="rect2278"
     width="66"
     height="66"
     x="15"
     y="15"
     ry="9" />
  <path
     id="path1040"
     style="opacity:0.1;fill:#ffffff;stroke-width:6;stroke-linecap:square"
     d="M 24 6 C 14.02802 6 6 14.028021 6 24 L 6 25 C 6 15.02802 14.02802 7 24 7 L 72 7 C 81.971978 7 90 15.02802 90 25 L 90 24 C 90 14.028021 81.971978 6 72 6 L 24 6 z " />
  <path
     id="rect1"
     style="opacity:0.2;fill:#000000;fill-opacity:1;stroke-width:3;stroke-linecap:round;stroke-linejoin:round"
     d="M 46.5 76 C 45.669001 76 45 76.669001 45 77.5 L 45 80.5 C 45 81.330999 45.669001 82 46.5 82 L 70.5 82 C 71.330999 82 72 81.330999 72 80.5 L 72 77.5 C 72 76.669001 71.330999 76 70.5 76 L 46.5 76 z M 25.5 77 C 24.669001 77 24 77.669001 24 78.5 L 24 80.5 C 24 81.330999 24.669001 82 25.5 82 L 37.5 82 C 38.330999 82 39 81.330999 39 80.5 L 39 78.5 C 39 77.669001 38.330999 77 37.5 77 L 25.5 77 z " />
  <rect
     style="opacity:1;fill:#29b6f6;fill-opacity:1;stroke-width:3;stroke-linecap:round;stroke-linejoin:round"
     id="rect2"
     width="15"
     height="5"
     x="24"
     y="76"
     ry="1.5" />
  <rect
     style="opacity:1;fill:#e4e4e4;fill-opacity:1;stroke-width:3;stroke-linecap:round;stroke-linejoin:round"
     id="rect3"
     width="26.999996"
     height="6"
     x="45"
     y="75"
     ry="1.5" />
</svg>
