<?xml version="1.0" encoding="UTF-8" standalone="no"?>
<!-- Created with Inkscape (http://www.inkscape.org/) -->

<svg
   width="96"
   height="96"
   viewBox="0 0 96 96"
   version="1.1"
   id="svg5"
   inkscape:version="1.3 (0e150ed6c4, 2023-07-21)"
   sodipodi:docname="BadlionClient.svg"
   xmlns:inkscape="http://www.inkscape.org/namespaces/inkscape"
   xmlns:sodipodi="http://sodipodi.sourceforge.net/DTD/sodipodi-0.dtd"
   xmlns="http://www.w3.org/2000/svg"
   xmlns:svg="http://www.w3.org/2000/svg">
  <sodipodi:namedview
     id="namedview7"
     pagecolor="#ffffff"
     bordercolor="#000000"
     borderopacity="0.25"
     inkscape:showpageshadow="2"
     inkscape:pageopacity="0.0"
     inkscape:pagecheckerboard="0"
     inkscape:deskcolor="#d1d1d1"
     inkscape:document-units="px"
     showgrid="false"
     inkscape:zoom="8.3645833"
     inkscape:cx="48"
     inkscape:cy="48"
     inkscape:window-width="1850"
     inkscape:window-height="1011"
     inkscape:window-x="70"
     inkscape:window-y="32"
     inkscape:window-maximized="1"
     inkscape:current-layer="svg5" />
  <defs
     id="defs2" />
  <rect
     style="opacity:0.2;fill:#000000;stroke-width:6;stroke-linecap:square"
     id="rect234"
     width="84"
     height="84"
     x="6"
     y="7"
     ry="18" />
  <rect
     style="fill:#10a5f1;fill-opacity:1;stroke-width:6;stroke-linecap:square"
     id="rect396"
     width="84"
     height="84"
     x="6"
     y="6"
     ry="18" />
  <path
     style="opacity:0.1;fill:#000000;stroke-width:1.5"
     d="m 50.517651,78.000002 c -0.555702,-1.593831 -1.276914,-4.247413 -1.61352,-1.115697 -0.28155,1.876731 -0.810483,-2.909734 -1.284174,-0.0039 -0.29118,0.513846 -0.17832,-3.669742 -1.081608,-1.318494 -0.22956,3.086385 -2.425732,1.13985 -3.069499,-0.15555 -0.603438,2.192307 -0.15393,-1.479841 -1.050123,0.474831 -1.938516,3.314295 -0.483399,-4.853008 -2.594214,-1.283899 -1.309545,2.080171 -0.600093,-0.929769 -1.824531,-0.799554 -1.614312,1.358011 -1.357584,-2.072388 -3.397938,-1.324893 -0.784122,-1.17105 -1.29281,-3.838182 -3.040778,-2.858298 0.568128,-2.123385 -1.913388,-3.803973 -3.13908,-4.817229 -1.390277,0.641343 -2.196341,0.521496 -1.319874,-1.090386 0.714603,-1.578892 -0.48288,-2.614399 -0.555785,-4.224406 -1.997241,6.84e-4 0.677603,-2.975496 -1.926483,-2.382642 -0.262566,-0.990588 2.321055,-2.675328 -0.365076,-2.689287 -1.026732,-0.672593 2.322258,-2.229764 -0.225695,-1.700501 1.508424,-0.782079 -2.146477,-2.097177 -0.670695,-3.108666 2.663934,-0.666978 -0.342964,-1.691784 0.184896,-1.817667 1.597566,-0.501933 -1.182942,-1.165347 0.630231,-1.467636 -0.529105,-1.327965 -1.609449,-1.72032 -0.520123,-3.305932 -0.26471,-1.581648 -1.169982,-3.457425 0.171402,-4.779294 -0.728964,-1.248321 -1.21938,-1.600704 0.250551,-2.354346 0.0533,-2.322747 1.206636,-4.760047 1.24221,-6.974455 1.966455,-1.413327 2.493767,-4.530647 5.126951,-4.970049 1.862349,-1.570779 5.052332,-1.364411 7.076981,-2.492507 0.792615,0.762696 2.430645,-0.545382 2.916213,-0.432594 1.175019,1.609854 4.016895,-1.259667 5.220637,1.219082 1.174068,1.252758 1.536735,-2.251306 2.343564,-0.04528 0.959907,1.514241 2.326278,-1.957448 3.431676,0.0129 2.81337,-0.203172 5.646841,-0.464387 8.425774,-0.913325 0.479625,2.027436 3.088428,-1.723899 2.511621,1.090218 2.230679,0.917777 5.118245,0.763058 6.424622,3.130712 1.060458,1.381533 3.435204,3.072318 2.586966,4.455978 1.670607,0.381099 1.194507,1.29246 1.010049,2.273601 -0.382842,1.52443 1.46736,2.831416 0.52065,4.272685 1.782555,1.43553 -1.096404,2.860488 0.859926,4.363563 1.020852,0.952206 -1.809744,0.859668 -0.58608,2.491113 1.250352,1.52407 -0.54597,1.633369 -0.570105,3.05803 2.20368,0.04917 -1.477395,1.062561 0.914529,1.582878 -2.420919,0.0015 -0.189,1.53072 0.03507,2.176641 -0.347703,1.268037 -1.656426,2.059293 -0.950241,2.631159 -2.765292,-0.921999 2.029581,1.889258 -1.04448,1.899704 -1.524927,0.25791 2.37801,2.951895 -0.505746,2.486811 -1.069386,0.546258 1.242705,2.41959 -0.950376,2.298483 -0.19764,1.267494 -0.412602,2.422941 -1.290459,3.140091 0.28518,1.365958 1.482942,4.043788 -1.070136,2.621623 -1.119117,-0.428712 -2.783679,1.408098 -2.878581,2.512461 0.357039,1.314555 0.542409,2.568771 -1.120913,1.399698 -1.964562,0.29451 -0.898029,3.788787 -3.521874,2.959929 -0.604083,1.486929 -1.144539,1.500912 -2.439198,1.177449 -0.05181,1.748278 -0.313155,3.655117 -1.772401,1.443804 -1.315404,-2.002344 -0.715482,3.142423 -2.028588,0.654097 -1.362042,-2.544283 -0.0261,3.165684 -1.207641,0.438648 -0.415962,1.230879 -1.206018,1.924872 -2.268483,2.160306 z"
     id="path3" />
  <path
     style="fill:#2c2c2c;stroke-width:1.5"
     d="m 50.517651,77.000002 c -0.555702,-1.593832 -1.276914,-4.247413 -1.61352,-1.115697 -0.28155,1.876731 -0.810483,-2.909734 -1.284174,-0.0039 -0.29118,0.513846 -0.17832,-3.669742 -1.081608,-1.318495 -0.22956,3.086386 -2.425732,1.139851 -3.069499,-0.15555 -0.603438,2.192308 -0.15393,-1.47984 -1.050123,0.474831 -1.938516,3.314296 -0.483399,-4.853007 -2.594214,-1.283898 -1.309545,2.080171 -0.600093,-0.929769 -1.824531,-0.799554 -1.614312,1.35801 -1.357584,-2.072388 -3.397938,-1.324893 -0.784122,-1.17105 -1.29281,-3.838182 -3.040778,-2.858298 0.568128,-2.123385 -1.913388,-3.803973 -3.13908,-4.817229 -1.390277,0.641343 -2.196341,0.521496 -1.319874,-1.090387 0.714603,-1.578891 -0.48288,-2.614398 -0.555785,-4.224405 -1.997241,6.84e-4 0.677603,-2.975495 -1.926483,-2.382641 -0.262566,-0.990588 2.321055,-2.675328 -0.365076,-2.689287 -1.026732,-0.672594 2.322258,-2.229765 -0.225695,-1.700502 1.508424,-0.782079 -2.146477,-2.097177 -0.670695,-3.108666 2.663934,-0.666978 -0.342964,-1.691784 0.184896,-1.817667 1.597566,-0.501933 -1.182942,-1.165347 0.630231,-1.467636 -0.529105,-1.327966 -1.609449,-1.720321 -0.520123,-3.305932 -0.26471,-1.581648 -1.169982,-3.457425 0.171402,-4.779294 -0.728964,-1.248321 -1.21938,-1.600704 0.250551,-2.354346 0.0533,-2.322748 1.206636,-4.760047 1.24221,-6.974455 1.966455,-1.413327 2.493767,-4.530647 5.126951,-4.970049 1.862349,-1.570781 5.052332,-1.364411 7.076981,-2.492507 0.792615,0.762695 2.430645,-0.545382 2.916213,-0.432594 1.175019,1.609854 4.016895,-1.259669 5.220637,1.219082 1.174068,1.252758 1.536735,-2.251306 2.343564,-0.04528 0.959907,1.514241 2.326278,-1.957448 3.431676,0.0129 2.81337,-0.203172 5.646841,-0.464388 8.425774,-0.913327 0.479625,2.027437 3.088428,-1.723899 2.511621,1.09022 2.230679,0.917775 5.118245,0.763056 6.424622,3.13071 1.060458,1.381535 3.435204,3.07232 2.586966,4.45598 1.670607,0.381099 1.194507,1.29246 1.010049,2.273601 -0.382842,1.524429 1.46736,2.831416 0.52065,4.272685 1.782555,1.43553 -1.096404,2.860488 0.859926,4.363563 1.020852,0.952206 -1.809744,0.859668 -0.58608,2.491113 1.250352,1.524069 -0.54597,1.633368 -0.570105,3.05803 2.20368,0.04917 -1.477395,1.062561 0.914529,1.582878 -2.420919,0.0015 -0.189,1.53072 0.03507,2.176641 -0.347703,1.268037 -1.656426,2.059293 -0.950241,2.631159 -2.765292,-0.921999 2.029581,1.889259 -1.04448,1.899705 -1.524927,0.25791 2.37801,2.951894 -0.505746,2.486811 -1.069386,0.546257 1.242705,2.419589 -0.950376,2.298482 -0.19764,1.267494 -0.412602,2.422941 -1.290459,3.140091 0.28518,1.365957 1.482942,4.043788 -1.070136,2.621623 -1.119117,-0.428712 -2.783679,1.408098 -2.878581,2.512461 0.357039,1.314555 0.542409,2.568771 -1.120913,1.399698 -1.964562,0.29451 -0.898029,3.788787 -3.521874,2.959929 -0.604083,1.486929 -1.144539,1.500912 -2.439198,1.177449 -0.05181,1.748277 -0.313155,3.655117 -1.772401,1.443804 -1.315404,-2.002344 -0.715482,3.142423 -2.028588,0.654096 -1.362042,-2.544282 -0.0261,3.165685 -1.207641,0.438648 -0.415962,1.23088 -1.206018,1.924873 -2.268483,2.160307 z"
     id="path4" />
  <path
     style="opacity:0.2;fill:#000000;stroke-width:1.5"
     d="m 47.933136,31.004246 c -0.17349,0.0279 -0.356454,0.20211 -0.568638,0.652236 -1.587168,-2.382726 -2.172588,3.336952 -3.017554,0.292651 -0.762684,-2.072974 -0.25491,2.733924 -1.474659,0.53517 -1.254231,-1.969186 -2.157828,-1.042801 -3.16161,0.468273 -2.170065,0.74478 -4.448682,1.986087 -5.493015,4.448592 l -1.364723,1.726752 c -2.402358,1.281144 3.15542,4.06359 -0.629289,3.913422 1.398603,0.649284 2.047706,1.223767 0.23505,2.036149 -0.815577,1.388646 0.470787,2.827479 -0.458697,4.281357 0.520773,1.349157 3.04793,1.635168 0.504186,2.479335 -1.168038,0.608079 2.490329,0.0801 0.807462,1.308654 -2.901972,2.367191 1.44011,3.316883 1.906823,5.815778 2.321739,2.068389 5.098113,3.46501 7.657614,5.15518 1.140567,-1.444059 0.809196,-0.29259 1.455705,0.890553 0.771286,-1.174611 0.872671,-1.5069 1.345771,0.28851 0.486522,2.268843 2.468967,-1.673829 2.479245,1.358826 0.05439,0.899499 0.28074,-0.22776 0.477654,-0.405558 0.468909,-0.779772 1.684917,1.609149 1.796889,-0.63969 0.420399,-1.19508 1.027602,-3.498589 1.455699,-0.928185 0.94356,2.302677 0.19815,-2.643979 1.398846,-0.021 1.99221,-0.734496 4.010236,-2.467693 6.008575,-3.591484 0.894357,-0.612834 2.023566,-0.975027 2.308659,-2.228478 0.845217,-2.159409 4.546496,-3.467049 1.823421,-5.75306 -1.348482,-1.312776 2.847287,-0.579945 0.375296,-1.517706 -2.581967,-0.766143 2.800629,-1.51611 0.466284,-3.206835 1.008738,-0.503484 0.967692,-1.03734 -0.07965,-1.404813 2.492091,-1.864311 -3.275546,-2.739606 0.0228,-3.608212 1.330785,-0.753591 -2.829452,-0.10704 -0.454907,-1.751841 0.856958,-0.659154 1.080158,-1.867095 0.485234,-1.580421 l -1.118309,-1.434087 c -0.03918,-0.18786 -0.16674,-0.372033 -0.428373,-0.547713 -1.678674,-2.085351 -3.236856,-4.369635 -5.86066,-4.866759 -1.291944,-1.155378 -2.107995,-2.968684 -3.517953,-0.727497 -1.430265,2.116818 -0.763452,-3.009703 -1.614924,-0.22578 -0.622449,2.49636 -0.994011,-1.342456 -1.933356,-1.204129 -0.880101,1.116784 -1.314381,-0.09324 -1.834794,-0.0081 z"
     id="path5" />
  <path
     style="fill:#ffae15;stroke-width:1.5"
     d="m 47.933136,30.004246 c -0.17349,0.0279 -0.356454,0.20211 -0.568638,0.652236 -1.587168,-2.382724 -2.172588,3.336952 -3.017554,0.29265 -0.762684,-2.072973 -0.25491,2.733925 -1.474659,0.53517 -1.254231,-1.969185 -2.157828,-1.0428 -3.16161,0.468273 -2.170065,0.744781 -4.448682,1.986088 -5.493015,4.448593 l -1.364723,1.726752 c -2.402358,1.281144 3.15542,4.06359 -0.629289,3.913422 1.398603,0.649284 2.047706,1.223766 0.23505,2.036148 -0.815577,1.388647 0.470787,2.82748 -0.458697,4.281358 0.520773,1.349157 3.04793,1.635168 0.504186,2.479335 -1.168038,0.608079 2.490329,0.0801 0.807462,1.308654 -2.901972,2.367192 1.44011,3.316884 1.906823,5.815778 2.321739,2.068389 5.098113,3.465009 7.657614,5.15518 1.140567,-1.44406 0.809196,-0.29259 1.455705,0.890553 0.771286,-1.174611 0.872671,-1.506901 1.345771,0.28851 0.486522,2.268843 2.468967,-1.67383 2.479245,1.358826 0.05439,0.899499 0.28074,-0.22776 0.477654,-0.405558 0.468909,-0.779772 1.684917,1.609149 1.796889,-0.63969 0.420399,-1.19508 1.027602,-3.498589 1.455699,-0.928185 0.94356,2.302677 0.19815,-2.643979 1.398846,-0.021 1.99221,-0.734496 4.010236,-2.467693 6.008575,-3.591484 0.894357,-0.612834 2.023566,-0.975027 2.308659,-2.228478 0.845217,-2.159408 4.546496,-3.467048 1.823421,-5.75306 -1.348482,-1.312776 2.847287,-0.579945 0.375296,-1.517706 -2.581967,-0.766143 2.800629,-1.51611 0.466284,-3.206835 1.008738,-0.503484 0.967692,-1.03734 -0.07965,-1.404813 2.492091,-1.864312 -3.275546,-2.739607 0.0228,-3.608212 1.330785,-0.753591 -2.829452,-0.10704 -0.454907,-1.751841 0.856958,-0.659154 1.080158,-1.867095 0.485234,-1.580421 l -1.118309,-1.434087 c -0.03918,-0.18786 -0.16674,-0.372033 -0.428373,-0.547713 -1.678674,-2.085351 -3.236856,-4.369635 -5.86066,-4.86676 -1.291944,-1.155378 -2.107995,-2.968683 -3.517953,-0.727497 -1.430265,2.116819 -0.763452,-3.0097 -1.614924,-0.22578 -0.622449,2.496361 -0.994011,-1.342455 -1.933356,-1.204128 -0.880101,1.116783 -1.314381,-0.09324 -1.834794,-0.0081 z"
     id="path6" />
  <path
     id="path7"
     style="opacity:0.2;fill:#ffffff;stroke-width:1.5"
     d="M 47.935547 30.001953 C 47.762057 30.029853 47.575465 30.206124 47.363281 30.65625 C 45.776113 28.273528 45.190667 33.993518 44.345703 30.949219 C 43.58302 28.876248 44.092795 33.683128 42.873047 31.484375 C 41.618817 29.515192 40.714718 30.442054 39.710938 31.953125 C 37.540874 32.697905 35.263082 33.937888 34.21875 36.400391 L 32.851562 38.126953 C 32.145619 38.503423 32.136072 39.009848 32.367188 39.533203 C 32.466424 39.386692 32.623205 39.249775 32.853516 39.126953 L 34.216797 37.400391 C 35.261129 34.937888 37.540875 33.697905 39.710938 32.953125 C 40.714718 31.442054 41.618817 30.515192 42.873047 32.484375 C 44.092795 34.683128 43.584973 29.876248 44.347656 31.949219 C 45.192621 34.993518 45.778068 29.273528 47.365234 31.65625 C 47.577418 31.206124 47.760104 31.031806 47.933594 31.003906 C 48.454006 30.918766 48.887478 32.128501 49.767578 31.011719 C 50.706922 30.873392 51.078723 34.713155 51.701172 32.216797 C 52.552643 29.43288 51.886143 34.558223 53.316406 32.441406 C 54.726363 30.200222 55.542042 32.014545 56.833984 33.169922 C 59.457786 33.667046 61.01664 35.95176 62.695312 38.037109 C 62.956945 38.212789 63.083867 38.396125 63.123047 38.583984 L 64.242188 40.017578 C 64.260779 40.00862 64.27597 40.006102 64.292969 40 C 64.668521 39.406198 64.680121 38.806552 64.242188 39.017578 L 63.123047 37.583984 C 63.083867 37.396125 62.956945 37.212789 62.695312 37.037109 C 61.01664 34.95176 59.459738 32.667045 56.835938 32.169922 C 55.543995 31.014545 54.726362 29.20022 53.316406 31.441406 C 51.886142 33.558221 52.554596 28.430927 51.703125 31.214844 C 51.080677 33.711202 50.708875 29.873393 49.769531 30.011719 C 48.889431 31.128501 48.455959 29.920659 47.935547 30.005859 L 47.935547 30.001953 z M 63.984375 41.890625 C 63.913425 41.962925 63.840823 42.035751 63.757812 42.099609 C 63.448068 42.314164 63.256439 42.486344 63.142578 42.630859 C 63.190618 42.665623 63.247624 42.696363 63.314453 42.722656 C 63.467594 42.596832 63.747165 42.47421 64.212891 42.351562 C 64.728762 42.059438 64.418246 41.976989 63.984375 41.890625 z M 32.978516 42.011719 C 32.780952 42.038789 32.545268 42.053816 32.222656 42.041016 C 32.819834 42.318248 33.272784 42.582487 33.462891 42.857422 C 33.479174 42.844289 33.493084 42.83075 33.505859 42.816406 C 33.398615 42.581208 33.195329 42.306117 32.978516 42.011719 z M 32.857422 43.871094 C 32.734902 43.939094 32.618424 44.004714 32.458984 44.076172 C 32.135747 44.626533 32.146564 45.186128 32.214844 45.75 C 32.255277 45.524502 32.327981 45.301179 32.458984 45.078125 C 33.01043 44.830982 33.330625 44.606443 33.474609 44.394531 C 33.366007 44.218106 33.155571 44.04429 32.857422 43.871094 z M 64.041016 43.904297 C 63.651505 44.019763 63.421624 44.135161 63.296875 44.253906 C 63.590457 44.609892 64.30813 45.009542 64.648438 45.5 C 65.103555 44.855114 64.588825 44.343162 64.041016 43.904297 z M 64.791016 46.271484 C 64.876015 46.527336 64.821548 46.808568 64.554688 47.117188 C 64.577226 47.129106 64.592463 47.142146 64.613281 47.154297 C 65.051288 46.846592 65.110638 46.537923 64.791016 46.271484 z M 32.275391 47.714844 C 32.220881 47.929019 32.137421 48.144429 32 48.359375 C 32.061039 48.517513 32.154509 48.656554 32.259766 48.787109 C 32.303999 48.635254 32.328805 48.483415 32.341797 48.332031 C 32.329785 48.125917 32.304958 47.919634 32.275391 47.714844 z M 64.794922 48.509766 C 64.743361 48.559755 64.677888 48.609878 64.607422 48.660156 C 64.624091 48.678218 64.639373 48.695058 64.654297 48.712891 C 64.708607 48.646684 64.760263 48.580495 64.794922 48.509766 z M 64.101562 50.701172 C 63.776865 50.930421 63.436754 51.13525 63.246094 51.326172 C 63.273189 51.345742 63.304423 51.36529 63.339844 51.384766 C 63.849921 51.079169 65.24481 51.19907 64.101562 50.701172 z M 32.728516 50.755859 C 32.654136 50.783069 32.589512 50.809481 32.503906 50.837891 C 31.785089 51.212105 32.891811 51.157819 33.458984 51.345703 C 33.2904 51.17325 33.005503 50.981562 32.728516 50.755859 z M 64.007812 52.693359 C 63.73809 52.740137 63.446303 52.801554 63.283203 52.919922 C 63.323394 52.973067 63.362266 53.026057 63.425781 53.087891 C 63.90487 53.490084 64.17668 53.861299 64.308594 54.212891 C 64.474104 53.739602 64.427681 53.243454 64.007812 52.693359 z M 32.75 52.705078 C 32.29447 53.256205 32.249309 53.731952 32.433594 54.179688 C 32.573514 53.863216 32.85137 53.522637 33.3125 53.146484 C 33.437017 53.055582 33.523597 52.977138 33.59375 52.904297 C 33.390951 52.797941 33.042818 52.750019 32.75 52.705078 z " />
  <path
     style="fill:#2c2c2c;stroke-width:1.5"
     d="M 29.412354,33.368 27.860109,34.811144 36.5,43.206107 v 3.183154 l 9.000001,-2.11111 v -1.777794 h 6 v 1.777794 l 9.000001,2.11111 v -3.183154 l 8.639891,-8.394963 -1.552251,-1.443144 -7.08764,6.745659 v -2.168838 l -9.000001,2.111109 v 0.944427 h -6 V 40.05593 L 36.5,37.944821 v 2.168838 z"
     id="path8" />
  <path
     style="fill:#2c2c2c;stroke-width:1.5"
     d="m 42.125,50 c 0,0 3.678629,2.325069 5.636719,3.556641 v 4.016602 c -0.721853,1.311642 -3.746033,0.919413 -4.368164,2.217774 1.569273,-0.13821 2.931981,-0.700998 4.458984,-1.078125 1.709763,-0.0075 3.554486,0.897505 5.302736,0.981445 0.651789,-0.806379 -3.509349,-1.144792 -4.661133,-1.831054 0.03348,-1.430141 0.108405,-4.291994 0.108405,-4.291994 L 54.875001,50 Z m -0.175782,3.451172 c -0.277392,0.0141 -0.498046,0.243514 -0.498046,0.524415 0,0.289947 0.234457,0.524413 0.524415,0.524413 0.289948,0 0.524413,-0.234478 0.524413,-0.524413 0,-0.289947 -0.234453,-0.524415 -0.524413,-0.524415 -0.009,0 -0.01741,-4.53e-4 -0.02637,0 z m 1.5,0 c -0.277392,0.0141 -0.498046,0.243514 -0.498046,0.524415 0,0.289947 0.234457,0.524413 0.524415,0.524413 C 43.765535,54.5 44,54.265522 44,53.975587 c 0,-0.289947 -0.234456,-0.524415 -0.524413,-0.524415 -0.009,0 -0.01741,-4.53e-4 -0.02637,0 z m 1.500001,0 c -0.277393,0.0141 -0.498047,0.243514 -0.498047,0.524415 0,0.289947 0.234457,0.524413 0.524415,0.524413 0.289949,0 0.524414,-0.234478 0.524414,-0.524413 0,-0.289947 -0.234453,-0.524415 -0.524414,-0.524415 -0.009,0 -0.01741,-4.53e-4 -0.02637,0 z m 6,0 c -0.277392,0.0141 -0.498047,0.243514 -0.498047,0.524415 0,0.289947 0.234458,0.524413 0.524416,0.524413 0.289948,0 0.524413,-0.234478 0.524413,-0.524413 0,-0.289947 -0.234453,-0.524415 -0.524413,-0.524415 -0.009,0 -0.01741,-4.53e-4 -0.02637,0 z m 1.5,0 c -0.277392,0.0141 -0.498046,0.243514 -0.498046,0.524415 0,0.289947 0.234457,0.524413 0.524415,0.524413 0.289948,0 0.524413,-0.234478 0.524413,-0.524413 0,-0.289947 -0.234456,-0.524415 -0.524413,-0.524415 -0.009,0 -0.01741,-4.53e-4 -0.02637,0 z m 1.5,0 c -0.277392,0.0141 -0.498046,0.243514 -0.498046,0.524415 0,0.289947 0.234457,0.524413 0.524415,0.524413 0.289948,0 0.524413,-0.234478 0.524413,-0.524413 0,-0.289947 -0.234453,-0.524415 -0.524413,-0.524415 -0.009,0 -0.01741,-4.53e-4 -0.02637,0 z m -12.000001,1.5 c -0.277392,0.0141 -0.498046,0.243514 -0.498046,0.524415 C 41.451172,55.765534 41.685629,56 41.975587,56 42.265535,56 42.5,55.765522 42.5,55.475587 c 0,-0.289947 -0.234453,-0.524415 -0.524413,-0.524415 -0.009,0 -0.01741,-4.53e-4 -0.02637,0 z m 1.5,0 c -0.277392,0.0141 -0.498046,0.243514 -0.498046,0.524415 C 42.951172,55.765534 43.185629,56 43.475587,56 43.765535,56 44,55.765522 44,55.475587 c 0,-0.289947 -0.234456,-0.524415 -0.524413,-0.524415 -0.009,0 -0.01741,-4.53e-4 -0.02637,0 z m 1.500001,0 c -0.277393,0.0141 -0.498047,0.243514 -0.498047,0.524415 0,0.289947 0.234457,0.524413 0.524415,0.524413 0.289949,0 0.524414,-0.234478 0.524414,-0.524413 0,-0.289947 -0.234453,-0.524415 -0.524414,-0.524415 -0.009,0 -0.01741,-4.53e-4 -0.02637,0 z m 6,0 c -0.277392,0.0141 -0.498047,0.243514 -0.498047,0.524415 0,0.289947 0.234458,0.524413 0.524416,0.524413 0.289948,0 0.524413,-0.234478 0.524413,-0.524413 0,-0.289947 -0.234453,-0.524415 -0.524413,-0.524415 -0.009,0 -0.01741,-4.53e-4 -0.02637,0 z m 1.5,0 c -0.277392,0.0141 -0.498046,0.243514 -0.498046,0.524415 0,0.289947 0.234457,0.524413 0.524415,0.524413 0.289948,0 0.524413,-0.234478 0.524413,-0.524413 0,-0.289947 -0.234456,-0.524415 -0.524413,-0.524415 -0.009,0 -0.01741,-4.53e-4 -0.02637,0 z m 1.5,0 c -0.277392,0.0141 -0.498046,0.243514 -0.498046,0.524415 0,0.289947 0.234457,0.524413 0.524415,0.524413 0.289948,0 0.524413,-0.234478 0.524413,-0.524413 0,-0.289947 -0.234453,-0.524415 -0.524413,-0.524415 -0.009,0 -0.01741,-4.53e-4 -0.02637,0 z m -10.500001,1.5 c -0.277392,0.0141 -0.498046,0.243514 -0.498046,0.524415 0,0.289947 0.234457,0.524414 0.524415,0.524414 0.289948,0 0.524413,-0.234479 0.524413,-0.524414 0,-0.289947 -0.234456,-0.524415 -0.524413,-0.524415 -0.009,0 -0.01741,-4.53e-4 -0.02637,0 z m 9.000001,0 c -0.277392,0.0141 -0.498046,0.243514 -0.498046,0.524415 0,0.289947 0.234457,0.524414 0.524415,0.524414 0.289948,0 0.524413,-0.234479 0.524413,-0.524414 0,-0.289947 -0.234456,-0.524415 -0.524413,-0.524415 -0.009,0 -0.01741,-4.53e-4 -0.02637,0 z"
     id="path9" />
  <path
     d="M 24,6.0000003 C 14.028011,6.0000003 6,14.028011 6,24 v 1 C 6,15.028011 14.028011,7 24,7 h 48 c 9.97199,0 18,8.028011 18,18 V 24 C 90,14.028011 81.97199,6.0000003 72,6.0000003 Z"
     style="opacity:0.2;fill:#ffffff;stroke-width:6;stroke-linecap:square"
     id="path1040" />
</svg>
