<?xml version="1.0" encoding="UTF-8" standalone="no"?>
<!-- Created with Inkscape (http://www.inkscape.org/) -->

<svg
   width="96"
   height="96"
   viewBox="0 0 96 96"
   version="1.1"
   id="svg5"
   inkscape:version="1.3 (0e150ed6c4, 2023-07-21)"
   sodipodi:docname="bareftp.svg"
   xmlns:inkscape="http://www.inkscape.org/namespaces/inkscape"
   xmlns:sodipodi="http://sodipodi.sourceforge.net/DTD/sodipodi-0.dtd"
   xmlns="http://www.w3.org/2000/svg"
   xmlns:svg="http://www.w3.org/2000/svg">
  <sodipodi:namedview
     id="namedview7"
     pagecolor="#ffffff"
     bordercolor="#000000"
     borderopacity="0.25"
     inkscape:showpageshadow="2"
     inkscape:pageopacity="0.0"
     inkscape:pagecheckerboard="0"
     inkscape:deskcolor="#d1d1d1"
     inkscape:document-units="px"
     showgrid="false"
     inkscape:zoom="8.3020833"
     inkscape:cx="47.939774"
     inkscape:cy="48"
     inkscape:window-width="1850"
     inkscape:window-height="1011"
     inkscape:window-x="0"
     inkscape:window-y="0"
     inkscape:window-maximized="1"
     inkscape:current-layer="svg5" />
  <defs
     id="defs2" />
  <rect
     style="opacity:0.2;fill:#000000;stroke-width:6;stroke-linecap:square"
     id="rect234"
     width="84"
     height="84"
     x="6"
     y="7"
     ry="18" />
  <rect
     style="fill:#4f4f4f;fill-opacity:1;stroke-width:6;stroke-linecap:square"
     id="rect396"
     width="84"
     height="84"
     x="6"
     y="6"
     ry="18" />
  <path
     id="path3"
     style="opacity:0.2;fill:#000000;stroke-width:3"
     d="m 32.830077,19.011718 c -1.124658,0.04575 -2.143365,0.533034 -2.707029,1.294923 L 18.451173,36.103516 c -1.285339,1.734264 0.318165,3.904866 2.882811,3.902343 H 27 V 62.001952 C 27,64.77109 29.228904,67 31.998048,67 h 2.003904 C 36.77109,67 39,64.77109 39,62.001952 V 40.005859 h 5.677734 c 2.564643,0.0025 4.168152,-2.168082 2.882814,-3.902343 L 35.888673,20.306641 c -0.62649,-0.847002 -1.808472,-1.347423 -3.058596,-1.294923 z M 61.998048,31 C 59.22891,31 57,33.22891 57,35.998048 V 58 h -5.666016 c -2.564643,-0.0025 -4.168155,2.168082 -2.882811,3.902343 l 11.671875,15.796875 c 0.563664,0.761892 1.582371,1.249191 2.707029,1.294923 1.250124,0.0525 2.432106,-0.447915 3.058596,-1.294923 L 77.560548,61.902343 C 78.845886,60.168082 77.242377,57.99748 74.677734,58 H 69 V 35.998048 C 69,33.22891 66.77109,31 64.001952,31 Z" />
  <path
     id="path4"
     style="fill:#ffd42b;stroke-width:3"
     d="m 32.830077,18.005859 c -1.124664,0.04575 -2.143362,0.533031 -2.707029,1.294923 L 18.451173,35.097657 C 17.165831,36.831924 18.769335,39.00252 21.333984,39 H 27 V 61.001952 C 27,63.771096 29.228901,66 31.998048,66 h 2.003904 C 36.771096,66 39,63.771096 39,61.001952 V 39 h 5.677734 c 2.564649,0.0025 4.168155,-2.168076 2.882814,-3.902343 L 35.888673,19.300782 c -0.62649,-0.847005 -1.808472,-1.347423 -3.058596,-1.294923 z" />
  <path
     id="path6"
     style="fill:#71d716;stroke-width:3"
     d="M 61.998048,30 C 59.228904,30 57,32.228904 57,34.998048 V 57 h -5.666016 c -2.564649,-0.0025 -4.168155,2.168076 -2.882811,3.902343 l 11.671875,15.796875 c 0.563667,0.761892 1.582365,1.249191 2.707029,1.294923 1.250124,0.0525 2.432106,-0.447915 3.058596,-1.294923 L 77.560548,60.902343 C 78.845889,59.168076 77.242383,56.99748 74.677734,57 H 69 V 34.998048 C 69,32.228904 66.771096,30 64.001952,30 Z" />
  <path
     id="path1040"
     style="opacity:0.1;fill:#ffffff;stroke-width:6;stroke-linecap:square"
     d="M 24 6 C 14.02802 6 6 14.028021 6 24 L 6 25 C 6 15.02802 14.02802 7 24 7 L 72 7 C 81.971978 7 90 15.02802 90 25 L 90 24 C 90 14.028021 81.971978 6 72 6 L 24 6 z " />
</svg>
