<?xml version="1.0" encoding="UTF-8" standalone="no"?>
<!-- Created with Inkscape (http://www.inkscape.org/) -->

<svg
   width="96"
   height="96"
   viewBox="0 0 96 96"
   version="1.1"
   id="svg5"
   inkscape:version="1.4.3 (0d15f75042, 2025-12-25)"
   sodipodi:docname="btop.svg"
   xmlns:inkscape="http://www.inkscape.org/namespaces/inkscape"
   xmlns:sodipodi="http://sodipodi.sourceforge.net/DTD/sodipodi-0.dtd"
   xmlns="http://www.w3.org/2000/svg"
   xmlns:svg="http://www.w3.org/2000/svg">
  <sodipodi:namedview
     id="namedview7"
     pagecolor="#ffffff"
     bordercolor="#000000"
     borderopacity="0.25"
     inkscape:showpageshadow="2"
     inkscape:pageopacity="0.0"
     inkscape:pagecheckerboard="0"
     inkscape:deskcolor="#d1d1d1"
     inkscape:document-units="px"
     showgrid="false"
     inkscape:zoom="5.0104167"
     inkscape:cx="48"
     inkscape:cy="48.099792"
     inkscape:window-width="1440"
     inkscape:window-height="833"
     inkscape:window-x="0"
     inkscape:window-y="0"
     inkscape:window-maximized="1"
     inkscape:current-layer="svg5" />
  <defs
     id="defs2" />
  <rect
     style="opacity:0.2;fill:#000000;stroke-width:6;stroke-linecap:square"
     id="rect234"
     width="84"
     height="84"
     x="6"
     y="7"
     ry="18" />
  <rect
     style="fill:#3f3f3f;fill-opacity:1;stroke-width:6;stroke-linecap:square"
     id="rect396"
     width="84"
     height="84"
     x="6"
     y="6"
     ry="18" />
  <path
     id="path1040"
     style="opacity:0.1;fill:#ffffff;stroke-width:6;stroke-linecap:square"
     d="M 24 6 C 14.02801 6 6 14.028011 6 24 L 6 25 C 6 15.02801 14.02801 7 24 7 L 72 7 C 81.971988 7 90 15.02801 90 25 L 90 24 C 90 14.028011 81.971988 6 72 6 L 24 6 z " />
  <rect
     style="fill:#e62525;stroke-width:3"
     width="30"
     height="12"
     x="32"
     y="18"
     id="rect3" />
  <rect
     style="fill:#cd2121;stroke-width:3"
     width="9"
     height="12"
     x="32"
     y="30"
     id="rect4" />
  <rect
     style="fill:#cd2121;stroke-width:3"
     width="9"
     height="12"
     x="56"
     y="30"
     id="rect5" />
  <rect
     style="fill:#b31d1d;stroke-width:3"
     width="30"
     height="12"
     x="32"
     y="42"
     id="rect6" />
  <rect
     style="fill:#9a1919;stroke-width:3"
     width="9"
     height="12"
     x="32"
     y="54"
     id="rect7" />
  <rect
     style="fill:#9a1919;stroke-width:3"
     width="9"
     height="12"
     x="56"
     y="54"
     id="rect8" />
  <rect
     style="fill:#801414;stroke-width:3"
     width="30"
     height="12"
     x="32"
     y="66"
     id="rect9" />
  <rect
     style="opacity:0.2;fill:#000000;stroke-width:3"
     width="30"
     height="1"
     x="32"
     y="30"
     id="rect10" />
  <rect
     style="opacity:0.2;fill:#000000;stroke-width:3"
     width="9"
     height="1"
     x="32"
     y="42"
     id="rect11" />
  <rect
     style="opacity:0.2;fill:#000000;stroke-width:3"
     width="9"
     height="1"
     x="56"
     y="42"
     id="rect12" />
  <rect
     style="opacity:0.2;fill:#000000;stroke-width:3"
     width="30"
     height="1"
     x="32"
     y="54"
     id="rect13" />
  <rect
     style="opacity:0.2;fill:#000000;stroke-width:3"
     width="9"
     height="1"
     x="32"
     y="66"
     id="rect14" />
  <rect
     style="opacity:0.2;fill:#000000;stroke-width:3"
     width="9"
     height="1"
     x="56"
     y="66"
     id="rect15" />
  <rect
     style="opacity:0.2;fill:#000000;stroke-width:3"
     width="30"
     height="1"
     x="32"
     y="78"
     id="rect16" />
</svg>
