<?xml version="1.0" encoding="UTF-8" standalone="no"?>
<!-- Created with Inkscape (http://www.inkscape.org/) -->

<svg
   width="96"
   height="96"
   viewBox="0 0 96 96"
   version="1.1"
   id="svg5"
   inkscape:version="1.4.3 (0d15f75042, 2025-12-25)"
   sodipodi:docname="cities-skylines-2.svg"
   xmlns:inkscape="http://www.inkscape.org/namespaces/inkscape"
   xmlns:sodipodi="http://sodipodi.sourceforge.net/DTD/sodipodi-0.dtd"
   xmlns="http://www.w3.org/2000/svg"
   xmlns:svg="http://www.w3.org/2000/svg">
  <sodipodi:namedview
     id="namedview7"
     pagecolor="#ffffff"
     bordercolor="#000000"
     borderopacity="0.25"
     inkscape:showpageshadow="2"
     inkscape:pageopacity="0.0"
     inkscape:pagecheckerboard="0"
     inkscape:deskcolor="#d1d1d1"
     inkscape:document-units="px"
     showgrid="false"
     inkscape:zoom="8.40625"
     inkscape:cx="47.94052"
     inkscape:cy="48"
     inkscape:window-width="1920"
     inkscape:window-height="1010"
     inkscape:window-x="0"
     inkscape:window-y="0"
     inkscape:window-maximized="1"
     inkscape:current-layer="svg5" />
  <defs
     id="defs2" />
  <rect
     style="opacity:0.2;fill:#000000;stroke-width:6;stroke-linecap:square"
     id="rect234"
     width="84"
     height="84"
     x="6"
     y="7"
     ry="18" />
  <rect
     style="fill:#2a8fdb;fill-opacity:1;stroke-width:6;stroke-linecap:square"
     id="rect396"
     width="84"
     height="84"
     x="6"
     y="6"
     ry="18" />
  <path
     id="path1040"
     style="opacity:0.2;fill:#ffffff;stroke-width:6;stroke-linecap:square"
     d="M 24 6 C 14.02801 6 6 14.028011 6 24 L 6 25 C 6 15.02801 14.02801 7 24 7 L 72 7 C 81.971988 7 90 15.02801 90 25 L 90 24 C 90 14.028011 81.971988 6 72 6 L 24 6 z " />
  <path
     id="path2-3"
     style="opacity:0.2;fill:#000000;stroke-width:3"
     d="M 50 19.279297 L 50 32.265625 C 58.132465 36.896208 66.263361 41.520925 74.396484 46.152344 C 74.596284 46.260344 74.78808 46.390454 75 46.480469 L 75 36.291016 C 75.0048 35.98504 74.996398 35.679929 74.923828 35.376953 C 74.748268 34.335434 74.190091 33.358527 73.376953 32.675781 C 72.941023 32.297811 72.41728 32.052095 71.923828 31.761719 C 66.222193 28.514801 60.521944 25.269776 54.820312 22.023438 C 53.212674 21.110597 51.608755 20.190995 50 19.279297 z M 46 19.291016 C 45.880071 19.360293 45.760021 19.430132 45.638672 19.498047 C 38.256284 23.740908 30.872613 27.981748 23.490234 32.224609 C 23.235954 32.368609 22.984223 32.51924 22.757812 32.699219 C 21.755771 33.480356 21.103963 34.688874 21.023438 35.951172 L 21.023438 45.771484 C 21.026438 46.09546 21.027351 46.426024 21.087891 46.75 C 21.196851 47.49094 21.564954 48.190745 22.125 48.695312 C 22.44588 49.007286 22.852796 49.203812 23.232422 49.433594 C 25.867994 50.967071 28.501147 52.499723 31.136719 54.033203 C 31.530259 54.255173 31.920703 54.501709 32.320312 54.712891 C 32.323313 54.166933 32.319113 53.627539 32.320312 53.083984 C 32.317912 50.141818 32.321672 47.196072 32.326172 44.253906 C 32.328572 42.868617 32.318372 41.484898 32.326172 40.099609 C 32.713652 39.865639 33.118038 39.643704 33.509766 39.419922 C 37.673698 37.040571 41.835701 34.65915 46 32.28125 L 46 19.291016 z M 63.703125 43.275391 C 63.710625 43.279591 63.719063 43.282909 63.726562 43.287109 C 63.72659 43.282909 63.726527 43.279591 63.726562 43.275391 L 63.703125 43.275391 z M 63.726562 43.287109 C 63.723764 43.678789 63.727156 44.07673 63.726562 44.470703 C 63.729563 47.421266 63.725203 50.373653 63.720703 53.324219 C 63.720097 54.849296 63.721309 56.374714 63.720703 57.900391 C 59.147742 60.513809 54.573073 63.124469 50 65.738281 L 50 78.712891 C 50.327146 78.526098 50.655235 78.337829 50.982422 78.150391 C 58.052996 74.085721 65.128042 70.02171 72.199219 65.957031 C 72.568579 65.741031 72.946762 65.54029 73.277344 65.271484 C 74.117722 64.606738 74.709279 63.640066 74.912109 62.59375 C 75.033189 62.02381 74.988081 61.441786 74.994141 60.865234 C 74.993535 57.984265 74.993535 55.103025 74.994141 52.222656 C 74.991141 51.89268 74.996037 51.551276 74.935547 51.220703 C 74.796257 50.269178 74.202394 49.395349 73.371094 48.900391 C 70.155142 47.028716 66.944901 45.154629 63.726562 43.287109 z M 21.011719 51.513672 L 21 51.519531 C 21.0039 51.521231 21.007819 51.523591 21.011719 51.525391 L 21.011719 51.513672 z M 21.011719 51.525391 C 21.010519 54.856741 21.011719 58.184872 21.011719 61.515625 C 21.014719 61.707625 21.011719 61.90362 21.011719 62.101562 C 21.072259 62.936096 21.340168 63.752507 21.820312 64.439453 C 22.201732 64.991393 22.715436 65.462252 23.302734 65.798828 C 30.870485 70.106264 38.433034 74.415218 46 78.722656 L 46 65.738281 C 44.179382 64.699066 42.356807 63.666507 40.535156 62.628906 C 34.207478 59.025597 27.878459 55.421071 21.550781 51.818359 C 21.372731 51.724249 21.200929 51.609121 21.011719 51.525391 z M 46.466797 78.988281 C 46.47367 78.992194 46.481408 78.996087 46.488281 79 C 46.488286 78.996087 46.488277 78.992194 46.488281 78.988281 L 46.466797 78.988281 z M 49.505859 78.988281 C 49.505862 78.990235 49.505856 78.992187 49.505859 78.994141 C 49.50933 78.992188 49.512154 78.990235 49.515625 78.988281 L 49.505859 78.988281 z " />
  <path
     id="path2"
     style="fill:#ffffff;stroke-width:3"
     d="M 50 18.279297 L 50 31.265625 C 58.132465 35.896208 66.263361 40.520925 74.396484 45.152344 C 74.596284 45.260344 74.78808 45.390454 75 45.480469 L 75 35.291016 C 75.0048 34.98504 74.996398 34.679929 74.923828 34.376953 C 74.748268 33.335434 74.190091 32.358527 73.376953 31.675781 C 72.941023 31.297811 72.41728 31.052095 71.923828 30.761719 C 66.222191 27.514801 60.521944 24.269776 54.820312 21.023438 C 53.212674 20.110596 51.608755 19.190995 50 18.279297 z M 46 18.291016 C 45.880071 18.360296 45.760021 18.430132 45.638672 18.498047 C 38.256284 22.740908 30.872613 26.981748 23.490234 31.224609 C 23.235954 31.368609 22.984223 31.51924 22.757812 31.699219 C 21.755772 32.480356 21.103962 33.688874 21.023438 34.951172 L 21.023438 44.771484 C 21.026438 45.09546 21.027341 45.426024 21.087891 45.75 C 21.196851 46.49094 21.564954 47.190745 22.125 47.695312 C 22.44588 48.007286 22.852796 48.203812 23.232422 48.433594 C 25.867994 49.967071 28.501147 51.499723 31.136719 53.033203 C 31.530259 53.255173 31.920704 53.501709 32.320312 53.712891 C 32.323313 53.166933 32.319113 52.627539 32.320312 52.083984 C 32.317912 49.141818 32.321672 46.196072 32.326172 43.253906 C 32.328572 41.868617 32.318372 40.484898 32.326172 39.099609 C 32.713652 38.865639 33.118038 38.643704 33.509766 38.419922 C 37.673661 36.04057 41.835701 33.65915 46 31.28125 L 46 18.291016 z M 63.703125 42.775391 C 63.710625 42.779591 63.719063 42.782889 63.726562 42.787109 C 63.726591 42.782909 63.726528 42.779611 63.726562 42.775391 L 63.703125 42.775391 z M 63.726562 42.787109 C 63.723762 43.178789 63.727156 43.576729 63.726562 43.970703 C 63.729563 46.921266 63.725203 49.373653 63.720703 52.324219 C 63.720097 53.849296 63.721309 55.374714 63.720703 56.900391 C 59.14778 59.513806 54.573073 62.124469 50 64.738281 L 50 77.712891 C 50.327146 77.526098 50.655235 77.337829 50.982422 77.150391 C 58.052996 73.085721 65.128042 69.02171 72.199219 64.957031 C 72.568579 64.741031 72.946762 64.54029 73.277344 64.271484 C 74.117722 63.606738 74.709279 62.640066 74.912109 61.59375 C 75.033189 61.02381 74.988081 60.441786 74.994141 59.865234 C 74.993535 56.984265 74.993535 54.603025 74.994141 51.722656 C 74.991141 51.392679 74.996037 51.051276 74.935547 50.720703 C 74.796257 49.769177 74.202394 48.895349 73.371094 48.400391 C 70.155142 46.528716 66.944902 44.654629 63.726562 42.787109 z M 21.011719 50.513672 L 21 50.519531 C 21.0039 50.521231 21.007799 50.523591 21.011719 50.525391 L 21.011719 50.513672 z M 21.011719 50.525391 C 21.010519 53.856728 21.011719 57.184885 21.011719 60.515625 C 21.014719 60.707625 21.011719 60.903621 21.011719 61.101562 C 21.072259 61.936096 21.340169 62.752507 21.820312 63.439453 C 22.201732 63.991393 22.715436 64.462252 23.302734 64.798828 C 30.870485 69.106264 38.433034 73.415218 46 77.722656 L 46 64.738281 C 44.179382 63.699066 42.356807 62.666507 40.535156 61.628906 C 34.207478 58.025597 27.878459 54.421071 21.550781 50.818359 C 21.372732 50.72425 21.200928 50.60912 21.011719 50.525391 z M 46.466797 77.988281 C 46.473697 77.992181 46.481411 77.99608 46.488281 78 C 46.488286 77.9961 46.488277 77.992201 46.488281 77.988281 L 46.466797 77.988281 z M 49.505859 77.988281 C 49.505862 77.990281 49.505856 77.992141 49.505859 77.994141 C 49.509359 77.992141 49.512125 77.990281 49.515625 77.988281 L 49.505859 77.988281 z " />
</svg>
