<?xml version="1.0" encoding="UTF-8" standalone="no"?>
<!-- Created with Inkscape (http://www.inkscape.org/) -->

<svg
   width="96"
   height="96"
   viewBox="0 0 96 96"
   version="1.1"
   id="svg5"
   inkscape:version="1.3 (0e150ed6c4, 2023-07-21)"
   sodipodi:docname="cuttlefish.svg"
   xmlns:inkscape="http://www.inkscape.org/namespaces/inkscape"
   xmlns:sodipodi="http://sodipodi.sourceforge.net/DTD/sodipodi-0.dtd"
   xmlns="http://www.w3.org/2000/svg"
   xmlns:svg="http://www.w3.org/2000/svg">
  <sodipodi:namedview
     id="namedview7"
     pagecolor="#ffffff"
     bordercolor="#000000"
     borderopacity="0.25"
     inkscape:showpageshadow="2"
     inkscape:pageopacity="0.0"
     inkscape:pagecheckerboard="0"
     inkscape:deskcolor="#d1d1d1"
     inkscape:document-units="px"
     showgrid="false"
     inkscape:zoom="8.53125"
     inkscape:cx="47.941392"
     inkscape:cy="48"
     inkscape:window-width="1920"
     inkscape:window-height="1004"
     inkscape:window-x="0"
     inkscape:window-y="30"
     inkscape:window-maximized="1"
     inkscape:current-layer="svg5" />
  <defs
     id="defs2" />
  <rect
     style="opacity:0.2;fill:#000000;stroke-width:6;stroke-linecap:square"
     id="rect234"
     width="84"
     height="84"
     x="6"
     y="7"
     ry="18" />
  <rect
     style="fill:#4d4d4d;fill-opacity:1;stroke-width:6;stroke-linecap:square"
     id="rect396"
     width="84"
     height="84"
     x="6"
     y="6"
     ry="18" />
  <path
     id="path1"
     style="opacity:0.2;fill:#000000;stroke-width:3"
     d="m 47.871093,19 c -11.492988,0 -25.151019,9.5649 -27.978516,20.150391 -1.331697,7.966491 0.859515,13.583862 4.880862,17.443359 0.1077,1.128 0.322863,2.254362 0.22851,3.380859 -0.003,0.033 -0.0084,0.07248 -0.0117,0.10548 -0.0216,0.2115 -0.05055,0.419814 -0.0996,0.632814 -0.0204,0.0855 -0.05637,0.17232 -0.08202,0.25782 -0.04725,0.162 -0.09642,0.32433 -0.16407,0.48633 -0.05655,0.1335 -0.13848,0.26493 -0.21093,0.398436 -0.0672,0.126 -0.11688,0.2505 -0.19923,0.375 -0.16905,0.2565 -0.369378,0.516939 -0.609378,0.773439 C 22.6875,64.004404 21.867111,64.62475 21.164064,65.03125 19.054614,66.24925 18,65.500003 18,67 c 0,1.624497 3.709485,4.56675 7.113282,3.46875 0.5238,-0.168 1.040757,-0.427593 1.535157,-0.808593 0.2472,-0.189 0.492561,-0.40575 0.726561,-0.65625 0.429,-0.459 0.805218,-0.887064 1.136718,-1.289064 0.327,-0.3945 0.599109,-0.76242 0.849609,-1.10742 0.057,0.502497 0.0261,1.138875 -0.21681,2.109375 -0.970497,3.863994 -6.102126,3.545112 -3.644529,6.287109 1.904997,2.125497 7.597596,2.203356 10.746093,-0.556641 C 34.990596,77.292763 33.082503,79 36.75,79 42.374994,79 48,75.003901 48,69.003907 48,75.003901 53.625006,79 59.25,79 c 3.667497,0 1.759404,-1.707237 0.503907,-4.552734 3.148497,2.759997 8.841096,2.682138 10.746093,0.556641 2.458497,-2.741997 -2.674032,-2.423115 -3.644532,-6.287109 -0.2445,-0.972 -0.27531,-1.605378 -0.21681,-2.109375 C 67.14567,67.30792 67.7775,68.099407 68.625,69.003907 72.374997,73.004401 78,68.999497 78,67 c 0,-1.999497 -1.875003,0.0045 -5.625,-3.996093 -2.092497,-2.232 -1.292859,-4.471128 -1.130859,-6.703125 4.339494,-3.923997 6.396468,-9.4989 4.605468,-17.150391 C 71.856612,27.804403 59.364081,19 47.871093,19 Z" />
  <path
     id="path2"
     style="fill:#fecd38;stroke-width:3"
     d="m 47.871093,18 c -11.492988,0 -25.151019,9.5649 -27.978516,20.150391 -1.331697,7.966491 0.859515,13.583862 4.880862,17.443359 0.1077,1.128 0.322863,2.254362 0.22851,3.380859 -0.003,0.033 -0.0084,0.07248 -0.0117,0.10548 -0.0216,0.2115 -0.05055,0.419814 -0.0996,0.632814 -0.0204,0.0855 -0.05637,0.17232 -0.08202,0.25782 -0.04725,0.162 -0.09642,0.32433 -0.16407,0.48633 -0.05655,0.1335 -0.13848,0.26493 -0.21093,0.398436 -0.0672,0.126 -0.11688,0.2505 -0.19923,0.375 -0.16905,0.2565 -0.369378,0.516939 -0.609378,0.773439 C 22.6875,63.004404 21.867111,63.62475 21.164064,64.03125 19.054614,65.24925 18,64.500003 18,66 c 0,1.624497 3.709485,4.56675 7.113282,3.46875 0.5238,-0.168 1.040757,-0.427593 1.535157,-0.808593 0.2472,-0.189 0.492561,-0.40575 0.726561,-0.65625 0.429,-0.459 0.805218,-0.887064 1.136718,-1.289064 0.327,-0.3945 0.599109,-0.76242 0.849609,-1.10742 0.057,0.502497 0.0261,1.138875 -0.21681,2.109375 -0.970497,3.863994 -6.102126,3.545112 -3.644529,6.287109 1.904997,2.125497 7.597596,2.203356 10.746093,-0.556641 C 34.990596,76.292763 33.082503,78 36.75,78 42.374994,78 48,74.003901 48,68.003907 48,74.003901 53.625006,78 59.25,78 c 3.667497,0 1.759404,-1.707237 0.503907,-4.552734 3.148497,2.759997 8.841096,2.682138 10.746093,0.556641 2.458497,-2.741997 -2.674032,-2.423115 -3.644532,-6.287109 -0.2445,-0.972 -0.27531,-1.605378 -0.21681,-2.109375 C 67.14567,66.30792 67.7775,67.099407 68.625,68.003907 72.374997,72.004401 78,67.999497 78,66 c 0,-1.999497 -1.875003,0.0045 -5.625,-3.996093 -2.092497,-2.232 -1.292859,-4.471128 -1.130859,-6.703125 4.339494,-3.923997 6.396468,-9.4989 4.605468,-17.150391 C 71.856612,26.804403 59.364081,18 47.871093,18 Z" />
  <path
     id="path3"
     style="opacity:0.2;fill:#ffffff;stroke-width:3"
     d="m 47.871094,18 c -11.492965,0 -25.151025,9.564919 -27.978516,20.150391 -0.292739,1.751222 -0.406705,3.381635 -0.376953,4.912109 0.02868,-1.237916 0.147139,-2.537312 0.376953,-3.912109 C 22.720072,28.56491 36.378117,19 47.871094,19 c 11.492976,0 23.985522,8.804414 27.978515,20.150391 0.396525,1.69403 0.594581,3.280318 0.63086,4.77539 0.04963,-1.779563 -0.144667,-3.698285 -0.63086,-5.77539 C 71.856619,26.804426 59.364058,18 47.871094,18 Z m 23.109375,40.796875 c -0.09253,1.402951 0.08123,2.806171 1.394531,4.207031 3.299576,3.520072 5.146651,2.393435 5.542969,3.433594 C 77.96832,66.284977 78,66.136929 78,66 c 0,-1.999492 -1.87501,0.0045 -5.625,-3.996094 -1.001124,-1.067868 -1.330869,-2.13746 -1.394531,-3.207031 z m -45.976563,0.08203 c -0.0022,0.03187 7.16e-4,0.06384 -0.002,0.0957 -0.003,0.033 -0.0084,0.07247 -0.01172,0.105469 -0.0216,0.2115 -0.05056,0.419813 -0.09961,0.632813 -0.0204,0.0855 -0.05638,0.172312 -0.08203,0.257812 -0.04725,0.162 -0.09641,0.324328 -0.164063,0.486328 -0.05655,0.1335 -0.138487,0.264932 -0.210937,0.398438 -0.0672,0.126 -0.116869,0.2505 -0.199219,0.375 C 24.065325,61.486968 23.865,61.747407 23.625,62.003906 22.687489,63.004357 21.867109,63.62475 21.164062,64.03125 19.054618,65.249249 18,64.500004 18,66 c 0,0.14038 0.03703,0.292615 0.08984,0.449219 0.283656,-0.745652 1.30251,-0.394995 3.074218,-1.417969 0.70305,-0.4065 1.523448,-1.026869 2.460938,-2.027344 0.239997,-0.256499 0.440325,-0.516938 0.609375,-0.773437 0.08235,-0.1245 0.132019,-0.249 0.199219,-0.375 0.07245,-0.133506 0.154387,-0.264938 0.210937,-0.398438 0.06765,-0.162 0.116813,-0.324328 0.164063,-0.486328 0.02565,-0.0855 0.06163,-0.172312 0.08203,-0.257812 0.04905,-0.213 0.07801,-0.421313 0.09961,-0.632813 0.0033,-0.033 0.0087,-0.07247 0.01172,-0.105469 0.03058,-0.365073 0.0222,-0.730598 0.002,-1.095703 z m 4.357422,7.728516 c -0.0045,0.0062 -0.01112,0.01333 -0.01563,0.01953 -0.0355,0.313442 -0.09492,0.665279 -0.201172,1.089844 -0.869854,3.463283 -5.065354,3.572785 -4.160156,5.53125 0.645597,-1.138305 3.464789,-1.762676 4.160156,-4.53125 0.24291,-0.970499 0.273797,-1.606879 0.216797,-2.109375 z m 37.277344,0 c -0.0585,0.503996 -0.0277,1.137376 0.216797,2.109375 0.695369,2.768574 3.514628,3.392945 4.160156,4.53125 0.906668,-1.958959 -3.290224,-2.067665 -4.160156,-5.53125 -0.107177,-0.426077 -0.167594,-0.778229 -0.203125,-1.091797 -0.004,-0.0055 -0.0097,-0.01207 -0.01367,-0.01758 z m -30.392578,7.839844 c -0.250171,0.219301 -0.521663,0.413791 -0.800782,0.597656 -0.6036,1.126809 -1.065891,1.979341 -0.693359,2.466797 0.266345,-0.766027 0.933533,-1.793864 1.494141,-3.064453 z m 23.507812,0 c 0.560613,1.270589 1.227794,2.298426 1.494141,3.064453 0.372532,-0.487456 -0.08976,-1.339988 -0.693359,-2.466797 -0.279119,-0.183865 -0.550611,-0.378355 -0.800782,-0.597656 z" />
  <ellipse
     style="opacity:0.2;fill:#000000;stroke-width:3"
     id="path4"
     cx="37.5"
     cy="37"
     rx="4.5"
     ry="6" />
  <ellipse
     style="opacity:0.2;fill:#000000;stroke-width:3"
     id="path5"
     cx="58.499046"
     cy="37"
     rx="4.5"
     ry="6" />
  <ellipse
     style="opacity:1;fill:#ffffff;stroke-width:3"
     id="path6"
     cx="37.5"
     cy="36"
     rx="4.5"
     ry="6" />
  <ellipse
     style="opacity:1;fill:#ffffff;stroke-width:3"
     id="path7"
     cx="58.499046"
     cy="36"
     rx="4.5"
     ry="6" />
  <ellipse
     style="opacity:1;fill:#3f3f3f;fill-opacity:1;stroke-width:3"
     id="path8"
     cx="39.75"
     cy="36"
     rx="2.25"
     ry="3" />
  <ellipse
     style="opacity:1;fill:#3f3f3f;fill-opacity:1;stroke-width:3"
     id="path9"
     cx="60.749046"
     cy="36"
     rx="2.25"
     ry="3" />
  <path
     id="path1040"
     style="opacity:0.1;fill:#ffffff;stroke-width:6;stroke-linecap:square"
     d="M 24,6 C 14.02802,6 6,14.028021 6,24 v 1 C 6,15.02802 14.02802,7 24,7 h 48 c 9.971978,0 18,8.02802 18,18 V 24 C 90,14.028021 81.971978,6 72,6 Z" />
</svg>
