<?xml version="1.0" encoding="UTF-8" standalone="no"?>
<!-- Created with Inkscape (http://www.inkscape.org/) -->

<svg
   width="96"
   height="96"
   viewBox="0 0 96 96"
   version="1.1"
   id="svg5"
   inkscape:version="1.3.2 (091e20ef0f, 2023-11-25, custom)"
   sodipodi:docname="desktop-profiler.svg"
   xmlns:inkscape="http://www.inkscape.org/namespaces/inkscape"
   xmlns:sodipodi="http://sodipodi.sourceforge.net/DTD/sodipodi-0.dtd"
   xmlns="http://www.w3.org/2000/svg"
   xmlns:svg="http://www.w3.org/2000/svg">
  <sodipodi:namedview
     id="namedview7"
     pagecolor="#ffffff"
     bordercolor="#000000"
     borderopacity="0.25"
     inkscape:showpageshadow="2"
     inkscape:pageopacity="0.0"
     inkscape:pagecheckerboard="0"
     inkscape:deskcolor="#d1d1d1"
     inkscape:document-units="px"
     showgrid="false"
     inkscape:zoom="8.5625"
     inkscape:cx="48"
     inkscape:cy="48"
     inkscape:window-width="1920"
     inkscape:window-height="1008"
     inkscape:window-x="0"
     inkscape:window-y="0"
     inkscape:window-maximized="1"
     inkscape:current-layer="svg5" />
  <defs
     id="defs2" />
  <rect
     style="opacity:0.2;fill:#000000;stroke-width:6;stroke-linecap:square"
     id="rect234"
     width="84"
     height="84"
     x="6"
     y="7"
     ry="18" />
  <rect
     style="fill:#673ab7;fill-opacity:1;stroke-width:6;stroke-linecap:square"
     id="rect396"
     width="84"
     height="72"
     x="6.0000014"
     y="6"
     ry="18" />
  <path
     id="rect391"
     style="fill:#7e57c2;fill-opacity:1;stroke-width:6;stroke-linecap:square"
     d="m 6,27 v 44.999999 c 0,9.971976 8.028025,18 18,18 h 47.999999 c 9.971976,0 18,-8.028024 18,-18 V 27 Z" />
  <path
     id="path4"
     style="opacity:0.2;fill:#000000;stroke-width:3"
     d="m 42.999499,36.999999 v 6.708984 a 15,15 0 0 0 -5.630859,3.246093 l -5.80664,-3.351561 -4.5,7.792968 5.806641,3.351564 a 15,15 0 0 0 -0.369141,3.251952 15,15 0 0 0 0.375,3.246093 l -5.8125,3.357423 4.5,7.792968 5.812499,-3.35742 a 15,15 0 0 0 5.625,3.269529 v 6.691407 h 9 v -6.708984 a 15,15 0 0 0 5.630859,-3.246093 l 5.806641,3.351561 4.5,-7.792968 -5.806641,-3.351564 a 15,15 0 0 0 0.369141,-3.251952 15,15 0 0 0 -0.375,-3.246093 l 5.8125,-3.357423 -4.5,-7.792968 -5.8125,3.35742 a 15,15 0 0 0 -5.625,-3.269529 v -6.691407 z m 4.5,12 a 8.9999998,8.9999998 0 0 1 9,9 8.9999998,8.9999998 0 0 1 -9,9 8.9999998,8.9999998 0 0 1 -9,-9 8.9999998,8.9999998 0 0 1 9,-9 z" />
  <path
     style="fill:#ffffff;stroke-width:3"
     d="m 43.000999,35.999999 v 6.708984 a 15,15 0 0 0 -5.630859,3.246093 l -5.80664,-3.351561 -4.5,7.792968 5.806641,3.351564 a 15,15 0 0 0 -0.369141,3.251952 15,15 0 0 0 0.375,3.246093 l -5.8125,3.357423 4.5,7.792968 5.812499,-3.35742 a 15,15 0 0 0 5.625,3.269529 v 6.691407 h 9 v -6.708984 a 15,15 0 0 0 5.630859,-3.246093 l 5.806641,3.351561 4.5,-7.792968 -5.806641,-3.351564 a 15,15 0 0 0 0.369141,-3.251952 15,15 0 0 0 -0.375,-3.246093 l 5.8125,-3.357423 -4.5,-7.792968 -5.8125,3.35742 a 15,15 0 0 0 -5.625,-3.269529 v -6.691407 z m 4.5,12 a 8.9999998,8.9999998 0 0 1 9,9 8.9999998,8.9999998 0 0 1 -9,9 8.9999998,8.9999998 0 0 1 -9,-9 8.9999998,8.9999998 0 0 1 9,-9 z"
     id="path5" />
  <g
     id="g361"
     transform="matrix(1.4999912,0,0,1.4999912,1.049e-4,1.049e-4)" />
  <path
     id="path1040"
     style="opacity:0.1;fill:#ffffff;stroke-width:6;stroke-linecap:square"
     d="M 24 6 C 14.02802 6 6 14.02802 6 24 L 6 25 C 6 15.02802 14.02802 7 24 7 L 72 7 C 81.971978 7 90 15.02802 90 25 L 90 24 C 90 14.02802 81.971978 6 72 6 L 24 6 z " />
</svg>
