<?xml version="1.0" encoding="UTF-8" standalone="no"?>
<!-- Created with Inkscape (http://www.inkscape.org/) -->

<svg
   width="96"
   height="96"
   viewBox="0 0 96 96"
   version="1.1"
   id="svg5"
   inkscape:version="1.3 (1:1.3+202307231459+0e150ed6c4)"
   sodipodi:docname="filezilla.svg"
   xmlns:inkscape="http://www.inkscape.org/namespaces/inkscape"
   xmlns:sodipodi="http://sodipodi.sourceforge.net/DTD/sodipodi-0.dtd"
   xmlns="http://www.w3.org/2000/svg"
   xmlns:svg="http://www.w3.org/2000/svg">
  <sodipodi:namedview
     id="namedview7"
     pagecolor="#ffffff"
     bordercolor="#000000"
     borderopacity="0.25"
     inkscape:showpageshadow="2"
     inkscape:pageopacity="0.0"
     inkscape:pagecheckerboard="0"
     inkscape:deskcolor="#d1d1d1"
     inkscape:document-units="px"
     showgrid="false"
     inkscape:zoom="7.4791667"
     inkscape:cx="48"
     inkscape:cy="47.933148"
     inkscape:window-width="1920"
     inkscape:window-height="1008"
     inkscape:window-x="0"
     inkscape:window-y="0"
     inkscape:window-maximized="1"
     inkscape:current-layer="svg5" />
  <defs
     id="defs2" />
  <rect
     style="opacity:0.2;fill:#000000;stroke-width:6;stroke-linecap:square"
     id="rect234"
     width="84"
     height="84"
     x="6"
     y="7"
     ry="18" />
  <rect
     style="fill:#b71c1c;fill-opacity:1;stroke-width:6;stroke-linecap:square"
     id="rect396"
     width="84"
     height="84"
     x="6"
     y="6"
     ry="18" />
  <path
     d="M 31.944,22 21,70.552 h 8.8932 l 5.166,-21.7278 h 24.276 L 36.6009,69.175 42.5289,76 l 3.036,-1.563 c 5.74047,-2.95158 8.14827,-1.22574 12.50367,-0.0174 4.2372,1.17588 8.2203,2.43438 16.4847,-2.32926 l -1.64118,-8.4078 c -9.0192,6.4128 -11.8725,0.69132 -18.2961,0.46419 l 18.3906,-15.5613 1.99551,-8.307 h -38.523 l 2.4798,-9.9699 h 25.2495 l 1.73157,-8.307 h -33.993 z"
     style="opacity:0.2;fill:#000000;stroke-width:3"
     id="path3289" />
  <path
     d="M 31.944,21 21,69.552 h 8.8932 l 5.166,-21.7278 h 24.276 L 36.6009,68.175 42.5289,75 l 3.036,-1.563 c 5.74047,-2.95158 8.14827,-1.22574 12.50367,-0.0174 4.2372,1.17588 8.2203,2.43438 16.4847,-2.32926 l -1.64118,-8.4078 c -9.0192,6.4128 -11.8725,0.69132 -18.2961,0.46419 l 18.3906,-15.5613 1.99551,-8.307 h -38.523 l 2.4798,-9.9699 h 25.2495 l 1.73157,-8.307 h -33.993 z"
     style="fill:#ffffff;stroke-width:3"
     id="path3261"
     sodipodi:nodetypes="cccccccccccccccccccc" />
  <path
     id="path1040"
     style="opacity:0.2;fill:#ffffff;stroke-width:6;stroke-linecap:square"
     d="M 24 6 C 14.02802 6 6 14.028021 6 24 L 6 25 C 6 15.02802 14.02802 7 24 7 L 72 7 C 81.971978 7 90 15.02802 90 25 L 90 24 C 90 14.028021 81.971978 6 72 6 L 24 6 z " />
</svg>
