<?xml version="1.0" encoding="UTF-8" standalone="no"?>
<!-- Created with Inkscape (http://www.inkscape.org/) -->

<svg
   width="96"
   height="96"
   viewBox="0 0 96 96"
   version="1.1"
   id="svg5"
   inkscape:version="1.3 (1:1.3+202307231459+0e150ed6c4)"
   sodipodi:docname="google-photos.svg"
   xmlns:inkscape="http://www.inkscape.org/namespaces/inkscape"
   xmlns:sodipodi="http://sodipodi.sourceforge.net/DTD/sodipodi-0.dtd"
   xmlns="http://www.w3.org/2000/svg"
   xmlns:svg="http://www.w3.org/2000/svg">
  <sodipodi:namedview
     id="namedview7"
     pagecolor="#ffffff"
     bordercolor="#000000"
     borderopacity="0.25"
     inkscape:showpageshadow="2"
     inkscape:pageopacity="0.0"
     inkscape:pagecheckerboard="0"
     inkscape:deskcolor="#d1d1d1"
     inkscape:document-units="px"
     showgrid="false"
     inkscape:zoom="7.4791667"
     inkscape:cx="48"
     inkscape:cy="47.933148"
     inkscape:window-width="1920"
     inkscape:window-height="1008"
     inkscape:window-x="0"
     inkscape:window-y="0"
     inkscape:window-maximized="1"
     inkscape:current-layer="svg5" />
  <defs
     id="defs2" />
  <rect
     style="opacity:0.2;fill:#000000;stroke-width:6;stroke-linecap:square"
     id="rect234"
     width="84"
     height="84"
     x="6"
     y="7"
     ry="18" />
  <rect
     style="fill:#efefef;fill-opacity:1;stroke-width:6;stroke-linecap:square"
     id="rect396"
     width="84"
     height="84"
     x="6"
     y="6"
     ry="18" />
  <path
     d="M 49.5,19 C 48.669,19 48,19.669 48,20.5 v 27 c 0,-9.32118 -6.71577,-15 -15,-15 -8.197425,0 -15,6.800745 -15,15 0,0.831 0.669,1.5 1.5,1.5 h 27 c -9.32118,0 -15,6.715755 -15,15 0,8.19741 6.800745,15 15,15 0.831,0 1.5,-0.669 1.5,-1.5 v -27 c 0,9.321165 6.715755,15 15,15 8.19741,0 15,-6.80076 15,-15 C 78,49.669 77.331,49 76.5,49 h -27 c 9.321165,0 15,-6.71577 15,-15 0,-8.197425 -6.80076,-15 -15,-15 z"
     style="opacity:0.2;fill:#000000;fill-opacity:1;stroke-width:2.73167"
     id="path2829"
     sodipodi:nodetypes="sscssscssscssscss" />
  <path
     id="path418"
     style="fill:#ffba00;fill-opacity:1;stroke-width:2.73167"
     d="m 33,31.5 c -8.197425,0 -15,6.800745 -15,15 0,0.831 0.669,1.5 1.5,1.5 H 48 v -1.5 c 0,-9.32118 -6.715755,-15 -15,-15 z"
     sodipodi:nodetypes="ssccss" />
  <path
     d="m 63,64.5 c 8.197425,0 15,-6.800745 15,-15 C 78,48.669 77.331,48 76.5,48 H 48 v 1.5 c 0,9.32118 6.715755,15 15,15 z"
     style="fill:#2684fc;fill-opacity:1;stroke-width:2.73167"
     id="path1093"
     sodipodi:nodetypes="ssscss" />
  <path
     d="m 64.5,33 c 0,-8.197425 -6.800745,-15 -15,-15 -0.831,0 -1.5,0.669 -1.5,1.5 V 48 h 1.5 c 9.32118,0 15,-6.715755 15,-15 z"
     style="fill:#ea4335;fill-opacity:1;stroke-width:2.73167"
     id="path1037"
     sodipodi:nodetypes="ssscss" />
  <path
     d="m 31.5,63 c 0,8.197425 6.800745,15 15,15 0.831,0 1.5,-0.669 1.5,-1.5 V 48 h -1.5 c -9.32118,0 -15,6.715755 -15,15 z"
     style="fill:#00ac47;fill-opacity:1;stroke-width:2.73167"
     id="path1065"
     sodipodi:nodetypes="ssscss" />
  <path
     id="path1040"
     style="opacity:0.2;fill:#ffffff;stroke-width:6;stroke-linecap:square"
     d="M 24,6 C 14.02803,6 6,14.02803 6,24 v 1 C 6,15.02801 14.02801,7 24,7 h 48 c 9.97199,0 18,8.02801 18,18 V 24 C 90,14.02803 81.971968,6 72,6 Z" />
</svg>
