<?xml version="1.0" encoding="UTF-8" standalone="no"?>
<!-- Created with Inkscape (http://www.inkscape.org/) -->

<svg
   width="96"
   height="96"
   viewBox="0 0 96 96"
   version="1.1"
   id="svg5"
   inkscape:version="1.2.2 (1:1.2.2+202305151914+b0a8486541)"
   sodipodi:docname="google-chrome-canary.svg"
   xmlns:inkscape="http://www.inkscape.org/namespaces/inkscape"
   xmlns:sodipodi="http://sodipodi.sourceforge.net/DTD/sodipodi-0.dtd"
   xmlns="http://www.w3.org/2000/svg"
   xmlns:svg="http://www.w3.org/2000/svg">
  <sodipodi:namedview
     id="namedview7"
     pagecolor="#ffffff"
     bordercolor="#000000"
     borderopacity="0.25"
     inkscape:showpageshadow="2"
     inkscape:pageopacity="0.0"
     inkscape:pagecheckerboard="0"
     inkscape:deskcolor="#d1d1d1"
     inkscape:document-units="px"
     showgrid="false"
     inkscape:zoom="8.3958333"
     inkscape:cx="48"
     inkscape:cy="48"
     inkscape:window-width="1920"
     inkscape:window-height="1008"
     inkscape:window-x="0"
     inkscape:window-y="0"
     inkscape:window-maximized="1"
     inkscape:current-layer="svg5" />
  <defs
     id="defs2" />
  <rect
     style="opacity:0.2;fill:#000000;stroke-width:6;stroke-linecap:square"
     id="rect234"
     width="84"
     height="84"
     x="6"
     y="7"
     ry="18" />
  <rect
     style="fill:#efefef;fill-opacity:1;stroke-width:6;stroke-linecap:square"
     id="rect396"
     width="84"
     height="84"
     x="6"
     y="6"
     ry="18" />
  <g
     id="g361"
     transform="scale(1.5)">
    <ellipse
       style="opacity:0.2;fill:#000000;fill-opacity:1;stroke-width:5;stroke-linecap:round;stroke-linejoin:round"
       id="path4197"
       cx="31.999994"
       cy="32.666653"
       rx="20"
       ry="19.999985" />
    <path
       d="m 31.999963,12.000019 c -7.402539,0 -13.860783,4.024593 -17.319041,10.002428 l 0.652399,11.664128 8.006234,3.333463 8.660408,-4.999886 V 22.000085 H 49.317816 C 45.858968,16.023726 39.401612,12.000019 31.999963,12.000019 Z"
       style="fill:#ff8f00;fill-opacity:1;stroke-width:0.0781246"
       id="path371" />
    <path
       d="m 12.000124,32.000152 c 0,11.045635 8.953909,19.999835 19.999838,19.999835 l 8.771735,-4.689174 -0.111328,-10.310775 -8.660407,-4.999886 -8.660405,4.999886 -8.658635,-14.997591 c -1.701874,2.94188 -2.680915,6.354016 -2.680915,9.99741"
       style="fill:#ffc107;fill-opacity:1;stroke-width:0.0781246"
       id="path399" />
    <path
       d="m 31.999962,32.000152 8.660404,4.999886 -8.660404,14.999949 c 11.04563,0 19.999833,-8.9542 19.999833,-19.999835 0,-3.643984 -0.97936,-7.057361 -2.682188,-10.000067 H 31.999754 Z"
       style="fill:#ffd180;fill-opacity:1;stroke-width:0.0781246"
       id="path427" />
    <circle
       style="opacity:0.2;fill:#000000;stroke-width:4;stroke-linecap:square"
       id="path501"
       cx="32"
       cy="32.666668"
       r="10" />
    <ellipse
       style="opacity:1;fill:#ffffff;fill-opacity:1;stroke-width:4;stroke-linecap:square"
       id="path499"
       cx="32.000172"
       cy="32.000153"
       rx="10.000068"
       ry="10.000067" />
    <ellipse
       style="opacity:1;fill:#ffb300;fill-opacity:1;stroke-width:4;stroke-linecap:square"
       id="path1204"
       cx="32.000172"
       cy="32.000019"
       rx="8"
       ry="7.9999962" />
    <path
       id="path1132"
       style="opacity:0.2;fill:#ffffff;fill-opacity:1;stroke-width:5;stroke-linecap:round;stroke-linejoin:round"
       d="M 32 12 C 20.95431 12.000002 11.999992 20.95432 12 32 C 12.003078 32.135043 12.008526 32.269996 12.014323 32.404948 A 20 19.999985 0 0 1 32 12.666667 A 20 19.999985 0 0 1 51.992188 32.234375 C 51.995053 32.156259 51.998031 32.078145 52 32 C 52.000008 20.95432 43.04569 12.000003 32 12 z " />
  </g>
  <path
     d="M 24,6.0000003 C 14.028011,6.0000003 6,14.028011 6,24 v 1 C 6,15.028011 14.028011,7 24,7 h 48 c 9.97199,0 18,8.028011 18,18 V 24 C 90,14.028011 81.97199,6.0000003 72,6.0000003 Z"
     style="opacity:0.2;fill:#ffffff;stroke-width:6;stroke-linecap:square"
     id="path1040" />
</svg>
