<?xml version="1.0" encoding="UTF-8" standalone="no"?>
<!-- Created with Inkscape (http://www.inkscape.org/) -->

<svg
   width="96"
   height="96"
   viewBox="0 0 96 96"
   version="1.1"
   id="svg5"
   inkscape:version="1.3.2 (091e20ef0f, 2023-11-25, custom)"
   sodipodi:docname="gparted.svg"
   xmlns:inkscape="http://www.inkscape.org/namespaces/inkscape"
   xmlns:sodipodi="http://sodipodi.sourceforge.net/DTD/sodipodi-0.dtd"
   xmlns="http://www.w3.org/2000/svg"
   xmlns:svg="http://www.w3.org/2000/svg">
  <sodipodi:namedview
     id="namedview7"
     pagecolor="#ffffff"
     bordercolor="#000000"
     borderopacity="0.25"
     inkscape:showpageshadow="2"
     inkscape:pageopacity="0.0"
     inkscape:pagecheckerboard="0"
     inkscape:deskcolor="#d1d1d1"
     inkscape:document-units="px"
     showgrid="false"
     inkscape:zoom="8.5625"
     inkscape:cx="48"
     inkscape:cy="48"
     inkscape:window-width="1920"
     inkscape:window-height="1008"
     inkscape:window-x="0"
     inkscape:window-y="0"
     inkscape:window-maximized="1"
     inkscape:current-layer="svg5" />
  <defs
     id="defs2" />
  <rect
     style="opacity:0.2;fill:#000000;stroke-width:6;stroke-linecap:square"
     id="rect234"
     width="84"
     height="84"
     x="6"
     y="9"
     ry="18" />
  <rect
     style="fill:#b7b7b7;fill-opacity:1;stroke-width:6;stroke-linecap:square"
     id="rect396"
     width="84"
     height="84"
     x="6"
     y="6"
     ry="18" />
  <path
     d="m 18.00009,49 c 0,16.568541 13.43145,30 30,30 V 61 c -6.62742,0 -12,-5.372583 -12,-12 z"
     style="opacity:0.1;fill:#000000;fill-opacity:1;stroke-width:12;stroke-linecap:square"
     id="path3246" />
  <path
     id="path2850"
     style="fill:#797979;fill-opacity:1;stroke-width:12;stroke-linecap:square"
     d="m 18.00009,48 c 0,16.568541 13.43145,30 30,30 V 60 c -6.62742,0 -12,-5.372583 -12,-12 z"
     sodipodi:nodetypes="ccccc" />
  <path
     d="M 26.8419,27.841798 C 21.2091,33.445405 18.02925,41.054677 18.00009,49 h 18 c 0.027,-3.171687 1.31133,-6.203133 3.56835,-8.431641 z"
     style="opacity:0.1;fill:#000000;fill-opacity:1;stroke-width:12;stroke-linecap:square"
     id="path3218" />
  <path
     d="M 56.43174,57.431641 C 54.20322,59.68867 51.17178,60.971611 48.00009,61 v 18 c 7.94532,-0.0291 15.55458,-3.208992 21.15819,-8.841798 z"
     style="opacity:0.1;fill:#000000;fill-opacity:1;stroke-width:12;stroke-linecap:square"
     id="path3190" />
  <path
     id="path3016"
     style="fill:#f65c51;fill-opacity:1;stroke-width:12;stroke-linecap:square"
     d="M 56.43174,56.431641 C 54.20322,58.68867 51.17178,59.971611 48.00009,60 v 18 c 7.94532,-0.0291 15.55458,-3.208992 21.15819,-8.841798 z"
     sodipodi:nodetypes="ccccc" />
  <path
     d="M 26.8419,26.841798 C 21.2091,32.445405 18.02925,40.054677 18.00009,48 h 18 c 0.027,-3.171687 1.31133,-6.203133 3.56835,-8.431641 z"
     style="fill:#ffc107;fill-opacity:1;stroke-width:12;stroke-linecap:square"
     id="path3065"
     sodipodi:nodetypes="ccccc" />
  <path
     d="m 25.15227,81.714435 13.4025,-18.628449 c 0.2772,-0.329499 0.44394,-0.752211 0.44394,-1.2135 C 38.99871,60.839004 38.15964,60 37.1238,60 c -0.46125,0 -0.8847,0.16392 -1.21215,0.44361 l -18.6258,13.406385 c -1.43097,1.044447 -2.28177,2.728551 -2.28576,4.524507 0,3.110091 2.51877,5.625492 5.62629,5.625492 1.77663,0.0069 3.45297,-0.839718 4.52589,-2.285559 z"
     style="opacity:0.2;fill:#000000;stroke-width:3"
     id="path3556" />
  <path
     d="m 25.15218,78.713442 13.4025,-18.628449 c 0.2772,-0.329499 0.44394,-0.752211 0.44394,-1.2135 0,-1.033482 -0.83907,-1.872486 -1.87491,-1.872486 -0.46125,0 -0.8847,0.16392 -1.21215,0.44361 L 17.28576,70.849002 C 15.85479,71.893449 15.00399,73.577553 15,75.373509 c 0,3.110091 2.51877,5.625492 5.62629,5.625492 1.77663,0.0069 3.45297,-0.839718 4.52589,-2.285559 z"
     style="fill:#ffffff;stroke-width:3"
     id="path3528"
     sodipodi:nodetypes="ccssccccc" />
  <circle
     style="opacity:0.1;fill:#000000;fill-opacity:1;stroke-width:6;stroke-linecap:square"
     id="path3294"
     cx="48.000092"
     cy="49"
     r="3" />
  <circle
     style="fill:#ffffff;fill-opacity:1;stroke-width:6;stroke-linecap:square"
     id="path3296"
     cx="48.000092"
     cy="48"
     r="3" />
  <path
     d="M 48.00009,19 C 40.05477,19.0291 32.44551,22.208992 26.8419,27.841798 L 39.56844,40.568359 C 41.79696,38.31133 44.8284,37.028389 48.00009,37 c 6.62742,0 12,5.372583 12,12 -0.027,3.171687 -1.31133,6.203133 -3.56835,8.431641 L 69.15828,70.158202 C 74.79108,64.554595 77.97093,56.945323 78.00009,49 c 0,-16.568541 -13.43145,-30 -30,-30 z"
     style="opacity:0.1;fill:#000000;fill-opacity:1;stroke-width:5.71428;stroke-linecap:square"
     id="path3162" />
  <g
     id="g361"
     transform="matrix(1.4999913,0,0,1.4999913,1.048e-4,1.048e-4)" />
  <path
     id="path2436"
     style="fill:#3d9260;fill-opacity:1;stroke-width:5.71428;stroke-linecap:square"
     d="M 48 18 C 40.054688 18.0291 32.445401 21.208997 26.841797 26.841797 L 39.568359 39.568359 C 41.796877 37.311333 44.828313 36.028389 48 36 C 54.627413 36 60 41.37259 60 48 C 59.973 51.171684 58.688658 54.203135 56.431641 56.431641 L 69.158203 69.158203 C 74.790997 63.554602 77.97084 55.945315 78 48 C 78 31.431476 64.568533 18 48 18 z " />
  <path
     id="path1040"
     style="opacity:0.2;fill:#ffffff;stroke-width:6;stroke-linecap:square"
     d="M 24 6 C 14.02802 6 6 14.028021 6 24 L 6 25 C 6 15.028021 14.02802 7 24 7 L 72 7 C 81.971978 7 90 15.028021 90 25 L 90 24 C 90 14.028021 81.971978 6 72 6 L 24 6 z " />
</svg>
