<?xml version="1.0" encoding="UTF-8" standalone="no"?>
<!-- Created with Inkscape (http://www.inkscape.org/) -->

<svg
   width="96"
   height="96"
   viewBox="0 0 96 96"
   version="1.1"
   id="svg5"
   inkscape:version="1.4.3 (0d15f75042, 2025-12-25)"
   sodipodi:docname="gta-vice-city.svg"
   xmlns:inkscape="http://www.inkscape.org/namespaces/inkscape"
   xmlns:sodipodi="http://sodipodi.sourceforge.net/DTD/sodipodi-0.dtd"
   xmlns="http://www.w3.org/2000/svg"
   xmlns:svg="http://www.w3.org/2000/svg">
  <sodipodi:namedview
     id="namedview7"
     pagecolor="#ffffff"
     bordercolor="#000000"
     borderopacity="0.25"
     inkscape:showpageshadow="2"
     inkscape:pageopacity="0.0"
     inkscape:pagecheckerboard="0"
     inkscape:deskcolor="#d1d1d1"
     inkscape:document-units="px"
     showgrid="false"
     inkscape:zoom="8.40625"
     inkscape:cx="47.94052"
     inkscape:cy="48"
     inkscape:window-width="1920"
     inkscape:window-height="1010"
     inkscape:window-x="0"
     inkscape:window-y="0"
     inkscape:window-maximized="1"
     inkscape:current-layer="svg5" />
  <defs
     id="defs2" />
  <rect
     style="opacity:0.2;fill:#000000;stroke-width:5.99999;stroke-linecap:square"
     id="rect234"
     width="83.999886"
     height="83.999886"
     x="6"
     y="6.9999962"
     ry="17.999975" />
  <rect
     style="fill:#4cc4de;fill-opacity:1;stroke-width:5.99999;stroke-linecap:square"
     id="rect396"
     width="83.999886"
     height="83.999886"
     x="6"
     y="6"
     ry="17.999975" />
  <path
     style="opacity:0.1;fill:#000000;stroke-width:3"
     d="m 48.919863,7.0028692 c -0.968171,0.01908 -1.924719,0.1061159 -2.871092,0.2812496 -0.530405,0.098106 -1.058839,0.051018 -1.576168,0.2050767 -0.560195,0.1671418 -1.111765,0.5409395 -1.65234,0.7792955 -6.452067,2.848637 -11.242641,8.068685 -13.15428,14.894511 -7.26e-4,0.0015 -0.78485,2.927784 -0.19923,5.009758 0.0276,2.062356 -0.214559,4.211157 0.609374,6.128896 0.18021,0.419306 0.25713,1.157419 0.17577,1.646484 -0.1206,0.732506 -0.733325,1.368643 -0.937496,2.080074 -0.454115,1.584919 -0.651977,3.231848 -0.849607,4.863276 -0.18384,1.51588 -0.696119,3.18628 -0.644531,4.70507 0.0153,0.44183 0.113759,0.834785 0.05274,1.277341 -0.29571,2.128485 -0.977331,4.21785 -1.376952,6.333975 -0.167832,0.889469 -0.330185,1.790578 -0.404296,2.695311 -0.100989,1.25209 0.332376,2.618633 1.499998,3.205072 -0.08136,1.825453 -0.320052,4.926698 0.867185,6.468741 0.863182,1.119836 1.644522,2.302686 2.220699,3.597652 0.241949,0.54284 0.400928,1.254607 0.984376,1.529296 0.663368,0.313206 1.752187,-0.0129 2.419917,-0.14649 l 2.859371,-2.537108 c -0.676154,5.812519 -1.416223,11.619022 -2.068356,17.431616 0.433286,1.440952 1.661073,3.368204 3.228511,3.544918 4.553832,0.0078 9.104348,-0.0078 13.658183,0 -2.447915,-2.236484 -4.522056,-4.910849 -6.480459,-7.564441 -0.579764,-2.098911 0.798125,-4.062432 1.218748,-6.070306 1.117001,-4.093521 2.186679,-8.208195 3.691402,-12.181624 0.937676,-1.966044 0.868928,-4.202013 1.757809,-6.152334 0.410189,-1.054144 1.077838,-1.962132 1.693356,-2.900387 -0.390275,1.795165 -1.42453,3.414202 -1.927731,5.050775 0.797216,-0.634316 2.054589,-2.707214 1.166015,-0.796874 -0.818684,0.436317 -1.940971,2.714516 -0.357423,1.48828 0.0054,-0.0102 0.0117,-0.0132 0.0177,-0.0234 l -0.621092,1.189453 c -0.643496,0.375573 -1.120124,0.899402 -1.054688,2.003902 -0.619841,2.180784 -1.573602,4.246833 -1.921872,6.498039 -0.11604,0.286619 -0.13947,0.471524 -0.11133,0.609374 l -0.12891,0.720701 -0.0177,0.006 c -0.157499,0.361724 -0.186389,0.580148 -0.111329,0.697265 l -0.23439,1.312498 c -0.520421,1.716406 -0.577799,3.790576 -1.037108,5.566399 0.12045,1.649179 -1.536256,3.656986 -0.006,4.898432 1.63468,1.928449 3.238985,4.111042 5.203118,5.648428 4.816814,0.0138 9.638243,-0.0135 14.455057,0 -1.611538,-2.573912 -3.352948,-5.320651 -3.333979,-8.478504 -0.10194,-2.133852 -0.04248,-4.333749 -0.386718,-6.451161 l 0.05274,0.006 c 0.07602,-1.355914 -0.423164,-2.710481 -1.277341,-4.066401 0.792608,0.17178 1.582417,0.23568 2.367182,-0.22266 3.038789,-1.385818 5.251973,-4.507829 5.542964,-7.833973 0.07053,-2.42219 -2.414994,-3.538261 -4.101559,-4.716791 -2.565707,-1.749112 -5.169397,-3.451684 -7.447255,-5.578117 -0.498365,-0.427458 -0.956579,-0.898583 -1.412107,-1.371091 l 0.24609,-0.21678 c -0.885257,-0.86987 -1.8925,-1.889404 -2.343747,-2.496093 0,0 -0.1626,-2.052171 -0.439452,-2.507807 0.964178,-0.23472 1.927801,-0.521462 2.847653,-0.890624 0.750563,-0.300849 1.420264,-0.767096 2.162106,-1.078123 0.574002,-0.24126 1.356751,-0.25362 1.851559,-0.650391 0.524594,-0.421484 0.296009,-1.649022 0.310547,-2.249996 0.0282,-1.200497 0.08874,-2.396427 0.10548,-3.597652 0.0153,-1.111841 1.389283,-2.229528 1.921873,-3.164057 1.799019,-3.151667 0.377117,-7.099064 0.275399,-10.499986 -0.03561,-1.209218 0.659915,-2.58347 1.02539,-3.726557 0.254309,-0.795731 0.507416,-1.593439 0.761717,-2.390622 C 66.053322,12.801245 60.955942,9.165337 55.511649,7.8173213 54.894052,7.6639984 54.270233,7.7746559 53.636651,7.6591183 53.040138,7.5508487 52.436485,7.2110761 51.831968,7.143494 50.865972,7.0352161 49.88804,6.983794 48.919863,7.0028692 Z m 7.693348,45.5858728 c 0.16578,0.19488 0.318618,0.399633 0.480468,0.597653 l -0.08202,0.15822 c -0.17172,-0.21801 -0.37365,-0.407765 -0.550781,-0.621092 z M 27.626925,57.41686 v 3.369137 c 0,0 -2.160858,-1.113482 0,-3.369137 z m 6.925769,17.835911 c -0.972589,0.27573 -0.552014,2.737422 -0.16407,0.902342 0.376299,-0.418949 2.64831,-0.799448 0.667967,-0.867185 -0.200039,-0.06882 -0.364964,-0.07455 -0.503906,-0.03516 z m 1.160156,1.113281 c -1.325681,0.874943 -3.290594,1.749294 -3.041012,3.667963 -0.368964,1.299079 2.280381,2.785367 2.437496,1.259764 0.344937,-0.889328 -1.241116,0.530729 -1.734372,-0.673826 -0.820391,-2.003433 1.533634,-2.883509 2.320311,-4.048824 z"
     id="path2" />
  <path
     style="fill:#3c3c3c;stroke-width:3"
     d="m 48.921372,6.0069654 c -0.968171,0.01908 -1.928817,0.1079158 -2.87519,0.2830496 -0.530405,0.098106 -1.057669,0.051051 -1.574998,0.2051097 -0.560195,0.1671418 -1.108246,0.5410565 -1.648824,0.7794124 -6.452064,2.8486369 -11.246157,8.0650589 -13.157796,14.8908859 -7.26e-4,0.0015 -0.782507,2.930879 -0.19689,5.012854 0.0276,2.062357 -0.216929,4.2068 0.607031,6.124541 0.18021,0.419303 0.25773,1.160011 0.17637,1.649077 -0.1206,0.732506 -0.735086,1.368367 -0.939257,2.079798 -0.454115,1.584918 -0.647288,3.229648 -0.844918,4.861076 -0.18384,1.51588 -0.699635,3.1864 -0.648047,4.70519 0.0153,0.441831 0.114329,0.83732 0.05331,1.279876 -0.29571,2.128485 -0.974397,4.217629 -1.374018,6.333757 -0.167832,0.889468 -0.331943,1.790394 -0.406054,2.695127 -0.100989,1.25209 0.329446,2.621456 1.497067,3.207895 -0.08136,1.825453 -0.317706,4.927082 0.869531,6.469125 0.863182,1.119836 1.642761,2.302641 2.218941,3.597607 0.241949,0.542841 0.400928,1.25132 0.984373,1.526008 0.663371,0.313206 1.756291,-0.0099 2.424021,-0.14358 l 23.116372,-20.49445 c -0.885257,-0.869867 -1.890742,-1.887432 -2.341989,-2.494122 0,0 -0.16203,-2.050791 -0.438867,-2.506427 0.964178,-0.23472 1.930729,-0.525113 2.850581,-0.894275 0.750563,-0.300848 1.419679,-0.763742 2.161521,-1.074769 0.574002,-0.24126 1.354996,-0.25548 1.849804,-0.652241 0.524594,-0.421485 0.293069,-1.647019 0.307616,-2.247993 0.0282,-1.200497 0.08991,-2.400483 0.10665,-3.601708 0.0153,-1.111841 1.391041,-2.228244 1.923631,-3.162773 1.799019,-3.151666 0.376526,-7.096535 0.274799,-10.497457 -0.03561,-1.209218 0.659915,-2.58579 1.02539,-3.728877 0.254309,-0.79573 0.508586,-1.594382 0.762887,-2.391565 C 66.054255,11.80301 60.956857,8.1672117 55.512564,6.8191957 54.894967,6.6658728 54.267632,6.7788505 53.63405,6.6633129 53.037537,6.5550433 52.433896,6.2140221 51.829379,6.14644 50.863383,6.038162 49.889549,5.9878902 48.921372,6.0069654 Z M 27.626091,56.41856 v 3.371986 c 0,0 -2.160858,-1.116332 0,-3.371986 z"
     id="path3" />
  <path
     style="fill:#e2a67f;stroke-width:3"
     d="m 42.186615,40.256001 c -0.0594,-0.0102 -0.154229,-0.0011 -0.303515,0.03693 -1.843405,0.28692 1.148782,2.26764 -0.15177,3.605809 -1.194376,2.421585 -2.713061,4.683515 -4.224597,6.912161 -2.220111,3.574843 -1.951278,8.100883 -0.725981,11.966036 0.445787,1.594272 0.326205,-0.693812 0.451172,-1.279877 -0.581966,-1.922931 -1.180603,-3.94164 -0.812107,-5.98917 -0.18249,-1.112975 2.006898,-4.182849 0.853123,-1.681891 -0.704921,2.065269 -0.605477,4.377432 0.09432,6.428103 0.336024,-1.847907 0.935507,-3.645037 1.415035,-5.447683 -0.478001,-1.099787 0.572165,-2.347179 0.46758,-0.430731 -0.722972,3.046478 -1.47685,6.098602 -1.677535,9.23399 -0.776132,7.628876 -1.844202,15.227574 -2.698826,22.844999 0.433286,1.440952 1.660488,3.367561 3.227926,3.544276 4.553832,0.0078 9.108449,-0.0078 13.662284,0 -2.447915,-2.236485 -4.526157,-4.910814 -6.48456,-7.564406 -0.579764,-2.098911 0.801641,-4.059237 1.222264,-6.06711 1.117001,-4.093522 2.182575,-8.210026 3.687298,-12.183454 0.937676,-1.966045 0.870689,-4.198836 1.75957,-6.149158 0.410189,-1.054144 1.078423,-1.96608 1.693941,-2.904335 -0.390275,1.795165 -1.42453,3.413201 -1.927731,5.049773 0.797216,-0.634316 2.057517,-2.706161 1.168943,-0.795821 -0.818684,0.436317 -1.944484,2.715324 -0.360936,1.489087 0.0054,-0.0102 0.0147,-0.0144 0.0207,-0.0246 l -0.623435,1.193732 c -0.643496,0.375572 -1.119539,0.897361 -1.054103,2.001861 -0.619841,2.180784 -1.57536,4.246635 -1.92363,6.497841 -0.11604,0.286619 -0.13887,0.473375 -0.11073,0.611225 l -0.492185,2.736146 c -0.520421,1.716406 -0.574286,3.790825 -1.033595,5.566648 0.12045,1.649179 -1.538497,3.65245 -0.0081,4.893893 1.63468,1.928449 3.240743,4.111303 5.204876,5.64869 4.816814,0.0138 9.632969,-0.0135 14.449783,0 -1.611538,-2.573913 -3.349432,-5.321336 -3.330463,-8.479189 -0.10194,-2.133852 -0.04542,-4.331205 -0.389646,-6.448617 l 0.05331,0.0042 c 0.07821,-1.394701 -0.441269,-2.78951 -1.341211,-4.184214 l 5.446867,-8.82377 -10.163656,-10.128265 -0.213269,0.410216 c -0.676538,-0.858878 -1.391242,-1.686072 -2.173824,-2.444894 0.0201,1.168501 -1.376566,4.188675 -0.873632,1.493191 0.24753,-2.154108 0.623126,-4.6053 -0.955742,-6.38308 -1.279864,-1.533258 -2.84054,-3.606327 -5.098235,-3.314554 -1.56162,1.146322 -2.534288,-0.580226 -4.208199,-0.894275 -0.766613,-0.03633 -2.296292,1.635787 -1.525776,-0.168179 0.03624,-0.14562 0.186419,-0.351078 0.0081,-0.381501 z"
     id="path4" />
  <path
     style="fill:#f55588;stroke-width:3"
     d="m 54.946558,49.194636 c -0.1545,0.662399 0.649367,0.994705 0.947929,1.501054 1.937755,2.156064 3.663343,4.501424 4.954211,7.105304 1.227038,2.151246 1.810393,4.780967 0.898241,7.158287 -0.594872,1.573194 -1.29715,3.276346 -2.658623,4.326768 -1.168987,0.350789 -2.427663,0.36683 -3.59557,0.780355 l -6.809265,1.809142 c -0.345917,0.794486 -0.130919,0.998978 0.645036,0.613436 2.900542,-0.879314 5.857569,-1.570072 8.829863,-2.149629 2.115408,-0.37751 4.177038,1.639465 6.218607,0.447089 3.038789,-1.385818 5.252558,-4.503416 5.543549,-7.82956 0.07053,-2.42219 -2.415471,-3.540664 -4.102036,-4.719194 -2.565707,-1.749112 -5.170339,-3.45055 -7.448197,-5.576983 -1.233829,-1.058282 -2.276874,-2.317626 -3.423745,-3.466069 z M 35.058112,74.291722 c -1.600407,-0.550614 -1.11193,2.966896 -0.668555,0.869662 0.376299,-0.418949 2.648898,-0.801926 0.668555,-0.869662 z m 0.652146,1.078873 c -1.325681,0.874943 -3.289439,1.749121 -3.039857,3.667789 -0.368964,1.299079 2.279091,2.784539 2.436206,1.258936 0.344937,-0.889328 -1.237765,0.529511 -1.731021,-0.675044 -0.820391,-2.003433 1.53535,-2.879675 2.322024,-4.04499 l 0.0126,-0.20667 z"
     id="path5" />
  <path
     style="fill:#e2a57d;stroke-width:3"
     d="m 46.045255,38.451702 2.684003,2.489648 c 1.907056,0.71756 3.856939,1.619056 5.936482,1.548742 1.232251,-0.0114 2.091366,-1.0556 2.460132,-2.136198 1.217824,-3.191903 2.741648,-6.287937 3.565594,-9.615188 0.151229,-0.92112 0.337514,-1.911237 0.0888,-2.822342 0.06297,0.337149 -0.36912,1.379245 -1.135154,0.876711 -0.45386,-0.125831 -0.919619,-0.214028 -1.365631,-0.364647 -0.0258,1.095566 -0.408545,-0.452816 -0.0531,-1.042472 0.474341,-0.973391 1.237996,-2.036519 2.446281,-1.967345 1.173616,-0.128792 0.968467,-1.394975 0.805538,-2.230635 -0.265599,-1.361716 -0.516726,-2.729944 -0.788096,-4.087613 -0.281316,-0.468833 -0.871538,-1.385761 -1.103213,-1.533812 -0.383207,1.405876 -0.654626,2.837037 -0.731867,4.293536 -0.249449,2.544994 -1.210048,4.480526 -2.289195,6.302263 -0.64304,1.138423 -1.593525,2.253047 -2.973781,2.421782 -1.009583,0.07617 -1.749586,0.36437 -2.199432,1.320625 -0.871745,0.998662 -1.939837,2.227137 -1.527322,3.660949 0.270989,1.124602 -0.604919,-1.20209 -0.12792,-1.722568 0.361742,-1.090516 1.2385,-1.882779 1.871355,-2.810972 -0.989695,-1.32e-4 -1.747314,0.839675 -2.26113,1.595095 -0.428678,1.293502 -0.905629,2.883548 -0.0243,4.099908 0.206279,0.398876 0.845035,1.17757 0.107909,0.509135 -0.964486,-0.915892 -1.352497,-2.269277 -1.233865,-3.571342 -0.04668,-0.693911 0.480632,-1.759404 -0.400007,-0.957796 -0.26004,0.215309 -0.664388,0.353207 -0.840575,0.613454 l 0.0159,4.301196 -0.927119,0.829883"
     id="path6" />
  <path
     style="fill:#f89dba;stroke-width:3"
     d="m 35.790981,53.676644 c 0.11916,0.13515 -0.173639,0.850958 -0.259379,1.842895 -0.05814,0.680909 -0.14313,1.355278 -0.15984,2.041278 -0.04071,1.621252 0.13224,3.24541 0.605246,4.801262 0.21288,0.699803 0.583445,1.342201 0.908954,1.992591 v 0.846596 c -0.969986,-1.829811 -1.900743,-3.56806 -2.192829,-5.651488 -0.09663,-0.685274 -0.13149,-1.379266 -0.10971,-2.070351 0.03996,-1.278979 0.610331,-3.114605 1.207582,-3.802783"
     id="path7" />
  <path
     style="fill:#040606;stroke-width:3"
     d="m 35.790981,53.676644 -0.0072,0.006 0.0261,0.10683 c 0,0.26235 -0.215789,0.900371 -0.287009,1.729531 -0.05883,0.680909 -0.14313,1.355278 -0.16056,2.042004 -0.0036,0.1497 -0.006,0.300126 -0.006,0.449825 0,1.472278 0.18237,2.941652 0.611783,4.354344 0.21288,0.700532 0.5849,1.343653 0.909683,1.994043 l 0.0081,-0.0045 h -0.0087 v 0.846596 h 0.0087 l 0.0081,-0.0036 c -0.969989,-1.830537 -1.900017,-3.567334 -2.192103,-5.649307 -0.07773,-0.554468 -0.11553,-1.115473 -0.11553,-1.675756 0,-0.130799 0.0021,-0.261599 0.006,-0.392411 0.03996,-1.277527 0.611057,-3.113156 1.205404,-3.797698 l -0.0066,-0.006 -0.0072,0.006 0.0072,-0.006 -0.0072,-0.006 c -0.598706,0.691811 -1.169074,2.526711 -1.209763,3.808597 -0.0045,0.1308 -0.006,0.2616 -0.006,0.39314 0,0.561009 0.03777,1.122743 0.11553,1.678663 0.2928,2.085609 1.224295,3.824584 2.194284,5.654395 l 0.0174,-0.0045 v -0.846596 -0.0021 l -0.0015,-0.0015 c -0.325461,-0.651074 -0.69602,-1.293469 -0.908183,-1.99182 -0.42941,-1.410508 -0.611057,-2.877704 -0.611057,-4.34853 0,-0.149699 0.0021,-0.300125 0.006,-0.449825 0.0174,-0.685268 0.10173,-1.358914 0.16059,-2.040549 0.07047,-0.827705 0.287009,-1.461382 0.287009,-1.730983 l -0.03051,-0.11847 -0.0066,-0.0081 -0.0075,0.0081 0.0075,0.006"
     id="path8" />
  <path
     style="fill:#f89dba;stroke-width:3"
     d="m 43.745617,40.344009 2.827865,1.554397 0.480999,-0.19038 -2.747213,-1.795659 -0.561651,0.431654"
     id="path9" />
  <path
     style="fill:#040606;stroke-width:3"
     d="m 43.745617,40.344009 -0.0045,0.0081 2.831498,1.556578 0.485358,-0.19257 0.0159,-0.0066 -2.767556,-1.808013 -0.577638,0.444008 0.0123,0.0066 0.0045,-0.0081 0.0051,0.0072 0.556563,-0.428021 2.727599,1.782576 -0.461382,0.18312 -2.823506,-1.552942 -0.0045,0.0081 0.0051,0.0072 -0.0051,-0.0072"
     id="path10" />
  <path
     style="fill:#f89dba;stroke-width:3"
     d="m 42.411612,39.97267 0.23031,-0.561006 -0.772358,0.451275 0.542033,0.10971"
     id="path11" />
  <path
     style="fill:#040606;stroke-width:3"
     d="m 42.411612,39.97267 0.0081,0.0036 0.23106,-0.561732 0.0102,-0.0246 -0.81668,0.477438 0.565283,0.11409 0.0072,0.0015 0.0029,-0.0066 -0.0081,-0.0036 0.0015,-0.0087 -0.518054,-0.10539 0.728033,-0.425841 -0.22014,0.537027 0.0087,0.0029 0.0015,-0.0087 -0.0015,0.0087"
     id="path12" />
  <path
     style="fill:#ffffff;stroke-width:3"
     d="m 42.547482,40.779299 4.002021,-3.319534 -0.09735,-6.10131 -3.90466,9.420844"
     id="path13" />
  <path
     style="fill:#040606;stroke-width:3"
     d="m 42.547482,40.779299 0.006,0.0066 4.005654,-3.321715 -0.0981,-6.106398 -0.0174,-0.0029 -3.903934,9.420844 0.0138,0.0102 -0.006,-0.0066 0.0087,0.0029 3.887224,-9.38015 0.09663,6.053353 -3.998391,3.316624 0.006,0.0075 0.0087,0.0029 -0.0087,-0.0029"
     id="path14" />
  <path
     style="fill:#e2a57d;stroke-width:3"
     d="m 44.564478,39.687805 1.041923,-0.861131 2.277111,2.488926 -0.585627,0.276869 -2.733407,-1.904664"
     id="path15" />
  <path
     style="fill:#f03a25;stroke-width:3"
     d="m 52.845355,37.328962 c 0,0 2.147055,-1.041352 3.156277,-1.220119 0,0 0.406887,-0.13008 0.780353,0.13008 0,0 0.14676,0.13008 0.504248,0.08139 0.21144,-0.0282 0.418515,-0.1962 0.631401,-0.11121 0.240509,0.09666 0.318971,0.436016 0.263759,0.664196 l -0.390173,0.618416 c -0.0741,0.11847 0.0108,0.551561 -0.0129,0.727418 -0.03633,0.26088 -0.14169,0.467267 -0.331323,0.649667 -0.282629,0.27177 -0.606698,0.328464 -0.985249,0.343725 -0.818858,0.03342 -1.433548,-0.06759 -2.086024,-0.593709 -0.543485,-0.439649 -0.837022,-1.048618 -1.530183,-1.289881"
     id="path16" />
  <path
     style="fill:#ffffff;stroke-width:3"
     d="m 54.37336,37.851453 c 0,0 1.049186,0.760847 1.152362,0.658386 0,0 0.12351,0.200549 -0.20052,0.200549 0,0 -0.683717,-0.272519 -0.951824,-0.858953"
     id="path17" />
  <path
     style="fill:#ffffff;stroke-width:3"
     d="m 57.343635,38.398653 c 0,0 -0.04869,0.164219 0.11118,0.08067 0.15984,-0.08286 0.1257,-0.34518 0.1257,-0.34518 0,0 0.0045,0.12645 -0.23688,0.26451"
     id="path18" />
  <path
     style="fill:#de9262;stroke-width:3"
     d="m 58.996612,26.812264 c 0,0 0.28047,-0.510138 0.993968,-0.510138 0,0 0.643751,0.08282 0.968533,-0.241991 0,0 0.15984,0.503598 -0.15258,0.816077 0,0 -0.318242,0.279777 -1.809918,-0.06394"
     id="path19" />
  <path
     style="fill:#e2a57d;stroke-width:3"
     d="m 58.996612,26.812264 c 0.04677,-0.03496 0.08808,-0.123291 0.14448,-0.167139 0.220559,-0.224466 0.537632,-0.337637 0.849467,-0.334229 0.0363,0.0025 0.158789,0.01428 0.225989,0.009 0.2655,-0.0073 0.552051,-0.06208 0.749084,-0.253881 -0.03153,-6.11e-4 0.0204,0.09887 0.0144,0.136374 0.03414,0.233034 -0.0051,0.495704 -0.17946,0.667201 -0.0144,0.01596 -0.126089,0.06174 -0.177899,0.06846 -0.327684,0.06636 -0.665588,0.03045 -0.993698,-0.01386 -0.21174,-0.03106 -0.421811,-0.07283 -0.630317,-0.120876 -0.0165,0.02739 0.04743,0.02487 0.08751,0.0383 0.433556,0.09259 0.876551,0.170876 1.321525,0.145046 0.1383,-0.01323 0.2859,-0.02688 0.405413,-0.103928 0.19278,-0.190176 0.22539,-0.484621 0.17574,-0.739323 -0.0126,-0.03303 -0.0108,-0.143787 -0.05574,-0.07037 -0.200279,0.177387 -0.478967,0.224235 -0.738116,0.229038 -0.12183,0.0027 -0.243359,-0.02058 -0.364817,-4.23e-4 -0.339195,0.03557 -0.669119,0.221214 -0.847328,0.516388 0.0093,0.0015 0.0129,0.0076 0.0135,-0.0059"
     id="path20" />
  <path
     style="fill:#ffffff;stroke-width:3"
     d="m 58.283108,28.303438 c 0.22524,0.06466 0.451934,0.124992 0.678629,0.184569 0.350214,0.0923 0.8036,0.2696 1.16326,0.148973 0.28992,-0.09738 0.2652,-0.421482 0.27465,-0.669283 0.0087,-0.218736 0.0174,-0.544292 -0.21798,-0.651843 l -0.547844,-0.07123 c 0,0 0.0066,0.708526 -0.484631,0.842237 0,0 -0.414153,0.121359 -0.764366,-0.229635 0,0 -0.10173,0.152607 -0.10173,0.446191"
     id="path21" />
  <path
     style="fill:#040606;stroke-width:3"
     d="m 58.283108,28.303438 -0.0029,0.0095 c 0.22596,0.06466 0.45266,0.124278 0.679355,0.183855 0.26592,0.07048 0.592166,0.190385 0.893699,0.190385 0.09516,0 0.18747,-0.01239 0.274649,-0.04141 0.2979,-0.101009 0.27174,-0.431656 0.28047,-0.678005 l 0.0036,-0.133706 c 0,-0.20055 -0.0297,-0.43529 -0.22671,-0.526127 l -7.26e-4,-7.27e-4 -0.549299,-0.07123 -0.0102,-0.0015 v 0.01008 0.0015 c 0,0.03415 -0.0081,0.705618 -0.478091,0.831336 -7.26e-4,7.27e-4 -0.06828,0.02037 -0.17295,0.02037 -0.15186,0 -0.377822,-0.04141 -0.583445,-0.247076 l -0.0081,-0.008 -0.006,0.0094 c -7.29e-4,0.0015 -0.10317,0.155505 -0.10317,0.451279 v 0.0074 l 0.0066,0.0021 0.0029,-0.0095 h 0.0087 c 0,-0.291405 0.10098,-0.440378 0.10029,-0.441105 l -0.0075,-0.005 -0.0066,0.0065 c 0.20853,0.209286 0.441032,0.252165 0.595796,0.252165 0.1068,0 0.17727,-0.02037 0.17802,-0.02037 0.486812,-0.134442 0.490445,-0.814622 0.491171,-0.849505 v -7.27e-4 l -0.0096,-7.26e-4 -7.26e-4,0.0094 0.547844,0.07123 7.26e-4,-0.0095 -0.0036,0.008 c 0.18528,0.08429 0.21579,0.310298 0.21579,0.510138 l -0.0036,0.132992 c -0.0087,0.250707 0.0144,0.567548 -0.26811,0.662018 -0.08502,0.02832 -0.175109,0.03996 -0.268829,0.03996 -0.29646,0 -0.621956,-0.119175 -0.888611,-0.189651 -0.22743,-0.05958 -0.453389,-0.119909 -0.679355,-0.184568 l -0.0021,0.0088 h 0.0087 -0.0087"
     id="path22" />
  <path
     style="fill:#ffffff;stroke-width:3"
     d="m 58.589,27.48736 c 0,0 0.560195,0.522494 0.688073,-0.127175 h 0.216509 c 0,0 -0.191099,1.020277 -0.993967,0.357534 l 0.08937,-0.230363"
     id="path23" />
  <path
     style="fill:#040606;stroke-width:3"
     d="m 58.589,27.48736 -0.0066,0.0065 c 7.26e-4,7.27e-4 0.213599,0.20055 0.4127,0.201285 0.12498,7.27e-4 0.24195,-0.08213 0.29064,-0.333553 l -0.0087,-0.0015 v 0.0088 h 0.216509 v -0.0088 l -0.0087,-0.0021 c -7.26e-4,7.27e-4 -0.11043,0.576995 -0.499163,0.574088 -0.12642,0 -0.28482,-0.05958 -0.480272,-0.221642 l -0.006,0.0073 0.0081,0.0029 0.08937,-0.229635 -0.0081,-0.0036 -0.0066,0.0065 0.0066,-0.0065 -0.0087,-0.0029 -0.08937,0.229635 -0.0021,0.0065 0.0051,0.0044 c 0.197639,0.162771 0.359657,0.225272 0.491897,0.225272 0.409067,-0.0021 0.515876,-0.58862 0.516602,-0.58862 l 0.0021,-0.01092 h -0.227429 -0.0072 l -0.0015,0.0074 c -0.04941,0.247803 -0.15768,0.318292 -0.27321,0.319019 -0.18747,7.26e-4 -0.39962,-0.196203 -0.400346,-0.196203 l -0.0096,-0.0088 -0.0051,0.01239 0.0087,0.0029"
     id="path24" />
  <path
     style="fill:#3c3c3c;stroke-width:3"
     d="m 55.465416,33.508738 c 0,0 0.0066,0.557372 0.749105,0.211469 0,0 0.23688,-0.14679 0.858098,-0.09666 0,0 0.05814,0.05232 -0.0195,0.0705 0,0 -0.588533,-0.0255 -0.761459,0.09666 0,0 -0.831938,0.326286 -0.826127,-0.281939"
     id="path25" />
  <path
     style="fill:#3c3c3c;stroke-width:3"
     d="m 57.040648,34.232523 c 0,0 0.79997,0.223829 1.107313,-0.21729 0,0 0.26304,-0.0516 0.11553,0.19764 0,0 -0.576179,0.268889 -1.22284,0.0195"
     id="path26" />
  <path
     style="fill:#ffffff;stroke-width:3"
     d="m 57.44463,40.837433 2.112177,-1.754235 -0.03342,-3.599308 -1.989384,4.504769 -0.08937,0.848774"
     id="path27" />
  <path
     style="fill:#3f3f3f;stroke-width:3"
     d="m 52.904209,37.413985 c 0.888232,-0.0066 1.77819,-0.0225 2.664902,0.03972 0.10215,0.0132 0.208139,0.0183 0.306167,0.05121 0.0267,-0.03906 -0.03189,0.0186 0.03963,-0.04371 -0.09951,0.0132 0.05292,0.1584 0.14838,0.1701 0.28566,0.09861 0.584456,-0.015 0.846392,-0.13107 0.2832,-0.0969 0.602006,-0.05823 0.864914,0.07986 0.03132,-0.06828 0.11292,-0.15516 -0.0159,-0.16851 -0.32376,-0.144 -0.71444,-0.15465 -1.03274,0.0096 0.06225,0.13908 0.0234,-0.07179 -0.06003,0.0234 -0.210839,0.07773 -0.493175,0.14154 -0.676925,-0.0285 -0.14859,-0.11055 -0.348194,-0.09495 -0.524303,-0.11625 -0.853196,-0.04938 -1.708513,-0.03924 -2.562713,-0.03111 6.99e-4,0.04845 0.0014,0.0969 0.0021,0.14535"
     id="path28" />
  <path
     style="opacity:0.2;fill:#000000;fill-rule:evenodd;stroke-width:3"
     d="m 61.33,37.030281 c -0.26637,0.04419 -0.527322,0.13989 -0.767576,0.281249 -0.515381,0.318135 -0.823352,0.740639 -0.960935,1.306637 l -0.544922,1.699218 a 58.727126,60.458543 0 0 1 -1.546873,4.382805 c -0.858797,0.317565 -1.719418,0.671846 -2.578121,1.02539 l -1.095704,0.533204 c -0.54977,0.24732 -0.895724,0.635168 -1.101559,1.201168 a 2.266788,2.3336182 0 0 0 0.03516,1.693357 c 0.13758,0.282749 0.345716,0.532235 0.585935,0.74414 -0.446054,-0.03486 -0.861347,0.03417 -1.341793,0.24609 a 2.1625788,2.2263367 0 0 0 0.310544,-1.166012 v -0.21093 c -0.06825,-0.600839 -0.308717,-1.093483 -0.755858,-1.482421 -0.446054,-0.388937 -0.963235,-0.533438 -1.546872,-0.498044 -0.652959,0.03486 -1.374125,0.319227 -2.232417,0.74414 -1.57951,0.813296 -3.023576,2.122905 -4.25976,3.89062 -0.13758,0.176489 -0.2718,0.351164 -0.375,0.562499 a 6.5910013,6.7853194 0 0 0 -0.621095,1.236325 c -0.343419,0.813299 -0.618275,1.554361 -0.755858,2.296872 -0.377261,1.873863 -0.0642,3.288163 0.93164,4.207026 0.343415,0.318132 0.755102,0.532187 1.201171,0.673826 0.721214,0.21189 1.472974,0.14289 2.296872,-0.17577 0.893195,-0.353546 1.924353,-1.059673 3.023432,-2.085933 l 1.716795,-1.55859 c 0.24129,1.307926 0.825692,2.125887 1.787107,2.443355 1.029691,0.318117 1.956255,-0.03504 2.882807,-1.025389 0.584705,-0.636255 1.309753,-1.737049 2.167968,-3.328121 0.205829,1.485511 0.820754,2.441784 1.851558,2.830073 1.511224,0.636251 2.987966,-0.244199 4.46484,-2.613275 0.24024,0.318131 0.588221,0.526583 0.931637,0.63281 0.858796,0.353543 1.681899,0.17925 2.437496,-0.457031 0.583634,-0.459771 1.270939,-1.311233 1.992186,-2.548824 l -0.445313,5.449211 c -5.221013,0.884119 -11.47157,2.221691 -18.650365,4.025385 a 420.48916,432.88619 0 0 0 -18.380833,5.021477 c -0.99638,0.28329 -1.986603,0.565529 -2.982416,0.884765 l -6.97265,2.085918 -2.712887,0.849608 c -0.549775,0.176519 -0.996855,0.530501 -1.271482,1.060543 -0.240234,0.565982 -0.312068,1.098347 -0.140625,1.699216 0.206373,0.565988 0.55101,1.023619 1.066405,1.271485 0.514844,0.28275 1.062134,0.352832 1.611326,0.17577 l 2.748043,-0.849608 c 2.301261,-0.707069 4.66925,-1.449145 7.142567,-2.156247 a 540.94379,556.8921 0 0 1 18.134741,-5.021477 107.75114,110.9279 0 0 1 3.539056,-0.878906 c 6.181401,-1.555777 11.679154,-2.760026 16.453105,-3.60937 -0.13758,1.591192 -0.27441,3.074171 -0.445314,4.488276 -0.412745,3.960345 -0.756848,7.035875 -1.066405,9.228503 -0.308472,0.21189 -0.54819,0.461162 -0.720701,0.779297 a 2.1378645,2.2008938 0 0 0 -0.2754,1.0957 v 0.10548 c 0.03441,0.600842 0.07239,1.099343 0.14061,1.48828 0.13758,0.919526 0.477656,1.591816 1.0957,1.945308 0.377853,0.21243 0.75893,0.351561 1.136744,0.351561 0.377816,0 0.715829,-0.10362 1.025386,-0.28125 0.548706,-0.282719 0.931661,-0.780662 1.171877,-1.48828 l 0.275399,-1.025389 0.445314,-2.935541 c 0.308474,-2.157141 0.653435,-5.123843 1.031248,-8.871084 l 0.03516,-0.392576 0.515624,-5.162102 1.886716,-0.21093 c 3.812452,-0.459755 6.698024,-0.529349 8.724597,-0.246089 1.097944,0.17703 1.783257,0.420416 2.091795,0.703124 v 0.21681 l -0.07032,0.492185 c 0,0.495179 0.14271,0.953155 0.451172,1.376953 0.309558,0.388934 0.719633,0.673064 1.201169,0.779294 0.583634,0.14163 1.097002,0.0369 1.611327,-0.28125 0.549773,-0.318134 0.858509,-0.740402 0.996092,-1.341793 0.20691,-0.88412 0.17598,-1.700971 -0.0294,-2.443356 -0.20691,-0.777886 -0.617762,-1.450224 -1.236325,-2.015622 -0.962522,-0.919528 -2.40792,-1.557088 -4.365228,-1.839843 -2.575797,-0.389508 -6.180025,-0.27891 -10.816392,0.287099 l 0.374999,-5.337883 0.14061,-1.412107 c 0.06825,-1.6969 0.09885,-2.867162 0.06444,-3.574216 -0.03441,-1.767718 -0.614234,-2.86301 -1.816401,-3.251948 -0.789473,-0.247319 -1.546345,-0.108389 -2.267577,0.457032 -0.377796,0.318131 -0.789188,0.781166 -1.236326,1.417966 l -0.240239,0.35156 c -0.17196,-0.848158 -0.583349,-1.520251 -1.236325,-2.050776 -0.927053,-0.74303 -2.304636,-0.985597 -4.124995,-0.738281 l 0.621092,-3.222652 0.0996,-0.738281 c 0,-0.495183 -0.171209,-0.959012 -0.445313,-1.382809 -0.34449,-0.388932 -0.720719,-0.631799 -1.201168,-0.773438 -0.27489,-0.0708 -0.548088,-0.07935 -0.814454,-0.03516 z m -40.165958,8.156238 c -0.270453,-0.0267 -0.545692,0.0111 -0.820311,0.11718 -0.54979,0.17649 -0.990461,0.530523 -1.265624,1.060547 L 13.236319,57.42673 10.798822,62.06149 10.248041,59.336882 C 10.11046,58.736045 9.8032457,58.278069 9.3222617,57.959938 8.8418601,57.606394 8.2887113,57.496288 7.7050765,57.602518 7.1208903,57.744157 6.6781638,58.061862 6.3691409,58.557594 6.0257226,59.052707 5.9215514,59.620813 6.0585942,60.221652 l 1.3417952,6.896475 c 0.06879,0.671141 0.2718146,1.198132 0.6152335,1.623046 0.3434185,0.459755 0.7925553,0.743125 1.3417949,0.884764 1.3054502,0.28326 2.4377452,-0.423374 3.4335892,-2.156247 0.549854,-0.919024 1.995176,-3.641692 4.365228,-8.167956 l -0.310546,1.130857 c -0.446589,1.662055 -0.687069,2.935685 -0.755859,3.89062 -0.06879,0.778394 -7.61e-4,1.415284 0.205077,1.945308 0.240216,0.566 0.616239,0.989282 1.166014,1.201171 0.549192,0.24732 1.102341,0.24732 1.617185,0 0.412211,-0.177029 0.755862,-0.425495 0.996092,-0.814451 0.240246,-0.388952 0.339844,-0.776572 0.339844,-1.236328 l -0.06445,-0.603515 v -0.07032 c 0,-0.28272 0.06803,-0.775349 0.205077,-1.482421 0.275114,1.132019 0.889349,1.907419 1.816403,2.367186 0.79007,0.423794 1.754492,0.493925 2.853512,0.17577 1.134024,-0.353445 2.402073,-1.060478 3.878902,-2.12109 1.270975,0.989812 2.953892,0.954592 4.980461,-0.10548 0.652928,-0.28272 1.306123,-0.741209 2.02734,-1.306639 1.236028,-1.025174 2.335854,-2.334843 3.228511,-3.89062 a 2.1298363,2.1926288 0 0 0 0.310548,-0.955076 v -0.140609 c 0,-0.388947 -0.10344,-0.777569 -0.2754,-1.095704 -0.205829,-0.31812 -0.447593,-0.601991 -0.791014,-0.814451 -0.480447,-0.318089 -0.997097,-0.387722 -1.546873,-0.246089 0.137039,-0.494613 0.240239,-0.988061 0.240239,-1.447264 v -0.03516 c -0.03441,-1.024589 -0.342146,-1.807108 -0.925777,-2.443356 -0.686804,-0.742478 -1.82122,-1.096735 -2.783201,-0.955076 -1.545667,0.17649 -2.917694,1.347247 -4.154293,3.503899 L 28.96872,54.59666 28.552705,53.858382 v -0.03516 C 28.106069,53.22238 27.522729,52.938944 26.835909,52.868144 a 2.6784304,2.7573969 0 0 0 -1.441404,0.316406 c -0.789975,0.530055 -1.477566,1.343458 -2.027341,2.085936 a 19.795042,20.378646 0 0 0 -1.335936,2.015626 C 21.82533,55.801102 20.4472,55.203817 19.107404,55.592755 l 3.744136,-7.14257 c 0.274616,-0.530609 0.312593,-1.097819 0.140624,-1.699216 -0.17144,-0.56543 -0.515869,-1.023889 -1.031248,-1.306639 -0.2574,-0.14163 -0.526422,-0.23127 -0.796874,-0.25782 z m 42.937441,2.30859 a 107.59687,110.76908 0 0 0 -0.550781,3.357419 l -1.476562,-0.07032 c 0.06933,-0.813299 0.174029,-1.803073 0.310547,-3.005855 a 9.7832368,10.07167 0 0 1 1.716796,-0.28125 z m -9.615224,2.935541 h 0.550782 l -0.17577,0.351564 z m -3.984369,0.703127 -0.925778,0.849608 -1.271485,1.130857 -1.716793,1.593748 c 0.618029,-1.061161 1.335406,-2.017551 2.296872,-2.724605 0.13758,-0.14109 0.314883,-0.24534 0.486326,-0.351564 0.343419,-0.176489 0.718649,-0.391802 1.130858,-0.498044 z m -22.73434,6.75585 c -0.13704,0.495731 -0.20583,0.987253 -0.24024,1.482418 -0.961984,0.813298 -1.821634,1.380544 -2.50781,1.769529 0.274629,-0.88412 0.754048,-1.805742 1.441404,-2.724605 0.514844,-0.03543 0.894446,-0.24408 1.30664,-0.527342 z"
     id="path29" />
  <path
     style="fill:#ff89be;fill-rule:evenodd;stroke-width:3"
     d="m 73.78882,50.983779 0.13758,-1.414141 c 0.06825,-1.696897 0.10266,-2.864192 0.06825,-3.571246 -0.03441,-1.767717 -0.618032,-2.864192 -1.820199,-3.253129 -0.789473,-0.24732 -1.545085,-0.10566 -2.266317,0.459758 -0.377796,0.318132 -0.790544,0.777887 -1.237682,1.414687 l -0.239159,0.353544 c -0.17196,-0.848159 -0.584699,-1.519816 -1.237678,-2.050342 -0.927053,-0.74303 -2.300631,-0.990346 -4.12099,-0.74303 l 0.618032,-3.217318 0.10266,-0.742475 c 0,-0.495182 -0.171959,-0.954938 -0.446054,-1.378735 -0.34449,-0.388932 -0.721217,-0.636248 -1.201666,-0.777887 -0.549792,-0.14163 -1.100102,-0.0354 -1.580611,0.24732 -0.515381,0.318134 -0.823868,0.742481 -0.961451,1.308478 l -0.548705,1.696251 a 58.727126,60.458543 0 0 1 -1.546153,4.385259 c -0.858797,0.317565 -1.717093,0.67166 -2.575796,1.025204 l -1.099031,0.53057 c -0.549773,0.24732 -0.893192,0.636254 -1.099027,1.202254 a 2.266788,2.3336182 0 0 0 0.03441,1.696897 c 0.13758,0.28275 0.343415,0.530573 0.583634,0.742478 -0.446054,-0.03486 -0.8588,0.0354 -1.339246,0.24732 a 2.1625788,2.2263367 0 0 0 0.308471,-1.166291 v -0.212459 c -0.06825,-0.60084 -0.308471,-1.096019 -0.755612,-1.484956 -0.446054,-0.388938 -0.961447,-0.530577 -1.545084,-0.495183 -0.652959,0.03486 -1.374176,0.317568 -2.232471,0.742481 -1.57951,0.813296 -3.022385,2.121162 -4.258569,3.888877 -0.13758,0.17649 -0.27462,0.354095 -0.377817,0.56543 a 6.5910013,6.7853194 0 0 0 -0.618029,1.237663 c -0.343419,0.813299 -0.618029,1.55578 -0.755612,2.298291 -0.377261,1.873864 -0.06825,3.288134 0.92759,4.206996 0.343415,0.318132 0.755612,0.530574 1.201681,0.672212 0.721214,0.21189 1.477363,0.14163 2.301261,-0.177029 0.893195,-0.353547 1.922835,-1.060064 3.021914,-2.086323 l 1.717089,-1.555777 c 0.24129,1.307926 0.824939,2.12181 1.786354,2.439278 1.029691,0.318117 1.957782,-0.03486 2.884334,-1.0252 0.584705,-0.636254 1.305937,-1.732879 2.164152,-3.323951 0.205829,1.485511 0.823868,2.439927 1.854672,2.828216 1.511224,0.636252 2.988542,-0.247319 4.465416,-2.616407 0.24024,0.318132 0.583637,0.530024 0.927053,0.636251 0.858796,0.353544 1.682616,0.17652 2.438213,-0.459755 0.583634,-0.459771 1.271008,-1.308481 1.992255,-2.546073 l -0.446051,5.445269 c -5.221013,0.88412 -11.471837,2.22747 -18.650632,4.031163 a 420.48916,432.88619 0 0 0 -18.375148,5.020358 c -0.99638,0.28329 -1.992255,0.565433 -2.988068,0.884669 l -6.972419,2.085831 -2.712904,0.848711 c -0.549775,0.17652 -0.996381,0.530573 -1.271008,1.060615 -0.240234,0.565983 -0.309023,1.096022 -0.13758,1.696894 0.206373,0.565985 0.54924,1.025755 1.064635,1.273621 0.514844,0.28275 1.064635,0.353544 1.613827,0.17649 l 2.747852,-0.848705 c 2.301261,-0.707069 4.670686,-1.44955 7.144003,-2.156652 a 540.94379,556.8921 0 0 1 18.134303,-5.020847 107.75114,110.9279 0 0 1 3.538396,-0.884117 c 6.181401,-1.555776 11.677576,-2.757395 16.451527,-3.606739 -0.13758,1.591192 -0.27516,3.076169 -0.446055,4.490274 -0.412745,3.960346 -0.755612,7.036346 -1.065169,9.228974 -0.308472,0.21189 -0.548706,0.459756 -0.721217,0.77789 a 2.1378645,2.2008938 0 0 0 -0.27516,1.09547 v 0.106229 c 0.03441,0.600843 0.06933,1.096022 0.13758,1.484959 0.13758,0.919526 0.480986,1.591186 1.09903,1.944682 0.377829,0.212429 0.755627,0.354098 1.133441,0.354098 0.377816,0 0.721217,-0.10566 1.030774,-0.283289 0.548706,-0.28272 0.927053,-0.777341 1.167269,-1.484959 l 0.275159,-1.025756 0.447138,-2.934524 c 0.308474,-2.157141 0.651893,-5.127644 1.029706,-8.874881 l 0.03441,-0.389505 0.515378,-5.161997 1.888522,-0.212489 c 3.812452,-0.459753 6.697883,-0.530574 8.724456,-0.24732 1.097944,0.17703 1.785252,0.424361 2.09379,0.707069 v 0.21246 l -0.06825,0.495182 c 0,0.495179 0.13758,0.954935 0.446051,1.378732 0.309558,0.388935 0.721217,0.671657 1.202753,0.777887 0.583634,0.14163 1.09903,0.03486 1.613355,-0.28329 0.549773,-0.318134 0.858797,-0.742481 0.99638,-1.343872 0.20691,-0.884119 0.17196,-1.696896 -0.03333,-2.439281 -0.20691,-0.777887 -0.618032,-1.450102 -1.236595,-2.0155 -0.962522,-0.919528 -2.405001,-1.555776 -4.362309,-1.838532 -2.575797,-0.389507 -6.182509,-0.28329 -10.818876,0.28272 z m -46.023667,5.905027 c -0.13704,0.495731 -0.20583,0.990346 -0.24024,1.485511 -0.961984,0.813299 -1.820831,1.378729 -2.507007,1.767714 0.274629,-0.884119 0.755077,-1.803693 1.442434,-2.722556 0.514843,-0.03543 0.892658,-0.24732 1.304852,-0.530573 z M 13.237087,56.429051 19.075642,45.362027 c 0.275162,-0.530024 0.721216,-0.88412 1.271006,-1.060613 0.549239,-0.212459 1.099029,-0.141629 1.613827,0.14163 0.515379,0.28275 0.858798,0.742481 1.030239,1.307911 0.171969,0.601398 0.137571,1.166291 -0.137046,1.6969 l -3.743662,7.142651 c 1.339796,-0.388937 2.713377,0.21189 2.919275,1.6969 a 19.795042,20.378646 0 0 1 1.339248,-2.016138 c 0.549775,-0.742478 1.236596,-1.555777 2.026571,-2.085832 a 2.6784304,2.7573969 0 0 1 1.442433,-0.318686 c 0.686822,0.0708 1.270456,0.354092 1.717093,0.954935 v 0.0354 l 0.412208,0.742483 0.446588,-0.84871 c 1.236596,-2.156652 2.61027,-3.323462 4.155937,-3.499939 0.961981,-0.14166 2.095362,0.212459 2.782166,0.954937 0.583634,0.636248 0.893194,1.414687 0.927589,2.439276 v 0.0354 c 0,0.459203 -0.1032,0.954934 -0.240239,1.449547 0.549776,-0.14163 1.064635,-0.0708 1.545082,0.247289 0.343421,0.21246 0.584171,0.49518 0.790009,0.813299 0.17196,0.318135 0.27516,0.707072 0.27516,1.096019 v 0.14109 a 2.1298363,2.1926288 0 0 1 -0.309024,0.955486 c -0.892657,1.555777 -1.992255,2.863706 -3.228283,3.88888 -0.721217,0.56543 -1.373644,1.025752 -2.026572,1.308478 -2.026569,1.06006 -3.709345,1.095472 -4.98032,0.10566 -1.476829,1.060612 -2.747223,1.767717 -3.881247,2.121162 -1.09902,0.318146 -2.060407,0.247319 -2.850476,-0.17646 -0.927054,-0.459767 -1.545084,-1.237105 -1.8202,-2.369124 -0.137045,0.707072 -0.205841,1.202807 -0.205841,1.485511 v 0.0708 l 0.0688,0.600842 c 0,0.459756 -0.103173,0.848708 -0.343419,1.237661 -0.240231,0.388955 -0.584169,0.636251 -0.99638,0.813295 -0.514844,0.24732 -1.064635,0.24732 -1.613827,0 -0.549775,-0.211889 -0.927589,-0.636248 -1.167805,-1.202248 -0.205839,-0.530024 -0.274629,-1.16629 -0.205839,-1.944684 0.06879,-0.954935 0.309023,-2.227467 0.755612,-3.889522 l 0.309028,-1.131421 c -2.370056,4.526265 -3.812457,7.248818 -4.362311,8.167842 -0.995844,1.732873 -2.129206,2.439927 -3.434656,2.156655 C 8.8071264,68.484951 8.359987,68.202225 8.0165685,67.74247 7.6731499,67.317556 7.4673289,66.787532 7.3985384,66.116391 L 6.0587403,59.221033 c -0.1370428,-0.60084 -0.034395,-1.166291 0.3090233,-1.661404 0.3090229,-0.495731 0.7556116,-0.813299 1.3397978,-0.954938 0.5836348,-0.10623 1.1334254,0 1.613827,0.353544 0.480984,0.318131 0.7900066,0.77789 0.9275886,1.378732 l 0.549239,2.723201 z m 36.336298,-5.445272 -1.269922,1.131434 -1.717564,1.591734 c 0.618029,-1.061161 1.339798,-2.016147 2.301264,-2.723201 0.13758,-0.14109 0.309555,-0.24732 0.480998,-0.35354 0.343419,-0.17649 0.721217,-0.388938 1.133426,-0.495183 z m 13.979312,-1.131433 -1.476826,-0.0708 c 0.06933,-0.813299 0.171959,-1.803046 0.308468,-3.005828 a 9.7832368,10.07167 0 0 1 1.718197,-0.28218 107.59687,110.76908 0 0 0 -0.549776,3.35879 z m -8.518086,-0.424347 -0.17091,0.353544 -0.377796,-0.353544 z"
     id="path30" />
  <path
     style="fill:#ffffff;fill-rule:evenodd;stroke-width:3"
     d="m 36.009018,52.680514 v -0.0354 c 0,-0.636251 -0.20583,-1.131437 -0.549239,-1.520368 l -0.03384,-0.03486 c -0.480983,-0.459755 -1.064636,-0.636251 -1.717564,-0.565433 -1.132891,0.14163 -2.197998,1.096024 -3.228286,2.863709 -0.515378,0.919525 -0.927587,1.839018 -1.236595,2.793374 -0.309021,1.025752 -0.480999,1.945329 -0.480999,2.793371 v 0.0708 c -1.614456,1.343875 -2.953594,2.192631 -3.950036,2.580914 -0.54924,0.21246 -0.927588,0.28329 -1.133425,0.17703 -0.137046,-0.0708 -0.206367,-0.24786 -0.206367,-0.600842 0.0688,-0.884672 0.412209,-1.839022 0.961984,-2.935013 a 13.486602,13.884219 0 0 1 1.442968,-2.263446 0.96305436,0.99144746 0 0 0 0.961448,0 c 0.583624,-0.388919 0.893182,-0.848141 0.996367,-1.343305 0.06825,-0.389504 -0.03441,-0.707069 -0.27462,-1.025753 a 0.97917373,1.0080421 0 0 0 -0.824419,-0.424901 c -0.240768,-0.03486 -0.480998,0.03543 -0.75561,0.17649 l -0.755613,0.601394 c -0.205842,0.21249 -0.480983,0.565433 -0.823867,0.989798 l -1.099031,1.66206 c -0.927588,1.555774 -1.442431,3.04067 -1.614457,4.384608 v 0.0354 c -0.0344,0.423809 0.0344,0.813299 0.206367,1.237108 0.205842,0.530577 0.549239,0.919526 0.996379,1.166843 a 3.5012429,3.604468 0 0 0 2.060417,0.03486 c 1.133425,-0.318153 2.575796,-1.166861 4.292886,-2.546094 l 0.274619,0.388935 c 0.927593,0.989797 2.232474,1.025758 4.052674,0.0708 0.515378,-0.21189 1.064635,-0.601395 1.717092,-1.096025 1.133426,-0.954935 2.129205,-2.156004 2.954222,-3.570763 l 0.13758,-0.495728 c 0,-0.318132 -0.13758,-0.601394 -0.412743,-0.777338 -0.205829,-0.10569 -0.446591,-0.17703 -0.686825,-0.10569 -0.240239,0.07026 -0.412208,0.21189 -0.549776,0.423794 -0.721214,1.273073 -1.579507,2.298294 -2.575322,3.112142 -0.515376,0.388383 -0.927587,0.67166 -1.3054,0.848156 h -0.06825 c -0.480987,0.283289 -0.893195,0.424364 -1.236599,0.495167 -0.343418,0.0708 -0.583634,0 -0.721214,-0.14166 -0.06879,-0.07026 -0.102659,-0.176489 -0.171449,-0.317567 l 2.644583,-2.439924 c 1.818627,-1.767069 2.711804,-3.323461 2.711804,-4.666751 z m 46.846954,4.490918 c 2.33558,0.21246 3.950037,0.742481 4.877687,1.662055 0.858797,0.813299 1.167271,1.873864 0.858797,3.181823 -0.06933,0.247319 -0.17196,0.459752 -0.377814,0.565985 -0.20691,0.14109 -0.447137,0.17649 -0.687356,0.14109 -0.24024,-0.0708 -0.411656,-0.21189 -0.548702,-0.424344 -0.10266,-0.212459 -0.17196,-0.459773 -0.10266,-0.672212 0.1365,-0.635702 0.03333,-1.130866 -0.344489,-1.484959 -0.651891,-0.600845 -1.922833,-0.989794 -3.845827,-1.166842 -2.610269,-0.21189 -6.216822,0.0354 -10.888137,0.707069 l -0.618029,6.577242 c -0.377817,3.677068 -0.721217,6.611592 -1.030775,8.80406 l -0.446054,2.864189 -0.343418,1.201685 c -0.20583,0.354098 -0.480984,0.565982 -0.893192,0.565982 -0.548708,0 -0.893195,-0.388934 -0.996383,-1.166839 a 27.988535,28.813704 0 0 1 -0.10266,-1.378732 v -0.0354 c 0,-0.28275 0.06825,-0.495165 0.24024,-0.671657 0.17196,-0.17703 0.377798,-0.24732 0.618032,-0.28329 0.481001,-3.288133 1.064099,-8.698401 1.786354,-16.194016 -5.186063,0.848158 -11.506151,2.191983 -18.924532,4.030515 -6.52536,1.696897 -13.600571,3.606736 -21.225951,5.869537 l -6.971932,2.086311 -2.67906,0.848159 -0.652425,-0.07026 c -0.205842,-0.10623 -0.377798,-0.28329 -0.44659,-0.530577 -0.06825,-0.247319 -0.0344,-0.459752 0.0688,-0.707069 0.103194,-0.212459 0.274628,-0.354095 0.514844,-0.424361 l 2.67906,-0.848711 6.97242,-2.08632 c 7.658753,-2.262798 14.768281,-4.278459 21.293641,-5.905024 7.659382,-1.873866 14.150266,-3.253129 19.5416,-4.137312 0.34449,-4.030515 0.583635,-6.929714 0.687356,-8.733243 l 0.10266,-2.687222 c -0.412742,0.636245 -1.09903,1.732873 -2.026569,3.253127 -0.823871,1.41469 -1.476832,2.369108 -1.957782,2.864192 -0.515378,0.56543 -1.030775,0.707072 -1.51069,0.530021 -0.27516,-0.10566 -0.481532,-0.28275 -0.618029,-0.56543 -0.10371,-0.28275 -0.17196,-0.671663 -0.17196,-1.130882 0,-0.6368 0.20583,-2.12181 0.548705,-4.420101 l 0.20691,-1.237108 c 0.03441,-0.283289 0,-0.495182 -0.10371,-0.565982 -0.51431,-0.388386 -1.853571,-0.28275 -4.086516,0.354089 l -0.03441,0.318138 c -0.343419,2.546075 -0.515378,4.490271 -0.515378,5.905024 0,0.530576 0.03441,0.989797 0.06933,1.307911 0.343415,-0.388938 0.75454,-1.025753 1.23661,-1.87386 0.10266,-0.21246 0.308474,-0.354093 0.514307,-0.424911 a 0.81258054,0.83653734 0 0 1 0.687359,0.10623 c 0.20583,0.14109 0.343419,0.318135 0.411657,0.565433 0.06933,0.21189 0,0.459201 -0.10266,0.672209 -0.618029,1.130867 -1.167269,1.908709 -1.613353,2.368464 -0.652961,0.636248 -1.236598,0.848156 -1.821304,0.600839 -0.377813,-0.14109 -0.652961,-0.424361 -0.858796,-0.884117 -0.20583,-0.565433 -0.308472,-1.378732 -0.308472,-2.510096 0,-1.096025 0.10266,-2.546079 0.308472,-4.349283 -0.686285,1.697386 -1.510687,3.394765 -2.403897,5.162483 -0.893195,1.662054 -1.57951,2.793374 -2.129835,3.394765 -0.515381,0.600842 -1.064101,0.813299 -1.579513,0.671663 -0.343418,-0.14166 -0.618029,-0.354095 -0.755612,-0.742481 -0.13758,-0.354095 -0.205829,-0.848708 -0.205829,-1.44955 0,-0.495731 0.03333,-1.096021 0.102659,-1.839018 l -3.777507,3.394765 c -2.301732,2.01615 -3.916189,2.580917 -4.912001,1.626076 -0.652428,-0.636248 -0.824405,-1.696897 -0.481002,-3.217313 0.13758,-0.600839 0.343953,-1.23766 0.618029,-1.873863 0.27462,-0.601391 0.549777,-1.096022 0.824402,-1.485511 1.167821,-1.626076 2.4039,-2.758046 3.812455,-3.500428 0.446054,-0.21246 0.823868,-0.38895 1.235527,-0.49518 L 50.12285,47.05743 c 0.24024,0 0.480996,0.0708 0.652958,0.212459 0.17091,0.17652 0.27516,0.388956 0.308472,0.636254 v 0.0708 c 0,0.24729 -0.06825,0.424347 -0.24024,0.600839 a 0.8061265,0.82989301 0 0 1 -0.548705,0.318135 l -0.412742,0.10623 a 2.883858,2.9688811 0 0 0 -0.961451,0.424361 c -1.064101,0.601394 -2.061045,1.55578 -2.953595,2.828216 -0.37781,0.565437 -0.686819,1.237661 -0.961981,2.015506 -0.20583,0.672209 -0.309024,1.23766 -0.309024,1.732872 0,0.17649 0.03384,0.318135 0.06879,0.388938 0.514847,-0.03486 1.339249,-0.565437 2.541479,-1.626079 l 1.786357,-1.626568 2.506532,-2.226822 a 4.6303867,4.7669015 0 0 1 0.89318,-0.601397 c 0.377814,-0.17649 0.721217,-0.17649 1.064099,0 0.377813,0.21246 0.584723,0.636248 0.584723,1.273054 l -0.03441,0.671657 -0.03441,0.14163 -0.17196,1.803694 c 0.412743,-0.565434 0.824936,-1.379296 1.340332,-2.369109 a 121.56753,125.15163 0 0 0 2.266317,-4.808387 c -0.927053,0.388937 -1.717093,0.707069 -2.403897,1.025752 l -0.687356,0.03486 c -0.240239,-0.0708 -0.377816,-0.247319 -0.481001,-0.459755 -0.10266,-0.21189 -0.10266,-0.459204 -0.03441,-0.707069 0.06933,-0.24732 0.24129,-0.423795 0.44714,-0.530024 l 1.26992,-0.530574 c 0.962518,-0.424361 1.923939,-0.813299 2.850959,-1.13143 0.652964,-1.626082 1.236613,-3.217316 1.752039,-4.843883 l 0.412746,-1.378729 0.13758,-0.530574 c 0.06825,-0.247319 0.205829,-0.424361 0.411656,-0.530573 a 0.73626533,0.75797219 0 0 1 0.652961,-0.10569 c 0.20583,0.03486 0.377802,0.14163 0.515381,0.318135 0.10266,0.14163 0.17091,0.353543 0.17091,0.565433 v 0.17649 l -0.308471,1.626078 c -0.24024,1.308479 -0.446055,2.546076 -0.652962,3.747892 2.370054,-0.565436 3.950035,-0.530579 4.877688,0.17649 0.514307,0.424916 0.789469,1.025756 0.789469,1.768203 l -0.240239,1.76707 -0.411657,2.864189 0.857726,-1.378729 c 1.374178,-2.262801 2.267418,-3.641581 2.679533,-4.172154 0.308472,-0.388953 0.61803,-0.636248 0.858797,-0.77789 l 0.823868,-0.03486 c 0.24024,0.10566 0.446054,0.24732 0.583634,0.459755 0.17196,0.21189 0.27516,0.56543 0.309561,0.989795 0.06825,0.636251 0.03441,1.980171 -0.06933,4.066494 -0.10266,1.732222 -0.308475,4.561089 -0.651893,8.344303 l 1.57951,-0.21189 c 3.880773,-0.495731 7.006895,-0.6368 9.307529,-0.459756 z m -48.666679,-4.773548 0.06825,0.28329 c 0,0.318131 -0.13704,0.742478 -0.412209,1.202248 -0.377798,0.636254 -0.961985,1.34389 -1.751409,2.121165 l -1.305386,1.23766 c 0.27462,-0.990343 0.686819,-1.945332 1.202216,-2.899682 0.721217,-1.202254 1.339798,-1.908705 1.888989,-1.979523 z m -15.112236,3.924373 -0.343419,1.061161 -0.68682,2.368458 c -0.412745,1.555783 -0.652426,2.722559 -0.721752,3.571249 -0.06825,0.600845 0,1.095472 0.13758,1.414693 0.06879,0.28275 0.240233,0.459203 0.446588,0.530021 0.240234,0.10623 0.446589,0.10623 0.686821,0 0.205839,-0.0708 0.377813,-0.247319 0.481001,-0.530021 a 0.72713523,0.7485729 0 0 0 0,-0.672212 c -0.06825,-0.318135 0.0344,-1.202251 0.377797,-2.616411 a 44.123659,45.42453 0 0 1 1.305402,-4.525757 c 0.0688,-0.24732 0.0688,-0.495731 -0.0344,-0.707072 -0.103193,-0.21249 -0.274625,-0.388938 -0.514843,-0.459756 -0.206367,-0.0708 -0.446589,-0.03486 -0.652425,0.03486 -0.240768,0.10677 -0.37835,0.28329 -0.481536,0.530574 z M 21.37832,45.60884 c 0.205841,0.106229 0.343418,0.283289 0.412193,0.530573 0.103194,0.24732 0.0688,0.459755 -0.0688,0.671663 l -4.636359,8.945696 -5.358119,10.077178 a 8.0629966,8.300713 0 0 1 -0.755612,1.061168 c -0.480984,0.388385 -0.893193,0.564878 -1.3397821,0.459203 A 1.1909295,1.2260409 0 0 1 8.9106242,66.823748 2.1044922,2.1665378 0 0 1 8.6359965,65.939628 L 7.2618196,58.974103 v -0.21189 c 0,-0.212489 0.06879,-0.388952 0.2063727,-0.565433 0.1026449,-0.17703 0.2746286,-0.28329 0.4809998,-0.318135 0.2746287,-0.0354 0.4809843,0 0.6868212,0.14109 0.2058387,0.1422 0.3434182,0.318135 0.3777979,0.565433 l 1.2022158,6.152794 c 0.61803,-1.025756 2.438843,-4.420104 5.495701,-10.254148 l 4.464944,-8.520783 c 0.103173,-0.21246 0.309023,-0.354098 0.515379,-0.424916 z"
     id="path31" />
  <path
     id="path1040"
     style="opacity:0.2;fill:#ffffff;stroke-width:5.99999;stroke-linecap:square"
     d="M 24 6 C 14.028024 6 6 14.028024 6 24 L 6 25 C 6 15.028024 14.028024 7 24 7 L 72 7 C 81.971974 7 90 15.028024 90 25 L 90 24 C 90 14.028024 81.971974 6 72 6 L 24 6 z " />
</svg>
