<?xml version="1.0" encoding="UTF-8" standalone="no"?>
<!-- Created with Inkscape (http://www.inkscape.org/) -->

<svg
   width="96"
   height="96"
   viewBox="0 0 96 96"
   version="1.1"
   id="svg5"
   inkscape:version="1.4.3 (0d15f75042, 2025-12-25)"
   sodipodi:docname="gta-sa.svg"
   xmlns:inkscape="http://www.inkscape.org/namespaces/inkscape"
   xmlns:sodipodi="http://sodipodi.sourceforge.net/DTD/sodipodi-0.dtd"
   xmlns="http://www.w3.org/2000/svg"
   xmlns:svg="http://www.w3.org/2000/svg">
  <sodipodi:namedview
     id="namedview7"
     pagecolor="#ffffff"
     bordercolor="#000000"
     borderopacity="0.25"
     inkscape:showpageshadow="2"
     inkscape:pageopacity="0.0"
     inkscape:pagecheckerboard="0"
     inkscape:deskcolor="#d1d1d1"
     inkscape:document-units="px"
     showgrid="false"
     inkscape:zoom="8.40625"
     inkscape:cx="47.94052"
     inkscape:cy="48"
     inkscape:window-width="1920"
     inkscape:window-height="1010"
     inkscape:window-x="0"
     inkscape:window-y="0"
     inkscape:window-maximized="1"
     inkscape:current-layer="svg5" />
  <defs
     id="defs2" />
  <rect
     style="opacity:0.2;fill:#000000;stroke-width:6;stroke-linecap:square"
     id="rect234"
     width="84"
     height="84"
     x="6"
     y="7"
     ry="18" />
  <rect
     style="fill:#cce7b0;fill-opacity:1;stroke-width:6;stroke-linecap:square"
     id="rect396"
     width="84"
     height="84"
     x="6"
     y="6"
     ry="18" />
  <path
     id="path1040"
     style="opacity:0.2;fill:#ffffff;stroke-width:6;stroke-linecap:square"
     d="M 24 6 C 14.02801 6 6 14.028011 6 24 L 6 25 C 6 15.02801 14.02801 7 24 7 L 72 7 C 81.971988 7 90 15.02801 90 25 L 90 24 C 90 14.028011 81.971988 6 72 6 L 24 6 z " />
  <path
     id="path1"
     d="m 30.597996,25 c -2.234265,0.05244 -3.683085,1.047126 -4.367958,1.565382 -0.675747,0.511353 -0.991302,0.849015 -1.363371,1.213329 l -0.0066,0.0063 c -0.0036,0.0036 -0.0093,0.009 -0.0129,0.0126 -1.107558,1.075995 -1.95279,2.088477 -2.810739,3.281643 -0.0108,0.0147 -0.0213,0.0291 -0.03234,0.04401 -1.113885,1.576329 -1.700937,2.957238 -2.287362,4.469826 -0.430989,1.111674 -0.678222,2.371146 -0.885222,3.816012 -1.283528,1.879731 -2.248937,3.746649 -2.571667,5.64543 -0.403626,2.374749 -0.578018,4.759731 0.749533,7.713747 0.0043,0.0084 0.0086,0.0165 0.01287,0.0249 0.208098,0.456954 0.697049,0.683922 0.956297,1.106457 C 16.24802,56.072917 15,58.581115 15,61.267816 c 0,3.761352 2.001678,7.836798 5.57625,9.775776 3.5682,1.935528 7.783623,1.575996 11.18481,-0.0063 0.17925,-0.0831 0.328218,-0.18945 0.497535,-0.2703 0.20265,0.1281 0.426261,0.28632 0.620301,0.402345 0.29106,0.17409 0.558429,0.331515 0.904605,0.50922 0.17307,0.08886 0.359922,0.18081 0.665532,0.308034 0.305613,0.12723 0.466788,0.356733 2.015976,0.515505 0.23178,0.0243 0.464706,0.03711 0.697842,0.03774 2.882685,0 3.020103,-0.674628 3.450426,-0.917853 0.430314,-0.24324 0.650781,-0.407127 0.859374,-0.559515 0.417189,-0.3048 0.719412,-0.560709 1.04676,-0.842415 0.24339,-0.20946 0.514854,-0.479649 0.768915,-0.710397 0.469827,0.646248 0.610089,1.468692 1.285833,1.96773 2.405319,1.77492 7.431741,2.153454 10.189743,0.301728 0.03036,-0.0186 0.06045,-0.0375 0.09045,-0.05658 0.434916,-0.3024 0.711717,-1.009686 1.16307,-1.552803 l 1.854438,1.024722 c 2.410035,1.33542 5.420286,1.066878 7.540536,-0.672672 l 0.27786,-0.22632 c 1.068129,0.599241 2.080251,1.244754 4.161186,1.244754 2.988087,0 4.09122,-0.906111 5.350101,-1.691109 1.251396,-0.780345 2.347746,-1.673553 3.398733,-2.986173 v -0.0063 c 0.794967,-0.988029 1.585833,-1.844067 2.203365,-3.790863 0.615192,-1.939419 -0.25245,-5.984652 -2.080596,-7.632021 -0.06621,-0.06273 -0.331671,-0.21825 -0.432918,-0.308031 -0.0225,-2.020047 -0.03876,-4.21314 -0.03876,-6.896481 v -9.756918 l -0.458766,0.490362 c 0.03498,-0.03939 0.06939,-0.0792 0.10338,-0.11946 0.567522,-0.634515 1.036848,-1.083507 1.692906,-2.231766 0.32802,-0.574125 0.803997,-1.365873 0.930453,-2.948448 0.1266,-1.581726 -0.750225,-4.111098 -2.099979,-5.362533 -1.602942,-1.48617 -3.550269,-1.81941 -4.684569,-1.829421 -1.134303,-0.0099 -1.794414,0.18372 -2.326131,0.345768 -1.063425,0.324078 -1.63668,0.6483 -2.235669,0.987006 -0.0165,0.0093 -0.0351,0.0222 -0.05169,0.03135 -0.692925,0.06618 -0.348996,-0.12348 -1.259979,0.572079 -1.419891,-0.670788 -2.648244,-1.700805 -4.135338,-1.955364 h -0.0066 c -1.122792,-0.19881 -2.285745,-0.372213 -3.611958,-0.333195 -1.311336,0.03879 -2.439273,0.27501 -3.534429,0.528081 -4.100553,0.915882 -7.59432,3.459867 -10.138056,6.682734 -0.18315,-0.445368 0.05607,-0.803979 -0.2391,-1.194465 -1.409586,-1.864533 -2.221704,-1.941738 -2.2809,-1.961445 -0.430467,-0.27597 -1.261707,-1.346214 -4.303341,-1.28877 -0.08049,0.0015 -0.11397,0.0519 -0.19383,0.05658 -0.868779,-0.493986 -1.843833,-1.054158 -4.593978,-2.715585 -0.04584,-0.0279 -0.09531,-0.0534 -0.14217,-0.08172 -0.654063,-0.416841 -2.027781,-1.170867 -4.051335,-1.137885 h -0.0066 -0.0066 V 25 h -0.0066 -0.0066 z"
     style="opacity:0.2;fill:#000000;stroke-width:3.2496" />
  <path
     id="path2"
     style="fill:#dfdfdf;stroke-width:3.2496"
     d="m 30.597996,24 c -2.234265,0.05244 -3.683085,1.047126 -4.367958,1.565382 -0.675747,0.511353 -0.991302,0.849012 -1.363368,1.213326 l -0.0066,0.0063 c -0.0036,0.0036 -0.0093,0.009 -0.0129,0.0126 -1.107561,1.075995 -1.952796,2.088477 -2.810742,3.281646 -0.0108,0.0147 -0.0216,0.0291 -0.03231,0.04401 -1.113885,1.576329 -1.70094,2.957238 -2.287362,4.469826 -0.430989,1.111674 -0.678222,2.371146 -0.885222,3.816012 -1.283529,1.879731 -2.248937,3.746649 -2.571665,5.64543 -0.403628,2.374749 -0.578021,4.759731 0.74953,7.713747 0.0043,0.0084 0.0086,0.0165 0.01293,0.0249 0.208098,0.456954 0.697049,0.683922 0.956298,1.106457 C 16.248019,55.072917 15,57.581115 15,60.267816 c 0,3.761352 2.001677,7.836798 5.57625,9.775776 3.568197,1.935528 7.783623,1.575996 11.18481,-0.0063 0.17925,-0.0831 0.328218,-0.18945 0.497535,-0.2703 0.20265,0.1281 0.426261,0.28632 0.620301,0.402345 0.29106,0.17409 0.558429,0.331515 0.904605,0.50922 0.17307,0.08886 0.359922,0.18081 0.665532,0.308034 0.305613,0.12723 0.466788,0.356733 2.015976,0.515505 0.23178,0.0243 0.464706,0.03711 0.697842,0.03774 2.882685,0 3.020103,-0.674628 3.450426,-0.917853 0.430314,-0.24324 0.650781,-0.407127 0.859374,-0.559515 0.417189,-0.3048 0.719412,-0.560709 1.04676,-0.842415 0.24339,-0.20946 0.514854,-0.479649 0.768915,-0.710397 0.469827,0.646248 0.610089,1.468692 1.285833,1.96773 2.405319,1.77492 7.431741,2.153454 10.189743,0.301728 0.03036,-0.0186 0.06045,-0.0375 0.09045,-0.05658 0.434916,-0.3024 0.711717,-1.009686 1.163067,-1.552803 l 1.854438,1.024722 c 2.410035,1.33542 5.420286,1.066878 7.540536,-0.672672 l 0.27786,-0.22632 c 1.068129,0.599241 2.080251,1.244754 4.161186,1.244754 2.988087,0 4.09122,-0.906111 5.350101,-1.691109 1.251396,-0.780345 2.347746,-1.673553 3.398733,-2.986173 v -0.0063 c 0.794967,-0.988029 1.585833,-1.844067 2.203365,-3.790863 0.615192,-1.939419 -0.25245,-5.984652 -2.080596,-7.632021 -0.06621,-0.06273 -0.331671,-0.21825 -0.432918,-0.308031 -0.0225,-2.020047 -0.03876,-4.21314 -0.03876,-6.896481 v -9.756918 l -0.458766,0.490362 c 0.03498,-0.03939 0.06939,-0.0792 0.10338,-0.11946 0.567522,-0.634515 1.036848,-1.083507 1.692906,-2.231766 0.32802,-0.574125 0.803997,-1.365873 0.930453,-2.948448 0.1266,-1.581726 -0.750225,-4.111098 -2.099979,-5.362533 -1.602942,-1.48617 -3.550269,-1.819413 -4.684569,-1.829421 -1.134303,-0.0099 -1.794414,0.18372 -2.326131,0.345768 -1.063425,0.324078 -1.63668,0.648297 -2.235669,0.987006 -0.0165,0.0093 -0.0351,0.0219 -0.05169,0.03141 -0.692934,0.06618 -0.349005,-0.12348 -1.259988,0.572088 -1.419891,-0.670797 -2.648244,-1.700808 -4.135338,-1.95537 h -0.0066 c -1.122783,-0.19881 -2.285736,-0.372216 -3.611949,-0.333198 -1.311336,0.03879 -2.439273,0.27501 -3.534429,0.528078 -4.10055,0.915882 -7.594317,3.459867 -10.138053,6.682734 -0.18315,-0.445365 0.05607,-0.803979 -0.2391,-1.194465 -1.409586,-1.864533 -2.221704,-1.941735 -2.2809,-1.961445 -0.430467,-0.27597 -1.261707,-1.346214 -4.303341,-1.288767 -0.08049,0.0015 -0.11397,0.0519 -0.19383,0.05658 -0.868779,-0.493989 -1.843833,-1.054161 -4.593978,-2.715585 -0.04584,-0.0276 -0.09531,-0.0534 -0.14217,-0.08172 -0.654072,-0.416838 -2.02779,-1.170867 -4.051344,-1.137885 h -0.0066 -0.0066 V 24 h -0.0066 -0.0066 z" />
  <path
     id="path3"
     style="fill:#ffffff;stroke-width:3.2496;opacity:0.2"
     d="M 30.597656 24 C 28.363391 24.05244 26.915342 25.046197 26.230469 25.564453 C 25.554722 26.075806 25.239253 26.414983 24.867188 26.779297 L 24.859375 26.785156 L 24.847656 26.796875 C 23.740095 27.87287 22.895055 28.886909 22.037109 30.080078 C 22.026309 30.094778 22.014616 30.108137 22.003906 30.123047 C 20.890021 31.699376 20.303219 33.081162 19.716797 34.59375 C 19.285808 35.705424 19.039031 36.963337 18.832031 38.408203 C 17.548502 40.287934 16.582494 42.155907 16.259766 44.054688 C 16.067185 45.18774 15.926536 46.323078 15.976562 47.521484 C 16.009854 46.683022 16.121483 45.868276 16.259766 45.054688 C 16.582494 43.155907 17.548502 41.287934 18.832031 39.408203 C 19.039031 37.963337 19.285808 36.705424 19.716797 35.59375 C 20.303219 34.081162 20.890021 32.699376 22.003906 31.123047 C 22.014616 31.108137 22.026309 31.094778 22.037109 31.080078 C 22.895055 29.886909 23.740095 28.87287 24.847656 27.796875 L 24.859375 27.785156 L 24.867188 27.779297 C 25.239253 27.414983 25.554722 27.075806 26.230469 26.564453 C 26.915342 26.046197 28.363391 25.05244 30.597656 25 L 30.603516 25 L 30.611328 25 L 30.617188 25 L 30.617188 25.005859 L 30.623047 25.005859 L 30.630859 25.005859 C 32.654413 24.972877 34.027569 25.727693 34.681641 26.144531 C 34.728501 26.172851 34.778379 26.198963 34.824219 26.226562 C 37.574364 27.887986 38.54919 28.447417 39.417969 28.941406 C 39.497829 28.936726 39.530838 28.886266 39.611328 28.884766 C 42.652962 28.827319 43.483595 29.897858 43.914062 30.173828 C 43.973259 30.193538 44.785727 30.270233 46.195312 32.134766 C 46.490482 32.525252 46.252397 32.884713 46.435547 33.330078 C 48.979283 30.107211 52.471716 27.562366 56.572266 26.646484 C 57.667422 26.393416 58.796086 26.157931 60.107422 26.119141 C 61.433635 26.080123 62.595967 26.252362 63.71875 26.451172 L 63.726562 26.451172 C 65.213656 26.705734 66.441437 27.737406 67.861328 28.408203 C 68.772311 27.712635 68.42816 27.902117 69.121094 27.835938 C 69.137684 27.826428 69.157328 27.813987 69.173828 27.804688 C 69.772817 27.465978 70.344778 27.140484 71.408203 26.816406 C 71.93992 26.654358 72.600072 26.460803 73.734375 26.470703 C 74.868675 26.480711 76.81698 26.814611 78.419922 28.300781 C 79.551505 29.349938 80.349713 31.297887 80.503906 32.832031 C 80.509351 32.777 80.514972 32.71917 80.519531 32.662109 C 80.646131 31.080383 79.769676 28.552216 78.419922 27.300781 C 76.81698 25.814611 74.868675 25.480711 73.734375 25.470703 C 72.600072 25.460803 71.93992 25.654358 71.408203 25.816406 C 70.344778 26.140484 69.772817 26.465978 69.173828 26.804688 C 69.157328 26.813987 69.137684 26.826428 69.121094 26.835938 C 68.42816 26.902117 68.772311 26.712635 67.861328 27.408203 C 66.441437 26.737406 65.213656 25.705734 63.726562 25.451172 L 63.71875 25.451172 C 62.595967 25.252362 61.433635 25.080123 60.107422 25.119141 C 58.796086 25.157931 57.667422 25.393416 56.572266 25.646484 C 52.471716 26.562366 48.979283 29.107211 46.435547 32.330078 C 46.252397 31.884713 46.490482 31.525252 46.195312 31.134766 C 44.785727 29.270233 43.973259 29.193538 43.914062 29.173828 C 43.483595 28.897858 42.652962 27.827319 39.611328 27.884766 C 39.530838 27.886266 39.497829 27.936726 39.417969 27.941406 C 38.54919 27.447417 37.574364 26.887986 34.824219 25.226562 C 34.778379 25.198963 34.728501 25.172851 34.681641 25.144531 C 34.027569 24.727693 32.654413 23.972877 30.630859 24.005859 L 30.623047 24.005859 L 30.617188 24.005859 L 30.617188 24 L 30.611328 24 L 30.603516 24 L 30.597656 24 z M 78.251953 38.451172 C 78.136144 38.579279 78.018544 38.707282 77.896484 38.84375 C 77.862494 38.88401 77.827949 38.923501 77.792969 38.962891 L 78.251953 38.472656 L 78.251953 38.451172 z M 78.251953 47.228516 L 78.251953 48.228516 C 78.251953 50.911857 78.268516 53.104953 78.291016 55.125 C 78.392263 55.214781 78.656446 55.370864 78.722656 55.433594 C 80.040407 56.621039 80.860344 59.054397 80.984375 61.046875 C 81.132558 58.947662 80.271872 55.829614 78.722656 54.433594 C 78.656446 54.370864 78.392263 54.214781 78.291016 54.125 C 78.268516 52.104953 78.251953 49.911857 78.251953 47.228516 z M 17.566406 53.4375 C 16.053555 55.482975 15 57.799631 15 60.267578 C 15 60.442245 15.005082 60.617193 15.013672 60.792969 C 15.149891 58.285328 16.350135 55.945295 17.978516 53.900391 C 17.869076 53.722021 17.719306 53.578181 17.566406 53.4375 z " />
  <path
     d="m 30.323676,31.000021 c -0.26838,0.0057 -0.574836,0.26172 -1.244562,0.91404 -0.606813,0.586215 -1.568325,1.711302 -2.119977,2.475936 -1.048113,1.478283 -2.373108,4.868121 -2.373108,6.117021 0,0.407799 -0.30348,1.068339 -0.717204,1.501632 -1.654929,1.809624 -2.347059,5.914614 -1.38168,8.055582 1.04814,2.29389 3.312075,3.796896 6.18063,4.128237 1.48944,0.15294 1.625034,0.27849 1.128546,1.145058 -0.27579,0.48426 -0.467091,0.50988 -2.3151,0.331464 -1.710114,-0.15294 -2.178891,-0.10221 -3.116679,0.356577 C 22.213122,57.045079 21,58.958635 21,61.328995 c 0,4.027056 3.446835,5.888388 7.446285,4.027791 0.827463,-0.382314 1.902987,-0.969405 2.399478,-1.300746 0.468891,-0.331341 1.050282,-0.612708 1.270929,-0.612705 0.19305,0 1.296201,0.636555 2.399475,1.401189 1.086066,0.752685 2.150772,1.38171 2.34147,1.401189 0.441324,0 5.050983,-4.432827 6.154257,-5.911116 0.496491,-0.662679 1.432833,-2.216784 2.067243,-3.440193 1.020543,-1.962552 1.160604,-2.498655 1.270929,-4.359252 0.08262,-1.860606 -0.0025,-2.267013 -0.66447,-3.490425 -0.937818,-1.784136 -2.727936,-3.240555 -5.568894,-4.514937 -1.26879,-0.56073 -2.344311,-1.093707 -2.399472,-1.170171 -0.05508,-0.10194 0.550161,-1.630947 1.350033,-3.415083 1.985928,-4.383885 1.957233,-4.180971 1.102173,-4.690725 -0.661977,-0.407799 -0.742827,-0.40815 -1.239285,0.0252 -0.551652,0.458787 -0.63354,0.433686 -8.163495,-4.103121 -0.17064,-0.11388 -0.302367,-0.17895 -0.44298,-0.17577 z m 30.149022,1.135017 c -0.651633,0.0192 -1.30104,0.13722 -2.29401,0.366618 -3.447771,0.764628 -5.982402,2.574735 -7.609764,5.403873 -1.379112,2.395839 -1.819383,4.182333 -1.819383,7.317318 0,3.542793 0.575799,5.478825 2.230722,7.543323 0.624492,0.827949 1.169691,1.56261 1.186557,1.682433 0,0.10194 -0.605301,1.044231 -1.350036,2.08923 -3.502938,4.944606 -4.328622,8.485722 -2.315097,9.964008 0.827463,0.611703 1.678707,0.665817 2.478576,0.13059 0.44133,-0.305838 0.580518,-0.713643 0.69084,-2.039004 0.11043,-1.80963 0.388314,-2.169585 1.629534,-2.169585 1.186032,0 3.747279,0.946176 5.953863,2.169585 l 2.072514,1.145058 2.177988,-1.782876 c 1.194657,-0.953403 2.261424,-1.762965 2.425842,-1.787898 h 0.0054 l 0.0054,0.0051 c 0.12987,0.03042 0.611013,0.527358 1.065258,1.119945 0.827469,1.070481 2.263266,1.933542 3.201063,1.933542 0.965379,0 2.674599,-1.067463 3.612399,-2.239896 1.213617,-1.503774 1.459917,-2.267511 0.880686,-2.777265 -0.386151,-0.356829 -0.521355,-0.359088 -1.376403,0.15066 -0.474933,0.25404 -0.933633,0.42282 -1.075809,0.376662 l -0.0054,-0.0051 c -0.0021,-0.0011 -0.0138,-0.0042 -0.0159,-0.0051 l -0.0054,-0.0051 v -0.0051 c -0.11034,-0.07644 -0.19512,-5.759163 -0.19512,-12.640839 V 35.61049 l 1.297299,-1.376079 c 0.937794,-1.044999 1.185723,-1.478529 0.965064,-1.68243 -0.330984,-0.305838 -1.932372,0.611442 -4.276866,2.395581 l -1.017801,0.81891 -1.186554,-1.044618 c -1.461834,-1.29987 -2.924163,-1.988532 -5.020416,-2.345358 -1.006752,-0.17841 -1.663464,-0.26019 -2.315094,-0.24108 z m -29.579475,4.595295 h 0.0054 0.0054 0.0054 c 0.002,1.14e-4 0.0138,-3.39e-4 0.0159,0 l 0.0054,0.0051 c 0.11043,0.051 1.380588,0.760977 2.842458,1.602078 2.978877,1.707669 2.922684,1.607964 1.819383,3.927345 l -0.527361,1.119948 -1.292022,-0.17577 c -2.758227,-0.331437 -4.418022,-1.835445 -4.08702,-3.721536 0.18417,-1.020822 0.924492,-2.692866 1.20765,-2.75718 z m 28.888632,0.462039 c 0.937797,0 2.096901,0.12831 2.620965,0.28122 1.213623,0.382317 1.183263,0.330216 0.659202,1.094838 -0.441321,0.611709 -0.579813,0.63468 -1.903761,0.507243 -2.565159,-0.28038 -4.658313,0.996888 -5.816751,3.545661 -0.22059,0.509751 -0.416613,1.225158 -0.416613,1.58199 v 0.688038 l 1.160184,-0.919056 c 1.241199,-0.994023 2.925687,-1.606221 3.670407,-1.325859 0.413739,0.12744 0.383691,0.28011 -0.305874,1.376079 -1.103304,1.758651 -5.04885,7.186746 -5.241933,7.186746 h -0.0054 l -0.0054,-0.0051 h -0.0054 c -0.11202,-0.07575 -0.476991,-0.706869 -0.864867,-1.471503 -0.661977,-1.29987 -0.743571,-1.757877 -0.743571,-4.128231 0,-2.395845 0.08046,-2.832252 0.769941,-4.208592 1.461843,-2.880114 3.449592,-4.178082 6.428484,-4.20357 z m 6.038244,4.203573 0.08436,4.690719 c 0.0276,2.599743 -0.0267,4.789656 -0.13713,4.891608 -0.21375,0.17283 -6.31176,0.678051 -6.692166,0.547416 h -0.0054 l -0.0054,-0.0051 v -0.0051 c 0,-0.07644 4.879785,-7.468989 6.038241,-9.1002 z m -39.910401,3.058509 0.606459,0.893946 c 0.330987,0.484266 0.881922,1.170666 1.212921,1.476528 0.772302,0.815601 2.234904,1.478151 3.696777,1.707537 1.323951,0.20391 1.269276,0.15294 0.827952,1.019505 -0.413733,0.841092 -1.326684,0.841092 -3.174693,0 -1.737684,-0.815607 -2.78526,-2.139693 -3.005934,-3.82188 z m 9.334224,4.288947 c 0.15687,-0.0048 0.355083,0.0225 0.622278,0.07029 0.551655,0.07644 1.597962,0.307965 2.3151,0.537375 2.537583,0.739146 3.781155,2.216403 3.781155,4.484808 0,1.121457 -0.2196,1.784259 -1.102179,3.389979 -0.606786,1.121457 -1.352499,2.295261 -1.655898,2.626599 -0.524058,0.560733 -0.605295,0.582831 -0.991437,0.22602 -0.38616,-0.35682 -0.334191,-0.510378 0.548451,-1.657323 1.737687,-2.24292 2.209167,-4.226916 1.38168,-5.705202 -0.496464,-0.917556 -2.840199,-2.015904 -4.688208,-2.219805 -1.323951,-0.12744 -1.382424,-0.20628 -0.88596,-1.2003 0.18954,-0.385503 0.329772,-0.541902 0.675018,-0.552438 z m -1.745556,5.906088 c 0.780942,0.0231 1.824297,0.25665 2.341467,0.562485 0.358572,0.20391 0.718827,0.534357 0.801585,0.738258 0.19305,0.484272 -0.609762,2.116725 -1.13382,2.295138 h -0.0054 c -0.318261,0.08034 -3.445767,-1.152258 -3.965727,-1.556874 l -0.0054,-0.0051 -0.0054,-0.0051 -0.0054,-0.0051 v -0.0051 l -0.0054,-0.0051 c -0.11358,-0.28347 0.94734,-1.890198 1.318392,-1.963674 0.17253,-0.04458 0.404157,-0.05781 0.66447,-0.05025 z m 27.633525,0.231 h 4.856961 l -0.08436,2.802378 -0.08436,2.802378 -1.102179,0.587598 c -1.903179,0.994014 -3.173109,0.78849 -8.000007,-1.250526 -1.351548,-0.56073 -2.534163,-1.068972 -2.589327,-1.119945 h -0.0054 c -0.0135,-0.05157 0.425736,-0.929961 1.023072,-1.933542 l 1.13382,-1.863228 z m -35.770644,4.53003 c 0.22869,0.0054 0.534996,0.12459 1.102176,0.336486 0.551649,0.22938 1.624326,0.76701 2.341467,1.200303 l 1.350033,0.788481 -0.632829,0.487152 c -2.096253,1.529265 -4.548732,1.959036 -5.321034,0.91404 -0.689571,-0.892071 -0.551958,-2.394702 0.24786,-3.133845 0.449937,-0.415767 0.618396,-0.599223 0.912327,-0.592617 z"
     id="path4"
     style="opacity:0.1;fill:#000000;stroke-width:3.32349" />
  <path
     d="m 30.323676,29.999973 c -0.26838,0.006 -0.574836,0.26172 -1.244562,0.91404 -0.606813,0.586215 -1.568325,1.711302 -2.119977,2.475936 -1.048113,1.478283 -2.373108,4.868121 -2.373108,6.117021 0,0.407799 -0.303477,1.068339 -0.717204,1.501629 -1.654929,1.809627 -2.347059,5.914617 -1.381677,8.055585 1.04814,2.29389 3.312072,3.796896 6.180627,4.128237 1.48944,0.15294 1.625034,0.27849 1.128546,1.145058 -0.27579,0.48426 -0.467091,0.509877 -2.3151,0.331464 -1.710114,-0.15294 -2.178894,-0.10221 -3.116682,0.356577 C 22.213125,56.045028 21,57.958587 21,60.328944 c 0,4.027059 3.446835,5.888388 7.446285,4.027794 0.827463,-0.382314 1.902987,-0.969405 2.399478,-1.300746 0.468891,-0.331341 1.050282,-0.612708 1.270929,-0.612705 0.19305,0 1.296201,0.636555 2.399475,1.401186 1.086066,0.752688 2.150772,1.38171 2.34147,1.401192 0.441324,0 5.050983,-4.432827 6.154257,-5.911116 0.496491,-0.662679 1.432833,-2.216784 2.067243,-3.440193 1.020543,-1.962552 1.160604,-2.498655 1.270929,-4.359255 0.08262,-1.860603 -0.0025,-2.26701 -0.66447,-3.490422 -0.937818,-1.784136 -2.727936,-3.240555 -5.568894,-4.514937 -1.26879,-0.56073 -2.344311,-1.09371 -2.399472,-1.170171 -0.05508,-0.10194 0.550161,-1.63095 1.350033,-3.415083 1.985928,-4.383885 1.957233,-4.180971 1.102173,-4.690725 -0.661977,-0.407799 -0.742827,-0.40815 -1.239285,0.0252 -0.551652,0.458787 -0.63354,0.433686 -8.163495,-4.103121 -0.17064,-0.11388 -0.302367,-0.17895 -0.44298,-0.17577 z m 30.149022,1.135017 c -0.651633,0.0192 -1.30104,0.13722 -2.29401,0.366618 -3.447771,0.764628 -5.982402,2.574735 -7.609764,5.40387 -1.379112,2.395842 -1.819383,4.182333 -1.819383,7.317321 0,3.542793 0.575799,5.478825 2.230722,7.543323 0.624492,0.827949 1.169691,1.562607 1.186557,1.682433 0,0.10194 -0.605301,1.044228 -1.350036,2.089227 -3.502938,4.944609 -4.328622,8.485725 -2.315097,9.964011 0.827463,0.611703 1.678707,0.665814 2.478576,0.13059 0.44133,-0.305838 0.580518,-0.713643 0.69084,-2.039007 0.11043,-1.809627 0.388314,-2.169585 1.629534,-2.169585 1.186032,0 3.747279,0.946179 5.953863,2.169585 l 2.072514,1.145058 2.177988,-1.782873 c 1.194657,-0.953406 2.261424,-1.762968 2.425842,-1.787898 h 0.0054 l 0.0054,0.0051 c 0.12987,0.03042 0.611013,0.527361 1.065258,1.119948 0.827469,1.070481 2.263266,1.933542 3.201063,1.933542 0.965379,0 2.674599,-1.067466 3.612399,-2.239896 1.213617,-1.503774 1.459917,-2.267514 0.880686,-2.777265 -0.386151,-0.356829 -0.521355,-0.359091 -1.376403,0.15066 -0.474933,0.25404 -0.933633,0.422823 -1.075809,0.376662 l -0.0054,-0.0051 c -0.0021,-0.0011 -0.0138,-0.0039 -0.0159,-0.0051 l -0.0054,-0.0051 v -0.0051 c -0.11034,-0.07644 -0.19512,-5.75916 -0.19512,-12.640836 v -12.46473 l 1.297299,-1.376079 c 0.937794,-1.044999 1.185723,-1.478529 0.965064,-1.68243 -0.330984,-0.305838 -1.932372,0.611442 -4.276866,2.395581 l -1.017801,0.818907 -1.186554,-1.044615 c -1.461834,-1.29987 -2.924163,-1.988532 -5.020416,-2.345358 -1.006752,-0.17841 -1.663464,-0.26016 -2.315094,-0.24105 z m -29.579475,4.595295 h 0.0054 0.0054 0.0054 c 0.002,1.14e-4 0.0138,-3.39e-4 0.0159,0 l 0.0054,0.0051 c 0.11043,0.051 1.380588,0.760977 2.842458,1.602078 2.978877,1.707669 2.922684,1.607961 1.819383,3.927345 l -0.527361,1.119948 -1.292022,-0.17577 c -2.758227,-0.331437 -4.418022,-1.835445 -4.08702,-3.721536 0.18417,-1.020822 0.924492,-2.692866 1.20765,-2.75718 z m 28.888632,0.462039 c 0.937797,0 2.096901,0.12831 2.620965,0.28122 1.213623,0.382317 1.183263,0.330216 0.659202,1.094838 -0.441321,0.611709 -0.579813,0.63468 -1.903761,0.507243 -2.565159,-0.28038 -4.658313,0.996888 -5.816751,3.545661 -0.22059,0.509751 -0.416613,1.225158 -0.416613,1.58199 v 0.688038 l 1.160184,-0.919059 c 1.241199,-0.994023 2.925687,-1.606218 3.670407,-1.325856 0.413739,0.12744 0.383691,0.28011 -0.305874,1.376076 -1.103304,1.758654 -5.04885,7.186749 -5.241933,7.186749 h -0.0054 l -0.0054,-0.0051 h -0.0054 c -0.11202,-0.07575 -0.476991,-0.706872 -0.864867,-1.471503 -0.661977,-1.29987 -0.743571,-1.757877 -0.743571,-4.128231 0,-2.395845 0.08046,-2.832255 0.769941,-4.208592 1.461843,-2.880114 3.449592,-4.178082 6.428484,-4.20357 z m 6.038244,4.203573 0.08436,4.690719 c 0.0276,2.599743 -0.0267,4.789656 -0.13713,4.891608 -0.21375,0.17283 -6.31176,0.678051 -6.692166,0.547416 h -0.0054 l -0.0054,-0.0051 v -0.0051 c 0,-0.07644 4.879785,-7.468989 6.038241,-9.1002 z m -39.910401,3.058509 0.606459,0.893946 c 0.330978,0.484263 0.881922,1.170666 1.212921,1.476528 0.772302,0.815601 2.234904,1.478148 3.696777,1.707537 1.323951,0.20391 1.269276,0.15294 0.827952,1.019505 -0.413733,0.841092 -1.326684,0.841092 -3.174693,0 -1.737684,-0.815607 -2.78526,-2.139693 -3.005937,-3.82188 z m 9.334224,4.288944 c 0.15687,-0.0048 0.355083,0.0225 0.622278,0.07029 0.551655,0.07644 1.597962,0.307968 2.3151,0.537375 2.537583,0.739149 3.781155,2.216406 3.781155,4.484811 0,1.121457 -0.2196,1.784259 -1.102179,3.389979 -0.606786,1.121454 -1.352499,2.295261 -1.655898,2.626599 -0.524058,0.560733 -0.605295,0.582831 -0.991437,0.22602 -0.38616,-0.356823 -0.334191,-0.510378 0.548451,-1.657326 1.737687,-2.242917 2.209167,-4.226913 1.38168,-5.705199 -0.496464,-0.917556 -2.840199,-2.015904 -4.688208,-2.219805 -1.323951,-0.12744 -1.382424,-0.20628 -0.88596,-1.2003 0.18954,-0.385503 0.329772,-0.541902 0.675018,-0.552438 z m -1.745556,5.906091 c 0.780942,0.0231 1.824297,0.25665 2.341467,0.562485 0.358572,0.20391 0.718827,0.534357 0.801585,0.738255 0.19305,0.484275 -0.609762,2.116728 -1.13382,2.295141 h -0.0054 c -0.318261,0.08034 -3.445767,-1.152258 -3.965727,-1.556874 l -0.0054,-0.0051 -0.0054,-0.0051 -0.0054,-0.0051 v -0.0051 l -0.0054,-0.0051 c -0.11358,-0.28347 0.94734,-1.890198 1.318392,-1.963674 0.17253,-0.04461 0.404157,-0.05781 0.66447,-0.05025 z m 27.633525,0.231 h 4.856961 l -0.08436,2.802378 -0.08436,2.802378 -1.102179,0.587598 c -1.903179,0.994014 -3.173109,0.78849 -8.000007,-1.250526 -1.351548,-0.56073 -2.534163,-1.068972 -2.589327,-1.119945 h -0.0054 c -0.0135,-0.05157 0.425736,-0.929961 1.023072,-1.933545 l 1.13382,-1.863228 z m -35.770647,4.53003 c 0.22869,0.0054 0.535002,0.12459 1.102179,0.336486 0.551649,0.22938 1.624326,0.76701 2.341467,1.200303 l 1.350033,0.788478 -0.632829,0.487155 c -2.096253,1.529265 -4.548735,1.959036 -5.321034,0.91404 -0.689571,-0.892071 -0.551958,-2.394702 0.24786,-3.133848 0.44994,-0.415764 0.618399,-0.59922 0.912324,-0.592614 z"
     id="path5"
     style="fill:#4d4d4d;stroke-width:3.32349" />
</svg>
