<?xml version="1.0" encoding="UTF-8" standalone="no"?>
<!-- Created with Inkscape (http://www.inkscape.org/) -->

<svg
   width="96"
   height="96"
   viewBox="0 0 96 96"
   version="1.1"
   id="svg5"
   inkscape:version="1.3.2 (091e20ef0f, 2023-11-25, custom)"
   sodipodi:docname="gta-5.svg"
   xmlns:inkscape="http://www.inkscape.org/namespaces/inkscape"
   xmlns:sodipodi="http://sodipodi.sourceforge.net/DTD/sodipodi-0.dtd"
   xmlns="http://www.w3.org/2000/svg"
   xmlns:svg="http://www.w3.org/2000/svg">
  <sodipodi:namedview
     id="namedview7"
     pagecolor="#ffffff"
     bordercolor="#000000"
     borderopacity="0.25"
     inkscape:showpageshadow="2"
     inkscape:pageopacity="0.0"
     inkscape:pagecheckerboard="0"
     inkscape:deskcolor="#d1d1d1"
     inkscape:document-units="px"
     showgrid="false"
     inkscape:zoom="8.375"
     inkscape:cx="48"
     inkscape:cy="48"
     inkscape:window-width="1920"
     inkscape:window-height="1008"
     inkscape:window-x="0"
     inkscape:window-y="0"
     inkscape:window-maximized="1"
     inkscape:current-layer="svg5" />
  <defs
     id="defs2" />
  <rect
     style="opacity:0.2;fill:#000000;stroke-width:6;stroke-linecap:square"
     id="rect234"
     width="84"
     height="84"
     x="6"
     y="7"
     ry="18" />
  <rect
     style="fill:#4a5545;fill-opacity:1;stroke-width:6;stroke-linecap:square"
     id="rect396"
     width="84"
     height="84"
     x="6"
     y="6"
     ry="18" />
  <path
     style="opacity:0.2;fill:#000000;stroke-width:3"
     d="m 24,25 c -3.3135,3.32e-4 -5.9997,2.68644 -6,6 v 3 c 3.32e-4,3.3135 2.68644,5.9997 6,6 h 0.48048 c 0.42231,0.615 0.83475,1.19721 1.43262,2.20899 1.69101,2.8617 3.8148,6.9147 5.8446,10.9746 4.0599,8.1198 7.7814,16.2978 7.7814,16.2978 0.97314,2.14197 3.1083,3.5178 5.4609,3.5187 h 6 c 2.31861,1.65e-4 4.4298,-1.33548 5.4228,-3.4308 0,0 11.5404,-24.3216 14.004,-29.4141 0.84042,-0.09816 1.75194,-0.15819 1.75194,-0.15819 3.2424,-0.09693 5.8209,-2.75319 5.8212,-5.997 v -3 c -3.33e-4,-3.3135 -2.68644,-5.9997 -6,-6 h -48 z"
     id="path1" />
  <path
     style="fill:#e4e4e4;stroke-width:3"
     d="m 24,24.000012 c -3.3135,3.31e-4 -5.9997,2.68644 -6,6 v 3 c 3.32e-4,3.3135 2.68644,5.9997 6,6 h 0.48048 c 0.42231,0.615 0.83475,1.19721 1.43262,2.20899 1.69101,2.8617 3.8148,6.9147 5.8446,10.9746 4.0599,8.1198 7.7814,16.2978 7.7814,16.2978 0.97314,2.14197 3.1083,3.5178 5.4609,3.5187 h 6 c 2.31861,1.65e-4 4.4298,-1.33548 5.4228,-3.4308 0,0 11.5404,-24.3216 14.004,-29.4141 0.84042,-0.09816 1.75194,-0.15819 1.75194,-0.15819 3.2424,-0.09693 5.8209,-2.75319 5.8212,-5.997 V 30 c -3.33e-4,-3.3135 -2.68644,-5.9997 -6,-6 h -48 z"
     id="path2" />
  <path
     style="opacity:0.1;fill:#000000;stroke-width:3"
     d="m 24,31 v 3 h 3 c 3,0 18,33 18,33 h 6 C 51,67 64.5,38.5 66,35.5 66.67083,34.15837 72,34 72,34 V 31 H 54 v 3 h 3 c 1.5,0 3,1.5 3,3 0,1.5 -7.5,16.5 -7.5,16.5 L 45,37 c 0,-3 3,-3 3,-3 h 1.5 v -3 z"
     id="path3" />
  <path
     style="fill:#318c01;stroke-width:3"
     d="m 24,30.000012 v 3 h 3 c 3,0 18,33 18,33 h 6 c 0,0 13.5,-28.5 15,-31.5 0.67083,-1.34163 6,-1.5 6,-1.5 v -3 H 54 v 3 h 3 c 1.5,0 3,1.5 3,3 0,1.5 -7.5,16.5 -7.5,16.5 l -7.5,-16.5 c 0,-3 3,-3 3,-3 h 1.5 v -3 z"
     id="path4" />
  <path
     id="path5"
     style="opacity:0.2;fill:#ffffff;stroke-width:3"
     d="M 24 24 C 20.68651 24.000332 18.0003 26.68645 18 30 L 18 31 C 18.0003 27.686443 20.686503 25.000331 24 25 L 72 25 C 75.313557 25.0003 77.999667 27.686503 78 31 L 78 30 C 77.999667 26.68651 75.313551 24.0003 72 24 L 24 24 z " />
  <path
     id="path1040"
     style="opacity:0.1;fill:#ffffff;stroke-width:6;stroke-linecap:square"
     d="M 24 6 C 14.02802 6 6 14.028021 6 24 L 6 25 C 6 15.028021 14.02802 7 24 7 L 72 7 C 81.971978 7 90 15.028021 90 25 L 90 24 C 90 14.028021 81.971978 6 72 6 L 24 6 z " />
</svg>
