<?xml version="1.0" encoding="UTF-8" standalone="no"?>
<!-- Created with Inkscape (http://www.inkscape.org/) -->

<svg
   width="96"
   height="96"
   viewBox="0 0 96 96"
   version="1.1"
   id="svg5"
   inkscape:version="1.3 (0e150ed6c4, 2023-07-21)"
   sodipodi:docname="htop.svg"
   xmlns:inkscape="http://www.inkscape.org/namespaces/inkscape"
   xmlns:sodipodi="http://sodipodi.sourceforge.net/DTD/sodipodi-0.dtd"
   xmlns="http://www.w3.org/2000/svg"
   xmlns:svg="http://www.w3.org/2000/svg">
  <sodipodi:namedview
     id="namedview7"
     pagecolor="#ffffff"
     bordercolor="#000000"
     borderopacity="0.25"
     inkscape:showpageshadow="2"
     inkscape:pageopacity="0.0"
     inkscape:pagecheckerboard="0"
     inkscape:deskcolor="#d1d1d1"
     inkscape:document-units="px"
     showgrid="false"
     inkscape:zoom="8.15625"
     inkscape:cx="47.938697"
     inkscape:cy="48"
     inkscape:window-width="1920"
     inkscape:window-height="984"
     inkscape:window-x="0"
     inkscape:window-y="29"
     inkscape:window-maximized="1"
     inkscape:current-layer="svg5" />
  <defs
     id="defs2" />
  <rect
     style="opacity:0.2;fill:#000000;stroke-width:6;stroke-linecap:square"
     id="rect234"
     width="84"
     height="84"
     x="6"
     y="7"
     ry="18" />
  <rect
     style="fill:#4d4d4d;fill-opacity:1;stroke-width:6;stroke-linecap:square"
     id="rect396"
     width="84"
     height="84"
     x="6"
     y="6"
     ry="18" />
  <path
     d="m 18,19 v 18 h 6 V 34 H 21 V 22 h 3 v -3 z m 9,0 v 18 h 3 V 19 Z m 6,0 v 18 h 3 V 19 Z m 27,0 v 18 h 3 V 19 Z m 6,0 v 18 h 3 V 19 Z m 6,0 v 3 h 3 v 12 h -3 v 3 h 6 V 19 Z M 18,40 v 18 h 6 V 55 H 21 V 43 h 3 v -3 z m 9,0 v 18 h 3 V 40 Z m 6,0 v 18 h 3 V 40 Z m 6,0 v 18 h 3 V 40 Z m 15,0 v 18 h 3 V 40 Z m 6,0 v 18 h 3 V 40 Z m 6,0 v 18 h 3 V 40 Z m 6,0 v 3 h 3 v 12 h -3 v 3 h 6 V 40 Z M 18,61 v 18 h 6 V 76 H 21 V 64 h 3 v -3 z m 9,0 v 18 h 3 V 61 Z m 6,0 v 18 h 3 V 61 Z m 27,0 v 18 h 3 V 61 Z m 6,0 v 18 h 3 V 61 Z m 6,0 v 3 h 3 v 12 h -3 v 3 h 6 V 61 Z"
     style="opacity:0.2;fill:#000000;stroke-width:6"
     id="path1" />
  <path
     d="m 18,18 v 18 h 6 V 33 H 21 V 21 h 3 v -3 z m 54,0 v 3 h 3 v 12 h -3 v 3 h 6 V 18 Z M 18,39 v 18 h 6 V 54 H 21 V 42 h 3 v -3 z m 54,0 v 3 h 3 v 12 h -3 v 3 h 6 V 39 Z M 18,60 v 18 h 6 V 75 H 21 V 63 h 3 v -3 z m 54,0 v 3 h 3 v 12 h -3 v 3 h 6 V 60 Z"
     style="fill:#d4d4d4;fill-opacity:1;stroke-width:3"
     id="path2" />
  <path
     d="m 27,18 v 18 h 3.000003 V 18 Z m 6,0 v 18 h 3 V 18 Z m -6,21 v 18 h 3.000003 V 39 Z m 6,0 v 18 h 3 V 39 Z m -6,21 v 18 h 3.000003 V 60 Z m 6,0 v 18 h 3 V 60 Z"
     style="fill:#8bc34a;stroke-width:6"
     id="path3" />
  <path
     d="M 39.000003,39 V 57 H 42 V 39 Z M 54,39 v 18 h 3 V 39 Z"
     style="fill:#ff9800;stroke-width:3"
     id="path4" />
  <path
     d="m 60.000003,18 v 18 h 3 V 18 Z m 6,0 v 18 h 3 V 18 Z m -6,21 v 18 h 3 V 39 Z m 6,0 v 18 h 3 V 39 Z m -6,21 v 18 h 3 V 60 Z m 6,0 v 18 h 3 V 60 Z"
     style="fill:#ff5722;stroke-width:3"
     id="path5" />
  <path
     id="path1040"
     style="opacity:0.1;fill:#ffffff;stroke-width:6;stroke-linecap:square"
     d="M 24 6 C 14.02802 6 6 14.028021 6 24 L 6 25 C 6 15.028021 14.02802 7 24 7 L 72 7 C 81.971978 7 90 15.028021 90 25 L 90 24 C 90 14.028021 81.971978 6 72 6 L 24 6 z " />
</svg>
