<?xml version="1.0" encoding="UTF-8" standalone="no"?>
<!-- Created with Inkscape (http://www.inkscape.org/) -->

<svg
   width="96"
   height="96"
   viewBox="0 0 96 96"
   version="1.1"
   id="svg5"
   inkscape:version="1.3 (0e150ed6c4, 2023-07-21)"
   sodipodi:docname="io.github.seadve.Kooha.svg"
   xmlns:inkscape="http://www.inkscape.org/namespaces/inkscape"
   xmlns:sodipodi="http://sodipodi.sourceforge.net/DTD/sodipodi-0.dtd"
   xmlns="http://www.w3.org/2000/svg"
   xmlns:svg="http://www.w3.org/2000/svg">
  <sodipodi:namedview
     id="namedview7"
     pagecolor="#ffffff"
     bordercolor="#000000"
     borderopacity="0.25"
     inkscape:showpageshadow="2"
     inkscape:pageopacity="0.0"
     inkscape:pagecheckerboard="0"
     inkscape:deskcolor="#d1d1d1"
     inkscape:document-units="px"
     showgrid="false"
     inkscape:zoom="8.15625"
     inkscape:cx="47.938697"
     inkscape:cy="48"
     inkscape:window-width="1920"
     inkscape:window-height="984"
     inkscape:window-x="0"
     inkscape:window-y="29"
     inkscape:window-maximized="1"
     inkscape:current-layer="svg5" />
  <defs
     id="defs2" />
  <rect
     style="opacity:0.2;fill:#000000;stroke-width:6;stroke-linecap:square"
     id="rect234"
     width="84"
     height="84"
     x="6"
     y="7"
     ry="18" />
  <rect
     style="fill:#f1356a;fill-opacity:1;stroke-width:6;stroke-linecap:square"
     id="rect396"
     width="84"
     height="84"
     x="6"
     y="6"
     ry="18" />
  <path
     d="m 27,37 v 24 h 3 l 9,-9 v 4.5 c 0,2.492988 2.007012,4.5 4.5,4.5 h 21 c 2.492988,0 4.5,-2.007012 4.5,-4.5 v -15 C 69,39.007012 66.992988,37 64.5,37 h -21 C 41.007012,37 39,39.007012 39,41.5 V 46 l -9,-9 z m 27,3 c 4.970556,0 9,4.029444 9,9 0,4.970556 -4.029444,9 -9,9 -4.970556,0 -9,-4.029444 -9,-9 0,-4.970556 4.029444,-9 9,-9 z m 0,3 c -3.313704,0 -6,2.686296 -6,6 0,3.313704 2.686296,6 6,6 3.313704,0 6,-2.686296 6,-6 0,-3.313704 -2.686296,-6 -6,-6 z"
     style="opacity:0.2;fill:#000000;stroke-width:6;stroke-linecap:round;stroke-linejoin:round"
     id="path1" />
  <path
     d="m 27,36 v 24 h 3 l 9,-9 v 4.5 c 0,2.492988 2.007012,4.5 4.5,4.5 h 21 c 2.492988,0 4.5,-2.007012 4.5,-4.5 v -15 C 69,38.007012 66.992988,36 64.5,36 h -21 C 41.007012,36 39,38.007012 39,40.5 V 45 l -9,-9 z m 27,3 c 4.970556,0 9,4.029444 9,9 0,4.970556 -4.029444,9 -9,9 -4.970556,0 -9,-4.029444 -9,-9 0,-4.970556 4.029444,-9 9,-9 z m 0,3 c -3.313704,0 -6,2.686296 -6,6 0,3.313704 2.686296,6 6,6 3.313704,0 6,-2.686296 6,-6 0,-3.313704 -2.686296,-6 -6,-6 z"
     style="fill:#ffffff;stroke-width:6;stroke-linecap:round;stroke-linejoin:round"
     id="path2" />
  <path
     id="path3"
     style="opacity:0.2;fill:#000000;stroke-width:3"
     d="M 18,19 V 29.001953 C 18.0011,30.104998 18.895002,30.998923 19.998047,31 21.103378,31.0022 21.998926,30.107287 22,29.001953 V 23 h 6.001953 C 29.107287,22.998923 30.00216,22.103375 30,20.998047 29.998923,19.895002 29.104998,19.001077 28.001953,19 Z m 49.998047,0 C 66.895002,19.0011 66.001077,19.895002 66,20.998047 c -0.0022,1.105331 0.892713,2.002832 1.998047,2.003906 h 6 v 6 C 73.999124,30.107284 74.896625,31.002157 76.001953,31 77.104998,30.998923 77.998923,30.104998 78,29.001953 V 19 Z m -48,48 C 18.895002,67.001077 18.001077,67.895002 18,68.998047 V 79 H 28.001953 C 29.104998,78.9989 29.998923,78.104998 30,77.001953 30.0022,75.896625 29.107284,74.999124 28.001953,74.998047 h -6 v -6 C 22.000879,67.892713 21.103378,66.99784 19.998047,67 Z m 56.003906,0 c -1.105328,-0.0022 -2.002829,0.892716 -2.003906,1.998047 v 6 h -6 C 66.892716,74.999124 65.997843,75.896625 66,77.001953 66.001077,78.104998 66.895002,78.998923 67.998047,79 H 78 V 68.998047 C 77.998923,67.895002 77.104998,67.001077 76.001953,67 Z" />
  <path
     id="path4"
     style="fill:#f89ab5;stroke-width:3"
     d="M 18 18 L 18 28.001953 C 18.0011 29.104998 18.895002 29.998923 19.998047 30 C 21.103378 30.0022 21.998926 29.107287 22 28.001953 L 22 22 L 28.001953 22 C 29.107287 21.998923 30.00216 21.103375 30 19.998047 C 29.998923 18.895002 29.104998 18.001077 28.001953 18 L 18 18 z M 67.998047 18 C 66.895002 18.0011 66.001077 18.895002 66 19.998047 C 65.9978 21.103378 66.892713 22.000879 67.998047 22.001953 L 73.998047 22.001953 L 73.998047 28.001953 C 73.999124 29.107284 74.896625 30.002157 76.001953 30 C 77.104998 29.998923 77.998923 29.104998 78 28.001953 L 78 18 L 67.998047 18 z M 19.998047 66 C 18.895002 66.001077 18.001077 66.895002 18 67.998047 L 18 78 L 28.001953 78 C 29.104998 77.9989 29.998923 77.104998 30 76.001953 C 30.0022 74.896625 29.107284 73.999124 28.001953 73.998047 L 22.001953 73.998047 L 22.001953 67.998047 C 22.000879 66.892713 21.103378 65.99784 19.998047 66 z M 76.001953 66 C 74.896625 65.9978 73.999124 66.892716 73.998047 67.998047 L 73.998047 73.998047 L 67.998047 73.998047 C 66.892716 73.999124 65.997843 74.896625 66 76.001953 C 66.001077 77.104998 66.895002 77.998923 67.998047 78 L 78 78 L 78 67.998047 C 77.998923 66.895002 77.104998 66.001077 76.001953 66 z " />
  <path
     id="path1040"
     style="opacity:0.2;fill:#ffffff;stroke-width:6;stroke-linecap:square"
     d="M 24 6 C 14.02802 6 6 14.028021 6 24 L 6 25 C 6 15.02802 14.02802 7 24 7 L 72 7 C 81.971978 7 90 15.02802 90 25 L 90 24 C 90 14.028021 81.971978 6 72 6 L 24 6 z " />
</svg>
