<?xml version="1.0" encoding="UTF-8" standalone="no"?>
<!-- Created with Inkscape (http://www.inkscape.org/) -->

<svg
   width="96"
   height="96"
   viewBox="0 0 96 96"
   version="1.1"
   id="svg5"
   inkscape:version="1.3 (0e150ed6c4, 2023-07-21)"
   sodipodi:docname="kaddressbook.svg"
   xmlns:inkscape="http://www.inkscape.org/namespaces/inkscape"
   xmlns:sodipodi="http://sodipodi.sourceforge.net/DTD/sodipodi-0.dtd"
   xmlns="http://www.w3.org/2000/svg"
   xmlns:svg="http://www.w3.org/2000/svg">
  <sodipodi:namedview
     id="namedview7"
     pagecolor="#ffffff"
     bordercolor="#000000"
     borderopacity="0.25"
     inkscape:showpageshadow="2"
     inkscape:pageopacity="0.0"
     inkscape:pagecheckerboard="0"
     inkscape:deskcolor="#d1d1d1"
     inkscape:document-units="px"
     showgrid="false"
     inkscape:zoom="8.15625"
     inkscape:cx="47.938697"
     inkscape:cy="48"
     inkscape:window-width="1920"
     inkscape:window-height="984"
     inkscape:window-x="0"
     inkscape:window-y="29"
     inkscape:window-maximized="1"
     inkscape:current-layer="svg5" />
  <defs
     id="defs2" />
  <rect
     style="opacity:0.2;fill:#000000;stroke-width:6;stroke-linecap:square"
     id="rect234"
     width="84"
     height="84"
     x="6"
     y="7"
     ry="18" />
  <rect
     style="fill:#ec9006;fill-opacity:1;stroke-width:6;stroke-linecap:square"
     id="rect396"
     width="84"
     height="84"
     x="6"
     y="6"
     ry="18" />
  <path
     id="path2"
     style="opacity:0.2;fill:#000000;stroke-width:3"
     d="M 57 28 C 51.477019 28 47 32.477353 47 38 C 47 43.522647 51.477019 48 57 48 C 62.522981 48 67 43.522647 67 38 C 67 32.477353 62.522981 28 57 28 z M 57 55 C 38.999454 55.0102 39 67 39 67 L 39 70 L 75 70 L 75 67 C 75 67 74.999946 54.991 57 55 z " />
  <path
     id="path1"
     style="fill:#ffffff;stroke-width:3"
     d="M 57 27 C 51.477019 27 47 31.477353 47 37 C 47 42.522647 51.477019 47 57 47 C 62.522981 47 67 42.522647 67 37 C 67 31.477353 62.522981 27 57 27 z M 57 54 C 38.999454 54.0102 39 66 39 66 L 39 69 L 75 69 L 75 66 C 75 66 74.999946 53.991 57 54 z " />
  <path
     id="path907"
     style="opacity:0.4;fill:#000000;stroke-width:3"
     d="M 24,6 C 14.028029,6 6,14.02803 6,24 v 48 c 0,9.971973 8.028029,18 18,18 h 3 V 6 Z" />
  <path
     id="path1040"
     style="opacity:0.2;fill:#ffffff;stroke-width:6;stroke-linecap:square"
     d="M 24 6 C 14.02802 6 6 14.028021 6 24 L 6 25 C 6 15.028021 14.02802 7 24 7 L 72 7 C 81.971978 7 90 15.028021 90 25 L 90 24 C 90 14.028021 81.971978 6 72 6 L 24 6 z " />
</svg>
