<?xml version="1.0" encoding="UTF-8" standalone="no"?>
<!-- Created with Inkscape (http://www.inkscape.org/) -->

<svg
   width="96"
   height="96"
   viewBox="0 0 96 96"
   version="1.1"
   id="svg5"
   inkscape:version="1.2.2 (1:1.2.2+202305151914+b0a8486541)"
   sodipodi:docname="kde-frameworks.svg"
   xmlns:inkscape="http://www.inkscape.org/namespaces/inkscape"
   xmlns:sodipodi="http://sodipodi.sourceforge.net/DTD/sodipodi-0.dtd"
   xmlns="http://www.w3.org/2000/svg"
   xmlns:svg="http://www.w3.org/2000/svg">
  <sodipodi:namedview
     id="namedview7"
     pagecolor="#ffffff"
     bordercolor="#000000"
     borderopacity="0.25"
     inkscape:showpageshadow="2"
     inkscape:pageopacity="0.0"
     inkscape:pagecheckerboard="0"
     inkscape:deskcolor="#d1d1d1"
     inkscape:document-units="px"
     showgrid="false"
     inkscape:zoom="8.3958333"
     inkscape:cx="47.940447"
     inkscape:cy="48"
     inkscape:window-width="1920"
     inkscape:window-height="1008"
     inkscape:window-x="0"
     inkscape:window-y="0"
     inkscape:window-maximized="1"
     inkscape:current-layer="svg5" />
  <defs
     id="defs2" />
  <rect
     style="opacity:0.2;fill:#000000;stroke-width:6;stroke-linecap:square"
     id="rect234"
     width="84"
     height="84"
     x="6"
     y="7"
     ry="18" />
  <rect
     style="fill:#00acc1;fill-opacity:1;stroke-width:6;stroke-linecap:square"
     id="rect396"
     width="84"
     height="84"
     x="6.0000005"
     y="6"
     ry="18" />
  <path
     d="M 54.000081,18 42.000052,19.816411 V 63.222766 L 54.000081,60.000102 V 43.230529 l 12.00003,19.76958 12.000028,-4.50001 L 63.000105,40.500054 78.005998,21.005866 66.363394,18 54.000081,37.67583 Z m -24.43365,11.771514 c -0.283773,0 -0.567557,0.110505 -0.785159,0.328126 l -4.71681,4.716809 c -0.435202,0.435201 -0.33043,1.056922 0,1.576171 l 4.880873,7.664084 c -0.361629,0.750664 -0.674771,1.523734 -0.937502,2.314458 -0.0114,0.03402 -0.0297,0.06552 -0.04101,0.09958 l -8.853537,1.968756 c -0.600811,0.133515 -1.113285,0.497829 -1.113285,1.113294 v 2.947272 2.947273 c 0,0.615467 0.512474,0.979773 1.113285,1.113285 l 8.853537,1.968756 c 0.0195,0.0582 0.05037,0.111915 0.07031,0.169919 0.255752,0.768129 0.559058,1.519585 0.908204,2.250006 l -4.88087,7.658224 c -0.330433,0.519249 -0.435205,1.140971 0,1.576173 l 4.71681,4.716809 c 0.435204,0.435202 1.135106,0.435202 1.570317,0 l 7.652361,-4.875012 c 0.752279,0.36585 1.52732,0.682911 2.320316,0.949222 0.05205,0.0183 0.100155,0.04662 0.152341,0.06442 l 1.962893,8.847677 c 0,0.615468 0.497821,1.113285 1.113283,1.113285 h 6.662126 c 0.615468,0 0.979773,-0.512474 1.113285,-1.113285 l 1.962895,-9.117209 c 0.901815,-0.33904 1.77726,-0.74445 2.619149,-1.212894 l 7.470718,5.343762 c 0.435207,0.435203 1.135116,0.435203 1.57032,0 l 4.716806,-4.716808 c 0.435204,-0.435203 0.330433,-1.056924 0,-1.576173 l -2.841803,-4.312511 -0.298831,0.111315 c -0.675753,0.25383 -1.436478,-0.0096 -1.810548,-0.626953 l -2.98829,-4.921865 c -2.489814,5.955598 -8.369817,10.142601 -15.228552,10.142601 -9.112719,0 -16.500039,-7.387322 -16.500039,-16.500041 0,-6.992776 4.358406,-12.955081 10.500025,-15.357459 v -3.287116 l -0.0234,0.105465 c -0.06623,0.0225 -0.12735,0.05871 -0.19335,0.082 -0.782476,0.25986 -1.547689,0.569065 -2.291022,0.925785 L 30.351603,30.099597 C 30.133983,29.882004 29.850219,29.77147 29.566444,29.77147 Z"
     style="opacity:0.2;fill:#000000;stroke-width:3"
     id="path1821" />
  <path
     d="M 54.000081,17 42.000052,18.816411 V 62.222765 L 54.000081,59.000102 V 42.230528 L 66.000111,62.000109 78.000139,57.500097 63.000105,39.500054 78.005998,20.005866 66.363394,17 54.000081,36.67583 Z m -24.43365,11.771514 c -0.283773,0 -0.56756,0.110505 -0.785159,0.328123 l -4.71681,4.71681 c -0.435202,0.435201 -0.33043,1.056924 0,1.576173 l 4.88087,7.664084 c -0.361626,0.750664 -0.674768,1.523734 -0.937502,2.314456 -0.0114,0.03402 -0.0297,0.06552 -0.04101,0.09958 l -8.853534,1.968755 c -0.600814,0.13353 -1.113285,0.497827 -1.113285,1.113292 v 2.947274 2.947273 c 0,0.615467 0.512471,0.979772 1.113285,1.113285 l 8.853537,1.968756 c 0.0195,0.0582 0.05037,0.111915 0.07031,0.169917 0.255752,0.768131 0.559055,1.519587 0.908204,2.250006 l -4.88087,7.658225 c -0.330433,0.519249 -0.435205,1.140972 0,1.576174 l 4.71681,4.716809 c 0.435201,0.435202 1.135103,0.435202 1.570317,0 l 7.652361,-4.875012 c 0.752279,0.365848 1.52732,0.682911 2.320316,0.949221 0.05205,0.0183 0.100155,0.04662 0.152341,0.06444 l 1.962893,8.847676 c 0,0.615468 0.497821,1.113284 1.113283,1.113284 h 6.662126 c 0.615468,0 0.979773,-0.512472 1.113285,-1.113284 l 1.962895,-9.117208 c 0.901815,-0.339041 1.77726,-0.74445 2.619149,-1.212896 l 7.470718,5.343764 c 0.435207,0.435202 1.135116,0.435202 1.57032,0 l 4.716806,-4.716809 c 0.435204,-0.435202 0.330433,-1.056925 0,-1.576174 l -2.841803,-4.312509 -0.298831,0.111315 c -0.675753,0.253833 -1.436478,-0.0096 -1.810548,-0.626951 L 61.72862,57.857487 c -2.489814,5.9556 -8.369817,10.142602 -15.228552,10.142602 -9.112719,0 -16.500039,-7.387321 -16.500039,-16.50004 0,-6.992778 4.358406,-12.955082 10.500025,-15.357461 v -3.287115 l -0.0234,0.105465 c -0.06623,0.0225 -0.12735,0.05871 -0.19335,0.08201 -0.782476,0.259862 -1.547689,0.569066 -2.291022,0.925785 l -7.640679,-4.869117 c -0.21762,-0.217591 -0.501384,-0.328123 -0.785159,-0.328123 z"
     style="fill:#ffffff;stroke-width:3"
     id="path1793" />
  <path
     id="path1040"
     style="opacity:0.2;fill:#ffffff;stroke-width:6;stroke-linecap:square"
     d="M 24,6 C 14.02803,6 6,14.02803 6,24 v 1 C 6,15.02801 14.02801,7 24,7 h 48 c 9.97199,0 18,8.02801 18,18 V 24 C 90,14.02803 81.971968,6 72,6 Z" />
</svg>
