<?xml version="1.0" encoding="UTF-8" standalone="no"?>
<!-- Created with Inkscape (http://www.inkscape.org/) -->

<svg
   width="96"
   height="96"
   viewBox="0 0 96 96"
   version="1.1"
   id="svg5"
   inkscape:version="1.2.2 (1:1.2.2+202305151914+b0a8486541)"
   sodipodi:docname="kmines.svg"
   xmlns:inkscape="http://www.inkscape.org/namespaces/inkscape"
   xmlns:sodipodi="http://sodipodi.sourceforge.net/DTD/sodipodi-0.dtd"
   xmlns="http://www.w3.org/2000/svg"
   xmlns:svg="http://www.w3.org/2000/svg">
  <sodipodi:namedview
     id="namedview7"
     pagecolor="#ffffff"
     bordercolor="#000000"
     borderopacity="0.25"
     inkscape:showpageshadow="2"
     inkscape:pageopacity="0.0"
     inkscape:pagecheckerboard="0"
     inkscape:deskcolor="#d1d1d1"
     inkscape:document-units="px"
     showgrid="false"
     inkscape:zoom="8.3958333"
     inkscape:cx="47.940447"
     inkscape:cy="48"
     inkscape:window-width="1920"
     inkscape:window-height="1008"
     inkscape:window-x="0"
     inkscape:window-y="0"
     inkscape:window-maximized="1"
     inkscape:current-layer="svg5" />
  <defs
     id="defs2" />
  <rect
     style="opacity:0.2;fill:#000000;stroke-width:6;stroke-linecap:square"
     id="rect234"
     width="84"
     height="84"
     x="6"
     y="7"
     ry="18" />
  <rect
     style="fill:#c0c0c0;fill-opacity:1;stroke-width:6;stroke-linecap:square"
     id="rect396"
     width="84"
     height="84"
     x="6"
     y="6"
     ry="18" />
  <path
     d="m 46.500013,19 c -3.323971,0 -5.999948,2.675977 -5.999948,5.999948 v 2.812476 c -2.596154,0.920352 -5.001247,2.309586 -7.095643,4.098598 l -2.437479,-1.406238 c -2.878643,-1.661986 -6.53521,-0.681398 -8.197195,2.197247 l -1.499988,2.59568 c -1.661984,2.878645 -0.681396,6.53521 2.197248,8.197195 l 2.425761,1.400379 c -0.256207,1.353253 -0.387616,2.727173 -0.392575,4.104457 0.005,1.377284 0.136363,2.751204 0.392575,4.104457 l -2.425761,1.400379 c -2.878644,1.661985 -3.859232,5.31855 -2.197248,8.197195 l 1.499988,2.59568 c 1.661985,2.878645 5.318552,3.859233 8.197195,2.197247 l 2.419901,-1.397448 c 2.100817,1.785652 4.511948,3.169965 7.113221,4.083949 v 2.818335 c 0,3.323971 2.675977,5.999948 5.999948,5.999948 h 2.999974 c 3.323972,0 5.999949,-2.675977 5.999949,-5.999948 v -2.830055 c 2.594849,-0.91504 4.999854,-2.298265 7.095642,-4.081019 l 2.437479,1.406238 c 2.878644,1.661986 6.535209,0.681398 8.197194,-2.197247 l 1.499987,-2.59568 c 1.661986,-2.878645 0.681398,-6.53521 -2.197245,-8.197195 l -2.425761,-1.400379 c 0.256207,-1.353253 0.387616,-2.727173 0.392575,-4.104457 -0.005,-1.377284 -0.136364,-2.751204 -0.392575,-4.104457 l 2.425761,-1.400379 c 2.878643,-1.661985 3.859231,-5.31855 2.197245,-8.197195 l -1.499987,-2.59568 c -1.661984,-2.878645 -5.31855,-3.859233 -8.197194,-2.197247 l -2.4199,1.397448 C 60.51257,30.115537 58.101426,28.730223 55.499936,27.815354 V 24.999948 C 55.499936,21.675977 52.823959,19 49.499987,19 Z"
     style="opacity:0.2;fill:#000000;stroke-width:1.49999"
     id="path378" />
  <path
     d="m 46.500013,18.000258 c -3.323971,0 -5.999948,2.675977 -5.999948,5.99995 v 2.812474 c -2.596154,0.920352 -5.001247,2.309586 -7.095643,4.098598 L 30.966943,29.505042 C 28.0883,27.843056 24.431735,28.823644 22.769749,31.702289 l -1.499987,2.59568 c -1.661986,2.878645 -0.681398,6.53521 2.197247,8.197195 l 2.42576,1.400379 C 25.636562,45.248796 25.505153,46.622716 25.500194,48 c 0.005,1.377284 0.136363,2.751204 0.392575,4.104457 l -2.42576,1.400379 c -2.878645,1.661985 -3.859233,5.31855 -2.197247,8.197195 l 1.499987,2.59568 c 1.661986,2.878645 5.318551,3.859233 8.197194,2.197247 l 2.419901,-1.397448 c 2.100817,1.785652 4.511948,3.169965 7.113221,4.083949 v 2.818335 c 0,3.323971 2.675977,5.999948 5.999948,5.999948 h 2.999974 c 3.323972,0 5.999949,-2.675977 5.999949,-5.999948 v -2.830055 c 2.594849,-0.91504 4.999854,-2.298265 7.095642,-4.081019 l 2.437479,1.406238 c 2.878644,1.661986 6.535209,0.681398 8.197194,-2.197247 l 1.499987,-2.59568 c 1.661986,-2.878645 0.681398,-6.53521 -2.197245,-8.197195 L 70.107232,52.104457 C 70.363439,50.751204 70.494848,49.377284 70.499807,48 c -0.005,-1.377284 -0.136364,-2.751204 -0.392575,-4.104457 l 2.425761,-1.400379 c 2.878643,-1.661985 3.859231,-5.31855 2.197245,-8.197195 l -1.499987,-2.59568 c -1.661984,-2.878645 -5.31855,-3.859233 -8.197194,-2.197247 l -2.4199,1.397448 C 60.51257,29.115795 58.101426,27.730481 55.499936,26.815612 v -2.815404 c 0,-3.323973 -2.675977,-5.99995 -5.999949,-5.99995 z"
     style="fill:#4f4f4f;stroke-width:1.49999"
     id="path300" />
  <path
     id="path1180"
     style="fill:#ffffff;stroke-width:1.49999;opacity:0.1"
     d="M 46.5 18 C 43.176032 18 40.5 20.676032 40.5 24 L 40.5 25 C 40.5 21.676032 43.176032 19 46.5 19 L 49.5 19 C 52.823969 19 55.5 21.676032 55.5 25 L 55.5 24 C 55.5 20.676032 52.823969 18 49.5 18 L 46.5 18 z M 40.5 26.8125 C 37.903849 27.732851 35.498691 29.123099 33.404297 30.912109 L 30.966797 29.505859 C 28.088156 27.843875 24.431517 28.824483 22.769531 31.703125 L 21.269531 34.298828 C 20.628554 35.409035 20.385848 36.633826 20.488281 37.816406 C 20.558203 36.956457 20.808029 36.096221 21.269531 35.296875 L 22.769531 32.701172 C 24.431517 29.82253 28.088156 28.841922 30.966797 30.503906 L 33.404297 31.910156 C 35.498691 30.121146 37.903849 28.732851 40.5 27.8125 L 40.5 26.8125 z M 55.5 26.816406 L 55.5 27.814453 C 58.101487 28.729321 60.512696 30.115651 62.613281 31.902344 L 65.033203 30.503906 C 67.911844 28.841922 71.568486 29.82253 73.230469 32.701172 L 74.730469 35.296875 C 75.191971 36.096221 75.441797 36.956457 75.511719 37.816406 C 75.614152 36.633826 75.371447 35.409035 74.730469 34.298828 L 73.230469 31.703125 C 71.568486 28.824483 67.911844 27.843875 65.033203 29.505859 L 62.613281 30.902344 C 60.512696 29.115651 58.101487 27.731274 55.5 26.816406 z M 25.742188 44.808594 C 25.586853 45.865119 25.503848 46.931341 25.5 48 C 25.500606 48.166947 25.509355 48.333183 25.513672 48.5 C 25.544905 47.290287 25.667369 46.084059 25.892578 44.894531 L 25.742188 44.808594 z M 70.257812 44.808594 L 70.107422 44.894531 C 70.332635 46.084059 70.455075 47.290287 70.486328 48.5 C 70.490642 48.333183 70.499399 48.166947 70.5 48 C 70.49612 46.931341 70.413138 45.865119 70.257812 44.808594 z M 25.742188 52.191406 L 23.466797 53.503906 C 21.387502 54.704387 20.306398 56.946652 20.488281 59.183594 C 20.651446 57.299877 21.698363 55.524912 23.466797 54.503906 L 25.892578 53.103516 C 25.835166 52.800277 25.787045 52.496526 25.742188 52.191406 z M 70.257812 52.191406 C 70.212953 52.496526 70.164833 52.800277 70.107422 53.103516 L 72.533203 54.503906 C 74.301637 55.524912 75.348554 57.299877 75.511719 59.183594 C 75.693602 56.946652 74.612498 54.704387 72.533203 53.503906 L 70.257812 52.191406 z " />
  <path
     id="path1040"
     style="opacity:0.2;fill:#ffffff;stroke-width:6;stroke-linecap:square"
     d="M 24,6 C 14.02803,6 6,14.02803 6,24 v 1 C 6,15.02801 14.02801,7 24,7 h 48 c 9.97199,0 18,8.02801 18,18 V 24 C 90,14.02803 81.971968,6 72,6 Z" />
</svg>
