<?xml version="1.0" encoding="UTF-8" standalone="no"?>
<!-- Created with Inkscape (http://www.inkscape.org/) -->

<svg
   width="96"
   height="96"
   viewBox="0 0 96 96"
   version="1.1"
   id="svg5"
   inkscape:version="1.3.2 (091e20ef0f, 2023-11-25, custom)"
   sodipodi:docname="kmymoney.svg"
   xmlns:inkscape="http://www.inkscape.org/namespaces/inkscape"
   xmlns:sodipodi="http://sodipodi.sourceforge.net/DTD/sodipodi-0.dtd"
   xmlns="http://www.w3.org/2000/svg"
   xmlns:svg="http://www.w3.org/2000/svg">
  <sodipodi:namedview
     id="namedview7"
     pagecolor="#ffffff"
     bordercolor="#000000"
     borderopacity="0.25"
     inkscape:showpageshadow="2"
     inkscape:pageopacity="0.0"
     inkscape:pagecheckerboard="0"
     inkscape:deskcolor="#d1d1d1"
     inkscape:document-units="px"
     showgrid="false"
     inkscape:zoom="8.5625"
     inkscape:cx="48"
     inkscape:cy="48"
     inkscape:window-width="1920"
     inkscape:window-height="1008"
     inkscape:window-x="0"
     inkscape:window-y="0"
     inkscape:window-maximized="1"
     inkscape:current-layer="svg5" />
  <defs
     id="defs2" />
  <rect
     style="opacity:0.2;fill:#000000;stroke-width:6;stroke-linecap:square"
     id="rect234"
     width="84"
     height="84"
     x="6"
     y="7"
     ry="18" />
  <rect
     style="fill:#e4e4e4;fill-opacity:1;stroke-width:6;stroke-linecap:square"
     id="rect396"
     width="84"
     height="84"
     x="6"
     y="6"
     ry="18" />
  <path
     style="fill:#f1ae3b;stroke-width:3"
     d="M 48,15 C 66.382941,15 81,29.617059 81,48 81,66.382941 66.382941,81 48,81 29.617059,81 15,66.382941 15,48 15,29.617059 29.617059,15 48,15 Z"
     id="path3" />
  <path
     id="path4"
     style="opacity:0.2;fill:#000000;stroke-width:3"
     d="m 33,25 v 21 h -9 v 1.5 h 9 v 3 H 24 V 52 h 9 v 21 h 6 V 52 h 1.734375 L 61.757814,73 66,68.763673 49.21875,52 H 72 V 50.5 H 47.71875 l -1.5,-1.5 1.5,-1.5 H 72 V 46 H 49.21875 L 66,29.236327 61.757814,25 40.734375,46 H 39 V 25 Z" />
  <path
     style="fill:#fff2af;stroke-width:3"
     d="m 33,24 v 21 h -9 v 1.5 h 9 v 3 H 24 V 51 h 9 v 21 h 6 V 51 h 1.734375 L 61.757814,72 66,67.763673 49.21875,51 H 72 V 49.5 H 47.71875 l -1.5,-1.5 1.5,-1.5 H 72 V 45 H 49.21875 L 66,28.236327 61.757814,24 40.734375,45 H 39 V 24 Z"
     id="path5" />
  <path
     id="path6"
     style="fill:#ffffff;stroke-width:3;opacity:0.2"
     d="M 33 24 L 33 25 L 39 25 L 39 24 L 33 24 z M 61.757812 24 L 40.734375 45 L 39 45 L 39 46 L 40.734375 46 L 61.757812 25 L 65.5 28.736328 L 66 28.236328 L 61.757812 24 z M 24 45 L 24 46 L 33 46 L 33 45 L 24 45 z M 50.220703 45 L 49.21875 46 L 72 46 L 72 45 L 50.220703 45 z M 46.71875 48.5 L 46.21875 49 L 47.71875 50.5 L 72 50.5 L 72 49.5 L 47.71875 49.5 L 46.71875 48.5 z M 24 49.5 L 24 50.5 L 33 50.5 L 33 49.5 L 24 49.5 z M 49.21875 52 L 65.5 68.263672 L 66 67.763672 L 50.220703 52 L 49.21875 52 z " />
  <path
     id="path1040"
     style="opacity:0.2;fill:#ffffff;stroke-width:6;stroke-linecap:square"
     d="M 24 6 C 14.028019 6 6 14.028022 6 24 L 6 25 C 6 15.028022 14.028019 7 24 7 L 72 7 C 81.971978 7 90 15.028022 90 25 L 90 24 C 90 14.028022 81.971978 6 72 6 L 24 6 z " />
</svg>
