<?xml version="1.0" encoding="UTF-8" standalone="no"?>
<!-- Created with Inkscape (http://www.inkscape.org/) -->

<svg
   width="96"
   height="96"
   viewBox="0 0 96 96"
   version="1.1"
   id="svg5"
   inkscape:version="1.3 (1:1.3+202307231459+0e150ed6c4)"
   sodipodi:docname="KoboDeluxe.svg"
   xmlns:inkscape="http://www.inkscape.org/namespaces/inkscape"
   xmlns:sodipodi="http://sodipodi.sourceforge.net/DTD/sodipodi-0.dtd"
   xmlns="http://www.w3.org/2000/svg"
   xmlns:svg="http://www.w3.org/2000/svg">
  <sodipodi:namedview
     id="namedview7"
     pagecolor="#ffffff"
     bordercolor="#000000"
     borderopacity="0.25"
     inkscape:showpageshadow="2"
     inkscape:pageopacity="0.0"
     inkscape:pagecheckerboard="0"
     inkscape:deskcolor="#d1d1d1"
     inkscape:document-units="px"
     showgrid="false"
     inkscape:zoom="7.4791667"
     inkscape:cx="48"
     inkscape:cy="47.933148"
     inkscape:window-width="1920"
     inkscape:window-height="1008"
     inkscape:window-x="0"
     inkscape:window-y="0"
     inkscape:window-maximized="1"
     inkscape:current-layer="svg5" />
  <defs
     id="defs2" />
  <rect
     style="opacity:0.2;fill:#000000;stroke-width:6;stroke-linecap:square"
     id="rect234"
     width="84"
     height="84"
     x="6"
     y="7"
     ry="18" />
  <rect
     style="fill:#4d4d4d;fill-opacity:1;stroke-width:6;stroke-linecap:square"
     id="rect396"
     width="84"
     height="84"
     x="5.9999995"
     y="6.0000005"
     ry="18" />
  <path
     d="m 48.034569,19.005593 c -2.00442,-0.08829 -3.894,0.874188 -4.89723,2.494482 L 18.188288,61.789486 c -0.97017,3.898257 1.91433,6.797844 6.2286,8.924101 8.0925,3.988347 21.215491,5.255757 23.364451,5.289441 3.543301,0.07713 14.280541,-1.584576 21.946772,-4.701234 5.83119,-2.370637 9.8856,-5.583049 7.64592,-9.512308 L 52.42501,21.500075 c -0.91269,-1.474047 -2.56698,-2.413953 -4.390441,-2.494482 z"
     style="opacity:0.2;fill:#000000;stroke-width:3"
     id="path2440" />
  <path
     d="m 47.999859,19.000001 c -0.0624,0 -0.1197,0.0162 -0.1815,0.0177 -0.45417,0.0093 -0.89517,0.06132 -1.33008,0.13476 -1.39062,0.323373 -2.61336,1.151508 -3.35157,2.34375 l -4.1367,6.679686 v 41.824221 c 0,6 3,9 9,9 6.000001,0 9.000001,-3 9.000001,-9 V 28.884767 l -4.57617,-7.388673 c -0.90351,-1.459236 -2.53419,-2.387589 -4.335931,-2.484375 -0.024,-2.37e-4 -0.0462,-0.0117 -0.0702,-0.0117 -0.006,-1.2e-5 -0.012,0 -0.018,0 z"
     style="opacity:0.2;fill:#000000;stroke-width:3"
     id="path2412" />
  <path
     d="m 48.034569,18.005593 c -2.00442,-0.08829 -3.894,0.874189 -4.89723,2.494483 L 18.188288,60.789487 c -0.9702,3.898257 1.91433,6.797844 6.2286,8.924101 8.0925,3.988347 21.215491,5.255757 23.364451,5.289441 3.543301,0.07713 14.280541,-1.584576 21.946772,-4.701234 5.83119,-2.370637 9.8856,-5.583049 7.64592,-9.512308 L 52.42501,20.500076 c -0.91269,-1.474047 -2.56698,-2.413954 -4.390441,-2.494483 z"
     style="fill:#8e8e8e;stroke-width:3"
     id="path2001"
     sodipodi:nodetypes="sccscsccs" />
  <path
     d="m 48.000009,18.000001 c -0.0624,0 -0.1197,0.0162 -0.1815,0.0177 -0.45417,0.0093 -0.89517,0.06132 -1.33008,0.13476 -1.39062,0.323373 -2.61336,1.151509 -3.35157,2.343751 l -4.1367,6.679686 v 41.82422 c 0,6.000001 3,9.000001 9,9.000001 6.000001,0 9.000001,-3 9.000001,-9.000001 v -41.11535 l -4.57617,-7.388673 c -0.90351,-1.459236 -2.53419,-2.38759 -4.335931,-2.484376 -0.024,-2.37e-4 -0.0462,-0.0117 -0.0702,-0.0117 -0.006,-1.2e-5 -0.012,0 -0.018,0 z"
     style="fill:#686868;stroke-width:3"
     id="path1973"
     sodipodi:nodetypes="sccccssscccsss" />
  <path
     id="path2029"
     style="opacity:0.1;fill:#ffffff;stroke-width:3"
     d="M 48.03125 18.005859 C 46.026832 17.917569 44.136041 18.881661 43.132812 20.501953 L 18.183594 60.791016 C 18.010087 61.487801 17.971158 62.147695 18.03125 62.78125 C 18.058899 62.457045 18.103086 62.128239 18.1875 61.789062 L 43.136719 21.5 C 44.139948 19.879708 46.030738 18.917569 48.035156 19.005859 C 49.858615 19.086388 51.513092 20.025954 52.425781 21.5 L 77.375 61.789062 C 77.690334 62.342279 77.866907 62.879849 77.945312 63.404297 C 78.04877 62.571393 77.889493 61.7037 77.369141 60.791016 L 52.419922 20.501953 C 51.507233 19.027908 49.854709 18.086388 48.03125 18.005859 z " />
  <circle
     style="fill:#64abf5;fill-opacity:1;stroke-width:6;stroke-linecap:square"
     id="path1756"
     cx="48.000011"
     cy="55.500004"
     r="7.5000005" />
  <path
     id="rect2288"
     style="opacity:0.2;fill:#000000;fill-opacity:1;stroke-width:6;stroke-linecap:square"
     d="m 30.000008,40.000002 c -1.662,0 -3,2.007003 -3,4.5 v 27.000002 c 0,2.492997 1.338,4.5 3,4.5 1.662,0 3.000001,-2.007003 3.000001,-4.5 V 44.500002 c 0,-2.492997 -1.338001,-4.5 -3.000001,-4.5 z m 36.000002,0 c -1.662,0 -3,2.007003 -3,4.5 v 27.000002 c 0,2.492997 1.338,4.5 3,4.5 1.662001,0 3.000001,-2.007003 3.000001,-4.5 V 44.500002 c 0,-2.492997 -1.338,-4.5 -3.000001,-4.5 z" />
  <rect
     style="fill:#afafb1;fill-opacity:1;stroke-width:6;stroke-linecap:square"
     id="rect2077"
     width="6.0000005"
     height="36.000004"
     x="27.00001"
     y="39"
     rx="4.5000005"
     ry="4.5000005" />
  <rect
     style="fill:#afafb1;fill-opacity:1;stroke-width:6;stroke-linecap:square"
     id="rect2286"
     width="6.0000005"
     height="36.000004"
     x="63.000015"
     y="39"
     rx="4.5000005"
     ry="4.5000005" />
  <path
     id="rect2346"
     style="opacity:0.1;fill:#ffffff;fill-opacity:1;stroke-width:6;stroke-linecap:square"
     d="M 30 39 C 28.338002 39 27 41.007008 27 43.5 L 27 44.5 C 27 42.007005 28.338002 40 30 40 C 31.661998 40 33 42.007005 33 44.5 L 33 43.5 C 33 41.007008 31.661998 39 30 39 z M 66 39 C 64.338002 39 63 41.007008 63 43.5 L 63 44.5 C 63 42.007005 64.338002 40 66 40 C 67.661999 40 69 42.007005 69 44.5 L 69 43.5 C 69 41.007008 67.661999 39 66 39 z " />
  <path
     d="M 24,6.0000003 C 14.028011,6.0000003 6,14.028011 6,24 v 1 C 6,15.028011 14.028011,7 24,7 h 48 c 9.97199,0 18,8.028011 18,18 V 24 C 90,14.028011 81.97199,6.0000003 72,6.0000003 Z"
     style="opacity:0.1;fill:#ffffff;stroke-width:6;stroke-linecap:square"
     id="path1040" />
</svg>
