<?xml version="1.0" encoding="UTF-8" standalone="no"?>
<!-- Created with Inkscape (http://www.inkscape.org/) -->

<svg
   width="96"
   height="96"
   viewBox="0 0 96 96"
   version="1.1"
   id="svg5"
   inkscape:version="1.3.2 (091e20ef0f, 2023-11-25, custom)"
   sodipodi:docname="korganizer.svg"
   xmlns:inkscape="http://www.inkscape.org/namespaces/inkscape"
   xmlns:sodipodi="http://sodipodi.sourceforge.net/DTD/sodipodi-0.dtd"
   xmlns="http://www.w3.org/2000/svg"
   xmlns:svg="http://www.w3.org/2000/svg">
  <sodipodi:namedview
     id="namedview7"
     pagecolor="#ffffff"
     bordercolor="#000000"
     borderopacity="0.25"
     inkscape:showpageshadow="2"
     inkscape:pageopacity="0.0"
     inkscape:pagecheckerboard="0"
     inkscape:deskcolor="#d1d1d1"
     inkscape:document-units="px"
     showgrid="false"
     inkscape:zoom="8.375"
     inkscape:cx="48"
     inkscape:cy="48"
     inkscape:window-width="1920"
     inkscape:window-height="1008"
     inkscape:window-x="0"
     inkscape:window-y="0"
     inkscape:window-maximized="1"
     inkscape:current-layer="svg5" />
  <defs
     id="defs2" />
  <rect
     style="opacity:0.2;fill:#000000;stroke-width:6;stroke-linecap:square"
     id="rect234"
     width="84"
     height="84"
     x="6"
     y="7.5"
     ry="18" />
  <rect
     style="fill:#e4e4e4;fill-opacity:1;stroke-width:6;stroke-linecap:square"
     id="rect396"
     width="84"
     height="84"
     x="6"
     y="6"
     ry="18" />
  <rect
     style="fill:#ff4f4f;stroke-width:1.41421"
     width="39"
     height="4"
     x="36"
     y="38"
     id="rect5" />
  <circle
     style="fill:#ff4f4f;fill-opacity:1;stroke-width:5.33334"
     id="path1"
     cx="23"
     cy="40"
     r="8" />
  <circle
     style="opacity:0.2;fill:#000000;fill-opacity:1;stroke-width:8"
     id="path2"
     cx="23"
     cy="41"
     r="4" />
  <circle
     style="fill:#ffffff;fill-opacity:1;stroke-width:8"
     id="path3"
     cx="23"
     cy="40"
     r="4" />
  <rect
     style="opacity:0.3;fill:#000000;stroke-width:1.41421"
     width="45"
     height="4"
     x="30"
     y="23"
     id="rect6" />
  <rect
     style="opacity:0.3;fill:#000000;stroke-width:1.33333"
     width="4"
     height="4"
     x="21"
     y="23"
     id="rect7" />
  <rect
     style="opacity:0.3;fill:#000000;stroke-width:1.41422"
     width="45"
     height="4"
     x="30"
     y="52"
     id="rect8" />
  <rect
     style="opacity:0.3;fill:#000000;stroke-width:1.33333"
     width="4"
     height="4"
     x="21"
     y="52"
     id="rect9" />
  <rect
     style="opacity:0.3;fill:#000000;stroke-width:1.41421"
     width="45"
     height="4"
     x="30"
     y="61"
     id="rect10" />
  <rect
     style="opacity:0.3;fill:#000000;stroke-width:1.33333"
     width="4"
     height="4"
     x="21"
     y="61"
     id="rect11" />
  <rect
     style="opacity:0.3;fill:#000000;stroke-width:1.41421"
     width="45"
     height="4"
     x="30"
     y="70"
     id="rect12" />
  <rect
     style="opacity:0.3;fill:#000000;stroke-width:1.33333"
     width="4"
     height="4"
     x="21"
     y="70"
     id="rect13" />
  <path
     d="M 24,6.0000003 C 14.02801,6.0000003 6,14.028011 6,24 v 1.5 c 0,-9.971989 8.02801,-18 18,-18 h 48 c 9.97199,0 18,8.028011 18,18 V 24 C 90,14.028011 81.97199,6.0000003 72,6.0000003 Z"
     style="opacity:0.2;fill:#ffffff;stroke-width:6;stroke-linecap:square"
     id="path1040" />
</svg>
