<?xml version="1.0" encoding="UTF-8" standalone="no"?>
<!-- Created with Inkscape (http://www.inkscape.org/) -->

<svg
   width="96"
   height="96"
   viewBox="0 0 96 96"
   version="1.1"
   id="svg5"
   inkscape:version="1.2.2 (1:1.2.2+202305151914+b0a8486541)"
   sodipodi:docname="kvantum.svg"
   xmlns:inkscape="http://www.inkscape.org/namespaces/inkscape"
   xmlns:sodipodi="http://sodipodi.sourceforge.net/DTD/sodipodi-0.dtd"
   xmlns="http://www.w3.org/2000/svg"
   xmlns:svg="http://www.w3.org/2000/svg">
  <sodipodi:namedview
     id="namedview7"
     pagecolor="#ffffff"
     bordercolor="#000000"
     borderopacity="0.25"
     inkscape:showpageshadow="2"
     inkscape:pageopacity="0.0"
     inkscape:pagecheckerboard="0"
     inkscape:deskcolor="#d1d1d1"
     inkscape:document-units="px"
     showgrid="false"
     inkscape:zoom="8.3958333"
     inkscape:cx="47.940447"
     inkscape:cy="48"
     inkscape:window-width="1920"
     inkscape:window-height="1008"
     inkscape:window-x="0"
     inkscape:window-y="0"
     inkscape:window-maximized="1"
     inkscape:current-layer="svg5" />
  <defs
     id="defs2" />
  <rect
     style="opacity:0.2;fill:#000000;stroke-width:6;stroke-linecap:square"
     id="rect234"
     width="84"
     height="84"
     x="6"
     y="7"
     ry="18" />
  <path
     id="rect396"
     style="fill:#82248f;fill-opacity:1;stroke-width:6;stroke-linecap:square"
     d="m 24,6 h 48 c 0,0 18.000001,18.75 18.000001,18 V 72 C 90.000001,81.972 81.972,90 72,90 H 24 L 6,72 V 24 Z"
     sodipodi:nodetypes="cccsscccc" />
  <path
     id="rect619"
     style="fill:#2dac43;fill-opacity:1;stroke-width:6;stroke-linecap:square"
     d="M 69,6 6,69 v 3 c 0,8.150892 5.36583,14.998653 12.770508,17.229492 L 89.229491,18.770508 C 86.998653,11.36583 80.150892,6 72,6 Z" />
  <path
     id="rect622"
     style="fill:#2f66dd;fill-opacity:1;stroke-width:6;stroke-linecap:square"
     d="M 89.229491,18.770508 18.770508,89.229492 C 20.424885,89.727912 22.178904,90 24,90 H 54 L 90.000001,54 V 24 c 0,-1.821096 -0.2721,-3.575115 -0.77051,-5.229492 z" />
  <path
     id="rect613"
     style="fill:#e53626;fill-opacity:1;stroke-width:6;stroke-linecap:square"
     d="M 24,6 C 14.028009,6 6,14.028009 6,24 V 39 L 39,6 Z" />
  <path
     id="rect616"
     style="fill:#ffae1a;fill-opacity:1;stroke-width:6;stroke-linecap:square"
     d="M 39,6 6,39 V 69 L 69,6 Z" />
  <path
     id="path2219"
     style="opacity:0.1;fill:#000000;stroke-width:6;stroke-linecap:square"
     d="M 39 6 L 6 39 L 6 40 L 40 6 L 39 6 z M 69 6 L 6 69 L 6 70 L 70 6 L 69 6 z M 89.228516 18.771484 L 18.771484 89.228516 C 19.032757 89.307228 19.302151 89.364582 19.568359 89.431641 L 89.431641 19.568359 C 89.364582 19.302151 89.307228 19.032757 89.228516 18.771484 z M 90 54 L 54 90 L 55 90 L 90 55 L 90 54 z " />
  <path
     d="m 26.999817,31 3.66e-4,3.893403 3.335568,0.25257 0.556971,0.757632 -5.537091,26.213001 -0.851853,0.789405 L 21,63.160171 v 3.839592 l 14.999763,2.28e-4 4.74e-4,-3.839391 -3.074457,-0.22146 -0.589743,-0.820872 2.260737,-10.202487 h 3.47283 l 4.98006,9.202299 c 2.03541,4.028493 3.463278,5.75556 7.863252,5.808996 1.265142,0.0156 1.774092,0.10518 5.187129,0 11.771823,-9.470064 17.780586,-17.487069 18.729951,-20.750691 0.574977,-1.976664 -0.337896,-3.188976 -2.293968,-3.188976 -0.954183,0 -2.046585,0.387201 -3.275733,1.168683 l -0.884604,7.585746 c -2.409237,3.033876 -5.621001,6.338721 -9.534141,9.786456 l 3.418842,-13.838451 c 0.537114,-2.666448 0.714192,-4.089129 -1.081395,-4.640874 l -8.026707,1.70508 -0.4254,1.451937 3.701715,0.568614 c 0.25734,0.919263 -0.858321,3.717981 -1.420317,6.798288 l -1.801986,9.565326 c -0.0285,0.09837 -0.04623,0.20634 -0.06555,0.315696 -1.16844,-0.604935 -1.905,-1.682127 -2.75214,-3.314652 L 43.344501,47.46421 56.22042,35.39914 l 3.779847,-0.410373 -5.34e-4,-3.988266 -15.000018,1.08e-4 5.7e-4,3.988467 5.257107,0.25224 0.327636,0.852429 -13.58574,11.802609 h -1.63818 l 2.511768,-11.99193 0.720798,-0.757629 3.406494,-0.25248 -3.39e-4,-3.893805 z"
     style="opacity:0.2;fill:#000000;stroke-width:3"
     id="path3305" />
  <path
     d="m 26.999817,30 3.66e-4,3.893406 3.335568,0.25257 0.556971,0.757632 -5.537091,26.213001 -0.851853,0.789405 L 21,62.160174 v 3.839592 l 14.999766,2.28e-4 4.74e-4,-3.839391 -3.074457,-0.22146 -0.589746,-0.820872 2.26074,-10.202487 h 3.47283 l 4.98006,9.202299 c 2.03541,4.028493 3.463278,5.75556 7.863252,5.808996 1.265142,0.0156 1.774089,0.10518 5.187129,0 11.771823,-9.470064 17.780586,-17.487069 18.729951,-20.750691 0.574977,-1.976664 -0.337896,-3.188976 -2.293968,-3.188976 -0.954183,0 -2.046585,0.387201 -3.275733,1.168683 l -0.884604,7.585746 c -2.409237,3.033876 -5.621001,6.338721 -9.534141,9.786456 L 62.260395,46.689846 C 62.797509,44.023395 62.974587,42.600714 61.179,42.048972 l -8.026707,1.705077 -0.4254,1.45194 3.701715,0.568611 c 0.25734,0.919266 -0.858321,3.717984 -1.420317,6.798291 l -1.801986,9.565323 c -0.0285,0.09837 -0.04623,0.20634 -0.06555,0.315696 -1.16844,-0.604935 -1.905,-1.682124 -2.75214,-3.314652 L 43.344504,46.46421 56.220423,34.39914 l 3.779847,-0.410373 -5.34e-4,-3.988266 -15.000018,1.08e-4 5.7e-4,3.988467 5.257107,0.25224 0.327636,0.852429 -13.58574,11.802609 h -1.63818 l 2.511768,-11.99193 0.720798,-0.757629 3.406494,-0.25248 -3.39e-4,-3.893805 z"
     style="fill:#ffffff;stroke-width:3"
     id="path3141" />
  <path
     id="path1040"
     style="opacity:0.2;fill:#ffffff;stroke-width:6;stroke-linecap:square"
     d="M 24,6 C 14.02803,6 6,14.02803 6,24 v 1 C 6,15.028028 14.02803,7 24,7 h 48 c 9.971968,0 18,8.028028 18,18 V 24 C 90,14.02803 81.971968,6 72,6 Z" />
</svg>
