<?xml version="1.0" encoding="UTF-8" standalone="no"?>
<!-- Created with Inkscape (http://www.inkscape.org/) -->

<svg
   width="96"
   height="96"
   viewBox="0 0 96 96"
   version="1.1"
   id="svg5"
   inkscape:version="1.3.2 (1:1.3.2+202404261509+091e20ef0f)"
   sodipodi:docname="libinput-gestures.svg"
   xmlns:inkscape="http://www.inkscape.org/namespaces/inkscape"
   xmlns:sodipodi="http://sodipodi.sourceforge.net/DTD/sodipodi-0.dtd"
   xmlns="http://www.w3.org/2000/svg"
   xmlns:svg="http://www.w3.org/2000/svg">
  <sodipodi:namedview
     id="namedview7"
     pagecolor="#ffffff"
     bordercolor="#000000"
     borderopacity="0.25"
     inkscape:showpageshadow="2"
     inkscape:pageopacity="0.0"
     inkscape:pagecheckerboard="0"
     inkscape:deskcolor="#d1d1d1"
     inkscape:document-units="px"
     showgrid="false"
     inkscape:zoom="8.3229167"
     inkscape:cx="47.939925"
     inkscape:cy="48"
     inkscape:window-width="1920"
     inkscape:window-height="1006"
     inkscape:window-x="0"
     inkscape:window-y="0"
     inkscape:window-maximized="1"
     inkscape:current-layer="svg5" />
  <defs
     id="defs2" />
  <rect
     style="opacity:0.2;fill:#000000;stroke-width:6.00001;stroke-linecap:square"
     id="rect234"
     width="84"
     height="84"
     x="6"
     y="7"
     ry="18" />
  <rect
     style="fill:#2196f3;fill-opacity:1;stroke-width:6.00001;stroke-linecap:square"
     id="rect396"
     width="84"
     height="84"
     x="6"
     y="6"
     ry="18" />
  <circle
     style="opacity:0.2;fill:#000000;stroke-width:1.92857"
     id="path1"
     cx="52.5"
     cy="46.5"
     r="13.5" />
  <circle
     style="opacity:0.2;fill:#000000;stroke-width:1.92857"
     id="path2"
     cx="52.5"
     cy="46.5"
     r="7.5" />
  <path
     id="path1040"
     style="opacity:0.2;fill:#ffffff;stroke-width:6.00001;stroke-linecap:square"
     d="M 24 6 C 14.02802 6 6 14.02802 6 24 L 6 25 C 6 15.02802 14.02802 7 24 7 L 72 7 C 81.971977 7 90 15.02802 90 25 L 90 24 C 90 14.02802 81.971977 6 72 6 L 24 6 z " />
  <path
     style="opacity:0.2;fill:#000000;stroke-width:3"
     d="m 52.435926,46.001189 c -4.502048,0 -4.503698,2.999709 -4.51373,6 -0.03134,1.853786 -0.02318,5.723498 0.01174,11.431641 0.05582,9.124724 0.03866,11.98845 -0.07036,12.380859 -3.110442,-0.327843 -7.815053,-1.584733 -9.919979,-3.250366 -1.375766,-1.091413 -2.740923,-2.091931 -3.03065,-2.220701 -1.207764,-0.536835 -2.9214,-0.19877 -3.904083,0.773435 -0.679493,0.67225 -0.930841,1.271546 -0.990676,2.34961 -0.04572,0.823835 -0.018,1.018691 0.234511,1.564453 0.159088,0.343822 0.447518,0.805358 0.638957,1.025393 0.191423,0.220056 2.810604,3.616947 5.820953,7.552732 5.575053,7.288921 11.121723,9.992017 12.077192,10.264035 0.584158,0.166585 30.715638,0.171914 31.320604,0.006 0.274671,-0.07542 0.671729,-0.328244 0.955505,-0.609376 0.39766,-0.393951 0.546951,-0.682023 0.855851,-1.634761 0.8844,-2.727778 1.766502,-6.876487 2.016524,-9.181642 0.108748,-2.678435 0.05106,-2.780313 0,-4.951174 -9.6e-4,-0.04092 -0.01024,-0.07665 -0.01174,-0.117179 0.0042,-1.929179 0.01626,-3.559811 0,-4.382813 0.009,-3.000287 0.01596,-6.000002 -4.478558,-6.000002 -4.055134,0 -4.432204,2.457575 -4.478561,5.138674 -0.0066,0.07211 -0.0283,0.144366 -0.02951,0.216805 0.0016,-0.725161 0.0087,-1.913162 0,-2.355469 0.009,-3.000284 0.0099,-5.999999 -4.484426,-5.999999 -4.028266,0 -4.427742,2.425841 -4.478555,5.085935 -0.01174,0.0063 -0.02348,0.01084 -0.0352,0.01776 -7e-5,-0.01566 -0.0051,-0.161196 -0.006,-0.19335 3.55e-4,-0.53941 0.0069,-1.551468 0,-1.910157 0.009,-3.000285 0.0099,-6 -4.484426,-6 -3.415674,0 -4.2359,1.736108 -4.437521,3.884765 -0.0051,0.0011 -0.0756,0.01746 -0.0762,0.01776 -0.06404,0.02318 -0.01174,-3.645224 -0.01174,-7.593751 0,-2.704698 0.01957,-4.311744 0,-5.308592 0.009,-3.000285 0.01174,-6 -4.490288,-6 z"
     id="path3" />
  <path
     style="fill:#ebebeb;stroke-width:3"
     d="m 52.435926,44.999999 c -4.502048,0 -4.503698,2.999709 -4.51373,6.000002 -0.03134,1.853787 -0.02318,5.723498 0.01174,11.431639 0.05582,9.124727 0.03866,11.988452 -0.07036,12.380859 -3.110442,-0.327841 -7.815053,-1.584731 -9.919979,-3.250364 -1.375766,-1.091412 -2.740923,-2.091931 -3.03065,-2.220701 -1.207764,-0.536835 -2.9214,-0.198769 -3.904083,0.773436 -0.679493,0.672247 -0.930841,1.271546 -0.990676,2.349609 -0.04572,0.823835 -0.018,1.018691 0.234511,1.564453 0.159088,0.343822 0.447518,0.805356 0.638957,1.025391 0.191423,0.220055 2.810604,3.616949 5.820953,7.552735 5.575053,7.28892 11.121723,9.992016 12.077192,10.264035 0.584158,0.166585 30.715638,0.171914 31.320604,0.006 0.274671,-0.07542 0.671729,-0.328244 0.955505,-0.609376 0.39766,-0.393951 0.546951,-0.682023 0.855851,-1.634763 0.8844,-2.727775 1.766502,-6.876484 2.016524,-9.18164 0.108748,-2.678435 0.05106,-2.780313 0,-4.951174 -9.6e-4,-0.04092 -0.01024,-0.07665 -0.01174,-0.117178 0.0042,-1.929182 0.01626,-3.559812 0,-4.382816 0.009,-3.000284 0.01596,-6 -4.478558,-6 -4.055134,0 -4.432204,2.457575 -4.478561,5.138675 -0.0066,0.07211 -0.0283,0.144365 -0.02951,0.216804 0.0016,-0.725161 0.0087,-1.913162 0,-2.355468 0.009,-3.000285 0.0099,-6 -4.484426,-6 -4.028266,0 -4.427742,2.425842 -4.478555,5.085935 -0.01174,0.0063 -0.02348,0.01084 -0.0352,0.01776 -7e-5,-0.01566 -0.0051,-0.161196 -0.006,-0.193351 3.55e-4,-0.539409 0.0069,-1.551468 0,-1.910157 0.009,-3.000284 0.0099,-6 -4.484426,-6 -3.415674,0 -4.2359,1.736109 -4.437521,3.884766 -0.0051,0.0011 -0.0756,0.01746 -0.0762,0.01776 -0.06404,0.02318 -0.01174,-3.645224 -0.01174,-7.59375 0,-2.704698 0.01957,-4.311748 0,-5.308593 0.009,-3.000284 0.01174,-5.999999 -4.490288,-5.999999 z"
     id="path4" />
</svg>
