<?xml version="1.0" encoding="UTF-8" standalone="no"?>
<!-- Created with Inkscape (http://www.inkscape.org/) -->

<svg
   width="96"
   height="96"
   viewBox="0 0 96 96"
   version="1.1"
   id="svg5"
   inkscape:version="1.3.2 (091e20ef0f, 2023-11-25, custom)"
   sodipodi:docname="meld.svg"
   xmlns:inkscape="http://www.inkscape.org/namespaces/inkscape"
   xmlns:sodipodi="http://sodipodi.sourceforge.net/DTD/sodipodi-0.dtd"
   xmlns="http://www.w3.org/2000/svg"
   xmlns:svg="http://www.w3.org/2000/svg">
  <sodipodi:namedview
     id="namedview7"
     pagecolor="#ffffff"
     bordercolor="#000000"
     borderopacity="0.25"
     inkscape:showpageshadow="2"
     inkscape:pageopacity="0.0"
     inkscape:pagecheckerboard="0"
     inkscape:deskcolor="#d1d1d1"
     inkscape:document-units="px"
     showgrid="false"
     inkscape:zoom="8.28125"
     inkscape:cx="47.939623"
     inkscape:cy="48"
     inkscape:window-width="1920"
     inkscape:window-height="1008"
     inkscape:window-x="0"
     inkscape:window-y="0"
     inkscape:window-maximized="1"
     inkscape:current-layer="svg5" />
  <defs
     id="defs2" />
  <rect
     style="opacity:0.2;fill:#000000;stroke-width:6;stroke-linecap:square"
     id="rect234"
     width="84"
     height="84"
     x="6"
     y="7"
     ry="18" />
  <rect
     style="fill:#3584e4;fill-opacity:1;stroke-width:6;stroke-linecap:square"
     id="rect396"
     width="84"
     height="84"
     x="6"
     y="6"
     ry="18" />
  <path
     id="path1040"
     style="opacity:0.2;fill:#ffffff;stroke-width:6;stroke-linecap:square"
     d="M 24,6 C 14.02802,6 6,14.028021 6,24 v 1 C 6,15.028021 14.02802,7 24,7 h 48 c 9.971978,0 18,8.028021 18,18 V 24 C 90,14.028021 81.971978,6 72,6 Z" />
  <path
     id="path4"
     style="opacity:0.2;fill:#000000;stroke-width:3"
     d="M 24,7 C 14.02801,7 6,15.02801 6,25 v 15.304686 5.097657 c 1.9730007,4.990815 4.817962,9.651765 8.660156,13.734375 4.491926,4.772991 11.163189,8.767464 18.070312,10.248048 6.907122,1.480566 14.644668,0.447507 20.074218,-4.816407 1.859682,-1.802931 3.431433,-4.470255 3.984378,-7.207032 C 57.341988,54.624559 56.878395,51.822499 54.685548,49.75 53.989599,49.092247 52.36056,48.535459 51.316407,48.349609 50.278677,48.164893 48.755139,48.178609 48,49 c 0.842571,0.755706 1.507068,1.972878 1.318359,3.005859 -0.19002,1.03998 -0.763272,2.066757 -1.435545,2.759766 -2.110431,2.175531 -4.963908,3.647253 -7.746096,3.099609 -2.782182,-0.547653 -5.49741,-2.095791 -7.330077,-3.9375 C 28.798918,49.90027 27.004266,43.899523 27.09375,38.78125 c 0.0297,-1.7061 0.245581,-3.426042 0.621094,-5.132814 C 29.216915,26.82134 33.472395,18.342023 38.314452,13.902344 41.406129,11.067592 44.82873,8.78927 48.46875,7 Z m 24,42 c -0.842571,-0.755706 -1.507068,-1.972878 -1.318359,-3.005859 0.19002,-1.03998 0.763272,-2.066757 1.435545,-2.759766 2.110428,-2.175531 4.963908,-3.647253 7.746096,-3.099609 2.782182,0.547653 5.49741,2.095791 7.330077,3.9375 4.007724,4.027464 5.802372,10.028211 5.712891,15.146484 -0.0297,1.7061 -0.24558,3.426042 -0.621093,5.132814 C 66.783084,71.178658 62.527605,79.657978 57.685548,84.097657 54.593871,86.932408 51.17127,89.210731 47.53125,91 H 72 c 9.971991,0 18,-8.028009 18,-18 V 57.695314 52.597657 C 88.026999,47.606842 85.182039,42.945892 81.339843,38.863282 76.847919,34.090291 70.176654,30.095818 63.269532,28.615234 56.36241,27.134667 48.624861,28.167727 43.195314,33.431641 c -1.859679,1.802931 -3.431433,4.470255 -3.984378,7.207032 -0.552924,2.736768 -0.08934,5.538828 2.103516,7.611327 0.695949,0.657753 2.324988,1.214541 3.369141,1.400391 C 45.721323,49.835101 47.244861,49.821379 48,49 Z" />
  <path
     id="path5"
     style="fill:#ff9632;stroke-width:3"
     d="M 24,6 C 14.02801,6 6,14.02801 6,24 v 15.304686 5.097657 c 1.9730007,4.990815 4.817962,9.651765 8.660156,13.734375 4.491926,4.772991 11.163189,8.767464 18.070312,10.248048 6.907122,1.480566 14.644668,0.447507 20.074218,-4.816407 1.859682,-1.802931 3.431433,-4.470255 3.984378,-7.207032 C 57.341988,53.624559 56.878395,50.822499 54.685548,48.75 53.989599,48.092247 52.36056,47.535459 51.316407,47.349609 50.278677,47.164893 48.755139,47.178609 48,48 c 0.842571,0.755706 1.507068,1.972878 1.318359,3.005859 -0.19002,1.03998 -0.763272,2.066757 -1.435545,2.759766 -2.110431,2.175531 -4.963908,3.647253 -7.746096,3.099609 -2.782182,-0.547653 -5.49741,-2.095791 -7.330077,-3.9375 C 28.798918,48.90027 27.004266,42.899523 27.09375,37.78125 c 0.0297,-1.7061 0.245581,-3.426042 0.621094,-5.132814 C 29.216915,25.82134 33.472395,17.342023 38.314452,12.902344 41.406129,10.067592 44.82873,7.7892699 48.46875,6 Z m 24,42 c -0.842571,-0.755706 -1.507068,-1.972878 -1.318359,-3.005859 0.19002,-1.03998 0.763272,-2.066757 1.435545,-2.759766 2.110428,-2.175531 4.963908,-3.647253 7.746096,-3.099609 2.782182,0.547653 5.49741,2.095791 7.330077,3.9375 4.007724,4.027464 5.802372,10.028211 5.712891,15.146484 -0.0297,1.7061 -0.24558,3.426042 -0.621093,5.132814 C 66.783084,70.178658 62.527605,78.657978 57.685548,83.097657 54.593871,85.932408 51.17127,88.210731 47.53125,90 H 72 c 9.971991,0 18,-8.028009 18,-18 V 56.695314 51.597657 C 88.026999,46.606842 85.182039,41.945892 81.339843,37.863282 76.847919,33.090291 70.176654,29.095817 63.269532,27.615234 56.36241,26.134667 48.624861,27.167725 43.195314,32.431641 c -1.859679,1.802931 -3.431433,4.470255 -3.984378,7.207032 -0.552924,2.736768 -0.08934,5.538828 2.103516,7.611327 0.695949,0.657753 2.324988,1.214541 3.369141,1.400391 C 45.721323,48.835101 47.244861,48.821379 48,48 Z" />
  <path
     id="path1"
     style="opacity:0.2;fill:#ffffff;stroke-width:3"
     d="M 24,6 C 14.02802,6 6,14.02802 6,24 v 1 C 6,15.02802 14.02802,7 24,7 H 46.595703 C 47.21606,6.6582347 47.834595,6.3117219 48.46875,6 Z m 33.982422,21.003906 c -5.344633,-0.08732 -10.714953,1.479802 -14.78711,5.427735 -1.859677,1.802929 -3.43143,4.470257 -3.984374,7.207031 -0.171588,0.849295 -0.231048,1.702899 -0.185547,2.541016 0.02747,-0.512816 0.08181,-1.027548 0.185547,-1.541016 0.552944,-2.736774 2.124697,-5.404102 3.984374,-7.207031 5.429542,-5.263912 13.167104,-6.296971 20.074219,-4.816407 6.907115,1.480583 13.578393,5.475061 18.070313,10.248047 3.842192,4.082606 6.687157,8.743565 8.660156,13.734375 v -1 C 88.027001,46.606846 85.182036,41.945887 81.339844,37.863281 76.847924,33.090295 70.176646,29.095816 63.269531,27.615234 61.542752,27.245093 59.763966,27.033013 57.982422,27.003906 Z M 27.111328,38.394531 c -0.0043,0.128891 -0.01534,0.257974 -0.01758,0.386719 -0.08948,5.118268 1.705172,11.119024 5.712891,15.146484 1.832665,1.841708 4.547899,3.389848 7.330078,3.9375 2.782185,0.547644 5.635665,-0.92408 7.746093,-3.099609 0.672273,-0.693008 1.245528,-1.719787 1.435547,-2.759766 0.05173,-0.283188 0.0294,-0.579381 -0.0332,-0.876953 -0.2113,0.997125 -0.756807,1.971271 -1.402344,2.636719 -2.110428,2.175529 -4.963908,3.647253 -7.746093,3.099609 -2.782179,-0.547652 -5.497413,-2.095792 -7.330078,-3.9375 -3.850571,-3.869537 -5.638836,-9.553356 -5.695313,-14.533203 z m 19.603516,7.476563 c -0.0088,0.0413 -0.02565,0.08169 -0.0332,0.123047 -0.144528,0.791135 0.214476,1.687134 0.767578,2.404297 C 47.655503,48.293137 47.846613,48.166842 48,48 47.388418,47.451469 46.880598,46.658968 46.714844,45.871094 Z M 48,48 c 0.197265,0.176928 0.381702,0.382331 0.550781,0.601562 0.809268,-0.413106 1.938685,-0.399143 2.765625,-0.251953 1.044152,0.18585 2.673193,0.742639 3.369141,1.400391 1.512349,1.429343 2.187943,3.207687 2.289062,5.070312 C 57.093542,52.599842 56.466973,50.433658 54.685547,48.75 53.989599,48.092248 52.360558,47.535459 51.316406,47.349609 50.278677,47.164894 48.755138,47.17861 48,48 Z m 20.888672,10.605469 c -0.0533,1.579143 -0.25634,3.168119 -0.603516,4.746093 C 66.783085,70.17865 62.527599,78.657982 57.685547,83.097656 54.593873,85.932404 51.171266,88.210733 47.53125,90 h 1.873047 c 2.940458,-1.61995 5.7282,-3.561458 8.28125,-5.902344 4.842052,-4.439674 9.097538,-12.919006 10.599609,-19.746094 0.375513,-1.70677 0.591394,-3.426714 0.621094,-5.132812 0.0035,-0.200695 -0.01527,-0.410045 -0.01758,-0.613281 z" />
</svg>
