<?xml version="1.0" encoding="UTF-8" standalone="no"?>
<!-- Created with Inkscape (http://www.inkscape.org/) -->

<svg
   width="96"
   height="96"
   viewBox="0 0 96 96"
   version="1.1"
   id="svg5"
   inkscape:version="1.3 (0e150ed6c4, 2023-07-21)"
   sodipodi:docname="microsoft-365.svg"
   xmlns:inkscape="http://www.inkscape.org/namespaces/inkscape"
   xmlns:sodipodi="http://sodipodi.sourceforge.net/DTD/sodipodi-0.dtd"
   xmlns="http://www.w3.org/2000/svg"
   xmlns:svg="http://www.w3.org/2000/svg">
  <sodipodi:namedview
     id="namedview7"
     pagecolor="#ffffff"
     bordercolor="#000000"
     borderopacity="0.25"
     inkscape:showpageshadow="2"
     inkscape:pageopacity="0.0"
     inkscape:pagecheckerboard="0"
     inkscape:deskcolor="#d1d1d1"
     inkscape:document-units="px"
     showgrid="false"
     inkscape:zoom="8.3645833"
     inkscape:cx="48"
     inkscape:cy="48"
     inkscape:window-width="1850"
     inkscape:window-height="1011"
     inkscape:window-x="70"
     inkscape:window-y="32"
     inkscape:window-maximized="1"
     inkscape:current-layer="svg5" />
  <defs
     id="defs2" />
  <rect
     style="opacity:0.2;fill:#000000;stroke-width:6;stroke-linecap:square"
     id="rect234"
     width="84"
     height="84"
     x="6"
     y="7"
     ry="18" />
  <rect
     style="fill:#efefef;fill-opacity:1;stroke-width:6;stroke-linecap:square"
     id="rect396"
     width="84"
     height="84"
     x="6"
     y="6"
     ry="18" />
  <path
     style="opacity:0.2;stroke-width:1.5"
     d="m 48.1785,19.00002 c -1.8825,0 -3.756,0.43155 -5.4465,1.3857 L 26.20905,30.47502 C 22.97475,32.45052 21,35.99052 21,39.80952 v 18.375 c 0,3.8175 1.9764,7.3575 5.20905,9.3345 l 16.19745,9.9045 c 3.438,2.1015 7.749,2.1015 11.187,0 l 16.197,-9.9045 c 3.15,-1.9245 5.1015,-5.3355 5.2005,-9.039 0.0015,0.021 0.003,0.042 0.003,0.0615 0.0045,-0.1185 0.006,-0.237 0.006,-0.357 v -18.378 c 0,-3.8175 -1.9755,-7.3575 -5.2095,-9.3345 l -16.2,-9.8988 c -1.665,-1.0173 -3.5325,-1.5732 -5.412,-1.5732 z M 48,38.50002 c 1.9485,0.021 3.8895,0.6225 5.628,1.638 l 5.1705,3.018 v 5.1345 c 0,3.8175 -1.9725,7.3545 -5.205,9.3315 l -5.5965,3.4215 -5.5905,-3.4155 C 39.174,55.65102 37.5,52.28352 37.5,48.46752 v -5.4645 l 4.9485,-2.865 c 1.7445,-1.0095 3.603,-1.659 5.5515,-1.638 z"
     id="path1" />
  <path
     style="fill:#1e73c7;stroke-width:1.5"
     d="m 42.405,19.59003 7.095,-0.09 v 10.5 l -6,7.5 -6,4.5 v 5.46 c 0,3.825 1.68,7.185 4.905,9.165 l 7.11,4.35 -15.015,8.85 h -2.895 l -5.4,-3.3 C 22.98,64.54503 21,61.00503 21,57.18003 v -18.375 c 0,-3.81 1.98,-7.35 5.205,-9.33 z"
     id="path2" />
  <path
     style="fill:#8762b5;stroke-width:1.5"
     d="m 58.5,40.50003 v 6.879 c 0,3.8175 -1.6605,7.2915 -4.908,9.2445 L 40.5,64.50003 c -3.5865,2.1585 -10.545,4.128 -13.91715,2.2485 l 15.82515,9.675 c 3.438,2.1015 7.746,2.1015 11.184,0 l 16.2,-9.906 C 73.0245,64.54203 75,61.00203 75,57.18603 v -4.686 l -1.5,-3 z"
     id="path3" />
  <path
     style="fill:#4aafe8;stroke-width:1.5"
     d="m 53.589,19.57473 c -3.33,-2.0346 -7.476,-2.0976 -10.857,-0.18915 l -0.3225,0.1968 c -3.234,1.9761 -4.9095,5.571 -4.9095,9.38865 v 13.029 l 4.9485,-2.8635 c 1.7445,-1.0095 3.603,-1.6575 5.5515,-1.6365 1.9485,0.021 3.8895,0.621 5.628,1.6365 l 16.1625,9.4275 c 3.171,1.8495 5.085,5.2965 5.2035,8.9775 L 75,57.18453 v -18.3765 c 0,-3.819 -1.977,-7.359 -5.211,-9.3345 z"
     id="path4" />
  <path
     id="path5"
     style="opacity:0.2;stroke-width:1.5"
     d="m 58.5,41.978536 v 1 l 11.291016,6.58789 c 3.024941,1.763471 4.899019,4.978996 5.169922,8.464844 0.01381,-0.182854 0.02411,-0.365993 0.0293,-0.550781 -0.137999,-3.656997 -2.044722,-7.075065 -5.199218,-8.914063 z" />
  <path
     id="path6"
     style="opacity:0.2;fill:#ffffff;stroke-width:1.5"
     d="m 48.177734,18.00002 c -1.882498,0 -3.754814,0.430617 -5.445312,1.384766 L 26.208984,29.474629 C 22.974688,31.450127 21,34.989618 21,38.808614 v 1 c 0,-3.818996 1.974688,-7.358487 5.208984,-9.333985 L 42.732422,20.384786 c 1.690498,-0.954149 3.562814,-1.384766 5.445312,-1.384766 1.879498,0 3.747111,0.554967 5.41211,1.572266 l 16.201172,9.90039 C 73.025012,32.449674 75,35.989164 75,39.806661 v -1 c 0,-3.817497 -1.974988,-7.356987 -5.208984,-9.333985 L 53.589844,19.572286 C 51.924845,18.554987 50.057232,18.00002 48.177734,18.00002 Z M 37.5,47.466817 v 1 c 0,3.815996 1.673753,7.185111 4.90625,9.162109 l 4.722656,2.884766 0.824219,-0.496094 -5.546875,-3.388672 C 39.173753,54.651928 37.5,51.282813 37.5,47.466817 Z"
     sodipodi:nodetypes="sccscccscccsccscsccccc" />
  <path
     id="path1040"
     style="opacity:0.2;fill:#ffffff;stroke-width:6;stroke-linecap:square"
     d="M 24,6 C 14.02803,6 6,14.02803 6,24 v 1 C 6,15.02801 14.02801,7 24,7 h 48 c 9.97199,0 18,8.02801 18,18 V 24 C 90,14.02803 81.971968,6 72,6 Z" />
</svg>
