<?xml version="1.0" encoding="UTF-8" standalone="no"?>
<!-- Created with Inkscape (http://www.inkscape.org/) -->

<svg
   width="96"
   height="96"
   viewBox="0 0 96 96"
   version="1.1"
   id="svg5"
   inkscape:version="1.2.2 (1:1.2.2+202305151914+b0a8486541)"
   sodipodi:docname="microsoft-edge.svg"
   xmlns:inkscape="http://www.inkscape.org/namespaces/inkscape"
   xmlns:sodipodi="http://sodipodi.sourceforge.net/DTD/sodipodi-0.dtd"
   xmlns="http://www.w3.org/2000/svg"
   xmlns:svg="http://www.w3.org/2000/svg">
  <sodipodi:namedview
     id="namedview7"
     pagecolor="#ffffff"
     bordercolor="#000000"
     borderopacity="0.25"
     inkscape:showpageshadow="2"
     inkscape:pageopacity="0.0"
     inkscape:pagecheckerboard="0"
     inkscape:deskcolor="#d1d1d1"
     inkscape:document-units="px"
     showgrid="false"
     inkscape:zoom="8.3958333"
     inkscape:cx="48"
     inkscape:cy="48"
     inkscape:window-width="1920"
     inkscape:window-height="1008"
     inkscape:window-x="0"
     inkscape:window-y="0"
     inkscape:window-maximized="1"
     inkscape:current-layer="svg5" />
  <defs
     id="defs2" />
  <rect
     style="opacity:0.2;fill:#000000;stroke-width:6;stroke-linecap:square"
     id="rect234"
     width="84"
     height="84"
     x="6"
     y="7"
     ry="18" />
  <rect
     style="fill:#efefef;fill-opacity:1;stroke-width:6;stroke-linecap:square"
     id="rect396"
     width="84"
     height="84"
     x="6"
     y="6"
     ry="18" />
  <g
     id="g1859"
     transform="matrix(2,0,0,2,-1.6653597,2.1912405)">
    <path
       d="m 36.90951,30.72886 c -1.43746,1.41426 -3.66725,1.74996 -5.44187,1.75868 -5.54496,0 -10.37511,-4.26366 -10.37511,-9.15761 0.014,-1.3366 0.75104,-2.56079 1.92526,-3.19975 -5.0153,0.21089 -6.30428,5.43642 -6.30428,8.49792 0,8.6561 7.97878,9.53365 9.69783,9.53365 0.92688,0 2.32484,-0.26947 3.16386,-0.53426 l 0.1536,-0.0516 c 3.2286,-1.116 5.98101,-3.29779 7.80421,-6.18628 0.26038,-0.41019 -0.1986,-0.89678 -0.6234,-0.6608 z"
       style="opacity:0.2;fill:#000000;stroke-width:1.49997"
       id="path1585" />
    <path
       d="m 36.90951,30.22931 c -1.43744,1.41427 -3.66723,1.74997 -5.44185,1.75869 -5.54496,0 -10.37513,-4.26366 -10.37513,-9.15761 0.014,-1.33661 0.75104,-2.56079 1.92526,-3.19976 -5.0153,0.2109 -6.30428,5.43642 -6.30428,8.49792 0,8.6561 7.97878,9.53366 9.69783,9.53366 0.92688,0 2.32484,-0.26948 3.16386,-0.53427 l 0.1536,-0.0516 c 3.2286,-1.116 5.98101,-3.29779 7.80421,-6.18627 0.26038,-0.4102 -0.1986,-0.89679 -0.6234,-0.66081 z"
       style="fill:#0e539b;stroke-width:1.49997"
       id="path1557" />
    <path
       d="m 21.77223,36.69033 c -1.04516,-0.64862 -1.95094,-1.49852 -2.66466,-2.50028 -3.46321,-4.74417 -1.35938,-11.46425 3.91022,-14.05971 0.3656,-0.17222 0.99016,-0.48389 1.82098,-0.46866 1.18657,0.009 2.30065,0.57232 3.01037,1.52314 0.4732,0.63173 0.7341,1.39709 0.74526,2.18628 0,-0.0246 2.86622,-9.32627 -9.37441,-9.32627 -5.14423,0 -9.37443,4.88106 -9.37443,9.16341 -0.0202,2.26531 0.46448,4.50668 1.41906,6.5612 3.2292,6.88904 11.10595,10.26886 18.32464,7.86289 -2.47122,0.77906 -5.60963,0.43651 -7.80647,-0.93731 z"
       style="opacity:0.2;fill:#000000;stroke-width:1.49997"
       id="path1613" />
    <path
       d="m 21.77223,36.19063 c -1.04516,-0.64862 -1.95094,-1.49852 -2.66466,-2.50029 -3.46321,-4.74417 -1.35938,-11.46424 3.91022,-14.05971 0.3656,-0.17224 0.99018,-0.48388 1.82098,-0.46865 1.18657,0.009 2.30065,0.57231 3.01037,1.52313 0.4732,0.63173 0.7341,1.3971 0.74526,2.18629 0,-0.0246 2.86622,-9.32628 -9.37441,-9.32628 -5.14423,0 -9.37443,4.88107 -9.37443,9.16342 -0.0202,2.26531 0.46448,4.50667 1.41906,6.5612 3.2292,6.88904 11.10595,10.26886 18.32464,7.86289 -2.47122,0.77905 -5.60963,0.4365 -7.80647,-0.93732 z"
       style="fill:#0b87da;stroke-width:1.49997"
       id="path1529" />
    <path
       d="m 27.68274,25.3957 c -0.095,0.12302 -0.3867,0.29291 -0.3867,0.66315 0,0.3058 0.1992,0.59988 0.5531,0.8471 1.68506,1.17164 4.86178,1.01698 4.86998,1.01698 1.2486,-0.003 2.47353,-0.34084 3.54707,-0.97832 2.20364,-1.28653 3.56056,-3.19444 3.56578,-5.7459 0.0304,-2.62564 -0.93742,-4.37139 -1.32882,-5.14468 C 36.02009,11.19758 30.66028,8.4043798 24.83173,8.4043798 16.62967,8.4035698 9.94802,14.99036 9.83268,23.19051 c 0.0562,-4.28118 4.31222,-8.03868 9.37441,-8.03868 0.41014,0 2.74904,0.0398 4.92156,1.17985 1.91473,1.00526 2.91781,2.51906 3.61503,3.72234 1.01336,1.91188 1.05698,3.88212 -0.0608,5.34168 z"
       style="opacity:0.2;fill:#000000;stroke-width:1.49997"
       id="path1501" />
    <path
       d="m 27.68274,24.89616 c -0.095,0.12302 -0.3867,0.29291 -0.3867,0.66315 0,0.3058 0.1992,0.59988 0.5531,0.8471 1.68504,1.17164 4.86178,1.01698 4.87,1.01698 1.24858,-0.003 2.47351,-0.34085 3.54705,-0.97832 2.20364,-1.28653 3.56056,-3.19445 3.56578,-5.7459 0.0304,-2.62565 -0.93742,-4.3714 -1.32882,-5.14468 C 36.02011,10.69803 30.66028,7.90484 24.83173,7.90484 16.62967,7.90403 9.94802,14.49081 9.83268,22.69096 c 0.0562,-4.28118 4.31222,-8.03867 9.37441,-8.03867 0.41014,0 2.74906,0.0398 4.92156,1.17984 1.91473,1.00527 2.91781,2.51907 3.61503,3.72235 1.01338,1.91188 1.057,3.88212 -0.0608,5.34168 z"
       style="fill:#17dcbe;stroke-width:1.49997"
       id="path1445" />
    <path
       id="path1473"
       style="opacity:0.2;fill:#ffffff;stroke-width:1.5"
       d="M 24.831703 7.9043798 C 16.629831 7.9035698 9.9489963 14.490837 9.8336564 22.691489 C 9.8339601 22.669853 9.8415607 22.646717 9.8531877 22.622153 C 10.261266 14.688427 16.820248 8.4035886 24.831703 8.4043798 C 30.660248 8.4043797 36.020542 11.197339 38.503578 16.053794 C 38.87513 16.78786 39.764393 18.40014 39.827797 20.8077 C 39.830963 20.772098 39.833656 20.736169 39.833656 20.699302 C 39.864056 18.073484 38.894958 16.3281 38.503578 15.55477 C 36.020141 10.698015 30.660087 7.9043798 24.831703 7.9043798 z M 9.9518205 22.034263 C 9.9166818 22.218193 9.8913682 22.404049 9.8717423 22.590903 C 9.8787095 22.57951 9.8833911 22.568734 9.8922502 22.556724 C 9.9078591 22.38141 9.9302432 22.20777 9.9518205 22.034263 z M 28.476235 22.818442 C 28.404035 23.572821 28.154545 24.281198 27.683266 24.896567 C 27.588266 25.019587 27.296547 25.19037 27.296547 25.56063 C 27.296547 25.645192 27.315951 25.728065 27.347328 25.809653 C 27.435009 25.604545 27.612865 25.486757 27.683266 25.395591 C 28.158411 24.775173 28.421699 24.062122 28.49186 23.300864 C 28.49544 23.188313 28.49611 23.075241 28.49186 22.96102 C 28.48786 22.91362 28.482235 22.866122 28.476235 22.818442 z " />
  </g>
  <path
     d="M 24,6.0000003 C 14.028011,6.0000003 6,14.028011 6,24 v 1 C 6,15.028011 14.028011,7 24,7 h 48 c 9.97199,0 18,8.028011 18,18 V 24 C 90,14.028011 81.97199,6.0000003 72,6.0000003 Z"
     style="opacity:0.2;fill:#ffffff;stroke-width:6;stroke-linecap:square"
     id="path1040" />
</svg>
