<?xml version="1.0" encoding="UTF-8" standalone="no"?>
<!-- Created with Inkscape (http://www.inkscape.org/) -->

<svg
   width="96"
   height="96"
   viewBox="0 0 96 96"
   version="1.1"
   id="svg5"
   inkscape:version="1.2.2 (1:1.2.2+202305151914+b0a8486541)"
   sodipodi:docname="ms-onedrive.svg"
   xmlns:inkscape="http://www.inkscape.org/namespaces/inkscape"
   xmlns:sodipodi="http://sodipodi.sourceforge.net/DTD/sodipodi-0.dtd"
   xmlns="http://www.w3.org/2000/svg"
   xmlns:svg="http://www.w3.org/2000/svg">
  <sodipodi:namedview
     id="namedview7"
     pagecolor="#ffffff"
     bordercolor="#000000"
     borderopacity="0.25"
     inkscape:showpageshadow="2"
     inkscape:pageopacity="0.0"
     inkscape:pagecheckerboard="0"
     inkscape:deskcolor="#d1d1d1"
     inkscape:document-units="px"
     showgrid="false"
     inkscape:zoom="8.3958333"
     inkscape:cx="47.940447"
     inkscape:cy="48"
     inkscape:window-width="1920"
     inkscape:window-height="1008"
     inkscape:window-x="0"
     inkscape:window-y="0"
     inkscape:window-maximized="1"
     inkscape:current-layer="svg5" />
  <defs
     id="defs2" />
  <rect
     style="opacity:0.2;fill:#000000;stroke-width:6;stroke-linecap:square"
     id="rect234"
     width="84"
     height="84"
     x="6"
     y="7"
     ry="18" />
  <rect
     style="fill:#efefef;fill-opacity:1;stroke-width:6;stroke-linecap:square"
     id="rect396"
     width="84"
     height="84"
     x="6"
     y="6"
     ry="18" />
  <path
     d="m 47.99991,28.999997 c -6.159997,0.006 -11.934696,2.998389 -15.492103,8.02731 -5.312401,0.1768 -10.134523,3.151789 -12.675734,7.820291 l -0.0274,0.008 C 18.652898,46.979031 18,49.414662 18,52.000112 c 0.0016,3.280988 1.071936,6.326257 2.878889,8.808568 0.455199,0.625319 0.958817,1.210176 1.503915,1.757794 l 0.0274,0.0274 c 0.546758,0.546498 1.131156,1.054076 1.757793,1.511714 0.0304,0.0222 0.0632,0.0404 0.0938,0.0624 0.371939,0.267399 0.755497,0.520658 1.152336,0.753917 0.0884,0.052 0.179999,0.0982 0.269539,0.148399 0.336839,0.1888 0.678537,0.36824 1.031236,0.531239 0.1332,0.0618 0.266919,0.121799 0.402339,0.179599 0.341478,0.145799 0.688617,0.277699 1.042956,0.398438 0.131599,0.045 0.261299,0.0914 0.394538,0.1328 0.374439,0.116 0.757658,0.209839 1.144536,0.296879 0.1282,0.0288 0.253339,0.0642 0.382819,0.0898 0.509518,0.100599 1.026916,0.182199 1.554674,0.230459 v 0.0704 h 16.36322 17.726496 0.273439 c 6.627396,0 11.999956,-5.37256 11.999956,-11.999956 0,-6.515296 -5.195521,-11.806797 -11.667918,-11.984336 C 64.082992,34.743056 56.572799,29.001197 47.99999,29.000057 Z"
     style="opacity:0.2;fill:#000000;stroke-width:1.99999"
     id="path5654" />
  <circle
     style="fill:#056ab6;fill-opacity:1;stroke-width:9.82136;stroke-linecap:round;stroke-linejoin:round"
     id="path5310"
     cx="48.00005"
     cy="46.999931"
     r="18.999931" />
  <path
     id="path5280"
     style="opacity:0.1;fill:#ffffff;fill-opacity:1;stroke-width:9.99996;stroke-linecap:round;stroke-linejoin:round"
     d="M 48.00011,28 A 18.999931,18.999971 0 0 0 29.00018,46.99993 18.999931,18.999971 0 0 0 29.03538,47.496029 18.999931,18.999971 0 0 1 48.00011,28.999996 18.999931,18.999971 0 0 1 66.980501,47.25775 18.999931,18.999971 0 0 0 67.000041,46.99993 18.999931,18.999971 0 0 0 48.00011,28 Z" />
  <path
     d="m 66.000045,41.999869 c -1.697914,0.0842 -3.171469,0.398958 -4.558584,0.906256 l -0.004,0.004 c -4.444743,1.853534 -9.061947,3.781787 -13.074172,5.457 l -27.48418,11.441279 c 2.462991,3.383507 6.304157,5.7145 10.757781,6.121057 v 0.0704 h 34.089716 0.273439 c 6.627396,0 11.999956,-5.37256 11.999956,-11.999956 0,-6.627396 -5.37256,-11.999956 -11.999956,-11.999956 z"
     style="fill:#138fe6;stroke-width:1.99999"
     id="path5542"
     sodipodi:nodetypes="scccccccssss" />
  <path
     d="m 33.000125,35.999971 c -5.4956,0.006 -10.547601,3.017989 -13.167552,7.848872 l -0.0266,0.008 c -1.151795,2.123412 -1.805753,4.557623 -1.805753,7.143074 0.004,7.753132 5.915278,14.225867 13.63631,14.930704 v 0.0692 h 1.363635 32.727141 c 4.536283,-0.004 8.700808,-2.508551 10.82912,-6.514535 L 55.510723,46.940951 40.393558,37.930844 l -0.048,0.014 c -2.241031,-1.267796 -4.770682,-1.937392 -7.345473,-1.944313 z"
     style="fill:#1581d9;stroke-width:1.99999"
     id="path5458"
     sodipodi:nodetypes="cccccccccccccc" />
  <path
     d="m 53.972709,46.023534 c -1.883054,0.786137 -3.887686,1.624894 -5.60936,2.343731 l -27.48428,11.441379 c 0.917637,1.260595 2.028413,2.373552 3.289028,3.296848 0.0304,0.0222 0.0632,0.0404 0.0938,0.0624 0.371859,0.268079 0.755557,0.520059 1.152336,0.753918 0.0884,0.052 0.179999,0.0982 0.269539,0.148399 0.335999,0.188799 0.679437,0.368139 1.031236,0.531238 0.1332,0.0616 0.267019,0.122 0.402339,0.1796 0.341278,0.145999 0.688717,0.277439 1.042996,0.398438 0.131599,0.0448 0.261279,0.0916 0.394518,0.1328 0.373999,0.116199 0.757978,0.20972 1.144536,0.296879 0.128,0.0288 0.253479,0.0644 0.382819,0.0898 0.509118,0.100801 1.027076,0.1822 1.554674,0.230459 v 0.0704 h 1.363275 32.726441 c 4.536263,-0.004 8.699748,-2.509611 10.82808,-6.515596 L 55.511803,46.941291 Z"
     style="fill:#38afec;stroke-width:1.99999"
     id="path5626" />
  <path
     id="path5486"
     style="opacity:0.1;fill:#ffffff;stroke-width:1.99999"
     d="m 33.000165,35.999971 c -5.4956,0.006 -10.547981,3.016749 -13.167912,7.847631 l -0.0274,0.008 c -1.151755,2.123212 -1.804633,4.558863 -1.804633,7.144314 10e-5,0.201679 0.004,0.401698 0.012,0.601558 0.0638,-2.436192 0.700877,-4.732704 1.792953,-6.746077 l 0.0274,-0.008 c 2.619931,-4.830882 7.672312,-7.841631 13.167912,-7.847631 2.574771,0.006 5.102702,0.677517 7.343733,1.945313 l 0.0508,-0.016 15.117125,9.011687 20.613205,12.289015 c 0.151199,-0.242199 0.294419,-0.491498 0.429678,-0.746077 L 55.512143,46.940771 40.395018,37.929085 l -0.0508,0.016 c -2.241351,-1.267597 -4.769262,-1.938193 -7.344053,-1.945114 z" />
  <path
     id="path5570"
     style="opacity:0.2;fill:#ffffff;stroke-width:1.99999"
     d="m 66.000045,41.999949 c -1.697914,0.0842 -3.171469,0.398958 -4.558584,0.906236 l -0.004,0.004 c -4.444743,1.853534 -9.061947,3.781787 -13.074172,5.457 l -27.48428,11.44138 c 0.188,0.258379 0.386019,0.508178 0.589858,0.753896 L 48.363289,49.367182 c 4.012225,-1.675213 8.629429,-3.603467 13.074172,-5.457 l 0.004,-0.004 c 1.387115,-0.507278 2.86067,-0.822037 4.558584,-0.906236 6.459616,0 11.725677,5.104841 11.988236,11.499958 0.006,-0.165999 0.012,-0.33222 0.012,-0.499998 0,-6.627396 -5.37256,-11.999956 -11.999956,-11.999956 z" />
  <path
     id="path1040"
     style="opacity:0.2;fill:#ffffff;stroke-width:6;stroke-linecap:square"
     d="M 24,6 C 14.02803,6 6,14.02803 6,24 v 1 C 6,15.02801 14.02801,7 24,7 h 48 c 9.97199,0 18,8.02801 18,18 V 24 C 90,14.02803 81.971968,6 72,6 Z" />
</svg>
