<?xml version="1.0" encoding="UTF-8" standalone="no"?>
<!-- Created with Inkscape (http://www.inkscape.org/) -->

<svg
   width="96"
   height="96"
   viewBox="0 0 96 96"
   version="1.1"
   id="svg5"
   inkscape:version="1.3 (1:1.3+202307231459+0e150ed6c4)"
   sodipodi:docname="ms-word.svg"
   xmlns:inkscape="http://www.inkscape.org/namespaces/inkscape"
   xmlns:sodipodi="http://sodipodi.sourceforge.net/DTD/sodipodi-0.dtd"
   xmlns="http://www.w3.org/2000/svg"
   xmlns:svg="http://www.w3.org/2000/svg">
  <sodipodi:namedview
     id="namedview7"
     pagecolor="#ffffff"
     bordercolor="#000000"
     borderopacity="0.25"
     inkscape:showpageshadow="2"
     inkscape:pageopacity="0.0"
     inkscape:pagecheckerboard="0"
     inkscape:deskcolor="#d1d1d1"
     inkscape:document-units="px"
     showgrid="false"
     inkscape:zoom="7.4791667"
     inkscape:cx="48"
     inkscape:cy="47.933148"
     inkscape:window-width="1920"
     inkscape:window-height="1008"
     inkscape:window-x="0"
     inkscape:window-y="0"
     inkscape:window-maximized="1"
     inkscape:current-layer="svg5" />
  <defs
     id="defs2" />
  <rect
     style="opacity:0.2;fill:#000000;stroke-width:6;stroke-linecap:square"
     id="rect234"
     width="84"
     height="84"
     x="6"
     y="7"
     ry="18" />
  <rect
     style="fill:#efefef;fill-opacity:1;stroke-width:6;stroke-linecap:square"
     id="rect396"
     width="84"
     height="84"
     x="6"
     y="6"
     ry="18" />
  <rect
     style="opacity:0.2;fill:#000000;stroke-width:1.5;stroke-linecap:round;stroke-linejoin:round"
     id="rect1604"
     width="50"
     height="59.999996"
     x="27"
     y="19"
     ry="2.9999998" />
  <path
     d="m 77,62.999997 v 12 c 0,1.662 -1.338,2.999999 -3,2.999999 H 30.000003 c -1.662,0 -3,-1.337999 -3,-2.999999 v -12 L 52,53.999998 Z"
     style="fill:#103f91;fill-opacity:1;stroke-width:1.5"
     id="path497"
     sodipodi:nodetypes="cssssccc" />
  <path
     d="m 52,24 25,8.999999 V 49.499998 H 27.000003 V 32.999999 Z"
     style="fill:#2b7cd3;fill-opacity:1;stroke-width:1.5"
     id="path441"
     sodipodi:nodetypes="cccccc" />
  <path
     id="path364"
     style="fill:#41a5ee;fill-opacity:1;stroke-width:1.5"
     d="m 30.000003,18 c -1.661999,0 -3,1.338001 -3,3 V 32.999999 H 77 V 21 c 0,-1.661999 -1.338001,-3 -3,-3 z"
     sodipodi:nodetypes="ssccsss" />
  <path
     d="M 27.000003,47.999998 H 77 V 62.999997 H 27.000003 Z"
     style="fill:#1650a7;fill-opacity:1;stroke-width:1.5"
     id="path469"
     sodipodi:nodetypes="ccccc" />
  <path
     d="M 27.000003,62.999997 H 77 v 1.000002 H 27.000003 Z m 0,-29.999998 H 77 v 1.000002 H 27.000003 Z m 0,14.999999 H 77 V 49 H 27.000003 Z"
     style="opacity:0.1;fill:#000000;stroke-width:1.5"
     id="path525"
     sodipodi:nodetypes="ccccccccccccccc" />
  <path
     id="path553"
     style="opacity:0.1;fill:#ffffff;stroke-width:1.5"
     d="m 30,18 c -1.661998,0 -3,1.338002 -3,3 v 1 c 0,-1.661998 1.338002,-3 3,-3 h 44 c 1.661998,0 3,1.338002 3,3 v -1 c 0,-1.661998 -1.338002,-3 -3,-3 z"
     sodipodi:nodetypes="sscsscsss" />
  <rect
     style="opacity:0.2;fill:#000000;stroke-width:1.5;stroke-linecap:round;stroke-linejoin:round"
     id="rect625"
     width="32"
     height="32"
     x="12"
     y="33"
     ry="3" />
  <rect
     style="fill:#185abd;fill-opacity:1;stroke-width:1.5;stroke-linecap:round;stroke-linejoin:round"
     id="rect627"
     width="32"
     height="32"
     x="12"
     y="32"
     ry="3" />
  <path
     style="fill:#ffffff;stroke-width:2"
     d="M 35.8,58 H 32.2 L 28,44.2 23.6,58 H 20 L 16,38 h 3.6 l 2.8,14 4.2,-14 h 3 l 4,14 2.8,-14 h 3.4 z"
     id="path5910"
     sodipodi:nodetypes="cccccccccccccc" />
  <path
     id="path1040"
     style="opacity:0.2;fill:#ffffff;stroke-width:6;stroke-linecap:square"
     d="M 24,6 C 14.02803,6 6,14.02803 6,24 v 1 C 6,15.02801 14.02801,7 24,7 h 48 c 9.97199,0 18,8.02801 18,18 V 24 C 90,14.02803 81.971968,6 72,6 Z" />
</svg>
