<?xml version="1.0" encoding="UTF-8" standalone="no"?>
<!-- Created with Inkscape (http://www.inkscape.org/) -->

<svg
   width="96"
   height="96"
   viewBox="0 0 96 96"
   version="1.1"
   id="svg5"
   inkscape:version="1.3.2 (091e20ef0f, 2023-11-25, custom)"
   sodipodi:docname="multimedia-photo-viewer.svg"
   xmlns:inkscape="http://www.inkscape.org/namespaces/inkscape"
   xmlns:sodipodi="http://sodipodi.sourceforge.net/DTD/sodipodi-0.dtd"
   xmlns="http://www.w3.org/2000/svg"
   xmlns:svg="http://www.w3.org/2000/svg">
  <sodipodi:namedview
     id="namedview7"
     pagecolor="#ffffff"
     bordercolor="#000000"
     borderopacity="0.25"
     inkscape:showpageshadow="2"
     inkscape:pageopacity="0.0"
     inkscape:pagecheckerboard="0"
     inkscape:deskcolor="#d1d1d1"
     inkscape:document-units="px"
     showgrid="false"
     inkscape:zoom="8.5625"
     inkscape:cx="48"
     inkscape:cy="48"
     inkscape:window-width="1920"
     inkscape:window-height="1008"
     inkscape:window-x="0"
     inkscape:window-y="0"
     inkscape:window-maximized="1"
     inkscape:current-layer="svg5" />
  <defs
     id="defs2" />
  <rect
     style="opacity:0.2;fill:#000000;stroke-width:6;stroke-linecap:square"
     id="rect234"
     width="84"
     height="84"
     x="6"
     y="7"
     ry="18" />
  <rect
     style="fill:#23b1ff;fill-opacity:1;stroke-width:6;stroke-linecap:square"
     id="rect396"
     width="84"
     height="84"
     x="6"
     y="6"
     ry="18" />
  <path
     id="path2"
     style="fill:#0c7d40;stroke-width:3"
     d="M 21.544922,54 6.5917968,76.517577 C 8.58944,84.284385 15.592608,90 24,90 h 21.181641 z" />
  <path
     id="path3"
     style="fill:#0c9950;stroke-width:3"
     d="M 52.201173,41.402343 21.158203,89.753907 C 22.085482,89.900118 23.030368,90 24,90 h 48 c 3.544638,0 6.835098,-1.027755 9.615234,-2.783202 z" />
  <path
     id="path4"
     style="opacity:0.2;fill:#000000;stroke-width:3"
     d="M 64.5,31 A 10.5,10.5 0 0 0 54.09375,40.175782 7.5,7.5 0 0 0 52.5,40 7.5,7.5 0 0 0 45,47.5 7.5,7.5 0 0 0 52.5,55 H 75 A 6,6 0 0 0 81,49 6,6 0 0 0 75,43 6,6 0 0 0 74.89452,43.006 10.5,10.5 0 0 0 75,41.5 10.5,10.5 0 0 0 64.5,31 Z" />
  <path
     style="opacity:0.2;stroke-width:3"
     d="m 27,19 c 6.627395,0 11.999999,5.372602 11.999999,12.000003 C 38.999999,37.627399 33.627395,43 27,43 20.3726,43 15,37.627399 15,31.000003 15,24.372602 20.3726,19 27,19 Z"
     id="path5" />
  <path
     style="fill:#ffdd32;stroke-width:3"
     d="m 27,18 c 6.627395,0 11.999999,5.372602 11.999999,12.000003 C 38.999999,36.627399 33.627395,42 27,42 20.3726,42 15,36.627399 15,30.000003 15,23.372602 20.3726,18 27,18 Z"
     id="path6" />
  <path
     id="path7"
     style="opacity:1;fill:#ffffff;stroke-width:3"
     d="M 64.5,30 A 10.5,10.5 0 0 0 54.09375,39.175782 7.5,7.5 0 0 0 52.5,39 7.5,7.5 0 0 0 45,46.5 7.5,7.5 0 0 0 52.5,54 H 75 A 6,6 0 0 0 81,48 6,6 0 0 0 75,42 6,6 0 0 0 74.89452,42.006 10.5,10.5 0 0 0 75,40.5 10.5,10.5 0 0 0 64.5,30 Z" />
  <path
     id="path9"
     style="opacity:0.2;fill:#ffffff;stroke-width:3"
     d="M 27 18 C 20.372607 18 15 23.372606 15 30 C 15 30.138694 15.010254 30.274785 15.015625 30.412109 C 15.322422 24.058017 20.569888 19 27 19 C 33.430107 19 38.677578 24.058017 38.984375 30.412109 C 38.989746 30.274785 39 30.138694 39 30 C 39 23.372606 33.627388 18 27 18 z " />
  <g
     id="g361"
     transform="matrix(1.4999913,0,0,1.4999913,1.048e-4,1.048e-4)" />
  <path
     id="path1040"
     style="opacity:0.2;fill:#ffffff;stroke-width:6;stroke-linecap:square"
     d="M 24 6 C 14.02802 6 6 14.028021 6 24 L 6 25 C 6 15.028021 14.02802 7 24 7 L 72 7 C 81.971978 7 90 15.028021 90 25 L 90 24 C 90 14.028021 81.971978 6 72 6 L 24 6 z " />
</svg>
