<?xml version="1.0" encoding="UTF-8" standalone="no"?>
<!-- Created with Inkscape (http://www.inkscape.org/) -->

<svg
   width="96"
   height="96"
   viewBox="0 0 96 96"
   version="1.1"
   id="svg5"
   inkscape:version="1.3 (1:1.3+202307231459+0e150ed6c4)"
   sodipodi:docname="nvidia.svg"
   xmlns:inkscape="http://www.inkscape.org/namespaces/inkscape"
   xmlns:sodipodi="http://sodipodi.sourceforge.net/DTD/sodipodi-0.dtd"
   xmlns="http://www.w3.org/2000/svg"
   xmlns:svg="http://www.w3.org/2000/svg">
  <sodipodi:namedview
     id="namedview7"
     pagecolor="#ffffff"
     bordercolor="#000000"
     borderopacity="0.25"
     inkscape:showpageshadow="2"
     inkscape:pageopacity="0.0"
     inkscape:pagecheckerboard="0"
     inkscape:deskcolor="#d1d1d1"
     inkscape:document-units="px"
     showgrid="false"
     inkscape:zoom="7.4791667"
     inkscape:cx="48"
     inkscape:cy="47.933148"
     inkscape:window-width="1920"
     inkscape:window-height="1008"
     inkscape:window-x="0"
     inkscape:window-y="0"
     inkscape:window-maximized="1"
     inkscape:current-layer="svg5" />
  <defs
     id="defs2" />
  <rect
     style="opacity:0.2;fill:#000000;stroke-width:6;stroke-linecap:square"
     id="rect234"
     width="84"
     height="84"
     x="6"
     y="7"
     ry="18" />
  <rect
     style="fill:#363636;fill-opacity:1;stroke-width:6;stroke-linecap:square"
     id="rect396"
     width="81"
     height="84"
     x="6"
     y="6"
     ry="18" />
  <path
     id="path1738"
     mask="none"
     style="color:#bebebe;display:inline;overflow:visible;visibility:visible;fill:#55a626;fill-opacity:1;fill-rule:nonzero;stroke:none;stroke-width:0;marker:none;enable-background:accumulate"
     d="m 45,6 v 22.757811 c 0.2634,-0.009 0.524187,-0.0177 0.785157,-0.0177 17.115792,-0.1107 28.21875,14.437497 28.21875,14.437497 0,0 -13.158999,15.984375 -26.865234,15.984375 -0.74181,0 -1.451703,-0.03258 -2.138673,-0.10548 v 4.207032 c 0.50361,0.033 1.020765,0.04689 1.546875,0.04689 12.754548,0 21.98268,-6.505422 30.914061,-14.214846 1.4808,1.18596 7.542864,4.063173 8.789064,5.326173 -8.492031,7.109754 -28.289478,12.837891 -39.509766,12.837891 -0.5934,0 -1.169874,-0.0201 -1.740234,-0.05274 V 90 h 27 c 9.971991,0 18,-8.028009 18,-18 V 24 C 90,14.028009 81.971991,6 72,6 Z m 0,61.207032 v -3.943359 c -0.4746,-0.0312 -0.813234,-0.08271 -1.271484,-0.14061 C 28.119891,61.159413 22.78125,43.962906 22.78125,43.962906 c 0,0 6.986598,-10.323375 20.947266,-11.390625 0.44928,-0.0312 0.809154,-0.05592 1.271484,-0.07032 v 4.582032 c 0.37728,-0.024 0.879924,-0.04101 1.271484,-0.04101 8.097771,0 12.902343,6.304689 12.902343,6.304689 l -6.585936,5.554686 C 49.934094,44.478429 48.742467,42.27549 45,41.4375 v 14.144532 c 0.73299,0.1473 1.634628,0.24024 2.466798,0.24024 9.604938,0 18.5625,-12.451173 18.5625,-12.451173 0,0 -8.40588,-11.25171 -21.029298,-10.875 v -3.732426 c -0.45642,0.015 -0.817554,0.03552 -1.271484,0.07032 -15.463215,1.24185 -28.857423,14.343747 -28.857423,14.343747 0,0 7.587834,21.928098 28.857423,23.935548 0.4608,0.0444 0.802254,0.06795 1.271484,0.09375 z m 0,-11.625 c -0.48459,-0.0972 -0.827544,-0.21405 -1.271484,-0.363282 -6.650514,-2.234547 -8.8125,-10.001952 -8.8125,-10.001952 0,0 3.851727,-4.617891 8.789061,-4.025391 h 0.0234 C 44.235846,41.252607 44.56986,41.3412 45,41.4375 v -4.353516 c -0.47085,0.027 -0.812304,0.07386 -1.271484,0.12306 -9.407031,1.017537 -15.070314,7.289061 -15.070314,7.289061 0,0 3.273666,12.264069 15.070314,14.367189 0.45228,0.0801 0.795144,0.14265 1.271484,0.19335 z" />
  <path
     id="path1040"
     style="opacity:0.1;fill:#ffffff;stroke-width:6;stroke-linecap:square"
     d="M 24 6 C 14.02804 6 6 14.02804 6 24 L 6 25 C 6 15.02801 14.02801 7 24 7 L 45 7 L 45 6 L 24 6 z " />
  <path
     id="path1040-7"
     style="opacity:0.2;fill:#ffffff;stroke-width:6;stroke-linecap:square"
     d="M 45 6 L 45 7 L 72 7 C 81.97199 7 90 15.02801 90 25 L 90 24 C 90 14.02804 81.97196 6 72 6 L 45 6 z " />
</svg>
