<?xml version="1.0" encoding="UTF-8" standalone="no"?>
<!-- Created with Inkscape (http://www.inkscape.org/) -->

<svg
   width="96"
   height="96"
   viewBox="0 0 96 96"
   version="1.1"
   id="svg5"
   inkscape:version="1.3 (0e150ed6c4, 2023-07-21)"
   sodipodi:docname="org.gnome.font-viewer.svg"
   xmlns:inkscape="http://www.inkscape.org/namespaces/inkscape"
   xmlns:sodipodi="http://sodipodi.sourceforge.net/DTD/sodipodi-0.dtd"
   xmlns="http://www.w3.org/2000/svg"
   xmlns:svg="http://www.w3.org/2000/svg">
  <sodipodi:namedview
     id="namedview7"
     pagecolor="#ffffff"
     bordercolor="#000000"
     borderopacity="0.25"
     inkscape:showpageshadow="2"
     inkscape:pageopacity="0.0"
     inkscape:pagecheckerboard="0"
     inkscape:deskcolor="#d1d1d1"
     inkscape:document-units="px"
     showgrid="false"
     inkscape:zoom="8.15625"
     inkscape:cx="47.938697"
     inkscape:cy="48"
     inkscape:window-width="1920"
     inkscape:window-height="984"
     inkscape:window-x="0"
     inkscape:window-y="29"
     inkscape:window-maximized="1"
     inkscape:current-layer="svg5" />
  <defs
     id="defs2" />
  <rect
     style="opacity:0.2;fill:#000000;stroke-width:6;stroke-linecap:square"
     id="rect234"
     width="84"
     height="84"
     x="6"
     y="7"
     ry="18" />
  <rect
     style="fill:#a448ba;fill-opacity:1;stroke-width:6;stroke-linecap:square"
     id="rect396"
     width="84"
     height="84"
     x="6"
     y="6"
     ry="18" />
  <path
     id="path907"
     style="opacity:0.3;fill:#000000;stroke-width:3"
     d="M 24,90 C 14.028009,90 6,81.971991 6,72 V 24 C 6,14.02801 14.028009,6 24,6 Z"
     sodipodi:nodetypes="csscc" />
  <path
     id="path2"
     style="font-weight:bold;font-size:322.102px;line-height:1.25;font-family:Montserrat;letter-spacing:0px;word-spacing:0px;opacity:0.2;fill:#000000;stroke-width:0.115937"
     d="m 39.874325,24 c -4.155288,0 -7.423827,2.189013 -7.423827,5.003907 0,1.027656 0.83751,1.921875 1.898436,1.921875 1.060923,0 1.992189,-0.892017 1.992189,-1.875 0,-0.17871 -0.04374,-0.402081 -0.0879,-0.714843 -0.08841,-0.402126 -0.13476,-0.759498 -0.13476,-1.072266 0,-1.206387 1.413426,-2.191407 3.181641,-2.191407 2.166045,0 3.714843,1.296216 3.714843,3.708984 v 3.550782 c -6.088194,1.816311 -7.913634,2.304081 -9.814452,4.001952 -0.972537,0.893607 -1.59375,2.410299 -1.59375,3.884766 0,2.814891 1.949973,4.78125 4.646484,4.78125 1.945029,0 4.112079,-0.940266 6.808593,-3.263673 C 43.282853,44.10441 44.483786,45 46.2962,45 c 1.502973,0 2.431338,-0.534549 3.978516,-2.232423 v -1.166013 c -0.751485,0.625524 -1.282233,0.849609 -1.945314,0.849609 -1.016718,0 -1.324218,-0.623889 -1.324218,-2.589846 v -8.712891 c 0,-2.323404 -0.2217,-3.621018 -0.884766,-4.693359 C 45.147911,24.846567 42.482426,24 39.874325,24 Z m 29.636718,0 c -3.272751,0 -6.58482,0.845667 -8.830077,2.384766 L 62.813777,30.375 c 1.484154,-1.136004 3.731244,-1.828125 5.900391,-1.828125 3.196638,0 4.98633,2.337747 4.98633,4.792968 l -5.912109,-0.0294 c -6.240984,-0.0282 -8.789064,2.331303 -8.789064,5.812605 0,3.407997 2.605431,5.876952 7.400391,5.876952 3.00636,0 6.197181,-0.858681 7.300782,-2.654298 v 2.431641 h 6.298827 V 32.941407 C 79.998971,26.968248 75.752099,24 69.511043,24 Z M 43.01495,33.404298 v 5.654295 c 0,1.34043 -0.22011,1.831029 -1.148439,2.367189 -1.105131,0.625542 -2.651769,0.984375 -3.580077,0.984375 -1.547187,0 -2.789061,-1.518171 -2.789061,-3.439455 v -0.18165 c 0.04425,-2.680854 2.345571,-3.552858 7.517577,-5.384766 z m 24.925782,3.550779 c 0.159,-0.0039 0.324423,-0.0011 0.498045,0 l 5.261721,0.0234 v 1.136718 C 73.700852,40.028166 70.112963,41.25 68.134091,41.25 c -2.093034,0 -3.351564,-0.955599 -3.351564,-2.384766 0,-1.236765 0.7731,-1.852323 3.158205,-1.910157 z M 34.044248,54 c -2.403507,-0.03339 -2.403507,3.525582 0,3.492186 h 8.777343 c 0.0099,8.73e-4 0.25461,0.0261 0.521484,0.16992 0.27219,0.14658 0.434958,0.16452 0.480468,0.820314 l 0.21681,5.220702 c -0.409383,-0.15405 -0.685548,-0.22266 -0.685548,-0.22266 l -0.21093,-0.04689 h -8.214846 c -3.850851,0 -5.238279,3.808596 -5.238279,3.808593 l -0.09375,0.26952 v 1.33008 c 0,2.648361 1.273038,4.479762 2.613279,5.302734 1.340244,0.822969 2.71875,0.808593 2.71875,0.808593 h 6.75 l 3.011721,-1.921875 0.0177,0.28125 c 0.07971,2.388195 3.756063,2.175873 3.550782,-0.20508 L 47.368607,58.253871 v -0.006 C 47.243477,56.444655 46.07228,55.151637 45.054152,54.603339 44.03603,54.055047 43.044389,54.005682 43.044389,54.005682 L 42.985652,54 Z m 36.410154,0 c -0.674388,0.0141 -1.497519,0.27378 -2.460936,0.779298 -1.101042,0.577716 -2.213205,1.446129 -3.345705,2.601561 -1.1325,1.123338 -2.188848,2.485083 -3.164061,4.089843 -0.943752,1.604769 -1.6338,3.385941 -2.074218,5.34375 -0.346038,1.44429 -0.475233,2.696712 -0.380859,3.755862 0.09438,1.027044 0.31605,1.880688 0.662109,2.554686 0.346044,0.641916 0.768147,1.10568 1.271484,1.394532 C 61.46555,74.840499 61.939766,75 62.380184,75 c 0.943752,-0.0642 1.886325,-0.27387 2.830077,-0.626952 0.817917,-0.320934 1.683411,-0.820137 2.595705,-1.494141 0.912294,-0.706104 1.746957,-1.698603 2.501952,-2.982423 -0.03132,0.866574 0.015,1.590261 0.14061,2.167968 0.15729,0.577716 0.317337,1.041459 0.474609,1.394532 0.18873,0.41724 0.420006,0.736263 0.703125,0.960939 0.28314,0.1926 0.618594,0.322539 0.996096,0.386718 0.377496,0.09627 0.768771,0.13173 1.177734,0.0996 0.440409,-0.03201 0.86253,-0.11772 1.271484,-0.24609 0.408963,-0.12837 0.775263,-0.28788 1.089843,-0.480471 0.471882,-0.320931 1.054008,-0.86448 1.746093,-1.634763 0.723543,-0.802377 1.444416,-1.670787 2.167971,-2.601564 0.754995,-0.962859 1.475886,-1.905177 2.167968,-2.835936 0.692079,-0.962856 1.2588,-1.766304 1.699218,-2.408205 0.377523,-0.513525 0.599202,-0.962502 0.662109,-1.347654 0.09435,-0.385134 0.0789,-0.674619 -0.04689,-0.867189 -0.12582,-0.19254 -0.316695,-0.25752 -0.568359,-0.19335 -0.25167,0.03201 -0.498324,0.19164 -0.75,0.480468 -0.18873,0.25677 -0.5088,0.65556 -0.949218,1.201173 -0.408966,0.545631 -0.877317,1.174758 -1.412109,1.880859 -0.534795,0.706092 -1.116924,1.444554 -1.746093,2.214843 -0.597708,0.738183 -1.179855,1.426461 -1.746096,2.068359 -0.566253,0.609816 -1.102128,1.123785 -1.605468,1.541016 -0.503325,0.385149 -0.910023,0.580077 -1.224609,0.58008 -0.377502,0 -0.676278,-0.07974 -0.896484,-0.24024 -0.18873,-0.19257 -0.333342,-0.437697 -0.427734,-0.726561 -0.09438,-0.28887 -0.15606,-0.593118 -0.1875,-0.914064 0,-0.353058 0.0156,-0.672075 0.04689,-0.960936 0.09438,-0.481425 0.17151,-0.886071 0.23439,-1.207032 0.06297,-0.320934 0.11505,-0.589791 0.14649,-0.814452 0.06297,-0.25677 0.10914,-0.496035 0.14061,-0.720705 0.06285,-0.25677 0.12459,-0.531459 0.1875,-0.820311 0.314568,-1.47639 0.567108,-2.678607 0.755859,-3.609375 0.18873,-0.930762 0.327492,-1.669224 0.421875,-2.214843 0.09438,-0.545613 0.14061,-0.914853 0.14061,-1.107423 0,-0.2247 -0.0156,-0.369423 -0.04689,-0.433593 -0.06297,-0.03201 -0.18624,-0.04689 -0.375,-0.04689 -0.15729,0 -0.394389,0.0147 -0.708984,0.04689 -0.28314,0.03201 -0.643566,0.09705 -1.083984,0.19335 0.660633,-1.027056 0.913149,-1.845264 0.755859,-2.455077 -0.12582,-0.641904 -0.409191,-1.126314 -0.849609,-1.447266 -0.534792,-0.35304 -1.230705,-0.607107 -2.08008,-0.76758 -0.09045,-0.0081 -0.17904,-0.0138 -0.2754,-0.0117 z m -0.832029,3.023436 c 0.11994,0.0066 0.21819,0.04503 0.304686,0.11718 0.09435,0.1284 0.16188,0.30267 0.19335,0.527343 0.03132,0.19257 0.0162,0.467259 -0.04689,0.820314 -0.03135,0.320934 -0.17607,0.734514 -0.427734,1.248045 0.25167,-0.06414 0.504192,-0.10854 0.755859,-0.14061 0.25167,-0.03201 0.457941,-0.08226 0.615234,-0.14649 0.18873,-0.06414 0.358332,-0.11433 0.515625,-0.14649 0.12582,-0.03201 0.14124,0.22782 0.04689,0.773439 -0.06291,0.513528 -0.17088,1.172223 -0.328125,1.974609 -0.15729,0.802392 -0.34815,1.63539 -0.568359,2.501952 -0.22023,0.866577 -0.40521,1.619808 -0.5625,2.261718 -0.03132,0.16047 -0.1761,0.420381 -0.427734,0.773439 -0.22023,0.353049 -0.518979,0.737061 -0.896484,1.154295 -0.346038,0.41724 -0.752727,0.816033 -1.224609,1.201173 -0.440415,0.385146 -0.899223,0.71004 -1.371093,0.966798 -0.440418,0.22467 -0.877947,0.348732 -1.318359,0.380859 -0.440418,0 -0.837555,-0.17433 -1.183596,-0.527343 -0.18873,-0.1926 -0.312063,-0.591357 -0.375,-1.201173 -0.06291,-0.641907 -0.04749,-1.380381 0.04689,-2.214843 0.12582,-0.834486 0.332094,-1.71768 0.615234,-2.648439 0.28314,-0.962856 0.658983,-1.860843 1.130859,-2.695311 1.1325,-2.022021 2.121333,-3.404382 2.970705,-4.14258 0.660627,-0.577707 1.175355,-0.855933 1.535157,-0.837891 z m -34.693362,9.902346 h 7.681641 c 0.09501,0.0273 0.470925,0.1182 0.925782,0.416016 0.496329,0.324975 0.776172,0.602073 0.791016,1.183593 l 0.12306,0.492186 -3.826173,2.443359 h -5.695314 c 0,0 -0.394953,-0.0129 -0.832029,-0.28125 -0.437073,-0.26838 -0.943359,-0.620814 -0.943359,-2.337888 v -0.667971 c 0.09138,-0.26628 0.473289,-1.248045 1.775388,-1.248045 z" />
  <path
     id="path6"
     style="font-weight:bold;font-size:322.102px;line-height:1.25;font-family:Montserrat;letter-spacing:0px;word-spacing:0px;fill:#ffffff;stroke-width:0.115937"
     d="m 39.877325,23 c -4.155288,0 -7.423827,2.189013 -7.423827,5.003907 0,1.027659 0.83751,1.921875 1.898436,1.921875 1.060923,0 1.992189,-0.892017 1.992189,-1.875 0,-0.17871 -0.04374,-0.402081 -0.0879,-0.714843 -0.08841,-0.402126 -0.13476,-0.759498 -0.13476,-1.072266 0,-1.206387 1.413426,-2.191407 3.181641,-2.191407 2.166045,0 3.714843,1.296216 3.714843,3.708984 v 3.550782 c -6.088194,1.816311 -7.913634,2.304081 -9.814452,4.001952 -0.972537,0.893607 -1.59375,2.410299 -1.59375,3.884766 0,2.814891 1.949973,4.78125 4.646484,4.78125 1.945029,0 4.112079,-0.940266 6.808593,-3.263673 C 43.285853,43.10441 44.486786,44 46.2992,44 c 1.502973,0 2.431338,-0.534549 3.978516,-2.232423 v -1.166013 c -0.751485,0.625524 -1.282233,0.849609 -1.945314,0.849609 -1.016718,0 -1.324218,-0.623889 -1.324218,-2.589846 v -8.712888 c 0,-2.323407 -0.2217,-3.621021 -0.884766,-4.693362 C 45.150911,23.846567 42.485426,23 39.877325,23 Z m 29.636718,0 c -3.272751,0 -6.58482,0.845667 -8.830077,2.384766 L 62.816777,29.375 c 1.484154,-1.136004 3.731244,-1.828125 5.900391,-1.828125 3.196638,0 4.98633,2.33775 4.98633,4.792968 l -5.912109,-0.0294 c -6.240984,-0.0282 -8.789064,2.331303 -8.789064,5.812605 0,3.407997 2.605431,5.876952 7.400391,5.876952 3.00636,0 6.197181,-0.858681 7.300782,-2.654298 v 2.431641 h 6.298827 V 31.941407 C 80.001971,25.968248 75.755099,23 69.514043,23 Z M 43.01795,32.404298 v 5.654295 c 0,1.34043 -0.22011,1.831029 -1.148439,2.367189 -1.105131,0.625542 -2.651769,0.984375 -3.580077,0.984375 -1.547187,0 -2.789061,-1.518171 -2.789061,-3.439455 v -0.18165 c 0.04425,-2.680854 2.345571,-3.552858 7.517577,-5.384766 z m 24.925782,3.550779 c 0.159,-0.0039 0.324423,-0.0011 0.498045,0 l 5.261721,0.0234 v 1.136718 C 73.703852,39.028166 70.115963,40.25 68.137091,40.25 c -2.093034,0 -3.351564,-0.955599 -3.351564,-2.384766 0,-1.236765 0.7731,-1.852323 3.158205,-1.910157 z M 34.047248,53 c -2.403507,-0.03339 -2.403507,3.525582 0,3.492186 h 8.777343 c 0.0099,8.73e-4 0.25461,0.0261 0.521484,0.16992 0.27219,0.14658 0.434958,0.16452 0.480468,0.820314 l 0.21681,5.220702 c -0.409383,-0.15405 -0.685548,-0.22266 -0.685548,-0.22266 l -0.21093,-0.04689 h -8.214846 c -3.850851,0 -5.238279,3.808596 -5.238279,3.808593 L 29.6,66.511685 v 1.33008 c 0,2.648361 1.273038,4.479762 2.613279,5.302734 1.340244,0.822969 2.71875,0.808593 2.71875,0.808593 h 6.75 l 3.011721,-1.921875 0.0177,0.28125 c 0.07971,2.388195 3.756063,2.175873 3.550782,-0.20508 L 47.371607,57.253871 v -0.006 C 47.246477,55.444655 46.07528,54.151637 45.057152,53.603339 44.03903,53.055047 43.047389,53.005682 43.047389,53.005682 L 42.988652,53 Z m 36.410154,0 c -0.674388,0.0141 -1.497519,0.27378 -2.460936,0.779298 -1.101042,0.577716 -2.213205,1.446129 -3.345705,2.601561 -1.1325,1.123338 -2.188848,2.485083 -3.164061,4.089843 -0.943752,1.604769 -1.6338,3.385941 -2.074218,5.34375 -0.346038,1.44429 -0.475233,2.696712 -0.380859,3.755862 0.09438,1.027044 0.31605,1.880688 0.662109,2.554686 0.346044,0.641916 0.768147,1.10568 1.271484,1.394532 C 61.46855,73.840499 61.942766,74 62.383184,74 c 0.943752,-0.0642 1.886325,-0.27387 2.830077,-0.626952 0.817917,-0.320934 1.683411,-0.820137 2.595705,-1.494141 0.912294,-0.706104 1.746957,-1.698603 2.501952,-2.982423 -0.03132,0.866574 0.015,1.590261 0.14061,2.167968 0.15729,0.577716 0.317337,1.041459 0.474609,1.394532 0.18873,0.41724 0.420006,0.736263 0.703125,0.960939 0.28314,0.1926 0.618594,0.322539 0.996096,0.386718 0.377496,0.09627 0.768771,0.13173 1.177734,0.0996 0.440409,-0.03201 0.86253,-0.11772 1.271484,-0.24609 0.408963,-0.12837 0.775263,-0.28788 1.089843,-0.480471 0.471882,-0.320931 1.054008,-0.86448 1.746093,-1.634763 0.723543,-0.802377 1.444416,-1.670787 2.167971,-2.601564 0.754995,-0.962859 1.475886,-1.905177 2.167968,-2.835936 0.692079,-0.962856 1.2588,-1.766304 1.699218,-2.408205 0.377523,-0.513525 0.599202,-0.962502 0.662109,-1.347654 0.09435,-0.385134 0.0789,-0.674619 -0.04689,-0.867189 -0.12582,-0.19254 -0.316695,-0.25752 -0.568359,-0.19335 -0.25167,0.03201 -0.498324,0.19164 -0.75,0.480468 -0.18873,0.25677 -0.5088,0.65556 -0.949218,1.201173 -0.408966,0.545631 -0.877317,1.174758 -1.412109,1.880859 -0.534795,0.706092 -1.116924,1.444554 -1.746093,2.214843 -0.597708,0.738183 -1.179855,1.426461 -1.746096,2.068359 -0.566253,0.609816 -1.102128,1.123785 -1.605468,1.541016 -0.503325,0.385149 -0.910023,0.580077 -1.224609,0.58008 -0.377502,0 -0.676278,-0.07974 -0.896484,-0.24024 -0.18873,-0.19257 -0.333342,-0.437697 -0.427734,-0.726561 -0.09438,-0.28887 -0.15606,-0.593118 -0.1875,-0.914064 0,-0.353058 0.0156,-0.672075 0.04689,-0.960936 0.09438,-0.481425 0.17151,-0.886071 0.23439,-1.207032 0.06297,-0.320934 0.11505,-0.589791 0.14649,-0.814452 0.06297,-0.25677 0.10914,-0.496035 0.14061,-0.720705 0.06285,-0.25677 0.12459,-0.531459 0.1875,-0.820311 0.314568,-1.47639 0.567108,-2.678607 0.755859,-3.609375 0.18873,-0.930762 0.327492,-1.669224 0.421875,-2.214843 0.09438,-0.545613 0.14061,-0.914853 0.14061,-1.107423 0,-0.2247 -0.0156,-0.369423 -0.04689,-0.433593 -0.06297,-0.03201 -0.18624,-0.04689 -0.375,-0.04689 -0.15729,0 -0.394389,0.0147 -0.708984,0.04689 -0.28314,0.03201 -0.643566,0.09705 -1.083984,0.19335 0.660633,-1.027056 0.913149,-1.845264 0.755859,-2.455077 -0.12582,-0.641904 -0.409191,-1.126314 -0.849609,-1.447266 -0.534792,-0.35304 -1.230705,-0.607107 -2.08008,-0.76758 -0.09045,-0.0081 -0.17904,-0.0138 -0.2754,-0.0117 z m -0.832029,3.023436 c 0.11994,0.0066 0.21819,0.04503 0.304686,0.11718 0.09435,0.1284 0.16188,0.30267 0.19335,0.527343 0.03132,0.19257 0.0162,0.467259 -0.04689,0.820314 -0.03135,0.320934 -0.17607,0.734514 -0.427734,1.248045 0.25167,-0.06414 0.504192,-0.10854 0.755859,-0.14061 0.25167,-0.03201 0.457941,-0.08226 0.615234,-0.14649 0.18873,-0.06414 0.358332,-0.11433 0.515625,-0.14649 0.12582,-0.03201 0.14124,0.22782 0.04689,0.773439 -0.06291,0.513528 -0.17088,1.172223 -0.328125,1.974609 -0.15729,0.802392 -0.34815,1.63539 -0.568359,2.501952 -0.22023,0.866577 -0.40521,1.619808 -0.5625,2.261718 -0.03132,0.16047 -0.1761,0.420381 -0.427734,0.773439 -0.22023,0.353049 -0.518979,0.737061 -0.896484,1.154295 -0.346038,0.41724 -0.752727,0.816033 -1.224609,1.201173 -0.440415,0.385146 -0.899223,0.71004 -1.371093,0.966798 -0.440418,0.22467 -0.877947,0.348732 -1.318359,0.380859 -0.440418,0 -0.837555,-0.17433 -1.183596,-0.527343 -0.18873,-0.1926 -0.312063,-0.591357 -0.375,-1.201173 -0.06291,-0.641907 -0.04749,-1.380381 0.04689,-2.214843 0.12582,-0.834486 0.332094,-1.71768 0.615234,-2.648439 0.28314,-0.962856 0.658983,-1.860843 1.130859,-2.695311 1.1325,-2.022021 2.121333,-3.404382 2.970705,-4.14258 0.660627,-0.577707 1.175355,-0.855933 1.535157,-0.837891 z m -34.693362,9.902346 h 7.681641 c 0.09501,0.0273 0.470925,0.1182 0.925782,0.416016 0.496329,0.324975 0.776172,0.602073 0.791016,1.183593 l 0.12306,0.492186 -3.826173,2.443359 h -5.695314 c 0,0 -0.394953,-0.0129 -0.832029,-0.28125 -0.437073,-0.26838 -0.943359,-0.620814 -0.943359,-2.337888 v -0.667971 c 0.09138,-0.26628 0.473289,-1.248045 1.775388,-1.248045 z" />
  <path
     id="path1040"
     style="opacity:0.1;fill:#ffffff;stroke-width:6;stroke-linecap:square"
     d="M 24 6 C 14.02802 6 6 14.028021 6 24 L 6 25 C 6 15.02802 14.02802 7 24 7 L 72 7 C 81.971978 7 90 15.02802 90 25 L 90 24 C 90 14.028021 81.971978 6 72 6 L 24 6 z " />
</svg>
