<?xml version="1.0" encoding="UTF-8" standalone="no"?>
<!-- Created with Inkscape (http://www.inkscape.org/) -->

<svg
   width="96"
   height="96"
   viewBox="0 0 96 96"
   version="1.1"
   id="svg5"
   inkscape:version="1.2.2 (1:1.2.2+202305151914+b0a8486541)"
   sodipodi:docname="org.gnome.Software.svg"
   xmlns:inkscape="http://www.inkscape.org/namespaces/inkscape"
   xmlns:sodipodi="http://sodipodi.sourceforge.net/DTD/sodipodi-0.dtd"
   xmlns="http://www.w3.org/2000/svg"
   xmlns:svg="http://www.w3.org/2000/svg">
  <sodipodi:namedview
     id="namedview7"
     pagecolor="#ffffff"
     bordercolor="#000000"
     borderopacity="0.25"
     inkscape:showpageshadow="2"
     inkscape:pageopacity="0.0"
     inkscape:pagecheckerboard="0"
     inkscape:deskcolor="#d1d1d1"
     inkscape:document-units="px"
     showgrid="false"
     inkscape:zoom="8.3958333"
     inkscape:cx="48"
     inkscape:cy="48"
     inkscape:window-width="1920"
     inkscape:window-height="1008"
     inkscape:window-x="0"
     inkscape:window-y="0"
     inkscape:window-maximized="1"
     inkscape:current-layer="svg5" />
  <defs
     id="defs2" />
  <rect
     style="opacity:0.2;fill:#000000;stroke-width:6;stroke-linecap:square"
     id="rect234"
     width="84"
     height="84"
     x="6"
     y="7"
     ry="18" />
  <rect
     style="fill:#e4e4e4;fill-opacity:1;stroke-width:6;stroke-linecap:square"
     id="rect396"
     width="84"
     height="72"
     x="6.0000005"
     y="18"
     ry="18" />
  <path
     id="rect1233"
     style="fill:#cecece;fill-opacity:1;stroke-width:6;stroke-linecap:square"
     d="M 24,6.0000003 H 72 C 81.972,6.0000003 90,14.028 90,24 V 48 H 6.0000003 V 24 C 6.0000003,14.028 14.028,6.0000003 24,6.0000003 Z"
     sodipodi:nodetypes="sssccss" />
  <path
     d="m 62,19 c -6.62742,0 -12,5.372583 -12,11.999997 0,6.627417 5.37258,12 12,12 6.62742,0 12,-5.372583 12,-12 C 74,24.372583 68.62742,19 62,19 Z M 27.5,36.999997 c -4.15497,0 -7.5,3.345006 -7.5,7.5 v 9 c 0,4.154994 3.34503,7.5 7.5,7.5 h 9 c 4.155,0 7.5,-3.345006 7.5,-7.5 v -9 c 0,-4.154994 -3.345,-7.5 -7.5,-7.5 z m 43.10157,15 c -0.58737,-0.0024 -1.17744,0.15402 -1.70508,0.462891 L 51.69338,62.523433 C 50.64575,63.133666 50,64.267897 50,65.499997 c 0,1.232127 0.64575,2.372223 1.69338,2.98242 l 17.20311,10.060548 c 1.05528,0.618003 2.35287,0.610512 3.40431,-0.0117 C 73.35227,77.905288 74,76.757515 74,75.513685 V 55.486342 c 0,-1.243857 -0.64773,-2.385858 -1.6992,-3.011718 -0.52572,-0.310965 -1.11186,-0.472131 -1.69923,-0.474609 z"
     style="opacity:0.1;fill:#000000;stroke-width:3.9279"
     id="path849" />
  <path
     d="m 68.89943,51.459537 -17.20569,10.06035 c -1.04763,0.61023 -1.6938,1.74843 -1.6938,2.98053 0,1.23213 0.64617,2.37039 1.6938,2.98059 l 17.20569,10.06032 c 1.05528,0.618 2.35143,0.61023 3.40287,-0.012 1.05147,-0.62598 1.69764,-1.77207 1.69764,-3.0159 v -20.02674 c 0,-1.24386 -0.64617,-2.38992 -1.69764,-3.01578 -1.05144,-0.62193 -2.34759,-0.62973 -3.40287,-0.012 z"
     style="fill:#09aeee;stroke-width:3.9279"
     id="path821" />
  <circle
     style="fill:#9550e8;fill-opacity:1;stroke-width:6;stroke-linecap:square"
     id="path434"
     cx="62"
     cy="30.000002"
     r="12" />
  <rect
     style="fill:#ff5853;fill-opacity:1;stroke-width:6;stroke-linecap:square"
     id="rect811"
     width="24"
     height="24"
     x="20"
     y="36"
     ry="7.5" />
  <path
     d="M 24,6.0000003 C 14.028011,6.0000003 6,14.028011 6,24 v 1 C 6,15.028011 14.028011,7 24,7 h 48 c 9.97199,0 18,8.028011 18,18 V 24 C 90,14.028011 81.97199,6.0000003 72,6.0000003 Z"
     style="opacity:0.2;fill:#ffffff;stroke-width:6;stroke-linecap:square"
     id="path1040" />
</svg>
