<?xml version="1.0" encoding="UTF-8" standalone="no"?>
<!-- Created with Inkscape (http://www.inkscape.org/) -->

<svg
   width="96"
   height="96"
   viewBox="0 0 96 96"
   version="1.1"
   id="svg5"
   inkscape:version="1.2.2 (1:1.2.2+202305151914+b0a8486541)"
   sodipodi:docname="preferences-desktop-keyboard-shortcuts.svg"
   xmlns:inkscape="http://www.inkscape.org/namespaces/inkscape"
   xmlns:sodipodi="http://sodipodi.sourceforge.net/DTD/sodipodi-0.dtd"
   xmlns="http://www.w3.org/2000/svg"
   xmlns:svg="http://www.w3.org/2000/svg">
  <sodipodi:namedview
     id="namedview7"
     pagecolor="#ffffff"
     bordercolor="#000000"
     borderopacity="0.25"
     inkscape:showpageshadow="2"
     inkscape:pageopacity="0.0"
     inkscape:pagecheckerboard="0"
     inkscape:deskcolor="#d1d1d1"
     inkscape:document-units="px"
     showgrid="false"
     inkscape:zoom="8.3958333"
     inkscape:cx="47.940447"
     inkscape:cy="48"
     inkscape:window-width="1920"
     inkscape:window-height="1008"
     inkscape:window-x="0"
     inkscape:window-y="0"
     inkscape:window-maximized="1"
     inkscape:current-layer="svg5" />
  <defs
     id="defs2" />
  <rect
     style="opacity:0.2;fill:#000000;stroke-width:6;stroke-linecap:square"
     id="rect234"
     width="84"
     height="84"
     x="6"
     y="7"
     ry="18" />
  <rect
     style="fill:#adadad;fill-opacity:1;stroke-width:6.00001;stroke-linecap:square"
     id="rect396"
     width="84"
     height="84"
     x="6"
     y="6"
     ry="18" />
  <path
     d="M 18.5,27 C 16.014719,27 14,29.014719 14,31.5 14,33.985281 16.014719,36 18.5,36 20.985281,36 23,33.985281 23,31.5 23,29.014719 20.985281,27 18.5,27 Z m 15,0 C 31.014719,27 29,29.014719 29,31.5 29,33.985281 31.014719,36 33.5,36 35.985281,36 38,33.985281 38,31.5 38,29.014719 35.985281,27 33.5,27 Z m 15,0 C 46.014719,27 44,29.014719 44,31.5 44,33.985281 46.014719,36 48.5,36 50.985281,36 53,33.985281 53,31.5 53,29.014719 50.985281,27 48.5,27 Z m 15,0 C 61.014719,27 59,29.014719 59,31.5 59,33.985281 61.014719,36 63.5,36 65.985281,36 68,33.985281 68,31.5 68,29.014719 65.985281,27 63.5,27 Z m 15,0 C 76.014719,27 74,29.014719 74,31.5 74,33.985281 76.014719,36 78.5,36 80.985281,36 83,33.985281 83,31.5 83,29.014719 80.985281,27 78.5,27 Z M 26,45 c -2.485281,0 -4.5,2.014719 -4.5,4.5 0,2.485281 2.014719,4.5 4.5,4.5 2.485281,0 4.5,-2.014719 4.5,-4.5 C 30.5,47.014719 28.485281,45 26,45 Z m 15,0 c -2.485281,0 -4.5,2.014719 -4.5,4.5 0,2.485281 2.014719,4.5 4.5,4.5 2.485281,0 4.5,-2.014719 4.5,-4.5 C 45.5,47.014719 43.485281,45 41,45 Z m 15,0 c -2.485281,0 -4.5,2.014719 -4.5,4.5 0,2.485281 2.014719,4.5 4.5,4.5 2.485281,0 4.5,-2.014719 4.5,-4.5 C 60.5,47.014719 58.485281,45 56,45 Z m 15,0 c -2.485281,0 -4.5,2.014719 -4.5,4.5 0,2.485281 2.014719,4.5 4.5,4.5 2.485281,0 4.5,-2.014719 4.5,-4.5 C 75.5,47.014719 73.485281,45 71,45 Z M 20.75,63 c -1.246499,0 -2.25,1.003501 -2.25,2.25 v 4.5 c 0,1.246499 1.003501,2.25 2.25,2.25 h 55.5 c 1.246499,0 2.25,-1.003501 2.25,-2.25 v -4.5 C 78.5,64.003501 77.496499,63 76.25,63 Z"
     style="opacity:0.2;fill:#000000;fill-opacity:1;stroke-width:3;stroke-linecap:square"
     id="path2953" />
  <path
     id="path1184"
     style="fill:#e8e8e8;fill-opacity:1;stroke-width:3;stroke-linecap:square"
     d="M 18.5 26 C 16.014721 26 14 28.014721 14 30.5 C 14 32.985279 16.014721 35 18.5 35 C 20.985279 35 23 32.985279 23 30.5 C 23 28.014721 20.985279 26 18.5 26 z M 33.5 26 C 31.014721 26 29 28.014721 29 30.5 C 29 32.985279 31.014721 35 33.5 35 C 35.985279 35 38 32.985279 38 30.5 C 38 28.014721 35.985279 26 33.5 26 z M 48.5 26 C 46.014721 26 44 28.014721 44 30.5 C 44 32.985279 46.014721 35 48.5 35 C 50.985279 35 53 32.985279 53 30.5 C 53 28.014721 50.985279 26 48.5 26 z M 63.5 26 C 61.014721 26 59 28.014721 59 30.5 C 59 32.985279 61.014721 35 63.5 35 C 65.985279 35 68 32.985279 68 30.5 C 68 28.014721 65.985279 26 63.5 26 z M 26 44 C 23.514721 44 21.5 46.014721 21.5 48.5 C 21.5 50.985279 23.514721 53 26 53 C 28.485279 53 30.5 50.985279 30.5 48.5 C 30.5 46.014721 28.485279 44 26 44 z M 41 44 C 38.514721 44 36.5 46.014721 36.5 48.5 C 36.5 50.985279 38.514721 53 41 53 C 43.485279 53 45.5 50.985279 45.5 48.5 C 45.5 46.014721 43.485279 44 41 44 z M 71 44 C 68.514721 44 66.5 46.014721 66.5 48.5 C 66.5 50.985279 68.514721 53 71 53 C 73.485279 53 75.5 50.985279 75.5 48.5 C 75.5 46.014721 73.485279 44 71 44 z M 20.75 62 C 19.503502 62 18.5 63.003502 18.5 64.25 L 18.5 68.75 C 18.5 69.996498 19.503502 71 20.75 71 L 76.25 71 C 77.496498 71 78.5 69.996498 78.5 68.75 L 78.5 64.25 C 78.5 63.003502 77.496498 62 76.25 62 L 20.75 62 z " />
  <path
     d="M 78.5,26 C 76.014719,26 74,28.014719 74,30.5 74,32.985281 76.014719,35 78.5,35 80.985281,35 83,32.985281 83,30.5 83,28.014719 80.985281,26 78.5,26 Z M 56,44 c -2.485281,0 -4.5,2.014719 -4.5,4.5 0,2.485281 2.014719,4.5 4.5,4.5 2.485281,0 4.5,-2.014719 4.5,-4.5 C 60.5,46.014719 58.485281,44 56,44 Z"
     style="fill:#ff8800;fill-opacity:1;stroke-width:3;stroke-linecap:square"
     id="path296" />
  <path
     d="M 24,6.0000003 C 14.028011,6.0000003 6,14.028011 6,24 v 1 C 6,15.028011 14.028011,7 24,7 h 48 c 9.97199,0 18,8.028011 18,18 V 24 C 90,14.028011 81.97199,6.0000003 72,6.0000003 Z"
     style="opacity:0.2;fill:#ffffff;stroke-width:6;stroke-linecap:square"
     id="path1040" />
</svg>
