<?xml version="1.0" encoding="UTF-8" standalone="no"?>
<!-- Created with Inkscape (http://www.inkscape.org/) -->

<svg
   width="96"
   height="96"
   viewBox="0 0 96 96"
   version="1.1"
   id="svg5"
   inkscape:version="1.3 (1:1.3+202307231459+0e150ed6c4)"
   sodipodi:docname="preferences-sound.svg"
   xmlns:inkscape="http://www.inkscape.org/namespaces/inkscape"
   xmlns:sodipodi="http://sodipodi.sourceforge.net/DTD/sodipodi-0.dtd"
   xmlns="http://www.w3.org/2000/svg"
   xmlns:svg="http://www.w3.org/2000/svg">
  <sodipodi:namedview
     id="namedview7"
     pagecolor="#ffffff"
     bordercolor="#000000"
     borderopacity="0.25"
     inkscape:showpageshadow="2"
     inkscape:pageopacity="0.0"
     inkscape:pagecheckerboard="0"
     inkscape:deskcolor="#d1d1d1"
     inkscape:document-units="px"
     showgrid="false"
     inkscape:zoom="7.4791667"
     inkscape:cx="48"
     inkscape:cy="47.933148"
     inkscape:window-width="1920"
     inkscape:window-height="1008"
     inkscape:window-x="0"
     inkscape:window-y="0"
     inkscape:window-maximized="1"
     inkscape:current-layer="svg5" />
  <defs
     id="defs2" />
  <rect
     style="opacity:0.2;fill:#000000;stroke-width:6;stroke-linecap:square"
     id="rect234"
     width="84"
     height="84"
     x="6"
     y="7"
     ry="18" />
  <rect
     style="fill:#bdbdbd;fill-opacity:1;stroke-width:6;stroke-linecap:square"
     id="rect396"
     width="84"
     height="84"
     x="6"
     y="6"
     ry="18" />
  <path
     d="M 46,25 32,39 H 20 v 20 h 12 l 14,14 z m 8,0 v 6 c 9.01292,0.67698 15.99628,8.5418 16,18.01954 C 69.9768,58.48222 62.99864,66.32412 54,67 v 6 C 66.37264,72.09886 75.96742,61.64376 76,49.02734 75.996,36.38986 66.39324,25.90268 54,25 Z m 0,12 V 61 C 59.6246,60.54938 63.9861,55.32068 64,49.01172 63.998,42.69374 59.63262,37.45128 54,37 Z"
     style="opacity:0.2;fill:#000000;fill-opacity:1;stroke-width:8.03244;stroke-linecap:round;stroke-linejoin:round"
     id="path1925" />
  <path
     d="M 46,24 32,38 H 20 v 20 h 12 l 14,14 z m 8,0 v 6 c 9.01292,0.67698 15.99628,8.5418 16,18.01954 C 69.9768,57.48222 62.99864,65.32412 54,66 v 6 C 66.37264,71.09886 75.96742,60.64376 76,48.02734 75.996,35.38986 66.39324,24.90268 54,24 Z m 0,12 V 60 C 59.6246,59.54938 63.9861,54.32068 64,48.01172 63.998,41.69374 59.63262,36.45128 54,36 Z"
     style="fill:#5f5f5f;fill-opacity:1;stroke-width:8.03244;stroke-linecap:round;stroke-linejoin:round"
     id="path1897"
     sodipodi:nodetypes="cccccccccccccccccc" />
  <path
     id="path1040"
     style="opacity:0.2;fill:#ffffff;stroke-width:6;stroke-linecap:square"
     d="M 24,6 C 14.02803,6 6,14.02803 6,24 v 1 C 6,15.02801 14.02801,7 24,7 h 48 c 9.97199,0 18,8.02801 18,18 V 24 C 90,14.02803 81.971968,6 72,6 Z" />
</svg>
