<?xml version="1.0" encoding="UTF-8" standalone="no"?>
<!-- Created with Inkscape (http://www.inkscape.org/) -->

<svg
   width="96"
   height="96"
   viewBox="0 0 96 96"
   version="1.1"
   id="svg5"
   inkscape:version="1.3 (0e150ed6c4, 2023-07-21)"
   sodipodi:docname="preferences-desktop-notification-bell.svg"
   xmlns:inkscape="http://www.inkscape.org/namespaces/inkscape"
   xmlns:sodipodi="http://sodipodi.sourceforge.net/DTD/sodipodi-0.dtd"
   xmlns="http://www.w3.org/2000/svg"
   xmlns:svg="http://www.w3.org/2000/svg">
  <sodipodi:namedview
     id="namedview7"
     pagecolor="#ffffff"
     bordercolor="#000000"
     borderopacity="0.25"
     inkscape:showpageshadow="2"
     inkscape:pageopacity="0.0"
     inkscape:pagecheckerboard="0"
     inkscape:deskcolor="#d1d1d1"
     inkscape:document-units="px"
     showgrid="false"
     inkscape:zoom="8.3333333"
     inkscape:cx="47.94"
     inkscape:cy="48"
     inkscape:window-width="1920"
     inkscape:window-height="1004"
     inkscape:window-x="0"
     inkscape:window-y="0"
     inkscape:window-maximized="1"
     inkscape:current-layer="svg5" />
  <defs
     id="defs2" />
  <rect
     style="opacity:0.2;fill:#000000;stroke-width:6;stroke-linecap:square"
     id="rect234"
     width="84"
     height="84"
     x="6"
     y="7"
     ry="18" />
  <rect
     style="fill:#ffbc2c;fill-opacity:1;stroke-width:6;stroke-linecap:square"
     id="rect396"
     width="84"
     height="84"
     x="6"
     y="6"
     ry="18" />
  <path
     d="m 48,21 c -2.10822,0.0057 -3.92988,1.474218 -4.38282,3.533202 C 35.77863,26.481681 30,33.541869 30,42 v 18.878907 l -5.56056,5.560545 C 23.4951,67.384446 24.16404,68.999493 25.5,69 h 45 c 1.33596,-5.07e-4 2.0049,-1.615554 1.06056,-2.560548 L 66,60.878907 V 42 C 66,33.54414 60.22992,26.483901 52.39452,24.533202 51.94065,22.469943 50.1126,21.000186 48,21 Z m -9,51 c 1.34919,3.587505 4.95246,5.989701 9,6 4.04754,-0.0102 7.65081,-2.412495 9,-6 z"
     style="opacity:0.2;fill:#000000;stroke-width:15;stroke-linecap:round;stroke-linejoin:round"
     id="path1" />
  <path
     d="m 47.999577,20 c -2.10822,0.0057 -3.92988,1.474212 -4.38282,3.533202 C 35.778147,25.481684 29.999577,32.541842 29.999577,41 V 59.877452 L 24.439017,65.438 c -0.94434,0.944997 -0.2754,2.560038 1.06056,2.560545 h 45 c 1.33596,-5.07e-4 2.0049,-1.615548 1.06056,-2.560545 l -5.56056,-5.560548 V 41 c 0,-8.455887 -5.77008,-15.516096 -13.60548,-17.466798 C 51.940227,21.469937 50.112177,20.000186 47.999577,20 Z"
     style="fill:#ffffff;stroke-width:3;stroke-linecap:round;stroke-linejoin:round;-inkscape-stroke:none"
     id="path2" />
  <path
     d="m 39,71 c 1.34919,3.587508 4.95246,5.989701 9,6 4.04754,-0.0102 7.65081,-2.412492 9,-6 z"
     style="fill:#ffe8b6;fill-opacity:1;stroke-width:15.4705;stroke-linecap:round;stroke-linejoin:round"
     id="path3" />
  <path
     id="path1040"
     style="opacity:0.2;fill:#ffffff;stroke-width:6;stroke-linecap:square"
     d="M 24 6 C 14.02802 6 6 14.028021 6 24 L 6 25 C 6 15.02802 14.02802 7 24 7 L 72 7 C 81.971978 7 90 15.02802 90 25 L 90 24 C 90 14.028021 81.971978 6 72 6 L 24 6 z " />
</svg>
