<?xml version="1.0" encoding="UTF-8" standalone="no"?>
<!-- Created with Inkscape (http://www.inkscape.org/) -->

<svg
   width="96"
   height="96"
   viewBox="0 0 96 96"
   version="1.1"
   id="svg5"
   inkscape:version="1.4.3 (0d15f75042, 2025-12-25)"
   sodipodi:docname="preferences-desktop-animations.svg"
   xmlns:inkscape="http://www.inkscape.org/namespaces/inkscape"
   xmlns:sodipodi="http://sodipodi.sourceforge.net/DTD/sodipodi-0.dtd"
   xmlns="http://www.w3.org/2000/svg"
   xmlns:svg="http://www.w3.org/2000/svg">
  <sodipodi:namedview
     id="namedview7"
     pagecolor="#ffffff"
     bordercolor="#000000"
     borderopacity="0.25"
     inkscape:showpageshadow="2"
     inkscape:pageopacity="0.0"
     inkscape:pagecheckerboard="0"
     inkscape:deskcolor="#d1d1d1"
     inkscape:document-units="px"
     showgrid="false"
     inkscape:zoom="8.40625"
     inkscape:cx="47.94052"
     inkscape:cy="48"
     inkscape:window-width="1920"
     inkscape:window-height="1010"
     inkscape:window-x="0"
     inkscape:window-y="0"
     inkscape:window-maximized="1"
     inkscape:current-layer="svg5" />
  <defs
     id="defs2" />
  <rect
     style="opacity:0.2;fill:#000000;stroke-width:6;stroke-linecap:square"
     id="rect234"
     width="84"
     height="84"
     x="6"
     y="7"
     ry="18" />
  <rect
     style="fill:#2196f3;fill-opacity:1;stroke-width:6;stroke-linecap:square"
     id="rect396"
     width="84"
     height="84"
     x="6"
     y="6"
     ry="18" />
  <path
     id="path1040"
     style="opacity:0.2;fill:#ffffff;stroke-width:6;stroke-linecap:square"
     d="M 24 6 C 14.02801 6 6 14.028011 6 24 L 6 25 C 6 15.028011 14.02801 7 24 7 L 72 7 C 81.971988 7 90 15.028011 90 25 L 90 24 C 90 14.028011 81.971988 6 72 6 L 24 6 z " />
  <path
     d="M 42.069228,21.0254 C 35.466291,20.597764 29.872746,25.608812 29.969913,33.115314 l 0.06126,4.581177 -4.310457,2.44983 c -7.6621,5.412603 -5.606481,18.416361 3.352185,21.199194 l 4.258617,1.32291 1.322904,4.258617 c 2.783205,8.958966 15.78615,11.01417 21.199191,3.352185 l 2.44983,-4.310124 4.585266,0.06123 c 10.004238,0.12792 15.573189,-10.630266 9.742155,-18.448794 l -2.670315,-3.576741 1.433148,-4.221873 0.0042,-0.0081 C 72.849774,35.4801 71.725434,30.685116 68.519292,27.48077 65.314554,24.275685 60.522969,23.154884 56.229315,24.606304 h -0.0081 l -4.225956,1.43315 -3.572667,-2.666232 c -1.954191,-1.459925 -4.15227,-2.205256 -6.35325,-2.347803 z"
     style="opacity:0.2;fill:#ffffff;stroke-width:3"
     id="path3" />
  <path
     style="baseline-shift:baseline;display:inline;overflow:visible;opacity:0.1;vector-effect:none;fill:#000000;stroke-width:3;stroke-linecap:round;stroke-linejoin:round;enable-background:accumulate;stop-color:#000000"
     d="M 45.029835,46.029016 7.2310068,83.82784 a 4.2,4.2 0 0 0 0,5.941407 4.2,4.2 0 0 0 5.9414062,0 L 50.971239,51.97042 a 4.2,4.2 0 0 0 0,-5.941404 4.2,4.2 0 0 0 -5.941404,0 z"
     id="path4" />
  <path
     style="baseline-shift:baseline;display:inline;overflow:visible;vector-effect:none;fill:#4f4f4f;stroke-width:3;stroke-linecap:round;stroke-linejoin:round;enable-background:accumulate;stop-color:#000000"
     d="M 45.029835,45.029016 7.2310068,82.82784 a 4.2,4.2 0 0 0 0,5.941407 4.2,4.2 0 0 0 5.9414062,0 L 50.971239,50.97042 a 4.2,4.2 0 0 0 0,-5.941404 4.2,4.2 0 0 0 -5.941404,0 z"
     id="path5" />
  <path
     d="m 40.674792,31.284616 a 3.0003,3.0006006 0 0 0 -1.722657,2.754183 l 0.10548,8.432487 c -0.0045,-0.355335 0.08043,-0.25143 -0.1875,0.07032 -0.26793,0.321753 -0.761748,0.759909 -1.230468,1.107534 v -0.006 l -6.421875,4.758288 a 3.0003,3.0006006 0 0 0 0.896484,5.279826 l 7.822266,2.431884 c 0.45627,0.14181 0.807411,0.493014 0.949218,0.949314 l 2.4375,7.828911 a 3.0003,3.0006006 0 0 0 5.273439,0.896574 l 4.76367,-6.42252 h -0.006 c 0.346623,-0.467451 0.786543,-0.969426 1.107423,-1.23645 0.320877,-0.26703 0.423633,-0.17736 0.07032,-0.18168 l 8.431641,0.10548 a 3.0003,3.0006006 0 0 0 2.326173,-4.939947 l -5.033205,-5.936142 c -0.27945,-0.381315 -0.362898,-0.864213 -0.21093,-1.312632 l 2.625,-7.72929 a 3.0003,3.0006006 0 0 0 -3.802734,-3.80895 l -7.734375,2.625264 c -0.448359,0.15195 -0.931209,0.06855 -1.3125,-0.21096 l -5.929689,-5.02785 a 3.0003,3.0006006 0 0 0 -3.216795,-0.427776 z"
     style="opacity:0.2;fill:#000000;stroke-width:3"
     id="path6" />
  <path
     d="m 40.674792,30.283248 a 3.0003,3.0006006 0 0 0 -1.722657,2.754183 l 0.10548,8.432487 c -0.0045,-0.355335 0.08043,-0.25143 -0.1875,0.07032 -0.26793,0.321753 -0.761748,0.759909 -1.230468,1.107534 v -0.006 l -6.421875,4.758288 a 3.0003,3.0006006 0 0 0 0.896484,5.279826 l 7.822266,2.431884 c 0.45627,0.14181 0.807411,0.493014 0.949218,0.949314 l 2.4375,7.828911 a 3.0003,3.0006006 0 0 0 5.273439,0.896574 l 4.76367,-6.42252 h -0.006 c 0.346623,-0.467451 0.786543,-0.969426 1.107423,-1.23645 0.320877,-0.26703 0.423633,-0.17736 0.07032,-0.18168 l 8.431641,0.10548 a 3.0003,3.0006006 0 0 0 2.326173,-4.939947 L 60.256701,46.17531 c -0.27945,-0.381315 -0.362898,-0.864213 -0.21093,-1.312632 l 2.625,-7.72929 a 3.0003,3.0006006 0 0 0 -3.802734,-3.80895 l -7.734375,2.625264 c -0.448359,0.15195 -0.931209,0.06855 -1.3125,-0.21096 l -5.929689,-5.02785 a 3.0003,3.0006006 0 0 0 -3.216795,-0.427773 z"
     style="fill:#ffcb33;stroke-width:3"
     id="path7" />
  <path
     d="m 43.39722,35.999718 3.494463,2.962503 c 0.08358,0.069 0.16953,0.13497 0.25773,0.19788 1.532409,1.1238 3.643278,1.50615 5.538393,0.863565 h 0.006 l 4.962975,-1.685148 -1.684293,4.965489 c -0.642411,1.896366 -0.25989,4.014204 0.863127,5.547195 0.06288,0.08826 0.12885,0.17424 0.19779,0.25785 l 2.966997,3.50223 -5.250687,-0.06594 c -0.002,-1.5e-5 -0.0039,9e-6 -0.006,0 -1.330566,0.11889 -1.611888,0.04038 -3.068895,1.253364 -0.915744,0.762357 -1.358784,1.351002 -1.882095,2.056962 -0.0016,0.0021 -0.0042,0.0039 -0.006,0.006 l -3.069036,4.13805 -1.594386,-5.121411 C 44.537676,52.99314 43.009638,51.464271 41.125347,50.878329 l -5.12481,-1.595193 4.135815,-3.064449 c 0.0039,6e-6 0.0081,6e-6 0.012,0 1.961874,-1.455606 3.314637,-4.589319 3.314637,-5.421255 -3e-6,-3.9e-5 -0.0051,-0.04182 -0.006,-0.048 z"
     style="fill:#ff9800;stroke-width:3"
     id="path8" />
  <path
     id="path9"
     style="opacity:0.2;fill:#ffffff;stroke-width:3"
     d="M 41.777344 30.005859 A 3.0003 3.0006006 0 0 0 40.675781 30.28125 A 3.0003 3.0006006 0 0 0 38.953125 33.035156 L 38.962891 33.736328 A 3.0003 3.0006006 0 0 1 40.673828 31.285156 A 3.0003 3.0006006 0 0 1 43.890625 31.712891 L 49.820312 36.740234 C 50.201603 37.019744 50.684453 37.103122 51.132812 36.951172 L 58.867188 34.326172 A 3.0003 3.0006006 0 0 1 62.785156 36.683594 A 3.0003 3.0006006 0 0 0 58.869141 33.322266 L 51.134766 35.947266 C 50.686407 36.099216 50.203557 36.015838 49.822266 35.736328 L 43.892578 30.708984 A 3.0003 3.0006006 0 0 0 41.777344 30.005859 z M 39.023438 41.326172 C 38.994338 41.376902 38.947804 41.450839 38.871094 41.542969 C 38.603164 41.864722 38.109345 42.302766 37.640625 42.650391 L 37.640625 42.644531 L 31.21875 47.402344 A 3.0003 3.0006006 0 0 0 30.052734 50.291016 A 3.0003 3.0006006 0 0 1 31.216797 48.402344 L 37.638672 43.642578 L 37.638672 43.648438 C 38.107392 43.300812 38.601211 42.862769 38.869141 42.541016 C 38.95729 42.435159 39.007645 42.352834 39.035156 42.302734 L 39.023438 41.326172 z M 60.515625 46.482422 L 60.273438 47.197266 L 65.289062 53.113281 A 3.0003 3.0006006 0 0 1 65.955078 54.533203 A 3.0003 3.0006006 0 0 0 65.291016 52.113281 L 60.515625 46.482422 z " />
</svg>
