<?xml version="1.0" encoding="UTF-8" standalone="no"?>
<!-- Created with Inkscape (http://www.inkscape.org/) -->

<svg
   width="96"
   height="96"
   viewBox="0 0 96 96"
   version="1.1"
   id="svg5"
   inkscape:version="1.2.2 (1:1.2.2+202305151914+b0a8486541)"
   sodipodi:docname="preferences-system-search.svg"
   xmlns:inkscape="http://www.inkscape.org/namespaces/inkscape"
   xmlns:sodipodi="http://sodipodi.sourceforge.net/DTD/sodipodi-0.dtd"
   xmlns="http://www.w3.org/2000/svg"
   xmlns:svg="http://www.w3.org/2000/svg">
  <sodipodi:namedview
     id="namedview7"
     pagecolor="#ffffff"
     bordercolor="#000000"
     borderopacity="0.25"
     inkscape:showpageshadow="2"
     inkscape:pageopacity="0.0"
     inkscape:pagecheckerboard="0"
     inkscape:deskcolor="#d1d1d1"
     inkscape:document-units="px"
     showgrid="false"
     inkscape:zoom="8.3958333"
     inkscape:cx="47.940447"
     inkscape:cy="48"
     inkscape:window-width="1920"
     inkscape:window-height="1008"
     inkscape:window-x="0"
     inkscape:window-y="0"
     inkscape:window-maximized="1"
     inkscape:current-layer="svg5" />
  <defs
     id="defs2" />
  <rect
     style="opacity:0.2;fill:#000000;stroke-width:6;stroke-linecap:square"
     id="rect234"
     width="84"
     height="84"
     x="6"
     y="7"
     ry="18" />
  <rect
     style="fill:#0090ef;fill-opacity:1;stroke-width:6;stroke-linecap:square"
     id="rect396"
     width="84"
     height="84"
     x="6"
     y="6"
     ry="18" />
  <path
     d="m 54,22 c -11.597979,0 -21,9.402022 -21,21 0.0177,4.519707 1.493124,8.913099 4.207032,12.527343 L 21.955078,70.779298 c -2.858284,2.812764 1.343954,7.108383 4.21875,4.3125 L 41.472657,59.792968 C 45.086901,62.506876 49.480293,63.9823 54,64 65.597979,64 75,54.597979 75,43 75,31.402022 65.597979,22 54,22 Z m 0,6 c 8.284272,0 15,6.715728 15,15 0,8.284272 -6.715728,15 -15,15 -8.284272,0 -15,-6.715728 -15,-15 0,-8.284272 6.715728,-15 15,-15 z"
     style="opacity:0.2;fill:#000000;stroke-width:3"
     id="path2320" />
  <path
     id="path1896"
     style="fill:#ffffff;stroke-width:3"
     d="m 54,21 c -11.597979,0 -21,9.402022 -21,21 0.0177,4.519708 1.493124,8.913099 4.207032,12.527343 L 21.955078,69.779298 c -2.858284,2.812764 1.343954,7.108383 4.21875,4.3125 L 41.472657,58.792968 C 45.086901,61.506876 49.480293,62.9823 54,63 65.597979,63 75,53.597979 75,42 75,30.402022 65.597979,21 54,21 Z m 0,6 c 8.284272,0 15,6.715728 15,15 0,8.284272 -6.715728,15 -15,15 -8.284272,0 -15,-6.715728 -15,-15 0,-8.284272 6.715728,-15 15,-15 z" />
  <path
     id="path1040"
     style="opacity:0.2;fill:#ffffff;stroke-width:6;stroke-linecap:square"
     d="M 24,6 C 14.02803,6 6,14.02803 6,24 v 1 C 6,15.02801 14.02801,7 24,7 h 48 c 9.97199,0 18,8.02801 18,18 V 24 C 90,14.02803 81.971968,6 72,6 Z" />
</svg>
