<?xml version="1.0" encoding="UTF-8" standalone="no"?>
<!-- Created with Inkscape (http://www.inkscape.org/) -->

<svg
   width="96"
   height="96"
   viewBox="0 0 96 96"
   version="1.1"
   id="svg5"
   inkscape:version="1.2.2 (1:1.2.2+202305151914+b0a8486541)"
   sodipodi:docname="preferences-desktop-screensaver.svg"
   xmlns:inkscape="http://www.inkscape.org/namespaces/inkscape"
   xmlns:sodipodi="http://sodipodi.sourceforge.net/DTD/sodipodi-0.dtd"
   xmlns="http://www.w3.org/2000/svg"
   xmlns:svg="http://www.w3.org/2000/svg">
  <sodipodi:namedview
     id="namedview7"
     pagecolor="#ffffff"
     bordercolor="#000000"
     borderopacity="0.25"
     inkscape:showpageshadow="2"
     inkscape:pageopacity="0.0"
     inkscape:pagecheckerboard="0"
     inkscape:deskcolor="#d1d1d1"
     inkscape:document-units="px"
     showgrid="false"
     inkscape:zoom="8.3958333"
     inkscape:cx="47.940447"
     inkscape:cy="48"
     inkscape:window-width="1920"
     inkscape:window-height="1008"
     inkscape:window-x="0"
     inkscape:window-y="0"
     inkscape:window-maximized="1"
     inkscape:current-layer="svg5" />
  <defs
     id="defs2" />
  <rect
     style="opacity:0.2;fill:#000000;stroke-width:6;stroke-linecap:square"
     id="rect234"
     width="84"
     height="84"
     x="6"
     y="7"
     ry="18" />
  <rect
     style="fill:#6a1b9a;fill-opacity:1;stroke-width:6;stroke-linecap:square"
     id="rect396"
     width="84"
     height="84"
     x="6"
     y="6"
     ry="18" />
  <path
     d="m 64.79058,36.69988 c 2.3424,2.83833 3.762915,6.46608 3.762915,10.433565 0,9.06822 -7.351335,16.41993 -16.419945,16.41993 -3.967485,0 -7.595145,-1.420485 -10.43355,-3.76287 C 43.685445,68.25355 51.275115,74.5 60.343335,74.5 70.92318,74.5 79.5,65.92318 79.5,55.343335 79.5,46.27474 73.25355,38.68525 64.790505,36.7 Z M 60.75,34.75 60.00492,32.49508 57.75,31.75 60.00492,31.00492 60.75,28.75 61.49508,31.00492 63.75,31.75 61.49508,32.49508 Z m -34.5,6 L 23.642205,32.857795 15.75,30.25 23.642205,27.642205 26.25,19.75 28.857795,27.642205 36.75,30.25 28.857795,32.857795 Z m 19.5,-6 L 44.259825,30.240175 39.75,28.75 44.259825,27.259825 45.75,22.75 47.240175,27.259825 51.75,28.75 47.240175,30.240175 Z"
     style="opacity:0.2;fill:#000000;stroke-width:1.5"
     id="path1841" />
  <path
     d="m 64.79058,35.69988 c 2.3424,2.83833 3.762915,6.46608 3.762915,10.433565 0,9.06822 -7.351335,16.41993 -16.419945,16.41993 -3.967485,0 -7.595145,-1.420485 -10.43355,-3.76287 C 43.685445,67.25355 51.275115,73.5 60.343335,73.5 70.92318,73.5 79.5,64.92318 79.5,54.343335 79.5,45.27474 73.25355,37.68525 64.790505,35.7 Z M 60.75,33.75 60.00492,31.49508 57.75,30.75 60.00492,30.00492 60.75,27.75 61.49508,30.00492 63.75,30.75 61.49508,31.49508 Z m -34.5,6 L 23.642205,31.857795 15.75,29.25 23.642205,26.642205 26.25,18.75 28.857795,26.642205 36.75,29.25 28.857795,31.857795 Z m 19.5,-6 L 44.259825,29.240175 39.75,27.75 44.259825,26.259825 45.75,21.75 47.240175,26.259825 51.75,27.75 47.240175,29.240175 Z"
     style="fill:#ffffff;stroke-width:1.5"
     id="path1813" />
  <path
     id="path1040"
     style="opacity:0.1;fill:#ffffff;stroke-width:6;stroke-linecap:square"
     d="M 24,6 C 14.02803,6 6,14.02803 6,24 v 1 C 6,15.02803 14.02803,7 24,7 h 48 c 9.971968,0 18,8.02803 18,18 V 24 C 90,14.02803 81.971968,6 72,6 Z" />
</svg>
