<?xml version="1.0" encoding="UTF-8" standalone="no"?>
<!-- Created with Inkscape (http://www.inkscape.org/) -->

<svg
   width="96"
   height="96"
   viewBox="0 0 96 96"
   version="1.1"
   id="svg5"
   inkscape:version="1.3 (0e150ed6c4, 2023-07-21)"
   sodipodi:docname="retroarch.svg"
   xmlns:inkscape="http://www.inkscape.org/namespaces/inkscape"
   xmlns:sodipodi="http://sodipodi.sourceforge.net/DTD/sodipodi-0.dtd"
   xmlns="http://www.w3.org/2000/svg"
   xmlns:svg="http://www.w3.org/2000/svg">
  <sodipodi:namedview
     id="namedview7"
     pagecolor="#ffffff"
     bordercolor="#000000"
     borderopacity="0.25"
     inkscape:showpageshadow="2"
     inkscape:pageopacity="0.0"
     inkscape:pagecheckerboard="0"
     inkscape:deskcolor="#d1d1d1"
     inkscape:document-units="px"
     showgrid="false"
     inkscape:zoom="7.59375"
     inkscape:cx="48"
     inkscape:cy="48"
     inkscape:window-width="1920"
     inkscape:window-height="937"
     inkscape:window-x="0"
     inkscape:window-y="32"
     inkscape:window-maximized="1"
     inkscape:current-layer="svg5" />
  <defs
     id="defs2" />
  <rect
     style="opacity:0.2;fill:#000000;stroke-width:6;stroke-linecap:square"
     id="rect234"
     width="84"
     height="84"
     x="6"
     y="7"
     ry="18" />
  <rect
     style="fill:#e4e4e4;fill-opacity:1;stroke-width:6;stroke-linecap:square"
     id="rect396"
     width="84"
     height="84"
     x="6"
     y="6"
     ry="18" />
  <path
     d="m 34,31 6,8 H 28 l -1.2461,6 H 20 l 2,-8 h -4 l -4,16 h 4 7.2461 L 24,59 h 8 l -6,8 h 8 l 6,-8 h 16 l 6,8 h 8 l -6,-8 h 8 L 70.7539,53 H 82 L 78,37 h -4 l 2,8 H 69.2461 L 68,39 H 56 l 6,-8 h -4 l -6,8 h -8 l -6,-8 z"
     style="opacity:0.2;fill:#000000;stroke-width:2"
     id="path1948"
     sodipodi:nodetypes="cccccccccccccccccccccccccccccccccc" />
  <path
     d="m 34,30 6,8 H 28 l -1.2461,6 H 20 l 2,-8 h -4 l -4,16 h 4 7.2461 L 24,58 h 8 l -6,8 h 8 l 6,-8 h 16 l 6,8 h 8 l -6,-8 h 8 L 70.7539,52 H 82 L 78,36 h -4 l 2,8 H 69.2461 L 68,38 H 56 l 6,-8 h -4 l -6,8 h -8 l -6,-8 z"
     style="fill:#565656;stroke-width:2"
     id="path1976" />
  <path
     d="m 32,43 v 8 h 8 v -8 z m 24,0 v 8 h 8 v -8 z"
     style="opacity:0.1;fill:#000000;fill-opacity:1;stroke-width:1.5;stroke-linecap:round;stroke-linejoin:round"
     id="path2032" />
  <path
     d="m 32,42 v 8 h 8 v -8 z m 24,0 v 8 h 8 v -8 z"
     style="fill:#ffffff;fill-opacity:1;stroke-width:1.5;stroke-linecap:round;stroke-linejoin:round"
     id="path2004"
     sodipodi:nodetypes="cccccccccc" />
  <g
     id="g361"
     transform="matrix(1.4999913,0,0,1.4999913,1.048e-4,1.048e-4)" />
  <path
     id="path1040"
     style="opacity:0.2;fill:#ffffff;stroke-width:6;stroke-linecap:square"
     d="M 24 6 C 14.02802 6 6 14.028021 6 24 L 6 25 C 6 15.028021 14.02802 7 24 7 L 72 7 C 81.971978 7 90 15.028021 90 25 L 90 24 C 90 14.028021 81.971978 6 72 6 L 24 6 z " />
</svg>
