<?xml version="1.0" encoding="UTF-8" standalone="no"?>
<!-- Created with Inkscape (http://www.inkscape.org/) -->

<svg
   width="96"
   height="96"
   viewBox="0 0 96 96"
   version="1.1"
   id="svg5"
   inkscape:version="1.2.2 (1:1.2.2+202305151914+b0a8486541)"
   sodipodi:docname="rnote.svg"
   xmlns:inkscape="http://www.inkscape.org/namespaces/inkscape"
   xmlns:sodipodi="http://sodipodi.sourceforge.net/DTD/sodipodi-0.dtd"
   xmlns="http://www.w3.org/2000/svg"
   xmlns:svg="http://www.w3.org/2000/svg">
  <sodipodi:namedview
     id="namedview7"
     pagecolor="#ffffff"
     bordercolor="#000000"
     borderopacity="0.25"
     inkscape:showpageshadow="2"
     inkscape:pageopacity="0.0"
     inkscape:pagecheckerboard="0"
     inkscape:deskcolor="#d1d1d1"
     inkscape:document-units="px"
     showgrid="false"
     inkscape:zoom="8.3958333"
     inkscape:cx="48"
     inkscape:cy="48"
     inkscape:window-width="1920"
     inkscape:window-height="1008"
     inkscape:window-x="0"
     inkscape:window-y="0"
     inkscape:window-maximized="1"
     inkscape:current-layer="svg5" />
  <defs
     id="defs2" />
  <rect
     style="opacity:0.2;fill:#000000;stroke-width:6;stroke-linecap:square"
     id="rect234"
     width="84"
     height="84"
     x="6"
     y="7"
     ry="18" />
  <rect
     style="fill:#e4e4e4;fill-opacity:1;stroke-width:6;stroke-linecap:square"
     id="rect396"
     width="84"
     height="84"
     x="6"
     y="6"
     ry="18" />
  <rect
     style="fill:#e4e4e4;fill-opacity:1;stroke-width:6;stroke-linecap:square"
     id="rect396-3"
     width="84"
     height="84"
     x="5.9999995"
     y="6"
     ry="18" />
  <path
     d="m 21,24 v 0.75 H 90 V 24 Z m 0,12 v 0.75 H 90 V 36 Z m 0,12 v 0.75 H 90 V 48 Z m 0,12 v 0.75 H 90 V 60 Z m 0,12 v 0.75 H 90 V 72 Z"
     style="fill:#cccccc;stroke-width:1.5"
     id="path1306" />
  <path
     d="m 75.367749,33.747862 c -0.10176,-0.828339 0.533588,-2.139151 0.448324,-3.923711 -0.08802,-1.787469 -0.954406,-4.278298 -4.51074,-6.086114 -0.06325,-0.03198 -0.126525,-0.06394 -0.192532,-0.09591 -2.313131,-1.127705 -5.685185,-1.935699 -9.61833,-1.540419 -3.055754,0.308083 -6.229773,1.328248 -9.222266,3.127342 -2.692693,1.613082 -5.1736,3.821987 -7.186932,6.554052 -1.182694,1.717713 -2.214114,3.66213 -2.951235,5.760588 -0.319051,0.906813 -0.583095,1.845599 -0.781128,2.804727 -0.255792,1.246869 -0.396064,2.609996 -0.341056,4.048689 0.14577,2.281566 0.789379,4.775304 2.227866,7.019084 0.679362,1.063762 1.523752,2.028706 2.500161,2.833792 0.970911,0.805088 2.082093,1.456134 3.295042,1.883382 1.944569,0.67139 3.856133,0.67139 5.437644,0.418529 0.838886,-0.133695 1.609013,-0.340055 2.288375,-0.569664 0.838888,-0.281925 1.609015,-0.607449 2.216865,-0.883562 1.325718,-0.613263 2.568922,-1.348594 3.559084,-1.941511 0.990164,-0.592916 1.961073,-1.18874 2.893476,-1.671211 0.55559,-0.279019 1.215701,-0.59001 1.867557,-0.825432 0.173279,-0.06102 0.346557,-0.11916 0.519834,-0.168574 0.649107,-0.188919 1.289963,-0.273207 1.859307,-0.212171 0.48683,0.04941 0.899397,0.217983 1.177193,0.424341 0.118275,0.07846 0.220036,0.188921 0.305301,0.305178 0.07426,0.10755 0.12378,0.209265 0.151273,0.264486 0.03025,0.06975 0.04677,0.212172 -0.0054,0.41853 -0.04951,0.209265 -0.156775,0.450501 -0.321804,0.691736 -0.170526,0.24705 -0.407065,0.502818 -0.726118,0.767304 -0.313551,0.255768 -0.687614,0.505723 -1.122185,0.746958 -0.954406,0.485377 -1.903312,0.810901 -3.237282,1.336969 -1.210198,0.476658 -2.654185,1.092827 -4.007409,2.069394 -0.709615,0.528974 -1.419234,1.18874 -2.029833,1.988013 -0.607849,0.799275 -1.135938,1.764218 -1.430235,2.894826 -0.264043,1.130612 -0.277796,2.386199 0.07701,3.592377 0.178779,0.613262 0.453824,1.194552 0.805883,1.711901 0.357558,0.523162 0.805882,0.996913 1.336719,1.374753 0.943405,0.66267 1.983076,0.906813 2.882473,0.932971 h 0.305301 c 0.761874,-0.02034 1.487994,-0.186013 2.150853,-0.421435 0.693114,-0.223797 1.320218,-0.52607 1.859306,-0.793463 0.55009,-0.276112 0.97366,-0.499909 1.416481,-0.685923 0.404318,-0.188919 0.756377,-0.310989 1.075428,-0.363307 0.30255,-0.04942 0.550091,-0.02616 0.72887,0.02616 0.07977,0.02326 0.151275,0.06104 0.209034,0.09882 0.05501,0.03778 0.09352,0.07266 0.11277,0.0901 0.03026,0.01455 0.05777,0.03778 0.07701,0.04359 0.02201,0 0.04125,0.01155 0.06876,0.0059 0.02475,-0.0059 0,0.08719 -0.09902,0.209265 -0.115515,0.14241 -0.283298,0.284832 -0.541839,0.497002 -0.250292,0.200546 -0.591348,0.465032 -0.902148,0.790556 -0.343806,0.357492 -0.679361,0.8109 -0.885645,1.371844 -0.206285,0.566759 -0.239291,1.14805 -0.154026,1.659585 0.09901,0.595823 0.36031,1.084107 0.662859,1.429976 0.407067,0.470845 0.880144,0.671391 1.229452,0.726612 0.08526,0.01155 0.165026,0.01745 0.239289,0.01455 0.621602,-0.02326 0.871895,-0.52607 0.981911,-0.674298 -0.154025,-0.154043 -0.3108,-0.54932 -0.43457,-0.886467 -0.01365,-0.03778 -0.0275,-0.07266 -0.03851,-0.110445 -0.04951,-0.14823 -0.09352,-0.310989 -0.08252,-0.456313 0.0054,-0.104625 0.03025,-0.215078 0.07701,-0.284833 0.03851,-0.06103 0.09352,-0.116265 0.143025,-0.136605 0.04951,-0.02327 0.13203,-0.093 0.280547,-0.188919 0.184281,-0.116265 0.313551,-0.183106 0.640854,-0.36912 0.255793,-0.14241 0.635355,-0.363306 0.998415,-0.66267 0.36306,-0.299365 0.781128,-0.735333 1.078177,-1.342782 0.264044,-0.543505 0.393314,-1.145142 0.393314,-1.738059 0.0029,-0.592915 -0.123765,-1.168393 -0.343806,-1.682835 -0.231038,-0.517348 -0.550091,-0.95913 -0.913151,-1.322437 -0.365809,-0.366213 -0.781126,-0.656858 -1.215699,-0.874842 -0.871893,-0.433061 -1.790542,-0.555134 -2.596426,-0.523161 -0.833387,0.03196 -1.598012,0.229609 -2.227866,0.438875 -0.621602,0.220889 -1.265208,0.511535 -1.721784,0.706267 -0.525336,0.223797 -0.929652,0.377838 -1.311965,0.470845 -0.36031,0.06684 -0.632604,0.06103 -0.830637,0.01455 -0.02475,-0.0059 -0.04951,-0.01155 -0.07426,-0.02034 -0.200782,-0.06684 -0.3108,-0.183105 -0.280546,-0.241234 0.01651,-0.02327 0.01926,-0.05232 0.02475,-0.10173 0.0054,-0.0465 0.0111,-0.09882 0.03302,-0.145335 0.033,-0.09882 0.08802,-0.2703 0.200782,-0.430155 0.08252,-0.177294 0.220037,-0.377838 0.445574,-0.604542 0.231037,-0.232517 0.533586,-0.467939 0.896646,-0.677204 0.73162,-0.465031 1.603513,-0.8109 2.733949,-1.185832 1.045172,-0.348774 2.478158,-0.776024 3.795624,-1.354407 0.709617,-0.296459 1.446738,-0.659766 2.161856,-1.118985 0.731619,-0.467939 1.454988,-1.043415 2.115096,-1.755496 0.684864,-0.744053 1.27896,-1.621802 1.716283,-2.604183 0.448323,-1.011446 0.739869,-2.159495 0.767373,-3.388925 0.02753,-1.212082 -0.206278,-2.357226 -0.596845,-3.368671 -0.401565,-1.049229 -0.987411,-1.99092 -1.686027,-2.778569 -1.479744,-1.668303 -3.3528,-2.575116 -5.036078,-2.967487 -1.950069,-0.456314 -3.779121,-0.287741 -5.184601,0.02616 -0.390564,0.0901 -0.759126,0.188919 -1.102932,0.296458 -1.298213,0.403997 -2.37639,0.947504 -3.132765,1.368941 -1.229453,0.671389 -2.453403,1.488103 -3.286788,2.025796 -0.96816,0.624888 -1.834553,1.165488 -2.703695,1.581111 -0.387831,0.188924 -0.811399,0.357498 -1.251472,0.473756 -0.352058,0.09011 -0.695864,0.151137 -1.034171,0.168574 -0.646356,0.03486 -1.190944,-0.0872 -1.559506,-0.31099 -0.214533,-0.12207 -0.43457,-0.299366 -0.635354,-0.531881 -0.200782,-0.235423 -0.37131,-0.50863 -0.486829,-0.799275 -0.264044,-0.645232 -0.346557,-1.427068 -0.231039,-2.168214 0.03026,-0.462124 0.126525,-0.927157 0.277795,-1.389283 0.118275,-0.357495 0.280547,-0.720801 0.48683,-1.087014 0.48408,-0.86031 1.185447,-1.674117 2.007831,-2.374572 1.278961,-1.246869 2.775205,-2.14787 4.293456,-2.732067 1.688776,-0.651045 3.306043,-0.874841 4.725276,-0.886467 1.8153,-0.01155 3.440817,0.316803 4.714275,0.473752 0.03576,0.003 0.07151,0.0089 0.107265,0.01155 2.013331,0.235422 3.556335,-0.26158 4.92606,-0.953316 1.32847,-0.668484 2.516664,-1.572391 3.259285,-1.578204 z"
     style="opacity:0.1;fill:#000000;stroke-width:1.5"
     id="path396" />
  <path
     d="m 75.367749,32.747861 c -0.10176,-0.828339 0.533588,-2.13915 0.448324,-3.923711 -0.08802,-1.787469 -0.954406,-4.278298 -4.51074,-6.086114 -0.06325,-0.03198 -0.126525,-0.06395 -0.192532,-0.09591 -2.313131,-1.127704 -5.685185,-1.935699 -9.61833,-1.540419 -3.055754,0.308084 -6.229773,1.328249 -9.222266,3.127343 -2.692693,1.613082 -5.1736,3.821986 -7.186932,6.554052 -1.182694,1.717713 -2.214114,3.66213 -2.951235,5.760588 -0.319051,0.906813 -0.583095,1.845598 -0.781128,2.804727 -0.255792,1.246869 -0.396064,2.609995 -0.341056,4.048689 0.14577,2.281566 0.789379,4.775304 2.227866,7.019083 0.679362,1.063763 1.523752,2.028707 2.500161,2.833793 0.970911,0.805087 2.082093,1.456134 3.295042,1.883382 1.944569,0.671389 3.856133,0.671389 5.437644,0.418528 0.838886,-0.133695 1.609013,-0.340054 2.288375,-0.569664 0.838888,-0.281925 1.609015,-0.607449 2.216865,-0.883561 1.325718,-0.613263 2.568922,-1.348595 3.559084,-1.941512 0.990164,-0.592915 1.961073,-1.188739 2.893476,-1.67121 0.55559,-0.279019 1.215701,-0.59001 1.867557,-0.825432 0.173279,-0.06102 0.346557,-0.11916 0.519834,-0.168574 0.649107,-0.188919 1.289963,-0.273207 1.859307,-0.212171 0.48683,0.04941 0.899397,0.217983 1.177193,0.424341 0.118275,0.07846 0.220036,0.188921 0.305301,0.305178 0.07426,0.10755 0.12378,0.209265 0.151273,0.264486 0.03025,0.06975 0.04677,0.212172 -0.0054,0.41853 -0.04951,0.209265 -0.156775,0.450501 -0.321804,0.691736 -0.170526,0.24705 -0.407065,0.502818 -0.726118,0.767304 -0.313551,0.255768 -0.687614,0.505723 -1.122185,0.746958 -0.954406,0.485377 -1.903312,0.810901 -3.237282,1.336969 -1.210198,0.476658 -2.654185,1.092827 -4.007409,2.069394 -0.709615,0.528974 -1.419234,1.18874 -2.029833,1.988013 -0.607849,0.799275 -1.135938,1.764218 -1.430235,2.894826 -0.264043,1.130612 -0.277796,2.386199 0.07701,3.592377 0.178779,0.613262 0.453824,1.194552 0.805883,1.711901 0.357558,0.523162 0.805882,0.996913 1.336719,1.374753 0.943405,0.66267 1.983076,0.906813 2.882473,0.932971 h 0.305301 c 0.761874,-0.02034 1.487994,-0.186013 2.150853,-0.421435 0.693114,-0.223797 1.320218,-0.52607 1.859306,-0.793463 0.55009,-0.276112 0.97366,-0.499909 1.416481,-0.685923 0.404318,-0.188919 0.756377,-0.310989 1.075428,-0.363307 0.30255,-0.04942 0.550091,-0.02616 0.72887,0.02616 0.07977,0.02326 0.151275,0.06104 0.209034,0.09882 0.05501,0.03778 0.09352,0.07266 0.11277,0.0901 0.03026,0.01455 0.05777,0.03778 0.07701,0.04359 0.02201,0 0.04125,0.01155 0.06876,0.0059 0.02475,-0.0059 0,0.08719 -0.09902,0.209265 -0.115515,0.14241 -0.283298,0.284832 -0.541839,0.497002 -0.250292,0.200546 -0.591348,0.465032 -0.902148,0.790556 -0.343806,0.357492 -0.679361,0.8109 -0.885645,1.371844 -0.206285,0.566759 -0.239291,1.148049 -0.154026,1.659585 0.09901,0.595823 0.36031,1.084107 0.662859,1.429976 0.407067,0.470845 0.880144,0.671391 1.229452,0.726612 0.08526,0.01155 0.165026,0.01745 0.239289,0.01455 0.621602,-0.02326 0.871895,-0.52607 0.981911,-0.674298 -0.154025,-0.154043 -0.3108,-0.54932 -0.43457,-0.886467 -0.01365,-0.03778 -0.0275,-0.07266 -0.03851,-0.110445 -0.04951,-0.14823 -0.09352,-0.310989 -0.08252,-0.456314 0.0054,-0.104625 0.03025,-0.215077 0.07701,-0.284832 0.03851,-0.06103 0.09352,-0.116265 0.143025,-0.136605 0.04951,-0.02327 0.13203,-0.093 0.280547,-0.188919 0.184281,-0.116265 0.313551,-0.183106 0.640854,-0.36912 0.255793,-0.14241 0.635355,-0.363306 0.998415,-0.66267 0.36306,-0.299365 0.781128,-0.735333 1.078177,-1.342782 0.264044,-0.543505 0.393314,-1.145142 0.393314,-1.738059 0.0029,-0.592915 -0.123765,-1.168393 -0.343806,-1.682835 -0.231038,-0.517348 -0.550091,-0.95913 -0.913151,-1.322437 -0.365809,-0.366213 -0.781126,-0.656858 -1.215699,-0.874842 -0.871893,-0.433061 -1.790542,-0.555134 -2.596426,-0.523161 -0.833387,0.03196 -1.598012,0.229609 -2.227866,0.438874 -0.621602,0.22089 -1.265208,0.511536 -1.721784,0.706268 -0.525336,0.223797 -0.929652,0.377838 -1.311965,0.470845 -0.36031,0.06684 -0.632604,0.06103 -0.830637,0.01455 -0.02475,-0.0059 -0.04951,-0.01155 -0.07426,-0.02034 -0.200782,-0.06684 -0.3108,-0.183105 -0.280546,-0.241234 0.01651,-0.02327 0.01926,-0.05232 0.02475,-0.10173 0.0054,-0.0465 0.0111,-0.09882 0.03302,-0.145335 0.033,-0.09882 0.08802,-0.2703 0.200782,-0.430155 0.08252,-0.177294 0.220037,-0.377838 0.445574,-0.604542 0.231037,-0.232517 0.533586,-0.467939 0.896646,-0.677204 0.73162,-0.465031 1.603513,-0.8109 2.733949,-1.185832 1.045172,-0.348774 2.478158,-0.776024 3.795624,-1.354407 0.709617,-0.296459 1.446738,-0.659766 2.161856,-1.118985 0.731619,-0.467939 1.454988,-1.043415 2.115096,-1.755497 0.684864,-0.744052 1.27896,-1.621801 1.716283,-2.604183 0.448323,-1.011445 0.739869,-2.159494 0.767373,-3.388924 0.02753,-1.212083 -0.206278,-2.357226 -0.596845,-3.368672 -0.401565,-1.049229 -0.987411,-1.99092 -1.686027,-2.778568 -1.479744,-1.668303 -3.3528,-2.575116 -5.036078,-2.967488 -1.950069,-0.456313 -3.779121,-0.28774 -5.184601,0.02616 -0.390564,0.09011 -0.759126,0.188919 -1.102932,0.296459 -1.298213,0.403996 -2.37639,0.947503 -3.132765,1.36894 -1.229453,0.67139 -2.453403,1.488104 -3.286788,2.025797 -0.96816,0.624888 -1.834553,1.165488 -2.703695,1.581111 -0.387831,0.188923 -0.811399,0.357498 -1.251472,0.473755 -0.352058,0.09011 -0.695864,0.151137 -1.034171,0.168575 -0.646356,0.03486 -1.190944,-0.0872 -1.559506,-0.310991 -0.214533,-0.12207 -0.43457,-0.299365 -0.635354,-0.53188 -0.200782,-0.235424 -0.37131,-0.508631 -0.486829,-0.799275 -0.264044,-0.645233 -0.346557,-1.427069 -0.231039,-2.168214 0.03026,-0.462125 0.126525,-0.927158 0.277795,-1.389284 0.118275,-0.357495 0.280547,-0.720801 0.48683,-1.087014 0.48408,-0.86031 1.185447,-1.674117 2.007831,-2.374572 1.278961,-1.246869 2.775205,-2.147869 4.293456,-2.732067 1.688776,-0.651045 3.306043,-0.87484 4.725276,-0.886467 1.8153,-0.01155 3.440817,0.316803 4.714275,0.473753 0.03576,0.003 0.07151,0.0089 0.107265,0.01155 2.013331,0.235422 3.556335,-0.261581 4.92606,-0.953316 1.32847,-0.668484 2.516664,-1.572392 3.259285,-1.578204 z"
     style="fill:#3f3f3f;stroke-width:1.5"
     id="path318" />
  <rect
     style="fill:#df574d;fill-opacity:1;stroke-width:2.54196;stroke-linecap:square"
     id="rect468"
     width="1"
     height="84"
     x="33"
     y="6" />
  <path
     id="rect2154"
     style="fill:#37474f;fill-opacity:1;stroke-width:3;stroke-linecap:square"
     d="M 24,6.0000003 C 14.02801,6.0000003 5.9999997,14.02801 5.9999997,24 v 48 c 0,9.97199 8.0280103,18 18.0000003,18 z" />
  <path
     d="M 24,6.0000003 C 14.028011,6.0000003 6,14.028011 6,24 v 1 C 6,15.028011 14.028011,7 24,7 h 48 c 9.97199,0 18,8.028011 18,18 V 24 C 90,14.028011 81.97199,6.0000003 72,6.0000003 Z"
     style="opacity:0.1;fill:#ffffff;stroke-width:6;stroke-linecap:square"
     id="path1040" />
</svg>
