<?xml version="1.0" encoding="UTF-8" standalone="no"?>
<!-- Created with Inkscape (http://www.inkscape.org/) -->

<svg
   width="96"
   height="96"
   viewBox="0 0 96 96"
   version="1.1"
   id="svg5"
   inkscape:version="1.3 (0e150ed6c4, 2023-07-21)"
   sodipodi:docname="sheets.svg"
   xmlns:inkscape="http://www.inkscape.org/namespaces/inkscape"
   xmlns:sodipodi="http://sodipodi.sourceforge.net/DTD/sodipodi-0.dtd"
   xmlns="http://www.w3.org/2000/svg"
   xmlns:svg="http://www.w3.org/2000/svg">
  <sodipodi:namedview
     id="namedview7"
     pagecolor="#ffffff"
     bordercolor="#000000"
     borderopacity="0.25"
     inkscape:showpageshadow="2"
     inkscape:pageopacity="0.0"
     inkscape:pagecheckerboard="0"
     inkscape:deskcolor="#d1d1d1"
     inkscape:document-units="px"
     showgrid="false"
     inkscape:zoom="8.3645833"
     inkscape:cx="48"
     inkscape:cy="48"
     inkscape:window-width="1850"
     inkscape:window-height="1011"
     inkscape:window-x="70"
     inkscape:window-y="32"
     inkscape:window-maximized="1"
     inkscape:current-layer="svg5" />
  <defs
     id="defs2" />
  <rect
     style="opacity:0.2;fill:#000000;stroke-width:6;stroke-linecap:square"
     id="rect234"
     width="84"
     height="84"
     x="6"
     y="7"
     ry="18" />
  <rect
     style="fill:#efefef;fill-opacity:1;stroke-width:6;stroke-linecap:square"
     id="rect396"
     width="84"
     height="84"
     x="6"
     y="6"
     ry="18" />
  <rect
     style="opacity:0.2;stroke-width:3"
     width="60"
     height="39"
     x="18"
     y="40"
     ry="4.5"
     id="rect1" />
  <rect
     style="fill:#a8aebd;stroke-width:3"
     width="60"
     height="39"
     x="18"
     y="39"
     ry="4.5"
     id="rect2" />
  <path
     style="opacity:0.2;stroke-width:3"
     d="m 24,58 v 6 h 6 v -6 z m 9,0 v 6 h 6 v -6 z m 9,0 v 6 h 18 v -6 z m 21,0 v 6 h 9 v -6 z m -39,9 v 6 h 6 v -6 z m 9,0 v 6 h 6 v -6 z m 9,0 v 6 h 18 v -6 z m 21,0 v 6 h 9 v -6 z"
     id="path2" />
  <path
     id="path3"
     style="opacity:0.1;fill:#ffffff;stroke-width:3"
     d="M 22.5 39 C 20.007002 39 18 41.007002 18 43.5 L 18 44.5 C 18 42.007002 20.007002 40 22.5 40 L 73.5 40 C 75.992998 40 78 42.007002 78 44.5 L 78 43.5 C 78 41.007002 75.992998 39 73.5 39 L 22.5 39 z " />
  <rect
     style="fill:#00db94;stroke-width:3"
     width="6"
     height="13.5"
     x="30"
     y="36"
     id="rect3" />
  <rect
     style="fill:#f95757;stroke-width:3"
     width="6"
     height="19.5"
     x="36"
     y="30"
     id="rect4" />
  <rect
     style="fill:#0eaff8;stroke-width:3"
     width="6"
     height="27"
     x="42"
     y="24"
     id="rect5" />
  <rect
     style="fill:#f95757;stroke-width:3"
     width="6"
     height="18"
     x="48"
     y="33"
     id="rect6" />
  <rect
     style="fill:#00db94;stroke-width:3"
     width="6"
     height="31.5"
     x="54"
     y="18"
     id="rect7" />
  <rect
     style="fill:#f95757;stroke-width:3"
     width="6"
     height="25.5"
     x="60"
     y="24"
     id="rect8" />
  <rect
     style="fill:#eff0f1;stroke-width:3"
     width="6"
     height="6"
     x="24"
     y="57"
     id="rect9" />
  <rect
     style="fill:#eff0f1;stroke-width:3"
     width="18"
     height="6"
     x="42"
     y="57"
     id="rect10" />
  <rect
     style="fill:#eff0f1;stroke-width:3"
     width="9"
     height="6"
     x="63"
     y="57"
     id="rect11" />
  <path
     style="opacity:0.2;stroke-width:3"
     d="M 27,52 V 47.153848 C 29.625003,47.153848 29.625003,43 32.25,43 c 2.625,0 1.96875,6 5.25,6 3.281253,0 2.625,-6.692307 5.25,-6.692307 2.625003,0 2.625003,-6.807693 5.250003,-6.807693 C 50.625,35.5 50.625,43 53.25,43 c 2.625003,0 2.625003,-3.923076 5.250003,-3.923076 2.625,0 2.625,-8.076924 5.249997,-8.076924 2.625,0 2.625,11.307693 5.25,11.307693 V 52 Z"
     id="path11" />
  <path
     style="fill:#ffbb27;stroke-width:3"
     d="M 27,51 V 46.153848 C 29.625003,46.153848 29.625003,42 32.25,42 c 2.625,0 1.96875,6 5.25,6 3.281253,0 2.625,-6.692307 5.25,-6.692307 2.625003,0 2.625003,-6.807693 5.250003,-6.807693 C 50.625,34.5 50.625,42 53.25,42 c 2.625003,0 2.625003,-3.923076 5.250003,-3.923076 2.625,0 2.625,-8.076924 5.249997,-8.076924 2.625,0 2.625,11.307693 5.25,11.307693 V 51 Z"
     id="path12" />
  <rect
     style="fill:#eff0f1;stroke-width:3"
     width="6"
     height="6"
     x="33"
     y="57"
     id="rect12" />
  <rect
     style="fill:#eff0f1;stroke-width:3"
     width="6"
     height="6"
     x="24"
     y="66"
     id="rect13" />
  <rect
     style="fill:#eff0f1;stroke-width:3"
     width="18"
     height="6"
     x="42"
     y="66"
     id="rect14" />
  <rect
     style="fill:#eff0f1;stroke-width:3"
     width="9"
     height="6"
     x="63"
     y="66"
     id="rect15" />
  <rect
     style="fill:#eff0f1;stroke-width:3"
     width="6"
     height="6"
     x="33"
     y="66"
     id="rect16" />
  <rect
     fill="#4d4d4d"
     width="2"
     height="2"
     x="26"
     y="59"
     id="rect12-3"
     style="stroke-width:1" />
  <rect
     style="fill:#4d4d4d;stroke-width:1.08012"
     width="7"
     height="2"
     x="44"
     y="59"
     id="rect13-5" />
  <rect
     style="fill:#00db94;stroke-width:0.999996"
     width="4"
     height="2"
     x="65.5"
     y="59"
     id="rect14-6" />
  <rect
     style="fill:#f95757;stroke-width:1"
     width="2"
     height="2"
     x="35"
     y="59"
     id="rect16-2" />
  <rect
     style="fill:#0eaff8;stroke-width:1"
     width="2"
     height="2"
     x="26"
     y="68"
     id="rect20" />
  <rect
     style="fill:#ffbb27;stroke-width:1.08012"
     width="7"
     height="2"
     x="44"
     y="68"
     id="rect21" />
  <rect
     style="fill:#f95757;stroke-width:1"
     width="4"
     height="2"
     x="65.5"
     y="68"
     id="rect22" />
  <rect
     fill="#4d4d4d"
     width="2"
     height="2"
     x="35"
     y="68"
     id="rect24"
     style="stroke-width:1" />
  <path
     id="path16"
     style="opacity:0.2;fill:#ffffff;stroke-width:3"
     d="M 54 18 L 54 19 L 60 19 L 60 18 L 54 18 z M 42 24 L 42 25 L 48 25 L 48 24 L 42 24 z M 60 24 L 60 25 L 66 25 L 66 24 L 60 24 z M 36 30 L 36 31 L 42 31 L 42 30 L 36 30 z M 48 33 L 48 34 L 54 34 L 54 33 L 48 33 z M 30 36 L 30 37 L 36 37 L 36 36 L 30 36 z " />
  <path
     id="path17"
     style="opacity:0.2;fill:#ffffff;stroke-width:3"
     d="M 63.75 30 C 61.125006 30 61.124997 38.078125 58.5 38.078125 C 55.875003 38.078125 55.875 42 53.25 42 C 50.625003 42 50.624997 34.5 48 34.5 C 45.375003 34.5 45.374997 41.308594 42.75 41.308594 C 40.125003 41.308594 40.78125 48 37.5 48 C 34.218753 48 34.874997 42 32.25 42 C 29.625003 42 29.625 46.154297 27 46.154297 L 27 47.154297 C 29.625 47.154297 29.625003 43 32.25 43 C 34.874997 43 34.218753 49 37.5 49 C 40.78125 49 40.125003 42.308594 42.75 42.308594 C 45.374997 42.308594 45.375003 35.5 48 35.5 C 50.624997 35.5 50.625003 43 53.25 43 C 55.875 43 55.875003 39.078125 58.5 39.078125 C 61.124997 39.078125 61.125006 31 63.75 31 C 66.374997 31 66.375003 42.308594 69 42.308594 L 69 41.308594 C 66.375003 41.308594 66.374997 30 63.75 30 z " />
  <path
     id="path1040"
     style="opacity:0.2;fill:#ffffff;stroke-width:6;stroke-linecap:square"
     d="M 24 6 C 14.02802 6 6 14.028021 6 24 L 6 25 C 6 15.02802 14.02802 7 24 7 L 72 7 C 81.971978 7 90 15.02802 90 25 L 90 24 C 90 14.028021 81.971978 6 72 6 L 24 6 z " />
</svg>
