<?xml version="1.0" encoding="UTF-8" standalone="no"?>
<!-- Created with Inkscape (http://www.inkscape.org/) -->

<svg
   width="96"
   height="96"
   viewBox="0 0 96 96"
   version="1.1"
   id="svg5"
   inkscape:version="1.3.2 (091e20ef0f, 2023-11-25, custom)"
   sodipodi:docname="syncthing-gtk.svg"
   xmlns:inkscape="http://www.inkscape.org/namespaces/inkscape"
   xmlns:sodipodi="http://sodipodi.sourceforge.net/DTD/sodipodi-0.dtd"
   xmlns="http://www.w3.org/2000/svg"
   xmlns:svg="http://www.w3.org/2000/svg">
  <sodipodi:namedview
     id="namedview7"
     pagecolor="#ffffff"
     bordercolor="#000000"
     borderopacity="0.25"
     inkscape:showpageshadow="2"
     inkscape:pageopacity="0.0"
     inkscape:pagecheckerboard="0"
     inkscape:deskcolor="#d1d1d1"
     inkscape:document-units="px"
     showgrid="false"
     inkscape:zoom="8.5625"
     inkscape:cx="48"
     inkscape:cy="48"
     inkscape:window-width="1920"
     inkscape:window-height="1008"
     inkscape:window-x="0"
     inkscape:window-y="0"
     inkscape:window-maximized="1"
     inkscape:current-layer="svg5" />
  <defs
     id="defs2" />
  <rect
     style="opacity:0.2;fill:#000000;stroke-width:6;stroke-linecap:square"
     id="rect234"
     width="84"
     height="84"
     x="6"
     y="7"
     ry="18" />
  <rect
     style="fill:#1ca4d4;fill-opacity:1;stroke-width:6;stroke-linecap:square"
     id="rect396"
     width="84"
     height="84"
     x="6"
     y="6"
     ry="18" />
  <path
     d="m 47.99718,19.00114 c -16.56852,0 -30,13.43148 -30,30 0,16.56852 13.43148,30 30,30 16.56852,0 30,-13.43148 30,-30 -0.012,-3.4956 -0.64002,-6.96174 -1.848,-10.242 l 0.0642,-0.048 -0.1584,-0.2226 c -4.37922,-11.7063 -15.5574,-19.47102 -28.056,-19.4886 z m 0,3 c 10.08504,0.0043 19.32708,5.62866 23.9646,14.5842 l -18.72,13.377 -31.9392,2.9004 c -0.1938,-1.27824 -0.2958,-2.56878 -0.3048,-3.8616 0,-14.91168 12.08832,-27 27,-27 z m 25.617,18.5682 c 0.90462,2.71956 1.37046,5.56578 1.38,8.4318 -0.006,7.10934 -2.81916,13.92876 -7.824,18.978 l -10.299,-15.4506 z m -20.6718,13.635 11.0214,16.5294 c -4.62738,3.41166 -10.22292,5.25726 -15.972,5.268 -11.81964,-0.012 -22.25676,-7.71282 -25.758,-19.002 l 30.7032,-2.7948 z"
     style="opacity:0.2;fill:#000000;stroke-width:6"
     id="path2451" />
  <path
     d="m 47.99778,18.0012 c -16.56852,0 -30,13.43148 -30,30 0,16.56852 13.43148,30 30,30 16.56852,0 30,-13.43148 30,-30 -0.012,-3.4956 -0.64002,-6.96174 -1.848,-10.242 l 0.0642,-0.048 -0.1584,-0.2226 C 71.67636,25.7823 60.49818,18.01758 47.99958,18 Z m 0,3 c 10.08504,0.0043 19.32702,5.62866 23.9646,14.5842 l -18.72,13.377 -31.9392,2.9004 c -0.1938,-1.27824 -0.2958,-2.56878 -0.3048,-3.8616 0,-14.91168 12.08832,-27 27,-27 z m 25.617,18.5682 c 0.90462,2.71956 1.37046,5.56578 1.38,8.4318 -0.006,7.10934 -2.81916,13.92876 -7.824,18.978 l -10.299,-15.4506 z m -20.6718,13.635 11.0214,16.5294 c -4.62738,3.41166 -10.22292,5.25726 -15.972,5.268 -11.81964,-0.012 -22.25676,-7.71282 -25.758,-19.002 l 30.7032,-2.7948 z"
     style="fill:#ffffff;stroke-width:6"
     id="path2314"
     sodipodi:nodetypes="csscccccccccccccccccccccccc" />
  <path
     d="m 75,31.00108 c -3.31368,0 -6,2.68632 -6,6 0,3.31368 2.68632,6 6,6 3.31368,0 6,-2.68632 6,-6 0,-3.31368 -2.68632,-6 -6,-6 z m -21,15 c -3.31368,0 -6,2.68632 -6,6 0,3.31368 2.68632,6 6,6 3.31368,0 6,-2.68632 6,-6 0,-3.31368 -2.68632,-6 -6,-6 z m -33,3 c -3.31368,0 -6,2.68632 -6,6 0,3.31368 2.68632,6 6,6 3.31368,0 6,-2.68632 6,-6 0,-3.31368 -2.68632,-6 -6,-6 z m 45,15 c -3.31368,0 -6,2.68626 -6,6 0,3.31368 2.68632,6 6,6 3.31368,0 6,-2.68632 6,-6 0,-3.31374 -2.68632,-6 -6,-6 z"
     id="path2395"
     sodipodi:nodetypes="ssssssssssssssssssss"
     style="opacity:0.2;fill:#000000;stroke-width:6" />
  <path
     d="m 75,30.00108 c -3.31368,0 -6,2.68632 -6,6 0,3.31368 2.68632,6 6,6 3.31368,0 6,-2.68632 6,-6 0,-3.31368 -2.68632,-6 -6,-6 z m -21,15 c -3.31374,0 -6,2.68632 -6,6 0,3.31368 2.68626,6 6,6 3.31368,0 6,-2.68632 6,-6 0,-3.31368 -2.68632,-6 -6,-6 z m -33,3 c -3.31374,0 -6,2.68632 -6,6 0,3.31368 2.68626,6 6,6 3.31368,0 6,-2.68632 6,-6 0,-3.31368 -2.68632,-6 -6,-6 z m 45,15 c -3.31368,0 -6,2.68626 -6,6 0,3.31368 2.68632,6 6,6 3.31368,0 6,-2.68632 6,-6 0,-3.31374 -2.68632,-6 -6,-6 z"
     id="path2423"
     style="fill:#ffffff;stroke-width:6" />
  <path
     id="path1040"
     style="opacity:0.2;fill:#ffffff;stroke-width:6;stroke-linecap:square"
     d="M 24 6 C 14.02802 6 6 14.028021 6 24 L 6 25 C 6 15.028021 14.02802 7 24 7 L 72 7 C 81.971978 7 90 15.028021 90 25 L 90 24 C 90 14.028021 81.971978 6 72 6 L 24 6 z " />
</svg>
