<?xml version="1.0" encoding="UTF-8" standalone="no"?>
<!-- Created with Inkscape (http://www.inkscape.org/) -->

<svg
   width="96"
   height="96"
   viewBox="0 0 96 96"
   version="1.1"
   id="svg5"
   inkscape:version="1.2.2 (1:1.2.2+202305151914+b0a8486541)"
   sodipodi:docname="teamviewer.svg"
   xmlns:inkscape="http://www.inkscape.org/namespaces/inkscape"
   xmlns:sodipodi="http://sodipodi.sourceforge.net/DTD/sodipodi-0.dtd"
   xmlns="http://www.w3.org/2000/svg"
   xmlns:svg="http://www.w3.org/2000/svg">
  <sodipodi:namedview
     id="namedview7"
     pagecolor="#ffffff"
     bordercolor="#000000"
     borderopacity="0.25"
     inkscape:showpageshadow="2"
     inkscape:pageopacity="0.0"
     inkscape:pagecheckerboard="0"
     inkscape:deskcolor="#d1d1d1"
     inkscape:document-units="px"
     showgrid="false"
     inkscape:zoom="8.3958333"
     inkscape:cx="47.940447"
     inkscape:cy="48"
     inkscape:window-width="1920"
     inkscape:window-height="1008"
     inkscape:window-x="0"
     inkscape:window-y="0"
     inkscape:window-maximized="1"
     inkscape:current-layer="svg5" />
  <defs
     id="defs2" />
  <rect
     style="opacity:0.2;fill:#000000;stroke-width:6;stroke-linecap:square"
     id="rect234"
     width="84"
     height="84"
     x="6"
     y="7"
     ry="18" />
  <rect
     style="fill:#4e7ad9;fill-opacity:1;stroke-width:6;stroke-linecap:square"
     id="rect396"
     width="84"
     height="84"
     x="6"
     y="6"
     ry="18" />
  <path
     id="path2174"
     style="opacity:0.2;fill:#000000;stroke-width:1.5"
     d="M 48 18 A 31 31 0 0 0 17 49 A 31 31 0 0 0 48 80 A 31 31 0 0 0 79 49 A 31 31 0 0 0 48 18 z M 36 37 L 36 43 L 60 43 L 60 37 L 76.5 49 L 60 61 L 60 55 L 36 55 L 36 61 L 19.5 49 L 36 37 z " />
  <path
     id="path1658"
     style="fill:#ffffff;stroke-width:1.5"
     d="M 48 17 A 31 31 0 0 0 17 48 A 31 31 0 0 0 48 79 A 31 31 0 0 0 79 48 A 31 31 0 0 0 48 17 z M 36 36 L 36 42 L 60 42 L 60 36 L 76.5 48 L 60 60 L 60 54 L 36 54 L 36 60 L 19.5 48 L 36 36 z " />
  <path
     id="path1040"
     style="opacity:0.2;fill:#ffffff;stroke-width:6;stroke-linecap:square"
     d="M 24,6 C 14.02803,6 6,14.02803 6,24 v 1 C 6,15.02801 14.02801,7 24,7 h 48 c 9.97199,0 18,8.02801 18,18 V 24 C 90,14.02803 81.971968,6 72,6 Z" />
</svg>
