<?xml version="1.0" encoding="UTF-8" standalone="no"?>
<!-- Created with Inkscape (http://www.inkscape.org/) -->

<svg
   width="96"
   height="96"
   viewBox="0 0 96 96"
   version="1.1"
   id="svg5"
   inkscape:version="1.2.2 (1:1.2.2+202305151914+b0a8486541)"
   sodipodi:docname="thunderbird.svg"
   xmlns:inkscape="http://www.inkscape.org/namespaces/inkscape"
   xmlns:sodipodi="http://sodipodi.sourceforge.net/DTD/sodipodi-0.dtd"
   xmlns="http://www.w3.org/2000/svg"
   xmlns:svg="http://www.w3.org/2000/svg">
  <sodipodi:namedview
     id="namedview7"
     pagecolor="#ffffff"
     bordercolor="#000000"
     borderopacity="0.25"
     inkscape:showpageshadow="2"
     inkscape:pageopacity="0.0"
     inkscape:pagecheckerboard="0"
     inkscape:deskcolor="#d1d1d1"
     inkscape:document-units="px"
     showgrid="false"
     inkscape:zoom="8.3958333"
     inkscape:cx="48"
     inkscape:cy="48"
     inkscape:window-width="1920"
     inkscape:window-height="1008"
     inkscape:window-x="0"
     inkscape:window-y="0"
     inkscape:window-maximized="1"
     inkscape:current-layer="svg5" />
  <defs
     id="defs2" />
  <rect
     style="opacity:0.2;fill:#000000;stroke-width:6;stroke-linecap:square"
     id="rect234"
     width="84"
     height="84"
     x="6"
     y="7"
     ry="18" />
  <rect
     style="fill:#294668;fill-opacity:1;stroke-width:6;stroke-linecap:square"
     id="rect396"
     width="84"
     height="84"
     x="6"
     y="6"
     ry="18" />
  <g
     id="g860"
     transform="matrix(1.5,0,0,1.5,-480.72927,-126.54293)">
    <path
       style="opacity:0.2"
       d="m 348.48569,97.029287 c -3.13184,0.08359 -5.22231,3.049513 -6.57617,5.613273 -0.24669,0.13082 -0.49456,0.25642 -0.74024,0.39258 -2.4881,1.67279 -4.52576,3.9889 -6.09961,6.52344 -1.38441,2.44364 -2.22331,5.16179 -2.53515,7.94726 -0.18532,2.82408 0.13773,5.70169 1.20117,8.34375 0.82426,2.32214 2.27528,4.3694 4.13281,5.95899 2.46608,1.64557 4.9261,3.33536 7.61719,3.2207 -1.00034,-0.57837 -4.21604,-2.69855 -5,-7 0.83227,1.63003 4.87229,4.50381 6,5 -0.56024,-0.52317 -1.82331,-3.74964 -1.9707,-5.5918 l -7.7793,-2.38476 c -0.63393,-2.00521 -1.01122,-4.07896 -1.24219,-6.19922 -0.0295,-0.47378 -0.0887,-0.98762 0.082,-0.86133 0.63855,1.01205 1.80167,1.4625 2.91016,2.03711 -1.05125,-1.65341 -1.14547,-3.67911 -0.97266,-5.64453 0.1734,-1.97211 0.61784,-3.88402 1.83985,-5.30078 0.0734,-0.0841 0.15745,-0.16275 0.23242,-0.24609 0.0442,0.42704 0.0987,0.85232 0.14844,1.26562 -0.0176,0.37974 0.35798,1.1775 0.17578,1.25781 -0.36756,1.11036 -0.71681,2.54221 0.16211,3.51172 0.27838,-1.25496 1.78982,-1.85887 2.86914,-2.38672 1.22009,-0.5297 2.20795,-1.33196 3.41601,-1.88867 1.59191,-0.91319 3.1289,0.43164 5.17383,0.43164 1.95507,0 4.02044,-1.13006 5.95508,-2 0.45026,0.46577 1.25533,1.2227 1.60742,1.77539 h -0.004 c 1.00841,1.61275 2.1356,3.48621 2.36524,5.32617 0.28655,2.40667 -0.53988,5.07408 -1.9629,6.89649 -1.6e-4,3e-5 -0.0118,0.004 -0.0117,0.004 4e-5,0 0.01,-3e-5 0.01,0 0.0293,0.004 2.29372,-0.38618 3.9961,-2.00195 -1.2146,9.39134 -6.96751,14.68849 -10,16 4.03684,0.27167 6.99443,-2 7,-2 0.005,0 -0.56026,1.1397 -2,2 2.63787,-0.73864 4.13225,-0.98464 5.79687,-2.19922 -6.2e-4,0 1.35252,-0.7361 2.76368,-2.34571 0.18773,-0.21413 0.50985,-0.51199 0.70312,-0.75586 0.12015,-0.15159 0.23219,-0.30666 0.34961,-0.45898 0.0207,-0.025 0.0445,-0.0488 0.0644,-0.0742 2.97012,-3.6334 4.41583,-8.15045 4.30859,-12.24414 0.0208,-4.96248 -1.99359,-9.27082 -5.37695,-12.83203 -2.44685,-2.57542 -5.22599,-4.15121 -7.72855,-5.0039 -2.79184,-0.8017 -6.14076,-1.201505 -8.8457,-0.95313 -0.43231,0.0127 -0.73078,0.0295 -1.36524,0.084 -0.0906,-0.251605 0.0609,-1.025432 0.33008,-1.216793 -0.60034,0.0562 -1.15333,0.826748 -1.66602,1.376953 -0.10165,0.0188 -0.19004,0.0411 -0.2832,0.0625 0.46662,-0.808646 0.9462,-1.716077 1.50195,-2.439453 -1.73464,0.323799 -2.49175,1.690438 -3.33984,2.947263 -0.26556,0.0874 -0.52297,0.19246 -0.7832,0.29101 0.62204,-1.863663 1.84872,-2.814357 3.57031,-4.238273 z"
       id="path597" />
    <path
       style="fill:#304776"
       d="m 338.81186,129.11976 c 1.73666,2.49778 4.11456,4.84758 6.67383,5.24219 -1.00034,-0.57837 -4.21604,-2.69855 -5,-7 0.83227,1.63003 4.87229,4.50381 6,5 -0.56024,-0.52317 -1.82331,-3.74964 -1.9707,-5.59179 l -7.80504,-2.39349 c 0.0449,0.0684 0.20454,2.07442 2.10191,4.74309 z"
       id="path601" />
    <path
       style="opacity:0.2"
       d="m 364.48569,112.02884 -13,-4.55895 -13.93181,0.92835 -3.55568,4.43728 c 0.63268,4.10179 0.23958,8.54199 2.44291,12.12558 l 23.04458,7.06774 4.97919,-8.73399 z"
       id="path603" />
    <path
       style="fill:#ebebeb"
       d="m 364.48569,111.36195 -13,-4.55895 -13.93181,0.92835 -3.55568,4.43728 c 0.63268,4.10179 0.23958,8.54199 2.44291,12.12558 l 23.04458,7.06774 4.97919,-8.73399 z"
       id="path605" />
    <path
       style="opacity:0.2"
       d="m 363.42827,114.52894 -1.92873,-6.33585 -23.59084,-0.23677 -0.13375,0.16481 -0.22107,0.27711 8.93181,12.6306 z"
       id="path607" />
    <path
       style="fill:#3f7da7;fill-rule:evenodd"
       d="m 337.88738,107.4648 2.34711,0.33522 0.64439,-3.14113 -1.28877,0.62822 z"
       id="path609" />
    <path
       style="fill:#f7f7f7"
       d="m 363.42827,113.86205 -1.92873,-6.33585 -23.59084,-0.23677 -0.13375,0.16481 -0.22107,0.27711 8.93181,12.6306 z"
       id="path611" />
    <path
       style="fill:#2f67a4"
       d="m 351.43491,99.461562 c -0.002,5.66e-4 -2.9661,0.01428 -4.25977,0.429687 -2.15565,0.497461 -4.08964,1.414491 -6.00586,2.476561 -2.4881,1.67279 -4.52576,3.9889 -6.09961,6.52344 -1.38441,2.44364 -2.22331,5.16179 -2.53515,7.94726 -0.18532,2.82408 0.13773,5.70169 1.20117,8.34375 0.82426,2.32214 2.27528,4.3694 4.13281,5.95899 2.46608,1.64557 4.9261,3.33536 7.61719,3.2207 -2.55927,-0.39461 -4.93717,-2.74441 -6.67383,-5.24219 -1.89737,-2.66867 -2.05664,-4.67382 -2.10156,-4.74218 l 0.0254,0.008 c -0.63393,-2.00521 -1.01122,-4.07896 -1.24219,-6.19922 -0.0295,-0.47378 -0.0887,-0.98762 0.082,-0.86133 0.63855,1.01205 1.80167,1.4625 2.91016,2.03711 -1.05125,-1.65341 -1.14547,-3.67911 -0.97266,-5.64453 0.1734,-1.97211 0.61784,-3.88402 1.83985,-5.30078 3.20151,-3.66516 7.87298,-6.63025 12.08203,-8.955078 z m -5.94922,34.900388 c -0.1255,-0.11348 -0.25727,-0.18646 -0.39258,-0.24219 0.14707,0.0945 0.28835,0.18193 0.39258,0.24219 z"
       id="path613" />
    <path
       style="fill:#4a96e1"
       d="m 348.48568,96.361957 c -3.38715,0.0904 -5.56667,3.559056 -6.9015,6.236183 -0.48081,0.85093 -1.12235,1.86066 -1.54232,2.66438 -0.80379,1.26658 -0.47495,2.78771 -0.30834,4.17341 -0.0175,0.37973 0.35824,1.17699 0.17604,1.2573 -0.36756,1.11036 -0.71782,2.54314 0.1611,3.51266 0.27838,-1.25496 1.79094,-1.85965 2.87025,-2.3875 1.22009,-0.5297 2.20768,-1.33216 3.41575,-1.88886 1.5919,-0.91319 3.12903,0.43242 5.17396,0.43242 1.95507,0 4.02043,-1.13006 5.95507,-2 0.45026,0.46578 1.25556,1.2223 1.60765,1.775 h -0.005 c 1.00841,1.61274 2.13571,3.48754 2.36535,5.3275 0.28656,2.40667 -0.53932,5.07385 -1.96234,6.89625 -1.6e-4,3e-5 -0.0114,0.003 -0.0113,0.003 4e-5,0 0.01,-2e-5 0.0101,0 0.0293,0.004 2.29322,-0.38547 3.9956,-2.00125 -1.2146,9.39135 -6.96751,14.6885 -10,16 4.03684,0.27168 6.99443,-2 7,-2 0.005,0 -0.56026,1.13971 -2,2 2.63787,-0.73863 4.13212,-0.98443 5.79675,-2.19901 -6.3e-4,0 1.35265,-0.73636 2.76381,-2.34596 0.18773,-0.21414 0.51026,-0.51128 0.70353,-0.75514 0.12015,-0.1516 0.2312,-0.30706 0.34863,-0.45938 0.0207,-0.0251 0.0443,-0.0489 0.0642,-0.0743 2.97011,-3.6334 4.41656,-8.15089 4.30932,-12.24458 0.0208,-4.96248 -1.99325,-9.27029 -5.37662,-12.83149 -2.44681,-2.57543 -5.22566,-4.15092 -7.72822,-5.0036 -3.24237,-0.931076 -7.2428,-1.328014 -10.10439,-0.786578 -0.27099,0.0906 -0.11145,-1.062212 0.223,-1.3 -0.80232,0.07511 -1.51988,1.425972 -2.17,1.821818 0.53354,-0.883941 1.08156,-1.986473 1.72333,-2.821818 -2.38583,0.445353 -2.92354,2.865338 -4.39023,4.255768 0.48322,-2.583662 1.82608,-3.592631 3.8369,-5.255768 z"
       id="path615" />
    <path
       style="fill:#4271a3"
       d="m 341.89946,110.36195 c 4.44487,-0.12793 1.65401,-2.88269 7.58623,-8 -4.83295,2.50236 -9.43299,2.4989 -7.58049,8 h -0.006 z"
       id="path617" />
    <path
       style="fill:#ffffff"
       d="m 344.29177,108.68143 c -0.31963,0.58382 -1.06545,0.81912 -1.47804,0.59936 -0.42165,-0.21977 -0.41938,-0.95454 -0.093,-1.53837 0.31511,-0.58382 1.707,-0.32188 1.7138,-0.32188 0.007,0 0.17682,0.67928 -0.14282,1.26089 z"
       id="path619" />
    <path
       style="fill:#5c5f60"
       d="m 342.36286,112.06235 c 0,0 0.25658,-0.24761 0.12283,-0.7004 -1.5995,0.52885 -2.52787,-1.00221 -2.52229,-1.00221 0.005,0 -1.05671,2.87749 0.0969,4.00221 0.12447,-1.17724 2.24308,-2.23802 2.24866,-2.23802"
       id="path621" />
    <path
       id="path623"
       style="opacity:0.1;fill:#ffffff"
       d="m 348.48618,96.361953 c -0.20133,0.0054 -0.39704,0.02376 -0.58984,0.05208 -0.0882,0.01296 -0.17398,0.03328 -0.26042,0.05078 -0.10657,0.02155 -0.21379,0.04215 -0.31771,0.07031 -0.0894,0.02426 -0.1768,0.0557 -0.26432,0.08464 -0.0924,0.03055 -0.18448,0.05951 -0.27474,0.09505 -0.0928,0.03656 -0.18283,0.07951 -0.27344,0.121094 -0.0866,0.03977 -0.17321,0.07956 -0.25781,0.123698 -0.0739,0.03855 -0.14633,0.07937 -0.21875,0.121093 -0.10044,0.05792 -0.19936,0.117296 -0.29688,0.18099 -0.0671,0.04376 -0.13352,0.08909 -0.19922,0.135417 -0.0695,0.04906 -0.13774,0.100551 -0.20572,0.152343 -0.16181,0.123093 -0.31145,0.265297 -0.46485,0.402344 -0.15801,0.141406 -0.31561,0.280862 -0.46484,0.434896 -0.13675,0.140832 -0.26626,0.28792 -0.39584,0.4375 -0.12987,0.150285 -0.2587,0.299668 -0.38151,0.457031 -0.13834,0.176765 -0.26884,0.355713 -0.39843,0.539063 -0.0946,0.134206 -0.18858,0.265778 -0.27865,0.402348 -0.14434,0.21834 -0.28116,0.4351 -0.41406,0.65625 -0.0553,0.0923 -0.10934,0.18377 -0.16276,0.27604 -0.16026,0.27634 -0.3112,0.54657 -0.45443,0.81771 -4e-4,7.6e-4 -0.003,0.002 -0.003,0.003 -0.24669,0.13082 -0.49392,0.25706 -0.73959,0.39323 -2.48808,1.67278 -4.52642,3.9889 -6.10026,6.52344 -1.38441,2.44365 -2.22331,5.16115 -2.53515,7.94662 -0.0353,0.53877 -0.0444,1.07926 -0.0404,1.61978 0.008,-0.31803 0.0209,-0.63603 0.0417,-0.95313 0.31184,-2.78546 1.14944,-5.50297 2.53385,-7.9466 1.57385,-2.53454 3.61218,-4.85065 6.10026,-6.52344 0,0 -0.21262,0.29616 -0.47005,0.66406 0.13336,-0.0962 0.26758,-0.19144 0.40365,-0.28385 -0.37836,0.63709 -0.7683,1.28713 -1.0612,1.84766 -0.44055,0.69419 -0.52632,1.46556 -0.4974,2.24869 0.0452,-0.55061 0.18265,-1.08606 0.4974,-1.58203 0.41997,-0.80372 1.06086,-1.81443 1.54167,-2.66536 1.21003,-2.42685 3.11439,-5.503496 5.98307,-6.125008 0.28783,-0.24858 0.5884,-0.503679 0.91927,-0.777344 z m 0.55208,1 c -0.1808,0.03375 -0.34899,0.08342 -0.50781,0.140625 -0.15435,0.05559 -0.29922,0.11751 -0.4388,0.188802 -0.005,0.0038 -0.007,0.0092 -0.0117,0.01302 -0.025,0.02071 -0.0442,0.03668 -0.069,0.05729 -0.49097,0.40614 -0.95836,0.79815 -1.35287,1.179687 -0.34404,0.439161 -0.65717,0.910387 -0.97526,1.373703 -0.0712,0.0242 -0.14046,0.0524 -0.21093,0.0781 -0.13365,0.22145 -0.25054,0.46065 -0.35938,0.71094 -0.005,0.006 -0.008,0.0125 -0.013,0.0182 -0.026,0.0609 -0.0456,0.13 -0.0703,0.19271 -0.0373,0.0955 -0.0796,0.18438 -0.11328,0.28515 0.003,-10e-4 0.005,-0.003 0.009,-0.004 -0.0638,0.18537 -0.12033,0.38035 -0.17318,0.58333 1.27006,-1.2838 1.86046,-3.322234 3.73178,-3.994793 0.17874,-0.288786 0.36051,-0.570175 0.55468,-0.822917 z m 0.44792,1 c -0.11993,0.01123 -0.23858,0.05595 -0.35417,0.121094 -0.0783,0.04381 -0.15495,0.10562 -0.23177,0.165365 -0.0325,0.02526 -0.0654,0.04323 -0.0976,0.07031 -5e-4,7.25e-4 -0.003,0.0019 -0.003,0.0026 -0.008,0.0066 -0.0156,0.01024 -0.0234,0.01693 -0.14881,0.217301 -0.28511,0.45755 -0.42578,0.690105 -0.1008,0.163558 -0.20323,0.319854 -0.30078,0.485677 -0.12293,0.212816 -0.23893,0.413596 -0.35677,0.618496 0.4555,-0.45619 0.9425,-1.145388 1.46745,-1.403653 0.0229,-0.150068 0.063,-0.309868 0.11979,-0.449218 0.0159,-0.03888 0.0273,-0.08269 0.0456,-0.117188 0.0465,-0.08785 0.10024,-0.157922 0.16016,-0.200521 z m 2.10677,1.063802 c -0.36794,0.01083 -0.72286,0.03672 -1.07161,0.06901 -0.0406,0.0038 -0.0847,0.0037 -0.125,0.0078 -0.33004,0.01196 -0.63186,0.02844 -1.06511,0.0638 -0.0137,0.02523 -0.0161,0.06219 -0.0286,0.08984 -0.007,0.0013 -0.0152,0.0026 -0.0221,0.0039 -0.0565,0.131523 -0.0923,0.282045 -0.11849,0.429685 -0.007,0.0396 -0.0111,0.0739 -0.0156,0.11198 -8.1e-4,0.007 -5.1e-4,0.0118 -10e-4,0.0182 0.0203,0.0809 0.0562,0.12975 0.11719,0.10937 2.86159,-0.541432 6.8631,-0.14462 10.10547,0.78646 2.50256,0.85269 5.28107,2.42848 7.72786,5.00392 3.32125,3.4958 5.31839,7.71217 5.3711,12.55988 0.005,-0.13279 0.009,-0.26502 0.005,-0.39583 0.0208,-4.96248 -1.99294,-9.27083 -5.37631,-12.83203 -2.44687,-2.57543 -5.2266,-4.15122 -7.72916,-5.00391 -0.56218,-0.16143 -1.14858,-0.30288 -1.7461,-0.42969 -0.24361,-0.05179 -0.49106,-0.09109 -0.73828,-0.13671 -0.3607,-0.06639 -0.71847,-0.13117 -1.08333,-0.183594 -0.28042,-0.0405 -0.55781,-0.06973 -0.83854,-0.101563 -0.34679,-0.03908 -0.68849,-0.07378 -1.03255,-0.09896 -0.28226,-0.0209 -0.55768,-0.03579 -0.83594,-0.04687 -0.14545,-0.0057 -0.29616,-0.02049 -0.44011,-0.02344 -0.26962,-0.0055 -0.53127,-5.12e-4 -0.79427,0.0039 -0.0861,0.0014 -0.17902,-0.0064 -0.26432,-0.0039 z" />
  </g>
  <path
     id="path1040"
     style="opacity:0.1;fill:#ffffff;stroke-width:6;stroke-linecap:square"
     d="M 24,6 C 14.02803,6 6,14.02803 6,24 v 1 C 6,15.02803 14.02803,7 24,7 h 48 c 9.971968,0 18,8.02803 18,18 V 24 C 90,14.02803 81.971968,6 72,6 Z" />
</svg>
