<?xml version="1.0" encoding="UTF-8" standalone="no"?>
<!-- Created with Inkscape (http://www.inkscape.org/) -->

<svg
   width="96"
   height="96"
   viewBox="0 0 96 96"
   version="1.1"
   id="svg5"
   inkscape:version="1.3.2 (091e20ef0f, 2023-11-25, custom)"
   sodipodi:docname="touchpad-indicator.svg"
   xmlns:inkscape="http://www.inkscape.org/namespaces/inkscape"
   xmlns:sodipodi="http://sodipodi.sourceforge.net/DTD/sodipodi-0.dtd"
   xmlns="http://www.w3.org/2000/svg"
   xmlns:svg="http://www.w3.org/2000/svg">
  <sodipodi:namedview
     id="namedview7"
     pagecolor="#ffffff"
     bordercolor="#000000"
     borderopacity="0.25"
     inkscape:showpageshadow="2"
     inkscape:pageopacity="0.0"
     inkscape:pagecheckerboard="0"
     inkscape:deskcolor="#d1d1d1"
     inkscape:document-units="px"
     showgrid="false"
     inkscape:zoom="8.5625"
     inkscape:cx="48"
     inkscape:cy="48"
     inkscape:window-width="1920"
     inkscape:window-height="1008"
     inkscape:window-x="0"
     inkscape:window-y="0"
     inkscape:window-maximized="1"
     inkscape:current-layer="svg5" />
  <defs
     id="defs2" />
  <rect
     style="opacity:0.2;fill:#000000;stroke-width:6;stroke-linecap:square"
     id="rect234"
     width="84"
     height="84"
     x="6"
     y="7"
     ry="18" />
  <rect
     style="fill:#4f4f4f;fill-opacity:1;stroke-width:6;stroke-linecap:square"
     id="rect396"
     width="84"
     height="84"
     x="6"
     y="6"
     ry="18" />
  <path
     id="rect3"
     style="opacity:0.4;fill:#000000;stroke-width:3"
     d="M 15.75,66 C 13.672502,66 12,67.672503 12,69.75 V 72 c 0,6.647994 5.352007,12 12,12 H 41.25 C 43.327497,84 45,82.327497 45,80.25 V 69.75 C 45,67.672503 43.327497,66 41.25,66 Z" />
  <path
     id="rect4"
     style="opacity:0.4;fill:#000000;stroke-width:3"
     d="M 54.75,66 C 52.672503,66 51,67.672503 51,69.75 v 10.5 C 51,82.327497 52.672503,84 54.75,84 H 72 c 6.647994,0 12,-5.352006 12,-12 V 69.75 C 84,67.672503 82.327497,66 80.25,66 Z" />
  <rect
     width="12"
     height="3"
     x="72"
     y="21"
     id="rect5"
     style="opacity:0.4;fill:#000000;stroke-width:3" />
  <rect
     width="12"
     height="3"
     x="72"
     y="27"
     id="rect6"
     style="opacity:0.4;fill:#000000;stroke-width:3" />
  <rect
     width="12"
     height="3"
     x="72"
     y="33"
     id="rect7"
     style="opacity:0.4;fill:#000000;stroke-width:3" />
  <rect
     width="12"
     height="3"
     x="72"
     y="39"
     id="rect8"
     style="opacity:0.4;fill:#000000;stroke-width:3" />
  <rect
     width="12"
     height="3"
     x="72"
     y="45"
     id="rect9"
     style="opacity:0.4;fill:#000000;stroke-width:3" />
  <rect
     width="12"
     height="3"
     x="72"
     y="51"
     id="rect10"
     style="opacity:0.4;fill:#000000;stroke-width:3" />
  <path
     id="path1040"
     style="opacity:0.1;fill:#ffffff;stroke-width:6;stroke-linecap:square"
     d="M 24 6 C 14.02802 6 6 14.028021 6 24 L 6 25 C 6 15.028021 14.02802 7 24 7 L 72 7 C 81.971978 7 90 15.028021 90 25 L 90 24 C 90 14.028021 81.971978 6 72 6 L 24 6 z " />
</svg>
