<?xml version="1.0" encoding="UTF-8" standalone="no"?>
<!-- Created with Inkscape (http://www.inkscape.org/) -->

<svg
   width="96"
   height="96"
   viewBox="0 0 96 96"
   version="1.1"
   id="svg5"
   inkscape:version="1.3 (1:1.3+202307231459+0e150ed6c4)"
   sodipodi:docname="transmission.svg"
   xmlns:inkscape="http://www.inkscape.org/namespaces/inkscape"
   xmlns:sodipodi="http://sodipodi.sourceforge.net/DTD/sodipodi-0.dtd"
   xmlns="http://www.w3.org/2000/svg"
   xmlns:svg="http://www.w3.org/2000/svg">
  <sodipodi:namedview
     id="namedview7"
     pagecolor="#ffffff"
     bordercolor="#000000"
     borderopacity="0.25"
     inkscape:showpageshadow="2"
     inkscape:pageopacity="0.0"
     inkscape:pagecheckerboard="0"
     inkscape:deskcolor="#d1d1d1"
     inkscape:document-units="px"
     showgrid="false"
     inkscape:zoom="7.4791667"
     inkscape:cx="48"
     inkscape:cy="47.933148"
     inkscape:window-width="1920"
     inkscape:window-height="1008"
     inkscape:window-x="0"
     inkscape:window-y="0"
     inkscape:window-maximized="1"
     inkscape:current-layer="svg5" />
  <defs
     id="defs2" />
  <rect
     style="opacity:0.2;fill:#000000;stroke-width:6;stroke-linecap:square"
     id="rect234"
     width="84"
     height="84"
     x="6"
     y="7"
     ry="18" />
  <rect
     style="fill:#9f9f9f;fill-opacity:1;stroke-width:6;stroke-linecap:square"
     id="rect396"
     width="84"
     height="84"
     x="6"
     y="6"
     ry="18" />
  <rect
     style="opacity:0.2;fill:#000000;fill-opacity:1;stroke-width:6;stroke-linecap:square"
     id="rect3254"
     height="60"
     x="18"
     y="19"
     ry="9"
     width="60" />
  <rect
     style="fill:#ffffff;fill-opacity:1;stroke-width:6;stroke-linecap:square"
     id="rect3256"
     width="60"
     height="60"
     x="18"
     y="18"
     ry="9" />
  <path
     d="m 30,52.000003 18,18 18,-18 z"
     style="opacity:0.2;fill:#000000;stroke-width:3"
     id="path4182"
     sodipodi:nodetypes="cccc" />
  <path
     d="m 30,51.000003 18,18 18,-18 z"
     style="fill:#4a4a4a;stroke-width:3"
     id="path4210" />
  <path
     d="m 18,18.676585 c -2.20995,0.395613 -3,1.423014 -3,4.359375 v 6 c 0,3.177669 0.8484,3.967869 3,4.335936 20.26128,4.148949 38.91201,4.273449 60,0 2.1516,-0.368067 3,-1.158267 3,-4.335936 v -6 c 0,-2.936361 -0.79005,-3.963762 -3,-4.359375 -21.46101,-3.671715 -40.32726,-3.464328 -60,0 z"
     style="opacity:0.2;fill:#000000;stroke-width:1.5"
     id="path4402" />
  <path
     d="m 14.99946,22.000003 h 8.99838 c 1.65858,0 3.00216,1.119204 3.00216,2.499999 v 3.999999 c 0,1.380798 -1.34358,2.500002 -3.00216,2.500002 H 14.99946 C 13.34355,31.000003 12,29.880799 12,28.500001 v -3.999999 c 0,-1.380795 1.34355,-2.499999 2.99946,-2.499999 z"
     style="opacity:0.2;fill:#000000;stroke-width:1.5"
     id="path4359" />
  <path
     d="m 14.99946,21.000003 h 8.99838 c 1.65858,0 3.00216,1.119204 3.00216,2.499999 v 3.999999 c 0,1.380798 -1.34358,2.500002 -3.00216,2.500002 H 14.99946 C 13.34355,30.000003 12,28.880799 12,27.500001 v -3.999999 c 0,-1.380795 1.34355,-2.499999 2.99946,-2.499999 z"
     style="fill:#e4e4e4;stroke-width:1.5"
     id="path4331"
     sodipodi:nodetypes="sssssssss" />
  <path
     id="path3302"
     style="fill:#f64747;stroke-width:1.5"
     d="m 18,17.676585 c -2.20995,0.395613 -3,1.423014 -3,4.359375 v 6 c 0,3.177669 0.8484,3.967869 3,4.335936 20.26128,4.148949 38.91201,4.273449 60,0 2.1516,-0.368067 3,-1.158267 3,-4.335936 v -6 c 0,-2.936361 -0.79005,-3.963762 -3,-4.359375 -21.46101,-3.671715 -40.32726,-3.464328 -60,0 z"
     sodipodi:nodetypes="cssccsscc" />
  <rect
     style="fill:#ffffff;fill-opacity:1;stroke-width:3.92781;stroke-linecap:square"
     id="rect3380"
     width="18"
     height="8.6969995"
     x="39"
     y="15.303005" />
  <rect
     style="fill:#bfbfbf;fill-opacity:1;stroke-width:5.19615;stroke-linecap:square"
     id="rect3409"
     width="18"
     height="9"
     x="39"
     y="24" />
  <rect
     style="fill:#868686;fill-opacity:1;stroke-width:5.19615;stroke-linecap:square"
     id="rect3411"
     width="18"
     height="9"
     x="39"
     y="33" />
  <rect
     style="fill:#636363;fill-opacity:1;stroke-width:5.19615;stroke-linecap:square"
     id="rect3413"
     width="18"
     height="9"
     x="39"
     y="42" />
  <path
     id="rect4239"
     style="opacity:0.2;fill:#000000;fill-opacity:1;stroke-width:6;stroke-linecap:square"
     d="M 39 24 L 39 25 L 57 25 L 57 24 L 39 24 z M 39 33 L 39 34 L 57 34 L 57 33 L 39 33 z M 39 42 L 39 43 L 57 43 L 57 42 L 39 42 z M 39 51 L 39 52 L 57 52 L 57 51 L 39 51 z " />
  <path
     id="path4431"
     style="opacity:0.2;fill:#ffffff;stroke-width:1.5"
     d="M 47.332031 15 C 37.473771 15.0258 27.83636 15.945575 18 17.677734 C 15.790052 18.073347 15 19.100754 15 22.037109 L 15 23.035156 C 15 20.098798 15.790052 19.071394 18 18.675781 C 37.67272 15.211457 56.539011 15.00407 78 18.675781 C 80.209948 19.071394 81 20.098798 81 23.035156 L 81 22.037109 C 81 19.100754 80.209948 18.073347 78 17.677734 C 67.269521 15.84188 57.190291 14.974077 47.332031 15 z " />
  <path
     id="path1040"
     style="opacity:0.2;fill:#ffffff;stroke-width:6;stroke-linecap:square"
     d="M 24,6 C 14.02803,6 6,14.02803 6,24 v 1 C 6,15.02803 14.02803,7 24,7 h 48 c 9.971968,0 18,8.02803 18,18 V 24 C 90,14.02803 81.971968,6 72,6 Z" />
</svg>
