<?xml version="1.0" encoding="UTF-8" standalone="no"?>
<!-- Created with Inkscape (http://www.inkscape.org/) -->

<svg
   width="96"
   height="95.999252"
   viewBox="0 0 96 95.999252"
   version="1.1"
   id="svg5"
   inkscape:version="1.3 (0e150ed6c4, 2023-07-21)"
   sodipodi:docname="tuxpaint.svg"
   xmlns:inkscape="http://www.inkscape.org/namespaces/inkscape"
   xmlns:sodipodi="http://sodipodi.sourceforge.net/DTD/sodipodi-0.dtd"
   xmlns:xlink="http://www.w3.org/1999/xlink"
   xmlns="http://www.w3.org/2000/svg"
   xmlns:svg="http://www.w3.org/2000/svg">
  <sodipodi:namedview
     id="namedview7"
     pagecolor="#ffffff"
     bordercolor="#000000"
     borderopacity="0.25"
     inkscape:showpageshadow="2"
     inkscape:pageopacity="0.0"
     inkscape:pagecheckerboard="0"
     inkscape:deskcolor="#d1d1d1"
     inkscape:document-units="px"
     showgrid="false"
     inkscape:zoom="8.3333982"
     inkscape:cx="48.059626"
     inkscape:cy="47.999626"
     inkscape:window-width="1920"
     inkscape:window-height="1004"
     inkscape:window-x="0"
     inkscape:window-y="0"
     inkscape:window-maximized="1"
     inkscape:current-layer="svg5" />
  <defs
     id="defs2">
    <linearGradient
       xlink:href="#linearGradient1261"
       id="linearGradient1263"
       x1="34.241001"
       x2="37.168999"
       y1="38.945"
       y2="30.341999"
       gradientTransform="matrix(2.0878573,0,0,2.0833171,-3.4807605,-0.7298439)"
       gradientUnits="userSpaceOnUse" />
    <linearGradient
       id="linearGradient1261">
      <stop
         style="stop-color:#4f4f4f"
         offset="0"
         id="stop1" />
      <stop
         style="stop-color:#3f3f3f"
         offset="1"
         id="stop2" />
    </linearGradient>
  </defs>
  <rect
     style="opacity:0.2;fill:#000000;stroke-width:5.99995;stroke-linecap:square"
     id="rect234"
     width="83.999352"
     height="83.999352"
     x="6.000699"
     y="6.9999304"
     ry="17.999861" />
  <rect
     style="fill:#4cb6ff;fill-opacity:1;stroke-width:5.99995;stroke-linecap:square"
     id="rect396"
     width="83.999352"
     height="83.999352"
     x="6.000699"
     y="5.9999533"
     ry="17.999861" />
  <path
     id="path4"
     style="opacity:0.1;fill:#000000;stroke-width:2.99998"
     d="m 58.037403,16.011579 c -1.482198,-0.07671 -3.170549,0.1571 -5.080037,0.843743 -10.183952,3.6621 -10.667614,17.090687 -10.910073,17.701035 -1.454847,0.366213 -2.728928,0.793443 -4.00192,1.464832 -1.757945,1.220702 -2.566946,1.946748 -3.75583,3.966767 -1.03054,1.647941 -1.089838,5.554643 -1.089838,5.554643 0,0 -3.698898,-3.020017 -5.578081,-4.517542 C 25.075636,38.766764 23.0671,36.08384 22.7701,34.679401 c 0,0 -0.850179,-7.265082 -3.638644,-6.837836 -1.697325,-0.122072 -0.96679,3.662082 -0.96679,3.662082 0,0 -0.604523,-1.952127 -3.029273,-2.806619 -2.424749,-0.854489 -5.7030085,-1.345699 -7.4003326,-0.369139 -3.8795993,2.075186 -4.4837616,4.642542 -4.9687114,4.886681 -4.3039309,6.713848 -2.54605946,9.39641 -1.5761596,9.884689 0.9698999,0.488282 3.2722546,0.488282 4.2421546,0 l 9.474535,6.263624 c 7.656993,5.274964 14.531137,12.779196 14.531137,12.779196 l -1.582019,2.308578 c -1.507568,2.200105 -3.904197,5.341708 -4.441371,9.169849 -0.909028,6.478167 -0.165211,8.712841 0.480465,10.863197 0.930412,3.098646 3.849579,6.515575 3.849579,6.515575 h 44.255516 c 1.477974,0 2.910412,-0.176864 4.283169,-0.509762 0.07535,-0.837915 0.810458,-8.985176 0.925774,-9.913984 0.969902,-0.85449 6.543496,-6.1054 6.058546,-11.232336 1.091137,-4.516585 -11.999906,-16.845571 -11.999906,-16.845571 0,0 -1.519792,-1.159164 -1.277334,-3.23435 0.484947,-2.258299 2.127155,-16.90705 -2.964819,-26.794715 0,0 -2.56535,-6.124567 -8.988213,-6.456981 z" />
  <path
     id="path5"
     style="fill:#3f3f3f;stroke-width:2.99998"
     d="m 58.037403,15.011602 c -1.482198,-0.07671 -3.170549,0.1571 -5.080037,0.843743 -10.183952,3.6621 -10.667614,17.090687 -10.910073,17.701035 -1.454847,0.366214 -2.728928,0.793443 -4.00192,1.464832 -1.757945,1.220703 -2.566946,1.946748 -3.75583,3.966767 -1.03054,1.647941 -1.089838,5.554643 -1.089838,5.554643 0,0 -3.698898,-3.020016 -5.578081,-4.517542 -2.545988,-2.258292 -4.554524,-4.941216 -4.851524,-6.345656 0,0 -0.850179,-7.265082 -3.638644,-6.837836 -1.697325,-0.122071 -0.96679,3.662082 -0.96679,3.662082 0,0 -0.604523,-1.952129 -3.029273,-2.806619 -2.424749,-0.854489 -5.7030085,-1.345698 -7.4003326,-0.369138 -3.8795993,2.075188 -4.4837616,4.642542 -4.9687114,4.88668 -4.3039309,6.713849 -2.54605946,9.39641 -1.5761596,9.884689 0.9698999,0.488282 3.2722546,0.488282 4.2421546,0 l 9.474535,6.263624 c 7.656993,5.274964 14.531137,12.779196 14.531137,12.779196 l -1.582019,2.308578 c -1.507568,2.200105 -3.904197,5.341708 -4.441371,9.169849 -0.909028,6.478168 -0.165211,8.712841 0.480465,10.863198 0.930412,3.098646 3.849579,6.515574 3.849579,6.515574 h 44.255516 c 1.477974,0 2.910412,-0.176863 4.283169,-0.509762 0.07535,-0.837914 0.810458,-8.985176 0.925774,-9.913984 0.969902,-0.854489 6.543496,-6.1054 6.058546,-11.232336 1.091137,-4.516585 -11.999906,-16.845571 -11.999906,-16.845571 0,0 -1.519792,-1.159164 -1.277334,-3.23435 0.484947,-2.258298 2.127155,-16.907049 -2.964819,-26.794715 0,0 -2.56535,-6.124567 -8.988213,-6.456981 z" />
  <path
     style="opacity:0.2;fill:#000000;stroke-width:2.99998"
     d="m 49.399687,24.840727 c 1.449121,-0.244141 2.788296,0.348799 3.331715,1.264325 0.543421,0.915527 0.38058,0.532961 0.709461,2.262725 -0.0267,0.907727 -0.0144,1.679543 0.0087,1.896411 0.353721,0.336325 1.746736,-5.850708 6.033715,-5.362426 1.858384,0.14302 3.702121,0.94694 3.502041,4.577627 -1.02646,16.540491 -9.772043,9.099589 -10.386546,8.726887 -0.953435,-0.402132 -0.463386,-1.165338 -1.057045,-1.436659 -0.57383,-0.0216 -0.590645,0.590722 -1.347959,0.498089 -0.395598,-0.0054 -2.182684,-0.342048 -2.48458,-0.464117 -0.301903,-0.122099 -2.717103,-0.305173 -2.65672,-2.746578 -0.362283,-2.31933 1.174197,-7.907276 4.347353,-9.216284 z"
     id="path6" />
  <path
     style="fill:#ffffff;stroke-width:2.99998"
     d="m 49.399687,23.840749 c 1.449121,-0.244141 2.788296,0.348799 3.331715,1.264326 0.543421,0.915526 0.38058,0.53296 0.709461,2.262724 -0.0267,0.907726 -0.0144,1.679543 0.0087,1.896412 0.353721,0.336325 1.746736,-5.850709 6.033715,-5.362427 1.858384,0.143021 3.702121,0.946941 3.502041,4.577627 -1.02646,16.540492 -9.772043,9.09959 -10.386546,8.726888 -0.953435,-0.402132 -0.463386,-1.165338 -1.057045,-1.436659 -0.57383,-0.0216 -0.590645,0.590723 -1.347959,0.498089 -0.395598,-0.0054 -2.182684,-0.342048 -2.48458,-0.464117 -0.301903,-0.122099 -2.717103,-0.305173 -2.65672,-2.746578 -0.362283,-2.31933 1.174197,-7.907276 4.347353,-9.216285 z"
     id="path7" />
  <path
     style="fill:#3f3f3f;stroke-width:2.99998"
     d="m 47.043641,30.868608 c -0.197069,1.13346 0.295227,2.211733 1.099653,2.408379 0.804435,0.196648 1.616343,-0.56279 1.813447,-1.696253 0.197129,-1.133463 -0.295228,-2.211728 -1.099656,-2.408378 -0.804435,-0.196646 -1.616337,0.562789 -1.813444,1.696252 z"
     id="path8" />
  <path
     style="opacity:0.2;fill:#000000;stroke-width:2.99998"
     d="m 44.53194,37.007287 c 1.232829,-0.0609 6.612438,1.278995 9.078089,3.167025 2.465654,1.888032 3.586403,4.811443 3.362257,7.125805 -0.201029,2.021009 -0.962378,6.52387 -3.810556,7.308519 -4.402805,1.13659 -8.109027,-0.360099 -13.224866,-2.497075 -6.113233,-2.53019 -5.491685,-15.469701 4.595076,-15.104274 z"
     id="path9" />
  <path
     style="fill:#ffa903;stroke-width:2.99998"
     d="m 44.53194,36.00731 c 1.232829,-0.0609 6.612438,1.278995 9.078089,3.167025 2.465654,1.888032 3.586403,4.811443 3.362257,7.125805 -0.201029,2.02101 -0.962378,6.52387 -3.810556,7.30852 C 48.758925,54.745249 45.052703,53.248561 39.936864,51.111584 33.823631,48.581395 34.445179,35.641883 44.53194,36.00731 Z"
     id="path10" />
  <path
     style="fill:#3f3f3f;stroke-width:2.99998"
     d="m 41.786823,42.422029 c 0.527888,-1.63974 0.04359,-3.158706 -1.081485,-3.392053 -1.125099,-0.233338 -2.46461,0.907361 -2.991292,2.547343 -0.527891,1.639742 -0.04359,3.158706 1.081492,3.392053 1.125096,0.233338 2.464607,-0.907364 2.991285,-2.547343 z"
     id="path11" />
  <path
     style="fill:#ffffff;stroke-width:2.99998"
     d="m 35.96395,89.999301 c -0.340006,-0.162479 -1.622049,-1.492551 -1.974708,-2.291448 -0.352665,-0.798897 -5.378064,-8.077719 -3.614765,-15.88914 1.763299,-7.811426 7.141361,-4.704611 7.494026,-8.166488 0.352659,-3.461883 1.146141,-6.0361 5.818884,-6.568698 4.672751,-0.532598 8.37568,1.509024 9.698153,4.970904 1.322471,3.461883 3.614762,10.030575 3.614762,13.048624 0,3.018051 -0.176338,10.29688 -0.176338,10.29688 0,0 -0.3103,3.30754 -1.881457,4.599366 z"
     id="path12" />
  <path
     style="opacity:0.1;fill:#000000;stroke-width:2.99998"
     d="m 50.572618,67.250811 c -0.697518,-0.0084 -3.090009,0.252688 -4.330046,1.177725 -2.922937,2.323788 -3.702178,4.381478 -4.119106,6.123001 -0.177149,0.446885 -0.135479,2.191303 -0.04689,2.54881 0.08859,0.357501 0.644521,0.498041 0.644524,0.498041 1.372901,-0.134069 3.566667,-1.748972 4.540981,-1.927719 0.974308,-0.178739 1.724102,0.577186 3.05271,0.398436 2.017623,0.06579 3.211982,-0.600611 3.374974,-0.697261 l 4.335905,0.533198 c 0,0 0.0165,-0.06009 0.0177,-0.06444 l -0.0177,0.105479 6.064405,1.341787 4.705044,-1.429678 -2.53709,-2.947243 -6.867135,-2.121076 c 3.18e-4,-0.001 0.006,-0.0234 0.006,-0.0234 l -4.61715,-1.617173 c 0,0 0.006,-0.006 0.006,-0.006 0,0 -1.811005,-1.91968 -4.02536,-1.874986 -0.0222,-0.0111 -0.08784,-0.0165 -0.187499,-0.0177 z m 28.540795,8.806573 -0.222659,0.134759 -7.499941,1.13085 5.33199,1.505847 c 0,0 2.876198,0.890534 4.869103,1.248039 1.992906,0.35751 2.038377,-0.486234 2.126936,-0.843744 0.08859,-0.357504 0.173339,-1.121235 -0.269518,-1.523427 -0.132869,-0.223438 -0.748662,-0.713877 -4.335902,-1.65233 z"
     id="path13" />
  <path
     style="fill:#ffa903;stroke-width:2.99998"
     d="m 79.111523,75.058376 c 3.58724,0.938453 4.207257,1.430023 4.34012,1.653464 0.442869,0.402192 0.354294,1.161891 0.265708,1.519396 -0.08856,0.35751 -0.132869,1.206587 -2.125775,0.849077 -1.992905,-0.357504 -4.871557,-1.251266 -4.871557,-1.251266 l -5.326734,-1.50421 7.496794,-1.132395"
     id="path14" />
  <path
     style="fill:#ffa903;stroke-width:2.99998"
     d="m 59.307578,69.76522 6.953049,2.145038 2.533169,2.950702 -4.703232,1.428742 -6.067312,-1.340648 0.398583,-2.770667 z"
     id="path15" />
  <path
     style="fill:#b38f4f;stroke-width:2.99998"
     d="m 53.638846,74.368106 v 0 c -0.310005,-2.994112 1.018601,-6.256347 1.018601,-6.256347 l 4.738703,1.653458 c 0,0 -0.797166,2.547232 -0.88574,3.038803 -0.08856,0.491567 -0.487155,2.100343 -0.487155,2.100343 z"
     id="path16" />
  <path
     style="fill:#3f3f3f;stroke-width:2.99998"
     d="m 56.909505,34.700794 c 0.282898,-1.133938 -0.118709,-2.210386 -0.897089,-2.404317 -0.778371,-0.193918 -1.638722,0.568085 -1.921641,1.702022 -0.282898,1.133937 0.118709,2.210383 0.897089,2.404316 0.778368,0.193919 1.638719,-0.568087 1.921641,-1.702021 z"
     id="path17" />
  <path
     style="fill:#e6407a;stroke-width:2.99998"
     d="m 42.719429,76.599155 c 1.372901,-0.134069 3.565755,-1.75051 4.540069,-1.929258 0.974308,-0.178738 1.727186,0.580946 3.055794,0.402192 2.173204,0.07086 3.410095,-0.715011 3.410095,-0.715011 -0.177149,0.08937 0.04428,-2.368476 0.310008,-3.172863 0,-1.251269 0.752878,-3.038796 0.752878,-3.038796 0,0 -1.815757,-1.921596 -4.030112,-1.876903 -0.177149,-0.0894 -3.10008,0.1047 -4.517263,1.161891 -2.922937,2.323785 -3.701758,4.380758 -4.118686,6.122281 -0.177149,0.446885 -0.132869,2.189722 -0.04428,2.547229 0.08859,0.357504 0.641503,0.499238 0.641506,0.499238 z"
     id="path18" />
  <path
     style="fill:url(#linearGradient1263);stroke-width:2.99998"
     d="m 69.993318,48.2652 c -2.233029,2.047688 -8.281363,9.790325 -8.897051,14.349054 -0.577973,4.279503 1.998725,6.12693 4.262561,9.944245 2.237017,3.772086 -6.056389,3.498494 -4.814341,12.442655 0.446606,3.21608 3.598637,3.463938 6.935994,2.220367 2.585755,-0.963506 7.590244,-3.617462 10.420623,-6.708473 0.969902,-0.85449 6.546843,-6.103633 6.061894,-11.230575 1.091137,-4.516591 -12.002361,-16.845508 -12.002361,-16.845508 0,0 -2.033291,-2.294118 -1.967319,-4.171765 z"
     id="path19" />
  <g
     id="g361"
     transform="matrix(1.4999796,0,0,1.4999796,8.5029954e-4,1.0475919e-4)" />
  <path
     id="path1040"
     style="opacity:0.2;fill:#ffffff;stroke-width:5.99995;stroke-linecap:square"
     d="M 24 6 C 14.028097 6 6 14.028098 6 24 L 6 25 C 6 15.028098 14.028097 7 24 7 L 72 7 C 81.9719 7 90 15.028098 90 25 L 90 24 C 90 14.028098 81.9719 6 72 6 L 24 6 z " />
</svg>
