<?xml version="1.0" encoding="UTF-8" standalone="no"?>
<!-- Created with Inkscape (http://www.inkscape.org/) -->

<svg
   width="96"
   height="96"
   viewBox="0 0 96 96"
   version="1.1"
   id="svg5"
   inkscape:version="1.2.2 (1:1.2.2+202305151914+b0a8486541)"
   sodipodi:docname="virtualbox.svg"
   xmlns:inkscape="http://www.inkscape.org/namespaces/inkscape"
   xmlns:sodipodi="http://sodipodi.sourceforge.net/DTD/sodipodi-0.dtd"
   xmlns="http://www.w3.org/2000/svg"
   xmlns:svg="http://www.w3.org/2000/svg">
  <sodipodi:namedview
     id="namedview7"
     pagecolor="#ffffff"
     bordercolor="#000000"
     borderopacity="0.25"
     inkscape:showpageshadow="2"
     inkscape:pageopacity="0.0"
     inkscape:pagecheckerboard="0"
     inkscape:deskcolor="#d1d1d1"
     inkscape:document-units="px"
     showgrid="false"
     inkscape:zoom="8.3958333"
     inkscape:cx="48"
     inkscape:cy="48"
     inkscape:window-width="1920"
     inkscape:window-height="1008"
     inkscape:window-x="0"
     inkscape:window-y="0"
     inkscape:window-maximized="1"
     inkscape:current-layer="svg5" />
  <defs
     id="defs2" />
  <rect
     style="opacity:0.2;fill:#000000;stroke-width:6;stroke-linecap:square"
     id="rect234"
     width="84"
     height="84"
     x="6"
     y="7"
     ry="18" />
  <rect
     style="fill:#1263eb;fill-opacity:1;stroke-width:6;stroke-linecap:square"
     id="rect396"
     width="84"
     height="84"
     x="6"
     y="6"
     ry="18" />
  <path
     d="m 24,17 c -4.432,0 -8,3.568 -8,8 V 39 H 29.1211 L 36,57 46,25 54,47.5 60.85546,25 71.17968,57 H 80 V 25 c 0,-4.432 -3.568,-8 -8,-8 z M 46,44.05078 36,77.00002 24.8789,45 H 16 v 28.00002 c 0,4.432 3.568,8 8,8 h 48 c 4.432,0 8,-3.568 8,-8 V 63 H 66.82032 L 60.85546,44.60156 54,66.5 Z"
     style="opacity:0.2;fill:#000000;fill-opacity:1;stroke:none;stroke-width:4;stroke-linecap:square;stroke-linejoin:miter;stroke-dasharray:none;stroke-opacity:1"
     id="path3811"
     sodipodi:nodetypes="ssccccccccsssccccssssccccc" />
  <path
     d="m 24,16 c -4.432,0 -8,3.568 -8,8 V 38 H 29.1211 L 36,56 46,24 54,46.5 60.85546,24 71.17968,56 H 80 V 24 c 0,-4.432 -3.568,-8 -8,-8 z M 46,43.05078 36,76.00002 24.8789,44 H 16 v 28.00002 c 0,4.432 3.568,8 8,8 h 48 c 4.432,0 8,-3.568 8,-8 V 62 H 66.82032 L 60.85546,43.60156 54,65.5 Z"
     style="fill:#4bd0ff;fill-opacity:1;stroke:none;stroke-width:4;stroke-linecap:square;stroke-linejoin:miter;stroke-dasharray:none;stroke-opacity:1"
     id="path3783"
     sodipodi:nodetypes="ssccccccccsssccccssssccccc" />
  <path
     id="path3839"
     style="opacity:0.2;fill:#ffffff;fill-opacity:1;stroke:none;stroke-width:4;stroke-linecap:square;stroke-linejoin:miter;stroke-dasharray:none;stroke-opacity:1"
     d="m 24,16 c -4.432,0 -8,3.568 -8,8 v 1 c 0,-4.432 3.568,-8 8,-8 h 48 c 4.432,0 8,3.568 8,8 v -1 c 0,-4.432 -3.568,-8 -8,-8 z M 46,43.05078 36,76 24.8789,44 H 16 v 1 h 8.8789 L 36,77 46,44.05078 54,66.5 60.85546,44.60156 66.82032,63 H 80 V 62 H 66.82032 L 60.85546,43.60156 54,65.5 Z" />
  <path
     id="path1040"
     style="opacity:0.2;fill:#ffffff;stroke-width:6;stroke-linecap:square"
     d="M 24,6 C 14.02803,6 6,14.02803 6,24 v 1 C 6,15.02803 14.02803,7 24,7 h 48 c 9.971968,0 18,8.02803 18,18 V 24 C 90,14.02803 81.971968,6 72,6 Z" />
</svg>
