<?xml version="1.0" encoding="UTF-8" standalone="no"?>
<!-- Created with Inkscape (http://www.inkscape.org/) -->

<svg
   width="96"
   height="96"
   viewBox="0 0 96 96"
   version="1.1"
   id="svg5"
   inkscape:version="1.3 (0e150ed6c4, 2023-07-21)"
   sodipodi:docname="waydroid.svg"
   xmlns:inkscape="http://www.inkscape.org/namespaces/inkscape"
   xmlns:sodipodi="http://sodipodi.sourceforge.net/DTD/sodipodi-0.dtd"
   xmlns="http://www.w3.org/2000/svg"
   xmlns:svg="http://www.w3.org/2000/svg">
  <sodipodi:namedview
     id="namedview7"
     pagecolor="#ffffff"
     bordercolor="#000000"
     borderopacity="0.25"
     inkscape:showpageshadow="2"
     inkscape:pageopacity="0.0"
     inkscape:pagecheckerboard="0"
     inkscape:deskcolor="#d1d1d1"
     inkscape:document-units="px"
     showgrid="false"
     inkscape:zoom="8.15625"
     inkscape:cx="47.938697"
     inkscape:cy="48"
     inkscape:window-width="1920"
     inkscape:window-height="984"
     inkscape:window-x="0"
     inkscape:window-y="29"
     inkscape:window-maximized="1"
     inkscape:current-layer="svg5" />
  <defs
     id="defs2" />
  <rect
     style="opacity:0.2;fill:#000000;stroke-width:6;stroke-linecap:square"
     id="rect234"
     width="84"
     height="84"
     x="6"
     y="7"
     ry="18" />
  <rect
     style="fill:#efefef;fill-opacity:1;stroke-width:6;stroke-linecap:square"
     id="rect396"
     width="84"
     height="84"
     x="6"
     y="6"
     ry="18" />
  <path
     style="opacity:0.2;fill:#000000;stroke-width:1.5"
     d="m 26.835937,16.00332 a 3,3 0 0 0 -1.634766,0.597657 3,3 0 0 0 -0.600585,4.198242 l 5.625,7.49707 A 28.5,28.5 0 0 0 19.5,50.50039 a 28.5,28.5 0 0 0 28.5,28.5 28.5,28.5 0 0 0 28.5,-28.5 28.5,28.5 0 0 0 -10.693359,-22.245117 l 5.592773,-7.456054 a 3,3 0 0 0 -0.600586,-4.198242 3,3 0 0 0 -2.223632,-0.57129 3,3 0 0 0 -1.97461,1.171875 l -5.862304,7.813477 A 28.5,28.5 0 0 0 48,22.00039 28.5,28.5 0 0 0 35.288086,25.053124 l -5.888672,-7.851562 a 3,3 0 0 0 -1.97461,-1.171875 3,3 0 0 0 -0.588867,-0.02637 z"
     id="path1" />
  <path
     id="path2"
     style="fill:#37ce87;stroke-width:1.5"
     d="m 26.835937,15.00282 a 3,3 0 0 0 -1.634766,0.597657 3,3 0 0 0 -0.600585,4.198242 l 5.589843,7.453125 c -5.395428,4.3246 -9.186343,10.568038 -10.330078,17.698242 -0.237607,1.481278 0.9375,3.212485 0.9375,4.760742 0,15.7401 12.071423,25.227538 27.811524,25.227538 15.7401,0 25.690429,-9.604625 25.690429,-25.344726 0,-1.478781 2.086284,-3.026275 1.869142,-4.444336 -1.104482,-7.212879 -4.914053,-13.532565 -10.359375,-17.89746 l 5.589843,-7.453125 a 3,3 0 0 0 -0.600586,-4.198242 3,3 0 0 0 -2.223632,-0.57129 3,3 0 0 0 -1.97461,1.171875 L 60.744141,24.00868 C 56.908365,22.087198 52.582195,20.99989 48,20.99989 c -4.582316,0 -8.90829,1.087214 -12.744141,3.00879 l -5.856445,-7.807618 a 3,3 0 0 0 -1.97461,-1.171875 3,3 0 0 0 -0.588867,-0.02637 z" />
  <path
     style="fill:#fd9c01;stroke-width:1.5"
     d="M 76.034179,44.405164 C 65.47935,46.689625 53.90909,47.99989 48,47.99989 c -6.166203,0 -17.834499,-1.173766 -28.028321,-3.386718 A 28.5,28.5 0 0 0 19.5,49.49989 a 28.5,28.5 0 0 0 28.5,28.5 28.5,28.5 0 0 0 28.5,-28.5 28.5,28.5 0 0 0 -0.465821,-5.094726 z"
     id="path3" />
  <path
     style="opacity:0.2;fill:#000000;stroke-width:1.5"
     d="m 72.161133,46.193 c -3.201583,0.611213 -6.400235,1.117503 -9.459962,1.538087 L 59.923828,58.39222 51.969726,48.847298 C 50.490554,48.938938 49.118679,48.999641 48,48.999641 c -1.129731,0 -2.493015,-0.05387 -3.949218,-0.131835 l -7.971681,9.345702 -2.668944,-10.338867 c -3.200229,-0.40641 -6.530463,-0.912608 -9.817383,-1.532226 l 7.86914,23.538422 c 1.115851,2.271391 2.5552,1.85214 4.095703,0.580077 L 48.123046,57.068 60.272461,70.077125 c 1.462713,1.982804 3.497776,2.134442 4.517578,-1.426757 z"
     id="path5" />
  <path
     style="fill:#ffffff;stroke-width:1.5"
     d="m 72.161133,45.193249 c -3.201583,0.611213 -6.400235,1.117503 -9.459962,1.538087 L 59.923828,57.392469 51.969726,47.847547 C 50.490554,47.939187 49.118679,47.99989 48,47.99989 c -1.129731,0 -2.493015,-0.05387 -3.949218,-0.131835 L 36.079101,57.213757 33.410157,46.87489 c -3.200229,-0.40641 -6.530463,-0.912608 -9.817383,-1.532226 l 7.86914,23.538422 c 1.115851,2.271392 2.5552,1.85214 4.095703,0.580077 L 48.123046,56.068249 60.272461,69.077375 c 1.462713,1.982803 3.497776,2.134441 4.517578,-1.426759 z"
     id="path6" />
  <path
     id="path8"
     style="opacity:0.2;fill:#ffffff;stroke-width:1.5"
     d="M 76.033203,44.404297 C 65.478385,46.688756 53.909084,48 48,48 41.833803,48 30.164515,46.826231 19.970703,44.613281 A 28.5,28.5 0 0 0 19.5,49.5 a 28.5,28.5 0 0 0 0.0293,0.445312 28.5,28.5 0 0 1 0.441406,-4.332031 C 30.164515,47.826231 41.833803,49 48,49 53.909084,49 65.478385,47.688756 76.033203,45.404297 A 28.5,28.5 0 0 1 76.472656,49.912109 28.5,28.5 0 0 0 76.5,49.5 28.5,28.5 0 0 0 76.033203,44.404297 Z" />
  <path
     id="path9"
     style="opacity:0.2;fill:#ffffff;stroke-width:1.5"
     d="m 26.835938,15.003906 a 3,3 0 0 0 -1.634766,0.597656 3,3 0 0 0 -1.123047,2.839844 3,3 0 0 1 1.123047,-1.839844 3,3 0 0 1 1.634766,-0.597656 3,3 0 0 1 0.58789,0.02734 3,3 0 0 1 1.97461,1.171875 l 5.890624,7.851563 A 28.5,28.5 0 0 1 48,22.001953 28.5,28.5 0 0 1 60.738281,25.015625 l 5.863281,-7.8125 a 3,3 0 0 1 1.97461,-1.171875 3,3 0 0 1 2.222656,0.570312 3,3 0 0 1 1.15625,1.914063 3,3 0 0 0 -1.15625,-2.914063 3,3 0 0 0 -2.222656,-0.570312 3,3 0 0 0 -1.97461,1.171875 l -5.863281,7.8125 A 28.5,28.5 0 0 0 48,21.001953 28.5,28.5 0 0 0 35.289062,24.054688 l -5.890624,-7.851563 a 3,3 0 0 0 -1.97461,-1.171875 3,3 0 0 0 -0.58789,-0.02734 z m 39.412109,12.664063 -0.441406,0.58789 A 28.5,28.5 0 0 1 76.462891,50.013672 28.5,28.5 0 0 0 76.5,49.501953 28.5,28.5 0 0 0 66.248047,27.667969 Z m -36.462891,0.03906 A 28.5,28.5 0 0 0 19.5,49.501953 28.5,28.5 0 0 0 19.53711,50.021484 28.5,28.5 0 0 1 30.226563,28.296875 Z" />
  <path
     id="path1040"
     style="opacity:0.2;fill:#ffffff;stroke-width:6;stroke-linecap:square"
     d="M 24 6 C 14.02802 6 6 14.028021 6 24 L 6 25 C 6 15.028021 14.02802 7 24 7 L 72 7 C 81.97198 7 90 15.028021 90 25 L 90 24 C 90 14.028021 81.97198 6 72 6 L 24 6 z " />
</svg>
