<?xml version="1.0" encoding="UTF-8" standalone="no"?>
<!-- Created with Inkscape (http://www.inkscape.org/) -->

<svg
   width="96"
   height="96"
   viewBox="0 0 96 96"
   version="1.1"
   id="svg5"
   inkscape:version="1.3 (0e150ed6c4, 2023-07-21)"
   sodipodi:docname="winecfg.svg"
   xmlns:inkscape="http://www.inkscape.org/namespaces/inkscape"
   xmlns:sodipodi="http://sodipodi.sourceforge.net/DTD/sodipodi-0.dtd"
   xmlns="http://www.w3.org/2000/svg"
   xmlns:svg="http://www.w3.org/2000/svg">
  <sodipodi:namedview
     id="namedview7"
     pagecolor="#ffffff"
     bordercolor="#000000"
     borderopacity="0.25"
     inkscape:showpageshadow="2"
     inkscape:pageopacity="0.0"
     inkscape:pagecheckerboard="0"
     inkscape:deskcolor="#d1d1d1"
     inkscape:document-units="px"
     showgrid="false"
     inkscape:zoom="8.3645833"
     inkscape:cx="47.880449"
     inkscape:cy="47.880449"
     inkscape:window-width="1850"
     inkscape:window-height="1011"
     inkscape:window-x="70"
     inkscape:window-y="32"
     inkscape:window-maximized="1"
     inkscape:current-layer="svg5" />
  <defs
     id="defs2" />
  <rect
     style="opacity:0.2;fill:#000000;stroke-width:6;stroke-linecap:square"
     id="rect234"
     width="84"
     height="84"
     x="6"
     y="7"
     ry="18" />
  <rect
     style="fill:#ac3131;fill-opacity:1;stroke-width:6;stroke-linecap:square"
     id="rect396"
     width="84"
     height="78"
     x="6"
     y="6"
     ry="18" />
  <path
     id="rect1"
     style="fill:#e7dbd0;fill-opacity:1;stroke-width:5.61249"
     d="M 30,42 C 16.148205,42.0225 6,48 6,48 v 24 c 0,9.971973 8.02803,18 18,18 h 48 c 9.971973,0 18,-8.028027 18,-18 V 48 c 0,0 -7.25568,3.803343 -24,3 C 52.779495,50.365719 49.762695,41.967807 30,42 Z" />
  <path
     id="path1"
     style="opacity:0.2;fill:#ffffff;fill-opacity:1;stroke-width:5.61249"
     d="M 30,42 C 16.148233,42.0225 6,48 6,48 v 1 c 0,0 10.148233,-5.9775 24,-6 19.762654,-0.03219 22.77952,8.36572 36,9 16.744285,0.803342 24,-3 24,-3 v -1 c 0,0 -7.255715,3.803342 -24,3 C 52.77952,50.36572 49.762654,41.967807 30,42 Z" />
  <path
     id="path1040"
     style="opacity:0.1;fill:#ffffff;stroke-width:6;stroke-linecap:square"
     d="M 24,6 C 14.02802,6 6,14.028021 6,24 v 1 C 6,15.028021 14.02802,7 24,7 h 48 c 9.971978,0 18,8.028021 18,18 V 24 C 90,14.028021 81.971978,6 72,6 Z" />
  <circle
     style="opacity:0.2;fill:#000000;stroke-width:4.2"
     id="path10"
     cx="73"
     cy="74"
     r="21" />
  <circle
     style="fill:#f8a009;fill-opacity:1;stroke-width:4.2"
     id="path11"
     cx="73"
     cy="73"
     r="21" />
  <path
     id="path9"
     style="fill:#ffffff;stroke-width:2.99999"
     d="m 70,61 -0.263672,3.158203 c -1.0016,0.371168 -1.932774,0.910591 -2.753906,1.59375 l -2.876953,-1.347656 -3,5.191406 2.607422,1.810547 c -0.09303,0.525962 -0.137835,1.05963 -0.140625,1.59375 6.41e-4,0.53495 0.04356,1.06663 0.134765,1.59375 l -2.601562,1.810547 3,5.191406 2.865234,-1.347656 c 0.824516,0.680846 1.761475,1.214525 2.765625,1.582031 L 70,85 h 6 l 0.263672,-3.164062 c 1.0016,-0.371163 1.932774,-0.910586 2.753906,-1.59375 l 2.876953,1.353515 3,-5.191406 -2.613281,-1.816406 C 82.374102,74.062915 82.424766,73.533117 82.427734,73 c 3.52e-4,-0.534866 -0.04459,-1.066542 -0.134765,-1.59375 l 2.601562,-1.810547 -3,-5.191406 -2.871093,1.347656 C 78.199827,65.071401 77.266766,64.537734 76.263672,64.169922 L 76,61 Z m 3,8 c 2.209137,10e-7 3.999999,1.790863 4,4 -10e-7,2.209137 -1.790863,3.999999 -4,4 -2.209137,-10e-7 -3.999999,-1.790863 -4,-4 10e-7,-2.209137 1.790863,-3.999999 4,-4 z" />
  <path
     id="path12"
     style="opacity:0.2;fill:#ffffff;fill-opacity:1;stroke-width:4.2"
     d="M 73,52 A 21,21 0 0 0 52,73 21,21 0 0 0 52.035156,73.5 21,21 0 0 1 73,53 21,21 0 0 1 93.982422,73.257812 21,21 0 0 0 94,73 21,21 0 0 0 73,52 Z" />
</svg>
