<?xml version="1.0" encoding="UTF-8" standalone="no"?>
<!-- Created with Inkscape (http://www.inkscape.org/) -->

<svg
   width="96"
   height="96"
   viewBox="0 0 96 96"
   version="1.1"
   id="svg5"
   inkscape:version="1.3 (0e150ed6c4, 2023-07-21)"
   sodipodi:docname="xfce4-systray.svg"
   xmlns:inkscape="http://www.inkscape.org/namespaces/inkscape"
   xmlns:sodipodi="http://sodipodi.sourceforge.net/DTD/sodipodi-0.dtd"
   xmlns="http://www.w3.org/2000/svg"
   xmlns:svg="http://www.w3.org/2000/svg">
  <sodipodi:namedview
     id="namedview7"
     pagecolor="#ffffff"
     bordercolor="#000000"
     borderopacity="0.25"
     inkscape:showpageshadow="2"
     inkscape:pageopacity="0.0"
     inkscape:pagecheckerboard="0"
     inkscape:deskcolor="#d1d1d1"
     inkscape:document-units="px"
     showgrid="false"
     inkscape:zoom="8.3645833"
     inkscape:cx="48"
     inkscape:cy="48"
     inkscape:window-width="1850"
     inkscape:window-height="1011"
     inkscape:window-x="70"
     inkscape:window-y="32"
     inkscape:window-maximized="1"
     inkscape:current-layer="svg5" />
  <defs
     id="defs2" />
  <rect
     style="opacity:0.2;fill:#000000;stroke-width:6;stroke-linecap:square"
     id="rect234"
     width="84"
     height="84"
     x="6"
     y="7"
     ry="18" />
  <rect
     style="fill:#0d3c61;fill-opacity:1;stroke-width:6;stroke-linecap:square"
     id="rect396"
     width="84"
     height="72"
     x="6.0000014"
     y="18"
     ry="18" />
  <path
     id="path1"
     style="fill:#e4e4e4;fill-opacity:1;stroke-width:4.5"
     d="M 46.5,75 C 44.014722,75 42,77.014722 42,79.5 42,81.985278 44.014722,84 46.5,84 48.985278,84 51,81.985278 51,79.5 51,77.014722 48.985278,75 46.5,75 Z m 15,0 C 59.014722,75 57,77.014722 57,79.5 57,81.985278 59.014722,84 61.5,84 63.985278,84 66,81.985278 66,79.5 66,77.014722 63.985278,75 61.5,75 Z m 15,0 C 74.014722,75 72,77.014722 72,79.5 72,81.985278 74.014722,84 76.5,84 78.985278,84 81,81.985278 81,79.5 81,77.014722 78.985278,75 76.5,75 Z" />
  <path
     id="rect391"
     style="fill:#2196f3;fill-opacity:1;stroke-width:6;stroke-linecap:square"
     d="M 24,6 C 14.028015,6 6,14.028015 6,24 V 68.999999 H 89.999999 V 24 c 0,-9.971985 -8.028015,-18 -18,-18 z" />
  <g
     id="g361"
     transform="matrix(1.4999912,0,0,1.4999912,1.0480218e-4,1.0480218e-4)" />
  <path
     id="path1040"
     style="opacity:0.2;fill:#ffffff;stroke-width:6;stroke-linecap:square"
     d="M 24 6 C 14.02802 6 6 14.02802 6 24 L 6 25 C 6 15.02801 14.02801 7 24 7 L 72 7 C 81.97199 7 90 15.02801 90 25 L 90 24 C 90 14.02802 81.971978 6 72 6 L 24 6 z " />
</svg>
