<?xml version="1.0" encoding="UTF-8" standalone="no"?>
<!-- Created with Inkscape (http://www.inkscape.org/) -->

<svg
   width="96"
   height="96"
   viewBox="0 0 96 96"
   version="1.1"
   id="svg5"
   inkscape:version="1.3.2 (091e20ef0f, 2023-11-25, custom)"
   sodipodi:docname="Xfwm4CompositeEditor.svg"
   xmlns:inkscape="http://www.inkscape.org/namespaces/inkscape"
   xmlns:sodipodi="http://sodipodi.sourceforge.net/DTD/sodipodi-0.dtd"
   xmlns="http://www.w3.org/2000/svg"
   xmlns:svg="http://www.w3.org/2000/svg">
  <sodipodi:namedview
     id="namedview7"
     pagecolor="#ffffff"
     bordercolor="#000000"
     borderopacity="0.25"
     inkscape:showpageshadow="2"
     inkscape:pageopacity="0.0"
     inkscape:pagecheckerboard="0"
     inkscape:deskcolor="#d1d1d1"
     inkscape:document-units="px"
     showgrid="false"
     inkscape:zoom="8.28125"
     inkscape:cx="47.939623"
     inkscape:cy="48"
     inkscape:window-width="1920"
     inkscape:window-height="1008"
     inkscape:window-x="0"
     inkscape:window-y="0"
     inkscape:window-maximized="1"
     inkscape:current-layer="svg5" />
  <defs
     id="defs2" />
  <rect
     style="opacity:0.2;fill:#000000;stroke-width:6;stroke-linecap:square"
     id="rect234"
     width="84"
     height="84"
     x="6"
     y="7"
     ry="18" />
  <rect
     style="fill:#00796b;fill-opacity:1;stroke-width:6;stroke-linecap:square"
     id="rect396"
     width="84"
     height="84"
     x="6"
     y="6"
     ry="18" />
  <path
     style="opacity:0.2;stroke-width:3"
     d="m 53.916663,19.002107 c -1.038489,-0.02365 -1.797672,0.349186 -2.478387,1.124964 -0.582321,0.663757 -1.235319,1.854709 -1.447191,2.648349 -0.77721,2.911553 -4.409499,4.783891 -7.616787,3.919793 -1.573716,-0.423986 -2.315772,-1.089507 -4.863027,-4.347513 -1.159404,-1.482932 -2.15373,-1.4512 -4.997787,0.169916 -2.702113,1.540517 -3.03048,2.53643 -1.810452,5.572081 0.50412,1.254792 0.93342,2.863755 0.943311,3.574104 0.0249,1.756269 -1.530918,4.534278 -3.09359,5.536926 -1.280843,0.82182 -3.965805,1.011534 -6.111009,0.433581 -2.039927,-0.549597 -3.081988,0.418743 -3.943154,3.650268 -0.670561,2.51628 -0.670505,2.887389 0.03515,3.691284 0.431141,0.491508 1.837054,1.348125 3.117025,1.898376 1.280038,0.550269 2.688498,1.407693 3.134602,1.915953 0.941838,1.073172 1.546004,4.174923 1.124941,5.800587 -0.304763,1.180401 -1.765401,3.018543 -2.947112,3.71472 -1.287972,0.758772 -2.528766,2.435028 -2.490104,3.363171 0.04954,1.18905 1.742715,4.163634 2.818212,4.951005 0.615985,0.451068 1.130222,0.506304 1.921775,0.21093 2.320009,-0.865371 6.057888,-1.475019 7.183221,-1.171836 1.696575,0.457086 4.113201,2.713638 4.40016,4.119006 0.13503,0.661884 0.13275,2.117313 0,3.234267 -0.322107,2.708934 -0.0597,4.097559 0.873003,4.576023 0.424164,0.21702 1.105554,0.574476 1.511637,0.790989 0.405363,0.21924 1.377345,0.484551 2.161998,0.585918 2.046282,0.26544 3.497571,-0.926112 4.622805,-3.814326 1.028871,-2.640789 1.396596,-3.016833 3.732225,-3.761592 2.371743,-0.756309 4.020393,-0.584115 5.384487,0.562482 1.130991,0.950748 1.570158,1.40727 3.310374,3.398319 1.274973,1.459053 2.288829,1.5483 4.523199,0.38085 3.359637,-1.7556 3.694941,-2.828952 2.0331,-6.316194 -1.581993,-3.319023 -0.715854,-6.648405 2.226444,-8.589564 1.126725,-0.743271 1.989336,-0.867186 4.693116,-0.691383 4.082286,0.2655 4.887924,-0.19845 5.741889,-3.357312 0.853095,-3.154956 0.491706,-3.808023 -2.993985,-5.36115 -3.316668,-1.477749 -4.222974,-2.564247 -4.704831,-5.648253 -0.400644,-2.564247 0.23727,-3.833061 3.234201,-6.398226 1.536807,-1.315284 2.40309,-2.340249 2.408082,-2.871 0.0108,-1.184547 -2.696352,-5.459325 -3.615048,-5.70684 -0.425439,-0.11463 -1.713402,0.19851 -2.870943,0.685524 -3.193104,1.343931 -4.902399,1.382772 -7.001589,0.16407 C 59.6,30.208729 58.956806,28.824529 59.154668,25.382756 59.381891,21.430003 59.059848,20.623812 56.934083,19.781379 56.22596,19.500131 55.607408,19.293423 55.053317,19.166165 l 0.006,-0.0058 c -0.415704,-0.09546 -0.796494,-0.150324 -1.142658,-0.158208 z"
     id="path2" />
  <path
     style="fill:#18c28c;stroke-width:3"
     d="m 53.916663,18.003041 c -1.038489,-0.02365 -1.797672,0.349185 -2.478387,1.124963 -0.582321,0.663757 -1.235319,1.854709 -1.447191,2.648349 -0.77721,2.911553 -4.409499,4.783891 -7.616787,3.919793 -1.573716,-0.423986 -2.315772,-1.089507 -4.863027,-4.347513 -1.159404,-1.482932 -2.15373,-1.4512 -4.997787,0.169916 -2.702113,1.540517 -3.03048,2.53643 -1.810452,5.572082 0.50412,1.254792 0.93342,2.863754 0.943311,3.5741 0.0249,1.756269 -1.530918,4.534281 -3.09359,5.536929 -1.280843,0.82182 -3.965805,1.011534 -6.111009,0.433581 -2.039927,-0.549597 -3.081988,0.418743 -3.943154,3.650268 -0.670561,2.51628 -0.670505,2.887389 0.03515,3.691284 0.431141,0.491508 1.837054,1.348125 3.117025,1.898376 1.280038,0.550272 2.688498,1.407693 3.134602,1.915953 0.941838,1.073172 1.546004,4.174923 1.124941,5.800587 -0.304763,1.180401 -1.765401,3.018543 -2.947112,3.714717 -1.287972,0.758778 -2.528766,2.435034 -2.490104,3.363171 0.04954,1.18905 1.742715,4.163634 2.818212,4.951011 0.615985,0.451062 1.130222,0.506304 1.921775,0.21093 2.320009,-0.865374 6.057888,-1.475025 7.183221,-1.171839 1.696575,0.457086 4.113201,2.713638 4.40016,4.119006 0.13503,0.661887 0.13275,2.11731 0,3.234267 -0.322107,2.708934 -0.0597,4.097559 0.873003,4.576023 0.424164,0.21702 1.105554,0.574476 1.511637,0.790989 0.405363,0.21924 1.377345,0.484551 2.161998,0.585915 2.046282,0.26544 3.497571,-0.926109 4.622805,-3.814326 1.028871,-2.640783 1.396596,-3.01683 3.732225,-3.761592 2.371743,-0.756306 4.020393,-0.584112 5.384487,0.562482 1.130991,0.950754 1.570158,1.40727 3.310374,3.398325 1.274973,1.45905 2.288829,1.548294 4.523199,0.380844 3.359637,-1.7556 3.694941,-2.828946 2.0331,-6.316194 -1.581993,-3.319023 -0.715854,-6.648399 2.226444,-8.589564 1.126725,-0.743271 1.989336,-0.86718 4.693116,-0.69138 4.082286,0.2655 4.887924,-0.19845 5.741889,-3.357312 0.853095,-3.154956 0.491706,-3.808026 -2.993985,-5.36115 -3.316668,-1.477749 -4.222974,-2.564247 -4.704831,-5.648253 -0.400644,-2.564247 0.23727,-3.833061 3.234201,-6.398226 1.536807,-1.315284 2.40309,-2.340249 2.408082,-2.871 0.0108,-1.184547 -2.696352,-5.459325 -3.615048,-5.70684 -0.425439,-0.114636 -1.713402,0.198513 -2.870943,0.685524 -3.193104,1.343931 -4.902399,1.382772 -7.001589,0.16407 C 59.6,29.209662 58.956806,27.825462 59.154668,24.383689 59.381891,20.430936 59.059848,19.624745 56.934083,18.782312 56.22596,18.501064 55.607408,18.294356 55.053317,18.167098 l 0.006,-0.0058 c -0.415704,-0.09546 -0.796494,-0.150324 -1.142658,-0.158207 z"
     id="path3" />
  <path
     id="path5"
     style="opacity:0.2;stroke-width:3;fill:#ffffff"
     d="M 53.916016 18.001953 C 52.877528 17.978303 52.118214 18.351176 51.4375 19.126953 C 50.85518 19.790709 50.202106 20.979798 49.990234 21.773438 C 49.213025 24.684988 45.582285 26.557457 42.375 25.693359 C 40.801286 25.269374 40.058971 24.603706 37.511719 21.345703 C 36.352316 19.862773 35.357726 19.894511 32.513672 21.515625 C 30.561257 22.628728 29.863313 23.468941 30.078125 24.988281 C 30.267993 24.044319 31.031343 23.360724 32.513672 22.515625 C 35.357726 20.894511 36.352316 20.862773 37.511719 22.345703 C 40.058971 25.603706 40.801286 26.269374 42.375 26.693359 C 45.582285 27.557457 49.213025 25.684988 49.990234 22.773438 C 50.202106 21.979798 50.85518 20.790709 51.4375 20.126953 C 52.118214 19.351176 52.877528 18.978303 53.916016 19.001953 C 54.262179 19.009837 54.64289 19.064696 55.058594 19.160156 L 55.052734 19.166016 C 55.606825 19.293273 56.225471 19.500002 56.933594 19.78125 C 58.584412 20.435463 59.142304 21.086394 59.205078 23.1875 C 59.284496 20.262409 58.822685 19.52989 56.933594 18.78125 C 56.225471 18.500002 55.606825 18.293273 55.052734 18.166016 L 55.058594 18.160156 C 54.64289 18.064696 54.262179 18.009837 53.916016 18.001953 z M 59.140625 25.908203 C 59.043818 28.953051 59.735362 30.285718 62.066406 31.638672 C 64.165594 32.857373 65.875259 32.818539 69.068359 31.474609 C 70.225899 30.987596 71.514015 30.674433 71.939453 30.789062 C 72.740099 31.004772 74.895205 34.278354 75.429688 35.900391 C 75.505341 35.746702 75.553636 35.607857 75.554688 35.496094 C 75.565487 34.311548 72.858148 30.036577 71.939453 29.789062 C 71.514015 29.674433 70.225899 29.987596 69.068359 30.474609 C 65.875259 31.818539 64.165594 31.857373 62.066406 30.638672 C 60.006417 29.443041 59.229266 28.263799 59.140625 25.908203 z M 31.595703 31.230469 C 31.344727 32.96905 29.957067 35.298165 28.552734 36.199219 C 27.271893 37.021038 24.586608 37.210765 22.441406 36.632812 C 20.401481 36.083216 19.359212 37.051681 18.498047 40.283203 C 18.060691 41.924382 17.913734 42.650294 18.056641 43.181641 C 18.128996 42.722317 18.272172 42.130799 18.498047 41.283203 C 19.359212 38.051681 20.401481 37.083216 22.441406 37.632812 C 24.586608 38.210765 27.271893 38.021038 28.552734 37.199219 C 30.115405 36.196572 31.671384 33.418377 31.646484 31.662109 C 31.644919 31.549652 31.616925 31.382999 31.595703 31.230469 z M 69.830078 44.021484 C 69.776314 44.547895 69.810398 45.11464 69.912109 45.765625 C 70.393966 48.849628 71.300523 49.936315 74.617188 51.414062 C 76.789127 52.381819 77.747167 52.999938 77.955078 54.091797 C 78.154042 52.320875 77.364079 51.638001 74.617188 50.414062 C 71.300523 48.936315 70.393966 47.849628 69.912109 44.765625 C 69.870986 44.502422 69.84789 44.260194 69.830078 44.021484 z M 26.023438 52.841797 C 26.002507 53.111741 25.967998 53.366524 25.910156 53.589844 C 25.605394 54.770244 24.1446 56.608511 22.962891 57.304688 C 21.67492 58.063459 20.433994 59.739827 20.472656 60.667969 C 20.478499 60.808216 20.510729 60.976748 20.558594 61.160156 C 20.846265 60.215834 21.883381 58.94065 22.962891 58.304688 C 24.1446 57.608511 25.605394 55.770244 25.910156 54.589844 C 26.034959 54.107998 26.060869 53.491739 26.023438 52.841797 z M 64.195312 65.648438 C 64.098359 66.851526 64.338981 68.133784 64.949219 69.414062 C 65.4467 70.457986 65.761065 71.282216 65.873047 71.976562 C 66.04658 71.095374 65.709154 70.008726 64.949219 68.414062 C 64.505253 67.482623 64.261884 66.550597 64.195312 65.648438 z M 36.882812 70.728516 C 36.869168 71.165717 36.844686 71.609444 36.796875 72.011719 C 36.681742 72.979987 36.645453 73.772242 36.683594 74.421875 C 36.701552 73.99388 36.7346 73.535452 36.796875 73.011719 C 36.883289 72.28464 36.908855 71.430199 36.882812 70.728516 z " />
  <circle
     style="opacity:0.2;fill:#000000;fill-opacity:1;stroke-width:6"
     id="path1"
     cx="48"
     cy="49"
     r="12" />
  <circle
     style="fill:#ffffff;fill-opacity:1;stroke-width:6"
     id="path2-3"
     cx="48"
     cy="48"
     r="12" />
  <path
     id="path1040"
     style="opacity:0.1;fill:#ffffff;stroke-width:6;stroke-linecap:square"
     d="M 24 6 C 14.02802 6 6 14.028021 6 24 L 6 25 C 6 15.028021 14.02802 7 24 7 L 72 7 C 81.971978 7 90 15.028021 90 25 L 90 24 C 90 14.028021 81.971978 6 72 6 L 24 6 z " />
</svg>
