<?xml version="1.0" encoding="UTF-8" standalone="no"?>
<!-- Created with Inkscape (http://www.inkscape.org/) -->

<svg
   width="96"
   height="96"
   viewBox="0 0 96 96"
   version="1.1"
   id="svg5"
   inkscape:version="1.3 (0e150ed6c4, 2023-07-21)"
   sodipodi:docname="zanshin.svg"
   xmlns:inkscape="http://www.inkscape.org/namespaces/inkscape"
   xmlns:sodipodi="http://sodipodi.sourceforge.net/DTD/sodipodi-0.dtd"
   xmlns="http://www.w3.org/2000/svg"
   xmlns:svg="http://www.w3.org/2000/svg">
  <sodipodi:namedview
     id="namedview7"
     pagecolor="#ffffff"
     bordercolor="#000000"
     borderopacity="0.25"
     inkscape:showpageshadow="2"
     inkscape:pageopacity="0.0"
     inkscape:pagecheckerboard="0"
     inkscape:deskcolor="#d1d1d1"
     inkscape:document-units="px"
     showgrid="false"
     inkscape:zoom="8.15625"
     inkscape:cx="47.938697"
     inkscape:cy="48"
     inkscape:window-width="1920"
     inkscape:window-height="984"
     inkscape:window-x="0"
     inkscape:window-y="29"
     inkscape:window-maximized="1"
     inkscape:current-layer="svg5" />
  <defs
     id="defs2" />
  <rect
     style="opacity:0.2;fill:#000000;stroke-width:6;stroke-linecap:square"
     id="rect234"
     width="84"
     height="84"
     x="6"
     y="7"
     ry="18" />
  <rect
     style="fill:#e4e4e4;fill-opacity:1;stroke-width:6;stroke-linecap:square"
     id="rect396"
     width="84"
     height="84"
     x="6"
     y="6"
     ry="18" />
  <rect
     style="fill:#182d33;fill-opacity:1;stroke-width:6;stroke-linecap:round;stroke-linejoin:round"
     id="rect1"
     width="66"
     height="66"
     x="15"
     y="15"
     ry="9" />
  <circle
     style="opacity:0.2;fill:#000000;fill-opacity:1;stroke-width:6;stroke-linecap:round;stroke-linejoin:round"
     id="path1"
     cx="48"
     cy="49"
     r="24" />
  <circle
     style="fill:#223f48;fill-opacity:1;stroke-width:6;stroke-linecap:round;stroke-linejoin:round"
     id="path2"
     cx="48"
     cy="48"
     r="24" />
  <path
     id="path3"
     style="opacity:0.1;fill:#ffffff;stroke-width:3;stroke-linecap:round;stroke-linejoin:round"
     d="M 48 24 A 24 24 0 0 0 24 48 A 24 24 0 0 0 24.035156 48.503906 A 24 24 0 0 1 48 25 A 24 24 0 0 1 71.982422 48.255859 A 24 24 0 0 0 72 48 A 24 24 0 0 0 48 24 z " />
  <circle
     style="opacity:0.2;fill:#000000;fill-opacity:1;stroke-width:6;stroke-linecap:round;stroke-linejoin:round"
     id="path4"
     cx="48"
     cy="49"
     r="15" />
  <circle
     style="fill:#325e6a;fill-opacity:1;stroke-width:6;stroke-linecap:round;stroke-linejoin:round"
     id="path5"
     cx="48"
     cy="48"
     r="15" />
  <path
     id="path6"
     style="opacity:0.1;fill:#ffffff;stroke-width:3;stroke-linecap:round;stroke-linejoin:round"
     d="M 48 33 A 15 15 0 0 0 33 48 A 15 15 0 0 0 33.035156 48.503906 A 15 15 0 0 1 48 34 A 15 15 0 0 1 62.982422 48.257812 A 15 15 0 0 0 63 48 A 15 15 0 0 0 48 33 z " />
  <circle
     style="opacity:0.2;fill:#000000;fill-opacity:1;stroke-width:6;stroke-linecap:round;stroke-linejoin:round"
     id="path7"
     cx="48"
     cy="49"
     r="6" />
  <circle
     style="fill:#1996b4;fill-opacity:1;stroke-width:6;stroke-linecap:round;stroke-linejoin:round"
     id="path8"
     cx="48"
     cy="48"
     r="6" />
  <path
     id="path9"
     style="opacity:0.2;fill:#ffffff;fill-opacity:1;stroke-width:6;stroke-linecap:round;stroke-linejoin:round"
     d="M 48 42 A 6 6 0 0 0 42 48 A 6 6 0 0 0 42.035156 48.503906 A 6 6 0 0 1 48 43 A 6 6 0 0 1 53.970703 48.40625 A 6 6 0 0 0 54 48 A 6 6 0 0 0 48 42 z " />
  <g
     id="g361"
     transform="matrix(1.4999913,0,0,1.4999913,1.047e-4,1.047e-4)" />
  <path
     id="path1040"
     style="opacity:0.2;fill:#ffffff;stroke-width:6;stroke-linecap:square"
     d="M 24 6 C 14.02802 6 6 14.028021 6 24 L 6 25 C 6 15.02802 14.02802 7 24 7 L 72 7 C 81.971978 7 90 15.02802 90 25 L 90 24 C 90 14.028021 81.971978 6 72 6 L 24 6 z " />
</svg>
