<?xml version="1.0" encoding="UTF-8" standalone="no"?>
<!-- Created with Inkscape (http://www.inkscape.org/) -->

<svg
   width="128"
   height="128"
   viewBox="0 0 128 128"
   version="1.1"
   id="svg5"
   inkscape:version="1.4 (e7c3feb100, 2024-10-09)"
   sodipodi:docname="system-file-manager.svg"
   xmlns:inkscape="http://www.inkscape.org/namespaces/inkscape"
   xmlns:sodipodi="http://sodipodi.sourceforge.net/DTD/sodipodi-0.dtd"
   xmlns="http://www.w3.org/2000/svg"
   xmlns:svg="http://www.w3.org/2000/svg">
  <sodipodi:namedview
     id="namedview7"
     pagecolor="#ffffff"
     bordercolor="#000000"
     borderopacity="0.25"
     inkscape:showpageshadow="2"
     inkscape:pageopacity="0.0"
     inkscape:pagecheckerboard="0"
     inkscape:deskcolor="#d1d1d1"
     inkscape:document-units="px"
     showgrid="false"
     inkscape:zoom="6.140625"
     inkscape:cx="64"
     inkscape:cy="64"
     inkscape:window-width="1920"
     inkscape:window-height="1011"
     inkscape:window-x="0"
     inkscape:window-y="0"
     inkscape:window-maximized="1"
     inkscape:current-layer="svg5" />
  <defs
     id="defs2" />
  <rect
     style="opacity:0.2;fill:#000000;stroke-width:8;stroke-linecap:square"
     id="rect234"
     width="112"
     height="112"
     x="8"
     y="9"
     ry="24" />
  <rect
     style="fill:#4f4f4f;fill-opacity:1;stroke-width:8;stroke-linecap:square"
     id="rect396"
     width="112"
     height="112"
     x="8"
     y="8"
     ry="24" />
  <path
     id="path2024"
     style="opacity:0.2;fill:#000000;stroke-width:16;stroke-linecap:square"
     d="m 30,31 c -3.313708,0 -6,2.68629 -6,6 v 56 c 0,3.313708 2.686292,6 6,6 h 68 c 3.31371,0 6,-2.686292 6,-6 V 47 c 0,-3.313708 -2.68629,-6 -6,-6 H 64 l -4,-6 c -2.458424,-3.687636 -3.568012,-4 -8,-4 z" />
  <path
     id="path2052"
     style="fill:#49665b;fill-opacity:1;stroke-width:16;stroke-linecap:square"
     d="m 30,30 c -3.313708,0 -6,2.68629 -6,6 v 56 c 0,3.313708 2.686292,6 6,6 h 68 c 3.31371,0 6,-2.686292 6,-6 V 46 c 0,-3.313708 -2.68629,-6 -6,-6 H 64 l -4,-6 c -2.458424,-3.687638 -3.568012,-4 -8,-4 z" />
  <path
     id="path3024"
     style="opacity:0.1;fill:#ffffff;fill-opacity:1;stroke-width:16;stroke-linecap:square"
     d="m 30,30 c -3.313704,0 -6,2.686294 -6,6 v 1 c 0,-3.313706 2.686296,-6 6,-6 h 22 c 4.431984,0 5.541578,0.312366 8,4 l 4,6 h 34 c 3.3137,0 6,2.686296 6,6 v -1 c 0,-3.313704 -2.6863,-6 -6,-6 H 64 l -4,-6 c -2.458422,-3.687634 -3.568016,-4 -8,-4 z" />
  <rect
     style="opacity:0.2;fill:#000000;fill-opacity:1;stroke-width:16;stroke-linecap:square"
     id="rect2667"
     width="80"
     height="48"
     x="24"
     y="49"
     ry="6" />
  <rect
     style="fill:#efe8c0;fill-opacity:1;stroke-width:6;stroke-linecap:square"
     id="rect3435"
     width="72"
     height="36"
     x="28"
     y="43.999996"
     ry="3" />
  <rect
     style="fill:#83a598;fill-opacity:1;stroke-width:16;stroke-linecap:square"
     id="rect2072"
     width="80"
     height="48"
     x="24"
     y="49.999996"
     ry="6" />
  <path
     id="path1040"
     style="opacity:0.1;fill:#ffffff;stroke-width:8;stroke-linecap:square"
     d="M 32,8 C 18.704026,8 8,18.704027 8,32 v 1 C 8,19.704028 18.704026,9 32,9 h 64 c 13.29597,0 24,10.704028 24,24 V 32 C 120,18.704027 109.29597,8 96,8 Z" />
</svg>
