<?xml version="1.0" encoding="UTF-8" standalone="no"?>
<!-- Created with Inkscape (http://www.inkscape.org/) -->

<svg
   width="16"
   height="16"
   viewBox="0 0 16 16"
   version="1.1"
   id="svg5"
   inkscape:version="1.4 (e7c3feb100, 2024-10-09)"
   sodipodi:docname="maps.svg"
   xmlns:inkscape="http://www.inkscape.org/namespaces/inkscape"
   xmlns:sodipodi="http://sodipodi.sourceforge.net/DTD/sodipodi-0.dtd"
   xmlns="http://www.w3.org/2000/svg"
   xmlns:svg="http://www.w3.org/2000/svg">
  <sodipodi:namedview
     id="namedview7"
     pagecolor="#ffffff"
     bordercolor="#000000"
     borderopacity="0.25"
     inkscape:showpageshadow="2"
     inkscape:pageopacity="0.0"
     inkscape:pagecheckerboard="0"
     inkscape:deskcolor="#d1d1d1"
     inkscape:document-units="px"
     showgrid="false"
     inkscape:zoom="48.9375"
     inkscape:cx="7.9897829"
     inkscape:cy="8.0102171"
     inkscape:window-width="1920"
     inkscape:window-height="1011"
     inkscape:window-x="0"
     inkscape:window-y="0"
     inkscape:window-maximized="1"
     inkscape:current-layer="svg5" />
  <defs
     id="defs2" />
  <rect
     style="fill:#3f3f3f;fill-opacity:1;stroke-width:1.14286;stroke-linecap:square"
     id="rect396"
     width="16"
     height="16"
     x="0"
     y="0"
     ry="4" />
  <path
     id="path1"
     style="fill:#000000;opacity:0.1"
     d="M 1.2246094 1.1191406 C 0.82673131 1.5024372 0.50681662 1.9655551 0.29492188 2.4863281 L 13.326172 15.771484 C 13.861566 15.584204 14.343003 15.287104 14.746094 14.90625 L 9.1308594 9.1855469 L 15.705078 2.4863281 C 15.493183 1.9655551 15.173269 1.5024372 14.775391 1.1191406 L 8 8.0253906 L 1.2246094 1.1191406 z " />
  <path
     id="path2"
     style="fill:#2a2a2a;fill-opacity:1"
     d="M 1.4863281 0.88671875 C 1.0610595 1.2299867 0.70811932 1.6576685 0.453125 2.1464844 L 13.679688 15.630859 C 14.183259 15.398528 14.62691 15.063639 14.990234 14.654297 L 9.1308594 8.6855469 L 15.546875 2.1464844 C 15.291881 1.6576685 14.938941 1.2299867 14.513672 0.88671875 L 8 7.5253906 L 1.4863281 0.88671875 z " />
  <path
     id="path3"
     style="fill:#f64d4d"
     d="M 14.816406 1.15625 L 7.7167969 8.3964844 C 7.5609346 8.5566503 7.5609346 8.8163966 7.7167969 8.9765625 L 9.8027344 11.115234 C 9.7126986 10.702498 9.6484375 10.375 9.6484375 10.375 C 9.6484375 10.375 9.9652587 10.44097 10.367188 10.533203 L 8.5664062 8.6855469 L 15.333984 1.7851562 C 15.18299 1.5576548 15.009611 1.3475971 14.816406 1.15625 z " />
  <path
     style="fill:#6a6a6a;fill-opacity:1"
     d="m 7.29e-6,6.5286866 v 1.6739896 c 0.04839,0.012732 0.0962449,0.02638 0.14304,0.041764 0.34462792,0.1133125 0.65757116,0.3008801 0.89110451,0.5406125 0.3795227,0.3895976 0.6380326,1.02662 0.9192162,1.7630324 0.2845857,0.745322 0.6278962,1.642676 1.3979446,2.316787 0.7684916,0.672749 1.7049236,0.887321 2.5211788,1.001087 0.8082752,0.112649 1.5331145,0.146638 2.1261656,0.334121 0.5572805,0.176176 1.0797997,0.503171 1.4996429,0.931972 C 9.7479088,15.386984 9.9629708,15.681402 10.139292,16 H 11.90331 C 11.622668,15.244073 11.192252,14.5464 10.627322,13.969419 10.027597,13.356897 9.2876914,12.890188 8.4699439,12.631667 7.6072418,12.358936 6.7890678,12.337611 6.0878774,12.239884 5.3946674,12.143269 4.7803906,11.958158 4.3902106,11.616589 3.9976903,11.272972 3.7160702,10.664196 3.4432958,9.9498074 3.1671194,9.2265082 2.8668546,8.3447774 2.1660669,7.6253874 1.7277552,7.1754405 1.1918321,6.8662722 0.63128365,6.6819662 0.42184353,6.613103 0.21068117,6.5641006 7.29e-6,6.5286866 Z"
     id="path4" />
  <path
     style="fill:#000000;opacity:0.1"
     d="m 10.000001,11.5 c 0,0 0.524654,2.867611 1.171578,3.514638 0.646979,0.64709 1.696014,0.647157 2.343076,1.52e-4 0.647127,-0.647062 0.647127,-1.696249 0,-2.343311 C 12.867593,12.024473 10.000001,11.5 10.000001,11.5 Z"
     id="path6-0" />
  <path
     id="path5"
     style="fill:#194764;fill-opacity:1"
     d="M 0 7.3613281 L 0 12 C 0 14.215998 1.7840022 16 4 16 L 11.037109 16 C 10.798937 15.46256 10.470253 14.967233 10.0625 14.550781 C 9.5527163 14.030121 8.9218872 13.633363 8.234375 13.416016 C 7.5064996 13.185907 6.7352 13.157925 5.9804688 13.052734 C 5.2257374 12.947546 4.4504282 12.747393 3.8710938 12.240234 C 3.2898104 11.731372 2.9778986 10.979853 2.6992188 10.25 C 2.4205388 9.5201454 2.1397634 8.7595707 1.5996094 8.2050781 C 1.2636875 7.8602397 0.83930615 7.6116996 0.38671875 7.4628906 C 0.25963617 7.4211064 0.13074342 7.3880665 0 7.3613281 z " />
  <path
     id="path4-9"
     style="fill:#000000;opacity:0.1"
     d="M 0 7.3613281 L 0 7.8613281 C 0.13074337 7.8880665 0.25963638 7.9211065 0.38671875 7.9628906 C 0.8393058 8.1116995 1.2636878 8.3602401 1.5996094 8.7050781 C 2.1397628 9.2595702 2.420539 10.020146 2.6992188 10.75 C 2.9778983 11.479852 3.2898109 12.231373 3.8710938 12.740234 C 4.4504276 13.247393 5.2257381 13.447546 5.9804688 13.552734 C 6.7351992 13.657925 7.5065003 13.685907 8.234375 13.916016 C 8.9218865 14.133362 9.5527168 14.530122 10.0625 15.050781 C 10.340197 15.334403 10.580515 15.654823 10.78125 16 L 11.037109 16 C 10.798938 15.462561 10.470253 14.967233 10.0625 14.550781 C 9.5527168 14.030122 8.9218865 13.633362 8.234375 13.416016 C 7.5065003 13.185907 6.7351992 13.157925 5.9804688 13.052734 C 5.2257381 12.947546 4.4504276 12.747393 3.8710938 12.240234 C 3.2898109 11.731373 2.9778983 10.979852 2.6992188 10.25 C 2.420539 9.5201461 2.1397628 8.7595702 1.5996094 8.2050781 C 1.2636878 7.8602401 0.83930575 7.6116995 0.38671875 7.4628906 C 0.25963631 7.4211065 0.13074334 7.3880665 0 7.3613281 z " />
  <path
     style="fill:#f64d4d"
     d="m 10.000001,11 c 0,0 0.524654,2.867611 1.171578,3.514638 0.646979,0.64709 1.696014,0.647157 2.343076,1.52e-4 0.647127,-0.647062 0.647127,-1.696249 0,-2.343311 C 12.867593,11.524473 10.000001,11 10.000001,11 Z"
     id="path6" />
  <ellipse
     style="fill:#eff0f1;fill-opacity:1;stroke-linecap:round;stroke-linejoin:round"
     id="path7"
     cx="12.500012"
     cy="13.500164"
     rx="0.49999115"
     ry="0.50016546" />
  <path
     id="rect639"
     style="fill:#ffffff;stroke-linecap:square;opacity:0.1"
     d="M 4 0 C 1.7840022 0 0 1.7840022 0 4 L 0 5 C 0 2.7840022 1.7840022 1 4 1 L 12 1 C 14.215998 1 16 2.7840022 16 5 L 16 4 C 16 1.7840022 14.215998 0 12 0 L 4 0 z " />
</svg>
