<?xml version="1.0" encoding="UTF-8" standalone="no"?>
<!-- Created with Inkscape (http://www.inkscape.org/) -->

<svg
   width="16"
   height="16"
   viewBox="0 0 16 16"
   version="1.1"
   id="svg5"
   inkscape:version="1.4.3 (0d15f75042, 2025-12-25)"
   sodipodi:docname="org.gnome.Showtime.svg"
   xmlns:inkscape="http://www.inkscape.org/namespaces/inkscape"
   xmlns:sodipodi="http://sodipodi.sourceforge.net/DTD/sodipodi-0.dtd"
   xmlns="http://www.w3.org/2000/svg"
   xmlns:svg="http://www.w3.org/2000/svg">
  <sodipodi:namedview
     id="namedview7"
     pagecolor="#ffffff"
     bordercolor="#000000"
     borderopacity="0.25"
     inkscape:showpageshadow="2"
     inkscape:pageopacity="0.0"
     inkscape:pagecheckerboard="0"
     inkscape:deskcolor="#d1d1d1"
     inkscape:document-units="px"
     showgrid="false"
     inkscape:zoom="50.4375"
     inkscape:cx="7.9900867"
     inkscape:cy="8"
     inkscape:window-width="1920"
     inkscape:window-height="1010"
     inkscape:window-x="0"
     inkscape:window-y="0"
     inkscape:window-maximized="1"
     inkscape:current-layer="svg5" />
  <defs
     id="defs2" />
  <rect
     style="fill:#4d4d4d;fill-opacity:1;stroke-width:1.14286;stroke-linecap:square"
     id="rect396"
     width="16"
     height="16"
     x="0"
     y="0"
     ry="4" />
  <path
     id="rect639"
     style="fill:#ffffff;stroke-linecap:square;opacity:0.1"
     d="M 4 0 C 1.7840022 0 0 1.7840022 0 4 L 0 5 C 0 2.7840022 1.7840022 1 4 1 L 12 1 C 14.215998 1 16 2.7840022 16 5 L 16 4 C 16 1.7840022 14.215998 0 12 0 L 4 0 z " />
  <path
     d="M 5.3487365,3.5249519 A 1.6320752,1.6375635 0 0 0 4.0000001,5.13728 v 7.225399 a 1.6320752,1.6375635 0 0 0 2.4479268,1.418037 l 6.2362181,-3.6127 a 1.6320752,1.6375635 0 0 0 0,-2.8360726 L 6.4479269,3.7192439 A 1.6320752,1.6375635 0 0 0 5.3487365,3.5249519 Z"
     style="opacity:0.2;fill:#000000;stroke-width:0.499998"
     id="path1" />
  <path
     d="M 5.3487365,3.0249681 C 4.5688389,3.1629132 4.0001786,3.8427101 4.0000001,4.6372961 V 10.12624 l 0.9360839,0.816511 c 1.865e-4,1.260393 -0.028016,1.467072 1.0599408,0.837018 L 11.441413,9.135433 C 12.529152,8.5050742 11.480093,7.7528266 10.392354,7.1224682 L 8.2556449,4.2664882 6.4479269,3.2192604 C 6.1156718,3.0268987 5.7265044,2.9581096 5.3487365,3.0249681 Z"
     style="fill:#4263e7;stroke-width:0.499998"
     id="path2" />
  <path
     d="M 8.1943187,4.230522 C 6.4938983,5.5570687 5.4998829,7.5933768 5.4999939,9.750031 c 1.4e-5,0.1375559 0.0041,0.274838 0.012155,0.411676 0.064686,1.096201 1.3042171,0.56453 1.8596098,1.516289 L 11.412908,9.2091662 c 1.087572,-0.6303909 1.4022,-1.2747578 0.31463,-1.9051492 L 10.718267,5.6928532 Z"
     style="fill:#cd5dd9;stroke-width:0.499998"
     id="path3" />
  <path
     d="M 10.644503,5.6504378 C 9.034464,6.3791268 8.0000045,7.9827692 7.9999835,9.750031 c 5e-6,0.1283555 0.0055,0.256339 0.016395,0.383616 0.056965,0.665504 0.7334939,0.485792 1.0727345,1.064888 l 1.878072,-1.019262 C 11.936896,9.6171965 13.759334,7.792765 12.999796,7.0679 12.907482,6.9797993 12.802395,6.9003892 12.684535,6.8320739 Z"
     style="fill:#fe8668;stroke-width:0.499998"
     id="path4" />
  <path
     d="m 12.923791,7.0010182 c -1.350492,0.041167 -2.423917,1.1478943 -2.423818,2.4990138 -5.4e-5,0.2103432 0.02643,0.4189298 0.07819,0.620984 0.05546,0.216526 0.316846,0.105991 0.428788,0.301638 l 1.050176,-0.391226 0.62741,-0.3634277 c 0.977714,-0.5666251 1.100407,-1.9342796 0.239256,-2.6669821 z"
     style="fill:#ffb44f;stroke-width:0.499998"
     id="path5" />
  <path
     d="m 4.0000001,10.000035 v 1.862783 a 1.6320752,1.6375635 0 0 0 2.4477408,1.417961 l 5.6630551,-3.280744 z"
     style="fill:#32c080;stroke-width:0.499998"
     id="path6" />
  <path
     id="path7"
     style="opacity:0.2;fill:#ffffff;stroke-width:0.499998"
     d="M 5.5751891,3.0010349 A 1.6320752,1.6375635 0 0 0 5.3486273,3.0244723 1.6320752,1.6375635 0 0 0 4.0000001,4.6377468 V 5.137745 A 1.6320752,1.6375635 0 0 1 5.3486273,3.5244702 1.6320752,1.6375635 0 0 1 6.4482319,3.7188054 l 6.2363031,3.613266 A 1.6320752,1.6375635 0 0 1 13.476523,8.5000357 1.6320752,1.6375635 0 0 0 12.684535,6.8320734 L 6.4482319,3.2188074 A 1.6320752,1.6375635 0 0 0 5.5751891,3.0010349 Z" />
  <path
     id="path8"
     style="opacity:0.2;fill:#ffffff;stroke-width:0.499998"
     d="m 4.0000001,10.00003 v 0.499997 H 11.24704 l 0.863278,-0.499997 z" />
</svg>
