<?xml version="1.0" encoding="UTF-8" standalone="no"?>
<!-- Created with Inkscape (http://www.inkscape.org/) -->

<svg
   width="16"
   height="16"
   viewBox="0 0 16 16"
   version="1.1"
   id="svg5"
   inkscape:version="1.4 (e7c3feb100, 2024-10-09)"
   sodipodi:docname="preferences-system-login.svg"
   xmlns:inkscape="http://www.inkscape.org/namespaces/inkscape"
   xmlns:sodipodi="http://sodipodi.sourceforge.net/DTD/sodipodi-0.dtd"
   xmlns="http://www.w3.org/2000/svg"
   xmlns:svg="http://www.w3.org/2000/svg">
  <sodipodi:namedview
     id="namedview7"
     pagecolor="#ffffff"
     bordercolor="#000000"
     borderopacity="0.25"
     inkscape:showpageshadow="2"
     inkscape:pageopacity="0.0"
     inkscape:pagecheckerboard="0"
     inkscape:deskcolor="#d1d1d1"
     inkscape:document-units="px"
     showgrid="false"
     inkscape:zoom="49.125"
     inkscape:cx="8"
     inkscape:cy="8"
     inkscape:window-width="1920"
     inkscape:window-height="1011"
     inkscape:window-x="0"
     inkscape:window-y="0"
     inkscape:window-maximized="1"
     inkscape:current-layer="svg5" />
  <defs
     id="defs2" />
  <rect
     style="fill:#4f4f4f;fill-opacity:1;stroke-width:1.14286;stroke-linecap:square"
     id="rect396"
     width="16"
     height="16"
     x="0"
     y="0"
     ry="4" />
  <path
     id="rect2"
     d="M 3 3.5 C 2.4460006 3.5 2 3.9460006 2 4.5 L 2 6.5 C 2 7.0539994 2.4460006 7.5 3 7.5 L 13 7.5 C 13.553999 7.5 14 7.0539994 14 6.5 L 14 4.5 C 14 3.9460006 13.553999 3.5 13 3.5 L 3 3.5 z M 3 9.5 C 2.4460006 9.5 2 9.9460006 2 10.5 L 2 12.5 C 2 13.053999 2.4460006 13.5 3 13.5 L 13 13.5 C 13.553999 13.5 14 13.053999 14 12.5 L 14 10.5 C 14 9.9460006 13.553999 9.5 13 9.5 L 3 9.5 z "
     style="fill:#000000;opacity:0.2" />
  <path
     id="rect3"
     d="M 3 3 C 2.4460006 3 2 3.4460006 2 4 L 2 6 C 2 6.5539994 2.4460006 7 3 7 L 13 7 C 13.553999 7 14 6.5539994 14 6 L 14 4 C 14 3.4460006 13.553999 3 13 3 L 3 3 z M 3 9 C 2.4460006 9 2 9.4460006 2 10 L 2 12 C 2 12.553999 2.4460006 13 3 13 L 13 13 C 13.553999 13 14 12.553999 14 12 L 14 10 C 14 9.4460006 13.553999 9 13 9 L 3 9 z "
     style="fill:#2f2f2f;fill-opacity:1" />
  <path
     id="path8"
     style="fill:#ff4f4f;fill-opacity:1;stroke-width:2"
     d="m 4,10 a 1,1 0 0 0 -1,1 1,1 0 0 0 1,1 1,1 0 0 0 1,-1 1,1 0 0 0 -1,-1 z m 3,0 a 1,1 0 0 0 -1,1 1,1 0 0 0 1,1 1,1 0 0 0 1,-1 1,1 0 0 0 -1,-1 z m 3,0 a 1,1 0 0 0 -1,1 1,1 0 0 0 1,1 1,1 0 0 0 1,-1 1,1 0 0 0 -1,-1 z" />
  <path
     id="path9"
     style="fill:#4fa0ff;fill-opacity:1;stroke-width:2"
     d="M 4,4 A 1,1 0 0 0 3,5 1,1 0 0 0 4,6 1,1 0 0 0 5,5 1,1 0 0 0 4,4 Z M 7,4 A 1,1 0 0 0 6,5 1,1 0 0 0 7,6 1,1 0 0 0 8,5 1,1 0 0 0 7,4 Z m 3,0 A 1,1 0 0 0 9,5 1,1 0 0 0 10,6 1,1 0 0 0 11,5 1,1 0 0 0 10,4 Z" />
  <path
     id="rect639"
     style="fill:#ffffff;stroke-linecap:square;opacity:0.1"
     d="M 4 0 C 1.7840022 0 0 1.7840022 0 4 L 0 5 C 0 2.7840022 1.7840022 1 4 1 L 12 1 C 14.215998 1 16 2.7840022 16 5 L 16 4 C 16 1.7840022 14.215998 0 12 0 L 4 0 z " />
</svg>
