<?xml version="1.0" encoding="UTF-8" standalone="no"?>
<!-- Created with Inkscape (http://www.inkscape.org/) -->

<svg
   width="16"
   height="16"
   viewBox="0 0 16 16"
   version="1.1"
   id="svg5"
   inkscape:version="1.4.3 (0d15f75042, 2025-12-25)"
   sodipodi:docname="xbox.svg"
   xmlns:inkscape="http://www.inkscape.org/namespaces/inkscape"
   xmlns:sodipodi="http://sodipodi.sourceforge.net/DTD/sodipodi-0.dtd"
   xmlns="http://www.w3.org/2000/svg"
   xmlns:svg="http://www.w3.org/2000/svg">
  <sodipodi:namedview
     id="namedview7"
     pagecolor="#ffffff"
     bordercolor="#000000"
     borderopacity="0.25"
     inkscape:showpageshadow="2"
     inkscape:pageopacity="0.0"
     inkscape:pagecheckerboard="0"
     inkscape:deskcolor="#d1d1d1"
     inkscape:document-units="px"
     showgrid="false"
     inkscape:zoom="51.9375"
     inkscape:cx="8"
     inkscape:cy="8"
     inkscape:window-width="1920"
     inkscape:window-height="1012"
     inkscape:window-x="0"
     inkscape:window-y="0"
     inkscape:window-maximized="1"
     inkscape:current-layer="svg5"
     showguides="false" />
  <defs
     id="defs2" />
  <rect
     style="fill:#4d4d4d;fill-opacity:1;stroke-width:1.14286;stroke-linecap:square"
     id="rect396"
     width="16"
     height="16"
     x="0"
     y="0"
     ry="4" />
  <path
     id="rect639"
     style="fill:#ffffff;stroke-linecap:square;opacity:0.2"
     d="M 4 0 C 1.7840022 0 0 1.7840022 0 4 L 0 5 C 0 2.7840022 1.7840022 1 4 1 L 12 1 C 14.215998 1 16 2.7840022 16 5 L 16 4 C 16 1.7840022 14.215998 0 12 0 L 4 0 z " />
  <path
     style="fill:#000000;opacity:0.2"
     d="M 7.5013927,13.479464 C 6.7310477,13.405704 5.9511723,13.129238 5.2812461,12.692354 4.7198747,12.326446 4.593189,12.175784 4.593189,11.875507 c 0,-0.603226 0.6636496,-1.659946 1.7991765,-2.8643074 0.6447051,-0.6841907 1.542899,-1.4857044 1.6399473,-1.4640983 0.1889835,0.042166 1.6987576,1.5140476 2.2640802,2.2070667 0.893777,1.095402 1.30452,1.992632 1.095778,2.392576 -0.158648,0.303995 -1.143314,0.898276 -1.8665878,1.126533 -0.5962389,0.188182 -1.3792529,0.267869 -2.0241905,0.206187 z M 3.8349307,11.248352 C 3.3683999,10.533031 3.1326939,9.82886 3.0190253,8.8103564 2.981368,8.4740692 2.9946178,8.2818221 3.1042188,7.5913588 3.2405517,6.7317645 3.730676,5.7362612 4.3199414,5.1240908 4.5707572,4.863889 4.5930722,4.8569193 4.898979,4.9603029 5.2697397,5.0857572 5.6660701,5.3594337 6.2809048,5.9151498 L 6.640043,6.2397048 6.4436212,6.4801587 C 5.5338047,7.5964699 4.5735465,9.1797496 4.2120839,10.158991 c -0.1964218,0.532018 -0.2754554,1.066361 -0.1906103,1.28881 0.056951,0.150313 0.00465,0.09432 -0.187124,-0.199101 z m 8.1884633,0.121621 c 0.04614,-0.224889 -0.0122,-0.637726 -0.148769,-1.054281 C 11.57883,9.4136989 10.589864,7.7357474 9.6817907,6.5948102 L 9.395875,6.2356391 9.7052686,5.9518569 c 0.4037684,-0.370555 0.6841054,-0.5924232 0.9867574,-0.7809533 0.238612,-0.1486864 0.579735,-0.2802975 0.726412,-0.2802975 0.09031,0 0.40865,0.3310601 0.66551,0.6911604 0.397957,0.5575747 0.690614,1.2347958 0.838918,1.9387337 0.09589,0.4553529 0.103906,1.4287851 0.01546,1.8829762 -0.07322,0.3726456 -0.22664,0.8556456 -0.375409,1.1833366 -0.112739,0.245449 -0.390519,0.722292 -0.512556,0.877483 -0.06276,0.0798 -0.06276,0.07969 -0.02789,-0.09247 z M 7.5839134,4.7203136 C 7.1648027,4.5077382 6.5183544,4.2794811 6.1613083,4.2179157 6.0362494,4.1964264 5.8227423,4.18423 5.6871065,4.1911979 5.3923579,4.2060657 5.4054915,4.1907336 5.8780658,3.9675871 6.2709094,3.7820771 6.5986666,3.6730018 7.0438116,3.5796078 7.5441642,3.4744817 8.4850128,3.4733202 8.9774618,3.5770364 9.5091954,3.6891321 10.135536,3.9220357 10.488399,4.1392575 l 0.105068,0.064354 -0.240588,-0.012082 C 9.8744932,4.1673861 9.1773703,4.3605611 8.4288756,4.7243786 8.2031649,4.8342672 8.0069756,4.9218529 7.9925638,4.9195297 7.9782674,4.916744 7.794282,4.8271815 7.5834484,4.7203129 Z"
     id="path1" />
  <path
     style="fill:#1fa515;fill-opacity:1"
     d="M 7.5013927,12.979464 C 6.7310477,12.905704 5.9511723,12.629238 5.2812461,12.192354 4.7198747,11.826446 4.593189,11.675784 4.593189,11.375507 c 0,-0.603226 0.6636496,-1.6599461 1.7991765,-2.8643074 0.6447051,-0.6841907 1.542899,-1.4857044 1.6399473,-1.4640983 0.1889835,0.042166 1.6987576,1.5140476 2.2640802,2.2070666 0.893777,1.0954021 1.30452,1.9926321 1.095778,2.3925761 -0.158648,0.303995 -1.143314,0.898276 -1.8665878,1.126533 -0.5962389,0.188182 -1.3792529,0.267869 -2.0241905,0.206187 z M 3.8349307,10.748352 C 3.3683999,10.033031 3.1326939,9.3288597 3.0190253,8.3103564 2.981368,7.9740692 2.9946178,7.7818221 3.1042188,7.0913588 3.2405517,6.2317645 3.730676,5.2362612 4.3199414,4.6240908 4.5707572,4.363889 4.5930722,4.3569193 4.898979,4.4603029 5.2697397,4.5857572 5.6660701,4.8594337 6.2809048,5.4151498 L 6.640043,5.7397048 6.4436212,5.9801587 C 5.5338047,7.0964699 4.5735465,8.6797496 4.2120839,9.6589909 4.0156621,10.191009 3.9366285,10.725352 4.0214736,10.947801 c 0.056951,0.150313 0.00465,0.09432 -0.187124,-0.199101 z m 8.1884633,0.121621 c 0.04614,-0.224889 -0.0122,-0.637726 -0.148769,-1.0542811 C 11.57883,8.9136989 10.589864,7.2357474 9.6817907,6.0948102 L 9.395875,5.7356391 9.7052686,5.4518569 c 0.4037684,-0.370555 0.6841054,-0.5924232 0.9867574,-0.7809533 0.238612,-0.1486864 0.579735,-0.2802975 0.726412,-0.2802975 0.09031,0 0.40865,0.3310601 0.66551,0.6911604 0.397957,0.5575747 0.690614,1.2347958 0.838918,1.9387337 0.09589,0.4553529 0.103906,1.4287851 0.01546,1.8829762 -0.07322,0.3726458 -0.22664,0.8556455 -0.375409,1.1833366 -0.112739,0.245449 -0.390519,0.722292 -0.512556,0.877483 -0.06276,0.0798 -0.06276,0.07969 -0.02789,-0.09247 z M 7.5839134,4.2203136 C 7.1648027,4.0077382 6.5183544,3.7794811 6.1613083,3.7179157 6.0362494,3.6964264 5.8227423,3.68423 5.6871065,3.6911979 5.3923579,3.7060657 5.4054915,3.6907336 5.8780658,3.4675871 6.2709094,3.2820771 6.5986666,3.1730018 7.0438116,3.0796078 7.5441642,2.9744817 8.4850128,2.9733202 8.9774618,3.0770364 9.5091954,3.1891321 10.135536,3.4220357 10.488399,3.6392575 l 0.105068,0.064354 -0.240588,-0.012082 C 9.8744932,3.6673861 9.1773703,3.8605611 8.4288756,4.2243786 8.2031649,4.3342672 8.0069756,4.4218529 7.9925638,4.4195297 7.9782674,4.416744 7.794282,4.3271815 7.5834484,4.2203129 Z"
     id="path2" />
</svg>
