<?xml version="1.0" encoding="UTF-8" standalone="no"?>
<!-- Created with Inkscape (http://www.inkscape.org/) -->

<svg
   width="32"
   height="32"
   viewBox="0 0 32 32"
   version="1.1"
   id="svg5"
   inkscape:version="1.3 (0e150ed6c4, 2023-07-21)"
   sodipodi:docname="system-suspend.svg"
   xmlns:inkscape="http://www.inkscape.org/namespaces/inkscape"
   xmlns:sodipodi="http://sodipodi.sourceforge.net/DTD/sodipodi-0.dtd"
   xmlns="http://www.w3.org/2000/svg"
   xmlns:svg="http://www.w3.org/2000/svg">
  <sodipodi:namedview
     id="namedview7"
     pagecolor="#ffffff"
     bordercolor="#000000"
     borderopacity="0.25"
     inkscape:showpageshadow="2"
     inkscape:pageopacity="0.0"
     inkscape:pagecheckerboard="0"
     inkscape:deskcolor="#d1d1d1"
     inkscape:document-units="px"
     showgrid="false"
     inkscape:zoom="24.625"
     inkscape:cx="16"
     inkscape:cy="16"
     inkscape:window-width="1920"
     inkscape:window-height="1004"
     inkscape:window-x="0"
     inkscape:window-y="0"
     inkscape:window-maximized="1"
     inkscape:current-layer="svg5" />
  <defs
     id="defs2" />
  <rect
     style="opacity:0.2;fill:#000000;stroke-width:2;stroke-linecap:square"
     id="rect234"
     width="28"
     height="28"
     x="2"
     y="3"
     ry="6" />
  <rect
     style="fill:#00bcd4;fill-opacity:1;stroke-width:2;stroke-linecap:square"
     id="rect396"
     width="28"
     height="28"
     x="2"
     y="2"
     ry="6" />
  <path
     id="path2"
     style="opacity:0.2;stroke-width:0.952381"
     d="M 16 7 C 10.47717 7 6 11.47717 6 17 C 6 22.522829 10.47717 27 16 27 C 21.522829 27 26 22.522829 26 17 C 26 11.47717 21.522829 7 16 7 z M 16 10 C 19.865981 10 23 13.134019 23 17 C 23 20.865981 19.865981 24 16 24 C 12.134019 24 9 20.865981 9 17 C 9 13.134019 12.134019 10 16 10 z M 13 15 C 11.892001 15 11 15.892001 11 17 C 11 18.107999 11.892001 19 13 19 L 19 19 C 20.107999 19 21 18.107999 21 17 C 21 15.892001 20.107999 15 19 15 L 13 15 z " />
  <path
     id="path3"
     style="fill:#ffffff;stroke-width:0.952381"
     d="M 16 6 C 10.47717 6 6 10.47717 6 16 C 6 21.522829 10.47717 26 16 26 C 21.522829 26 26 21.522829 26 16 C 26 10.47717 21.522829 6 16 6 z M 16 9 C 19.865981 9 23 12.134019 23 16 C 23 19.865981 19.865981 23 16 23 C 12.134019 23 9 19.865981 9 16 C 9 12.134019 12.134019 9 16 9 z M 13 14 C 11.892001 14 11 14.892001 11 16 C 11 17.107999 11.892001 18 13 18 L 19 18 C 20.107999 18 21 17.107999 21 16 C 21 14.892001 20.107999 14 19 14 L 13 14 z " />
  <path
     d="M 8,2.0000001 C 4.6760033,2.0000001 2,4.6760035 2,8 V 9 C 2,5.6760035 4.6760033,3 8,3 h 16 c 3.323996,0 6,2.6760035 6,6 V 8 C 30,4.6760035 27.323996,2.0000001 24,2.0000001 Z"
     style="opacity:0.2;fill:#ffffff;stroke-width:2;stroke-linecap:square"
     id="path1040"
     sodipodi:nodetypes="sscsscsss" />
</svg>
