<?xml version="1.0" encoding="UTF-8" standalone="no"?>
<!-- Created with Inkscape (http://www.inkscape.org/) -->

<svg
   width="32"
   height="32"
   viewBox="0 0 32 32"
   version="1.1"
   id="svg5"
   inkscape:version="1.3 (0e150ed6c4, 2023-07-21)"
   sodipodi:docname="weather-clouds-night.svg"
   xmlns:inkscape="http://www.inkscape.org/namespaces/inkscape"
   xmlns:sodipodi="http://sodipodi.sourceforge.net/DTD/sodipodi-0.dtd"
   xmlns="http://www.w3.org/2000/svg"
   xmlns:svg="http://www.w3.org/2000/svg">
  <sodipodi:namedview
     id="namedview7"
     pagecolor="#ffffff"
     bordercolor="#000000"
     borderopacity="0.25"
     inkscape:showpageshadow="2"
     inkscape:pageopacity="0.0"
     inkscape:pagecheckerboard="0"
     inkscape:deskcolor="#d1d1d1"
     inkscape:document-units="px"
     showgrid="false"
     inkscape:zoom="24.46875"
     inkscape:cx="15.979566"
     inkscape:cy="16"
     inkscape:window-width="1920"
     inkscape:window-height="984"
     inkscape:window-x="0"
     inkscape:window-y="29"
     inkscape:window-maximized="1"
     inkscape:current-layer="svg5"
     showguides="false" />
  <defs
     id="defs2" />
  <path
     d="m 19.392234,5.0012961 c 0.779011,0.038587 1.234215,0.8953132 0.830193,1.5624805 -0.681595,1.1259619 -1.246697,2.4163274 -1.246848,3.7325184 0,3.99282 3.418685,7.451346 7.410935,7.453706 0.87437,-0.0069 1.741249,-0.416318 2.556299,-0.733028 0.91537,-0.355171 1.761488,0.650048 1.255349,1.491398 C 28.525651,21.288793 25.516444,22.993729 22.271757,23 h -0.0015 c -5.107567,0 -9.270216,-4.162647 -9.270216,-9.270271 0.0011,-3.844222 2.381832,-7.2962148 5.97498,-8.6627149 0.133006,-0.050473 0.275026,-0.072848 0.417108,-0.06572 z"
     style="opacity:0.2;fill:#000000;stroke-width:0.749993"
     id="path1" />
  <path
     d="m 19.392169,4.0012961 c 0.779011,0.038587 1.234216,0.8953133 0.830194,1.5624805 -0.681596,1.125962 -1.246698,2.4163271 -1.246848,3.7325184 0,3.99282 3.418685,7.451346 7.410935,7.453706 0.874369,-0.0068 1.741249,-0.416318 2.556299,-0.733028 0.91537,-0.355171 1.761488,0.650048 1.255349,1.491398 C 28.525587,20.288793 25.51638,21.993729 22.271693,22 h -0.0014 c -5.107603,0 -9.270252,-4.162647 -9.270252,-9.270271 0.0011,-3.844222 2.381832,-7.2962147 5.97498,-8.6627149 0.133007,-0.050473 0.275026,-0.072848 0.417108,-0.06572 z"
     style="fill:#ffcc42;stroke-width:0.749993"
     id="path2" />
  <path
     id="path3-9"
     style="opacity:0.2;fill:#ffffff;stroke-width:0.749993"
     d="m 19.392578,4.0019531 c -0.142082,-0.00713 -0.284962,0.01398 -0.417969,0.064453 C 15.381465,5.4329051 13.0011,8.886252 13,12.730469 c 0,0.172881 0.0062,0.343081 0.01563,0.513672 0.192084,-3.646674 2.518024,-6.8691125 5.958984,-8.1777348 0.133007,-0.050473 0.275887,-0.071581 0.417969,-0.064453 0.382495,0.018946 0.684667,0.2351567 0.847656,0.5292969 0.36984,-0.6620777 -0.08141,-1.4913423 -0.847656,-1.5292969 z M 19,9.835938 c -0.01478,0.153161 -0.02537,0.306845 -0.02539,0.460937 0,3.992816 3.419864,7.450765 7.41211,7.453125 0.874368,-0.0068 1.741591,-0.415712 2.55664,-0.732422 0.53133,-0.20616 1.035786,0.04654 1.269532,0.458984 C 30.680093,16.641816 29.847457,15.666781 28.94336,16.017578 28.12831,16.334288 27.261087,16.7432 26.386719,16.75 22.575648,16.747747 19.290617,13.595514 19,9.835938 Z" />
  <path
     d="M 15,15 C 11.477848,15.0034 8.506698,17.623158 8.0625,21.117188 7.713538,21.040268 7.357336,21.000988 7,21.000008 c -2.761424,0 -5,2.238576 -5,5 0,2.761424 2.238576,5 5,5 0.207722,-0.0014 0.415156,-0.0158 0.621094,-0.04296 v 0.03906 h 15.238282 v -0.0078 c 0.04682,0.0046 0.0937,0.0084 0.14062,0.0118 2.761424,0 5,-2.238576 5,-5 0,-2.761424 -2.238576,-5 -5,-5 -0.355004,0.0042 -0.70856,0.046 -1.054688,0.125 C 21.504344,17.624926 18.52775,14.9999 15,15.000008 Z"
     style="opacity:0.2;fill:#000000;stroke-width:2"
     id="path4" />
  <path
     d="M 15,14 C 11.477848,14.0034 8.506698,16.623158 8.0625,20.117188 7.713538,20.040268 7.357336,20.000988 7,20.000008 c -2.761424,0 -5,2.238576 -5,5 0,2.761424 2.238576,5 5,5 0.207722,-0.0014 0.415156,-0.0158 0.621094,-0.04296 v 0.03906 h 15.238282 v -0.0078 c 0.04682,0.0046 0.0937,0.0084 0.14062,0.0118 2.761424,0 5,-2.238576 5,-5 0,-2.761424 -2.238576,-5 -5,-5 -0.355004,0.0042 -0.70856,0.046 -1.054688,0.125 C 21.504344,16.624918 18.52775,13.999892 15,14 Z"
     style="fill:#f2f2f2;stroke-width:2;fill-opacity:1"
     id="path3" />
</svg>
