<?xml version="1.0" encoding="UTF-8" standalone="no"?>
<!-- Created with Inkscape (http://www.inkscape.org/) -->

<svg
   width="32"
   height="32"
   viewBox="0 0 32 32"
   version="1.1"
   id="svg5"
   inkscape:version="1.3 (0e150ed6c4, 2023-07-21)"
   sodipodi:docname="weather-clouds.svg"
   xmlns:inkscape="http://www.inkscape.org/namespaces/inkscape"
   xmlns:sodipodi="http://sodipodi.sourceforge.net/DTD/sodipodi-0.dtd"
   xmlns="http://www.w3.org/2000/svg"
   xmlns:svg="http://www.w3.org/2000/svg">
  <sodipodi:namedview
     id="namedview7"
     pagecolor="#ffffff"
     bordercolor="#000000"
     borderopacity="0.25"
     inkscape:showpageshadow="2"
     inkscape:pageopacity="0.0"
     inkscape:pagecheckerboard="0"
     inkscape:deskcolor="#d1d1d1"
     inkscape:document-units="px"
     showgrid="false"
     inkscape:zoom="24.46875"
     inkscape:cx="15.979566"
     inkscape:cy="16"
     inkscape:window-width="1920"
     inkscape:window-height="984"
     inkscape:window-x="0"
     inkscape:window-y="29"
     inkscape:window-maximized="1"
     inkscape:current-layer="svg5"
     showguides="false" />
  <defs
     id="defs2" />
  <path
     id="path9"
     style="opacity:0.2;fill:#000000;stroke-width:1.83333"
     d="m 21,3 -3,3 h -5 v 5 l -3,3 3,3 v 5 h 5 l 3,3 3,-3 h 5 v -5 l 3,-3 -3,-3 V 6 h -5 z" />
  <path
     id="path2"
     style="fill:#ff8a47;stroke-width:1.83333"
     d="m 21,2 -3,3 h -5 v 5 l -3,3 3,3 v 5 h 5 l 3,3 3,-3 h 5 v -5 l 3,-3 -3,-3 V 5 h -5 z" />
  <path
     id="path5"
     style="opacity:0.2;fill:#ffffff"
     d="m 21,2 -3,3 h -5 v 1 h 5 l 3,-3 3,3 h 5 V 5 h -5 z m -8,8 -3,3 0.5,0.5 L 13,11 Z m 16,0 v 1 L 31.5,13.5 32,13 Z" />
  <circle
     style="opacity:0.2;fill:#000000;stroke-width:2;stroke-linecap:round;stroke-linejoin:round"
     id="path6"
     cx="21"
     cy="14"
     r="6" />
  <circle
     style="fill:#ffcc42;fill-opacity:1;stroke-width:2;stroke-linecap:round;stroke-linejoin:round"
     id="path7"
     cx="21"
     cy="13"
     r="6" />
  <path
     id="path8"
     style="opacity:0.2;fill:#ffffff;fill-opacity:1;stroke-width:2;stroke-linecap:round;stroke-linejoin:round"
     d="m 21,7 a 6,6 0 0 0 -6,6 6,6 0 0 0 0.03516,0.5 A 6,6 0 0 1 21,8 6,6 0 0 1 26.972656,13.398438 6,6 0 0 0 27,13 6,6 0 0 0 21,7 Z" />
  <path
     d="M 15,15 C 11.477848,15.0034 8.506698,17.623158 8.0625,21.117188 7.713538,21.040268 7.357336,21.000988 7,21.000008 c -2.761424,0 -5,2.238576 -5,5 0,2.761424 2.238576,5 5,5 0.207722,-0.0014 0.415156,-0.0158 0.621094,-0.04296 v 0.03906 h 15.238282 v -0.0078 c 0.04682,0.0046 0.0937,0.0084 0.14062,0.0118 2.761424,0 5,-2.238576 5,-5 0,-2.761424 -2.238576,-5 -5,-5 -0.355004,0.0042 -0.70856,0.046 -1.054688,0.125 C 21.504344,17.624926 18.52775,14.9999 15,15.000008 Z"
     style="opacity:0.2;fill:#000000;stroke-width:2"
     id="path4" />
  <path
     d="M 15,14 C 11.477848,14.0034 8.506698,16.623158 8.0625,20.117188 7.713538,20.040268 7.357336,20.000988 7,20.000008 c -2.761424,0 -5,2.238576 -5,5 0,2.761424 2.238576,5 5,5 0.207722,-0.0014 0.415156,-0.0158 0.621094,-0.04296 v 0.03906 h 15.238282 v -0.0078 c 0.04682,0.0046 0.0937,0.0084 0.14062,0.0118 2.761424,0 5,-2.238576 5,-5 0,-2.761424 -2.238576,-5 -5,-5 -0.355004,0.0042 -0.70856,0.046 -1.054688,0.125 C 21.504344,16.624918 18.52775,13.999892 15,14 Z"
     style="fill:#f2f2f2;stroke-width:2;fill-opacity:1"
     id="path3" />
</svg>
