<?xml version="1.0" encoding="UTF-8" standalone="no"?>
<!-- Created with Inkscape (http://www.inkscape.org/) -->

<svg
   width="32"
   height="32"
   viewBox="0 0 32 32"
   version="1.1"
   id="svg5"
   inkscape:version="1.3 (0e150ed6c4, 2023-07-21)"
   sodipodi:docname="weather-many-clouds.svg"
   xmlns:inkscape="http://www.inkscape.org/namespaces/inkscape"
   xmlns:sodipodi="http://sodipodi.sourceforge.net/DTD/sodipodi-0.dtd"
   xmlns="http://www.w3.org/2000/svg"
   xmlns:svg="http://www.w3.org/2000/svg">
  <sodipodi:namedview
     id="namedview7"
     pagecolor="#ffffff"
     bordercolor="#000000"
     borderopacity="0.25"
     inkscape:showpageshadow="2"
     inkscape:pageopacity="0.0"
     inkscape:pagecheckerboard="0"
     inkscape:deskcolor="#d1d1d1"
     inkscape:document-units="px"
     showgrid="false"
     inkscape:zoom="24.46875"
     inkscape:cx="15.979566"
     inkscape:cy="16"
     inkscape:window-width="1920"
     inkscape:window-height="984"
     inkscape:window-x="0"
     inkscape:window-y="29"
     inkscape:window-maximized="1"
     inkscape:current-layer="svg5"
     showguides="false" />
  <defs
     id="defs2" />
  <path
     id="path1"
     style="opacity:0.2;fill:#000000;fill-opacity:1;stroke-width:1.08333;stroke-linecap:round;stroke-linejoin:round"
     d="M 19.5,5 A 6.5,6.5 0 0 0 13,11.5 6.5,6.5 0 0 0 19.5,18 h 7 A 4.5,4.5 0 0 0 31,13.5 4.5,4.5 0 0 0 26.5,9 4.5,4.5 0 0 0 25.544922,9.1132812 6.5,6.5 0 0 0 19.5,5 Z" />
  <path
     id="path2"
     style="opacity:1;fill:#d0d0d0;fill-opacity:1;stroke-linecap:round;stroke-linejoin:round"
     d="M 19.5,4 A 6.5,6.5 0 0 0 13,10.5 6.5,6.5 0 0 0 19.5,17 h 7 A 4.5,4.5 0 0 0 31,12.5 4.5,4.5 0 0 0 26.5,8 4.5,4.5 0 0 0 25.544922,8.1132812 6.5,6.5 0 0 0 19.5,4 Z" />
  <path
     d="M 16,9 C 12.477848,9.0034 9.506698,11.623158 9.0625,15.117188 8.713538,15.040268 8.357336,15.000988 8,15.000008 c -2.761424,0 -5,2.238576 -5,5 0,2.761424 2.238576,5 5,5 0.207722,-0.0014 0.415156,-0.0158 0.621094,-0.04296 v 0.03906 h 15.238282 v -0.0078 c 0.04682,0.0046 0.0937,0.0084 0.14062,0.0118 2.761424,0 5,-2.238576 5,-5 0,-2.761424 -2.238576,-5 -5,-5 -0.355004,0.0042 -0.70856,0.046 -1.054688,0.125 C 22.504344,11.624926 19.52775,8.9999 16,9.000008 Z"
     style="opacity:0.2;fill:#000000;stroke-width:2"
     id="path4" />
  <path
     d="M 16,8 C 12.477848,8.0034 9.506698,10.623158 9.0625,14.117188 8.713538,14.040268 8.357336,14.000988 8,14.000008 c -2.761424,0 -5,2.238576 -5,5 0,2.761424 2.238576,5 5,5 0.207722,-0.0014 0.415156,-0.0158 0.621094,-0.04296 v 0.03906 h 15.238282 v -0.0078 c 0.04682,0.0046 0.0937,0.0084 0.14062,0.0118 2.761424,0 5,-2.238576 5,-5 0,-2.761424 -2.238576,-5 -5,-5 -0.355004,0.0042 -0.70856,0.046 -1.054688,0.125 C 22.504344,10.624918 19.52775,7.999892 16,8 Z"
     style="fill:#f2f2f2;fill-opacity:1;stroke-width:2"
     id="path3" />
</svg>
