<?xml version="1.0" encoding="UTF-8" standalone="no"?>
<svg
   width="22"
   height="22"
   version="1.1"
   id="svg2"
   sodipodi:docname="arch-lit-symbolic.svg"
   inkscape:version="1.4.3 (0d15f75042, 2025-12-25)"
   xmlns:inkscape="http://www.inkscape.org/namespaces/inkscape"
   xmlns:sodipodi="http://sodipodi.sourceforge.net/DTD/sodipodi-0.dtd"
   xmlns="http://www.w3.org/2000/svg"
   xmlns:svg="http://www.w3.org/2000/svg">
  <defs
     id="defs2">
    <style
       id="current-color-scheme"
       type="text/css">
        .ColorScheme-Text { color:#dfdfdf; } .ColorScheme-Highlight { color:#4285f4; } .ColorScheme-NeutralText { color:#ff9800; } .ColorScheme-PositiveText { color:#4caf50; } .ColorScheme-NegativeText { color:#f44336; }
     </style>
  </defs>
  <sodipodi:namedview
     id="namedview2"
     pagecolor="#ffffff"
     bordercolor="#000000"
     borderopacity="0.25"
     inkscape:showpageshadow="2"
     inkscape:pageopacity="0.0"
     inkscape:pagecheckerboard="0"
     inkscape:deskcolor="#d1d1d1"
     inkscape:zoom="37.772727"
     inkscape:cx="11"
     inkscape:cy="11"
     inkscape:window-width="1920"
     inkscape:window-height="1012"
     inkscape:window-x="0"
     inkscape:window-y="0"
     inkscape:window-maximized="1"
     inkscape:current-layer="svg2" />
  <path
     id="path1"
     style="fill:currentColor"
     class="ColorScheme-Text"
     d="M 11,2.953 10.703125,3.0447969 4,5.1307344 v 7.2695316 c 0,2.477 1.9474781,4.038368 3.3925781,4.980468 1.5153,0.9879 3.2890629,1.566407 3.2890629,1.566407 L 11,19.054563 11.318359,18.947141 c 0,0 1.773763,-0.578587 3.289063,-1.566407 h 0.002 l 0.002,-0.002 C 16.057728,16.425861 18,14.857366 18,12.400266 V 5.1307344 Z m 0,2.09375 5,1.5566406 v 5.7968754 c 0,1.3493 -1.214528,2.465987 -2.486328,3.304687 C 12.444472,16.401973 11.302,16.792066 11,16.900266 10.698,16.792076 9.555528,16.401993 8.4863281,15.704953 7.2113281,14.873723 6,13.787266 6,12.400266 V 6.6033906 Z" />
  <path
     id="path2"
     style="fill:currentColor"
     class="ColorScheme-Text"
     d="m 10,7.999875 v 3 H 8 l 3,4 3,-4 h -2 v -3 z" />
</svg>
