<?xml version="1.0" encoding="UTF-8" standalone="no"?>
<!-- Created with Inkscape (http://www.inkscape.org/) -->

<svg
   width="22"
   height="22"
   viewBox="0 0 22 22"
   version="1.1"
   id="svg5"
   inkscape:version="1.4.3 (0d15f75042, 2025-12-25)"
   sodipodi:docname="arch-error-symbolic.svg"
   xmlns:inkscape="http://www.inkscape.org/namespaces/inkscape"
   xmlns:sodipodi="http://sodipodi.sourceforge.net/DTD/sodipodi-0.dtd"
   xmlns="http://www.w3.org/2000/svg"
   xmlns:svg="http://www.w3.org/2000/svg">
  <sodipodi:namedview
     id="namedview7"
     pagecolor="#ffffff"
     bordercolor="#000000"
     borderopacity="0.25"
     inkscape:showpageshadow="2"
     inkscape:pageopacity="0.0"
     inkscape:pagecheckerboard="0"
     inkscape:deskcolor="#d1d1d1"
     inkscape:document-units="px"
     showgrid="false"
     showguides="true"
     inkscape:zoom="36.681818"
     inkscape:cx="10.986369"
     inkscape:cy="11"
     inkscape:window-width="1920"
     inkscape:window-height="1010"
     inkscape:window-x="0"
     inkscape:window-y="0"
     inkscape:window-maximized="1"
     inkscape:current-layer="svg5" />
  <defs
     id="defs2">
    <style
       id="current-color-scheme"
       type="text/css">
        .ColorScheme-Text { color:#dfdfdf; } .ColorScheme-Highlight { color:#4285f4; } .ColorScheme-NeutralText { color:#ff9800; } .ColorScheme-PositiveText { color:#4caf50; } .ColorScheme-NegativeText { color:#f44336; }
     </style>
  </defs>
  <path
     id="path346"
     style="fill:currentColor;fill-opacity:1"
     class="ColorScheme-Text"
     d="M 11,3 5,5 v 7 c 0,2.069996 1.5794559,3.489455 2.9394531,4.439453 C 9.299451,17.389451 11,18 11,18 11,18 12.700549,17.389451 14.060547,16.439453 15.420545,15.479455 17,14.039996 17,12 V 5 Z m 0,2 4,1.4414062 V 12 c 0,1.005932 -0.90583,1.966078 -2.089844,2.802734 C 12.1361,15.342347 11.491355,15.570234 11,15.773438 10.507644,15.56982 9.860477,15.341821 9.085938,14.800781 7.8968055,13.970138 7,13.052284 7,12 V 6.4414062 Z" />
  <path
     d="m 8.7501,6.51 2.25,2.25 2.25,-2.25 1.24,1.2402 -2.2498,2.25 2.2498,2.25 -1.24,1.240001 -2.25,-2.249801 -2.2499999,2.2498 -1.2402,-1.24 2.2499999,-2.25 -2.2499999,-2.25 z"
     style="fill:currentColor;fill-opacity:1"
     id="path1191"
     class="ColorScheme-NegativeText error" />
</svg>
