<?xml version="1.0" encoding="UTF-8" standalone="no"?>
<!-- Created with Inkscape (http://www.inkscape.org/) -->

<svg
   width="24"
   height="24"
   viewBox="0 0 24 24"
   version="1.1"
   id="svg5"
   inkscape:version="1.2.2 (1:1.2.2+202305151914+b0a8486541)"
   sodipodi:docname="audio-speakers.svg"
   xmlns:inkscape="http://www.inkscape.org/namespaces/inkscape"
   xmlns:sodipodi="http://sodipodi.sourceforge.net/DTD/sodipodi-0.dtd"
   xmlns="http://www.w3.org/2000/svg"
   xmlns:svg="http://www.w3.org/2000/svg">
  <sodipodi:namedview
     id="namedview7"
     pagecolor="#ffffff"
     bordercolor="#000000"
     borderopacity="0.25"
     inkscape:showpageshadow="2"
     inkscape:pageopacity="0.0"
     inkscape:pagecheckerboard="0"
     inkscape:deskcolor="#d1d1d1"
     inkscape:document-units="px"
     showgrid="false"
     inkscape:zoom="33.583333"
     inkscape:cx="11.985112"
     inkscape:cy="12"
     inkscape:window-width="1920"
     inkscape:window-height="1008"
     inkscape:window-x="0"
     inkscape:window-y="0"
     inkscape:window-maximized="1"
     inkscape:current-layer="svg5"
     showguides="true" />
  <defs
     id="defs2" />
  <path
     d="M 12,2.5 C 10.499576,2.50419 9.019327,2.8459656 7.6689455,3.5 H 5 c -1.107999,0 -2,0.8920011 -2,2 V 8.168946 C 2.3459655,9.519327 2.00419,10.999576 2,12.5 c 0.0042,1.500424 0.3459655,2.980674 1,4.331054 V 19.5 c 0,1.107999 0.892001,2 2,2 H 7.6689455 C 9.019327,22.154035 10.499576,22.49581 12,22.5 c 1.500424,-0.0042 2.980674,-0.345965 4.331054,-1 H 19 c 1.107999,0 2,-0.892001 2,-2 V 16.831054 C 21.654035,15.480674 21.99581,14.000424 22,12.5 21.999335,10.991661 21.65747,9.503013 21,8.145508 V 5.5 c 0,-1.1079989 -0.892001,-2 -2,-2 H 16.354492 C 14.996987,2.8425299 13.508339,2.500665 12,2.5 Z"
     style="opacity:0.2;fill:#000000;stroke-width:0.5;stroke-linecap:round;stroke-linejoin:round"
     id="path546" />
  <path
     id="path481"
     style="fill:#4f4f4f;stroke-width:0.5;stroke-linecap:round;stroke-linejoin:round"
     d="M 12,2 C 10.499576,2.00419 9.019327,2.3459656 7.6689455,3 H 5 C 3.8920011,3 3,3.8920011 3,5 V 7.6689455 C 2.3459656,9.019327 2.00419,10.499576 2,12 c 0.00419,1.500424 0.3459656,2.980674 1,4.331054 V 19 c 0,1.107999 0.8920011,2 2,2 H 7.6689455 C 9.019327,21.654035 10.499576,21.99581 12,22 c 1.500424,-0.0042 2.980674,-0.345965 4.331054,-1 H 19 c 1.107999,0 2,-0.892001 2,-2 V 16.331054 C 21.654035,14.980674 21.99581,13.500424 22,12 21.999335,10.491661 21.65747,9.003013 21,7.645508 V 5 C 21,3.8920011 20.107999,3 19,3 H 16.354492 C 14.996987,2.3425299 13.508339,2.000665 12,2 Z" />
  <circle
     style="fill:#333333;fill-opacity:1;stroke-width:0.5"
     id="path1406"
     cx="12"
     cy="12"
     r="8" />
  <circle
     style="fill:#fec006;fill-opacity:1;stroke-width:4.72232;stroke-linecap:round;stroke-linejoin:round"
     id="path2453"
     cx="12"
     cy="12"
     r="7" />
  <circle
     style="opacity:0.2;fill:#000000;fill-opacity:1;stroke-width:6.75;stroke-linecap:round;stroke-linejoin:round"
     id="path3067"
     cx="12"
     cy="12.5"
     r="3" />
  <circle
     style="fill:#3f3f3f;fill-opacity:1;stroke-width:12.9239;stroke-linecap:round;stroke-linejoin:round"
     id="path3261"
     cx="12"
     cy="12"
     r="3" />
  <path
     id="path1718"
     style="opacity:1;fill:#868686;fill-opacity:1;stroke-width:0.25;stroke-linecap:round;stroke-linejoin:round;paint-order:stroke fill markers"
     d="M 4.5,4 C 4.2238576,4 4,4.2238576 4,4.5 4,4.7761423 4.2238576,5 4.5,5 4.7761423,5 5,4.7761423 5,4.5 5,4.2238576 4.7761423,4 4.5,4 Z m 15,0 C 19.223858,4 19,4.223858 19,4.5 19,4.776142 19.223858,5 19.5,5 19.776142,5 20,4.776142 20,4.5 20,4.223858 19.776142,4 19.5,4 Z M 4.5,19 C 4.2238576,19 4,19.223857 4,19.5 4,19.776142 4.2238576,20 4.5,20 4.7761423,20 5,19.776142 5,19.5 5,19.223857 4.7761423,19 4.5,19 Z m 15,0 C 19.223858,19 19,19.223858 19,19.5 19,19.776142 19.223858,20 19.5,20 19.776142,20 20,19.776142 20,19.5 20,19.223858 19.776142,19 19.5,19 Z" />
  <path
     id="path574"
     style="opacity:0.1;fill:#ffffff;stroke-width:0.5;stroke-linecap:round;stroke-linejoin:round"
     d="M 12,2 C 10.499577,2.00419 9.019325,2.3459662 7.6689455,3 H 5 C 3.8920021,3 3,3.8920023 3,5 v 0.5 c 0,-1.1079979 0.8920021,-2 2,-2 H 7.6689455 C 9.019325,2.8459662 10.499577,2.50419 12,2.5 c 1.508338,6.65e-4 2.996988,0.3425306 4.354492,1 H 19 c 1.107998,0 2,0.8920021 2,2 V 5 C 21,3.8920023 20.107998,3 19,3 H 16.354492 C 14.996988,2.3425306 13.508338,2.000665 12,2 Z m 9,5.645508 v 0.5 c 0.619931,1.279997 0.954913,2.676923 0.992187,4.09668 C 21.994372,12.161427 21.999774,12.080895 22,12 21.999335,10.491663 21.657469,9.003012 21,7.645508 Z M 3,7.6689455 C 2.3459662,9.019325 2.00419,10.499577 2,12 2.0002337,12.0835 2.00549,12.166642 2.00781,12.25 2.0471788,10.83552 2.3823645,9.444174 3,8.168946 Z" />
</svg>
