<?xml version="1.0" encoding="UTF-8" standalone="no"?>
<!-- Created with Inkscape (http://www.inkscape.org/) -->

<svg
   width="24"
   height="24"
   viewBox="0 0 24 24"
   version="1.1"
   id="svg457"
   inkscape:version="1.2.2 (1:1.2.2+202305151914+b0a8486541)"
   sodipodi:docname="input-keyboard.svg"
   xmlns:inkscape="http://www.inkscape.org/namespaces/inkscape"
   xmlns:sodipodi="http://sodipodi.sourceforge.net/DTD/sodipodi-0.dtd"
   xmlns="http://www.w3.org/2000/svg"
   xmlns:svg="http://www.w3.org/2000/svg">
  <sodipodi:namedview
     id="namedview459"
     pagecolor="#ffffff"
     bordercolor="#000000"
     borderopacity="0.25"
     inkscape:showpageshadow="2"
     inkscape:pageopacity="0.0"
     inkscape:pagecheckerboard="0"
     inkscape:deskcolor="#d1d1d1"
     inkscape:document-units="px"
     showgrid="false"
     inkscape:zoom="33.583333"
     inkscape:cx="11.985112"
     inkscape:cy="12"
     inkscape:window-width="1920"
     inkscape:window-height="1008"
     inkscape:window-x="0"
     inkscape:window-y="0"
     inkscape:window-maximized="1"
     inkscape:current-layer="svg457" />
  <defs
     id="defs454" />
  <rect
     style="opacity:0.2;fill:#000000;fill-opacity:1;stroke-width:2;stroke-linecap:square"
     id="rect1276"
     width="20"
     height="14"
     x="2"
     y="6.5"
     ry="1" />
  <rect
     style="fill:#adadad;fill-opacity:1;stroke-width:2;stroke-linecap:square"
     id="rect1274"
     width="20"
     height="14"
     x="2"
     y="6"
     ry="1" />
  <path
     d="m 6.0000003,8.5 c -0.5522847,0 -1,0.4477153 -1,1 0,0.552284 0.4477153,1 1,1 0.5522847,0 1,-0.447716 1,-1 0,-0.5522847 -0.4477153,-1 -1,-1 z M 9,8.5 c -0.552284,0 -0.9999997,0.4477153 -0.9999997,1 0,0.552284 0.4477157,1 0.9999997,1 0.552285,0 1,-0.447716 1,-1 0,-0.5522847 -0.447715,-1 -1,-1 z m 3,0 c -0.552285,0 -1,0.4477153 -1,1 0,0.552284 0.447715,1 1,1 0.552285,0 1,-0.447716 1,-1 0,-0.5522847 -0.447715,-1 -1,-1 z m 3,0 c -0.552285,0 -1,0.4477153 -1,1 0,0.552284 0.447715,1 1,1 0.552285,0 1,-0.447716 1,-1 0,-0.5522847 -0.447715,-1 -1,-1 z m 3,0 c -0.552285,0 -1,0.4477153 -1,1 0,0.552284 0.447715,1 1,1 0.552285,0 1,-0.447716 1,-1 0,-0.5522847 -0.447715,-1 -1,-1 z m -9.9999997,4 c -0.5522847,0 -1,0.447715 -1,1 0,0.552285 0.4477153,1 1,1 C 8.552285,14.5 9,14.052285 9,13.5 9,12.947715 8.552285,12.5 8.0000003,12.5 Z M 11,12.5 c -0.552285,0 -1,0.447715 -1,1 0,0.552285 0.447715,1 1,1 0.552285,0 1,-0.447715 1,-1 0,-0.552285 -0.447715,-1 -1,-1 z m 3,0 c -0.552285,0 -1,0.447715 -1,1 0,0.552285 0.447715,1 1,1 0.552285,0 1,-0.447715 1,-1 0,-0.552285 -0.447715,-1 -1,-1 z m 3,0 c -0.552285,0 -1,0.447715 -1,1 0,0.552285 0.447715,1 1,1 0.552285,0 1,-0.447715 1,-1 0,-0.552285 -0.447715,-1 -1,-1 z m -11.4999997,4 c -0.2769997,0 -0.5,0.223 -0.5,0.5 v 1 c 0,0.277 0.2230003,0.5 0.5,0.5 H 18.5 c 0.277,0 0.5,-0.223 0.5,-0.5 v -1 c 0,-0.277 -0.223,-0.5 -0.5,-0.5 z"
     id="path1153"
     style="opacity:0.2;fill:#000000" />
  <path
     d="M 6,8 C 5.4477153,8 5,8.4477153 5,9 5,9.5522847 5.4477153,10 6,10 6.5522847,10 7,9.5522847 7,9 7,8.4477153 6.5522847,8 6,8 Z M 9,8 C 8.4477153,8 8,8.4477153 8,9 8,9.5522847 8.4477153,10 9,10 9.5522847,10 10,9.5522847 10,9 10,8.4477153 9.5522847,8 9,8 Z m 3,0 c -0.552285,0 -1,0.4477153 -1,1 0,0.5522847 0.447715,1 1,1 0.552285,0 1,-0.4477153 1,-1 0,-0.5522847 -0.447715,-1 -1,-1 z m 3,0 c -0.552285,0 -1,0.4477153 -1,1 0,0.5522847 0.447715,1 1,1 0.552285,0 1,-0.4477153 1,-1 0,-0.5522847 -0.447715,-1 -1,-1 z m 3,0 c -0.552285,0 -1,0.4477153 -1,1 0,0.5522847 0.447715,1 1,1 0.552285,0 1,-0.4477153 1,-1 C 19,8.4477153 18.552285,8 18,8 Z M 8,12 c -0.5522847,0 -1,0.447715 -1,1 0,0.552285 0.4477153,1 1,1 0.5522847,0 1,-0.447715 1,-1 0,-0.552285 -0.4477153,-1 -1,-1 z m 3,0 c -0.552285,0 -1,0.447715 -1,1 0,0.552285 0.447715,1 1,1 0.552285,0 1,-0.447715 1,-1 0,-0.552285 -0.447715,-1 -1,-1 z m 3,0 c -0.552285,0 -1,0.447715 -1,1 0,0.552285 0.447715,1 1,1 0.552285,0 1,-0.447715 1,-1 0,-0.552285 -0.447715,-1 -1,-1 z m 3,0 c -0.552285,0 -1,0.447715 -1,1 0,0.552285 0.447715,1 1,1 0.552285,0 1,-0.447715 1,-1 0,-0.552285 -0.447715,-1 -1,-1 z M 5.5,16 C 5.2230003,16 5,16.223 5,16.5 v 1 C 5,17.777 5.2230003,18 5.5,18 h 13 c 0.277,0 0.5,-0.223 0.5,-0.5 v -1 C 19,16.223 18.777,16 18.5,16 Z"
     id="path397"
     style="fill:#e8e8e8;fill-opacity:1" />
  <path
     id="rect1278"
     style="opacity:0.2;fill:#ffffff;fill-opacity:1;stroke-width:2;stroke-linecap:square"
     d="M 3,6 C 2.4460006,6 2,6.4460006 2,7 v 0.5 c 0,-0.5539994 0.4460006,-1 1,-1 h 18 c 0.553999,0 1,0.4460006 1,1 V 7 C 22,6.4460006 21.553999,6 21,6 Z" />
</svg>
