<?xml version="1.0" encoding="UTF-8" standalone="no"?>
<svg
   width="24"
   height="24"
   version="1"
   id="svg8"
   sodipodi:docname="input-touchpad.svg"
   inkscape:version="1.3.2 (091e20ef0f, 2023-11-25, custom)"
   xmlns:inkscape="http://www.inkscape.org/namespaces/inkscape"
   xmlns:sodipodi="http://sodipodi.sourceforge.net/DTD/sodipodi-0.dtd"
   xmlns="http://www.w3.org/2000/svg"
   xmlns:svg="http://www.w3.org/2000/svg">
  <defs
     id="defs8" />
  <sodipodi:namedview
     id="namedview8"
     pagecolor="#ffffff"
     bordercolor="#000000"
     borderopacity="0.25"
     inkscape:showpageshadow="2"
     inkscape:pageopacity="0.0"
     inkscape:pagecheckerboard="0"
     inkscape:deskcolor="#d1d1d1"
     inkscape:zoom="30.375"
     inkscape:cx="12"
     inkscape:cy="12"
     inkscape:window-width="1920"
     inkscape:window-height="942"
     inkscape:window-x="0"
     inkscape:window-y="32"
     inkscape:window-maximized="1"
     inkscape:current-layer="svg8" />
  <rect
     style="opacity:0.2;fill:#000000"
     width="20"
     height="20"
     x="-22.5"
     y="-22"
     ry="1"
     transform="matrix(0,-1,-1,0,0,0)"
     id="rect1" />
  <rect
     style="fill:#4f4f4f"
     width="20"
     height="20"
     x="-22"
     y="-22"
     ry="1"
     transform="matrix(0,-1,-1,0,0,0)"
     id="rect2" />
  <path
     id="rect3"
     style="opacity:0.4;fill:#000000"
     d="m 18,7 v 1 h 3 V 7 Z m 0,2 v 1 h 3 V 9 Z m 0,2 v 1 h 3 v -1 z m 0,2 v 1 h 3 V 13 Z M 4,16 c -0.5539994,0 -1,0.446001 -1,1 v 3 c 0,0.553999 0.4460006,1 1,1 h 6 c 0.553999,0 1,-0.446001 1,-1 v -3 c 0,-0.553999 -0.446001,-1 -1,-1 z m 10,0 c -0.553999,0 -1,0.446001 -1,1 v 3 c 0,0.553999 0.446001,1 1,1 h 6 c 0.553999,0 1,-0.446001 1,-1 v -3 c 0,-0.553999 -0.446001,-1 -1,-1 z" />
  <path
     style="opacity:0.1;fill:#ffffff"
     d="M 3,2 C 2.446,2 2,2.446 2,3 v 0.5 c 0,-0.554 0.446,-1 1,-1 h 18 c 0.554,0 1,0.446 1,1 V 3 C 22,2.446 21.554,2 21,2 Z"
     id="path8" />
</svg>
