<?xml version="1.0" encoding="UTF-8" standalone="no"?>
<svg
   width="24"
   height="24"
   version="1"
   id="svg7"
   sodipodi:docname="network-wireless.svg"
   inkscape:version="1.3 (1:1.3+202307231459+0e150ed6c4)"
   xmlns:inkscape="http://www.inkscape.org/namespaces/inkscape"
   xmlns:sodipodi="http://sodipodi.sourceforge.net/DTD/sodipodi-0.dtd"
   xmlns="http://www.w3.org/2000/svg"
   xmlns:svg="http://www.w3.org/2000/svg">
  <defs
     id="defs7" />
  <sodipodi:namedview
     id="namedview7"
     pagecolor="#ffffff"
     bordercolor="#000000"
     borderopacity="0.25"
     inkscape:showpageshadow="2"
     inkscape:pageopacity="0.0"
     inkscape:pagecheckerboard="0"
     inkscape:deskcolor="#d1d1d1"
     inkscape:zoom="29.916667"
     inkscape:cx="12"
     inkscape:cy="11.983287"
     inkscape:window-width="1920"
     inkscape:window-height="1008"
     inkscape:window-x="0"
     inkscape:window-y="0"
     inkscape:window-maximized="1"
     inkscape:current-layer="svg7" />
  <path
     fill="#4f4f4f"
     d="M 12.041,4 C 8.0843,4 4.5225,5.40585 1.5685,7.5859 L 12.041,18.9959 22.4315,7.5454 C 19.489,5.3894 15.967,4.0001 12.041,4.0001 Z"
     id="path1"
     style="stroke-width:0.5" />
  <path
     fill="#797979"
     d="m 12,6.9959 c -3.15185,0 -6.077,1.0337 -8.4265,2.77945 l 8.4705,9.2205 8.3825,-9.221 C 18.077,8.02935 15.152,6.99585 12,6.99585 Z"
     id="path2"
     style="stroke-width:0.5" />
  <path
     fill="#e4e4e4"
     d="m 12,9.9959 c -2.3639,0 -4.5578,0.77525 -6.32,2.0846 l 6.353,6.9155 6.287,-6.9155 C 16.558,10.771 14.364,9.996 12,9.996 Z"
     id="path3"
     style="stroke-width:0.5" />
  <path
     fill="#ffffff"
     opacity="0.1"
     d="M 12.041,4 C 8.0843,4 4.5225,5.4059 1.5685,7.58595 l 0.28125,0.30664 c 2.8988,-2.0655 6.357,-3.3926 10.1915,-3.3926 3.80455,0 7.2245,1.3112 10.1105,3.3535 l 0.28,-0.3085 c -2.9435,-2.1555 -6.465,-3.5448 -10.3915,-3.5448 z"
     id="path4"
     style="stroke-width:0.5" />
  <path
     fill="#ffffff"
     opacity="0.1"
     d="m 12.0005,6.9954 c -3.15185,0 -6.0775,1.0345 -8.427,2.7803 l 0.282225,0.30664 c 2.30055,-1.62415 5.1155,-2.5869 8.1445,-2.5869 3.03025,0 5.8445,0.96375 8.1455,2.58885 l 0.2805,-0.309 c -2.349,-1.746 -5.2735,-2.7805 -8.4255,-2.7805 z"
     id="path5"
     style="stroke-width:0.5" />
  <path
     fill="#ffffff"
     opacity="0.1"
     d="m 12.0005,9.9954 c -2.3639,0 -4.5583,0.77565 -6.3205,2.08495 l 0.282225,0.30664 c 1.71245,-1.1883 3.79675,-1.8916 6.038,-1.8916 2.2423,0 4.3262,0.7043 6.039,1.89355 l 0.2805,-0.3085 c -1.7615,-1.3095 -3.955,-2.085 -6.319,-2.085 z"
     id="path6"
     style="stroke-width:0.5" />
  <path
     opacity="0.2"
     d="M 22.1535,7.8574 12.041,19.0009 1.8485,7.8964 C 1.75635,7.9619 1.6595,8.0214 1.56835,8.0889 l 10.4725,11.41 10.3905,-11.451 C 22.34065,7.98145 22.244825,7.922445 22.15303,7.85747 Z"
     id="path7"
     style="fill:#000000;stroke-width:0.5" />
</svg>
