<?xml version="1.0" encoding="UTF-8" standalone="no"?>
<svg
   width="24"
   height="24"
   version="1"
   id="svg7"
   sodipodi:docname="scanner.svg"
   inkscape:version="1.3.2 (091e20ef0f, 2023-11-25, custom)"
   xmlns:inkscape="http://www.inkscape.org/namespaces/inkscape"
   xmlns:sodipodi="http://sodipodi.sourceforge.net/DTD/sodipodi-0.dtd"
   xmlns="http://www.w3.org/2000/svg"
   xmlns:svg="http://www.w3.org/2000/svg">
  <defs
     id="defs7" />
  <sodipodi:namedview
     id="namedview7"
     pagecolor="#ffffff"
     bordercolor="#000000"
     borderopacity="0.25"
     inkscape:showpageshadow="2"
     inkscape:pageopacity="0.0"
     inkscape:pagecheckerboard="0"
     inkscape:deskcolor="#d1d1d1"
     inkscape:zoom="30.375"
     inkscape:cx="12"
     inkscape:cy="12"
     inkscape:window-width="1920"
     inkscape:window-height="942"
     inkscape:window-x="0"
     inkscape:window-y="32"
     inkscape:window-maximized="1"
     inkscape:current-layer="svg7" />
  <rect
     style="opacity:0.2;fill:#000000"
     width="20"
     height="16"
     x="-22.5"
     y="-20"
     ry="1"
     transform="matrix(0,-1,-1,0,0,0)"
     id="rect1" />
  <rect
     style="fill:#4f4f4f"
     width="20"
     height="16"
     x="-22"
     y="-20"
     ry="1"
     transform="matrix(0,-1,-1,0,0,0)"
     id="rect2" />
  <rect
     style="fill:#e4e4e4"
     width="16"
     height="12"
     x="-20"
     y="-18"
     rx="0"
     ry="0"
     transform="matrix(0,-1,-1,0,0,0)"
     id="rect3" />
  <path
     style="opacity:0.1;fill:#ffffff"
     d="M 5,2 C 4.446,2 4,2.446 4,3 v 0.5 c 0,-0.554 0.446,-1 1,-1 h 14 c 0.554,0 1,0.446 1,1 V 3 C 20,2.446 19.554,2 19,2 Z"
     id="path3" />
  <rect
     style="opacity:0.2;fill:#000000"
     width="20"
     height="2"
     x="2"
     y="8.5"
     ry="0.5"
     id="rect4" />
  <rect
     style="fill:#f34235"
     width="20"
     height="2"
     x="2"
     y="8"
     ry="0.5"
     id="rect5" />
  <rect
     style="opacity:0.2;fill:#000000"
     width="0.5"
     height="12"
     x="-20.5"
     y="-18"
     rx="0"
     ry="0"
     transform="matrix(0,-1,-1,0,0,0)"
     id="rect6" />
  <rect
     style="opacity:0.2;fill:#ffffff"
     width="0.5"
     height="12"
     x="-4.5"
     y="-18"
     rx="0"
     ry="0"
     transform="matrix(0,-1,-1,0,0,0)"
     id="rect7" />
</svg>
