<?xml version="1.0" encoding="UTF-8" standalone="no"?>
<svg
   width="16"
   height="16"
   version="1.1"
   id="svg757"
   sodipodi:docname="action-unavailable-symbolic.svg"
   inkscape:version="1.2.2 (1:1.2.2+202305151914+b0a8486541)"
   xmlns:inkscape="http://www.inkscape.org/namespaces/inkscape"
   xmlns:sodipodi="http://sodipodi.sourceforge.net/DTD/sodipodi-0.dtd"
   xmlns="http://www.w3.org/2000/svg"
   xmlns:svg="http://www.w3.org/2000/svg">
  <defs
     id="defs761" />
  <sodipodi:namedview
     id="namedview759"
     pagecolor="#ffffff"
     bordercolor="#000000"
     borderopacity="0.25"
     inkscape:showpageshadow="2"
     inkscape:pageopacity="0.0"
     inkscape:pagecheckerboard="0"
     inkscape:deskcolor="#d1d1d1"
     showgrid="false"
     inkscape:zoom="53.875"
     inkscape:cx="8"
     inkscape:cy="8"
     inkscape:window-width="1920"
     inkscape:window-height="1008"
     inkscape:window-x="0"
     inkscape:window-y="0"
     inkscape:window-maximized="1"
     inkscape:current-layer="svg757" />
  <path
     style="fill:#4d4d4d;fill-opacity:1"
     d="M 8,1 C 4.14,1 1,4.137 1,8 1,11.863 4.14,15 8,15 11.86,15 15,11.863 15,8 15,4.137 11.86,1 8,1 Z M 8,3 C 9.02,3 9.96,3.287 10.75,3.812 L 3.81,10.75 C 3.29,9.959 3,9.019 3,8 3,5.24 5.24,3 8,3 Z M 12.19,5.25 C 12.71,6.041 13,6.98 13,8 13,10.759 10.76,13 8,13 6.98,13 6.04,12.712 5.25,12.187 Z"
     id="path755" />
</svg>
