<?xml version="1.0" encoding="UTF-8" standalone="no"?>
<!-- Created with Inkscape (http://www.inkscape.org/) -->

<svg
   width="16"
   height="16"
   viewBox="0 0 16 16"
   version="1.1"
   id="svg5"
   inkscape:version="1.2.2 (1:1.2.2+202305151914+b0a8486541)"
   sodipodi:docname="cigarette-none-symbolic.svg"
   xmlns:inkscape="http://www.inkscape.org/namespaces/inkscape"
   xmlns:sodipodi="http://sodipodi.sourceforge.net/DTD/sodipodi-0.dtd"
   xmlns="http://www.w3.org/2000/svg"
   xmlns:svg="http://www.w3.org/2000/svg">
  <sodipodi:namedview
     id="namedview7"
     pagecolor="#ffffff"
     bordercolor="#000000"
     borderopacity="0.25"
     inkscape:showpageshadow="2"
     inkscape:pageopacity="0.0"
     inkscape:pagecheckerboard="0"
     inkscape:deskcolor="#d1d1d1"
     inkscape:document-units="px"
     showgrid="false"
     inkscape:zoom="51.875"
     inkscape:cx="8"
     inkscape:cy="8"
     inkscape:window-width="1920"
     inkscape:window-height="1008"
     inkscape:window-x="0"
     inkscape:window-y="0"
     inkscape:window-maximized="1"
     inkscape:current-layer="svg5" />
  <defs
     id="defs2" />
  <path
     id="path10051"
     style="fill:#4d4d4d;fill-opacity:1"
     d="M 3.4140625 0 L 8.4140625 5 L 11 5 C 11.552279 5 12 5.4477206 12 6 L 12 7 L 15 7 L 15 6 C 15 3.7909022 13.209098 2 11 2 L 8 2 C 6.8954011 2 6 1.1045689 6 0 L 3.4140625 0 z M 12 8 L 12 8.5859375 L 14.880859 11.466797 C 14.954695 11.327185 15 11.16952 15 11 L 15 9 C 15 8.4460009 14.553999 8 14 8 L 12 8 z M 0 8.0117188 L 0 12.011719 L 11 12.011719 L 11 10.414062 L 8.5976562 8.0117188 L 0 8.0117188 z M 12 11.414062 L 12 12 L 12.585938 12 L 12 11.414062 z " />
  <path
     id="rect10575"
     style="opacity:1;fill:#4d4d4d;stroke-linecap:square"
     transform="rotate(-45)"
     d="m -1,1 h 2 l 3e-7,19.213506 -2.00000003,0 z"
     sodipodi:nodetypes="ccccc" />
</svg>
