<?xml version="1.0" encoding="UTF-8" standalone="no"?>
<!-- Created with Inkscape (http://www.inkscape.org/) -->

<svg
   width="16"
   height="16"
   viewBox="0 0 16 16"
   version="1.1"
   id="svg5"
   inkscape:version="1.2.2 (1:1.2.2+202305151914+b0a8486541)"
   sodipodi:docname="document-new-symbolic.svg"
   xmlns:inkscape="http://www.inkscape.org/namespaces/inkscape"
   xmlns:sodipodi="http://sodipodi.sourceforge.net/DTD/sodipodi-0.dtd"
   xmlns="http://www.w3.org/2000/svg"
   xmlns:svg="http://www.w3.org/2000/svg">
  <sodipodi:namedview
     id="namedview7"
     pagecolor="#ffffff"
     bordercolor="#000000"
     borderopacity="0.25"
     inkscape:showpageshadow="2"
     inkscape:pageopacity="0.0"
     inkscape:pagecheckerboard="0"
     inkscape:deskcolor="#d1d1d1"
     inkscape:document-units="px"
     showgrid="false"
     inkscape:zoom="51.875"
     inkscape:cx="8"
     inkscape:cy="8"
     inkscape:window-width="1920"
     inkscape:window-height="1008"
     inkscape:window-x="0"
     inkscape:window-y="0"
     inkscape:window-maximized="1"
     inkscape:current-layer="svg5" />
  <defs
     id="defs2" />
  <path
     d="M 3,1 C 2.44774,1.0000552 2.00006,1.44774 2,2.0000001 V 14 c 5.52e-5,0.55226 0.44774,0.99994 1,1 h 10.00005 c 0.55226,-5.5e-5 0.99994,-0.44774 1,-1 V 5.0000001 c -5.1e-5,-0.2652 -0.10543,-0.51952 -0.29297,-0.70703 l -3,-3.0000001 C 10.51957,1.10543 10.26525,1.00005 10.00005,1 Z m 1,2.0000001 h 5.58595 l 2.4141,2.4141 V 13 H 4 Z m 3,2 h 2 v 2 h 2 v 2 H 9 V 11 H 7 V 9.0000001 H 5 v -2 h 2 z"
     style="opacity:1;fill:#4d4d4d;fill-opacity:1"
     id="path1941" />
</svg>
