<?xml version="1.0" encoding="UTF-8" standalone="no"?>
<!-- Created with Inkscape (http://www.inkscape.org/) -->

<svg
   width="16"
   height="16"
   viewBox="0 0 16 16"
   version="1.1"
   id="svg5"
   inkscape:version="1.2.2 (1:1.2.2+202305151914+b0a8486541)"
   sodipodi:docname="edit-clear-symbolic-rtl.svg"
   xmlns:inkscape="http://www.inkscape.org/namespaces/inkscape"
   xmlns:sodipodi="http://sodipodi.sourceforge.net/DTD/sodipodi-0.dtd"
   xmlns="http://www.w3.org/2000/svg"
   xmlns:svg="http://www.w3.org/2000/svg">
  <sodipodi:namedview
     id="namedview7"
     pagecolor="#ffffff"
     bordercolor="#000000"
     borderopacity="0.25"
     inkscape:showpageshadow="2"
     inkscape:pageopacity="0.0"
     inkscape:pagecheckerboard="0"
     inkscape:deskcolor="#d1d1d1"
     inkscape:document-units="px"
     showgrid="false"
     inkscape:zoom="51.875"
     inkscape:cx="8"
     inkscape:cy="8"
     inkscape:window-width="1920"
     inkscape:window-height="1008"
     inkscape:window-x="0"
     inkscape:window-y="0"
     inkscape:window-maximized="1"
     inkscape:current-layer="svg5" />
  <defs
     id="defs2" />
  <path
     d="M 9,5 H 8 C 7.72,5 7.47,5.11 7.29,5.29 L 6,6.59 4.71,5.29 C 4.53,5.11 4.28,5 4,5 H 3 V 6 C 3,6.28 3.11,6.53 3.29,6.71 L 4.59,8 3.29,9.29 C 3.11,9.47 3,9.7200001 3,10 v 1 h 1 c 0.28,0 0.53,-0.11 0.71,-0.289999 L 6,9.41 7.29,10.710001 c 0.18,0.18 0.43,0.29 0.71,0.29 h 1 v -1 C 9,9.7200001 8.89,9.47 8.71,9.29 L 7.41,8 8.71,6.71 C 8.89,6.53 9,6.28 9,6 Z m 2,-3 5,6 -5,6 H 0 V 2 Z M 10.0625,4 H 2 v 8.000001 h 8.0625 L 13.3965,8 Z"
     style="opacity:1;fill:#4d4d4d;fill-opacity:1"
     id="path347" />
</svg>
