<?xml version="1.0" encoding="UTF-8" standalone="no"?>
<!-- Created with Inkscape (http://www.inkscape.org/) -->

<svg
   width="16"
   height="16"
   viewBox="0 0 16 16"
   version="1.1"
   id="svg5"
   inkscape:version="1.2.2 (1:1.2.2+202305151914+b0a8486541)"
   sodipodi:docname="funnel-symbolic.svg"
   xmlns:inkscape="http://www.inkscape.org/namespaces/inkscape"
   xmlns:sodipodi="http://sodipodi.sourceforge.net/DTD/sodipodi-0.dtd"
   xmlns="http://www.w3.org/2000/svg"
   xmlns:svg="http://www.w3.org/2000/svg">
  <sodipodi:namedview
     id="namedview7"
     pagecolor="#ffffff"
     bordercolor="#000000"
     borderopacity="0.25"
     inkscape:showpageshadow="2"
     inkscape:pageopacity="0.0"
     inkscape:pagecheckerboard="0"
     inkscape:deskcolor="#d1d1d1"
     inkscape:document-units="px"
     showgrid="false"
     inkscape:zoom="51.875"
     inkscape:cx="8"
     inkscape:cy="8"
     inkscape:window-width="1920"
     inkscape:window-height="1008"
     inkscape:window-x="0"
     inkscape:window-y="0"
     inkscape:window-maximized="1"
     inkscape:current-layer="svg5" />
  <defs
     id="defs2" />
  <path
     d="m 2.0003977,1.0000001 c -0.838869,-3.4994e-4 -1.3054069,0.970049 -0.78125,1.625 l 3.7812,4.7266 V 15 c -2.31e-4,0.823934 0.9401066,1.294679 1.5996,0.80078 l 4.0000003,-3 C 10.852108,12.611832 11.000476,12.315097 11.000338,12 V 7.3516001 l 3.7812,-4.7266 c 0.524157,-0.654951 0.05762,-1.62534994 -0.78125,-1.625 z m 2.082,2 h 7.8359003 l -2.6992,3.375 c -0.141772,0.1774494 -0.21892,0.3978711 -0.21875,0.625 V 11.5 L 7.0003477,13 V 7.0000001 c 1.695e-4,-0.2271289 -0.076978,-0.4475506 -0.21875,-0.625 z"
     style="color:#000000;fill:#4d4d4d;stroke-linecap:round;stroke-linejoin:round;-inkscape-stroke:none;fill-opacity:1"
     id="path1361" />
</svg>
