<?xml version="1.0" encoding="UTF-8" standalone="no"?>
<!-- Created with Inkscape (http://www.inkscape.org/) -->

<svg
   width="16"
   height="16"
   viewBox="0 0 16 16"
   version="1.1"
   id="svg5"
   inkscape:version="1.2.2 (1:1.2.2+202305151914+b0a8486541)"
   sodipodi:docname="screenshooter-symbolic.svg"
   xmlns:inkscape="http://www.inkscape.org/namespaces/inkscape"
   xmlns:sodipodi="http://sodipodi.sourceforge.net/DTD/sodipodi-0.dtd"
   xmlns="http://www.w3.org/2000/svg"
   xmlns:svg="http://www.w3.org/2000/svg">
  <sodipodi:namedview
     id="namedview7"
     pagecolor="#ffffff"
     bordercolor="#000000"
     borderopacity="0.25"
     inkscape:showpageshadow="2"
     inkscape:pageopacity="0.0"
     inkscape:pagecheckerboard="0"
     inkscape:deskcolor="#d1d1d1"
     inkscape:document-units="px"
     showgrid="false"
     showguides="true"
     inkscape:zoom="51.875"
     inkscape:cx="8"
     inkscape:cy="8"
     inkscape:window-width="1920"
     inkscape:window-height="1008"
     inkscape:window-x="0"
     inkscape:window-y="0"
     inkscape:window-maximized="1"
     inkscape:current-layer="svg5" />
  <defs
     id="defs2" />
  <path
     d="M 10.043,7 C 9.4765901,7 9.0235001,7.42578 9.0039001,7.96484 h -0.99219 c -1.1133,0 -2.0117,0.89844 -2.0117,2.0117 v 4.0117 c 0,1.1133 0.89844,2.0117 2.0117,2.0117 H 13.98831 c 1.1133,0 2.0117,-0.89844 2.0117,-2.0117 v -4.0117 c 0,-1.1133 -0.89844,-2.0117 -2.0117,-2.0117 H 13.00003 C 12.9805,7.42578 12.52347,7 11.95703,7 Z m 0.95703,3 c 1.1055,0 2,0.89453 2,2 0,1.10547 -0.89453,2 -2,2 -1.1054697,0 -1.9999999,-0.89453 -1.9999999,-2 0,-1.10547 0.8945302,-2 1.9999999,-2 z M 4,1 C 2.3380001,1 1,2.338 1,4 V 5 H 3.0000001 V 4 c 0,-0.554 0.446,-1 0.9999999,-1 H 5 V 1 Z m 7,0 v 2 h 1 c 0.554,0 1,0.446 1,1 v 1 h 2 V 4 C 15,2.338 13.662,1 12,1 Z M 1,11 v 1 c 0,1.662 1.3380001,3 3,3 H 5 V 13 H 4 C 3.4460001,13 3.0000001,12.554 3.0000001,12 v -1 z"
     style="fill:#4d4d4d;fill-opacity:1"
     id="path7258" />
</svg>
