<?xml version="1.0" encoding="UTF-8" standalone="no"?>
<!-- Created with Inkscape (http://www.inkscape.org/) -->

<svg
   width="16"
   height="16"
   viewBox="0 0 16 16"
   version="1.1"
   id="svg5"
   inkscape:version="1.2.2 (1:1.2.2+202305151914+b0a8486541)"
   sodipodi:docname="system-shutdown-symbolic.svg"
   xmlns:inkscape="http://www.inkscape.org/namespaces/inkscape"
   xmlns:sodipodi="http://sodipodi.sourceforge.net/DTD/sodipodi-0.dtd"
   xmlns="http://www.w3.org/2000/svg"
   xmlns:svg="http://www.w3.org/2000/svg">
  <sodipodi:namedview
     id="namedview7"
     pagecolor="#ffffff"
     bordercolor="#000000"
     borderopacity="0.25"
     inkscape:showpageshadow="2"
     inkscape:pageopacity="0.0"
     inkscape:pagecheckerboard="0"
     inkscape:deskcolor="#d1d1d1"
     inkscape:document-units="px"
     showgrid="false"
     inkscape:zoom="51.875"
     inkscape:cx="8"
     inkscape:cy="8"
     inkscape:window-width="1920"
     inkscape:window-height="1008"
     inkscape:window-x="0"
     inkscape:window-y="0"
     inkscape:window-maximized="1"
     inkscape:current-layer="svg5" />
  <defs
     id="defs2" />
  <path
     d="m 7.0000019,1 v 6 h 2 V 1 Z M 12.24219,2.34375 10.828127,3.7578125 11.535158,4.4648438 C 12.473157,5.4026428 12.999802,6.6736013 13.000002,8 c 0,2.773297 -2.226703,5 -5.0000001,5 -2.7718972,0 -4.9979,-2.224697 -5,-4.9960938 v -0.00195 -0.00195 C 3.0055422,6.6767013 3.5345491,5.4100616 4.4726581,4.4765625 L 5.1816425,3.7714844 3.7714863,2.3535156 3.0625019,3.0585938 c -1.3138987,1.3075986 -2.0562,3.0838018 -2.0625,4.9375 -2.52e-6,0.0013 -2.52e-6,0.0026 0,0.00391 0,3.8540962 3.1459039,7.0000002 7,7.0000002 3.8540961,0 7.0000001,-3.145904 7.0000001,-7.0000002 -2.8e-4,-1.8559981 -0.738223,-3.6370201 -2.050781,-4.9492188 z"
     id="path2612"
     style="fill:#4d4d4d;fill-opacity:1" />
</svg>
