<?xml version="1.0" encoding="UTF-8" standalone="no"?>
<!-- Created with Inkscape (http://www.inkscape.org/) -->

<svg
   width="16"
   height="16"
   viewBox="0 0 16 16"
   version="1.1"
   id="svg5"
   inkscape:version="1.2.2 (1:1.2.2+202305151914+b0a8486541)"
   sodipodi:docname="edit-find-symbolic.svg"
   xmlns:inkscape="http://www.inkscape.org/namespaces/inkscape"
   xmlns:sodipodi="http://sodipodi.sourceforge.net/DTD/sodipodi-0.dtd"
   xmlns="http://www.w3.org/2000/svg"
   xmlns:svg="http://www.w3.org/2000/svg">
  <sodipodi:namedview
     id="namedview7"
     pagecolor="#ffffff"
     bordercolor="#000000"
     borderopacity="0.25"
     inkscape:showpageshadow="2"
     inkscape:pageopacity="0.0"
     inkscape:pagecheckerboard="0"
     inkscape:deskcolor="#d1d1d1"
     inkscape:document-units="px"
     showgrid="false"
     inkscape:zoom="51.875"
     inkscape:cx="7.9710843"
     inkscape:cy="8"
     inkscape:window-width="1920"
     inkscape:window-height="1008"
     inkscape:window-x="0"
     inkscape:window-y="0"
     inkscape:window-maximized="1"
     inkscape:current-layer="svg5" />
  <defs
     id="defs2" />
  <path
     d="M 6.5,1 C 3.4624339,1 1,3.4624339 1,6.5 1,9.5375662 3.4624339,12 6.5,12 7.6131853,11.999899 8.7001377,11.662014 9.6171998,11.031 L 13.279,14.693 c 0.188559,0.196161 0.448909,0.307017 0.721,0.307 0.552285,0 1,-0.447715 1,-1 -1.9e-5,-0.270113 -0.109309,-0.528731 -0.303,-0.717 L 11.027,9.6133002 C 11.658678,8.6977937 11.997934,7.6122789 12,6.5 12,3.4624339 9.5375658,1 6.5,1 Z m 0,2 C 8.4329966,3 9.9999998,4.5670034 9.9999998,6.5 9.9999998,8.4329966 8.4329966,10 6.5,10 4.5670034,10 3,8.4329966 3,6.5 3,4.5670034 4.5670034,3 6.5,3 Z"
     style="fill:#dfdfdf;fill-opacity:1"
     id="path296" />
</svg>
