<?xml version="1.0" encoding="UTF-8" standalone="no"?>
<!-- Created with Inkscape (http://www.inkscape.org/) -->

<svg
   width="16"
   height="16"
   viewBox="0 0 16 16"
   version="1.1"
   id="svg5"
   inkscape:version="1.2.2 (1:1.2.2+202305151914+b0a8486541)"
   sodipodi:docname="screenshot-recorded-symbolic.svg"
   xmlns:inkscape="http://www.inkscape.org/namespaces/inkscape"
   xmlns:sodipodi="http://sodipodi.sourceforge.net/DTD/sodipodi-0.dtd"
   xmlns="http://www.w3.org/2000/svg"
   xmlns:svg="http://www.w3.org/2000/svg">
  <sodipodi:namedview
     id="namedview7"
     pagecolor="#ffffff"
     bordercolor="#000000"
     borderopacity="0.25"
     inkscape:showpageshadow="2"
     inkscape:pageopacity="0.0"
     inkscape:pagecheckerboard="0"
     inkscape:deskcolor="#d1d1d1"
     inkscape:document-units="px"
     showgrid="false"
     showguides="true"
     inkscape:zoom="51.875"
     inkscape:cx="8"
     inkscape:cy="8"
     inkscape:window-width="1920"
     inkscape:window-height="1008"
     inkscape:window-x="0"
     inkscape:window-y="0"
     inkscape:window-maximized="1"
     inkscape:current-layer="svg5" />
  <defs
     id="defs2" />
  <path
     d="m 9,6.9999995 -0.9999997,1 h -1 c -1.108,0 -2,0.892 -2,2 V 14 c 0,1.108 0.892,2 2,2 H 14 c 1.108,0 2,-0.892 2,-2 V 9.9999995 c 0,-1.108 -0.892,-2 -2,-2 h -1 l -1,-1 z m 0.82812,2 h 1.3438 l 1,1 h 1.8281 V 14 H 7.0000203 V 9.9999995 H 8.82812 Z m 0.67188,1 C 9.671573,9.9999995 9,10.671573 9,11.5 9,12.328427 9.671573,13 10.5,13 11.328427,13 12,12.328427 12,11.5 12,10.671573 11.328427,9.9999995 10.5,9.9999995 Z m -8.4999997,-9 c -1.108,0 -2,0.892 -2,2 v 7 C 3e-7,11.108 0.8920003,12 2.0000003,12 h 2 V 9.9999995 h -2 v -7 H 12 v 3 h 2 v -3 c 0,-1.108 -0.892,-2 -2,-2 z"
     style="fill:#dfdfdf;fill-rule:evenodd;stroke-width:2;stroke-linecap:round;paint-order:stroke fill markers;stop-color:#000000;fill-opacity:1"
     id="path7941" />
</svg>
