<?xml version="1.0" encoding="UTF-8" standalone="no"?>
<!-- Created with Inkscape (http://www.inkscape.org/) -->

<svg
   width="16"
   height="16"
   viewBox="0 0 16 16"
   version="1.1"
   id="svg5"
   inkscape:version="1.2.2 (1:1.2.2+202305151914+b0a8486541)"
   sodipodi:docname="system-log-out-symbolic.svg"
   xmlns:inkscape="http://www.inkscape.org/namespaces/inkscape"
   xmlns:sodipodi="http://sodipodi.sourceforge.net/DTD/sodipodi-0.dtd"
   xmlns="http://www.w3.org/2000/svg"
   xmlns:svg="http://www.w3.org/2000/svg">
  <sodipodi:namedview
     id="namedview7"
     pagecolor="#ffffff"
     bordercolor="#000000"
     borderopacity="0.25"
     inkscape:showpageshadow="2"
     inkscape:pageopacity="0.0"
     inkscape:pagecheckerboard="0"
     inkscape:deskcolor="#d1d1d1"
     inkscape:document-units="px"
     showgrid="false"
     inkscape:zoom="51.875"
     inkscape:cx="8"
     inkscape:cy="8"
     inkscape:window-width="1920"
     inkscape:window-height="1008"
     inkscape:window-x="0"
     inkscape:window-y="0"
     inkscape:window-maximized="1"
     inkscape:current-layer="svg5" />
  <defs
     id="defs2" />
  <path
     id="path11075"
     style="fill:#dfdfdf;fill-opacity:1;stroke-width:0.875"
     d="M 8 1 C 4.1340224 1 1 4.1340224 1 8 C 1 11.865977 4.1340224 15 8 15 C 11.865977 15 15 11.865977 15 8 C 15 4.1340224 11.865977 1 8 1 z M 8 3 C 10.761411 3 13 5.2385875 13 8 C 13 10.761411 10.761411 13 8 13 C 5.238587 13 3 10.761411 3 8 C 3 5.2385875 5.238587 3 8 3 z M 7.1601562 3.7578125 L 5.7460938 5.171875 L 8.5742188 8 L 5.7460938 10.828125 L 7.1601562 12.242188 L 11.402344 8 L 7.1601562 3.7578125 z " />
</svg>
