<?xml version="1.0" encoding="UTF-8" standalone="no"?>
<!-- Created with Inkscape (http://www.inkscape.org/) -->

<svg
   width="16"
   height="16"
   viewBox="0 0 16 16"
   version="1.1"
   id="svg5"
   inkscape:version="1.2.2 (1:1.2.2+202305151914+b0a8486541)"
   sodipodi:docname="ymuse-consume-symbolic.svg"
   xmlns:inkscape="http://www.inkscape.org/namespaces/inkscape"
   xmlns:sodipodi="http://sodipodi.sourceforge.net/DTD/sodipodi-0.dtd"
   xmlns="http://www.w3.org/2000/svg"
   xmlns:svg="http://www.w3.org/2000/svg">
  <sodipodi:namedview
     id="namedview7"
     pagecolor="#ffffff"
     bordercolor="#000000"
     borderopacity="0.25"
     inkscape:showpageshadow="2"
     inkscape:pageopacity="0.0"
     inkscape:pagecheckerboard="0"
     inkscape:deskcolor="#d1d1d1"
     inkscape:document-units="px"
     showgrid="false"
     inkscape:zoom="51.875"
     inkscape:cx="7.9903614"
     inkscape:cy="8"
     inkscape:window-width="1920"
     inkscape:window-height="1008"
     inkscape:window-x="0"
     inkscape:window-y="0"
     inkscape:window-maximized="1"
     inkscape:current-layer="svg5" />
  <defs
     id="defs2" />
  <path
     id="path346"
     style="fill:#dfdfdf;fill-opacity:1"
     d="M 7 1 C 4.1688772 1.0001168 1.6165966 2.7066243 0.53320312 5.3222656 C -0.5502489 7.9379165 0.048907534 10.947218 2.0507812 12.949219 C 4.0527817 14.951063 7.0620834 15.55022 9.6777344 14.466797 C 10.322283 14.200307 10.923339 13.838884 11.460938 13.394531 L 6.0664062 8 L 11.460938 2.6054688 C 10.249697 1.6028283 8.6952433 1 7 1 z M 7 3 C 7.3726684 3 7.7061411 3.1097055 8.0527344 3.1855469 L 3.2382812 8 L 7.953125 12.714844 C 6.3392144 13.033772 4.6612068 12.731426 3.4648438 11.535156 C 2.0304492 10.100672 1.6047223 7.9616277 2.3808594 6.0878906 C 3.156982 4.2140951 4.9725134 3.0000836 7 3 z M 11 6 C 9.8953957 6 9 6.8953956 9 8 C 9.0000003 9.7819313 11.154199 10.673926 12.414062 9.4140625 C 13.673925 8.154199 12.781932 6 11 6 z M 16 6 C 14.894076 6.008 14 6.9001091 14 8 C 14.000256 8.8090177 14.491282 9.5382349 15.244141 9.8476562 C 15.483838 9.9463662 15.740509 9.9981021 16 10 L 16 6 z " />
</svg>
