<?xml version="1.0" encoding="UTF-8" standalone="no"?>
<!-- Created with Inkscape (http://www.inkscape.org/) -->

<svg
   width="48"
   height="48"
   viewBox="0 0 48 48"
   version="1.1"
   id="svg5"
   inkscape:version="1.2.2 (1:1.2.2+202305151914+b0a8486541)"
   sodipodi:docname="audio-speakers.svg"
   xmlns:inkscape="http://www.inkscape.org/namespaces/inkscape"
   xmlns:sodipodi="http://sodipodi.sourceforge.net/DTD/sodipodi-0.dtd"
   xmlns="http://www.w3.org/2000/svg"
   xmlns:svg="http://www.w3.org/2000/svg">
  <sodipodi:namedview
     id="namedview7"
     pagecolor="#ffffff"
     bordercolor="#000000"
     borderopacity="0.25"
     inkscape:showpageshadow="2"
     inkscape:pageopacity="0.0"
     inkscape:pagecheckerboard="0"
     inkscape:deskcolor="#d1d1d1"
     inkscape:document-units="px"
     showgrid="false"
     inkscape:zoom="16.791667"
     inkscape:cx="23.970223"
     inkscape:cy="24"
     inkscape:window-width="1920"
     inkscape:window-height="1008"
     inkscape:window-x="0"
     inkscape:window-y="0"
     inkscape:window-maximized="1"
     inkscape:current-layer="svg5"
     showguides="true" />
  <defs
     id="defs2" />
  <path
     d="M 24,5 C 20.999152,5.00838 18.038653,5.6919312 15.337891,7 H 10 C 7.784002,7 6,8.7840022 6,11 v 5.337891 C 4.691931,19.038653 4.00838,21.999152 4,25 c 0.0084,3.000848 0.691931,5.961347 2,8.662109 V 39 c 0,2.215998 1.784002,4 4,4 h 5.337891 c 2.700762,1.308069 5.661261,1.99162 8.662109,2 3.000848,-0.0084 5.961347,-0.691931 8.662109,-2 H 38 c 2.215998,0 4,-1.784002 4,-4 V 33.662109 C 43.308069,30.961347 43.99162,28.000848 44,25 43.99867,21.983322 43.31494,19.006026 42,16.291016 V 11 C 42,8.7840022 40.215998,7 38,7 H 32.708984 C 29.993974,5.6850599 27.016678,5.00133 24,5 Z"
     style="opacity:0.2;fill:#000000;stroke-linecap:round;stroke-linejoin:round"
     id="path546" />
  <path
     id="path481"
     style="fill:#4f4f4f;stroke-linecap:round;stroke-linejoin:round"
     d="m 24,4 c -3.000848,0.00838 -5.961347,0.6919312 -8.662109,2 H 10 C 7.7840022,6 6,7.7840022 6,10 v 5.337891 C 4.6919312,18.038653 4.0083799,20.999152 4,24 c 0.00838,3.000848 0.6919312,5.961347 2,8.662109 V 38 c 0,2.215998 1.7840022,4 4,4 h 5.337891 c 2.700762,1.308069 5.661261,1.99162 8.662109,2 3.000848,-0.0084 5.961347,-0.691931 8.662109,-2 H 38 c 2.215998,0 4,-1.784002 4,-4 V 32.662109 C 43.308069,29.961347 43.99162,27.000848 44,24 43.99867,20.983322 43.31494,18.006026 42,15.291016 V 10 C 42,7.7840022 40.215998,6 38,6 H 32.708984 C 29.993974,4.6850599 27.016678,4.00133 24,4 Z" />
  <circle
     style="fill:#333333;stroke-width:1;fill-opacity:1"
     id="path1406"
     cx="24"
     cy="24"
     r="16" />
  <circle
     style="fill:#4f4f4f;stroke-width:1.07693;fill-opacity:1"
     id="path1678"
     cx="24"
     cy="24"
     r="14" />
  <circle
     style="fill:#fec006;fill-opacity:1;stroke-width:9.44465;stroke-linecap:round;stroke-linejoin:round"
     id="path2453"
     cx="24"
     cy="24"
     r="13" />
  <circle
     style="opacity:0.2;fill:#000000;fill-opacity:1;stroke-width:13.5;stroke-linecap:round;stroke-linejoin:round"
     id="path3067"
     cx="24"
     cy="25"
     r="6" />
  <circle
     style="fill:#3f3f3f;fill-opacity:1;stroke-width:25.8477;stroke-linecap:round;stroke-linejoin:round"
     id="path3261"
     cx="24"
     cy="24"
     r="6" />
  <path
     id="path1718"
     style="opacity:1;fill:#868686;fill-opacity:1;stroke-width:0.5;stroke-linecap:round;stroke-linejoin:round;paint-order:stroke fill markers"
     d="M 9,8 C 8.4477153,8 8,8.4477153 8,9 8,9.5522847 8.4477153,10 9,10 9.5522847,10 10,9.5522847 10,9 10,8.4477153 9.5522847,8 9,8 Z m 30,0 c -0.552284,0 -1,0.447716 -1,1 0,0.552284 0.447716,1 1,1 0.552284,0 1,-0.447716 1,-1 C 40,8.447716 39.552284,8 39,8 Z M 9,38 c -0.5522847,0 -1,0.447715 -1,1 0,0.552285 0.4477153,1 1,1 0.5522847,0 1,-0.447715 1,-1 0,-0.552285 -0.4477153,-1 -1,-1 z m 30,0 c -0.552284,0 -1,0.447716 -1,1 0,0.552284 0.447716,1 1,1 0.552284,0 1,-0.447716 1,-1 0,-0.552284 -0.447716,-1 -1,-1 z" />
  <path
     id="path574"
     style="opacity:0.1;fill:#ffffff;stroke-linecap:round;stroke-linejoin:round"
     d="M 24 4 C 20.999155 4.00838 18.03865 4.6919325 15.337891 6 L 10 6 C 7.7840042 6 6 7.7840046 6 10 L 6 11 C 6 8.7840042 7.7840042 7 10 7 L 15.337891 7 C 18.03865 5.6919323 20.999155 5.00838 24 5 C 27.016675 5.00133 29.993977 5.6850612 32.708984 7 L 38 7 C 40.215996 7 42 8.7840042 42 11 L 42 10 C 42 7.7840046 40.215996 6 38 6 L 32.708984 6 C 29.993977 4.6850612 27.016675 4.00133 24 4 z M 42 15.291016 L 42 16.291016 C 43.239862 18.85101 43.909826 21.644862 43.984375 24.484375 C 43.988744 24.322854 43.999548 24.16179 44 24 C 43.99867 20.983325 43.314939 18.006023 42 15.291016 z M 6 15.337891 C 4.6919323 18.03865 4.00838 20.999155 4 24 C 4.0004675 24.167003 4.0109843 24.333284 4.015625 24.5 C 4.0943575 21.671041 4.764729 18.888347 6 16.337891 L 6 15.337891 z " />
</svg>
