<?xml version="1.0" encoding="UTF-8" standalone="no"?>
<svg
   width="48"
   height="48"
   version="1"
   id="svg6"
   sodipodi:docname="battery.svg"
   inkscape:version="1.3 (0e150ed6c4, 2023-07-21)"
   xmlns:inkscape="http://www.inkscape.org/namespaces/inkscape"
   xmlns:sodipodi="http://sodipodi.sourceforge.net/DTD/sodipodi-0.dtd"
   xmlns="http://www.w3.org/2000/svg"
   xmlns:svg="http://www.w3.org/2000/svg">
  <defs
     id="defs6" />
  <sodipodi:namedview
     id="namedview6"
     pagecolor="#ffffff"
     bordercolor="#000000"
     borderopacity="0.25"
     inkscape:showpageshadow="2"
     inkscape:pageopacity="0.0"
     inkscape:pagecheckerboard="0"
     inkscape:deskcolor="#d1d1d1"
     inkscape:zoom="16.3125"
     inkscape:cx="24"
     inkscape:cy="24"
     inkscape:window-width="1920"
     inkscape:window-height="984"
     inkscape:window-x="0"
     inkscape:window-y="29"
     inkscape:window-maximized="1"
     inkscape:current-layer="svg6" />
  <rect
     style="opacity:0.2;fill:#000000"
     width="32"
     height="36"
     x="8"
     y="9"
     ry="2"
     id="rect1" />
  <rect
     style="fill:#4f4f4f"
     width="32"
     height="36"
     x="8"
     y="8"
     ry="2"
     id="rect2" />
  <rect
     style="fill:#8e8e8e"
     width="20"
     height="4"
     x="14"
     y="4"
     id="rect3" />
  <path
     style="opacity:0.2;fill:#000000"
     d="m 11,13 v 8 h 26 v -8 z m 0,10 v 8 h 26 v -8 z m 0,10 v 8 h 26 v -8 z"
     id="path3" />
  <path
     style="fill:#c0f957"
     d="m 11,12 v 8 h 26 v -8 z m 0,10 v 8 h 26 v -8 z m 0,10 v 8 h 26 v -8 z"
     id="path4" />
  <path
     style="opacity:0.2;fill:#ffffff"
     d="m14 4v1h20v-1h-20z"
     id="path5" />
  <path
     style="fill:#ffffff;opacity:0.2"
     d="M 11 12 L 11 13 L 37 13 L 37 12 L 11 12 z M 11 22 L 11 23 L 37 23 L 37 22 L 11 22 z M 11 32 L 11 33 L 37 33 L 37 32 L 11 32 z"
     id="path6" />
</svg>
