<?xml version="1.0" encoding="UTF-8" standalone="no"?>
<svg
   width="48"
   height="48"
   version="1"
   id="svg3"
   sodipodi:docname="drive-optical.svg"
   inkscape:version="1.3.2 (091e20ef0f, 2023-11-25, custom)"
   xmlns:inkscape="http://www.inkscape.org/namespaces/inkscape"
   xmlns:sodipodi="http://sodipodi.sourceforge.net/DTD/sodipodi-0.dtd"
   xmlns="http://www.w3.org/2000/svg"
   xmlns:svg="http://www.w3.org/2000/svg">
  <defs
     id="defs3" />
  <sodipodi:namedview
     id="namedview3"
     pagecolor="#ffffff"
     bordercolor="#000000"
     borderopacity="0.25"
     inkscape:showpageshadow="2"
     inkscape:pageopacity="0.0"
     inkscape:pagecheckerboard="0"
     inkscape:deskcolor="#d1d1d1"
     inkscape:zoom="15.1875"
     inkscape:cx="23.967078"
     inkscape:cy="24"
     inkscape:window-width="1920"
     inkscape:window-height="942"
     inkscape:window-x="0"
     inkscape:window-y="32"
     inkscape:window-maximized="1"
     inkscape:current-layer="svg3" />
  <rect
     style="opacity:0.2;fill:#000000;stroke-width:2"
     width="40"
     height="40"
     x="-45"
     y="-44"
     ry="2"
     transform="matrix(0,-1,-1,0,0,0)"
     id="rect1" />
  <rect
     style="fill:#8e8e8e;stroke-width:2"
     width="40"
     height="40"
     x="-44"
     y="-44"
     ry="2"
     transform="matrix(0,-1,-1,0,0,0)"
     id="rect2" />
  <path
     style="opacity:0.2;fill:#ffffff;stroke-width:2"
     d="M 6,4 C 4.892,4 4,4.892 4,6 V 7 C 4,5.892 4.892,5 6,5 h 36 c 1.108,0 2,0.892 2,2 V 6 C 44,4.892 43.108,4 42,4 Z"
     id="path2" />
  <path
     style="opacity:0.5;fill:#000000;stroke-width:2"
     d="M 24,10 A 14,14 0 0 0 10,24 14,14 0 0 0 24,38 14,14 0 0 0 38,24 14,14 0 0 0 24,10 Z m 0,9 a 5,5 0 0 1 5,5 5,5 0 0 1 -5,5 5,5 0 0 1 -5,-5 5,5 0 0 1 5,-5 z"
     id="path3" />
</svg>
