<?xml version="1.0" encoding="UTF-8" standalone="no"?>
<!-- Created with Inkscape (http://www.inkscape.org/) -->

<svg
   width="48"
   height="48"
   viewBox="0 0 48 48"
   version="1.1"
   id="svg457"
   inkscape:version="1.3 (0e150ed6c4, 2023-07-21)"
   sodipodi:docname="input-mouse.svg"
   xmlns:inkscape="http://www.inkscape.org/namespaces/inkscape"
   xmlns:sodipodi="http://sodipodi.sourceforge.net/DTD/sodipodi-0.dtd"
   xmlns="http://www.w3.org/2000/svg"
   xmlns:svg="http://www.w3.org/2000/svg">
  <sodipodi:namedview
     id="namedview459"
     pagecolor="#ffffff"
     bordercolor="#000000"
     borderopacity="0.25"
     inkscape:showpageshadow="2"
     inkscape:pageopacity="0.0"
     inkscape:pagecheckerboard="0"
     inkscape:deskcolor="#d1d1d1"
     inkscape:document-units="px"
     showgrid="false"
     inkscape:zoom="16.666667"
     inkscape:cx="23.97"
     inkscape:cy="24"
     inkscape:window-width="1920"
     inkscape:window-height="1004"
     inkscape:window-x="0"
     inkscape:window-y="0"
     inkscape:window-maximized="1"
     inkscape:current-layer="svg457" />
  <defs
     id="defs454" />
  <rect
     style="opacity:0.2;fill:#000000;stroke-width:4"
     id="rect1"
     width="24"
     height="40"
     x="12"
     y="5"
     ry="12" />
  <rect
     style="opacity:1;fill:#a7a7a7;fill-opacity:1;stroke-width:4"
     id="rect3"
     width="24"
     height="40"
     x="12"
     y="4"
     ry="12" />
  <path
     id="rect5"
     style="opacity:0.1;fill:#000000;stroke-width:4"
     d="M 24,4 C 17.352006,4 12,9.3520066 12,16 v 6 H 36 V 16 C 36,9.3520066 30.647994,4 24,4 Z" />
  <path
     id="rect4"
     style="opacity:0.1;fill:#000000;stroke-width:4"
     d="M 24,4 C 17.352006,4 12,9.3520066 12,16 v 6 h 12 z" />
  <path
     d="M 12,17 V 16 C 12,9.352006 17.352006,4 24,4 30.647994,4 36,9.352006 36,16 v 1 C 36,10.352006 30.647994,5 24,5 17.352006,5 12,10.352006 12,17 Z"
     style="opacity:0.2;fill:#ffffff;stroke-width:4"
     id="path1" />
  <rect
     style="opacity:0.2;fill:#000000;stroke-width:4"
     id="rect6"
     width="4"
     height="12"
     x="22"
     y="9"
     ry="2" />
  <rect
     style="opacity:1;fill:#e4e4e4;fill-opacity:1;stroke-width:4"
     id="rect7"
     width="4"
     height="12"
     x="22"
     y="8"
     ry="2" />
</svg>
