<?xml version="1.0" encoding="UTF-8" standalone="no"?>
<svg
   width="48"
   height="48"
   version="1"
   id="svg7"
   sodipodi:docname="scanner.svg"
   inkscape:version="1.3.2 (091e20ef0f, 2023-11-25, custom)"
   xmlns:inkscape="http://www.inkscape.org/namespaces/inkscape"
   xmlns:sodipodi="http://sodipodi.sourceforge.net/DTD/sodipodi-0.dtd"
   xmlns="http://www.w3.org/2000/svg"
   xmlns:svg="http://www.w3.org/2000/svg">
  <defs
     id="defs7" />
  <sodipodi:namedview
     id="namedview7"
     pagecolor="#ffffff"
     bordercolor="#000000"
     borderopacity="0.25"
     inkscape:showpageshadow="2"
     inkscape:pageopacity="0.0"
     inkscape:pagecheckerboard="0"
     inkscape:deskcolor="#d1d1d1"
     inkscape:zoom="15.1875"
     inkscape:cx="24"
     inkscape:cy="24"
     inkscape:window-width="1920"
     inkscape:window-height="942"
     inkscape:window-x="0"
     inkscape:window-y="32"
     inkscape:window-maximized="1"
     inkscape:current-layer="svg7" />
  <rect
     style="opacity:0.2;fill:#000000"
     width="40"
     height="32"
     x="-45"
     y="-40"
     ry="2"
     transform="matrix(0,-1,-1,0,0,0)"
     id="rect1" />
  <rect
     style="fill:#4f4f4f"
     width="40"
     height="32"
     x="-44"
     y="-40"
     ry="2"
     transform="matrix(0,-1,-1,0,0,0)"
     id="rect2" />
  <rect
     style="fill:#e4e4e4"
     width="30"
     height="22"
     x="-39"
     y="-35"
     rx="0"
     ry="0"
     transform="matrix(0,-1,-1,0,0,0)"
     id="rect3" />
  <path
     style="opacity:0.1;fill:#ffffff"
     d="M 10,4 C 8.892,4 8,4.892 8,6 L 8,7 C 8,5.892 8.892,5 10,5 l 28,0 c 1.108,0 2,0.892 2,2 L 40,6 C 40,4.892 39.108,4 38,4 L 10,4 Z"
     id="path3" />
  <rect
     style="opacity:0.2;fill:#000000"
     width="40"
     height="4"
     x="4"
     y="17"
     ry="1"
     id="rect4" />
  <rect
     style="fill:#f34235"
     width="40"
     height="4"
     x="4"
     y="16"
     ry="1"
     id="rect5" />
  <rect
     style="opacity:0.2;fill:#000000"
     width="1"
     height="22"
     x="-40"
     y="-35"
     rx="0"
     ry="0"
     transform="matrix(0,-1,-1,0,0,0)"
     id="rect6" />
  <rect
     style="opacity:0.2;fill:#ffffff"
     width="1"
     height="22"
     x="-10"
     y="-35"
     rx="0"
     ry="0"
     transform="matrix(0,-1,-1,0,0,0)"
     id="rect7" />
</svg>
