<?xml version="1.0" encoding="UTF-8" standalone="no"?>
<!-- Created with Inkscape (http://www.inkscape.org/) -->

<svg
   width="24"
   height="24"
   viewBox="0 0 24 24.000001"
   version="1.1"
   id="svg5"
   inkscape:version="1.2.2 (1:1.2.2+202305151914+b0a8486541)"
   sodipodi:docname="application-x-executable.svg"
   xmlns:inkscape="http://www.inkscape.org/namespaces/inkscape"
   xmlns:sodipodi="http://sodipodi.sourceforge.net/DTD/sodipodi-0.dtd"
   xmlns="http://www.w3.org/2000/svg"
   xmlns:svg="http://www.w3.org/2000/svg">
  <sodipodi:namedview
     id="namedview7"
     pagecolor="#ffffff"
     bordercolor="#000000"
     borderopacity="0.25"
     inkscape:showpageshadow="2"
     inkscape:pageopacity="0.0"
     inkscape:pagecheckerboard="0"
     inkscape:deskcolor="#d1d1d1"
     inkscape:document-units="px"
     showgrid="false"
     inkscape:zoom="33.583333"
     inkscape:cx="11.985112"
     inkscape:cy="12"
     inkscape:window-width="1920"
     inkscape:window-height="1008"
     inkscape:window-x="0"
     inkscape:window-y="0"
     inkscape:window-maximized="1"
     inkscape:current-layer="svg5" />
  <defs
     id="defs2" />
  <path
     d="M 14.13595,2.570108 C 13.050295,2.2792079 11.941543,2.9193459 11.650643,4.0050006 11.497524,4.5764502 11.134779,4.8215918 10.311675,5.09699 9.2965812,5.4366249 8.6265018,5.5398447 8.0551982,4.9685436 7.2604445,4.1737889 5.9806335,4.1743169 5.1858788,4.9690936 L 4.4681634,5.685656 c -0.7947549,0.7947552 -0.7942264,2.0745651 5.5e-4,2.8693193 0.3978143,0.3978139 0.3607664,1.1384907 0.1823222,1.9757927 -0.2274807,1.067389 -0.2941311,1.391723 -1.1457918,1.619925 -1.0856547,0.2909 -1.7260172,1.398984 -1.4351172,2.484638 l 0.2632776,0.979422 c 0.2909,1.085655 1.3989848,1.726017 2.4846391,1.435118 0.7453224,-0.199709 1.1370188,0.184301 1.7431753,0.761279 0.8152487,0.776006 1.0798963,1.157714 0.8888001,1.870895 -0.2909001,1.085655 0.3492384,2.194407 1.4348921,2.485306 l 0.4895537,0.131176 0.4895532,0.131175 c 1.0856543,0.290901 2.1944063,-0.349238 2.4853073,-1.434892 0.191095,-0.713181 0.611141,-0.911426 1.705171,-1.175842 0.813435,-0.1966 1.344659,-0.333314 1.890273,0.212299 0.794754,0.794754 2.074565,0.794227 2.869319,-5.5e-4 l 0.717716,-0.716565 c 0.794755,-0.794754 0.794227,-2.074565 -5.5e-4,-2.869318 -0.623458,-0.623459 -0.519013,-0.937665 -0.182322,-1.975793 0.264113,-0.814346 0.602368,-1.474314 1.145792,-1.619925 1.085655,-0.2909 1.726017,-1.398984 1.435117,-2.484639 L 21.666583,9.3850775 C 21.375683,8.2994228 20.267598,7.6590598 19.181944,7.9499603 18.40153,8.159071 17.872834,7.7346397 17.163555,6.93296 16.588424,6.282906 16.39685,5.8892347 16.549969,5.3177856 16.840869,4.2321308 16.200731,3.1233796 15.115077,2.832479 L 14.625523,2.7013037 Z"
     style="opacity:0.2;fill:#000000;stroke-width:0.499999"
     id="path542" />
  <path
     d="M 14.135982,2.0701426 C 13.050328,1.7792425 11.941576,2.4193805 11.650675,3.5050352 11.497556,4.0764843 11.134812,4.3216264 10.311708,4.597025 9.2966137,4.9366594 8.6265343,5.0398795 8.0552307,4.4685782 7.260477,3.6738235 5.980666,3.6743515 5.1859113,4.4691282 L 4.4681959,5.1856908 c -0.7947549,0.7947552 -0.7942264,2.0745651 5.5e-4,2.8693194 0.3978143,0.3978138 0.3607664,1.1384906 0.1823222,1.9757918 -0.2274807,1.06739 -0.2941311,1.391724 -1.1457918,1.619925 -1.0856547,0.2909 -1.7260177,1.398985 -1.4351172,2.484639 l 0.2632776,0.979422 c 0.2909,1.085654 1.3989848,1.726017 2.4846391,1.435117 0.7453224,-0.199708 1.1370188,0.184302 1.7431753,0.76128 0.8152487,0.776006 1.0798963,1.157714 0.8888001,1.870895 -0.2909001,1.085655 0.3492384,2.194407 1.4348921,2.485306 l 0.4895537,0.131176 0.4895532,0.131175 c 1.0856538,0.290901 2.1944068,-0.349238 2.4853068,-1.434892 0.191095,-0.713181 0.611142,-0.911426 1.705171,-1.175843 0.813436,-0.196599 1.344659,-0.333313 1.890273,0.2123 0.794755,0.794754 2.074566,0.794227 2.86932,-5.5e-4 l 0.717716,-0.716565 c 0.794754,-0.794754 0.794226,-2.074565 -5.5e-4,-2.869319 -0.623459,-0.623459 -0.519014,-0.937665 -0.182323,-1.975792 0.264113,-0.814346 0.602368,-1.474315 1.145792,-1.619925 1.085655,-0.2909 1.726018,-1.398984 1.435117,-2.4846388 L 21.666596,8.8850923 C 21.375696,7.7994376 20.267611,7.1590746 19.181956,7.4499751 18.401543,7.6590858 17.872847,7.2346545 17.163567,6.4329748 16.588437,5.7829208 16.396862,5.3892495 16.549981,4.8178001 16.840881,3.7321454 16.200743,2.6233937 15.115089,2.3324936 L 14.625536,2.2013184 Z"
     style="fill:#455a64;stroke-width:0.499999"
     id="path304" />
  <path
     d="m 13.528273,2.0019853 c -0.86511,0.033451 -1.64157,0.6208329 -1.877927,1.5029273 -0.153119,0.5714493 -0.51576,0.8163968 -1.338864,1.0917951 C 9.2963877,4.9363426 8.6269293,5.0400795 8.0556257,4.4687782 7.260872,3.6740236 5.980268,3.6740216 5.1855133,4.4687782 L 4.4677409,5.1855738 C 4.0066501,5.6466651 3.8155374,6.2709845 3.8896163,6.8691651 3.9433957,6.4370898 4.1346514,6.0186625 4.4677409,5.685573 L 5.1855133,4.9687774 c 0.7947547,-0.7947566 2.0753587,-0.7947546 2.8701124,0 0.5713036,0.5713013 1.240762,0.467564 2.2558563,0.1279291 0.823104,-0.2753981 1.185745,-0.5203454 1.338864,-1.0917947 0.290901,-1.0856547 1.399693,-1.7254683 2.485348,-1.434568 l 0.490234,0.1308592 0.489257,0.1318357 c 0.8203,0.219799 1.386108,0.90639 1.488278,1.6972629 0.118662,-0.987465 -0.49855,-1.932065 -1.488278,-2.1972621 L 14.625928,2.2012038 14.135694,2.0703446 c -0.20356,-0.054544 -0.40778,-0.076079 -0.607421,-0.068359 z m 3.000972,3.4189396 c -0.10323,0.5167277 0.09542,0.9021056 0.634764,1.5117166 0.70928,0.8016797 1.237162,1.226687 2.017575,1.0175763 1.085655,-0.2909005 2.194448,0.348913 2.485348,1.4345682 l 0.262695,0.97949 c 0.0257,0.09593 0.04221,0.192389 0.05371,0.288086 0.03308,-0.255801 0.0174,-0.522702 -0.05371,-0.7880848 L 21.666932,8.8847868 C 21.376032,7.7991321 20.267239,7.1593186 19.181584,7.4502191 18.401171,7.6593298 17.873289,7.234322 17.164009,6.4326418 16.809414,6.0318524 16.601345,5.7285499 16.529245,5.4209249 Z M 4.7655919,9.2822467 C 4.7464569,9.5179433 4.7072165,9.7690579 4.6513346,10.031269 4.4238539,11.098659 4.3565125,11.422205 3.5048515,11.650407 2.5151224,11.915604 1.8979441,12.860302 2.0165726,13.847669 2.118835,13.057019 2.6845801,12.370197 3.5048515,12.150406 4.3565125,11.922204 4.4238539,11.598658 4.6513346,10.531268 4.7493314,10.071445 4.8014883,9.6430046 4.7655919,9.2822467 Z M 19.109319,15.313487 c -0.08018,0.439124 0.01037,0.720335 0.421874,1.131834 0.333673,0.333664 0.525492,0.752678 0.579101,1.185545 0.07454,-0.59886 -0.117423,-1.223879 -0.579101,-1.685544 C 19.295184,15.709313 19.1636,15.51691 19.109319,15.313487 Z M 7.4784781,19.040043 c -0.00889,0.04706 -0.0149,0.09249 -0.02832,0.142578 -0.071101,0.265355 -0.086761,0.531275 -0.053711,0.787108 0.0115,-0.09571 0.02801,-0.191183 0.053711,-0.287109 0.065201,-0.243335 0.072998,-0.447589 0.02832,-0.642577 z"
     style="opacity:0.1;fill:#ffffff;stroke-width:0.499999"
     id="path570" />
  <circle
     style="opacity:0.2;fill:#000000;stroke-width:2;stroke-linecap:square"
     id="path478"
     cx="12.000016"
     cy="12.499949"
     r="3.9999936" />
  <circle
     style="fill:#ffffff;stroke-width:2;stroke-linecap:square"
     id="path480"
     cx="12.000016"
     cy="11.99995"
     r="3.9999936" />
</svg>
