<?xml version="1.0" encoding="UTF-8" standalone="no"?>
<!-- Created with Inkscape (http://www.inkscape.org/) -->

<svg
   width="24"
   height="24"
   viewBox="0 0 24 24.000001"
   version="1.1"
   id="svg5"
   inkscape:version="1.3 (0e150ed6c4, 2023-07-21)"
   sodipodi:docname="application-x-deb.svg"
   xmlns:inkscape="http://www.inkscape.org/namespaces/inkscape"
   xmlns:sodipodi="http://sodipodi.sourceforge.net/DTD/sodipodi-0.dtd"
   xmlns="http://www.w3.org/2000/svg"
   xmlns:svg="http://www.w3.org/2000/svg">
  <sodipodi:namedview
     id="namedview7"
     pagecolor="#ffffff"
     bordercolor="#000000"
     borderopacity="0.25"
     inkscape:showpageshadow="2"
     inkscape:pageopacity="0.0"
     inkscape:pagecheckerboard="0"
     inkscape:deskcolor="#d1d1d1"
     inkscape:document-units="px"
     showgrid="false"
     inkscape:zoom="33.458333"
     inkscape:cx="12"
     inkscape:cy="12"
     inkscape:window-width="1850"
     inkscape:window-height="1011"
     inkscape:window-x="70"
     inkscape:window-y="32"
     inkscape:window-maximized="1"
     inkscape:current-layer="svg5" />
  <defs
     id="defs2" />
  <rect
     style="opacity:0.2;fill:#000000;fill-opacity:1;stroke-width:1;stroke-linecap:square"
     id="rect1785"
     width="20"
     height="20"
     x="2"
     y="2.5"
     ry="2" />
  <rect
     style="opacity:1;fill:#fa6098;fill-opacity:1;stroke-width:1;stroke-linecap:square"
     id="rect1787"
     width="20"
     height="20"
     x="2.0000014"
     y="2"
     ry="2" />
  <path
     style="opacity:0.7;fill:#ffffff;stroke-width:0.83363"
     d="m 12.007965,13.366686 c 0.05518,-0.164974 0.06502,-0.26401 0.08612,-0.360045 -0.152054,0.190069 -0.0701,0.230582 -0.08612,0.360045 m 0.281017,-1.146825 c 0.02743,0.247589 -0.190568,0.344123 0.04818,0.180565 0.128214,-0.282101 -0.04985,-0.07803 -0.04818,-0.180565 m 4.172651,-2.168188 c 0.118878,-0.04243 0.291855,-0.02334 0.418483,-0.05127 -0.164642,0.01342 -0.328284,0.02151 -0.489841,0.0416 l 0.0714,0.0096 m 3.818607,4.62498 -0.02576,0.06347 c -0.04752,0.328616 -0.150053,0.653733 -0.306776,0.95534 0.173395,-0.318114 0.285102,-0.666154 0.332618,-1.018779 m -4.832885,1.026866 c -0.06144,-0.0662 -0.09712,-0.14572 -0.137884,-0.225164 0.03885,0.139217 0.118287,0.258925 0.192071,0.380802 l -0.05419,-0.155556 m -0.273014,0.0104 -0.02484,0.12038 c 0.115629,0.153472 0.207408,0.319698 0.354793,0.43924 -0.106113,-0.202239 -0.184817,-0.285768 -0.32995,-0.559616 m 1.439262,-5.529052 -0.06619,0.01345 0.06149,-0.0055 0.0046,-0.0079 m -0.187066,-0.05085 c 0.09386,0.01633 0.202796,0.02898 0.18714,0.05093 0.103185,-0.02216 0.126108,-0.04216 -0.187073,-0.05092 m 1.957695,4.228422 c 0.0214,-0.309393 -0.06223,-0.211441 -0.09034,-0.09359 0.03271,0.01679 0.0587,0.21822 0.09034,0.09359 m -0.34809,0.885816 c 0.105034,-0.141301 0.18173,-0.295855 0.208407,-0.455663 -0.02417,0.113792 -0.0867,0.212159 -0.146719,0.31603 -0.328283,0.202239 -0.03085,-0.120047 0,-0.242671 -0.353125,0.434906 -0.04835,0.26076 -0.06169,0.382304 m -0.943085,0.22958 c -0.175739,0.0022 0.03305,0.0883 0.262552,0.122911 0.06363,-0.04852 0.120804,-0.09727 0.172095,-0.144869 -0.142684,0.03416 -0.288071,0.03496 -0.43464,0.02196 m -5.08476,-2.111153 c 0.05518,-0.165225 0.06502,-0.264345 0.08612,-0.360129 -0.152138,0.190152 -0.0701,0.230749 -0.08612,0.360129 m 0.280849,-1.146825 c 0.02743,0.247672 -0.190483,0.343956 0.04827,0.180398 0.128214,-0.282101 -0.04985,-0.07778 -0.04827,-0.180398 M 16.461583,10.05128 C 16.580294,10.00886 16.753556,10.02794 16.879892,10 c -0.164441,0.01345 -0.328059,0.0215 -0.489556,0.04162 l 0.07128,0.0097 m 3.818776,4.625397 -0.02576,0.06346 c -0.04752,0.3287 -0.150054,0.653816 -0.306776,0.955423 0.173395,-0.318114 0.2851,-0.666154 0.332618,-1.01878 m -4.832636,1.0267 c -0.06119,-0.06619 -0.09712,-0.145803 -0.137884,-0.224914 0.03885,0.139299 0.118377,0.258926 0.192153,0.380802 l -0.05426,-0.155888 m -0.273015,0.0104 -0.02484,0.12038 c 0.115616,0.153554 0.207397,0.319779 0.354782,0.439322 -0.106113,-0.202239 -0.184815,-0.285768 -0.329951,-0.5597 m 1.439095,-5.529134 -0.06599,0.01345 0.06152,-0.0055 0.0045,-0.0079 m 2.620932,4.306455 c 0.0096,0.259774 -0.07594,0.386012 -0.15337,0.60925 l -0.139258,0.06914 c -0.113844,0.220853 0.0113,0.140216 -0.07023,0.315804 -0.177921,0.157739 -0.539174,0.493434 -0.654807,0.52417 -0.08455,-0.0019 0.05719,-0.09956 0.07572,-0.137741 -0.23836,0.163056 -0.190844,0.244751 -0.55489,0.344036 l -0.01053,-0.02376 c -0.897178,0.421482 -2.143539,-0.413649 -2.127199,-1.55297 -0.0095,0.07227 -0.02726,0.05419 -0.0471,0.08319 -0.04626,-0.586126 0.271263,-1.174835 0.806705,-1.415504 0.523769,-0.258759 1.137821,-0.152721 1.512954,0.196653 -0.206236,-0.26951 -0.616464,-0.555195 -1.102305,-0.528769 -0.476169,0.0077 -0.921743,0.309778 -1.070297,0.637811 -0.243837,0.153221 -0.272264,0.591043 -0.378468,0.671155 -0.143143,1.049458 0.26893,1.502619 0.966094,2.036142 0.109414,0.07376 0.03081,0.08506 0.04545,0.141183 -0.231583,-0.108207 -0.443491,-0.271681 -0.61797,-0.471752 0.09262,0.135132 0.192486,0.266513 0.321615,0.369798 -0.218494,-0.0737 -0.510265,-0.52827 -0.595211,-0.546778 0.376383,0.672823 1.526959,1.179754 2.129757,0.927998 -0.278932,0.01079 -0.633143,0.0058 -0.946337,-0.109542 -0.131964,-0.06769 -0.31061,-0.207575 -0.2786,-0.233667 0.822443,0.30655 1.671762,0.232041 2.383183,-0.337303 0.181156,-0.140859 0.378901,-0.380311 0.436088,-0.383545 -0.08607,0.129238 0.01476,0.06214 -0.05138,0.176238 0.18008,-0.290421 -0.07853,-0.118275 0.186324,-0.501513 l 0.09779,0.134407 c -0.03661,-0.241287 0.29995,-0.533924 0.265704,-0.915243 0.07722,-0.116554 0.08605,0.125594 0.0041,0.393757 0.113625,-0.297522 0.03005,-0.345373 0.05914,-0.590993 0.03133,0.08257 0.07302,0.170211 0.09425,0.257417 -0.0741,-0.287629 0.07572,-0.48419 0.112983,-0.651408 -0.03683,-0.01613 -0.11428,0.127097 -0.132146,-0.212467 0.0028,-0.147527 0.04126,-0.07731 0.056,-0.113651 -0.02887,-0.01667 -0.105022,-0.12978 -0.151221,-0.346657 0.03327,-0.05107 0.08961,0.132147 0.135272,0.139566 -0.02941,-0.17237 -0.07991,-0.303866 -0.08207,-0.436222 -0.133547,-0.27849 -0.04728,0.0372 -0.155413,-0.119571 -0.142168,-0.442357 0.117838,-0.102684 0.135489,-0.303541 0.215194,0.311286 0.337861,0.794107 0.394408,0.993937 -0.04302,-0.24375 -0.112495,-0.479984 -0.197475,-0.708475 0.0656,0.02764 -0.105446,-0.501412 0.08519,-0.15107 -0.204358,-0.746756 -0.870811,-1.444496 -1.484196,-1.771863 0.07503,0.06852 0.169877,0.154497 0.136006,0.168052 -0.305107,-0.18122 -0.251755,-0.195558 -0.295936,-0.272085 -0.248421,-0.100953 -0.264261,0.0083 -0.42932,2.5e-4 -0.468083,-0.248255 -0.558283,-0.221829 -0.989185,-0.377135 l 0.01961,0.09162 c -0.310277,-0.103286 -0.361546,0.03893 -0.696915,1.67e-4 -0.02034,-0.01576 0.107539,-0.0576 0.212826,-0.07278 -0.300024,0.0396 -0.286018,-0.0591 -0.579623,0.01084 0.07227,-0.0506 0.14897,-0.08428 0.22608,-0.127296 -0.244586,0.01484 -0.584208,0.142134 -0.479419,0.02626 -0.399058,0.177816 -1.107812,0.427405 -1.505536,0.799787 l -0.01246,-0.08345 c -0.182284,0.218328 -0.794836,0.652232 -0.843603,0.935416 l -0.04885,0.01125 c -0.09462,0.160311 -0.156139,0.341959 -0.231332,0.506768 -0.123963,0.211075 -0.181815,0.08128 -0.164142,0.114374 -0.24392,0.493759 -0.365297,0.908656 -0.469918,1.249028 0.07452,0.111288 0.0019,0.670154 0.03001,1.117313 -0.122384,2.208954 1.552803,4.353883 3.383955,4.848225 0.268347,0.0967 0.667405,0.09336 1.006942,0.102543 -0.400476,-0.114203 -0.452161,-0.06086 -0.842466,-0.196737 -0.281434,-0.132547 -0.343039,-0.283434 -0.542444,-0.455996 l 0.07894,0.139241 c -0.39097,-0.138382 -0.227412,-0.170894 -0.545608,-0.271762 l 0.08436,-0.109208 c -0.126133,-0.01002 -0.335037,-0.21341 -0.39239,-0.326784 l -0.138726,0.0054 C 14.34301,18.577129 14.254145,18.429575 14.260732,18.314534 l -0.04484,0.08002 c -0.05067,-0.08747 -0.61288,-0.770206 -0.321275,-0.610983 -0.05418,-0.04918 -0.126211,-0.08003 -0.204324,-0.221746 l 0.05934,-0.06763 c -0.140134,-0.180904 -0.258259,-0.411819 -0.249172,-0.488514 0.07486,0.100874 0.126711,0.119212 0.178231,0.136715 -0.354461,-0.877812 -0.374384,-0.04835 -0.642647,-0.893484 l 0.05665,-0.0045 c -0.04343,-0.0657 -0.0701,-0.136547 -0.104958,-0.206323 l 0.02476,-0.245753 c -0.255011,-0.294529 -0.0712,-1.25237 -0.03426,-1.777557 0.02526,-0.213575 0.212909,-0.441156 0.355128,-0.797784 l -0.08679,-0.01476 c 0.166058,-0.289103 0.948004,-1.161247 1.310299,-1.116481 0.175396,-0.219995 -0.03493,-8.33e-4 -0.06927,-0.0561 0.38547,-0.398141 0.50668,-0.281266 0.766772,-0.352959 0.28035,-0.166142 -0.240752,0.06494 -0.107872,-0.06336 0.485006,-0.123543 0.343622,-0.2811 0.97618,-0.343789 0.06678,0.03785 -0.154805,0.05852 -0.210408,0.107622 0.403894,-0.197403 1.278371,-0.152304 1.846658,0.109456 0.6589,0.307693 1.399165,1.2166 1.429175,2.071737 l 0.03327,0.0089 c -0.0168,0.339997 0.05213,0.733187 -0.06752,1.094224 l 0.08089,-0.171069 m -2.808415,-4.357104 c 0.09386,0.01633 0.202789,0.02897 0.187142,0.05093 0.103044,-0.02219 0.126211,-0.0422 -0.187142,-0.05093 m 1.95828,4.228755 c 0.02141,-0.309402 -0.06222,-0.211441 -0.09034,-0.09359 0.03271,0.01678 0.0587,0.218228 0.09034,0.09359 m -0.348457,0.885816 c 0.105034,-0.1413 0.181731,-0.295856 0.208407,-0.455663 -0.02418,0.113792 -0.0867,0.212075 -0.14672,0.31603 -0.328282,0.202238 -0.03083,-0.120047 0,-0.242669 -0.353125,0.434904 -0.04835,0.260759 -0.06169,0.382302 m -0.942919,0.229832 c -0.175729,0.0022 0.033,0.08829 0.26251,0.122872 0.06361,-0.04852 0.120791,-0.09729 0.172062,-0.144886 -0.142635,0.03417 -0.288021,0.03501 -0.434572,0.02201"
     id="path1" />
  <rect
     style="opacity:0.2;fill:#000000"
     width="4"
     height="9.5"
     x="6.000001"
     y="2"
     id="rect3554" />
  <path
     id="rect3558"
     style="fill:#ffffff"
     d="m 8.000001,2 v 1 h 1 V 2 Z m 0,1 h -1 v 1 h 1 z m 0,1 v 1 h 1 V 4 Z m 0,1 h -1 v 1 h 1 z m 0,1 v 1 h 1 V 6 Z m 0,1 h -1 v 1 h 1 z m 0,1 v 1 h 1 V 8 Z m 0,1 h -1 v 1 h 1 z" />
  <path
     style="fill:#4b4b4b"
     d="m 8.000001,9 c 1.5,0 1.5,2 2,2 v 2.5 c 0,0.277 -0.223,0.5 -0.5,0.5 h -3 c -0.277,0 -0.5,-0.223 -0.5,-0.5 V 11 c 0.5,0 0.5,-2 2,-2 z"
     id="path3560" />
  <path
     style="opacity:0.2;fill:#000000"
     d="m 8.000001,11.5 c -1.105,0 -2,0.9 -2,2 v 4 c 0,1.1 0.895,2 2,2 1.105,0 2,-0.9 2,-2 v -4 c 0,-1.1 -0.895,-2 -2,-2 z m 0,5 a 1,1 0 0 1 1,1 1,1 0 0 1 -1,1 1,1 0 0 1 -1,-1 1,1 0 0 1 1,-1 z"
     id="path3576" />
  <path
     style="fill:#ffffff"
     d="m 8.000001,11 c -1.105,0 -2,0.9 -2,2 v 4 c 0,1.1 0.895,2 2,2 1.105,0 2,-0.9 2,-2 v -4 c 0,-1.1 -0.895,-2 -2,-2 z m 0,5 a 1,1 0 0 1 1,1 1,1 0 0 1 -1,1 1,1 0 0 1 -1,-1 1,1 0 0 1 1,-1 z"
     id="path3578" />
  <path
     style="fill:#909090"
     d="m 7.992191,10.00006 a 0.50005,0.49772427 0 0 0 -0.49219,0.50448 v 1.9907 a 0.50005,0.49772427 0 1 0 1,0 v -1.9907 a 0.50005,0.49772427 0 0 0 -0.50781,-0.50448 z"
     id="path3580" />
  <path
     id="rect1816"
     style="opacity:0.2;fill:#ffffff;fill-opacity:1;stroke-width:1;stroke-linecap:square"
     d="m 4.0000005,2 c -1.1079989,0 -2,0.8920011 -2,2 v 0.4999999 c 0,-1.1079988 0.8920011,-1.9999999 2,-1.9999999 H 20 c 1.107999,0 2,0.8920011 2,1.9999999 V 4 C 22,2.8920011 21.107999,2 20,2 Z" />
</svg>
