<?xml version="1.0" encoding="UTF-8" standalone="no"?>
<!-- Created with Inkscape (http://www.inkscape.org/) -->

<svg
   width="24"
   height="24"
   viewBox="0 0 24 24.000001"
   version="1.1"
   id="svg5"
   inkscape:version="1.2.2 (1:1.2.2+202305151914+b0a8486541)"
   sodipodi:docname="application-vnd.oasis.opendocument.text.svg"
   xmlns:inkscape="http://www.inkscape.org/namespaces/inkscape"
   xmlns:sodipodi="http://sodipodi.sourceforge.net/DTD/sodipodi-0.dtd"
   xmlns="http://www.w3.org/2000/svg"
   xmlns:svg="http://www.w3.org/2000/svg">
  <sodipodi:namedview
     id="namedview7"
     pagecolor="#ffffff"
     bordercolor="#000000"
     borderopacity="0.25"
     inkscape:showpageshadow="2"
     inkscape:pageopacity="0.0"
     inkscape:pagecheckerboard="0"
     inkscape:deskcolor="#d1d1d1"
     inkscape:document-units="px"
     showgrid="false"
     inkscape:zoom="33.583333"
     inkscape:cx="12.029777"
     inkscape:cy="12"
     inkscape:window-width="1920"
     inkscape:window-height="1008"
     inkscape:window-x="0"
     inkscape:window-y="0"
     inkscape:window-maximized="1"
     inkscape:current-layer="svg5" />
  <defs
     id="defs2" />
  <path
     id="rect234"
     style="opacity:0.2;stroke-width:0.375;stroke-linecap:round;stroke-linejoin:round"
     d="M 5.5,2.5 H 14 l 6,6 V 21 c 0,0.831 -0.669,1.5 -1.5,1.5 H 5.5 C 4.669,22.5 4,21.831 4,21 V 4 C 4,3.169 4.669,2.5 5.5,2.5 Z" />
  <path
     id="rect448"
     style="fill:#1b83d4;fill-opacity:1;stroke-width:0.375;stroke-linecap:round;stroke-linejoin:round"
     d="M 5.5,2 H 14 L 16.25,5.75 20,8 V 20.5 C 20,21.331 19.331,22 18.5,22 H 5.5 C 4.669,22 4,21.331 4,20.5 V 3.5 C 4,2.669 4.669,2 5.5,2 Z" />
  <path
     d="m 6,11 v 0.5 h 5 V 11 Z m 0,2 v 0.499999 h 5 V 13 Z m 0,1.999999 v 0.5 h 5 v -0.5 z m 6,0 v 0.5 h 6 v -0.5 z m -6,2 v 0.5 h 12 v -0.5 z m 0,2 v 0.5 h 5 v -0.5 z"
     style="opacity:0.2;fill:#000000"
     id="path2126" />
  <path
     d="m 6,10 v 1 h 5 v -1 z m 0,2 v 1 h 5 v -1 z m 0,1.999999 v 1 h 5 v -1 z m 0,2 v 1 h 12 v -1 z m 0,2 v 1 h 5 v -1 z"
     style="fill:#ffffff"
     id="path2154" />
  <path
     d="m 12,10 v 4.999999 h 6 V 10 Z m 4.5,1 C 16.776142,11 17,11.223858 17,11.5 17,11.776143 16.776142,12 16.5,12 16.223858,12 16,11.776143 16,11.5 16,11.223858 16.223858,11 16.5,11 Z m -2.5,1 2,1.999999 h -3 z"
     style="fill:#7ad2f9"
     id="path2182" />
  <path
     d="M 20,8.5 H 15.5 C 14.669,8.5 14,7.831 14,7 V 2 l 6,6 z"
     style="opacity:0.2;fill:#000000;stroke-width:0.375;stroke-linecap:round;stroke-linejoin:round"
     id="path611"
     sodipodi:nodetypes="cssccc" />
  <path
     id="rect600"
     style="fill:#68b2ec;fill-opacity:1;stroke-width:0.375;stroke-linecap:round;stroke-linejoin:round"
     d="M 20,8 H 15.5 C 14.669,8 14,7.331 14,6.5 V 2 Z" />
  <path
     id="path1133"
     style="opacity:0.2;fill:#ffffff;fill-opacity:1;stroke-width:0.375;stroke-linecap:round;stroke-linejoin:round"
     d="M 5.5,2 C 4.6690025,2 4,2.6690025 4,3.5 V 4 C 4,3.1690025 4.6690025,2.5 5.5,2.5 H 14 L 19.5,8 H 20 L 14,2 Z" />
</svg>
