<?xml version="1.0" encoding="UTF-8" standalone="no"?>
<!-- Created with Inkscape (http://www.inkscape.org/) -->

<svg
   width="24"
   height="24"
   viewBox="0 0 24 24.000001"
   version="1.1"
   id="svg5"
   inkscape:version="1.3 (0e150ed6c4, 2023-07-21)"
   sodipodi:docname="application-x-alpm-package.svg"
   xmlns:inkscape="http://www.inkscape.org/namespaces/inkscape"
   xmlns:sodipodi="http://sodipodi.sourceforge.net/DTD/sodipodi-0.dtd"
   xmlns="http://www.w3.org/2000/svg"
   xmlns:svg="http://www.w3.org/2000/svg">
  <sodipodi:namedview
     id="namedview7"
     pagecolor="#ffffff"
     bordercolor="#000000"
     borderopacity="0.25"
     inkscape:showpageshadow="2"
     inkscape:pageopacity="0.0"
     inkscape:pagecheckerboard="0"
     inkscape:deskcolor="#d1d1d1"
     inkscape:document-units="px"
     showgrid="false"
     inkscape:zoom="33.458333"
     inkscape:cx="12"
     inkscape:cy="12"
     inkscape:window-width="1850"
     inkscape:window-height="1011"
     inkscape:window-x="70"
     inkscape:window-y="32"
     inkscape:window-maximized="1"
     inkscape:current-layer="svg5" />
  <defs
     id="defs2" />
  <rect
     style="opacity:0.2;fill:#000000;fill-opacity:1;stroke-width:1;stroke-linecap:square"
     id="rect1785"
     width="20"
     height="20"
     x="2"
     y="2.5"
     ry="2" />
  <rect
     style="opacity:1;fill:#2aa4e0;fill-opacity:1;stroke-width:1;stroke-linecap:square"
     id="rect1787"
     width="20"
     height="20"
     x="2.0000014"
     y="2"
     ry="2" />
  <path
     d="m 16.000301,12 c -0.356384,0.873085 -0.571351,1.444943 -0.967962,2.292066 0.243413,0.257704 0.541684,0.556333 1.026072,0.895271 -0.520962,-0.214391 -0.875716,-0.428089 -1.141482,-0.651464 -0.507546,1.058831 -1.303616,2.565622 -2.916929,5.464204 1.2679,-0.731838 2.35955,-1.182483 3.275501,-1.354772 -0.03941,-0.169045 -0.06136,-0.352716 -0.05973,-0.5437 l 0.0011,-0.03941 c 0.01991,-0.812298 0.334683,-1.544413 0.835325,-1.502152 0.500642,0.04225 0.752722,0.843455 0.732403,1.655748 -0.0037,0.15279 -0.02071,0.299482 -0.05079,0.435609 0.905785,0.177574 2.016251,0.626999 3.266229,1.348677 -0.246662,-0.453893 -0.467726,-0.862278 -0.677818,-1.251968 -0.331187,-0.256812 -0.675785,-0.590832 -1.380423,-0.952488 0.483981,0.12597 0.831829,0.270631 1.102063,0.433173 -2.13748,-3.979723 -2.310999,-4.508467 -3.043675,-6.228552 z"
     style="opacity:0.5;fill:#ffffff;stroke-width:0.800005"
     id="path7804" />
  <rect
     style="opacity:0.2;fill:#000000"
     width="4"
     height="9.5"
     x="6.000001"
     y="2"
     id="rect3554" />
  <path
     id="rect3558"
     style="fill:#ffffff"
     d="m 8.000001,2 v 1 h 1 V 2 Z m 0,1 h -1 v 1 h 1 z m 0,1 v 1 h 1 V 4 Z m 0,1 h -1 v 1 h 1 z m 0,1 v 1 h 1 V 6 Z m 0,1 h -1 v 1 h 1 z m 0,1 v 1 h 1 V 8 Z m 0,1 h -1 v 1 h 1 z" />
  <path
     style="fill:#4b4b4b"
     d="m 8.000001,9 c 1.5,0 1.5,2 2,2 v 2.5 c 0,0.277 -0.223,0.5 -0.5,0.5 h -3 c -0.277,0 -0.5,-0.223 -0.5,-0.5 V 11 c 0.5,0 0.5,-2 2,-2 z"
     id="path3560" />
  <path
     style="opacity:0.2;fill:#000000"
     d="m 8.000001,11.5 c -1.105,0 -2,0.9 -2,2 v 4 c 0,1.1 0.895,2 2,2 1.105,0 2,-0.9 2,-2 v -4 c 0,-1.1 -0.895,-2 -2,-2 z m 0,5 a 1,1 0 0 1 1,1 1,1 0 0 1 -1,1 1,1 0 0 1 -1,-1 1,1 0 0 1 1,-1 z"
     id="path3576" />
  <path
     style="fill:#ffffff"
     d="m 8.000001,11 c -1.105,0 -2,0.9 -2,2 v 4 c 0,1.1 0.895,2 2,2 1.105,0 2,-0.9 2,-2 v -4 c 0,-1.1 -0.895,-2 -2,-2 z m 0,5 a 1,1 0 0 1 1,1 1,1 0 0 1 -1,1 1,1 0 0 1 -1,-1 1,1 0 0 1 1,-1 z"
     id="path3578" />
  <path
     style="fill:#909090"
     d="m 7.992191,10.00006 a 0.50005,0.49772427 0 0 0 -0.49219,0.50448 v 1.9907 a 0.50005,0.49772427 0 1 0 1,0 v -1.9907 a 0.50005,0.49772427 0 0 0 -0.50781,-0.50448 z"
     id="path3580" />
  <path
     id="rect1816"
     style="opacity:0.2;fill:#ffffff;fill-opacity:1;stroke-width:1;stroke-linecap:square"
     d="m 4.0000005,2 c -1.1079989,0 -2,0.8920011 -2,2 v 0.4999999 c 0,-1.1079988 0.8920011,-1.9999999 2,-1.9999999 H 20 c 1.107999,0 2,0.8920011 2,1.9999999 V 4 C 22,2.8920011 21.107999,2 20,2 Z" />
</svg>
