<?xml version="1.0" encoding="UTF-8" standalone="no"?>
<!-- Created with Inkscape (http://www.inkscape.org/) -->

<svg
   width="24"
   height="24"
   viewBox="0 0 24 24"
   version="1.1"
   id="svg5"
   inkscape:version="1.3 (0e150ed6c4, 2023-07-21)"
   sodipodi:docname="image-x-svg+xml.svg"
   xmlns:inkscape="http://www.inkscape.org/namespaces/inkscape"
   xmlns:sodipodi="http://sodipodi.sourceforge.net/DTD/sodipodi-0.dtd"
   xmlns="http://www.w3.org/2000/svg"
   xmlns:svg="http://www.w3.org/2000/svg">
  <sodipodi:namedview
     id="namedview7"
     pagecolor="#ffffff"
     bordercolor="#000000"
     borderopacity="0.25"
     inkscape:showpageshadow="2"
     inkscape:pageopacity="0.0"
     inkscape:pagecheckerboard="0"
     inkscape:deskcolor="#d1d1d1"
     inkscape:document-units="px"
     showgrid="false"
     inkscape:zoom="32.625"
     inkscape:cx="12"
     inkscape:cy="12"
     inkscape:window-width="1920"
     inkscape:window-height="984"
     inkscape:window-x="0"
     inkscape:window-y="29"
     inkscape:window-maximized="1"
     inkscape:current-layer="svg5"
     showguides="false" />
  <defs
     id="defs2" />
  <rect
     style="opacity:0.2;fill:#000000;stroke-width:0.375;stroke-linecap:round;stroke-linejoin:round"
     id="rect344"
     width="20"
     height="17"
     x="2"
     y="4.5"
     ry="2" />
  <rect
     style="fill:#e0e0e0;fill-opacity:1;stroke-width:0.375;stroke-linecap:round;stroke-linejoin:round"
     id="rect234"
     width="20"
     height="17"
     x="2"
     y="4"
     ry="2" />
  <path
     style="fill:#363636"
     d="m 12,8.8 a 6,6 0 0 0 -6,6 6,6 0 0 0 0.021485,0.5 H 7.025391 A 5,5 0 0 1 7,14.8 a 5,5 0 0 1 4.990235,-5 5,5 0 0 1 0.0098,0 5,5 0 0 1 5,5 5,5 0 0 1 -0.02539,0.5 h 1.003906 A 6,6 0 0 0 18,14.8 6,6 0 0 0 12,8.8 Z"
     id="path2" />
  <path
     style="opacity:0.1;fill:#000000"
     d="m 6,9 a 1,1 0 0 0 -1,1 1,1 0 0 0 1,1 1,1 0 0 0 0.8652344,-0.5 H 17.134766 A 1,1 0 0 0 18,11 1,1 0 0 0 19,10 1,1 0 0 0 18,9 1,1 0 0 0 17.134766,9.5 H 6.8652344 A 1,1 0 0 0 6,9 Z"
     id="path3" />
  <rect
     style="fill:#ff4b4b"
     width="12"
     height="1"
     x="6"
     y="9"
     id="rect3" />
  <path
     style="opacity:0.1;fill:#000000"
     d="m 11,8.5 c -0.277,0 -0.5,0.223 -0.5,0.5 v 2 c 0,0.277 0.223,0.5 0.5,0.5 h 2 c 0.277,0 0.5,-0.223 0.5,-0.5 V 9 C 13.5,8.723 13.277,8.5 13,8.5 Z m -5.5,6 C 5.223,14.5 5,14.723 5,15 v 2 c 0,0.277 0.223,0.5 0.5,0.5 h 2 C 7.777,17.5 8,17.277 8,17 V 15 C 8,14.723 7.777,14.5 7.5,14.5 Z m 11,0 C 16.223,14.5 16,14.723 16,15 v 2 c 0,0.277 0.223,0.5 0.5,0.5 h 2 c 0.277,0 0.5,-0.223 0.5,-0.5 v -2 c 0,-0.277 -0.223,-0.5 -0.5,-0.5 z"
     id="path4" />
  <rect
     style="fill:#3974e1"
     width="3"
     height="3"
     x="5"
     y="14"
     ry="0.5"
     id="rect4" />
  <rect
     style="fill:#3974e1"
     width="3"
     height="3"
     x="16"
     y="14"
     ry="0.5"
     id="rect5" />
  <circle
     style="fill:#ff4b4b"
     cx="18"
     cy="9.5"
     r="1"
     id="circle5" />
  <rect
     style="fill:#3974e1"
     width="3"
     height="3"
     x="10.5"
     y="8"
     ry="0.5"
     id="rect6" />
  <circle
     style="fill:#ff4b4b"
     cx="6"
     cy="9.5"
     r="1"
     id="circle6" />
  <path
     d="M 4,4 C 2.8920011,4 2,4.892001 2,6 v 0.5 c 0,-1.107999 0.8920011,-2 2,-2 h 16 c 1.107999,0 2,0.892001 2,2 V 6 C 22,4.892001 21.107999,4 20,4 Z"
     style="opacity:0.2;fill:#ffffff;stroke-width:1;stroke-linecap:square"
     id="path506" />
</svg>
