<?xml version="1.0" encoding="UTF-8" standalone="no"?>
<!-- Created with Inkscape (http://www.inkscape.org/) -->

<svg
   width="24"
   height="24"
   viewBox="0 0 24 24.000001"
   version="1.1"
   id="svg5"
   inkscape:version="1.3 (0e150ed6c4, 2023-07-21)"
   sodipodi:docname="text-r.svg"
   xmlns:inkscape="http://www.inkscape.org/namespaces/inkscape"
   xmlns:sodipodi="http://sodipodi.sourceforge.net/DTD/sodipodi-0.dtd"
   xmlns="http://www.w3.org/2000/svg"
   xmlns:svg="http://www.w3.org/2000/svg">
  <sodipodi:namedview
     id="namedview7"
     pagecolor="#ffffff"
     bordercolor="#000000"
     borderopacity="0.25"
     inkscape:showpageshadow="2"
     inkscape:pageopacity="0.0"
     inkscape:pagecheckerboard="0"
     inkscape:deskcolor="#d1d1d1"
     inkscape:document-units="px"
     showgrid="false"
     inkscape:zoom="32.625"
     inkscape:cx="11.984674"
     inkscape:cy="12"
     inkscape:window-width="1920"
     inkscape:window-height="984"
     inkscape:window-x="0"
     inkscape:window-y="29"
     inkscape:window-maximized="1"
     inkscape:current-layer="svg5" />
  <defs
     id="defs2" />
  <path
     id="rect234"
     style="opacity:0.2;stroke-width:0.375;stroke-linecap:round;stroke-linejoin:round"
     d="M 5.5,2.5 H 14 l 6,6 V 21 c 0,0.831 -0.669,1.5 -1.5,1.5 H 5.5 C 4.669,22.5 4,21.831 4,21 V 4 C 4,3.169 4.669,2.5 5.5,2.5 Z" />
  <path
     id="rect448"
     style="fill:#e0e0e0;fill-opacity:1;stroke-width:0.375;stroke-linecap:round;stroke-linejoin:round"
     d="M 5.5,2 H 14 L 16.25,5.75 20,8 V 20.5 C 20,21.331 19.331,22 18.5,22 H 5.5 C 4.669,22 4,21.331 4,20.5 V 3.5 C 4,2.669 4.669,2 5.5,2 Z" />
  <path
     style="fill:#1e62b2;fill-rule:evenodd"
     d="m 14.499932,16.0001 c 0,0 0.27653,-0.008 0.5523,0.1328 0.0957,0.0485 0.26127,0.1466 0.380705,0.27475 0.11699,0.12555 0.17403,0.2528 0.17403,0.2528 l 1.893,3.3395 h -3.5 c -0.586,-1.1215 -1.084,-2.333 -1.831,-3.3315 -0.1485,-0.1215 -0.272,-0.1685 -0.419,-0.1685 h -0.7502 L 11.0002,19.998 H 8 V 10 h 5.413 c 0.5868,0 3.0868,0.5 3.17355,3 -0.08679,2.5 -2.0868,3 -2.0868,3 z m -3.4998,-4.00065 v 2.50065 h 1.9998 c 0,0 0.5,0 0.5,-1.3476 0,-1.1524 -0.5,-1.15175 -0.5,-1.15175 z"
     id="path6" />
  <path
     d="M 20,8.5 H 15.5 C 14.669,8.5 14,7.831 14,7 V 2 l 6,6 z"
     style="opacity:0.2;fill:#000000;stroke-width:0.375;stroke-linecap:round;stroke-linejoin:round"
     id="path611"
     sodipodi:nodetypes="cssccc" />
  <path
     id="rect600"
     style="fill:#f5f5f5;fill-opacity:1;stroke-width:0.375;stroke-linecap:round;stroke-linejoin:round"
     d="M 20,8 H 15.5 C 14.669,8 14,7.331 14,6.5 V 2 Z" />
  <path
     id="path1133"
     style="opacity:0.2;fill:#ffffff;fill-opacity:1;stroke-width:0.375;stroke-linecap:round;stroke-linejoin:round"
     d="M 5.5,2 C 4.6690025,2 4,2.6690025 4,3.5 V 4 C 4,3.1690025 4.6690025,2.5 5.5,2.5 H 14 L 19.5,8 H 20 L 14,2 Z" />
</svg>
