<?xml version="1.0" encoding="UTF-8" standalone="no"?>
<!-- Created with Inkscape (http://www.inkscape.org/) -->

<svg
   width="24"
   height="24"
   viewBox="0 0 24 24.000001"
   version="1.1"
   id="svg5"
   inkscape:version="1.3 (0e150ed6c4, 2023-07-21)"
   sodipodi:docname="text-x-lua.svg"
   xmlns:inkscape="http://www.inkscape.org/namespaces/inkscape"
   xmlns:sodipodi="http://sodipodi.sourceforge.net/DTD/sodipodi-0.dtd"
   xmlns="http://www.w3.org/2000/svg"
   xmlns:svg="http://www.w3.org/2000/svg">
  <sodipodi:namedview
     id="namedview7"
     pagecolor="#ffffff"
     bordercolor="#000000"
     borderopacity="0.25"
     inkscape:showpageshadow="2"
     inkscape:pageopacity="0.0"
     inkscape:pagecheckerboard="0"
     inkscape:deskcolor="#d1d1d1"
     inkscape:document-units="px"
     showgrid="false"
     inkscape:zoom="32.625"
     inkscape:cx="11.984674"
     inkscape:cy="12"
     inkscape:window-width="1920"
     inkscape:window-height="984"
     inkscape:window-x="0"
     inkscape:window-y="29"
     inkscape:window-maximized="1"
     inkscape:current-layer="svg5" />
  <defs
     id="defs2" />
  <path
     id="rect234"
     style="opacity:0.2;stroke-width:0.375;stroke-linecap:round;stroke-linejoin:round"
     d="M 5.5,2.5 H 14 l 6,6 V 21 c 0,0.831 -0.669,1.5 -1.5,1.5 H 5.5 C 4.669,22.5 4,21.831 4,21 V 4 C 4,3.169 4.669,2.5 5.5,2.5 Z" />
  <path
     id="rect448"
     style="fill:#e0e0e0;fill-opacity:1;stroke-width:0.375;stroke-linecap:round;stroke-linejoin:round"
     d="M 5.5,2 H 14 L 16.25,5.75 20,8 V 20.5 C 20,21.331 19.331,22 18.5,22 H 5.5 C 4.669,22 4,21.331 4,20.5 V 3.5 C 4,2.669 4.669,2 5.5,2 Z" />
  <path
     d="M 15.5,11 C 14.671573,11 14,11.671573 14,12.5 14,13.328427 14.671573,14 15.5,14 16.328427,14 17,13.328427 17,12.5 17,11.671573 16.328427,11 15.5,11 Z m -4,2 C 9.567003,13 8,14.567003 8,16.5 8,18.432997 9.567003,20 11.5,20 13.432997,20 15,18.432997 15,16.5 15,14.567003 13.432997,13 11.5,13 Z m 1,1 C 13.328427,14 14,14.671573 14,15.5 14,16.328427 13.328427,17 12.5,17 11.671573,17 11,16.328427 11,15.5 11,14.671573 11.671573,14 12.5,14 Z"
     style="fill:#31519b;fill-opacity:1"
     id="path1" />
  <path
     d="M 20,8.5 H 15.5 C 14.669,8.5 14,7.831 14,7 V 2 l 6,6 z"
     style="opacity:0.2;fill:#000000;stroke-width:0.375;stroke-linecap:round;stroke-linejoin:round"
     id="path611"
     sodipodi:nodetypes="cssccc" />
  <path
     id="rect600"
     style="fill:#f5f5f5;fill-opacity:1;stroke-width:0.375;stroke-linecap:round;stroke-linejoin:round"
     d="M 20,8 H 15.5 C 14.669,8 14,7.331 14,6.5 V 2 Z" />
  <path
     id="path1133"
     style="opacity:0.2;fill:#ffffff;fill-opacity:1;stroke-width:0.375;stroke-linecap:round;stroke-linejoin:round"
     d="M 5.5,2 C 4.6690025,2 4,2.6690025 4,3.5 V 4 C 4,3.1690025 4.6690025,2.5 5.5,2.5 H 14 L 19.5,8 H 20 L 14,2 Z" />
</svg>
