<?xml version="1.0" encoding="UTF-8" standalone="no"?>
<!-- Created with Inkscape (http://www.inkscape.org/) -->

<svg
   width="24"
   height="24"
   viewBox="0 0 24 24.000001"
   version="1.1"
   id="svg5"
   inkscape:version="1.3.2 (091e20ef0f, 2023-11-25, custom)"
   sodipodi:docname="text-x-ruby.svg"
   xmlns:inkscape="http://www.inkscape.org/namespaces/inkscape"
   xmlns:sodipodi="http://sodipodi.sourceforge.net/DTD/sodipodi-0.dtd"
   xmlns="http://www.w3.org/2000/svg"
   xmlns:svg="http://www.w3.org/2000/svg">
  <sodipodi:namedview
     id="namedview7"
     pagecolor="#ffffff"
     bordercolor="#000000"
     borderopacity="0.25"
     inkscape:showpageshadow="2"
     inkscape:pageopacity="0.0"
     inkscape:pagecheckerboard="0"
     inkscape:deskcolor="#d1d1d1"
     inkscape:document-units="px"
     showgrid="false"
     inkscape:zoom="33.125"
     inkscape:cx="11.984906"
     inkscape:cy="12"
     inkscape:window-width="1920"
     inkscape:window-height="1008"
     inkscape:window-x="0"
     inkscape:window-y="0"
     inkscape:window-maximized="1"
     inkscape:current-layer="svg5" />
  <defs
     id="defs2" />
  <path
     id="rect234"
     style="opacity:0.2;stroke-width:0.375;stroke-linecap:round;stroke-linejoin:round"
     d="M 5.5,2.5 H 14 l 6,6 V 21 c 0,0.831 -0.669,1.5 -1.5,1.5 H 5.5 C 4.669,22.5 4,21.831 4,21 V 4 C 4,3.169 4.669,2.5 5.5,2.5 Z" />
  <path
     id="rect448"
     style="fill:#e0e0e0;fill-opacity:1;stroke-width:0.375;stroke-linecap:round;stroke-linejoin:round"
     d="M 5.5,2 H 14 L 16.25,5.75 20,8 V 20.5 C 20,21.331 19.331,22 18.5,22 H 5.5 C 4.669,22 4,21.331 4,20.5 V 3.5 C 4,2.669 4.669,2 5.5,2 Z" />
  <path
     d="m 11.5,11.500005 c -0.1326,2.5e-5 -0.25976,0.05272 -0.35352,0.146484 l -4,4 C 7.05268,15.740249 7.00003,15.867405 7,16.000005 v 4 c 3e-5,0.276131 0.22387,0.499972 0.5,0.5 h 8 c 0.0137,-0.01229 0.0268,-0.02533 0.0391,-0.03906 0.2183,-0.03214 0.38973,-0.203572 0.42187,-0.421875 0.0137,-0.01229 0.0268,-0.02533 0.0391,-0.03907 v -8 c -3e-5,-0.276131 -0.22387,-0.499972 -0.5,-0.5 z m 0.5,1 h 2.29297 L 12.64648,14.146489 12,14.792974 Z m -1,0.707031 v 2.292969 H 8.70703 Z m 4,0 v 4.484375 L 13.59766,14.60938 Z m -2.15625,2.15625 1.64844,3.628906 -3.62891,-1.648437 z M 8,16.500005 h 2.29297 L 9.64648,17.146489 8,18.792974 Z m 2.10937,1.597656 3.08204,1.402344 H 8.70703 Z"
     style="opacity:0.2;fill:#000000;stroke:none;stroke-linejoin:round;-inkscape-stroke:none"
     id="path1" />
  <path
     d="m 11.5,11.000005 c -0.1326,2.5e-5 -0.25976,0.05272 -0.35352,0.146484 l -4,4 C 7.05268,15.240249 7.00003,15.367405 7,15.500005 v 4 c 3e-5,0.276131 0.22387,0.499972 0.5,0.5 h 8 c 0.0137,-0.01229 0.0268,-0.02533 0.0391,-0.03906 0.2183,-0.03214 0.38973,-0.203572 0.42187,-0.421875 0.0137,-0.01229 0.0268,-0.02533 0.0391,-0.03907 v -8 c -3e-5,-0.276131 -0.22387,-0.499972 -0.5,-0.5 z m 0.5,1 h 2.29297 L 12.64648,13.646489 12,14.292974 Z m -1,0.707031 v 2.292969 H 8.70703 Z m 4,0 v 4.484375 L 13.59766,14.10938 Z m -2.15625,2.15625 1.64844,3.628906 -3.62891,-1.648437 z M 8,16.000005 h 2.29297 L 9.64648,16.646489 8,18.292974 Z m 2.10937,1.597656 3.08204,1.402344 H 8.70703 Z"
     style="fill:#f44336;fill-opacity:1;stroke:none;stroke-linejoin:round;-inkscape-stroke:none"
     id="path2" />
  <path
     d="M 20,8.5 H 15.5 C 14.669,8.5 14,7.831 14,7 V 2 l 6,6 z"
     style="opacity:0.2;fill:#000000;stroke-width:0.375;stroke-linecap:round;stroke-linejoin:round"
     id="path611"
     sodipodi:nodetypes="cssccc" />
  <path
     id="rect600"
     style="fill:#f5f5f5;fill-opacity:1;stroke-width:0.375;stroke-linecap:round;stroke-linejoin:round"
     d="M 20,8 H 15.5 C 14.669,8 14,7.331 14,6.5 V 2 Z" />
  <path
     id="path1133"
     style="opacity:0.2;fill:#ffffff;fill-opacity:1;stroke-width:0.375;stroke-linecap:round;stroke-linejoin:round"
     d="M 5.5,2 C 4.6690025,2 4,2.6690025 4,3.5 V 4 C 4,3.1690025 4.6690025,2.5 5.5,2.5 H 14 L 19.5,8 H 20 L 14,2 Z" />
</svg>
