<?xml version="1.0" encoding="UTF-8" standalone="no"?>
<!-- Created with Inkscape (http://www.inkscape.org/) -->

<svg
   width="24"
   height="24"
   viewBox="0 0 24 24.000001"
   version="1.1"
   id="svg5"
   inkscape:version="1.3 (0e150ed6c4, 2023-07-21)"
   sodipodi:docname="text-x-qml.svg"
   xmlns:inkscape="http://www.inkscape.org/namespaces/inkscape"
   xmlns:sodipodi="http://sodipodi.sourceforge.net/DTD/sodipodi-0.dtd"
   xmlns="http://www.w3.org/2000/svg"
   xmlns:svg="http://www.w3.org/2000/svg">
  <sodipodi:namedview
     id="namedview7"
     pagecolor="#ffffff"
     bordercolor="#000000"
     borderopacity="0.25"
     inkscape:showpageshadow="2"
     inkscape:pageopacity="0.0"
     inkscape:pagecheckerboard="0"
     inkscape:deskcolor="#d1d1d1"
     inkscape:document-units="px"
     showgrid="false"
     inkscape:zoom="32.625"
     inkscape:cx="12"
     inkscape:cy="12"
     inkscape:window-width="1920"
     inkscape:window-height="984"
     inkscape:window-x="0"
     inkscape:window-y="29"
     inkscape:window-maximized="1"
     inkscape:current-layer="svg5"
     showguides="false" />
  <defs
     id="defs2" />
  <path
     id="rect234"
     style="opacity:0.2;stroke-width:0.375;stroke-linecap:round;stroke-linejoin:round"
     d="M 5.5,2.5 H 14 l 6,6 V 21 c 0,0.831 -0.669,1.5 -1.5,1.5 H 5.5 C 4.669,22.5 4,21.831 4,21 V 4 C 4,3.169 4.669,2.5 5.5,2.5 Z" />
  <path
     id="rect448"
     style="fill:#6fc055;fill-opacity:1;stroke-width:0.375;stroke-linecap:round;stroke-linejoin:round"
     d="M 5.5,2 H 14 L 16.25,5.75 20,8 V 20.5 C 20,21.331 19.331,22 18.5,22 H 5.5 C 4.669,22 4,21.331 4,20.5 V 3.5 C 4,2.669 4.669,2 5.5,2 Z" />
  <path
     d="m 8,11.5 c -0.5539988,0 -1,0.446001 -1,1.000001 v 6 c 0,0.553998 0.4460012,1 1,1 h 8 c 0.553998,0 1,-0.446002 1,-1 v -6 C 17,11.946001 16.553998,11.5 16,11.5 Z m 0,2.000001 h 2 v 5 H 8 Z m 3,0 h 5 v 5 h -5 z"
     style="fill:#000000;stroke-linecap:round;stroke-linejoin:round;paint-order:stroke fill markers;opacity:0.2"
     id="path1" />
  <path
     d="m 8,11 c -0.5539988,0 -1,0.446001 -1,1.000001 v 6 c 0,0.553998 0.4460012,1 1,1 h 8 c 0.553998,0 1,-0.446002 1,-1 v -6 C 17,11.446001 16.553998,11 16,11 Z m 0,2.000001 h 2 v 5 H 8 Z m 3,0 h 5 v 5 h -5 z"
     style="fill:#ffffff;stroke-linecap:round;stroke-linejoin:round;paint-order:stroke fill markers"
     id="path2" />
  <path
     d="M 20,8.5 H 15.5 C 14.669,8.5 14,7.831 14,7 V 2 l 6,6 z"
     style="opacity:0.2;fill:#000000;stroke-width:0.375;stroke-linecap:round;stroke-linejoin:round"
     id="path611"
     sodipodi:nodetypes="cssccc" />
  <path
     id="rect600"
     style="fill:#b0dca0;fill-opacity:1;stroke-width:0.375;stroke-linecap:round;stroke-linejoin:round"
     d="M 20,8 H 15.5 C 14.669,8 14,7.331 14,6.5 V 2 Z" />
  <path
     id="path1133"
     style="opacity:0.2;fill:#ffffff;fill-opacity:1;stroke-width:0.375;stroke-linecap:round;stroke-linejoin:round"
     d="M 5.5,2 C 4.6690025,2 4,2.6690025 4,3.5 V 4 C 4,3.1690025 4.6690025,2.5 5.5,2.5 H 14 L 19.5,8 H 20 L 14,2 Z" />
</svg>
