<?xml version="1.0" encoding="UTF-8" standalone="no"?>
<!-- Created with Inkscape (http://www.inkscape.org/) -->

<svg
   width="24"
   height="24"
   viewBox="0 0 24 24"
   version="1.1"
   id="svg5"
   inkscape:version="1.3 (0e150ed6c4, 2023-07-21)"
   sodipodi:docname="x-content-blank-cd.svg"
   xmlns:inkscape="http://www.inkscape.org/namespaces/inkscape"
   xmlns:sodipodi="http://sodipodi.sourceforge.net/DTD/sodipodi-0.dtd"
   xmlns="http://www.w3.org/2000/svg"
   xmlns:svg="http://www.w3.org/2000/svg">
  <sodipodi:namedview
     id="namedview7"
     pagecolor="#ffffff"
     bordercolor="#000000"
     borderopacity="0.25"
     inkscape:showpageshadow="2"
     inkscape:pageopacity="0.0"
     inkscape:pagecheckerboard="0"
     inkscape:deskcolor="#d1d1d1"
     inkscape:document-units="px"
     showgrid="false"
     inkscape:zoom="33.458333"
     inkscape:cx="12"
     inkscape:cy="12"
     inkscape:window-width="1850"
     inkscape:window-height="1011"
     inkscape:window-x="70"
     inkscape:window-y="32"
     inkscape:window-maximized="1"
     inkscape:current-layer="svg5"
     showguides="true" />
  <defs
     id="defs2">
    <inkscape:perspective
       sodipodi:type="inkscape:persp3d"
       inkscape:vp_x="0 : 13 : 1"
       inkscape:vp_y="0 : 1000 : 0"
       inkscape:vp_z="22 : 13 : 1"
       inkscape:persp3d-origin="11 : 9.333333 : 1"
       id="perspective1743" />
  </defs>
  <path
     d="m 12,2.5 c -5.522848,0 -10,4.477152 -10,10 0,5.522847 4.477152,10 10,10 5.522847,0 10,-4.477153 10,-10 0,-5.522848 -4.477153,-10 -10,-10 z m 0,6 c 2.209139,0 4,1.790862 4,4 0,2.209139 -1.790861,4 -4,4 -2.2091385,0 -4,-1.790861 -4,-4 0,-2.209138 1.7908615,-4 4,-4 z"
     style="opacity:0.2;fill:#000000;stroke-width:1"
     id="path429" />
  <path
     d="m 12,7 c -2.761424,0 -5,2.238576 -5,5 0,2.761424 2.238576,5 5,5 2.761424,0 5,-2.238576 5,-5 0,-2.761424 -2.238576,-5 -5,-5 z m 0,3 c 1.104569,0 2,0.89543 2,2 0,1.104569 -0.895431,2 -2,2 -1.104569,0 -2,-0.895431 -2,-2 0,-1.10457 0.895431,-2 2,-2 z"
     style="fill:#848484;stroke-width:1"
     id="path386" />
  <path
     d="M 12,2 C 6.477153,2 2,6.477152 2,12 2,17.522847 6.477153,22 12,22 17.522847,22 22,17.522847 22,12 22,6.477152 17.522847,2 12,2 Z m 0,6 c 2.209139,0 4,1.7908615 4,4 0,2.209139 -1.790861,4 -4,4 C 9.7908615,16 8,14.209139 8,12 8,9.7908615 9.7908615,8 12,8 Z"
     style="fill:#e4e4e4;stroke-width:1"
     id="path358" />
  <path
     d="M 12,2 C 6.477153,2 2,6.477152 2,12 c 0.0025,0.06902 0.00583,0.138036 0.00985,0.207 0.1584135,-5.4042945 4.583586,-9.704023 9.9902,-9.707 5.43912,0.0043 9.877412,4.355044 9.99,9.793 C 21.99485,12.195392 21.99819,12.09771 22,12 22,6.477152 17.522847,2 12,2 Z"
     style="opacity:0.2;fill:#ffffff;stroke-width:1"
     id="path457" />
</svg>
