<?xml version="1.0" encoding="UTF-8" standalone="no"?>
<!-- Created with Inkscape (http://www.inkscape.org/) -->

<svg
   width="24"
   height="24"
   viewBox="0 0 24 24.000001"
   version="1.1"
   id="svg5"
   inkscape:version="1.2.2 (1:1.2.2+202305151914+b0a8486541)"
   sodipodi:docname="x-office-spreadsheet.svg"
   xmlns:inkscape="http://www.inkscape.org/namespaces/inkscape"
   xmlns:sodipodi="http://sodipodi.sourceforge.net/DTD/sodipodi-0.dtd"
   xmlns="http://www.w3.org/2000/svg"
   xmlns:svg="http://www.w3.org/2000/svg">
  <sodipodi:namedview
     id="namedview7"
     pagecolor="#ffffff"
     bordercolor="#000000"
     borderopacity="0.25"
     inkscape:showpageshadow="2"
     inkscape:pageopacity="0.0"
     inkscape:pagecheckerboard="0"
     inkscape:deskcolor="#d1d1d1"
     inkscape:document-units="px"
     showgrid="false"
     inkscape:zoom="33.583333"
     inkscape:cx="12"
     inkscape:cy="12"
     inkscape:window-width="1920"
     inkscape:window-height="1008"
     inkscape:window-x="0"
     inkscape:window-y="0"
     inkscape:window-maximized="1"
     inkscape:current-layer="svg5" />
  <defs
     id="defs2" />
  <path
     id="rect234"
     style="opacity:0.2;stroke-width:0.375;stroke-linecap:round;stroke-linejoin:round"
     d="M 5.5,2.5 H 14 l 6,6 V 21 c 0,0.831 -0.669,1.5 -1.5,1.5 H 5.5 C 4.669,22.5 4,21.831 4,21 V 4 C 4,3.169 4.669,2.5 5.5,2.5 Z" />
  <path
     id="rect448"
     style="fill:#e0e0e0;fill-opacity:1;stroke-width:0.375;stroke-linecap:round;stroke-linejoin:round"
     d="M 5.5,2 H 14 L 16.25,5.75 20,8 V 20.5 C 20,21.331 19.331,22 18.5,22 H 5.5 C 4.669,22 4,21.331 4,20.5 V 3.5 C 4,2.669 4.669,2 5.5,2 Z" />
  <path
     d="m 7,11.5 v 7.000005 H 17 V 11.5 Z m 1,1 h 2 v 1.000005 H 8 Z m 3,0 h 2 v 1.000005 h -2 z m 3,0 h 2 v 1.000005 h -2 z m -6,2.000005 h 2 v 1 H 8 Z m 3,0 h 2 v 1 h -2 z m 3,0 h 2 v 1 h -2 z m -6,2 h 2 v 1 H 8 Z m 3,0 h 2 v 1 h -2 z m 3,0 h 2 v 1 h -2 z"
     style="opacity:0.2;fill:#000000;fill-opacity:1;stroke-width:0.5"
     id="path3443" />
  <path
     d="m 7,14 v 4 h 10 v -4 h -1 v 1 h -2 v -1 h -1 v 1 h -2 v -1 h -1 v 1 H 8 v -1 z m 1,2 h 2 v 1 H 8 Z m 3,0 h 2 v 1 h -2 z m 3,0 h 2 v 1 h -2 z"
     style="fill:#757575;fill-opacity:1;stroke-width:0.5"
     id="path3075"
     sodipodi:nodetypes="cccccccccccccccccccccccccccccccc" />
  <path
     d="m 7.25,11.25 h 9.5 v 2.5 h -9.5 z"
     style="fill:#9ccc65;stroke-width:1;stroke-linecap:square"
     id="path3359"
     sodipodi:nodetypes="ccccc" />
  <path
     d="m 7,11 v 3 h 10 v -3 z m 1,1 h 2 v 1 H 8 Z m 3,0 h 2 v 1 h -2 z m 3,0 h 2 v 1 h -2 z"
     style="fill:#4aae4c;fill-opacity:1;stroke-width:0.5"
     id="path3124"
     sodipodi:nodetypes="cccccccccccccccccccc" />
  <path
     d="M 20,8.5 H 15.5 C 14.669,8.5 14,7.831 14,7 V 2 l 6,6 z"
     style="opacity:0.2;fill:#000000;stroke-width:0.375;stroke-linecap:round;stroke-linejoin:round"
     id="path611"
     sodipodi:nodetypes="cssccc" />
  <path
     id="rect600"
     style="fill:#f5f5f5;fill-opacity:1;stroke-width:0.375;stroke-linecap:round;stroke-linejoin:round"
     d="M 20,8 H 15.5 C 14.669,8 14,7.331 14,6.5 V 2 Z" />
  <path
     id="path1133"
     style="opacity:0.2;fill:#ffffff;fill-opacity:1;stroke-width:0.375;stroke-linecap:round;stroke-linejoin:round"
     d="M 5.5,2 C 4.6690025,2 4,2.6690025 4,3.5 V 4 C 4,3.1690025 4.6690025,2.5 5.5,2.5 H 14 L 19.5,8 H 20 L 14,2 Z" />
</svg>
