<?xml version="1.0" encoding="UTF-8" standalone="no"?>
<svg
   width="128"
   height="128"
   version="1"
   id="svg6"
   sodipodi:docname="battery.svg"
   inkscape:version="1.3 (0e150ed6c4, 2023-07-21)"
   xmlns:inkscape="http://www.inkscape.org/namespaces/inkscape"
   xmlns:sodipodi="http://sodipodi.sourceforge.net/DTD/sodipodi-0.dtd"
   xmlns="http://www.w3.org/2000/svg"
   xmlns:svg="http://www.w3.org/2000/svg">
  <defs
     id="defs6" />
  <sodipodi:namedview
     id="namedview6"
     pagecolor="#ffffff"
     bordercolor="#000000"
     borderopacity="0.25"
     inkscape:showpageshadow="2"
     inkscape:pageopacity="0.0"
     inkscape:pagecheckerboard="0"
     inkscape:deskcolor="#d1d1d1"
     inkscape:zoom="6.1171875"
     inkscape:cx="64"
     inkscape:cy="64"
     inkscape:window-width="1920"
     inkscape:window-height="984"
     inkscape:window-x="0"
     inkscape:window-y="29"
     inkscape:window-maximized="1"
     inkscape:current-layer="svg6" />
  <rect
     style="opacity:0.2;fill:#000000;fill-opacity:1;stroke-width:4"
     id="rect6"
     width="88"
     height="100"
     x="20"
     y="21"
     ry="4" />
  <rect
     style="opacity:1;fill:#4f4f4f;fill-opacity:1;stroke-width:4"
     id="rect7"
     width="88"
     height="100"
     x="20"
     y="20"
     ry="4" />
  <rect
     style="fill:#8e8e8e;stroke-width:4"
     width="56"
     height="12"
     x="36"
     y="8"
     id="rect2" />
  <path
     style="opacity:0.2;fill:#000000;stroke-width:4"
     d="M 32,33 V 53 H 96 V 33 Z m 0,28 V 81 H 96 V 61 Z m 0,28 v 20 H 96 V 89 Z"
     id="path3" />
  <path
     style="fill:#c0f957;stroke-width:4"
     d="M 32,32 V 52 H 96 V 32 Z m 0,28 V 80 H 96 V 60 Z m 0,28 v 20 H 96 V 88 Z"
     id="path4" />
  <path
     style="opacity:0.2;fill:#ffffff;stroke-width:1.99999"
     d="M 36,8 V 9 H 92 V 8 Z"
     id="path5" />
  <path
     id="path6"
     style="opacity:0.2;fill:#ffffff;stroke-width:4"
     d="m 32,32 v 1 h 64 v -1 z m 0,28 v 1 h 64 v -1 z m 0,28 v 1 h 64 v -1 z" />
</svg>
