<?xml version="1.0" encoding="UTF-8" standalone="no"?>
<svg
   width="128"
   height="128"
   version="1"
   id="svg3"
   sodipodi:docname="drive-harddisk-ieee1394.svg"
   inkscape:version="1.3.2 (091e20ef0f, 2023-11-25, custom)"
   xmlns:inkscape="http://www.inkscape.org/namespaces/inkscape"
   xmlns:sodipodi="http://sodipodi.sourceforge.net/DTD/sodipodi-0.dtd"
   xmlns="http://www.w3.org/2000/svg"
   xmlns:svg="http://www.w3.org/2000/svg">
  <defs
     id="defs3" />
  <sodipodi:namedview
     id="namedview3"
     pagecolor="#ffffff"
     bordercolor="#000000"
     borderopacity="0.25"
     inkscape:showpageshadow="2"
     inkscape:pageopacity="0.0"
     inkscape:pagecheckerboard="0"
     inkscape:deskcolor="#d1d1d1"
     inkscape:zoom="5.6875"
     inkscape:cx="63.912088"
     inkscape:cy="64"
     inkscape:window-width="1920"
     inkscape:window-height="942"
     inkscape:window-x="0"
     inkscape:window-y="32"
     inkscape:window-maximized="1"
     inkscape:current-layer="svg3" />
  <rect
     style="opacity:0.2;fill:#000000;fill-opacity:1;stroke-width:2"
     id="rect4"
     width="88"
     height="112"
     x="20"
     y="9"
     ry="8" />
  <rect
     style="fill:#8e8e8e;fill-opacity:1;stroke-width:2"
     id="rect3"
     width="88"
     height="112"
     x="20"
     y="8"
     ry="8" />
  <path
     d="m 45.609376,30.171876 -11.316408,11.316406 4.246094,4.242186 11.3125,-11.316406 z m 36.769534,0 -11.31641,11.316406 11.31641,11.3125 11.3125,-11.3125 z m -29.699222,7.074218 -11.3125,11.3125 4.242188,4.242188 11.3125,-11.3125 z M 64,46 c -7.731986,0 -14,6.268014 -14,14 0,7.731986 6.268014,14 14,14 7.731986,0 14,-6.268014 14,-14 0,-7.731986 -6.268014,-14 -14,-14 z m 0,6 c 4.418278,0 8,3.581722 8,8 0,4.418278 -3.581722,8 -8,8 -4.418278,0 -8,-3.581722 -8,-8 0,-4.418278 3.581722,-8 8,-8 z m -8,26 v 6 h 16 v -6 z m 0,10 v 6 h 16 v -6 z"
     style="opacity:0.5;fill:#000000;stroke-width:2"
     id="path1" />
  <path
     id="path3"
     style="opacity:0.2;fill:#ffffff;stroke-width:2"
     d="m 28,8 c -4.431996,0 -8,3.568004 -8,8 v 1 c 0,-4.431996 3.568004,-8 8,-8 h 72 c 4.432,0 8,3.568004 8,8 v -1 c 0,-4.431996 -3.568,-8 -8,-8 z" />
</svg>
