<?xml version="1.0" encoding="UTF-8" standalone="no"?>
<svg
   width="128"
   height="128"
   version="1"
   id="svg3"
   sodipodi:docname="drive-harddisk.svg"
   inkscape:version="1.3 (0e150ed6c4, 2023-07-21)"
   xmlns:inkscape="http://www.inkscape.org/namespaces/inkscape"
   xmlns:sodipodi="http://sodipodi.sourceforge.net/DTD/sodipodi-0.dtd"
   xmlns="http://www.w3.org/2000/svg"
   xmlns:svg="http://www.w3.org/2000/svg">
  <defs
     id="defs3" />
  <sodipodi:namedview
     id="namedview3"
     pagecolor="#ffffff"
     bordercolor="#000000"
     borderopacity="0.25"
     inkscape:showpageshadow="2"
     inkscape:pageopacity="0.0"
     inkscape:pagecheckerboard="0"
     inkscape:deskcolor="#d1d1d1"
     inkscape:zoom="6.1171875"
     inkscape:cx="63.754789"
     inkscape:cy="64"
     inkscape:window-width="1920"
     inkscape:window-height="984"
     inkscape:window-x="0"
     inkscape:window-y="29"
     inkscape:window-maximized="1"
     inkscape:current-layer="svg3" />
  <rect
     style="opacity:0.2;fill:#000000;fill-opacity:1;stroke-width:2"
     id="rect4"
     width="88"
     height="112"
     x="20"
     y="9"
     ry="8" />
  <rect
     style="fill:#8e8e8e;fill-opacity:1;stroke-width:2"
     id="rect3"
     width="88"
     height="112"
     x="20"
     y="8"
     ry="8" />
  <path
     style="opacity:0.5;stroke-width:2;fill:#000000"
     d="M 64,24 C 48.536,24 36,36.536 36,52 V 80 H 64 C 79.464,80 92,67.464 92,52 92,36.536 79.464,24 64,24 Z m 0,16 A 12,12 0 0 1 76,52 12,12 0 0 1 64,64 12,12 0 0 1 52,52 12,12 0 0 1 64,40 Z"
     id="path2" />
  <path
     id="path3"
     style="opacity:0.2;fill:#ffffff;stroke-width:2"
     d="m 28,8 c -4.431996,0 -8,3.568004 -8,8 v 1 c 0,-4.431996 3.568004,-8 8,-8 h 72 c 4.432,0 8,3.568004 8,8 v -1 c 0,-4.431996 -3.568,-8 -8,-8 z" />
</svg>
