<?xml version="1.0" encoding="UTF-8" standalone="no"?>
<!-- Created with Inkscape (http://www.inkscape.org/) -->

<svg
   width="128"
   height="128"
   viewBox="0 0 128 128"
   version="1.1"
   id="svg5"
   sodipodi:docname="printer.svg"
   inkscape:version="1.2.2 (1:1.2.2+202305151914+b0a8486541)"
   xmlns:inkscape="http://www.inkscape.org/namespaces/inkscape"
   xmlns:sodipodi="http://sodipodi.sourceforge.net/DTD/sodipodi-0.dtd"
   xmlns="http://www.w3.org/2000/svg"
   xmlns:svg="http://www.w3.org/2000/svg">
  <sodipodi:namedview
     id="namedview7"
     pagecolor="#ffffff"
     bordercolor="#666666"
     borderopacity="1.0"
     inkscape:showpageshadow="2"
     inkscape:pageopacity="0.0"
     inkscape:pagecheckerboard="0"
     inkscape:deskcolor="#d1d1d1"
     inkscape:document-units="px"
     showgrid="false"
     inkscape:zoom="6.296875"
     inkscape:cx="63.920596"
     inkscape:cy="64"
     inkscape:window-width="1920"
     inkscape:window-height="1008"
     inkscape:window-x="0"
     inkscape:window-y="0"
     inkscape:window-maximized="1"
     inkscape:current-layer="svg5" />
  <defs
     id="defs2" />
  <path
     d="m 26,10 h 76 c 3.324,0 6,2.676 6,6 V 54 H 20 V 16 c 0,-3.324 2.676,-6 6,-6 z"
     style="fill:#e4e4e4;stroke-width:4;stroke-linecap:square"
     id="path3296" />
  <path
     id="path3324"
     style="opacity:0.2;fill:#ffffff;stroke-width:4;stroke-linecap:square"
     d="m 26,10 c -3.323996,0 -6,2.676003 -6,6 v 1 c 0,-3.323997 2.676004,-6 6,-6 h 76 c 3.324,0 6,2.676003 6,6 v -1 c 0,-3.323997 -2.676,-6 -6,-6 z" />
  <rect
     style="opacity:0.2;fill:#000000;fill-opacity:1;stroke-width:4;stroke-linecap:square"
     id="rect3036"
     width="112"
     height="48"
     x="8"
     y="43"
     ry="6" />
  <rect
     style="fill:#4f4f4f;fill-opacity:1;stroke-width:4;stroke-linecap:square"
     id="rect3038"
     width="112"
     height="48"
     x="8"
     y="42.000004"
     ry="6" />
  <path
     id="rect3109"
     style="opacity:0.1;fill:#ffffff;fill-opacity:1;stroke-width:4;stroke-linecap:square"
     d="m 14,42 c -3.323997,0 -6,2.676004 -6,6 v 1 c 0,-3.323996 2.676003,-6 6,-6 h 100 c 3.324,0 6,2.676004 6,6 v -1 c 0,-3.323996 -2.676,-6 -6,-6 z" />
  <rect
     style="opacity:0.2;fill:#000000;fill-opacity:1;stroke-width:4;stroke-linecap:square"
     id="rect3166"
     width="100"
     height="12"
     x="14"
     y="68" />
  <path
     d="M 108,74.999996 V 115 c 0,3.324 -2.676,6 -6,6 H 26 c -3.324,0 -6,-2.676 -6,-6 V 74.999996 Z"
     style="opacity:0.2;fill:#000000;stroke-width:4;stroke-linecap:square"
     id="path3383" />
  <rect
     style="opacity:0.2;fill:#000000;fill-opacity:1;stroke-width:4;stroke-linecap:square"
     id="rect3168"
     width="10"
     height="10"
     x="14"
     y="49"
     ry="4" />
  <rect
     style="fill:#76ff03;fill-opacity:1;stroke-width:4;stroke-linecap:square"
     id="rect3170"
     width="10"
     height="10"
     x="14"
     y="48.000004"
     ry="4" />
  <path
     id="rect3172"
     style="opacity:0.2;fill:#ffffff;fill-opacity:1;stroke-width:4;stroke-linecap:square"
     d="m 18,48 c -2.215998,0 -4,1.784002 -4,4 v 1 c 0,-2.215998 1.784002,-4 4,-4 h 2 c 2.215998,0 4,1.784002 4,4 v -1 c 0,-2.215998 -1.784002,-4 -4,-4 z" />
  <path
     id="rect3372"
     style="fill:#e4e4e4;stroke-width:4;stroke-linecap:square"
     d="m 108,74 v 40 c 0,3.324 -2.676,6 -6,6 H 26 c -3.324,0 -6,-2.676 -6,-6 V 74 Z" />
  <path
     d="m 30.00004,82 v 6 h 64 v -6 z m 0,12 v 6 h 48 v -6 z m 0,12 v 6 h 64 v -6 z"
     style="opacity:0.5;fill:#000000;stroke-width:2"
     id="path3412" />
</svg>
