<?xml version="1.0" encoding="UTF-8" standalone="no"?>
<!-- Created with Inkscape (http://www.inkscape.org/) -->

<svg
   width="128"
   height="128"
   viewBox="0 0 128 128"
   version="1.1"
   id="svg5"
   inkscape:version="1.2.2 (1:1.2.2+202305151914+b0a8486541)"
   sodipodi:docname="video-display.svg"
   xmlns:inkscape="http://www.inkscape.org/namespaces/inkscape"
   xmlns:sodipodi="http://sodipodi.sourceforge.net/DTD/sodipodi-0.dtd"
   xmlns="http://www.w3.org/2000/svg"
   xmlns:svg="http://www.w3.org/2000/svg">
  <sodipodi:namedview
     id="namedview7"
     pagecolor="#ffffff"
     bordercolor="#000000"
     borderopacity="0.25"
     inkscape:showpageshadow="2"
     inkscape:pageopacity="0.0"
     inkscape:pagecheckerboard="0"
     inkscape:deskcolor="#d1d1d1"
     inkscape:document-units="px"
     showgrid="false"
     inkscape:zoom="6.296875"
     inkscape:cx="64"
     inkscape:cy="64"
     inkscape:window-width="1920"
     inkscape:window-height="1008"
     inkscape:window-x="0"
     inkscape:window-y="0"
     inkscape:window-maximized="1"
     inkscape:current-layer="svg5" />
  <defs
     id="defs2" />
  <rect
     style="opacity:0.2;stroke-width:2"
     width="64"
     height="84"
     x="32.000031"
     y="29"
     rx="5"
     ry="5"
     id="rect2" />
  <rect
     style="fill:#8e8e8e;fill-opacity:1;stroke-width:4;stroke-linecap:square"
     id="rect1174"
     width="64.000031"
     height="40"
     x="32"
     y="72"
     ry="4" />
  <rect
     style="opacity:0.2;stroke-width:2"
     width="104"
     height="80"
     x="12.000031"
     y="21"
     rx="5"
     ry="5"
     id="rect6" />
  <path
     d="M 15.99996,20 H 112 c 2.216,0 4,1.784 4,4 l 4e-5,66 H 11.99998 l -2e-5,-66 c 0,-2.216 1.784,-4 4,-4 z"
     style="fill:#333333;stroke-width:4;stroke-linecap:square"
     id="path839" />
  <path
     d="m 15.99992,100.00002 h 96.00004 c 2.216,0 4,-1.784 4,-4 l 2e-5,-5.99998 H 11.99994 l -2e-5,5.99998 c 0,2.216 1.784,4 4,4 z"
     style="fill:#595959;fill-opacity:1;stroke-width:4;stroke-linecap:square"
     id="path895" />
  <rect
     style="opacity:0.1;fill:#ffffff;fill-opacity:1;stroke-width:2.82842;stroke-linecap:square"
     id="rect1491"
     width="103.99998"
     height="1"
     x="12"
     y="90" />
  <path
     id="path1553"
     style="opacity:0.1;fill:#ffffff;stroke-width:4;stroke-linecap:square"
     d="m 16,20 c -2.215998,0 -4,1.784002 -4,4 v 1 c 0,-2.215998 1.784002,-4 4,-4 h 96 c 2.216,0 4,1.784002 4,4 v -1 c 0,-2.215998 -1.784,-4 -4,-4 z" />
</svg>
