<?xml version="1.0" encoding="UTF-8" standalone="no"?>
<!-- Created with Inkscape (http://www.inkscape.org/) -->

<svg
   width="64"
   height="64"
   viewBox="0 0 64 64"
   version="1.1"
   id="svg5"
   inkscape:version="1.3 (0e150ed6c4, 2023-07-21)"
   sodipodi:docname="preferences-desktop-effects.svg"
   xmlns:inkscape="http://www.inkscape.org/namespaces/inkscape"
   xmlns:sodipodi="http://sodipodi.sourceforge.net/DTD/sodipodi-0.dtd"
   xmlns="http://www.w3.org/2000/svg"
   xmlns:svg="http://www.w3.org/2000/svg">
  <sodipodi:namedview
     id="namedview7"
     pagecolor="#ffffff"
     bordercolor="#000000"
     borderopacity="0.25"
     inkscape:showpageshadow="2"
     inkscape:pageopacity="0.0"
     inkscape:pagecheckerboard="0"
     inkscape:deskcolor="#d1d1d1"
     inkscape:document-units="px"
     showgrid="false"
     inkscape:zoom="12.234375"
     inkscape:cx="31.959132"
     inkscape:cy="32"
     inkscape:window-width="1920"
     inkscape:window-height="984"
     inkscape:window-x="0"
     inkscape:window-y="29"
     inkscape:window-maximized="1"
     inkscape:current-layer="svg5" />
  <defs
     id="defs2" />
  <rect
     style="opacity:0.2;fill:#000000;stroke-width:4;stroke-linecap:square"
     id="rect234"
     width="56"
     height="56"
     x="4"
     y="5"
     ry="12" />
  <rect
     style="fill:#83a598;fill-opacity:1;stroke-width:4;stroke-linecap:square"
     id="rect396"
     width="56"
     height="56"
     x="4"
     y="4"
     ry="12" />
  <path
     id="rect3201"
     style="opacity:0.2;fill:#000000;fill-opacity:1;stroke-width:6;stroke-linecap:round;stroke-linejoin:round"
     d="m 26,11 c 0,2.209135 -1.790862,3.999998 -4,4 2.209138,-2e-6 4,1.790864 4,4 0,-2.209136 1.790862,-4.000002 4,-4.000001 C 27.790862,14.999998 26,13.209135 26,11 Z m 9.984376,2.003905 c -0.259522,-0.01296 -0.52877,0.02245 -0.789064,0.117188 l -1.878906,0.683594 c -1.041178,0.378958 -1.574272,1.525227 -1.195312,2.566407 l 12.996094,35.70703 c 0.378958,1.041178 1.525228,1.57427 2.566406,1.195312 L 49.5625,52.589842 c 1.041178,-0.378958 1.57427,-1.52132 1.195312,-2.5625 L 37.761718,14.316405 C 37.4775,13.535523 36.762936,13.042778 35.984376,13.003905 Z M 16,17 c 0,2.209156 -1.790842,4.000002 -4,4 2.209158,0 4,1.790844 4,3.999998 0,-2.209154 1.790842,-3.999998 4,-4 C 17.790842,21 16,19.209154 16,17 Z m 8,5.999998 c 0,2.209136 -1.790862,4.000004 -4,4 2.209138,2e-6 4,1.790866 4,4.000002 0,-2.209136 1.790862,-4 4,-4 -2.209138,0 -4,-1.790866 -4,-4.000002 z" />
  <path
     id="rect1693"
     style="fill:#ffffff;fill-opacity:1;stroke-width:2"
     d="m 26,10 c 0,2.209138 -1.79086,4 -4,4 2.20914,0 4,1.790862 4,4 0,-2.209138 1.79086,-4 4,-4 -2.20914,0 -4,-1.790862 -4,-4 z m -10,6 c 0,2.20916 -1.79084,4.000002 -4,4 2.20916,0 4,1.790842 4,4 0,-2.209158 1.79084,-4 4,-4 -2.20916,0 -4,-1.790842 -4,-4 z m 8,6 c 0,2.209138 -1.79086,4.000002 -4,4 2.20914,0 4,1.790864 4,4 0,-2.209136 1.79086,-4 4,-4 -2.20914,0 -4,-1.790862 -4,-4 z"
     sodipodi:nodetypes="ccccccccccccccc" />
  <path
     id="rect4814-56"
     style="fill:#4d4d4d;fill-opacity:1;stroke-width:6.00002;stroke-linecap:round;stroke-linejoin:round"
     d="m 37.680581,21.790652 -2.13672,2.976562 9.57422,26.3125 c 0.37896,1.041188 1.525226,1.57428 2.566406,1.195314 l 1.878906,-0.683594 c 1.041136,-0.378964 1.574252,-1.521322 1.195312,-2.5625 l -9.578124,-26.3125 z" />
  <path
     id="rect5241-2"
     style="fill:#ededed;fill-opacity:1;stroke-width:6.00002;stroke-linecap:round;stroke-linejoin:round"
     d="m 35.789955,12.005496 c -0.1967,0.0096 -0.398524,0.04613 -0.59375,0.117188 l -1.878906,0.683594 c -1.041138,0.378946 -1.574272,1.525223 -1.195312,2.566406 l 3.421874,9.39453 5.63672,-2.05078 -3.41797,-9.398437 C 37.454707,12.472033 36.642283,11.96395 35.789955,12.005496 Z" />
  <path
     id="path3073"
     style="opacity:0.2;fill:#ffffff;fill-opacity:1;stroke-width:6.00002;stroke-linecap:round;stroke-linejoin:round"
     d="m 33.221383,12.84146 c -0.977498,0.412734 -1.465688,1.523713 -1.098572,2.53236 l 0.340684,0.936022 c -0.378962,-1.041182 0.1542,-2.184482 1.195344,-2.563425 l 1.879386,-0.684041 c 1.041182,-0.378964 2.188138,0.152824 2.567096,1.194009 l -0.34202,-0.939692 C 37.467237,12.503268 36.703259,12.000578 35.887329,12 c -0.228458,-1.62e-4 -0.463366,0.03978 -0.691124,0.122684 l -1.875716,0.682704 c -0.03254,0.01184 -0.06758,0.02276 -0.0991,0.03607 z" />
  <path
     id="path1040"
     style="opacity:0.2;fill:#ffffff;stroke-width:4;stroke-linecap:square"
     d="M 16,4 C 9.3520132,4 4,9.3520136 4,16 v 1 C 4,10.352014 9.3520132,5 16,5 h 32 c 6.647986,0 12,5.352014 12,12 V 16 C 60,9.3520136 54.647986,4 48,4 Z" />
</svg>
