<?xml version="1.0" encoding="UTF-8" standalone="no"?>
<!-- Created with Inkscape (http://www.inkscape.org/) -->

<svg
   width="16"
   height="16"
   viewBox="0 0 16 16"
   version="1.1"
   id="svg5"
   inkscape:version="1.4.3 (0d15f75042, 2025-12-25)"
   sodipodi:docname="emblem-system-symbolic.svg"
   xmlns:inkscape="http://www.inkscape.org/namespaces/inkscape"
   xmlns:sodipodi="http://sodipodi.sourceforge.net/DTD/sodipodi-0.dtd"
   xmlns="http://www.w3.org/2000/svg"
   xmlns:svg="http://www.w3.org/2000/svg">
  <sodipodi:namedview
     id="namedview7"
     pagecolor="#ffffff"
     bordercolor="#000000"
     borderopacity="0.25"
     inkscape:showpageshadow="2"
     inkscape:pageopacity="0.0"
     inkscape:pagecheckerboard="0"
     inkscape:deskcolor="#d1d1d1"
     inkscape:document-units="px"
     showgrid="false"
     inkscape:zoom="51.875"
     inkscape:cx="7.2674699"
     inkscape:cy="8.0096386"
     inkscape:window-width="1920"
     inkscape:window-height="1010"
     inkscape:window-x="0"
     inkscape:window-y="0"
     inkscape:window-maximized="1"
     inkscape:current-layer="svg5" />
  <defs
     id="defs2">
    <style
       id="current-color-scheme"
       type="text/css">
        .ColorScheme-Text { color:#dfdfdf; } .ColorScheme-Highlight { color:#4285f4; } .ColorScheme-NeutralText { color:#ff9800; } .ColorScheme-PositiveText { color:#4caf50; } .ColorScheme-NegativeText { color:#f44336; }
     </style>
  </defs>
  <path
     id="path1584"
     style="fill:currentColor;fill-opacity:1;stroke-linejoin:round;-inkscape-stroke:none"
     class="ColorScheme-Text"
     d="M 6.25,0 C 5.7311205,1.549e-4 5.2985362,0.397113 5.2539062,0.9140625 L 5.1367188,2.2539062 C 4.901679,2.3719661 4.676051,2.5027876 4.4570312,2.6484375 L 3.2363281,2.0742188 C 2.7652986,1.852449 2.2029591,2.0291502 1.9433594,2.4804688 L 0.19335938,5.5097656 C -0.06607037,5.9596852 0.06207168,6.5332784 0.48828125,6.8300781 L 1.5371094,7.5625 C 1.5270924,7.7085899 1.500124,7.8534401 1.5,8 1.5001241,8.14591 1.52718,8.290097 1.537109,8.435547 L 0.4921875,9.15625 c -0.42980957,0.29586 -0.55991786,0.872469 -0.29882812,1.324219 l 1.75000002,3.029297 c 0.2602997,0.451659 0.8239023,0.627606 1.2949218,0.404296 l 1.2109376,-0.574218 c 0.2215797,0.14673 0.4496402,0.279907 0.6875,0.398437 l 0.1171874,1.347657 C 5.2985452,15.602887 5.7311305,15.99985 6.25,16 h 3.5 c 0.52095,-4.1e-4 0.954334,-0.400652 0.996094,-0.919922 l 0.109375,-1.34375 c 0.23718,-0.11834 0.464567,-0.250094 0.685547,-0.396484 l 1.222656,0.574218 c 0.470539,0.2221 1.032769,0.0463 1.292969,-0.404296 l 1.75,-3.029297 C 16.0669,10.029619 15.937785,9.454603 15.509766,9.158203 L 14.458984,8.429688 c 0.01082,-0.13896 0.03915,-0.276526 0.04102,-0.416016 3.1e-5,-0.0046 3.1e-5,-0.0091 0,-0.01367 1.45e-4,-0.1494399 -0.02697,-0.2963526 -0.03711,-0.4453125 l 1.044921,-0.7226563 c 0.4287,-0.2957197 0.558698,-0.870896 0.298829,-1.3222656 l -1.75,-3.0292968 C 13.797091,2.0291492 13.234731,1.852449 12.763672,2.0742188 L 11.541016,2.6503906 C 11.320036,2.5040008 11.092659,2.3722461 10.855469,2.2539062 L 10.746094,0.9179688 C 10.703364,0.3994693 10.27025,3.3e-4 9.75,0 Z M 7.1660156,2 H 8.828125 l 0.074219,0.921875 c 0.032164,0.3872996 0.2857909,0.7209089 0.6503906,0.8554688 0.4790994,0.1770398 0.9255894,0.435159 1.3183594,0.7617187 0.298249,0.2482098 0.713113,0.3014986 1.064453,0.1367187 l 0.847656,-0.4003906 0.830078,1.4355469 -0.761719,0.5253906 c -0.321359,0.2214398 -0.484548,0.609591 -0.417968,0.9941407 0.04336,0.2514597 0.06621,0.506559 0.06641,0.7617187 -0.0037,0.2505795 -0.02895,0.5015575 -0.07422,0.7480465 -0.07068,0.38631 0.09129,0.778194 0.414063,1.001954 l 0.773437,0.535156 -0.830078,1.4375 -0.847656,-0.400391 c -0.3513,-0.16478 -0.766154,-0.111491 -1.064453,0.136719 -0.39273,0.32656 -0.83922,0.584679 -1.3183594,0.761719 C 9.1881347,12.34745 8.9345037,12.68105 8.9023438,13.068359 L 8.828125,14 H 7.1679688 L 7.0859375,13.064453 C 7.0526545,12.679094 6.8001396,12.34746 6.4375,12.212891 5.9584005,12.035851 5.5119102,11.777732 5.1191406,11.451172 4.8200809,11.202812 4.404174,11.150256 4.0527344,11.316406 L 3.2148438,11.712891 2.3867188,10.279297 3.1484375,9.751953 C 3.4690772,9.530833 3.6321762,9.143665 3.5664062,8.759766 3.5230653,8.508446 3.500217,8.25504 3.5,8 3.5002169,7.7449703 3.5230663,7.4915641 3.5664062,7.2402344 3.6321982,6.8577748 3.4707954,6.4717798 3.1523438,6.25 L 2.3847656,5.7148438 3.2167969,4.2753906 4.0644531,4.6757812 C 4.4166428,4.8408611 4.8326097,4.7867691 5.1308594,4.5371094 5.521119,4.2113497 5.9632336,3.9552236 6.4394531,3.7773438 6.8013228,3.6421639 7.0529875,3.3106609 7.0859375,2.9257812 Z M 8,6 A 2,2 0 0 0 6,8 2,2 0 0 0 8,10 2,2 0 0 0 10,8 2,2 0 0 0 8,6 Z" />
</svg>
