<?xml version="1.0" encoding="UTF-8" standalone="no"?>
<!-- Created with Inkscape (http://www.inkscape.org/) -->

<svg
   width="16"
   height="16"
   viewBox="0 0 16 16"
   version="1.1"
   id="svg5"
   inkscape:version="1.3 (1:1.3+202307231459+0e150ed6c4)"
   sodipodi:docname="cpu.svg"
   xmlns:inkscape="http://www.inkscape.org/namespaces/inkscape"
   xmlns:sodipodi="http://sodipodi.sourceforge.net/DTD/sodipodi-0.dtd"
   xmlns="http://www.w3.org/2000/svg"
   xmlns:svg="http://www.w3.org/2000/svg">
  <sodipodi:namedview
     id="namedview7"
     pagecolor="#ffffff"
     bordercolor="#000000"
     borderopacity="0.25"
     inkscape:showpageshadow="2"
     inkscape:pageopacity="0.0"
     inkscape:pagecheckerboard="0"
     inkscape:deskcolor="#d1d1d1"
     inkscape:document-units="px"
     showgrid="false"
     inkscape:zoom="50.3125"
     inkscape:cx="7.9900621"
     inkscape:cy="8"
     inkscape:window-width="1920"
     inkscape:window-height="1008"
     inkscape:window-x="0"
     inkscape:window-y="0"
     inkscape:window-maximized="1"
     inkscape:current-layer="svg5"
     showguides="true" />
  <defs
     id="defs2">
    <inkscape:perspective
       sodipodi:type="inkscape:persp3d"
       inkscape:vp_x="0 : 5 : 1"
       inkscape:vp_y="0 : 1000 : 0"
       inkscape:vp_z="22 : 5 : 1"
       inkscape:persp3d-origin="11 : 1.3333333 : 1"
       id="perspective1743" />
  </defs>
  <rect
     style="fill:#419d45;fill-opacity:1;stroke-linecap:round;stroke-linejoin:round"
     id="rect112"
     width="16"
     height="16"
     x="0"
     y="0"
     ry="1" />
  <path
     d="M 5,1 V 2 H 6 V 1 Z M 7,1 V 2 H 8 V 1 Z m 3,0 v 1 h 1 V 1 Z m 2,0 v 1 h 1 V 1 Z m 2,0 v 1 h 1 V 1 Z M 1,3 V 4 H 2 V 3 Z M 3,3 V 4 H 4 V 3 Z M 5,3 V 4 H 6 V 3 Z M 7,3 V 4 H 8 V 3 Z m 3,0 v 1 h 1 V 3 Z m 2,0 v 1 h 1 V 3 Z m 2,0 v 1 h 1 V 3 Z M 1,5 V 6 H 2 V 5 Z M 3,5 V 6 H 4 V 5 Z m 9,0 v 1 h 1 V 5 Z m 2,0 v 1 h 1 V 5 Z m -2,3 v 1 h 1 V 8 Z m 2,0 v 1 h 1 V 8 Z M 1,10 v 1 h 1 v -1 z m 2,0 v 1 h 1 v -1 z m 9,0 v 1 h 1 v -1 z m 2,0 v 1 h 1 V 10 Z M 1,12 v 1 h 1 v -1 z m 2,0 v 1 h 1 v -1 z m 2,0 v 1 h 1 v -1 z m 2,0 v 1 h 1 v -1 z m 2,0 v 1 h 1 v -1 z m 3,0 v 1 h 1 v -1 z m 2,0 v 1 h 1 V 12 Z M 1,14 v 1 h 1 v -1 z m 4,0 v 1 h 1 v -1 z m 2,0 v 1 h 1 v -1 z m 2,0 v 1 h 1 v -1 z m 3,0 v 1 h 1 v -1 z m 2,0 v 1 h 1 v -1 z"
     id="path2"
     style="fill:#ffdc65;fill-opacity:1" />
  <rect
     style="fill:#37474f;fill-opacity:1;stroke-width:0.5;stroke-linecap:round;stroke-linejoin:round"
     id="rect114"
     width="6"
     height="6"
     x="5"
     y="5"
     ry="1" />
</svg>
