<?xml version="1.0" encoding="UTF-8" standalone="no"?>
<svg
   width="16"
   height="16"
   version="1"
   id="svg6"
   sodipodi:docname="input-touchpad.svg"
   inkscape:version="1.3.2 (091e20ef0f, 2023-11-25, custom)"
   xmlns:inkscape="http://www.inkscape.org/namespaces/inkscape"
   xmlns:sodipodi="http://sodipodi.sourceforge.net/DTD/sodipodi-0.dtd"
   xmlns="http://www.w3.org/2000/svg"
   xmlns:svg="http://www.w3.org/2000/svg">
  <defs
     id="defs6" />
  <sodipodi:namedview
     id="namedview6"
     pagecolor="#ffffff"
     bordercolor="#000000"
     borderopacity="0.25"
     inkscape:showpageshadow="2"
     inkscape:pageopacity="0.0"
     inkscape:pagecheckerboard="0"
     inkscape:deskcolor="#d1d1d1"
     inkscape:zoom="45.5625"
     inkscape:cx="7.9890261"
     inkscape:cy="8"
     inkscape:window-width="1920"
     inkscape:window-height="942"
     inkscape:window-x="0"
     inkscape:window-y="32"
     inkscape:window-maximized="1"
     inkscape:current-layer="svg6" />
  <rect
     style="fill:#4f4f4f"
     width="16"
     height="16"
     x="0"
     y="0"
     rx=".8"
     ry=".8"
     id="rect1" />
  <path
     id="rect2"
     style="opacity:0.4;fill:#000000"
     d="M 13 3.5 L 13 4 L 15 4 L 15 3.5 L 13 3.5 z M 13 5.5 L 13 6 L 15 6 L 15 5.5 L 13 5.5 z M 13 7.5 L 13 8 L 15 8 L 15 7.5 L 13 7.5 z M 1.6679688 11 C 1.2984511 11 1 11.357582 1 11.800781 L 1 14.199219 C 1 14.642418 1.2984511 15 1.6679688 15 L 6.3320312 15 C 6.7015489 15 7 14.642418 7 14.199219 L 7 11.800781 C 7 11.357582 6.7015489 11 6.3320312 11 L 1.6679688 11 z M 9.6679688 11 C 9.2984511 11 9 11.357582 9 11.800781 L 9 14.199219 C 9 14.642418 9.2984511 15 9.6679688 15 L 14.332031 15 C 14.701549 15 15 14.642418 15 14.199219 L 15 11.800781 C 15 11.357582 14.701549 11 14.332031 11 L 9.6679688 11 z " />
</svg>
