<?xml version="1.0" encoding="UTF-8" standalone="no"?>
<!-- Created with Inkscape (http://www.inkscape.org/) -->

<svg
   width="22"
   height="22"
   viewBox="0 0 22 22"
   version="1.1"
   id="svg5"
   inkscape:version="1.3 (0e150ed6c4, 2023-07-21)"
   sodipodi:docname="a-dance-of-fire-and-ice.svg"
   xmlns:inkscape="http://www.inkscape.org/namespaces/inkscape"
   xmlns:sodipodi="http://sodipodi.sourceforge.net/DTD/sodipodi-0.dtd"
   xmlns="http://www.w3.org/2000/svg"
   xmlns:svg="http://www.w3.org/2000/svg">
  <sodipodi:namedview
     id="namedview7"
     pagecolor="#ffffff"
     bordercolor="#000000"
     borderopacity="0.25"
     inkscape:showpageshadow="2"
     inkscape:pageopacity="0.0"
     inkscape:pagecheckerboard="0"
     inkscape:deskcolor="#d1d1d1"
     inkscape:document-units="px"
     showgrid="false"
     inkscape:zoom="36.227273"
     inkscape:cx="10.986198"
     inkscape:cy="11"
     inkscape:window-width="1850"
     inkscape:window-height="1011"
     inkscape:window-x="0"
     inkscape:window-y="0"
     inkscape:window-maximized="1"
     inkscape:current-layer="svg5" />
  <defs
     id="defs2" />
  <rect
     style="opacity:0.2;fill:#000000;stroke-width:1.42857;stroke-linecap:square"
     id="rect234"
     width="20"
     height="20"
     x="1"
     y="1.4999995"
     ry="4.5" />
  <rect
     style="fill:#3e265c;fill-opacity:1;stroke-width:1.42857;stroke-linecap:square"
     id="rect396"
     width="20"
     height="20"
     x="1"
     y="1"
     ry="4.5" />
  <path
     style="fill:#2252c4"
     d="m 17,17.000441 c -5.89651,2.440485 -10.2787919,1.689823 -13,-3 3.0336145,0.214492 5.759348,1.715164 9,-2 z"
     id="path2" />
  <path
     style="fill:#ed2d30"
     d="m 5,5.0004411 c 5.987639,-2.2074827 10.464711,-2.7928826 13,2 C 14.977125,6.667205 12.383786,6.4151563 9,10.000441 Z"
     id="path3" />
  <circle
     style="opacity:0.2;fill:#000000"
     id="path7"
     cx="15.5"
     cy="14.500441"
     r="3.5" />
  <circle
     style="opacity:0.2;fill:#000000"
     id="path8"
     cx="6.5"
     cy="8.5004406"
     r="3.5" />
  <circle
     style="fill:#ff7043;fill-opacity:1"
     id="path9"
     cx="6.5"
     cy="8.0004406"
     r="3.5" />
  <circle
     style="fill:#448aff;fill-opacity:1"
     id="path10"
     cx="15.5"
     cy="14.000441"
     r="3.5" />
  <path
     style="opacity:0.1;fill:#ffffff"
     d="m 15.5,10.500441 a 3.5,3.5 0 0 0 -3.5,3.5 3.5,3.5 0 0 0 0.01758,0.25 3.5,3.5 0 0 1 3.482422,-3.25 3.5,3.5 0 0 1 3.486328,3.1992 3.5,3.5 0 0 0 0.01367,-0.1992 3.5,3.5 0 0 0 -3.5,-3.5 z"
     id="path4" />
  <path
     style="opacity:0.2;fill:#ffffff"
     d="m 6.5,4.5004411 a 3.5,3.5 0 0 0 -3.5,3.5 3.5,3.5 0 0 0 0.017578,0.25 A 3.5,3.5 0 0 1 6.5,5.0004411 3.5,3.5 0 0 1 9.986328,8.1996599 3.5,3.5 0 0 0 10,8.0004411 a 3.5,3.5 0 0 0 -3.5,-3.5 z"
     id="path5" />
  <path
     id="path1040"
     style="opacity:0.1;fill:#ffffff;stroke-width:4;stroke-linecap:square"
     d="M 5.5,1.0000001 C 3.007005,1.0000001 1,3.0070051 1,5.5 V 6 C 1,3.5070051 3.007005,1.5000001 5.5,1.5000001 h 11 C 18.992996,1.5000001 21,3.5070051 21,6 V 5.5 C 21,3.0070052 18.992996,1.0000001 16.5,1.0000001 Z" />
</svg>
