<?xml version="1.0" encoding="UTF-8" standalone="no"?>
<!-- Created with Inkscape (http://www.inkscape.org/) -->

<svg
   width="22"
   height="22"
   viewBox="0 0 22 22"
   version="1.1"
   id="svg5"
   inkscape:version="1.3.2 (091e20ef0f, 2023-11-25, custom)"
   sodipodi:docname="abricotine.svg"
   xmlns:inkscape="http://www.inkscape.org/namespaces/inkscape"
   xmlns:sodipodi="http://sodipodi.sourceforge.net/DTD/sodipodi-0.dtd"
   xmlns="http://www.w3.org/2000/svg"
   xmlns:svg="http://www.w3.org/2000/svg">
  <sodipodi:namedview
     id="namedview7"
     pagecolor="#ffffff"
     bordercolor="#000000"
     borderopacity="0.25"
     inkscape:showpageshadow="2"
     inkscape:pageopacity="0.0"
     inkscape:pagecheckerboard="0"
     inkscape:deskcolor="#d1d1d1"
     inkscape:document-units="px"
     showgrid="false"
     inkscape:zoom="36.136364"
     inkscape:cx="10.986164"
     inkscape:cy="11"
     inkscape:window-width="1920"
     inkscape:window-height="1008"
     inkscape:window-x="0"
     inkscape:window-y="0"
     inkscape:window-maximized="1"
     inkscape:current-layer="svg5" />
  <defs
     id="defs2" />
  <rect
     style="opacity:0.2;fill:#000000;stroke-width:1.42857;stroke-linecap:square"
     id="rect234"
     width="20"
     height="20"
     x="1"
     y="1.4999995"
     ry="4.5" />
  <rect
     style="fill:#f07826;fill-opacity:1;stroke-width:1.42857;stroke-linecap:square"
     id="rect396"
     width="20"
     height="20"
     x="1"
     y="1"
     ry="4.5" />
  <path
     style="opacity:0.2;fill:#000000;stroke-width:0.5"
     d="m 13,5 2,-1 v 14 l -2,1 z"
     id="path3" />
  <path
     fill="#ffffff"
     d="m 13,4.5 2,-1 v 14 l -2,1 z"
     id="path4"
     style="stroke-width:0.5" />
  <path
     style="opacity:0.2;fill:#000000;stroke-width:0.5"
     d="M 16.1245,6.268 17.9905,7.5 5.866,14.5 4,13.268 Z"
     id="path5" />
  <path
     fill="#ffffff"
     d="M 16.1245,5.768 17.9905,7 5.866,14 4,12.768 Z"
     id="path6"
     style="stroke-width:0.5" />
  <path
     style="opacity:0.2;fill:#000000;stroke-width:0.5"
     d="M 18.2585,15.268 18.1245,17.5 6,10.5 6.134,8.268 Z"
     id="path7" />
  <path
     fill="#ffffff"
     d="M 18.2585,14.768 18.1245,17 6,10 6.134,7.768 Z"
     id="path8"
     style="stroke-width:0.5" />
  <path
     id="path1040"
     style="opacity:0.2;fill:#ffffff;stroke-width:4;stroke-linecap:square"
     d="M 5.5,1.0000001 C 3.007005,1.0000001 1,3.0070051 1,5.5 V 6 C 1,3.5070051 3.007005,1.5000001 5.5,1.5000001 h 11 C 18.992996,1.5000001 21,3.5070051 21,6 V 5.5 C 21,3.0070052 18.992996,1.0000001 16.5,1.0000001 Z" />
</svg>
