<?xml version="1.0" encoding="UTF-8" standalone="no"?>
<!-- Created with Inkscape (http://www.inkscape.org/) -->

<svg
   width="22"
   height="22"
   viewBox="0 0 22 22"
   version="1.1"
   id="svg5"
   inkscape:version="1.3.2 (091e20ef0f, 2023-11-25, custom)"
   sodipodi:docname="AdobePhotoshop.svg"
   xmlns:inkscape="http://www.inkscape.org/namespaces/inkscape"
   xmlns:sodipodi="http://sodipodi.sourceforge.net/DTD/sodipodi-0.dtd"
   xmlns="http://www.w3.org/2000/svg"
   xmlns:svg="http://www.w3.org/2000/svg">
  <sodipodi:namedview
     id="namedview7"
     pagecolor="#ffffff"
     bordercolor="#000000"
     borderopacity="0.25"
     inkscape:showpageshadow="2"
     inkscape:pageopacity="0.0"
     inkscape:pagecheckerboard="0"
     inkscape:deskcolor="#d1d1d1"
     inkscape:document-units="px"
     showgrid="false"
     inkscape:zoom="36.136364"
     inkscape:cx="10.986164"
     inkscape:cy="11"
     inkscape:window-width="1920"
     inkscape:window-height="1008"
     inkscape:window-x="0"
     inkscape:window-y="0"
     inkscape:window-maximized="1"
     inkscape:current-layer="svg5" />
  <defs
     id="defs2" />
  <rect
     style="opacity:0.2;fill:#000000;stroke-width:1.42857;stroke-linecap:square"
     id="rect234"
     width="20"
     height="20"
     x="1"
     y="1.4999995"
     ry="4.5" />
  <rect
     style="fill:#3b478c;fill-opacity:1;stroke-width:1.42857;stroke-linecap:square"
     id="rect396"
     width="20"
     height="20"
     x="1"
     y="1"
     ry="4.5" />
  <path
     opacity="0.2"
     d="m 5.00005,6.54107 c 0,0 1.4007,-0.04107 2.5537,-0.04107 1.6,0 3.4462,0.5 3.4462,3.5 0,3 -1.8462,3.5 -3.4462,3.4898 C 7.19966,13.50634 7,13.5103 7,13.5103 V 16.5 H 5 Z m 1.9999,4.9549 c 0.20337,0.02205 0.20277,0.01144 0.5042,0.0074 1.0041,-0.013 1.4958,-0.474 1.4958,-1.503 0,-0.9246 -0.383,-1.4607 -1.347,-1.5 -0.3842,-0.0156 -0.653,0 -0.653,0 z"
     id="path3"
     style="fill:#000000" />
  <path
     d="m 12.000391,14.000006 c 0.390854,0.26571 1.138059,1.000036 1.766761,1.000036 0.642319,0 1.233228,-0.359026 1.233228,-0.750006 0,-0.391488 -0.262313,-0.871969 -1.058495,-1.169293 -1.410639,-0.532183 -1.955341,-1.16921 -1.941264,-2.060843 0,-1.4400888 1.08925,-2.5198803 2.779201,-2.5198803 0.796167,0 1.801875,0.2653965 2.220576,0.5000011 v 1.5000112 c -0.307466,-0.187988 -1.56418,-0.500001 -2.150652,-0.500001 -0.517008,0 -0.849413,0.378266 -0.849413,0.769246 0,0.503018 0.304757,0.547863 1.142725,0.876716 1.298715,0.500738 1.843416,1.236081 1.857264,2.362912 0,1.424325 -0.99102,2.556919 -2.960743,2.488182 -0.675904,-0.02356 -1.522486,-0.184361 -2.039264,-0.497026 -1.5e-5,-0.568653 -1.1e-5,-1.431359 7.6e-5,-1.999987 z"
     id="path4"
     style="opacity:0.2;fill:#000000;stroke-width:0.0805238" />
  <path
     d="m 5.00005,6.04107 c 0,0 1.4007,-0.04107 2.5537,-0.04107 1.6,0 3.4462,0.5 3.4462,3.5 0,3 -1.8462,3.5 -3.4462,3.4898 C 7.19966,13.00634 7,13.0103 7,13.0103 v 2.99 H 5 Z m 1.9999,4.9549 c 0.20337,0.02205 0.20277,0.01144 0.5042,0.0074 1.0041,-0.013 1.4958,-0.474 1.4958,-1.503 0,-0.9246 -0.383,-1.4607 -1.347,-1.5 -0.3842,-0.0156 -0.653,0 -0.653,0 z"
     id="path5"
     style="fill:#219fd1" />
  <path
     d="m 12.000391,13.500026 c 0.390854,0.26571 1.138059,1.000036 1.766761,1.000036 0.642319,0 1.233228,-0.359026 1.233228,-0.750006 0,-0.391488 -0.262313,-0.871969 -1.058495,-1.169293 -1.410639,-0.532183 -1.955341,-1.16921 -1.941264,-2.060843 0,-1.4400888 1.08925,-2.5198803 2.779201,-2.5198803 0.796167,0 1.801875,0.2653965 2.220576,0.5000011 v 1.5000112 c -0.307466,-0.1879883 -1.56418,-0.5000006 -2.150652,-0.5000006 -0.517008,0 -0.849413,0.378266 -0.849413,0.7692456 0,0.503018 0.304757,0.547863 1.142725,0.876716 1.298715,0.500738 1.843416,1.236081 1.857264,2.362912 0,1.424325 -0.99102,2.556919 -2.960743,2.488182 -0.675904,-0.02356 -1.522486,-0.184361 -2.039264,-0.497026 -1.5e-5,-0.568653 -1.1e-5,-1.431359 7.6e-5,-1.999987 z"
     id="path6"
     style="fill:#219fd1;stroke-width:0.0805238" />
  <path
     id="path1040"
     style="opacity:0.1;fill:#ffffff;stroke-width:4;stroke-linecap:square"
     d="M 5.5,1.0000001 C 3.007005,1.0000001 1,3.0070051 1,5.5 V 6 C 1,3.5070051 3.007005,1.5000001 5.5,1.5000001 h 11 C 18.992996,1.5000001 21,3.5070051 21,6 V 5.5 C 21,3.0070052 18.992996,1.0000001 16.5,1.0000001 Z" />
</svg>
