<?xml version="1.0" encoding="UTF-8" standalone="no"?>
<!-- Created with Inkscape (http://www.inkscape.org/) -->

<svg
   width="22"
   height="22"
   viewBox="0 0 22 22"
   version="1.1"
   id="svg5"
   inkscape:version="1.3.2 (091e20ef0f, 2023-11-25, custom)"
   sodipodi:docname="amazon-store.svg"
   xmlns:inkscape="http://www.inkscape.org/namespaces/inkscape"
   xmlns:sodipodi="http://sodipodi.sourceforge.net/DTD/sodipodi-0.dtd"
   xmlns="http://www.w3.org/2000/svg"
   xmlns:svg="http://www.w3.org/2000/svg">
  <sodipodi:namedview
     id="namedview7"
     pagecolor="#ffffff"
     bordercolor="#000000"
     borderopacity="0.25"
     inkscape:showpageshadow="2"
     inkscape:pageopacity="0.0"
     inkscape:pagecheckerboard="0"
     inkscape:deskcolor="#d1d1d1"
     inkscape:document-units="px"
     showgrid="false"
     inkscape:zoom="37.363636"
     inkscape:cx="11"
     inkscape:cy="11"
     inkscape:window-width="1920"
     inkscape:window-height="1008"
     inkscape:window-x="0"
     inkscape:window-y="0"
     inkscape:window-maximized="1"
     inkscape:current-layer="svg5" />
  <defs
     id="defs2" />
  <rect
     style="opacity:0.2;fill:#000000;stroke-width:1.42857;stroke-linecap:square"
     id="rect234"
     width="20"
     height="20"
     x="1"
     y="1.5"
     ry="4.5" />
  <rect
     style="fill:#e4e4e4;fill-opacity:1;stroke-width:1.42857;stroke-linecap:square"
     id="rect396"
     width="20"
     height="20"
     x="1"
     y="1"
     ry="4.5" />
  <path
     id="path1387"
     style="opacity:0.2;fill:#000000;fill-rule:evenodd"
     d="m 11.02394,4.499 c -1.59,0 -3.36904,0.62088 -3.74414,2.67578 -0.037,0.2186 0.1135,0.33419 0.25,0.36719 l 1.625,0.18164 c 0.152,-0.008 0.26101,-0.16231 0.29101,-0.32031 0.139,-0.7092 0.70671,-1.05078 1.34571,-1.05078 0.34399,0 0.73345,0.13257 0.93945,0.45507 0.232,0.3596 0.20117,0.85148 0.20117,1.26758 v 0.22656 c -0.971,0.1155 -2.24144,0.18933 -3.14844,0.60743 -1.0467,0.4734 -1.7832,1.44328 -1.7832,2.86328 0,1.819 1.09776,2.72656 2.50586,2.72656 1.192,0 1.84177,-0.29244 2.75976,-1.27344 0.306,0.461 0.40594,0.68597 0.96094,1.16797 0.12421,0.0686 0.28168,0.0611 0.39063,-0.041 l 0.006,0.006 c 0.334,-0.31 0.9412,-0.86111 1.2832,-1.16211 0.135,-0.118 0.11191,-0.30884 0.004,-0.46484 -0.307,-0.444 -0.63086,-0.80205 -0.63086,-1.62305 V 8.38192 c 0,-1.1548 0.0787,-2.21652 -0.73633,-3.01172 C 12.90267,4.7256 11.83814,4.49911 11.02414,4.49911 Z m 0.91015,5.20508 v 0.38086 l -0.002,-0.002 c 0,0.684 0.0185,1.25242 -0.3125,1.85742 -0.265,0.492 -0.6872,0.79492 -1.1582,0.79492 -0.642,0 -1.01562,-0.50962 -1.01563,-1.26562 0,-1.493 1.27829,-1.76563 2.48829,-1.76563 z m 4.11328,5.79297 c -0.455,0.007 -0.99339,0.11325 -1.40039,0.40625 -0.127,0.09 -0.10484,0.21426 0.0352,0.19726 0.458,-0.057 1.48011,-0.18331 1.66211,0.0547 0.183,0.238 -0.20304,1.22407 -0.37304,1.66406 -0.053,0.132 0.0568,0.18599 0.17382,0.084 0.766,-0.65399 0.96069,-2.0237 0.80469,-2.2207 -0.077,-0.099 -0.44834,-0.19155 -0.90234,-0.18555 z M 4.09425,15.76072 c -0.0945,0.013 -0.13661,0.13065 -0.0371,0.22265 1.697,1.571 3.93969,2.51563 6.42969,2.51563 1.777,0 3.83772,-0.57444 5.26172,-1.64844 l 0.002,-0.002 c 0.237,-0.18 0.035,-0.44579 -0.20703,-0.34179 -1.594,0.69499 -3.33026,1.02929 -4.90625,1.02929 -2.338,0 -4.6036,-0.65605 -6.4336,-1.74804 -0.04,-0.024 -0.0774,-0.0313 -0.10937,-0.0273 z" />
  <path
     d="m 11.9335,9.584 c 0,0.684 0.018,1.253 -0.313,1.858 -0.265,0.492 -0.687,0.795 -1.158,0.795 -0.642,0 -1.016,-0.511 -1.016,-1.267 0,-1.493 1.278,-1.764 2.488,-1.764 v 0.379 m 1.687,4.266 c -0.109,0.104 -0.269,0.112 -0.394,0.043 -0.555,-0.482 -0.655,-0.707 -0.961,-1.168 C 11.3485,13.707 10.6995,14 9.5075,14 8.0994,14 7.0021,13.092 7.0021,11.273 c 0,-1.42 0.7367,-2.3893 1.7834,-2.8624 0.907,-0.4181 2.177,-0.4922 3.148,-0.6077 V 7.5763 c 0,-0.4161 0.031,-0.9082 -0.201,-1.2678 -0.206,-0.3225 -0.596,-0.4551 -0.94,-0.4551 -0.639,0 -1.207,0.3421 -1.346,1.0513 -0.03,0.158 -0.139,0.3126 -0.291,0.3206 L 7.5317,7.0437 C 7.3952,7.0107 7.2447,6.8952 7.2817,6.6766 7.6568,4.6217 9.4345,4 11.0245,4 c 0.814,0 1.879,0.2266 2.52,0.8712 0.815,0.7952 0.737,1.8559 0.737,3.0107 v 2.7271 c 0,0.821 0.324,1.18 0.631,1.624 0.108,0.156 0.131,0.347 -0.004,0.465 -0.342,0.301 -0.949,0.852 -1.283,1.162 l -0.006,-0.006"
     style="fill:#4d4d4d;fill-opacity:1;fill-rule:evenodd"
     id="path1526" />
  <path
     d="m 16.0465,14.998 c -0.455,0.007 -0.992,0.112 -1.399,0.405 -0.127,0.09 -0.105,0.214 0.035,0.197 0.458,-0.057 1.479,-0.182 1.661,0.056 0.183,0.238 -0.203,1.223 -0.373,1.663 -0.053,0.132 0.058,0.187 0.175,0.085 0.766,-0.654 0.961,-2.025 0.805,-2.222 -0.077,-0.099 -0.45,-0.19 -0.904,-0.184 z M 4.0945,15.261 C 4,15.274 3.958,15.392 4.0575,15.484 c 1.697,1.571 3.94,2.515 6.43,2.515 1.777,0 3.838,-0.575 5.262,-1.649 l 0.001,-0.002 c 0.237,-0.18 0.035,-0.445 -0.207,-0.341 -1.594,0.695 -3.33,1.029 -4.906,1.029 -2.338,0 -4.6035,-0.656 -6.4335,-1.748 -0.04,-0.024 -0.0775,-0.031 -0.1095,-0.027 z"
     style="fill:#ff9900"
     id="path1554" />
  <path
     id="path1040"
     style="opacity:0.2;fill:#ffffff;stroke-width:4;stroke-linecap:square"
     d="M 5.5,1 C 3.007005,1 1,3.007005 1,5.5 V 6 C 1,3.507005 3.007005,1.5 5.5,1.5 h 11 C 18.992996,1.5 21,3.507005 21,6 V 5.5 C 21,3.007005 18.992996,1 16.5,1 Z" />
</svg>
