<?xml version="1.0" encoding="UTF-8" standalone="no"?>
<!-- Created with Inkscape (http://www.inkscape.org/) -->

<svg
   width="22"
   height="22"
   viewBox="0 0 22 22"
   version="1.1"
   id="svg5"
   inkscape:version="1.3 (0e150ed6c4, 2023-07-21)"
   sodipodi:docname="androidstudio-preview.svg"
   xmlns:inkscape="http://www.inkscape.org/namespaces/inkscape"
   xmlns:sodipodi="http://sodipodi.sourceforge.net/DTD/sodipodi-0.dtd"
   xmlns="http://www.w3.org/2000/svg"
   xmlns:svg="http://www.w3.org/2000/svg">
  <sodipodi:namedview
     id="namedview7"
     pagecolor="#ffffff"
     bordercolor="#000000"
     borderopacity="0.25"
     inkscape:showpageshadow="2"
     inkscape:pageopacity="0.0"
     inkscape:pagecheckerboard="0"
     inkscape:deskcolor="#d1d1d1"
     inkscape:document-units="px"
     showgrid="false"
     inkscape:zoom="36.227273"
     inkscape:cx="10.986198"
     inkscape:cy="11"
     inkscape:window-width="1850"
     inkscape:window-height="1011"
     inkscape:window-x="0"
     inkscape:window-y="0"
     inkscape:window-maximized="1"
     inkscape:current-layer="svg5" />
  <defs
     id="defs2" />
  <rect
     style="opacity:0.2;fill:#000000;stroke-width:1.42857;stroke-linecap:square"
     id="rect234"
     width="20"
     height="20"
     x="1"
     y="1.5"
     ry="4.5" />
  <rect
     style="fill:#efefef;fill-opacity:1;stroke-width:1.42857;stroke-linecap:square"
     id="rect396"
     width="20"
     height="20"
     x="1"
     y="1"
     ry="4.5" />
  <path
     d="M 18,17.5 H 6.30467 C 5.58441,17.495 5.00233,16.91201 5.00002,16.1925 V 6.927 C 5.00002,8.01994 6,8.5 6.594,8.5 h 9.49985 C 16.09385,8.5 18,8.37807 18,9.81252 Z"
     style="opacity:0.2;fill:#000000"
     id="path4090" />
  <path
     style="fill:#ff8802;fill-opacity:1"
     d="M 10.95345,5.00007 H 6.59878 C 5.71534,5.00307 5.00069,5.67462 5.0007,6.5025 4.9744,7.32247 5.67684,8.00044 6.55224,8.00007 H 11 Z"
     id="path2970" />
  <path
     id="path5757"
     style="opacity:0.1;fill:#000000"
     d="M 6.59961,5 C 5.71617,5.003 4.99999,5.67407 5,6.50195 4.997,6.59435 5.005,6.68539 5.0195,6.77344 5.13658,6.05382 5.79896,5.50272 6.59958,5.5 h 4.35351 L 10.99219,8 H 11 L 10.9531,5 Z" />
  <path
     d="M 8.58027,3.60007 C 8.39995,3.59607 8.2879,3.79445 8.38516,3.94636 L 9.14629,5.1698 C 7.81428,5.98723 7.00177,7.43724 7,9.00007 c 0,2.48528 2.01472,4.5 4.5,4.5 2.48528,0 4.5,-2.01472 4.5,-4.5 -0.002,-1.5627 -0.81509,-3.01233 -2.14717,-3.82939 l 0.76201,-1.22432 c 0.0973,-0.15191 -0.0148,-0.35078 -0.19511,-0.34629 -0.0766,0.002 -0.14684,0.0433 -0.18633,0.10899 L 13.4582,4.95447 C 12.84808,4.65728 12.17865,4.50194 11.5,4.50007 10.82119,4.50107 10.15145,4.656 9.54092,4.95271 L 8.7666,3.70906 C 8.7271,3.64336 8.65689,3.60229 8.58027,3.60007 Z"
     style="opacity:0.2;fill:#000000"
     id="path4202" />
  <path
     style="fill:#3ddc84"
     d="M 8.58027,3.10007 C 8.39995,3.09607 8.2879,3.29445 8.38516,3.44636 L 9.14629,4.6698 C 7.81428,5.48723 7.00177,6.93724 7,8.50007 c 0,2.48528 2.01472,4.5 4.5,4.5 2.48528,0 4.5,-2.01472 4.5,-4.5 -0.002,-1.5627 -0.81509,-3.01233 -2.14717,-3.82939 l 0.76201,-1.22432 c 0.0973,-0.15191 -0.0148,-0.35078 -0.19511,-0.34629 -0.0766,0.002 -0.14684,0.0433 -0.18633,0.10899 L 13.4582,4.45447 C 12.84808,4.15728 12.17865,4.00194 11.5,4.00007 10.82119,4.00107 10.15145,4.156 9.54092,4.45271 L 8.7666,3.20906 C 8.7271,3.14336 8.65689,3.10229 8.58027,3.10007 Z"
     id="path2972" />
  <path
     id="path4174"
     style="opacity:0.2;fill:#ffffff"
     d="M 8.58008,3.09961 C 8.39976,3.09561 8.28751,3.29536 8.38477,3.44727 l 0.10546,0.16992 c 0.0275,-0.0112 0.057,-0.0183 0.0899,-0.0176 0.0766,0.002 0.14605,0.0437 0.18554,0.10937 l 0.7754,1.24414 c 0.61053,-0.2967 1.28017,-0.45212 1.95898,-0.45312 0.67865,0.002 1.34886,0.15789 1.95898,0.45508 l 0.7754,-1.2461 c 0.0395,-0.0657 0.10894,-0.10737 0.18554,-0.10937 0.0328,-8.2e-4 0.0624,0.006 0.0899,0.0176 l 0.10546,-0.16992 c 0.0973,-0.15191 -0.015,-0.35215 -0.19531,-0.34766 -0.0766,0.002 -0.14606,0.0437 -0.18554,0.10937 l -0.7754,1.2461 C 12.84886,4.15789 12.17865,4.00187 11.5,4 10.82119,4.001 10.15155,4.15642 9.54102,4.45312 L 8.76562,3.20898 C 8.72612,3.14328 8.6567,3.10183 8.58008,3.09961 Z m 0.3457,1.71484 C 7.72523,5.65157 7.00167,7.02543 7,8.5 7,8.587 7.003,8.67403 7.008,8.75977 7.0883,7.28992 7.88339,5.94518 9.14667,5.16992 Z m 5.14844,0.002 -0.2207,0.35351 c 1.26335,0.77491 2.05813,2.12015 2.13867,3.58985 0.005,-0.0857 0.008,-0.17282 0.008,-0.25977 -0.002,-1.47393 -0.72588,-2.84674 -1.92578,-3.68359 z" />
  <path
     style="fill:#ffc802;fill-opacity:1"
     d="M 18,17.00007 H 6.30467 c -0.72026,-0.005 -1.30234,-0.58799 -1.30465,-1.3075 v -9.2655 c 0,1.09294 0.99998,1.573 1.59398,1.573 h 9.49985 c 0,0 1.90615,-0.12193 1.90615,1.31252 z"
     id="path2974" />
  <path
     d="m 16.67613,11.49998 h -0.60048 c -0.0418,0 -0.0756,0.0858 -0.0756,0.12305 v 7.80357 c -8e-5,0.0356 0.031,0.0652 0.0709,0.0674 h 0.61939 c 0.72408,-0.002 1.3097,-0.52582 1.30969,-1.17079 V 10.245 c 2e-5,0.64992 -0.59425,1.25968 -1.32388,1.255 z"
     style="opacity:0.2;fill:#000000"
     id="path4118" />
  <path
     style="fill:#e7521d;fill-opacity:1"
     d="m 11.8802,11.22801 a 0.6725945,0.68055508 0 1 0 0.25809,1.30571 0.66868411,0.6765984 0 0 0 -0.25809,-1.30571 z"
     id="path2976" />
  <path
     d="m 11.49392,10.50005 c -0.21437,0.003 -0.3856,0.17763 -0.38283,0.38971 v 0.45328 c -0.4656,0.16399 -0.77713,0.60224 -0.77782,1.09422 5.1e-4,0.34446 0.15436,0.67096 0.42005,0.89141 l -2.68742,5.2974 c -0.10223,0.19695 -0.0846,0.43112 0.0463,0.61219 0.13281,0.17937 0.35599,0.27796 0.5864,0.25955 0.23048,-0.021 0.43088,-0.15903 0.52336,-0.3602 l 1.79794,-3.3216 c 0.0867,-0.16819 0.26656,-0.27844 0.46411,-0.27923 0.005,-10e-6 0.0105,0.002 0.016,0.002 0.005,-1.5e-4 0.0104,-0.002 0.0159,-0.002 0.19755,7.8e-4 0.37739,0.11104 0.46411,0.27923 l 1.79794,3.3216 c 0.0925,0.20117 0.29288,0.33923 0.52336,0.3602 0.23041,0.0184 0.45359,-0.0802 0.5864,-0.25955 0.13091,-0.18107 0.14856,-0.41524 0.0463,-0.61219 l -2.68667,-5.29588 c 0.26582,-0.22094 0.41942,-0.54806 0.41929,-0.89293 -3.7e-4,-0.49226 -0.31196,-0.93089 -0.77781,-1.09498 v -0.45252 c 0.003,-0.21679 -0.17586,-0.39309 -0.39499,-0.38971 z m 0.006,1.16232 c 0.42958,1e-5 0.77782,0.34693 0.77782,0.77489 0,0.42795 -0.34824,0.77488 -0.77782,0.77488 -0.42958,0 -0.77782,-0.34693 -0.77782,-0.77488 0,-0.42796 0.34824,-0.77489 0.77782,-0.77489 z"
     style="opacity:0.1;fill:#000000"
     id="path4146" />
  <path
     style="fill:#ff8802;fill-opacity:1"
     d="m 11.49392,10.00012 c -0.21437,0.003 -0.3856,0.17763 -0.38283,0.38971 v 0.45328 c -0.4656,0.16399 -0.77713,0.60224 -0.77782,1.09422 5.1e-4,0.34446 0.15436,0.67096 0.42005,0.89141 l -2.68742,5.2974 c -0.10223,0.19695 -0.0846,0.43112 0.0463,0.61219 0.13281,0.17937 0.35599,0.27796 0.5864,0.25955 0.23048,-0.021 0.43088,-0.15903 0.52336,-0.3602 l 1.79794,-3.3216 c 0.0867,-0.16819 0.26656,-0.27844 0.46411,-0.27923 0.005,-10e-6 0.0105,0.002 0.016,0.002 0.005,-1.5e-4 0.0104,-0.002 0.0159,-0.002 0.19755,7.8e-4 0.37739,0.11104 0.46411,0.27923 l 1.79794,3.3216 c 0.0925,0.20117 0.29288,0.33923 0.52336,0.3602 0.23041,0.0184 0.45359,-0.0802 0.5864,-0.25955 0.13091,-0.18107 0.14856,-0.41524 0.0463,-0.61219 l -2.68667,-5.29588 c 0.26582,-0.22094 0.41942,-0.54806 0.41929,-0.89293 -3.7e-4,-0.49226 -0.31196,-0.93089 -0.77781,-1.09498 v -0.45252 c 0.003,-0.21679 -0.17586,-0.39309 -0.39499,-0.38971 z m 0.006,1.16232 c 0.42958,10e-6 0.77782,0.34693 0.77782,0.77489 0,0.42795 -0.34824,0.77488 -0.77782,0.77488 -0.42958,0 -0.77782,-0.34693 -0.77782,-0.77488 0,-0.42796 0.34824,-0.77489 0.77782,-0.77489 z"
     id="path2978" />
  <path
     style="fill:#ff8802;fill-opacity:1"
     d="m 16.67613,11.00007 h -0.60048 c -0.0418,0 -0.0756,0.0858 -0.0756,0.12305 v 7.80357 c -8e-5,0.0356 0.031,0.0652 0.0709,0.0674 h 0.61939 c 0.72408,-0.002 1.3097,-0.52582 1.30969,-1.17079 V 9.74509 c 2e-5,0.64992 -0.59425,1.25968 -1.32388,1.255 z"
     id="path2984" />
  <path
     d="M 9.5,6.5 C 9.22386,6.5 9,6.72386 9,7 9,7.27614 9.22386,7.5 9.5,7.5 9.77614,7.5 10,7.27614 10,7 10,6.72386 9.77614,6.5 9.5,6.5 Z m 4,0 C 13.22386,6.5 13,6.72386 13,7 13,7.27614 13.22386,7.5 13.5,7.5 13.77614,7.5 14,7.27614 14,7 14,6.72386 13.77614,6.5 13.5,6.5 Z"
     style="opacity:0.2;fill:#000000;fill-opacity:1;stroke-width:4;stroke-linecap:square"
     id="path4316" />
  <path
     id="path4278"
     style="fill:#ffffff;fill-opacity:1;stroke-width:4;stroke-linecap:square"
     d="M 9.5,6 C 9.22386,6 9,6.22386 9,6.5 9,6.77614 9.22386,7 9.5,7 9.77614,7 10,6.77614 10,6.5 10,6.22386 9.77614,6 9.5,6 Z m 4,0 C 13.22386,6 13,6.22386 13,6.5 13,6.77614 13.22386,7 13.5,7 13.77614,7 14,6.77614 14,6.5 14,6.22386 13.77614,6 13.5,6 Z" />
  <path
     id="path1040"
     style="opacity:0.2;fill:#ffffff;stroke-width:4;stroke-linecap:square"
     d="M 5.5,1 C 3.0070049,1 1,3.0070048 1,5.5 V 6 C 1,3.5070048 3.0070049,1.5 5.5,1.5 h 11 C 18.992996,1.5 21,3.5070048 21,6 V 5.5 C 21,3.0070048 18.992996,1 16.5,1 Z" />
</svg>
