<?xml version="1.0" encoding="UTF-8" standalone="no"?>
<!-- Created with Inkscape (http://www.inkscape.org/) -->

<svg
   width="22"
   height="22"
   viewBox="0 0 22 22"
   version="1.1"
   id="svg5"
   inkscape:version="1.3.2 (091e20ef0f, 2023-11-25, custom)"
   sodipodi:docname="asc-de.svg"
   xmlns:inkscape="http://www.inkscape.org/namespaces/inkscape"
   xmlns:sodipodi="http://sodipodi.sourceforge.net/DTD/sodipodi-0.dtd"
   xmlns="http://www.w3.org/2000/svg"
   xmlns:svg="http://www.w3.org/2000/svg">
  <sodipodi:namedview
     id="namedview7"
     pagecolor="#ffffff"
     bordercolor="#000000"
     borderopacity="0.25"
     inkscape:showpageshadow="2"
     inkscape:pageopacity="0.0"
     inkscape:pagecheckerboard="0"
     inkscape:deskcolor="#d1d1d1"
     inkscape:document-units="px"
     showgrid="false"
     inkscape:zoom="36.545455"
     inkscape:cx="10.986318"
     inkscape:cy="11"
     inkscape:window-width="1920"
     inkscape:window-height="1008"
     inkscape:window-x="0"
     inkscape:window-y="0"
     inkscape:window-maximized="1"
     inkscape:current-layer="svg5" />
  <defs
     id="defs2" />
  <rect
     style="opacity:0.2;fill:#000000;stroke-width:1.42857;stroke-linecap:square"
     id="rect234"
     width="20"
     height="20"
     x="1"
     y="1.5"
     ry="4.5" />
  <rect
     style="fill:#efefef;fill-opacity:1;stroke-width:1.42857;stroke-linecap:square"
     id="rect396"
     width="20"
     height="20"
     x="1"
     y="1"
     ry="4.5" />
  <path
     style="opacity:0.2;fill:#000000;stroke-width:0.480384"
     d="m 11.000273,11.500001 c -0.397977,-7.1e-5 -0.795973,0.08615 -1.090484,0.257948 l -4.4682973,2.606066 c -0.5890215,0.343593 -0.5884745,0.92863 5.538e-4,1.272224 l 4.4677485,2.606066 c 0.589022,0.343594 1.591948,0.343594 2.180968,0 l 4.46775,-2.606066 c 0.58902,-0.343593 0.588465,-0.928631 -5.54e-4,-1.272224 L 12.09077,11.757949 c -0.294511,-0.171797 -0.692507,-0.257878 -1.090484,-0.257948 z"
     id="path1" />
  <path
     style="fill:#ea6e41;stroke-width:0.480384"
     d="m 11.000273,11.000001 c -0.397977,-7.1e-5 -0.795973,0.08615 -1.090484,0.257948 l -4.4682973,2.606066 c -0.5890215,0.343593 -0.5884745,0.92863 5.538e-4,1.272224 l 4.4677485,2.606066 c 0.589022,0.343594 1.591948,0.343594 2.180968,0 l 4.46775,-2.606066 c 0.58902,-0.343593 0.588465,-0.928631 -5.54e-4,-1.272224 L 12.09077,11.257949 c -0.294511,-0.171797 -0.692507,-0.257878 -1.090484,-0.257948 z"
     id="path2" />
  <path
     style="opacity:0.2;fill:#ffffff;stroke-width:0.480384"
     d="m 10.999995,11 c -0.397977,-7.1e-5 -0.795333,0.08601 -1.089843,0.257813 L 5.4417049,13.864258 C 5.0397947,14.098704 4.919078,14.444136 5.0658038,14.75 5.133985,14.607673 5.2546754,14.473357 5.4417049,14.364258 L 9.910152,11.757813 c 0.29451,-0.171798 0.691866,-0.257884 1.089843,-0.257813 0.397976,7e-5 0.796234,0.08601 1.090744,0.257813 l 4.467546,2.606445 c 0.18711,0.109147 0.307591,0.243345 0.3759,0.385742 0.146542,-0.30591 0.02609,-0.651249 -0.3759,-0.885742 L 12.090739,11.257813 C 11.796229,11.086015 11.397971,11.00007 10.999995,11 Z"
     id="path3" />
  <path
     style="opacity:0.2;fill:#000000;stroke-width:0.480384"
     d="M 11.000273,8 C 10.602296,7.99993 10.2043,8.08615 9.909789,8.257948 l -4.4682973,2.606067 c -0.5890215,0.343594 -0.5884745,0.92863 5.538e-4,1.272225 l 4.4677485,2.606064 c 0.589022,0.343594 1.591948,0.343594 2.180968,0 l 4.46775,-2.606065 c 0.58902,-0.343593 0.588465,-0.928632 -5.54e-4,-1.272225 L 12.090757,8.257948 C 11.796246,8.086151 11.39825,8.00007 11.000273,8 Z"
     id="path4" />
  <path
     style="fill:#aed351;stroke-width:0.480384"
     d="M 11.000273,7.5 C 10.602296,7.49993 10.2043,7.58615 9.909789,7.757948 l -4.4682973,2.606067 c -0.5890215,0.343594 -0.5884745,0.92863 5.538e-4,1.272225 l 4.4677485,2.606064 c 0.589022,0.343594 1.591948,0.343594 2.180968,0 l 4.46775,-2.606065 c 0.58902,-0.343593 0.588465,-0.928632 -5.54e-4,-1.272225 L 12.090757,7.757948 C 11.796246,7.586152 11.39825,7.500071 11.000273,7.5 Z"
     id="path5" />
  <path
     style="opacity:0.2;fill:#ffffff;stroke-width:0.480384"
     d="m 10.999995,7.5 c -0.397977,-7e-5 -0.795333,0.08602 -1.089843,0.257813 L 5.4417049,10.364258 C 5.0397947,10.598705 4.919078,10.944136 5.0658038,11.25 5.133985,11.107673 5.2546754,10.973358 5.4417049,10.864258 L 9.910152,8.257813 C 10.204662,8.086015 10.602018,7.99993 10.999995,8 c 0.397976,7.1e-5 0.796234,0.08601 1.090744,0.257813 l 4.467546,2.606445 c 0.18711,0.109147 0.307591,0.243345 0.3759,0.385742 0.146542,-0.30591 0.02609,-0.651249 -0.3759,-0.885742 L 12.090739,7.757813 C 11.796229,7.586016 11.397971,7.500071 10.999995,7.5 Z"
     id="path6" />
  <path
     style="opacity:0.2;fill:#000000;stroke-width:0.480384"
     d="M 11.000273,4.5 C 10.602296,4.4999295 10.2043,4.586151 9.909789,4.7579485 L 5.4414917,7.364015 c -0.5890215,0.343593 -0.5884745,0.92863 5.538e-4,1.272224 l 4.4677485,2.606066 c 0.589022,0.343594 1.591948,0.343593 2.180968,0 l 4.46775,-2.606066 c 0.58902,-0.343594 0.588465,-0.928631 -5.54e-4,-1.272224 L 12.090757,4.7579485 C 11.796246,4.5861515 11.39825,4.5000705 11.000273,4.5 Z"
     id="path7" />
  <path
     style="fill:#3b9dda;stroke-width:0.480384"
     d="M 11.000273,4 C 10.602296,3.9999297 10.2043,4.086151 9.909789,4.2579485 L 5.4414917,6.8640145 C 4.8524702,7.207609 4.8530172,7.792645 5.4420455,8.136239 l 4.4677485,2.606066 c 0.589022,0.343594 1.591948,0.343593 2.180968,0 l 4.46775,-2.606066 c 0.58902,-0.343593 0.588465,-0.928631 -5.54e-4,-1.2722245 L 12.090757,4.2579485 C 11.796246,4.0861515 11.39825,4.0000705 11.000273,4 Z"
     id="path8" />
  <path
     style="opacity:0.2;fill:#ffffff;stroke-width:0.480384"
     d="M 10.999995,4 C 10.602018,3.9999297 10.204662,4.086016 9.910152,4.2578125 L 5.4417049,6.864258 C 5.0397947,7.098705 4.919078,7.444136 5.0658038,7.75 5.133985,7.607674 5.2546754,7.473358 5.4417049,7.364258 L 9.910152,4.7578125 C 10.204662,4.5860155 10.602018,4.4999295 10.999995,4.5 c 0.397976,7.05e-5 0.796234,0.086016 1.090744,0.2578125 l 4.467546,2.6064455 c 0.18711,0.109147 0.307591,0.243346 0.3759,0.385742 0.146542,-0.30591 0.02609,-0.651249 -0.3759,-0.885742 L 12.090739,4.2578125 C 11.796229,4.0860155 11.397971,4.0000705 10.999995,4 Z"
     id="path9" />
  <path
     id="path1040"
     style="opacity:0.2;fill:#ffffff;stroke-width:4;stroke-linecap:square"
     d="M 5.5,1 C 3.007005,1 1,3.007005 1,5.5 V 6 C 1,3.507005 3.007005,1.5 5.5,1.5 h 11 C 18.992996,1.5 21,3.507005 21,6 V 5.5 C 21,3.007005 18.992996,1 16.5,1 Z" />
</svg>
