<?xml version="1.0" encoding="UTF-8" standalone="no"?>
<!-- Created with Inkscape (http://www.inkscape.org/) -->

<svg
   width="22"
   height="22"
   viewBox="0 0 22 22"
   version="1.1"
   id="svg5"
   inkscape:version="1.3 (0e150ed6c4, 2023-07-21)"
   sodipodi:docname="BadlionClient.svg"
   xmlns:inkscape="http://www.inkscape.org/namespaces/inkscape"
   xmlns:sodipodi="http://sodipodi.sourceforge.net/DTD/sodipodi-0.dtd"
   xmlns="http://www.w3.org/2000/svg"
   xmlns:svg="http://www.w3.org/2000/svg">
  <sodipodi:namedview
     id="namedview7"
     pagecolor="#ffffff"
     bordercolor="#000000"
     borderopacity="0.25"
     inkscape:showpageshadow="2"
     inkscape:pageopacity="0.0"
     inkscape:pagecheckerboard="0"
     inkscape:deskcolor="#d1d1d1"
     inkscape:document-units="px"
     showgrid="false"
     inkscape:zoom="36.5"
     inkscape:cx="11"
     inkscape:cy="11"
     inkscape:window-width="1850"
     inkscape:window-height="1011"
     inkscape:window-x="70"
     inkscape:window-y="32"
     inkscape:window-maximized="1"
     inkscape:current-layer="svg5" />
  <defs
     id="defs2" />
  <rect
     style="opacity:0.2;fill:#000000;stroke-width:1.42857;stroke-linecap:square"
     id="rect234"
     width="20"
     height="20"
     x="1"
     y="1.5"
     ry="4.5" />
  <rect
     style="fill:#10a5f1;fill-opacity:1;stroke-width:1.42857;stroke-linecap:square"
     id="rect396"
     width="20"
     height="20"
     x="1"
     y="1"
     ry="4.5" />
  <path
     style="opacity:0.1;fill:#000000"
     d="m 11.474741,18.000004 c -0.130752,-0.377487 -0.300449,-1.005966 -0.379651,-0.264244 -0.06625,0.444489 -0.190702,-0.689147 -0.302159,-9.5e-4 -0.06851,0.1217 -0.04196,-0.86915 -0.254495,-0.312276 -0.05401,0.730986 -0.570761,0.269965 -0.722235,-0.03684 -0.141985,0.519231 -0.03622,-0.350488 -0.247088,0.11246 C 9.112991,18.283119 9.455372,16.348758 8.9587092,17.194073 8.6505807,17.686746 8.8175112,16.973864 8.5294082,17.004705 8.1495703,17.326353 8.2099768,16.513891 7.7298928,16.690929 7.5453933,16.413587 7.4257018,15.781897 7.0144159,16.013975 7.1480928,15.511068 6.5642069,15.113034 6.2758084,14.873052 5.9486844,15.024949 5.7590225,14.996564 5.9652499,14.614802 6.1333919,14.240855 5.8516309,13.995603 5.8344769,13.614285 5.364538,13.614447 5.9939129,12.909562 5.381187,13.049974 5.319407,12.815362 5.9273174,12.416344 5.295286,12.413038 5.053702,12.253739 5.8416999,11.884935 5.242182,12.010288 5.5971055,11.825058 4.7371285,11.513587 5.0843715,11.274024 5.7111795,11.116055 5.0036745,10.873338 5.1278765,10.843524 5.5037745,10.724645 4.849537,10.567521 5.276166,10.495925 5.1516705,10.181407 4.897472,10.088481 5.153784,9.712941 5.0914995,9.338341 4.878494,8.8940767 5.194114,8.5810027 5.022593,8.2853477 4.907201,8.2018887 5.253067,8.0233937 5.265607,7.473269 5.5369815,6.8960135 5.545352,6.3715491 6.0080469,6.0368131 6.1321204,5.2985001 6.7516934,5.1944312 7.1898928,4.8224042 7.9404778,4.8712812 8.4168657,4.6041002 8.6033627,4.7847387 8.9887822,4.4749307 9.103033,4.5016437 c 0.276475,0.3812815 0.945152,-0.2983425 1.228385,0.28873 0.276252,0.296706 0.361585,-0.533204 0.551428,-0.010725 0.22586,0.3586365 0.547358,-0.463606 0.807452,0.00305 0.66197,-0.04812 1.328668,-0.1099865 1.982535,-0.216314 0.112853,0.4801825 0.726689,-0.408292 0.59097,0.25821 0.524866,0.217368 1.204293,0.180724 1.511676,0.7414844 0.249519,0.3272055 0.808283,0.7276545 0.608698,1.0553639 0.393084,0.09026 0.28106,0.3061095 0.237659,0.5384855 -0.09008,0.361048 0.34526,0.6705979 0.122505,1.0119512 0.419425,0.339994 -0.257977,0.677485 0.202336,1.0334763 0.2402,0.225523 -0.425822,0.203606 -0.137901,0.590001 0.294201,0.360964 -0.128464,0.386851 -0.134142,0.72427 0.518512,0.01165 -0.347623,0.25166 0.215183,0.374893 -0.569628,3.71e-4 -0.04447,0.362539 0.0083,0.51552 -0.08181,0.300324 -0.389748,0.487727 -0.223587,0.62317 -0.650656,-0.218369 0.477549,0.447456 -0.24576,0.44993 -0.358806,0.06108 0.559532,0.699133 -0.118999,0.588981 -0.251621,0.129377 0.292401,0.573062 -0.223618,0.544378 -0.0465,0.300197 -0.09708,0.573855 -0.303638,0.743707 0.0671,0.323516 0.348928,0.957739 -0.251796,0.62091 -0.263321,-0.101537 -0.654984,0.333497 -0.677313,0.595057 0.08401,0.311342 0.127626,0.608394 -0.263745,0.331508 -0.462249,0.06976 -0.211301,0.897346 -0.828676,0.701036 -0.142137,0.352168 -0.269303,0.35548 -0.573929,0.27887 -0.0122,0.414065 -0.07368,0.865685 -0.417035,0.341953 -0.309507,-0.474239 -0.168349,0.744258 -0.477316,0.154918 -0.320479,-0.602593 -0.0061,0.749767 -0.28415,0.10389 C 11.910685,17.779873 11.724786,17.944239 11.474794,18 Z"
     id="path3" />
  <path
     style="fill:#2c2c2c"
     d="m 11.474741,17.500006 c -0.130752,-0.377486 -0.300449,-1.005965 -0.379651,-0.264244 -0.06625,0.44449 -0.190702,-0.689147 -0.302159,-9.5e-4 -0.06851,0.1217 -0.04196,-0.869149 -0.254495,-0.312275 -0.05401,0.730986 -0.570761,0.269964 -0.722235,-0.03684 -0.141985,0.51923 -0.03622,-0.350489 -0.247088,0.11246 C 9.112991,17.783121 9.455372,15.84876 8.9587092,16.694076 8.6505807,17.186748 8.8175112,16.473867 8.5294082,16.504708 8.1495703,16.826356 8.2099768,16.013893 7.7298928,16.190931 7.5453933,15.91359 7.4257018,15.281899 7.0144159,15.513978 7.1480928,15.011071 6.5642069,14.613037 6.2758084,14.373054 5.9486844,14.524951 5.7590225,14.496566 5.9652499,14.114805 6.1333919,13.740857 5.8516309,13.495605 5.8344769,13.114288 5.364538,13.114449 5.9939129,12.409564 5.381187,12.549977 5.3194065,12.315364 5.9273174,11.916347 5.2952865,11.91304 5.0537025,11.753741 5.8417004,11.384938 5.242182,11.51029 5.5971055,11.32506 4.7371285,11.013589 5.0843715,10.774027 5.7111795,10.616058 5.003674,10.373341 5.1278765,10.343526 5.5037745,10.224648 4.849537,10.067523 5.276166,9.995928 5.1516705,9.68141 4.897472,9.588484 5.153784,9.212944 5.0914995,8.8383427 4.878494,8.3940797 5.194114,8.0810057 5.022593,7.7853499 4.907201,7.701891 5.253067,7.5233965 5.265607,6.9732715 5.5369815,6.3960161 5.545352,5.8715516 6.0080469,5.5368156 6.1321204,4.7985027 6.7516934,4.6944337 7.1898928,4.3224067 7.9404778,4.3712837 8.4168657,4.1041027 8.6033627,4.2847412 8.9887822,3.9749333 9.103033,4.0016463 c 0.276475,0.3812814 0.945152,-0.2983425 1.228385,0.2887299 0.276252,0.296706 0.361585,-0.5332039 0.551428,-0.010725 0.22586,0.3586365 0.547358,-0.4636059 0.807452,0.00305 0.66197,-0.04812 1.328668,-0.1099865 1.982535,-0.216314 0.112853,0.4801825 0.726689,-0.4082919 0.59097,0.25821 0.524866,0.217368 1.204293,0.180724 1.511676,0.7414845 0.249519,0.3272054 0.808283,0.7276544 0.608698,1.0553639 0.393084,0.09026 0.28106,0.3061095 0.237659,0.5384854 -0.09008,0.361048 0.34526,0.670598 0.122505,1.0119515 0.419425,0.3399942 -0.257977,0.6774842 0.202336,1.0334762 0.2402,0.225522 -0.425822,0.203606 -0.137901,0.5900013 0.294201,0.360963 -0.128464,0.38685 -0.134142,0.724269 0.518512,0.01165 -0.347623,0.25166 0.215183,0.374893 -0.569628,3.72e-4 -0.04447,0.36254 0.0083,0.51552 -0.08181,0.300324 -0.389748,0.487728 -0.223587,0.62317 -0.650656,-0.218368 0.477549,0.447456 -0.24576,0.44993 -0.358806,0.06108 0.559532,0.699133 -0.118999,0.588982 -0.251621,0.129377 0.292401,0.573061 -0.223618,0.544378 -0.0465,0.300196 -0.09708,0.573855 -0.303638,0.743707 0.0671,0.323515 0.348928,0.957738 -0.251796,0.62091 -0.263321,-0.101537 -0.654984,0.333497 -0.677313,0.595057 0.08401,0.311342 0.127626,0.608394 -0.263745,0.331507 -0.462249,0.06976 -0.211301,0.897346 -0.828676,0.701036 -0.142137,0.352169 -0.269303,0.35548 -0.573929,0.27887 -0.0122,0.414066 -0.07368,0.865685 -0.417035,0.341954 -0.309507,-0.47424 -0.168349,0.744258 -0.477316,0.154918 -0.320479,-0.602593 -0.0061,0.749767 -0.28415,0.10389 -0.09787,0.291524 -0.283769,0.455891 -0.533761,0.511651 z"
     id="path4" />
  <path
     style="opacity:0.2;fill:#000000"
     d="M 10.862581,7.001021 C 10.820521,7.007691 10.776171,7.048736 10.72473,7.1550215 10.339962,6.592432 10.198042,7.9429129 9.993202,7.2241245 9.808309,6.734672 9.931402,7.8696339 9.635708,7.350484 9.331652,6.8855365 9.112599,7.1042675 8.8692577,7.4610485 8.3431817,7.636899 7.7907893,7.9299854 7.5376188,8.5114107 L 7.2067763,8.9191177 C 6.6243869,9.22161 7.9717263,9.878577 7.0542213,9.843121 c 0.339055,0.153302 0.4964135,0.288944 0.056978,0.480758 -0.1977154,0.327874 0.114131,0.667599 -0.1111994,1.010875 0.1262484,0.318551 0.7388924,0.386082 0.1222274,0.5854 -0.2831604,0.143574 0.603716,0.01891 0.1957485,0.308988 -0.7035084,0.558921 0.349117,0.783154 0.46226,1.373171 0.5628449,0.48837 1.2359072,0.818127 1.8563912,1.217197 0.276501,-0.340959 0.196169,-0.06909 0.352898,0.210269 0.186978,-0.277339 0.211556,-0.355797 0.326248,0.06812 0.117944,0.5357 0.598537,-0.39521 0.601029,0.320835 0.01319,0.212381 0.06806,-0.05378 0.115795,-0.09576 0.113675,-0.184114 0.408464,0.379938 0.435608,-0.151039 0.101915,-0.282171 0.249116,-0.826056 0.352898,-0.219154 0.228741,0.543687 0.04803,-0.624274 0.339113,-0.005 0.48296,-0.173424 0.972179,-0.58265 1.456624,-0.84799 0.216814,-0.144697 0.490562,-0.230216 0.559675,-0.526169 0.204901,-0.509861 1.102181,-0.818611 0.442042,-1.358363 -0.326905,-0.309962 0.690251,-0.136931 0.09098,-0.358348 -0.625932,-0.180895 0.678939,-0.35797 0.113038,-0.757169 0.244543,-0.118879 0.234592,-0.244928 -0.0193,-0.331693 0.604143,-0.440184 -0.794072,-0.646851 0.0055,-0.851939 C 15.131389,9.738178 14.122847,9.89084 14.698494,9.502481 14.906241,9.346847 14.960351,9.061639 14.816127,9.129325 L 14.545022,8.7907207 c -0.0095,-0.04436 -0.04043,-0.08784 -0.103848,-0.12932 C 14.034206,8.1690407 13.656464,7.629696 13.020391,7.5123195 12.707193,7.239521 12.509362,6.8113785 12.167554,7.3405495 11.820823,7.8403534 11.982474,6.629923 11.776057,7.2872415 11.62516,7.8766599 11.535085,6.9702725 11.307365,7.002933 11.094008,7.2666185 10.988728,6.980928 10.862567,7.000983 Z"
     id="path5" />
  <path
     style="fill:#ffae15"
     d="m 10.862581,6.5010236 c -0.04206,0.00667 -0.08641,0.047715 -0.137851,0.1540004 C 10.339962,6.0924346 10.198042,7.4429155 9.993202,6.724127 9.808309,6.2346746 9.931402,7.3696365 9.635708,6.8504865 9.331652,6.3855391 9.112599,6.60427 8.8692577,6.961051 8.3431817,7.1369015 7.7907893,7.429988 7.5376188,8.0114137 l -0.3308425,0.407706 c -0.5823894,0.302493 0.76495,0.9594603 -0.152555,0.9240043 0.339055,0.153302 0.4964135,0.288944 0.056978,0.480758 -0.1977154,0.327874 0.114131,0.667599 -0.1111994,1.010875 0.1262484,0.318551 0.7388924,0.386082 0.1222274,0.585399 -0.2831604,0.143574 0.603716,0.01891 0.1957485,0.308988 -0.7035084,0.558922 0.349117,0.783154 0.46226,1.373172 0.5628449,0.48837 1.2359072,0.818127 1.8563912,1.217196 0.276501,-0.340958 0.196169,-0.06909 0.352898,0.21027 0.186978,-0.277339 0.211556,-0.355797 0.326248,0.06812 0.117944,0.535699 0.598537,-0.39521 0.601029,0.320834 0.01319,0.212382 0.06806,-0.05378 0.115795,-0.09576 0.113675,-0.184114 0.408464,0.379938 0.435608,-0.151039 0.101915,-0.282171 0.249116,-0.826055 0.352898,-0.219154 0.228741,0.543687 0.04803,-0.624273 0.339113,-0.005 0.48296,-0.173424 0.972179,-0.58265 1.456624,-0.84799 0.216814,-0.144696 0.490562,-0.230215 0.559675,-0.526168 0.204901,-0.509862 1.102181,-0.818611 0.442042,-1.358364 -0.326905,-0.309962 0.690251,-0.136931 0.09098,-0.358347 -0.625932,-0.180895 0.678939,-0.357971 0.113038,-0.757169 0.244543,-0.118879 0.234592,-0.244928 -0.0193,-0.331693 0.604143,-0.440185 -0.794072,-0.646852 0.0055,-0.851939 0.322614,-0.177932 -0.685928,-0.02527 -0.110281,-0.41363 0.207747,-0.1556343 0.261857,-0.4408423 0.117633,-0.3731553 l -0.271105,-0.338604 c -0.0095,-0.04436 -0.04043,-0.08784 -0.103848,-0.129321 C 14.034217,7.6690925 13.656475,7.1297475 13.020402,7.012371 12.707204,6.7395725 12.509373,6.3114301 12.167565,6.840601 11.820834,7.340405 11.982485,6.1299746 11.776068,6.787293 11.625171,7.3767115 11.535096,6.4703241 11.307376,6.5029846 11.094019,6.76667 10.988739,6.4809796 10.862578,6.5010346 Z"
     id="path6" />
  <path
     style="opacity:0.2;fill:#ffffff"
     d="m 10.862305,6.5009836 c -0.04205,0.00667 -0.08626,0.04801 -0.137695,0.1542969 C 10.339842,6.0926911 10.198004,7.4424285 9.993164,6.7236395 9.808272,6.2341871 9.931444,7.3697425 9.635742,6.8505925 9.331686,6.3856456 9.112482,6.6041635 8.8691407,6.9609445 8.3430647,7.136795 7.7912568,7.4303 7.5380863,8.0117257 l -0.331055,0.407227 c -0.2521024,0.130942 -0.141597,0.32699 -0.01074,0.505859 0.0037,-0.0021 0.00689,-0.0038 0.01074,-0.0059 l 0.331055,-0.407227 C 7.7912568,7.9302989 8.3430647,7.636794 8.8691407,7.4609435 9.112482,7.1041625 9.331686,6.8856445 9.635742,7.350592 9.931441,7.8697419 9.808272,6.7341865 9.993164,7.223639 10.198004,7.9424274 10.339842,6.59269 10.72461,7.15528 c 0.05144,-0.1062855 0.09564,-0.147622 0.137695,-0.154297 0.126161,-0.020055 0.231955,0.2656385 0.445312,0.00195 0.22772,-0.03266 0.317852,0.8735984 0.46875,0.28418 0.206417,-0.6573185 0.04487,0.5535149 0.391602,0.053711 0.341807,-0.529171 0.53934,-0.1009235 0.852539,0.171875 0.636072,0.1173765 1.01393,0.6560787 1.420898,1.1484377 0.06342,0.04148 0.09402,0.08552 0.103516,0.129883 l 0.163086,0.203125 c 0.198964,-0.157198 0.25014,-0.431756 0.108398,-0.365235 l -0.271484,-0.33789 c -0.0095,-0.04436 -0.0401,-0.0884 -0.103516,-0.129883 C 14.034438,7.6687765 13.65658,7.130075 13.020508,7.0126985 12.707309,6.7399 12.509776,6.3116526 12.167969,6.8408235 11.821238,7.3406275 11.982784,6.1297941 11.776367,6.7871125 11.625469,7.376531 11.535337,6.4702721 11.307617,6.5029326 11.09426,6.766618 10.988466,6.4809226 10.862305,6.5009836 Z m 3.984374,2.8300784 c -0.01755,0.03137 -0.03887,0.0633 -0.06543,0.09375 0.01014,-0.0028 0.01638,-0.006 0.02735,-0.0088 0.08065,-0.04449 0.07827,-0.06818 0.03808,-0.08496 z m -7.7089832,0.01074 c -0.027,4.35e-4 -0.050512,0.0023 -0.083008,0.001 0.04725,0.02136 0.088859,0.04358 0.1279295,0.06445 -0.01564,-0.02182 -0.03085,-0.0433 -0.04492,-0.06543 z m 7.4326162,0.263672 c -0.166689,0.17104 0.118742,0.182748 0.245117,0.217773 -0.09587,-0.08145 -0.206708,-0.153166 -0.245117,-0.217773 z m -7.2109367,0.05567 c -0.034395,0.05046 -0.1130735,0.10417 -0.248047,0.163086 -0.00365,0.0061 -0.00546,0.01245 -0.00879,0.01855 0.280163,0.0026 0.313925,-0.07085 0.256836,-0.18164 z M 7.0927738,9.861339 c -0.086306,0.176345 -0.040315,0.355406 -0.01758,0.53711 0.00957,-0.0249 0.0212,-0.04945 0.036135,-0.07422 0.421615,-0.184035 0.291957,-0.317063 -0.018555,-0.462891 z m 7.7753902,0.0078 c -0.0073,0.01267 -0.02439,0.02747 -0.05957,0.04687 -0.624677,0.160225 0.09207,0.321978 0.14746,0.594727 0.09032,-0.09014 0.03903,-0.17679 -0.152343,-0.242188 0.220148,-0.160402 0.172841,-0.289804 0.06445,-0.399414 z m 0.03906,0.802735 c -0.02463,0.03089 -0.05754,0.06318 -0.103516,0.09668 0.07272,0.02485 0.122825,0.0528 0.155274,0.08301 0.01989,-0.05414 0.0097,-0.113756 -0.05176,-0.179687 z m -7.8544917,0.05566 c -0.012995,0.03563 -0.029285,0.0717 -0.052734,0.107422 0.01855,0.04681 0.04792,0.08781 0.082031,0.124999 -0.00631,-0.07794 -0.01935,-0.15527 -0.029295,-0.232421 z m 7.8408197,0.71582 c -0.01591,0.01584 -0.03285,0.03099 -0.05176,0.0459 0.04635,-0.0099 0.07452,-0.02318 0.05176,-0.0459 z m -7.8183587,0.0088 c -0.018855,0.0203 0.0023,0.0319 0.04004,0.04102 -0.01382,-0.01307 -0.027465,-0.0268 -0.04004,-0.04102 z m 7.5068347,0.221679 c -0.07425,0.06585 -0.07577,0.124723 0.12793,0.183594 0.03502,0.01294 0.04769,0.01985 0.07227,0.03027 -0.038,-0.05506 -0.09043,-0.112646 -0.164063,-0.172851 -0.01614,-0.0153 -0.02619,-0.02796 -0.03613,-0.04101 z m -7.2207022,0.02051 c -0.013115,0.01118 -0.025085,0.02244 -0.04297,0.03515 -0.082894,0.06586 -0.140171,0.126861 -0.178711,0.184571 0.2616595,-0.08709 0.2862965,-0.149466 0.2216795,-0.219727 z m -0.262695,0.295899 c -0.050986,0.130682 9.5e-4,0.244152 0.094727,0.356445 0.03376,-0.03765 0.073434,-0.07622 0.125,-0.117188 0.3007105,-0.213818 -0.100548,-0.202597 -0.219727,-0.239257 z m 7.7382802,0 c -0.133062,0.02744 -0.413826,0.03965 -0.21875,0.224609 0.05997,0.04903 0.103698,0.09606 0.139649,0.141602 0.08283,-0.116526 0.125464,-0.23543 0.0791,-0.366211 z"
     id="path7" />
  <path
     style="fill:#2c2c2c"
     d="M 6.5087894,7.1660215 6.1435549,7.5078185 8.0000003,9.4961 v 0.753906 L 10,9.750006 v -0.25 h 2 v 0.25 l 2,0.5 V 9.4961 L 15.856445,7.5078185 15.491211,7.1660215 14,8.7636777 v -0.513672 l -2,0.5 V 9.000006 H 10 V 8.7500057 l -1.9999997,-0.5 v 0.513672 z"
     id="path8" />
  <path
     style="fill:#2c2c2c"
     d="m 9.5,11.000007 c 0,0 0.900601,0.585264 1.361328,0.876953 v 0.951172 c -0.169847,0.310652 -0.916116,0.217883 -1.0625,0.52539 0.369241,-0.03273 0.72469,-0.166539 1.083985,-0.255859 0.402297,-0.0018 0.801537,0.212542 1.21289,0.232422 0.153362,-0.190984 -0.790515,-0.271058 -1.061523,-0.433594 0.0079,-0.338718 0.02539,-1.016601 0.02539,-1.016601 L 12.5,11.000007 Z m -0.125,0.75 a 0.12499999,0.12499999 0 0 0 -0.125,0.125 0.12499999,0.12499999 0 0 0 0.125,0.125 0.12499999,0.12499999 0 0 0 0.125,-0.125 0.12499999,0.12499999 0 0 0 -0.125,-0.125 z m 0.5,0 a 0.12499999,0.12499999 0 0 0 -0.125,0.125 0.12499999,0.12499999 0 0 0 0.125,0.125 0.12499999,0.12499999 0 0 0 0.125,-0.125 0.12499999,0.12499999 0 0 0 -0.125,-0.125 z m 0.5,0 a 0.12499999,0.12499999 0 0 0 -0.125,0.125 0.12499999,0.12499999 0 0 0 0.125,0.125 0.12499999,0.12499999 0 0 0 0.125,-0.125 0.12499999,0.12499999 0 0 0 -0.125,-0.125 z m 1.25,0 a 0.12499999,0.12499999 0 0 0 -0.125,0.125 0.12499999,0.12499999 0 0 0 0.125,0.125 0.12499999,0.12499999 0 0 0 0.125,-0.125 0.12499999,0.12499999 0 0 0 -0.125,-0.125 z m 0.5,0 a 0.12499999,0.12499999 0 0 0 -0.125,0.125 0.12499999,0.12499999 0 0 0 0.125,0.125 0.12499999,0.12499999 0 0 0 0.125,-0.125 0.12499999,0.12499999 0 0 0 -0.125,-0.125 z m 0.5,0 a 0.12499999,0.12499999 0 0 0 -0.125,0.125 0.12499999,0.12499999 0 0 0 0.125,0.125 0.12499999,0.12499999 0 0 0 0.125,-0.125 0.12499999,0.12499999 0 0 0 -0.125,-0.125 z m -3.25,0.5 a 0.12499999,0.12499999 0 0 0 -0.125,0.125 0.12499999,0.12499999 0 0 0 0.125,0.125 0.12499999,0.12499999 0 0 0 0.125,-0.125 0.12499999,0.12499999 0 0 0 -0.125,-0.125 z m 0.5,0 a 0.12499999,0.12499999 0 0 0 -0.125,0.125 0.12499999,0.12499999 0 0 0 0.125,0.125 0.12499999,0.12499999 0 0 0 0.125,-0.125 0.12499999,0.12499999 0 0 0 -0.125,-0.125 z m 0.5,0 a 0.12499999,0.12499999 0 0 0 -0.125,0.125 0.12499999,0.12499999 0 0 0 0.125,0.125 0.12499999,0.12499999 0 0 0 0.125,-0.125 0.12499999,0.12499999 0 0 0 -0.125,-0.125 z m 1.25,0 a 0.12499999,0.12499999 0 0 0 -0.125,0.125 0.12499999,0.12499999 0 0 0 0.125,0.125 0.12499999,0.12499999 0 0 0 0.125,-0.125 0.12499999,0.12499999 0 0 0 -0.125,-0.125 z m 0.5,0 a 0.12499999,0.12499999 0 0 0 -0.125,0.125 0.12499999,0.12499999 0 0 0 0.125,0.125 0.12499999,0.12499999 0 0 0 0.125,-0.125 0.12499999,0.12499999 0 0 0 -0.125,-0.125 z m 0.5,0 a 0.12499999,0.12499999 0 0 0 -0.125,0.125 0.12499999,0.12499999 0 0 0 0.125,0.125 0.12499999,0.12499999 0 0 0 0.125,-0.125 0.12499999,0.12499999 0 0 0 -0.125,-0.125 z m -2.75,0.5 a 0.12499999,0.12499999 0 0 0 -0.125,0.125 0.12499999,0.12499999 0 0 0 0.125,0.125 0.12499999,0.12499999 0 0 0 0.125,-0.125 0.12499999,0.12499999 0 0 0 -0.125,-0.125 z m 2.25,0 a 0.12499999,0.12499999 0 0 0 -0.125,0.125 0.12499999,0.12499999 0 0 0 0.125,0.125 0.12499999,0.12499999 0 0 0 0.125,-0.125 0.12499999,0.12499999 0 0 0 -0.125,-0.125 z"
     id="path9" />
  <path
     id="path1040"
     style="opacity:0.2;fill:#ffffff;stroke-width:4;stroke-linecap:square"
     d="M 5.5,1 C 3.007005,1 1,3.007005 1,5.5 V 6 C 1,3.507005 3.007005,1.5 5.5,1.5 h 11 C 18.992996,1.5 21,3.507005 21,6 V 5.5 C 21,3.007005 18.992996,1 16.5,1 Z" />
</svg>
