<?xml version="1.0" encoding="UTF-8" standalone="no"?>
<!-- Created with Inkscape (http://www.inkscape.org/) -->

<svg
   width="22"
   height="22"
   viewBox="0 0 22 22"
   version="1.1"
   id="svg5"
   inkscape:version="1.4.3 (0d15f75042, 2025-12-25)"
   sodipodi:docname="blockbench.svg"
   xmlns:inkscape="http://www.inkscape.org/namespaces/inkscape"
   xmlns:sodipodi="http://sodipodi.sourceforge.net/DTD/sodipodi-0.dtd"
   xmlns="http://www.w3.org/2000/svg"
   xmlns:svg="http://www.w3.org/2000/svg">
  <sodipodi:namedview
     id="namedview7"
     pagecolor="#ffffff"
     bordercolor="#000000"
     borderopacity="0.25"
     inkscape:showpageshadow="2"
     inkscape:pageopacity="0.0"
     inkscape:pagecheckerboard="0"
     inkscape:deskcolor="#d1d1d1"
     inkscape:document-units="px"
     showgrid="false"
     inkscape:zoom="36.681818"
     inkscape:cx="10.986369"
     inkscape:cy="11"
     inkscape:window-width="1920"
     inkscape:window-height="1010"
     inkscape:window-x="0"
     inkscape:window-y="0"
     inkscape:window-maximized="1"
     inkscape:current-layer="svg5" />
  <defs
     id="defs2" />
  <rect
     style="opacity:0.2;fill:#000000;stroke-width:1.42857;stroke-linecap:square"
     id="rect234"
     width="20"
     height="20"
     x="1"
     y="1.5"
     ry="4.5" />
  <rect
     style="fill:#1d93d8;fill-opacity:1;stroke-width:1.42857;stroke-linecap:square"
     id="rect396"
     width="20"
     height="20"
     x="1"
     y="1"
     ry="4.5" />
  <path
     id="path3"
     style="opacity:0.2;fill:#000000"
     d="m 17.76713,6.0000384 c -0.166457,0.0014 -0.671929,0.038744 -2.3125,0.1503906 -0.615828,0.041905 -1.567068,0.1054617 -2.113281,0.1425782 -0.546213,0.037115 -1.435705,0.098011 -1.976563,0.1347656 C 10.823928,6.4645278 9.921205,6.5249398 9.358927,6.5625384 7.436972,6.6910589 7.5545312,6.6813007 7.4643958,6.7305072 7.3519107,6.7919152 7.2814469,6.9126359 7.2475989,7.1016009 c -0.01511,0.084359 -0.03673,0.1747094 -0.046875,0.2011719 -0.01014,0.02646 -0.023525,0.099964 -0.03125,0.1621094 -0.00772,0.062145 -0.026816,0.1457708 -0.041016,0.1855468 -0.014195,0.039775 -0.031247,0.1217748 -0.039062,0.1835938 -0.00782,0.061818 -0.025818,0.139794 -0.039063,0.171875 -0.013245,0.03208 -0.029534,0.1077764 -0.037109,0.1699218 -0.00758,0.062144 -0.025273,0.1449688 -0.039063,0.1835938 -0.01379,0.03863 -0.031023,0.1179918 -0.039063,0.1757812 -0.00804,0.05779 -0.025683,0.1363542 -0.039063,0.1738282 -0.01338,0.03747 -0.031013,0.1140855 -0.039063,0.171875 -0.00804,0.05779 -0.025683,0.1363541 -0.039063,0.1738281 -0.01338,0.03747 -0.031013,0.1160391 -0.039063,0.1738281 -0.00804,0.05779 -0.025683,0.134401 -0.039063,0.171875 -0.01338,0.03747 -0.031013,0.1160391 -0.039063,0.1738282 -0.00804,0.05779 -0.025683,0.1363541 -0.039063,0.1738281 -0.01338,0.03747 -0.031017,0.114086 -0.039063,0.171875 -0.00804,0.05779 -0.025683,0.1363537 -0.039063,0.1738277 -0.01338,0.03747 -0.031028,0.115825 -0.039063,0.173828 -0.00803,0.058 -0.022953,0.127835 -0.033203,0.154297 -0.010245,0.02646 -0.029707,0.116493 -0.044922,0.201172 -0.025775,0.143436 -0.025138,0.156349 0.00781,0.201172 0.06955,0.09461 0.152151,0.117553 0.7578125,0.195312 0.3180905,0.04084 0.8162972,0.10483 1.1054687,0.142578 0.2891715,0.03775 0.7893019,0.102515 1.1132809,0.144532 0.323979,0.04202 0.86012,0.111538 1.189454,0.154297 0.329335,0.04276 0.829465,0.108225 1.113281,0.144531 0.616926,0.07892 1.613202,0.207235 2.011719,0.259765 0.653393,0.08613 0.886663,0.117027 1.396484,0.183594 0.294526,0.03846 0.751275,0.09807 1.013672,0.132813 0.599218,0.07934 0.613122,0.07887 0.648438,0.02344 0.02733,-0.04289 0.06546,-0.211607 0.148437,-0.658203 0.0236,-0.127018 0.0632,-0.335873 0.08789,-0.462891 0.02469,-0.127018 0.0647,-0.329445 0.08789,-0.451172 0.0232,-0.121726 0.05821,-0.294794 0.07812,-0.384765 0.01992,-0.08997 0.04186,-0.197895 0.04883,-0.240235 0.01297,-0.078699 0.04692,-0.2509875 0.134765,-0.6933585 0.02733,-0.137603 0.06597,-0.3432932 0.08789,-0.4570312 0.02192,-0.1137375 0.05813,-0.3002255 0.08008,-0.4140625 0.02196,-0.113837 0.06081,-0.310481 0.08594,-0.4375 0.02513,-0.1270185 0.06532,-0.3269254 0.08789,-0.4433594 0.03726,-0.1922695 0.06327,-0.3284152 0.175781,-0.8945312 0.08409,-0.4231095 0.08881,-0.4700612 0.04687,-0.5410157 -0.02096,-0.035475 -0.06843,-0.079353 -0.103515,-0.099609 -0.0118,-0.00681 -0.01616,-0.014921 -0.02344,-0.019531 -0.01024,-0.00478 -0.03014,-0.00824 -0.08006,-0.00782 z M 5.999552,11.27543 c -0.07986,-8.5e-4 -0.1546649,0.0057 -0.2324219,0.01758 -0.1071,0.01641 -0.9456181,0.135477 -1.8613281,0.263672 -0.9157101,0.128196 -1.7016218,0.247047 -1.7480469,0.263671 -0.1968996,0.0705 -0.2134119,0.314133 -0.027344,0.40625 0.039942,0.01978 0.1251927,0.05185 0.1894531,0.07031 0.06426,0.01847 0.1392405,0.04056 0.1660156,0.04883 0.026775,0.0083 0.082159,0.02364 0.125,0.03516 0.1221608,0.03287 0.4391394,0.121412 0.5605469,0.15625 0.03481,0.01 0.097784,0.02728 0.140625,0.03906 0.04284,0.01178 0.1045887,0.02992 0.1367188,0.03906 0.094893,0.027 0.480835,0.134226 0.5546874,0.154297 0.037485,0.01019 0.1269258,0.03538 0.1992188,0.05664 0.072293,0.02126 0.1913794,0.05687 0.2636719,0.07813 0.072293,0.02126 0.1661443,0.04687 0.2089843,0.05859 0.04284,0.01173 0.1001787,0.02899 0.1269532,0.03711 0.026775,0.0081 0.084113,0.02385 0.1269531,0.03516 0.1825635,0.04819 0.3178321,0.08592 0.7597656,0.212891 0.2570415,0.07385 0.5461877,0.156063 0.6425781,0.181642 0.2888721,0.07665 1.62138,0.452339 1.8203126,0.513671 0.1017454,0.03137 0.2188782,0.06809 0.2617187,0.08008 0.04284,0.01199 0.1181296,0.03381 0.1660156,0.04883 0.04788,0.01502 0.1405062,0.04074 0.2050781,0.05664 0.064569,0.0159 0.1436513,0.03563 0.1757813,0.04492 0.03213,0.0093 0.087514,0.02485 0.1249998,0.03516 0.03749,0.01031 0.160982,0.04658 0.273438,0.08008 0.29292,0.08725 0.42441,0.124742 0.554687,0.15625 0.04284,0.01036 0.135463,0.03607 0.205079,0.05664 0.06961,0.02056 0.222032,0.06293 0.339843,0.0957 0.117811,0.03277 0.252642,0.07269 0.298828,0.08789 0.04618,0.01519 0.156449,0.04451 0.244141,0.06641 0.08769,0.0219 0.334627,0.09198 0.548828,0.154297 0.565943,0.164655 0.596189,0.172914 0.666016,0.164062 0.03494,-0.0044 0.964178,-0.457448 2.064453,-1.005859 2.163467,-1.078342 2.087891,-1.034922 2.087891,-1.189453 0,-0.02142 0.0035,-0.04113 0,-0.05469 -3.56e-4,-10e-4 -0.0035,-0.0049 -0.0039,-0.0059 -5.6e-4,-9.59e-4 -0.0032,-0.0049 -0.0039,-0.0059 l -0.002,-0.002 c -0.04226,-0.04031 -0.226666,-0.06336 -0.992187,-0.173829 -0.289173,-0.04173 -0.644477,-0.09256 -0.789063,-0.113281 -0.144586,-0.02072 -0.34993,-0.05209 -0.457031,-0.06836 -0.1071,-0.01628 -0.435943,-0.06334 -0.730469,-0.105469 -0.294527,-0.04213 -0.77774,-0.111699 -1.072266,-0.154297 -0.294527,-0.0426 -0.714037,-0.1034 -0.933593,-0.134765 C 10.877541,11.98428 9.798762,11.829081 9.192911,11.740274 8.9358699,11.70259 8.547233,11.644606 8.327677,11.61332 6.9853485,11.422045 6.5692938,11.360577 6.4565832,11.335977 6.2758597,11.296526 6.1326525,11.276824 5.999552,11.27543 Z m -1.1308594,2.152343 c -0.03503,0.0073 -0.7480468,1.518948 -0.7480468,1.585938 0,0.07599 0.055504,0.162373 0.1230468,0.191406 0.07876,0.03386 0.094256,0.03256 0.1835938,0 0.04038,-0.01472 0.1648877,-0.05403 0.2773437,-0.08789 0.1124555,-0.03387 0.2725648,-0.08357 0.3554688,-0.109376 0.1446205,-0.04502 0.2432607,-0.07409 0.6289062,-0.189453 0.319012,-0.09543 0.517923,-0.162638 0.5703125,-0.193359 0.104461,-0.06125 0.216988,-0.263342 0.3359375,-0.605469 0.021509,-0.06188 0.027838,-0.09067 0.023437,-0.107422 v -0.002 l -0.00195,-0.002 v -0.002 c -0.00376,-0.0056 -0.0099,-0.01186 -0.017578,-0.01758 -0.018065,-0.01345 -0.068157,-0.03229 -0.1113282,-0.04297 -0.1540924,-0.03811 -0.5927371,-0.154999 -1.0878906,-0.289062 -0.2766565,-0.07491 -0.515701,-0.132163 -0.53125,-0.128907 z m 9.0820314,1.19336 c -0.01897,0.0022 -0.04107,0.01084 -0.06641,0.02539 -0.03545,0.02032 -0.142336,0.07924 -0.236328,0.13086 -0.150922,0.0829 -0.449494,0.255419 -0.648438,0.375 -0.03749,0.02253 -0.110512,0.06294 -0.164062,0.08984 -0.05355,0.0269 -0.146174,0.07909 -0.205079,0.115234 -0.288073,0.176774 -0.405487,0.213946 -0.529297,0.166016 -0.0246,-0.0095 -0.153518,-0.04543 -0.285156,-0.08008 -0.167308,-0.04404 -0.225158,-0.05479 -0.251953,-0.04492 -9.49e-4,4.42e-4 -0.005,0.0014 -0.0059,0.002 l -0.002,0.002 c -0.0015,0.0012 -0.0025,0.0024 -0.0039,0.0039 -0.02367,0.02546 -0.05109,0.09325 -0.15039,0.365234 -0.02126,0.05822 -0.05627,0.148248 -0.07813,0.201172 -0.02186,0.05292 -0.04762,0.122543 -0.05664,0.154297 -0.009,0.03176 -0.04446,0.130732 -0.07813,0.220703 -0.03367,0.08997 -0.06914,0.186429 -0.07813,0.212891 -0.009,0.02646 -0.04258,0.120965 -0.07617,0.210937 -0.05719,0.153185 -0.157809,0.505889 -0.15625,0.548828 0.0015,0.04266 0.09429,0.129038 0.166016,0.154297 0.09988,0.03517 0.107904,0.03592 0.238281,-0.0078 0.172838,-0.05797 1.269107,-0.612934 1.5625,-0.791016 0.144586,-0.08776 0.355823,-0.210475 0.470703,-0.271484 0.114879,-0.06101 0.227267,-0.122936 0.25,-0.138672 0.0795,-0.05503 0.135919,-0.167007 0.175782,-0.345703 0.02183,-0.09786 0.05273,-0.233932 0.06836,-0.302734 0.01563,-0.0688 0.03719,-0.163306 0.04687,-0.210938 0.0097,-0.04763 0.04783,-0.220736 0.08594,-0.382812 0.03811,-0.162078 0.07031,-0.31566 0.07031,-0.341797 0,-0.0408 -0.02058,-0.06148 -0.05469,-0.06055 -0.0026,6.9e-5 -0.0051,-3.14e-4 -0.0078,0 z" />
  <path
     id="path4"
     style="fill:#ffffff"
     d="m 17.76713,5.5000384 c -0.166457,0.0014 -0.671929,0.038744 -2.3125,0.1503906 -0.615828,0.041905 -1.567068,0.1054617 -2.113281,0.1425782 -0.546213,0.037115 -1.435705,0.098011 -1.976563,0.1347656 C 10.823928,5.9645278 9.921205,6.0249398 9.358927,6.0625384 7.436972,6.1910589 7.5545312,6.1813007 7.4643958,6.2305072 7.3519107,6.2919152 7.2814469,6.4126359 7.2475989,6.6016009 c -0.01511,0.084358 -0.03673,0.1747094 -0.046875,0.2011719 -0.01014,0.02646 -0.023525,0.099963 -0.03125,0.1621094 -0.00772,0.062144 -0.026816,0.1457708 -0.041016,0.1855468 -0.014195,0.039775 -0.031247,0.1217748 -0.039062,0.1835938 -0.00782,0.061818 -0.025818,0.139794 -0.039063,0.171875 -0.013245,0.03208 -0.029534,0.1077764 -0.037109,0.1699218 -0.00758,0.062144 -0.025273,0.1449688 -0.039063,0.1835938 -0.01379,0.03863 -0.031023,0.1179917 -0.039063,0.1757812 -0.00804,0.05779 -0.025683,0.1363542 -0.039063,0.1738282 -0.01338,0.03747 -0.031013,0.1140855 -0.039063,0.171875 -0.00804,0.05779 -0.025683,0.1363536 -0.039063,0.1738281 -0.01338,0.03747 -0.031013,0.1160386 -0.039063,0.1738281 -0.00804,0.05779 -0.025683,0.134401 -0.039063,0.171875 -0.01338,0.03747 -0.031013,0.1160391 -0.039063,0.1738282 -0.00804,0.05779 -0.025683,0.1363551 -0.039063,0.1738281 -0.01338,0.03747 -0.031017,0.114086 -0.039063,0.171875 -0.00804,0.05779 -0.025683,0.1363541 -0.039063,0.1738281 -0.01338,0.03747 -0.031028,0.1158251 -0.039063,0.1738281 -0.00803,0.058 -0.022953,0.1278349 -0.033203,0.1542969 -0.010245,0.02646 -0.029707,0.1164926 -0.044922,0.2011716 -0.025775,0.143436 -0.025138,0.156349 0.00781,0.201172 0.06955,0.09461 0.152151,0.117553 0.7578125,0.195312 0.3180905,0.04084 0.8162972,0.10483 1.1054687,0.142578 0.2891715,0.03775 0.7893019,0.102515 1.1132809,0.144532 0.323979,0.04202 0.86012,0.111537 1.189454,0.154297 0.329335,0.04276 0.829465,0.108224 1.113281,0.144531 0.616926,0.07892 1.613202,0.207234 2.011719,0.259765 0.653393,0.08613 0.886663,0.117026 1.396484,0.183594 0.294526,0.03846 0.751275,0.09807 1.013672,0.132813 0.599218,0.07934 0.613122,0.07887 0.648438,0.02344 0.02733,-0.04289 0.06546,-0.211608 0.148437,-0.658203 0.0236,-0.127019 0.0632,-0.335872 0.08789,-0.462891 0.02469,-0.127018 0.0647,-0.329445 0.08789,-0.451172 0.0232,-0.121726 0.05821,-0.2947937 0.07812,-0.3847647 0.01992,-0.08997 0.04186,-0.1978944 0.04883,-0.2402344 0.01297,-0.0787 0.04692,-0.2509879 0.134765,-0.6933594 0.02733,-0.137603 0.06597,-0.3432932 0.08789,-0.4570312 0.02192,-0.1137375 0.05813,-0.3002255 0.08008,-0.4140625 0.02196,-0.113837 0.06081,-0.310481 0.08594,-0.4375 0.02513,-0.1270185 0.06532,-0.3269254 0.08789,-0.4433594 0.03726,-0.1922695 0.06327,-0.3284152 0.175781,-0.8945312 0.08409,-0.4231095 0.08881,-0.4700612 0.04687,-0.5410157 -0.02096,-0.035475 -0.06843,-0.079353 -0.103515,-0.099609 -0.0118,-0.00681 -0.01616,-0.014921 -0.02344,-0.019531 -0.01024,-0.00478 -0.03014,-0.00824 -0.08006,-0.00782 z M 5.999552,10.77543 c -0.07986,-8.5e-4 -0.1546649,0.0057 -0.2324219,0.01758 -0.1071,0.01641 -0.9456181,0.135477 -1.8613281,0.263672 -0.9157101,0.128196 -1.7016218,0.247047 -1.7480469,0.263671 -0.1968996,0.0705 -0.2134119,0.314133 -0.027344,0.40625 0.039942,0.01978 0.1251927,0.05185 0.1894531,0.07031 0.06426,0.01847 0.1392405,0.04056 0.1660156,0.04883 0.026775,0.0083 0.082159,0.02364 0.125,0.03516 0.1221608,0.03287 0.4391394,0.121412 0.5605469,0.15625 0.03481,0.01 0.097784,0.02728 0.140625,0.03906 0.04284,0.01178 0.1045887,0.02992 0.1367188,0.03906 0.094893,0.027 0.480835,0.134226 0.5546874,0.154297 0.037485,0.01019 0.1269258,0.03538 0.1992188,0.05664 0.072293,0.02126 0.1913794,0.05687 0.2636719,0.07813 0.072293,0.02126 0.1661443,0.04687 0.2089843,0.05859 0.04284,0.01173 0.1001787,0.02899 0.1269532,0.03711 0.026775,0.0081 0.084113,0.02385 0.1269531,0.03516 0.1825635,0.04819 0.3178321,0.08592 0.7597656,0.212891 0.2570415,0.07385 0.5461877,0.156063 0.6425781,0.181642 0.2888721,0.07665 1.62138,0.452339 1.8203126,0.513671 0.1017454,0.03137 0.2188782,0.06809 0.2617187,0.08008 0.04284,0.01199 0.1181296,0.03381 0.1660156,0.04883 0.04788,0.01502 0.1405062,0.04074 0.2050781,0.05664 0.064569,0.0159 0.1436513,0.03563 0.1757813,0.04492 0.03213,0.0093 0.087514,0.02485 0.1249998,0.03516 0.03749,0.01031 0.160982,0.04658 0.273438,0.08008 0.29292,0.08725 0.42441,0.124742 0.554687,0.15625 0.04284,0.01036 0.135463,0.03607 0.205079,0.05664 0.06961,0.02056 0.222032,0.06293 0.339843,0.0957 0.117811,0.03277 0.252642,0.07269 0.298828,0.08789 0.04618,0.01519 0.156449,0.04451 0.244141,0.06641 0.08769,0.0219 0.334627,0.09198 0.548828,0.154297 0.565943,0.164655 0.596189,0.172914 0.666016,0.164062 0.03494,-0.0045 0.964178,-0.457448 2.064453,-1.005859 2.163467,-1.078342 2.087891,-1.034922 2.087891,-1.189453 0,-0.02142 0.0035,-0.04113 0,-0.05469 -3.56e-4,-10e-4 -0.0035,-0.0049 -0.0039,-0.0059 -5.6e-4,-9.59e-4 -0.0032,-0.0049 -0.0039,-0.0059 l -0.002,-0.002 c -0.04226,-0.04031 -0.226666,-0.06336 -0.992187,-0.173829 -0.289173,-0.04173 -0.644477,-0.09256 -0.789063,-0.113281 -0.144586,-0.02072 -0.34993,-0.05209 -0.457031,-0.06836 -0.1071,-0.01628 -0.435943,-0.06334 -0.730469,-0.105469 -0.294527,-0.04213 -0.77774,-0.111699 -1.072266,-0.154297 -0.294527,-0.0426 -0.714037,-0.1034 -0.933593,-0.134765 C 10.877541,11.48428 9.798762,11.329081 9.192911,11.240274 8.9358699,11.20259 8.547233,11.144606 8.327677,11.11332 6.9853485,10.922045 6.5692938,10.860577 6.4565832,10.835977 6.2758597,10.796526 6.1326525,10.776824 5.999552,10.77543 Z m -1.1308594,2.152343 c -0.03503,0.0073 -0.7480468,1.518948 -0.7480468,1.585938 0,0.07599 0.055504,0.162373 0.1230468,0.191406 0.07876,0.03386 0.094256,0.03256 0.1835938,0 0.04038,-0.01472 0.1648877,-0.05403 0.2773437,-0.08789 0.1124555,-0.03387 0.2725648,-0.08357 0.3554688,-0.109376 0.1446205,-0.04501 0.2432607,-0.07409 0.6289062,-0.189453 0.319012,-0.09543 0.517923,-0.162638 0.5703125,-0.193359 0.104461,-0.06125 0.216988,-0.263341 0.3359375,-0.605469 0.021509,-0.06188 0.027838,-0.09067 0.023437,-0.107422 v -0.002 l -0.00195,-0.002 v -0.002 c -0.00376,-0.0056 -0.0099,-0.01186 -0.017578,-0.01758 -0.018065,-0.01344 -0.068158,-0.03229 -0.1113282,-0.04297 -0.1540924,-0.03811 -0.5927371,-0.154999 -1.0878906,-0.289062 -0.2766565,-0.07491 -0.515701,-0.132163 -0.53125,-0.128907 z m 9.0820314,1.19336 c -0.01897,0.0022 -0.04107,0.01084 -0.06641,0.02539 -0.03545,0.02032 -0.142336,0.07924 -0.236328,0.13086 -0.150922,0.0829 -0.449494,0.255419 -0.648438,0.375 -0.03749,0.02253 -0.110512,0.06294 -0.164062,0.08984 -0.05355,0.0269 -0.146174,0.07909 -0.205079,0.115234 -0.288073,0.176773 -0.405487,0.213946 -0.529297,0.166016 -0.0246,-0.0095 -0.153518,-0.04542 -0.285156,-0.08008 -0.167308,-0.04404 -0.225158,-0.05478 -0.251953,-0.04492 -9.49e-4,4.41e-4 -0.005,0.0014 -0.0059,0.002 l -0.002,0.002 c -0.0015,0.0012 -0.0025,0.0024 -0.0039,0.0039 -0.02367,0.02546 -0.05109,0.09325 -0.15039,0.365234 -0.02126,0.05822 -0.05627,0.148248 -0.07813,0.201172 -0.02186,0.05292 -0.04762,0.122543 -0.05664,0.154297 -0.009,0.03176 -0.04446,0.130732 -0.07813,0.220703 -0.03367,0.08997 -0.06914,0.186428 -0.07813,0.212891 -0.009,0.02646 -0.04258,0.120965 -0.07617,0.210937 -0.05719,0.153185 -0.157809,0.505891 -0.15625,0.548828 0.0015,0.04266 0.09429,0.129038 0.166016,0.154297 0.09988,0.03517 0.107904,0.03592 0.238281,-0.0078 0.172838,-0.05797 1.269107,-0.612934 1.5625,-0.791016 0.144586,-0.08776 0.355823,-0.210476 0.470703,-0.271484 0.114879,-0.06101 0.227267,-0.122936 0.25,-0.138672 0.0795,-0.05503 0.135919,-0.167007 0.175782,-0.345703 0.02183,-0.09786 0.05273,-0.233933 0.06836,-0.302734 0.01563,-0.0688 0.03719,-0.163306 0.04687,-0.210938 0.0097,-0.04763 0.04783,-0.220735 0.08594,-0.382812 0.03811,-0.162077 0.07031,-0.315661 0.07031,-0.341797 0,-0.0408 -0.02058,-0.06148 -0.05469,-0.06055 -0.0026,6.9e-5 -0.0051,-3.14e-4 -0.0078,0 z" />
  <path
     id="path1040"
     style="opacity:0.2;fill:#ffffff;stroke-width:4;stroke-linecap:square"
     d="M 5.5,1 C 3.007005,1 1,3.007005 1,5.5 V 6 C 1,3.507005 3.007005,1.5 5.5,1.5 h 11 C 18.992996,1.5 21,3.507005 21,6 V 5.5 C 21,3.007005 18.992996,1 16.5,1 Z" />
</svg>
