<?xml version="1.0" encoding="UTF-8" standalone="no"?>
<!-- Created with Inkscape (http://www.inkscape.org/) -->

<svg
   width="22"
   height="22"
   viewBox="0 0 22 22"
   version="1.1"
   id="svg5"
   inkscape:version="1.3 (0e150ed6c4, 2023-07-21)"
   sodipodi:docname="civilization5.svg"
   xmlns:inkscape="http://www.inkscape.org/namespaces/inkscape"
   xmlns:sodipodi="http://sodipodi.sourceforge.net/DTD/sodipodi-0.dtd"
   xmlns="http://www.w3.org/2000/svg"
   xmlns:svg="http://www.w3.org/2000/svg">
  <sodipodi:namedview
     id="namedview7"
     pagecolor="#ffffff"
     bordercolor="#000000"
     borderopacity="0.25"
     inkscape:showpageshadow="2"
     inkscape:pageopacity="0.0"
     inkscape:pagecheckerboard="0"
     inkscape:deskcolor="#d1d1d1"
     inkscape:document-units="px"
     showgrid="false"
     inkscape:zoom="33.136364"
     inkscape:cx="11"
     inkscape:cy="11"
     inkscape:window-width="1920"
     inkscape:window-height="937"
     inkscape:window-x="0"
     inkscape:window-y="32"
     inkscape:window-maximized="1"
     inkscape:current-layer="svg5" />
  <defs
     id="defs2" />
  <rect
     style="opacity:0.2;fill:#000000;stroke-width:1.42857;stroke-linecap:square"
     id="rect234"
     width="20"
     height="20"
     x="1"
     y="1.4999995"
     ry="4.5" />
  <rect
     style="fill:#404d5a;fill-opacity:1;stroke-width:1.42857;stroke-linecap:square"
     id="rect396"
     width="20"
     height="20"
     x="1"
     y="1"
     ry="4.5" />
  <path
     style="opacity:0.2;fill:#000000;stroke-width:0.5"
     d="M 6.955053,4.5000115 C 5.7394355,4.4955615 4.9127895,5.7651105 5.380834,6.917004 l 3.873047,9.926757 A 1.6995035,1.7449358 0 0 1 9.386694,16.070324 L 10.999975,11.935559 8.535131,5.6191525 C 8.283716,4.9472965 7.656051,4.5028025 6.955053,4.5000115 Z m 3.348633,13.8671875 c 0.0609,0.02802 0.122683,0.0494 0.185547,0.06738 a 1.6995035,1.7449358 0 0 1 -0.185547,-0.06738 z m 0.185547,0.06738 c 0.07497,0.02144 0.150106,0.03907 0.226563,0.04687 a 1.6995035,1.7449358 0 0 1 -0.226563,-0.04687 z"
     id="path1" />
  <path
     style="fill:#ffa000;stroke-width:0.5"
     d="M 6.9555,4.000023 C 5.7398825,3.995573 4.912948,5.2648325 5.3809925,6.416726 L 9.459311,16.867979 c 0.813739,2.227208 3.699901,0.819954 2.790664,-1.367968 L 11.878835,13.687321 8.5353165,5.119094 C 8.2839015,4.447238 7.656498,4.0028135 6.9555,4.000023 Z"
     id="path2" />
  <path
     style="opacity:0.2;fill:#000000;stroke-width:0.5"
     d="m 14.99279,4.5010165 a 1.6995035,1.7449358 0 0 0 -1.528072,1.117738 L 9.386317,16.070283 a 1.6995035,1.7449358 0 1 0 3.154388,1.297667 l 4.0784,-10.4515295 A 1.6995035,1.7449358 0 0 0 14.99279,4.5010165 Z"
     id="path3" />
  <path
     style="opacity:0.2;fill:#ffffff;stroke-width:0.5"
     d="m 6.955053,4.0000115 c -1.0694535,-0.0039 -1.8368265,0.9784955 -1.6875,1.9990235 0.115233,-0.818889 0.7953875,-1.5022875 1.6875,-1.4990235 0.700998,0.0028 1.328663,0.447285 1.580078,1.119141 l 3.34375,8.5683585 0.371094,1.8125 c 0.08633,0.207748 0.128448,0.405452 0.151367,0.59668 0.05008,-0.328749 0.01375,-0.699347 -0.151367,-1.09668 l -0.371094,-1.8125 -3.34375,-8.5683585 C 8.283716,4.4472965 7.656051,4.0028025 6.955053,4.0000115 Z"
     id="path4" />
  <path
     style="fill:#ffca28;stroke-width:0.5"
     d="M 14.99279,4.001017 A 1.6995035,1.7449358 0 0 0 13.464718,5.1187545 L 9.386317,15.570284 a 1.6995035,1.7449358 0 1 0 3.154388,1.297666 l 4.0784,-10.451529 A 1.6995035,1.7449358 0 0 0 14.99279,4.001017 Z"
     id="path5" />
  <path
     style="opacity:0.2;fill:#ffffff;stroke-width:0.5"
     d="m 14.993139,4.000988 a 1.6995035,1.7449358 0 0 0 -1.52832,1.1181645 L 9.386694,15.570324 A 1.6995035,1.7449358 0 0 0 9.269506,16.503917 1.6995035,1.7449358 0 0 1 9.386694,16.070324 L 13.464819,5.6191525 A 1.6995035,1.7449358 0 0 1 14.993139,4.500988 1.6995035,1.7449358 0 0 1 16.730444,5.9941525 1.6995035,1.7449358 0 0 0 14.993139,4.000988 Z"
     id="path6" />
  <path
     id="path1040"
     style="opacity:0.1;fill:#ffffff;stroke-width:4;stroke-linecap:square"
     d="M 5.5,1.0000002 C 3.007005,1.0000002 1,3.007005 1,5.5 V 6 C 1,3.507005 3.007005,1.5000002 5.5,1.5000002 h 11 C 18.992996,1.5000002 21,3.507005 21,6 V 5.5 C 21,3.007005 18.992996,1.0000002 16.5,1.0000002 Z" />
</svg>
