<?xml version="1.0" encoding="UTF-8" standalone="no"?>
<!-- Created with Inkscape (http://www.inkscape.org/) -->

<svg
   width="22"
   height="22"
   viewBox="0 0 22 22"
   version="1.1"
   id="svg5"
   inkscape:version="1.2.2 (1:1.2.2+202305151914+b0a8486541)"
   sodipodi:docname="code-oss.svg"
   xmlns:inkscape="http://www.inkscape.org/namespaces/inkscape"
   xmlns:sodipodi="http://sodipodi.sourceforge.net/DTD/sodipodi-0.dtd"
   xmlns="http://www.w3.org/2000/svg"
   xmlns:svg="http://www.w3.org/2000/svg">
  <sodipodi:namedview
     id="namedview7"
     pagecolor="#ffffff"
     bordercolor="#000000"
     borderopacity="0.25"
     inkscape:showpageshadow="2"
     inkscape:pageopacity="0.0"
     inkscape:pagecheckerboard="0"
     inkscape:deskcolor="#d1d1d1"
     inkscape:document-units="px"
     showgrid="false"
     inkscape:zoom="36.636364"
     inkscape:cx="11"
     inkscape:cy="11"
     inkscape:window-width="1920"
     inkscape:window-height="1008"
     inkscape:window-x="0"
     inkscape:window-y="0"
     inkscape:window-maximized="1"
     inkscape:current-layer="svg5" />
  <defs
     id="defs2" />
  <rect
     style="opacity:0.2;fill:#000000;stroke-width:1.42857;stroke-linecap:square"
     id="rect234"
     width="20"
     height="20"
     x="1"
     y="1.5"
     ry="4.5" />
  <rect
     style="fill:#efefef;fill-opacity:1;stroke-width:1.42857;stroke-linecap:square"
     id="rect396"
     width="20"
     height="20"
     x="1"
     y="1"
     ry="4.5" />
  <rect
     style="opacity:0.2;fill:#000000;fill-opacity:1;stroke-width:1;stroke-linecap:round;stroke-linejoin:round"
     id="rect872"
     width="14"
     height="12"
     x="4"
     y="5.5"
     ry="1" />
  <rect
     style="fill:#167abf;fill-opacity:1;stroke-width:1;stroke-linecap:round;stroke-linejoin:round"
     id="rect410"
     width="14"
     height="12"
     x="4"
     y="5"
     ry="1" />
  <path
     d="M 5,5 H 7.5 V 17.000001 H 5 c -0.554,0 -1,-0.446 -1,-1 V 6 C 4,5.446 4.446,5 5,5 Z"
     style="opacity:0.2;fill:#000000;stroke-width:1;stroke-linecap:round;stroke-linejoin:round"
     id="path803" />
  <path
     id="path1073"
     style="opacity:0.2;fill:#000000;fill-opacity:1;stroke-width:1;stroke-linecap:round;stroke-linejoin:round"
     d="M 10.5,6.5 C 10.223001,6.5 10,6.723001 10,7 c 0,0.277 0.223001,0.5 0.5,0.5 h 3 C 13.776999,7.5 14,7.277 14,7 14,6.723001 13.776999,6.5 13.5,6.5 Z m 1,3 C 11.223001,9.5 11,9.723001 11,10 c 0,0.277 0.223001,0.5 0.5,0.5 h 4 C 15.776999,10.5 16,10.277 16,10 16,9.723001 15.776999,9.5 15.5,9.5 Z m 0,3 c -0.276999,0 -0.5,0.223001 -0.5,0.5 0,0.277 0.223001,0.5 0.5,0.5 h 4 c 0.276999,0 0.5,-0.223 0.5,-0.5 0,-0.276999 -0.223001,-0.5 -0.5,-0.5 z m -1,3 c -0.276999,0 -0.5,0.223001 -0.5,0.5 0,0.276999 0.223001,0.5 0.5,0.5 h 3 c 0.276999,0 0.5,-0.223001 0.5,-0.5 0,-0.276999 -0.223001,-0.5 -0.5,-0.5 z" />
  <path
     id="path1035"
     style="fill:#ffffff;fill-opacity:1;stroke-width:1;stroke-linecap:round;stroke-linejoin:round"
     d="M 10.5,6 C 10.223001,6 10,6.223001 10,6.5 10,6.776999 10.223001,7 10.5,7 h 3 C 13.776999,7 14,6.776999 14,6.5 14,6.223001 13.776999,6 13.5,6 Z m 1,3 C 11.223001,9 11,9.223001 11,9.5 11,9.776999 11.223001,10 11.5,10 h 4 C 15.776999,10 16,9.776999 16,9.5 16,9.223001 15.776999,9 15.5,9 Z m 0,3 c -0.276999,0 -0.5,0.223001 -0.5,0.5 0,0.276999 0.223001,0.5 0.5,0.5 h 4 C 15.776999,13 16,12.776999 16,12.5 16,12.223001 15.776999,12 15.5,12 Z m -1,3 c -0.276999,0 -0.5,0.223001 -0.5,0.5 0,0.276999 0.223001,0.5 0.5,0.5 h 3 C 13.776999,16 14,15.776999 14,15.5 14,15.223001 13.776999,15 13.5,15 Z" />
  <path
     id="path969"
     style="opacity:0.1;fill:#ffffff;fill-opacity:1;stroke-width:1;stroke-linecap:round;stroke-linejoin:round"
     d="M 5,5 C 4.446001,5 4,5.446002 4,6 v 0.5 c 0,-0.554 0.446,-1 1,-1 h 12 c 0.553999,0 1,0.446 1,1 V 6 C 18,5.446002 17.553998,5 17,5 Z" />
  <rect
     style="opacity:0.2;fill:#000000;fill-opacity:1;stroke-width:1;stroke-linecap:round;stroke-linejoin:round"
     id="rect874"
     width="1"
     height="14"
     x="7"
     y="4.5"
     ry="0.5" />
  <rect
     style="fill:#ffffff;fill-opacity:1;stroke-width:1;stroke-linecap:round;stroke-linejoin:round"
     id="rect876"
     width="1"
     height="14"
     x="7"
     y="4"
     ry="0.5" />
  <path
     id="path1040"
     style="opacity:0.2;fill:#ffffff;stroke-width:4;stroke-linecap:square"
     d="M 5.5,1 C 3.007005,1 1,3.007005 1,5.5 V 6 C 1,3.507005 3.007005,1.5 5.5,1.5 h 11 C 18.992996,1.5 21,3.507005 21,6 V 5.5 C 21,3.007005 18.992996,1 16.5,1 Z" />
</svg>
