<?xml version="1.0" encoding="UTF-8" standalone="no"?>
<!-- Created with Inkscape (http://www.inkscape.org/) -->

<svg
   width="22"
   height="22"
   viewBox="0 0 22 22"
   version="1.1"
   id="svg5"
   inkscape:version="1.3.2 (091e20ef0f, 2023-11-25, custom)"
   sodipodi:docname="com.github.fabiocolacio.marker.svg"
   xmlns:inkscape="http://www.inkscape.org/namespaces/inkscape"
   xmlns:sodipodi="http://sodipodi.sourceforge.net/DTD/sodipodi-0.dtd"
   xmlns="http://www.w3.org/2000/svg"
   xmlns:svg="http://www.w3.org/2000/svg">
  <sodipodi:namedview
     id="namedview7"
     pagecolor="#ffffff"
     bordercolor="#000000"
     borderopacity="0.25"
     inkscape:showpageshadow="2"
     inkscape:pageopacity="0.0"
     inkscape:pagecheckerboard="0"
     inkscape:deskcolor="#d1d1d1"
     inkscape:document-units="px"
     showgrid="false"
     inkscape:zoom="37.363636"
     inkscape:cx="11"
     inkscape:cy="11"
     inkscape:window-width="1920"
     inkscape:window-height="1008"
     inkscape:window-x="0"
     inkscape:window-y="0"
     inkscape:window-maximized="1"
     inkscape:current-layer="svg5" />
  <defs
     id="defs2" />
  <rect
     style="opacity:0.2;fill:#000000;stroke-width:1.42857;stroke-linecap:square"
     id="rect234"
     width="20"
     height="20"
     x="1"
     y="1.5"
     ry="4.5" />
  <rect
     style="fill:#e4e4e4;fill-opacity:1;stroke-width:1.42857;stroke-linecap:square"
     id="rect396"
     width="20"
     height="20"
     x="1"
     y="1"
     ry="4.5" />
  <path
     id="path2"
     style="opacity:0.15;fill:#000000"
     d="m 4,3 v 9 H 18 V 3 Z m 0,10 v 4 h 4 v -1 h 10 v -3 z" />
  <path
     id="path3"
     style="opacity:0.1;fill:#000000"
     d="m 5,4.5 v 1 h 10 v -1 z m 5,2 v 1 h 6 v -1 z m -5,2 v 1 h 4 v -1 z" />
  <rect
     style="fill:#8ff0a4;stroke-width:1.05409"
     width="10"
     height="1"
     x="5"
     y="4"
     id="rect3" />
  <rect
     style="fill:#8ff0a4;stroke-width:1.1547"
     width="4"
     height="1"
     x="5"
     y="8"
     id="rect4" />
  <rect
     style="fill:#8ff0a4"
     width="6"
     height="1"
     x="10"
     y="6"
     id="rect5" />
  <path
     style="opacity:0.1;fill:#000000"
     d="m 8.955078,8.4463914 -0.5048825,1.5146496 0.5048825,0.504883 0.504883,2.525391 0.504883,0.505859 3.536133,3.535156 2.257812,2.257812 c 0.279812,0.279811 0.729953,0.279811 1.009765,0 l 2.020508,-2.020508 c 0.279811,-0.279811 0.279811,-0.729953 0,-1.009765 L 16.53125,14.002057 12.996094,10.465924 12.491211,9.961041 h -10e-4 L 9.964821,9.456158 Z"
     id="path5" />
  <path
     style="fill:#33d17a"
     d="m 12.49077,9.461176 -0.503627,0.503627 c -5.5e-4,5.51e-4 -0.0012,8.5e-4 -0.0017,0.0014 l -2.020089,2.020082 c -5.5e-4,5.5e-4 -8.5e-4,0.0012 -0.0014,0.0017 l -0.503628,0.503628 0.505023,0.505023 3.535505,3.535503 2.257952,2.257953 c 0.279812,0.279811 0.730232,0.279811 1.010044,0 l 2.02044,-2.020439 c 0.279811,-0.279811 0.279811,-0.730232 0,-1.010044 L 16.53134,13.501655 12.995835,9.966149 Z"
     id="path6" />
  <path
     style="fill:#33d17a"
     d="M 8.9550765,7.9458109 9.965229,8.9559639 8.9550765,9.966118 8.45,9.461041 Z"
     id="path7" />
  <path
     style="fill:#3d3846"
     d="M 8.9550765,9.966118 9.460153,12.491498 12.49061,9.461041 9.965229,8.9559639 Z"
     id="path8" />
  <path
     id="path1040"
     style="opacity:0.2;fill:#ffffff;stroke-width:4;stroke-linecap:square"
     d="M 5.5,1 C 3.007005,1 1,3.007005 1,5.5 V 6 C 1,3.507005 3.007005,1.5 5.5,1.5 h 11 C 18.992996,1.5 21,3.507005 21,6 V 5.5 C 21,3.007005 18.992996,1 16.5,1 Z" />
</svg>
