<?xml version="1.0" encoding="UTF-8" standalone="no"?>
<!-- Created with Inkscape (http://www.inkscape.org/) -->

<svg
   width="22"
   height="22"
   viewBox="0 0 22 22"
   version="1.1"
   id="svg5"
   inkscape:version="1.3 (0e150ed6c4, 2023-07-21)"
   sodipodi:docname="cs-user-accounts.svg"
   xmlns:inkscape="http://www.inkscape.org/namespaces/inkscape"
   xmlns:sodipodi="http://sodipodi.sourceforge.net/DTD/sodipodi-0.dtd"
   xmlns="http://www.w3.org/2000/svg"
   xmlns:svg="http://www.w3.org/2000/svg">
  <sodipodi:namedview
     id="namedview7"
     pagecolor="#ffffff"
     bordercolor="#000000"
     borderopacity="0.25"
     inkscape:showpageshadow="2"
     inkscape:pageopacity="0.0"
     inkscape:pagecheckerboard="0"
     inkscape:deskcolor="#d1d1d1"
     inkscape:document-units="px"
     showgrid="false"
     inkscape:zoom="35.590909"
     inkscape:cx="10.985951"
     inkscape:cy="11"
     inkscape:window-width="1920"
     inkscape:window-height="984"
     inkscape:window-x="0"
     inkscape:window-y="29"
     inkscape:window-maximized="1"
     inkscape:current-layer="svg5" />
  <defs
     id="defs2" />
  <rect
     style="opacity:0.2;fill:#000000;stroke-width:1.42857;stroke-linecap:square"
     id="rect234"
     width="20"
     height="20"
     x="1"
     y="1.5"
     ry="4.5" />
  <rect
     style="fill:#1976d2;fill-opacity:1;stroke-width:1.42857;stroke-linecap:square"
     id="rect396"
     width="20"
     height="20"
     x="1"
     y="1"
     ry="4.5" />
  <path
     d="m 15.5,11.50025 c 3.5,-10e-4 3.5,2.4005 3.5,2.4005 v 0.6 h -7 v -0.6 c 0,0 0,-2.3984 3.5002,-2.4004 z m 0,-6 c 1.3808,0 2.5,1.1193 2.5,2.5 0,1.3807 -1.1192,2.5 -2.5,2.5 -1.3807,0 -2.5,-1.1193 -2.5,-2.5 0,-1.3807 1.1193,-2.5 2.5,-2.5 z m -7.5,1 c 1.657,0 3,1.3432 3,3 0,1.657 -1.343,3 -3,3 -1.6568,0 -3,-1.343 -3,-3 0,-1.6568 1.3432,-3 3,-3 z m 0,7 c 5,-0.002 5,3.2005 5,3.2005 v 0.8 H 3 v -0.799 c 0,0 0,-3.1979 5,-3.2006 z"
     id="path1760"
     style="opacity:0.2;fill:#000000" />
  <path
     d="M 15.5,11 C 19,10.999 19,13.4005 19,13.4005 v 0.6 h -7 v -0.6 c 0,0 0,-2.3984 3.5002,-2.4004 z m 0,-6 C 16.8808,5 18,6.1193 18,7.5 18,8.8807 16.8808,10 15.5,10 14.1193,10 13,8.8807 13,7.5 13,6.1193 14.1193,5 15.5,5 Z M 8,6 c 1.657,0 3,1.3432 3,3 0,1.657 -1.343,3 -3,3 C 6.3432,12 5,10.657 5,9 5,7.3432 6.3432,6 8,6 Z m 0,7 c 5,-0.002 5,3.2005 5,3.2005 v 0.8 H 3 v -0.799 c 0,0 0,-3.1979 5,-3.2006 z"
     id="path1732"
     sodipodi:nodetypes="cccccccssssssssssccccccc"
     style="fill:#ffffff" />
  <path
     id="path1040"
     style="opacity:0.2;fill:#ffffff;stroke-width:4;stroke-linecap:square"
     d="M 5.5,1 C 3.007005,1 1,3.007005 1,5.5 V 6 C 1,3.507005 3.007005,1.5 5.5,1.5 h 11 C 18.992996,1.5 21,3.507005 21,6 V 5.5 C 21,3.007005 18.992996,1 16.5,1 Z" />
</svg>
