<?xml version="1.0" encoding="UTF-8" standalone="no"?>
<!-- Created with Inkscape (http://www.inkscape.org/) -->

<svg
   width="22"
   height="22"
   viewBox="0 0 22 22"
   version="1.1"
   id="svg5"
   inkscape:version="1.3 (0e150ed6c4, 2023-07-21)"
   sodipodi:docname="cuttlefish.svg"
   xmlns:inkscape="http://www.inkscape.org/namespaces/inkscape"
   xmlns:sodipodi="http://sodipodi.sourceforge.net/DTD/sodipodi-0.dtd"
   xmlns="http://www.w3.org/2000/svg"
   xmlns:svg="http://www.w3.org/2000/svg">
  <sodipodi:namedview
     id="namedview7"
     pagecolor="#ffffff"
     bordercolor="#000000"
     borderopacity="0.25"
     inkscape:showpageshadow="2"
     inkscape:pageopacity="0.0"
     inkscape:pagecheckerboard="0"
     inkscape:deskcolor="#d1d1d1"
     inkscape:document-units="px"
     showgrid="false"
     inkscape:zoom="37.227273"
     inkscape:cx="10.986569"
     inkscape:cy="11"
     inkscape:window-width="1920"
     inkscape:window-height="1004"
     inkscape:window-x="0"
     inkscape:window-y="30"
     inkscape:window-maximized="1"
     inkscape:current-layer="svg5" />
  <defs
     id="defs2" />
  <rect
     style="opacity:0.2;fill:#000000;stroke-width:1.42857;stroke-linecap:square"
     id="rect234"
     width="20"
     height="20"
     x="1"
     y="1.4999995"
     ry="4.5" />
  <rect
     style="fill:#4d4d4d;fill-opacity:1;stroke-width:1.42857;stroke-linecap:square"
     id="rect396"
     width="20"
     height="20"
     x="1"
     y="1"
     ry="4.5" />
  <path
     id="path1"
     style="opacity:0.2;fill:#000000;stroke-width:0.5"
     d="m 10.969727,4.5 c -2.681998,0 -5.7189075,2.2313745 -6.3789065,4.701172 -0.31064,1.859048 0.050958,3.17069 0.9892575,4.071289 0.02515,0.262949 0.075746,0.526113 0.053711,0.789063 -5e-4,0.0077 -0.00245,0.01569 -0.00295,0.02343 -0.005,0.04945 -0.01199,0.09898 -0.023435,0.148438 -0.005,0.0202 -0.012555,0.04035 -0.018555,0.06055 -0.011,0.0376 -0.02131,0.07469 -0.03711,0.112304 -0.0132,0.03125 -0.032905,0.06248 -0.049805,0.09375 -0.0157,0.02915 -0.02865,0.05872 -0.04785,0.08789 -0.03945,0.05972 -0.085611,0.118991 -0.1416015,0.178711 -0.21875,0.23333 -0.410174,0.378843 -0.574219,0.473633 C 4.2460965,15.524544 4,15.350195 4,15.700195 c 0,0.379165 0.8668835,1.06577 1.661133,0.80957 0.1221895,-0.0394 0.242067,-0.100818 0.3574215,-0.189453 0.05768,-0.0443 0.1142605,-0.09499 0.1689455,-0.15332 0.10026,-0.106945 0.1874135,-0.206896 0.2646485,-0.300781 0.0764,-0.09204 0.1418105,-0.176371 0.2001955,-0.256836 0.01335,0.117245 0.00516,0.265678 -0.051758,0.492187 C 6.374121,17.003111 5.1765505,16.926457 5.75,17.566406 6.1943645,18.062281 7.523063,18.081749 8.2578125,17.4375 7.964933,18.101599 7.519321,18.5 8.375,18.5 9.687499,18.5 11,17.566991 11,16.166992 11,17.566991 12.312502,18.5 13.625,18.5 c 0.855699,0 0.411044,-0.398415 0.118164,-1.0625 0.73475,0.644249 2.062486,0.624806 2.506836,0.128906 0.573499,-0.639949 -0.624086,-0.563345 -0.850586,-1.464844 -0.057,-0.226889 -0.06425,-0.375833 -0.05078,-0.493164 0.118499,0.163335 0.265987,0.347519 0.463867,0.558594 C 16.687499,17.100341 18,16.16686 18,15.700195 c 0,-0.466669 -0.437501,-2.7e-4 -1.3125,-0.933593 -0.488335,-0.5209 -0.301462,-1.041601 -0.263672,-1.5625 1.012349,-0.915549 1.342554,-2.217382 0.924805,-4.00293 C 16.416933,6.5538745 13.651724,4.5 10.969727,4.5 Z" />
  <path
     id="path2"
     style="fill:#fecd38;stroke-width:0.5"
     d="M 10.969727,4 C 8.287729,4 5.2508195,6.2313745 4.5908205,8.701172 c -0.31064,1.859048 0.050958,3.17069 0.9892575,4.071289 0.02515,0.262949 0.075746,0.526113 0.053711,0.789063 -5e-4,0.0077 -0.00245,0.01569 -0.00295,0.02343 -0.005,0.04945 -0.01199,0.09898 -0.023435,0.148438 -0.005,0.0202 -0.012555,0.04035 -0.018555,0.06055 -0.011,0.0376 -0.02131,0.07469 -0.03711,0.112304 -0.0132,0.03125 -0.032905,0.06248 -0.049805,0.09375 -0.0157,0.02915 -0.02865,0.05872 -0.04785,0.08789 -0.03945,0.05972 -0.085611,0.118991 -0.1416015,0.178711 -0.21875,0.23333 -0.410174,0.378843 -0.574219,0.473633 C 4.2460965,15.024544 4,14.850196 4,15.200195 c 0,0.379165 0.8668835,1.06577 1.661133,0.80957 0.1221895,-0.0394 0.242067,-0.100818 0.3574215,-0.189453 0.05768,-0.0443 0.1142605,-0.09499 0.1689455,-0.15332 0.10026,-0.106945 0.1874135,-0.206896 0.2646485,-0.300781 0.0764,-0.09204 0.1418105,-0.176371 0.2001955,-0.256836 0.01335,0.117245 0.00516,0.265678 -0.051758,0.492187 C 6.374121,16.503111 5.1765505,16.426457 5.75,17.066406 6.1943645,17.562281 7.523063,17.581749 8.2578125,16.9375 7.964933,17.601599 7.519321,18 8.375,18 9.687499,18 11,17.066991 11,15.666992 11,17.066991 12.312502,18 13.625,18 c 0.855699,0 0.411044,-0.398415 0.118164,-1.0625 0.73475,0.644249 2.062486,0.624806 2.506836,0.128906 0.573499,-0.639949 -0.624086,-0.563345 -0.850586,-1.464844 -0.057,-0.226889 -0.06425,-0.375833 -0.05078,-0.493164 0.118499,0.163335 0.265987,0.347519 0.463867,0.558594 C 16.687499,16.600341 18,15.66686 18,15.200195 c 0,-0.466669 -0.437501,-2.7e-4 -1.3125,-0.933593 -0.488335,-0.5209 -0.301462,-1.041601 -0.263672,-1.5625 1.012349,-0.915549 1.342554,-2.217382 0.924805,-4.00293 C 16.416933,6.0538745 13.651724,4 10.969727,4 Z" />
  <path
     id="path3"
     style="opacity:0.2;fill:#ffffff;stroke-width:0.5"
     d="M 10.969727,4 C 8.287729,4 5.2508195,6.2313745 4.5908205,8.701172 4.5024825,9.229838 4.470068,9.71296 4.488281,10.15625 4.5010265,9.854895 4.5346125,9.537553 4.5908205,9.201172 5.2508195,6.7313745 8.287729,4.5 10.969727,4.5 c 2.681997,0 5.447206,2.0538745 6.378906,4.701172 0.09556,0.408454 0.149925,0.790405 0.167968,1.149414 C 17.544111,9.853199 17.490051,9.30562 17.348633,8.701172 16.416933,6.0538745 13.651724,4 10.969727,4 Z m -5.3476565,9.640625 c -0.0044,0.0309 -0.0075,0.06186 -0.01465,0.09277 -0.005,0.0202 -0.012555,0.04035 -0.018555,0.06055 -0.011,0.0376 -0.022285,0.07469 -0.038085,0.112304 -0.0132,0.03125 -0.03193,0.06248 -0.04883,0.09375 -0.0157,0.02915 -0.02865,0.05872 -0.04785,0.08789 C 5.4146505,14.147609 5.3684895,14.20688 5.312499,14.2666 5.093749,14.49993 4.902325,14.645443 4.73828,14.740233 4.2460965,15.024544 4,14.850196 4,15.200195 c 0,0.08097 0.041468,0.175596 0.111328,0.272461 0.116774,-0.05583 0.325271,-0.05815 0.626953,-0.232422 0.164045,-0.09479 0.355469,-0.240303 0.574219,-0.473632 0.05599,-0.05972 0.1021515,-0.118991 0.1416015,-0.178711 0.0192,-0.02917 0.03215,-0.05874 0.04785,-0.08789 0.0169,-0.03127 0.03563,-0.0625 0.04883,-0.09375 0.0158,-0.03761 0.027085,-0.0747 0.038085,-0.112304 0.006,-0.02019 0.013555,-0.04035 0.018555,-0.06055 0.01145,-0.04946 0.01844,-0.09899 0.023435,-0.148438 5e-4,-0.0077 0.00245,-0.01569 0.00295,-0.02343 0.011755,-0.140259 0.00285,-0.280639 -0.01172,-0.420898 z M 16.375,13.644531 c -0.0404,0.374067 -0.03818,0.748005 0.3125,1.122071 0.623068,0.664599 1.019824,0.621718 1.199219,0.708984 C 17.957792,15.377781 18,15.2819 18,15.200195 c 0,-0.466669 -0.437501,-2.7e-4 -1.3125,-0.933593 -0.194422,-0.207387 -0.280076,-0.414684 -0.3125,-0.622071 z m -1.026367,1.963867 c -0.01347,0.117331 -0.0062,0.266274 0.05078,0.493164 0.137634,0.547801 0.630671,0.734494 0.870117,0.94043 0.49062,-0.579808 -0.526578,-0.558327 -0.825195,-1.310547 -0.03146,-0.04088 -0.06777,-0.08455 -0.0957,-0.123047 z m -8.697266,0.001 c -0.028,0.03859 -0.064174,0.08221 -0.095703,0.123047 -0.299032,0.751446 -1.315806,0.729869 -0.825195,1.30957 0.239449,-0.205926 0.7325045,-0.392598 0.870117,-0.940429 0.05692,-0.22651 0.064131,-0.374943 0.050781,-0.492188 z m 1.6064455,1.828125 c -0.107511,0.09427 -0.2291235,0.172813 -0.357422,0.239258 -0.038705,0.126082 -0.02415,0.220375 0.098633,0.272461 0.075612,-0.146253 0.1723705,-0.315766 0.258789,-0.511719 z m 5.4843745,0 c 0.08642,0.195948 0.183175,0.365466 0.258789,0.511719 0.122784,-0.05209 0.13734,-0.146378 0.09863,-0.272461 -0.128299,-0.06647 -0.249911,-0.145012 -0.357422,-0.239281 z" />
  <ellipse
     style="opacity:0.2;fill:#000000;stroke-width:0.5"
     id="path4"
     cx="8"
     cy="8.75"
     rx="1"
     ry="1.25" />
  <ellipse
     style="opacity:0.2;fill:#000000;stroke-width:0.5"
     id="path5"
     cx="14"
     cy="8.75"
     rx="1"
     ry="1.25" />
  <ellipse
     style="fill:#ffffff;stroke-width:0.645495"
     id="path6"
     cx="8"
     cy="8.25"
     rx="1"
     ry="1.25" />
  <ellipse
     style="fill:#ffffff;stroke-width:0.645495"
     id="path7"
     cx="14"
     cy="8.25"
     rx="1"
     ry="1.25" />
  <ellipse
     style="fill:#3f3f3f;fill-opacity:1;stroke-width:0.5"
     id="path8"
     cx="8.5"
     cy="8.25"
     rx="0.5"
     ry="0.75" />
  <ellipse
     style="fill:#3f3f3f;fill-opacity:1;stroke-width:0.5"
     id="path9"
     cx="14.5"
     cy="8.25"
     rx="0.5"
     ry="0.75" />
  <path
     id="path1040"
     style="opacity:0.1;fill:#ffffff;stroke-width:4;stroke-linecap:square"
     d="M 5.5,1.0000002 C 3.007005,1.0000002 1,3.0070051 1,5.5 V 6 C 1,3.5070051 3.007005,1.5000002 5.5,1.5000002 h 11 C 18.992996,1.5000002 21,3.5070051 21,6 V 5.5 C 21,3.0070051 18.992996,1.0000002 16.5,1.0000002 Z" />
</svg>
