<?xml version="1.0" encoding="UTF-8" standalone="no"?>
<!-- Created with Inkscape (http://www.inkscape.org/) -->

<svg
   width="22"
   height="22"
   viewBox="0 0 22 22"
   version="1.1"
   id="svg5"
   inkscape:version="1.3.2 (091e20ef0f, 2023-11-25, custom)"
   sodipodi:docname="desktop-profiler.svg"
   xmlns:inkscape="http://www.inkscape.org/namespaces/inkscape"
   xmlns:sodipodi="http://sodipodi.sourceforge.net/DTD/sodipodi-0.dtd"
   xmlns="http://www.w3.org/2000/svg"
   xmlns:svg="http://www.w3.org/2000/svg">
  <sodipodi:namedview
     id="namedview7"
     pagecolor="#ffffff"
     bordercolor="#000000"
     borderopacity="0.25"
     inkscape:showpageshadow="2"
     inkscape:pageopacity="0.0"
     inkscape:pagecheckerboard="0"
     inkscape:deskcolor="#d1d1d1"
     inkscape:document-units="px"
     showgrid="false"
     inkscape:zoom="37.363636"
     inkscape:cx="11"
     inkscape:cy="11"
     inkscape:window-width="1920"
     inkscape:window-height="1008"
     inkscape:window-x="0"
     inkscape:window-y="0"
     inkscape:window-maximized="1"
     inkscape:current-layer="svg5" />
  <defs
     id="defs2" />
  <rect
     style="opacity:0.2;fill:#000000;stroke-width:1.42857;stroke-linecap:square"
     id="rect234"
     width="20"
     height="20"
     x="1"
     y="1.5"
     ry="4.5" />
  <rect
     style="fill:#673ab7;fill-opacity:1;stroke-width:1.42857;stroke-linecap:square"
     id="rect396"
     width="20"
     height="18"
     x="1"
     y="1"
     ry="4.5" />
  <path
     id="rect391"
     style="opacity:1;fill:#7e57c2;fill-opacity:1;stroke-width:2;stroke-linecap:square"
     d="M 1,6 V 16.5 C 1,18.992995 3.007005,21 5.5,21 h 11 C 18.992995,21 21,18.992995 21,16.5 V 6 Z" />
  <path
     id="path3"
     style="opacity:0.2;fill:#000000"
     d="m 10,8.5 v 1.650391 a 3.5,3.5 0 0 0 -1.4023438,0.808593 l -1.4277343,-0.824218 -1,1.732422 1.4296875,0.824218 A 3.5,3.5 0 0 0 7.5,13.5 3.5,3.5 0 0 0 7.599609,14.308594 l -1.4296875,0.824218 1,1.732422 1.4296875,-0.824218 A 3.5,3.5 0 0 0 10,16.851562 V 18.5 h 2 v -1.650391 a 3.5,3.5 0 0 0 1.402344,-0.808593 l 1.427734,0.824218 1,-1.732422 -1.429687,-0.824218 A 3.5,3.5 0 0 0 14.5,13.5 3.5,3.5 0 0 0 14.400391,12.691406 l 1.429687,-0.824218 -1,-1.734376 -1.429687,0.826172 A 3.5,3.5 0 0 0 12,10.148438 V 8.5 Z m 1,3 a 2,2 0 0 1 2,2 2,2 0 0 1 -2,2 2,2 0 0 1 -2,-2 2,2 0 0 1 2,-2 z" />
  <path
     style="fill:#ffffff"
     d="m 10,8 v 1.649415 a 3.5,3.5 0 0 0 -1.402344,0.808594 l -1.427734,-0.82422 -1,1.732423 1.428711,0.825195 A 3.5,3.5 0 0 0 7.5,13 3.5,3.5 0 0 0 7.598633,13.808595 l -1.428711,0.825195 1,1.73242 1.429688,-0.825195 A 3.5,3.5 0 0 0 10,16.352538 v 1.647461 h 2 v -1.649414 a 3.5,3.5 0 0 0 1.402344,-0.808593 l 1.427734,0.824218 1,-1.73242 -1.428711,-0.825195 A 3.5,3.5 0 0 0 14.5,13 3.5,3.5 0 0 0 14.401367,12.191406 l 1.428711,-0.825195 -1,-1.732422 -1.429687,0.825196 A 3.5,3.5 0 0 0 12,9.647462 V 8 Z m 1,3.000001 a 2,2 0 0 1 2,2 A 2,2 0 0 1 11,15 2,2 0 0 1 9,13.000001 a 2,2 0 0 1 2,-2 z"
     id="path4" />
  <path
     id="path1040"
     style="opacity:0.1;fill:#ffffff;stroke-width:4;stroke-linecap:square"
     d="M 5.5,1 C 3.007005,1 1,3.007005 1,5.5 V 6 C 1,3.507005 3.007005,1.5 5.5,1.5 h 11 C 18.992996,1.5 21,3.507005 21,6 V 5.5 C 21,3.007005 18.992996,1 16.5,1 Z" />
</svg>
