<?xml version="1.0" encoding="UTF-8" standalone="no"?>
<!-- Created with Inkscape (http://www.inkscape.org/) -->

<svg
   width="22"
   height="22"
   viewBox="0 0 22 22"
   version="1.1"
   id="svg5"
   inkscape:version="1.3 (0e150ed6c4, 2023-07-21)"
   sodipodi:docname="desktop-environment-gnome.svg"
   xmlns:inkscape="http://www.inkscape.org/namespaces/inkscape"
   xmlns:sodipodi="http://sodipodi.sourceforge.net/DTD/sodipodi-0.dtd"
   xmlns="http://www.w3.org/2000/svg"
   xmlns:svg="http://www.w3.org/2000/svg">
  <sodipodi:namedview
     id="namedview7"
     pagecolor="#ffffff"
     bordercolor="#000000"
     borderopacity="0.25"
     inkscape:showpageshadow="2"
     inkscape:pageopacity="0.0"
     inkscape:pagecheckerboard="0"
     inkscape:deskcolor="#d1d1d1"
     inkscape:document-units="px"
     showgrid="false"
     inkscape:zoom="35.590909"
     inkscape:cx="10.985951"
     inkscape:cy="11"
     inkscape:window-width="1920"
     inkscape:window-height="984"
     inkscape:window-x="0"
     inkscape:window-y="29"
     inkscape:window-maximized="1"
     inkscape:current-layer="svg5" />
  <defs
     id="defs2" />
  <rect
     style="opacity:0.2;fill:#000000;stroke-width:1.42857;stroke-linecap:square"
     id="rect234"
     width="20"
     height="20"
     x="1"
     y="1.4999995"
     ry="4.5" />
  <rect
     style="fill:#7aa0d9;fill-opacity:1;stroke-width:1.42857;stroke-linecap:square"
     id="rect396"
     width="20"
     height="20"
     x="1"
     y="1"
     ry="4.5" />
  <path
     style="opacity:0.2;fill:#000000;stroke-width:0.5"
     d="M 15.778607,3.5 C 12.816844,3.5 12.261822,8 13.927979,8 15.593896,8 18.740491,3.5 15.778607,3.5 Z m -4.701279,0.510742 c -1.694055,0.238134 -1.098321,3.428649 -0.196294,3.488282 0.90166,0.05963 1.89096,-3.7264155 0.196294,-3.488282 z M 8.012805,5.003906 C 7.926275,5.012356 7.833579,5.034651 7.734478,5.072265 6.1485785,5.674235 7.493521,8.159197 8.381954,7.992188 9.21553,7.835862 9.310701,4.8771955 8.012805,5.003906 Z M 5.927796,7 C 5.7861995,6.996 5.6328115,7.03576 5.4697775,7.131836 4.166095,7.900513 5.9088415,9.757716 6.6758595,9.469727 7.347001,9.217628 6.918972,7.028465 5.927796,7 Z M 12.00899,8.500977 C 9.675031,8.459667 6.596409,9.684577 6.071354,12.144531 5.5027,14.806626 8.412675,18.5 11.44843,18.5 c 1.493434,0 3.215892,-1.411068 3.538166,-3.198242 0.246136,-1.36282 -3.096392,-0.816809 -2.983466,0.08496 0.09221,0.736712 -0.29332,1.119842 -0.825214,1.131835 -0.726193,-0.088 -1.082224,-0.507214 -1.177762,-1.140625 C 9.870102,13.714649 15.108512,12.52926 14.693621,9.950195 14.541875,9.006903 13.409364,8.525761 12.00899,8.500976 Z"
     id="path3" />
  <path
     style="fill:#ffffff;stroke-width:0.5"
     d="M 15.778607,3 C 12.816844,3 12.261822,7.5 13.927979,7.5 15.593896,7.5 18.740491,3 15.778607,3 Z m -4.701279,0.510742 c -1.694055,0.238134 -1.098321,3.428649 -0.196294,3.488282 0.90166,0.05963 1.89096,-3.7264155 0.196294,-3.488282 z M 8.012805,4.503906 C 7.926275,4.512356 7.833579,4.534651 7.734478,4.572265 6.1485785,5.174235 7.493521,7.659197 8.381954,7.492188 9.21553,7.335862 9.310701,4.3771955 8.012805,4.503906 Z M 5.927796,6.5 C 5.7861995,6.496 5.6328115,6.53576 5.4697775,6.631836 4.166095,7.400513 5.9088415,9.257716 6.6758595,8.969727 7.347001,8.717628 6.918972,6.528465 5.927796,6.5 Z M 12.00899,8.000977 C 9.675031,7.959667 6.596409,9.184577 6.071354,11.644531 5.5027,14.306626 8.412675,18 11.44843,18 c 1.493434,0 3.215892,-1.411068 3.538166,-3.198242 0.246136,-1.36282 -3.096392,-0.816809 -2.983466,0.08496 0.09221,0.736712 -0.29332,1.119842 -0.825214,1.131835 -0.726193,-0.088 -1.082224,-0.507214 -1.177762,-1.140625 C 9.870102,13.214649 15.108512,12.02926 14.693621,9.450195 14.541875,8.506903 13.409364,8.025761 12.00899,8.000976 Z"
     id="path4" />
  <path
     id="path1040"
     style="opacity:0.2;fill:#ffffff;stroke-width:4;stroke-linecap:square"
     d="M 5.5,1.0000001 C 3.007005,1.0000001 1,3.0070051 1,5.5 V 6 C 1,3.5070051 3.007005,1.5000001 5.5,1.5000001 h 11 C 18.992996,1.5000001 21,3.5070051 21,6 V 5.5 C 21,3.0070052 18.992996,1.0000001 16.5,1.0000001 Z" />
</svg>
