<?xml version="1.0" encoding="UTF-8" standalone="no"?>
<!-- Created with Inkscape (http://www.inkscape.org/) -->

<svg
   width="22"
   height="22"
   viewBox="0 0 22 22"
   version="1.1"
   id="svg5"
   inkscape:version="1.2.2 (1:1.2.2+202305151914+b0a8486541)"
   sodipodi:docname="dolphin-emu.svg"
   xmlns:inkscape="http://www.inkscape.org/namespaces/inkscape"
   xmlns:sodipodi="http://sodipodi.sourceforge.net/DTD/sodipodi-0.dtd"
   xmlns="http://www.w3.org/2000/svg"
   xmlns:svg="http://www.w3.org/2000/svg">
  <sodipodi:namedview
     id="namedview7"
     pagecolor="#ffffff"
     bordercolor="#000000"
     borderopacity="0.25"
     inkscape:showpageshadow="2"
     inkscape:pageopacity="0.0"
     inkscape:pagecheckerboard="0"
     inkscape:deskcolor="#d1d1d1"
     inkscape:document-units="px"
     showgrid="false"
     inkscape:zoom="36.636364"
     inkscape:cx="10.986352"
     inkscape:cy="11"
     inkscape:window-width="1920"
     inkscape:window-height="1008"
     inkscape:window-x="0"
     inkscape:window-y="0"
     inkscape:window-maximized="1"
     inkscape:current-layer="svg5" />
  <defs
     id="defs2" />
  <rect
     style="opacity:0.2;fill:#000000;stroke-width:1.42857;stroke-linecap:square"
     id="rect234"
     width="20"
     height="20"
     x="1"
     y="1.5"
     ry="4.5" />
  <rect
     style="fill:#e4e4e4;fill-opacity:1;stroke-width:1.42857;stroke-linecap:square"
     id="rect396"
     width="20"
     height="20"
     x="1"
     y="1"
     ry="4.5" />
  <path
     d="M 13.571343,7.5042615 C 12.755637,7.5565895 12.022807,8.0338885 11.885797,8.100941 11.446492,7.975189 10.945629,7.7135105 10.359429,7.614056 8.3318595,7.2700565 6.6160135,7.8191395 5.7549375,8.4167905 4.626334,9.200122 4.65755,10.079603 4.5645075,10.444691 c -0.057633,0.226163 -0.5705913,0.644106 -0.564453,0.9375 0.01003,0.382966 0.249394,0.506233 0.249394,0.506233 0.2153625,-0.017 0.53661,-0.170656 0.8111515,-0.283577 0.407518,-0.167621 0.4390125,-0.258632 1.552734,-0.424805 0.512387,-0.07645 1.051643,-0.09917 1.453125,-0.102539 0.1562335,0.329898 0.544765,1.008722 1.217773,1.333985 0.399358,0.183765 1.000818,0.26589 1.266602,0.318359 l 0.777344,0.115234 v -0.314453 h -10e-4 c 0,0 -0.652366,-0.270557 -1.053711,-0.671875 -0.169384,-0.169371 -0.170921,-0.371999 -0.217774,-0.574219 0.618468,0.116431 1.169482,0.204634 2.473633,0.704102 1.201153,0.46002 2.02152,1.128139 2.022461,1.128906 l 0.001,10e-4 0.0019,0.002 v -0.314454 l -0.003,-0.0019 C 14.540777,12.790628 13.699318,11.747306 12.284109,11.049306 11.114484,10.472416 10.153726,10.187078 8.8231715,10.122548 7.44133,10.055528 6.5226995,10.216248 6.422781,10.2329 6.541269,9.997406 6.781289,9.694366 7.4257105,9.39208 8.3804445,8.944223 9.881605,8.869316 11.605398,9.30907 c 2.435341,0.621282 3.265912,1.679226 4.313477,2.772461 1.114328,1.162923 2.077011,3.116879 2.078125,3.11914 l 0.001,0.002 0.002,0.0049 v -0.316406 l -0.0088,-0.02441 c -0.04657,-0.15609 -0.336105,-1.097465 -0.825196,-2 -0.644352,-1.189046 -1.19874,-2.039087 -2.12207,-2.902343 C 14.399815,9.483769 13.744413,8.829619 13.856495,8.5472725 14.14638,8.165849 14.932693,7.932642 14.935597,7.932038 h 0.002 v -0.001 -0.3134765 c 0,0 -0.497062,-0.169034 -1.366211,-0.113281 z m 0.975587,5.6093745 c 0,0 0.0078,0.0069 0,0 z"
     style="opacity:0.1;fill:#000000;stroke-width:0.5"
     id="path995" />
  <path
     d="M 13.571343,7.0042615 C 12.755637,7.0565895 12.022807,7.5338885 11.885797,7.600941 11.446492,7.475189 10.945629,7.2135105 10.359429,7.114056 8.3318595,6.7700565 6.6160135,7.31914 5.7549375,7.9167905 4.626334,8.7001225 4.65755,9.579603 4.5645075,9.944691 c -0.057633,0.226164 -0.5705914,0.644106 -0.564453,0.9375 0.01003,0.382967 0.249394,0.506233 0.249394,0.506233 0.2153625,-0.017 0.53661,-0.170655 0.8111515,-0.283576 0.407518,-0.167622 0.4390125,-0.258633 1.552734,-0.424805 0.512387,-0.07645 1.051643,-0.09917 1.453125,-0.102539 0.1562335,0.329897 0.544765,1.008721 1.217773,1.333984 0.399358,0.183766 1.000818,0.26589 1.266602,0.31836 l 0.777344,0.115233 v -0.314453 h -10e-4 c 0,0 -0.652366,-0.270556 -1.053711,-0.671875 -0.169384,-0.169371 -0.170921,-0.371998 -0.217774,-0.574218 0.618468,0.116431 1.169482,0.204633 2.473633,0.704101 1.201153,0.46002 2.02152,1.12814 2.022461,1.128906 l 0.001,10e-4 0.0019,0.002 v -0.314453 l -0.003,-0.002 C 14.540877,12.290534 13.699418,11.247206 12.284209,10.549206 11.114584,9.972316 10.153826,9.686978 8.8232715,9.622448 7.44143,9.555427 6.5227995,9.716153 6.422881,9.7328 6.541369,9.497305 6.781389,9.194266 7.4258105,8.8919795 8.3805445,8.444123 9.881705,8.369216 11.605498,8.808972 c 2.435341,0.621281 3.265912,1.679226 4.313477,2.772461 1.114328,1.162923 2.077011,3.116879 2.078125,3.11914 l 0.001,0.0019 0.002,0.0049 v -0.316406 l -0.0088,-0.02441 c -0.04657,-0.15609 -0.336105,-1.097465 -0.825196,-2 C 16.521752,11.177511 15.967364,10.32747 15.044034,9.464213 14.399815,8.9837685 13.744413,8.329619 13.856495,8.0472725 14.14638,7.665849 14.932693,7.432642 14.935597,7.432038 h 0.002 v -0.001 -0.3134765 c 0,0 -0.497062,-0.169034 -1.366211,-0.113281 z m 0.975587,5.6093745 c 0,0 0.0078,0.0069 0,0 z"
     style="fill:#0096f4;stroke-width:0.5"
     id="path915" />
  <path
     id="path1040"
     style="opacity:0.2;fill:#ffffff;stroke-width:4;stroke-linecap:square"
     d="M 5.5,1 C 3.007005,1 1,3.007005 1,5.5 V 6 C 1,3.507005 3.007005,1.5 5.5,1.5 h 11 C 18.992996,1.5 21,3.507005 21,6 V 5.5 C 21,3.007005 18.992996,1 16.5,1 Z" />
</svg>
