<?xml version="1.0" encoding="UTF-8" standalone="no"?>
<!-- Created with Inkscape (http://www.inkscape.org/) -->

<svg
   width="22"
   height="22"
   viewBox="0 0 22 22"
   version="1.1"
   id="svg5"
   inkscape:version="1.3.2 (091e20ef0f, 2023-11-25, custom)"
   sodipodi:docname="dosbox.svg"
   xmlns:inkscape="http://www.inkscape.org/namespaces/inkscape"
   xmlns:sodipodi="http://sodipodi.sourceforge.net/DTD/sodipodi-0.dtd"
   xmlns="http://www.w3.org/2000/svg"
   xmlns:svg="http://www.w3.org/2000/svg">
  <sodipodi:namedview
     id="namedview7"
     pagecolor="#ffffff"
     bordercolor="#000000"
     borderopacity="0.25"
     inkscape:showpageshadow="2"
     inkscape:pageopacity="0.0"
     inkscape:pagecheckerboard="0"
     inkscape:deskcolor="#d1d1d1"
     inkscape:document-units="px"
     showgrid="false"
     inkscape:zoom="37.363636"
     inkscape:cx="11"
     inkscape:cy="11"
     inkscape:window-width="1920"
     inkscape:window-height="1008"
     inkscape:window-x="0"
     inkscape:window-y="0"
     inkscape:window-maximized="1"
     inkscape:current-layer="svg5" />
  <defs
     id="defs2" />
  <rect
     style="opacity:0.2;fill:#000000;stroke-width:1.42858;stroke-linecap:square"
     id="rect234"
     width="20"
     height="20"
     x="1"
     y="1.4999995"
     ry="4.5" />
  <rect
     style="fill:#b76728;fill-opacity:1;stroke-width:1.42858;stroke-linecap:square"
     id="rect396"
     width="20"
     height="20"
     x="1"
     y="1"
     ry="4.5" />
  <rect
     style="opacity:0.2;fill:#000000;fill-opacity:1;stroke-width:2;stroke-linecap:square"
     id="rect3815"
     width="18"
     height="18"
     x="2"
     y="2.5000002"
     ry="3.5" />
  <rect
     style="fill:#4d4d4d;fill-opacity:1;stroke-width:2;stroke-linecap:square"
     id="rect3817"
     width="18"
     height="18"
     x="2"
     y="2"
     ry="3.5" />
  <path
     id="path3"
     style="opacity:0.2;fill:#000000"
     d="m 4,6.5 v 1 h 1 v 8 H 4 v 1 h 5 v -1 h 1 v -1 h 1 v -6 h -1 v -1 H 9 v -1 z m 7,0 v 1 h 1 v 8 h -1 v 1 h 6 v -1 h 1 v -4 h -1 v -1 h 1 v -3 h -1 v -1 z m -4,1 h 1 v 1 h 1 v 6 H 8 v 1 H 7 Z m 7,0 h 2 v 3 h -2 z m 0,4 h 2 v 4 h -2 z" />
  <path
     style="fill:#e4e4e4"
     d="m 4,6 v 1 h 1 v 8 H 4 v 1 h 5 v -1 h 1 v -1 h 1 V 8 H 10 V 7 H 9 V 6 Z m 3,1 h 1 v 1 h 1 v 6 H 8 v 1 H 7 Z m 4,-1 v 1 h 1 v 8 h -1 v 1 h 6 v -1 h 1 v -4 h -1 v -1 h 1 V 7 H 17 V 6 Z m 3,1 h 2 v 3 h -2 z m 0,4 h 2 v 4 h -2 z"
     id="path4" />
  <path
     id="path1040"
     style="opacity:0.1;fill:#ffffff;stroke-width:4;stroke-linecap:square"
     d="M 5.5,1.0000001 C 3.007005,1.0000001 1,3.0070051 1,5.5 V 6 C 1,3.5070051 3.007005,1.5000001 5.5,1.5000001 h 11 C 18.992996,1.5000001 21,3.5070052 21,6 V 5.5 C 21,3.0070053 18.992996,1.0000001 16.5,1.0000001 Z" />
</svg>
