<?xml version="1.0" encoding="UTF-8" standalone="no"?>
<!-- Created with Inkscape (http://www.inkscape.org/) -->

<svg
   width="22"
   height="22"
   viewBox="0 0 22 22"
   version="1.1"
   id="svg5"
   inkscape:version="1.3.1 (91b66b0783, 2023-11-16, custom)"
   sodipodi:docname="gnome-power-statistics.svg"
   xmlns:inkscape="http://www.inkscape.org/namespaces/inkscape"
   xmlns:sodipodi="http://sodipodi.sourceforge.net/DTD/sodipodi-0.dtd"
   xmlns="http://www.w3.org/2000/svg"
   xmlns:svg="http://www.w3.org/2000/svg">
  <sodipodi:namedview
     id="namedview7"
     pagecolor="#ffffff"
     bordercolor="#000000"
     borderopacity="0.25"
     inkscape:showpageshadow="2"
     inkscape:pageopacity="0.0"
     inkscape:pagecheckerboard="0"
     inkscape:deskcolor="#d1d1d1"
     inkscape:document-units="px"
     showgrid="false"
     inkscape:zoom="33"
     inkscape:cx="10.984848"
     inkscape:cy="11"
     inkscape:window-width="1920"
     inkscape:window-height="937"
     inkscape:window-x="0"
     inkscape:window-y="32"
     inkscape:window-maximized="1"
     inkscape:current-layer="svg5" />
  <defs
     id="defs2" />
  <rect
     style="opacity:0.2;fill:#000000;stroke-width:1.42857;stroke-linecap:square"
     id="rect234"
     width="20"
     height="20"
     x="1"
     y="1.5"
     ry="4.5" />
  <rect
     style="fill:#fecd38;fill-opacity:1;stroke-width:1.42857;stroke-linecap:square"
     id="rect396"
     width="20"
     height="20"
     x="1"
     y="1"
     ry="4.5" />
  <path
     d="M 16.52148,5.81445 16.20703,6.38086 11.35742,14.91406 5.71289,10.15625 5.36914,9.86523 5.05664,10.18555 1,14.51367 v 1.41406 l 4.43164,-4.74023 5.75,4.85742 0.44922,0.38281 L 11.92188,15.9082 16.75,7.41992 21,12.04688 V 10.62305 L 16.97852,6.27344 Z"
     style="opacity:1;fill:#3f3f3f;fill-opacity:1"
     id="path1" />
  <path
     d="M 16.5,5.5 C 15.67157,5.5 15,6.17157 15,7 15,7.82843 15.67157,8.5 16.5,8.5 17.32843,8.5 18,7.82843 18,7 18,6.17157 17.32843,5.5 16.5,5.5 Z m -11,4 C 4.67157,9.5 4,10.17157 4,11 4,11.82843 4.67157,12.5 5.5,12.5 6.32843,12.5 7,11.82843 7,11 7,10.17157 6.32843,9.5 5.5,9.5 Z m 6,5 c -0.82843,0 -1.5,0.67157 -1.5,1.5 0,0.82843 0.67157,1.5 1.5,1.5 0.82843,0 1.5,-0.67157 1.5,-1.5 0,-0.82843 -0.67157,-1.5 -1.5,-1.5 z"
     style="opacity:0.2;fill:#000000;fill-opacity:1;stroke-linecap:round;stroke-linejoin:round"
     id="path2" />
  <path
     d="M 16.5,5 C 15.67157,5 15,5.67157 15,6.5 15,7.32843 15.67157,8 16.5,8 17.32843,8 18,7.32843 18,6.5 18,5.67157 17.32843,5 16.5,5 Z M 5.5,9 C 4.67157,9 4,9.67157 4,10.5 4,11.32843 4.67157,12 5.5,12 6.32843,12 7,11.32843 7,10.5 7,9.67157 6.32843,9 5.5,9 Z m 6,5 C 10.67157,14 10,14.67157 10,15.5 10,16.32843 10.67157,17 11.5,17 12.32843,17 13,16.32843 13,15.5 13,14.67157 12.32843,14 11.5,14 Z"
     style="fill:#4f4f4f;fill-opacity:1;stroke-linecap:round;stroke-linejoin:round"
     id="path3" />
  <path
     id="path1040"
     style="opacity:0.2;fill:#ffffff;stroke-width:4;stroke-linecap:square"
     d="M 5.5,1 C 3.007005,1 1,3.007005 1,5.5 V 6 C 1,3.507005 3.007005,1.5 5.5,1.5 h 11 C 18.992996,1.5 21,3.507005 21,6 V 5.5 C 21,3.007005 18.992996,1 16.5,1 Z" />
</svg>
