<?xml version="1.0" encoding="UTF-8" standalone="no"?>
<!-- Created with Inkscape (http://www.inkscape.org/) -->

<svg
   width="22"
   height="22"
   viewBox="0 0 22 22"
   version="1.1"
   id="svg5"
   inkscape:version="1.3 (0e150ed6c4, 2023-07-21)"
   sodipodi:docname="gnome-characters.svg"
   xmlns:inkscape="http://www.inkscape.org/namespaces/inkscape"
   xmlns:sodipodi="http://sodipodi.sourceforge.net/DTD/sodipodi-0.dtd"
   xmlns="http://www.w3.org/2000/svg"
   xmlns:svg="http://www.w3.org/2000/svg">
  <sodipodi:namedview
     id="namedview7"
     pagecolor="#ffffff"
     bordercolor="#000000"
     borderopacity="0.25"
     inkscape:showpageshadow="2"
     inkscape:pageopacity="0.0"
     inkscape:pagecheckerboard="0"
     inkscape:deskcolor="#d1d1d1"
     inkscape:document-units="px"
     showgrid="false"
     inkscape:zoom="36.5"
     inkscape:cx="11"
     inkscape:cy="11"
     inkscape:window-width="1850"
     inkscape:window-height="1011"
     inkscape:window-x="70"
     inkscape:window-y="32"
     inkscape:window-maximized="1"
     inkscape:current-layer="svg5" />
  <defs
     id="defs2" />
  <rect
     style="opacity:0.2;fill:#000000;stroke-width:1.42857;stroke-linecap:square"
     id="rect234"
     width="20"
     height="20"
     x="1"
     y="1.5"
     ry="4.5" />
  <rect
     style="fill:#e4e4e4;fill-opacity:1;stroke-width:1.42857;stroke-linecap:square"
     id="rect396"
     width="20"
     height="20"
     x="1"
     y="1"
     ry="4.5" />
  <path
     id="path2"
     style="opacity:0.1"
     d="M 4 2.5 L 4 6.4238281 C 4 6.4238281 4.2550817 7.9720547 2.9179688 8.3203125 L 3.3652344 8.96875 C 4.7703767 8.6431493 5 7.5 5 7.5 L 8 7.5 C 8 7.5 7.8810909 8.5505839 7.1035156 8.5761719 L 6.6914062 9.5 C 8.8788309 9.48592 9.02976 7.7720012 9 6.6542969 L 9 2.5 L 4 2.5 z M 15.800781 2.5 C 14.248935 2.5 13 3.7489339 13 5.3007812 L 13 5.6992188 C 13 7.2510661 14.248935 8.5 15.800781 8.5 L 16.199219 8.5 C 17.751065 8.5 19 7.2510661 19 5.6992188 L 19 5.3007812 C 19 3.7489339 17.751065 2.5 16.199219 2.5 L 15.800781 2.5 z M 5 3.5 L 8 3.5 L 8 4.5 L 5 4.5 L 5 3.5 z M 5 5.5 L 8 5.5 L 8 6.5 L 5 6.5 L 5 5.5 z M 5.9960938 13.5 C 5.8489974 13.5 5.7163655 13.529118 5.5976562 13.585938 C 5.4479797 13.658237 5.3325803 13.735725 5.25 13.818359 C 5.1519351 13.916489 5.0756773 14.027765 5.0214844 14.154297 C 4.9672914 14.28083 4.9394531 14.418589 4.9394531 14.568359 C 4.9394531 14.712968 4.9659652 14.851353 5.0175781 14.980469 C 5.0691911 15.109585 5.1467747 15.222189 5.25 15.320312 C 5.275806 15.346142 5.318923 15.383212 5.3808594 15.429688 C 5.4221503 15.460667 5.4599654 15.493147 5.4960938 15.529297 C 5.5889977 15.617097 5.6639295 15.726353 5.7207031 15.855469 C 5.7774771 15.982001 5.8066406 16.131671 5.8066406 16.304688 C 5.6440611 16.304688 5.4994977 16.278222 5.3730469 16.226562 C 5.2465955 16.174913 5.1325222 16.097433 5.0292969 15.994141 C 4.9776869 15.942501 4.9432209 15.907381 4.9277344 15.886719 C 4.8812796 15.81958 4.8461154 15.771914 4.8203125 15.746094 C 4.7222487 15.647964 4.6101986 15.571805 4.4863281 15.517578 C 4.3650379 15.463348 4.225778 15.4375 4.0683594 15.4375 C 3.9186823 15.4375 3.7807476 15.463348 3.6542969 15.517578 C 3.5278457 15.571808 3.4164236 15.647967 3.3183594 15.746094 C 3.2254565 15.839054 3.1478731 15.956256 3.0859375 16.095703 C 3.0291643 16.21965 3 16.354761 3 16.501953 C 3 16.649146 3.0291676 16.781604 3.0859375 16.900391 C 3.1556144 17.050159 3.2331985 17.167366 3.3183594 17.25 C 3.4164243 17.34813 3.5278451 17.424289 3.6542969 17.478516 C 3.7807476 17.532746 3.9186823 17.558594 4.0683594 17.558594 C 4.2128749 17.558594 4.3494844 17.534072 4.4785156 17.482422 C 4.6075476 17.430782 4.7222486 17.353293 4.8203125 17.25 C 4.8461185 17.22417 4.8812825 17.179159 4.9277344 17.117188 C 4.9587033 17.075868 4.9931684 17.038108 5.0292969 17.001953 C 5.1299412 16.901245 5.2426894 16.82508 5.3691406 16.773438 C 5.4981726 16.719208 5.6440611 16.691406 5.8066406 16.691406 C 5.8066406 16.856672 5.7788033 17.002371 5.7246094 17.128906 C 5.6729964 17.252856 5.5967383 17.368735 5.4960938 17.474609 C 5.4625448 17.508179 5.4260558 17.539333 5.3847656 17.570312 C 5.3202457 17.616802 5.2758027 17.653872 5.25 17.679688 C 5.1493557 17.780394 5.0717721 17.894324 5.0175781 18.023438 C 4.9659652 18.152549 4.9394531 18.290936 4.9394531 18.435547 C 4.9394531 18.585319 4.9672904 18.723079 5.0214844 18.849609 C 5.0756773 18.976143 5.1519357 19.08742 5.25 19.185547 C 5.3429029 19.278517 5.4583024 19.355995 5.5976562 19.417969 C 5.7189473 19.472196 5.8529037 19.5 6 19.5 C 6.1470963 19.5 6.2810538 19.472199 6.4023438 19.417969 C 6.541698 19.355999 6.6570973 19.278513 6.75 19.185547 C 6.8480649 19.087417 6.9243227 18.976143 6.9785156 18.849609 C 7.0327096 18.723079 7.0605469 18.585319 7.0605469 18.435547 C 7.0605469 18.290936 7.0327096 18.152549 6.9785156 18.023438 C 6.9269046 17.894317 6.8506449 17.780394 6.75 17.679688 C 6.724194 17.653858 6.6797509 17.616788 6.6152344 17.570312 C 6.5739444 17.539323 6.5374544 17.508169 6.5039062 17.474609 C 6.4187453 17.389389 6.3451391 17.281457 6.2832031 17.152344 C 6.2238482 17.020642 6.1933594 16.867 6.1933594 16.691406 C 6.3585196 16.691406 6.5030825 16.719218 6.6269531 16.773438 C 6.7534045 16.825087 6.8688034 16.901244 6.9746094 17.001953 C 7.0081593 17.035523 7.0412997 17.071963 7.0722656 17.113281 C 7.1187206 17.177841 7.1538846 17.22418 7.1796875 17.25 C 7.2803321 17.350712 7.3963595 17.428202 7.5253906 17.482422 C 7.6544223 17.534072 7.7910309 17.558594 7.9355469 17.558594 C 8.0852235 17.558594 8.2231578 17.532746 8.3496094 17.478516 C 8.4760606 17.424289 8.5874825 17.348128 8.6855469 17.25 C 8.7784517 17.15704 8.8560354 17.039829 8.9179688 16.900391 C 8.9721627 16.779028 9 16.645239 9 16.498047 C 9 16.350854 8.9721617 16.21707 8.9179688 16.095703 C 8.8560334 15.956256 8.7784498 15.839058 8.6855469 15.746094 C 8.5874825 15.647966 8.4760596 15.571805 8.3496094 15.517578 C 8.2231578 15.463348 8.0852235 15.4375 7.9355469 15.4375 C 7.7910309 15.4375 7.6544223 15.463348 7.5253906 15.517578 C 7.3963592 15.569228 7.2803321 15.645386 7.1796875 15.746094 C 7.1538815 15.771914 7.1187175 15.818255 7.0722656 15.882812 C 7.0412987 15.924132 7.0081573 15.960572 6.9746094 15.994141 C 6.8894485 16.079361 6.7820029 16.15287 6.6503906 16.214844 C 6.5213591 16.274244 6.3688423 16.304688 6.1933594 16.304688 C 6.1933594 16.142003 6.2185452 15.998953 6.2675781 15.875 C 6.3191911 15.748466 6.3981007 15.63259 6.5039062 15.529297 C 6.5555182 15.477647 6.5906822 15.445177 6.6113281 15.429688 C 6.6784271 15.383198 6.724196 15.346128 6.75 15.320312 C 6.8480649 15.222183 6.9243227 15.113553 6.9785156 14.992188 C 7.0327086 14.868237 7.0605469 14.725881 7.0605469 14.568359 C 7.0605469 14.418589 7.0327086 14.28083 6.9785156 14.154297 C 6.9243204 14.027781 6.8480639 13.916487 6.75 13.818359 C 6.6570973 13.725394 6.541698 13.647907 6.4023438 13.585938 C 6.2784731 13.529128 6.1431896 13.5 5.9960938 13.5 z M 17.5 13.5 C 17.223862 13.5 17 13.723865 17 14 C 17 14.276138 17.223862 14.5 17.5 14.5 C 17.776136 14.5 18 14.276137 18 14 C 18 13.723865 17.776136 13.5 17.5 13.5 z M 16.5 14.5 C 16.223862 14.5 16 14.723865 16 15 C 16 15.276138 16.223862 15.5 16.5 15.5 C 16.776136 15.5 17 15.276137 17 15 C 17 14.723865 16.776136 14.5 16.5 14.5 z M 18.5 14.5 C 18.223862 14.5 18 14.723865 18 15 C 18 15.276138 18.223862 15.5 18.5 15.5 C 18.776136 15.5 19 15.276137 19 15 C 19 14.723865 18.776136 14.5 18.5 14.5 z M 20 16.236328 L 19.015625 16.660156 L 19.015625 17.505859 L 18.03125 17.505859 L 18.03125 17.082031 L 18.03125 16.660156 L 17.046875 17.082031 L 17.046875 17.505859 L 16.0625 17.503906 L 16.0625 17.011719 L 15.025391 17.580078 L 15.025391 18.488281 C 15.025391 18.760174 14.805096 18.980469 14.533203 18.980469 C 14.261311 18.980469 13.999956 18.757055 14.041016 18.488281 L 14.041016 18.148438 L 13.074219 18.707031 C 13.182193 19.429611 13.802605 19.963828 14.533203 19.964844 C 15.344388 19.964397 16.054738 19.311165 16.060547 18.5 L 16.0625 18.5 L 20 18.5 L 20 16.236328 z " />
  <path
     style="fill:#4191ef"
     d="m 3.9997614,2 v 3.923077 c 0,0 0.2559815,1.5486435 -1.0811371,1.896902 l 0.446661,0.648553 C 4.7704332,8.142931 5,7 5,7 H 8 C 8,7 7.88154,8.050874 7.1039615,8.076462 L 6.692308,8.999539 C 8.8797411,8.985459 9.02976,7.2715546 9,6.1538459 V 2 Z m 1,0.9999998 H 8 V 4 H 4.9997614 Z M 5,5 H 8 V 6 H 5 Z"
     id="path3" />
  <path
     style="fill:#26a269"
     d="M 17.5,13 C 17.223862,13 17,13.223865 17,13.5 17,13.776138 17.223862,14 17.5,14 17.776136,14 18,13.776137 18,13.5 18,13.223865 17.776136,13 17.5,13 Z m -1,1 C 16.223862,14 16,14.223865 16,14.5 16,14.776138 16.223862,15 16.5,15 16.776136,15 17,14.776137 17,14.5 17,14.223865 16.776136,14 16.5,14 Z m 2,0 C 18.223862,14 18,14.223865 18,14.5 18,14.776138 18.223862,15 18.5,15 18.776136,15 19,14.776137 19,14.5 19,14.223865 18.776136,14 18.5,14 Z m 1.5,1.736328 -0.984375,0.423828 v 0.845703 H 18.03125 v -0.423828 -0.421875 l -0.984375,0.421875 v 0.423828 l -0.984375,-0.002 v -0.492187 l -1.037109,0.568359 v 0.908203 c 0,0.271892 -0.220295,0.492188 -0.492188,0.492188 -0.271892,0 -0.533247,-0.223414 -0.492187,-0.492188 v -0.339843 l -0.966797,0.558593 c 0.107974,0.72258 0.728382,1.256797 1.458984,1.257813 C 15.344392,19.46435 16.054738,18.811169 16.060547,18 H 16.0625 20 Z"
     id="path4" />
  <path
     style="fill:#a347ba"
     d="m 5.8064513,15.804394 q 0,-0.259525 -0.085161,-0.449323 -0.085161,-0.193674 -0.2245166,-0.325374 -0.054192,-0.05423 -0.1161285,-0.100707 -0.092904,-0.06972 -0.131613,-0.108457 -0.1548386,-0.147192 -0.2322581,-0.340867 -0.077419,-0.193674 -0.077419,-0.410587 0,-0.224661 0.08129,-0.414461 0.08129,-0.189798 0.228387,-0.33699 Q 5.3729032,13.193677 5.5974192,13.08522 5.7754836,13 5.9961287,13 q 0.220645,0 0.4064516,0.08522 0.2090325,0.09296 0.3483871,0.232408 0.1470965,0.147192 0.228387,0.33699 0.08129,0.1898 0.08129,0.414461 0,0.236283 -0.08129,0.422208 -0.08129,0.182054 -0.228387,0.329246 -0.038706,0.03873 -0.1393546,0.108457 -0.030969,0.02323 -0.1083875,0.100707 -0.1587095,0.15494 -0.2361285,0.344741 -0.073549,0.185929 -0.073549,0.429956 0.2632256,0 0.4567741,-0.0891 0.197419,-0.09296 0.325161,-0.220788 0.050323,-0.05035 0.096774,-0.112327 0.069678,-0.09684 0.108387,-0.135575 0.1509675,-0.151061 0.3445159,-0.228531 0.1935481,-0.08134 0.4103226,-0.08134 0.2245161,0 0.4141941,0.08134 0.1896766,0.08134 0.3367737,0.228531 0.139355,0.139446 0.232258,0.348617 0.08129,0.18205 0.08129,0.402839 0,0.220788 -0.08129,0.402841 -0.0929,0.209163 -0.232258,0.34861 -0.1470972,0.147192 -0.3367737,0.228533 -0.189678,0.08134 -0.4141941,0.08134 -0.2167745,0 -0.4103226,-0.07748 -0.1935479,-0.08133 -0.3445154,-0.232398 -0.038705,-0.03873 -0.108387,-0.135572 -0.04645,-0.06198 -0.096775,-0.112332 -0.1587095,-0.151064 -0.3483871,-0.228532 -0.1858065,-0.08134 -0.433548,-0.08134 0,0.26339 0.089033,0.460943 0.092904,0.19367 0.220645,0.321494 0.050323,0.05035 0.1122584,0.09684 0.096775,0.06972 0.1354836,0.108457 0.150968,0.151066 0.228387,0.344736 0.081291,0.193673 0.081291,0.410589 0,0.224658 -0.081291,0.414459 -0.08129,0.189801 -0.228387,0.336991 -0.1393546,0.139449 -0.3483871,0.232409 -0.1819355,0.08134 -0.4025805,0.08134 -0.2206451,0 -0.4025805,-0.08134 -0.209032,-0.09296 -0.3483871,-0.232409 -0.1470971,-0.14719 -0.228387,-0.336991 -0.081291,-0.189801 -0.081291,-0.414459 0,-0.216916 0.07742,-0.410589 0.081291,-0.19367 0.2322581,-0.344736 0.038704,-0.03873 0.1354836,-0.108457 0.061935,-0.04648 0.1122579,-0.09684 0.1509681,-0.158811 0.2283875,-0.344735 0.081291,-0.189803 0.081291,-0.437702 -0.2438705,0 -0.4374191,0.08134 -0.189678,0.07747 -0.3406451,0.228532 -0.054192,0.05423 -0.1006455,0.116204 -0.069678,0.09296 -0.108387,0.1317 -0.1470965,0.154939 -0.3406451,0.232403 -0.1935481,0.07748 -0.4103226,0.07748 -0.2245162,0 -0.4141935,-0.08134 Q 3.464516,16.896709 3.317419,16.749518 3.1896771,16.625567 3.085161,16.400908 3,16.222728 3,16.001939 q 0,-0.220788 0.085161,-0.406711 0.092904,-0.209171 0.232258,-0.348617 0.147097,-0.14719 0.3367744,-0.228531 0.1896773,-0.08134 0.4141935,-0.08134 0.2361291,0 0.418065,0.08134 0.1858063,0.08134 0.3329027,0.228531 0.038705,0.03873 0.1083871,0.139446 0.02323,0.03099 0.1006454,0.108456 0.1548386,0.154938 0.3445162,0.232409 0.1896775,0.07748 0.433548,0.07748 z"
     id="path5" />
  <rect
     style="fill:#ffb820"
     width="6"
     height="6"
     x="13"
     y="2"
     ry="2.8010001"
     id="rect5" />
  <path
     style="fill:#c01c27"
     d="m 15,5.9999998 h 2 c 0,0 0,0.5000001 -1,0.5000001 -1,0 -1,-0.5000001 -1,-0.5000001 z"
     id="path6" />
  <rect
     style="fill:#ffffff"
     width="2"
     height="0.5"
     x="14.999998"
     y="5.5"
     id="rect6" />
  <path
     style="fill:#b45600"
     d="m 14.5,4.2500004 c 0,-0.138073 0.111929,-0.2500005 0.250001,-0.2500005 C 14.888069,3.9999999 15,4.1119274 15,4.2500004 v 0.7499995 h -0.5 z"
     id="path7" />
  <path
     style="fill:#b45600"
     d="m 17,4.2500004 c 0,-0.138073 0.111929,-0.2500005 0.250001,-0.2500005 0.138068,0 0.249999,0.1119275 0.249999,0.2500005 V 4.9999999 H 17 Z"
     id="path8" />
  <path
     style="opacity:0.1"
     d="m 10,1 v 9 H 1 v 2 h 9 v 9 h 2 v -9 h 9 V 10 H 12 V 1 Z"
     id="path9"
     sodipodi:nodetypes="ccccccccccccc" />
  <path
     id="path1040"
     style="opacity:0.2;fill:#ffffff;stroke-width:4;stroke-linecap:square"
     d="M 5.5,1 C 3.007005,1 1,3.007005 1,5.5 V 6 C 1,3.507005 3.007005,1.5 5.5,1.5 h 11 C 18.992996,1.5 21,3.507005 21,6 V 5.5 C 21,3.007005 18.992996,1 16.5,1 Z" />
</svg>
