<?xml version="1.0" encoding="UTF-8" standalone="no"?>
<!-- Created with Inkscape (http://www.inkscape.org/) -->

<svg
   width="22"
   height="22"
   viewBox="0 0 22 22"
   version="1.1"
   id="svg5"
   inkscape:version="1.3 (0e150ed6c4, 2023-07-21)"
   sodipodi:docname="gnome-mahjongg.svg"
   xmlns:inkscape="http://www.inkscape.org/namespaces/inkscape"
   xmlns:sodipodi="http://sodipodi.sourceforge.net/DTD/sodipodi-0.dtd"
   xmlns="http://www.w3.org/2000/svg"
   xmlns:svg="http://www.w3.org/2000/svg">
  <sodipodi:namedview
     id="namedview7"
     pagecolor="#ffffff"
     bordercolor="#000000"
     borderopacity="0.25"
     inkscape:showpageshadow="2"
     inkscape:pageopacity="0.0"
     inkscape:pagecheckerboard="0"
     inkscape:deskcolor="#d1d1d1"
     inkscape:document-units="px"
     showgrid="false"
     inkscape:zoom="35.590909"
     inkscape:cx="10.985951"
     inkscape:cy="11"
     inkscape:window-width="1920"
     inkscape:window-height="984"
     inkscape:window-x="0"
     inkscape:window-y="29"
     inkscape:window-maximized="1"
     inkscape:current-layer="svg5" />
  <defs
     id="defs2" />
  <rect
     style="opacity:0.2;fill:#000000;stroke-width:1.42857;stroke-linecap:square"
     id="rect234"
     width="20"
     height="20"
     x="1"
     y="1.5"
     ry="4.5" />
  <rect
     style="fill:#fff689;fill-opacity:1;stroke-width:1.42857;stroke-linecap:square"
     id="rect396"
     width="19"
     height="20"
     x="1"
     y="1"
     ry="4.5" />
  <path
     id="path304"
     style="opacity:1;fill:#ffe658;stroke-width:0.5;fill-opacity:1"
     d="m 11,1 v 20 h 5.5 C 18.992998,21 21,18.992998 21,16.5 V 5.5 C 21,3.0070025 18.992998,1 16.5,1 Z" />
  <path
     style="opacity:0.1;fill:#000000"
     d="m 5.9433595,7.608039 -0.435547,0.3896485 0.00976,1.03418 L 2.5,8.9420235 2.9609375,9.5650705 h 2.560547 l 0.00684,1.0292965 h -1.404297 l -0.5966798,-0.285156 0.02539,2.934569 0.6533203,-0.336914 v -0.389647 h 1.33691 l 0.00781,0.998046 -2.9873046,-0.02441 0.8066407,0.818358 0.3457031,-0.298828 h 1.8388673 l 0.0049,0.688477 c 0,0.247275 0.2304685,0.493164 0.2304685,0.493164 l 0.6396485,-0.467774 c 0,0 -0.3066405,-0.192698 -0.3066405,-0.415039 L 6.115246,14.010382 H 9.400402 L 8.497082,13.094366 8.0625115,13.535773 6.101574,13.520148 6.075209,12.517218 h 0.9921875 l 0.272461,0.428711 0.474609,-0.481445 L 7.622084,12.24378 v -1.467773 l 0.421875,-0.258789 -1.0107425,-0.5458985 0.00586,0.6230475 h -1.015625 l -0.02051,-1.0292975 h 2.84668 L 7.9472775,8.65003 7.511731,9.0914365 5.988293,9.0465165 Z m 9.7499995,0.1689455 c 0,0.975045 -0.0193,1.89086 -0.154297,2.7451175 L 12.5,10.50843 l 0.331055,0.512695 h 2.612304 c -0.327495,1.461772 -1.081836,2.727872 -2.828124,3.772461 l 0.116211,0.711914 c 1.861276,-0.883417 3.050315,-2.261648 3.427733,-4.484375 h 3.307618 l -1.166993,-1.1669925 -0.512695,0.6787115 -1.558594,-0.0068 c 0.04034,-0.365247 0.06055,-0.7514135 0.06055,-1.1601565 l 0.580078,-0.131836 z M 17.21582,8.621711 16.885742,8.78675 c 0.345009,0.3182665 0.811261,0.5766105 0.827148,1.0595705 L 18.375,9.3492505 C 18.108896,8.9565805 17.652179,8.801497 17.21582,8.621711 Z M 4.2060545,10.919563 h 1.324219 l 0.0039,0.519531 h -1.328125 z m 1.826172,0 H 7.042969 l 0.0049,0.519531 H 6.045916 Z m 10.2900385,0.399414 c 0,2.258047 2.532227,4.203125 2.532227,4.203125 L 19.5,14.495735 c 0,0 -2.813477,-1.356179 -2.813477,-3.094727 z M 4.2060545,11.763313 h 1.331055 l 0.00295,0.428711 H 4.206075 Z m 1.848633,0 H 7.050781 l 0.0049,0.428711 H 6.066423 Z"
     id="path2" />
  <path
     style="fill:#c58c00"
     d="M 5.9433595,7.108 5.5078125,7.4976485 5.5175775,8.531918 2.5,8.4420745 2.9609375,9.0651215 h 2.560547 l 0.00684,1.0292075 H 4.1243185 L 3.5276387,9.8091725 3.5530297,12.743743 4.20635,12.406829 V 12.01718 h 1.336618 l 0.00781,0.998047 -2.9873046,-0.02441 0.8066407,0.81836 0.3457031,-0.298829 h 1.8388673 l 0.0049,0.688477 c 0,0.247276 0.2304685,0.493164 0.2304685,0.493164 l 0.6396485,-0.467773 c 0,0 -0.3066405,-0.192698 -0.3066405,-0.415039 l -0.00781,-0.29883 H 9.400407 L 8.497082,12.594327 8.0625115,13.035734 6.101574,13.020109 6.075209,12.017178 H 7.0673085 L 7.3397695,12.445889 7.814379,11.964445 7.621996,11.743741 V 10.275968 L 8.043871,10.017179 7.033129,9.4712795 7.038989,10.094327 H 6.023452 L 6.002942,9.0651195 h 2.84668 L 7.947278,8.150081 7.5117315,8.5914875 5.9882935,8.5465675 Z M 4.206346,10.419524 h 1.3239275 l 0.0039,0.519531 H 4.20634 Z m 1.8258805,0 H 7.042881 l 0.0049,0.519531 H 6.045916 Z m -1.8258805,0.84375 h 1.3307635 l 0.00295,0.428711 h -1.333693 z m 1.8483415,0 h 0.996006 l 0.0049,0.428711 H 6.066423 Z"
     id="path3" />
  <path
     style="fill:#c58c00"
     d="m 15.693359,7.2769455 c 0,0.975045 -0.0193,1.890859 -0.154297,2.7451175 L 12.5,10.008391 l 0.331055,0.512696 h 2.612304 c -0.327495,1.461772 -1.081836,2.727871 -2.828124,3.772461 l 0.116211,0.711913 c 1.861276,-0.883416 3.050315,-2.261648 3.427733,-4.484374 h 3.307618 l -1.166993,-1.1669935 -0.512695,0.6787115 -1.558594,-0.0068 c 0.04034,-0.3652455 0.06055,-0.7514125 0.06055,-1.1601555 L 16.86914,8.7339775 Z M 17.21582,8.121672 16.885742,8.286711 c 0.345009,0.318266 0.811261,0.5766105 0.827148,1.0595705 L 18.375,8.849211 C 18.108896,8.4565415 17.652179,8.301458 17.21582,8.121672 Z m -0.893555,2.697266 c 0,2.258046 2.532227,4.203125 2.532227,4.203125 L 19.5,13.995696 c 0,0 -2.813477,-1.35618 -2.813477,-3.094727 z"
     id="path4" />
  <path
     id="path1040"
     style="opacity:0.2;fill:#ffffff;stroke-width:4;stroke-linecap:square"
     d="M 5.5,1 C 3.007005,1 1,3.007005 1,5.5 V 6 C 1,3.507005 3.007005,1.5 5.5,1.5 h 11 C 18.992996,1.5 21,3.507005 21,6 V 5.5 C 21,3.007005 18.992996,1 16.5,1 Z" />
</svg>
