<?xml version="1.0" encoding="UTF-8" standalone="no"?>
<!-- Created with Inkscape (http://www.inkscape.org/) -->

<svg
   width="22"
   height="22"
   viewBox="0 0 22 22"
   version="1.1"
   id="svg5"
   inkscape:version="1.3.2 (091e20ef0f, 2023-11-25, custom)"
   sodipodi:docname="gparted.svg"
   xmlns:inkscape="http://www.inkscape.org/namespaces/inkscape"
   xmlns:sodipodi="http://sodipodi.sourceforge.net/DTD/sodipodi-0.dtd"
   xmlns="http://www.w3.org/2000/svg"
   xmlns:svg="http://www.w3.org/2000/svg">
  <sodipodi:namedview
     id="namedview7"
     pagecolor="#ffffff"
     bordercolor="#000000"
     borderopacity="0.25"
     inkscape:showpageshadow="2"
     inkscape:pageopacity="0.0"
     inkscape:pagecheckerboard="0"
     inkscape:deskcolor="#d1d1d1"
     inkscape:document-units="px"
     showgrid="false"
     inkscape:zoom="37.363636"
     inkscape:cx="11"
     inkscape:cy="11"
     inkscape:window-width="1920"
     inkscape:window-height="1008"
     inkscape:window-x="0"
     inkscape:window-y="0"
     inkscape:window-maximized="1"
     inkscape:current-layer="svg5" />
  <defs
     id="defs2" />
  <rect
     style="opacity:0.2;fill:#000000;stroke-width:1.42857;stroke-linecap:square"
     id="rect234"
     width="20"
     height="20"
     x="1"
     y="1.5"
     ry="4.5" />
  <rect
     style="fill:#b7b7b7;fill-opacity:1;stroke-width:1.42857;stroke-linecap:square"
     id="rect396"
     width="20"
     height="20"
     x="1"
     y="1"
     ry="4.5" />
  <path
     id="path2"
     style="opacity:0.1"
     d="M 4 11.5 A 7 7 0 0 0 11 18.5 L 11 14.5 A 3 3 0 0 1 8 11.5 L 4 11.5 z " />
  <path
     id="path3688"
     style="fill:#797979"
     d="M 4 11 A 7 7 0 0 0 11 18 L 11 14 A 3 3 0 0 1 8 11 L 4 11 z " />
  <path
     id="path3690"
     style="opacity:0.1"
     d="M 6.0039062 6.6210938 A 7 7 0 0 0 4 11.5 L 8 11.5 C 8.002 10.716651 8.3105555 9.9651994 8.859375 9.40625 C 8.847575 9.41755 8.8358187 9.4299063 8.8242188 9.4414062 L 6.0039062 6.6210938 z " />
  <path
     id="path3692"
     style="fill:#ffc107"
     d="M 6.0039062 6.1210938 A 7 7 0 0 0 4 11 L 8 11 C 8.002 10.216651 8.3105555 9.4651994 8.859375 8.90625 C 8.847575 8.91755 8.8358187 8.9299063 8.8242188 8.9414062 L 6.0039062 6.1210938 z " />
  <path
     id="path3694"
     style="opacity:0.1"
     d="M 13.464844 13.208984 A 3 3 0 0 1 13.429688 13.255859 C 13.441087 13.240059 13.453744 13.225084 13.464844 13.208984 z M 13.060547 13.677734 A 3 3 0 0 1 11 14.5 L 11 18.5 A 7 7 0 0 0 15.878906 16.496094 L 13.060547 13.677734 z " />
  <path
     id="path3696"
     style="fill:#f65c51"
     d="M 13.464844 12.708984 A 3 3 0 0 1 13.429688 12.755859 C 13.441087 12.740059 13.453744 12.725084 13.464844 12.708984 z M 13.060547 13.177734 A 3 3 0 0 1 11 14 L 11 18 A 7 7 0 0 0 15.878906 15.996094 L 13.060547 13.177734 z " />
  <path
     id="path3698"
     style="opacity:0.1"
     d="M 11 4.5 A 7 7 0 0 0 6.0039062 6.6210938 L 8.8242188 9.4414062 A 3 3 0 0 1 11 8.5 A 3 3 0 0 1 14 11.5 A 3 3 0 0 1 13.060547 13.677734 L 15.878906 16.496094 A 7 7 0 0 0 18 11.5 A 7 7 0 0 0 11 4.5 z " />
  <path
     id="path3700"
     style="fill:#3d9260"
     d="M 11 4 A 7 7 0 0 0 6.0039062 6.1210938 L 8.8242188 8.9414062 A 3 3 0 0 1 11 8 A 3 3 0 0 1 14 11 A 3 3 0 0 1 13.060547 13.177734 L 15.878906 15.996094 A 7 7 0 0 0 18 11 A 7 7 0 0 0 11 4 z " />
  <path
     style="opacity:0.2"
     d="M 5.36884,18.96669 7.89642,15.22006 C 7.96102,15.14316 8,15.04455 8,14.93691 8,14.69577 7.80422,14.5 7.56252,14.5 7.4549,14.5 7.35609,14.5382 7.27969,14.60351 L 3.53335,17.13166 C 3.19945,17.37536 3.00093,17.76832 3,18.18738 c 0,0.72568 0.58771,1.31261 1.3128,1.31261 0.41455,0.002 0.8057,-0.19594 1.05604,-0.5333 z"
     id="path3702"
     sodipodi:nodetypes="ccssccccc" />
  <path
     style="fill:#ffffff"
     d="M 5.36884,18.46669 7.89642,14.72006 C 7.96102,14.64316 8,14.54455 8,14.43691 8,14.19577 7.80422,14 7.56252,14 7.4549,14 7.35609,14.0382 7.27969,14.10351 L 3.53335,16.63166 C 3.19945,16.87536 3.00093,17.26832 3,17.68738 c 0,0.72568 0.58771,1.31261 1.3128,1.31261 0.41455,0.002 0.8057,-0.19594 1.05604,-0.5333 z"
     id="path3704"
     sodipodi:nodetypes="ccssccccc" />
  <circle
     style="opacity:0.2;fill:#000000;fill-opacity:1;stroke-width:4;stroke-linecap:square"
     id="path3942"
     cx="10.99999"
     cy="11.500023"
     r="1" />
  <circle
     style="fill:#ffffff;fill-opacity:1;stroke-width:4;stroke-linecap:square"
     id="path3944"
     cx="10.99999"
     cy="11.000023"
     r="1" />
  <path
     id="path1040"
     style="opacity:0.2;fill:#ffffff;stroke-width:4;stroke-linecap:square"
     d="M 5.5,1 C 3.007005,1 1,3.007005 1,5.5 V 6 C 1,3.507005 3.007005,1.5 5.5,1.5 h 11 C 18.992996,1.5 21,3.507005 21,6 V 5.5 C 21,3.007005 18.992996,1 16.5,1 Z" />
</svg>
