<?xml version="1.0" encoding="UTF-8" standalone="no"?>
<!-- Created with Inkscape (http://www.inkscape.org/) -->

<svg
   width="22"
   height="22"
   viewBox="0 0 22 22"
   version="1.1"
   id="svg5"
   inkscape:version="1.3.2 (091e20ef0f, 2023-11-25, custom)"
   sodipodi:docname="gta-5.svg"
   xmlns:inkscape="http://www.inkscape.org/namespaces/inkscape"
   xmlns:sodipodi="http://sodipodi.sourceforge.net/DTD/sodipodi-0.dtd"
   xmlns="http://www.w3.org/2000/svg"
   xmlns:svg="http://www.w3.org/2000/svg">
  <sodipodi:namedview
     id="namedview7"
     pagecolor="#ffffff"
     bordercolor="#000000"
     borderopacity="0.25"
     inkscape:showpageshadow="2"
     inkscape:pageopacity="0.0"
     inkscape:pagecheckerboard="0"
     inkscape:deskcolor="#d1d1d1"
     inkscape:document-units="px"
     showgrid="false"
     inkscape:zoom="36.545455"
     inkscape:cx="11"
     inkscape:cy="11"
     inkscape:window-width="1920"
     inkscape:window-height="1008"
     inkscape:window-x="0"
     inkscape:window-y="0"
     inkscape:window-maximized="1"
     inkscape:current-layer="svg5" />
  <defs
     id="defs2" />
  <rect
     style="opacity:0.2;fill:#000000;stroke-width:1.42857;stroke-linecap:square"
     id="rect234"
     width="20"
     height="20"
     x="1"
     y="1.4999995"
     ry="4.5" />
  <rect
     style="fill:#4a5545;fill-opacity:1;stroke-width:1.42857;stroke-linecap:square"
     id="rect396"
     width="20"
     height="20"
     x="1"
     y="1"
     ry="4.5" />
  <path
     id="path1"
     style="opacity:0.2;fill:#000000;stroke-width:0.5"
     d="M 5.4003905,5.5 C 4.6272425,5.5000775 4.0001,6.1272425 4,6.9003905 V 8 c 7.75e-5,0.773148 0.6272425,1.400291 1.4003905,1.400391 H 5.511719 c 0.098539,0.1435 0.1954615,0.278544 0.3349605,0.514648 1.155767,2.036844 2.1614325,4.655291 3.1787115,6.763672 0.22707,0.499794 0.725465,0.821089 1.274414,0.821289 h 1.400391 c 0.540998,3.9e-5 1.032948,-0.311892 1.264648,-0.800781 0,0 2.692729,-6.074198 3.267578,-7.262695 0.196094,-0.0229 0.409179,-0.03711 0.409179,-0.03711 C 17.39815,9.3768 17.9999,8.756898 18,8 V 6.899414 C 17.999922,6.126266 17.372757,5.5001 16.599609,5.5 Z" />
  <path
     id="path2"
     style="fill:#e4e4e4;stroke-width:0.5"
     d="M 5.4003905,5 C 4.6272435,5.0000775 4.0001,5.6272435 4,6.4003905 V 7.5 c 7.75e-5,0.773147 0.6272435,1.4002905 1.4003905,1.4003905 H 5.511719 C 5.610258,9.043891 5.707181,9.178936 5.8466795,9.415039 7.001536,11.452285 8.008005,14.070467 9.025391,16.178711 9.252461,16.678504 9.750856,16.9998 10.299805,17 h 1.400391 c 0.540998,3.9e-5 1.032948,-0.311893 1.264648,-0.800781 0,0 2.692729,-6.0742 3.267578,-7.2626955 0.196093,-0.022905 0.409179,-0.03711 0.409179,-0.03711 C 17.39815,8.876798 17.9999,8.256897 18,7.5 V 6.399414 C 17.999922,5.626267 17.372757,5.0001 16.599609,5 Z" />
  <path
     id="path3"
     style="opacity:0.1;fill:#000000;stroke-width:0.5"
     d="m 5,6.5 v 1 h 0.5996094 c 0.6999993,0 4.7011716,9 4.7011716,9 h 1.398438 c 0,0 3.65,-7.9503913 4,-8.6503906 C 15.855744,7.5365597 17,7.5 17,7.5 v -1 h -4 v 1 h 0.599609 C 13.949609,7.5 14.25,7.8492191 14.25,8.1992188 14.25,8.5492184 12,13 12,13 L 9.75,8.1992188 C 9.75,7.4992195 10.5,7.5 10.5,7.5 H 11 v -1 z" />
  <path
     id="path4"
     style="fill:#318c01;stroke-width:0.5"
     d="m 5,6 v 1 h 0.5996094 c 0.6999983,0 4.7011716,9 4.7011716,9 h 1.400391 c 0,0 3.648048,-7.9503923 3.998047,-8.6503906 C 15.855744,7.0365597 17,7 17,7 V 6 h -4 v 1 h 0.599609 C 13.949608,7 14.25,7.3511722 14.25,7.7011719 14.25,8.051171 12,12.5 12,12.5 L 9.75,7.7011719 C 9.75,7.0011731 10.5,7 10.5,7 H 11 V 6 Z" />
  <path
     style="opacity:0.2;fill:#ffffff;stroke-width:0.5"
     d="M 5.4004,5 C 4.62725,5.0000775 4.0001,5.6272 4,6.4004 v 0.5 C 4.0000775,6.12725 4.6272,5.5001 5.4004,5.5 h 11.199 c 0.77315,7.75e-5 1.4003,0.6272 1.4004,1.4004 v -0.5 C 17.999722,5.62725 17.3726,5.0001 16.5994,5 Z"
     id="path5" />
  <path
     id="path1040"
     style="opacity:0.1;fill:#ffffff;stroke-width:4;stroke-linecap:square"
     d="M 5.5,1.0000002 C 3.007005,1.0000002 1,3.0070051 1,5.5 V 6 C 1,3.5070051 3.007005,1.5000002 5.5,1.5000002 h 11 C 18.992996,1.5000002 21,3.5070051 21,6 V 5.5 C 21,3.0070051 18.992996,1.0000002 16.5,1.0000002 Z" />
</svg>
