<?xml version="1.0" encoding="UTF-8" standalone="no"?>
<!-- Created with Inkscape (http://www.inkscape.org/) -->

<svg
   width="22"
   height="22"
   viewBox="0 0 22 22"
   version="1.1"
   id="svg5"
   inkscape:version="1.4.3 (0d15f75042, 2025-12-25)"
   sodipodi:docname="gta-sa.svg"
   xmlns:inkscape="http://www.inkscape.org/namespaces/inkscape"
   xmlns:sodipodi="http://sodipodi.sourceforge.net/DTD/sodipodi-0.dtd"
   xmlns="http://www.w3.org/2000/svg"
   xmlns:svg="http://www.w3.org/2000/svg">
  <sodipodi:namedview
     id="namedview7"
     pagecolor="#ffffff"
     bordercolor="#000000"
     borderopacity="0.25"
     inkscape:showpageshadow="2"
     inkscape:pageopacity="0.0"
     inkscape:pagecheckerboard="0"
     inkscape:deskcolor="#d1d1d1"
     inkscape:document-units="px"
     showgrid="false"
     inkscape:zoom="36.681818"
     inkscape:cx="10.986369"
     inkscape:cy="11"
     inkscape:window-width="1920"
     inkscape:window-height="1010"
     inkscape:window-x="0"
     inkscape:window-y="0"
     inkscape:window-maximized="1"
     inkscape:current-layer="svg5" />
  <defs
     id="defs2" />
  <rect
     style="opacity:0.2;fill:#000000;stroke-width:1.42857;stroke-linecap:square"
     id="rect234"
     width="20"
     height="20"
     x="1"
     y="1.4999995"
     ry="4.5" />
  <rect
     style="fill:#cce7b0;fill-opacity:1;stroke-width:1.42857;stroke-linecap:square"
     id="rect396"
     width="20"
     height="20"
     x="1"
     y="1"
     ry="4.5" />
  <path
     id="path1040"
     style="opacity:0.2;fill:#ffffff;stroke-width:4;stroke-linecap:square"
     d="M 5.5,1.0000001 C 3.007005,1.0000001 1,3.0070051 1,5.5 V 6 C 1,3.5070051 3.007005,1.5000001 5.5,1.5000001 h 11 C 18.992996,1.5000001 21,3.5070051 21,6 V 5.5 C 21,3.0070052 18.992996,1.0000001 16.5,1.0000001 Z" />
  <path
     id="path1"
     d="M 6.5449991,5.5 C 6.0372116,5.5120188 5.7079343,5.7399663 5.5522815,5.8587331 5.3987026,5.9759185 5.3269853,6.0532989 5.2424243,6.1367873 l -0.0015,0.00146 c -8.25e-4,8.044e-4 -0.0021,0.00207 -0.00293,0.00286 -0.2517112,0.2465895 -0.4438094,0.4786165 -0.6387974,0.7520503 -0.00248,0.00337 -0.00488,0.00667 -0.00735,0.010092 C 4.3386894,7.2644828 4.2052681,7.5809409 4.0719901,7.9275756 3.9740374,8.1823344 3.9178486,8.4709627 3.8708033,8.8020781 3.5790923,9.232849 3.3596813,9.6606858 3.2863336,10.095822 c -0.091733,0.544214 -0.1313672,1.090772 0.1703482,1.767734 9.75e-4,0.0019 0.00195,0.0037 0.00293,0.0056 0.047295,0.104721 0.1584204,0.156733 0.2173404,0.253564 C 3.283641,12.620874 3,13.195671 3,13.811372 c 0,0.861976 0.4549267,1.795933 1.2673298,2.240282 0.810954,0.443558 1.769005,0.361166 2.542002,-0.0015 0.040739,-0.01905 0.074595,-0.04342 0.1130755,-0.06194 0.046057,0.02935 0.096878,0.06561 0.1409775,0.09221 0.06615,0.0399 0.1269163,0.07597 0.205592,0.116696 0.039334,0.02037 0.0818,0.04143 0.1512573,0.07059 0.069458,0.02916 0.1060882,0.08175 0.4581763,0.11814 0.052677,0.0055 0.105615,0.0086 0.1586005,0.0087 0.6551557,0 0.686387,-0.154603 0.7841877,-0.210341 0.097799,-0.05574 0.1479048,-0.09329 0.1953123,-0.128219 0.094815,-0.06985 0.1635027,-0.128493 0.2379,-0.193054 0.055317,-0.04801 0.1170123,-0.109917 0.1747541,-0.162798 0.1067782,0.148098 0.1386566,0.336574 0.2922347,0.450937 0.5466633,0.406753 1.6890323,0.4935 2.3158503,0.06915 0.0069,-0.0042 0.01374,-0.0086 0.02056,-0.01293 0.09884,-0.0693 0.161754,-0.231386 0.264334,-0.35585 l 0.421464,0.234831 c 0.547735,0.306035 1.231883,0.244495 1.713758,-0.154153 l 0.06315,-0.05187 c 0.242757,0.137321 0.472785,0.285257 0.945724,0.285257 0.679111,0 0.929822,-0.20765 1.215932,-0.387546 0.284409,-0.178828 0.533579,-0.383521 0.772439,-0.68433 v -0.0015 c 0.180674,-0.226422 0.360417,-0.422597 0.500766,-0.868738 0.139816,-0.44445 -0.05738,-1.371483 -0.472863,-1.749004 -0.01506,-0.01438 -0.07538,-0.05002 -0.09839,-0.07059 -0.0052,-0.462929 -0.0089,-0.965511 -0.0089,-1.580444 V 8.5874191 L 17.27096,8.6997938 c 0.0079,-0.00907 0.01576,-0.01815 0.0235,-0.027376 0.128986,-0.1454097 0.235648,-0.248303 0.384752,-0.5114457 C 17.753762,8.0294015 17.861938,7.847959 17.890678,7.4852857 17.919448,7.1228069 17.720173,6.5431594 17.41341,6.2563722 17.049106,5.9157917 16.606531,5.839424 16.348736,5.83713 16.09094,5.83486 15.940914,5.879231 15.820069,5.916369 c -0.241687,0.074268 -0.371972,0.1485689 -0.508106,0.2261892 -0.0037,0.00213 -0.0079,0.00506 -0.01173,0.00719 -0.15744,0.015147 -0.07927,-0.028318 -0.286316,0.1310845 -0.322703,-0.1537231 -0.601873,-0.3897684 -0.939849,-0.448105 h -0.0015 c -0.25518,-0.045562 -0.519488,-0.085298 -0.8209,-0.076357 -0.298032,0.00888 -0.554381,0.063023 -0.80328,0.1210182 -0.931923,0.2098888 -1.725961,0.7928855 -2.304083,1.5314589 -0.04162,-0.1020635 0.01274,-0.1842451 -0.05434,-0.2737315 C 9.7696036,6.7078278 9.5850313,6.690135 9.5715777,6.6856189 9.4737443,6.6223757 9.2848261,6.3771116 8.5935457,6.3902758 8.5752525,6.3906251 8.5676434,6.4021696 8.5494934,6.4032421 8.3520436,6.290037 8.1304404,6.1616641 7.5054075,5.7809207 7.4949893,5.7745407 7.4837461,5.7686804 7.4730961,5.7621911 7.3244454,5.6666653 7.0122368,5.4938671 6.5523382,5.5014256 h -0.0015 -0.0015 V 5.5 h -0.0015 -0.0015 z"
     style="opacity:0.2;fill:#000000;stroke-width:0.741616" />
  <path
     id="path2"
     style="fill:#dfdfdf;stroke-width:0.741616"
     d="M 6.5449994,5 C 6.0372119,5.0120161 5.7079346,5.2399659 5.5522817,5.3587331 5.3987027,5.4759181 5.3269855,5.5532987 5.2424249,5.6367874 l -0.00147,0.00144 c -8.318e-4,8.182e-4 -0.0021,0.00205 -0.00295,0.00288 C 4.9862868,5.8876949 4.7941882,6.1197222 4.5992,6.3931566 4.59673,6.3965244 4.5943,6.3998217 4.59186,6.403249 4.338704,6.7644773 4.2052831,7.0809355 4.072005,7.4275701 3.974052,7.6823287 3.9178638,7.9709576 3.8708183,8.3020727 3.5791071,8.7328447 3.3596963,9.1606804 3.2863488,9.5958174 3.1946158,10.14003 3.1549801,10.68659 3.4566967,11.363551 c 9.75e-4,0.0019 0.00195,0.0037 0.00295,0.0056 0.047295,0.104719 0.1584201,0.156732 0.2173405,0.253563 C 3.2836408,12.120875 3,12.695671 3,13.311372 c 0,0.861977 0.4549266,1.795933 1.2673298,2.240282 0.8109541,0.443558 1.7690052,0.361166 2.5420023,-0.0015 0.040739,-0.01905 0.074595,-0.04342 0.1130755,-0.06194 0.046057,0.02935 0.096878,0.06561 0.1409775,0.09221 0.06615,0.0399 0.1269164,0.07597 0.2055921,0.116696 0.039334,0.02037 0.0818,0.04143 0.1512573,0.07059 0.069458,0.02916 0.1060882,0.08174 0.4581764,0.11814 0.052677,0.0055 0.105615,0.0086 0.1586004,0.0087 0.6551558,0 0.6863872,-0.154603 0.7841878,-0.210342 0.097799,-0.05574 0.1479048,-0.09329 0.1953123,-0.128218 0.094815,-0.06985 0.1635028,-0.128493 0.2379001,-0.193054 0.055317,-0.048 0.1170122,-0.109917 0.1747541,-0.162798 0.1067781,0.148098 0.1386566,0.336574 0.2922348,0.450937 0.5466636,0.406753 1.6890326,0.4935 2.3158506,0.06915 0.0069,-0.0042 0.01374,-0.0086 0.02056,-0.01293 0.09885,-0.0693 0.161754,-0.231386 0.264333,-0.35585 l 0.421464,0.234831 c 0.547735,0.306035 1.231882,0.244495 1.713757,-0.154153 l 0.06315,-0.05187 c 0.242756,0.137321 0.472784,0.285257 0.945725,0.285257 0.67911,0 0.929822,-0.20765 1.215931,-0.387546 0.284408,-0.178828 0.533579,-0.383521 0.77244,-0.68433 v -0.0015 c 0.180675,-0.226422 0.360417,-0.422597 0.500766,-0.868738 0.139816,-0.444451 -0.05738,-1.371482 -0.472863,-1.749004 -0.01504,-0.01438 -0.07538,-0.05002 -0.09839,-0.07059 -0.0052,-0.462927 -0.0089,-0.965511 -0.0089,-1.580444 V 8.0874198 L 17.27096,8.1997945 c 0.0079,-0.00907 0.01576,-0.01815 0.0235,-0.027376 C 17.423446,8.0270086 17.530107,7.9241141 17.679211,7.6609716 17.753761,7.529402 17.861937,7.347959 17.890678,6.9852857 17.919448,6.622807 17.720172,6.0431595 17.41341,5.756372 17.049105,5.4157915 16.606531,5.3394236 16.348735,5.3371299 c -0.257796,-0.0023 -0.407821,0.042104 -0.528666,0.079239 -0.241687,0.074268 -0.371973,0.1485686 -0.508108,0.2261893 -0.0037,0.00216 -0.0079,0.00503 -0.01173,0.00721 -0.157485,0.015167 -0.07932,-0.028298 -0.286362,0.1311034 -0.322672,-0.1537284 -0.601843,-0.3897731 -0.93982,-0.4481099 h -0.0015 c -0.255177,-0.04556 -0.519484,-0.0853 -0.820897,-0.076358 -0.298031,0.00889 -0.554379,0.06302 -0.803279,0.1210185 C 11.51643,5.5873109 10.722391,6.1703075 10.14427,6.9088806 10.10265,6.8068179 10.15701,6.7246355 10.08993,6.6351492 9.7696042,6.2078425 9.5850319,6.1901501 9.5715783,6.1856334 9.4737456,6.1223911 9.2848267,5.8771262 8.5935462,5.890291 8.575253,5.8906393 8.5676439,5.9021847 8.5494939,5.9032572 8.3520441,5.7900516 8.1304409,5.6616788 7.5054079,5.2809355 7.4949897,5.2745885 7.4837465,5.2686953 7.4730965,5.2622061 7.3244438,5.1666805 7.0122351,4.9938823 6.5523364,5.001441 h -0.0015 -0.0015 V 5 h -0.0015 -0.0015 z" />
  <path
     id="path3"
     style="fill:#ffffff;stroke-width:0.741616;opacity:0.2"
     d="M 6.5449219 5 C 6.0371344 5.0120161 5.7083873 5.2406078 5.5527344 5.359375 C 5.3991554 5.47656 5.3267481 5.55323 5.2421875 5.6367188 L 5.2402344 5.6386719 L 5.2382812 5.640625 C 4.9865632 5.8872125 4.7945976 6.1191437 4.5996094 6.3925781 C 4.5971394 6.3959459 4.5942369 6.3989165 4.5917969 6.4023438 C 4.3386409 6.7635721 4.2055437 7.0810998 4.0722656 7.4277344 C 3.9743126 7.682493 3.9181392 7.9716193 3.8710938 8.3027344 C 3.5793826 8.7335064 3.3604569 9.1605661 3.2871094 9.5957031 C 3.2364828 9.8960492 3.2007365 10.198183 3.2304688 10.521484 C 3.2422224 10.37827 3.2633949 10.236391 3.2871094 10.095703 C 3.3604569 9.6605656 3.5793826 9.2335064 3.8710938 8.8027344 C 3.9181393 8.4716193 3.9743126 8.182493 4.0722656 7.9277344 C 4.2055437 7.5810998 4.3386409 7.2635724 4.5917969 6.9023438 C 4.5942369 6.8989217 4.5971394 6.8959481 4.5996094 6.8925781 C 4.7945976 6.6191437 4.9865632 6.3872125 5.2382812 6.140625 L 5.2402344 6.1386719 L 5.2421875 6.1367188 C 5.3267481 6.05323 5.3991554 5.97656 5.5527344 5.859375 C 5.7083873 5.7406078 6.0371344 5.5120161 6.5449219 5.5 L 6.546875 5.5 L 6.5488281 5.5 L 6.5488281 5.5019531 L 6.5507812 5.5019531 L 6.5527344 5.5019531 C 7.0126331 5.4943944 7.3240035 5.6661931 7.4726562 5.7617188 C 7.4833063 5.768208 7.4954412 5.774903 7.5058594 5.78125 C 8.1308924 6.1619933 8.3513783 6.2891382 8.5488281 6.4023438 C 8.5647094 6.4014053 8.573931 6.3930829 8.5878906 6.390625 C 8.5889557 6.390521 8.5926067 6.3906468 8.59375 6.390625 C 9.2850305 6.3774602 9.4744329 6.6223046 9.5722656 6.6855469 C 9.5857192 6.6900636 9.7695179 6.7074589 10.089844 7.1347656 C 10.156924 7.2242519 10.102911 7.3061404 10.144531 7.4082031 C 10.722652 6.66963 11.517276 6.0868418 12.449219 5.8769531 C 12.698119 5.8189546 12.953922 5.7647494 13.251953 5.7558594 C 13.553366 5.7469174 13.817089 5.7864712 14.072266 5.8320312 L 14.074219 5.8320312 C 14.412196 5.8903681 14.691 6.1275216 15.013672 6.28125 C 15.220714 6.1218486 15.143296 6.1655576 15.300781 6.1503906 C 15.304611 6.1482106 15.3088 6.1447381 15.3125 6.1425781 C 15.448635 6.0649574 15.578626 5.9902836 15.820312 5.9160156 C 15.941158 5.8788806 16.091813 5.8355906 16.349609 5.8378906 C 16.607405 5.8401843 17.049758 5.9152789 17.414062 6.2558594 C 17.64011 6.4671881 17.808061 6.8387651 17.869141 7.1640625 C 17.878722 7.1100217 17.885482 7.0492677 17.890625 6.984375 C 17.919395 6.6218963 17.720825 6.0426469 17.414062 5.7558594 C 17.049758 5.4152789 16.607405 5.3401843 16.349609 5.3378906 C 16.091813 5.3355906 15.941157 5.3788806 15.820312 5.4160156 C 15.578625 5.4902836 15.448635 5.5649574 15.3125 5.6425781 C 15.3088 5.6447381 15.304611 5.6482106 15.300781 5.6503906 C 15.143296 5.6655576 15.220714 5.6218486 15.013672 5.78125 C 14.691 5.6275216 14.412196 5.3903681 14.074219 5.3320312 L 14.072266 5.3320312 C 13.817089 5.2864712 13.553366 5.2469174 13.251953 5.2558594 C 12.953922 5.2647494 12.698119 5.3189546 12.449219 5.3769531 C 11.517276 5.5868418 10.722652 6.16963 10.144531 6.9082031 C 10.102911 6.8061404 10.156924 6.7242519 10.089844 6.6347656 C 9.7695179 6.2074589 9.5857192 6.1900636 9.5722656 6.1855469 C 9.4744329 6.1223046 9.2850305 5.8774602 8.59375 5.890625 C 8.5926067 5.8906468 8.5889557 5.890521 8.5878906 5.890625 C 8.573931 5.8930829 8.5647094 5.9014053 8.5488281 5.9023438 C 8.3513783 5.7891382 8.1308924 5.6619933 7.5058594 5.28125 C 7.4954412 5.274903 7.4833062 5.2682079 7.4726562 5.2617188 C 7.3240036 5.1661931 7.0126331 4.9943944 6.5527344 5.0019531 L 6.5507812 5.0019531 L 6.5488281 5.0019531 L 6.5488281 5 L 6.546875 5 L 6.5449219 5 z M 17.375 8.5820312 C 17.348697 8.6113686 17.322644 8.6406229 17.294922 8.671875 C 17.287182 8.681101 17.279384 8.6901488 17.271484 8.6992188 L 17.375 8.5878906 L 17.375 8.5820312 z M 17.375 10.443359 L 17.375 10.824219 C 17.375 11.439152 17.379566 11.94137 17.384766 12.404297 C 17.407776 12.424867 17.467382 12.460229 17.482422 12.474609 C 17.74993 12.717676 17.927579 13.188139 17.982422 13.611328 C 18.063702 13.137982 17.865603 12.322781 17.482422 11.974609 C 17.467382 11.960229 17.407776 11.924867 17.384766 11.904297 C 17.37991 11.472013 17.375448 11.003995 17.375 10.443359 z M 3.4765625 11.900391 C 3.1912045 12.330429 3 12.805863 3 13.310547 C 3 13.3978 3.0044502 13.486073 3.0136719 13.574219 C 3.0749778 13.047809 3.3352194 12.556831 3.6777344 12.123047 C 3.6247898 12.036037 3.5296226 11.985783 3.4765625 11.900391 z " />
  <path
     d="m 6.571928,7.0000108 c -0.05964,0.00127 -0.1277413,0.05816 -0.2765693,0.20312 C 6.1605113,7.3334008 5.946842,7.5834201 5.8242525,7.7533388 5.5913385,8.081846 5.2968953,8.835144 5.2968953,9.112677 c 0,0.09063 -0.06744,0.23741 -0.1593789,0.333696 -0.3677617,0.402139 -0.5215687,1.314359 -0.3070395,1.79013 0.23292,0.509753 0.7360164,0.843754 1.3734731,0.917386 0.3309867,0.03399 0.3611187,0.06189 0.250788,0.254458 -0.061287,0.107613 -0.1037973,0.113306 -0.5144667,0.07365 -0.3800256,-0.03399 -0.4841982,-0.02271 -0.6925956,0.07924 C 4.7695831,12.787803 4.5,13.213036 4.5,13.739784 c 0,0.8949 0.7659629,1.308531 1.65473,0.895064 0.1838807,-0.08496 0.422886,-0.215423 0.5332173,-0.289055 0.1041987,-0.07363 0.233396,-0.136157 0.2824287,-0.136156 0.0429,0 0.2880447,0.141456 0.5332167,0.311375 0.241348,0.167263 0.4779493,0.307047 0.5203266,0.311375 0.098072,0 1.1224407,-0.985072 1.3676127,-1.31358 0.110332,-0.147263 0.318407,-0.492619 0.459387,-0.764488 0.226788,-0.436123 0.257912,-0.555256 0.282429,-0.968723 0.01836,-0.413468 -5.54e-4,-0.50378 -0.14766,-0.775649 C 9.777284,10.613472 9.37948,10.289823 8.748156,10.006627 8.4662027,9.88202 8.227198,9.763581 8.21494,9.746588 8.2027,9.723935 8.337198,9.384156 8.5149473,8.987681 8.9562647,8.013484 8.949888,8.058576 8.7598747,7.9452975 8.6127687,7.8546755 8.594802,7.8545975 8.484478,7.9508975 8.3618887,8.05285 8.3436913,8.047272 6.670368,7.0390928 6.632448,7.0137861 6.6031753,6.9993261 6.571928,7.0000328 Z m 6.699783,0.252226 c -0.144807,0.00427 -0.28912,0.030493 -0.50978,0.081471 -0.766172,0.1699173 -1.329423,0.5721633 -1.691059,1.2008612 -0.306469,0.532408 -0.404307,0.929407 -0.404307,1.626071 0,0.787287 0.127954,1.217516 0.495716,1.676293 0.138776,0.18399 0.259931,0.347247 0.263679,0.373875 0,0.02265 -0.134511,0.232051 -0.300008,0.464273 -0.778431,1.0988 -0.961916,1.885716 -0.514466,2.214224 0.183881,0.135934 0.373046,0.147959 0.550795,0.02901 0.09807,-0.06796 0.129004,-0.158587 0.15352,-0.453111 0.02454,-0.40214 0.08629,-0.482131 0.362118,-0.482131 0.263563,0 0.832729,0.210262 1.323081,0.482131 l 0.460559,0.254457 0.483997,-0.396194 c 0.26548,-0.211868 0.502539,-0.391771 0.539076,-0.397311 h 0.0012 l 0.0012,0.0011 c 0.02887,0.0068 0.13578,0.117187 0.236724,0.248876 0.183883,0.237886 0.502948,0.429676 0.711348,0.429676 0.214528,0 0.594355,-0.237213 0.802755,-0.497754 0.269693,-0.334172 0.324425,-0.503891 0.195708,-0.61717 -0.08581,-0.07929 -0.115854,-0.0798 -0.305867,0.03348 -0.105547,0.05645 -0.207475,0.09396 -0.239069,0.08371 l -0.0012,-0.0011 c -4.63e-4,-2.35e-4 -0.0031,-9.32e-4 -0.0036,-0.0011 l -0.0012,-0.0011 v -0.0011 c -0.02445,-0.01699 -0.04329,-1.279814 -0.04329,-2.809075 v -2.77004 l 0.28829,-0.3057949 c 0.208398,-0.232222 0.263493,-0.328562 0.214458,-0.3738733 -0.07355,-0.067964 -0.429416,0.135876 -0.950414,0.5323513 L 15.165496,8.059222 14.901817,7.8270848 C 14.576961,7.5382248 14.252,7.3851888 13.786165,7.3058941 13.562443,7.2662475 13.416507,7.2480741 13.2717,7.2523208 Z M 6.698494,8.273413 h 0.0012 0.0012 0.0012 c 4.5e-4,2.6e-5 0.00307,-7.5e-5 0.00353,0 l 0.0012,0.0011 c 0.02454,0.01133 0.3067974,0.169106 0.6316574,0.356019 0.6619726,0.379482 0.6494853,0.357325 0.4043073,0.872743 L 7.625598,9.752182 7.338482,9.713132 C 6.7255453,9.639473 6.356702,9.305249 6.430258,8.886117 6.4711847,8.659268 6.6357007,8.287702 6.6986247,8.27341 Z m 6.419695,0.102675 c 0.2084,0 0.465979,0.02851 0.582438,0.06249 0.269693,0.08496 0.262946,0.07338 0.146489,0.243298 -0.09807,0.135936 -0.12884,0.14104 -0.423057,0.11272 -0.570036,-0.06231 -1.035182,0.221532 -1.292612,0.787926 -0.04902,0.11328 -0.09258,0.272258 -0.09258,0.351554 v 0.152897 l 0.257818,-0.204235 c 0.275822,-0.220893 0.650153,-0.356937 0.815646,-0.294636 0.09195,0.02832 0.08527,0.06225 -0.06797,0.305796 -0.245179,0.390812 -1.121967,1.597055 -1.164874,1.597055 h -0.0012 l -0.0012,-0.0011 h -0.0012 c -0.02489,-0.01683 -0.105997,-0.157082 -0.192193,-0.327 -0.147106,-0.288862 -0.165238,-0.39064 -0.165238,-0.917386 0,-0.53241 0.01788,-0.629389 0.171098,-0.935242 0.324854,-0.640026 0.766576,-0.928464 1.428552,-0.934128 z m 1.341834,0.934128 0.01875,1.042383 c 0.0061,0.57772 -0.006,1.064368 -0.03047,1.087024 -0.04749,0.03841 -1.402614,0.150677 -1.487147,0.121653 h -0.0012 l -0.0012,-0.0011 v -0.0011 c 0,-0.01699 1.084396,-1.659776 1.341831,-2.022266 z M 5.5910437,9.989885 5.7258128,10.18854 c 0.073552,0.107613 0.1959825,0.260148 0.2695379,0.328117 0.1716226,0.181246 0.4966453,0.328478 0.821506,0.379452 0.2942113,0.04531 0.2820613,0.03399 0.1839893,0.226558 -0.091941,0.186909 -0.2948187,0.186909 -0.7054873,0 C 5.9092067,10.941421 5.6764117,10.64718 5.6273729,10.27336 Z m 2.0742723,0.953099 c 0.03486,-0.0011 0.078908,0.0051 0.138284,0.01563 0.1225907,0.01699 0.3551027,0.06844 0.5144667,0.119413 0.5639073,0.164255 0.8402566,0.492533 0.8402566,0.996624 0,0.249212 -0.0488,0.396501 -0.2449286,0.753328 -0.1348414,0.249213 -0.3005554,0.510059 -0.3679774,0.583689 -0.1164573,0.124614 -0.13451,0.12952 -0.2203193,0.05023 -0.085813,-0.07929 -0.074265,-0.113413 0.1218787,-0.368293 0.386152,-0.498427 0.4909253,-0.939315 0.3070393,-1.267824 -0.1103253,-0.2039 -0.6311553,-0.447978 -1.041824,-0.49329 -0.2942113,-0.02832 -0.3072053,-0.04584 -0.19688,-0.266733 0.04212,-0.08567 0.073283,-0.120427 0.150004,-0.12276 z m -0.3879013,1.312465 c 0.1735426,0.0051 0.4053993,0.05703 0.520326,0.125 0.079683,0.04531 0.1597393,0.118747 0.17813,0.164056 0.0429,0.107614 -0.1355027,0.470384 -0.25196,0.510032 h -0.0012 c -0.070725,0.01785 -0.765726,-0.256058 -0.8812727,-0.345973 l -0.0012,-0.0011 -0.0012,-0.0011 -0.0012,-0.0011 v -0.0011 l -0.0012,-0.0011 c -0.02524,-0.063 0.21052,-0.420044 0.292976,-0.436372 0.03834,-0.0099 0.089813,-0.0128 0.14766,-0.0112 z m 6.1407823,0.05133 h 1.079326 l -0.01875,0.62275 -0.01875,0.622751 -0.244928,0.130573 c -0.422929,0.220896 -0.705136,0.175224 -1.77778,-0.27789 -0.300344,-0.124607 -0.563147,-0.237551 -0.575406,-0.248878 h -0.0012 c -0.003,-0.01147 0.09461,-0.206657 0.22735,-0.429676 l 0.25196,-0.41405 z m -7.9490313,1.006673 c 0.05082,0.0012 0.118888,0.02768 0.2449283,0.07477 0.1225893,0.05097 0.3609613,0.170447 0.520326,0.266734 l 0.3000073,0.175218 -0.1406286,0.108254 c -0.465834,0.339836 -1.0108296,0.435341 -1.1824522,0.20312 -0.1532377,-0.198239 -0.1226573,-0.532156 0.05508,-0.696411 0.099987,-0.09239 0.1374218,-0.13316 0.2027392,-0.131693 z"
     id="path4"
     style="opacity:0.1;fill:#000000;stroke-width:0.738553" />
  <path
     d="M 6.571928,6.5000025 C 6.512288,6.5013125 6.4441867,6.5581625 6.2953587,6.7031228 6.1605114,6.8333928 5.946842,7.0834121 5.8242528,7.2533308 5.5913388,7.5818381 5.2968955,8.335135 5.2968955,8.612669 c 0,0.09062 -0.067439,0.237409 -0.1593791,0.333695 -0.3677616,0.40214 -0.5215687,1.314359 -0.3070392,1.790131 0.23292,0.509752 0.7360164,0.843754 1.3734728,0.917386 0.3309867,0.03399 0.3611187,0.06188 0.250788,0.254457 -0.061287,0.107613 -0.1037973,0.113307 -0.5144667,0.07365 C 5.5602457,11.948012 5.456073,11.959283 5.2476756,12.061237 4.7695832,12.287793 4.5,12.71303 4.5,13.239774 c 0,0.894903 0.7659632,1.308531 1.65473,0.895065 0.1838807,-0.08496 0.422886,-0.215422 0.5332174,-0.289054 0.1041986,-0.07362 0.2333959,-0.136157 0.2824286,-0.136155 0.0429,0 0.2880447,0.141456 0.5332167,0.311374 0.241348,0.167264 0.4779493,0.307047 0.5203267,0.311376 0.098072,0 1.1224407,-0.985074 1.3676127,-1.313583 0.1103319,-0.147261 0.3184069,-0.492618 0.4593869,-0.764487 0.226788,-0.436122 0.257912,-0.555256 0.282429,-0.968722 0.01836,-0.413468 -5.54e-4,-0.50378 -0.14766,-0.775649 C 9.777284,10.113464 9.37948,9.789815 8.748156,9.506619 8.4662027,9.382011 8.227198,9.263571 8.21494,9.246581 8.2027,9.223928 8.337198,8.884147 8.5149474,8.487673 8.9562647,7.5134762 8.949888,7.5585681 8.7598747,7.4452895 8.6127687,7.3546675 8.594802,7.3545895 8.484478,7.4508895 8.3618887,7.5528422 8.3436913,7.5472641 6.670368,6.5390848 6.632448,6.5137781 6.6031753,6.4993175 6.571928,6.5000248 Z m 6.699783,0.2522263 c -0.144807,0.00426 -0.28912,0.030493 -0.50978,0.081471 -0.766172,0.1699173 -1.329423,0.5721633 -1.691059,1.2008602 -0.306469,0.53241 -0.404307,0.929407 -0.404307,1.62607 0,0.787289 0.127955,1.217517 0.495716,1.676295 0.138775,0.18399 0.259931,0.347247 0.263679,0.373875 0,0.02265 -0.134511,0.23205 -0.300008,0.464271 -0.77843,1.098804 -0.961916,1.885718 -0.514465,2.214227 0.18388,0.135933 0.373045,0.147958 0.550794,0.02903 0.09807,-0.06796 0.129004,-0.158588 0.15352,-0.453113 0.02454,-0.402139 0.08629,-0.482129 0.362118,-0.482129 0.263564,0 0.832729,0.210261 1.323081,0.482129 l 0.460559,0.254457 0.483997,-0.396193 c 0.26548,-0.211868 0.502539,-0.39177 0.539076,-0.397311 h 0.0012 l 0.0012,0.0011 c 0.02887,0.0068 0.13578,0.117187 0.236724,0.248878 0.183883,0.237885 0.502948,0.429676 0.711348,0.429676 0.214528,0 0.594355,-0.237215 0.802755,-0.497755 0.269693,-0.334172 0.324425,-0.503892 0.195708,-0.617169 -0.08581,-0.07929 -0.115853,-0.0798 -0.305867,0.03348 -0.105546,0.05646 -0.207474,0.09396 -0.239069,0.08371 l -0.0012,-0.0011 c -4.63e-4,-2.36e-4 -0.003,-8.67e-4 -0.0036,-0.0011 l -0.0012,-0.0011 v -0.0011 c -0.02452,-0.01699 -0.04336,-1.279814 -0.04336,-2.809075 V 7.5245528 L 16.12763,7.2187575 c 0.208398,-0.232222 0.263493,-0.328562 0.214458,-0.3738733 -0.07355,-0.067964 -0.429416,0.135876 -0.950414,0.5323513 L 15.165492,7.5592148 14.901813,7.3270781 C 14.576961,7.0382181 14.252,6.8851821 13.786165,6.8058875 13.562443,6.7662408 13.416507,6.7480742 13.2717,6.7523208 Z M 6.698494,7.7734055 h 0.0012 0.0012 0.0012 c 4.5e-4,2.53e-5 0.00306,-7.53e-5 0.00354,0 l 0.0012,0.00114 C 6.731374,7.7858795 7.0136313,7.9436514 7.3384914,8.130563 8.000464,8.510046 7.9879767,8.487887 7.7427987,9.003307 L 7.6256013,9.252177 7.3384854,9.213127 C 6.7255453,9.139464 6.356702,8.805241 6.430258,8.386109 6.4711847,8.159259 6.6357007,7.7876942 6.6986247,7.7734022 Z m 6.419696,0.1026747 c 0.208399,0 0.465978,0.028513 0.582437,0.062493 0.269693,0.084958 0.262946,0.073381 0.146489,0.2432968 -0.09807,0.135936 -0.12884,0.14104 -0.423057,0.11272 -0.570036,-0.06231 -1.035181,0.221533 -1.292612,0.787927 -0.04902,0.113278 -0.09258,0.272257 -0.09258,0.351553 v 0.152898 l 0.257818,-0.204235 c 0.275822,-0.220895 0.650152,-0.356938 0.815646,-0.294635 0.09195,0.02832 0.08526,0.06224 -0.06798,0.305795 -0.245178,0.390811 -1.121966,1.597054 -1.164874,1.597054 h -0.0012 l -0.0012,-0.0011 h -0.0012 c -0.02489,-0.01683 -0.105997,-0.157083 -0.192192,-0.327 -0.147106,-0.288861 -0.165238,-0.390641 -0.165238,-0.917385 0,-0.53241 0.01788,-0.629391 0.171098,-0.935244 0.324854,-0.640026 0.766576,-0.9284629 1.428552,-0.9341269 z m 1.341833,0.9341278 0.01875,1.042383 c 0.0061,0.577719 -0.006,1.064367 -0.03046,1.087023 -0.04749,0.03842 -1.402613,0.150678 -1.487147,0.121653 h -0.0012 l -0.0012,-0.0011 v -0.0011 c 0,-0.01699 1.084397,-1.659776 1.341831,-2.022268 z m -8.8689793,0.67967 0.1347691,0.198654 c 0.073551,0.107613 0.1959826,0.260148 0.2695379,0.328117 0.1716227,0.181245 0.4966453,0.328478 0.821506,0.379452 0.2942113,0.04532 0.2820613,0.03399 0.1839893,0.226557 -0.091941,0.186909 -0.2948187,0.186909 -0.7054873,0 C 5.9092067,10.441413 5.676412,10.14717 5.6273727,9.773352 Z m 2.0742723,0.953098 c 0.03486,-0.0011 0.078908,0.0051 0.138284,0.01563 0.1225907,0.01699 0.3551027,0.06844 0.5144667,0.119413 0.5639073,0.164256 0.8402566,0.492536 0.8402566,0.996626 0,0.249213 -0.0488,0.396501 -0.2449286,0.753328 -0.1348414,0.249213 -0.3005554,0.510059 -0.3679774,0.583689 -0.1164573,0.124614 -0.1345099,0.129521 -0.2203192,0.05022 -0.085814,-0.07929 -0.074265,-0.113414 0.1218786,-0.368295 0.3861526,-0.498426 0.490926,-0.939314 0.30704,-1.267821 -0.1103254,-0.203903 -0.6311554,-0.44798 -1.041824,-0.493292 -0.2942114,-0.02832 -0.3072054,-0.04584 -0.19688,-0.266733 0.04212,-0.08567 0.073283,-0.120426 0.150004,-0.12276 z m -0.3879013,1.312466 c 0.1735426,0.0051 0.4053993,0.05704 0.520326,0.124999 0.079683,0.04531 0.1597393,0.118746 0.17813,0.164057 0.0429,0.107613 -0.1355027,0.470383 -0.25196,0.510031 h -0.0012 c -0.070725,0.01785 -0.765726,-0.256057 -0.8812727,-0.345972 l -0.0012,-0.0011 -0.0012,-0.0011 -0.0012,-0.0011 v -0.0011 l -0.0012,-0.0011 c -0.02524,-0.063 0.21052,-0.420044 0.292976,-0.436372 0.03834,-0.0099 0.089814,-0.0128 0.14766,-0.0112 z m 6.1407823,0.05133 h 1.079326 l -0.01875,0.62275 -0.01875,0.622751 -0.244929,0.130573 c -0.422928,0.220896 -0.705135,0.175224 -1.777779,-0.27789 -0.300345,-0.124607 -0.563147,-0.23755 -0.575407,-0.248878 h -0.0012 c -0.003,-0.01146 0.09461,-0.206657 0.22735,-0.429675 l 0.25196,-0.414051 z m -7.9490314,1.006675 c 0.050821,0.0012 0.1188894,0.02768 0.2449281,0.07478 0.1225894,0.05097 0.3609616,0.170446 0.5203263,0.266733 l 0.3000073,0.175218 -0.1406286,0.108253 c -0.465834,0.339836 -1.0108297,0.435341 -1.1824522,0.20312 -0.1532379,-0.198237 -0.1226573,-0.532156 0.05508,-0.696411 0.099987,-0.09239 0.1374219,-0.13316 0.2027391,-0.131693 z"
     id="path5"
     style="fill:#4d4d4d;stroke-width:0.738553" />
</svg>
