<?xml version="1.0" encoding="UTF-8" standalone="no"?>
<!-- Created with Inkscape (http://www.inkscape.org/) -->

<svg
   width="22"
   height="22"
   viewBox="0 0 22 22"
   version="1.1"
   id="svg5"
   inkscape:version="1.3 (0e150ed6c4, 2023-07-21)"
   sodipodi:docname="gufw.svg"
   xmlns:inkscape="http://www.inkscape.org/namespaces/inkscape"
   xmlns:sodipodi="http://sodipodi.sourceforge.net/DTD/sodipodi-0.dtd"
   xmlns="http://www.w3.org/2000/svg"
   xmlns:svg="http://www.w3.org/2000/svg">
  <sodipodi:namedview
     id="namedview7"
     pagecolor="#ffffff"
     bordercolor="#000000"
     borderopacity="0.25"
     inkscape:showpageshadow="2"
     inkscape:pageopacity="0.0"
     inkscape:pagecheckerboard="0"
     inkscape:deskcolor="#d1d1d1"
     inkscape:document-units="px"
     showgrid="false"
     inkscape:zoom="35.590909"
     inkscape:cx="10.985951"
     inkscape:cy="11"
     inkscape:window-width="1920"
     inkscape:window-height="984"
     inkscape:window-x="0"
     inkscape:window-y="29"
     inkscape:window-maximized="1"
     inkscape:current-layer="svg5" />
  <defs
     id="defs2" />
  <rect
     style="opacity:0.2;fill:#000000;stroke-width:1.42857;stroke-linecap:square"
     id="rect234"
     width="20"
     height="20"
     x="1"
     y="1.5"
     ry="4.5" />
  <rect
     style="fill:#afb7e3;fill-opacity:1;stroke-width:1.42857;stroke-linecap:square"
     id="rect396"
     width="20"
     height="20"
     x="1"
     y="1"
     ry="4.5" />
  <path
     style="opacity:0.2;stroke-width:0.49999"
     d="m 6.2991206,4.5001935 c -0.2592377,8.6e-5 -0.4803335,0.1944615 -0.5214681,0.4589845 -0.4799619,3.084798 -0.2985899,5.513947 0.2294848,7.409179 0.00956,0.0343 0.021343,0.06188 0.031248,0.09473 0.2955384,1.027568 0.6908509,1.899308 1.139613,2.62793 0.2385896,0.387377 0.4897596,0.734747 0.7470471,1.045898 2.557e-4,3.1e-4 6.876e-4,6.5e-4 9.167e-4,0.001 2.878e-4,3.48e-4 6.874e-4,6.5e-4 0.00101,0.001 1.1255129,1.360252 2.3490699,2.026813 2.9608469,2.3125 0.127595,0.05958 0.272312,0.06476 0.403308,0.01367 1.008073,-0.393398 2.498547,-1.517113 3.647347,-3.67871 0.927702,-1.745595 1.605476,-4.160353 1.557569,-7.372071 -8e-5,-0.0051 8e-5,-0.0105 0,-0.01563 -9e-5,-0.0057 -8.7e-4,-0.01098 -0.001,-0.0166 -0.01232,-0.7564605 -0.06399,-1.5551585 -0.163065,-2.401412 A 0.52807401,0.54575505 0 0 0 15.808592,4.500195 h -2.113216 -0.03613 z"
     id="path1" />
  <path
     style="fill:#3f51b5;stroke-width:0.49999"
     d="m 6.2992874,4 c -0.2592376,8.6e-5 -0.4800796,0.194633 -0.5212146,0.459156 -0.4799614,3.084799 -0.2988154,5.513939 0.2292593,7.409171 0.2982626,1.070451 0.7687726,1.415484 1.2317749,2.167226 0.2388721,0.387838 0.4297902,1.290696 0.6873985,1.60213 1.1257585,1.360978 2.3492645,2.028152 2.9612035,2.313915 0.127593,0.05957 0.272858,0.06434 0.403854,0.01326 1.008074,-0.393397 2.497847,-1.516762 3.646648,-3.678359 0.92923,-1.74847 1.608543,-4.168679 1.55816,-7.3883175 -0.0119,-0.7607645 -0.550962,-1.22203 -0.65068,-2.073745 -0.03205,-0.274025 0.131165,-0.497487 -0.135912,-0.497568 l -2.014512,-0.326832 z"
     id="path2" />
  <path
     style="opacity:0.1;fill:#ffffff;stroke-width:0.49999"
     d="M 6.2991206,4 C 6.0398829,4.000086 5.8187871,4.1944615 5.7776525,4.4589845 5.5690049,5.7999975 5.4858809,7.016913 5.5012936,8.120117 5.5137551,7.151924 5.6000292,6.1006025 5.7776525,4.9589845 5.8187871,4.6944615 6.0398829,4.500086 6.2991206,4.5 h 7.3962554 l 2.014585,0.3271485 c 0.09531,2.9e-5 0.134287,0.029065 0.148434,0.078125 -0.0042,-0.027005 -0.0095,-0.053243 -0.01269,-0.081054 C 15.813645,4.5501945 15.97704,4.32723 15.709961,4.327149 L 13.695376,4 Z m 9.5651334,0.9453125 c 0.0046,0.091393 -0.03639,0.226436 -0.01855,0.3789065 0.09972,0.8517145 0.638468,1.313454 0.650373,2.074219 6.4e-4,0.04203 -4.12e-4,0.08226 0,0.124023 0.0029,-0.20492 0.0033,-0.412221 0,-0.6240235 -0.01132,-0.7236705 -0.498396,-1.177597 -0.631818,-1.953125 z"
     id="path3" />
  <path
     style="opacity:0.2;stroke-width:0.49999"
     d="m 13.659244,4.5 -7.5515237,7.689453 c 0.2869812,0.928999 0.6551557,1.727362 1.0702792,2.401367 0.2385893,0.387378 0.4897592,0.734747 0.7470476,1.045899 0,0 9.168e-4,0.001 9.168e-4,0.001 0,0 0.00101,10e-4 0.00101,10e-4 0.076227,0.09212 0.1525847,0.180748 0.2294861,0.266602 L 16.496026,7.414063 C 16.484691,6.648261 16.432479,5.8385815 16.332013,4.980469 A 0.52807401,0.54575505 0 0 0 15.808592,4.5 Z"
     id="path4" />
  <path
     style="fill:#ffffff;stroke-width:0.49999"
     d="m 13.659122,4 -7.6669986,7.806641 c 0.2995977,1.096841 0.7140114,2.018543 1.1856319,2.784277 0.2391222,0.388243 0.4913564,0.736265 0.7492452,1.047949 L 16.495644,6.91416 C 16.484263,6.1483585 16.432296,5.3386795 16.33183,4.4805665 A 0.52807401,0.54575505 0 0 0 15.808166,4 Z"
     id="path5" />
  <path
     id="path1040"
     style="opacity:0.2;fill:#ffffff;stroke-width:4;stroke-linecap:square"
     d="M 5.5,1 C 3.007005,1 1,3.007005 1,5.5 V 6 C 1,3.507005 3.007005,1.5 5.5,1.5 h 11 C 18.992996,1.5 21,3.507005 21,6 V 5.5 C 21,3.007005 18.992996,1 16.5,1 Z" />
</svg>
