<?xml version="1.0" encoding="UTF-8" standalone="no"?>
<!-- Created with Inkscape (http://www.inkscape.org/) -->

<svg
   width="22"
   height="22"
   viewBox="0 0 22 22"
   version="1.1"
   id="svg5"
   inkscape:version="1.3.2 (091e20ef0f, 2023-11-25, custom)"
   sodipodi:docname="hexchat.svg"
   xmlns:inkscape="http://www.inkscape.org/namespaces/inkscape"
   xmlns:sodipodi="http://sodipodi.sourceforge.net/DTD/sodipodi-0.dtd"
   xmlns="http://www.w3.org/2000/svg"
   xmlns:svg="http://www.w3.org/2000/svg">
  <sodipodi:namedview
     id="namedview7"
     pagecolor="#ffffff"
     bordercolor="#000000"
     borderopacity="0.25"
     inkscape:showpageshadow="2"
     inkscape:pageopacity="0.0"
     inkscape:pagecheckerboard="0"
     inkscape:deskcolor="#d1d1d1"
     inkscape:document-units="px"
     showgrid="false"
     inkscape:zoom="36.136364"
     inkscape:cx="10.986164"
     inkscape:cy="11"
     inkscape:window-width="1920"
     inkscape:window-height="1008"
     inkscape:window-x="0"
     inkscape:window-y="0"
     inkscape:window-maximized="1"
     inkscape:current-layer="svg5" />
  <defs
     id="defs2" />
  <rect
     style="opacity:0.2;fill:#000000;stroke-width:1.42857;stroke-linecap:square"
     id="rect234"
     width="20"
     height="20"
     x="1"
     y="1.4999995"
     ry="4.5" />
  <rect
     style="fill:#4d4d4d;fill-opacity:1;stroke-width:1.42857;stroke-linecap:square"
     id="rect396"
     width="20"
     height="20"
     x="1"
     y="1"
     ry="4.5" />
  <path
     d="M 10.93401,5.50237 C 9.33569,5.51767 7.7391,5.61284 7.43779,5.78174 6.83515,6.11956 3.99295,10.89925 4.00002,11.56326 c 0.007,0.66401 2.95252,5.3897 3.56223,5.71589 0.6097,0.32619 6.39735,0.27876 6.99998,-0.0591 C 15.16486,16.88224 18.00707,12.10254 18,11.43854 17.993,10.77453 15.04748,6.04227 14.43777,5.71608 14.13292,5.55299 12.53232,5.48701 10.93401,5.50233 Z m 0.45824,1.43811 c 1.01859,0.004 1.94242,0.0604 2.13941,0.16875 0.0135,0.007 0.0316,0.028 0.0481,0.0413 L 11.0962,9.94613 10.98682,10.06425 10.88311,9.94613 8.29677,7.2124 C 8.32077,7.1905 8.34607,7.1687 8.36467,7.158 8.5872,7.0297 9.77158,6.95402 10.95195,6.94238 c 0.14755,-0.001 0.29481,-0.002 0.44033,-0.002 z m 3.53488,2.10374 c 0.63484,1.03494 1.23714,2.14308 1.2399,2.40748 0.003,0.28649 -0.67587,1.57441 -1.34267,2.68591 l -2.44114,-2.19935 -0.11786,-0.105 0.11032,-0.10406 z m -7.87498,0.008 2.3855,2.67748 0.0981,0.10406 -0.10372,0.0975 -2.26387,2.19935 C 6.49743,13.05023 5.83592,11.82884 5.83303,11.5497 5.83003,11.2797 6.42655,10.11751 7.05219,9.05222 Z M 10.98681,13 l 0.0962,0.0975 2.71646,2.57435 c -0.07,0.0811 -0.12885,0.14129 -0.17161,0.16594 -0.44505,0.25661 -4.71674,0.31059 -5.16702,0.0628 -0.0502,-0.0276 -0.13202,-0.10615 -0.21969,-0.20813 l 2.64197,-2.59498 z"
     style="opacity:0.2;fill:#000000;stroke-width:0.481372"
     id="path2774"
     sodipodi:nodetypes="sssssssssccccccccccccscccccccccccsccccssccc" />
  <path
     d="M 10.93401,5.00237 C 9.33569,5.01767 7.7391,5.11284 7.43779,5.28174 6.83515,5.61956 3.99295,10.39925 4.00002,11.06326 c 0.007,0.66401 2.95252,5.3897 3.56223,5.71589 0.6097,0.32619 6.39735,0.27876 6.99998,-0.0591 C 15.16486,16.38224 18.00707,11.60254 18,10.93854 17.993,10.27453 15.04748,5.54227 14.43777,5.21608 14.13292,5.05299 12.53232,4.98701 10.93401,5.00233 Z m 0.45824,1.43811 c 1.01859,0.004 1.94242,0.0604 2.13941,0.16875 0.0135,0.007 0.0316,0.028 0.0481,0.0413 L 11.0962,9.44613 10.98682,9.56425 10.88311,9.44613 8.29677,6.7124 C 8.32077,6.6905 8.34607,6.6687 8.36467,6.658 8.5872,6.5297 9.77158,6.45402 10.95195,6.44238 c 0.14755,-0.001 0.29481,-0.002 0.44033,-0.002 z m 3.53488,2.10374 c 0.63484,1.03494 1.23714,2.14308 1.2399,2.40748 0.003,0.28649 -0.67587,1.57441 -1.34267,2.68591 l -2.44114,-2.19935 -0.11786,-0.105 0.11032,-0.10406 z m -7.87498,0.008 2.3855,2.67748 0.0981,0.10406 -0.10372,0.0975 -2.26387,2.19935 C 6.49743,12.55023 5.83592,11.32884 5.83303,11.0497 5.83003,10.7797 6.42655,9.61751 7.05219,8.55222 Z m 3.93466,3.94778 0.0962,0.0975 2.71646,2.57435 c -0.07,0.0811 -0.12885,0.14129 -0.17161,0.16594 -0.44505,0.25661 -4.71674,0.31059 -5.16702,0.0628 -0.0502,-0.0276 -0.13202,-0.10615 -0.21969,-0.20813 l 2.64197,-2.59498 z"
     style="fill:#ff7814;fill-opacity:1;stroke-width:0.481372"
     id="path2813"
     sodipodi:nodetypes="sssssssssccccccccccccscccccccccccsccccssccc" />
  <path
     id="path2841"
     style="opacity:0.2;fill:#ffffff;stroke-width:0.481372"
     d="m 10.9336,5.00213 c -1.59831,0.0153 -3.19478,0.1104 -3.49609,0.2793 -0.60264,0.33782 -3.44457,5.11724 -3.4375,5.78125 5.6e-4,0.0533 0.0268,0.14087 0.0625,0.24219 0.39969,-1.187 2.82307,-5.21405 3.375,-5.52344 0.30131,-0.1689 1.89778,-0.264 3.49609,-0.2793 1.59831,-0.0153 3.19906,0.0518 3.50391,0.21485 0.56094,0.30009 3.09209,4.32066 3.5,5.48047 0.0367,-0.10906 0.0631,-0.2039 0.0625,-0.25977 -0.007,-0.66401 -2.95279,-5.39451 -3.5625,-5.7207 C 14.13266,5.05389 12.53191,4.98681 10.9336,5.00213 Z"
     sodipodi:nodetypes="ssscssscsss" />
  <path
     id="path1040"
     style="opacity:0.1;fill:#ffffff;stroke-width:4;stroke-linecap:square"
     d="M 5.5,1.0000001 C 3.007005,1.0000001 1,3.0070051 1,5.5 V 6 C 1,3.5070051 3.007005,1.5000001 5.5,1.5000001 h 11 C 18.992996,1.5000001 21,3.5070051 21,6 V 5.5 C 21,3.0070052 18.992996,1.0000001 16.5,1.0000001 Z" />
</svg>
