<?xml version="1.0" encoding="UTF-8" standalone="no"?>
<!-- Created with Inkscape (http://www.inkscape.org/) -->

<svg
   width="22"
   height="22"
   viewBox="0 0 22 22"
   version="1.1"
   id="svg5"
   inkscape:version="1.3 (0e150ed6c4, 2023-07-21)"
   sodipodi:docname="htop.svg"
   xmlns:inkscape="http://www.inkscape.org/namespaces/inkscape"
   xmlns:sodipodi="http://sodipodi.sourceforge.net/DTD/sodipodi-0.dtd"
   xmlns="http://www.w3.org/2000/svg"
   xmlns:svg="http://www.w3.org/2000/svg">
  <sodipodi:namedview
     id="namedview7"
     pagecolor="#ffffff"
     bordercolor="#000000"
     borderopacity="0.25"
     inkscape:showpageshadow="2"
     inkscape:pageopacity="0.0"
     inkscape:pagecheckerboard="0"
     inkscape:deskcolor="#d1d1d1"
     inkscape:document-units="px"
     showgrid="false"
     inkscape:zoom="35.590909"
     inkscape:cx="10.985951"
     inkscape:cy="11"
     inkscape:window-width="1920"
     inkscape:window-height="984"
     inkscape:window-x="0"
     inkscape:window-y="29"
     inkscape:window-maximized="1"
     inkscape:current-layer="svg5" />
  <defs
     id="defs2" />
  <rect
     style="opacity:0.2;fill:#000000;stroke-width:1.42857;stroke-linecap:square"
     id="rect234"
     width="20"
     height="20"
     x="1"
     y="1.4999995"
     ry="4.5" />
  <rect
     style="fill:#4f4f4f;fill-opacity:1;stroke-width:1.42857;stroke-linecap:square"
     id="rect396"
     width="20"
     height="20"
     x="1"
     y="1"
     ry="4.5" />
  <path
     d="m 3,4.5 v 4 h 1 v -4 z m 2,0 v 4 h 1 v -4 z m 2,0 v 4 h 1 v -4 z m 6,0 v 4 h 1 v -4 z m 2,0 v 4 h 1 v -4 z m 2,0 v 4 h 1 v -4 z m -14,5 v 4 h 1 v -4 z m 2,0 v 4 h 1 v -4 z m 2,0 v 4 h 1 v -4 z m 2,0 v 4 h 1 v -4 z m 2,0 v 4 h 1 v -4 z m 2,0 v 4 h 1 v -4 z m 2,0 v 4 h 1 v -4 z m 2,0 v 4 h 1 v -4 z m -14,5 v 4 h 1 v -4 z m 2,0 v 4 h 1 v -4 z m 2,0 v 4 h 1 v -4 z m 6,0 v 4 h 1 v -4 z m 2,0 v 4 h 1 v -4 z m 2,0 v 4 h 1 v -4 z"
     style="fill:#000000;opacity:0.2"
     id="path1" />
  <path
     d="M 3,4 V 7.9999998 H 4 V 4 Z m 14,0 v 3.9999998 h 1 V 4 Z M 3,8.9999998 V 13 H 4 V 8.9999998 Z m 14,0 V 13 h 1 V 8.9999998 Z M 3,14 v 4 h 1 v -4 z m 14,0 v 4 h 1 v -4 z"
     style="fill:#d4d4d4;fill-opacity:1"
     id="path2" />
  <path
     d="M 5,4 V 8 H 6 V 4 Z M 7,4 V 8 H 8 V 4 Z M 5,9 v 4 H 6 V 9 Z m 2,0 v 4 H 8 V 9 Z m -2,5 v 4 h 1 v -4 z m 2,0 v 4 h 1 v -4 z"
     style="fill:#8bc34a"
     id="path3" />
  <path
     d="M 9,8.9999998 V 13 h 1 V 8.9999998 Z m 2,0 V 13 h 1 V 8.9999998 Z"
     style="fill:#ff9800"
     id="path4" />
  <path
     d="m 13,4 v 4 h 1 V 4 Z m 2,0 v 4 h 1 V 4 Z m -2,5 v 4 h 1 V 9 Z m 2,0 v 4 h 1 V 9 Z m -2,5 v 4 h 1 v -4 z m 2,0 v 4 h 1 v -4 z"
     style="fill:#ff5722"
     id="path5" />
  <path
     id="path1040"
     style="opacity:0.1;fill:#ffffff;stroke-width:4;stroke-linecap:square"
     d="M 5.5,1.0000001 C 3.007005,1.0000001 1,3.0070051 1,5.5 V 6 C 1,3.5070051 3.007005,1.5000001 5.5,1.5000001 h 11 C 18.992996,1.5000001 21,3.5070051 21,6 V 5.5 C 21,3.0070052 18.992996,1.0000001 16.5,1.0000001 Z" />
</svg>
