<?xml version="1.0" encoding="UTF-8" standalone="no"?>
<!-- Created with Inkscape (http://www.inkscape.org/) -->

<svg
   width="22"
   height="22"
   viewBox="0 0 22 22"
   version="1.1"
   id="svg5"
   inkscape:version="1.3 (0e150ed6c4, 2023-07-21)"
   sodipodi:docname="jockey.svg"
   xmlns:inkscape="http://www.inkscape.org/namespaces/inkscape"
   xmlns:sodipodi="http://sodipodi.sourceforge.net/DTD/sodipodi-0.dtd"
   xmlns="http://www.w3.org/2000/svg"
   xmlns:svg="http://www.w3.org/2000/svg">
  <sodipodi:namedview
     id="namedview7"
     pagecolor="#ffffff"
     bordercolor="#000000"
     borderopacity="0.25"
     inkscape:showpageshadow="2"
     inkscape:pageopacity="0.0"
     inkscape:pagecheckerboard="0"
     inkscape:deskcolor="#d1d1d1"
     inkscape:document-units="px"
     showgrid="false"
     inkscape:zoom="35.590909"
     inkscape:cx="10.985951"
     inkscape:cy="11"
     inkscape:window-width="1920"
     inkscape:window-height="984"
     inkscape:window-x="0"
     inkscape:window-y="29"
     inkscape:window-maximized="1"
     inkscape:current-layer="svg5" />
  <defs
     id="defs2" />
  <rect
     style="opacity:0.2;fill:#000000;stroke-width:1.42857;stroke-linecap:square"
     id="rect234"
     width="20"
     height="20"
     x="1"
     y="1.4999995"
     ry="4.5" />
  <rect
     style="fill:#419d45;fill-opacity:1;stroke-width:1.42857;stroke-linecap:square"
     id="rect396"
     width="20"
     height="20"
     x="1"
     y="1"
     ry="4.5" />
  <path
     d="m 6,4.5 v 2 h 1 v -2 z m 0,2 H 4 v 1 h 2 z m 2,-2 v 2 h 1 v -2 z m 2,0 v 2 h 1 v -2 z m 2,0 v 2 h 1 v -2 z m 2,0 v 2 h 1 v -2 z m 1,2 v 1 h 2 v -1 z m -11,2 v 1 h 2 v -1 z m 11,0 v 1 h 2 v -1 z m -11,2 v 1 h 2 v -1 z m 11,0 v 1 h 2 v -1 z m -11,2 v 1 h 2 v -1 z m 11,0 v 1 h 2 v -1 z m -11,2 v 1 h 2 v -1 z m 2,1 v 2 h 1 v -2 z m 9,-1 v 1 h 2 v -1 z m 0,1 h -1 v 2 h 1 z m -7,0 v 2 h 1 v -2 z m 2,0 v 2 h 1 v -2 z m 2,0 v 2 h 1 v -2 z"
     style="opacity:0.2;fill:#000000;fill-opacity:1;stroke-width:5;stroke-linecap:round;stroke-linejoin:round"
     id="path1" />
  <path
     d="M 6,4 V 6 H 7 V 4 Z M 6,6 H 4 V 7 H 6 Z M 8,4 V 6 H 9 V 4 Z m 2,0 v 2 h 1 V 4 Z m 2,0 v 2 h 1 V 4 Z m 2,0 v 2 h 1 V 4 Z m 1,2 v 1 h 2 V 6 Z M 4,8 V 9 H 6 V 8 Z m 11,0 v 1 h 2 V 8 Z M 4,10 v 1 h 2 v -1 z m 11,0 v 1 h 2 V 10 Z M 4,12 v 1 h 2 v -1 z m 11,0 v 1 h 2 V 12 Z M 4,14 v 1 h 2 v -1 z m 2,1 v 2 h 1 v -2 z m 9,-1 v 1 h 2 v -1 z m 0,1 h -1 v 2 h 1 z m -7,0 v 2 h 1 v -2 z m 2,0 v 2 h 1 v -2 z m 2,0 v 2 h 1 v -2 z"
     style="fill:#b7b7b7;fill-opacity:1;stroke-width:5;stroke-linecap:round;stroke-linejoin:round"
     id="path2" />
  <rect
     style="opacity:0.2;fill:#000000"
     id="rect1"
     width="11"
     height="11"
     x="5"
     y="5.5"
     ry="1" />
  <rect
     style="fill:#4d4d4d;fill-opacity:1"
     id="rect2"
     width="11"
     height="11"
     x="5"
     y="5"
     ry="1" />
  <path
     id="rect4"
     style="opacity:0.2;fill:#ffffff;fill-opacity:1"
     d="m 7,7 v 1 h 7 V 7 Z m 0,2 v 1 h 4 V 9 Z" />
  <path
     id="rect3"
     style="opacity:0.1;fill:#ffffff;fill-opacity:1"
     d="M 6,5 C 5.446,5 5,5.446 5,6 v 0.5 c 0,-0.554 0.446,-1 1,-1 h 9 c 0.554,0 1,0.446 1,1 V 6 C 16,5.446 15.554,5 15,5 Z" />
  <path
     id="path1040"
     style="opacity:0.2;fill:#ffffff;stroke-width:4;stroke-linecap:square"
     d="M 5.5,1.0000001 C 3.007005,1.0000001 1,3.0070051 1,5.5 V 6 C 1,3.5070051 3.007005,1.5000001 5.5,1.5000001 h 11 C 18.992996,1.5000001 21,3.5070051 21,6 V 5.5 C 21,3.0070052 18.992996,1.0000001 16.5,1.0000001 Z" />
</svg>
