<?xml version="1.0" encoding="UTF-8" standalone="no"?>
<!-- Created with Inkscape (http://www.inkscape.org/) -->

<svg
   width="22"
   height="22"
   viewBox="0 0 22 22"
   version="1.1"
   id="svg5"
   inkscape:version="1.3 (0e150ed6c4, 2023-07-21)"
   sodipodi:docname="kjumpingcube.svg"
   xmlns:inkscape="http://www.inkscape.org/namespaces/inkscape"
   xmlns:sodipodi="http://sodipodi.sourceforge.net/DTD/sodipodi-0.dtd"
   xmlns="http://www.w3.org/2000/svg"
   xmlns:svg="http://www.w3.org/2000/svg">
  <sodipodi:namedview
     id="namedview7"
     pagecolor="#ffffff"
     bordercolor="#000000"
     borderopacity="0.25"
     inkscape:showpageshadow="2"
     inkscape:pageopacity="0.0"
     inkscape:pagecheckerboard="0"
     inkscape:deskcolor="#d1d1d1"
     inkscape:document-units="px"
     showgrid="false"
     inkscape:zoom="36.636364"
     inkscape:cx="11.013648"
     inkscape:cy="10.986352"
     inkscape:window-width="1850"
     inkscape:window-height="1011"
     inkscape:window-x="70"
     inkscape:window-y="32"
     inkscape:window-maximized="1"
     inkscape:current-layer="svg5" />
  <defs
     id="defs2" />
  <rect
     style="opacity:0.2;fill:#000000;stroke-width:1.42857;stroke-linecap:square"
     id="rect234"
     width="20"
     height="20"
     x="1"
     y="1.5"
     ry="4.5" />
  <rect
     style="fill:#e4e4e4;fill-opacity:1;stroke-width:1.42857;stroke-linecap:square"
     id="rect396"
     width="20"
     height="20"
     x="1"
     y="1"
     ry="4.5" />
  <path
     id="path1"
     d="M 6,4 C 4.8954316,4 4,4.8954316 4,6 4,7.1045684 4.8954316,8 6,8 7.1045684,8 8,7.1045684 8,6 8,4.8954316 7.1045684,4 6,4 Z m 10,0 c -1.104568,0 -2,0.8954316 -2,2 0,1.1045684 0.895432,2 2,2 1.104568,0 2,-0.8954316 2,-2 0,-1.1045684 -0.895432,-2 -2,-2 z m -5,5 c -1.1045684,0 -2,0.8954321 -2,2 0,1.104568 0.8954316,2 2,2 1.104568,0 2,-0.895432 2,-2 0,-1.1045679 -0.895432,-2 -2,-2 z m -5,5 c -1.1045684,0 -2,0.895432 -2,2 0,1.104568 0.8954316,2 2,2 1.1045684,0 2,-0.895432 2,-2 0,-1.104568 -0.8954316,-2 -2,-2 z m 10,0 c -1.104568,0 -2,0.895432 -2,2 0,1.104568 0.895432,2 2,2 1.104568,0 2,-0.895432 2,-2 0,-1.104568 -0.895432,-2 -2,-2 z"
     style="fill:#4d4d4d;fill-opacity:1" />
  <path
     id="path1040"
     style="opacity:0.2;fill:#ffffff;stroke-width:4;stroke-linecap:square"
     d="M 5.5,1 C 3.007005,1 1,3.007005 1,5.5 V 6 C 1,3.507005 3.007005,1.5 5.5,1.5 h 11 C 18.992996,1.5 21,3.507005 21,6 V 5.5 C 21,3.007005 18.992996,1 16.5,1 Z" />
</svg>
