<?xml version="1.0" encoding="UTF-8" standalone="no"?>
<!-- Created with Inkscape (http://www.inkscape.org/) -->

<svg
   width="22"
   height="22"
   viewBox="0 0 22 22"
   version="1.1"
   id="svg5"
   inkscape:version="1.3.2 (091e20ef0f, 2023-11-25, custom)"
   sodipodi:docname="kleopatra.svg"
   xmlns:inkscape="http://www.inkscape.org/namespaces/inkscape"
   xmlns:sodipodi="http://sodipodi.sourceforge.net/DTD/sodipodi-0.dtd"
   xmlns="http://www.w3.org/2000/svg"
   xmlns:svg="http://www.w3.org/2000/svg">
  <sodipodi:namedview
     id="namedview7"
     pagecolor="#ffffff"
     bordercolor="#000000"
     borderopacity="0.25"
     inkscape:showpageshadow="2"
     inkscape:pageopacity="0.0"
     inkscape:pagecheckerboard="0"
     inkscape:deskcolor="#d1d1d1"
     inkscape:document-units="px"
     showgrid="false"
     inkscape:zoom="36.136364"
     inkscape:cx="11"
     inkscape:cy="11"
     inkscape:window-width="1920"
     inkscape:window-height="1008"
     inkscape:window-x="0"
     inkscape:window-y="0"
     inkscape:window-maximized="1"
     inkscape:current-layer="svg5" />
  <defs
     id="defs2" />
  <rect
     style="opacity:0.2;fill:#000000;stroke-width:1.42857;stroke-linecap:square"
     id="rect234"
     width="20"
     height="20"
     x="1"
     y="1.5"
     ry="4.5" />
  <rect
     style="fill:#d5a43a;fill-opacity:1;stroke-width:1.42857;stroke-linecap:square"
     id="rect396"
     width="20"
     height="20"
     x="1"
     y="1"
     ry="4.5" />
  <path
     id="path3"
     style="opacity:0.1;fill:#000000"
     d="m 9.6074498,6.499746 c -1.3221002,0 -2.7153668,0.3559501 -4.1464844,1.0605469 C 4.2960746,8.1338148 3.7987985,8.106557 4.0742467,8.3786522 4.1714121,8.4746372 4.1046837,8.9950019 5.736356,8.3669335 6.8514489,7.9377094 8.2215303,7.5753258 8.9629185,7.5134179 10.107686,7.417827 11.471137,7.7151284 13.884794,8.5856835 c 0.866751,0.3126182 1.865479,0.6418608 2.216796,0.7304687 0.751362,0.1895049 0.828643,0.1600084 1.455079,0.1621094 h 0.443359 V 9.1071679 c 0,-0.4239841 -0.05235,-0.4648438 -0.59375,-0.4648438 -1.206999,0 -1.505643,-0.1913994 -3.322266,-0.9863281 C 12.138247,6.8045539 10.958166,6.499746 9.6074498,6.499746 Z M 8.8183873,9.0056054 c -0.2014223,0.0073 -0.3827574,0.025297 -0.5273438,0.054687 -0.6668603,0.1355728 -1.5576848,0.6289637 -2.1054687,1.1289061 -0.8490877,0.774932 -1.8107743,2.423748 -1.7167969,2.789063 0.04232,0.164504 0.087775,0.174233 0.8359375,0.205078 0.4343166,0.01791 0.8840349,0.116526 1.5507813,0.216797 l 1.2617187,0.18164 v 0.509766 c -0.2091278,0.934878 -0.058694,1.2396 -0.021484,1.580078 0.1393669,1.232262 0.140242,1.364937 0.4628907,1.320313 0.498423,-0.799695 0.5569358,-2.131757 0.5605468,-3.015626 l 0.5078125,0.486329 c 1.3933426,1.212958 1.8030716,0.99538 2.9980466,1.5625 0.988373,0.397607 2.236643,0.57235 3.191406,0.503906 0.586911,0 1.328574,-0.640601 1.328125,-1.382813 -2.42e-4,-0.572309 -0.163405,-0.882541 -0.560547,-1.066406 -0.730099,-0.338014 -1.539062,0.06232 -1.539062,0.8125 0,0.736276 0.718244,1.145134 1.195312,0.679688 0.199005,-0.194158 0.248741,-0.519868 0.107422,-0.716797 -0.06272,-0.0874 -0.07042,-0.07281 -0.03125,0.0625 0.135162,0.466942 -0.232429,0.789998 -0.65625,0.576172 -0.442929,-0.223468 -0.359874,-0.942294 0.123047,-1.060547 0.238542,-0.05841 0.656097,0.145543 0.8125,0.457031 0.08429,0.167851 0.08788,0.27062 0.01563,0.505859 -0.236989,0.77173 -1.703804,0.774482 -3.30664,0.01172 -0.388519,-0.18489 -0.908253,-0.462757 -1.15625,-0.619141 -0.427432,-0.269533 -0.949295,-0.295989 -1.695313,-0.935546 -0.395201,-0.338807 -0.452597,-0.292984 0.578125,-0.457032 0.296333,-0.04716 1.564179,-0.292261 2.326172,-0.544922 1.35372,-0.44886 1.40515,-0.859428 2.232422,-0.865234 0.465665,-0.0033 -0.307738,-0.03084 0.464844,0.002 l 1.445307,0.05855 V 11.30248 10.55834 L 15.822294,10.51732 C 13.483815,10.457396 14.624683,10.579414 12.210966,9.6696679 11.750067,9.495953 11.259795,9.2850959 10.937528,9.202871 10.366026,9.0570541 9.4226532,8.9837244 8.8183873,9.0056054 Z m 2.7382817,1.1835936 c 0.02802,0 0.427115,0.221464 1.070312,0.490235 0.643198,0.268769 1.252151,0.50838 1.353516,0.533203 0.101368,0.02482 0.183593,0.07169 0.183593,0.103515 0,0.03182 -0.388985,0.447018 -0.865234,0.677735 -0.971228,0.470505 -1.547882,0.667433 -2.486328,0.71289 l -0.230469,0.0098 0.25,-0.191406 c 0.137609,-0.105809 0.3465,-0.35175 0.462891,-0.544922 0.184658,-0.306471 0.210937,-0.62933 0.210937,-1.169922 0,-0.340742 0.02276,-0.621095 0.05078,-0.621094 z m -4.1914067,0.164063 c 0.1153544,-0.02133 0.116106,0.153276 0.1171875,0.501953 0.00215,0.686171 0.1707625,1.258896 0.65625,1.652343 L 8.455106,12.765371 6.9629185,12.630605 c -0.7928312,-0.07379 -1.408189,-0.1509 -1.4296875,-0.171875 -0.077058,-0.07518 0.3494004,-0.849819 0.9726563,-1.433593 0.46406,-0.434663 0.7440211,-0.650551 0.859375,-0.671875 z" />
  <path
     style="fill:#482f00"
     d="m 9.6074499,6 c -1.3221015,0 -2.714389,0.356926 -4.145508,1.0615235 -1.164892,0.5735225 -1.6631434,0.54601 -1.387695,0.8181055 0.097166,0.095985 0.030435,0.616604 1.662109,-0.011465 1.115094,-0.4292245 2.48615,-0.7916075 3.227539,-0.8535155 1.1447691,-0.095591 2.5082161,0.2017095 4.9218751,1.0722655 0.866752,0.3126185 1.863526,0.640884 2.214844,0.729492 0.751362,0.189505 0.830595,0.160008 1.457031,0.1621095 l 0.442383,9.765e-4 v -0.37207 c 0,-0.4239845 -0.05137,-0.4638675 -0.592774,-0.4638675 -1.207,0 -1.507594,-0.192375 -3.324218,-0.9873045 C 12.137269,6.304807 10.958167,6 9.6074499,6 Z M 8.8183874,8.5056055 c -0.2014225,0.0073 -0.381781,0.026265 -0.5263675,0.055664 -0.666861,0.1355725 -1.559637,0.6279865 -2.1074215,1.1279295 -0.8490885,0.774933 -1.8088215,2.423563 -1.714844,2.788878 0.04232,0.164505 0.086798,0.175209 0.834961,0.206054 0.434317,0.01791 0.8849515,0.11555 1.5516985,0.215821 l 1.2617185,0.18164 v 0.509766 c -0.209128,0.934879 -0.05967,1.239785 -0.02246,1.580263 0.139367,1.232263 0.141218,1.365914 0.463867,1.321289 0.4984235,-0.799695 0.5559595,-2.132918 0.5595705,-3.016787 l 0.507813,0.486329 c 1.3933441,1.21296 1.8040471,0.995564 2.9990231,1.562684 0.988374,0.397608 2.235725,0.573327 3.190489,0.504883 0.586911,0 1.328574,-0.641576 1.328125,-1.383788 -2.42e-4,-0.57231 -0.163405,-0.882542 -0.560547,-1.066407 -0.7301,-0.338014 -1.540039,0.0633 -1.540039,0.813477 0,0.736277 0.71922,1.145134 1.196289,0.679687 0.199005,-0.194158 0.247764,-0.520844 0.106445,-0.717773 -0.06272,-0.0874 -0.06944,-0.07281 -0.03027,0.0625 0.135162,0.466943 -0.233405,0.789999 -0.657226,0.576172 -0.44293,-0.223468 -0.358899,-0.941317 0.124023,-1.05957 0.238542,-0.05841 0.656097,0.145543 0.8125,0.457031 0.08429,0.167851 0.08788,0.269643 0.01563,0.504883 -0.236989,0.77173 -1.702885,0.775454 -3.305723,0.01269 -0.388519,-0.18489 -0.909229,-0.463733 -1.157227,-0.620117 -0.427432,-0.269534 -0.948317,-0.295198 -1.694336,-0.934756 -0.395201,-0.338807 -0.453574,-0.292983 0.577149,-0.457031 0.296333,-0.04716 1.563261,-0.292261 2.325255,-0.544922 1.353721,-0.448861 1.405148,-0.859243 2.232421,-0.865049 0.465666,-0.0033 -0.307738,-0.03179 0.464844,0.001 l 1.44628,0.05857 v -0.74414 -0.743164 L 15.82327,10.018307 C 13.484789,9.958379 14.624686,10.079416 12.210966,9.169669 11.750067,8.995954 11.258819,8.786073 10.936552,8.7038485 10.365049,8.558031 9.4226539,8.483724 8.8183874,8.5056065 Z M 11.556669,9.690176 c 0.02802,0 0.427114,0.220487 1.070312,0.489258 0.643199,0.26877 1.252151,0.50838 1.353516,0.533203 0.101368,0.02482 0.18457,0.07169 0.18457,0.103515 0,0.03182 -0.389962,0.446832 -0.866211,0.677549 -0.971229,0.470506 -1.547881,0.667433 -2.486328,0.71289 l -0.230469,0.0098 0.25,-0.191406 c 0.137609,-0.105809 0.345524,-0.350773 0.461915,-0.543945 0.184658,-0.306471 0.211914,-0.630119 0.211914,-1.170712 0,-0.340742 0.02276,-0.620118 0.05078,-0.620117 z M 7.3652624,9.853262 c 0.1153545,-0.02133 0.1151295,0.153276 0.116211,0.501953 0.00215,0.686172 0.170762,1.259687 0.65625,1.653135 l 0.3173825,0.257812 -1.491211,-0.135742 c -0.792832,-0.07379 -1.4091655,-0.149923 -1.430664,-0.170898 -0.077058,-0.07518 0.3484235,-0.849634 0.97168,-1.433409 C 6.9689714,10.09145 7.2499084,9.874586 7.3652624,9.853262 Z"
     id="path4" />
  <path
     id="path1040"
     style="opacity:0.2;fill:#ffffff;stroke-width:4;stroke-linecap:square"
     d="M 5.5,1 C 3.007005,1 1,3.007005 1,5.5 V 6 C 1,3.507005 3.007005,1.5 5.5,1.5 h 11 C 18.992996,1.5 21,3.507005 21,6 V 5.5 C 21,3.007005 18.992996,1 16.5,1 Z" />
</svg>
