<?xml version="1.0" encoding="UTF-8" standalone="no"?>
<!-- Created with Inkscape (http://www.inkscape.org/) -->

<svg
   width="22"
   height="22"
   viewBox="0 0 22 22"
   version="1.1"
   id="svg5"
   inkscape:version="1.2.2 (1:1.2.2+202305151914+b0a8486541)"
   sodipodi:docname="kpatience.svg"
   xmlns:inkscape="http://www.inkscape.org/namespaces/inkscape"
   xmlns:sodipodi="http://sodipodi.sourceforge.net/DTD/sodipodi-0.dtd"
   xmlns="http://www.w3.org/2000/svg"
   xmlns:svg="http://www.w3.org/2000/svg">
  <sodipodi:namedview
     id="namedview7"
     pagecolor="#ffffff"
     bordercolor="#000000"
     borderopacity="0.25"
     inkscape:showpageshadow="2"
     inkscape:pageopacity="0.0"
     inkscape:pagecheckerboard="0"
     inkscape:deskcolor="#d1d1d1"
     inkscape:document-units="px"
     showgrid="false"
     inkscape:zoom="36.636364"
     inkscape:cx="10.986352"
     inkscape:cy="11"
     inkscape:window-width="1920"
     inkscape:window-height="1008"
     inkscape:window-x="0"
     inkscape:window-y="0"
     inkscape:window-maximized="1"
     inkscape:current-layer="svg5" />
  <defs
     id="defs2" />
  <rect
     style="opacity:0.2;fill:#000000;stroke-width:1.42857;stroke-linecap:square"
     id="rect234"
     width="20"
     height="20"
     x="1"
     y="1.5"
     ry="4.5" />
  <rect
     style="fill:#e4e4e4;fill-opacity:1;stroke-width:1.42857;stroke-linecap:square"
     id="rect396"
     width="20"
     height="20"
     x="1"
     y="1"
     ry="4.5" />
  <path
     id="path1938"
     style="opacity:0.2;fill:#000000"
     d="M 5.06055,3.5 4,6.5 H 4.74219 L 4.92188,5.95312 H 6.07617 L 6.25781,6.5 H 7 l -1.06055,-3 z m 0.4375,0.70312 0.39453,1.19336 H 5.10742 Z M 9.16016,8.5 C 7.97056,8.5 7,9.3378 7,10.375 c 0,0.5399 0.25953,1.0324 0.67773,1.375 l 3.26954,2.75 3.375,-2.75 C 14.74027,11.408 15,10.9149 15,10.375 15,9.3377 14.02964,8.5 12.83984,8.5 12.05666,8.5 11.3768,8.86095 11,9.40625 10.6233,8.86105 9.94336,8.5 9.16016,8.5 Z m 5.83984,7 1.06055,3 h 0.8789 L 18,15.5 h -0.74219 l -0.18164,0.54688 H 15.92188 L 15.74219,15.5 Z m 1.10742,1.10352 h 0.78516 l -0.39453,1.19336 z"
     sodipodi:nodetypes="cccccccccccccsscccsscsccccccccccccc" />
  <path
     id="path2009"
     style="fill:#e74c3c;fill-opacity:1"
     d="M 5.06055,3 4,6 H 4.74219 L 4.92188,5.45312 H 6.07617 L 6.25781,6 H 7 L 5.93945,3 Z m 0.4375,0.70312 0.39453,1.19336 H 5.10742 Z M 9.16016,8 C 7.97056,8 7,8.8378 7,9.875 c 0,0.5399 0.25953,1.0324 0.67773,1.375 l 3.26954,2.75 3.375,-2.75 C 14.74027,10.908 15,10.4149 15,9.875 15,8.8377 14.02964,8 12.83984,8 12.05666,8 11.3768,8.36095 11,8.90625 10.6233,8.36105 9.94336,8 9.16016,8 Z M 15,15 l 1.06055,3 h 0.8789 L 18,15 h -0.74219 l -0.18164,0.54688 H 15.92188 L 15.74219,15 Z m 1.10742,1.10352 h 0.78516 l -0.39453,1.19336 z"
     sodipodi:nodetypes="cccccccccccccsscccsscsccccccccccccc" />
  <path
     id="path1040"
     style="opacity:0.2;fill:#ffffff;stroke-width:4;stroke-linecap:square"
     d="M 5.5,1 C 3.007005,1 1,3.007005 1,5.5 V 6 C 1,3.507005 3.007005,1.5 5.5,1.5 h 11 C 18.992996,1.5 21,3.507005 21,6 V 5.5 C 21,3.007005 18.992996,1 16.5,1 Z" />
</svg>
