<?xml version="1.0" encoding="UTF-8" standalone="no"?>
<!-- Created with Inkscape (http://www.inkscape.org/) -->

<svg
   width="22"
   height="22"
   viewBox="0 0 22 22"
   version="1.1"
   id="svg5"
   inkscape:version="1.2.2 (1:1.2.2+202305151914+b0a8486541)"
   sodipodi:docname="kvantum.svg"
   xmlns:inkscape="http://www.inkscape.org/namespaces/inkscape"
   xmlns:sodipodi="http://sodipodi.sourceforge.net/DTD/sodipodi-0.dtd"
   xmlns="http://www.w3.org/2000/svg"
   xmlns:svg="http://www.w3.org/2000/svg">
  <sodipodi:namedview
     id="namedview7"
     pagecolor="#ffffff"
     bordercolor="#000000"
     borderopacity="0.25"
     inkscape:showpageshadow="2"
     inkscape:pageopacity="0.0"
     inkscape:pagecheckerboard="0"
     inkscape:deskcolor="#d1d1d1"
     inkscape:document-units="px"
     showgrid="false"
     inkscape:zoom="36.636364"
     inkscape:cx="10.986352"
     inkscape:cy="11"
     inkscape:window-width="1920"
     inkscape:window-height="1008"
     inkscape:window-x="0"
     inkscape:window-y="0"
     inkscape:window-maximized="1"
     inkscape:current-layer="svg5"
     showguides="false" />
  <defs
     id="defs2" />
  <rect
     style="opacity:0.2;fill:#000000;stroke-width:1.42857;stroke-linecap:square"
     id="rect234"
     width="20"
     height="20"
     x="1"
     y="1.5"
     ry="4.5" />
  <path
     id="rect396"
     style="fill:#82248f;fill-opacity:1;stroke-width:1.42857;stroke-linecap:square"
     d="m 5.5,1 h 11 L 21,5.5 v 11 C 21,18.993 18.993,21 16.5,21 H 5.5 C 5.5,21 1,16.25 1,16.5 v -11 z"
     sodipodi:nodetypes="cccsscccc" />
  <path
     id="rect942"
     style="opacity:1;fill:#e53626;fill-opacity:1;stroke-width:2.66667;stroke-linecap:square"
     d="M 5.5,1 C 3.0070025,1 1,3.0070025 1,5.5 V 9 L 9,1 Z" />
  <path
     id="rect944"
     style="opacity:1;fill:#ffae1a;fill-opacity:1;stroke-width:2;stroke-linecap:square"
     d="m 9,1 h 7 L 10,11 1,16 V 9 Z"
     sodipodi:nodetypes="cccccc" />
  <path
     id="rect946"
     style="opacity:1;fill:#2dac43;fill-opacity:1;stroke-width:2;stroke-linecap:square"
     d="M 16,1 1,16 v 0.5 c 0,2.037572 1.3414261,3.749777 3.192383,4.307617 L 14,15 20.807617,4.192383 C 20.249777,2.3414261 18.537572,1 16.5,1 Z"
     sodipodi:nodetypes="ccscccsc" />
  <path
     id="rect954"
     style="opacity:1;fill:#2f66dd;fill-opacity:1;stroke-width:2;stroke-linecap:square"
     d="M 20.807617,4.192383 4.192383,20.807617 C 4.606097,20.932302 5.0445745,21 5.5,21 H 12 l 9,-9 V 5.5 C 21,5.0445745 20.9323,4.606097 20.807617,4.192383 Z" />
  <path
     id="path1025"
     style="opacity:0.1;fill:#000000;stroke-width:2;stroke-linecap:square"
     d="M 9 1 L 1 9 L 1 9.5 L 9.5 1 L 9 1 z M 16 1 L 1 16 L 1 16.5 L 16.5 1 L 16 1 z M 20.806641 4.1933594 L 4.1933594 20.806641 C 4.3239897 20.846011 4.456375 20.880631 4.5917969 20.908203 L 20.908203 4.5917969 C 20.880633 4.456375 20.846013 4.3239897 20.806641 4.1933594 z M 21 12 L 12 21 L 12.5 21 L 21 12.5 L 21 12 z " />
  <path
     d="m 5.615319,7.5 9.7e-5,0.973351 0.804965,0.06314 0.1444,0.189408 L 5.129238,15.279151 4.908387,15.476503 4,15.540043 v 0.959898 l 3.999938,5.6e-5 1.24e-4,-0.959848 -0.908196,-0.05537 -0.152897,-0.205218 0.586117,-2.775611 h 0.9003649 l 1.291126,2.525564 c 0.5277001,1.007123 0.8978881,1.43889 2.0386221,1.452249 0.327999,0.0039 0.459949,0.02629 1.344811,0 3.051955,-2.367516 4.609783,-4.371769 4.855914,-5.187674 0.149068,-0.494166 -0.0876,-0.797243 -0.594732,-0.797243 -0.247381,0 -0.530596,0.0968 -0.849264,0.29217 l -0.229342,1.896436 c -0.624618,0.75847 -1.457297,1.584681 -2.471815,2.446615 l 0.886364,-3.459613 c 0.139252,-0.666613 -0.138566,-1.022284 -0.604089,-1.160218 l -1.757271,0.426268 -0.110288,0.362985 0.959703,0.142154 c 0.06672,0.229817 -0.222526,0.929496 -0.368228,1.699573 l -0.467182,2.39133 c -0.0074,0.0246 -0.01201,0.05158 -0.01702,0.07892 -0.302929,-0.151233 -0.493889,-0.42053 -0.713518,-0.828663 l -1.8262511,-3.393751 3.3382021,-2.79128 0.868877,-0.102593 -1.4e-4,-0.997066 -3.000005,2.8e-5 1.5e-4,0.997115 0.585147,0.06306 0.08495,0.213107 -3.522232,2.725664 H 7.723225 l 0.6512009,-2.772993 0.186873,-0.189408 0.823332,-0.06312 -8.6e-5,-0.973451 z"
     style="fill:#000000;opacity:0.2"
     id="path2881" />
  <path
     d="m 5.615319,7 9.7e-5,0.973351 0.804965,0.063143 0.1444,0.1894085 L 5.129238,14.779154 4.908387,14.976506 4,15.040046 v 0.959898 L 7.999938,16 8.000062,15.040152 7.091866,14.984782 6.938969,14.779564 7.525086,12.003953 h 0.900365 l 1.2911257,2.525564 c 0.5277003,1.007123 0.8978883,1.43889 2.0386223,1.452249 0.327999,0.0039 0.459949,0.02629 1.34481,0 3.051955,-2.367516 4.609783,-4.371769 4.855914,-5.187674 0.149068,-0.494166 -0.0876,-0.797243 -0.594732,-0.797243 -0.247381,0 -0.530596,0.0968 -0.849264,0.29217 l -0.229342,1.896436 c -0.624618,0.75847 -1.457297,1.584681 -2.471815,2.446615 l 0.886364,-3.459613 c 0.139253,-0.666613 -0.138566,-1.022284 -0.604089,-1.160218 l -1.75727,0.426268 -0.110288,0.362985 0.959702,0.142154 c 0.06672,0.229817 -0.222525,0.929496 -0.368227,1.699573 l -0.467182,2.39133 c -0.0074,0.0246 -0.01201,0.05158 -0.01702,0.07892 -0.302929,-0.151233 -0.493889,-0.42053 -0.713518,-0.828663 l -1.8262513,-3.393751 3.3382013,-2.7912795 0.868877,-0.102593 -1.4e-4,-0.997066 -3.000004,2.75e-5 1.5e-4,0.9971155 0.585147,0.06306 0.08495,0.2131065 L 8.14794,10.99909 H 7.723225 L 8.374426,8.226097 8.561299,8.0366895 9.3846307,7.9735705 9.3845447,7.000119 Z"
     style="fill:#ffffff"
     id="path2852" />
  <path
     id="path1040"
     style="opacity:0.2;fill:#ffffff;stroke-width:4;stroke-linecap:square"
     d="M 5.5,1 C 3.007005,1 1,3.007005 1,5.5 V 6 C 1,3.507005 3.007005,1.5 5.5,1.5 h 11 C 18.992996,1.5 21,3.507005 21,6 V 5.5 C 21,3.007005 18.992996,1 16.5,1 Z" />
</svg>
