<?xml version="1.0" encoding="UTF-8" standalone="no"?>
<!-- Created with Inkscape (http://www.inkscape.org/) -->

<svg
   width="22"
   height="22"
   viewBox="0 0 22 22"
   version="1.1"
   id="svg5"
   inkscape:version="1.3.2 (1:1.3.2+202404261509+091e20ef0f)"
   sodipodi:docname="libinput-gestures.svg"
   xmlns:inkscape="http://www.inkscape.org/namespaces/inkscape"
   xmlns:sodipodi="http://sodipodi.sourceforge.net/DTD/sodipodi-0.dtd"
   xmlns="http://www.w3.org/2000/svg"
   xmlns:svg="http://www.w3.org/2000/svg">
  <sodipodi:namedview
     id="namedview7"
     pagecolor="#ffffff"
     bordercolor="#000000"
     borderopacity="0.25"
     inkscape:showpageshadow="2"
     inkscape:pageopacity="0.0"
     inkscape:pagecheckerboard="0"
     inkscape:deskcolor="#d1d1d1"
     inkscape:document-units="px"
     showgrid="false"
     inkscape:zoom="36.318182"
     inkscape:cx="10.986233"
     inkscape:cy="11"
     inkscape:window-width="1920"
     inkscape:window-height="1006"
     inkscape:window-x="0"
     inkscape:window-y="0"
     inkscape:window-maximized="1"
     inkscape:current-layer="svg5" />
  <defs
     id="defs2" />
  <rect
     style="opacity:0.2;fill:#000000;stroke-width:1.42857;stroke-linecap:square"
     id="rect234"
     width="20"
     height="20"
     x="1"
     y="1.5"
     ry="4.5" />
  <rect
     style="fill:#2196f3;fill-opacity:1;stroke-width:1.42857;stroke-linecap:square"
     id="rect396"
     width="20"
     height="20"
     x="1"
     y="1"
     ry="4.5" />
  <circle
     style="opacity:0.2;fill:#000000;stroke-width:0.571429"
     id="path1"
     cx="12"
     cy="10"
     r="4" />
  <circle
     style="opacity:0.2;fill:#000000;stroke-width:0.571429"
     id="path2"
     cx="12"
     cy="10"
     r="2" />
  <path
     style="opacity:0.2"
     d="m 11.997595,10.5 c -0.5,0 -1,0.5 -1,1 -0.0075,0.441377 -0.0064,1.362598 0.0019,2.721679 0.01328,2.172554 0.0093,2.854811 -0.0166,2.948243 C 10.242694,17.091864 9.3908871,16.506809 8.8899376,16.11023 8.5625201,15.85037 8.2381866,15.61257 8.1692346,15.58191 7.8817991,15.454092 7.4743916,15.535 7.2405236,15.76648 c -0.1617115,0.160059 -0.2220885,0.301913 -0.2363285,0.558594 -0.01088,0.196151 -0.00345,0.243104 0.056641,0.373047 0.037865,0.08186 0.105807,0.191751 0.151367,0.24414 0.045555,0.05239 0.669312,0.861737 1.385742,1.798829 1.326803,1.735457 2.3783129,2.66387 2.6057029,2.728636 0.139024,0.03967 6.739001,0.04054 6.882977,10e-4 0.06537,-0.01796 0.159027,-0.07759 0.226563,-0.144531 0.09464,-0.0938 0.130586,-0.162805 0.204101,-0.389648 0.210479,-0.649471 0.420804,-1.637701 0.480306,-2.186547 0.02587,-0.637724 0.01215,-1.233129 0,-1.75 -0.01118,-0.475439 8e-4,-0.910432 0,-1.499977 0,-0.5 -0.5,-1 -1,-1 -0.5,0 -1,0.5 -1,1 2.08e-4,-0.146541 0.0019,-0.406089 0,-0.5 0,-0.5 -0.5,-1 -1,-1 -0.4125,0 -0.820406,0.341344 -0.952148,0.741211 -0.01619,0.008 -0.03214,0.01533 -0.04785,0.02442 -2.85e-4,-0.06379 10e-4,-0.215735 0,-0.265625 0,-0.5 -0.5,-1 -1,-1 -0.424293,0 -0.845107,0.360825 -0.963867,0.775391 -0.01003,0.01483 -0.03116,0.04997 -0.03613,0.05176 -0.01525,0.0055 0,-0.623352 0,-1.563477 0,-0.643976 0.0046,-1.026352 0,-1.263696 0,-0.5 -0.5,-1 -1,-1 z"
     id="path4" />
  <path
     style="fill:#ebebeb"
     d="m 11.997595,10 c -0.5,0 -1,0.5 -1,1 -0.0075,0.441377 -0.0064,1.362598 0.0019,2.721679 0.01328,2.172554 0.0093,2.854811 -0.0166,2.948243 C 10.242694,16.591864 9.3908871,16.006809 8.8899376,15.61023 8.5625201,15.35037 8.2381866,15.11257 8.1692346,15.08191 7.8817991,14.954092 7.4743916,15.035 7.2405236,15.26648 c -0.1617115,0.160059 -0.2220885,0.301913 -0.2363285,0.558594 -0.01088,0.196151 -0.00345,0.243104 0.056641,0.373047 0.037865,0.08186 0.105807,0.191751 0.151367,0.24414 0.045555,0.05239 0.669312,0.861737 1.385742,1.798829 1.326803,1.735457 2.3783129,2.66387 2.6057029,2.728636 0.139024,0.03967 6.739001,0.04054 6.882977,10e-4 0.06537,-0.01796 0.159027,-0.07759 0.226563,-0.144531 0.09464,-0.0938 0.130586,-0.162805 0.204101,-0.389648 0.210479,-0.649471 0.420804,-1.637701 0.480306,-2.186547 0.02587,-0.637724 0.01215,-1.233129 0,-1.75 -0.01118,-0.475439 8e-4,-0.910432 0,-1.499977 0,-0.5 -0.5,-1 -1,-1 -0.5,0 -1,0.5 -1,1 2.08e-4,-0.146541 0.0019,-0.406089 0,-0.5 0,-0.5 -0.5,-1 -1,-1 -0.4125,0 -0.820406,0.341344 -0.952148,0.741211 -0.01619,0.008 -0.03214,0.01533 -0.04785,0.02442 -2.85e-4,-0.06379 10e-4,-0.215735 0,-0.265625 0,-0.5 -0.5,-1 -1,-1 -0.424293,0 -0.845107,0.360825 -0.963867,0.775391 -0.01003,0.01483 -0.03116,0.04997 -0.03613,0.05176 -0.01525,0.0055 0,-0.623352 0,-1.563477 0,-0.643976 0.0046,-1.026352 0,-1.263696 0,-0.5 -0.5,-1 -1,-1 z"
     id="path5" />
  <path
     id="path1040"
     style="opacity:0.2;fill:#ffffff;stroke-width:4;stroke-linecap:square"
     d="M 5.5,1 C 3.007005,1 1,3.007005 1,5.5 V 6 C 1,3.507005 3.007005,1.5 5.5,1.5 h 11 C 18.992996,1.5 21,3.507005 21,6 V 5.5 C 21,3.007005 18.992996,1 16.5,1 Z" />
</svg>
