<?xml version="1.0" encoding="UTF-8" standalone="no"?>
<!-- Created with Inkscape (http://www.inkscape.org/) -->

<svg
   width="22"
   height="22"
   viewBox="0 0 22 22"
   version="1.1"
   id="svg5"
   inkscape:version="1.2.2 (1:1.2.2+202305151914+b0a8486541)"
   sodipodi:docname="lunarclient.svg"
   xmlns:inkscape="http://www.inkscape.org/namespaces/inkscape"
   xmlns:sodipodi="http://sodipodi.sourceforge.net/DTD/sodipodi-0.dtd"
   xmlns="http://www.w3.org/2000/svg"
   xmlns:svg="http://www.w3.org/2000/svg">
  <sodipodi:namedview
     id="namedview7"
     pagecolor="#ffffff"
     bordercolor="#000000"
     borderopacity="0.25"
     inkscape:showpageshadow="2"
     inkscape:pageopacity="0.0"
     inkscape:pagecheckerboard="0"
     inkscape:deskcolor="#d1d1d1"
     inkscape:document-units="px"
     showgrid="false"
     inkscape:zoom="36.636364"
     inkscape:cx="10.986352"
     inkscape:cy="11"
     inkscape:window-width="1920"
     inkscape:window-height="1008"
     inkscape:window-x="0"
     inkscape:window-y="0"
     inkscape:window-maximized="1"
     inkscape:current-layer="svg5" />
  <defs
     id="defs2" />
  <rect
     style="opacity:0.2;fill:#000000;stroke-width:1.42857;stroke-linecap:square"
     id="rect234"
     width="20"
     height="20"
     x="1"
     y="1.4999995"
     ry="4.5" />
  <rect
     style="fill:#4f4f4f;fill-opacity:1;stroke-width:1.42857;stroke-linecap:square"
     id="rect396"
     width="20"
     height="20"
     x="1"
     y="1"
     ry="4.5" />
  <path
     d="m 11,4.0000021 c -0.0824,-2.387e-4 -0.163583,0.019889 -0.236328,0.058594 0,0 -1.630343,0.8760545 -3.263672,1.8183593 C 6.683336,6.3481078 5.866595,6.8358768 5.242187,7.2441428 4.929984,7.4482758 4.666721,7.6299158 4.464844,7.7929708 4.363905,7.8745008 4.279289,7.9499808 4.201172,8.0371118 4.123052,8.1242418 4,8.1959668 4,8.4980488 V 14.498049 H 5 V 8.6562518 c 0.02685,-0.02535 0.04522,-0.04479 0.09375,-0.08398 C 5.24734,8.4482178 5.491892,8.2743878 5.789062,8.0800838 6.383403,7.6914768 7.191667,7.2104928 8,6.7441468 9.498422,5.8796724 10.788342,5.1846059 11,5.0703186 c 0.211658,0.1142873 1.501577,0.8093538 3,1.6738282 0.808332,0.466346 1.616598,0.94733 2.210938,1.335937 0.29717,0.194304 0.541722,0.368134 0.695312,0.492188 0.04853,0.0392 0.0669,0.05863 0.09375,0.08398 v 5.8417972 h 1 V 8.4980488 C 18,8.1959668 17.876945,8.1242418 17.798828,8.0371118 17.720708,7.9499808 17.636095,7.8744988 17.535156,7.7929708 17.333278,7.6299158 17.070017,7.4482758 16.757812,7.2441428 16.133405,6.8358768 15.316664,6.3481078 14.5,5.8769552 12.866672,4.9346504 11.236328,4.0585959 11.236328,4.0585959 11.163583,4.0198913 11.0824,3.9997634 11,4.0000021 Z m -0.244141,1.8710938 -0.132812,0.2421875 -0.242188,0.1328125 0.242188,0.1328125 0.132812,0.2421874 0.132813,-0.2421874 0.242187,-0.1328125 -0.242187,-0.1328125 z M 9.480469,6.9785178 C 7.960423,7.7418828 7.000699,9.2970888 7,10.998049 c 0.0039,1.689173 0.953543,3.233863 2.458984,4 H 3.5 v 0.25 H 5 v 0.25 H 3.5 v 0.25 H 6 v 0.25 H 4 v 0.25 h 3 v 0.25 H 5.5 v 0.25 H 9 v 0.25 H 8.5 v 0.25 h 5 v -0.25 H 13 v -0.25 h 3.5 v -0.25 H 15 v -0.25 h 3 v -0.25 h -1.5 v -0.25 h 2 v -0.25 H 17 v -0.25 h 1.5 v -0.25 H 13.539062 C 14.393082,14.565372 15.086854,13.8716 15.519531,13.01758 14.893,13.332942 14.201423,13.497475 13.5,13.498049 c -2.485281,0 -4.5,-2.014719 -4.5,-4.5000002 5.73e-4,-0.701423 0.165107,-1.393 0.480469,-2.019531 z m 4.77539,0.867187 -0.132812,0.242188 -0.242188,0.132812 0.242188,0.132813 0.132812,0.242187 0.13086,-0.242187 0.24414,-0.132813 -0.24414,-0.132812 z m -4.009765,0.423829 -0.177735,0.322265 -0.322265,0.177735 0.322265,0.177734 0.177735,0.322266 0.175781,-0.322266 0.324219,-0.177734 -0.324219,-0.177735 z m -4.046875,0.128906 -0.13086,0.242187 -0.24414,0.132813 0.24414,0.132812 0.13086,0.242188 0.132812,-0.242188 0.242188,-0.132812 -0.242188,-0.132813 z m 6.001953,0.976562 -0.13086,0.242188 -0.24414,0.132812 0.24414,0.132813 0.13086,0.2421872 0.132812,-0.2421872 0.242188,-0.132813 -0.242188,-0.132812 z M 15.25,9.9980488 14.984375,10.482424 14.5,10.748049 14.984375,11.013674 15.25,11.498049 15.515625,11.013674 16,10.748049 15.515625,10.482424 Z M 12.75,10.748049 12.572266,11.070315 12.25,11.248049 12.572266,11.425783 12.75,11.748049 12.927734,11.425783 13.25,11.248049 12.927734,11.070315 Z M 6.265625,12.513674 6,12.998049 5.515625,13.263674 6,13.529299 6.265625,14.013674 6.53125,13.529299 7.015625,13.263674 6.53125,12.998049 Z"
     style="fill:#000000;opacity:0.2"
     id="path741" />
  <path
     d="m 11,3.5000021 c -0.0824,-2.387e-4 -0.163583,0.019889 -0.236328,0.058594 0,0 -1.6303434,0.8760545 -3.263672,1.8183593 C 6.6833357,5.8481078 5.8665949,6.3358765 5.2421875,6.7441428 4.9299838,6.9482761 4.6667215,7.129916 4.4648438,7.292971 4.363905,7.374501 4.2792888,7.449981 4.2011719,7.537111 4.1230549,7.624241 4,7.695966 4,7.998049 v 6 H 5 V 8.156252 C 5.026849,8.130902 5.045221,8.111462 5.09375,8.072272 5.2473402,7.948214 5.4918924,7.774384 5.7890625,7.58008 6.3834027,7.191473 7.1916675,6.7104885 8,6.2441428 9.4984222,5.3796684 10.788342,4.6846019 11,4.5703146 c 0.211658,0.1142873 1.501577,0.8093538 3,1.6738282 0.808332,0.4663457 1.616598,0.9473302 2.210938,1.3359372 0.29717,0.194304 0.541722,0.368134 0.695312,0.492188 0.04853,0.0392 0.0669,0.05863 0.09375,0.08398 v 5.841797 h 1 v -6 C 18,7.695962 17.876945,7.624238 17.798828,7.537107 17.720708,7.449977 17.636095,7.374494 17.535156,7.292967 17.333278,7.129916 17.070017,6.9482761 16.757812,6.7441428 16.133405,6.3358765 15.316664,5.8481078 14.5,5.3769552 12.866672,4.4346504 11.236328,3.5585959 11.236328,3.5585959 11.163583,3.5198913 11.0824,3.4997634 11,3.5000021 Z m -0.244141,1.8710938 -0.132812,0.2421875 -0.242188,0.1328125 0.242188,0.1328125 0.132812,0.2421875 0.132813,-0.2421875 0.242187,-0.1328125 -0.242187,-0.1328125 z M 9.4804688,6.4785178 C 7.9604227,7.241883 7.0006987,8.797089 7,10.498049 c 0.00395,1.689173 0.9535429,3.233863 2.4589844,4 H 3.5 v 0.25 H 5 v 0.25 H 3.5 v 0.25 H 6 v 0.25 H 4 v 0.25 h 3 v 0.25 H 5.5 v 0.25 H 9 v 0.25 H 8.5 v 0.25 h 5 v -0.25 H 13 v -0.25 h 3.5 v -0.25 H 15 v -0.25 h 3 v -0.25 h -1.5 v -0.25 h 2 v -0.25 H 17 v -0.25 h 1.5 v -0.25 H 13.539062 C 14.393082,14.065372 15.086854,13.3716 15.519531,12.51758 14.893,12.832942 14.201423,12.997475 13.5,12.998049 c -2.485281,0 -4.5,-2.014719 -4.5,-4.5 5.735e-4,-0.701423 0.1651073,-1.393 0.4804688,-2.0195312 z m 4.7753902,0.8671872 -0.132812,0.242188 -0.242188,0.132812 0.242188,0.132813 0.132812,0.242187 0.13086,-0.242187 0.24414,-0.132813 -0.24414,-0.132812 z M 10.246094,7.769533 10.068359,8.091799 9.7460938,8.269533 10.068359,8.447268 10.246094,8.769533 10.421875,8.447268 10.746094,8.269533 10.421875,8.091799 Z M 6.1992188,7.898439 6.0683594,8.140627 5.8242188,8.273439 6.0683594,8.406252 6.1992188,8.648439 6.3320312,8.406252 6.5742188,8.273439 6.3320312,8.140627 Z m 6.0019532,0.976563 -0.13086,0.242187 -0.24414,0.132813 0.24414,0.132812 0.13086,0.242188 0.132812,-0.242188 0.242188,-0.132812 -0.242188,-0.132813 z M 15.25,9.498049 14.984375,9.982424 14.5,10.248049 14.984375,10.513674 15.25,10.998049 15.515625,10.513674 16,10.248049 15.515625,9.982424 Z m -2.5,0.75 -0.177734,0.322266 L 12.25,10.748049 12.572266,10.925783 12.75,11.248049 12.927734,10.925783 13.25,10.748049 12.927734,10.570315 Z M 6.265625,12.013674 6,12.498049 5.515625,12.763674 6,13.029299 6.265625,13.513674 6.53125,13.029299 7.015625,12.763674 6.53125,12.498049 Z"
     style="fill:#ffffff"
     id="path444" />
  <path
     id="path1040"
     style="opacity:0.1;fill:#ffffff;stroke-width:4;stroke-linecap:square"
     d="M 5.5,1.0000002 C 3.007005,1.0000002 1,3.0070051 1,5.5 V 6 C 1,3.5070051 3.007005,1.5000002 5.5,1.5000002 h 11 C 18.992996,1.5000002 21,3.5070051 21,6 V 5.5 C 21,3.0070051 18.992996,1.0000002 16.5,1.0000002 Z" />
</svg>
