<?xml version="1.0" encoding="UTF-8" standalone="no"?>
<!-- Created with Inkscape (http://www.inkscape.org/) -->

<svg
   width="22"
   height="22"
   viewBox="0 0 22 22"
   version="1.1"
   id="svg5"
   inkscape:version="1.3 (0e150ed6c4, 2023-07-21)"
   sodipodi:docname="lutris.svg"
   xmlns:inkscape="http://www.inkscape.org/namespaces/inkscape"
   xmlns:sodipodi="http://sodipodi.sourceforge.net/DTD/sodipodi-0.dtd"
   xmlns="http://www.w3.org/2000/svg"
   xmlns:svg="http://www.w3.org/2000/svg">
  <sodipodi:namedview
     id="namedview7"
     pagecolor="#ffffff"
     bordercolor="#000000"
     borderopacity="0.25"
     inkscape:showpageshadow="2"
     inkscape:pageopacity="0.0"
     inkscape:pagecheckerboard="0"
     inkscape:deskcolor="#d1d1d1"
     inkscape:document-units="px"
     showgrid="false"
     inkscape:zoom="36.5"
     inkscape:cx="11"
     inkscape:cy="11"
     inkscape:window-width="1850"
     inkscape:window-height="1011"
     inkscape:window-x="70"
     inkscape:window-y="32"
     inkscape:window-maximized="1"
     inkscape:current-layer="svg5" />
  <defs
     id="defs2" />
  <rect
     style="opacity:0.2;fill:#000000;stroke-width:1.42857;stroke-linecap:square"
     id="rect234"
     width="20"
     height="20"
     x="1"
     y="1.5"
     ry="4.5" />
  <rect
     style="fill:#efefef;fill-opacity:1;stroke-width:1.42857;stroke-linecap:square"
     id="rect396"
     width="20"
     height="20"
     x="1"
     y="1"
     ry="4.5" />
  <path
     style="opacity:0.2;fill:#000000;stroke-width:0.5"
     d="m 10.777995,4.500617 c -3.6620415,-0.0033 -6.679364,3.0124525 -6.775629,6.816643 -0.097909,3.864574 2.855333,7.079267 6.595848,7.180307 1.822317,0.04919 3.244924,-0.649809 4.492898,-1.826521 0.133253,-0.111177 0.205757,-0.180465 0.205757,-0.180465 0,0 1.353315,-1.420367 1.425944,-2.592813 -0.345315,0.570486 -0.662071,1.141684 -1.521644,1.564711 -0.394213,0.182606 -0.755543,0.337969 -1.119702,0.460732 -0.02332,0.0059 -0.04673,0.01144 -0.07041,0.01709 -0.172485,0.04117 -0.353264,0.07575 -0.542761,0.101852 -0.02296,0.0032 -0.04654,0.0059 -0.06973,0.0089 -0.196533,0.02493 -0.399461,0.04308 -0.609068,0.05195 -0.02158,9e-4 -0.04394,6.5e-4 -0.06562,0.0014 -0.206785,0.0071 -0.418275,0.0065 -0.632994,-0.0021 -0.01401,-5.5e-4 -0.02767,-6e-5 -0.0417,-7e-4 -0.218358,-0.0097 -0.190021,-0.02949 -0.411936,-0.05537 -0.03167,-0.0037 -0.06333,-0.0062 -0.09502,-0.01026 -0.216019,-0.02745 -0.431952,-0.06372 -0.646665,-0.106638 -0.03469,-0.0069 -0.06931,-0.01386 -0.103904,-0.02119 -0.210116,-0.04459 -0.418347,-0.09692 -0.62274,-0.15654 -0.06553,-0.01912 -0.130819,-0.0388 -0.195503,-0.05947 -0.04889,-0.01562 -0.09795,-0.03065 -0.146286,-0.04716 -0.06908,-0.0236 -0.136561,-0.0491 -0.20439,-0.07451 -0.05532,-0.02072 -0.111031,-0.04095 -0.165426,-0.06289 -0.06303,-0.02542 -0.124269,-0.05292 -0.185933,-0.07998 C 9.219121,15.404665 9.16603,15.382655 9.114842,15.358555 9.0034,15.306063 8.8938505,15.25118 8.788096,15.193116 8.703932,15.146561 8.6238325,15.097815 8.5474765,15.04683 8.3721235,14.929744 8.219081,14.800693 8.0819595,14.665394 7.368083,13.936889 7.4012265,13.080303 7.4387125,12.52511 c 0.04723,-0.697385 0.631909,-2.227464 2.5558995,-3.037822 1.188755,-0.419734 2.586821,-0.7132875 3.75558,-0.337004 0.879167,0.198365 1.511357,0.486808 2.347407,0.782013 0,0 -0.0068,0.01455 0.224214,0.07178 1.625947,0.257562 1.443434,-1.0819195 1.443434,-1.0819195 l -0.127443,-0.313464 v 0 c -0.02819,-0.165183 0.09553,-0.2954565 0.09553,-0.2954565 0,0 -0.100221,-0.369363 -0.08333,-0.6134695 0.01712,-0.243994 0.0033,-0.5567505 -0.0499,-1.0028095 C 17.546903,6.2508635 17.25412,5.873363 17.159199,5.804024 17.06406,5.7348105 16.620758,5.400613 16.196037,5.23392 15.771056,5.0672245 15.341534,4.944033 14.812474,5.0185925 c -0.05874,0.00831 -0.114344,0.01729 -0.172261,0.025975 -0.01025,-0.00325 -0.0183,-0.00697 -0.02939,-0.010255 C 14.409074,4.974399 14.266365,4.497609 14.101552,4.501558 c -0.01262,3.025e-4 -0.02537,0.0014 -0.03828,0.00275 -0.01271,0.00135 -0.0259,0.00305 -0.03896,0.00547 h -7e-4 c -0.01332,0.0025 -0.02656,0.00584 -0.04033,0.00957 -0.01503,0.0041 -0.02951,0.00942 -0.04306,0.01572 -0.09645,0.04484 -0.155537,0.5637425 -0.192071,0.6744325 -0.846233,-0.427737 -1.792423,-0.6790985 -2.795834,-0.706138 -0.05844,-0.0016 -0.116185,-0.0027 -0.174312,-0.00275 z m 3.728658,11.294081 c -0.124229,0.0463 -0.259079,0.08548 -0.397843,0.121678 0.138685,-0.03618 0.273698,-0.07541 0.397843,-0.121678 z"
     id="path1" />
  <path
     style="fill:#f8952b;stroke-width:0.5"
     d="M 11.749882,6.5002395 A 5.249882,5.249882 0 0 0 6.5,11.750121 a 5.249882,5.249882 0 0 0 5.249882,5.249881 5.249882,5.249882 0 0 0 5.249882,-5.249881 5.249882,5.249882 0 0 0 -5.249882,-5.2498815 z"
     id="path2" />
  <path
     style="fill:#946857;stroke-width:0.5"
     d="m 11.645,8.2607475 c 0.65031,0.1538755 0.720869,0.9826935 1.243966,1.1845355 0.698,0.28353 0.757526,-0.6040685 0.39715,-1.073413"
     id="path3" />
  <path
     style="opacity:0.2;fill:#000000;stroke-width:0.5"
     d="M 13.731488,6.506399 C 12.998986,6.505549 12.204883,6.7198655 11.624909,6.9215665 10.525048,7.310767 9.839255,7.6257385 8.9480805,8.262611 8.711771,8.434206 7.7831565,9.116036 7.2189195,10.066834 c -1.5592955,2.756814 -0.456009,5.684018 1.560422,6.349148 2.2169465,0.829091 4.3390445,1.068548 7.0082125,-1.290342 -0.229746,0.183868 0,0 -1.281078,0.667559 -1.509917,0.562718 -3.927414,0.381962 -5.718355,-0.601337 C 7.3473195,14.394868 7.491914,13.221365 7.539,12.52398 7.58623,11.826596 8.0709035,10.296256 9.994894,9.485898 c 1.188755,-0.419734 2.586572,-0.713267 3.755331,-0.336983 0.879168,0.198365 1.511111,0.557315 2.347162,0.85252 0,0 -0.0069,0.01433 0.224095,0.07156 C 17.947428,10.330525 18,8.8996215 18,8.8996215 l -0.04636,-0.260721 -0.141545,-0.353752 -0.06745,-0.151563 -0.04068,-0.082136 c 0,0 -0.01172,-0.103415 -0.02816,-0.2084915 -0.03114,0.392762 -0.18754,0.6060245 -0.18754,0.6060245 C 16.224524,8.2093835 15.99865,7.119799 14.666199,6.6624475 14.384583,6.551694 14.064443,6.506796 13.731488,6.506399 Z m 2.056066,8.619241 c 0.147194,-0.1178 0.218505,-0.198292 0.218527,-0.198238 -0.0731,0.0683 -0.145874,0.134031 -0.218527,0.198238 z"
     id="path4" />
  <path
     style="fill:#946857;stroke-width:0.5"
     d="m 10.777995,4.000311 c -3.6620415,-0.0033 -6.679364,3.012453 -6.775629,6.816643 -0.097909,3.864574 2.855333,7.079267 6.595848,7.180307 1.822317,0.04919 3.244924,-0.649809 4.492898,-1.826521 0.133253,-0.111177 0.205757,-0.180465 0.205757,-0.180465 0,0 1.353315,-1.420366 1.425944,-2.592813 -0.345315,0.570486 -0.662071,1.141684 -1.521644,1.564711 -0.394213,0.182607 -0.755543,0.33797 -1.119702,0.460732 -0.02332,0.0059 -0.04673,0.01144 -0.07041,0.01709 -0.172485,0.04117 -0.353264,0.07575 -0.542761,0.101853 -0.02296,0.0031 -0.04654,0.0059 -0.06973,0.0089 -0.196533,0.02492 -0.399461,0.04307 -0.609068,0.05195 -0.02158,9e-4 -0.04394,6.5e-4 -0.06562,0.0013 -0.206785,0.0071 -0.418275,0.0065 -0.632994,-0.0021 -0.01401,-5.49e-4 -0.02767,-6e-5 -0.0417,-6.99e-4 -0.218358,-0.0097 -0.190021,-0.02949 -0.411936,-0.05537 -0.03167,-0.0037 -0.06333,-0.0062 -0.09502,-0.01026 -0.216019,-0.02745 -0.431952,-0.06372 -0.646665,-0.106638 -0.03469,-0.0069 -0.06931,-0.01385 -0.103904,-0.02119 -0.210116,-0.04459 -0.418347,-0.09692 -0.62274,-0.156539 -0.06553,-0.01911 -0.130819,-0.0388 -0.195503,-0.05947 -0.04889,-0.01562 -0.09795,-0.03065 -0.146286,-0.04716 -0.06908,-0.0236 -0.136561,-0.0491 -0.20439,-0.07451 -0.05532,-0.02073 -0.111031,-0.04095 -0.165426,-0.06289 -0.06303,-0.02542 -0.124269,-0.05292 -0.185933,-0.07998 C 9.219121,14.904262 9.16603,14.882252 9.114842,14.858152 9.0034,14.805758 8.8938505,14.750874 8.788096,14.692811 8.703932,14.646256 8.6238325,14.59751 8.5474765,14.546525 8.3721235,14.429438 8.219081,14.300388 8.0819595,14.165088 7.368083,13.436584 7.401227,12.579998 7.4387125,12.024804 7.4859425,11.32742 8.0706215,9.797341 9.994612,8.986982 c 1.188755,-0.419734 2.586821,-0.7132875 3.75558,-0.337004 0.879167,0.1983655 1.511357,0.486808 2.347407,0.782014 0,0 -0.0068,0.01455 0.224214,0.07178 1.625947,0.257561 1.443434,-1.0819205 1.443434,-1.0819205 l -0.127443,-0.313464 v 0 c -0.02819,-0.1651825 0.09553,-0.295456 0.09553,-0.295456 0,0 -0.100221,-0.369363 -0.08333,-0.61347 0.01712,-0.243994 0.0033,-0.55675 -0.0499,-1.002809 -0.0532,-0.446091 -0.345988,-0.823591 -0.44091,-0.89293 C 17.06406,5.2345045 16.620758,4.900307 16.196037,4.733614 15.771055,4.566919 15.341534,4.443727 14.812474,4.518287 c -0.05874,0.00831 -0.114344,0.01729 -0.172261,0.025975 -0.01025,-0.00325 -0.0183,-0.00697 -0.02939,-0.010255 -0.201744,-0.059913 -0.344453,-0.5367035 -0.509266,-0.532755 -0.01262,3.025e-4 -0.02537,0.0014 -0.03828,0.00275 -0.01271,0.00135 -0.0259,0.00305 -0.03896,0.00547 h -7e-4 c -0.01332,0.0025 -0.02656,0.00584 -0.04033,0.00957 -0.01503,0.0041 -0.02951,0.00942 -0.04306,0.015725 -0.09645,0.04484 -0.155537,0.563743 -0.192071,0.6744325 -0.846233,-0.427737 -1.792423,-0.679098 -2.795834,-0.706138 -0.05844,-0.0016 -0.116185,-0.0027 -0.174312,-0.00275 z m 3.728658,11.294081 c -0.124229,0.0463 -0.259079,0.08548 -0.397843,0.121678 0.138685,-0.03618 0.273698,-0.07541 0.397843,-0.121678 z"
     id="path5" />
  <path
     style="opacity:0.2;fill:#ffffff;stroke-width:0.5"
     d="m 10.778321,4.0000025 c -3.6620415,-0.0033 -6.6801025,3.0131925 -6.776368,6.8173835 -0.0032,0.126531 0.00553,0.249948 0.00879,0.375 0.159009,-3.7444205 3.146161,-6.694654 6.767579,-6.6914065 0.05813,5.5e-5 0.115384,3.73e-4 0.173828,0.00195 1.003411,0.02704 1.949665,0.279294 2.795898,0.707031 0.03653,-0.11069 0.09593,-0.6299665 0.192383,-0.6748045 0.01356,-0.0063 0.02794,-0.011545 0.04297,-0.015625 0.01376,-0.00375 0.02672,-0.00728 0.04004,-0.00976 h 10e-4 c 0.01307,-0.00245 0.02635,-0.00455 0.03907,-0.00586 0.01291,-0.00135 0.02547,-0.00165 0.03809,-0.00195 0.164813,-0.00395 0.307045,0.472313 0.508789,0.5322265 0.0111,0.0033 0.02002,0.00748 0.03028,0.01074 0.05792,-0.00868 0.113132,-0.01806 0.171875,-0.026365 0.52906,-0.07456 0.958808,0.049125 1.383788,0.21582 0.424722,0.1666935 0.867752,0.500122 0.962891,0.569336 0.09492,0.069339 0.388201,0.447464 0.441406,0.893555 0.0532,0.446059 0.06692,0.7589355 0.0498,1.0029295 -0.005,0.072076 9e-4,0.153191 0.01074,0.234375 0.02951,-0.072525 0.07224,-0.1220705 0.07224,-0.1220705 0,0 -0.0999,-0.3691745 -0.08301,-0.613281 C 17.66752,6.9552325 17.6538,6.642356 17.6006,6.196297 17.547381,5.750201 17.254102,5.3730525 17.15918,5.3037135 17.064041,5.2344995 16.62101,4.9000945 16.196289,4.733401 15.771308,4.566706 15.34156,4.4439975 14.8125,4.5185575 c -0.05874,0.00831 -0.113958,0.016705 -0.171875,0.02539 -0.01026,-0.00325 -0.01918,-0.00648 -0.03027,-0.00976 -0.201743,-0.059914 -0.343976,-0.537152 -0.508789,-0.5332035 -0.01262,3.025e-4 -0.02518,0.00155 -0.03809,0.00295 -0.01271,0.00135 -0.02599,0.0034 -0.03906,0.00586 h -0.001 c -0.01332,0.0025 -0.02628,0.00506 -0.04004,0.00879 -0.01503,0.0041 -0.02942,0.0103 -0.04297,0.0166 -0.09643,0.04483 -0.155826,0.563133 -0.192359,0.673823 C 12.901813,4.28127 11.95556,4.029992 10.952149,4.0029525 c -0.05844,-0.0016 -0.115701,-0.0029 -0.173828,-0.00295 z m 6.947265,4.324219 c -0.01374,0.015205 -0.114282,0.129539 -0.08789,0.2841795 l 0.0957,0.234375 c 0.05706,-0.2263895 0.03223,-0.4208985 0.03223,-0.4208985 z"
     id="path6" />
  <path
     style="fill:#d3c9c6;stroke-width:0.5"
     d="M 13.731488,6.007419 C 12.998986,6.006569 12.204883,6.2208855 11.624909,6.4225865 10.525048,6.811787 9.839255,7.1267585 8.9480805,7.7636315 8.711771,7.935226 7.7831565,8.617056 7.2189195,9.567854 c -1.5592955,2.756814 -0.456009,5.684018 1.560422,6.349148 2.2169465,0.829091 4.3390445,1.068548 7.0082125,-1.290342 -0.229746,0.183868 0,0 -1.281078,0.667559 -1.509917,0.562718 -3.927414,0.381962 -5.718355,-0.601337 C 7.3473195,13.895888 7.491914,12.722385 7.539,12.025 7.58623,11.327616 8.0709035,9.797276 9.994894,8.986918 c 1.188755,-0.419734 2.586572,-0.713267 3.755331,-0.336983 0.879168,0.198365 1.511111,0.557315 2.347162,0.85252 0,0 -0.0069,0.01433 0.224095,0.07156 C 17.947428,9.831545 18,8.4006415 18,8.4006415 L 17.95364,8.1399205 17.812095,7.7861685 17.744645,7.634606 17.703965,7.55247 c 0,0 -0.01172,-0.103415 -0.02816,-0.2084915 -0.03114,0.392762 -0.18754,0.6060245 -0.18754,0.6060245 C 16.224524,7.7104035 15.99865,6.620819 14.666199,6.1634675 14.384583,6.052714 14.064443,6.007816 13.731488,6.007419 Z m 2.056066,8.619242 c 0.147194,-0.117801 0.218505,-0.198293 0.218527,-0.198238 -0.0731,0.0683 -0.145874,0.134031 -0.218527,0.198238 z"
     id="path7" />
  <path
     style="fill:#946857;stroke-width:0.5"
     d="m 7.0090845,9.554125 -0.00758,0.06245 c 0.508503,-0.02576 1.131732,0.08442 1.594039,0.408679 0.358423,0.241972 0.6812985,0.603086 1.1408485,0.439713 0.31418,-0.110183 0.331638,-0.296762 0.211206,-0.603563 C 9.845892,9.611952 9.677779,9.18119 9.469896,9.016036 9.170425,8.7790495 8.396236,8.861805 8.3573945,8.3662215 8.3282045,8.131965 8.475758,7.9557685 8.6066475,7.7850325 c -2.415e-4,0 -1.4991945,0.376853 -1.597563,1.7690925 z"
     id="path8" />
  <path
     id="path1040"
     style="opacity:0.2;fill:#ffffff;stroke-width:4;stroke-linecap:square"
     d="M 5.5,1 C 3.0070049,1 1,3.0070048 1,5.5 V 6 C 1,3.5070048 3.0070049,1.5 5.5,1.5 h 11 C 18.992996,1.5 21,3.5070048 21,6 V 5.5 C 21,3.0070048 18.992996,1 16.5,1 Z" />
</svg>
