<?xml version="1.0" encoding="UTF-8" standalone="no"?>
<!-- Created with Inkscape (http://www.inkscape.org/) -->

<svg
   width="22"
   height="22"
   viewBox="0 0 22 22"
   version="1.1"
   id="svg5"
   inkscape:version="1.3.2 (091e20ef0f, 2023-11-25, custom)"
   sodipodi:docname="mcpelauncher-ui-qt.svg"
   xmlns:inkscape="http://www.inkscape.org/namespaces/inkscape"
   xmlns:sodipodi="http://sodipodi.sourceforge.net/DTD/sodipodi-0.dtd"
   xmlns="http://www.w3.org/2000/svg"
   xmlns:svg="http://www.w3.org/2000/svg">
  <sodipodi:namedview
     id="namedview7"
     pagecolor="#ffffff"
     bordercolor="#000000"
     borderopacity="0.25"
     inkscape:showpageshadow="2"
     inkscape:pageopacity="0.0"
     inkscape:pagecheckerboard="0"
     inkscape:deskcolor="#d1d1d1"
     inkscape:document-units="px"
     showgrid="false"
     inkscape:zoom="37.363636"
     inkscape:cx="11"
     inkscape:cy="11"
     inkscape:window-width="1920"
     inkscape:window-height="1008"
     inkscape:window-x="0"
     inkscape:window-y="0"
     inkscape:window-maximized="1"
     inkscape:current-layer="svg5" />
  <defs
     id="defs2" />
  <rect
     style="opacity:0.2;fill:#000000;stroke-width:1.42857;stroke-linecap:square"
     id="rect234"
     width="20"
     height="20"
     x="1"
     y="1.5"
     ry="4.5" />
  <rect
     style="fill:#efefef;fill-opacity:1;stroke-width:1.42857;stroke-linecap:square"
     id="rect396"
     width="20"
     height="20"
     x="1"
     y="1"
     ry="4.5" />
  <path
     style="opacity:0.2;fill:#000000;stroke-width:0.5099"
     d="m 10.538594,4.4994515 v 9.5e-4 A 1.6487163,1.5917595 0 0 0 9.675312,4.712317 L 4.8246875,7.416418 A 1.6487163,1.5917595 0 0 0 4.489531,7.67035 C 4.178366,7.967864 4.0013225,8.371851 4,8.79535 v 0.866211 4.541992 a 1.6487163,1.5917595 0 0 0 0.8246875,1.377929 l 4.8506245,2.705079 a 1.6487163,1.5917595 0 0 0 1.649376,0 l 4.850624,-2.705079 A 1.6487163,1.5917595 0 0 0 17,14.203553 V 9.661561 8.79535 C 16.999939,8.680552 16.98642,8.566919 16.9614,8.456483 A 1.6487163,1.5917595 0 0 0 16.9563,8.436953 C 16.93146,8.333556 16.89608,8.233426 16.850675,8.137148 a 1.6487163,1.5917595 0 0 0 -0.01625,-0.03223 c -0.02424,-0.04848 -0.05098,-0.09564 -0.08023,-0.141602 l 0.0021,-10e-4 a 1.6487163,1.5917595 0 0 0 -0.01422,-0.0166 c -0.02359,-0.03599 -0.04855,-0.0713 -0.07516,-0.105468 a 1.6487163,1.5917595 0 0 0 -0.01016,-0.01563 h -0.0021 C 16.609895,7.768548 16.562125,7.714771 16.509436,7.664457 A 1.6487163,1.5917595 0 0 0 16.175312,7.416444 L 11.324688,4.712342 A 1.6487163,1.5917595 0 0 0 10.538594,4.4994515 Z"
     id="path1" />
  <path
     style="fill:#474747;stroke-width:0.5099"
     d="M 4.3597005,7.324989 A 1.6487163,1.5917595 0 0 0 4,8.295689 v 5.408574 a 1.6487163,1.5917595 0 0 0 0.82449,1.378121 l 4.85102,2.704287 a 1.6487163,1.5917595 0 0 0 1.64898,0 l 4.85102,-2.704287 A 1.6487163,1.5917595 0 0 0 17,13.704263 V 8.295689 a 1.6487163,1.5917595 0 0 0 -0.342774,-0.9707 z"
     id="path2" />
  <path
     style="fill:#545454;stroke-width:0.5099"
     d="M 4.248264,7.465125 A 1.6487163,1.5917595 0 0 0 4,8.295689 v 5.408574 a 1.6487163,1.5917595 0 0 0 0.82449,1.378121 l 4.85102,2.704287 A 1.6487163,1.5917595 0 0 0 10.5,17.999952 v -6.999976 z"
     id="path3" />
  <path
     style="fill:#3d3d3d;stroke-width:0.5099"
     d="m 10.500001,14.674962 1.56,-0.848921 v 0.918747 l -1.56,0.848921 z"
     id="path4" />
  <path
     style="fill:#323232;stroke-width:0.5099"
     d="m 14.92,12.378096 1.56,-0.94897 v 0.918747 l -1.56,0.948969 z"
     id="path5" />
  <path
     style="fill:#363636;stroke-width:0.5099"
     d="m 11.28,15.823395 1.56,-0.848658 v 0.918747 l -1.56,0.848659 z"
     id="path6" />
  <path
     style="fill:#3e3e3e;stroke-width:0.5099"
     d="m 14.92,14.445276 1.56,-0.87865 v 0.918748 l -1.56,0.878648 z"
     id="path7" />
  <path
     style="fill:#393939;stroke-width:0.5099"
     d="m 13.36,12.837469 2.6,-1.478342 v 0.918747 l -2.6,1.478341 z"
     id="path8" />
  <path
     style="fill:#4b4b4b;stroke-width:0.5099"
     d="m 9.72,14.250589 0.78,0.424373 v 0.918747 L 9.72,15.169336 Z"
     id="path9" />
  <path
     style="fill:#4b4b4b;stroke-width:0.5099"
     d="m 7.12,15.134336 1.56,0.778748 v 0.918747 L 7.12,16.053083 Z"
     id="path10" />
  <path
     style="fill:#424242;stroke-width:0.5099"
     d="m 6.08,12.837469 1.56,0.883572 v 0.918748 L 6.08,13.756215 Z"
     id="path11" />
  <path
     style="fill:#494949;stroke-width:0.5099"
     d="m 5.04,11.689035 1.56,0.813661 v 0.918746 l -1.56,-0.81366 z"
     id="path12" />
  <path
     style="fill:#4b4b4b;stroke-width:0.5099"
     d="m 4,12.837469 1.04,0.68906 v 0.918747 L 4,13.756215 Z"
     id="path13" />
  <path
     style="fill:#3b3b3b;stroke-width:0.5099"
     d="m 4,10.281067 0.52,0.27956 v 0.918746 L 4,11.199813 Z"
     id="path14" />
  <path
     style="fill:#3c3c3c;stroke-width:0.5099"
     d="m 12.32,15.044563 1.56,-0.848573 v 0.918747 l -1.559999,0.848572 z"
     id="path15" />
  <path
     style="opacity:0.2;fill:#000000;stroke-width:0.5099"
     d="M 16.495234,7.650305 10.5,11.04093 4.506797,7.652258 C 4.184071,7.951278 4.0013485,8.363967 4,8.795813 v 0.866211 l 0.52,0.30957 v 0.748047 l 2.08,1.175781 v -0.769531 l 0.52,0.274414 v 0.789062 l 1.56,0.881836 v -0.807617 l 0.52,0.324219 v 0.777343 l 1.3,0.735352 0.78,-0.441407 v -0.810546 l 1.56,-0.889648 v 0.818359 l 1.04,-0.587891 v -0.789062 l 0.525079,-0.294922 -0.0091,0.791992 L 16.48,10.719641 V 9.971594 L 17,9.662024 V 8.795813 C 16.999773,8.363893 16.817275,7.950115 16.495234,7.650305 Z"
     id="path16" />
  <path
     style="fill:#638f01;stroke-width:0.5099"
     d="M 16.495234,7.150391 10.5,10.541016 v 2.296875 0.762695 l 0.78,-0.441407 v -0.810546 l 1.56,-0.889648 v 0.818359 l 1.04,-0.587891 v -0.789062 l 0.525078,-0.294922 -0.0091,0.791992 L 16.48,10.219727 V 9.47168 L 17,9.16211 V 8.295899 C 16.999773,7.863979 16.817275,7.4502 16.495234,7.150391 Z"
     id="path17" />
  <path
     style="fill:#74a011;stroke-width:0.5099"
     d="M 4.506797,7.152344 C 4.184071,7.451363 4.0013485,7.864053 4,8.295899 V 9.16211 l 0.52,0.30957 v 0.748047 l 2.08,1.175781 v -0.769531 l 0.52,0.274414 v 0.789062 l 1.56,0.881836 v -0.807617 l 0.52,0.324219 v 0.777344 l 1.3,0.735351 v -3.05957 z"
     id="path18" />
  <path
     style="fill:#8ec115;stroke-width:0.5099"
     d="m 10.538792,4 v 7e-4 A 1.6487163,1.5917595 0 0 0 9.67551,4.212612 L 4.82449,6.9169 A 1.6487163,1.5917595 0 0 0 4.248264,7.465125 L 10.5,10.999976 16.755967,7.463074 A 1.6487163,1.5917595 0 0 0 16.17551,6.916885 L 11.32449,4.212597 A 1.6487163,1.5917595 0 0 0 10.538792,4 Z"
     id="path19" />
  <path
     style="opacity:0.2;fill:#ffffff;stroke-width:0.5099"
     d="M 10.538594,4 V 4.001 A 1.6487163,1.5917595 0 0 0 9.675312,4.2129155 L 4.8246875,6.917018 A 1.6487163,1.5917595 0 0 0 4.489531,7.170924 C 4.178366,7.468438 4.0013225,7.872424 4,8.295924 V 8.794947 C 4.0013,8.371448 4.178366,7.967462 4.489531,7.669947 A 1.6487163,1.5917595 0 0 1 4.8246875,7.416041 L 9.675312,4.711939 A 1.6487163,1.5917595 0 0 1 10.538594,4.5 V 4.499 a 1.6487163,1.5917595 0 0 1 0.786094,0.2128905 l 4.850624,2.7041015 a 1.6487163,1.5917595 0 0 1 0.334141,0.248047 c 0.05269,0.05031 0.10047,0.104087 0.145235,0.160156 h 0.0021 a 1.6487163,1.5917595 0 0 1 0.01016,0.01563 c 0.02661,0.03417 0.05156,0.06948 0.07516,0.105469 a 1.6487163,1.5917595 0 0 1 0.01422,0.0166 l -0.0021,0.001 c 0.02926,0.04596 0.056,0.09312 0.08024,0.141601 a 1.6487163,1.5917595 0 0 1 0.01625,0.03223 c 0.0454,0.09628 0.08078,0.196408 0.105625,0.299805 a 1.6487163,1.5917595 0 0 1 0.0051,0.01953 c 0.02501,0.110436 0.03853,0.224069 0.0386,0.338867 v -0.49902 c -6.4e-5,-0.114799 -0.01358,-0.228432 -0.0386,-0.338867 a 1.6487163,1.5917595 0 0 0 -0.0051,-0.01953 C 16.931503,7.834113 16.896123,7.733984 16.850718,7.637706 a 1.6487163,1.5917595 0 0 0 -0.01625,-0.03223 c -0.02424,-0.04848 -0.05098,-0.09563 -0.08024,-0.141601 l 0.0021,-10e-4 a 1.6487163,1.5917595 0 0 0 -0.01422,-0.0166 c -0.0236,-0.03598 -0.04855,-0.0713 -0.07516,-0.105469 a 1.6487163,1.5917595 0 0 0 -0.01016,-0.01563 h -0.0021 C 16.609908,7.269106 16.562138,7.215332 16.509453,7.165018 A 1.6487163,1.5917595 0 0 0 16.175312,6.916992 L 11.324688,4.2128905 A 1.6487163,1.5917595 0 0 0 10.538594,4 Z"
     id="path20" />
  <path
     id="path1040"
     style="opacity:0.2;fill:#ffffff;stroke-width:4;stroke-linecap:square"
     d="M 5.5,1 C 3.0070049,1 1,3.0070048 1,5.5 V 6 C 1,3.5070048 3.0070049,1.5 5.5,1.5 h 11 C 18.992996,1.5 21,3.5070048 21,6 V 5.5 C 21,3.0070048 18.992996,1 16.5,1 Z" />
</svg>
