<?xml version="1.0" encoding="UTF-8" standalone="no"?>
<!-- Created with Inkscape (http://www.inkscape.org/) -->

<svg
   width="22"
   height="22"
   viewBox="0 0 22 22"
   version="1.1"
   id="svg5"
   inkscape:version="1.2.2 (1:1.2.2+202305151914+b0a8486541)"
   sodipodi:docname="ms-excel.svg"
   xmlns:inkscape="http://www.inkscape.org/namespaces/inkscape"
   xmlns:sodipodi="http://sodipodi.sourceforge.net/DTD/sodipodi-0.dtd"
   xmlns="http://www.w3.org/2000/svg"
   xmlns:svg="http://www.w3.org/2000/svg">
  <sodipodi:namedview
     id="namedview7"
     pagecolor="#ffffff"
     bordercolor="#000000"
     borderopacity="0.25"
     inkscape:showpageshadow="2"
     inkscape:pageopacity="0.0"
     inkscape:pagecheckerboard="0"
     inkscape:deskcolor="#d1d1d1"
     inkscape:document-units="px"
     showgrid="false"
     inkscape:zoom="36.636364"
     inkscape:cx="11"
     inkscape:cy="11"
     inkscape:window-width="1920"
     inkscape:window-height="1008"
     inkscape:window-x="0"
     inkscape:window-y="0"
     inkscape:window-maximized="1"
     inkscape:current-layer="svg5" />
  <defs
     id="defs2" />
  <rect
     style="opacity:0.2;fill:#000000;stroke-width:1.42857;stroke-linecap:square"
     id="rect234"
     width="20"
     height="20"
     x="1"
     y="1.5"
     ry="4.5" />
  <rect
     style="fill:#efefef;fill-opacity:1;stroke-width:1.42857;stroke-linecap:square"
     id="rect396"
     width="20"
     height="20"
     x="1"
     y="1"
     ry="4.5" />
  <rect
     style="opacity:0.2;fill:#000000;fill-opacity:1;stroke-width:2;stroke-linecap:square"
     id="rect2906"
     width="10"
     height="12"
     x="7"
     y="5.4999995"
     ry="0.99999964" />
  <path
     d="M 8.0000004,5 H 16 c 0.554,0 1,0.446001 1,1 V 9.0000004 L 12,11 7.0000004,9.0000004 V 6 c 0,-0.553999 0.446,-1 1,-1 z"
     style="fill:#33c481;fill-opacity:1;stroke-width:2;stroke-linecap:square"
     id="path1933" />
  <path
     d="M 7.0000004,8 H 12 l 4.999996,3.000001 4e-6,3 L 12,14 7.0000004,11.000001 Z"
     style="fill:#107c41;fill-opacity:1;stroke-width:1.92154;stroke-linecap:square"
     id="path2238" />
  <path
     id="path2072"
     style="fill:#21a366;fill-opacity:1;stroke-width:1.92154;stroke-linecap:square"
     d="m 8.0000004,5 c -0.552284,0 -1,0.447715 -1,1 V 8 H 12 V 5 Z M 12,8 v 3 h 4.999996 V 8 Z" />
  <path
     d="m 17,14 v 2 c 0,0.554 -0.446,1 -1,1 H 8.0000004 c -0.554,0 -1,-0.446 -1,-1 V 11 L 12.000002,11.000201 12,14 Z"
     style="fill:#185c37;fill-opacity:1;stroke-width:2;stroke-linecap:square"
     id="path2597" />
  <path
     id="path1961"
     style="opacity:0.2;fill:#ffffff;stroke-width:2;stroke-linecap:square"
     d="m 8.0000004,5.000002 c -0.554,0 -1,0.446 -1,1 V 6.5 c 0,-0.554 0.446,-1 1,-1 h 8.0000036 c 0.554,0 1,0.446 1,1 V 6.000002 c 0,-0.554 -0.446,-1 -1,-1 z" />
  <path
     d="M 7.0000004,8 V 8.5 H 12.000004 V 8 Z m 0,3.000201 V 11.5 H 17 V 11.000201 Z M 12,14 v 0.5 h 5 V 14 Z"
     style="opacity:0.2;fill:#000000;fill-opacity:1;stroke-width:2;stroke-linecap:square"
     id="path2886" />
  <rect
     style="opacity:0.2;fill:#000000;stroke-width:2;stroke-linecap:square"
     id="rect1099"
     width="7"
     height="7"
     x="4"
     y="8.5000019"
     ry="1" />
  <rect
     style="fill:#0d7239;fill-opacity:1;stroke-width:1.5;stroke-linecap:square"
     id="rect1101"
     width="7"
     height="7"
     x="4"
     y="8"
     ry="1" />
  <path
     d="M 5.3200583,14 6.9379153,11.492857 5.4560584,9 H 6.6485581 L 7.6108439,10.931429 8.6534154,9 H 9.7482731 L 8.2280582,11.479286 9.7866281,14 H 8.6220582 L 7.5620581,12.015714 6.4916296,14 Z"
     style="fill:#ffffff;stroke-width:0.714287"
     id="path2596" />
  <path
     id="path1040"
     style="opacity:0.2;fill:#ffffff;stroke-width:4;stroke-linecap:square"
     d="M 5.5,1 C 3.007005,1 1,3.007005 1,5.5 V 6 C 1,3.507005 3.007005,1.5 5.5,1.5 h 11 C 18.992996,1.5 21,3.507005 21,6 V 5.5 C 21,3.007005 18.992996,1 16.5,1 Z" />
</svg>
