<?xml version="1.0" encoding="UTF-8" standalone="no"?>
<!-- Created with Inkscape (http://www.inkscape.org/) -->

<svg
   width="22"
   height="22"
   viewBox="0 0 22 22"
   version="1.1"
   id="svg5"
   inkscape:version="1.2.2 (1:1.2.2+202305151914+b0a8486541)"
   sodipodi:docname="ms-onedrive.svg"
   xmlns:inkscape="http://www.inkscape.org/namespaces/inkscape"
   xmlns:sodipodi="http://sodipodi.sourceforge.net/DTD/sodipodi-0.dtd"
   xmlns="http://www.w3.org/2000/svg"
   xmlns:svg="http://www.w3.org/2000/svg">
  <sodipodi:namedview
     id="namedview7"
     pagecolor="#ffffff"
     bordercolor="#000000"
     borderopacity="0.25"
     inkscape:showpageshadow="2"
     inkscape:pageopacity="0.0"
     inkscape:pagecheckerboard="0"
     inkscape:deskcolor="#d1d1d1"
     inkscape:document-units="px"
     showgrid="false"
     inkscape:zoom="36.636364"
     inkscape:cx="10.986352"
     inkscape:cy="11"
     inkscape:window-width="1920"
     inkscape:window-height="1008"
     inkscape:window-x="0"
     inkscape:window-y="0"
     inkscape:window-maximized="1"
     inkscape:current-layer="svg5" />
  <defs
     id="defs2" />
  <rect
     style="opacity:0.2;fill:#000000;stroke-width:1.42857;stroke-linecap:square"
     id="rect234"
     width="20"
     height="20"
     x="1"
     y="1.5"
     ry="4.5" />
  <rect
     style="fill:#efefef;fill-opacity:1;stroke-width:1.42857;stroke-linecap:square"
     id="rect396"
     width="20"
     height="20"
     x="1"
     y="1"
     ry="4.5" />
  <path
     d="M 11,6.5 C 9.49145,6.502 8.08414,7.25933 7.25195,8.51758 5.42319,8.64751 4.0046,10.16664 4,12 c 0,1.933 1.567,3.5 3.5,3.5 H 15 c 1.65685,0 3,-1.34315 3,-3 9e-5,-1.56226 -1.19878,-2.86309 -2.75586,-2.99023 C 14.61158,7.70744 12.91011,6.50082 11,6.5 Z"
     style="opacity:0.2;fill:#000000;fill-opacity:1;stroke-width:3.12734;stroke-linecap:round;stroke-linejoin:round"
     id="path6665"
     sodipodi:nodetypes="cccccccc" />
  <circle
     style="fill:#056ab6;fill-opacity:1;stroke-width:3.12734;stroke-linecap:round;stroke-linejoin:round"
     id="path5759"
     cx="11"
     cy="10.5"
     r="4.5" />
  <path
     id="path7230"
     style="fill:#1581d9;fill-opacity:1;stroke-width:2.43238;stroke-linecap:round;stroke-linejoin:round"
     d="M 7.5,8 C 7.4175,8 7.33695,8.006 7.25586,8.0117 c -0.001,0.002 -0.003,0.004 -0.004,0.006 -0.91438,0.065 -1.72673,0.47637 -2.31054,1.10156 -0.29191,0.3126 -0.52724,0.67977 -0.68946,1.08203 -0.04,0.0992 -0.0745,0.20127 -0.10547,0.30469 -0.003,0.008 -0.005,0.0169 -0.008,0.0254 C 4.07929,10.73454 4.03869,10.9441 4.0173,11.16029 4.0062,11.27215 4,11.38555 3.9997,11.50013 c 1.8e-4,0.0768 0.003,0.15258 0.008,0.22852 2.2e-4,0.003 -2.3e-4,0.007 0,0.01 0.005,0.0713 0.0122,0.1425 0.0215,0.21289 9.5e-4,0.007 0.003,0.0143 0.004,0.0215 0.0523,0.37719 0.16565,0.74096 0.33203,1.07617 0.30211,0.60864 0.77969,1.12601 1.38868,1.47656 l -0.002,0.004 c 0.027,0.0156 0.0526,0.0339 0.0801,0.0488 C 6.32796,14.84753 6.89594,15 7.5,15 H 15 c 1.17527,0 2.18948,-0.67789 2.68164,-1.66211 L 9.29883,8.49805 9.25003,8.46875 v 0.002 C 8.71814,8.16294 8.11457,8.00059 7.50003,8.00005 Z"
     sodipodi:nodetypes="sccssssscssscscccssccccs" />
  <path
     id="path7418"
     style="opacity:0.1;fill:#ffffff;fill-opacity:1;stroke-width:5;stroke-linecap:round;stroke-linejoin:round"
     d="M 11,6 A 4.5,4.5 0 0 0 6.5,10.5 4.5,4.5 0 0 0 6.5176,10.75 4.5,4.5 0 0 1 11,6.5 4.5,4.5 0 0 1 15.48633,10.68164 4.5,4.5 0 0 0 15.5,10.5 4.5,4.5 0 0 0 11,6 Z" />
  <path
     id="path6739"
     style="fill:#138fe6;fill-opacity:1;stroke-width:5;stroke-linecap:round;stroke-linejoin:round"
     d="m 15,9 c -0.52585,0.003 -1.04179,0.14336 -1.49609,0.4082 l -0.004,-0.006 -8.22656,4.75 0.0488,0.0859 C 5.9201,14.71439 6.67634,15 7.5,15 H 15 c 0.51621,0 1.00161,-0.12975 1.42578,-0.35938 l 0.004,-0.002 c 0.005,-0.002 0.009,-0.005 0.0137,-0.008 0.0195,-0.0107 0.0374,-0.024 0.0566,-0.0352 l -0.004,-0.004 c 0.54848,-0.31526 0.98326,-0.79584 1.24219,-1.37305 0.17161,-0.38344 0.26077,-0.79866 0.26172,-1.21875 0,-0.0825 -0.005,-0.16326 -0.0117,-0.24414 -0.002,-0.03 -0.005,-0.0599 -0.008,-0.0898 -0.008,-0.0675 -0.0174,-0.13507 -0.0293,-0.20118 -0.002,-0.0124 -0.004,-0.0247 -0.006,-0.0371 -0.001,-0.005 -0.003,-0.0103 -0.004,-0.0156 -0.0148,-0.0746 -0.0325,-0.14815 -0.0527,-0.2207 -0.001,-0.003 -0.003,-0.007 -0.004,-0.01 -0.0127,-0.0433 -0.0264,-0.0863 -0.041,-0.12891 -0.006,-0.0188 -0.011,-0.038 -0.0176,-0.0566 -0.003,-0.008 -0.006,-0.0169 -0.01,-0.0254 -0.0159,-0.044 -0.0328,-0.0876 -0.0508,-0.13086 -0.0285,-0.0678 -0.0586,-0.13399 -0.0918,-0.19922 -0.0346,-0.0678 -0.0719,-0.13445 -0.11133,-0.19921 -0.001,-0.002 -0.003,-0.004 -0.004,-0.006 -0.0208,-0.0336 -0.0423,-0.0668 -0.0644,-0.0996 -0.0242,-0.0363 -0.0485,-0.0723 -0.0742,-0.10742 -0.026,-0.0344 -0.0527,-0.0683 -0.0801,-0.10157 -0.005,-0.006 -0.009,-0.0134 -0.0137,-0.0195 -0.0389,-0.0481 -0.0793,-0.095 -0.12109,-0.14062 -0.004,-0.004 -0.008,-0.009 -0.0117,-0.0137 -0.0514,-0.0547 -0.10481,-0.10749 -0.16016,-0.1582 -0.0332,-0.0301 -0.0671,-0.0594 -0.10156,-0.0879 -0.0131,-0.011 -0.0258,-0.0224 -0.0391,-0.0332 -0.009,-0.007 -0.0182,-0.0144 -0.0274,-0.0215 -0.0339,-0.0268 -0.0684,-0.0528 -0.10351,-0.0781 -0.0391,-0.0284 -0.0787,-0.0555 -0.11914,-0.082 -0.0277,-0.0187 -0.0557,-0.0369 -0.084,-0.0547 -0.0194,-0.0113 -0.0389,-0.0224 -0.0586,-0.0332 -0.0462,-0.0268 -0.0928,-0.0538 -0.14062,-0.0781 -0.0284,-0.0141 -0.0571,-0.0278 -0.0859,-0.041 -0.0468,-0.022 -0.0945,-0.0429 -0.14258,-0.0625 -0.0336,-0.0136 -0.0675,-0.0267 -0.10156,-0.0391 -0.0535,-0.0195 -0.10721,-0.0362 -0.16211,-0.0527 -0.0188,-0.007 -0.0377,-0.0132 -0.0566,-0.0195 -6.1e-4,-1.7e-4 -10e-4,1.7e-4 -0.002,0 -0.009,-0.002 -0.0182,-0.004 -0.0273,-0.006 -0.0715,-0.0192 -0.14514,-0.0368 -0.21875,-0.0508 -0.024,-0.005 -0.0481,-0.009 -0.0723,-0.0137 -0.0631,-0.0104 -0.12694,-0.017 -0.1914,-0.0234 -0.0993,-0.0108 -0.19899,-0.0167 -0.29883,-0.0176 z"
     sodipodi:nodetypes="cccccssccsccccccccsccccccsccccccscccccccccccsscscccccc" />
  <path
     d="M 7.5,8 C 7.4175,8 7.33695,8.006 7.25586,8.0117 c -0.001,0.002 -0.003,0.004 -0.004,0.006 -0.91438,0.065 -1.72673,0.47637 -2.31054,1.10156 -0.29191,0.3126 -0.52724,0.67977 -0.68946,1.08203 -0.04,0.0992 -0.0745,0.20127 -0.10547,0.30469 -0.003,0.008 -0.005,0.0169 -0.008,0.0254 C 4.07929,10.73454 4.03869,10.9441 4.0173,11.16029 4.0062,11.27215 4,11.38555 3.9997,11.50013 c 1.8e-4,0.0768 0.003,0.15258 0.008,0.22852 2.2e-4,0.003 -2.3e-4,0.007 0,0.01 0.005,0.0713 0.0122,0.1425 0.0215,0.21289 9.5e-4,0.007 0.003,0.0143 0.004,0.0215 0.0523,0.37719 0.16565,0.74096 0.33203,1.07617 0.30211,0.60864 0.77969,1.12601 1.38868,1.47656 l -0.002,0.004 c 0.027,0.0156 0.0526,0.0339 0.0801,0.0488 C 6.32796,14.84753 6.89594,15 7.5,15 H 15 c 1.17527,0 2.18948,-0.67789 2.68164,-1.66211 L 9.29883,8.49805 9.25003,8.46875 v 0.002 C 8.71814,8.16294 8.11457,8.00059 7.50003,8.00005 Z"
     style="fill:#1581d9;fill-opacity:1;stroke-width:2.43238;stroke-linecap:round;stroke-linejoin:round"
     id="path7286"
     sodipodi:nodetypes="sccssccscscssscccssccccss" />
  <path
     id="path7314"
     style="fill:#38afec;fill-opacity:1;stroke-width:2.43238;stroke-linecap:round;stroke-linejoin:round"
     d="m 12.18164,10.16211 -6.9082,3.99023 0.043,0.0742 c 0.13701,0.10933 0.28281,0.20979 0.4375,0.29883 l -0.002,0.004 c 0.0184,0.0107 0.036,0.0228 0.0547,0.0332 0.0795,0.0441 0.16103,0.0851 0.24414,0.12305 0.007,0.003 0.0143,0.007 0.0215,0.01 0.0831,0.0373 0.16748,0.0707 0.2539,0.10157 0.0917,0.0327 0.18426,0.0628 0.2793,0.0879 0.0931,0.0246 0.1892,0.0436 0.28515,0.0605 0.005,8.2e-4 0.009,0.003 0.0137,0.004 0.0845,0.0145 0.16935,0.0249 0.25586,0.0332 0.0215,0.002 0.0428,0.004 0.0644,0.006 0.0906,0.007 0.18293,0.0117 0.27539,0.0117 h 7.5 c 0.0643,0 0.12817,-0.002 0.19141,-0.006 0.009,-5.8e-4 0.0182,-0.001 0.0273,-0.002 0.0113,-8.2e-4 0.022,-0.003 0.0332,-0.004 0.0594,-0.005 0.11747,-0.0112 0.17578,-0.0195 10e-4,-1.8e-4 0.003,1.8e-4 0.004,0 0.004,-5.7e-4 0.008,-10e-4 0.0117,-0.002 0.0555,-0.008 0.11157,-0.018 0.16602,-0.0293 0.0303,-0.006 0.0599,-0.0124 0.0898,-0.0195 0.0349,-0.008 0.0691,-0.0178 0.10351,-0.0273 0.0143,-0.004 0.0288,-0.008 0.043,-0.0117 0.007,-0.002 0.0141,-0.006 0.0215,-0.008 0.0549,-0.0166 0.10859,-0.035 0.16211,-0.0547 0.004,-0.002 0.009,-0.002 0.0137,-0.004 0.003,-0.001 0.005,-0.003 0.008,-0.004 0.0621,-0.0234 0.12351,-0.0469 0.1836,-0.0742 0.0627,-0.0285 0.12521,-0.0592 0.18554,-0.0918 0.002,-9.5e-4 0.004,-0.001 0.006,-0.002 0.0253,-0.0137 0.0494,-0.0305 0.0742,-0.0449 l -0.004,-0.004 a 3,3 0 0 0 1.01563,-0.96094 3,3 0 0 0 0.16406,-0.29688 z" />
  <path
     id="path7370"
     style="opacity:0.1;fill:#ffffff;fill-opacity:1;stroke-width:2.43238;stroke-linecap:round;stroke-linejoin:round"
     d="M 7.5,8 C 7.4175,8 7.33695,8.006 7.25586,8.0117 c -0.001,0.002 -0.003,0.004 -0.004,0.006 -0.91438,0.065 -1.72673,0.47637 -2.31054,1.10156 -0.29191,0.3126 -0.52724,0.67977 -0.68946,1.08203 -0.04,0.0992 -0.0745,0.20127 -0.10547,0.30469 -0.003,0.008 -0.005,0.0169 -0.008,0.0254 C 4.07929,10.73454 4.03869,10.9441 4.0173,11.16029 4.0062,11.27215 4,11.38555 3.9997,11.50013 c 1.8e-4,0.0768 0.003,0.15258 0.008,0.22852 2.2e-4,0.003 -2.3e-4,0.007 0,0.01 4.6e-4,0.007 0.001,0.013 0.002,0.0195 0.002,-0.0324 0.005,-0.0655 0.008,-0.0977 0.0214,-0.21619 0.062,-0.42575 0.12109,-0.62891 0.003,-0.008 0.005,-0.0174 0.008,-0.0254 0.031,-0.10342 0.0655,-0.20549 0.10547,-0.30469 C 4.41448,10.29919 4.64981,9.93202 4.94172,9.61942 5.52553,8.99423 6.33788,8.58286 7.25226,8.51786 c 0.001,-0.002 0.003,-0.004 0.004,-0.006 0.0811,-0.006 0.16164,-0.0117 0.24414,-0.0117 0.61454,5.4e-4 1.21811,0.16289 1.75,0.4707 v -0.002 l 0.0488,0.0293 8.16015,4.71093 c 0.0822,-0.1182 0.15781,-0.2414 0.22266,-0.37109 L 9.2992,8.49816 9.2504,8.46886 v 0.002 C 8.71851,8.16305 8.11494,8.0007 7.5004,8.00016 Z" />
  <path
     id="path7456"
     style="opacity:0.2;fill:#ffffff;fill-opacity:1;stroke-width:5;stroke-linecap:round;stroke-linejoin:round"
     d="m 15,9 c -0.52585,0.003 -1.04179,0.14336 -1.49609,0.4082 l -0.004,-0.006 -8.22656,4.75 0.0488,0.0859 c 0.0961,0.0765 0.19688,0.14659 0.30078,0.21289 l 7.87695,-4.54883 0.004,0.006 c 0.45373,-0.26451 0.96896,-0.40486 1.49414,-0.4082 h 0.002 c 0.0992,9.6e-4 0.19822,0.007 0.29688,0.0176 0.0645,0.006 0.1283,0.013 0.1914,0.0234 0.0242,0.005 0.0483,0.009 0.0723,0.0137 0.0736,0.014 0.14725,0.0316 0.21875,0.0508 0.009,0.002 0.0183,0.004 0.0273,0.006 h 0.002 c 0.0189,0.006 0.0378,0.0125 0.0566,0.0195 0.0549,0.0165 0.10861,0.0332 0.16211,0.0527 0.0341,0.0124 0.068,0.0255 0.10157,0.0391 0.0481,0.0196 0.0958,0.0405 0.14257,0.0625 0.0288,0.0132 0.0575,0.0269 0.0859,0.041 0.0478,0.0243 0.0944,0.0513 0.14063,0.0781 0.0197,0.0108 0.0392,0.0219 0.0586,0.0332 0.0283,0.0178 0.0563,0.036 0.084,0.0547 0.0404,0.0265 0.08,0.0536 0.11915,0.082 0.0351,0.0253 0.0696,0.0513 0.10351,0.0781 0.009,0.007 0.0183,0.0145 0.0273,0.0215 0.0133,0.0108 0.026,0.0222 0.0391,0.0332 0.0345,0.0285 0.0684,0.0578 0.10156,0.0879 0.0553,0.0507 0.10876,0.10351 0.16016,0.1582 0.004,0.005 0.008,0.01 0.0117,0.0137 0.0418,0.0456 0.0822,0.0925 0.1211,0.14062 0.005,0.006 0.009,0.0135 0.0137,0.0195 0.0274,0.0333 0.0541,0.0672 0.0801,0.10157 0.0257,0.0351 0.05,0.0711 0.0742,0.10742 0.0221,0.0328 0.0437,0.066 0.0645,0.0996 0.001,0.002 0.003,0.004 0.004,0.006 0.0394,0.0648 0.0767,0.13142 0.11133,0.19921 0.0332,0.0652 0.0633,0.13142 0.0918,0.19922 0.018,0.0433 0.0349,0.0869 0.0508,0.13086 0.004,0.009 0.009,0.0174 0.0117,0.0254 0.007,0.0186 0.0116,0.0378 0.0176,0.0566 0.0146,0.0426 0.0283,0.0856 0.041,0.12891 0.001,0.003 0.003,0.007 0.004,0.01 0.0202,0.0725 0.0379,0.1461 0.0527,0.2207 0.001,0.005 0.003,0.0106 0.004,0.0156 0.002,0.0124 0.004,0.0247 0.006,0.0371 0.0119,0.0661 0.0213,0.13368 0.0293,0.20118 0.003,0.0286 0.006,0.0572 0.008,0.0859 0.007,-0.0834 0.0115,-0.16794 0.0117,-0.25195 0,-0.0825 -0.005,-0.16326 -0.0117,-0.24414 -0.002,-0.03 -0.005,-0.0599 -0.008,-0.0898 -0.008,-0.0675 -0.0174,-0.13507 -0.0293,-0.20118 -0.002,-0.0124 -0.004,-0.0247 -0.006,-0.0371 -0.001,-0.005 -0.003,-0.0103 -0.004,-0.0156 -0.0148,-0.0746 -0.0325,-0.14815 -0.0527,-0.2207 -0.001,-0.003 -0.003,-0.007 -0.004,-0.01 -0.0127,-0.0433 -0.0264,-0.0863 -0.041,-0.12891 -0.006,-0.0188 -0.011,-0.038 -0.0176,-0.0566 -0.003,-0.008 -0.006,-0.0169 -0.01,-0.0254 -0.0159,-0.044 -0.0328,-0.0876 -0.0508,-0.13086 -0.0285,-0.0678 -0.0586,-0.13399 -0.0918,-0.19922 -0.0346,-0.0678 -0.0719,-0.13445 -0.11133,-0.19921 -0.001,-0.002 -0.003,-0.004 -0.004,-0.006 -0.0208,-0.0336 -0.0423,-0.0668 -0.0644,-0.0996 -0.0242,-0.0363 -0.0485,-0.0723 -0.0742,-0.10742 -0.026,-0.0344 -0.0527,-0.0683 -0.0801,-0.10157 -0.005,-0.006 -0.009,-0.0134 -0.0137,-0.0195 -0.0389,-0.0481 -0.0793,-0.095 -0.12109,-0.14062 -0.004,-0.004 -0.008,-0.009 -0.0117,-0.0137 -0.0514,-0.0547 -0.10481,-0.10749 -0.16016,-0.1582 -0.0332,-0.0301 -0.0671,-0.0594 -0.10156,-0.0879 -0.0131,-0.011 -0.0258,-0.0224 -0.0391,-0.0332 -0.009,-0.007 -0.0181,-0.0144 -0.0274,-0.0215 -0.0339,-0.0268 -0.0684,-0.0528 -0.10351,-0.0781 -0.0391,-0.0284 -0.0787,-0.0555 -0.11914,-0.082 -0.0277,-0.0187 -0.0557,-0.0369 -0.084,-0.0547 -0.0194,-0.0113 -0.0389,-0.0224 -0.0586,-0.0332 -0.0462,-0.0268 -0.0928,-0.0538 -0.14062,-0.0781 -0.0284,-0.0141 -0.0571,-0.0278 -0.0859,-0.041 -0.0468,-0.022 -0.0945,-0.0429 -0.14258,-0.0625 -0.0336,-0.0136 -0.0675,-0.0267 -0.10156,-0.0391 -0.0535,-0.0195 -0.10721,-0.0362 -0.16211,-0.0527 -0.0188,-0.007 -0.0377,-0.0132 -0.0566,-0.0195 h -0.002 c -0.009,-0.002 -0.0182,-0.004 -0.0273,-0.006 -0.0715,-0.0192 -0.14514,-0.0368 -0.21875,-0.0508 -0.024,-0.005 -0.0481,-0.009 -0.0723,-0.0137 -0.06312,-0.0104 -0.12696,-0.017 -0.19142,-0.0234 C 15.19953,9.00678 15.09984,9.0009 15,9 Z" />
  <path
     id="path1040"
     style="opacity:0.2;fill:#ffffff;stroke-width:4;stroke-linecap:square"
     d="M 5.5,1 C 3.007005,1 1,3.007005 1,5.5 V 6 C 1,3.507005 3.007005,1.5 5.5,1.5 h 11 C 18.992996,1.5 21,3.507005 21,6 V 5.5 C 21,3.007005 18.992996,1 16.5,1 Z" />
</svg>
