<?xml version="1.0" encoding="UTF-8" standalone="no"?>
<!-- Created with Inkscape (http://www.inkscape.org/) -->

<svg
   width="22"
   height="22"
   viewBox="0 0 22 22"
   version="1.1"
   id="svg5"
   inkscape:version="1.2.2 (1:1.2.2+202305151914+b0a8486541)"
   sodipodi:docname="multimedia-photo-manager.svg"
   xmlns:inkscape="http://www.inkscape.org/namespaces/inkscape"
   xmlns:sodipodi="http://sodipodi.sourceforge.net/DTD/sodipodi-0.dtd"
   xmlns="http://www.w3.org/2000/svg"
   xmlns:svg="http://www.w3.org/2000/svg">
  <sodipodi:namedview
     id="namedview7"
     pagecolor="#ffffff"
     bordercolor="#000000"
     borderopacity="0.25"
     inkscape:showpageshadow="2"
     inkscape:pageopacity="0.0"
     inkscape:pagecheckerboard="0"
     inkscape:deskcolor="#d1d1d1"
     inkscape:document-units="px"
     showgrid="false"
     inkscape:zoom="36.636364"
     inkscape:cx="11"
     inkscape:cy="11"
     inkscape:window-width="1920"
     inkscape:window-height="1008"
     inkscape:window-x="0"
     inkscape:window-y="0"
     inkscape:window-maximized="1"
     inkscape:current-layer="svg5" />
  <defs
     id="defs2" />
  <rect
     style="opacity:0.2;fill:#000000;stroke-width:1.42857;stroke-linecap:square"
     id="rect234"
     width="20"
     height="20"
     x="1"
     y="1.5"
     ry="4.5" />
  <rect
     style="fill:#d22f7a;fill-opacity:1;stroke-width:1.42857;stroke-linecap:square"
     id="rect396"
     width="20"
     height="20"
     x="1"
     y="1"
     ry="4.5" />
  <path
     id="rect391"
     style="fill:#ff766a;fill-opacity:1;stroke-width:2;stroke-linecap:square"
     d="M 5.5,1 C 3.0070025,1 1,3.0070025 1,5.5 V 15 H 21 V 5.5 C 21,3.0070025 18.992998,1 16.5,1 Z" />
  <circle
     style="opacity:0.2;fill:#000000;fill-opacity:1;stroke-width:0.375;stroke-linecap:round;stroke-linejoin:round"
     id="path3228"
     cx="15"
     cy="8.5"
     r="3" />
  <circle
     style="fill:#fffee4;fill-opacity:1;stroke-width:0.375;stroke-linecap:round;stroke-linejoin:round"
     id="path3230"
     cx="15"
     cy="8"
     r="3" />
  <path
     d="m 1,15.071476 v -0.5715 c 0,0 1.4422284,-0.95235 1.8477224,-1.0354 0.4054789,-0.08309 0.8843367,-0.01545 1.3764291,0.07742 0.492128,0.09258 1.2268315,0.217775 1.4561285,0.2256 0.2293065,0.008 0.64424,-0.02 1.126383,-0.04915 0.482133,-0.02855 1.280431,-0.05486 1.529427,-0.052 0.248996,0 0.870587,0.0343 1.533227,0.07474 0.66259,0.04055 1.572727,0.108345 1.779174,0.127315 0.206491,0.01885 0.449213,0.05372 0.724689,0.09172 0.275446,0.0377 0.752288,0.09468 0.921035,0.110345 0.168693,0.0154 0.559792,0.0692 1.013585,0.11097 0.453783,0.0417 1.179982,0.056 1.389679,0.04055 0.209718,-0.01545 0.649291,-0.17074 1.139183,-0.313885 0.489868,-0.143085 1.030035,-0.274115 1.440879,-0.241715 0.410993,0.0325 2.722459,0.8335 2.722459,0.8335 v 0.57145 H 3.4292636 Z"
     id="path5990"
     style="stroke-width:0.499996" />
  <path
     id="path1040"
     style="opacity:0.2;fill:#ffffff;stroke-width:4;stroke-linecap:square"
     d="M 5.5,1 C 3.007005,1 1,3.007005 1,5.5 V 6 C 1,3.507005 3.007005,1.5 5.5,1.5 h 11 C 18.992996,1.5 21,3.507005 21,6 V 5.5 C 21,3.007005 18.992996,1 16.5,1 Z" />
  <circle
     style="fill:#42a1cd;fill-opacity:1;stroke-width:0.5;stroke-linecap:round;stroke-linejoin:round"
     id="path5566"
     cx="17"
     cy="17"
     r="5" />
  <path
     id="path5546"
     style="fill:#ffffff;stroke-width:0.5"
     d="m 16.250009,14 -0.75,1 h -1 c -0.499999,0 -0.5,0.5 -0.5,0.5 v 3 c -0.0025,0.449164 0.5,0.5 0.5,0.5 h 5 c 0.510205,0 0.5,-0.5 0.5,-0.5 -0.003,-0.08209 0,-3 0,-3 0,-0.5 -0.5,-0.5 -0.5,-0.5 h -1 l -0.75,-1 z m 0.75,2 c 0.5523,0 1,0.447734 1,1 0,0.552266 -0.4477,1 -1,1 -0.552265,0 -1,-0.447734 -1,-1 0,-0.552266 0.447735,-1 1,-1 z" />
</svg>
