<?xml version="1.0" encoding="UTF-8" standalone="no"?>
<!-- Created with Inkscape (http://www.inkscape.org/) -->

<svg
   width="22"
   height="22"
   viewBox="0 0 22 22"
   version="1.1"
   id="svg5"
   inkscape:version="1.4.3 (0d15f75042, 2025-12-25)"
   sodipodi:docname="org.gnome.Showtime.svg"
   xmlns:inkscape="http://www.inkscape.org/namespaces/inkscape"
   xmlns:sodipodi="http://sodipodi.sourceforge.net/DTD/sodipodi-0.dtd"
   xmlns="http://www.w3.org/2000/svg"
   xmlns:svg="http://www.w3.org/2000/svg">
  <sodipodi:namedview
     id="namedview7"
     pagecolor="#ffffff"
     bordercolor="#000000"
     borderopacity="0.25"
     inkscape:showpageshadow="2"
     inkscape:pageopacity="0.0"
     inkscape:pagecheckerboard="0"
     inkscape:deskcolor="#d1d1d1"
     inkscape:document-units="px"
     showgrid="false"
     inkscape:zoom="36.681818"
     inkscape:cx="10.986369"
     inkscape:cy="11"
     inkscape:window-width="1920"
     inkscape:window-height="1010"
     inkscape:window-x="0"
     inkscape:window-y="0"
     inkscape:window-maximized="1"
     inkscape:current-layer="svg5" />
  <defs
     id="defs2" />
  <rect
     style="opacity:0.2;fill:#000000;stroke-width:1.42857;stroke-linecap:square"
     id="rect234"
     width="20"
     height="20"
     x="1"
     y="1.5"
     ry="4.5" />
  <rect
     style="fill:#f1d0f5;fill-opacity:1;stroke-width:1.42857;stroke-linecap:square"
     id="rect396"
     width="20"
     height="20"
     x="1"
     y="1"
     ry="4.5" />
  <path
     id="path1040"
     style="opacity:0.2;fill:#ffffff;stroke-width:4;stroke-linecap:square"
     d="M 5.5,1 C 3.007005,1 1,3.007005 1,5.5 V 6 C 1,3.507005 3.007005,1.5 5.5,1.5 h 11 C 18.992996,1.5 21,3.507005 21,6 V 5.5 C 21,3.007005 18.992996,1 16.5,1 Z" />
  <path
     d="M 6.9166305,4.535974 A 2.3192709,2.3393892 0 0 0 5,6.8393125 V 17.161366 a 2.3192709,2.3393892 0 0 0 3.478642,2.025777 l 8.862017,-5.161027 a 2.3192709,2.3393892 0 0 0 0,-4.051553 L 8.478642,4.8135365 A 2.3192709,2.3393892 0 0 0 6.9166305,4.535974 Z"
     style="opacity:0.2;fill:#000000;stroke-width:0.5"
     id="path1" />
  <path
     d="M 6.9166305,4.035974 C 5.808352,4.2330396 5.000254,5.2041835 5,6.3393125 v 7.9018005 l 1.4432485,1.197161 c 2.65e-4,1.800572 -0.5135895,1.776152 1.0324585,0.876071 L 14.96786,12.523181 C 16.513598,11.622664 14.801269,11.133397 13.255532,10.23288 L 11.393314,6.010971 8.478642,4.313536 C 8.00649,4.038732 7.45346,3.9404614 6.9166305,4.035974 Z"
     style="fill:#4263e7;stroke-width:0.5"
     id="path2" />
  <path
     d="M 11.29272,5.9521385 C 8.89551,7.7748185 7.499915,10.621712 7.5,13.643266 c 0,0.174738 0.0046,0.349156 0.01374,0.52307 0.08027,1.525743 1.85723,0.272937 2.625754,1.596998 l 4.485749,-1.527863 c 1.545492,-0.900565 2.670736,-3.077388 1.125245,-3.977953 L 14.898996,8.052653 Z"
     style="fill:#cd5dd9;stroke-width:0.5"
     id="path3" />
  <path
     d="M 14.769016,7.9771105 C 12.691446,9.09632 11.500046,11.273721 11.5,13.643266 c -1.2e-5,0.224227 0.0066,0.447748 0.02174,0.669678 0.05391,0.788193 0.534387,0.406627 0.895955,1.115185 l 3.014783,-1.143734 c 1.202105,-0.700472 3.377219,-2.975788 2.709296,-4.039102 -0.190795,-0.30374 -0.457885,-0.570461 -0.801272,-0.770554 z"
     style="fill:#fe8668;stroke-width:0.5"
     id="path4" />
  <path
     d="m 18.019109,10.07393 c -1.912038,0.06799 -3.519184,1.645973 -3.519109,3.569336 -3.6e-5,0.180885 0.02802,0.361107 0.07247,0.539142 0.06783,0.271754 0.286227,0.05373 0.388737,0.309876 l 1.478504,-0.44168 0.900797,-0.524526 c 1.214237,-0.707234 1.533448,-2.331099 0.678606,-3.452148 z"
     style="fill:#ffb44f;stroke-width:0.5"
     id="path5" />
  <path
     d="m 5,14.000408 v 2.661134 a 2.3192709,2.3393892 0 0 0 3.478378,2.025669 l 8.04752,-4.686802 z"
     style="fill:#32c080;stroke-width:0.5"
     id="path6" />
  <path
     d="M 7.238281,4.0013851 A 2.3192709,2.3393892 0 0 0 6.916992,4.0355648 2.3192709,2.3393892 0 0 0 5,6.339276 v 0.5 A 2.3192709,2.3393892 0 0 1 6.916992,4.535565 2.3192709,2.3393892 0 0 1 8.478516,4.813885 L 17.34082,9.975018 A 2.3192709,2.3393892 0 0 1 18.482422,11.750409 2.3192709,2.3393892 0 0 0 17.34082,9.475018 L 8.478516,4.3138851 a 2.3192709,2.3393892 0 0 0 -1.240235,-0.3125 z"
     style="opacity:0.1;fill:#ffffff;stroke-width:0.5"
     id="path7" />
  <path
     d="m 5,14.000408 v 0.5 h 10.667969 l 0.858398,-0.5 z"
     style="opacity:0.2;fill:#ffffff;stroke-width:0.5"
     id="path8" />
</svg>
