<?xml version="1.0" encoding="UTF-8" standalone="no"?>
<!-- Created with Inkscape (http://www.inkscape.org/) -->

<svg
   width="22"
   height="22"
   viewBox="0 0 22 22"
   version="1.1"
   id="svg5"
   inkscape:version="1.3 (0e150ed6c4, 2023-07-21)"
   sodipodi:docname="org.gnome.baobab.svg"
   xmlns:inkscape="http://www.inkscape.org/namespaces/inkscape"
   xmlns:sodipodi="http://sodipodi.sourceforge.net/DTD/sodipodi-0.dtd"
   xmlns="http://www.w3.org/2000/svg"
   xmlns:svg="http://www.w3.org/2000/svg">
  <sodipodi:namedview
     id="namedview7"
     pagecolor="#ffffff"
     bordercolor="#000000"
     borderopacity="0.25"
     inkscape:showpageshadow="2"
     inkscape:pageopacity="0.0"
     inkscape:pagecheckerboard="0"
     inkscape:deskcolor="#d1d1d1"
     inkscape:document-units="px"
     showgrid="false"
     inkscape:zoom="33.136364"
     inkscape:cx="11"
     inkscape:cy="11"
     inkscape:window-width="1920"
     inkscape:window-height="937"
     inkscape:window-x="0"
     inkscape:window-y="32"
     inkscape:window-maximized="1"
     inkscape:current-layer="svg5" />
  <defs
     id="defs2" />
  <rect
     style="opacity:0.2;fill:#000000;stroke-width:1.42857;stroke-linecap:square"
     id="rect234"
     width="20"
     height="20"
     x="1"
     y="1.5"
     ry="4.5" />
  <rect
     style="fill:#fff55d;fill-opacity:1;stroke-width:1.42857;stroke-linecap:square"
     id="rect396"
     width="20"
     height="18"
     x="1"
     y="3"
     ry="4.5" />
  <path
     id="rect1"
     style="opacity:0.2;fill:#000000"
     d="M 5.5 3 C 3.007005 3 1 5.007005 1 7.5 L 1 16.5 C 1 17.874366 1.6130276 19.097763 2.578125 19.921875 L 11 11.5 L 21 11.5 L 21 7.5 C 21 5.007005 18.992996 3 16.5 3 L 5.5 3 z " />
  <path
     id="rect2"
     style="fill:#4098fe;fill-opacity:1;stroke-width:1.5"
     d="M 11 1 L 11 11 L 21 11 L 21 5.5 C 21 3.0070025 18.992998 1 16.5 1 L 11 1 z " />
  <path
     id="rect3"
     style="fill:#24db65;fill-opacity:1;stroke-width:1.5"
     d="M 5.5 1 C 3.0070025 1 1 3.0070025 1 5.5 L 1 16.5 C 1 17.746499 1.5010789 18.872173 2.3144531 19.685547 L 11 11 L 11 1 L 5.5 1 z " />
  <path
     id="rect5"
     style="fill:#25a068;fill-opacity:1;stroke-width:1.5"
     d="M 11 9.5 L 1.6582031 18.841797 C 1.8447333 19.147996 2.0624329 19.433527 2.3144531 19.685547 L 11 11 L 11 9.5 z " />
  <rect
     style="fill:#2379e0;fill-opacity:1;stroke-width:1.5"
     id="rect4"
     width="10"
     height="2"
     x="11"
     y="9" />
  <path
     id="path1040"
     style="opacity:0.2;fill:#ffffff;stroke-width:4;stroke-linecap:square"
     d="M 5.5,1 C 3.007005,1 1,3.007005 1,5.5 V 6 C 1,3.507005 3.007005,1.5 5.5,1.5 h 11 C 18.992996,1.5 21,3.507005 21,6 V 5.5 C 21,3.007005 18.992996,1 16.5,1 Z" />
</svg>
