<?xml version="1.0" encoding="UTF-8" standalone="no"?>
<!-- Created with Inkscape (http://www.inkscape.org/) -->

<svg
   width="22"
   height="22"
   viewBox="0 0 22 22"
   version="1.1"
   id="svg5"
   inkscape:version="1.3 (0e150ed6c4, 2023-07-21)"
   sodipodi:docname="org.gnome.font-viewer.svg"
   xmlns:inkscape="http://www.inkscape.org/namespaces/inkscape"
   xmlns:sodipodi="http://sodipodi.sourceforge.net/DTD/sodipodi-0.dtd"
   xmlns="http://www.w3.org/2000/svg"
   xmlns:svg="http://www.w3.org/2000/svg">
  <sodipodi:namedview
     id="namedview7"
     pagecolor="#ffffff"
     bordercolor="#000000"
     borderopacity="0.25"
     inkscape:showpageshadow="2"
     inkscape:pageopacity="0.0"
     inkscape:pagecheckerboard="0"
     inkscape:deskcolor="#d1d1d1"
     inkscape:document-units="px"
     showgrid="false"
     inkscape:zoom="35.590909"
     inkscape:cx="10.985951"
     inkscape:cy="11"
     inkscape:window-width="1920"
     inkscape:window-height="984"
     inkscape:window-x="0"
     inkscape:window-y="29"
     inkscape:window-maximized="1"
     inkscape:current-layer="svg5" />
  <defs
     id="defs2" />
  <rect
     style="opacity:0.2;fill:#000000;stroke-width:1.42857;stroke-linecap:square"
     id="rect234"
     width="20"
     height="20"
     x="1"
     y="1.5"
     ry="4.5" />
  <rect
     style="fill:#a448ba;fill-opacity:1;stroke-width:1.42857;stroke-linecap:square"
     id="rect396"
     width="20"
     height="20"
     x="1"
     y="1"
     ry="4.5" />
  <path
     id="path304"
     style="opacity:0.3;fill:#000000;stroke-width:0.5"
     d="M 5.5 1 C 3.0070045 1 1 3.007005 1 5.5 L 1 16.5 C 1 18.992996 3.0070045 21 5.5 21 L 6 21 L 6 1 L 5.5 1 z " />
  <path
     id="path2"
     style="font-weight:bold;font-size:322.102px;line-height:1.25;font-family:Montserrat;letter-spacing:0px;word-spacing:0px;opacity:0.2;fill:#000000;stroke-width:0.0276041"
     d="M 9.2675781,5.5 C 8.278224,5.5 7.5,6.0211935 7.5,6.6914062 c 0,0.2446806 0.2005244,0.4570313 0.453125,0.4570313 0.2526004,0 0.4726562,-0.2132217 0.4726562,-0.4472656 0,-0.042552 -0.010967,-0.095454 -0.021484,-0.1699219 -0.021051,-0.095744 -0.03125,-0.1794371 -0.03125,-0.2539062 0,-0.2872344 0.3368096,-0.5214844 0.7578125,-0.5214844 0.5157256,0 0.8847653,0.3083438 0.8847653,0.8828125 V 7.484375 C 8.5660547,7.9168303 8.1322635,8.0312915 7.6796875,8.4355469 7.4481356,8.6483101 7.3007812,9.010265 7.3007812,9.361328 7.3007812,10.031541 7.7622701,10.5 8.4042969,10.5 8.867399,10.5 9.3853171,10.275848 10.027344,9.722656 10.079974,10.286484 10.365348,10.5 10.796875,10.5 c 0.357852,0 0.57889,-0.126994 0.947266,-0.53125 V 9.691406 c -0.178924,0.148935 -0.305015,0.203125 -0.462891,0.203125 -0.242077,0 -0.316406,-0.149103 -0.316406,-0.617187 V 7.2011719 c 0,-0.5531918 -0.0511,-0.8599154 -0.208985,-1.1152344 C 10.52431,5.7029591 9.8885547,5.5 9.2675781,5.5 Z m 7.2363279,0 c -0.779226,0 -1.56893,0.1999542 -2.103515,0.5664062 l 0.507812,0.9511719 c 0.35337,-0.2704772 0.887834,-0.4355468 1.404297,-0.4355469 0.761105,0 1.1875,0.3900328 1.1875,0.9746094 l -1.40625,-0.00586 C 14.607801,7.5440508 14,8.2726808 14,9.101563 14,9.912992 14.620063,10.5 15.761719,10.5 c 0.7158,0 1.475519,-0.203332 1.738281,-0.630859 v 0.578125 H 19 V 7.6289062 C 18.999915,6.2067257 17.989872,5.5 16.503906,5.5 Z M 10.015625,7.7402344 V 9.085938 c 0,0.319149 -0.052411,0.434842 -0.2734375,0.5625 -0.2631271,0.148938 -0.6324898,0.234375 -0.8535156,0.234375 -0.3683778,0 -0.6621094,-0.360912 -0.6621094,-0.81836 V 9.021483 C 8.2370957,8.383187 8.7841945,8.1764032 10.015625,7.7402344 Z M 16.246094,8.4179688 17.5,8.4238281 v 0.4375 c 8.4e-5,0.4554599 -0.855012,0.7460939 -1.326172,0.7460939 -0.498342,0 -0.796875,-0.228082 -0.796875,-0.568359 0,-0.3140999 0.207718,-0.625179 0.869141,-0.6210942 z M 7.90625,12.701172 c -0.4677581,0.03818 -0.4540201,0.754979 0.044922,0.748047 h 1.8828125 c 0.00211,1.87e-4 0.054143,0.0063 0.1113281,0.03711 0.058328,0.03141 0.09181,0.03526 0.1015624,0.175781 l 0.04687,1.267579 c -0.08772,-0.03301 -0.1464843,-0.04688 -0.1464843,-0.04688 l -0.044922,-0.01172 H 8.1425781 c -0.8251827,0 -1.1230468,0.816406 -1.1230469,0.816406 L 7,15.746094 v 0.433594 c 0,0.567505 0.2733521,0.960367 0.5605469,1.136718 0.2871949,0.176351 0.5820312,0.173828 0.5820312,0.173828 h 1.4453125 l 0.6464844,-0.412109 0.0039,0.06055 c 0.01708,0.511756 0.803755,0.465282 0.759766,-0.04492 L 10.808594,13.611328 C 10.781797,13.224891 10.528717,12.94757 10.310547,12.830078 10.092378,12.712587 9.8808594,12.701172 9.8808594,12.701172 H 9.8691406 7.9511719 c -0.016095,-2.25e-4 -0.029833,-0.0012 -0.044922,0 z M 16.455078,13 c -0.144512,0.003 -0.320897,0.05964 -0.527344,0.167969 -0.235937,0.123797 -0.476071,0.309048 -0.71875,0.55664 -0.242678,0.240715 -0.466807,0.533076 -0.675781,0.876953 -0.202233,0.343879 -0.350937,0.725001 -0.445312,1.144532 -0.07415,0.309491 -0.102258,0.577726 -0.08203,0.804687 0.02022,0.220081 0.06843,0.402448 0.142579,0.546875 0.07415,0.137553 0.165579,0.23693 0.273437,0.298828 0.107854,0.06878 0.208358,0.103516 0.302734,0.103516 0.202232,-0.01376 0.40519,-0.05911 0.607422,-0.134766 0.175268,-0.06877 0.359197,-0.17393 0.554688,-0.318359 0.195492,-0.151308 0.375323,-0.365521 0.537109,-0.640625 -0.0067,0.185694 0.0024,0.341049 0.0293,0.464844 0.03371,0.123797 0.06786,0.22317 0.101563,0.298828 0.04045,0.08941 0.09167,0.158885 0.152343,0.207031 0.06067,0.04127 0.130045,0.06828 0.210938,0.08203 0.08089,0.02063 0.166271,0.02641 0.253906,0.01953 0.09437,-0.0069 0.185805,-0.02327 0.273437,-0.05078 0.08764,-0.02751 0.165012,-0.06225 0.232422,-0.103515 0.101118,-0.06877 0.224743,-0.184548 0.373047,-0.34961 0.155045,-0.171937 0.309797,-0.359142 0.464844,-0.558593 0.161786,-0.206327 0.31654,-0.407973 0.464844,-0.607422 0.148303,-0.206326 0.270859,-0.378074 0.365234,-0.515625 0.0809,-0.110041 0.127145,-0.20653 0.140625,-0.289063 0.02022,-0.08253 0.01719,-0.144282 -0.0098,-0.185547 -0.02697,-0.04126 -0.06716,-0.05476 -0.121093,-0.04101 -0.05393,0.0069 -0.108179,0.03967 -0.16211,0.101562 -0.04045,0.05502 -0.106797,0.140896 -0.201171,0.257813 -0.08764,0.116921 -0.190089,0.251036 -0.304688,0.402343 -0.114599,0.151305 -0.238224,0.309548 -0.373047,0.47461 -0.12808,0.158182 -0.253663,0.307764 -0.375,0.445312 -0.12134,0.130675 -0.235891,0.240673 -0.34375,0.330078 -0.107855,0.08253 -0.194308,0.123047 -0.261719,0.123047 -0.08089,0 -0.146171,-0.01639 -0.193359,-0.05078 -0.04044,-0.04126 -0.06961,-0.09435 -0.08984,-0.15625 -0.02022,-0.0619 -0.03428,-0.126538 -0.04102,-0.195312 0,-0.07566 0.0031,-0.145133 0.0098,-0.207032 0.02022,-0.103162 0.0373,-0.189034 0.05078,-0.257812 0.01349,-0.06877 0.02452,-0.127639 0.03125,-0.175781 0.01349,-0.05502 0.02256,-0.106154 0.0293,-0.154297 0.01347,-0.05502 0.02755,-0.113885 0.04102,-0.175782 0.06741,-0.316368 0.121663,-0.573986 0.162109,-0.773437 0.04044,-0.199448 0.06962,-0.357691 0.08984,-0.474609 0.02022,-0.116917 0.03125,-0.195064 0.03125,-0.236328 0,-0.04815 -0.0031,-0.08 -0.0098,-0.09375 -0.01349,-0.0069 -0.04158,-0.0098 -0.08203,-0.0098 -0.03371,0 -0.08493,0.0028 -0.152343,0.0098 -0.06067,0.0069 -0.138046,0.02037 -0.232422,0.04101 0.141564,-0.220083 0.195814,-0.394717 0.162109,-0.525391 -0.02697,-0.137551 -0.08726,-0.239817 -0.181641,-0.308593 -0.114598,-0.07565 -0.263303,-0.131629 -0.445312,-0.166016 -0.01938,-0.0017 -0.03795,-0.0024 -0.05859,-0.002 z m -0.179687,0.646484 c 0.0257,0.0014 0.04788,0.0099 0.06641,0.02539 0.02022,0.02752 0.03428,0.06514 0.04102,0.113281 0.0067,0.04127 0.0037,0.100123 -0.0098,0.175782 -0.0067,0.06877 -0.03788,0.159489 -0.0918,0.269531 0.05393,-0.01374 0.10818,-0.02437 0.162109,-0.03125 0.05393,-0.0069 0.09716,-0.01748 0.13086,-0.03125 0.04044,-0.01374 0.07762,-0.02437 0.111328,-0.03125 0.02697,-0.0069 0.02999,0.04909 0.0098,0.166015 -0.01348,0.110043 -0.03661,0.249937 -0.07031,0.421875 -0.0337,0.171942 -0.0739,0.351418 -0.121094,0.53711 -0.04719,0.185695 -0.08738,0.346822 -0.121094,0.484375 -0.0067,0.03439 -0.03788,0.09036 -0.0918,0.166015 -0.04719,0.07565 -0.110514,0.156685 -0.191407,0.246094 -0.07415,0.08941 -0.162555,0.175282 -0.263671,0.257813 -0.09437,0.08253 -0.191853,0.152012 -0.292969,0.207031 -0.09437,0.04814 -0.188828,0.07515 -0.283203,0.08203 -0.09437,0 -0.177802,-0.03763 -0.251954,-0.113281 -0.04045,-0.04127 -0.06855,-0.127138 -0.08203,-0.257813 -0.01348,-0.137551 -0.0085,-0.295795 0.01172,-0.474609 0.02697,-0.178818 0.07019,-0.366957 0.130859,-0.566406 0.06067,-0.206327 0.141071,-0.399309 0.242188,-0.578125 0.242678,-0.43329 0.45471,-0.728534 0.636719,-0.886719 0.141562,-0.123795 0.251024,-0.185507 0.328125,-0.181641 z m -8.1328129,1.972657 h 1.6464844 c 0.020358,0.0058 0.099796,0.02602 0.1972656,0.08984 0.1063559,0.06964 0.1667409,0.129296 0.1699219,0.253907 l 0.02734,0.255859 -0.8203128,0.523438 H 8.1425781 c 0,0 -0.086028,-0.003 -0.1796875,-0.06055 -0.093659,-0.05751 -0.2011719,-0.134009 -0.2011718,-0.501953 v -0.291016 c 0.019585,-0.05706 0.101838,-0.269531 0.3808593,-0.269531 z" />
  <path
     id="path6"
     style="font-weight:bold;font-size:322.102px;line-height:1.25;font-family:Montserrat;letter-spacing:0px;word-spacing:0px;fill:#ffffff;stroke-width:0.0276041"
     d="M 9.2675781,5 C 8.278224,5 7.5,5.5211935 7.5,6.1914062 c 0,0.2446806 0.2005244,0.4570313 0.453125,0.4570313 0.2526004,0 0.4726562,-0.2132217 0.4726562,-0.4472656 0,-0.042552 -0.010967,-0.095454 -0.021484,-0.1699219 -0.021051,-0.095744 -0.03125,-0.1794371 -0.03125,-0.2539062 0,-0.2872344 0.3368096,-0.5214844 0.7578125,-0.5214844 0.5157256,0 0.8847653,0.3083438 0.8847653,0.8828125 V 6.984375 C 8.5660547,7.4168303 8.1322635,7.5312915 7.6796875,7.9355469 7.4481356,8.1483101 7.3007812,8.5102651 7.3007812,8.8613281 7.3007812,9.531541 7.7622701,10 8.4042969,10 8.867399,10 9.3853171,9.775848 10.027344,9.222656 10.079974,9.786485 10.365348,10 10.796875,10 c 0.357852,0 0.57889,-0.126995 0.947266,-0.53125 V 9.191406 c -0.178924,0.148935 -0.305015,0.203125 -0.462891,0.203125 -0.242077,0 -0.316406,-0.149103 -0.316406,-0.6171872 V 6.7011719 c 0,-0.5531918 -0.0511,-0.8599154 -0.208985,-1.1152344 C 10.52431,5.2029591 9.8885547,5 9.2675781,5 Z m 7.2363279,0 c -0.779226,0 -1.56893,0.1999542 -2.103515,0.5664062 l 0.507812,0.9511719 c 0.35337,-0.2704772 0.887834,-0.4355468 1.404297,-0.4355469 0.761105,0 1.1875,0.3900328 1.1875,0.9746094 l -1.40625,-0.00586 C 14.607801,7.0440508 14,7.7726808 14,8.6015625 14,9.412992 14.620063,10 15.761719,10 16.477519,10 17.237238,9.796668 17.5,9.369141 V 9.947266 H 19 V 7.1289062 C 18.999915,5.7067257 17.989872,5 16.503906,5 Z m -6.488281,2.2402344 v 1.3457031 c 0,0.3191497 -0.052411,0.4348425 -0.2734375,0.5625005 -0.2631271,0.148938 -0.6324898,0.234375 -0.8535156,0.234375 -0.3683778,0 -0.6621094,-0.360912 -0.6621094,-0.8183599 V 8.5214844 C 8.2370957,7.883187 8.7841945,7.6764032 10.015625,7.2402344 Z M 16.246094,7.9179688 17.5,7.9238281 v 0.4375 c 8.4e-5,0.45546 -0.855012,0.7460939 -1.326172,0.7460939 -0.498342,0 -0.796875,-0.2280823 -0.796875,-0.5683595 0,-0.3140994 0.207718,-0.6251785 0.869141,-0.6210937 z M 7.90625,12.201172 c -0.4677581,0.03818 -0.4540201,0.754979 0.044922,0.748047 h 1.8828125 c 0.00211,1.87e-4 0.054143,0.0063 0.1113281,0.03711 0.058328,0.03141 0.09181,0.03526 0.1015624,0.175781 l 0.04687,1.267579 c -0.08772,-0.03301 -0.1464843,-0.04688 -0.1464843,-0.04688 l -0.044922,-0.01172 H 8.1425781 c -0.8251827,0 -1.1230468,0.816406 -1.1230469,0.816406 L 7,15.246094 v 0.433594 c 0,0.567505 0.2733521,0.960367 0.5605469,1.136718 0.2871949,0.176351 0.5820312,0.173828 0.5820312,0.173828 h 1.4453125 l 0.6464844,-0.412109 0.0039,0.06055 c 0.01708,0.511756 0.803755,0.465282 0.759766,-0.04492 L 10.808594,13.111328 C 10.781797,12.724891 10.528717,12.44757 10.310547,12.330078 10.092378,12.212587 9.8808594,12.201172 9.8808594,12.201172 H 9.8691406 7.9511719 c -0.016095,-2.25e-4 -0.029833,-0.0012 -0.044922,0 z M 16.455078,12.5 c -0.144512,0.003 -0.320897,0.05964 -0.527344,0.167969 -0.235937,0.123797 -0.476071,0.309048 -0.71875,0.55664 -0.242678,0.240715 -0.466807,0.533076 -0.675781,0.876953 -0.202233,0.343879 -0.350937,0.725001 -0.445312,1.144532 -0.07415,0.309491 -0.102258,0.577726 -0.08203,0.804687 0.02022,0.220081 0.06843,0.402448 0.142579,0.546875 0.07415,0.137553 0.165579,0.23693 0.273437,0.298828 C 14.529729,16.965261 14.630233,17 14.724609,17 c 0.202232,-0.01376 0.40519,-0.05911 0.607422,-0.134766 0.175268,-0.06877 0.359197,-0.17393 0.554688,-0.318359 0.195492,-0.151308 0.375323,-0.365521 0.537109,-0.640625 -0.0067,0.185694 0.0024,0.341049 0.0293,0.464844 0.03371,0.123797 0.06786,0.22317 0.101563,0.298828 0.04045,0.08941 0.09167,0.158885 0.152343,0.207031 0.06067,0.04127 0.130045,0.06828 0.210938,0.08203 0.08089,0.02063 0.166271,0.02641 0.253906,0.01953 0.09437,-0.0069 0.185805,-0.02327 0.273437,-0.05078 0.08764,-0.02751 0.165012,-0.06225 0.232422,-0.103515 0.101118,-0.06877 0.224743,-0.184548 0.373047,-0.34961 0.155045,-0.171937 0.309797,-0.359142 0.464844,-0.558593 0.161786,-0.206327 0.31654,-0.407973 0.464844,-0.607422 0.148303,-0.206326 0.270859,-0.378074 0.365234,-0.515625 0.0809,-0.110041 0.127145,-0.20653 0.140625,-0.289063 0.02022,-0.08253 0.01719,-0.144282 -0.0098,-0.185547 -0.02697,-0.04126 -0.06716,-0.05476 -0.121093,-0.04101 -0.05393,0.0069 -0.108179,0.03967 -0.16211,0.101562 -0.04045,0.05502 -0.106797,0.140896 -0.201171,0.257813 -0.08764,0.116921 -0.190089,0.251036 -0.304688,0.402343 -0.114599,0.151305 -0.238224,0.309548 -0.373047,0.47461 -0.12808,0.158182 -0.253663,0.307764 -0.375,0.445312 -0.12134,0.130675 -0.235891,0.240673 -0.34375,0.330078 -0.107855,0.08253 -0.194308,0.123047 -0.261719,0.123047 -0.08089,0 -0.146171,-0.01639 -0.193359,-0.05078 -0.04044,-0.04126 -0.06961,-0.09435 -0.08984,-0.15625 -0.02022,-0.0619 -0.03428,-0.126538 -0.04102,-0.195312 0,-0.07566 0.0031,-0.145133 0.0098,-0.207032 0.02022,-0.103162 0.0373,-0.189034 0.05078,-0.257812 0.01349,-0.06877 0.02452,-0.127639 0.03125,-0.175781 0.01349,-0.05502 0.02256,-0.106154 0.0293,-0.154297 0.01347,-0.05502 0.02755,-0.113885 0.04102,-0.175782 0.06741,-0.316368 0.121663,-0.573986 0.162109,-0.773437 0.04044,-0.199448 0.06962,-0.357691 0.08984,-0.474609 0.02022,-0.116917 0.03125,-0.195064 0.03125,-0.236328 0,-0.04815 -0.0031,-0.08 -0.0098,-0.09375 -0.01349,-0.0069 -0.04158,-0.0098 -0.08203,-0.0098 -0.03371,0 -0.08493,0.0028 -0.152343,0.0098 -0.06067,0.0069 -0.138046,0.02037 -0.232422,0.04101 0.141564,-0.220083 0.195814,-0.394717 0.162109,-0.525391 -0.02697,-0.137551 -0.08726,-0.239817 -0.181641,-0.308593 -0.114598,-0.07565 -0.263303,-0.131629 -0.445312,-0.166016 -0.01938,-0.0017 -0.03795,-0.0024 -0.05859,-0.002 z m -0.179687,0.646484 c 0.0257,0.0014 0.04788,0.0099 0.06641,0.02539 0.02022,0.02752 0.03428,0.06514 0.04102,0.113281 0.0067,0.04127 0.0037,0.100123 -0.0098,0.175782 -0.0067,0.06877 -0.03788,0.159489 -0.0918,0.269531 0.05393,-0.01374 0.10818,-0.02437 0.162109,-0.03125 0.05393,-0.0069 0.09716,-0.01748 0.13086,-0.03125 0.04044,-0.01374 0.07762,-0.02437 0.111328,-0.03125 0.02697,-0.0069 0.02999,0.04909 0.0098,0.166015 -0.01348,0.110043 -0.03661,0.249937 -0.07031,0.421875 -0.0337,0.171942 -0.0739,0.351418 -0.121094,0.53711 -0.04719,0.185695 -0.08738,0.346822 -0.121094,0.484375 -0.0067,0.03439 -0.03788,0.09036 -0.0918,0.166015 -0.04719,0.07565 -0.110514,0.156685 -0.191407,0.246094 -0.07415,0.08941 -0.162555,0.175282 -0.263671,0.257813 -0.09437,0.08253 -0.191853,0.152012 -0.292969,0.207031 -0.09437,0.04814 -0.188828,0.07515 -0.283203,0.08203 -0.09437,0 -0.177802,-0.03763 -0.251954,-0.113281 -0.04045,-0.04127 -0.06855,-0.127138 -0.08203,-0.257813 -0.01348,-0.137551 -0.0085,-0.295795 0.01172,-0.474609 0.02697,-0.178818 0.07019,-0.366957 0.130859,-0.566406 0.06067,-0.206327 0.141071,-0.399309 0.242188,-0.578125 0.242678,-0.43329 0.45471,-0.728534 0.636719,-0.886719 0.141562,-0.123795 0.251024,-0.185507 0.328125,-0.181641 z m -8.1328129,1.972657 h 1.6464844 c 0.020358,0.0058 0.099796,0.02602 0.1972656,0.08984 0.1063559,0.06964 0.1667409,0.129296 0.1699219,0.253907 l 0.02734,0.255859 -0.8203128,0.523438 H 8.1425781 c 0,0 -0.086028,-0.003 -0.1796875,-0.06055 -0.093659,-0.05751 -0.2011719,-0.134009 -0.2011718,-0.501953 v -0.291016 c 0.019585,-0.05706 0.101838,-0.269531 0.3808593,-0.269531 z" />
  <path
     id="path1040"
     style="opacity:0.1;fill:#ffffff;stroke-width:4;stroke-linecap:square"
     d="M 5.5,1 C 3.007005,1 1,3.007005 1,5.5 V 6 C 1,3.507005 3.007005,1.5 5.5,1.5 h 11 C 18.992996,1.5 21,3.507005 21,6 V 5.5 C 21,3.007005 18.992996,1 16.5,1 Z" />
</svg>
