<?xml version="1.0" encoding="UTF-8" standalone="no"?>
<!-- Created with Inkscape (http://www.inkscape.org/) -->

<svg
   width="22"
   height="22"
   viewBox="0 0 22 22"
   version="1.1"
   id="svg5"
   inkscape:version="1.3 (1:1.3+202307231459+0e150ed6c4)"
   sodipodi:docname="owncloud.svg"
   xmlns:inkscape="http://www.inkscape.org/namespaces/inkscape"
   xmlns:sodipodi="http://sodipodi.sourceforge.net/DTD/sodipodi-0.dtd"
   xmlns="http://www.w3.org/2000/svg"
   xmlns:svg="http://www.w3.org/2000/svg">
  <sodipodi:namedview
     id="namedview7"
     pagecolor="#ffffff"
     bordercolor="#000000"
     borderopacity="0.25"
     inkscape:showpageshadow="2"
     inkscape:pageopacity="0.0"
     inkscape:pagecheckerboard="0"
     inkscape:deskcolor="#d1d1d1"
     inkscape:document-units="px"
     showgrid="false"
     inkscape:zoom="32.636364"
     inkscape:cx="11"
     inkscape:cy="10.98468"
     inkscape:window-width="1920"
     inkscape:window-height="1008"
     inkscape:window-x="0"
     inkscape:window-y="0"
     inkscape:window-maximized="1"
     inkscape:current-layer="svg5" />
  <defs
     id="defs2" />
  <rect
     style="opacity:0.2;fill:#000000;stroke-width:1.42857;stroke-linecap:square"
     id="rect234"
     width="20"
     height="20"
     x="1"
     y="1.4999995"
     ry="4.5" />
  <rect
     style="fill:#394e6f;fill-opacity:1;stroke-width:1.42857;stroke-linecap:square"
     id="rect396"
     width="20"
     height="20"
     x="1"
     y="1"
     ry="4.5" />
  <path
     style="color:#000000;fill:#ffffff;stroke-width:0.5;stroke-linecap:round;stroke-linejoin:round;-inkscape-stroke:none"
     d="M 15.25,9.9999995 A 2.25,2.25 0 0 1 13,12.25 2.25,2.25 0 0 1 10.75,9.9999995 a 2.25,2.25 0 0 1 2.25,-2.25 2.25,2.25 0 0 1 2.25,2.25 z"
     id="path5392" />
  <path
     style="color:#000000;fill:#394e6f;stroke-linecap:round;stroke-linejoin:round;-inkscape-stroke:none"
     d="m 13,7.4999995 c -1.37775,0 -2.5,1.12225 -2.5,2.5 C 10.5,11.37775 11.62225,12.5 13,12.5 c 1.37775,0 2.5,-1.12225 2.5,-2.5000005 0,-1.37775 -1.12225,-2.5 -2.5,-2.5 z m 0,0.5 c 1.10753,0 2,0.89247 2,2 C 15,11.10753 14.10753,12 13,12 c -1.10753,0 -2,-0.89247 -2,-2.0000005 0,-1.10753 0.89247,-2 2,-2 z"
     id="path5394" />
  <path
     style="color:#000000;fill:#ffffff;stroke-width:0.5;stroke-linecap:round;stroke-linejoin:round;-inkscape-stroke:none"
     d="M 18.75,14 A 1.25,1.25 0 0 1 17.5,15.25 1.25,1.25 0 0 1 16.25,14 1.25,1.25 0 0 1 17.5,12.75 1.25,1.25 0 0 1 18.75,14 Z"
     id="path5398" />
  <path
     style="color:#000000;fill:#394e6f;stroke-linecap:round;stroke-linejoin:round;-inkscape-stroke:none"
     d="m 17.5,12.5 c -0.82546,0 -1.5,0.67454 -1.5,1.5 0,0.82547 0.67454,1.5 1.5,1.5 0.82547,0 1.5,-0.67453 1.5,-1.5 0,-0.82546 -0.67453,-1.5 -1.5,-1.5 z m 0,0.5 c 0.55525,0 1,0.44476 1,1 0,0.55525 -0.44475,1 -1,1 -0.55525,0 -1,-0.44475 -1,-1 0,-0.55524 0.44475,-1 1,-1 z"
     id="path5400" />
  <path
     style="color:#000000;fill:#ffffff;stroke-width:0.5;stroke-linecap:round;stroke-linejoin:round;-inkscape-stroke:none"
     d="m 17.25,12.75 a 2.5,2.5 0 0 1 -2.5,2.5 2.5,2.5 0 0 1 -2.5,-2.5 2.5,2.5 0 0 1 2.5,-2.5 2.5,2.5 0 0 1 2.5,2.5 z"
     id="path5404" />
  <path
     style="color:#000000;fill:#394e6f;stroke-linecap:round;stroke-linejoin:round;-inkscape-stroke:none"
     d="M 14.75,9.9999995 C 13.23418,9.9999995 12,11.23418 12,12.75 c 0,1.51582 1.23418,2.75 2.75,2.75 1.51582,0 2.75,-1.23418 2.75,-2.75 0,-1.51582 -1.23418,-2.7500005 -2.75,-2.7500005 z M 14.75,10.5 c 1.2456,0 2.25,1.0044 2.25,2.25 0,1.2456 -1.0044,2.25 -2.25,2.25 -1.2456,0 -2.25,-1.0044 -2.25,-2.25 0,-1.2456 1.0044,-2.25 2.25,-2.25 z"
     id="path5406" />
  <path
     style="color:#000000;fill:#ffffff;stroke-width:0.5;stroke-linecap:round;stroke-linejoin:round;-inkscape-stroke:none"
     d="M 7.75,13 A 2.25,2.25 0 0 1 5.5,15.25 2.25,2.25 0 0 1 3.25,13 2.25,2.25 0 0 1 5.5,10.75 2.25,2.25 0 0 1 7.75,13 Z"
     id="path5410" />
  <path
     style="color:#000000;fill:#394e6f;stroke-linecap:round;stroke-linejoin:round;-inkscape-stroke:none"
     d="M 5.5,10.5 C 4.12225,10.5 3,11.62225 3,13 3,14.37775 4.12225,15.5 5.5,15.5 6.87775,15.5 8,14.37775 8,13 8,11.62225 6.87775,10.5 5.5,10.5 Z m 0,0.5 c 1.10753,0 2,0.89247 2,2 0,1.10753 -0.89247,2 -2,2 -1.10753,0 -2,-0.89247 -2,-2 0,-1.10753 0.89247,-2 2,-2 z"
     id="path5412" />
  <path
     style="color:#000000;fill:#ffffff;stroke-width:0.5;stroke-linecap:round;stroke-linejoin:round;-inkscape-stroke:none"
     d="m 9.25,8.2499995 a 1.5,1.5 0 0 1 -1.5,1.5 1.5,1.5 0 0 1 -1.5,-1.5 1.5,1.5 0 0 1 1.5,-1.5 1.5,1.5 0 0 1 1.5,1.5 z"
     id="path5416" />
  <path
     style="color:#000000;fill:#394e6f;stroke-linecap:round;stroke-linejoin:round;-inkscape-stroke:none"
     d="m 7.75,6.4999995 c -0.96354,0 -1.75,0.78646 -1.75,1.75 0,0.96354 0.78646,1.75 1.75,1.75 0.96354,0 1.75,-0.78646 1.75,-1.75 0,-0.96354 -0.78646,-1.75 -1.75,-1.75 z m 0,0.5 c 0.69332,0 1.25,0.55668 1.25,1.25 0,0.69332 -0.55668,1.25 -1.25,1.25 -0.69332,0 -1.25,-0.55668 -1.25,-1.25 0,-0.69332 0.55668,-1.25 1.25,-1.25 z"
     id="path5418" />
  <path
     style="color:#000000;fill:#ffffff;stroke-width:0.5;stroke-linecap:round;stroke-linejoin:round;-inkscape-stroke:none"
     d="M 10.75,11 A 2.75,2.75 0 0 1 8,13.75 2.75,2.75 0 0 1 5.25,11 2.75,2.75 0 0 1 8,8.2499995 2.75,2.75 0 0 1 10.75,11 Z"
     id="path5422" />
  <path
     style="color:#000000;fill:#394e6f;stroke-linecap:round;stroke-linejoin:round;-inkscape-stroke:none"
     d="m 8,7.9999995 c -1.65389,0 -3,1.34611 -3,3.0000005 0,1.65389 1.34611,3 3,3 1.65389,0 3,-1.34611 3,-3 C 11,9.3461095 9.65389,7.9999995 8,7.9999995 Z m 0,0.5 c 1.38367,0 2.5,1.11633 2.5,2.5000005 0,1.38367 -1.11633,2.5 -2.5,2.5 C 6.61633,13.5 5.5,12.38367 5.5,11 5.5,9.6163295 6.61633,8.4999995 8,8.4999995 Z"
     id="path5424" />
  <path
     style="color:#000000;fill:#ffffff;stroke-width:0.5;stroke-linecap:round;stroke-linejoin:round;-inkscape-stroke:none"
     d="M 9,14 A 1.25,1.25 0 0 1 7.75,15.25 1.25,1.25 0 0 1 6.5,14 1.25,1.25 0 0 1 7.75,12.75 1.25,1.25 0 0 1 9,14 Z"
     id="path5428" />
  <path
     style="color:#000000;fill:#394e6f;stroke-linecap:round;stroke-linejoin:round;-inkscape-stroke:none"
     d="m 7.75,12.5 c -0.82547,0 -1.5,0.67454 -1.5,1.5 0,0.82547 0.67453,1.5 1.5,1.5 0.82547,0 1.5,-0.67453 1.5,-1.5 0,-0.82546 -0.67453,-1.5 -1.5,-1.5 z m 0,0.5 c 0.55525,0 1,0.44476 1,1 0,0.55525 -0.44475,1 -1,1 -0.55525,0 -1,-0.44475 -1,-1 0,-0.55524 0.44475,-1 1,-1 z"
     id="path5430" />
  <path
     style="color:#000000;fill:#ffffff;stroke-width:0.5;stroke-linecap:round;stroke-linejoin:round;-inkscape-stroke:none"
     d="M 12.75,8.7499995 A 2.5,2.5 0 0 1 10.25,11.25 2.5,2.5 0 0 1 7.75,8.7499995 a 2.5,2.5 0 0 1 2.5,-2.5 2.5,2.5 0 0 1 2.5,2.5 z"
     id="path5434" />
  <path
     style="color:#000000;fill:#394e6f;stroke-linecap:round;stroke-linejoin:round;-inkscape-stroke:none"
     d="m 10.25,5.9999995 c -1.51582,0 -2.75,1.23418 -2.75,2.75 C 7.5,10.26582 8.73418,11.5 10.25,11.5 11.76582,11.5 13,10.26582 13,8.7499995 c 0,-1.51582 -1.23418,-2.75 -2.75,-2.75 z m 0,0.5 c 1.2456,0 2.25,1.0044 2.25,2.25 C 12.5,9.9955995 11.4956,11 10.25,11 9.0044,11 8,9.9955995 8,8.7499995 c 0,-1.2456 1.0044,-2.25 2.25,-2.25 z"
     id="path5436" />
  <path
     style="color:#000000;fill:#ffffff;stroke-width:0.5;stroke-linecap:round;stroke-linejoin:round;-inkscape-stroke:none"
     d="M 14.248,12.001 A 3.2490001,3.2490001 0 0 1 10.999,15.25 3.2490001,3.2490001 0 0 1 7.75,12.001 3.2490001,3.2490001 0 0 1 10.999,8.7519995 3.2490001,3.2490001 0 0 1 14.248,12.001 Z"
     id="path5440" />
  <path
     style="color:#000000;fill:#394e6f;stroke-linecap:round;stroke-linejoin:round;-inkscape-stroke:none"
     d="M 10.99805,8.5019495 C 9.06857,8.5019495 7.5,10.07247 7.5,12.00195 7.5,13.93143 9.06857,15.5 10.99805,15.5 c 1.92948,0 3.5,-1.56857 3.5,-3.49805 0,-1.92948 -1.57052,-3.5000005 -3.5,-3.5000005 z m 0,0.5 c 1.65926,0 3,1.3407405 3,3.0000005 0,1.65926 -1.34074,2.99805 -3,2.99805 C 9.33879,15 8,13.66122 8,12.00195 8,10.34269 9.33879,9.0019495 10.99805,9.0019495 Z"
     id="path5442" />
  <path
     id="path1040"
     style="opacity:0.1;fill:#ffffff;stroke-width:4;stroke-linecap:square"
     d="M 5.5,1.0000002 C 3.007005,1.0000002 1,3.0070051 1,5.5 V 6 C 1,3.5070051 3.007005,1.5000002 5.5,1.5000002 h 11 C 18.992996,1.5000002 21,3.5070051 21,6 V 5.5 C 21,3.0070051 18.992996,1.0000002 16.5,1.0000002 Z" />
</svg>
