<?xml version="1.0" encoding="UTF-8" standalone="no"?>
<!-- Created with Inkscape (http://www.inkscape.org/) -->

<svg
   width="22"
   height="22"
   viewBox="0 0 22 22"
   version="1.1"
   id="svg5"
   inkscape:version="1.3.2 (091e20ef0f, 2023-11-25, custom)"
   sodipodi:docname="partitionmanager.svg"
   xmlns:inkscape="http://www.inkscape.org/namespaces/inkscape"
   xmlns:sodipodi="http://sodipodi.sourceforge.net/DTD/sodipodi-0.dtd"
   xmlns="http://www.w3.org/2000/svg"
   xmlns:svg="http://www.w3.org/2000/svg">
  <sodipodi:namedview
     id="namedview7"
     pagecolor="#ffffff"
     bordercolor="#000000"
     borderopacity="0.25"
     inkscape:showpageshadow="2"
     inkscape:pageopacity="0.0"
     inkscape:pagecheckerboard="0"
     inkscape:deskcolor="#d1d1d1"
     inkscape:document-units="px"
     showgrid="false"
     inkscape:zoom="37.363636"
     inkscape:cx="11"
     inkscape:cy="11"
     inkscape:window-width="1920"
     inkscape:window-height="1008"
     inkscape:window-x="0"
     inkscape:window-y="0"
     inkscape:window-maximized="1"
     inkscape:current-layer="svg5" />
  <defs
     id="defs2" />
  <rect
     style="opacity:0.2;fill:#000000;stroke-width:1.42857;stroke-linecap:square"
     id="rect234"
     width="20"
     height="20"
     x="1"
     y="1.5"
     ry="4.5" />
  <rect
     style="fill:#b7b7b7;fill-opacity:1;stroke-width:1.42857;stroke-linecap:square"
     id="rect396"
     width="20"
     height="20"
     x="1"
     y="1"
     ry="4.5" />
  <path
     id="path3"
     style="opacity:0.2;fill:#000000;fill-opacity:1;stroke-width:0.7"
     d="m 11,4.5 c -3.8659887,0 -7,3.1340113 -7,7 0,3.865989 3.1340113,7 7,7 3.865989,0 7,-3.134011 7,-7 0,-3.8659887 -3.134011,-7 -7,-7 z" />
  <path
     id="path4"
     style="fill:#248afd;fill-opacity:1;stroke-width:0.7"
     d="m 11,4 v 7 h 7 C 18,7.1340155 14.865984,4 11,4 Z" />
  <path
     id="path6"
     style="fill:#514694;fill-opacity:1;stroke-width:0.7"
     d="m 11,11 v 7 a 7,7 0 0 0 7,-7 z" />
  <path
     id="path7"
     style="fill:#fecd38;fill-opacity:1;stroke-width:0.7"
     d="m 4,11 a 7,7 0 0 0 7,7 v -7 z" />
  <path
     id="path8"
     style="fill:#4bae4f;fill-opacity:1;stroke-width:0.7"
     d="m 11,4 a 7,7 0 0 0 -7,7 h 7 z" />
  <circle
     style="fill:#ababab;fill-opacity:1;stroke-width:0.75"
     id="path5"
     cx="11"
     cy="11"
     r="3" />
  <circle
     style="opacity:0.2;fill:#000000;stroke-width:0.5"
     id="path1"
     cx="11"
     cy="11.5"
     r="1" />
  <circle
     style="fill:#e4e4e4;fill-opacity:1;stroke-width:0.5"
     id="path2"
     cx="11"
     cy="11"
     r="1" />
  <path
     id="path9"
     style="opacity:0.2;fill:#000000;fill-opacity:1;stroke-width:0.75"
     d="M 11,8 A 3,3 0 0 0 8,11 3,3 0 0 0 8.01758,11.25 3,3 0 0 1 11,8.5 3,3 0 0 1 13.986328,11.201172 3,3 0 0 0 14,11 3,3 0 0 0 11,8 Z" />
  <path
     id="path10"
     style="opacity:0.2;fill:#ffffff;fill-opacity:1;stroke-width:0.7"
     d="m 11,4 a 7,7 0 0 0 -7,7 7,7 0 0 0 0.00977,0.136719 C 4.1992038,7.4399745 7.256147,4.5 11,4.5 c 3.745173,0 6.802752,2.9420435 6.990234,6.640625 A 7,7 0 0 0 18,11 7,7 0 0 0 11,4 Z" />
  <path
     id="path1040"
     style="opacity:0.2;fill:#ffffff;stroke-width:4;stroke-linecap:square"
     d="M 5.5,1 C 3.007005,1 1,3.007005 1,5.5 V 6 C 1,3.507005 3.007005,1.5 5.5,1.5 h 11 C 18.992996,1.5 21,3.507005 21,6 V 5.5 C 21,3.007005 18.992996,1 16.5,1 Z" />
</svg>
