<?xml version="1.0" encoding="UTF-8" standalone="no"?>
<!-- Created with Inkscape (http://www.inkscape.org/) -->

<svg
   width="22"
   height="22"
   viewBox="0 0 22 22"
   version="1.1"
   id="svg5"
   inkscape:version="1.3.2 (091e20ef0f, 2023-11-25, custom)"
   sodipodi:docname="poedit.svg"
   xmlns:inkscape="http://www.inkscape.org/namespaces/inkscape"
   xmlns:sodipodi="http://sodipodi.sourceforge.net/DTD/sodipodi-0.dtd"
   xmlns="http://www.w3.org/2000/svg"
   xmlns:svg="http://www.w3.org/2000/svg">
  <sodipodi:namedview
     id="namedview7"
     pagecolor="#ffffff"
     bordercolor="#000000"
     borderopacity="0.25"
     inkscape:showpageshadow="2"
     inkscape:pageopacity="0.0"
     inkscape:pagecheckerboard="0"
     inkscape:deskcolor="#d1d1d1"
     inkscape:document-units="px"
     showgrid="false"
     inkscape:zoom="35.863636"
     inkscape:cx="11"
     inkscape:cy="11"
     inkscape:window-width="1920"
     inkscape:window-height="984"
     inkscape:window-x="0"
     inkscape:window-y="31"
     inkscape:window-maximized="1"
     inkscape:current-layer="svg5" />
  <defs
     id="defs2" />
  <rect
     style="opacity:0.2;fill:#000000;stroke-width:1.42857;stroke-linecap:square"
     id="rect234"
     width="20"
     height="20"
     x="1"
     y="1.4999995"
     ry="4.5" />
  <rect
     style="fill:#dd9f59;fill-opacity:1;stroke-width:1.42857;stroke-linecap:square"
     id="rect396"
     width="20"
     height="20"
     x="1"
     y="1"
     ry="4.5" />
  <rect
     style="opacity:0.2;fill:#000000;fill-opacity:1;stroke-width:2;stroke-linecap:square"
     id="rect3815"
     width="16"
     height="16"
     x="3"
     y="3.5"
     ry="2.5" />
  <rect
     style="fill:#f9f9f9;fill-opacity:1;stroke-width:2;stroke-linecap:square"
     id="rect3817"
     width="16"
     height="16"
     x="3"
     y="3"
     ry="2.5" />
  <path
     style="fill:#6b6b6b"
     d="M 7.5146485,4.5 C 6.986802,4.824216 5.3742455,5.239479 4.5,5.493164 L 4.527345,5.570312 C 4.943137,5.528787 5.537172,5.469945 5.9541025,5.399414 v 0.6132815 h -1.448242 l 0.035155,0.517578 h 1.211914 c -0.208181,0.856044 -0.689958,1.7160075 -1.238281,2.376953 l 0.083007,0.077148 c 0.514195,-0.372564 1.029547,-0.7034615 1.355469,-1.194336 V 10 H 6.085937 C 6.4397305,10 7.019135,9.863379 7.02539,9.821289 V 7.579101 c 0.2639235,0.237759 0.314367,0.515748 0.363282,0.811524 0.08987,0.075648 0.187473,0.111328 0.2773435,0.111328 0.187135,0 0.34668,-0.135377 0.34668,-0.3242185 0,-0.2553915 -0.092014,-0.4915965 -0.987305,-0.692383 v -0.955078 h 1.171875 c 0.187704,0 0.277822,-0.429641 0.326172,-0.5058595 L 7.5146485,5.5 7.290039,6.011719 H 7.0253905 V 5.2578125 C 7.3382305,5.1867125 7.6301585,5.116022 7.866211,5.044922 8.0033345,5.048412 8.5146485,5 8.5146485,5 Z M 9.0001868,5.515625 V 10 C 9.652601,10 9.991461,9.763447 9.986515,9.751953 V 9.519531 h 1.010743 v 0.368165 c 0.549461,0 0.993164,-0.159523 0.993164,-0.170899 V 6.082031 C 12.136035,6.053021 12.247727,6.006185 12.28925,5.9521485 L 11.486515,5.519531 10.928898,6 H 10.021672 Z M 9.986515,6.517578 h 1.010743 V 9.019531 H 9.986515 Z M 11.999719,13 v 1.5 1 1.5 h 1 v -1.5 h 1.066406 c 0.227729,0.881993 1.022677,1.49868 1.933594,1.5 1.104569,0 2,-0.895431 2,-2 0,-1.104569 -0.895431,-2 -2,-2 -0.911281,8.76e-4 -1.70675,0.617655 -1.93457,1.5 h -1.06543 V 13 Z m 4,1 c 0.552285,0 1,0.447715 1,1 0,0.552285 -0.447715,1 -1,1 -0.552285,0 -1,-0.447715 -1,-1 0,-0.552285 0.447715,-1 1,-1 z"
     id="path5" />
  <path
     id="path1040"
     style="opacity:0.2;fill:#ffffff;stroke-width:4;stroke-linecap:square"
     d="M 5.5,1.0000001 C 3.007005,1.0000001 1,3.0070051 1,5.5 V 6 C 1,3.5070051 3.007005,1.5000001 5.5,1.5000001 h 11 C 18.992996,1.5000001 21,3.5070051 21,6 V 5.5 C 21,3.0070052 18.992996,1.0000001 16.5,1.0000001 Z" />
</svg>
