<?xml version="1.0" encoding="UTF-8" standalone="no"?>
<!-- Created with Inkscape (http://www.inkscape.org/) -->

<svg
   width="22"
   height="22"
   viewBox="0 0 22 22"
   version="1.1"
   id="svg5"
   inkscape:version="1.4.3 (0d15f75042, 2025-12-25)"
   sodipodi:docname="preferences-system-splash.svg"
   xmlns:inkscape="http://www.inkscape.org/namespaces/inkscape"
   xmlns:sodipodi="http://sodipodi.sourceforge.net/DTD/sodipodi-0.dtd"
   xmlns="http://www.w3.org/2000/svg"
   xmlns:svg="http://www.w3.org/2000/svg">
  <sodipodi:namedview
     id="namedview7"
     pagecolor="#ffffff"
     bordercolor="#000000"
     borderopacity="0.25"
     inkscape:showpageshadow="2"
     inkscape:pageopacity="0.0"
     inkscape:pagecheckerboard="0"
     inkscape:deskcolor="#d1d1d1"
     inkscape:document-units="px"
     showgrid="false"
     inkscape:zoom="36.727273"
     inkscape:cx="11"
     inkscape:cy="11"
     inkscape:window-width="1920"
     inkscape:window-height="1010"
     inkscape:window-x="0"
     inkscape:window-y="0"
     inkscape:window-maximized="1"
     inkscape:current-layer="svg5" />
  <defs
     id="defs2" />
  <rect
     style="opacity:0.2;fill:#000000;stroke-width:1.42857;stroke-linecap:square"
     id="rect234"
     width="20"
     height="20"
     x="1"
     y="1.4999995"
     ry="4.5" />
  <rect
     style="fill:#8a5ce7;fill-opacity:1;stroke-width:1.42857;stroke-linecap:square"
     id="rect396"
     width="20"
     height="20"
     x="1"
     y="1"
     ry="4.5" />
  <path
     id="path1040"
     style="opacity:0.1;fill:#ffffff;stroke-width:4;stroke-linecap:square"
     d="M 5.5,1.0000001 C 3.007005,1.0000001 1,3.0070051 1,5.5 V 6 C 1,3.5070051 3.007005,1.5000001 5.5,1.5000001 h 11 C 18.992996,1.5000001 21,3.5070051 21,6 V 5.5 C 21,3.0070052 18.992996,1.0000001 16.5,1.0000001 Z" />
  <circle
     style="opacity:0.6;fill:#ffffff"
     cx="-11"
     cy="6"
     r="1"
     transform="scale(-1,1)"
     id="circle3" />
  <circle
     style="fill:#ffffff"
     cx="-11"
     cy="16"
     r="1"
     transform="scale(-1,1)"
     id="circle4" />
  <circle
     style="opacity:0.8;fill:#ffffff"
     cx="11"
     cy="6"
     r="1"
     transform="matrix(0,1,1,0,0,0)"
     id="circle5" />
  <circle
     style="opacity:0.4;fill:#ffffff"
     cx="11"
     cy="16"
     r="1"
     transform="matrix(0,1,1,0,0,0)"
     id="circle6" />
  <circle
     style="opacity:0.9;fill:#ffffff"
     cx="15.556"
     cy="-5"
     r="1"
     transform="matrix(0.70710678,0.70710678,0.70710678,-0.70710678,0,0)"
     id="circle7" />
  <circle
     style="opacity:0.5;fill:#ffffff"
     cx="15.556"
     cy="5"
     r="1"
     transform="matrix(0.70710678,0.70710678,0.70710678,-0.70710678,0,0)"
     id="circle8" />
  <circle
     style="opacity:0.3;fill:#ffffff"
     cx="0"
     cy="-20.556"
     r="1"
     transform="rotate(135)"
     id="circle9" />
  <circle
     style="opacity:0.7;fill:#ffffff"
     cx="0"
     cy="-10.556"
     r="1"
     transform="rotate(135)"
     id="circle10" />
  <path
     style="opacity:0.2"
     d="M 10.032227,6.248047 A 1,1 0 0 0 10,6.5 a 1,1 0 0 0 1,1 1,1 0 0 0 1,-1 A 1,1 0 0 0 11.967774,6.251953 1,1 0 0 1 11,7 1,1 0 0 1 10.032227,6.248047 Z m -1.6005865,1.46582 a 1,1 0 0 1 -0.2597655,0.458008 1,1 0 0 1 -1.4140625,0 1,1 0 0 1 -0.2597655,-0.4560545 1,1 0 0 0 0.2597655,0.9560545 1,1 0 0 0 1.4140625,0 1,1 0 0 0 0.2597655,-0.958008 z m 7.0703125,0 a 1,1 0 0 1 -0.259766,0.458008 1,1 0 0 1 -1.414062,0 1,1 0 0 1 -0.259765,-0.4560545 1,1 0 0 0 0.259765,0.9560545 1,1 0 0 0 1.414062,0 1,1 0 0 0 0.259766,-0.958008 z M 5.0322265,11.248047 A 1,1 0 0 0 5,11.5 a 1,1 0 0 0 1,1 1,1 0 0 0 1,-1 A 1,1 0 0 0 6.9677735,11.251953 1,1 0 0 1 6,12 1,1 0 0 1 5.0322265,11.248047 Z m 9.9999995,0 A 1,1 0 0 0 15,11.5 a 1,1 0 0 0 1,1 1,1 0 0 0 1,-1 A 1,1 0 0 0 16.96777,11.251953 1,1 0 0 1 16,12 1,1 0 0 1 15.032226,11.248047 Z M 8.4316405,14.78418 a 1,1 0 0 1 -0.2597655,0.458007 1,1 0 0 1 -1.4140625,0 1,1 0 0 1 -0.2597655,-0.456054 1,1 0 0 0 0.2597655,0.956054 1,1 0 0 0 1.4140625,0 1,1 0 0 0 0.2597655,-0.958007 z m 7.0703125,0 a 1,1 0 0 1 -0.259766,0.458007 1,1 0 0 1 -1.414062,0 1,1 0 0 1 -0.259765,-0.456054 1,1 0 0 0 0.259765,0.956054 1,1 0 0 0 1.414062,0 1,1 0 0 0 0.259766,-0.958007 z m -5.469726,1.463867 A 1,1 0 0 0 10,16.5 a 1,1 0 0 0 1,1 1,1 0 0 0 1,-1 A 1,1 0 0 0 11.96777,16.251953 1,1 0 0 1 11,17 1,1 0 0 1 10.032227,16.248047 Z"
     id="path10" />
</svg>
