<?xml version="1.0" encoding="UTF-8" standalone="no"?>
<!-- Created with Inkscape (http://www.inkscape.org/) -->

<svg
   width="22"
   height="22"
   viewBox="0 0 22 22"
   version="1.1"
   id="svg5"
   inkscape:version="1.2.2 (1:1.2.2+202305151914+b0a8486541)"
   sodipodi:docname="preferences-desktop-keyboard-shortcuts.svg"
   xmlns:inkscape="http://www.inkscape.org/namespaces/inkscape"
   xmlns:sodipodi="http://sodipodi.sourceforge.net/DTD/sodipodi-0.dtd"
   xmlns="http://www.w3.org/2000/svg"
   xmlns:svg="http://www.w3.org/2000/svg">
  <sodipodi:namedview
     id="namedview7"
     pagecolor="#ffffff"
     bordercolor="#000000"
     borderopacity="0.25"
     inkscape:showpageshadow="2"
     inkscape:pageopacity="0.0"
     inkscape:pagecheckerboard="0"
     inkscape:deskcolor="#d1d1d1"
     inkscape:document-units="px"
     showgrid="false"
     inkscape:zoom="36.636364"
     inkscape:cx="10.986352"
     inkscape:cy="11"
     inkscape:window-width="1920"
     inkscape:window-height="1008"
     inkscape:window-x="0"
     inkscape:window-y="0"
     inkscape:window-maximized="1"
     inkscape:current-layer="svg5" />
  <defs
     id="defs2" />
  <rect
     style="opacity:0.2;fill:#000000;stroke-width:1.42857;stroke-linecap:square"
     id="rect234"
     width="20"
     height="20"
     x="1"
     y="1.5"
     ry="4.5" />
  <rect
     style="fill:#adadad;fill-opacity:1;stroke-width:1.42857;stroke-linecap:square"
     id="rect396"
     width="20"
     height="20"
     x="1"
     y="1"
     ry="4.5" />
  <path
     d="m 5,6.5 c -0.5522845,0 -0.9999995,0.4477155 -0.9999995,1 0,0.552284 0.447715,1 0.9999995,1 0.552285,0 1,-0.447716 1,-1 0,-0.5522845 -0.447715,-1 -1,-1 z m 3,0 c -0.552284,0 -1,0.4477155 -1,1 0,0.552284 0.447716,1 1,1 0.552285,0 1,-0.447716 1,-1 0,-0.5522845 -0.447715,-1 -1,-1 z m 3,0 c -0.552285,0 -1,0.4477155 -1,1 0,0.552284 0.447715,1 1,1 0.552285,0 1,-0.447716 1,-1 0,-0.5522845 -0.447715,-1 -1,-1 z m 3,0 c -0.552285,0 -1,0.4477155 -1,1 0,0.552284 0.447715,1 1,1 0.552285,0 1,-0.447716 1,-1 0,-0.5522845 -0.447715,-1 -1,-1 z m 3,0 c -0.552285,0 -1,0.4477155 -1,1 0,0.552284 0.447715,1 1,1 0.552285,0 1,-0.447716 1,-1 0,-0.5522845 -0.447715,-1 -1,-1 z m -10.5,4 c -0.552284,0 -1,0.447715 -1,1 0,0.552285 0.447716,1 1,1 0.552285,0 1,-0.447715 1,-1 0,-0.552285 -0.447715,-1 -1,-1 z m 3,0 c -0.552285,0 -1,0.447715 -1,1 0,0.552285 0.447715,1 1,1 0.552285,0 1,-0.447715 1,-1 0,-0.552285 -0.447715,-1 -1,-1 z m 3,0 c -0.552285,0 -1,0.447715 -1,1 0,0.552285 0.447715,1 1,1 0.552285,0 1,-0.447715 1,-1 0,-0.552285 -0.447715,-1 -1,-1 z m 3,0 c -0.552285,0 -1,0.447715 -1,1 0,0.552285 0.447715,1 1,1 0.552285,0 1,-0.447715 1,-1 0,-0.552285 -0.447715,-1 -1,-1 z m -10.9999995,4 c -0.277,0 -0.5,0.223 -0.5,0.5 v 1 c 0,0.277 0.223,0.5 0.5,0.5 H 17.5 c 0.277,0 0.5,-0.223 0.5,-0.5 v -1 c 0,-0.277 -0.223,-0.5 -0.5,-0.5 z"
     id="path1153"
     style="opacity:0.2;fill:#000000;stroke-width:1" />
  <path
     id="path397"
     style="fill:#e8e8e8;fill-opacity:1;stroke-width:1"
     d="M 5,6 C 4.447716,6 4,6.447716 4,7 4,7.552285 4.447716,8 5,8 5.5522845,8 6,7.552285 6,7 6,6.447716 5.5522845,6 5,6 Z M 8,6 C 7.447715,6 7,6.447716 7,7 7,7.552285 7.447715,8 8,8 8.552285,8 9,7.552285 9,7 9,6.447716 8.552285,6 8,6 Z m 3,0 c -0.552285,0 -1,0.447716 -1,1 0,0.552285 0.447715,1 1,1 0.552285,0 1,-0.447715 1,-1 0,-0.552284 -0.447715,-1 -1,-1 z m 3,0 c -0.552285,0 -1,0.447716 -1,1 0,0.552285 0.447715,1 1,1 0.552284,0 1,-0.447715 1,-1 0,-0.552284 -0.447716,-1 -1,-1 z m -7.5,4 c -0.5522845,0 -1,0.447715 -1,1 0,0.552285 0.4477155,1 1,1 0.552285,0 1,-0.447715 1,-1 0,-0.552285 -0.447715,-1 -1,-1 z m 3,0 c -0.552285,0 -1,0.447715 -1,1 0,0.552285 0.447715,1 1,1 0.552285,0 1,-0.447715 1,-1 0,-0.552285 -0.447715,-1 -1,-1 z m 6,0 c -0.552285,0 -1,0.447715 -1,1 0,0.552285 0.447715,1 1,1 0.552284,0 1,-0.447715 1,-1 0,-0.552285 -0.447716,-1 -1,-1 z m -11,4 C 4.223001,14 4,14.223 4,14.5 v 1 C 4,15.776999 4.223001,16 4.5,16 h 13 c 0.276999,0 0.5,-0.223001 0.5,-0.5 v -1 C 18,14.223 17.776999,14 17.5,14 Z" />
  <path
     d="m 17,6 c -0.552285,0 -1,0.4477155 -1,1 0,0.552285 0.447715,1 1,1 0.552285,0 1,-0.447715 1,-1 0,-0.5522845 -0.447715,-1 -1,-1 z m -4.5,4 c -0.552285,0 -1,0.447715 -1,1 0,0.552285 0.447715,1 1,1 0.552285,0 1,-0.447715 1,-1 0,-0.552285 -0.447715,-1 -1,-1 z"
     style="fill:#ff8800;fill-opacity:1;stroke-width:1"
     id="path345" />
  <path
     id="path1040"
     style="opacity:0.2;fill:#ffffff;stroke-width:4;stroke-linecap:square"
     d="M 5.5,1 C 3.007005,1 1,3.007005 1,5.5 V 6 C 1,3.507005 3.007005,1.5 5.5,1.5 h 11 C 18.992996,1.5 21,3.507005 21,6 V 5.5 C 21,3.007005 18.992996,1 16.5,1 Z" />
</svg>
