<?xml version="1.0" encoding="UTF-8" standalone="no"?>
<!-- Created with Inkscape (http://www.inkscape.org/) -->

<svg
   width="22"
   height="22"
   viewBox="0 0 22 22"
   version="1.1"
   id="svg5"
   inkscape:version="1.3.2 (091e20ef0f, 2023-11-25, custom)"
   sodipodi:docname="preferences-system-privacy.svg"
   xmlns:inkscape="http://www.inkscape.org/namespaces/inkscape"
   xmlns:sodipodi="http://sodipodi.sourceforge.net/DTD/sodipodi-0.dtd"
   xmlns="http://www.w3.org/2000/svg"
   xmlns:svg="http://www.w3.org/2000/svg">
  <sodipodi:namedview
     id="namedview7"
     pagecolor="#ffffff"
     bordercolor="#000000"
     borderopacity="0.25"
     inkscape:showpageshadow="2"
     inkscape:pageopacity="0.0"
     inkscape:pagecheckerboard="0"
     inkscape:deskcolor="#d1d1d1"
     inkscape:document-units="px"
     showgrid="false"
     inkscape:zoom="37.136364"
     inkscape:cx="10.986536"
     inkscape:cy="11"
     inkscape:window-width="1920"
     inkscape:window-height="1020"
     inkscape:window-x="0"
     inkscape:window-y="31"
     inkscape:window-maximized="1"
     inkscape:current-layer="svg5" />
  <defs
     id="defs2" />
  <rect
     style="opacity:0.2;fill:#000000;stroke-width:1.42857;stroke-linecap:square"
     id="rect234"
     width="20"
     height="20"
     x="1"
     y="1.4999995"
     ry="4.5" />
  <rect
     style="fill:#656565;fill-opacity:1;stroke-width:1.42857;stroke-linecap:square"
     id="rect396"
     width="20"
     height="20"
     x="1"
     y="1"
     ry="4.5" />
  <rect
     style="opacity:0.2;fill:#000000"
     id="rect422"
     width="14"
     height="14"
     x="4"
     y="4.4999995"
     ry="2" />
  <rect
     style="fill:#d9d9d9;fill-opacity:1"
     id="rect424"
     width="14"
     height="14"
     x="4"
     y="3.9999995"
     ry="2" />
  <circle
     style="opacity:0.2;fill:#000000;fill-opacity:1"
     id="path1520"
     cx="10.999996"
     cy="11.500003"
     r="4" />
  <circle
     style="fill:#8e8e8e;fill-opacity:1"
     id="path1522"
     cx="10.999996"
     cy="11.000003"
     r="4" />
  <path
     id="path3113"
     style="opacity:0.2;fill:#000000;fill-opacity:1"
     d="m 10.20703,7.07227 -0.48438,0.1289 0.45313,1.68946 0.48242,-0.12891 z m 1.58593,0 -0.45117,1.68945 0.48242,0.12891 0.45313,-1.68946 z M 8.34765,7.99414 7.99414,8.34766 9.23242,9.58594 9.58593,9.23242 Z m 5.30469,0 -1.23828,1.23828 0.35351,0.35352 1.23829,-1.23828 z m -6.45117,1.72852 -0.12891,0.48437 1.68945,0.45118 0.12891,-0.48243 z m 7.59765,0 -1.68945,0.45312 0.12891,0.48243 1.68945,-0.45118 z m -6.03711,1.61914 -1.68945,0.45117 0.12891,0.48438 1.68945,-0.45313 z m 4.47657,0 -0.12891,0.48242 1.68945,0.45313 0.12891,-0.48438 z m -4.00586,1.07226 -1.23828,1.23829 0.35351,0.35351 1.23828,-1.23828 z m 3.53515,0 -0.35351,0.35352 1.23828,1.23828 0.35352,-0.35351 z m -2.59179,0.69532 -0.45313,1.68945 0.48438,0.12891 0.45117,-1.68946 z m 1.64843,0 -0.48242,0.1289 0.45117,1.68946 0.48438,-0.12891 z" />
  <circle
     style="opacity:0.2;fill:#000000;fill-opacity:1"
     id="path3134"
     cx="10.999996"
     cy="11.500003"
     r="2" />
  <circle
     style="fill:#d9d9d9;fill-opacity:1"
     id="path3136"
     cx="10.999996"
     cy="11.000003"
     r="2" />
  <path
     id="path3138"
     style="opacity:0.2;fill:#ffffff;fill-opacity:1"
     d="m 11,9 a 2,2 0 0 0 -2,2 2,2 0 0 0 0.0176,0.25 2,2 0 0 1 1.98243,-1.75 2,2 0 0 1 1.98242,1.7461 2,2 0 0 0 0.0176,-0.2461 2,2 0 0 0 -2,-2 z" />
  <path
     id="rect426"
     style="opacity:0.2;fill:#ffffff"
     d="m 6.0000041,3.9999971 c -1.108,0 -2,0.892 -2,2 v 0.5 c 0,-1.108 0.892,-2 2,-2 h 9.9999999 c 1.10799,0 2,0.892 2,2 v -0.5 c 0,-1.108 -0.89201,-2 -2,-2 z" />
  <path
     id="path1040"
     style="opacity:0.1;fill:#ffffff;stroke-width:4;stroke-linecap:square"
     d="M 5.5,1.0000001 C 3.007005,1.0000001 1,3.0070051 1,5.5 V 6 C 1,3.5070051 3.007005,1.5000001 5.5,1.5000001 h 11 C 18.992996,1.5000001 21,3.5070051 21,6 V 5.5 C 21,3.0070052 18.992996,1.0000001 16.5,1.0000001 Z" />
</svg>
