<?xml version="1.0" encoding="UTF-8" standalone="no"?>
<!-- Created with Inkscape (http://www.inkscape.org/) -->

<svg
   width="22"
   height="22"
   viewBox="0 0 22 22"
   version="1.1"
   id="svg5"
   inkscape:version="1.3 (0e150ed6c4, 2023-07-21)"
   sodipodi:docname="quadrapassel.svg"
   xmlns:inkscape="http://www.inkscape.org/namespaces/inkscape"
   xmlns:sodipodi="http://sodipodi.sourceforge.net/DTD/sodipodi-0.dtd"
   xmlns="http://www.w3.org/2000/svg"
   xmlns:svg="http://www.w3.org/2000/svg">
  <sodipodi:namedview
     id="namedview7"
     pagecolor="#ffffff"
     bordercolor="#000000"
     borderopacity="0.25"
     inkscape:showpageshadow="2"
     inkscape:pageopacity="0.0"
     inkscape:pagecheckerboard="0"
     inkscape:deskcolor="#d1d1d1"
     inkscape:document-units="px"
     showgrid="false"
     inkscape:zoom="35.590909"
     inkscape:cx="10.985951"
     inkscape:cy="11"
     inkscape:window-width="1920"
     inkscape:window-height="984"
     inkscape:window-x="0"
     inkscape:window-y="29"
     inkscape:window-maximized="1"
     inkscape:current-layer="svg5" />
  <defs
     id="defs2" />
  <rect
     style="opacity:0.2;fill:#000000;stroke-width:1.42857;stroke-linecap:square"
     id="rect234"
     width="20"
     height="20"
     x="1"
     y="1.4999995"
     ry="4.5" />
  <rect
     style="fill:#4d4d4d;fill-opacity:1;stroke-width:1.42857;stroke-linecap:square"
     id="rect396"
     width="20"
     height="20"
     x="1"
     y="1"
     ry="4.5" />
  <path
     id="path1040"
     style="opacity:0.1;fill:#ffffff;stroke-width:4;stroke-linecap:square"
     d="M 5.5,1.0000001 C 3.007005,1.0000001 1,3.0070051 1,5.5 V 6 C 1,3.5070051 3.007005,1.5000001 5.5,1.5000001 h 11 C 18.992996,1.5000001 21,3.5070051 21,6 V 5.5 C 21,3.0070052 18.992996,1.0000001 16.5,1.0000001 Z" />
  <path
     id="rect1"
     style="opacity:0.2;fill:#000000;stroke-linecap:round;stroke-linejoin:round"
     d="M 7.5,4.5 C 7.2230003,4.5 7,4.7230003 7,5 v 3 c 0,0.2769997 0.2230003,0.5 0.5,0.5 h 3 C 10.777,8.5 11,8.2769997 11,8 V 5 C 11,4.7230003 10.777,4.5 10.5,4.5 Z m 0,5 C 7.2230003,9.5 7,9.7230003 7,10 v 3 c 0,0.277 0.2230003,0.5 0.5,0.5 h 3 C 10.777,13.5 11,13.277 11,13 V 10 C 11,9.7230003 10.777,9.5 10.5,9.5 Z m 0,5 C 7.2230003,14.5 7,14.723 7,15 v 3 c 0,0.277 0.2230003,0.5 0.5,0.5 h 3 c 0.277,0 0.5,-0.223 0.5,-0.5 v -3 c 0,-0.277 -0.223,-0.5 -0.5,-0.5 z m 5,0 C 12.223,14.5 12,14.723 12,15 v 3 c 0,0.277 0.223,0.5 0.5,0.5 h 3 c 0.277,0 0.5,-0.223 0.5,-0.5 v -3 c 0,-0.277 -0.223,-0.5 -0.5,-0.5 z" />
  <path
     id="rect2"
     style="opacity:1;fill:#f84e4e;stroke-linecap:round;stroke-linejoin:round;fill-opacity:1"
     d="M 7.5 4 C 7.2230003 4 7 4.2230003 7 4.5 L 7 7.5 C 7 7.7769997 7.2230003 8 7.5 8 L 10.5 8 C 10.777 8 11 7.7769997 11 7.5 L 11 4.5 C 11 4.2230003 10.777 4 10.5 4 L 7.5 4 z M 7.5 9 C 7.2230003 9 7 9.2230003 7 9.5 L 7 12.5 C 7 12.777 7.2230003 13 7.5 13 L 10.5 13 C 10.777 13 11 12.777 11 12.5 L 11 9.5 C 11 9.2230003 10.777 9 10.5 9 L 7.5 9 z M 7.5 14 C 7.2230003 14 7 14.223 7 14.5 L 7 17.5 C 7 17.777 7.2230003 18 7.5 18 L 10.5 18 C 10.777 18 11 17.777 11 17.5 L 11 14.5 C 11 14.223 10.777 14 10.5 14 L 7.5 14 z M 12.5 14 C 12.223 14 12 14.223 12 14.5 L 12 17.5 C 12 17.777 12.223 18 12.5 18 L 15.5 18 C 15.777 18 16 17.777 16 17.5 L 16 14.5 C 16 14.223 15.777 14 15.5 14 L 12.5 14 z " />
  <path
     id="rect3"
     style="opacity:0.2;fill:#ffffff;fill-opacity:1;stroke-linecap:round;stroke-linejoin:round"
     d="M 7.5 4 C 7.2230006 4 7 4.2230006 7 4.5 L 7 5 C 7 4.7230006 7.2230006 4.5 7.5 4.5 L 10.5 4.5 C 10.777 4.5 11 4.7230006 11 5 L 11 4.5 C 11 4.2230006 10.777 4 10.5 4 L 7.5 4 z M 7.5 9 C 7.2230006 9 7 9.2230006 7 9.5 L 7 10 C 7 9.7230003 7.2230006 9.5 7.5 9.5 L 10.5 9.5 C 10.777 9.5 11 9.7230003 11 10 L 11 9.5 C 11 9.2230006 10.777 9 10.5 9 L 7.5 9 z M 7.5 14 C 7.2230006 14 7 14.223 7 14.5 L 7 15 C 7 14.723 7.2230006 14.5 7.5 14.5 L 10.5 14.5 C 10.777 14.5 11 14.723 11 15 L 11 14.5 C 11 14.223 10.777 14 10.5 14 L 7.5 14 z M 12.5 14 C 12.223 14 12 14.223 12 14.5 L 12 15 C 12 14.723 12.223 14.5 12.5 14.5 L 15.5 14.5 C 15.777 14.5 16 14.723 16 15 L 16 14.5 C 16 14.223 15.777 14 15.5 14 L 12.5 14 z " />
</svg>
