<?xml version="1.0" encoding="UTF-8" standalone="no"?>
<!-- Created with Inkscape (http://www.inkscape.org/) -->

<svg
   width="22"
   height="22"
   viewBox="0 0 22 22"
   version="1.1"
   id="svg5"
   inkscape:version="1.3 (0e150ed6c4, 2023-07-21)"
   sodipodi:docname="qvidcap.svg"
   xmlns:inkscape="http://www.inkscape.org/namespaces/inkscape"
   xmlns:sodipodi="http://sodipodi.sourceforge.net/DTD/sodipodi-0.dtd"
   xmlns="http://www.w3.org/2000/svg"
   xmlns:svg="http://www.w3.org/2000/svg">
  <sodipodi:namedview
     id="namedview7"
     pagecolor="#ffffff"
     bordercolor="#000000"
     borderopacity="0.25"
     inkscape:showpageshadow="2"
     inkscape:pageopacity="0.0"
     inkscape:pagecheckerboard="0"
     inkscape:deskcolor="#d1d1d1"
     inkscape:document-units="px"
     showgrid="false"
     inkscape:zoom="36.363636"
     inkscape:cx="11.01375"
     inkscape:cy="11"
     inkscape:window-width="1920"
     inkscape:window-height="1004"
     inkscape:window-x="0"
     inkscape:window-y="0"
     inkscape:window-maximized="1"
     inkscape:current-layer="svg5" />
  <defs
     id="defs2" />
  <rect
     style="opacity:0.2;fill:#000000;stroke-width:1.42857;stroke-linecap:square"
     id="rect234"
     width="20"
     height="20"
     x="1"
     y="1.4999995"
     ry="4.5" />
  <rect
     style="fill:#ded4c3;fill-opacity:1;stroke-width:1.42857;stroke-linecap:square"
     id="rect396"
     width="20"
     height="20"
     x="1"
     y="1"
     ry="4.5" />
  <rect
     style="opacity:0.2;fill:#000000;stroke-width:0.5"
     width="2"
     height="4"
     x="15"
     y="14.5"
     id="rect1" />
  <rect
     style="opacity:0.2;fill:#000000;stroke-width:0.5"
     width="2"
     height="4"
     x="5"
     y="14.5"
     id="rect2" />
  <rect
     style="fill:#3f3f3f;stroke-width:0.5"
     width="2"
     height="4"
     x="15"
     y="14"
     id="rect3" />
  <rect
     style="fill:#3f3f3f;stroke-width:0.5"
     width="2"
     height="4"
     x="5"
     y="14"
     id="rect4" />
  <rect
     style="opacity:0.2;fill:#000000;stroke-width:0.5"
     width="11"
     height="14"
     x="-16.5"
     y="-18"
     rx="1.0315"
     ry="1.05"
     transform="matrix(0,-1,-1,0,0,0)"
     id="rect5" />
  <rect
     style="fill:#89774f;stroke-width:0.5"
     width="11"
     height="14"
     x="-16"
     y="-18"
     ry="1.05"
     transform="matrix(0,-1,-1,0,0,0)"
     id="rect6" />
  <rect
     style="opacity:0.2;fill:#000000;stroke-width:0.5"
     width="10"
     height="7"
     x="6"
     y="7.5"
     ry="0.69999999"
     id="rect7" />
  <rect
     style="fill:#d5cfc1;stroke-width:0.5"
     width="10"
     height="7"
     x="6"
     y="7"
     ry="0.69999999"
     id="rect8" />
  <path
     style="opacity:0.1;fill:#ffffff;stroke-width:0.5"
     d="M 5.0498045,5 C 4.4681045,5 4,5.4599375 4,6.03125 v 0.5 C 4,5.9599375 4.4681045,5.5 5.0498045,5.5 H 16.950195 C 17.531895,5.5 18,5.9599375 18,6.53125 v -0.5 C 18,5.4599375 17.531895,5 16.950195,5 Z"
     id="path8" />
  <path
     style="opacity:0.2;fill:#ffffff;stroke-width:0.5"
     d="M 6.713867,7 C 6.318153,7 6,7.3123955 6,7.7001955 v 0.5 C 6,7.8123955 6.318153,7.5 6.713867,7.5 h 8.572266 C 15.681847,7.5 16,7.8123955 16,8.2001955 v -0.5 C 16,7.3123955 15.681847,7 15.286133,7 Z"
     id="path9" />
  <path
     id="path1040"
     style="opacity:0.2;fill:#ffffff;stroke-width:4;stroke-linecap:square"
     d="M 5.5,1.0000001 C 3.007005,1.0000001 1,3.0070051 1,5.5 V 6 C 1,3.5070051 3.007005,1.5000001 5.5,1.5000001 h 11 C 18.992996,1.5000001 21,3.5070051 21,6 V 5.5 C 21,3.0070052 18.992996,1.0000001 16.5,1.0000001 Z" />
</svg>
