<?xml version="1.0" encoding="UTF-8" standalone="no"?>
<!-- Created with Inkscape (http://www.inkscape.org/) -->

<svg
   width="22"
   height="22"
   viewBox="0 0 22 22"
   version="1.1"
   id="svg5"
   inkscape:version="1.3 (0e150ed6c4, 2023-07-21)"
   sodipodi:docname="seahorse.svg"
   xmlns:inkscape="http://www.inkscape.org/namespaces/inkscape"
   xmlns:sodipodi="http://sodipodi.sourceforge.net/DTD/sodipodi-0.dtd"
   xmlns="http://www.w3.org/2000/svg"
   xmlns:svg="http://www.w3.org/2000/svg">
  <sodipodi:namedview
     id="namedview7"
     pagecolor="#ffffff"
     bordercolor="#000000"
     borderopacity="0.25"
     inkscape:showpageshadow="2"
     inkscape:pageopacity="0.0"
     inkscape:pagecheckerboard="0"
     inkscape:deskcolor="#d1d1d1"
     inkscape:document-units="px"
     showgrid="false"
     inkscape:zoom="33.136364"
     inkscape:cx="11"
     inkscape:cy="11"
     inkscape:window-width="1920"
     inkscape:window-height="937"
     inkscape:window-x="0"
     inkscape:window-y="32"
     inkscape:window-maximized="1"
     inkscape:current-layer="svg5" />
  <defs
     id="defs2" />
  <rect
     style="opacity:0.2;fill:#000000;stroke-width:1.42857;stroke-linecap:square"
     id="rect234"
     width="20"
     height="20"
     x="1"
     y="1.4999995"
     ry="4.5" />
  <rect
     style="fill:#bbe8d3;fill-opacity:1;stroke-width:1.42857;stroke-linecap:square"
     id="rect396"
     width="20"
     height="20"
     x="1"
     y="1"
     ry="4.5" />
  <rect
     style="opacity:0.2;fill:#000000"
     id="rect1"
     width="14"
     height="11"
     x="4"
     y="6.5"
     ry="1" />
  <rect
     style="fill:#2cb978;fill-opacity:1"
     id="rect2"
     width="14"
     height="11"
     x="4"
     y="6"
     ry="1" />
  <path
     d="M 5.7011719,14.5 5.9023438,15.34375 5.25,14.798828 5.0039062,15.230469 5.84375,15.505859 5,15.771484 5.2402344,16.210938 5.9023438,15.660156 5.7011719,16.5 H 6.2714844 L 6.0878906,15.673828 6.7304688,16.226562 6.9765625,15.789062 6.1445312,15.507812 7,15.271484 6.7578125,14.833984 6.0820312,15.347656 6.2714844,14.5 Z m 3,0 0.2011719,0.84375 L 8.25,14.798828 8.0039062,15.230469 8.84375,15.505859 8,15.771484 8.2402344,16.210938 8.9023438,15.660156 8.7011719,16.5 H 9.271484 L 9.087891,15.673828 9.730469,16.226562 9.976563,15.789062 9.144531,15.507812 10,15.271484 9.757813,14.833984 9.082031,15.347656 9.271484,14.5 Z m 3.0000001,0 0.201172,0.84375 L 11.25,14.798828 11.003906,15.230469 11.84375,15.505859 11,15.771484 11.240234,16.210938 11.902344,15.660156 11.701172,16.5 h 0.570312 l -0.183593,-0.826172 0.642578,0.552734 0.246094,-0.4375 -0.832032,-0.28125 L 13,15.271484 12.757813,14.833984 12.082031,15.347656 12.271484,14.5 Z m 3,0 0.201172,0.84375 L 14.25,14.798828 14.003906,15.230469 14.84375,15.505859 14,15.771484 14.240234,16.210938 14.902344,15.660156 14.701172,16.5 h 0.570312 l -0.183593,-0.826172 0.642578,0.552734 0.246093,-0.4375 -0.832031,-0.28125 L 16,15.271484 15.757812,14.833984 15.082031,15.347656 15.271484,14.5 Z"
     style="opacity:0.2;fill:#000000"
     id="path1" />
  <path
     d="M 5.7011719,14 5.9023438,14.84375 5.25,14.298828 5.0039062,14.730469 5.84375,15.005859 5,15.271484 5.2402344,15.710938 5.9023438,15.160156 5.7011719,16 H 6.2714844 L 6.0878906,15.173828 6.7304688,15.726562 6.9765625,15.289062 6.1445312,15.007812 7,14.771484 6.7578125,14.333984 6.0820312,14.847656 6.2714844,14 Z m 3,0 0.2011719,0.84375 L 8.25,14.298828 8.0039062,14.730469 8.84375,15.005859 8,15.271484 8.2402344,15.710938 8.9023438,15.160156 8.7011719,16 H 9.271484 L 9.087891,15.173828 9.730469,15.726562 9.976563,15.289062 9.144531,15.007812 10,14.771484 9.757813,14.333984 9.082031,14.847656 9.271484,14 Z m 3.0000001,0 0.201172,0.84375 L 11.25,14.298828 11.003906,14.730469 11.84375,15.005859 11,15.271484 11.240234,15.710938 11.902344,15.160156 11.701172,16 h 0.570312 l -0.183593,-0.826172 0.642578,0.552734 0.246094,-0.4375 -0.832032,-0.28125 L 13,14.771484 12.757813,14.333984 12.082031,14.847656 12.271484,14 Z m 3,0 0.201172,0.84375 L 14.25,14.298828 14.003906,14.730469 14.84375,15.005859 14,15.271484 14.240234,15.710938 14.902344,15.160156 14.701172,16 h 0.570312 l -0.183593,-0.826172 0.642578,0.552734 0.246093,-0.4375 -0.832031,-0.28125 L 16,14.771484 15.757812,14.333984 15.082031,14.847656 15.271484,14 Z"
     style="fill:#b2f5c0"
     id="path2" />
  <path
     d="m 6,11 -1,1 1,1 z m 0.3333333,0 v 2 h 0.3333334 v -2 z m 0.6666666,0 v 2 h 0.6666668 v -2 z m 1,0 v 2 h 0.3333334 v -2 z m 0.6666668,0 v 2 h 0.3333332 v -2 z m 0.6666666,0 v 2 h 0.6666665 v -2 z m 1.0000007,0 v 2 H 11 v -2 z m 1,0 v 2 h 0.333333 V 11 Z M 12,11 v 2 h 0.333334 v -2 z m 0.666667,0 v 2 H 13 v -2 z m 0.666667,0 v 2 h 0.333333 V 11 Z M 14,11 v 2 h 0.666667 v -2 z m 1,0 v 2 h 0.333334 v -2 z"
     style="opacity:0.2"
     id="path3" />
  <rect
     style="fill:#3f3f3f;fill-opacity:1;stroke-width:1.41421"
     id="rect3"
     width="14"
     height="2"
     x="4"
     y="8" />
  <rect
     style="opacity:0.1;fill:#000000;stroke-width:0.57735"
     id="rect6"
     width="14"
     height="0.5"
     x="4"
     y="10" />
  <path
     id="rect4"
     style="opacity:0.2;fill:#ffffff;fill-opacity:1"
     d="M 5,6 C 4.4460006,6 4,6.4460006 4,7 v 0.5 c 0,-0.5539994 0.4460006,-1 1,-1 h 12 c 0.553999,0 1,0.4460006 1,1 V 7 C 18,6.4460006 17.553999,6 17,6 Z" />
  <path
     id="path5"
     style="opacity:0.2;fill:#000000;fill-opacity:1;stroke-width:1.16667;stroke-linecap:round;stroke-linejoin:round;paint-order:stroke fill markers"
     d="M 9.5,4.5 C 7.5670072,4.5 6,6.0670069 6,8 6.00313,8.9117331 6.3619104,9.7862637 7,10.4375 v 7.634766 L 7.4453125,18.5 H 8.666016 L 10.013672,17.214844 9.679688,16.927734 10.013672,16.642578 9.345703,16.072266 10.013672,15.5 9.679688,15.214844 l 0.333984,-0.28711 -0.5,-0.427734 0.5,-0.427734 V 13.642578 L 9.679688,13.357422 10.013672,13.072266 V 12.511719 L 11,12.488281 V 11.5 H 10 V 11.46484 C 11.722279,11.216262 13.000369,9.7401264 13,8 13,6.0670069 11.432993,4.4999999 9.5,4.5 Z m 0,1 c 0.552284,0 1,0.4477159 1,1 0,0.5522841 -0.447716,1 -1,1 -0.552284,0 -1,-0.4477159 -1,-1 0,-0.5522841 0.447716,-1 1,-1 z" />
  <path
     id="path6"
     style="fill:#e4e4e4;fill-opacity:1;stroke-width:1.16667;stroke-linecap:round;stroke-linejoin:round;paint-order:stroke fill markers"
     d="M 9.5,4 C 7.5670072,4 6,5.5670069 6,7.5 6.00313,8.4117331 6.3619104,9.2862637 7,9.9375 v 7.634766 L 7.4453125,18 H 8.666016 L 10.013672,16.714844 9.679688,16.427734 10.013672,16.142578 9.345703,15.572266 10.013672,15 9.679688,14.714844 10.013672,14.427734 9.513672,14 l 0.5,-0.427734 V 13.142578 L 9.679688,12.857422 10.013672,12.572266 V 12.011719 L 11,11.988281 V 11 H 10 V 10.96484 C 11.722279,10.716262 13.000369,9.2401264 13,7.5 13,5.5670069 11.432993,3.9999999 9.5,4 Z m 0,1 c 0.552284,0 1,0.4477159 1,1 0,0.5522841 -0.447716,1 -1,1 -0.552284,0 -1,-0.4477159 -1,-1 0,-0.5522841 0.447716,-1 1,-1 z" />
  <path
     id="rect5"
     style="opacity:0.2;fill:#000000;fill-opacity:1"
     d="M 8.5,11 C 8.2230003,11 8,11.223 8,11.5 V 18 H 8.6660156 L 9,17.681641 V 11.5 C 9,11.223 8.7769997,11 8.5,11 Z" />
  <path
     id="path7"
     style="opacity:0.2;fill:#ffffff;fill-opacity:1;stroke-width:1.16667;stroke-linecap:round;stroke-linejoin:round;paint-order:stroke fill markers"
     d="M 9.5,4 C 7.5670091,4 6,5.5670088 6,7.5 6.0002811,7.581869 6.0038,7.6630058 6.00977,7.7441406 6.141144,5.930949 7.6533034,4.5 9.5,4.5 c 1.841367,-1e-7 3.34934,1.4227702 3.488281,3.2285156 C 12.993216,7.6525072 13.000016,7.5771296 13,7.5 13,5.5670088 11.432991,3.9999999 9.5,4 Z M 8.5332031,6.25 C 8.5124586,6.3302274 8.5,6.4132893 8.5,6.5 c 0,0.5522835 0.4477166,1 1,1 0.552283,0 1,-0.4477165 1,-1 C 10.5,6.413289 10.48754,6.3302274 10.4668,6.25 10.355414,6.6807623 9.9655728,7 9.5,7 9.0344272,7 8.6445861,6.6807623 8.5332031,6.25 Z" />
  <path
     id="path1040"
     style="opacity:0.2;fill:#ffffff;stroke-width:4;stroke-linecap:square"
     d="M 5.5,1.0000001 C 3.007005,1.0000001 1,3.0070051 1,5.5 V 6 C 1,3.5070051 3.007005,1.5000001 5.5,1.5000001 h 11 C 18.992996,1.5000001 21,3.5070051 21,6 V 5.5 C 21,3.0070052 18.992996,1.0000001 16.5,1.0000001 Z" />
</svg>
