<?xml version="1.0" encoding="UTF-8" standalone="no"?>
<!-- Created with Inkscape (http://www.inkscape.org/) -->

<svg
   width="22"
   height="22"
   viewBox="0 0 22 22"
   version="1.1"
   id="svg5"
   inkscape:version="1.3 (0e150ed6c4, 2023-07-21)"
   sodipodi:docname="sheets.svg"
   xmlns:inkscape="http://www.inkscape.org/namespaces/inkscape"
   xmlns:sodipodi="http://sodipodi.sourceforge.net/DTD/sodipodi-0.dtd"
   xmlns="http://www.w3.org/2000/svg"
   xmlns:svg="http://www.w3.org/2000/svg">
  <sodipodi:namedview
     id="namedview7"
     pagecolor="#ffffff"
     bordercolor="#000000"
     borderopacity="0.25"
     inkscape:showpageshadow="2"
     inkscape:pageopacity="0.0"
     inkscape:pagecheckerboard="0"
     inkscape:deskcolor="#d1d1d1"
     inkscape:document-units="px"
     showgrid="false"
     inkscape:zoom="36.5"
     inkscape:cx="11"
     inkscape:cy="11"
     inkscape:window-width="1850"
     inkscape:window-height="1011"
     inkscape:window-x="70"
     inkscape:window-y="32"
     inkscape:window-maximized="1"
     inkscape:current-layer="svg5" />
  <defs
     id="defs2" />
  <rect
     style="opacity:0.2;fill:#000000;stroke-width:1.42857;stroke-linecap:square"
     id="rect234"
     width="20"
     height="20"
     x="1"
     y="1.5"
     ry="4.5" />
  <rect
     style="fill:#efefef;fill-opacity:1;stroke-width:1.42857;stroke-linecap:square"
     id="rect396"
     width="20"
     height="20"
     x="1"
     y="1"
     ry="4.5" />
  <rect
     style="opacity:0.2;fill:#000000;fill-opacity:1"
     id="rect3"
     width="14"
     height="8"
     x="4"
     y="10.5"
     ry="1" />
  <rect
     style="fill:#a8aebd;fill-opacity:1;stroke-width:1.52752;stroke-linecap:round;stroke-linejoin:round;paint-order:stroke fill markers"
     id="rect14869"
     width="14"
     height="8"
     x="4"
     y="10"
     ry="1" />
  <path
     id="rect4"
     style="opacity:0.1;fill:#ffffff;fill-opacity:1"
     d="m 5,10 c -0.5539994,0 -1,0.446001 -1,1 v 0.5 c 0,-0.553999 0.4460006,-1 1,-1 h 12 c 0.553999,0 1,0.446001 1,1 V 11 c 0,-0.553999 -0.446001,-1 -1,-1 z" />
  <path
     d="M 5,12.5 V 10.576923 C 5.750001,10.576923 5.750001,9.9 6.500001,9.9 7.25,9.9 7.0625,10.7 8,10.7 8.937501,10.7 8.75,9.653847 9.500001,9.653847 10.25,9.653847 10.25,8.3 11.000001,8.3 c 0.749998,0 0.749998,1.6 1.499998,1.6 C 13.25,9.9 13.25,9.038461 14,9.038461 14.75,9.038461 14.75,7.5 15.5,7.5 c 0.75,0 0.75,2.153847 1.5,2.153847 V 12.5 Z"
     style="opacity:0.2;fill:#000000;fill-opacity:1;stroke-width:0.894428"
     id="path524-7" />
  <path
     d="m 5,13.5 v 1 h 1 v -1 z m 2,0 v 1 h 1 v -1 z m 2,0 v 1 h 5 v -1 z m 6,0 v 1 h 2 v -1 z m -10,2 v 1 h 1 v -1 z m 2,0 v 1 h 1 v -1 z m 2,0 v 1 h 5 v -1 z m 6,0 v 1 h 2 v -1 z"
     style="opacity:0.2;fill:#000000;fill-opacity:1;stroke-width:1.1547;stroke-linecap:round;stroke-linejoin:round;paint-order:stroke fill markers"
     id="path1-1" />
  <path
     d="m 5,13 v 1 h 1 v -1 z m 2,0 v 1 h 1 v -1 z m 2,0 v 1 h 5 v -1 z m 6,0 v 1 h 2 V 13 Z M 5,15 v 1 h 1 v -1 z m 2,0 v 1 h 1 v -1 z m 2,0 v 1 h 5 v -1 z m 6,0 v 1 h 2 v -1 z"
     style="fill:#eff0f1;fill-opacity:1;stroke-width:1.1547;stroke-linecap:round;stroke-linejoin:round;paint-order:stroke fill markers"
     id="path1-9" />
  <rect
     style="fill:#00db94;fill-opacity:1;stroke-width:0.769301;stroke-linecap:round;stroke-linejoin:round;paint-order:stroke fill markers"
     id="rect601"
     width="2"
     height="3"
     x="5"
     y="8" />
  <rect
     style="fill:#0eaff8;fill-opacity:1;stroke-width:3.91947;stroke-linecap:round;stroke-linejoin:round;paint-order:stroke fill markers"
     id="rect603"
     width="2"
     height="6"
     x="9"
     y="5" />
  <rect
     style="fill:#f95757;fill-opacity:1;stroke-width:3.25232;stroke-linecap:round;stroke-linejoin:round;paint-order:stroke fill markers"
     id="rect605"
     width="2"
     height="5"
     x="7"
     y="6" />
  <rect
     style="fill:#f95757;fill-opacity:1;stroke-width:2.79761;stroke-linecap:round;stroke-linejoin:round;paint-order:stroke fill markers"
     id="rect607"
     width="2"
     height="4"
     x="11"
     y="7" />
  <rect
     style="fill:#00db94;fill-opacity:1;stroke-width:2.3007;stroke-linecap:round;stroke-linejoin:round;paint-order:stroke fill markers"
     id="rect609"
     width="2"
     height="7"
     x="13"
     y="4" />
  <rect
     style="fill:#f95757;fill-opacity:1;stroke-width:0.912871;stroke-linecap:round;stroke-linejoin:round;paint-order:stroke fill markers"
     id="rect1012"
     width="2"
     height="6"
     x="15"
     y="5" />
  <path
     d="M 4.9999999,12 V 10.076923 C 5.7500004,10.076923 5.7500004,9.4 6.5000005,9.4 c 0.7499996,0 0.5624999,0.8 1.4999997,0.8 0.9375004,0 0.75,-1.046153 1.5000008,-1.046153 0.749999,0 0.749999,-1.3538471 1.5,-1.3538471 C 11.749999,7.7999999 11.749999,9.4 12.499999,9.4 13.25,9.4 13.25,8.5384611 14,8.5384611 14.75,8.5384611 14.75,7 15.5,7 16.25,7 16.25,9.153847 17,9.153847 V 12 Z"
     style="fill:#ffbb27;fill-opacity:1;stroke-width:0.894428"
     id="path524" />
  <path
     id="path1"
     style="opacity:0.2;fill:#ffffff;fill-opacity:1;stroke-width:0.894428"
     d="m 15.5,7 c -0.749999,0 -0.750001,1.5390625 -1.5,1.5390625 -0.749999,0 -0.75,0.8613281 -1.5,0.8613281 -0.749999,0 -0.750003,-1.5996093 -1.5,-1.5996094 -0.75,10e-8 -0.750002,1.3535157 -1.5,1.3535157 -0.7500002,0 -0.5624999,1.0449221 -1.5,1.0449221 -0.9374987,0 -0.7500011,-0.7988284 -1.5,-0.7988284 -0.7499993,0 -0.7500003,0.6757814 -1.5,0.6757814 v 0.5 c 0.7499997,0 0.7500007,-0.6757814 1.5,-0.6757814 0.7499989,0 0.5625013,0.7988284 1.5,0.7988284 0.9375001,0 0.7499999,-1.0449221 1.5,-1.0449221 0.749998,0 0.75,-1.3535156 1.5,-1.3535157 0.749997,0 0.750001,1.5996094 1.5,1.5996094 0.75,0 0.750001,-0.8613281 1.5,-0.8613281 0.749999,0 0.750001,-1.5390625 1.5,-1.5390625 0.749999,0 0.750001,2.1542969 1.5,2.1542969 v -0.5 C 16.250001,9.1542969 16.249999,7 15.5,7 Z" />
  <path
     id="rect2"
     style="opacity:0.2;fill:#ffffff;fill-opacity:1"
     d="m 13,4 v 0.5 h 2 V 4 Z M 9,5 v 0.5 h 2 V 5 Z m 6,0 v 0.5 h 2 V 5 Z M 7,6 V 6.5 H 9 V 6 Z m 4,1 v 0.5 h 2 V 7 Z M 5,8 V 8.5 H 7 V 8 Z" />
  <path
     id="path1040"
     style="opacity:0.2;fill:#ffffff;stroke-width:4;stroke-linecap:square"
     d="M 5.5,1 C 3.0070049,1 1,3.0070048 1,5.5 V 6 C 1,3.5070048 3.0070049,1.5 5.5,1.5 h 11 C 18.992996,1.5 21,3.5070048 21,6 V 5.5 C 21,3.0070048 18.992996,1 16.5,1 Z" />
</svg>
