<?xml version="1.0" encoding="UTF-8" standalone="no"?>
<!-- Created with Inkscape (http://www.inkscape.org/) -->

<svg
   width="22"
   height="22"
   viewBox="0 0 22 22"
   version="1.1"
   id="svg5"
   inkscape:version="1.2.2 (1:1.2.2+202305151914+b0a8486541)"
   sodipodi:docname="steamlink.svg"
   xmlns:inkscape="http://www.inkscape.org/namespaces/inkscape"
   xmlns:sodipodi="http://sodipodi.sourceforge.net/DTD/sodipodi-0.dtd"
   xmlns="http://www.w3.org/2000/svg"
   xmlns:svg="http://www.w3.org/2000/svg">
  <sodipodi:namedview
     id="namedview7"
     pagecolor="#ffffff"
     bordercolor="#000000"
     borderopacity="0.25"
     inkscape:showpageshadow="2"
     inkscape:pageopacity="0.0"
     inkscape:pagecheckerboard="0"
     inkscape:deskcolor="#d1d1d1"
     inkscape:document-units="px"
     showgrid="false"
     inkscape:zoom="36.636364"
     inkscape:cx="11"
     inkscape:cy="11"
     inkscape:window-width="1920"
     inkscape:window-height="1008"
     inkscape:window-x="0"
     inkscape:window-y="0"
     inkscape:window-maximized="1"
     inkscape:current-layer="svg5" />
  <defs
     id="defs2" />
  <rect
     style="opacity:0.2;fill:#000000;stroke-width:1.42857;stroke-linecap:square"
     id="rect234"
     width="20"
     height="20"
     x="1"
     y="1.5"
     ry="4.5" />
  <rect
     style="fill:#1955aa;fill-opacity:1;stroke-width:1.42857;stroke-linecap:square"
     id="rect396"
     width="20"
     height="20"
     x="1"
     y="1"
     ry="4.5" />
  <path
     d="m 11,4.5 c -3.865993,0 -7.0000003,3.1340065 -7.0000003,7 0,3.865992 3.1340073,6.999999 7.0000003,6.999999 3.865993,0 7,-3.134007 7,-6.999999 0,-3.8659935 -3.134007,-7 -7,-7 z m -0.01367,3.0000005 c 1.495886,-5.9e-5 2.989842,0.01994 3.189453,0.06055 0.474973,0.09667 0.616737,0.297169 0.994141,1.404296 0.383393,1.1246945 0.707822,1.6740355 0.80664,2.8491715 0.05723,0.68065 0.01069,1.147444 -0.162109,1.597656 -0.259896,0.677271 -0.982454,1.187212 -1.515625,1.070314 -0.274304,-0.06015 -0.442882,-0.297455 -0.892578,-1.251953 -0.229259,-0.486611 -0.466378,-0.634748 -0.535156,-0.716361 H 9.103518 l -0.01563,0.01953 c -0.06648,0.08696 -0.278874,0.196839 -0.472657,0.612845 -0.193783,0.416006 -0.402873,0.844335 -0.46289,0.951172 -0.198374,0.353127 -0.618182,0.495338 -1,0.335937 -0.473273,-0.19758 -0.862174,-0.621631 -1.029294,-1.123046 -0.326169,-0.978602 0.01254,-2.412274 0.779297,-4.6011245 0.298608,-0.852434 0.461733,-1.063543 0.886718,-1.148438 0.203448,-0.04064 1.70138,-0.06049 3.197266,-0.06055 z m -1.98633,1 c -0.552285,0 -1,0.447715 -1,1 0,0.5522845 0.447715,1.0000005 1,1.0000005 0.552285,0 1,-0.447716 1,-1.0000005 0,-0.552285 -0.447715,-1 -1,-1 z m 4,0 c -0.552285,0 -1,0.447715 -1,1 0,0.5522845 0.447715,1.0000005 1,1.0000005 0.552285,0 1,-0.447716 1,-1.0000005 0,-0.552285 -0.447715,-1 -1,-1 z"
     style="fill:#000000;opacity:0.2"
     id="path1225" />
  <path
     d="m 11,4.0000001 c -3.8659932,0 -7,3.1340068 -7,6.9999999 0,3.865993 3.1340067,7 7,7 3.865993,0 7,-3.134007 7,-7 0,-3.8659931 -3.134007,-6.9999999 -7,-6.9999999 z m -0.01367,3 c 1.495886,-5.83e-5 2.989842,0.019937 3.189453,0.060547 0.474973,0.096669 0.616737,0.2971691 0.994141,1.404297 0.383393,1.1246951 0.707822,1.6740349 0.80664,2.8491719 0.05723,0.680649 0.01069,1.147444 -0.162109,1.597656 -0.259896,0.677271 -0.982454,1.187211 -1.515625,1.070313 -0.274304,-0.06015 -0.442882,-0.297454 -0.892578,-1.251953 -0.229259,-0.48661 -0.466378,-0.634747 -0.535156,-0.71636 H 9.103518 l -0.01563,0.01953 c -0.06648,0.08696 -0.2788737,0.196839 -0.4726566,0.612844 -0.193783,0.416006 -0.402873,0.844336 -0.4628906,0.951172 -0.1983733,0.353128 -0.6181816,0.495338 -1,0.335938 C 6.6790682,13.735576 6.2901674,13.311525 6.1230469,12.81011 5.7968786,11.831508 6.1355838,10.397835 6.9023437,8.2089846 7.200952,7.3565505 7.3640777,7.1454418 7.7890625,7.060547 7.9925105,7.0199081 9.490442,7.0000584 10.986328,7.0000001 Z M 9,8.0000002 c -0.5522847,0 -1,0.4477153 -1,1 C 8,9.5522852 8.4477153,10 9,10 c 0.552285,0 1,-0.4477148 1,-0.9999998 0,-0.5522847 -0.447715,-1 -1,-1 z m 4,0 c -0.552285,0 -1,0.4477153 -1,1 C 12,9.5522852 12.447715,10 13,10 c 0.552285,0 1,-0.4477148 1,-0.9999998 0,-0.5522847 -0.447715,-1 -1,-1 z"
     style="fill:#ffffff"
     id="path1072" />
  <path
     id="path1040"
     style="opacity:0.1;fill:#ffffff;stroke-width:4;stroke-linecap:square"
     d="m 5.5,1.000001 c -2.4929947,0 -4.4999998,2.0070049 -4.4999998,4.5 v 0.5 c 0,-2.4929951 2.007005,-4.5 4.4999998,-4.5 h 11 c 2.492996,0 4.5,2.0070049 4.5,4.5 v -0.5 c 0,-2.4929951 -2.007004,-4.5 -4.5,-4.5 z" />
</svg>
