<?xml version="1.0" encoding="UTF-8" standalone="no"?>
<!-- Created with Inkscape (http://www.inkscape.org/) -->

<svg
   width="22"
   height="22"
   viewBox="0 0 22 22"
   version="1.1"
   id="svg5"
   inkscape:version="1.2.2 (1:1.2.2+202305151914+b0a8486541)"
   sodipodi:docname="steam.svg"
   xmlns:inkscape="http://www.inkscape.org/namespaces/inkscape"
   xmlns:sodipodi="http://sodipodi.sourceforge.net/DTD/sodipodi-0.dtd"
   xmlns="http://www.w3.org/2000/svg"
   xmlns:svg="http://www.w3.org/2000/svg">
  <sodipodi:namedview
     id="namedview7"
     pagecolor="#ffffff"
     bordercolor="#000000"
     borderopacity="0.25"
     inkscape:showpageshadow="2"
     inkscape:pageopacity="0.0"
     inkscape:pagecheckerboard="0"
     inkscape:deskcolor="#d1d1d1"
     inkscape:document-units="px"
     showgrid="false"
     inkscape:zoom="36.636364"
     inkscape:cx="10.986352"
     inkscape:cy="11"
     inkscape:window-width="1920"
     inkscape:window-height="1008"
     inkscape:window-x="0"
     inkscape:window-y="0"
     inkscape:window-maximized="1"
     inkscape:current-layer="svg5" />
  <defs
     id="defs2" />
  <rect
     style="opacity:0.2;fill:#000000;stroke-width:1.42857;stroke-linecap:square"
     id="rect234"
     width="20"
     height="20"
     x="1"
     y="1.5"
     ry="4.5" />
  <rect
     style="fill:#1955aa;fill-opacity:1;stroke-width:1.42857;stroke-linecap:square"
     id="rect396"
     width="20"
     height="20"
     x="1"
     y="1"
     ry="4.5" />
  <path
     d="m 14,5.499999 c -2.139645,0.001 -3.89959,1.685687 -3.99414,3.823242 l -1.9082035,3.180664 c -0.03253,-0.0018 -0.06508,-0.0031 -0.09766,-0.0039 -0.644546,0.0013 -1.271527,0.210207 -1.788086,0.595703 L 1,10.749999 v 3.5 l 4.022461,1.598633 c 0.1767764,1.510864 1.4563685,2.650285 2.9775395,2.651367 1.6568536,0 2.9999995,-1.343146 2.9999995,-3 -9.37e-4,-0.02703 -0.0022,-0.05406 -0.0039,-0.08105 l 3.315429,-1.93457 C 16.392167,13.321838 17.998187,11.586981 18,9.499999 c 0,-2.209139 -1.790861,-4 -4,-4 z m 0,1.5 c 1.380711,0 2.5,1.119288 2.5,2.5 0,1.380712 -1.119289,2.5 -2.5,2.5 -1.380713,0 -2.5,-1.119288 -2.5,-2.5 0,-1.380712 1.119287,-2.5 2.5,-2.5 z m 0,0.5 c -1.10457,0 -2,0.89543 -2,2 0,1.104569 0.89543,2 2,2 1.104568,0 2,-0.895431 2,-2 0,-1.10457 -0.895432,-2 -2,-2 z m -5.9999995,6 c 1.1045686,0 1.9999995,0.895431 1.9999995,2 0,1.104569 -0.8954309,2 -1.9999995,2 -0.772624,-10e-4 -1.475564,-0.44695 -1.805664,-1.145508 l 1.211914,0.522461 c 1.8664796,0.870196 3.1015085,-1.993933 1.1875,-2.753906 l -1.211914,-0.522461 c 0.199493,-0.06578 0.408105,-0.09973 0.618164,-0.100586 z"
     style="opacity:0.2;fill:#000000"
     id="path441" />
  <path
     d="m 14,5 c -2.131931,0.0049 -3.885358,1.681003 -3.986328,3.810546 l -1.9160156,3.191406 c -0.032539,-0.0012 -0.065096,-0.0018 -0.097656,-0.002 -0.6322171,0.0027 -1.24743,0.205009 -1.7578125,0.578125 L 1.0000002,10.249999 v 3.5 l 4.0292969,1.652344 c 0.2012423,1.486971 1.470176,2.596558 2.9707031,2.597656 1.6568539,0 2.9999998,-1.343146 2.9999998,-3 -2.77e-4,-0.02735 -9.28e-4,-0.0547 -0.002,-0.08203 l 3.328125,-1.941406 C 16.398039,12.807057 17.994742,11.078782 18,8.999999 18,6.79086 16.209139,5 14,5 Z m 0,1.5 c 1.380712,0 2.5,1.119288 2.5,2.499999 0,1.380712 -1.119288,2.5 -2.5,2.5 -1.380712,0 -2.5,-1.119288 -2.5,-2.5 C 11.5,7.619288 12.619288,6.5 14,6.5 Z M 14,7 c -1.104569,0 -2,0.89543 -2,1.999999 0,1.104569 0.895431,2 2,2 1.104569,0 2,-0.895431 2,-2 C 16,7.89543 15.104569,7 14,7 Z m -5.9999998,5.999999 c 1.1045699,0 1.9999998,0.895432 1.9999998,2 0,1.104569 -0.8954299,2 -1.9999998,2 C 7.243211,16.996799 6.553062,16.566658 6.2167971,15.888671 l 1.1894531,0.488281 c 1.8664759,0.870195 3.1015048,-1.993935 1.1875,-2.753906 L 7.4082033,13.095702 c 0.1913371,-0.06145 0.3908434,-0.09372 0.5917969,-0.0957 z"
     style="fill:#ffffff"
     id="path363" />
  <path
     id="path1040"
     style="opacity:0.1;fill:#ffffff;stroke-width:4;stroke-linecap:square"
     d="m 5.5,1.000001 c -2.4929947,0 -4.4999998,2.0070049 -4.4999998,4.5 v 0.5 c 0,-2.4929951 2.007005,-4.5 4.4999998,-4.5 h 11 c 2.492996,0 4.5,2.0070049 4.5,4.5 v -0.5 c 0,-2.4929951 -2.007004,-4.5 -4.5,-4.5 z" />
</svg>
