<?xml version="1.0" encoding="UTF-8" standalone="no"?>
<!-- Created with Inkscape (http://www.inkscape.org/) -->

<svg
   width="22"
   height="22"
   viewBox="0 0 22 22"
   version="1.1"
   id="svg5"
   inkscape:version="1.2.2 (1:1.2.2+202305151914+b0a8486541)"
   sodipodi:docname="steamdeck-gaming-return.svg"
   xmlns:inkscape="http://www.inkscape.org/namespaces/inkscape"
   xmlns:sodipodi="http://sodipodi.sourceforge.net/DTD/sodipodi-0.dtd"
   xmlns="http://www.w3.org/2000/svg"
   xmlns:svg="http://www.w3.org/2000/svg">
  <sodipodi:namedview
     id="namedview7"
     pagecolor="#ffffff"
     bordercolor="#000000"
     borderopacity="0.25"
     inkscape:showpageshadow="2"
     inkscape:pageopacity="0.0"
     inkscape:pagecheckerboard="0"
     inkscape:deskcolor="#d1d1d1"
     inkscape:document-units="px"
     showgrid="false"
     inkscape:zoom="36.636364"
     inkscape:cx="10.986352"
     inkscape:cy="11"
     inkscape:window-width="1920"
     inkscape:window-height="1008"
     inkscape:window-x="0"
     inkscape:window-y="0"
     inkscape:window-maximized="1"
     inkscape:current-layer="svg5" />
  <defs
     id="defs2" />
  <rect
     style="opacity:0.2;fill:#000000;stroke-width:1.42857;stroke-linecap:square"
     id="rect234"
     width="20"
     height="20"
     x="1"
     y="1.5"
     ry="4.5" />
  <rect
     style="fill:#4f4f4f;fill-opacity:1;stroke-width:1.42857;stroke-linecap:square"
     id="rect396"
     width="20"
     height="20"
     x="1"
     y="1"
     ry="4.5" />
  <path
     d="m 11,3.5 v 2 c 3.313708,0 6,2.6862915 6,6 0,3.313709 -2.686292,6 -6,6 v 2 c 4.418278,0 8,-3.581722 8,-8 0,-4.418278 -3.581722,-8 -8,-8 z m 0,4 c -2.209139,0 -4,1.7908607 -4,4 0,2.209139 1.790861,4 4,4 2.209139,0 4,-1.790861 4,-4 0,-2.2091393 -1.790861,-4 -4,-4 z"
     style="opacity:0.2;fill:#000000;fill-opacity:1;stroke-width:2.28571;stroke-linecap:round;stroke-linejoin:round"
     id="path1087" />
  <circle
     style="fill:#556af7;fill-opacity:1;stroke-width:2;stroke-linecap:round;stroke-linejoin:round"
     id="path466"
     cx="11"
     cy="11"
     r="4" />
  <path
     d="m 10.146485,8.646409 -2.0000009,2 c -0.093773,0.09375 -0.1464645,0.220915 -0.1464844,0.353516 1.99e-5,0.132601 0.052712,0.259763 0.1464844,0.353516 l 2.0000009,2 c 0.195252,0.195212 0.511777,0.195212 0.707031,0 0.195212,-0.195254 0.195212,-0.511778 0,-0.707032 L 9.7070311,11.499925 h 3.7929699 c 0.276142,0 0.5,-0.223858 0.5,-0.5 0,-0.276142 -0.223858,-0.5 -0.5,-0.5 H 9.7070311 L 10.853516,9.35344 c 0.195212,-0.195253 0.195212,-0.511778 0,-0.707031 -0.195253,-0.195212 -0.511778,-0.195212 -0.707031,0 z"
     style="color:#000000;opacity:0.2;fill:#000000;stroke-linecap:round;stroke-linejoin:round;-inkscape-stroke:none"
     id="path376" />
  <path
     d="M 10.146485,8.1464089 8.1464844,10.146409 C 8.0527114,10.240159 8.0000199,10.367324 8,10.499925 c 1.99e-5,0.132601 0.052712,0.259763 0.1464844,0.353516 l 2.0000006,2 c 0.195252,0.195212 0.511777,0.195212 0.707031,0 0.195212,-0.195254 0.195212,-0.511778 0,-0.707032 L 9.7070312,10.999925 h 3.7929698 c 0.276142,0 0.5,-0.223858 0.5,-0.5 0,-0.276142 -0.223858,-0.5000001 -0.5,-0.5000001 H 9.7070312 L 10.853516,8.8534401 c 0.195212,-0.1952535 0.195212,-0.5117777 0,-0.7070312 -0.195253,-0.1952118 -0.511778,-0.1952118 -0.707031,0 z"
     style="color:#000000;fill:#ffffff;stroke-linecap:round;stroke-linejoin:round;-inkscape-stroke:none"
     id="path715" />
  <path
     id="path1159"
     style="opacity:0.1;fill:#ffffff;fill-opacity:1;stroke-width:4;stroke-linecap:square"
     d="M 11,7 A 4,4 0 0 0 7,11 4,4 0 0 0 7.017578,11.25 4,4 0 0 1 11,7.5 4,4 0 0 1 14.986328,11.185547 4,4 0 0 0 14.999998,11 a 4,4 0 0 0 -4,-4 z" />
  <path
     id="path344"
     style="fill:#e4e4e4;fill-opacity:1;stroke-width:2.28571;stroke-linecap:round;stroke-linejoin:round"
     d="m 11,3 v 2 c 3.313708,0 6,2.6862915 6,6 0,3.313708 -2.686292,6 -6,6 v 2 c 4.418278,0 8,-3.581722 8,-8 0,-4.418278 -3.581722,-8 -8,-8 z" />
  <path
     id="path1249"
     style="opacity:0.2;fill:#ffffff;fill-opacity:1;stroke-width:2.28571;stroke-linecap:round;stroke-linejoin:round"
     d="m 11,3 v 0.5 c 4.334515,0 7.861884,3.4475688 7.994141,7.75 0.0026,-0.08314 0.0059,-0.166242 0.0059,-0.25 0,-4.4182736 -3.581726,-8 -8,-8 z m 5.994141,8.25 C 16.862862,14.447569 14.229817,17 11,17 v 0.5 c 3.313705,0 6,-2.686295 6,-6 0,-0.08389 -0.0024,-0.16695 -0.0059,-0.25 z" />
  <path
     id="path1040"
     style="opacity:0.1;fill:#ffffff;stroke-width:4;stroke-linecap:square"
     d="M 5.5,1.0000001 C 3.0070052,1.0000001 1.0000001,3.007005 1.0000001,5.5 V 6 c 0,-2.492995 2.007005,-4.4999999 4.4999999,-4.4999999 h 11 C 18.992996,1.5000001 21,3.507005 21,6 V 5.5 C 21,3.007005 18.992996,1.0000001 16.5,1.0000001 Z" />
</svg>
