<?xml version="1.0" encoding="UTF-8" standalone="no"?>
<!-- Created with Inkscape (http://www.inkscape.org/) -->

<svg
   width="22"
   height="22"
   viewBox="0 0 22 22"
   version="1.1"
   id="svg5"
   inkscape:version="1.3.2 (091e20ef0f, 2023-11-25, custom)"
   sodipodi:docname="sublime-merge.svg"
   xmlns:inkscape="http://www.inkscape.org/namespaces/inkscape"
   xmlns:sodipodi="http://sodipodi.sourceforge.net/DTD/sodipodi-0.dtd"
   xmlns="http://www.w3.org/2000/svg"
   xmlns:svg="http://www.w3.org/2000/svg">
  <sodipodi:namedview
     id="namedview7"
     pagecolor="#ffffff"
     bordercolor="#000000"
     borderopacity="0.25"
     inkscape:showpageshadow="2"
     inkscape:pageopacity="0.0"
     inkscape:pagecheckerboard="0"
     inkscape:deskcolor="#d1d1d1"
     inkscape:document-units="px"
     showgrid="false"
     inkscape:zoom="37.363636"
     inkscape:cx="11"
     inkscape:cy="11"
     inkscape:window-width="1920"
     inkscape:window-height="1008"
     inkscape:window-x="0"
     inkscape:window-y="0"
     inkscape:window-maximized="1"
     inkscape:current-layer="svg5" />
  <defs
     id="defs2" />
  <rect
     style="opacity:0.2;fill:#000000;stroke-width:1.42857;stroke-linecap:square"
     id="rect234"
     width="20"
     height="20"
     x="1"
     y="1.4999995"
     ry="4.5" />
  <rect
     style="fill:#4d4d4d;fill-opacity:1;stroke-width:1.42857;stroke-linecap:square"
     id="rect396"
     width="20"
     height="20"
     x="1"
     y="1"
     ry="4.5" />
  <path
     style="opacity:0.2;fill-rule:evenodd"
     d="m 6.2247347,5.204746 c -0.077565,0.0137 -0.1495775,0.057342 -0.1982425,0.126953 l -1.970703,2.813477 c -0.097645,0.1392225 -0.063712,0.331066 0.075195,0.428711 l 4.203125,2.913086 2.7861328,-1.935547 c 0.06016,-0.04221 0.130868,-0.06004 0.199219,-0.05469 l 0.002,-0.002 h 1.148438 L 6.4552032,5.2555275 C 6.3857497,5.2067075 6.3022992,5.1910445 6.2247347,5.204746 Z m 11.6855463,6.077149 c 0.08448,0.08339 0.105926,0.204275 0.07227,0.310547 0.03419,-0.106651 0.0127,-0.22714 -0.07227,-0.310547 z"
     id="path3" />
  <path
     style="fill:#9adede;fill-rule:evenodd"
     d="m 6.2247347,4.704746 c -0.077565,0.0137 -0.1495775,0.057342 -0.1982425,0.126953 l -1.970703,2.813477 c -0.097645,0.1392225 -0.063712,0.331066 0.075195,0.428711 l 4.5634765,3.163086 2.4257813,-1.685547 c 0.06016,-0.04221 0.130868,-0.06004 0.199219,-0.05469 l 0.002,-0.002 h 4.655272 c 0.08347,0 0.159408,0.03372 0.214844,0.08789 0.0066,0.0063 0.07017,0.06651 0.163086,0.166992 v -0.003 l 1.522464,1.502946 0.0332,-0.03223 c 0.120008,-0.120323 0.121114,-0.316655 0,-0.435547 L 16.427862,9.326818 c -0.128829,-0.139537 -0.222279,-0.223917 -0.23047,-0.232422 -0.05607,-0.05701 -0.134397,-0.0918 -0.220703,-0.0918 H 12.480596 L 6.4552052,4.755529 C 6.3857522,4.706709 6.3023012,4.691046 6.2247367,4.704748 Z"
     id="path4" />
  <path
     id="path5"
     style="opacity:0.2;fill:#000000;fill-rule:evenodd"
     d="m 11.320437,9.4938086 v 0.00195 c -0.06835,-0.00536 -0.139058,0.012477 -0.199218,0.054687 L 4.1309846,14.407871 c -0.1389079,0.09764 -0.1718637,0.30609 -0.074219,0.445313 l 1.96875,2.814453 c 0.09733,0.13891 0.2907802,0.173812 0.4296875,0.07617 l 6.0234379,-4.234375 h 3.498046 c 0.08631,0 0.164634,-0.03642 0.220704,-0.09375 0.0082,-0.0085 0.107689,-0.09704 0.242187,-0.244141 l 1.470703,-1.455078 c 0.120009,-0.120324 0.120781,-0.314364 0,-0.433594 l -1.55664,-1.5371072 v 0.00391 C 16.260721,9.6491899 16.198131,9.588003 16.191531,9.581703 16.136091,9.527533 16.060157,9.493812 15.976687,9.493812 Z" />
  <path
     style="fill:#00c8c6;fill-rule:evenodd"
     d="m 11.319719,8.9968145 0.0013,-0.0019 h 4.65577 c 0.08347,0 0.159382,0.03339 0.214819,0.087566 0.0066,0.0063 0.06993,0.06646 0.162847,0.166942 v -0.0028 l 1.555703,1.5357245 c 0.120781,0.11923 0.120009,0.314983 0,0.435307 l -1.470973,1.453583 c -0.134498,0.147097 -0.234033,0.236237 -0.242223,0.244742 -0.05607,0.05733 -0.133867,0.09292 -0.220173,0.09292 H 12.478583 L 6.4548392,17.2436 C 6.3159317,17.34124 6.1237917,17.30723 6.0264617,17.16832 l -1.970576,-2.814402 c -0.097645,-0.139223 -0.063627,-0.348123 0.075281,-0.445767 L 11.12065,9.051307 c 0.06016,-0.04221 0.130718,-0.059847 0.199069,-0.054493 z"
     id="path6" />
  <path
     id="path1040"
     style="opacity:0.1;fill:#ffffff;stroke-width:4;stroke-linecap:square"
     d="M 5.5,1.0000001 C 3.007005,1.0000001 1,3.0070051 1,5.5 V 6 C 1,3.5070051 3.007005,1.5000001 5.5,1.5000001 h 11 C 18.992996,1.5000001 21,3.5070051 21,6 V 5.5 C 21,3.0070052 18.992996,1.0000001 16.5,1.0000001 Z" />
</svg>
