<?xml version="1.0" encoding="UTF-8" standalone="no"?>
<!-- Created with Inkscape (http://www.inkscape.org/) -->

<svg
   width="22"
   height="22"
   viewBox="0 0 22 22"
   version="1.1"
   id="svg5"
   inkscape:version="1.3.2 (091e20ef0f, 2023-11-25, custom)"
   sodipodi:docname="supertuxkart.svg"
   xmlns:inkscape="http://www.inkscape.org/namespaces/inkscape"
   xmlns:sodipodi="http://sodipodi.sourceforge.net/DTD/sodipodi-0.dtd"
   xmlns="http://www.w3.org/2000/svg"
   xmlns:svg="http://www.w3.org/2000/svg">
  <sodipodi:namedview
     id="namedview7"
     pagecolor="#ffffff"
     bordercolor="#000000"
     borderopacity="0.25"
     inkscape:showpageshadow="2"
     inkscape:pageopacity="0.0"
     inkscape:pagecheckerboard="0"
     inkscape:deskcolor="#d1d1d1"
     inkscape:document-units="px"
     showgrid="false"
     inkscape:zoom="36.136364"
     inkscape:cx="10.986164"
     inkscape:cy="11"
     inkscape:window-width="1920"
     inkscape:window-height="1008"
     inkscape:window-x="0"
     inkscape:window-y="0"
     inkscape:window-maximized="1"
     inkscape:current-layer="svg5" />
  <defs
     id="defs2" />
  <rect
     style="opacity:0.2;fill:#000000;stroke-width:1.42857;stroke-linecap:square"
     id="rect234"
     width="20"
     height="20"
     x="1"
     y="1.5"
     ry="4.5" />
  <rect
     style="fill:#efefef;fill-opacity:1;stroke-width:1.42857;stroke-linecap:square"
     id="rect396"
     width="20"
     height="20"
     x="1"
     y="1"
     ry="4.5" />
  <path
     fill="#303030"
     d="M 4.67675,14.000175 C 4.302,14.000175 4,14.298175 4,14.667175 v 2.666 c 0,0.369 0.302,0.667 0.67675,0.667 h 0.6465 c 0.37475,0 0.67675,-0.298 0.67675,-0.667 v -2.666 c 0,-0.369 -0.302,-0.667 -0.67675,-0.667 z m 11.999,0 c -0.375,0 -0.676,0.298 -0.676,0.667 v 2.666 c 0,0.369 0.301,0.667 0.676,0.667 h 0.64745 c 0.3745,0 0.6765,-0.298 0.6765,-0.667 v -2.666 c 0,-0.369 -0.302,-0.667 -0.677,-0.667 h -0.64745 z"
     id="path1"
     style="stroke-width:0.5" />
  <path
     opacity="0.2"
     d="m 4,17.333175 v 0.5 c 0,0.369 0.302,0.667 0.67675,0.667 h 0.6465 c 0.37475,0 0.67675,-0.298 0.67675,-0.667 v -0.5 c 0,0.369 -0.302,0.667 -0.67675,0.667 H 4.67675 C 4.302,18.000175 4,17.702175 4,17.333175 Z m 12,0 v 0.5 c 0,0.369 0.301,0.667 0.676,0.667 h 0.64745 c 0.3745,0 0.6765,-0.298 0.6765,-0.667 v -0.5 c 0,0.369 -0.302,0.667 -0.677,0.667 h -0.6475 c -0.3745,0 -0.6755,-0.298 -0.6755,-0.667 z"
     id="path2"
     style="fill:#000000;stroke-width:0.5" />
  <path
     d="m 11.000741,4.000175 c -2.5844115,0 -4.67987,2.0414765 -4.67987,4.560842 0,0.44324 0.067365,0.870449 0.1886715,1.275573 0,0 -0.716383,2.55027 -0.485347,3.809043 0.067309,0.366695 0.205521,0.719669 0.388292,1.052064 0.711903,-0.959349 2.5410105,-1.596348 4.5874695,-1.597748 2.045479,6e-4 3.874867,0.636404 4.58887,1.594807 0.182186,-0.331578 0.320412,-0.683583 0.387591,-1.049298 C 16.207636,12.386791 15.491071,9.836415 15.491071,9.836415 15.612833,9.431256 15.679743,9.004046 15.679743,8.5608425 15.680093,6.0419315 13.586034,4 11.000923,4 Z"
     id="path3"
     style="fill:#4f4f4f;stroke-width:0.350001" />
  <circle
     opacity="0.2"
     cx="9"
     cy="7.5"
     r="1"
     id="circle4"
     style="fill:#000000;stroke-width:0.5" />
  <circle
     fill="#ffffff"
     cx="9"
     cy="7"
     r="1"
     id="circle5"
     style="stroke-width:0.5" />
  <circle
     opacity="0.2"
     cx="13"
     cy="7.5"
     r="1"
     id="circle6"
     style="fill:#000000;stroke-width:0.5" />
  <circle
     fill="#ffffff"
     cx="13"
     cy="7"
     r="1"
     id="circle7"
     style="stroke-width:0.5" />
  <ellipse
     fill="#ffffff"
     cx="11"
     cy="12.750175"
     rx="3.5"
     ry="3.8499999"
     id="ellipse7"
     style="stroke-width:0.5" />
  <path
     opacity="0.3"
     d="m 6.3359225,8.263614 c -0.00655,0.098738 -0.015625,0.196517 -0.015625,0.2968705 0,0.347815 0.052425,0.6826405 0.128904,1.0077855 C 6.4722665,9.48063 6.5097455,9.336829 6.5097455,9.336829 6.407297,8.994833 6.3532975,8.6333385 6.3358975,8.263344 Z m 9.3279185,0.00295 c -0.01755,0.36883 -0.07032,0.72914 -0.172848,1.070285 0,0 0.03748,0.143798 0.06055,0.231442 0.07658,-0.325165 0.127928,-0.6599905 0.127928,-1.007786 0,-0.099348 -0.0092,-0.196172 -0.01563,-0.293941 z m -4.663959,4.332939 C 8.95355,12.600803 7.1240155,13.237894 6.412022,14.197131 6.2292635,13.864765 6.0916345,13.51209 6.02433,13.145395 6.0042,13.035721 5.99895,12.905934 5.992105,12.779191 c -0.01496,0.316885 -0.01304,0.619591 0.032225,0.866187 0.067304,0.366695 0.2049335,0.71939 0.387692,1.051735 0.7121435,-0.958986 2.541528,-1.595977 4.58801,-1.597477 2.045433,6e-4 3.874867,0.637291 4.588811,1.595677 0.182182,-0.331575 0.320506,-0.68404 0.387691,-1.049785 0.0453,-0.246611 0.04717,-0.549292 0.03223,-0.866187 -0.0069,0.126738 -0.01208,0.256536 -0.03223,0.366204 -0.06719,0.365735 -0.205509,0.71724 -0.387692,1.048835 -0.713993,-0.957986 -2.543478,-1.593977 -4.58896,-1.594477 z"
     id="path7"
     style="fill:#000000;stroke-width:0.499995" />
  <circle
     fill="#303030"
     cx="9"
     cy="7"
     r="0.5"
     id="circle8"
     style="stroke-width:0.5" />
  <circle
     fill="#303030"
     cx="13"
     cy="7"
     r="0.5"
     id="circle9"
     style="stroke-width:0.5" />
  <path
     opacity="0.2"
     d="m 10,8.500175 h 2 c -0.160335,1.5409 -1,3 -1,3 0,0 -1,-1.73185 -1,-3 z"
     id="path9"
     style="fill:#000000;stroke-width:0.5" />
  <path
     fill="#cd5252"
     d="m 10,8.000175 h 2 c -0.160335,1.5409 -1,3 -1,3 0,0 -1,-1.73185 -1,-3 z"
     id="path10"
     style="stroke-width:0.5" />
  <path
     fill="#303030"
     d="m 11,11.000175 a 2,2 0 0 0 -2,2 2,2 0 0 0 2,2 2,2 0 0 0 2,-2 2,2 0 0 0 -2,-2 z m 0,0.8 a 1.2,1.2 0 0 1 0.7797,0.28828 l -0.7795,0.45 -0.779,-0.4495 a 1.2,1.2 0 0 1 0.779,-0.289 z m 1.1797,0.98045 a 1.2,1.2 0 0 1 0.0205,0.2195 1.2,1.2 0 0 1 -0.8,1.13045 v -0.9 l 0.7797,-0.45 z m -2.3586,8e-4 0.7789,0.4492 v 0.8992 a 1.2,1.2 0 0 1 -0.8,-1.1295 1.2,1.2 0 0 1 0.021,-0.219 z"
     id="path11"
     style="stroke-width:0.5" />
  <path
     fill="#f5432a"
     d="m 11,13.000175 c -2.7062,0 -5,1.1193 -5,2.5 0.00115,0.24197 0.30781,0.5 0.30781,0.5 h -1.8078 v 1.5 h 3.07725 c 0.91425,0.457 2.14275,0.499 3.42275,0.5 1.28165,-2.33e-4 2.5121,-0.04237 3.42755,-0.5 h 3.0725 v -1.5 h -1.80645 c 0,0 0.305735,-0.25806 0.306445,-0.5 0,-1.3807 -2.2938,-2.5 -5,-2.5 z"
     id="path12"
     style="stroke-width:0.5" />
  <ellipse
     fill="#4f4f4f"
     cx="-5.5324306"
     cy="14.296421"
     rx="1.2424971"
     ry="2.1970007"
     transform="matrix(0.70175164,-0.71242167,0.86960968,0.49373982,0,0)"
     id="ellipse12"
     style="stroke-width:0.5" />
  <ellipse
     fill="#4f4f4f"
     cx="-16.777084"
     cy="-1.9285098"
     rx="1.2424971"
     ry="2.1970007"
     transform="matrix(-0.70175164,-0.71242167,-0.86960968,0.49373982,0,0)"
     id="ellipse13"
     style="stroke-width:0.5" />
  <ellipse
     opacity="0.2"
     cx="8.25"
     cy="15.800175"
     rx="0.75"
     ry="0.69999999"
     id="ellipse14"
     style="fill:#000000;stroke-width:0.5" />
  <ellipse
     fill="#ffffff"
     cx="8.25"
     cy="15.300175"
     rx="0.75"
     ry="0.69999999"
     id="ellipse15"
     style="stroke-width:0.5" />
  <ellipse
     opacity="0.2"
     cx="13.75"
     cy="15.800175"
     rx="0.75"
     ry="0.69999999"
     id="ellipse16"
     style="fill:#000000;stroke-width:0.5" />
  <ellipse
     fill="#ffffff"
     cx="13.75"
     cy="15.300175"
     rx="0.75"
     ry="0.69999999"
     id="ellipse17"
     style="stroke-width:0.5" />
  <path
     opacity="0.5"
     d="m 10.8335,14.500175 c -0.09234,0 -0.166665,0.223 -0.166665,0.5 v 1 c 0,0.277 0.07433,0.5 0.166665,0.5 0.092,0 0.1665,-0.223 0.1665,-0.5 v -1 c 0,-0.277 -0.07433,-0.5 -0.166665,-0.5 z m -0.66665,0.333335 c -0.0925,0 -0.167,0.1485 -0.167,0.333 v 0.66665 c 0,0.184665 0.07433,0.333335 0.166665,0.333335 0.09234,0 0.166665,-0.148665 0.166665,-0.333335 v -0.66665 c 0,-0.184665 -0.07433,-0.333335 -0.166665,-0.333335 z"
     id="path17"
     style="fill:#000000;stroke-width:0.5" />
  <path
     opacity="0.5"
     d="m 11.1665,14.500175 c 0.09234,0 0.166665,0.223 0.166665,0.5 v 1 c 0,0.277 -0.07433,0.5 -0.166665,0.5 -0.092,0 -0.1665,-0.223 -0.1665,-0.5 v -1 c 0,-0.277 0.07433,-0.5 0.166665,-0.5 z m 0.66665,0.333335 c 0.0925,0 0.167,0.1485 0.167,0.333 v 0.66665 c 0,0.184665 -0.07433,0.333335 -0.166665,0.333335 -0.09234,0 -0.166665,-0.148665 -0.166665,-0.333335 v -0.66665 c 0,-0.184665 0.07433,-0.333335 0.166665,-0.333335 z"
     id="path18"
     style="fill:#000000;stroke-width:0.5" />
  <path
     fill="#ffffff"
     opacity="0.1"
     d="m 11.001,4.000175 c -2.58425,0 -4.6806,2.04105 -4.6806,4.5605 0,0.06901 0.01241,0.134915 0.015625,0.20312 0.1578,-2.37995 2.1835,-4.26345 4.66495,-4.26345 2.4832,0 4.50675,1.8854 4.66305,4.26655 0.0033,-0.069185 0.01563,-0.13605 0.01563,-0.20605 0,-2.5189 -2.0935,-4.56045 -4.67845,-4.56045 z m -4.55185,6.0685 c -0.12895,0.489995 -0.51785,2.08445 -0.456995,3.21095 0.0614,-1.3005 0.51755,-2.94245 0.51755,-2.94245 -0.0261,-0.0875 -0.03955,-0.1795 -0.06055,-0.268495 z m 9.1025,0 c -0.021,0.0892 -0.03433,0.18134 -0.06054,0.26855 0,0 0.456225,1.64195 0.5176,2.94235 0.06093,-1.12635 -0.32804,-2.7209 -0.457025,-3.2109 z"
     id="path19"
     style="stroke-width:0.5" />
  <path
     fill="#ffffff"
     opacity="0.2"
     d="m 11,13.000175 c -2.7062,0 -5,1.1193 -5,2.5 2.81e-4,0.05889 0.020205,0.118945 0.04785,0.17578 0.32565,-1.2275 2.46165,-2.176 4.95215,-2.176 2.4918,0 4.62935,0.9495 4.9531,2.17775 0.028,-0.0575 0.047,-0.1185 0.047,-0.178 0,-1.3805 -2.294,-2.5 -5,-2.5 z m -6.5,3 v 0.5 h 1.8076 c 0,0 -0.30645,-0.258 -0.3076,-0.5 z m 11.5,0 c -7e-4,0.24194 -0.30664,0.5 -0.30664,0.5 h 1.8065 v -0.5 h -1.5 z"
     id="path20"
     style="stroke-width:0.5" />
  <path
     opacity="0.2"
     d="M 6.04785,15.676175 C 6.01965,15.782175 6,15.890175 6,16.000175 h 0.307615 c 0,0 -0.173815,-0.147505 -0.259765,-0.32422 z m 9.9055,0.002 c -0.086,0.1755 -0.26,0.322 -0.26,0.322 h 0.3065 c 0,-0.10938 -0.01902,-0.21659 -0.04687,-0.322265 z m -11.4535,1.822 v 0.5 H 7.577 c 0.91435,0.457 2.14285,0.499 3.42285,0.5 1.28165,-2.33e-4 2.5123,-0.04237 3.42775,-0.5 h 3.072 v -0.5 h -3.0725 c -0.915,0.4575 -2.146,0.5 -3.4275,0.5 -1.28,-10e-4 -2.5085,-0.043 -3.42285,-0.5 H 4.4996 Z"
     id="path21"
     style="fill:#000000;stroke-width:0.5" />
  <path
     fill="#ffffff"
     opacity="0.1"
     d="M 4.67675,14.000175 C 4.302,14.000175 4,14.298175 4,14.667175 v 0.5 c 0,-0.369 0.302,-0.667 0.67675,-0.667 h 0.6465 c 0.37475,0 0.67675,0.298 0.67675,0.667 v -0.5 c 0,-0.369 -0.302,-0.667 -0.67675,-0.667 z m 11.999,0 c -0.375,0 -0.676,0.298 -0.676,0.667 v 0.5 c 0,-0.369 0.301,-0.667 0.676,-0.667 h 0.64745 c 0.3745,0 0.6765,0.298 0.6765,0.667 v -0.5 c 0,-0.369 -0.302,-0.667 -0.677,-0.667 h -0.64745 z"
     id="path22"
     style="stroke-width:0.5" />
  <path
     id="path1040"
     style="opacity:0.2;fill:#ffffff;stroke-width:4;stroke-linecap:square"
     d="M 5.5,1 C 3.007005,1 1,3.007005 1,5.5 V 6 C 1,3.507005 3.007005,1.5 5.5,1.5 h 11 C 18.992996,1.5 21,3.507005 21,6 V 5.5 C 21,3.007005 18.992996,1 16.5,1 Z" />
</svg>
