<?xml version="1.0" encoding="UTF-8" standalone="no"?>
<!-- Created with Inkscape (http://www.inkscape.org/) -->

<svg
   width="22"
   height="22"
   viewBox="0 0 22 22"
   version="1.1"
   id="svg5"
   inkscape:version="1.3 (0e150ed6c4, 2023-07-21)"
   sodipodi:docname="system-help.svg"
   xmlns:inkscape="http://www.inkscape.org/namespaces/inkscape"
   xmlns:sodipodi="http://sodipodi.sourceforge.net/DTD/sodipodi-0.dtd"
   xmlns="http://www.w3.org/2000/svg"
   xmlns:svg="http://www.w3.org/2000/svg">
  <sodipodi:namedview
     id="namedview7"
     pagecolor="#ffffff"
     bordercolor="#000000"
     borderopacity="0.25"
     inkscape:showpageshadow="2"
     inkscape:pageopacity="0.0"
     inkscape:pagecheckerboard="0"
     inkscape:deskcolor="#d1d1d1"
     inkscape:document-units="px"
     showgrid="false"
     inkscape:zoom="35.818182"
     inkscape:cx="11"
     inkscape:cy="11"
     inkscape:window-width="1920"
     inkscape:window-height="1004"
     inkscape:window-x="0"
     inkscape:window-y="0"
     inkscape:window-maximized="1"
     inkscape:current-layer="svg5" />
  <defs
     id="defs2" />
  <rect
     style="opacity:0.2;fill:#000000;stroke-width:1.42857;stroke-linecap:square"
     id="rect234"
     width="20"
     height="20"
     x="1"
     y="1.4999995"
     ry="4.5" />
  <rect
     style="fill:#f6bfb9;fill-opacity:1;stroke-width:1.42857;stroke-linecap:square"
     id="rect396"
     width="20"
     height="20"
     x="1"
     y="1"
     ry="4.5" />
  <path
     id="path1"
     style="opacity:0.2;fill:#000000;stroke-width:0.518519"
     d="m 11.044922,4.5000002 c -0.908978,-0.0047 -1.833889,0.169268 -2.728516,0.541016 -3.57851,1.487054 -5.2625862,5.5640668 -3.77539,9.1425778 1.48702,3.578509 5.564068,5.262586 9.142578,3.77539 3.578511,-1.486845 5.262587,-5.564066 3.77539,-9.1425778 -1.115134,-2.683916 -3.687829,-4.302405 -6.414062,-4.316406 z m -0.01953,3 c 1.557847,0.008 3.028796,0.93313 3.666015,2.4667968 0.849827,2.044864 -0.11334,4.374983 -2.158203,5.224609 -2.044863,0.849826 -4.374884,-0.113341 -5.224609,-2.158203 -0.849826,-2.044864 0.11334,-4.3748638 2.158203,-5.2246088 0.511214,-0.212423 1.039176,-0.311294 1.558594,-0.308594 z" />
  <path
     id="path2"
     style="fill:#e4e4e4;stroke-width:0.518519"
     d="m 11.044922,4.0000002 c -0.908978,-0.0047 -1.833889,0.169268 -2.728516,0.541016 -3.57851,1.487054 -5.2625862,5.5640668 -3.77539,9.1425778 1.48702,3.578509 5.564068,5.262586 9.142578,3.77539 3.578511,-1.486845 5.262587,-5.564066 3.77539,-9.1425778 -1.115134,-2.683916 -3.687829,-4.302405 -6.414062,-4.316406 z m -0.04492,3 c 2.209136,0 4,1.790864 4,3.9999998 0,2.209137 -1.790864,4 -4,4 -2.209138,0 -4,-1.790862 -4,-4 0,-2.2091358 1.790863,-3.9999998 4,-3.9999998 z" />
  <path
     id="path3"
     style="opacity:0.2;fill:#ffffff;stroke-width:0.518519"
     d="m 11.044922,4.0000002 c -0.908977,-0.0047 -1.83389,0.169268 -2.728516,0.541016 -2.775255,1.15326 -4.4096967,3.865225 -4.310547,6.6933588 0.097684,-2.6432548 1.699287,-5.1082468 4.310547,-6.1933588 0.894626,-0.371748 1.819539,-0.545716 2.728516,-0.541016 2.72623,0.014 5.298929,1.632493 6.414062,4.316406 0.333824,0.8032518 0.506459,1.6306498 0.535157,2.4492188 0.03618,-0.979116 -0.133178,-1.981972 -0.535157,-2.9492188 -1.115133,-2.683913 -3.687832,-4.302405 -6.414062,-4.316406 z M 7.011719,11.25 c -0.03655,0.590394 0.05373,1.198144 0.296875,1.783203 0.849724,2.04486 3.179748,3.008028 5.224609,2.158203 1.623738,-0.674651 2.56156,-2.283839 2.455078,-3.941406 -0.0912,1.473142 -0.995276,2.834869 -2.455078,3.441406 C 10.488342,15.541231 8.158318,14.578063 7.308594,12.533203 7.133579,12.112079 7.039335,11.67989 7.011719,11.25 Z" />
  <path
     style="opacity:0.2;fill:#000000;stroke-width:0.533327"
     d="M 11.047916,3.5000921 C 10.115364,3.4956521 9.169103,3.6519315 8.252114,3.9782115 A 0.70242206,0.65458085 0 0 0 7.845869,4.8229932 l 1.247902,3.052049 a 0.70242206,0.65458085 0 0 0 0.90624,0.379162 c 0.318853,-0.11347 0.657644,-0.171449 0.998947,-0.171873 0.341065,0.0012 0.678507,0.0599 0.996864,0.173956 a 0.70242206,0.65458085 0 0 0 0.908323,-0.377079 L 14.15413,4.8219512 A 0.70242206,0.65458085 0 0 0 13.746844,3.9771695 C 12.895057,3.6748555 11.982965,3.5045415 11.047916,3.5000921 Z M 4.085496,8.3000372 A 0.65458085,0.70242206 0 0 0 3.4782113,8.7521152 C 3.1519313,9.669103 2.995665,10.615364 3.0000914,11.547917 c 0.00443,0.935049 0.1747644,1.847141 0.4770783,2.698927 a 0.65458085,0.70242206 0 0 0 0.8447813,0.407287 l 3.057257,-1.249986 a 0.65458085,0.70242206 0 0 0 0.377079,-0.908322 c -0.114058,-0.318357 -0.17273,-0.655799 -0.173956,-0.996864 4.24e-4,-0.341304 0.0584,-0.680094 0.171873,-0.998947 A 0.65458085,0.70242206 0 0 0 7.375041,9.593772 L 4.322993,8.3458702 a 0.65458085,0.70242206 0 0 0 -0.237497,-0.04583 z m 13.829008,0 a 0.65458085,0.70242206 0 0 0 -0.237497,0.04583 L 14.624958,9.593769 a 0.65458085,0.70242206 0 0 0 -0.379162,0.90624 c 0.11347,0.318853 0.171449,0.657643 0.171873,0.998947 -0.0012,0.341065 -0.0599,0.678507 -0.173956,0.996864 a 0.65458085,0.70242206 0 0 0 0.377079,0.908322 l 3.057256,1.249986 a 0.65458085,0.70242206 0 0 0 0.844783,-0.407288 c 0.302314,-0.851786 0.472628,-1.763878 0.477078,-2.698927 0.0044,-0.932553 -0.15184,-1.878814 -0.47812,-2.7958018 a 0.65458085,0.70242206 0 0 0 -0.607285,-0.452078 z m -5.643686,6.3999268 a 0.70242206,0.65458085 0 0 0 -0.274996,0.04375 c -0.318357,0.114058 -0.655799,0.172729 -0.996864,0.173956 -0.341303,-4.25e-4 -0.680094,-0.0584 -0.998947,-0.171873 a 0.70242206,0.65458085 0 0 0 -0.90624,0.379162 l -1.247902,3.052049 a 0.70242206,0.65458085 0 0 0 0.406245,0.844782 c 0.916989,0.32628 1.86325,0.482546 2.795802,0.478119 0.935049,-0.0044 1.847141,-0.174763 2.698928,-0.477077 a 0.70242206,0.65458085 0 0 0 0.407286,-0.844783 l -1.249985,-3.057256 a 0.70242206,0.65458085 0 0 0 -0.633327,-0.420829 z"
     id="path4" />
  <path
     style="fill:#e74c3c;stroke-width:0.533327"
     d="M 11.047916,3.000092 C 10.115364,2.995652 9.169103,3.151932 8.252114,3.4782116 A 0.70242206,0.65458085 0 0 0 7.845869,4.3229932 l 1.247902,3.052049 a 0.70242206,0.65458085 0 0 0 0.90624,0.379162 c 0.318853,-0.11347 0.657644,-0.171448 0.998947,-0.171873 0.341065,0.0012 0.678507,0.0599 0.996864,0.173957 a 0.70242206,0.65458085 0 0 0 0.908323,-0.377079 L 14.15413,4.3219522 A 0.70242206,0.65458085 0 0 0 13.746844,3.4771699 C 12.895057,3.1748559 11.982965,3.0045411 11.047916,3.000092 Z M 4.085496,7.8000372 A 0.65458085,0.70242206 0 0 0 3.4782113,8.2521152 C 3.1519313,9.169103 2.995665,10.115364 3.0000914,11.047917 c 0.00443,0.935049 0.1747644,1.847141 0.4770783,2.698927 a 0.65458085,0.70242206 0 0 0 0.8447813,0.407287 l 3.057257,-1.249986 a 0.65458085,0.70242206 0 0 0 0.377079,-0.908322 c -0.114058,-0.318357 -0.17273,-0.655799 -0.173956,-0.996864 4.24e-4,-0.341303 0.0584,-0.680094 0.171873,-0.998947 A 0.65458085,0.70242206 0 0 0 7.375041,9.093772 L 4.322993,7.8458702 a 0.65458085,0.70242206 0 0 0 -0.237497,-0.04583 z m 13.829008,0 a 0.65458085,0.70242206 0 0 0 -0.237497,0.04583 L 14.624958,9.093769 a 0.65458085,0.70242206 0 0 0 -0.379162,0.906239 c 0.11347,0.318853 0.171449,0.657644 0.171873,0.998947 -0.0012,0.341065 -0.0599,0.678507 -0.173956,0.996864 a 0.65458085,0.70242206 0 0 0 0.377079,0.908322 l 3.057256,1.249986 a 0.65458085,0.70242206 0 0 0 0.844783,-0.407287 c 0.302314,-0.851786 0.472628,-1.763878 0.477078,-2.698927 0.0044,-0.932553 -0.15184,-1.878814 -0.47812,-2.7958018 a 0.65458085,0.70242206 0 0 0 -0.607285,-0.452078 z m -5.643686,6.3999268 a 0.70242206,0.65458085 0 0 0 -0.274996,0.04375 c -0.318357,0.114058 -0.655799,0.172729 -0.996864,0.173956 -0.341303,-4.24e-4 -0.680094,-0.0584 -0.998947,-0.171873 a 0.70242206,0.65458085 0 0 0 -0.90624,0.379162 l -1.247902,3.052049 a 0.70242206,0.65458085 0 0 0 0.406245,0.844782 c 0.916989,0.326281 1.86325,0.482547 2.795802,0.47812 0.935049,-0.0044 1.847141,-0.174764 2.698928,-0.477078 A 0.70242206,0.65458085 0 0 0 14.15413,17.67805 l -1.249985,-3.057257 a 0.70242206,0.65458085 0 0 0 -0.633327,-0.420829 z"
     id="path5" />
  <path
     id="path1040"
     style="opacity:0.2;fill:#ffffff;stroke-width:4;stroke-linecap:square"
     d="M 5.5,1.0000001 C 3.007005,1.0000001 1,3.0070051 1,5.5 V 6 C 1,3.5070051 3.007005,1.5000001 5.5,1.5000001 h 11 C 18.992996,1.5000001 21,3.5070051 21,6 V 5.5 C 21,3.0070052 18.992996,1.0000001 16.5,1.0000001 Z" />
</svg>
