<?xml version="1.0" encoding="UTF-8" standalone="no"?>
<!-- Created with Inkscape (http://www.inkscape.org/) -->

<svg
   width="22"
   height="22"
   viewBox="0 0 22 22"
   version="1.1"
   id="svg5"
   inkscape:version="1.3.2 (091e20ef0f, 2023-11-25, custom)"
   sodipodi:docname="tilix.svg"
   xmlns:inkscape="http://www.inkscape.org/namespaces/inkscape"
   xmlns:sodipodi="http://sodipodi.sourceforge.net/DTD/sodipodi-0.dtd"
   xmlns="http://www.w3.org/2000/svg"
   xmlns:svg="http://www.w3.org/2000/svg">
  <sodipodi:namedview
     id="namedview7"
     pagecolor="#ffffff"
     bordercolor="#000000"
     borderopacity="0.25"
     inkscape:showpageshadow="2"
     inkscape:pageopacity="0.0"
     inkscape:pagecheckerboard="0"
     inkscape:deskcolor="#d1d1d1"
     inkscape:document-units="px"
     showgrid="false"
     inkscape:zoom="36.545455"
     inkscape:cx="11"
     inkscape:cy="11"
     inkscape:window-width="1920"
     inkscape:window-height="1008"
     inkscape:window-x="0"
     inkscape:window-y="0"
     inkscape:window-maximized="1"
     inkscape:current-layer="svg5" />
  <defs
     id="defs2" />
  <rect
     style="opacity:0.2;fill:#000000;stroke-width:1.42857;stroke-linecap:square"
     id="rect234"
     width="20"
     height="20"
     x="1"
     y="1.4999995"
     ry="4.5" />
  <rect
     style="fill:#4f4f4f;fill-opacity:1;stroke-width:1.42857;stroke-linecap:square"
     id="rect396"
     width="20"
     height="20"
     x="1"
     y="1"
     ry="4.5" />
  <path
     id="path304"
     style="opacity:0.1;fill:#000000;stroke-width:0.5"
     d="m 11,1 v 20 h 5.5 C 18.992998,21 21,18.992998 21,16.5 V 5.5 C 21,3.0070025 18.992998,1 16.5,1 Z" />
  <path
     id="path1"
     style="color:#000000;opacity:0.2;fill:#000000;stroke:none;stroke-linecap:round;stroke-linejoin:round;-inkscape-stroke:none"
     d="M 3.4960938 4.5 C 3.3417939 4.502 3.1953524 4.5735989 3.1015625 4.6992188 C 2.9349927 4.9202285 2.9796521 5.2345108 3.2011719 5.4003906 L 4.6679688 6.5 L 3.2011719 7.5996094 C 2.9796421 7.7654892 2.9349827 8.0797715 3.1015625 8.3007812 C 3.2674423 8.522311 3.5817246 8.5669705 3.8027344 8.4003906 L 5.8027344 6.9003906 C 6.0700541 6.7003908 6.0700541 6.2996092 5.8027344 6.0996094 L 3.8027344 4.5996094 C 3.7326344 4.5465094 3.6497799 4.5128531 3.5625 4.5019531 C 3.5403 4.4989531 3.5180937 4.5 3.4960938 4.5 z M 13.496094 4.5 C 13.341794 4.502 13.195352 4.5735989 13.101562 4.6992188 C 12.934993 4.9202285 12.979652 5.2345108 13.201172 5.4003906 L 14.667969 6.5 L 13.201172 7.5996094 C 12.979642 7.7654892 12.934983 8.0797715 13.101562 8.3007812 C 13.267442 8.522311 13.581725 8.5669705 13.802734 8.4003906 L 15.802734 6.9003906 C 16.070054 6.7003908 16.070054 6.2996092 15.802734 6.0996094 L 13.802734 4.5996094 C 13.732634 4.5465094 13.64978 4.5128531 13.5625 4.5019531 C 13.5403 4.4989531 13.518094 4.5 13.496094 4.5 z M 6.5019531 7.5 C 6.2258134 7.5 6.0019531 7.7238603 6.0019531 8 C 6.0019531 8.2761397 6.2258134 8.5 6.5019531 8.5 L 8.5019531 8.5 C 8.7780928 8.5 9.0019531 8.2761397 9.0019531 8 C 9.0019531 7.7238603 8.7780928 7.5 8.5019531 7.5 L 6.5019531 7.5 z M 16.501953 7.5 C 16.225813 7.5 16.001953 7.7238603 16.001953 8 C 16.001953 8.2761397 16.225813 8.5 16.501953 8.5 L 18.501953 8.5 C 18.778093 8.5 19.001953 8.2761397 19.001953 8 C 19.001953 7.7238603 18.778093 7.5 18.501953 7.5 L 16.501953 7.5 z " />
  <path
     id="path1-3"
     style="color:#000000;fill:#ffffff;stroke:none;stroke-linecap:round;stroke-linejoin:round;-inkscape-stroke:none"
     d="M 3.4960938 4 C 3.3417939 4.002 3.1953524 4.0735989 3.1015625 4.1992188 C 2.9349927 4.4202285 2.9796521 4.7345108 3.2011719 4.9003906 L 4.6679688 6 L 3.2011719 7.0996094 C 2.9796421 7.2654892 2.9349827 7.5797715 3.1015625 7.8007812 C 3.2674423 8.022311 3.5817246 8.0669705 3.8027344 7.9003906 L 5.8027344 6.4003906 C 6.0700541 6.2003908 6.0700541 5.7996092 5.8027344 5.5996094 L 3.8027344 4.0996094 C 3.7326344 4.0465094 3.6497799 4.0128531 3.5625 4.0019531 C 3.5403 3.9989531 3.5180937 4 3.4960938 4 z M 13.496094 4 C 13.341794 4.002 13.195352 4.0735989 13.101562 4.1992188 C 12.934993 4.4202285 12.979652 4.7345108 13.201172 4.9003906 L 14.667969 6 L 13.201172 7.0996094 C 12.979642 7.2654892 12.934983 7.5797715 13.101562 7.8007812 C 13.267442 8.022311 13.581725 8.0669705 13.802734 7.9003906 L 15.802734 6.4003906 C 16.070054 6.2003908 16.070054 5.7996092 15.802734 5.5996094 L 13.802734 4.0996094 C 13.732634 4.0465094 13.64978 4.0128531 13.5625 4.0019531 C 13.5403 3.9989531 13.518094 4 13.496094 4 z M 6.5019531 7 C 6.2258134 7 6.0019531 7.2238603 6.0019531 7.5 C 6.0019531 7.7761397 6.2258134 8 6.5019531 8 L 8.5019531 8 C 8.7780928 8 9.0019531 7.7761397 9.0019531 7.5 C 9.0019531 7.2238603 8.7780928 7 8.5019531 7 L 6.5019531 7 z M 16.501953 7 C 16.225813 7 16.001953 7.2238603 16.001953 7.5 C 16.001953 7.7761397 16.225813 8 16.501953 8 L 18.501953 8 C 18.778093 8 19.001953 7.7761397 19.001953 7.5 C 19.001953 7.2238603 18.778093 7 18.501953 7 L 16.501953 7 z " />
  <path
     id="path1040"
     style="opacity:0.1;fill:#ffffff;stroke-width:4;stroke-linecap:square"
     d="M 5.5,1.0000001 C 3.007005,1.0000001 1,3.0070051 1,5.5 V 6 C 1,3.5070051 3.007005,1.5000001 5.5,1.5000001 h 11 C 18.992996,1.5000001 21,3.5070051 21,6 V 5.5 C 21,3.0070052 18.992996,1.0000001 16.5,1.0000001 Z" />
</svg>
