<?xml version="1.0" encoding="UTF-8" standalone="no"?>
<!-- Created with Inkscape (http://www.inkscape.org/) -->

<svg
   width="22"
   height="22"
   viewBox="0 0 22 22"
   version="1.1"
   id="svg5"
   inkscape:version="1.3 (0e150ed6c4, 2023-07-21)"
   sodipodi:docname="twitter-x.svg"
   xmlns:inkscape="http://www.inkscape.org/namespaces/inkscape"
   xmlns:sodipodi="http://sodipodi.sourceforge.net/DTD/sodipodi-0.dtd"
   xmlns="http://www.w3.org/2000/svg"
   xmlns:svg="http://www.w3.org/2000/svg">
  <sodipodi:namedview
     id="namedview7"
     pagecolor="#ffffff"
     bordercolor="#000000"
     borderopacity="0.25"
     inkscape:showpageshadow="2"
     inkscape:pageopacity="0.0"
     inkscape:pagecheckerboard="0"
     inkscape:deskcolor="#d1d1d1"
     inkscape:document-units="px"
     showgrid="false"
     inkscape:zoom="36.181818"
     inkscape:cx="11"
     inkscape:cy="11"
     inkscape:window-width="1920"
     inkscape:window-height="1000"
     inkscape:window-x="0"
     inkscape:window-y="0"
     inkscape:window-maximized="1"
     inkscape:current-layer="svg5" />
  <defs
     id="defs2" />
  <rect
     style="opacity:0.2;fill:#000000;stroke-width:1.42857;stroke-linecap:square"
     id="rect234"
     width="20"
     height="20"
     x="1"
     y="1.4999995"
     ry="4.5" />
  <rect
     style="fill:#4d4d4d;fill-opacity:1;stroke-width:1.42857;stroke-linecap:square"
     id="rect396"
     width="20"
     height="20"
     x="1"
     y="1"
     ry="4.5" />
  <path
     id="path1"
     style="opacity:0.2;fill:#000000;stroke:none;-inkscape-stroke:none"
     d="M 4,4.5 8.9511719,12.201172 4,18.5 H 6 L 9.849609,13.599609 13,18.5 h 4 L 12.048828,10.798828 17,4.5 H 15 L 11.150391,9.400391 8,4.5 Z m 1.7246094,1 h 1.6953125 l 7.8554691,12 h -1.695313 z" />
  <path
     id="path2"
     style="fill:#ffffff;stroke:none;-inkscape-stroke:none"
     d="M 4,4 8.9511719,11.701172 4,18 H 6 L 9.849609,13.099609 13,18 h 4 L 12.048828,10.298828 17,4 H 15 L 11.150391,8.9003906 8,4 Z m 1.7246094,1 h 1.6953125 l 7.8554691,12 h -1.695313 z" />
  <path
     id="path1040"
     style="opacity:0.1;fill:#ffffff;stroke-width:4;stroke-linecap:square"
     d="M 5.5,1.0000001 C 3.007005,1.0000001 1,3.0070051 1,5.5 V 6 C 1,3.5070051 3.007005,1.5000001 5.5,1.5000001 h 11 C 18.992996,1.5000001 21,3.5070051 21,6 V 5.5 C 21,3.0070052 18.992996,1.0000001 16.5,1.0000001 Z" />
</svg>
