<?xml version="1.0" encoding="UTF-8" standalone="no"?>
<!-- Created with Inkscape (http://www.inkscape.org/) -->

<svg
   width="22"
   height="22"
   viewBox="0 0 22 22"
   version="1.1"
   id="svg5"
   inkscape:version="1.3.2 (091e20ef0f, 2023-11-25, custom)"
   sodipodi:docname="utilities-x-terminal.svg"
   xmlns:inkscape="http://www.inkscape.org/namespaces/inkscape"
   xmlns:sodipodi="http://sodipodi.sourceforge.net/DTD/sodipodi-0.dtd"
   xmlns="http://www.w3.org/2000/svg"
   xmlns:svg="http://www.w3.org/2000/svg">
  <sodipodi:namedview
     id="namedview7"
     pagecolor="#ffffff"
     bordercolor="#000000"
     borderopacity="0.25"
     inkscape:showpageshadow="2"
     inkscape:pageopacity="0.0"
     inkscape:pagecheckerboard="0"
     inkscape:deskcolor="#d1d1d1"
     inkscape:document-units="px"
     showgrid="false"
     inkscape:zoom="37.136364"
     inkscape:cx="10.986536"
     inkscape:cy="11"
     inkscape:window-width="1920"
     inkscape:window-height="1020"
     inkscape:window-x="0"
     inkscape:window-y="31"
     inkscape:window-maximized="1"
     inkscape:current-layer="svg5" />
  <defs
     id="defs2" />
  <rect
     style="opacity:0.2;fill:#000000;stroke-width:1.42857;stroke-linecap:square"
     id="rect234"
     width="20"
     height="20"
     x="1"
     y="1.4999995"
     ry="4.5" />
  <rect
     style="fill:#4f4f4f;fill-opacity:1;stroke-width:1.42857;stroke-linecap:square"
     id="rect396"
     width="20"
     height="20"
     x="1"
     y="1"
     ry="4.5" />
  <rect
     style="opacity:0.2;fill:#000000"
     width="6"
     height="2"
     x="10.000433"
     y="10.500025"
     rx="0.5"
     ry="0.5"
     id="rect1557" />
  <rect
     style="fill:#33c839;fill-opacity:1"
     width="6"
     height="2"
     x="10.000433"
     y="10.000025"
     rx="0.5"
     ry="0.5"
     id="rect1559" />
  <rect
     style="opacity:0.2;fill:#000000"
     width="6.1220002"
     height="2.0409999"
     x="-5.6218104"
     y="10.828229"
     rx="0.50999999"
     ry="0.50999999"
     transform="matrix(0.72685813,-0.68678763,0.72685813,0.68678763,0,0)"
     id="rect1561" />
  <rect
     style="fill:#24873b;fill-opacity:1"
     width="6.1220002"
     height="2.0409999"
     x="-5.2618098"
     y="10.468244"
     rx="0.50999999"
     ry="0.50999999"
     transform="matrix(0.72685813,-0.68678763,0.72685813,0.68678763,0,0)"
     id="rect1563" />
  <rect
     style="opacity:0.2;fill:#000000"
     width="6.1220002"
     height="2.0409999"
     x="6.7482419"
     y="-1.5418086"
     rx="0.50999999"
     ry="0.50999999"
     transform="matrix(0.72685813,0.68678763,0.72685813,-0.68678763,0,0)"
     id="rect1565" />
  <rect
     style="fill:#33c839;fill-opacity:1"
     width="6.1220002"
     height="2.0409999"
     x="6.388226"
     y="-1.181808"
     rx="0.50999999"
     ry="0.50999999"
     transform="matrix(0.72685813,0.68678763,0.72685813,-0.68678763,0,0)"
     id="rect1567" />
  <path
     id="path1040"
     style="opacity:0.1;fill:#ffffff;stroke-width:4;stroke-linecap:square"
     d="M 5.5,1.0000001 C 3.007005,1.0000001 1,3.0070051 1,5.5 V 6 C 1,3.5070051 3.007005,1.5000001 5.5,1.5000001 h 11 C 18.992996,1.5000001 21,3.5070051 21,6 V 5.5 C 21,3.0070052 18.992996,1.0000001 16.5,1.0000001 Z" />
</svg>
