<?xml version="1.0" encoding="UTF-8" standalone="no"?>
<!-- Created with Inkscape (http://www.inkscape.org/) -->

<svg
   width="22"
   height="22"
   viewBox="0 0 22 22"
   version="1.1"
   id="svg5"
   inkscape:version="1.2.2 (1:1.2.2+202305151914+b0a8486541)"
   sodipodi:docname="virtualbox.svg"
   xmlns:inkscape="http://www.inkscape.org/namespaces/inkscape"
   xmlns:sodipodi="http://sodipodi.sourceforge.net/DTD/sodipodi-0.dtd"
   xmlns="http://www.w3.org/2000/svg"
   xmlns:svg="http://www.w3.org/2000/svg">
  <sodipodi:namedview
     id="namedview7"
     pagecolor="#ffffff"
     bordercolor="#000000"
     borderopacity="0.25"
     inkscape:showpageshadow="2"
     inkscape:pageopacity="0.0"
     inkscape:pagecheckerboard="0"
     inkscape:deskcolor="#d1d1d1"
     inkscape:document-units="px"
     showgrid="false"
     inkscape:zoom="36.636364"
     inkscape:cx="11"
     inkscape:cy="11"
     inkscape:window-width="1920"
     inkscape:window-height="1008"
     inkscape:window-x="0"
     inkscape:window-y="0"
     inkscape:window-maximized="1"
     inkscape:current-layer="svg5" />
  <defs
     id="defs2" />
  <rect
     style="opacity:0.2;fill:#000000;stroke-width:1.42857;stroke-linecap:square"
     id="rect234"
     width="20"
     height="20"
     x="1"
     y="1.5"
     ry="4.5" />
  <rect
     style="fill:#1263eb;fill-opacity:1;stroke-width:1.42857;stroke-linecap:square"
     id="rect396"
     width="20"
     height="20"
     x="1"
     y="1"
     ry="4.5" />
  <path
     id="path1595"
     style="display:inline;opacity:0.2;fill:#000000"
     d="M 5.5,3.5 C 4.1150014,3.5 3,4.6150014 3,6 V 8.5 H 6.7148438 L 7.9980469,12.251953 10.382812,5.2382812 12.195312,9.382812 14.072266,4.5546875 16.720703,12.5 H 19 V 6 C 19,4.6150014 17.884999,3.5 16.5,3.5 Z m 8.427734,6.945312 -1.623046,4.173829 -1.6875,-3.859375 -2.6152349,7.6875 L 5.2851562,10.5 H 3 V 17 c 0,1.384999 1.1150014,2.5 2.5,2.5 h 11 c 1.384999,0 2.5,-1.115001 2.5,-2.5 v -2.5 h -3.720703 z" />
  <path
     id="path358"
     style="display:inline;fill:#4bd0ff;fill-opacity:1"
     d="M 5.5,3 C 4.1150014,3 3,4.1150014 3,5.5 V 8 h 3.7148438 l 1.2832031,3.751953 2.3847651,-7.0136718 1.8125,4.1445313 1.876954,-4.828125 L 16.720703,12 H 19 V 5.5 C 19,4.1150014 17.884999,3 16.5,3 Z m 8.427734,6.945312 -1.623046,4.173829 -1.6875,-3.859375 -2.6152349,7.6875 L 5.2851562,10 H 3 v 6.5 C 3,17.884999 4.1150014,19 5.5,19 h 11 C 17.884999,19 19,17.884999 19,16.5 V 14 h -3.720703 z" />
  <path
     id="path1623"
     style="display:inline;opacity:0.2;fill:#ffffff"
     d="M 5.5,3 C 4.1150028,3 3,4.1150028 3,5.5 V 6 C 3,4.6150028 4.1150028,3.5 5.5,3.5 h 11 C 17.884998,3.5 19,4.6150028 19,6 V 5.5 C 19,4.1150028 17.884998,3 16.5,3 Z m 8.427734,6.945312 -1.623046,4.173829 -1.6875,-3.859375 -2.6152349,7.6875 L 5.2851562,10 H 3 v 0.5 h 2.2851562 l 2.7167969,7.947266 2.6152349,-7.6875 1.6875,3.859375 1.623046,-4.173829 L 15.279297,14.5 H 19 V 14 h -3.720703 z" />
  <path
     id="path1040"
     style="opacity:0.2;fill:#ffffff;stroke-width:4;stroke-linecap:square"
     d="M 5.5,1 C 3.007005,1 1,3.007005 1,5.5 V 6 C 1,3.507005 3.007005,1.5 5.5,1.5 h 11 C 18.992996,1.5 21,3.507005 21,6 V 5.5 C 21,3.007005 18.992996,1 16.5,1 Z" />
</svg>
