<?xml version="1.0" encoding="UTF-8" standalone="no"?>
<!-- Created with Inkscape (http://www.inkscape.org/) -->

<svg
   width="22"
   height="22"
   viewBox="0 0 22 22"
   version="1.1"
   id="svg5"
   inkscape:version="1.2.2 (1:1.2.2+202305151914+b0a8486541)"
   sodipodi:docname="vmware-workstation.svg"
   xmlns:inkscape="http://www.inkscape.org/namespaces/inkscape"
   xmlns:sodipodi="http://sodipodi.sourceforge.net/DTD/sodipodi-0.dtd"
   xmlns="http://www.w3.org/2000/svg"
   xmlns:svg="http://www.w3.org/2000/svg">
  <sodipodi:namedview
     id="namedview7"
     pagecolor="#ffffff"
     bordercolor="#000000"
     borderopacity="0.25"
     inkscape:showpageshadow="2"
     inkscape:pageopacity="0.0"
     inkscape:pagecheckerboard="0"
     inkscape:deskcolor="#d1d1d1"
     inkscape:document-units="px"
     showgrid="false"
     inkscape:zoom="36.636364"
     inkscape:cx="10.986352"
     inkscape:cy="11"
     inkscape:window-width="1920"
     inkscape:window-height="1008"
     inkscape:window-x="0"
     inkscape:window-y="0"
     inkscape:window-maximized="1"
     inkscape:current-layer="svg5" />
  <defs
     id="defs2" />
  <rect
     style="opacity:0.2;fill:#000000;stroke-width:1.42857;stroke-linecap:square"
     id="rect234"
     width="20"
     height="20"
     x="1"
     y="1.5"
     ry="4.5" />
  <rect
     style="fill:#efefef;fill-opacity:1;stroke-width:1.42857;stroke-linecap:square"
     id="rect396"
     width="20"
     height="20"
     x="1"
     y="1"
     ry="4.5" />
  <path
     d="M 5.5,8.5 C 4.67157,8.5 4,9.17157 4,10 v 7 c 0,0.82843 0.67157,1.5 1.5,1.5 h 7 C 13.32843,18.5 14,17.82843 14,17 V 10 C 14,9.17157 13.32843,8.5 12.5,8.5 Z m 1.5,2 h 4 c 0.554,0 1,0.446 1,1 v 4 c 0,0.554 -0.446,1 -1,1 H 7 c -0.554,0 -1,-0.446 -1,-1 v -4 c 0,-0.554 0.446,-1 1,-1 z"
     style="opacity:0.2;fill:#000000;fill-opacity:1;stroke-width:2;stroke-linecap:square"
     id="path3628" />
  <path
     d="M 5.5,8 C 4.67157,8 4,8.67157 4,9.5 v 7 C 4,17.32843 4.67157,18 5.5,18 h 7 c 0.82843,0 1.5,-0.67157 1.5,-1.5 v -7 C 14,8.67157 13.32843,8 12.5,8 Z M 7,10 h 4 c 0.554,0 1,0.446 1,1 v 4 c 0,0.554 -0.446,1 -1,1 H 7 C 6.446,16 6,15.554 6,15 v -4 c 0,-0.554 0.446,-1 1,-1 z"
     style="fill:#f38b00;fill-opacity:1;stroke-width:2;stroke-linecap:square"
     id="path3129"
     sodipodi:nodetypes="ssssssssssssssssss" />
  <path
     id="path3565"
     style="opacity:0.2;fill:#000000;fill-opacity:1;stroke-width:2;stroke-linecap:square"
     d="M 9.5,4.5 C 8.67157,4.5 8,5.17157 8,6 v 2 h 2 V 7.5 c 0,-0.554 0.446,-1 1,-1 h 4 c 0.554,0 1,0.446 1,1 v 4 c 0,0.554 -0.446,1 -1,1 h -4 c -0.554,0 -1,-0.446 -1,-1 V 10 H 8 v 3 c 0,0.82843 0.67157,1.5 1.5,1.5 h 7 C 17.32843,14.5 18,13.82843 18,13 V 6 C 18,5.17157 17.32843,4.5 16.5,4.5 Z"
     sodipodi:nodetypes="ssccssssssssccsssssss" />
  <path
     id="path2501"
     style="fill:#0097d3;fill-opacity:1;stroke-width:2;stroke-linecap:square"
     d="M 9.5,4 C 8.67157,4 8,4.67157 8,5.5 V 8 h 2 V 7 c 0,-0.554 0.446,-1 1,-1 h 4 c 0.554,0 1,0.446 1,1 v 4 c 0,0.554 -0.446,1 -1,1 h -4 c -0.554,0 -1,-0.446 -1,-1 V 10 H 8 v 2.5 C 8,13.32843 8.67157,14 9.5,14 h 7 c 0.82843,0 1.5,-0.67157 1.5,-1.5 v -7 C 18,4.67157 17.32843,4 16.5,4 Z"
     sodipodi:nodetypes="ssccssssssssccsssssss" />
  <path
     id="path1040"
     style="opacity:0.2;fill:#ffffff;stroke-width:4;stroke-linecap:square"
     d="M 5.5,1 C 3.007005,1 1,3.007005 1,5.5 V 6 C 1,3.507005 3.007005,1.5 5.5,1.5 h 11 C 18.992996,1.5 21,3.507005 21,6 V 5.5 C 21,3.007005 18.992996,1 16.5,1 Z" />
</svg>
