<?xml version="1.0" encoding="UTF-8" standalone="no"?>
<!-- Created with Inkscape (http://www.inkscape.org/) -->

<svg
   width="22"
   height="22"
   viewBox="0 0 22 22"
   version="1.1"
   id="svg5"
   inkscape:version="1.3 (0e150ed6c4, 2023-07-21)"
   sodipodi:docname="waydroid.svg"
   xmlns:inkscape="http://www.inkscape.org/namespaces/inkscape"
   xmlns:sodipodi="http://sodipodi.sourceforge.net/DTD/sodipodi-0.dtd"
   xmlns="http://www.w3.org/2000/svg"
   xmlns:svg="http://www.w3.org/2000/svg">
  <sodipodi:namedview
     id="namedview7"
     pagecolor="#ffffff"
     bordercolor="#000000"
     borderopacity="0.25"
     inkscape:showpageshadow="2"
     inkscape:pageopacity="0.0"
     inkscape:pagecheckerboard="0"
     inkscape:deskcolor="#d1d1d1"
     inkscape:document-units="px"
     showgrid="false"
     inkscape:zoom="35.590909"
     inkscape:cx="10.985951"
     inkscape:cy="11"
     inkscape:window-width="1920"
     inkscape:window-height="984"
     inkscape:window-x="0"
     inkscape:window-y="29"
     inkscape:window-maximized="1"
     inkscape:current-layer="svg5" />
  <defs
     id="defs2" />
  <rect
     style="opacity:0.2;fill:#000000;stroke-width:1.42857;stroke-linecap:square"
     id="rect234"
     width="20"
     height="20"
     x="1"
     y="1.5"
     ry="4.5" />
  <rect
     style="fill:#efefef;fill-opacity:1;stroke-width:1.42857;stroke-linecap:square"
     id="rect396"
     width="20"
     height="20"
     x="1"
     y="1"
     ry="4.5" />
  <path
     style="opacity:0.2;fill:#000000;stroke-width:0.5"
     d="M 6.217794,4.5011313 A 0.75,0.75 0 0 0 5.806661,4.6446858 0.75,0.75 0 0 0 5.644552,5.6935138 l 1.27832,1.7451172 c -1.2221115,0.985821 -2.081089,2.405212 -2.34082,4.024414 -0.0031,0.0192 -0.0018,0.03904 -0.00295,0.05859 C 4.534217,11.844794 4.502844,12.215468 4.5,12.50015 c 0,3.589851 2.910149,6.5 6.5,6.5 3.589851,0 6.5,-2.910149 6.5,-6.5 -3.72e-4,-0.289786 -0.03092,-0.662732 -0.0752,-0.992187 0,0 0,-10e-4 0,-10e-4 -3.5e-4,-0.0023 -5.99e-4,-0.0046 -0.001,-0.0068 -0.01497,-0.110516 -0.03129,-0.215686 -0.04883,-0.311524 -0.0023,4.97e-4 -0.0045,0.0015 -0.0068,0.002 C 17.060282,9.685598 16.231355,8.370766 15.079131,7.440664 l 1.279267,-1.7471502 a 0.75,0.75 0 0 0 -0.162109,-1.048828 0.75,0.75 0 0 0 -1.047852,0.1621095 l -1.34082,1.830078 C 12.957665,6.2291038 12.00573,6.0001548 11.00002,6.0001548 c -1.004957,0 -1.956174,0.228546 -2.805664,0.635742 L 6.8554895,4.8067953 A 0.75,0.75 0 0 0 6.3642785,4.5089438 0.75,0.75 0 0 0 6.217794,4.5011288 Z"
     id="path1" />
  <path
     style="fill:#37ce87;stroke-width:0.5"
     d="m 16.99833,12.021338 c 0,3.58985 -2.269561,5.780784 -5.859412,5.780784 -3.58985,0 -6.3431025,-2.16369 -6.3431025,-5.753541 0,-0.353111 -0.267638,-0.748073 -0.213447,-1.085909 C 5.079104,7.865954 7.763281,5.5001548 11.00002,5.5001548 c 3.252584,0 5.947184,2.3890192 6.424789,5.5080492 0.04952,0.323418 -0.42648,0.675868 -0.426479,1.013134 z"
     id="path2" />
  <path
     style="fill:#fd9c01;stroke-width:0.5"
     d="m 17.37502,10.68823 c -2.407242,0.521017 -5.027313,0.819849 -6.375,0.819849 -1.406327,0 -4.050093,-0.267701 -6.3749995,-0.772409 -0.06785,0.367719 -0.1212655,0.890577 -0.125,1.264485 0,3.589851 2.9101485,6.499999 6.4999995,6.499999 3.589851,0 6.5,-2.910149 6.5,-6.5 -5e-4,-0.38972 -0.05483,-0.928575 -0.125,-1.311924 z"
     id="path3" />
  <path
     style="color:#000000;fill:#37ce87;stroke-width:0.5;stroke-linecap:round;stroke-linejoin:round;-inkscape-stroke:none"
     d="M 6.3642785,4.0087943 A 0.75,0.75 0 0 0 5.806661,4.1455131 0.75,0.75 0 0 0 5.644552,5.1933648 L 7.697286,7.996099 A 0.75,0.75 0 0 0 8.746114,8.158208 0.75,0.75 0 0 0 8.907247,7.10938 L 6.8554895,4.3066459 A 0.75,0.75 0 0 0 6.3642785,4.0087943 Z"
     id="path4" />
  <path
     style="opacity:0.2;fill:#000000;stroke-width:0.5"
     d="m 16.510454,11.367936 c -0.730186,0.139399 -1.459703,0.254868 -2.157535,0.350792 l -0.633429,2.581455 -1.814094,-2.326881 c -0.337354,0.0209 -0.650237,0.03474 -0.905376,0.03474 -0.257658,0 -0.568582,-0.01229 -0.900699,-0.03007 L 8.281219,14.259425 7.672513,11.751468 C 6.9426355,11.658778 6.1831085,11.543329 5.43346,11.402013 l 1.794717,5.468276 c 0.254492,0.518037 0.582764,0.422419 0.934107,0.132299 l 2.865799,-3.004419 2.770919,2.916888 c 0.333601,0.452219 0.797738,0.486803 1.030325,-0.325401 z"
     id="path5" />
  <path
     style="fill:#ffffff;stroke-width:0.5"
     d="m 16.510454,10.867968 c -0.730186,0.139399 -1.459703,0.254869 -2.157535,0.350792 l -0.633429,2.581456 -1.814094,-2.326881 c -0.337354,0.0209 -0.650237,0.03474 -0.905376,0.03474 -0.257658,0 -0.568582,-0.01229 -0.900699,-0.03007 L 8.281219,13.759448 7.672513,11.251491 C 6.9426355,11.158811 6.1831085,11.043362 5.43346,10.902045 l 1.794717,5.468277 c 0.254492,0.518037 0.582764,0.422418 0.934107,0.132298 l 2.865799,-3.004418 2.770919,2.916887 c 0.333601,0.452219 0.797738,0.486803 1.030325,-0.325401 z"
     id="path6" />
  <path
     style="color:#000000;fill:#37ce87;stroke-width:0.5;stroke-linecap:round;stroke-linejoin:round;-inkscape-stroke:none"
     d="M 16.196309,4.1455131 A 0.75,0.75 0 0 0 15.148457,4.3066459 L 13.095723,7.10938 a 0.75,0.75 0 0 0 0.162109,1.048828 0.75,0.75 0 0 0 1.047852,-0.162109 L 16.358418,5.1933648 A 0.75,0.75 0 0 0 16.196309,4.1455131 Z"
     id="path7" />
  <path
     style="opacity:0.2;fill:#ffffff;stroke-width:0.5"
     d="M 6.217794,4.0011312 A 0.75,0.75 0 0 0 5.806661,4.1446857 0.75,0.75 0 0 0 5.5556845,5.0040608 0.75,0.75 0 0 1 5.806661,4.6446858 0.75,0.75 0 0 1 6.217794,4.5011313 a 0.75,0.75 0 0 1 0.1464845,0.00781 0.75,0.75 0 0 1 0.491211,0.2978515 L 8.194356,6.6358943 c 0.84949,-0.4071985 1.800707,-0.6357445 2.805664,-0.6357445 1.00571,0 1.957645,0.228949 2.807617,0.6367185 l 1.34082,-1.830078 a 0.75,0.75 0 0 1 1.047852,-0.1621095 0.75,0.75 0 0 1 0.263672,0.357422 0.75,0.75 0 0 0 -0.263672,-0.8574221 0.75,0.75 0 0 0 -1.047852,0.1621095 l -1.34082,1.8300781 C 12.957665,5.7291038 12.00573,5.5001548 11.00002,5.5001548 c -1.004957,0 -1.956174,0.228546 -2.805664,0.635742 L 6.8554895,4.3067952 A 0.75,0.75 0 0 0 6.3642785,4.0089437 0.75,0.75 0 0 0 6.217794,4.0011287 Z M 6.6963095,7.130037 c -1.101206,0.974012 -1.870912,2.315955 -2.1142575,3.833008 -0.0031,0.0192 -0.0018,0.03904 -0.00295,0.05859 C 4.534217,11.344794 4.502844,11.715468 4.5,12.00015 c 0,0.109242 0.00345,0.218253 0.00879,0.326172 0.010445,-0.254617 0.033645,-0.540711 0.070312,-0.804687 0.0011,-0.01955 -1.505e-4,-0.0394 0.00295,-0.05859 0.259731,-1.619202 1.1187085,-3.038593 2.34082,-4.024414 z m 8.6083975,0.002 -0.225586,0.308594 c 1.152225,0.930101 1.981177,2.244959 2.289063,3.75 0.0023,-5e-4 0.0045,-0.0015 0.0068,-0.002 0.01755,0.09584 0.03386,0.201008 0.04883,0.311523 4e-4,0.0023 6.5e-4,0.0046 0.001,0.0068 v 9.99e-4 c 0.03575,0.265978 0.05819,0.550614 0.06738,0.806641 0.0049,-0.104107 0.0078,-0.209165 0.0078,-0.314476 -3.72e-4,-0.289786 -0.03092,-0.662731 -0.0752,-0.992187 v -10e-4 c -3.5e-4,-0.0023 -5.99e-4,-0.0046 -10e-4,-0.0068 -0.01497,-0.110516 -0.03129,-0.215686 -0.04883,-0.311524 -0.0023,4.97e-4 -0.0045,0.0015 -0.0068,0.002 C 17.080785,9.285925 16.338988,8.047172 15.304683,7.132015 Z"
     id="path8" />
  <path
     style="opacity:0.2;fill:#ffffff;stroke-width:0.5"
     d="m 17.37502,10.688631 c -2.407242,0.521017 -5.027313,0.819336 -6.375,0.819336 -1.406327,0 -4.050093,-0.267753 -6.3749995,-0.772461 -0.06785,0.367719 -0.1212655,0.890741 -0.125,1.264648 0,0.09976 0.00335,0.199195 0.00781,0.297852 0.01608,-0.345993 0.060628,-0.755969 0.1171875,-1.0625 2.3249065,0.504708 4.968673,0.772461 6.375,0.772461 1.347688,0 3.967757,-0.298319 6.374999,-0.819336 0.05741,0.313626 0.102765,0.727056 0.118164,1.082031 0.0037,-0.08969 0.0068,-0.179913 0.0068,-0.270508 -5e-4,-0.389719 -0.05483,-0.928173 -0.125,-1.311523 z"
     id="path9" />
  <path
     id="path1040"
     style="opacity:0.2;fill:#ffffff;stroke-width:4;stroke-linecap:square"
     d="M 5.5,1 C 3.0070049,1 1,3.0070048 1,5.5 V 6 C 1,3.5070048 3.0070049,1.5 5.5,1.5 h 11 C 18.992996,1.5 21,3.5070048 21,6 V 5.5 C 21,3.0070048 18.992996,1 16.5,1 Z" />
</svg>
