<?xml version="1.0" encoding="UTF-8" standalone="no"?>
<!-- Created with Inkscape (http://www.inkscape.org/) -->

<svg
   width="22"
   height="22"
   viewBox="0 0 22 22"
   version="1.1"
   id="svg5"
   inkscape:version="1.3.2 (091e20ef0f, 2023-11-25, custom)"
   sodipodi:docname="winetricks.svg"
   xmlns:inkscape="http://www.inkscape.org/namespaces/inkscape"
   xmlns:sodipodi="http://sodipodi.sourceforge.net/DTD/sodipodi-0.dtd"
   xmlns="http://www.w3.org/2000/svg"
   xmlns:svg="http://www.w3.org/2000/svg">
  <sodipodi:namedview
     id="namedview7"
     pagecolor="#ffffff"
     bordercolor="#000000"
     borderopacity="0.25"
     inkscape:showpageshadow="2"
     inkscape:pageopacity="0.0"
     inkscape:pagecheckerboard="0"
     inkscape:deskcolor="#d1d1d1"
     inkscape:document-units="px"
     showgrid="false"
     inkscape:zoom="37.363636"
     inkscape:cx="11"
     inkscape:cy="11"
     inkscape:window-width="1920"
     inkscape:window-height="1008"
     inkscape:window-x="0"
     inkscape:window-y="0"
     inkscape:window-maximized="1"
     inkscape:current-layer="svg5" />
  <defs
     id="defs2" />
  <rect
     style="opacity:0.2;fill:#000000;stroke-width:1.42857;stroke-linecap:square"
     id="rect234"
     width="20"
     height="20"
     x="1"
     y="1.5"
     ry="4.5" />
  <rect
     style="fill:#ac3131;fill-opacity:1;stroke-width:1.42857;stroke-linecap:square"
     id="rect396"
     width="20"
     height="16"
     x="1"
     y="1"
     ry="4.5" />
  <path
     id="rect1"
     style="fill:#e7dbd0;fill-opacity:1;stroke-width:1.25"
     d="m 7,10 c -3.2980464,0.0047 -6,1 -6,1 v 5.5 C 1,18.992998 3.0070025,21 5.5,21 h 11 C 18.992998,21 21,18.992998 21,16.5 V 11 c 0,0 -1.750283,1.201869 -5,1 -4.691657,-0.291441 -4.294596,-2.006707 -9,-2 z" />
  <path
     id="rect1-0"
     style="opacity:0.2;fill:#ffffff;fill-opacity:1;stroke-width:1.25"
     d="m 7,10 c -3.2980431,0.0047 -6,1 -6,1 v 0.5 c 0,0 2.7019569,-0.9953 6,-1 4.705399,-0.0067 4.308348,1.708559 9,2 3.249714,0.201869 5,-1 5,-1 V 11 c 0,0 -1.750286,1.201869 -5,1 -4.691652,-0.291441 -4.294601,-2.006707 -9,-2 z" />
  <path
     id="path1040"
     style="opacity:0.1;fill:#ffffff;stroke-width:4;stroke-linecap:square"
     d="m 5.5,1.000001 c -2.4929947,0 -4.4999998,2.0070049 -4.4999998,4.5 v 0.5 c 0,-2.4929951 2.007005,-4.5 4.4999998,-4.5 h 11 c 2.492996,0 4.5,2.0070049 4.5,4.5 v -0.5 c 0,-2.4929951 -2.007004,-4.5 -4.5,-4.5 z" />
  <circle
     style="fill:#f8a009;fill-opacity:1"
     id="path11"
     cx="17"
     cy="17"
     r="5" />
  <path
     id="path5"
     style="fill:#ffffff"
     d="M 17,14 16.072266,15.974609 14,16.292969 15.5,17.830078 15.146484,20 17,18.974609 18.853516,20 18.5,17.830078 20,16.292969 17.927734,15.974609 Z" />
  <path
     id="path12"
     style="opacity:0.2;fill:#ffffff;fill-opacity:1"
     d="m 17,12 a 5,5 0 0 0 -5,5 5,5 0 0 0 0.01758,0.25 A 5,5 0 0 1 17,12.5 5,5 0 0 1 21.988281,17.167969 5,5 0 0 0 22,17 5,5 0 0 0 17,12 Z" />
</svg>
