<?xml version="1.0" encoding="UTF-8" standalone="no"?>
<!-- Created with Inkscape (http://www.inkscape.org/) -->

<svg
   width="22"
   height="22"
   viewBox="0 0 22 22"
   version="1.1"
   id="svg5"
   inkscape:version="1.3 (0e150ed6c4, 2023-07-21)"
   sodipodi:docname="xfwm4.svg"
   xmlns:inkscape="http://www.inkscape.org/namespaces/inkscape"
   xmlns:sodipodi="http://sodipodi.sourceforge.net/DTD/sodipodi-0.dtd"
   xmlns="http://www.w3.org/2000/svg"
   xmlns:svg="http://www.w3.org/2000/svg">
  <sodipodi:namedview
     id="namedview7"
     pagecolor="#ffffff"
     bordercolor="#000000"
     borderopacity="0.25"
     inkscape:showpageshadow="2"
     inkscape:pageopacity="0.0"
     inkscape:pagecheckerboard="0"
     inkscape:deskcolor="#d1d1d1"
     inkscape:document-units="px"
     showgrid="false"
     inkscape:zoom="35.590909"
     inkscape:cx="11"
     inkscape:cy="11"
     inkscape:window-width="1920"
     inkscape:window-height="984"
     inkscape:window-x="0"
     inkscape:window-y="29"
     inkscape:window-maximized="1"
     inkscape:current-layer="svg5" />
  <defs
     id="defs2" />
  <rect
     style="opacity:0.2;fill:#000000;stroke-width:1.42857;stroke-linecap:square"
     id="rect234"
     width="20"
     height="20"
     x="1"
     y="1.5"
     ry="4.5" />
  <rect
     style="fill:#beddeb;fill-opacity:1;stroke-width:1.42857;stroke-linecap:square"
     id="rect396"
     width="20"
     height="20"
     x="1"
     y="1"
     ry="4.5" />
  <rect
     style="opacity:0.2;fill:#000000"
     id="rect3"
     width="10"
     height="8"
     x="8"
     y="5.5"
     ry="1" />
  <rect
     style="opacity:0.2;fill:#000000"
     id="rect2"
     width="10"
     height="8"
     x="6"
     y="7.5"
     ry="1" />
  <rect
     style="opacity:0.2;fill:#000000"
     id="rect1"
     width="10"
     height="8"
     x="4"
     y="9.5"
     ry="1" />
  <rect
     style="fill:#007dde;fill-opacity:1"
     id="rect8"
     width="10"
     height="8"
     x="8"
     y="5"
     ry="1" />
  <path
     id="path5"
     style="opacity:0.1;fill:#ffffff"
     d="M 9,5 C 8.4460006,5 8,5.4460006 8,6 v 0.5 c 0,-0.5539994 0.4460006,-1 1,-1 h 8 c 0.553999,0 1,0.4460006 1,1 V 6 C 18,5.4460006 17.553999,5 17,5 Z" />
  <rect
     style="fill:#2fbce5;fill-opacity:1"
     id="rect7"
     width="10"
     height="8"
     x="6"
     y="7"
     ry="1" />
  <path
     id="path4"
     style="opacity:0.2;fill:#ffffff"
     d="M 7,7 C 6.4460006,7 6,7.4460006 6,8 v 0.5 c 0,-0.5539994 0.4460006,-1 1,-1 h 8 c 0.553999,0 1,0.4460006 1,1 V 8 C 16,7.4460006 15.553999,7 15,7 Z" />
  <rect
     style="fill:#e4e4e4;fill-opacity:1"
     id="rect6"
     width="10"
     height="8"
     x="4"
     y="9"
     ry="1" />
  <path
     id="path3"
     style="opacity:0.2;fill:#ffffff"
     d="M 5,9 C 4.4460006,9 4,9.446001 4,10 v 0.5 c 0,-0.553999 0.4460006,-1 1,-1 h 8 c 0.553999,0 1,0.446001 1,1 V 10 C 14,9.446001 13.553999,9 13,9 Z" />
  <path
     d="M 7.5859379,11.379 6.8789066,12.086031 8.292969,13.500094 6.8789069,14.914156 7.585938,15.621187 9,14.207125 10.414062,15.621187 11.121093,14.914156 9.707031,13.500094 11.121093,12.086031 10.414062,11.379001 9,12.793063 Z"
     style="opacity:0.1;fill:#000000;fill-opacity:1"
     id="path1" />
  <path
     d="M 7.5859379,10.878906 6.8789066,11.585937 8.292969,13 6.8789069,14.414062 7.585938,15.121093 9,13.707031 10.414062,15.121093 11.121093,14.414062 9.707031,13 11.121093,11.585937 10.414062,10.878907 9,12.292969 Z"
     style="fill:#189ce5;fill-opacity:1"
     id="path2" />
  <path
     id="path1040"
     style="opacity:0.2;fill:#ffffff;stroke-width:4;stroke-linecap:square"
     d="M 5.5,1 C 3.007005,1 1,3.007005 1,5.5 V 6 C 1,3.507005 3.007005,1.5 5.5,1.5 h 11 C 18.992996,1.5 21,3.507005 21,6 V 5.5 C 21,3.007005 18.992996,1 16.5,1 Z" />
</svg>
