<?xml version="1.0" encoding="UTF-8" standalone="no"?>
<!-- Created with Inkscape (http://www.inkscape.org/) -->

<svg
   width="22"
   height="22"
   viewBox="0 0 22 22"
   version="1.1"
   id="svg5"
   inkscape:version="1.3 (0e150ed6c4, 2023-07-21)"
   sodipodi:docname="yast-kerberos.svg"
   xmlns:inkscape="http://www.inkscape.org/namespaces/inkscape"
   xmlns:sodipodi="http://sodipodi.sourceforge.net/DTD/sodipodi-0.dtd"
   xmlns="http://www.w3.org/2000/svg"
   xmlns:svg="http://www.w3.org/2000/svg">
  <sodipodi:namedview
     id="namedview7"
     pagecolor="#ffffff"
     bordercolor="#000000"
     borderopacity="0.25"
     inkscape:showpageshadow="2"
     inkscape:pageopacity="0.0"
     inkscape:pagecheckerboard="0"
     inkscape:deskcolor="#d1d1d1"
     inkscape:document-units="px"
     showgrid="false"
     inkscape:zoom="30.375"
     inkscape:cx="12"
     inkscape:cy="12"
     inkscape:window-width="1920"
     inkscape:window-height="937"
     inkscape:window-x="0"
     inkscape:window-y="32"
     inkscape:window-maximized="1"
     inkscape:current-layer="svg5" />
  <defs
     id="defs2" />
  <rect
     style="opacity:0.2;fill:#000000;stroke-width:1.42857;stroke-linecap:square"
     id="rect234"
     width="20"
     height="20"
     x="1"
     y="1.4999995"
     ry="4.5" />
  <rect
     style="fill:#4d4d4d;fill-opacity:1;stroke-width:1.42857;stroke-linecap:square"
     id="rect396"
     width="20"
     height="20"
     x="1"
     y="1"
     ry="4.5" />
  <path
     id="path1040"
     style="opacity:0.1;fill:#ffffff;stroke-width:4;stroke-linecap:square"
     d="M 5.5,1.0000001 C 3.007005,1.0000001 1,3.0070051 1,5.5 V 6 C 1,3.5070051 3.007005,1.5000001 5.5,1.5000001 h 11 C 18.992996,1.5000001 21,3.5070051 21,6 V 5.5 C 21,3.0070052 18.992996,1.0000001 16.5,1.0000001 Z" />
  <path
     id="path1"
     style="opacity:0.1;fill:#000000"
     d="m 11,4.5 c -2.2159936,0 -4,1.7840066 -4,4 v 2 H 6 c -0.5539988,0 -1,0.446002 -1,1 v 6 c 0,0.553998 0.4460012,1 1,1 h 10 c 0.553998,0 1,-0.446002 1,-1 v -6 c 0,-0.553998 -0.446002,-1 -1,-1 h -1 v -2 c 0,-2.2159934 -1.784006,-4 -4,-4 z m 0,1 c 1.661994,0 3,1.3380051 3,3 v 2 H 8 v -2 c 0,-1.6619949 1.3380054,-3 3,-3 z"
     sodipodi:nodetypes="sscsssssssscssssccss" />
  <path
     id="path2"
     style="opacity:1;fill:#d2d2d2;fill-opacity:1"
     d="M 11 4 C 8.7840086 4 7 5.7840088 7 8 L 7 10 L 8 10 L 8 8 C 8 6.3380068 9.3380067 5 11 5 C 12.661992 5 14 6.3380068 14 8 L 14 10 L 15 10 L 15 8 C 15 5.7840088 13.215992 4 11 4 z " />
  <path
     id="path3"
     style="opacity:0.2;fill:#ffffff"
     d="M 11 4 C 8.7840108 4 7 5.784011 7 8 L 7 8.5 C 7 6.284011 8.7840108 4.5 11 4.5 C 13.21599 4.5 15 6.284011 15 8.5 L 15 8 C 15 5.784011 13.21599 4 11 4 z " />
  <rect
     style="opacity:1;fill:#ffb437;fill-opacity:1"
     id="rect2"
     width="12"
     height="8"
     x="5"
     y="10"
     ry="1" />
  <path
     id="path4"
     style="opacity:0.2;fill:#ffffff;fill-opacity:1"
     d="M 6 10 C 5.4460006 10 5 10.446001 5 11 L 5 11.5 C 5 10.946001 5.4460006 10.5 6 10.5 L 16 10.5 C 16.553999 10.5 17 10.946001 17 11.5 L 17 11 C 17 10.446001 16.553999 10 16 10 L 6 10 z " />
  <rect
     style="opacity:1;fill:#fed96a;fill-opacity:1"
     id="rect3"
     width="12"
     height="5"
     x="5"
     y="11" />
</svg>
