<?xml version="1.0" encoding="UTF-8" standalone="no"?>
<!-- Created with Inkscape (http://www.inkscape.org/) -->

<svg
   width="22"
   height="22"
   viewBox="0 0 22 22"
   version="1.1"
   id="svg5"
   inkscape:version="1.3 (0e150ed6c4, 2023-07-21)"
   sodipodi:docname="yuzu.svg"
   xmlns:inkscape="http://www.inkscape.org/namespaces/inkscape"
   xmlns:sodipodi="http://sodipodi.sourceforge.net/DTD/sodipodi-0.dtd"
   xmlns="http://www.w3.org/2000/svg"
   xmlns:svg="http://www.w3.org/2000/svg">
  <sodipodi:namedview
     id="namedview7"
     pagecolor="#ffffff"
     bordercolor="#000000"
     borderopacity="0.25"
     inkscape:showpageshadow="2"
     inkscape:pageopacity="0.0"
     inkscape:pagecheckerboard="0"
     inkscape:deskcolor="#d1d1d1"
     inkscape:document-units="px"
     showgrid="false"
     inkscape:zoom="36.5"
     inkscape:cx="11"
     inkscape:cy="11"
     inkscape:window-width="1850"
     inkscape:window-height="1011"
     inkscape:window-x="70"
     inkscape:window-y="32"
     inkscape:window-maximized="1"
     inkscape:current-layer="svg5" />
  <defs
     id="defs2" />
  <rect
     style="opacity:0.2;fill:#000000;stroke-width:1.42857;stroke-linecap:square"
     id="rect234"
     width="20"
     height="20"
     x="1"
     y="1.5"
     ry="4.5" />
  <rect
     style="fill:#e4e4e4;fill-opacity:1;stroke-width:1.42857;stroke-linecap:square"
     id="rect396"
     width="20"
     height="20"
     x="1"
     y="1"
     ry="4.5" />
  <path
     id="path2"
     style="opacity:0.1;fill:#000000"
     d="m 10,4.5 c -3.3137052,0 -6,2.6862948 -6,6 0,3.313705 2.6862948,6 6,6 h 1 v -12 z m 0,1 v 10 c -2.7614209,0 -5,-2.238579 -5,-5 0,-2.7614209 2.2385791,-5 5,-5 z m 2,2 v 12 h 1 c 3.313705,0 6,-2.686295 6,-6 0,-3.313705 -2.686295,-6 -6,-6 z m 1,1 c 2.761421,0 5,2.238579 5,5 0,2.761421 -2.238579,5 -5,5 z" />
  <path
     id="path3"
     style="fill:#ff3c28"
     d="m 12,7 v 12 h 1 c 3.313705,0 6,-2.686295 6,-6 0,-3.3137052 -2.686295,-6 -6,-6 z m 1,1 c 2.761421,0 5,2.238579 5,5 0,2.761421 -2.238579,5 -5,5 z" />
  <path
     id="path5"
     style="fill:#0ab9e6"
     d="m 10,4 c -3.3137052,0 -6,2.6862948 -6,6 0,3.313705 2.6862948,6 6,6 h 1 V 4 Z m 0,1 V 15 C 7.2385791,15 5,12.761421 5,10 5,7.2385791 7.2385791,5 10,5 Z" />
  <path
     id="path1040"
     style="opacity:0.2;fill:#ffffff;stroke-width:4;stroke-linecap:square"
     d="M 5.5,1 C 3.007005,1 1,3.007005 1,5.5 V 6 C 1,3.507005 3.007005,1.5 5.5,1.5 h 11 C 18.992996,1.5 21,3.507005 21,6 V 5.5 C 21,3.007005 18.992996,1 16.5,1 Z" />
</svg>
