<?xml version="1.0" encoding="UTF-8" standalone="no"?>
<!-- Created with Inkscape (http://www.inkscape.org/) -->

<svg
   width="16"
   height="16"
   viewBox="0 0 16 16.000001"
   version="1.1"
   id="svg5"
   inkscape:version="1.2.2 (1:1.2.2+202305151914+b0a8486541)"
   sodipodi:docname="application-x-iso.svg"
   xmlns:inkscape="http://www.inkscape.org/namespaces/inkscape"
   xmlns:sodipodi="http://sodipodi.sourceforge.net/DTD/sodipodi-0.dtd"
   xmlns="http://www.w3.org/2000/svg"
   xmlns:svg="http://www.w3.org/2000/svg">
  <sodipodi:namedview
     id="namedview7"
     pagecolor="#ffffff"
     bordercolor="#000000"
     borderopacity="0.25"
     inkscape:showpageshadow="2"
     inkscape:pageopacity="0.0"
     inkscape:pagecheckerboard="0"
     inkscape:deskcolor="#d1d1d1"
     inkscape:document-units="px"
     showgrid="false"
     inkscape:zoom="50.375"
     inkscape:cx="7.9900744"
     inkscape:cy="8"
     inkscape:window-width="1920"
     inkscape:window-height="1008"
     inkscape:window-x="0"
     inkscape:window-y="0"
     inkscape:window-maximized="1"
     inkscape:current-layer="svg5" />
  <defs
     id="defs2" />
  <path
     id="rect448"
     style="fill:#607d8b;fill-opacity:1;stroke-width:0.25;stroke-linecap:round;stroke-linejoin:round"
     d="M 3,1 H 9 L 10.5,4.5 14,6 v 9 c 0,0.554 -0.446,1 -1,1 H 3 C 2.446,16 2,15.554 2,15 V 2 C 2,1.446 2.446,1 3,1 Z" />
  <path
     id="rect600"
     style="fill:#90a4ae;fill-opacity:1;stroke-width:0.25;stroke-linecap:round;stroke-linejoin:round"
     d="M 14,6 H 10 C 9.446,6 9,5.554 9,5 V 1 Z" />
  <path
     d="m 8,8.9004 c -1.1578,0 -2.0996,0.9418 -2.0996,2.0996 0,1.158 0.9418,2.1 2.0996,2.1 1.1578,0 2.1,-0.942 2.1,-2.1 C 10.1,9.8422 9.1578,8.9004 8,8.9004 Z M 8,10 c 0.5521,0 1,0.4479 1,1 0,0.552 -0.4479,1 -1,1 -0.5521,0 -1,-0.448 -1,-1 0,-0.5521 0.4479,-1 1,-1 z"
     style="opacity:0.5;fill:#ffffff"
     id="path2764" />
  <path
     d="m 8,7 c -2.2164,0 -4,1.7836 -4,4 0,2.216 1.7836,4 4,4 2.216,0 4,-1.784 4,-4 C 12,8.7836 10.216,7 8,7 Z m 0,2 c 1.1062,0 2,0.8938 2,2 0,1.106 -0.8938,2 -2,2 C 6.8938,13 6,12.106 6,11 6,9.8938 6.8938,9 8,9 Z"
     style="fill:#ffffff"
     id="path2736" />
</svg>
