<?xml version="1.0" encoding="UTF-8" standalone="no"?>
<!-- Created with Inkscape (http://www.inkscape.org/) -->

<svg
   width="16"
   height="16"
   viewBox="0 0 16 16.000001"
   version="1.1"
   id="svg5"
   inkscape:version="1.3.1 (91b66b0783, 2023-11-16, custom)"
   sodipodi:docname="application-pdf.svg"
   xmlns:inkscape="http://www.inkscape.org/namespaces/inkscape"
   xmlns:sodipodi="http://sodipodi.sourceforge.net/DTD/sodipodi-0.dtd"
   xmlns="http://www.w3.org/2000/svg"
   xmlns:svg="http://www.w3.org/2000/svg">
  <sodipodi:namedview
     id="namedview7"
     pagecolor="#ffffff"
     bordercolor="#000000"
     borderopacity="0.25"
     inkscape:showpageshadow="2"
     inkscape:pageopacity="0.0"
     inkscape:pagecheckerboard="0"
     inkscape:deskcolor="#d1d1d1"
     inkscape:document-units="px"
     showgrid="false"
     inkscape:zoom="45.375"
     inkscape:cx="7.9889807"
     inkscape:cy="8"
     inkscape:window-width="1920"
     inkscape:window-height="937"
     inkscape:window-x="0"
     inkscape:window-y="32"
     inkscape:window-maximized="1"
     inkscape:current-layer="svg5" />
  <defs
     id="defs2" />
  <path
     id="rect448"
     style="fill:#bf352e;fill-opacity:1;stroke-width:0.25;stroke-linecap:round;stroke-linejoin:round"
     d="M 3,1 H 9 L 10.5,4.5 14,6 v 9 c 0,0.554 -0.446,1 -1,1 H 3 C 2.446,16 2,15.554 2,15 V 2 C 2,1.446 2.446,1 3,1 Z" />
  <path
     id="rect600"
     style="fill:#f36861;fill-opacity:1;stroke-width:0.25;stroke-linecap:round;stroke-linejoin:round"
     d="M 14,6 H 10 C 9.446,6 9,5.554 9,5 V 1 Z" />
  <path
     fill="#ffffff"
     d="M 7.5091,6 C 7.32908,6 7.15407,6.092061 7.11407,6.24549 6.95905,6.82852 7.129047,7.73379 7.41912,8.85899 l -0.085,0.21996 c -0.22,0.5523 -0.5001,1.099 -0.7451,1.59 -1.005,2.01 -1.7851,3.1 -2.3051,3.172 l -0.005,-0.02047 c -0.01,-0.25061 0.44004,-0.90014 1.0551,-1.4116 0.065006,-0.05625 0.34003,-0.32221 0.34003,-0.32221 0,0 -0.37003,0.19946 -0.45504,0.25061 -0.76506,0.46542 -1.1501,0.93595 -1.2101,1.2479 -0.01997,0.0982 -0.00998,0.2108 0.070022,0.25662 l 0.20002,0.1023 c 0.53496,0.27102 1.19,-0.44516 2.0651,-2.015 0.89007,-0.30114 2.0052,-0.58264 3.0153,-0.7319 0.90508,0.52678 1.9451,0.7774 2.3452,0.67 0.07501,-0.02047 0.15501,-0.08183 0.19501,-0.13809 0.03001,-0.05114 0.075,-0.25572 0.075,-0.25572 0,0 -0.075,0.1023 -0.13501,0.13297 -0.25503,0.12275 -1.0501,-0.08183 -1.8701,-0.49099 0.71007,-0.07671 1.3001,-0.08183 1.6151,0.02047 0.40004,0.13297 0.40004,0.26594 0.39503,0.29663 0.0051,-0.02487 0.02048,-0.1126 0.02048,-0.15319 -0.01024,-0.09689 -0.03968,-0.18461 -0.11009,-0.25584 -0.14977,-0.15345 -0.51461,-0.22507 -1.0151,-0.23528 -0.37495,0 -0.82491,0.03063 -1.3149,0.10226 -0.2201,-0.133 -0.4601,-0.276 -0.6452,-0.455 -0.475,-0.4552 -0.8751,-1.0843 -1.1202,-1.79 0.015105,-0.066512 0.030083,-0.13302 0.04506,-0.19954 0.070023,-0.31711 0.12008,-1.3604 0.12008,-1.3604 0,0 -0.19501,0.78252 -0.22502,0.90014 -0.020098,0.076594 -0.04506,0.15843 -0.075015,0.24026 -0.15,-0.537 -0.225,-1.0638 -0.225,-1.4575 0,-0.11252 0.01,-0.33244 0.040004,-0.50121 0.015105,-0.12281 0.060038,-0.18932 0.1051,-0.21996 0.09001,0.020458 0.19002,0.16366 0.29002,0.39893 0.090007,0.19946 0.085008,0.43473 0.085008,0.58304 0,0 0.10001,-0.36312 0.075007,-0.57282 -0.0151,-0.128 -0.13,-0.4553 -0.385,-0.4553 z m 0.089992,3.263 c 0.26,0.5371 0.6201,1.049 1.0952,1.458 0.1049,0.092 0.2149,0.179 0.33,0.26 -0.8601,0.164 -1.7602,0.394 -2.6002,0.752 0.155,-0.276 0.32,-0.573 0.485,-0.9 0.3249,-0.629 0.525,-1.1096 0.69,-1.5699 z"
     id="path3" />
</svg>
