<?xml version="1.0" encoding="UTF-8" standalone="no"?>
<!-- Created with Inkscape (http://www.inkscape.org/) -->

<svg
   width="16"
   height="16"
   viewBox="0 0 16 16.000001"
   version="1.1"
   id="svg5"
   inkscape:version="1.2.2 (1:1.2.2+202305151914+b0a8486541)"
   sodipodi:docname="application-x-zip.svg"
   xmlns:inkscape="http://www.inkscape.org/namespaces/inkscape"
   xmlns:sodipodi="http://sodipodi.sourceforge.net/DTD/sodipodi-0.dtd"
   xmlns="http://www.w3.org/2000/svg"
   xmlns:svg="http://www.w3.org/2000/svg">
  <sodipodi:namedview
     id="namedview7"
     pagecolor="#ffffff"
     bordercolor="#000000"
     borderopacity="0.25"
     inkscape:showpageshadow="2"
     inkscape:pageopacity="0.0"
     inkscape:pagecheckerboard="0"
     inkscape:deskcolor="#d1d1d1"
     inkscape:document-units="px"
     showgrid="false"
     inkscape:zoom="50.375"
     inkscape:cx="8"
     inkscape:cy="8"
     inkscape:window-width="1920"
     inkscape:window-height="1008"
     inkscape:window-x="0"
     inkscape:window-y="0"
     inkscape:window-maximized="1"
     inkscape:current-layer="svg5" />
  <defs
     id="defs2" />
  <rect
     style="opacity:1;fill:#d0b07c;fill-opacity:1;stroke-width:4;stroke-linecap:square"
     id="rect1787"
     width="16"
     height="16"
     x="4.7683716e-06"
     y="0"
     ry="2" />
  <rect
     style="opacity:0.2;fill:#000000;fill-opacity:1"
     id="rect1515"
     width="4"
     height="7"
     x="6.0000043"
     y="-2.1514893e-08" />
  <path
     d="m 8.0000043,0 v 1 h 1 V 0 Z m 0,1 h -1 v 1 h 1 z m 0,1 v 1 h 1 V 2 Z m 0,1 h -1 v 1 h 1 z m 0,1 v 1 h 1 V 4 Z"
     style="fill:#ffffff"
     id="path1027" />
  <path
     d="m 8.0000043,4 c 1.5,0 1.5,2 1.9999997,2 v 2.5 c 0,0.277 -0.2229997,0.5 -0.4999997,0.5 h -3 c -0.277,0 -0.5,-0.223 -0.5,-0.5 V 6 c 0.5,0 0.5,-2 2,-2 z"
     style="fill:#4b4b4b"
     id="path392" />
  <path
     d="m 8.0000043,6 c -1.105,0 -2,0.9 -2,2 v 4 c 0,1.1 0.895,2 2,2 1.105,0 1.9999997,-0.9 1.9999997,-2 V 8 c 0,-1.1 -0.8949997,-2 -1.9999997,-2 z m 0,5 c 0.55228,0 1,0.44771 1,1 0,0.55228 -0.44772,1 -1,1 -0.55229,0 -1,-0.44772 -1,-1 0,-0.55229 0.44771,-1 1,-1 z"
     style="fill:#ffffff"
     id="path364" />
  <rect
     style="fill:#909090;fill-opacity:1"
     id="rect1047"
     width="1.0001"
     height="3.0000002"
     x="7.4999738"
     y="5"
     ry="0.5" />
  <rect
     style="opacity:1;fill:#43a047;fill-opacity:1;stroke-width:2;stroke-linecap:square"
     id="rect4850"
     width="8"
     height="9"
     x="8.0000038"
     y="7"
     ry="1" />
  <path
     id="path1758"
     style="fill:#ffffff;stroke-linecap:round;-inkscape-stroke:none"
     d="M 10.5 8 C 10.22386 8 10 8.2238583 10 8.5 C 10 8.7761417 10.22386 9 10.5 9 L 12.691406 9 L 10.052734 14.277344 C 9.8875743 14.609564 10.12899 14.99963 10.5 15 L 13.5 15 C 13.77614 15 14 14.776142 14 14.5 C 14 14.223858 13.77614 14 13.5 14 L 11.308594 14 L 13.947266 8.7226562 C 14.112425 8.3904356 13.87101 8.00037 13.5 8 L 10.5 8 z " />
</svg>
