<?xml version="1.0" encoding="UTF-8" standalone="no"?>
<!-- Created with Inkscape (http://www.inkscape.org/) -->

<svg
   width="16"
   height="16"
   viewBox="0 0 16 16.000001"
   version="1.1"
   id="svg5"
   inkscape:version="1.3.2 (091e20ef0f, 2023-11-25, custom)"
   sodipodi:docname="rpm.svg"
   xmlns:inkscape="http://www.inkscape.org/namespaces/inkscape"
   xmlns:sodipodi="http://sodipodi.sourceforge.net/DTD/sodipodi-0.dtd"
   xmlns="http://www.w3.org/2000/svg"
   xmlns:svg="http://www.w3.org/2000/svg">
  <sodipodi:namedview
     id="namedview7"
     pagecolor="#ffffff"
     bordercolor="#000000"
     borderopacity="0.25"
     inkscape:showpageshadow="2"
     inkscape:pageopacity="0.0"
     inkscape:pagecheckerboard="0"
     inkscape:deskcolor="#d1d1d1"
     inkscape:document-units="px"
     showgrid="false"
     inkscape:zoom="49.6875"
     inkscape:cx="7.9899371"
     inkscape:cy="8"
     inkscape:window-width="1920"
     inkscape:window-height="1008"
     inkscape:window-x="0"
     inkscape:window-y="0"
     inkscape:window-maximized="1"
     inkscape:current-layer="svg5" />
  <defs
     id="defs2" />
  <rect
     style="opacity:1;fill:#ee4a58;fill-opacity:1;stroke-width:4;stroke-linecap:square"
     id="rect1787"
     width="16"
     height="16"
     x="4.7683716e-06"
     y="0"
     ry="2" />
  <rect
     style="opacity:0.2;fill:#000000;fill-opacity:1"
     id="rect1515"
     width="4"
     height="7"
     x="3"
     y="-2.1514893e-08" />
  <path
     d="M 5,0 V 1 H 6 V 0 Z M 5,1 H 4 V 2 H 5 Z M 5,2 V 3 H 6 V 2 Z M 5,3 H 4 V 4 H 5 Z M 5,4 V 5 H 6 V 4 Z"
     style="fill:#ffffff"
     id="path1027" />
  <path
     d="M 5,4 C 6.5,4 6.5,6 6.9999997,6 V 8.5 C 6.9999997,8.777 6.777,9 6.5,9 h -3 C 3.223,9 3,8.777 3,8.5 V 6 C 3.5,6 3.5,4 5,4 Z"
     style="fill:#4b4b4b"
     id="path392" />
  <path
     d="M 5,6 C 3.895,6 3,6.9 3,8 v 4 c 0,1.1 0.895,2 2,2 1.105,0 1.9999997,-0.9 1.9999997,-2 V 8 C 6.9999997,6.9 6.105,6 5,6 Z m 0,5 c 0.55228,0 1,0.44771 1,1 0,0.55228 -0.44772,1 -1,1 -0.55229,0 -1,-0.44772 -1,-1 0,-0.55229 0.44771,-1 1,-1 z"
     style="fill:#ffffff"
     id="path364" />
  <rect
     style="fill:#909090;fill-opacity:1"
     id="rect1047"
     width="1.0001"
     height="3.0000002"
     x="4.4999695"
     y="5"
     ry="0.5" />
  <path
     id="path684"
     style="opacity:0.7;fill:#ffffff;stroke-width:0.75;stroke-linecap:round;stroke-linejoin:round;paint-order:stroke fill markers"
     d="m 12,11 c -1.656852,0 -3,1.343148 -3,3 h 1 c 0,-1.104568 0.895432,-2 2,-2 0.450266,0 0.866899,0.147337 1.201172,0.398438 l 0.599609,-0.798829 C 13.299291,11.222747 12.67561,11 12,11 Z" />
  <path
     id="path733"
     style="opacity:0.5;fill:#ffffff;stroke-width:0.75;stroke-linecap:round;stroke-linejoin:round;paint-order:stroke fill markers"
     d="m 13.800781,11.599609 -0.599609,0.798829 C 13.686919,12.763322 14,13.345698 14,14 h 1 c 0,-0.981243 -0.470864,-1.853042 -1.199219,-2.400391 z" />
</svg>
