<?xml version="1.0" encoding="UTF-8" standalone="no"?>
<!-- Created with Inkscape (http://www.inkscape.org/) -->

<svg
   width="16"
   height="16"
   viewBox="0 0 16 16.000001"
   version="1.1"
   id="svg5"
   inkscape:version="1.3.1 (91b66b0783, 2023-11-16, custom)"
   sodipodi:docname="text-x-copying.svg"
   xmlns:inkscape="http://www.inkscape.org/namespaces/inkscape"
   xmlns:sodipodi="http://sodipodi.sourceforge.net/DTD/sodipodi-0.dtd"
   xmlns="http://www.w3.org/2000/svg"
   xmlns:svg="http://www.w3.org/2000/svg">
  <sodipodi:namedview
     id="namedview7"
     pagecolor="#ffffff"
     bordercolor="#000000"
     borderopacity="0.25"
     inkscape:showpageshadow="2"
     inkscape:pageopacity="0.0"
     inkscape:pagecheckerboard="0"
     inkscape:deskcolor="#d1d1d1"
     inkscape:document-units="px"
     showgrid="false"
     inkscape:zoom="45.375"
     inkscape:cx="7.9889807"
     inkscape:cy="8"
     inkscape:window-width="1920"
     inkscape:window-height="937"
     inkscape:window-x="0"
     inkscape:window-y="32"
     inkscape:window-maximized="1"
     inkscape:current-layer="svg5" />
  <defs
     id="defs2" />
  <path
     id="rect448"
     style="fill:#e0e0e0;fill-opacity:1;stroke-width:0.25;stroke-linecap:round;stroke-linejoin:round"
     d="M 3,1 H 9 L 10.5,4.5 14,6 v 9 c 0,0.554 -0.446,1 -1,1 H 3 C 2.446,16 2,15.554 2,15 V 2 C 2,1.446 2.446,1 3,1 Z" />
  <path
     style="fill:#757575;fill-opacity:1"
     d="M 8.5,6 A 4.5,4.5 0 0 0 4,10.5 4.5,4.5 0 0 0 8.5,15 4.5,4.5 0 0 0 13,10.5 4.5,4.5 0 0 0 8.5,6 Z m 0,1 A 3.5,3.5 0 0 1 12,10.5 3.5,3.5 0 0 1 8.5,14 3.5,3.5 0 0 1 5,10.5 3.5,3.5 0 0 1 8.5,7 Z m 0,1 A 2.5,2.5 0 0 0 6,10.5 2.5,2.5 0 0 0 8.5,13 2.5,2.5 0 0 0 10.185547,12.34375 L 9.3535156,11.730469 A 1.5,1.5 0 0 1 8.5,12 1.5,1.5 0 0 1 7,10.5 1.5,1.5 0 0 1 8.5,9 1.5,1.5 0 0 1 9.3535156,9.2675781 L 10.185547,8.65625 A 2.5,2.5 0 0 0 8.5,8 Z"
     id="path3" />
  <path
     id="rect600"
     style="fill:#f5f5f5;fill-opacity:1;stroke-width:0.25;stroke-linecap:round;stroke-linejoin:round"
     d="M 14,6 H 10 C 9.446,6 9,5.554 9,5 V 1 Z" />
</svg>
