<?xml version="1.0" encoding="UTF-8" standalone="no"?>
<!-- Created with Inkscape (http://www.inkscape.org/) -->

<svg
   width="16"
   height="16"
   viewBox="0 0 16 16.000001"
   version="1.1"
   id="svg5"
   inkscape:version="1.2.2 (1:1.2.2+202305151914+b0a8486541)"
   sodipodi:docname="text-x-html.svg"
   xmlns:inkscape="http://www.inkscape.org/namespaces/inkscape"
   xmlns:sodipodi="http://sodipodi.sourceforge.net/DTD/sodipodi-0.dtd"
   xmlns="http://www.w3.org/2000/svg"
   xmlns:svg="http://www.w3.org/2000/svg">
  <sodipodi:namedview
     id="namedview7"
     pagecolor="#ffffff"
     bordercolor="#000000"
     borderopacity="0.25"
     inkscape:showpageshadow="2"
     inkscape:pageopacity="0.0"
     inkscape:pagecheckerboard="0"
     inkscape:deskcolor="#d1d1d1"
     inkscape:document-units="px"
     showgrid="false"
     inkscape:zoom="50.375"
     inkscape:cx="7.9900744"
     inkscape:cy="8"
     inkscape:window-width="1920"
     inkscape:window-height="1008"
     inkscape:window-x="0"
     inkscape:window-y="0"
     inkscape:window-maximized="1"
     inkscape:current-layer="svg5" />
  <defs
     id="defs2" />
  <path
     id="rect448"
     style="fill:#e0e0e0;fill-opacity:1;stroke-width:0.25;stroke-linecap:round;stroke-linejoin:round"
     d="M 3,1 H 9 L 10.5,4.5 14,6 v 9 c 0,0.554 -0.446,1 -1,1 H 3 C 2.446,16 2,15.554 2,15 V 2 C 2,1.446 2.446,1 3,1 Z" />
  <path
     d="m 8.0000001,7 c -2.209143,0 -4,1.7908574 -4,4 0,2.209143 1.790857,4 4,4 C 10.209143,15 12,13.209143 12,11 12,8.7908574 10.209143,7 8.0000001,7 Z M 7.6503907,7.9199219 c 0.040813,-0.00427 0.091636,0.00246 0.1328125,0 0.00491,0.019526 -0.029626,0.087799 -0.076172,0.1894531 -0.2963916,0.6474935 -0.3141448,1.4071923 -0.039062,1.8125 0.049781,0.07348 0.097656,0.143244 0.097656,0.152344 0,0.0091 -0.05454,0.01758 -0.1152344,0.01758 -0.142492,0 -0.277224,-0.08652 -0.5527344,-0.3046876 C 6.9752644,9.6901955 6.8155504,9.6080261 6.7539063,9.5957031 6.6571103,9.5763695 6.6310869,9.5856984 6.5058595,9.7109375 6.3893473,9.8274301 6.3535157,9.8894478 6.3535157,9.9960938 c 0,0.4044172 0.4786596,0.7268432 1.3710938,0.9160152 1.2119593,0.256869 1.5114918,0.487702 1.5449218,1.125 0.041966,0.799148 -0.3825617,1.402646 -1.3144531,1.869141 C 7.8438508,13.96195 7.7712785,13.982 7.7246095,14 c -0.020678,-0.0018 -0.036026,0.0018 -0.056641,0 -0.0079,-0.0247 -0.017578,-0.08084 -0.017578,-0.189453 0,-0.424451 -0.1678251,-0.861149 -0.4199218,-1.105469 -0.067673,-0.06559 -0.257665,-0.206197 -0.4199219,-0.30664 -0.1622516,-0.100437 -0.3248481,-0.217799 -0.3613281,-0.267579 -0.060456,-0.08261 -0.065981,-0.132556 -0.019531,-0.285156 0.084647,-0.278708 0.1849881,-0.433276 0.3808594,-0.609375 0.102689,-0.09232 0.2057676,-0.170075 0.2285156,-0.171875 0.02275,-0.0018 -0.1323223,-0.0465 -0.3632813,-0.09375 C 6.4448331,10.923368 6.1082666,10.822986 5.9335939,10.759766 5.6141917,10.644194 5.1839363,10.400202 5.0195313,10.224609 c -0.00694,-0.0075 -0.013491,-0.01098 -0.019531,-0.01758 0.2355535,-0.9382937 0.895167,-1.7094785 1.7714842,-2.0800759 0.1833584,-0.077558 0.3727347,-0.1291108 0.5722656,-0.1699219 0.09939,-0.020316 0.204021,-0.026679 0.3066406,-0.037109 z m 2.8593753,1.4296875 c 0.07164,0.044293 0.340748,0.6285658 0.417968,0.9140626 0.09971,0.368578 0.09249,1.006903 0,1.373047 -0.0352,0.139356 -0.07875,0.268926 -0.09375,0.285156 -0.01501,0.01623 -0.06879,-0.07795 -0.132812,-0.191406 -0.06402,-0.113431 -0.271456,-0.353883 -0.441406,-0.533203 C 9.7692119,10.679632 9.6949059,10.409211 9.9003909,9.9960938 10.004019,9.7877735 10.454316,9.3153854 10.509766,9.3496094 Z"
     style="fill:#2095f2;fill-opacity:1"
     id="path300" />
  <path
     id="rect600"
     style="fill:#f5f5f5;fill-opacity:1;stroke-width:0.25;stroke-linecap:round;stroke-linejoin:round"
     d="M 14,6 H 10 C 9.446,6 9,5.554 9,5 V 1 Z" />
</svg>
