<?xml version="1.0" encoding="UTF-8" standalone="no"?>
<!-- Created with Inkscape (http://www.inkscape.org/) -->

<svg
   width="16"
   height="16"
   viewBox="0 0 16 16.000001"
   version="1.1"
   id="svg5"
   inkscape:version="1.3 (0e150ed6c4, 2023-07-21)"
   sodipodi:docname="text-r.svg"
   xmlns:inkscape="http://www.inkscape.org/namespaces/inkscape"
   xmlns:sodipodi="http://sodipodi.sourceforge.net/DTD/sodipodi-0.dtd"
   xmlns="http://www.w3.org/2000/svg"
   xmlns:svg="http://www.w3.org/2000/svg">
  <sodipodi:namedview
     id="namedview7"
     pagecolor="#ffffff"
     bordercolor="#000000"
     borderopacity="0.25"
     inkscape:showpageshadow="2"
     inkscape:pageopacity="0.0"
     inkscape:pagecheckerboard="0"
     inkscape:deskcolor="#d1d1d1"
     inkscape:document-units="px"
     showgrid="false"
     inkscape:zoom="50.375"
     inkscape:cx="8"
     inkscape:cy="7.9900744"
     inkscape:window-width="1920"
     inkscape:window-height="984"
     inkscape:window-x="0"
     inkscape:window-y="29"
     inkscape:window-maximized="1"
     inkscape:current-layer="svg5" />
  <defs
     id="defs2" />
  <path
     id="rect448"
     style="fill:#e0e0e0;fill-opacity:1;stroke-width:0.25;stroke-linecap:round;stroke-linejoin:round"
     d="M 3,1 H 9 L 10.5,4.5 14,6 v 9 c 0,0.554 -0.446,1 -1,1 H 3 C 2.446,16 2,15.554 2,15 V 2 C 2,1.446 2.446,1 3,1 Z" />
  <path
     fill-rule="evenodd"
     style="fill:#1e62b2"
     d="m 10.200404,11.8572 c 0,0 0.22122,-0.063 0.44186,0.049 0.07656,0.039 0.20902,0.1173 0.30456,0.2198 0.09359,0.1005 0.13923,0.2022 0.13923,0.2022 l 0.914,2.672 H 9.5000537 c 0,0 -0.567,-1.866 -1.1646,-2.665 -0.1189,-0.097 -0.219,-0.351 -0.3354,-0.335 h -1.0002 L 7.0002,14.9985 H 5 V 7 h 4.3306 c 0.46943,0 2.1,0.5002 2.1694,2.5002 -0.069,2 -1.3,2.357 -1.3,2.357 z M 7.0006037,8.9996 v 1.5005 h 1.9998 c 0,0 0.51586,-0.044 0.5,-0.8 -0.01506,-0.7177 -0.5,-0.6995 -0.5,-0.6995 z"
     id="path3" />
  <path
     id="rect600"
     style="fill:#f5f5f5;fill-opacity:1;stroke-width:0.25;stroke-linecap:round;stroke-linejoin:round"
     d="M 14,6 H 10 C 9.446,6 9,5.554 9,5 V 1 Z" />
</svg>
