<?xml version="1.0" encoding="UTF-8" standalone="no"?>
<svg
   width="16"
   height="16"
   version="1.1"
   id="svg2"
   sodipodi:docname="applications-multimedia-symbolic.svg"
   inkscape:version="1.4.3 (0d15f75042, 2025-12-25)"
   xmlns:inkscape="http://www.inkscape.org/namespaces/inkscape"
   xmlns:sodipodi="http://sodipodi.sourceforge.net/DTD/sodipodi-0.dtd"
   xmlns="http://www.w3.org/2000/svg"
   xmlns:svg="http://www.w3.org/2000/svg">
  <defs
     id="defs2">
     <style
        id="current-color-scheme"
        type="text/css">
        .ColorScheme-Text { color:#dfdfdf; } .ColorScheme-Highlight { color:#4285f4; } .ColorScheme-NeutralText { color:#ff9800; } .ColorScheme-PositiveText { color:#4caf50; } .ColorScheme-NegativeText { color:#f44336; }
     </style>
  </defs>
  <sodipodi:namedview
     id="namedview2"
     pagecolor="#ffffff"
     bordercolor="#000000"
     borderopacity="0.25"
     inkscape:showpageshadow="2"
     inkscape:pageopacity="0.0"
     inkscape:pagecheckerboard="0"
     inkscape:deskcolor="#d1d1d1"
     inkscape:zoom="50.4375"
     inkscape:cx="7.9900867"
     inkscape:cy="8"
     inkscape:window-width="1920"
     inkscape:window-height="1010"
     inkscape:window-x="0"
     inkscape:window-y="0"
     inkscape:window-maximized="1"
     inkscape:current-layer="svg2" />
  <path
     id="path1"
     style="fill:currentColor"
     class="ColorScheme-Text"
     d="M 1 1 L 1 16 L 2 16 L 2 15 L 3 15 L 3 16 L 4 16 L 4 13 L 5 13 L 5 11 L 4 11 L 4 6 L 12 6 L 12 7 L 15 7 L 15 1 L 14 1 L 14 2 L 13 2 L 13 1 L 12 1 L 12 4 L 4 4 L 4 1 L 3 1 L 3 2 L 2 2 L 2 1 L 1 1 z M 2 3 L 3 3 L 3 4 L 2 4 L 2 3 z M 13 3 L 14 3 L 14 4 L 13 4 L 13 3 z M 2 5 L 3 5 L 3 6 L 2 6 L 2 5 z M 13 5 L 14 5 L 14 6 L 13 6 L 13 5 z M 2 7 L 3 7 L 3 8 L 2 8 L 2 7 z M 9 8 L 9 12.279297 C 8.7 12.109297 8.36 12 8 12 C 6.89 12 6 12.9 6 14 C 6 15.1 6.89 16 8 16 C 9.1 16 10 15.1 10 14 L 10 10 L 14 10 L 14 12.279297 C 13.7 12.109297 13.36 12 13 12 C 11.89 12 11 12.9 11 14 C 11 15.1 11.89 16 13 16 C 14.1 16 15 15.1 15 14 L 15 8 L 9 8 z M 2 9 L 3 9 L 3 10 L 2 10 L 2 9 z M 2 11 L 3 11 L 3 12 L 2 12 L 2 11 z M 2 13 L 3 13 L 3 14 L 2 14 L 2 13 z " />
</svg>
