<?xml version="1.0" encoding="UTF-8" standalone="no"?>
<svg
   width="16"
   height="16"
   version="1.1"
   id="svg1"
   sodipodi:docname="applications-games-symbolic.svg"
   inkscape:version="1.4.3 (0d15f75042, 2025-12-25)"
   xmlns:inkscape="http://www.inkscape.org/namespaces/inkscape"
   xmlns:sodipodi="http://sodipodi.sourceforge.net/DTD/sodipodi-0.dtd"
   xmlns="http://www.w3.org/2000/svg"
   xmlns:svg="http://www.w3.org/2000/svg">
  <defs
     id="defs1">
     <style
        id="current-color-scheme"
        type="text/css">
        .ColorScheme-Text { color:#dfdfdf; } .ColorScheme-Highlight { color:#4285f4; } .ColorScheme-NeutralText { color:#ff9800; } .ColorScheme-PositiveText { color:#4caf50; } .ColorScheme-NegativeText { color:#f44336; }
     </style>
  </defs>
  <sodipodi:namedview
     id="namedview1"
     pagecolor="#ffffff"
     bordercolor="#000000"
     borderopacity="0.25"
     inkscape:showpageshadow="2"
     inkscape:pageopacity="0.0"
     inkscape:pagecheckerboard="0"
     inkscape:deskcolor="#d1d1d1"
     inkscape:zoom="50.4375"
     inkscape:cx="7.9900867"
     inkscape:cy="8"
     inkscape:window-width="1920"
     inkscape:window-height="1010"
     inkscape:window-x="0"
     inkscape:window-y="0"
     inkscape:window-maximized="1"
     inkscape:current-layer="svg1" />
  <path
     id="path1"
     style="fill:currentColor;fill-opacity:1"
     class="ColorScheme-Text"
     d="M 3 2 C 1.338 2 0 3.338 0 5 L 0 11 C 0 12.662 1.338 14 3 14 L 13 14 C 14.662 14 16 12.662 16 11 L 16 5 C 16 3.338 14.662 2 13 2 L 3 2 z M 3 4 L 13 4 C 13.554 4 14 4.446 14 5 L 14 11 C 14 11.554 13.554 12 13 12 L 3 12 C 2.446 12 2 11.554 2 11 L 2 5 C 2 4.446 2.446 4 3 4 z M 4 6 L 4 7 L 3 7 L 3 9 L 4 9 L 4 10 L 6 10 L 6 9 L 7 9 L 7 7 L 6 7 L 6 6 L 4 6 z M 9 7 A 1 1 0 0 0 8 8 A 1 1 0 0 0 9 9 A 1 1 0 0 0 10 8 A 1 1 0 0 0 9 7 z M 12 7 A 1 1 0 0 0 11 8 A 1 1 0 0 0 12 9 A 1 1 0 0 0 13 8 A 1 1 0 0 0 12 7 z " />
</svg>
