<?xml version="1.0" encoding="UTF-8" standalone="no"?>
<!-- Created with Inkscape (http://www.inkscape.org/) -->

<svg
   width="16"
   height="16"
   viewBox="0 0 16 16"
   version="1.1"
   id="svg5"
   inkscape:version="1.3 (0e150ed6c4, 2023-07-21)"
   sodipodi:docname="system-switch-user.svg"
   xmlns:inkscape="http://www.inkscape.org/namespaces/inkscape"
   xmlns:sodipodi="http://sodipodi.sourceforge.net/DTD/sodipodi-0.dtd"
   xmlns="http://www.w3.org/2000/svg"
   xmlns:svg="http://www.w3.org/2000/svg">
  <sodipodi:namedview
     id="namedview7"
     pagecolor="#ffffff"
     bordercolor="#000000"
     borderopacity="0.25"
     inkscape:showpageshadow="2"
     inkscape:pageopacity="0.0"
     inkscape:pagecheckerboard="0"
     inkscape:deskcolor="#d1d1d1"
     inkscape:document-units="px"
     showgrid="false"
     inkscape:zoom="50"
     inkscape:cx="7.99"
     inkscape:cy="8"
     inkscape:window-width="1920"
     inkscape:window-height="1004"
     inkscape:window-x="0"
     inkscape:window-y="0"
     inkscape:window-maximized="1"
     inkscape:current-layer="svg5" />
  <defs
     id="defs2" />
  <rect
     style="fill:#3f51b5;fill-opacity:1;stroke-width:1.14286;stroke-linecap:square"
     id="rect396"
     width="16"
     height="16"
     x="0"
     y="0"
     ry="4" />
  <path
     style="fill:#000000;opacity:0.2"
     d="m 5,3.5001215 -2.5,3 H 4 a 1.0001,0.99660735 0 0 0 0,0.00977 V 12.49036 a 1.0001,0.99660735 0 1 0 2,0 V 6.5098871 a 1.0001,0.99660735 0 0 0 0,-0.00977 h 1.5 z m 6.015625,0 A 1.0001,0.99660735 0 0 0 10,4.5098871 v 5.9804689 a 1.0001,0.99660735 0 0 0 0,0.0098 H 8.5 l 2.5,3 2.5,-3 H 12 a 1.0001,0.99660735 0 0 0 0,-0.0098 V 4.5098871 A 1.0001,0.99660735 0 0 0 11.015625,3.5001215 Z"
     id="path1" />
  <path
     style="fill:#ffffff"
     d="m 5,3.0000914 -2.5,3 H 4 a 1.0001,0.99660735 0 0 0 0,0.00977 V 11.99033 a 1.0001,0.99660735 0 1 0 2,0 V 6.009857 a 1.0001,0.99660735 0 0 0 0,-0.00977 h 1.5 z m 6.015625,0 A 1.0001,0.99660735 0 0 0 10,4.009857 v 5.9804689 a 1.0001,0.99660735 0 0 0 0,0.0098 H 8.5 l 2.5,3 2.5,-3 H 12 a 1.0001,0.99660735 0 0 0 0,-0.0098 V 4.009857 A 1.0001,0.99660735 0 0 0 11.015625,3.0000914 Z"
     id="path2" />
  <path
     id="rect639"
     style="fill:#ffffff;stroke-linecap:square;opacity:0.1"
     d="M 4 0 C 1.7840022 0 0 1.7840022 0 4 L 0 5 C 0 2.7840022 1.7840022 1 4 1 L 12 1 C 14.215998 1 16 2.7840022 16 5 L 16 4 C 16 1.7840022 14.215998 0 12 0 L 4 0 z " />
</svg>
