<?xml version="1.0" encoding="UTF-8" standalone="no"?>
<svg
   width="22"
   height="22"
   version="1.1"
   id="svg6"
   sodipodi:docname="drive-harddisk-ieee1394-symbolic.svg"
   inkscape:version="1.4.3 (0d15f75042, 2025-12-25)"
   xmlns:inkscape="http://www.inkscape.org/namespaces/inkscape"
   xmlns:sodipodi="http://sodipodi.sourceforge.net/DTD/sodipodi-0.dtd"
   xmlns="http://www.w3.org/2000/svg"
   xmlns:svg="http://www.w3.org/2000/svg">
  <defs
     id="defs6">
    <style
       id="current-color-scheme"
       type="text/css">
        .ColorScheme-Text { color:#dfdfdf; } .ColorScheme-Highlight { color:#4285f4; } .ColorScheme-NeutralText { color:#ff9800; } .ColorScheme-PositiveText { color:#4caf50; } .ColorScheme-NegativeText { color:#f44336; }
     </style>
  </defs>
  <sodipodi:namedview
     id="namedview6"
     pagecolor="#ffffff"
     bordercolor="#000000"
     borderopacity="0.25"
     inkscape:showpageshadow="2"
     inkscape:pageopacity="0.0"
     inkscape:pagecheckerboard="0"
     inkscape:deskcolor="#d1d1d1"
     inkscape:zoom="36.681818"
     inkscape:cx="10.986369"
     inkscape:cy="11"
     inkscape:window-width="1920"
     inkscape:window-height="1010"
     inkscape:window-x="0"
     inkscape:window-y="0"
     inkscape:window-maximized="1"
     inkscape:current-layer="svg6" />
  <path
     id="path1"
     style="fill:currentColor;fill-opacity:1"
     class="ColorScheme-Text"
     d="M 7.9780937,4.838 5.857,6.9590938 6.5640312,7.666125 8.685125,5.5450313 Z m 7.0566403,0.015625 -2.121093,2.1210938 2.121093,2.1210936 2.121094,-2.1210936 z M 9.3921561,6.2520625 7.2710625,8.3731563 7.9780937,9.0821404 10.099187,6.9590938 Z m 2.1074219,1.7480469 c -1.379999,0 -2.4999999,1.119001 -2.4999999,2.4999996 0,1.380999 1.1200009,2.5 2.4999999,2.5 1.379999,0 2.5,-1.119001 2.5,-2.5 0,-1.3809986 -1.120001,-2.4999996 -2.5,-2.4999996 z m 0,1 c 0.829999,0 1.5,0.672001 1.5,1.4999996 0,0.827999 -0.670001,1.5 -1.5,1.5 -0.829999,0 -1.4999999,-0.672001 -1.4999999,-1.5 0,-0.8279986 0.6700009,-1.4999996 1.4999999,-1.4999996 z M 9.9995781,14.000109 v 1 h 2.9999999 v -1 z m 0,2 v 1 h 2.9999999 v -1 z" />
</svg>
