<?xml version="1.0" encoding="UTF-8" standalone="no"?>
<!-- Created with Inkscape (http://www.inkscape.org/) -->

<svg
   width="22"
   height="22"
   viewBox="0 0 22 22"
   version="1.1"
   id="svg5"
   inkscape:version="1.2.2 (1:1.2.2+202305151914+b0a8486541)"
   sodipodi:docname="audio-speakers.svg"
   xmlns:inkscape="http://www.inkscape.org/namespaces/inkscape"
   xmlns:sodipodi="http://sodipodi.sourceforge.net/DTD/sodipodi-0.dtd"
   xmlns="http://www.w3.org/2000/svg"
   xmlns:svg="http://www.w3.org/2000/svg">
  <sodipodi:namedview
     id="namedview7"
     pagecolor="#ffffff"
     bordercolor="#000000"
     borderopacity="0.25"
     inkscape:showpageshadow="2"
     inkscape:pageopacity="0.0"
     inkscape:pagecheckerboard="0"
     inkscape:deskcolor="#d1d1d1"
     inkscape:document-units="px"
     showgrid="false"
     inkscape:zoom="36.636364"
     inkscape:cx="10.986352"
     inkscape:cy="11"
     inkscape:window-width="1920"
     inkscape:window-height="1008"
     inkscape:window-x="0"
     inkscape:window-y="0"
     inkscape:window-maximized="1"
     inkscape:current-layer="svg5"
     showguides="true" />
  <defs
     id="defs2" />
  <path
     d="M 11,1.5 C 9.499576,1.50419 8.019327,1.8459656 6.6689455,2.5 H 4 c -1.107999,0 -2,0.8920011 -2,2 V 7.168946 C 1.3459655,8.519327 1.00419,9.999576 1,11.5 c 0.0042,1.500424 0.3459655,2.980674 1,4.331054 V 18.5 c 0,1.107999 0.892001,2 2,2 H 6.6689455 C 8.019327,21.154035 9.499576,21.49581 11,21.5 c 1.500424,-0.0042 2.980674,-0.345965 4.331054,-1 H 18 c 1.107999,0 2,-0.892001 2,-2 V 15.831054 C 20.654035,14.480674 20.99581,13.000424 21,11.5 20.999335,9.991661 20.65747,8.503013 20,7.145508 V 4.5 c 0,-1.1079989 -0.892001,-2 -2,-2 H 15.354492 C 13.996987,1.8425299 12.508339,1.500665 11,1.5 Z"
     style="opacity:0.2;fill:#000000;stroke-width:0.5;stroke-linecap:round;stroke-linejoin:round"
     id="path546" />
  <path
     id="path481"
     style="fill:#4f4f4f;stroke-width:0.5;stroke-linecap:round;stroke-linejoin:round"
     d="M 11,1 C 9.499576,1.00419 8.019327,1.3459656 6.6689455,2 H 4 C 2.8920011,2 2,2.8920011 2,4 V 6.6689455 C 1.3459656,8.019327 1.00419,9.499576 1,11 c 0.00419,1.500424 0.3459656,2.980674 1,4.331054 V 18 c 0,1.107999 0.8920011,2 2,2 H 6.6689455 C 8.019327,20.654035 9.499576,20.99581 11,21 c 1.500424,-0.0042 2.980674,-0.345965 4.331054,-1 H 18 c 1.107999,0 2,-0.892001 2,-2 V 15.331054 C 20.654035,13.980674 20.99581,12.500424 21,11 20.999335,9.491661 20.65747,8.003013 20,6.645508 V 4 C 20,2.8920011 19.107999,2 18,2 H 15.354492 C 13.996987,1.3425299 12.508339,1.000665 11,1 Z" />
  <circle
     style="fill:#333333;fill-opacity:1;stroke-width:0.5"
     id="path1406"
     cx="11"
     cy="11"
     r="8" />
  <circle
     style="fill:#fec006;fill-opacity:1;stroke-width:4.72232;stroke-linecap:round;stroke-linejoin:round"
     id="path2453"
     cx="11"
     cy="11"
     r="7" />
  <circle
     style="opacity:0.2;fill:#000000;fill-opacity:1;stroke-width:6.75;stroke-linecap:round;stroke-linejoin:round"
     id="path3067"
     cx="11"
     cy="11.5"
     r="3" />
  <circle
     style="fill:#3f3f3f;fill-opacity:1;stroke-width:12.9239;stroke-linecap:round;stroke-linejoin:round"
     id="path3261"
     cx="11"
     cy="11"
     r="3" />
  <path
     id="path1718"
     style="opacity:1;fill:#868686;fill-opacity:1;stroke-width:0.25;stroke-linecap:round;stroke-linejoin:round;paint-order:stroke fill markers"
     d="M 3.5,3 C 3.2238576,3 3,3.2238576 3,3.5 3,3.7761423 3.2238576,4 3.5,4 3.7761423,4 4,3.7761423 4,3.5 4,3.2238576 3.7761423,3 3.5,3 Z m 15,0 C 18.223858,3 18,3.223858 18,3.5 18,3.776142 18.223858,4 18.5,4 18.776142,4 19,3.776142 19,3.5 19,3.223858 18.776142,3 18.5,3 Z M 3.5,18 C 3.2238576,18 3,18.223857 3,18.5 3,18.776142 3.2238576,19 3.5,19 3.7761423,19 4,18.776142 4,18.5 4,18.223857 3.7761423,18 3.5,18 Z m 15,0 C 18.223858,18 18,18.223858 18,18.5 18,18.776142 18.223858,19 18.5,19 18.776142,19 19,18.776142 19,18.5 19,18.223858 18.776142,18 18.5,18 Z" />
  <path
     id="path574"
     style="opacity:0.1;fill:#ffffff;stroke-width:0.5;stroke-linecap:round;stroke-linejoin:round"
     d="M 11,1 C 9.499577,1.00419 8.019325,1.3459662 6.6689455,2 H 4 C 2.8920021,2 2,2.8920023 2,4 v 0.5 c 0,-1.1079979 0.8920021,-2 2,-2 H 6.6689455 C 8.019325,1.8459662 9.499577,1.50419 11,1.5 c 1.508338,6.65e-4 2.996988,0.3425306 4.354492,1 H 18 c 1.107998,0 2,0.8920021 2,2 V 4 C 20,2.8920023 19.107998,2 18,2 H 15.354492 C 13.996988,1.3425306 12.508338,1.000665 11,1 Z m 9,5.645508 v 0.5 c 0.619931,1.279997 0.954913,2.676923 0.992187,4.09668 C 20.994372,11.161427 20.999774,11.080895 21,11 20.999335,9.491663 20.657469,8.003012 20,6.645508 Z M 2,6.6689455 C 1.3459662,8.019325 1.00419,9.499577 1,11 1.0002337,11.0835 1.00549,11.166642 1.00781,11.25 1.0471788,9.83552 1.3823645,8.444174 2,7.168946 Z" />
</svg>
