<?xml version="1.0" encoding="UTF-8" standalone="no"?>
<svg
   width="22"
   height="22"
   version="1"
   id="svg21"
   sodipodi:docname="audio-card.svg"
   inkscape:version="1.3 (0e150ed6c4, 2023-07-21)"
   xmlns:inkscape="http://www.inkscape.org/namespaces/inkscape"
   xmlns:sodipodi="http://sodipodi.sourceforge.net/DTD/sodipodi-0.dtd"
   xmlns="http://www.w3.org/2000/svg"
   xmlns:svg="http://www.w3.org/2000/svg">
  <defs
     id="defs21" />
  <sodipodi:namedview
     id="namedview21"
     pagecolor="#ffffff"
     bordercolor="#000000"
     borderopacity="0.25"
     inkscape:showpageshadow="2"
     inkscape:pageopacity="0.0"
     inkscape:pagecheckerboard="0"
     inkscape:deskcolor="#d1d1d1"
     inkscape:zoom="35.590909"
     inkscape:cx="10.985951"
     inkscape:cy="11"
     inkscape:window-width="1920"
     inkscape:window-height="984"
     inkscape:window-x="0"
     inkscape:window-y="29"
     inkscape:window-maximized="1"
     inkscape:current-layer="svg21" />
  <path
     style="opacity:0.2;fill:#000000"
     d="M 5,4.4997 C 4.446,4.4997 4,4.9457 4,5.4997 V 16.5 C 4,17.054 4.446,17.5 5,17.5 H 6.5 V 15.5 H 11.5 V 17.5 H 21 C 21.554,17.5 22,17.054 22,16.5 V 5.4997 C 22,4.9457 21.554,4.4997 21,4.4997 Z"
     id="path1" />
  <path
     style="fill:#419d45"
     d="M 5,3.9997 C 4.446,3.9997 4,4.4457 4,4.9997 V 16 C 4,16.554 4.446,17 5,17 H 6.5 V 15 H 11.5 V 17 H 21 C 21.554,17 22,16.554 22,16 V 4.9997 C 22,4.4457 21.554,3.9997 21,3.9997 Z"
     id="path2" />
  <path
     style="opacity:0.1;fill:#ffffff"
     d="M 5,3.9846 C 4.446,3.9846 4,4.4306 4,4.9846 V 5.4846 C 4,4.9306 4.446,4.4846 5,4.4846 H 21 C 21.554,4.4846 22,4.9306 22,5.4846 V 4.9846 C 22,4.4306 21.554,3.9846 21,3.9846 Z"
     id="path3" />
  <path
     id="rect3"
     style="opacity:0.2;fill:#000000"
     d="M 12 15.5 L 12 18.5 L 14 18.5 L 14 15.5 L 12 15.5 z M 14.5 15.5 L 14.5 18.5 L 16.5 18.5 L 16.5 15.5 L 14.5 15.5 z M 17 15.5 L 17 18.5 L 19 18.5 L 19 15.5 L 17 15.5 z M 19.5 15.5 L 19.5 18.5 L 21.5 18.5 L 21.5 15.5 L 19.5 15.5 z " />
  <path
     id="rect7"
     style="fill:#f8c44e"
     d="M 12 15 L 12 18 L 14 18 L 14 15 L 12 15 z M 14.5 15 L 14.5 18 L 16.5 18 L 16.5 15 L 14.5 15 z M 17 15 L 17 18 L 19 18 L 19 15 L 17 15 z M 19.5 15 L 19.5 18 L 21.5 18 L 21.5 15 L 19.5 15 z " />
  <rect
     style="fill:#4e4e4e"
     width="5"
     height="5"
     x="10"
     y="7"
     rx="1"
     ry="1"
     id="rect11" />
  <path
     id="rect12"
     style="fill:#b7b7b7"
     d="M 11 6 L 11 7.5 L 12 7.5 L 12 6 L 11 6 z M 13 6 L 13 7.5 L 14 7.5 L 14 6 L 13 6 z M 9 8 L 9 9 L 10.5 9 L 10.5 8 L 9 8 z M 14.5 8 L 14.5 9 L 16 9 L 16 8 L 14.5 8 z M 9 10 L 9 11 L 10.5 11 L 10.5 10 L 9 10 z M 14.5 10 L 14.5 11 L 16 11 L 16 10 L 14.5 10 z M 11 11.5 L 11 13 L 12 13 L 12 11.5 L 11 11.5 z M 13 11.5 L 13 13 L 14 13 L 14 11.5 L 13 11.5 z " />
  <path
     style="color:#000000;fill:#000000;stroke-linecap:round;stroke-linejoin:round;-inkscape-stroke:none;opacity:0.2"
     d="m 2,2.5 a 1,1 0 0 0 -1,1 1,1 0 0 0 1,1 h 1 v 15 a 1,1 0 0 0 1,1 1,1 0 0 0 1,-1 v -16 a 1.0001,1.0001 0 0 0 -1,-1 z"
     id="path19" />
  <path
     style="color:#000000;fill:#b7b7b7;stroke-linecap:round;stroke-linejoin:round;-inkscape-stroke:none"
     d="M 2,2 A 1,1 0 0 0 1,3 1,1 0 0 0 2,4 h 1 v 15 a 1,1 0 0 0 1,1 1,1 0 0 0 1,-1 V 3 A 1.0001,1.0001 0 0 0 4,2 Z"
     id="path22" />
  <path
     style="opacity:0.2;fill:#ffffff"
     d="M 2,1.9997 A 1.0001,1.0001 0 0 0 1.0195,3.2458 1.0001,1.0001 0 0 1 2,2.4997 H 4 A 1.0001,1.0001 0 0 1 5,3.4997 V 2.9997 A 1.0001,1.0001 0 0 0 4,1.9997 Z"
     id="path21" />
</svg>
