<?xml version="1.0" encoding="UTF-8" standalone="no"?>
<svg
   width="22"
   height="22"
   version="1"
   id="svg3"
   sodipodi:docname="drive-harddisk.svg"
   inkscape:version="1.3 (0e150ed6c4, 2023-07-21)"
   xmlns:inkscape="http://www.inkscape.org/namespaces/inkscape"
   xmlns:sodipodi="http://sodipodi.sourceforge.net/DTD/sodipodi-0.dtd"
   xmlns="http://www.w3.org/2000/svg"
   xmlns:svg="http://www.w3.org/2000/svg">
  <defs
     id="defs3" />
  <sodipodi:namedview
     id="namedview3"
     pagecolor="#ffffff"
     bordercolor="#000000"
     borderopacity="0.25"
     inkscape:showpageshadow="2"
     inkscape:pageopacity="0.0"
     inkscape:pagecheckerboard="0"
     inkscape:deskcolor="#d1d1d1"
     inkscape:zoom="35.590909"
     inkscape:cx="10.985951"
     inkscape:cy="11"
     inkscape:window-width="1920"
     inkscape:window-height="984"
     inkscape:window-x="0"
     inkscape:window-y="29"
     inkscape:window-maximized="1"
     inkscape:current-layer="svg3" />
  <rect
     style="opacity:0.2;fill:#000000;stroke-width:0.5"
     id="rect3"
     width="16"
     height="20"
     x="3"
     y="1.5"
     ry="1" />
  <rect
     style="opacity:1;fill:#8e8e8e;fill-opacity:1;stroke-width:0.5"
     id="rect4"
     width="16"
     height="20"
     x="3"
     y="1"
     ry="1" />
  <path
     style="opacity:0.5;fill:#000000;stroke-width:0.5"
     d="m 11,4 c 2.7614,0 5,2.2386 5,5 0,2.7614 -2.2386,5 -5,5 H 6 V 9 C 6,6.2386 8.2386,4 11,4 Z m 0,2.5 C 9.6193,6.5 8.5,7.6193 8.5,9 c 0,1.3807 1.1193,2.5 2.5,2.5 1.3807,0 2.5,-1.1193 2.5,-2.5 0,-1.3807 -1.1193,-2.5 -2.5,-2.5 z"
     id="path2" />
  <path
     style="opacity:0.2;fill:#ffffff;stroke-width:0.5"
     d="M 4,1 C 3.446,1 3,1.446 3,2 v 0.5 c 0,-0.554 0.446,-1 1,-1 h 14 c 0.554,0 1,0.446 1,1 V 2 C 19,1.446 18.554,1 18,1 Z"
     id="path3" />
</svg>
