<?xml version="1.0" encoding="UTF-8" standalone="no"?>
<!-- Created with Inkscape (http://www.inkscape.org/) -->

<svg
   width="22"
   height="22"
   viewBox="0 0 22 22"
   version="1.1"
   id="svg457"
   inkscape:version="1.3 (0e150ed6c4, 2023-07-21)"
   sodipodi:docname="input-mouse.svg"
   xmlns:inkscape="http://www.inkscape.org/namespaces/inkscape"
   xmlns:sodipodi="http://sodipodi.sourceforge.net/DTD/sodipodi-0.dtd"
   xmlns="http://www.w3.org/2000/svg"
   xmlns:svg="http://www.w3.org/2000/svg">
  <sodipodi:namedview
     id="namedview459"
     pagecolor="#ffffff"
     bordercolor="#000000"
     borderopacity="0.25"
     inkscape:showpageshadow="2"
     inkscape:pageopacity="0.0"
     inkscape:pagecheckerboard="0"
     inkscape:deskcolor="#d1d1d1"
     inkscape:document-units="px"
     showgrid="false"
     inkscape:zoom="36.363636"
     inkscape:cx="11.01375"
     inkscape:cy="11"
     inkscape:window-width="1920"
     inkscape:window-height="1004"
     inkscape:window-x="0"
     inkscape:window-y="0"
     inkscape:window-maximized="1"
     inkscape:current-layer="svg457" />
  <defs
     id="defs454" />
  <rect
     style="opacity:0.2;fill:#000000;stroke-width:2"
     id="rect1"
     width="12"
     height="20"
     x="5"
     y="1.5"
     ry="6" />
  <rect
     style="opacity:1;fill:#a7a7a7;stroke-width:2;fill-opacity:1"
     id="rect3"
     width="12"
     height="20"
     x="5"
     y="1"
     ry="6" />
  <path
     id="rect5"
     style="opacity:0.1;fill:#000000;stroke-width:2"
     d="M 11 1 C 7.6760033 1 5 3.6760033 5 7 L 5 10 L 17 10 L 17 7 C 17 3.6760033 14.323997 1 11 1 z " />
  <path
     id="rect4"
     style="opacity:0.1;fill:#000000;stroke-width:2"
     d="M 11 1 C 7.6760033 1 5 3.6760033 5 7 L 5 10 L 11 10 L 11 1 z " />
  <path
     d="M 5,7.5 V 7 c 0,-3.323997 2.676003,-6 6,-6 3.323997,0 6,2.676003 6,6 v 0.5 c 0,-3.323997 -2.676003,-6 -6,-6 -3.323997,0 -6,2.676003 -6,6 z"
     style="opacity:0.2;fill:#ffffff;stroke-width:2"
     id="path1" />
  <rect
     style="opacity:0.2;fill:#000000;stroke-width:2"
     id="rect6"
     width="2"
     height="6"
     x="10"
     y="3.5"
     ry="1" />
  <rect
     style="opacity:1;fill:#e4e4e4;stroke-width:2;fill-opacity:1"
     id="rect7"
     width="2"
     height="6"
     x="10"
     y="3"
     ry="1" />
</svg>
