<?xml version="1.0" encoding="UTF-8" standalone="no"?>
<!-- Created with Inkscape (http://www.inkscape.org/) -->

<svg
   width="22"
   height="22"
   viewBox="0 0 22 22"
   version="1.1"
   id="svg5"
   inkscape:version="1.2.2 (1:1.2.2+202305151914+b0a8486541)"
   sodipodi:docname="media-flash.svg"
   xmlns:inkscape="http://www.inkscape.org/namespaces/inkscape"
   xmlns:sodipodi="http://sodipodi.sourceforge.net/DTD/sodipodi-0.dtd"
   xmlns="http://www.w3.org/2000/svg"
   xmlns:svg="http://www.w3.org/2000/svg">
  <sodipodi:namedview
     id="namedview7"
     pagecolor="#ffffff"
     bordercolor="#000000"
     borderopacity="0.25"
     inkscape:showpageshadow="2"
     inkscape:pageopacity="0.0"
     inkscape:pagecheckerboard="0"
     inkscape:deskcolor="#d1d1d1"
     inkscape:document-units="px"
     showgrid="false"
     inkscape:zoom="36.636364"
     inkscape:cx="10.986352"
     inkscape:cy="11"
     inkscape:window-width="1920"
     inkscape:window-height="1008"
     inkscape:window-x="0"
     inkscape:window-y="0"
     inkscape:window-maximized="1"
     inkscape:current-layer="svg5" />
  <defs
     id="defs2" />
  <path
     d="M 8.500273,1.5 C 8.1024755,1.5000765 7.720994,1.6581488 7.439727,1.9394532 L 3.4394535,5.9392265 C 3.1581488,6.220494 3.0000765,6.6019755 3,6.9997735 V 20 c 0,0.830998 0.6690008,1.5 1.5,1.5 h 13 C 18.330998,21.5 19,20.830998 19,20 V 3 C 19,2.1690008 18.330998,1.5 17.5,1.5 Z"
     style="opacity:0.2;fill:#000000;fill-opacity:1;stroke-width:3;stroke-linecap:round;stroke-linejoin:round"
     id="path1478" />
  <path
     d="M 8.2500235,1 C 7.8522255,1.0000766 7.470744,1.1581491 7.189477,1.4394532 L 3.439453,5.1894765 C 3.158149,5.470744 3.0000765,5.8522255 3,6.2500235 V 19.5 C 3,20.330998 3.669001,21 4.5,21 h 13 C 18.330998,21 19,20.330998 19,19.5 V 2.5 C 19,1.6690008 18.330998,1 17.5,1 Z"
     style="fill:#e0e0e0;fill-opacity:1;stroke-width:3;stroke-linecap:round;stroke-linejoin:round"
     id="path3863" />
  <path
     id="rect1028"
     style="fill:#f8c44e;fill-opacity:1;stroke-width:1.73205;stroke-linecap:round;stroke-linejoin:round"
     d="M 6,5 V 8 H 8 V 5 Z M 9,3 v 5 h 2 V 3 Z m 3,0 v 5 h 2 V 3 Z m 3,0 v 5 h 2 V 3 Z" />
  <rect
     style="opacity:0.2;fill:#000000;fill-opacity:1;stroke-width:2.88443;stroke-linecap:round;stroke-linejoin:round"
     id="rect1343"
     width="12"
     height="8"
     x="5"
     y="11"
     ry="1" />
  <path
     id="path3891"
     style="opacity:0.2;fill:#ffffff;fill-opacity:1;stroke-width:3;stroke-linecap:round;stroke-linejoin:round"
     d="M 8.25,1 C 7.8522025,1.0000765 7.47072,1.1581494 7.189453,1.4394531 L 3.4394531,5.189453 C 3.1581494,5.4707205 3.0000765,5.8522025 3,6.25 v 0.5 C 3.0000765,6.3522025 3.1581494,5.9707205 3.4394531,5.689453 L 7.189453,1.9394531 C 7.47072,1.6581494 7.852203,1.5000765 8.25,1.5 H 17.5 C 18.330997,1.5 19,2.1690019 19,3 V 2.5 C 19,1.6690019 18.330997,1 17.5,1 Z" />
</svg>
