<?xml version="1.0" encoding="UTF-8" standalone="no"?>
<!-- Created with Inkscape (http://www.inkscape.org/) -->

<svg
   width="22"
   height="22"
   viewBox="0 0 22 22"
   version="1.1"
   id="svg1"
   sodipodi:docname="network-server.svg"
   inkscape:version="1.3.2 (091e20ef0f, 2023-11-25, custom)"
   xmlns:inkscape="http://www.inkscape.org/namespaces/inkscape"
   xmlns:sodipodi="http://sodipodi.sourceforge.net/DTD/sodipodi-0.dtd"
   xmlns="http://www.w3.org/2000/svg"
   xmlns:svg="http://www.w3.org/2000/svg">
  <sodipodi:namedview
     id="namedview1"
     pagecolor="#ffffff"
     bordercolor="#000000"
     borderopacity="0.25"
     inkscape:showpageshadow="2"
     inkscape:pageopacity="0.0"
     inkscape:pagecheckerboard="0"
     inkscape:deskcolor="#d1d1d1"
     inkscape:document-units="px"
     inkscape:zoom="30.375"
     inkscape:cx="11.983539"
     inkscape:cy="12"
     inkscape:window-width="1920"
     inkscape:window-height="942"
     inkscape:window-x="0"
     inkscape:window-y="32"
     inkscape:window-maximized="1"
     inkscape:current-layer="svg1" />
  <defs
     id="defs1" />
  <rect
     style="opacity:0.2;fill:#000000"
     id="rect1"
     width="20"
     height="6"
     x="1"
     y="14.5"
     ry="1" />
  <rect
     style="fill:#8e8e8e;fill-opacity:1"
     id="rect2"
     width="20"
     height="6"
     x="1"
     y="14"
     ry="1" />
  <path
     d="m 3.5297902,14.999867 c -0.2259737,-0.01327 -0.4326729,0.126934 -0.5039063,0.341797 l -1,3 c -0.087542,0.262131 0.054176,0.545567 0.3164063,0.632812 0.2621315,0.08754 0.5455669,-0.05418 0.6328125,-0.316406 l 1,-3 c 0.087542,-0.262131 -0.054176,-0.545567 -0.3164063,-0.632812 -0.041665,-0.0141 -0.085008,-0.02263 -0.1289062,-0.02539 z m 2,0 c -0.2259737,-0.01327 -0.4326729,0.126934 -0.5039063,0.341797 l -1,3 c -0.087542,0.262131 0.054176,0.545567 0.3164063,0.632812 0.2621315,0.08754 0.5455669,-0.05418 0.6328125,-0.316406 l 1,-3 c 0.087542,-0.262131 -0.054176,-0.545567 -0.3164063,-0.632812 -0.041665,-0.0141 -0.085008,-0.02263 -0.1289062,-0.02539 z m 2,0 c -0.2259737,-0.01327 -0.4326729,0.126934 -0.5039063,0.341797 l -1,3 c -0.087542,0.262131 0.054176,0.545567 0.3164063,0.632812 0.2621315,0.08754 0.5455669,-0.05418 0.6328125,-0.316406 l 1,-3 c 0.087542,-0.262131 -0.054176,-0.545567 -0.3164063,-0.632812 -0.041665,-0.0141 -0.085008,-0.02263 -0.1289062,-0.02539 z m 2.0000001,0 c -0.225974,-0.01327 -0.432673,0.126934 -0.503906,0.341797 l -1.0000004,3 c -0.087542,0.262131 0.054176,0.545567 0.3164063,0.632812 0.2621315,0.08754 0.5455669,-0.05418 0.6328125,-0.316406 l 0.9999996,-3 c 0.087542,-0.262131 -0.054176,-0.545567 -0.316406,-0.632812 -0.041665,-0.0141 -0.085008,-0.02263 -0.128906,-0.02539 z"
     style="opacity:0.5;fill:#000000;stroke-linecap:round;-inkscape-stroke:none"
     id="path1" />
  <path
     d="m 14,15.5 c -0.552285,0 -1,0.447715 -1,1 0,0.552285 0.447715,1 1,1 0.552285,0 1,-0.447715 1,-1 0,-0.552285 -0.447715,-1 -1,-1 z m 2.5,0 c -0.552285,0 -1,0.447715 -1,1 0,0.552285 0.447715,1 1,1 0.552285,0 1,-0.447715 1,-1 0,-0.552285 -0.447715,-1 -1,-1 z m 2.5,0 c -0.552285,0 -1,0.447715 -1,1 0,0.552285 0.447715,1 1,1 0.552285,0 1,-0.447715 1,-1 0,-0.552285 -0.447715,-1 -1,-1 z"
     style="opacity:0.2"
     id="path4" />
  <rect
     style="opacity:0.2;fill:#000000;fill-opacity:1"
     id="rect3"
     width="20"
     height="6"
     x="1"
     y="8.5"
     ry="1" />
  <rect
     style="fill:#8e8e8e;fill-opacity:1"
     id="rect4"
     width="20"
     height="6"
     x="1"
     y="8"
     ry="1" />
  <path
     d="M 3.5297902,8.9998669 C 3.3038165,8.9865982 3.0971173,9.1268011 3.0258839,9.3416638 l -1,3.0000002 c -0.087542,0.262131 0.054176,0.545567 0.3164063,0.632812 0.2621315,0.08754 0.5455669,-0.05418 0.6328125,-0.316406 l 1,-3 C 4.0626443,9.3959385 3.9209266,9.1125031 3.6586964,9.0252575 3.6170315,9.0111609 3.5736887,9.0026237 3.5297902,8.9998669 Z m 2,0 C 5.3038165,8.9865982 5.0971173,9.1268011 5.0258839,9.3416638 l -1,3.0000002 c -0.087542,0.262131 0.054176,0.545567 0.3164063,0.632812 0.2621315,0.08754 0.5455669,-0.05418 0.6328125,-0.316406 l 1,-3 C 6.0626443,9.3959385 5.9209266,9.1125031 5.6586964,9.0252575 5.6170315,9.0111609 5.5736887,9.0026237 5.5297902,8.9998669 Z m 2,0 C 7.3038165,8.9865982 7.0971173,9.1268011 7.0258839,9.3416638 l -1,3.0000002 c -0.087542,0.262131 0.054176,0.545567 0.3164063,0.632812 0.2621315,0.08754 0.5455669,-0.05418 0.6328125,-0.316406 l 1,-3 C 8.0626443,9.3959385 7.9209266,9.1125031 7.6586964,9.0252575 7.6170315,9.0111609 7.5736887,9.0026237 7.5297902,8.9998669 Z m 2.0000001,0 C 9.3038163,8.9865979 9.0971173,9.1268012 9.0258843,9.3416638 L 8.0258839,12.341664 c -0.087542,0.262131 0.054176,0.545567 0.3164063,0.632812 0.2621315,0.08754 0.5455669,-0.05418 0.6328125,-0.316406 l 0.9999996,-3 C 10.062644,9.3959386 9.9209263,9.1125032 9.6586963,9.0252575 9.6170313,9.0111609 9.5736883,9.0026237 9.5297903,8.9998669 Z"
     style="opacity:0.5;fill:#000000;stroke-linecap:round;-inkscape-stroke:none"
     id="path2" />
  <path
     d="m 14,9.5 c -0.552285,0 -1,0.4477153 -1,1 0,0.552285 0.447715,1 1,1 0.552285,0 1,-0.447715 1,-1 0,-0.5522847 -0.447715,-1 -1,-1 z m 2.5,0 c -0.552285,0 -1,0.4477153 -1,1 0,0.552285 0.447715,1 1,1 0.552285,0 1,-0.447715 1,-1 0,-0.5522847 -0.447715,-1 -1,-1 z m 2.5,0 c -0.552285,0 -1,0.4477153 -1,1 0,0.552285 0.447715,1 1,1 0.552285,0 1,-0.447715 1,-1 0,-0.5522847 -0.447715,-1 -1,-1 z"
     style="opacity:0.2"
     id="path5" />
  <rect
     style="opacity:0.2;fill:#000000;fill-opacity:1"
     id="rect5"
     width="20"
     height="6"
     x="1"
     y="2.5"
     ry="1" />
  <rect
     style="fill:#8e8e8e;fill-opacity:1"
     id="rect6"
     width="20"
     height="6"
     x="1"
     y="2"
     ry="1" />
  <path
     d="M 3.5297902,3 C 3.3038165,2.9867313 3.0971173,3.1269342 3.0258839,3.3417969 l -1,3 C 1.9383423,6.6039284 2.08006,6.8873638 2.3422902,6.9746094 2.6044217,7.062151 2.8878571,6.9204333 2.9751027,6.6582031 l 1,-3 C 4.0626443,3.3960716 3.9209266,3.1126362 3.6586964,3.0253906 3.6170315,3.011294 3.5736887,3.0027568 3.5297902,3 Z m 2,0 C 5.3038165,2.9867313 5.0971173,3.1269342 5.0258839,3.3417969 l -1,3 C 3.9383423,6.6039284 4.08006,6.8873638 4.3422902,6.9746094 4.6044217,7.062151 4.8878571,6.9204333 4.9751027,6.6582031 l 1,-3 C 6.0626443,3.3960716 5.9209266,3.1126362 5.6586964,3.0253906 5.6170315,3.011294 5.5736887,3.0027568 5.5297902,3 Z m 2,0 C 7.3038165,2.9867313 7.0971173,3.1269342 7.0258839,3.3417969 l -1,3 C 5.9383423,6.6039284 6.08006,6.8873638 6.3422902,6.9746094 6.6044217,7.062151 6.8878571,6.9204333 6.9751027,6.6582031 l 1,-3 C 8.0626443,3.3960716 7.9209266,3.1126362 7.6586964,3.0253906 7.6170315,3.011294 7.5736887,3.0027568 7.5297902,3 Z M 9.5297903,3 C 9.3038163,2.986731 9.0971173,3.1269343 9.0258843,3.3417969 l -1.0000004,3 C 7.9383423,6.6039284 8.08006,6.8873638 8.3422902,6.9746094 8.6044217,7.062151 8.8878571,6.9204333 8.9751027,6.6582031 l 0.9999996,-3 C 10.062644,3.3960717 9.9209263,3.1126363 9.6586963,3.0253906 9.6170313,3.011294 9.5736883,3.0027568 9.5297903,3 Z"
     style="opacity:0.5;fill:#000000;stroke-linecap:round;-inkscape-stroke:none"
     id="path3" />
  <path
     d="m 14,3.5 c -0.552285,0 -1,0.4477153 -1,1 0,0.5522847 0.447715,1 1,1 0.552285,0 1,-0.4477153 1,-1 0,-0.5522847 -0.447715,-1 -1,-1 z m 2.5,0 c -0.552285,0 -1,0.4477153 -1,1 0,0.5522847 0.447715,1 1,1 0.552285,0 1,-0.4477153 1,-1 0,-0.5522847 -0.447715,-1 -1,-1 z m 2.5,0 c -0.552285,0 -1,0.4477153 -1,1 0,0.5522847 0.447715,1 1,1 0.552285,0 1,-0.4477153 1,-1 0,-0.5522847 -0.447715,-1 -1,-1 z"
     style="opacity:0.2"
     id="path6" />
  <circle
     style="fill:#76ff03;fill-opacity:1"
     id="path7"
     cx="14"
     cy="16"
     r="1" />
  <circle
     style="fill:#ffff00;fill-opacity:1"
     id="path8"
     cx="16.5"
     cy="16"
     r="1" />
  <circle
     style="fill:#ffcd40;fill-opacity:1"
     id="path9"
     cx="19"
     cy="16"
     r="1" />
  <circle
     style="fill:#76ff03;fill-opacity:1"
     id="path10"
     cx="14"
     cy="10"
     r="1" />
  <circle
     style="fill:#ffff00;fill-opacity:1"
     id="path11"
     cx="16.5"
     cy="10"
     r="1" />
  <circle
     style="fill:#ffcd40;fill-opacity:1"
     id="path12"
     cx="19"
     cy="10"
     r="1" />
  <circle
     style="fill:#76ff03;fill-opacity:1"
     id="path13"
     cx="14"
     cy="4"
     r="1" />
  <circle
     style="fill:#ffff00;fill-opacity:1"
     id="path14"
     cx="16.5"
     cy="4"
     r="1" />
  <circle
     style="fill:#ffcd40;fill-opacity:1"
     id="path15"
     cx="19"
     cy="4"
     r="1" />
  <path
     d="M 2,2 C 1.446001,2 1,2.4460006 1,3 v 0.5 c 0,-0.5539994 0.446001,-1 1,-1 h 18 c 0.553999,0 1,0.4460006 1,1 V 3 C 21,2.4460006 20.553999,2 20,2 Z"
     style="opacity:0.2;fill:#ffffff;fill-opacity:1"
     id="path16" />
</svg>
