<?xml version="1.0" encoding="UTF-8" standalone="no"?>
<!-- Created with Inkscape (http://www.inkscape.org/) -->

<svg
   width="22"
   height="22"
   viewBox="0 0 22 22"
   version="1.1"
   id="svg457"
   inkscape:version="1.2.2 (1:1.2.2+202305151914+b0a8486541)"
   sodipodi:docname="video-display.svg"
   xmlns:inkscape="http://www.inkscape.org/namespaces/inkscape"
   xmlns:sodipodi="http://sodipodi.sourceforge.net/DTD/sodipodi-0.dtd"
   xmlns="http://www.w3.org/2000/svg"
   xmlns:svg="http://www.w3.org/2000/svg">
  <sodipodi:namedview
     id="namedview459"
     pagecolor="#ffffff"
     bordercolor="#000000"
     borderopacity="0.25"
     inkscape:showpageshadow="2"
     inkscape:pageopacity="0.0"
     inkscape:pagecheckerboard="0"
     inkscape:deskcolor="#d1d1d1"
     inkscape:document-units="px"
     showgrid="false"
     inkscape:zoom="36.636364"
     inkscape:cx="10.986352"
     inkscape:cy="11"
     inkscape:window-width="1920"
     inkscape:window-height="1008"
     inkscape:window-x="0"
     inkscape:window-y="0"
     inkscape:window-maximized="1"
     inkscape:current-layer="svg457" />
  <defs
     id="defs454" />
  <rect
     style="opacity:0.2;fill:#000000;fill-opacity:1;stroke-width:2;stroke-linecap:square"
     id="rect1351"
     width="12"
     height="16"
     x="5.0000072"
     y="4.4999971"
     ry="1" />
  <rect
     style="fill:#8e8e8e;fill-opacity:1;stroke-width:2;stroke-linecap:square"
     id="rect1380"
     width="12"
     height="16"
     x="5.0000072"
     y="3.9999971"
     ry="1" />
  <rect
     style="opacity:0.2;fill:#000000;fill-opacity:1;stroke-width:2;stroke-linecap:square"
     id="rect2124"
     width="20"
     height="16"
     x="1.0000072"
     y="2.4999971"
     ry="1" />
  <path
     d="m 1,16 v 1 c 0,0.554 0.446,1 1,1 h 18 c 0.554,0 1,-0.446 1,-1 v -1 z"
     style="fill:#595959"
     id="path2190" />
  <rect
     style="opacity:0.1;fill:#ffffff;fill-opacity:1;stroke-width:2;stroke-linecap:square"
     id="rect2210"
     width="20"
     height="0.5"
     x="1.0000072"
     y="15.999996" />
  <path
     d="M 2,2 C 1.446,2 1,2.446 1,3 V 16 H 21 V 3 C 21,2.446 20.554,2 20,2 Z"
     style="fill:#333333"
     id="path2162" />
  <path
     d="M 2,2 C 1.446,2 1,2.446 1,3 v 0.5 c 0,-0.554 0.446,-1 1,-1 h 18 c 0.554,0 1,0.446 1,1 V 3 C 21,2.446 20.554,2 20,2 Z"
     style="opacity:0.1;fill:#ffffff"
     id="path2134" />
</svg>
