<?xml version="1.0" encoding="UTF-8" standalone="no"?>
<svg
   width="16"
   height="16"
   version="1.1"
   id="svg2"
   sodipodi:docname="nautilus-file-chooser-options-symbolic.svg"
   inkscape:version="1.4.3 (0d15f75042, 2025-12-25)"
   xmlns:inkscape="http://www.inkscape.org/namespaces/inkscape"
   xmlns:sodipodi="http://sodipodi.sourceforge.net/DTD/sodipodi-0.dtd"
   xmlns="http://www.w3.org/2000/svg"
   xmlns:svg="http://www.w3.org/2000/svg">
  <sodipodi:namedview
     id="namedview2"
     pagecolor="#ffffff"
     bordercolor="#000000"
     borderopacity="0.25"
     inkscape:showpageshadow="2"
     inkscape:pageopacity="0.0"
     inkscape:pagecheckerboard="0"
     inkscape:deskcolor="#d1d1d1"
     inkscape:zoom="51.9375"
     inkscape:cx="8"
     inkscape:cy="8"
     inkscape:window-width="1920"
     inkscape:window-height="1012"
     inkscape:window-x="0"
     inkscape:window-y="0"
     inkscape:window-maximized="1"
     inkscape:current-layer="svg2" />
  <defs
     id="defs1">
    <style
       id="current-color-scheme"
       type="text/css">
   .ColorScheme-Text { color:#4d4d4d; } .ColorScheme-Highlight { color:#4285f4; } .ColorScheme-NeutralText { color:#ff9800; } .ColorScheme-PositiveText { color:#4caf50; } .ColorScheme-NegativeText { color:#f44336; }
  </style>
  </defs>
  <path
     style="fill:currentColor"
     class="ColorScheme-Text"
     d="M 11.5 1 A 3.5 3.5 0 0 0 8 4.5 A 3.5 3.5 0 0 0 11.5 8 A 3.5 3.5 0 0 0 15 4.5 A 3.5 3.5 0 0 0 11.5 1 z M 2.5 3 C 1.669 3 1 3.669 1 4.5 C 1 5.331 1.669 6 2.5 6 L 7.3418 6 A 3.5 3.5 0 0 1 7 4.5 A 3.5 3.5 0 0 1 7.3418 3 L 2.5 3 z M 4.5 8 A 3.5 3.5 0 0 0 1 11.5 A 3.5 3.5 0 0 0 4.5 15 A 3.5 3.5 0 0 0 8 11.5 A 3.5 3.5 0 0 0 4.5 8 z"
     id="path1" />
  <path
     style="fill:currentColor;opacity:0.35"
     class="ColorScheme-Text"
     d="M 8.6621 10 A 3.5 3.5 0 0 1 9 11.5 A 3.5 3.5 0 0 1 8.6582 13 L 13.5 13 C 14.331 13 15 12.331 15 11.5 C 15 10.669 14.331 10 13.5 10 L 8.6621 10 z"
     id="path2" />
</svg>
