<?xml version="1.0" encoding="UTF-8" standalone="no"?>
<!-- Created with Inkscape (http://www.inkscape.org/) -->

<svg
   width="24"
   height="24"
   viewBox="0 0 24 24"
   version="1.1"
   id="svg5"
   inkscape:version="1.2.2 (1:1.2.2+202305151914+b0a8486541)"
   sodipodi:docname="bluetooth-disabled.svg"
   xmlns:inkscape="http://www.inkscape.org/namespaces/inkscape"
   xmlns:sodipodi="http://sodipodi.sourceforge.net/DTD/sodipodi-0.dtd"
   xmlns="http://www.w3.org/2000/svg"
   xmlns:svg="http://www.w3.org/2000/svg">
  <sodipodi:namedview
     id="namedview7"
     pagecolor="#ffffff"
     bordercolor="#000000"
     borderopacity="0.25"
     inkscape:showpageshadow="2"
     inkscape:pageopacity="0.0"
     inkscape:pagecheckerboard="0"
     inkscape:deskcolor="#d1d1d1"
     inkscape:document-units="px"
     showgrid="false"
     showguides="true"
     inkscape:zoom="34.583333"
     inkscape:cx="12"
     inkscape:cy="12"
     inkscape:window-width="1920"
     inkscape:window-height="1008"
     inkscape:window-x="0"
     inkscape:window-y="0"
     inkscape:window-maximized="1"
     inkscape:current-layer="svg5" />
  <defs
     id="defs2">
    <style
       id="current-color-scheme"
       type="text/css">
   .ColorScheme-Text { color:#4d4d4d; } .ColorScheme-Highlight { color:#4285f4; } .ColorScheme-NeutralText { color:#ff9800; } .ColorScheme-PositiveText { color:#4caf50; } .ColorScheme-NegativeText { color:#f44336; }
     </style>
  </defs>
  <path
     d="m 10.925782,4.0029418 c -0.124722,0.00915 -0.246621,0.04052 -0.359375,0.094609 C 10.220412,4.2640624 10.0003,4.6139646 9.9999997,4.9979414 V 7.0272383 L 12,8.585832 V 7.0799731 l 2.384766,1.9082031 -0.935547,0.7285157 1.626953,1.2675781 1.537109,-1.1972656 c 0.510532,-0.3966166 0.516275,-1.1661205 0.01172,-1.5703125 l -5,-4.0000001 C 11.427419,4.0593528 11.177622,3.9836934 10.925782,4.0029418 Z M 6.2324219,6.1209888 5,7.6971607 9.9999997,11.597551 v 0.800781 L 6.3867188,15.20888 c -0.435458,0.338893 -0.5141219,0.966456 -0.1757813,1.402343 0.338893,0.435458 0.9664565,0.514122 1.4023437,0.175781 l 2.3867185,-1.855468 v 4.066406 c -3.5e-4,0.838869 0.9700493,1.305407 1.6250003,0.78125 l 4.380859,-3.503906 1.761719,1.373047 L 19,16.072161 Z M 12.142578,13.263568 14.382812,15.009661 12,16.915911 v -3.541015 z"
     style="opacity:0.35;fill:currentColor;fill-opacity:1"
     id="path345"
     class="ColorScheme-Text" />
</svg>
