<?xml version="1.0" encoding="UTF-8" standalone="no"?>
<!-- Created with Inkscape (http://www.inkscape.org/) -->

<svg
   width="24"
   height="24"
   viewBox="0 0 24 24"
   version="1.1"
   id="svg5"
   inkscape:version="1.4.3 (0d15f75042, 2025-12-25)"
   sodipodi:docname="input-touchpad-off.svg"
   xmlns:inkscape="http://www.inkscape.org/namespaces/inkscape"
   xmlns:sodipodi="http://sodipodi.sourceforge.net/DTD/sodipodi-0.dtd"
   xmlns="http://www.w3.org/2000/svg"
   xmlns:svg="http://www.w3.org/2000/svg">
  <sodipodi:namedview
     id="namedview7"
     pagecolor="#ffffff"
     bordercolor="#000000"
     borderopacity="0.25"
     inkscape:showpageshadow="2"
     inkscape:pageopacity="0.0"
     inkscape:pagecheckerboard="0"
     inkscape:deskcolor="#d1d1d1"
     inkscape:document-units="px"
     showgrid="false"
     showguides="true"
     inkscape:zoom="34.625"
     inkscape:cx="12"
     inkscape:cy="12"
     inkscape:window-width="1920"
     inkscape:window-height="1012"
     inkscape:window-x="0"
     inkscape:window-y="0"
     inkscape:window-maximized="1"
     inkscape:current-layer="svg5" />
  <defs
     id="defs2">
    <style
       id="current-color-scheme"
       type="text/css">
        .ColorScheme-Text { color:#4d4d4d; } .ColorScheme-Highlight { color:#4285f4; } .ColorScheme-NeutralText { color:#ff9800; } .ColorScheme-PositiveText { color:#4caf50; } .ColorScheme-NegativeText { color:#f44336; }
     </style>
  </defs>
  <path
     id="path339"
     style="opacity:0.35;fill:currentColor;fill-opacity:1;stroke-width:4;stroke-linecap:square"
     class="ColorScheme-Text"
     d="M 6,5 C 4.8920077,5 4,5.8920077 4,7 v 10 c 0,1.107993 0.8920077,2 2,2 h 8 V 17 H 6 V 7 h 12 v 7 h 2 V 7 C 20,5.8920077 19.107993,5 18,5 Z m 1,9 v 2 h 4 v -2 z m 6,0 v 2 h 1 v -2 z" />
  <path
     d="m 15,15 v 1 c 0,0.28 0.1,0.54 0.28,0.72 l 0.78,0.78 -0.78,0.78 C 15.1,18.47 15,18.73 15,19 v 1 h 1 c 0.28,0 0.54,-0.1 0.72,-0.28 l 0.78,-0.78 0.78,0.78 C 18.46,19.9 18.73,20 19,20 h 1 v -1 c 0,-0.27 -0.1,-0.53 -0.28,-0.72 L 18.94,17.5 19.72,16.72 C 19.9,16.54 20,16.28 20,16 v -1 h -1 c -0.27,0 -0.54,0.1 -0.72,0.28 L 17.5,16.07 16.72,15.28 C 16.54,15.1 16.28,15 16,15 Z"
     style="fill:currentColor;fill-opacity:1"
     class="ColorScheme-Text"
     id="path1540" />
</svg>
