<?xml version="1.0" encoding="UTF-8" standalone="no"?>
<!-- Created with Inkscape (http://www.inkscape.org/) -->

<svg
   width="24"
   height="24"
   viewBox="0 0 24 24"
   version="1.1"
   id="svg5"
   inkscape:version="1.3.2 (091e20ef0f, 2023-11-25, custom)"
   sodipodi:docname="notification-active.svg"
   xmlns:inkscape="http://www.inkscape.org/namespaces/inkscape"
   xmlns:sodipodi="http://sodipodi.sourceforge.net/DTD/sodipodi-0.dtd"
   xmlns="http://www.w3.org/2000/svg"
   xmlns:svg="http://www.w3.org/2000/svg">
  <sodipodi:namedview
     id="namedview7"
     pagecolor="#ffffff"
     bordercolor="#000000"
     borderopacity="0.25"
     inkscape:showpageshadow="2"
     inkscape:pageopacity="0.0"
     inkscape:pagecheckerboard="0"
     inkscape:deskcolor="#d1d1d1"
     inkscape:document-units="px"
     showgrid="false"
     showguides="true"
     inkscape:zoom="33.5"
     inkscape:cx="11.985075"
     inkscape:cy="12"
     inkscape:window-width="1920"
     inkscape:window-height="1008"
     inkscape:window-x="0"
     inkscape:window-y="0"
     inkscape:window-maximized="1"
     inkscape:current-layer="svg5" />
  <defs
     id="defs2">
    <style
       id="current-color-scheme"
       type="text/css">
        .ColorScheme-Text { color:#4d4d4d; } .ColorScheme-Highlight { color:#4285f4; } .ColorScheme-NeutralText { color:#ff9800; } .ColorScheme-PositiveText { color:#4caf50; } .ColorScheme-NegativeText { color:#f44336; }
     </style>
  </defs>
  <path
     id="path345"
     style="fill:currentColor;fill-opacity:1"
     class="ColorScheme-Text"
     d="m 12,4 c -0.549999,0 -1,0.4500005 -1,1 0,0.03 -2.39e-4,0.069609 0.0098,0.099609 C 8.7197679,5.5596089 7,7.5700024 7,10 v 4.5 l -2,2 V 17 h 14 v -0.5 l -2,-2 V 10 C 17,9.94083 16.9942,9.88288 16.9922,9.824219 A 3,3 0 0 1 16,10 3,3 0 0 1 14.990234,9.818359 C 14.993852,9.878959 15,9.93846 15,10 v 5 H 9 v -5 c 0,-1.6619983 1.338002,-3 3,-3 0.356548,0 0.696958,0.064588 1.013672,0.1777344 A 3,3 0 0 1 13,7 3,3 0 0 1 13.568359,5.2558594 C 13.379743,5.1936903 13.188107,5.1393567 12.990234,5.0996094 13.000234,5.0696094 13,5.03 13,5 13,4.4500005 12.55,4 12,4 Z m -1.730469,14 c 0.36,0.619999 1.02047,1 1.730469,1 0.709999,0 1.370469,-0.380001 1.730469,-1 z" />
  <circle
     style="opacity:1;fill:#4285f4;fill-opacity:1;stroke-linecap:square"
     id="path283"
     cx="16"
     cy="7"
     r="2"
     class="ColorScheme-Highlight" />
</svg>
