<?xml version="1.0" encoding="UTF-8" standalone="no"?>
<svg
   width="24"
   height="24"
   version="1.1"
   id="svg1"
   sodipodi:docname="vlc-panel.svg"
   inkscape:version="1.4.3 (0d15f75042, 2025-12-25)"
   xmlns:inkscape="http://www.inkscape.org/namespaces/inkscape"
   xmlns:sodipodi="http://sodipodi.sourceforge.net/DTD/sodipodi-0.dtd"
   xmlns="http://www.w3.org/2000/svg"
   xmlns:svg="http://www.w3.org/2000/svg">
  <sodipodi:namedview
     id="namedview1"
     pagecolor="#ffffff"
     bordercolor="#000000"
     borderopacity="0.25"
     inkscape:showpageshadow="2"
     inkscape:pageopacity="0.0"
     inkscape:pagecheckerboard="0"
     inkscape:deskcolor="#d1d1d1"
     inkscape:zoom="33.625"
     inkscape:cx="11.98513"
     inkscape:cy="12"
     inkscape:window-width="1920"
     inkscape:window-height="1010"
     inkscape:window-x="0"
     inkscape:window-y="0"
     inkscape:window-maximized="1"
     inkscape:current-layer="svg1" />
  <defs
     id="defs1">
    <style
       id="current-color-scheme"
       type="text/css">
   .ColorScheme-Text { color:#4d4d4d; } .ColorScheme-Highlight { color:#4285f4; } .ColorScheme-NeutralText { color:#ff9800; } .ColorScheme-PositiveText { color:#4caf50; } .ColorScheme-NegativeText { color:#f44336; }
  </style>
  </defs>
  <path
     style="fill:currentColor;fill-rule:evenodd"
     class="ColorScheme-Text"
     d="m 11.960445,5 h -0.02 c -0.68,0 -1.15,0.19 -1.22,0.46 -0.03,0.05 -0.08,0.1 -0.09,0.17 L 9.9804451,7.5 c 0.9699999,0.7 3.0699999,0.7 4.0299999,0 l -0.64,-1.87 c -0.01,-0.02 -0.02,-0.03 -0.02,-0.04 v 0 c 0,-0.09 -0.06,-0.17 -0.14,-0.24 -0.08,-0.08 -0.18,-0.15 -0.29,-0.19 -0.29,-0.1 -0.6,-0.16 -0.92,-0.16 z m -2.8099999,5.4 -0.65,2.6 h -1.05 c -0.29,0 -0.54,0.17 -0.65,0.43 l -1.75,4.6 c -0.19,0.46 0.15,0.97 0.65,0.97 H 18.300445 c 0.5,0 0.83,-0.51 0.64,-0.97 l -1.75,-4.6 c -0.11,-0.26 -0.36,-0.43 -0.64,-0.43 h -1.06 l -0.65,-2.6 c -1.93,0.77 -3.54,0.96 -5.6899999,0 z m 6.4399999,2.74 0.58,1.94 c 0.09,0.31 -0.04,0.63 -0.31,0.8 -1.1,0.67 -2.5,1.1 -3.89,1.12 -1.39,0.01 -2.7899999,-0.39 -3.8699999,-1.14 -0.25,-0.18 -0.36,-0.49 -0.27,-0.78 l 0.55,-1.86 c 0.4534,0.272 1.8786999,0.7652 3.6088999,0.78 1.1321,0.01 2.3951,-0.1322 3.6011,-0.86 z"
     id="path1" />
</svg>
