<?xml version="1.0" encoding="UTF-8" standalone="no"?>
<!-- Created with Inkscape (http://www.inkscape.org/) -->

<svg
   width="24"
   height="24"
   viewBox="0 0 24 24"
   version="1.1"
   id="svg5"
   inkscape:version="1.4.3 (0d15f75042, 2025-12-25)"
   sodipodi:docname="weather-clear.svg"
   xmlns:inkscape="http://www.inkscape.org/namespaces/inkscape"
   xmlns:sodipodi="http://sodipodi.sourceforge.net/DTD/sodipodi-0.dtd"
   xmlns="http://www.w3.org/2000/svg"
   xmlns:svg="http://www.w3.org/2000/svg">
  <sodipodi:namedview
     id="namedview7"
     pagecolor="#ffffff"
     bordercolor="#000000"
     borderopacity="0.25"
     inkscape:showpageshadow="2"
     inkscape:pageopacity="0.0"
     inkscape:pagecheckerboard="0"
     inkscape:deskcolor="#d1d1d1"
     inkscape:document-units="px"
     showgrid="false"
     inkscape:zoom="34.625"
     inkscape:cx="12"
     inkscape:cy="12"
     inkscape:window-width="1920"
     inkscape:window-height="1012"
     inkscape:window-x="0"
     inkscape:window-y="0"
     inkscape:window-maximized="1"
     inkscape:current-layer="svg5" />
  <defs
     id="defs2">
    <style
       id="current-color-scheme"
       type="text/css">
        .ColorScheme-Text { color:#4d4d4d; } .ColorScheme-Highlight { color:#4285f4; } .ColorScheme-NeutralText { color:#ff9800; } .ColorScheme-PositiveText { color:#4caf50; } .ColorScheme-NegativeText { color:#f44336; }
     </style>
  </defs>
  <path
     id="path1861"
     style="fill:currentColor;fill-opacity:1"
     class="ColorScheme-Text"
     d="M 11,4 V 6.0859375 C 11.330348,6.0294126 11.664852,6.000666 12,6 c 0.335258,0.00196 0.669762,0.032011 1,0.089844 V 4 Z M 7.0507812,5.6367188 5.6367188,7.0507812 7.1132812,8.5273438 C 7.5029682,7.9807421 7.9816209,7.50341 8.5292969,7.1152344 Z m 9.8984378,0 -1.476563,1.4765624 c 0.546602,0.389687 1.023934,0.8683397 1.41211,1.4160157 L 18.363281,7.0507812 Z M 12,7 c -2.7614209,0 -5,2.2385791 -5,5 0,2.761421 2.2385791,5 5,5 2.761421,0 5,-2.238579 5,-5 0,-2.7614209 -2.238579,-4.9999999 -5,-5 z m 0,2 a 3,3 0 0 1 3,3 3,3 0 0 1 -3,3 3,3 0 0 1 -3,-3 3,3 0 0 1 3,-3 z m -8,2 v 2 H 6.0859375 C 6.0294126,12.669652 6.000667,12.335148 6,12 6.00196,11.664742 6.032011,11.330238 6.089844,11 Z m 13.914062,0 c 0.05653,0.330348 0.08527,0.664852 0.08594,1 -0.002,0.335258 -0.03201,0.669762 -0.08984,1 H 20 V 11 Z M 7.1152344,15.470703 5.6367188,16.949219 7.0507812,18.363281 8.5273438,16.886719 C 7.9807421,16.497032 7.50341,16.018379 7.1152344,15.470703 Z m 9.7714846,0.002 c -0.389687,0.546602 -0.86834,1.023934 -1.416016,1.41211 l 1.478516,1.478515 1.414062,-1.414062 z M 11,17.910156 V 20 h 2 v -2.085938 c -0.330348,0.05653 -0.664852,0.08527 -1,0.08594 -0.335258,-0.002 -0.669762,-0.03201 -1,-0.08984 z" />
</svg>
