<?xml version="1.0" encoding="UTF-8" standalone="no"?>
<svg
   width="24"
   height="24"
   version="1.1"
   id="svg1"
   sodipodi:docname="weather-windy.svg"
   inkscape:version="1.4.3 (0d15f75042, 2025-12-25)"
   xmlns:inkscape="http://www.inkscape.org/namespaces/inkscape"
   xmlns:sodipodi="http://sodipodi.sourceforge.net/DTD/sodipodi-0.dtd"
   xmlns="http://www.w3.org/2000/svg"
   xmlns:svg="http://www.w3.org/2000/svg">
  <defs
     id="defs1">
    <style
       id="current-color-scheme"
       type="text/css">
        .ColorScheme-Text { color:#4d4d4d; } .ColorScheme-Highlight { color:#4285f4; } .ColorScheme-NeutralText { color:#ff9800; } .ColorScheme-PositiveText { color:#4caf50; } .ColorScheme-NegativeText { color:#f44336; }
     </style>
  </defs>
  <sodipodi:namedview
     id="namedview1"
     pagecolor="#ffffff"
     bordercolor="#000000"
     borderopacity="0.25"
     inkscape:showpageshadow="2"
     inkscape:pageopacity="0.0"
     inkscape:pagecheckerboard="0"
     inkscape:deskcolor="#d1d1d1"
     inkscape:zoom="34.625"
     inkscape:cx="12"
     inkscape:cy="12"
     inkscape:window-width="1920"
     inkscape:window-height="1012"
     inkscape:window-x="0"
     inkscape:window-y="0"
     inkscape:window-maximized="1"
     inkscape:current-layer="svg1" />
  <path
     id="path1"
     d="M 11,4 A 3,3 0 0 0 8,7 H 9.9921875 A 1.0078,1.0078 0 0 1 11,5.9921875 1.0078,1.0078 0 0 1 12.007813,7 1.0078,1.0078 0 0 1 11,8.0078125 V 8 H 4 v 2 h 7 A 3,3 0 0 0 14,7 3,3 0 0 0 11,4 Z m 6,3 a 3,3 0 0 0 -3,3 h 1.992188 A 1.0078,1.0078 0 0 1 17,8.9921875 1.0078,1.0078 0 0 1 18.007812,10 1.0078,1.0078 0 0 1 17,11.007813 V 11 H 4 v 2 H 17 A 3,3 0 0 0 20,10 3,3 0 0 0 17,7 Z M 4,14 v 2 H 12.179688 14.931641 15 V 15.9922 A 1.0078,1.0078 0 0 1 16.007812,17 1.0078,1.0078 0 0 1 15,18.007812 1.0078,1.0078 0 0 1 13.992188,17 H 12 a 3,3 0 0 0 3,3 3,3 0 0 0 3,-3 3,3 0 0 0 -3,-3 z"
     style="fill:currentColor"
     class="ColorScheme-Text" />
</svg>
