<?xml version="1.0" encoding="UTF-8" standalone="no"?>
<svg
   width="16"
   height="16"
   version="1"
   id="svg1"
   sodipodi:docname="prime-intel.svg"
   inkscape:version="1.4.3 (0d15f75042, 2025-12-25)"
   xmlns:inkscape="http://www.inkscape.org/namespaces/inkscape"
   xmlns:sodipodi="http://sodipodi.sourceforge.net/DTD/sodipodi-0.dtd"
   xmlns="http://www.w3.org/2000/svg"
   xmlns:svg="http://www.w3.org/2000/svg">
  <sodipodi:namedview
     id="namedview1"
     pagecolor="#ffffff"
     bordercolor="#000000"
     borderopacity="0.25"
     inkscape:showpageshadow="2"
     inkscape:pageopacity="0.0"
     inkscape:pagecheckerboard="0"
     inkscape:deskcolor="#d1d1d1"
     inkscape:zoom="51.9375"
     inkscape:cx="8"
     inkscape:cy="8"
     inkscape:window-width="1920"
     inkscape:window-height="1012"
     inkscape:window-x="0"
     inkscape:window-y="0"
     inkscape:window-maximized="1"
     inkscape:current-layer="svg1" />
  <defs
     id="defs1">
    <style
       id="current-color-scheme"
       type="text/css">
   .ColorScheme-Text { color:#4d4d4d; } .ColorScheme-Highlight { color:#4285f4; } .ColorScheme-NeutralText { color:#ff9800; } .ColorScheme-PositiveText { color:#4caf50; } .ColorScheme-NegativeText { color:#f44336; }
  </style>
  </defs>
  <path
     style="fill:currentColor"
     class="ColorScheme-Text"
     d="M 1.7773438,1 C 0.7924548,1 0,1.7805 0,2.75 v 10.5 C 0,14.2195 0.7924548,15 1.7773438,15 H 14.222656 C 15.207545,15 16,14.2195 16,13.25 V 2.75 C 16,1.7805 15.207545,1 14.222656,1 Z M 1,5.125 H 1.8886719 V 6 H 1 Z M 14,6 h 0.888672 v 5 C 14.124228,10.93167 14,10.661016 14,10.166016 Z M 7,6.05078 H 7.888672 V 7.125 H 8.777344 V 8 H 7.888672 v 1.25 c 0,0.22575 0.04817,0.875 0.289062,0.875 h 0.59961 V 11 H 7.888672 C 7.061116,11 7,9.975953 7,9.423828 Z M 1,7 h 0.8886719 v 4 C 1.1243163,10.934402 1,10.27597 1,9.800781 Z M 2.6660156,7 H 4.8886719 C 5.7754274,6.9907 6.222656,7.69291 6.222656,8.199219 V 11 H 5.3339844 V 8.199219 c 0,-0.211196 -0.2989032,-0.398438 -0.5957032,-0.398438 H 3.5546875 V 11 H 2.6660156 Z m 9.1972654,0 h 0.002 c 1.072,9.6e-4 1.689454,0.843997 1.689454,1.951172 v 0.449219 h -2.539063 c 0.04089,0.448789 0.347175,0.77539 0.876953,0.77539 0.447111,0 0.669958,-0.121145 0.927734,-0.36914 l 0.619094,0.578125 c -0.399111,0.381592 -0.81602,0.613281 -1.554687,0.613281 C 10.921211,10.998047 10,10.486107 10,8.994141 10,7.71993 10.803726,7.0008 11.863281,7 Z m -0.08789,0.800781 a 0.88888889,0.79998179 0 0 0 -0.888672,0.798828 h 1.779297 A 0.88888889,0.79998179 0 0 0 11.775391,7.800781 Z"
     id="path1" />
</svg>
