<?xml version="1.0" encoding="UTF-8" standalone="no"?>
<svg
   width="16"
   height="16"
   version="1.1"
   id="svg2"
   sodipodi:docname="security-high.svg"
   inkscape:version="1.4.3 (0d15f75042, 2025-12-25)"
   xmlns:inkscape="http://www.inkscape.org/namespaces/inkscape"
   xmlns:sodipodi="http://sodipodi.sourceforge.net/DTD/sodipodi-0.dtd"
   xmlns="http://www.w3.org/2000/svg"
   xmlns:svg="http://www.w3.org/2000/svg">
  <defs
     id="defs2">
    <style
       id="current-color-scheme"
       type="text/css">
        .ColorScheme-Text { color:#4d4d4d; } .ColorScheme-Highlight { color:#4285f4; } .ColorScheme-NeutralText { color:#ff9800; } .ColorScheme-PositiveText { color:#4caf50; } .ColorScheme-NegativeText { color:#f44336; }
     </style>
  </defs>
  <sodipodi:namedview
     id="namedview2"
     pagecolor="#ffffff"
     bordercolor="#000000"
     borderopacity="0.25"
     inkscape:showpageshadow="2"
     inkscape:pageopacity="0.0"
     inkscape:pagecheckerboard="0"
     inkscape:deskcolor="#d1d1d1"
     inkscape:zoom="51.9375"
     inkscape:cx="8"
     inkscape:cy="8"
     inkscape:window-width="1920"
     inkscape:window-height="1012"
     inkscape:window-x="0"
     inkscape:window-y="0"
     inkscape:window-maximized="1"
     inkscape:current-layer="svg2" />
  <path
     id="path1"
     style="fill:currentColor"
     class="ColorScheme-Text"
     d="M 8,-0.047 7.703125,0.0447969 1,2.1307344 V 9.400266 c 0,2.477 1.9474781,4.038368 3.3925781,4.980468 1.5153,0.9879 3.2890629,1.566407 3.2890629,1.566407 L 8,16.054563 8.318359,15.947141 c 0,0 1.773763,-0.578587 3.289063,-1.566407 h 0.002 l 0.002,-0.002 C 13.057728,13.425861 15,11.857366 15,9.400266 V 2.1307344 Z m 0,2.09375 5,1.5566406 V 9.400266 c 0,1.3493 -1.214528,2.465987 -2.486328,3.304687 C 9.444472,13.401973 8.302,13.792066 8,13.900266 7.698,13.792076 6.555528,13.401993 5.4863281,12.704953 4.2113281,11.873723 3,10.787266 3,9.400266 V 3.6033906 Z" />
  <path
     id="path2"
     d="M 8,3.093625 4,4.3397188 V 9.400266 c 0,0.40239 0.1668269,0.786336 0.5292969,1.216797 0.36247,0.43046 0.9120262,0.864119 1.5039061,1.25 0.80146,0.522489 1.520297,0.76874 1.966797,0.93164 0.44654,-0.16292 1.165297,-0.409161 1.966797,-0.93164 0.58589,-0.386821 1.1351,-0.829725 1.5,-1.265626 C 11.832697,10.164287 12,9.774916 12,9.400266 V 4.3397188 Z"
     style="opacity:0.35;fill:currentColor"
     class="ColorScheme-Text" />
</svg>
