<?xml version="1.0" encoding="UTF-8" standalone="no"?>
<svg
   width="16"
   height="16"
   version="1.1"
   id="svg2"
   sodipodi:docname="weather-none-available.svg"
   inkscape:version="1.4.3 (0d15f75042, 2025-12-25)"
   xmlns:inkscape="http://www.inkscape.org/namespaces/inkscape"
   xmlns:sodipodi="http://sodipodi.sourceforge.net/DTD/sodipodi-0.dtd"
   xmlns="http://www.w3.org/2000/svg"
   xmlns:svg="http://www.w3.org/2000/svg">
  <defs
     id="defs2">
    <style
       id="current-color-scheme"
       type="text/css">
        .ColorScheme-Text { color:#4d4d4d; } .ColorScheme-Highlight { color:#4285f4; } .ColorScheme-NeutralText { color:#ff9800; } .ColorScheme-PositiveText { color:#4caf50; } .ColorScheme-NegativeText { color:#f44336; }
     </style>
  </defs>
  <sodipodi:namedview
     id="namedview2"
     pagecolor="#ffffff"
     bordercolor="#000000"
     borderopacity="0.25"
     inkscape:showpageshadow="2"
     inkscape:pageopacity="0.0"
     inkscape:pagecheckerboard="0"
     inkscape:deskcolor="#d1d1d1"
     inkscape:zoom="51.9375"
     inkscape:cx="8"
     inkscape:cy="8"
     inkscape:window-width="1920"
     inkscape:window-height="1012"
     inkscape:window-x="0"
     inkscape:window-y="0"
     inkscape:window-maximized="1"
     inkscape:current-layer="svg2" />
  <path
     id="path1"
     style="fill:currentColor"
     d="M 8.599687,0 C 6.503587,0.0034 4.7950595,1.2776 3.8008593,3 L 3.7344531,3.078125 3.5801562,3.1230469 C 1.5654562,3.5378369 0.045,5.3182625 0.045,7.476563 0.045,9.929063 1.9756218,12 4.4024219,12 H 6.000078 V 10 H 4.4024219 c -1.2868,0 -2.3554688,-1.105537 -2.3554688,-2.523437 0,-1.354201 0.9917356,-2.4161066 2.1972656,-2.5039068 L 4.9532031,4.921875 5.2559375,4.2695312 v -0.00195 C 5.8763375,2.909675 7.130947,2.0014 8.605547,2 h 0.0039 c 1.998,0.0014 3.632516,1.6653 3.728516,3.8125 v 0.015625 l 0.05664,0.751953 0.677735,0.289063 c 0.5896,0.25166 0.974609,0.83441 0.974609,1.49414 C 14.046949,9.289781 13.350292,10 12.527422,10 h -1.527344 v 2 h 1.527344 c 1.9632,0 3.517578,-1.672319 3.517578,-3.636719 0,-1.2388 -0.714755,-2.292925 -1.734375,-2.9531248 L 14.250078,5.359375 14.207109,5.1777344 C 13.811709,2.3059344 11.5234,0.002 8.6075,0 Z"
     class="ColorScheme-Text" />
  <path
     style="fill:currentColor"
     class="ColorScheme-Highlight"
     d="m 6.000078,5 v 2 h 3 v 2 l -2,2 v 2 h 2 v -2 l 2,-2 V 7 5 Z m 1,9 v 2 h 2 v -2 z"
     id="path2" />
</svg>
