<?xml version="1.0" encoding="UTF-8" standalone="no"?>
<!-- Created with Inkscape (http://www.inkscape.org/) -->

<svg
   width="128"
   height="128"
   viewBox="0 0 128 128"
   version="1.1"
   id="svg5"
   inkscape:version="1.3 (0e150ed6c4, 2023-07-21)"
   sodipodi:docname="1password.svg"
   xmlns:inkscape="http://www.inkscape.org/namespaces/inkscape"
   xmlns:sodipodi="http://sodipodi.sourceforge.net/DTD/sodipodi-0.dtd"
   xmlns="http://www.w3.org/2000/svg"
   xmlns:svg="http://www.w3.org/2000/svg">
  <sodipodi:namedview
     id="namedview7"
     pagecolor="#ffffff"
     bordercolor="#000000"
     borderopacity="0.25"
     inkscape:showpageshadow="2"
     inkscape:pageopacity="0.0"
     inkscape:pagecheckerboard="0"
     inkscape:deskcolor="#d1d1d1"
     inkscape:document-units="px"
     showgrid="false"
     inkscape:zoom="6.2734375"
     inkscape:cx="64"
     inkscape:cy="64"
     inkscape:window-width="1850"
     inkscape:window-height="1011"
     inkscape:window-x="70"
     inkscape:window-y="32"
     inkscape:window-maximized="1"
     inkscape:current-layer="svg5" />
  <defs
     id="defs2" />
  <rect
     style="opacity:0.2;fill:#000000;stroke-width:8;stroke-linecap:square"
     id="rect234"
     width="112"
     height="112"
     x="8"
     y="9"
     ry="24" />
  <rect
     style="fill:#4d4d4d;fill-opacity:1;stroke-width:8;stroke-linecap:square"
     id="rect396"
     width="112"
     height="112"
     x="8"
     y="8"
     ry="24" />
  <circle
     style="opacity:0.2;fill:#000000;stroke-width:4"
     cx="64"
     cy="65"
     r="40"
     id="circle1" />
  <circle
     style="fill:#e4e4e4;stroke-width:4"
     cx="64"
     cy="64"
     r="40"
     id="circle2" />
  <circle
     style="opacity:0.2;fill:#000000;stroke-width:4"
     cx="64"
     cy="64"
     r="12"
     id="circle3" />
  <path
     style="opacity:0.1;fill:#000000;stroke-width:2"
     d="m 60,47 c -1.108,0 -2,0.892 -2,2 v 8.105468 c 0,0 2.167968,1.905364 2.167968,3.191408 C 60.167968,61.582918 58,63.488282 58,63.488282 V 81 c 0,1.108 0.892,2 2,2 h 8 c 1.108,0 2,-0.892 2,-2 v -8.074218 l -0.0196,-0.02734 c 0,0 -2.261352,-1.986826 -2.261718,-3.328126 -3.66e-4,-1.342378 2.261718,-3.33203 2.261718,-3.33203 L 70,66.210938 V 49 c 0,-1.108 -0.892,-2 -2,-2 z"
     id="path4" />
  <path
     style="fill:#394045;stroke-width:2"
     d="m 60,46 c -1.108,0 -2,0.892 -2,2 v 8.105468 c 0,0 2.167968,1.905364 2.167968,3.191408 C 60.167968,60.582918 58,62.488282 58,62.488282 V 80 c 0,1.108 0.892,2 2,2 h 8 c 1.108,0 2,-0.892 2,-2 v -8.074218 l -0.0196,-0.02734 c 0,0 -2.261352,-1.986826 -2.261718,-3.328126 -3.66e-4,-1.342378 2.261718,-3.33203 2.261718,-3.33203 L 70,65.210938 V 48 c 0,-1.108 -0.892,-2 -2,-2 z"
     id="path5" />
  <path
     id="path3"
     style="opacity:0.2;fill:#ffffff;stroke-width:4"
     d="M 64,24 A 40,40 0 0 0 24,64 40,40 0 0 0 24.035156,64.503906 40,40 0 0 1 64,25 40,40 0 0 1 103.98047,64.238282 40,40 0 0 0 104,64 40,40 0 0 0 64,24 Z" />
  <path
     style="opacity:0.1;fill:#000000;stroke-width:4"
     d="M 64,33 C 46.374268,33 32,47.374268 32,65 32,82.625732 46.374268,97 64,97 81.625732,97 96,82.625732 96,65 96,47.374268 81.625732,33 64,33 Z m 0,8 C 77.302212,41 88,51.697788 88,65 88,78.302212 77.302212,89 64,89 50.697788,89 40,78.302212 40,65 40,51.697788 50.697788,41 64,41 Z"
     id="path6" />
  <path
     style="fill:#0076e2;stroke-width:4"
     d="M 64,32 C 46.374268,32 32,46.374268 32,64 32,81.625732 46.374268,96 64,96 81.625732,96 96,81.625732 96,64 96,46.374268 81.625732,32 64,32 Z m 0,8 C 77.302212,40 88,50.697788 88,64 88,77.302212 77.302212,88 64,88 50.697788,88 40,77.302212 40,64 40,50.697788 50.697788,40 64,40 Z"
     id="path7" />
  <path
     id="path1040"
     style="opacity:0.1;fill:#ffffff;stroke-width:8;stroke-linecap:square"
     d="M 32,8 C 18.70404,8 8,18.70404 8,32 v 1 C 8,19.704013 18.704013,9 32,9 h 64 c 13.29599,0 24,10.704013 24,24 V 32 C 120,18.70404 109.29596,8 96,8 Z" />
</svg>
