<?xml version="1.0" encoding="UTF-8" standalone="no"?>
<!-- Created with Inkscape (http://www.inkscape.org/) -->

<svg
   width="128"
   height="128"
   viewBox="0 0 128 128"
   version="1.1"
   id="svg5"
   inkscape:version="1.3 (0e150ed6c4, 2023-07-21)"
   sodipodi:docname="accessories-text-editor.svg"
   xmlns:inkscape="http://www.inkscape.org/namespaces/inkscape"
   xmlns:sodipodi="http://sodipodi.sourceforge.net/DTD/sodipodi-0.dtd"
   xmlns="http://www.w3.org/2000/svg"
   xmlns:svg="http://www.w3.org/2000/svg">
  <sodipodi:namedview
     id="namedview7"
     pagecolor="#ffffff"
     bordercolor="#000000"
     borderopacity="0.25"
     inkscape:showpageshadow="2"
     inkscape:pageopacity="0.0"
     inkscape:pagecheckerboard="0"
     inkscape:deskcolor="#d1d1d1"
     inkscape:document-units="px"
     showgrid="false"
     inkscape:zoom="6.2734375"
     inkscape:cx="64"
     inkscape:cy="64"
     inkscape:window-width="1850"
     inkscape:window-height="1011"
     inkscape:window-x="70"
     inkscape:window-y="32"
     inkscape:window-maximized="1"
     inkscape:current-layer="svg5"
     showguides="false" />
  <defs
     id="defs2" />
  <rect
     style="opacity:0.2;fill:#000000;stroke-width:8;stroke-linecap:square"
     id="rect234"
     width="112"
     height="112"
     x="8"
     y="9"
     ry="24" />
  <rect
     style="fill:#ffbc2c;fill-opacity:1;stroke-width:8;stroke-linecap:square"
     id="rect396"
     width="112"
     height="112"
     x="8"
     y="8"
     ry="24" />
  <path
     id="path1-9"
     style="opacity:0.2;fill:#000000;stroke-width:8"
     d="m 92.890624,25 c -1.456364,0 -2.908188,0.564474 -4.03906,1.695312 L 81.679688,33.9375 95.0625,47.320312 l 7.24219,-7.171876 c 2.26167,-2.261672 2.26167,-5.82418 0,-8.085936 L 96.9375,26.695312 C 95.80666,25.564474 94.346992,25 92.890624,25 Z M 74.007812,41.609376 24,91.617188 V 105 H 37.382812 L 87.390624,54.992188 Z" />
  <path
     id="path1"
     style="fill:#ffffff;stroke-width:8"
     d="m 92.890624,24 c -1.456364,0 -2.908188,0.564474 -4.03906,1.695312 L 81.679688,32.9375 95.0625,46.320312 l 7.24219,-7.171876 c 2.26167,-2.261676 2.26167,-5.82418 0,-8.085936 L 96.9375,25.695312 C 95.80666,24.564474 94.346992,24 92.890624,24 Z M 74.007812,40.609376 24,90.617188 V 104 H 37.382812 L 87.390624,53.992188 Z" />
  <path
     id="path1040"
     style="opacity:0.2;fill:#ffffff;stroke-width:8;stroke-linecap:square"
     d="M 32,8 C 18.70404,8 8,18.704042 8,32 v 1 C 8,19.704042 18.70404,9 32,9 h 64 c 13.29596,0 24,10.704042 24,24 V 32 C 120,18.704042 109.29596,8 96,8 Z" />
</svg>
