<?xml version="1.0" encoding="UTF-8" standalone="no"?>
<!-- Created with Inkscape (http://www.inkscape.org/) -->

<svg
   width="128"
   height="128"
   viewBox="0 0 128 128"
   version="1.1"
   id="svg5"
   inkscape:version="1.3.2 (091e20ef0f, 2023-11-25, custom)"
   sodipodi:docname="air.svg"
   xmlns:inkscape="http://www.inkscape.org/namespaces/inkscape"
   xmlns:sodipodi="http://sodipodi.sourceforge.net/DTD/sodipodi-0.dtd"
   xmlns="http://www.w3.org/2000/svg"
   xmlns:svg="http://www.w3.org/2000/svg">
  <sodipodi:namedview
     id="namedview7"
     pagecolor="#ffffff"
     bordercolor="#000000"
     borderopacity="0.25"
     inkscape:showpageshadow="2"
     inkscape:pageopacity="0.0"
     inkscape:pagecheckerboard="0"
     inkscape:deskcolor="#d1d1d1"
     inkscape:document-units="px"
     showgrid="false"
     inkscape:zoom="6.2109375"
     inkscape:cx="63.919497"
     inkscape:cy="64"
     inkscape:window-width="1920"
     inkscape:window-height="1008"
     inkscape:window-x="0"
     inkscape:window-y="0"
     inkscape:window-maximized="1"
     inkscape:current-layer="svg5" />
  <defs
     id="defs2" />
  <rect
     style="opacity:0.2;fill:#000000;stroke-width:8;stroke-linecap:square"
     id="rect234"
     width="112"
     height="112"
     x="8"
     y="9"
     ry="24" />
  <rect
     style="fill:#c2352a;fill-opacity:1;stroke-width:8;stroke-linecap:square"
     id="rect396"
     width="112"
     height="112"
     x="8"
     y="8"
     ry="24" />
  <path
     d="m 100.61792,80.429368 c -0.2336,-0.31588 -0.60328,-0.75998 -1.0196,-1.18692 -4.3314,-4.444836 -7.56644,-9.692956 -9.30928,-15.505956 -0.08,-0.2702 -0.16,-0.5404 -0.232,-0.81142 -0.0752,-0.27268 -0.1404,-0.55102 -0.2072,-0.82774 -1.39508,-5.90196 -1.22448,-12.06762 0.3112,-18.0798 0,0 0.2344,-0.99264 0.2948,-1.40162 1.2906,-7.59666 -3.38612,-15.064322 -10.97376,-17.098602 -7.73624,-2.07262 -15.66512,2.26528 -18.19492,9.747662 -0.1044,0.27916 -0.3176,0.98446 -0.32,0.99508 -1.66284,5.89382 -4.55176,11.24478 -8.63336,15.62516 -4.63668,4.86686 -10.53132,8.32724 -17.14024,10.09782 -8.05048,2.15674 -12.83332,10.44642 -10.6758,18.500216 2.1608,8.05216 10.43748,12.83496 18.49372,10.67498 6.01132,-1.53468 12.177,-1.70854 18.08144,-0.31428 0.2752,0.0686 0.5518,0.1364 0.82608,0.21064 0.2752,0.0734 0.54776,0.1534 0.8204,0.23104 5.81056,1.74444 11.06436,4.97706 15.50272,9.310902 0.54528,0.54612 1.01628,0.9306 1.45628,1.24162 5.96648,4.5469 14.45616,4.19832 19.89612,-1.24162 5.52156,-5.518302 5.84156,-14.237402 1.02368,-20.167122 z m -36.58328,2.72896 C 56.15308,81.046508 51.47392,72.942112 53.58576,65.060572 c 2.11344,-7.88236 10.2162,-12.56152 18.09776,-10.4497 7.8848,2.11346 12.56232,10.2154 10.44968,18.09776 -2.1126,7.882376 -10.21376,12.562316 -18.09856,10.449696 z"
     style="display:inline;opacity:0.2;fill:#000000;fill-opacity:1;stroke-width:2;enable-background:new"
     id="path1" />
  <path
     d="m 100.61792,79.429368 c -0.2336,-0.31588 -0.60328,-0.75998 -1.0196,-1.18692 -4.3314,-4.444836 -7.56644,-9.692956 -9.30928,-15.505956 -0.08,-0.2702 -0.16,-0.5404 -0.232,-0.81142 -0.0752,-0.27268 -0.1404,-0.55102 -0.2072,-0.82774 -1.39508,-5.90196 -1.22448,-12.06762 0.3112,-18.0798 0,0 0.2344,-0.99264 0.2948,-1.40162 1.2906,-7.59666 -3.38612,-15.064322 -10.97376,-17.098602 -7.73624,-2.07262 -15.66512,2.26528 -18.19492,9.747662 -0.1044,0.27916 -0.3176,0.98446 -0.32,0.99508 -1.66284,5.89382 -4.55176,11.24478 -8.63336,15.62516 -4.63668,4.86686 -10.53132,8.32724 -17.14024,10.09782 -8.05048,2.15674 -12.83332,10.44642 -10.6758,18.500216 2.1608,8.05216 10.43748,12.83496 18.49372,10.67498 6.01132,-1.53468 12.177,-1.70854 18.08144,-0.31428 0.2752,0.0686 0.5518,0.1364 0.82608,0.21064 0.2752,0.0734 0.54776,0.1534 0.8204,0.23104 5.81056,1.74444 11.06436,4.97706 15.50272,9.3109 0.54528,0.546122 1.01628,0.930602 1.45628,1.241622 5.96648,4.5469 14.45616,4.19832 19.89612,-1.241622 5.52156,-5.5183 5.84156,-14.2374 1.02368,-20.16712 z m -36.58328,2.72896 C 56.15308,80.046508 51.47392,71.942112 53.58576,64.060572 c 2.11344,-7.88236 10.2162,-12.56152 18.09776,-10.4497 7.8848,2.11346 12.56232,10.2154 10.44968,18.09776 -2.1126,7.882376 -10.21376,12.562316 -18.09856,10.449696 z"
     style="display:inline;opacity:1;fill:#ffffff;fill-opacity:1;stroke-width:2;enable-background:new"
     id="path2" />
  <path
     id="path1040"
     style="opacity:0.2;fill:#ffffff;stroke-width:8;stroke-linecap:square"
     d="M 32,8 C 18.70404,8 8,18.704042 8,32 v 1 C 8,19.704042 18.70404,9 32,9 h 64 c 13.29596,0 24,10.704042 24,24 V 32 C 120,18.704042 109.29596,8 96,8 Z" />
</svg>
