<?xml version="1.0" encoding="UTF-8" standalone="no"?>
<!-- Created with Inkscape (http://www.inkscape.org/) -->

<svg
   width="128"
   height="128"
   viewBox="0 0 128 128"
   version="1.1"
   id="svg5"
   inkscape:version="1.3 (0e150ed6c4, 2023-07-21)"
   sodipodi:docname="androidstudio-preview.svg"
   xmlns:inkscape="http://www.inkscape.org/namespaces/inkscape"
   xmlns:sodipodi="http://sodipodi.sourceforge.net/DTD/sodipodi-0.dtd"
   xmlns="http://www.w3.org/2000/svg"
   xmlns:svg="http://www.w3.org/2000/svg">
  <sodipodi:namedview
     id="namedview7"
     pagecolor="#ffffff"
     bordercolor="#000000"
     borderopacity="0.25"
     inkscape:showpageshadow="2"
     inkscape:pageopacity="0.0"
     inkscape:pagecheckerboard="0"
     inkscape:deskcolor="#d1d1d1"
     inkscape:document-units="px"
     showgrid="false"
     inkscape:zoom="6.2265625"
     inkscape:cx="63.919699"
     inkscape:cy="64"
     inkscape:window-width="1850"
     inkscape:window-height="1011"
     inkscape:window-x="0"
     inkscape:window-y="0"
     inkscape:window-maximized="1"
     inkscape:current-layer="svg5"
     showguides="false" />
  <defs
     id="defs2" />
  <rect
     style="opacity:0.2;fill:#000000;stroke-width:8;stroke-linecap:square"
     id="rect234"
     width="112"
     height="112"
     x="8"
     y="9"
     ry="24" />
  <rect
     style="fill:#efefef;fill-opacity:1;stroke-width:8;stroke-linecap:square"
     id="rect396"
     width="112"
     height="112"
     x="8"
     y="8"
     ry="24" />
  <path
     d="M 96.0014,91.0003 H 38.4244 C 34.8785,90.9775 32.01284,88.10542 32.00148,84.56308 V 40.424 c -0.02,3.7354 3.12864,6.8053 6.86086,6.5763 h 47.75492 c 0,0 9.38414,-0.90988 9.38414,6.1523 z"
     style="opacity:0.2;fill:#000000;stroke-width:2"
     id="path517" />
  <path
     d="M 55.81248,34.00034 H 38.3938 c -3.53374,0.01 -6.39236,2.6982 -6.39234,6.0097 -0.105,3.2799 2.70454,5.99178 6.20618,5.9903 h 17.79102 z"
     style="fill:#ff8802;fill-opacity:1;stroke-width:2"
     id="path430" />
  <path
     id="path458"
     style="opacity:0.1;fill:#000000;stroke-width:2"
     d="m 38.394532,34 c -3.532298,0.012 -6.389526,2.697676 -6.390626,6.007812 -0.0054,0.1963 2.54e-4,0.39422 0.0156,0.589844 0.225322,-3.1197 2.988976,-5.588074 6.375,-5.597656 h 17.417968 l 0.17188,11 H 56 L 55.8125,34 Z" />
  <path
     d="m 51.0221,25.000334 c -0.80144,-0.02 -1.29948,0.8639 -0.86718,1.53906 l 3.3828,5.4375 c -5.92004,3.63304 -9.5312,10.0775 -9.53906,17.02344 0,11.0457 8.9543,20 20,20 11.0457,0 20,-8.9543 20,-20 -0.01,-6.94532 -3.6226,-13.38816 -9.54296,-17.01954 l 3.38672,-5.4414 c 0.43228,-0.67516 -0.0658,-1.55906 -0.8672,-1.53906 -0.34052,0.01 -0.6526,0.1924 -0.82812,0.48438 l -3.44532,5.53516 c -2.71164,-1.32084 -5.6869,-2.01124 -8.70312,-2.01954 -3.01692,0.006 -5.99356,0.69302 -8.70704,2.01172 l -3.4414,-5.52734 c -0.1756,-0.29196 -0.4876,-0.4745 -0.82812,-0.48438 z"
     style="opacity:0.2;fill:#000000;stroke-width:2"
     id="path2014" />
  <path
     d="m 51.0221,24.00034 c -0.80144,-0.02 -1.29948,0.8639 -0.86718,1.53906 l 3.3828,5.4375 c -5.92004,3.63304 -9.5312,10.0775 -9.53906,17.02344 0,11.0457 8.9543,20 20,20 11.0457,0 20,-8.9543 20,-20 -0.01,-6.94532 -3.6226,-13.38816 -9.54296,-17.01954 l 3.38672,-5.4414 c 0.43228,-0.67516 -0.0658,-1.55906 -0.8672,-1.53906 -0.34052,0.01 -0.6526,0.1924 -0.82812,0.48438 l -3.44532,5.53516 c -2.71164,-1.32084 -5.6869,-2.01124 -8.70312,-2.01954 -3.01692,0.006 -5.99356,0.69302 -8.70704,2.01172 l -3.4414,-5.52734 c -0.1756,-0.29196 -0.4876,-0.4745 -0.82812,-0.48438 z"
     style="fill:#3ddc84;stroke-width:2"
     id="path374"
     sodipodi:nodetypes="ccccscccccccccc" />
  <path
     id="path402"
     style="opacity:0.2;fill:#ffffff;stroke-width:2"
     d="m 51.023438,24 c -0.783812,-0.0196 -1.26978,0.823426 -0.88672,1.492188 0.17312,-0.29391 0.493544,-0.502 0.88672,-0.492188 0.34052,0.0098 0.652524,0.19242 0.828124,0.484376 l 3.441406,5.527342 C 58.006444,29.693022 60.983088,29.006 64,29 c 3.016212,0.0082 5.991492,0.698692 8.703124,2.019532 l 3.445314,-5.535156 C 76.323958,25.1924 76.636042,25.01 76.976562,25 c 0.395274,-0.0098 0.714268,0.19968 0.88672,0.496094 C 78.249686,24.826838 77.761562,23.98041 76.976562,24 c -0.34052,0.01 -0.652604,0.1924 -0.828124,0.484376 l -3.445314,5.535156 C 69.991492,28.698692 67.016212,28.0083 64,28 c -3.016912,0.006 -5.993556,0.693022 -8.707032,2.011718 L 51.851562,24.484376 C 51.675962,24.192416 51.363958,24.00988 51.023438,24 Z m 2.074218,7.269532 C 47.444494,34.948236 44.00766,41.231418 44,48 c 0,0.18898 0.0104,0.374792 0.0156,0.5625 0.15588,-6.777756 3.72824,-13.029512 9.523438,-16.585938 z m 21.800782,0.004 -0.441406,0.70703 c 5.801088,3.558224 9.375842,9.816916 9.527344,16.601564 C 83.99001,48.38785 84,48.195548 84,48 83.9902,41.232022 80.551968,34.950528 74.898438,31.273438 Z" />
  <path
     d="m 96.0014,90.00034 h -57.577 c -3.5459,-0.0228 -6.41156,-2.89488 -6.42292,-6.43722 V 39.42404 c -0.02,3.7354 3.12864,6.8053 6.86086,6.5763 h 47.75492 c 0,0 9.38414,-0.90988 9.38414,6.1523 z"
     style="fill:#ffc802;fill-opacity:1;stroke-width:2"
     id="path489" />
  <ellipse
     style="fill:#e7521d;fill-opacity:1;stroke-width:8;stroke-linecap:square"
     id="path750"
     cx="65.498642"
     cy="64.501328"
     rx="3.4999998"
     ry="3.5" />
  <path
     d="m 63.96742,55.0007 c -1.10244,0.018 -1.98302,0.91692 -1.96876,2.01172 v 2.33986 c -2.39438,0.84652 -3.99644,3.10882 -4,5.64842 0.002,1.77818 0.79382,3.4636 2.16016,4.60158 L 46.3385,98.489 c -0.52572,1.01666 -0.43492,2.22548 0.23828,3.16014 0.68302,0.92594 1.83074,1.43488 3.01564,1.33986 1.18528,-0.1082 2.21582,-0.82098 2.6914,-1.85938 l 9.2461,-18.6875 c 0.44596,-0.86826 1.37082,-1.43738 2.3867,-1.44142 0.0284,-8e-5 0.0538,0.01 0.082,0.012 0.0282,-8e-4 0.0536,-0.012 0.082,-0.012 1.01588,0.004 1.94074,0.57316 2.38672,1.44142 l 9.24608,18.6875 c 0.47558,1.0384 1.50612,1.7511 2.69142,1.85938 1.1849,0.095 2.3326,-0.41392 3.01562,-1.33986 0.6732,-0.93466 0.764,-2.14348 0.23828,-3.16014 L 67.84234,69.61008 c 1.367,-1.14046 2.15696,-2.8291 2.15632,-4.60938 -0.0019,-2.54104 -1.60428,-4.80532 -4,-5.65234 v -2.33594 c 0.014,-1.11908 -0.90436,-2.02918 -2.03124,-2.01172 z m 0.0312,6 c 2.20914,0 4,1.79088 4,4 0,2.20914 -1.79086,4 -4,4 -2.20914,0 -4,-1.79086 -4,-4 0,-2.20912 1.79086,-4 4,-4 z"
     style="opacity:0.1;fill:#000000;stroke-width:2"
     id="path650" />
  <path
     d="m 63.9674,54.00074 c -1.10242,0.018 -1.983,0.91692 -1.96874,2.01172 v 2.33986 c -2.39438,0.84652 -3.99644,3.10882 -4,5.64842 0.002,1.77818 0.7938,3.4636 2.16016,4.60158 L 46.3385,97.48904 c -0.52572,1.01666 -0.43492,2.22548 0.23828,3.16014 0.68302,0.92594 1.83072,1.43488 3.01562,1.33986 1.18528,-0.1082 2.21584,-0.82098 2.69142,-1.85938 l 9.24608,-18.6875 c 0.44598,-0.86826 1.37084,-1.43738 2.38672,-1.44142 0.0282,-8e-5 0.0538,0.01 0.082,0.012 0.0282,-8e-4 0.0536,-0.012 0.082,-0.012 1.01588,0.004 1.94074,0.57316 2.38672,1.44142 l 9.2461,18.6875 c 0.47558,1.0384 1.50612,1.7511 2.6914,1.85938 1.1849,0.095 2.3326,-0.41392 3.01562,-1.33986 0.6732,-0.93466 0.764,-2.14348 0.23828,-3.16014 L 67.84232,68.61012 c 1.36698,-1.14048 2.15692,-2.8291 2.15626,-4.60938 -0.0019,-2.54104 -1.60428,-4.80532 -4,-5.65234 v -2.33594 c 0.014,-1.1191 -0.90436,-2.02918 -2.03126,-2.01172 z m 0.0312,6 c 2.20914,0 4,1.79088 4,4 0,2.20914 -1.79086,4 -4,4 -2.20914,0 -4,-1.79086 -4,-4 0,-2.20912 1.79086,-4 4,-4 z"
     style="fill:#ff8802;fill-opacity:1;stroke-width:2"
     id="path678" />
  <path
     d="m 90.70316,59.0003 h -2.4019 c -0.1672,0 -0.3026,0.1126 -0.3026,0.29588 v 41.37238 c -3.2e-4,0.1754 0.124,0.32078 0.2837,0.33174 h 2.47754 c 2.89634,-0.012 5.23878,-2.58878 5.23876,-5.76414 V 53.0003 c 8e-5,3.19972 -2.377,6.02302 -5.2955,6 z"
     style="opacity:0.2;fill:#000000;stroke-width:2"
     id="path573" />
  <path
     d="m 90.70316,58.00034 h -2.4019 c -0.1672,0 -0.3026,0.1126 -0.3026,0.29588 V 99.6686 c -3.2e-4,0.1754 0.124,0.32078 0.2837,0.33174 h 2.47754 c 2.89634,-0.012 5.23878,-2.58878 5.23876,-5.76414 V 52.00034 c 8e-5,3.19972 -2.377,6.02302 -5.2955,6 z"
     style="fill:#ff8802;fill-opacity:1;stroke-width:2"
     id="path545" />
  <path
     id="path1691"
     style="opacity:0.2;fill:#000000;fill-opacity:1;stroke-width:8;stroke-linecap:square"
     d="m 55.99866,37 a 2,2 0 0 0 -2,2 2,2 0 0 0 2,2 2,2 0 0 0 2,-2 2,2 0 0 0 -2,-2 z m 16,0 a 2,2 0 0 0 -2,2 2,2 0 0 0 2,2 2,2 0 0 0 2,-2 2,2 0 0 0 -2,-2 z" />
  <path
     id="path1316"
     style="fill:#ffffff;fill-opacity:1;stroke-width:8;stroke-linecap:square"
     d="m 55.99866,36.00034 a 2,2 0 0 0 -2,2 2,2 0 0 0 2,2 2,2 0 0 0 2,-2 2,2 0 0 0 -2,-2 z m 16,0 a 2,2 0 0 0 -2,2 2,2 0 0 0 2,2 2,2 0 0 0 2,-2 2,2 0 0 0 -2,-2 z" />
  <path
     id="path1040"
     style="opacity:0.2;fill:#ffffff;stroke-width:8;stroke-linecap:square"
     d="M 32,8 C 18.704026,8 8,18.704028 8,32 v 1 C 8,19.704026 18.704026,9 32,9 h 64 c 13.29597,0 24,10.704026 24,24 V 32 C 120,18.704028 109.29597,8 96,8 Z" />
</svg>
