<?xml version="1.0" encoding="UTF-8" standalone="no"?>
<!-- Created with Inkscape (http://www.inkscape.org/) -->

<svg
   width="128"
   height="128"
   viewBox="0 0 128 128"
   version="1.1"
   id="svg5"
   inkscape:version="1.3 (0e150ed6c4, 2023-07-21)"
   sodipodi:docname="AppImage.svg"
   xmlns:inkscape="http://www.inkscape.org/namespaces/inkscape"
   xmlns:sodipodi="http://sodipodi.sourceforge.net/DTD/sodipodi-0.dtd"
   xmlns="http://www.w3.org/2000/svg"
   xmlns:svg="http://www.w3.org/2000/svg">
  <sodipodi:namedview
     id="namedview7"
     pagecolor="#ffffff"
     bordercolor="#000000"
     borderopacity="0.25"
     inkscape:showpageshadow="2"
     inkscape:pageopacity="0.0"
     inkscape:pagecheckerboard="0"
     inkscape:deskcolor="#d1d1d1"
     inkscape:document-units="px"
     showgrid="false"
     inkscape:zoom="6.2734375"
     inkscape:cx="64"
     inkscape:cy="64"
     inkscape:window-width="1850"
     inkscape:window-height="1011"
     inkscape:window-x="70"
     inkscape:window-y="32"
     inkscape:window-maximized="1"
     inkscape:current-layer="svg5" />
  <defs
     id="defs2" />
  <rect
     style="opacity:0.2;fill:#000000;stroke-width:8;stroke-linecap:square"
     id="rect234"
     width="112"
     height="112"
     x="8"
     y="9"
     ry="24" />
  <rect
     style="fill:#a8dae8;fill-opacity:1;stroke-width:8;stroke-linecap:square"
     id="rect396"
     width="112"
     height="112"
     x="8"
     y="8"
     ry="24" />
  <path
     id="path1250"
     style="opacity:0.2;fill:#000000;stroke-width:3.99996"
     d="m 55.801104,24.9995 -0.004,0.004 c -0.849992,0.0924 -1.59791,0.782302 -1.753908,1.621094 l -1.6875,8.5625 c -3.033772,1.184596 -5.88656,2.81243 -8.39053,4.812406 L 35.63704,37.187 c -0.865188,-0.297798 -1.91411,0.08842 -2.378906,0.875 L 25.24251,51.937 c -0.451396,0.797992 -0.254788,1.902006 0.441406,2.5 l 6.636718,5.8125 c -0.233718,1.55846 -0.378906,3.12642 -0.378906,4.75 0,1.62346 0.14532,3.19142 0.378906,4.75 l -6.636718,5.8125 c -0.696194,0.597994 -0.892802,1.702008 -0.441406,2.5 l 8.015624,13.875 c 0.464796,0.786832 1.513838,1.172798 2.378906,0.875 l 8.328126,-2.8125 c 2.50277,1.999896 5.355864,3.627716 8.390624,4.8125 l 1.6875,8.5625 c 0.17132,0.89627 1.027376,1.6126 1.941408,1.625 h 16.031248 c 0.913992,-0.012 1.766146,-0.72873 1.9375,-1.625 l 1.691408,-8.5625 c 3.03476,-1.184704 5.887854,-2.812724 8.390624,-4.8125 l 8.328126,2.8125 c 0.865108,0.297798 1.91415,-0.08826 2.378906,-0.875 l 8.01562,-13.875 c 0.45144,-0.797992 0.25467,-1.902406 -0.4414,-2.5 l -6.632814,-5.8125 c 0.233718,-1.55846 0.375,-3.12642 0.375,-4.75 0,-1.62346 -0.1414,-3.19142 -0.375,-4.75 l 6.636714,-5.8125 c 0.69608,-0.597554 0.8889,-1.701928 0.4375,-2.5 L 94.746416,38.062 C 94.28242,37.275208 93.231498,36.889202 92.36751,37.187 l -8.328126,2.8125 C 81.535418,37.999524 78.68272,36.371584 75.64876,35.187 l -1.6875,-8.5625 c -0.172,-0.896192 -1.027418,-1.6126 -1.941406,-1.625 h -16.03125 c -0.06252,-0.002 -0.12498,-0.002 -0.1875,0 z" />
  <path
     id="path1082"
     style="fill:#1fa5cd;fill-opacity:1;stroke-width:3.99996"
     d="m 55.801104,23.9995 -0.004,0.004 c -0.849992,0.0924 -1.59791,0.782302 -1.753908,1.621094 l -1.6875,8.5625 c -3.033772,1.184596 -5.88656,2.81243 -8.39053,4.812406 L 35.63704,36.187 c -0.865188,-0.297798 -1.91411,0.08842 -2.378906,0.875 L 25.24251,50.937 c -0.451396,0.797992 -0.254788,1.902006 0.441406,2.5 l 6.636718,5.8125 c -0.233718,1.55846 -0.378906,3.12642 -0.378906,4.75 0,1.62346 0.14532,3.19142 0.378906,4.75 l -6.636718,5.8125 c -0.696194,0.597994 -0.892802,1.702008 -0.441406,2.5 l 8.015624,13.875 c 0.464796,0.786832 1.513838,1.172798 2.378906,0.875 l 8.328126,-2.8125 c 2.50277,1.999896 5.355864,3.627716 8.390624,4.8125 l 1.6875,8.5625 c 0.17132,0.89627 1.027376,1.6126 1.941408,1.625 h 16.031248 c 0.913992,-0.012 1.766146,-0.72873 1.9375,-1.625 l 1.691408,-8.5625 c 3.03476,-1.184704 5.887854,-2.812724 8.390624,-4.8125 l 8.328126,2.8125 c 0.865108,0.297798 1.91415,-0.08826 2.378906,-0.875 l 8.01562,-13.875 c 0.45144,-0.797992 0.25467,-1.902406 -0.4414,-2.5 l -6.632814,-5.8125 c 0.233718,-1.55846 0.375,-3.12642 0.375,-4.75 0,-1.62346 -0.1414,-3.19142 -0.375,-4.75 l 6.636714,-5.8125 c 0.69608,-0.597554 0.8889,-1.701928 0.4375,-2.5 L 94.746416,37.062 C 94.28242,36.275208 93.231498,35.889202 92.36751,36.187 l -8.328126,2.8125 C 81.535418,36.999524 78.68272,35.371584 75.64876,34.187 l -1.6875,-8.5625 c -0.172,-0.896192 -1.027418,-1.6126 -1.941406,-1.625 h -16.03125 c -0.06252,-0.002 -0.12498,-0.002 -0.1875,0 z" />
  <path
     id="path1082-2"
     style="opacity:0.2;fill:#ffffff;stroke-width:3.99996"
     d="m 55.800782,24 -0.004,0.004 c -0.849992,0.0924 -1.59791,0.782302 -1.753908,1.621094 l -1.6875,8.5625 C 49.321798,35.371998 46.46881,37.000028 43.964844,39 l -8.328126,-2.8125 c -0.865184,-0.297798 -1.91411,0.08842 -2.378906,0.875 l -8.015624,13.875 c -0.248712,0.43968 -0.295786,0.971444 -0.17578,1.460938 0.04012,-0.15958 0.09412,-0.31658 0.17578,-0.460938 l 8.015624,-13.875 c 0.464796,-0.78658 1.51372,-1.172798 2.378906,-0.875 L 43.964844,40 c 2.503968,-1.999974 5.356856,-3.627906 8.390624,-4.8125 l 1.6875,-8.5625 c 0.156,-0.838792 0.903916,-1.528694 1.753908,-1.621094 l 0.004,-0.004 c 0.06252,-0.002 0.12498,-0.002 0.1875,0 h 16.03125 c 0.913986,0.0124 1.769406,0.728808 1.941406,1.625 l 1.6875,8.5625 C 78.682394,36.372082 81.5351,38.000026 84.039062,40 l 8.328126,-2.8125 c 0.863986,-0.297798 1.91491,0.0882 2.378906,0.875 l 8.011716,13.875 c 0.0837,0.14798 0.13938,0.30881 0.17968,0.472656 0.12282,-0.492406 0.071,-1.02946 -0.17968,-1.472656 l -8.011716,-13.875 c -0.463996,-0.786792 -1.514922,-1.172798 -2.378906,-0.875 L 84.039062,39 C 81.535104,37.000028 78.68239,35.37208 75.648438,34.1875 l -1.6875,-8.5625 C 73.788938,24.728808 72.933516,24.0124 72.019532,24 h -16.03125 c -0.06252,-0.002 -0.12498,-0.002 -0.1875,0 z M 32.105468,61.0625 c -0.09652,0.966526 -0.16406,1.939662 -0.16406,2.9375 0,0.16788 0.0104,0.331468 0.0196,0.496094 0.02098,-1.132408 0.1152,-2.241548 0.253906,-3.339844 z m 63.789064,0.004 -0.10546,0.08984 c 0.1375,1.095792 0.229256,2.202438 0.25,3.332032 0.009,-0.16204 0.0196,-0.323032 0.0196,-0.488282 0,-0.99647 -0.0689,-1.968278 -0.16406,-2.933594 z m 0,7.867188 c -0.03,0.304332 -0.07142,0.606572 -0.10546,0.910156 l 6.527348,5.71875 c 0.31751,0.272594 0.51768,0.656182 0.61328,1.0625 0.19254,-0.727966 -0.0371,-1.56782 -0.61328,-2.0625 z m -63.789064,0.004 -6.421874,5.625 c -0.5763,0.495012 -0.805832,1.334618 -0.613282,2.0625 0.09558,-0.406282 0.295712,-0.789724 0.613282,-1.0625 l 6.53125,-5.71875 c -0.0349,-0.30235 -0.0791,-0.603116 -0.10938,-0.90625 z" />
  <path
     style="opacity:0.2;fill:#000000;stroke-width:4"
     d="M 58.62686,45.000576 C 57.360568,45.000576 56,45.973664 56,47.182392 V 68.999484 H 46 l 18,20 18,-20 H 72 V 47.182392 c 0,-1.208728 -1.360568,-2.181816 -2.626856,-2.181816 z"
     id="path4" />
  <path
     style="fill:#ffffff;stroke-width:4"
     d="M 58.62686,44.000576 C 57.360568,44.000576 56,44.973664 56,46.182392 V 67.999484 H 46 l 18,20 18,-20 H 72 V 46.182392 c 0,-1.208728 -1.360568,-2.181816 -2.626856,-2.181816 z"
     id="path5" />
  <path
     id="path1040"
     style="opacity:0.2;fill:#ffffff;stroke-width:8;stroke-linecap:square"
     d="M 32,8 C 18.704026,8 8,18.704028 8,32 v 1 C 8,19.704028 18.704028,9 32,9 h 64 c 13.29597,0 24,10.704028 24,24 V 32 C 120,18.704028 109.29597,8 96,8 Z" />
</svg>
