<?xml version="1.0" encoding="UTF-8" standalone="no"?>
<!-- Created with Inkscape (http://www.inkscape.org/) -->

<svg
   width="128"
   height="128"
   viewBox="0 0 128 128"
   version="1.1"
   id="svg5"
   inkscape:version="1.3 (0e150ed6c4, 2023-07-21)"
   sodipodi:docname="applications-utilities.svg"
   xmlns:inkscape="http://www.inkscape.org/namespaces/inkscape"
   xmlns:sodipodi="http://sodipodi.sourceforge.net/DTD/sodipodi-0.dtd"
   xmlns="http://www.w3.org/2000/svg"
   xmlns:svg="http://www.w3.org/2000/svg">
  <sodipodi:namedview
     id="namedview7"
     pagecolor="#ffffff"
     bordercolor="#000000"
     borderopacity="0.25"
     inkscape:showpageshadow="2"
     inkscape:pageopacity="0.0"
     inkscape:pagecheckerboard="0"
     inkscape:deskcolor="#d1d1d1"
     inkscape:document-units="px"
     showgrid="false"
     inkscape:zoom="6.1171875"
     inkscape:cx="64"
     inkscape:cy="64"
     inkscape:window-width="1920"
     inkscape:window-height="984"
     inkscape:window-x="0"
     inkscape:window-y="29"
     inkscape:window-maximized="1"
     inkscape:current-layer="svg5" />
  <defs
     id="defs2" />
  <rect
     style="opacity:0.2;fill:#000000;stroke-width:8;stroke-linecap:square"
     id="rect234"
     width="112"
     height="112"
     x="8"
     y="9"
     ry="24" />
  <rect
     style="fill:#b7b7b7;fill-opacity:1;stroke-width:8;stroke-linecap:square"
     id="rect396"
     width="112"
     height="112"
     x="8"
     y="8"
     ry="24" />
  <path
     id="path1"
     style="opacity:0.2;fill:#000000;stroke-width:4"
     d="m 40,29 c -6.647992,0 -12,5.352008 -12,12 v 48 c 0,6.647992 5.352008,12 12,12 6.647992,0 12,-5.352008 12,-12 V 41 C 52,34.352008 46.647992,29 40,29 Z m 10.125,0 C 53.636996,31.851996 56,36.168008 56,41 v 4 h 18.5 c -0.296,-4.371996 4.992004,-8 8,-8 2.719996,0 4,0.04792 4,4 v 4 h 4.875 C 96.286996,42.600004 98.492188,37.121996 98.492188,34.25 98.492188,31.31 88.957996,29 83.75,29 Z M 56,49 V 66.242188 C 67.063988,76.886132 90.5,75.875 90.5,75.875 c 0,0 1.410992,-6.077192 -7.625,-16.117188 L 73.398436,49 Z M 78,59.132812 84,65 c -7.195992,0.66 -7.868,-2.347192 -6,-5.867188 z" />
  <path
     id="path2"
     style="fill:#ffffff;stroke-width:4"
     d="m 40,28 c -6.647992,0 -12,5.352008 -12,12 v 48 c 0,6.647992 5.352008,12 12,12 6.647992,0 12,-5.352008 12,-12 V 40 C 52,33.352008 46.647992,28 40,28 Z m 10.125,0 C 53.636996,30.851998 56,35.168008 56,40 v 4 h 18.5 c -0.296,-4.371996 4.992004,-8 8,-8 2.719996,0 4,0.04792 4,4 v 4 h 4.875 C 96.286996,41.600004 98.492188,36.121996 98.492188,33.25 98.492188,30.310002 88.957996,28 83.75,28 Z M 56,48 V 65.242188 C 67.063988,75.886132 90.5,74.875 90.5,74.875 c 0,0 1.410992,-6.077192 -7.625,-16.117188 L 73.398436,48 Z M 78,58.132812 84,64 c -7.195992,0.66 -7.868,-2.347192 -6,-5.867188 z" />
  <g
     id="g361"
     transform="matrix(1.9999884,0,0,1.9999884,1.396e-4,1.396e-4)" />
  <path
     id="path1040"
     style="opacity:0.2;fill:#ffffff;stroke-width:8;stroke-linecap:square"
     d="M 32,8 C 18.70404,8 8,18.70404 8,32 v 1 C 8,19.704042 18.70404,9 32,9 h 64 c 13.29596,0 24,10.704042 24,24 V 32 C 120,18.70404 109.29596,8 96,8 Z" />
</svg>
