<?xml version="1.0" encoding="UTF-8" standalone="no"?>
<!-- Created with Inkscape (http://www.inkscape.org/) -->

<svg
   width="128"
   height="128"
   viewBox="0 0 128 128"
   version="1.1"
   id="svg5"
   inkscape:version="1.3 (0e150ed6c4, 2023-07-21)"
   sodipodi:docname="applets-screenshooter.svg"
   xmlns:inkscape="http://www.inkscape.org/namespaces/inkscape"
   xmlns:sodipodi="http://sodipodi.sourceforge.net/DTD/sodipodi-0.dtd"
   xmlns="http://www.w3.org/2000/svg"
   xmlns:svg="http://www.w3.org/2000/svg">
  <sodipodi:namedview
     id="namedview7"
     pagecolor="#ffffff"
     bordercolor="#000000"
     borderopacity="0.25"
     inkscape:showpageshadow="2"
     inkscape:pageopacity="0.0"
     inkscape:pagecheckerboard="0"
     inkscape:deskcolor="#d1d1d1"
     inkscape:document-units="px"
     showgrid="false"
     inkscape:zoom="6.1171875"
     inkscape:cx="64"
     inkscape:cy="64"
     inkscape:window-width="1920"
     inkscape:window-height="984"
     inkscape:window-x="0"
     inkscape:window-y="29"
     inkscape:window-maximized="1"
     inkscape:current-layer="svg5" />
  <defs
     id="defs2" />
  <rect
     style="opacity:0.2;fill:#000000;stroke-width:8;stroke-linecap:square"
     id="rect234"
     width="112"
     height="112"
     x="8"
     y="9"
     ry="24" />
  <rect
     style="fill:#48cac2;fill-opacity:1;stroke-width:8;stroke-linecap:square"
     id="rect396"
     width="112"
     height="112"
     x="8"
     y="8"
     ry="24" />
  <path
     id="rect1"
     style="opacity:0.2;fill:#000000;stroke-width:8"
     d="m 32,25 c -4.43196,0 -8,3.56804 -8,8 v 16 h 8 V 33 h 16 v -8 z m 48,0 v 8 h 16 v 16 h 8 V 33 c 0,-4.43196 -3.56806,-8 -8,-8 z m -22,24 -4,6 h -4 c -2.215984,0 -4,1.784016 -4,4 v 16 c 0,2.215984 1.784016,4 4,4 h 28 c 2.215984,0 4,-1.784016 4,-4 V 59 c 0,-2.215984 -1.784016,-4 -4,-4 h -4 l -4,-6 z m 6,10 c 4.418256,0 8,3.581744 8,8 0,4.418256 -3.581744,8 -8,8 -4.418256,0 -8,-3.581744 -8,-8 0,-4.418256 3.581744,-8 8,-8 z M 24,81 v 16 c 0,4.43194 3.56804,8 8,8 H 48 V 97 H 32 V 81 Z m 72,0 V 97 H 80 v 8 h 16 c 4.43194,0 8,-3.56806 8,-8 V 81 Z" />
  <path
     id="rect2"
     style="fill:#ffffff;fill-opacity:1;stroke-width:8"
     d="m 32,24 c -4.43196,0 -8,3.56804 -8,8 v 16 h 8 V 32 h 16 v -8 z m 48,0 v 8 h 16 v 16 h 8 V 32 c 0,-4.43196 -3.56806,-8 -8,-8 z m -22,24 -4,6 h -4 c -2.215984,0 -4,1.784016 -4,4 v 16 c 0,2.215984 1.784016,4 4,4 h 28 c 2.215984,0 4,-1.784016 4,-4 V 58 c 0,-2.215984 -1.784016,-4 -4,-4 h -4 l -4,-6 z m 6,10 c 4.418256,0 8,3.581744 8,8 0,4.418256 -3.581744,8 -8,8 -4.418256,0 -8,-3.581744 -8,-8 0,-4.418256 3.581744,-8 8,-8 z M 24,80 v 16 c 0,4.43194 3.56804,8 8,8 H 48 V 96 H 32 V 80 Z m 72,0 V 96 H 80 v 8 h 16 c 4.43194,0 8,-3.56806 8,-8 V 80 Z" />
  <path
     id="path1040"
     style="opacity:0.1;fill:#ffffff;stroke-width:8;stroke-linecap:square"
     d="M 32,8 C 18.70404,8 8,18.70404 8,32 v 1 C 8,19.70404 18.70404,9 32,9 h 64 c 13.29596,0 24,10.70404 24,24 V 32 C 120,18.70404 109.29596,8 96,8 Z" />
</svg>
