<?xml version="1.0" encoding="UTF-8" standalone="no"?>
<!-- Created with Inkscape (http://www.inkscape.org/) -->

<svg
   width="128"
   height="128"
   viewBox="0 0 128 128"
   version="1.1"
   id="svg5"
   inkscape:version="1.3 (0e150ed6c4, 2023-07-21)"
   sodipodi:docname="BadlionClient.svg"
   xmlns:inkscape="http://www.inkscape.org/namespaces/inkscape"
   xmlns:sodipodi="http://sodipodi.sourceforge.net/DTD/sodipodi-0.dtd"
   xmlns="http://www.w3.org/2000/svg"
   xmlns:svg="http://www.w3.org/2000/svg">
  <sodipodi:namedview
     id="namedview7"
     pagecolor="#ffffff"
     bordercolor="#000000"
     borderopacity="0.25"
     inkscape:showpageshadow="2"
     inkscape:pageopacity="0.0"
     inkscape:pagecheckerboard="0"
     inkscape:deskcolor="#d1d1d1"
     inkscape:document-units="px"
     showgrid="false"
     inkscape:zoom="6.2734375"
     inkscape:cx="64"
     inkscape:cy="64"
     inkscape:window-width="1850"
     inkscape:window-height="1011"
     inkscape:window-x="70"
     inkscape:window-y="32"
     inkscape:window-maximized="1"
     inkscape:current-layer="svg5" />
  <defs
     id="defs2" />
  <rect
     style="opacity:0.2;fill:#000000;stroke-width:8;stroke-linecap:square"
     id="rect234"
     width="112"
     height="112"
     x="8"
     y="9"
     ry="24" />
  <rect
     style="fill:#10a5f1;fill-opacity:1;stroke-width:8;stroke-linecap:square"
     id="rect396"
     width="112"
     height="112"
     x="8"
     y="8"
     ry="24" />
  <path
     style="opacity:0.1;fill:#000000;stroke-width:2"
     d="m 66.690202,104.99999 c -0.740936,-2.12511 -1.702552,-5.663214 -2.15136,-1.48759 -0.3754,2.5023 -1.080644,-3.879648 -1.712232,-0.005 -0.38824,0.68512 -0.23776,-4.892992 -1.442144,-1.758 -0.30608,4.11518 -3.234308,1.5198 -4.092664,-0.2074 -0.804584,2.92308 -0.20524,-1.973116 -1.400164,0.63311 -2.584688,4.41906 -0.644532,-6.470674 -3.458952,-1.71186 -1.74606,2.77356 -0.800124,-1.239694 -2.432708,-1.066074 -2.152416,1.810684 -1.810112,-2.763184 -4.530584,-1.766524 -1.045496,-1.5614 -1.723746,-5.117576 -4.05437,-3.811064 0.757504,-2.83118 -2.551184,-5.071964 -4.18544,-6.422972 -1.853702,0.855124 -2.928454,0.695328 -1.759832,-1.453848 0.952804,-2.105188 -0.64384,-3.485864 -0.741046,-5.63254 -2.662988,9.12e-4 0.90347,-3.967328 -2.568644,-3.176856 -0.350088,-1.320784 3.09474,-3.567104 -0.486768,-3.585716 -1.368976,-0.89679 3.096344,-2.973018 -0.300926,-2.267334 2.011232,-1.042772 -2.86197,-2.796236 -0.89426,-4.144888 3.551912,-0.889304 -0.457286,-2.255712 0.246528,-2.423556 2.130088,-0.669244 -1.577256,-1.553796 0.840308,-1.956848 -0.705474,-1.77062 -2.145932,-2.29376 -0.693498,-4.407908 -0.352946,-2.108864 -1.559976,-4.6099 0.228536,-6.372392 -0.971952,-1.664428 -1.62584,-2.134272 0.334068,-3.139128 0.07106,-3.096996 1.608848,-6.346728 1.65628,-9.299272 2.62194,-1.884436 3.325022,-6.040862 6.835934,-6.626732 2.483132,-2.094372 6.736442,-1.819214 9.435974,-3.323342 1.05682,1.016928 3.24086,-0.727176 3.888284,-0.576792 1.566692,2.146472 5.35586,-1.679556 6.960848,1.625442 1.565424,1.670344 2.04898,-3.00174 3.124752,-0.06038 1.279876,2.018988 3.101704,-2.60993 4.575568,0.0172 3.75116,-0.270896 7.52912,-0.619182 11.234364,-1.217766 0.6395,2.703248 4.117904,-2.298532 3.348828,1.453624 2.974238,1.223702 6.824326,1.01741 8.566162,4.174282 1.413944,1.842044 4.580272,4.096424 3.449288,5.941304 2.227476,0.508132 1.592676,1.72328 1.346732,3.031468 -0.510456,2.032572 1.95648,3.77522 0.6942,5.696912 2.37674,1.91404 -1.461872,3.813984 1.146568,5.818084 1.361136,1.269608 -2.412992,1.146224 -0.78144,3.321484 1.667136,2.032092 -0.72796,2.177824 -0.76014,4.077372 2.93824,0.06556 -1.96986,1.416748 1.219372,2.110504 -3.227892,0.002 -0.252,2.04096 0.04676,2.902188 -0.463604,1.690716 -2.208568,2.745724 -1.266988,3.508212 -3.687056,-1.229332 2.706108,2.51901 -1.39264,2.532938 -2.033236,0.34388 3.17068,3.93586 -0.674328,3.315748 -1.425848,0.728344 1.65694,3.22612 -1.267168,3.064644 -0.26352,1.689992 -0.550136,3.230588 -1.720612,4.186788 0.38024,1.821276 1.977256,5.391716 -1.426848,3.495496 -1.492156,-0.571616 -3.711572,1.877464 -3.838108,3.349948 0.476052,1.75274 0.723212,3.425028 -1.49455,1.866264 -2.619416,0.39268 -1.197372,5.051716 -4.695832,3.946572 -0.805444,1.982572 -1.526052,2.001216 -3.252264,1.569932 -0.06908,2.331036 -0.41754,4.873486 -2.3632,1.925076 -1.753872,-2.669796 -0.953976,4.18989 -2.704784,0.87212 -1.816056,-3.392372 -0.0348,4.22092 -1.610188,0.58487 -0.554616,1.64117 -1.608024,2.56649 -3.024644,2.88041 z"
     id="path3" />
  <path
     style="fill:#2c2c2c;stroke-width:2"
     d="m 66.690202,104 c -0.740936,-2.12511 -1.702552,-5.66322 -2.15136,-1.4876 -0.3754,2.50231 -1.080644,-3.879644 -1.712232,-0.005 -0.38824,0.68513 -0.23776,-4.892988 -1.442144,-1.75799 -0.30608,4.11518 -3.234308,1.5198 -4.092664,-0.2074 -0.804584,2.92307 -0.20524,-1.973122 -1.400164,0.63311 -2.584688,4.41906 -0.644532,-6.47068 -3.458952,-1.711868 -1.74606,2.773558 -0.800124,-1.239692 -2.432708,-1.066072 -2.152416,1.81068 -1.810112,-2.763184 -4.530584,-1.766524 -1.045496,-1.5614 -1.723746,-5.117576 -4.05437,-3.811064 0.757504,-2.83118 -2.551184,-5.071964 -4.18544,-6.422972 -1.853702,0.855124 -2.928454,0.695328 -1.759832,-1.453848 0.952804,-2.105188 -0.64384,-3.485864 -0.741046,-5.63254 -2.662988,9.12e-4 0.90347,-3.967326 -2.568644,-3.176854 -0.350088,-1.320784 3.09474,-3.567104 -0.486768,-3.585716 -1.368976,-0.896792 3.096344,-2.97302 -0.300926,-2.267336 2.011232,-1.042772 -2.86197,-2.796236 -0.89426,-4.144888 3.551912,-0.889304 -0.457286,-2.255712 0.246528,-2.423556 2.130088,-0.669244 -1.577256,-1.553796 0.840308,-1.956848 -0.705474,-1.77062 -2.145932,-2.29376 -0.693498,-4.407908 -0.352946,-2.108864 -1.559976,-4.6099 0.228536,-6.372392 -0.971952,-1.664428 -1.62584,-2.134272 0.334068,-3.139128 0.07106,-3.096996 1.608848,-6.346728 1.65628,-9.299272 2.62194,-1.884436 3.325022,-6.040862 6.835934,-6.626732 2.483132,-2.094374 6.736442,-1.819214 9.435974,-3.323342 1.05682,1.016926 3.24086,-0.727176 3.888284,-0.576792 1.566692,2.146472 5.35586,-1.679558 6.960848,1.625442 1.565424,1.670344 2.04898,-3.00174 3.124752,-0.06038 1.279876,2.018988 3.101704,-2.60993 4.575568,0.0172 3.75116,-0.270896 7.52912,-0.619184 11.234364,-1.217768 0.6395,2.703248 4.117904,-2.298532 3.348828,1.453626 2.974238,1.2237 6.824326,1.017408 8.566162,4.17428 1.413944,1.842046 4.580272,4.096426 3.449288,5.941306 2.227476,0.508132 1.592676,1.72328 1.346732,3.031468 -0.510456,2.032572 1.95648,3.77522 0.6942,5.696912 2.37674,1.91404 -1.461872,3.813984 1.146568,5.818084 1.361136,1.269608 -2.412992,1.146224 -0.78144,3.321484 1.667136,2.032092 -0.72796,2.177824 -0.76014,4.077372 2.93824,0.06556 -1.96986,1.416748 1.219372,2.110504 -3.227892,0.002 -0.252,2.04096 0.04676,2.902188 -0.463604,1.690716 -2.208568,2.745724 -1.266988,3.508212 -3.687056,-1.229332 2.706108,2.519012 -1.39264,2.53294 -2.033236,0.34388 3.17068,3.935858 -0.674328,3.315748 -1.425848,0.728342 1.65694,3.226118 -1.267168,3.064642 -0.26352,1.689992 -0.550136,3.230588 -1.720612,4.186788 0.38024,1.821276 1.977256,5.391716 -1.426848,3.495496 -1.492156,-0.571616 -3.711572,1.877464 -3.838108,3.349948 0.476052,1.75274 0.723212,3.425028 -1.49455,1.866264 -2.619416,0.39268 -1.197372,5.051716 -4.695832,3.946572 -0.805444,1.982572 -1.526052,2.001216 -3.252264,1.569932 -0.06908,2.331032 -0.41754,4.873492 -2.3632,1.925072 -1.753872,-2.669792 -0.953976,4.1899 -2.704784,0.87213 -1.816056,-3.392378 -0.0348,4.22091 -1.610188,0.58486 -0.554616,1.64117 -1.608024,2.5665 -3.024644,2.88041 z"
     id="path4" />
  <path
     style="opacity:0.2;fill:#000000;stroke-width:2"
     d="m 63.244182,43.005782 c -0.23132,0.0372 -0.475272,0.26948 -0.758184,0.869648 -2.116224,-3.176968 -2.896784,4.449268 -4.023404,0.3902 -1.016912,-2.763964 -0.33988,3.645232 -1.966212,0.71356 -1.672308,-2.62558 -2.877104,-1.3904 -4.21548,0.624364 -2.89342,0.99304 -5.931576,2.648116 -7.32402,5.931456 l -1.81963,2.302336 c -3.203144,1.708192 4.207226,5.41812 -0.839052,5.217896 1.864804,0.865712 2.730274,1.631688 0.3134,2.714864 -1.087436,1.851528 0.627716,3.769972 -0.611596,5.708476 0.694364,1.798876 4.063906,2.180224 0.672248,3.30578 -1.557384,0.810772 3.320438,0.1068 1.076616,1.744872 -3.869296,3.156254 1.920146,4.42251 2.54243,7.75437 3.095652,2.757852 6.797484,4.620012 10.210152,6.873572 1.520756,-1.925412 1.078928,-0.39012 1.94094,1.187404 1.02838,-1.566148 1.16356,-2.0092 1.79436,0.38468 0.648696,3.025124 3.291956,-2.231772 3.30566,1.811768 0.07252,1.199332 0.37432,-0.30368 0.636872,-0.540744 0.625212,-1.039696 2.246556,2.145532 2.395852,-0.85292 0.560532,-1.59344 1.370136,-4.664784 1.940932,-1.23758 1.25808,3.070236 0.2642,-3.525304 1.865128,-0.028 2.65628,-0.979328 5.34698,-3.290256 8.011432,-4.788644 1.192476,-0.817112 2.698088,-1.300036 3.078212,-2.971304 1.126956,-2.879212 6.061994,-4.622732 2.431228,-7.670746 -1.797976,-1.750368 3.796382,-0.77326 0.500394,-2.023608 -3.442622,-1.021524 3.734172,-2.02148 0.621712,-4.27578 1.344984,-0.671312 1.290256,-1.38312 -0.1062,-1.873084 3.322788,-2.485748 -4.367394,-3.652808 0.0304,-4.810948 1.77438,-1.004788 -3.772602,-0.14272 -0.606542,-2.335788 1.14261,-0.878872 1.44021,-2.48946 0.646978,-2.107228 L 83.49773,53.112538 c -0.05224,-0.25048 -0.22232,-0.496044 -0.571164,-0.730284 -2.238232,-2.780468 -4.315808,-5.82618 -7.814212,-6.489012 -1.722592,-1.540504 -2.81066,-3.958244 -4.690604,-0.969996 -1.90702,2.822424 -1.017936,-4.012936 -2.153232,-0.30104 -0.829932,3.32848 -1.325348,-1.78994 -2.577808,-1.605504 -1.173468,1.489044 -1.752508,-0.12432 -2.446392,-0.0108 z"
     id="path5" />
  <path
     style="fill:#ffae15;stroke-width:2"
     d="m 63.244182,42.005786 c -0.23132,0.0372 -0.475272,0.26948 -0.758184,0.869648 -2.116224,-3.176966 -2.896784,4.449268 -4.023404,0.3902 -1.016912,-2.763964 -0.33988,3.645232 -1.966212,0.71356 -1.672308,-2.62558 -2.877104,-1.3904 -4.21548,0.624364 -2.89342,0.99304 -5.931576,2.648116 -7.32402,5.931456 l -1.81963,2.302336 c -3.203144,1.708192 4.207226,5.41812 -0.839052,5.217896 1.864804,0.865712 2.730274,1.631688 0.3134,2.714864 -1.087436,1.851528 0.627716,3.769972 -0.611596,5.708476 0.694364,1.798876 4.063906,2.180224 0.672248,3.30578 -1.557384,0.810772 3.320438,0.1068 1.076616,1.744872 -3.869296,3.156256 1.920146,4.422512 2.54243,7.75437 3.095652,2.757852 6.797484,4.620012 10.210152,6.873572 1.520756,-1.925412 1.078928,-0.39012 1.94094,1.187404 1.02838,-1.566148 1.16356,-2.0092 1.79436,0.38468 0.648696,3.025124 3.291956,-2.231772 3.30566,1.811768 0.07252,1.199332 0.37432,-0.30368 0.636872,-0.540744 0.625212,-1.039696 2.246556,2.145532 2.395852,-0.85292 0.560532,-1.59344 1.370136,-4.664784 1.940932,-1.23758 1.25808,3.070236 0.2642,-3.525304 1.865128,-0.028 2.65628,-0.979328 5.34698,-3.290256 8.011432,-4.788644 1.192476,-0.817112 2.698088,-1.300036 3.078212,-2.971304 1.126956,-2.87921 6.061994,-4.62273 2.431228,-7.670746 -1.797976,-1.750368 3.796382,-0.77326 0.500394,-2.023608 -3.442622,-1.021524 3.734172,-2.02148 0.621712,-4.27578 1.344984,-0.671312 1.290256,-1.38312 -0.1062,-1.873084 3.322788,-2.485748 -4.367394,-3.652808 0.0304,-4.810948 1.77438,-1.004788 -3.772602,-0.14272 -0.606542,-2.335788 1.14261,-0.878872 1.44021,-2.48946 0.646978,-2.107228 L 83.49773,52.112542 c -0.05224,-0.25048 -0.22232,-0.496044 -0.571164,-0.730284 -2.238232,-2.780468 -4.315808,-5.82618 -7.814212,-6.489012 -1.722592,-1.540504 -2.81066,-3.958244 -4.690604,-0.969996 -1.90702,2.822424 -1.017936,-4.012934 -2.153232,-0.30104 -0.829932,3.32848 -1.325348,-1.78994 -2.577808,-1.605504 -1.173468,1.489044 -1.752508,-0.12432 -2.446392,-0.0108 z"
     id="path6" />
  <path
     id="path7"
     style="opacity:0.2;fill:#ffffff;stroke-width:2"
     d="m 63.246094,42.003906 c -0.23132,0.0372 -0.478808,0.270926 -0.761718,0.871094 -2.116224,-3.176962 -2.89682,4.449688 -4.023438,0.390624 -1.016912,-2.76396 -0.338514,3.646514 -1.964844,0.714844 -1.672306,-2.625576 -2.87647,-1.389762 -4.214844,0.625 -2.893418,0.99304 -5.931776,2.646352 -7.324218,5.929688 l -1.820314,2.300782 c -0.854128,0.455494 -0.950462,1.055338 -0.730468,1.683594 0.119612,-0.24957 0.349876,-0.48063 0.730468,-0.683594 l 1.820314,-2.300782 c 1.392442,-3.283336 4.4308,-4.940554 7.324218,-5.933594 1.338374,-2.014762 2.542538,-3.24667 4.214844,-0.621094 1.62633,2.93167 0.947932,-3.478804 1.964844,-0.714844 1.126618,4.059064 1.907216,-3.567586 4.023438,-0.390624 0.28291,-0.600168 0.530398,-0.833894 0.761718,-0.871094 0.693884,-0.11352 1.271846,1.500762 2.445312,0.01172 1.252458,-0.184434 1.748194,4.933946 2.578126,1.60547 1.135294,-3.71189 0.245324,3.123202 2.152344,0.300782 1.879942,-2.988246 2.968814,-0.567848 4.691406,0.972656 3.4984,0.66283 5.57427,3.707816 7.8125,6.48828 0.348842,0.23424 0.518072,0.47999 0.570312,0.73047 l 1.492188,1.910156 c 0.108562,-0.05231 0.19339,-0.06223 0.261718,-0.04688 0.29566,-0.651788 0.233336,-1.191676 -0.261718,-0.953124 L 83.496094,52.11328 c -0.05224,-0.25048 -0.22147,-0.49623 -0.570312,-0.73047 -2.23823,-2.780464 -4.3141,-5.82545 -7.8125,-6.48828 -1.722592,-1.540504 -2.811466,-3.960904 -4.691406,-0.972656 -1.907022,2.822418 -1.01705,-4.012672 -2.152344,-0.300782 -0.829932,3.328476 -1.325668,-1.789902 -2.578126,-1.60547 -1.173466,1.489044 -1.751428,-0.121352 -2.445312,-0.0078 z m 21.398438,15.851562 c -0.0946,0.0964 -0.1901,0.1922 -0.300782,0.277344 -0.26716,0.185058 -0.460692,0.343944 -0.613282,0.488282 0.117214,0.04817 0.248714,0.0909 0.390626,0.125 0.208436,-0.09283 0.478854,-0.185364 0.828124,-0.277344 0.68783,-0.3895 0.273806,-0.49813 -0.304686,-0.613282 z m -41.339844,0.160156 c -0.263418,0.0361 -0.577666,0.05612 -1.007812,0.03906 0.632452,0.293608 1.14412,0.575598 1.45703,0.86328 0.04591,-0.01839 0.08873,-0.03695 0.125,-0.05859 -0.152076,-0.259284 -0.352244,-0.542346 -0.574218,-0.843752 z m -0.160156,2.48047 c -0.16336,0.09066 -0.318664,0.17816 -0.53125,0.273438 -0.391154,0.665998 -0.41768,1.342414 -0.351564,2.023436 0.04645,-0.343602 0.15223,-0.684042 0.351564,-1.023436 0.604218,-0.270794 1.00087,-0.520154 1.230468,-0.757814 -0.162716,-0.173332 -0.402862,-0.34347 -0.699218,-0.515624 z m 41.578124,0.04297 c -0.369928,0.109662 -0.625568,0.220598 -0.808594,0.332032 0.504038,0.467516 1.381874,0.994486 1.71875,1.636718 0.420862,-0.785466 -0.225466,-1.420224 -0.910156,-1.96875 z m 1,3.15625 c 0.093,0.279948 0.07014,0.583584 -0.136718,0.910156 0.04167,0.02794 0.09377,0.05331 0.128906,0.08203 0.366076,-0.347442 0.36948,-0.6907 0.0078,-0.992188 z m -43.355468,1.92578 C 42.294508,65.90666 42.183228,66.193876 42,66.480468 c 0.06494,0.168228 0.16086,0.317276 0.265624,0.460938 0.08711,-0.227466 0.142348,-0.456878 0.171876,-0.683594 -0.01846,-0.213158 -0.03972,-0.424664 -0.07031,-0.636718 z m 43.359374,1.058594 c -0.02364,0.02292 -0.05942,0.04731 -0.08594,0.07031 0.0066,0.0097 0.01333,0.0177 0.01953,0.02734 0.0203,-0.03311 0.04978,-0.06372 0.06641,-0.09766 z m -0.92578,2.921874 c -0.327988,0.231572 -0.648818,0.440216 -0.90625,0.640626 0.08081,0.03691 0.198546,0.07254 0.304686,0.109374 0.789992,-0.215258 1.87472,-0.195524 0.601564,-0.75 z m -41.828126,0.07422 c -0.09918,0.03628 -0.186642,0.07149 -0.30078,0.109374 -0.849164,0.442072 0.209246,0.434772 0.98828,0.601562 0.04552,-0.02436 0.07461,-0.05041 0.113282,-0.07422 -0.22383,-0.192486 -0.505268,-0.39592 -0.800782,-0.636718 z m 41.703126,2.58203 c -0.268228,0.04652 -0.550782,0.104738 -0.769532,0.195312 0.710354,0.597328 1.080994,1.144636 1.226562,1.660158 0.151638,-0.579314 0.05215,-1.188364 -0.45703,-1.85547 z M 43,72.273438 c -0.552264,0.668162 -0.654812,1.25134 -0.484376,1.80078 0.157032,-0.468748 0.537856,-0.97871 1.234376,-1.546874 0.04701,-0.03432 0.0724,-0.06145 0.113282,-0.09375 C 43.602126,72.359742 43.281758,72.31668 43,72.273438 Z" />
  <path
     style="fill:#2c2c2c;stroke-width:2"
     d="m 38.549808,45.823522 -2.06966,1.924192 11.519854,11.193284 v 4.244204 l 12,-2.814812 v -2.370392 h 8 v 2.370392 l 12,2.814812 V 58.940998 L 91.519856,47.747714 89.450188,45.823522 80.000002,54.817734 V 51.92595 l -12,2.814812 v 1.259236 h -8 v -1.259236 l -12,-2.814812 v 2.891784 z"
     id="path8" />
  <path
     style="fill:#2c2c2c;stroke-width:2"
     d="m 55.500002,67.999994 c 0,0 4.904838,3.100092 7.515624,4.742188 v 5.355468 c -0.96247,1.748856 -4.99471,1.225884 -5.824218,2.957032 2.092364,-0.18428 3.909308,-0.934664 5.945312,-1.4375 2.279684,-0.01 4.739314,1.196674 7.070314,1.308594 0.869052,-1.075172 -4.679132,-1.52639 -6.214844,-2.441406 0.04464,-1.906854 0.14454,-5.722658 0.14454,-5.722658 l 8.363272,-4.761718 z m -0.234376,4.601562 c -0.369856,0.0188 -0.664062,0.324686 -0.664062,0.69922 0,0.386596 0.31261,0.699218 0.69922,0.699218 0.386598,0 0.699218,-0.312638 0.699218,-0.699218 0,-0.386596 -0.312604,-0.69922 -0.699218,-0.69922 -0.012,0 -0.02322,-6.04e-4 -0.03516,0 z m 2,0 c -0.369856,0.0188 -0.664062,0.324686 -0.664062,0.69922 0,0.386596 0.31261,0.699218 0.69922,0.699218 0.386598,0 0.699218,-0.312638 0.699218,-0.699218 0,-0.386596 -0.312608,-0.69922 -0.699218,-0.69922 -0.012,0 -0.02322,-6.04e-4 -0.03516,0 z m 2,0 c -0.369856,0.0188 -0.664062,0.324686 -0.664062,0.69922 0,0.386596 0.31261,0.699218 0.69922,0.699218 0.386598,0 0.699218,-0.312638 0.699218,-0.699218 0,-0.386596 -0.312604,-0.69922 -0.699218,-0.69922 -0.012,0 -0.02322,-6.04e-4 -0.03516,0 z m 8,0 c -0.369856,0.0188 -0.664062,0.324686 -0.664062,0.69922 0,0.386596 0.31261,0.699218 0.69922,0.699218 0.386598,0 0.699218,-0.312638 0.699218,-0.699218 0,-0.386596 -0.312604,-0.69922 -0.699218,-0.69922 -0.012,0 -0.02322,-6.04e-4 -0.03516,0 z m 2,0 c -0.369856,0.0188 -0.664062,0.324686 -0.664062,0.69922 0,0.386596 0.31261,0.699218 0.69922,0.699218 0.386598,0 0.699218,-0.312638 0.699218,-0.699218 0,-0.386596 -0.312608,-0.69922 -0.699218,-0.69922 -0.012,0 -0.02322,-6.04e-4 -0.03516,0 z m 2,0 c -0.369856,0.0188 -0.664062,0.324686 -0.664062,0.69922 0,0.386596 0.31261,0.699218 0.69922,0.699218 0.386598,0 0.699218,-0.312638 0.699218,-0.699218 0,-0.386596 -0.312604,-0.69922 -0.699218,-0.69922 -0.012,0 -0.02322,-6.04e-4 -0.03516,0 z m -16,2 c -0.369856,0.0188 -0.664062,0.324686 -0.664062,0.69922 0,0.386596 0.31261,0.699218 0.69922,0.699218 0.386598,0 0.699218,-0.312638 0.699218,-0.699218 0,-0.386596 -0.312604,-0.69922 -0.699218,-0.69922 -0.012,0 -0.02322,-6.04e-4 -0.03516,0 z m 2,0 c -0.369856,0.0188 -0.664062,0.324686 -0.664062,0.69922 0,0.386596 0.31261,0.699218 0.69922,0.699218 0.386598,0 0.699218,-0.312638 0.699218,-0.699218 0,-0.386596 -0.312608,-0.69922 -0.699218,-0.69922 -0.012,0 -0.02322,-6.04e-4 -0.03516,0 z m 2,0 c -0.369856,0.0188 -0.664062,0.324686 -0.664062,0.69922 0,0.386596 0.31261,0.699218 0.69922,0.699218 0.386598,0 0.699218,-0.312638 0.699218,-0.699218 0,-0.386596 -0.312604,-0.69922 -0.699218,-0.69922 -0.012,0 -0.02322,-6.04e-4 -0.03516,0 z m 8,0 c -0.369856,0.0188 -0.664062,0.324686 -0.664062,0.69922 0,0.386596 0.31261,0.699218 0.69922,0.699218 0.386598,0 0.699218,-0.312638 0.699218,-0.699218 0,-0.386596 -0.312604,-0.69922 -0.699218,-0.69922 -0.012,0 -0.02322,-6.04e-4 -0.03516,0 z m 2,0 c -0.369856,0.0188 -0.664062,0.324686 -0.664062,0.69922 0,0.386596 0.31261,0.699218 0.69922,0.699218 0.386598,0 0.699218,-0.312638 0.699218,-0.699218 0,-0.386596 -0.312608,-0.69922 -0.699218,-0.69922 -0.012,0 -0.02322,-6.04e-4 -0.03516,0 z m 2,0 c -0.369856,0.0188 -0.664062,0.324686 -0.664062,0.69922 0,0.386596 0.31261,0.699218 0.69922,0.699218 0.386598,0 0.699218,-0.312638 0.699218,-0.699218 0,-0.386596 -0.312604,-0.69922 -0.699218,-0.69922 -0.012,0 -0.02322,-6.04e-4 -0.03516,0 z m -14,2 c -0.369856,0.0188 -0.664062,0.324686 -0.664062,0.69922 0,0.386596 0.31261,0.699218 0.69922,0.699218 0.386598,0 0.699218,-0.312638 0.699218,-0.699218 0,-0.386596 -0.312608,-0.69922 -0.699218,-0.69922 -0.012,0 -0.02322,-6.04e-4 -0.03516,0 z m 12,0 c -0.369856,0.0188 -0.664062,0.324686 -0.664062,0.69922 0,0.386596 0.31261,0.699218 0.69922,0.699218 0.386598,0 0.699218,-0.312638 0.699218,-0.699218 0,-0.386596 -0.312608,-0.69922 -0.699218,-0.69922 -0.012,0 -0.02322,-6.04e-4 -0.03516,0 z"
     id="path9" />
  <path
     id="path1040"
     style="opacity:0.2;fill:#ffffff;stroke-width:8;stroke-linecap:square"
     d="M 32,8 C 18.704028,8 8,18.704028 8,32 v 1 C 8,19.704028 18.704028,9 32,9 h 64 c 13.29597,0 24,10.704028 24,24 V 32 C 120,18.704028 109.29597,8 96,8 Z" />
</svg>
