<?xml version="1.0" encoding="UTF-8" standalone="no"?>
<!-- Created with Inkscape (http://www.inkscape.org/) -->

<svg
   width="128"
   height="128"
   viewBox="0 0 128 128"
   version="1.1"
   id="svg5"
   inkscape:version="1.3 (0e150ed6c4, 2023-07-21)"
   sodipodi:docname="cider.svg"
   xmlns:inkscape="http://www.inkscape.org/namespaces/inkscape"
   xmlns:sodipodi="http://sodipodi.sourceforge.net/DTD/sodipodi-0.dtd"
   xmlns="http://www.w3.org/2000/svg"
   xmlns:svg="http://www.w3.org/2000/svg">
  <sodipodi:namedview
     id="namedview7"
     pagecolor="#ffffff"
     bordercolor="#000000"
     borderopacity="0.25"
     inkscape:showpageshadow="2"
     inkscape:pageopacity="0.0"
     inkscape:pagecheckerboard="0"
     inkscape:deskcolor="#d1d1d1"
     inkscape:document-units="px"
     showgrid="false"
     inkscape:zoom="6.1171875"
     inkscape:cx="63.918263"
     inkscape:cy="64"
     inkscape:window-width="1920"
     inkscape:window-height="984"
     inkscape:window-x="0"
     inkscape:window-y="29"
     inkscape:window-maximized="1"
     inkscape:current-layer="svg5" />
  <defs
     id="defs2" />
  <rect
     style="opacity:0.2;fill:#000000;stroke-width:8;stroke-linecap:square"
     id="rect234"
     width="112"
     height="112"
     x="8"
     y="9"
     ry="24" />
  <rect
     style="fill:#4d4d4d;fill-opacity:1;stroke-width:8;stroke-linecap:square"
     id="rect396"
     width="112"
     height="112"
     x="8"
     y="8"
     ry="24" />
  <circle
     style="opacity:0.2;fill:#000000;fill-opacity:1;stroke-width:16;stroke-linecap:square"
     id="path744"
     cx="63.999924"
     cy="64.999908"
     r="39.99992" />
  <circle
     style="fill:#f50057;fill-opacity:1;stroke-width:16;stroke-linecap:square"
     id="path345"
     cx="63.999924"
     cy="63.999924"
     r="39.99992" />
  <path
     id="path3"
     style="opacity:0.2;fill:#000000;stroke-width:2"
     d="M 64,41 C 50.745194,41 40,51.745194 40,65 40,78.254806 50.745194,89 64,89 77.254806,89 88,78.254806 88,65 88,51.745194 77.254806,41 64,41 Z m -0.03906,4 H 64 C 75.04567,45 84,53.95433 84,65 84,76.04567 75.04567,85 64,85 52.95433,85 44,76.04567 44,65 43.999978,53.969566 52.93052,45.021544 63.96094,45 Z m -6.941406,8.871094 C 56.454856,53.927652 55.999746,54.406394 56,55 v 20 c -0.0012,0.880818 0.959482,1.425724 1.714844,0.972656 l 16.570312,-9.945312 c 0.773156,-0.466698 0.773156,-1.58799 0,-2.054688 L 57.714844,54.027344 c -0.1373,-0.08192 -0.290404,-0.13384 -0.44922,-0.15234 -0.08422,-0.01 -0.16542,-0.012 -0.246092,-0.004 z" />
  <path
     id="path4"
     style="fill:#212121;stroke-width:2"
     d="M 64,40 C 50.74518,40 40,50.74518 40,64 40,77.25482 50.74518,88 64,88 77.25482,88 88,77.25482 88,64 88,50.74518 77.25482,40 64,40 Z m -0.03906,4 H 64 C 75.045682,44 84,52.954318 84,64 84,75.045682 75.045682,84 64,84 52.954318,84 44,75.045682 44,64 43.999978,52.969554 52.93051,44.021544 63.96094,44 Z m -6.941406,8.871094 C 56.454858,52.92765 55.999744,53.406394 56,54 v 20 c -0.0012,0.880818 0.959482,1.425724 1.714844,0.972656 l 16.570312,-9.945312 c 0.773156,-0.466698 0.773156,-1.58799 0,-2.054688 L 57.714844,53.027344 c -0.1373,-0.08192 -0.290404,-0.13384 -0.44922,-0.15234 -0.08422,-0.01 -0.16542,-0.012 -0.246092,-0.004 z" />
  <path
     id="path909"
     style="opacity:0.2;fill:#ffffff;fill-opacity:1;stroke-width:11.4285;stroke-linecap:square"
     d="M 64,24 A 39.99993,39.99993 0 0 0 24,64 39.99993,39.99993 0 0 0 24.035156,64.503906 39.99992,39.99992 0 0 1 64,25 39.99992,39.99992 0 0 1 103.98047,64.238282 39.99993,39.99993 0 0 0 104,64 39.99993,39.99993 0 0 0 64,24 Z" />
  <path
     id="path1040"
     style="opacity:0.1;fill:#ffffff;stroke-width:8;stroke-linecap:square"
     d="M 32,8 C 18.704026,8 8,18.704028 8,32 v 1 C 8,19.704028 18.704026,9 32,9 h 64 c 13.29597,0 24,10.704028 24,24 V 32 C 120,18.704028 109.29597,8 96,8 Z" />
</svg>
