<?xml version="1.0" encoding="UTF-8" standalone="no"?>
<!-- Created with Inkscape (http://www.inkscape.org/) -->

<svg
   width="128"
   height="128"
   viewBox="0 0 128 128"
   version="1.1"
   id="svg5"
   inkscape:version="1.3.2 (091e20ef0f, 2023-11-25, custom)"
   sodipodi:docname="cities-skylines.svg"
   xmlns:inkscape="http://www.inkscape.org/namespaces/inkscape"
   xmlns:sodipodi="http://sodipodi.sourceforge.net/DTD/sodipodi-0.dtd"
   xmlns="http://www.w3.org/2000/svg"
   xmlns:svg="http://www.w3.org/2000/svg">
  <sodipodi:namedview
     id="namedview7"
     pagecolor="#ffffff"
     bordercolor="#000000"
     borderopacity="0.25"
     inkscape:showpageshadow="2"
     inkscape:pageopacity="0.0"
     inkscape:pagecheckerboard="0"
     inkscape:deskcolor="#d1d1d1"
     inkscape:document-units="px"
     showgrid="false"
     inkscape:zoom="6.3828125"
     inkscape:cx="63.921665"
     inkscape:cy="64"
     inkscape:window-width="1920"
     inkscape:window-height="1020"
     inkscape:window-x="0"
     inkscape:window-y="31"
     inkscape:window-maximized="1"
     inkscape:current-layer="svg5" />
  <defs
     id="defs2" />
  <rect
     style="opacity:0.2;fill:#000000;stroke-width:8;stroke-linecap:square"
     id="rect234"
     width="112"
     height="112"
     x="8"
     y="9"
     ry="24" />
  <rect
     style="fill:#dbf3ff;fill-opacity:1;stroke-width:8;stroke-linecap:square"
     id="rect396"
     width="112"
     height="112"
     x="8"
     y="8"
     ry="24" />
  <path
     style="opacity:0.2;stroke-width:4"
     d="m 28,33 a 8.0008,8.0008 0 0 0 -8,8 v 48 a 8.0008,8.0008 0 0 0 8,8 h 24 a 8.0008,8.0008 0 0 0 8,-8 V 69 H 44 V 81 H 36 V 49 h 8 V 61 H 60 V 41 a 8.0008,8.0008 0 0 0 -8,-8 z m 48,0 a 8.0008,8.0008 0 0 0 -8,8 v 24 a 8.0008,8.0008 0 0 0 8,8 h 16 v 8 H 84 V 77 H 68 v 12 a 8.0008,8.0008 0 0 0 8,8 h 24 a 8.0008,8.0008 0 0 0 8,-8 V 65 a 8.0008,8.0008 0 0 0 -8,-8 H 84 v -8 h 8 v 4 h 16 V 41 a 8.0008,8.0008 0 0 0 -8,-8 z"
     id="path1" />
  <path
     id="path2"
     style="color:#000000;fill:#43c3ff;stroke-width:8;stroke-linejoin:round;-inkscape-stroke:none"
     d="m 28,32 a 8.0008,8.0008 0 0 0 -8,8 v 48 a 8.0008,8.0008 0 0 0 8,8 h 24 a 8.0008,8.0008 0 0 0 8,-8 V 68 H 44 V 80 H 36 V 48 h 8 V 60 H 60 V 40 a 8.0008,8.0008 0 0 0 -8,-8 z" />
  <path
     style="color:#000000;fill:#43c3ff;stroke-width:8;stroke-linejoin:round;-inkscape-stroke:none"
     d="m 76,32 a 8.0008,8.0008 0 0 0 -8,8 v 24 a 8.0008,8.0008 0 0 0 8,8 h 16 v 8 H 84 V 76 H 68 v 12 a 8.0008,8.0008 0 0 0 8,8 h 24 a 8.0008,8.0008 0 0 0 8,-8 V 64 a 8.0008,8.0008 0 0 0 -8,-8 H 84 v -8 h 8 v 4 h 16 V 40 a 8.0008,8.0008 0 0 0 -8,-8 z"
     id="path3" />
  <path
     style="fill:#4572ab;stroke-width:4"
     d="M 48,72 V 90 H 46 V 88 L 43.281252,88.06252 42,88.976584 V 92 h -2 v -8 h -4 v 4 h -2 l -2,1.101568 V 80.070312 L 29.671876,77.414064 28,80.070312 v 15.664064 c 0.65296,0.17128 1.324962,0.26312 2,0.2656 H 52 A 8.0008,8.0008 0 0 0 60,88 v -6 l -2,-2 -2,2 v -2 h -4 v -8 z m 58,2 -2,2 v 8 10.92188 a 8.0008,8.0008 0 0 0 3.96875,-6.281256 c 0.004,-0.21904 0.0308,-0.41768 0.0312,-0.640624 V 76 Z m -86,2 v 12 c 0.0011,0.69712 0.09934,1.382496 0.27344,2.039064 a 8.0008,8.0008 0 0 0 0.02344,0.1016 c 0.18072,0.64736 0.440232,1.265776 0.77344,1.843752 0.0106,0.0184 0.02048,0.0368 0.03128,0.0544 0.34368,0.58536 0.758176,1.125984 1.242188,1.609368 0.493312,0.49264 1.058544,0.925384 1.679688,1.281256 L 24.195312,76 Z m 48,4 v 8 c 5.6e-5,0.55224 0.0576,1.088616 0.16408,1.609376 0.0972,0.47504 0.24448,0.934712 0.42184,1.375 a 8.0008,8.0008 0 0 0 0.10152,0.25 c 0.17744,0.40048 0.38704,0.78576 0.62504,1.14844 a 8.0008,8.0008 0 0 0 0.08592,0.12504 8.0008,8.0008 0 0 0 0,0.008 c 0.26696,0.38992 0.56832,0.74992 0.89844,1.085936 0.024,0.0248 0.0456,0.0536 0.0704,0.0784 0.32136,0.31872 0.67536,0.59848 1.046872,0.859376 a 8.0008,8.0008 0 0 0 0.17192,0.12504 c 0.35472,0.23528 0.7336,0.44008 1.125,0.6172 a 8.0008,8.0008 0 0 0 0.30472,0.1328 c 0.41008,0.1652 0.840824,0.29464 1.281256,0.39064 a 8.0008,8.0008 0 0 0 0.164,0.0392 c 0.499448,0.097 1.01088,0.15552 1.538992,0.15556 H 96 V 92 L 93.453128,90.328128 92,90 V 84 H 88 V 94 L 84,92 V 90 L 82.968752,88 H 80 v 4 h -4 v -8 h -4 v -4 z"
     id="path4" />
  <path
     style="fill:#4572ab;stroke-width:4"
     d="m 96,84 v 12 h 4 V 84 Z"
     id="path5" />
  <path
     id="path6"
     style="opacity:0.2;fill:#ffffff;stroke-width:4"
     d="m 28,32 c -4.418082,4.4e-4 -7.999558,3.581916 -8,8 v 1 c 4.42e-4,-4.418084 3.581918,-7.99956 8,-8 h 24 c 4.41808,4.4e-4 7.99956,3.581916 8,8 v -1 c -4.4e-4,-4.418084 -3.58192,-7.99956 -8,-8 z m 48,0 c -4.41808,4.4e-4 -7.99956,3.581916 -8,8 v 1 c 4.4e-4,-4.418084 3.58192,-7.99956 8,-8 h 24 c 4.41809,4.4e-4 7.99956,3.581916 8,8 v -1 c -4.4e-4,-4.418084 -3.58191,-7.99956 -8,-8 z m 8,24 v 1 h 16 c 4.41809,4.4e-4 7.99956,3.58192 8,8 v -1 c -4.4e-4,-4.41808 -3.58191,-7.99956 -8,-8 z M 44,68 v 1 h 16 v -1 z m 24,8 v 1 h 16 v -1 z m -32,4 v 1 h 8 v -1 z m 48,0 v 1 h 8 v -1 z" />
  <path
     id="path1040"
     style="opacity:0.2;fill:#ffffff;stroke-width:8;stroke-linecap:square"
     d="M 32,8 C 18.70404,8 8,18.70404 8,32 v 1 C 8,19.704042 18.70404,9 32,9 h 64 c 13.29596,0 24,10.704042 24,24 V 32 C 120,18.70404 109.29596,8 96,8 Z" />
</svg>
