<?xml version="1.0" encoding="UTF-8" standalone="no"?>
<!-- Created with Inkscape (http://www.inkscape.org/) -->

<svg
   width="128"
   height="128"
   viewBox="0 0 128 128"
   version="1.1"
   id="svg5"
   inkscape:version="1.3 (0e150ed6c4, 2023-07-21)"
   sodipodi:docname="civilization6.svg"
   xmlns:inkscape="http://www.inkscape.org/namespaces/inkscape"
   xmlns:sodipodi="http://sodipodi.sourceforge.net/DTD/sodipodi-0.dtd"
   xmlns="http://www.w3.org/2000/svg"
   xmlns:svg="http://www.w3.org/2000/svg">
  <sodipodi:namedview
     id="namedview7"
     pagecolor="#ffffff"
     bordercolor="#000000"
     borderopacity="0.25"
     inkscape:showpageshadow="2"
     inkscape:pageopacity="0.0"
     inkscape:pagecheckerboard="0"
     inkscape:deskcolor="#d1d1d1"
     inkscape:document-units="px"
     showgrid="false"
     inkscape:zoom="6.1171875"
     inkscape:cx="63.918263"
     inkscape:cy="64"
     inkscape:window-width="1920"
     inkscape:window-height="984"
     inkscape:window-x="0"
     inkscape:window-y="29"
     inkscape:window-maximized="1"
     inkscape:current-layer="svg5" />
  <defs
     id="defs2" />
  <rect
     style="opacity:0.2;fill:#000000;stroke-width:8;stroke-linecap:square"
     id="rect234"
     width="112"
     height="112"
     x="8"
     y="9"
     ry="24" />
  <rect
     style="fill:#f7dac2;fill-opacity:1;stroke-width:8;stroke-linecap:square"
     id="rect396"
     width="112"
     height="112"
     x="8"
     y="8"
     ry="24" />
  <path
     style="opacity:0.2;fill:#000000;stroke-width:4"
     d="m 69.98841,32.952572 a 7.9962104,7.9962104 0 0 0 -7.351248,5.08302 L 50.027214,68.299472 37.417262,38.035592 a 7.9962104,7.9962104 0 0 0 -7.499602,-5.02446 7.9962104,7.9962104 0 0 0 -7.257552,11.177176 l 19.988526,47.972468 a 7.9962104,7.9962104 0 0 0 14.757152,0 L 77.394314,44.188308 A 7.9962104,7.9962104 0 0 0 69.98841,32.952572 Z m 23.892536,0.05076 a 7.9962104,7.9962104 0 0 0 -7.874384,8.108628 v 47.972468 a 7.9962104,7.9962104 0 1 0 15.990818,0 V 41.111952 a 7.9962104,7.9962104 0 0 0 -8.116434,-8.108628 z"
     id="path1" />
  <path
     style="fill:#c0562a;stroke-width:4;stroke-linecap:round;stroke-linejoin:round;-inkscape-stroke:none"
     d="m 33.084922,32.719688 a 7.9954108,7.9954108 0 0 0 -6.125002,0.0156 7.9954108,7.9954108 0 0 0 -4.304686,10.453124 l 19.992188,47.968736 a 7.9954108,7.9954108 0 0 0 10.453124,4.304684 7.9954108,7.9954108 0 0 0 4.304688,-10.453124 L 37.420858,37.04 a 7.9954108,7.9954108 0 0 0 -4.335936,-4.320312 z"
     id="path2" />
  <path
     id="path3"
     style="opacity:0.1;fill:#ffffff;stroke-width:4"
     d="m 29.671876,32.125 a 7.9954108,7.9954108 0 0 0 -2.710938,0.609376 7.9954108,7.9954108 0 0 0 -4.734376,6.898436 7.9954108,7.9954108 0 0 1 4.734376,-5.898436 7.9954108,7.9954108 0 0 1 6.125,-0.0156 7.9954108,7.9954108 0 0 1 4.335938,4.320312 L 57.40625,86.007838 A 7.9954108,7.9954108 0 0 1 58,88.582032 7.9954108,7.9954108 0 0 0 57.40625,85.007812 L 37.421876,37.039062 A 7.9954108,7.9954108 0 0 0 33.085938,32.71875 7.9954108,7.9954108 0 0 0 31.0625,32.179688 7.9954108,7.9954108 0 0 0 29.671876,32.125 Z" />
  <path
     style="fill:#c0562a;stroke-width:4;stroke-linecap:round;stroke-linejoin:round;-inkscape-stroke:none"
     d="m 93.998982,32.000002 a 7.9954108,7.9954108 0 0 0 -7.992188,7.992188 v 47.97656 a 7.9954108,7.9954108 0 0 0 7.992188,7.992188 7.9954108,7.9954108 0 0 0 7.999998,-7.992188 V 39.99219 a 7.9954108,7.9954108 0 0 0 -7.999998,-7.992188 z"
     id="path4" />
  <path
     id="path5"
     style="fill:#ea8c46;stroke-width:4;stroke-linecap:round;stroke-linejoin:round;-inkscape-stroke:none"
     d="m 70.03023,32.118124 c -1.041064,-0.0026 -2.0811,0.19756 -3.062496,0.601564 -1.961156,0.80796 -3.5209,2.362084 -4.33594,4.320312 L 42.647422,85.008748 c -1.696816,4.075256 0.23016,8.75456 4.304688,10.453128 4.075252,1.696812 8.754552,-0.23016 10.45312,-4.304688 L 77.397418,43.188436 C 79.094234,39.113184 77.167258,34.43388 73.092734,32.735312 72.11341,32.326292 71.071298,32.120784 70.03023,32.118124 Z" />
  <path
     id="path6"
     style="opacity:0.1;fill:#ffffff;stroke-width:4"
     d="m 93.882812,32 c -4.412664,0.0668 -7.937548,3.696648 -7.875,8.109376 v 0.882812 A 7.9954108,7.9954108 0 0 1 94,33 a 7.9954108,7.9954108 0 0 1 8,7.992188 V 40.109376 C 102.06389,35.601848 98.390276,31.931768 93.882812,32 Z" />
  <path
     id="path7"
     style="opacity:0.2;fill:#ffffff;stroke-width:4;stroke-linecap:round;stroke-linejoin:round;-inkscape-stroke:none"
     d="m 70.03125,32.117188 c -1.041058,-0.0026 -2.081108,0.19756 -3.0625,0.601562 -1.961154,0.80796 -3.520898,2.36209 -4.335938,4.320312 l -19.984374,47.96875 c -0.472304,1.134342 -0.648432,2.311216 -0.589844,3.460938 0.06348,-0.82569 0.25418,-1.654772 0.589844,-2.460938 l 19.984374,-47.96875 c 0.81504,-1.958226 2.374784,-3.512352 4.335938,-4.320312 0.981396,-0.404004 2.021438,-0.604162 3.0625,-0.601562 1.041066,0.0026 2.083176,0.208168 3.0625,0.617188 2.860426,1.19244 4.65777,3.855882 4.890626,6.746092 0.15398,-3.262524 -1.701284,-6.416534 -4.890626,-7.746092 -0.979324,-0.40902 -2.021434,-0.614528 -3.0625,-0.617188 z" />
  <path
     id="path1040"
     style="opacity:0.2;fill:#ffffff;stroke-width:8;stroke-linecap:square"
     d="M 32,8 C 18.70404,8 8,18.70404 8,32 v 1 C 8,19.70404 18.70404,9 32,9 h 64 c 13.29596,0 24,10.70404 24,24 V 32 C 120,18.70404 109.29596,8 96,8 Z" />
</svg>
