<?xml version="1.0" encoding="UTF-8" standalone="no"?>
<!-- Created with Inkscape (http://www.inkscape.org/) -->

<svg
   width="128"
   height="128"
   viewBox="0 0 128 128"
   version="1.1"
   id="svg5"
   inkscape:version="1.3 (0e150ed6c4, 2023-07-21)"
   sodipodi:docname="cs-user-accounts.svg"
   xmlns:inkscape="http://www.inkscape.org/namespaces/inkscape"
   xmlns:sodipodi="http://sodipodi.sourceforge.net/DTD/sodipodi-0.dtd"
   xmlns="http://www.w3.org/2000/svg"
   xmlns:svg="http://www.w3.org/2000/svg">
  <sodipodi:namedview
     id="namedview7"
     pagecolor="#ffffff"
     bordercolor="#000000"
     borderopacity="0.25"
     inkscape:showpageshadow="2"
     inkscape:pageopacity="0.0"
     inkscape:pagecheckerboard="0"
     inkscape:deskcolor="#d1d1d1"
     inkscape:document-units="px"
     showgrid="false"
     inkscape:zoom="6.1171875"
     inkscape:cx="63.918263"
     inkscape:cy="64"
     inkscape:window-width="1920"
     inkscape:window-height="984"
     inkscape:window-x="0"
     inkscape:window-y="29"
     inkscape:window-maximized="1"
     inkscape:current-layer="svg5" />
  <defs
     id="defs2" />
  <rect
     style="opacity:0.2;fill:#000000;stroke-width:8;stroke-linecap:square"
     id="rect234"
     width="112"
     height="112"
     x="8"
     y="9"
     ry="24" />
  <rect
     style="fill:#1976d2;fill-opacity:1;stroke-width:8;stroke-linecap:square"
     id="rect396"
     width="112"
     height="112"
     x="8"
     y="8"
     ry="24" />
  <path
     d="m 48,41 c -6.6276,0 -12,5.3728 -12,12 0,6.6272 5.3724,12 12,12 6.6276,0 12,-5.3728 12,-12 0,-6.6272 -5.3724,-12 -12,-12 z m 40,0 c -4.42,0 -8,3.58 -8,8 0,4.42 3.58,8 8,8 4.42,0 8,-3.58 8,-8 0,-4.418 -3.58172,-8 -8,-8 z m 0,20 C 72.00002,60.992 72,73.80468 72,73.80468 V 77 h 32 V 73.80078 C 104,73.80078 104.00078,61.01 88,61 Z M 48,71 C 24.00002,70.988 24,87.66796 24,87.66796 V 91 H 72 V 87.66796 C 72,87.66796 72.00078,71.014 48,71 Z"
     style="opacity:0.2;fill:#000000;stroke-width:2"
     id="path632"
     sodipodi:nodetypes="sssssssssscccccccccccc" />
  <path
     id="path304"
     style="fill:#ffffff;stroke-width:2"
     d="m 48,40 c -6.6276,0 -12,5.3728 -12,12 0,6.6272 5.3724,12 12,12 6.6276,0 12,-5.3728 12,-12 0,-6.6272 -5.3724,-12 -12,-12 z m 40,0 c -4.42,0 -8,3.58 -8,8 0,4.42 3.58,8 8,8 4.42,0 8,-3.58 8,-8 0,-4.418 -3.58172,-8 -8,-8 z m 0,20 C 72.00002,59.992 72,72.80468 72,72.80468 V 76 h 32 V 72.80078 C 104,72.80078 104.00078,60.01 88,60 Z M 48,70 C 24.00002,69.988 24,86.66796 24,86.66796 V 90 H 72 V 86.66796 C 72,86.66796 72.00078,70.014 48,70 Z"
     sodipodi:nodetypes="sssssssssscccccccccccc" />
  <path
     id="path1040"
     style="opacity:0.2;fill:#ffffff;stroke-width:8;stroke-linecap:square"
     d="M 32,8 C 18.70404,8 8,18.70404 8,32 v 1 C 8,19.70404 18.704039,9 32,9 h 64 c 13.29596,0 24,10.70404 24,24 V 32 C 120,18.70404 109.29596,8 96,8 Z" />
</svg>
