<?xml version="1.0" encoding="UTF-8" standalone="no"?>
<!-- Created with Inkscape (http://www.inkscape.org/) -->

<svg
   width="128"
   height="128"
   viewBox="0 0 128 128"
   version="1.1"
   id="svg5"
   inkscape:version="1.2.2 (1:1.2.2+202305151914+b0a8486541)"
   sodipodi:docname="cups.svg"
   xmlns:inkscape="http://www.inkscape.org/namespaces/inkscape"
   xmlns:sodipodi="http://sodipodi.sourceforge.net/DTD/sodipodi-0.dtd"
   xmlns="http://www.w3.org/2000/svg"
   xmlns:svg="http://www.w3.org/2000/svg">
  <sodipodi:namedview
     id="namedview7"
     pagecolor="#ffffff"
     bordercolor="#000000"
     borderopacity="0.25"
     inkscape:showpageshadow="2"
     inkscape:pageopacity="0.0"
     inkscape:pagecheckerboard="0"
     inkscape:deskcolor="#d1d1d1"
     inkscape:document-units="px"
     showgrid="false"
     inkscape:zoom="6.296875"
     inkscape:cx="63.920596"
     inkscape:cy="64"
     inkscape:window-width="1920"
     inkscape:window-height="1008"
     inkscape:window-x="0"
     inkscape:window-y="0"
     inkscape:window-maximized="1"
     inkscape:current-layer="svg5" />
  <defs
     id="defs2" />
  <rect
     style="opacity:0.2;fill:#000000;stroke-width:8;stroke-linecap:square"
     id="rect234"
     width="112"
     height="112"
     x="8"
     y="9"
     ry="24" />
  <rect
     style="fill:#c5c5c5;fill-opacity:1;stroke-width:8;stroke-linecap:square"
     id="rect396"
     width="112"
     height="112"
     x="8"
     y="8"
     ry="24" />
  <path
     d="m 35.999996,24 c -2.216,0 -4,1.784 -4,4 V 52 H 95.999995 V 28 c 0,-2.216 -1.784,-4 -4,-4 z"
     style="fill:#e4e4e4;stroke-width:2"
     id="path1275" />
  <path
     id="path1303"
     style="opacity:0.2;fill:#ffffff;stroke-width:2"
     d="m 35.999996,24 c -2.215998,0 -4,1.784002 -4,4 v 1 c 0,-2.215998 1.784002,-4 4,-4 h 55.999999 c 2.216,0 4,1.784002 4,4 v -1 c 0,-2.215998 -1.784,-4 -4,-4 z" />
  <rect
     style="opacity:0.2;fill:#000000;stroke-width:4;stroke-linecap:square"
     id="rect456"
     width="80"
     height="34"
     x="24"
     y="47"
     ry="4" />
  <rect
     style="fill:#4f4f4f;fill-opacity:1;stroke-width:4;stroke-linecap:square"
     id="rect458"
     width="80"
     height="34"
     x="24"
     y="46.000069"
     ry="4" />
  <rect
     style="opacity:0.2;fill:#000000;fill-opacity:1;stroke-width:4;stroke-linecap:square"
     id="rect953"
     width="72"
     height="8"
     x="28"
     y="66" />
  <rect
     style="opacity:0.2;fill:#000000;fill-opacity:1;stroke-width:4;stroke-linecap:square"
     id="rect982"
     width="8"
     height="8"
     x="28"
     y="51"
     ry="3" />
  <rect
     style="fill:#76ff03;fill-opacity:1;stroke-width:4;stroke-linecap:square"
     id="rect984"
     width="8"
     height="8"
     x="28"
     y="50.000008"
     ry="3" />
  <path
     id="rect1176"
     style="opacity:0.2;fill:#ffffff;fill-opacity:1;stroke-width:4;stroke-linecap:square"
     d="m 30.999996,50 c -1.661998,0 -3,1.338002 -3,3 v 1 c 0,-1.661998 1.338002,-3 3,-3 h 2 c 1.661998,0 3,1.338002 3,3 v -1 c 0,-1.661998 -1.338002,-3 -3,-3 z" />
  <path
     id="path1247"
     style="opacity:0.1;fill:#ffffff;stroke-width:2"
     d="m 27.999996,46.007812 c -2.215998,0 -4,1.784002 -4,4 V 51 c 0,-2.215998 1.784002,-4 4,-4 H 99.999995 C 102.216,47 104,48.784002 104,51 v -0.992188 c 0,-2.215998 -1.784,-4 -4.000005,-4 z" />
  <path
     d="m 31.999996,70.999938 v 30.000002 c 0,2.216 1.784,4 4,4 h 55.999999 c 2.216,0 4,-1.784 4,-4 V 70.999938 Z"
     style="opacity:0.2;fill:#000000;stroke-width:2"
     id="path1440" />
  <path
     d="m 31.999996,70 v 30 c 0,2.216 1.784,4 4,4 h 55.999999 c 2.216,0 4,-1.784 4,-4 V 70 Z"
     style="fill:#e4e4e4;stroke-width:2"
     id="path1331" />
  <path
     id="path1412"
     style="opacity:0.5;fill:#000000;stroke-width:2"
     d="m 40.000036,76 v 4 h 43.999959 v -4 z m 0,8 v 4 h 34 v -4 z m 0,8 v 4 h 43.999959 v -4 z" />
  <path
     id="path1040"
     style="opacity:0.2;fill:#ffffff;stroke-width:8;stroke-linecap:square"
     d="M 32,8 C 18.704026,8 8,18.704027 8,32 v 1 C 8,19.704013 18.704013,9 32,9 h 64 c 13.29599,0 24,10.704013 24,24 V 32 C 120,18.704027 109.29597,8 96,8 Z" />
</svg>
