<?xml version="1.0" encoding="UTF-8" standalone="no"?>
<!-- Created with Inkscape (http://www.inkscape.org/) -->

<svg
   width="128"
   height="128"
   viewBox="0 0 128 128"
   version="1.1"
   id="svg5"
   inkscape:version="1.3 (0e150ed6c4, 2023-07-21)"
   sodipodi:docname="draw.io.svg"
   xmlns:inkscape="http://www.inkscape.org/namespaces/inkscape"
   xmlns:sodipodi="http://sodipodi.sourceforge.net/DTD/sodipodi-0.dtd"
   xmlns="http://www.w3.org/2000/svg"
   xmlns:svg="http://www.w3.org/2000/svg">
  <sodipodi:namedview
     id="namedview7"
     pagecolor="#ffffff"
     bordercolor="#000000"
     borderopacity="0.25"
     inkscape:showpageshadow="2"
     inkscape:pageopacity="0.0"
     inkscape:pagecheckerboard="0"
     inkscape:deskcolor="#d1d1d1"
     inkscape:document-units="px"
     showgrid="false"
     inkscape:zoom="6.25"
     inkscape:cx="63.92"
     inkscape:cy="64"
     inkscape:window-width="1920"
     inkscape:window-height="1004"
     inkscape:window-x="0"
     inkscape:window-y="0"
     inkscape:window-maximized="1"
     inkscape:current-layer="svg5" />
  <defs
     id="defs2" />
  <rect
     style="opacity:0.2;fill:#000000;stroke-width:8;stroke-linecap:square"
     id="rect234"
     width="112"
     height="112"
     x="8"
     y="9"
     ry="24" />
  <rect
     style="fill:#f58800;fill-opacity:1;stroke-width:8;stroke-linecap:square"
     id="rect396"
     width="112"
     height="112"
     x="8"
     y="8"
     ry="24" />
  <path
     style="fill:#3f3f3f;stroke-width:4;-inkscape-stroke:none"
     d="m 64,35.484376 -27.8125,49.445312 5.226564,2.9375 L 64,47.718752 86.585936,87.867188 91.8125,84.929688 Z"
     id="path2" />
  <path
     style="opacity:0.2;fill:#000000;stroke-width:4"
     d="M 53.335936,29 C 50.381272,29 48,31.499164 48,34.601564 V 51.398436 C 48,54.500836 50.381272,57 53.335936,57 H 74.664064 C 77.618728,57 80,54.500836 80,51.398436 V 34.601564 C 80,31.499164 77.618728,29 74.664064,29 Z M 29.335938,73 C 26.381272,73 24,75.499164 24,78.601564 V 95.398436 C 24,98.500836 26.381272,101 29.335938,101 H 50.664064 C 53.618728,101 56,98.500836 56,95.398436 V 78.601564 C 56,75.499164 53.618728,73 50.664064,73 Z m 47.999998,0 C 74.381272,73 72,75.499164 72,78.601564 V 95.398436 C 72,98.500836 74.381272,101 77.335936,101 H 98.664064 C 101.61873,101 104,98.500836 104,95.398436 V 78.601564 C 104,75.499164 101.61873,73 98.664064,73 Z"
     id="path3" />
  <path
     style="fill:#ffffff;stroke-width:4"
     d="M 53.335936,28 C 50.381272,28 48,30.499162 48,33.601564 V 50.398436 C 48,53.500836 50.381272,56 53.335936,56 H 74.664064 C 77.618728,56 80,53.500836 80,50.398436 V 33.601564 C 80,30.499162 77.618728,28 74.664064,28 Z M 29.335938,72 C 26.381272,72 24,74.499164 24,77.601564 V 94.398436 C 24,97.500836 26.381272,100 29.335938,100 H 50.664064 C 53.618728,100 56,97.500836 56,94.398436 V 77.601564 C 56,74.499164 53.618728,72 50.664064,72 Z m 47.999998,0 C 74.381272,72 72,74.499164 72,77.601564 V 94.398436 C 72,97.500836 74.381272,100 77.335936,100 H 98.664064 C 101.61873,100 104,97.500836 104,94.398436 V 77.601564 C 104,74.499164 101.61873,72 98.664064,72 Z"
     id="path4" />
  <path
     id="path1040"
     style="opacity:0.2;fill:#ffffff;stroke-width:8;stroke-linecap:square"
     d="M 32,8 C 18.70404,8 8,18.70404 8,32 v 1 C 8,19.704042 18.70404,9 32,9 h 64 c 13.29596,0 24,10.704042 24,24 V 32 C 120,18.70404 109.29596,8 96,8 Z" />
</svg>
