<?xml version="1.0" encoding="UTF-8" standalone="no"?>
<!-- Created with Inkscape (http://www.inkscape.org/) -->

<svg
   width="128"
   height="128"
   viewBox="0 0 128 128"
   version="1.1"
   id="svg5"
   inkscape:version="1.3 (1:1.3+202307231459+0e150ed6c4)"
   sodipodi:docname="filezilla.svg"
   xmlns:inkscape="http://www.inkscape.org/namespaces/inkscape"
   xmlns:sodipodi="http://sodipodi.sourceforge.net/DTD/sodipodi-0.dtd"
   xmlns="http://www.w3.org/2000/svg"
   xmlns:svg="http://www.w3.org/2000/svg">
  <sodipodi:namedview
     id="namedview7"
     pagecolor="#ffffff"
     bordercolor="#000000"
     borderopacity="0.25"
     inkscape:showpageshadow="2"
     inkscape:pageopacity="0.0"
     inkscape:pagecheckerboard="0"
     inkscape:deskcolor="#d1d1d1"
     inkscape:document-units="px"
     showgrid="false"
     inkscape:zoom="5.609375"
     inkscape:cx="64"
     inkscape:cy="63.910864"
     inkscape:window-width="1920"
     inkscape:window-height="1008"
     inkscape:window-x="0"
     inkscape:window-y="0"
     inkscape:window-maximized="1"
     inkscape:current-layer="svg5" />
  <defs
     id="defs2" />
  <rect
     style="opacity:0.2;fill:#000000;stroke-width:8;stroke-linecap:square"
     id="rect234"
     width="112"
     height="112"
     x="8"
     y="9"
     ry="24" />
  <rect
     style="fill:#b71c1c;fill-opacity:1;stroke-width:8;stroke-linecap:square"
     id="rect396"
     width="112"
     height="112"
     x="8"
     y="8"
     ry="24" />
  <path
     d="M 42.592,29 28,93.736 h 11.8576 l 6.888,-28.9704 h 32.368 L 48.8012,91.9 l 7.904,9.1 4.048,-2.084 c 7.65396,-3.93544 10.86436,-1.63432 16.67156,-0.0232 5.6496,1.56784 10.9604,3.24584 21.9796,-3.10568 l -2.18824,-11.2104 c -12.0256,8.5504 -15.83,0.92176 -24.3948,0.61892 l 24.5208,-20.7484 2.66068,-11.076 h -51.364 l 3.3064,-13.2932 h 33.666 l 2.30876,-11.076 h -45.324 z"
     style="opacity:0.2;fill:#000000;stroke-width:4"
     id="path3289" />
  <path
     d="M 42.592,28 28,92.736 h 11.8576 l 6.888,-28.9704 h 32.368 L 48.8012,90.9 l 7.904,9.1 4.048,-2.084 c 7.65396,-3.93544 10.86436,-1.63432 16.67156,-0.0232 5.6496,1.56784 10.9604,3.24584 21.9796,-3.10568 l -2.18824,-11.2104 c -12.0256,8.5504 -15.83,0.92176 -24.3948,0.61892 l 24.5208,-20.7484 2.66068,-11.076 h -51.364 l 3.3064,-13.2932 h 33.666 l 2.30876,-11.076 h -45.324 z"
     style="fill:#ffffff;stroke-width:4"
     id="path3261"
     sodipodi:nodetypes="cccccccccccccccccccc" />
  <path
     id="path1040"
     style="opacity:0.2;fill:#ffffff;stroke-width:8;stroke-linecap:square"
     d="M 32,8 C 18.704026,8 8,18.704028 8,32 v 1 C 8,19.704028 18.704026,9 32,9 h 64 c 13.29597,0 24,10.704028 24,24 V 32 C 120,18.704028 109.29597,8 96,8 Z"
     sodipodi:nodetypes="sscsscsss" />
</svg>
