<?xml version="1.0" encoding="UTF-8" standalone="no"?>
<!-- Created with Inkscape (http://www.inkscape.org/) -->

<svg
   width="128"
   height="128"
   viewBox="0 0 128 128"
   version="1.1"
   id="svg5"
   inkscape:version="1.3.2 (091e20ef0f, 2023-11-25, custom)"
   sodipodi:docname="flash.svg"
   xmlns:inkscape="http://www.inkscape.org/namespaces/inkscape"
   xmlns:sodipodi="http://sodipodi.sourceforge.net/DTD/sodipodi-0.dtd"
   xmlns="http://www.w3.org/2000/svg"
   xmlns:svg="http://www.w3.org/2000/svg">
  <sodipodi:namedview
     id="namedview7"
     pagecolor="#ffffff"
     bordercolor="#000000"
     borderopacity="0.25"
     inkscape:showpageshadow="2"
     inkscape:pageopacity="0.0"
     inkscape:pagecheckerboard="0"
     inkscape:deskcolor="#d1d1d1"
     inkscape:document-units="px"
     showgrid="false"
     inkscape:zoom="6.2109375"
     inkscape:cx="63.919497"
     inkscape:cy="64"
     inkscape:window-width="1920"
     inkscape:window-height="1008"
     inkscape:window-x="0"
     inkscape:window-y="0"
     inkscape:window-maximized="1"
     inkscape:current-layer="svg5" />
  <defs
     id="defs2" />
  <rect
     style="opacity:0.2;fill:#000000;stroke-width:8;stroke-linecap:square"
     id="rect234"
     width="112"
     height="112"
     x="8"
     y="9"
     ry="24" />
  <rect
     style="fill:#c2352a;fill-opacity:1;stroke-width:8;stroke-linecap:square"
     id="rect396"
     width="112"
     height="112"
     x="8"
     y="8"
     ry="24" />
  <path
     opacity="0.2"
     d="m 96.0012,25.026332 v 16.0936 c -16.068,0.28256 -20.0168,15.9524 -20.0168,15.9524 h 12.1192 v 16.0936 H 69.312 C 58.008,108.03793 32,104.92993 32,104.92993 V 88.836332 c 0,0 16.504,3.0616 24.9192,-27.6696 10.524,-38.4436 39.08,-36.1416 39.08,-36.1416 z"
     id="path3"
     style="fill:#000000;stroke-width:4" />
  <path
     fill="#ffffff"
     d="m 96.0012,24.027532 v 16.0936 c -16.068,0.28256 -20.0168,15.9524 -20.0168,15.9524 h 12.1192 v 16.0936 H 69.312 C 58.008,107.03913 32,103.93113 32,103.93113 V 87.837532 c 0,0 16.504,3.0616 24.9192,-27.6696 10.524,-38.4436 39.08,-36.1416 39.08,-36.1416 z"
     id="path4"
     style="stroke-width:4" />
  <path
     id="path1040"
     style="opacity:0.2;fill:#ffffff;stroke-width:8;stroke-linecap:square"
     d="M 32,8 C 18.70404,8 8,18.70404 8,32 v 1 C 8,19.704042 18.70404,9 32,9 h 64 c 13.29596,0 24,10.704042 24,24 V 32 C 120,18.70404 109.29596,8 96,8 Z" />
</svg>
