<?xml version="1.0" encoding="UTF-8" standalone="no"?>
<!-- Created with Inkscape (http://www.inkscape.org/) -->

<svg
   width="128"
   height="128"
   viewBox="0 0 128 128"
   version="1.1"
   id="svg5"
   inkscape:version="1.3 (0e150ed6c4, 2023-07-21)"
   sodipodi:docname="gufw.svg"
   xmlns:inkscape="http://www.inkscape.org/namespaces/inkscape"
   xmlns:sodipodi="http://sodipodi.sourceforge.net/DTD/sodipodi-0.dtd"
   xmlns="http://www.w3.org/2000/svg"
   xmlns:svg="http://www.w3.org/2000/svg">
  <sodipodi:namedview
     id="namedview7"
     pagecolor="#ffffff"
     bordercolor="#000000"
     borderopacity="0.25"
     inkscape:showpageshadow="2"
     inkscape:pageopacity="0.0"
     inkscape:pagecheckerboard="0"
     inkscape:deskcolor="#d1d1d1"
     inkscape:document-units="px"
     showgrid="false"
     inkscape:zoom="6.1171875"
     inkscape:cx="63.918263"
     inkscape:cy="64"
     inkscape:window-width="1920"
     inkscape:window-height="984"
     inkscape:window-x="0"
     inkscape:window-y="29"
     inkscape:window-maximized="1"
     inkscape:current-layer="svg5" />
  <defs
     id="defs2" />
  <rect
     style="opacity:0.2;fill:#000000;stroke-width:8;stroke-linecap:square"
     id="rect234"
     width="112"
     height="112"
     x="8"
     y="9"
     ry="24" />
  <rect
     style="fill:#afb7e3;fill-opacity:1;stroke-width:8;stroke-linecap:square"
     id="rect396"
     width="112"
     height="112"
     x="8"
     y="8"
     ry="24" />
  <path
     style="opacity:0.2;fill:#000000;stroke-width:2"
     d="m 36.65625,25 c -1.508338,4.9e-4 -2.795818,1.11344 -3.035156,2.625 -2.792588,17.627422 -1.73659,31.506038 1.335938,42.335938 0.04578,0.16132 0.1013,0.289634 0.14844,0.445312 1.722462,5.913968 4.034774,10.926898 6.660154,15.113282 1.389626,2.215864 2.856864,4.201062 4.35547,5.980468 0.0018,0.0022 0.002,0.0056 0.004,0.0078 6.54854,7.772592 13.667086,11.58237 17.226562,13.21484 0.74239,0.34044 1.589384,0.37005 2.351562,0.0781 5.86534,-2.24798 14.53071,-8.667544 21.214844,-21.019528 5.4066,-9.991254 9.35956,-23.820814 9.066408,-42.21875 -0.0011,-0.0719 -0.009,-0.13996 -0.0118,-0.210938 -0.07518,-4.288212 -0.37399,-8.81273 -0.945326,-13.60545 A 3.0725258,3.1186004 0 0 0 91.980468,25 H 79.6875 79.476562 Z"
     id="path1" />
  <path
     style="fill:#3f51b5;stroke-width:2"
     d="m 36.65438,24 c -1.508338,4.9e-4 -2.793278,1.11219 -3.032616,2.62375 -2.792588,17.627422 -1.738616,31.50822 1.333912,42.33812 1.735402,6.11686 4.472998,8.088478 7.166914,12.384146 1.389846,2.216216 2.500674,7.375408 3.999534,9.155032 6.550064,7.777012 13.668874,11.589432 17.229352,13.222372 0.74239,0.34043 1.58759,0.36768 2.34977,0.0758 5.86534,-2.24799 14.533378,-8.66722 21.217512,-21.019204 5.4066,-9.991254 9.359098,-23.82102 9.065944,-42.218956 -0.06928,-4.347214 -3.205706,-6.983018 -3.78589,-11.84996 -0.18648,-1.565856 0.763166,-2.842784 -0.790788,-2.843248 l -11.721162,-1.86761 z"
     id="path2" />
  <path
     id="path3"
     style="opacity:0.1;fill:#ffffff;stroke-width:2"
     d="m 36.65625,24 c -1.508336,4.9e-4 -2.795818,1.113442 -3.035156,2.625 -1.110804,7.01163 -1.59768,13.416122 -1.60547,19.285156 0.06142,-5.592844 0.56997,-11.67488 1.617188,-18.285156 0.239338,-1.511558 1.52682,-2.62451 3.035156,-2.625 h 42.820314 0.210936 6.265626 L 79.6875,24 Z m -4.640626,21.910156 c -3.9e-4,0.294948 -0.006,0.5945 -0.004,0.88672 0.001,-0.08496 0.0026,-0.17262 0.004,-0.257814 0.0011,-0.211154 -0.0024,-0.416338 0,-0.628906 z M 95.9375,39.789062 c 0.0156,0.520372 0.03788,1.04896 0.04688,1.5625 -0.0024,-0.265412 0.0042,-0.521398 0,-0.789062 -0.0042,-0.263326 -0.02146,-0.521736 -0.04688,-0.773438 z" />
  <path
     id="path4"
     style="opacity:0.2;fill:#000000;stroke-width:2"
     d="m 79.476562,25 -44.30078,44.300782 c 0.0118,0.0346 0.024,0.0686 0.03516,0.10546 1.72246,5.913962 4.034778,10.926902 6.660156,15.113282 1.389624,2.215862 2.856864,4.201064 4.355468,5.980468 0.0018,0.0022 0.0019,0.0056 0.004,0.0078 0.13862,0.16454 0.278874,0.315562 0.41797,0.476564 L 95.980468,41.652344 c -0.016,-1.05291 -0.04592,-2.120822 -0.08984,-3.203126 -0.51767,-3.714782 -3.162544,-6.30187 -3.691406,-10.73828 -0.15206,-1.276864 0.427186,-2.34597 -0.1875,-2.703126 -0.0104,-0.0026 -0.0208,-0.0052 -0.03126,-0.0078 z" />
  <path
     style="fill:#ffffff;stroke-width:2"
     d="M 79.476562,24 34.867188,68.609376 c 1.743168,6.267662 4.154378,11.534532 6.898436,15.910156 1.3913,2.218534 2.858886,4.20723 4.359376,5.98828 L 95.980468,40.652344 c -0.0662,-4.37601 -0.368582,-9.002748 -0.953124,-13.90625 A 3.0725258,3.1186004 0 0 0 91.980468,24 Z"
     id="path5" />
  <path
     id="path1040"
     style="opacity:0.2;fill:#ffffff;stroke-width:8;stroke-linecap:square"
     d="M 32,8 C 18.70404,8 8,18.70404 8,32 v 1 C 8,19.704042 18.70404,9 32,9 h 64 c 13.29596,0 24,10.704042 24,24 V 32 C 120,18.70404 109.29596,8 96,8 Z" />
</svg>
