<?xml version="1.0" encoding="UTF-8" standalone="no"?>
<!-- Created with Inkscape (http://www.inkscape.org/) -->

<svg
   width="128"
   height="128"
   viewBox="0 0 128 128"
   version="1.1"
   id="svg5"
   inkscape:version="1.2.2 (1:1.2.2+202305151914+b0a8486541)"
   sodipodi:docname="heroic.svg"
   xmlns:inkscape="http://www.inkscape.org/namespaces/inkscape"
   xmlns:sodipodi="http://sodipodi.sourceforge.net/DTD/sodipodi-0.dtd"
   xmlns="http://www.w3.org/2000/svg"
   xmlns:svg="http://www.w3.org/2000/svg">
  <sodipodi:namedview
     id="namedview7"
     pagecolor="#ffffff"
     bordercolor="#000000"
     borderopacity="0.25"
     inkscape:showpageshadow="2"
     inkscape:pageopacity="0.0"
     inkscape:pagecheckerboard="0"
     inkscape:deskcolor="#d1d1d1"
     inkscape:document-units="px"
     showgrid="false"
     inkscape:zoom="6.296875"
     inkscape:cx="63.920596"
     inkscape:cy="64"
     inkscape:window-width="1920"
     inkscape:window-height="1008"
     inkscape:window-x="0"
     inkscape:window-y="0"
     inkscape:window-maximized="1"
     inkscape:current-layer="svg5" />
  <defs
     id="defs2" />
  <rect
     style="opacity:0.2;fill:#000000;stroke-width:8;stroke-linecap:square"
     id="rect234"
     width="112"
     height="112"
     x="8"
     y="9"
     ry="24" />
  <rect
     style="fill:#4d4d4d;fill-opacity:1;stroke-width:8;stroke-linecap:square"
     id="rect396"
     width="112"
     height="112"
     x="8"
     y="8"
     ry="24" />
  <path
     d="M 69.82,26.4284 C 68.364,25.8484 65.452,25 64,25 c -1.452,0 -4.364,0.8484 -5.82,1.4284 l -23.270792,8.571597 c -1.669599,0.658799 -2.909199,1.537199 -2.909199,2.857199 0,1.428399 0.3344,2.132399 0.7268,3.571198 l 13.818795,47.855584 c 0,0 0.588,1.66 1.454401,2.859999 0.793599,1.096 2.909198,2.855999 2.909198,2.855999 l 10.182798,8.571994 c 0,0 1.824,1.428 2.908,1.428 1.084,0 2.908,-1.428 2.908,-1.428 l 10.18399,-8.571994 c 0,0 2.084,-1.783999 2.908,-2.855999 0.86,-1.119999 1.456,-2.859999 1.456,-2.859999 L 95.27199,41.428394 c 0.460001,-1.414399 0.728001,-2.142799 0.728001,-3.571198 0,-1.2632 -0.932,-2.1616 -2.908,-2.857199 z"
     style="opacity:0.2;fill:#000000;stroke-width:4"
     id="path573" />
  <path
     d="M 69.82,25.4284 C 68.364,24.8484 65.452,24 64,24 c -1.452,0 -4.364,0.8484 -5.82,1.4284 l -23.270792,8.571596 c -1.669599,0.6588 -2.909199,1.5372 -2.909199,2.857199 0,1.4284 0.3344,2.132399 0.7268,3.571199 l 13.818795,47.855584 c 0,0 0.588,1.659999 1.454401,2.859999 0.793599,1.096 2.909198,2.855999 2.909198,2.855999 l 10.182798,8.571994 c 0,0 1.824,1.428 2.908,1.428 1.084,0 2.908,-1.428 2.908,-1.428 l 10.18399,-8.571994 c 0,0 2.084,-1.783999 2.908,-2.855999 0.86,-1.12 1.456,-2.859999 1.456,-2.859999 L 95.27199,40.428394 c 0.460001,-1.4144 0.728001,-2.142799 0.728001,-3.571199 0,-1.263199 -0.932,-2.161599 -2.908,-2.857199 z"
     style="fill:#50beee;stroke-width:4"
     id="path461" />
  <path
     d="m 64,35 -6,9.999996 4,35.999988 2,1.999999 2,-1.999999 4,-35.999988 z m -9.999999,46.999984 -1.999999,2.999999 1.999999,2.999999 5.999999,-1 2,-1.999999 -2,-2 z m 19.999989,0 L 68,82.999983 l -2,2 2,1.999999 5.99999,1 2,-2.999999 z M 64,86.999982 l -2,1.999999 -1,5.999998 3,1.999999 3,-1.999999 -1,-5.999998 z"
     style="opacity:0.2;fill:#000000;stroke-width:4"
     id="path405" />
  <path
     d="m 64,34 -6,9.999997 4,35.999988 2,1.999999 2,-1.999999 4,-35.999988 z m -9.999999,46.999984 -1.999999,2.999999 1.999999,2.999999 L 60,85.999983 l 2,-2 -2,-1.999999 z m 19.999989,0 -5.99999,1 -2,1.999999 2,2 5.99999,0.999999 2,-2.999999 z M 64,85.999983 l -2,1.999999 -1,5.999998 3,1.999999 3,-1.999999 -1,-5.999998 z"
     style="fill:#4f4f4f;stroke-width:4"
     id="path433"
     sodipodi:nodetypes="cccccccccccccccccccccccccccc" />
  <path
     id="path781"
     style="opacity:0.1;fill:#ffffff;stroke-width:4"
     d="M 64 34 L 58 44 L 58.09375 44.84375 L 64 35 L 69.90625 44.84375 L 70 44 L 64 34 z M 54 81 L 52 84 L 52.332031 84.501953 L 54 82 L 60 83 L 61.5 84.5 L 62 84 L 60 82 L 54 81 z M 74 81 L 68 82 L 66 84 L 66.5 84.5 L 68 83 L 74 82 L 75.667969 84.501953 L 76 84 L 74 81 z M 64 86 L 62 88 L 61 94 L 61.150391 94.099609 L 62 89 L 64 87 L 66 89 L 66.849609 94.099609 L 67 94 L 66 88 L 64 86 z " />
  <path
     id="path517"
     style="opacity:0.2;fill:#ffffff;stroke-width:4"
     d="M 64 24 C 62.548001 24 59.635688 24.849688 58.179688 25.429688 L 34.90625 34 C 33.236653 34.658799 32 35.539377 32 36.859375 C 32 37.114082 32.012987 37.347153 32.035156 37.568359 C 32.205238 36.409828 33.367702 35.608629 34.910156 35 L 58.179688 26.427734 C 59.635686 25.847736 62.548001 25 64 25 C 65.451999 25 68.364314 25.847736 69.820312 26.427734 L 93.091797 35 C 94.903096 35.63762 95.827575 36.449535 95.970703 37.552734 C 95.989096 37.338304 96 37.111137 96 36.859375 C 96 35.596177 95.069728 34.695599 93.09375 34 L 69.820312 25.429688 C 68.364314 24.849688 65.451999 24 64 24 z " />
  <path
     id="path1040"
     style="opacity:0.1;fill:#ffffff;stroke-width:8;stroke-linecap:square"
     d="M 32,8 C 18.704026,8 8,18.704027 8,32 v 1 C 8,19.704013 18.704013,9 32,9 h 64 c 13.29599,0 24,10.704013 24,24 V 32 C 120,18.704027 109.29597,8 96,8 Z" />
</svg>
