<?xml version="1.0" encoding="UTF-8" standalone="no"?>
<!-- Created with Inkscape (http://www.inkscape.org/) -->

<svg
   width="128"
   height="128"
   viewBox="0 0 128 128"
   version="1.1"
   id="svg5"
   inkscape:version="1.3.2 (091e20ef0f, 2023-11-25, custom)"
   sodipodi:docname="hexchat.svg"
   xmlns:inkscape="http://www.inkscape.org/namespaces/inkscape"
   xmlns:sodipodi="http://sodipodi.sourceforge.net/DTD/sodipodi-0.dtd"
   xmlns="http://www.w3.org/2000/svg"
   xmlns:svg="http://www.w3.org/2000/svg">
  <sodipodi:namedview
     id="namedview7"
     pagecolor="#ffffff"
     bordercolor="#000000"
     borderopacity="0.25"
     inkscape:showpageshadow="2"
     inkscape:pageopacity="0.0"
     inkscape:pagecheckerboard="0"
     inkscape:deskcolor="#d1d1d1"
     inkscape:document-units="px"
     showgrid="false"
     inkscape:zoom="6.2109375"
     inkscape:cx="63.919497"
     inkscape:cy="64"
     inkscape:window-width="1920"
     inkscape:window-height="1008"
     inkscape:window-x="0"
     inkscape:window-y="0"
     inkscape:window-maximized="1"
     inkscape:current-layer="svg5" />
  <defs
     id="defs2" />
  <rect
     style="opacity:0.2;fill:#000000;stroke-width:8;stroke-linecap:square"
     id="rect234"
     width="112"
     height="112"
     x="8"
     y="9"
     ry="24" />
  <rect
     style="fill:#4d4d4d;fill-opacity:1;stroke-width:8;stroke-linecap:square"
     id="rect396"
     width="112"
     height="112"
     x="8"
     y="8"
     ry="24" />
  <path
     d="m 63.62292,29.012932 c -9.133272,0.092 -18.256624,0.663196 -19.978464,1.676236 -3.443596,2.02696 -19.6847,30.705012 -19.6443,34.689092 0.04,3.984076 16.871504,32.338208 20.35558,34.295328 3.483996,1.957122 36.556288,1.672482 39.999884,-0.3544 3.443596,-2.026876 19.68478,-30.705012 19.6443,-34.689088 -0.04,-3.984076 -16.871504,-32.377572 -20.3555,-34.334692 -1.742076,-0.978556 -10.888308,-1.374476 -20.0215,-1.282476 z m 2.618476,8.628712 c 5.820556,0.024 11.099512,0.3616 12.225188,1.012476 0.08,0.048 0.1808,0.168 0.2744,0.2472 l -14.191748,16.773588 -0.624796,0.7088 -0.5928,-0.7088 L 48.552612,39.27252 c 0.1368,-0.132 0.2816,-0.2624 0.388,-0.3264 1.2716,-0.769596 8.039512,-1.223836 14.784468,-1.293756 0.843116,-0.008 1.684636,-0.016 2.516156,-0.008 z M 86.44074,50.264032 c 3.627596,6.209596 7.069352,12.858468 7.085112,14.444868 0.016,1.718876 -3.862076,9.446472 -7.672392,16.115504 l -13.949348,-13.196148 -0.6736,-0.6296 0.6304,-0.624 z m -44.99988,0.048 13.631428,16.064864 0.559996,0.6248 -0.592796,0.5848 -12.936392,13.196068 C 38.2703,74.300252 34.490304,66.971936 34.473748,65.29714 c -0.016,-1.62008 3.391592,-8.593196 6.966632,-14.984868 z m 22.48374,23.68662 0.549596,0.5848 15.522628,15.446144 c -0.4,0.4864 -0.736,0.84768 -0.98064,0.9956 -2.543116,1.53968 -26.952776,1.863516 -29.525732,0.3768 -0.2872,-0.1656 -0.7544,-0.6368 -1.25544,-1.24872 L 63.33196,74.583372 Z"
     style="opacity:0.2;fill:#000000;stroke-width:2.81862"
     id="path1525" />
  <path
     d="m 63.62292,28.012932 c -9.133272,0.092 -18.256624,0.663196 -19.978464,1.676236 -3.443596,2.02696 -19.6847,30.705012 -19.6443,34.689088 0.04,3.98408 16.871504,32.338212 20.35558,34.295332 3.483996,1.957112 36.556288,1.672472 39.999884,-0.3544 3.443596,-2.02688 19.68478,-30.705012 19.6443,-34.689088 -0.04,-3.984076 -16.871504,-32.377572 -20.3555,-34.334692 -1.742076,-0.97856 -10.888308,-1.374478 -20.0215,-1.282476 z m 2.618476,8.628712 c 5.820556,0.024 11.099512,0.3616 12.225188,1.012476 0.08,0.048 0.1808,0.168 0.2744,0.2472 L 64.549236,54.674908 63.92444,55.383704 63.33164,54.674908 48.552612,38.27252 c 0.1368,-0.132 0.2816,-0.2624 0.388,-0.3264 1.2716,-0.7696 8.039512,-1.223836 14.784468,-1.293756 0.843116,-0.008 1.684636,-0.016 2.516156,-0.008 z M 86.44074,49.264032 c 3.627596,6.209592 7.069352,12.858468 7.085112,14.444868 0.016,1.718876 -3.862076,9.446472 -7.672392,16.115504 l -13.949348,-13.196148 -0.6736,-0.6296 0.6304,-0.624 z m -44.99988,0.048 13.631428,16.064864 0.559996,0.6248 -0.592796,0.5848 -12.936392,13.196068 C 38.2703,73.300248 34.490304,65.971936 34.473748,64.297136 34.457748,62.67706 37.86534,55.703944 41.44038,49.312272 Z m 22.48374,23.68662 0.549596,0.584796 15.522628,15.446148 c -0.4,0.4864 -0.736,0.84768 -0.98064,0.9956 -2.543116,1.539676 -26.952776,1.863516 -29.525732,0.3768 -0.2872,-0.1656 -0.7544,-0.6368 -1.25544,-1.24872 L 63.33196,73.583368 Z"
     style="fill:#ff7814;fill-opacity:1;stroke-width:2.81862"
     id="path350"
     sodipodi:nodetypes="scsssssscccccccccccccccccccccccsscccccsccc" />
  <path
     id="path2404"
     style="opacity:0.2;fill:#ffffff;fill-opacity:1;stroke-width:2.81862"
     d="m 67.039062,28.003906 c -1.12741,-0.004 -2.272416,-0.0036 -3.414062,0.0078 -9.133158,0.092 -18.262536,0.65916 -19.984376,1.671876 C 40.197044,31.71057 23.9596,60.387034 24,64.371094 c 0.0012,0.12058 0.02582,0.278054 0.0664,0.453124 1.087014,-5.534136 16.262436,-32.185046 19.578126,-34.136718 1.721838,-1.013038 10.843298,-1.583782 19.976562,-1.675782 9.133182,-0.092 18.281362,0.306598 20.023438,1.285158 3.363346,1.889346 19.162684,28.408898 20.289064,33.828124 0.0404,-0.19602 0.0679,-0.372 0.0664,-0.503906 C 103.96,59.637114 87.124606,31.25008 83.640624,29.292968 82.116322,28.436732 74.930898,28.031206 67.039062,28.003906 Z" />
  <path
     id="path1040"
     style="opacity:0.1;fill:#ffffff;stroke-width:8;stroke-linecap:square"
     d="M 32,8 C 18.70404,8 8,18.70404 8,32 v 1 C 8,19.704042 18.70404,9 32,9 h 64 c 13.29596,0 24,10.704042 24,24 V 32 C 120,18.70404 109.29596,8 96,8 Z" />
</svg>
