<?xml version="1.0" encoding="UTF-8" standalone="no"?>
<!-- Created with Inkscape (http://www.inkscape.org/) -->

<svg
   width="128"
   height="128"
   viewBox="0 0 128 128"
   version="1.1"
   id="svg5"
   inkscape:version="1.3 (0e150ed6c4, 2023-07-21)"
   sodipodi:docname="htop.svg"
   xmlns:inkscape="http://www.inkscape.org/namespaces/inkscape"
   xmlns:sodipodi="http://sodipodi.sourceforge.net/DTD/sodipodi-0.dtd"
   xmlns="http://www.w3.org/2000/svg"
   xmlns:svg="http://www.w3.org/2000/svg">
  <sodipodi:namedview
     id="namedview7"
     pagecolor="#ffffff"
     bordercolor="#000000"
     borderopacity="0.25"
     inkscape:showpageshadow="2"
     inkscape:pageopacity="0.0"
     inkscape:pagecheckerboard="0"
     inkscape:deskcolor="#d1d1d1"
     inkscape:document-units="px"
     showgrid="false"
     inkscape:zoom="6.1171875"
     inkscape:cx="63.918263"
     inkscape:cy="64"
     inkscape:window-width="1920"
     inkscape:window-height="984"
     inkscape:window-x="0"
     inkscape:window-y="29"
     inkscape:window-maximized="1"
     inkscape:current-layer="svg5" />
  <defs
     id="defs2" />
  <rect
     style="opacity:0.2;fill:#000000;stroke-width:8;stroke-linecap:square"
     id="rect234"
     width="112"
     height="112"
     x="8"
     y="9"
     ry="24" />
  <rect
     style="fill:#4d4d4d;fill-opacity:1;stroke-width:8;stroke-linecap:square"
     id="rect396"
     width="112"
     height="112"
     x="8"
     y="8"
     ry="24" />
  <path
     id="path1"
     style="opacity:0.2;fill:#000000;stroke-width:8"
     d="m 22,25 v 24 h 8 V 45 H 26 V 29 h 4 v -4 z m 12,0 v 24 h 6 V 25 Z m 10,0 v 24 h 6 V 25 Z m 34,0 v 24 h 6 V 25 Z m 10,0 v 24 h 6 V 25 Z m 10,0 v 4 h 4 v 16 h -4 v 4 h 8 V 25 Z M 22,53 v 24 h 8 V 73 H 26 V 57 h 4 v -4 z m 12,0 v 24 h 6 V 53 Z m 10,0 v 24 h 6 V 53 Z m 10,0 v 24 h 6 V 53 Z m 14,0 v 24 h 6 V 53 Z m 10,0 v 24 h 6 V 53 Z m 10,0 v 24 h 6 V 53 Z m 10,0 v 4 h 4 v 16 h -4 v 4 h 8 V 53 Z M 22,81 v 24 h 8 v -4 H 26 V 85 h 4 v -4 z m 12,0 v 24 h 6 V 81 Z m 10,0 v 24 h 6 V 81 Z m 34,0 v 24 h 6 V 81 Z m 10,0 v 24 h 6 V 81 Z m 10,0 v 4 h 4 v 16 h -4 v 4 h 8 V 81 Z" />
  <path
     id="path2"
     style="fill:#d4d4d4;fill-opacity:1;stroke-width:4"
     d="m 22,24 v 24 h 8 V 44 H 26 V 28 h 4 v -4 z m 76,0 v 4 h 4 v 16 h -4 v 4 h 8 V 24 Z M 22,52 v 24 h 8 V 72 H 26 V 56 h 4 v -4 z m 76,0 v 4 h 4 v 16 h -4 v 4 h 8 V 52 Z M 22,80 v 24 h 8 v -4 H 26 V 84 h 4 v -4 z m 76,0 v 4 h 4 v 16 h -4 v 4 h 8 V 80 Z" />
  <path
     id="path3"
     style="fill:#8bc34a;stroke-width:8"
     d="m 34,24 v 24 h 6 V 24 Z m 10,0 v 24 h 6 V 24 Z M 34,52 v 24 h 6 V 52 Z m 10,0 v 24 h 6 V 52 Z M 34,80 v 24 h 6 V 80 Z m 10,0 v 24 h 6 V 80 Z" />
  <path
     id="path4"
     style="fill:#ff9800;stroke-width:4"
     d="m 54,52 v 24 h 6 V 52 Z m 14,0 v 24 h 6 V 52 Z" />
  <path
     id="path5"
     style="fill:#ff5722;stroke-width:4"
     d="m 78,24 v 24 h 6 V 24 Z m 10,0 v 24 h 6 V 24 Z M 78,52 v 24 h 6 V 52 Z m 10,0 v 24 h 6 V 52 Z M 78,80 v 24 h 6 V 80 Z m 10,0 v 24 h 6 V 80 Z" />
  <path
     id="path1040"
     style="opacity:0.1;fill:#ffffff;stroke-width:8;stroke-linecap:square"
     d="M 32,8 C 18.70404,8 8,18.70404 8,32 v 1 C 8,19.704042 18.70404,9 32,9 h 64 c 13.29596,0 24,10.704042 24,24 V 32 C 120,18.70404 109.29596,8 96,8 Z" />
</svg>
