<?xml version="1.0" encoding="UTF-8" standalone="no"?>
<!-- Created with Inkscape (http://www.inkscape.org/) -->

<svg
   width="128"
   height="128"
   viewBox="0 0 128 128"
   version="1.1"
   id="svg5"
   inkscape:version="1.3 (0e150ed6c4, 2023-07-21)"
   sodipodi:docname="hwloc.svg"
   xmlns:inkscape="http://www.inkscape.org/namespaces/inkscape"
   xmlns:sodipodi="http://sodipodi.sourceforge.net/DTD/sodipodi-0.dtd"
   xmlns="http://www.w3.org/2000/svg"
   xmlns:svg="http://www.w3.org/2000/svg">
  <sodipodi:namedview
     id="namedview7"
     pagecolor="#ffffff"
     bordercolor="#000000"
     borderopacity="0.25"
     inkscape:showpageshadow="2"
     inkscape:pageopacity="0.0"
     inkscape:pagecheckerboard="0"
     inkscape:deskcolor="#d1d1d1"
     inkscape:document-units="px"
     showgrid="false"
     inkscape:zoom="6.2734375"
     inkscape:cx="64"
     inkscape:cy="64"
     inkscape:window-width="1850"
     inkscape:window-height="1011"
     inkscape:window-x="70"
     inkscape:window-y="32"
     inkscape:window-maximized="1"
     inkscape:current-layer="svg5" />
  <defs
     id="defs2" />
  <rect
     style="opacity:0.2;fill:#000000;stroke-width:8;stroke-linecap:square"
     id="rect234"
     width="112"
     height="112"
     x="8"
     y="9"
     ry="24" />
  <rect
     style="fill:#008970;fill-opacity:1;stroke-width:8;stroke-linecap:square"
     id="rect396"
     width="112"
     height="112"
     x="8"
     y="8"
     ry="24" />
  <g
     id="g1"
     transform="matrix(2,0,0,2,-6.0080004,-12)">
    <rect
       style="opacity:0.2;fill:#000000"
       width="33.506001"
       height="33.506001"
       x="35.223003"
       y="-14.284829"
       ry="4.0939999"
       transform="rotate(45)"
       id="rect3" />
    <rect
       style="fill:#76d740"
       width="33.506001"
       height="33.506001"
       x="34.866558"
       y="-14.631276"
       ry="4.0939999"
       transform="rotate(45)"
       id="rect4" />
    <path
       style="opacity:0.2;fill:#000000"
       d="m 31.52711,18.28531 -1.589844,1.589844 c 1.30363,-0.496742 2.81919,-0.219873 3.878906,0.839844 L 52.83961,39.738436 c 1.015914,1.015912 1.312968,2.453056 0.898438,3.71875 L 55.26539,41.929842 C 55.17427,40.77623 54.693048,39.646564 53.812266,38.765778 L 34.788828,19.742342 C 33.882152,18.835665 32.715986,18.355214 31.52711,18.28531 Z m -7.523438,11.277344 c -0.425124,0 -0.85003,0.16254 -1.175781,0.488282 l -7.273438,7.273436 c -0.651503,0.651504 -0.651503,1.70006 0,2.351564 l 7.273438,7.273436 c 0.651503,0.651504 1.700059,0.651504 2.351563,0 l 7.273436,-7.273436 c 0.651504,-0.651504 0.651504,-1.70006 0,-2.351564 l -7.273436,-7.273436 c -0.325752,-0.325752 -0.750658,-0.488282 -1.175782,-0.488282 z m 11,11 c -0.425124,0 -0.85003,0.16252 -1.175782,0.488282 l -7.273436,7.273436 c -0.651504,0.651504 -0.651504,1.70006 0,2.351564 l 7.273436,7.273436 c 0.651504,0.651504 1.70006,0.651504 2.351564,0 l 7.273436,-7.273436 c 0.651504,-0.651504 0.651504,-1.70006 0,-2.351564 l -7.273436,-7.273436 c -0.325752,-0.325752 -0.750658,-0.488282 -1.175782,-0.488282 z"
       id="path4" />
    <path
       style="fill:#ffffff"
       d="m 31.525888,17.785888 -1.589844,1.589844 c 1.30363,-0.496743 2.8209,-0.219141 3.880616,0.840576 l 19.02173,19.02173 c 1.015914,1.015912 1.31419,2.453788 0.899658,3.719482 l 1.528078,-1.528074 C 55.175006,40.275834 54.69134,39.146652 53.810558,38.265868 L 34.788828,19.24414 c -0.906676,-0.906676 -2.074064,-1.388348 -3.26294,-1.458252 z"
       id="path5" />
    <rect
       style="fill:#ffffff"
       width="13.612"
       height="13.612"
       x="37.036556"
       y="3.0887237"
       ry="1.663"
       transform="rotate(45)"
       id="rect5" />
    <path
       style="fill:#9ee976"
       d="m 22.590817,29.788018 -0.645875,0.645874 c 0.5296,-0.201802 1.14599,-0.08904 1.576502,0.341484 l 7.727576,7.727578 c 0.412714,0.412716 0.53389,0.996854 0.365486,1.51104 l 0.62078,-0.62078 c -0.037,-0.468656 -0.233506,-0.927386 -0.591324,-1.285204 L 23.916384,30.380434 C 23.54805,30.012096 23.073798,29.816416 22.590817,29.788018 Z"
       id="path6" />
    <rect
       style="fill:#ffffff"
       width="13.612"
       height="13.612"
       x="52.596558"
       y="3.0887237"
       ry="1.663"
       transform="rotate(45)"
       id="rect6" />
    <path
       style="fill:#9ee976"
       d="m 33.590816,40.78802 -0.645872,0.645872 c 0.529598,-0.2018 1.14599,-0.08904 1.5765,0.341486 l 7.727578,7.727576 c 0.412714,0.412716 0.533888,0.996854 0.365484,1.511042 l 0.620782,-0.620782 c -0.037,-0.468654 -0.233506,-0.927384 -0.591326,-1.285202 L 34.916386,41.380434 C 34.54805,41.012096 34.0738,40.816418 33.590816,40.78802 Z"
       id="path7" />
    <rect
       style="fill:#6c6c6c"
       width="4.8309999"
       height="4.8309999"
       x="44.296558"
       y="11.078724"
       ry="0.58999997"
       transform="rotate(45)"
       id="rect7" />
    <path
       style="fill:#ffffff"
       d="m 22.986107,39.653 -0.22924,0.22924 c 0.18797,-0.07162 0.406745,-0.0316 0.559547,0.1212 l 2.74275,2.74275 c 0.1465,0.14648 0.1895,0.353814 0.12972,0.536314 l 0.220332,-0.220334 c -0.0132,-0.16634 -0.08288,-0.329156 -0.209878,-0.456156 l -2.742754,-2.74274 c -0.13074,-0.13074 -0.299058,-0.200188 -0.470482,-0.210266 z"
       id="path8" />
    <rect
       style="fill:#6c6c6c"
       width="4.8309999"
       height="4.8309999"
       x="38.786556"
       y="11.058723"
       ry="0.58999997"
       transform="rotate(45)"
       id="rect8" />
    <path
       style="fill:#ffffff"
       d="m 19.105015,35.744534 -0.229241,0.22924 c 0.18797,-0.07162 0.406747,-0.0316 0.559548,0.1212 l 2.74275,2.74275 c 0.146484,0.14648 0.189492,0.35381 0.129718,0.536312 l 0.220334,-0.220334 c -0.0132,-0.16634 -0.08287,-0.329158 -0.209879,-0.456156 l -2.74275,-2.742742 c -0.130735,-0.130736 -0.29906,-0.200186 -0.470484,-0.210268 z"
       id="path9" />
    <rect
       style="fill:#6c6c6c"
       width="4.8309999"
       height="4.8309999"
       x="44.326557"
       y="5.6587238"
       ry="0.58999997"
       transform="rotate(45)"
       id="rect9" />
    <path
       style="fill:#ffffff"
       d="m 26.840766,35.843714 -0.22924,0.22924 c 0.18798,-0.07162 0.406748,-0.0316 0.559546,0.1212 l 2.74275,2.74275 c 0.14648,0.14648 0.1895,0.353812 0.12972,0.536312 l 0.220334,-0.220332 c -0.0132,-0.16634 -0.0829,-0.329156 -0.20988,-0.456158 l -2.742752,-2.74274 C 27.180504,35.923246 27.012184,35.8538 26.84076,35.84372 Z"
       id="path10" />
    <rect
       style="fill:#6c6c6c"
       width="4.8309999"
       height="4.8309999"
       x="38.636559"
       y="5.6987238"
       ry="0.58999997"
       transform="rotate(45)"
       id="rect10" />
    <path
       style="fill:#ffffff"
       d="m 22.787378,31.853112 -0.22924,0.22924 c 0.18797,-0.07162 0.406746,-0.0316 0.559548,0.1212 l 2.742748,2.74275 c 0.14648,0.14648 0.1895,0.353814 0.12972,0.536314 l 0.220332,-0.220334 c -0.0132,-0.16634 -0.0829,-0.329156 -0.209878,-0.456158 l -2.742754,-2.74274 c -0.13074,-0.13074 -0.299059,-0.200186 -0.470483,-0.210264 z"
       id="path11" />
    <path
       id="path13"
       style="opacity:0.2;fill:#ffffff"
       d="m 35.004,16 c -1.046457,0 -2.092682,0.401276 -2.894531,1.203125 L 14.207125,35.105469 c -0.846312,0.846311 -1.239372,1.963147 -1.191406,3.066406 0.07502,-0.934788 0.469385,-1.848291 1.1875,-2.566406 L 32.105563,17.703125 c 1.60377,-1.60377 4.185292,-1.60377 5.789062,0 l 17.902344,17.902344 c 0.732075,0.732075 1.127674,1.667388 1.191406,2.621093 0.0637,-1.120927 -0.327235,-2.260798 -1.1875,-3.121093 L 37.898531,17.203125 C 37.096682,16.401276 36.050457,16 35.004,16 Z" />
  </g>
  <path
     id="path1040"
     style="opacity:0.1;fill:#ffffff;stroke-width:8;stroke-linecap:square"
     d="M 32,8 C 18.704026,8 8,18.704028 8,32 v 1 C 8,19.704028 18.704026,9 32,9 h 64 c 13.29597,0 24,10.704028 24,24 V 32 C 120,18.704028 109.29597,8 96,8 Z" />
</svg>
