<?xml version="1.0" encoding="UTF-8" standalone="no"?>
<!-- Created with Inkscape (http://www.inkscape.org/) -->

<svg
   width="128"
   height="128"
   viewBox="0 0 128 128"
   version="1.1"
   id="svg5"
   inkscape:version="1.2.2 (1:1.2.2+202305151914+b0a8486541)"
   sodipodi:docname="internet-chat.svg"
   xmlns:inkscape="http://www.inkscape.org/namespaces/inkscape"
   xmlns:sodipodi="http://sodipodi.sourceforge.net/DTD/sodipodi-0.dtd"
   xmlns="http://www.w3.org/2000/svg"
   xmlns:svg="http://www.w3.org/2000/svg">
  <sodipodi:namedview
     id="namedview7"
     pagecolor="#ffffff"
     bordercolor="#000000"
     borderopacity="0.25"
     inkscape:showpageshadow="2"
     inkscape:pageopacity="0.0"
     inkscape:pagecheckerboard="0"
     inkscape:deskcolor="#d1d1d1"
     inkscape:document-units="px"
     showgrid="false"
     inkscape:zoom="6.296875"
     inkscape:cx="63.920596"
     inkscape:cy="64"
     inkscape:window-width="1920"
     inkscape:window-height="1008"
     inkscape:window-x="0"
     inkscape:window-y="0"
     inkscape:window-maximized="1"
     inkscape:current-layer="svg5" />
  <defs
     id="defs2" />
  <rect
     style="opacity:0.2;fill:#000000;stroke-width:8;stroke-linecap:square"
     id="rect234"
     width="112"
     height="112"
     x="8"
     y="9"
     ry="24" />
  <rect
     style="fill:#fbc02d;fill-opacity:1;stroke-width:8;stroke-linecap:square"
     id="rect396"
     width="112"
     height="112"
     x="8"
     y="8"
     ry="24" />
  <path
     d="M 96,49.000002 H 56 c -4.432,0 -8,3.568 -8,8 V 81 c 0,4.432 3.568,8 8,8 h 32 l 16,16 V 57.000002 c 0,-4.432 -3.568,-8 -8,-8 z"
     style="opacity:0.2;fill:#000000;stroke-width:4;stroke-linecap:round;stroke-linejoin:round"
     id="path768" />
  <path
     d="M 96,48.000006 H 56 c -4.432,0 -8,3.567996 -8,7.999996 V 80 c 0,4.432 3.568,8 8,8 h 32 l 16,16 V 56.000002 c 0,-4.432004 -3.568,-8 -8,-7.999996 z"
     style="fill:#ffecb3;fill-opacity:1;stroke-width:4;stroke-linecap:round;stroke-linejoin:round"
     id="path712" />
  <path
     d="m 32,25.000002 h 40 c 4.432,0 8,3.568 8,8 v 24 C 80,61.432 76.432,65 72,65 H 40 L 24.000002,81 V 33.000002 c 0,-4.432 3.568,-8 7.999998,-8 z"
     style="opacity:0.2;fill:#000000;stroke-width:4;stroke-linecap:round;stroke-linejoin:round"
     id="path740" />
  <path
     d="m 32,24.000002 h 40 c 4.432,0 8,3.568 8,8 v 24 c 0,4.432 -3.568,8 -8,8 H 39.999998 L 24,80 V 32.000002 c 0,-4.432 3.568,-8 8,-8 z"
     style="fill:#ffffff;fill-opacity:1;stroke-width:4;stroke-linecap:round;stroke-linejoin:round"
     id="path684" />
  <path
     id="path1040"
     style="opacity:0.2;fill:#ffffff;stroke-width:8;stroke-linecap:square"
     d="M 32,8 C 18.704026,8 8,18.704027 8,32 v 1 C 8,19.704013 18.704013,9 32,9 h 64 c 13.29599,0 24,10.704013 24,24 V 32 C 120,18.704027 109.29597,8 96,8 Z" />
</svg>
