<?xml version="1.0" encoding="UTF-8" standalone="no"?>
<!-- Created with Inkscape (http://www.inkscape.org/) -->

<svg
   width="128"
   height="128"
   viewBox="0 0 128 128"
   version="1.1"
   id="svg5"
   inkscape:version="1.3 (0e150ed6c4, 2023-07-21)"
   sodipodi:docname="io.bassi.Amberol.svg"
   xmlns:inkscape="http://www.inkscape.org/namespaces/inkscape"
   xmlns:sodipodi="http://sodipodi.sourceforge.net/DTD/sodipodi-0.dtd"
   xmlns="http://www.w3.org/2000/svg"
   xmlns:svg="http://www.w3.org/2000/svg">
  <sodipodi:namedview
     id="namedview7"
     pagecolor="#ffffff"
     bordercolor="#000000"
     borderopacity="0.25"
     inkscape:showpageshadow="2"
     inkscape:pageopacity="0.0"
     inkscape:pagecheckerboard="0"
     inkscape:deskcolor="#d1d1d1"
     inkscape:document-units="px"
     showgrid="false"
     inkscape:zoom="6.1171875"
     inkscape:cx="64"
     inkscape:cy="64"
     inkscape:window-width="1920"
     inkscape:window-height="984"
     inkscape:window-x="0"
     inkscape:window-y="29"
     inkscape:window-maximized="1"
     inkscape:current-layer="svg5" />
  <defs
     id="defs2" />
  <rect
     style="opacity:0.2;fill:#000000;stroke-width:8;stroke-linecap:square"
     id="rect234"
     width="112"
     height="112"
     x="8"
     y="9"
     ry="24" />
  <rect
     style="fill:#039be5;fill-opacity:1;stroke-width:8;stroke-linecap:square"
     id="rect396"
     width="112"
     height="112"
     x="8"
     y="8"
     ry="24" />
  <path
     d="m 64,25 c -22.091392,0 -40,17.908612 -40,40 0,22.091392 17.908608,40 40,40 22.091392,0 40,-17.908608 40,-40 C 104,42.908612 86.091392,25 64,25 Z M 52.140624,41 c 0.72712,-0.0288 1.474232,0.159 2.187504,0.593752 l 31.437496,19.1875 c 2.9826,1.818048 2.9826,6.619448 0,8.4375 L 54.328128,88.406248 C 51.475048,90.1452 48.004736,87.841096 48,84.203128 V 45.796876 C 48.0038,43.068392 49.959152,41.086428 52.140624,41 Z"
     style="opacity:0.2;fill:#000000;stroke:none;stroke-width:16;stroke-linecap:round;stroke-linejoin:round"
     id="path1" />
  <path
     d="m 64,24 c -22.091392,0 -40,17.908612 -40,40 0,22.091392 17.908608,40 40,40 22.091392,0 40,-17.908608 40,-40 C 104,41.908612 86.091392,24 64,24 Z M 52.140624,40 c 0.72712,-0.0288 1.474232,0.159 2.187504,0.593752 l 31.437496,19.1875 c 2.9826,1.818048 2.9826,6.619448 0,8.4375 L 54.328128,87.406248 C 51.475048,89.1452 48.004736,86.841096 48,83.203128 V 44.796876 C 48.003856,42.068392 49.959152,40.086428 52.140624,40 Z"
     style="fill:#ffffff;stroke:none;stroke-width:16;stroke-linecap:round;stroke-linejoin:round"
     id="path2" />
  <path
     id="path1040"
     style="opacity:0.2;fill:#ffffff;stroke-width:8;stroke-linecap:square"
     d="M 32,8 C 18.70404,8 8,18.70404 8,32 v 1 C 8,19.704042 18.70404,9 32,9 h 64 c 13.29596,0 24,10.704042 24,24 V 32 C 120,18.70404 109.29596,8 96,8 Z" />
</svg>
