<?xml version="1.0" encoding="UTF-8" standalone="no"?>
<!-- Created with Inkscape (http://www.inkscape.org/) -->

<svg
   width="128"
   height="128"
   viewBox="0 0 128 128"
   version="1.1"
   id="svg5"
   inkscape:version="1.3 (0e150ed6c4, 2023-07-21)"
   sodipodi:docname="java.svg"
   xmlns:inkscape="http://www.inkscape.org/namespaces/inkscape"
   xmlns:sodipodi="http://sodipodi.sourceforge.net/DTD/sodipodi-0.dtd"
   xmlns="http://www.w3.org/2000/svg"
   xmlns:svg="http://www.w3.org/2000/svg">
  <sodipodi:namedview
     id="namedview7"
     pagecolor="#ffffff"
     bordercolor="#000000"
     borderopacity="0.25"
     inkscape:showpageshadow="2"
     inkscape:pageopacity="0.0"
     inkscape:pagecheckerboard="0"
     inkscape:deskcolor="#d1d1d1"
     inkscape:document-units="px"
     showgrid="false"
     inkscape:zoom="6.2734375"
     inkscape:cx="64"
     inkscape:cy="64"
     inkscape:window-width="1850"
     inkscape:window-height="1011"
     inkscape:window-x="70"
     inkscape:window-y="32"
     inkscape:window-maximized="1"
     inkscape:current-layer="svg5"
     showguides="false" />
  <defs
     id="defs2" />
  <rect
     style="opacity:0.2;fill:#000000;stroke-width:8;stroke-linecap:square"
     id="rect234"
     width="112"
     height="112"
     x="8"
     y="9"
     ry="24" />
  <rect
     style="fill:#e4e4e4;fill-opacity:1;stroke-width:8;stroke-linecap:square"
     id="rect396"
     width="112"
     height="112"
     x="8"
     y="8"
     ry="24" />
  <path
     id="path1"
     style="opacity:0.2;fill:#000000;stroke-width:1.3346"
     d="m 71.60202,25 c 3.181584,13.208344 -11.222768,17.196472 -16.421876,25.421876 -3.54044,5.603652 1.733352,11.628332 8.929688,18.468748 -2.80624,-6.683832 -12.3195,-12.530288 0.008,-22.78906 C 79.489636,33.317896 71.60202,25 71.60202,25 Z m 9.507812,16.335936 c 1.68e-4,0 -25.992424,6.841948 -13.578128,21.914064 3.664612,4.444564 -0.960936,8.4375 -0.960936,8.4375 0,0 9.301232,-5.054616 5.031252,-11.390624 -3.989532,-5.905996 -7.050868,-8.842444 9.507812,-18.96094 z m 4.60156,26.929688 c -0.913292,0.0018 -1.880116,0.17072 -2.875,0.539064 -0.797656,0.29748 -1.218748,0.984376 -1.218748,0.984376 0,0 0.508464,-0.21372 1.632812,-0.46094 4.597892,-1.009628 11.183772,6.4834 -3.0625,14.281252 -0.066,0.1858 -0.28924,0.39844 -0.28908,0.39844 16.942548,-4.69232 13.249328,-15.756816 5.8125,-15.742188 z m -31.218748,0.757812 c -1.816296,0.05008 -6.066248,0.465612 -11.007812,2.984376 -7.794696,3.970848 19.27292,5.782436 33.28906,1.898436 1.457004,-1.047708 3.468752,-1.960936 3.468752,-1.960936 0,0 -5.733544,1.080864 -11.445312,1.585936 -6.990652,0.61798 -14.485668,0.741676 -18.25,0.21092 -8.912604,-1.255392 4.882812,-4.71094 4.882812,-4.71094 0,0 -0.33208,-0.0244 -0.9375,-0.008 z m -2.273436,9.08594 c -12.856368,4.496144 7.154952,9.600532 25.125,4.0625 C 75.434916,81.462764 74.22702,80.164064 74.22702,80.164064 65.441316,81.945628 60.366136,81.886708 53.937956,81.1875 48.968204,80.64638 52.219208,78.109376 52.219208,78.109376 Z m 1.820312,8.757812 c -11.674484,3.436972 7.095768,10.53826 21.960936,3.828124 -2.43462,-0.996876 -4.179688,-2.148436 -4.179688,-2.148436 -6.6288,1.3202 -9.701692,1.419124 -15.718748,0.695312 -4.96598,-0.600024 -2.0625,-2.375 -2.0625,-2.375 z m -8.109376,5.804688 c -5.242776,0.1704 -15.501756,5.13888 -6.125,6.742188 30.305032,5.175686 55.243812,-2.333584 47.382812,-6.070312 0,0 2.151796,1.870524 -2.359376,3.312496 -8.57806,2.737512 -35.714048,3.563152 -43.25,0.10936 -2.707012,-1.242324 2.370808,-2.964412 3.968752,-3.328124 1.666204,-0.3798 2.617188,-0.31252 2.617188,-0.31252 -0.470756,-0.34928 -1.263492,-0.484684 -2.234376,-0.453124 z m 46.070312,4.75 c 0,0 -0.952352,2.582454 -11.296876,4.632814 -11.670324,2.31489 -26.073572,2.04746 -34.609372,0.5625 0,0 1.74896,1.52361 10.734372,2.13281 13.671592,0.92096 34.6752,-0.51142 35.171876,-7.328124 z" />
  <path
     id="path9"
     style="fill:#5087c0;fill-opacity:1;stroke-width:1.3346"
     d="m 85.711392,67.265624 c -0.913292,0.0018 -1.880116,0.17072 -2.875,0.539064 -0.797656,0.29748 -1.218748,0.984376 -1.218748,0.984376 0,0 0.508464,-0.21372 1.632812,-0.46094 4.597892,-1.009628 11.183772,6.4834 -3.0625,14.281252 -0.066,0.1858 -0.28924,0.39844 -0.28908,0.39844 16.942548,-4.69232 13.249328,-15.756816 5.8125,-15.742188 z m -31.218748,0.757812 c -1.816296,0.05008 -6.066248,0.465612 -11.007812,2.984376 -7.794696,3.970848 19.27292,5.782436 33.28906,1.898436 1.457004,-1.047708 3.468752,-1.953124 3.468752,-1.953124 0,0 -5.733544,1.073052 -11.445312,1.578124 -6.990652,0.61798 -14.485668,0.741676 -18.25,0.21092 -8.912604,-1.255392 4.882812,-4.71094 4.882812,-4.71094 0,0 -0.33208,-0.0244 -0.9375,-0.008 z m -2.273436,9.08594 c -12.856368,4.496144 7.154952,9.600532 25.125,4.0625 C 75.434916,80.462764 74.22702,79.164064 74.22702,79.164064 65.441316,80.945628 60.366136,80.886708 53.937956,80.1875 48.968204,79.64638 52.219208,77.109376 52.219208,77.109376 Z m 1.820312,8.757812 c -11.674484,3.436972 7.095768,10.53826 21.960936,3.828124 -2.43462,-0.996876 -4.179688,-2.148436 -4.179688,-2.148436 -6.6288,1.3202 -9.701692,1.426936 -15.718748,0.703124 -4.96598,-0.600024 -2.0625,-2.382812 -2.0625,-2.382812 z m -8.109376,5.804688 c -5.242776,0.1704 -15.501756,5.13888 -6.125,6.742188 30.305032,5.175686 55.243812,-2.333584 47.382812,-6.070312 0,0 2.151796,1.870524 -2.359376,3.312496 -8.57806,2.737512 -35.714048,3.563152 -43.25,0.10936 -2.707012,-1.242324 2.370808,-2.964412 3.968752,-3.328124 1.666204,-0.3798 2.617188,-0.31252 2.617188,-0.31252 -0.470756,-0.34928 -1.263492,-0.484684 -2.234376,-0.453124 z m 46.070312,4.75 c 0,0 -0.952352,2.582452 -11.296876,4.632814 -11.670324,2.31489 -26.073572,2.04746 -34.609372,0.5625 0,0 1.74896,1.52361 10.734372,2.13281 13.671592,0.92096 34.6752,-0.51142 35.171876,-7.328124 z" />
  <path
     id="path11"
     style="fill:#ff9955;fill-opacity:1;stroke-width:1.3346"
     d="m 71.60202,24 c 3.181584,13.208344 -11.222768,17.196472 -16.421876,25.421876 -3.54044,5.603652 1.733352,11.628332 8.929688,18.468748 -2.80624,-6.683832 -12.3195,-12.530288 0.008,-22.78906 C 79.489636,32.317896 71.60202,24 71.60202,24 Z m 9.507812,16.335936 c 1.68e-4,0 -25.992424,6.841948 -13.578128,21.914064 3.664612,4.444564 -0.960936,8.445312 -0.960936,8.445312 0,0 9.301232,-5.062428 5.031252,-11.398436 -3.989532,-5.905996 -7.050868,-8.842444 9.507812,-18.96094 z" />
  <g
     id="g361"
     transform="matrix(1.9999884,0,0,1.9999884,1.396e-4,1.396e-4)" />
  <path
     id="path1040"
     style="opacity:0.2;fill:#ffffff;stroke-width:8;stroke-linecap:square"
     d="M 32,8 C 18.70404,8 8,18.70404 8,32 v 1 C 8,19.704042 18.70404,9 32,9 h 64 c 13.29596,0 24,10.704042 24,24 V 32 C 120,18.70404 109.29596,8 96,8 Z" />
</svg>
