<?xml version="1.0" encoding="UTF-8" standalone="no"?>
<!-- Created with Inkscape (http://www.inkscape.org/) -->

<svg
   width="128"
   height="128"
   viewBox="0 0 128 128"
   version="1.1"
   id="svg5"
   inkscape:version="1.2.2 (1:1.2.2+202305151914+b0a8486541)"
   sodipodi:docname="KakaoTalk.svg"
   xmlns:inkscape="http://www.inkscape.org/namespaces/inkscape"
   xmlns:sodipodi="http://sodipodi.sourceforge.net/DTD/sodipodi-0.dtd"
   xmlns="http://www.w3.org/2000/svg"
   xmlns:svg="http://www.w3.org/2000/svg">
  <sodipodi:namedview
     id="namedview7"
     pagecolor="#ffffff"
     bordercolor="#000000"
     borderopacity="0.25"
     inkscape:showpageshadow="2"
     inkscape:pageopacity="0.0"
     inkscape:pagecheckerboard="0"
     inkscape:deskcolor="#d1d1d1"
     inkscape:document-units="px"
     showgrid="false"
     inkscape:zoom="6.484375"
     inkscape:cx="64"
     inkscape:cy="64"
     inkscape:window-width="1920"
     inkscape:window-height="1008"
     inkscape:window-x="0"
     inkscape:window-y="0"
     inkscape:window-maximized="1"
     inkscape:current-layer="svg5" />
  <defs
     id="defs2" />
  <rect
     style="opacity:0.2;fill:#000000;stroke-width:8;stroke-linecap:square"
     id="rect234"
     width="112"
     height="112"
     x="8"
     y="9"
     ry="24" />
  <rect
     style="fill:#ffdb0b;fill-opacity:1;stroke-width:8;stroke-linecap:square"
     id="rect396"
     width="112"
     height="112"
     x="8"
     y="8"
     ry="24" />
  <path
     d="M 64,24 C 39.699472,24 20,40.11775 20,60 20.0132,70.585142 25.719596,80.629088 35.601562,87.460938 L 30,108 49.667968,93.953124 C 54.27339,95.281384 59.116932,95.97313 64,96 88.300528,96 108,79.88225 108,60 108,40.11775 88.300528,24 64,24 Z"
     style="fill:#353535;stroke-width:2"
     id="path1801" />
  <path
     d="m 30,49.001202 c -1.108,0 -2,0.892 -2,2 0,1.108 0.892,2 2,2 h 4 v 18 c 0,1.108 0.892,2 2,2 1.108,0 2,-0.892 2,-2 v -18 h 4 c 1.108,0 2,-0.892 2,-2 0,-1.108 -0.892,-2 -2,-2 z m 22.929688,0 c -0.0132,5.06e-4 -0.02598,0.0032 -0.03906,0.004 -0.0026,1.52e-4 -0.0052,-1.62e-4 -0.0078,0 -0.0142,8.72e-4 -0.02866,0.0028 -0.04296,0.004 -0.0446,0.0038 -0.08886,0.009 -0.13282,0.0156 -0.008,0.0012 -0.0156,0.0026 -0.02344,0.004 -0.05604,0.0092 -0.10934,0.02124 -0.16406,0.03516 -0.0118,0.003 -0.02334,0.0046 -0.03516,0.0078 -0.03222,0.0086 -0.0623,0.02114 -0.09376,0.03126 -0.014,0.0046 -0.0291,0.0068 -0.04296,0.0118 -0.05784,0.02 -0.11312,0.04176 -0.16796,0.0664 -0.05764,0.0259 -0.11384,0.05518 -0.16796,0.08594 -0.52103,0.295874 -0.878194,0.808104 -0.980468,1.38672 L 44.070342,70.6656 c -0.286774,1.070244 0.343816,2.16245 1.414064,2.44922 1.070244,0.286772 2.162448,-0.343816 2.449218,-1.414064 l 1.363252,-4.699554 h 7.421874 l 1.363282,4.699218 c 0.28677,1.070248 1.378972,1.700836 2.449218,1.414064 1.070248,-0.28677 1.700836,-1.378976 1.414062,-2.44922 L 54.976562,50.63792 c -0.10588,-0.571392 -0.457364,-1.07784 -0.972656,-1.371094 -0.0557,-0.0317 -0.1125,-0.05938 -0.17188,-0.08594 -0.0586,-0.0262 -0.1177,-0.04948 -0.17968,-0.07032 -0.04016,-0.0134 -0.0796,-0.02794 -0.1211,-0.03906 -0.0116,-0.0032 -0.02354,-0.005 -0.03516,-0.0078 -0.03728,-0.0094 -0.07536,-0.0162 -0.11328,-0.02344 -0.026,-0.005 -0.05186,-0.0116 -0.07812,-0.0156 -0.04456,-0.0068 -0.08844,-0.012 -0.13282,-0.0156 -0.0144,-0.0012 -0.02862,-0.003 -0.04296,-0.004 -0.0026,-1.58e-4 -0.0052,1.48e-4 -0.0078,0 -0.03742,-0.0022 -0.07554,-0.0038 -0.11328,-0.004 -0.02586,-8e-6 -0.05242,-9.92e-4 -0.07812,0 z m 15.070312,0 c -1.108,0 -2,0.892 -2,2 v 20 c 0,1.108 0.892,2 2,2 h 12 c 1.108,0 2,-0.892 2,-2 0,-1.108 -0.892,-2 -2,-2 H 70 v -18 c 0,-1.108 -0.892,-2 -2,-2 z m 20,0 c -1.108,0 -2,0.892 -2,2 v 20 c 0,1.108 0.892,2 2,2 1.108,0 2,-0.892 2,-2 v -6.625 l 6.46875,7.710938 c 0.712208,0.848776 1.96763,0.958302 2.816406,0.246094 0.848774,-0.71221 0.958304,-1.971536 0.246094,-2.820314 L 92,60.899202 99.53125,52.290264 c 0.72954,-0.83393 0.60268,-2.108104 -0.246094,-2.820312 -0.848776,-0.712208 -2.104198,-0.602684 -2.816406,0.246094 L 90,57.426984 v -6.425782 c 0,-1.108 -0.892,-2 -2,-2 z m -34.992188,7.2 2.550782,6.8 h -5.101562 z"
     style="opacity:0.2;fill:#000000;stroke-width:2"
     id="path1857" />
  <path
     d="m 30,48.001152 c -1.108,0 -2,0.892 -2,2 0,1.108 0.892,2 2,2 h 4 v 18 c 0,1.108 0.892,2 2,2 1.108,0 2,-0.892 2,-2 v -18 h 4 c 1.108,0 2,-0.892 2,-2 0,-1.108 -0.892,-2 -2,-2 z m 22.929688,0 c -0.0132,5.06e-4 -0.02598,0.0032 -0.03906,0.004 -0.0026,1.52e-4 -0.0052,-1.62e-4 -0.0078,0 -0.0142,8.72e-4 -0.02866,0.0028 -0.04296,0.004 -0.0446,0.0038 -0.08886,0.009 -0.13282,0.0156 -0.008,0.0012 -0.0156,0.0026 -0.02344,0.004 -0.05604,0.0092 -0.10934,0.02124 -0.16406,0.03516 -0.0118,0.003 -0.02334,0.0046 -0.03516,0.0078 -0.03222,0.0086 -0.0623,0.02114 -0.09376,0.03126 -0.014,0.0046 -0.0291,0.0068 -0.04296,0.0118 -0.05784,0.02 -0.11312,0.04176 -0.16796,0.0664 -0.05764,0.0259 -0.11384,0.05518 -0.16796,0.08594 -0.52103,0.295874 -0.878194,0.808104 -0.980468,1.38672 L 44.070342,69.66555 c -0.286774,1.070244 0.343816,2.16245 1.414064,2.44922 1.070244,0.286772 2.162448,-0.343816 2.449218,-1.414064 l 1.363252,-4.699554 h 7.421874 l 1.363282,4.699218 c 0.28677,1.070248 1.378972,1.700836 2.449218,1.414064 1.070248,-0.28677 1.700836,-1.378976 1.414062,-2.44922 L 54.976562,49.63787 c -0.10588,-0.571392 -0.457364,-1.07784 -0.972656,-1.371094 -0.0557,-0.0317 -0.1125,-0.05938 -0.17188,-0.08594 -0.0586,-0.0262 -0.1177,-0.04948 -0.17968,-0.07032 -0.04016,-0.0134 -0.0796,-0.02794 -0.1211,-0.03906 -0.0116,-0.0032 -0.02354,-0.005 -0.03516,-0.0078 -0.03728,-0.0094 -0.07536,-0.0162 -0.11328,-0.02344 -0.026,-0.005 -0.05186,-0.0116 -0.07812,-0.0156 -0.04456,-0.0068 -0.08844,-0.012 -0.13282,-0.0156 -0.0144,-0.0012 -0.02862,-0.003 -0.04296,-0.004 -0.0026,-1.58e-4 -0.0052,1.48e-4 -0.0078,0 -0.03742,-0.0022 -0.07554,-0.0038 -0.11328,-0.004 -0.02586,-8e-6 -0.05242,-9.92e-4 -0.07812,0 z m 15.070312,0 c -1.108,0 -2,0.892 -2,2 v 20 c 0,1.108 0.892,2 2,2 h 12 c 1.108,0 2,-0.892 2,-2 0,-1.108 -0.892,-2 -2,-2 H 70 v -18 c 0,-1.108 -0.892,-2 -2,-2 z m 20,0 c -1.108,0 -2,0.892 -2,2 v 20 c 0,1.108 0.892,2 2,2 1.108,0 2,-0.892 2,-2 v -6.625 l 6.46875,7.710938 c 0.712208,0.848776 1.96763,0.958302 2.816406,0.246094 0.848774,-0.71221 0.958304,-1.971536 0.246094,-2.820314 L 92,59.899152 99.53125,51.290214 c 0.72954,-0.83393 0.60268,-2.108104 -0.246094,-2.820312 -0.848776,-0.712208 -2.104198,-0.602684 -2.816406,0.246094 L 90,56.426934 v -6.425782 c 0,-1.108 -0.892,-2 -2,-2 z m -34.992188,7.2 2.550782,6.8 h -5.101562 z"
     style="fill:#ffdb0b;stroke-width:2"
     id="path1829" />
  <path
     id="path1040"
     style="opacity:0.2;fill:#ffffff;stroke-width:8;stroke-linecap:square"
     d="M 32,8 C 18.704026,8 8,18.704027 8,32 v 1 C 8,19.704013 18.704013,9 32,9 h 64 c 13.29599,0 24,10.704013 24,24 V 32 C 120,18.704027 109.29597,8 96,8 Z" />
</svg>
