<?xml version="1.0" encoding="UTF-8" standalone="no"?>
<!-- Created with Inkscape (http://www.inkscape.org/) -->

<svg
   width="128"
   height="128"
   viewBox="0 0 128 128"
   version="1.1"
   id="svg5"
   inkscape:version="1.3.2 (091e20ef0f, 2023-11-25, custom)"
   sodipodi:docname="kleopatra.svg"
   xmlns:inkscape="http://www.inkscape.org/namespaces/inkscape"
   xmlns:sodipodi="http://sodipodi.sourceforge.net/DTD/sodipodi-0.dtd"
   xmlns="http://www.w3.org/2000/svg"
   xmlns:svg="http://www.w3.org/2000/svg">
  <sodipodi:namedview
     id="namedview7"
     pagecolor="#ffffff"
     bordercolor="#000000"
     borderopacity="0.25"
     inkscape:showpageshadow="2"
     inkscape:pageopacity="0.0"
     inkscape:pagecheckerboard="0"
     inkscape:deskcolor="#d1d1d1"
     inkscape:document-units="px"
     showgrid="false"
     inkscape:zoom="6.2109375"
     inkscape:cx="63.919497"
     inkscape:cy="64"
     inkscape:window-width="1920"
     inkscape:window-height="1008"
     inkscape:window-x="0"
     inkscape:window-y="0"
     inkscape:window-maximized="1"
     inkscape:current-layer="svg5"
     showguides="false" />
  <defs
     id="defs2" />
  <rect
     style="opacity:0.2;fill:#000000;stroke-width:8;stroke-linecap:square"
     id="rect234"
     width="112"
     height="112"
     x="8"
     y="9"
     ry="24" />
  <rect
     style="fill:#d5a43a;fill-opacity:1;stroke-width:8;stroke-linecap:square"
     id="rect396"
     width="112"
     height="112"
     x="8"
     y="8"
     ry="24" />
  <path
     style="opacity:0.1;fill:#000000;stroke-width:2"
     d="m 57.241408,32.998194 c -7.366024,0 -15.124248,1.915498 -23.097656,5.699218 -6.490138,3.079842 -9.265116,5.620864 -7.73047,7.082032 0.541354,0.515442 0.16704,0.622758 9.257814,-2.75 6.212692,-2.304952 13.85376,-4.249584 17.984374,-4.582032 6.37802,-0.513326 13.97429,1.08289 27.421874,5.757814 4.829066,1.678776 10.382492,3.442136 12.339844,3.917968 4.186176,1.017652 4.627032,0.859808 8.117192,0.871094 l 2.46484,0.004 V 47.0021 c 0,-2.276818 -0.28436,-2.09375 -3.30078,-2.09375 -6.724748,0 -8.402202,-1.031972 -18.523438,-5.30078 C 71.334258,35.03523 64.76686,32.998194 57.241408,32.998194 Z M 52.71797,49.021632 c -1.143332,0.04196 -2.163658,0.14734 -2.984374,0.316406 -3.785292,0.779696 -8.855462,3.613048 -11.964844,6.48828 -4.81967,4.456736 -10.267818,12.78966 -9.734376,14.890626 0.24022,0.946088 0.495402,1.010106 4.742188,1.1875 2.465308,0.103 7.293474,0.661616 11.078124,1.238282 l 6.964844,1.042968 v 2.933594 c -1.187072,5.3766 -0.340128,8.280152 -0.1289,10.238282 0.791088,7.086894 0.801366,7.858204 2.632812,7.601562 2.829192,-4.599142 2.752938,-13.420666 2.773438,-18.503906 l 2.88672,2.796874 c 7.909018,6.975882 10.838066,7.476704 17.621092,10.738282 5.610294,2.286688 10.42033,3.299882 15.839844,2.90625 3.331478,0 7.537706,-3.692388 7.535156,-7.960938 -0.0014,-3.291418 -0.929306,-6.071474 -3.183592,-7.128906 -4.144258,-1.943956 -8.738282,0.361434 -8.738282,4.675782 0,4.234412 4.081084,6.586998 6.789062,3.910156 1.129608,-1.116628 1.407638,-3.000254 0.605468,-4.132814 -0.356014,-0.502662 -0.39417,-0.418794 -0.17188,0.359376 0.767216,2.685448 -1.324736,4.546156 -3.730468,3.316406 -2.514198,-1.28519 -2.038084,-5.413662 0.703124,-6.09375 1.35403,-0.335942 3.72549,1.8336 4.613282,3.625 0.478424,0.965336 0.496074,1.553352 0.08594,2.90625 -1.345218,4.438312 -7.390112,4.460936 -16.48828,0.07422 -2.205346,-1.063322 -5.162606,-2.667018 -6.570312,-3.566406 -2.42623,-1.55012 -5.585698,-3.450732 -9.820314,-7.128906 -2.243278,-1.94852 -2.37021,-1.681534 3.48047,-2.625 1.682068,-0.271222 6.600482,-1.683636 10.92578,-3.136718 7.684104,-2.581456 7.976034,-3.189262 12.671876,-3.222656 2.643252,-0.019 -1.748678,-0.18466 2.636718,0.004 l 8.210934,0.339748 V 63.228662 58.955226 L 92.479688,58.72085 C 79.205796,58.376234 85.67675,58.070106 71.975782,52.838038 69.359588,51.83898 66.570692,50.631234 64.741408,50.15835 61.497392,49.319738 56.147954,48.895782 52.71797,49.021632 Z m 15.542968,6.808594 c 0.15906,0 2.42324,1.270674 6.07422,2.816406 3.65098,1.545728 7.112124,2.923652 7.6875,3.066406 0.575398,0.14278 1.042968,0.41462 1.042968,0.597656 0,0.18304 -2.210736,1.419214 -4.914062,2.746094 -5.51298,2.705936 -8.782486,3.840132 -14.109376,4.101562 l -1.3125,0.05468 1.41797,-1.105468 c 0.781106,-0.608522 1.960424,-2.014042 2.621094,-3.125 1.048174,-1.76255 1.203124,-2.473016 1.203124,-5.582032 0,-1.959642 0.13,-3.570318 0.289062,-3.570312 z m -22.98828,0.941406 c 0.654782,-0.12266 0.65011,0.881432 0.65625,2.886718 0.0124,3.946252 0.970792,6.096608 3.726562,8.359376 l 1.800782,1.476562 -9.265626,-0.777344 c -4.500342,-0.424356 -7.995156,-0.86374 -8.117188,-0.984374 -0.437402,-0.432356 2.778624,-3.73639 6.316406,-7.093752 2.634142,-2.499796 4.228028,-3.744548 4.882814,-3.867186 z"
     id="path2" />
  <path
     style="fill:#482f00;stroke-width:2"
     d="m 57.241408,32 c -7.366024,0 -15.124248,1.915498 -23.097656,5.699218 -6.490138,3.079842 -9.265116,5.620864 -7.73047,7.082032 0.541354,0.515442 0.16704,0.622758 9.257814,-2.75 6.212692,-2.304952 13.85376,-4.249584 17.984374,-4.582032 6.37802,-0.513326 13.97429,1.08289 27.421874,5.757814 4.829066,1.678776 10.382492,3.442136 12.339844,3.917968 4.186176,1.017652 4.627032,0.859808 8.117192,0.871094 L 103.99922,48 v -1.996094 c 0,-2.276818 -0.28436,-2.09375 -3.30078,-2.09375 -6.724748,0 -8.402202,-1.031972 -18.523438,-5.30078 C 71.334258,34.037036 64.76686,32 57.241408,32 Z M 52.71797,48.023438 c -1.143332,0.04196 -2.163658,0.14734 -2.984374,0.316406 -3.785292,0.779696 -8.855462,3.613048 -11.964844,6.48828 -4.81967,4.456736 -10.267818,12.78966 -9.734376,14.890626 0.24022,0.946088 0.495402,1.010106 4.742188,1.1875 2.465308,0.103 7.293474,0.661616 11.078124,1.238282 l 6.964844,1.042968 v 2.933594 c -1.187072,5.3766 -0.340128,8.280152 -0.1289,10.238282 0.791088,7.086894 0.801366,7.858204 2.632812,7.601562 2.829192,-4.599142 2.752938,-13.420666 2.773438,-18.503906 l 2.88672,2.796874 c 7.909018,6.975882 10.838066,7.476704 17.621092,10.738282 5.610294,2.286688 10.42033,3.299882 15.839844,2.90625 3.331478,0 7.537706,-3.692388 7.535156,-7.960938 -0.0014,-3.291418 -0.929306,-6.071474 -3.183592,-7.128906 -4.144258,-1.943956 -8.738282,0.361434 -8.738282,4.675782 0,4.234412 4.081084,6.586998 6.789062,3.910156 1.129608,-1.116628 1.407638,-3.000254 0.605468,-4.132814 -0.356014,-0.502662 -0.39417,-0.418794 -0.17188,0.359376 0.767216,2.685448 -1.324736,4.546156 -3.730468,3.316406 -2.514198,-1.28519 -2.038084,-5.413662 0.703124,-6.09375 1.35403,-0.335942 3.72549,1.8336 4.613282,3.625 0.478424,0.965336 0.496074,1.553352 0.08594,2.90625 -1.345218,4.438312 -7.390112,4.460936 -16.48828,0.07422 -2.205346,-1.063322 -5.162606,-2.667018 -6.570312,-3.566406 -2.42623,-1.55012 -5.585698,-3.450732 -9.820314,-7.128906 -2.243278,-1.94852 -2.37021,-1.681534 3.48047,-2.625 1.682068,-0.271222 6.600482,-1.683636 10.92578,-3.136718 7.684104,-2.581456 7.976034,-3.189262 12.671876,-3.222656 2.643252,-0.019 -1.748678,-0.18466 2.636718,0.004 l 8.210934,0.339748 V 62.230468 57.957032 L 92.479688,57.722656 C 79.205796,57.37804 85.67675,57.071912 71.975782,51.839844 69.359588,50.840786 66.570692,49.63304 64.741408,49.160156 61.497392,48.321544 56.147954,47.897588 52.71797,48.023438 Z m 15.542968,6.808594 c 0.15906,0 2.42324,1.270674 6.07422,2.816406 3.65098,1.545728 7.112124,2.923652 7.6875,3.066406 0.575398,0.14278 1.042968,0.41462 1.042968,0.597656 0,0.18304 -2.210736,1.419214 -4.914062,2.746094 -5.51298,2.705936 -8.782486,3.840132 -14.109376,4.101562 l -1.3125,0.05468 1.41797,-1.105468 c 0.781106,-0.608522 1.960424,-2.014042 2.621094,-3.125 1.048174,-1.76255 1.203124,-2.473016 1.203124,-5.582032 0,-1.959642 0.13,-3.570318 0.289062,-3.570312 z m -22.98828,0.941406 c 0.654782,-0.12266 0.65011,0.881432 0.65625,2.886718 0.0124,3.946252 0.970792,6.096608 3.726562,8.359376 l 1.800782,1.476562 -9.265626,-0.777344 c -4.500342,-0.424356 -7.995156,-0.86374 -8.117188,-0.984374 -0.437402,-0.432356 2.778624,-3.73639 6.316406,-7.093752 2.634142,-2.499796 4.228028,-3.744548 4.882814,-3.867186 z"
     id="path3" />
  <path
     id="path1040"
     style="opacity:0.2;fill:#ffffff;stroke-width:8;stroke-linecap:square"
     d="M 32,8 C 18.70404,8 8,18.70404 8,32 v 1 C 8,19.704042 18.70404,9 32,9 h 64 c 13.29596,0 24,10.704042 24,24 V 32 C 120,18.70404 109.29596,8 96,8 Z" />
</svg>
