<?xml version="1.0" encoding="UTF-8" standalone="no"?>
<!-- Created with Inkscape (http://www.inkscape.org/) -->

<svg
   width="128"
   height="128"
   viewBox="0 0 128 128"
   version="1.1"
   id="svg5"
   inkscape:version="1.3 (0e150ed6c4, 2023-07-21)"
   sodipodi:docname="kmahjongg.svg"
   xmlns:inkscape="http://www.inkscape.org/namespaces/inkscape"
   xmlns:sodipodi="http://sodipodi.sourceforge.net/DTD/sodipodi-0.dtd"
   xmlns="http://www.w3.org/2000/svg"
   xmlns:svg="http://www.w3.org/2000/svg">
  <sodipodi:namedview
     id="namedview7"
     pagecolor="#ffffff"
     bordercolor="#000000"
     borderopacity="0.25"
     inkscape:showpageshadow="2"
     inkscape:pageopacity="0.0"
     inkscape:pagecheckerboard="0"
     inkscape:deskcolor="#d1d1d1"
     inkscape:document-units="px"
     showgrid="false"
     inkscape:zoom="6.1171875"
     inkscape:cx="63.918263"
     inkscape:cy="64"
     inkscape:window-width="1920"
     inkscape:window-height="984"
     inkscape:window-x="0"
     inkscape:window-y="29"
     inkscape:window-maximized="1"
     inkscape:current-layer="svg5" />
  <defs
     id="defs2" />
  <rect
     style="opacity:0.2;fill:#000000;stroke-width:8;stroke-linecap:square"
     id="rect234"
     width="112"
     height="112"
     x="8"
     y="9"
     ry="24" />
  <rect
     style="fill:#c2352a;fill-opacity:1;stroke-width:8;stroke-linecap:square"
     id="rect396"
     width="112"
     height="112"
     x="8"
     y="8"
     ry="24" />
  <path
     opacity="0.2"
     d="m 54.63536,21.72128 c -0.6564,0.57896 -0.82048,1.44736 -0.82048,2.46052 0,1.8816 0.65636,4.1972 0.98456,5.0656 0,0 0.49232,10.1316 0.6564,11.2896 -1.47688,0.14472 -4.1024,0.28948 -5.0868,0.57892 h -1.31276 c -2.78964,0.14476 -5.4152,0.28948 -6.564,1.30264 L 42,42.85276 l 0.49228,0.57896 c 0.82048,0.8684 1.14868,3.32896 1.47688,5.9344 0.82048,5.3552 1.805,12.0132 6.728,14.6184 l 0.98456,0.4342 v -1.01316 c 0,0 0.1644,-0.4342 0.1644,-1.01316 0,-0.4342 -0.1644,-1.15792 -0.328,-2.17104 1.31276,0.14472 4.1024,0.4342 5.0868,0.4342 0.16396,1.15788 4.4304,48.344 4.4304,48.344 h 1.64096 c 0,0 1.80508,-46.604 1.80508,-48.052 1.14864,0 6.2356,0.14472 7.7124,0.28948 -0.328,0.86844 -1.64092,4.4868 -1.64092,4.4868 l 2.29732,-1.8816 c 0.6564,-0.4342 14.9328,-11.8684 12.9636,-19.3948 -0.6564,-2.46052 -2.95372,-4.1972 -6.728,-5.0656 h -0.3288 c -2.13324,0 -8.6972,0.14472 -13.62,0.4342 0.1644,-3.76316 0.1644,-5.7896 0.1644,-6.8028 v -1.3026 c 0,-0.72368 0.82048,-1.73684 1.47688,-2.46052 0.6564,-0.8684 1.47688,-1.59212 1.47688,-2.46052 0,-0.28948 -0.1644,-0.57896 -0.328,-0.8684 -0.98456,-1.30264 -8.2048,-4.6316 -11.3224,-4.9212 -0.98456,0.14472 -1.64096,0.28948 -1.96916,0.72368 z m 0.1644,23.7368 h 0.82048 c 0,1.30264 0.49228,10.4212 0.65636,11.7236 -1.31276,-0.14476 -4.4304,-0.4342 -5.4152,-0.4342 -0.49228,-1.8816 -0.6564,-3.90792 -0.82048,-5.9344 -0.164,-1.73684 -0.328,-3.47368 -0.6564,-5.0656 1.47688,0 5.4152,-0.28948 5.4152,-0.28948 z m 10.01,4.4868 c 0,0 0.164,-3.47368 0.164,-4.6316 2.1332,0.28948 4.9228,0.4342 7.5484,0.4342 h 2.95372 c 0,0.57896 -0.1644,1.30264 -0.1644,1.30264 -0.328,3.1842 -0.82048,6.9472 -2.29736,10.7104 -0.98452,0 -7.056,-0.28948 -8.3688,-0.4342 0,-1.01316 0.1644,-7.3816 0.1644,-7.3816 z"
     id="path3"
     style="fill:#000000;stroke-width:4" />
  <path
     fill="#ffffff"
     d="m 54.63536,20.72128 c -0.6564,0.57896 -0.82048,1.44736 -0.82048,2.46052 0,1.8816 0.65636,4.1972 0.98456,5.0656 0,0 0.49232,10.1316 0.6564,11.2896 -1.47688,0.14472 -4.1024,0.28948 -5.0868,0.57892 h -1.31276 c -2.78964,0.14476 -5.4152,0.28948 -6.564,1.30264 L 42,41.85276 l 0.49228,0.57896 c 0.82048,0.8684 1.14868,3.32896 1.47688,5.9344 0.82048,5.3552 1.805,12.0132 6.728,14.6184 l 0.98456,0.4342 v -1.01316 c 0,0 0.1644,-0.4342 0.1644,-1.01316 0,-0.4342 -0.1644,-1.15792 -0.328,-2.17104 1.31276,0.14472 4.1024,0.4342 5.0868,0.4342 0.16396,1.15788 4.4304,48.344 4.4304,48.344 h 1.64096 c 0,0 1.80508,-46.604 1.80508,-48.052 1.14864,0 6.2356,0.14472 7.7124,0.28948 -0.328,0.86844 -1.64092,4.4868 -1.64092,4.4868 l 2.29732,-1.8816 c 0.6564,-0.4342 14.9328,-11.8684 12.9636,-19.3948 -0.6564,-2.46052 -2.95372,-4.1972 -6.728,-5.0656 h -0.3288 c -2.13324,0 -8.6972,0.14472 -13.62,0.4342 0.1644,-3.76316 0.1644,-5.7896 0.1644,-6.8028 v -1.3026 c 0,-0.72368 0.82048,-1.73684 1.47688,-2.46052 0.6564,-0.8684 1.47688,-1.59212 1.47688,-2.46052 0,-0.28948 -0.1644,-0.57896 -0.328,-0.8684 -0.98456,-1.30264 -8.2048,-4.6316 -11.3224,-4.9212 -0.98456,0.14472 -1.64096,0.28948 -1.96916,0.72368 z m 0.1644,23.7368 h 0.82048 c 0,1.30264 0.49228,10.4212 0.65636,11.7236 -1.31276,-0.14476 -4.4304,-0.4342 -5.4152,-0.4342 -0.49228,-1.8816 -0.6564,-3.90792 -0.82048,-5.9344 -0.164,-1.73684 -0.328,-3.47368 -0.6564,-5.0656 1.47688,0 5.4152,-0.28948 5.4152,-0.28948 z m 10.01,4.4868 c 0,0 0.164,-3.47368 0.164,-4.6316 2.1332,0.28948 4.9228,0.4342 7.5484,0.4342 h 2.95372 c 0,0.57896 -0.1644,1.30264 -0.1644,1.30264 -0.328,3.1842 -0.82048,6.9472 -2.29736,10.7104 -0.98452,0 -7.056,-0.28948 -8.3688,-0.4342 0,-1.01316 0.1644,-7.3816 0.1644,-7.3816 z"
     id="path4"
     style="stroke-width:4" />
  <path
     id="path1040"
     style="opacity:0.2;fill:#ffffff;stroke-width:8;stroke-linecap:square"
     d="M 32,8 C 18.70404,8 8,18.70404 8,32 v 1 C 8,19.704042 18.70404,9 32,9 h 64 c 13.29596,0 24,10.704042 24,24 V 32 C 120,18.70404 109.29596,8 96,8 Z" />
</svg>
