<?xml version="1.0" encoding="UTF-8" standalone="no"?>
<!-- Created with Inkscape (http://www.inkscape.org/) -->

<svg
   width="128"
   height="128"
   viewBox="0 0 128 128"
   version="1.1"
   id="svg5"
   inkscape:version="1.3 (1:1.3+202307231459+0e150ed6c4)"
   sodipodi:docname="KoboDeluxe.svg"
   xmlns:inkscape="http://www.inkscape.org/namespaces/inkscape"
   xmlns:sodipodi="http://sodipodi.sourceforge.net/DTD/sodipodi-0.dtd"
   xmlns="http://www.w3.org/2000/svg"
   xmlns:svg="http://www.w3.org/2000/svg">
  <sodipodi:namedview
     id="namedview7"
     pagecolor="#ffffff"
     bordercolor="#000000"
     borderopacity="0.25"
     inkscape:showpageshadow="2"
     inkscape:pageopacity="0.0"
     inkscape:pagecheckerboard="0"
     inkscape:deskcolor="#d1d1d1"
     inkscape:document-units="px"
     showgrid="false"
     inkscape:zoom="5.609375"
     inkscape:cx="64"
     inkscape:cy="63.910864"
     inkscape:window-width="1920"
     inkscape:window-height="1008"
     inkscape:window-x="0"
     inkscape:window-y="0"
     inkscape:window-maximized="1"
     inkscape:current-layer="svg5" />
  <defs
     id="defs2" />
  <rect
     style="opacity:0.2;fill:#000000;stroke-width:8;stroke-linecap:square"
     id="rect234"
     width="112"
     height="112"
     x="8"
     y="9"
     ry="24" />
  <rect
     style="fill:#4d4d4d;fill-opacity:1;stroke-width:8;stroke-linecap:square"
     id="rect396"
     width="112"
     height="112"
     x="8"
     y="8"
     ry="24" />
  <path
     d="m 64.046093,25.007458 c -2.672561,-0.11772 -5.192001,1.165584 -6.529641,3.325976 L 24.25105,82.052649 c -1.29356,5.197677 2.55244,9.063793 8.304801,11.898801 10.79,5.3178 28.287321,7.00768 31.152602,7.05259 4.7244,0.10284 19.040721,-2.11277 29.262361,-6.268314 7.774916,-3.160848 13.180806,-7.444064 10.194556,-12.683077 L 69.900013,28.333434 c -1.21692,-1.965396 -3.42264,-3.218604 -5.85392,-3.325976 z"
     style="opacity:0.2;fill:#000000;stroke-width:4"
     id="path2440" />
  <path
     d="m 63.999813,25.000002 c -0.0832,0 -0.1596,0.0216 -0.242,0.0236 -0.60556,0.0124 -1.19356,0.08176 -1.773441,0.17968 -1.85416,0.431164 -3.48448,1.535344 -4.46876,3.125 l -5.5156,8.906249 v 55.765627 c 0,8.000002 4,12.000002 12.000001,12.000002 8,0 12,-4 12,-12.000002 V 38.179691 l -6.10156,-9.851565 c -1.20468,-1.945648 -3.37892,-3.183452 -5.78124,-3.3125 -0.032,-3.16e-4 -0.0616,-0.0156 -0.0936,-0.0156 -0.008,-1.6e-5 -0.016,0 -0.024,0 z"
     style="opacity:0.2;fill:#000000;stroke-width:4"
     id="path2412" />
  <path
     d="m 64.046093,24.007458 c -2.672561,-0.11772 -5.192001,1.165584 -6.529641,3.325976 L 24.25105,81.052649 c -1.2936,5.197677 2.55244,9.063793 8.304801,11.898801 10.79,5.317796 28.287321,7.007676 31.152602,7.05259 4.7244,0.10284 19.040721,-2.11277 29.262361,-6.268314 7.774916,-3.160848 13.180806,-7.444064 10.194556,-12.683077 L 69.900013,27.333434 c -1.21692,-1.965396 -3.42264,-3.218604 -5.85392,-3.325976 z"
     style="fill:#8e8e8e;stroke-width:4"
     id="path2001"
     sodipodi:nodetypes="sccscsccs" />
  <path
     d="m 64.000013,24.000002 c -0.0832,0 -0.1596,0.0216 -0.242,0.0236 -0.60556,0.0124 -1.19356,0.08176 -1.773441,0.17968 -1.85416,0.431164 -3.48448,1.535344 -4.46876,3.125 l -5.5156,8.906249 v 55.765627 c 0,8.000002 4,12.000002 12.000001,12.000002 8,0 12,-4 12,-12.000002 V 37.179691 l -6.10156,-9.851565 c -1.20468,-1.945648 -3.37892,-3.183452 -5.78124,-3.3125 -0.032,-3.16e-4 -0.0616,-0.0156 -0.0936,-0.0156 -0.008,-1.6e-5 -0.016,0 -0.024,0 z"
     style="fill:#686868;stroke-width:4"
     id="path1973"
     sodipodi:nodetypes="sccccssscccsss" />
  <path
     id="path2029"
     style="opacity:0.1;fill:#ffffff;stroke-width:4"
     d="M 64.042969 24.007812 C 61.37041 23.890093 58.849357 25.175548 57.511719 27.335938 L 24.246094 81.054688 C 24.029032 81.926386 23.970514 82.753852 24.029297 83.550781 C 24.059872 83.062899 24.124133 82.56633 24.251953 82.052734 L 57.515625 28.333984 C 58.853264 26.173595 61.374317 24.890093 64.046875 25.007812 C 66.478153 25.115184 68.683472 26.36859 69.900391 28.333984 L 103.16602 82.052734 C 103.6204 82.849894 103.8583 83.622685 103.94531 84.375 C 104.0414 83.314533 103.81978 82.211652 103.16016 81.054688 L 69.894531 27.335938 C 68.677612 25.370543 66.474246 24.115184 64.042969 24.007812 z " />
  <circle
     style="fill:#64abf5;fill-opacity:1;stroke-width:8;stroke-linecap:square"
     id="path1756"
     cx="64.000015"
     cy="74"
     r="10.000001" />
  <path
     id="rect2288"
     style="opacity:0.2;fill:#000000;fill-opacity:1;stroke-width:8;stroke-linecap:square"
     d="m 40.000011,53.000004 c -2.216,0 -4,2.676004 -4,6 v 36.000002 c 0,3.323996 1.784,6.000004 4,6.000004 2.216,0 4,-2.676008 4,-6.000004 V 59.000004 c 0,-3.323996 -1.784,-6 -4,-6 z m 48.000003,0 c -2.216,0 -4,2.676004 -4,6 v 36.000002 c 0,3.323996 1.784,6.000004 4,6.000004 2.216,0 4,-2.676008 4,-6.000004 V 59.000004 c 0,-3.323996 -1.784,-6 -4,-6 z" />
  <rect
     style="fill:#afafb1;fill-opacity:1;stroke-width:8;stroke-linecap:square"
     id="rect2077"
     width="8"
     height="48.000004"
     x="36.000015"
     y="52"
     rx="6.0000005"
     ry="6.0000005" />
  <rect
     style="fill:#afafb1;fill-opacity:1;stroke-width:8;stroke-linecap:square"
     id="rect2286"
     width="8"
     height="48.000004"
     x="84.000015"
     y="52"
     rx="6.0000005"
     ry="6.0000005" />
  <path
     id="rect2346"
     style="opacity:0.1;fill:#ffffff;fill-opacity:1;stroke-width:8;stroke-linecap:square"
     d="M 40 52 C 37.784002 52 36 54.676011 36 58 L 36 59 C 36 55.676007 37.784002 53 40 53 C 42.215998 53 44 55.676007 44 59 L 44 58 C 44 54.676011 42.215998 52 40 52 z M 88 52 C 85.784002 52 84 54.676011 84 58 L 84 59 C 84 55.676007 85.784002 53 88 53 C 90.215995 53 92 55.676007 92 59 L 92 58 C 92 54.676011 90.215998 52 88 52 z " />
  <path
     id="path1040"
     style="opacity:0.1;fill:#ffffff;stroke-width:8;stroke-linecap:square"
     d="M 32,8 C 18.704026,8 8,18.704027 8,32 v 1 C 8,19.704013 18.704013,9 32,9 h 64 c 13.29599,0 24,10.704013 24,24 V 32 C 120,18.704027 109.29597,8 96,8 Z" />
</svg>
