<?xml version="1.0" encoding="UTF-8" standalone="no"?>
<!-- Created with Inkscape (http://www.inkscape.org/) -->

<svg
   width="128"
   height="128"
   viewBox="0 0 128 128"
   version="1.1"
   id="svg5"
   inkscape:version="1.2.2 (1:1.2.2+202305151914+b0a8486541)"
   sodipodi:docname="microsoft.svg"
   xmlns:inkscape="http://www.inkscape.org/namespaces/inkscape"
   xmlns:sodipodi="http://sodipodi.sourceforge.net/DTD/sodipodi-0.dtd"
   xmlns="http://www.w3.org/2000/svg"
   xmlns:svg="http://www.w3.org/2000/svg">
  <sodipodi:namedview
     id="namedview7"
     pagecolor="#ffffff"
     bordercolor="#000000"
     borderopacity="0.25"
     inkscape:showpageshadow="2"
     inkscape:pageopacity="0.0"
     inkscape:pagecheckerboard="0"
     inkscape:deskcolor="#d1d1d1"
     inkscape:document-units="px"
     showgrid="false"
     inkscape:zoom="6.296875"
     inkscape:cx="63.920596"
     inkscape:cy="64"
     inkscape:window-width="1920"
     inkscape:window-height="1008"
     inkscape:window-x="0"
     inkscape:window-y="0"
     inkscape:window-maximized="1"
     inkscape:current-layer="svg5" />
  <defs
     id="defs2" />
  <rect
     style="opacity:0.2;fill:#000000;stroke-width:8;stroke-linecap:square"
     id="rect234"
     width="112"
     height="112"
     x="8"
     y="9"
     ry="24" />
  <rect
     style="fill:#efefef;fill-opacity:1;stroke-width:8;stroke-linecap:square"
     id="rect396"
     width="112"
     height="112"
     x="8"
     y="8"
     ry="24" />
  <path
     id="rect7426"
     style="opacity:0.2;fill:#000000;fill-opacity:1;stroke-width:20;stroke-linecap:round;stroke-linejoin:round"
     d="M 28,29 V 61 H 60 V 29 Z m 40,0 v 32 h 32 V 29 Z M 28,69 v 32 H 60 V 69 Z m 40,0 v 32 h 32 V 69 Z" />
  <rect
     style="fill:#eb572a;fill-opacity:1;stroke-width:20;stroke-linecap:round;stroke-linejoin:round"
     id="rect6589"
     width="32"
     height="32"
     x="28"
     y="28" />
  <rect
     style="fill:#79a61c;fill-opacity:1;stroke-width:20;stroke-linecap:round;stroke-linejoin:round"
     id="rect6850"
     width="32"
     height="32"
     x="67.999992"
     y="28" />
  <rect
     style="fill:#459ee9;fill-opacity:1;stroke-width:20;stroke-linecap:round;stroke-linejoin:round"
     id="rect7042"
     width="32"
     height="32"
     x="28"
     y="67.999992" />
  <rect
     style="fill:#ffba08;fill-opacity:1;stroke-width:20;stroke-linecap:round;stroke-linejoin:round"
     id="rect7165"
     width="32"
     height="32"
     x="67.999992"
     y="67.999992" />
  <path
     id="path1040"
     style="opacity:0.2;fill:#ffffff;stroke-width:8;stroke-linecap:square"
     d="M 32,8 C 18.704026,8 8,18.704027 8,32 v 1 C 8,19.704013 18.704013,9 32,9 h 64 c 13.29599,0 24,10.704013 24,24 V 32 C 120,18.704027 109.29597,8 96,8 Z" />
</svg>
