<?xml version="1.0" encoding="UTF-8" standalone="no"?>
<!-- Created with Inkscape (http://www.inkscape.org/) -->

<svg
   width="128"
   height="128"
   viewBox="0 0 128 128"
   version="1.1"
   id="svg5"
   inkscape:version="1.3 (0e150ed6c4, 2023-07-21)"
   sodipodi:docname="ms-outlook.svg"
   xmlns:inkscape="http://www.inkscape.org/namespaces/inkscape"
   xmlns:sodipodi="http://sodipodi.sourceforge.net/DTD/sodipodi-0.dtd"
   xmlns="http://www.w3.org/2000/svg"
   xmlns:svg="http://www.w3.org/2000/svg">
  <sodipodi:namedview
     id="namedview7"
     pagecolor="#ffffff"
     bordercolor="#000000"
     borderopacity="0.25"
     inkscape:showpageshadow="2"
     inkscape:pageopacity="0.0"
     inkscape:pagecheckerboard="0"
     inkscape:deskcolor="#d1d1d1"
     inkscape:document-units="px"
     showgrid="false"
     inkscape:zoom="6.1171875"
     inkscape:cx="64"
     inkscape:cy="64"
     inkscape:window-width="1920"
     inkscape:window-height="984"
     inkscape:window-x="0"
     inkscape:window-y="29"
     inkscape:window-maximized="1"
     inkscape:current-layer="svg5" />
  <defs
     id="defs2" />
  <rect
     style="opacity:0.2;fill:#000000;stroke-width:8;stroke-linecap:square"
     id="rect234"
     width="112"
     height="112"
     x="8"
     y="9"
     ry="24" />
  <rect
     style="fill:#efefef;fill-opacity:1;stroke-width:8;stroke-linecap:square"
     id="rect396"
     width="112"
     height="112"
     x="8"
     y="8"
     ry="24" />
  <path
     style="fill:#0364b8;stroke-width:4"
     d="M 99.786692,24 H 48.212076 c -2.326304,2e-6 -4.212112,1.7961 -4.211996,4.011628 v 4.5598 L 46.142936,72 h 27.85714 l 27.857144,-2 2.14168,-37.428572 v -4.56 C 103.99882,25.795934 102.11296,23.99997 99.786692,24 Z"
     id="path1" />
  <path
     style="opacity:0.2;stroke-width:4"
     d="m 108.00008,65 a 1.8869982,1.9028571 0 0 1 -0.94531,1.64844 l -0.0352,0.0236 -0.0116,0.004 -30.707034,17.64062 a 4.2407024,4.2763428 0 0 1 -4.136716,0.26172 l 0.0236,0.0272 -31.195316,-17.917968 v -0.0312 h -0.0272 l -0.08596,-0.05468 A 1.8435916,1.8590857 0 0 1 40.00018,65.054688 V 100.71484 A 4.2443292,4.28 0 0 0 44.25008,105 h 59.5 a 4.2574756,4.2932568 0 0 0 1.04688,-0.14452 1.8046332,1.8198 0 0 0 0.51171,-0.16796 0.40168128,0.40505712 0 0 0 0.16796,-0.0586 2.9679704,2.9929142 0 0 0 0.65235,-0.37108 c 0.0567,-0.0284 0.085,-0.0288 0.11328,-0.086 v 0.012 a 4.2430824,4.2787428 0 0 0 1.75782,-3.46904 z"
     id="path2" />
  <path
     style="fill:#0a2767;stroke-width:4"
     d="m 107.00812,68.015656 c 0.41511,-1.315468 0.74643,-2.656344 0.99195,-4.014428 -1.2e-4,-0.680036 -0.36016,-1.308308 -0.94438,-1.647972 v -0.0014 l -0.0364,-0.0208 -0.0112,-0.0064 -30.706898,-17.640172 c -0.13276,-0.08648 -0.27024,-0.16544 -0.41174,-0.23648 v -1.68e-4 c -1.19006,-0.595236 -2.587648,-0.595236 -3.777708,0 l -1.68e-4,1.68e-4 c -0.14148,0.071 -0.27888,0.14996 -0.4116,0.23648 l -30.706984,17.6404 -0.0116,0.0064 -0.036,0.0208 v 0.0014 c -0.584192,0.33968 -0.944212,0.967948 -0.944376,1.647972 0.24552,1.358032 0.576844,2.698856 0.99192,4.014284 l 32.559816,24.014288 z"
     id="path3" />
  <path
     style="fill:#0078d4;stroke-width:4"
     d="M 44.00008,32 H 64.000076 V 50 H 44.00008 Z"
     id="path4" />
  <path
     style="fill:#28a8ea;stroke-width:4"
     d="M 64.000084,32 H 84.00008 V 50 H 64.000084 Z"
     id="path5" />
  <path
     style="fill:#50d9ff;stroke-width:4"
     d="m 84.00008,32 h 20 v 18 h -20 z"
     id="path6" />
  <path
     style="fill:#0364b8;stroke-width:4"
     d="M 44.00008,50 H 64.000076 V 68 H 44.00008 Z"
     id="path7" />
  <path
     style="fill:#0078d4;stroke-width:4"
     d="M 64.000084,50 H 84.00008 V 68 H 64.000084 Z"
     id="path8" />
  <path
     style="fill:#28a8ea;stroke-width:4"
     d="m 84.00008,50 h 20 v 18 h -20 z"
     id="path9" />
  <path
     style="fill:#064a8c;stroke-width:4"
     d="M 44.00008,68 H 64.000076 V 86 H 44.00008 Z"
     id="path10" />
  <path
     style="fill:#0364b8;stroke-width:4"
     d="M 64.000084,68 H 84.00008 V 86 H 64.000084 Z"
     id="path11" />
  <path
     style="fill:#0078d4;stroke-width:4"
     d="m 84.00008,68 h 20 v 18 h -20 z"
     id="path12" />
  <path
     style="opacity:0.1;stroke-width:2.82842"
     d="m 44.00008,68 h 59.99999 v 1 H 44.00008 Z"
     id="path13" />
  <path
     style="fill:#1490df;stroke-width:4"
     d="m 107.0557,65.64794 v 0.0014 l -0.0376,0.0216 -0.01,0.0056 -30.707636,17.640568 a 4.2407024,4.2763428 0 0 1 -4.13794,0.26052 l 10.694916,14.459684 23.38646,5.134288 -8.6e-4,0.0128 a 4.2430824,4.2787428 0 0 0 1.75661,-3.470116 V 64.000252 a 1.8869982,1.9028571 0 0 1 -0.94437,1.647772 z"
     id="path14" />
  <path
     style="fill:#28a8ea;stroke-width:4"
     d="m 40.9918,65.685712 v -0.0284 h -0.0284 l -0.085,-0.05712 a 1.8435916,1.8590857 0 0 1 -0.878332,-1.6 V 99.71448 a 4.2443292,4.28 0 0 0 4.249996,4.28571 H 103.75 a 4.2574756,4.2932568 0 0 0 1.04834,-0.14288 1.8046332,1.8198 0 0 0 0.51,-0.1714 0.40168128,0.40505712 0 0 0 0.17,-0.0571 2.9679704,2.9929142 0 0 0 0.65166,-0.37144 c 0.0566,-0.0284 0.085,-0.0284 0.11332,-0.0857 z"
     id="path15" />
  <path
     style="opacity:0.1;stroke-width:2.82844"
     d="m 44.00008,50 h 59.99999 v 1 H 44.00008 Z"
     id="path17" />
  <path
     id="path20"
     style="opacity:0.1;fill:#ffffff;stroke-width:4"
     d="M 48.210938,24 C 45.885236,24.000852 43.999832,25.800672 44,28.015624 v 1 C 43.999832,26.800672 45.885236,25.000852 48.210938,25 H 99.789062 C 102.11636,24.9987 104.00009,26.799146 104,29.015624 v -1 C 104.00009,25.799146 102.11636,23.998728 99.789062,24 Z" />
  <rect
     style="opacity:0.1;fill:#000000;stroke-width:4;stroke-linecap:round;stroke-linejoin:round"
     id="rect670"
     width="44"
     height="44"
     x="20"
     y="41"
     ry="4" />
  <rect
     style="fill:#0087f0;fill-opacity:1;stroke-width:4;stroke-linecap:round;stroke-linejoin:round"
     id="rect672"
     width="44"
     height="44"
     x="20"
     y="40"
     ry="4" />
  <path
     style="fill:#ffffff;stroke-width:4"
     d="m 29.663396,54.9138 a 12.479455,11.704012 0 0 1 4.900312,-5.0772 14.818648,13.897852 0 0 1 7.788208,-1.83086 13.779176,12.92297 0 0 1 7.204584,1.73642 12.353032,11.585444 0 0 1 4.769504,4.850756 16.704077,15.666125 0 0 1 1.670336,7.134476 17.612619,16.518212 0 0 1 -1.720656,7.464764 12.651303,11.865181 0 0 1 -4.910428,5.020464 14.323131,13.433126 0 0 1 -7.47618,1.783636 14.112634,13.235709 0 0 1 -7.365568,-1.755308 12.547502,11.76783 0 0 1 -4.82991,-4.860132 16.292096,15.279744 0 0 1 -1.69048,-7.049528 18.071814,16.948874 0 0 1 1.660278,-7.417488 z m 5.222308,11.919092 a 8.1067124,7.6029808 0 0 0 2.757052,3.340724 7.1968868,6.7496896 0 0 0 4.30664,1.217392 7.5597428,7.0899984 0 0 0 4.598488,-1.255208 7.7681804,7.285484 0 0 0 2.67656,-3.350184 13.80538,12.947546 0 0 0 0.855304,-4.661936 15.109667,14.170788 0 0 0 -0.804984,-4.718584 7.9647396,7.46983 0 0 0 -2.586012,-3.472868 7.1249008,6.6821764 0 0 0 -4.558196,-1.321152 7.4403624,6.978036 0 0 0 -4.407276,1.226824 8.1805192,7.6722012 0 0 0 -2.817372,3.369052 14.253443,13.367768 0 0 0 -0.0204,9.62594 z"
     id="path19" />
  <path
     id="path1040"
     style="opacity:0.2;fill:#ffffff;stroke-width:8;stroke-linecap:square"
     d="M 32,8 C 18.70404,8 8,18.70404 8,32 v 1 C 8,19.704042 18.70404,9 32,9 h 64 c 13.29596,0 24,10.704042 24,24 V 32 C 120,18.70404 109.29596,8 96,8 Z" />
</svg>
