<?xml version="1.0" encoding="UTF-8" standalone="no"?>
<!-- Created with Inkscape (http://www.inkscape.org/) -->

<svg
   width="128"
   height="128"
   viewBox="0 0 128 128"
   version="1.1"
   id="svg5"
   inkscape:version="1.3 (1:1.3+202307231459+0e150ed6c4)"
   sodipodi:docname="ms-word.svg"
   xmlns:inkscape="http://www.inkscape.org/namespaces/inkscape"
   xmlns:sodipodi="http://sodipodi.sourceforge.net/DTD/sodipodi-0.dtd"
   xmlns="http://www.w3.org/2000/svg"
   xmlns:svg="http://www.w3.org/2000/svg">
  <sodipodi:namedview
     id="namedview7"
     pagecolor="#ffffff"
     bordercolor="#000000"
     borderopacity="0.25"
     inkscape:showpageshadow="2"
     inkscape:pageopacity="0.0"
     inkscape:pagecheckerboard="0"
     inkscape:deskcolor="#d1d1d1"
     inkscape:document-units="px"
     showgrid="false"
     inkscape:zoom="5.609375"
     inkscape:cx="64"
     inkscape:cy="63.910864"
     inkscape:window-width="1920"
     inkscape:window-height="1008"
     inkscape:window-x="0"
     inkscape:window-y="0"
     inkscape:window-maximized="1"
     inkscape:current-layer="svg5" />
  <defs
     id="defs2" />
  <rect
     style="opacity:0.2;fill:#000000;stroke-width:8;stroke-linecap:square"
     id="rect234"
     width="112"
     height="112"
     x="8"
     y="9"
     ry="24" />
  <rect
     style="fill:#efefef;fill-opacity:1;stroke-width:8;stroke-linecap:square"
     id="rect396"
     width="112"
     height="112"
     x="8"
     y="8"
     ry="24" />
  <rect
     style="opacity:0.2;fill:#000000;stroke-width:2;stroke-linecap:round;stroke-linejoin:round"
     id="rect1604"
     width="68"
     height="80"
     x="38"
     y="25"
     ry="4" />
  <path
     d="m 106,84 v 16 c 0,2.216 -1.784,4 -4,4 H 42 c -2.216,0 -4,-1.784 -4,-4 V 84 L 72,72 Z"
     style="fill:#103f91;fill-opacity:1;stroke-width:2"
     id="path497"
     sodipodi:nodetypes="cssssccc" />
  <path
     d="m 72,32 34,12 V 66 H 38 V 44 Z"
     style="fill:#2b7cd3;fill-opacity:1;stroke-width:2"
     id="path441"
     sodipodi:nodetypes="cccccc" />
  <path
     id="path364"
     style="fill:#41a5ee;fill-opacity:1;stroke-width:2"
     d="m 42,24 c -2.215998,0 -4,1.784002 -4,4 v 16 h 68 V 28 c 0,-2.215998 -1.784,-4 -4,-4 z"
     sodipodi:nodetypes="ssccsss" />
  <path
     d="m 38,64 h 68 V 84 H 38 Z"
     style="fill:#1650a7;fill-opacity:1;stroke-width:2"
     id="path469"
     sodipodi:nodetypes="ccccc" />
  <path
     id="path525"
     style="opacity:0.1;fill:#000000;stroke-width:2"
     d="m 38,44 v 1 h 68 v -1 z m 0,20 v 1 h 68 v -1 z m 0,20 v 1 h 68 v -1 z" />
  <path
     id="path553"
     style="opacity:0.1;fill:#ffffff;stroke-width:2"
     d="m 42,24 c -2.215998,0 -4,1.784002 -4,4 v 1 c 0,-2.215998 1.784002,-4 4,-4 h 60 c 2.216,0 4,1.784002 4,4 v -1 c 0,-2.215998 -1.784,-4 -4,-4 z" />
  <rect
     style="opacity:0.2;fill:#000000;stroke-width:2;stroke-linecap:round;stroke-linejoin:round"
     id="rect625"
     width="44"
     height="44"
     x="18"
     y="43"
     ry="4" />
  <rect
     style="fill:#185abd;fill-opacity:1;stroke-width:2;stroke-linecap:round;stroke-linejoin:round"
     id="rect627"
     width="44"
     height="44"
     x="18"
     y="42"
     ry="4" />
  <path
     style="fill:#ffffff;stroke-width:3"
     d="M 51.699986,78.99999 H 46.29999 L 39.999994,58.300002 33.399996,78.99999 H 27.999998 L 22,49.000006 h 5.399998 l 4.199998,20.99999 6.299996,-20.99999 h 4.499998 l 5.999998,20.99999 4.2,-20.99999 h 5.099998 z"
     id="path5910"
     sodipodi:nodetypes="cccccccccccccc" />
  <path
     id="path1040"
     style="opacity:0.2;fill:#ffffff;stroke-width:8;stroke-linecap:square"
     d="M 32,8 C 18.704026,8 8,18.704027 8,32 v 1 C 8,19.704013 18.704013,9 32,9 h 64 c 13.29599,0 24,10.704013 24,24 V 32 C 120,18.704027 109.29597,8 96,8 Z" />
</svg>
