<?xml version="1.0" encoding="UTF-8" standalone="no"?>
<!-- Created with Inkscape (http://www.inkscape.org/) -->

<svg
   width="128"
   height="128"
   viewBox="0 0 128 128"
   version="1.1"
   id="svg5"
   inkscape:version="1.3.2 (1:1.3.2+202404261509+091e20ef0f)"
   sodipodi:docname="mynotes.svg"
   xmlns:inkscape="http://www.inkscape.org/namespaces/inkscape"
   xmlns:sodipodi="http://sodipodi.sourceforge.net/DTD/sodipodi-0.dtd"
   xmlns="http://www.w3.org/2000/svg"
   xmlns:svg="http://www.w3.org/2000/svg">
  <sodipodi:namedview
     id="namedview7"
     pagecolor="#ffffff"
     bordercolor="#000000"
     borderopacity="0.25"
     inkscape:showpageshadow="2"
     inkscape:pageopacity="0.0"
     inkscape:pagecheckerboard="0"
     inkscape:deskcolor="#d1d1d1"
     inkscape:document-units="px"
     showgrid="false"
     inkscape:zoom="6.2421875"
     inkscape:cx="63.9199"
     inkscape:cy="64"
     inkscape:window-width="1920"
     inkscape:window-height="1006"
     inkscape:window-x="0"
     inkscape:window-y="0"
     inkscape:window-maximized="1"
     inkscape:current-layer="svg5" />
  <defs
     id="defs2" />
  <rect
     style="opacity:0.2;fill:#000000;stroke-width:8;stroke-linecap:square"
     id="rect234"
     width="112"
     height="112"
     x="8"
     y="9"
     ry="24" />
  <rect
     style="fill:#ffc104;fill-opacity:1;stroke-width:8;stroke-linecap:square"
     id="rect396"
     width="112"
     height="112"
     x="8"
     y="8"
     ry="24" />
  <path
     d="M 72,120 84,84 120,72 v 24 c 0,13.296 -10.704,24 -24,24 z"
     style="fill:#69390d;fill-opacity:1;stroke-width:6"
     id="path1" />
  <path
     d="M 120,72 72,120 V 96 C 72,82.704 82.704,72 96,72 Z"
     style="fill:#ffdd7a;fill-opacity:1;stroke-width:6"
     id="path3" />
  <path
     id="path1-6"
     style="opacity:0.2;fill:#ffffff;fill-opacity:1;stroke-width:6"
     d="M 96 72 C 82.704075 72 72 82.704079 72 96 L 72 97 C 72 83.704079 82.704075 73 96 73 L 119 73 L 120 72 L 96 72 z " />
  <path
     id="path1040"
     style="opacity:0.2;fill:#ffffff;stroke-width:8;stroke-linecap:square"
     d="M 32 8 C 18.704039 8 8 18.70404 8 32 L 8 33 C 8 19.704041 18.704039 9 32 9 L 96 9 C 109.29596 9 120 19.704041 120 33 L 120 32 C 120 18.70404 109.29596 8 96 8 L 32 8 z " />
</svg>
