<?xml version="1.0" encoding="UTF-8" standalone="no"?>
<!-- Created with Inkscape (http://www.inkscape.org/) -->

<svg
   width="128"
   height="128"
   viewBox="0 0 128 128"
   version="1.1"
   id="svg5"
   inkscape:version="1.3 (1:1.3+202307231459+0e150ed6c4)"
   sodipodi:docname="nvidia.svg"
   xmlns:inkscape="http://www.inkscape.org/namespaces/inkscape"
   xmlns:sodipodi="http://sodipodi.sourceforge.net/DTD/sodipodi-0.dtd"
   xmlns="http://www.w3.org/2000/svg"
   xmlns:svg="http://www.w3.org/2000/svg">
  <sodipodi:namedview
     id="namedview7"
     pagecolor="#ffffff"
     bordercolor="#000000"
     borderopacity="0.25"
     inkscape:showpageshadow="2"
     inkscape:pageopacity="0.0"
     inkscape:pagecheckerboard="0"
     inkscape:deskcolor="#d1d1d1"
     inkscape:document-units="px"
     showgrid="false"
     inkscape:zoom="5.609375"
     inkscape:cx="64"
     inkscape:cy="63.910864"
     inkscape:window-width="1920"
     inkscape:window-height="1008"
     inkscape:window-x="0"
     inkscape:window-y="0"
     inkscape:window-maximized="1"
     inkscape:current-layer="svg5" />
  <defs
     id="defs2" />
  <rect
     style="opacity:0.2;fill:#000000;stroke-width:8;stroke-linecap:square"
     id="rect234"
     width="112"
     height="112"
     x="8"
     y="9"
     ry="24" />
  <rect
     style="fill:#363636;fill-opacity:1;stroke-width:8;stroke-linecap:square"
     id="rect396"
     width="108"
     height="112"
     x="8"
     y="8"
     ry="24" />
  <path
     id="path1738"
     mask="none"
     style="color:#bebebe;display:inline;overflow:visible;visibility:visible;fill:#55a626;fill-opacity:1;fill-rule:nonzero;stroke:none;stroke-width:0;marker:none;enable-background:accumulate"
     d="m 60,8 v 30.343748 c 0.3512,-0.012 0.698916,-0.0236 1.046876,-0.0236 22.821056,-0.1476 37.625,19.249996 37.625,19.249996 0,0 -17.545332,21.3125 -35.820312,21.3125 -0.98908,0 -1.935604,-0.04344 -2.851564,-0.14064 v 5.609376 c 0.67148,0.044 1.36102,0.06252 2.0625,0.06252 17.006064,0 29.31024,-8.673896 41.21875,-18.953128 1.9744,1.58128 10.05715,5.417564 11.71875,7.101564 -11.32271,9.479672 -37.719304,17.117188 -52.679688,17.117188 -0.7912,0 -1.559832,-0.0268 -2.320312,-0.07032 V 120 h 36 c 13.29599,0 24,-10.70401 24,-24 V 32 C 120,18.704012 109.29599,8 96,8 Z m 0,81.609376 v -5.257812 c -0.6328,-0.0416 -1.084312,-0.11028 -1.695312,-0.18748 C 37.493188,81.545884 30.375,58.617208 30.375,58.617208 c 0,0 9.315464,-13.7645 27.929688,-15.1875 0.59904,-0.0416 1.078872,-0.07456 1.695312,-0.09376 v 6.109376 c 0.50304,-0.032 1.173232,-0.05468 1.695312,-0.05468 10.797028,0 17.203124,8.406252 17.203124,8.406252 l -8.781248,7.406248 C 66.578792,59.304572 64.989956,56.36732 60,55.25 v 18.859376 c 0.97732,0.1964 2.179504,0.32032 3.289064,0.32032 12.806584,0 24.75,-16.601564 24.75,-16.601564 0,0 -11.20784,-15.00228 -28.039064,-14.5 v -4.976568 c -0.60856,0.02 -1.090072,0.04736 -1.695312,0.09376 -20.61762,1.6558 -38.476564,19.124996 -38.476564,19.124996 0,0 10.117112,29.237464 38.476564,31.914064 0.6144,0.0592 1.069672,0.0906 1.695312,0.125 z m 0,-15.5 c -0.64612,-0.1296 -1.103392,-0.2854 -1.695312,-0.484376 -8.867352,-2.979396 -11.75,-13.335936 -11.75,-13.335936 0,0 5.135636,-6.157188 11.718748,-5.367188 h 0.0312 C 58.981128,55.003476 59.42648,55.1216 60,55.25 v -5.804688 c -0.6278,0.036 -1.083072,0.09848 -1.695312,0.16408 -12.542708,1.356716 -20.093752,9.718748 -20.093752,9.718748 0,0 4.364888,16.352092 20.093752,19.156252 0.60304,0.1068 1.060192,0.1902 1.695312,0.2578 z" />
  <path
     id="path1040"
     style="opacity:0.1;fill:#ffffff;stroke-width:8;stroke-linecap:square"
     d="M 32,8 C 18.704054,8 8,18.704054 8,32 v 1 C 8,19.704014 18.704014,9 32,9 H 60 V 8 Z" />
  <path
     id="path1040-7"
     style="opacity:0.2;fill:#ffffff;stroke-width:8;stroke-linecap:square"
     d="m 60,8 v 1 h 36 c 13.29599,0 24,10.704014 24,24 V 32 C 120,18.704054 109.29595,8 96,8 Z" />
</svg>
