<?xml version="1.0" encoding="UTF-8" standalone="no"?>
<!-- Created with Inkscape (http://www.inkscape.org/) -->

<svg
   width="128"
   height="128"
   viewBox="0 0 128 128"
   version="1.1"
   id="svg5"
   inkscape:version="1.3 (0e150ed6c4, 2023-07-21)"
   sodipodi:docname="obs-studio.svg"
   xmlns:inkscape="http://www.inkscape.org/namespaces/inkscape"
   xmlns:sodipodi="http://sodipodi.sourceforge.net/DTD/sodipodi-0.dtd"
   xmlns="http://www.w3.org/2000/svg"
   xmlns:svg="http://www.w3.org/2000/svg">
  <sodipodi:namedview
     id="namedview7"
     pagecolor="#ffffff"
     bordercolor="#000000"
     borderopacity="0.25"
     inkscape:showpageshadow="2"
     inkscape:pageopacity="0.0"
     inkscape:pagecheckerboard="0"
     inkscape:deskcolor="#d1d1d1"
     inkscape:document-units="px"
     showgrid="false"
     inkscape:zoom="6.1171875"
     inkscape:cx="64"
     inkscape:cy="64"
     inkscape:window-width="1920"
     inkscape:window-height="984"
     inkscape:window-x="0"
     inkscape:window-y="29"
     inkscape:window-maximized="1"
     inkscape:current-layer="svg5" />
  <defs
     id="defs2" />
  <rect
     style="opacity:0.2;fill:#000000;stroke-width:8;stroke-linecap:square"
     id="rect234"
     width="112"
     height="112"
     x="8"
     y="9"
     ry="24" />
  <rect
     style="fill:#4d4d4d;fill-opacity:1;stroke-width:8;stroke-linecap:square"
     id="rect396"
     width="112"
     height="112"
     x="8"
     y="8"
     ry="24" />
  <path
     d="m 50.418012,22.552 c -8.283876,4.371416 -15.216308,12.543672 -15.415468,22.2741 -0.1588,5.049952 0.89478,10.377368 3.363524,14.728784 8.661996,0.14728 17.583616,5.09042 20.62112,13.515776 4.449528,11.136544 -0.791832,25.921804 -12.50014,30.02501 C 40.481304,105.25822 33.803644,104.295 28,101.9649 c 7.934404,4.99522 18.501236,6.9039 27.027444,2.19164 4.46384,-2.36466 8.39254,-5.94246 11.0692,-10.18104 -4.21268,-7.593764 -4.377816,-17.780672 1.393932,-24.638436 7.397348,-9.430212 22.807916,-12.333468 32.224872,-4.251688 4.876682,4.114572 7.377192,10.379148 8.260772,16.5668 C 108.33138,72.291432 104.7185,62.199408 96.397152,57.16588 92.118152,54.437216 87.066196,52.939988 82.050768,52.593456 77.5783,60.040068 68.841576,65.282348 60.015164,63.720224 48.156712,62.045556 37.921756,50.172784 40.212308,37.979804 41.332088,31.699984 45.509616,26.403372 50.418012,22.552 Z"
     style="opacity:0.2;fill:#000000;stroke-width:2.10528"
     id="path2" />
  <path
     d="m 50.418012,21.552 c -8.283876,4.371416 -15.216308,12.543672 -15.415468,22.2741 -0.1588,5.049952 0.89478,10.377368 3.363524,14.728784 8.661996,0.14728 17.583616,5.09042 20.62112,13.515776 4.449528,11.136544 -0.791832,25.921804 -12.50014,30.02501 C 40.481304,104.25822 33.803644,103.295 28,100.9649 c 7.934404,4.99522 18.501236,6.9039 27.027444,2.19164 4.46384,-2.36466 8.39254,-5.94246 11.0692,-10.18104 -4.21268,-7.593764 -4.377816,-17.780672 1.393932,-24.638436 7.397348,-9.430212 22.807916,-12.333468 32.224872,-4.251688 4.876682,4.114572 7.377192,10.379148 8.260772,16.5668 C 108.33138,71.291432 104.7185,61.199408 96.397152,56.16588 92.118152,53.437216 87.066196,51.939988 82.050768,51.593456 77.5783,59.040068 68.841576,64.282348 60.015164,62.720224 48.156712,61.045556 37.921756,49.172784 40.212308,36.979804 41.332088,30.699984 45.509616,25.403372 50.418012,21.552 Z"
     style="fill:#ffffff;stroke-width:2.10528"
     id="path1" />
  <path
     id="path1040"
     style="opacity:0.1;fill:#ffffff;stroke-width:8;stroke-linecap:square"
     d="M 32,8 C 18.70404,8 8,18.704042 8,32 v 1 C 8,19.704042 18.70404,9 32,9 h 64 c 13.29596,0 24,10.704042 24,24 V 32 C 120,18.704042 109.29596,8 96,8 Z" />
</svg>
