<?xml version="1.0" encoding="UTF-8" standalone="no"?>
<!-- Created with Inkscape (http://www.inkscape.org/) -->

<svg
   width="128"
   height="128"
   viewBox="0 0 128 128"
   version="1.1"
   id="svg5"
   inkscape:version="1.3 (0e150ed6c4, 2023-07-21)"
   sodipodi:docname="openttd.svg"
   xmlns:inkscape="http://www.inkscape.org/namespaces/inkscape"
   xmlns:sodipodi="http://sodipodi.sourceforge.net/DTD/sodipodi-0.dtd"
   xmlns="http://www.w3.org/2000/svg"
   xmlns:svg="http://www.w3.org/2000/svg">
  <sodipodi:namedview
     id="namedview7"
     pagecolor="#ffffff"
     bordercolor="#000000"
     borderopacity="0.25"
     inkscape:showpageshadow="2"
     inkscape:pageopacity="0.0"
     inkscape:pagecheckerboard="0"
     inkscape:deskcolor="#d1d1d1"
     inkscape:document-units="px"
     showgrid="false"
     inkscape:zoom="6.1171875"
     inkscape:cx="63.918263"
     inkscape:cy="64"
     inkscape:window-width="1920"
     inkscape:window-height="984"
     inkscape:window-x="0"
     inkscape:window-y="29"
     inkscape:window-maximized="1"
     inkscape:current-layer="svg5"
     showguides="false" />
  <defs
     id="defs2" />
  <rect
     style="opacity:0.2;fill:#000000;stroke-width:8;stroke-linecap:square"
     id="rect234"
     width="112"
     height="112"
     x="8"
     y="9"
     ry="24" />
  <rect
     style="fill:#fde5cd;fill-opacity:1;stroke-width:8;stroke-linecap:square"
     id="rect396"
     width="112"
     height="112"
     x="8"
     y="8"
     ry="24" />
  <path
     id="rect309"
     style="opacity:0.2;fill:#000000;stroke-width:8;stroke-linecap:square"
     d="m 64,25 c -0.799576,0 -1.59826,0.3092 -2.210936,0.921876 l -36.86719,36.867188 c -1.225352,1.225352 -1.225352,3.19652 0,4.421872 l 2.210938,2.21094 -2.398438,2.390624 c -0.963672,0.963672 -0.96367,2.512892 0,3.47656 l 28.960938,28.95313 c 0.963672,0.96367 2.512892,0.96367 3.476564,0 l 2.390624,-2.39063 2.226564,2.22656 c 1.225352,1.22536 3.19652,1.22536 4.421872,0 l 2.226564,-2.22656 2.421876,2.42188 c 0.963672,0.96367 2.520704,0.96367 3.484376,0 L 103.29688,75.320312 c 0.96367,-0.963672 0.96367,-2.512888 -1e-5,-3.476564 l -2.42187,-2.429688 2.20312,-2.203124 c 1.22536,-1.225352 1.22536,-3.19652 0,-4.421872 L 66.210936,25.921876 C 65.59826,25.3092 64.799576,25 64,25 Z" />
  <rect
     style="fill:#4bae4f;fill-opacity:1;stroke-width:8;stroke-linecap:square"
     id="rect391"
     width="45.868"
     height="45.868"
     x="67.564018"
     y="-10.828586"
     ry="2.46"
     transform="rotate(45)" />
  <rect
     style="fill:#4bae4f;fill-opacity:1;stroke-width:8;stroke-linecap:square"
     id="rect393"
     width="45.868"
     height="45.868"
     x="79.724426"
     y="-22.948671"
     ry="2.46"
     transform="rotate(45)" />
  <rect
     style="fill:#f58411;fill-opacity:1;stroke-width:8;stroke-linecap:square"
     id="rect930"
     width="58.396"
     height="58.396"
     x="61.310814"
     y="-29.198"
     ry="3.128"
     transform="rotate(45)" />
  <path
     d="m 65.333328,79.666672 c 1.885304,-0.17224 2.906028,-0.93268 3.890388,-1.880424 1.001008,-0.9478 1.442948,-1.815852 1.442948,-3.452908 0,-1.481964 -0.433548,-3.164208 -1.41792,-4.198132 -0.9843,-1.03388 -2.013432,-1.93434 -3.915416,-2.468532 z M 62.666672,50.333336 c -1.718468,0.12068 -3.303232,0.846608 -4.254224,1.75986 -0.950992,0.89608 -1.079116,2.057056 -1.079116,3.573472 0,1.378568 0.08648,2.569768 0.95398,3.483064 0.88426,0.91332 2.510728,1.281616 4.379348,1.850272 z M 52,79.666672 v -6.66666 h 2.666668 c 0.06672,2.360792 0.826072,3.373204 2.09406,4.579452 1.267988,1.206244 3.403328,2.035516 5.905944,2.087208 V 67.666676 C 58.82934,66.56382 55.884816,64.56062 54.3332,63.130348 52.781584,61.682848 52,59.770036 52,57.392 c 0,-2.757128 0.923396,-4.971392 2.758644,-6.642908 1.835244,-1.671524 4.637952,-2.87564 7.908028,-3.082416 V 41 h 2.666656 v 6.666676 c 1.685088,0.13792 2.889344,0.687204 4.440956,1.117948 1.568304,0.4135 3.407508,0.974128 4.892384,1.6807 V 57 H 72 c -0.20024,-1.998928 -1.2497,-3.338704 -2.400892,-4.493244 -1.151256,-1.154548 -2.297048,-2.01834 -4.26578,-2.173432 v 12.000008 c 4.104284,1.154552 6.559824,2.373748 8.194864,3.87294 C 75.179912,67.688228 76,69.168004 76,71.666668 c 0,2.860532 -0.96186,5.66292 -2.897248,7.386124 -1.935352,1.72322 -4.249084,3.02206 -7.769424,3.28054 V 89 H 62.666672 V 82.333332 C 61.065,82.299332 59.154888,81.749564 57.436432,81.301584 55.717976,80.87084 53.868612,80.5283 52,79.666672 Z"
     id="path1871"
     style="opacity:0.2;fill:#000000;stroke-width:4"
     sodipodi:nodetypes="ccscccccsccccccscccssccccccccccccsccccccc" />
  <path
     d="m 65.333328,78.666672 c 1.885304,-0.17224 2.906028,-0.93268 3.890388,-1.880424 1.001008,-0.9478 1.442948,-1.815852 1.442948,-3.452908 0,-1.481964 -0.433548,-3.164208 -1.41792,-4.198132 -0.9843,-1.03388 -2.013432,-1.93434 -3.915416,-2.468532 z M 62.666672,49.333336 c -1.718468,0.12068 -3.303232,0.846608 -4.254224,1.75986 -0.950992,0.89608 -1.079116,2.057056 -1.079116,3.573472 0,1.378568 0.08648,2.569768 0.95398,3.483064 0.88426,0.91332 2.510728,1.281616 4.379348,1.850272 z M 52,78.666672 v -6.66666 h 2.666668 c 0.06672,2.360792 0.826072,3.373204 2.09406,4.579452 1.267988,1.206244 3.403328,2.035516 5.905944,2.087208 V 66.666676 C 58.82934,65.56382 55.884816,63.56062 54.3332,62.130348 52.781584,60.682848 52,58.770036 52,56.392 c 0,-2.757128 0.923396,-4.971392 2.758644,-6.642908 1.835244,-1.671524 4.637952,-2.87564 7.908028,-3.082416 V 40 h 2.666656 v 6.666676 c 1.685088,0.13792 2.889344,0.687204 4.440956,1.117948 1.568304,0.4135 3.407508,0.974128 4.892384,1.6807 V 56 H 72 c -0.20024,-1.998928 -1.2497,-3.338704 -2.400892,-4.493244 -1.151256,-1.154548 -2.297048,-2.01834 -4.26578,-2.173432 v 12.000008 c 4.104284,1.154552 6.559824,2.373748 8.194864,3.87294 C 75.179912,66.688228 76,68.168004 76,70.666668 c 0,2.860532 -0.96186,5.66292 -2.897248,7.386124 -1.935352,1.72322 -4.249084,3.02206 -7.769424,3.28054 V 88 H 62.666672 V 81.333332 C 61.065,81.299332 59.154888,80.749564 57.436432,80.301584 55.717976,79.87084 53.868612,79.5283 52,78.666672 Z"
     style="fill:#ffffff;stroke-width:4"
     id="path1899" />
  <path
     id="rect1260"
     style="opacity:0.2;fill:#ffffff;fill-opacity:1;stroke-width:8;stroke-linecap:square"
     d="m 64,24 c -0.799576,0 -1.598266,0.3092 -2.210938,0.921876 L 24.921876,61.789062 c -0.729078,0.729074 -1.010422,1.716212 -0.867188,2.65625 0.109176,-0.606314 0.392768,-1.185738 0.86328,-1.65625 L 61.789062,25.917968 c 1.225354,-1.225352 3.196522,-1.225352 4.421876,0 l 36.867182,36.871094 c 0.46556,0.465554 0.7554,1.037336 0.86719,1.63672 0.13749,-0.933846 -0.14307,-1.912614 -0.86719,-2.63672 L 66.210938,24.921876 C 65.598262,24.3092 64.799576,24 64,24 Z" />
  <path
     id="path1040"
     style="opacity:0.2;fill:#ffffff;stroke-width:8;stroke-linecap:square"
     d="M 32,8 C 18.70404,8 8,18.70404 8,32 v 1 C 8,19.704041 18.70404,9 32,9 h 64 c 13.29596,0 24,10.704041 24,24 V 32 C 120,18.70404 109.29596,8 96,8 Z" />
</svg>
