<?xml version="1.0" encoding="UTF-8" standalone="no"?>
<!-- Created with Inkscape (http://www.inkscape.org/) -->

<svg
   width="128"
   height="128"
   viewBox="0 0 128 128"
   version="1.1"
   id="svg5"
   inkscape:version="1.3 (0e150ed6c4, 2023-07-21)"
   sodipodi:docname="org.gnome.baobab.svg"
   xmlns:inkscape="http://www.inkscape.org/namespaces/inkscape"
   xmlns:sodipodi="http://sodipodi.sourceforge.net/DTD/sodipodi-0.dtd"
   xmlns="http://www.w3.org/2000/svg"
   xmlns:svg="http://www.w3.org/2000/svg">
  <sodipodi:namedview
     id="namedview7"
     pagecolor="#ffffff"
     bordercolor="#000000"
     borderopacity="0.25"
     inkscape:showpageshadow="2"
     inkscape:pageopacity="0.0"
     inkscape:pagecheckerboard="0"
     inkscape:deskcolor="#d1d1d1"
     inkscape:document-units="px"
     showgrid="false"
     inkscape:zoom="5.6953125"
     inkscape:cx="64"
     inkscape:cy="64"
     inkscape:window-width="1920"
     inkscape:window-height="937"
     inkscape:window-x="0"
     inkscape:window-y="32"
     inkscape:window-maximized="1"
     inkscape:current-layer="svg5" />
  <defs
     id="defs2" />
  <rect
     style="opacity:0.2;fill:#000000;stroke-width:8;stroke-linecap:square"
     id="rect234"
     width="112"
     height="112"
     x="8"
     y="9"
     ry="24" />
  <rect
     style="fill:#fff55d;fill-opacity:1;stroke-width:8;stroke-linecap:square"
     id="rect396"
     width="112"
     height="96"
     x="8"
     y="24"
     ry="24" />
  <path
     id="rect1"
     style="opacity:0.2;fill:#000000;stroke-width:8"
     d="M 32,9 C 18.704026,9 8,19.704028 8,33 v 62 1 c 0,7.12397 3.090238,13.48311 7.988282,17.87109 L 64,65 h 56 V 33 C 120,19.704028 109.29597,9 96,9 Z" />
  <path
     id="rect2"
     style="fill:#4098fe;fill-opacity:1;stroke-width:8"
     d="m 64,8 v 56 h 56 V 32 C 120,18.704014 109.29599,8 96,8 Z" />
  <path
     id="rect3"
     style="fill:#24db65;fill-opacity:1;stroke-width:8"
     d="M 32,8 C 18.704014,8 8,18.704014 8,32 v 64 c 0,6.64799 2.67763,12.64638 7.015624,16.98438 L 64,64 V 8 Z" />
  <rect
     style="fill:#2379e0;fill-opacity:1;stroke-width:6.48072"
     id="rect4"
     width="56"
     height="12"
     x="64"
     y="52" />
  <path
     id="rect5"
     style="fill:#25a068;fill-opacity:1;stroke-width:8"
     d="m 64,56 -52.484376,52.48438 c 0.995346,1.63465 2.154762,3.15476 3.5,4.5 L 64,64 Z" />
  <path
     id="path1040"
     style="opacity:0.2;fill:#ffffff;stroke-width:8;stroke-linecap:square"
     d="M 32,8 C 18.70404,8 8,18.70404 8,32 v 1 C 8,19.704042 18.70404,9 32,9 h 64 c 13.29596,0 24,10.704042 24,24 V 32 C 120,18.70404 109.29596,8 96,8 Z" />
</svg>
