<?xml version="1.0" encoding="UTF-8" standalone="no"?>
<!-- Created with Inkscape (http://www.inkscape.org/) -->

<svg
   width="128"
   height="128"
   viewBox="0 0 128 128"
   version="1.1"
   id="svg5"
   inkscape:version="1.3 (0e150ed6c4, 2023-07-21)"
   sodipodi:docname="org.gnome.Tour.svg"
   xmlns:inkscape="http://www.inkscape.org/namespaces/inkscape"
   xmlns:sodipodi="http://sodipodi.sourceforge.net/DTD/sodipodi-0.dtd"
   xmlns="http://www.w3.org/2000/svg"
   xmlns:svg="http://www.w3.org/2000/svg">
  <sodipodi:namedview
     id="namedview7"
     pagecolor="#ffffff"
     bordercolor="#000000"
     borderopacity="0.25"
     inkscape:showpageshadow="2"
     inkscape:pageopacity="0.0"
     inkscape:pagecheckerboard="0"
     inkscape:deskcolor="#d1d1d1"
     inkscape:document-units="px"
     showgrid="false"
     inkscape:zoom="6.1171875"
     inkscape:cx="63.918263"
     inkscape:cy="64"
     inkscape:window-width="1920"
     inkscape:window-height="984"
     inkscape:window-x="0"
     inkscape:window-y="29"
     inkscape:window-maximized="1"
     inkscape:current-layer="svg5"
     showguides="false" />
  <defs
     id="defs2" />
  <rect
     style="opacity:0.2;fill:#000000;stroke-width:8;stroke-linecap:square"
     id="rect234"
     width="112"
     height="112"
     x="8"
     y="9"
     ry="24" />
  <rect
     style="fill:#4d4d4d;fill-opacity:1;stroke-width:8;stroke-linecap:square"
     id="rect396"
     width="112"
     height="112"
     x="8"
     y="8"
     ry="24" />
  <path
     style="opacity:0.2;fill:#000000;stroke-width:4.00004"
     d="m 76.000138,92.999998 v 8.491242 a 3.4995396,3.501248 0 0 1 -3.50704,3.50875 h -16.98619 a 3.4995396,3.501248 0 0 1 -3.507044,-3.50875 v -8.491242 z m 0,0"
     id="path1" />
  <path
     style="opacity:0.2;fill:#000000;stroke-width:4.00004"
     d="m 63.968602,25.001002 c -8.20094,0.06 -16.514052,2.715956 -22.685168,8.143206 -3.087878,2.710622 -5.608232,6.08857 -7.233816,9.869844 -1.623596,3.783272 -2.339144,7.971206 -1.942208,12.069812 0.461326,4.773258 2.38561,9.293854 4.783826,13.439788 a 60.206366,60.467718 0 0 0 9.55703,12.466468 l 4.50703,8.009878 h 25.196892 l 5.738334,-8.66653 A 75.781176,76.11014 0 0 0 90.602564,68.56832 C 93.102338,64.406382 95.23372,59.906454 95.82979,55.083864 96.338242,50.971926 95.69239,46.73733 94.095346,42.91472 92.500294,39.092114 89.967332,35.682836 86.855554,32.961542 80.632666,27.516296 72.221976,24.941668 63.968602,25.001002 Z m 0,0"
     id="path2" />
  <path
     style="color:#000000;fill:#989898;stroke-width:4.00004;-inkscape-stroke:none"
     d="M 70.352032,79.860056 67.03168,94.524294 68.328568,94.821178 71.64892,80.149124 Z"
     id="path3" />
  <path
     style="fill:#d03141;stroke-width:4.00004"
     d="m 63.968602,24.002002 c -8.20094,0.06 -16.514052,2.715958 -22.685168,8.143208 -3.087878,2.710622 -5.608232,6.08857 -7.233816,9.869844 -1.623596,3.78327 -2.339144,7.97121 -1.942208,12.069812 0.461326,4.773258 2.38561,9.293852 4.783826,13.439788 a 60.206366,60.467718 0 0 0 9.55703,12.466468 l 4.50703,8.009878 h 25.196892 l 5.738334,-8.66653 A 75.781176,76.11014 0 0 0 90.602564,67.569322 C 93.102338,63.407384 95.23372,58.907456 95.82979,54.084866 96.338242,49.972928 95.69239,45.738332 94.095346,41.915722 92.500294,38.093114 89.967332,34.683838 86.855554,31.962544 80.632666,26.517298 72.221976,23.94267 63.968602,24.002002 Z m 0,0"
     id="path4" />
  <path
     style="fill:#ffffff;stroke-width:4.00004"
     d="m 64.806284,24.012668 c -11.429538,1.731164 -22.658108,5.532786 -27.514282,18.818136 -4.38357,16.467706 2.829826,24.408918 11.46952,37.165654 L 52.645268,88.001 h 5.258424 C 54.6346,78.32729 46.162002,61.558284 46.162002,53.13445 c 0,-24.702886 18.509534,-29.03579 18.644282,-29.121782 z m 0.0026,0 c 0.04648,0.12464 5.64939,11.490864 5.646734,29.121782 0,9.303746 -1.293696,25.362158 -2.553544,34.86655 h 6.68687 C 82.660786,73.458402 88.536754,59.59212 88,48.287166 87.602274,39.910448 83.502004,32.940024 75.11707,28.142766 72.248268,26.501442 68.83075,24.012668 64.808936,24.012668 Z"
     id="path5" />
  <path
     style="color:#000000;fill:#989898;stroke-width:4.00004;-inkscape-stroke:none"
     d="M 56.648738,78.531916 55.35185,78.81316 58.672202,94.149282 59.96909,93.868038 Z"
     id="path6" />
  <path
     style="color:#000000;fill:#989898;stroke-width:4.00004;-inkscape-stroke:none"
     d="m 47.351752,78.656918 -1.203142,0.562506 7.03915,15.070496 1.203138,-0.562508 z"
     id="path7" />
  <path
     style="fill:#989898;stroke-width:4.00004"
     d="m 46,78.001002 v 0.999996 c 0,0 0,1 1.202786,1 h 33.59507 c 1.202142,0 1.202142,-1 1.202142,-1 v -0.999996 z m 0,0"
     id="path8" />
  <path
     style="color:#000000;fill:#989898;stroke-width:4.00004;-inkscape-stroke:none"
     d="m 80.49278,79.06317 -6.695394,14.664242 1.20314,0.554692 6.703204,-14.66424 z"
     id="path9" />
  <path
     style="fill:#ff7800;stroke-width:4.00004"
     d="m 76.000138,92.001 v 8.49124 a 3.4995396,3.501248 0 0 1 -3.50704,3.50875 h -16.98619 a 3.4995396,3.501248 0 0 1 -3.507044,-3.50875 V 92.001 Z m 0,0"
     id="path10" />
  <path
     id="path11"
     style="opacity:0.2;fill:#ffffff;stroke-width:4.00004"
     d="m 63.96875,24 c -8.200932,0.06 -16.512488,2.71729 -22.683594,8.144532 -3.087878,2.710622 -5.608792,6.089822 -7.234374,9.871092 -1.345078,3.13428 -2.049678,6.544626 -2.03125,9.953126 0.11356,-3.073684 0.81769,-6.125314 2.03125,-8.953126 1.625582,-3.78127 4.1465,-7.160474 7.234374,-9.871092 C 47.456266,27.717286 55.767818,25.06 63.96875,25 c 8.253366,-0.05934 16.663836,2.515696 22.886718,7.960938 3.111776,2.72129 5.643232,6.13052 7.238282,9.953124 1.155538,2.765844 1.804058,5.747498 1.886718,8.742188 0.0516,-3.327862 -0.602898,-6.669296 -1.886718,-9.742188 C 92.498704,38.091458 89.967244,34.682224 86.855468,31.960938 80.632586,26.515692 72.222116,23.940668 63.96875,24 Z" />
  <rect
     style="opacity:0.2;fill:#ffffff;stroke-width:2.82844"
     width="24.000292"
     height="1"
     x="52.000244"
     y="92.000832"
     id="rect11" />
  <path
     id="path1040"
     style="opacity:0.1;fill:#ffffff;stroke-width:8;stroke-linecap:square"
     d="M 32,8 C 18.70404,8 8,18.70404 8,32 v 1 C 8,19.704042 18.70404,9 32,9 h 64 c 13.29596,0 24,10.704042 24,24 V 32 C 120,18.70404 109.29596,8 96,8 Z" />
</svg>
