<?xml version="1.0" encoding="UTF-8" standalone="no"?>
<!-- Created with Inkscape (http://www.inkscape.org/) -->

<svg
   width="128"
   height="128"
   viewBox="0 0 128 128"
   version="1.1"
   id="svg5"
   inkscape:version="1.3.2 (091e20ef0f, 2023-11-25, custom)"
   sodipodi:docname="playonlinux.svg"
   xmlns:inkscape="http://www.inkscape.org/namespaces/inkscape"
   xmlns:sodipodi="http://sodipodi.sourceforge.net/DTD/sodipodi-0.dtd"
   xmlns="http://www.w3.org/2000/svg"
   xmlns:svg="http://www.w3.org/2000/svg">
  <sodipodi:namedview
     id="namedview7"
     pagecolor="#ffffff"
     bordercolor="#000000"
     borderopacity="0.25"
     inkscape:showpageshadow="2"
     inkscape:pageopacity="0.0"
     inkscape:pagecheckerboard="0"
     inkscape:deskcolor="#d1d1d1"
     inkscape:document-units="px"
     showgrid="false"
     inkscape:zoom="6.2109375"
     inkscape:cx="63.919497"
     inkscape:cy="64"
     inkscape:window-width="1920"
     inkscape:window-height="1008"
     inkscape:window-x="0"
     inkscape:window-y="0"
     inkscape:window-maximized="1"
     inkscape:current-layer="svg5" />
  <defs
     id="defs2" />
  <rect
     style="opacity:0.2;fill:#000000;stroke-width:8;stroke-linecap:square"
     id="rect234"
     width="112"
     height="112"
     x="8"
     y="9"
     ry="24" />
  <rect
     style="fill:#efefef;fill-opacity:1;stroke-width:8;stroke-linecap:square"
     id="rect396"
     width="112"
     height="112"
     x="8"
     y="8"
     ry="24" />
  <path
     id="path1"
     d="M 69.059348,25.001124 C 61.379536,25.131384 58.463788,36.516476 59.614036,48.282372 53.582172,34.993652 42.468724,25.308528 35.37966,37.58706 c -2.635998,4.577996 -2.7884,7.87544 -1.75,10.27344 -2.594798,0.302 -5.372828,2.08044 -8.015626,6.648436 -6.261074,10.837544 6.734394,16.139852 20.71875,15.382812 -12.713706,6.131736 -21.540128,16.841556 -9.601562,23.734376 4.579998,2.635996 7.875446,2.782188 10.273438,1.742188 0.302,2.595996 2.088656,5.375628 6.656252,8.015628 10.5975,6.12344 15.891868,-6.167016 15.41406,-19.789064 6.397084,12.037012 17.125716,20.031334 23.242188,9.429684 2.6346,-4.571992 2.793768,-7.867224 1.757812,-10.265624 2.596,-0.29952 5.37624,-2.07624 8.023438,-6.648436 C 108.98945,64.174748 95.998424,59.309816 81.926536,60.352688 94.411872,54.015976 103.01005,42.933744 92.168724,36.680812 87.596728,34.044016 84.301096,33.887 81.903096,34.923 c -0.3,-2.596 -2.07444,-5.36843 -6.648436,-8.015626 -2.331276,-1.346062 -4.395168,-1.936782 -6.195312,-1.90625 z m -5.226564,40.015624 c 0.0228,0.05604 0.04956,0.10924 0.07812,0.16408 -0.0232,8.92e-4 -0.04692,0.0068 -0.07032,0.008 -0.0014,-0.05656 -0.006,-0.11516 -0.008,-0.17188 z"
     style="opacity:0.2;fill:#000000;stroke-width:4" />
  <path
     d="m 64.45146,64.148 c 8.948,16.2856 4.8256,47.264 -10.7952,38.238 -4.5676,-2.64 -6.3496,-5.42 -6.6516,-8.016 -2.398,1.04 -5.692,0.888 -10.272,-1.748 -17.348,-10.016 9.14,-28.084 27.7068,-28.468"
     style="fill:#37a0f2;stroke-width:4"
     id="path2" />
  <path
     d="m 64.454456,64.147184 c 0.6286,-0.0132 1.26428,-0.04804 1.90524,-0.10296 18.302,-1.56896 40.912004,-19.6548 25.812,-28.364 -4.572,-2.6368 -7.87,-2.7914 -10.268,-1.7554 -0.3,-2.596 -2.076,-5.3732 -6.65,-8.0204 -16.578,-9.572 -19.506,19.2016 -11.924,35.976 0.35184,0.77824 0.20076,1.61828 0.59756,2.3398"
     style="fill:#e74c3c;stroke-width:4"
     id="path3" />
  <path
     d="m 63.856,64.309556 c 0.39368,18.5776 19.4528,43.344004 28.468,27.718 2.6346,-4.572 2.7892,-7.8684 1.75324,-10.2668 2.596,-0.29952 5.3732,-2.0774 8.0204,-6.6496 10.016,-17.3484 -21.956,-19.7504 -38.228,-10.802"
     style="fill:#fecd38;stroke-width:4"
     id="path4" />
  <path
     d="M 63.856,64.308 C 47.57,73.256 16.592,69.132 25.616,53.512 28.2588,48.944 31.0364,47.162 33.6312,46.86 32.5928,44.462 32.7436,41.168 35.3796,36.59 45.396,19.2412 63.46,45.728 63.848,64.296"
     style="fill:#a4c639;stroke-width:4"
     id="path5" />
  <path
     id="path6"
     style="opacity:0.2;fill:#ffffff;stroke-width:4"
     d="M 69.0625,24 C 62.282252,24.115 59.216704,33.006358 59.382812,43.183594 59.429192,33.432736 62.50618,25.111204 69.0625,25 c 1.800142,-0.03054 3.864038,0.56019 6.195312,1.90625 4.573992,2.647194 6.348438,5.419628 6.648438,8.015626 2.397998,-1.036 5.693634,-0.878982 10.265626,1.757812 3.269788,1.88591 4.758128,4.213026 4.917968,6.714844 0.211746,-2.8798 -1.216404,-5.579898 -4.917968,-7.714844 -4.571992,-2.636794 -7.867628,-2.793812 -10.265626,-1.757812 -0.3,-2.595998 -2.074446,-5.368432 -6.648438,-8.015626 C 72.926538,24.56019 70.862642,23.969468 69.0625,24 Z m -26.132812,6.949218 c -2.72345,0.10758 -5.331544,1.799682 -7.546876,5.63672 -1.81795,3.157272 -2.436954,5.693676 -2.316406,7.757812 0.10624,-1.87229 0.781892,-4.092788 2.316406,-6.757812 7.08906,-12.27852 18.202518,-2.593394 24.234376,10.695312 -0.03882,-0.39705 -0.06032,-0.791734 -0.08984,-1.1875 C 55.376254,38.045094 48.879624,30.714212 42.929692,30.949218 Z m -9.628906,15.972658 c -2.49932,0.411116 -5.15261,2.211204 -7.683594,6.585936 -1.220738,2.113024 -1.701666,4.014824 -1.59375,5.703126 0.10252,-1.429606 0.608182,-2.997166 1.59375,-4.703126 2.642792,-4.56799 5.42083,-6.346438 8.015624,-6.648436 -0.12932,-0.298644 -0.242146,-0.61022 -0.33203,-0.9375 z m 51.25,12.304686 c -0.19884,0.0044 -0.401852,0.02058 -0.601564,0.02734 -0.662432,0.376808 -1.330832,0.74812 -2.01953,1.097656 11.128796,-0.824758 21.569932,2.05083 22.046872,9.191406 0.43482,-7.277722 -8.829628,-10.545592 -19.425778,-10.316406 z m -20.714844,5.789062 c 0.002,0.05672 0.0064,0.11532 0.0078,0.17188 0.0234,-0.0012 0.04712,-0.007 0.07032,-0.0078 -0.02856,-0.05484 -0.05532,-0.10802 -0.07812,-0.16406 z m -17.5,4.875 c -0.687942,0.03724 -1.3698,0.04672 -2.050782,0.05468 -7.756488,4.189158 -13.582006,10.026828 -13.171874,15.38672 0.352676,-5.54523 6.964554,-11.45858 15.222656,-15.441408 z M 94.40625,82.695312 c -0.10928,0.0178 -0.219464,0.04996 -0.328126,0.0625 0.3206,0.742236 0.50877,1.582534 0.5625,2.507812 0.05354,-0.939208 -0.02432,-1.802026 -0.234374,-2.570312 z M 69.078124,83.59375 c 0.0198,0.565396 0.0118,1.124008 0.0118,1.683594 0.0118,-0.55099 0.0038,-1.109808 -0.004,-1.667968 -0.0028,-0.0052 -0.005,-0.0104 -0.0078,-0.0156 z" />
  <path
     id="path1040"
     style="opacity:0.2;fill:#ffffff;stroke-width:8;stroke-linecap:square"
     d="M 32,8 C 18.70404,8 8,18.70404 8,32 v 1 C 8,19.704042 18.70404,9 32,9 h 64 c 13.29596,0 24,10.704042 24,24 V 32 C 120,18.70404 109.29596,8 96,8 Z" />
</svg>
