<?xml version="1.0" encoding="UTF-8" standalone="no"?>
<!-- Created with Inkscape (http://www.inkscape.org/) -->

<svg
   width="128"
   height="128"
   viewBox="0 0 128 128"
   version="1.1"
   id="svg5"
   inkscape:version="1.2.2 (1:1.2.2+202305151914+b0a8486541)"
   sodipodi:docname="preferences-desktop-screensaver.svg"
   xmlns:inkscape="http://www.inkscape.org/namespaces/inkscape"
   xmlns:sodipodi="http://sodipodi.sourceforge.net/DTD/sodipodi-0.dtd"
   xmlns="http://www.w3.org/2000/svg"
   xmlns:svg="http://www.w3.org/2000/svg">
  <sodipodi:namedview
     id="namedview7"
     pagecolor="#ffffff"
     bordercolor="#000000"
     borderopacity="0.25"
     inkscape:showpageshadow="2"
     inkscape:pageopacity="0.0"
     inkscape:pagecheckerboard="0"
     inkscape:deskcolor="#d1d1d1"
     inkscape:document-units="px"
     showgrid="false"
     inkscape:zoom="6.296875"
     inkscape:cx="63.920596"
     inkscape:cy="64"
     inkscape:window-width="1920"
     inkscape:window-height="1008"
     inkscape:window-x="0"
     inkscape:window-y="0"
     inkscape:window-maximized="1"
     inkscape:current-layer="svg5" />
  <defs
     id="defs2" />
  <rect
     style="opacity:0.2;fill:#000000;stroke-width:8;stroke-linecap:square"
     id="rect234"
     width="112"
     height="112"
     x="8"
     y="9"
     ry="24" />
  <rect
     style="fill:#6a1b9a;fill-opacity:1;stroke-width:8;stroke-linecap:square"
     id="rect396"
     width="112"
     height="112"
     x="8"
     y="8"
     ry="24" />
  <path
     d="m 86.387436,48.59984 c 3.1232,3.78444 5.01722,8.62144 5.01722,13.91142 0,12.09096 -9.80178,21.89324 -21.893256,21.89324 -5.28998,0 -10.12686,-1.89398 -13.9114,-5.01716 C 58.24726,90.6714 68.36682,99 80.457776,99 94.564236,99 106,87.56424 106,73.45778 106,61.36632 97.671396,51.247 86.387336,48.6 Z M 80.999996,46 80.006556,42.99344 76.999996,42 80.006556,41.00656 80.999996,38 81.993436,41.00656 84.999996,42 81.993436,42.99344 Z M 35,54 31.52294,43.47706 21,40 31.52294,36.52294 35,26 38.47706,36.52294 49,40 38.47706,43.47706 Z M 61,46 59.0131,39.9869 53,38 59.0131,36.0131 61,30 62.9869,36.0131 69,38 62.9869,39.9869 Z"
     style="opacity:0.2;fill:#000000;stroke-width:2"
     id="path1841" />
  <path
     d="m 86.387436,47.59984 c 3.1232,3.78444 5.01722,8.62144 5.01722,13.91142 0,12.09096 -9.80178,21.89324 -21.893256,21.89324 -5.28998,0 -10.12686,-1.89398 -13.9114,-5.01716 C 58.24726,89.6714 68.36682,98 80.457776,98 94.564236,98 106,86.56424 106,72.45778 106,60.36632 97.671396,50.247 86.387336,47.6 Z M 80.999996,45 80.006556,41.99344 76.999996,41 80.006556,40.00656 80.999996,37 81.993436,40.00656 84.999996,41 81.993436,41.99344 Z M 35,53 31.52294,42.47706 21,39 31.52294,35.52294 35,25 38.47706,35.52294 49,39 38.47706,42.47706 Z M 61,45 59.0131,38.9869 53,37 59.0131,35.0131 61,29 62.9869,35.0131 69,37 62.9869,38.9869 Z"
     style="fill:#ffffff;stroke-width:2"
     id="path1813" />
  <path
     id="path1040"
     style="opacity:0.1;fill:#ffffff;stroke-width:8;stroke-linecap:square"
     d="M 32,8 C 18.704026,8 8,18.704027 8,32 v 1 C 8,19.704013 18.704013,9 32,9 h 64 c 13.29599,0 24,10.704013 24,24 V 32 C 120,18.704027 109.29597,8 96,8 Z" />
</svg>
