<?xml version="1.0" encoding="UTF-8" standalone="no"?>
<!-- Created with Inkscape (http://www.inkscape.org/) -->

<svg
   width="128"
   height="128"
   viewBox="0 0 128 128"
   version="1.1"
   id="svg5"
   inkscape:version="1.3 (0e150ed6c4, 2023-07-21)"
   sodipodi:docname="preferences-plugin.svg"
   xmlns:inkscape="http://www.inkscape.org/namespaces/inkscape"
   xmlns:sodipodi="http://sodipodi.sourceforge.net/DTD/sodipodi-0.dtd"
   xmlns="http://www.w3.org/2000/svg"
   xmlns:svg="http://www.w3.org/2000/svg">
  <sodipodi:namedview
     id="namedview7"
     pagecolor="#ffffff"
     bordercolor="#000000"
     borderopacity="0.25"
     inkscape:showpageshadow="2"
     inkscape:pageopacity="0.0"
     inkscape:pagecheckerboard="0"
     inkscape:deskcolor="#d1d1d1"
     inkscape:document-units="px"
     showgrid="false"
     inkscape:zoom="6.25"
     inkscape:cx="63.92"
     inkscape:cy="64"
     inkscape:window-width="1920"
     inkscape:window-height="1004"
     inkscape:window-x="0"
     inkscape:window-y="0"
     inkscape:window-maximized="1"
     inkscape:current-layer="svg5" />
  <defs
     id="defs2" />
  <rect
     style="opacity:0.2;fill:#000000;stroke-width:8;stroke-linecap:square"
     id="rect234"
     width="112"
     height="112"
     x="8"
     y="9"
     ry="24" />
  <rect
     style="fill:#4facf6;fill-opacity:1;stroke-width:8;stroke-linecap:square"
     id="rect396"
     width="112"
     height="112"
     x="8"
     y="8"
     ry="24" />
  <path
     d="m 60,23 c -4.432,0 -8,3.568 -8,8 v 8 H 36 c -4.432,0 -8,3.568 -8,8 v 16 h 8 c 4.432,0 8,3.568 8,8 0,4.432 -3.568,8 -8,8 h -8 v 16 c 0,4.432 3.568,8 8,8 h 16 v -8 c 0,-4.432 3.568,-8 8,-8 4.432,0 8,3.568 8,8 v 8 h 16 c 4.432,0 8,-3.568 8,-8 V 79 h 8 c 4.432,0 8,-3.568 8,-8 0,-4.432 -3.568,-8 -8,-8 H 92 V 47 c 0,-4.432 -3.568,-8 -8,-8 H 68 v -8 c 0,-4.432 -3.568,-8 -8,-8 z"
     style="opacity:0.2;fill:#000000;stroke-width:4"
     id="path1" />
  <path
     d="m 60,22 c -4.432,0 -8,3.568 -8,8 v 8 H 36 c -4.432,0 -8,3.568 -8,8 v 16 h 8 c 4.432,0 8,3.568 8,8 0,4.432 -3.568,8 -8,8 h -8 v 16 c 0,4.432 3.568,8 8,8 h 16 v -8 c 0,-4.432 3.568,-8 8,-8 4.432,0 8,3.568 8,8 v 8 h 16 c 4.432,0 8,-3.568 8,-8 V 78 h 8 c 4.432,0 8,-3.568 8,-8 0,-4.432 -3.568,-8 -8,-8 H 92 V 46 c 0,-4.432 -3.568,-8 -8,-8 H 68 v -8 c 0,-4.432 -3.568,-8 -8,-8 z"
     style="fill:#ffffff;stroke-width:4"
     id="path2" />
  <path
     id="path1040"
     style="opacity:0.2;fill:#ffffff;stroke-width:8;stroke-linecap:square"
     d="M 32,8 C 18.70404,8 8,18.70404 8,32 v 1 C 8,19.704042 18.70404,9 32,9 h 64 c 13.29596,0 24,10.704042 24,24 V 32 C 120,18.70404 109.29596,8 96,8 Z" />
</svg>
