<?xml version="1.0" encoding="UTF-8" standalone="no"?>
<!-- Created with Inkscape (http://www.inkscape.org/) -->

<svg
   width="128"
   height="128"
   viewBox="0 0 128 128"
   version="1.1"
   id="svg5"
   inkscape:version="1.3 (0e150ed6c4, 2023-07-21)"
   sodipodi:docname="preferences-desktop-personal.svg"
   xmlns:inkscape="http://www.inkscape.org/namespaces/inkscape"
   xmlns:sodipodi="http://sodipodi.sourceforge.net/DTD/sodipodi-0.dtd"
   xmlns="http://www.w3.org/2000/svg"
   xmlns:svg="http://www.w3.org/2000/svg">
  <sodipodi:namedview
     id="namedview7"
     pagecolor="#ffffff"
     bordercolor="#000000"
     borderopacity="0.25"
     inkscape:showpageshadow="2"
     inkscape:pageopacity="0.0"
     inkscape:pagecheckerboard="0"
     inkscape:deskcolor="#d1d1d1"
     inkscape:document-units="px"
     showgrid="false"
     inkscape:zoom="6.296875"
     inkscape:cx="63.920596"
     inkscape:cy="63.920596"
     inkscape:window-width="1920"
     inkscape:window-height="984"
     inkscape:window-x="0"
     inkscape:window-y="29"
     inkscape:window-maximized="1"
     inkscape:current-layer="svg5" />
  <defs
     id="defs2" />
  <rect
     style="opacity:0.2;fill:#000000;stroke-width:8;stroke-linecap:square"
     id="rect234"
     width="112"
     height="112"
     x="8"
     y="9"
     ry="24" />
  <rect
     style="fill:#e4e4e4;fill-opacity:1;stroke-width:8;stroke-linecap:square"
     id="rect396"
     width="112"
     height="112"
     x="8"
     y="8"
     ry="24" />
  <path
     d="M 64,67.000004 C 36.0028,67.016804 36,84.72308 36,84.72308 v 7.2 C 36,91.92308 41.169196,103 64,103 86.830804,103 92,91.92308 92,91.92308 v -7.2 c 0,0 0,-17.734152 -27.9944,-17.723076 z M 64,29 c -7.7336,0 -14,6.2692 -14,14 0,7.7308 6.2664,14 14,14 7.7336,0 14,-6.2692 14,-14 0,-7.7308 -6.2664,-14 -14,-14 z"
     style="opacity:0.2;fill:#000000;stroke-width:2"
     id="path1327" />
  <path
     d="M 64,66.000004 C 36.0028,66.016804 36,83.72308 36,83.72308 v 7.2 C 36,90.92308 41.169196,102 64,102 86.830804,102 92,90.92308 92,90.92308 v -7.2 c 0,0 0,-17.734152 -27.9944,-17.723076 z M 64,28 c -7.7336,0 -14,6.2692 -14,14 0,7.7308 6.2664,14 14,14 7.7336,0 14,-6.2692 14,-14 0,-7.7308 -6.2664,-14 -14,-14 z"
     style="fill:#188eee;stroke-width:2;fill-opacity:1"
     id="path361" />
  <path
     id="path1040"
     style="opacity:0.2;fill:#ffffff;stroke-width:8;stroke-linecap:square"
     d="M 32,8 C 18.704026,8 8,18.704028 8,32 v 1 C 8,19.704014 18.704014,9 32,9 h 64 c 13.29599,0 24,10.704014 24,24 V 32 C 120,18.704028 109.29597,8 96,8 Z" />
</svg>
