<?xml version="1.0" encoding="UTF-8" standalone="no"?>
<!-- Created with Inkscape (http://www.inkscape.org/) -->

<svg
   width="128"
   height="128"
   viewBox="0 0 128 128"
   version="1.1"
   id="svg5"
   inkscape:version="1.3 (0e150ed6c4, 2023-07-21)"
   sodipodi:docname="preferences-desktop-effects.svg"
   xmlns:inkscape="http://www.inkscape.org/namespaces/inkscape"
   xmlns:sodipodi="http://sodipodi.sourceforge.net/DTD/sodipodi-0.dtd"
   xmlns="http://www.w3.org/2000/svg"
   xmlns:svg="http://www.w3.org/2000/svg">
  <sodipodi:namedview
     id="namedview7"
     pagecolor="#ffffff"
     bordercolor="#000000"
     borderopacity="0.25"
     inkscape:showpageshadow="2"
     inkscape:pageopacity="0.0"
     inkscape:pagecheckerboard="0"
     inkscape:deskcolor="#d1d1d1"
     inkscape:document-units="px"
     showgrid="false"
     inkscape:zoom="6.1171875"
     inkscape:cx="63.918263"
     inkscape:cy="64"
     inkscape:window-width="1920"
     inkscape:window-height="984"
     inkscape:window-x="0"
     inkscape:window-y="29"
     inkscape:window-maximized="1"
     inkscape:current-layer="svg5" />
  <defs
     id="defs2" />
  <rect
     style="opacity:0.2;fill:#000000;stroke-width:8;stroke-linecap:square"
     id="rect234"
     width="112"
     height="112"
     x="8"
     y="9"
     ry="24" />
  <rect
     style="fill:#2196f3;fill-opacity:1;stroke-width:8;stroke-linecap:square"
     id="rect396"
     width="112"
     height="112"
     x="8"
     y="8"
     ry="24" />
  <path
     id="rect3201"
     style="opacity:0.2;fill:#000000;fill-opacity:1;stroke-width:12;stroke-linecap:round;stroke-linejoin:round"
     d="m 52,21 c 0,4.41827 -3.581724,7.999996 -8,8 4.418276,-4e-6 8,3.581728 8,8 0,-4.418272 3.581724,-8.000004 8,-8.000002 C 55.581724,28.999996 52,25.41827 52,21 Z m 19.968752,4.00781 c -0.519044,-0.02592 -1.05754,0.0449 -1.578128,0.234376 l -3.757812,1.367188 c -2.082356,0.757916 -3.148544,3.050454 -2.390624,5.132814 l 25.992188,71.414062 c 0.757916,2.08235 3.050456,3.14854 5.132812,2.39062 L 99.125,104.17968 c 2.08236,-0.75791 3.14854,-3.04264 2.39062,-5.124996 L 75.523436,27.63281 C 74.955,26.071046 73.525872,25.085556 71.968752,25.00781 Z M 32,33 c 0,4.418312 -3.581684,8.000004 -8,8 4.418316,0 8,3.581688 8,7.999996 0,-4.418308 3.581684,-7.999996 8,-8 C 35.581684,41 32,37.418308 32,33 Z m 16,11.999996 c 0,4.418272 -3.581724,8.000008 -8,8 4.418276,4e-6 8,3.581732 8,8.000004 0,-4.418272 3.581724,-8 8,-8 -4.418276,0 -8,-3.581732 -8,-8.000004 z" />
  <path
     id="rect1693"
     style="fill:#ffffff;fill-opacity:1;stroke-width:4"
     d="m 52,20 c 0,4.418276 -3.58172,8 -8,8 4.41828,0 8,3.581724 8,8 0,-4.418276 3.58172,-8 8,-8 -4.41828,0 -8,-3.581724 -8,-8 z M 32,32 c 0,4.41832 -3.58168,8.000004 -8,8 4.41832,0 8,3.581684 8,8 0,-4.418316 3.58168,-8 8,-8 -4.41832,0 -8,-3.581684 -8,-8 z m 16,12 c 0,4.418276 -3.58172,8.000004 -8,8 4.41828,0 8,3.581728 8,8 0,-4.418272 3.58172,-8 8,-8 -4.41828,0 -8,-3.581724 -8,-8 z"
     sodipodi:nodetypes="ccccccccccccccc" />
  <path
     id="rect4814-56"
     style="fill:#4d4d4d;fill-opacity:1;stroke-width:12;stroke-linecap:round;stroke-linejoin:round"
     d="m 75.361162,43.581304 -4.27344,5.953124 19.14844,52.625002 c 0.75792,2.08237 3.050452,3.14856 5.132812,2.39063 l 3.757812,-1.36719 c 2.082274,-0.75793 3.148504,-3.04265 2.390624,-5.125002 l -19.156248,-52.625 z" />
  <path
     id="rect5241-2"
     style="fill:#ededed;fill-opacity:1;stroke-width:12;stroke-linecap:round;stroke-linejoin:round"
     d="m 71.57991,24.010992 c -0.3934,0.0192 -0.797048,0.09226 -1.1875,0.234376 l -3.757812,1.367188 c -2.082276,0.757892 -3.148544,3.050446 -2.390624,5.132812 l 6.843748,18.78906 11.27344,-4.10156 -6.83594,-18.796874 C 74.909414,24.944066 73.284566,23.9279 71.57991,24.010992 Z" />
  <path
     id="path3073"
     style="opacity:0.2;fill:#ffffff;fill-opacity:1;stroke-width:12;stroke-linecap:round;stroke-linejoin:round"
     d="m 66.442764,25.682922 c -1.954992,0.825468 -2.931378,3.047426 -2.197144,5.06472 l 0.33935,0.932352 c -0.757922,-2.082362 0.308408,-4.368962 2.390688,-5.126852 l 3.758772,-1.36808 c 2.082366,-0.757922 4.37628,0.305648 5.134194,2.388016 l -0.34202,-0.939692 C 74.934478,25.006536 73.40652,24.001156 71.774662,24 c -0.456916,-3.24e-4 -0.926736,0.07956 -1.382252,0.245368 l -3.751428,1.365408 c -0.06508,0.02368 -0.13516,0.04558 -0.19822,0.07214 z" />
  <path
     id="path1040"
     style="opacity:0.2;fill:#ffffff;stroke-width:8;stroke-linecap:square"
     d="M 32,8 C 18.70404,8 8,18.70404 8,32 v 1 C 8,19.70404 18.70404,9 32,9 h 64 c 13.29596,0 24,10.70404 24,24 V 32 C 120,18.70404 109.29596,8 96,8 Z" />
</svg>
