<?xml version="1.0" encoding="UTF-8" standalone="no"?>
<!-- Created with Inkscape (http://www.inkscape.org/) -->

<svg
   width="128"
   height="128"
   viewBox="0 0 128 128"
   version="1.1"
   id="svg5"
   inkscape:version="1.2.2 (1:1.2.2+202305151914+b0a8486541)"
   sodipodi:docname="preferences-system-network-share-windows.svg"
   xmlns:inkscape="http://www.inkscape.org/namespaces/inkscape"
   xmlns:sodipodi="http://sodipodi.sourceforge.net/DTD/sodipodi-0.dtd"
   xmlns="http://www.w3.org/2000/svg"
   xmlns:svg="http://www.w3.org/2000/svg">
  <sodipodi:namedview
     id="namedview7"
     pagecolor="#ffffff"
     bordercolor="#000000"
     borderopacity="0.25"
     inkscape:showpageshadow="2"
     inkscape:pageopacity="0.0"
     inkscape:pagecheckerboard="0"
     inkscape:deskcolor="#d1d1d1"
     inkscape:document-units="px"
     showgrid="false"
     inkscape:zoom="6.296875"
     inkscape:cx="63.920596"
     inkscape:cy="64"
     inkscape:window-width="1920"
     inkscape:window-height="1008"
     inkscape:window-x="0"
     inkscape:window-y="0"
     inkscape:window-maximized="1"
     inkscape:current-layer="svg5" />
  <defs
     id="defs2" />
  <rect
     style="opacity:0.2;fill:#000000;stroke-width:8;stroke-linecap:square"
     id="rect234"
     width="112"
     height="112"
     x="8"
     y="9"
     ry="24" />
  <rect
     style="fill:#36a9e9;fill-opacity:1;stroke-width:8;stroke-linecap:square"
     id="rect396"
     width="112"
     height="112"
     x="8.0000019"
     y="8"
     ry="24" />
  <path
     d="m 89.757813,18.999072 c -2.05921,-0.0505 -3.75513,1.693022 -3.75781,3.863282 v 4.136718 H 32.000004 c -3.313572,3.32e-4 -5.999668,2.686428 -6,6 v 32 c 3.32e-4,3.313572 2.686428,5.999668 6,6 H 90.000003 V 90.999076 H 42.000004 v -4.13672 c -0.0026,-2.170264 -1.698602,-3.91378 -3.757812,-3.863284 -0.615118,0.0146 -1.216872,0.192 -1.75,0.515624 l -8.328126,5.06641 -8.324218,5.0625 c -2.453822,1.48819 -2.453822,5.21884 0,6.707034 l 8.324218,5.0625 8.328126,5.0664 c 2.44687,1.48769 5.50506,-0.37108 5.507812,-3.34765 v -4.13281 h 53.999999 c 3.31357,-3.4e-4 5.999667,-2.68643 5.999997,-6.000004 V 64.999072 c -3.3e-4,-3.313572 -2.686427,-5.999668 -5.999997,-6 H 38.000004 v -20 h 47.999999 v 4.132812 c 0.003,2.976566 3.06094,4.835338 5.50781,3.347656 l 8.32813,-5.066406 8.324217,-5.0625 c 2.45382,-1.488186 2.45382,-5.218844 0,-6.70703 l -8.324217,-5.0625 -8.32813,-5.066406 c -0.53313,-0.323624 -1.13488,-0.500928 -1.75,-0.515626 z"
     style="color:#000000;opacity:0.2;fill:#000000;stroke-width:2;stroke-linecap:round;stroke-linejoin:round;-inkscape-stroke:none"
     id="path1495" />
  <path
     d="m 89.757813,17.998454 c -2.05921,-0.0505 -3.75513,1.69302 -3.75781,3.86328 v 4.136718 H 32.000004 c -3.313572,3.32e-4 -5.999668,2.686428 -6,6 v 32 c 3.32e-4,3.313572 2.686428,5.999668 6,6 H 90.000003 V 89.998456 H 42.000004 v -4.13672 c -0.0026,-2.170264 -1.698602,-3.91378 -3.757812,-3.863284 -0.615118,0.0146 -1.216872,0.192 -1.75,0.515624 l -8.328126,5.06641 -8.324218,5.0625 c -2.453822,1.48819 -2.453822,5.21884 0,6.70703 l 8.324218,5.062504 8.328126,5.0664 c 2.44687,1.48769 5.50506,-0.37108 5.507812,-3.34765 v -4.13281 H 96.000003 C 99.313573,101.99812 101.99967,99.312026 102,95.998456 V 63.998452 c -3.3e-4,-3.313572 -2.686427,-5.999668 -5.999997,-6 H 38.000004 v -20 h 47.999999 v 4.132812 c 0.003,2.976566 3.06094,4.835338 5.50781,3.347656 l 8.32813,-5.066406 8.324217,-5.0625 c 2.45382,-1.488186 2.45382,-5.218844 0,-6.70703 l -8.324217,-5.0625 -8.32813,-5.066406 c -0.53313,-0.323624 -1.13488,-0.500926 -1.75,-0.515624 z"
     style="color:#000000;fill:#ffffff;stroke-width:2;stroke-linecap:round;stroke-linejoin:round;-inkscape-stroke:none"
     id="path425" />
  <path
     id="path1040"
     style="opacity:0.2;fill:#ffffff;stroke-width:8;stroke-linecap:square"
     d="M 32,8 C 18.704026,8 8,18.704027 8,32 v 1 C 8,19.704013 18.704013,9 32,9 h 64 c 13.29599,0 24,10.704013 24,24 V 32 C 120,18.704027 109.29597,8 96,8 Z" />
</svg>
