<?xml version="1.0" encoding="UTF-8" standalone="no"?>
<!-- Created with Inkscape (http://www.inkscape.org/) -->

<svg
   width="128"
   height="128"
   viewBox="0 0 128 128"
   version="1.1"
   id="svg5"
   inkscape:version="1.2.2 (1:1.2.2+202305151914+b0a8486541)"
   sodipodi:docname="preferences-desktop-keyboard-shortcuts.svg"
   xmlns:inkscape="http://www.inkscape.org/namespaces/inkscape"
   xmlns:sodipodi="http://sodipodi.sourceforge.net/DTD/sodipodi-0.dtd"
   xmlns="http://www.w3.org/2000/svg"
   xmlns:svg="http://www.w3.org/2000/svg">
  <sodipodi:namedview
     id="namedview7"
     pagecolor="#ffffff"
     bordercolor="#000000"
     borderopacity="0.25"
     inkscape:showpageshadow="2"
     inkscape:pageopacity="0.0"
     inkscape:pagecheckerboard="0"
     inkscape:deskcolor="#d1d1d1"
     inkscape:document-units="px"
     showgrid="false"
     inkscape:zoom="6.296875"
     inkscape:cx="63.920596"
     inkscape:cy="64"
     inkscape:window-width="1920"
     inkscape:window-height="1008"
     inkscape:window-x="0"
     inkscape:window-y="0"
     inkscape:window-maximized="1"
     inkscape:current-layer="svg5" />
  <defs
     id="defs2" />
  <rect
     style="opacity:0.2;fill:#000000;stroke-width:8;stroke-linecap:square"
     id="rect234"
     width="112"
     height="112"
     x="8"
     y="9"
     ry="24" />
  <rect
     style="fill:#adadad;fill-opacity:1;stroke-width:8;stroke-linecap:square"
     id="rect396"
     width="112"
     height="112"
     x="7.999999"
     y="8"
     ry="24" />
  <path
     d="m 24.000003,35 c -3.31371,0 -6.000002,2.686292 -6.000002,6 0,3.313708 2.686292,6 6.000002,6 3.313708,0 6,-2.686292 6,-6 0,-3.313708 -2.686292,-6 -6,-6 z m 19.999998,0 c -3.313706,0 -6,2.686292 -6,6 0,3.313708 2.686294,6 6,6 3.31371,0 6,-2.686292 6,-6 0,-3.313708 -2.68629,-6 -6,-6 z m 20,0 c -3.313706,0 -6,2.686292 -6,6 0,3.313708 2.686294,6 6,6 3.31371,0 6,-2.686292 6,-6 0,-3.313708 -2.68629,-6 -6,-6 z m 20,0 c -3.313708,0 -6,2.686292 -6,6 0,3.313708 2.686292,6 6,6 3.313707,0 5.999997,-2.686292 5.999997,-6 0,-3.313708 -2.68629,-6 -5.999997,-6 z M 104,35 c -3.31371,0 -6.000002,2.686292 -6.000002,6 0,3.313708 2.686292,6 6.000002,6 3.31371,0 6,-2.686292 6,-6 0,-3.313708 -2.68629,-6 -6,-6 z M 34.000001,59 c -3.313706,0 -5.999998,2.686292 -5.999998,6 0,3.313708 2.686292,6 5.999998,6 3.31371,0 6,-2.686292 6,-6 0,-3.313708 -2.68629,-6 -6,-6 z m 20,0 c -3.313706,0 -6,2.686292 -6,6 0,3.313708 2.686294,6 6,6 3.31371,0 6,-2.686292 6,-6 0,-3.313708 -2.68629,-6 -6,-6 z m 20,0 c -3.313708,0 -6,2.686292 -6,6 0,3.313708 2.686292,6 6,6 3.31371,0 6,-2.686292 6,-6 0,-3.313708 -2.68629,-6 -6,-6 z m 19.999997,0 c -3.31371,0 -6,2.686292 -6,6 0,3.313708 2.68629,6 6,6 3.31371,0 6,-2.686292 6,-6 0,-3.313708 -2.68629,-6 -6,-6 z M 27.000003,83 c -1.661998,0 -3,1.338002 -3,3 v 5.999999 c 0,1.662 1.338002,3 3,3 H 101 c 1.662,0 3,-1.338 3,-3 V 86 c 0,-1.661998 -1.338,-3 -3,-3 z"
     style="opacity:0.2;fill:#000000;fill-opacity:1;stroke-width:4;stroke-linecap:square"
     id="path2953" />
  <path
     id="path1184"
     style="fill:#e8e8e8;fill-opacity:1;stroke-width:4;stroke-linecap:square"
     d="M 24 34 C 20.686293 34 18 36.686295 18 40 C 18 43.313705 20.686293 46 24 46 C 27.313705 46 30 43.313705 30 40 C 30 36.686295 27.313705 34 24 34 z M 44 34 C 40.686297 34 38 36.686295 38 40 C 38 43.313705 40.686297 46 44 46 C 47.313707 46 50 43.313705 50 40 C 50 36.686295 47.313707 34 44 34 z M 64 34 C 60.686297 34 58 36.686295 58 40 C 58 43.313705 60.686297 46 64 46 C 67.313707 46 70 43.313705 70 40 C 70 36.686295 67.313707 34 64 34 z M 84 34 C 80.686295 34 78 36.686295 78 40 C 78 43.313705 80.686295 46 84 46 C 87.313704 46 90 43.313705 90 40 C 90 36.686295 87.313704 34 84 34 z M 34 58 C 30.686297 58 28 60.686295 28 64 C 28 67.313705 30.686297 70 34 70 C 37.313707 70 40 67.313705 40 64 C 40 60.686295 37.313707 58 34 58 z M 54 58 C 50.686297 58 48 60.686295 48 64 C 48 67.313705 50.686297 70 54 70 C 57.313707 70 60 67.313705 60 64 C 60 60.686295 57.313707 58 54 58 z M 94 58 C 90.686293 58 88 60.686295 88 64 C 88 67.313705 90.686293 70 94 70 C 97.313707 70 100 67.313705 100 64 C 100 60.686295 97.313707 58 94 58 z M 27 82 C 25.338004 82 24 83.338004 24 85 L 24 91 C 24 92.661997 25.338004 94 27 94 L 101 94 C 102.662 94 104 92.661997 104 91 L 104 85 C 104 83.338004 102.662 82 101 82 L 27 82 z " />
  <path
     d="m 104,33.999998 c -3.31371,0 -6.000002,2.686292 -6.000002,6 0,3.313708 2.686292,6 6.000002,6 3.31371,0 6,-2.686292 6,-6 0,-3.313708 -2.68629,-6 -6,-6 z m -30.000002,24 c -3.313708,0 -6,2.686292 -6,6 0,3.313708 2.686292,6 6,6 3.31371,0 6,-2.686292 6,-6 0,-3.313708 -2.68629,-6 -6,-6 z"
     style="fill:#ff8800;fill-opacity:1;stroke-width:4;stroke-linecap:square"
     id="path345" />
  <path
     id="path1040"
     style="opacity:0.2;fill:#ffffff;stroke-width:8;stroke-linecap:square"
     d="M 32,8 C 18.704026,8 8,18.704027 8,32 v 1 C 8,19.704013 18.704013,9 32,9 h 64 c 13.29599,0 24,10.704013 24,24 V 32 C 120,18.704027 109.29597,8 96,8 Z" />
</svg>
