<?xml version="1.0" encoding="UTF-8" standalone="no"?>
<!-- Created with Inkscape (http://www.inkscape.org/) -->

<svg
   width="128"
   height="128"
   viewBox="0 0 128 128"
   version="1.1"
   id="svg5"
   inkscape:version="1.3 (0e150ed6c4, 2023-07-21)"
   sodipodi:docname="qtdbusviewer.svg"
   xmlns:inkscape="http://www.inkscape.org/namespaces/inkscape"
   xmlns:sodipodi="http://sodipodi.sourceforge.net/DTD/sodipodi-0.dtd"
   xmlns="http://www.w3.org/2000/svg"
   xmlns:svg="http://www.w3.org/2000/svg">
  <sodipodi:namedview
     id="namedview7"
     pagecolor="#ffffff"
     bordercolor="#000000"
     borderopacity="0.25"
     inkscape:showpageshadow="2"
     inkscape:pageopacity="0.0"
     inkscape:pagecheckerboard="0"
     inkscape:deskcolor="#d1d1d1"
     inkscape:document-units="px"
     showgrid="false"
     inkscape:zoom="6.1171875"
     inkscape:cx="63.918263"
     inkscape:cy="64"
     inkscape:window-width="1920"
     inkscape:window-height="984"
     inkscape:window-x="0"
     inkscape:window-y="29"
     inkscape:window-maximized="1"
     inkscape:current-layer="svg5" />
  <defs
     id="defs2" />
  <rect
     style="opacity:0.2;fill:#000000;stroke-width:8;stroke-linecap:square"
     id="rect234"
     width="112"
     height="112"
     x="8"
     y="9"
     ry="24" />
  <rect
     style="fill:#4cdb5d;fill-opacity:1;stroke-width:8;stroke-linecap:square"
     id="rect396"
     width="112"
     height="104"
     x="8"
     y="8"
     ry="24" />
  <path
     id="path1"
     style="fill:#31ae3e;fill-opacity:1;stroke-width:2;stroke-linecap:square"
     d="m 8,40 v 56 c 0,13.29599 10.704014,24 24,24 h 64 c 13.29599,0 24,-10.70401 24,-24 V 84 Z" />
  <path
     id="path2"
     style="opacity:0.1;fill:#000000;fill-opacity:1;stroke-width:2;stroke-linecap:square"
     d="m 8,40 v 1 l 112,44 v -1 z" />
  <path
     d="M 28,41 V 89 H 47.281248 C 56.540944,89 64,81.266708 64,71.664064 V 58.335936 C 64,48.733288 56.540944,41 47.281248,41 Z m 40,0 14,48 h 8 L 104,41 H 96 L 86,77 76,41 Z M 36,49 H 47.281248 C 52.40068,49 56,53.026904 56,58.335936 V 71.664064 C 56,76.973096 52.40068,81 47.281248,81 H 36 Z"
     style="opacity:0.2;fill:#000000;stroke-width:4"
     id="path3" />
  <path
     d="M 28,40 V 88 H 47.281248 C 56.540944,88 64,80.266708 64,70.664064 V 57.335936 C 64,47.733288 56.540944,40 47.281248,40 Z m 40,0 14,48 h 8 L 104,40 H 96 L 86,76 76,40 Z M 36,48 H 47.281248 C 52.40068,48 56,52.026904 56,57.335936 V 70.664064 C 56,75.973096 52.40068,80 47.281248,80 H 36 Z"
     style="fill:#ffffff;stroke-width:4"
     id="path4" />
  <path
     id="path1040"
     style="opacity:0.2;fill:#ffffff;stroke-width:8;stroke-linecap:square"
     d="M 32,8 C 18.70404,8 8,18.70404 8,32 v 1 C 8,19.704042 18.70404,9 32,9 h 64 c 13.29596,0 24,10.704042 24,24 V 32 C 120,18.70404 109.29596,8 96,8 Z" />
</svg>
