<?xml version="1.0" encoding="UTF-8" standalone="no"?>
<!-- Created with Inkscape (http://www.inkscape.org/) -->

<svg
   width="128"
   height="128"
   viewBox="0 0 128 128"
   version="1.1"
   id="svg5"
   inkscape:version="1.2.2 (1:1.2.2+202305151914+b0a8486541)"
   sodipodi:docname="rnote.svg"
   xmlns:inkscape="http://www.inkscape.org/namespaces/inkscape"
   xmlns:sodipodi="http://sodipodi.sourceforge.net/DTD/sodipodi-0.dtd"
   xmlns="http://www.w3.org/2000/svg"
   xmlns:svg="http://www.w3.org/2000/svg">
  <sodipodi:namedview
     id="namedview7"
     pagecolor="#ffffff"
     bordercolor="#000000"
     borderopacity="0.25"
     inkscape:showpageshadow="2"
     inkscape:pageopacity="0.0"
     inkscape:pagecheckerboard="0"
     inkscape:deskcolor="#d1d1d1"
     inkscape:document-units="px"
     showgrid="false"
     inkscape:zoom="6.296875"
     inkscape:cx="64"
     inkscape:cy="64"
     inkscape:window-width="1920"
     inkscape:window-height="1008"
     inkscape:window-x="0"
     inkscape:window-y="0"
     inkscape:window-maximized="1"
     inkscape:current-layer="svg5" />
  <defs
     id="defs2" />
  <rect
     style="opacity:0.2;fill:#000000;stroke-width:8;stroke-linecap:square"
     id="rect234"
     width="112"
     height="112"
     x="8"
     y="9"
     ry="24" />
  <rect
     style="fill:#e4e4e4;fill-opacity:1;stroke-width:8;stroke-linecap:square"
     id="rect396"
     width="112"
     height="112"
     x="8"
     y="8"
     ry="24" />
  <path
     d="m 28,32 v 1 h 92 v -1 z m 0,16 v 1 h 92 v -1 z m 0,16 v 1 h 92 v -1 z m 0,16 v 1 h 92 v -1 z m 0,16 v 1 h 92 v -1 z"
     style="fill:#cccccc;stroke-width:2"
     id="path1306" />
  <path
     d="m 101.82367,44.663814 c -0.13568,-1.104452 0.71145,-2.8522 0.59776,-5.231614 -0.11736,-2.383292 -1.27254,-5.704398 -6.014318,-8.114818 -0.08434,-0.04264 -0.1687,-0.08526 -0.25671,-0.12788 -3.084174,-1.503606 -7.580246,-2.580932 -12.82444,-2.053892 -4.074338,0.410778 -8.306364,1.770998 -12.296354,4.16979 -3.590258,2.150776 -6.898134,5.095982 -9.582576,8.738736 -1.576926,2.290284 -2.952152,4.88284 -3.93498,7.680784 -0.425402,1.209084 -0.77746,2.460798 -1.041504,3.739636 -0.341056,1.662492 -0.528086,3.479994 -0.454742,5.398252 0.19436,3.042088 1.052506,6.367072 2.970488,9.358778 0.905816,1.41835 2.03167,2.704942 3.333548,3.77839 1.294548,1.07345 2.776124,1.941512 4.39339,2.511176 2.592758,0.895186 5.14151,0.895186 7.250192,0.558038 1.118514,-0.17826 2.14535,-0.453406 3.051166,-0.759552 1.118518,-0.3759 2.145354,-0.809932 2.95582,-1.178082 1.767624,-0.817684 3.42523,-1.798126 4.745446,-2.588682 1.320218,-0.790554 2.614764,-1.584986 3.857968,-2.22828 0.740786,-0.372026 1.620934,-0.78668 2.490076,-1.100576 0.231038,-0.08136 0.462076,-0.15888 0.693112,-0.224766 0.865476,-0.251892 1.71995,-0.364276 2.479076,-0.282894 0.649106,0.06588 1.199196,0.290644 1.56959,0.565788 0.1577,0.10462 0.293382,0.251894 0.407068,0.406904 0.09902,0.1434 0.16504,0.27902 0.201698,0.352648 0.04034,0.093 0.06236,0.282896 -0.0072,0.55804 -0.06602,0.27902 -0.209034,0.600668 -0.429072,0.922314 -0.227368,0.3294 -0.542754,0.670424 -0.968158,1.023072 -0.418068,0.341024 -0.916818,0.674298 -1.496246,0.995944 -1.272542,0.64717 -2.53775,1.081202 -4.316376,1.782626 -1.613598,0.635544 -3.538914,1.457102 -5.343212,2.759192 -0.946154,0.705298 -1.892312,1.584986 -2.706444,2.650684 -0.810466,1.0657 -1.514584,2.35229 -1.90698,3.859768 -0.352058,1.507482 -0.370394,3.181598 0.10268,4.789836 0.238372,0.817682 0.605098,1.592736 1.07451,2.282534 0.476744,0.69755 1.07451,1.329218 1.782292,1.833004 1.257874,0.88356 2.644102,1.209084 3.843298,1.243962 h 0.407068 c 1.015832,-0.02712 1.983992,-0.248018 2.867804,-0.561914 0.924152,-0.298396 1.76029,-0.701426 2.479074,-1.05795 0.733454,-0.36815 1.298214,-0.666546 1.888642,-0.914564 0.53909,-0.251892 1.008502,-0.414652 1.433904,-0.48441 0.4034,-0.0659 0.733454,-0.03488 0.971826,0.03488 0.10636,0.03102 0.2017,0.08138 0.278712,0.13176 0.07334,0.05038 0.1247,0.09688 0.15036,0.12014 0.04034,0.0194 0.07702,0.05038 0.10268,0.05812 0.02934,0 0.055,0.0154 0.09168,0.0078 0.033,-0.0078 0,0.11626 -0.13202,0.27902 -0.15402,0.18988 -0.37773,0.379776 -0.722452,0.66267 -0.333722,0.267394 -0.788464,0.620042 -1.202864,1.054074 -0.458408,0.476656 -0.905814,1.0812 -1.18086,1.829126 -0.275046,0.755678 -0.319054,1.530732 -0.205368,2.21278 0.13202,0.79443 0.480414,1.445476 0.883812,1.906634 0.542756,0.627794 1.173526,0.895188 1.63927,0.968816 0.11368,0.0154 0.220034,0.02326 0.319052,0.0194 0.828802,-0.03102 1.162526,-0.701426 1.309214,-0.899064 -0.205366,-0.20539 -0.4144,-0.732426 -0.579426,-1.181956 -0.0182,-0.05038 -0.03666,-0.09688 -0.05134,-0.14726 -0.06602,-0.19764 -0.1247,-0.414652 -0.11002,-0.608418 0.0072,-0.1395 0.04034,-0.28677 0.10268,-0.379776 0.05134,-0.08138 0.1247,-0.15502 0.1907,-0.18214 0.06602,-0.03102 0.17604,-0.124 0.374062,-0.251892 0.245708,-0.15502 0.418068,-0.244142 0.854472,-0.49216 0.341058,-0.18988 0.84714,-0.484408 1.33122,-0.88356 0.484082,-0.399154 1.041502,-0.980444 1.437572,-1.790376 0.35206,-0.724674 0.52442,-1.526856 0.52442,-2.317412 0.004,-0.790554 -0.16502,-1.557858 -0.45841,-2.24378 -0.30805,-0.689798 -0.73346,-1.27884 -1.217536,-1.76325 -0.487746,-0.488284 -1.041502,-0.87581 -1.620932,-1.166456 -1.162524,-0.577414 -2.38739,-0.740178 -3.461902,-0.697548 -1.111182,0.04262 -2.130682,0.306146 -2.970488,0.585166 -0.828802,0.29452 -1.686944,0.682048 -2.295712,0.94169 -0.700448,0.298396 -1.239536,0.503784 -1.749286,0.627794 -0.480414,0.08912 -0.843472,0.08138 -1.107516,0.0194 -0.033,-0.0078 -0.06602,-0.0154 -0.09902,-0.02712 -0.26771,-0.08912 -0.4144,-0.24414 -0.374062,-0.321646 0.02202,-0.03102 0.02568,-0.06976 0.033,-0.13564 0.0072,-0.062 0.0148,-0.13176 0.04402,-0.19378 0.044,-0.13176 0.11736,-0.3604 0.26771,-0.57354 0.11002,-0.236392 0.293382,-0.503784 0.594098,-0.806056 0.30805,-0.310022 0.711448,-0.623918 1.195528,-0.902938 0.975494,-0.620042 2.138018,-1.0812 3.645266,-1.58111 1.393562,-0.465032 3.30421,-1.034698 5.060832,-1.805876 0.946156,-0.395278 1.928984,-0.879688 2.882474,-1.49198 0.975496,-0.623918 1.939986,-1.39122 2.820126,-2.340662 0.91315,-0.99207 1.70528,-2.162402 2.28838,-3.472244 0.59776,-1.348594 0.98649,-2.879326 1.02316,-4.518566 0.0367,-1.61611 -0.27503,-3.142968 -0.79579,-4.491562 -0.53542,-1.398972 -1.31655,-2.65456 -2.24804,-3.704758 -1.97299,-2.224404 -4.470396,-3.433488 -6.714766,-3.95665 -2.600092,-0.608418 -5.038828,-0.383654 -6.912802,0.03488 -0.520752,0.12014 -1.012168,0.251892 -1.470576,0.395278 -1.73095,0.538662 -3.16852,1.263338 -4.17702,1.825254 -1.63927,0.895186 -3.271204,1.984138 -4.382384,2.701062 -1.29088,0.833184 -2.44607,1.553984 -3.604926,2.108148 -0.517108,0.251898 -1.081866,0.476664 -1.66863,0.631674 -0.46941,0.12014 -0.927818,0.201516 -1.378894,0.224766 -0.861808,0.04648 -1.587926,-0.11626 -2.079342,-0.414654 -0.286044,-0.16276 -0.579426,-0.399154 -0.847138,-0.709174 -0.26771,-0.313898 -0.49508,-0.678174 -0.649106,-1.0657 -0.352058,-0.86031 -0.462076,-1.902758 -0.308052,-2.890952 0.04034,-0.616166 0.1687,-1.23621 0.370394,-1.852378 0.1577,-0.47666 0.374062,-0.961068 0.649106,-1.449352 0.64544,-1.14708 1.580596,-2.232156 2.677108,-3.166096 1.705282,-1.662492 3.700274,-2.863826 5.724608,-3.642756 2.251702,-0.86806 4.408058,-1.166454 6.300368,-1.181956 2.4204,-0.0154 4.587756,0.422404 6.2857,0.63167 0.04768,0.004 0.09534,0.0118 0.14302,0.0154 2.684442,0.313896 4.74178,-0.348774 6.56808,-1.271088 1.771294,-0.891312 3.355552,-2.096522 4.345712,-2.104272 z"
     style="opacity:0.1;fill:#000000;stroke-width:2"
     id="path396" />
  <path
     d="m 101.82367,43.663814 c -0.13568,-1.104452 0.71145,-2.8522 0.59776,-5.231614 -0.11736,-2.383292 -1.27254,-5.704398 -6.014318,-8.114818 -0.08434,-0.04264 -0.1687,-0.08526 -0.25671,-0.12788 -3.084174,-1.503606 -7.580246,-2.580932 -12.82444,-2.053892 -4.074338,0.410778 -8.306364,1.770998 -12.296354,4.16979 -3.590258,2.150776 -6.898134,5.095982 -9.582576,8.738736 -1.576926,2.290284 -2.952152,4.88284 -3.93498,7.680784 -0.425402,1.209084 -0.77746,2.460798 -1.041504,3.739636 -0.341056,1.662492 -0.528086,3.479994 -0.454742,5.398252 0.19436,3.042088 1.052506,6.367072 2.970488,9.358778 0.905816,1.41835 2.03167,2.704942 3.333548,3.77839 1.294548,1.07345 2.776124,1.941512 4.39339,2.511176 2.592758,0.895186 5.14151,0.895186 7.250192,0.558038 1.118514,-0.17826 2.14535,-0.453406 3.051166,-0.759552 1.118518,-0.3759 2.145354,-0.809932 2.95582,-1.178082 1.767624,-0.817684 3.42523,-1.798126 4.745446,-2.588682 1.320218,-0.790554 2.614764,-1.584986 3.857968,-2.22828 0.740786,-0.372026 1.620934,-0.78668 2.490076,-1.100576 0.231038,-0.08136 0.462076,-0.15888 0.693112,-0.224766 0.865476,-0.251892 1.71995,-0.364276 2.479076,-0.282894 0.649106,0.06588 1.199196,0.290644 1.56959,0.565788 0.1577,0.10462 0.293382,0.251894 0.407068,0.406904 0.09902,0.1434 0.16504,0.27902 0.201698,0.352648 0.04034,0.093 0.06236,0.282896 -0.0072,0.55804 -0.06602,0.27902 -0.209034,0.600668 -0.429072,0.922314 -0.227368,0.3294 -0.542754,0.670424 -0.968158,1.023072 -0.418068,0.341024 -0.916818,0.674298 -1.496246,0.995944 -1.272542,0.64717 -2.53775,1.081202 -4.316376,1.782626 -1.613598,0.635544 -3.538914,1.457102 -5.343212,2.759192 -0.946154,0.705298 -1.892312,1.584986 -2.706444,2.650684 -0.810466,1.0657 -1.514584,2.35229 -1.90698,3.859768 -0.352058,1.507482 -0.370394,3.181598 0.10268,4.789836 0.238372,0.817682 0.605098,1.592736 1.07451,2.282534 0.476744,0.69755 1.07451,1.329218 1.782292,1.833004 1.257874,0.88356 2.644102,1.209084 3.843298,1.243962 h 0.407068 c 1.015832,-0.02712 1.983992,-0.248018 2.867804,-0.561914 0.924152,-0.298396 1.76029,-0.701426 2.479074,-1.05795 0.733454,-0.36815 1.298214,-0.666546 1.888642,-0.914564 0.53909,-0.251892 1.008502,-0.414652 1.433904,-0.48441 0.4034,-0.0659 0.733454,-0.03488 0.971826,0.03488 0.10636,0.03102 0.2017,0.08138 0.278712,0.13176 0.07334,0.05038 0.1247,0.09688 0.15036,0.12014 0.04034,0.0194 0.07702,0.05038 0.10268,0.05812 0.02934,0 0.055,0.0154 0.09168,0.0078 0.033,-0.0078 0,0.11626 -0.13202,0.27902 -0.15402,0.18988 -0.37773,0.379776 -0.722452,0.66267 -0.333722,0.267394 -0.788464,0.620042 -1.202864,1.054074 -0.458408,0.476656 -0.905814,1.0812 -1.18086,1.829126 -0.275046,0.755678 -0.319054,1.530732 -0.205368,2.21278 0.13202,0.79443 0.480414,1.445476 0.883812,1.906634 0.542756,0.627794 1.173526,0.895188 1.63927,0.968816 0.11368,0.0154 0.220034,0.02326 0.319052,0.0194 0.828802,-0.03102 1.162526,-0.701426 1.309214,-0.899064 -0.205366,-0.20539 -0.4144,-0.732426 -0.579426,-1.181956 -0.0182,-0.05038 -0.03666,-0.09688 -0.05134,-0.14726 -0.06602,-0.19764 -0.1247,-0.414652 -0.11002,-0.608418 0.0072,-0.1395 0.04034,-0.28677 0.10268,-0.379776 0.05134,-0.08138 0.1247,-0.15502 0.1907,-0.18214 0.06602,-0.03102 0.17604,-0.124 0.374062,-0.251892 0.245708,-0.15502 0.418068,-0.244142 0.854472,-0.49216 0.341058,-0.18988 0.84714,-0.484408 1.33122,-0.88356 0.484082,-0.399154 1.041502,-0.980444 1.437572,-1.790376 0.35206,-0.724674 0.52442,-1.526856 0.52442,-2.317412 0.004,-0.790554 -0.16502,-1.557858 -0.45841,-2.24378 -0.30805,-0.689798 -0.73346,-1.27884 -1.217536,-1.76325 -0.487746,-0.488284 -1.041502,-0.87581 -1.620932,-1.166456 -1.162524,-0.577414 -2.38739,-0.740178 -3.461902,-0.697548 -1.111182,0.04262 -2.130682,0.306146 -2.970488,0.585166 -0.828802,0.29452 -1.686944,0.682048 -2.295712,0.94169 -0.700448,0.298396 -1.239536,0.503784 -1.749286,0.627794 -0.480414,0.08912 -0.843472,0.08138 -1.107516,0.0194 -0.033,-0.0078 -0.06602,-0.0154 -0.09902,-0.02712 -0.26771,-0.08912 -0.4144,-0.24414 -0.374062,-0.321646 0.02202,-0.03102 0.02568,-0.06976 0.033,-0.13564 0.0072,-0.062 0.0148,-0.13176 0.04402,-0.19378 0.044,-0.13176 0.11736,-0.3604 0.26771,-0.57354 0.11002,-0.236392 0.293382,-0.503784 0.594098,-0.806056 0.30805,-0.310022 0.711448,-0.623918 1.195528,-0.902938 0.975494,-0.620042 2.138018,-1.0812 3.645266,-1.58111 1.393562,-0.465032 3.30421,-1.034698 5.060832,-1.805876 0.946156,-0.395278 1.928984,-0.879688 2.882474,-1.49198 0.975496,-0.623918 1.939986,-1.39122 2.820126,-2.340662 0.91315,-0.99207 1.70528,-2.162402 2.28838,-3.472244 0.59776,-1.348594 0.98649,-2.879326 1.02316,-4.518566 0.0367,-1.61611 -0.27503,-3.142968 -0.79579,-4.491562 -0.53542,-1.398972 -1.31655,-2.65456 -2.24804,-3.704758 -1.97299,-2.224404 -4.470396,-3.433488 -6.714766,-3.95665 -2.600092,-0.608418 -5.038828,-0.383654 -6.912802,0.03488 -0.520752,0.12014 -1.012168,0.251892 -1.470576,0.395278 -1.73095,0.538662 -3.16852,1.263338 -4.17702,1.825254 -1.63927,0.895186 -3.271204,1.984138 -4.382384,2.701062 -1.29088,0.833184 -2.44607,1.553984 -3.604926,2.108148 -0.517108,0.251898 -1.081866,0.476664 -1.66863,0.631674 -0.46941,0.12014 -0.927818,0.201516 -1.378894,0.224766 -0.861808,0.04648 -1.587926,-0.11626 -2.079342,-0.414654 -0.286044,-0.16276 -0.579426,-0.399154 -0.847138,-0.709174 -0.26771,-0.313898 -0.49508,-0.678174 -0.649106,-1.0657 -0.352058,-0.86031 -0.462076,-1.902758 -0.308052,-2.890952 0.04034,-0.616166 0.1687,-1.23621 0.370394,-1.852378 0.1577,-0.47666 0.374062,-0.961068 0.649106,-1.449352 0.64544,-1.14708 1.580596,-2.232156 2.677108,-3.166096 1.705282,-1.662492 3.700274,-2.863826 5.724608,-3.642756 2.251702,-0.86806 4.408058,-1.166454 6.300368,-1.181956 2.4204,-0.0154 4.587756,0.422404 6.2857,0.63167 0.04768,0.004 0.09534,0.0118 0.14302,0.0154 2.684442,0.313896 4.74178,-0.348774 6.56808,-1.271088 1.771294,-0.891312 3.355552,-2.096522 4.345712,-2.104272 z"
     style="fill:#3f3f3f;stroke-width:2"
     id="path318" />
  <rect
     style="fill:#df574d;fill-opacity:1;stroke-width:4.151;stroke-linecap:square"
     id="rect468"
     width="2"
     height="112"
     x="44"
     y="8" />
  <path
     id="rect2154"
     style="fill:#37474f;fill-opacity:1;stroke-width:4;stroke-linecap:square"
     d="M 32,8 C 18.704013,8 8,18.704013 8,32 v 64 c 0,13.29599 10.704013,24 24,24 z" />
  <path
     id="path1040"
     style="opacity:0.1;fill:#ffffff;stroke-width:8;stroke-linecap:square"
     d="M 32,8 C 18.704026,8 8,18.704027 8,32 v 1 C 8,19.704013 18.704013,9 32,9 h 64 c 13.29599,0 24,10.704013 24,24 V 32 C 120,18.704027 109.29597,8 96,8 Z" />
</svg>
