<?xml version="1.0" encoding="UTF-8" standalone="no"?>
<!-- Created with Inkscape (http://www.inkscape.org/) -->

<svg
   width="128"
   height="128"
   viewBox="0 0 128 128"
   version="1.1"
   id="svg5"
   inkscape:version="1.2.2 (1:1.2.2+202305151914+b0a8486541)"
   sodipodi:docname="scrcpy.svg"
   xmlns:inkscape="http://www.inkscape.org/namespaces/inkscape"
   xmlns:sodipodi="http://sodipodi.sourceforge.net/DTD/sodipodi-0.dtd"
   xmlns="http://www.w3.org/2000/svg"
   xmlns:svg="http://www.w3.org/2000/svg">
  <sodipodi:namedview
     id="namedview7"
     pagecolor="#ffffff"
     bordercolor="#000000"
     borderopacity="0.25"
     inkscape:showpageshadow="2"
     inkscape:pageopacity="0.0"
     inkscape:pagecheckerboard="0"
     inkscape:deskcolor="#d1d1d1"
     inkscape:document-units="px"
     showgrid="false"
     inkscape:zoom="6.484375"
     inkscape:cx="64"
     inkscape:cy="64"
     inkscape:window-width="1920"
     inkscape:window-height="1008"
     inkscape:window-x="0"
     inkscape:window-y="0"
     inkscape:window-maximized="1"
     inkscape:current-layer="svg5" />
  <defs
     id="defs2" />
  <rect
     style="opacity:0.2;fill:#000000;stroke-width:8;stroke-linecap:square"
     id="rect234"
     width="112"
     height="112"
     x="8"
     y="9"
     ry="24" />
  <rect
     style="fill:#e4e4e4;fill-opacity:1;stroke-width:8;stroke-linecap:square"
     id="rect396"
     width="112"
     height="112"
     x="8"
     y="8"
     ry="24" />
  <path
     id="rect391"
     style="fill:#077063;fill-opacity:1;stroke-width:8;stroke-linecap:square"
     d="M 32,8 C 18.70402,8 8,18.70402 8,32 V 92 H 120 V 32 C 120,18.70402 109.29598,8 96,8 Z" />
  <path
     d="m 28.343766,41.007828 c -0.95024,-0.0344 -1.88396,0.25496 -2.64844,0.820312 -1.86144,1.383096 -2.24964,4.013088 -0.8672,5.875 l 9.46876,12.726562 c -7.91476,7.15913 -13.214198,17.132426 -14.289078,28.335932 -0.202,4.234842 4.265638,4.234374 4.265638,4.234374 h 79.343744 c 0,0 4.59788,0.001 4.375,-4.44531 -1.12128,-11.121614 -6.40215,-21.026846 -14.273434,-28.14062 l 9.453114,-12.703126 c 1.38776,-1.863268 0.9992,-4.49924 -0.86719,-5.882812 -1.86192,-1.382444 -4.491884,-0.99424 -5.875004,0.867188 L 86.976558,55.406262 C 80.281078,51.344866 72.42172,49.000016 64.0078,49.000016 c -8.418318,0 -16.279876,2.348138 -22.976556,6.414062 l -9.460918,-12.71875 c -0.76312,-1.023708 -1.95044,-1.644692 -3.22656,-1.6875 z"
     style="color:#000000;opacity:0.2;fill:#000000;stroke-width:4;stroke-linecap:round;-inkscape-stroke:none"
     id="path4999"
     sodipodi:nodetypes="cccccccccccccsccc" />
  <path
     d="m 28.343166,40.00784 c -0.95024,-0.0344 -1.88396,0.25496 -2.64844,0.820312 -1.86144,1.383096 -2.24964,4.013088 -0.8672,5.875 l 9.46876,12.726562 c -7.91476,7.15913 -13.214198,17.132426 -14.289078,28.335932 -0.202,4.234842 4.265638,4.234374 4.265638,4.234374 h 79.343744 c 0,0 4.59788,10e-4 4.375,-4.44531 -1.12128,-11.121614 -6.40215,-21.026846 -14.273434,-28.14062 l 9.453114,-12.703126 c 1.38776,-1.863268 0.9992,-4.49924 -0.86719,-5.882812 -1.86192,-1.382444 -4.491884,-0.99424 -5.875004,0.867188 L 86.975958,54.406274 C 80.280478,50.34488 72.42112,48.000028 64.0072,48.000028 c -8.418318,0 -16.279876,2.34814 -22.976556,6.414062 L 31.569726,41.69534 c -0.76312,-1.023708 -1.95044,-1.644692 -3.22656,-1.6875 z"
     style="color:#000000;fill:#30dd81;stroke-width:4;stroke-linecap:round;-inkscape-stroke:none"
     id="path4971"
     sodipodi:nodetypes="cccccccccccccsccc" />
  <path
     d="m 42.000004,72.999996 c -3.31368,0 -6,2.68632 -6,5.999998 0,3.31368 2.68632,6 6,6 3.31368,0 6,-2.68632 6,-6 0,-3.313678 -2.68632,-5.999998 -6,-5.999998 z m 43.999994,0 c -3.31368,0 -6,2.68632 -6,5.999998 0,3.31368 2.68632,6 6,6 3.31368,0 5.999998,-2.68632 5.999998,-6 0,-3.313678 -2.686318,-5.999998 -5.999998,-5.999998 z"
     style="opacity:0.2;fill:#000000;fill-opacity:1;stroke-width:12;stroke-linecap:square"
     id="path5111"
     sodipodi:nodetypes="ssssssssss" />
  <path
     d="m 42.000004,72.000008 c -3.31368,0 -6,2.68632 -6,6 0,3.313678 2.68632,5.999998 6,5.999998 3.31368,0 6,-2.68632 6,-5.999998 0,-3.31368 -2.68632,-6 -6,-6 z m 43.999994,0 c -3.31368,0 -6,2.68632 -6,6 0,3.313678 2.68632,5.999998 6,5.999998 3.31368,0 5.999998,-2.68632 5.999998,-5.999998 0,-3.31368 -2.686318,-6 -5.999998,-6 z"
     style="fill:#ffffff;fill-opacity:1;stroke-width:12;stroke-linecap:square"
     id="path5083"
     sodipodi:nodetypes="ssssssssss" />
  <path
     id="path5027"
     style="color:#000000;opacity:0.2;fill:#ffffff;stroke-width:4;stroke-linecap:round;-inkscape-stroke:none"
     d="m 99.992188,40.003906 c -1.346628,-0.06018 -2.698052,0.528018 -3.5625,1.691406 L 86.976562,54.40625 C 80.28109,50.344868 72.421724,48 64.007812,48 55.589542,48 47.727924,50.348148 41.03125,54.414062 l -9.460938,-12.71875 c -0.763118,-1.023706 -1.950444,-1.644692 -3.226562,-1.6875 -0.95024,-0.0344 -1.883958,0.254962 -2.648438,0.820312 -1.255232,0.932674 -1.836368,2.433904 -1.660156,3.882814 0.13022,-1.108874 0.693268,-2.164392 1.660156,-2.882814 0.76448,-0.565352 1.698198,-0.854712 2.648438,-0.820312 1.276118,0.0428 2.463444,0.663794 3.226562,1.6875 l 9.460938,12.71875 C 47.727924,51.348142 55.589502,49 64.007812,49 c 8.413912,0 16.273278,2.34486 22.96875,6.40625 l 9.453126,-12.710938 c 1.383118,-1.861426 4.013082,-2.24963 5.875002,-0.867188 0.97171,0.72034 1.53174,1.78103 1.66015,2.894532 0.17926,-1.453092 -0.39994,-2.960458 -1.66015,-3.894532 -0.69822,-0.518414 -1.50453,-0.788112 -2.312502,-0.824218 z m -5.398438,20.238282 -0.4375,0.585936 c 7.57335,7.033732 12.66166,16.683502 13.80859,27.503908 0.0258,-0.243154 0.0414,-0.49711 0.0273,-0.777344 -1.07884,-10.700676 -6.01592,-20.266846 -13.398434,-27.3125 z m -61.171874,0.0156 C 25.996682,67.349156 21.042252,76.983794 20.007812,87.7656 c -0.012,0.273414 0.0016,0.521342 0.02734,0.757814 1.10644,-10.89397 6.212226,-20.604588 13.82422,-27.679688 z" />
  <path
     id="path1040"
     style="opacity:0.2;fill:#ffffff;stroke-width:8;stroke-linecap:square"
     d="M 32,8 C 18.704026,8 8,18.704028 8,32 v 1 C 8,19.704014 18.704014,9 32,9 h 64 c 13.29599,0 24,10.704014 24,24 V 32 C 120,18.704028 109.29597,8 96,8 Z" />
</svg>
