<?xml version="1.0" encoding="UTF-8" standalone="no"?>
<!-- Created with Inkscape (http://www.inkscape.org/) -->

<svg
   width="128"
   height="128"
   viewBox="0 0 128 128"
   version="1.1"
   id="svg5"
   inkscape:version="1.2.2 (1:1.2.2+202305151914+b0a8486541)"
   sodipodi:docname="software-properties.svg"
   xmlns:inkscape="http://www.inkscape.org/namespaces/inkscape"
   xmlns:sodipodi="http://sodipodi.sourceforge.net/DTD/sodipodi-0.dtd"
   xmlns="http://www.w3.org/2000/svg"
   xmlns:svg="http://www.w3.org/2000/svg">
  <sodipodi:namedview
     id="namedview7"
     pagecolor="#ffffff"
     bordercolor="#000000"
     borderopacity="0.25"
     inkscape:showpageshadow="2"
     inkscape:pageopacity="0.0"
     inkscape:pagecheckerboard="0"
     inkscape:deskcolor="#d1d1d1"
     inkscape:document-units="px"
     showgrid="false"
     inkscape:zoom="6.296875"
     inkscape:cx="64"
     inkscape:cy="64"
     inkscape:window-width="1920"
     inkscape:window-height="1008"
     inkscape:window-x="0"
     inkscape:window-y="0"
     inkscape:window-maximized="1"
     inkscape:current-layer="svg5" />
  <defs
     id="defs2" />
  <rect
     style="opacity:0.2;fill:#000000;stroke-width:8;stroke-linecap:square"
     id="rect234"
     width="112"
     height="112"
     x="8"
     y="9"
     ry="24" />
  <rect
     style="fill:#546e7a;fill-opacity:1;stroke-width:8;stroke-linecap:square"
     id="rect396"
     width="112"
     height="112"
     x="8"
     y="8"
     ry="24" />
  <path
     d="m 67.84397,21.000798 c -0.76012,-0.004 -1.05452,0.59812 -2.59656,5.29132 l -1.5346,4.66518 -2.33874,0.20874 c -1.28802,0.1164 -2.77542,0.30172 -3.30246,0.41126 -0.69676,0.1448 -1.0214,0.148 -1.19086,0.006 -0.128,-0.1064 -1.21418,-1.86692 -2.41238,-3.91018 -2.39456,-4.08336 -2.88078,-4.73886 -3.55414,-4.73886 -0.70766,0 -5.44936,1.88856 -5.79466,2.30806 -0.1694,0.20592 -0.30364,0.6288 -0.30076,0.93304 0.002,0.30422 0.42822,2.53086 0.94532,4.95368 0.51712,2.42286 0.9093,4.4885 0.87164,4.5854 -0.0376,0.0968 -0.60046,0.50278 -1.25224,0.90848 -0.65174,0.4057 -1.83704,1.26066 -2.62724,1.89678 -0.79016,0.6361 -1.51016,1.16016 -1.60212,1.16016 -0.0918,0 -1.93912,-1.00374 -4.1066,-2.22824 -4.4567,-2.51776 -4.66874,-2.61486 -5.29746,-2.37556 -0.67926,0.25852 -4.01452,4.49072 -4.01452,5.09488 0,0.65476 0.1612,0.8587 3.56028,4.64064 1.62506,1.8081 2.95258,3.41622 2.95258,3.57254 0,0.1562 -0.3401,0.97706 -0.76116,1.82312 -0.42106,0.84606 -0.98372,2.1097 -1.2461,2.80526 -0.2624,0.69552 -0.57386,1.34302 -0.69364,1.44252 -0.1338,0.1114 -2.09388,0.20112 -5.08874,0.23324 -6.00854,0.0644 -5.47992,-0.22488 -6.04634,3.35156 -0.21934,1.38528 -0.40588,2.7275 -0.41128,2.98328 -0.02,0.95288 0.3831,1.16442 5.2729,2.77456 l 4.65906,1.5346 0.20256,2.2835 c 0.1136,1.25792 0.29456,2.75504 0.399,3.32088 0.1046,0.56586 0.145,1.09868 0.092,1.1847 -0.0532,0.086 -1.85408,1.1949 -4.00224,2.46764 -2.14818,1.27278 -4.07906,2.50942 -4.2969,2.74388 -0.2178,0.23448 -0.39898,0.63422 -0.39898,0.89006 0,0.74848 1.9198,5.47206 2.34486,5.77012 0.55572,0.38964 1.03552,0.332 5.83764,-0.69364 2.41934,-0.51674 4.48144,-0.90106 4.57926,-0.85938 0.0978,0.0418 0.50854,0.60326 0.91462,1.25224 0.40604,0.64896 1.26516,1.83698 1.90904,2.6395 0.80116,0.99856 1.1329,1.55448 1.0558,1.7556 -0.062,0.1618 -1.0539,1.9727 -2.20982,4.0268 -2.36918,4.21018 -2.50558,4.50298 -2.35102,5.11942 0.158,0.63044 4.5155,4.114322 5.144,4.112742 0.64824,-0.002 0.9587,-0.2386 4.59152,-3.523442 1.76848,-1.59908 3.3482,-2.93054 3.51118,-2.95872 0.163,-0.0284 1.00398,0.30048 1.87222,0.73048 0.86822,0.42998 2.19612,0.99956 2.94642,1.2645 0.7503,0.26492 1.38044,0.49168 1.39956,0.50336 0.02,0.01 0.0754,2.29884 0.129,5.082602 0.1196,6.21666 -0.164,5.67436 3.30862,6.23662 2.60954,0.4225 3.63878,0.42536 4.05748,0.006 0.146,-0.146 0.94834,-2.35386 1.78628,-4.90458 l 1.52232,-4.634502 1.7556,-0.135 c 0.9633,-0.0742 2.46182,-0.25564 3.33314,-0.399 1.57732,-0.25956 1.58866,-0.25868 1.9152,0.135 0.1804,0.21756 1.30204,2.059142 2.49832,4.094322 1.19628,2.03518 2.34632,3.84492 2.55358,4.01452 0.56754,0.4644 0.9727,0.39008 3.71374,-0.65682 2.61408,-0.9984 3.1385,-1.36298 3.13674,-2.18528 -5.4e-4,-0.2558 -0.42832,-2.48312 -0.95146,-4.953682 -0.52314,-2.47058 -0.9118,-4.55954 -0.86552,-4.6345 0.0464,-0.075 0.6491,-0.51836 1.34432,-0.9883 0.6952,-0.46992 1.85818,-1.33914 2.58426,-1.9336 0.72612,-0.59444 1.39642,-1.08024 1.4855,-1.08036 0.089,-1.2e-4 1.9888,1.01962 4.22324,2.26508 4.56794,2.54614 4.53976,2.53352 5.14398,2.3817 0.64292,-0.1614 4.11274,-4.52714 4.11274,-5.17468 0,-0.60578 -0.1466,-0.79406 -3.60326,-4.64678 -1.55194,-1.72972 -2.84916,-3.2867 -2.8789,-3.46206 -0.0304,-0.1754 0.26948,-0.95982 0.66294,-1.7433 0.39348,-0.7835 0.95526,-2.04114 1.25224,-2.79298 0.29696,-0.75184 0.61776,-1.44384 0.71206,-1.54074 0.102,-0.1048 2.16526,-0.21152 5.08874,-0.26396 4.6902,-0.084 4.93452,-0.109 5.28516,-0.46038 0.2878,-0.28844 0.45792,-0.93798 0.79186,-2.99556 0.23456,-1.44496 0.42828,-2.79436 0.42968,-3.00168 0.006,-0.83758 -0.49726,-1.09362 -5.27902,-2.68248 l -4.6652,-1.54696 -0.1964,-2.27734 c -0.1092,-1.25242 -0.28536,-2.74626 -0.39284,-3.31476 -0.1074,-0.56848 -0.152,-1.10366 -0.0982,-1.19084 0.0538,-0.0872 1.85478,-1.19788 4.00224,-2.46764 2.14746,-1.26976 4.07908,-2.50142 4.29688,-2.73774 0.2178,-0.23632 0.399,-0.62954 0.399,-0.87166 0,-0.6943 -1.89126,-5.40678 -2.30804,-5.75168 -0.5295,-0.43818 -0.89142,-0.40084 -5.10102,0.4972 -4.94268,1.05446 -5.20838,1.10156 -5.38952,0.97602 -0.0848,-0.0588 -0.53638,-0.6822 -1.00056,-1.38728 -0.46418,-0.70508 -1.3128,-1.85342 -1.8845,-2.55358 -0.57168,-0.70016 -1.03726,-1.34886 -1.03738,-1.4364 -1.2e-4,-0.0876 1.02276,-1.98482 2.2712,-4.22322 1.24844,-2.2385 2.31458,-4.23908 2.37556,-4.44434 0.21098,-0.71002 -0.22916,-1.26078 -2.44308,-3.0385 -2.3594,-1.89454 -2.7729,-2.06984 -3.61554,-1.49164 -0.23936,0.1644 -1.9189,1.63086 -3.726,3.2595 -1.80712,1.62864 -3.41114,2.96486 -3.56642,2.96486 -0.1554,0 -0.9718,-0.35 -1.81698,-0.77344 -0.84518,-0.42338 -2.0532,-0.9462 -2.68248,-1.16628 -1.84366,-0.64472 -1.761,-0.3763 -1.76174,-5.70258 -5.8e-4,-4.23406 -0.0268,-4.65142 -0.3376,-5.1624 -0.20394,-0.33486 -0.5355,-0.59326 -0.83482,-0.65684 -0.76068,-0.1618 -5.03846,-0.80846 -5.365,-0.81058 z"
     style="opacity:0.1;fill:#000000;stroke-width:2"
     id="path1647" />
  <path
     d="m 67.84347,20.000798 c -0.76012,-0.004 -1.05452,0.59812 -2.59656,5.29132 l -1.5346,4.66518 -2.33874,0.20874 c -1.28802,0.1164 -2.77542,0.30172 -3.30246,0.41126 -0.69676,0.1448 -1.0214,0.148 -1.19086,0.006 -0.128,-0.1064 -1.21418,-1.86692 -2.41238,-3.91018 -2.39456,-4.08336 -2.88078,-4.73886 -3.55414,-4.73886 -0.70766,0 -5.44936,1.88856 -5.79466,2.30806 -0.1694,0.20592 -0.30364,0.6288 -0.30076,0.93304 0.002,0.30422 0.42822,2.53086 0.94532,4.95368 0.51712,2.42286 0.9093,4.4885 0.87164,4.5854 -0.0376,0.0968 -0.60046,0.50278 -1.25224,0.90848 -0.65174,0.4057 -1.83704,1.26066 -2.62724,1.89678 -0.79016,0.6361 -1.51016,1.16016 -1.60212,1.16016 -0.0918,0 -1.93912,-1.00374 -4.1066,-2.22824 -4.4567,-2.51776 -4.66874,-2.61486 -5.29746,-2.37556 -0.67926,0.25852 -4.01452,4.49072 -4.01452,5.09488 0,0.65476 0.1612,0.8587 3.56028,4.64064 1.62506,1.8081 2.95258,3.41622 2.95258,3.57254 0,0.1562 -0.3401,0.97706 -0.76116,1.82312 -0.42106,0.84606 -0.98372,2.1097 -1.2461,2.80526 -0.2624,0.69552 -0.57386,1.34302 -0.69364,1.44252 -0.1338,0.1114 -2.09388,0.20112 -5.08874,0.23324 -6.00854,0.0644 -5.47992,-0.22488 -6.04634,3.35156 -0.21934,1.38528 -0.40588,2.7275 -0.41128,2.98328 -0.02,0.95288 0.3831,1.16442 5.2729,2.77456 l 4.65906,1.5346 0.20256,2.2835 c 0.1136,1.25792 0.29456,2.75504 0.399,3.32088 0.1046,0.56586 0.145,1.09868 0.092,1.1847 -0.0532,0.086 -1.85408,1.1949 -4.00224,2.46764 -2.14818,1.27278 -4.07906,2.50942 -4.2969,2.74388 -0.2178,0.23448 -0.39898,0.63422 -0.39898,0.89006 0,0.74848 1.9198,5.47206 2.34486,5.77012 0.55572,0.38964 1.03552,0.332 5.83764,-0.69364 2.41934,-0.51674 4.48144,-0.90108 4.57926,-0.85938 0.0978,0.0418 0.50854,0.60326 0.91462,1.25224 0.40604,0.64896 1.26516,1.83698 1.90904,2.6395 0.80116,0.99856 1.1329,1.55448 1.0558,1.7556 -0.062,0.1618 -1.0539,1.9727 -2.20982,4.0268 -2.36918,4.21018 -2.50558,4.50298 -2.35102,5.11942 0.158,0.63044 4.5155,4.114322 5.144,4.112742 0.64824,-0.002 0.9587,-0.2386 4.59152,-3.523442 1.76848,-1.59908 3.3482,-2.93054 3.51118,-2.95872 0.163,-0.0284 1.00398,0.30048 1.87222,0.73048 0.86822,0.42998 2.19612,0.99956 2.94642,1.2645 0.7503,0.26492 1.38044,0.49168 1.39956,0.50336 0.02,0.01 0.0754,2.29884 0.129,5.082602 0.1196,6.21666 -0.164,5.67436 3.30862,6.23662 2.60954,0.4225 3.63878,0.42536 4.05748,0.006 0.146,-0.146 0.94834,-2.35386 1.78628,-4.90458 l 1.52232,-4.634502 1.7556,-0.135 c 0.9633,-0.0742 2.46182,-0.25564 3.33314,-0.399 1.57732,-0.25956 1.58866,-0.25868 1.9152,0.135 0.1804,0.21756 1.30204,2.05914 2.49832,4.094322 1.19628,2.03518 2.34632,3.84492 2.55358,4.01452 0.56754,0.4644 0.9727,0.39008 3.71374,-0.65682 2.61408,-0.9984 3.1385,-1.36298 3.13674,-2.18528 -5.4e-4,-0.2558 -0.42832,-2.48312 -0.95146,-4.953682 -0.52314,-2.47058 -0.9118,-4.55954 -0.86552,-4.6345 0.0464,-0.075 0.6491,-0.51836 1.34432,-0.9883 0.6952,-0.46992 1.85818,-1.33914 2.58426,-1.9336 0.72612,-0.59444 1.39642,-1.08024 1.4855,-1.08036 0.089,-1.2e-4 1.9888,1.01962 4.22324,2.26508 4.56794,2.54614 4.53976,2.53352 5.14398,2.3817 0.64292,-0.1614 4.11274,-4.52714 4.11274,-5.17468 0,-0.60578 -0.1466,-0.79406 -3.60326,-4.64678 -1.55194,-1.72972 -2.84916,-3.2867 -2.8789,-3.46206 -0.0304,-0.1754 0.26948,-0.95982 0.66294,-1.7433 0.39348,-0.7835 0.95526,-2.04114 1.25224,-2.79298 0.29696,-0.75184 0.61776,-1.44384 0.71206,-1.54074 0.102,-0.1048 2.16526,-0.21152 5.08874,-0.26396 4.6902,-0.084 4.93452,-0.109 5.28516,-0.46038 0.2878,-0.28844 0.45792,-0.93798 0.79186,-2.99556 0.23456,-1.44496 0.42828,-2.79436 0.42968,-3.00168 0.006,-0.83758 -0.49726,-1.09362 -5.27902,-2.68248 l -4.6652,-1.54696 -0.1964,-2.27734 c -0.1092,-1.25242 -0.28536,-2.74626 -0.39284,-3.31476 -0.1074,-0.56848 -0.152,-1.10366 -0.0982,-1.19084 0.0538,-0.0872 1.85478,-1.19788 4.00224,-2.46764 2.14746,-1.26976 4.07908,-2.50142 4.29688,-2.73774 0.2178,-0.23632 0.399,-0.62954 0.399,-0.87166 0,-0.6943 -1.89126,-5.40678 -2.30804,-5.75168 -0.5295,-0.43818 -0.89142,-0.40084 -5.10102,0.4972 -4.94268,1.05446 -5.20838,1.10156 -5.38952,0.97602 -0.0848,-0.0588 -0.53638,-0.6822 -1.00056,-1.38728 -0.46418,-0.70508 -1.3128,-1.85342 -1.8845,-2.55358 -0.57168,-0.70016 -1.03726,-1.34886 -1.03738,-1.4364 -1.2e-4,-0.0876 1.02276,-1.98482 2.2712,-4.22322 1.24844,-2.2385 2.31458,-4.23908 2.37556,-4.44434 0.21098,-0.71002 -0.22916,-1.26078 -2.44308,-3.0385 -2.3594,-1.89454 -2.7729,-2.06984 -3.61554,-1.49164 -0.23936,0.1644 -1.9189,1.63086 -3.726,3.2595 -1.80712,1.62864 -3.41114,2.96486 -3.56642,2.96486 -0.1554,0 -0.9718,-0.35 -1.81698,-0.77344 -0.84518,-0.42338 -2.0532,-0.9462 -2.68248,-1.16628 -1.84366,-0.64472 -1.761,-0.3763 -1.76174,-5.70258 -5.8e-4,-4.23406 -0.0268,-4.65142 -0.3376,-5.1624 -0.20394,-0.33486 -0.5355,-0.59326 -0.83482,-0.65684 -0.76068,-0.1618 -5.03846,-0.80846 -5.365,-0.81058 z"
     style="fill:#768b95;stroke-width:2"
     id="path310"
     sodipodi:nodetypes="ccccscssscsssssssssssscssscccccssssssssssssscsscssccccssssssssssssssscssssssccccsssssssssssssssssssscccc" />
  <path
     d="m 56.00055,42.999998 v 24 h -12 l 20,22 20,-22 h -12 v -24 z"
     style="opacity:0.2;fill:#000000;stroke-width:2"
     id="path1690" />
  <path
     d="m 56.00055,42.000778 v 24 h -12 l 20,22 20,-22 h -12 v -24 z"
     style="fill:#ffffff;stroke-width:2"
     id="path465"
     sodipodi:nodetypes="cccccccc" />
  <path
     id="path437"
     style="opacity:0.1;fill:#ffffff;stroke-width:2"
     d="m 67.843754,19.999998 c -0.76012,-0.004 -1.05562,0.59978 -2.597656,5.292968 l -1.535156,4.664064 -2.335938,0.210936 c -1.288016,0.1164 -2.777648,0.30062 -3.304688,0.410156 -0.696756,0.1448 -1.021946,0.1459 -1.191406,0.004 -0.128,-0.1064 -1.21196,-1.866904 -2.410156,-3.910156 -2.394556,-4.083352 -2.881328,-4.738282 -3.554688,-4.738282 -0.707656,0 -5.451574,1.889094 -5.796874,2.308594 -0.1694,0.20592 -0.303662,0.629354 -0.300782,0.933594 3e-4,0.04556 0.06774,0.377964 0.08594,0.503906 0.05454,-0.17254 0.12886,-0.33299 0.214844,-0.4375 0.3453,-0.4195 5.089218,-2.308594 5.796874,-2.308594 0.67336,0 1.160132,0.65493 3.554688,4.738282 1.198196,2.043252 2.282156,3.803756 2.410156,3.910156 0.16946,0.1419 0.49465,0.1409 1.191406,-0.004 0.52704,-0.10954 2.016672,-0.293756 3.304688,-0.410156 L 63.710944,30.95703 65.2461,26.292966 c 1.542034,-4.693188 1.837534,-5.296968 2.597654,-5.292968 0.32654,0.0022 4.602602,0.6507 5.363282,0.8125 0.299316,0.06358 0.632012,0.321294 0.835936,0.65625 0.310804,0.51098 0.339264,0.926104 0.339844,5.160156 7.4e-4,5.326268 -0.08194,5.058406 1.76172,5.703126 0.629276,0.22008 1.83451,0.744588 2.679686,1.167968 0.84518,0.42344 1.661008,0.773438 1.816406,0.773438 0.15528,0 1.759292,-1.336208 3.566408,-2.964844 1.807096,-1.628636 3.487202,-3.09732 3.726562,-3.261718 0.842636,-0.5782 1.257792,-0.40235 3.617188,1.492186 1.383696,1.111074 2.072218,1.743266 2.34375,2.234376 0.0128,-0.02916 0.0936,-0.18164 0.09766,-0.19532 0.21098,-0.710016 -0.22749,-1.261346 -2.441406,-3.039062 -2.359396,-1.894536 -2.774552,-2.070386 -3.617188,-1.492186 -0.23936,0.1644 -1.919466,1.633082 -3.726562,3.261718 -1.807116,1.628636 -3.411128,2.964844 -3.566408,2.964844 -0.1554,0 -0.971226,-0.349998 -1.816406,-0.773438 -0.845176,-0.42338 -2.05041,-0.947888 -2.679686,-1.167968 -1.843656,-0.64472 -1.76098,-0.376858 -1.76172,-5.703126 -5.8e-4,-4.234052 -0.02904,-4.649176 -0.339844,-5.160156 -0.20394,-0.33486 -0.53662,-0.59267 -0.835936,-0.65625 -0.760684,-0.1618 -5.036746,-0.810374 -5.363286,-0.812494 z M 32.214848,33.992186 c -0.17788,-0.0152 -0.307664,0.0222 -0.464844,0.08204 -0.67926,0.25852 -4.015626,4.493498 -4.015624,5.097658 0,0.1937 0.0481,0.374658 0.15624,0.593748 0.664352,-1.23315 3.268014,-4.466338 3.859376,-4.691406 0.62872,-0.2393 0.840184,-0.13894 5.296876,2.378906 2.167472,1.2245 4.013668,2.226564 4.105468,2.226564 0.09196,0 0.811406,-0.52406 1.601562,-1.160156 0.7902,-0.63612 1.97717,-1.492738 2.628906,-1.898438 0.65178,-0.4057 1.216306,-0.80945 1.253906,-0.90625 0.0116,-0.02996 -0.08256,-0.52011 -0.14454,-0.878906 -0.17516,0.16208 -0.575502,0.452846 -1.109376,0.785156 -0.651736,0.4057 -1.838706,1.262318 -2.628906,1.898438 -0.790156,0.636096 -1.509602,1.160156 -1.601562,1.160156 -0.0918,0 -1.937996,-1.002064 -4.105468,-2.226564 -3.34252,-1.888314 -4.29841,-2.41562 -4.832032,-2.460936 z M 89.62891,41.69531 c -0.08342,0.16572 -0.281276,0.532302 -0.28125,0.550782 1.2e-4,0.08754 0.46348,0.73734 1.035156,1.4375 0.5717,0.70016 1.42254,1.845702 1.88672,2.550782 0.464176,0.705076 0.9152,1.327918 1,1.386718 0.18114,0.12554 0.447956,0.0818 5.390624,-0.972656 4.20959,-0.89804 4.56816,-0.93818 5.09766,-0.5 0.35551,0.294196 1.77511,3.749458 2.1875,5.195312 0.0737,-0.1596 0.1211,-0.31908 0.1211,-0.441406 0,-0.6943 -1.89182,-5.409006 -2.3086,-5.753906 -0.52949,-0.43818 -0.88806,-0.39804 -5.097654,0.5 -4.942668,1.054456 -5.209484,1.098196 -5.390624,0.972656 -0.0848,-0.0588 -0.535824,-0.681642 -1,-1.386718 -0.46418,-0.70508 -1.31502,-1.850622 -1.88672,-2.550782 -0.308458,-0.377784 -0.56427,-0.720234 -0.753906,-0.988282 z m -55.601562,6.332032 c -0.1372,0.33272 -0.32589,0.751346 -0.539062,1.179688 -0.42106,0.846056 -0.983714,2.10913 -1.246094,2.804686 -0.2624,0.69552 -0.575536,1.34191 -0.695312,1.441406 -0.1338,0.1114 -2.094992,0.202256 -5.089844,0.234376 -6.008526,0.0644 -5.480456,-0.22487 -6.046876,3.351562 -0.21934,1.38528 -0.404756,2.728596 -0.410156,2.984376 -0.0038,0.17722 0.0225,0.3252 0.07422,0.464844 0.05356,-0.50244 0.15594,-1.31239 0.335938,-2.44922 0.56642,-3.576432 0.03834,-3.287162 6.046876,-3.351562 2.994852,-0.03212 4.956044,-0.12298 5.089844,-0.234376 0.11978,-0.0995 0.432912,-0.745886 0.695312,-1.441406 0.26238,-0.695556 0.825034,-1.95863 1.246094,-2.804686 0.421056,-0.84606 0.757812,-1.66802 0.757812,-1.82422 0,-0.03734 -0.0816,-0.16972 -0.218752,-0.355468 z m 63.410156,9.90625 c -0.004,0.0038 -0.06494,0.04058 -0.0664,0.04296 -0.0538,0.08718 -0.0098,0.62293 0.09766,1.191406 0.10748,0.5685 0.281426,2.063988 0.390626,3.316408 l 0.19922,2.277342 4.66406,1.546876 c 3.90525,1.297614 4.94081,1.7107 5.19141,2.273438 0.014,-0.12108 0.0857,-0.549068 0.0859,-0.589844 0.006,-0.83758 -0.49559,-1.094738 -5.27735,-2.683594 l -4.664058,-1.546876 -0.19922,-2.277342 c -0.1092,-1.25242 -0.283146,-2.747908 -0.390626,-3.316408 -0.0162,-0.08562 -0.018,-0.15166 -0.03126,-0.234374 z M 30.56641,71.160154 c -0.13388,0.13198 -1.84546,1.187884 -3.941406,2.429688 -2.148174,1.272776 -4.079036,2.507728 -4.296876,2.742188 -0.217796,0.23448 -0.398436,0.634784 -0.398436,0.890624 0,0.1071 0.0447,0.309432 0.11328,0.554688 0.07268,-0.1644 0.17426,-0.325934 0.285156,-0.445312 0.21784,-0.23446 2.148702,-1.469412 4.296876,-2.742188 2.148156,-1.272736 3.9468,-2.38275 4,-2.46875 0.04536,-0.07364 0.0142,-0.492296 -0.0586,-0.960938 z m 63.41797,9.902344 c -0.13786,0.350768 -0.22336,0.632358 -0.207032,0.726562 0.02974,0.17536 1.32697,1.731222 2.878906,3.460938 2.419652,2.696898 3.179884,3.567872 3.441406,4.074218 0.10282,-0.19154 0.16406,-0.341878 0.16406,-0.42578 0,-0.60578 -0.14882,-0.795726 -3.605468,-4.648438 -1.367,-1.523596 -2.392266,-2.758324 -2.671872,-3.1875 z m -55.632814,6.421876 c -0.215084,0.427502 -0.95063,1.77803 -1.992186,3.628906 -2.369176,4.210172 -2.506124,4.504654 -2.351564,5.121094 0.0084,0.0333 0.07096,0.10406 0.10156,0.15234 0.212996,-0.608366 0.775298,-1.652802 2.25,-4.273436 1.155916,-2.054096 2.148936,-3.865544 2.210936,-4.027344 0.03936,-0.10266 -0.03628,-0.302754 -0.21875,-0.601562 z m 43.152344,6.843748 c -0.0158,0.015 -0.13198,0.0939 -0.13672,0.10156 -0.04628,0.07496 0.340144,2.162236 0.86328,4.632812 0.438066,2.068786 0.75344,3.705216 0.863282,4.417966 0.06052,-0.14258 0.09022,-0.29215 0.08984,-0.46484 -5.4e-4,-0.2558 -0.429986,-2.48257 -0.953126,-4.953126 -0.357456,-1.688134 -0.591194,-2.92386 -0.726562,-3.734376 z" />
  <path
     id="path1040"
     style="opacity:0.1;fill:#ffffff;stroke-width:8;stroke-linecap:square"
     d="M 32,8 C 18.704026,8 8,18.704027 8,32 v 1 C 8,19.704013 18.704013,9 32,9 h 64 c 13.29599,0 24,10.704013 24,24 V 32 C 120,18.704027 109.29597,8 96,8 Z" />
</svg>
