<?xml version="1.0" encoding="UTF-8" standalone="no"?>
<!-- Created with Inkscape (http://www.inkscape.org/) -->

<svg
   width="128"
   height="128"
   viewBox="0 0 128 128"
   version="1.1"
   id="svg5"
   inkscape:version="1.3.2 (091e20ef0f, 2023-11-25, custom)"
   sodipodi:docname="sublime-merge.svg"
   xmlns:inkscape="http://www.inkscape.org/namespaces/inkscape"
   xmlns:sodipodi="http://sodipodi.sourceforge.net/DTD/sodipodi-0.dtd"
   xmlns="http://www.w3.org/2000/svg"
   xmlns:svg="http://www.w3.org/2000/svg">
  <sodipodi:namedview
     id="namedview7"
     pagecolor="#ffffff"
     bordercolor="#000000"
     borderopacity="0.25"
     inkscape:showpageshadow="2"
     inkscape:pageopacity="0.0"
     inkscape:pagecheckerboard="0"
     inkscape:deskcolor="#d1d1d1"
     inkscape:document-units="px"
     showgrid="false"
     inkscape:zoom="6.421875"
     inkscape:cx="64"
     inkscape:cy="64"
     inkscape:window-width="1920"
     inkscape:window-height="1008"
     inkscape:window-x="0"
     inkscape:window-y="0"
     inkscape:window-maximized="1"
     inkscape:current-layer="svg5" />
  <defs
     id="defs2" />
  <rect
     style="opacity:0.2;fill:#000000;stroke-width:8;stroke-linecap:square"
     id="rect234"
     width="112"
     height="112"
     x="8"
     y="9"
     ry="24" />
  <rect
     style="fill:#4d4d4d;fill-opacity:1;stroke-width:8;stroke-linecap:square"
     id="rect396"
     width="112"
     height="112"
     x="8"
     y="8"
     ry="24" />
  <path
     id="path2"
     style="opacity:0.2;fill:#000000;fill-rule:evenodd;stroke-width:4"
     d="m 37.046876,29.008478 c -0.11356,-0.0024 -0.22512,0.0038 -0.33592,0.02344 -0.443208,0.07828 -0.854744,0.328804 -1.132816,0.72656 L 24.320312,45.8366 C 23.76237,46.632124 23.956282,47.731784 24.75,48.289728 L 48.593752,64.813164 64.6875,53.469416 c 0.34376,-0.24116 0.750064,-0.34316 1.140624,-0.31252 l 0.008,-0.008 h 5.992188 L 38.031252,29.32879 c -0.29764,-0.209216 -0.643728,-0.313208 -0.984376,-0.320312 z m 66.750004,35.179686 c 0.23852,0.461224 0.26128,1.0018 0.0703,1.476564 0.19304,-0.47578 0.16772,-1.019528 -0.0703,-1.476564 z" />
  <path
     style="fill:#9adede;fill-rule:evenodd;stroke-width:4"
     d="m 36.712148,28.03512 c -0.443208,0.07828 -0.854688,0.327652 -1.13276,0.72541 L 24.31878,44.836752 c -0.557944,0.795524 -0.364052,1.891716 0.429666,2.44966 L 50.824176,65.3603 64.685108,55.729076 c 0.34376,-0.24116 0.747776,-0.34308 1.138336,-0.31248 l 0.0112,-0.0112 h 26.60026 c 0.476952,0 0.910848,0.19264 1.227616,0.502208 0.038,0.036 0.40092,0.38008 0.931876,0.954192 v -0.0168 l 8.699364,8.587844 0.18976,-0.18416 c 0.68574,-0.687532 0.69205,-1.809368 0,-2.48872 L 95.013072,54.445404 C 94.276948,53.648084 93.742964,53.16594 93.696168,53.11734 93.375808,52.79158 92.92822,52.592812 92.435072,52.592812 H 72.458176 L 38.029056,28.325294 C 37.6322,28.046336 37.15536,27.956838 36.71216,28.035128 Z"
     id="path3" />
  <path
     id="path4"
     style="opacity:0.2;fill:#000000;fill-rule:evenodd;stroke-width:4"
     d="m 65.835936,53.149644 -0.008,0.008 c -0.39056,-0.0308 -0.796864,0.07136 -1.140624,0.31252 L 24.75,81.626208 c -0.79372,0.557944 -0.98763,1.751356 -0.429688,2.546876 l 11.257812,16.078126 c 0.556144,0.79372 1.651596,0.98763 2.445312,0.42969 L 72.445312,76.88402 H 92.4375 c 0.493148,0 0.937452,-0.20368 1.257812,-0.531248 0.0468,-0.0486 0.614292,-0.557924 1.382812,-1.39844 l 8.406256,-8.703124 c 0.68572,-0.687528 0.67481,-1.79572 0,-2.492188 l -8.890628,-9.171876 v 0.0156 c -0.530944,-0.574144 -0.891688,-0.917128 -0.929688,-0.953128 -0.31676,-0.30956 -0.749616,-0.5 -1.226564,-0.5 z" />
  <path
     style="fill:#00c8c6;fill-rule:evenodd;stroke-width:4"
     d="m 65.82492,52.160616 0.0072,-0.0112 h 26.603104 c 0.476948,0 0.910708,0.1908 1.227476,0.500352 0.038,0.036 0.39956,0.37976 0.930504,0.953904 v -0.0164 l 8.889296,9.174544 c 0.67482,0.696468 0.68573,1.799816 0,2.487344 l -8.405148,8.70668 c -0.76852,0.840516 -1.33726,1.349864 -1.38406,1.39846 -0.32036,0.32756 -0.76492,0.530944 -1.258068,0.530944 H 72.446396 l -34.419712,23.79668 c -0.793716,0.557946 -1.891604,0.363556 -2.447752,-0.430152 L 24.31933,83.170548 c -0.557942,-0.79552 -0.363564,-1.989176 0.430156,-2.54712 l 39.937946,-28.15144 c 0.34376,-0.24116 0.746928,-0.342 1.137488,-0.31136 z"
     id="path5" />
  <path
     id="path1040"
     style="opacity:0.1;fill:#ffffff;stroke-width:8;stroke-linecap:square"
     d="M 32,8 C 18.70404,8 8,18.70404 8,32 v 1 C 8,19.704042 18.70404,9 32,9 h 64 c 13.29596,0 24,10.704042 24,24 V 32 C 120,18.70404 109.29596,8 96,8 Z" />
</svg>
