<?xml version="1.0" encoding="UTF-8" standalone="no"?>
<!-- Created with Inkscape (http://www.inkscape.org/) -->

<svg
   width="128"
   height="128"
   viewBox="0 0 128 128"
   version="1.1"
   id="svg5"
   inkscape:version="1.3.2 (091e20ef0f, 2023-11-25, custom)"
   sodipodi:docname="sublime-text.svg"
   xmlns:inkscape="http://www.inkscape.org/namespaces/inkscape"
   xmlns:sodipodi="http://sodipodi.sourceforge.net/DTD/sodipodi-0.dtd"
   xmlns="http://www.w3.org/2000/svg"
   xmlns:svg="http://www.w3.org/2000/svg">
  <sodipodi:namedview
     id="namedview7"
     pagecolor="#ffffff"
     bordercolor="#000000"
     borderopacity="0.25"
     inkscape:showpageshadow="2"
     inkscape:pageopacity="0.0"
     inkscape:pagecheckerboard="0"
     inkscape:deskcolor="#d1d1d1"
     inkscape:document-units="px"
     showgrid="false"
     inkscape:zoom="6.421875"
     inkscape:cx="64"
     inkscape:cy="64"
     inkscape:window-width="1920"
     inkscape:window-height="1008"
     inkscape:window-x="0"
     inkscape:window-y="0"
     inkscape:window-maximized="1"
     inkscape:current-layer="svg5" />
  <defs
     id="defs2" />
  <rect
     style="opacity:0.2;fill:#000000;stroke-width:8;stroke-linecap:square"
     id="rect234"
     width="112"
     height="112"
     x="8"
     y="9"
     ry="24" />
  <rect
     style="fill:#4d4d4d;fill-opacity:1;stroke-width:8;stroke-linecap:square"
     id="rect396"
     width="112"
     height="112"
     x="8"
     y="8"
     ry="24" />
  <path
     d="M 96,21 32,41 V 65 L 61.09376,75.906252 32,85 v 24 L 96,89 V 65 L 66.90624,54.093752 96,45 Z"
     style="opacity:0.2;fill:#000000;stroke-width:4"
     id="path2550"
     sodipodi:nodetypes="ccccccccccc" />
  <path
     d="M 96,64 32,84 v 24 L 96,88 Z"
     style="fill:#ffab36;stroke-width:4"
     id="path2453" />
  <path
     id="path2481"
     style="opacity:0.2;fill:#000000;stroke-width:4"
     d="M 94.542968,64.453124 85.304688,67.34375 59.644532,75.367188 94.542968,88.453124 96,88 V 65 l -1.449218,-0.546876 z" />
  <path
     d="M 32,40 96,64 V 88 L 32,64 Z"
     style="fill:#ffab36;stroke-width:4"
     id="path2425"
     sodipodi:nodetypes="ccccc" />
  <path
     d="M 96,20 32,40 V 64 L 96,44 Z"
     style="fill:#ffab36;stroke-width:4"
     id="path2369"
     sodipodi:nodetypes="ccccc" />
  <path
     id="path1040"
     style="opacity:0.1;fill:#ffffff;stroke-width:8;stroke-linecap:square"
     d="M 32,8 C 18.70404,8 8,18.70404 8,32 v 1 C 8,19.704042 18.70404,9 32,9 h 64 c 13.29596,0 24,10.704042 24,24 V 32 C 120,18.70404 109.29596,8 96,8 Z" />
</svg>
