<?xml version="1.0" encoding="UTF-8" standalone="no"?>
<!-- Created with Inkscape (http://www.inkscape.org/) -->

<svg
   width="128"
   height="128"
   viewBox="0 0 128 128"
   version="1.1"
   id="svg5"
   inkscape:version="1.2.2 (1:1.2.2+202305151914+b0a8486541)"
   sodipodi:docname="system-file-manager.svg"
   xmlns:inkscape="http://www.inkscape.org/namespaces/inkscape"
   xmlns:sodipodi="http://sodipodi.sourceforge.net/DTD/sodipodi-0.dtd"
   xmlns="http://www.w3.org/2000/svg"
   xmlns:svg="http://www.w3.org/2000/svg">
  <sodipodi:namedview
     id="namedview7"
     pagecolor="#ffffff"
     bordercolor="#000000"
     borderopacity="0.25"
     inkscape:showpageshadow="2"
     inkscape:pageopacity="0.0"
     inkscape:pagecheckerboard="0"
     inkscape:deskcolor="#d1d1d1"
     inkscape:document-units="px"
     showgrid="false"
     inkscape:zoom="6.484375"
     inkscape:cx="64"
     inkscape:cy="64"
     inkscape:window-width="1920"
     inkscape:window-height="1008"
     inkscape:window-x="0"
     inkscape:window-y="0"
     inkscape:window-maximized="1"
     inkscape:current-layer="svg5" />
  <defs
     id="defs2" />
  <rect
     style="opacity:0.2;fill:#000000;stroke-width:8;stroke-linecap:square"
     id="rect234"
     width="112"
     height="112"
     x="8"
     y="9"
     ry="24" />
  <rect
     style="fill:#f5f5f5;fill-opacity:1;stroke-width:8;stroke-linecap:square"
     id="rect396"
     width="112"
     height="112"
     x="8"
     y="8"
     ry="24" />
  <path
     d="m 28,31 c -2.20912,0 -4,1.79088 -4,4 v 60 c 0,2.20912 1.79088,4 4,4 h 72 c 2.20912,0 4,-1.79088 4,-4 V 43 c 0,-2.20912 -1.79088,-4 -4,-4 H 64 c -6,0 -8,-8 -14,-8 z"
     style="opacity:0.2;fill:#000000;fill-opacity:1;stroke-width:3.94558"
     id="path3821"
     sodipodi:nodetypes="sssssssssss" />
  <path
     d="m 28,30 c -2.20912,0 -4,1.79088 -4,4 v 48 c 0,2.20912 1.79088,4 4,4 h 72 c 2.20912,0 4,-1.79088 4,-4 V 42 c 0,-2.20912 -1.79088,-4 -4,-4 H 64 c -6,0 -8,-8 -14,-8 z"
     style="fill:#0277bd;fill-opacity:1;stroke-width:3.94558"
     id="path3588"
     sodipodi:nodetypes="sssssssssss" />
  <path
     id="path3849"
     style="opacity:0.1;fill:#ffffff;fill-opacity:1;stroke-width:3.94558"
     d="m 28,30 c -2.209118,0 -4,1.790882 -4,4 v 1 c 0,-2.209118 1.790882,-4 4,-4 h 22 c 5.999994,0 8.000006,8 14,8 h 36 c 2.20912,0 4,1.790882 4,4 v -1 c 0,-2.209118 -1.79088,-4 -4,-4 H 64 c -5.999994,0 -8.000006,-8 -14,-8 z" />
  <rect
     style="opacity:0.2;fill:#000000;fill-opacity:1;stroke-width:8;stroke-linecap:square"
     id="rect3608"
     width="80"
     height="48"
     x="24"
     y="49"
     ry="4" />
  <rect
     style="fill:#29b6f6;fill-opacity:1;stroke-width:4;stroke-linecap:square"
     id="rect3610"
     width="80"
     height="48"
     x="24"
     y="50"
     ry="4" />
  <path
     id="path1040"
     style="opacity:0.2;fill:#ffffff;stroke-width:8;stroke-linecap:square"
     d="M 32,8 C 18.70404,8 8,18.70404 8,32 v 1 C 8,19.704013 18.704013,9 32,9 h 64 c 13.29599,0 24,10.704013 24,24 V 32 C 120,18.70404 109.29596,8 96,8 Z" />
</svg>
