<?xml version="1.0" encoding="UTF-8" standalone="no"?>
<!-- Created with Inkscape (http://www.inkscape.org/) -->

<svg
   width="128"
   height="128"
   viewBox="0 0 128 128"
   version="1.1"
   id="svg5"
   inkscape:version="1.3 (0e150ed6c4, 2023-07-21)"
   sodipodi:docname="system-help.svg"
   xmlns:inkscape="http://www.inkscape.org/namespaces/inkscape"
   xmlns:sodipodi="http://sodipodi.sourceforge.net/DTD/sodipodi-0.dtd"
   xmlns="http://www.w3.org/2000/svg"
   xmlns:svg="http://www.w3.org/2000/svg">
  <sodipodi:namedview
     id="namedview7"
     pagecolor="#ffffff"
     bordercolor="#000000"
     borderopacity="0.25"
     inkscape:showpageshadow="2"
     inkscape:pageopacity="0.0"
     inkscape:pagecheckerboard="0"
     inkscape:deskcolor="#d1d1d1"
     inkscape:document-units="px"
     showgrid="false"
     inkscape:zoom="6.15625"
     inkscape:cx="64"
     inkscape:cy="64"
     inkscape:window-width="1920"
     inkscape:window-height="1004"
     inkscape:window-x="0"
     inkscape:window-y="0"
     inkscape:window-maximized="1"
     inkscape:current-layer="svg5" />
  <defs
     id="defs2" />
  <rect
     style="opacity:0.2;fill:#000000;stroke-width:8;stroke-linecap:square"
     id="rect234"
     width="112"
     height="112"
     x="8"
     y="9"
     ry="24" />
  <rect
     style="fill:#f6bfb9;fill-opacity:1;stroke-width:8;stroke-linecap:square"
     id="rect396"
     width="112"
     height="112"
     x="8"
     y="8"
     ry="24" />
  <path
     style="opacity:0.2;fill:#000000;stroke-width:2"
     d="m 64.246592,27.000498 c -4.934278,-0.02526 -9.960028,0.91952 -14.816406,2.9375 C 30.004674,38.0103 20.864934,60.145298 28.937998,79.57081 37.01011,98.996322 59.145298,108.13606 78.57081,100.063 97.996322,91.991836 107.13606,69.855698 99.062998,50.430186 93.009624,35.860862 79.045624,27.076498 64.246592,27.000498 Z m -0.246094,18 a 20,20 0 0 1 20,20 20,20 0 0 1 -20,20 20,20 0 0 1 -20,-20 20,20 0 0 1 20,-20 z"
     id="path1" />
  <path
     style="fill:#e4e4e4;stroke-width:2"
     d="m 64.246592,26.000498 c -4.934278,-0.02526 -9.960028,0.91952 -14.816406,2.9375 C 30.004674,37.0103 20.864934,59.145298 28.937998,78.57081 37.01011,97.996322 59.145298,107.13606 78.57081,99.062998 97.996322,90.991836 107.13606,68.855698 99.062998,49.430186 93.009624,34.860862 79.045624,26.076498 64.246592,26.000498 Z m -0.246094,18 a 20,20 0 0 1 20,20 20,20 0 0 1 -20,20 20,20 0 0 1 -20,-20 20,20 0 0 1 20,-20 z"
     id="path2" />
  <path
     id="path3"
     style="opacity:0.2;fill:#ffffff;stroke-width:2"
     d="M 64.246094,26 C 59.31182,25.97474 54.28606,26.919522 49.429688,28.9375 35.177698,34.859936 26.502468,48.354802 26.0625,62.792968 26.866796,48.734012 35.506408,35.72334 49.429688,29.9375 54.28606,27.919522 59.31182,26.97474 64.246094,27 79.04511,27.076 93.009132,35.860378 99.0625,50.429688 c 1.7575,4.22893 2.6971,8.585658 2.89453,12.898436 -0.0827,-4.638332 -1.00058,-9.34119 -2.89453,-13.898436 C 93.009132,34.860378 79.04511,26.076 64.246094,26 Z M 83.957032,64.828124 A 20,20 0 0 1 64,84 20,20 0 0 1 44.042968,65.171876 20,20 0 0 0 44.035156,65.347656 20,20 0 0 0 64,85 20,20 0 0 0 83.972656,65.269532 a 20,20 0 0 0 -0.0156,-0.441408 z" />
  <path
     style="opacity:0.2;fill:#000000;stroke-width:2"
     d="m 64.242686,23.000498 c -4.662676,-0.02404 -9.395612,0.82239 -13.98047,2.589844 a 3.5120452,3.545861 0 0 0 -2.03125,4.574218 l 6.238282,16.535156 a 3.5120452,3.545861 0 0 0 4.53125,2.054688 c 1.594236,-0.614668 3.289608,-0.931296 4.996094,-0.933594 1.705292,0.0064 3.39262,0.327456 4.984374,0.945312 a 3.5120452,3.545861 0 0 0 4.539064,-2.046874 l 6.25,-16.558594 A 3.5120452,3.545861 0 0 0 77.734874,25.58253 C 73.47602,23.944896 68.917844,23.024598 64.242686,23.000498 Z m -36.359376,26 a 3.545861,3.5120452 0 0 0 -3.292968,2.261718 c -1.767454,4.584858 -2.613884,9.317794 -2.589844,13.98047 0.0241,4.675158 0.944398,9.233334 2.582032,13.492188 a 3.545861,3.5120452 0 0 0 4.578124,2.035156 l 16.558594,-6.246094 a 3.545861,3.5120452 0 0 0 2.046874,-4.54297 c -0.617854,-1.591754 -0.938912,-3.279082 -0.945312,-4.984374 0.0022,-1.706486 0.318926,-3.401858 0.933594,-4.996094 a 3.545861,3.5120452 0 0 0 -2.054688,-4.53125 L 29.16456,49.230966 a 3.545861,3.5120452 0 0 0 -1.28125,-0.230468 z m 72.23438,0 a 3.545861,3.5120452 0 0 0 -1.281254,0.230468 L 82.30128,55.469248 a 3.545861,3.5120452 0 0 0 -2.054688,4.53125 c 0.614668,1.594236 0.931296,3.289608 0.933594,4.996094 -0.0064,1.705292 -0.327458,3.39262 -0.945312,4.984374 a 3.545861,3.5120452 0 0 0 2.046874,4.54297 l 16.558594,6.246094 a 3.545861,3.5120452 0 0 0 4.578128,-2.035156 c 1.63763,-4.258852 2.55793,-8.81703 2.58203,-13.492188 0.024,-4.662676 -0.82239,-9.395612 -2.58985,-13.98047 a 3.545861,3.5120452 0 0 0 -3.29296,-2.261718 z M 70.355966,81.004404 a 3.5120452,3.545861 0 0 0 -1.375,0.23047 c -1.591754,0.617854 -3.279082,0.938912 -4.984374,0.945312 -1.706486,-0.0022 -3.401858,-0.318926 -4.996094,-0.933594 a 3.5120452,3.545861 0 0 0 -4.53125,2.054688 l -6.238282,16.535156 a 3.5120452,3.545861 0 0 0 2.03125,4.574214 c 4.584858,1.76746 9.317794,2.61389 13.98047,2.58985 4.675158,-0.0241 9.233336,-0.9444 13.492188,-2.58203 a 3.5120452,3.545861 0 0 0 2.035156,-4.578128 l -6.25,-16.558594 a 3.5120452,3.545861 0 0 0 -3.164064,-2.277344 z"
     id="path4" />
  <path
     style="fill:#e74c3c;stroke-width:2"
     d="m 64.242686,22.000498 c -4.662676,-0.02404 -9.395612,0.82239 -13.98047,2.589844 a 3.5120452,3.545861 0 0 0 -2.03125,4.574218 l 6.238282,16.535156 a 3.5120452,3.545861 0 0 0 4.53125,2.054688 c 1.594236,-0.614668 3.289608,-0.931296 4.996094,-0.933594 1.705292,0.0064 3.39262,0.327456 4.984374,0.945312 a 3.5120452,3.545861 0 0 0 4.539064,-2.046874 l 6.25,-16.558594 A 3.5120452,3.545861 0 0 0 77.734874,24.58253 C 73.47602,22.944896 68.917844,22.024598 64.242686,22.000498 Z m -36.359376,26 a 3.545861,3.5120452 0 0 0 -3.292968,2.261718 c -1.767454,4.584858 -2.613884,9.317794 -2.589844,13.98047 0.0241,4.675158 0.944398,9.233334 2.582032,13.492188 a 3.545861,3.5120452 0 0 0 4.578124,2.035156 l 16.558594,-6.246094 a 3.545861,3.5120452 0 0 0 2.046874,-4.54297 c -0.617854,-1.591754 -0.938912,-3.279082 -0.945312,-4.984374 0.0022,-1.706486 0.318926,-3.401858 0.933594,-4.996094 a 3.545861,3.5120452 0 0 0 -2.054688,-4.53125 L 29.16456,48.230966 a 3.545861,3.5120452 0 0 0 -1.28125,-0.230468 z m 72.23438,0 a 3.545861,3.5120452 0 0 0 -1.281254,0.230468 L 82.30128,54.469248 a 3.545861,3.5120452 0 0 0 -2.054688,4.53125 c 0.614668,1.594236 0.931296,3.289608 0.933594,4.996094 -0.0064,1.705292 -0.327458,3.39262 -0.945312,4.984374 a 3.545861,3.5120452 0 0 0 2.046874,4.54297 l 16.558594,6.246094 a 3.545861,3.5120452 0 0 0 4.578128,-2.035156 c 1.63763,-4.258852 2.55793,-8.81703 2.58203,-13.492188 0.024,-4.662676 -0.82239,-9.395612 -2.58985,-13.98047 a 3.545861,3.5120452 0 0 0 -3.29296,-2.261718 z M 70.355966,80.004404 a 3.5120452,3.545861 0 0 0 -1.375,0.23047 c -1.591754,0.617854 -3.279082,0.938912 -4.984374,0.945312 -1.706486,-0.0022 -3.401858,-0.318926 -4.996094,-0.933594 a 3.5120452,3.545861 0 0 0 -4.53125,2.054688 l -6.238282,16.535156 a 3.5120452,3.545861 0 0 0 2.03125,4.574214 c 4.584858,1.76746 9.317794,2.61389 13.98047,2.58985 4.675158,-0.0241 9.233336,-0.9444 13.492188,-2.58203 a 3.5120452,3.545861 0 0 0 2.035156,-4.578128 l -6.25,-16.558594 a 3.5120452,3.545861 0 0 0 -3.164064,-2.277344 z"
     id="path5" />
  <path
     id="path1040"
     style="opacity:0.2;fill:#ffffff;stroke-width:8;stroke-linecap:square"
     d="M 32,8 C 18.70404,8 8,18.70404 8,32 v 1 C 8,19.704042 18.70404,9 32,9 h 64 c 13.29596,0 24,10.704042 24,24 V 32 C 120,18.70404 109.29596,8 96,8 Z" />
</svg>
