<?xml version="1.0" encoding="UTF-8" standalone="no"?>
<!-- Created with Inkscape (http://www.inkscape.org/) -->

<svg
   width="128"
   height="128"
   viewBox="0 0 128 128"
   version="1.1"
   id="svg5"
   inkscape:version="1.3 (0e150ed6c4, 2023-07-21)"
   sodipodi:docname="telegram.svg"
   xmlns:inkscape="http://www.inkscape.org/namespaces/inkscape"
   xmlns:sodipodi="http://sodipodi.sourceforge.net/DTD/sodipodi-0.dtd"
   xmlns="http://www.w3.org/2000/svg"
   xmlns:svg="http://www.w3.org/2000/svg">
  <sodipodi:namedview
     id="namedview7"
     pagecolor="#ffffff"
     bordercolor="#000000"
     borderopacity="0.25"
     inkscape:showpageshadow="2"
     inkscape:pageopacity="0.0"
     inkscape:pagecheckerboard="0"
     inkscape:deskcolor="#d1d1d1"
     inkscape:document-units="px"
     showgrid="false"
     inkscape:zoom="6.1171875"
     inkscape:cx="63.918263"
     inkscape:cy="64"
     inkscape:window-width="1920"
     inkscape:window-height="984"
     inkscape:window-x="0"
     inkscape:window-y="29"
     inkscape:window-maximized="1"
     inkscape:current-layer="svg5" />
  <defs
     id="defs2" />
  <rect
     style="opacity:0.2;fill:#000000;stroke-width:8;stroke-linecap:square"
     id="rect234"
     width="112"
     height="112"
     x="8"
     y="9"
     ry="24" />
  <rect
     style="fill:#28a4e2;fill-opacity:1;stroke-width:8;stroke-linecap:square"
     id="rect396"
     width="112"
     height="112"
     x="8"
     y="8"
     ry="24" />
  <path
     d="m 87.72386,90.56382 c 1.076,-2.068 7.272,-37.384 8.156,-46.516 0.96,-9.046 -4.036,-7.3636 -8.632,-5.8352 -11.276,3.7632 -46.9248,19.0152 -56.6828,24.0472 -2.402,0.984 -3.4404,2.656 -1.6924,4.1 1.5048,1.224 7.012,2.908 11.4532,3.764 3.786,1.132 6.726,0.048 9.442,-1.468 6.524,-3.82 25.964,-15.976 27.008,-16.656 1.048,-0.676 2.192,0.58 1.608,1.188 -0.584,0.612 -14.352,12.812 -18.872,18.328 -2.396,3.032 -2.324,4.652 0.136,6.564 5.52,4.276 20.264,14.028 22.46,14.616 2.796,0.752 4.436,0.128 5.616,-2.132 z"
     style="opacity:0.2;fill:#000000;stroke-width:4"
     id="path1951"
     sodipodi:nodetypes="ccccccccccccc" />
  <path
     d="m 87.72386,89.564172 c 1.076,-2.068 7.272,-37.384 8.156,-46.516 0.96,-9.046 -4.036,-7.3636 -8.632,-5.8352 -11.276,3.7632 -46.9248,19.0152 -56.6828,24.0472 -2.402,0.984 -3.4404,2.656 -1.6924,4.1 1.5048,1.224 7.012,2.908 11.4532,3.764 3.786,1.132 6.726,0.048 9.442,-1.468 6.524,-3.82 25.964,-15.976 27.008,-16.656 1.048,-0.676 2.192,0.58 1.608,1.188 -0.584,0.612 -14.352,12.812 -18.872,18.328 -2.396,3.032 -2.324,4.652 0.136,6.564 5.52,4.276 20.264,14.028 22.46,14.616 2.796,0.752 4.436,0.128 5.616,-2.132 z"
     style="fill:#ffffff;stroke-width:4"
     id="path1979" />
  <path
     id="path1040"
     style="opacity:0.2;fill:#ffffff;stroke-width:8;stroke-linecap:square"
     d="M 32,8 C 18.70404,8 8,18.70404 8,32 v 1 C 8,19.704041 18.70404,9 32,9 h 64 c 13.29596,0 24,10.704041 24,24 V 32 C 120,18.70404 109.29596,8 96,8 Z" />
</svg>
