<?xml version="1.0" encoding="UTF-8" standalone="no"?>
<!-- Created with Inkscape (http://www.inkscape.org/) -->

<svg
   width="128"
   height="128"
   viewBox="0 0 128 128"
   version="1.1"
   id="svg5"
   inkscape:version="1.3 (0e150ed6c4, 2023-07-21)"
   sodipodi:docname="the-sims-4.svg"
   xmlns:inkscape="http://www.inkscape.org/namespaces/inkscape"
   xmlns:sodipodi="http://sodipodi.sourceforge.net/DTD/sodipodi-0.dtd"
   xmlns="http://www.w3.org/2000/svg"
   xmlns:svg="http://www.w3.org/2000/svg">
  <sodipodi:namedview
     id="namedview7"
     pagecolor="#ffffff"
     bordercolor="#000000"
     borderopacity="0.25"
     inkscape:showpageshadow="2"
     inkscape:pageopacity="0.0"
     inkscape:pagecheckerboard="0"
     inkscape:deskcolor="#d1d1d1"
     inkscape:document-units="px"
     showgrid="false"
     inkscape:zoom="6.25"
     inkscape:cx="63.92"
     inkscape:cy="64"
     inkscape:window-width="1920"
     inkscape:window-height="1004"
     inkscape:window-x="0"
     inkscape:window-y="0"
     inkscape:window-maximized="1"
     inkscape:current-layer="svg5" />
  <defs
     id="defs2" />
  <rect
     style="opacity:0.2;fill:#000000;stroke-width:8;stroke-linecap:square"
     id="rect234"
     width="112"
     height="112"
     x="8"
     y="9"
     ry="24" />
  <rect
     style="fill:#e4e4e4;fill-opacity:1;stroke-width:8;stroke-linecap:square"
     id="rect396"
     width="112"
     height="112"
     x="8"
     y="8"
     ry="24" />
  <path
     d="M 64,21 40,65 64,109 88,65 Z"
     style="opacity:0.1;fill:#000000;stroke-width:4"
     id="path3" />
  <path
     d="M 64,20 40,64 64,108 88,64 Z"
     style="fill:#72be45;stroke-width:4"
     id="path4" />
  <path
     d="M 52,64 H 76 L 64,20 Z"
     style="fill:#a7e077;stroke-width:4"
     id="path5" />
  <path
     d="M 40,64 64,108 52,64 Z M 64,108 88,64 H 76 Z"
     style="opacity:0.4;fill:#008000;stroke-width:4"
     id="path6" />
  <path
     id="path7"
     style="opacity:0.2;fill:#ffffff;stroke-width:4"
     d="M 64,20 40,64 40.273438,64.5 64,21 87.726562,64.5 88,64 Z" />
  <g
     id="g361"
     transform="matrix(1.9999884,0,0,1.9999884,1.396e-4,1.396e-4)" />
  <path
     id="path1040"
     style="opacity:0.2;fill:#ffffff;stroke-width:8;stroke-linecap:square"
     d="M 32,8 C 18.70404,8 8,18.70404 8,32 v 1 C 8,19.704042 18.70404,9 32,9 h 64 c 13.29596,0 24,10.704042 24,24 V 32 C 120,18.70404 109.29596,8 96,8 Z" />
</svg>
