<?xml version="1.0" encoding="UTF-8" standalone="no"?>
<!-- Created with Inkscape (http://www.inkscape.org/) -->

<svg
   width="128"
   height="128"
   viewBox="0 0 128 128"
   version="1.1"
   id="svg5"
   inkscape:version="1.2.2 (1:1.2.2+202305151914+b0a8486541)"
   sodipodi:docname="thunderbird.svg"
   xmlns:inkscape="http://www.inkscape.org/namespaces/inkscape"
   xmlns:sodipodi="http://sodipodi.sourceforge.net/DTD/sodipodi-0.dtd"
   xmlns="http://www.w3.org/2000/svg"
   xmlns:svg="http://www.w3.org/2000/svg">
  <sodipodi:namedview
     id="namedview7"
     pagecolor="#ffffff"
     bordercolor="#000000"
     borderopacity="0.25"
     inkscape:showpageshadow="2"
     inkscape:pageopacity="0.0"
     inkscape:pagecheckerboard="0"
     inkscape:deskcolor="#d1d1d1"
     inkscape:document-units="px"
     showgrid="false"
     inkscape:zoom="6.296875"
     inkscape:cx="64"
     inkscape:cy="64"
     inkscape:window-width="1920"
     inkscape:window-height="1008"
     inkscape:window-x="0"
     inkscape:window-y="0"
     inkscape:window-maximized="1"
     inkscape:current-layer="svg5" />
  <defs
     id="defs2" />
  <rect
     style="opacity:0.2;fill:#000000;stroke-width:8;stroke-linecap:square"
     id="rect234"
     width="112"
     height="112"
     x="8"
     y="9"
     ry="24" />
  <rect
     style="fill:#0a4f8d;fill-opacity:1;stroke-width:8;stroke-linecap:square"
     id="rect396"
     width="112"
     height="112"
     x="8"
     y="8"
     ry="24" />
  <path
     style="opacity:0.2;fill:#000000;stroke-width:2"
     d="m 56.859886,37.860008 c 2.2,-8.16 12.44,-12.86 23.14,-12.86 7.739997,0 15.239994,1.94 19.999994,6 -2.84,0.14 -6.5,1.88 -7.999997,4 4.279997,0.48 7.559997,1.16 9.999997,4 -1.84,-0.34 -4.3,-0.44 -6,0 1.2,1.8 3.1,3.84 4,6 2.6,6.18 4.02,13.74 4,20 C 103.99988,88.080004 86.859883,105 63.999886,105 c -22.86,0 -40,-17.139992 -40,-39.999992 0,-3.6 0.58,-8.72 1.64,-12.28 0.24,-0.74 0.56,-1.4 0.98,-1.66 0.08,-0.04 0.16,-0.06 0.24,-0.06 0.44,0 0.78,0.74 0.86,1.02 0.58,2.28 1.3,4.84 2.28,6.98 0,-4.74 1.66,-9.78 4.34,-13.54 1.8,-2.5 5.16,-4.56 5.94,-11.26 0,0 0.06,-0.62 0.86,-0.62 4.86,1.42 4.86,12.84 4.86,21.42 3.22,0.48 4.46,-5.64 4.46,-5.64 -0.42,-1.18 -0.46,-1.72 -0.46,-2.36 0,-2.86 1.9,-6.98 6.86,-9.14 z"
     id="path4690" />
  <path
     style="fill:#248afd;stroke-width:2"
     d="m 56.859886,36.860008 c 2.2,-8.16 12.44,-12.86 23.14,-12.86 7.739997,0 15.239994,1.94 19.999994,6 -2.84,0.14 -6.5,1.88 -7.999997,4 4.279997,0.48 7.559997,1.16 9.999997,4 -1.84,-0.34 -4.3,-0.44 -6,0 1.2,1.8 3.1,3.84 4,6 2.6,6.18 4.02,13.74 4,20 0,23.08 -17.139997,39.999992 -39.999994,39.999992 -22.86,0 -40,-17.139992 -40,-39.999992 0,-3.6 0.58,-8.72 1.64,-12.28 0.24,-0.74 0.56,-1.4 0.98,-1.66 0.08,-0.04 0.16,-0.06 0.24,-0.06 0.44,0 0.78,0.74 0.86,1.02 0.58,2.28 1.3,4.84 2.28,6.98 0,-4.74 1.66,-9.78 4.34,-13.54 1.8,-2.5 5.16,-4.56 5.94,-11.26 0,0 0.06,-0.62 0.86,-0.62 4.86,1.42 4.86,12.84 4.86,21.42 3.22,0.48 4.46,-5.64 4.46,-5.64 -0.42,-1.18 -0.46,-1.72 -0.46,-2.36 0,-2.86 1.9,-6.98 6.86,-9.14 z"
     id="path4692" />
  <path
     style="fill:#0271ef;stroke-width:2"
     d="m 101.99988,50.000008 c 0.16,0.48 0.58,2.36 0.58,4 0,22 -17.299997,41.999992 -38.579994,41.999992 -8.32,0 -14.78,-2.54 -21.42,-7.719996 -10.28,-7.979996 -17.16,-17.419996 -17.16,-29.999996 0,-2.86 0.66,-6.38 1.02,-7.8 0.1,-0.4 0.24,-0.48 0.42,-0.48 -0.06,0 -0.18,0.02 -0.24,0.06 -0.44,0.3 -0.7,0.9 -0.98,1.66 -0.46,1.16 -1.08,4.7 -1.14,5.14 -0.2,1.46 -0.5,4.72 -0.5,7.14 0,22.86 17.14,39.999992 40,39.999992 22.859997,0 39.999994,-16.919992 39.999994,-39.999992 0,-5.72 -0.86,-10.4 -2,-14 z"
     id="path4694" />
  <path
     style="fill:#0259bb;stroke-width:2"
     d="m 26.439886,50.480008 c -0.6,2.52 -1.02,4.98 -1.02,7.8 0,8.94 3.44,17.62 12.16,25.72 -2.32,-2.86 -5.58,-7.84 -5.58,-14 0,-8 2,-11.38 4.26,-13.7 0.2,-0.22 0.44,-0.3 0.8,-0.3 0.44,0 0.92,0.46 0.94,1.06 0.74,20.78 18,30.939996 38,30.939996 -13.76,0 -25.38,-7.879996 -11.28,-10.619996 7.38,-1.44 19.279997,-4.8 19.279997,-13.38 0,-21.44 -11.999997,-24 -19.999997,-24 -6,0 -12.34,3.92 -13.54,8.36 0.58,1.92 -2.94,5.86 -4.46,5.64 0,-8.58 0,-20 -4.86,-22 -0.78,0 -0.86,0.64 -0.86,0.64 -0.78,6.7 -4.14,9.32 -5.94,11.82 -2.68,3.76 -4.34,8.3 -4.34,13.54 -0.98,-2.14 -1.7,-4.7 -2.28,-6.98 -0.08,-0.26 -0.42,-1.02 -0.86,-1.02 -0.24,0 -0.36,0.22 -0.42,0.48 z"
     id="path4696" />
  <path
     style="fill:#d6d6d6;stroke-width:2"
     d="m 63.999886,80.000008 c 10,0 19.999997,-7.428 19.999997,-16 0,-4 -0.44,-6.882 -1.999997,-10 -4,-8 -12,-10 -18,-10 -6,0 -14,2 -18,10 -1.506,3.012 -2,6 -2,10 0.004,16.554 14.858,23.999996 32,23.999996 -2,0 -10,0 -13.278,-4.569996 -0.408,-0.482 -0.722,-0.906 -0.722,-1.43 0,-0.994 0.954,-2 2,-2 z"
     id="path4698" />
  <path
     id="path4700"
     style="opacity:0.2;fill:#000000;stroke-width:2"
     d="m 46.000006,55.000008 c -0.0844,0.15 -0.21652,0.43074 -0.33984,0.70312 l 0.33984,0.29688 15.14062,12.57812 c 0.88,0.86 1.79938,1.42188 2.85938,1.42188 1.1,0 1.93938,-0.52188 2.85938,-1.42188 l 15.14062,-12.57812 0.347657,-0.28126 c -0.137,-0.3088 -0.275157,-0.60482 -0.347657,-0.71874 z" />
  <path
     style="fill:#e4e4e4;stroke-width:2"
     d="m 66.859886,66.580008 c -0.92,0.9 -1.76,1.42 -2.86,1.42 -1.06,0 -2,-0.56 -2.86,-1.42 l -15.14,-12.58 c 4,-8 12,-10 18,-10 6,0 14,2 18,10 z"
     id="path4702" />
  <path
     id="path4704"
     style="opacity:0.2;fill:#000000;stroke-width:2"
     d="m 64.000006,44.000008 c -6,0 -10.76318,1.84496 -13.78318,4.60496 0.04,0.14 0.1302,0.47218 0.22266,0.80468 3.0386,-2.6587 7.70276,-4.40964 13.56052,-4.40964 6,0 14,2 18,10 0.949077,1.88462 1.478597,3.72842 1.749997,5.78906 0.1236,0.67132 0.1992,1.35468 0.23046,2.10938 -0.08,-3.44 -0.58046,-6.11844 -1.980457,-8.89844 -4,-8 -12,-10 -18,-10 z m -32,26 c 0,0.62 0.0416,1.22032 0.1016,1.82032 z m 0.1016,1.82032 0.02,0.1796 c 0.0434,0.68796 0.0856,1.34296 0.1406,1.98438 0.4917,2.9661 1.61698,5.49086 2.96874,7.6875 0.71304,0.75258 1.53406,1.57874 2.34766,2.32812 -2.48,-3.12 -4.93656,-7.0197 -5.47656,-12.17968 z m 30.27734,11.17968 c -0.1278,0.1022 -0.29578,0.37298 -0.1246,0.75082 0.2501,0.41376 0.76794,0.91446 0.94498,1.24918 0.7652,0.8584 1.70072,1.53268 2.71484,2.0625 2.09994,0.42032 5.08914,0.863756 9.08594,0.937496 -2.76,-0.06 -8.68078,-0.499996 -11.80078,-3.999996 -0.22,-0.22 -0.52032,-0.6 -0.82032,-1 z"
     sodipodi:nodetypes="sccsccccscccccccccccccccccc" />
  <path
     style="fill:#e4e4e4;stroke-width:2"
     d="m 67.859886,37.820008 c 2.34,-0.72 2.14,-3 2.14,-3 0,0 -1.18,-1.34 -3.5,-0.6 -2.16,0.7 -2.5,2.22 -2.5,2.22 0,0 1.18,2.2 3.86,1.38 z"
     id="path4706" />
  <path
     id="path4708"
     style="opacity:0.2;fill:#ffffff;stroke-width:2"
     d="m 80.000006,24.000008 c -10.69996,0 -20.94062,4.69938 -23.14062,12.85938 -4.08,1.76 -6.85938,5.44062 -6.85938,9.14062 0,-0.3574 0.0788,-0.74896 0.1992,-1.15234 0.5738,-2.64502 2.56078,-5.76166 6.66016,-7.54688 2.2,-8.16 12.44066,-12.85938 23.14062,-12.85938 7.484537,0 14.736554,1.81852 19.511714,5.60938 0.1642,-0.016 0.3408,-0.0466 0.48828,-0.0508 -4.76,-4.06 -12.259997,-6 -19.999994,-6 z m -38.85938,8 c -0.8,0 -0.85936,0.64062 -0.85936,0.64062 -0.78,6.7 -4.14142,9.32032 -5.94142,11.82032 -2.68,3.76 -4.33984,8.35906 -4.33984,13.53906 -0.98,-2.28 -1.70128,-4.7005 -2.28124,-6.98046 -0.08,-0.28 -0.41938,-1.01954 -0.85938,-1.01954 -0.6,0 -1.05876,1.21878 -1.21876,1.71874 -1.1,3.56 -1.64062,8.28126 -1.64062,12.28126 0,-0.224 0.0328,-0.5878 0.0468,-0.875 0.1142,-3.46478 0.6525,-7.80368 1.59374,-10.96484 0.24,-0.74 0.56048,-1.40016 0.98048,-1.66016 0.08,-0.04 0.1582,-0.0586 0.23828,-0.0586 0.44,0 0.77938,0.73954 0.85938,1.01954 0.57996,2.28 1.30124,4.84046 2.28124,6.98046 0,-4.73996 1.65984,-9.78296 4.33984,-13.54296 1.8,-2.5 5.16142,-4.55782 5.94142,-11.25782 0,0 0.0594,-0.62108 0.85936,-0.62108 4.2525,1.2425 4.78512,10.14054 4.85156,18.09374 -0.0562,-7.734 -0.5465,-17.34166 -4.85156,-19.11328 z m 51.195314,2.04296 c -0.113,0.1324 -0.23988,0.26268 -0.33594,0.39844 3.98422,0.44684 7.0925,1.09032 9.47266,3.46484 0.1822,0.0356 0.32686,0.0536 0.52734,0.0938 -2.39368,-2.7829 -5.5528,-3.4791 -9.66406,-3.95704 z m 3.9375,4.33986 c -0.0904,0.02 -0.1868,0.0362 -0.27344,0.0586 1.2,1.8 3.1,3.84 4,6 2.34358,5.57052 3.71742,12.25134 3.95312,18.10156 0.029,0.49568 0.0468,0.9838 0.0468,1.45704 0.02,-6.34 -1.32,-13.76 -4,-20 -0.83824,-1.93726 -2.54066,-3.91516 -3.72656,-5.61718 z m -46.273434,10.3789 c -1.46,1.24 -3.04,3.23828 -4,5.23828 2e-5,0.1438 0,0.29916 0,0.4414 0.42514,0.0634 0.81406,0.004 1.17188,-0.1328 0.95578,-1.33072 1.92984,-2.56922 2.59374,-3.28516 0.087,-0.21904 0.165,-0.41798 0.23438,-0.6211 z m -12.9414,7.23828 c -0.36,0 -0.59688,0.0808 -0.79688,0.30078 -2.25998,2.32 -4.26172,5.69922 -4.26172,13.69922 0,0.1634 0.012,0.32258 0.016,0.48438 0.0894,-7.60838 2.03834,-10.91722 4.2461,-13.1836 0.2,-0.21998 0.43688,-0.30078 0.79688,-0.30078 0.44,0 0.9214,0.45862 0.9414,1.0586 0.73998,20.77994 19.83,29.953216 29.61328,29.941396 3.04762,0.004 7.38672,0 7.38672,0 -2.23436,0 -4.1262,-0.185796 -5.84766,-0.410156 -3.12606,-0.40734 -5.38866,-0.9818 -6.59766,-1.28516 -13.74058,-3.66962 -23.98838,-13.34334 -24.55468,-29.24608 -0.02,-0.59998 -0.5014,-1.0586 -0.9414,-1.0586 z m 46.925777,8.49218 c -0.37312,8.36198 -10.176457,15.50782 -19.984377,15.50782 -1.046,0 -2,1.006 -2,2 0,0.1672 0.0408,0.32078 0.0976,0.47266 0.25828,-0.79212 1.04416,-1.47266 1.90234,-1.47266 9.99998,0 19.999997,-7.42802 19.999997,-16 0,-0.1806 -0.014,-0.3317 -0.016,-0.50782 z" />
  <path
     id="path1040"
     style="opacity:0.1;fill:#ffffff;stroke-width:8;stroke-linecap:square"
     d="M 32,8 C 18.704026,8 8,18.704027 8,32 v 1 C 8,19.704013 18.704013,9 32,9 h 64 c 13.29599,0 24,10.704013 24,24 V 32 C 120,18.704027 109.29597,8 96,8 Z" />
</svg>
