<?xml version="1.0" encoding="UTF-8" standalone="no"?>
<!-- Created with Inkscape (http://www.inkscape.org/) -->

<svg
   width="128"
   height="128"
   viewBox="0 0 128 128"
   version="1.1"
   id="svg5"
   inkscape:version="1.3.2 (091e20ef0f, 2023-11-25, custom)"
   sodipodi:docname="touchpad-indicator.svg"
   xmlns:inkscape="http://www.inkscape.org/namespaces/inkscape"
   xmlns:sodipodi="http://sodipodi.sourceforge.net/DTD/sodipodi-0.dtd"
   xmlns="http://www.w3.org/2000/svg"
   xmlns:svg="http://www.w3.org/2000/svg">
  <sodipodi:namedview
     id="namedview7"
     pagecolor="#ffffff"
     bordercolor="#000000"
     borderopacity="0.25"
     inkscape:showpageshadow="2"
     inkscape:pageopacity="0.0"
     inkscape:pagecheckerboard="0"
     inkscape:deskcolor="#d1d1d1"
     inkscape:document-units="px"
     showgrid="false"
     inkscape:zoom="6.421875"
     inkscape:cx="64"
     inkscape:cy="64"
     inkscape:window-width="1920"
     inkscape:window-height="1008"
     inkscape:window-x="0"
     inkscape:window-y="0"
     inkscape:window-maximized="1"
     inkscape:current-layer="svg5" />
  <defs
     id="defs2" />
  <rect
     style="opacity:0.2;fill:#000000;stroke-width:8;stroke-linecap:square"
     id="rect234"
     width="112"
     height="112"
     x="8"
     y="9"
     ry="24" />
  <rect
     style="fill:#4f4f4f;fill-opacity:1;stroke-width:8;stroke-linecap:square"
     id="rect396"
     width="112"
     height="112"
     x="8"
     y="8"
     ry="24" />
  <path
     id="rect3"
     style="opacity:0.4;fill:#000000;stroke-width:4"
     d="m 21,88 c -2.769998,0 -5,2.230004 -5,5 v 3 c 0,8.86399 7.136008,16 16,16 h 23 c 2.769996,0 5,-2.23 5,-5 V 93 c 0,-2.769996 -2.230004,-5 -5,-5 z" />
  <path
     id="rect4"
     style="opacity:0.4;fill:#000000;stroke-width:4"
     d="m 73,88 c -2.769996,0 -5,2.230004 -5,5 v 14 c 0,2.77 2.230004,5 5,5 h 23 c 8.86399,0 16,-7.13601 16,-16 v -3 c 0,-2.769996 -2.23,-5 -5,-5 z" />
  <rect
     width="16"
     height="4"
     x="96"
     y="28"
     id="rect5"
     style="opacity:0.4;fill:#000000;stroke-width:4" />
  <rect
     width="16"
     height="4"
     x="96"
     y="36"
     id="rect6"
     style="opacity:0.4;fill:#000000;stroke-width:4" />
  <rect
     width="16"
     height="4"
     x="96"
     y="44"
     id="rect7"
     style="opacity:0.4;fill:#000000;stroke-width:4" />
  <rect
     width="16"
     height="4"
     x="96"
     y="52"
     id="rect8"
     style="opacity:0.4;fill:#000000;stroke-width:4" />
  <rect
     width="16"
     height="4"
     x="96"
     y="60"
     id="rect9"
     style="opacity:0.4;fill:#000000;stroke-width:4" />
  <rect
     width="16"
     height="4"
     x="96"
     y="68"
     id="rect10"
     style="opacity:0.4;fill:#000000;stroke-width:4" />
  <path
     id="path1040"
     style="opacity:0.1;fill:#ffffff;stroke-width:8;stroke-linecap:square"
     d="M 32,8 C 18.70404,8 8,18.70404 8,32 v 1 C 8,19.704042 18.70404,9 32,9 h 64 c 13.29596,0 24,10.704042 24,24 V 32 C 120,18.70404 109.29596,8 96,8 Z" />
</svg>
