<?xml version="1.0" encoding="UTF-8" standalone="no"?>
<!-- Created with Inkscape (http://www.inkscape.org/) -->

<svg
   width="128"
   height="128"
   viewBox="0 0 128 128"
   version="1.1"
   id="svg5"
   inkscape:version="1.2.2 (1:1.2.2+202305151914+b0a8486541)"
   sodipodi:docname="utilities-terminal.svg"
   xmlns:inkscape="http://www.inkscape.org/namespaces/inkscape"
   xmlns:sodipodi="http://sodipodi.sourceforge.net/DTD/sodipodi-0.dtd"
   xmlns="http://www.w3.org/2000/svg"
   xmlns:svg="http://www.w3.org/2000/svg">
  <sodipodi:namedview
     id="namedview7"
     pagecolor="#ffffff"
     bordercolor="#000000"
     borderopacity="0.25"
     inkscape:showpageshadow="2"
     inkscape:pageopacity="0.0"
     inkscape:pagecheckerboard="0"
     inkscape:deskcolor="#d1d1d1"
     inkscape:document-units="px"
     showgrid="false"
     inkscape:zoom="6.296875"
     inkscape:cx="63.920596"
     inkscape:cy="64"
     inkscape:window-width="1920"
     inkscape:window-height="1008"
     inkscape:window-x="0"
     inkscape:window-y="0"
     inkscape:window-maximized="1"
     inkscape:current-layer="svg5" />
  <defs
     id="defs2" />
  <rect
     style="opacity:0.2;fill:#000000;stroke-width:8;stroke-linecap:square"
     id="rect234"
     width="112"
     height="112"
     x="8"
     y="9"
     ry="24" />
  <rect
     style="fill:#4f4f4f;fill-opacity:1;stroke-width:8;stroke-linecap:square"
     id="rect396"
     width="112"
     height="112"
     x="8"
     y="8"
     ry="24" />
  <rect
     style="opacity:0.2;fill:#000000;stroke-width:4"
     width="32"
     height="12"
     x="56"
     y="56.999374"
     rx="2.668"
     ry="3"
     id="rect1753" />
  <rect
     style="fill:#ffffff;stroke-width:4"
     width="32"
     height="12"
     x="56"
     y="55.999786"
     rx="2.668"
     ry="3"
     id="rect1755" />
  <rect
     style="opacity:0.2;fill:#000000;stroke-width:4"
     width="33.528"
     height="11.176"
     x="-29.503088"
     y="60.986908"
     rx="2.7920001"
     ry="2.7920001"
     transform="matrix(0.72400602,-0.68979366,0.72400602,0.68979366,0,0)"
     id="rect1757" />
  <rect
     style="fill:#a2a2a2;stroke-width:4"
     width="33.528"
     height="11.176"
     x="-28.757904"
     y="60.281765"
     rx="2.7920001"
     ry="2.7920001"
     transform="matrix(0.72400602,-0.68979366,0.72400602,0.68979366,0,0)"
     id="rect1759" />
  <rect
     style="opacity:0.2;fill:#000000;stroke-width:4"
     width="33.528"
     height="11.176"
     x="38.666958"
     y="-7.1430364"
     rx="2.7920001"
     ry="2.7920001"
     transform="matrix(0.72400602,0.68979366,0.72400602,-0.68979366,0,0)"
     id="rect1761" />
  <rect
     style="fill:#ffffff;stroke-width:4"
     width="33.528"
     height="11.176"
     x="37.921776"
     y="-6.3979149"
     rx="2.7920001"
     ry="2.7920001"
     transform="matrix(0.72400602,0.68979366,0.72400602,-0.68979366,0,0)"
     id="rect1763" />
  <path
     id="path1040"
     style="opacity:0.1;fill:#ffffff;stroke-width:8;stroke-linecap:square"
     d="M 32,8 C 18.704026,8 8,18.704027 8,32 v 1 C 8,19.704014 18.704013,9 32,9 h 64 c 13.29599,0 24,10.704014 24,24 V 32 C 120,18.704027 109.29597,8 96,8 Z" />
</svg>
