<?xml version="1.0" encoding="UTF-8" standalone="no"?>
<!-- Created with Inkscape (http://www.inkscape.org/) -->

<svg
   width="128"
   height="128"
   viewBox="0 0 128 128"
   version="1.1"
   id="svg5"
   inkscape:version="1.2.2 (1:1.2.2+202305151914+b0a8486541)"
   sodipodi:docname="visual-studio-code-insiders.svg"
   xmlns:inkscape="http://www.inkscape.org/namespaces/inkscape"
   xmlns:sodipodi="http://sodipodi.sourceforge.net/DTD/sodipodi-0.dtd"
   xmlns="http://www.w3.org/2000/svg"
   xmlns:svg="http://www.w3.org/2000/svg">
  <sodipodi:namedview
     id="namedview7"
     pagecolor="#ffffff"
     bordercolor="#000000"
     borderopacity="0.25"
     inkscape:showpageshadow="2"
     inkscape:pageopacity="0.0"
     inkscape:pagecheckerboard="0"
     inkscape:deskcolor="#d1d1d1"
     inkscape:document-units="px"
     showgrid="false"
     inkscape:zoom="6.296875"
     inkscape:cx="64"
     inkscape:cy="64"
     inkscape:window-width="1920"
     inkscape:window-height="1008"
     inkscape:window-x="0"
     inkscape:window-y="0"
     inkscape:window-maximized="1"
     inkscape:current-layer="svg5" />
  <defs
     id="defs2" />
  <rect
     style="opacity:0.2;fill:#000000;stroke-width:8;stroke-linecap:square"
     id="rect234"
     width="112"
     height="112"
     x="8"
     y="9"
     ry="24" />
  <rect
     style="fill:#efefef;fill-opacity:1;stroke-width:8;stroke-linecap:square"
     id="rect396"
     width="112"
     height="112"
     x="8"
     y="8"
     ry="24" />
  <path
     d="m 101.17055,33.474319 -16.473205,-7.9776 c -1.90664,-0.9234 -4.18554,-0.5339 -5.6821,0.97124 L 25.087686,75.32276 c -1.4505,1.33028 -1.44884,3.62712 0.004,4.95518 l 4.40498,4.0276 c 1.18744,1.08592 2.97574,1.1657 4.25422,0.1904 L 98.692185,35.543859 c 2.178635,-1.66236 5.307935,-0.0994 5.307935,2.6511 v -0.1924 c 0,-1.93072 -1.09962,-3.69074 -2.82917,-4.52828 z"
     style="opacity:0.2;fill:#000000;stroke-width:3.99998"
     id="path2793" />
  <path
     d="m 84.696745,104.50456 c -1.90724,0.92254 -4.18616,0.53272 -5.68272,-0.97252 1.84384,1.85454 4.99688,0.54092 4.99688,-2.08194 V 28.550439 c 0,-2.62288 -3.15304,-3.93642 -4.99688,-2.08176 1.49656,-1.50526 3.77546,-1.89532 5.68272,-0.97274 l 16.470385,7.96664 c 1.7308,0.8371 2.83137,2.59776 2.83137,4.52932 V 92.00902 c 0,1.9315 -1.10057,3.69212 -2.83137,4.5292 z"
     style="opacity:0.2;fill:#000000;stroke-width:3.99998"
     id="path2765" />
  <path
     d="m 101.17123,32.474399 -16.473385,-7.97766 c -1.90666,-0.92344 -4.18558,-0.5339 -5.68216,0.97122 L 25.087606,74.32328 c -1.45054,1.3303 -1.44888,3.62712 0.004,4.95522 l 4.40502,4.02764 c 1.18744,1.08592 2.97576,1.1657 4.25426,0.1904 L 98.692825,34.543999 c 2.178655,-1.66238 5.307995,-0.0994 5.307995,2.65112 v -0.1924 c 0,-1.93074 -1.09964,-3.69076 -2.8292,-4.52834 z"
     style="fill:#007c64;stroke-width:4.00002;fill-opacity:1"
     id="path2541"
     sodipodi:nodetypes="cccccccccscc" />
  <path
     d="m 31.590506,43.030039 c -0.75532,0.0338 -1.5,0.32432 -2.09372,0.86718 l -4.40622,4.0273 c -1.45244,1.32806 -1.4544,3.626801 -0.004,4.956981 l 53.929119,50.65182 c 1.84386,1.85454 4.99604,0.54086 4.99604,-2.082 V 82.98666 L 33.750526,43.705819 c -0.63922,-0.48776 -1.4048,-0.70954 -2.16012,-0.67578 z"
     style="opacity:0.2;fill:#000000;stroke-width:3.99998"
     id="path2737" />
  <path
     id="path2681"
     style="opacity:0.1;fill:#ffffff;stroke-width:4.00002"
     d="m 82.457065,24.000699 c -1.26468,0.021 -2.50606,0.52806 -3.44142,1.46876 L 25.085966,74.32492 c -0.85524,0.78434 -1.18938,1.90126 -1.03516,2.96094 0.1114,-0.72654 0.44824,-1.42268 1.03516,-1.96094 L 79.015645,26.469459 c 1.49658,-1.50512 3.77304,-1.8961 5.6797,-0.97266 l 16.476565,7.97656 c 0.48814,0.2364 0.91964,0.55152 1.29688,0.91796 0.8967,0.57086 1.53124,1.56598 1.53124,2.8047 v -0.1914 c 0,-1.93074 -1.09856,-3.69366 -2.82812,-4.53124 l -16.472665,-7.97656 c -0.715,-0.3463 -1.48338,-0.50868 -2.24218,-0.4961 z" />
  <path
     d="m 101.17123,95.52716 -16.473385,7.97768 c -1.90666,0.92322 -4.18558,0.5337 -5.68216,-0.97124 L 25.087606,51.87804 c -1.45054,-1.3302 -1.44888,-3.627141 0.004,-4.955201 l 4.40502,-4.0278 c 1.18744,-1.08576 2.97576,-1.1657 4.25426,-0.1902 L 98.692825,93.45742 c 2.178655,1.66232 5.307995,0.0996 5.307995,-2.65118 v 0.1926 c 0,1.93058 -1.09964,3.69062 -2.8292,4.52836 z"
     style="fill:#00a388;stroke-width:4.00002;fill-opacity:1"
     id="path2513"
     sodipodi:nodetypes="cccccscccscc" />
  <path
     id="path2625"
     style="opacity:0.1;fill:#ffffff;stroke-width:4.00002"
     d="m 31.589866,42.028039 c -0.75532,0.0338 -1.50002,0.32432 -2.09374,0.8672 l -4.40626,4.02734 c -0.865,0.7907 -1.2031,1.9231 -1.03906,2.99218 0.1074,-0.7376 0.4428,-1.44716 1.03906,-1.99218 l 4.40626,-4.02734 c 1.18744,-1.08576 2.9754,-1.16692 4.2539,-0.1914 L 98.691425,94.45776 c 1.1975,0.91368 2.682935,0.84902 3.777355,0.1524 0.95964,-0.93212 1.53124,-2.22352 1.53124,-3.60946 v -0.1954 c 0,2.75078 -3.12994,4.31466 -5.308595,2.65236 L 33.750026,42.703819 c -0.63924,-0.48774 -1.40484,-0.70954 -2.16016,-0.67578 z" />
  <path
     d="m 84.696805,103.5061 c -1.90728,0.92258 -4.1862,0.53276 -5.68278,-0.9725 1.84386,1.85456 4.99694,0.54092 4.99694,-2.08198 V 27.551259 c 0,-2.62292 -3.15308,-3.9365 -4.99694,-2.08182 1.49658,-1.50524 3.7755,-1.89534 5.68278,-0.97272 l 16.470555,7.9667 c 1.7308,0.83714 2.8314,2.5978 2.8314,4.52938 V 91.01044 c 0,1.93152 -1.1006,3.69216 -2.8314,4.52928 z"
     style="fill:#24bfa5;stroke-width:4.00002;fill-opacity:1"
     id="path2485"
     sodipodi:nodetypes="ccsscccsscc" />
  <path
     id="path2569"
     style="opacity:0.2;fill:#ffffff;stroke-width:4.00002"
     d="m 82.457065,24.000699 c -1.1045,0.018 -2.18202,0.42012 -3.0625,1.14454 0.9856,-0.71426 2.21602,-0.68366 3.16014,-0.1368 0.72688,0.002 1.46006,0.1572 2.14454,0.48828 l 16.468745,7.96484 c 1.7308,0.83714 2.83204,2.59966 2.83204,4.53124 v -1 c 0,-1.93158 -1.10124,-3.6941 -2.83204,-4.53124 l -16.468745,-7.96484 c -0.71524,-0.3459 -1.4833,-0.50882 -2.24218,-0.49602 z m -3.0625,1.14454 c -0.131,0.095 -0.2579,0.20248 -0.37892,0.32422 0.1186,-0.1192 0.2511,-0.21908 0.37892,-0.32422 z m 4.61718,75.304681 c 0,2.45074 -2.75174,3.75798 -4.61718,2.40624 0.9065,0.7458 2.02208,1.14008 3.16014,1.13672 0.84276,-0.48826 1.45704,-1.38712 1.45704,-2.54296 z m -4.61718,2.40624 c -0.1278,-0.1052 -0.26034,-0.20496 -0.37892,-0.32422 0.121,0.1218 0.24788,0.22928 0.37892,0.32422 z" />
  <path
     id="path1040"
     style="opacity:0.2;fill:#ffffff;stroke-width:8;stroke-linecap:square"
     d="M 32,8 C 18.704026,8 8,18.704028 8,32 v 1 C 8,19.704014 18.704014,9 32,9 h 64 c 13.29599,0 24,10.704014 24,24 V 32 C 120,18.704028 109.29597,8 96,8 Z" />
</svg>
