<?xml version="1.0" encoding="UTF-8" standalone="no"?>
<!-- Created with Inkscape (http://www.inkscape.org/) -->

<svg
   width="128"
   height="128"
   viewBox="0 0 128 128"
   version="1.1"
   id="svg5"
   inkscape:version="1.3.2 (091e20ef0f, 2023-11-25, custom)"
   sodipodi:docname="warpinator.svg"
   xmlns:inkscape="http://www.inkscape.org/namespaces/inkscape"
   xmlns:sodipodi="http://sodipodi.sourceforge.net/DTD/sodipodi-0.dtd"
   xmlns="http://www.w3.org/2000/svg"
   xmlns:svg="http://www.w3.org/2000/svg">
  <sodipodi:namedview
     id="namedview7"
     pagecolor="#ffffff"
     bordercolor="#000000"
     borderopacity="0.25"
     inkscape:showpageshadow="2"
     inkscape:pageopacity="0.0"
     inkscape:pagecheckerboard="0"
     inkscape:deskcolor="#d1d1d1"
     inkscape:document-units="px"
     showgrid="false"
     inkscape:zoom="6.421875"
     inkscape:cx="64"
     inkscape:cy="64"
     inkscape:window-width="1920"
     inkscape:window-height="1008"
     inkscape:window-x="0"
     inkscape:window-y="0"
     inkscape:window-maximized="1"
     inkscape:current-layer="svg5" />
  <defs
     id="defs2" />
  <rect
     style="opacity:0.2;fill:#000000;stroke-width:8;stroke-linecap:square"
     id="rect234"
     width="112"
     height="112"
     x="8"
     y="9"
     ry="24" />
  <rect
     style="fill:#4c459c;fill-opacity:1;stroke-width:8;stroke-linecap:square"
     id="rect396"
     width="112"
     height="112"
     x="8"
     y="8"
     ry="24" />
  <path
     d="m 96.00176,29.000016 c -4.41828,0 -8,3.581724 -8,8 0.0015,0.81652 0.128,1.628004 0.3748,2.406248 L 74.6422,54.468768 c -2.08272,-0.959816 -4.34744,-1.460716 -6.64064,-1.468752 -8.63004,0.0038 -15.70204,6.851132 -15.98436,15.476564 l -19.414076,2.765624 c -1.082402,-1.379868 -2.738442,-2.1863 -4.492202,-2.1875 -3.15632,0.0018 -5.7134,2.5624 -5.71092,5.718748 0.0018,3.1533 2.55764,5.709092 5.71092,5.71094 2.33,-0.0013 4.425882,-1.417056 5.296882,-3.578128 L 52.86092,74.125016 c 2.19592,6.4943 8.28512,10.867988 15.14064,10.875 8.83656,0 16,-7.163444 16,-16 -0.0013,-3.22342 -0.97612,-6.371296 -2.79688,-9.031248 L 94.92344,44.91408 c 0.3568,0.05292 0.7172,0.08164 1.07812,0.08592 4.41828,0 8,-3.581724 8,-8 0,-4.418276 -3.58172,-8 -8,-8 z m -46,4 c -3.31372,0 -6,2.686292 -6,6 0,3.313708 2.68628,6 6,6 3.31372,0 6,-2.686292 6,-6 0,-3.313708 -2.68628,-6 -6,-6 z m 46,0 c 2.20912,0 4,1.79086 4,4 0,2.20914 -1.79088,4 -4,4 -2.20916,0 -4,-1.79086 -4,-4 0,-2.20914 1.79084,-4 4,-4 z m -40.56252,11.085936 -2.96092,2.179688 1.98436,2.83594 2.96096,-2.1875 z m 2.96096,4.234376 -2.95312,2.1875 2.60156,3.726564 2.96092,-2.1875 z m 9.60156,12.679688 c 4.41828,0 8,3.581724 8,8 0,4.418276 -3.58172,8 -8,8 -4.41828,0 -8,-3.581724 -8,-8 0,-4.418276 3.58172,-8 8,-8 z M 28.111122,71.91408 c 1.57972,-0.0012 2.86064,1.279672 2.8594,2.859372 0.0012,1.5797 -1.27968,2.860612 -2.8594,2.859376 -1.57664,-0.003 -2.8528,-1.282724 -2.85156,-2.859376 -0.0012,-1.576648 1.27492,-2.856292 2.85156,-2.859372 z m 53.757838,7.5 -2.78908,2.78906 3.60156,3.617188 2.80468,-2.804688 z m 4.91404,4.906248 -2.79688,2.796876 4.17972,4.171876 2.78904,-2.789064 z m -25.81248,0.429688 -2.4922,6.226564 3.57812,1.25 2.4844,-6.218752 z m 34.03124,4.25 c -3.866,0 -7,3.134008 -7,7 0,3.865992 3.134,7.000004 7,7.000004 3.866,0 7,-3.134012 7,-7.000004 0,-3.865992 -3.134,-7 -7,-7 z m -37,4 c -3.31372,0 -6,2.686292 -6,6 0,3.313704 2.68628,6.000004 6,6.000004 3.31372,0 6,-2.6863 6,-6.000004 0,-3.313708 -2.68628,-6 -6,-6 z"
     style="opacity:0.2;fill:#000000;stroke-width:4"
     id="path1648"
     sodipodi:nodetypes="sccccccccccccccccsssssssssssssccccccccccsssssccccccccccccccccccccssssssssss" />
  <path
     d="m 96.00176,28.000016 c -4.41828,0 -8,3.581724 -8,8 0.0015,0.81652 0.128,1.628004 0.3748,2.406248 L 74.6422,53.468768 c -2.08272,-0.959816 -4.34744,-1.460716 -6.64064,-1.468752 -8.63004,0.0038 -15.70204,6.851132 -15.98436,15.476564 l -19.414076,2.765624 c -1.082402,-1.379868 -2.738442,-2.1863 -4.492202,-2.1875 -3.15632,0.0018 -5.7134,2.5624 -5.71092,5.718748 0.0018,3.1533 2.55764,5.709092 5.71092,5.71094 2.33,-0.0013 4.425882,-1.417056 5.296882,-3.578128 L 52.86092,73.125016 c 2.19592,6.4943 8.28512,10.867988 15.14064,10.875 8.83656,0 16,-7.163444 16,-16 -0.0013,-3.22342 -0.97612,-6.371296 -2.79688,-9.031248 L 94.92344,43.91408 c 0.3568,0.05292 0.7172,0.08164 1.07812,0.08592 4.41828,0 8,-3.581724 8,-8 0,-4.418276 -3.58172,-8 -8,-8 z m -46,4 c -3.31372,0 -6,2.686292 -6,6 0,3.313708 2.68628,6 6,6 3.31372,0 6,-2.686292 6,-6 0,-3.313708 -2.68628,-6 -6,-6 z m 46,0 c 2.20912,0 4,1.79086 4,4 0,2.20914 -1.79088,4 -4,4 -2.20916,0 -4,-1.79086 -4,-4 0,-2.20914 1.79084,-4 4,-4 z m -40.56252,11.085936 -2.96092,2.179688 1.98436,2.83594 2.96096,-2.1875 z m 2.96096,4.234376 -2.95312,2.1875 2.60156,3.726564 2.96092,-2.1875 z m 9.60156,12.679688 c 4.41828,0 8,3.581724 8,8 0,4.418276 -3.58172,8 -8,8 -4.41828,0 -8,-3.581724 -8,-8 0,-4.418276 3.58172,-8 8,-8 z M 28.111122,70.91408 c 1.57972,-0.0012 2.86064,1.279672 2.8594,2.859372 0.0012,1.5797 -1.27968,2.860612 -2.8594,2.859376 -1.57664,-0.003 -2.8528,-1.282724 -2.85156,-2.859376 -0.0012,-1.576648 1.27492,-2.856292 2.85156,-2.859372 z m 53.757838,7.5 -2.78908,2.78906 3.60156,3.617188 2.80468,-2.804688 z m 4.91404,4.906248 -2.79688,2.796876 4.17972,4.171876 2.78904,-2.789064 z m -25.81248,0.429688 -2.4922,6.226564 3.57812,1.25 2.4844,-6.218752 z m 34.03124,4.25 c -3.866,0 -7,3.134008 -7,7 0,3.865992 3.134,7.000004 7,7.000004 3.866,0 7,-3.134012 7,-7.000004 0,-3.865992 -3.134,-7 -7,-7 z m -37,4 c -3.31372,0 -6,2.686292 -6,6 0,3.313704 2.68628,6.000004 6,6.000004 3.31372,0 6,-2.6863 6,-6.000004 0,-3.313708 -2.68628,-6 -6,-6 z"
     style="fill:#ffffff;stroke-width:4"
     id="path1620"
     sodipodi:nodetypes="sccccccccccccccccsssssssssssssccccccccccsssssccccccccccccccccccccssssssssss" />
  <path
     id="path1040"
     style="opacity:0.1;fill:#ffffff;stroke-width:8;stroke-linecap:square"
     d="M 32,8 C 18.70404,8 8,18.70404 8,32 v 1 C 8,19.704042 18.70404,9 32,9 h 64 c 13.29596,0 24,10.704042 24,24 V 32 C 120,18.70404 109.29596,8 96,8 Z" />
</svg>
