<?xml version="1.0" encoding="UTF-8" standalone="no"?>
<!-- Created with Inkscape (http://www.inkscape.org/) -->

<svg
   width="128"
   height="128"
   viewBox="0 0 128 128"
   version="1.1"
   id="svg5"
   inkscape:version="1.3 (0e150ed6c4, 2023-07-21)"
   sodipodi:docname="workspace-switcher-right-top.svg"
   xmlns:inkscape="http://www.inkscape.org/namespaces/inkscape"
   xmlns:sodipodi="http://sodipodi.sourceforge.net/DTD/sodipodi-0.dtd"
   xmlns="http://www.w3.org/2000/svg"
   xmlns:svg="http://www.w3.org/2000/svg">
  <sodipodi:namedview
     id="namedview7"
     pagecolor="#ffffff"
     bordercolor="#000000"
     borderopacity="0.25"
     inkscape:showpageshadow="2"
     inkscape:pageopacity="0.0"
     inkscape:pagecheckerboard="0"
     inkscape:deskcolor="#d1d1d1"
     inkscape:document-units="px"
     showgrid="false"
     inkscape:zoom="6.1171875"
     inkscape:cx="64"
     inkscape:cy="64"
     inkscape:window-width="1920"
     inkscape:window-height="984"
     inkscape:window-x="0"
     inkscape:window-y="29"
     inkscape:window-maximized="1"
     inkscape:current-layer="svg5" />
  <defs
     id="defs2" />
  <rect
     style="opacity:0.2;fill:#000000;stroke-width:8;stroke-linecap:square"
     id="rect234"
     width="112"
     height="112"
     x="8"
     y="9"
     ry="24" />
  <rect
     style="fill:#0245c5;fill-opacity:1;stroke-width:8;stroke-linecap:square"
     id="rect396"
     width="112"
     height="112"
     x="8"
     y="8"
     ry="24" />
  <path
     id="rect3"
     style="opacity:0.2;fill:#f9f9f9;fill-opacity:1;stroke-width:4"
     d="m 64,8 v 112 h 32 c 13.29599,0 24,-10.70401 24,-24 V 32 C 120,18.704013 109.29599,8 96,8 Z" />
  <path
     id="rect4"
     style="opacity:0.1;fill:#f9f9f9;fill-opacity:1;stroke-width:4"
     d="M 32,8 C 18.704013,8 8,18.704013 8,32 V 64 H 120 V 32 C 120,18.704013 109.29599,8 96,8 Z" />
  <path
     id="path1040"
     style="opacity:0.1;fill:#ffffff;stroke-width:8;stroke-linecap:square"
     d="M 32,8 C 18.70404,8 8,18.70404 8,32 v 1 C 8,19.704041 18.704039,9 32,9 h 64 c 13.29596,0 24,10.704041 24,24 V 32 C 120,18.70404 109.29596,8 96,8 Z" />
  <rect
     style="opacity:0.1;fill:#000000;stroke-width:3.81386"
     id="rect1"
     width="60"
     height="60"
     x="64"
     y="5"
     ry="8" />
  <rect
     style="fill:#ebebeb;fill-opacity:1;stroke-width:4"
     id="rect2"
     width="60"
     height="60"
     x="64"
     y="4"
     ry="8" />
</svg>
