<?xml version="1.0" encoding="UTF-8" standalone="no"?>
<!-- Created with Inkscape (http://www.inkscape.org/) -->

<svg
   width="128"
   height="128"
   viewBox="0 0 128 128"
   version="1.1"
   id="svg5"
   inkscape:version="1.4.3 (0d15f75042, 2025-12-25)"
   sodipodi:docname="xbox.svg"
   xmlns:inkscape="http://www.inkscape.org/namespaces/inkscape"
   xmlns:sodipodi="http://sodipodi.sourceforge.net/DTD/sodipodi-0.dtd"
   xmlns="http://www.w3.org/2000/svg"
   xmlns:svg="http://www.w3.org/2000/svg">
  <sodipodi:namedview
     id="namedview7"
     pagecolor="#ffffff"
     bordercolor="#000000"
     borderopacity="0.25"
     inkscape:showpageshadow="2"
     inkscape:pageopacity="0.0"
     inkscape:pagecheckerboard="0"
     inkscape:deskcolor="#d1d1d1"
     inkscape:document-units="px"
     showgrid="false"
     inkscape:zoom="6.4921875"
     inkscape:cx="64"
     inkscape:cy="64"
     inkscape:window-width="1920"
     inkscape:window-height="1012"
     inkscape:window-x="0"
     inkscape:window-y="0"
     inkscape:window-maximized="1"
     inkscape:current-layer="svg5" />
  <defs
     id="defs2" />
  <rect
     style="opacity:0.2;fill:#000000;stroke-width:8;stroke-linecap:square"
     id="rect234"
     width="112"
     height="112"
     x="8"
     y="9"
     ry="24" />
  <rect
     style="fill:#107c10;fill-opacity:1;stroke-width:8;stroke-linecap:square"
     id="rect396"
     width="112"
     height="112"
     x="8"
     y="8"
     ry="24" />
  <path
     id="path1040"
     style="opacity:0.1;fill:#ffffff;stroke-width:8;stroke-linecap:square"
     d="M 32,8 C 18.704014,8 8,18.704014 8,32 v 1 C 8,19.704 18.704,9 32,9 h 64 c 13.296,0 24,10.704 24,24 V 32 C 120,18.704014 109.29598,8 96,8 Z" />
  <path
     style="opacity:0.2;stroke-width:4"
     d="m 60.01114,104.8357 c -6.16276,-0.59009 -12.401764,-2.80181 -17.761172,-6.296872 -4.490972,-2.927264 -5.504456,-4.132556 -5.504456,-6.534776 0,-4.825808 5.3092,-13.279572 14.393412,-22.914456 5.15764,-5.473528 12.343192,-11.88564 13.119576,-11.712788 1.511868,0.33736 13.59006,12.11238 18.112644,17.656528 7.150216,8.76322 10.436156,15.941064 8.766224,19.140616 -1.269192,2.431948 -9.146512,7.186208 -14.932704,9.012268 -4.769912,1.50544 -11.034024,2.14294 -16.193524,1.64948 z M 30.679444,86.986812 c -3.732246,-5.722576 -5.617892,-11.35594 -6.527242,-19.503964 -0.301256,-2.6903 -0.19526,-4.228272 0.681548,-9.75198 1.090664,-6.876756 5.011658,-14.84078 9.725782,-19.738144 2.006524,-2.081612 2.185044,-2.137372 4.632298,-1.3103 2.96609,1.003632 6.13673,3.193044 11.055406,7.638772 l 2.873108,2.59644 -1.571376,1.923632 c -7.278532,8.930488 -14.960596,21.596728 -17.852296,29.430652 -1.571376,4.256152 -2.203644,8.530892 -1.524884,10.310484 0.455604,1.2025 0.0372,0.754584 -1.49699,-1.592804 z m 65.507704,0.972968 c 0.36916,-1.799108 -0.09762,-5.101808 -1.190152,-8.434254 C 92.630632,72.309588 84.718908,58.88598 77.454324,49.75848 l -2.287328,-2.873372 2.475152,-2.270256 c 3.230146,-2.964436 5.47284,-4.739384 7.894056,-6.247624 1.908896,-1.189492 4.637884,-2.24238 5.811296,-2.24238 0.72246,0 3.269204,2.64848 5.324078,5.52928 3.183658,4.4606 5.524912,9.878368 6.711342,15.509872 0.76709,3.642824 0.83125,11.43028 0.12368,15.063808 -0.58577,2.981168 -1.81312,6.84516 -3.00327,9.466688 -0.901908,1.963596 -3.124154,5.778336 -4.100444,7.019868 -0.502102,0.638424 -0.502102,0.637492 -0.223162,-0.739716 z M 60.671308,34.762508 c -3.352888,-1.700604 -8.524476,-3.52666 -11.380844,-4.019184 -1.000468,-0.17194 -2.708524,-0.26948 -3.793612,-0.21376 -2.357992,0.11896 -2.25292,-0.0038 1.527676,-1.788884 3.142746,-1.48408 5.764804,-2.356682 9.325964,-3.103834 4.00282,-0.84101 11.529608,-0.850302 15.4692,-0.0205 4.253868,0.896764 9.2646,2.759992 12.087492,4.497764 l 0.840548,0.514834 -1.924704,-0.09664 c -3.827084,-0.19316 -9.404068,1.352244 -15.392024,4.262784 -1.805684,0.879106 -3.3752,1.579796 -3.490492,1.561208 -0.11436,-0.0224 -1.58626,-0.738784 -3.272928,-1.593732 z"
     id="path2" />
  <path
     style="fill:#ffffff;stroke-width:4"
     d="m 60.01114,103.8357 c -6.16276,-0.59009 -12.401764,-2.80181 -17.761172,-6.296872 -4.490972,-2.927264 -5.504456,-4.132556 -5.504456,-6.534776 0,-4.825808 5.3092,-13.279572 14.393412,-22.914456 5.15764,-5.473528 12.343192,-11.88564 13.119576,-11.712788 1.511868,0.33736 13.59006,12.11238 18.112644,17.656528 7.150216,8.76322 10.436156,15.941064 8.766224,19.140616 -1.269192,2.431948 -9.146512,7.186208 -14.932704,9.012268 -4.769912,1.50544 -11.034024,2.14294 -16.193524,1.64948 z M 30.679444,85.986812 c -3.732246,-5.722576 -5.617892,-11.355938 -6.527242,-19.503964 -0.301258,-2.6903 -0.19526,-4.228272 0.681548,-9.75198 1.090664,-6.876756 5.011658,-14.84078 9.725782,-19.738144 2.006524,-2.081612 2.185044,-2.137372 4.632298,-1.310298 2.96609,1.003632 6.13673,3.193042 11.055406,7.63877 l 2.873108,2.59644 -1.571376,1.923632 c -7.278532,8.930488 -14.960596,21.596728 -17.852296,29.430652 -1.571376,4.256152 -2.203644,8.530892 -1.524884,10.310484 0.455604,1.2025 0.0372,0.754584 -1.49699,-1.592804 z m 65.507704,0.972968 c 0.36916,-1.799108 -0.09762,-5.101808 -1.190152,-8.434252 C 92.630632,71.309588 84.718908,57.88598 77.454324,48.75848 l -2.287328,-2.873372 2.475152,-2.270256 c 3.230146,-2.964436 5.47284,-4.739384 7.894056,-6.247624 1.908896,-1.189492 4.637884,-2.24238 5.811296,-2.24238 0.72246,0 3.269204,2.64848 5.324078,5.52928 3.183658,4.460598 5.524912,9.878368 6.711342,15.509872 0.76709,3.642824 0.83125,11.43028 0.12368,15.063808 -0.58577,2.981168 -1.81312,6.845158 -3.00327,9.466688 -0.901908,1.963596 -3.124154,5.778336 -4.100444,7.019868 -0.502102,0.638424 -0.502102,0.637492 -0.223162,-0.739716 z M 60.671308,33.762508 c -3.352888,-1.700604 -8.524476,-3.52666 -11.380844,-4.019184 -1.000468,-0.1719 -2.708524,-0.269486 -3.793612,-0.213744 -2.357992,0.11896 -2.25292,-0.0038 1.527676,-1.788884 3.142746,-1.484082 5.764804,-2.356684 9.325964,-3.103836 4.00282,-0.841008 11.529608,-0.8503 15.4692,-0.0205 4.253868,0.896766 9.2646,2.759996 12.087492,4.497768 l 0.840548,0.51483 -1.924704,-0.09666 c -3.827084,-0.19314 -9.404068,1.352246 -15.392024,4.262786 -1.805684,0.879106 -3.3752,1.579796 -3.490492,1.561208 -0.11436,-0.0224 -1.58626,-0.738784 -3.272928,-1.593732 z"
     id="path3" />
</svg>
