<?xml version="1.0" encoding="UTF-8" standalone="no"?>
<!-- Created with Inkscape (http://www.inkscape.org/) -->

<svg
   width="128"
   height="128"
   viewBox="0 0 128 128"
   version="1.1"
   id="svg5"
   inkscape:version="1.3 (0e150ed6c4, 2023-07-21)"
   sodipodi:docname="xfce4-taskbar.svg"
   xmlns:inkscape="http://www.inkscape.org/namespaces/inkscape"
   xmlns:sodipodi="http://sodipodi.sourceforge.net/DTD/sodipodi-0.dtd"
   xmlns="http://www.w3.org/2000/svg"
   xmlns:svg="http://www.w3.org/2000/svg">
  <sodipodi:namedview
     id="namedview7"
     pagecolor="#ffffff"
     bordercolor="#000000"
     borderopacity="0.25"
     inkscape:showpageshadow="2"
     inkscape:pageopacity="0.0"
     inkscape:pagecheckerboard="0"
     inkscape:deskcolor="#d1d1d1"
     inkscape:document-units="px"
     showgrid="false"
     inkscape:zoom="6.1171875"
     inkscape:cx="63.918263"
     inkscape:cy="64"
     inkscape:window-width="1920"
     inkscape:window-height="984"
     inkscape:window-x="0"
     inkscape:window-y="29"
     inkscape:window-maximized="1"
     inkscape:current-layer="svg5" />
  <defs
     id="defs2" />
  <rect
     style="opacity:0.2;fill:#000000;stroke-width:8.00002;stroke-linecap:square"
     id="rect234"
     width="112"
     height="112"
     x="8"
     y="9"
     ry="24" />
  <rect
     style="fill:#0d3c61;fill-opacity:1;stroke-width:8.00002;stroke-linecap:square"
     id="rect396"
     width="112"
     height="96"
     x="8.0000019"
     y="24"
     ry="24" />
  <rect
     style="opacity:0.2;fill:#f2f2f2;stroke-width:8"
     id="rect1"
     width="38"
     height="16"
     x="22"
     y="98"
     ry="4" />
  <rect
     style="opacity:0.2;fill:#f2f2f2;stroke-width:8"
     id="rect2"
     width="38"
     height="16"
     x="68"
     y="98"
     ry="4" />
  <rect
     style="fill:#f2f2f2;stroke-width:8"
     id="rect3"
     width="8"
     height="8"
     x="26"
     y="102" />
  <rect
     style="fill:#f2f2f2;stroke-width:8"
     id="rect4"
     width="8"
     height="8"
     x="72"
     y="102" />
  <path
     id="rect391"
     style="fill:#2196f3;fill-opacity:1;stroke-width:8.00002;stroke-linecap:square"
     d="M 32,8 C 18.70402,8 8,18.70402 8,32 V 91.999999 H 120 V 32 C 120,18.70402 109.29598,8 95.999997,8 Z" />
  <g
     id="g361"
     transform="matrix(1.9999883,0,0,1.9999883,1.3993624e-4,1.3993624e-4)" />
  <path
     id="path1040"
     style="opacity:0.2;fill:#ffffff;stroke-width:8.00002;stroke-linecap:square"
     d="M 32,8 C 18.70404,8 8,18.70404 8,32 v 1 C 8,19.70404 18.70404,9 32,9 H 95.999999 C 109.29596,9 120,19.70404 120,33 V 32 C 120,18.70404 109.29596,8 95.999999,8 Z" />
</svg>
