<?xml version="1.0" encoding="UTF-8" standalone="no"?>
<!-- Created with Inkscape (http://www.inkscape.org/) -->

<svg
   width="128"
   height="128"
   viewBox="0 0 128 128"
   version="1.1"
   id="svg5"
   inkscape:version="1.3 (0e150ed6c4, 2023-07-21)"
   sodipodi:docname="yast-kerberos.svg"
   xmlns:inkscape="http://www.inkscape.org/namespaces/inkscape"
   xmlns:sodipodi="http://sodipodi.sourceforge.net/DTD/sodipodi-0.dtd"
   xmlns="http://www.w3.org/2000/svg"
   xmlns:svg="http://www.w3.org/2000/svg">
  <sodipodi:namedview
     id="namedview7"
     pagecolor="#ffffff"
     bordercolor="#000000"
     borderopacity="0.25"
     inkscape:showpageshadow="2"
     inkscape:pageopacity="0.0"
     inkscape:pagecheckerboard="0"
     inkscape:deskcolor="#d1d1d1"
     inkscape:document-units="px"
     showgrid="false"
     inkscape:zoom="5.6953125"
     inkscape:cx="64"
     inkscape:cy="64"
     inkscape:window-width="1920"
     inkscape:window-height="937"
     inkscape:window-x="0"
     inkscape:window-y="32"
     inkscape:window-maximized="1"
     inkscape:current-layer="svg5" />
  <defs
     id="defs2" />
  <rect
     style="opacity:0.2;fill:#000000;stroke-width:7.99999;stroke-linecap:square"
     id="rect234"
     width="112"
     height="112"
     x="8"
     y="9"
     ry="24" />
  <rect
     style="fill:#4f4f4f;fill-opacity:1;stroke-width:7.99999;stroke-linecap:square"
     id="rect396"
     width="112"
     height="112"
     x="8"
     y="8"
     ry="24" />
  <path
     id="rect1"
     style="opacity:0.2;fill:#000000;fill-opacity:1;stroke-width:4"
     d="M 64,25.000001 C 50.704041,25.000001 39.999999,35.70404 39.999999,49 v 8 H 36 c -2.215997,0 -3.999999,1.784008 -3.999999,3.999999 V 101 c 0,2.21599 1.784002,4 3.999999,4 h 56 c 2.215993,0 3.999999,-1.78401 3.999999,-4 V 60.999999 C 95.999999,58.784008 94.215993,57 92,57 H 88.000001 V 49 C 88.000001,35.70404 77.295963,25.000001 64,25.000001 Z m 0,7.999998 c 8.863975,0 16.000001,7.136025 16.000001,16.000001 v 8 H 47.999999 v -8 c 0,-8.863976 7.136026,-16.000001 16.000001,-16.000001 z" />
  <rect
     style="fill:#ffb437;fill-opacity:1;stroke-width:4"
     id="rect2"
     width="64"
     height="48"
     x="32"
     y="56.000004"
     ry="4" />
  <path
     id="path1"
     d="m 64,24.000001 c -13.295987,0 -24.000001,10.704011 -24.000001,23.999998 V 56 h 8 v -8.000001 c 0,-8.863991 7.13601,-15.999998 16.000001,-15.999998 8.863991,0 16.000001,7.136007 16.000001,15.999998 V 56 h 8 V 47.999999 C 88.000001,34.704012 77.295987,24.000001 64,24.000001 Z"
     style="fill:#d2d2d2;fill-opacity:1;stroke-width:4" />
  <path
     id="path2"
     style="opacity:0.2;fill:#ffffff;stroke-width:4"
     d="m 64,24.000001 c -13.295961,0 -24.000001,10.704041 -24.000001,23.999998 V 49 C 39.999999,35.704042 50.704039,25.000001 64,25.000001 77.295961,25.000001 88.000001,35.704042 88.000001,49 V 47.999999 C 88.000001,34.704042 77.295961,24.000001 64,24.000001 Z" />
  <path
     id="path3"
     style="opacity:0.2;fill:#ffffff;stroke-width:4"
     d="m 36,56 c -2.215991,0 -3.999999,1.78401 -3.999999,4.000001 v 0.999998 C 32.000001,58.784014 33.784009,57 36,57 h 56 c 2.215987,0 3.999999,1.784014 3.999999,3.999999 V 60.000001 C 95.999999,57.78401 94.215987,56 92,56 Z" />
  <rect
     style="fill:#fed96a;fill-opacity:1;stroke-width:4"
     id="rect4"
     width="64"
     height="28"
     x="32"
     y="64" />
  <path
     id="path1040"
     style="opacity:0.1;fill:#ffffff;stroke-width:7.99999;stroke-linecap:square"
     d="M 32.000001,8 C 18.70404,8 8,18.70404 8,32.000001 v 0.999998 C 8,19.704042 18.70404,9.0000001 32.000001,9.0000001 H 95.999999 C 109.29596,9.0000001 120,19.704042 120,32.999999 V 32.000001 C 120,18.70404 109.29596,8 95.999999,8 Z" />
</svg>
