<?xml version="1.0" encoding="UTF-8" standalone="no"?>
<!-- Created with Inkscape (http://www.inkscape.org/) -->

<svg
   width="128"
   height="128"
   viewBox="0 0 128 128"
   version="1.1"
   id="svg5"
   inkscape:version="1.3.2 (091e20ef0f, 2023-11-25, custom)"
   sodipodi:docname="yast-snapper.svg"
   xmlns:inkscape="http://www.inkscape.org/namespaces/inkscape"
   xmlns:sodipodi="http://sodipodi.sourceforge.net/DTD/sodipodi-0.dtd"
   xmlns="http://www.w3.org/2000/svg"
   xmlns:svg="http://www.w3.org/2000/svg">
  <sodipodi:namedview
     id="namedview7"
     pagecolor="#ffffff"
     bordercolor="#000000"
     borderopacity="0.25"
     inkscape:showpageshadow="2"
     inkscape:pageopacity="0.0"
     inkscape:pagecheckerboard="0"
     inkscape:deskcolor="#d1d1d1"
     inkscape:document-units="px"
     showgrid="false"
     inkscape:zoom="6.3828125"
     inkscape:cx="63.921665"
     inkscape:cy="64"
     inkscape:window-width="1920"
     inkscape:window-height="1020"
     inkscape:window-x="0"
     inkscape:window-y="31"
     inkscape:window-maximized="1"
     inkscape:current-layer="svg5" />
  <defs
     id="defs2" />
  <rect
     style="opacity:0.2;fill:#000000;stroke-width:8.00001;stroke-linecap:square"
     id="rect234"
     width="112"
     height="112"
     x="8"
     y="9"
     ry="24" />
  <rect
     style="fill:#5db43e;fill-opacity:1;stroke-width:8.00001;stroke-linecap:square"
     id="rect396"
     width="112"
     height="112"
     x="8"
     y="8"
     ry="24" />
  <path
     id="path2"
     d="m 64.07031,33 c -3.115595,-0.03079 -6.210139,0.413442 -9.210936,1.203123 -13.986387,3.6024 -24.407364,16.833405 -24.195313,30.742188 h -6.664062 l 10.664065,15.359375 c 3.555595,-5.119995 7.115075,-10.239379 10.67187,-15.359375 h -6.671872 c -0.02681,-5.825192 2.251064,-11.628169 6.289061,-15.97656 7.589991,-8.762553 21.81826,-10.829548 31.90625,-4.968752 3.351237,4.211596 10.795582,-0.41518 6.890625,-4.734376 C 78.195601,35.111747 71.083103,33.014799 64.07031,33 Z M 93.328121,49.640623 82.664063,65.00781 h 6.66406 c 0.034,6.160795 -2.532006,12.283128 -7,16.703125 -7.715193,8.132311 -21.405696,9.936183 -31.179687,4.242187 -3.382158,-4.249995 -10.925233,0.335361 -6.898437,4.726564 7.892391,5.891192 18.756183,7.770147 28.359375,5.195311 14.231583,-3.411995 24.907748,-16.7924 24.718748,-30.867187 H 104 C 100.444,59.887815 96.88793,54.760618 93.335933,49.640623 Z"
     style="opacity:0.2;fill:#000000;stroke-width:4" />
  <path
     id="path4"
     d="m 64.07031,31.999998 c -3.115595,-0.031 -6.210139,0.413445 -9.210936,1.203125 C 40.872987,36.80552 30.45201,50.036526 30.664061,63.945311 h -6.664062 l 10.664065,15.359375 c 3.555595,-5.119995 7.115075,-10.23938 10.67187,-15.359375 h -6.671872 c -0.02681,-5.825192 2.251064,-11.628168 6.289061,-15.976559 7.589991,-8.762553 21.81826,-10.829549 31.90625,-4.968753 3.351237,4.211597 10.795582,-0.415179 6.890625,-4.734376 C 78.195601,34.111747 71.083103,32.014799 64.07031,31.999998 Z m 29.265623,16.640625 -0.008,0.008 -10.664059,15.359375 h 6.66406 c 0.034,6.160795 -2.532005,12.283128 -7,16.703122 -7.715193,8.132312 -21.405695,9.936185 -31.179687,4.24219 -3.382169,-4.249983 -10.925247,0.335373 -6.89845,4.726579 7.892391,5.891192 18.756184,7.770147 28.359375,5.195311 C 86.840755,91.463203 97.516919,78.0828 97.32792,64.008013 h 6.67206 C 100.444,58.888002 96.88793,53.760806 93.335933,48.640812 Z"
     style="fill:#ffffff;stroke-width:4" />
  <path
     id="path1040"
     style="opacity:0.2;fill:#ffffff;stroke-width:8.00001;stroke-linecap:square"
     d="M 31.999998,8 C 18.70404,8 8,18.70404 8,31.999998 V 33 C 8,19.704042 18.70404,8.9999999 31.999998,8.9999999 h 64 C 109.29595,8.9999999 120,19.704042 120,33 V 31.999998 C 120,18.70404 109.29595,8 95.999998,8 Z" />
</svg>
