<?xml version="1.0" encoding="UTF-8" standalone="no"?>
<!-- Created with Inkscape (http://www.inkscape.org/) -->

<svg
   width="128"
   height="128"
   viewBox="0 0 128 128"
   version="1.1"
   id="svg5"
   inkscape:version="1.2.2 (1:1.2.2+202305151914+b0a8486541)"
   sodipodi:docname="youtube-music.svg"
   xmlns:inkscape="http://www.inkscape.org/namespaces/inkscape"
   xmlns:sodipodi="http://sodipodi.sourceforge.net/DTD/sodipodi-0.dtd"
   xmlns="http://www.w3.org/2000/svg"
   xmlns:svg="http://www.w3.org/2000/svg">
  <sodipodi:namedview
     id="namedview7"
     pagecolor="#ffffff"
     bordercolor="#000000"
     borderopacity="0.25"
     inkscape:showpageshadow="2"
     inkscape:pageopacity="0.0"
     inkscape:pagecheckerboard="0"
     inkscape:deskcolor="#d1d1d1"
     inkscape:document-units="px"
     showgrid="false"
     inkscape:zoom="6.296875"
     inkscape:cx="63.920596"
     inkscape:cy="64"
     inkscape:window-width="1920"
     inkscape:window-height="1008"
     inkscape:window-x="0"
     inkscape:window-y="0"
     inkscape:window-maximized="1"
     inkscape:current-layer="svg5" />
  <defs
     id="defs2" />
  <rect
     style="opacity:0.2;fill:#000000;stroke-width:8;stroke-linecap:square"
     id="rect234"
     width="112"
     height="112"
     x="8"
     y="9"
     ry="24" />
  <rect
     style="fill:#efefef;fill-opacity:1;stroke-width:8;stroke-linecap:square"
     id="rect396"
     width="112"
     height="112"
     x="8"
     y="8"
     ry="24" />
  <circle
     style="opacity:0.2;fill:#000000;fill-opacity:1;stroke-width:15.9999;stroke-linecap:square"
     id="path744"
     cx="64"
     cy="64.999855"
     r="39.999855" />
  <circle
     style="fill:#fa2235;fill-opacity:1;stroke-width:15.9999;stroke-linecap:square"
     id="path345"
     cx="64"
     cy="63.999855"
     r="39.999855" />
  <path
     id="path909"
     style="opacity:0.2;fill:#ffffff;fill-opacity:1;stroke-width:11.4285;stroke-linecap:square"
     d="m 64.000071,24 a 39.999865,39.999865 0 0 0 -39.999935,39.999935 39.999865,39.999865 0 0 0 0.03517,0.503905 39.999855,39.999855 0 0 1 39.964779,-39.503841 39.999855,39.999855 0 0 1 39.980405,39.238217 39.999865,39.999865 0 0 0 0.0196,-0.238281 A 39.999865,39.999865 0 0 0 64.000153,24 Z" />
  <path
     id="path1342"
     style="opacity:0.2;fill:#000000;stroke-width:5.85539;stroke-linecap:square"
     d="M 63.999997,36.999971 A 27.999905,27.999905 0 0 0 36.000093,64.999876 27.999905,27.999905 0 0 0 63.999997,92.999781 27.999905,27.999905 0 0 0 91.999908,64.999876 27.999905,27.999905 0 0 0 63.999997,36.999971 Z m 0,3.999985 A 23.999918,23.999918 0 0 1 87.999918,64.999876 23.999918,23.999918 0 0 1 63.999997,88.999794 23.999918,23.999918 0 0 1 40.000078,64.999876 23.999918,23.999918 0 0 1 63.999997,40.999956 Z M 56.000025,52.999917 V 76.999835 L 75.999958,64.999876 Z" />
  <path
     id="path1314"
     style="fill:#ffffff;stroke-width:5.85539;stroke-linecap:square"
     d="M 63.999997,35.999961 A 27.999905,27.999905 0 0 0 36.000093,63.999865 27.999905,27.999905 0 0 0 63.999997,91.999772 27.999905,27.999905 0 0 0 91.999908,63.999865 27.999905,27.999905 0 0 0 63.999997,35.999961 Z m 0,3.999985 A 23.999918,23.999918 0 0 1 87.999918,63.999865 23.999918,23.999918 0 0 1 63.999997,87.999783 23.999918,23.999918 0 0 1 40.000078,63.999865 23.999918,23.999918 0 0 1 63.999997,39.999946 Z M 56.000025,51.999903 V 75.999826 L 75.999958,63.999865 Z" />
  <path
     id="path1040"
     style="opacity:0.2;fill:#ffffff;stroke-width:8;stroke-linecap:square"
     d="M 32,8 C 18.704026,8 8,18.704028 8,32 v 1 C 8,19.704014 18.704014,9 32,9 h 64 c 13.29599,0 24,10.704014 24,24 V 32 C 120,18.704028 109.29597,8 96,8 Z" />
</svg>
