<?xml version="1.0" encoding="UTF-8" standalone="no"?>
<svg
   width="22"
   height="22"
   version="1.1"
   id="svg1"
   sodipodi:docname="application-x-appliance-symbolic.svg"
   inkscape:version="1.4.3 (0d15f75042, 2025-12-25)"
   xmlns:inkscape="http://www.inkscape.org/namespaces/inkscape"
   xmlns:sodipodi="http://sodipodi.sourceforge.net/DTD/sodipodi-0.dtd"
   xmlns="http://www.w3.org/2000/svg"
   xmlns:svg="http://www.w3.org/2000/svg">
  <sodipodi:namedview
     id="namedview1"
     pagecolor="#ffffff"
     bordercolor="#000000"
     borderopacity="0.25"
     inkscape:showpageshadow="2"
     inkscape:pageopacity="0.0"
     inkscape:pagecheckerboard="0"
     inkscape:deskcolor="#d1d1d1"
     inkscape:zoom="26.5"
     inkscape:cx="11"
     inkscape:cy="11"
     inkscape:window-width="1440"
     inkscape:window-height="831"
     inkscape:window-x="0"
     inkscape:window-y="0"
     inkscape:window-maximized="1"
     inkscape:current-layer="svg1" />
  <defs
     id="defs1">
    <style
       id="current-color-scheme"
       type="text/css">
   .ColorScheme-Text { color:#dfdfdf; } .ColorScheme-Highlight { color:#4285f4; } .ColorScheme-NeutralText { color:#ff9800; } .ColorScheme-PositiveText { color:#4caf50; } .ColorScheme-NegativeText { color:#f44336; }
  </style>
  </defs>
  <path
     style="fill:currentColor"
     class="ColorScheme-Text"
     d="M 5,3 A 2,2 0 0 0 3,5 2,2 0 0 0 4,6.7324219 V 15.267578 A 2,2 0 0 0 3,17 2,2 0 0 0 5,19 2,2 0 0 0 6.7324219,18 H 15.267578 A 2,2 0 0 0 17,19 2,2 0 0 0 19,17 2,2 0 0 0 18,15.271484 V 6.7324219 A 2,2 0 0 0 19,5 2,2 0 0 0 17,3 2,2 0 0 0 15.267578,4 H 6.7285156 A 2,2 0 0 0 5,3 Z m 1.7324219,3 h 8.5351561 a 2,2 0 0 0 0.03516,0.044922 L 14.175781,7.1621094 A 1.5,1.5 0 0 0 13.5,7 1.5,1.5 0 0 0 12.095703,8.0000004 H 9.910156 A 1.5,1.516 0 0 0 8.5,7 1.5,1.516 0 0 0 7.8554688,7.1484375 L 6.7207031,6.0136719 A 2,2 0 0 0 6.7324219,6 Z m -0.71875,0.7207031 1.1347656,1.1347653 a 1.5,1.516 0 0 0 0,0.002 A 1.5,1.516 0 0 0 7,8.5156754 1.5,1.516 0 0 0 8,9.9336432 v 2.1621098 a 1.5,1.5 0 0 0 -1,1.404297 1.5,1.5 0 0 0 0.1464844,0.646484 l -1.1328125,1.132813 a 2,2 0 0 0 -0.013672,-0.0078 V 6.7324219 a 2,2 0 0 0 0.013672,-0.011719 z M 16,6.7617191 v 8.5058589 a 2,2 0 0 0 -0.01367,0.01172 L 14.853516,14.146484 A 1.5,1.5 0 0 0 15,13.5 1.5,1.5 0 0 0 14,12.08789 V 9.9042972 A 1.5,1.5 0 0 0 15,8.5000004 1.5,1.5 0 0 0 14.867188,7.8847654 Z M 9.912109,9.0000002 h 2.183594 A 1.5,1.5 0 0 0 13,9.9042972 V 12.095703 A 1.5,1.5 0 0 0 12.095703,13 H 9.912109 A 1.5,1.5 0 0 0 9,12.08789 V 9.9335932 A 1.5,1.516 0 0 0 9.912109,9.0000002 Z M 9.904309,14 h 2.191404 A 1.5,1.5 0 0 0 13.5,15 1.5,1.5 0 0 0 14.146484,14.853516 l 1.132813,1.132812 a 2,2 0 0 0 -0.01172,0.01367 H 6.7285156 a 2,2 0 0 0 -0.00781,-0.01367 l 1.13281,-1.132814 A 1.5,1.5 0 0 0 8.5,14.999998 a 1.5,1.5 0 0 0 1.404297,-1 z"
     id="path1" />
</svg>
