<?xml version="1.0" encoding="UTF-8" standalone="no"?>
<svg
   width="22"
   height="22"
   version="1.1"
   id="svg2"
   sodipodi:docname="font-x-generic-symbolic.svg"
   inkscape:version="1.4.3 (0d15f75042, 2025-12-25)"
   xmlns:inkscape="http://www.inkscape.org/namespaces/inkscape"
   xmlns:sodipodi="http://sodipodi.sourceforge.net/DTD/sodipodi-0.dtd"
   xmlns="http://www.w3.org/2000/svg"
   xmlns:svg="http://www.w3.org/2000/svg">
  <sodipodi:namedview
     id="namedview2"
     pagecolor="#ffffff"
     bordercolor="#000000"
     borderopacity="0.25"
     inkscape:showpageshadow="2"
     inkscape:pageopacity="0.0"
     inkscape:pagecheckerboard="0"
     inkscape:deskcolor="#d1d1d1"
     inkscape:zoom="26.5"
     inkscape:cx="11"
     inkscape:cy="11"
     inkscape:window-width="1440"
     inkscape:window-height="831"
     inkscape:window-x="0"
     inkscape:window-y="0"
     inkscape:window-maximized="1"
     inkscape:current-layer="svg2" />
  <defs
     id="defs1">
    <style
       id="current-color-scheme"
       type="text/css">
   .ColorScheme-Text { color:#dfdfdf; } .ColorScheme-Highlight { color:#4285f4; } .ColorScheme-NeutralText { color:#ff9800; } .ColorScheme-PositiveText { color:#4caf50; } .ColorScheme-NegativeText { color:#f44336; }
  </style>
  </defs>
  <path
     style="fill:currentColor"
     class="ColorScheme-Text"
     d="m 11,6 v 11 h 3.666 C 16.513,17 18,15.487 18,13.5 18,11.5133 16.513,10 14.666,10 H 13 V 6 Z m 3.334,6 C 15.257,12 16,12.6648 16,13.5 16,14.336 15.257,15 14.334,15 H 13 v -3 z"
     id="path1" />
  <path
     style="fill:currentColor"
     class="ColorScheme-Text"
     d="m 5,9 v 2 h 3 v 1 H 7 C 5.338,12 4,13.115 4,14.5 4,15.885 5.338,17 7,17 h 3 V 11 C 10,9.892 9.108,9 8,9 Z m 1.5,5 H 8 v 1 H 6.5 C 6.223,15 6,14.777 6,14.5 6,14.223 6.223,14 6.5,14 Z"
     id="path2" />
</svg>
