<?xml version="1.0" encoding="UTF-8" standalone="no"?>
<svg
   width="16"
   height="16"
   version="1.1"
   id="svg3"
   sodipodi:docname="appointment-missed-symbolic.svg"
   inkscape:version="1.4.3 (0d15f75042, 2025-12-25)"
   xmlns:inkscape="http://www.inkscape.org/namespaces/inkscape"
   xmlns:sodipodi="http://sodipodi.sourceforge.net/DTD/sodipodi-0.dtd"
   xmlns="http://www.w3.org/2000/svg"
   xmlns:svg="http://www.w3.org/2000/svg">
  <defs
     id="defs3">
     <style
        id="current-color-scheme"
        type="text/css">
        .ColorScheme-Text { color:#dfdfdf; } .ColorScheme-Highlight { color:#4285f4; } .ColorScheme-NeutralText { color:#ff9800; } .ColorScheme-PositiveText { color:#4caf50; } .ColorScheme-NegativeText { color:#f44336; }
     </style>
  </defs>
  <sodipodi:namedview
     id="namedview3"
     pagecolor="#ffffff"
     bordercolor="#000000"
     borderopacity="0.25"
     inkscape:showpageshadow="2"
     inkscape:pageopacity="0.0"
     inkscape:pagecheckerboard="0"
     inkscape:deskcolor="#d1d1d1"
     inkscape:zoom="51.9375"
     inkscape:cx="8"
     inkscape:cy="8"
     inkscape:window-width="1920"
     inkscape:window-height="1012"
     inkscape:window-x="0"
     inkscape:window-y="0"
     inkscape:window-maximized="1"
     inkscape:current-layer="svg3" />
  <path
     id="path3"
     style="fill:currentColor"
     class="ColorScheme-Text"
     d="M 11.232422 9.8183594 L 9.8183594 11.232422 L 11.585938 13 L 9.8183594 14.767578 L 11.232422 16.181641 L 13 14.414062 L 14.767578 16.181641 L 16.181641 14.767578 L 14.414062 13 L 16.181641 11.232422 L 14.767578 9.8183594 L 13 11.585938 L 11.232422 9.8183594 z " />
  <path
     id="path1"
     style="fill:currentColor"
     class="ColorScheme-Text"
     d="M 8 0 A 8 8 0 0 0 0 8 A 8 8 0 0 0 8 16 A 8 8 0 0 0 9.4804688 15.84375 L 8.4042969 14.767578 L 9.3417969 13.830078 A 6 6 0 0 1 8 14 A 6 6 0 0 1 2 8 A 6 6 0 0 1 8 2 A 6 6 0 0 1 14 8 A 6 6 0 0 1 13.830078 9.3417969 L 14.767578 8.4042969 L 15.84375 9.4804688 A 8 8 0 0 0 16 8 A 8 8 0 0 0 8 0 z M 10.828125 5.1699219 C 10.572505 5.1699219 10.316944 5.2670206 10.121094 5.4628906 L 8 7.5839844 L 6.5859375 6.1699219 C 6.1941975 5.7781819 5.563575 5.7781819 5.171875 6.1699219 C 4.780135 6.5616619 4.780135 7.1922844 5.171875 7.5839844 L 7.2929688 9.7070312 C 7.6847088 10.098771 8.3153312 10.098771 8.7070312 9.7070312 L 11.535156 6.8769531 C 11.926896 6.4852131 11.926896 5.8545906 11.535156 5.4628906 C 11.339286 5.2670206 11.083745 5.1699219 10.828125 5.1699219 z " />
</svg>
