<?xml version="1.0" encoding="UTF-8" standalone="no"?>
<!-- Created with Inkscape (http://www.inkscape.org/) -->

<svg
   width="16"
   height="16"
   viewBox="0 0 16 16"
   version="1.1"
   id="svg5"
   inkscape:version="1.4.3 (0d15f75042, 2025-12-25)"
   sodipodi:docname="location-services-inactive-symbolic.svg"
   xmlns:inkscape="http://www.inkscape.org/namespaces/inkscape"
   xmlns:sodipodi="http://sodipodi.sourceforge.net/DTD/sodipodi-0.dtd"
   xmlns="http://www.w3.org/2000/svg"
   xmlns:svg="http://www.w3.org/2000/svg">
  <sodipodi:namedview
     id="namedview7"
     pagecolor="#ffffff"
     bordercolor="#000000"
     borderopacity="0.25"
     inkscape:showpageshadow="2"
     inkscape:pageopacity="0.0"
     inkscape:pagecheckerboard="0"
     inkscape:deskcolor="#d1d1d1"
     inkscape:document-units="px"
     showgrid="false"
     inkscape:zoom="51.9375"
     inkscape:cx="8"
     inkscape:cy="8"
     inkscape:window-width="1920"
     inkscape:window-height="1012"
     inkscape:window-x="0"
     inkscape:window-y="0"
     inkscape:window-maximized="1"
     inkscape:current-layer="svg5" />
  <defs
     id="defs2">
    <style
       id="current-color-scheme"
       type="text/css">
        .ColorScheme-Text { color:#dfdfdf; } .ColorScheme-Highlight { color:#4285f4; } .ColorScheme-NeutralText { color:#ff9800; } .ColorScheme-PositiveText { color:#4caf50; } .ColorScheme-NegativeText { color:#f44336; }
     </style>
  </defs>
  <path
     id="path449"
     style="fill:currentColor;fill-opacity:1"
     class="ColorScheme-Text"
     d="M 8,0 C 4.7367033,0 2,2.4949281 2,5.640625 c 0,0.2248398 0.021791,0.411593 0.037109,0.564453 0.017273,0.17238 0.038579,0.353386 0.072266,0.541016 0.6374694,3.635296 3.1926395,6.11273 5.210938,7.986328 L 8,15.365234 8.679688,14.732422 c 2.017797,-1.873198 4.573638,-4.347532 5.210937,-7.986328 v -0.0039 c 0.02924,-0.16325 0.05648,-0.34286 0.07227,-0.53711 C 13.978211,6.052208 14,5.8654648 14,5.640625 14,2.4948281 11.263297,0 8,0 Z m 0,2 c 2.260098,0 4,1.658927 4,3.640625 0,0.094267 -0.0095,0.2062545 -0.02539,0.365234 l -0.002,0.01172 -0.002,0.01367 c -0.008,0.10633 -0.02491,0.228069 -0.04883,0.361328 v 0.0059 C 11.477655,8.941035 9.751898,10.85337 8,12.542969 6.248402,10.85287 4.5224246,8.937635 4.078125,6.398438 v -0.0059 C 4.057124,6.275608 4.0393666,6.145339 4.0253906,6.005859 4.0094586,5.8468695 4,5.7348849 4,5.640625 4,3.658927 5.7399023,2 8,2 Z" />
  <circle
     style="opacity:0.35;fill:currentColor"
     id="path1"
     cx="8"
     cy="6"
     r="2"
     class="ColorScheme-Text" />
</svg>
