<?xml version="1.0" encoding="UTF-8" standalone="no"?>
<!-- Created with Inkscape (http://www.inkscape.org/) -->

<svg
   width="24"
   height="24"
   viewBox="0 0 24 24"
   version="1.1"
   id="svg5"
   inkscape:version="1.3.2 (1:1.3.2+202404261509+091e20ef0f)"
   sodipodi:docname="preferences-desktop-icons.svg"
   xmlns:inkscape="http://www.inkscape.org/namespaces/inkscape"
   xmlns:sodipodi="http://sodipodi.sourceforge.net/DTD/sodipodi-0.dtd"
   xmlns="http://www.w3.org/2000/svg"
   xmlns:svg="http://www.w3.org/2000/svg">
  <sodipodi:namedview
     id="namedview7"
     pagecolor="#ffffff"
     bordercolor="#000000"
     borderopacity="0.25"
     inkscape:showpageshadow="2"
     inkscape:pageopacity="0.0"
     inkscape:pagecheckerboard="0"
     inkscape:deskcolor="#d1d1d1"
     inkscape:document-units="px"
     showgrid="false"
     inkscape:zoom="33.291667"
     inkscape:cx="11.984981"
     inkscape:cy="12"
     inkscape:window-width="1920"
     inkscape:window-height="1006"
     inkscape:window-x="0"
     inkscape:window-y="0"
     inkscape:window-maximized="1"
     inkscape:current-layer="svg5" />
  <defs
     id="defs2" />
  <rect
     style="opacity:0.2;fill:#000000;stroke-width:1.42857;stroke-linecap:square"
     id="rect234"
     width="20"
     height="20"
     x="2"
     y="2.5"
     ry="4.5" />
  <rect
     style="fill:#83a598;fill-opacity:1;stroke-width:1.42857;stroke-linecap:square"
     id="rect396"
     width="20"
     height="20"
     x="2"
     y="2"
     ry="4.5" />
  <path
     id="rect1"
     style="opacity:0.2;fill:#000000;stroke-width:2"
     d="m 6,5.5 c -0.5539994,0 -1,0.4460006 -1,1 v 2 c 0,0.5539994 0.4460006,1 1,1 h 2 c 0.5539994,0 1,-0.4460006 1,-1 v -2 C 9,5.9460006 8.5539994,5.5 8,5.5 Z m 5,0 c -0.553999,0 -1,0.4460006 -1,1 v 2 c 0,0.5539994 0.446001,1 1,1 h 2 c 0.553999,0 1,-0.4460006 1,-1 v -2 c 0,-0.5539994 -0.446001,-1 -1,-1 z m -5,5 c -0.5539994,0 -1,0.446001 -1,1 v 2 c 0,0.553999 0.4460006,1 1,1 h 2 c 0.5539994,0 1,-0.446001 1,-1 v -2 c 0,-0.553999 -0.4460006,-1 -1,-1 z m 5,0 c -0.553999,0 -1,0.446001 -1,1 v 2 c 0,0.553999 0.446001,1 1,1 h 2 c 0.553999,0 1,-0.446001 1,-1 v -2 c 0,-0.553999 -0.446001,-1 -1,-1 z m -5,5 c -0.5539994,0 -1,0.446001 -1,1 v 2 c 0,0.553999 0.4460006,1 1,1 h 2 c 0.5539994,0 1,-0.446001 1,-1 v -2 c 0,-0.553999 -0.4460006,-1 -1,-1 z" />
  <path
     id="rect2"
     style="fill:#ffffff;stroke-width:2"
     d="M 6,5 C 5.4460006,5 5,5.4460006 5,6 V 8 C 5,8.5539994 5.4460006,9 6,9 H 8 C 8.5539994,9 9,8.5539994 9,8 V 6 C 9,5.4460006 8.5539994,5 8,5 Z m 5,0 c -0.553999,0 -1,0.4460006 -1,1 v 2 c 0,0.5539994 0.446001,1 1,1 h 2 c 0.553999,0 1,-0.4460006 1,-1 V 6 C 14,5.4460006 13.553999,5 13,5 Z m -5,5 c -0.5539994,0 -1,0.446001 -1,1 v 2 c 0,0.553999 0.4460006,1 1,1 h 2 c 0.5539994,0 1,-0.446001 1,-1 V 11 C 9,10.446001 8.5539994,10 8,10 Z m 5,0 c -0.553999,0 -1,0.446001 -1,1 v 2 c 0,0.553999 0.446001,1 1,1 h 2 c 0.553999,0 1,-0.446001 1,-1 v -2 c 0,-0.553999 -0.446001,-1 -1,-1 z m -5,5 c -0.5539994,0 -1,0.446001 -1,1 v 2 c 0,0.553999 0.4460006,1 1,1 h 2 c 0.5539994,0 1,-0.446001 1,-1 V 16 C 9,15.446001 8.5539994,15 8,15 Z" />
  <path
     id="path1040"
     style="opacity:0.2;fill:#ffffff;stroke-width:4;stroke-linecap:square"
     d="M 6.5,2 C 4.007005,2 2,4.007005 2,6.5 V 7 C 2,4.507005 4.007005,2.5 6.5,2.5 h 11 C 19.992996,2.5 22,4.507005 22,7 V 6.5 C 22,4.007005 19.992996,2 17.5,2 Z" />
</svg>
