<?xml version="1.0" encoding="UTF-8" standalone="no"?>
<svg
   width="16"
   height="16"
   version="1.1"
   id="svg9"
   sodipodi:docname="view-app-grid-symbolic.svg"
   inkscape:version="1.4.3 (0d15f75042, 2025-12-25)"
   xmlns:inkscape="http://www.inkscape.org/namespaces/inkscape"
   xmlns:sodipodi="http://sodipodi.sourceforge.net/DTD/sodipodi-0.dtd"
   xmlns="http://www.w3.org/2000/svg"
   xmlns:svg="http://www.w3.org/2000/svg">
  <defs
     id="defs9">
     <style
        id="current-color-scheme"
        type="text/css">
        .ColorScheme-Text { color:#4d4d4d; } .ColorScheme-Highlight { color:#4285f4; } .ColorScheme-NeutralText { color:#ff9800; } .ColorScheme-PositiveText { color:#4caf50; } .ColorScheme-NegativeText { color:#f44336; }
     </style>
  </defs>
  <sodipodi:namedview
     id="namedview9"
     pagecolor="#ffffff"
     bordercolor="#000000"
     borderopacity="0.25"
     inkscape:showpageshadow="2"
     inkscape:pageopacity="0.0"
     inkscape:pagecheckerboard="0"
     inkscape:deskcolor="#d1d1d1"
     inkscape:zoom="50.4375"
     inkscape:cx="7.9900867"
     inkscape:cy="8"
     inkscape:window-width="1920"
     inkscape:window-height="1010"
     inkscape:window-x="0"
     inkscape:window-y="0"
     inkscape:window-maximized="1"
     inkscape:current-layer="svg9" />
  <path
     id="path1"
     style="fill:currentColor"
     class="ColorScheme-Text"
     d="M 3.25 3 C 3.1115 3 3 3.1115 3 3.25 L 3 4.75 C 3 4.8885 3.1115 5 3.25 5 L 4.75 5 C 4.8885 5 5 4.8885 5 4.75 L 5 3.25 C 5 3.1115 4.8885 3 4.75 3 L 3.25 3 z M 7.25 3 C 7.1115 3 7 3.1115 7 3.25 L 7 4.75 C 7 4.8885 7.1115 5 7.25 5 L 8.75 5 C 8.8885 5 9 4.8885 9 4.75 L 9 3.25 C 9 3.1115 8.8885 3 8.75 3 L 7.25 3 z M 11.25 3 C 11.112 3 11 3.1115 11 3.25 L 11 4.75 C 11 4.8885 11.112 5 11.25 5 L 12.75 5 C 12.889 5 13 4.8885 13 4.75 L 13 3.25 C 13 3.1115 12.889 3 12.75 3 L 11.25 3 z M 3.25 7 C 3.1115 7 3 7.1115 3 7.25 L 3 8.75 C 3 8.8885 3.1115 9 3.25 9 L 4.75 9 C 4.8885 9 5 8.8885 5 8.75 L 5 7.25 C 5 7.1115 4.8885 7 4.75 7 L 3.25 7 z M 7.25 7 C 7.1115 7 7 7.1115 7 7.25 L 7 8.75 C 7 8.8885 7.1115 9 7.25 9 L 8.75 9 C 8.8885 9 9 8.8885 9 8.75 L 9 7.25 C 9 7.1115 8.8885 7 8.75 7 L 7.25 7 z M 11.25 7 C 11.112 7 11 7.1115 11 7.25 L 11 8.75 C 11 8.8885 11.112 9 11.25 9 L 12.75 9 C 12.889 9 13 8.8885 13 8.75 L 13 7.25 C 13 7.1115 12.889 7 12.75 7 L 11.25 7 z M 3.25 11 C 3.1115 11 3 11.112 3 11.25 L 3 12.75 C 3 12.889 3.1115 13 3.25 13 L 4.75 13 C 4.8885 13 5 12.889 5 12.75 L 5 11.25 C 5 11.112 4.8885 11 4.75 11 L 3.25 11 z M 7.25 11 C 7.1115 11 7 11.112 7 11.25 L 7 12.75 C 7 12.889 7.1115 13 7.25 13 L 8.75 13 C 8.8885 13 9 12.889 9 12.75 L 9 11.25 C 9 11.112 8.8885 11 8.75 11 L 7.25 11 z M 11.25 11 C 11.112 11 11 11.112 11 11.25 L 11 12.75 C 11 12.889 11.112 13 11.25 13 L 12.75 13 C 12.889 13 13 12.889 13 12.75 L 13 11.25 C 13 11.112 12.889 11 12.75 11 L 11.25 11 z " />
</svg>
