<?xml version="1.0" encoding="UTF-8" standalone="no"?>
<svg
   width="64"
   height="64"
   version="1"
   id="svg3"
   sodipodi:docname="drive-optical.svg"
   inkscape:version="1.3.2 (091e20ef0f, 2023-11-25, custom)"
   xmlns:inkscape="http://www.inkscape.org/namespaces/inkscape"
   xmlns:sodipodi="http://sodipodi.sourceforge.net/DTD/sodipodi-0.dtd"
   xmlns="http://www.w3.org/2000/svg"
   xmlns:svg="http://www.w3.org/2000/svg">
  <defs
     id="defs3" />
  <sodipodi:namedview
     id="namedview3"
     pagecolor="#ffffff"
     bordercolor="#000000"
     borderopacity="0.25"
     inkscape:showpageshadow="2"
     inkscape:pageopacity="0.0"
     inkscape:pagecheckerboard="0"
     inkscape:deskcolor="#d1d1d1"
     inkscape:zoom="11.390625"
     inkscape:cx="31.956104"
     inkscape:cy="32"
     inkscape:window-width="1920"
     inkscape:window-height="942"
     inkscape:window-x="0"
     inkscape:window-y="32"
     inkscape:window-maximized="1"
     inkscape:current-layer="svg3" />
  <rect
     style="opacity:0.2;fill:#000000;stroke-width:2"
     width="56"
     height="56"
     x="-61"
     y="-60"
     ry="2.5"
     transform="matrix(0,-1,-1,0,0,0)"
     id="rect1" />
  <rect
     style="fill:#8e8e8e;stroke-width:2"
     width="56"
     height="56"
     x="-60"
     y="-60"
     ry="2.5"
     transform="matrix(0,-1,-1,0,0,0)"
     id="rect2" />
  <path
     style="opacity:0.5;fill:#000000;stroke-width:2"
     d="M 32,12 A 20,20 0 0 0 12,32 20,20 0 0 0 32,52 20,20 0 0 0 52,32 20,20 0 0 0 32,12 Z m 0,12 a 7.9999992,7.9999992 0 0 1 8,8 7.9999992,7.9999992 0 0 1 -8,8 7.9999992,7.9999992 0 0 1 -8,-8 7.9999992,7.9999992 0 0 1 8,-8 z"
     id="path2" />
  <path
     id="path3"
     style="opacity:0.2;fill:#ffffff;stroke-width:2"
     d="M 6.5,4 C 5.1150014,4 4,5.1150014 4,6.5 v 1 C 4,6.1150014 5.1150014,5 6.5,5 h 51 C 58.883998,5 60,6.1150014 60,7.5 v -1 C 60,5.1150014 58.883998,4 57.5,4 Z" />
</svg>
