<?xml version="1.0" encoding="UTF-8" standalone="no"?>
<svg
   width="64"
   height="64"
   version="1"
   id="svg7"
   sodipodi:docname="media-floppy.svg"
   inkscape:version="1.3.2 (091e20ef0f, 2023-11-25, custom)"
   xmlns:inkscape="http://www.inkscape.org/namespaces/inkscape"
   xmlns:sodipodi="http://sodipodi.sourceforge.net/DTD/sodipodi-0.dtd"
   xmlns="http://www.w3.org/2000/svg"
   xmlns:svg="http://www.w3.org/2000/svg">
  <defs
     id="defs7" />
  <sodipodi:namedview
     id="namedview7"
     pagecolor="#ffffff"
     bordercolor="#000000"
     borderopacity="0.25"
     inkscape:showpageshadow="2"
     inkscape:pageopacity="0.0"
     inkscape:pagecheckerboard="0"
     inkscape:deskcolor="#d1d1d1"
     inkscape:zoom="11.390625"
     inkscape:cx="31.956104"
     inkscape:cy="32"
     inkscape:window-width="1920"
     inkscape:window-height="942"
     inkscape:window-x="0"
     inkscape:window-y="32"
     inkscape:window-maximized="1"
     inkscape:current-layer="svg7" />
  <rect
     style="opacity:0.2;fill:#000000;stroke-width:2"
     width="52"
     height="52"
     x="-59"
     y="-58"
     ry="2.5"
     transform="matrix(0,-1,-1,0,0,0)"
     id="rect1" />
  <rect
     style="fill:#4f4f4f;stroke-width:2"
     width="52"
     height="52"
     x="-58"
     y="-58"
     ry="2.5"
     transform="matrix(0,-1,-1,0,0,0)"
     id="rect2" />
  <rect
     style="opacity:0.2;fill:#000000;stroke-width:2"
     width="40"
     height="24"
     x="12"
     y="31"
     ry="2.5"
     id="rect3" />
  <rect
     style="fill:#ffffff;stroke-width:2"
     width="40"
     height="24"
     x="12"
     y="30"
     ry="2.5"
     id="rect4" />
  <path
     style="fill:#ffae3f;stroke-width:2"
     d="m 12,48 v 3.5 c 0,1.384 1.115,2.5 2.5,2.5 h 35 C 50.884,54 52,52.884 52,51.5 V 48 Z"
     id="path4" />
  <path
     style="opacity:0.2;fill:#000000;stroke-width:2"
     d="m 20,7 v 17.5 c 0,1.386 1.114,2.5 2.5,2.5 h 27 C 50.884,27 52,25.886 52,24.5 V 7 Z m 20,4 h 6 c 1.108,0 2,0.892 2,2 v 8 c 0,1.108 -0.892,2 -2,2 h -6 c -1.108,0 -2,-0.892 -2,-2 v -8 c 0,-1.108 0.892,-2 2,-2 z"
     id="path5" />
  <path
     style="fill:#b7b7b7;stroke-width:2"
     d="m 20,6 v 17.5 c 0,1.386 1.114,2.5 2.5,2.5 h 27 C 50.884,26 52,24.886 52,23.5 V 6 Z m 20,4 h 6 c 1.108,0 2,0.892 2,2 v 8 c 0,1.108 -0.892,2 -2,2 h -6 c -1.108,0 -2,-0.892 -2,-2 v -8 c 0,-1.108 0.892,-2 2,-2 z"
     id="path6" />
  <path
     id="path7"
     style="opacity:0.1;fill:#ffffff;stroke-width:2"
     d="M 8.5,6 C 7.1150014,6 6,7.1150014 6,8.5 v 1 C 6,8.1150014 7.1150014,7 8.5,7 h 47 C 56.883998,7 58,8.1150014 58,9.5 v -1 C 58,7.1150014 56.883998,6 55.5,6 Z" />
</svg>
