<?xml version="1.0" encoding="UTF-8" standalone="no"?>
<!-- Created with Inkscape (http://www.inkscape.org/) -->

<svg
   width="64"
   height="64"
   viewBox="0 0 64 64"
   version="1.1"
   id="svg5"
   sodipodi:docname="printer.svg"
   inkscape:version="1.2.2 (1:1.2.2+202305151914+b0a8486541)"
   xmlns:inkscape="http://www.inkscape.org/namespaces/inkscape"
   xmlns:sodipodi="http://sodipodi.sourceforge.net/DTD/sodipodi-0.dtd"
   xmlns="http://www.w3.org/2000/svg"
   xmlns:svg="http://www.w3.org/2000/svg">
  <sodipodi:namedview
     id="namedview7"
     pagecolor="#ffffff"
     bordercolor="#666666"
     borderopacity="1.0"
     inkscape:showpageshadow="2"
     inkscape:pageopacity="0.0"
     inkscape:pagecheckerboard="0"
     inkscape:deskcolor="#d1d1d1"
     inkscape:document-units="px"
     showgrid="false"
     inkscape:zoom="12.59375"
     inkscape:cx="31.960298"
     inkscape:cy="32"
     inkscape:window-width="1920"
     inkscape:window-height="1008"
     inkscape:window-x="0"
     inkscape:window-y="0"
     inkscape:window-maximized="1"
     inkscape:current-layer="svg5" />
  <defs
     id="defs2" />
  <path
     d="m 13,4 h 38 c 1.662,0 3,1.338 3,3 V 26 H 10 V 7 c 0,-1.662 1.338,-3 3,-3 z"
     style="fill:#e4e4e4;stroke-width:2;stroke-linecap:square"
     id="path3296" />
  <path
     id="path3324"
     style="opacity:0.2;fill:#ffffff;stroke-width:2;stroke-linecap:square"
     d="m 13.00002,4 c -1.662,0 -3,1.338 -3,3 v 1 c 0,-1.662 1.338,-3 3,-3 h 38 c 1.662,0 3,1.338 3,3 V 7 c 0,-1.662 -1.338,-3 -3,-3 z" />
  <rect
     style="opacity:0.2;fill:#000000;fill-opacity:1;stroke-width:2;stroke-linecap:square"
     id="rect3036"
     width="56"
     height="24"
     x="4"
     y="21.000002"
     ry="3" />
  <rect
     style="fill:#4f4f4f;fill-opacity:1;stroke-width:2;stroke-linecap:square"
     id="rect3038"
     width="56"
     height="24"
     x="4"
     y="20.000002"
     ry="3" />
  <path
     id="rect3109"
     style="opacity:0.1;fill:#ffffff;fill-opacity:1;stroke-width:2;stroke-linecap:square"
     d="m 7.0000002,20 c -1.662,0 -3,1.338 -3,3 v 1 c 0,-1.662 1.338,-3 3,-3 H 57 c 1.662,0 3,1.338 3,3 v -1 c 0,-1.662 -1.338,-3 -3,-3 z" />
  <rect
     style="opacity:0.2;fill:#000000;fill-opacity:1;stroke-width:2;stroke-linecap:square"
     id="rect3166"
     width="50"
     height="6"
     x="7"
     y="33" />
  <path
     d="m 54,37 v 20 c 0,1.662 -1.338,3 -3,3 H 13 c -1.662,0 -3,-1.338 -3,-3 V 37 Z"
     style="opacity:0.2;fill:#000000;stroke-width:2;stroke-linecap:square"
     id="path3383" />
  <rect
     style="opacity:0.2;fill:#000000;fill-opacity:1;stroke-width:2;stroke-linecap:square"
     id="rect3168"
     width="5"
     height="5"
     x="7"
     y="24.000002"
     ry="2" />
  <rect
     style="fill:#76ff03;fill-opacity:1;stroke-width:2;stroke-linecap:square"
     id="rect3170"
     width="5"
     height="5"
     x="7"
     y="23.000002"
     ry="2" />
  <path
     id="rect3172"
     style="opacity:0.2;fill:#ffffff;fill-opacity:1;stroke-width:2;stroke-linecap:square"
     d="m 9.0000202,23 c -1.108,0 -2,0.892 -2,2 v 1 c 0,-1.108 0.892,-2 2,-2 H 10.00002 c 1.108,0 2,0.892 2,2 v -1 c 0,-1.108 -0.892,-2 -2,-2 z" />
  <path
     id="rect3372"
     style="fill:#e4e4e4;stroke-width:2;stroke-linecap:square"
     d="m 54,36 v 20 c 0,1.662 -1.338,3 -3,3 H 13 c -1.662,0 -3,-1.338 -3,-3 V 36 Z" />
  <path
     d="m 15.00002,40 v 3 h 32 v -3 z m 0,6 v 3 h 24 v -3 z m 0,6 v 3 h 32 v -3 z"
     style="opacity:0.5;fill:#000000"
     id="path3412" />
</svg>
