<?xml version="1.0" encoding="UTF-8" standalone="no"?>
<svg
   width="64"
   height="64"
   version="1"
   id="svg7"
   sodipodi:docname="scanner.svg"
   inkscape:version="1.3.2 (091e20ef0f, 2023-11-25, custom)"
   xmlns:inkscape="http://www.inkscape.org/namespaces/inkscape"
   xmlns:sodipodi="http://sodipodi.sourceforge.net/DTD/sodipodi-0.dtd"
   xmlns="http://www.w3.org/2000/svg"
   xmlns:svg="http://www.w3.org/2000/svg">
  <defs
     id="defs7" />
  <sodipodi:namedview
     id="namedview7"
     pagecolor="#ffffff"
     bordercolor="#000000"
     borderopacity="0.25"
     inkscape:showpageshadow="2"
     inkscape:pageopacity="0.0"
     inkscape:pagecheckerboard="0"
     inkscape:deskcolor="#d1d1d1"
     inkscape:zoom="11.390625"
     inkscape:cx="32"
     inkscape:cy="32"
     inkscape:window-width="1920"
     inkscape:window-height="942"
     inkscape:window-x="0"
     inkscape:window-y="32"
     inkscape:window-maximized="1"
     inkscape:current-layer="svg7" />
  <rect
     style="opacity:0.2;fill:#000000;stroke-width:2"
     width="56"
     height="44"
     x="-61"
     y="-54"
     ry="3"
     transform="matrix(0,-1,-1,0,0,0)"
     id="rect1" />
  <rect
     style="fill:#4f4f4f;stroke-width:2"
     width="56"
     height="44"
     x="-60"
     y="-54"
     ry="3"
     transform="matrix(0,-1,-1,0,0,0)"
     id="rect2" />
  <rect
     style="opacity:0.2;fill:#000000;stroke-width:2"
     width="44"
     height="32"
     x="-55"
     y="-48"
     rx="0"
     ry="0"
     transform="matrix(0,-1,-1,0,0,0)"
     id="rect6" />
  <rect
     style="fill:#e4e4e4;stroke-width:2"
     width="44"
     height="32"
     x="-54"
     y="-48"
     rx="0"
     ry="0"
     transform="matrix(0,-1,-1,0,0,0)"
     id="rect3" />
  <rect
     style="opacity:0.2;fill:#000000;stroke-width:2"
     width="56"
     height="6"
     x="4"
     y="21"
     ry="1.5"
     id="rect4" />
  <rect
     style="fill:#f34235;stroke-width:2"
     width="56"
     height="6"
     x="4"
     y="20"
     ry="1.5"
     id="rect5" />
  <rect
     style="opacity:0.2;fill:#ffffff;stroke-width:1.41421"
     width="1"
     height="32"
     x="-11"
     y="-48"
     rx="0"
     ry="0"
     transform="matrix(0,-1,-1,0,0,0)"
     id="rect7" />
  <path
     id="path1"
     style="opacity:0.1;fill:#ffffff;stroke-width:2"
     d="m 13,4 c -1.661996,0 -3,1.3380036 -3,3 v 1 c 0,-1.6619964 1.338004,-3 3,-3 h 38 c 1.661996,0 3,1.3380036 3,3 V 7 C 54,5.3380036 52.661996,4 51,4 Z" />
</svg>
