<?xml version="1.0" encoding="UTF-8" standalone="no"?>
<!-- Created with Inkscape (http://www.inkscape.org/) -->

<svg
   width="256"
   height="256"
   viewBox="0 0 256 256"
   version="1.1"
   id="svg5"
   inkscape:version="1.2.2 (1:1.2.2+202305151914+b0a8486541)"
   sodipodi:docname="akregator.svg"
   xmlns:inkscape="http://www.inkscape.org/namespaces/inkscape"
   xmlns:sodipodi="http://sodipodi.sourceforge.net/DTD/sodipodi-0.dtd"
   xmlns="http://www.w3.org/2000/svg"
   xmlns:svg="http://www.w3.org/2000/svg">
  <sodipodi:namedview
     id="namedview7"
     pagecolor="#ffffff"
     bordercolor="#000000"
     borderopacity="0.25"
     inkscape:showpageshadow="2"
     inkscape:pageopacity="0.0"
     inkscape:pagecheckerboard="0"
     inkscape:deskcolor="#d1d1d1"
     inkscape:document-units="px"
     showgrid="false"
     inkscape:zoom="3.1484375"
     inkscape:cx="127.84119"
     inkscape:cy="128"
     inkscape:window-width="1920"
     inkscape:window-height="1008"
     inkscape:window-x="0"
     inkscape:window-y="0"
     inkscape:window-maximized="1"
     inkscape:current-layer="svg5" />
  <defs
     id="defs2" />
  <rect
     style="opacity:0.2;fill:#000000;stroke-width:16;stroke-linecap:square"
     id="rect234"
     width="224"
     height="224"
     x="16"
     y="18"
     ry="48" />
  <rect
     style="fill:#ffa726;fill-opacity:1;stroke-width:16;stroke-linecap:square"
     id="rect396"
     width="224"
     height="224"
     x="16"
     y="16"
     ry="48" />
  <path
     d="m 68,50 c -6.627416,0 -12,5.372584 -12,12 0,6.627416 5.372584,12 12,12 64.20704,0 116,51.79295 116,116 0,6.6274 5.37258,12 12,12 6.62742,0 12,-5.3726 12,-12 C 208,112.82242 145.17758,50 68,50 Z m 0,56 c -6.627416,0 -12,5.37259 -12,12 0,6.62741 5.372584,12 12,12 33.27915,0 60,26.72084 60,60 0,6.62742 5.37258,12 12,12 6.62742,0 12,-5.37258 12,-12 0,-46.2497 -37.75031,-84 -84,-84 z m 4,55.99999 c -13.255176,0 -24,10.74403 -24,24.00001 0,13.25596 10.744824,24 24,24 13.255976,0 24,-10.74404 24,-24 0,-13.25598 -10.744024,-24.00001 -24,-24.00001 z"
     style="opacity:0.2;fill:#000000;stroke:none;stroke-width:8;stroke-linecap:round;-inkscape-stroke:none"
     id="path347" />
  <path
     id="path1148"
     style="fill:#ffffff;stroke:none;stroke-width:8;stroke-linecap:round;-inkscape-stroke:none"
     d="m 68,48 c -6.627416,0 -12,5.372584 -12,12 0,6.627416 5.372584,12 12,12 64.20704,0 116,51.79296 116,116 0,6.62742 5.37258,12 12,12 6.62742,0 12,-5.37258 12,-12 C 208,110.82242 145.17758,48 68,48 Z m 0,56 c -6.627416,0 -12,5.37258 -12,12 0,6.62742 5.372584,12 12,12 33.27915,0 60,26.72085 60,60 0,6.62742 5.37258,12 12,12 6.62742,0 12,-5.37258 12,-12 0,-46.24969 -37.75031,-84 -84,-84 z m 4,56 c -13.255176,0 -24,10.74403 -24,24 0,13.25596 10.744824,24 24,24 13.255976,0 24,-10.74404 24,-24 0,-13.25597 -10.744024,-24 -24,-24 z" />
  <path
     id="path1040"
     style="opacity:0.1;fill:#ffffff;stroke-width:16;stroke-linecap:square"
     d="M 64,16 C 37.408052,16 16,37.408054 16,64 v 2 C 16,39.408026 37.408026,18 64,18 h 128 c 26.59198,0 48,21.408026 48,48 V 64 C 240,37.408054 218.59194,16 192,16 Z" />
</svg>
