<?xml version="1.0" encoding="UTF-8" standalone="no"?>
<!-- Created with Inkscape (http://www.inkscape.org/) -->

<svg
   width="256"
   height="256"
   viewBox="0 0 256 256"
   version="1.1"
   id="svg5"
   inkscape:version="1.3 (0e150ed6c4, 2023-07-21)"
   sodipodi:docname="applications-utilities.svg"
   xmlns:inkscape="http://www.inkscape.org/namespaces/inkscape"
   xmlns:sodipodi="http://sodipodi.sourceforge.net/DTD/sodipodi-0.dtd"
   xmlns="http://www.w3.org/2000/svg"
   xmlns:svg="http://www.w3.org/2000/svg">
  <sodipodi:namedview
     id="namedview7"
     pagecolor="#ffffff"
     bordercolor="#000000"
     borderopacity="0.25"
     inkscape:showpageshadow="2"
     inkscape:pageopacity="0.0"
     inkscape:pagecheckerboard="0"
     inkscape:deskcolor="#d1d1d1"
     inkscape:document-units="px"
     showgrid="false"
     inkscape:zoom="3.0585938"
     inkscape:cx="128"
     inkscape:cy="128"
     inkscape:window-width="1920"
     inkscape:window-height="984"
     inkscape:window-x="0"
     inkscape:window-y="29"
     inkscape:window-maximized="1"
     inkscape:current-layer="svg5" />
  <defs
     id="defs2" />
  <rect
     style="opacity:0.2;fill:#000000;stroke-width:16;stroke-linecap:square"
     id="rect234"
     width="224"
     height="224"
     x="16"
     y="18"
     ry="48" />
  <rect
     style="fill:#b7b7b7;fill-opacity:1;stroke-width:16;stroke-linecap:square"
     id="rect396"
     width="224"
     height="224"
     x="16"
     y="16"
     ry="48" />
  <path
     id="path1"
     style="opacity:0.2;fill:#000000;stroke-width:8"
     d="M 80,58 C 66.704016,58 56,68.704016 56,82 v 96 c 0,13.29598 10.704016,24 24,24 13.295984,0 24,-10.70402 24,-24 V 82 C 104,68.704016 93.295984,58 80,58 Z m 20.25,0 C 107.27399,63.703992 112,72.336016 112,82 v 8 h 37 c -0.592,-8.743992 9.98401,-16 16,-16 5.43999,0 8,0.09584 8,8 v 8 h 9.75 C 192.574,85.200008 196.98438,74.243992 196.98438,68.5 196.98438,62.62 177.91599,58 167.5,58 Z M 112,98 v 34.48438 c 22.12798,21.28788 69,19.26562 69,19.26562 0,0 2.82198,-12.15438 -15.25,-32.23438 L 146.79687,98 Z M 156,118.26562 168,130 c -14.39198,1.32 -15.736,-4.69438 -12,-11.73438 z" />
  <path
     id="path2"
     style="fill:#ffffff;stroke-width:8"
     d="M 80,56 C 66.704016,56 56,66.704016 56,80 v 96 c 0,13.29598 10.704016,24 24,24 13.295984,0 24,-10.70402 24,-24 V 80 C 104,66.704016 93.295984,56 80,56 Z m 20.25,0 C 107.27399,61.703996 112,70.336016 112,80 v 8 h 37 c -0.592,-8.743992 9.98401,-16 16,-16 5.43999,0 8,0.09584 8,8 v 8 h 9.75 C 192.574,83.200008 196.98438,72.243992 196.98438,66.5 196.98438,60.620004 177.91599,56 167.5,56 Z M 112,96 v 34.48438 c 22.12798,21.28788 69,19.26562 69,19.26562 0,0 2.82198,-12.15438 -15.25,-32.23438 L 146.79687,96 Z M 156,116.26562 168,128 c -14.39198,1.32 -15.736,-4.69438 -12,-11.73438 z" />
  <g
     id="g361"
     transform="matrix(3.9999768,0,0,3.9999768,2.792e-4,2.792e-4)" />
  <path
     id="path1040"
     style="opacity:0.2;fill:#ffffff;stroke-width:16;stroke-linecap:square"
     d="M 64,16 C 37.40808,16 16,37.40808 16,64 v 2 C 16,39.408084 37.40808,18 64,18 h 128 c 26.59192,0 48,21.408084 48,48 V 64 C 240,37.40808 218.59192,16 192,16 Z" />
</svg>
