<?xml version="1.0" encoding="UTF-8" standalone="no"?>
<!-- Created with Inkscape (http://www.inkscape.org/) -->

<svg
   width="256"
   height="256"
   viewBox="0 0 256 256"
   version="1.1"
   id="svg5"
   inkscape:version="1.3 (0e150ed6c4, 2023-07-21)"
   sodipodi:docname="applets-screenshooter.svg"
   xmlns:inkscape="http://www.inkscape.org/namespaces/inkscape"
   xmlns:sodipodi="http://sodipodi.sourceforge.net/DTD/sodipodi-0.dtd"
   xmlns="http://www.w3.org/2000/svg"
   xmlns:svg="http://www.w3.org/2000/svg">
  <sodipodi:namedview
     id="namedview7"
     pagecolor="#ffffff"
     bordercolor="#000000"
     borderopacity="0.25"
     inkscape:showpageshadow="2"
     inkscape:pageopacity="0.0"
     inkscape:pagecheckerboard="0"
     inkscape:deskcolor="#d1d1d1"
     inkscape:document-units="px"
     showgrid="false"
     inkscape:zoom="3.0585938"
     inkscape:cx="128"
     inkscape:cy="128"
     inkscape:window-width="1920"
     inkscape:window-height="984"
     inkscape:window-x="0"
     inkscape:window-y="29"
     inkscape:window-maximized="1"
     inkscape:current-layer="svg5" />
  <defs
     id="defs2" />
  <rect
     style="opacity:0.2;fill:#000000;stroke-width:16;stroke-linecap:square"
     id="rect234"
     width="224"
     height="224"
     x="16"
     y="18"
     ry="48" />
  <rect
     style="fill:#48cac2;fill-opacity:1;stroke-width:16;stroke-linecap:square"
     id="rect396"
     width="224"
     height="224"
     x="16"
     y="16"
     ry="48" />
  <path
     id="rect1"
     style="opacity:0.2;fill:#000000;stroke-width:16"
     d="M 64,50 C 55.13608,50 48,57.13608 48,66 V 98 H 64 V 66 H 96 V 50 Z m 96,0 v 16 h 32 v 32 h 16 V 66 c 0,-8.86392 -7.13612,-16 -16,-16 z m -44,48 -8,12 h -8 c -4.431968,0 -8,3.56803 -8,8 v 32 c 0,4.43197 3.568032,8 8,8 h 56 c 4.43197,0 8,-3.56803 8,-8 v -32 c 0,-4.43197 -3.56803,-8 -8,-8 h -8 l -8,-12 z m 12,20 c 8.83651,0 16,7.16349 16,16 0,8.83651 -7.16349,16 -16,16 -8.83651,0 -16,-7.16349 -16,-16 0,-8.83651 7.16349,-16 16,-16 z m -80,44 v 32 c 0,8.86388 7.13608,16 16,16 H 96 V 194 H 64 v -32 z m 144,0 v 32 h -32 v 16 h 32 c 8.86388,0 16,-7.13612 16,-16 v -32 z" />
  <path
     id="rect2"
     style="fill:#ffffff;fill-opacity:1;stroke-width:16"
     d="M 64,48 C 55.13608,48 48,55.13608 48,64 V 96 H 64 V 64 H 96 V 48 Z m 96,0 v 16 h 32 v 32 h 16 V 64 c 0,-8.86392 -7.13612,-16 -16,-16 z m -44,48 -8,12 h -8 c -4.431968,0 -8,3.56803 -8,8 v 32 c 0,4.43197 3.568032,8 8,8 h 56 c 4.43197,0 8,-3.56803 8,-8 v -32 c 0,-4.43197 -3.56803,-8 -8,-8 h -8 l -8,-12 z m 12,20 c 8.83651,0 16,7.16349 16,16 0,8.83651 -7.16349,16 -16,16 -8.83651,0 -16,-7.16349 -16,-16 0,-8.83651 7.16349,-16 16,-16 z m -80,44 v 32 c 0,8.86388 7.13608,16 16,16 H 96 V 192 H 64 v -32 z m 144,0 v 32 h -32 v 16 h 32 c 8.86388,0 16,-7.13612 16,-16 v -32 z" />
  <path
     id="path1040"
     style="opacity:0.1;fill:#ffffff;stroke-width:16;stroke-linecap:square"
     d="M 64,16 C 37.40808,16 16,37.40808 16,64 v 2 C 16,39.40808 37.40808,18 64,18 h 128 c 26.59192,0 48,21.40808 48,48 V 64 C 240,37.40808 218.59192,16 192,16 Z" />
</svg>
