<?xml version="1.0" encoding="UTF-8" standalone="no"?>
<!-- Created with Inkscape (http://www.inkscape.org/) -->

<svg
   width="256"
   height="256"
   viewBox="0 0 256 256"
   version="1.1"
   id="svg5"
   inkscape:version="1.3 (0e150ed6c4, 2023-07-21)"
   sodipodi:docname="applications-multimedia.svg"
   xmlns:inkscape="http://www.inkscape.org/namespaces/inkscape"
   xmlns:sodipodi="http://sodipodi.sourceforge.net/DTD/sodipodi-0.dtd"
   xmlns="http://www.w3.org/2000/svg"
   xmlns:svg="http://www.w3.org/2000/svg">
  <sodipodi:namedview
     id="namedview7"
     pagecolor="#ffffff"
     bordercolor="#000000"
     borderopacity="0.25"
     inkscape:showpageshadow="2"
     inkscape:pageopacity="0.0"
     inkscape:pagecheckerboard="0"
     inkscape:deskcolor="#d1d1d1"
     inkscape:document-units="px"
     showgrid="false"
     inkscape:zoom="3.140625"
     inkscape:cx="128"
     inkscape:cy="128"
     inkscape:window-width="1920"
     inkscape:window-height="1008"
     inkscape:window-x="0"
     inkscape:window-y="0"
     inkscape:window-maximized="1"
     inkscape:current-layer="svg5" />
  <defs
     id="defs2" />
  <rect
     style="opacity:0.2;fill:#000000;stroke-width:16;stroke-linecap:square"
     id="rect234"
     width="224"
     height="224"
     x="16"
     y="18"
     ry="48" />
  <rect
     style="fill:#863ea7;fill-opacity:1;stroke-width:16;stroke-linecap:square"
     id="rect396"
     width="224"
     height="224"
     x="16"
     y="16"
     ry="48" />
  <path
     style="opacity:0.2;fill:#000000;stroke-width:16"
     d="M 89.018368,66.002416 A 8.8131296,8.911096 0 0 0 80,74.906184 v 55.103776 55.07688 a 8.8131296,8.911096 0 0 0 13.21816,7.7202 l 47.18512,-27.54518 47.1851,-27.54517 a 8.8131296,8.911096 0 0 0 0,-15.44036 L 140.40328,94.73116 93.21816,67.199448 a 8.8131296,8.911096 0 0 0 -4.199792,-1.197032 z"
     id="path1" />
  <path
     style="fill:#ffffff;stroke-width:15.9999"
     d="M 89.018368,64.002416 A 8.8131296,8.911096 0 0 0 80,72.906184 v 55.103776 55.07688 a 8.8131296,8.911096 0 0 0 13.21816,7.7202 l 47.18512,-27.54517 47.1851,-27.54518 a 8.8131296,8.911096 0 0 0 0,-15.44036 L 140.40328,92.73116 93.21816,65.199448 a 8.8131296,8.911096 0 0 0 -4.199792,-1.197032 z"
     id="path10" />
  <path
     id="path1040"
     style="opacity:0.1;fill:#ffffff;stroke-width:16;stroke-linecap:square"
     d="M 64,16 C 37.40808,16 16,37.40808 16,64 v 2 C 16,39.408084 37.40808,18 64,18 h 128 c 26.59192,0 48,21.408084 48,48 V 64 C 240,37.40808 218.59192,16 192,16 Z" />
</svg>
