<?xml version="1.0" encoding="UTF-8" standalone="no"?>
<!-- Created with Inkscape (http://www.inkscape.org/) -->

<svg
   width="256"
   height="256"
   viewBox="0 0 256 256"
   version="1.1"
   id="svg5"
   inkscape:version="1.3.1 (91b66b0783, 2023-11-16, custom)"
   sodipodi:docname="beamng-drive.svg"
   xmlns:inkscape="http://www.inkscape.org/namespaces/inkscape"
   xmlns:sodipodi="http://sodipodi.sourceforge.net/DTD/sodipodi-0.dtd"
   xmlns="http://www.w3.org/2000/svg"
   xmlns:svg="http://www.w3.org/2000/svg">
  <sodipodi:namedview
     id="namedview7"
     pagecolor="#ffffff"
     bordercolor="#000000"
     borderopacity="0.25"
     inkscape:showpageshadow="2"
     inkscape:pageopacity="0.0"
     inkscape:pagecheckerboard="0"
     inkscape:deskcolor="#d1d1d1"
     inkscape:document-units="px"
     showgrid="false"
     inkscape:zoom="2.8359375"
     inkscape:cx="127.82369"
     inkscape:cy="128"
     inkscape:window-width="1920"
     inkscape:window-height="937"
     inkscape:window-x="0"
     inkscape:window-y="32"
     inkscape:window-maximized="1"
     inkscape:current-layer="svg5" />
  <defs
     id="defs2" />
  <rect
     style="opacity:0.2;fill:#000000;stroke-width:16;stroke-linecap:square"
     id="rect234"
     width="224"
     height="224"
     x="16"
     y="18"
     ry="48" />
  <rect
     style="fill:#efefef;fill-opacity:1;stroke-width:16;stroke-linecap:square"
     id="rect396"
     width="224"
     height="224"
     x="16"
     y="16"
     ry="48" />
  <path
     d="m 164,58 a 20,20 0 0 0 -20,20 20,20 0 0 0 0.27344,3.273436 L 114.84376,100.40625 A 40,40 0 0 0 88,90 40,40 0 0 0 48,130 40,40 0 0 0 88,170 40,40 0 0 0 118.75781,155.55469 L 152.125,171.57031 A 28,28 0 0 0 152,174 a 28,28 0 0 0 28,28 28,28 0 0 0 28,-28 28,28 0 0 0 -22.11718,-27.35938 L 175.42969,94.375 A 20,20 0 0 0 184,78 20,20 0 0 0 164,58 Z m -10.99219,36.6875 a 20,20 0 0 0 6.74219,2.843748 l 10.07812,50.382812 a 28,28 0 0 0 -11.78124,8.75782 L 126.3125,141.4375 A 40,40 0 0 0 128,130 40,40 0 0 0 124.3125,113.34375 Z"
     style="opacity:0.2;fill:#000000;stroke-width:4"
     id="path1" />
  <path
     d="m 163.78906,68 a 8.0008,8.0008 0 0 0 -4.14844,1.289064 L 79.640624,121.28906 a 8.0008,8.0008 0 0 0 0.89844,13.92188 l 99.999996,48 a 8.0008,8.0008 0 0 0 11.3047,-8.78125 L 171.84375,74.429688 A 8.0008,8.0008 0 0 0 163.78906,68 Z m -5.32031,21.140624 14.54687,72.710936 -72.71874,-34.89844 z"
     style="fill:#353535;stroke-width:4"
     id="path2" />
  <path
     id="path3"
     style="opacity:0.2;fill:#000000;stroke-width:4"
     d="m 163.78906,68 a 8.0008,8.0008 0 0 0 -4.14844,1.289064 l -15.46093,10.054688 a 20,20 0 0 0 7.50781,14.203124 l 6.78125,-4.406252 1.67187,8.351564 A 20,20 0 0 0 164,98 20,20 0 0 0 175.75781,93.976564 L 171.84375,74.429688 A 8.0008,8.0008 0 0 0 163.78906,68 Z m -51.63281,32.15625 -32.515626,21.13281 a 8.0008,8.0008 0 0 0 0.89844,13.92188 l 39.226556,18.82812 a 40,40 0 0 0 6.91407,-14.42187 l -26.38281,-12.66407 22.5,-14.625 A 40,40 0 0 0 112.15625,100.15625 Z M 180,148 a 28,28 0 0 0 -9.42188,1.67188 l 2.4375,12.17968 -12.44531,-5.96875 a 28,28 0 0 0 -7.85156,13.97657 l 27.82031,13.35156 a 8.0008,8.0008 0 0 0 11.3047,-8.78125 l -5.1172,-25.57813 A 28,28 0 0 0 180,148 Z" />
  <path
     id="path4"
     style="opacity:0.1;fill:#ffffff;stroke-width:4"
     d="m 163.78906,68 a 8.0008,8.0008 0 0 0 -4.14844,1.289064 L 79.640624,121.28906 a 8.0008,8.0008 0 0 0 -3.460936,7.78906 8.0008,8.0008 0 0 1 3.460936,-5.78906 L 159.64062,71.289064 A 8.0008,8.0008 0 0 1 163.78906,70 a 8.0008,8.0008 0 0 1 8.05469,6.429688 l 20.00001,100.000002 a 8.0008,8.0008 0 0 1 0.0704,0.71875 8.0008,8.0008 0 0 0 -0.0704,-2.71875 L 171.84375,74.429688 A 8.0008,8.0008 0 0 0 163.78906,68 Z m -59.95312,60.64844 -1.77344,1.15625 70.50781,33.83593 -0.4375,-2.21093 z" />
  <path
     id="path5"
     style="fill:#fe6501;stroke-width:4"
     d="M 164,56 A 20,20 0 0 0 144,76 20,20 0 0 0 164,96 20,20 0 0 0 184,76 20,20 0 0 0 164,56 Z M 88,88 a 40,40 0 0 0 -40,40 40,40 0 0 0 40,40 40,40 0 0 0 40,-40 40,40 0 0 0 -40,-40 z m 92,56 a 28,28 0 0 0 -28,28 28,28 0 0 0 28,28 28,28 0 0 0 28,-28 28,28 0 0 0 -28,-28 z" />
  <path
     id="path6"
     style="opacity:0.2;fill:#ffffff;stroke-width:4"
     d="m 164,56 a 20,20 0 0 0 -20,20 20,20 0 0 0 0.0781,1.421876 A 20,20 0 0 1 164,58 20,20 0 0 1 183.94531,76.906248 20,20 0 0 0 184,76 20,20 0 0 0 164,56 Z M 88,88 a 40,40 0 0 0 -40,40 40,40 0 0 0 0.07031,1.30469 A 40,40 0 0 1 88,90 40,40 0 0 1 127.96875,128.94531 40,40 0 0 0 128,128 40,40 0 0 0 88,88 Z m 92,56 a 28,28 0 0 0 -28,28 28,28 0 0 0 0.0703,1.375 A 28,28 0 0 1 180,146 28,28 0 0 1 207.96094,172.95312 28,28 0 0 0 208,172 28,28 0 0 0 180,144 Z" />
  <path
     id="path1040"
     style="opacity:0.2;fill:#ffffff;stroke-width:16;stroke-linecap:square"
     d="M 64,16 C 37.408052,16 16,37.408056 16,64 v 2 C 16,39.408056 37.408052,18 64,18 h 128 c 26.59194,0 48,21.408056 48,48 V 64 C 240,37.408056 218.59194,16 192,16 Z" />
</svg>
