<?xml version="1.0" encoding="UTF-8" standalone="no"?>
<!-- Created with Inkscape (http://www.inkscape.org/) -->

<svg
   width="256"
   height="256"
   viewBox="0 0 256 256"
   version="1.1"
   id="svg5"
   inkscape:version="1.2.2 (1:1.2.2+202305151914+b0a8486541)"
   sodipodi:docname="brave-browser.svg"
   xmlns:inkscape="http://www.inkscape.org/namespaces/inkscape"
   xmlns:sodipodi="http://sodipodi.sourceforge.net/DTD/sodipodi-0.dtd"
   xmlns="http://www.w3.org/2000/svg"
   xmlns:svg="http://www.w3.org/2000/svg">
  <sodipodi:namedview
     id="namedview7"
     pagecolor="#ffffff"
     bordercolor="#000000"
     borderopacity="0.25"
     inkscape:showpageshadow="2"
     inkscape:pageopacity="0.0"
     inkscape:pagecheckerboard="0"
     inkscape:deskcolor="#d1d1d1"
     inkscape:document-units="px"
     showgrid="false"
     inkscape:zoom="3.2421875"
     inkscape:cx="128"
     inkscape:cy="128"
     inkscape:window-width="1920"
     inkscape:window-height="1008"
     inkscape:window-x="0"
     inkscape:window-y="0"
     inkscape:window-maximized="1"
     inkscape:current-layer="svg5" />
  <defs
     id="defs2" />
  <rect
     style="opacity:0.2;fill:#000000;stroke-width:16;stroke-linecap:square"
     id="rect234"
     width="224"
     height="224"
     x="16"
     y="18"
     ry="48" />
  <rect
     style="fill:#efefef;fill-opacity:1;stroke-width:16;stroke-linecap:square"
     id="rect396"
     width="224"
     height="224"
     x="16"
     y="16"
     ry="48" />
  <g
     id="g6867">
    <path
       d="m 101.42968,46 -14.1328,18.17968 c -0.188,0.064 -1.57172,-1.09664 -3.07812,-1.53904 -4.0384,-1.18648 -9.16524,-0.98092 -12.64844,0.60156 -2.2784,1.0352 -3.15972,1.76184 -8.57812,7.08592 C 57.1514,76.06588 56,76.78152 56,78 c 0,0.316 2.10924,4.05668 3.14844,6.46876 l 1.8828,4.3906 -2.42188,6.64844 c -1.3312,3.65368 -2.48088,6.84256 -2.56248,7.09376 -0.2064,0.6408 18.70732,69.67156 19.69532,72.01564 1.7936,4.25608 4.6128,8.07504 8.2656,11.20312 3.2984,2.824 36.76616,25.67136 40.07812,27.35936 0.984,0.504 2.56208,0.78824 3.91408,0.82032 1.352,-0.032 2.93008,-0.3164 3.91408,-0.82032 3.31196,-1.688 36.78212,-24.53536 40.07812,-27.35936 3.656,-3.12808 6.4736,-6.94704 8.2656,-11.20312 0.992,-2.34408 19.90332,-71.37484 19.69532,-72.01564 -0.08,-0.2512 -1.23432,-3.44008 -2.57032,-7.09376 l -2.41404,-6.64844 1.8828,-4.3906 C 197.89156,82.05668 200,78.316 200,78 c 0,-1.21848 -1.1522,-1.93412 -6.9922,-7.67188 -5.424,-5.32408 -6.30592,-6.05072 -8.58592,-7.08592 -3.48,-1.58248 -8.60844,-1.78804 -12.64844,-0.60156 -1.504,0.4424 -2.88632,1.60064 -3.07032,1.53904 L 154.57032,46 Z"
       style="opacity:0.2;fill:#000000;stroke-width:8.00008"
       id="path3094" />
    <path
       d="m 101.42968,44 -14.1328,18.17968 c -0.188,0.064 -1.57172,-1.09664 -3.07812,-1.53904 -4.0384,-1.18648 -9.16524,-0.98092 -12.64844,0.60156 -2.2784,1.0352 -3.15972,1.76184 -8.57812,7.08592 C 57.1514,74.06588 56,74.78152 56,76 c 0,0.316 2.10924,4.05668 3.14844,6.46876 l 1.8828,4.3906 -2.42188,6.64844 c -1.3312,3.65368 -2.48088,6.84256 -2.56248,7.09376 -0.2064,0.6408 18.70732,69.67156 19.69532,72.01564 1.7936,4.25608 4.6128,8.07504 8.2656,11.20312 3.2984,2.824 36.76616,25.67136 40.07812,27.35936 0.984,0.504 2.56208,0.78824 3.91408,0.82032 1.352,-0.032 2.93008,-0.3164 3.91408,-0.82032 3.31196,-1.688 36.78212,-24.53536 40.07812,-27.35936 3.656,-3.12808 6.4736,-6.94704 8.2656,-11.20312 0.992,-2.34408 19.90332,-71.37484 19.69532,-72.01564 -0.08,-0.2512 -1.23432,-3.44008 -2.57032,-7.09376 l -2.41404,-6.64844 1.8828,-4.3906 C 197.89156,80.05668 200,76.316 200,76 c 0,-1.21848 -1.1522,-1.93412 -6.9922,-7.67188 -5.424,-5.32408 -6.30592,-6.05072 -8.58592,-7.08592 -3.48,-1.58248 -8.60844,-1.78804 -12.64844,-0.60156 -1.504,0.4424 -2.88632,1.60064 -3.07032,1.53904 L 154.57032,44 Z"
       style="fill:#ee5132;stroke-width:8.00008"
       id="path3122"
       sodipodi:nodetypes="cccscsccccsccccccccccscccccc" />
    <path
       d="m 147.30596,160.60204 c 3.44808,-2.51204 3.99208,-3.15208 3.42408,-4.04008 -0.448,-0.71204 -11.55228,-6.28016 -16.8644,-8.4562 -5.57612,-2.29608 -6.16816,-2.29608 -11.58428,-0.032 -4.85612,2.00804 -15.78276,7.52016 -16.6996,8.4242 -0.9472,0.928 -0.4704,1.78404 1.91608,3.43208 6.90336,3.20808 12.50348,10.07224 20.49568,10.07224 8.00816,0 12.70428,-5.96016 19.31244,-9.40024 z M 108.56184,149.7618 c 6.66336,-3.19208 7.6634,-3.85608 12.75152,-8.4562 4.28808,-3.86408 5.08012,-5.01612 4.47208,-6.48016 -0.208,-0.496 -3.42408,-3.52808 -7.15216,-6.72816 -8.8114,-7.57616 -8.4426,-6.51216 -5.08812,-14.72836 1.99204,-4.88172 2.50408,-6.51536 2.50408,-7.86816 -0.016,-2.04408 -0.76004,-3.57928 -2.25608,-4.63932 -0.6,-0.4328 -5.92572,-2.61848 -11.82508,-4.86492 -5.89932,-2.24644 -10.69224,-4.23128 -10.65064,-4.41372 0.0944,-0.4168 6.60016,-1.1368 11.32268,-1.2576 l 3.57208,-0.0904 6.56496,2.34004 c 5.73612,2.04004 6.63216,2.45764 7.06416,3.28728 0.272,0.5232 0.488,1.22484 0.48,1.56004 0,0.336 -1.06404,5.18572 -2.36004,10.77784 -2.26408,9.79304 -2.32808,10.19304 -1.73604,10.79308 0.936,0.944 10.09624,3.15204 12.95228,2.92804 3.26408,-0.248 9.93624,-2.28804 10.61628,-2.96804 0.544,-0.55204 0.44,-1.17604 -1.77604,-10.75548 -1.29604,-5.59212 -2.36008,-10.44264 -2.36808,-10.77784 0,-0.336 0.216,-1.04004 0.488,-1.56644 0.43204,-0.82804 1.28004,-1.23604 6.38416,-3.05448 8.2242,-2.93528 8.0562,-2.91128 15.52836,-2.23444 3.48812,0.3176 6.48016,0.708 6.65616,0.8712 0.176,0.1808 -0.024,0.42644 -0.512,0.61364 -0.456,0.1816 -5.26412,2.01604 -10.68824,4.09128 -5.43212,2.07684 -10.44024,4.14972 -11.13628,4.60892 -1.63204,1.0792 -2.43204,2.62084 -2.44004,4.73692 -0.008,1.3392 0.504,2.96004 2.44804,7.68576 1.34404,3.29288 2.44808,6.30096 2.44808,6.67696 0,1.52804 -1.11204,2.76008 -7.3042,8.0722 -3.56008,3.05608 -6.72016,6.00012 -7.02416,6.55216 -0.296,0.544 -0.472,1.38404 -0.384,1.85604 0.16,0.816 4.42412,5.01612 8.7602,8.6402 1.82404,1.52004 12.86432,8.5682 14.63236,8.8482 1.48004,0.24 3.06408,-2.00804 5.65612,-4.20008 2.54408,-2.15208 4.05612,-4.29612 5.08012,-7.2162 0.96804,-2.73604 0.72804,-4.58408 -1.18404,-9.0162 -1.456,-3.38408 -1.84004,-5.24812 -1.352,-6.51216 0.112,-0.304 4.05608,-4.09608 8.7602,-8.4562 10.24824,-9.4978 12.69628,-11.19864 13.25632,-12.89548 0.624,-1.88404 0.184,-4.36492 -1.21604,-6.86096 -3.35208,-5.96896 -17.2644,-24.659 -18.44844,-24.659 -6.08816,0.99124 -11.17628,3.18888 -17.5924,4.19848 -0.50404,8e-4 -2.64808,-0.5352 -4.76812,-1.1912 -9.03224,-2.79688 -11.96028,-3.00808 -13.71232,-3.00808 -1.74404,0 -4.68012,0.2112 -13.71232,3.00808 -2.11208,0.656 -4.28252,1.1912 -4.81452,1.1912 C 103.13932,77.26888 98.4544,74.76 91.91264,74 c -1.02,0.6896 -10.06904,13.34992 -13.81552,18.88124 -4.40568,6.50496 -5.65132,7.3418 -6.00972,9.81784 -0.50084,3.46648 0.7736,4.04968 13.93632,16.222 4.42728,4.08808 8.1402,7.67216 8.2506,7.96016 0.4936,1.28004 0.1032,3.21608 -1.33204,6.60816 -1.97204,4.64812 -2.14884,5.94416 -1.19684,8.7522 1.03444,3.05608 2.78888,5.52016 5.43852,7.6562 2.46408,1.98404 3.41768,3.96808 4.87132,4.00008 0.52004,0.016 3.44808,-2.67204 6.50656,-4.13608 z"
       style="opacity:0.2;fill:#000000;stroke-width:8.0002"
       id="path3206" />
    <path
       d="m 147.30596,158.60204 c 3.44808,-2.51204 3.99208,-3.15208 3.42408,-4.04008 -0.448,-0.71204 -11.55228,-6.28016 -16.8644,-8.4562 -5.57612,-2.29608 -6.16816,-2.29608 -11.58428,-0.032 -4.85612,2.00804 -15.78276,7.52016 -16.6996,8.4242 -0.9472,0.928 -0.4704,1.78404 1.91608,3.43208 6.90336,3.20808 12.50348,10.07224 20.49568,10.07224 8.00816,0 12.70428,-5.96016 19.31244,-9.40024 z M 108.56184,147.7618 c 6.66336,-3.19208 7.6634,-3.85608 12.75152,-8.4562 4.28808,-3.86408 5.08012,-5.01612 4.47208,-6.48016 -0.208,-0.496 -3.42408,-3.52808 -7.15216,-6.72816 -8.8114,-7.57616 -8.4426,-6.51216 -5.08812,-14.72836 1.99204,-4.88172 2.50408,-6.51536 2.50408,-7.86816 -0.016,-2.04408 -0.76004,-3.57928 -2.25608,-4.63932 -0.6,-0.4328 -5.92572,-2.61848 -11.82508,-4.86492 -5.89932,-2.24644 -10.69224,-4.23128 -10.65064,-4.41372 0.0944,-0.4168 6.60016,-1.1368 11.32268,-1.2576 l 3.57208,-0.0904 6.56496,2.34004 c 5.73612,2.04004 6.63216,2.45764 7.06416,3.28728 0.272,0.5232 0.488,1.22484 0.48,1.56004 0,0.336 -1.06404,5.18572 -2.36004,10.77784 -2.26408,9.79304 -2.32808,10.19304 -1.73604,10.79308 0.936,0.944 10.09624,3.15204 12.95228,2.92804 3.26408,-0.248 9.93624,-2.28804 10.61628,-2.96804 0.544,-0.55204 0.44,-1.17604 -1.77604,-10.75548 -1.29604,-5.59212 -2.36008,-10.44264 -2.36808,-10.77784 0,-0.336 0.216,-1.04004 0.488,-1.56644 0.43204,-0.82804 1.28004,-1.23604 6.38416,-3.05448 8.2242,-2.93528 8.0562,-2.91128 15.52836,-2.23444 3.48812,0.3176 6.48016,0.708 6.65616,0.8712 0.176,0.1808 -0.024,0.42644 -0.512,0.61364 -0.456,0.1816 -5.26412,2.01604 -10.68824,4.09128 -5.43212,2.07684 -10.44024,4.14972 -11.13628,4.60892 -1.63204,1.0792 -2.43204,2.62084 -2.44004,4.73692 -0.008,1.3392 0.504,2.96004 2.44804,7.68576 1.34404,3.29288 2.44808,6.30096 2.44808,6.67696 0,1.52804 -1.11204,2.76008 -7.3042,8.0722 -3.56008,3.05608 -6.72016,6.00012 -7.02416,6.55216 -0.296,0.544 -0.472,1.38404 -0.384,1.85604 0.16,0.816 4.42412,5.01612 8.7602,8.6402 1.82404,1.52004 12.86432,8.5682 14.63236,8.8482 1.48004,0.24 3.06408,-2.00804 5.65612,-4.20008 2.54408,-2.15208 4.05612,-4.29612 5.08012,-7.2162 0.96804,-2.73604 0.72804,-4.58408 -1.18404,-9.0162 -1.456,-3.38408 -1.84004,-5.24812 -1.352,-6.51216 0.112,-0.304 4.05608,-4.09608 8.7602,-8.4562 10.24824,-9.4978 12.69628,-11.19864 13.25632,-12.89548 0.624,-1.88404 0.184,-4.36492 -1.21604,-6.86096 -3.35208,-5.96896 -17.2644,-24.659 -18.44844,-24.659 -6.08816,0.99124 -11.17628,3.18888 -17.5924,4.19848 -0.50404,8e-4 -2.64808,-0.5352 -4.76812,-1.1912 -9.03224,-2.79688 -11.96028,-3.00808 -13.71232,-3.00808 -1.74404,0 -4.68012,0.2112 -13.71232,3.00808 -2.11208,0.656 -4.28252,1.1912 -4.81452,1.1912 C 103.13932,75.26888 98.4544,72.76 91.91264,72 c -1.02,0.6896 -10.06904,13.34992 -13.81552,18.88124 -4.40568,6.50496 -5.65132,7.3418 -6.00972,9.81784 -0.50084,3.46648 0.7736,4.04968 13.93632,16.222 4.42728,4.08808 8.1402,7.67216 8.2506,7.96016 0.4936,1.28004 0.1032,3.21608 -1.33204,6.60816 -1.97204,4.64812 -2.14884,5.94416 -1.19684,8.7522 1.03444,3.05608 2.78888,5.52016 5.43852,7.6562 2.46408,1.98404 3.41768,3.96808 4.87132,4.00008 0.52004,0.016 3.44808,-2.67204 6.50656,-4.13608 z"
       style="fill:#ffffff;stroke-width:8.0002"
       id="path3234" />
    <path
       id="path3150"
       style="opacity:0.1;fill:#ffffff;stroke-width:8.00008"
       d="m 101.42968,44 -14.1328,18.17968 c -0.188,0.064 -1.57172,-1.09664 -3.07812,-1.53904 -4.0384,-1.18648 -9.16524,-0.98092 -12.64844,0.60156 -2.2784,1.0352 -3.15972,1.76184 -8.57812,7.08592 C 57.1514,74.06588 56,74.78152 56,76 c 0,0.058 0.3148,0.63848 0.43752,0.89844 0.68464,-0.98788 2.40564,-2.49448 6.55468,-6.57032 5.4184,-5.32408 6.29972,-6.05072 8.57812,-7.08592 3.4832,-1.58248 8.61004,-1.78804 12.64844,-0.60156 1.5064,0.4424 2.89012,1.60304 3.07812,1.53904 L 101.42968,46 h 53.14064 l 14.1328,18.17968 c 0.184,0.0616 1.56632,-1.09664 3.07032,-1.53904 4.04,-1.18648 9.16844,-0.98092 12.64844,0.60156 2.28,1.0352 3.16192,1.76184 8.58592,7.08592 4.14848,4.07584 5.86988,5.58244 6.55468,6.57032 C 199.68524,76.63848 200,76.05808 200,76 c 0,-1.21848 -1.1522,-1.93412 -6.9922,-7.67188 -5.424,-5.32408 -6.30592,-6.05072 -8.58592,-7.08592 -3.48,-1.58248 -8.60844,-1.78804 -12.64844,-0.60156 -1.504,0.4424 -2.88632,1.60064 -3.07032,1.53904 L 154.57032,44 Z M 60.64064,87.93752 58.60936,93.5078 c -1.3312,3.65368 -2.48088,6.84256 -2.56248,7.09376 -0.008,0.032 0.216,0.88464 0.2892,1.21092 0.2744,-0.7776 1.09056,-3.05808 2.27344,-6.30468 l 2.42188,-6.64844 z m 134.71872,0.008 -0.3904,0.91404 2.41404,6.64844 c 1.189,3.2516 2.01708,5.5402 2.28908,6.31252 0.0736,-0.3296 0.2912,-1.18808 0.2812,-1.21876 -0.08,-0.2512 -1.23432,-3.44008 -2.57032,-7.09376 z" />
  </g>
  <path
     id="path1040"
     style="opacity:0.2;fill:#ffffff;stroke-width:16;stroke-linecap:square"
     d="M 64,16 C 37.408052,16 16,37.408054 16,64 v 2 C 16,39.408026 37.408026,18 64,18 h 128 c 26.59198,0 48,21.408026 48,48 V 64 C 240,37.408054 218.59194,16 192,16 Z" />
</svg>
