<?xml version="1.0" encoding="UTF-8" standalone="no"?>
<!-- Created with Inkscape (http://www.inkscape.org/) -->

<svg
   width="256"
   height="256"
   viewBox="0 0 256 256"
   version="1.1"
   id="svg5"
   inkscape:version="1.3.2 (091e20ef0f, 2023-11-25, custom)"
   sodipodi:docname="cities-skylines.svg"
   xmlns:inkscape="http://www.inkscape.org/namespaces/inkscape"
   xmlns:sodipodi="http://sodipodi.sourceforge.net/DTD/sodipodi-0.dtd"
   xmlns="http://www.w3.org/2000/svg"
   xmlns:svg="http://www.w3.org/2000/svg">
  <sodipodi:namedview
     id="namedview7"
     pagecolor="#ffffff"
     bordercolor="#000000"
     borderopacity="0.25"
     inkscape:showpageshadow="2"
     inkscape:pageopacity="0.0"
     inkscape:pagecheckerboard="0"
     inkscape:deskcolor="#d1d1d1"
     inkscape:document-units="px"
     showgrid="false"
     inkscape:zoom="3.1914062"
     inkscape:cx="127.84333"
     inkscape:cy="128"
     inkscape:window-width="1920"
     inkscape:window-height="1020"
     inkscape:window-x="0"
     inkscape:window-y="31"
     inkscape:window-maximized="1"
     inkscape:current-layer="svg5" />
  <defs
     id="defs2" />
  <rect
     style="opacity:0.2;fill:#000000;stroke-width:16;stroke-linecap:square"
     id="rect234"
     width="224"
     height="224"
     x="16"
     y="18"
     ry="48" />
  <rect
     style="fill:#dbf3ff;fill-opacity:1;stroke-width:16;stroke-linecap:square"
     id="rect396"
     width="224"
     height="224"
     x="16"
     y="16"
     ry="48" />
  <path
     style="opacity:0.2;stroke-width:8"
     d="M 56,66 A 16.0016,16.0016 0 0 0 40,82 v 96 a 16.0016,16.0016 0 0 0 16,16 h 48 a 16.0016,16.0016 0 0 0 16,-16 V 138 H 88 v 24 H 72 V 98 h 16 v 24 h 32 V 82 A 16.0016,16.0016 0 0 0 104,66 Z m 96,0 a 16.0016,16.0016 0 0 0 -16,16 v 48 a 16.0016,16.0016 0 0 0 16,16 h 32 v 16 h -16 v -8 h -32 v 24 a 16.0016,16.0016 0 0 0 16,16 h 48 a 16.0016,16.0016 0 0 0 16,-16 V 130 A 16.0016,16.0016 0 0 0 200,114 H 168 V 98 h 16 v 8 h 32 V 82 A 16.0016,16.0016 0 0 0 200,66 Z"
     id="path1" />
  <path
     id="path2"
     style="color:#000000;fill:#43c3ff;stroke-width:16;stroke-linejoin:round;-inkscape-stroke:none"
     d="M 56,64 A 16.0016,16.0016 0 0 0 40,80 v 96 a 16.0016,16.0016 0 0 0 16,16 h 48 a 16.0016,16.0016 0 0 0 16,-16 V 136 H 88 v 24 H 72 V 96 h 16 v 24 h 32 V 80 A 16.0016,16.0016 0 0 0 104,64 Z" />
  <path
     style="color:#000000;fill:#43c3ff;stroke-width:16;stroke-linejoin:round;-inkscape-stroke:none"
     d="m 152,64 a 16.0016,16.0016 0 0 0 -16,16 v 48 a 16.0016,16.0016 0 0 0 16,16 h 32 v 16 h -16 v -8 h -32 v 24 a 16.0016,16.0016 0 0 0 16,16 h 48 a 16.0016,16.0016 0 0 0 16,-16 V 128 A 16.0016,16.0016 0 0 0 200,112 H 168 V 96 h 16 v 8 h 32 V 80 A 16.0016,16.0016 0 0 0 200,64 Z"
     id="path3" />
  <path
     style="fill:#4572ab;stroke-width:8"
     d="m 96,144 v 36 h -4 v -4 L 86.562504,176.12504 84,177.95317 V 184 h -4 v -16 h -8 v 8 h -4 l -4,2.20314 V 160.14062 L 59.343752,154.82813 56,160.14062 v 31.32814 c 1.30592,0.34256 2.649924,0.52624 4,0.5312 h 44 A 16.0016,16.0016 0 0 0 120,176 v -12 l -4,-4 -4,4 v -4 h -8 v -16 z m 116,4 -4,4 v 16 21.84376 a 16.0016,16.0016 0 0 0 7.9375,-12.56251 c 0.008,-0.43808 0.0616,-0.83536 0.0624,-1.28125 v -24 z m -172,4 v 24 c 0.0022,1.39424 0.19868,2.76499 0.54688,4.07813 a 16.0016,16.0016 0 0 0 0.04688,0.2032 c 0.36144,1.29472 0.880464,2.53155 1.54688,3.6875 0.0212,0.0368 0.04096,0.0736 0.06256,0.1088 0.68736,1.17072 1.516352,2.25196 2.484376,3.21872 0.986624,0.98528 2.117088,1.85078 3.359376,2.56252 L 48.390624,152 Z m 96,8 v 16 c 1.1e-4,1.10448 0.1152,2.17723 0.32816,3.21875 0.1944,0.95008 0.48896,1.86943 0.84368,2.75 a 16.0016,16.0016 0 0 0 0.20304,0.5 c 0.35488,0.80096 0.77408,1.57153 1.25008,2.29689 a 16.0016,16.0016 0 0 0 0.17184,0.25008 16.0016,16.0016 0 0 0 0,0.016 c 0.53392,0.77984 1.13664,1.49984 1.79688,2.17186 0.048,0.0496 0.0912,0.1072 0.1408,0.1568 0.64272,0.63744 1.35072,1.19696 2.09374,1.71876 a 16.0016,16.0016 0 0 0 0.34384,0.25008 c 0.70944,0.47056 1.4672,0.88016 2.25,1.2344 a 16.0016,16.0016 0 0 0 0.60944,0.2656 c 0.82016,0.3304 1.68165,0.58928 2.56252,0.78128 a 16.0016,16.0016 0 0 0 0.328,0.0784 c 0.99889,0.194 2.02176,0.31104 3.07798,0.31112 h 40 V 184 L 186.90626,180.65626 184,180 v -12 h -8 v 20 l -8,-4 v -4 l -2.0625,-4 H 160 v 8 h -8 v -16 h -8 v -8 z"
     id="path4" />
  <path
     style="fill:#4572ab;stroke-width:8"
     d="m 192,168 v 24 h 8 v -24 z"
     id="path5" />
  <path
     id="path6"
     style="opacity:0.2;fill:#ffffff;stroke-width:8"
     d="m 56,64 c -8.836164,8.8e-4 -15.999116,7.163832 -16,16 v 2 c 8.84e-4,-8.836168 7.163836,-15.99912 16,-16 h 48 c 8.83616,8.8e-4 15.99912,7.163832 16,16 v -2 c -8.8e-4,-8.836168 -7.16384,-15.99912 -16,-16 z m 96,0 c -8.83616,8.8e-4 -15.99912,7.163832 -16,16 v 2 c 8.8e-4,-8.836168 7.16384,-15.99912 16,-16 h 48 c 8.83618,8.8e-4 15.99912,7.163832 16,16 v -2 c -8.8e-4,-8.836168 -7.16382,-15.99912 -16,-16 z m 16,48 v 2 h 32 c 8.83618,8.8e-4 15.99912,7.16384 16,16 v -2 c -8.8e-4,-8.83616 -7.16382,-15.99912 -16,-16 z m -80,24 v 2 h 32 v -2 z m 48,16 v 2 h 32 v -2 z m -64,8 v 2 h 16 v -2 z m 96,0 v 2 h 16 v -2 z" />
  <path
     id="path1040"
     style="opacity:0.2;fill:#ffffff;stroke-width:16;stroke-linecap:square"
     d="M 64,16 C 37.40808,16 16,37.40808 16,64 v 2 C 16,39.408084 37.40808,18 64,18 h 128 c 26.59192,0 48,21.408084 48,48 V 64 C 240,37.40808 218.59192,16 192,16 Z" />
</svg>
