<?xml version="1.0" encoding="UTF-8" standalone="no"?>
<!-- Created with Inkscape (http://www.inkscape.org/) -->

<svg
   width="256"
   height="256"
   viewBox="0 0 256 256"
   version="1.1"
   id="svg5"
   inkscape:version="1.4.3 (0d15f75042, 2025-12-25)"
   sodipodi:docname="CMakeSetup.svg"
   xmlns:inkscape="http://www.inkscape.org/namespaces/inkscape"
   xmlns:sodipodi="http://sodipodi.sourceforge.net/DTD/sodipodi-0.dtd"
   xmlns="http://www.w3.org/2000/svg"
   xmlns:svg="http://www.w3.org/2000/svg">
  <sodipodi:namedview
     id="namedview7"
     pagecolor="#ffffff"
     bordercolor="#000000"
     borderopacity="0.25"
     inkscape:showpageshadow="2"
     inkscape:pageopacity="0.0"
     inkscape:pagecheckerboard="0"
     inkscape:deskcolor="#d1d1d1"
     inkscape:document-units="px"
     showgrid="false"
     inkscape:zoom="3.1523438"
     inkscape:cx="127.84139"
     inkscape:cy="128"
     inkscape:window-width="1920"
     inkscape:window-height="1010"
     inkscape:window-x="0"
     inkscape:window-y="0"
     inkscape:window-maximized="1"
     inkscape:current-layer="svg5" />
  <defs
     id="defs2" />
  <rect
     style="opacity:0.2;fill:#000000;stroke-width:16;stroke-linecap:square"
     id="rect234"
     width="224"
     height="224"
     x="16"
     y="18"
     ry="48" />
  <rect
     style="fill:#4d4d4d;fill-opacity:1;stroke-width:16;stroke-linecap:square"
     id="rect396"
     width="224"
     height="224"
     x="16"
     y="16"
     ry="48" />
  <path
     id="path1040"
     style="opacity:0.1;fill:#ffffff;stroke-width:16;stroke-linecap:square"
     d="M 64,16 C 37.408026,16 16,37.408028 16,64 v 2 C 16,39.408 37.408,18 64,18 h 128 c 26.592,0 48,21.408 48,48 V 64 C 240,37.408028 218.59198,16 192,16 Z" />
  <path
     fill="#ffffff"
     d="M 162.328,156.8 A 36.2752,41.34 0 0 1 126.048,198.144 36.2752,41.34 0 0 1 89.7728,156.8 36.2752,41.34 0 0 1 126.048,115.456 36.2752,41.34 0 0 1 162.328,156.8 Z"
     id="path1"
     style="stroke-width:8" />
  <path
     style="opacity:0.2;fill:#000000;stroke-width:8"
     d="M 128,54 48,206 h 160 z m 7.816,76.032 5.024,48.936 -42.012,-16.92 z"
     id="path2" />
  <path
     style="fill:#4a86d8;stroke-width:8"
     d="m 128,52 7.84,76 L 136,92 Z M 48,204 80,188 98.7896,160.056 Z m 0,0 80,-152 7.84,76 z"
     id="path3" />
  <path
     style="fill:#dd3c3d;stroke-width:8"
     d="m 208,204 -48,-8 -19.12,-18.8 z M 128,52 208,204 140.88,177.2 Z"
     id="path4" />
  <path
     style="fill:#339c33;stroke-width:8"
     d="M 208,204 H 48 l 50.72,-44 z"
     id="path5" />
  <path
     id="path6"
     style="opacity:0.2;fill:#ffffff;stroke-width:8"
     d="M 128,52 48,204 h 1.054688 L 128,54 206.94532,204 H 208 Z m -27.59375,108.67969 -1.578126,1.36719 42.015626,16.92187 -0.21094,-2.08594 z" />
  <path
     id="path2-9"
     style="opacity:0.2;fill:#000000;stroke-width:8"
     d="M 128,52 48,204 h 1.054688 L 128,54 206.94532,204 H 208 Z m -27.59375,108.67969 -1.578126,1.36719 42.015626,16.92187 -0.21094,-2.08594 z" />
</svg>
