<?xml version="1.0" encoding="UTF-8" standalone="no"?>
<!-- Created with Inkscape (http://www.inkscape.org/) -->

<svg
   width="256"
   height="256"
   viewBox="0 0 256 256"
   version="1.1"
   id="svg5"
   inkscape:version="1.2.2 (1:1.2.2+202305151914+b0a8486541)"
   sodipodi:docname="code-oss.svg"
   xmlns:inkscape="http://www.inkscape.org/namespaces/inkscape"
   xmlns:sodipodi="http://sodipodi.sourceforge.net/DTD/sodipodi-0.dtd"
   xmlns="http://www.w3.org/2000/svg"
   xmlns:svg="http://www.w3.org/2000/svg">
  <sodipodi:namedview
     id="namedview7"
     pagecolor="#ffffff"
     bordercolor="#000000"
     borderopacity="0.25"
     inkscape:showpageshadow="2"
     inkscape:pageopacity="0.0"
     inkscape:pagecheckerboard="0"
     inkscape:deskcolor="#d1d1d1"
     inkscape:document-units="px"
     showgrid="false"
     inkscape:zoom="3.1484375"
     inkscape:cx="128"
     inkscape:cy="128"
     inkscape:window-width="1920"
     inkscape:window-height="1008"
     inkscape:window-x="0"
     inkscape:window-y="0"
     inkscape:window-maximized="1"
     inkscape:current-layer="svg5" />
  <defs
     id="defs2" />
  <rect
     style="opacity:0.2;fill:#000000;stroke-width:16;stroke-linecap:square"
     id="rect234"
     width="224"
     height="224"
     x="16"
     y="18"
     ry="48" />
  <rect
     style="fill:#efefef;fill-opacity:1;stroke-width:16;stroke-linecap:square"
     id="rect396"
     width="224"
     height="224"
     x="16"
     y="16"
     ry="48" />
  <rect
     style="opacity:0.2;fill:#000000;fill-opacity:1;stroke-width:8;stroke-linecap:round;stroke-linejoin:round"
     id="rect872"
     width="160"
     height="144"
     x="48"
     y="58"
     ry="8" />
  <rect
     style="fill:#167abf;fill-opacity:1;stroke-width:8;stroke-linecap:round;stroke-linejoin:round"
     id="rect410"
     width="160"
     height="144"
     x="48"
     y="56"
     ry="8" />
  <path
     d="m 56,56.000002 h 44 V 200 H 56 c -4.432,0 -8,-3.568 -8,-7.99998 V 64.000002 c 0,-4.432 3.568,-8 8,-8 z"
     style="opacity:0.2;fill:#000000;stroke-width:8;stroke-linecap:round;stroke-linejoin:round"
     id="path803" />
  <path
     id="path1073"
     style="opacity:0.2;fill:#000000;fill-opacity:1;stroke-width:8;stroke-linecap:round;stroke-linejoin:round"
     d="m 136,74 c -4.43199,0 -8,3.568012 -8,8 0,4.431996 3.56801,8 8,8 h 32 c 4.43199,0 8,-3.568004 8,-8 0,-4.431988 -3.56801,-8 -8,-8 z m 8,24 c -4.432,0 -8,3.568 -8,8 0,4.43199 3.568,8 8,8 h 40 c 4.43198,0 8,-3.56801 8,-8 0,-4.432 -3.56802,-8 -8,-8 z m 0,24 c -4.432,0 -8,3.56802 -8,8 0,4.43199 3.568,8 8,8 h 40 c 4.43198,0 8,-3.56801 8,-8 0,-4.43198 -3.56802,-8 -8,-8 z m 0,24 c -4.432,0 -8,3.56802 -8,8 0,4.43199 3.568,8 8,8 h 40 c 4.43198,0 8,-3.56801 8,-8 0,-4.43198 -3.56802,-8 -8,-8 z m -8,24 c -4.43199,0 -8,3.56801 -8,8 0,4.43199 3.56801,8 8,8 h 32 c 4.43199,0 8,-3.56801 8,-8 0,-4.43199 -3.56801,-8 -8,-8 z" />
  <path
     id="path1035"
     style="fill:#ffffff;fill-opacity:1;stroke-width:8;stroke-linecap:round;stroke-linejoin:round"
     d="m 136,72 c -4.43199,0 -8,3.568012 -8,8 0,4.431996 3.56801,8 8,8 h 32 c 4.43199,0 8,-3.568004 8,-8 0,-4.431988 -3.56801,-8 -8,-8 z m 8,24 c -4.432,0 -8,3.568004 -8,8 0,4.43199 3.568,8 8,8 h 40 c 4.43198,0 8,-3.56801 8,-8 0,-4.431996 -3.56802,-8 -8,-8 z m 0,24 c -4.432,0 -8,3.56802 -8,8 0,4.43199 3.568,8 8,8 h 40 c 4.43198,0 8,-3.56801 8,-8 0,-4.43198 -3.56802,-8 -8,-8 z m 0,24 c -4.432,0 -8,3.56802 -8,8 0,4.43199 3.568,8 8,8 h 40 c 4.43198,0 8,-3.56801 8,-8 0,-4.43198 -3.56802,-8 -8,-8 z m -8,24 c -4.43199,0 -8,3.56801 -8,8 0,4.43199 3.56801,8 8,8 h 32 c 4.43199,0 8,-3.56801 8,-8 0,-4.43199 -3.56801,-8 -8,-8 z" />
  <path
     id="path969"
     style="opacity:0.1;fill:#ffffff;fill-opacity:1;stroke-width:8;stroke-linecap:round;stroke-linejoin:round"
     d="m 56,56.000002 c -4.431988,0 -8,3.56802 -8,8 v 2 c 0,-4.431996 3.568004,-8 8,-8 h 144 c 4.432,0 8,3.568004 8,8 v -2 c 0,-4.43198 -3.56802,-8 -8,-8 z" />
  <rect
     style="opacity:0.2;fill:#000000;fill-opacity:1;stroke-width:8;stroke-linecap:round;stroke-linejoin:round"
     id="rect874"
     width="16"
     height="160"
     x="95.999992"
     y="50"
     ry="8" />
  <rect
     style="fill:#ffffff;fill-opacity:1;stroke-width:8;stroke-linecap:round;stroke-linejoin:round"
     id="rect876"
     width="16"
     height="160"
     x="95.999992"
     y="48"
     ry="8" />
  <path
     id="path1040"
     style="opacity:0.2;fill:#ffffff;stroke-width:16;stroke-linecap:square"
     d="M 64,16 C 37.408052,16 16,37.408054 16,64 v 2 C 16,39.408026 37.408026,18 64,18 h 128 c 26.59198,0 48,21.408026 48,48 V 64 C 240,37.408054 218.59194,16 192,16 Z" />
</svg>
