<?xml version="1.0" encoding="UTF-8" standalone="no"?>
<!-- Created with Inkscape (http://www.inkscape.org/) -->

<svg
   width="256"
   height="256"
   viewBox="0 0 256 256"
   version="1.1"
   id="svg5"
   inkscape:version="1.3.2 (091e20ef0f, 2023-11-25, custom)"
   sodipodi:docname="com.github.fabiocolacio.marker.svg"
   xmlns:inkscape="http://www.inkscape.org/namespaces/inkscape"
   xmlns:sodipodi="http://sodipodi.sourceforge.net/DTD/sodipodi-0.dtd"
   xmlns="http://www.w3.org/2000/svg"
   xmlns:svg="http://www.w3.org/2000/svg">
  <sodipodi:namedview
     id="namedview7"
     pagecolor="#ffffff"
     bordercolor="#000000"
     borderopacity="0.25"
     inkscape:showpageshadow="2"
     inkscape:pageopacity="0.0"
     inkscape:pagecheckerboard="0"
     inkscape:deskcolor="#d1d1d1"
     inkscape:document-units="px"
     showgrid="false"
     inkscape:zoom="3.2109375"
     inkscape:cx="128"
     inkscape:cy="128"
     inkscape:window-width="1920"
     inkscape:window-height="1008"
     inkscape:window-x="0"
     inkscape:window-y="0"
     inkscape:window-maximized="1"
     inkscape:current-layer="svg5" />
  <defs
     id="defs2" />
  <rect
     style="opacity:0.2;fill:#000000;stroke-width:16;stroke-linecap:square"
     id="rect234"
     width="224"
     height="224"
     x="16"
     y="18"
     ry="48" />
  <rect
     style="fill:#e4e4e4;fill-opacity:1;stroke-width:16;stroke-linecap:square"
     id="rect396"
     width="224"
     height="224"
     x="16"
     y="16"
     ry="48" />
  <path
     id="path2"
     style="opacity:0.15;fill:#000000;stroke-width:8"
     d="m 48,40 v 96 H 208 V 40 Z m 0,112 0.0156,48 H 96 v -16 h 112 v -32 z" />
  <path
     id="path3"
     style="opacity:0.1;fill:#000000;stroke-width:8"
     d="m 64,58 v 8 h 104 v -8 z m 48,32 v 8 h 72 v -8 z m -48,16 v 8 h 40 v -8 z" />
  <rect
     style="fill:#8ff0a4;stroke-width:8.32664"
     width="104"
     height="8"
     x="64"
     y="56"
     id="rect3" />
  <rect
     style="fill:#8ff0a4;stroke-width:8.94424"
     width="40"
     height="8"
     x="64"
     y="104"
     id="rect4" />
  <rect
     style="fill:#8ff0a4;stroke-width:8"
     width="72"
     height="8"
     x="112"
     y="88"
     id="rect5" />
  <path
     style="opacity:0.1;stroke-width:8;fill:#000000"
     d="m 103.5,102.18884 -5.656248,16.96874 5.656248,5.67188 5.65625,28.28125 5.65625,5.65625 39.59375,39.59376 25.29688,25.29686 c 3.13389,3.1339 8.17859,3.1339 11.31249,0 l 22.625,-22.64062 c 3.13388,-3.1339 3.13388,-8.1786 0,-11.3125 L 188.34376,164.42321 148.75,124.82946 l -5.65625,-5.65625 v -0.016 l -28.28125,-5.65625 z"
     id="path5" />
  <path
     style="fill:#33d17a;stroke-width:8"
     d="m 143.09662,117.16525 -5.64062,5.64062 c -0.006,0.006 -0.0136,0.01 -0.02,0.016 l -22.625,22.62491 c -0.006,0.006 -0.01,0.0136 -0.016,0.0192 l -5.64063,5.64064 5.65625,5.65624 39.59766,39.59766 25.28906,25.28906 c 3.1339,3.1339 8.1786,3.1339 11.3125,0 l 22.62892,-22.6289 c 3.13388,-3.1339 3.13388,-8.1786 0,-11.3125 l -25.28904,-25.2891 -39.59765,-39.59766 z"
     id="path6" />
  <path
     style="fill:#33d17a;stroke-width:8"
     d="m 103.49686,100.19317 11.31371,11.31371 -11.31371,11.3137 -5.65686,-5.65685 z"
     id="path7" />
  <path
     style="fill:#3d3846;stroke-width:8"
     d="m 103.49686,122.82058 5.65685,28.28428 33.94112,-33.94113 -28.28426,-5.65685 z"
     id="path8" />
  <path
     id="path1040"
     style="opacity:0.2;fill:#ffffff;stroke-width:16;stroke-linecap:square"
     d="M 64,16 C 37.40808,16 16,37.40808 16,64 v 2 C 16,39.408084 37.40808,18 64,18 h 128 c 26.59192,0 48,21.408084 48,48 V 64 C 240,37.40808 218.59192,16 192,16 Z" />
</svg>
