<?xml version="1.0" encoding="UTF-8" standalone="no"?>
<!-- Created with Inkscape (http://www.inkscape.org/) -->

<svg
   width="256"
   height="256"
   viewBox="0 0 256 256"
   version="1.1"
   id="svg5"
   inkscape:version="1.3.2 (1:1.3.2+202404261509+091e20ef0f)"
   sodipodi:docname="cs-desktop.svg"
   xmlns:inkscape="http://www.inkscape.org/namespaces/inkscape"
   xmlns:sodipodi="http://sodipodi.sourceforge.net/DTD/sodipodi-0.dtd"
   xmlns="http://www.w3.org/2000/svg"
   xmlns:svg="http://www.w3.org/2000/svg">
  <sodipodi:namedview
     id="namedview7"
     pagecolor="#ffffff"
     bordercolor="#000000"
     borderopacity="0.25"
     inkscape:showpageshadow="2"
     inkscape:pageopacity="0.0"
     inkscape:pagecheckerboard="0"
     inkscape:deskcolor="#d1d1d1"
     inkscape:document-units="px"
     showgrid="false"
     inkscape:zoom="3.1210938"
     inkscape:cx="127.8398"
     inkscape:cy="128"
     inkscape:window-width="1920"
     inkscape:window-height="1006"
     inkscape:window-x="0"
     inkscape:window-y="0"
     inkscape:window-maximized="1"
     inkscape:current-layer="svg5" />
  <defs
     id="defs2" />
  <rect
     style="opacity:0.2;fill:#000000;stroke-width:16;stroke-linecap:square"
     id="rect234"
     width="224"
     height="224"
     x="16"
     y="18"
     ry="48" />
  <rect
     style="fill:#0d3c61;fill-opacity:1;stroke-width:16;stroke-linecap:square"
     id="rect396"
     width="224"
     height="192"
     x="16.000004"
     y="48"
     ry="48" />
  <path
     id="rect391"
     style="fill:#2196f3;fill-opacity:1;stroke-width:16;stroke-linecap:square"
     d="M 63.999999,16 C 37.408066,16 16,37.408066 16,63.999999 V 191.99999 H 240 V 63.999999 C 240,37.408066 218.59192,16 191.99999,16 Z" />
  <g
     id="g361"
     transform="matrix(3.9999765,0,0,3.9999765,2.801e-4,2.801e-4)" />
  <path
     id="path1040"
     style="opacity:0.2;fill:#ffffff;stroke-width:16;stroke-linecap:square"
     d="M 63.999999,16 C 37.408078,16 16,37.40808 16,63.999999 v 2 C 16,39.40809 37.408088,18 63.999999,18 H 192 c 26.5919,0 48,21.40809 48,47.999999 v -2 C 240,37.40808 218.59192,16 192,16 Z" />
</svg>
