<?xml version="1.0" encoding="UTF-8" standalone="no"?>
<!-- Created with Inkscape (http://www.inkscape.org/) -->

<svg
   width="256"
   height="256"
   viewBox="0 0 256 256"
   version="1.1"
   id="svg5"
   inkscape:version="1.3 (0e150ed6c4, 2023-07-21)"
   sodipodi:docname="cyberpunk-2077.svg"
   xmlns:inkscape="http://www.inkscape.org/namespaces/inkscape"
   xmlns:sodipodi="http://sodipodi.sourceforge.net/DTD/sodipodi-0.dtd"
   xmlns:xlink="http://www.w3.org/1999/xlink"
   xmlns="http://www.w3.org/2000/svg"
   xmlns:svg="http://www.w3.org/2000/svg">
  <sodipodi:namedview
     id="namedview7"
     pagecolor="#ffffff"
     bordercolor="#000000"
     borderopacity="0.25"
     inkscape:showpageshadow="2"
     inkscape:pageopacity="0.0"
     inkscape:pagecheckerboard="0"
     inkscape:deskcolor="#d1d1d1"
     inkscape:document-units="px"
     showgrid="false"
     inkscape:zoom="3.1132812"
     inkscape:cx="127.8394"
     inkscape:cy="128"
     inkscape:window-width="1850"
     inkscape:window-height="1011"
     inkscape:window-x="0"
     inkscape:window-y="0"
     inkscape:window-maximized="1"
     inkscape:current-layer="svg5" />
  <defs
     id="defs2">
    <linearGradient
       id="linearGradient891"
       x1="31.481001"
       x2="29.742001"
       y1="17.358999"
       y2="16.444"
       gradientTransform="matrix(5.7433656,0,0,5.6750588,-9.9983584,-7.1036072)"
       gradientUnits="userSpaceOnUse"
       xlink:href="#linearGradient905" />
    <linearGradient
       id="linearGradient905">
      <stop
         style="stop-color:#bc967a"
         offset="0"
         id="stop1" />
      <stop
         style="stop-color:#ac7f5c"
         offset="1"
         id="stop2" />
    </linearGradient>
    <linearGradient
       id="linearGradient899"
       x1="22.864"
       x2="24.858"
       y1="14.263"
       y2="15.577"
       gradientTransform="matrix(5.7433656,0,0,5.6750588,-9.9983584,-7.1036072)"
       gradientUnits="userSpaceOnUse"
       xlink:href="#linearGradient905" />
  </defs>
  <rect
     style="opacity:0.2;fill:#000000;stroke-width:16;stroke-linecap:square"
     id="rect234"
     width="224"
     height="224"
     x="16"
     y="18"
     ry="48" />
  <rect
     style="fill:#e4d811;fill-opacity:1;stroke-width:16;stroke-linecap:square"
     id="rect396"
     width="224"
     height="224"
     x="16"
     y="16"
     ry="48" />
  <path
     id="path3"
     style="opacity:0.1;fill:#000000;stroke-width:8"
     d="m 91.281248,18 -6.187496,38.328124 c -2.659272,0.591048 -4.840136,4.1007 -6.42188,7.078124 -0.35744,0.67288 -0.842696,2.782688 -1.234368,4.234376 h -0.0624 l -0.0152,0.25 c -0.0552,0.19824 -0.12288,0.52192 -0.17184,0.67184 0.044,-0.0072 0.12672,0.0216 0.17184,0.016 v 0.0784 c -0.27648,0.044 -0.7364,-0.0368 -0.937504,0.0472 -2.600064,1.084104 -5.20164,3.819888 -8.156248,7.031248 0,0 -3.361672,0.59768 -4.500004,1.734376 -0.709664,0.70864 -1.078124,2.812496 -1.078124,2.812496 -1.731848,0.909464 -2.698652,0.72704 -2.8125,3.5 L 58.968752,86.25 58.140624,91.984376 c -2.322016,4.205008 -3.67578,9.062104 -2.156248,15.828124 l -12.203128,38.98437 c -3.7523,0.33776 -8.754816,36.1584 7.5,41.65625 0,0 2.932952,3.08548 13.140624,-2.98436 5.281264,-5.6704 13.279864,-10.8048 20.078128,-18.35938 3.632648,-7.51229 3.247496,-1.35054 5.359376,2.82812 -1.807488,-3.49687 0.19992,4.33096 -1.781248,8.3125 -1.02852,9.17324 -2.214672,16.68532 -3.5,25.64062 -2.410048,4.70512 -0.928096,5.9197 0.843744,3.8125 0.22,3.4532 -2.76892,2.3672 -1.45312,5.1875 0.19312,7.2541 -9.18232,18.13204 -0.812504,22.875 3.275144,1.2488 1.573688,3.49422 0.4844,6.23438 h 97.796882 c -0.48448,-2.38142 -1.06637,-6.0566 -1.54688,-8.85938 4.50503,-8.54302 3.42189,-16.60178 1.42187,-25.82812 5.9697,1.23182 4.86812,9.96676 4.40626,16.10938 -2.43868,5.05352 -3.7215,10.52726 -4.18751,15.90624 0.92874,-3.53488 6.94377,-8.85834 10.78125,-4.14062 0.2816,1.9309 -1.37446,3.23768 -2.29688,5.09374 C 189.11852,241.9929 190.67188,242 190.67188,242 H 192 c 8.89516,0 17.1847,-2.4414 24.3125,-6.625 0.49416,-1.23632 1.2369,-2.49272 2.65626,-3.625 1.96642,-5.92572 2.03318,-12.89172 2.54686,-19.375 0.83404,-6.78842 -4.52176,-3.91344 -0.35936,-7.48438 -5.10368,-0.67144 3.6155,-1.1902 -1.5,-6.10938 7.1123,-3.86128 -2.49992,-6.5587 2.625,-9.59374 -2.2966,-9.9245 -1.88816,-5.69973 -2.84374,-16.75 3.65732,-2.37208 6.39626,-7.58848 3.45312,-12.98437 -4.69826,0.2916 -3.59266,-8.0181 -5.04688,-4.34375 -0.88298,-0.32248 -0.72472,-2.0683 -0.0472,-4.125 0.1188,-0.0392 0.1836,-0.11152 0.29688,-0.15624 0.0576,0.53568 0.21288,1.47648 0.53128,2.29687 l 0.40624,0.59376 c -0.65032,-2.67987 -0.83954,-3.01107 -0.90624,-2.90626 5.98508,-2.39095 4.46616,-12.20829 -0.32816,-14.23437 -1.9647,-0.47816 -3.08598,-2.16907 -4.125,-4.1875 -0.11,-0.1156 -0.1766,-0.26872 -0.29688,-0.59376 -0.1706,-0.34768 -0.37376,-0.69496 -0.54688,-1.0625 -2.50388,-3.24224 -2.56384,-4.10926 -0.90626,-1.8125 -1.96694,-3.95434 -4.81918,-8.28029 -12.23436,-10.14062 -0.1672,-1.01672 5.7232,2.98039 -0.0938,-0.875 0.34672,0.23232 -0.72272,-0.39568 -1.07814,-0.57808 0.0344,0.006 0.0728,0.0248 0,0.14064 -0.81194,0.46456 -0.24512,-0.0424 -0.016,-0.14064 -1.29278,-0.66872 -4.93928,-2.76798 -6.34374,-4.15626 -1.9148,-2.11032 -0.7736,0.2888 -2.09376,-4.5625 0.885,-8.27042 1.6663,-18.568756 -6.75,-23.296876 -2.52897,-0.47304 -5.35936,-3.125 -5.35936,-3.124992 -1.05406,-0.58248 -2.1531,-1.01852 -3.21876,-1.562504 0.2172,-2.110392 0.60056,-4.271784 1.10938,-6.875 0.63592,-3.253584 -1.00003,-3.346848 -0.2344,-13.421876 0.0838,-1.101732 -0.0792,-2.18214 -0.18752,-3.265624 0.0232,-0.08152 0.0552,-0.13672 0.0784,-0.21876 -0.0216,-0.1914 -0.098,-0.37196 -0.12504,-0.562504 -0.13544,-0.957588 -0.38312,-1.88098 -0.65624,-2.812492 -0.1786,-0.611192 -0.3442,-1.215632 -0.57812,-1.8125 -0.35,-0.891076 -0.7692,-1.741508 -1.23438,-2.593748 -0.3304,-0.607736 -0.67808,-1.1968 -1.06249,-1.781252 -0.51088,-0.77436 -1.04214,-1.52266 -1.64063,-2.25 -0.50688,-0.619956 -1.0587,-1.200144 -1.62445,-1.781292 -0.61578,-0.630492 -1.22879,-1.248552 -1.90626,-1.828124 -0.64699,-0.555664 -1.33364,-1.05844 -2.03125,-1.5625 -0.70096,-0.504932 -1.37914,-1.020536 -2.125,-1.468752 -0.93623,-0.56454 -1.925,-1.033872 -2.92187,-1.5 -0.57461,-0.26808 -1.12722,-0.563896 -1.71875,-0.796872 -1.15998,-0.457996 -2.3653,-0.781716 -3.57813,-1.093752 -0.5476,-0.14056 -1.0693,-0.34432 -1.625,-0.453124 C 150.91214,34.20114 149.12253,34 147.3125,34 132.23034,34 120,45.073472 120,58.734376 c 0,1.915652 0.2644,4.568952 0.67184,7.468752 0.13952,1.037432 0.2392,1.937552 0.43752,3.062496 0.0144,0.0784 0.032,0.15576 0.0472,0.2344 0.1192,0.6652 0.24976,1.342048 0.39064,2.031248 -0.0752,0.13424 -0.16112,0.1628 -0.2344,0.31248 -0.14248,0.75424 -0.23856,1.5114 -0.34376,2.265624 -11.75083,2.566832 -18.3397,10.72952 -23.265624,18.45312 -0.652,2.308656 -1.162928,3.827216 -1.687504,4.937504 -4.012344,1.959744 -4.837728,0.6976 -7.109376,4.09375 -0.8574,1.38707 -2.61604,2.83619 -4.265624,1.625 -2.950248,-1.58252 -6.815232,5.57665 -8.515624,8.20312 1.950128,1.32595 2.352608,3.45336 1.343752,5.35938 -2.45736,0.34352 -2.750848,0.4844 -3.42188,-0.57808 l -2.390624,-0.0624 -0.0312,0.65624 0.0784,-4.28125 L 74,105.76562 c 5.75812,-3.31669 6.914872,-4.86763 7.968752,-6.374996 3.58716,-2.675496 6.093488,-7.510088 9.015624,-11.515624 -0.31336,-1.331736 -0.29152,-2.95104 -1.312504,-3.75 -0.78208,-0.612 -1.41208,-1.368712 -2.109376,-1.968752 h 1.890632 c -0.49336,-4.214112 0.814312,-6.73652 4.468744,-7.046872 L 102.48438,18 Z m -7.515624,51.859376 h 0.016 c 0.21656,0.11808 0.342,0.29912 0.43752,0.5156 -0.09544,-0.21632 -0.23656,-0.39752 -0.45312,-0.5156 z M 79.593752,73.125 c 0.0528,0.016 0.0752,0.10176 0.12504,0.12504 -0.12744,-0.052 -0.26496,-0.09504 -0.40624,-0.10936 0.09192,0.0096 0.1952,-0.0416 0.28128,-0.016 z m -2.390624,0.859376 -0.016,0.14064 c -0.0068,-0.0104 -0.08928,-0.0688 -0.09376,-0.0784 -0.0056,-0.0112 0.10632,-0.0472 0.10936,-0.0624 z m 0.29688,0.39064 h 0.10936 c 0.0088,0.0368 0.0232,0.0704 0.0312,0.10936 -0.0256,-0.0248 -0.11968,-0.0876 -0.14064,-0.10936 z m 10.187504,2.718752 c 0.0376,0.39344 0.0013,0.68144 -0.12504,0.82812 h -0.016 c 0.12632,-0.14672 0.17792,-0.43448 0.14064,-0.82812 z m -5.312504,1.062496 c 0.56712,0.43656 0.9934,0.79296 1.046872,0.92188 v 0.016 c -0.056,-0.13408 -0.46552,-0.48592 -1.046872,-0.937504 z m 2.859376,3.29688 c 0.0344,-0.0112 0.0744,0.0096 0.10936,0 -0.1476,0.0392 -0.26928,0.11192 -0.40624,0.17184 0.11136,-0.0528 0.17704,-0.13264 0.29688,-0.17184 z m 1.32812,0.09376 c 0.0696,0.0288 0.13456,-0.024 0.20312,0.016 0.0464,0.0264 0.08056,0.0776 0.12504,0.10936 -0.044,-0.028 -0.08,-0.068 -0.12504,-0.09376 -0.0664,-0.0384 -0.13536,-0.0036 -0.20312,-0.0312 z m -2.531248,0.0472 c -0.0036,0.17872 0.0504,0.41856 0,0.54688 0.0416,-0.0352 0.12448,-0.072 0.17192,-0.10936 -0.28744,0.2576 -0.6704,0.61408 -0.40624,0.45312 0.22384,-0.1364 0.23024,-0.51672 0.2344,-0.890624 z" />
  <ellipse
     style="fill:#876044;stroke-width:8"
     cx="143.14539"
     cy="103.20861"
     rx="34.816002"
     ry="23.016001"
     id="ellipse3" />
  <path
     style="fill:#ac7f5c;stroke-width:8"
     d="m 58.139392,89.980856 0.827536,-5.724064 0.90514,-2.469312 c 0.11384,-2.772984 1.080164,-2.59884 2.812016,-3.508304 0,0 0.37956,-2.095928 1.089232,-2.804568 1.13834,-1.136712 4.501212,-1.740816 4.501212,-1.740816 2.954616,-3.211368 5.5514,-5.940784 8.151464,-7.024888 1.40064,-0.584 4.842144,-0.2088 7.345952,1.156352 0.866384,0.47232 0.4636,1.972288 1.19216,2.568528 2.327352,1.904648 3.095032,4.905744 2.589888,5.492608 -1.2024,1.396888 -6.172448,-0.818384 -7.169664,-3.955992 -0.61,-1.919288 -3.44128,-0.21936 -3.296072,0.0728 0.29896,0.60208 6.115688,4.509232 6.338216,5.04568 0.71656,1.727336 0.975208,3.033344 0.37832,3.397072 -0.75832,0.46208 1.33188,-1.849472 2.967312,-0.912816 1.067592,0.61144 1.830832,1.718968 2.898096,2.554136 1.020992,0.79896 0.997512,2.416312 1.310904,3.748048 -2.922136,4.005544 -5.427616,8.844392 -9.014784,11.51988 -1.05388,1.507368 -2.206184,3.0526 -7.964304,6.3693 l -2.298304,6.7455 -0.48408,27.49318 -1.006104,13.55593 C 63.93486,156.06702 34.44374,158.36382 43.787536,144.8 l 12.201416,-38.99373 c -1.519532,-6.76603 -0.1716,-11.62039 2.150436,-15.825406 z"
     id="path4" />
  <path
     style="fill:#413c2d;stroke-width:8"
     d="m 65.03752,88.544696 c 0.5668,-0.806432 0.95676,-1.65708 3.052536,-2.081272 1.589632,0.59064 3.28468,1.602976 4.5002,0.6972 2.22404,5.493528 4.507376,4.358048 4.507376,4.358048 1.572592,-1.0424 0.808664,-1.7446 0.808664,-1.7446 0,0 1.373032,1.685168 2.848448,0.41744 0.851752,-0.73184 0.13208,-3.976912 0.13208,-3.976912 0,0 1.667144,0.3708 2.145928,0.18592 0.926792,-0.35792 1.642976,-1.678624 1.716984,-1.366784 0.6672,2.811384 -7.374056,12.506648 -14.09232,18.563404 0,0 -0.961824,0.6456 -1.964192,0.48584 -1.133496,-0.58448 -1.54056,-0.79448 -2.902952,-1.50834 -1.875264,-0.9545 -0.74936,-2.48198 -1.187392,-4.109704 z"
     id="path5" />
  <path
     style="fill:#35363c;stroke-width:8"
     d="M 119.50785,94.870312 93.235968,240 h 78.389062 l -0.52504,-133.19687 c -16.25626,14.58803 -45.42483,21.55109 -51.59218,-11.932818 z"
     id="path6" />
  <path
     id="path7"
     style="fill:#494640;stroke-width:8"
     d="m 137.23438,69.546872 c -4.93999,0.19968 -10.05167,0.954688 -15.34376,2.328128 -12.35918,2.318728 -19.12852,10.755296 -24.187492,18.687496 -0.652,2.308648 -1.162928,3.827216 -1.687504,4.937504 -4.012344,1.959736 -4.837728,0.6976 -7.109376,4.093752 -0.8574,1.387068 -2.61604,2.836188 -4.265624,1.624998 -2.950248,-1.582518 -6.815232,5.57665 -8.515624,8.20312 1.950128,1.32595 2.352608,3.45336 1.343752,5.35938 -2.45736,0.34352 -2.750848,0.48448 -3.42188,-0.57816 l -2.390624,-0.0624 -1.281248,29.25 c -0.34584,5.62653 -3.501368,11.89891 -17.906248,11.43744 -6.723104,-0.2156 -11.854996,-3.81331 -8.687504,-10.03126 -3.7523,0.33776 -8.754816,36.1584 7.5,41.65625 0,0 2.932952,3.08548 13.140624,-2.98437 5.281264,-5.67039 13.279864,-10.80479 20.078128,-18.35937 3.632648,-7.51229 3.247496,-1.35053 5.359376,2.82812 -1.807488,-3.49687 0.19992,4.33096 -1.781248,8.3125 -1.02852,9.17324 -2.214672,16.68532 -3.5,25.64062 -2.410048,4.70512 -0.928096,5.93534 0.843744,3.82814 0.22,3.45318 -2.76892,2.35156 -1.45312,5.17186 0.19312,7.2541 -9.18232,18.13204 -0.812504,22.875 3.275144,1.2488 1.573712,3.49422 0.4844,6.23438 H 101.0469 l 24.5625,-103.51562 -8.46875,-11.09376 2.14062,-26.328124 c 1.0691,-13.067552 38.53641,-3.879736 51.95313,-0.4844 -2.33958,11.005284 -9.55558,18.260474 -19.5625,21.250004 -1.69117,0.5052 -3.46529,0.76352 -5.26563,0.89062 C 137.09422,156.35468 132.66002,194.7152 140.57813,240 h 40.85937 c -0.48448,-2.38142 -1.06636,-6.0566 -1.54688,-8.85938 4.50504,-8.54302 3.42189,-16.60178 1.42188,-25.82812 5.9697,1.2318 4.86812,9.96676 4.40626,16.10938 -2.43868,5.05352 -3.7215,10.52726 -4.18751,15.90624 0.92873,-3.53488 6.94375,-8.85832 10.78125,-4.14062 0.2816,1.9309 -1.37446,3.23768 -2.29688,5.09374 C 189.11854,239.9929 190.67188,240 190.67188,240 H 192 c 8.89516,0 17.1847,-2.4414 24.3125,-6.625 0.49488,-1.23616 1.2369,-2.49272 2.65626,-3.625 1.96642,-5.92572 2.03318,-12.89172 2.54686,-19.375 0.83404,-6.78842 -4.52174,-3.91344 -0.35936,-7.48438 -5.10368,-0.67144 3.6155,-1.1902 -1.5,-6.10938 7.1123,-3.86128 -2.49992,-6.5587 2.625,-9.59374 -2.2966,-9.92449 -1.88816,-5.69972 -2.84374,-16.75 3.65732,-2.37208 6.39626,-7.58848 3.45312,-12.98437 -4.69826,0.2916 -3.59266,-8.0181 -5.04688,-4.34375 -0.88298,-0.32248 -0.72504,-2.0683 -0.0472,-4.125 0.1188,-0.0392 0.1836,-0.11152 0.29688,-0.15624 0.0576,0.53568 0.22848,1.47648 0.54688,2.29687 l 0.39064,0.59376 c -0.65032,-2.67987 -0.83954,-3.01107 -0.90624,-2.90626 5.98508,-2.39096 4.46614,-12.20829 -0.32816,-14.23437 -1.9647,-0.47816 -3.08598,-2.16907 -4.125,-4.1875 -0.11,-0.1156 -0.1766,-0.26872 -0.29688,-0.59376 -0.1706,-0.34768 -0.35816,-0.69496 -0.53128,-1.0625 -2.50388,-3.24224 -2.57948,-4.10926 -0.92188,-1.8125 -1.74176,-3.50163 -4.19036,-7.27853 -9.875,-9.39062 l -0.016,-0.016 c -0.27256,-0.18624 -0.9784,-0.65264 -2.42188,-1.60938 0.34672,0.23232 -0.7384,-0.3956 -1.09374,-0.57816 0.0344,0.006 0.0728,0.0248 0,0.14064 -0.81196,0.46456 -0.24552,-0.0424 -0.016,-0.14064 -1.29278,-0.66872 -4.93928,-2.76798 -6.34376,-4.15626 -1.9148,-2.11032 -0.7736,0.28872 -2.09374,-4.56249 0.88498,-8.270426 1.66628,-18.568762 -6.75001,-23.296882 -2.52897,-0.47304 -5.35937,-3.124992 -5.35937,-3.124992 C 165.39425,73.2474 152.05318,68.94732 137.23327,69.546464 Z M 199.875,116.625 c 0.58184,0.0192 2.07884,0.90822 2.07812,0.875 -0.70976,-0.26 -1.45058,-0.51424 -2.26562,-0.71872 -0.0208,-0.12712 0.0536,-0.16072 0.1876,-0.15624 z" />
  <path
     style="fill:#9f7251;stroke-width:8"
     d="m 129.30785,81.362496 1.59637,7.28148 c -0.0424,-0.1388 -8.55604,1.30692 -10.69634,9.09196 4.66366,19.157454 17.61063,23.338884 30.51562,20.146874 l 6.62812,-12.61094 -11.30937,-6.059374 z"
     id="path8" />
  <path
     style="fill:#2fcbff;stroke-width:8"
     d="m 132.12972,75.029688 c -14.20272,0.58608 -25.7154,6.475136 -32.03594,24.55468 v 13.310942 c 2.05819,-5.83065 4.45834,-10.52902 7.77152,-13.67607 7.0867,-6.731376 14.82697,-9.165376 24.03418,-10.795568 6.88154,-0.82692 25.50922,0.39008 34.20828,5.87976 2.90582,1.171368 5.78218,3.602624 12.47353,9.721568 l 5.27187,-8.881256 C 180.95117,85.41116 169.04109,79.009232 147.13597,75.959376 141.89721,75.229936 136.86396,74.83432 132.12972,75.029688 Z"
     id="path9" />
  <path
     style="fill:#2d2d2d;stroke-width:8"
     d="m 179.98992,237.33402 c 3e-5,-6e-5 0,0 0,0 z"
     id="path10" />
  <path
     style="fill:#413c2d;stroke-width:8"
     d="m 91.27816,16 -6.190624,38.335936 c -2.659272,0.591048 -4.838576,4.099132 -6.420312,7.076564 -0.35744,0.672872 -0.833328,2.781124 -1.225,4.232812 h -0.0656 l -0.0112,0.25152 c -0.0552,0.19824 -0.126,0.5172 -0.17504,0.6672 0.044,-0.0072 0.11888,0.0176 0.16408,0.0112 l -0.16408,5.796872 h 0.42656 c 0.0088,0.0368 0.0144,0.0704 0.0216,0.10936 1.063408,1.023616 5.58248,4.114216 5.785936,4.604688 0.57752,1.392288 0.838144,2.49048 0.61248,3.062488 0.56344,-0.48272 1.701368,-1.171304 2.734376,-0.57968 0.26136,0.14968 0.47712,0.3928 0.71096,0.59064 h 1.97968 c -0.49336,-4.214128 0.808032,-6.744336 4.462472,-7.054688 L 102.47816,16 Z M 79.345352,66.640624 c 1.44908,0.13504 3.022456,0.45776 4.42968,1.225 0.866392,0.4724 0.4636,1.974072 1.192192,2.570312 2.327352,1.904656 3.097328,4.903768 2.592192,5.490624 -1.202408,1.396896 -6.1778,-0.82176 -7.175008,-3.959368 -0.2008,-0.63184 -0.66184,-0.827192 -1.159376,-0.853128 z"
     id="path11" />
  <path
     style="opacity:0.2;fill:#000000;stroke-width:8"
     d="m 98.687448,146.74829 c 0.09416,-0.12104 0.19112,-0.23936 0.28544,-0.3604 0.0704,-0.0304 0.32152,-0.2564 0.1332,-0.26352 -1.33724,-0.0704 -2.824392,0.044 -4.277704,0 -1.598376,1.28886 -3.257208,2.62368 -4.761296,3.92464 -0.2056,0.17912 -0.40376,0.45224 -0.70616,0.48584 -0.028,-1.83778 0.22224,-3.10489 0.26352,-4.71779 -0.13544,-0.23224 -0.14528,-0.59 -0.44008,-0.66256 h -0.044 a 10.344516,10.344516 0 0 0 -2.072336,1.27923 c -0.162,0.19112 -0.47872,0.22728 -0.52968,0.52968 a 10.990718,10.990718 0 0 0 0.10128,3.33461 c 0.0208,0.29248 0.0496,0.5828 0.0752,0.86569 l 0.29504,0.73032 c 0.6916,0.45464 1.107504,1.11718 1.854712,1.51616 a 8.9172272,8.9172272 0 0 0 0.94308,-0.59968 c -0.96968,1.10509 -1.9732,2.18117 -2.91388,3.32736 -0.65288,0.7956 -1.2526,1.65643 -1.895808,2.46893 -0.65528,0.827 -1.327568,1.62498 -1.939368,2.46891 -1.840192,2.53664 -3.781968,5.00313 -5.68744,7.40678 -0.65288,0.82217 -1.400128,1.56694 -1.939368,2.4689 a 1.8416558,1.8416558 0 0 0 -0.5296,0.52968 c 0.29744,-0.14512 0.57792,-0.30456 0.882648,-0.44008 0.3072,-0.44008 0.66496,-0.88746 1.037344,-1.32997 -0.48368,0.65048 -0.904376,1.35896 -1.489568,1.9079 -0.0192,0.0496 -0.0536,0.10632 0,0.0464 0.26824,-0.1136 0.4908,-0.27328 0.74968,-0.39656 1.044608,-1.36382 2.096512,-2.72282 3.264456,-3.96816 0.41584,-0.0384 0.5224,-0.42328 0.836672,-0.57312 a 1.5714214,1.5714214 0 0 1 0.66256,-0.13312 7.9456664,7.9456664 0 0 1 2.512448,-1.18973 c 0.19112,-0.028 0.24648,0.0752 0.35296,0.13312 5.121632,-6.29684 10.39076,-12.44859 15.476136,-18.78411 -0.17168,-0.002 -0.33872,-0.005 -0.50056,-0.005 z m -21.792288,22.8611 c 0.3916,-0.46448 0.7932,-0.92132 1.167976,-1.36383 a 5.3554548,5.3554548 0 0 1 -1.167976,1.36383 z m 98.30468,-26.34565 c -0.0192,-0.36992 0.17144,-0.53448 0.22,-0.83667 -0.0552,-0.002 -0.06,-0.0552 -0.13048,-0.044 -0.11832,0.30944 -0.37472,0.47872 -0.48592,0.79312 0.20048,-0.0416 0.24912,0.0728 0.39656,0.087 z m -93.468416,11.55388 c 0.59248,-0.0416 1.276792,0.0704 1.71932,-0.0893 0.41112,0.17912 0.950328,-0.11832 1.36624,-0.044 0.28776,0.0512 0.29504,0.26616 0.57312,0.30944 0.72296,-0.57072 1.242904,-1.34449 1.8958,-1.9853 -0.0752,-0.24912 -0.11832,-0.52704 -0.1764,-0.79312 l -0.2636,-0.39656 h -0.2756 a 1.2002006,1.2002006 0 0 0 -0.16936,-0.5368 1.4913833,1.4913833 0 0 1 -0.44016,0 c -0.19816,-0.009 -0.3868,0.0512 -0.48584,0 a 6.9186248,6.9186248 0 0 1 -1.013352,-0.83897 c -0.22224,-0.20056 -0.800424,-0.71576 -1.10268,-0.7496 -0.29232,-0.0304 -0.63592,0.1692 -0.969648,0.26616 a 8.991936,8.991936 0 0 1 -1.013224,0.26344 c -0.63112,0.092 -1.373512,0.0632 -2.072336,0.0893 -4.379248,0.15232 -9.237296,0.46912 -13.519832,0.5224 5.348928,-2.84857 10.804248,-6.01876 16.17012,-8.93503 0.40368,-0.22016 0.916488,-0.57552 1.189712,-0.61664 0.39432,-0.0632 0.892296,0.0822 1.279216,0.1332 a 7.204884,7.204884 0 0 1 1.189712,0.22016 c 1.0664,-0.59488 2.263376,-1.05915 3.308024,-1.67578 a 1.5366146,1.5366146 0 0 1 -0.57312,-0.44264 0.39611328,0.39611328 0 0 0 0.0024,-0.10632 q 0.28296,-0.13792 0.56584,-0.25392 c -0.3192,-0.42064 -0.911648,-0.67464 -1.467832,-0.99145 -0.0512,-0.0584 -0.14992,-0.10408 -0.08912,-0.18624 -0.5828,-0.35768 -1.14136,-0.73992 -1.76284,-1.05915 -0.61424,0.21032 -0.935808,0.41352 -1.552448,0.61664 -0.09696,0.052 -0.26128,-0.11608 -0.39656,-0.13304 a 19.098571,19.098571 0 0 1 -2.865512,1.41219 14.408418,14.408418 0 0 0 -2.115848,1.10267 c -0.22032,0.14024 -0.4716,0.26616 -0.70616,0.39656 l -0.61176,0.45464 c -7.532504,3.76742 -13.664908,6.43706 -20.926588,9.76201 a 1.428843,1.428843 0 0 1 0.33376,0.27816 l -3.15588,1.13399 c -0.909188,0.49816 -2.408436,1.05673 -3.65864,0.66256 a 4.3465208,4.3465208 0 0 0 -1.059012,0.61656 c 0.36512,0.19336 0.756864,0.38664 1.160724,0.57792 a 1.8594486,1.8594486 0 0 0 -0.18364,0.0919 c 1.209076,0.55136 2.609152,1.23568 3.881104,1.76282 a 10.463252,10.463252 0 0 0 1.366236,0.52968 3.5558758,3.5558758 0 0 0 1.013204,0 c 1.412212,-0.0632 2.751872,-0.14272 4.10118,-0.26352 0.776216,-0.0704 1.576632,-0.22232 2.33592,-0.22016 1.247752,0.002 2.49072,0.0464 3.748144,0.044 1.267112,0 2.551112,-0.16208 3.835176,-0.22016 2.522112,-0.1112 5.111944,-0.23712 7.716264,-0.39656 1.3082,-0.0822 2.611608,-0.22504 3.876256,-0.31192 z m 90.073316,-1.50166 c 0.15488,-0.27816 0.3288,-0.56584 0.48592,-0.83668 0.96001,-1.68543 1.94905,-3.3322 2.91148,-4.98378 -0.24192,-0.6408 -0.72784,-1.03497 -0.70616,-1.93935 0.0344,-0.17168 0.27336,-0.13792 0.30952,-0.30944 -0.2344,-0.55616 0.0648,-1.10267 0.1332,-1.7193 a 0.12688472,0.12688472 0 0 1 -0.15728,-0.0416 0.6075868,0.6075868 0 0 0 -0.008,-0.22952 0.30389024,0.30389024 0 0 1 -0.10144,0.11352 c -0.004,0 -0.0112,0.005 -0.0152,0.008 a 0.8728448,0.8728448 0 0 1 -0.45688,0.099 c -1.5476,2.55357 -3.26204,5.18449 -4.85078,7.71628 a 7.5356204,7.5356204 0 0 1 -0.7064,1.1029 c -0.37248,0.38944 -0.97694,0.64568 -1.45573,0.96968 -1.49441,1.01804 -2.88726,2.02639 -4.40825,2.95496 a 0.19505688,0.19505688 0 0 0 -0.08,0.0256 c 0.34576,-0.88986 0.79072,-1.77007 1.08333,-2.66478 0.19112,-0.5852 0.39152,-1.15587 0.28544,-1.67336 a 4.4665328,4.4665328 0 0 0 0.0384,-0.98659 c 1.48231,-0.5224 2.95252,-1.05674 4.39374,-1.61775 0.21272,-1.22841 0.39656,-2.48343 0.7496,-3.57158 0.0232,-0.044 0.22736,-0.196 0.044,-0.1764 -0.0846,0.008 -0.16936,0.0136 -0.25408,0.0208 0.0152,-0.0822 0.028,-0.16424 0.0464,-0.24656 -0.002,-0.10632 0.15728,-0.42072 0,-0.39656 h -0.22032 c -0.80523,0.0776 -1.65642,0.10896 -2.46893,0.1764 -0.38944,0.35312 -0.97449,0.25864 -1.71929,0.30944 -0.3796,0.0216 -0.79072,0.06 -1.18972,0.0893 -1.08575,0.0776 -2.21985,0.2344 -2.86548,0 -3.92709,0.37736 -8.08388,0.52704 -12.21406,0.70608 -1.09059,2.48101 -2.35527,4.7879 -3.52807,7.18672 -1.24775,0.41352 -2.40845,0.91404 -3.65863,1.3227 0.0408,0.23224 0.31424,0.35552 0.48368,0.48368 a 0.4141768,0.4141768 0 0 1 0.0344,0.0256 c -0.162,0.0648 -0.32864,0.1304 -0.48856,0.20056 0.37472,0.24424 0.73024,0.55864 1.10267,0.8391 a 5.4008348,5.4008348 0 0 0 0.84395,0.58032 c -0.56584,1.13653 -1.09785,2.29723 -1.58148,3.46761 -0.10904,0.2612 -0.28776,0.4908 -0.39656,0.7496 -0.06,0.14256 -0.0728,0.3072 -0.1332,0.44008 -0.0584,0.1332 -0.15224,0.25864 -0.22,0.39656 -1.82573,3.74328 -3.51839,7.49383 -5.33685,11.20083 0.23936,-0.0304 0.28768,-0.25136 0.48584,-0.39656 a 1.4999121,1.4999121 0 0 1 0.21528,-0.13048 c -0.12344,0.26608 -0.24408,0.53192 -0.3604,0.7956 0.20328,-0.51272 0.77624,-0.49088 1.10268,-0.88263 a 4.729126,4.729126 0 0 0 0.44008,-0.92613 c 0.43536,-0.95518 0.86087,-1.92243 1.41222,-2.68897 0.4376,-0.0512 0.50064,-0.49344 0.92612,-0.44008 a 9.1309296,9.1309296 0 0 1 1.98529,-1.54277 5.094224,5.094224 0 0 0 0.74968,-0.44008 c 0.24184,-0.23224 0.44472,-0.80765 0.66256,-1.23325 1.11474,-2.19567 2.12309,-4.30187 3.17501,-6.39356 0.43768,-0.87053 0.77624,-1.77734 1.32271,-2.51244 4.51227,-1.49926 9.11882,-2.90661 13.6214,-4.41552 -0.90923,2.02396 -1.85713,4.0141 -2.54149,6.26296 0.13544,0.10888 0.27336,0.21528 0.40856,0.32416 -0.036,0.14512 -0.08,0.28296 -0.11136,0.4328 0.60936,0.56584 1.32515,1.02773 1.9853,1.5428 0.85846,-0.77624 1.85713,-1.38802 2.82197,-2.02884 0.74,-0.49344 1.43881,-1.02287 2.15941,-1.49924 0.0848,-0.0552 0.16936,-0.12104 0.25616,-0.18376 -0.27792,0.55376 -0.57072,1.09299 -0.81733,1.67818 a 1.3004543,1.3004543 0 0 0 0.3364,0.13792 1.3012402,1.3012402 0 0 0 -0.12816,0.57552 c 0.097,0.0136 0.37472,0.12584 0.57312,0.1764 0.60216,0.42792 1.25021,0.73272 1.89344,1.12202 0.1472,-0.498 0.4644,-0.85603 0.62144,-1.29855 0.28288,-0.35552 1.41945,-2.97673 2.26821,-4.25834 z m 2.87517,-9.4646 a 0.28148368,0.28148368 0 0 0 0.0344,0.16216 c -0.0536,0.0728 -0.11136,0.14512 -0.16936,0.21528 0.044,-0.12816 0.0919,-0.25136 0.13512,-0.37736 z m -24.87781,8.35951 a 2.1191544,2.1191544 0 0 0 0.3072,-0.79072 c 0.45952,-0.65776 0.71576,-1.5186 1.23566,-2.11587 3.30802,-0.2612 6.88206,-0.51264 10.39802,-0.73992 q -5.83616,1.95869 -11.94078,3.64655 z m -11.86339,7.01501 c 0.6432,0.17648 1.27675,0.38448 1.85228,0.486 a 9.8517752,9.8517752 0 0 0 1.41219,-1.27921 c 0.22,-0.22016 0.43768,-0.44256 0.66016,-0.66016 0.22224,-0.21752 0.55376,-0.40632 0.61664,-0.7496 -0.1136,-0.0464 -0.23208,-0.0894 -0.3484,-0.13312 a 3.463551,3.463551 0 0 0 0.3604,-0.4908 c -1.60806,-0.752 -3.35395,-1.20421 -5.0273,-1.85227 -1.42914,-0.55376 -2.84134,-1.13895 -4.2124,-1.7314 1.81844,-0.45688 3.6296,-0.95274 5.39245,-1.4799 1.79667,-0.53928 3.69732,-1.06156 5.24733,-1.80876 a 4.2797872,4.2797872 0 0 1 0.70616,-0.30944 c -0.0768,-0.13312 -0.16416,-0.25632 -0.24912,-0.38224 a 1.3340325,1.3340325 0 0 0 0.26128,-0.28536 c -0.47648,-0.68432 -1.00839,-1.31305 -1.4122,-2.07236 -5.49159,-0.50544 -11.15005,-0.84391 -17.06483,-0.92613 -0.2176,0.15008 -0.26832,0.46912 -0.52968,0.57312 -3.99715,-0.044 -8.10801,-0.16424 -11.99395,-0.17648 -0.2756,0.3652 -0.56344,0.71816 -0.8391,1.10267 -0.27072,0.38216 -0.47872,0.83668 -0.83668,1.14619 -0.25624,-0.5368 -0.57552,-1.01319 -0.83668,-1.54277 -1.9442,-0.0528 -3.92704,-0.068 -5.86881,-0.11832 1.84988,-2.26338 3.8279,-4.69604 5.72614,-6.97392 0.29744,-0.35552 0.82461,-0.83909 0.88264,-1.1462 a 6.1404976,6.1404976 0 0 0 -0.044,-1.27919 c -0.0312,-0.20064 -0.15728,-0.34824 -0.1764,-0.52968 -0.044,-0.40632 0.1332,-0.72064 0.1332,-1.1462 0.31424,-0.2612 0.36032,-0.75688 0.61664,-1.05914 0.1332,-0.1572 0.30712,-0.16216 0.39656,-0.35312 0.28768,-0.47648 0.75208,-0.95517 1.0132,-1.40978 0.0496,-0.0847 0.14752,-0.12816 0.044,-0.22016 -0.55856,0.51752 -0.54168,0.70848 -0.7424,0.9068 -0.1472,0.14512 -0.0152,-0.12576 -0.18368,-0.0216 a 1.6797154,1.6797154 0 0 1 -0.41584,0.50064 0.30142608,0.30142608 0 0 0 0.0752,-0.11112 c 0.28024,-0.48368 0.75448,-0.95757 1.01319,-1.4122 0.0496,-0.0848 0.14528,-0.12576 0.044,-0.22016 -0.62624,0.6456 -0.41352,0.46448 -0.61664,0.66256 -0.0584,0.19104 -0.2756,0.0216 -0.30952,0.1764 a 8.4582032,8.4582032 0 0 0 -0.83672,0.96952 c -0.12104,0.20056 -0.15216,0.41576 -0.26352,0.61664 -0.19112,0.3456 -0.5924,0.60696 -0.88262,0.96967 -0.41576,0.5224 -0.6868,1.20909 -1.14621,1.63226 -0.0112,0.13528 -0.097,0.19832 -0.1332,0.30944 -0.1332,-0.0512 -0.25416,0.25136 -0.26352,0.044 0.0112,-0.0632 0.0728,-0.0752 0.0891,-0.13312 0.068,-0.0192 0.008,-0.0536 -0.044,0 -0.37248,0.0704 -0.50784,0.37464 -0.7496,0.57312 a 0.74958976,0.74958976 0 0 1 -0.57312,0 c -2.69864,3.23546 -5.58349,6.29926 -8.245886,9.56858 -2.672024,3.28142 -5.319888,6.57976 -7.805752,10.05464 0.10904,0.0728 0.21528,0.14512 0.32152,0.21752 -0.0872,0.13312 -0.16936,0.26832 -0.24408,0.40368 1.383184,0.95516 2.71316,1.96112 4.188208,2.82198 4.7565,-3.58853 9.73303,-7.15529 14.475,-10.71237 q -1.98046,2.77845 -3.92466,5.59316 c 0.13552,0.087 0.26128,0.18616 0.38944,0.28296 a 0.680356,0.680356 0 0 0 -0.0919,0.38448 c 0.0512,0.24648 0.636,0.56344 0.92617,0.79312 a 6.7239564,6.7239564 0 0 0 0.96967,0.7496 c 0.22496,-0.0991 0.46664,-0.17912 0.70608,-0.26352 0.12104,-0.0648 0.22488,0.0216 0.39656,-0.044 3.1968,-0.96241 6.70311,-1.61531 10.31822,-2.15938 0.33136,-0.71336 0.80525,-1.28163 1.0132,-2.11588 -0.08,0.008 -0.162,0.016 -0.242,0.0216 a 6.10402,6.10402 0 0 0 0.3408,-0.82217 c -3.0807,0.48368 -6.18074,0.9455 -9.12121,1.56939 0.32416,-0.59976 0.6916,-1.21876 1.03983,-1.73865 2.59462,-0.3144 5.27636,-0.54416 7.84927,-0.88263 a 11.533673,11.533673 0 0 0 0.88261,-1.36623 c 0.0847,-0.13792 0.24408,-0.2756 0.22,-0.44 -0.10904,0.008 -0.2176,0.0136 -0.32624,0.0192 0.10632,-0.15952 0.2176,-0.31664 0.33824,-0.4644 0.0112,-0.0728 0.34336,-0.15952 0.1332,-0.17648 -2.62125,0.087 -4.8363,0.16208 -7.39952,0.29248 0.10904,-0.21528 0.22,-0.42792 0.33136,-0.6384 1.33479,0.0384 2.59947,-0.11832 3.70456,-0.17632 0.15728,-0.14736 0.2612,-0.40632 0.52968,-0.48592 0.37736,-0.11112 1.12201,-0.016 1.80878,-0.044 1.18487,-0.0512 2.24647,0.0536 3.21853,0.044 a 2.2234028,2.2234028 0 0 0 0.44024,-0.52968 c 0.002,0 0.004,-0.002 0.009,-0.002 -1.3082,2.88242 -2.56564,5.7479 -3.87631,8.59406 -0.4836,1.0519 -1.08087,2.0796 -1.41216,3.21855 0.068,0.0871 0.13544,0.1716 0.2056,0.25864 -0.044,0.12096 -0.0919,0.24176 -0.1304,0.3652 0.25856,0.41584 0.4184,0.48128 0.83184,1.01804 a 14.344313,14.344313 0 0 0 1.3735,1.36382 c 0.94306,-2.04089 1.76042,-4.16645 2.77845,-6.17349 l 0.83668,-1.85232 a 12.917986,12.917986 0 0 1 1.27917,0.48592 c 0.9721,0.43056 1.92726,0.84635 2.86552,1.23327 0.46168,0.19104 0.88261,0.42328 1.32272,0.61904 l 5.85673,2.12313 c 0.28768,0.099 0.67224,0.254 0.97935,0.3384 z M 111.53746,135.1001 a 5.9956024,5.9956024 0 0 0 0.57304,-1.0156 1.8039329,1.8039329 0 0 1 0.3288,-0.254 1.734305,1.734305 0 0 0 -0.34096,0.3916 c -0.13504,0.2344 -0.15728,0.52472 -0.30952,0.7496 a 2.1504524,2.1504524 0 0 1 -0.30216,0.34336 c 0.0192,-0.0704 0.028,-0.14272 0.052,-0.21528 z m -9.4356,17.24135 c -1.27679,0.86085 -2.570484,1.73138 -3.820644,2.58742 1.470208,-1.79428 2.996064,-3.67076 4.514634,-5.40213 a 0.2195672,0.2195672 0 0 1 0.1332,-0.1332 c 1.04706,0.0584 2.1062,0.10408 3.12424,0.19336 -1.24292,0.91888 -2.614,1.84986 -3.95125,2.75426 z m 23.30605,-5.55447 c -0.0192,0 -0.0384,-0.002 -0.0552,-0.002 a 0.41614752,0.41614752 0 0 1 0.0768,-0.044 0.26839664,0.26839664 0 0 0 -0.0208,0.0464 z m 2.97429,4.0528 c -0.41112,-0.18624 -0.84392,-0.34824 -1.28886,-0.498 a 19.153257,19.153257 0 0 1 0.83669,-1.92 c 2.909,-0.0384 6.12269,0.0496 8.99547,0.18376 -2.79537,0.798 -5.68748,1.49924 -8.5433,2.23436 z m 58.4634,-3.69975 c 0.1184,-0.22232 0.23936,-0.44008 0.36048,-0.66256 -1.08332,-0.06 -2.3045,0.19336 -3.175,0.044 -1.29857,1.89098 -2.36738,4.16887 -3.5281,6.12756 a 8.0102064,8.0102064 0 0 1 -0.54648,0.89955 c -0.54176,-2.26597 -1.0834,-4.7083 -1.833,-6.76613 h -0.96968 c 0.12816,-0.27064 -0.0512,-0.35312 -0.1764,-0.48584 0.068,-0.24184 0.26624,-0.3532 0.26352,-0.66256 l -0.1764,0.13312 c -0.59728,0.99143 -1.1293,2.00221 -1.63226,3.04202 -0.49576,1.03014 -1.12684,1.99739 -1.67577,2.99851 -1.10509,2.0143 -2.23436,4.01895 -3.21856,6.12998 0.20784,-0.0752 0.23712,-0.1136 0.39656,-0.08 -0.10632,0.22016 -0.21536,0.43768 -0.31928,0.65776 0.19352,-0.17912 0.2344,-0.068 0.52968,-0.044 0.86814,-0.21752 2.04092,-0.2804 3.04206,-0.48592 0.93821,-1.6927 1.90064,-3.36123 2.86548,-5.02732 0.46664,1.85472 0.89229,3.75295 1.36624,5.60042 a 22.987168,22.987168 0 0 0 2.55837,-0.0894 c 2.07238,-3.77955 4.17374,-7.52524 6.21706,-11.3314 -0.116,0 -0.23208,0 -0.3484,0.002 z m 29.73828,20.12616 c 0.0992,0.0512 0.1982,0.10408 0.29744,0.15496 -0.0704,-0.12104 -0.23208,-0.15 -0.26624,-0.30944 a 1.1844682,1.1844682 0 0 1 0,-0.61664 3.071926,3.071926 0 0 1 -0.39656,-0.39656 c -0.0704,0.036 0,-0.35312 0,-0.35312 q -0.25408,-0.17064 -0.5224,-0.33368 a 0.40866568,0.40866568 0 0 0 0.0232,-0.19112 c -4.42518,-2.57773 -8.9302,-5.04181 -13.3167,-7.62922 -0.82942,-0.4908 -1.66852,-0.96484 -2.50036,-1.44847 -0.0584,-0.25632 -0.116,-0.51024 -0.1792,-0.76168 -0.45224,-0.24184 -0.88986,-0.49344 -1.32028,-0.75448 a 0.36059312,0.36059312 0 0 0 0.028,-0.0328 c 0.1548,-0.08 0.30216,-0.12104 0.48592,-0.22016 -0.174,-0.11352 -0.35304,-0.22496 -0.53192,-0.33624 a 2.5017018,2.5017018 0 0 1 0.54168,-0.24424 c -0.35304,-0.22728 -0.7496,-0.51752 -1.1462,-0.7496 -0.827,-0.48368 -1.64432,-0.99383 -2.42538,-1.45572 -0.23712,-0.14024 -0.48592,-0.254 -0.71816,-0.3916 1.2187,-0.66496 2.47856,-1.30095 3.74808,-1.98529 0.694,-0.37248 1.41948,-0.72304 2.11832,-1.10267 0.99866,-0.54168 2.1062,-0.9213 2.77844,-1.67577 1.59838,-0.76896 3.16534,-1.56695 4.7613,-2.33834 0.6916,-0.91163 1.10268,-2.10137 2.24888,-2.55839 0.109,-0.24912 0.40368,-0.58032 0.44008,-0.7496 0,0.002 -0.0408,-0.002 -0.044,0 -0.35304,0.20808 -0.72064,0.40144 -1.08814,0.59248 a 2.1957418,2.1957418 0 0 1 0.65768,-0.4232 c 0.1258,-0.15224 0.174,-0.38208 0.35304,-0.48584 -0.002,-0.13312 0.0942,-0.17168 0.1332,-0.26352 0.0464,-0.0248 0.28024,-0.18376 0.0872,-0.1764 -3.21858,1.74347 -6.60636,3.22339 -9.92164,4.85079 -3.15566,1.55003 -6.33068,3.07587 -9.46704,4.62831 0.66256,-1.25259 1.3469,-2.481 2.00468,-3.73844 l -0.33368,0.016 c 0.1136,-0.21272 0.22968,-0.4256 0.34336,-0.6384 -1.20424,-0.044 -2.18114,0.14024 -3.39506,0.0893 -0.23432,-0.028 -0.22496,-0.30456 -0.39656,-0.39656 -1.65888,3.05896 -3.3153,6.12032 -4.93786,9.21554 0.0584,0.12104 0.1234,0.2612 0.1884,0.40368 l -0.0208,0.044 c -0.52704,0.99626 -1.13654,1.96836 -1.54278,3.04202 0.6432,0.76896 1.74348,1.46056 2.64544,2.11588 a 11.167438,11.167438 0 0 1 0.83732,-1.67614 c 0.89954,-1.61533 1.80636,-3.22098 2.68896,-4.85079 1.57666,0.77384 3.05896,1.64432 4.54128,2.51244 0.1378,0.12816 0.21024,0.31928 0.39656,0.39656 3.61026,2.00704 7.3076,3.92946 10.98078,5.90993 3.67072,1.97804 7.3608,3.95608 11.02428,5.82046 -0.08,0.0136 0.2176,0.24648 0.26352,0.1332 a 0.80596624,0.80596624 0 0 1 -0.1472,-0.63856 z"
     id="path12" />
  <path
     id="blue"
     style="fill:#2fcbff;stroke-width:8"
     d="m 98.687448,144.75038 c 0.09416,-0.12104 0.19112,-0.23936 0.28544,-0.3604 0.0704,-0.0304 0.32152,-0.2564 0.1332,-0.26352 -1.33724,-0.0704 -2.824392,0.044 -4.277704,0 -1.598376,1.28886 -3.257208,2.62368 -4.761296,3.92464 -0.2056,0.17912 -0.40376,0.45224 -0.70616,0.48584 -0.028,-1.83778 0.22224,-3.10489 0.26352,-4.71779 -0.13544,-0.23224 -0.14528,-0.59 -0.44008,-0.66256 h -0.044 a 10.344516,10.344516 0 0 0 -2.072336,1.27923 c -0.162,0.19112 -0.47872,0.22728 -0.52968,0.52968 a 10.990718,10.990718 0 0 0 0.10128,3.3346 c 0.0208,0.29248 0.0496,0.5828 0.0752,0.8657 l 0.29504,0.73032 c 0.6916,0.45464 1.107504,1.11718 1.854712,1.51616 a 8.9172272,8.9172272 0 0 0 0.94308,-0.59968 c -0.96968,1.10509 -1.9732,2.18117 -2.91388,3.32736 -0.65288,0.7956 -1.2526,1.65642 -1.895808,2.46893 -0.65528,0.827 -1.327568,1.62498 -1.939368,2.46891 -1.840192,2.53664 -3.781968,5.00313 -5.68744,7.40678 -0.65288,0.82216 -1.400128,1.56694 -1.939368,2.4689 a 1.8416558,1.8416558 0 0 0 -0.5296,0.52968 c 0.29744,-0.14512 0.57792,-0.30456 0.882648,-0.44008 0.3072,-0.44008 0.66496,-0.88746 1.037344,-1.32998 -0.48368,0.65048 -0.904376,1.35896 -1.489568,1.90791 -0.0192,0.0496 -0.0536,0.10632 0,0.0464 0.26824,-0.1136 0.4908,-0.27328 0.74968,-0.39656 1.044608,-1.36383 2.096512,-2.72282 3.264456,-3.96816 0.41584,-0.0384 0.5224,-0.42328 0.836672,-0.57312 a 1.5714214,1.5714214 0 0 1 0.66256,-0.13312 7.9456664,7.9456664 0 0 1 2.512448,-1.18973 c 0.19112,-0.028 0.24648,0.0752 0.35296,0.13312 5.121632,-6.29684 10.39076,-12.44859 15.476136,-18.78411 -0.17168,-0.002 -0.33872,-0.005 -0.50056,-0.005 z m -21.792288,22.8611 c 0.3916,-0.46448 0.7932,-0.92132 1.167976,-1.36383 a 5.3554548,5.3554548 0 0 1 -1.167976,1.36383 z m 98.30468,-26.34565 c -0.0192,-0.36992 0.17144,-0.53448 0.22,-0.83667 -0.0552,-0.002 -0.06,-0.0552 -0.13048,-0.044 -0.11832,0.30944 -0.37472,0.47872 -0.48592,0.79312 0.20048,-0.0416 0.24912,0.0728 0.39656,0.087 z M 81.731424,152.8197 c 0.59248,-0.0416 1.276792,0.0704 1.71932,-0.0893 0.41112,0.17912 0.950328,-0.11832 1.36624,-0.044 0.28776,0.0512 0.29504,0.26616 0.57312,0.30944 0.72296,-0.57072 1.242904,-1.34448 1.8958,-1.98529 -0.0752,-0.24912 -0.11832,-0.52704 -0.1764,-0.79312 l -0.2636,-0.39656 h -0.2756 a 1.2002006,1.2002006 0 0 0 -0.16936,-0.5368 1.4913833,1.4913833 0 0 1 -0.44016,0 c -0.19816,-0.009 -0.3868,0.0512 -0.48584,0 a 6.9186248,6.9186248 0 0 1 -1.013352,-0.83897 c -0.22224,-0.20056 -0.800424,-0.71576 -1.10268,-0.7496 -0.29232,-0.0304 -0.63592,0.1692 -0.969648,0.26616 a 8.991936,8.991936 0 0 1 -1.013224,0.26344 c -0.63112,0.092 -1.373512,0.0632 -2.072336,0.0893 -4.379248,0.15232 -9.237296,0.46912 -13.519832,0.5224 5.348928,-2.84857 10.804248,-6.01876 16.17012,-8.93503 0.40368,-0.22016 0.916488,-0.57552 1.189712,-0.61664 0.39432,-0.0632 0.892296,0.0822 1.279216,0.1332 a 7.204884,7.204884 0 0 1 1.189712,0.22016 c 1.0664,-0.59488 2.263376,-1.05915 3.308024,-1.67579 a 1.5366146,1.5366146 0 0 1 -0.57312,-0.44264 0.39611328,0.39611328 0 0 0 0.0024,-0.10632 q 0.28296,-0.13792 0.56584,-0.25392 c -0.3192,-0.42064 -0.911648,-0.67464 -1.467832,-0.99144 -0.0512,-0.0584 -0.14992,-0.10408 -0.08912,-0.18624 -0.5828,-0.35768 -1.14136,-0.73992 -1.76284,-1.05915 -0.61424,0.21032 -0.935808,0.41352 -1.552448,0.61664 -0.09696,0.052 -0.26128,-0.11608 -0.39656,-0.13304 a 19.098571,19.098571 0 0 1 -2.865512,1.41219 14.408418,14.408418 0 0 0 -2.115848,1.10267 c -0.22032,0.14024 -0.4716,0.26616 -0.70616,0.39656 l -0.61176,0.45464 c -7.532504,3.76742 -13.664908,6.43705 -20.926588,9.76201 a 1.428843,1.428843 0 0 1 0.33376,0.27816 l -3.15588,1.13399 c -0.909188,0.49816 -2.408436,1.05673 -3.65864,0.66256 a 4.3465208,4.3465208 0 0 0 -1.059012,0.61656 c 0.36512,0.19336 0.756864,0.38664 1.160724,0.57792 a 1.8594486,1.8594486 0 0 0 -0.18364,0.0919 c 1.209076,0.55136 2.609152,1.23568 3.881104,1.76282 a 10.463252,10.463252 0 0 0 1.366236,0.52968 3.5558758,3.5558758 0 0 0 1.013204,0 c 1.412212,-0.0632 2.751872,-0.14272 4.10118,-0.26352 0.776216,-0.0704 1.576632,-0.22232 2.33592,-0.22016 1.247752,0.002 2.49072,0.0464 3.748144,0.044 1.267112,0 2.551112,-0.16208 3.835176,-0.22016 2.522112,-0.1112 5.111944,-0.23712 7.716264,-0.39656 1.3082,-0.0822 2.611608,-0.22504 3.876256,-0.31192 z m 90.073316,-1.50165 c 0.15488,-0.27816 0.3288,-0.56584 0.48592,-0.83668 0.96001,-1.68543 1.94905,-3.3322 2.91148,-4.98379 -0.24192,-0.6408 -0.72784,-1.03496 -0.70616,-1.93934 0.0344,-0.17168 0.27336,-0.13792 0.30952,-0.30944 -0.2344,-0.55616 0.0648,-1.10267 0.1332,-1.7193 a 0.12688472,0.12688472 0 0 1 -0.15728,-0.0416 0.6075868,0.6075868 0 0 0 -0.008,-0.22952 0.30389024,0.30389024 0 0 1 -0.10144,0.11352 c -0.004,0 -0.0112,0.005 -0.0152,0.008 a 0.8728448,0.8728448 0 0 1 -0.45688,0.099 c -1.5476,2.55356 -3.26204,5.18448 -4.85078,7.71628 a 7.5356204,7.5356204 0 0 1 -0.7064,1.1029 c -0.37248,0.38944 -0.97694,0.64568 -1.45573,0.96968 -1.49441,1.01804 -2.88726,2.02638 -4.40825,2.95496 a 0.19505688,0.19505688 0 0 0 -0.08,0.0256 c 0.34576,-0.88986 0.79072,-1.77007 1.08333,-2.66478 0.19112,-0.5852 0.39152,-1.15588 0.28544,-1.67336 a 4.4665328,4.4665328 0 0 0 0.0384,-0.9866 c 1.48231,-0.5224 2.95252,-1.05673 4.39374,-1.61774 0.21272,-1.22842 0.39656,-2.48343 0.7496,-3.57158 0.0232,-0.044 0.22736,-0.196 0.044,-0.1764 -0.0846,0.008 -0.16936,0.0136 -0.25408,0.0208 0.0152,-0.0822 0.028,-0.16424 0.0464,-0.24656 -0.002,-0.10632 0.15728,-0.42072 0,-0.39656 h -0.22032 c -0.80523,0.0776 -1.65642,0.10896 -2.46893,0.1764 -0.38944,0.35312 -0.97449,0.25864 -1.71929,0.30944 -0.3796,0.0216 -0.79072,0.06 -1.18972,0.0893 -1.08575,0.0776 -2.21985,0.2344 -2.86548,0 -3.92709,0.37736 -8.08388,0.52704 -12.21406,0.70608 -1.09059,2.481 -2.35527,4.7879 -3.52807,7.18672 -1.24775,0.41352 -2.40845,0.91404 -3.65863,1.3227 0.0408,0.23224 0.31424,0.35552 0.48368,0.48368 a 0.4141768,0.4141768 0 0 1 0.0344,0.0256 c -0.162,0.0648 -0.32864,0.1304 -0.48856,0.20056 0.37472,0.24424 0.73024,0.55864 1.10267,0.8391 a 5.4008348,5.4008348 0 0 0 0.84395,0.58032 c -0.56584,1.13652 -1.09785,2.29723 -1.58148,3.46761 -0.10904,0.2612 -0.28776,0.4908 -0.39656,0.7496 -0.06,0.14256 -0.0728,0.3072 -0.1332,0.44008 -0.0584,0.1332 -0.15224,0.25864 -0.22,0.39656 -1.82573,3.74327 -3.51839,7.49383 -5.33685,11.20083 0.23936,-0.0304 0.28768,-0.25136 0.48584,-0.39656 a 1.4999121,1.4999121 0 0 1 0.21528,-0.13048 c -0.12344,0.26608 -0.24408,0.53192 -0.3604,0.7956 0.20328,-0.51272 0.77624,-0.49088 1.10268,-0.88264 a 4.729126,4.729126 0 0 0 0.44008,-0.92612 c 0.43536,-0.95518 0.86087,-1.92243 1.41222,-2.68897 0.4376,-0.0512 0.50064,-0.49344 0.92612,-0.44008 a 9.1309296,9.1309296 0 0 1 1.98529,-1.54277 5.094224,5.094224 0 0 0 0.74968,-0.44008 c 0.24184,-0.23224 0.44472,-0.80765 0.66256,-1.23325 1.11474,-2.19567 2.12309,-4.30187 3.17501,-6.39356 0.43768,-0.87053 0.77624,-1.77734 1.32271,-2.51245 4.51227,-1.49925 9.11882,-2.9066 13.6214,-4.41552 -0.90923,2.02397 -1.85713,4.01411 -2.54149,6.26297 0.13544,0.10888 0.27336,0.21528 0.40856,0.32416 -0.036,0.14512 -0.08,0.28296 -0.11136,0.4328 0.60936,0.56584 1.32515,1.02773 1.9853,1.54279 0.85846,-0.77624 1.85713,-1.38801 2.82197,-2.02883 0.74,-0.49344 1.43881,-1.02287 2.15941,-1.49924 0.0848,-0.0552 0.16936,-0.12104 0.25616,-0.18376 -0.27792,0.55376 -0.57072,1.09299 -0.81733,1.67818 a 1.3004543,1.3004543 0 0 0 0.3364,0.13792 1.3012402,1.3012402 0 0 0 -0.12816,0.57552 c 0.097,0.0136 0.37472,0.12584 0.57312,0.1764 0.60216,0.42792 1.25021,0.73272 1.89344,1.12202 0.1472,-0.498 0.4644,-0.85603 0.62144,-1.29855 0.28288,-0.35552 1.41945,-2.97674 2.26821,-4.25834 z m 2.87517,-9.4646 a 0.28148368,0.28148368 0 0 0 0.0344,0.16216 c -0.0536,0.0728 -0.11136,0.14512 -0.16936,0.21528 0.044,-0.12816 0.0919,-0.25136 0.13512,-0.37736 z m -24.87781,8.35951 a 2.1191544,2.1191544 0 0 0 0.3072,-0.79072 c 0.45952,-0.65776 0.71576,-1.5186 1.23566,-2.11587 3.30802,-0.2612 6.88206,-0.51264 10.39802,-0.73992 q -5.83616,1.95869 -11.94078,3.64655 z m -11.86339,7.01501 c 0.6432,0.17648 1.27675,0.38448 1.85228,0.486 a 9.8517752,9.8517752 0 0 0 1.41219,-1.27921 c 0.22,-0.22016 0.43768,-0.44256 0.66016,-0.66016 0.22224,-0.21752 0.55376,-0.40632 0.61664,-0.7496 -0.1136,-0.0464 -0.23208,-0.0894 -0.3484,-0.13312 a 3.463551,3.463551 0 0 0 0.3604,-0.4908 c -1.60806,-0.752 -3.35395,-1.20422 -5.0273,-1.85227 -1.42914,-0.55376 -2.84134,-1.13895 -4.2124,-1.7314 1.81844,-0.45688 3.6296,-0.95274 5.39245,-1.4799 1.79667,-0.53928 3.69732,-1.06156 5.24733,-1.80877 a 4.2797872,4.2797872 0 0 1 0.70616,-0.30944 c -0.0768,-0.13312 -0.16416,-0.25632 -0.24912,-0.38224 a 1.3340325,1.3340325 0 0 0 0.26128,-0.28536 c -0.47648,-0.68432 -1.00839,-1.31304 -1.4122,-2.07235 -5.49159,-0.50544 -11.15005,-0.84391 -17.06483,-0.92613 -0.2176,0.15008 -0.26832,0.46912 -0.52968,0.57312 -3.99715,-0.044 -8.10801,-0.16424 -11.99395,-0.17648 -0.2756,0.3652 -0.56344,0.71816 -0.8391,1.10267 -0.27072,0.38216 -0.47872,0.83668 -0.83668,1.14619 -0.25624,-0.5368 -0.57552,-1.01319 -0.83668,-1.54277 -1.9442,-0.0528 -3.92704,-0.068 -5.86881,-0.11832 1.84988,-2.26338 3.8279,-4.69604 5.72614,-6.97393 0.29744,-0.35552 0.82461,-0.83908 0.88264,-1.14619 a 6.1404976,6.1404976 0 0 0 -0.044,-1.27919 c -0.0312,-0.20064 -0.15728,-0.34824 -0.1764,-0.52968 -0.044,-0.40632 0.1332,-0.72064 0.1332,-1.1462 0.31424,-0.2612 0.36032,-0.75688 0.61664,-1.05914 0.1332,-0.1572 0.30712,-0.16216 0.39656,-0.35312 0.28768,-0.47648 0.75208,-0.95517 1.0132,-1.40978 0.0496,-0.0847 0.14752,-0.12816 0.044,-0.22016 -0.55856,0.51752 -0.54168,0.70848 -0.7424,0.9068 -0.1472,0.14512 -0.0152,-0.12576 -0.18368,-0.0216 a 1.6797154,1.6797154 0 0 1 -0.41584,0.50064 0.30142608,0.30142608 0 0 0 0.0752,-0.11112 c 0.28024,-0.48368 0.75448,-0.95758 1.01319,-1.4122 0.0496,-0.0848 0.14528,-0.12576 0.044,-0.22016 -0.62624,0.6456 -0.41352,0.46448 -0.61664,0.66256 -0.0584,0.19104 -0.2756,0.0216 -0.30952,0.1764 a 8.4582032,8.4582032 0 0 0 -0.83672,0.96952 c -0.12104,0.20056 -0.15216,0.41576 -0.26352,0.61664 -0.19112,0.3456 -0.5924,0.60696 -0.88262,0.96967 -0.41576,0.5224 -0.6868,1.20909 -1.14621,1.63226 -0.0112,0.13528 -0.097,0.19832 -0.1332,0.30944 -0.1332,-0.0512 -0.25416,0.25136 -0.26352,0.044 0.0112,-0.0632 0.0728,-0.0752 0.0891,-0.13312 0.068,-0.0192 0.008,-0.0536 -0.044,0 -0.37248,0.0704 -0.50784,0.37464 -0.7496,0.57312 a 0.74958976,0.74958976 0 0 1 -0.57312,0 c -2.69864,3.23546 -5.58349,6.29926 -8.245886,9.56858 -2.672024,3.28142 -5.319888,6.57975 -7.805752,10.05464 0.10904,0.0728 0.21528,0.14512 0.32152,0.21752 -0.0872,0.13312 -0.16936,0.26832 -0.24408,0.40368 1.383184,0.95516 2.71316,1.96111 4.188208,2.82198 4.7565,-3.58853 9.73303,-7.15529 14.475,-10.71237 q -1.98046,2.77845 -3.92466,5.59316 c 0.13552,0.087 0.26128,0.18616 0.38944,0.28296 a 0.680356,0.680356 0 0 0 -0.0919,0.38448 c 0.0512,0.24648 0.636,0.56344 0.92617,0.79312 a 6.7239564,6.7239564 0 0 0 0.96967,0.7496 c 0.22496,-0.0991 0.46664,-0.17912 0.70608,-0.26352 0.12104,-0.0648 0.22488,0.0216 0.39656,-0.044 3.1968,-0.96242 6.70311,-1.61531 10.31822,-2.15938 0.33136,-0.71336 0.80525,-1.28163 1.0132,-2.11588 -0.08,0.008 -0.162,0.016 -0.242,0.0216 a 6.10402,6.10402 0 0 0 0.3408,-0.82217 c -3.0807,0.48368 -6.18074,0.9455 -9.12121,1.56939 0.32416,-0.59976 0.6916,-1.21876 1.03983,-1.73865 2.59462,-0.3144 5.27636,-0.54416 7.84927,-0.88263 a 11.533673,11.533673 0 0 0 0.88261,-1.36623 c 0.0847,-0.13792 0.24408,-0.2756 0.22,-0.44 -0.10904,0.008 -0.2176,0.0136 -0.32624,0.0192 0.10632,-0.15952 0.2176,-0.31664 0.33824,-0.4644 0.0112,-0.0728 0.34336,-0.15952 0.1332,-0.17648 -2.62125,0.087 -4.8363,0.16208 -7.39952,0.29248 0.10904,-0.21528 0.22,-0.42792 0.33136,-0.6384 1.33479,0.0384 2.59947,-0.11832 3.70456,-0.17632 0.15728,-0.14736 0.2612,-0.40632 0.52968,-0.48592 0.37736,-0.11112 1.12201,-0.016 1.80878,-0.044 1.18487,-0.0512 2.24647,0.0536 3.21853,0.044 a 2.2234028,2.2234028 0 0 0 0.44024,-0.52968 c 0.002,0 0.004,-0.002 0.009,-0.002 -1.3082,2.88241 -2.56564,5.7479 -3.87631,8.59406 -0.4836,1.0519 -1.08087,2.07959 -1.41216,3.21855 0.068,0.0871 0.13544,0.1716 0.2056,0.25864 -0.044,0.12096 -0.0919,0.24176 -0.1304,0.3652 0.25856,0.41584 0.4184,0.48128 0.83184,1.01804 a 14.344313,14.344313 0 0 0 1.3735,1.36382 c 0.94306,-2.0409 1.76042,-4.16645 2.77845,-6.1735 l 0.83668,-1.85231 a 12.917986,12.917986 0 0 1 1.27917,0.48592 c 0.9721,0.43056 1.92726,0.84635 2.86552,1.23327 0.46168,0.19104 0.88261,0.42328 1.32272,0.61904 l 5.85673,2.12312 c 0.28768,0.099 0.67224,0.254 0.97935,0.3384 z m -26.40125,-24.12578 a 5.9956024,5.9956024 0 0 0 0.57304,-1.01561 1.8039329,1.8039329 0 0 1 0.3288,-0.254 1.734305,1.734305 0 0 0 -0.34096,0.3916 c -0.13504,0.2344 -0.15728,0.52472 -0.30952,0.7496 a 2.1504524,2.1504524 0 0 1 -0.30216,0.34336 c 0.0192,-0.0704 0.028,-0.14272 0.052,-0.21528 z m -9.4356,17.24135 c -1.27679,0.86085 -2.570484,1.73138 -3.820644,2.58742 1.470208,-1.79428 2.996064,-3.67076 4.514634,-5.40214 a 0.2195672,0.2195672 0 0 1 0.1332,-0.1332 c 1.04706,0.0584 2.1062,0.10408 3.12424,0.19336 -1.24292,0.91889 -2.614,1.84987 -3.95125,2.75427 z m 23.30605,-5.55448 c -0.0192,0 -0.0384,-0.002 -0.0552,-0.002 a 0.41614752,0.41614752 0 0 1 0.0768,-0.044 0.26839664,0.26839664 0 0 0 -0.0208,0.0464 z m 2.97429,4.05281 c -0.41112,-0.18624 -0.84392,-0.34824 -1.28886,-0.498 a 19.153257,19.153257 0 0 1 0.83669,-1.92 c 2.909,-0.0384 6.12269,0.0496 8.99547,0.18376 -2.79537,0.798 -5.68748,1.49924 -8.5433,2.23435 z m 58.4634,-3.69975 c 0.1184,-0.22232 0.23936,-0.44008 0.36048,-0.66256 -1.08332,-0.06 -2.3045,0.19336 -3.175,0.044 -1.29857,1.89098 -2.36738,4.16886 -3.5281,6.12756 a 8.0102064,8.0102064 0 0 1 -0.54648,0.89955 c -0.54176,-2.26597 -1.0834,-4.7083 -1.833,-6.76613 h -0.96968 c 0.12816,-0.27064 -0.0512,-0.35312 -0.1764,-0.48584 0.068,-0.24184 0.26624,-0.3532 0.26352,-0.66256 l -0.1764,0.13312 c -0.59728,0.99143 -1.1293,2.00221 -1.63226,3.04202 -0.49576,1.03014 -1.12684,1.99739 -1.67577,2.9985 -1.10509,2.01431 -2.23436,4.01896 -3.21856,6.12999 0.20784,-0.0752 0.23712,-0.1136 0.39656,-0.08 -0.10632,0.22016 -0.21536,0.43768 -0.31928,0.65776 0.19352,-0.17912 0.2344,-0.068 0.52968,-0.044 0.86814,-0.21752 2.04092,-0.2804 3.04206,-0.48592 0.93821,-1.6927 1.90064,-3.36123 2.86548,-5.02732 0.46664,1.85472 0.89229,3.75295 1.36624,5.60041 a 22.987168,22.987168 0 0 0 2.55837,-0.0894 c 2.07238,-3.77954 4.17374,-7.52523 6.21706,-11.3314 -0.116,0 -0.23208,0 -0.3484,0.002 z m 29.73828,20.12616 c 0.0992,0.0512 0.1982,0.10408 0.29744,0.15496 -0.0704,-0.12104 -0.23208,-0.15 -0.26624,-0.30944 a 1.1844682,1.1844682 0 0 1 0,-0.61664 3.071926,3.071926 0 0 1 -0.39656,-0.39656 c -0.0704,0.036 0,-0.35312 0,-0.35312 q -0.25408,-0.17064 -0.5224,-0.33368 a 0.40866568,0.40866568 0 0 0 0.0232,-0.19112 c -4.42518,-2.57774 -8.9302,-5.04182 -13.3167,-7.62922 -0.82942,-0.4908 -1.66852,-0.96484 -2.50036,-1.44847 -0.0584,-0.25632 -0.116,-0.51024 -0.1792,-0.76168 -0.45224,-0.24184 -0.88986,-0.49344 -1.32028,-0.75448 a 0.36059312,0.36059312 0 0 0 0.028,-0.0328 c 0.1548,-0.08 0.30216,-0.12104 0.48592,-0.22016 -0.174,-0.11352 -0.35304,-0.22496 -0.53192,-0.33624 a 2.5017018,2.5017018 0 0 1 0.54168,-0.24424 c -0.35304,-0.22728 -0.7496,-0.51752 -1.1462,-0.7496 -0.827,-0.48368 -1.64432,-0.99383 -2.42538,-1.45572 -0.23712,-0.14024 -0.48592,-0.254 -0.71816,-0.3916 1.2187,-0.66496 2.47856,-1.30095 3.74808,-1.98529 0.694,-0.37248 1.41948,-0.72304 2.11832,-1.10268 0.99866,-0.54168 2.1062,-0.92129 2.77844,-1.67576 1.59838,-0.76896 3.16534,-1.56695 4.7613,-2.33834 0.6916,-0.91163 1.10268,-2.10137 2.24888,-2.55839 0.109,-0.24912 0.40368,-0.58032 0.44008,-0.7496 0,0.002 -0.0408,-0.002 -0.044,0 -0.35304,0.20808 -0.72064,0.40144 -1.08814,0.59248 a 2.1957418,2.1957418 0 0 1 0.65768,-0.4232 c 0.1258,-0.15224 0.174,-0.38208 0.35304,-0.48584 -0.002,-0.13312 0.0942,-0.17168 0.1332,-0.26352 0.0464,-0.0248 0.28024,-0.18376 0.0872,-0.1764 -3.21858,1.74347 -6.60636,3.22339 -9.92164,4.85079 -3.15566,1.55002 -6.33068,3.07587 -9.46704,4.62831 0.66256,-1.25259 1.3469,-2.481 2.00468,-3.73845 l -0.33368,0.016 c 0.1136,-0.21272 0.22968,-0.4256 0.34336,-0.6384 -1.20424,-0.044 -2.18114,0.14024 -3.39506,0.0893 -0.23432,-0.028 -0.22496,-0.30456 -0.39656,-0.39656 -1.65888,3.05896 -3.3153,6.12033 -4.93786,9.21555 0.0584,0.12104 0.1234,0.2612 0.1884,0.40368 l -0.0208,0.044 c -0.52704,0.99626 -1.13654,1.96836 -1.54278,3.04202 0.6432,0.76896 1.74348,1.46055 2.64544,2.11587 a 11.167438,11.167438 0 0 1 0.83732,-1.67613 c 0.89954,-1.61533 1.80636,-3.22098 2.68896,-4.85079 1.57666,0.77384 3.05896,1.64432 4.54128,2.51244 0.1378,0.12816 0.21024,0.31928 0.39656,0.39656 3.61026,2.00704 7.3076,3.92946 10.98078,5.90992 3.67072,1.97805 7.3608,3.95608 11.02428,5.82047 -0.08,0.0136 0.2176,0.24648 0.26352,0.1332 a 0.80596624,0.80596624 0 0 1 -0.1472,-0.63856 z" />
  <path
     style="fill:#ac7f5c;stroke-width:8"
     d="m 175.61106,58.327252 c -0.76568,10.075036 0.87639,10.176884 0.24048,13.43046 -0.69584,3.560304 -1.34704,6.30944 -1.32977,9.205464 0.0232,3.896368 -2.50226,6.336576 -3.59487,10.034976 -1.47728,5.00048 -1.7714,11.084618 -3.08377,14.761928 -1.76584,4.94794 -5.22628,7.29834 -9.15322,5.78692 -9.09496,-3.50051 -16.47808,-5.80798 -22.26187,-11.32682 -12.57177,-11.995836 -16.42548,-34.468892 -16.42548,-43.484296 0,-13.660916 12.22654,-24.735276 27.30872,-24.735272 15.08218,-4e-6 29.33514,12.704084 28.2998,26.32664 z"
     id="path13" />
  <path
     style="fill:url(#linearGradient891);stroke-width:8"
     d="m 161.83319,80.83684 5.70711,-2.203424 c -0.92114,0.13 1.30132,7.991744 3.198,12.5696 0.52544,1.268248 0.11416,2.428184 -0.22472,2.916856 -0.80958,1.167336 -3.99476,-0.74512 -6.52695,-1.467112 -1.98213,-0.5652 -2.27731,0.61024 -2.27731,0.61024 -2.50369,0.23384 -1.08607,-1.865368 -0.35136,-4.99616 0.56496,-2.4074 0.21976,-5.674904 0.47528,-7.429992 z"
     id="path14" />
  <path
     style="opacity:0.6;stroke-width:8"
     d="m 148.94767,79.721376 10.03479,-0.61208 1.7344,0.36728 c 0,0 -1.11498,3.745872 -11.76919,0.2448 z"
     id="path15" />
  <path
     style="opacity:0.6;stroke-width:8"
     d="m 174.01254,76.245176 -3.33526,1.907576 -1.01114,0.85152 c 0,0 2.63444,2.70988 4.3464,-2.759096 z"
     id="path16" />
  <path
     style="fill:#67553c;stroke-width:8"
     d="m 147.31602,32.001096 c -15.0822,0 -27.31464,11.078796 -27.31464,24.739708 0,5.217956 1.3658,14.93546 4.89083,24.529116 4.70966,0.14768 10.4435,-2.372 10.4435,-2.372 0,0 11.27039,-9.979208 11.59891,-22.910828 6.29911,3.241152 15.71412,7.191604 23.76991,5.918904 2.75551,-0.435312 3.80657,-3.530104 4.80109,-7.060568 -1.35995,-12.22658 -14.40483,-22.844332 -28.1896,-22.844332 z"
     id="path17" />
  <path
     style="fill:url(#linearGradient899);stroke-width:8"
     d="m 121.30906,69.85176 c 1.81729,-3.712664 4.18,-2.574824 6.5803,-1.102776 3.2923,1.167728 3.08905,3.149984 3.29093,4.596992 l 0.87255,9.579712 c 0.0922,1.933304 -2.03748,1.895824 -2.03748,1.895824 L 127.4093,84.0168 c -7.84451,-4.72168 -6.99232,-9.44336 -6.10024,-14.16504 z"
     id="path18" />
  <path
     style="fill:#ac5c5c;stroke-width:8"
     d="m 165.31944,98.675216 c 1.71992,-0.57464 4.5537,-2.952832 4.5537,-2.952832 0,0 -1.06344,3.938288 -3.69988,5.061996 -2.63644,1.12372 -10.81506,-1.406108 -10.81506,-1.406108 0,0 6.80773,0.35048 9.96124,-0.70304 z"
     id="path19" />
  <path
     id="path1040"
     style="opacity:0.2;fill:#ffffff;stroke-width:16;stroke-linecap:square"
     d="M 64,16 C 37.40808,16 16,37.40808 16,64 v 2 C 16,39.408084 37.40808,18 64,18 h 128 c 26.59192,0 48,21.408084 48,48 V 64 C 240,37.40808 218.59192,16 192,16 Z" />
</svg>
