<?xml version="1.0" encoding="UTF-8" standalone="no"?>
<!-- Created with Inkscape (http://www.inkscape.org/) -->

<svg
   width="256"
   height="256"
   viewBox="0 0 256 256"
   version="1.1"
   id="svg5"
   inkscape:version="1.3.2 (091e20ef0f, 2023-11-25, custom)"
   sodipodi:docname="desktop-profiler.svg"
   xmlns:inkscape="http://www.inkscape.org/namespaces/inkscape"
   xmlns:sodipodi="http://sodipodi.sourceforge.net/DTD/sodipodi-0.dtd"
   xmlns="http://www.w3.org/2000/svg"
   xmlns:svg="http://www.w3.org/2000/svg">
  <sodipodi:namedview
     id="namedview7"
     pagecolor="#ffffff"
     bordercolor="#000000"
     borderopacity="0.25"
     inkscape:showpageshadow="2"
     inkscape:pageopacity="0.0"
     inkscape:pagecheckerboard="0"
     inkscape:deskcolor="#d1d1d1"
     inkscape:document-units="px"
     showgrid="false"
     inkscape:zoom="3.2109375"
     inkscape:cx="128"
     inkscape:cy="128"
     inkscape:window-width="1920"
     inkscape:window-height="1008"
     inkscape:window-x="0"
     inkscape:window-y="0"
     inkscape:window-maximized="1"
     inkscape:current-layer="svg5" />
  <defs
     id="defs2" />
  <rect
     style="opacity:0.2;fill:#000000;stroke-width:16;stroke-linecap:square"
     id="rect234"
     width="224"
     height="224"
     x="16"
     y="18"
     ry="48" />
  <rect
     style="fill:#673ab7;fill-opacity:1;stroke-width:16;stroke-linecap:square"
     id="rect396"
     width="224"
     height="192"
     x="16.000004"
     y="16"
     ry="48" />
  <path
     id="rect391"
     style="fill:#7e57c2;fill-opacity:1;stroke-width:16;stroke-linecap:square"
     d="M 16,71.999999 V 192 c 0,26.59192 21.408068,48 47.999999,48 H 192 c 26.59192,0 48,-21.40808 48,-48 V 71.999999 Z" />
  <path
     id="path4"
     style="opacity:0.2;fill:#000000;stroke-width:8"
     d="m 116.004,97.999997 v 17.890623 a 39.999997,39.999997 0 0 0 -15.01563,8.65625 l -15.484373,-8.9375 -11.999998,20.78125 15.484374,8.9375 a 39.999997,39.999997 0 0 0 -0.984376,8.67187 39.999997,39.999997 0 0 0 1,8.65625 l -15.499998,8.95313 11.999998,20.78125 15.500003,-8.95312 a 39.999997,39.999997 0 0 0 15,8.71874 V 210 h 23.99999 v -17.89062 a 39.999997,39.999997 0 0 0 15.01563,-8.65626 l 15.48437,8.9375 12,-20.78125 -15.48437,-8.93751 a 39.999997,39.999997 0 0 0 0.98437,-8.67187 39.999997,39.999997 0 0 0 -1,-8.65625 l 15.5,-8.95312 -12,-20.78125 -15.5,8.95312 a 39.999997,39.999997 0 0 0 -15,-8.71874 V 97.999997 Z M 128.004,130 a 24,24 0 0 1 23.99999,23.99999 24,24 0 0 1 -23.99999,24 24,24 0 0 1 -24,-24 24,24 0 0 1 24,-23.99999 z" />
  <path
     style="fill:#ffffff;stroke-width:8"
     d="m 116.008,95.999997 v 17.890623 a 39.999997,39.999997 0 0 0 -15.01563,8.65625 l -15.484373,-8.9375 -11.999998,20.78125 15.484374,8.9375 a 39.999997,39.999997 0 0 0 -0.984376,8.67187 39.999997,39.999997 0 0 0 1,8.65625 l -15.499998,8.95313 11.999998,20.78125 15.500003,-8.95312 a 39.999997,39.999997 0 0 0 15,8.71874 V 208 h 23.99999 v -17.89062 a 39.999997,39.999997 0 0 0 15.01563,-8.65626 l 15.48437,8.9375 12,-20.78125 -15.48437,-8.93751 a 39.999997,39.999997 0 0 0 0.98437,-8.67187 39.999997,39.999997 0 0 0 -1,-8.65625 l 15.5,-8.95312 -12,-20.78125 -15.5,8.95312 a 39.999997,39.999997 0 0 0 -15,-8.71874 V 95.999997 Z M 128.008,128 a 24,24 0 0 1 23.99999,23.99999 24,24 0 0 1 -23.99999,24 24,24 0 0 1 -24,-24 24,24 0 0 1 24,-23.99999 z"
     id="path5" />
  <g
     id="g361"
     transform="matrix(3.9999765,0,0,3.9999765,2.8007247e-4,2.8007247e-4)" />
  <path
     id="path1040"
     style="opacity:0.1;fill:#ffffff;stroke-width:16;stroke-linecap:square"
     d="M 63.999999,16 C 37.40808,16 16,37.40808 16,63.999999 v 2 C 16,39.40808 37.40808,18 63.999999,18 H 192 c 26.59192,0 48,21.40808 48,47.999999 v -2 C 240,37.40808 218.59192,16 192,16 Z" />
</svg>
