<?xml version="1.0" encoding="UTF-8" standalone="no"?>
<!-- Created with Inkscape (http://www.inkscape.org/) -->

<svg
   width="256"
   height="256"
   viewBox="0 0 256 256"
   version="1.1"
   id="svg5"
   inkscape:version="1.3 (0e150ed6c4, 2023-07-21)"
   sodipodi:docname="draw.io.svg"
   xmlns:inkscape="http://www.inkscape.org/namespaces/inkscape"
   xmlns:sodipodi="http://sodipodi.sourceforge.net/DTD/sodipodi-0.dtd"
   xmlns="http://www.w3.org/2000/svg"
   xmlns:svg="http://www.w3.org/2000/svg">
  <sodipodi:namedview
     id="namedview7"
     pagecolor="#ffffff"
     bordercolor="#000000"
     borderopacity="0.25"
     inkscape:showpageshadow="2"
     inkscape:pageopacity="0.0"
     inkscape:pagecheckerboard="0"
     inkscape:deskcolor="#d1d1d1"
     inkscape:document-units="px"
     showgrid="false"
     inkscape:zoom="3.125"
     inkscape:cx="127.84"
     inkscape:cy="128"
     inkscape:window-width="1920"
     inkscape:window-height="1004"
     inkscape:window-x="0"
     inkscape:window-y="0"
     inkscape:window-maximized="1"
     inkscape:current-layer="svg5" />
  <defs
     id="defs2" />
  <rect
     style="opacity:0.2;fill:#000000;stroke-width:16;stroke-linecap:square"
     id="rect234"
     width="224"
     height="224"
     x="16"
     y="18"
     ry="48" />
  <rect
     style="fill:#f58800;fill-opacity:1;stroke-width:16;stroke-linecap:square"
     id="rect396"
     width="224"
     height="224"
     x="16"
     y="16"
     ry="48" />
  <path
     style="fill:#3f3f3f;stroke-width:8;-inkscape-stroke:none"
     d="m 128,70.968752 -55.625,98.890628 10.453128,5.875 L 128,95.437504 l 45.17187,80.296876 10.45313,-5.875 z"
     id="path2" />
  <path
     style="opacity:0.2;fill:#000000;stroke-width:8"
     d="M 106.67187,58 C 100.76254,58 96,62.998328 96,69.203128 V 102.79687 C 96,109.00167 100.76254,114 106.67187,114 h 42.65626 C 155.23746,114 160,109.00167 160,102.79687 V 69.203128 C 160,62.998328 155.23746,58 149.32813,58 Z M 58.671876,146 C 52.762544,146 48,150.99833 48,157.20313 v 33.59375 C 48,197.00168 52.762544,202 58.671876,202 H 101.32813 C 107.23746,202 112,197.00168 112,190.79688 V 157.20313 C 112,150.99833 107.23746,146 101.32813,146 Z m 95.999994,0 C 148.76254,146 144,150.99833 144,157.20313 v 33.59375 C 144,197.00168 148.76254,202 154.67187,202 h 42.65625 C 203.23746,202 208,197.00168 208,190.79688 V 157.20313 C 208,150.99833 203.23746,146 197.32812,146 Z"
     id="path3" />
  <path
     style="fill:#ffffff;stroke-width:8"
     d="M 106.67187,56 C 100.76254,56 96,60.998324 96,67.203128 V 100.79687 C 96,107.00167 100.76254,112 106.67187,112 h 42.65626 C 155.23746,112 160,107.00167 160,100.79687 V 67.203128 C 160,60.998324 155.23746,56 149.32813,56 Z M 58.671876,144 C 52.762544,144 48,148.99833 48,155.20313 v 33.59375 C 48,195.00168 52.762544,200 58.671876,200 H 101.32813 C 107.23746,200 112,195.00168 112,188.79688 V 155.20313 C 112,148.99833 107.23746,144 101.32813,144 Z m 95.999994,0 C 148.76254,144 144,148.99833 144,155.20313 v 33.59375 C 144,195.00168 148.76254,200 154.67187,200 h 42.65625 C 203.23746,200 208,195.00168 208,188.79688 V 155.20313 C 208,148.99833 203.23746,144 197.32812,144 Z"
     id="path4" />
  <path
     id="path1040"
     style="opacity:0.2;fill:#ffffff;stroke-width:16;stroke-linecap:square"
     d="M 64,16 C 37.40808,16 16,37.40808 16,64 v 2 C 16,39.408084 37.40808,18 64,18 h 128 c 26.59192,0 48,21.408084 48,48 V 64 C 240,37.40808 218.59192,16 192,16 Z" />
</svg>
