<?xml version="1.0" encoding="UTF-8" standalone="no"?>
<!-- Created with Inkscape (http://www.inkscape.org/) -->

<svg
   width="256"
   height="256"
   viewBox="0 0 256 256"
   version="1.1"
   id="svg5"
   inkscape:version="1.2.2 (1:1.2.2+202305151914+b0a8486541)"
   sodipodi:docname="elisa.svg"
   xmlns:inkscape="http://www.inkscape.org/namespaces/inkscape"
   xmlns:sodipodi="http://sodipodi.sourceforge.net/DTD/sodipodi-0.dtd"
   xmlns="http://www.w3.org/2000/svg"
   xmlns:svg="http://www.w3.org/2000/svg">
  <sodipodi:namedview
     id="namedview7"
     pagecolor="#ffffff"
     bordercolor="#000000"
     borderopacity="0.25"
     inkscape:showpageshadow="2"
     inkscape:pageopacity="0.0"
     inkscape:pagecheckerboard="0"
     inkscape:deskcolor="#d1d1d1"
     inkscape:document-units="px"
     showgrid="false"
     inkscape:zoom="3.1484375"
     inkscape:cx="127.84119"
     inkscape:cy="128"
     inkscape:window-width="1920"
     inkscape:window-height="1008"
     inkscape:window-x="0"
     inkscape:window-y="0"
     inkscape:window-maximized="1"
     inkscape:current-layer="svg5" />
  <defs
     id="defs2" />
  <rect
     style="opacity:0.2;fill:#000000;stroke-width:16;stroke-linecap:square"
     id="rect234"
     width="224"
     height="224"
     x="16.000004"
     y="18"
     ry="48" />
  <rect
     style="fill:#1eb5c5;fill-opacity:1;stroke-width:16;stroke-linecap:square"
     id="rect396"
     width="224"
     height="224"
     x="16"
     y="16"
     ry="48" />
  <path
     d="m 96.000003,57.999999 v 84.296881 c -4.86368,-2.81196 -10.38192,-4.29392 -16,-4.29688 -17.67312,0 -32,14.32688 -32,32 0,17.67312 14.32688,32 32,32 C 97.673123,202 112,187.67312 112,170 V 81.999999 h 72 v 60.296881 c -4.86368,-2.81196 -10.38192,-4.29392 -16,-4.29688 -17.67312,0 -32,14.32688 -32,32 0,17.67312 14.32688,32 32,32 17.67312,0 32,-14.32688 32,-32 V 57.999999 Z"
     style="opacity:0.2;fill:#000000;fill-opacity:1;stroke:none;stroke-width:53.3332;stroke-linecap:round;stroke-linejoin:round"
     id="path1339"
     sodipodi:nodetypes="cccsssccccssscc" />
  <path
     d="m 96.000003,55.999999 v 84.296881 c -4.86368,-2.81196 -10.38192,-4.29392 -16,-4.29688 -17.67312,0 -32,14.32688 -32,32 0,17.67312 14.32688,32 32,32 C 97.673123,200 112,185.67312 112,168 V 79.999999 h 72 v 60.296881 c -4.86368,-2.81196 -10.38192,-4.29392 -16,-4.29688 -17.67312,0 -32,14.32688 -32,32 0,17.67312 14.32688,32 32,32 17.67312,0 32,-14.32688 32,-32 V 55.999999 Z"
     style="fill:#ffffff;fill-opacity:1;stroke:none;stroke-width:53.3332;stroke-linecap:round;stroke-linejoin:round"
     id="path1311"
     sodipodi:nodetypes="cccsssccccssscc" />
  <path
     id="path1040"
     style="opacity:0.2;fill:#ffffff;stroke-width:16;stroke-linecap:square"
     d="M 64.000003,16 C 37.408056,16 16.000004,37.408054 16.000004,63.999999 v 2 C 16.000004,39.408026 37.40803,18 64.000003,18 H 192 c 26.59198,0 48,21.408026 48,47.999999 v -2 C 240,37.408054 218.59194,16 192,16 Z" />
</svg>
