<?xml version="1.0" encoding="UTF-8" standalone="no"?>
<!-- Created with Inkscape (http://www.inkscape.org/) -->

<svg
   width="256"
   height="256"
   viewBox="0 0 256 256"
   version="1.1"
   id="svg5"
   inkscape:version="1.3 (1:1.3+202307231459+0e150ed6c4)"
   sodipodi:docname="filezilla.svg"
   xmlns:inkscape="http://www.inkscape.org/namespaces/inkscape"
   xmlns:sodipodi="http://sodipodi.sourceforge.net/DTD/sodipodi-0.dtd"
   xmlns="http://www.w3.org/2000/svg"
   xmlns:svg="http://www.w3.org/2000/svg">
  <sodipodi:namedview
     id="namedview7"
     pagecolor="#ffffff"
     bordercolor="#000000"
     borderopacity="0.25"
     inkscape:showpageshadow="2"
     inkscape:pageopacity="0.0"
     inkscape:pagecheckerboard="0"
     inkscape:deskcolor="#d1d1d1"
     inkscape:document-units="px"
     showgrid="false"
     inkscape:zoom="2.8046875"
     inkscape:cx="128"
     inkscape:cy="127.82173"
     inkscape:window-width="1920"
     inkscape:window-height="1008"
     inkscape:window-x="0"
     inkscape:window-y="0"
     inkscape:window-maximized="1"
     inkscape:current-layer="svg5" />
  <defs
     id="defs2" />
  <rect
     style="opacity:0.2;fill:#000000;stroke-width:16;stroke-linecap:square"
     id="rect234"
     width="224"
     height="224"
     x="16"
     y="18"
     ry="48" />
  <rect
     style="fill:#b71c1c;fill-opacity:1;stroke-width:16;stroke-linecap:square"
     id="rect396"
     width="224"
     height="224"
     x="16"
     y="16"
     ry="48" />
  <path
     d="M 85.184,58 56,187.472 h 23.7152 l 13.776,-57.9408 h 64.736 L 97.6024,183.8 l 15.808,18.2 8.096,-4.168 c 15.30792,-7.87088 21.72872,-3.26864 33.34312,-0.0464 11.2992,3.13568 21.9208,6.49168 43.9592,-6.21136 l -4.37648,-22.4208 c -24.0512,17.1008 -31.66,1.84352 -48.7896,1.23784 l 49.0416,-41.4968 5.32136,-22.152 H 97.2776 l 6.6128,-26.5864 h 67.332 l 4.61752,-22.152 h -90.648 z"
     style="opacity:0.2;fill:#000000;stroke-width:8"
     id="path3289" />
  <path
     d="M 85.184,56 56,185.472 h 23.7152 l 13.776,-57.9408 h 64.736 L 97.6024,181.8 l 15.808,18.2 8.096,-4.168 c 15.30792,-7.87088 21.72872,-3.26864 33.34312,-0.0464 11.2992,3.13568 21.9208,6.49168 43.9592,-6.21136 l -4.37648,-22.4208 c -24.0512,17.1008 -31.66,1.84352 -48.7896,1.23784 l 49.0416,-41.4968 5.32136,-22.152 H 97.2776 l 6.6128,-26.5864 h 67.332 l 4.61752,-22.152 h -90.648 z"
     style="fill:#ffffff;stroke-width:8"
     id="path3261"
     sodipodi:nodetypes="cccccccccccccccccccc" />
  <path
     id="path1040"
     style="opacity:0.2;fill:#ffffff;stroke-width:16;stroke-linecap:square"
     d="M 64,16 C 37.408052,16 16,37.408056 16,64 v 2 C 16,39.408056 37.408052,18 64,18 h 128 c 26.59194,0 48,21.408056 48,48 V 64 C 240,37.408056 218.59194,16 192,16 Z"
     sodipodi:nodetypes="sscsscsss" />
</svg>
