<?xml version="1.0" encoding="UTF-8" standalone="no"?>
<!-- Created with Inkscape (http://www.inkscape.org/) -->

<svg
   width="256"
   height="256"
   viewBox="0 0 256 256"
   version="1.1"
   id="svg5"
   inkscape:version="1.3.2 (091e20ef0f, 2023-11-25, custom)"
   sodipodi:docname="gksu.svg"
   xmlns:inkscape="http://www.inkscape.org/namespaces/inkscape"
   xmlns:sodipodi="http://sodipodi.sourceforge.net/DTD/sodipodi-0.dtd"
   xmlns="http://www.w3.org/2000/svg"
   xmlns:svg="http://www.w3.org/2000/svg">
  <sodipodi:namedview
     id="namedview7"
     pagecolor="#ffffff"
     bordercolor="#000000"
     borderopacity="0.25"
     inkscape:showpageshadow="2"
     inkscape:pageopacity="0.0"
     inkscape:pagecheckerboard="0"
     inkscape:deskcolor="#d1d1d1"
     inkscape:document-units="px"
     showgrid="false"
     inkscape:zoom="3.1054688"
     inkscape:cx="127.83899"
     inkscape:cy="128"
     inkscape:window-width="1920"
     inkscape:window-height="1008"
     inkscape:window-x="0"
     inkscape:window-y="0"
     inkscape:window-maximized="1"
     inkscape:current-layer="svg5" />
  <defs
     id="defs2" />
  <rect
     style="opacity:0.2;fill:#000000;stroke-width:16;stroke-linecap:square"
     id="rect234"
     width="224"
     height="224"
     x="16"
     y="18"
     ry="48" />
  <rect
     style="fill:#eb5555;fill-opacity:1;stroke-width:16;stroke-linecap:square"
     id="rect396"
     width="224"
     height="224"
     x="16"
     y="16"
     ry="48" />
  <path
     d="m 128,134.00001 c -55.9944,0.0336 -56,35.44615 -56,35.44615 v 14.4 c 0,0 10.338392,22.15384 56,22.15384 45.66161,0 56,-22.15384 56,-22.15384 v -14.4 c 0,0 0,-35.4683 -55.9888,-35.44615 z M 128,58 c -15.4672,0 -28,12.5384 -28,28 0,15.4616 12.5328,28 28,28 15.4672,0 28,-12.5384 28,-28 0,-15.4616 -12.5328,-28 -28,-28 z"
     style="opacity:0.2;fill:#000000;stroke-width:4"
     id="path1327" />
  <path
     d="m 128,132.00001 c -55.9944,0.0336 -56,35.44615 -56,35.44615 v 14.4 c 0,0 10.338392,22.15384 56,22.15384 45.66161,0 56,-22.15384 56,-22.15384 v -14.4 c 0,0 0,-35.4683 -55.9888,-35.44615 z M 128,56 c -15.4672,0 -28,12.5384 -28,28 0,15.4616 12.5328,28 28,28 15.4672,0 28,-12.5384 28,-28 0,-15.4616 -12.5328,-28 -28,-28 z"
     style="fill:#ffffff;stroke-width:4"
     id="path361" />
  <path
     id="path1040"
     style="opacity:0.2;fill:#ffffff;stroke-width:16;stroke-linecap:square"
     d="M 64,16 C 37.408052,16 16,37.408056 16,64 v 2 C 16,39.408028 37.408028,18 64,18 h 128 c 26.59198,0 48,21.408028 48,48 V 64 C 240,37.408056 218.59194,16 192,16 Z" />
</svg>
