<?xml version="1.0" encoding="UTF-8" standalone="no"?>
<!-- Created with Inkscape (http://www.inkscape.org/) -->

<svg
   width="256"
   height="256"
   viewBox="0 0 256 256"
   version="1.1"
   id="svg5"
   inkscape:version="1.3 (0e150ed6c4, 2023-07-21)"
   sodipodi:docname="gnome-logs.svg"
   xmlns:inkscape="http://www.inkscape.org/namespaces/inkscape"
   xmlns:sodipodi="http://sodipodi.sourceforge.net/DTD/sodipodi-0.dtd"
   xmlns="http://www.w3.org/2000/svg"
   xmlns:svg="http://www.w3.org/2000/svg">
  <sodipodi:namedview
     id="namedview7"
     pagecolor="#ffffff"
     bordercolor="#000000"
     borderopacity="0.25"
     inkscape:showpageshadow="2"
     inkscape:pageopacity="0.0"
     inkscape:pagecheckerboard="0"
     inkscape:deskcolor="#d1d1d1"
     inkscape:document-units="px"
     showgrid="false"
     inkscape:zoom="2.8476562"
     inkscape:cx="128"
     inkscape:cy="128"
     inkscape:window-width="1920"
     inkscape:window-height="937"
     inkscape:window-x="0"
     inkscape:window-y="32"
     inkscape:window-maximized="1"
     inkscape:current-layer="svg5" />
  <defs
     id="defs2" />
  <rect
     style="opacity:0.2;fill:#000000;stroke-width:16;stroke-linecap:square"
     id="rect234"
     width="224"
     height="224"
     x="15.999975"
     y="18"
     ry="48" />
  <rect
     style="fill:#e4e4e4;fill-opacity:1;stroke-width:16;stroke-linecap:square"
     id="rect396"
     width="224"
     height="224"
     x="15.999975"
     y="16"
     ry="48" />
  <path
     id="path4"
     style="fill:#b0b0b0;stroke-width:8"
     d="m 43.999976,52 c -2.209132,0 -4,1.790868 -4,4 0,2.209132 1.790868,4 4,4 2.209128,0 4,-1.790868 4,-4 0,-2.209132 -1.790872,-4 -4,-4 z m 12,0 v 8 H 199.99998 v -8 z m 156.000004,0 c -2.20914,0 -4,1.790868 -4,4 0,2.209132 1.79086,4 4,4 2.20914,0 4,-1.790868 4,-4 0,-2.209132 -1.79086,-4 -4,-4 z M 43.999976,76 c -2.209132,0 -4,1.790864 -4,4 0,2.209136 1.790868,4 4,4 2.209128,0 4,-1.790864 4,-4 0,-2.209136 -1.790872,-4 -4,-4 z m 12,0 v 8 H 199.99998 v -8 z m 156.000004,0 c -2.20914,0 -4,1.790864 -4,4 0,2.209136 1.79086,4 4,4 2.20914,0 4,-1.790864 4,-4 0,-2.209136 -1.79086,-4 -4,-4 z M 43.999976,100 c -2.209132,0 -4,1.79086 -4,4 0,2.20914 1.790868,4 4,4 2.209128,0 4,-1.79086 4,-4 0,-2.20914 -1.790872,-4 -4,-4 z m 12,0 v 8 H 199.99998 v -8 z m 156.000004,0 c -2.20914,0 -4,1.79086 -4,4 0,2.20914 1.79086,4 4,4 2.20914,0 4,-1.79086 4,-4 0,-2.20914 -1.79086,-4 -4,-4 z M 43.999976,124 c -2.209132,0 -4,1.79086 -4,4 0,2.20914 1.790868,4 4,4 2.209128,0 4,-1.79086 4,-4 0,-2.20914 -1.790872,-4 -4,-4 z m 12,0 v 8 H 199.99998 v -8 z m 156.000004,0 c -2.20914,0 -4,1.79086 -4,4 0,2.20914 1.79086,4 4,4 2.20914,0 4,-1.79086 4,-4 0,-2.20914 -1.79086,-4 -4,-4 z M 43.999976,148 c -2.209132,0 -4,1.79086 -4,4 0,2.20914 1.790868,4 4,4 2.209128,0 4,-1.79086 4,-4 0,-2.20914 -1.790872,-4 -4,-4 z m 12,0 v 8 H 199.99998 v -8 z m 156.000004,0 c -2.20914,0 -4,1.79086 -4,4 0,2.20914 1.79086,4 4,4 2.20914,0 4,-1.79086 4,-4 0,-2.20914 -1.79086,-4 -4,-4 z M 43.999976,172 c -2.209132,0 -4,1.79086 -4,4 0,2.20914 1.790868,4 4,4 2.209128,0 4,-1.79086 4,-4 0,-2.20914 -1.790872,-4 -4,-4 z m 12,0 v 8 H 199.99998 v -8 z m 156.000004,0 c -2.20914,0 -4,1.79086 -4,4 0,2.20914 1.79086,4 4,4 2.20914,0 4,-1.79086 4,-4 0,-2.20914 -1.79086,-4 -4,-4 z M 43.999976,196 c -2.209132,0 -4,1.79086 -4,4 0,2.20914 1.790868,4 4,4 2.209128,0 4,-1.79086 4,-4 0,-2.20914 -1.790872,-4 -4,-4 z m 12,0 v 8 H 199.99998 v -8 z m 156.000004,0 c -2.20914,0 -4,1.79086 -4,4 0,2.20914 1.79086,4 4,4 2.20914,0 4,-1.79086 4,-4 0,-2.20914 -1.79086,-4 -4,-4 z" />
  <path
     id="path1040"
     style="opacity:0.2;fill:#ffffff;stroke-width:16;stroke-linecap:square"
     d="m 63.999976,16 c -26.59192,0 -48,21.40808 -48,48 v 2 c 0,-26.591918 21.408078,-48 48,-48 H 191.99998 c 26.59192,0 48,21.408082 48,48 v -2 c 0,-26.59192 -21.40808,-48 -48,-48 z" />
  <path
     style="opacity:0.1;fill:#000000;stroke-width:8"
     d="m 76.843728,141.23438 -28,28 7.921872,7.92187 28,-28 z"
     id="path6" />
  <path
     style="fill:#6e6e6e;stroke-width:8;-inkscape-stroke:none"
     d="m 76.843728,139.23438 -28.000004,28 7.921876,7.92187 28,-28 z"
     id="path7" />
  <path
     style="opacity:0.1;fill:#000000;stroke-width:8"
     d="m 50.777024,162.00539 a 12.848771,12.84567 0 0 0 -8.824284,3.88844 l -29.975372,29.96815 a 12.848771,12.84567 0 1 0 18.160874,18.16694 l 29.975374,-29.9786 a 12.848771,12.84567 0 0 0 -9.336592,-22.04493 z"
     id="path8" />
  <path
     style="fill:#4f4f4f;stroke-width:8"
     d="m 50.777024,160.00539 a 12.848771,12.84567 0 0 0 -8.824284,3.88844 l -29.975372,29.96815 a 12.848771,12.84567 0 1 0 18.160874,18.16694 l 29.975374,-29.9786 a 12.848771,12.84567 0 0 0 -9.336592,-22.04493 z"
     id="path9" />
  <circle
     style="opacity:0.3;fill:#328fff;fill-opacity:1;stroke-width:11.3334"
     id="path12"
     cx="127.99997"
     cy="96"
     r="68" />
  <path
     style="opacity:0.1;fill:#000000;stroke-width:8"
     d="M 128.0156,26 C 88.300656,26 55.999976,58.30068 55.999976,98.015624 55.999976,137.73057 88.300656,170 128.0156,170 167.73054,170 199.99998,137.73057 199.99998,98.015624 199.99998,58.30068 167.73054,26 128.0156,26 Z m -0.016,16 c 30.97264,0 56,25.027364 56,56 0,30.97265 -25.02736,56 -56,56 -30.97264,0 -56,-25.02735 -56,-56 0,-30.972636 25.02736,-56 56,-56 z"
     id="path10" />
  <path
     style="fill:#328fff;stroke-width:8"
     d="M 128.0156,24 C 88.300656,24 55.999976,56.300684 55.999976,96.015624 55.999976,135.73057 88.300656,168 128.0156,168 167.73054,168 199.99998,135.73057 199.99998,96.015624 199.99998,56.300684 167.73054,24 128.0156,24 Z M 128,40 c 30.97264,0 56,25.027364 56,56 0,30.97265 -25.02736,56 -56,56 C 97.02736,152 71.999996,126.97265 71.999996,96 71.999996,65.027364 97.02736,40 128,40 Z"
     id="path11" />
</svg>
