<?xml version="1.0" encoding="UTF-8" standalone="no"?>
<!-- Created with Inkscape (http://www.inkscape.org/) -->

<svg
   width="256"
   height="256"
   viewBox="0 0 256 256"
   version="1.1"
   id="svg5"
   inkscape:version="1.3 (0e150ed6c4, 2023-07-21)"
   sodipodi:docname="gnome-boxes.svg"
   xmlns:inkscape="http://www.inkscape.org/namespaces/inkscape"
   xmlns:sodipodi="http://sodipodi.sourceforge.net/DTD/sodipodi-0.dtd"
   xmlns="http://www.w3.org/2000/svg"
   xmlns:svg="http://www.w3.org/2000/svg">
  <sodipodi:namedview
     id="namedview7"
     pagecolor="#ffffff"
     bordercolor="#000000"
     borderopacity="0.25"
     inkscape:showpageshadow="2"
     inkscape:pageopacity="0.0"
     inkscape:pagecheckerboard="0"
     inkscape:deskcolor="#d1d1d1"
     inkscape:document-units="px"
     showgrid="false"
     inkscape:zoom="3.0585938"
     inkscape:cx="127.83653"
     inkscape:cy="128"
     inkscape:window-width="1920"
     inkscape:window-height="984"
     inkscape:window-x="0"
     inkscape:window-y="29"
     inkscape:window-maximized="1"
     inkscape:current-layer="svg5" />
  <defs
     id="defs2" />
  <rect
     style="opacity:0.2;fill:#000000;stroke-width:16;stroke-linecap:square"
     id="rect234"
     width="224"
     height="224"
     x="16"
     y="18"
     ry="48" />
  <rect
     style="fill:#4d4d4d;fill-opacity:1;stroke-width:16;stroke-linecap:square"
     id="rect396"
     width="224"
     height="224"
     x="16"
     y="16"
     ry="48" />
  <path
     opacity="0.2"
     d="M 56,58 V 202 H 200 V 58 Z m 21.656,16 h 100.688 l -24,24 h -52.6872 l -24,-24 z M 72,79.68 l 24,24 v 52.6872 l -24,24 V 79.6792 Z m 112,0 v 100.688 l -24,-24 v -52.6872 l 24,-24 z M 104,106 h 48 v 48 h -48 z m -2.34376,56 h 52.6872 l 24,24 h -100.688 l 24,-24 z"
     id="path3"
     style="fill:#000000;stroke-width:8;enable-background:new" />
  <path
     fill="#c4c4c4"
     d="M 56,56 V 200 H 200 V 56 Z m 21.656,16 h 100.688 l -24,24 h -52.6872 l -24,-24 z M 72,77.68 l 24,24 v 52.6872 l -24,24 V 77.6792 Z m 112,0 v 100.688 l -24,-24 v -52.6872 l 24,-24 z M 104,104 h 48 v 48 h -48 z m -2.34376,56 h 52.6872 l 24,24 h -100.688 l 24,-24 z"
     id="path4"
     style="stroke-width:8;enable-background:new" />
  <path
     opacity="0.2"
     d="M 64,42 A 24,24 0 0 0 40,66 24,24 0 0 0 64,90 24,24 0 0 0 88,66 24,24 0 0 0 64,42 Z m 128,0 a 24,24 0 0 0 -24,24 24,24 0 0 0 24,24 24,24 0 0 0 24,-24 24,24 0 0 0 -24,-24 z m -92,48 c -6.62744,0 -12,5.37256 -12,12 0,6.62744 5.37256,12 12,12 6.62744,0 12,-5.37256 12,-12 0,-6.62744 -5.37256,-12 -12,-12 z m 56,0 c -6.62744,0 -12,5.37256 -12,12 0,6.62744 5.37256,12 12,12 6.62744,0 12,-5.37256 12,-12 0,-6.62744 -5.37256,-12 -12,-12 z m -56,56 a 12,12 0 0 0 -12,12 12,12 0 0 0 12,12 12,12 0 0 0 12,-12 12,12 0 0 0 -12,-12 z m 56,0 a 12,12 0 0 0 -12,12 12,12 0 0 0 12,12 12,12 0 0 0 12,-12 12,12 0 0 0 -12,-12 z m -92,24 a 24,24 0 0 0 -24,24 24,24 0 0 0 24,24 24,24 0 0 0 24,-24 24,24 0 0 0 -24,-24 z m 128,0 a 24,24 0 0 0 -24,24 24,24 0 0 0 24,24 24,24 0 0 0 24,-24 24,24 0 0 0 -24,-24 z"
     id="path5"
     style="fill:#000000;stroke-width:8;enable-background:new" />
  <path
     fill="#e8e8e8"
     d="M 64,40 A 24,24 0 0 0 40,64 24,24 0 0 0 64,88 24,24 0 0 0 88,64 24,24 0 0 0 64,40 Z m 128,0 a 24,24 0 0 0 -24,24 24,24 0 0 0 24,24 24,24 0 0 0 24,-24 24,24 0 0 0 -24,-24 z m -92,48 a 12,12 0 0 0 -12,12 12,12 0 0 0 12,12 12,12 0 0 0 12,-12 12,12 0 0 0 -12,-12 z m 56,0 a 12,12 0 0 0 -12,12 12,12 0 0 0 12,12 12,12 0 0 0 12,-12 12,12 0 0 0 -12,-12 z m -56,56 a 12,12 0 0 0 -12,12 12,12 0 0 0 12,12 12,12 0 0 0 12,-12 12,12 0 0 0 -12,-12 z m 56,0 a 12,12 0 0 0 -12,12 12,12 0 0 0 12,12 12,12 0 0 0 12,-12 12,12 0 0 0 -12,-12 z m -92,24 a 24,24 0 0 0 -24,24 24,24 0 0 0 24,24 24,24 0 0 0 24,-24 24,24 0 0 0 -24,-24 z m 128,0 a 24,24 0 0 0 -24,24 24,24 0 0 0 24,24 24,24 0 0 0 24,-24 24,24 0 0 0 -24,-24 z"
     id="path6"
     style="stroke-width:8;enable-background:new" />
  <path
     id="path1040"
     style="opacity:0.1;fill:#ffffff;stroke-width:16;stroke-linecap:square"
     d="M 64,16 C 37.40808,16 16,37.40808 16,64 v 2 C 16,39.40808 37.40808,18 64,18 h 128 c 26.59192,0 48,21.40808 48,48 V 64 C 240,37.40808 218.59192,16 192,16 Z" />
</svg>
