<?xml version="1.0" encoding="UTF-8" standalone="no"?>
<!-- Created with Inkscape (http://www.inkscape.org/) -->

<svg
   width="256"
   height="256"
   viewBox="0 0 256 256"
   version="1.1"
   id="svg5"
   inkscape:version="1.4.3 (0d15f75042, 2025-12-25)"
   sodipodi:docname="gta-sa.svg"
   xmlns:inkscape="http://www.inkscape.org/namespaces/inkscape"
   xmlns:sodipodi="http://sodipodi.sourceforge.net/DTD/sodipodi-0.dtd"
   xmlns="http://www.w3.org/2000/svg"
   xmlns:svg="http://www.w3.org/2000/svg">
  <sodipodi:namedview
     id="namedview7"
     pagecolor="#ffffff"
     bordercolor="#000000"
     borderopacity="0.25"
     inkscape:showpageshadow="2"
     inkscape:pageopacity="0.0"
     inkscape:pagecheckerboard="0"
     inkscape:deskcolor="#d1d1d1"
     inkscape:document-units="px"
     showgrid="false"
     inkscape:zoom="3.1523438"
     inkscape:cx="127.84139"
     inkscape:cy="128"
     inkscape:window-width="1920"
     inkscape:window-height="1010"
     inkscape:window-x="0"
     inkscape:window-y="0"
     inkscape:window-maximized="1"
     inkscape:current-layer="svg5" />
  <defs
     id="defs2" />
  <rect
     style="opacity:0.2;fill:#000000;stroke-width:16;stroke-linecap:square"
     id="rect234"
     width="224"
     height="224"
     x="16"
     y="18"
     ry="48" />
  <rect
     style="fill:#cce7b0;fill-opacity:1;stroke-width:16;stroke-linecap:square"
     id="rect396"
     width="224"
     height="224"
     x="16"
     y="16"
     ry="48" />
  <path
     id="path1040"
     style="opacity:0.2;fill:#ffffff;stroke-width:16;stroke-linecap:square"
     d="M 64,16 C 37.408028,16 16,37.408028 16,64 v 2 C 16,39.408 37.408,18 64,18 h 128 c 26.592,0 48,21.408 48,48 V 64 C 240,37.408028 218.59196,16 192,16 Z" />
  <path
     id="path1"
     d="m 81.594656,66 c -5.95804,0.13984 -9.82156,2.792336 -11.647884,4.174352 -1.801996,1.363608 -2.643476,2.264036 -3.63566,3.23554 l -0.0176,0.0172 c -0.0096,0.0092 -0.0248,0.024 -0.0344,0.0332 -2.953492,2.869324 -5.207444,5.569276 -7.495304,8.751052 -0.0292,0.0392 -0.0572,0.0776 -0.08624,0.11736 -2.97036,4.203544 -4.535836,7.885968 -6.099632,11.919536 -1.149304,2.964464 -1.808592,6.32306 -2.360592,10.17603 -3.42274,5.01262 -5.997164,9.99107 -6.857776,15.05448 -1.07634,6.33267 -1.541384,12.69262 1.998752,20.56999 0.0116,0.0224 0.0228,0.044 0.0344,0.0664 0.554928,1.21855 1.858796,1.8238 2.550124,2.95056 C 43.328056,148.86111 40,155.54964 40,162.71418 c 0,10.03027 5.337808,20.89812 14.870004,26.06873 9.515192,5.16141 20.756324,4.20266 29.826156,-0.0168 0.478,-0.2216 0.875248,-0.5052 1.32676,-0.7208 0.5404,0.3416 1.136696,0.76352 1.654136,1.07292 0.77616,0.46424 1.489144,0.88404 2.41228,1.35792 0.46152,0.23696 0.959792,0.48216 1.774752,0.82143 0.814968,0.33928 1.244768,0.95128 5.375936,1.37468 0.61808,0.0648 1.239216,0.099 1.860912,0.10064 7.687164,0 8.053604,-1.79901 9.201134,-2.44761 1.14751,-0.64864 1.73542,-1.08567 2.29167,-1.49204 1.1125,-0.8128 1.91843,-1.49523 2.79136,-2.24644 0.64904,-0.55856 1.37294,-1.27907 2.05044,-1.89439 1.25287,1.72332 1.6269,3.91651 3.42888,5.24728 6.41419,4.73312 19.81798,5.74254 27.17265,0.8046 0.081,-0.0496 0.1612,-0.1 0.2412,-0.15088 1.15978,-0.8064 1.89791,-2.69249 3.10152,-4.1408 l 4.94517,2.73259 c 6.42676,3.56112 14.4541,2.84501 20.1081,-1.79379 l 0.74096,-0.60352 c 2.84834,1.59797 5.54733,3.31934 11.09649,3.31934 7.96823,0 10.90992,-2.4163 14.26693,-4.50962 3.33706,-2.08092 6.26066,-4.46281 9.0633,-7.96313 v -0.0168 c 2.1199,-2.63475 4.22888,-4.91751 5.87564,-10.10897 1.6405,-5.17178 -0.6732,-15.95907 -5.54826,-20.35206 -0.1766,-0.16728 -0.88446,-0.582 -1.15444,-0.82141 -0.06,-5.38679 -0.1034,-11.23504 -0.1034,-18.39062 v -26.01845 l -1.22338,1.30764 c 0.0932,-0.10504 0.185,-0.2112 0.27568,-0.31856 1.51338,-1.69204 2.76492,-2.88936 4.51442,-5.95138 0.87472,-1.531 2.14398,-3.642328 2.4812,-7.862528 0.3376,-4.217936 -2.0006,-10.962928 -5.59994,-14.300088 -4.27452,-3.96312 -9.46739,-4.851764 -12.49219,-4.878456 -3.02481,-0.0264 -4.7851,0.489896 -6.20301,0.922044 -2.8358,0.864212 -4.36448,1.7288 -5.96179,2.63202 -0.044,0.0248 -0.0936,0.05888 -0.13784,0.08364 -1.8478,0.17644 -0.93065,-0.32932 -3.35994,1.525544 -3.78638,-1.788772 -7.06199,-4.53548 -11.02757,-5.214304 h -0.0176 c -2.99411,-0.530176 -6.09532,-0.992564 -9.63189,-0.888516 -3.49689,0.10344 -6.50473,0.733352 -9.42514,1.408212 -10.93481,2.442348 -20.25152,9.226312 -27.03482,17.820624 -0.4884,-1.187648 0.14952,-2.143944 -0.6376,-3.18524 -3.75889,-4.972088 -5.92454,-5.177968 -6.0824,-5.23052 -1.14791,-0.73592 -3.36455,-3.589904 -11.47557,-3.43672 -0.21464,0.004 -0.30392,0.1384 -0.51688,0.15088 -2.31675,-1.317296 -4.91689,-2.811088 -12.250612,-7.24156 -0.12224,-0.07424 -0.25416,-0.14244 -0.37912,-0.21796 -1.744168,-1.111572 -5.407416,-3.122316 -10.80356,-3.034364 h -0.0176 -0.0176 V 66 h -0.0176 -0.0176 z"
     style="opacity:0.2;fill:#000000;stroke-width:8.6656" />
  <path
     id="path2"
     style="fill:#dfdfdf;stroke-width:8.6656"
     d="m 81.594656,64 c -5.95804,0.13984 -9.82156,2.792332 -11.647884,4.174352 -1.801996,1.363608 -2.64348,2.264036 -3.635656,3.23554 l -0.0172,0.0168 c -0.0096,0.0096 -0.0244,0.024 -0.0344,0.0336 -2.953492,2.869316 -5.207448,5.569268 -7.495308,8.751052 -0.0288,0.0392 -0.05752,0.0776 -0.08616,0.11736 -2.970364,4.203544 -4.535836,7.885968 -6.099632,11.919536 -1.149304,2.964464 -1.808592,6.323056 -2.360592,10.17603 -3.422744,5.01262 -5.997164,9.99107 -6.857776,15.05448 -1.07634,6.33267 -1.541388,12.69262 1.998752,20.56999 0.0116,0.0224 0.0228,0.044 0.0344,0.0664 0.554928,1.21855 1.858792,1.8238 2.550128,2.95056 C 43.328052,146.86111 40,153.54964 40,160.71418 c 0,10.03027 5.337804,20.89812 14.87,26.06873 9.515196,5.16141 20.756328,4.20266 29.82616,-0.0168 0.478,-0.2216 0.875248,-0.5052 1.32676,-0.7208 0.5404,0.3416 1.136696,0.76352 1.654136,1.07292 0.77616,0.46424 1.489144,0.88404 2.41228,1.35792 0.46152,0.23696 0.959792,0.48216 1.774752,0.82143 0.814968,0.33928 1.244768,0.95128 5.375936,1.37468 0.61808,0.0648 1.239216,0.099 1.860912,0.10064 7.687164,0 8.053604,-1.79901 9.201134,-2.44761 1.14751,-0.64864 1.73542,-1.08567 2.29167,-1.49204 1.1125,-0.8128 1.91843,-1.49523 2.79136,-2.24644 0.64904,-0.55856 1.37294,-1.27907 2.05044,-1.89439 1.25287,1.72332 1.6269,3.91651 3.42888,5.24728 6.41419,4.73312 19.81798,5.74254 27.17265,0.8046 0.081,-0.0496 0.1612,-0.1 0.2412,-0.15088 1.15978,-0.8064 1.89791,-2.69249 3.10151,-4.1408 l 4.94517,2.73259 c 6.42676,3.56112 14.4541,2.84501 20.1081,-1.79379 l 0.74096,-0.60352 c 2.84834,1.59797 5.54733,3.31934 11.09649,3.31934 7.96824,0 10.90992,-2.4163 14.26694,-4.50962 3.33706,-2.08092 6.26066,-4.46281 9.06328,-7.96313 v -0.0168 c 2.11992,-2.63475 4.2289,-4.91751 5.87564,-10.10897 1.64052,-5.17178 -0.6732,-15.95907 -5.54824,-20.35206 -0.1766,-0.16728 -0.88446,-0.582 -1.15446,-0.82141 -0.06,-5.38679 -0.1034,-11.23504 -0.1034,-18.39062 V 99.926184 l -1.22338,1.307636 c 0.0932,-0.10504 0.185,-0.2112 0.27568,-0.31856 1.5134,-1.692044 2.76494,-2.889356 4.51442,-5.95138 0.87472,-1.531 2.144,-3.642328 2.48122,-7.862528 0.3376,-4.217936 -2.0006,-10.962924 -5.59996,-14.300088 -4.2745,-3.963124 -9.46738,-4.851764 -12.49218,-4.878456 -3.0248,-0.0268 -4.7851,0.489936 -6.20301,0.922044 -2.8358,0.864212 -4.36448,1.7288 -5.96179,2.63202 -0.044,0.0252 -0.0936,0.05864 -0.13784,0.0838 -1.84782,0.17652 -0.93068,-0.32928 -3.35996,1.525564 -3.78638,-1.788784 -7.06199,-4.535488 -11.02757,-5.214316 h -0.0176 c -2.99409,-0.53016 -6.0953,-0.992576 -9.63187,-0.888532 -3.49689,0.10344 -6.50472,0.73332 -9.42514,1.408216 -10.9348,2.442348 -20.25151,9.226312 -27.03481,17.82062 -0.4884,-1.18764 0.14952,-2.143944 -0.6376,-3.18524 -3.75889,-4.972084 -5.92454,-5.17796 -6.0824,-5.230516 -1.14791,-0.735912 -3.36455,-3.589904 -11.47557,-3.436716 -0.21464,0.004 -0.30392,0.1384 -0.51688,0.15088 -2.31675,-1.3173 -4.91689,-2.811092 -12.250612,-7.241564 -0.12224,-0.07384 -0.25416,-0.14244 -0.37912,-0.21796 -1.744192,-1.111572 -5.40744,-3.122316 -10.803584,-3.03436 h -0.0176 -0.0176 V 64 h -0.0176 -0.0176 z" />
  <path
     id="path3"
     style="opacity:0.2;fill:#ffffff;stroke-width:8.6656"
     d="m 81.593752,64 c -5.95804,0.13984 -9.822116,2.789856 -11.64844,4.171876 -1.801996,1.363608 -2.640636,2.262872 -3.632812,3.234372 l -0.0156,0.0236 c -0.0096,0.0096 -0.0292,0.0216 -0.0392,0.0312 -2.953492,2.869316 -5.204328,5.568216 -7.492188,8.75 -0.0288,0.0392 -0.05728,0.07744 -0.08592,0.1172 -2.970364,4.203544 -4.537768,7.888308 -6.101564,11.921876 -1.149304,2.964464 -1.807376,6.3189 -2.359372,10.171876 -3.422748,5.01262 -5.998764,9.99127 -6.859376,15.05469 -0.496052,2.91853 -0.861476,5.84587 -0.765624,8.92187 0.07072,-2.35616 0.37816,-4.64229 0.765624,-6.92187 0.860612,-5.06342 3.436628,-10.04207 6.859376,-15.05469 0.551996,-3.85298 1.210068,-7.207412 2.359372,-10.171876 1.563796,-4.033568 3.1312,-7.718332 6.101564,-11.921876 0.0288,-0.0396 0.05712,-0.078 0.08592,-0.1172 2.28786,-3.181784 4.538696,-5.880684 7.492188,-8.75 0.01,-0.0096 0.0296,-0.0216 0.0392,-0.0312 l 0.0156,-0.0236 c 0.992176,-0.9715 1.830816,-1.870764 3.632812,-3.234372 1.826324,-1.38202 5.6904,-4.032036 11.64844,-4.171876 h 0.0156 0.0156 0.0236 v 0.0156 h 0.0156 0.0156 c 5.396144,-0.08796 9.060496,1.927492 10.804688,3.039064 0.12496,0.07552 0.26056,0.13708 0.3828,0.21092 7.33372,4.430472 9.93326,5.924888 12.25,7.242188 0.21296,-0.0124 0.301,-0.14444 0.51562,-0.14844 8.11103,-0.1532 10.32866,2.701588 11.47657,3.4375 0.15784,0.05256 2.31923,0.25448 6.07812,5.22656 0.78712,1.041296 0.15224,1.99986 0.64063,3.1875 6.78329,-8.594308 16.09645,-15.377964 27.03125,-17.820312 2.92041,-0.674896 5.93279,-1.302808 9.42969,-1.406248 3.53656,-0.10404 6.63872,0.36048 9.63281,0.890624 h 0.0156 c 3.96558,0.678828 7.23706,3.422152 11.02343,5.210936 2.42929,-1.854844 1.51156,-1.346916 3.35938,-1.523436 0.0442,-0.0252 0.0966,-0.06072 0.14064,-0.08592 1.5973,-0.90322 3.12514,-1.768604 5.96094,-2.632812 1.41791,-0.432108 3.17832,-0.948676 6.20312,-0.921876 3.0248,0.0268 8.21768,0.919688 12.4922,4.882812 3.10122,2.875324 5.26984,8.27514 5.59374,12.414064 0.004,-0.0396 0.004,-0.0772 0.008,-0.1172 0.3376,-4.217936 -2.00222,-10.959712 -5.60156,-14.296876 -4.27452,-3.963124 -9.46739,-4.85612 -12.49219,-4.882812 -3.02481,-0.0268 -4.78521,0.489768 -6.20313,0.921876 -2.8358,0.864208 -4.36363,1.729592 -5.96094,2.632812 -0.044,0.0252 -0.0964,0.06076 -0.14064,0.08592 -1.84782,0.17652 -0.93008,-0.3314 -3.35937,1.523436 -3.78638,-1.788784 -7.05785,-4.532108 -11.02344,-5.210936 h -0.0156 c -2.99409,-0.53016 -6.09624,-0.994668 -9.63281,-0.890624 -3.4969,0.10344 -6.50927,0.731352 -9.42969,1.406248 -10.9348,2.442348 -20.24795,9.226004 -27.03125,17.820312 -0.4884,-1.18764 0.14648,-2.146204 -0.64062,-3.1875 -3.7589,-4.972084 -5.92027,-5.174004 -6.07813,-5.22656 -1.14791,-0.735912 -3.36554,-3.590688 -11.47656,-3.4375 -0.21464,0.004 -0.30268,0.13596 -0.51563,0.14844 -2.31674,-1.3173 -4.91628,-2.811716 -12.249996,-7.242188 -0.12224,-0.07384 -0.25784,-0.1354 -0.3828,-0.21092 -1.744192,-1.111572 -5.408544,-3.12702 -10.804688,-3.039064 h -0.0156 -0.0156 V 64 h -0.0236 -0.0156 z m 127.078128,37.86719 c -0.30884,0.3416 -0.62764,0.68296 -0.95312,1.04687 -0.0906,0.10736 -0.1802,0.21528 -0.27344,0.32032 l 1.22656,-1.30468 z m 0,24.07812 v 2 c 0,7.15558 0.0416,13.00383 0.1016,18.39063 0.27,0.2394 0.97968,0.65303 1.15624,0.82031 3.59192,3.23672 5.79302,9.94478 6.04688,15.32031 0.29,-5.59048 -1.99246,-13.66681 -6.04688,-17.32031 -0.1766,-0.16728 -0.88626,-0.5809 -1.15624,-0.82031 -0.06,-5.3868 -0.1016,-11.23505 -0.1016,-18.39063 z M 47.132812,142.10938 C 42.941856,147.65922 40,153.97153 40,160.71094 c 0,0.34948 0.0028,0.70344 0.0156,1.05468 0.2778,-6.80627 3.518744,-13.16428 7.929688,-18.70312 -0.22132,-0.36068 -0.510316,-0.66209 -0.8125,-0.95312 z" />
  <path
     d="m 80.863136,82.000056 c -0.71568,0.0152 -1.532896,0.69792 -3.318832,2.43744 -1.618168,1.56324 -4.1822,4.563472 -5.653276,6.602496 -2.794968,3.942088 -6.328284,12.981658 -6.328284,16.312058 0,1.08746 -0.80928,2.8489 -1.912548,4.00435 -4.41314,4.82566 -6.258824,15.7723 -3.684472,21.48155 2.79504,6.11704 8.832196,10.12506 16.481676,11.00863 3.97184,0.40784 4.333424,0.74264 3.009456,3.05349 -0.73544,1.29136 -1.245576,1.35968 -6.1736,0.88391 -4.560308,-0.40783 -5.81038,-0.27256 -8.311148,0.95087 C 59.234996,151.45354 56,156.55636 56,162.87732 c 0,10.73882 9.191556,15.70237 19.85676,10.74078 2.206568,-1.01951 5.074632,-2.58508 6.398608,-3.46866 1.250376,-0.88358 2.800752,-1.63389 3.389144,-1.63388 0.5148,0 3.456536,1.69748 6.3986,3.7365 2.896176,2.00716 5.735392,3.68456 6.24392,3.73651 1.176864,0 13.469288,-11.82087 16.411348,-15.76298 1.32398,-1.76714 3.82089,-5.91142 5.51265,-9.17385 2.72145,-5.23347 3.09495,-6.66308 3.38915,-11.62467 0.22032,-4.96161 -0.007,-6.04537 -1.77192,-9.3078 -2.50085,-4.75769 -7.2745,-8.64148 -14.85039,-12.03983 -3.38344,-1.49528 -6.25149,-2.91655 -6.39859,-3.12046 -0.14688,-0.27184 1.4671,-4.34919 3.60009,-9.10688 5.29581,-11.690364 5.21929,-11.14926 2.93913,-12.508604 -1.76528,-1.087464 -1.98088,-1.0884 -3.30476,0.0672 -1.47108,1.223432 -1.68944,1.156496 -21.769324,-10.941656 -0.45504,-0.30368 -0.806312,-0.4772 -1.18128,-0.46872 z m 80.397394,3.026712 c -1.73769,0.0512 -3.46944,0.36592 -6.11736,0.977648 -9.19406,2.039008 -15.95307,6.86596 -20.29271,14.410324 -3.67763,6.38891 -4.85168,11.15289 -4.85168,19.51285 0,9.44745 1.53546,14.6102 5.94859,20.11553 1.66531,2.20786 3.11917,4.16696 3.16415,4.48649 0,0.27184 -1.61414,2.78461 -3.6001,5.57128 -9.34116,13.18561 -11.54299,22.62859 -6.17359,26.57069 2.20657,1.6312 4.47655,1.77551 6.60954,0.34824 1.17688,-0.81557 1.54805,-1.90305 1.84224,-5.43735 0.29448,-4.82568 1.0355,-5.78556 4.34542,-5.78556 3.16275,0 9.99275,2.52314 15.87697,5.78556 l 5.5267,3.05349 5.80797,-4.75434 c 3.18575,-2.5424 6.03047,-4.70124 6.46891,-4.76772 h 0.0144 l 0.0144,0.0136 c 0.34632,0.0811 1.62937,1.40628 2.84069,2.98652 2.20659,2.85461 6.03538,5.15611 8.53617,5.15611 2.57434,0 7.13226,-2.84657 9.63306,-5.97306 3.23632,-4.01006 3.89312,-6.04669 2.3485,-7.40604 -1.02974,-0.95154 -1.39028,-0.95757 -3.67041,0.40176 -1.26649,0.67744 -2.48969,1.12752 -2.86882,1.00443 l -0.0144,-0.0136 c -0.006,-0.003 -0.0368,-0.0112 -0.0424,-0.0136 l -0.0144,-0.0136 v -0.0136 c -0.29424,-0.20384 -0.52032,-15.35776 -0.52032,-33.7089 V 94.29464 l 3.45946,-3.669544 c 2.50079,-2.786664 3.16193,-3.942744 2.57351,-4.48648 -0.88263,-0.815568 -5.153,1.630512 -11.40498,6.388216 l -2.71414,2.18376 -3.16414,-2.785648 c -3.89822,-3.46632 -7.79777,-5.302752 -13.38778,-6.254288 -2.68467,-0.47576 -4.4359,-0.69384 -6.17358,-0.64288 z m -78.878602,12.25412 h 0.0144 0.0144 0.0144 c 0.0052,3.04e-4 0.0368,-9.04e-4 0.0424,0 l 0.0144,0.0136 c 0.29448,0.136 3.681568,2.029272 7.579888,4.272212 7.943672,4.55378 7.793824,4.2879 4.851688,10.47292 l -1.406296,2.98652 -3.445392,-0.46872 c -7.355272,-0.88383 -11.781392,-4.89452 -10.89872,-9.92409 0.49112,-2.72219 2.465312,-7.180978 3.2204,-7.352482 z m 77.036352,1.232104 c 2.50079,0 5.59174,0.34216 6.98924,0.74992 3.23633,1.019508 3.15537,0.880578 1.75787,2.919568 -1.17685,1.63122 -1.54617,1.69248 -5.07669,1.35265 -6.84043,-0.74768 -12.42217,2.65837 -15.51134,9.45509 -0.58824,1.35934 -1.11097,3.26709 -1.11097,4.21864 v 1.83477 l 3.09383,-2.45081 c 3.30986,-2.65073 7.80183,-4.28326 9.78775,-3.53563 1.1033,0.33984 1.02317,0.74696 -0.81567,3.66955 -2.94214,4.68973 -13.4636,19.16465 -13.97848,19.16465 h -0.0144 l -0.0144,-0.0136 h -0.0144 c -0.29872,-0.202 -1.27198,-1.88498 -2.30632,-3.92401 -1.76527,-3.46632 -1.98285,-4.68767 -1.98285,-11.00861 0,-6.38892 0.21456,-7.55267 2.05317,-11.22291 3.89825,-7.68031 9.19892,-11.141556 17.14263,-11.209524 z m 16.10198,11.209528 0.22496,12.50858 c 0.0736,6.93265 -0.0712,12.77242 -0.36568,13.04429 -0.57,0.46088 -16.83136,1.80814 -17.84577,1.45978 h -0.0144 l -0.0144,-0.0136 v -0.0136 c 0,-0.20384 13.01276,-19.91731 16.10197,-24.2672 z m -106.427736,8.15602 1.617228,2.38386 c 0.882632,1.29138 2.351792,3.12178 3.234456,3.93741 2.059472,2.17493 5.959744,3.94173 9.858072,4.55343 3.530536,0.54376 3.384736,0.40784 2.207872,2.71868 -1.103288,2.24291 -3.537824,2.24291 -8.465848,0 -4.633824,-2.17495 -7.427364,-5.70585 -8.015828,-10.19168 z m 24.891268,11.4372 c 0.41832,-0.0128 0.946888,0.06 1.659408,0.18744 1.47108,0.20384 4.261232,0.82124 6.1736,1.433 6.76689,1.97105 10.08308,5.9104 10.08308,11.95948 0,2.99056 -0.5856,4.75803 -2.93914,9.03995 -1.6181,2.99055 -3.60667,6.12069 -4.41573,7.00426 -1.39749,1.49529 -1.61412,1.55422 -2.64383,0.60272 -1.02976,-0.95152 -0.89118,-1.36101 1.46253,-4.41953 4.63383,-5.98112 5.89111,-11.27177 3.68448,-15.21387 -1.3239,-2.44681 -7.573862,-5.37574 -12.501886,-5.91948 -3.530536,-0.33984 -3.686464,-0.55008 -2.36256,-3.2008 0.50544,-1.02801 0.879392,-1.44507 1.800048,-1.47317 z m -4.654816,15.74956 c 2.082512,0.0616 4.864792,0.6844 6.243912,1.49996 0.956192,0.54376 1.916872,1.42496 2.13756,1.96869 0.5148,1.29139 -1.626032,5.6446 -3.02352,6.12037 h -0.0144 c -0.848696,0.21424 -9.188712,-3.07269 -10.575272,-4.15166 l -0.0144,-0.0136 -0.0144,-0.0136 -0.0144,-0.0136 v -0.0136 l -0.0144,-0.0136 c -0.30288,-0.75592 2.52624,-5.04053 3.515712,-5.23647 0.46008,-0.11888 1.077752,-0.15416 1.77192,-0.134 z m 73.689404,0.616 h 12.95189 l -0.22496,7.47301 -0.22496,7.47301 -2.93914,1.56693 c -5.07515,2.6507 -8.46163,2.10264 -21.33335,-3.33474 -3.60413,-1.49528 -6.75777,-2.85059 -6.90488,-2.98652 h -0.0144 c -0.036,-0.13752 1.1353,-2.47989 2.7282,-5.15611 l 3.02352,-4.96861 z m -95.388392,12.08008 c 0.60984,0.0144 1.426664,0.33224 2.93914,0.8973 1.471064,0.61168 4.331536,2.04536 6.243912,3.20081 l 3.600088,2.10261 -1.687544,1.29908 c -5.590008,4.07804 -12.129956,5.22409 -14.189428,2.43744 -1.838852,-2.37886 -1.471884,-6.38588 0.66096,-8.35692 1.199836,-1.10872 1.649064,-1.59793 2.432872,-1.58032 z"
     id="path4"
     style="opacity:0.1;fill:#000000;stroke-width:8.86264" />
  <path
     d="m 80.863136,79.999924 c -0.71568,0.0156 -1.532896,0.69792 -3.318832,2.437444 -1.618168,1.56324 -4.1822,4.563472 -5.653272,6.602496 -2.794968,3.942088 -6.328288,12.981656 -6.328288,16.312056 0,1.08746 -0.809268,2.8489 -1.912548,4.00434 -4.413136,4.82568 -6.258824,15.77232 -3.684468,21.48156 2.79504,6.11704 8.832196,10.12506 16.481672,11.00864 3.97184,0.40784 4.333424,0.74264 3.009456,3.05348 -0.73544,1.29136 -1.245576,1.35968 -6.1736,0.88391 -4.560308,-0.4078 -5.81038,-0.27256 -8.311148,0.95087 C 59.235,149.45341 56,154.55623 56,160.87718 c 0,10.73883 9.19156,15.70237 19.85676,10.74079 2.206568,-1.01951 5.074632,-2.58508 6.398608,-3.46866 1.250376,-0.88357 2.800752,-1.63389 3.389144,-1.63388 0.5148,0 3.456536,1.69748 6.3986,3.7365 2.896176,2.00717 5.735392,3.68456 6.24392,3.73651 1.176864,0 13.469288,-11.82087 16.411348,-15.76298 1.32398,-1.76714 3.82089,-5.91142 5.51265,-9.17384 2.72145,-5.23348 3.09495,-6.66308 3.38915,-11.62468 0.22032,-4.96161 -0.007,-6.04536 -1.77192,-9.3078 -2.50085,-4.75769 -7.2745,-8.64148 -14.85039,-12.03983 -3.38344,-1.49528 -6.25149,-2.91656 -6.39859,-3.12045 -0.14688,-0.27184 1.4671,-4.3492 3.60009,-9.10689 5.29581,-11.690362 5.21929,-11.149258 2.93913,-12.508602 -1.76528,-1.087464 -1.98088,-1.0884 -3.30476,0.0672 -1.47108,1.223432 -1.68944,1.156496 -21.769324,-10.941656 -0.45504,-0.30368 -0.806312,-0.477208 -1.18128,-0.46872 z m 80.397394,3.026716 c -1.73769,0.0512 -3.46944,0.36592 -6.11736,0.977648 -9.19406,2.039008 -15.95307,6.86596 -20.29271,14.41032 -3.67763,6.388912 -4.85168,11.152892 -4.85168,19.512852 0,9.44745 1.53546,14.6102 5.94859,20.11553 1.66531,2.20787 3.11917,4.16695 3.16415,4.48649 0,0.27184 -1.61414,2.78461 -3.6001,5.57127 -9.34116,13.18563 -11.54299,22.6286 -6.17359,26.5707 2.20657,1.63121 4.47655,1.7755 6.60954,0.34824 1.17688,-0.81557 1.54805,-1.90305 1.84224,-5.43735 0.29448,-4.82568 1.0355,-5.78556 4.34542,-5.78556 3.16275,0 9.99275,2.52314 15.87697,5.78556 l 5.5267,3.05348 5.80797,-4.75432 c 3.18575,-2.54242 6.03047,-4.70125 6.46891,-4.76773 h 0.0144 l 0.0144,0.0136 c 0.34632,0.0811 1.62937,1.40629 2.84069,2.98653 2.20659,2.85461 6.03538,5.15611 8.53617,5.15611 2.57434,0 7.13226,-2.84658 9.63306,-5.97306 3.23632,-4.01006 3.89312,-6.0467 2.3485,-7.40604 -1.02974,-0.95154 -1.39028,-0.95757 -3.67041,0.40176 -1.26649,0.67744 -2.48969,1.12753 -2.86882,1.00443 l -0.0144,-0.0136 c -0.006,-0.003 -0.0368,-0.0104 -0.0424,-0.0136 l -0.0144,-0.0136 v -0.0136 c -0.29424,-0.20384 -0.52032,-15.35776 -0.52032,-33.70889 V 92.294528 l 3.45946,-3.669544 c 2.50079,-2.786664 3.16193,-3.942744 2.57351,-4.48648 -0.88263,-0.815568 -5.153,1.630512 -11.40498,6.388216 l -2.71414,2.183752 -3.16414,-2.78564 c -3.89822,-3.46632 -7.79777,-5.302752 -13.38778,-6.254288 -2.68467,-0.47576 -4.4359,-0.69376 -6.17358,-0.6428 z M 82.381928,95.28076 h 0.0144 0.0144 0.0144 c 0.0052,3.04e-4 0.0368,-9.04e-4 0.0424,0 l 0.0144,0.0136 c 0.29448,0.136 3.681568,2.029272 7.579888,4.272208 7.943672,4.553782 7.793824,4.287892 4.851688,10.472922 l -1.406296,2.98653 -3.445392,-0.46872 c -7.355272,-0.88384 -11.781392,-4.89452 -10.89872,-9.9241 0.49112,-2.722192 2.465312,-7.180976 3.2204,-7.35248 z m 77.036352,1.232104 c 2.50079,0 5.59174,0.34216 6.98924,0.74992 3.23633,1.019512 3.15537,0.880576 1.75787,2.919566 -1.17685,1.63123 -1.54617,1.69248 -5.07669,1.35265 -6.84043,-0.74768 -12.42217,2.65837 -15.51134,9.4551 -0.58824,1.35933 -1.11097,3.26708 -1.11097,4.21864 v 1.83476 l 3.09383,-2.45082 c 3.30986,-2.65073 7.80183,-4.28325 9.78775,-3.53562 1.1033,0.33984 1.02317,0.74696 -0.81567,3.66954 -2.94214,4.68974 -13.4636,19.16466 -13.97848,19.16466 h -0.0144 l -0.0144,-0.0136 h -0.0144 c -0.29872,-0.202 -1.27198,-1.88499 -2.30632,-3.924 -1.76527,-3.46632 -1.98285,-4.68768 -1.98285,-11.00862 0,-6.38892 0.21456,-7.55268 2.05317,-11.22291 3.89825,-7.68031 9.19892,-11.141554 17.14263,-11.209522 z m 16.10198,11.209526 0.22496,12.50859 c 0.0736,6.93264 -0.0712,12.77241 -0.36568,13.04428 -0.57,0.46088 -16.83136,1.80814 -17.84577,1.45978 h -0.0144 l -0.0144,-0.0136 v -0.0136 c 0,-0.20384 13.01276,-19.9173 16.10197,-24.2672 z m -106.427736,8.15603 1.617228,2.38385 c 0.882604,1.29137 2.351792,3.12178 3.234456,3.93741 2.059472,2.17494 5.959744,3.94173 9.858072,4.55343 3.530536,0.54376 3.384736,0.40784 2.207872,2.71868 -1.103288,2.24291 -3.537824,2.24291 -8.465848,0 -4.633824,-2.17495 -7.42736,-5.70585 -8.015832,-10.19168 z m 24.891268,11.43718 c 0.41832,-0.0128 0.946888,0.06 1.659408,0.18744 1.47108,0.20384 4.261232,0.82125 6.1736,1.433 6.76689,1.97106 10.08308,5.91042 10.08308,11.9595 0,2.99055 -0.5856,4.75802 -2.93914,9.03994 -1.6181,2.99054 -3.60667,6.1207 -4.41573,7.00426 -1.39749,1.49529 -1.61412,1.55422 -2.64383,0.60272 -1.02976,-0.95152 -0.89118,-1.361 1.46253,-4.41953 4.63383,-5.98111 5.89111,-11.27177 3.68448,-15.21387 -1.3239,-2.44681 -7.573862,-5.37574 -12.501886,-5.91948 -3.530536,-0.33984 -3.686464,-0.55008 -2.36256,-3.2008 0.50544,-1.028 0.879392,-1.44507 1.800048,-1.47316 z m -4.654816,15.74958 c 2.082512,0.0616 4.864792,0.6844 6.243912,1.49996 0.956192,0.54376 1.916872,1.42495 2.13756,1.96868 0.5148,1.2914 -1.626032,5.6446 -3.02352,6.12037 h -0.0144 c -0.848696,0.21424 -9.188712,-3.07269 -10.575272,-4.15166 l -0.0144,-0.0136 -0.0144,-0.0136 -0.0144,-0.0136 v -0.0136 l -0.0144,-0.0136 c -0.30288,-0.75592 2.52624,-5.04053 3.515712,-5.23647 0.46008,-0.11896 1.077752,-0.15416 1.77192,-0.134 z m 73.689404,0.616 h 12.95189 l -0.22496,7.473 -0.22496,7.47301 -2.93914,1.56693 c -5.07515,2.6507 -8.46163,2.10264 -21.33335,-3.33474 -3.60413,-1.49528 -6.75777,-2.85059 -6.90488,-2.98652 h -0.0144 c -0.036,-0.13752 1.1353,-2.47989 2.7282,-5.15612 l 3.02352,-4.9686 z m -95.388392,12.08008 c 0.609856,0.0144 1.426664,0.33224 2.939136,0.89729 1.471068,0.61168 4.33154,2.04536 6.243916,3.20081 l 3.600088,2.10261 -1.687544,1.29908 c -5.590008,4.07804 -12.129956,5.22409 -14.189428,2.43744 -1.838852,-2.37886 -1.471884,-6.38587 0.66096,-8.35693 1.19984,-1.1087 1.649064,-1.59792 2.432872,-1.5803 z"
     id="path5"
     style="fill:#4d4d4d;stroke-width:8.86264" />
</svg>
