<?xml version="1.0" encoding="UTF-8" standalone="no"?>
<!-- Created with Inkscape (http://www.inkscape.org/) -->

<svg
   width="256"
   height="256"
   viewBox="0 0 256 256"
   version="1.1"
   id="svg5"
   inkscape:version="1.3 (0e150ed6c4, 2023-07-21)"
   sodipodi:docname="gufw.svg"
   xmlns:inkscape="http://www.inkscape.org/namespaces/inkscape"
   xmlns:sodipodi="http://sodipodi.sourceforge.net/DTD/sodipodi-0.dtd"
   xmlns="http://www.w3.org/2000/svg"
   xmlns:svg="http://www.w3.org/2000/svg">
  <sodipodi:namedview
     id="namedview7"
     pagecolor="#ffffff"
     bordercolor="#000000"
     borderopacity="0.25"
     inkscape:showpageshadow="2"
     inkscape:pageopacity="0.0"
     inkscape:pagecheckerboard="0"
     inkscape:deskcolor="#d1d1d1"
     inkscape:document-units="px"
     showgrid="false"
     inkscape:zoom="3.0585938"
     inkscape:cx="127.83653"
     inkscape:cy="128"
     inkscape:window-width="1920"
     inkscape:window-height="984"
     inkscape:window-x="0"
     inkscape:window-y="29"
     inkscape:window-maximized="1"
     inkscape:current-layer="svg5" />
  <defs
     id="defs2" />
  <rect
     style="opacity:0.2;fill:#000000;stroke-width:16;stroke-linecap:square"
     id="rect234"
     width="224"
     height="224"
     x="16"
     y="18"
     ry="48" />
  <rect
     style="fill:#afb7e3;fill-opacity:1;stroke-width:16;stroke-linecap:square"
     id="rect396"
     width="224"
     height="224"
     x="16"
     y="16"
     ry="48" />
  <path
     style="opacity:0.2;fill:#000000;stroke-width:4"
     d="m 73.3125,50 c -3.016676,9.8e-4 -5.591636,2.22688 -6.070312,5.25 -5.585176,35.254844 -3.47318,63.01208 2.671876,84.67188 0.09156,0.32264 0.2026,0.57926 0.29688,0.89062 3.444924,11.82794 8.069548,21.8538 13.320308,30.22656 2.779252,4.43173 5.713728,8.40213 8.71094,11.96094 0.0036,0.004 0.004,0.0112 0.008,0.0156 13.097078,15.54518 27.334168,23.16474 34.453128,26.42968 1.48478,0.68088 3.17876,0.7401 4.70312,0.1562 11.73068,-4.49596 29.06142,-17.33508 42.42969,-42.03906 10.81319,-19.9825 18.71911,-47.64162 18.13281,-84.437496 -0.002,-0.1438 -0.018,-0.27992 -0.0236,-0.421876 -0.1504,-8.576424 -0.74798,-17.62546 -1.89064,-27.2109 A 6.1450516,6.2372008 0 0 0 183.96094,50 H 159.375 158.95312 Z"
     id="path1" />
  <path
     style="fill:#3f51b5;stroke-width:4"
     d="m 73.30876,48 c -3.016676,9.8e-4 -5.586556,2.22438 -6.065232,5.2475 -5.585176,35.254844 -3.477232,63.01644 2.667824,84.67624 3.470804,12.23372 8.945996,16.17696 14.333828,24.76829 2.779692,4.43243 5.001348,14.75082 7.999068,18.31007 13.100132,15.55402 27.337752,23.17886 34.458702,26.44474 1.48478,0.68086 3.17518,0.73536 4.69954,0.1516 11.73068,-4.49598 29.06676,-17.33444 42.43503,-42.03841 10.8132,-19.98251 18.7182,-47.64204 18.13188,-84.43791 -0.1386,-8.694428 -6.4114,-13.966036 -7.57178,-23.69992 -0.37296,-3.131712 1.52634,-5.685568 -1.58157,-5.686496 l -23.44233,-3.73522 z"
     id="path2" />
  <path
     id="path3"
     style="opacity:0.1;fill:#ffffff;stroke-width:4"
     d="m 73.3125,48 c -3.016672,9.8e-4 -5.591636,2.226884 -6.070312,5.25 -2.221608,14.02326 -3.19536,26.832244 -3.21094,38.570312 0.12284,-11.185688 1.13994,-23.34976 3.234376,-36.570312 0.478676,-3.023116 3.05364,-5.24902 6.070312,-5.25 h 85.640624 0.42188 12.53125 L 159.375,48 Z m -9.281252,43.820312 c -7.8e-4,0.589896 -0.012,1.189 -0.008,1.77344 0.002,-0.16992 0.0052,-0.34524 0.008,-0.515628 0.0022,-0.422308 -0.0048,-0.832676 0,-1.257812 z M 191.875,79.578124 c 0.0312,1.040744 0.0758,2.09792 0.0938,3.125 -0.004,-0.530824 0.008,-1.042796 0,-1.578124 -0.008,-0.526652 -0.043,-1.043472 -0.0938,-1.546876 z" />
  <path
     id="path4"
     style="opacity:0.2;fill:#000000;stroke-width:4"
     d="m 158.95312,50 -88.601556,88.60156 c 0.0236,0.0692 0.048,0.1372 0.07032,0.21092 3.44492,11.82793 8.069556,21.85381 13.320312,30.22657 2.779248,4.43172 5.713728,8.40213 8.710936,11.96093 0.0036,0.004 0.0038,0.0112 0.008,0.0156 0.27724,0.32908 0.557748,0.63113 0.83594,0.95313 L 191.96094,83.304688 c -0.032,-2.10582 -0.0918,-4.241644 -0.1796,-6.406252 -1.03534,-7.429564 -6.3251,-12.60374 -7.38282,-21.47656 -0.30412,-2.553728 0.85438,-4.69194 -0.375,-5.406252 -0.0208,-0.0052 -0.0416,-0.0104 -0.0625,-0.0156 z" />
  <path
     style="fill:#ffffff;stroke-width:4"
     d="m 158.95312,48 -89.218744,89.21875 c 3.486336,12.53533 8.308756,23.06907 13.796872,31.82031 2.7826,4.43707 5.717772,8.41446 8.718752,11.97656 l 99.71094,-99.710932 c -0.1324,-8.75202 -0.73716,-18.005496 -1.90626,-27.8125 A 6.1450516,6.2372008 0 0 0 183.96094,48 Z"
     id="path5" />
  <path
     id="path1040"
     style="opacity:0.2;fill:#ffffff;stroke-width:16;stroke-linecap:square"
     d="M 64,16 C 37.40808,16 16,37.40808 16,64 v 2 C 16,39.408084 37.40808,18 64,18 h 128 c 26.59192,0 48,21.408084 48,48 V 64 C 240,37.40808 218.59192,16 192,16 Z" />
</svg>
