<?xml version="1.0" encoding="UTF-8" standalone="no"?>
<!-- Created with Inkscape (http://www.inkscape.org/) -->

<svg
   width="256"
   height="256"
   viewBox="0 0 256 256"
   version="1.1"
   id="svg5"
   inkscape:version="1.3 (0e150ed6c4, 2023-07-21)"
   sodipodi:docname="io.github.seadve.Kooha.svg"
   xmlns:inkscape="http://www.inkscape.org/namespaces/inkscape"
   xmlns:sodipodi="http://sodipodi.sourceforge.net/DTD/sodipodi-0.dtd"
   xmlns="http://www.w3.org/2000/svg"
   xmlns:svg="http://www.w3.org/2000/svg">
  <sodipodi:namedview
     id="namedview7"
     pagecolor="#ffffff"
     bordercolor="#000000"
     borderopacity="0.25"
     inkscape:showpageshadow="2"
     inkscape:pageopacity="0.0"
     inkscape:pagecheckerboard="0"
     inkscape:deskcolor="#d1d1d1"
     inkscape:document-units="px"
     showgrid="false"
     inkscape:zoom="3.0585938"
     inkscape:cx="127.83653"
     inkscape:cy="128"
     inkscape:window-width="1920"
     inkscape:window-height="984"
     inkscape:window-x="0"
     inkscape:window-y="29"
     inkscape:window-maximized="1"
     inkscape:current-layer="svg5" />
  <defs
     id="defs2" />
  <rect
     style="opacity:0.2;fill:#000000;stroke-width:16;stroke-linecap:square"
     id="rect234"
     width="224"
     height="224"
     x="16"
     y="18"
     ry="48" />
  <rect
     style="fill:#f1356a;fill-opacity:1;stroke-width:16;stroke-linecap:square"
     id="rect396"
     width="224"
     height="224"
     x="16"
     y="16"
     ry="48" />
  <path
     d="m 72,98 v 64 h 8 l 24,-24 v 12 c 0,6.64797 5.35203,12 12,12 h 56 c 6.64797,0 12,-5.35203 12,-12 v -40 c 0,-6.64797 -5.35203,-12 -12,-12 h -56 c -6.64797,0 -12,5.35203 -12,12 v 12 L 80,98 Z m 72,8 c 13.25482,0 24,10.74518 24,24 0,13.25482 -10.74518,24 -24,24 -13.25482,0 -24,-10.74518 -24,-24 0,-13.25482 10.74518,-24 24,-24 z m 0,8 c -8.83654,0 -16,7.16346 -16,16 0,8.83654 7.16346,16 16,16 8.83654,0 16,-7.16346 16,-16 0,-8.83654 -7.16346,-16 -16,-16 z"
     style="opacity:0.2;fill:#000000;stroke-width:16;stroke-linecap:round;stroke-linejoin:round"
     id="path1" />
  <path
     d="m 72,96 v 64 h 8 l 24,-24 v 12 c 0,6.64797 5.35203,12 12,12 h 56 c 6.64797,0 12,-5.35203 12,-12 v -40 c 0,-6.64797 -5.35203,-12 -12,-12 h -56 c -6.64797,0 -12,5.35203 -12,12 v 12 L 80,96 Z m 72,8 c 13.25482,0 24,10.74518 24,24 0,13.25482 -10.74518,24 -24,24 -13.25482,0 -24,-10.74518 -24,-24 0,-13.25482 10.74518,-24 24,-24 z m 0,8 c -8.83654,0 -16,7.16346 -16,16 0,8.83654 7.16346,16 16,16 8.83654,0 16,-7.16346 16,-16 0,-8.83654 -7.16346,-16 -16,-16 z"
     style="fill:#ffffff;stroke-width:16;stroke-linecap:round;stroke-linejoin:round"
     id="path2" />
  <path
     id="path3"
     style="opacity:0.2;fill:#000000;stroke-width:4"
     d="M 48,50 V 76.671876 C 48.002868,79.613316 50.785108,81.997128 53.726564,82 56.674108,82.00576 59.997128,79.619424 60,76.671876 V 62 H 74.671876 C 77.61942,61.997128 80.00576,58.674104 80,55.726564 79.997128,52.785116 77.613316,50.002872 74.671876,50 Z m 133.32812,0 c -2.94144,0.0029 -5.32525,2.785116 -5.32812,5.726564 -0.006,2.94754 2.38058,6.270564 5.32812,6.273436 H 196 V 76.671876 C 196.002,79.619424 199.3259,82.0056 202.27344,82 205.21488,81.9972 207.99712,79.613316 208,76.671876 V 50 Z M 53.726564,178 C 50.785108,178.003 48.002868,180.38668 48,183.32812 V 210 H 74.671876 C 77.613316,209.998 79.997128,207.21488 80,204.27344 80.0058,201.3259 77.61942,198.00288 74.671876,198 H 60 V 183.32812 C 59.997128,180.38058 56.674108,177.99424 53.726564,178 Z m 148.546876,0 c -2.94754,-0.006 -6.27056,2.38058 -6.27344,5.32812 V 198 h -14.67188 c -2.94754,0.002 -5.33372,3.3259 -5.32812,6.27344 0.003,2.94144 2.38668,5.72368 5.32812,5.72656 H 208 v -26.67188 c -0.003,-2.94144 -2.78512,-5.32525 -5.72656,-5.32812 z" />
  <path
     id="path5"
     style="fill:#f89ab5;stroke-width:4"
     d="M 48,48 V 74.671876 C 48.002868,77.613324 50.785108,79.997128 53.726564,80 56.674116,80.00576 59.997128,77.619432 60,74.671876 V 60 H 74.671876 C 77.619428,59.997128 80.00576,56.674112 80,53.726564 79.997128,50.785112 77.613324,48.002872 74.671876,48 Z m 133.32812,0 c -2.94144,0.0029 -5.32525,2.785112 -5.32812,5.726564 -0.006,2.947548 2.38057,6.270564 5.32812,6.273436 H 196 V 74.671876 C 196.002,77.619432 199.32588,80.0056 202.27344,80 205.21488,79.9972 207.99712,77.613324 208,74.671876 V 48 Z M 53.726564,176 C 50.785108,176.003 48.002868,178.38668 48,181.32812 V 208 H 74.671876 C 77.613324,207.99712 79.997128,205.21488 80,202.27344 80.00576,199.32588 77.619428,196.00288 74.671876,196 H 60 V 181.32812 C 59.997128,178.38057 56.674116,175.99424 53.726564,176 Z m 148.546876,0 c -2.94756,-0.006 -6.27056,2.38057 -6.27344,5.32812 V 196 h -14.67188 c -2.94755,0.002 -5.33372,3.32588 -5.32812,6.27344 0.003,2.94144 2.38668,5.72368 5.32812,5.72656 H 208 v -26.67188 c -0.003,-2.94144 -2.78512,-5.32525 -5.72656,-5.32812 z" />
  <path
     id="path1040"
     style="opacity:0.2;fill:#ffffff;stroke-width:16;stroke-linecap:square"
     d="M 64,16 C 37.40808,16 16,37.40808 16,64 v 2 C 16,39.40808 37.40808,18 64,18 h 128 c 26.59192,0 48,21.40808 48,48 V 64 C 240,37.40808 218.59192,16 192,16 Z" />
</svg>
