<?xml version="1.0" encoding="UTF-8" standalone="no"?>
<!-- Created with Inkscape (http://www.inkscape.org/) -->

<svg
   width="256"
   height="256"
   viewBox="0 0 256 256"
   version="1.1"
   id="svg5"
   inkscape:version="1.3 (0e150ed6c4, 2023-07-21)"
   sodipodi:docname="kamoso.svg"
   xmlns:inkscape="http://www.inkscape.org/namespaces/inkscape"
   xmlns:sodipodi="http://sodipodi.sourceforge.net/DTD/sodipodi-0.dtd"
   xmlns="http://www.w3.org/2000/svg"
   xmlns:svg="http://www.w3.org/2000/svg">
  <sodipodi:namedview
     id="namedview7"
     pagecolor="#ffffff"
     bordercolor="#000000"
     borderopacity="0.25"
     inkscape:showpageshadow="2"
     inkscape:pageopacity="0.0"
     inkscape:pagecheckerboard="0"
     inkscape:deskcolor="#d1d1d1"
     inkscape:document-units="px"
     showgrid="false"
     inkscape:zoom="3.1367188"
     inkscape:cx="128"
     inkscape:cy="128"
     inkscape:window-width="1850"
     inkscape:window-height="1011"
     inkscape:window-x="70"
     inkscape:window-y="32"
     inkscape:window-maximized="1"
     inkscape:current-layer="svg5" />
  <defs
     id="defs2" />
  <rect
     style="opacity:0.2;fill:#000000;stroke-width:16;stroke-linecap:square"
     id="rect234"
     width="224"
     height="224"
     x="16"
     y="18"
     ry="48" />
  <rect
     style="fill:#8e8e8e;fill-opacity:1;stroke-width:16;stroke-linecap:square"
     id="rect396"
     width="224"
     height="224"
     x="16"
     y="16"
     ry="48" />
  <path
     id="path907"
     style="opacity:0.1;fill:#000000;stroke-width:8"
     d="M 240,128 H 16 V 64 C 16,37.40802 37.408024,16 64,16 h 128 c 26.59198,0 48,21.40802 48,48 z" />
  <circle
     style="fill:#4f4f4f;fill-opacity:1;stroke-width:4;stroke-linecap:round;stroke-linejoin:round"
     id="path5622"
     cx="128"
     cy="128"
     r="80" />
  <circle
     style="opacity:0.2;fill:#000000;stroke-width:4;stroke-linecap:round;stroke-linejoin:round"
     id="path5676"
     cx="128"
     cy="130"
     r="64" />
  <circle
     style="fill:#00b1c4;fill-opacity:1;stroke-width:4;stroke-linecap:round;stroke-linejoin:round"
     id="path5825"
     cx="128"
     cy="128"
     r="64" />
  <circle
     style="opacity:0.2;fill:#000000;fill-opacity:1;stroke-width:4;stroke-linecap:round;stroke-linejoin:round"
     id="path7178"
     cx="128"
     cy="130"
     r="32" />
  <circle
     style="fill:#70f4ff;fill-opacity:1;stroke-width:4;stroke-linecap:round;stroke-linejoin:round"
     id="path7180"
     cx="128"
     cy="128"
     r="32" />
  <path
     id="path1"
     style="opacity:0.2;fill:#ffffff;fill-opacity:1;stroke-width:16"
     d="m 128,96 a 32,32 0 0 0 -32,32 32,32 0 0 0 0.07031,1.02344 A 32,32 0 0 1 128,98 32,32 0 0 1 159.96094,128.50781 32,32 0 0 0 160,128 32,32 0 0 0 128,96 Z" />
  <path
     id="path1040"
     style="opacity:0.2;fill:#ffffff;stroke-width:16;stroke-linecap:square"
     d="M 64,16 C 37.40808,16 16,37.40808 16,64 v 2 C 16,39.408082 37.408078,18 64,18 h 128 c 26.59192,0 48,21.408082 48,48 V 64 C 240,37.40808 218.59192,16 192,16 Z" />
</svg>
