<?xml version="1.0" encoding="UTF-8" standalone="no"?>
<!-- Created with Inkscape (http://www.inkscape.org/) -->

<svg
   width="256"
   height="256"
   viewBox="0 0 256 256"
   version="1.1"
   id="svg5"
   inkscape:version="1.3 (0e150ed6c4, 2023-07-21)"
   sodipodi:docname="kmahjongg.svg"
   xmlns:inkscape="http://www.inkscape.org/namespaces/inkscape"
   xmlns:sodipodi="http://sodipodi.sourceforge.net/DTD/sodipodi-0.dtd"
   xmlns="http://www.w3.org/2000/svg"
   xmlns:svg="http://www.w3.org/2000/svg">
  <sodipodi:namedview
     id="namedview7"
     pagecolor="#ffffff"
     bordercolor="#000000"
     borderopacity="0.25"
     inkscape:showpageshadow="2"
     inkscape:pageopacity="0.0"
     inkscape:pagecheckerboard="0"
     inkscape:deskcolor="#d1d1d1"
     inkscape:document-units="px"
     showgrid="false"
     inkscape:zoom="3.0585938"
     inkscape:cx="127.83653"
     inkscape:cy="128"
     inkscape:window-width="1920"
     inkscape:window-height="984"
     inkscape:window-x="0"
     inkscape:window-y="29"
     inkscape:window-maximized="1"
     inkscape:current-layer="svg5" />
  <defs
     id="defs2" />
  <rect
     style="opacity:0.2;fill:#000000;stroke-width:16;stroke-linecap:square"
     id="rect234"
     width="224"
     height="224"
     x="16"
     y="18"
     ry="48" />
  <rect
     style="fill:#c2352a;fill-opacity:1;stroke-width:16;stroke-linecap:square"
     id="rect396"
     width="224"
     height="224"
     x="16"
     y="16"
     ry="48" />
  <path
     opacity="0.2"
     d="m 109.27072,43.44256 c -1.3128,1.15792 -1.64096,2.89472 -1.64096,4.92104 0,3.7632 1.31272,8.3944 1.96912,10.1312 0,0 0.98464,20.2632 1.3128,22.5792 -2.95376,0.28944 -8.2048,0.57896 -10.1736,1.15784 h -2.62552 c -5.57928,0.28952 -10.8304,0.57896 -13.128,2.60528 L 84,85.70552 l 0.98456,1.15792 c 1.64096,1.7368 2.29736,6.65792 2.95376,11.8688 1.64096,10.7104 3.61,24.0264 13.456,29.2368 l 1.96912,0.8684 v -2.02632 c 0,0 0.3288,-0.8684 0.3288,-2.02632 0,-0.8684 -0.3288,-2.31584 -0.656,-4.34208 2.62552,0.28944 8.2048,0.8684 10.1736,0.8684 0.32792,2.31576 8.8608,96.688 8.8608,96.688 h 3.28192 c 0,0 3.61016,-93.208 3.61016,-96.104 2.29728,0 12.4712,0.28944 15.4248,0.57896 -0.656,1.73688 -3.28184,8.9736 -3.28184,8.9736 l 4.59464,-3.7632 c 1.3128,-0.8684 29.8656,-23.7368 25.9272,-38.7896 -1.3128,-4.92104 -5.90744,-8.3944 -13.456,-10.1312 h -0.6576 c -4.26648,0 -17.3944,0.28944 -27.24,0.8684 0.3288,-7.52632 0.3288,-11.5792 0.3288,-13.6056 v -2.6052 c 0,-1.44736 1.64096,-3.47368 2.95376,-4.92104 1.3128,-1.7368 2.95376,-3.18424 2.95376,-4.92104 0,-0.57896 -0.3288,-1.15792 -0.656,-1.7368 -1.96912,-2.60528 -16.4096,-9.2632 -22.6448,-9.8424 -1.96912,0.28944 -3.28192,0.57896 -3.93832,1.44736 z m 0.3288,47.4736 h 1.64096 c 0,2.60528 0.98456,20.8424 1.31272,23.4472 -2.62552,-0.28952 -8.8608,-0.8684 -10.8304,-0.8684 -0.98456,-3.7632 -1.3128,-7.81584 -1.64096,-11.8688 -0.328,-3.47368 -0.656,-6.94736 -1.3128,-10.1312 2.95376,0 10.8304,-0.57896 10.8304,-0.57896 z m 20.02,8.9736 c 0,0 0.328,-6.94736 0.328,-9.2632 4.2664,0.57896 9.8456,0.8684 15.0968,0.8684 h 5.90744 c 0,1.15792 -0.3288,2.60528 -0.3288,2.60528 -0.656,6.3684 -1.64096,13.8944 -4.59472,21.4208 -1.96904,0 -14.112,-0.57896 -16.7376,-0.8684 0,-2.02632 0.3288,-14.7632 0.3288,-14.7632 z"
     id="path3"
     style="fill:#000000;stroke-width:8" />
  <path
     fill="#ffffff"
     d="m 109.27072,41.44256 c -1.3128,1.15792 -1.64096,2.89472 -1.64096,4.92104 0,3.7632 1.31272,8.3944 1.96912,10.1312 0,0 0.98464,20.2632 1.3128,22.5792 -2.95376,0.28944 -8.2048,0.57896 -10.1736,1.15784 h -2.62552 c -5.57928,0.28952 -10.8304,0.57896 -13.128,2.60528 L 84,83.70552 l 0.98456,1.15792 c 1.64096,1.7368 2.29736,6.65792 2.95376,11.8688 1.64096,10.7104 3.61,24.0264 13.456,29.2368 l 1.96912,0.8684 v -2.02632 c 0,0 0.3288,-0.8684 0.3288,-2.02632 0,-0.8684 -0.3288,-2.31584 -0.656,-4.34208 2.62552,0.28944 8.2048,0.8684 10.1736,0.8684 0.32792,2.31576 8.8608,96.688 8.8608,96.688 h 3.28192 c 0,0 3.61016,-93.208 3.61016,-96.104 2.29728,0 12.4712,0.28944 15.4248,0.57896 -0.656,1.73688 -3.28184,8.9736 -3.28184,8.9736 l 4.59464,-3.7632 c 1.3128,-0.8684 29.8656,-23.7368 25.9272,-38.7896 -1.3128,-4.92104 -5.90744,-8.3944 -13.456,-10.1312 h -0.6576 c -4.26648,0 -17.3944,0.28944 -27.24,0.8684 0.3288,-7.52632 0.3288,-11.5792 0.3288,-13.6056 v -2.6052 c 0,-1.44736 1.64096,-3.47368 2.95376,-4.92104 1.3128,-1.7368 2.95376,-3.18424 2.95376,-4.92104 0,-0.57896 -0.3288,-1.15792 -0.656,-1.7368 -1.96912,-2.60528 -16.4096,-9.2632 -22.6448,-9.8424 -1.96912,0.28944 -3.28192,0.57896 -3.93832,1.44736 z m 0.3288,47.4736 h 1.64096 c 0,2.60528 0.98456,20.8424 1.31272,23.4472 -2.62552,-0.28952 -8.8608,-0.8684 -10.8304,-0.8684 -0.98456,-3.7632 -1.3128,-7.81584 -1.64096,-11.8688 -0.328,-3.47368 -0.656,-6.94736 -1.3128,-10.1312 2.95376,0 10.8304,-0.57896 10.8304,-0.57896 z m 20.02,8.9736 c 0,0 0.328,-6.94736 0.328,-9.2632 4.2664,0.57896 9.8456,0.8684 15.0968,0.8684 h 5.90744 c 0,1.15792 -0.3288,2.60528 -0.3288,2.60528 -0.656,6.3684 -1.64096,13.8944 -4.59472,21.4208 -1.96904,0 -14.112,-0.57896 -16.7376,-0.8684 0,-2.02632 0.3288,-14.7632 0.3288,-14.7632 z"
     id="path4"
     style="stroke-width:8" />
  <path
     id="path1040"
     style="opacity:0.2;fill:#ffffff;stroke-width:16;stroke-linecap:square"
     d="M 64,16 C 37.40808,16 16,37.40808 16,64 v 2 C 16,39.408084 37.40808,18 64,18 h 128 c 26.59192,0 48,21.408084 48,48 V 64 C 240,37.40808 218.59192,16 192,16 Z" />
</svg>
