<?xml version="1.0" encoding="UTF-8" standalone="no"?>
<!-- Created with Inkscape (http://www.inkscape.org/) -->

<svg
   width="256"
   height="256"
   viewBox="0 0 256 256"
   version="1.1"
   id="svg5"
   inkscape:version="1.3 (0e150ed6c4, 2023-07-21)"
   sodipodi:docname="lightsoff.svg"
   xmlns:inkscape="http://www.inkscape.org/namespaces/inkscape"
   xmlns:sodipodi="http://sodipodi.sourceforge.net/DTD/sodipodi-0.dtd"
   xmlns="http://www.w3.org/2000/svg"
   xmlns:svg="http://www.w3.org/2000/svg">
  <sodipodi:namedview
     id="namedview7"
     pagecolor="#ffffff"
     bordercolor="#000000"
     borderopacity="0.25"
     inkscape:showpageshadow="2"
     inkscape:pageopacity="0.0"
     inkscape:pagecheckerboard="0"
     inkscape:deskcolor="#d1d1d1"
     inkscape:document-units="px"
     showgrid="false"
     inkscape:zoom="3.0585938"
     inkscape:cx="127.83653"
     inkscape:cy="128"
     inkscape:window-width="1920"
     inkscape:window-height="984"
     inkscape:window-x="0"
     inkscape:window-y="29"
     inkscape:window-maximized="1"
     inkscape:current-layer="svg5" />
  <defs
     id="defs2" />
  <rect
     style="opacity:0.2;fill:#000000;stroke-width:16;stroke-linecap:square"
     id="rect234"
     width="224"
     height="224"
     x="16"
     y="18"
     ry="48" />
  <path
     id="rect396"
     style="fill:#1f8fd7;fill-opacity:1;stroke-width:16;stroke-linecap:square"
     d="M 128,16 16,128 v 64 c 0,26.59196 21.408028,48 48,48 h 64 L 240,128 V 64 C 240,37.408028 218.59196,16 192,16 Z" />
  <path
     id="rect3568"
     style="fill:#2d4a5d;fill-opacity:1;stroke-width:8"
     d="m 128,128 v 112 h 64 c 26.59196,0 48,-21.40806 48,-48 v -64 z" />
  <path
     id="rect3848"
     style="fill:#2d4a5d;fill-opacity:1;stroke-width:8"
     d="M 64,16 C 37.408,16 16,37.408024 16,64 v 64 H 128 V 16 Z" />
  <path
     id="path1040"
     style="opacity:0.1;fill:#ffffff;stroke-width:16;stroke-linecap:square"
     d="M 64,16 C 37.408184,16 16,37.408188 16,64 v 2 C 16,39.408188 37.408184,18 64,18 h 128 c 26.59182,0 48,21.408188 48,48 V 64 C 240,37.408188 218.59182,16 192,16 Z" />
</svg>
