<?xml version="1.0" encoding="UTF-8" standalone="no"?>
<!-- Created with Inkscape (http://www.inkscape.org/) -->

<svg
   width="256"
   height="256"
   viewBox="0 0 256 256"
   version="1.1"
   id="svg5"
   inkscape:version="1.2.2 (1:1.2.2+202305151914+b0a8486541)"
   sodipodi:docname="lunarclient.svg"
   xmlns:inkscape="http://www.inkscape.org/namespaces/inkscape"
   xmlns:sodipodi="http://sodipodi.sourceforge.net/DTD/sodipodi-0.dtd"
   xmlns="http://www.w3.org/2000/svg"
   xmlns:svg="http://www.w3.org/2000/svg">
  <sodipodi:namedview
     id="namedview7"
     pagecolor="#ffffff"
     bordercolor="#000000"
     borderopacity="0.25"
     inkscape:showpageshadow="2"
     inkscape:pageopacity="0.0"
     inkscape:pagecheckerboard="0"
     inkscape:deskcolor="#d1d1d1"
     inkscape:document-units="px"
     showgrid="false"
     inkscape:zoom="3.1484375"
     inkscape:cx="127.84119"
     inkscape:cy="128"
     inkscape:window-width="1920"
     inkscape:window-height="1008"
     inkscape:window-x="0"
     inkscape:window-y="0"
     inkscape:window-maximized="1"
     inkscape:current-layer="svg5" />
  <defs
     id="defs2" />
  <rect
     style="opacity:0.2;fill:#000000;stroke-width:16;stroke-linecap:square"
     id="rect234"
     width="224"
     height="224"
     x="16"
     y="18"
     ry="48" />
  <rect
     style="fill:#3f3f3f;fill-opacity:1;stroke-width:16;stroke-linecap:square"
     id="rect396"
     width="224"
     height="224"
     x="16"
     y="16"
     ry="48" />
  <path
     d="m 127.82032,50.08195 c -0.66788,0.10968 -1.31239,0.33156 -1.90625,0.656252 0,0 -17.75343,9.728008 -35.55469,20.1875 -8.900636,5.229744 -17.8053,10.633224 -24.625,15.179688 -3.409852,2.273228 -6.281404,4.311964 -8.507812,6.148436 -1.113208,0.91824 -2.064528,1.760436 -2.945316,2.765624 -0.880788,1.005196 -2.281248,1.8643 -2.281248,5.375 v 65.60157 h 12 v -63.70313 c 0.274,-0.25892 0.404708,-0.40622 0.859376,-0.78125 1.645432,-1.35725 4.303648,-3.270142 7.531248,-5.421874 6.455208,-4.303464 15.247628,-9.65014 24.046876,-14.820316 16.140116,-9.483444 29.749596,-16.946052 32.320316,-18.359372 2.5405,1.429056 15.79235,8.857304 31.54687,18.328124 8.59908,5.169332 17.19498,10.512016 23.5,14.8125 3.15251,2.15024 5.74833,4.061058 7.35157,5.414068 0.44798,0.37808 0.57688,0.53065 0.84376,0.78906 v 63.74219 h 12 v -65.60157 c 0,-3.439304 -1.35554,-4.312404 -2.21876,-5.320312 -0.8632,-1.0079 -1.79224,-1.860888 -2.88282,-2.781248 -2.18114,-1.840724 -4.9931,-3.881524 -8.32812,-6.156252 -6.67003,-4.549448 -15.37715,-9.9491 -24.07813,-15.179688 -17.40194,-10.461164 -34.75781,-20.195312 -34.75781,-20.195312 -1.18967,-0.664396 -2.57005,-0.904104 -3.91406,-0.679688 z M 130,71.996014 128.58594,74.58195 126,75.996014 128.58594,77.410078 130,79.996014 131.41407,77.410078 134,75.996014 131.41407,74.58195 Z m -18.36718,9.632812 c -19.105516,7.66542 -31.628808,26.179724 -31.632816,46.765624 0.0144,19.53999 11.321652,37.31093 29.015626,45.60157 H 44.000004 v 2.67188 h 71.976566 l 0.0236,0.008 H 60.000168 v 2.64062 h -16 v 2.66406 H 204.00018 v -2.66406 h -16 v -2.64082 h -43.36736 l 0.0236,-0.008 h 59.3436 v -2.67168 h -52.35158 c 11.60379,-5.3801 20.72803,-14.97074 25.52343,-26.82812 -5.96918,2.39514 -12.34164,3.62562 -18.77344,3.625 -27.83396,-7.8e-4 -50.39766,-22.56448 -50.39843,-50.39845 0.003,-6.429668 1.23597,-12.799404 3.63282,-18.765624 z m 54.36719,14.367188 -1.41408,2.585936 -2.58592,1.414064 2.58592,1.414066 1.41408,2.58593 1.41406,-2.58593 2.58594,-1.414066 -2.58594,-1.414064 z m -44.00001,2 -2.125,3.874996 -3.875,2.125 3.875,2.125 2.125,3.875 2.125,-3.875 3.875,-2.125 -3.875,-2.125 z m -47.999996,2 -1.414064,2.585936 -2.585936,1.41406 2.585936,1.41407 1.414064,2.58593 1.414064,-2.58593 2.585936,-1.41407 -2.585936,-1.41406 z M 142,107.99601 l -1.41406,2.58594 -2.58594,1.41406 2.58594,1.41407 1.41406,2.58593 1.41407,-2.58593 2.58593,-1.41407 -2.58593,-1.41406 z m 32.00001,8 -2.82814,5.17188 -5.17186,2.82812 5.17186,2.82813 2.82814,5.17187 2.82812,-5.17187 5.17188,-2.82813 -5.17188,-2.82812 z m -24.00001,10 -2.125,3.875 -3.875,2.125 3.875,2.125 2.125,3.875 2.125,-3.875 3.87501,-2.125 -3.87501,-2.125 z m -71.999996,22.00001 -2.828124,5.17188 -5.171876,2.82812 5.171876,2.82812 2.828124,5.17188 2.828124,-5.17188 5.171876,-2.82812 -5.171876,-2.82812 z m -10,34 v 2.67188 H 180.00001 v -2.67188 z m -16,2.67968 v 2.67188 h 32 v 2.63282 h 80.000006 v -2.63282 h 32.00001 v -2.67188 z m 16,5.32032 v 2.67188 H 180.00001 v -2.67188 z M 104,192.6757 v 2.64062 h -7.999996 v 2.66408 H 152 v -2.66408 h -8 v -2.64062 z"
     style="opacity:0.2;fill:#000000;stroke-width:4"
     id="path1151" />
  <path
     d="m 127.82032,48.081944 c -0.66788,0.10968 -1.31239,0.33156 -1.90625,0.656252 0,0 -17.75343,9.728008 -35.55469,20.1875 -8.900636,5.229744 -17.8053,10.633224 -24.625,15.179688 -3.409852,2.273228 -6.281404,4.311964 -8.507812,6.148436 -1.113208,0.91824 -2.064528,1.760436 -2.945316,2.765624 -0.880788,1.005196 -2.281248,1.8643 -2.281248,5.375 v 65.601566 h 12 v -63.70313 c 0.274,-0.25892 0.404708,-0.406212 0.859376,-0.781248 1.645432,-1.357248 4.303648,-3.27014 7.531248,-5.421872 C 78.845836,89.786296 87.638256,84.43962 96.437504,79.269444 112.57762,69.786 126.1871,62.323392 128.75782,60.910072 c 2.5405,1.429056 15.79235,8.857304 31.54687,18.328124 8.59908,5.169332 17.19498,10.512016 23.5,14.8125 3.15251,2.15024 5.74833,4.06106 7.35157,5.414064 0.44798,0.37808 0.57688,0.530652 0.84376,0.78906 v 63.74219 h 12 V 98.394444 c 0,-3.439304 -1.35554,-4.312404 -2.21876,-5.320312 -0.8632,-1.0079 -1.79224,-1.860888 -2.88282,-2.781248 -2.18114,-1.840724 -4.9931,-3.881524 -8.32812,-6.156252 -6.67003,-4.549448 -15.37715,-9.9491 -24.07813,-15.179688 -17.40194,-10.461164 -34.75781,-20.195312 -34.75781,-20.195312 -1.18967,-0.664396 -2.57005,-0.904104 -3.91406,-0.679688 z M 130,69.996008 128.58594,72.581944 126,73.996008 128.58594,75.410072 130,77.996008 131.41407,75.410072 134,73.996008 131.41407,72.581944 Z m -18.36718,9.632812 c -19.105516,7.66542 -31.628808,26.17973 -31.632816,46.76562 0.0144,19.53999 11.321652,37.31093 29.015626,45.60157 H 44.000004 v 2.67188 h 71.976566 l 0.0236,0.008 H 60.000168 v 2.64062 h -16 v 2.66406 H 204.00018 v -2.66406 h -16 v -2.64082 h -43.36736 l 0.0236,-0.008 h 59.3436 v -2.67168 h -52.35158 c 11.60379,-5.3801 20.72803,-14.97074 25.52343,-26.82812 -5.96918,2.39514 -12.34164,3.62562 -18.77344,3.625 C 130.56447,148.79211 108.00077,126.22842 108,98.394444 c 0.003,-6.429668 1.23597,-12.799404 3.63282,-18.765624 z m 54.36719,14.367188 -1.41408,2.585936 -2.58592,1.414064 2.58592,1.414064 1.41408,2.585938 1.41406,-2.585938 2.58594,-1.414064 -2.58594,-1.414064 z m -44.00001,2 -2.125,3.875 -3.875,2.125002 3.875,2.125 2.125,3.875 2.125,-3.875 3.875,-2.125 -3.875,-2.125002 z m -47.999996,2 -1.414064,2.585932 -2.585936,1.41407 2.585936,1.41406 1.414064,2.58594 1.414064,-2.58594 2.585936,-1.41406 -2.585936,-1.41407 z M 142,105.99601 l -1.41406,2.58593 -2.58594,1.41407 2.58594,1.41406 1.41406,2.58594 1.41407,-2.58594 2.58593,-1.41406 -2.58593,-1.41407 z m 32.00001,8 -2.82814,5.17187 -5.17186,2.82813 5.17186,2.82812 2.82814,5.17188 2.82812,-5.17188 5.17188,-2.82812 -5.17188,-2.82813 z m -24.00001,10 -2.125,3.875 -3.875,2.125 3.875,2.125 2.125,3.875 2.125,-3.875 3.87501,-2.125 -3.87501,-2.125 z m -71.999996,22 -2.828124,5.17188 -5.171876,2.82812 5.171876,2.82812 2.828124,5.17188 2.828124,-5.17188 5.171876,-2.82812 -5.171876,-2.82812 z m -10,34 v 2.67188 H 180.00001 v -2.67188 z m -16,2.67968 v 2.67189 h 32 v 2.63282 h 80.000006 v -2.63282 h 32.00001 v -2.67189 z m 16,5.32033 v 2.67188 H 180.00001 v -2.67188 z M 104,190.6757 v 2.64062 h -7.999996 v 2.66408 H 152 v -2.66408 h -8 v -2.64062 z"
     style="fill:#ffffff;stroke-width:4"
     id="path444" />
  <path
     id="path1040"
     style="opacity:0.1;fill:#ffffff;stroke-width:16;stroke-linecap:square"
     d="M 64,16 C 37.408052,16 16,37.408054 16,64 v 2 C 16,39.408026 37.408026,18 64,18 h 128 c 26.59198,0 48,21.408026 48,48 V 64 C 240,37.408054 218.59194,16 192,16 Z" />
</svg>
