<?xml version="1.0" encoding="UTF-8" standalone="no"?>
<!-- Created with Inkscape (http://www.inkscape.org/) -->

<svg
   width="256"
   height="256"
   viewBox="0 0 256 256"
   version="1.1"
   id="svg5"
   inkscape:version="1.3 (0e150ed6c4, 2023-07-21)"
   sodipodi:docname="maps.svg"
   xmlns:inkscape="http://www.inkscape.org/namespaces/inkscape"
   xmlns:sodipodi="http://sodipodi.sourceforge.net/DTD/sodipodi-0.dtd"
   xmlns="http://www.w3.org/2000/svg"
   xmlns:svg="http://www.w3.org/2000/svg">
  <sodipodi:namedview
     id="namedview7"
     pagecolor="#ffffff"
     bordercolor="#000000"
     borderopacity="0.25"
     inkscape:showpageshadow="2"
     inkscape:pageopacity="0.0"
     inkscape:pagecheckerboard="0"
     inkscape:deskcolor="#d1d1d1"
     inkscape:document-units="px"
     showgrid="false"
     inkscape:zoom="3.0585938"
     inkscape:cx="127.83653"
     inkscape:cy="128"
     inkscape:window-width="1920"
     inkscape:window-height="984"
     inkscape:window-x="0"
     inkscape:window-y="29"
     inkscape:window-maximized="1"
     inkscape:current-layer="svg5" />
  <defs
     id="defs2" />
  <rect
     style="opacity:0.2;fill:#000000;stroke-width:16;stroke-linecap:square"
     id="rect234"
     width="224"
     height="224"
     x="16"
     y="18"
     ry="48" />
  <rect
     style="fill:#219652;fill-opacity:1;stroke-width:16;stroke-linecap:square"
     id="rect396"
     width="224"
     height="224"
     x="16"
     y="16"
     ry="48" />
  <path
     id="path3"
     style="opacity:0.1;fill:#000000;stroke-width:8"
     d="m 33.539064,26.859376 c -5.951012,4.879292 -10.703014,11.1563 -13.750002,18.35156 L 208.13282,237.1875 c 7.43408,-2.64054 13.99116,-7.04916 19.21094,-12.73438 l -83.50001,-84.84374 92.37501,-94.375004 c -3.04662,-7.204732 -7.80056,-13.490584 -13.75782,-18.375 L 128,123.35938 Z" />
  <path
     id="path4"
     style="fill:#eff0f1;stroke-width:8"
     d="M 34.671876,26.015624 C 28.591792,30.709796 23.68996,36.81492 20.4375,43.875 l 188.78126,192.90624 c 7.3388,-2.80944 13.79298,-7.3436 18.875,-13.14062 L 143.84375,137.59375 235.5625,43.890624 c -3.25242,-7.06548 -8.15062,-13.177988 -14.23438,-17.875 L 128,121.35938 Z" />
  <path
     id="path5"
     style="fill:#f64d4d;stroke-width:8"
     d="M 225.625,29.718752 124.04687,133.54687 c -2.18206,2.24233 -2.18206,5.86706 0,8.10938 l 29.18751,29.95313 C 151.97388,165.83106 151.0625,161.25 151.0625,161.25 c 0,0 4.45114,0.9275 10.07812,2.21875 L 135.92187,137.59375 232.75,38.656248 c -2.0251,-3.258756 -4.40094,-6.26562 -7.125,-8.937496 z" />
  <path
     style="fill:#fdbc4b;stroke-width:8"
     d="m 16.001536,107.39868 v 23.43586 c 0.677464,0.17824 1.347428,0.36936 2.00256,0.58472 4.824792,1.58637 9.205996,4.21232 12.475464,7.56857 5.31332,5.45437 8.932456,14.37268 12.869028,24.68244 3.9842,10.43452 8.790544,22.99749 19.571224,32.43505 10.758884,9.41846 23.868932,12.42248 35.296508,14.01522 11.31585,1.57708 21.4636,2.05292 29.76631,4.67766 7.80193,2.46648 15.1172,7.0444 20.995,13.04762 3.49453,3.56906 6.5054,7.6909 8.97391,12.15126 h 24.69624 c -3.929,-10.58298 -9.95483,-20.3504 -17.86384,-28.42816 -8.39616,-8.5753 -18.75482,-15.10922 -30.20329,-18.7285 -12.07783,-3.81824 -23.53227,-4.1168 -33.34893,-5.48498 -9.704936,-1.35262 -18.304816,-3.94417 -23.767336,-8.72613 -5.495288,-4.81065 -9.437968,-13.33349 -13.256808,-23.33494 -3.866468,-10.12619 -8.070176,-22.47042 -17.881204,-32.54188 -6.136364,-6.29926 -13.639288,-10.62761 -21.486968,-13.2079 -2.93216,-0.96408 -5.888434,-1.65012 -8.837868,-2.14591 z"
     id="path6" />
  <path
     id="path7"
     style="fill:#2980b9;stroke-width:8"
     d="M 16,119.04687 V 192 c 0,26.59198 21.408028,48 48,48 H 170.53125 C 167.19683,232.47582 162.58352,225.53344 156.875,219.70312 149.73804,212.41388 140.90642,206.8554 131.28125,203.8125 121.091,200.591 110.28498,200.22268 99.718752,198.75 89.152512,197.27736 78.298184,194.4752 70.187504,187.375 62.049536,180.25091 57.682768,169.70233 53.781248,159.48438 49.879732,149.26642 45.968408,138.6379 38.406248,130.875 33.703344,126.04727 27.7581,122.5677 21.421876,120.48438 19.642718,119.89939 17.830408,119.42121 16,119.04687 Z" />
  <path
     style="opacity:0.1;fill:#000000;stroke-width:8"
     d="m 160,170.00012 c 0,0 7.34516,40.14656 16.40211,49.20492 9.05771,9.05928 23.74419,9.0602 32.80305,0.002 9.05978,-9.05886 9.05978,-23.74746 0,-32.80632 C 200.1463,177.34262 160,170 160,170 Z"
     id="path8" />
  <path
     style="fill:#f64d4d;stroke-width:8"
     d="m 160,168.00012 c 0,0 7.34516,40.14656 16.40211,49.20494 9.05771,9.05926 23.74419,9.0602 32.80305,0.002 9.05978,-9.05886 9.05978,-23.74748 0,-32.80634 C 200.1463,175.34262 160,168 160,168 Z"
     id="path9" />
  <path
     id="path11"
     style="opacity:0.1;fill:#000000;stroke-width:8"
     d="m 16,119.04688 v 2 c 1.830408,0.37432 3.642718,0.85251 5.421876,1.4375 6.336224,2.08332 12.281472,5.56289 16.984376,10.39062 7.56216,7.7629 11.47348,18.39142 15.374996,28.60938 3.901524,10.21794 8.268284,20.76653 16.406252,27.89062 8.11068,7.1002 18.965012,9.90236 29.531252,11.375 10.566238,1.47268 21.372248,1.841 31.562498,5.0625 9.62517,3.0429 18.45679,8.60138 25.59375,15.89062 5.1972,5.3081 9.47576,11.54542 12.71875,18.29688 h 0.9375 C 167.19683,232.47582 162.58352,225.53344 156.875,219.70312 149.73804,212.41388 140.90642,206.8554 131.28125,203.8125 121.091,200.591 110.28499,200.22268 99.718752,198.75 89.152512,197.27736 78.29818,194.4752 70.1875,187.375 62.049532,180.25091 57.682772,169.70232 53.781248,159.48438 49.879732,149.26642 45.968408,138.6379 38.406252,130.875 33.703348,126.04727 27.7581,122.5677 21.421876,120.48438 19.642718,119.89939 17.830408,119.42121 16,119.04688 Z" />
  <circle
     style="fill:#eff0f1;fill-opacity:1;stroke-width:8;stroke-linecap:round;stroke-linejoin:round"
     id="path12"
     cx="194"
     cy="202"
     r="12" />
  <path
     id="path1040"
     style="opacity:0.2;fill:#ffffff;stroke-width:16;stroke-linecap:square"
     d="M 64,16 C 37.40808,16 16,37.40808 16,64 v 2 C 16,39.408084 37.40808,18 64,18 h 128 c 26.59192,0 48,21.408084 48,48 V 64 C 240,37.40808 218.59192,16 192,16 Z" />
</svg>
