<?xml version="1.0" encoding="UTF-8" standalone="no"?>
<!-- Created with Inkscape (http://www.inkscape.org/) -->

<svg
   width="256"
   height="256"
   viewBox="0 0 256 256"
   version="1.1"
   id="svg5"
   inkscape:version="1.2.2 (1:1.2.2+202305151914+b0a8486541)"
   sodipodi:docname="microsoft.svg"
   xmlns:inkscape="http://www.inkscape.org/namespaces/inkscape"
   xmlns:sodipodi="http://sodipodi.sourceforge.net/DTD/sodipodi-0.dtd"
   xmlns="http://www.w3.org/2000/svg"
   xmlns:svg="http://www.w3.org/2000/svg">
  <sodipodi:namedview
     id="namedview7"
     pagecolor="#ffffff"
     bordercolor="#000000"
     borderopacity="0.25"
     inkscape:showpageshadow="2"
     inkscape:pageopacity="0.0"
     inkscape:pagecheckerboard="0"
     inkscape:deskcolor="#d1d1d1"
     inkscape:document-units="px"
     showgrid="false"
     inkscape:zoom="3.1484375"
     inkscape:cx="127.84119"
     inkscape:cy="128"
     inkscape:window-width="1920"
     inkscape:window-height="1008"
     inkscape:window-x="0"
     inkscape:window-y="0"
     inkscape:window-maximized="1"
     inkscape:current-layer="svg5" />
  <defs
     id="defs2" />
  <rect
     style="opacity:0.2;fill:#000000;stroke-width:16;stroke-linecap:square"
     id="rect234"
     width="224"
     height="224"
     x="16"
     y="18"
     ry="48" />
  <rect
     style="fill:#efefef;fill-opacity:1;stroke-width:16;stroke-linecap:square"
     id="rect396"
     width="224"
     height="224"
     x="16"
     y="16"
     ry="48" />
  <path
     id="rect7426"
     style="opacity:0.2;fill:#000000;fill-opacity:1;stroke-width:40;stroke-linecap:round;stroke-linejoin:round"
     d="m 56,58 v 64 h 64 V 58 Z m 80,0 v 64 h 64 V 58 Z m -80,80 v 64 h 64 v -64 z m 80,0 v 64 h 64 v -64 z" />
  <rect
     style="fill:#eb572a;fill-opacity:1;stroke-width:40;stroke-linecap:round;stroke-linejoin:round"
     id="rect6589"
     width="64"
     height="64"
     x="56"
     y="56" />
  <rect
     style="fill:#79a61c;fill-opacity:1;stroke-width:40;stroke-linecap:round;stroke-linejoin:round"
     id="rect6850"
     width="64"
     height="64"
     x="135.99998"
     y="56" />
  <rect
     style="fill:#459ee9;fill-opacity:1;stroke-width:40;stroke-linecap:round;stroke-linejoin:round"
     id="rect7042"
     width="64"
     height="64"
     x="56"
     y="135.99998" />
  <rect
     style="fill:#ffba08;fill-opacity:1;stroke-width:40;stroke-linecap:round;stroke-linejoin:round"
     id="rect7165"
     width="64"
     height="64"
     x="135.99998"
     y="135.99998" />
  <path
     id="path1040"
     style="opacity:0.2;fill:#ffffff;stroke-width:16;stroke-linecap:square"
     d="M 64,16 C 37.408052,16 16,37.408054 16,64 v 2 C 16,39.408026 37.408026,18 64,18 h 128 c 26.59198,0 48,21.408026 48,48 V 64 C 240,37.408054 218.59194,16 192,16 Z" />
</svg>
