<?xml version="1.0" encoding="UTF-8" standalone="no"?>
<!-- Created with Inkscape (http://www.inkscape.org/) -->

<svg
   width="256"
   height="256"
   viewBox="0 0 256 256"
   version="1.1"
   id="svg5"
   inkscape:version="1.2.2 (1:1.2.2+202305151914+b0a8486541)"
   sodipodi:docname="ms-onedrive.svg"
   xmlns:inkscape="http://www.inkscape.org/namespaces/inkscape"
   xmlns:sodipodi="http://sodipodi.sourceforge.net/DTD/sodipodi-0.dtd"
   xmlns="http://www.w3.org/2000/svg"
   xmlns:svg="http://www.w3.org/2000/svg">
  <sodipodi:namedview
     id="namedview7"
     pagecolor="#ffffff"
     bordercolor="#000000"
     borderopacity="0.25"
     inkscape:showpageshadow="2"
     inkscape:pageopacity="0.0"
     inkscape:pagecheckerboard="0"
     inkscape:deskcolor="#d1d1d1"
     inkscape:document-units="px"
     showgrid="false"
     inkscape:zoom="3.1484375"
     inkscape:cx="127.84119"
     inkscape:cy="128"
     inkscape:window-width="1920"
     inkscape:window-height="1008"
     inkscape:window-x="0"
     inkscape:window-y="0"
     inkscape:window-maximized="1"
     inkscape:current-layer="svg5" />
  <defs
     id="defs2" />
  <rect
     style="opacity:0.2;fill:#000000;stroke-width:16;stroke-linecap:square"
     id="rect234"
     width="224"
     height="224"
     x="16"
     y="18"
     ry="48" />
  <rect
     style="fill:#efefef;fill-opacity:1;stroke-width:16;stroke-linecap:square"
     id="rect396"
     width="224"
     height="224"
     x="16"
     y="16"
     ry="48" />
  <path
     id="path2335"
     style="opacity:0.2;fill:#000000;fill-opacity:1;stroke-width:19.9999;stroke-linecap:round;stroke-linejoin:round"
     d="m 129.99973,74.000179 c -18.33491,0.0416 -35.488175,9.055892 -45.921742,24.132722 -23.495486,1.0272 -42.029467,20.349179 -42.077987,43.867059 0,24.30045 19.699418,43.99986 43.999861,43.99986 0,0 95.998938,0 95.999698,0 19.88218,0 35.99989,-16.11771 35.99989,-35.99988 -0.004,-19.22902 -15.11972,-35.05997 -34.32801,-35.95301 -7.05942,-23.753762 -28.89115,-40.043351 -53.67171,-40.046751 z"
     sodipodi:nodetypes="cccccccc" />
  <circle
     style="fill:#056ab6;fill-opacity:1;stroke-width:19.9999;stroke-linecap:round;stroke-linejoin:round"
     id="path2444"
     cx="129.99971"
     cy="128"
     r="55.999821" />
  <path
     id="path2737"
     style="opacity:0.1;fill:#ffffff;fill-opacity:1;stroke-width:19.9999;stroke-linecap:round;stroke-linejoin:round"
     d="M 129.99973,72.000186 A 55.999822,55.999862 0 0 0 73.9999,128.00001 55.999822,55.999862 0 0 0 74.0703,129 a 55.999822,55.999862 0 0 1 55.92943,-54.999821 55.999822,55.999862 0 0 1 55.96074,54.523271 55.999822,55.999862 0 0 0 0.0391,-0.52344 55.999822,55.999862 0 0 0 -55.99982,-55.999824 z" />
  <path
     d="m 181.99956,112.00002 c -5.09366,0.2524 -9.51821,1.19691 -13.67964,2.71879 l -0.008,0.008 c -13.33427,5.56066 -27.18959,11.34908 -39.22627,16.37475 l -79.679432,33.26549 c 7.370136,11.06929 19.351218,18.21138 32.593656,19.42966 v 0.2032 h 3.999988 95.999698 c 19.88218,0 35.99989,-16.11771 35.99989,-35.99989 0,-19.88217 -16.11771,-35.99988 -35.99989,-35.99988 z"
     style="fill:#138fe6;stroke-width:3.99999"
     id="path2578"
     sodipodi:nodetypes="scccccccssss" />
  <path
     d="m 85.999862,96.000111 c -16.120429,0.02 -30.939582,8.852769 -38.624838,23.023369 l -0.08,0.024 C 43.918314,125.27562 42,132.41599 42,139.99997 c 0.008,22.74253 17.351545,41.72923 39.999873,43.79674 v 0.2032 h 3.999988 95.999699 c 13.30644,-0.008 25.5224,-7.35842 31.7655,-19.1093 l -61.73412,-36.79676 -44.34362,-26.4296 -0.1408,0.04 C 100.97293,97.985381 93.552557,96.021271 85.999861,96.000991 Z"
     style="fill:#1581d9;stroke-width:3.99999"
     id="path2550"
     sodipodi:nodetypes="cccccccccccccc" />
  <path
     d="m 145.54568,124.22706 -96.124662,40.13267 c 0.056,0.0888 0.119999,0.1772 0.179999,0.2656 0.800638,1.18344 1.659995,2.31647 2.562472,3.40623 0.1448,0.174 0.282399,0.3516 0.429599,0.52344 0.920317,1.07699 1.885514,2.10107 2.898391,3.07811 0.119199,0.1152 0.231199,0.238 0.351998,0.3516 2.310473,2.17879 4.846625,4.0941 7.554696,5.71874 0.1224,0.0736 0.2512,0.1384 0.375199,0.2108 1.196956,0.70224 2.428073,1.35079 3.687509,1.93751 0.270399,0.1256 0.547198,0.2388 0.820317,0.3592 1.134476,0.50064 2.292073,0.95516 3.468709,1.35936 0.337599,0.1156 0.673598,0.236 1.015597,0.3436 1.183916,0.37479 2.391112,0.67871 3.609428,0.95311 0.324799,0.0728 0.640798,0.1688 0.968717,0.2344 1.532075,0.3088 3.08287,0.55056 4.656225,0.69528 v 0.2032 h 3.999988 95.999698 c 1.52096,-0.001 3.02271,-0.124 4.50783,-0.3124 0.352,-0.044 0.69839,-0.11 1.04687,-0.164 1.23944,-0.1948 2.46176,-0.43784 3.66399,-0.75784 0.2376,-0.0624 0.476,-0.12 0.7112,-0.1876 2.90671,-0.83759 5.68558,-2.03387 8.27341,-3.55466 0.2288,-0.1348 0.4544,-0.2744 0.68,-0.41408 1.20536,-0.74464 2.37311,-1.54664 3.48439,-2.42968 0.032,-0.028 0.072,-0.0504 0.1096,-0.0784 0.008,-0.008 0.016,-0.02 0.032,-0.032 1.19176,-0.95663 2.32431,-1.99443 3.39063,-3.10155 0.1328,-0.138 0.252,-0.28959 0.3824,-0.42967 0.94055,-1.00836 1.83047,-2.07464 2.65623,-3.19531 0.1088,-0.1468 0.2216,-0.2892 0.328,-0.43752 0.90992,-1.2752 1.75287,-2.60927 2.49999,-4.01559"
     style="fill:#38afec;stroke-width:7.99997"
     id="path2661"
     sodipodi:nodetypes="cccccscscccccccccccccccsccccscccc" />
  <path
     id="path2775"
     style="opacity:0.2;fill:#ffffff;stroke-width:3.99999"
     d="m 181.99956,112.00006 c -5.09366,0.2524 -9.51821,1.19687 -13.67964,2.71875 l -0.008,0.008 c -13.33423,5.56066 -118.905862,49.64048 -118.905862,49.64048 0.350799,0.52668 0.722558,1.03816 1.093756,1.54688 1.905594,-0.79568 104.600396,-43.67778 117.812106,-49.18737 l 0.008,-0.008 c 4.16143,-1.52187 8.58598,-2.46635 13.67964,-2.71875 19.54662,0 35.44505,15.58167 35.97645,34.99989 0.008,-0.3332 0.024,-0.66444 0.024,-1 0,-19.88217 -16.11771,-35.99988 -35.99989,-35.99988 z" />
  <path
     id="path2689"
     style="opacity:0.1;fill:#ffffff;stroke-width:3.99999"
     d="m 85.999862,96.000111 c -16.120429,0.02 -30.939622,8.852769 -38.624878,23.023369 l -0.078,0.024 C 43.920154,125.27506 42,132.41599 42,139.99997 c 1.2e-4,0.3644 0.024,0.72336 0.032,1.08592 0.1484,-7.24146 2.025714,-14.0632 5.265624,-20.03898 l 0.078,-0.024 c 7.684616,-14.17004 22.503809,-23.002809 38.624238,-23.022809 7.552696,0.02 14.973238,1.98424 21.546818,5.703099 l 0.1408,-0.04 105.21838,62.71073 c 0.2916,-0.49092 0.58972,-0.9768 0.8594,-1.48436 l -106.07778,-63.22636 -0.1408,0.04 C 100.9731,97.984341 93.552558,96.020391 85.999862,96.000111 Z" />
  <path
     id="path1040"
     style="opacity:0.2;fill:#ffffff;stroke-width:16;stroke-linecap:square"
     d="M 64,16 C 37.408052,16 16,37.408054 16,64 v 2 C 16,39.408026 37.408026,18 64,18 h 128 c 26.59198,0 48,21.408026 48,48 V 64 C 240,37.408054 218.59194,16 192,16 Z" />
</svg>
