<?xml version="1.0" encoding="UTF-8" standalone="no"?>
<!-- Created with Inkscape (http://www.inkscape.org/) -->

<svg
   width="256"
   height="256"
   viewBox="0 0 256 256"
   version="1.1"
   id="svg5"
   inkscape:version="1.3 (0e150ed6c4, 2023-07-21)"
   sodipodi:docname="ms-outlook.svg"
   xmlns:inkscape="http://www.inkscape.org/namespaces/inkscape"
   xmlns:sodipodi="http://sodipodi.sourceforge.net/DTD/sodipodi-0.dtd"
   xmlns="http://www.w3.org/2000/svg"
   xmlns:svg="http://www.w3.org/2000/svg">
  <sodipodi:namedview
     id="namedview7"
     pagecolor="#ffffff"
     bordercolor="#000000"
     borderopacity="0.25"
     inkscape:showpageshadow="2"
     inkscape:pageopacity="0.0"
     inkscape:pagecheckerboard="0"
     inkscape:deskcolor="#d1d1d1"
     inkscape:document-units="px"
     showgrid="false"
     inkscape:zoom="3.0585938"
     inkscape:cx="128"
     inkscape:cy="128"
     inkscape:window-width="1920"
     inkscape:window-height="984"
     inkscape:window-x="0"
     inkscape:window-y="29"
     inkscape:window-maximized="1"
     inkscape:current-layer="svg5" />
  <defs
     id="defs2" />
  <rect
     style="opacity:0.2;fill:#000000;stroke-width:16;stroke-linecap:square"
     id="rect234"
     width="224"
     height="224"
     x="16"
     y="18"
     ry="48" />
  <rect
     style="fill:#efefef;fill-opacity:1;stroke-width:16;stroke-linecap:square"
     id="rect396"
     width="224"
     height="224"
     x="16"
     y="16"
     ry="48" />
  <path
     style="fill:#0364b8;stroke-width:8"
     d="M 199.57338,48 H 96.424152 c -4.652608,0 -8.424224,3.5922 -8.423992,8.02326 v 9.1196 L 92.285872,144 h 55.714278 l 55.71429,-4 4.28336,-74.85714 v -9.12 c -1.6e-4,-4.431 -3.77188,-8.02292 -8.42442,-8.02286 z"
     id="path1" />
  <path
     style="opacity:0.2;stroke-width:8"
     d="m 216.00016,130 a 3.7739964,3.8057142 0 0 1 -1.89062,3.29688 l -0.0704,0.0472 -0.0232,0.008 -61.41407,35.28124 a 8.4814048,8.5526856 0 0 1 -8.27343,0.52344 l 0.0472,0.0544 -62.390632,-35.83594 v -0.0624 h -0.0544 l -0.17192,-0.1094 a 3.6871832,3.7181714 0 0 1 -1.758328,-3.09408 v 71.3203 A 8.4886584,8.56 0 0 0 88.50016,210 h 119 a 8.5149512,8.5865136 0 0 0 2.09376,-0.28904 3.6092664,3.6396 0 0 0 1.02342,-0.33592 0.80336256,0.81011424 0 0 0 0.33592,-0.1172 5.9359408,5.9858284 0 0 0 1.3047,-0.74216 c 0.1134,-0.0568 0.17,-0.0576 0.22656,-0.172 v 0.024 a 8.4861648,8.5574856 0 0 0 3.51564,-6.93808 z"
     id="path2" />
  <path
     style="fill:#0a2767;stroke-width:8"
     d="m 214.01624,136.03132 c 0.83022,-2.63094 1.49286,-5.3127 1.9839,-8.02886 -2.4e-4,-1.36008 -0.72032,-2.61662 -1.88876,-3.29594 v -0.002 l -0.0728,-0.0416 -0.0224,-0.012 -61.4138,-35.28036 c -0.26552,-0.173 -0.54048,-0.33088 -0.82348,-0.47296 v -3.2e-4 c -2.38012,-1.19048 -5.17529,-1.19048 -7.55541,0 l -3.4e-4,3.2e-4 c -0.28296,0.142 -0.55776,0.29992 -0.8232,0.47296 l -61.413966,35.2808 -0.0232,0.012 -0.072,0.0416 v 0.002 c -1.168384,0.67936 -1.888424,1.9359 -1.888752,3.29596 0.49104,2.71606 1.153688,5.3977 1.98384,8.02856 l 65.119628,48.02858 z"
     id="path3" />
  <path
     style="fill:#0078d4;stroke-width:8"
     d="m 88.00016,64 h 39.99999 v 36 H 88.00016 Z"
     id="path4" />
  <path
     style="fill:#28a8ea;stroke-width:8"
     d="m 128.00017,64 h 39.99999 v 36 h -39.99999 z"
     id="path5" />
  <path
     style="fill:#50d9ff;stroke-width:8"
     d="m 168.00016,64 h 40 v 36 h -40 z"
     id="path6" />
  <path
     style="fill:#0364b8;stroke-width:8"
     d="m 88.00016,100 h 39.99999 v 36 H 88.00016 Z"
     id="path7" />
  <path
     style="fill:#0078d4;stroke-width:8"
     d="m 128.00017,100 h 39.99999 v 36 h -39.99999 z"
     id="path8" />
  <path
     style="fill:#28a8ea;stroke-width:8"
     d="m 168.00016,100 h 40 v 36 h -40 z"
     id="path9" />
  <path
     style="fill:#064a8c;stroke-width:8"
     d="m 88.00016,136 h 39.99999 v 36 H 88.00016 Z"
     id="path10" />
  <path
     style="fill:#0364b8;stroke-width:8"
     d="m 128.00017,136 h 39.99999 v 36 h -39.99999 z"
     id="path11" />
  <path
     style="fill:#0078d4;stroke-width:8"
     d="m 168.00016,136 h 40 v 36 h -40 z"
     id="path12" />
  <path
     style="opacity:0.1;stroke-width:5.65684"
     d="m 88.00016,136 h 119.99998 v 2 H 88.00016 Z"
     id="path13" />
  <path
     style="fill:#1490df;stroke-width:8"
     d="m 214.1114,131.29588 v 0.002 l -0.0752,0.0432 -0.02,0.012 -61.41527,35.28114 a 8.4814048,8.5526856 0 0 1 -8.27588,0.52104 l 21.38983,28.91936 46.77292,10.26858 -0.002,0.0256 a 8.4861648,8.5574856 0 0 0 3.51322,-6.94024 V 128.0005 a 3.7739964,3.8057142 0 0 1 -1.88874,3.29554 z"
     id="path14" />
  <path
     style="fill:#28a8ea;stroke-width:8"
     d="m 81.9836,131.37142 v -0.0568 h -0.0568 l -0.17,-0.1142 a 3.6871832,3.7181714 0 0 1 -1.756664,-3.2 V 199.429 a 8.4886584,8.56 0 0 0 8.499992,8.57142 H 207.5 a 8.5149512,8.5865136 0 0 0 2.09668,-0.28576 3.6092664,3.6396 0 0 0 1.02,-0.3428 0.80336256,0.81011424 0 0 0 0.34,-0.1142 5.9359408,5.9858284 0 0 0 1.30332,-0.74288 c 0.1132,-0.0568 0.17,-0.0568 0.22664,-0.1714 z"
     id="path15" />
  <path
     style="opacity:0.1;stroke-width:5.65688"
     d="m 88.00016,100 h 119.99998 v 2 H 88.00016 Z"
     id="path17" />
  <path
     id="path20"
     style="opacity:0.1;fill:#ffffff;stroke-width:8"
     d="M 96.421876,48 C 91.770472,48.0017 87.999664,51.60134 88,56.03124 v 2 C 87.999664,53.60134 91.770472,50.0017 96.421876,50 H 199.57812 c 4.6546,-0.002 8.42206,3.5983 8.42188,8.03124 v -2 C 208.00018,51.5983 204.23272,47.99746 199.57812,48 Z" />
  <rect
     style="opacity:0.1;fill:#000000;stroke-width:8;stroke-linecap:round;stroke-linejoin:round"
     id="rect670"
     width="88"
     height="88"
     x="40"
     y="82"
     ry="8" />
  <rect
     style="fill:#0087f0;fill-opacity:1;stroke-width:8;stroke-linecap:round;stroke-linejoin:round"
     id="rect672"
     width="88"
     height="88"
     x="40"
     y="80"
     ry="8" />
  <path
     style="fill:#ffffff;stroke-width:8"
     d="m 59.326792,109.8276 a 24.95891,23.408024 0 0 1 9.800624,-10.1544 29.637296,27.795704 0 0 1 15.576416,-3.66172 27.558352,25.84594 0 0 1 14.409168,3.47284 24.706064,23.170888 0 0 1 9.53901,9.70152 33.408154,31.33225 0 0 1 3.34067,14.26894 35.225238,33.036424 0 0 1 -3.44131,14.92954 25.302606,23.730362 0 0 1 -9.820858,10.04092 28.646262,26.866252 0 0 1 -14.95236,3.56728 28.225268,26.471418 0 0 1 -14.731136,-3.51062 25.095004,23.53566 0 0 1 -9.65982,-9.72026 32.584192,30.559488 0 0 1 -3.38096,-14.09906 36.143628,33.897748 0 0 1 3.320556,-14.83498 z m 10.444616,23.83818 a 16.213425,15.205962 0 0 0 5.514104,6.68146 14.393774,13.499379 0 0 0 8.61328,2.43478 15.119486,14.179997 0 0 0 9.196976,-2.51042 15.536361,14.570968 0 0 0 5.35312,-6.70036 27.61076,25.895092 0 0 0 1.710612,-9.32388 30.219334,28.341576 0 0 0 -1.609972,-9.43716 15.929479,14.93966 0 0 0 -5.172024,-6.94574 14.249802,13.364353 0 0 0 -9.116392,-2.6423 14.880725,13.956072 0 0 0 -8.814552,2.45364 16.361038,15.344402 0 0 0 -5.634744,6.7381 28.506886,26.735536 0 0 0 -0.0408,19.25188 z"
     id="path19" />
  <path
     id="path1040"
     style="opacity:0.2;fill:#ffffff;stroke-width:16;stroke-linecap:square"
     d="M 64,16 C 37.40808,16 16,37.40808 16,64 v 2 C 16,39.40808 37.40808,18 64,18 h 128 c 26.59192,0 48,21.40808 48,48 V 64 C 240,37.40808 218.59192,16 192,16 Z" />
</svg>
