<?xml version="1.0" encoding="UTF-8" standalone="no"?>
<!-- Created with Inkscape (http://www.inkscape.org/) -->

<svg
   width="256"
   height="256"
   viewBox="0 0 256 256"
   version="1.1"
   id="svg5"
   inkscape:version="1.2.2 (1:1.2.2+202305151914+b0a8486541)"
   sodipodi:docname="ms-powerpoint.svg"
   xmlns:inkscape="http://www.inkscape.org/namespaces/inkscape"
   xmlns:sodipodi="http://sodipodi.sourceforge.net/DTD/sodipodi-0.dtd"
   xmlns="http://www.w3.org/2000/svg"
   xmlns:svg="http://www.w3.org/2000/svg">
  <sodipodi:namedview
     id="namedview7"
     pagecolor="#ffffff"
     bordercolor="#000000"
     borderopacity="0.25"
     inkscape:showpageshadow="2"
     inkscape:pageopacity="0.0"
     inkscape:pagecheckerboard="0"
     inkscape:deskcolor="#d1d1d1"
     inkscape:document-units="px"
     showgrid="false"
     inkscape:zoom="3.1484375"
     inkscape:cx="128"
     inkscape:cy="128"
     inkscape:window-width="1920"
     inkscape:window-height="1008"
     inkscape:window-x="0"
     inkscape:window-y="0"
     inkscape:window-maximized="1"
     inkscape:current-layer="svg5" />
  <defs
     id="defs2" />
  <rect
     style="opacity:0.2;fill:#000000;stroke-width:16;stroke-linecap:square"
     id="rect234"
     width="224"
     height="224"
     x="16"
     y="18"
     ry="48" />
  <rect
     style="fill:#efefef;fill-opacity:1;stroke-width:16;stroke-linecap:square"
     id="rect396"
     width="224"
     height="224"
     x="16"
     y="16"
     ry="48" />
  <circle
     style="opacity:0.2;fill:#000000;stroke-width:5.71428;stroke-linecap:round;stroke-linejoin:round"
     id="path567"
     cx="136"
     cy="130"
     r="79.999992" />
  <path
     d="M 135.99999,48 C 91.870808,48.12908 56.129108,83.870808 56,127.99999 l 101.35427,21.35428 z"
     style="fill:#ed6c47;stroke-width:5.71428"
     id="path467" />
  <path
     d="m 135.99999,48 c 44.12918,0.12908 79.87087,35.8708 79.99999,79.99999 l -40,27.18805 -39.99999,-27.18805 z"
     style="fill:#ff8f6b;stroke-width:5.71428"
     id="path390" />
  <path
     d="m 135.99999,207.99998 c 44.12918,-0.12908 79.87087,-35.87081 79.99999,-79.99999 H 56 c 0.12916,44.12917 35.870816,79.87085 79.99999,79.99999 z"
     style="fill:#d35230;stroke-width:5.71428"
     id="path362" />
  <rect
     style="opacity:0.1;fill:#000000;stroke-width:3.38062;stroke-linecap:round;stroke-linejoin:round"
     id="rect673"
     width="159.99998"
     height="2"
     x="56.000031"
     y="127.99998" />
  <path
     id="path495"
     style="opacity:0.2;fill:#ffffff;stroke-width:5.71428"
     d="M 136,48 C 91.870904,48.12908 56.129112,83.870896 56,128 l 0.13282,0.0312 A 79.999992,79.999992 0 0 1 136.00002,50 a 79.999992,79.999992 0 0 1 79.95316,78.03125 l 0.0468,-0.0312 c -0.129,-44.129098 -35.87081,-79.870894 -79.99991,-80.000002 z" />
  <rect
     style="opacity:0.1;fill:#000000;stroke-width:4;stroke-linecap:round;stroke-linejoin:round"
     id="rect625"
     width="88"
     height="88"
     x="40"
     y="86"
     ry="8" />
  <rect
     style="fill:#c43e1c;fill-opacity:1;stroke-width:4;stroke-linecap:round;stroke-linejoin:round"
     id="rect627"
     width="88"
     height="88"
     x="40"
     y="84"
     ry="8" />
  <path
     d="m 64.000258,100.05372 v 55.94531 h 12 v -20 h 8.078124 c 3.612884,0.0823 7.190716,-0.43715 10.468752,-2.07813 2.868232,-1.44164 5.287456,-3.74849 6.968746,-6.64062 1.65054,-2.61428 2.50961,-6.51708 2.45313,-9.67969 0.29388,-4.93827 -1.53126,-9.75194 -4.953128,-13.04687 -4.117256,-3.27886 -9.183256,-4.870684 -14.28906,-4.5 z m 12,11.94531 h 7.601564 c 5.596984,0 8.398436,2.12142 8.398436,6.36719 0.15368,1.56928 -0.688312,3.08483 -2.1875,3.9375 -1.853052,1.24898 -4.159904,1.85487 -6.484376,1.70312 h -7.328124 z"
     style="fill:#f9f7f7;stroke-width:4"
     id="path4348" />
  <path
     id="path1040"
     style="opacity:0.2;fill:#ffffff;stroke-width:16;stroke-linecap:square"
     d="M 64,16 C 37.408052,16 16,37.408054 16,64 v 2 C 16,39.408026 37.408026,18 64,18 h 128 c 26.59198,0 48,21.408026 48,48 V 64 C 240,37.408054 218.59194,16 192,16 Z" />
</svg>
