<?xml version="1.0" encoding="UTF-8" standalone="no"?>
<!-- Created with Inkscape (http://www.inkscape.org/) -->

<svg
   width="256"
   height="256"
   viewBox="0 0 256 256"
   version="1.1"
   id="svg5"
   inkscape:version="1.3 (1:1.3+202307231459+0e150ed6c4)"
   sodipodi:docname="ms-word.svg"
   xmlns:inkscape="http://www.inkscape.org/namespaces/inkscape"
   xmlns:sodipodi="http://sodipodi.sourceforge.net/DTD/sodipodi-0.dtd"
   xmlns="http://www.w3.org/2000/svg"
   xmlns:svg="http://www.w3.org/2000/svg">
  <sodipodi:namedview
     id="namedview7"
     pagecolor="#ffffff"
     bordercolor="#000000"
     borderopacity="0.25"
     inkscape:showpageshadow="2"
     inkscape:pageopacity="0.0"
     inkscape:pagecheckerboard="0"
     inkscape:deskcolor="#d1d1d1"
     inkscape:document-units="px"
     showgrid="false"
     inkscape:zoom="3.1445312"
     inkscape:cx="127.84099"
     inkscape:cy="128"
     inkscape:window-width="1920"
     inkscape:window-height="1008"
     inkscape:window-x="0"
     inkscape:window-y="0"
     inkscape:window-maximized="1"
     inkscape:current-layer="svg5" />
  <defs
     id="defs2" />
  <rect
     style="opacity:0.2;fill:#000000;stroke-width:16;stroke-linecap:square"
     id="rect234"
     width="224"
     height="224"
     x="16"
     y="18"
     ry="48" />
  <rect
     style="fill:#efefef;fill-opacity:1;stroke-width:16;stroke-linecap:square"
     id="rect396"
     width="224"
     height="224"
     x="16"
     y="16"
     ry="48" />
  <rect
     style="opacity:0.2;fill:#000000;stroke-width:4;stroke-linecap:round;stroke-linejoin:round"
     id="rect1604"
     width="136"
     height="160"
     x="76"
     y="50"
     ry="8" />
  <path
     d="m 212,168 v 32 c 0,4.432 -3.568,8 -8,8 H 84 c -4.432,0 -8,-3.568 -8,-8 v -32 l 68,-24 z"
     style="fill:#103f91;fill-opacity:1;stroke-width:4"
     id="path497"
     sodipodi:nodetypes="cssssccc" />
  <path
     d="m 144,64 68,24 v 44 H 76 V 88 Z"
     style="fill:#2b7cd3;fill-opacity:1;stroke-width:4"
     id="path441"
     sodipodi:nodetypes="cccccc" />
  <path
     id="path364"
     style="fill:#41a5ee;fill-opacity:1;stroke-width:4"
     d="m 84,48 c -4.431996,0 -8,3.568004 -8,8 V 88 H 212 V 56 c 0,-4.431996 -3.568,-8 -8,-8 z"
     sodipodi:nodetypes="ssccsss" />
  <path
     d="m 76,128 h 136 v 40 H 76 Z"
     style="fill:#1650a7;fill-opacity:1;stroke-width:4"
     id="path469"
     sodipodi:nodetypes="ccccc" />
  <path
     id="path525"
     style="opacity:0.1;fill:#000000;stroke-width:4"
     d="m 76,88 v 2 h 136 v -2 z m 0,40 v 2 h 136 v -2 z m 0,40 v 2 h 136 v -2 z" />
  <path
     id="path553"
     style="opacity:0.1;fill:#ffffff;stroke-width:4"
     d="m 84,48 c -4.431996,0 -8,3.568004 -8,8 v 2 c 0,-4.431996 3.568004,-8 8,-8 h 120 c 4.432,0 8,3.568004 8,8 v -2 c 0,-4.431996 -3.568,-8 -8,-8 z" />
  <rect
     style="opacity:0.2;fill:#000000;stroke-width:4;stroke-linecap:round;stroke-linejoin:round"
     id="rect625"
     width="88"
     height="88"
     x="36"
     y="86"
     ry="8" />
  <rect
     style="fill:#185abd;fill-opacity:1;stroke-width:4;stroke-linecap:round;stroke-linejoin:round"
     id="rect627"
     width="88"
     height="88"
     x="36"
     y="84"
     ry="8" />
  <path
     style="fill:#ffffff;stroke-width:6"
     d="M 103.39997,157.99998 H 92.59998 L 79.999988,116.6 66.799992,157.99998 H 55.999996 L 44,98.000012 h 10.799996 l 8.399996,41.999978 12.599992,-41.999978 h 8.999996 l 11.999996,41.999978 8.400004,-41.999978 h 10.19999 z"
     id="path5910"
     sodipodi:nodetypes="cccccccccccccc" />
  <path
     id="path1040"
     style="opacity:0.2;fill:#ffffff;stroke-width:16;stroke-linecap:square"
     d="M 64,16 C 37.408052,16 16,37.408054 16,64 v 2 C 16,39.408026 37.408026,18 64,18 h 128 c 26.59198,0 48,21.408026 48,48 V 64 C 240,37.408054 218.59194,16 192,16 Z" />
</svg>
