<?xml version="1.0" encoding="UTF-8" standalone="no"?>
<!-- Created with Inkscape (http://www.inkscape.org/) -->

<svg
   width="256"
   height="256"
   viewBox="0 0 256 256"
   version="1.1"
   id="svg5"
   inkscape:version="1.3 (0e150ed6c4, 2023-07-21)"
   sodipodi:docname="org.gnome.font-viewer.svg"
   xmlns:inkscape="http://www.inkscape.org/namespaces/inkscape"
   xmlns:sodipodi="http://sodipodi.sourceforge.net/DTD/sodipodi-0.dtd"
   xmlns="http://www.w3.org/2000/svg"
   xmlns:svg="http://www.w3.org/2000/svg">
  <sodipodi:namedview
     id="namedview7"
     pagecolor="#ffffff"
     bordercolor="#000000"
     borderopacity="0.25"
     inkscape:showpageshadow="2"
     inkscape:pageopacity="0.0"
     inkscape:pagecheckerboard="0"
     inkscape:deskcolor="#d1d1d1"
     inkscape:document-units="px"
     showgrid="false"
     inkscape:zoom="3.0585938"
     inkscape:cx="127.83653"
     inkscape:cy="128"
     inkscape:window-width="1920"
     inkscape:window-height="984"
     inkscape:window-x="0"
     inkscape:window-y="29"
     inkscape:window-maximized="1"
     inkscape:current-layer="svg5" />
  <defs
     id="defs2" />
  <rect
     style="opacity:0.2;fill:#000000;stroke-width:16;stroke-linecap:square"
     id="rect234"
     width="224"
     height="224"
     x="16"
     y="18"
     ry="48" />
  <rect
     style="fill:#a448ba;fill-opacity:1;stroke-width:16;stroke-linecap:square"
     id="rect396"
     width="224"
     height="224"
     x="16"
     y="16"
     ry="48" />
  <path
     id="path907"
     style="opacity:0.3;fill:#000000;stroke-width:8"
     d="M 64,240 C 37.408024,240 16,218.59198 16,192 V 64 C 16,37.408028 37.408024,16 64,16 Z"
     sodipodi:nodetypes="csscc" />
  <path
     id="path2"
     style="font-weight:bold;font-size:322.102px;line-height:1.25;font-family:Montserrat;letter-spacing:0px;word-spacing:0px;opacity:0.2;fill:#000000;stroke-width:0.309166"
     d="m 108.9982,62 c -11.080768,0 -19.796872,5.837368 -19.796872,13.343752 0,2.740416 2.23336,5.125 5.062496,5.125 2.829128,0 5.312504,-2.378712 5.312504,-5 0,-0.47656 -0.11664,-1.072216 -0.2344,-1.906248 -0.23576,-1.072336 -0.35936,-2.025328 -0.35936,-2.859376 0,-3.217032 3.769132,-5.843752 8.484372,-5.843752 5.77612,0 9.90625,3.456576 9.90625,9.890624 v 9.468752 c -16.23518,4.843496 -21.103022,6.144216 -26.17187,10.671872 -2.593432,2.382952 -4.25,6.427466 -4.25,10.359376 0,7.50638 5.199928,12.75 12.390624,12.75 5.186746,0 10.965546,-2.50738 18.156246,-8.70313 0.58942,6.31489 3.79191,8.70313 8.62501,8.70313 4.00793,0 6.48357,-1.42546 10.60938,-5.95313 v -3.10937 c -2.00396,1.66807 -3.41929,2.26563 -5.18751,2.26563 -2.71125,0 -3.53125,-1.66371 -3.53125,-6.90626 V 81.062496 c 0,-6.195744 -0.5912,-9.656048 -2.35937,-12.515624 C 123.0611,64.257512 115.95314,62 108.9982,62 Z m 79.03124,0 c -8.72733,0 -17.55951,2.255112 -23.54686,6.359376 L 170.17007,79 c 3.95775,-3.029344 9.94999,-4.875 15.73437,-4.875 8.52438,0 13.29688,6.233992 13.29688,12.781248 l -15.76562,-0.0784 c -16.64262,-0.0752 -23.4375,6.216808 -23.4375,15.500282 0,9.08799 6.94782,15.67187 19.73438,15.67187 8.01696,0 16.52582,-2.28982 19.46874,-7.07813 v 6.48438 H 215.9982 V 85.843752 C 215.99726,69.915328 204.67226,62 188.02944,62 Z M 117.3732,87.078128 v 15.078122 c 0,3.57448 -0.58696,4.88274 -3.0625,6.3125 -2.94702,1.66811 -7.07139,2.625 -9.54688,2.625 -4.12583,0 -7.437492,-4.04845 -7.437492,-9.17188 v -0.4844 c 0.118,-7.148942 6.254852,-9.474286 20.046872,-14.359374 z m 66.46875,9.468744 c 0.42401,-0.0104 0.86513,-0.0028 1.32813,0 l 14.03124,0.0624 v 3.031248 c 9.6e-4,5.10126 -9.56676,8.35948 -14.84374,8.35948 -5.58143,0 -8.93751,-2.54826 -8.93751,-6.35938 0,-3.298036 2.0616,-4.939524 8.42188,-5.093748 z M 93.451328,142 c -6.409352,-0.089 -6.409352,9.40155 0,9.3125 h 23.406252 c 0.0264,0.002 0.67896,0.0696 1.39062,0.45312 0.72584,0.39088 1.15989,0.43872 1.28125,2.1875 l 0.57816,13.92187 c -1.09169,-0.4108 -1.82813,-0.59376 -1.82813,-0.59376 L 117.717,167.15619 H 95.810744 c -10.268936,0 -13.968744,10.15626 -13.968744,10.15625 l -0.25,0.71872 v 3.54688 c 0,7.0623 3.394768,11.94604 6.968744,14.14062 3.573984,2.19458 7.25,2.15626 7.25,2.15626 h 17.999996 l 8.03126,-5.125 0.0472,0.75 c 0.21256,6.36852 10.01617,5.80232 9.46875,-0.54688 l -2.375,-39.60938 v -0.016 c -0.33368,-4.80858 -3.45687,-8.25663 -6.17188,-9.71876 -2.71499,-1.46211 -5.35937,-1.59375 -5.35937,-1.59375 L 117.29507,142 Z m 97.093752,0 c -1.79838,0.0376 -3.9934,0.73008 -6.5625,2.07813 -2.93612,1.54057 -5.90188,3.85634 -8.92188,6.93749 -3.02,2.99557 -5.83693,6.62689 -8.4375,10.90625 -2.51667,4.27939 -4.3568,9.02918 -5.53125,14.25 -0.92277,3.85144 -1.26729,7.19123 -1.01562,10.01563 0.25168,2.73878 0.8428,5.01518 1.76562,6.8125 0.92279,1.71178 2.04839,2.94848 3.39063,3.71876 1.34222,0.8559 2.6068,1.28124 3.78124,1.28124 2.51668,-0.1712 5.0302,-0.73032 7.54688,-1.67188 2.18111,-0.85582 4.48909,-2.18702 6.92188,-3.98436 2.43278,-1.88296 4.65854,-4.52962 6.67186,-7.95314 -0.0836,2.31086 0.04,4.2407 0.37496,5.78126 0.41944,1.54056 0.84624,2.77722 1.26564,3.71874 0.50328,1.11264 1.12,1.96338 1.875,2.5625 0.75504,0.5136 1.64958,0.86012 2.65624,1.03126 1.00666,0.25672 2.05006,0.35128 3.14064,0.2656 1.17442,-0.0854 2.30008,-0.31392 3.39062,-0.65624 1.09056,-0.34232 2.06736,-0.76768 2.90624,-1.28126 1.25836,-0.85582 2.8107,-2.30528 4.65626,-4.35936 1.92944,-2.13968 3.85176,-4.45544 5.78124,-6.93752 2.01332,-2.56762 3.9357,-5.08046 5.78126,-7.56249 1.84554,-2.56761 3.3568,-4.71014 4.53124,-6.42188 1.00674,-1.3694 1.59788,-2.56667 1.76562,-3.59374 0.2516,-1.02703 0.2104,-1.79899 -0.125,-2.31251 -0.33552,-0.51344 -0.84452,-0.68672 -1.51562,-0.5156 -0.67112,0.0854 -1.32886,0.51104 -2,1.28125 -0.50328,0.68472 -1.3568,1.74816 -2.53124,3.20313 -1.09058,1.45502 -2.33952,3.13269 -3.76562,5.01562 -1.42612,1.88292 -2.97848,3.85215 -4.65626,5.90625 -1.59388,1.96849 -3.14628,3.8039 -4.65626,5.51563 -1.51,1.62618 -2.939,2.99676 -4.28124,4.10938 -1.3422,1.02706 -2.42672,1.54686 -3.26562,1.54688 -1.00668,0 -1.80342,-0.21264 -2.39062,-0.64064 -0.50328,-0.51352 -0.88892,-1.1672 -1.14064,-1.9375 -0.25168,-0.77032 -0.41616,-1.58166 -0.5,-2.4375 0,-0.9415 0.0416,-1.79221 0.125,-2.5625 0.25168,-1.2838 0.45736,-2.36286 0.62504,-3.21876 0.168,-0.85582 0.3068,-1.57277 0.39064,-2.17187 0.168,-0.68472 0.29104,-1.32276 0.37496,-1.92188 0.1676,-0.68472 0.33224,-1.41722 0.5,-2.18749 0.83886,-3.93704 1.5123,-7.14296 2.01564,-9.625 0.50328,-2.48204 0.8733,-4.45127 1.125,-5.90625 0.25168,-1.45497 0.37496,-2.43961 0.37496,-2.95313 0,-0.5992 -0.0416,-0.98513 -0.125,-1.15625 -0.168,-0.0854 -0.49664,-0.12504 -1,-0.12504 -0.41944,0 -1.05172,0.0392 -1.89064,0.12504 -0.75504,0.0854 -1.71616,0.2588 -2.89062,0.5156 1.7617,-2.73881 2.43506,-4.9207 2.01562,-6.54687 -0.33552,-1.71174 -1.09116,-3.0035 -2.26562,-3.85938 -1.4261,-0.94144 -3.28188,-1.61895 -5.54688,-2.04688 -0.2412,-0.0216 -0.47744,-0.0368 -0.7344,-0.0312 z m -2.21876,8.0625 c 0.31984,0.0176 0.58184,0.12008 0.8125,0.31248 0.2516,0.3424 0.43168,0.80712 0.5156,1.40624 0.0836,0.51352 0.0432,1.24603 -0.125,2.18751 -0.0836,0.85582 -0.46952,1.9587 -1.14062,3.32812 0.67112,-0.17104 1.34452,-0.28944 2.01562,-0.37496 0.67112,-0.0854 1.22118,-0.21936 1.64062,-0.39064 0.50328,-0.17104 0.95556,-0.30488 1.375,-0.39064 0.33552,-0.0854 0.37664,0.60752 0.125,2.0625 -0.1678,1.36941 -0.45568,3.12593 -0.875,5.26563 -0.41944,2.13971 -0.9284,4.36104 -1.51562,6.67187 -0.58728,2.31087 -1.08056,4.31949 -1.5,6.03125 -0.0836,0.42792 -0.4696,1.12101 -1.14062,2.0625 -0.58728,0.94146 -1.38394,1.9655 -2.39062,3.07812 -0.92278,1.11264 -2.00728,2.17609 -3.26563,3.20312 -1.17444,1.02706 -2.39793,1.89344 -3.65625,2.57814 -1.17444,0.59912 -2.34119,0.92994 -3.51562,1.01562 -1.17445,0 -2.23348,-0.46488 -3.15626,-1.40624 -0.50328,-0.5136 -0.83216,-1.57696 -1,-3.20314 -0.16776,-1.71175 -0.12664,-3.68101 0.12504,-5.90624 0.33552,-2.2253 0.88559,-4.58048 1.64063,-7.06251 0.75504,-2.56761 1.75729,-4.96225 3.01562,-7.18749 3.02,-5.39206 5.65689,-9.07836 7.92189,-11.04688 1.76166,-1.54056 3.13428,-2.28249 4.09374,-2.23438 z m -92.515624,26.40625 h 20.484374 c 0.25336,0.0728 1.2558,0.3152 2.46875,1.10938 1.32355,0.8666 2.0698,1.60553 2.10938,3.15625 l 0.32816,1.31249 -10.20313,6.51563 H 95.810728 c 0,0 -1.053208,-0.0344 -2.218744,-0.75 -1.165528,-0.71568 -2.515624,-1.6555 -2.515624,-6.23437 v -1.78126 c 0.24368,-0.71008 1.262104,-3.32812 4.734368,-3.32812 z" />
  <path
     id="path6"
     style="font-weight:bold;font-size:322.102px;line-height:1.25;font-family:Montserrat;letter-spacing:0px;word-spacing:0px;fill:#ffffff;stroke-width:0.309166"
     d="m 109.0062,60 c -11.080768,0 -19.796872,5.837368 -19.796872,13.343752 0,2.740424 2.23336,5.125 5.062496,5.125 2.829128,0 5.312504,-2.378712 5.312504,-5 0,-0.47656 -0.11664,-1.072216 -0.2344,-1.906248 -0.23576,-1.072336 -0.35936,-2.025328 -0.35936,-2.859376 0,-3.217032 3.769132,-5.843752 8.484372,-5.843752 5.77612,0 9.90625,3.456576 9.90625,9.890624 v 9.468752 c -16.23518,4.843496 -21.103022,6.144216 -26.17187,10.671872 -2.593432,2.382952 -4.25,6.427464 -4.25,10.359376 0,7.50638 5.199928,12.75 12.390624,12.75 5.186746,0 10.965546,-2.50738 18.156246,-8.70313 0.58942,6.31489 3.79191,8.70313 8.62501,8.70313 4.00793,0 6.48357,-1.42546 10.60938,-5.95313 v -3.10937 c -2.00396,1.66807 -3.41929,2.26563 -5.18751,2.26563 -2.71125,0 -3.53125,-1.66371 -3.53125,-6.90626 V 79.062504 c 0,-6.195752 -0.5912,-9.656056 -2.35937,-12.515632 C 123.0691,62.257516 115.96114,60 109.0062,60 Z m 79.03124,0 c -8.72733,0 -17.55951,2.255112 -23.54686,6.359376 L 170.17807,77 c 3.95775,-3.029344 9.94999,-4.875 15.73437,-4.875 8.52438,0 13.29688,6.234 13.29688,12.781248 l -15.76562,-0.0784 c -16.64262,-0.0752 -23.4375,6.216808 -23.4375,15.500282 0,9.08799 6.94782,15.67187 19.73438,15.67187 8.01696,0 16.52582,-2.28982 19.46874,-7.07813 v 6.48438 H 216.0062 V 83.843752 C 216.00526,67.915328 204.68026,60 188.03744,60 Z M 117.3812,85.078128 v 15.078122 c 0,3.57448 -0.58696,4.88274 -3.0625,6.3125 -2.94702,1.66811 -7.07139,2.625 -9.54688,2.625 -4.12583,0 -7.437492,-4.04845 -7.437492,-9.171878 v -0.4844 c 0.118,-7.148944 6.254852,-9.474288 20.046872,-14.359376 z m 66.46875,9.468744 c 0.42401,-0.0104 0.86513,-0.0028 1.32813,0 l 14.03124,0.0624 v 3.031248 c 9.6e-4,5.10126 -9.56676,8.35948 -14.84374,8.35948 -5.58143,0 -8.93751,-2.54826 -8.93751,-6.359376 0,-3.29804 2.0616,-4.939528 8.42188,-5.093752 z M 93.459328,140 c -6.409352,-0.089 -6.409352,9.40155 0,9.3125 h 23.406252 c 0.0264,0.002 0.67896,0.0696 1.39062,0.45312 0.72584,0.39088 1.15989,0.43872 1.28125,2.1875 l 0.57816,13.92187 c -1.09169,-0.4108 -1.82813,-0.59376 -1.82813,-0.59376 L 117.725,165.15619 H 95.818744 C 85.549808,165.15619 81.85,175.31245 81.85,175.31244 l -0.25,0.71872 v 3.54688 c 0,7.0623 3.394768,11.94604 6.968744,14.14062 3.573984,2.19458 7.25,2.15626 7.25,2.15626 h 17.999996 l 8.03126,-5.125 0.0472,0.75 c 0.21256,6.36852 10.01617,5.80232 9.46875,-0.54688 l -2.375,-39.60938 v -0.016 c -0.33368,-4.80858 -3.45687,-8.25663 -6.17188,-9.71876 -2.71499,-1.46211 -5.35937,-1.59375 -5.35937,-1.59375 L 117.30307,140 Z m 97.093752,0 c -1.79838,0.0376 -3.9934,0.73008 -6.5625,2.07813 -2.93612,1.54057 -5.90188,3.85634 -8.92188,6.93749 -3.02,2.99557 -5.83693,6.62689 -8.4375,10.90625 -2.51667,4.27939 -4.3568,9.02918 -5.53125,14.25 -0.92277,3.85144 -1.26729,7.19123 -1.01562,10.01563 0.25168,2.73878 0.8428,5.01518 1.76562,6.8125 0.92279,1.71178 2.04839,2.94848 3.39063,3.71876 1.34222,0.8559 2.6068,1.28124 3.78124,1.28124 2.51668,-0.1712 5.0302,-0.73032 7.54688,-1.67188 2.18111,-0.85582 4.48909,-2.18702 6.92188,-3.98436 2.43278,-1.88296 4.65854,-4.52962 6.67186,-7.95314 -0.0836,2.31086 0.04,4.2407 0.37496,5.78126 0.41944,1.54056 0.84624,2.77722 1.26564,3.71874 0.50328,1.11264 1.12,1.96338 1.875,2.5625 0.75504,0.5136 1.64958,0.86012 2.65624,1.03126 1.00666,0.25672 2.05006,0.35128 3.14064,0.2656 1.17442,-0.0854 2.30008,-0.31392 3.39062,-0.65624 1.09056,-0.34232 2.06736,-0.76768 2.90624,-1.28126 1.25836,-0.85582 2.8107,-2.30528 4.65626,-4.35936 1.92944,-2.13968 3.85176,-4.45544 5.78124,-6.93751 2.01332,-2.56763 3.9357,-5.08047 5.78126,-7.5625 1.84554,-2.56761 3.3568,-4.71014 4.53124,-6.42188 1.00674,-1.3694 1.59788,-2.56667 1.76562,-3.59374 0.2516,-1.02703 0.2104,-1.79899 -0.125,-2.31251 -0.33552,-0.51344 -0.84452,-0.68672 -1.51562,-0.5156 -0.67112,0.0854 -1.32886,0.51104 -2,1.28125 -0.50328,0.68472 -1.3568,1.74816 -2.53124,3.20313 -1.09058,1.45502 -2.33952,3.13269 -3.76562,5.01562 -1.42612,1.88292 -2.97848,3.85215 -4.65626,5.90625 -1.59388,1.96849 -3.14628,3.8039 -4.65626,5.51563 -1.51,1.62618 -2.939,2.99676 -4.28124,4.10938 -1.3422,1.02706 -2.42672,1.54686 -3.26562,1.54688 -1.00668,0 -1.80342,-0.21264 -2.39062,-0.64064 -0.50328,-0.51352 -0.88892,-1.1672 -1.14064,-1.9375 -0.25168,-0.77032 -0.41616,-1.58166 -0.5,-2.43751 0,-0.94149 0.0416,-1.7922 0.125,-2.56249 0.25168,-1.2838 0.45736,-2.36286 0.62504,-3.21876 0.168,-0.85582 0.3068,-1.57277 0.39064,-2.17187 0.168,-0.68472 0.29104,-1.32276 0.37496,-1.92188 0.1676,-0.68472 0.33224,-1.41722 0.5,-2.18749 0.83886,-3.93704 1.5123,-7.14296 2.01564,-9.625 0.50328,-2.48204 0.8733,-4.45127 1.125,-5.90625 0.25168,-1.45497 0.37496,-2.43961 0.37496,-2.95313 0,-0.5992 -0.0416,-0.98513 -0.125,-1.15625 -0.168,-0.0854 -0.49664,-0.12504 -1,-0.12504 -0.41944,0 -1.05172,0.0392 -1.89064,0.12504 -0.75504,0.0854 -1.71616,0.2588 -2.89062,0.5156 1.7617,-2.73881 2.43506,-4.9207 2.01562,-6.54687 -0.33552,-1.71174 -1.09116,-3.0035 -2.26562,-3.85938 -1.4261,-0.94144 -3.28188,-1.61895 -5.54688,-2.04688 -0.2412,-0.0216 -0.47744,-0.0368 -0.7344,-0.0312 z m -2.21876,8.0625 c 0.31984,0.0176 0.58184,0.12008 0.8125,0.31248 0.2516,0.3424 0.43168,0.80712 0.5156,1.40624 0.0836,0.51352 0.0432,1.24603 -0.125,2.18751 -0.0836,0.85582 -0.46952,1.9587 -1.14062,3.32812 0.67112,-0.17104 1.34452,-0.28944 2.01562,-0.37496 0.67112,-0.0854 1.22118,-0.21936 1.64062,-0.39064 0.50328,-0.17104 0.95556,-0.30488 1.375,-0.39064 0.33552,-0.0854 0.37664,0.60752 0.125,2.0625 -0.1678,1.36941 -0.45568,3.12593 -0.875,5.26563 -0.41944,2.13971 -0.9284,4.36104 -1.51562,6.67187 -0.58728,2.31087 -1.08056,4.31949 -1.5,6.03125 -0.0836,0.42792 -0.4696,1.12101 -1.14062,2.0625 -0.58728,0.94146 -1.38394,1.9655 -2.39062,3.07812 -0.92278,1.11264 -2.00728,2.17609 -3.26563,3.20313 -1.17444,1.02705 -2.39793,1.89343 -3.65625,2.57813 -1.17444,0.59912 -2.34119,0.92994 -3.51562,1.01562 -1.17445,0 -2.23348,-0.46488 -3.15626,-1.40624 -0.50328,-0.5136 -0.83216,-1.57696 -1,-3.20314 -0.16776,-1.71175 -0.12664,-3.68101 0.12504,-5.90624 0.33552,-2.2253 0.88559,-4.58048 1.64063,-7.06251 0.75504,-2.56761 1.75729,-4.96225 3.01562,-7.18749 3.02,-5.39206 5.65689,-9.07836 7.92189,-11.04688 1.76166,-1.54056 3.13428,-2.28249 4.09374,-2.23438 z m -92.515624,26.40625 h 20.484374 c 0.25336,0.0728 1.2558,0.3152 2.46875,1.10938 1.32355,0.8666 2.0698,1.60553 2.10938,3.15625 l 0.32816,1.31249 -10.20313,6.51563 H 95.818728 c 0,0 -1.053208,-0.0344 -2.218744,-0.75 -1.165528,-0.71568 -2.515624,-1.6555 -2.515624,-6.23437 v -1.78126 c 0.24368,-0.71008 1.262104,-3.32812 4.734368,-3.32812 z" />
  <path
     id="path1040"
     style="opacity:0.1;fill:#ffffff;stroke-width:16;stroke-linecap:square"
     d="M 64,16 C 37.40808,16 16,37.40808 16,64 v 2 C 16,39.408084 37.40808,18 64,18 h 128 c 26.59192,0 48,21.408084 48,48 V 64 C 240,37.40808 218.59192,16 192,16 Z" />
</svg>
