<?xml version="1.0" encoding="UTF-8" standalone="no"?>
<!-- Created with Inkscape (http://www.inkscape.org/) -->

<svg
   width="256"
   height="256"
   viewBox="0 0 256 256"
   version="1.1"
   id="svg5"
   inkscape:version="1.3 (0e150ed6c4, 2023-07-21)"
   sodipodi:docname="org.xfce.terminal-settings.svg"
   xmlns:inkscape="http://www.inkscape.org/namespaces/inkscape"
   xmlns:sodipodi="http://sodipodi.sourceforge.net/DTD/sodipodi-0.dtd"
   xmlns="http://www.w3.org/2000/svg"
   xmlns:svg="http://www.w3.org/2000/svg">
  <sodipodi:namedview
     id="namedview7"
     pagecolor="#ffffff"
     bordercolor="#000000"
     borderopacity="0.25"
     inkscape:showpageshadow="2"
     inkscape:pageopacity="0.0"
     inkscape:pagecheckerboard="0"
     inkscape:deskcolor="#d1d1d1"
     inkscape:document-units="px"
     showgrid="false"
     inkscape:zoom="3.1367188"
     inkscape:cx="128"
     inkscape:cy="128"
     inkscape:window-width="1850"
     inkscape:window-height="1011"
     inkscape:window-x="70"
     inkscape:window-y="32"
     inkscape:window-maximized="1"
     inkscape:current-layer="svg5" />
  <defs
     id="defs2" />
  <rect
     style="opacity:0.2;fill:#000000;stroke-width:16;stroke-linecap:square"
     id="rect234"
     width="224"
     height="224"
     x="16"
     y="18"
     ry="48" />
  <rect
     style="fill:#4f4f4f;fill-opacity:1;stroke-width:16;stroke-linecap:square"
     id="rect396"
     width="224"
     height="224"
     x="16"
     y="16"
     ry="48" />
  <rect
     style="opacity:0.2;fill:#000000;stroke-width:8"
     width="64"
     height="24"
     x="112"
     y="113.99875"
     rx="5.336"
     ry="6"
     id="rect1753" />
  <rect
     style="fill:#ffffff;stroke-width:8"
     width="64"
     height="24"
     x="112"
     y="111.99957"
     rx="5.336"
     ry="6"
     id="rect1755" />
  <rect
     style="opacity:0.2;fill:#000000;stroke-width:8"
     width="67.056"
     height="22.351999"
     x="-59.006176"
     y="121.97382"
     rx="5.5840001"
     ry="5.5840001"
     transform="matrix(0.72400602,-0.68979366,0.72400602,0.68979366,0,0)"
     id="rect1757" />
  <rect
     style="fill:#a2a2a2;stroke-width:8"
     width="67.056"
     height="22.351999"
     x="-57.515808"
     y="120.56353"
     rx="5.5840001"
     ry="5.5840001"
     transform="matrix(0.72400602,-0.68979366,0.72400602,0.68979366,0,0)"
     id="rect1759" />
  <rect
     style="opacity:0.2;fill:#000000;stroke-width:8"
     width="67.056"
     height="22.351999"
     x="77.333916"
     y="-14.286073"
     rx="5.5840001"
     ry="5.5840001"
     transform="matrix(0.72400602,0.68979366,0.72400602,-0.68979366,0,0)"
     id="rect1761" />
  <rect
     style="fill:#ffffff;stroke-width:8"
     width="67.056"
     height="22.351999"
     x="75.843552"
     y="-12.79583"
     rx="5.5840001"
     ry="5.5840001"
     transform="matrix(0.72400602,0.68979366,0.72400602,-0.68979366,0,0)"
     id="rect1763" />
  <path
     id="path1040"
     style="opacity:0.1;fill:#ffffff;stroke-width:16;stroke-linecap:square"
     d="M 64,16 C 37.408052,16 16,37.408054 16,64 v 2 C 16,39.408028 37.408026,18 64,18 h 128 c 26.59198,0 48,21.408028 48,48 V 64 C 240,37.408054 218.59194,16 192,16 Z" />
  <circle
     style="opacity:0.2;fill:#000000;stroke-width:11.2"
     id="path10"
     cx="192"
     cy="194"
     r="56" />
  <circle
     style="fill:#787878;fill-opacity:1;stroke-width:11.2"
     id="path11"
     cx="192"
     cy="192"
     r="56" />
  <path
     id="path9"
     style="fill:#ffffff;stroke-width:8"
     d="m 184,160 -0.70312,8.42187 c -2.67094,0.98979 -5.15406,2.42824 -7.34374,4.25 l -7.67188,-3.59374 -8,13.84374 6.95312,4.82813 c -0.24808,1.40256 -0.36752,2.82568 -0.37496,4.25 0.002,1.42654 0.11616,2.84434 0.35936,4.25 l -6.9375,4.82812 8,13.84376 7.64062,-3.59376 c 2.19872,1.8156 4.69727,3.23874 7.375,4.21876 L 184,224 h 16 l 0.70312,-8.4375 c 2.67094,-0.98978 5.15406,-2.42822 7.34374,-4.25 l 7.67188,3.60938 8,-13.84376 -6.96874,-4.84374 c 0.2476,-1.39994 0.3827,-2.81274 0.39062,-4.23438 9.4e-4,-1.42632 -0.1188,-2.84412 -0.35936,-4.25 l 6.9375,-4.82813 -8,-13.84374 -7.65624,3.59374 c -2.1963,-1.81481 -4.68448,-3.23791 -7.3594,-4.21874 L 200,160 Z m 8,20 a 12,12 0 0 1 12,12 12,12 0 0 1 -12,12 12,12 0 0 1 -12,-12 12,12 0 0 1 12,-12 z" />
  <path
     id="path12"
     style="opacity:0.1;fill:#ffffff;fill-opacity:1;stroke-width:11.2"
     d="m 192,136 a 56,56 0 0 0 -56,56 56,56 0 0 0 0.0703,1 A 56,56 0 0 1 192,138 56,56 0 0 1 247.96484,192.5039 56,56 0 0 0 248,192 56,56 0 0 0 192,136 Z" />
</svg>
