<?xml version="1.0" encoding="UTF-8" standalone="no"?>
<!-- Created with Inkscape (http://www.inkscape.org/) -->

<svg
   width="256"
   height="256"
   viewBox="0 0 256 256"
   version="1.1"
   id="svg5"
   inkscape:version="1.3 (0e150ed6c4, 2023-07-21)"
   sodipodi:docname="org.gnome.TextEditor.svg"
   xmlns:inkscape="http://www.inkscape.org/namespaces/inkscape"
   xmlns:sodipodi="http://sodipodi.sourceforge.net/DTD/sodipodi-0.dtd"
   xmlns="http://www.w3.org/2000/svg"
   xmlns:svg="http://www.w3.org/2000/svg">
  <sodipodi:namedview
     id="namedview7"
     pagecolor="#ffffff"
     bordercolor="#000000"
     borderopacity="0.25"
     inkscape:showpageshadow="2"
     inkscape:pageopacity="0.0"
     inkscape:pagecheckerboard="0"
     inkscape:deskcolor="#d1d1d1"
     inkscape:document-units="px"
     showgrid="false"
     inkscape:zoom="3.125"
     inkscape:cx="127.84"
     inkscape:cy="128"
     inkscape:window-width="1920"
     inkscape:window-height="1004"
     inkscape:window-x="0"
     inkscape:window-y="0"
     inkscape:window-maximized="1"
     inkscape:current-layer="svg5" />
  <defs
     id="defs2" />
  <rect
     style="opacity:0.2;fill:#000000;stroke-width:16;stroke-linecap:square"
     id="rect234"
     width="224"
     height="224"
     x="16"
     y="18"
     ry="48" />
  <path
     id="rect396"
     style="fill:#e4e4e4;fill-opacity:1;stroke-width:16;stroke-linecap:square"
     d="M 128,32 16,64 v 128 c 0,26.59196 21.408052,48 48,48 h 128 c 26.59196,0 48,-21.40804 48,-48 V 64 Z" />
  <path
     id="path2217"
     style="opacity:0.15;fill:#000000;stroke-width:8"
     d="m 48,88 v 40 h 56 v -8 H 208 V 88 Z m 0,56 v 24 h 104 v -8 h 56 v -16 z" />
  <path
     id="rect1783"
     style="fill:#afafaf;fill-opacity:1;stroke-width:8;stroke-linecap:round;stroke-linejoin:round"
     d="m 240,160 v 32 c 0,26.592 -21.408,48 -48,48 h -32 l 24,-56 z"
     sodipodi:nodetypes="cssccc" />
  <path
     id="path1876"
     style="opacity:0.2;fill:#000000;stroke-width:8;stroke-linecap:round;stroke-linejoin:round"
     d="m 240,160 -80,80 h 2 l 78,-78 z" />
  <path
     id="rect623"
     style="opacity:1;fill:#fafafa;fill-opacity:1;stroke-width:4;stroke-linecap:round;stroke-linejoin:round"
     d="m 184,160 h 56 l -80,80 v -56 c 0,-13.296 10.704,-24 24,-24 z" />
  <rect
     style="opacity:0.1;fill:#000000;fill-opacity:1;stroke-width:5.65684;stroke-linecap:round;stroke-linejoin:round"
     id="rect1948"
     width="224"
     height="2"
     x="16"
     y="64" />
  <path
     id="rect1233"
     style="fill:#3584e4;fill-opacity:1;stroke-width:16;stroke-linecap:square"
     d="M 64,16 C 37.408024,16 16,37.408028 16,64 H 240 C 240,37.408028 218.59198,16 192,16 Z" />
  <path
     id="path1040"
     style="opacity:0.2;fill:#ffffff;stroke-width:16;stroke-linecap:square"
     d="M 64,16 C 37.408104,16 16,37.408108 16,64 v 2 C 16,39.408084 37.40808,18 64,18 h 128 c 26.59192,0 48,21.408084 48,48 V 64 C 240,37.408108 218.5919,16 192,16 Z" />
  <path
     d="m 235.32788,34 c -5.29114,0 -10.58672,2.024232 -14.625,6.0625 l -126.64064,126.64063 -0.10936,0.10936 0.0784,0.0784 L 88,202 l 35.10975,-6.03088 0.0784,0.0784 0.10936,-0.1094 126.64037,-126.640624 c 8.07652,-8.076532 8.07654,-21.16592 0,-29.23438 C 245.90302,36.024232 240.619,34 235.32788,34 Z"
     style="opacity:0.1;fill:#000000;stroke-width:8"
     id="path2126" />
  <path
     d="M 205.37696,53.388236 94.058528,164.70667 123.29446,193.9426 234.0974,83.139656 Z"
     style="fill:#fd8826;stroke-width:8"
     id="path1958" />
  <path
     d="m 235.32812,32.000004 c -5.29114,0 -10.5843,2.019132 -14.62258,6.0574 l -6.7318,6.731808 29.1843,29.289796 6.78456,-6.784552 c 8.07652,-8.076528 8.07652,-21.168588 0,-29.237052 -4.03422,-4.038268 -9.32336,-6.0574 -14.61448,-6.0574 z"
     style="fill:#ff2b6d;stroke-width:8"
     id="path2098" />
  <path
     id="path2070"
     style="opacity:0.2;fill:#ffffff;stroke-width:8"
     d="m 235.32812,32 c -5.29112,0 -10.58672,2.02424 -14.625,6.0625 l -6.73436,6.734376 1,1 5.73436,-5.742188 C 224.7414,36.016424 230.037,34 235.32812,34 c 5.29112,0 10.58298,2.016424 14.6172,6.054688 3.7322,3.728472 5.73276,8.530748 6.01562,13.414064 0.214,-5.55214 -1.7826,-11.169648 -6.02344,-15.406252 C 245.90328,34.02424 240.61924,32 235.32812,32 Z" />
  <path
     d="m 101.50101,197.68422 21.79457,-3.7405 -29.237052,-29.23705 -3.696584,21.53879 z"
     style="fill:#facb64;stroke-width:8"
     id="path1986" />
  <path
     d="m 88,200 15.32926,-2.63294 -12.696308,-12.69632 z"
     style="fill:#3d3846;stroke-width:8"
     id="path2014" />
  <path
     d="M 203.16332,55.599632 232.40036,84.836688 244.09518,73.141872 214.85814,43.904816 Z"
     style="fill:#b4b3b0;stroke-width:8"
     id="path2042" />
</svg>
