<?xml version="1.0" encoding="UTF-8" standalone="no"?>
<!-- Created with Inkscape (http://www.inkscape.org/) -->

<svg
   width="256"
   height="256"
   viewBox="0 0 256 256"
   version="1.1"
   id="svg5"
   inkscape:version="1.3 (1:1.3+202307231459+0e150ed6c4)"
   sodipodi:docname="parole.svg"
   xmlns:inkscape="http://www.inkscape.org/namespaces/inkscape"
   xmlns:sodipodi="http://sodipodi.sourceforge.net/DTD/sodipodi-0.dtd"
   xmlns="http://www.w3.org/2000/svg"
   xmlns:svg="http://www.w3.org/2000/svg">
  <sodipodi:namedview
     id="namedview7"
     pagecolor="#ffffff"
     bordercolor="#000000"
     borderopacity="0.25"
     inkscape:showpageshadow="2"
     inkscape:pageopacity="0.0"
     inkscape:pagecheckerboard="0"
     inkscape:deskcolor="#d1d1d1"
     inkscape:document-units="px"
     showgrid="false"
     inkscape:zoom="2.8046875"
     inkscape:cx="128"
     inkscape:cy="127.82173"
     inkscape:window-width="1920"
     inkscape:window-height="1008"
     inkscape:window-x="0"
     inkscape:window-y="0"
     inkscape:window-maximized="1"
     inkscape:current-layer="svg5" />
  <defs
     id="defs2" />
  <rect
     style="opacity:0.2;fill:#000000;stroke-width:16;stroke-linecap:square"
     id="rect234"
     width="224"
     height="224"
     x="16"
     y="18"
     ry="48" />
  <rect
     style="fill:#e4e4e4;fill-opacity:1;stroke-width:16;stroke-linecap:square"
     id="rect396"
     width="224"
     height="224"
     x="16"
     y="16"
     ry="48" />
  <path
     id="rect391"
     style="fill:#424242;fill-opacity:1;stroke-width:16;stroke-linecap:square"
     d="M 64,16 C 37.408068,16 16,37.408068 16,64 V 176 H 240 V 64 C 240,37.408068 218.59194,16 192,16 Z" />
  <rect
     style="opacity:0.2;fill:#ffffff;fill-opacity:1;stroke-width:2;stroke-linecap:square"
     id="rect1396"
     width="224"
     height="2"
     x="16"
     y="176" />
  <rect
     style="opacity:0.2;fill:#000000;fill-opacity:1;stroke-width:22.6274;stroke-linecap:square"
     id="rect3030"
     width="160"
     height="16"
     x="48"
     y="202" />
  <rect
     style="fill:#f04113;fill-opacity:1;stroke-width:16;stroke-linecap:square"
     id="rect3032"
     width="64"
     height="16"
     x="48"
     y="200" />
  <rect
     style="fill:#7e7e7e;fill-opacity:1;stroke-width:16;stroke-linecap:square"
     id="rect3379"
     width="96"
     height="16"
     x="112"
     y="200" />
  <rect
     style="opacity:0.2;fill:#ffffff;fill-opacity:1;stroke-width:16;stroke-linecap:square"
     id="rect3657"
     width="32"
     height="16"
     x="96"
     y="200" />
  <path
     d="m 128,42 c -30.90896,0 -56,25.09104 -56,56 0,30.90896 25.09104,56 56,56 30.90896,0 56,-25.09104 56,-56 0,-30.90896 -25.09104,-56 -56,-56 z m 0,8 c 26.50968,0 48,21.49032 48,48 0,26.50968 -21.49032,48 -48,48 -26.50968,0 -48,-21.49032 -48,-48 0,-26.50968 21.49032,-48 48,-48 z m -16,24 v 48 l 44,-24 z"
     style="opacity:0.2;fill:#000000;stroke-width:8"
     id="path3010"
     sodipodi:nodetypes="sssssssssscccc" />
  <path
     d="m 128,40 c -30.90896,0 -56,25.09104 -56,56 0,30.90896 25.09104,56 56,56 30.90896,0 56,-25.09104 56,-56 0,-30.90896 -25.09104,-56 -56,-56 z m 0,8 c 26.50968,0 48,21.49032 48,48 0,26.50968 -21.49032,48 -48,48 -26.50968,0 -48,-21.49032 -48,-48 0,-26.50968 21.49032,-48 48,-48 z m -16,24 v 48 l 44,-24 z"
     style="fill:#ffffff;stroke-width:8"
     id="path2982"
     sodipodi:nodetypes="sssssssssscccc" />
  <path
     id="path1040"
     style="opacity:0.1;fill:#ffffff;stroke-width:16;stroke-linecap:square"
     d="M 64,16 C 37.408052,16 16,37.408056 16,64 v 2 C 16,39.408056 37.408052,18 64,18 h 128 c 26.59194,0 48,21.408056 48,48 V 64 C 240,37.408056 218.59194,16 192,16 Z" />
</svg>
