<?xml version="1.0" encoding="UTF-8" standalone="no"?>
<!-- Created with Inkscape (http://www.inkscape.org/) -->

<svg
   width="256"
   height="256"
   viewBox="0 0 256 256"
   version="1.1"
   id="svg5"
   inkscape:version="1.3.2 (091e20ef0f, 2023-11-25, custom)"
   sodipodi:docname="preferences-desktop-default-applications.svg"
   xmlns:inkscape="http://www.inkscape.org/namespaces/inkscape"
   xmlns:sodipodi="http://sodipodi.sourceforge.net/DTD/sodipodi-0.dtd"
   xmlns="http://www.w3.org/2000/svg"
   xmlns:svg="http://www.w3.org/2000/svg">
  <sodipodi:namedview
     id="namedview7"
     pagecolor="#ffffff"
     bordercolor="#000000"
     borderopacity="0.25"
     inkscape:showpageshadow="2"
     inkscape:pageopacity="0.0"
     inkscape:pagecheckerboard="0"
     inkscape:deskcolor="#d1d1d1"
     inkscape:document-units="px"
     showgrid="false"
     inkscape:zoom="3.140625"
     inkscape:cx="128"
     inkscape:cy="128"
     inkscape:window-width="1920"
     inkscape:window-height="1008"
     inkscape:window-x="0"
     inkscape:window-y="0"
     inkscape:window-maximized="1"
     inkscape:current-layer="svg5" />
  <defs
     id="defs2" />
  <rect
     style="opacity:0.2;fill:#000000;stroke-width:16;stroke-linecap:square"
     id="rect234"
     width="224"
     height="224"
     x="16"
     y="18"
     ry="48" />
  <rect
     style="fill:#d9efdb;fill-opacity:1;stroke-width:16;stroke-linecap:square"
     id="rect396"
     width="224"
     height="224"
     x="16"
     y="16"
     ry="48" />
  <path
     id="path1"
     style="opacity:0.2;fill:#000000;stroke-width:8"
     d="m 127.99961,50 c -7.57273,0.10676 -12.98112,4.614076 -15.51563,12.062504 l 0.0938,-0.34376 L 100.68711,98 H 60.562104 c -0.08744,-0.0014 -0.17816,-0.0014 -0.2656,0 -4.791624,0.1532 -9.112184,2.36001 -12.156248,6.01562 -6.583404,7.45424 -5.18806,19.19072 3.171872,24.75 L 82.859008,151.5 70.624632,189.01562 c -0.0136,0.0416 -0.0344,0.0832 -0.0472,0.125 -1.870624,6.06146 -0.11152,12.30622 4.593752,16.57814 0.0336,0.0312 0.0744,0.0632 0.10936,0.0938 5.654304,4.95818 13.59892,5.58836 19.984376,1.48436 0.12152,-0.0776 0.24232,-0.1508 0.35936,-0.2344 L 127.99961,184 l 32.375,23.0625 c 0.11704,0.0838 0.23784,0.157 0.35936,0.2344 6.38545,4.10398 14.33006,3.47382 19.98437,-1.48438 0.0344,-0.0304 0.0752,-0.0624 0.10936,-0.0938 4.70532,-4.2719 6.46438,-10.51668 4.59374,-16.57812 -0.012,-0.0416 -0.0336,-0.0836 -0.0472,-0.125 l -12.24999,-37.51567 31.56251,-22.73438 c 8.35992,-5.5592 9.75526,-17.29577 3.17186,-24.75 -3.0437,-3.65554 -7.37988,-5.86235 -12.1715,-6.01555 -0.0874,-0.0014 -0.1624,-0.0014 -0.25,0 H 155.3121 l -11.90624,-36.281248 0.0938,0.34376 C 140.96529,54.61408 135.57234,50.106764 127.99961,50 Z" />
  <path
     id="path2"
     style="fill:#4caf50;stroke-width:8"
     d="m 127.99961,48 c -7.57273,0.10676 -12.98112,4.598452 -15.51563,12.046876 l 0.0938,-0.32812 L 100.68711,96 H 60.562104 c -0.08744,-0.0014 -0.17816,-0.0014 -0.2656,0 -4.791624,0.1532 -9.112184,2.360008 -12.156248,6.01562 -6.583404,7.45424 -5.18806,19.1751 3.171872,24.73438 l 31.54688,22.75 -12.234376,37.51562 c -0.0136,0.0416 -0.0344,0.0832 -0.0472,0.125 -1.870624,6.06146 -0.11152,12.30622 4.593752,16.57814 0.0336,0.0312 0.0744,0.0632 0.10936,0.0938 5.654304,4.95818 13.59892,5.58834 19.984376,1.48436 0.12152,-0.0776 0.24232,-0.1506 0.35936,-0.2344 L 127.99961,182 l 32.375,23.04688 c 0.11704,0.0838 0.23784,0.1726 0.35936,0.25 6.38545,4.10396 14.33006,3.4738 19.98437,-1.48438 0.0344,-0.0304 0.0752,-0.0624 0.10936,-0.0938 4.70532,-4.27192 6.46438,-10.51668 4.59374,-16.57814 -0.012,-0.0416 -0.0336,-0.0836 -0.0472,-0.125 L 173.14023,149.5 204.68712,126.75 c 8.35992,-5.5592 9.75526,-17.28014 3.17186,-24.73438 C 204.81492,98.360008 200.49436,96.1532 195.70274,96 c -0.0874,-0.0014 -0.178,-0.0014 -0.2656,0 h -40.12501 l -11.89063,-36.281248 0.0938,0.32812 C 140.98074,52.598452 135.57234,48.106764 127.99961,48 Z" />
  <path
     id="path3"
     style="opacity:0.2;fill:#ffffff;stroke-width:8"
     d="m 128,48 c -7.5727,0.10676 -12.98113,4.598472 -15.51562,12.046876 l 0.0938,-0.32812 L 100.6875,96 h -40.125 c -0.08744,-0.0014 -0.1782,-0.0014 -0.26564,0 -4.791616,0.1532 -9.112196,2.360024 -12.156252,6.01562 -3.011136,3.40944 -4.332004,7.70943 -4.10156,11.90626 0.22772,-3.53866 1.567624,-7.03714 4.10156,-9.90626 C 51.18468,100.36002 55.50526,98.1532 60.296876,98 c 0.08744,-0.0014 0.1782,-0.0014 0.26564,0 h 40.125004 l 11.89062,-36.281248 -0.0938,0.32812 C 115.01887,54.598468 120.42729,50.10676 128,50 c 7.57271,0.10676 12.98111,4.598472 15.51562,12.046876 L 143.42188,61.718752 155.3125,98 h 40.125 c 0.0876,-0.0014 0.1782,-0.0014 0.26564,0 4.79162,0.1532 9.11218,2.36002 12.15626,6.01562 2.53392,2.86912 3.87384,6.36758 4.10156,9.90626 0.23044,-4.19684 -1.09042,-8.49682 -4.10156,-11.90626 C 204.81534,98.360024 200.49474,96.1532 195.70312,96 c -0.0874,-0.0014 -0.1782,-0.0014 -0.26564,0 h -40.125 l -11.89062,-36.281248 0.0938,0.32812 C 140.98108,52.598476 135.5727,48.106764 128,48 Z M 82.328124,151.11719 70.625,187.01562 c -0.0136,0.0416 -0.034,0.083 -0.04688,0.125 -0.59684,1.93398 -0.784024,3.88 -0.66406,5.78126 0.08144,-1.25576 0.27544,-2.52198 0.66406,-3.78126 0.0128,-0.042 0.0332,-0.0834 0.04688,-0.125 L 82.859376,151.5 Z m 91.343756,0 -0.53126,0.3828 12.23438,37.51563 c 0.014,0.0416 0.034,0.0834 0.0468,0.125 0.38864,1.25926 0.58262,2.52548 0.66406,3.78124 0.12,-1.90126 -0.0672,-3.84728 -0.66406,-5.78124 -0.012,-0.0416 -0.0332,-0.0834 -0.0468,-0.125 z" />
  <path
     id="path4"
     style="font-size:19.9042px;line-height:1.25;letter-spacing:0px;word-spacing:0px;opacity:0.2;fill:#000000;stroke-width:4.57144"
     d="m 119.37461,98 -23.375002,64 h 15.125002 l 4.8125,-16 h 24.12499 l 4.81251,16 h 15.125 L 136.53086,98 Z m 8.625,9.90625 L 135.92148,130 h -15.65625 z" />
  <path
     id="path5"
     style="font-size:19.9042px;line-height:1.25;letter-spacing:0px;word-spacing:0px;fill:#ffffff;stroke-width:4.57144"
     d="m 119.37461,96 -23.375002,64 h 15.125002 l 4.8125,-16 h 24.12499 l 4.81251,16 h 15.125 L 136.53086,96 Z m 8.625,9.90625 L 135.92148,128 h -15.65625 z" />
  <path
     id="path1040"
     style="opacity:0.2;fill:#ffffff;stroke-width:16;stroke-linecap:square"
     d="M 64,16 C 37.40808,16 16,37.40808 16,64 v 2 C 16,39.408084 37.40808,18 64,18 h 128 c 26.59192,0 48,21.408084 48,48 V 64 C 240,37.40808 218.59192,16 192,16 Z" />
</svg>
