<?xml version="1.0" encoding="UTF-8" standalone="no"?>
<!-- Created with Inkscape (http://www.inkscape.org/) -->

<svg
   width="256"
   height="256"
   viewBox="0 0 256 256"
   version="1.1"
   id="svg5"
   inkscape:version="1.2.2 (1:1.2.2+202305151914+b0a8486541)"
   sodipodi:docname="preferences-desktop-color.svg"
   xmlns:inkscape="http://www.inkscape.org/namespaces/inkscape"
   xmlns:sodipodi="http://sodipodi.sourceforge.net/DTD/sodipodi-0.dtd"
   xmlns="http://www.w3.org/2000/svg"
   xmlns:svg="http://www.w3.org/2000/svg">
  <sodipodi:namedview
     id="namedview7"
     pagecolor="#ffffff"
     bordercolor="#000000"
     borderopacity="0.25"
     inkscape:showpageshadow="2"
     inkscape:pageopacity="0.0"
     inkscape:pagecheckerboard="0"
     inkscape:deskcolor="#d1d1d1"
     inkscape:document-units="px"
     showgrid="false"
     inkscape:zoom="3.1484375"
     inkscape:cx="127.84119"
     inkscape:cy="128"
     inkscape:window-width="1920"
     inkscape:window-height="1008"
     inkscape:window-x="0"
     inkscape:window-y="0"
     inkscape:window-maximized="1"
     inkscape:current-layer="svg5" />
  <defs
     id="defs2" />
  <rect
     style="opacity:0.2;fill:#000000;stroke-width:16;stroke-linecap:square"
     id="rect234"
     width="224"
     height="224"
     x="16"
     y="18"
     ry="48" />
  <rect
     style="fill:#4d4d4d;fill-opacity:1;stroke-width:16;stroke-linecap:square"
     id="rect396"
     width="224"
     height="224"
     x="16"
     y="16"
     ry="48" />
  <path
     d="M 127.98487,50 C 113.47126,50.0248 100.30061,59.15176 94.26556,73.367184 78.538848,71.322064 63.790968,77.819784 56.514,90 c -7.240896,12.1976 -5.671856,27.82306 4.016624,40 -9.68848,12.17694 -11.25752,27.80241 -4.016624,40 7.27456,12.18346 22.022944,18.68444 37.75156,16.64062 6.03718,14.21238 19.20738,23.33616 33.71931,23.35938 14.51928,-0.0184 27.69754,-9.14624 33.73495,-23.36719 15.72445,2.04283 30.46755,-4.4546 37.74374,-16.63281 7.55296,-12.67786 5.35498,-28.43079 -4.19635,-40.27343 0.0664,0.0827 0.14504,0.15912 0.21104,0.24216 C 205.14344,117.79409 206.69982,102.1851 199.46356,90 193.3337,79.709584 181.77776,73.3396 168.58089,72.97656 c -2.27715,-0.0496 -4.57251,0.08136 -6.86107,0.39064 C 155.68241,59.146224 142.50415,50.01804 127.98487,50 Z m 58.05348,71.16406 c 0.226,0.15656 0.43432,0.32456 0.6564,0.4844 -0.222,-0.15952 -0.43048,-0.32808 -0.6564,-0.4844 z m 3.34459,2.55469 c 0.36864,0.31 0.70696,0.6416 1.06276,0.96094 -0.3564,-0.31944 -0.69344,-0.65096 -1.06276,-0.96094 z m 3.07888,2.85937 c 0.29536,0.30064 0.56696,0.61464 0.85178,0.92188 -0.28472,-0.30688 -0.5564,-0.6216 -0.85178,-0.92188 z"
     style="opacity:0.2;fill:#000000;stroke-width:8"
     id="path1897" />
  <g
     id="g1912"
     transform="matrix(8,0,0,8,0.00140758,0)">
    <path
       d="m 24.251822,16 c 0,4.418278 -3.694546,8 -8.251999,8 -4.557454,0 -8.2520002,-3.581722 -8.2520002,-8 0,-4.418278 3.6945462,-8.0000002 8.2520002,-8 4.557453,5e-7 8.251999,3.581723 8.251999,8 z"
       style="fill:#278df2"
       id="path1614" />
    <path
       d="m 20.640822,21 c 0,2.761423 -2.077846,5 -4.640999,5 -2.563154,0 -4.641001,-2.238576 -4.641001,-5 0,-2.761424 2.077847,-5 4.641001,-5 2.563153,0 4.640999,2.238577 4.640999,5 z"
       style="fill:#ffc107"
       id="path1643" />
    <path
       d="m 13.854715,22.397582 c -2.46648,1.380617 -5.5050368,0.754948 -6.7868062,-1.397471 -1.28177,-2.15242 -0.321372,-5.016513 2.1451082,-6.397131 2.46648,-1.380618 5.505037,-0.754949 6.786807,1.397472 1.281768,2.15242 0.321371,5.016512 -2.145109,6.39713 z"
       style="fill:#fb8300"
       id="path1473" />
    <path
       d="m 9.213598,17.397277 c 2.466481,1.380617 5.505038,0.754949 6.786807,-1.397471 1.28177,-2.15242 0.321372,-5.016512 -2.145109,-6.3971303 C 11.388816,8.2220579 8.3502594,8.847727 7.0684898,11.000147 5.7867203,13.152567 6.7471181,16.01666 9.213598,17.397277 Z"
       style="fill:#fa3e30"
       id="path1501" />
    <path
       d="m 15.999847,6 c -2.563417,-2e-7 -4.641476,2.2385761 -4.641476,5 0,2.761424 2.078059,5 4.641476,5 C 14.717872,13.847634 15.678467,10.983291 18.14532,9.602539 18.787466,9.2451754 19.493442,9.0126931 20.215249,8.9208985 19.460824,7.143427 17.814155,6.0024317 15.999847,6 Z m 0,10 c 2.010662,-0.0016 3.791735,-1.39761 4.411819,-3.458008 -0.14458,0.476121 -0.354759,0.926133 -0.623497,1.334961 C 18.16762,13.942573 16.754868,14.734303 15.999847,16 Z m 4.411819,-3.458008 c 0.0435,-0.14522 0.08081,-0.29251 0.111807,-0.441406 -0.031,0.148896 -0.0683,0.296186 -0.111807,0.441406 z M 20.269642,9.053711 c 0.05853,0.1492214 0.110301,0.3014191 0.155118,0.4560545 C 20.37994,9.3551301 20.32818,9.2029324 20.269642,9.053711 Z m 0.162169,0.4765625 c 0.03655,0.1303916 0.06813,0.2623371 0.09468,0.3955071 -0.02655,-0.13317 -0.05813,-0.2651155 -0.09468,-0.3955071 z m 0.120872,0.5175785 c 0.0183,0.105892 0.03341,0.212393 0.04532,0.319336 -0.01191,-0.106943 -0.02702,-0.213444 -0.04532,-0.319336 z m 0.06749,0.518554 c 0.01288,0.144134 0.01993,0.288801 0.02115,0.433594 -0.0012,-0.144793 -0.0083,-0.28946 -0.02115,-0.433594 z m 0.01107,0.654297 c -0.0034,0.109583 -0.01009,0.219018 -0.02014,0.328125 0.01005,-0.109107 0.01677,-0.218542 0.02014,-0.328125 z m -0.03626,0.44336 c -0.01542,0.130035 -0.03558,0.259367 -0.06044,0.387695 0.02486,-0.128328 0.04502,-0.25766 0.06044,-0.387695 z"
       style="fill:#a544c9"
       id="path1529" />
    <path
       d="M 19.859838,13.87207 C 18.210459,13.91731 16.766122,14.713575 16,16 c 2.563416,0 4.641475,2.238576 4.641475,5 -0.0018,0.717949 -0.147129,1.427057 -0.426073,2.079101 1.965069,0.255354 3.807722,-0.556825 4.717021,-2.079101 1.281974,-2.152367 0.321379,-5.016709 -2.145475,-6.397461 -0.90004,-0.503619 -1.920312,-0.758231 -2.92711,-0.730469 z"
       style="fill:#009688"
       id="path1585" />
    <path
       d="m 21.073089,8.8720703 c -1.006933,-0.027655 -2.027304,0.2271295 -2.927364,0.7309573 -2.466386,1.3807004 -3.426907,4.2444934 -2.145474,6.3967294 0.766167,-1.286255 2.210333,-2.082449 3.859587,-2.127687 1.006798,-0.02776 2.02707,0.22685 2.92711,0.730469 0.66311,0.371158 1.216253,0.850154 1.647383,1.393067 C 25.642044,14.473954 25.836655,12.523086 24.932674,11 24.166595,9.7136416 22.72237,8.9173875 21.073089,8.8720703 Z M 16.000251,16 c 0.756147,1.267563 2.171879,2.059635 3.795122,2.123292 C 18.955299,16.839436 17.569186,16.00009 16.000251,16 Z"
       style="fill:#03a9f4"
       id="path1557" />
    <path
       d="m 16.000485,15.999756 c -7.9997742,8.000162 -3.999887,4.000082 0,0 z m 0,2.44e-4 c 0.814377,1.61694 2.214779,2.317036 3.795122,2.123291 C 18.955533,16.839435 17.56942,16.00009 16.000485,16 Z"
       style="fill:#ffc107"
       id="path1671" />
  </g>
  <path
     id="path2076"
     style="opacity:0.2;fill:#ffffff;stroke-width:8"
     d="M 127.98438,48 C 113.47079,48.0248 100.30066,57.14398 94.265624,71.359376 78.538952,69.314256 63.792576,75.819812 56.515624,88 c -3.06362,5.160804 -4.5104,10.937412 -4.468748,16.80469 C 52.320836,99.629128 53.800292,94.574096 56.515624,90 63.792584,77.819796 78.538928,71.322068 94.265624,73.367188 100.30067,59.151776 113.47077,50.0248 127.98438,50 c 14.51926,0.018 27.69697,9.146224 33.73437,23.367188 2.28857,-0.30928 4.58223,-0.440224 6.85937,-0.39064 13.19686,0.36304 24.75296,6.733032 30.88282,17.023436 2.78852,4.695576 4.26028,9.898752 4.47656,15.218756 C 204.05174,99.20876 202.6053,93.281636 199.46875,88 193.3389,77.709604 181.77497,71.33178 168.57812,70.968752 c -2.27714,-0.0496 -4.57081,0.09696 -6.85937,0.406248 C 155.68136,57.154056 142.50362,48.01804 127.98438,48 Z m 68.96874,81.96875 c -0.2396,0.34136 -0.49549,0.67705 -0.74218,1.01563 4.67488,6.26143 7.37032,13.49259 7.73438,20.75 0.0698,-7.53578 -2.35408,-15.15475 -6.9922,-21.76563 z m -137.89062,0.0312 c -4.774016,6.78332 -7.133388,14.45005 -7.015624,21.94531 0.31348,-7.2241 2.930456,-14.52754 7.742188,-20.95312 -0.241,-0.3316 -0.492408,-0.65948 -0.726564,-0.99219 z" />
  <path
     id="path1040"
     style="opacity:0.1;fill:#ffffff;stroke-width:16;stroke-linecap:square"
     d="M 64,16 C 37.408052,16 16,37.408054 16,64 v 2 C 16,39.408026 37.408026,18 64,18 h 128 c 26.59198,0 48,21.408026 48,48 V 64 C 240,37.408054 218.59194,16 192,16 Z" />
</svg>
