<?xml version="1.0" encoding="UTF-8" standalone="no"?>
<!-- Created with Inkscape (http://www.inkscape.org/) -->

<svg
   width="256"
   height="256"
   viewBox="0 0 256 256"
   version="1.1"
   id="svg5"
   inkscape:version="1.3 (0e150ed6c4, 2023-07-21)"
   sodipodi:docname="preferences-desktop-icons.svg"
   xmlns:inkscape="http://www.inkscape.org/namespaces/inkscape"
   xmlns:sodipodi="http://sodipodi.sourceforge.net/DTD/sodipodi-0.dtd"
   xmlns="http://www.w3.org/2000/svg"
   xmlns:svg="http://www.w3.org/2000/svg">
  <sodipodi:namedview
     id="namedview7"
     pagecolor="#ffffff"
     bordercolor="#000000"
     borderopacity="0.25"
     inkscape:showpageshadow="2"
     inkscape:pageopacity="0.0"
     inkscape:pagecheckerboard="0"
     inkscape:deskcolor="#d1d1d1"
     inkscape:document-units="px"
     showgrid="false"
     inkscape:zoom="3.125"
     inkscape:cx="127.84"
     inkscape:cy="128"
     inkscape:window-width="1920"
     inkscape:window-height="1004"
     inkscape:window-x="0"
     inkscape:window-y="0"
     inkscape:window-maximized="1"
     inkscape:current-layer="svg5" />
  <defs
     id="defs2" />
  <rect
     style="opacity:0.2;fill:#000000;stroke-width:16;stroke-linecap:square"
     id="rect234"
     width="224"
     height="224"
     x="16"
     y="18"
     ry="48" />
  <rect
     style="fill:#2196f3;fill-opacity:1;stroke-width:16;stroke-linecap:square"
     id="rect396"
     width="224"
     height="224"
     x="16"
     y="16"
     ry="48" />
  <path
     id="path1-3"
     style="opacity:0.2;fill:#000000;stroke-width:8"
     d="M 62.406248,54 C 56.644664,54 52,58.644664 52,64.406248 V 83.593752 C 52,89.355336 56.644664,94 62.406248,94 H 81.593752 C 87.355336,94 92,89.355336 92,83.593752 V 64.406248 C 92,58.644664 87.355336,54 81.593752,54 Z m 56.000002,0 C 112.64466,54 108,58.644664 108,64.406248 V 83.593752 C 108,89.355336 112.64466,94 118.40625,94 h 19.1875 C 143.35534,94 148,89.355336 148,83.593752 V 64.406248 C 148,58.644664 143.35534,54 137.59375,54 Z M 62.406248,110 C 56.644664,110 52,114.64466 52,120.40625 v 19.1875 C 52,145.35534 56.644664,150 62.406248,150 H 81.593752 C 87.355336,150 92,145.35534 92,139.59375 v -19.1875 C 92,114.64466 87.355336,110 81.593752,110 Z m 56.000002,0 C 112.64466,110 108,114.64466 108,120.40625 v 19.1875 C 108,145.35534 112.64466,150 118.40625,150 h 19.1875 C 143.35534,150 148,145.35534 148,139.59375 v -19.1875 C 148,114.64466 143.35534,110 137.59375,110 Z M 62.406248,166 C 56.644664,166 52,170.64466 52,176.40625 v 19.18751 C 52,201.35534 56.644664,206 62.406248,206 H 81.593752 C 87.355336,206 92,201.35534 92,195.59376 V 176.40625 C 92,170.64466 87.355336,166 81.593752,166 Z" />
  <path
     id="path1"
     style="fill:#ffffff;stroke-width:8"
     d="M 62.406248,52 C 56.644664,52 52,56.644664 52,62.406248 V 81.593752 C 52,87.355336 56.644664,92 62.406248,92 H 81.593752 C 87.355336,92 92,87.355336 92,81.593752 V 62.406248 C 92,56.644664 87.355336,52 81.593752,52 Z m 56.000002,0 C 112.64466,52 108,56.644664 108,62.406248 V 81.593752 C 108,87.355336 112.64466,92 118.40625,92 h 19.1875 C 143.35534,92 148,87.355336 148,81.593752 V 62.406248 C 148,56.644664 143.35534,52 137.59375,52 Z M 62.406248,108 C 56.644664,108 52,112.64466 52,118.40625 v 19.1875 C 52,143.35534 56.644664,148 62.406248,148 H 81.593752 C 87.355336,148 92,143.35534 92,137.59375 v -19.1875 C 92,112.64466 87.355336,108 81.593752,108 Z m 56.000002,0 C 112.64466,108 108,112.64466 108,118.40625 v 19.1875 C 108,143.35534 112.64466,148 118.40625,148 h 19.1875 C 143.35534,148 148,143.35534 148,137.59375 v -19.1875 C 148,112.64466 143.35534,108 137.59375,108 Z M 62.406248,164 C 56.644664,164 52,168.64466 52,174.40625 v 19.18751 C 52,199.35534 56.644664,204 62.406248,204 H 81.593752 C 87.355336,204 92,199.35534 92,193.59376 V 174.40625 C 92,168.64466 87.355336,164 81.593752,164 Z" />
  <path
     id="path1040"
     style="opacity:0.2;fill:#ffffff;stroke-width:16;stroke-linecap:square"
     d="M 64,16 C 37.40808,16 16,37.40808 16,64 v 2 C 16,39.408084 37.40808,18 64,18 h 128 c 26.59192,0 48,21.408084 48,48 V 64 C 240,37.40808 218.59192,16 192,16 Z" />
</svg>
