<?xml version="1.0" encoding="UTF-8" standalone="no"?>
<!-- Created with Inkscape (http://www.inkscape.org/) -->

<svg
   width="256"
   height="256"
   viewBox="0 0 256 256"
   version="1.1"
   id="svg5"
   inkscape:version="1.2.2 (1:1.2.2+202305151914+b0a8486541)"
   sodipodi:docname="preferences-web-browser-cookies.svg"
   xmlns:inkscape="http://www.inkscape.org/namespaces/inkscape"
   xmlns:sodipodi="http://sodipodi.sourceforge.net/DTD/sodipodi-0.dtd"
   xmlns="http://www.w3.org/2000/svg"
   xmlns:svg="http://www.w3.org/2000/svg">
  <sodipodi:namedview
     id="namedview7"
     pagecolor="#ffffff"
     bordercolor="#000000"
     borderopacity="0.25"
     inkscape:showpageshadow="2"
     inkscape:pageopacity="0.0"
     inkscape:pagecheckerboard="0"
     inkscape:deskcolor="#d1d1d1"
     inkscape:document-units="px"
     showgrid="false"
     inkscape:zoom="3.1484375"
     inkscape:cx="127.84119"
     inkscape:cy="128"
     inkscape:window-width="1920"
     inkscape:window-height="1008"
     inkscape:window-x="0"
     inkscape:window-y="0"
     inkscape:window-maximized="1"
     inkscape:current-layer="svg5" />
  <defs
     id="defs2" />
  <rect
     style="opacity:0.2;fill:#000000;stroke-width:16;stroke-linecap:square"
     id="rect234"
     width="224"
     height="224"
     x="16"
     y="18"
     ry="48" />
  <rect
     style="fill:#4d4d4d;fill-opacity:1;stroke-width:16;stroke-linecap:square"
     id="rect396"
     width="224"
     height="224"
     x="16"
     y="16"
     ry="48" />
  <g
     id="g994"
     transform="matrix(4,0,0,4,-4.4e-6,2.8e-6)">
    <path
       d="m 33.124861,12.50152 c -0.860257,-0.019 -1.796332,0.140355 -2.992082,0.464827 -0.866866,0.235228 -2.813396,0.693149 -4.480311,1.062463 0.230204,0.804034 0.347212,1.63623 0.347644,2.472571 -0.003,0.144655 -0.0096,0.289229 -0.0196,0.433576 0.0124,0.188534 0.019,0.377433 0.0196,0.566389 0,4.970387 -4.029297,8.999684 -8.999685,8.999684 -1.091199,-0.004 -2.172558,-0.206601 -3.191294,-0.597637 -0.156455,0.677572 -0.442541,1.69041 -0.851532,2.870991 -1.13968,3.28975 -1.220783,4.442144 -0.464828,6.738043 0.295156,0.896399 0.63391,2.22365 0.749974,2.953023 0.299649,1.882986 0.847038,2.853217 2.828025,5.007636 0.957642,1.041489 2.320475,2.789988 3.027238,3.882676 1.137952,1.759316 1.529078,2.112083 3.425662,3.089735 2.293295,1.182145 4.047304,1.503195 10.280889,1.87884 2.03586,0.40494 3.143991,0.100497 4.855297,-0.83981 1.020212,-0.560717 2.367759,-1.188659 2.995989,-1.394483 1.927124,-0.631374 4.448002,-2.155725 5.148257,-3.117079 0.365902,-0.502334 1.284775,-2.193355 2.042897,-3.75768 0.906196,-1.869844 1.842541,-3.30723 2.73428,-4.199075 1.865698,-1.363402 1.35542,-3.006276 1.35542,-5.159975 0,-3.69505 -0.03088,-3.890163 -1.105429,-6.839599 C 50.222969,25.346868 49.502367,23.330953 49.229764,22.540231 48.822508,21.35895 48.292585,20.721128 46.261118,18.954419 43.14868,16.247634 42.21751,15.654923 40.085555,15.017057 39.143208,14.735111 37.509094,14.050701 36.452869,13.497579 35.211614,12.84756 34.230905,12.525951 33.124861,12.50152 Z"
       style="opacity:0.2;fill:#000000;stroke-width:1.99993"
       id="path439" />
    <path
       d="m 33.124861,12.00152 c -0.860257,-0.019 -1.796332,0.140355 -2.992082,0.464828 -0.866866,0.235227 -2.813394,0.693147 -4.480311,1.062462 0.230204,0.804034 0.347212,1.636231 0.347644,2.47257 -0.003,0.144654 -0.0096,0.289231 -0.0196,0.433578 0.0124,0.188554 0.019,0.377433 0.0196,0.566386 0,4.97039 -4.029295,8.999685 -8.999685,8.999685 -1.091197,-0.004 -2.172558,-0.206599 -3.191294,-0.597635 -0.156455,0.677572 -0.442541,1.69041 -0.851532,2.870993 -1.13968,3.289751 -1.220783,4.442144 -0.464828,6.738043 0.295156,0.896397 0.63391,2.22365 0.749974,2.953021 0.299649,1.882986 0.847038,2.853216 2.828025,5.007636 0.957642,1.041489 2.320475,2.78999 3.027238,3.882678 1.137952,1.759314 1.52908,2.112084 3.425662,3.089735 2.293295,1.182145 4.047306,1.503194 10.280889,1.87884 2.03586,0.404938 3.143991,0.100497 4.855297,-0.839812 1.020212,-0.560716 2.367759,-1.188656 2.995989,-1.394483 1.927124,-0.631374 4.448002,-2.155725 5.148257,-3.117079 0.365902,-0.502334 1.284775,-2.193355 2.042897,-3.75768 0.906196,-1.869844 1.842541,-3.30723 2.73428,-4.199073 1.865698,-1.363402 1.35542,-3.006278 1.35542,-5.159974 0,-3.695053 -0.03088,-3.890166 -1.105429,-6.839602 C 50.222969,24.846869 49.502367,22.830954 49.229764,22.04023 48.822508,20.858951 48.292585,20.22113 46.261118,18.45442 43.14868,15.747632 42.21751,15.154923 40.085555,14.517058 39.143208,14.235112 37.509094,13.550702 36.452869,12.997579 35.211614,12.34756 34.230905,12.025951 33.124861,12.00152 Z"
       style="fill:#ffaa46;stroke-width:1.99993"
       id="path411" />
    <path
       d="m 20.768561,30.269383 c -0.535305,-0.02872 -0.709123,0.0082 -1.016804,0.21624 -0.120136,0.08118 -0.302701,0.186674 -0.405718,0.234494 -0.265953,0.123456 -0.3862,0.244916 -0.620898,0.626876 -0.892001,1.271707 -0.781091,1.789923 -0.598803,2.832235 0.02656,0.316233 0.118476,0.466163 0.330352,0.677964 0.126336,0.126255 0.276475,0.297913 0.333625,0.381545 0.870199,1.087903 2.789418,0.761533 3.847531,0.521601 0.221284,-0.159814 0.488596,-0.350569 0.594041,-0.423977 0.157534,-0.109676 0.22978,-0.214486 0.404952,-0.587507 0.26838,-0.571516 0.316712,-0.733349 0.320544,-1.073525 0.158695,-0.576023 -0.154154,-0.953222 -0.428391,-1.369626 -0.553466,-1.572556 -1.885118,-2.890772 -2.760429,-2.03632 z m 22.214266,7.461866 c 0.494123,0.02872 0.654569,-0.0082 0.938582,-0.216238 0.110876,-0.0812 0.279414,-0.186674 0.374506,-0.234494 0.245494,-0.123456 0.35649,-0.244918 0.573132,-0.626876 1.777084,-1.476866 1.049939,-1.860685 0.552739,-2.832237 -0.0245,-0.316233 -0.109376,-0.466163 -0.304939,-0.677962 -0.116616,-0.126255 -0.255205,-0.297915 -0.30796,-0.381547 -0.803255,-1.087903 -2.574831,-0.761533 -3.551543,-0.521601 -0.204261,0.159814 -0.45101,0.350569 -0.548343,0.423977 -0.145415,0.109676 -0.212104,0.214486 -0.373799,0.587509 -0.247735,0.571516 -0.292349,0.733347 -0.295885,1.073525 -0.146495,0.576021 0.142295,0.95322 0.395434,1.369624 0.51089,1.572558 1.740099,2.890772 2.548072,2.036322 z m -13.194394,5.190132 c 0.220978,-0.68237 0.236227,-0.921292 0.08966,-1.397515 -0.05724,-0.185934 -0.122415,-0.461824 -0.144914,-0.613111 -0.0581,-0.390576 -0.164395,-0.591741 -0.548499,-1.038617 -0.837183,-1.575973 -1.61555,-0.883245 -3.244714,-1.835588 -0.394742,-0.084 -0.609461,-0.0211 -0.941275,0.173954 -0.197813,0.116296 -0.45924,0.246456 -0.58105,0.28915 -0.373659,0.130955 -0.861842,0.44743 -0.997617,0.646837 -2.005853,1.009831 -1.437637,2.590611 -0.975016,4.139717 0.117956,0.346346 0.257621,0.763875 0.310477,0.927887 0.07896,0.245024 0.181634,0.377815 0.575536,0.744268 0.603487,0.561449 0.783983,0.684612 1.197358,0.816922 0.647088,0.421119 1.215624,0.157234 1.818536,-0.04196 2.676476,-0.539469 4.247523,-1.441171 3.441522,-2.811929 z m 0.405519,-21.841985 c -0.230986,0.68237 -0.246925,0.921291 -0.09372,1.397514 0.05982,0.185934 0.127955,0.461824 0.151474,0.613111 0.06074,0.390574 0.171834,0.591739 0.573344,1.038615 0.194093,0.216029 0.470004,0.578182 0.613249,0.80483 0.230638,0.364923 0.310131,0.438371 0.694523,0.64116 0.446775,0.199073 0.496983,-0.516066 2.083915,0.389598 0.412624,0.084 0.637068,0.0211 0.98391,-0.173954 0.206774,-0.116316 0.480043,-0.246455 0.60737,-0.28915 0.390585,-0.130955 0.900879,-0.44743 1.042806,-0.646837 1.030728,-1.477376 1.360662,-2.652933 1.019178,-4.139717 -0.123296,-0.346346 -0.269291,-0.763873 -0.324541,-0.927887 -0.08254,-0.245025 -0.189873,-0.377813 -0.601605,-0.744268 -0.630821,-0.56145 -0.819493,-0.684612 -1.251592,-0.816919 -0.676398,-0.421122 -1.270687,-0.157235 -1.900909,0.04196 -1.527694,0.539467 -3.207399,1.441168 -3.597408,2.811926 z m 9.654997,24.511463 c 0.179614,-0.51926 0.192014,-0.701071 0.07288,-1.063461 -0.04652,-0.141495 -0.0995,-0.351433 -0.117796,-0.466557 -0.04722,-0.297216 -0.133635,-0.450294 -0.44584,-0.790352 -0.81605,-1.516095 -1.234307,-1.384776 -2.067522,-1.070279 -1.330511,0.600551 -2.280986,0.549091 -3.147649,1.529016 -0.322883,0.672657 -0.0331,1.471607 0.218332,2.259781 0.09586,0.263559 0.209405,0.581284 0.252367,0.706091 0.06418,0.186454 0.147655,0.287506 0.467816,0.566365 0.490535,0.427245 0.637247,0.520967 0.973254,0.621648 1.148885,0.45112 1.318715,-0.512604 2.162538,-1.068085 1.112699,-0.588523 2.075183,-0.52118 1.631618,-1.224163 z"
       style="fill:#835145;stroke-width:1.99993"
       id="path523" />
    <path
       id="path467"
       style="opacity:0.2;fill:#ffffff;stroke-width:1.99993"
       d="m 33.125,12.001953 c -0.860256,-0.019 -1.796439,0.140372 -2.992188,0.464844 -0.866865,0.235228 -2.813555,0.693186 -4.480468,1.0625 0.0448,0.156458 0.08294,0.314242 0.11914,0.472656 1.639906,-0.364545 3.514788,-0.805443 4.361328,-1.035156 1.195749,-0.324472 2.131932,-0.483844 2.992188,-0.464844 1.106043,0.02443 2.086871,0.346076 3.328125,0.996094 1.056224,0.553121 2.690466,1.237585 3.632813,1.519531 2.131952,0.637865 3.063346,1.230718 6.175781,3.9375 2.031465,1.766707 2.561494,2.404658 2.96875,3.585938 0.272602,0.790721 0.99326,2.806796 1.601562,4.476562 1.074548,2.949433 1.105469,3.142844 1.105469,6.837891 0,0.660585 0.04196,1.268697 0.05469,1.839843 0.02013,-0.709485 -0.05469,-1.483323 -0.05469,-2.339843 0,-3.695047 -0.03092,-3.888458 -1.105469,-6.837891 -0.608302,-1.669766 -1.32896,-3.685841 -1.601562,-4.476562 -0.407256,-1.18128 -0.937285,-1.819231 -2.96875,-3.585938 -3.112435,-2.706782 -4.043829,-3.299635 -6.175781,-3.9375 -0.942347,-0.281946 -2.576589,-0.96641 -3.632813,-1.519531 C 35.211871,12.348029 34.231043,12.026384 33.125,12.001953 Z m -7.134766,4.216797 c -0.0033,0.07227 -0.0048,0.144623 -0.0098,0.216797 0.0062,0.09427 0.0065,0.188792 0.0098,0.283203 0.0033,-0.07227 0.0083,-0.144469 0.0098,-0.216797 -4.9e-5,-0.09445 -0.0067,-0.188896 -0.0098,-0.283203 z m 0,0.984375 C 25.882179,22.079642 21.902458,26.001953 17,26.001953 c -1.091198,-0.004 -2.172671,-0.206621 -3.191406,-0.597656 -0.156455,0.677571 -0.442572,1.688561 -0.851563,2.869141 -0.719307,2.076319 -1.013677,3.30164 -0.945312,4.5 0.02853,-1.053688 0.32465,-2.208423 0.945312,-4 0.408991,-1.18058 0.695108,-2.19157 0.851563,-2.869141 1.018735,0.391035 2.100208,0.593656 3.191406,0.597656 4.970383,0 9,-4.029618 9,-9 -3.17e-4,-0.09968 -0.0061,-0.199221 -0.0098,-0.298828 z" />
  </g>
  <path
     id="path1040"
     style="opacity:0.1;fill:#ffffff;stroke-width:16;stroke-linecap:square"
     d="M 64,16 C 37.408052,16 16,37.408054 16,64 v 2 C 16,39.408026 37.408026,18 64,18 h 128 c 26.59198,0 48,21.408026 48,48 V 64 C 240,37.408054 218.59194,16 192,16 Z" />
</svg>
