<?xml version="1.0" encoding="UTF-8" standalone="no"?>
<!-- Created with Inkscape (http://www.inkscape.org/) -->

<svg
   width="256"
   height="256"
   viewBox="0 0 256 256"
   version="1.1"
   id="svg5"
   inkscape:version="1.3 (0e150ed6c4, 2023-07-21)"
   sodipodi:docname="qtdbusviewer.svg"
   xmlns:inkscape="http://www.inkscape.org/namespaces/inkscape"
   xmlns:sodipodi="http://sodipodi.sourceforge.net/DTD/sodipodi-0.dtd"
   xmlns="http://www.w3.org/2000/svg"
   xmlns:svg="http://www.w3.org/2000/svg">
  <sodipodi:namedview
     id="namedview7"
     pagecolor="#ffffff"
     bordercolor="#000000"
     borderopacity="0.25"
     inkscape:showpageshadow="2"
     inkscape:pageopacity="0.0"
     inkscape:pagecheckerboard="0"
     inkscape:deskcolor="#d1d1d1"
     inkscape:document-units="px"
     showgrid="false"
     inkscape:zoom="3.0585938"
     inkscape:cx="127.83653"
     inkscape:cy="128"
     inkscape:window-width="1920"
     inkscape:window-height="984"
     inkscape:window-x="0"
     inkscape:window-y="29"
     inkscape:window-maximized="1"
     inkscape:current-layer="svg5" />
  <defs
     id="defs2" />
  <rect
     style="opacity:0.2;fill:#000000;stroke-width:16;stroke-linecap:square"
     id="rect234"
     width="224"
     height="224"
     x="16"
     y="18"
     ry="48" />
  <rect
     style="fill:#4cdb5d;fill-opacity:1;stroke-width:16;stroke-linecap:square"
     id="rect396"
     width="224"
     height="208"
     x="16"
     y="16"
     ry="48" />
  <path
     id="path1"
     style="fill:#31ae3e;fill-opacity:1;stroke-width:4;stroke-linecap:square"
     d="m 16,80 v 112 c 0,26.59198 21.408028,48 48,48 h 128 c 26.59198,0 48,-21.40802 48,-48 v -24 z" />
  <path
     id="path2"
     style="opacity:0.1;fill:#000000;fill-opacity:1;stroke-width:4;stroke-linecap:square"
     d="m 16,80 v 2 l 224,88 v -2 z" />
  <path
     d="m 56,82 v 96 H 94.562496 C 113.08189,178 128,162.53342 128,143.32813 V 116.67187 C 128,97.466576 113.08189,82 94.562496,82 Z m 80,0 28,96 h 16 L 208,82 H 192 L 172,154 152,82 Z M 72,98 H 94.562496 C 104.80136,98 112,106.05381 112,116.67187 v 26.65626 C 112,153.94619 104.80136,162 94.562496,162 H 72 Z"
     style="opacity:0.2;fill:#000000;stroke-width:8"
     id="path3" />
  <path
     d="m 56,80 v 96 H 94.562496 C 113.08189,176 128,160.53342 128,141.32813 V 114.67187 C 128,95.466576 113.08189,80 94.562496,80 Z m 80,0 28,96 h 16 L 208,80 H 192 L 172,152 152,80 Z M 72,96 H 94.562496 C 104.80136,96 112,104.05381 112,114.67187 v 26.65626 C 112,151.94619 104.80136,160 94.562496,160 H 72 Z"
     style="fill:#ffffff;stroke-width:8"
     id="path4" />
  <path
     id="path1040"
     style="opacity:0.2;fill:#ffffff;stroke-width:16;stroke-linecap:square"
     d="M 64,16 C 37.40808,16 16,37.40808 16,64 v 2 C 16,39.408084 37.40808,18 64,18 h 128 c 26.59192,0 48,21.408084 48,48 V 64 C 240,37.40808 218.59192,16 192,16 Z" />
</svg>
