<?xml version="1.0" encoding="UTF-8" standalone="no"?>
<!-- Created with Inkscape (http://www.inkscape.org/) -->

<svg
   width="256"
   height="256"
   viewBox="0 0 256 256"
   version="1.1"
   id="svg5"
   inkscape:version="1.3 (0e150ed6c4, 2023-07-21)"
   sodipodi:docname="quadrapassel.svg"
   xmlns:inkscape="http://www.inkscape.org/namespaces/inkscape"
   xmlns:sodipodi="http://sodipodi.sourceforge.net/DTD/sodipodi-0.dtd"
   xmlns="http://www.w3.org/2000/svg"
   xmlns:svg="http://www.w3.org/2000/svg">
  <sodipodi:namedview
     id="namedview7"
     pagecolor="#ffffff"
     bordercolor="#000000"
     borderopacity="0.25"
     inkscape:showpageshadow="2"
     inkscape:pageopacity="0.0"
     inkscape:pagecheckerboard="0"
     inkscape:deskcolor="#d1d1d1"
     inkscape:document-units="px"
     showgrid="false"
     inkscape:zoom="3.0585938"
     inkscape:cx="127.83652"
     inkscape:cy="128"
     inkscape:window-width="1920"
     inkscape:window-height="984"
     inkscape:window-x="0"
     inkscape:window-y="29"
     inkscape:window-maximized="1"
     inkscape:current-layer="svg5" />
  <defs
     id="defs2" />
  <rect
     style="opacity:0.2;fill:#000000;stroke-width:16;stroke-linecap:square"
     id="rect234"
     width="224"
     height="224"
     x="16"
     y="18"
     ry="48" />
  <rect
     style="fill:#4d4d4d;fill-opacity:1;stroke-width:16;stroke-linecap:square"
     id="rect396"
     width="224"
     height="224"
     x="16"
     y="16"
     ry="48" />
  <path
     id="path3"
     d="m 80,50 c -2.216,0 -4,1.784004 -4,4 v 40 c 0,2.216 1.784,4 4,4 h 40 c 2.216,0 4,-1.784 4,-4 V 54 c 0,-2.215996 -1.784,-4 -4,-4 z m 0,56 c -2.216,0 -4,1.784 -4,4 v 40 c 0,2.216 1.784,4 4,4 h 40 c 2.216,0 4,-1.784 4,-4 v -40 c 0,-2.216 -1.784,-4 -4,-4 z m 0,56 c -2.216,0 -4,1.784 -4,4 v 40 c 0,2.216 1.784,4 4,4 h 40 c 2.216,0 4,-1.784 4,-4 v -40 c 0,-2.216 -1.784,-4 -4,-4 z m 56,0 c -2.216,0 -4,1.784 -4,4 v 40 c 0,2.216 1.784,4 4,4 h 40 c 2.216,0 4,-1.784 4,-4 v -40 c 0,-2.216 -1.784,-4 -4,-4 z"
     style="opacity:0.2;fill:#000000;fill-opacity:1;stroke-width:8" />
  <path
     id="path1"
     d="m 80,48 c -2.216,0 -4,1.784004 -4,4 v 40 c 0,2.216 1.784,4 4,4 h 40 c 2.216,0 4,-1.784 4,-4 V 52 c 0,-2.215996 -1.784,-4 -4,-4 z m 0,56 c -2.216,0 -4,1.784 -4,4 v 40 c 0,2.216 1.784,4 4,4 h 40 c 2.216,0 4,-1.784 4,-4 v -40 c 0,-2.216 -1.784,-4 -4,-4 z m 0,56 c -2.216,0 -4,1.784 -4,4 v 40 c 0,2.216 1.784,4 4,4 h 40 c 2.216,0 4,-1.784 4,-4 v -40 c 0,-2.216 -1.784,-4 -4,-4 z m 56,0 c -2.216,0 -4,1.784 -4,4 v 40 c 0,2.216 1.784,4 4,4 h 40 c 2.216,0 4,-1.784 4,-4 v -40 c 0,-2.216 -1.784,-4 -4,-4 z"
     style="fill:#f84e4e;fill-opacity:1;stroke-width:8" />
  <path
     id="path2"
     style="opacity:0.2;fill:#ffffff;stroke-width:8"
     d="m 80,48 c -2.215996,0 -4,1.784008 -4,4 v 2 c 0,-2.215992 1.784004,-4 4,-4 h 40 c 2.216,0 4,1.784008 4,4 v -2 c 0,-2.215992 -1.784,-4 -4,-4 z m 0,56 c -2.215996,0 -4,1.784 -4,4 v 2 c 0,-2.216 1.784004,-4 4,-4 h 40 c 2.216,0 4,1.784 4,4 v -2 c 0,-2.216 -1.784,-4 -4,-4 z m 0,56 c -2.215996,0 -4,1.784 -4,4 v 2 c 0,-2.216 1.784004,-4 4,-4 h 40 c 2.216,0 4,1.784 4,4 v -2 c 0,-2.216 -1.784,-4 -4,-4 z m 56,0 c -2.216,0 -4,1.784 -4,4 v 2 c 0,-2.216 1.784,-4 4,-4 h 40 c 2.216,0 4,1.784 4,4 v -2 c 0,-2.216 -1.784,-4 -4,-4 z" />
  <path
     id="path1040"
     style="opacity:0.1;fill:#ffffff;stroke-width:16;stroke-linecap:square"
     d="M 64,16 C 37.40808,16 16,37.40808 16,64 v 2 C 16,39.408084 37.40808,18 64,18 h 128 c 26.59192,0 48,21.408084 48,48 V 64 C 240,37.40808 218.59192,16 192,16 Z" />
</svg>
