<?xml version="1.0" encoding="UTF-8" standalone="no"?>
<!-- Created with Inkscape (http://www.inkscape.org/) -->

<svg
   width="256"
   height="256"
   viewBox="0 0 256 256"
   version="1.1"
   id="svg5"
   inkscape:version="1.3 (0e150ed6c4, 2023-07-21)"
   sodipodi:docname="reddit.svg"
   xmlns:inkscape="http://www.inkscape.org/namespaces/inkscape"
   xmlns:sodipodi="http://sodipodi.sourceforge.net/DTD/sodipodi-0.dtd"
   xmlns="http://www.w3.org/2000/svg"
   xmlns:svg="http://www.w3.org/2000/svg">
  <sodipodi:namedview
     id="namedview7"
     pagecolor="#ffffff"
     bordercolor="#000000"
     borderopacity="0.25"
     inkscape:showpageshadow="2"
     inkscape:pageopacity="0.0"
     inkscape:pagecheckerboard="0"
     inkscape:deskcolor="#d1d1d1"
     inkscape:document-units="px"
     showgrid="false"
     inkscape:zoom="3.0585938"
     inkscape:cx="127.83653"
     inkscape:cy="128"
     inkscape:window-width="1920"
     inkscape:window-height="984"
     inkscape:window-x="0"
     inkscape:window-y="29"
     inkscape:window-maximized="1"
     inkscape:current-layer="svg5"
     showguides="false" />
  <defs
     id="defs2" />
  <rect
     style="opacity:0.2;fill:#000000;stroke-width:16;stroke-linecap:square"
     id="rect234"
     width="224"
     height="224"
     x="16"
     y="18"
     ry="48" />
  <rect
     style="fill:#ff5836;fill-opacity:1;stroke-width:16;stroke-linecap:square"
     id="rect396"
     width="224"
     height="224"
     x="16"
     y="16"
     ry="48" />
  <path
     style="opacity:0.2;fill:#000000;stroke-width:4"
     d="m 136.06246,62.000464 c -2.00763,-0.0304 -3.72552,1.43454 -4.01562,3.42158 l -6.85937,44.682166 c -15.75702,0.46709 -30.707934,4.91855 -41.98437,12.49847 -2.988404,-2.93936 -7.01116,-4.5887 -11.203128,-4.59324 -8.836596,0 -16.000056,7.16272 -16,15.9982 0.0044,5.96687 3.329208,11.4355 8.625,14.18576 -0.39496,1.92567 -0.603744,3.86721 -0.625,5.81177 C 63.999928,178.30284 92.653716,198 127.99997,198 163.34621,198 192,178.30284 191.99996,154.00517 c -0.0272,-1.93972 -0.24144,-3.87597 -0.64056,-5.7962 5.30682,-2.7486 8.63914,-8.22554 8.64062,-14.20133 6e-5,-8.83548 -7.1634,-15.9982 -15.99998,-15.9982 -4.205,4.6e-4 -8.2408,1.65615 -11.2344,4.60882 -10.65922,-7.19492 -24.64398,-11.59981 -39.53124,-12.45162 l 6.07812,-39.307864 20.79688,4.624536 c 0.74078,6.005864 5.83849,10.520352 11.89063,10.530028 6.62742,0 12.00001,-5.371888 12.00001,-11.998576 0,-6.626696 -5.37259,-11.998576 -12.00001,-11.998576 -4.12751,0.0034 -7.96351,2.127924 -10.15625,5.624328 l -24.95313,-5.530608 c -0.2716,-0.06048 -0.54915,-0.10584 -0.82812,-0.10584 z m -28.06249,72.007176 c 6.62741,0 12,5.37189 12,11.99858 0,6.62669 -5.37259,11.99858 -12,11.99858 -6.62742,0 -12.000002,-5.37189 -12.000002,-11.99858 0,-6.62669 5.372582,-11.99858 12.000002,-11.99858 z m 40,0 c 6.62742,0 12,5.37189 12,11.99858 0,6.62669 -5.37258,11.99858 -12,11.99858 -6.62742,0 -12,-5.37189 -12,-11.99858 0,-6.62669 5.37258,-11.99858 12,-11.99858 z m 7.78125,35.85394 c 3.72156,-0.3144 5.81876,4.1771 3.1875,6.82729 0,0 -2.62057,2.77989 -7.60938,5.07757 -4.98881,2.29828 -12.65242,4.4309 -23.45312,4.2495 -10.73844,-0.1828 -18.2656,-2.30721 -23.20312,-4.48396 -4.937524,-2.17524 -7.562508,-4.73382 -7.562508,-4.73382 -2.44944,-2.40229 -0.93596,-6.57091 2.484376,-6.84286 0.12988,-0.0112 0.26024,-0.0152 0.390642,-0.0152 1.08308,0.0124 2.11482,0.46408 2.85937,1.25012 0,0 1.14036,1.28035 5.07813,3.01526 3.93777,1.73535 10.38023,3.59949 20.14063,3.78089 9.69812,0.16632 16.00413,-1.69424 19.89062,-3.48401 3.8865,-1.78887 5.03124,-3.18712 5.03124,-3.18712 0.68788,-0.83745 1.6854,-1.36198 2.76564,-1.45268 z"
     id="path2" />
  <path
     style="fill:#ffffff;stroke-width:4"
     d="m 136.06246,60.000464 c -2.00763,-0.0304 -3.72552,1.43454 -4.01562,3.42158 l -6.85937,44.682166 c -15.75702,0.46709 -30.707934,4.91855 -41.98437,12.49847 -2.988404,-2.93936 -7.01116,-4.5887 -11.203128,-4.59324 -8.836596,0 -16.000056,7.16272 -16,15.9982 0.0044,5.96687 3.329208,11.4355 8.625,14.18576 -0.39496,1.92567 -0.603744,3.86721 -0.625,5.81177 C 63.999928,176.30283 92.653716,196 127.99997,196 163.34621,196 192,176.30283 191.99996,152.00517 c -0.0272,-1.93973 -0.24144,-3.87598 -0.64056,-5.7962 5.30682,-2.7486 8.63914,-8.22555 8.64062,-14.20133 6e-5,-8.83548 -7.1634,-15.9982 -15.99998,-15.9982 -4.205,4.5e-4 -8.2408,1.65614 -11.2344,4.60882 -10.65922,-7.19492 -24.64398,-11.59981 -39.53124,-12.45162 l 6.07812,-39.307864 20.79688,4.624536 c 0.74078,6.005864 5.83849,10.520352 11.89063,10.530028 6.62742,0 12.00001,-5.371888 12.00001,-11.998576 0,-6.626692 -5.37259,-11.998576 -12.00001,-11.998576 -4.12751,0.0034 -7.96351,2.127924 -10.15625,5.624328 l -24.95313,-5.530608 c -0.2716,-0.06048 -0.54915,-0.10584 -0.82812,-0.10584 z m -28.06249,72.007176 c 6.62741,0 12,5.37189 12,11.99858 0,6.62669 -5.37259,11.99858 -12,11.99858 -6.62742,0 -12.000002,-5.37189 -12.000002,-11.99858 0,-6.62669 5.372582,-11.99858 12.000002,-11.99858 z m 40,0 c 6.62742,0 12,5.37189 12,11.99858 0,6.62669 -5.37258,11.99858 -12,11.99858 -6.62742,0 -12,-5.37189 -12,-11.99858 0,-6.62669 5.37258,-11.99858 12,-11.99858 z m 7.78125,35.85394 c 3.72156,-0.3144 5.81876,4.17709 3.1875,6.82728 0,0 -2.62057,2.7799 -7.60938,5.07758 -4.98881,2.29828 -12.65242,4.43088 -23.45312,4.2495 -10.73844,-0.18292 -18.2656,-2.30721 -23.20312,-4.48396 -4.937524,-2.17524 -7.562508,-4.73382 -7.562508,-4.73382 -2.44944,-2.40229 -0.93596,-6.57092 2.484376,-6.84286 0.12988,-0.0112 0.26024,-0.0152 0.390642,-0.0152 1.08308,0.0124 2.11482,0.46407 2.85937,1.25012 0,0 1.14036,1.28035 5.07813,3.01525 3.93777,1.73535 10.38023,3.59949 20.14063,3.78089 9.69812,0.16632 16.00413,-1.69424 19.89062,-3.48401 3.8865,-1.78886 5.03124,-3.18712 5.03124,-3.18712 0.68788,-0.83744 1.6854,-1.36198 2.76564,-1.45268 z"
     id="path3" />
  <path
     id="path1040"
     style="opacity:0.2;fill:#ffffff;stroke-width:16;stroke-linecap:square"
     d="M 64,16 C 37.408052,16 16,37.408056 16,64 v 2 C 16,39.408056 37.408052,18 64,18 h 128 c 26.59194,0 48,21.408056 48,48 V 64 C 240,37.408056 218.59194,16 192,16 Z"
     sodipodi:nodetypes="sscsscsss" />
</svg>
