<?xml version="1.0" encoding="UTF-8" standalone="no"?>
<!-- Created with Inkscape (http://www.inkscape.org/) -->

<svg
   width="256"
   height="256"
   viewBox="0 0 256 256"
   version="1.1"
   id="svg5"
   inkscape:version="1.2.2 (1:1.2.2+202305151914+b0a8486541)"
   sodipodi:docname="rnote.svg"
   xmlns:inkscape="http://www.inkscape.org/namespaces/inkscape"
   xmlns:sodipodi="http://sodipodi.sourceforge.net/DTD/sodipodi-0.dtd"
   xmlns="http://www.w3.org/2000/svg"
   xmlns:svg="http://www.w3.org/2000/svg">
  <sodipodi:namedview
     id="namedview7"
     pagecolor="#ffffff"
     bordercolor="#000000"
     borderopacity="0.25"
     inkscape:showpageshadow="2"
     inkscape:pageopacity="0.0"
     inkscape:pagecheckerboard="0"
     inkscape:deskcolor="#d1d1d1"
     inkscape:document-units="px"
     showgrid="false"
     inkscape:zoom="3.1484375"
     inkscape:cx="128"
     inkscape:cy="128"
     inkscape:window-width="1920"
     inkscape:window-height="1008"
     inkscape:window-x="0"
     inkscape:window-y="0"
     inkscape:window-maximized="1"
     inkscape:current-layer="svg5" />
  <defs
     id="defs2" />
  <rect
     style="opacity:0.2;fill:#000000;stroke-width:16;stroke-linecap:square"
     id="rect234"
     width="224"
     height="224"
     x="16"
     y="18"
     ry="48" />
  <rect
     style="fill:#e4e4e4;fill-opacity:1;stroke-width:16;stroke-linecap:square"
     id="rect396"
     width="224"
     height="224"
     x="16"
     y="16"
     ry="48" />
  <path
     d="m 56,64 v 2 h 184 v -2 z m 0,32 v 2 h 184 v -2 z m 0,32 v 2 h 184 v -2 z m 0,32 v 2 h 184 v -2 z m 0,32 v 2 h 184 v -2 z"
     style="fill:#cccccc;stroke-width:4"
     id="path1306" />
  <path
     d="m 203.64734,89.327628 c -0.27136,-2.208904 1.4229,-5.7044 1.19552,-10.463228 -0.23472,-4.766584 -2.54508,-11.408796 -12.02864,-16.229636 -0.16868,-0.08528 -0.3374,-0.17052 -0.51342,-0.25576 -6.16834,-3.007212 -15.16049,-5.161864 -25.64888,-4.107784 -8.14867,0.821556 -16.61272,3.541996 -24.5927,8.33958 -7.18052,4.301552 -13.79627,10.191964 -19.16516,17.477472 -3.15385,4.580568 -5.9043,9.76568 -7.86996,15.361568 -0.8508,2.41817 -1.55492,4.9216 -2.083,7.47927 -0.68212,3.32499 -1.05618,6.95999 -0.90949,10.79651 0.38872,6.08417 2.10501,12.73414 5.94098,18.71755 1.81163,2.8367 4.06334,5.40989 6.66709,7.55678 2.5891,2.1469 5.55225,3.88303 8.78678,5.02235 5.18552,1.79038 10.28302,1.79038 14.50039,1.11608 2.23703,-0.35652 4.2907,-0.90681 6.10233,-1.5191 2.23704,-0.7518 4.29071,-1.61987 5.91164,-2.35617 3.53525,-1.63537 6.85046,-3.59625 9.49089,-5.17736 2.64044,-1.58111 5.22953,-3.16997 7.71594,-4.45656 1.48157,-0.74405 3.24187,-1.57336 4.98015,-2.20115 0.46208,-0.16272 0.92415,-0.31776 1.38622,-0.44954 1.73096,-0.50378 3.4399,-0.72855 4.95816,-0.56578 1.29821,0.13176 2.39839,0.58128 3.13918,1.13157 0.3154,0.20924 0.58676,0.50379 0.81413,0.81381 0.19804,0.2868 0.33008,0.55804 0.4034,0.7053 0.0807,0.186 0.12472,0.56579 -0.0144,1.11608 -0.13204,0.55804 -0.41807,1.20133 -0.85815,1.84462 -0.45473,0.6588 -1.0855,1.34085 -1.93631,2.04615 -0.83614,0.68205 -1.83364,1.34859 -2.99249,1.99189 -2.54509,1.29434 -5.0755,2.1624 -8.63276,3.56525 -3.22719,1.27109 -7.07782,2.9142 -10.68642,5.51838 -1.89231,1.4106 -3.78462,3.16997 -5.41289,5.30137 -1.62093,2.1314 -3.02917,4.70458 -3.81396,7.71954 -0.70411,3.01496 -0.74079,6.36319 0.20536,9.57967 0.47675,1.63536 1.2102,3.18547 2.14902,4.56507 0.95349,1.3951 2.14902,2.65843 3.56459,3.666 2.51574,1.76712 5.2882,2.41817 7.68659,2.48793 h 0.81414 c 2.03166,-0.0542 3.96798,-0.49604 5.73561,-1.12383 1.8483,-0.59679 3.52058,-1.40285 4.95814,-2.1159 1.46691,-0.7363 2.59643,-1.33309 3.77729,-1.82913 1.07818,-0.50378 2.017,-0.8293 2.86781,-0.96882 0.8068,-0.1318 1.4669,-0.0698 1.94365,0.0698 0.21272,0.062 0.4034,0.16276 0.55742,0.26352 0.14668,0.10076 0.2494,0.19376 0.30072,0.24028 0.0807,0.0388 0.15404,0.10076 0.20536,0.11624 0.0587,0 0.11,0.0308 0.18336,0.0156 0.066,-0.0156 0,0.23252 -0.26404,0.55804 -0.30804,0.37976 -0.75546,0.75955 -1.4449,1.32534 -0.66745,0.53479 -1.57693,1.24009 -2.40573,2.10815 -0.91682,0.95331 -1.81163,2.1624 -2.36172,3.65825 -0.55009,1.51136 -0.63811,3.06147 -0.41074,4.42556 0.26404,1.58886 0.96083,2.89095 1.76763,3.81327 1.08551,1.25559 2.34705,1.79038 3.27854,1.93763 0.22736,0.0308 0.44007,0.0465 0.6381,0.0388 1.65761,-0.062 2.32505,-1.40285 2.61843,-1.79813 -0.41073,-0.41078 -0.8288,-1.46485 -1.15885,-2.36391 -0.0364,-0.10076 -0.0733,-0.19376 -0.10268,-0.29452 -0.13204,-0.39528 -0.2494,-0.8293 -0.22004,-1.21683 0.0144,-0.279 0.0807,-0.57354 0.20536,-0.75956 0.10268,-0.16276 0.2494,-0.31004 0.3814,-0.36428 0.13204,-0.062 0.35208,-0.248 0.74812,-0.50378 0.49142,-0.31004 0.83614,-0.48828 1.70895,-0.98432 0.68211,-0.37976 1.69428,-0.96882 2.66244,-1.76712 0.96816,-0.79831 2.083,-1.96089 2.87514,-3.58075 0.70412,-1.44935 1.04884,-3.05371 1.04884,-4.63483 0.008,-1.5811 -0.33004,-3.11571 -0.91682,-4.48756 -0.6161,-1.37959 -1.46692,-2.55768 -2.43507,-3.5265 -0.97549,-0.97656 -2.08301,-1.75162 -3.24187,-2.33291 -2.32504,-1.15483 -4.77478,-1.48035 -6.9238,-1.39509 -2.22236,0.0852 -4.26136,0.61229 -5.94098,1.17033 -1.6576,0.58904 -3.37388,1.36409 -4.59142,1.88338 -1.4009,0.59679 -2.47907,1.00757 -3.49857,1.25559 -0.96083,0.17824 -1.68695,0.16276 -2.21503,0.0388 -0.066,-0.0156 -0.13204,-0.0308 -0.19804,-0.0542 -0.53542,-0.17824 -0.8288,-0.48828 -0.74813,-0.6433 0.044,-0.062 0.0514,-0.13952 0.066,-0.27128 0.0144,-0.124 0.0296,-0.26352 0.088,-0.38756 0.088,-0.26352 0.23472,-0.7208 0.53542,-1.14708 0.22004,-0.47278 0.58677,-1.00756 1.1882,-1.61211 0.6161,-0.62004 1.42289,-1.24783 2.39105,-1.80587 1.95099,-1.24009 4.27604,-2.1624 7.29054,-3.16222 2.78712,-0.93007 6.60842,-2.0694 10.12166,-3.61176 1.89231,-0.79055 3.85797,-1.75937 5.76495,-2.98396 1.95099,-1.24783 3.87997,-2.78244 5.64025,-4.68132 1.8263,-1.98414 3.41056,-4.3248 4.57676,-6.94449 1.19552,-2.69719 1.97298,-5.75865 2.04632,-9.03713 0.0734,-3.23222 -0.55006,-6.28594 -1.59158,-8.98312 -1.07084,-2.79795 -2.6331,-5.30912 -4.49608,-7.40952 -3.94598,-4.44881 -8.94079,-6.86698 -13.42953,-7.9133 -5.20019,-1.21684 -10.07766,-0.76731 -13.82561,0.0698 -1.0415,0.24028 -2.02433,0.50378 -2.94115,0.79056 -3.4619,1.07732 -6.33704,2.52667 -8.35404,3.6505 -3.27854,1.79038 -6.54241,3.96828 -8.76477,5.40213 -2.58176,1.66637 -4.89214,3.10797 -7.20985,4.21629 -1.03421,0.5038 -2.16373,0.95333 -3.33726,1.26335 -0.93882,0.24028 -1.85563,0.40303 -2.75779,0.44953 -1.72361,0.093 -3.17585,-0.23252 -4.15868,-0.8293 -0.57209,-0.32552 -1.15885,-0.79831 -1.69428,-1.41835 -0.53542,-0.6278 -0.99016,-1.35635 -1.29821,-2.1314 -0.70411,-1.72062 -0.92415,-3.80552 -0.6161,-5.78191 0.0807,-1.23233 0.3374,-2.47242 0.74079,-3.70475 0.3154,-0.95332 0.74812,-1.92214 1.29821,-2.89871 1.29088,-2.29416 3.16119,-4.46431 5.35421,-6.33219 3.41057,-3.32498 7.40055,-5.72765 11.44922,-7.28551 4.5034,-1.73612 8.81612,-2.332908 12.60074,-2.363912 4.8408,-0.0308 9.17551,0.844808 12.5714,1.26334 0.0954,0.008 0.19068,0.0236 0.28604,0.0308 5.36888,0.627792 9.48356,-0.697548 13.13616,-2.542176 3.54258,-1.782624 6.7111,-4.193044 8.69142,-4.208544 z"
     style="opacity:0.1;fill:#000000;stroke-width:4"
     id="path396" />
  <path
     d="m 203.64734,87.327628 c -0.27136,-2.208904 1.4229,-5.7044 1.19552,-10.463228 -0.23472,-4.766584 -2.54508,-11.408796 -12.02864,-16.229636 -0.16868,-0.08528 -0.3374,-0.17052 -0.51342,-0.25576 -6.16834,-3.007212 -15.16049,-5.161864 -25.64888,-4.107784 -8.14867,0.821556 -16.61272,3.541996 -24.5927,8.33958 -7.18052,4.301552 -13.79627,10.191964 -19.16516,17.477472 -3.15385,4.580568 -5.9043,9.76568 -7.86996,15.361568 -0.8508,2.418168 -1.55492,4.9216 -2.083,7.47927 -0.68212,3.32499 -1.05618,6.95999 -0.90949,10.79651 0.38872,6.08417 2.10501,12.73414 5.94098,18.71755 1.81163,2.8367 4.06334,5.40989 6.66709,7.55678 2.5891,2.1469 5.55225,3.88303 8.78678,5.02235 5.18552,1.79038 10.28302,1.79038 14.50039,1.11608 2.23703,-0.35652 4.2907,-0.90681 6.10233,-1.5191 2.23704,-0.7518 4.29071,-1.61987 5.91164,-2.35617 3.53525,-1.63537 6.85046,-3.59625 9.49089,-5.17736 2.64044,-1.58111 5.22953,-3.16997 7.71594,-4.45656 1.48157,-0.74405 3.24187,-1.57336 4.98015,-2.20115 0.46208,-0.16272 0.92415,-0.31776 1.38622,-0.44954 1.73096,-0.50378 3.4399,-0.72855 4.95816,-0.56578 1.29821,0.13176 2.39839,0.58128 3.13918,1.13157 0.3154,0.20924 0.58676,0.50379 0.81413,0.81381 0.19804,0.2868 0.33008,0.55804 0.4034,0.7053 0.0807,0.186 0.12472,0.56579 -0.0144,1.11608 -0.13204,0.55804 -0.41807,1.20133 -0.85815,1.84462 -0.45473,0.6588 -1.0855,1.34085 -1.93631,2.04615 -0.83614,0.68205 -1.83364,1.34859 -2.99249,1.99189 -2.54509,1.29434 -5.0755,2.1624 -8.63276,3.56525 -3.22719,1.27109 -7.07782,2.9142 -10.68642,5.51838 -1.89231,1.4106 -3.78462,3.16997 -5.41289,5.30137 -1.62093,2.1314 -3.02917,4.70458 -3.81396,7.71954 -0.70411,3.01496 -0.74079,6.36319 0.20536,9.57967 0.47675,1.63536 1.2102,3.18547 2.14902,4.56507 0.95349,1.3951 2.14902,2.65843 3.56459,3.666 2.51574,1.76712 5.2882,2.41817 7.68659,2.48793 h 0.81414 c 2.03166,-0.0542 3.96798,-0.49604 5.73561,-1.12383 1.8483,-0.59679 3.52058,-1.40285 4.95814,-2.1159 1.46691,-0.7363 2.59643,-1.33309 3.77729,-1.82913 1.07818,-0.50378 2.017,-0.8293 2.86781,-0.96882 0.8068,-0.1318 1.4669,-0.0698 1.94365,0.0698 0.21272,0.062 0.4034,0.16276 0.55742,0.26352 0.14668,0.10076 0.2494,0.19376 0.30072,0.24028 0.0807,0.0388 0.15404,0.10076 0.20536,0.11624 0.0587,0 0.11,0.0308 0.18336,0.0156 0.066,-0.0156 0,0.23252 -0.26404,0.55804 -0.30804,0.37976 -0.75546,0.75955 -1.4449,1.32534 -0.66745,0.53479 -1.57693,1.24009 -2.40573,2.10815 -0.91682,0.95331 -1.81163,2.1624 -2.36172,3.65825 -0.55009,1.51136 -0.63811,3.06147 -0.41074,4.42556 0.26404,1.58886 0.96083,2.89095 1.76763,3.81327 1.08551,1.25559 2.34705,1.79038 3.27854,1.93763 0.22736,0.0308 0.44007,0.0465 0.6381,0.0388 1.65761,-0.062 2.32505,-1.40285 2.61843,-1.79813 -0.41073,-0.41078 -0.8288,-1.46485 -1.15885,-2.36391 -0.0364,-0.10076 -0.0733,-0.19376 -0.10268,-0.29452 -0.13204,-0.39528 -0.2494,-0.8293 -0.22004,-1.21683 0.0144,-0.279 0.0807,-0.57354 0.20536,-0.75956 0.10268,-0.16276 0.2494,-0.31004 0.3814,-0.36428 0.13204,-0.062 0.35208,-0.248 0.74812,-0.50378 0.49142,-0.31004 0.83614,-0.48828 1.70895,-0.98432 0.68211,-0.37976 1.69428,-0.96882 2.66244,-1.76712 0.96816,-0.79831 2.083,-1.96089 2.87514,-3.58075 0.70412,-1.44935 1.04884,-3.05371 1.04884,-4.63483 0.008,-1.5811 -0.33004,-3.11571 -0.91682,-4.48756 -0.6161,-1.37959 -1.46692,-2.55768 -2.43507,-3.5265 -0.97549,-0.97656 -2.08301,-1.75162 -3.24187,-2.33291 -2.32504,-1.15483 -4.77478,-1.48035 -6.9238,-1.39509 -2.22236,0.0852 -4.26136,0.61229 -5.94098,1.17033 -1.6576,0.58904 -3.37388,1.36409 -4.59142,1.88338 -1.4009,0.59679 -2.47907,1.00757 -3.49857,1.25559 -0.96083,0.17824 -1.68695,0.16276 -2.21503,0.0388 -0.066,-0.0156 -0.13204,-0.0308 -0.19804,-0.0542 -0.53542,-0.17824 -0.8288,-0.48828 -0.74813,-0.6433 0.044,-0.062 0.0514,-0.13952 0.066,-0.27128 0.0144,-0.124 0.0296,-0.26352 0.088,-0.38756 0.088,-0.26352 0.23472,-0.7208 0.53542,-1.14708 0.22004,-0.47278 0.58677,-1.00756 1.1882,-1.61211 0.6161,-0.62004 1.42289,-1.24783 2.39105,-1.80587 1.95099,-1.24009 4.27604,-2.1624 7.29054,-3.16222 2.78712,-0.93007 6.60842,-2.0694 10.12166,-3.61176 1.89231,-0.79055 3.85797,-1.75937 5.76495,-2.98396 1.95099,-1.24783 3.87997,-2.78244 5.64025,-4.68132 1.8263,-1.98414 3.41056,-4.3248 4.57676,-6.94449 1.19552,-2.69719 1.97298,-5.75865 2.04632,-9.03713 0.0734,-3.23222 -0.55006,-6.28594 -1.59158,-8.98312 -1.07084,-2.79795 -2.6331,-5.30912 -4.49608,-7.40952 -3.94598,-4.44881 -8.94079,-6.86698 -13.42953,-7.9133 -5.20019,-1.21684 -10.07766,-0.76731 -13.82561,0.0698 -1.0415,0.24028 -2.02433,0.50378 -2.94115,0.79056 -3.4619,1.07732 -6.33704,2.52667 -8.35404,3.6505 -3.27854,1.79038 -6.54241,3.96828 -8.76477,5.40213 -2.58176,1.66637 -4.89214,3.10797 -7.20985,4.21629 -1.03421,0.5038 -2.16373,0.95333 -3.33726,1.26335 -0.93882,0.24028 -1.85563,0.40303 -2.75779,0.44953 -1.72361,0.093 -3.17585,-0.23252 -4.15868,-0.8293 -0.57209,-0.32552 -1.15885,-0.79831 -1.69428,-1.41835 -0.53542,-0.6278 -0.99016,-1.35635 -1.29821,-2.1314 -0.70411,-1.72062 -0.92415,-3.80552 -0.6161,-5.78191 0.0807,-1.23233 0.3374,-2.47242 0.74079,-3.70475 0.3154,-0.95332 0.74812,-1.92214 1.29821,-2.89871 1.29088,-2.29416 3.16119,-4.46431 5.35421,-6.33219 3.41057,-3.324982 7.40055,-5.72765 11.44922,-7.28551 4.5034,-1.73612 8.81612,-2.332908 12.60074,-2.363912 4.8408,-0.0308 9.17551,0.844808 12.5714,1.26334 0.0954,0.008 0.19068,0.0236 0.28604,0.0308 5.36888,0.627792 9.48356,-0.697548 13.13616,-2.542176 3.54258,-1.782624 6.7111,-4.193044 8.69142,-4.208544 z"
     style="fill:#3f3f3f;stroke-width:4"
     id="path318" />
  <rect
     style="fill:#df574d;fill-opacity:1;stroke-width:8.302;stroke-linecap:square"
     id="rect468"
     width="4"
     height="224"
     x="88"
     y="16" />
  <path
     id="rect2154"
     style="fill:#37474f;fill-opacity:1;stroke-width:8;stroke-linecap:square"
     d="M 64,16 C 37.408026,16 16,37.408026 16,64 v 128 c 0,26.59198 21.408026,48 48,48 z" />
  <path
     id="path1040"
     style="opacity:0.1;fill:#ffffff;stroke-width:16;stroke-linecap:square"
     d="M 64,16 C 37.408052,16 16,37.408054 16,64 v 2 C 16,39.408026 37.408026,18 64,18 h 128 c 26.59198,0 48,21.408026 48,48 V 64 C 240,37.408054 218.59194,16 192,16 Z" />
</svg>
