<?xml version="1.0" encoding="UTF-8" standalone="no"?>
<!-- Created with Inkscape (http://www.inkscape.org/) -->

<svg
   width="256"
   height="256"
   viewBox="0 0 256 256"
   version="1.1"
   id="svg5"
   inkscape:version="1.2.2 (1:1.2.2+202305151914+b0a8486541)"
   sodipodi:docname="steamlink.svg"
   xmlns:inkscape="http://www.inkscape.org/namespaces/inkscape"
   xmlns:sodipodi="http://sodipodi.sourceforge.net/DTD/sodipodi-0.dtd"
   xmlns="http://www.w3.org/2000/svg"
   xmlns:svg="http://www.w3.org/2000/svg">
  <sodipodi:namedview
     id="namedview7"
     pagecolor="#ffffff"
     bordercolor="#000000"
     borderopacity="0.25"
     inkscape:showpageshadow="2"
     inkscape:pageopacity="0.0"
     inkscape:pagecheckerboard="0"
     inkscape:deskcolor="#d1d1d1"
     inkscape:document-units="px"
     showgrid="false"
     inkscape:zoom="3.1484375"
     inkscape:cx="127.84119"
     inkscape:cy="128"
     inkscape:window-width="1920"
     inkscape:window-height="1008"
     inkscape:window-x="0"
     inkscape:window-y="0"
     inkscape:window-maximized="1"
     inkscape:current-layer="svg5" />
  <defs
     id="defs2" />
  <rect
     style="opacity:0.2;fill:#000000;stroke-width:16;stroke-linecap:square"
     id="rect234"
     width="224"
     height="224"
     x="16"
     y="18"
     ry="48" />
  <rect
     style="fill:#1955aa;fill-opacity:1;stroke-width:16;stroke-linecap:square"
     id="rect396"
     width="224"
     height="224"
     x="16"
     y="16"
     ry="48" />
  <path
     d="m 128,50 c -44.182776,0 -80,35.817224 -80,80 0,44.18278 35.817224,80 80,80 44.18278,0 80,-35.81722 80,-80 0,-44.182776 -35.81722,-80 -80,-80 z m -0.15624,40 c 16.75393,-5.76e-4 33.49874,0.2032 35.73438,0.60936 5.31969,0.96668 6.89806,2.975592 11.125,14.04687 4.29398,11.24694 7.92447,26.73301 9.03123,38.48437 0.64112,6.80652 0.1224,11.48226 -1.8125,15.98438 -2.91082,6.7727 -10.99721,11.87212 -16.96873,10.70314 -3.07221,-0.60136 -4.97904,-2.98628 -10.01563,-12.53126 -2.56773,-4.8661 -5.21409,-10.48074 -5.98438,-11.29686 H 106.75 c -2.15247,3.55564 -3.83276,7.16362 -5.45313,10.46876 -2.170374,4.16006 -4.515294,8.44724 -5.187494,9.51562 -2.221784,3.53126 -6.92676,4.93774 -11.203128,3.34374 -5.300696,-1.9758 -9.643872,-6.2046 -11.515624,-11.21874 -3.653088,-9.78602 0.13104,-34.12713 8.718752,-56.01563 3.344416,-8.524342 5.16204,-10.635422 9.921872,-11.484374 2.278616,-0.4064 19.058582,-0.6088 35.812502,-0.60936 z M 102,102 c -7.731976,0 -14,6.26802 -14,14 0,7.73198 6.268024,14 14,14 7.73198,0 14,-6.26802 14,-14 0,-7.73198 -6.26802,-14 -14,-14 z m 52,0 c -7.73198,0 -14,6.26802 -14,14 0,7.73198 6.26802,14 14,14 7.73198,0 14,-6.26802 14,-14 0,-7.73198 -6.26802,-14 -14,-14 z"
     style="opacity:0.2;fill:#000000;stroke-width:8"
     id="path508" />
  <path
     d="m 128,48 c -44.182776,0 -80,35.817224 -80,80 0,44.18278 35.817224,80 80,80 44.18278,0 80,-35.81722 80,-80 0,-44.182776 -35.81722,-80 -80,-80 z m -0.15624,40 c 16.75393,-5.76e-4 33.49874,0.2032 35.73438,0.60936 5.31969,0.96668 6.89806,2.975592 11.125,14.04687 4.29398,11.24694 7.92447,26.73301 9.03123,38.48438 0.64112,6.80651 0.1224,11.48225 -1.8125,15.98437 -2.91082,6.7727 -10.99721,11.87212 -16.96873,10.70314 -3.07221,-0.60136 -4.97904,-2.98628 -10.01563,-12.53126 -2.56773,-4.8661 -5.21409,-10.48074 -5.98438,-11.29686 H 106.75 c -2.15247,3.55564 -3.83276,7.16362 -5.45313,10.46876 -2.170374,4.16006 -4.515294,8.44724 -5.187494,9.51562 -2.221784,3.53126 -6.92676,4.93774 -11.203128,3.34374 -5.300696,-1.9758 -9.643872,-6.2046 -11.515624,-11.21874 -3.653088,-9.78602 0.13104,-34.12713 8.718752,-56.01563 3.344416,-8.524342 5.16204,-10.635422 9.921872,-11.484374 2.278616,-0.4064 19.058582,-0.6088 35.812502,-0.60936 z M 102,100 c -7.731976,0 -14,6.26802 -14,14 0,7.73198 6.268024,14 14,14 7.73198,0 14,-6.26802 14,-14 0,-7.73198 -6.26802,-14 -14,-14 z m 52,0 c -7.73198,0 -14,6.26802 -14,14 0,7.73198 6.26802,14 14,14 7.73198,0 14,-6.26802 14,-14 0,-7.73198 -6.26802,-14 -14,-14 z"
     style="fill:#ffffff;stroke-width:8"
     id="path304" />
  <path
     id="path1040"
     style="opacity:0.1;fill:#ffffff;stroke-width:16;stroke-linecap:square"
     d="M 64,16 C 37.408052,16 16,37.408054 16,64 v 2 C 16,39.408028 37.408026,18 64,18 h 128 c 26.59198,0 48,21.408028 48,48 V 64 C 240,37.408054 218.59194,16 192,16 Z" />
</svg>
