<?xml version="1.0" encoding="UTF-8" standalone="no"?>
<!-- Created with Inkscape (http://www.inkscape.org/) -->

<svg
   width="256"
   height="256"
   viewBox="0 0 256 256"
   version="1.1"
   id="svg5"
   inkscape:version="1.3.2 (091e20ef0f, 2023-11-25, custom)"
   sodipodi:docname="sublime-merge.svg"
   xmlns:inkscape="http://www.inkscape.org/namespaces/inkscape"
   xmlns:sodipodi="http://sodipodi.sourceforge.net/DTD/sodipodi-0.dtd"
   xmlns="http://www.w3.org/2000/svg"
   xmlns:svg="http://www.w3.org/2000/svg">
  <sodipodi:namedview
     id="namedview7"
     pagecolor="#ffffff"
     bordercolor="#000000"
     borderopacity="0.25"
     inkscape:showpageshadow="2"
     inkscape:pageopacity="0.0"
     inkscape:pagecheckerboard="0"
     inkscape:deskcolor="#d1d1d1"
     inkscape:document-units="px"
     showgrid="false"
     inkscape:zoom="3.2109375"
     inkscape:cx="128"
     inkscape:cy="128"
     inkscape:window-width="1920"
     inkscape:window-height="1008"
     inkscape:window-x="0"
     inkscape:window-y="0"
     inkscape:window-maximized="1"
     inkscape:current-layer="svg5" />
  <defs
     id="defs2" />
  <rect
     style="opacity:0.2;fill:#000000;stroke-width:16;stroke-linecap:square"
     id="rect234"
     width="224"
     height="224"
     x="16"
     y="18"
     ry="48" />
  <rect
     style="fill:#4d4d4d;fill-opacity:1;stroke-width:16;stroke-linecap:square"
     id="rect396"
     width="224"
     height="224"
     x="16"
     y="16"
     ry="48" />
  <path
     id="path2"
     style="opacity:0.2;fill:#000000;fill-rule:evenodd;stroke-width:8"
     d="m 74.093752,58.016956 c -0.22712,-0.0048 -0.45024,0.0076 -0.67184,0.04688 -0.886416,0.15656 -1.709488,0.657608 -2.265632,1.45312 L 48.640624,91.6732 C 47.52474,93.264248 47.912564,95.463568 49.5,96.579456 L 97.187504,129.62633 129.375,106.93883 c 0.68752,-0.48232 1.50013,-0.68632 2.28125,-0.62504 l 0.016,-0.016 h 11.98437 L 76.062504,58.65758 c -0.59528,-0.418432 -1.287456,-0.626416 -1.968752,-0.640624 z M 207.59376,128.37633 c 0.47704,0.92245 0.52256,2.0036 0.1406,2.95313 0.38608,-0.95156 0.33544,-2.03906 -0.1406,-2.95313 z" />
  <path
     style="fill:#9adede;fill-rule:evenodd;stroke-width:8"
     d="m 73.424296,56.07024 c -0.886416,0.15656 -1.709376,0.655304 -2.26552,1.45082 L 48.63756,89.673504 c -1.115888,1.591048 -0.728104,3.783432 0.859332,4.89932 l 52.151458,36.147776 27.72187,-19.26245 c 0.68752,-0.48232 1.49555,-0.68616 2.27667,-0.62496 l 0.0224,-0.0224 h 53.20051 c 0.95392,0 1.8217,0.38528 2.45524,1.00442 0.076,0.072 0.80184,0.76016 1.86376,1.90838 v -0.0336 l 17.39872,17.17569 0.37952,-0.36832 c 1.37148,-1.37506 1.3841,-3.61874 0,-4.97744 l -16.9409,-16.62911 c -1.47224,-1.59464 -2.54022,-2.55893 -2.6338,-2.65613 -0.64072,-0.65152 -1.5359,-1.04906 -2.5222,-1.04906 H 144.91635 L 76.058112,56.650588 C 75.2644,56.092672 74.31072,55.913676 73.42432,56.070256 Z"
     id="path3" />
  <path
     id="path4"
     style="opacity:0.2;fill:#000000;fill-rule:evenodd;stroke-width:8"
     d="m 131.67187,106.29929 -0.016,0.016 c -0.78112,-0.0616 -1.59373,0.14272 -2.28125,0.62504 L 49.5,163.25242 c -1.58744,1.11588 -1.97526,3.50271 -0.859376,5.09375 l 22.515624,32.15625 c 1.112288,1.58744 3.303192,1.97526 4.890624,0.85938 L 144.89062,153.76804 H 184.875 c 0.9863,0 1.8749,-0.40736 2.51562,-1.0625 0.0936,-0.0972 1.22858,-1.11584 2.76562,-2.79688 l 16.81252,-17.40624 c 1.37144,-1.37506 1.34962,-3.59144 0,-4.98438 L 189.1875,109.17429 v 0.0312 c -1.06188,-1.14829 -1.78338,-1.83426 -1.85938,-1.90626 -0.63352,-0.61912 -1.49922,-1 -2.45312,-1 z" />
  <path
     style="fill:#00c8c6;fill-rule:evenodd;stroke-width:8"
     d="m 131.64984,104.32123 0.0144,-0.0224 h 53.2062 c 0.9539,0 1.82142,0.3816 2.45496,1.00071 0.076,0.072 0.79912,0.75952 1.861,1.9078 v -0.0328 l 17.7786,18.34909 c 1.34964,1.39294 1.37146,3.59963 0,4.97469 l -16.8103,17.41336 c -1.53704,1.68103 -2.67452,2.69973 -2.76812,2.79692 -0.64072,0.65512 -1.52984,1.06189 -2.51614,1.06189 h -39.97765 l -68.839422,47.59335 c -1.587432,1.1159 -3.783208,0.72712 -4.895504,-0.8603 L 48.63866,166.3411 c -1.115884,-1.59104 -0.727128,-3.97836 0.860312,-5.09424 l 79.875888,-56.30288 c 0.68752,-0.48232 1.49386,-0.684 2.27498,-0.62272 z"
     id="path5" />
  <path
     id="path1040"
     style="opacity:0.1;fill:#ffffff;stroke-width:16;stroke-linecap:square"
     d="M 64,16 C 37.40808,16 16,37.40808 16,64 v 2 C 16,39.408084 37.40808,18 64,18 h 128 c 26.59192,0 48,21.408084 48,48 V 64 C 240,37.40808 218.59192,16 192,16 Z" />
</svg>
