<?xml version="1.0" encoding="UTF-8" standalone="no"?>
<!-- Created with Inkscape (http://www.inkscape.org/) -->

<svg
   width="256"
   height="256"
   viewBox="0 0 256 256"
   version="1.1"
   id="svg5"
   inkscape:version="1.3.2 (091e20ef0f, 2023-11-25, custom)"
   sodipodi:docname="sublime-text.svg"
   xmlns:inkscape="http://www.inkscape.org/namespaces/inkscape"
   xmlns:sodipodi="http://sodipodi.sourceforge.net/DTD/sodipodi-0.dtd"
   xmlns="http://www.w3.org/2000/svg"
   xmlns:svg="http://www.w3.org/2000/svg">
  <sodipodi:namedview
     id="namedview7"
     pagecolor="#ffffff"
     bordercolor="#000000"
     borderopacity="0.25"
     inkscape:showpageshadow="2"
     inkscape:pageopacity="0.0"
     inkscape:pagecheckerboard="0"
     inkscape:deskcolor="#d1d1d1"
     inkscape:document-units="px"
     showgrid="false"
     inkscape:zoom="3.2109375"
     inkscape:cx="128"
     inkscape:cy="128"
     inkscape:window-width="1920"
     inkscape:window-height="1008"
     inkscape:window-x="0"
     inkscape:window-y="0"
     inkscape:window-maximized="1"
     inkscape:current-layer="svg5" />
  <defs
     id="defs2" />
  <rect
     style="opacity:0.2;fill:#000000;stroke-width:16;stroke-linecap:square"
     id="rect234"
     width="224"
     height="224"
     x="16"
     y="18"
     ry="48" />
  <rect
     style="fill:#4d4d4d;fill-opacity:1;stroke-width:16;stroke-linecap:square"
     id="rect396"
     width="224"
     height="224"
     x="16"
     y="16"
     ry="48" />
  <path
     d="M 192,42 64,82 v 48 L 122.18752,151.8125 64,170 v 48 L 192,178 V 130 L 133.81248,108.1875 192,90 Z"
     style="opacity:0.2;fill:#000000;stroke-width:8"
     id="path2550"
     sodipodi:nodetypes="ccccccccccc" />
  <path
     d="M 192,128 64,168 v 48 l 128,-40 z"
     style="fill:#ffab36;stroke-width:8"
     id="path2453" />
  <path
     id="path2481"
     style="opacity:0.2;fill:#000000;stroke-width:8"
     d="m 189.08594,128.90625 -18.47656,5.78125 -51.32032,16.04688 69.79688,26.17187 L 192,176 v -46 l -2.89844,-1.09375 z" />
  <path
     d="m 64,80 128,48 v 48 L 64,128 Z"
     style="fill:#ffab36;stroke-width:8"
     id="path2425"
     sodipodi:nodetypes="ccccc" />
  <path
     d="M 192,40 64,80 v 48 L 192,88 Z"
     style="fill:#ffab36;stroke-width:8"
     id="path2369"
     sodipodi:nodetypes="ccccc" />
  <path
     id="path1040"
     style="opacity:0.1;fill:#ffffff;stroke-width:16;stroke-linecap:square"
     d="M 64,16 C 37.40808,16 16,37.40808 16,64 v 2 C 16,39.408084 37.40808,18 64,18 h 128 c 26.59192,0 48,21.408084 48,48 V 64 C 240,37.40808 218.59192,16 192,16 Z" />
</svg>
