<?xml version="1.0" encoding="UTF-8" standalone="no"?>
<!-- Created with Inkscape (http://www.inkscape.org/) -->

<svg
   width="256"
   height="256"
   viewBox="0 0 256 256"
   version="1.1"
   id="svg5"
   inkscape:version="1.2.2 (1:1.2.2+202305151914+b0a8486541)"
   sodipodi:docname="system-file-manager.svg"
   xmlns:inkscape="http://www.inkscape.org/namespaces/inkscape"
   xmlns:sodipodi="http://sodipodi.sourceforge.net/DTD/sodipodi-0.dtd"
   xmlns="http://www.w3.org/2000/svg"
   xmlns:svg="http://www.w3.org/2000/svg">
  <sodipodi:namedview
     id="namedview7"
     pagecolor="#ffffff"
     bordercolor="#000000"
     borderopacity="0.25"
     inkscape:showpageshadow="2"
     inkscape:pageopacity="0.0"
     inkscape:pagecheckerboard="0"
     inkscape:deskcolor="#d1d1d1"
     inkscape:document-units="px"
     showgrid="false"
     inkscape:zoom="3.2421875"
     inkscape:cx="128"
     inkscape:cy="128"
     inkscape:window-width="1920"
     inkscape:window-height="1008"
     inkscape:window-x="0"
     inkscape:window-y="0"
     inkscape:window-maximized="1"
     inkscape:current-layer="svg5" />
  <defs
     id="defs2" />
  <rect
     style="opacity:0.2;fill:#000000;stroke-width:16;stroke-linecap:square"
     id="rect234"
     width="224"
     height="224"
     x="16"
     y="18"
     ry="48" />
  <rect
     style="fill:#f5f5f5;fill-opacity:1;stroke-width:16;stroke-linecap:square"
     id="rect396"
     width="224"
     height="224"
     x="16"
     y="16"
     ry="48" />
  <path
     d="m 56,62 c -4.41824,0 -8,3.58176 -8,8 v 120 c 0,4.41824 3.58176,8 8,8 h 144 c 4.41824,0 8,-3.58176 8,-8 V 86 c 0,-4.41824 -3.58176,-8 -8,-8 H 128 C 116,78 112,62 100,62 Z"
     style="opacity:0.2;fill:#000000;fill-opacity:1;stroke-width:7.89116"
     id="path3821"
     sodipodi:nodetypes="sssssssssss" />
  <path
     d="m 56,60 c -4.41824,0 -8,3.58176 -8,8 v 96 c 0,4.41824 3.58176,8 8,8 h 144 c 4.41824,0 8,-3.58176 8,-8 V 84 c 0,-4.41824 -3.58176,-8 -8,-8 H 128 C 116,76 112,60 100,60 Z"
     style="fill:#0277bd;fill-opacity:1;stroke-width:7.89116"
     id="path3588"
     sodipodi:nodetypes="sssssssssss" />
  <path
     id="path3849"
     style="opacity:0.1;fill:#ffffff;fill-opacity:1;stroke-width:7.89116"
     d="m 56,60 c -4.418236,0 -8,3.581764 -8,8 v 2 c 0,-4.418236 3.581764,-8 8,-8 h 44 c 11.99999,0 16.00001,16 28,16 h 72 c 4.41824,0 8,3.581764 8,8 v -2 c 0,-4.418236 -3.58176,-8 -8,-8 H 128 C 116.00001,76 111.99999,60 100,60 Z" />
  <rect
     style="opacity:0.2;fill:#000000;fill-opacity:1;stroke-width:16;stroke-linecap:square"
     id="rect3608"
     width="160"
     height="96"
     x="48"
     y="98"
     ry="8" />
  <rect
     style="fill:#29b6f6;fill-opacity:1;stroke-width:8;stroke-linecap:square"
     id="rect3610"
     width="160"
     height="96"
     x="48"
     y="100"
     ry="8" />
  <path
     id="path1040"
     style="opacity:0.2;fill:#ffffff;stroke-width:16;stroke-linecap:square"
     d="M 64,16 C 37.40808,16 16,37.40808 16,64 v 2 C 16,39.408026 37.408026,18 64,18 h 128 c 26.59198,0 48,21.408026 48,48 V 64 C 240,37.40808 218.59192,16 192,16 Z" />
</svg>
