<?xml version="1.0" encoding="UTF-8" standalone="no"?>
<!-- Created with Inkscape (http://www.inkscape.org/) -->

<svg
   width="256"
   height="256"
   viewBox="0 0 256 256"
   version="1.1"
   id="svg5"
   inkscape:version="1.2.2 (1:1.2.2+202305151914+b0a8486541)"
   sodipodi:docname="thunderbird.svg"
   xmlns:inkscape="http://www.inkscape.org/namespaces/inkscape"
   xmlns:sodipodi="http://sodipodi.sourceforge.net/DTD/sodipodi-0.dtd"
   xmlns="http://www.w3.org/2000/svg"
   xmlns:svg="http://www.w3.org/2000/svg">
  <sodipodi:namedview
     id="namedview7"
     pagecolor="#ffffff"
     bordercolor="#000000"
     borderopacity="0.25"
     inkscape:showpageshadow="2"
     inkscape:pageopacity="0.0"
     inkscape:pagecheckerboard="0"
     inkscape:deskcolor="#d1d1d1"
     inkscape:document-units="px"
     showgrid="false"
     inkscape:zoom="3.1484375"
     inkscape:cx="128"
     inkscape:cy="128"
     inkscape:window-width="1920"
     inkscape:window-height="1008"
     inkscape:window-x="0"
     inkscape:window-y="0"
     inkscape:window-maximized="1"
     inkscape:current-layer="svg5" />
  <defs
     id="defs2" />
  <rect
     style="opacity:0.2;fill:#000000;stroke-width:16;stroke-linecap:square"
     id="rect234"
     width="224"
     height="224"
     x="16"
     y="18"
     ry="48" />
  <rect
     style="fill:#0a4f8d;fill-opacity:1;stroke-width:16;stroke-linecap:square"
     id="rect396"
     width="224"
     height="224"
     x="16"
     y="16"
     ry="48" />
  <path
     style="opacity:0.2;fill:#000000;stroke-width:4"
     d="m 113.71977,75.720016 c 4.4,-16.32 24.88,-25.72 46.28,-25.72 15.48,0 30.47999,3.88 39.99999,12 -5.68,0.28 -13,3.76 -15.99999,8 8.55999,0.96 15.11999,2.32 19.99999,8 -3.68,-0.68 -8.6,-0.88 -12,0 2.4,3.6 6.2,7.68 8,12 5.2,12.360004 8.04,27.480004 8,40.000004 0,46.15999 -34.27999,79.99998 -79.99999,79.99998 -45.719998,0 -79.999998,-34.27998 -79.999998,-79.99998 0,-7.2 1.16,-17.44 3.28,-24.56 0.48,-1.48 1.12,-2.8 1.96,-3.32 0.16,-0.08 0.32,-0.12 0.48,-0.12 0.88,0 1.56,1.48 1.72,2.04 1.16,4.56 2.6,9.68 4.56,13.96 0,-9.48 3.32,-19.560004 8.68,-27.080004 3.6,-5 10.32,-9.12 11.88,-22.52 0,0 0.12,-1.24 1.72,-1.24 9.72,2.84 9.72,25.68 9.72,42.840004 6.44,0.96 8.919998,-11.280004 8.919998,-11.280004 -0.84,-2.36 -0.919998,-3.44 -0.919998,-4.72 0,-5.72 3.799998,-13.96 13.719998,-18.28 z"
     id="path4690" />
  <path
     style="fill:#248afd;stroke-width:4"
     d="m 113.71977,73.720016 c 4.4,-16.32 24.88,-25.72 46.28,-25.72 15.48,0 30.47999,3.88 39.99999,12 -5.68,0.28 -13,3.76 -15.99999,8 8.55999,0.96 15.11999,2.32 19.99999,8 -3.68,-0.68 -8.6,-0.88 -12,0 2.4,3.6 6.2,7.68 8,12 5.2,12.360004 8.04,27.480004 8,40.000004 0,46.16 -34.27999,79.99998 -79.99999,79.99998 -45.719998,0 -79.999998,-34.27998 -79.999998,-79.99998 0,-7.2 1.16,-17.44 3.28,-24.56 0.48,-1.48 1.12,-2.8 1.96,-3.32 0.16,-0.08 0.32,-0.12 0.48,-0.12 0.88,0 1.56,1.48 1.72,2.04 1.16,4.56 2.6,9.68 4.56,13.96 0,-9.48 3.32,-19.560004 8.68,-27.080004 3.6,-5 10.32,-9.12 11.88,-22.52 0,0 0.12,-1.24 1.72,-1.24 9.72,2.84 9.72,25.68 9.72,42.840004 6.44,0.96 8.919998,-11.280004 8.919998,-11.280004 -0.84,-2.36 -0.919998,-3.44 -0.919998,-4.72 0,-5.72 3.799998,-13.96 13.719998,-18.28 z"
     id="path4692" />
  <path
     style="fill:#0271ef;stroke-width:4"
     d="m 203.99976,100.00002 c 0.32,0.96 1.16,4.72 1.16,8 0,44 -34.59999,83.99998 -77.15999,83.99998 -16.64,0 -29.559998,-5.08 -42.839998,-15.43999 -20.56,-15.95999 -34.32,-34.83999 -34.32,-59.99999 0,-5.72 1.32,-12.76 2.04,-15.6 0.2,-0.8 0.48,-0.96 0.84,-0.96 -0.12,0 -0.36,0.04 -0.48,0.12 -0.88,0.6 -1.4,1.8 -1.96,3.32 -0.92,2.32 -2.16,9.4 -2.28,10.28 -0.4,2.92 -1,9.44 -1,14.28 0,45.72 34.28,79.99998 79.999998,79.99998 45.72,0 79.99999,-33.83998 79.99999,-79.99998 0,-11.44 -1.72,-20.8 -4,-28 z"
     id="path4694" />
  <path
     style="fill:#0259bb;stroke-width:4"
     d="m 52.879772,100.96002 c -1.2,5.04 -2.04,9.96 -2.04,15.6 0,17.88 6.88,35.24 24.32,51.44 -4.64,-5.72 -11.16,-15.68 -11.16,-28 0,-16 4,-22.76 8.52,-27.4 0.4,-0.44 0.88,-0.6 1.6,-0.6 0.88,0 1.84,0.92 1.88,2.12 1.48,41.56 35.999998,61.87999 75.999998,61.87999 -27.52,0 -50.76,-15.75999 -22.56,-21.23999 14.76,-2.88 38.56,-9.6 38.56,-26.76 0,-42.880004 -24,-48.000004 -40,-48.000004 -12,0 -24.68,7.84 -27.08,16.72 1.16,3.840004 -5.879998,11.720004 -8.919998,11.280004 0,-17.160004 0,-40.000004 -9.72,-44.000004 -1.56,0 -1.72,1.28 -1.72,1.28 -1.56,13.4 -8.28,18.64 -11.88,23.64 -5.36,7.52 -8.68,16.600004 -8.68,27.080004 -1.96,-4.28 -3.4,-9.4 -4.56,-13.96 -0.16,-0.52 -0.84,-2.04 -1.72,-2.04 -0.48,0 -0.72,0.44 -0.84,0.96 z"
     id="path4696" />
  <path
     style="fill:#d6d6d6;stroke-width:4"
     d="m 127.99977,160.00002 c 20,0 40,-14.856 40,-32 0,-8 -0.88,-13.764 -4,-20 -8,-16.000004 -24,-20.000004 -36,-20.000004 -12,0 -27.999998,4 -35.999998,20.000004 -3.012,6.024 -4,12 -4,20 0.008,33.108 29.715998,47.99999 63.999998,47.99999 -4,0 -20,0 -26.556,-9.13999 -0.816,-0.964 -1.444,-1.812 -1.444,-2.86 0,-1.988 1.908,-4 4,-4 z"
     id="path4698" />
  <path
     id="path4700"
     style="opacity:0.2;fill:#000000;stroke-width:4"
     d="m 92.000012,110.00002 c -0.1688,0.3 -0.43304,0.86148 -0.67968,1.40624 l 0.67968,0.59376 30.281238,25.15624 c 1.76,1.72 3.59876,2.84376 5.71876,2.84376 2.2,0 3.87876,-1.04376 5.71876,-2.84376 l 30.28124,-25.15624 0.69532,-0.56252 c -0.274,-0.6176 -0.55032,-1.20964 -0.69532,-1.43748 z" />
  <path
     style="fill:#e4e4e4;stroke-width:4"
     d="m 133.71977,133.16002 c -1.84,1.8 -3.52,2.84 -5.72,2.84 -2.12,0 -4,-1.12 -5.72,-2.84 l -30.279998,-25.16 c 8,-16.000004 23.999998,-20.000004 35.999998,-20.000004 12,0 28,4 36,20.000004 z"
     id="path4702" />
  <path
     id="path4704"
     style="opacity:0.2;fill:#000000;stroke-width:4"
     d="m 128.00001,88.000016 c -12,0 -21.52636,3.68992 -27.56636,9.20992 0.08,0.28 0.2604,0.94436 0.44532,1.60936 6.0772,-5.3174 15.40552,-8.81928 27.12104,-8.81928 12,0 28,4 36,20.000004 1.89816,3.76924 2.9572,7.45684 3.5,11.57812 0.2472,1.34264 0.3984,2.70936 0.46092,4.21876 -0.16,-6.88 -1.16092,-12.23688 -3.96092,-17.79688 -8,-16.000004 -24,-20.000004 -36,-20.000004 z M 64.000012,140.00002 c 0,1.24 0.0832,2.44064 0.2032,3.64064 z m 0.2032,3.64064 0.04,0.3592 c 0.0868,1.37592 0.1712,2.68592 0.2812,3.96876 0.9834,5.9322 3.23396,10.98172 5.93748,15.375 1.42608,1.50516 3.06812,3.15748 4.69532,4.65624 -4.96,-6.24 -9.87312,-14.0394 -10.95312,-24.35936 z m 60.554678,22.35936 c -0.2556,0.2044 -0.59156,0.74596 -0.2492,1.50164 0.5002,0.82752 1.53588,1.82892 1.88996,2.49836 1.5304,1.7168 3.40144,3.06536 5.42968,4.125 4.19988,0.84064 10.17828,1.72751 18.17188,1.87499 -5.52,-0.12 -17.36156,-0.99999 -23.60156,-7.99999 -0.44,-0.44 -1.04064,-1.2 -1.64064,-2 z"
     sodipodi:nodetypes="sccsccccscccccccccccccccccc" />
  <path
     style="fill:#e4e4e4;stroke-width:4"
     d="m 135.71977,75.640016 c 4.68,-1.44 4.28,-6 4.28,-6 0,0 -2.36,-2.68 -7,-1.2 -4.32,1.4 -5,4.44 -5,4.44 0,0 2.36,4.4 7.72,2.76 z"
     id="path4706" />
  <path
     id="path4708"
     style="opacity:0.2;fill:#ffffff;stroke-width:4"
     d="m 160.00001,48.000016 c -21.39992,0 -41.88124,9.39876 -46.28124,25.71876 -8.16,3.52 -13.71876,10.88124 -13.71876,18.28124 0,-0.7148 0.1576,-1.49792 0.3984,-2.30468 1.1476,-5.29004 5.12156,-11.52332 13.32032,-15.09376 4.4,-16.32 24.88132,-25.71876 46.28124,-25.71876 14.96908,0 29.47311,3.63704 39.02343,11.21876 0.3284,-0.032 0.6816,-0.0932 0.97656,-0.1016 -9.52,-8.12 -24.51999,-12 -39.99999,-12 z m -77.718758,16 c -1.6,0 -1.71872,1.28124 -1.71872,1.28124 -1.56,13.4 -8.28284,18.64064 -11.88284,23.64064 -5.36,7.52 -8.67968,16.718124 -8.67968,27.078124 -1.96,-4.56 -3.40256,-9.401 -4.56248,-13.96092 -0.16,-0.56 -0.83876,-2.03908 -1.71876,-2.03908 -1.2,0 -2.11752,2.43756 -2.43752,3.43748 -2.2,7.12 -3.28124,16.56252 -3.28124,24.56252 0,-0.448 0.0656,-1.1756 0.0936,-1.75 0.2284,-6.92956 1.305,-15.60736 3.18748,-21.92968 0.48,-1.48 1.12096,-2.80032 1.96096,-3.32032 0.16,-0.08 0.3164,-0.1172 0.47656,-0.1172 0.88,0 1.55876,1.47908 1.71876,2.03908 1.15992,4.56 2.60248,9.68092 4.56248,13.96092 0,-9.47992 3.31968,-19.565924 8.67968,-27.085924 3.6,-5 10.32284,-9.11564 11.88284,-22.51564 0,0 0.1188,-1.24216 1.71872,-1.24216 8.505,2.485 9.57024,20.28108 9.70312,36.187484 -0.1124,-15.468004 -1.093,-34.683324 -9.70312,-38.226564 z m 102.390628,4.08592 c -0.226,0.2648 -0.47976,0.52536 -0.67188,0.79688 7.96844,0.89368 14.185,2.18064 18.94532,6.92968 0.3644,0.0712 0.65372,0.1072 1.05468,0.1876 -4.78736,-5.5658 -11.1056,-6.9582 -19.32812,-7.91408 z m 7.875,8.67972 c -0.1808,0.04 -0.3736,0.0724 -0.54688,0.1172 2.4,3.6 6.2,7.68 8,12 4.68716,11.141044 7.43484,24.502684 7.90624,36.203124 0.058,0.99136 0.0936,1.9676 0.0936,2.91408 0.04,-12.68 -2.64,-27.52 -8,-40.000004 -1.67648,-3.87452 -5.08132,-7.83032 -7.45312,-11.23436 z m -92.54687,20.7578 c -2.919998,2.480004 -6.079998,6.476564 -7.999998,10.476564 4e-5,0.2876 0,0.59832 0,0.8828 0.85028,0.1268 1.62812,0.008 2.34376,-0.2656 1.91156,-2.66144 3.85968,-5.13844 5.18748,-6.57032 0.174,-0.43808 0.33,-0.83596 0.468758,-1.2422 z M 74.117212,112.00002 c -0.72,0 -1.19376,0.1616 -1.59376,0.60156 -4.51996,4.64 -8.52344,11.39844 -8.52344,27.39844 0,0.3268 0.024,0.64516 0.032,0.96876 0.1788,-15.21676 4.07668,-21.83444 8.4922,-26.3672 0.4,-0.43996 0.87376,-0.60156 1.59376,-0.60156 0.88,0 1.8428,0.91724 1.8828,2.1172 1.47996,41.55988 39.659998,59.90643 59.226558,59.88279 6.09524,0.008 14.77344,0 14.77344,0 -4.46872,0 -8.2524,-0.37159 -11.69532,-0.82031 -6.25212,-0.81468 -10.77732,-1.9636 -13.19532,-2.57032 -27.481158,-7.33924 -47.976758,-26.68668 -49.109358,-58.49216 -0.04,-1.19996 -1.0028,-2.1172 -1.8828,-2.1172 z m 93.851558,16.98436 c -0.74624,16.72396 -20.35292,31.01564 -39.96876,31.01564 -2.092,0 -4,2.012 -4,4 0,0.3344 0.0816,0.64156 0.1952,0.94532 0.51656,-1.58424 2.08832,-2.94532 3.80468,-2.94532 19.99996,0 40,-14.85604 40,-32 0,-0.3612 -0.028,-0.6634 -0.032,-1.01564 z" />
  <path
     id="path1040"
     style="opacity:0.1;fill:#ffffff;stroke-width:16;stroke-linecap:square"
     d="M 64,16 C 37.408052,16 16,37.408054 16,64 v 2 C 16,39.408026 37.408026,18 64,18 h 128 c 26.59198,0 48,21.408026 48,48 V 64 C 240,37.408054 218.59194,16 192,16 Z" />
</svg>
