<?xml version="1.0" encoding="UTF-8" standalone="no"?>
<!-- Created with Inkscape (http://www.inkscape.org/) -->

<svg
   width="256"
   height="256"
   viewBox="0 0 256 256"
   version="1.1"
   id="svg5"
   inkscape:version="1.3 (0e150ed6c4, 2023-07-21)"
   sodipodi:docname="tuxpaint.svg"
   xmlns:inkscape="http://www.inkscape.org/namespaces/inkscape"
   xmlns:sodipodi="http://sodipodi.sourceforge.net/DTD/sodipodi-0.dtd"
   xmlns:xlink="http://www.w3.org/1999/xlink"
   xmlns="http://www.w3.org/2000/svg"
   xmlns:svg="http://www.w3.org/2000/svg">
  <sodipodi:namedview
     id="namedview7"
     pagecolor="#ffffff"
     bordercolor="#000000"
     borderopacity="0.25"
     inkscape:showpageshadow="2"
     inkscape:pageopacity="0.0"
     inkscape:pagecheckerboard="0"
     inkscape:deskcolor="#d1d1d1"
     inkscape:document-units="px"
     showgrid="false"
     inkscape:zoom="3.125"
     inkscape:cx="127.84"
     inkscape:cy="128"
     inkscape:window-width="1920"
     inkscape:window-height="1004"
     inkscape:window-x="0"
     inkscape:window-y="0"
     inkscape:window-maximized="1"
     inkscape:current-layer="svg5" />
  <defs
     id="defs2">
    <linearGradient
       xlink:href="#linearGradient1261"
       id="linearGradient1263"
       x1="34.241001"
       x2="37.168999"
       y1="38.945"
       y2="30.341999"
       gradientTransform="matrix(5.5676164,0,0,5.5555096,-9.2820236,-1.9461172)"
       gradientUnits="userSpaceOnUse" />
    <linearGradient
       id="linearGradient1261">
      <stop
         style="stop-color:#4f4f4f"
         offset="0"
         id="stop1" />
      <stop
         style="stop-color:#3f3f3f"
         offset="1"
         id="stop2" />
    </linearGradient>
  </defs>
  <rect
     style="opacity:0.2;fill:#000000;stroke-width:15.9999;stroke-linecap:square"
     id="rect234"
     width="223.99814"
     height="223.99814"
     x="16.001856"
     y="18"
     ry="47.999603" />
  <rect
     style="fill:#4cb6ff;fill-opacity:1;stroke-width:15.9999;stroke-linecap:square"
     id="rect396"
     width="223.99814"
     height="223.99814"
     x="16.001856"
     y="16"
     ry="47.999603" />
  <path
     id="path4"
     style="opacity:0.1;fill:#000000;stroke-width:7.99992"
     d="m 154.76633,42.031048 c -3.95253,-0.20456 -8.4548,0.418932 -13.54676,2.249984 -27.15719,9.765592 -28.44696,45.57514 -29.09351,47.202736 -3.8796,0.976568 -7.27714,2.115844 -10.67179,3.906212 -4.687846,3.255208 -6.845182,5.19133 -10.015538,10.57804 -2.748108,4.39451 -2.906232,14.81238 -2.906232,14.81238 0,0 -9.86372,-8.05338 -14.874868,-12.04678 -6.789304,-6.02211 -12.145396,-13.176568 -12.937396,-16.921736 0,0 -2.267144,-19.373544 -9.703044,-18.234216 -4.526196,-0.32552 -2.578104,9.76554 -2.578104,9.76554 0,0 -1.612064,-5.205668 -8.07806,-7.484312 C 33.895032,73.58026 25.153012,72.270364 20.626818,74.874528 10.281224,80.408356 8.670126,87.254632 7.3769268,87.905668 -4.1002164,105.80926 0.58743851,112.96275 3.1738368,114.26482 c 2.586398,1.30209 8.7260082,1.30209 11.3124062,0 l 25.265417,16.703 c 20.418636,14.06656 38.749672,34.07783 38.749672,34.07783 l -4.218708,6.15621 c -4.02018,5.86694 -10.411188,14.24454 -11.843652,24.45292 -2.424072,17.2751 -0.440564,23.23422 1.28124,28.9685 2.481096,8.26306 10.265536,17.37486 10.265536,17.37486 H 192.0004 c 3.94126,0 7.76109,-0.47168 11.42178,-1.35936 0.20096,-2.23444 2.16122,-23.96046 2.46872,-26.43728 2.5864,-2.27864 17.44932,-16.28106 16.15612,-29.95288 2.9097,-12.04422 -31.99974,-44.9215 -31.99974,-44.9215 0,0 -4.05277,-3.0911 -3.40622,-8.62493 1.29319,-6.02212 5.67241,-45.085438 -7.90618,-71.452534 0,0 -6.84093,-16.332168 -23.96855,-17.218608 z" />
  <path
     id="path5"
     style="fill:#3f3f3f;stroke-width:7.99992"
     d="m 154.76633,40.031052 c -3.95253,-0.20456 -8.4548,0.418932 -13.54676,2.24998 -27.15719,9.765592 -28.44696,45.57514 -29.09351,47.202736 -3.8796,0.976568 -7.27714,2.115844 -10.67179,3.906216 -4.687846,3.255204 -6.845182,5.191324 -10.015538,10.578036 -2.748108,4.39451 -2.906232,14.81238 -2.906232,14.81238 0,0 -9.86372,-8.05338 -14.874868,-12.04678 -6.789304,-6.0221 -12.145396,-13.176568 -12.937396,-16.921736 0,0 -2.267144,-19.373544 -9.703044,-18.234216 -4.526196,-0.32552 -2.578104,9.765544 -2.578104,9.765544 0,0 -1.612064,-5.20568 -8.07806,-7.484316 C 33.895032,71.58026 25.153012,70.270368 20.626818,72.874528 10.281224,78.408364 8.670126,85.254636 7.3769268,85.905668 -4.1002164,103.80926 0.58743851,110.96275 3.1738368,112.26483 c 2.586398,1.30208 8.7260082,1.30208 11.3124062,0 l 25.265417,16.70299 c 20.418636,14.06656 38.749672,34.07784 38.749672,34.07784 l -4.218708,6.1562 c -4.02018,5.86694 -10.411188,14.24454 -11.843652,24.45292 -2.424072,17.2751 -0.440564,23.23422 1.28124,28.9685 2.481096,8.26306 10.265536,17.37486 10.265536,17.37486 H 192.0004 c 3.94126,0 7.76109,-0.47168 11.42178,-1.35936 0.20096,-2.23444 2.16122,-23.96046 2.46872,-26.43728 2.5864,-2.27864 17.44932,-16.28105 16.15612,-29.95288 2.9097,-12.04422 -31.99974,-44.9215 -31.99974,-44.9215 0,0 -4.05277,-3.0911 -3.40622,-8.62492 1.29319,-6.02213 5.67241,-45.085448 -7.90618,-71.45254 0,0 -6.84093,-16.332172 -23.96855,-17.218608 z" />
  <path
     style="opacity:0.2;fill:#000000;stroke-width:7.99992"
     d="m 131.73243,65.575428 c 3.86432,-0.651032 7.43545,0.930136 8.88457,3.37154 1.44912,2.441396 1.01488,1.42122 1.89189,6.033928 -0.0712,2.420604 -0.0384,4.478776 0.0232,5.057092 0.94326,0.896864 4.65796,-15.601876 16.0899,-14.299792 4.95569,0.38136 9.87232,2.525172 9.33877,12.206996 -2.73722,44.107948 -26.05877,24.265558 -27.69744,23.271688 -2.54249,-1.07235 -1.2357,-3.107568 -2.81879,-3.831092 -1.53021,-0.0576 -1.57505,1.57526 -3.59455,1.32824 -1.05493,-0.0144 -5.82049,-0.912128 -6.62554,-1.237648 -0.80508,-0.3256 -7.24561,-0.813792 -7.08459,-7.324204 -0.96609,-6.184876 3.13119,-21.086056 11.59294,-24.576748 z"
     id="path6" />
  <path
     style="fill:#ffffff;stroke-width:7.99992"
     d="m 131.73243,63.575432 c 3.86432,-0.651044 7.43545,0.930128 8.88457,3.371532 1.44912,2.4414 1.01488,1.421228 1.89189,6.033924 -0.0712,2.420604 -0.0384,4.478788 0.0232,5.057104 0.94326,0.896864 4.65796,-15.601884 16.0899,-14.2998 4.95569,0.3814 9.87232,2.525176 9.33877,12.207 -2.73722,44.107958 -26.05877,24.265558 -27.69744,23.271688 -2.54249,-1.072352 -1.2357,-3.107568 -2.81879,-3.831088 -1.53021,-0.0576 -1.57505,1.575256 -3.59455,1.328236 -1.05493,-0.0144 -5.82049,-0.912128 -6.62554,-1.237648 -0.80508,-0.3256 -7.24561,-0.813792 -7.08459,-7.3242 -0.96609,-6.18488 3.13119,-21.08606 11.59294,-24.576748 z"
     id="path7" />
  <path
     style="fill:#3f3f3f;stroke-width:7.99992"
     d="m 125.44964,82.31638 c -0.52552,3.022556 0.78728,5.897948 2.93241,6.422336 2.14516,0.524396 4.31024,-1.500768 4.83585,-4.523336 0.52568,-3.022568 -0.78727,-5.897936 -2.93241,-6.42234 -2.14516,-0.524396 -4.31023,1.500772 -4.83585,4.52334 z"
     id="path8" />
  <path
     style="opacity:0.2;fill:#000000;stroke-width:7.99992"
     d="m 118.75178,98.019576 c 3.28754,-0.1624 17.63316,3.410654 24.20822,8.445394 6.57507,5.03475 9.56374,12.83051 8.96601,19.00214 -0.53607,5.38935 -2.56633,17.39697 -10.16147,19.48937 -11.74081,3.03091 -21.62406,-0.96026 -35.26629,-6.65886 C 90.1963,131.55045 91.85376,97.045104 118.75178,98.019576 Z"
     id="path9" />
  <path
     style="fill:#ffa903;stroke-width:7.99992"
     d="m 118.75178,96.019576 c 3.28754,-0.1624 17.63316,3.410652 24.20822,8.445394 6.57507,5.03475 9.56374,12.83051 8.96601,19.00214 -0.53607,5.38935 -2.56633,17.39697 -10.16147,19.48937 -11.74081,3.03091 -21.62406,-0.96026 -35.26629,-6.65886 C 90.1963,129.55045 91.85376,95.045104 118.75178,96.019576 Z"
     id="path10" />
  <path
     style="fill:#3f3f3f;stroke-width:7.99992"
     d="m 111.43147,113.12548 c 1.4077,-4.37263 0.11624,-8.42321 -2.88396,-9.04546 -3.00027,-0.62224 -6.57229,2.41962 -7.97677,6.79291 -1.407712,4.37264 -0.11624,8.42321 2.88397,9.04547 3.00026,0.62223 6.57228,-2.41964 7.97676,-6.79292 z"
     id="path11" />
  <path
     style="fill:#ffffff;stroke-width:7.99992"
     d="m 95.903812,239.99814 c -0.90668,-0.43328 -4.32546,-3.98014 -5.265884,-6.11052 -0.94044,-2.1304 -14.341496,-21.54058 -9.639368,-42.37102 4.702132,-20.83046 19.04362,-12.54562 19.98406,-21.77729 0.94042,-9.23168 3.05638,-16.09626 15.51702,-17.51652 12.46066,-1.42026 22.33513,4.02407 25.86172,13.25574 3.52659,9.23168 9.63936,26.74819 9.63936,34.79631 0,8.04814 -0.47023,27.45834 -0.47023,27.45834 0,0 -0.82747,8.8201 -5.01721,12.26496 z"
     id="path12" />
  <path
     style="opacity:0.1;fill:#000000;stroke-width:7.99992"
     d="m 134.86024,178.66893 c -1.86004,-0.0224 -8.24002,0.67384 -11.54678,3.1406 -7.7945,6.19677 -9.87247,11.68393 -10.98428,16.32799 -0.4724,1.1917 -0.36128,5.84348 -0.12504,6.79682 0.23624,0.95334 1.71872,1.32812 1.71873,1.32812 3.66107,-0.35752 9.5111,-4.66392 12.10927,-5.14058 2.59816,-0.47664 4.59761,1.53916 8.14056,1.06248 5.38032,0.1754 8.56528,-1.60162 8.99993,-1.85936 l 11.56241,1.42186 c 0,0 0.044,-0.1602 0.0472,-0.1718 l -0.0472,0.28128 16.17173,3.5781 12.54678,-3.81246 -6.76557,-7.85932 -18.31235,-5.6562 c 8.5e-4,-0.003 0.016,-0.0624 0.016,-0.0624 l -12.31239,-4.31246 c 0,0 0.016,-0.016 0.016,-0.016 0,0 -4.82934,-5.11914 -10.73429,-4.99996 -0.0592,-0.0296 -0.23424,-0.044 -0.49999,-0.0472 z m 76.10874,23.48419 -0.59374,0.35936 -19.99984,3.01558 14.21864,4.0156 c 0,0 7.66986,2.37476 12.98426,3.3281 5.31442,0.95336 5.43566,-1.29662 5.67182,-2.24998 0.23624,-0.95334 0.46224,-2.98996 -0.7187,-4.06248 -0.35432,-0.59582 -1.99644,-1.90366 -11.5624,-4.4062 z"
     id="path13" />
  <path
     style="fill:#ffa903;stroke-width:7.99992"
     d="m 210.96394,200.1557 c 9.56598,2.50254 11.21936,3.8134 11.57366,4.40924 1.18098,1.0725 0.94478,3.09836 0.70856,4.05172 -0.23616,0.95336 -0.35432,3.21756 -5.66874,2.2642 -5.3144,-0.95334 -12.99082,-3.33672 -12.99082,-3.33672 l -14.20461,-4.01122 19.99145,-3.01972"
     id="path14" />
  <path
     style="fill:#ffa903;stroke-width:7.99992"
     d="m 158.15346,186.04062 18.54145,5.7201 6.75511,7.86854 -12.54194,3.80998 -16.17949,-3.57507 1.06289,-7.38844 z"
     id="path15" />
  <path
     style="fill:#b38f4f;stroke-width:7.99992"
     d="m 143.03685,198.31498 v 0 c -0.82668,-7.9843 2.71626,-16.68358 2.71626,-16.68358 l 12.63654,4.40922 c 0,0 -2.12578,6.79261 -2.36197,8.10346 -0.23616,1.31085 -1.29908,5.60092 -1.29908,5.60092 z"
     id="path16" />
  <path
     style="fill:#3f3f3f;stroke-width:7.99992"
     d="m 151.7586,92.535536 c 0.75439,-3.023832 -0.31656,-5.89436 -2.39224,-6.411508 -2.07565,-0.517116 -4.36992,1.514892 -5.12437,4.53872 -0.75439,3.023832 0.31656,5.894352 2.39223,6.411508 2.07565,0.517116 4.36992,-1.5149 5.12438,-4.53872 z"
     id="path17" />
  <path
     style="fill:#e6407a;stroke-width:7.99992"
     d="m 113.91842,204.26444 c 3.66106,-0.35752 9.50867,-4.66802 12.10684,-5.14468 2.59816,-0.47664 4.60583,1.54918 8.14878,1.0725 5.79521,0.189 9.09358,-1.90669 9.09358,-1.90669 -0.4724,0.23832 0.11808,-6.31593 0.82669,-8.46096 0,-3.33672 2.00767,-8.10345 2.00767,-8.10345 0,0 -4.84201,-5.12426 -10.74696,-5.00508 -0.47239,-0.2384 -8.26687,0.2792 -12.04602,3.09838 -7.7945,6.19676 -9.87136,11.68202 -10.98316,16.32607 -0.4724,1.1917 -0.35432,5.83925 -0.11808,6.79261 0.23624,0.95334 1.71067,1.3313 1.71068,1.3313 z"
     id="path18" />
  <path
     style="fill:url(#linearGradient1263);stroke-width:7.99992"
     d="m 186.64875,128.70727 c -5.95474,5.46049 -22.08363,26.10752 -23.72546,38.26412 -1.54126,11.412 5.32993,16.33847 11.36683,26.51797 5.96537,10.0589 -16.15036,9.32932 -12.83824,33.1804 1.19095,8.5762 9.59636,9.23716 18.49597,5.92098 6.89535,-2.56936 20.24065,-9.64656 27.78831,-17.88926 2.58642,-2.27864 17.45824,-16.27634 16.16504,-29.94818 2.9097,-12.04424 -32.00627,-44.92133 -32.00627,-44.92133 0,0 -5.42211,-6.11765 -5.24618,-11.1247 z"
     id="path19" />
  <g
     id="g361"
     transform="matrix(3.9999436,0,0,3.9999436,0.00226731,4.116e-4)" />
  <path
     id="path1040"
     style="opacity:0.2;fill:#ffffff;stroke-width:15.9999;stroke-linecap:square"
     d="M 64,16 C 37.408302,16 16,37.408298 16,64 v 2 C 16,39.408304 37.408302,18 64,18 h 128 c 26.5917,0 48,21.408304 48,48 V 64 C 240,37.408298 218.5917,16 192,16 Z" />
</svg>
