<?xml version="1.0" encoding="UTF-8" standalone="no"?>
<!-- Created with Inkscape (http://www.inkscape.org/) -->

<svg
   width="256"
   height="256"
   viewBox="0 0 256 256"
   version="1.1"
   id="svg5"
   inkscape:version="1.4.3 (0d15f75042, 2025-12-25)"
   sodipodi:docname="uget.svg"
   xmlns:inkscape="http://www.inkscape.org/namespaces/inkscape"
   xmlns:sodipodi="http://sodipodi.sourceforge.net/DTD/sodipodi-0.dtd"
   xmlns="http://www.w3.org/2000/svg"
   xmlns:svg="http://www.w3.org/2000/svg">
  <sodipodi:namedview
     id="namedview7"
     pagecolor="#ffffff"
     bordercolor="#000000"
     borderopacity="0.25"
     inkscape:showpageshadow="2"
     inkscape:pageopacity="0.0"
     inkscape:pagecheckerboard="0"
     inkscape:deskcolor="#d1d1d1"
     inkscape:document-units="px"
     showgrid="false"
     inkscape:zoom="3.1523438"
     inkscape:cx="127.84139"
     inkscape:cy="128"
     inkscape:window-width="1920"
     inkscape:window-height="1010"
     inkscape:window-x="0"
     inkscape:window-y="0"
     inkscape:window-maximized="1"
     inkscape:current-layer="svg5" />
  <defs
     id="defs2" />
  <rect
     style="opacity:0.2;fill:#000000;stroke-width:16;stroke-linecap:square"
     id="rect234"
     width="224"
     height="224"
     x="16"
     y="18"
     ry="48" />
  <rect
     style="fill:#72a637;fill-opacity:1;stroke-width:16;stroke-linecap:square"
     id="rect396"
     width="224"
     height="224"
     x="16"
     y="16"
     ry="48" />
  <path
     id="path1040"
     style="opacity:0.2;fill:#ffffff;stroke-width:16;stroke-linecap:square"
     d="M 64,16 C 37.408028,16 16,37.408028 16,64 v 2 C 16,39.408028 37.408028,18 64,18 h 128 c 26.59196,0 48,21.408028 48,48 V 64 C 240,37.408028 218.59196,16 192,16 Z" />
  <path
     style="opacity:0.2;fill:#000000;stroke-width:8"
     d="m 208,114 h -40 v 24 h 24 l -44,52 -40,-52 h 20 V 82 h 40 v 16 h 40 V 82 c 0,0 0,-32 -30,-32 h -60 c 0,0 -30,0 -30,34 v 6 56 H 72 V 90 H 48 v 60 c 0,20 20,20 20,20 h 20 v 10 c 0,30 30,30 30,30 h 60 c 30,0 30,-30 30,-30"
     id="path2" />
  <path
     style="fill:#ffffff;fill-opacity:1;stroke-width:8"
     d="m 208,112 h -40 v 24 h 24 l -44,52 -40,-52 h 20 V 80 h 40 v 16 h 40 V 80 c 0,0 0,-32 -30,-32 h -60 c 0,0 -30,0 -30,34 v 6 56 H 72 V 88 H 48 v 60 c 0,20 20,20 20,20 h 20 v 10 c 0,30 30,30 30,30 h 60 c 30,0 30,-30 30,-30"
     id="path3" />
</svg>
