<?xml version="1.0" encoding="UTF-8" standalone="no"?>
<!-- Created with Inkscape (http://www.inkscape.org/) -->

<svg
   width="256"
   height="256"
   viewBox="0 0 256 256"
   version="1.1"
   id="svg5"
   inkscape:version="1.3 (0e150ed6c4, 2023-07-21)"
   sodipodi:docname="vim.svg"
   xmlns:inkscape="http://www.inkscape.org/namespaces/inkscape"
   xmlns:sodipodi="http://sodipodi.sourceforge.net/DTD/sodipodi-0.dtd"
   xmlns="http://www.w3.org/2000/svg"
   xmlns:svg="http://www.w3.org/2000/svg">
  <sodipodi:namedview
     id="namedview7"
     pagecolor="#ffffff"
     bordercolor="#000000"
     borderopacity="0.25"
     inkscape:showpageshadow="2"
     inkscape:pageopacity="0.0"
     inkscape:pagecheckerboard="0"
     inkscape:deskcolor="#d1d1d1"
     inkscape:document-units="px"
     showgrid="false"
     inkscape:zoom="3.0585938"
     inkscape:cx="127.83653"
     inkscape:cy="128"
     inkscape:window-width="1920"
     inkscape:window-height="984"
     inkscape:window-x="0"
     inkscape:window-y="29"
     inkscape:window-maximized="1"
     inkscape:current-layer="svg5" />
  <defs
     id="defs2" />
  <rect
     style="opacity:0.2;fill:#000000;stroke-width:16;stroke-linecap:square"
     id="rect234"
     width="224"
     height="224"
     x="16"
     y="18"
     ry="48" />
  <rect
     style="fill:#acdeb6;fill-opacity:1;stroke-width:16;stroke-linecap:square"
     id="rect396"
     width="224"
     height="224"
     x="16"
     y="16"
     ry="48" />
  <rect
     style="opacity:0.2;fill:#000000;stroke-width:8"
     id="rect2"
     width="128"
     height="128"
     x="118.43472"
     y="-62.585796"
     ry="16"
     transform="rotate(45)" />
  <rect
     style="opacity:1;fill:#159532;fill-opacity:1;stroke-width:8"
     id="rect1"
     width="128"
     height="128"
     x="117.0205"
     y="-64"
     ry="16"
     transform="rotate(45)" />
  <path
     id="path4"
     style="opacity:0.2;fill:#ffffff;fill-opacity:1;stroke-width:8"
     d="m 128,44.109376 c -4.08988,8e-6 -8.17862,1.569236 -11.3125,4.703124 l -67.875,67.875 c -3.367452,3.36745 -4.907332,7.82488 -4.656252,12.21094 0.25644,-3.71512 1.796336,-7.35884 4.64844,-10.21094 L 116.6875,50.804688 c 6.26779,-6.267788 16.35721,-6.267788 22.625,0 l 67.88282,67.882812 c 2.8521,2.8521 4.39198,6.49582 4.64844,10.21094 0.25508,-4.38606 -1.27318,-8.84348 -4.64064,-12.21094 L 139.3125,48.8125 C 136.1786,45.678608 132.0899,44.10938 128,44.109376 Z" />
  <path
     d="m 72.000808,74 c -4.431992,0 -8,3.568008 -8,8 0,4.431992 3.568008,8 8,8 h 4 v 2 89.99918 c 0.012,10.93004 13.446152,16.1556 20.843752,8.10938 l 91.9375,-101.686688 c 1.9569,-1.45568 3.21874,-3.784712 3.21874,-6.421872 0,-4.431992 -3.568,-8 -8,-8 h -31.99999 c -4.43199,0 -8,3.568008 -8,8 0,4.431992 3.56801,8 8,8 h 2.4375 l -54.4375,61.15543 V 92 90 h 4 c 4.43199,0 8,-3.568008 8,-8 0,-4.431992 -3.56801,-8 -8,-8 z"
     style="opacity:0.2;fill:#000000;stroke:none;stroke-width:12;stroke-linecap:round;stroke-linejoin:round;paint-order:stroke fill markers"
     id="path2" />
  <path
     d="m 72.000808,72.000816 c -4.432,0 -8,3.568008 -8,8 0,4.431992 3.568,8 8,8 h 4 v 2 V 180 c 0.012,10.93004 13.446152,16.1556 20.843752,8.10938 l 91.9375,-101.686692 c 1.9569,-1.45568 3.21874,-3.784712 3.21874,-6.421872 0,-4.431992 -3.568,-8 -8,-8 h -31.99999 c -4.43199,0 -8,3.568008 -8,8 0,4.431992 3.56801,8 8,8 h 2.4375 l -54.4375,61.155434 v -59.155434 -2 h 4 c 4.43199,0 8,-3.568008 8,-8 0,-4.431992 -3.56801,-8 -8,-8 z"
     style="fill:#e4e4e4;fill-opacity:1;stroke:none;stroke-width:12;stroke-linecap:round;stroke-linejoin:round;paint-order:stroke fill markers"
     id="path1" />
  <path
     id="path3"
     style="opacity:0.2;fill:#ffffff;fill-opacity:1;stroke:none;stroke-width:12;stroke-linecap:round;stroke-linejoin:round;paint-order:stroke fill markers"
     d="m 72,72 c -4.431992,0 -8,3.568016 -8,8 0,0.34256 0.06016,0.669 0.10156,1 C 64.5956,77.048732 67.91058,74 72,74 h 32 c 4.08942,0 7.4044,3.048732 7.89844,7 C 111.93982,80.669 112,80.342572 112,80 c 0,-4.431984 -3.56802,-8 -8,-8 z m 80,0 c -4.43198,0 -8,3.568016 -8,8 0,0.34256 0.0602,0.669 0.10156,1 0.49404,-3.951268 3.80902,-7 7.89844,-7 h 32 c 4.14028,0 7.48624,3.12534 7.91406,7.148436 C 191.96744,80.773684 192,80.390064 192,80 c 0,-4.431984 -3.56802,-8 -8,-8 z M 152.65625,90 100,149.15625 v 2 L 154.4375,90 Z" />
  <path
     id="path1040"
     style="opacity:0.2;fill:#ffffff;stroke-width:16;stroke-linecap:square"
     d="M 64,16 C 37.40808,16 16,37.40808 16,64 v 2 C 16,39.408084 37.40808,18 64,18 h 128 c 26.59192,0 48,21.408084 48,48 V 64 C 240,37.40808 218.59192,16 192,16 Z" />
</svg>
