<?xml version="1.0" encoding="UTF-8" standalone="no"?>
<!-- Created with Inkscape (http://www.inkscape.org/) -->

<svg
   width="256"
   height="256"
   viewBox="0 0 256 256"
   version="1.1"
   id="svg5"
   inkscape:version="1.2.2 (1:1.2.2+202305151914+b0a8486541)"
   sodipodi:docname="virtualbox.svg"
   xmlns:inkscape="http://www.inkscape.org/namespaces/inkscape"
   xmlns:sodipodi="http://sodipodi.sourceforge.net/DTD/sodipodi-0.dtd"
   xmlns="http://www.w3.org/2000/svg"
   xmlns:svg="http://www.w3.org/2000/svg">
  <sodipodi:namedview
     id="namedview7"
     pagecolor="#ffffff"
     bordercolor="#000000"
     borderopacity="0.25"
     inkscape:showpageshadow="2"
     inkscape:pageopacity="0.0"
     inkscape:pagecheckerboard="0"
     inkscape:deskcolor="#d1d1d1"
     inkscape:document-units="px"
     showgrid="false"
     inkscape:zoom="3.1484375"
     inkscape:cx="128"
     inkscape:cy="128"
     inkscape:window-width="1920"
     inkscape:window-height="1008"
     inkscape:window-x="0"
     inkscape:window-y="0"
     inkscape:window-maximized="1"
     inkscape:current-layer="svg5" />
  <defs
     id="defs2" />
  <rect
     style="opacity:0.2;fill:#000000;stroke-width:16;stroke-linecap:square"
     id="rect234"
     width="224"
     height="224"
     x="16"
     y="18"
     ry="48" />
  <rect
     style="fill:#1263eb;fill-opacity:1;stroke-width:16;stroke-linecap:square"
     id="rect396"
     width="224"
     height="224"
     x="16"
     y="16"
     ry="48" />
  <path
     d="M 64,42 C 50.704,42 40,52.704016 40,66 V 98 H 77.65624 L 95.32816,148.04687 121.18752,60.531248 143.25,120.70313 161.71872,59.125 189.81248,146 H 216 V 66 C 216,52.704016 205.296,42 192,42 Z M 122.81248,111.46875 96.67184,199.95313 66.34376,114 H 40 v 80 c 0,13.29598 10.704,24 24,24 h 128 c 13.296,0 24,-10.70402 24,-24 v -32 h -37.81248 l -15.90624,-49.125 -17.51568,58.4375 z"
     style="opacity:0.2;fill:#000000;fill-opacity:1;stroke:none;stroke-width:16;stroke-linecap:square;stroke-linejoin:miter;stroke-dasharray:none;stroke-opacity:1"
     id="path3253"
     sodipodi:nodetypes="ssccccccccsssccccssssccccc" />
  <path
     d="M 64,40 C 50.704,40 40,50.704016 40,64 V 96 H 77.65624 L 95.32816,146.04687 121.18752,58.531248 143.25,118.70313 161.71872,57.125 189.81248,144 H 216 V 64 C 216,50.704016 205.296,40 192,40 Z M 122.81248,109.46875 96.67184,197.95313 66.34376,112 H 40 v 80 c 0,13.29598 10.704,24 24,24 h 128 c 13.296,0 24,-10.70402 24,-24 v -32 h -37.81248 l -15.90624,-49.125 -17.51568,58.4375 z"
     style="fill:#4bd0ff;fill-opacity:1;stroke:none;stroke-width:16;stroke-linecap:square;stroke-linejoin:miter;stroke-dasharray:none;stroke-opacity:1"
     id="path3225"
     sodipodi:nodetypes="ssccccccccsssccccssssccccc" />
  <path
     id="path3281"
     style="opacity:0.2;fill:#ffffff;fill-opacity:1;stroke:none;stroke-width:16;stroke-linecap:square;stroke-linejoin:miter;stroke-dasharray:none;stroke-opacity:1"
     d="M 64,40 C 50.704012,40 40,50.704044 40,64 v 2 C 40,52.704028 50.704012,42 64,42 h 128 c 13.29598,0 24,10.704028 24,24 V 64 C 216,50.704044 205.29598,40 192,40 Z M 122.8125,109.46875 96.671876,197.95312 66.343752,112 H 40 v 2 H 66.343752 L 96.671876,199.95312 122.8125,111.46875 144.76562,171.3125 162.28125,112.875 178.1875,162 H 216 v -2 h -37.8125 l -15.90625,-49.125 -17.51563,58.4375 z" />
  <path
     id="path1040"
     style="opacity:0.2;fill:#ffffff;stroke-width:16;stroke-linecap:square"
     d="M 64,16 C 37.408052,16 16,37.408054 16,64 v 2 C 16,39.408026 37.408026,18 64,18 h 128 c 26.59198,0 48,21.408026 48,48 V 64 C 240,37.408054 218.59194,16 192,16 Z" />
</svg>
