<?xml version="1.0" encoding="UTF-8" standalone="no"?>
<!-- Created with Inkscape (http://www.inkscape.org/) -->

<svg
   width="256"
   height="256"
   viewBox="0 0 256 256"
   version="1.1"
   id="svg5"
   inkscape:version="1.2.2 (1:1.2.2+202305151914+b0a8486541)"
   sodipodi:docname="visual-studio-code-insiders.svg"
   xmlns:inkscape="http://www.inkscape.org/namespaces/inkscape"
   xmlns:sodipodi="http://sodipodi.sourceforge.net/DTD/sodipodi-0.dtd"
   xmlns="http://www.w3.org/2000/svg"
   xmlns:svg="http://www.w3.org/2000/svg">
  <sodipodi:namedview
     id="namedview7"
     pagecolor="#ffffff"
     bordercolor="#000000"
     borderopacity="0.25"
     inkscape:showpageshadow="2"
     inkscape:pageopacity="0.0"
     inkscape:pagecheckerboard="0"
     inkscape:deskcolor="#d1d1d1"
     inkscape:document-units="px"
     showgrid="false"
     inkscape:zoom="3.1484375"
     inkscape:cx="128"
     inkscape:cy="128"
     inkscape:window-width="1920"
     inkscape:window-height="1008"
     inkscape:window-x="0"
     inkscape:window-y="0"
     inkscape:window-maximized="1"
     inkscape:current-layer="svg5" />
  <defs
     id="defs2" />
  <rect
     style="opacity:0.2;fill:#000000;stroke-width:16;stroke-linecap:square"
     id="rect234"
     width="224"
     height="224"
     x="16"
     y="18"
     ry="48" />
  <rect
     style="fill:#efefef;fill-opacity:1;stroke-width:16;stroke-linecap:square"
     id="rect396"
     width="224"
     height="224"
     x="16"
     y="16"
     ry="48" />
  <path
     d="m 202.3411,66.948638 -32.94641,-15.9552 c -3.81328,-1.8468 -8.37108,-1.0678 -11.3642,1.94248 L 50.175372,150.64552 c -2.901,2.66056 -2.89768,7.25424 0.008,9.91036 l 8.80996,8.0552 c 2.37488,2.17184 5.95148,2.3314 8.50844,0.3808 L 197.38436,71.087718 c 4.35728,-3.32472 10.61588,-0.1988 10.61588,5.3022 v -0.3848 c 0,-3.86144 -2.19924,-7.38148 -5.65834,-9.05656 z"
     style="opacity:0.2;fill:#000000;stroke-width:7.99996"
     id="path2793" />
  <path
     d="m 169.39349,209.00912 c -3.81448,1.84508 -8.37232,1.06544 -11.36544,-1.94504 3.68768,3.70908 9.99376,1.08184 9.99376,-4.16388 V 57.100878 c 0,-5.24576 -6.30608,-7.87284 -9.99376,-4.16352 2.99312,-3.01052 7.55092,-3.79064 11.36544,-1.94548 l 32.94077,15.93328 c 3.4616,1.6742 5.66274,5.19552 5.66274,9.05864 V 184.01804 c 0,3.863 -2.20114,7.38424 -5.66274,9.0584 z"
     style="opacity:0.2;fill:#000000;stroke-width:7.99996"
     id="path2765" />
  <path
     d="m 202.34246,64.948798 -32.94677,-15.95532 c -3.81332,-1.84688 -8.37116,-1.0678 -11.36432,1.94244 L 50.175212,148.64656 c -2.90108,2.6606 -2.89776,7.25424 0.008,9.91044 l 8.81004,8.05528 c 2.37488,2.17184 5.95152,2.3314 8.50852,0.3808 L 197.38566,69.087998 c 4.3573,-3.32476 10.61598,-0.1988 10.61598,5.30224 v -0.3848 c 0,-3.86148 -2.19928,-7.38152 -5.6584,-9.05668 z"
     style="fill:#007c64;fill-opacity:1;stroke-width:8.00004"
     id="path2541"
     sodipodi:nodetypes="cccccccccscc" />
  <path
     d="m 63.181012,86.060078 c -1.51064,0.0676 -3,0.64864 -4.18744,1.73436 l -8.81244,8.0546 c -2.90488,2.65612 -2.9088,7.253602 -0.008,9.913962 L 158.03137,207.06664 c 3.68772,3.70908 9.99208,1.08172 9.99208,-4.164 V 165.97332 L 67.501052,87.411638 c -1.27844,-0.97552 -2.8096,-1.41908 -4.32024,-1.35156 z"
     style="opacity:0.2;fill:#000000;stroke-width:7.99996"
     id="path2737" />
  <path
     id="path2681"
     style="opacity:0.1;fill:#ffffff;stroke-width:8.00004"
     d="m 164.91413,48.001398 c -2.52936,0.042 -5.01212,1.05612 -6.88284,2.93752 L 50.171932,148.64984 c -1.71048,1.56868 -2.37876,3.80252 -2.07032,5.92188 0.2228,-1.45308 0.89648,-2.84536 2.07032,-3.92188 L 158.03129,52.938918 c 2.99316,-3.01024 7.54608,-3.7922 11.3594,-1.94532 l 32.95313,15.95312 c 0.97628,0.4728 1.83928,1.10304 2.59376,1.83592 1.7934,1.14172 3.06248,3.13196 3.06248,5.6094 v -0.3828 c 0,-3.86148 -2.19712,-7.38732 -5.65624,-9.06248 l -32.94533,-15.95312 c -1.43,-0.6926 -2.96676,-1.01736 -4.48436,-0.9922 z" />
  <path
     d="m 202.34246,191.05432 -32.94677,15.95536 c -3.81332,1.84644 -8.37116,1.0674 -11.36432,-1.94248 L 50.175212,103.75608 c -2.90108,-2.6604 -2.89776,-7.254282 0.008,-9.910402 l 8.81004,-8.0556 c 2.37488,-2.17152 5.95152,-2.3314 8.50852,-0.3804 L 197.38566,186.91484 c 4.3573,3.32464 10.61598,0.1992 10.61598,-5.30236 v 0.3852 c 0,3.86116 -2.19928,7.38124 -5.6584,9.05672 z"
     style="fill:#00a388;fill-opacity:1;stroke-width:8.00004"
     id="path2513"
     sodipodi:nodetypes="cccccscccscc" />
  <path
     id="path2625"
     style="opacity:0.1;fill:#ffffff;stroke-width:8.00004"
     d="m 63.179732,84.056078 c -1.51064,0.0676 -3.00004,0.64864 -4.18748,1.7344 l -8.81252,8.05468 c -1.73,1.5814 -2.4062,3.8462 -2.07812,5.98436 0.2148,-1.4752 0.8856,-2.89432 2.07812,-3.98436 l 8.81252,-8.05468 c 2.37488,-2.17152 5.9508,-2.33384 8.5078,-0.3828 L 197.38284,188.91552 c 2.39502,1.82736 5.36588,1.69804 7.55472,0.3048 1.91928,-1.86424 3.06248,-4.44704 3.06248,-7.21892 v -0.3908 c 0,5.50156 -6.25988,8.62932 -10.6172,5.30472 L 67.500052,85.407638 c -1.27848,-0.97548 -2.80968,-1.41908 -4.32032,-1.35156 z" />
  <path
     d="m 169.39361,207.0122 c -3.81456,1.84516 -8.3724,1.06552 -11.36556,-1.945 3.68772,3.70912 9.99388,1.08184 9.99388,-4.16396 V 55.102518 c 0,-5.24584 -6.30616,-7.873 -9.99388,-4.16364 2.99316,-3.01048 7.551,-3.79068 11.36556,-1.94544 l 32.94111,15.9334 c 3.4616,1.67428 5.6628,5.1956 5.6628,9.05876 V 182.02088 c 0,3.86304 -2.2012,7.38432 -5.6628,9.05856 z"
     style="fill:#24bfa5;fill-opacity:1;stroke-width:8.00004"
     id="path2485"
     sodipodi:nodetypes="ccsscccsscc" />
  <path
     id="path2569"
     style="opacity:0.2;fill:#ffffff;stroke-width:8.00004"
     d="m 164.91413,48.001398 c -2.209,0.036 -4.36404,0.84024 -6.125,2.28908 1.9712,-1.42852 4.43204,-1.36732 6.32028,-0.2736 1.45376,0.004 2.92012,0.3144 4.28908,0.97656 l 32.93749,15.92968 c 3.4616,1.67428 5.66408,5.19932 5.66408,9.06248 v -2 c 0,-3.86316 -2.20248,-7.3882 -5.66408,-9.06248 l -32.93749,-15.92968 c -1.43048,-0.6918 -2.9666,-1.01764 -4.48436,-0.99204 z m -6.125,2.28908 c -0.262,0.19 -0.5158,0.40496 -0.75784,0.64844 0.2372,-0.2384 0.5022,-0.43816 0.75784,-0.64844 z m 9.23436,150.609362 c 0,4.90148 -5.50348,7.51596 -9.23436,4.81248 1.813,1.4916 4.04416,2.28016 6.32028,2.27344 1.68552,-0.97652 2.91408,-2.77424 2.91408,-5.08592 z m -9.23436,4.81248 c -0.2556,-0.2104 -0.52068,-0.40992 -0.75784,-0.64844 0.242,0.2436 0.49576,0.45856 0.75784,0.64844 z" />
  <path
     id="path1040"
     style="opacity:0.2;fill:#ffffff;stroke-width:16;stroke-linecap:square"
     d="M 64,16 C 37.408052,16 16,37.408056 16,64 v 2 C 16,39.408028 37.408028,18 64,18 h 128 c 26.59198,0 48,21.408028 48,48 V 64 C 240,37.408056 218.59194,16 192,16 Z" />
</svg>
