<?xml version="1.0" encoding="UTF-8" standalone="no"?>
<!-- Created with Inkscape (http://www.inkscape.org/) -->

<svg
   width="256"
   height="256"
   viewBox="0 0 256 256"
   version="1.1"
   id="svg5"
   inkscape:version="1.4.3 (0d15f75042, 2025-12-25)"
   sodipodi:docname="xbox.svg"
   xmlns:inkscape="http://www.inkscape.org/namespaces/inkscape"
   xmlns:sodipodi="http://sodipodi.sourceforge.net/DTD/sodipodi-0.dtd"
   xmlns="http://www.w3.org/2000/svg"
   xmlns:svg="http://www.w3.org/2000/svg">
  <sodipodi:namedview
     id="namedview7"
     pagecolor="#ffffff"
     bordercolor="#000000"
     borderopacity="0.25"
     inkscape:showpageshadow="2"
     inkscape:pageopacity="0.0"
     inkscape:pagecheckerboard="0"
     inkscape:deskcolor="#d1d1d1"
     inkscape:document-units="px"
     showgrid="false"
     inkscape:zoom="3.2460938"
     inkscape:cx="128"
     inkscape:cy="128"
     inkscape:window-width="1920"
     inkscape:window-height="1012"
     inkscape:window-x="0"
     inkscape:window-y="0"
     inkscape:window-maximized="1"
     inkscape:current-layer="svg5" />
  <defs
     id="defs2" />
  <rect
     style="opacity:0.2;fill:#000000;stroke-width:16;stroke-linecap:square"
     id="rect234"
     width="224"
     height="224"
     x="16"
     y="18"
     ry="48" />
  <rect
     style="fill:#107c10;fill-opacity:1;stroke-width:16;stroke-linecap:square"
     id="rect396"
     width="224"
     height="224"
     x="16"
     y="16"
     ry="48" />
  <path
     id="path1040"
     style="opacity:0.1;fill:#ffffff;stroke-width:16;stroke-linecap:square"
     d="M 64,16 C 37.408028,16 16,37.408028 16,64 v 2 C 16,39.408 37.408,18 64,18 h 128 c 26.592,0 48,21.408 48,48 V 64 C 240,37.408028 218.59196,16 192,16 Z" />
  <path
     style="opacity:0.2;stroke-width:8"
     d="m 120.02228,209.6714 c -12.32552,-1.18018 -24.803528,-5.60362 -35.522344,-12.59374 -8.981944,-5.85454 -11.008912,-8.26512 -11.008912,-13.06956 0,-9.65161 10.6184,-26.55914 28.786826,-45.82891 10.31528,-10.94705 24.68638,-23.77128 26.23915,-23.42557 3.02374,0.67472 27.18012,24.22476 36.22529,35.31305 14.30043,17.52644 20.87231,31.88213 17.53245,38.28123 -2.53839,4.8639 -18.29303,14.37242 -29.86541,18.02454 -9.53983,3.01088 -22.06805,4.28588 -32.38705,3.29896 z M 61.358888,173.97362 C 53.894396,162.52847 50.123104,151.26174 48.304404,134.9657 c -0.602512,-5.3806 -0.39052,-8.45655 1.363096,-19.50396 2.181328,-13.75352 10.023316,-29.681564 19.451564,-39.476292 4.013048,-4.163224 4.370088,-4.274744 9.264596,-2.6206 5.93218,2.007264 12.27346,6.386088 22.11081,15.277544 l 5.74622,5.19288 -3.14275,3.847264 C 88.540872,115.54351 73.176744,140.87599 67.393344,156.54384 c -3.142752,8.5123 -4.407288,17.06178 -3.049768,20.62097 0.911208,2.405 0.0744,1.50917 -2.99398,-3.18561 z m 131.015412,1.94594 c 0.73832,-3.59822 -0.1952,-10.20362 -2.3803,-16.86851 -4.73274,-14.43187 -20.55618,-41.27909 -35.08535,-59.53409 l -4.57466,-5.746744 4.95031,-4.540512 c 6.46029,-5.928872 10.94568,-9.478768 15.78811,-12.495248 3.81779,-2.378984 9.27577,-4.48476 11.62259,-4.48476 1.44492,0 6.5384,5.29696 10.64816,11.05856 6.36732,8.9212 11.04982,19.756734 13.42268,31.019744 1.53418,7.28565 1.6625,22.86056 0.24736,30.12762 -1.17154,5.96233 -3.62624,13.69032 -6.00654,18.93337 -1.80382,3.92719 -6.2483,11.55667 -8.20088,14.03974 -1.00422,1.27685 -1.00422,1.27498 -0.44634,-1.47943 z M 121.34262,69.525016 c -6.70578,-3.401208 -17.04896,-7.05332 -22.761692,-8.038368 -2.000936,-0.34388 -5.417048,-0.53896 -7.587224,-0.42752 -4.715984,0.23792 -4.50584,-0.0076 3.055352,-3.577768 6.285494,-2.96816 11.529604,-4.713364 18.651924,-6.207668 8.00564,-1.68202 23.05922,-1.700604 30.9384,-0.041 8.50774,1.793528 18.5292,5.519984 24.17499,8.995528 l 1.68109,1.029668 -3.8494,-0.19328 c -7.65417,-0.38632 -18.80814,2.704488 -30.78405,8.525568 -3.61137,1.758212 -6.7504,3.159592 -6.98099,3.122416 -0.22872,-0.0448 -3.17252,-1.477568 -6.54585,-3.187464 z"
     id="path2" />
  <path
     style="fill:#ffffff;stroke-width:8"
     d="m 120.02228,207.6714 c -12.32552,-1.18018 -24.803528,-5.60362 -35.522344,-12.59374 -8.981944,-5.85454 -11.008912,-8.26512 -11.008912,-13.06956 0,-9.65161 10.6184,-26.55914 28.786826,-45.82891 10.31528,-10.94705 24.68638,-23.77128 26.23915,-23.42557 3.02374,0.67472 27.18012,24.22476 36.22529,35.31305 14.30043,17.52644 20.87231,31.88213 17.53245,38.28123 -2.53839,4.8639 -18.29303,14.37242 -29.86541,18.02454 -9.53983,3.01088 -22.06805,4.28588 -32.38705,3.29896 z M 61.358888,171.97362 C 53.894396,160.52847 50.123104,149.26175 48.304404,132.9657 c -0.602516,-5.3806 -0.39052,-8.45655 1.363096,-19.50396 2.181328,-13.753516 10.023316,-29.681564 19.451564,-39.476292 4.013048,-4.163224 4.370088,-4.274744 9.264596,-2.620596 5.93218,2.007264 12.27346,6.386084 22.11081,15.27754 l 5.74622,5.19288 -3.14275,3.847264 C 88.540872,113.54351 73.176744,138.87599 67.393344,154.54384 c -3.142752,8.5123 -4.407288,17.06178 -3.049768,20.62097 0.911208,2.405 0.0744,1.50917 -2.99398,-3.18561 z m 131.015412,1.94594 c 0.73832,-3.59822 -0.1952,-10.20362 -2.3803,-16.8685 -4.73274,-14.43188 -20.55618,-41.2791 -35.08535,-59.5341 l -4.57466,-5.746744 4.95031,-4.540512 c 6.46029,-5.928872 10.94568,-9.478768 15.78811,-12.495248 3.81779,-2.378984 9.27577,-4.48476 11.62259,-4.48476 1.44492,0 6.5384,5.29696 10.64816,11.05856 6.36732,8.921196 11.04982,19.756734 13.42268,31.019744 1.53418,7.28565 1.6625,22.86056 0.24736,30.12762 -1.17154,5.96233 -3.62624,13.69031 -6.00654,18.93337 -1.80382,3.92719 -6.2483,11.55667 -8.20088,14.03974 -1.00422,1.27685 -1.00422,1.27498 -0.44634,-1.47943 z M 121.34262,67.525016 c -6.70578,-3.401208 -17.04896,-7.05332 -22.761692,-8.038368 -2.000936,-0.3438 -5.417048,-0.538972 -7.587224,-0.427488 -4.715984,0.23792 -4.50584,-0.0076 3.055352,-3.577768 6.285494,-2.968164 11.529604,-4.713368 18.651924,-6.207672 8.00564,-1.682016 23.05922,-1.7006 30.9384,-0.041 8.50774,1.793532 18.5292,5.519992 24.17499,8.995536 l 1.68109,1.02966 -3.8494,-0.19332 c -7.65417,-0.38628 -18.80814,2.704492 -30.78405,8.525572 -3.61137,1.758212 -6.7504,3.159592 -6.98099,3.122416 -0.22872,-0.0448 -3.17252,-1.477568 -6.54585,-3.187464 z"
     id="path3" />
</svg>
