<?xml version="1.0" encoding="UTF-8" standalone="no"?>
<!-- Created with Inkscape (http://www.inkscape.org/) -->

<svg
   width="256"
   height="256"
   viewBox="0 0 256 256"
   version="1.1"
   id="svg5"
   inkscape:version="1.3.2 (091e20ef0f, 2023-11-25, custom)"
   sodipodi:docname="yast-snapper.svg"
   xmlns:inkscape="http://www.inkscape.org/namespaces/inkscape"
   xmlns:sodipodi="http://sodipodi.sourceforge.net/DTD/sodipodi-0.dtd"
   xmlns="http://www.w3.org/2000/svg"
   xmlns:svg="http://www.w3.org/2000/svg">
  <sodipodi:namedview
     id="namedview7"
     pagecolor="#ffffff"
     bordercolor="#000000"
     borderopacity="0.25"
     inkscape:showpageshadow="2"
     inkscape:pageopacity="0.0"
     inkscape:pagecheckerboard="0"
     inkscape:deskcolor="#d1d1d1"
     inkscape:document-units="px"
     showgrid="false"
     inkscape:zoom="3.1914062"
     inkscape:cx="127.84333"
     inkscape:cy="128"
     inkscape:window-width="1920"
     inkscape:window-height="1020"
     inkscape:window-x="0"
     inkscape:window-y="31"
     inkscape:window-maximized="1"
     inkscape:current-layer="svg5" />
  <defs
     id="defs2" />
  <rect
     style="opacity:0.2;fill:#000000;stroke-width:16;stroke-linecap:square"
     id="rect234"
     width="224"
     height="224"
     x="16"
     y="18"
     ry="48" />
  <rect
     style="fill:#5db43e;fill-opacity:1;stroke-width:16;stroke-linecap:square"
     id="rect396"
     width="224"
     height="224"
     x="16"
     y="16"
     ry="48" />
  <path
     id="path2"
     d="m 128.14062,66 c -6.23119,-0.06158 -12.42028,0.826884 -18.42187,2.406246 -27.972776,7.2048 -48.81473,33.666814 -48.390628,61.484374 H 47.999998 l 21.32813,30.71875 c 7.11119,-10.23999 14.23015,-20.47876 21.34374,-30.71875 H 77.328124 C 77.274504,118.24024 81.830252,106.63428 89.906246,97.937502 105.08623,80.412396 133.54277,76.278406 153.71875,87.999998 160.42122,96.42319 175.30991,87.169638 167.5,78.531246 156.3912,70.223494 142.16621,66.029598 128.14062,66 Z m 58.51562,33.281246 -21.32811,30.734374 h 13.32812 c 0.068,12.32159 -5.06402,24.56626 -14,33.40625 -15.43039,16.26462 -42.8114,19.87237 -62.35938,8.48437 -6.764314,-8.49999 -21.850464,0.67073 -13.796872,9.45313 15.784782,11.78239 37.512362,15.54029 56.718752,10.39063 28.46316,-6.824 49.81549,-33.58481 49.43749,-61.73438 H 208 c -7.112,-10.23999 -14.22414,-20.49438 -21.32814,-30.734374 z"
     style="opacity:0.2;fill:#000000;stroke-width:8" />
  <path
     id="path4"
     d="m 128.14062,63.999996 c -6.23119,-0.062 -12.42028,0.82689 -18.42187,2.40625 C 81.745974,73.61104 60.90402,100.07305 61.328122,127.89062 H 47.999998 l 21.32813,30.71875 c 7.11119,-10.23999 14.23015,-20.47876 21.34374,-30.71875 H 77.328124 C 77.274504,116.24024 81.830252,104.63429 89.906246,95.937504 105.08623,78.412398 133.54277,74.278406 153.71875,85.999998 160.42122,94.423192 175.30991,85.16964 167.5,76.531246 156.3912,68.223494 142.16621,64.029598 128.14062,63.999996 Z m 58.53124,33.28125 -0.016,0.016 -21.32811,30.718754 h 13.32812 c 0.068,12.32159 -5.06401,24.56625 -14,33.40624 -15.43039,16.26462 -42.81139,19.87237 -62.35938,8.48438 -6.764334,-8.49997 -21.85049,0.67075 -13.796896,9.45316 15.784786,11.78238 37.512366,15.5403 56.718746,10.39062 28.46317,-6.82399 49.8155,-33.5848 49.4375,-61.73437 h 13.34412 C 200.888,117.776 193.77586,107.52161 186.67186,97.281624 Z"
     style="fill:#ffffff;stroke-width:8" />
  <path
     id="path1040"
     style="opacity:0.2;fill:#ffffff;stroke-width:16;stroke-linecap:square"
     d="M 63.999996,16 C 37.40808,16 16,37.40808 16,63.999996 V 66 C 16,39.408084 37.40808,18 63.999996,18 H 192 c 26.5919,0 48,21.408084 48,48 V 63.999996 C 240,37.40808 218.5919,16 192,16 Z" />
</svg>
