<?xml version="1.0" encoding="UTF-8" standalone="no"?>
<!-- Created with Inkscape (http://www.inkscape.org/) -->

<svg
   width="64"
   height="64"
   viewBox="0 0 64 64.000004"
   version="1.1"
   id="svg5"
   inkscape:version="1.3.1 (91b66b0783, 2023-11-16, custom)"
   sodipodi:docname="application-pdf.svg"
   xmlns:inkscape="http://www.inkscape.org/namespaces/inkscape"
   xmlns:sodipodi="http://sodipodi.sourceforge.net/DTD/sodipodi-0.dtd"
   xmlns="http://www.w3.org/2000/svg"
   xmlns:svg="http://www.w3.org/2000/svg">
  <sodipodi:namedview
     id="namedview7"
     pagecolor="#ffffff"
     bordercolor="#000000"
     borderopacity="0.25"
     inkscape:showpageshadow="2"
     inkscape:pageopacity="0.0"
     inkscape:pagecheckerboard="0"
     inkscape:deskcolor="#d1d1d1"
     inkscape:document-units="px"
     showgrid="false"
     inkscape:zoom="11.34375"
     inkscape:cx="31.955923"
     inkscape:cy="32"
     inkscape:window-width="1920"
     inkscape:window-height="937"
     inkscape:window-x="0"
     inkscape:window-y="32"
     inkscape:window-maximized="1"
     inkscape:current-layer="svg5" />
  <defs
     id="defs2" />
  <path
     id="rect234"
     style="opacity:0.2;stroke-width:1;stroke-linecap:round;stroke-linejoin:round"
     d="m 14,5 h 24 l 16,16 v 36 c 0,2.216 -1.784,4 -4,4 H 14 c -2.216,0 -4,-1.784 -4,-4 V 9 c 0,-2.216 1.784,-4 4,-4 z" />
  <path
     id="rect448"
     style="fill:#c03630;fill-opacity:1;stroke-width:1;stroke-linecap:round;stroke-linejoin:round"
     d="m 14,4 h 24 l 6,10 10,6 v 36 c 0,2.216 -1.784,4 -4,4 H 14 c -2.216,0 -4,-1.784 -4,-4 V 8 c 0,-2.216 1.784,-4 4,-4 z" />
  <path
     id="path611"
     style="opacity:0.2;fill:#000000;stroke-width:1;stroke-linecap:round;stroke-linejoin:round"
     d="m 38,4 v 13 c 0,2.215998 1.784002,4 4,4 h 12 v -1 z" />
  <path
     id="rect600"
     style="fill:#f36961;fill-opacity:1;stroke-width:1;stroke-linecap:round;stroke-linejoin:round"
     d="M 54,20 H 42 c -2.216,0 -4,-1.784 -4,-4 V 4 Z" />
  <path
     id="path1133"
     style="opacity:0.1;fill:#ffffff;fill-opacity:1;stroke-width:1;stroke-linecap:round;stroke-linejoin:round"
     d="m 14,4 c -2.215994,0 -4,1.7840066 -4,4 v 1 c 0,-2.2159936 1.784006,-4 4,-4 h 24 l 15,15 h 1 L 38,4 Z" />
  <path
     id="path6"
     style="opacity:0.2;fill:#000000;stroke-width:2"
     d="m 30.292968,27 c -0.645762,0 -1.24844,0.321768 -1.39453,0.855468 -0.542528,2.046066 0.06542,5.213786 1.078124,9.15625 l -0.308594,0.76172 c -0.775416,1.933636 -1.745336,3.857486 -2.597656,5.566406 -3.518896,7.043642 -6.252804,10.847032 -8.078124,11.11328 l -0.0078,-0.07812 c -0.03962,-0.878608 1.543248,-3.1443 3.691406,-4.945312 0.22407,-0.1854 1.179686,-1.132812 1.179686,-1.132812 0,0 -1.288198,0.699148 -1.578124,0.878906 -2.691918,1.643754 -4.0316,3.2896 -4.25,4.382812 -0.06482,0.324712 -0.02268,0.72267 0.257812,0.886718 l 0.6875,0.35547 c 1.87376,0.959514 4.17913,-1.56271 7.242188,-7.054688 3.116956,-1.046034 7.005998,-2.032764 10.546874,-2.566406 3.169598,1.852716 6.8023,2.736294 8.19922,2.355468 0.265818,-0.0719 0.548606,-0.28776 0.691406,-0.484374 0.112,-0.18092 0.265624,-0.902344 0.265624,-0.902344 0,0 -0.260164,0.364796 -0.476562,0.472656 -0.884126,0.426958 -3.678712,-0.285158 -6.542968,-1.71875 2.476598,-0.269658 4.541892,-0.278504 5.64453,0.08204 1.40042,0.457306 1.401462,0.924044 1.382814,1.01953 0.019,-0.07862 0.08192,-0.393646 0.07422,-0.527344 -0.03178,-0.343818 -0.13688,-0.648426 -0.390624,-0.902344 -0.518378,-0.522456 -1.798852,-0.785004 -3.54297,-0.808594 -1.314598,-0.0146 -2.890484,0.10102 -4.601562,0.351564 -0.784168,-0.460658 -1.610006,-0.966756 -2.265626,-1.59375 -1.662778,-1.588758 -3.056396,-3.79276 -3.921874,-6.265626 0.05908,-0.237076 0.11638,-0.469414 0.16796,-0.703124 0.240562,-1.10669 0.410156,-4.765626 0.410156,-4.765626 0,0 -0.685336,2.749436 -0.792968,3.164062 -0.06916,0.262912 -0.15504,0.543808 -0.253906,0.835938 -0.525,-1.887518 -0.789062,-3.717936 -0.789062,-5.105468 0,-0.392126 0.03204,-1.154508 0.14062,-1.757812 0.05292,-0.43031 0.205082,-0.653846 0.363282,-0.76172 0.312998,0.07762 0.665486,0.569308 1.03125,1.390626 0.31409,0.710092 0.292968,1.530052 0.292968,2.039062 0,0 0.335778,-1.258994 0.257812,-2.003906 -0.04746,-0.447182 -0.463528,-1.599402 -1.347656,-1.585938 h -0.07032 z m 0.300782,11.429688 c 0.914914,1.881934 2.176812,3.667914 3.832032,5.101562 0.368996,0.319084 0.759896,0.620882 1.164062,0.90625 -3.005938,0.5719 -6.160194,1.379404 -9.09375,2.636718 0.530474,-0.96401 1.10384,-2.01584 1.691406,-3.148436 1.137834,-2.20103 1.82637,-3.897312 2.40625,-5.496094 z" />
  <path
     id="path7"
     style="fill:#ffffff;stroke-width:2"
     d="m 30.292968,26 c -0.645762,0 -1.24844,0.321768 -1.39453,0.855468 -0.542528,2.046066 0.06542,5.213786 1.078124,9.15625 l -0.308594,0.76172 c -0.775416,1.933636 -1.745336,3.857486 -2.597656,5.566406 -3.518896,7.043642 -6.252804,10.847032 -8.078124,11.11328 l -0.0078,-0.07812 c -0.03962,-0.878608 1.543248,-3.1443 3.691406,-4.945312 0.22407,-0.1854 1.179686,-1.132812 1.179686,-1.132812 0,0 -1.288198,0.699148 -1.578124,0.878906 -2.691918,1.643754 -4.0316,3.2896 -4.25,4.382812 -0.06482,0.324712 -0.02268,0.72267 0.257812,0.886718 l 0.6875,0.35547 c 1.87376,0.959514 4.17913,-1.56271 7.242188,-7.054688 3.116956,-1.046034 7.005998,-2.032764 10.546874,-2.566406 3.169598,1.852716 6.8023,2.736294 8.19922,2.355468 0.265818,-0.0719 0.548606,-0.28776 0.691406,-0.484374 0.112,-0.18092 0.265624,-0.902344 0.265624,-0.902344 0,0 -0.260164,0.364796 -0.476562,0.472656 -0.884126,0.426958 -3.678712,-0.285158 -6.542968,-1.71875 2.476598,-0.269658 4.541892,-0.278504 5.64453,0.08204 1.40042,0.457306 1.401462,0.924044 1.382814,1.01953 0.019,-0.07862 0.08192,-0.393646 0.07422,-0.527344 -0.03178,-0.343818 -0.13688,-0.648426 -0.390624,-0.902344 -0.518378,-0.522456 -1.798852,-0.785004 -3.54297,-0.808594 -1.314598,-0.0146 -2.890484,0.10102 -4.601562,0.351564 -0.784168,-0.460658 -1.610006,-0.966756 -2.265626,-1.59375 -1.662778,-1.588758 -3.056396,-3.79276 -3.921874,-6.265626 0.05908,-0.237076 0.11638,-0.469414 0.16796,-0.703124 0.240562,-1.10669 0.410156,-4.765626 0.410156,-4.765626 0,0 -0.685336,2.749436 -0.792968,3.164062 -0.06916,0.262912 -0.15504,0.543808 -0.253906,0.835938 -0.525,-1.887518 -0.789062,-3.717936 -0.789062,-5.105468 0,-0.392126 0.03204,-1.154508 0.14062,-1.757812 0.05292,-0.43031 0.205082,-0.653846 0.363282,-0.76172 0.312998,0.07762 0.665486,0.569308 1.03125,1.390626 0.31409,0.710092 0.292968,1.530052 0.292968,2.039062 0,0 0.335778,-1.258994 0.257812,-2.003906 -0.04746,-0.447182 -0.463528,-1.599402 -1.347656,-1.585938 h -0.07032 z m 0.300782,11.429688 c 0.914914,1.881934 2.176812,3.667914 3.832032,5.101562 0.368996,0.319084 0.759896,0.620882 1.164062,0.90625 -3.005938,0.5719 -6.160194,1.379404 -9.09375,2.636718 0.530474,-0.96401 1.10384,-2.01584 1.691406,-3.148436 1.137834,-2.20103 1.82637,-3.897312 2.40625,-5.496094 z" />
</svg>
