<?xml version="1.0" encoding="UTF-8" standalone="no"?>
<!-- Created with Inkscape (http://www.inkscape.org/) -->

<svg
   width="64"
   height="64"
   viewBox="0 0 64 64.000004"
   version="1.1"
   id="svg5"
   inkscape:version="1.3 (0e150ed6c4, 2023-07-21)"
   sodipodi:docname="application-x-deb.svg"
   xmlns:inkscape="http://www.inkscape.org/namespaces/inkscape"
   xmlns:sodipodi="http://sodipodi.sourceforge.net/DTD/sodipodi-0.dtd"
   xmlns="http://www.w3.org/2000/svg"
   xmlns:svg="http://www.w3.org/2000/svg">
  <sodipodi:namedview
     id="namedview7"
     pagecolor="#ffffff"
     bordercolor="#000000"
     borderopacity="0.25"
     inkscape:showpageshadow="2"
     inkscape:pageopacity="0.0"
     inkscape:pagecheckerboard="0"
     inkscape:deskcolor="#d1d1d1"
     inkscape:document-units="px"
     showgrid="false"
     inkscape:zoom="12.546875"
     inkscape:cx="32"
     inkscape:cy="32"
     inkscape:window-width="1850"
     inkscape:window-height="1011"
     inkscape:window-x="70"
     inkscape:window-y="32"
     inkscape:window-maximized="1"
     inkscape:current-layer="svg5" />
  <defs
     id="defs2" />
  <rect
     style="opacity:0.2;fill:#000000;fill-opacity:1;stroke-width:4;stroke-linecap:square"
     id="rect1785"
     width="56"
     height="56"
     x="3.999999"
     y="5"
     ry="6" />
  <rect
     style="fill:#fa6098;fill-opacity:1;stroke-width:2.8;stroke-linecap:square"
     id="rect1787"
     width="56"
     height="56"
     x="4"
     y="4"
     ry="6" />
  <path
     style="opacity:0.7;fill:#ffffff;stroke-width:2.41578"
     d="m 32.023082,36.756376 c 0.1599,-0.47808 0.18842,-0.765078 0.249568,-1.04338 -0.44064,0.550806 -0.203144,0.668208 -0.249568,1.04338 m 0.814362,-3.3234 c 0.07948,0.717492 -0.55225,0.99724 0.13962,0.523262 0.371554,-0.817504 -0.14446,-0.226124 -0.13962,-0.523262 m 12.091982,-6.28322 c 0.344498,-0.12296 0.84577,-0.06764 1.212726,-0.14858 -0.477118,0.0389 -0.951338,0.06232 -1.419516,0.12056 l 0.206912,0.02782 m 11.06599,13.402792 -0.07464,0.18394 c -0.13772,0.952302 -0.43484,1.89446 -0.88901,2.768492 0.502484,-0.921866 0.826202,-1.930456 0.963898,-2.952332 m -14.005282,2.975768 c -0.17806,-0.19184 -0.281444,-0.422284 -0.399574,-0.652508 0.11258,0.40344 0.342784,0.750344 0.556604,1.103532 l -0.15704,-0.450786 m -0.791172,0.03014 -0.072,0.34885 c 0.335084,0.44475 0.601052,0.926458 1.02816,1.27288 -0.307508,-0.586072 -0.535584,-0.82813 -0.956166,-1.62172 m 4.170856,-16.022712 -0.19182,0.03898 0.1782,-0.016 0.0132,-0.0229 m -0.5421,-0.14736 c 0.271998,0.04732 0.587684,0.08398 0.542316,0.14758 0.299022,-0.0642 0.36545,-0.12216 -0.54212,-0.14756 m 5.67323,12.2536 c 0.06202,-0.896594 -0.18034,-0.612738 -0.261798,-0.271216 0.09478,0.04866 0.1701,0.632382 0.261798,0.271216 m -1.008736,2.56702 c 0.30438,-0.40948 0.526638,-0.857364 0.603946,-1.320472 -0.07004,0.329758 -0.251248,0.614816 -0.42518,0.915828 -0.951334,0.58607 -0.0894,-0.347888 0,-0.703242 -1.023324,1.260322 -0.14012,0.75566 -0.17878,1.107886 m -2.732978,0.665302 c -0.509278,0.0064 0.09578,0.255886 0.760854,0.356184 0.1844,-0.14062 0.350078,-0.28188 0.498716,-0.419816 -0.413488,0.09898 -0.834806,0.1013 -1.25955,0.06362 m -14.735194,-6.11794 c 0.1599,-0.478808 0.18842,-0.76605 0.249568,-1.043622 -0.440882,0.551044 -0.203144,0.66869 -0.249568,1.043622 m 0.813876,-3.3234 c 0.07948,0.717732 -0.552004,0.996756 0.13988,0.52278 0.371554,-0.817506 -0.14446,-0.2254 -0.13988,-0.52278 M 44.929182,27.1486 c 0.344012,-0.12294 0.846112,-0.06764 1.212222,-0.1486 -0.476536,0.03898 -0.950686,0.0623 -1.41869,0.12062 l 0.206558,0.02812 m 11.066482,13.404 -0.07464,0.1839 c -0.13772,0.952544 -0.434842,1.894702 -0.88901,2.768734 0.502484,-0.921868 0.826196,-1.930458 0.963898,-2.952336 m -14.00456,2.975286 c -0.17734,-0.19182 -0.281446,-0.422524 -0.399576,-0.651782 0.11258,0.403678 0.343046,0.750348 0.556842,1.103532 l -0.15724,-0.45175 m -0.791174,0.03014 -0.072,0.34885 c 0.335046,0.444988 0.601018,0.926692 1.028126,1.273118 -0.307504,-0.586072 -0.535576,-0.82813 -0.956168,-1.621962 m 4.170374,-16.022952 -0.19124,0.03898 0.17828,-0.016 0.013,-0.0229 M 52.9659,40.015332 c 0.02782,0.752802 -0.220068,1.11863 -0.444452,1.765554 l -0.40356,0.20037 c -0.329908,0.640012 0.03274,0.406334 -0.203516,0.915172 -0.5156,0.457114 -1.562478,1.429928 -1.897572,1.519 -0.24502,-0.0056 0.16574,-0.288516 0.21943,-0.399162 -0.690748,0.472522 -0.55305,0.709268 -1.608024,0.996988 l -0.0305,-0.06884 c -2.599946,1.22142 -6.211792,-1.198718 -6.16444,-4.500372 -0.02752,0.209432 -0.07898,0.15704 -0.1365,0.241078 -0.13404,-1.698544 0.786096,-3.40457 2.337762,-4.102008 1.517838,-0.74986 3.297306,-0.442572 4.38441,0.569882 -0.597656,-0.781016 -1.78646,-1.608908 -3.194384,-1.532326 -1.379898,0.02232 -2.671134,0.89771 -3.101628,1.84832 -0.70662,0.444024 -0.789,1.712792 -1.096768,1.94495 -0.414818,3.041238 0.779336,4.35446 2.799656,5.900564 0.317072,0.21375 0.08928,0.246496 0.1317,0.409134 -0.671108,-0.313574 -1.285198,-0.787306 -1.790824,-1.367096 0.268404,0.391602 0.55781,0.772334 0.932012,1.071644 -0.633174,-0.213576 -1.478704,-1.53088 -1.724868,-1.584516 1.090724,1.949784 4.424994,3.418826 6.171852,2.689258 -0.808322,0.03128 -1.834796,0.0168 -2.742404,-0.317442 -0.38242,-0.19616 -0.90012,-0.601536 -0.807358,-0.677148 2.383368,0.888356 4.844622,0.672434 6.906258,-0.977474 0.524972,-0.408198 1.09802,-1.10211 1.263744,-1.11148 -0.249424,0.37452 0.04276,0.18008 -0.1489,0.510722 0.521856,-0.841614 -0.227574,-0.342752 0.53995,-1.453342 l 0.283388,0.3895 c -0.10608,-0.699228 0.869228,-1.547266 0.769986,-2.652296 0.223776,-0.337762 0.249366,0.363962 0.0118,1.141074 0.329276,-0.862192 0.08708,-1.00086 0.1714,-1.712646 0.09078,0.239282 0.211604,0.493256 0.273128,0.745972 -0.214736,-0.833524 0.21943,-1.40314 0.327416,-1.887722 -0.10672,-0.04674 -0.331174,0.368314 -0.382948,-0.615712 0.008,-0.42752 0.11956,-0.224038 0.16228,-0.329352 -0.08366,-0.04832 -0.304344,-0.376092 -0.438224,-1.00458 0.09642,-0.148 0.259682,0.382948 0.392006,0.40445 -0.08522,-0.499514 -0.231572,-0.880578 -0.23783,-1.264134 -0.387008,-0.80704 -0.137,0.1078 -0.450376,-0.346506 -0.41199,-1.281914 0.341486,-0.29757 0.392636,-0.879638 0.623614,0.902082 0.979092,2.301254 1.14296,2.880344 -0.12468,-0.706366 -0.326,-1.39095 -0.572266,-2.053098 0.1901,0.0801 -0.305572,-1.45305 0.246874,-0.437788 -0.592212,-2.164034 -2.523534,-4.186024 -4.30107,-5.134706 0.21743,0.19858 0.492288,0.44772 0.394132,0.487 -0.884174,-0.525158 -0.729564,-0.566708 -0.857596,-0.788478 -0.719904,-0.292552 -0.765806,0.02406 -1.244132,7.24e-4 -1.356464,-0.71942 -1.617856,-0.642842 -2.866572,-1.092904 l 0.05682,0.265506 c -0.899158,-0.299314 -1.047732,0.11282 -2.0196,4.86e-4 -0.05896,-0.04566 0.311638,-0.16692 0.61675,-0.21091 -0.869442,0.11476 -0.828854,-0.17126 -1.679696,0.03142 0.209432,-0.14664 0.431702,-0.244236 0.65516,-0.368894 -0.708788,0.04302 -1.692984,0.411894 -1.389316,0.0761 -1.156434,0.515296 -3.210342,1.238582 -4.362912,2.317714 l -0.0361,-0.241832 c -0.528244,0.632696 -2.303364,1.890112 -2.444688,2.710754 l -0.14156,0.0326 c -0.274202,0.464568 -0.452478,0.990968 -0.670382,1.468572 -0.359232,0.611676 -0.526884,0.235542 -0.47567,0.331444 -0.706858,1.430872 -1.058598,2.633208 -1.36178,3.619574 0.215952,0.322506 0.0056,1.94205 0.08696,3.237878 -0.35466,6.401356 4.499888,12.617176 9.806408,14.049736 0.777648,0.28023 1.934082,0.27055 2.918032,0.297162 -1.160546,-0.33095 -1.310326,-0.17636 -2.441396,-0.570128 -0.81557,-0.38411 -0.994096,-0.821368 -1.571954,-1.321436 l 0.228762,0.403508 C 41.014808,54.0845 41.488784,53.990282 40.566682,53.697976 l 0.244468,-0.316474 c -0.365526,-0.02904 -0.97091,-0.618444 -1.137114,-0.946994 l -0.402016,0.0158 c -0.482412,-0.594394 -0.739934,-1.021994 -0.720848,-1.355372 l -0.12996,0.23189 c -0.14684,-0.25348 -1.776074,-2.23199 -0.931028,-1.770576 -0.157,-0.14252 -0.365748,-0.23192 -0.592112,-0.6426 l 0.17196,-0.19598 c -0.406096,-0.524246 -0.748412,-1.193418 -0.722078,-1.415672 0.216938,0.292324 0.367196,0.345466 0.516496,0.396188 -1.027196,-2.543822 -1.08493,-0.14012 -1.862334,-2.589238 l 0.16416,-0.013 c -0.12586,-0.1904 -0.203144,-0.3957 -0.304162,-0.597904 l 0.07174,-0.712174 c -0.738998,-0.853518 -0.20633,-3.62926 -0.09928,-5.151204 0.0732,-0.618922 0.616994,-1.278434 1.029132,-2.31191 l -0.25151,-0.04276 c 0.481222,-0.837796 2.747232,-3.365194 3.797132,-3.235466 0.508284,-0.637526 -0.10122,-0.0024 -0.200742,-0.16258 1.117058,-1.15378 1.468314,-0.815086 2.22204,-1.022846 0.81243,-0.481464 -0.69768,0.1882 -0.312606,-0.1836 1.405508,-0.358018 0.995788,-0.814604 2.828886,-0.996272 0.19352,0.10968 -0.448612,0.16958 -0.609744,0.31188 1.17045,-0.572058 3.704608,-0.441364 5.351454,0.317194 1.909436,0.891668 4.05466,3.525602 4.141626,6.003714 l 0.09642,0.0258 c -0.04868,0.985282 0.15106,2.124714 -0.19568,3.170968 l 0.234412,-0.495744 m -8.138542,-12.62651 c 0.271998,0.04732 0.587666,0.08396 0.542322,0.14758 0.298612,-0.06432 0.365746,-0.1223 -0.542322,-0.14758 M 50.501778,39.6411 c 0.06204,-0.89662 -0.18032,-0.612738 -0.261798,-0.271214 0.09478,0.04862 0.1701,0.632404 0.261798,0.271214 m -1.0098,2.567018 c 0.30438,-0.409476 0.526642,-0.857364 0.603946,-1.320472 -0.07006,0.32976 -0.251248,0.614576 -0.425182,0.915828 -0.951332,0.586068 -0.08934,-0.347886 0,-0.703234 -1.023326,1.260314 -0.14012,0.755658 -0.17878,1.107878 m -2.732496,0.666034 c -0.509248,0.0064 0.09562,0.255856 0.76073,0.356072 0.18432,-0.1406 0.350042,-0.281938 0.49862,-0.419868 -0.413344,0.09902 -0.83466,0.10144 -1.25935,0.06378"
     id="path1" />
  <rect
     style="opacity:0.2;fill:#000000;fill-opacity:1"
     id="rect2693"
     width="10"
     height="30"
     x="15"
     y="4" />
  <path
     id="rect2365"
     style="fill:#ffffff"
     d="m 20,4 v 3 h 3 V 4 Z m 0,3 h -3 v 3 h 3 z m 0,3 v 3 h 3 v -3 z m 0,3 h -3 v 3 h 3 z m 0,3 v 3 h 3 v -3 z m 0,3 h -3 v 3 h 3 z m 0,3 v 3 h 3 v -3 z m 0,3 h -3 v 3 h 3 z" />
  <path
     style="fill:#4b4b4b"
     d="m 20,25 c 3.75,0 3.75,5.6 5,5.6 v 7 c 0,0.7756 -0.5575,1.4 -1.25,1.4 h -7.5 C 15.5575,39 15,38.3756 15,37.6 v -7 c 1.25,0 1.25,-5.6 5,-5.6 z"
     id="path2369" />
  <path
     d="M 19.66797,32 C 17.08264,32 15,34.10272 15,36.71094 v 9.57812 C 15,48.89728 17.08264,51 19.66797,51 h 0.66406 C 22.91736,51 25,48.89728 25,46.28906 V 36.71094 C 25,34.10272 22.91736,32 20.33203,32 Z M 20,42 c 2.20914,0 4,1.79288 4,4.00195 C 24,48.21103 22.20914,50 20,50 17.79086,50 16,48.21103 16,46.00195 16,43.79288 17.79086,42 20,42 Z"
     style="opacity:0.2;fill:#000000"
     id="path2570" />
  <path
     style="fill:#ffffff"
     d="M 19.66797,31 C 17.08264,31 15,33.10272 15,35.71094 v 9.57812 C 15,47.89728 17.08264,50 19.66797,50 h 0.66406 C 22.91736,50 25,47.89728 25,45.28906 V 35.71094 C 25,33.10272 22.91736,31 20.33203,31 Z M 20,41 c 2.20914,0 4,1.79288 4,4.00195 C 24,47.21103 22.20914,49 20,49 17.79086,49 16,47.21103 16,45.00195 16,42.79288 17.79086,41 20,41 Z"
     id="path2373" />
  <path
     style="fill:#909090"
     d="M 19.98437,27.00012 A 1.0001,0.99660733 0 0 0 19,28.01025 v 5.97905 a 1.0001,0.99660733 0 1 0 2,0 v -5.97905 a 1.0001,0.99660733 0 0 0 -1.01563,-1.01013 z"
     id="path2375" />
  <path
     id="rect814"
     style="opacity:0.2;fill:#ffffff;stroke-width:4;stroke-linecap:square"
     d="m 10.000001,4 c -3.3239967,0 -6,2.6760033 -6,5.9999998 V 11 c 0,-3.3239967 2.6760033,-6 6,-6 h 43.999998 c 3.323996,0 6,2.6760033 6,6 V 9.9999998 C 59.999999,6.6760033 57.323995,4 53.999999,4 Z" />
</svg>
