<?xml version="1.0" encoding="UTF-8" standalone="no"?>
<!-- Created with Inkscape (http://www.inkscape.org/) -->

<svg
   width="64"
   height="64"
   viewBox="0 0 64 64.000004"
   version="1.1"
   id="svg5"
   inkscape:version="1.3 (0e150ed6c4, 2023-07-21)"
   sodipodi:docname="application-x-theme.svg"
   xmlns:inkscape="http://www.inkscape.org/namespaces/inkscape"
   xmlns:sodipodi="http://sodipodi.sourceforge.net/DTD/sodipodi-0.dtd"
   xmlns="http://www.w3.org/2000/svg"
   xmlns:svg="http://www.w3.org/2000/svg">
  <sodipodi:namedview
     id="namedview7"
     pagecolor="#ffffff"
     bordercolor="#000000"
     borderopacity="0.25"
     inkscape:showpageshadow="2"
     inkscape:pageopacity="0.0"
     inkscape:pagecheckerboard="0"
     inkscape:deskcolor="#d1d1d1"
     inkscape:document-units="px"
     showgrid="false"
     inkscape:zoom="12.453125"
     inkscape:cx="31.959849"
     inkscape:cy="32"
     inkscape:window-width="1850"
     inkscape:window-height="1011"
     inkscape:window-x="0"
     inkscape:window-y="0"
     inkscape:window-maximized="1"
     inkscape:current-layer="svg5" />
  <defs
     id="defs2" />
  <path
     id="rect234"
     style="opacity:0.2;stroke-width:1;stroke-linecap:round;stroke-linejoin:round"
     d="m 14,5 h 24 l 16,16 v 36 c 0,2.216 -1.784,4 -4,4 H 14 c -2.216,0 -4,-1.784 -4,-4 V 9 c 0,-2.216 1.784,-4 4,-4 z" />
  <path
     id="rect448"
     style="fill:#e0e0e0;fill-opacity:1;stroke-width:1;stroke-linecap:round;stroke-linejoin:round"
     d="m 14,4 h 24 l 6,10 10,6 v 36 c 0,2.216 -1.784,4 -4,4 H 14 c -2.216,0 -4,-1.784 -4,-4 V 8 c 0,-2.216 1.784,-4 4,-4 z" />
  <path
     d="m 43.269734,28.011326 c -1.806956,-0.22779 -6.520598,3.003194 -11.166126,7.650552 -2.071632,2.072882 -3.86954,4.121336 -5.24657,6.05348 1.6139,0.514192 2.914598,1.814032 3.42852,3.428518 1.931402,-1.377424 3.984506,-3.167506 6.056826,-5.239876 5.270532,-5.272718 8.593686,-10.496138 7.422878,-11.66835 -0.12034,-0.1212 -0.28452,-0.19724 -0.495528,-0.22431 z M 25.99991,43.995458 v 0.0034 C 20.000324,45.607204 24.499682,49.406402 20,52.000934 c 5.999586,0 8.999862,-3.003082 8.999862,-5.005506 0,-0.998178 0.10172,-2.83384 -2.999952,-2.999956 z"
     style="color:#444444;fill:#8c64c4;fill-opacity:1;stroke-width:1.71425"
     id="path1" />
  <path
     id="path611"
     style="opacity:0.2;fill:#000000;stroke-width:1;stroke-linecap:round;stroke-linejoin:round"
     d="m 38,4 v 13 c 0,2.215998 1.784002,4 4,4 h 12 v -1 z" />
  <path
     id="rect600"
     style="fill:#f5f5f5;fill-opacity:1;stroke-width:1;stroke-linecap:round;stroke-linejoin:round"
     d="M 54,20 H 42 c -2.216,0 -4,-1.784 -4,-4 V 4 Z" />
  <path
     id="path1133"
     style="opacity:0.2;fill:#ffffff;fill-opacity:1;stroke-width:1;stroke-linecap:round;stroke-linejoin:round"
     d="m 14,4 c -2.215994,0 -4,1.7840066 -4,4 v 1 c 0,-2.2159936 1.784006,-4 4,-4 h 24 l 15,15 h 1 L 38,4 Z" />
</svg>
