<?xml version="1.0" encoding="UTF-8" standalone="no"?>
<!-- Created with Inkscape (http://www.inkscape.org/) -->

<svg
   width="64"
   height="64"
   viewBox="0 0 64 64.000004"
   version="1.1"
   id="svg5"
   inkscape:version="1.3 (0e150ed6c4, 2023-07-21)"
   sodipodi:docname="inode-symlink.svg"
   xmlns:inkscape="http://www.inkscape.org/namespaces/inkscape"
   xmlns:sodipodi="http://sodipodi.sourceforge.net/DTD/sodipodi-0.dtd"
   xmlns="http://www.w3.org/2000/svg"
   xmlns:svg="http://www.w3.org/2000/svg">
  <sodipodi:namedview
     id="namedview7"
     pagecolor="#ffffff"
     bordercolor="#000000"
     borderopacity="0.25"
     inkscape:showpageshadow="2"
     inkscape:pageopacity="0.0"
     inkscape:pagecheckerboard="0"
     inkscape:deskcolor="#d1d1d1"
     inkscape:document-units="px"
     showgrid="false"
     inkscape:zoom="12.234375"
     inkscape:cx="32"
     inkscape:cy="32"
     inkscape:window-width="1920"
     inkscape:window-height="984"
     inkscape:window-x="0"
     inkscape:window-y="29"
     inkscape:window-maximized="1"
     inkscape:current-layer="svg5" />
  <defs
     id="defs2" />
  <path
     id="rect234"
     style="opacity:0.2;stroke-width:1;stroke-linecap:round;stroke-linejoin:round"
     d="m 14,5 h 24 l 16,16 v 36 c 0,2.216 -1.784,4 -4,4 H 14 c -2.216,0 -4,-1.784 -4,-4 V 9 c 0,-2.216 1.784,-4 4,-4 z" />
  <path
     id="rect448"
     style="fill:#4f6772;fill-opacity:1;stroke-width:1;stroke-linecap:round;stroke-linejoin:round"
     d="m 14,4 h 24 l 6,10 10,6 v 36 c 0,2.216 -1.784,4 -4,4 H 14 c -2.216,0 -4,-1.784 -4,-4 V 8 c 0,-2.216 1.784,-4 4,-4 z" />
  <path
     style="opacity:0.2;fill:#000000;stroke-width:2"
     d="m 24,26.999994 1.091346,1.128562 c 0.825254,0.93773 1.754836,1.788978 2.603364,2.70457 0.0094,0.0086 0.02382,0.0138 0.03366,0.02238 l 1.377404,1.424376 c -2.396286,2.520108 -5.141984,6.862516 -5.098558,10.41061 -0.09512,2.36206 0.82066,4.649734 2.283654,6.458158 2.379388,2.946468 5.941046,4.692274 9.540864,5.550834 0.518658,0.12512 3.165346,0.680432 1.716344,-0.13672 -2.484274,-1.211454 -5.137046,-2.582184 -6.524034,-5.13073 -1.51557,-2.416466 -0.46474,-5.888318 1.17548,-8.35981 0.69283,-0.896904 1.568102,-2.234216 2.509614,-2.997898 L 40,43.5456 v -8.605902 -7.939704 h -0.005 z"
     id="path5" />
  <path
     style="fill:#ffffff;stroke-width:2"
     d="m 24,26 1.091346,1.128562 c 0.825254,0.93773 1.754836,1.788978 2.603364,2.70457 0.0094,0.0086 0.02382,0.0138 0.03366,0.02238 l 1.377404,1.424376 c -2.396286,2.520108 -5.141984,6.862516 -5.098558,10.41061 -0.09512,2.36206 0.82066,4.649734 2.283654,6.458158 2.379388,2.946468 5.941046,4.692274 9.540864,5.550834 0.518658,0.12512 3.165346,0.680432 1.716344,-0.13672 -2.484274,-1.211454 -5.137046,-2.582184 -6.524034,-5.13073 -1.51557,-2.416466 -0.46474,-5.888318 1.17548,-8.35981 0.69283,-0.896904 1.568102,-2.234216 2.509614,-2.997898 L 40,42.545606 V 33.939704 26 h -0.005 z"
     id="path6" />
  <path
     id="path611"
     style="opacity:0.2;fill:#000000;stroke-width:1;stroke-linecap:round;stroke-linejoin:round"
     d="m 38,4 v 13 c 0,2.215998 1.784002,4 4,4 h 12 v -1 z" />
  <path
     id="rect600"
     style="fill:#839ea9;fill-opacity:1;stroke-width:1;stroke-linecap:round;stroke-linejoin:round"
     d="M 54,20 H 42 c -2.216,0 -4,-1.784 -4,-4 V 4 Z" />
  <path
     id="path1133"
     style="opacity:0.1;fill:#ffffff;fill-opacity:1;stroke-width:1;stroke-linecap:round;stroke-linejoin:round"
     d="m 14,4 c -2.215994,0 -4,1.7840066 -4,4 v 1 c 0,-2.2159936 1.784006,-4 4,-4 h 24 l 15,15 h 1 L 38,4 Z" />
</svg>
