<?xml version="1.0" encoding="UTF-8" standalone="no"?>
<!-- Created with Inkscape (http://www.inkscape.org/) -->

<svg
   width="64"
   height="64"
   viewBox="0 0 64 64.000004"
   version="1.1"
   id="svg5"
   inkscape:version="1.2.2 (1:1.2.2+202305151914+b0a8486541)"
   sodipodi:docname="text-x-script.svg"
   xmlns:inkscape="http://www.inkscape.org/namespaces/inkscape"
   xmlns:sodipodi="http://sodipodi.sourceforge.net/DTD/sodipodi-0.dtd"
   xmlns="http://www.w3.org/2000/svg"
   xmlns:svg="http://www.w3.org/2000/svg">
  <sodipodi:namedview
     id="namedview7"
     pagecolor="#ffffff"
     bordercolor="#000000"
     borderopacity="0.25"
     inkscape:showpageshadow="2"
     inkscape:pageopacity="0.0"
     inkscape:pagecheckerboard="0"
     inkscape:deskcolor="#d1d1d1"
     inkscape:document-units="px"
     showgrid="false"
     inkscape:zoom="12.59375"
     inkscape:cx="32"
     inkscape:cy="32"
     inkscape:window-width="1920"
     inkscape:window-height="1008"
     inkscape:window-x="0"
     inkscape:window-y="0"
     inkscape:window-maximized="1"
     inkscape:current-layer="svg5" />
  <defs
     id="defs2" />
  <path
     id="rect234"
     style="opacity:0.2;stroke-width:1;stroke-linecap:round;stroke-linejoin:round"
     d="m 14,5 h 24 l 16,16 v 36 c 0,2.216 -1.784,4 -4,4 H 14 c -2.216,0 -4,-1.784 -4,-4 V 9 c 0,-2.216 1.784,-4 4,-4 z" />
  <path
     id="rect448"
     style="fill:#4f4f4f;fill-opacity:1;stroke-width:1;stroke-linecap:round;stroke-linejoin:round"
     d="m 14,4 h 24 l 6,10 10,6 v 36 c 0,2.216 -1.784,4 -4,4 H 14 c -2.216,0 -4,-1.784 -4,-4 V 8 c 0,-2.216 1.784,-4 4,-4 z" />
  <path
     style="opacity:0.2;fill:#000000"
     d="m 24.476865,29.000187 c -0.82806,0.0129 -1.489,0.693077 -1.47656,1.519531 v 3.480469 h -3.48242 c -2.02452,-0.02869 -2.02452,3.028688 0,3 h 3.48242 v 6 h -3.48242 c -2.02452,-0.02869 -2.02452,3.028688 0,3 h 3.48242 v 3.482422 c -0.0287,2.024524 3.02869,2.024524 3,0 v -3.482422 h 6 v 3.482422 c -0.0287,2.024524 3.02869,2.024524 3,0 v -3.482422 h 3.48242 c 0.84402,0.0116 1.53076,-0.677791 1.51758,-1.523438 -0.0129,-0.82729 -0.69188,-1.487914 -1.51758,-1.476562 h -3.48242 v -6 h 3.48242 c 0.84402,0.0116 1.53076,-0.677791 1.51758,-1.523438 -0.0129,-0.82729 -0.69188,-1.487914 -1.51758,-1.476562 h -3.48242 v -3.480469 c 0.0127,-0.844783 -0.67701,-1.532743 -1.52344,-1.519531 -0.82806,0.0129 -1.489,0.693077 -1.47656,1.519531 v 3.480469 h -6 v -3.480469 c 0.0127,-0.844783 -0.67701,-1.532743 -1.52344,-1.519531 z m 20,0 c -0.82766,0.0129 -1.48843,0.693471 -1.47656,1.519531 v 13.962891 c -0.0287,2.024524 3.02869,2.024524 3,0 V 30.519718 c 0.0121,-0.844384 -0.67742,-1.532727 -1.52344,-1.519531 z m -18.47656,8 h 6 v 6 h -6 z m 18.5,12 c -0.82843,0 -1.5,0.671573 -1.5,1.5 0,0.828427 0.67157,1.5 1.5,1.5 0.82843,0 1.5,-0.671573 1.5,-1.5 0,-0.828427 -0.67157,-1.5 -1.5,-1.5 z"
     id="path1360"
     sodipodi:nodetypes="scccccccccccccccccsccccscccsccccssccccscccccsssss" />
  <path
     style="fill:#ffffff"
     d="m 24.476865,28.000187 c -0.82806,0.0129 -1.489,0.693077 -1.47656,1.519531 v 3.480469 h -3.48242 c -2.02452,-0.02869 -2.02452,3.028688 0,3 h 3.48242 v 6 h -3.48242 c -2.02452,-0.02869 -2.02452,3.028688 0,3 h 3.48242 v 3.482422 c -0.0287,2.024524 3.02869,2.024524 3,0 v -3.482422 h 6 v 3.482422 c -0.0287,2.024524 3.02869,2.024524 3,0 v -3.482422 h 3.48242 c 0.84402,0.0116 1.53076,-0.677791 1.51758,-1.523438 -0.0129,-0.82729 -0.69188,-1.487914 -1.51758,-1.476562 h -3.48242 v -6 h 3.48242 c 0.84402,0.0116 1.53076,-0.677791 1.51758,-1.523438 -0.0129,-0.82729 -0.69188,-1.487914 -1.51758,-1.476562 h -3.48242 v -3.480469 c 0.0127,-0.844783 -0.67701,-1.532743 -1.52344,-1.519531 -0.82806,0.0129 -1.489,0.693077 -1.47656,1.519531 v 3.480469 h -6 v -3.480469 c 0.0127,-0.844783 -0.67701,-1.532743 -1.52344,-1.519531 z m 20,0 c -0.82766,0.0129 -1.48843,0.693471 -1.47656,1.519531 v 13.962891 c -0.0287,2.024524 3.02869,2.024524 3,0 V 29.519718 c 0.0121,-0.844384 -0.67742,-1.532727 -1.52344,-1.519531 z m -18.47656,8 h 6 v 6 h -6 z m 18.5,12 c -0.82843,0 -1.5,0.671573 -1.5,1.5 0,0.828427 0.67157,1.5 1.5,1.5 0.82843,0 1.5,-0.671573 1.5,-1.5 0,-0.828427 -0.67157,-1.5 -1.5,-1.5 z"
     id="path1362"
     sodipodi:nodetypes="scccccccccccccccccsccccscccsccccssccccscccccsssss" />
  <path
     d="M 54,21 H 42 c -2.216,0 -4,-1.784 -4,-4 V 4 l 16,16 z"
     style="opacity:0.2;fill:#000000;stroke-width:1;stroke-linecap:round;stroke-linejoin:round"
     id="path611"
     sodipodi:nodetypes="cssccc" />
  <path
     id="rect600"
     style="fill:#696969;fill-opacity:1;stroke-width:1;stroke-linecap:round;stroke-linejoin:round"
     d="M 54,20 H 42 c -2.216,0 -4,-1.784 -4,-4 V 4 Z" />
  <path
     id="path1133"
     style="opacity:0.1;fill:#ffffff;fill-opacity:1;stroke-width:1;stroke-linecap:round;stroke-linejoin:round"
     d="m 14,4 c -2.215996,0 -4,1.7840043 -4,4 v 1 c 0,-2.2159957 1.784004,-4 4,-4 h 24 l 15,15 h 1 L 38,4 Z" />
</svg>
