<?xml version="1.0" encoding="UTF-8" standalone="no"?>
<!-- Created with Inkscape (http://www.inkscape.org/) -->

<svg
   width="64"
   height="64"
   viewBox="0 0 64 64"
   version="1.1"
   id="svg5"
   inkscape:version="1.2.2 (1:1.2.2+202305151914+b0a8486541)"
   sodipodi:docname="video-x-generic.svg"
   xmlns:inkscape="http://www.inkscape.org/namespaces/inkscape"
   xmlns:sodipodi="http://sodipodi.sourceforge.net/DTD/sodipodi-0.dtd"
   xmlns="http://www.w3.org/2000/svg"
   xmlns:svg="http://www.w3.org/2000/svg">
  <sodipodi:namedview
     id="namedview7"
     pagecolor="#ffffff"
     bordercolor="#000000"
     borderopacity="0.25"
     inkscape:showpageshadow="2"
     inkscape:pageopacity="0.0"
     inkscape:pagecheckerboard="0"
     inkscape:deskcolor="#d1d1d1"
     inkscape:document-units="px"
     showgrid="false"
     inkscape:zoom="12.96875"
     inkscape:cx="32"
     inkscape:cy="32"
     inkscape:window-width="1920"
     inkscape:window-height="1008"
     inkscape:window-x="0"
     inkscape:window-y="0"
     inkscape:window-maximized="1"
     inkscape:current-layer="svg5" />
  <defs
     id="defs2" />
  <rect
     style="opacity:0.2;fill:#000000;stroke-linecap:round;stroke-linejoin:round"
     id="rect344"
     width="56"
     height="48"
     x="4"
     y="9"
     ry="6" />
  <rect
     style="fill:#7986cb;fill-opacity:1;stroke-linecap:round;stroke-linejoin:round"
     id="rect234"
     width="56"
     height="48"
     x="4"
     y="8"
     ry="6" />
  <path
     d="M 24.117165,19.342751 C 22.262662,18.33354 20.003341,19.673815 20,21.785137 v 22.286771 c 0.0033,2.11132 2.262662,3.451601 4.117165,2.442387 L 44.545978,35.37527 c 1.938693,-1.055113 1.938693,-3.838381 0,-4.893495 z"
     id="path1738"
     style="opacity:0.2;fill:#000000" />
  <path
     d="M 24.117165,18.342751 C 22.262662,17.33354 20.003341,18.673815 20,20.785137 v 22.286771 c 0.0033,2.11132 2.262662,3.451601 4.117165,2.442387 L 44.545978,34.37527 c 1.938693,-1.055113 1.938693,-3.838381 0,-4.893495 z"
     style="fill:#ffffff;fill-opacity:1;stroke-width:4.46608;stroke-linecap:round;stroke-linejoin:round;stroke-miterlimit:1"
     id="path1710"
     sodipodi:nodetypes="ccccccc" />
  <path
     id="rect1810"
     style="opacity:0.2;fill:#ffffff;fill-opacity:1;stroke-width:4;stroke-linecap:square"
     d="M 10 8 C 6.6760033 8 4 10.676003 4 14 L 4 15 C 4 11.676003 6.6760033 9 10 9 L 54 9 C 57.323997 9 60 11.676003 60 15 L 60 14 C 60 10.676003 57.323997 8 54 8 L 10 8 z " />
</svg>
