<?xml version="1.0" encoding="UTF-8" standalone="no"?>
<!-- Created with Inkscape (http://www.inkscape.org/) -->

<svg
   width="64"
   height="64"
   viewBox="0 0 64 64.000004"
   version="1.1"
   id="svg5"
   inkscape:version="1.2.2 (1:1.2.2+202305151914+b0a8486541)"
   sodipodi:docname="x-office-document.svg"
   xmlns:inkscape="http://www.inkscape.org/namespaces/inkscape"
   xmlns:sodipodi="http://sodipodi.sourceforge.net/DTD/sodipodi-0.dtd"
   xmlns="http://www.w3.org/2000/svg"
   xmlns:svg="http://www.w3.org/2000/svg">
  <sodipodi:namedview
     id="namedview7"
     pagecolor="#ffffff"
     bordercolor="#000000"
     borderopacity="0.25"
     inkscape:showpageshadow="2"
     inkscape:pageopacity="0.0"
     inkscape:pagecheckerboard="0"
     inkscape:deskcolor="#d1d1d1"
     inkscape:document-units="px"
     showgrid="false"
     inkscape:zoom="12.59375"
     inkscape:cx="31.960298"
     inkscape:cy="32"
     inkscape:window-width="1920"
     inkscape:window-height="1008"
     inkscape:window-x="0"
     inkscape:window-y="0"
     inkscape:window-maximized="1"
     inkscape:current-layer="svg5" />
  <defs
     id="defs2" />
  <path
     id="rect234"
     style="opacity:0.2;stroke-width:1;stroke-linecap:round;stroke-linejoin:round"
     d="m 14,5 h 24 l 16,16 v 36 c 0,2.216 -1.784,4 -4,4 H 14 c -2.216,0 -4,-1.784 -4,-4 V 9 c 0,-2.216 1.784,-4 4,-4 z" />
  <path
     id="rect448"
     style="fill:#e0e0e0;fill-opacity:1;stroke-width:1;stroke-linecap:round;stroke-linejoin:round"
     d="m 14,4 h 24 l 6,10 10,6 v 36 c 0,2.216 -1.784,4 -4,4 H 14 c -2.216,0 -4,-1.784 -4,-4 V 8 c 0,-2.216 1.784,-4 4,-4 z" />
  <path
     id="path2519"
     style="opacity:0.2;fill:#000000;fill-opacity:1;stroke-width:1"
     d="M 23 31 L 18 43 L 20 43 L 21.667969 39 L 26.332031 39 L 28 43 L 30 43 L 25 31 L 23 31 z M 34 31 L 34 33 L 46 33 L 46 31 L 34 31 z M 24 33.398438 L 25.5 37 L 22.5 37 L 24 33.398438 z M 34 36 L 34 38 L 46 38 L 46 36 L 34 36 z M 34 41 L 34 43 L 46 43 L 46 41 L 34 41 z M 18 47 L 18 49 L 38 49 L 38 47 L 18 47 z " />
  <path
     id="path2408"
     style="fill:#757575;fill-opacity:1;stroke-width:1"
     d="M 34 30 L 34 32 L 46 32 L 46 30 L 34 30 z M 34 35 L 34 37 L 46 37 L 46 35 L 34 35 z M 34 40 L 34 42 L 46 42 L 46 40 L 34 40 z M 18 46 L 18 48 L 38 48 L 38 46 L 18 46 z " />
  <path
     d="m 23,30 -5,12 h 2 l 1.66796,-4 h 4.66408 L 28,42 h 2 L 25,30 Z M 24,32.398438 25.5,36 h -3 z"
     style="fill:#1565c0;stroke-width:4;stroke-linecap:square"
     id="path2201" />
  <path
     d="M 54,21 H 42 c -2.216,0 -4,-1.784 -4,-4 V 4 l 16,16 z"
     style="opacity:0.2;fill:#000000;stroke-width:1;stroke-linecap:round;stroke-linejoin:round"
     id="path611" />
  <path
     id="rect600"
     style="fill:#f5f5f5;fill-opacity:1;stroke-width:1;stroke-linecap:round;stroke-linejoin:round"
     d="M 54,20 H 42 c -2.216,0 -4,-1.784 -4,-4 V 4 Z" />
  <path
     id="path1133"
     style="opacity:0.2;fill:#ffffff;fill-opacity:1;stroke-width:1;stroke-linecap:round;stroke-linejoin:round"
     d="m 14,4 c -2.215996,0 -4,1.7840043 -4,4 v 1 c 0,-2.2159957 1.784004,-4 4,-4 h 24 l 15,15 h 1 L 38,4 Z" />
</svg>
