<?xml version="1.0" encoding="UTF-8" standalone="no"?>
<!-- Created with Inkscape (http://www.inkscape.org/) -->

<svg
   width="16"
   height="16"
   viewBox="0 0 16 16"
   version="1.1"
   id="svg402"
   inkscape:version="1.3.2 (1:1.3.2+202404261509+091e20ef0f)"
   sodipodi:docname="folder-purple-games.svg"
   xmlns:inkscape="http://www.inkscape.org/namespaces/inkscape"
   xmlns:sodipodi="http://sodipodi.sourceforge.net/DTD/sodipodi-0.dtd"
   xmlns="http://www.w3.org/2000/svg"
   xmlns:svg="http://www.w3.org/2000/svg">
  <sodipodi:namedview
     id="namedview404"
     pagecolor="#ffffff"
     bordercolor="#000000"
     borderopacity="0.25"
     inkscape:showpageshadow="2"
     inkscape:pageopacity="0.0"
     inkscape:pagecheckerboard="0"
     inkscape:deskcolor="#d1d1d1"
     inkscape:document-units="px"
     showgrid="false"
     inkscape:zoom="51.875"
     inkscape:cx="8"
     inkscape:cy="8.0096386"
     inkscape:window-width="1920"
     inkscape:window-height="1006"
     inkscape:window-x="0"
     inkscape:window-y="0"
     inkscape:window-maximized="1"
     inkscape:current-layer="svg402" />
  <defs
     id="defs399" />
  <path
     d="m 3.0000002,2 c -1.1045674,0 -2,0.8954327 -2,2 v 9.000001 c 0,1.104568 0.8954304,2 2,2 H 13 c 1.104569,0 2,-0.895432 2,-2 V 6 C 15,4.8954327 14.104567,4 13,4 H 9.0000001 l -2,-2 z"
     style="fill:#b16286;fill-opacity:1"
     id="path392" />
  <path
     d="m 10.117042,7.0000192 c -0.1199998,0.001 -0.2299998,0.039 -0.3339998,0.113 -0.263,0.189 -0.814,0.39 -1.783,0.391 -0.97,10e-4 -1.5198,-0.202 -1.7828,-0.391 -0.104,-0.074 -0.203,-0.11 -0.3244,-0.109 -0.1212,0 -0.2599,0.033 -0.4024,0.109 -0.5188,0.274 -0.9964,1.17 -1.2558,2.332 -0.2212,0.9879998 -0.3018,2.3379998 -0.1699,2.8809998 0.115,0.467 0.3139,0.674 0.666,0.674 0.523,-0.009 1.1791,-0.591 1.5955,-1.377 0.302,-0.435 0.9998,-0.633 1.6738,-0.611 0.674,-0.024 1.372,0.176 1.674,0.611 0.4169998,0.785 1.0729998,1.368 1.5959998,1.377 0.352,0 0.551,-0.207 0.666,-0.674 0.131,-0.543 0.051,-1.893 -0.17,-2.8809998 -0.259,-1.162 -0.736,-2.058 -1.254,-2.332 -0.143,-0.076 -0.274,-0.114 -0.395,-0.113 z m -4.1167998,1 c 0.552207,1.1e-4 0.9998,0.447793 0.9998,1 0,0.552207 -0.447593,0.99989 -0.9998,0.9999998 -0.552285,0 -1,-0.4477148 -1,-0.9999998 0,-0.552285 0.447715,-1 1,-1 z m 3.4998,0 c 0.276178,5.5e-5 0.5000278,0.223905 0.4999998,0.5 2.8e-5,0.276095 -0.2238218,0.499945 -0.4999998,0.5 -0.276178,-5.5e-5 -0.500028,-0.223905 -0.5,-0.5 -2.8e-5,-0.276095 0.223822,-0.499945 0.5,-0.5 z m 0.9999998,1 c 0.276178,5.5e-5 0.500028,0.223905 0.5,0.5 2.8e-5,0.276095 -0.223822,0.499945 -0.5,0.4999998 -0.276178,-5.48e-5 -0.500028,-0.2239048 -0.5,-0.4999998 -2.8e-5,-0.276095 0.223822,-0.499945 0.5,-0.5 z"
     style="opacity:0.5;fill:#000000"
     id="path1" />
</svg>
