<?xml version="1.0" encoding="UTF-8" standalone="no"?>
<svg
   width="16"
   height="16"
   version="1.1"
   id="svg3"
   sodipodi:docname="x-office-presentation-symbolic.svg"
   inkscape:version="1.4.3 (0d15f75042, 2025-12-25)"
   xmlns:inkscape="http://www.inkscape.org/namespaces/inkscape"
   xmlns:sodipodi="http://sodipodi.sourceforge.net/DTD/sodipodi-0.dtd"
   xmlns="http://www.w3.org/2000/svg"
   xmlns:svg="http://www.w3.org/2000/svg">
  <defs
     id="defs3">
    <style
       id="current-color-scheme"
       type="text/css">
        .ColorScheme-Text { color:#dfdfdf; } .ColorScheme-Highlight { color:#4285f4; } .ColorScheme-NeutralText { color:#ff9800; } .ColorScheme-PositiveText { color:#4caf50; } .ColorScheme-NegativeText { color:#f44336; }
     </style>
  </defs>
  <sodipodi:namedview
     id="namedview3"
     pagecolor="#ffffff"
     bordercolor="#000000"
     borderopacity="0.25"
     inkscape:showpageshadow="2"
     inkscape:pageopacity="0.0"
     inkscape:pagecheckerboard="0"
     inkscape:deskcolor="#d1d1d1"
     inkscape:zoom="36.4375"
     inkscape:cx="8"
     inkscape:cy="8"
     inkscape:window-width="1440"
     inkscape:window-height="831"
     inkscape:window-x="0"
     inkscape:window-y="0"
     inkscape:window-maximized="1"
     inkscape:current-layer="svg3" />
  <g
     id="g1"
     style="opacity:1;fill:currentColor;fill-opacity:1"
     class="ColorScheme-Text" >
    <path
       id="path1"
       d="M 3 0 C 1.892 0 1 0.892 1 2 L 1 14 C 1 15.108 1.892 16 3 16 L 13 16 C 14.108 16 15 15.108 15 14 L 15 5 L 10 0 L 3 0 z M 3 2 L 9 2 L 9 4 C 9 5.108 9.892 6 11 6 L 13 6 L 13 14 L 3 14 L 3 2 z " />
    <path
       id="path2"
       d="M 7 7 A 3 3 0 0 0 4 10 A 3 3 0 0 0 7 13 A 3 3 0 0 0 10 10 L 7 10 L 7 7 z " />
    <path
       id="path3"
       style="opacity:0.35"
       d="M 8 6 L 8 9 L 11 9 A 3 3 0 0 0 8 6 z " />
  </g>
</svg>
