<?xml version="1.0" encoding="UTF-8" standalone="no"?>
<!-- Created with Inkscape (http://www.inkscape.org/) -->

<svg
   width="22"
   height="22"
   viewBox="0 0 22 22.000001"
   version="1.1"
   id="svg5"
   inkscape:version="1.2.2 (1:1.2.2+202305151914+b0a8486541)"
   sodipodi:docname="application-vnd.ms-excel.svg"
   xmlns:inkscape="http://www.inkscape.org/namespaces/inkscape"
   xmlns:sodipodi="http://sodipodi.sourceforge.net/DTD/sodipodi-0.dtd"
   xmlns="http://www.w3.org/2000/svg"
   xmlns:svg="http://www.w3.org/2000/svg">
  <sodipodi:namedview
     id="namedview7"
     pagecolor="#ffffff"
     bordercolor="#000000"
     borderopacity="0.25"
     inkscape:showpageshadow="2"
     inkscape:pageopacity="0.0"
     inkscape:pagecheckerboard="0"
     inkscape:deskcolor="#d1d1d1"
     inkscape:document-units="px"
     showgrid="false"
     inkscape:zoom="36.636364"
     inkscape:cx="10.986352"
     inkscape:cy="11"
     inkscape:window-width="1920"
     inkscape:window-height="1008"
     inkscape:window-x="0"
     inkscape:window-y="0"
     inkscape:window-maximized="1"
     inkscape:current-layer="svg5" />
  <defs
     id="defs2" />
  <path
     id="rect234"
     style="opacity:0.2;stroke-width:0.375;stroke-linecap:round;stroke-linejoin:round"
     d="M 4.5,1.5 H 13 l 6,6 V 20 c 0,0.831 -0.669,1.5 -1.5,1.5 H 4.5 C 3.669,21.5 3,20.831 3,20 V 3 C 3,2.169 3.669,1.5 4.5,1.5 Z" />
  <path
     id="rect448"
     style="fill:#e0e0e0;fill-opacity:1;stroke-width:0.375;stroke-linecap:round;stroke-linejoin:round"
     d="M 4.5,1 H 13 L 15.25,4.75 19,7 V 19.5 C 19,20.331 18.331,21 17.5,21 H 4.5 C 3.669,21 3,20.331 3,19.5 V 2.5 C 3,1.669 3.669,1 4.5,1 Z" />
  <path
     d="m 7.000003,11 v 8.5 c 0,0.553999 0.446001,1 1,1 h 8 c 0.553999,0 1,-0.446001 1,-1 V 11 Z"
     style="opacity:0.2;fill:#000000;stroke-width:2;stroke-linecap:square"
     id="path4916"
     sodipodi:nodetypes="csssscc" />
  <path
     d="m 7,11 v 3 l 4.999999,3 5.000004,2e-6 v -3 l -5,-3.000002 z"
     style="fill:#107c41;fill-opacity:1;stroke-width:2.92769;stroke-linejoin:bevel"
     id="path4480"
     sodipodi:nodetypes="ccccccc" />
  <path
     d="m 7.000003,14 v 5 c 0,0.553999 0.446001,1 1,1 h 8 c 0.553999,0 1,-0.446001 1,-1 v -2 l -5,1e-6 0,-3 z"
     style="opacity:1;fill:#185c37;fill-opacity:1;stroke-width:2;stroke-linecap:square"
     id="path4944" />
  <path
     d="m 8.0000031,7.9999996 c -0.5539994,0 -1,0.446001 -1,0.9999996 V 11 H 17.000003 V 8.9999992 c 0,-0.5539986 -0.446001,-0.9999996 -1,-0.9999996 z"
     style="fill:#33c481;fill-opacity:1;stroke-width:2;stroke-linecap:square"
     id="path4775" />
  <path
     id="path4452"
     style="fill:#21a366;fill-opacity:1;stroke-width:2.92769;stroke-linejoin:bevel"
     d="M 8 8 A 1 1 0 0 0 7 9 L 7 11 L 12 11 L 12 8 L 8 8 z M 12 11 L 12 14 L 17 14 L 17 11 L 12 11 z " />
  <path
     id="path4803"
     style="opacity:0.2;fill:#ffffff;stroke-width:2;stroke-linecap:square"
     d="M 8,8 C 7.4460012,8 7,8.4460016 7,9 v 0.5 c 0,-0.5539984 0.4460008,-1 1,-1 h 8 c 0.553998,0 1,0.4460016 1,1 V 9 C 17,8.4460016 16.553998,8 16,8 Z" />
  <path
     d="m 7.0000031,11.000001 v 0.5 H 12 v -0.5 z m 0,3 v 0.5 h 9.9999999 v -0.5 z m 4.9999969,3 v 0.5 h 5.000003 v -0.5 z"
     style="opacity:0.2;fill:#000000;fill-opacity:1;stroke-width:2.5;stroke-linecap:round;stroke-linejoin:round"
     id="path4508" />
  <rect
     style="opacity:0.2;fill:#000000;stroke-width:2;stroke-linecap:square"
     id="rect3342"
     width="6"
     height="6"
     x="4"
     y="11.5"
     ry="1" />
  <rect
     style="fill:#0d7239;fill-opacity:1;stroke-width:2;stroke-linecap:square"
     id="rect3531"
     width="6"
     height="6"
     x="4"
     y="11"
     ry="1" />
  <path
     d="m 5.000003,12 1.5,2 -1.5,2 h 1 l 1,-1.333984 1,1.333984 h 1 l -1.5,-2 1.5,-2 h -1 l -1,1.333984 -1,-1.333984 z"
     style="fill:#ffffff;stroke-width:5;stroke-linecap:round;stroke-linejoin:round"
     id="path841" />
  <path
     d="M 19,7.5 H 14.5 C 13.669,7.5 13,6.831 13,6 V 1 l 6,6 z"
     style="opacity:0.2;fill:#000000;stroke-width:0.375;stroke-linecap:round;stroke-linejoin:round"
     id="path611"
     sodipodi:nodetypes="cssccc" />
  <path
     id="rect600"
     style="fill:#f5f5f5;fill-opacity:1;stroke-width:0.375;stroke-linecap:round;stroke-linejoin:round"
     d="M 19,7 H 14.5 C 13.669,7 13,6.331 13,5.5 V 1 Z" />
  <path
     id="path1133"
     style="opacity:0.2;fill:#ffffff;fill-opacity:1;stroke-width:0.375;stroke-linecap:round;stroke-linejoin:round"
     d="M 4.5,1 C 3.6690025,1 3,1.6690025 3,2.5 V 3 C 3,2.1690025 3.6690025,1.5 4.5,1.5 H 13 L 18.5,7 H 19 L 13,1 Z" />
</svg>
