<?xml version="1.0" encoding="UTF-8" standalone="no"?>
<!-- Created with Inkscape (http://www.inkscape.org/) -->

<svg
   width="22"
   height="22"
   viewBox="0 0 22 22.000001"
   version="1.1"
   id="svg5"
   inkscape:version="1.2.2 (1:1.2.2+202305151914+b0a8486541)"
   sodipodi:docname="application-vnd.oasis.opendocument.presentation.svg"
   xmlns:inkscape="http://www.inkscape.org/namespaces/inkscape"
   xmlns:sodipodi="http://sodipodi.sourceforge.net/DTD/sodipodi-0.dtd"
   xmlns="http://www.w3.org/2000/svg"
   xmlns:svg="http://www.w3.org/2000/svg">
  <sodipodi:namedview
     id="namedview7"
     pagecolor="#ffffff"
     bordercolor="#000000"
     borderopacity="0.25"
     inkscape:showpageshadow="2"
     inkscape:pageopacity="0.0"
     inkscape:pagecheckerboard="0"
     inkscape:deskcolor="#d1d1d1"
     inkscape:document-units="px"
     showgrid="false"
     inkscape:zoom="36.636364"
     inkscape:cx="10.986352"
     inkscape:cy="11"
     inkscape:window-width="1920"
     inkscape:window-height="1008"
     inkscape:window-x="0"
     inkscape:window-y="0"
     inkscape:window-maximized="1"
     inkscape:current-layer="svg5" />
  <defs
     id="defs2" />
  <path
     id="rect234"
     style="opacity:0.2;stroke-width:0.375;stroke-linecap:round;stroke-linejoin:round"
     d="M 4.5,1.5 H 13 l 6,6 V 20 c 0,0.831 -0.669,1.5 -1.5,1.5 H 4.5 C 3.669,21.5 3,20.831 3,20 V 3 C 3,2.169 3.669,1.5 4.5,1.5 Z" />
  <path
     id="rect448"
     style="fill:#e96415;fill-opacity:1;stroke-width:0.375;stroke-linecap:round;stroke-linejoin:round"
     d="M 4.5,1 H 13 L 15.25,4.75 19,7 V 19.5 C 19,20.331 18.331,21 17.5,21 H 4.5 C 3.669,21 3,20.331 3,19.5 V 2.5 C 3,1.669 3.669,1 4.5,1 Z" />
  <path
     d="m 5,9.5 v 1 h 12 v -1 z m 2,2 v 1 h 8 v -1 z m -2,2 v 1 h 1 v -1 z m 2,0 v 1 h 2 v -1 z m 3.000001,0 v 5 H 17 v -5 z M 5,15.5 v 1 h 1 v -1 z m 2,0 v 1 h 2 v -1 z m -2,2 v 1 h 1 v -1 z m 2,0 v 1 h 2 v -1 z"
     style="opacity:0.2;fill:#000000"
     id="path444" />
  <path
     d="m 5,9 v 1 H 17 V 9 Z m 2,2 v 1 h 8 v -1 z m -2,2 v 1 h 1 v -1 z m 2,0 v 1 h 2 v -1 z m -2,2 v 1 h 1 v -1 z m 2,0 v 1 h 2 v -1 z m -2,2 v 0.999999 h 1 v -1 z m 2,0 v 0.999999 h 2 v -1 z"
     style="fill:#ffffff"
     id="path316" />
  <rect
     style="fill:#f7c195;fill-opacity:1;stroke-width:4;stroke-linecap:square"
     id="rect516"
     width="7"
     height="5"
     x="10"
     y="13" />
  <path
     d="M 15.146484,14.146484 14,15.292969 l -1,-1 -1.853515,1.853515 c -0.195212,0.195254 -0.195212,0.511778 0,0.707032 0.195254,0.195212 0.511777,0.195212 0.707032,0 L 13,15.707031 l 1,1 1.853516,-1.853515 c 0.195212,-0.195254 0.195212,-0.511778 0,-0.707032 -0.195254,-0.195212 -0.511778,-0.195212 -0.707032,0 z"
     style="color:#000000;fill:#e35100;stroke-linecap:round;-inkscape-stroke:none"
     id="path976" />
  <path
     d="M 19,7.5 H 14.5 C 13.669,7.5 13,6.831 13,6 V 1 l 6,6 z"
     style="opacity:0.2;fill:#000000;stroke-width:0.375;stroke-linecap:round;stroke-linejoin:round"
     id="path611"
     sodipodi:nodetypes="cssccc" />
  <path
     id="rect600"
     style="fill:#eea566;fill-opacity:1;stroke-width:0.375;stroke-linecap:round;stroke-linejoin:round"
     d="M 19,7 H 14.5 C 13.669,7 13,6.331 13,5.5 V 1 Z" />
  <path
     id="path1133"
     style="opacity:0.2;fill:#ffffff;fill-opacity:1;stroke-width:0.375;stroke-linecap:round;stroke-linejoin:round"
     d="M 4.5,1 C 3.6690025,1 3,1.6690025 3,2.5 V 3 C 3,2.1690025 3.6690025,1.5 4.5,1.5 H 13 L 18.5,7 H 19 L 13,1 Z" />
</svg>
