<?xml version="1.0" encoding="UTF-8" standalone="no"?>
<!-- Created with Inkscape (http://www.inkscape.org/) -->

<svg
   width="22"
   height="22"
   viewBox="0 0 22 22.000001"
   version="1.1"
   id="svg5"
   inkscape:version="1.2.2 (1:1.2.2+202305151914+b0a8486541)"
   sodipodi:docname="application-x-executable.svg"
   xmlns:inkscape="http://www.inkscape.org/namespaces/inkscape"
   xmlns:sodipodi="http://sodipodi.sourceforge.net/DTD/sodipodi-0.dtd"
   xmlns="http://www.w3.org/2000/svg"
   xmlns:svg="http://www.w3.org/2000/svg">
  <sodipodi:namedview
     id="namedview7"
     pagecolor="#ffffff"
     bordercolor="#000000"
     borderopacity="0.25"
     inkscape:showpageshadow="2"
     inkscape:pageopacity="0.0"
     inkscape:pagecheckerboard="0"
     inkscape:deskcolor="#d1d1d1"
     inkscape:document-units="px"
     showgrid="false"
     inkscape:zoom="36.636364"
     inkscape:cx="10.986352"
     inkscape:cy="11"
     inkscape:window-width="1920"
     inkscape:window-height="1008"
     inkscape:window-x="0"
     inkscape:window-y="0"
     inkscape:window-maximized="1"
     inkscape:current-layer="svg5" />
  <defs
     id="defs2" />
  <path
     d="M 13.13595,1.570108 C 12.050295,1.2792079 10.941543,1.9193459 10.650643,3.0050006 10.497524,3.5764502 10.134779,3.8215918 9.311675,4.09699 8.2965812,4.4366249 7.6265018,4.5398447 7.0551982,3.9685436 6.2604445,3.1737889 4.9806335,3.1743169 4.1858788,3.9690936 L 3.4681634,4.685656 c -0.7947549,0.7947552 -0.7942264,2.0745651 5.5e-4,2.8693193 0.3978143,0.3978139 0.3607664,1.1384907 0.1823222,1.9757927 -0.2274807,1.067389 -0.2941311,1.391723 -1.1457918,1.619925 -1.0856547,0.2909 -1.72601718,1.398984 -1.4351172,2.484638 l 0.2632776,0.979422 c 0.2909,1.085655 1.3989848,1.726017 2.4846391,1.435118 0.7453224,-0.199709 1.1370188,0.184301 1.7431753,0.761279 0.8152487,0.776006 1.0798963,1.157714 0.8888001,1.870895 -0.2909001,1.085655 0.3492384,2.194407 1.4348921,2.485306 l 0.4895537,0.131176 0.4895532,0.131175 c 1.0856543,0.290901 2.1944063,-0.349238 2.4853073,-1.434892 0.191095,-0.713181 0.611141,-0.911426 1.705171,-1.175842 0.813435,-0.1966 1.344659,-0.333314 1.890273,0.212299 0.794754,0.794754 2.074565,0.794227 2.869319,-5.5e-4 l 0.717716,-0.716565 c 0.794755,-0.794754 0.794227,-2.074565 -5.5e-4,-2.869318 -0.623458,-0.623459 -0.519013,-0.937665 -0.182322,-1.975793 0.264113,-0.814346 0.602368,-1.474314 1.145792,-1.619925 1.085655,-0.2909 1.726017,-1.398984 1.435117,-2.484639 L 20.666583,8.3850775 C 20.375683,7.2994228 19.267598,6.6590598 18.181944,6.9499603 17.40153,7.159071 16.872834,6.7346397 16.163555,5.93296 15.588424,5.282906 15.39685,4.8892347 15.549969,4.3177856 15.840869,3.2321308 15.200731,2.1233796 14.115077,1.832479 L 13.625523,1.7013037 Z"
     style="opacity:0.2;fill:#000000;stroke-width:0.499999"
     id="path542" />
  <path
     d="M 13.135982,1.0701426 C 12.050328,0.77924254 10.941576,1.4193805 10.650675,2.5050352 10.497556,3.0764843 10.134812,3.3216264 9.311708,3.597025 8.2966137,3.9366594 7.6265343,4.0398795 7.0552307,3.4685782 6.260477,2.6738235 4.980666,2.6743515 4.1859113,3.4691282 L 3.4681959,4.1856908 C 2.673441,4.980446 2.6739695,6.2602559 3.4687459,7.0550102 3.8665602,7.452824 3.8295123,8.1935008 3.6510681,9.030802 c -0.2274807,1.06739 -0.2941311,1.391724 -1.1457918,1.619925 -1.0856547,0.2909 -1.72601768,1.398985 -1.4351172,2.484639 l 0.2632776,0.979422 c 0.2909,1.085654 1.3989848,1.726017 2.4846391,1.435117 0.7453224,-0.199708 1.1370188,0.184302 1.7431753,0.76128 0.8152487,0.776006 1.0798963,1.157714 0.8888001,1.870895 -0.2909001,1.085655 0.3492384,2.194407 1.4348921,2.485306 l 0.4895537,0.131176 0.4895532,0.131175 c 1.0856538,0.290901 2.1944068,-0.349238 2.4853068,-1.434892 0.191095,-0.713181 0.611142,-0.911426 1.705171,-1.175843 0.813436,-0.196599 1.344659,-0.333313 1.890273,0.2123 0.794755,0.794754 2.074566,0.794227 2.86932,-5.5e-4 l 0.717716,-0.716565 c 0.794754,-0.794754 0.794226,-2.074565 -5.5e-4,-2.869319 -0.623459,-0.623459 -0.519014,-0.937665 -0.182323,-1.975792 0.264113,-0.814346 0.602368,-1.474315 1.145792,-1.619925 1.085655,-0.2909 1.726018,-1.398984 1.435117,-2.4846388 L 20.666596,7.8850923 C 20.375696,6.7994376 19.267611,6.1590746 18.181956,6.4499751 17.401543,6.6590858 16.872847,6.2346545 16.163567,5.4329748 15.588437,4.7829208 15.396862,4.3892495 15.549981,3.8178001 15.840881,2.7321454 15.200743,1.6233937 14.115089,1.3324936 L 13.625536,1.2013184 Z"
     style="fill:#455a64;stroke-width:0.499999"
     id="path304" />
  <path
     d="m 12.528273,1.0019853 c -0.86511,0.033451 -1.64157,0.6208329 -1.877927,1.5029273 C 10.497227,3.0763619 10.134586,3.3213094 9.311482,3.5967077 8.2963877,3.9363426 7.6269293,4.0400795 7.0556257,3.4687782 6.260872,2.6740236 4.980268,2.6740216 4.1855133,3.4687782 L 3.4677409,4.1855738 C 3.0066501,4.6466651 2.8155374,5.2709845 2.8896163,5.8691651 2.9433957,5.4370898 3.1346514,5.0186625 3.4677409,4.685573 L 4.1855133,3.9687774 c 0.7947547,-0.7947566 2.0753587,-0.7947546 2.8701124,0 0.5713036,0.5713013 1.240762,0.467564 2.2558563,0.1279291 0.823104,-0.2753981 1.185745,-0.5203454 1.338864,-1.0917947 0.290901,-1.0856547 1.399693,-1.7254683 2.485348,-1.434568 l 0.490234,0.1308592 0.489257,0.1318357 c 0.8203,0.219799 1.386108,0.90639 1.488278,1.6972629 0.118662,-0.987465 -0.49855,-1.932065 -1.488278,-2.1972621 L 13.625928,1.2012038 13.135694,1.0703446 c -0.20356,-0.054544 -0.40778,-0.076079 -0.607421,-0.068359 z m 3.000972,3.4189396 c -0.10323,0.5167277 0.09542,0.9021056 0.634764,1.5117166 0.70928,0.8016797 1.237162,1.226687 2.017575,1.0175763 1.085655,-0.2909005 2.194448,0.348913 2.485348,1.4345682 l 0.262695,0.97949 c 0.0257,0.09593 0.04221,0.192389 0.05371,0.288086 0.03308,-0.255801 0.0174,-0.522702 -0.05371,-0.7880848 L 20.666932,7.8847868 C 20.376032,6.7991321 19.267239,6.1593186 18.181584,6.4502191 17.401171,6.6593298 16.873289,6.234322 16.164009,5.4326418 15.809414,5.0318524 15.601345,4.7285499 15.529245,4.4209249 Z M 3.7655919,8.2822467 C 3.7464569,8.5179433 3.7072165,8.7690579 3.6513346,9.031269 3.4238539,10.098659 3.3565125,10.422205 2.5048515,10.650407 1.5151224,10.915604 0.89794412,11.860302 1.0165726,12.847669 1.118835,12.057019 1.6845801,11.370197 2.5048515,11.150406 3.3565125,10.922204 3.4238539,10.598658 3.6513346,9.531268 3.7493314,9.071445 3.8014883,8.6430046 3.7655919,8.2822467 Z M 18.109319,14.313487 c -0.08018,0.439124 0.01037,0.720335 0.421874,1.131834 0.333673,0.333664 0.525492,0.752678 0.579101,1.185545 0.07454,-0.59886 -0.117423,-1.223879 -0.579101,-1.685544 C 18.295184,14.709313 18.1636,14.51691 18.109319,14.313487 Z M 6.4784781,18.040043 c -0.00889,0.04706 -0.0149,0.09249 -0.02832,0.142578 -0.071101,0.265355 -0.086761,0.531275 -0.053711,0.787108 0.0115,-0.09571 0.02801,-0.191183 0.053711,-0.287109 0.065201,-0.243335 0.072998,-0.447589 0.02832,-0.642577 z"
     style="opacity:0.1;fill:#ffffff;stroke-width:0.499999"
     id="path570" />
  <circle
     style="opacity:0.2;fill:#000000;stroke-width:2;stroke-linecap:square"
     id="path478"
     cx="11.000016"
     cy="11.499949"
     r="3.9999936" />
  <circle
     style="fill:#ffffff;stroke-width:2;stroke-linecap:square"
     id="path480"
     cx="11.000016"
     cy="10.99995"
     r="3.9999936" />
</svg>
