<?xml version="1.0" encoding="UTF-8" standalone="no"?>
<!-- Created with Inkscape (http://www.inkscape.org/) -->

<svg
   width="22"
   height="22"
   viewBox="0 0 22 22.000001"
   version="1.1"
   id="svg5"
   inkscape:version="1.2.2 (1:1.2.2+202305151914+b0a8486541)"
   sodipodi:docname="application-vnd.ms-powerpoint.svg"
   xmlns:inkscape="http://www.inkscape.org/namespaces/inkscape"
   xmlns:sodipodi="http://sodipodi.sourceforge.net/DTD/sodipodi-0.dtd"
   xmlns="http://www.w3.org/2000/svg"
   xmlns:svg="http://www.w3.org/2000/svg">
  <sodipodi:namedview
     id="namedview7"
     pagecolor="#ffffff"
     bordercolor="#000000"
     borderopacity="0.25"
     inkscape:showpageshadow="2"
     inkscape:pageopacity="0.0"
     inkscape:pagecheckerboard="0"
     inkscape:deskcolor="#d1d1d1"
     inkscape:document-units="px"
     showgrid="false"
     inkscape:zoom="36.636364"
     inkscape:cx="11"
     inkscape:cy="11"
     inkscape:window-width="1920"
     inkscape:window-height="1008"
     inkscape:window-x="0"
     inkscape:window-y="0"
     inkscape:window-maximized="1"
     inkscape:current-layer="svg5" />
  <defs
     id="defs2" />
  <path
     id="rect234"
     style="opacity:0.2;stroke-width:0.375;stroke-linecap:round;stroke-linejoin:round"
     d="M 4.5,1.5 H 13 l 6,6 V 20 c 0,0.831 -0.669,1.5 -1.5,1.5 H 4.5 C 3.669,21.5 3,20.831 3,20 V 3 C 3,2.169 3.669,1.5 4.5,1.5 Z" />
  <path
     id="rect448"
     style="fill:#e0e0e0;fill-opacity:1;stroke-width:0.375;stroke-linecap:round;stroke-linejoin:round"
     d="M 4.5,1 H 13 L 15.25,4.75 19,7 V 19.5 C 19,20.331 18.331,21 17.5,21 H 4.5 C 3.669,21 3,20.331 3,19.5 V 2.5 C 3,1.669 3.669,1 4.5,1 Z" />
  <g
     id="g1545"
     transform="matrix(0.5,0,0,0.5,-1.2977684,-1.3232045)">
    <ellipse
       style="opacity:0.2;fill:#000000;fill-opacity:1;stroke-width:2;stroke-linecap:square"
       id="path1307"
       cx="26.595524"
       cy="31.646404"
       rx="10.000026"
       ry="9.9999952" />
    <ellipse
       style="fill:#ff8f6b;fill-opacity:1;stroke-width:2;stroke-linecap:square"
       id="path1157"
       cx="26.595463"
       cy="30.646404"
       rx="10.000004"
       ry="9.9999952" />
    <path
       d="m 16.59556,30.64641 c 0,5.52284 4.47714,9.99999 9.99998,9.99999 5.52285,0 10,-4.47715 10,-9.99999"
       style="fill:#d35230;fill-opacity:1;stroke-width:5;stroke-linejoin:bevel"
       id="path1001" />
    <path
       d="m 16.59551,30.64641 c 0,0.33726 0.0182,0.67132 0.0508,1 h 9.94922 9.94921 c 0.0326,-0.32868 0.0508,-0.66274 0.0508,-1 h -10 z"
       style="opacity:0.2;fill:#000000;fill-opacity:1;stroke-width:5;stroke-linejoin:bevel"
       id="path1029" />
    <path
       d="m 26.59554,20.64641 c -5.52285,0 -10.00001,4.47715 -10,10 h 10 z"
       style="fill:#ed6c47;fill-opacity:1;stroke-width:5;stroke-linejoin:bevel"
       id="path1109" />
    <path
       d="m 26.59547,20.64641 c -5.52284,0 -10,4.47716 -10,10 h 0.0508 c 0.5014,-5.05366 4.76364,-9 9.94922,-9 5.18558,0 9.44782,3.94634 9.94921,9 h 0.0508 c 0,-5.52284 -4.47715,-10 -10,-10 z"
       style="opacity:0.2;fill:#ffffff;fill-opacity:1;stroke-width:5;stroke-linejoin:bevel"
       id="path1137" />
    <rect
       style="opacity:0.2;fill:#000000;stroke-width:2;stroke-linecap:square"
       id="rect436"
       width="12"
       height="12"
       x="12.595524"
       y="25.646404"
       ry="2" />
    <rect
       style="fill:#c43e1c;fill-opacity:1;stroke-width:2;stroke-linecap:square"
       id="rect438"
       width="12"
       height="12"
       x="12.595524"
       y="24.646404"
       ry="2" />
    <path
       d="m 16.595537,26.646404 v 8 h 2 v -2 h 1 c 1.662,0 3,-1.338006 3,-3 0,-1.661994 -1.338,-3 -3,-3 m -1,2 h 1 c 0.554,0 1,0.446 1,1 0,0.554 -0.446,1 -1,1 h -1 z"
       style="fill:#ffffff;stroke-width:10;stroke-linecap:round;stroke-linejoin:round"
       id="path1615" />
  </g>
  <path
     d="M 19,7.5 H 14.5 C 13.669,7.5 13,6.831 13,6 V 1 l 6,6 z"
     style="opacity:0.2;fill:#000000;stroke-width:0.375;stroke-linecap:round;stroke-linejoin:round"
     id="path611"
     sodipodi:nodetypes="cssccc" />
  <path
     id="rect600"
     style="fill:#f5f5f5;fill-opacity:1;stroke-width:0.375;stroke-linecap:round;stroke-linejoin:round"
     d="M 19,7 H 14.5 C 13.669,7 13,6.331 13,5.5 V 1 Z" />
  <path
     id="path1133"
     style="opacity:0.2;fill:#ffffff;fill-opacity:1;stroke-width:0.375;stroke-linecap:round;stroke-linejoin:round"
     d="M 4.5,1 C 3.6690025,1 3,1.6690025 3,2.5 V 3 C 3,2.1690025 3.6690025,1.5 4.5,1.5 H 13 L 18.5,7 H 19 L 13,1 Z" />
</svg>
