<?xml version="1.0" encoding="UTF-8" standalone="no"?>
<!-- Created with Inkscape (http://www.inkscape.org/) -->

<svg
   width="22"
   height="22"
   viewBox="0 0 22 22.000001"
   version="1.1"
   id="svg5"
   inkscape:version="1.3.2 (091e20ef0f, 2023-11-25, custom)"
   sodipodi:docname="text-x-ruby.svg"
   xmlns:inkscape="http://www.inkscape.org/namespaces/inkscape"
   xmlns:sodipodi="http://sodipodi.sourceforge.net/DTD/sodipodi-0.dtd"
   xmlns="http://www.w3.org/2000/svg"
   xmlns:svg="http://www.w3.org/2000/svg">
  <sodipodi:namedview
     id="namedview7"
     pagecolor="#ffffff"
     bordercolor="#000000"
     borderopacity="0.25"
     inkscape:showpageshadow="2"
     inkscape:pageopacity="0.0"
     inkscape:pagecheckerboard="0"
     inkscape:deskcolor="#d1d1d1"
     inkscape:document-units="px"
     showgrid="false"
     inkscape:zoom="36.136364"
     inkscape:cx="10.986164"
     inkscape:cy="11"
     inkscape:window-width="1920"
     inkscape:window-height="1008"
     inkscape:window-x="0"
     inkscape:window-y="0"
     inkscape:window-maximized="1"
     inkscape:current-layer="svg5" />
  <defs
     id="defs2" />
  <path
     id="rect234"
     style="opacity:0.2;stroke-width:0.375;stroke-linecap:round;stroke-linejoin:round"
     d="M 4.5,1.5 H 13 l 6,6 V 20 c 0,0.831 -0.669,1.5 -1.5,1.5 H 4.5 C 3.669,21.5 3,20.831 3,20 V 3 C 3,2.169 3.669,1.5 4.5,1.5 Z" />
  <path
     id="rect448"
     style="fill:#e0e0e0;fill-opacity:1;stroke-width:0.375;stroke-linecap:round;stroke-linejoin:round"
     d="M 4.5,1 H 13 L 15.25,4.75 19,7 V 19.5 C 19,20.331 18.331,21 17.5,21 H 4.5 C 3.669,21 3,20.331 3,19.5 V 2.5 C 3,1.669 3.669,1 4.5,1 Z" />
  <path
     d="m 10.5,10.500005 c -0.1326,2.5e-5 -0.25976,0.05272 -0.35352,0.146484 l -4,4 C 6.05268,14.740249 6.00003,14.867405 6,15.000005 v 4 c 3e-5,0.276131 0.22387,0.499972 0.5,0.5 h 8 c 0.0137,-0.01229 0.0268,-0.02533 0.0391,-0.03906 0.2183,-0.03214 0.38973,-0.203572 0.42187,-0.421875 0.0137,-0.01229 0.0268,-0.02533 0.0391,-0.03907 v -8 c -3e-5,-0.276131 -0.22387,-0.499972 -0.5,-0.5 z m 0.5,1 h 2.29297 L 11.64648,13.146489 11,13.792974 Z m -1,0.707031 v 2.292969 H 7.70703 Z m 4,0 v 4.484375 L 12.59766,13.60938 Z m -2.15625,2.15625 1.64844,3.628906 -3.62891,-1.648437 z M 7,15.500005 H 9.29297 L 8.64648,16.146489 7,17.792974 Z m 2.10937,1.597656 3.08204,1.402344 H 7.70703 Z"
     style="opacity:0.2;fill:#000000;stroke:none;stroke-linejoin:round;-inkscape-stroke:none"
     id="path1" />
  <path
     d="m 10.5,10.000005 c -0.1326,2.5e-5 -0.25976,0.05272 -0.35352,0.146484 l -4,4 C 6.05268,14.240249 6.00003,14.367405 6,14.500005 v 4 c 3e-5,0.276131 0.22387,0.499972 0.5,0.5 h 8 c 0.0137,-0.01229 0.0268,-0.02533 0.0391,-0.03906 0.2183,-0.03214 0.38973,-0.203572 0.42187,-0.421875 0.0137,-0.01229 0.0268,-0.02533 0.0391,-0.03907 v -8 c -3e-5,-0.276131 -0.22387,-0.499972 -0.5,-0.5 z m 0.5,1 h 2.29297 L 11.64648,12.646489 11,13.292974 Z m -1,0.707031 v 2.292969 H 7.70703 Z m 4,0 v 4.484375 L 12.59766,13.10938 Z m -2.15625,2.15625 1.64844,3.628906 -3.62891,-1.648437 z M 7,15.000005 H 9.29297 L 8.64648,15.646489 7,17.292974 Z m 2.10937,1.597656 3.08204,1.402344 H 7.70703 Z"
     style="fill:#f44336;fill-opacity:1;stroke:none;stroke-linejoin:round;-inkscape-stroke:none"
     id="path2" />
  <path
     d="M 19,7.5 H 14.5 C 13.669,7.5 13,6.831 13,6 V 1 l 6,6 z"
     style="opacity:0.2;fill:#000000;stroke-width:0.375;stroke-linecap:round;stroke-linejoin:round"
     id="path611"
     sodipodi:nodetypes="cssccc" />
  <path
     id="rect600"
     style="fill:#f5f5f5;fill-opacity:1;stroke-width:0.375;stroke-linecap:round;stroke-linejoin:round"
     d="M 19,7 H 14.5 C 13.669,7 13,6.331 13,5.5 V 1 Z" />
  <path
     id="path1133"
     style="opacity:0.2;fill:#ffffff;fill-opacity:1;stroke-width:0.375;stroke-linecap:round;stroke-linejoin:round"
     d="M 4.5,1 C 3.6690025,1 3,1.6690025 3,2.5 V 3 C 3,2.1690025 3.6690025,1.5 4.5,1.5 H 13 L 18.5,7 H 19 L 13,1 Z" />
</svg>
