<?xml version="1.0" encoding="UTF-8" standalone="no"?>
<!-- Created with Inkscape (http://www.inkscape.org/) -->

<svg
   width="22"
   height="22"
   viewBox="0 0 22 22.000001"
   version="1.1"
   id="svg5"
   inkscape:version="1.3 (0e150ed6c4, 2023-07-21)"
   sodipodi:docname="text-x-csharp.svg"
   xmlns:inkscape="http://www.inkscape.org/namespaces/inkscape"
   xmlns:sodipodi="http://sodipodi.sourceforge.net/DTD/sodipodi-0.dtd"
   xmlns="http://www.w3.org/2000/svg"
   xmlns:svg="http://www.w3.org/2000/svg">
  <sodipodi:namedview
     id="namedview7"
     pagecolor="#ffffff"
     bordercolor="#000000"
     borderopacity="0.25"
     inkscape:showpageshadow="2"
     inkscape:pageopacity="0.0"
     inkscape:pagecheckerboard="0"
     inkscape:deskcolor="#d1d1d1"
     inkscape:document-units="px"
     showgrid="false"
     inkscape:zoom="35.590909"
     inkscape:cx="10.985951"
     inkscape:cy="11"
     inkscape:window-width="1920"
     inkscape:window-height="984"
     inkscape:window-x="0"
     inkscape:window-y="29"
     inkscape:window-maximized="1"
     inkscape:current-layer="svg5" />
  <defs
     id="defs2" />
  <path
     id="rect234"
     style="opacity:0.2;stroke-width:0.375;stroke-linecap:round;stroke-linejoin:round"
     d="M 4.5,1.5 H 13 l 6,6 V 20 c 0,0.831 -0.669,1.5 -1.5,1.5 H 4.5 C 3.669,21.5 3,20.831 3,20 V 3 C 3,2.169 3.669,1.5 4.5,1.5 Z" />
  <path
     id="rect448"
     style="fill:#e0e0e0;fill-opacity:1;stroke-width:0.375;stroke-linecap:round;stroke-linejoin:round"
     d="M 4.5,1 H 13 L 15.25,4.75 19,7 V 19.5 C 19,20.331 18.331,21 17.5,21 H 4.5 C 3.669,21 3,20.331 3,19.5 V 2.5 C 3,1.669 3.669,1 4.5,1 Z" />
  <path
     d="m 8,10.000001 c -1.6568542,0 -3,1.343146 -3,3 v 2 c 0,1.656854 1.3431458,3 3,3 h 1 v -1 H 8 c -1.1045695,0 -2,-0.895431 -2,-2 v -2 c 0,-1.104569 0.8954305,-2 2,-2 h 1 v -1 z m 4,0 v 2 h -2 v 1 h 2 v 2 h -2 v 1 h 2 v 2 h 1 v -2 h 1 v 2 h 1 v -2 h 2 v -1 h -2 v -2 h 2 v -1 h -2 v -2 h -1 v 2 h -1 v -2 z m 1,3 h 1 v 2 h -1 z"
     style="fill:#05a087;fill-opacity:1;stroke-width:0.5;stroke-linecap:round;stroke-linejoin:round;paint-order:stroke fill markers"
     id="path1" />
  <path
     d="M 19,7.5 H 14.5 C 13.669,7.5 13,6.831 13,6 V 1 l 6,6 z"
     style="opacity:0.2;fill:#000000;stroke-width:0.375;stroke-linecap:round;stroke-linejoin:round"
     id="path611"
     sodipodi:nodetypes="cssccc" />
  <path
     id="rect600"
     style="fill:#f5f5f5;fill-opacity:1;stroke-width:0.375;stroke-linecap:round;stroke-linejoin:round"
     d="M 19,7 H 14.5 C 13.669,7 13,6.331 13,5.5 V 1 Z" />
  <path
     id="path1133"
     style="opacity:0.2;fill:#ffffff;fill-opacity:1;stroke-width:0.375;stroke-linecap:round;stroke-linejoin:round"
     d="M 4.5,1 C 3.6690025,1 3,1.6690025 3,2.5 V 3 C 3,2.1690025 3.6690025,1.5 4.5,1.5 H 13 L 18.5,7 H 19 L 13,1 Z" />
</svg>
