<?xml version="1.0" encoding="UTF-8" standalone="no"?>
<!-- Created with Inkscape (http://www.inkscape.org/) -->

<svg
   width="48"
   height="48"
   viewBox="0 0 48 48"
   version="1.1"
   id="svg1046"
   inkscape:version="1.2.2 (1:1.2.2+202305151914+b0a8486541)"
   sodipodi:docname="dialog-warning.svg"
   xmlns:inkscape="http://www.inkscape.org/namespaces/inkscape"
   xmlns:sodipodi="http://sodipodi.sourceforge.net/DTD/sodipodi-0.dtd"
   xmlns="http://www.w3.org/2000/svg"
   xmlns:svg="http://www.w3.org/2000/svg">
  <sodipodi:namedview
     id="namedview1048"
     pagecolor="#ffffff"
     bordercolor="#000000"
     borderopacity="0.25"
     inkscape:showpageshadow="2"
     inkscape:pageopacity="0.0"
     inkscape:pagecheckerboard="0"
     inkscape:deskcolor="#d1d1d1"
     inkscape:document-units="px"
     showgrid="false"
     inkscape:zoom="16.791667"
     inkscape:cx="24"
     inkscape:cy="24"
     inkscape:window-width="1920"
     inkscape:window-height="1008"
     inkscape:window-x="0"
     inkscape:window-y="0"
     inkscape:window-maximized="1"
     inkscape:current-layer="svg1046" />
  <defs
     id="defs1043" />
  <path
     d="m 24.000003,7 c -1.10947,6.4e-4 -2.12801,0.61364 -2.64813,1.59376 l -16.998,31.00012 c -1.05943,1.99748 0.38729,4.40468 2.64813,4.40624 h 33.996 c 2.26084,-0.002 3.70756,-2.40876 2.64813,-4.40624 L 26.648133,8.59376 C 26.128013,7.61364 25.109473,7.00064 24.000003,7 Z"
     style="opacity:0.2;fill:#000000;stroke:none;stroke-width:5.99964;stroke-linecap:round;stroke-linejoin:round;-inkscape-stroke:none"
     id="path3674" />
  <path
     d="m 24.000003,6 c -1.10947,6.4e-4 -2.12801,0.61364 -2.64813,1.59376 l -16.998,31.00012 c -1.05943,1.99748 0.38729,4.40468 2.64813,4.40624 h 33.996 c 2.26084,-0.002 3.70756,-2.40876 2.64813,-4.40624 L 26.648133,7.59376 C 26.128013,6.61364 25.109473,6.00064 24.000003,6 Z"
     style="fill:#ffa800;stroke:none;stroke-width:5.99964;stroke-linecap:round;stroke-linejoin:round;-inkscape-stroke:none"
     id="path3646" />
  <path
     d="m 22.000003,16 v 16 h 4 V 16 Z m 2,20 c -1.10457,0 -2,0.89544 -2,2 0,1.10456 0.89543,2 2,2 1.10457,0 2,-0.89544 2,-2 0,-1.10456 -0.89543,-2 -2,-2 z"
     style="opacity:0.2;fill:#000000;fill-opacity:1;stroke:none;stroke-width:6;stroke-linecap:round;stroke-linejoin:round;stroke-dasharray:none;stroke-opacity:1"
     id="path3800" />
  <path
     d="m 22.000003,15 v 16 h 4 V 15 Z m 2,20 c -1.10457,0 -2,0.89544 -2,2 0,1.10456 0.89543,2 2,2 1.10457,0 2,-0.89544 2,-2 0,-1.10456 -0.89543,-2 -2,-2 z"
     style="fill:#634200;fill-opacity:1;stroke:none;stroke-width:6;stroke-linecap:round;stroke-linejoin:round;stroke-dasharray:none;stroke-opacity:1"
     id="path3772" />
  <path
     d="m 24.000003,6 c -1.10947,6.4e-4 -2.12832,0.61364 -2.64844,1.59376 L 4.355473,38.59388 c -0.3339,0.62954 -0.4196,1.29906 -0.30859,1.92186 0.0516,-0.31032 0.14876,-0.62052 0.30859,-0.92186 L 21.351563,8.59376 C 21.871683,7.61364 22.890533,7.00064 24.000003,7 c 1.10947,6.4e-4 2.12832,0.61364 2.64844,1.59376 l 16.99609,31.00012 c 0.15982,0.30134 0.25704,0.61154 0.3086,0.92186 0.111,-0.6228 0.0253,-1.29232 -0.3086,-1.92186 L 26.648443,7.59376 C 26.128323,6.61364 25.109473,6.00064 24.000003,6 Z"
     style="opacity:0.2;fill:#ffffff;stroke:none;stroke-width:5.99964;stroke-linecap:round;stroke-linejoin:round;-inkscape-stroke:none"
     id="path3702" />
</svg>
