<?xml version="1.0" encoding="UTF-8" standalone="no"?>
<!-- Created with Inkscape (http://www.inkscape.org/) -->

<svg
   width="48"
   height="48"
   viewBox="0 0 48 48"
   version="1.1"
   id="svg1046"
   inkscape:version="1.2.2 (1:1.2.2+202305151914+b0a8486541)"
   sodipodi:docname="dialog-information.svg"
   xmlns:inkscape="http://www.inkscape.org/namespaces/inkscape"
   xmlns:sodipodi="http://sodipodi.sourceforge.net/DTD/sodipodi-0.dtd"
   xmlns="http://www.w3.org/2000/svg"
   xmlns:svg="http://www.w3.org/2000/svg">
  <sodipodi:namedview
     id="namedview1048"
     pagecolor="#ffffff"
     bordercolor="#000000"
     borderopacity="0.25"
     inkscape:showpageshadow="2"
     inkscape:pageopacity="0.0"
     inkscape:pagecheckerboard="0"
     inkscape:deskcolor="#d1d1d1"
     inkscape:document-units="px"
     showgrid="false"
     inkscape:zoom="16.791667"
     inkscape:cx="23.970223"
     inkscape:cy="24"
     inkscape:window-width="1920"
     inkscape:window-height="1008"
     inkscape:window-x="0"
     inkscape:window-y="0"
     inkscape:window-maximized="1"
     inkscape:current-layer="svg1046" />
  <defs
     id="defs1043" />
  <circle
     style="opacity:0.2;fill:#000000;fill-opacity:1;stroke-width:5;stroke-linecap:round;stroke-linejoin:round"
     id="path2255"
     cx="24"
     cy="25"
     r="20" />
  <circle
     style="fill:#5294e2;fill-opacity:1;stroke-width:5;stroke-linecap:round;stroke-linejoin:round"
     id="path1557"
     cx="24"
     cy="24"
     r="20" />
  <path
     d="m 22,12 v 4 h 4 v -4 z m 0,8 v 18 h 4 V 20 Z"
     style="opacity:0.2;fill:#000000;stroke-width:6.66666;stroke-linecap:round;stroke-linejoin:round"
     id="path1082" />
  <path
     d="m 22,11 v 4 h 4 v -4 z m 0,8 v 18 h 4 V 19 Z"
     style="fill:#ffffff;stroke-width:6.66666;stroke-linecap:round;stroke-linejoin:round"
     id="path1054"
     sodipodi:nodetypes="cccccccccc" />
  <path
     id="path2282"
     style="opacity:0.2;fill:#ffffff;fill-opacity:1;stroke-width:5;stroke-linecap:round;stroke-linejoin:round"
     d="M 24,4.0000005 A 20,20 0 0 0 4,24.000001 a 20,20 0 0 0 0.0352,0.5 A 20,20 0 0 1 24,5.0000005 20,20 0 0 1 43.98242,24.250001 20,20 0 0 0 44,24.000001 20,20 0 0 0 24,4.0000005 Z" />
</svg>
