<?xml version="1.0" encoding="UTF-8" standalone="no"?>
<!-- Created with Inkscape (http://www.inkscape.org/) -->

<svg
   width="48"
   height="48"
   viewBox="0 0 48 48"
   version="1.1"
   id="svg457"
   inkscape:version="1.3 (0e150ed6c4, 2023-07-21)"
   sodipodi:docname="ibus-keyboard.svg"
   xmlns:inkscape="http://www.inkscape.org/namespaces/inkscape"
   xmlns:sodipodi="http://sodipodi.sourceforge.net/DTD/sodipodi-0.dtd"
   xmlns="http://www.w3.org/2000/svg"
   xmlns:svg="http://www.w3.org/2000/svg">
  <sodipodi:namedview
     id="namedview459"
     pagecolor="#ffffff"
     bordercolor="#000000"
     borderopacity="0.25"
     inkscape:showpageshadow="2"
     inkscape:pageopacity="0.0"
     inkscape:pagecheckerboard="0"
     inkscape:deskcolor="#d1d1d1"
     inkscape:document-units="px"
     showgrid="false"
     inkscape:zoom="16.791667"
     inkscape:cx="23.970223"
     inkscape:cy="24"
     inkscape:window-width="1920"
     inkscape:window-height="1004"
     inkscape:window-x="0"
     inkscape:window-y="0"
     inkscape:window-maximized="1"
     inkscape:current-layer="svg457" />
  <defs
     id="defs454" />
  <rect
     style="opacity:0.2;fill:#000000;fill-opacity:1;stroke-width:4;stroke-linecap:square"
     id="rect1276"
     width="40"
     height="28"
     x="4"
     y="11"
     ry="2" />
  <rect
     style="fill:#2095f2;fill-opacity:1;stroke-width:4;stroke-linecap:square"
     id="rect1274"
     width="40"
     height="28"
     x="4"
     y="10"
     ry="2" />
  <path
     id="path1153"
     style="opacity:0.2;fill:#000000;stroke-width:2"
     d="M 9 16 A 2 2 0 0 0 7 18 A 2 2 0 0 0 9 20 A 2 2 0 0 0 11 18 A 2 2 0 0 0 9 16 z M 15 16 A 2 2 0 0 0 13 18 A 2 2 0 0 0 15 20 A 2 2 0 0 0 17 18 A 2 2 0 0 0 15 16 z M 21 16 A 2 2 0 0 0 19 18 A 2 2 0 0 0 21 20 A 2 2 0 0 0 23 18 A 2 2 0 0 0 21 16 z M 27 16 A 2 2 0 0 0 25 18 A 2 2 0 0 0 27 20 A 2 2 0 0 0 29 18 A 2 2 0 0 0 27 16 z M 33 16 A 2 2 0 0 0 31 18 A 2 2 0 0 0 33 20 A 2 2 0 0 0 35 18 A 2 2 0 0 0 33 16 z M 39 16 A 2 2 0 0 0 37 18 A 2 2 0 0 0 39 20 A 2 2 0 0 0 41 18 A 2 2 0 0 0 39 16 z M 12 24 A 2 2 0 0 0 10 26 A 2 2 0 0 0 12 28 A 2 2 0 0 0 14 26 A 2 2 0 0 0 12 24 z M 18 24 A 2 2 0 0 0 16 26 A 2 2 0 0 0 18 28 A 2 2 0 0 0 20 26 A 2 2 0 0 0 18 24 z M 24 24 A 2 2 0 0 0 22 26 A 2 2 0 0 0 24 28 A 2 2 0 0 0 26 26 A 2 2 0 0 0 24 24 z M 30 24 A 2 2 0 0 0 28 26 A 2 2 0 0 0 30 28 A 2 2 0 0 0 32 26 A 2 2 0 0 0 30 24 z M 36 24 A 2 2 0 0 0 34 26 A 2 2 0 0 0 36 28 A 2 2 0 0 0 38 26 A 2 2 0 0 0 36 24 z M 10 31 C 9.4460006 31 9 31.446001 9 32 L 9 34 C 9 34.553999 9.4460006 35 10 35 L 38 35 C 38.553999 35 39 34.553999 39 34 L 39 32 C 39 31.446001 38.553999 31 38 31 L 10 31 z " />
  <path
     id="path397"
     style="fill:#ffffff;fill-opacity:1;stroke-width:2"
     d="M 9 15 A 2 2 0 0 0 7 17 A 2 2 0 0 0 9 19 A 2 2 0 0 0 11 17 A 2 2 0 0 0 9 15 z M 15 15 A 2 2 0 0 0 13 17 A 2 2 0 0 0 15 19 A 2 2 0 0 0 17 17 A 2 2 0 0 0 15 15 z M 21 15 A 2 2 0 0 0 19 17 A 2 2 0 0 0 21 19 A 2 2 0 0 0 23 17 A 2 2 0 0 0 21 15 z M 27 15 A 2 2 0 0 0 25 17 A 2 2 0 0 0 27 19 A 2 2 0 0 0 29 17 A 2 2 0 0 0 27 15 z M 33 15 A 2 2 0 0 0 31 17 A 2 2 0 0 0 33 19 A 2 2 0 0 0 35 17 A 2 2 0 0 0 33 15 z M 39 15 A 2 2 0 0 0 37 17 A 2 2 0 0 0 39 19 A 2 2 0 0 0 41 17 A 2 2 0 0 0 39 15 z M 12 23 A 2 2 0 0 0 10 25 A 2 2 0 0 0 12 27 A 2 2 0 0 0 14 25 A 2 2 0 0 0 12 23 z M 18 23 A 2 2 0 0 0 16 25 A 2 2 0 0 0 18 27 A 2 2 0 0 0 20 25 A 2 2 0 0 0 18 23 z M 24 23 A 2 2 0 0 0 22 25 A 2 2 0 0 0 24 27 A 2 2 0 0 0 26 25 A 2 2 0 0 0 24 23 z M 30 23 A 2 2 0 0 0 28 25 A 2 2 0 0 0 30 27 A 2 2 0 0 0 32 25 A 2 2 0 0 0 30 23 z M 36 23 A 2 2 0 0 0 34 25 A 2 2 0 0 0 36 27 A 2 2 0 0 0 38 25 A 2 2 0 0 0 36 23 z M 10 30 C 9.4460016 30 9 30.446001 9 31 L 9 33 C 9 33.553999 9.4460016 34 10 34 L 38 34 C 38.553999 34 39 33.553999 39 33 L 39 31 C 39 30.446001 38.553999 30 38 30 L 10 30 z " />
  <path
     id="rect1278"
     style="opacity:0.1;fill:#ffffff;fill-opacity:1;stroke-width:4;stroke-linecap:square"
     d="m 6,10 c -1.1079988,0 -2,0.892001 -2,2 v 1 c 0,-1.107999 0.8920012,-2 2,-2 h 36 c 1.107998,0 2,0.892001 2,2 v -1 c 0,-1.107999 -0.892002,-2 -2,-2 z" />
</svg>
