<?xml version="1.0" encoding="UTF-8" standalone="no"?>
<!-- Created with Inkscape (http://www.inkscape.org/) -->

<svg
   width="48"
   height="48"
   viewBox="0 0 48 48"
   version="1.1"
   id="svg5"
   inkscape:version="1.3 (0e150ed6c4, 2023-07-21)"
   sodipodi:docname="image-loading.svg"
   xmlns:inkscape="http://www.inkscape.org/namespaces/inkscape"
   xmlns:sodipodi="http://sodipodi.sourceforge.net/DTD/sodipodi-0.dtd"
   xmlns="http://www.w3.org/2000/svg"
   xmlns:svg="http://www.w3.org/2000/svg">
  <sodipodi:namedview
     id="namedview7"
     pagecolor="#ffffff"
     bordercolor="#000000"
     borderopacity="0.25"
     inkscape:showpageshadow="2"
     inkscape:pageopacity="0.0"
     inkscape:pagecheckerboard="0"
     inkscape:deskcolor="#d1d1d1"
     inkscape:document-units="px"
     showgrid="false"
     inkscape:zoom="16.666667"
     inkscape:cx="23.97"
     inkscape:cy="24"
     inkscape:window-width="1920"
     inkscape:window-height="1004"
     inkscape:window-x="0"
     inkscape:window-y="0"
     inkscape:window-maximized="1"
     inkscape:current-layer="svg5" />
  <defs
     id="defs2" />
  <rect
     style="opacity:0.2;fill:#000000;stroke-width:0.75;stroke-linecap:round;stroke-linejoin:round"
     id="rect344"
     width="40"
     height="34.000004"
     x="4"
     y="8.0000019"
     ry="4" />
  <rect
     style="fill:#e4e4e4;fill-opacity:1;stroke-width:0.75;stroke-linecap:round;stroke-linejoin:round"
     id="rect234"
     width="40"
     height="34.000004"
     x="4"
     y="7"
     ry="4" />
  <path
     id="path4030"
     style="fill:#999999;fill-opacity:1;stroke-width:1.5"
     d="M 13 21 C 11.343148 21 10 22.343148 10 24 C 10 25.656852 11.343148 27 13 27 C 14.656852 27 16 25.656852 16 24 C 16 22.343148 14.656852 21 13 21 z M 24 21 C 22.343148 21 21 22.343148 21 24 C 21 25.656852 22.343148 27 24 27 C 25.656852 27 27 25.656852 27 24 C 27 22.343148 25.656852 21 24 21 z M 35 21 C 33.343148 21 32 22.343148 32 24 C 32 25.656852 33.343148 27 35 27 C 36.656852 27 38 25.656852 38 24 C 38 22.343148 36.656852 21 35 21 z " />
  <path
     d="M 8,7 C 5.7840022,7 4,8.784002 4,11 v 1 C 4,9.784002 5.7840022,8 8,8 h 32 c 2.215998,0 4,1.784002 4,4 V 11 C 44,8.784002 42.215998,7 40,7 Z"
     style="opacity:0.2;fill:#ffffff;stroke-width:2;stroke-linecap:square"
     id="path506" />
</svg>
