<?xml version="1.0" encoding="UTF-8" standalone="no"?>
<svg
   width="48"
   height="48"
   version="1"
   id="svg6"
   sodipodi:docname="security-high.svg"
   inkscape:version="1.3 (0e150ed6c4, 2023-07-21)"
   xmlns:inkscape="http://www.inkscape.org/namespaces/inkscape"
   xmlns:sodipodi="http://sodipodi.sourceforge.net/DTD/sodipodi-0.dtd"
   xmlns="http://www.w3.org/2000/svg"
   xmlns:svg="http://www.w3.org/2000/svg">
  <defs
     id="defs6" />
  <sodipodi:namedview
     id="namedview6"
     pagecolor="#ffffff"
     bordercolor="#000000"
     borderopacity="0.25"
     inkscape:showpageshadow="2"
     inkscape:pageopacity="0.0"
     inkscape:pagecheckerboard="0"
     inkscape:deskcolor="#d1d1d1"
     inkscape:zoom="16.3125"
     inkscape:cx="23.969349"
     inkscape:cy="24"
     inkscape:window-width="1920"
     inkscape:window-height="984"
     inkscape:window-x="0"
     inkscape:window-y="29"
     inkscape:window-maximized="1"
     inkscape:current-layer="svg6" />
  <path
     d="m 23.999979,4.9999995 c -0.359238,0 -0.719117,0.058384 -1.062547,0.1765106 L 8.1303729,10.26816 C 6.8621852,10.704317 6,11.892608 6,13.204344 c 0,5.6153 1.4802015,11.855687 4.076031,17.427021 2.107257,4.523385 5.874989,10.713924 12.462065,14.022402 C 22.994376,44.882743 23.498805,45 23.999979,45 c 0.501173,0 1.005603,-0.117257 1.461882,-0.346233 6.586561,-3.309077 10.352736,-9.499796 12.460305,-14.022402 a 2.6879273,2.6212051 0 0 0 0.0018,0 C 40.519661,25.059678 42,18.818926 42,13.204344 42,11.892608 41.137815,10.704317 39.869627,10.26816 a 2.6879273,2.6212051 0 0 0 -0.0035,0 L 25.062526,5.1765101 C 24.718737,5.0581118 24.359629,4.9999995 23.999979,4.9999995 Z"
     id="path1"
     style="opacity:0.2;stroke-width:0.114865;fill:#000000" />
  <path
     style="fill:#2aa830;stroke-width:0.114865"
     d="m 23.999979,3.9999998 c -0.359238,0 -0.719117,0.058384 -1.062547,0.1765105 L 8.1303729,9.26816 C 6.8621852,9.7043176 6,10.892608 6,12.204344 c 0,5.6153 1.4802015,11.855688 4.076031,17.427021 2.107257,4.523385 5.874989,10.713924 12.462065,14.022403 C 22.994376,43.882743 23.498805,44 23.999979,44 c 0.501173,0 1.005603,-0.117257 1.461882,-0.346232 6.586561,-3.309078 10.352736,-9.499797 12.460305,-14.022403 a 2.6879273,2.6212051 0 0 0 0.0018,0 C 40.519661,24.059678 42,17.818926 42,12.204344 42,10.892608 41.137815,9.7043176 39.869627,9.26816 a 2.6879273,2.6212051 0 0 0 -0.0035,0 L 25.062526,4.1765103 C 24.718737,4.058112 24.359629,3.9999998 23.999979,3.9999998 Z"
     id="path2" />
  <path
     style="color:#000000;fill:#000000;stroke-linecap:round;stroke-linejoin:round;-inkscape-stroke:none;opacity:0.2"
     d="m 33.761719,15.013672 a 2,2 0 0 0 -1.333985,0.75 L 22.716797,28.125 17.300781,23.482422 a 2,2 0 0 0 -2.818359,0.216797 2,2 0 0 0 0.216797,2.820312 l 7,6 a 2.0002,2.0002 0 0 0 2.873047,-0.283203 l 11,-14 a 2,2 0 0 0 -0.335938,-2.808594 2,2 0 0 0 -1.474609,-0.414062 z"
     id="path3" />
  <path
     style="color:#000000;fill:#ffffff;stroke-linecap:round;stroke-linejoin:round;-inkscape-stroke:none"
     d="m 33.761719,14.013672 a 2,2 0 0 0 -1.333985,0.75 L 22.716797,27.125 17.300781,22.482422 a 2,2 0 0 0 -2.818359,0.216797 2,2 0 0 0 0.216797,2.818359 l 7,6 a 2.0002,2.0002 0 0 0 2.873047,-0.28125 l 11,-14 a 2,2 0 0 0 -0.335938,-2.808594 2,2 0 0 0 -1.474609,-0.414062 z"
     id="path4" />
  <path
     style="opacity:0.2;fill:#ffffff"
     d="M 24,4 C 23.640762,4 23.28093,4.057654 22.9375,4.1757812 L 8.1308594,9.2675781 C 6.8626717,9.7037356 6,10.893342 6,12.205078 c 0,5.6153 1.4803422,11.854448 4.076172,17.425781 2.107257,4.523386 5.875815,10.714959 12.46289,14.023438 C 22.995343,43.883272 23.498826,44 24,44 Z"
     id="path5" />
  <path
     style="opacity:0.2;fill:#ffffff"
     d="M 24,4 C 23.640762,4 23.28093,4.057654 22.9375,4.1757812 L 8.1308594,9.2675781 C 6.8626717,9.7037356 6,10.893342 6,12.205078 c 0,0.234809 0.039772,0.483803 0.044922,0.720703 0.1149909,-1.195536 0.9108254,-2.254056 2.0859375,-2.658203 L 22.9375,5.1757812 C 23.28093,5.0576542 23.640762,5 24,5 c 0.35965,0 0.718711,0.057383 1.0625,0.1757812 l 14.802734,5.0917968 a 2.6879273,2.6212051 0 0 1 0.0039,0 c 1.175112,0.404147 1.970946,1.462667 2.085937,2.658203 C 41.960233,12.688799 42,12.439963 42,12.205078 42,10.893342 41.137329,9.7037356 39.869141,9.2675781 a 2.6879273,2.6212051 0 0 0 -0.0039,0 L 25.0625,4.1757812 C 24.718711,4.0573829 24.35965,4 24,4 Z"
     id="path6" />
</svg>
