<?xml version="1.0" encoding="UTF-8" standalone="no"?>
<!-- Created with Inkscape (http://www.inkscape.org/) -->

<svg
   width="48"
   height="48"
   viewBox="0 0 48 48"
   version="1.1"
   id="svg5"
   inkscape:version="1.4.3 (0d15f75042, 2025-12-25)"
   sodipodi:docname="system-switch-user.svg"
   xmlns:inkscape="http://www.inkscape.org/namespaces/inkscape"
   xmlns:sodipodi="http://sodipodi.sourceforge.net/DTD/sodipodi-0.dtd"
   xmlns="http://www.w3.org/2000/svg"
   xmlns:svg="http://www.w3.org/2000/svg">
  <sodipodi:namedview
     id="namedview7"
     pagecolor="#ffffff"
     bordercolor="#000000"
     borderopacity="0.25"
     inkscape:showpageshadow="2"
     inkscape:pageopacity="0.0"
     inkscape:pagecheckerboard="0"
     inkscape:deskcolor="#d1d1d1"
     inkscape:document-units="px"
     showgrid="false"
     inkscape:zoom="16.666667"
     inkscape:cx="23.97"
     inkscape:cy="24.03"
     inkscape:window-width="1920"
     inkscape:window-height="1008"
     inkscape:window-x="0"
     inkscape:window-y="0"
     inkscape:window-maximized="1"
     inkscape:current-layer="svg5" />
  <defs
     id="defs2" />
  <circle
     fill="#5294e2"
     cx="24"
     cy="24"
     r="20"
     id="circle1"
     style="fill:#3f51b5;fill-opacity:1" />
  <path
     fill="#ffffff"
     opacity="0.2"
     d="M 24,4 A 20,20 0 0 0 4,24 20,20 0 0 0 4.0215,24.582 20,20 0 0 1 23.9995,5 20,20 0 0 1 43.9785,24.418 20,20 0 0 0 43.9995,24 a 20,20 0 0 0 -20,-20 z"
     id="path1" />
  <path
     opacity="0.2"
     d="M 43.979,24.418 A 20,20 0 0 1 24,44 20,20 0 0 1 4.022,24.582 20,20 0 0 0 4,25 20,20 0 0 0 24,45 20,20 0 0 0 44,25 20,20 0 0 0 43.979,24.418 Z"
     id="path2" />
  <path
     style="opacity:0.2;fill:#000000;stroke-width:2"
     d="m 32,11.000353 c -1.009562,0 -2.01912,0.674714 -2,2.023437 v 15.976564 h -5 l 7,9 7,-9 H 34 V 13.02379 c 0.0192,-1.348723 -0.990438,-2.023437 -2,-2.023437 z m -16,1 -7,9.000001 h 5 v 15.976562 c -0.03826,2.697446 4.03825,2.697446 4,0 V 21.000354 h 5 z"
     id="path3" />
  <path
     style="fill:#ffffff;stroke-width:2"
     d="m 32,10 c -1.009562,0 -2.01912,0.674715 -2,2.023438 V 28 h -5 l 7,9 7,-9 H 34 V 12.023438 C 34.019126,10.674715 33.009562,10 32,10 Z m -16,1 -7,9 h 5 v 15.976562 c -0.03826,2.697446 4.03825,2.697446 4,0 V 20 h 5 z"
     id="path4" />
</svg>
