<?xml version="1.0" encoding="UTF-8" standalone="no"?>
<!-- Created with Inkscape (http://www.inkscape.org/) -->

<svg
   width="48"
   height="48"
   viewBox="0 0 48 48"
   version="1.1"
   id="svg5"
   inkscape:version="1.4.3 (0d15f75042, 2025-12-25)"
   sodipodi:docname="system-suspend-hibernate.svg"
   xmlns:inkscape="http://www.inkscape.org/namespaces/inkscape"
   xmlns:sodipodi="http://sodipodi.sourceforge.net/DTD/sodipodi-0.dtd"
   xmlns="http://www.w3.org/2000/svg"
   xmlns:svg="http://www.w3.org/2000/svg">
  <sodipodi:namedview
     id="namedview7"
     pagecolor="#ffffff"
     bordercolor="#000000"
     borderopacity="0.25"
     inkscape:showpageshadow="2"
     inkscape:pageopacity="0.0"
     inkscape:pagecheckerboard="0"
     inkscape:deskcolor="#d1d1d1"
     inkscape:document-units="px"
     showgrid="false"
     inkscape:zoom="16.416667"
     inkscape:cx="24.030456"
     inkscape:cy="24.030456"
     inkscape:window-width="1920"
     inkscape:window-height="1008"
     inkscape:window-x="0"
     inkscape:window-y="0"
     inkscape:window-maximized="1"
     inkscape:current-layer="svg5" />
  <defs
     id="defs2" />
  <circle
     fill="#5294e2"
     cx="24"
     cy="24"
     r="20"
     id="circle1"
     style="fill:#673ab7;fill-opacity:1" />
  <path
     fill="#ffffff"
     opacity="0.2"
     d="M 24,4 A 20,20 0 0 0 4,24 20,20 0 0 0 4.0215,24.582 20,20 0 0 1 23.9995,5 20,20 0 0 1 43.9785,24.418 20,20 0 0 0 43.9995,24 a 20,20 0 0 0 -20,-20 z"
     id="path1" />
  <path
     opacity="0.2"
     d="M 43.979,24.418 A 20,20 0 0 1 24,44 20,20 0 0 1 4.022,24.582 20,20 0 0 0 4,25 20,20 0 0 0 24,45 20,20 0 0 0 44,25 20,20 0 0 0 43.979,24.418 Z"
     id="path2" />
  <path
     style="opacity:0.2;fill:#000000;stroke-width:2"
     d="M 24,11 A 14,14 0 0 0 10,25 14,14 0 0 0 24,39 14,14 0 0 0 38,25 14,14 0 0 0 24,11 Z m 0,4 A 10,10 0 0 1 34,25 10,10 0 0 1 24,35 10,10 0 0 1 14,25 10,10 0 0 1 24,15 Z m 0,6 a 3.9999996,3.9999996 0 0 0 -4,4 3.9999996,3.9999996 0 0 0 4,4 3.9999996,3.9999996 0 0 0 4,-4 3.9999996,3.9999996 0 0 0 -4,-4 z"
     id="path3" />
  <path
     style="fill:#ffffff;stroke-width:2"
     d="M 24,10 A 14,14 0 0 0 10,24 14,14 0 0 0 24,38 14,14 0 0 0 38,24 14,14 0 0 0 24,10 Z m 0,4 A 10,10 0 0 1 34,24 10,10 0 0 1 24,34 10,10 0 0 1 14,24 10,10 0 0 1 24,14 Z m 0,6 a 3.9999996,3.9999996 0 0 0 -4,4 3.9999996,3.9999996 0 0 0 4,4 3.9999996,3.9999996 0 0 0 4,-4 3.9999996,3.9999996 0 0 0 -4,-4 z"
     id="path4" />
</svg>
