<?xml version="1.0" encoding="UTF-8" standalone="no"?>
<!-- Created with Inkscape (http://www.inkscape.org/) -->

<svg
   width="48"
   height="48"
   viewBox="0 0 48 48"
   version="1.1"
   id="svg5"
   inkscape:version="1.3 (0e150ed6c4, 2023-07-21)"
   sodipodi:docname="system-suspend-hibernate.svg"
   xmlns:inkscape="http://www.inkscape.org/namespaces/inkscape"
   xmlns:sodipodi="http://sodipodi.sourceforge.net/DTD/sodipodi-0.dtd"
   xmlns="http://www.w3.org/2000/svg"
   xmlns:svg="http://www.w3.org/2000/svg">
  <sodipodi:namedview
     id="namedview7"
     pagecolor="#ffffff"
     bordercolor="#000000"
     borderopacity="0.25"
     inkscape:showpageshadow="2"
     inkscape:pageopacity="0.0"
     inkscape:pagecheckerboard="0"
     inkscape:deskcolor="#d1d1d1"
     inkscape:document-units="px"
     showgrid="false"
     inkscape:zoom="16.416667"
     inkscape:cx="24"
     inkscape:cy="24"
     inkscape:window-width="1920"
     inkscape:window-height="1004"
     inkscape:window-x="0"
     inkscape:window-y="0"
     inkscape:window-maximized="1"
     inkscape:current-layer="svg5" />
  <defs
     id="defs2" />
  <rect
     style="opacity:0.2;fill:#000000;stroke-width:2.85714;stroke-linecap:square"
     id="rect234"
     width="40"
     height="40"
     x="4"
     y="4.999999"
     ry="9" />
  <rect
     style="fill:#673ab7;fill-opacity:1;stroke-width:2.85714;stroke-linecap:square"
     id="rect396"
     width="40"
     height="40"
     x="4"
     y="4"
     ry="9" />
  <path
     style="opacity:0.2;fill:#000000;stroke-width:2"
     d="M 24,11 A 14,14 0 0 0 10,25 14,14 0 0 0 24,39 14,14 0 0 0 38,25 14,14 0 0 0 24,11 Z m 0,4 A 10,10 0 0 1 34,25 10,10 0 0 1 24,35 10,10 0 0 1 14,25 10,10 0 0 1 24,15 Z m 0,6 a 3.9999996,3.9999996 0 0 0 -4,4 3.9999996,3.9999996 0 0 0 4,4 3.9999996,3.9999996 0 0 0 4,-4 3.9999996,3.9999996 0 0 0 -4,-4 z"
     id="path3" />
  <path
     style="fill:#ffffff;stroke-width:2"
     d="M 24,10 A 14,14 0 0 0 10,24 14,14 0 0 0 24,38 14,14 0 0 0 38,24 14,14 0 0 0 24,10 Z m 0,4 A 10,10 0 0 1 34,24 10,10 0 0 1 24,34 10,10 0 0 1 14,24 10,10 0 0 1 24,14 Z m 0,6 a 3.9999996,3.9999996 0 0 0 -4,4 3.9999996,3.9999996 0 0 0 4,4 3.9999996,3.9999996 0 0 0 4,-4 3.9999996,3.9999996 0 0 0 -4,-4 z"
     id="path4" />
  <path
     id="path1040"
     style="opacity:0.1;fill:#ffffff;stroke-width:8;stroke-linecap:square"
     d="M 13,4.0000004 C 8.01401,4.0000004 4,8.0140102 4,13 v 1 C 4,9.0140102 8.01401,5.0000004 13,5.0000004 h 22 c 4.985992,0 9,4.0140098 9,8.9999996 V 13 C 44,8.0140102 39.985992,4.0000004 35,4.0000004 Z" />
</svg>
