<?xml version="1.0" encoding="UTF-8" standalone="no"?>
<!-- Created with Inkscape (http://www.inkscape.org/) -->

<svg
   width="48"
   height="48"
   viewBox="0 0 48 48"
   version="1.1"
   id="svg5"
   inkscape:version="1.4.3 (0d15f75042, 2025-12-25)"
   sodipodi:docname="system-shutdown.svg"
   xmlns:inkscape="http://www.inkscape.org/namespaces/inkscape"
   xmlns:sodipodi="http://sodipodi.sourceforge.net/DTD/sodipodi-0.dtd"
   xmlns="http://www.w3.org/2000/svg"
   xmlns:svg="http://www.w3.org/2000/svg">
  <sodipodi:namedview
     id="namedview7"
     pagecolor="#ffffff"
     bordercolor="#000000"
     borderopacity="0.25"
     inkscape:showpageshadow="2"
     inkscape:pageopacity="0.0"
     inkscape:pagecheckerboard="0"
     inkscape:deskcolor="#d1d1d1"
     inkscape:document-units="px"
     showgrid="false"
     inkscape:zoom="16.3125"
     inkscape:cx="24"
     inkscape:cy="24"
     inkscape:window-width="1920"
     inkscape:window-height="1008"
     inkscape:window-x="0"
     inkscape:window-y="0"
     inkscape:window-maximized="1"
     inkscape:current-layer="svg5" />
  <defs
     id="defs2" />
  <circle
     fill="#5294e2"
     cx="24"
     cy="24"
     r="20"
     id="circle1"
     style="fill:#ef5350;fill-opacity:1" />
  <path
     fill="#ffffff"
     opacity="0.2"
     d="M 24,4 A 20,20 0 0 0 4,24 20,20 0 0 0 4.0215,24.582 20,20 0 0 1 23.9995,5 20,20 0 0 1 43.9785,24.418 20,20 0 0 0 43.9995,24 a 20,20 0 0 0 -20,-20 z"
     id="path1" />
  <path
     opacity="0.2"
     d="M 43.979,24.418 A 20,20 0 0 1 24,44 20,20 0 0 1 4.022,24.582 20,20 0 0 0 4,25 20,20 0 0 0 24,45 20,20 0 0 0 44,25 20,20 0 0 0 43.979,24.418 Z"
     id="path2" />
  <path
     style="opacity:0.2;fill:#000000;stroke-width:2"
     d="m 23.969938,10.00002 a 2.0002,1.9932184 0 0 0 -1.970704,2.019531 v 11.958987 a 2.0002,1.9932184 0 1 0 4,0 V 12.019551 A 2.0002,1.9932184 0 0 0 23.969938,10.00002 Z m -6.712892,4.001953 a 2.0003216,2.0020442 0 0 0 -1.066406,0.353516 c -5.094854,3.426549 -7.3679098,9.800279 -5.593751,15.681641 1.77416,5.881362 7.189923,9.930724 13.328127,9.962892 6.138202,0.03218 11.597994,-3.959822 13.433592,-9.822266 1.835598,-5.862446 -0.370966,-12.258524 -5.429686,-15.738283 a 2.0003216,2.0020442 0 1 0 -2.265626,3.296875 c 3.625242,2.493708 5.194354,7.042928 3.878906,11.244142 -1.315448,4.201216 -5.19687,7.038678 -9.595702,7.015626 -4.398834,-0.02305 -8.248113,-2.900464 -9.519533,-7.115236 -1.271419,-4.214772 0.343006,-8.747552 3.994141,-11.203126 a 2.0003216,2.0020442 0 0 0 -1.164062,-3.675781 z"
     id="path3" />
  <path
     style="fill:#ffffff;stroke-width:2"
     d="M 23.969938,9.0002135 A 2.0002,1.9932184 0 0 0 21.999234,11.019744 V 22.97873 a 2.0002,1.9932184 0 1 0 4,0 V 11.019744 A 2.0002,1.9932184 0 0 0 23.969938,9.0002135 Z m -6.712892,4.0019525 a 2.0003216,2.0020442 0 0 0 -1.066406,0.353516 c -5.094854,3.426548 -7.3679098,9.80028 -5.593751,15.681642 1.77416,5.881362 7.189923,9.930722 13.328127,9.96289 6.138202,0.03218 11.597994,-3.959822 13.433592,-9.822266 1.835598,-5.862446 -0.370966,-12.258524 -5.429686,-15.738282 a 2.0003216,2.0020442 0 1 0 -2.265626,3.296875 c 3.625242,2.493709 5.194354,7.042927 3.878906,11.244143 -1.315448,4.201214 -5.19687,7.038676 -9.595702,7.015624 -4.398834,-0.02305 -8.248113,-2.900462 -9.519533,-7.115234 -1.271419,-4.214774 0.343006,-8.747554 3.994141,-11.203127 a 2.0003216,2.0020442 0 0 0 -1.164062,-3.675781 z"
     id="path4" />
</svg>
