<?xml version="1.0" encoding="UTF-8" standalone="no"?>
<!-- Created with Inkscape (http://www.inkscape.org/) -->

<svg
   width="48"
   height="48"
   viewBox="0 0 48 48"
   version="1.1"
   id="svg5"
   inkscape:version="1.3 (0e150ed6c4, 2023-07-21)"
   sodipodi:docname="weather-snow-scattered-night.svg"
   xmlns:inkscape="http://www.inkscape.org/namespaces/inkscape"
   xmlns:sodipodi="http://sodipodi.sourceforge.net/DTD/sodipodi-0.dtd"
   xmlns="http://www.w3.org/2000/svg"
   xmlns:svg="http://www.w3.org/2000/svg">
  <sodipodi:namedview
     id="namedview7"
     pagecolor="#ffffff"
     bordercolor="#000000"
     borderopacity="0.25"
     inkscape:showpageshadow="2"
     inkscape:pageopacity="0.0"
     inkscape:pagecheckerboard="0"
     inkscape:deskcolor="#d1d1d1"
     inkscape:document-units="px"
     showgrid="false"
     inkscape:zoom="16.3125"
     inkscape:cx="23.969349"
     inkscape:cy="24"
     inkscape:window-width="1920"
     inkscape:window-height="984"
     inkscape:window-x="0"
     inkscape:window-y="29"
     inkscape:window-maximized="1"
     inkscape:current-layer="svg5" />
  <defs
     id="defs2" />
  <path
     style="opacity:0.2;fill:#000000;stroke-width:1.12499"
     d="m 28.564158,4.0019669 c 1.168517,0.05788 1.851324,1.34297 1.245291,2.343721 -1.022393,1.6889421 -1.870046,3.6244901 -1.870271,5.5987771 0,5.989232 5.128028,11.177022 11.116402,11.180561 1.311555,-0.01028 2.611873,-0.624478 3.834449,-1.099543 1.373054,-0.532755 2.642232,0.975073 1.883024,2.237098 -2.508768,4.170633 -7.022577,6.728036 -11.889608,6.737444 h -0.0021 c -7.661412,0 -13.905385,-6.24397 -13.905385,-13.905408 0.0016,-5.766332 3.572748,-10.9443221 8.962471,-12.9940731 0.19951,-0.07571 0.412539,-0.109272 0.625662,-0.09858 z"
     id="path3" />
  <path
     style="fill:#ffcc42;stroke-width:1.12499"
     d="m 28.564158,3.0019669 c 1.168517,0.05788 1.851324,1.34297 1.245291,2.343721 -1.022393,1.6889431 -1.870046,3.6244911 -1.870271,5.5987781 0,5.989231 5.128028,11.177021 11.116403,11.18056 1.311554,-0.01028 2.611873,-0.624478 3.834448,-1.099543 1.373055,-0.532755 2.642232,0.975073 1.883024,2.237098 -2.508767,4.170633 -7.022577,6.728037 -11.889608,6.737444 h -0.0021 c -7.661412,0 -13.905385,-6.24397 -13.905385,-13.905408 0.0016,-5.766332 3.572748,-10.9443221 8.962471,-12.9940731 0.19951,-0.07571 0.412538,-0.109272 0.625662,-0.09858 z"
     id="path4" />
  <path
     id="path1"
     style="opacity:0.2;fill:#ffffff;stroke-width:1.12499"
     d="m 28.564845,3.0019779 c 1.054126,0.05221 1.708825,1.103033 1.382812,2.042969 -0.194923,-0.56311 -0.706094,-1.009449 -1.382812,-1.042969 -0.213124,-0.01069 -0.427443,0.02195 -0.626953,0.09766 C 22.720279,6.0839349 19.207226,11.001636 18.98672,16.544951 18.98192,16.394987 18.975,16.244883 18.975,16.093779 18.9766,10.327453 22.548173,5.1493869 27.937891,3.0996379 c 0.19951,-0.07571 0.413829,-0.108348 0.626954,-0.09766 z m -0.611328,8.5097661 c 0.310553,5.745988 5.302958,10.609854 11.101562,10.613281 1.311553,-0.01028 2.611411,-0.624545 3.833985,-1.099609 1.266996,-0.491604 2.443497,0.754411 2.021484,1.941406 -0.268492,-0.760712 -1.121221,-1.290715 -2.021484,-0.941406 -1.222574,0.475064 -2.522432,1.089329 -3.833985,1.099609 -5.988369,-0.0035 -11.115234,-5.190462 -11.115234,-11.179688 1.6e-5,-0.144377 0.0049,-0.289712 0.01367,-0.433593 z" />
  <path
     style="opacity:0.2;fill:#000000;stroke-width:2"
     d="m 23,18 a 9,9 0 0 0 -9,9 9,9 0 0 0 0.117188,1.394532 A 6,6 0 0 0 12,28 6,6 0 0 0 6,34 6,6 0 0 0 12,40 H 34 A 6,6 0 0 0 40,34 6,6 0 0 0 34,28 6,6 0 0 0 31.878906,28.386718 9,9 0 0 0 32,27 9,9 0 0 0 23,18 Z"
     id="path7" />
  <path
     d="m 23,17 c -4.970562,0 -9,4.029438 -9,9 0.0019,0.46447 0.0398,0.928094 0.11328,1.386718 C 13.437858,27.13172 12.721956,27.000714 12,27 c -3.3137084,0 -6,2.686292 -6,6 0,3.313708 2.6862916,6 6,6 h 22 c 3.313708,0 6,-2.686292 6,-6 0,-3.313708 -2.686292,-6 -6,-6 -0.724228,0.0052 -1.441526,0.14154 -2.117188,0.402344 C 31.958416,26.938672 31.997598,26.46979 32,26 32,21.029438 27.970562,17 23,17 Z"
     style="fill:#f2f2f2;fill-opacity:1;stroke-width:2"
     id="path8" />
  <path
     style="opacity:0.2;fill:#000000"
     d="M 13.5,41 12.423828,42.064453 11,42.5 11.347656,44 11,45.5 12.423828,45.935547 13.5,47 14.576172,45.935547 16,45.5 15.652344,44 16,42.5 14.576172,42.064453 Z m 10,0 -1.076172,1.064453 L 21,42.5 21.347656,44 21,45.5 22.423828,45.935547 23.5,47 24.576172,45.935547 26,45.5 25.652344,44 26,42.5 24.576172,42.064453 Z m 9,0 -1.076172,1.064453 L 30,42.5 30.347656,44 30,45.5 31.423828,45.935547 32.5,47 33.576172,45.935547 35,45.5 34.652344,44 35,42.5 33.576172,42.064453 Z"
     id="path6" />
  <path
     id="path9"
     style="fill:#edfafe;fill-opacity:1"
     d="M 13.5 40 L 12.423828 41.064453 L 11 41.5 L 11.347656 43 L 11 44.5 L 12.423828 44.935547 L 13.5 46 L 14.576172 44.935547 L 16 44.5 L 15.652344 43 L 16 41.5 L 14.576172 41.064453 L 13.5 40 z M 23.5 40 L 22.423828 41.064453 L 21 41.5 L 21.347656 43 L 21 44.5 L 22.423828 44.935547 L 23.5 46 L 24.576172 44.935547 L 26 44.5 L 25.652344 43 L 26 41.5 L 24.576172 41.064453 L 23.5 40 z M 32.5 40 L 31.423828 41.064453 L 30 41.5 L 30.347656 43 L 30 44.5 L 31.423828 44.935547 L 32.5 46 L 33.576172 44.935547 L 35 44.5 L 34.652344 43 L 35 41.5 L 33.576172 41.064453 L 32.5 40 z " />
</svg>
