<?xml version="1.0" encoding="UTF-8" standalone="no"?>
<!-- Created with Inkscape (http://www.inkscape.org/) -->

<svg
   width="48"
   height="48"
   viewBox="0 0 48 48"
   version="1.1"
   id="svg5"
   inkscape:version="1.3 (0e150ed6c4, 2023-07-21)"
   sodipodi:docname="weather-showers.svg"
   xmlns:inkscape="http://www.inkscape.org/namespaces/inkscape"
   xmlns:sodipodi="http://sodipodi.sourceforge.net/DTD/sodipodi-0.dtd"
   xmlns="http://www.w3.org/2000/svg"
   xmlns:svg="http://www.w3.org/2000/svg">
  <sodipodi:namedview
     id="namedview7"
     pagecolor="#ffffff"
     bordercolor="#000000"
     borderopacity="0.25"
     inkscape:showpageshadow="2"
     inkscape:pageopacity="0.0"
     inkscape:pagecheckerboard="0"
     inkscape:deskcolor="#d1d1d1"
     inkscape:document-units="px"
     showgrid="false"
     inkscape:zoom="16.3125"
     inkscape:cx="23.969349"
     inkscape:cy="24"
     inkscape:window-width="1920"
     inkscape:window-height="984"
     inkscape:window-x="0"
     inkscape:window-y="29"
     inkscape:window-maximized="1"
     inkscape:current-layer="svg5" />
  <defs
     id="defs2" />
  <path
     style="opacity:0.2;fill:#000000;stroke-width:2"
     d="m 24,11 a 9,9 0 0 0 -9,9 9,9 0 0 0 0.117188,1.394532 A 6,6 0 0 0 13,21 6,6 0 0 0 7,27 6,6 0 0 0 13,33 H 35 A 6,6 0 0 0 41,27 6,6 0 0 0 35,21 6,6 0 0 0 32.878906,21.386718 9,9 0 0 0 33,20 9,9 0 0 0 24,11 Z"
     id="path7" />
  <path
     d="m 24,10 c -4.970562,0 -9,4.029438 -9,9 0.0019,0.46447 0.0398,0.928094 0.11328,1.386718 C 14.437858,20.13172 13.721956,20.000714 13,20 c -3.313708,0 -6,2.686292 -6,6 0,3.313708 2.686292,6 6,6 h 22 c 3.313708,0 6,-2.686292 6,-6 0,-3.313708 -2.686292,-6 -6,-6 -0.724228,0.0052 -1.441526,0.14154 -2.117188,0.402344 C 32.958416,19.938672 32.997598,19.46979 33,19 33,14.029438 28.970562,10 24,10 Z"
     style="fill:#d0d0d0;fill-opacity:1;stroke-width:2"
     id="path8" />
  <path
     id="path1"
     style="opacity:0.2;fill:#000000;stroke-width:2;stroke-linecap:round;stroke-linejoin:round"
     d="m 14,35 c 0,0 -2,2.895432 -2,4 0,1.104568 0.895432,2 2,2 1.104568,0 2,-0.895432 2,-2 0,-1.104568 -2,-4 -2,-4 z m 10,0 c 0,0 -2,2.895432 -2,4 0,1.104568 0.895432,2 2,2 1.104568,0 2,-0.895432 2,-2 0,-1.104568 -2,-4 -2,-4 z m 10,0 c 0,0 -2,2.895432 -2,4 0,1.104568 0.895432,2 2,2 1.104568,0 2,-0.895432 2,-2 0,-1.104568 -2,-4 -2,-4 z m -16,6 c 0,0 -2,2.895432 -2,4 0,1.104568 0.895432,2 2,2 1.104568,0 2,-0.895432 2,-2 0,-1.104568 -2,-4 -2,-4 z m 12,0 c 0,0 -2,2.895432 -2,4 0,1.104568 0.895432,2 2,2 1.104568,0 2,-0.895432 2,-2 0,-1.104568 -2,-4 -2,-4 z" />
  <path
     id="path2"
     style="fill:#83e0f7;fill-opacity:1;stroke-width:2;stroke-linecap:round;stroke-linejoin:round"
     d="m 14,34 c 0,0 -2,2.895432 -2,4 0,1.104568 0.895432,2 2,2 1.104568,0 2,-0.895432 2,-2 0,-1.104568 -2,-4 -2,-4 z m 10,0 c 0,0 -2,2.895432 -2,4 0,1.104568 0.895432,2 2,2 1.104568,0 2,-0.895432 2,-2 0,-1.104568 -2,-4 -2,-4 z m 10,0 c 0,0 -2,2.895432 -2,4 0,1.104568 0.895432,2 2,2 1.104568,0 2,-0.895432 2,-2 0,-1.104568 -2,-4 -2,-4 z m -16,6 c 0,0 -2,2.895432 -2,4 0,1.104568 0.895432,2 2,2 1.104568,0 2,-0.895432 2,-2 0,-1.104568 -2,-4 -2,-4 z m 12,0 c 0,0 -2,2.895432 -2,4 0,1.104568 0.895432,2 2,2 1.104568,0 2,-0.895432 2,-2 0,-1.104568 -2,-4 -2,-4 z" />
</svg>
