<?xml version="1.0" encoding="UTF-8" standalone="no"?>
<!-- Created with Inkscape (http://www.inkscape.org/) -->

<svg
   width="16"
   height="16"
   viewBox="0 0 16 16"
   version="1.1"
   id="svg5"
   inkscape:version="1.2.2 (1:1.2.2+202305151914+b0a8486541)"
   sodipodi:docname="multimedia-player-symbolic.svg"
   xmlns:inkscape="http://www.inkscape.org/namespaces/inkscape"
   xmlns:sodipodi="http://sodipodi.sourceforge.net/DTD/sodipodi-0.dtd"
   xmlns="http://www.w3.org/2000/svg"
   xmlns:svg="http://www.w3.org/2000/svg">
  <sodipodi:namedview
     id="namedview7"
     pagecolor="#ffffff"
     bordercolor="#000000"
     borderopacity="0.25"
     inkscape:showpageshadow="2"
     inkscape:pageopacity="0.0"
     inkscape:pagecheckerboard="0"
     inkscape:deskcolor="#d1d1d1"
     inkscape:document-units="px"
     showgrid="false"
     showguides="true"
     inkscape:zoom="51.875"
     inkscape:cx="7.9903614"
     inkscape:cy="8"
     inkscape:window-width="1920"
     inkscape:window-height="1008"
     inkscape:window-x="0"
     inkscape:window-y="0"
     inkscape:window-maximized="1"
     inkscape:current-layer="svg5" />
  <defs
     id="defs2" />
  <path
     id="rect339"
     style="fill:#dfdfdf;fill-opacity:1;stroke-width:4;stroke-linecap:square"
     d="M 4,0 C 2.8920055,0 2,0.89200554 2,2 v 12 c 0,1.107995 0.8920055,2 2,2 h 7 c 1.107995,0 2,-0.892005 2,-2 V 2 C 13,0.89200554 12.107995,0 11,0 Z m 0,2 h 7 V 9 H 4 Z m 3.5,9 C 8.3284265,11 9,11.671574 9,12.5 9,13.328426 8.3284265,14 7.5,14 6.6715736,14 6,13.328426 6,12.5 6,11.671574 6.6715736,11 7.5,11 Z"
     sodipodi:nodetypes="ssssssssscccccsssss" />
</svg>
