<?xml version="1.0" encoding="UTF-8" standalone="no"?>
<!-- Created with Inkscape (http://www.inkscape.org/) -->

<svg
   width="22"
   height="22"
   viewBox="0 0 22 22"
   version="1.1"
   id="svg5"
   inkscape:version="1.4.3 (0d15f75042, 2025-12-25)"
   sodipodi:docname="audio-input-microphone-symbolic.svg"
   xmlns:inkscape="http://www.inkscape.org/namespaces/inkscape"
   xmlns:sodipodi="http://sodipodi.sourceforge.net/DTD/sodipodi-0.dtd"
   xmlns="http://www.w3.org/2000/svg"
   xmlns:svg="http://www.w3.org/2000/svg">
  <sodipodi:namedview
     id="namedview7"
     pagecolor="#ffffff"
     bordercolor="#000000"
     borderopacity="0.25"
     inkscape:showpageshadow="2"
     inkscape:pageopacity="0.0"
     inkscape:pagecheckerboard="0"
     inkscape:deskcolor="#d1d1d1"
     inkscape:document-units="px"
     showgrid="false"
     showguides="true"
     inkscape:zoom="36.681818"
     inkscape:cx="10.986369"
     inkscape:cy="11"
     inkscape:window-width="1920"
     inkscape:window-height="1010"
     inkscape:window-x="0"
     inkscape:window-y="0"
     inkscape:window-maximized="1"
     inkscape:current-layer="svg5" />
  <defs
     id="defs2">
    <style
       id="current-color-scheme"
       type="text/css">
        .ColorScheme-Text { color:#4d4d4d; } .ColorScheme-Highlight { color:#4285f4; } .ColorScheme-NeutralText { color:#ff9800; } .ColorScheme-PositiveText { color:#4caf50; } .ColorScheme-NegativeText { color:#f44336; }
     </style>
  </defs>
  <path
     d="M 11,3 C 9.34,3 8,4.34 8,6 v 5 c 0,1.66 1.34,3 3,3 1.66,0 3,-1.34 3,-3 V 6 C 14,4.34 12.66,3 11,3 Z m 0,2 c 0.55,0 1,0.45 1,1 v 5 c 0,0.55 -0.45,1 -1,1 -0.55,0 -1,-0.45 -1,-1 V 6 c 0,-0.55 0.45,-1 1,-1 z m -6,5 v 1 c 0,2.97 2.16,5.43 5,5.91 V 19 h 2 v -2.09 c 2.84,-0.48 5,-2.94 5,-5.91 v -1 h -2 v 1 c 0,2.23 -1.77,4 -4,4 -2.23,0 -4,-1.77 -4,-4 v -1 z"
     style="fill:currentColor;fill-opacity:1"
     class="ColorScheme-Text"
     id="path361" />
</svg>
