<?xml version="1.0" encoding="UTF-8" standalone="no"?>
<!-- Created with Inkscape (http://www.inkscape.org/) -->

<svg
   width="16"
   height="16"
   viewBox="0 0 16 16"
   version="1.1"
   id="svg402"
   inkscape:version="1.3 (0e150ed6c4, 2023-07-21)"
   sodipodi:docname="folder-yellow-network.svg"
   xmlns:inkscape="http://www.inkscape.org/namespaces/inkscape"
   xmlns:sodipodi="http://sodipodi.sourceforge.net/DTD/sodipodi-0.dtd"
   xmlns="http://www.w3.org/2000/svg"
   xmlns:svg="http://www.w3.org/2000/svg">
  <sodipodi:namedview
     id="namedview404"
     pagecolor="#ffffff"
     bordercolor="#000000"
     borderopacity="0.25"
     inkscape:showpageshadow="2"
     inkscape:pageopacity="0.0"
     inkscape:pagecheckerboard="0"
     inkscape:deskcolor="#d1d1d1"
     inkscape:document-units="px"
     showgrid="false"
     inkscape:zoom="50.1875"
     inkscape:cx="8"
     inkscape:cy="8"
     inkscape:window-width="1850"
     inkscape:window-height="1011"
     inkscape:window-x="70"
     inkscape:window-y="32"
     inkscape:window-maximized="1"
     inkscape:current-layer="svg402" />
  <defs
     id="defs399" />
  <path
     d="m 3.0000002,2 c -1.1045674,0 -2,0.8954327 -2,2 v 9.000001 c 0,1.104568 0.8954304,2 2,2 H 13 c 1.104569,0 2,-0.895432 2,-2 V 6 C 15,4.8954327 14.104567,4 13,4 H 9.0000001 l -2,-2 z"
     style="fill:#f8e45c;fill-opacity:1"
     id="path392" />
  <path
     d="m 8,6 c -2.2091,0 -4,1.791 -4,4 0,2.209 1.7909,4 4,4 2.209,0 4,-1.791 4,-4 C 12,7.791 10.209,6 8,6 Z M 7.714,7.107 c 0.038,-0.004 0.087,0.002 0.125,0 C 7.844,7.125 7.811,7.19 7.768,7.286 7.49,7.892 7.474,8.602 7.732,8.982 7.779,9.051 7.821,9.116 7.821,9.125 7.821,9.133 7.771,9.143 7.714,9.143 7.581,9.143 7.454,9.061 7.196,8.857 7.082,8.766 6.9331,8.69 6.8751,8.678 6.7841,8.66 6.7601,8.668 6.6431,8.786 c -0.109,0.109 -0.143,0.168 -0.143,0.267 0,0.379 0.45,0.68 1.2859,0.858 1.135,0.24 1.415,0.456 1.446,1.053 0.039,0.749 -0.359,1.313 -1.232,1.75 -0.104,0.052 -0.171,0.072 -0.214,0.089 -0.02,-0.001 -0.035,0.002 -0.054,0 C 7.725,12.78 7.714,12.727 7.714,12.625 7.714,12.227 7.558,11.818 7.321,11.589 7.258,11.528 7.081,11.397 6.9291,11.303 6.7771,11.209 6.6231,11.1 6.5891,11.053 6.5331,10.976 6.5281,10.928 6.5711,10.786 6.6511,10.524 6.7451,10.379 6.9291,10.214 7.025,10.128 7.122,10.055 7.143,10.053 7.164,10.052 7.02,10.008 6.8041,9.964 6.5871,9.92 6.2711,9.827 6.1071,9.768 5.808,9.659 5.4041,9.432 5.2501,9.268 5.2436,9.261 5.2379,9.256 5.2323,9.25 5.4529,8.371 6.0721,7.651 6.8931,7.303 7.065,7.231 7.242,7.181 7.429,7.143 7.522,7.124 7.618,7.117 7.714,7.107 Z m 2.679,1.339 c 0.067,0.042 0.32,0.59 0.393,0.857 0.093,0.346 0.086,0.943 0,1.286 -0.033,0.131 -0.076,0.253 -0.09,0.268 -0.014,0.015 -0.065,-0.072 -0.125,-0.179 -0.06,-0.106 -0.251,-0.332 -0.41,-0.5 C 9.701,9.694 9.629,9.44 9.821,9.053 9.918,8.858 10.341,8.414 10.393,8.446 Z"
     style="opacity:1;fill:#e5a50a"
     id="path1" />
</svg>
