<?xml version="1.0" encoding="UTF-8" standalone="no"?>
<!-- Created with Inkscape (http://www.inkscape.org/) -->

<svg
   width="22"
   height="22"
   viewBox="0 0 22 22"
   version="1.1"
   id="svg5"
   inkscape:version="1.3 (0e150ed6c4, 2023-07-21)"
   sodipodi:docname="1password-panel.svg"
   xmlns:inkscape="http://www.inkscape.org/namespaces/inkscape"
   xmlns:sodipodi="http://sodipodi.sourceforge.net/DTD/sodipodi-0.dtd"
   xmlns="http://www.w3.org/2000/svg"
   xmlns:svg="http://www.w3.org/2000/svg">
  <sodipodi:namedview
     id="namedview7"
     pagecolor="#ffffff"
     bordercolor="#000000"
     borderopacity="0.25"
     inkscape:showpageshadow="2"
     inkscape:pageopacity="0.0"
     inkscape:pagecheckerboard="0"
     inkscape:deskcolor="#d1d1d1"
     inkscape:document-units="px"
     showgrid="false"
     showguides="true"
     inkscape:zoom="36.5"
     inkscape:cx="11"
     inkscape:cy="11"
     inkscape:window-width="1850"
     inkscape:window-height="1011"
     inkscape:window-x="70"
     inkscape:window-y="32"
     inkscape:window-maximized="1"
     inkscape:current-layer="svg5" />
  <defs
     id="defs2">
    <style
       id="current-color-scheme"
       type="text/css">
   .ColorScheme-Text { color:#4d4d4d; } .ColorScheme-Highlight { color:#4285f4; } .ColorScheme-NeutralText { color:#ff9800; } .ColorScheme-PositiveText { color:#4caf50; } .ColorScheme-NegativeText { color:#f44336; }
     </style>
  </defs>
  <path
     d="m 11,4 c -3.8659932,0 -7,3.1340068 -7,7 0,3.865993 3.1340068,7 7,7 3.865993,0 7,-3.134007 7,-7 0,-3.8659932 -3.134007,-7 -7,-7 z m 0,2 c 2.761424,0 5,2.2385763 5,5 0,2.761424 -2.238576,5 -5,5 C 8.2385763,16 6,13.761424 6,11 6,8.2385763 8.2385763,6 11,6 Z M 9.6679688,7 C 9.2986348,7 9,7.2469097 9,7.5546875 v 2.2519531 c 0,0 1,0.5294834 1,0.8867184 0,0.357232 -1,0.886719 -1,0.886719 v 2.865234 C 9,14.753091 9.2986347,15 9.6679688,15 H 12.332031 C 12.701365,15 13,14.753106 13,14.445312 v -1.24414 l -0.0078,-0.0098 c -1.5e-5,3.4e-5 -0.992076,-0.549257 -0.9922,-0.921841 -1.2e-4,-0.372934 0.992188,-0.925781 0.992188,-0.925781 L 13,11.335938 V 7.5546875 C 13,7.2469097 12.701365,7 12.332031,7 Z"
     style="fill:currentColor"
     id="path1"
     class="ColorScheme-Text" />
</svg>
