<?xml version="1.0" encoding="UTF-8" standalone="no"?>
<!-- Created with Inkscape (http://www.inkscape.org/) -->

<svg
   width="22"
   height="22"
   viewBox="0 0 22 22"
   version="1.1"
   id="svg5"
   inkscape:version="1.2.2 (1:1.2.2+202305151914+b0a8486541)"
   sodipodi:docname="audio-volume-low.svg"
   xmlns:inkscape="http://www.inkscape.org/namespaces/inkscape"
   xmlns:sodipodi="http://sodipodi.sourceforge.net/DTD/sodipodi-0.dtd"
   xmlns="http://www.w3.org/2000/svg"
   xmlns:svg="http://www.w3.org/2000/svg">
  <sodipodi:namedview
     id="namedview7"
     pagecolor="#ffffff"
     bordercolor="#000000"
     borderopacity="0.25"
     inkscape:showpageshadow="2"
     inkscape:pageopacity="0.0"
     inkscape:pagecheckerboard="0"
     inkscape:deskcolor="#d1d1d1"
     inkscape:document-units="px"
     showgrid="false"
     showguides="true"
     inkscape:zoom="37.727273"
     inkscape:cx="11"
     inkscape:cy="11"
     inkscape:window-width="1920"
     inkscape:window-height="1008"
     inkscape:window-x="0"
     inkscape:window-y="0"
     inkscape:window-maximized="1"
     inkscape:current-layer="svg5" />
  <defs
     id="defs2">
    <style
       id="current-color-scheme"
       type="text/css">
   .ColorScheme-Text { color:#4d4d4d; } .ColorScheme-Highlight { color:#4285f4; } .ColorScheme-NeutralText { color:#ff9800; } .ColorScheme-PositiveText { color:#4caf50; } .ColorScheme-NegativeText { color:#f44336; }
     </style>
  </defs>
  <path
     id="path971"
     d="M 11,4 7,8 H 4 v 6.000001 h 3 l 4,4 z M 9,9 v 4 L 8,12 H 6 v -2 h 2 z"
     style="fill:currentColor;fill-opacity:1;stroke:none;stroke-width:4;-inkscape-stroke:none"
     class="ColorScheme-Text" />
  <path
     d="M 12.999998,4 V 5.5 C 15.319998,6.239999 17,8.430003 17,11 c 0,2.569997 -1.680002,4.760001 -4.000002,5.5 V 18 C 16.149997,17.220001 18.5,14.399997 18.5,11 18.5,7.600003 16.149997,4.779999 12.999998,4 Z m 0,4 v 6 c 1.060001,-0.579999 1.789065,-1.700001 1.789064,-3 0,-1.299999 -0.719063,-2.420001 -1.789064,-3 z"
     style="opacity:0.35;fill:currentColor;fill-opacity:1;stroke:none;stroke-width:4;-inkscape-stroke:none"
     id="path1186"
     class="ColorScheme-Text" />
</svg>
