<?xml version="1.0" encoding="UTF-8" standalone="no"?>
<svg
   width="22"
   height="22"
   version="1.1"
   id="svg1"
   sodipodi:docname="drive-removable-media-usb-panel.svg"
   inkscape:version="1.4.3 (0d15f75042, 2025-12-25)"
   xmlns:inkscape="http://www.inkscape.org/namespaces/inkscape"
   xmlns:sodipodi="http://sodipodi.sourceforge.net/DTD/sodipodi-0.dtd"
   xmlns="http://www.w3.org/2000/svg"
   xmlns:svg="http://www.w3.org/2000/svg">
  <sodipodi:namedview
     id="namedview1"
     pagecolor="#ffffff"
     bordercolor="#000000"
     borderopacity="0.25"
     inkscape:showpageshadow="2"
     inkscape:pageopacity="0.0"
     inkscape:pagecheckerboard="0"
     inkscape:deskcolor="#d1d1d1"
     inkscape:zoom="37.772727"
     inkscape:cx="11"
     inkscape:cy="11"
     inkscape:window-width="1920"
     inkscape:window-height="1012"
     inkscape:window-x="0"
     inkscape:window-y="0"
     inkscape:window-maximized="1"
     inkscape:current-layer="svg1" />
  <defs
     id="defs1">
    <style
       id="current-color-scheme"
       type="text/css">
   .ColorScheme-Text { color:#4d4d4d; } .ColorScheme-Highlight { color:#4285f4; } .ColorScheme-NeutralText { color:#ff9800; } .ColorScheme-PositiveText { color:#4caf50; } .ColorScheme-NegativeText { color:#f44336; }
  </style>
  </defs>
  <path
     style="fill:currentColor"
     class="ColorScheme-Text"
     d="M 11,3 8.5,7 H 10 v 5 H 7 V 10.728516 C 7.61771,10.371886 7.99874,9.7133 8,9 8,7.8954 7.10457,7 6,7 4.89543,7 4,7.89543 4,9 c 5.6e-4,0.71397 0.38169,1.373469 1,1.730469 V 12 c 0,2 2,2 2,2 h 3 v 1.271484 C 9.38229,15.628114 9.00126,16.2867 9,17 c 0,1.1046 0.89543,2 2,2 1.10457,0 2,-0.89543 2,-2 -5.6e-4,-0.71397 -0.38169,-1.373469 -1,-1.730469 V 14 h 3 c 0,0 2,0 2,-2 v -1 c 0,0 1.125,-0.1875 1,-1 V 8 C 18.125,6.875 17,7 17,7 h -2 c -1.0625,0 -1,1 -1,1 v 2 c 0,1 1,1 1,1 v 1 H 12 V 7 h 1.5 z"
     id="path1" />
</svg>
