<?xml version="1.0" encoding="UTF-8" standalone="no"?>
<!-- Created with Inkscape (http://www.inkscape.org/) -->

<svg
   width="22"
   height="22"
   viewBox="0 0 22 22"
   version="1.1"
   id="svg5"
   inkscape:version="1.3.2 (091e20ef0f, 2023-11-25, custom)"
   sodipodi:docname="notification-inactive.svg"
   xmlns:inkscape="http://www.inkscape.org/namespaces/inkscape"
   xmlns:sodipodi="http://sodipodi.sourceforge.net/DTD/sodipodi-0.dtd"
   xmlns="http://www.w3.org/2000/svg"
   xmlns:svg="http://www.w3.org/2000/svg">
  <sodipodi:namedview
     id="namedview7"
     pagecolor="#ffffff"
     bordercolor="#000000"
     borderopacity="0.25"
     inkscape:showpageshadow="2"
     inkscape:pageopacity="0.0"
     inkscape:pagecheckerboard="0"
     inkscape:deskcolor="#d1d1d1"
     inkscape:document-units="px"
     showgrid="false"
     showguides="true"
     inkscape:zoom="36.545455"
     inkscape:cx="10.986318"
     inkscape:cy="11"
     inkscape:window-width="1920"
     inkscape:window-height="1008"
     inkscape:window-x="0"
     inkscape:window-y="0"
     inkscape:window-maximized="1"
     inkscape:current-layer="svg5" />
  <defs
     id="defs2">
    <style
       id="current-color-scheme"
       type="text/css">
        .ColorScheme-Text { color:#4d4d4d; } .ColorScheme-Highlight { color:#4285f4; } .ColorScheme-NeutralText { color:#ff9800; } .ColorScheme-PositiveText { color:#4caf50; } .ColorScheme-NegativeText { color:#f44336; }
     </style>
  </defs>
  <path
     d="m 11.00003,3 c -0.55,0 -1,0.45 -1,1 0,0.03 -2.34e-4,0.069609 0.0098,0.099609 C 7.7198,4.559609 6,6.570009 6,9.000009 v 4.5 l -2,2 v 0.5 h 13.999996 v -0.5 l -2,-2 v -4.5 c 0,-2.43 -1.7198,-4.4404 -4.0098,-4.9004 0.01,-0.03 0.0098,-0.069609 0.0098,-0.099609 0,-0.55 -0.45,-1 -1,-1 z m 0,3 c 1.662,0 3,1.338 3,3 v 5 h -6 V 9 c 0,-1.662 1.338,-3 3,-3 z m -1.7305,11 c 0.36,0.62 1.0205,1 1.7305,1 0.71,0 1.3705,-0.38 1.7305,-1 h -3.4609 z"
     style="fill:currentColor;fill-opacity:1"
     class="ColorScheme-Text"
     id="path345" />
</svg>
