<?xml version="1.0" encoding="UTF-8" standalone="no"?>
<!-- Created with Inkscape (http://www.inkscape.org/) -->

<svg
   width="22"
   height="22"
   viewBox="0 0 22 22"
   version="1.1"
   id="svg1"
   inkscape:version="1.3 (0e150ed6c4, 2023-07-21)"
   sodipodi:docname="obs-tray.svg"
   xmlns:inkscape="http://www.inkscape.org/namespaces/inkscape"
   xmlns:sodipodi="http://sodipodi.sourceforge.net/DTD/sodipodi-0.dtd"
   xmlns="http://www.w3.org/2000/svg"
   xmlns:svg="http://www.w3.org/2000/svg">
  <sodipodi:namedview
     id="namedview1"
     pagecolor="#ffffff"
     bordercolor="#000000"
     borderopacity="0.25"
     inkscape:showpageshadow="2"
     inkscape:pageopacity="0.0"
     inkscape:pagecheckerboard="0"
     inkscape:deskcolor="#d1d1d1"
     inkscape:document-units="px"
     inkscape:zoom="35.818182"
     inkscape:cx="11"
     inkscape:cy="11"
     inkscape:window-width="1920"
     inkscape:window-height="1004"
     inkscape:window-x="0"
     inkscape:window-y="0"
     inkscape:window-maximized="1"
     inkscape:current-layer="svg1" />
  <defs
     id="defs1">
    <style
       id="current-color-scheme"
       type="text/css">
   .ColorScheme-Text { color:#4d4d4d; } .ColorScheme-Highlight { color:#4285f4; } .ColorScheme-NeutralText { color:#ff9800; } .ColorScheme-PositiveText { color:#4caf50; } .ColorScheme-NegativeText { color:#f44336; }
    </style>
  </defs>
  <path
     id="path1"
     style="fill:currentColor"
     class="ColorScheme-Text"
     d="m 11,4 c -3.8659893,0 -7,3.1340107 -7,7 0,3.865989 3.1340107,7 7,7 3.865989,0 7,-3.134011 7,-7 0,-3.8659893 -3.134011,-7 -7,-7 z m 0,1.75 c 2.681967,0.00276 4.930505,2.026506 5.214844,4.693359 -0.145,-0.231199 -0.312532,-0.45305 -0.519532,-0.65625 C 15.120313,9.21751 14.421749,8.878578 13.59375,8.7675781 c -0.124,-0.0166 -0.228485,-0.046475 -0.396484,0.015625 -0.169,0.0616 -0.251082,0.1969501 -0.300782,0.2812499 -0.0718,0.1215 -0.481537,0.539147 -0.710937,0.685547 -0.650699,0.4158 -1.763016,0.416 -2.416016,0 C 8.997432,9.2582 8.5564126,8.2937585 8.6953125,7.4433594 8.7740125,6.9620599 8.9793597,6.5444465 9.318359,6.1855469 c 0.0704,-0.0746 0.123016,-0.1334407 0.166016,-0.1816407 0.0104,-0.0116 0.01834,-0.025356 0.02734,-0.035156 C 9.994743,5.8247519 10.495969,5.7511122 11,5.75 Z M 7.7304688,6.890625 c -0.2069998,0.4544995 -0.34485,1.0391317 -0.34375,1.5195312 0.0011,0.4484996 0.1111501,0.9809508 0.28125,1.4062498 0.0449,0.1123 0.099319,0.262482 0.2617187,0.363282 0.1623998,0.100799 0.2783064,0.09683 0.4414063,0.115234 0.1416998,0.0159 0.4349532,0.0804 0.5644531,0.125 1.3031991,0.448299 1.9165871,1.942507 1.3046871,3.191406 -0.410499,0.838999 -1.3995786,1.392922 -2.2675778,1.294922 -0.1123998,-0.013 -0.1949844,-0.01858 -0.2714843,-0.01758 -0.0383,0 -0.065085,-0.0074 -0.1464844,0.01758 -0.0096,0.002 -0.024909,0.01062 -0.037109,0.01563 C 6.3952159,13.927038 5.7519408,12.499798 5.75,11 5.7494697,9.399973 6.4785895,7.8870606 7.7304688,6.890625 Z m 6.1035152,3.404297 c 0.907999,0.0215 1.804813,0.628654 2.132813,1.501953 0.026,0.0694 0.04355,0.121863 0.06055,0.164063 0.008,0.021 0.01734,0.03729 0.02734,0.05859 0.006,0.0112 0.01053,0.02226 0.01953,0.03906 0.004,0.0084 0.01053,0.01775 0.01953,0.03125 0.006,0.0083 0.01825,0.02146 0.03125,0.03516 C 15.596819,14.532595 13.464851,16.248569 11,16.25 10.237182,16.2476 9.484009,16.078908 8.7929688,15.755859 c 0.3185992,0 0.6357382,-0.02156 0.8984372,-0.101562 l 0.02734,-0.0098 0.01758,-0.0098 0.0059,-0.0039 c 0.709299,-0.230937 1.453934,-0.751063 1.865234,-1.328063 l 0.220703,-0.30664 -0.205078,-0.609375 c -0.4714,-1.426899 0.359967,-2.817754 1.822265,-3.064453 0.128,-0.0217 0.257673,-0.03044 0.388672,-0.02734 z" />
</svg>
