<?xml version="1.0" encoding="UTF-8" standalone="no"?>
<svg
   width="22"
   height="22"
   version="1.1"
   id="svg907"
   sodipodi:docname="phone-battery-good.svg"
   inkscape:version="1.2.2 (1:1.2.2+202305151914+b0a8486541)"
   xmlns:inkscape="http://www.inkscape.org/namespaces/inkscape"
   xmlns:sodipodi="http://sodipodi.sourceforge.net/DTD/sodipodi-0.dtd"
   xmlns="http://www.w3.org/2000/svg"
   xmlns:svg="http://www.w3.org/2000/svg">
  <sodipodi:namedview
     id="namedview909"
     pagecolor="#ffffff"
     bordercolor="#000000"
     borderopacity="0.25"
     inkscape:showpageshadow="2"
     inkscape:pageopacity="0.0"
     inkscape:pagecheckerboard="0"
     inkscape:deskcolor="#d1d1d1"
     showgrid="false"
     inkscape:zoom="36.636364"
     inkscape:cx="10.986352"
     inkscape:cy="11"
     inkscape:window-width="1920"
     inkscape:window-height="1008"
     inkscape:window-x="0"
     inkscape:window-y="0"
     inkscape:window-maximized="1"
     inkscape:current-layer="svg907" />
  <defs
     id="defs899">
    <style
       id="current-color-scheme"
       type="text/css">
   .ColorScheme-Text { color:#4d4d4d; } .ColorScheme-Highlight { color:#4285f4; } .ColorScheme-NeutralText { color:#ff9800; } .ColorScheme-PositiveText { color:#4caf50; } .ColorScheme-NegativeText { color:#f44336; }
  </style>
  </defs>
  <path
     id="path574"
     style="fill:currentColor;stroke-width:4;stroke-linecap:round;stroke-linejoin:round"
     class="ColorScheme-Text"
     d="M 5,5 V 6 H 4 C 3.4460012,6 3,6.4460012 3,7 v 8.9996 c 0,0.553998 0.4460012,1 1,1 h 5 c 0.553998,0 1,-0.446002 1,-1 V 7 C 10,6.4460012 9.553998,6 9,6 H 8 V 5 Z m 0,3 h 3 v 2 H 5 Z" />
  <path
     id="rect342"
     style="fill:currentColor;stroke-linecap:square"
     d="m 13,5 c -0.553999,0 -1,0.4460012 -1,1 v 10 c 0,0.553998 0.446001,1 1,1 h 5 c 0.553998,0 1,-0.446002 1,-1 V 6 C 19,5.4460012 18.553998,5 18,5 Z m 0,2 h 5 v 8 h -5 z"
     class="ColorScheme-Text" />
</svg>
