<?xml version="1.0" encoding="UTF-8" standalone="no"?>
<!-- Created with Inkscape (http://www.inkscape.org/) -->

<svg
   width="22"
   height="22"
   viewBox="0 0 22 22"
   version="1.1"
   id="svg5"
   inkscape:version="1.4.3 (0d15f75042, 2025-12-25)"
   sodipodi:docname="weather-showers-scattered.svg"
   xmlns:inkscape="http://www.inkscape.org/namespaces/inkscape"
   xmlns:sodipodi="http://sodipodi.sourceforge.net/DTD/sodipodi-0.dtd"
   xmlns="http://www.w3.org/2000/svg"
   xmlns:svg="http://www.w3.org/2000/svg">
  <sodipodi:namedview
     id="namedview7"
     pagecolor="#ffffff"
     bordercolor="#000000"
     borderopacity="0.25"
     inkscape:showpageshadow="2"
     inkscape:pageopacity="0.0"
     inkscape:pagecheckerboard="0"
     inkscape:deskcolor="#d1d1d1"
     inkscape:document-units="px"
     showgrid="false"
     inkscape:zoom="37.772727"
     inkscape:cx="11"
     inkscape:cy="11"
     inkscape:window-width="1920"
     inkscape:window-height="1012"
     inkscape:window-x="0"
     inkscape:window-y="0"
     inkscape:window-maximized="1"
     inkscape:current-layer="svg5" />
  <defs
     id="defs2">
    <style
       id="current-color-scheme"
       type="text/css">
        .ColorScheme-Text { color:#4d4d4d; } .ColorScheme-Highlight { color:#4285f4; } .ColorScheme-NeutralText { color:#ff9800; } .ColorScheme-PositiveText { color:#4caf50; } .ColorScheme-NegativeText { color:#f44336; }
     </style>
  </defs>
  <path
     d="m 13.5,11 -1.75,1.75 C 11.3,13.2 11,13.81 11,14.5 c 0,1.37 1.13,2.5 2.5,2.5 1.37,0 2.5,-1.13 2.5,-2.5 0,-0.69 -0.3,-1.3 -0.75,-1.75 z m -5,2 -1.75,1.75 C 6.3,15.2 6,15.81 6,16.5 6,17.87 7.13,19 8.5,19 9.87,19 11,17.87 11,16.5 11,15.81 10.7,15.2 10.25,14.75 Z"
     style="fill:currentColor;fill-opacity:1"
     class="ColorScheme-Text"
     id="path4730" />
  <path
     d="m 11.554706,3.00004 c -2.0961,0.0034 -3.8046,1.2776 -4.7988,3 L 6.6895,6.078165 6.5352,6.123087 C 4.5205,6.537877 3,8.318287 3,10.476587 c 0,1.8122 1.0545,3.4149 2.584,4.1289 0.13602,-0.20441 0.29009,-0.39361 0.45898,-0.5625 l 1.0586,-1.0586 c -1.1696,-0.13524 -2.1016,-1.1852 -2.1016,-2.5078 0,-1.3542 0.99177,-2.4161 2.1973,-2.5039 L 7.90822,7.921906 8.209,7.269566 v -0.00195 c 0.6204,-1.3579 1.877,-2.2662 3.3516,-2.2676 h 0.0039 c 1.998,0.0014 3.6325,1.6653 3.7285,3.8125 v 0.015625 l 0.05664,0.75195 0.67774,0.28906 c 0.5896,0.25166 0.97265,0.83437 0.97265,1.4941 0,0.52386 -0.22266,0.97716 -0.56445,1.2734 0.34549,0.53075 0.56445,1.1671 0.56445,1.8633 0,0.04631 -0.0021,0.09278 -0.0039,0.13867 1.1902,-0.59398 2.0039,-1.8565 2.0039,-3.2754 0,-1.2388 -0.71478,-2.2929 -1.7344,-2.9531 L 17.20314,8.35934 17.16017,8.1777 C 16.76477,5.3059 14.47647,3.002 11.56057,3 Z"
     style="fill:currentColor;fill-opacity:1;-inkscape-stroke:none;paint-order:markers fill stroke"
     class="ColorScheme-Text"
     id="path4935" />
</svg>
