<?xml version="1.0" encoding="UTF-8" standalone="no"?>
<!-- Created with Inkscape (http://www.inkscape.org/) -->

<svg
   width="128"
   height="128"
   viewBox="0 0 128 128.00001"
   version="1.1"
   id="svg5"
   inkscape:version="1.3 (0e150ed6c4, 2023-07-21)"
   sodipodi:docname="application-x-theme.svg"
   xmlns:inkscape="http://www.inkscape.org/namespaces/inkscape"
   xmlns:sodipodi="http://sodipodi.sourceforge.net/DTD/sodipodi-0.dtd"
   xmlns="http://www.w3.org/2000/svg"
   xmlns:svg="http://www.w3.org/2000/svg">
  <sodipodi:namedview
     id="namedview7"
     pagecolor="#ffffff"
     bordercolor="#000000"
     borderopacity="0.25"
     inkscape:showpageshadow="2"
     inkscape:pageopacity="0.0"
     inkscape:pagecheckerboard="0"
     inkscape:deskcolor="#d1d1d1"
     inkscape:document-units="px"
     showgrid="false"
     inkscape:zoom="6.2265625"
     inkscape:cx="63.919699"
     inkscape:cy="64"
     inkscape:window-width="1850"
     inkscape:window-height="1011"
     inkscape:window-x="0"
     inkscape:window-y="0"
     inkscape:window-maximized="1"
     inkscape:current-layer="svg5" />
  <defs
     id="defs2" />
  <path
     id="rect234"
     style="opacity:0.2;stroke-width:2;stroke-linecap:round;stroke-linejoin:round"
     d="m 28,9 h 48 l 32,32 v 72 c 0,4.432 -3.568,8 -8,8 H 28 c -4.432,0 -8,-3.568 -8,-8 V 17 c 0,-4.432 3.568,-8 8,-8 z" />
  <path
     id="rect448"
     style="fill:#e0e0e0;fill-opacity:1;stroke-width:2;stroke-linecap:round;stroke-linejoin:round"
     d="m 28,8 h 48 l 12,20 20,12 v 72 c 0,4.432 -3.568,8 -8,8 H 28 c -4.432,0 -8,-3.568 -8,-8 V 16 c 0,-4.432 3.568,-8 8,-8 z" />
  <path
     d="m 86.539468,56.022652 c -3.613912,-0.45558 -13.041196,6.006388 -22.332252,15.301104 -4.143264,4.145764 -7.73908,8.242672 -10.49314,12.10696 3.2278,1.028384 5.829196,3.628064 6.85704,6.857036 C 64.43392,87.532904 68.540128,83.95274 72.684768,79.808 83.225832,69.262564 89.87214,58.815724 87.530524,56.4713 87.289844,56.2289 86.961484,56.07682 86.539468,56.02268 Z M 51.99982,87.990916 v 0.0068 C 40.000648,91.214408 48.999364,98.812804 40,104.00187 c 11.999172,0 17.999724,-6.006166 17.999724,-10.011014 0,-1.996356 0.20344,-5.66768 -5.999904,-5.999912 z"
     style="color:#444444;fill:#8c64c4;fill-opacity:1;stroke-width:3.4285"
     id="path1" />
  <path
     id="path611"
     style="opacity:0.2;fill:#000000;stroke-width:2;stroke-linecap:round;stroke-linejoin:round"
     d="m 76,8 v 25 c 0,4.431992 3.568008,8 8,8 h 24 v -1 z" />
  <path
     id="rect600"
     style="fill:#f5f5f5;fill-opacity:1;stroke-width:2;stroke-linecap:round;stroke-linejoin:round"
     d="M 108,40 H 84 c -4.432,0 -8,-3.568 -8,-8 V 8 Z" />
  <path
     id="path1133"
     style="opacity:0.2;fill:#ffffff;fill-opacity:1;stroke-width:2;stroke-linecap:round;stroke-linejoin:round"
     d="m 28,8 c -4.431984,0 -8,3.568018 -8,8 v 1 c 0,-4.431982 3.568016,-8 8,-8 h 48 l 31,31 h 1 L 76,8 Z" />
</svg>
