<?xml version="1.0" encoding="UTF-8" standalone="no"?>
<!-- Created with Inkscape (http://www.inkscape.org/) -->

<svg
   width="128"
   height="128"
   viewBox="0 0 128 128.00001"
   version="1.1"
   id="svg5"
   inkscape:version="1.3 (0e150ed6c4, 2023-07-21)"
   sodipodi:docname="application-x-tar.svg"
   xmlns:inkscape="http://www.inkscape.org/namespaces/inkscape"
   xmlns:sodipodi="http://sodipodi.sourceforge.net/DTD/sodipodi-0.dtd"
   xmlns="http://www.w3.org/2000/svg"
   xmlns:svg="http://www.w3.org/2000/svg">
  <sodipodi:namedview
     id="namedview7"
     pagecolor="#ffffff"
     bordercolor="#000000"
     borderopacity="0.25"
     inkscape:showpageshadow="2"
     inkscape:pageopacity="0.0"
     inkscape:pagecheckerboard="0"
     inkscape:deskcolor="#d1d1d1"
     inkscape:document-units="px"
     showgrid="false"
     inkscape:zoom="6.296875"
     inkscape:cx="63.920596"
     inkscape:cy="63.920596"
     inkscape:window-width="1850"
     inkscape:window-height="1011"
     inkscape:window-x="70"
     inkscape:window-y="32"
     inkscape:window-maximized="1"
     inkscape:current-layer="svg5" />
  <defs
     id="defs2" />
  <rect
     style="opacity:0.2;fill:#000000;fill-opacity:1;stroke-width:8;stroke-linecap:square"
     id="rect1785"
     width="112"
     height="112"
     x="8.0000095"
     y="9"
     ry="12" />
  <rect
     style="opacity:1;fill:#d0b07c;fill-opacity:1;stroke-width:8;stroke-linecap:square"
     id="rect1787"
     width="112"
     height="112"
     x="8.0000095"
     y="8"
     ry="12" />
  <rect
     style="opacity:0.2;fill:#000000;fill-opacity:1;stroke-width:2"
     id="rect2693"
     width="20"
     height="60"
     x="54"
     y="8" />
  <path
     id="rect2365"
     style="fill:#ffffff;stroke-width:2"
     d="m 64,8 v 6 h 6 V 8 Z m 0,6 h -6 v 6 h 6 z m 0,6 v 6 h 6 v -6 z m 0,6 h -6 v 6 h 6 z m 0,6 v 6 h 6 v -6 z m 0,6 h -6 v 6 h 6 z m 0,6 v 6 h 6 v -6 z m 0,6 h -6 v 6 h 6 z" />
  <path
     style="fill:#4b4b4b;stroke-width:2"
     d="m 64,50 c 7.5,0 7.5,11.2 10,11.2 v 14 c 0,1.5512 -1.115,2.8 -2.5,2.8 h -15 C 55.115,78 54,76.7512 54,75.2 v -14 C 56.5,61.2 56.5,50 64,50 Z"
     id="path2369" />
  <path
     d="M 63.33594,63 C 58.16528,63 54,67.20544 54,72.42188 V 91.57812 C 54,96.79456 58.16528,101 63.33594,101 h 1.32812 C 69.83472,101 74,96.79456 74,91.57812 V 72.42188 C 74,67.20544 69.83472,63 64.66406,63 Z M 64,83 c 4.41828,0 8,3.58576 8,8.0039 C 72,95.42206 68.41828,99 64,99 59.58172,99 56,95.42206 56,91.0039 56,86.58576 59.58172,83 64,83 Z"
     style="opacity:0.2;fill:#000000;stroke-width:2"
     id="path2570" />
  <path
     style="fill:#ffffff;stroke-width:2"
     d="M 63.33594,62 C 58.16528,62 54,66.20544 54,71.42188 V 90.57812 C 54,95.79456 58.16528,100 63.33594,100 h 1.32812 C 69.83472,100 74,95.79456 74,90.57812 V 71.42188 C 74,66.20544 69.83472,62 64.66406,62 Z M 64,82 c 4.41828,0 8,3.58576 8,8.0039 C 72,94.42206 68.41828,98 64,98 59.58172,98 56,94.42206 56,90.0039 56,85.58576 59.58172,82 64,82 Z"
     id="path2373" />
  <path
     style="fill:#909090;stroke-width:2"
     d="M 63.96874,54.00024 A 2.0002,1.9932147 0 0 0 62,56.0205 v 11.9581 a 2.0002,1.9932147 0 1 0 4,0 V 56.0205 a 2.0002,1.9932147 0 0 0 -2.03126,-2.02026 z"
     id="path2375" />
  <path
     id="rect814"
     style="opacity:0.1;fill:#ffffff;stroke-width:8;stroke-linecap:square"
     d="M 20,8 C 13.352013,8 8,13.352014 8,20 v 1 C 8,14.352013 13.352015,9 20,9 h 88 c 6.64798,0 12,5.352013 12,12 V 20 C 120,13.352014 114.64799,8 108,8 Z" />
  <g
     id="g1143"
     transform="matrix(3.9999998,0,0,3.9999998,-27.999996,-43.999994)">
    <rect
       style="opacity:0.2;fill:#000000;fill-opacity:1;stroke-width:2;stroke-linecap:square"
       id="rect640"
       width="20"
       height="10"
       x="18"
       y="32.25"
       ry="1.5" />
    <rect
       style="fill:#db792e;fill-opacity:1;stroke-width:2;stroke-linecap:square"
       id="rect241"
       width="20.000002"
       height="10.000001"
       x="18"
       y="32"
       ry="1.5000001" />
    <path
       id="path4018"
       style="opacity:0.2;fill:#000000;stroke-width:0.5;stroke-linecap:round;stroke-linejoin:round;-inkscape-stroke:none"
       d="m 21.249998,33.750389 c -0.414216,0 -0.75,0.335789 -0.75,0.750001 0,0.414214 0.335784,0.75 0.75,0.75 h 0.750001 v 4.75 c 0,0.414212 0.335786,0.75 0.75,0.75 0.414214,0 0.75,-0.335788 0.75,-0.75 v -4.75 h 0.75 c 0.414214,0 0.75,-0.335786 0.75,-0.75 0,-0.414212 -0.335786,-0.750001 -0.75,-0.750001 h -1.5 z m 7.000001,0 c -0.999998,0 -1.706456,0.611155 -1.983398,1.165039 -0.276942,0.553886 -0.266602,1.084962 -0.266602,1.084962 v 2 2 c 0,0.414212 0.335786,0.75 0.75,0.75 0.414214,0 0.75,-0.335788 0.75,-0.75 v -1.25 h 1.5 v 1.25 c 0,0.414212 0.335788,0.75 0.75,0.75 0.414214,0 0.75,-0.335788 0.75,-0.75 v -2 -2 c 0,0 0.0104,-0.531076 -0.2666,-1.084962 -0.276944,-0.553884 -0.983402,-1.165039 -1.9834,-1.165039 z m 4.46289,0 c -0.3181,-0.0034 -0.52539,0.0166 -0.52539,0.0166 -0.388486,0.03252 -0.687296,0.357227 -0.6875,0.747071 v 5.5 c 0,0.414212 0.335788,0.75 0.75,0.75 0.414214,0 0.75,-0.335788 0.75,-0.75 v -1.803712 c 10e-4,-4e-6 0.0019,6e-6 0.0028,0 -0.0144,0.19702 0.04942,0.391788 0.17774,0.541994 l 1.5,1.75 c 0.269658,0.314456 0.743188,0.350752 1.057616,0.08106 0.314458,-0.269658 0.350754,-0.74319 0.08104,-1.057618 l -1.375,-1.604492 c 0.272918,-0.09614 0.550726,-0.14718 0.802734,-0.34668 0.421826,-0.333944 0.75293,-0.908762 0.75293,-1.560546 0,-0.651784 -0.331104,-1.226602 -0.75293,-1.560548 -0.421826,-0.333944 -0.900336,-0.4877 -1.34375,-0.580079 -0.44338,-0.09238 -0.872292,-0.11952 -1.190396,-0.12304 z m -4.46289,1.500001 c 0.5,0 0.543544,0.13884 0.641602,0.33496 0.09806,0.19612 0.1084,0.41504 0.1084,0.41504 v 1.25 h -1.5 v -1.25 c 0,0 0.0104,-0.218924 0.1084,-0.41504 0.09806,-0.19612 0.1416,-0.33496 0.641602,-0.33496 z m 5.030274,0.05274 c 0.08394,0.0013 0.17394,0.0094 0.316406,0.03906 0.306584,0.06388 0.578076,0.17574 0.71875,0.28711 0.14068,0.11136 0.18458,0.16156 0.18458,0.384764 0,0.223214 -0.04388,0.2734 -0.18458,0.384766 -0.14068,0.11136 -0.412166,0.223238 -0.71875,0.28711 -0.284914,0.05936 -0.359778,0.03198 -0.59668,0.03808 v -1.419922 c 0.11846,0.0032 0.19632,-0.0022 0.280274,-9.76e-4 z" />
    <path
       id="path3990"
       style="fill:#ffffff;stroke-width:0.5;stroke-linecap:round;stroke-linejoin:round;-inkscape-stroke:none"
       d="m 21.249998,33.500002 c -0.414216,0 -0.75,0.335788 -0.75,0.750001 0,0.414214 0.335784,0.75 0.75,0.75 h 0.750001 v 4.75 c 0,0.414212 0.335786,0.75 0.75,0.75 0.414214,0 0.75,-0.335788 0.75,-0.75 v -4.75 h 0.75 c 0.414214,0 0.75,-0.335786 0.75,-0.75 0,-0.414213 -0.335786,-0.750001 -0.75,-0.750001 h -1.5 z m 7.000001,0 c -0.999998,0 -1.706456,0.611154 -1.983398,1.165039 -0.276942,0.553886 -0.266602,1.084962 -0.266602,1.084962 v 2 2 c 0,0.414212 0.335786,0.75 0.75,0.75 0.414214,0 0.75,-0.335788 0.75,-0.75 v -1.25 h 1.5 v 1.25 c 0,0.414212 0.335788,0.75 0.75,0.75 0.414214,0 0.75,-0.335788 0.75,-0.75 v -2 -2 c 0,0 0.0104,-0.531076 -0.2666,-1.084962 -0.276944,-0.553885 -0.983402,-1.165039 -1.9834,-1.165039 z m 4.46289,9.76e-4 c -0.3181,-0.0036 -0.52539,0.0156 -0.52539,0.0156 -0.388486,0.03252 -0.687296,0.357226 -0.6875,0.747071 v 5.5 c 0,0.414214 0.335788,0.75 0.75,0.75 0.414214,0 0.75,-0.335786 0.75,-0.75 v -1.80371 c 10e-4,-6e-6 0.0019,6e-6 0.0028,0 -0.0144,0.19702 0.04942,0.391786 0.17774,0.541992 l 1.5,1.75 c 0.269658,0.314456 0.743188,0.350752 1.057616,0.08106 0.314458,-0.269656 0.350754,-0.743188 0.08104,-1.057616 l -1.375,-1.604492 c 0.272918,-0.09614 0.550726,-0.14718 0.802734,-0.34668 0.421826,-0.333946 0.75293,-0.908762 0.75293,-1.560546 0,-0.651786 -0.331104,-1.226604 -0.75293,-1.560548 -0.421826,-0.333945 -0.900336,-0.487701 -1.34375,-0.580079 -0.443414,-0.09238 -0.872328,-0.11856 -1.19043,-0.12208 z m -4.46289,1.499025 c 0.5,0 0.543544,0.13884 0.641602,0.33496 0.09806,0.19612 0.1084,0.41504 0.1084,0.41504 v 1.25 h -1.5 v -1.25 c 0,0 0.0104,-0.218924 0.1084,-0.41504 0.09806,-0.19612 0.1416,-0.33496 0.641602,-0.33496 z m 5.030274,0.05274 c 0.08394,0.0013 0.17394,0.0094 0.316406,0.03906 0.306584,0.06388 0.578076,0.17574 0.71875,0.28711 0.14068,0.11136 0.18458,0.16156 0.18458,0.384764 0,0.223214 -0.04388,0.2734 -0.18458,0.384766 -0.14068,0.11136 -0.412166,0.223238 -0.71875,0.28711 -0.284914,0.05936 -0.359778,0.03198 -0.59668,0.03808 v -1.419922 c 0.11846,0.0032 0.19632,-0.0022 0.280274,-9.76e-4 z" />
    <path
       id="rect750"
       style="opacity:0.1;fill:#ffffff;fill-opacity:1;stroke-width:1.5;stroke-linecap:square"
       d="M 19.5,32 C 18.669001,32 18,32.669002 18,33.5 v 0.25 c 0,-0.830999 0.669001,-1.5 1.5,-1.5 h 17.000001 c 0.830999,0 1.5,0.669001 1.5,1.5 V 33.5 c 0,-0.830998 -0.669002,-1.5 -1.5,-1.5 z" />
  </g>
</svg>
