<?xml version="1.0" encoding="UTF-8" standalone="no"?>
<!-- Created with Inkscape (http://www.inkscape.org/) -->

<svg
   width="128"
   height="128"
   viewBox="0 0 128 128.00001"
   version="1.1"
   id="svg5"
   inkscape:version="1.2.2 (1:1.2.2+202305151914+b0a8486541)"
   sodipodi:docname="application-pgp-keys.svg"
   xmlns:inkscape="http://www.inkscape.org/namespaces/inkscape"
   xmlns:sodipodi="http://sodipodi.sourceforge.net/DTD/sodipodi-0.dtd"
   xmlns="http://www.w3.org/2000/svg"
   xmlns:svg="http://www.w3.org/2000/svg">
  <sodipodi:namedview
     id="namedview7"
     pagecolor="#ffffff"
     bordercolor="#000000"
     borderopacity="0.25"
     inkscape:showpageshadow="2"
     inkscape:pageopacity="0.0"
     inkscape:pagecheckerboard="0"
     inkscape:deskcolor="#d1d1d1"
     inkscape:document-units="px"
     showgrid="false"
     inkscape:zoom="6.296875"
     inkscape:cx="63.920596"
     inkscape:cy="64"
     inkscape:window-width="1920"
     inkscape:window-height="1008"
     inkscape:window-x="0"
     inkscape:window-y="0"
     inkscape:window-maximized="1"
     inkscape:current-layer="svg5" />
  <defs
     id="defs2" />
  <path
     id="rect234"
     style="opacity:0.2;stroke-width:2;stroke-linecap:round;stroke-linejoin:round"
     d="m 28,9 h 48 l 32,32 v 72 c 0,4.432 -3.568,8 -8,8 H 28 c -4.432,0 -8,-3.568 -8,-8 V 17 c 0,-4.432 3.568,-8 8,-8 z" />
  <path
     id="rect448"
     style="fill:#e0e0e0;fill-opacity:1;stroke-width:2;stroke-linecap:round;stroke-linejoin:round"
     d="m 28,8 h 48 l 12,20 20,12 v 72 c 0,4.432 -3.568,8 -8,8 H 28 c -4.432,0 -8,-3.568 -8,-8 V 16 c 0,-4.432 3.568,-8 8,-8 z" />
  <path
     d="m 51,65 c -9.94112,0 -18,8.058878 -18,18 0,9.941122 8.05888,18 18,18 7.61878,-0.0108 14.40572,-4.816934 16.94532,-12 H 79 v 6 h 12 v -6 h 4 V 77 H 67.95312 C 65.41294,69.815274 58.62446,65.008706 51.0039,65 Z m 0,12 c 3.3137,0 6,2.686294 6,6 0,3.313706 -2.6863,6 -6,6 -3.3137,0 -6,-2.686294 -6,-6 0,-3.313706 2.6863,-6 6,-6 z"
     style="opacity:0.2;fill:#000000;stroke-width:2"
     id="path1113" />
  <path
     d="m 51,64 c -9.94112,0 -18,8.05888 -18,18 0,9.941122 8.05888,18 18,18 7.61878,-0.0108 14.40572,-4.816934 16.94532,-12 H 79 v 6 h 12 v -6 h 4 V 76 H 67.95312 C 65.41294,68.815276 58.62446,64.008708 51.0039,64 Z m 0,12 c 3.3137,0 6,2.686296 6,6 0,3.313706 -2.6863,6 -6,6 -3.3137,0 -6,-2.686294 -6,-6 0,-3.313704 2.6863,-6 6,-6 z"
     style="fill:#607d8b;fill-opacity:1;stroke-width:2"
     id="path306" />
  <path
     d="M 108,41 H 84 c -4.432,0 -8,-3.568 -8,-8 V 8 l 32,32 z"
     style="opacity:0.2;fill:#000000;stroke-width:2;stroke-linecap:round;stroke-linejoin:round"
     id="path611" />
  <path
     id="rect600"
     style="fill:#f5f5f5;fill-opacity:1;stroke-width:2;stroke-linecap:round;stroke-linejoin:round"
     d="M 108,40 H 84 c -4.432,0 -8,-3.568 -8,-8 V 8 Z" />
  <path
     id="path1133"
     style="opacity:0.2;fill:#ffffff;fill-opacity:1;stroke-width:2;stroke-linecap:round;stroke-linejoin:round"
     d="m 28,8 c -4.431988,0 -8,3.568013 -8,8 v 1 c 0,-4.431988 3.568012,-8 8,-8 h 48 l 31,31 h 1 L 76,8 Z" />
</svg>
