<?xml version="1.0" encoding="UTF-8" standalone="no"?>
<svg
   width="128"
   height="128"
   version="1"
   id="svg5"
   sodipodi:docname="application-x-iso9660-appimage.svg"
   inkscape:version="1.3 (1:1.3+202307231459+0e150ed6c4)"
   xmlns:inkscape="http://www.inkscape.org/namespaces/inkscape"
   xmlns:sodipodi="http://sodipodi.sourceforge.net/DTD/sodipodi-0.dtd"
   xmlns="http://www.w3.org/2000/svg"
   xmlns:svg="http://www.w3.org/2000/svg">
  <defs
     id="defs5" />
  <sodipodi:namedview
     id="namedview5"
     pagecolor="#ffffff"
     bordercolor="#000000"
     borderopacity="0.25"
     inkscape:showpageshadow="2"
     inkscape:pageopacity="0.0"
     inkscape:pagecheckerboard="0"
     inkscape:deskcolor="#d1d1d1"
     inkscape:zoom="5.8359375"
     inkscape:cx="64"
     inkscape:cy="64"
     inkscape:window-width="1920"
     inkscape:window-height="1008"
     inkscape:window-x="0"
     inkscape:window-y="0"
     inkscape:window-maximized="1"
     inkscape:current-layer="svg5" />
  <path
     id="path1"
     style="opacity:0.2;fill:#000000;stroke-width:2"
     d="m 9.5429688,47.554688 c -0.16952,0.962634 0.1602276,2.018604 0.9062502,2.660156 l 9.171875,8.042968 c 0.03989,-0.300868 0.06056,-0.606056 0.105468,-0.90625 L 10.449219,49.214844 C 9.9587996,48.793102 9.650927,48.191176 9.5429688,47.554688 Z m 108.9140612,0.01562 c -0.11038,0.63075 -0.42378,1.226218 -0.91015,1.644532 l -9.27344,8.136718 c 0.0449,0.300252 0.0656,0.605334 0.10547,0.90625 l 9.16797,-8.042968 c 0.74183,-0.638032 1.07322,-1.686144 0.91015,-2.644532 z M 19.21875,64.503906 c -0.0022,0.16831 -0.01953,0.330884 -0.01953,0.5 0,1.959764 0.171389,3.85691 0.421875,5.742188 l 0.105468,-0.09375 C 19.424301,68.632926 19.245747,66.597042 19.21875,64.503906 Z m 89.55859,0 c -0.027,2.093364 -0.20182,4.129132 -0.5039,6.148438 l 0.10547,0.09375 c 0.24959,-1.885124 0.41796,-3.782192 0.41797,-5.742188 0,-0.169122 -0.0174,-0.331688 -0.0195,-0.5 z M 9.5429688,81.4375 c -0.1095398,0.629624 -0.02182,1.294118 0.2929688,1.851562 L 21.039062,102.71484 c 0.649552,1.10158 2.115238,1.63953 3.32422,1.22266 L 36,100 c 3.497582,2.79983 7.481526,5.07951 11.722656,6.73828 l 2.363282,11.98828 c 0.239596,1.25479 1.437544,2.25604 2.714844,2.27344 h 22.398436 c 1.277302,-0.016 2.47146,-1.01865 2.710938,-2.27344 l 2.363282,-11.98828 c 4.24113,-1.65861 8.225114,-3.93829 11.722656,-6.73828 l 11.640626,3.9375 c 1.20894,0.41687 2.67467,-0.12092 3.32422,-1.22266 l 11.19922,-19.425778 c 0.31218,-0.552868 0.39833,-1.210928 0.29296,-1.835938 -0.0516,0.29252 -0.14596,0.575598 -0.29296,0.835938 l -11.19922,19.425778 c -0.64955,1.10174 -2.11528,1.63953 -3.32422,1.22266 L 92,99 c -3.497546,2.8 -7.485428,5.07967 -11.726562,6.73828 l -2.363282,11.98828 C 77.670678,118.98134 76.47652,119.984 75.199218,120 H 52.800782 c -1.2773,-0.0174 -2.475248,-1.01866 -2.714844,-2.27344 L 47.726562,105.73828 C 43.485428,104.07951 39.497586,101.79984 36,99 l -11.636718,3.9375 c -1.208982,0.41687 -2.674668,-0.12107 -3.32422,-1.22266 L 9.8398438,82.289062 C 9.6901534,82.023982 9.593817,81.735668 9.5429688,81.4375 Z" />
  <path
     style="fill:#1fa5cd;stroke-width:2"
     d="m 52.536552,8.0036878 c -1.187222,0.129198 -2.232968,1.100584 -2.449964,2.2749272 L 47.724182,22.26564 c -4.241138,1.658616 -8.22708,3.937462 -11.72463,6.737502 L 24.363722,25.0656 c -1.208982,-0.416874 -2.67536,0.1232 -3.324912,1.224982 L 9.8389736,45.7151 c -0.6308708,1.117182 -0.3603948,2.66328 0.6124714,3.499908 l 9.274665,8.137082 c -0.326396,2.181848 -0.524993,4.377136 -0.524993,6.649902 0,2.272848 0.198396,4.467936 0.524993,6.649904 l -9.274665,8.137482 C 9.4786988,79.626006 9.2081028,81.172104 9.8389736,82.289286 L 21.03881,101.7138 c 0.649552,1.10159 2.11593,1.64182 3.324912,1.22495 l 11.63703,-3.937386 c 3.49759,2.799836 7.483492,5.078726 11.72463,6.737506 l 2.362406,11.98702 c 0.239596,1.25478 1.43514,2.25753 2.71244,2.27493 h 22.399274 c 1.277302,-0.016 2.472924,-1.02015 2.712402,-2.27493 l 2.362444,-11.98702 c 4.241138,-1.65862 8.22708,-3.93751 11.72463,-6.737506 l 11.637032,3.937386 c 1.20894,0.41687 2.67536,-0.1232 3.32491,-1.22495 l 11.19984,-19.424514 c 0.63083,-1.117182 0.36039,-2.66328 -0.61247,-3.499908 l -9.27467,-8.137482 c 0.3264,-2.181848 0.52495,-4.376736 0.52495,-6.649904 0,-2.272846 -0.1988,-4.467934 -0.52495,-6.649902 l 9.27467,-8.137082 c 0.97274,-0.836628 1.2433,-2.382726 0.61247,-3.499908 L 106.96092,26.290582 c -0.64955,-1.101584 -2.11597,-1.641856 -3.32491,-1.224982 L 91.998978,29.002982 C 88.49903,26.201022 84.515086,23.922256 80.275148,22.26348 L 77.912704,10.276455 C 77.673106,9.021673 76.477604,8.0188876 75.200302,8.0015278 H 52.801028 c -0.0876,-0.00204 -0.1752,-0.00204 -0.262396,0 z"
     id="path2" />
  <path
     style="opacity:0.2;fill:#000000;stroke-width:2"
     d="m 58.685034,37 c -1.582836,0 -2.684532,1.274266 -2.684532,2.857102 V 72.999476 H 44.000676 L 64.000386,96.999128 84.000094,72.999476 H 72.00027 V 39.857102 C 72.00027,38.274266 70.898574,37 69.315736,37 Z"
     id="path3" />
  <path
     style="fill:#ffffff;stroke-width:2"
     d="m 58.685034,36.00088 c -1.582836,0 -2.684532,1.274268 -2.684532,2.857102 V 72.000356 H 44.000676 L 64.000386,96.000008 84.000094,72.000356 H 72.00027 V 38.857982 c 0,-1.582834 -1.101696,-2.857102 -2.684534,-2.857102 z"
     id="path4" />
  <path
     id="path5"
     style="opacity:0.2;fill:#ffffff;stroke-width:2"
     d="m 52.539062,8.00153 -0.004,0.0039 C 51.347844,8.134628 50.30284,9.1045272 50.085844,10.278868 L 47.722656,22.267154 C 43.481526,23.92577 39.497542,26.205404 36,29.005436 l -11.636718,-3.9375 c -1.208982,-0.416874 -2.674668,0.12088 -3.32422,1.222656 L 9.8398438,45.716374 c -0.3128506,0.554012 -0.3993736,1.213678 -0.2929688,1.839844 0.051614,-0.2927 0.14587,-0.579352 0.2929688,-0.839844 L 21.039062,27.290592 c 0.649552,-1.10178 2.115238,-1.63953 3.32422,-1.222656 L 36,30.005436 C 39.497546,27.2054 43.481522,24.92577 47.722656,23.267154 l 2.363282,-11.98828 c 0.216996,-1.174342 1.261998,-2.1442398 2.449218,-2.2734378 l 0.004,-0.0039 c 0.0872,-0.00204 0.17412,-0.00204 0.26172,0 h 22.398436 c 1.277302,0.01736 2.47134,1.0225638 2.710938,2.2773438 l 2.363282,11.984374 C 84.513372,24.922024 88.500056,27.20348 92,30.005436 l 11.63672,-3.9375 c 1.20894,-0.416874 2.67467,0.12108 3.32422,1.222656 l 11.19922,19.425782 c 0.1471,0.260492 0.24136,0.547144 0.29296,0.839844 0.10642,-0.626166 0.0198,-1.285832 -0.29296,-1.839844 L 106.96094,26.290592 c -0.64955,-1.10158 -2.11528,-1.63953 -3.32422,-1.222656 L 92,29.005436 C 88.50006,26.203484 84.513368,23.922024 80.273438,22.263248 L 77.914062,10.278874 C 77.674464,9.0240946 76.47652,8.0188898 75.199218,8.00153 H 52.800782 c -0.0876,-0.00204 -0.17452,-0.00204 -0.26172,0 z M 19.621094,58.259342 c -0.250485,1.886388 -0.421875,3.786034 -0.421875,5.746094 0,0.16912 0.01734,0.331728 0.01954,0.5 0.02699,-2.093304 0.205704,-4.132848 0.507812,-6.152344 z m 88.757816,0 -0.10546,0.09374 c 0.30188,2.019606 0.47688,4.059002 0.5039,6.152344 0.002,-0.16828 0.0196,-0.330854 0.0196,-0.5 0,-1.960086 -0.1684,-3.85971 -0.41797,-5.746094 z m -88.757816,12.488282 -9.167969,8.042968 c -0.7418372,0.638032 -1.0732308,1.686144 -0.9101562,2.644532 0.110382,-0.63075 0.4198774,-1.226218 0.9062502,-1.644532 l 9.277343,-8.136718 c -0.04493,-0.30021 -0.06557,-0.605376 -0.105468,-0.90625 z m 88.757816,0 c -0.0399,0.300898 -0.0606,0.606016 -0.10546,0.90625 l 9.27343,8.136718 c 0.48644,0.418314 0.7998,1.013782 0.91016,1.644532 0.1631,-0.958388 -0.16822,-2.0065 -0.91016,-2.644532 z" />
</svg>
