<?xml version="1.0" encoding="UTF-8" standalone="no"?>
<!-- Created with Inkscape (http://www.inkscape.org/) -->

<svg
   width="128"
   height="128"
   viewBox="0 0 128 128"
   version="1.1"
   id="svg5"
   inkscape:version="1.3 (1:1.3+202307231459+0e150ed6c4)"
   sodipodi:docname="image-x-generic.svg"
   xmlns:inkscape="http://www.inkscape.org/namespaces/inkscape"
   xmlns:sodipodi="http://sodipodi.sourceforge.net/DTD/sodipodi-0.dtd"
   xmlns="http://www.w3.org/2000/svg"
   xmlns:svg="http://www.w3.org/2000/svg">
  <sodipodi:namedview
     id="namedview7"
     pagecolor="#ffffff"
     bordercolor="#000000"
     borderopacity="0.25"
     inkscape:showpageshadow="2"
     inkscape:pageopacity="0.0"
     inkscape:pagecheckerboard="0"
     inkscape:deskcolor="#d1d1d1"
     inkscape:document-units="px"
     showgrid="false"
     inkscape:zoom="6.2890625"
     inkscape:cx="63.920497"
     inkscape:cy="64"
     inkscape:window-width="1920"
     inkscape:window-height="1008"
     inkscape:window-x="0"
     inkscape:window-y="0"
     inkscape:window-maximized="1"
     inkscape:current-layer="svg5" />
  <defs
     id="defs2" />
  <rect
     style="opacity:0.2;fill:#000000;stroke-width:2;stroke-linecap:round;stroke-linejoin:round"
     id="rect344"
     width="112"
     height="96"
     x="8"
     y="17"
     ry="12" />
  <rect
     style="fill:#66bdb5;fill-opacity:1;stroke-width:2;stroke-linecap:round;stroke-linejoin:round"
     id="rect234"
     width="112"
     height="96"
     x="8"
     y="16"
     ry="12" />
  <path
     d="m 44,53 28,28 20,-16 16,16 v 20 H 20 V 77 Z"
     style="opacity:0.2;fill:#000000;stroke-width:4"
     id="path1720" />
  <path
     d="m 44,52 28,28 20,-16 16,16 v 20 H 20 V 76 Z"
     style="fill:#ffffff;stroke-width:4"
     id="path1692" />
  <path
     id="rect1810"
     style="opacity:0.2;fill:#ffffff;fill-opacity:1;stroke-width:8;stroke-linecap:square"
     d="M 20,16 C 13.352013,16 8,21.352012 8,28 v 1 C 8,22.352006 13.352007,17 20,17 h 88 c 6.64799,0 12,5.352006 12,12 v -1 c 0,-6.647988 -5.35201,-12 -12,-12 z" />
</svg>
