<?xml version="1.0" encoding="UTF-8" standalone="no"?>
<!-- Created with Inkscape (http://www.inkscape.org/) -->

<svg
   width="128"
   height="128"
   viewBox="0 0 128 128"
   version="1.1"
   id="svg5"
   inkscape:version="1.3 (0e150ed6c4, 2023-07-21)"
   sodipodi:docname="image-x-svg+xml.svg"
   xmlns:inkscape="http://www.inkscape.org/namespaces/inkscape"
   xmlns:sodipodi="http://sodipodi.sourceforge.net/DTD/sodipodi-0.dtd"
   xmlns="http://www.w3.org/2000/svg"
   xmlns:svg="http://www.w3.org/2000/svg">
  <sodipodi:namedview
     id="namedview7"
     pagecolor="#ffffff"
     bordercolor="#000000"
     borderopacity="0.25"
     inkscape:showpageshadow="2"
     inkscape:pageopacity="0.0"
     inkscape:pagecheckerboard="0"
     inkscape:deskcolor="#d1d1d1"
     inkscape:document-units="px"
     showgrid="false"
     inkscape:zoom="6.1171875"
     inkscape:cx="64"
     inkscape:cy="64"
     inkscape:window-width="1920"
     inkscape:window-height="984"
     inkscape:window-x="0"
     inkscape:window-y="29"
     inkscape:window-maximized="1"
     inkscape:current-layer="svg5" />
  <defs
     id="defs2" />
  <rect
     style="opacity:0.2;fill:#000000;stroke-width:2;stroke-linecap:round;stroke-linejoin:round"
     id="rect344"
     width="112"
     height="96"
     x="8"
     y="17"
     ry="12" />
  <rect
     style="fill:#e0e0e0;fill-opacity:1;stroke-width:2;stroke-linecap:round;stroke-linejoin:round"
     id="rect234"
     width="112"
     height="96"
     x="8"
     y="16"
     ry="12" />
  <path
     style="fill:#363636;stroke-width:4"
     d="M 64.000008,43.733324 A 32.000008,32.000008 0 0 0 32,75.733332 a 32.000008,32.000008 0 0 0 0.1146,2.666664 h 5.354168 a 26.666672,26.666672 0 0 1 -0.1354,-2.666664 26.666672,26.666672 0 0 1 26.614584,-26.666676 26.666672,26.666672 0 0 1 0.05208,0 26.666672,26.666672 0 0 1 26.666672,26.666676 26.666672,26.666672 0 0 1 -0.13544,2.666664 h 5.35416 A 32.000008,32.000008 0 0 0 96,75.733332 32.000008,32.000008 0 0 0 63.999992,43.733324 Z"
     id="path2" />
  <path
     d="m 59.6,41 c -2.216,0 -4,1.784004 -4,4 v 8 c 0,2.215996 1.784,4 4,4 h 8 c 2.215996,0 4,-1.784004 4,-4 v -8 c 0,-2.215996 -1.784004,-4 -4,-4 z M 27.998434,73 c -2.215998,0 -4,1.784004 -4,4 v 8 c 0,2.215996 1.784002,4 4,4 h 8.000002 c 2.215996,0 4,-1.784004 4,-4 v -8 c 0,-2.215996 -1.784004,-4 -4,-4 z m 64.000002,0 c -2.215996,0 -4,1.784004 -4,4 v 8 c 0,2.215996 1.784004,4 4,4 h 8 c 2.215994,0 4.000004,-1.784004 4.000004,-4 v -8 c 0,-2.215996 -1.78401,-4 -4.000004,-4 z"
     style="opacity:0.1;fill:#000000;stroke-width:4"
     id="path1" />
  <path
     style="opacity:0.1;stroke-width:4"
     d="m 30,41 a 6,6 0 0 0 -6,6 6,6 0 0 0 6,6 6,6 0 0 0 5.656252,-4 H 92.351564 A 6,6 0 0 0 98,53 a 6,6 0 0 0 6,-6 6,6 0 0 0 -6,-6 6,6 0 0 0 -5.656248,4 H 35.648436 A 6,6 0 0 0 30,41 Z"
     id="path3" />
  <rect
     style="fill:#ff4b4b;stroke-width:4"
     width="61.599998"
     height="4"
     x="33.200001"
     y="44"
     id="rect3" />
  <rect
     style="fill:#3974e1;stroke-width:4"
     width="16"
     height="16"
     x="24"
     y="72"
     ry="4"
     id="rect4" />
  <rect
     style="fill:#3974e1;stroke-width:4"
     width="16"
     height="16"
     x="88"
     y="72"
     ry="4"
     id="rect5" />
  <circle
     style="fill:#ff4b4b;stroke-width:4"
     cx="98"
     cy="46"
     r="6"
     id="circle5" />
  <rect
     style="fill:#3974e1;stroke-width:4"
     width="16"
     height="16"
     x="55.599998"
     y="40"
     ry="4"
     id="rect6" />
  <circle
     style="fill:#ff4b4b;stroke-width:4"
     cx="30"
     cy="46"
     r="6"
     id="circle6" />
  <path
     id="rect1810"
     style="opacity:0.2;fill:#ffffff;fill-opacity:1;stroke-width:8;stroke-linecap:square"
     d="M 20,16 C 13.35202,16 8,21.352018 8,28 v 1 C 8,22.35202 13.35202,17 20,17 h 88 c 6.64798,0 12,5.35202 12,12 v -1 c 0,-6.647982 -5.35202,-12 -12,-12 z" />
</svg>
