<?xml version="1.0" encoding="UTF-8" standalone="no"?>
<!-- Created with Inkscape (http://www.inkscape.org/) -->

<svg
   width="128"
   height="128"
   viewBox="0 0 128 128.00001"
   version="1.1"
   id="svg5"
   inkscape:version="1.3 (0e150ed6c4, 2023-07-21)"
   sodipodi:docname="text-enriched.svg"
   xmlns:inkscape="http://www.inkscape.org/namespaces/inkscape"
   xmlns:sodipodi="http://sodipodi.sourceforge.net/DTD/sodipodi-0.dtd"
   xmlns="http://www.w3.org/2000/svg"
   xmlns:svg="http://www.w3.org/2000/svg">
  <sodipodi:namedview
     id="namedview7"
     pagecolor="#ffffff"
     bordercolor="#000000"
     borderopacity="0.25"
     inkscape:showpageshadow="2"
     inkscape:pageopacity="0.0"
     inkscape:pagecheckerboard="0"
     inkscape:deskcolor="#d1d1d1"
     inkscape:document-units="px"
     showgrid="false"
     inkscape:zoom="6.296875"
     inkscape:cx="63.920596"
     inkscape:cy="63.920596"
     inkscape:window-width="1850"
     inkscape:window-height="1011"
     inkscape:window-x="70"
     inkscape:window-y="32"
     inkscape:window-maximized="1"
     inkscape:current-layer="svg5" />
  <defs
     id="defs2" />
  <path
     id="rect234"
     style="opacity:0.2;stroke-width:2;stroke-linecap:round;stroke-linejoin:round"
     d="m 28,9 h 48 l 32,32 v 72 c 0,4.432 -3.568,8 -8,8 H 28 c -4.432,0 -8,-3.568 -8,-8 V 17 c 0,-4.432 3.568,-8 8,-8 z" />
  <path
     id="rect448"
     style="fill:#e0e0e0;fill-opacity:1;stroke-width:2;stroke-linecap:round;stroke-linejoin:round"
     d="m 28,8 h 48 l 12,20 20,12 v 72 c 0,4.432 -3.568,8 -8,8 H 28 c -4.432,0 -8,-3.568 -8,-8 V 16 c 0,-4.432 3.568,-8 8,-8 z" />
  <path
     id="path2519"
     style="opacity:0.2;fill:#000000;fill-opacity:1;stroke-width:2"
     d="M 46,61 36,85 h 4 l 3.335938,-8 h 9.328124 L 56,85 h 4 L 50,61 Z m 22,0 v 4 H 92 V 61 Z M 48,65.796876 51,73 H 45 Z M 68,71 v 4 h 24 v -4 z m 0,10 v 4 H 92 V 81 Z M 36,93 v 4 h 40 v -4 z" />
  <path
     id="path2408"
     style="fill:#757575;fill-opacity:1;stroke-width:2"
     d="M 46 60 L 36 84 L 40 84 L 43.335938 76 L 52.664062 76 L 56 84 L 60 84 L 50 60 L 46 60 z M 68 60 L 68 64 L 92 64 L 92 60 L 68 60 z M 48 64.796875 L 51 72 L 45 72 L 48 64.796875 z M 68 70 L 68 74 L 92 74 L 92 70 L 68 70 z M 68 80 L 68 84 L 92 84 L 92 80 L 68 80 z M 36 92 L 36 96 L 76 96 L 76 92 L 36 92 z " />
  <path
     d="M 108,41 H 84 c -4.432,0 -8,-3.568 -8,-8 V 8 l 32,32 z"
     style="opacity:0.2;fill:#000000;stroke-width:2;stroke-linecap:round;stroke-linejoin:round"
     id="path611" />
  <path
     id="rect600"
     style="fill:#f5f5f5;fill-opacity:1;stroke-width:2;stroke-linecap:round;stroke-linejoin:round"
     d="M 108,40 H 84 c -4.432,0 -8,-3.568 -8,-8 V 8 Z" />
  <path
     id="path1133"
     style="opacity:0.2;fill:#ffffff;fill-opacity:1;stroke-width:2;stroke-linecap:round;stroke-linejoin:round"
     d="m 28,8 c -4.431988,0 -8,3.568013 -8,8 v 1 c 0,-4.431988 3.568012,-8 8,-8 h 48 l 31,31 h 1 L 76,8 Z" />
</svg>
