<?xml version="1.0" encoding="UTF-8" standalone="no"?>
<!-- Created with Inkscape (http://www.inkscape.org/) -->

<svg
   width="128"
   height="128"
   viewBox="0 0 128 128.00001"
   version="1.1"
   id="svg5"
   inkscape:version="1.2.2 (1:1.2.2+202305151914+b0a8486541)"
   sodipodi:docname="text-x-markdown.svg"
   xmlns:inkscape="http://www.inkscape.org/namespaces/inkscape"
   xmlns:sodipodi="http://sodipodi.sourceforge.net/DTD/sodipodi-0.dtd"
   xmlns="http://www.w3.org/2000/svg"
   xmlns:svg="http://www.w3.org/2000/svg">
  <sodipodi:namedview
     id="namedview7"
     pagecolor="#ffffff"
     bordercolor="#000000"
     borderopacity="0.25"
     inkscape:showpageshadow="2"
     inkscape:pageopacity="0.0"
     inkscape:pagecheckerboard="0"
     inkscape:deskcolor="#d1d1d1"
     inkscape:document-units="px"
     showgrid="false"
     inkscape:zoom="6.296875"
     inkscape:cx="64"
     inkscape:cy="64"
     inkscape:window-width="1920"
     inkscape:window-height="1008"
     inkscape:window-x="0"
     inkscape:window-y="0"
     inkscape:window-maximized="1"
     inkscape:current-layer="svg5" />
  <defs
     id="defs2" />
  <path
     id="rect234"
     style="opacity:0.2;stroke-width:2;stroke-linecap:round;stroke-linejoin:round"
     d="m 28,9 h 48 l 32,32 v 72 c 0,4.432 -3.568,8 -8,8 H 28 c -4.432,0 -8,-3.568 -8,-8 V 17 c 0,-4.432 3.568,-8 8,-8 z" />
  <path
     id="rect448"
     style="fill:#e0e0e0;fill-opacity:1;stroke-width:2;stroke-linecap:round;stroke-linejoin:round"
     d="m 28,8 h 48 l 12,20 20,12 v 72 c 0,4.432 -3.568,8 -8,8 H 28 c -4.432,0 -8,-3.568 -8,-8 V 16 c 0,-4.432 3.568,-8 8,-8 z" />
  <path
     d="m 74,66 v 12 h -5 l 7,8 h 2 l 7,-8 H 80 V 66 Z M 44,86 h 6 V 74.600858 l 5,5.714284 5,-5.714284 V 86 h 6 V 66 H 60 L 55,71.714286 50,66 H 44 M 36.08984,56 C 33.87072,56 32,57.898918 32,60.152344 V 91.847656 C 32,94.101084 33.87072,96 36.08984,96 H 91.91016 C 94.12928,96 96,94.101084 96,91.847656 V 60.152344 C 96,57.898918 94.12928,56 91.91016,56 Z M 38,62 H 90 V 90 H 38 Z"
     style="fill:#6d7479;fill-opacity:1;stroke-width:2"
     id="path4357"
     sodipodi:nodetypes="cccccccccccccccccccccsssssssssccccc" />
  <path
     d="M 108,41 H 84 c -4.432,0 -8,-3.568 -8,-8 V 8 l 32,32 z"
     style="opacity:0.2;fill:#000000;stroke-width:2;stroke-linecap:round;stroke-linejoin:round"
     id="path611" />
  <path
     id="rect600"
     style="fill:#f5f5f5;fill-opacity:1;stroke-width:2;stroke-linecap:round;stroke-linejoin:round"
     d="M 108,40 H 84 c -4.432,0 -8,-3.568 -8,-8 V 8 Z" />
  <path
     id="path1133"
     style="opacity:0.2;fill:#ffffff;fill-opacity:1;stroke-width:2;stroke-linecap:round;stroke-linejoin:round"
     d="m 28,8 c -4.431988,0 -8,3.568013 -8,8 v 1 c 0,-4.431988 3.568012,-8 8,-8 h 48 l 31,31 h 1 L 76,8 Z" />
</svg>
