<?xml version="1.0" encoding="UTF-8" standalone="no"?>
<!-- Created with Inkscape (http://www.inkscape.org/) -->

<svg
   width="128"
   height="128"
   viewBox="0 0 128 128.00001"
   version="1.1"
   id="svg5"
   inkscape:version="1.3 (0e150ed6c4, 2023-07-21)"
   sodipodi:docname="text-x-java.svg"
   xmlns:inkscape="http://www.inkscape.org/namespaces/inkscape"
   xmlns:sodipodi="http://sodipodi.sourceforge.net/DTD/sodipodi-0.dtd"
   xmlns="http://www.w3.org/2000/svg"
   xmlns:svg="http://www.w3.org/2000/svg">
  <sodipodi:namedview
     id="namedview7"
     pagecolor="#ffffff"
     bordercolor="#000000"
     borderopacity="0.25"
     inkscape:showpageshadow="2"
     inkscape:pageopacity="0.0"
     inkscape:pagecheckerboard="0"
     inkscape:deskcolor="#d1d1d1"
     inkscape:document-units="px"
     showgrid="false"
     inkscape:zoom="6.2734375"
     inkscape:cx="64"
     inkscape:cy="64"
     inkscape:window-width="1850"
     inkscape:window-height="1011"
     inkscape:window-x="70"
     inkscape:window-y="32"
     inkscape:window-maximized="1"
     inkscape:current-layer="svg5" />
  <defs
     id="defs2" />
  <path
     id="rect234"
     style="opacity:0.2;stroke-width:2;stroke-linecap:round;stroke-linejoin:round"
     d="m 28,9 h 48 l 32,32 v 72 c 0,4.432 -3.568,8 -8,8 H 28 c -4.432,0 -8,-3.568 -8,-8 V 17 c 0,-4.432 3.568,-8 8,-8 z" />
  <path
     id="rect448"
     style="fill:#e0e0e0;fill-opacity:1;stroke-width:2;stroke-linecap:round;stroke-linejoin:round"
     d="m 28,8 h 48 l 12,20 20,12 v 72 c 0,4.432 -3.568,8 -8,8 H 28 c -4.432,0 -8,-3.568 -8,-8 V 16 c 0,-4.432 3.568,-8 8,-8 z" />
  <path
     id="path6"
     style="fill:#2c69c8;stroke-width:4"
     d="m 56.448124,82.27156 c -0.1372,-0.003 -0.33432,0.001 -0.593748,0.008 -1.556688,0.0409 -5.200504,0.37376 -9.4375,2.42188 -6.680048,3.23126 16.519896,4.70587 28.531248,1.54687 1.24876,-0.85268 2.976564,-1.59375 2.976564,-1.59375 0,0 -4.909636,0.87614 -9.804688,1.28906 -5.989624,0.50187 -12.422788,0.60373 -15.648436,0.17188 -7.639556,-1.0202 4.187496,-3.83594 4.187496,-3.83594 0,0 -0.07376,-0.005 -0.21092,-0.008 z M 82.62,82.91219 c -0.78264,0.002 -1.61612,0.14552 -2.468752,0.44531 -0.684808,0.24312 -1.046872,0.79688 -1.046872,0.79687 0,0 0.432616,-0.17396 1.398436,-0.375 3.940458,-0.82145 9.585088,5.28017 -2.625,11.625 -0.05648,0.15104 -0.25,0.32052 -0.25,0.32032 C 91.8966,91.97366 89.09508,83.21434 82.94812,82.92 82.83836,82.915 82.7318,82.912 82.62,82.912 Z m -28.718752,7.8125 c -11.023604,3.65874 6.135416,7.80891 21.539064,3.30468 -1.6373,-0.57728 -2.679688,-1.63281 -2.679688,-1.63281 -7.528164,1.44961 -11.873816,1.40428 -17.382812,0.83594 -4.260064,-0.44064 -1.476564,-2.50781 -1.476564,-2.50781 z m 1.5625,6.5625 c -10.00674,2.79607 6.08794,8.57741 18.828128,3.11718 -2.086708,-0.81145 -3.578128,-1.74999 -3.578128,-1.75 -5.683176,1.07563 -8.327252,1.15083 -13.484372,0.56251 -4.2569,-0.4894 -1.765628,-1.92969 -1.765628,-1.92969 z m -6.468748,5.125 c -4.3004,-0.16572 -14.068648,4.13339 -5.734376,5.48437 25.97574,4.21252 47.354946,-1.8983 40.617186,-4.9375 0,0 1.84388,1.51435 -2.02343,2.6875 -7.353812,2.22774 -30.610588,2.90543 -37.07032,0.0938 -2.322108,-1.0102 2.028648,-2.41678 3.39844,-2.71094 1.42856,-0.3098 2.25,-0.25 2.25,-0.25 -0.3228,-0.2274 -0.82316,-0.34356 -1.4375,-0.3672 z m 39.00781,3.42187 c 0,0 -0.82076,2.10386 -9.687498,3.77344 -10.003404,1.88252 -22.338576,1.65961 -29.656252,0.45312 1.8e-4,-1.7e-4 1.500256,1.24042 9.203128,1.73438 11.720164,0.75024 29.714372,-0.41528 30.140622,-5.96094 z" />
  <path
     id="path12"
     style="fill:#fa7800;stroke-width:4"
     d="m 71.049688,46.92 c 2.728364,10.744872 -9.621432,13.995344 -14.078124,20.6875 -3.036388,4.55896 1.488936,9.451196 7.656248,15.01562 -2.404964,-5.435676 -10.565568,-10.195052 0,-18.53906 C 77.803552,53.682292 71.049688,46.92 71.049688,46.92 Z m 7.468748,13.28906 c 0,0 -22.274012,5.56682 -11.632812,17.82813 3.13918,3.61419 -0.828124,6.86718 -0.828124,6.86718 0,0 7.973176,-4.11289 4.3125,-9.265622 -3.418956,-4.805244 -6.045388,-7.197768 8.148436,-15.429688 z" />
  <path
     d="M 108,41 H 84 c -4.432,0 -8,-3.568 -8,-8 V 8 l 32,32 z"
     style="opacity:0.2;fill:#000000;stroke-width:2;stroke-linecap:round;stroke-linejoin:round"
     id="path611" />
  <path
     id="rect600"
     style="fill:#f5f5f5;fill-opacity:1;stroke-width:2;stroke-linecap:round;stroke-linejoin:round"
     d="M 108,40 H 84 c -4.432,0 -8,-3.568 -8,-8 V 8 Z" />
  <path
     id="path1133"
     style="opacity:0.2;fill:#ffffff;fill-opacity:1;stroke-width:2;stroke-linecap:round;stroke-linejoin:round"
     d="m 28,8 c -4.431988,0 -8,3.568013 -8,8 v 1 c 0,-4.431988 3.568012,-8 8,-8 h 48 l 31,31 h 1 L 76,8 Z" />
</svg>
