<?xml version="1.0" encoding="UTF-8" standalone="no"?>
<!-- Created with Inkscape (http://www.inkscape.org/) -->

<svg
   width="128"
   height="128"
   viewBox="0 0 128 128.00001"
   version="1.1"
   id="svg5"
   inkscape:version="1.2.2 (1:1.2.2+202305151914+b0a8486541)"
   sodipodi:docname="text-x-script.svg"
   xmlns:inkscape="http://www.inkscape.org/namespaces/inkscape"
   xmlns:sodipodi="http://sodipodi.sourceforge.net/DTD/sodipodi-0.dtd"
   xmlns="http://www.w3.org/2000/svg"
   xmlns:svg="http://www.w3.org/2000/svg">
  <sodipodi:namedview
     id="namedview7"
     pagecolor="#ffffff"
     bordercolor="#000000"
     borderopacity="0.25"
     inkscape:showpageshadow="2"
     inkscape:pageopacity="0.0"
     inkscape:pagecheckerboard="0"
     inkscape:deskcolor="#d1d1d1"
     inkscape:document-units="px"
     showgrid="false"
     inkscape:zoom="6.484375"
     inkscape:cx="64"
     inkscape:cy="64"
     inkscape:window-width="1920"
     inkscape:window-height="1008"
     inkscape:window-x="0"
     inkscape:window-y="0"
     inkscape:window-maximized="1"
     inkscape:current-layer="svg5" />
  <defs
     id="defs2" />
  <path
     id="rect234"
     style="opacity:0.2;stroke-width:2;stroke-linecap:round;stroke-linejoin:round"
     d="m 28,9 h 48 l 32,32 v 72 c 0,4.432 -3.568,8 -8,8 H 28 c -4.432,0 -8,-3.568 -8,-8 V 17 c 0,-4.432 3.568,-8 8,-8 z" />
  <path
     id="rect448"
     style="fill:#424242;fill-opacity:1;stroke-width:2;stroke-linecap:round;stroke-linejoin:round"
     d="m 28,8 h 48 l 12,20 20,12 v 72 c 0,4.432 -3.568,8 -8,8 H 28 c -4.432,0 -8,-3.568 -8,-8 V 16 c 0,-4.432 3.568,-8 8,-8 z" />
  <path
     d="m 48,59 c -1.107994,0 -2,0.892008 -2,2 v 8 h -8 c -1.107994,0 -2,0.892006 -2,2 0,1.107994 0.892006,2 2,2 h 8 v 12.000004 h -8 c -1.107994,0 -2,0.892006 -2,2 0,1.107996 0.892006,2 2,2 h 8 v 8 c 0,1.107996 0.892006,2 2,2 1.107994,0 2,-0.892004 2,-2 v -8 h 12 v 8 c 0,1.107996 0.892006,2 2,2 1.107994,0 2,-0.892004 2,-2 v -8 h 8 c 1.107994,0 2,-0.892004 2,-2 0,-1.107994 -0.892006,-2 -2,-2 H 66 V 73 h 8 c 1.107994,0 2,-0.892006 2,-2 0,-1.107994 -0.892006,-2 -2,-2 h -8 v -8 c 0,-1.107994 -0.892006,-2 -2,-2 -1.107994,0 -2,0.892006 -2,2 v 8 H 50 v -8 c 0,-1.107994 -0.892006,-2 -2,-2 z m 38,0 c -1.107998,0 -2,0.892002 -2,2 v 28.000004 c 0,1.107998 0.892002,2 2,2 1.107998,0 2,-0.892002 2,-2 V 61 c 0,-1.107998 -0.892002,-2 -2,-2 z M 50,73 H 62 V 85.000004 H 50 Z m 36,22.000004 c -1.10457,0 -2,0.895432 -2,2 0,1.10457 0.89543,2 2,2 1.10457,0 2,-0.89543 2,-2 0,-1.104568 -0.89543,-2 -2,-2 z"
     style="opacity:0.2;fill:#000000;stroke-width:2.23606;stroke-linecap:round;stroke-linejoin:round"
     id="path530" />
  <path
     d="m 48,58 c -1.107994,0 -2,0.892006 -2,2 v 8 h -8 c -1.107994,0 -2,0.892006 -2,2 0,1.107994 0.892006,2 2,2 h 8 v 12.000002 h -8 c -1.107994,0 -2,0.892006 -2,2 0,1.107994 0.892006,2 2,2 h 8 v 8 c 0,1.107994 0.892006,2 2,2 1.107994,0 2,-0.892006 2,-2 v -8 h 12 v 8 c 0,1.107994 0.892006,2 2,2 1.107994,0 2,-0.892006 2,-2 v -8 h 8 c 1.107994,0 2,-0.892006 2,-2 0,-1.107994 -0.892006,-2 -2,-2 H 66 V 72 h 8 c 1.107994,0 2,-0.892006 2,-2 0,-1.107994 -0.892006,-2 -2,-2 h -8 v -8 c 0,-1.107994 -0.892006,-2 -2,-2 -1.107994,0 -2,0.892006 -2,2 v 8 H 50 v -8 c 0,-1.107994 -0.892006,-2 -2,-2 z m 38,0 c -1.107998,0 -2,0.892002 -2,2 v 28.000002 c 0,1.107998 0.892002,2 2,2 1.107998,0 2,-0.892002 2,-2 V 60 c 0,-1.107998 -0.892002,-2 -2,-2 z M 50,72 H 62 V 84.000002 H 50 Z m 36,22.000002 c -1.10457,0 -2,0.89543 -2,2 0,1.10457 0.89543,2 2,2 1.10457,0 2,-0.89543 2,-2 0,-1.10457 -0.89543,-2 -2,-2 z"
     style="fill:#ffffff;stroke-width:2.23606;stroke-linecap:round;stroke-linejoin:round"
     id="path502" />
  <path
     d="M 108,41 H 84 c -4.432,0 -8,-3.568 -8,-8 V 8 l 32,32 z"
     style="opacity:0.2;fill:#000000;stroke-width:2;stroke-linecap:round;stroke-linejoin:round"
     id="path611" />
  <path
     id="rect600"
     style="fill:#616161;fill-opacity:1;stroke-width:2;stroke-linecap:round;stroke-linejoin:round"
     d="M 108,40 H 84 c -4.432,0 -8,-3.568 -8,-8 V 8 l 16,16 z"
     sodipodi:nodetypes="cssccc" />
  <path
     id="path1133"
     style="opacity:0.2;fill:#ffffff;fill-opacity:1;stroke-width:2;stroke-linecap:round;stroke-linejoin:round"
     d="m 28,8 c -4.431988,0 -8,3.568013 -8,8 v 1 c 0,-4.431988 3.568012,-8 8,-8 h 48 l 31,31 h 1 L 76,8 Z" />
</svg>
