<?xml version="1.0" encoding="UTF-8" standalone="no"?>
<!-- Created with Inkscape (http://www.inkscape.org/) -->

<svg
   width="128"
   height="128"
   viewBox="0 0 128 128"
   version="1.1"
   id="svg5"
   inkscape:version="1.2.2 (1:1.2.2+202305151914+b0a8486541)"
   sodipodi:docname="video-x-generic.svg"
   xmlns:inkscape="http://www.inkscape.org/namespaces/inkscape"
   xmlns:sodipodi="http://sodipodi.sourceforge.net/DTD/sodipodi-0.dtd"
   xmlns="http://www.w3.org/2000/svg"
   xmlns:svg="http://www.w3.org/2000/svg">
  <sodipodi:namedview
     id="namedview7"
     pagecolor="#ffffff"
     bordercolor="#000000"
     borderopacity="0.25"
     inkscape:showpageshadow="2"
     inkscape:pageopacity="0.0"
     inkscape:pagecheckerboard="0"
     inkscape:deskcolor="#d1d1d1"
     inkscape:document-units="px"
     showgrid="false"
     inkscape:zoom="6.296875"
     inkscape:cx="64"
     inkscape:cy="64"
     inkscape:window-width="1920"
     inkscape:window-height="1008"
     inkscape:window-x="0"
     inkscape:window-y="0"
     inkscape:window-maximized="1"
     inkscape:current-layer="svg5" />
  <defs
     id="defs2" />
  <rect
     style="opacity:0.2;fill:#000000;stroke-width:2;stroke-linecap:round;stroke-linejoin:round"
     id="rect344"
     width="112"
     height="96"
     x="8"
     y="17"
     ry="12" />
  <rect
     style="fill:#7986cb;fill-opacity:1;stroke-width:2;stroke-linecap:round;stroke-linejoin:round"
     id="rect234"
     width="112"
     height="96"
     x="8"
     y="16"
     ry="12" />
  <path
     d="M 48.23433,37.685502 C 44.525324,35.66708 40.006682,38.34763 40,42.570274 v 44.573542 c 0.0066,4.22264 4.525324,6.903202 8.23433,4.884774 L 89.091956,69.75054 c 3.877386,-2.110226 3.877386,-7.676762 0,-9.78699 z"
     id="path1738"
     style="opacity:0.2;fill:#000000;stroke-width:2" />
  <path
     d="M 48.23433,36.685502 C 44.525324,34.66708 40.006682,37.34763 40,41.570274 v 44.573542 c 0.0066,4.22264 4.525324,6.903202 8.23433,4.884774 L 89.091956,68.75054 c 3.877386,-2.110226 3.877386,-7.676762 0,-9.78699 z"
     style="fill:#ffffff;fill-opacity:1;stroke-width:8.93216;stroke-linecap:round;stroke-linejoin:round;stroke-miterlimit:1"
     id="path1710"
     sodipodi:nodetypes="ccccccc" />
  <path
     id="rect1810"
     style="opacity:0.2;fill:#ffffff;fill-opacity:1;stroke-width:8;stroke-linecap:square"
     d="M 20,16 C 13.352013,16 8,21.352012 8,28 v 1 C 8,22.352006 13.352007,17 20,17 h 88 c 6.64799,0 12,5.352006 12,12 v -1 c 0,-6.647988 -5.35201,-12 -12,-12 z" />
</svg>
