<?xml version="1.0" encoding="UTF-8" standalone="no"?>
<!-- Created with Inkscape (http://www.inkscape.org/) -->

<svg
   width="128"
   height="128"
   viewBox="0 0 128 128"
   version="1.1"
   id="svg5"
   inkscape:version="1.3 (0e150ed6c4, 2023-07-21)"
   sodipodi:docname="x-content-blank-cd.svg"
   xmlns:inkscape="http://www.inkscape.org/namespaces/inkscape"
   xmlns:sodipodi="http://sodipodi.sourceforge.net/DTD/sodipodi-0.dtd"
   xmlns="http://www.w3.org/2000/svg"
   xmlns:svg="http://www.w3.org/2000/svg">
  <sodipodi:namedview
     id="namedview7"
     pagecolor="#ffffff"
     bordercolor="#000000"
     borderopacity="0.25"
     inkscape:showpageshadow="2"
     inkscape:pageopacity="0.0"
     inkscape:pagecheckerboard="0"
     inkscape:deskcolor="#d1d1d1"
     inkscape:document-units="px"
     showgrid="false"
     inkscape:zoom="6.296875"
     inkscape:cx="63.920596"
     inkscape:cy="63.920596"
     inkscape:window-width="1850"
     inkscape:window-height="1011"
     inkscape:window-x="70"
     inkscape:window-y="32"
     inkscape:window-maximized="1"
     inkscape:current-layer="svg5" />
  <defs
     id="defs2" />
  <path
     d="M 64,9 C 33.072056,9 8,34.072056 8,65 8,95.927944 33.072056,121 64,121 94.92794,121 120,95.927944 120,65 120,34.072056 94.92794,9 64,9 Z m 0,32 C 77.254828,41 88,51.745168 88,65 88,78.254832 77.254828,89 64,89 50.745168,89 40.000004,78.254832 40.000004,65 40.000004,51.745168 50.745172,41 64,41 Z"
     style="opacity:0.2;fill:#000000;stroke-width:4"
     id="path408" />
  <path
     d="M 64,32 C 46.326884,32 32,46.326888 32,64 32,81.673112 46.326884,96 64,96 81.673112,96 96,81.673112 96,64 96,46.326888 81.673112,32 64,32 Z m 0,20 c 6.627412,0 12,5.372584 12,12 0,6.627416 -5.372588,12 -12,12 -6.627412,0 -11.999996,-5.372584 -11.999996,-12 0,-6.627416 5.372584,-12 11.999996,-12 z"
     style="fill:#848484;stroke-width:4"
     id="path380" />
  <path
     d="M 64,8 C 33.072056,8 8,33.072052 8,64 8,94.927944 33.072056,120 64,120 94.92794,120 120,94.927944 120,64 120,33.072052 94.92794,8 64,8 Z m 0,32 C 77.254828,40 88,50.745168 88,64 88,77.254832 77.254828,88 64,88 50.745168,88 40.000004,77.254832 40.000004,64 40.000004,50.745168 50.745172,40 64,40 Z"
     style="fill:#e4e4e4;stroke-width:4"
     id="path302" />
  <path
     id="path436"
     style="opacity:0.2;fill:#ffffff;stroke-width:3.0625"
     d="M 64,8 A 56,56 0 0 0 8,64 56,56 0 0 0 8.0351562,64.5 56,56 0 0 1 64,9 56,56 0 0 1 119.98047,64.253906 56,56 0 0 0 120,64 56,56 0 0 0 64,8 Z" />
</svg>
