<?xml version="1.0" encoding="UTF-8" standalone="no"?>
<!-- Created with Inkscape (http://www.inkscape.org/) -->

<svg
   width="22"
   height="22"
   viewBox="0 0 22 22"
   version="1.1"
   id="svg5"
   inkscape:version="1.3.2 (1:1.3.2+202404261509+091e20ef0f)"
   sodipodi:docname="preferences-system.svg"
   xmlns:inkscape="http://www.inkscape.org/namespaces/inkscape"
   xmlns:sodipodi="http://sodipodi.sourceforge.net/DTD/sodipodi-0.dtd"
   xmlns="http://www.w3.org/2000/svg"
   xmlns:svg="http://www.w3.org/2000/svg">
  <sodipodi:namedview
     id="namedview7"
     pagecolor="#ffffff"
     bordercolor="#000000"
     borderopacity="0.25"
     inkscape:showpageshadow="2"
     inkscape:pageopacity="0.0"
     inkscape:pagecheckerboard="0"
     inkscape:deskcolor="#d1d1d1"
     inkscape:document-units="px"
     showgrid="false"
     inkscape:zoom="36.318182"
     inkscape:cx="10.986233"
     inkscape:cy="11"
     inkscape:window-width="1920"
     inkscape:window-height="1006"
     inkscape:window-x="0"
     inkscape:window-y="0"
     inkscape:window-maximized="1"
     inkscape:current-layer="svg5" />
  <defs
     id="defs2" />
  <rect
     style="opacity:0.2;fill:#000000;stroke-width:1.42857;stroke-linecap:square"
     id="rect234"
     width="20"
     height="20"
     x="1"
     y="1.5"
     ry="4.5" />
  <rect
     style="fill:#458588;fill-opacity:1;stroke-width:1.42857;stroke-linecap:square"
     id="rect396"
     width="20"
     height="20"
     x="1"
     y="1"
     ry="4.5" />
  <path
     id="path3164"
     style="opacity:0.2;fill:#000000;stroke-width:0.699955"
     d="M 9.5664062 4.5 L 9.5664062 4.5039062 C 9.4176666 4.5200773 9.2851111 4.6383776 9.2578125 4.7851562 L 8.9609375 6.2832031 C 8.4300427 6.490511 7.9342606 6.7750258 7.4960938 7.125 L 6.0351562 6.6328125 C 5.8837572 6.5807014 5.7024276 6.6494672 5.6210938 6.7871094 L 4.2167969 9.2148438 C 4.1378122 9.3544836 4.1750511 9.5457489 4.296875 9.6503906 L 5.4570312 10.669922 C 5.4161253 10.942636 5.390625 11.21589 5.390625 11.5 C 5.390625 11.784089 5.4161693 12.057342 5.4570312 12.330078 L 4.296875 13.349609 C 4.1750524 13.454255 4.1378048 13.64747 4.2167969 13.787109 L 5.6210938 16.212891 C 5.7024317 16.350575 5.8837782 16.4193 6.0351562 16.367188 L 7.4960938 15.875 C 7.9340506 16.224961 8.4298861 16.509474 8.9609375 16.716797 L 9.2578125 18.216797 C 9.2877985 18.373636 9.4396646 18.49783 9.5996094 18.5 L 12.404297 18.5 C 12.564235 18.4979 12.714155 18.37364 12.744141 18.216797 L 13.039062 16.716797 C 13.570114 16.509488 14.069858 16.224942 14.507812 15.875 L 15.964844 16.367188 C 16.11623 16.419297 16.299532 16.350555 16.380859 16.212891 L 17.78125 13.787109 C 17.86025 13.647465 17.828821 13.454181 17.707031 13.349609 L 16.544922 12.330078 C 16.585812 12.057364 16.609375 11.78411 16.609375 11.5 C 16.609375 11.215911 16.585802 10.942657 16.544922 10.669922 L 17.707031 9.6503906 C 17.828841 9.5458294 17.860229 9.3544976 17.78125 9.2148438 L 16.380859 6.7871094 C 16.299662 6.6494291 16.116033 6.5807013 15.964844 6.6328125 L 14.507812 7.125 C 14.069653 6.775026 13.569974 6.4904927 13.039062 6.2832031 L 12.744141 4.7851562 C 12.714041 4.6283325 12.564235 4.5021699 12.404297 4.5 L 9.5996094 4.5 C 9.5886894 4.49965 9.5773353 4.49965 9.5664062 4.5 z M 11 8.5 C 12.656852 8.5 14 9.8431477 14 11.5 C 14 13.156852 12.656852 14.5 11 14.5 C 9.3431477 14.5 8 13.156852 8 11.5 C 8 9.8431477 9.3431477 8.5 11 8.5 z M 11 9.5 C 9.8954321 9.5 9 10.395432 9 11.5 C 9 12.604568 9.8954321 13.5 11 13.5 C 12.104568 13.5 13 12.604568 13 11.5 C 13 10.395432 12.104568 9.5 11 9.5 z " />
  <path
     id="path1040"
     style="opacity:0.2;fill:#ffffff;stroke-width:4;stroke-linecap:square"
     d="M 5.5,1 C 3.007005,1 1,3.007005 1,5.5 V 6 C 1,3.507005 3.007005,1.5 5.5,1.5 h 11 C 18.992996,1.5 21,3.507005 21,6 V 5.5 C 21,3.007005 18.992996,1 16.5,1 Z" />
  <path
     id="path1082"
     style="fill:#ffffff;stroke-width:0.699955"
     d="M 9.5664062 4 L 9.5664062 4.0039062 C 9.4176665 4.0200773 9.2851111 4.1383776 9.2578125 4.2851562 L 8.9609375 5.7832031 C 8.4300428 5.990511 7.934261 6.2750258 7.4960938 6.625 L 6.0351562 6.1328125 C 5.8837579 6.0807012 5.7024277 6.1494669 5.6210938 6.2871094 L 4.2167969 8.7148438 C 4.137812 8.8544836 4.1750521 9.0457489 4.296875 9.1503906 L 5.4570312 10.169922 C 5.4161253 10.442636 5.390625 10.71589 5.390625 11 C 5.390625 11.284089 5.4161663 11.557342 5.4570312 11.830078 L 4.296875 12.849609 C 4.175052 12.954255 4.1378065 13.14747 4.2167969 13.287109 L 5.6210938 15.712891 C 5.7024307 15.850575 5.8837789 15.9193 6.0351562 15.867188 L 7.4960938 15.375 C 7.934051 15.724961 8.4298862 16.009474 8.9609375 16.216797 L 9.2578125 17.716797 C 9.2877985 17.873636 9.4396646 17.99783 9.5996094 18 L 12.404297 18 C 12.564235 17.9979 12.714155 17.87364 12.744141 17.716797 L 13.039062 16.216797 C 13.570114 16.009488 14.069858 15.724942 14.507812 15.375 L 15.964844 15.867188 C 16.11623 15.919297 16.299532 15.850555 16.380859 15.712891 L 17.78125 13.287109 C 17.86025 13.147465 17.828821 12.954181 17.707031 12.849609 L 16.544922 11.830078 C 16.585812 11.557364 16.609375 11.28411 16.609375 11 C 16.609375 10.715911 16.585802 10.442657 16.544922 10.169922 L 17.707031 9.1503906 C 17.828841 9.0458294 17.860229 8.8544976 17.78125 8.7148438 L 16.380859 6.2871094 C 16.299662 6.1494291 16.116033 6.0807013 15.964844 6.1328125 L 14.507812 6.625 C 14.069653 6.275026 13.569974 5.9904927 13.039062 5.7832031 L 12.744141 4.2851562 C 12.714041 4.1283325 12.564235 4.0021699 12.404297 4 L 9.5996094 4 C 9.5886894 3.99965 9.5773353 3.99965 9.5664062 4 z M 11 8 C 12.656852 8 14 9.3431475 14 11 C 14 12.656852 12.656852 14 11 14 C 9.3431471 14 8 12.656852 8 11 C 8 9.3431475 9.3431471 8 11 8 z M 11 9 C 9.8954312 9 9 9.8954317 9 11 C 9 12.104568 9.8954312 13 11 13 C 12.104568 13 13 12.104568 13 11 C 13 9.8954317 12.104568 9 11 9 z " />
</svg>
