<?xml version="1.0" encoding="UTF-8" standalone="no"?>
<!-- Created with Inkscape (http://www.inkscape.org/) -->

<svg
   width="22"
   height="22"
   viewBox="0 0 22 22"
   version="1.1"
   id="svg5"
   inkscape:version="1.2.2 (1:1.2.2+202305151914+b0a8486541)"
   sodipodi:docname="folder-blue-videos-open.svg"
   xmlns:inkscape="http://www.inkscape.org/namespaces/inkscape"
   xmlns:sodipodi="http://sodipodi.sourceforge.net/DTD/sodipodi-0.dtd"
   xmlns="http://www.w3.org/2000/svg"
   xmlns:svg="http://www.w3.org/2000/svg">
  <sodipodi:namedview
     id="namedview7"
     pagecolor="#ffffff"
     bordercolor="#000000"
     borderopacity="0.25"
     inkscape:showpageshadow="2"
     inkscape:pageopacity="0.0"
     inkscape:pagecheckerboard="0"
     inkscape:deskcolor="#d1d1d1"
     inkscape:document-units="px"
     showgrid="false"
     inkscape:zoom="37.727273"
     inkscape:cx="11"
     inkscape:cy="11"
     inkscape:window-width="1920"
     inkscape:window-height="1008"
     inkscape:window-x="0"
     inkscape:window-y="0"
     inkscape:window-maximized="1"
     inkscape:current-layer="svg5" />
  <defs
     id="defs2" />
  <path
     id="path2024"
     style="opacity:0.2;fill:#000000;stroke-width:4;stroke-linecap:square"
     d="M 2.5,3.5 A 1.5,1.5 0 0 0 1,5 v 14 a 1.5,1.5 0 0 0 1.5,1.5 h 17 A 1.5,1.5 0 0 0 21,19 V 8 A 1.5,1.5 0 0 0 19.5,6.5 h -8 L 10.5,5 C 9.885394,4.0780908 9.607997,3.5 8.5,3.5 Z" />
  <path
     id="path2052"
     style="fill:#49665b;fill-opacity:1;stroke-width:4;stroke-linecap:square"
     d="M 2.5,3 A 1.5,1.5 0 0 0 1,4.5 v 14 A 1.5,1.5 0 0 0 2.5,20 h 17 A 1.5,1.5 0 0 0 21,18.5 V 7.5 A 1.5,1.5 0 0 0 19.5,6 h -8 l -1,-1.5 C 9.885394,3.5780908 9.607997,3 8.5,3 Z" />
  <path
     id="path447"
     style="opacity:0.1;fill:#ffffff;fill-opacity:1;stroke-width:4;stroke-linecap:square"
     d="M 2.5,3 C 1.6715737,3 1,3.6715737 1,4.5 V 5 C 1,4.1715737 1.6715737,3.5 2.5,3.5 h 6 c 1.107996,0 1.385395,0.5780917 2,1.5 l 1,1.5 h 8 C 20.328426,6.5 21,7.1715737 21,8 V 7.5 C 21,6.6715737 20.328426,6 19.5,6 h -8 l -1,-1.5 C 9.885395,3.5780917 9.607996,3 8.5,3 Z" />
  <rect
     style="opacity:0.2;fill:#000000;fill-opacity:1;stroke-width:4;stroke-linecap:square"
     id="rect2667"
     width="20"
     height="10"
     x="1"
     y="9.5"
     ry="1.5" />
  <rect
     style="fill:#fbf1c7;fill-opacity:1;stroke-width:1.5;stroke-linecap:square"
     id="rect3435"
     width="18"
     height="9"
     x="2"
     y="7"
     ry="1" />
  <rect
     style="opacity:1;fill:#83a598;fill-opacity:1;stroke-width:4;stroke-linecap:square"
     id="rect2072"
     width="20"
     height="10"
     x="1"
     y="10"
     ry="1.5" />
  <path
     d="m 7.7499998,12 c -0.416,0 -0.75,0.335 -0.75,0.75 v 3.5 c 0,0.416 0.334,0.75 0.75,0.75 H 12.25 C 12.666,17 13,16.666 13,16.25 V 14.5 12.75 C 13,12.335 12.666,12 12.25,12 Z M 13,14.5 15,16 v -3 z"
     style="opacity:0.5;fill:#000000"
     id="path308" />
</svg>
