<?xml version="1.0" encoding="UTF-8" standalone="no"?>
<!-- Created with Inkscape (http://www.inkscape.org/) -->

<svg
   width="128"
   height="128"
   viewBox="0 0 128 128"
   version="1.1"
   id="svg5"
   inkscape:version="1.4.3 (0d15f75042, 2025-12-25)"
   sodipodi:docname="user-trash.svg"
   xmlns:inkscape="http://www.inkscape.org/namespaces/inkscape"
   xmlns:sodipodi="http://sodipodi.sourceforge.net/DTD/sodipodi-0.dtd"
   xmlns="http://www.w3.org/2000/svg"
   xmlns:svg="http://www.w3.org/2000/svg">
  <sodipodi:namedview
     id="namedview7"
     pagecolor="#ffffff"
     bordercolor="#000000"
     borderopacity="0.25"
     inkscape:showpageshadow="2"
     inkscape:pageopacity="0.0"
     inkscape:pagecheckerboard="0"
     inkscape:deskcolor="#d1d1d1"
     inkscape:document-units="px"
     showgrid="false"
     inkscape:zoom="3.7578125"
     inkscape:cx="64"
     inkscape:cy="63.866944"
     inkscape:window-width="1440"
     inkscape:window-height="833"
     inkscape:window-x="0"
     inkscape:window-y="0"
     inkscape:window-maximized="1"
     inkscape:current-layer="svg5" />
  <defs
     id="defs2">
    <style
       type="text/css"
       id="current-color-scheme">
        .ColorScheme-Text {
        color:#31363b;
        }
        .ColorScheme-Accent {
        color:#3daee9;
        }
     </style>
  </defs>
  <rect
     style="opacity:0.2;fill:#000000;fill-opacity:1;stroke-width:4;stroke-linecap:square"
     id="rect1972"
     width="87.999992"
     height="111.99999"
     x="20"
     y="9"
     ry="11.999999" />
  <rect
     style="fill:#c9c9c9;fill-opacity:1;stroke-width:4;stroke-linecap:square"
     id="rect2026"
     width="87.999992"
     height="111.99999"
     x="20"
     y="8"
     ry="11.999999" />
  <rect
     style="fill:#7e7e7e;fill-opacity:1;stroke-width:4;stroke-linecap:square"
     id="rect2112"
     width="87.999992"
     height="35.999996"
     x="20"
     y="8"
     ry="11.999999" />
  <path
     id="rect2107"
     style="fill:#a6a6a6;fill-opacity:1;stroke-width:4;stroke-linecap:square"
     d="M 32.000001,8 C 25.352008,8 20,13.352006 20,19.999999 v 11.999999 c 0,6.647994 5.352008,12 12.000001,12 h 63.999994 c 6.647995,0 11.999995,-5.352006 11.999995,-12 V 19.999999 C 107.99999,13.352006 102.64799,8 95.999995,8 Z m 0,7.999999 h 63.999994 c 2.215998,0 4,1.784002 4,4 v 11.999999 c 0,2.215998 -1.784002,4 -4,4 H 32.000001 c -2.215998,0 -4,-1.784002 -4,-4 V 19.999999 c 0,-2.215998 1.784002,-4 4,-4 z"
     sodipodi:nodetypes="ssssssssssssssssss" />
  <path
     id="rect3237"
     style="opacity:0.2;fill:#ffffff;fill-opacity:1;stroke-width:4;stroke-linecap:square"
     d="M 32.000005,8 C 25.352012,8 20.000006,13.352008 20.000006,19.999999 v 1 c 0,-6.647993 5.352006,-11.9999991 11.999999,-11.9999991 H 96.000001 C 102.64799,8.9999999 108,14.352006 108,20.999999 v -1 C 108,13.352008 102.64799,8 96.000001,8 Z" />
  <g
     id="g1"
     style="fill:currentColor"
     class="ColorScheme-Accent"
     transform="matrix(1.9999999,0,0,1.9999999,7.3636359e-6,5.4545451e-7)">
    <rect
       style="opacity:1;stroke-width:4;stroke-linecap:square"
       id="rect776"
       width="4"
       height="30"
       x="15"
       y="26"
       ry="2" />
    <rect
       style="opacity:1;stroke-width:4;stroke-linecap:square"
       id="rect830"
       width="4"
       height="30"
       x="25"
       y="26"
       ry="2" />
    <rect
       style="opacity:1;stroke-width:4;stroke-linecap:square"
       id="rect832"
       width="4"
       height="30"
       x="35"
       y="26"
       ry="2" />
    <rect
       style="opacity:1;stroke-width:4;stroke-linecap:square"
       id="rect834"
       width="4"
       height="30"
       x="45"
       y="26"
       ry="2" />
  </g>
</svg>
