<?xml version="1.0" encoding="UTF-8" standalone="no"?>
<svg
   width="128"
   height="128"
   version="1"
   id="svg3"
   sodipodi:docname="user-bookmarks.svg"
   inkscape:version="1.4.3 (0d15f75042, 2025-12-25)"
   xmlns:inkscape="http://www.inkscape.org/namespaces/inkscape"
   xmlns:sodipodi="http://sodipodi.sourceforge.net/DTD/sodipodi-0.dtd"
   xmlns="http://www.w3.org/2000/svg"
   xmlns:svg="http://www.w3.org/2000/svg">
  <defs
     id="defs3">
    <style
       type="text/css"
       id="current-color-scheme">
        .ColorScheme-Text {
        color:#31363b;
        }
        .ColorScheme-Accent {
        color:#3daee9;
        }
     </style>
  </defs>
  <sodipodi:namedview
     id="namedview3"
     pagecolor="#ffffff"
     bordercolor="#000000"
     borderopacity="0.25"
     inkscape:showpageshadow="2"
     inkscape:pageopacity="0.0"
     inkscape:pagecheckerboard="0"
     inkscape:deskcolor="#d1d1d1"
     inkscape:zoom="3.7578125"
     inkscape:cx="64"
     inkscape:cy="63.866944"
     inkscape:window-width="1440"
     inkscape:window-height="833"
     inkscape:window-x="0"
     inkscape:window-y="0"
     inkscape:window-maximized="1"
     inkscape:current-layer="svg3" />
  <path
     style="opacity:0.2;stroke-width:1.99998"
     d="m 64.000062,8.9999919 c -5.228751,0.074735 -8.960865,3.2235621 -10.710861,8.4374421 l 0.07032,-0.234377 -8.218693,23.79671 h -27.70293 c -0.0604,-9.68e-4 -0.119279,-9.68e-4 -0.179678,0 -3.308483,0.107239 -6.288726,2.050423 -8.3905651,4.609344 C 4.322003,50.827059 5.2828446,60.240933 11.055139,64.132417 L 32.836236,80.046369 24.38317,106.31181 c -0.0094,0.0292 -0.0146,0.0567 -0.02344,0.0859 -1.291611,4.243 -0.07702,8.61116 3.171853,11.60148 0.02348,0.022 0.04628,0.0488 0.07032,0.0703 3.904136,3.47072 9.39562,3.91183 13.804588,1.03905 0.08388,-0.0543 0.161359,-0.11327 0.242198,-0.17187 l 22.351391,-15.93738 22.351405,15.93739 c 0.08084,0.0586 0.158319,0.11764 0.242198,0.17188 4.408971,2.87277 9.900448,2.43166 13.804587,-1.03906 0.024,-0.0216 0.0467,-0.0482 0.0703,-0.0703 3.24887,-2.99032 4.46346,-7.35848 3.17185,-11.60148 -0.009,-0.0292 -0.014,-0.0568 -0.0236,-0.0859 L 95.163766,80.046381 116.94486,64.132429 c 5.77229,-3.891484 6.73314,-13.305358 2.18749,-18.523306 -2.10184,-2.558921 -5.08208,-4.502103 -8.39057,-4.609344 -0.0604,-9.68e-4 -0.11928,-9.68e-4 -0.17968,0 H 82.859166 L 74.64047,17.203071 74.71079,17.437446 C 72.960926,12.223554 69.228812,9.0747273 64.000062,8.9999919 Z"
     id="path1" />
  <path
     style="fill:currentColor;stroke-width:1.99998"
     class="ColorScheme-Accent"
     d="m 64,8 c -5.228751,0.074735 -8.956949,3.223553 -10.706945,8.437432 l 0.0625,-0.234374 -8.214777,23.796683 h -27.7029 c -0.0604,-9.68e-4 -0.119279,-9.68e-4 -0.179678,0 -3.308483,0.107239 -6.292624,2.050415 -8.3944626,4.609339 -4.545652,5.217945 -3.5809064,14.627893 2.1913886,18.51938 L 32.8362,79.050207 24.383142,105.31171 c -0.0094,0.0291 -0.0186,0.0567 -0.02734,0.0859 -1.291609,4.24301 -0.07704,8.61505 3.171851,11.60538 0.02362,0.0221 0.05408,0.0448 0.07812,0.0664 3.904136,3.47072 9.387796,3.91183 13.796764,1.03906 0.08388,-0.0543 0.169159,-0.11328 0.249998,-0.17188 L 64,101.99924 86.347475,117.93661 c 0.08084,0.0586 0.166119,0.11764 0.249998,0.17188 4.408975,2.87277 9.892624,2.43166 13.796767,-1.03906 0.024,-0.0216 0.0545,-0.0443 0.0781,-0.0664 3.24888,-2.99032 4.46346,-7.36237 3.17185,-11.60537 -0.009,-0.0292 -0.0178,-0.0569 -0.0273,-0.0859 L 95.16381,79.050207 116.94488,63.12846 c 5.7723,-3.891487 6.73704,-13.301433 2.19139,-18.51938 -2.10184,-2.558924 -5.08597,-4.5021 -8.39446,-4.609339 -0.0604,-9.68e-4 -0.11928,-9.68e-4 -0.17968,0 H 82.859224 l -8.214778,-23.796683 0.0625,0.234374 C 72.95695,11.223553 69.22875,8.0747354 64,8 Z"
     id="path2" />
  <path
     id="path3"
     style="opacity:0.2;fill:#ffffff;stroke-width:1.99998"
     d="m 64,8 c -5.228751,0.074735 -8.960855,3.223552 -10.710851,8.437432 l 0.07031,-0.234374 -8.218685,23.796683 h -27.7029 c -0.0604,-9.68e-4 -0.119279,-9.68e-4 -0.179678,0 -3.30849,0.107239 -6.288726,2.050415 -8.3905643,4.609339 -2.0332799,2.333997 -2.9490359,5.505337 -2.8398208,8.648366 0.097936,-2.806194 1.0222004,-5.561933 2.8398208,-7.648375 2.1018383,-2.558923 5.0820733,-4.502099 8.3905563,-4.609338 0.0604,-9.68e-4 0.119279,-9.68e-4 0.179678,0 h 27.702908 l 8.218685,-23.796684 -0.07032,0.234375 C 55.039145,12.223544 58.771249,9.0747273 64,8.9999919 c 5.22875,0.074735 8.960988,3.2235401 10.710852,8.4374321 l -0.07031,-0.234375 8.218686,23.796684 h 27.702892 c 0.0604,-9.68e-4 0.11928,-9.68e-4 0.17968,0 3.30849,0.107239 6.28873,2.050415 8.39056,4.609338 1.81765,2.086474 2.74191,4.842137 2.83982,7.648375 0.10924,-3.143071 -0.80651,-6.314337 -2.83982,-8.648366 -2.10183,-2.558924 -5.08206,-4.502098 -8.39055,-4.609339 -0.0604,-9.68e-4 -0.11928,-9.68e-4 -0.17968,0 H 82.859224 l -8.218686,-23.796683 0.07032,0.234374 C 72.960988,11.22354 69.22875,8.0747354 64,8 Z m -31.683337,72.66738 -7.93353,24.64433 c -0.0094,0.0292 -0.0146,0.0567 -0.02344,0.0859 -0.388101,1.27492 -0.539259,2.55654 -0.484372,3.81247 0.04096,-0.93308 0.198759,-1.87421 0.484372,-2.81248 0.0088,-0.0292 0.014,-0.0567 0.02344,-0.0859 l 7.93353,-24.644329 0.25781,0.187499 0.261718,-0.808586 z m 63.366675,0 -0.519528,0.378904 0.261718,0.808586 0.25781,-0.187499 7.933532,24.644329 c 0.01,0.0291 0.0146,0.0567 0.0234,0.0859 0.28564,0.93819 0.44341,1.87948 0.48437,2.81248 0.0549,-1.25586 -0.0963,-2.53762 -0.48437,-3.81247 -0.009,-0.0292 -0.0138,-0.0569 -0.0234,-0.0859 z" />
</svg>
