<?xml version="1.0" encoding="UTF-8" standalone="no"?>
<!-- Created with Inkscape (http://www.inkscape.org/) -->

<svg
   width="24"
   height="24"
   viewBox="0 0 24 24"
   version="1.1"
   id="svg5"
   inkscape:version="1.2.2 (1:1.2.2+202305151914+b0a8486541)"
   sodipodi:docname="network-wired-no-route.svg"
   xmlns:inkscape="http://www.inkscape.org/namespaces/inkscape"
   xmlns:sodipodi="http://sodipodi.sourceforge.net/DTD/sodipodi-0.dtd"
   xmlns="http://www.w3.org/2000/svg"
   xmlns:svg="http://www.w3.org/2000/svg">
  <sodipodi:namedview
     id="namedview7"
     pagecolor="#ffffff"
     bordercolor="#000000"
     borderopacity="0.25"
     inkscape:showpageshadow="2"
     inkscape:pageopacity="0.0"
     inkscape:pagecheckerboard="0"
     inkscape:deskcolor="#d1d1d1"
     inkscape:document-units="px"
     showgrid="false"
     showguides="true"
     inkscape:zoom="33.583333"
     inkscape:cx="11.985112"
     inkscape:cy="12"
     inkscape:window-width="1920"
     inkscape:window-height="1008"
     inkscape:window-x="0"
     inkscape:window-y="0"
     inkscape:window-maximized="1"
     inkscape:current-layer="svg5" />
  <defs
     id="defs2">
    <style
       id="current-color-scheme"
       type="text/css">
   .ColorScheme-Text { color:#dfdfdf; } .ColorScheme-Highlight { color:#4285f4; } .ColorScheme-NeutralText { color:#ff9800; } .ColorScheme-PositiveText { color:#4caf50; } .ColorScheme-NegativeText { color:#f44336; }
    </style>
  </defs>
  <path
     d="M 6,6 C 6,6 5,6 5,7 v 9 c 0,1 1,1 1,1 h 2 l 1,1 h 6 l 1,-1 h 2 c 0,0 1,0.13 1,-1 V 7 C 19,6 18,6 18,6 Z m 1,2 h 10 v 7 h -2 l -1,1 H 10 L 9,15 H 7 Z"
     style="opacity:0.35;fill:currentColor;fill-opacity:1"
     class="ColorScheme-Text"
     id="path346" />
  <path
     d="m 12,8 c 1.1046,0 2,0.89543 2,2 0,1.10457 -0.89543,2 -2,2 v 1 h -1 v -2 h 1 c 0.55229,0 1,-0.44772 1,-1 0,-0.55228 -0.44771,-1 -1,-1 -0.55228,0 -1,0.44772 -1,1 h -1 c 0,-1.1046 0.89543,-2 2,-2 z m -0.5,5.75 c 0.41421,0 0.75,0.33579 0.75,0.750001 0,0.41421 -0.33579,0.749999 -0.75,0.749999 -0.41421,0 -0.75,-0.335789 -0.75,-0.749999 C 10.75,14.08579 11.08579,13.75 11.5,13.75 Z"
     style="fill:currentColor;fill-opacity:1"
     class="ColorScheme-Text"
     id="path348" />
</svg>
