<?xml version="1.0" encoding="UTF-8" standalone="no"?>
<svg
   width="24"
   height="24"
   version="1.1"
   id="svg1"
   sodipodi:docname="network-cellular-3g.svg"
   inkscape:version="1.4.3 (0d15f75042, 2025-12-25)"
   xmlns:inkscape="http://www.inkscape.org/namespaces/inkscape"
   xmlns:sodipodi="http://sodipodi.sourceforge.net/DTD/sodipodi-0.dtd"
   xmlns="http://www.w3.org/2000/svg"
   xmlns:svg="http://www.w3.org/2000/svg">
  <sodipodi:namedview
     id="namedview1"
     pagecolor="#ffffff"
     bordercolor="#000000"
     borderopacity="0.25"
     inkscape:showpageshadow="2"
     inkscape:pageopacity="0.0"
     inkscape:pagecheckerboard="0"
     inkscape:deskcolor="#d1d1d1"
     inkscape:zoom="34.625"
     inkscape:cx="12"
     inkscape:cy="12"
     inkscape:window-width="1920"
     inkscape:window-height="1012"
     inkscape:window-x="0"
     inkscape:window-y="0"
     inkscape:window-maximized="1"
     inkscape:current-layer="svg1" />
  <defs
     id="defs1">
    <style
       id="current-color-scheme"
       type="text/css">
   .ColorScheme-Text { color:#dfdfdf; } .ColorScheme-Highlight { color:#4285f4; } .ColorScheme-NeutralText { color:#ff9800; } .ColorScheme-PositiveText { color:#4caf50; } .ColorScheme-NegativeText { color:#f44336; }
  </style>
  </defs>
  <path
     style="fill:currentColor"
     class="ColorScheme-Text"
     d="M 4,7.06 V 17 c 0,2 2,2 2,2 h 12 c 2,0 2,-2 2,-2 V 7 C 20,7 20,5 18,5 H 6 C 6,5 4,5 4,7.06 Z M 6,7 h 4 c 0.67,0.01 1.17,0.84 0.88,1.43 L 9.5,11.22 c 0.35,0.11 0.75,0.19 0.97,0.43 C 10.8,12.02 11,12.46 11,13 v 2 c 0,1.11 -0.91,2 -2,2 H 6 V 15 H 9 V 13 H 8 C 7.33,12.98 6.83,12.16 7.13,11.56 L 8.38,9 H 6 Z m 10,0 c 2,0 2,2 2,2 v 1 H 16 V 9 h -2 v 6 h 2 v -2 h -1 v -1.97 l 2,-0.03 1,0.03 v 3.94 c 0,0 0,2.03 -2,2.03 h -2 c 0,0 -2,0 -2,-2 V 9 c 0,-2 2,-2 2,-2 z"
     id="path1" />
</svg>
