<?xml version="1.0" encoding="UTF-8" standalone="no"?>
<!-- Created with Inkscape (http://www.inkscape.org/) -->

<svg
   width="24"
   height="24"
   viewBox="0 0 24 24"
   version="1.1"
   id="svg5"
   inkscape:version="1.4.3 (0d15f75042, 2025-12-25)"
   sodipodi:docname="printer-error.svg"
   xmlns:inkscape="http://www.inkscape.org/namespaces/inkscape"
   xmlns:sodipodi="http://sodipodi.sourceforge.net/DTD/sodipodi-0.dtd"
   xmlns="http://www.w3.org/2000/svg"
   xmlns:svg="http://www.w3.org/2000/svg">
  <sodipodi:namedview
     id="namedview7"
     pagecolor="#ffffff"
     bordercolor="#000000"
     borderopacity="0.25"
     inkscape:showpageshadow="2"
     inkscape:pageopacity="0.0"
     inkscape:pagecheckerboard="0"
     inkscape:deskcolor="#d1d1d1"
     inkscape:document-units="px"
     showgrid="false"
     showguides="true"
     inkscape:zoom="34.625"
     inkscape:cx="12"
     inkscape:cy="12"
     inkscape:window-width="1920"
     inkscape:window-height="1012"
     inkscape:window-x="0"
     inkscape:window-y="0"
     inkscape:window-maximized="1"
     inkscape:current-layer="svg5" />
  <defs
     id="defs2">
    <style
       id="current-color-scheme"
       type="text/css">
        .ColorScheme-Text { color:#dfdfdf; } .ColorScheme-Highlight { color:#4285f4; } .ColorScheme-NeutralText { color:#ff9800; } .ColorScheme-PositiveText { color:#4caf50; } .ColorScheme-NegativeText { color:#f44336; }
     </style>
  </defs>
  <path
     id="path635"
     style="fill:currentColor;stroke-width:4;stroke-linecap:square"
     class="ColorScheme-Text"
     d="M 7,5 V 9 C 5.3380085,9 4,10.338009 4,12 v 4 h 3 v 3 h 7 V 17 H 9 v -2 h 5 V 13 H 7 v 1 H 6 v -2 c 0,-0.553998 0.4460024,-1 1,-1 h 7 v -1 h 4 v 2 2 2 h 2 V 12 C 20,10.338009 18.66199,9 17,9 V 5 Z m 2,2 h 6 V 9 H 9 Z" />
  <path
     style="fill:currentColor"
     class="ColorScheme-NegativeText error"
     d="m 15,11 v 4.01 L 15.25,17 h 1.5 L 17,15 v -4 z m 0,7 v 2 h 2 v -2 z"
     id="path4" />
</svg>
