<?xml version="1.0" encoding="UTF-8" standalone="no"?>
<!-- Created with Inkscape (http://www.inkscape.org/) -->

<svg
   width="24"
   height="24"
   viewBox="0 0 24 24"
   version="1.1"
   id="svg5"
   inkscape:version="1.4.3 (0d15f75042, 2025-12-25)"
   sodipodi:docname="arch-uptodate-symbolic.svg"
   xmlns:inkscape="http://www.inkscape.org/namespaces/inkscape"
   xmlns:sodipodi="http://sodipodi.sourceforge.net/DTD/sodipodi-0.dtd"
   xmlns="http://www.w3.org/2000/svg"
   xmlns:svg="http://www.w3.org/2000/svg">
  <sodipodi:namedview
     id="namedview7"
     pagecolor="#ffffff"
     bordercolor="#000000"
     borderopacity="0.25"
     inkscape:showpageshadow="2"
     inkscape:pageopacity="0.0"
     inkscape:pagecheckerboard="0"
     inkscape:deskcolor="#d1d1d1"
     inkscape:document-units="px"
     showgrid="false"
     showguides="true"
     inkscape:zoom="33.625"
     inkscape:cx="11.98513"
     inkscape:cy="12"
     inkscape:window-width="1920"
     inkscape:window-height="1010"
     inkscape:window-x="0"
     inkscape:window-y="0"
     inkscape:window-maximized="1"
     inkscape:current-layer="svg5" />
  <defs
     id="defs2">
    <style
       id="current-color-scheme"
       type="text/css">
        .ColorScheme-Text { color:#dfdfdf; } .ColorScheme-Highlight { color:#4285f4; } .ColorScheme-NeutralText { color:#ff9800; } .ColorScheme-PositiveText { color:#4caf50; } .ColorScheme-NegativeText { color:#f44336; }
     </style>
  </defs>
  <path
     id="path346"
     style="fill:currentColor;fill-opacity:1"
     class="ColorScheme-Text"
     d="M 12,4 6,6 v 7 c 0,2.069994 1.5794573,3.489456 2.9394531,4.439453 C 10.299449,18.38945 12,19 12,19 12,19 13.700551,18.38945 15.060547,17.439453 16.420544,16.479456 18,15.039994 18,13 V 6 Z m 0,2 4,1.4414062 V 10 13 c 0,1.005931 -0.905831,1.966079 -2.089844,2.802734 C 13.136101,16.342347 12.491355,16.570234 12,16.773438 11.507644,16.56982 10.860477,16.341821 10.085938,15.800781 8.8968067,14.970139 8,14.052283 8,13 V 7.4414062 Z m 4,4 -1,-1 -3,3 -2,-2 -1,1 3,3 z" />
</svg>
