<?xml version="1.0" encoding="UTF-8" standalone="no"?>
<!-- Created with Inkscape (http://www.inkscape.org/) -->

<svg
   width="24"
   height="24"
   viewBox="0 0 24 24"
   version="1.1"
   id="svg5"
   inkscape:version="1.4.3 (0d15f75042, 2025-12-25)"
   sodipodi:docname="network-vpn-error-symbolic.svg"
   xmlns:inkscape="http://www.inkscape.org/namespaces/inkscape"
   xmlns:sodipodi="http://sodipodi.sourceforge.net/DTD/sodipodi-0.dtd"
   xmlns="http://www.w3.org/2000/svg"
   xmlns:svg="http://www.w3.org/2000/svg">
  <sodipodi:namedview
     id="namedview7"
     pagecolor="#ffffff"
     bordercolor="#000000"
     borderopacity="0.25"
     inkscape:showpageshadow="2"
     inkscape:pageopacity="0.0"
     inkscape:pagecheckerboard="0"
     inkscape:deskcolor="#d1d1d1"
     inkscape:document-units="px"
     showgrid="false"
     showguides="true"
     inkscape:zoom="34.625"
     inkscape:cx="12"
     inkscape:cy="12"
     inkscape:window-width="1920"
     inkscape:window-height="1012"
     inkscape:window-x="0"
     inkscape:window-y="0"
     inkscape:window-maximized="1"
     inkscape:current-layer="svg5" />
  <defs
     id="defs2">
    <style
       id="current-color-scheme"
       type="text/css">
        .ColorScheme-Text { color:#dfdfdf; } .ColorScheme-Highlight { color:#4285f4; } .ColorScheme-NeutralText { color:#ff9800; } .ColorScheme-PositiveText { color:#4caf50; } .ColorScheme-NegativeText { color:#f44336; }
     </style>
  </defs>
  <path
     id="path345"
     style="opacity:0.35;fill:currentColor"
     class="ColorScheme-Text"
     d="M 12,5 C 10.338002,5 9,6.3380017 9,8 v 2 H 7 v 6 h 8 V 14 H 9 v -2 h 6 V 10 8 C 15,6.3380017 13.661998,5 12,5 Z m 0,2 c 0.553999,0 1,0.4460006 1,1 v 2 H 11 V 8 C 11,7.4460006 11.446001,7 12,7 Z M 6,17 v 2 h 4 v 1 h 4 v -1 h 1 v -2 z" />
  <path
     style="fill:currentColor"
     class="ColorScheme-NegativeText error"
     d="M 16,9.9999998 V 14 l 0.25,2 h 1.5 L 18,14 V 9.9999998 Z M 16,17 v 2 h 2 v -2 z"
     id="path1554" />
</svg>
