<?xml version="1.0" encoding="UTF-8" standalone="no"?>
<!-- Created with Inkscape (http://www.inkscape.org/) -->

<svg
   width="16"
   height="16"
   viewBox="0 0 16 16"
   version="1.1"
   id="svg5"
   inkscape:version="1.3 (0e150ed6c4, 2023-07-21)"
   sodipodi:docname="applications-all.svg"
   xmlns:inkscape="http://www.inkscape.org/namespaces/inkscape"
   xmlns:sodipodi="http://sodipodi.sourceforge.net/DTD/sodipodi-0.dtd"
   xmlns="http://www.w3.org/2000/svg"
   xmlns:svg="http://www.w3.org/2000/svg">
  <sodipodi:namedview
     id="namedview7"
     pagecolor="#ffffff"
     bordercolor="#000000"
     borderopacity="0.25"
     inkscape:showpageshadow="2"
     inkscape:pageopacity="0.0"
     inkscape:pagecheckerboard="0"
     inkscape:deskcolor="#d1d1d1"
     inkscape:document-units="px"
     showgrid="false"
     inkscape:zoom="48.9375"
     inkscape:cx="7.9897829"
     inkscape:cy="8"
     inkscape:window-width="1920"
     inkscape:window-height="984"
     inkscape:window-x="0"
     inkscape:window-y="29"
     inkscape:window-maximized="1"
     inkscape:current-layer="svg5" />
  <defs
     id="defs2" />
  <rect
     style="fill:#0090ef;fill-opacity:1;stroke-width:1.14286;stroke-linecap:square"
     id="rect396"
     width="16"
     height="16"
     x="0"
     y="0"
     ry="4" />
  <path
     id="path1-3"
     style="opacity:0.2;fill:#000000"
     d="M 4.3007812,3.5 C 3.5805828,3.5 3,4.080583 3,4.8007812 V 6.1992188 C 3,6.919417 3.5805828,7.5 4.3007812,7.5 H 5.6992188 C 6.419417,7.5 7,6.919417 7,6.1992188 V 4.8007812 C 7,4.080583 6.419417,3.5 5.6992188,3.5 Z m 5.9999998,0 C 9.580583,3.5 9,4.080583 9,4.8007812 V 6.1992188 C 9,6.919417 9.580583,7.5 10.300781,7.5 h 1.398438 C 12.419417,7.5 13,6.919417 13,6.1992188 V 4.8007812 C 13,4.080583 12.419417,3.5 11.699219,3.5 Z m -5.9999998,6 C 3.5805828,9.5 3,10.080583 3,10.800781 v 1.398438 C 3,12.919417 3.5805828,13.5 4.3007812,13.5 H 5.6992188 C 6.419417,13.5 7,12.919417 7,12.199219 V 10.800781 C 7,10.080583 6.419417,9.5 5.6992188,9.5 Z m 5.9999998,0 C 9.580583,9.5 9,10.080583 9,10.800781 v 1.398438 C 9,12.919417 9.580583,13.5 10.300781,13.5 h 1.398438 C 12.419417,13.5 13,12.919417 13,12.199219 V 10.800781 C 13,10.080583 12.419417,9.5 11.699219,9.5 Z" />
  <path
     id="path1"
     style="fill:#ffffff"
     d="M 4.3007812 3 C 3.5805828 3 3 3.5805828 3 4.3007812 L 3 5.6992188 C 3 6.419417 3.5805828 7 4.3007812 7 L 5.6992188 7 C 6.419417 7 7 6.419417 7 5.6992188 L 7 4.3007812 C 7 3.5805828 6.419417 3 5.6992188 3 L 4.3007812 3 z M 10.300781 3 C 9.580583 3 9 3.5805828 9 4.3007812 L 9 5.6992188 C 9 6.419417 9.580583 7 10.300781 7 L 11.699219 7 C 12.419417 7 13 6.419417 13 5.6992188 L 13 4.3007812 C 13 3.5805828 12.419417 3 11.699219 3 L 10.300781 3 z M 4.3007812 9 C 3.5805828 9 3 9.580583 3 10.300781 L 3 11.699219 C 3 12.419417 3.5805828 13 4.3007812 13 L 5.6992188 13 C 6.419417 13 7 12.419417 7 11.699219 L 7 10.300781 C 7 9.580583 6.419417 9 5.6992188 9 L 4.3007812 9 z M 10.300781 9 C 9.580583 9 9 9.580583 9 10.300781 L 9 11.699219 C 9 12.419417 9.580583 13 10.300781 13 L 11.699219 13 C 12.419417 13 13 12.419417 13 11.699219 L 13 10.300781 C 13 9.580583 12.419417 9 11.699219 9 L 10.300781 9 z " />
  <path
     id="rect639"
     style="fill:#ffffff;stroke-linecap:square;opacity:0.2"
     d="M 4 0 C 1.7840022 0 0 1.7840022 0 4 L 0 5 C 0 2.7840022 1.7840022 1 4 1 L 12 1 C 14.215998 1 16 2.7840022 16 5 L 16 4 C 16 1.7840022 14.215998 0 12 0 L 4 0 z " />
</svg>
