<?xml version="1.0" encoding="UTF-8" standalone="no"?>
<!-- Created with Inkscape (http://www.inkscape.org/) -->

<svg
   width="16"
   height="16"
   viewBox="0 0 16 16"
   version="1.1"
   id="svg5"
   inkscape:version="1.3 (0e150ed6c4, 2023-07-21)"
   sodipodi:docname="BadlionClient.svg"
   xmlns:inkscape="http://www.inkscape.org/namespaces/inkscape"
   xmlns:sodipodi="http://sodipodi.sourceforge.net/DTD/sodipodi-0.dtd"
   xmlns="http://www.w3.org/2000/svg"
   xmlns:svg="http://www.w3.org/2000/svg">
  <sodipodi:namedview
     id="namedview7"
     pagecolor="#ffffff"
     bordercolor="#000000"
     borderopacity="0.25"
     inkscape:showpageshadow="2"
     inkscape:pageopacity="0.0"
     inkscape:pagecheckerboard="0"
     inkscape:deskcolor="#d1d1d1"
     inkscape:document-units="px"
     showgrid="false"
     inkscape:zoom="50.1875"
     inkscape:cx="8"
     inkscape:cy="8"
     inkscape:window-width="1850"
     inkscape:window-height="1011"
     inkscape:window-x="70"
     inkscape:window-y="32"
     inkscape:window-maximized="1"
     inkscape:current-layer="svg5" />
  <defs
     id="defs2" />
  <rect
     style="fill:#10a5f1;fill-opacity:1;stroke-width:1.14286;stroke-linecap:square"
     id="rect396"
     width="16"
     height="16"
     x="0"
     y="0"
     ry="4" />
  <path
     d="M 8.39562,14.5 C 8.286659,14.192418 8.145245,13.680324 8.079244,14.28469 c -0.05521,0.362176 -0.158919,-0.561527 -0.2518,-7.75e-4 -0.0571,0.09916 -0.03497,-0.708195 -0.212079,-0.254446 -0.04501,0.595618 -0.475634,0.219972 -0.601863,-0.03002 -0.118321,0.423076 -0.03018,-0.285584 -0.205907,0.09164 C 6.427494,14.730685 6.712815,13.15454 6.298926,13.843314 6.042152,14.244751 6.181261,13.663885 5.941175,13.689015 5.624643,13.951099 5.674982,13.289092 5.274912,13.433345 5.121162,13.207363 5.021419,12.692653 4.67868,12.881754 4.790078,12.471977 4.303506,12.147654 4.063174,11.952113 3.7905705,12.075882 3.6325189,12.052753 3.8043751,11.741688 3.9444935,11.436991 3.7096927,11.237156 3.6953977,10.926452 3.3037817,10.926584 3.828261,10.352234 3.3176559,10.466644 3.2661721,10.275478 3.7727648,9.950353 3.2460721,9.947659 3.044752,9.81786 3.7014173,9.517354 3.2018183,9.619493 3.497588,9.468565 2.7809403,9.214774 3.0703095,9.019574 3.5926497,8.890859 3.0030616,8.69309 3.1065637,8.668796 3.4198121,8.571932 2.874614,8.443905 3.2301384,8.385568 3.126392,8.129294 2.9145599,8.053577 3.1281533,7.747581 3.0762495,7.442352 2.8987448,7.080359 3.1617617,6.825262 3.0188274,6.584358 2.9226674,6.516354 3.2108892,6.3709142 3.2213392,5.9226645 3.4474846,5.4523085 3.45446,5.0249672 3.8400393,4.7522195 3.943434,4.1506315 4.459745,4.0658346 4.824911,3.7627017 5.450399,3.8025274 5.847389,3.5848244 6.002803,3.7320113 6.323986,3.4795752 6.419196,3.5013414 6.649592,3.8120151 7.206823,3.2582477 7.44285,3.7366027 c 0.23021,0.2417604 0.301321,-0.4344622 0.459523,-0.00874 0.188217,0.2922221 0.456133,-0.3777528 0.672878,0.00248 0.551641,-0.039209 1.107224,-0.089618 1.652112,-0.1762558 0.09404,0.3912596 0.605575,-0.3326822 0.492476,0.2103933 0.437388,0.1771145 1.003577,0.1472565 1.25973,0.6041721 0.207933,0.2666118 0.67357,0.5929034 0.507249,0.8599257 0.32757,0.073545 0.234216,0.2494225 0.198049,0.4387658 -0.07507,0.2941871 0.287717,0.5464128 0.102083,0.8245526 0.349521,0.2770319 -0.21498,0.5520239 0.168614,0.8420909 0.200167,0.183759 -0.354853,0.165901 -0.114918,0.480742 0.245168,0.294118 -0.107053,0.315211 -0.111785,0.590145 0.432094,0.0095 -0.289686,0.205056 0.179319,0.305468 -0.47469,3.03e-4 -0.03706,0.295402 0.0069,0.420053 -0.06818,0.244709 -0.324789,0.397408 -0.186323,0.507768 -0.542213,-0.17793 0.397958,0.3645937 -0.2048,0.3666097 -0.299005,0.04977 0.466278,0.569663 -0.09917,0.47991 -0.209684,0.105419 0.243667,0.466938 -0.186348,0.443566 -0.03875,0.244606 -0.08091,0.467586 -0.253032,0.605984 0.05592,0.263605 0.290773,0.780379 -0.209831,0.505927 -0.219434,-0.08274 -0.545819,0.271737 -0.564427,0.484861 0.07001,0.253686 0.106355,0.495728 -0.219788,0.270116 -0.385208,0.05685 -0.176084,0.731171 -0.690563,0.571215 -0.118448,0.286952 -0.22442,0.28965 -0.478275,0.227227 -0.01017,0.337386 -0.0614,0.705372 -0.347529,0.278629 -0.257922,-0.386418 -0.140291,0.606431 -0.397763,0.126229 -0.267066,-0.491001 -0.0051,0.610921 -0.236792,0.08465 -0.08156,0.237539 -0.236474,0.371467 -0.444801,0.416901 z"
     style="opacity:0.1;fill:#000000"
     id="path6" />
  <path
     style="fill:#2c2c2c"
     d="M 8.3956196,13.999999 C 8.2866591,13.692417 8.1452449,13.180323 8.0792436,13.784689 8.0240332,14.146865 7.9203249,13.223162 7.8274444,13.783914 7.7703485,13.883077 7.7924777,13.075719 7.6153647,13.529468 7.5703553,14.125086 7.1397308,13.74944 7.0135021,13.499453 6.8951812,13.922529 6.9833187,13.213869 6.8075953,13.591089 6.427494,14.230685 6.7128111,12.65454 6.2989256,13.343314 6.0421518,13.744751 6.1812605,13.163885 5.9411746,13.189015 5.6246429,13.451099 5.6749816,12.789092 5.2749115,12.933345 5.1211619,12.707363 5.0214189,12.192653 4.6786805,12.381754 4.790078,11.971977 4.3035061,11.647654 4.063174,11.452113 3.7905705,11.575881 3.6325189,11.552752 3.8043751,11.241687 3.9444935,10.93699 3.7096927,10.737155 3.6953977,10.426451 3.3037817,10.426583 3.828261,9.852233 3.3176559,9.9666426 3.2661721,9.7754774 3.7727648,9.4503523 3.2460721,9.4476582 3.044752,9.317859 3.7014173,9.0173526 3.2018183,9.1194917 3.497588,8.9685636 2.7809403,8.7147726 3.0703095,8.5195732 3.5926497,8.3908581 3.0030616,8.1930885 3.1065637,8.1687952 3.4198121,8.0719313 2.874614,7.943904 3.2301384,7.8855669 3.126392,7.6292932 2.9145599,7.5535757 3.1281533,7.2475804 3.0762495,6.9423505 2.8987448,6.5803582 3.1617617,6.3252611 3.0188274,6.0843566 2.9226674,6.0163531 3.2108892,5.8709132 3.2213392,5.4226635 3.4474846,4.9523075 3.45446,4.5249662 3.8400393,4.2522185 3.943434,3.6506305 4.459745,3.5658336 4.8249113,3.2627007 5.450399,3.3025264 5.8473892,3.0848234 6.0028034,3.2320103 6.3239864,2.9795742 6.4191956,3.0013404 6.6495915,3.3120141 7.2068225,2.7582467 7.4428501,3.2366017 7.6730597,3.4783621 7.744171,2.8021395 7.9023732,3.2278629 8.0905899,3.520085 8.3585058,2.8501101 8.5752509,3.2303464 9.1268923,3.1911376 9.6824746,3.1407283 10.227363,3.0540906 c 0.09404,0.3912596 0.605575,-0.3326822 0.492476,0.2103933 0.437388,0.1771145 1.003577,0.1472565 1.25973,0.6041721 0.207933,0.2666118 0.67357,0.5929034 0.507249,0.8599257 0.32757,0.073545 0.234216,0.2494225 0.198049,0.4387658 -0.07507,0.2941871 0.287717,0.5464128 0.102083,0.8245526 0.349521,0.277032 -0.21498,0.5520241 0.168614,0.8420911 0.200167,0.1837589 -0.354853,0.1659011 -0.114918,0.4807413 0.245168,0.2941181 -0.107053,0.3152113 -0.111785,0.5901451 0.432094,0.00949 -0.289686,0.2050562 0.179319,0.3054682 -0.47469,3.028e-4 -0.03706,0.2954024 0.0069,0.4200536 -0.06818,0.2447082 -0.324789,0.3974073 -0.186323,0.5077678 -0.542213,-0.1779298 0.397958,0.3645936 -0.2048,0.3666094 -0.299005,0.049772 0.466278,0.5696634 -0.09917,0.4799105 -0.209684,0.1054189 0.243667,0.4669379 -0.186348,0.4435659 -0.03875,0.244606 -0.08091,0.467586 -0.253032,0.605984 0.05592,0.263605 0.290773,0.780379 -0.209831,0.505927 -0.219434,-0.08274 -0.545819,0.271737 -0.564427,0.484861 0.07001,0.253686 0.106355,0.495728 -0.219788,0.270116 -0.385208,0.05685 -0.176084,0.731171 -0.690563,0.571215 -0.118448,0.286952 -0.22442,0.28965 -0.4782748,0.227227 -0.01017,0.337386 -0.061402,0.705372 -0.3475292,0.278629 -0.2579225,-0.386418 -0.1402908,0.606431 -0.397763,0.126229 -0.2670663,-0.491001 -0.00513,0.610921 -0.2367921,0.08465 -0.081561,0.237539 -0.2364743,0.371467 -0.444801,0.416901 z"
     id="path2" />
  <path
     d="m 7.8868153,5.5008339 c -0.034639,0.0055 -0.071173,0.039295 -0.1135411,0.126824 C 7.4563609,5.1643484 7.3394689,6.2765106 7.1707528,5.6845664 7.0184666,5.2814873 7.119856,6.216163 6.8763042,5.7886272 6.6258691,5.4057288 6.4454463,5.5858605 6.245019,5.8796804 5.8117177,6.0244988 5.3567409,6.2658645 5.1482176,6.744686 L 4.8757199,7.0804448 c -0.4796837,0.2491117 0.6300494,0.7901441 -0.1256514,0.760945 0.2792618,0.1262489 0.4088697,0.2379542 0.04693,0.3959188 -0.1628479,0.2700143 0.094004,0.5497886 -0.091589,0.8324869 0.1039842,0.2623363 0.6085871,0.3179502 0.1006723,0.4820942 -0.2332244,0.118238 0.4972493,0.01557 0.1612278,0.254461 C 4.3878665,10.26664 5.254859,10.451303 5.348049,10.9372 c 0.463586,0.402187 1.0179515,0.673752 1.5290122,1.002398 0.2277393,-0.280789 0.1615742,-0.05689 0.2906635,0.173162 0.1540041,-0.228397 0.1742477,-0.293009 0.2687131,0.05609 0.097144,0.441163 0.4929836,-0.325468 0.4950366,0.264216 0.010859,0.174904 0.056059,-0.04428 0.095374,-0.07887 0.093628,-0.151624 0.3364305,0.31289 0.358788,-0.124386 0.083942,-0.232375 0.2051833,-0.680282 0.2906632,-0.18048 0.188402,0.447743 0.039564,-0.514107 0.27931,-0.0041 0.3977889,-0.142819 0.8007326,-0.479829 1.1997444,-0.698345 0.178578,-0.119162 0.40405,-0.18959 0.460974,-0.433316 0.168768,-0.419886 0.90781,-0.674151 0.364088,-1.1186543 -0.269255,-0.255213 0.568524,-0.112717 0.07494,-0.2950603 -0.515549,-0.1489725 0.559205,-0.2947995 0.09311,-0.6235522 0.201417,-0.097899 0.19322,-0.2017056 -0.0159,-0.2731593 0.4976,-0.3625053 -0.654035,-0.5327018 0.0045,-0.7015978 0.265721,-0.1465323 -0.564963,-0.02081 -0.09083,-0.3406364 0.17111,-0.1281694 0.215678,-0.3630468 0.09689,-0.3073049 L 10.919858,6.9747467 c -0.0078,-0.036532 -0.0333,-0.072339 -0.08553,-0.1064994 C 10.499126,6.4627742 10.187999,6.0186072 9.6641,5.9219441 9.4061347,5.6972861 9.2431917,5.3446978 8.9616623,5.7804863 8.6760785,6.19209 8.8092221,5.1952636 8.6392071,5.7365854 8.5149207,6.2219896 8.4407307,5.4755519 8.2531696,5.5024488 8.0774382,5.7196018 7.9907245,5.4843268 7.8868124,5.5008388 Z"
     style="opacity:0.2;fill:#000000"
     id="path7" />
  <path
     style="fill:#ffae15"
     d="m 7.8868153,5.0008342 c -0.034639,0.0055 -0.071173,0.039295 -0.1135411,0.126824 C 7.4563609,4.6643487 7.3394689,5.7765109 7.1707528,5.1845667 7.0184666,4.7814876 7.119856,5.7161633 6.8763042,5.2886275 6.6258691,4.9057291 6.4454463,5.0858608 6.245019,5.3796807 5.8117177,5.5244991 5.3567409,5.7658648 5.1482176,6.2446863 L 4.8757199,6.5804451 C 4.3960362,6.8295568 5.5057693,7.3705892 4.7500685,7.3413901 5.0293303,7.467639 5.1589382,7.5793443 4.7969985,7.7373089 4.6341506,8.0073232 4.8910025,8.2870975 4.7054095,8.5697958 4.8093937,8.8321321 5.3139966,8.887746 4.8060818,9.0518901 4.5728574,9.1701276 5.3033311,9.0674591 4.9673096,9.3063511 4.3878665,9.76664 5.254859,9.9513025 5.348049,10.4372 c 0.463586,0.402187 1.0179515,0.673752 1.5290122,1.002398 0.2277393,-0.280789 0.1615742,-0.05689 0.2906635,0.173162 0.1540041,-0.228397 0.1742477,-0.293009 0.2687131,0.05609 0.097144,0.441163 0.4929836,-0.325468 0.4950366,0.264216 0.010859,0.174904 0.056059,-0.04428 0.095374,-0.07887 0.093628,-0.151624 0.3364305,0.31289 0.358788,-0.124386 0.083942,-0.232375 0.2051833,-0.680282 0.2906632,-0.18048 0.188402,0.447743 0.039564,-0.514107 0.27931,-0.0041 0.3977889,-0.142819 0.8007326,-0.479829 1.1997444,-0.698345 0.178578,-0.119162 0.40405,-0.18959 0.460974,-0.433316 0.168768,-0.4198862 0.90781,-0.674151 0.364088,-1.1186536 -0.269255,-0.2552137 0.568524,-0.1127173 0.07494,-0.2950607 -0.515549,-0.1489725 0.559205,-0.2947995 0.09311,-0.6235522 0.201417,-0.097899 0.19322,-0.2017056 -0.0159,-0.2731593 0.4976,-0.3625053 -0.654035,-0.5327018 0.0045,-0.7015978 0.265721,-0.1465323 -0.564963,-0.02081 -0.09083,-0.3406364 0.17111,-0.1281694 0.215678,-0.3630468 0.09689,-0.3073049 L 10.919858,6.474747 C 10.912058,6.438215 10.886558,6.402408 10.834328,6.3682476 10.499126,5.9627745 10.187999,5.5186075 9.6641,5.4219444 9.4061347,5.1972864 9.2431917,4.8446981 8.9616623,5.2804866 8.6760785,5.6920903 8.8092221,4.6952639 8.6392071,5.2365857 8.5149207,5.7219899 8.4407307,4.9755522 8.2531696,5.0024491 8.0774382,5.2196021 7.9907245,4.9843273 7.8868124,5.0008432 Z"
     id="path3" />
  <path
     id="path8"
     style="opacity:0.2;fill:#ffffff"
     d="M 7.8867188,5 C 7.8520788,5.0055 7.8158085,5.0394242 7.7734375,5.1269531 7.4565242,4.6636441 7.3386378,5.7755374 7.1699219,5.1835938 7.0176358,4.7805151 7.1205047,5.7165979 6.8769531,5.2890625 6.6265183,4.9061645 6.4445677,5.0850866 6.2441406,5.3789062 5.8108398,5.5237245 5.3569606,5.7653196 5.1484375,6.2441406 L 4.875,6.5800781 C 4.6436762,6.7002103 4.781864,6.8876557 4.9023438,7.046875 L 5.1484375,6.7441406 C 5.3569606,6.2653196 5.8108398,6.0237245 6.2441406,5.8789062 6.4445677,5.5850866 6.6265183,5.4061645 6.8769531,5.7890625 7.1205047,6.2165979 7.0176358,5.2805151 7.1699219,5.6835938 7.3386378,6.2755374 7.4565242,5.1636441 7.7734375,5.6269531 7.8158085,5.5394242 7.8520788,5.5055 7.8867188,5.5 7.9906306,5.483488 8.0781754,5.7191059 8.2539062,5.50195 8.4414671,5.475053 8.514385,6.2217287 8.6386719,5.736325 8.8086867,5.1950038 8.6753539,6.1928502 8.9609375,5.781247 9.2424662,5.3454589 9.4060978,5.697214 9.6640625,5.921872 c 0.5239005,0.096663 0.8347205,0.5417929 1.1699215,0.9472656 0.05223,0.03416 0.07814,0.068937 0.08594,0.1054688 l 0.08984,0.1132812 c 0.01234,-0.00915 0.02229,-0.017349 0.03711,-0.027344 0.17111,-0.1281693 0.214491,-0.3623825 0.0957,-0.3066407 L 10.919922,6.4746094 C 10.912122,6.4380774 10.886214,6.403301 10.833984,6.3691406 10.498783,5.9636679 10.187962,5.518538 9.6640625,5.421875 9.4060978,5.1972172 9.2424662,4.8454619 8.9609375,5.28125 8.6753538,5.6928533 8.8086867,4.6950069 8.6386719,5.2363281 8.514385,5.7217318 8.4414671,4.9750563 8.2539062,5.0019531 8.0781754,5.2191059 7.9906306,4.983488 7.8867188,5 Z M 4.75,7.3417969 c 0.010418,0.00471 0.019313,0.009 0.029297,0.013672 -0.0021,-0.0046 -0.00397,-0.00909 -0.00586,-0.013672 -0.0086,-1.879e-4 -0.014298,3.531e-4 -0.023437,0 z m 6.234375,0.265625 c -0.324508,0.2600991 0.403991,0.1561504 0.152344,0.2949219 -0.463797,0.1189511 -0.03166,0.238813 0.0918,0.4257812 0.111283,-0.082641 0.0792,-0.1648472 -0.0957,-0.2246094 0.306146,-0.2230289 -0.01167,-0.3741691 -0.148437,-0.4960937 z M 4.96875,7.6386719 C 4.933111,7.6698529 4.877247,7.7032039 4.796875,7.7382809 4.776141,7.7726589 4.762812,7.8071169 4.753906,7.8417966 5.0684222,7.8531056 5.0544134,7.7642346 4.96875,7.6386719 Z M 4.7539062,7.84375 c -0.036321,0.1444079 0.011213,0.2910767 0.019531,0.4394531 0.00676,-0.0156 0.014067,-0.029385 0.023437,-0.044922 C 5.1569905,8.0811128 5.0302513,7.9692183 4.7539062,7.84375 Z m 6.4941408,0.6328125 c -0.01742,0.039677 -0.05303,0.08164 -0.115235,0.1269531 0.0373,0.012746 0.06538,0.026428 0.08984,0.041016 0.0442,-0.049893 0.06292,-0.104604 0.02539,-0.1679687 z m -6.5039064,0.019531 c -0.010086,0.024935 -0.022659,0.049233 -0.039063,0.074219 0.013331,0.033632 0.033118,0.062343 0.056641,0.089844 C 4.75364,8.6051031 4.7473736,8.5506048 4.7441406,8.4960935 Z M 10.998047,9.3125 c -0.100323,0.069628 -0.147665,0.1284643 0.05664,0.1875 0.05401,0.019955 0.08796,0.033754 0.113281,0.046875 C 11.149578,9.473618 11.096158,9.3969296 10.998047,9.3125 Z M 4.9511719,9.32031 C 4.8368232,9.41495 4.7824923,9.4977394 4.7714844,9.5742163 c 0.00757,-0.00636 0.018645,-0.013114 0.035156,-0.021484 C 5.0896502,9.4612713 5.0524125,9.3989173 4.9511719,9.32031 Z M 4.7695312,9.6035156 C 4.7684312,9.6953616 4.8266472,9.7774011 4.90625,9.8613281 4.925445,9.8431671 4.942796,9.8257061 4.966797,9.8066411 5.2314135,9.6185142 4.8362099,9.6426951 4.7695312,9.6035156 Z m 6.4062498,0.00195 c -0.102366,0.024872 -0.36276,0.030738 -0.195312,0.1894531 0.03086,0.02523 0.05714,0.05015 0.08008,0.074219 0.06966,-0.085379 0.116883,-0.1715466 0.115234,-0.2636718 z" />
  <path
     style="fill:#2c2c2c"
     d="M 4.3008246,5.5484811 4,5.8299613 5.5290571,7.3676659 V 7.9885305 L 7.5,7.5767652 V 7.3708826 h 1 v 0.2058826 l 1.970943,0.4117653 V 7.3676659 L 12,5.8299613 11.699175,5.5484811 10.470943,6.7644941 V 6.3414695 L 8.5,6.7532348 V 7 h -1 V 6.7532348 L 5.5290571,6.3414695 v 0.4230246 z"
     id="path4" />
  <path
     style="fill:#2c2c2c"
     d="m 6.7124784,9 c 0,0 0.765433,0.4973534 1.157011,0.7452281 V 10.553527 C 7.7251338,10.817517 7.0908696,10.738683 6.9664564,11 c 0.3138229,-0.0278 0.6159233,-0.141525 0.921293,-0.217428 0.3419177,-0.0015 0.6812376,0.180616 1.030852,0.197511 0.1303445,-0.162296 -0.6718697,-0.230344 -0.9022032,-0.368465 0.00669,-0.287839 0.021579,-0.8639 0.021579,-0.8639 L 9.262219,9 Z M 6.6062392,9.6373443 A 0.10623919,0.10622407 0 0 0 6.5,9.7435684 0.10623919,0.10622407 0 0 0 6.6062392,9.8497925 0.10623919,0.10622407 0 0 0 6.7124784,9.7435684 0.10623919,0.10622407 0 0 0 6.6062392,9.6373443 Z m 0.4249567,0 A 0.10623919,0.10622407 0 0 0 6.9249568,9.7435684 0.10623919,0.10622407 0 0 0 7.0311959,9.8497925 0.10623919,0.10622407 0 0 0 7.1374352,9.7435684 0.10623919,0.10622407 0 0 0 7.0311959,9.6373443 Z m 0.4249568,0 A 0.10623919,0.10622407 0 0 0 7.3499136,9.7435684 0.10623919,0.10622407 0 0 0 7.4561527,9.8497925 0.10623919,0.10622407 0 0 0 7.562392,9.7435684 0.10623919,0.10622407 0 0 0 7.4561527,9.6373443 Z m 1.0623918,0 A 0.10623919,0.10622407 0 0 0 8.4123054,9.7435684 0.10623919,0.10622407 0 0 0 8.5185445,9.8497925 0.10623919,0.10622407 0 0 0 8.6247837,9.7435684 0.10623919,0.10622407 0 0 0 8.5185445,9.6373443 Z m 0.4249568,0 A 0.10623919,0.10622407 0 0 0 8.8372621,9.7435684 0.10623919,0.10622407 0 0 0 8.9435013,9.8497925 0.10623919,0.10622407 0 0 0 9.0497404,9.7435684 0.10623919,0.10622407 0 0 0 8.9435013,9.6373443 Z m 0.4249567,0 A 0.10623919,0.10622407 0 0 0 9.2622189,9.7435684 0.10623919,0.10622407 0 0 0 9.368458,9.8497925 0.10623919,0.10622407 0 0 0 9.4746972,9.7435684 0.10623919,0.10622407 0 0 0 9.368458,9.6373443 Z M 6.6062392,10.06224 A 0.10623919,0.10622407 0 0 0 6.5,10.168465 0.10623919,0.10622407 0 0 0 6.6062392,10.274689 0.10623919,0.10622407 0 0 0 6.7124784,10.168465 0.10623919,0.10622407 0 0 0 6.6062392,10.06224 Z m 0.4249567,0 A 0.10623919,0.10622407 0 0 0 6.9249568,10.168465 0.10623919,0.10622407 0 0 0 7.0311959,10.274689 0.10623919,0.10622407 0 0 0 7.1374352,10.168465 0.10623919,0.10622407 0 0 0 7.0311959,10.06224 Z m 0.4249568,0 A 0.10623919,0.10622407 0 0 0 7.3499136,10.168465 0.10623919,0.10622407 0 0 0 7.4561527,10.274689 0.10623919,0.10622407 0 0 0 7.562392,10.168465 0.10623919,0.10622407 0 0 0 7.4561527,10.06224 Z m 1.0623918,0 A 0.10623919,0.10622407 0 0 0 8.4123054,10.168465 0.10623919,0.10622407 0 0 0 8.5185445,10.274689 0.10623919,0.10622407 0 0 0 8.6247837,10.168465 0.10623919,0.10622407 0 0 0 8.5185445,10.06224 Z m 0.4249568,0 A 0.10623919,0.10622407 0 0 0 8.8372621,10.168465 0.10623919,0.10622407 0 0 0 8.9435013,10.274689 0.10623919,0.10622407 0 0 0 9.0497404,10.168465 0.10623919,0.10622407 0 0 0 8.9435013,10.06224 Z m 0.4249567,0 A 0.10623919,0.10622407 0 0 0 9.2622189,10.168465 0.10623919,0.10622407 0 0 0 9.368458,10.274689 0.10623919,0.10622407 0 0 0 9.4746972,10.168465 0.10623919,0.10622407 0 0 0 9.368458,10.06224 Z M 7.0311959,10.487136 A 0.10623919,0.10622407 0 0 0 6.9249568,10.59336 0.10623919,0.10622407 0 0 0 7.0311959,10.699585 0.10623919,0.10622407 0 0 0 7.1374352,10.59336 0.10623919,0.10622407 0 0 0 7.0311959,10.487136 Z m 1.9123054,0 A 0.10623919,0.10622407 0 0 0 8.8372621,10.59336 0.10623919,0.10622407 0 0 0 8.9435013,10.699585 0.10623919,0.10622407 0 0 0 9.0497404,10.59336 0.10623919,0.10622407 0 0 0 8.9435013,10.487136 Z"
     id="path5" />
  <path
     id="rect639"
     style="fill:#ffffff;stroke-linecap:square;opacity:0.2"
     d="M 4 0 C 1.7840022 0 0 1.7840022 0 4 L 0 5 C 0 2.7840022 1.7840022 1 4 1 L 12 1 C 14.215998 1 16 2.7840022 16 5 L 16 4 C 16 1.7840022 14.215998 0 12 0 L 4 0 z " />
</svg>
