<?xml version="1.0" encoding="UTF-8" standalone="no"?>
<!-- Created with Inkscape (http://www.inkscape.org/) -->

<svg
   width="16"
   height="16"
   viewBox="0 0 16 16"
   version="1.1"
   id="svg5"
   inkscape:version="1.2.2 (1:1.2.2+202305151914+b0a8486541)"
   sodipodi:docname="brave-browser.svg"
   xmlns:inkscape="http://www.inkscape.org/namespaces/inkscape"
   xmlns:sodipodi="http://sodipodi.sourceforge.net/DTD/sodipodi-0.dtd"
   xmlns="http://www.w3.org/2000/svg"
   xmlns:svg="http://www.w3.org/2000/svg">
  <sodipodi:namedview
     id="namedview7"
     pagecolor="#ffffff"
     bordercolor="#000000"
     borderopacity="0.25"
     inkscape:showpageshadow="2"
     inkscape:pageopacity="0.0"
     inkscape:pagecheckerboard="0"
     inkscape:deskcolor="#d1d1d1"
     inkscape:document-units="px"
     showgrid="false"
     inkscape:zoom="51.875"
     inkscape:cx="8"
     inkscape:cy="8"
     inkscape:window-width="1920"
     inkscape:window-height="1008"
     inkscape:window-x="0"
     inkscape:window-y="0"
     inkscape:window-maximized="1"
     inkscape:current-layer="svg5" />
  <defs
     id="defs2" />
  <rect
     style="fill:#efefef;fill-opacity:1;stroke-width:1.14286;stroke-linecap:square"
     id="rect396"
     width="16"
     height="16"
     x="0"
     y="0"
     ry="4" />
  <g
     id="g3635"
     transform="translate(-416,-140)">
    <path
       d="m 422.15538,143.5 -0.98199,1.18983 c -0.0131,0.004 -0.10911,-0.0714 -0.21376,-0.10026 -0.28044,-0.0777 -0.63593,-0.0637 -0.87782,0.0399 -0.15822,0.0678 -0.21942,0.11485 -0.5957,0.46346 C 419.0805,145.4686 419,145.51547 419,145.59525 c 0,0.0207 0.14701,0.26561 0.21918,0.42355 l 0.13021,0.28747 -0.16819,0.4348 c -0.0924,0.23922 -0.17228,0.44904 -0.17794,0.46549 -0.0143,0.0419 1.29857,4.56078 1.36718,4.71425 0.12456,0.27868 0.32034,0.52975 0.574,0.73457 0.22906,0.1849 2.55429,1.67982 2.78429,1.79034 0.0683,0.033 0.17738,0.0522 0.27127,0.0543 0.0939,-0.002 0.20293,-0.0213 0.27127,-0.0543 0.23,-0.11052 2.55431,-1.60544 2.7832,-1.79034 0.25389,-0.20482 0.44955,-0.45589 0.574,-0.73457 0.0689,-0.15347 1.38272,-4.67229 1.36827,-4.71425 -0.006,-0.0165 -0.0851,-0.22627 -0.17795,-0.46549 l -0.16818,-0.4348 0.1302,-0.28747 c 0.0722,-0.15794 0.21919,-0.40286 0.21919,-0.42355 0,-0.0797 -0.0794,-0.12665 -0.48502,-0.50232 -0.37668,-0.34861 -0.43847,-0.39568 -0.5968,-0.46346 -0.24167,-0.10361 -0.59726,-0.11757 -0.87781,-0.0399 -0.10445,0.029 -0.20099,0.10434 -0.21377,0.10026 L 425.84462,143.5 Z"
       style="opacity:0.2;fill:#000000;stroke-width:0.539453"
       id="path3498" />
    <path
       d="m 422.15538,143 -0.98199,1.18983 c -0.0131,0.004 -0.10911,-0.0714 -0.21376,-0.10026 -0.28044,-0.0777 -0.63593,-0.0637 -0.87782,0.0399 -0.15822,0.0678 -0.21942,0.11485 -0.5957,0.46346 C 419.0805,144.9686 419,145.01547 419,145.09525 c 0,0.0207 0.14701,0.26561 0.21918,0.42355 l 0.13021,0.28747 -0.16819,0.4348 c -0.0924,0.23922 -0.17228,0.44904 -0.17794,0.46549 -0.0143,0.0419 1.29857,4.56078 1.36718,4.71425 0.12456,0.27868 0.32034,0.52975 0.574,0.73457 0.22906,0.1849 2.55429,1.67982 2.78429,1.79034 0.0683,0.033 0.17738,0.0522 0.27127,0.0543 0.0939,-0.002 0.20293,-0.0213 0.27127,-0.0543 0.23,-0.11052 2.55431,-1.60544 2.7832,-1.79034 0.25389,-0.20482 0.44955,-0.45589 0.574,-0.73457 0.0689,-0.15347 1.38272,-4.67229 1.36827,-4.71425 -0.006,-0.0165 -0.0851,-0.22627 -0.17795,-0.46549 l -0.16818,-0.4348 0.1302,-0.28747 c 0.0722,-0.15794 0.21919,-0.40286 0.21919,-0.42355 0,-0.0797 -0.0794,-0.12665 -0.48502,-0.50232 -0.37668,-0.34861 -0.43847,-0.39568 -0.5968,-0.46346 -0.24167,-0.10361 -0.59726,-0.11757 -0.87781,-0.0399 -0.10445,0.029 -0.20099,0.10434 -0.21377,0.10026 L 425.84462,143 Z"
       style="fill:#ee5132;stroke-width:0.539453"
       id="path3470"
       sodipodi:nodetypes="cccsssccccsscccccccccsccsccc" />
    <path
       d="m 425.37904,151.81461 c 0.24628,-0.18317 0.28514,-0.22983 0.24457,-0.29458 -0.032,-0.0519 -0.82516,-0.4579 -1.2046,-0.61655 -0.39829,-0.16741 -0.44058,-0.16741 -0.82745,-0.002 -0.34687,0.14641 -1.12734,0.54831 -1.19282,0.61422 -0.0677,0.0677 -0.0336,0.13008 0.13686,0.25025 0.49309,0.2339 0.89311,0.73438 1.46397,0.73438 0.57202,0 0.90746,-0.43457 1.37947,-0.68538 z m -2.76744,-0.79039 c 0.47595,-0.23274 0.54738,-0.28115 0.91082,-0.61656 0.3063,-0.28174 0.36287,-0.36574 0.31944,-0.47248 -0.0149,-0.0362 -0.24458,-0.25724 -0.51087,-0.49056 -0.62939,-0.55239 -0.60305,-0.47482 -0.36344,-1.07387 0.14229,-0.35594 0.17886,-0.47505 0.17886,-0.57368 -10e-4,-0.14905 -0.0543,-0.26098 -0.16114,-0.33827 -0.0429,-0.0316 -0.42327,-0.19091 -0.84466,-0.35471 -0.42138,-0.16379 -0.76372,-0.30851 -0.76075,-0.32181 0.007,-0.0303 0.47144,-0.0829 0.80875,-0.0917 l 0.25516,-0.007 0.46892,0.17063 c 0.40973,0.14874 0.47373,0.17918 0.50459,0.23967 0.0194,0.0382 0.0348,0.0894 0.0343,0.11374 0,0.0245 -0.076,0.37811 -0.16857,0.78584 -0.16172,0.71404 -0.1663,0.7432 -0.12401,0.78695 0.0669,0.0688 0.72117,0.22982 0.92517,0.21349 0.23315,-0.0181 0.70973,-0.16683 0.7583,-0.21641 0.0389,-0.0402 0.0314,-0.0857 -0.12685,-0.7842 -0.0926,-0.40774 -0.16859,-0.76139 -0.16916,-0.78584 0,-0.0245 0.0154,-0.0758 0.0349,-0.11421 0.0309,-0.0603 0.0914,-0.0902 0.45601,-0.2227 0.58744,-0.21403 0.57544,-0.21228 1.10917,-0.16293 0.24915,0.0232 0.46287,0.0517 0.47544,0.0636 0.0126,0.0132 -0.002,0.031 -0.0366,0.0448 -0.0326,0.0132 -0.376,0.14699 -0.76344,0.2983 -0.38801,0.15143 -0.74574,0.30256 -0.79545,0.33604 -0.11658,0.0788 -0.17372,0.19109 -0.17429,0.34538 -5.7e-4,0.0976 0.036,0.21582 0.17486,0.56039 0.096,0.24008 0.17487,0.45941 0.17487,0.48683 0,0.11141 -0.0794,0.20123 -0.52174,0.58855 -0.25429,0.22282 -0.48001,0.43749 -0.50173,0.47774 -0.0211,0.0397 -0.0337,0.10091 -0.0274,0.13532 0.0114,0.0595 0.31601,0.36574 0.62574,0.62998 0.13029,0.11083 0.91888,0.62472 1.04517,0.64514 0.10571,0.0175 0.21885,-0.14641 0.40401,-0.30624 0.18171,-0.15691 0.28971,-0.31323 0.36286,-0.52615 0.0691,-0.19948 0.052,-0.33424 -0.0846,-0.65738 -0.104,-0.24675 -0.13142,-0.38266 -0.0966,-0.47482 0.008,-0.0222 0.28973,-0.29866 0.62573,-0.61655 0.73202,-0.69251 0.90688,-0.81652 0.94688,-0.94024 0.0446,-0.13738 0.0131,-0.31826 -0.0869,-0.50025 -0.23943,-0.4352 -1.23316,-1.79793 -1.31775,-1.79793 -0.43487,0.0722 -0.79829,0.2325 -1.25659,0.30612 -0.036,6e-5 -0.18916,-0.039 -0.34059,-0.0869 -0.64515,-0.20392 -0.8543,-0.21932 -0.97945,-0.21932 -0.12457,0 -0.33429,0.0154 -0.97945,0.21932 -0.15086,0.0478 -0.3059,0.0869 -0.3439,0.0869 -0.45138,-0.0679 -0.78601,-0.25083 -1.25328,-0.30624 -0.0729,0.0503 -0.71922,0.97337 -0.98682,1.37667 -0.3147,0.47429 -0.40367,0.5353 -0.42927,0.71583 -0.0358,0.25276 0.0552,0.29528 0.99545,1.18279 0.31623,0.29806 0.58144,0.55939 0.58933,0.58039 0.0352,0.0933 0.007,0.23448 -0.0952,0.48181 -0.14086,0.33889 -0.15349,0.4334 -0.0855,0.63814 0.0738,0.22283 0.1992,0.40248 0.38846,0.55822 0.17601,0.14467 0.24413,0.28933 0.34795,0.29166 0.0371,0.001 0.2463,-0.19483 0.46476,-0.30157 z"
       style="opacity:0.2;fill:#000000;stroke-width:0.577345"
       id="path3582"
       sodipodi:nodetypes="ccccccsccccccsccsccccsccccccccccccccccscccccscccscccccscccsscccccccc" />
    <path
       id="path3526"
       style="opacity:0.1;fill:#ffffff;stroke-width:0.539453"
       d="m 422.15625,143 -0.98242,1.18945 c -0.0131,0.004 -0.1102,-0.0708 -0.21485,-0.0996 -0.28044,-0.0777 -0.63506,-0.0645 -0.87695,0.0391 -0.15822,0.0678 -0.21942,0.11623 -0.5957,0.46484 -0.40561,0.37567 -0.48633,0.42217 -0.48633,0.50195 0,0.0159 0.0815,0.16165 0.1543,0.30078 0.0738,-0.0686 0.1617,-0.14497 0.33203,-0.30273 0.37628,-0.34861 0.43748,-0.39704 0.5957,-0.46484 0.24189,-0.1036 0.59651,-0.11677 0.87695,-0.0391 0.10465,0.0289 0.20175,0.10361 0.21485,0.0996 L 422.15625,143.5 h 3.6875 l 0.98242,1.18945 c 0.0128,0.004 0.1104,-0.0706 0.21485,-0.0996 0.28055,-0.0777 0.63528,-0.0645 0.87695,0.0391 0.15833,0.0678 0.22098,0.11623 0.59765,0.46484 0.16979,0.15725 0.25651,0.23417 0.33008,0.30273 0.0728,-0.13913 0.1543,-0.28492 0.1543,-0.30078 0,-0.0797 -0.0788,-0.12628 -0.48438,-0.50195 -0.37667,-0.34861 -0.43932,-0.39706 -0.59765,-0.46484 -0.24167,-0.10361 -0.5964,-0.11674 -0.87695,-0.0391 -0.10445,0.029 -0.20207,0.10369 -0.21485,0.0996 L 425.84375,143 Z m -2.91211,3.07617 -0.0625,0.16406 c -0.0924,0.23922 -0.17207,0.45035 -0.17773,0.4668 -0.002,0.006 0.0292,0.12763 0.0762,0.29883 0.0331,-0.0869 0.0489,-0.12943 0.10156,-0.26563 l 0.16797,-0.43359 z m 9.51172,0 -0.10547,0.23047 0.16797,0.43359 c 0.0529,0.1362 0.0686,0.17876 0.10156,0.26563 0.047,-0.1712 0.0783,-0.29267 0.0762,-0.29883 -0.006,-0.0165 -0.0849,-0.22758 -0.17773,-0.4668 z" />
    <path
       d="m 425.37904,151.31461 c 0.24628,-0.18317 0.28514,-0.22983 0.24457,-0.29458 -0.032,-0.0519 -0.82516,-0.4579 -1.2046,-0.61655 -0.39829,-0.16741 -0.44058,-0.16741 -0.82745,-0.002 -0.34687,0.14641 -1.12734,0.54831 -1.19282,0.61422 -0.0677,0.0677 -0.0336,0.13008 0.13686,0.25025 0.49309,0.2339 0.89311,0.73438 1.46397,0.73438 0.57202,0 0.90746,-0.43457 1.37947,-0.68538 z m -2.76744,-0.79039 c 0.47595,-0.23274 0.54738,-0.28115 0.91082,-0.61656 0.3063,-0.28174 0.36287,-0.36574 0.31944,-0.47248 -0.0149,-0.0362 -0.24458,-0.25724 -0.51087,-0.49056 -0.62939,-0.55239 -0.60305,-0.47482 -0.36344,-1.07387 0.14229,-0.35594 0.17886,-0.47505 0.17886,-0.57368 -10e-4,-0.14905 -0.0543,-0.26098 -0.16114,-0.33827 -0.0429,-0.0316 -0.42327,-0.19091 -0.84466,-0.35471 -0.42138,-0.16379 -0.76372,-0.30851 -0.76075,-0.32181 0.007,-0.0303 0.47144,-0.0829 0.80875,-0.0917 l 0.25516,-0.007 0.46892,0.17063 c 0.40973,0.14874 0.47373,0.17918 0.50459,0.23967 0.0194,0.0382 0.0348,0.0894 0.0343,0.11374 0,0.0245 -0.076,0.37811 -0.16857,0.78584 -0.16172,0.71404 -0.1663,0.7432 -0.12401,0.78695 0.0669,0.0688 0.72117,0.22982 0.92517,0.21349 0.23315,-0.0181 0.70973,-0.16683 0.7583,-0.21641 0.0389,-0.0402 0.0314,-0.0857 -0.12685,-0.7842 -0.0926,-0.40774 -0.16859,-0.76139 -0.16916,-0.78584 0,-0.0245 0.0154,-0.0758 0.0349,-0.11421 0.0309,-0.0603 0.0914,-0.0902 0.45601,-0.2227 0.58744,-0.21403 0.57544,-0.21228 1.10917,-0.16293 0.24915,0.0232 0.46287,0.0517 0.47544,0.0636 0.0126,0.0132 -0.002,0.031 -0.0366,0.0448 -0.0326,0.0132 -0.376,0.14699 -0.76344,0.2983 -0.38801,0.15143 -0.74574,0.30256 -0.79545,0.33604 -0.11658,0.0788 -0.17372,0.19109 -0.17429,0.34538 -5.7e-4,0.0976 0.036,0.21582 0.17486,0.56039 0.096,0.24008 0.17487,0.45941 0.17487,0.48683 0,0.11141 -0.0794,0.20123 -0.52174,0.58855 -0.25429,0.22282 -0.48001,0.43749 -0.50173,0.47774 -0.0211,0.0397 -0.0337,0.10091 -0.0274,0.13532 0.0114,0.0595 0.31601,0.36574 0.62574,0.62998 0.13029,0.11083 0.91888,0.62472 1.04517,0.64514 0.10571,0.0175 0.21885,-0.14641 0.40401,-0.30624 0.18171,-0.15691 0.28971,-0.31323 0.36286,-0.52615 0.0691,-0.19948 0.052,-0.33424 -0.0846,-0.65738 -0.104,-0.24675 -0.13142,-0.38266 -0.0966,-0.47482 0.008,-0.0222 0.28973,-0.29866 0.62573,-0.61655 0.73202,-0.69251 0.90688,-0.81652 0.94688,-0.94024 0.0446,-0.13738 0.0131,-0.31826 -0.0869,-0.50025 -0.23943,-0.4352 -1.23316,-1.79793 -1.31775,-1.79793 -0.43487,0.0722 -0.79829,0.2325 -1.25659,0.30612 -0.036,6e-5 -0.18916,-0.039 -0.34059,-0.0869 -0.64515,-0.20392 -0.8543,-0.21932 -0.97945,-0.21932 -0.12457,0 -0.33429,0.0154 -0.97945,0.21932 -0.15086,0.0478 -0.3059,0.0869 -0.3439,0.0869 -0.45138,-0.0679 -0.78601,-0.25083 -1.25328,-0.30624 -0.0729,0.0503 -0.71922,0.97337 -0.98682,1.37667 -0.3147,0.47429 -0.40367,0.5353 -0.42927,0.71583 -0.0358,0.25276 0.0552,0.29528 0.99545,1.18279 0.31623,0.29806 0.58144,0.55939 0.58933,0.58039 0.0352,0.0933 0.007,0.23448 -0.0952,0.48181 -0.14086,0.33889 -0.15349,0.4334 -0.0855,0.63814 0.0738,0.22283 0.1992,0.40248 0.38846,0.55822 0.17601,0.14467 0.24413,0.28933 0.34795,0.29166 0.0371,0.001 0.2463,-0.19483 0.46476,-0.30157 z"
       style="fill:#ffffff;stroke-width:0.577345"
       id="path3610" />
  </g>
  <path
     id="rect639"
     style="fill:#ffffff;stroke-linecap:square;opacity:0.2"
     d="M 4 0 C 1.7840022 0 0 1.7840022 0 4 L 0 5 C 0 2.7840022 1.7840022 1 4 1 L 12 1 C 14.215998 1 16 2.7840022 16 5 L 16 4 C 16 1.7840022 14.215998 0 12 0 L 4 0 z " />
</svg>
