<?xml version="1.0" encoding="UTF-8" standalone="no"?>
<!-- Created with Inkscape (http://www.inkscape.org/) -->

<svg
   width="16"
   height="16"
   viewBox="0 0 16 16"
   version="1.1"
   id="svg5"
   inkscape:version="1.3 (0e150ed6c4, 2023-07-21)"
   sodipodi:docname="com.rafaelmardojai.Blanket.svg"
   xmlns:inkscape="http://www.inkscape.org/namespaces/inkscape"
   xmlns:sodipodi="http://sodipodi.sourceforge.net/DTD/sodipodi-0.dtd"
   xmlns="http://www.w3.org/2000/svg"
   xmlns:svg="http://www.w3.org/2000/svg">
  <sodipodi:namedview
     id="namedview7"
     pagecolor="#ffffff"
     bordercolor="#000000"
     borderopacity="0.25"
     inkscape:showpageshadow="2"
     inkscape:pageopacity="0.0"
     inkscape:pagecheckerboard="0"
     inkscape:deskcolor="#d1d1d1"
     inkscape:document-units="px"
     showgrid="false"
     inkscape:zoom="48.9375"
     inkscape:cx="7.9897829"
     inkscape:cy="8"
     inkscape:window-width="1920"
     inkscape:window-height="984"
     inkscape:window-x="0"
     inkscape:window-y="29"
     inkscape:window-maximized="1"
     inkscape:current-layer="svg5" />
  <defs
     id="defs2" />
  <rect
     style="fill:#efefef;fill-opacity:1;stroke-width:1.14286;stroke-linecap:square"
     id="rect396"
     width="16"
     height="16"
     x="0"
     y="0"
     ry="4" />
  <rect
     style="fill:#99c1f1;fill-opacity:1;stroke-width:1.5;stroke-linecap:square;stroke-linejoin:round"
     id="rect688"
     width="3"
     height="3"
     x="5"
     y="5" />
  <rect
     style="fill:#b4d6ff;fill-opacity:1;stroke-width:1.5;stroke-linecap:square;stroke-linejoin:round"
     id="rect765"
     width="3"
     height="3"
     x="8"
     y="8" />
  <rect
     style="fill:#99c1f1;fill-opacity:1;stroke-width:1.5;stroke-linecap:square;stroke-linejoin:round"
     id="rect767"
     width="3"
     height="3"
     x="11"
     y="5" />
  <path
     id="rect876"
     style="fill:#3584e4;fill-opacity:1;stroke-width:1.5;stroke-linecap:square;stroke-linejoin:round"
     d="M 9.552735,2 V 4.9999998 H 14 V 3.5 C 13.97276,2.7122564 13.287744,2.0272402 12.5,2 Z"
     sodipodi:nodetypes="cccccc" />
  <path
     id="rect860"
     style="fill:#3584e4;fill-opacity:1;stroke-width:1.5;stroke-linecap:square;stroke-linejoin:round"
     d="M 3.5,2 C 4.330998,2 5,2.6690016 5,3.5 V 4.9999998 H 8 V 2 Z"
     sodipodi:nodetypes="cscccc" />
  <path
     id="rect773"
     style="fill:#b4d6ff;fill-opacity:1;stroke-width:1.5;stroke-linecap:square;stroke-linejoin:round"
     d="m 6.535156,2 a 1.5,1.5 0 0 1 1.447266,1.4472657 v 1.5527341 h 2.999999 V 3.4472657 A 1.5,1.5 0 0 0 9.535156,2 H 7.982422 Z" />
  <path
     id="rect892"
     style="fill:#1a5fb4;fill-opacity:1;stroke-width:1.5;stroke-linecap:square;stroke-linejoin:round"
     d="M 3.5,2 C 2.669001,2 2,2.6690008 2,3.5 V 13 H 2.5 V 12 H 3 v 1 H 3.5 V 12 H 4 v 1 H 4.5 V 12 H 5 V 3.5 C 5,2.6690008 4.330999,2 3.5,2 Z"
     sodipodi:nodetypes="ssccccccccccccss" />
  <path
     id="rect991"
     style="fill:#99c1f1;fill-opacity:1;stroke-width:1.5;stroke-linecap:square;stroke-linejoin:round"
     d="m 5,11 v 3 H 5.5 V 13 H 6 v 1 H 6.5 V 13 H 8 v -2 z"
     sodipodi:nodetypes="ccccccccccc" />
  <path
     id="rect996"
     style="fill:#1c71d8;fill-opacity:1;stroke-width:1.5;stroke-linecap:square;stroke-linejoin:round"
     d="m 8,11 v 3 H 8.5 V 13 H 9 v 1 H 9.5 V 13 H 11 v -2 z"
     sodipodi:nodetypes="ccccccccccc" />
  <path
     id="rect1001"
     style="fill:#99c1f1;fill-opacity:1;stroke-width:1.5;stroke-linecap:square;stroke-linejoin:round"
     d="m 11,11 v 3 h 0.5 V 13 H 12 v 1 h 0.5 V 13 H 14 v -2 z"
     sodipodi:nodetypes="ccccccccccc" />
  <rect
     style="fill:#3584e4;fill-opacity:1;stroke-width:1.5;stroke-linecap:square;stroke-linejoin:round"
     id="rect1008"
     width="3"
     height="3"
     x="5"
     y="8" />
  <rect
     style="fill:#1c71d8;fill-opacity:1;stroke-width:1.5;stroke-linecap:square;stroke-linejoin:round"
     id="rect1010"
     width="3"
     height="3"
     x="8"
     y="5" />
  <rect
     style="fill:#3584e4;fill-opacity:1;stroke-width:1.5;stroke-linecap:square;stroke-linejoin:round"
     id="rect1012"
     width="3"
     height="3"
     x="11"
     y="8" />
  <path
     id="rect1"
     style="opacity:0.2;fill:#000000"
     d="m 8,5 v 0.5 h 3 V 5 Z M 5,8 V 8.5 H 8 V 8 Z m 6,0 v 0.5 h 3 V 8 Z m -3,3 v 0.5 h 3 V 11 Z m -5.5,1 v 0.5 H 3 V 12 Z m 1,0 v 0.5 H 4 V 12 Z m 1,0 v 0.5 H 5 V 12 Z M 2,13 v 0.5 H 2.5 V 13 Z m 1,0 v 0.5 H 3.5 V 13 Z m 1,0 v 0.5 H 4.5 V 13 Z m 1.5,0 v 0.5 H 6 V 13 Z m 1,0 v 0.5 H 8 V 13 Z m 2,0 v 0.5 H 9 V 13 Z m 1,0 v 0.5 H 11 V 13 Z m 2,0 v 0.5 H 12 V 13 Z m 1,0 v 0.5 H 14 V 13 Z M 5,14 v 0.5 H 5.5 V 14 Z m 1,0 v 0.5 H 6.5 V 14 Z m 2,0 v 0.5 H 8.5 V 14 Z m 1,0 v 0.5 H 9.5 V 14 Z m 2,0 v 0.5 h 0.5 V 14 Z m 1,0 v 0.5 h 0.5 V 14 Z" />
  <path
     id="rect2"
     style="opacity:0.2;fill:#ffffff"
     d="M 3.5,2 C 3.9459461,2 4.3448525,2.1930323 4.6191406,2.5 H 12.5 C 13.287741,2.52724 13.97276,3.2122588 14,4 V 3.5 C 13.97276,2.7122588 13.287741,2.0272402 12.5,2 Z M 5,5 V 5.5 H 8 V 5 Z m 6,0 v 0.5 h 3 V 5 Z M 8,8 v 0.5 h 3 V 8 Z m -3,3 v 0.5 H 8 V 11 Z m 6,0 v 0.5 h 3 V 11 Z" />
  <path
     id="rect639"
     style="fill:#ffffff;stroke-linecap:square;opacity:0.2"
     d="M 4 0 C 1.7840022 0 0 1.7840022 0 4 L 0 5 C 0 2.7840022 1.7840022 1 4 1 L 12 1 C 14.215998 1 16 2.7840022 16 5 L 16 4 C 16 1.7840022 14.215998 0 12 0 L 4 0 z " />
</svg>
