<?xml version="1.0" encoding="UTF-8" standalone="no"?>
<!-- Created with Inkscape (http://www.inkscape.org/) -->

<svg
   width="16"
   height="16"
   viewBox="0 0 16 16"
   version="1.1"
   id="svg5"
   inkscape:version="1.3 (0e150ed6c4, 2023-07-21)"
   sodipodi:docname="com.github.maoschanz.drawing.svg"
   xmlns:inkscape="http://www.inkscape.org/namespaces/inkscape"
   xmlns:sodipodi="http://sodipodi.sourceforge.net/DTD/sodipodi-0.dtd"
   xmlns="http://www.w3.org/2000/svg"
   xmlns:svg="http://www.w3.org/2000/svg">
  <sodipodi:namedview
     id="namedview7"
     pagecolor="#ffffff"
     bordercolor="#000000"
     borderopacity="0.25"
     inkscape:showpageshadow="2"
     inkscape:pageopacity="0.0"
     inkscape:pagecheckerboard="0"
     inkscape:deskcolor="#d1d1d1"
     inkscape:document-units="px"
     showgrid="false"
     inkscape:zoom="48.9375"
     inkscape:cx="8"
     inkscape:cy="8"
     inkscape:window-width="1920"
     inkscape:window-height="984"
     inkscape:window-x="0"
     inkscape:window-y="29"
     inkscape:window-maximized="1"
     inkscape:current-layer="svg5" />
  <defs
     id="defs2" />
  <rect
     style="fill:#e4e4e4;fill-opacity:1;stroke-width:1.14286;stroke-linecap:square"
     id="rect396"
     width="16"
     height="15"
     x="0"
     y="1"
     ry="4" />
  <rect
     style="opacity:0.2;fill:#000000;fill-opacity:1"
     id="rect1"
     width="16"
     height="0.5"
     x="0"
     y="5" />
  <path
     id="rect391"
     style="fill:#565064;fill-opacity:1;stroke-width:2;stroke-linecap:square"
     d="M 4,0 C 1.7840022,0 0,1.7840022 0,4 V 5 H 16 V 4 C 16,1.7840022 14.215998,0 12,0 Z"
     sodipodi:nodetypes="ssccsss" />
  <path
     id="rect639"
     style="fill:#ffffff;stroke-linecap:square;opacity:0.1"
     d="M 4 0 C 1.7840022 0 0 1.7840022 0 4 L 0 5 C 0 2.7840022 1.7840022 1 4 1 L 12 1 C 14.215998 1 16 2.7840022 16 5 L 16 4 C 16 1.7840022 14.215998 0 12 0 L 4 0 z " />
  <path
     style="color:#000000;fill:#ff4e4a;stroke-linecap:round;-inkscape-stroke:none"
     d="M 2.4980389,5.9824221 A 0.36363637,0.36363637 0 0 0 2.0371014,6.2109377 0.36363637,0.36363637 0 0 0 2.265617,6.6718752 c 0.3603245,0.1222891 0.3857117,0.2165499 0.4082031,0.4199219 0.022491,0.203372 -0.054598,0.5337765 -0.1289062,0.890625 -0.074308,0.3568485 -0.1585626,0.7719121 0.058594,1.1699219 0.2171564,0.3980097 0.6974851,0.6161347 1.4160161,0.6621093 0.307854,0.019698 0.481274,0.1213506 0.61914,0.2675777 0.137866,0.146228 0.234202,0.355382 0.291016,0.580078 0.113627,0.449393 0.06445,0.914063 0.06445,0.914063 a 0.36363637,0.36363637 0 0 0 0.318359,0.402344 0.36363637,0.36363637 0 0 0 0.404297,-0.31836 c 0,0 0.07194,-0.568762 -0.08203,-1.177734 C 5.557769,10.177936 5.421868,9.8513374 5.167961,9.5820315 4.914054,9.3127255 4.535668,9.1179168 4.066398,9.0878908 3.462595,9.049257 3.300824,8.9121737 3.24218,8.8046877 3.183535,8.6972017 3.189887,8.4570182 3.257805,8.1308596 3.325722,7.804701 3.442236,7.4254898 3.396476,7.0117189 3.350716,6.5979481 3.044949,6.1680357 2.4980389,5.9824221 Z"
     id="path3" />
  <path
     id="path4-3"
     style="fill:#000000;opacity:0.1"
     d="m 14.212678,1.5009601 c -0.116143,-0.00815 -0.251687,0.034001 -0.386719,0.1875 l -8.0253904,8.017578 0.1992188,0.199219 -1,2.1972649 0.4003906,0.398438 2.1992188,-0.998047 0.1992187,0.199219 8.0410155,-8.0292969 C 16.233414,3.2795588 15.781037,2.8993976 15.781037,2.8993976 L 14.546662,1.6669757 c 0,0 -0.140413,-0.1524324 -0.333984,-0.1660156 z" />
  <path
     style="fill:#ff4e4a"
     d="M 7.799364,11.201208 5.799812,9.2042328 13.826617,1.1877703 c 0.360086,-0.40933172 0.72074,-0.021858 0.72074,-0.021858 l 1.233346,1.2317558 c 0,0 0.451964,0.3811024 0.05818,0.7743791 z"
     id="path4" />
  <rect
     style="fill:#3d3846"
     width="2.826"
     height="0.565"
     x="-13.439995"
     y="7.1899943"
     transform="matrix(-0.70756248,-0.70665079,0.70756248,-0.70665079,0,0)"
     id="rect4" />
  <rect
     style="fill:#3d3846"
     width="2.826"
     height="0.565"
     x="-13.439995"
     y="-0.72000575"
     transform="matrix(-0.70756248,-0.70665079,0.70756248,-0.70665079,0,0)"
     id="rect5" />
  <path
     style="fill:#c02924"
     d="M 7.59941,11.001512 5.999768,9.4039313 4.999992,11.600604 5.399902,12 Z"
     id="path5" />
  <path
     style="fill:#3d3846"
     d="M 8.999098,6.0091667 A 0.70649234,1.4129866 45.06156 0 0 10.498762,5.5099228 0.70649234,1.4129866 45.06156 0 0 10.99865,4.0121911 Z"
     id="path6" />
</svg>
