<?xml version="1.0" encoding="UTF-8" standalone="no"?>
<!-- Created with Inkscape (http://www.inkscape.org/) -->

<svg
   width="16"
   height="16"
   viewBox="0 0 16 16"
   version="1.1"
   id="svg5"
   inkscape:version="1.3.2 (091e20ef0f, 2023-11-25, custom)"
   sodipodi:docname="diodon.svg"
   xmlns:inkscape="http://www.inkscape.org/namespaces/inkscape"
   xmlns:sodipodi="http://sodipodi.sourceforge.net/DTD/sodipodi-0.dtd"
   xmlns="http://www.w3.org/2000/svg"
   xmlns:svg="http://www.w3.org/2000/svg">
  <sodipodi:namedview
     id="namedview7"
     pagecolor="#ffffff"
     bordercolor="#000000"
     borderopacity="0.25"
     inkscape:showpageshadow="2"
     inkscape:pageopacity="0.0"
     inkscape:pagecheckerboard="0"
     inkscape:deskcolor="#d1d1d1"
     inkscape:document-units="px"
     showgrid="false"
     inkscape:zoom="51.375"
     inkscape:cx="8"
     inkscape:cy="8"
     inkscape:window-width="1920"
     inkscape:window-height="1008"
     inkscape:window-x="0"
     inkscape:window-y="0"
     inkscape:window-maximized="1"
     inkscape:current-layer="svg5" />
  <defs
     id="defs2" />
  <rect
     style="fill:#b7b7b7;fill-opacity:1;stroke-width:1.14286;stroke-linecap:square"
     id="rect396"
     width="16"
     height="16"
     x="0"
     y="0"
     ry="4" />
  <rect
     style="opacity:0.2;fill:#000000;stroke-width:0.5"
     id="rect1"
     width="7"
     height="7"
     x="6"
     y="3.5002213"
     ry="0.5" />
  <rect
     style="opacity:0.2;fill:#000000;stroke-width:0.5"
     id="rect2"
     width="7"
     height="7"
     x="3"
     y="6.5002213"
     ry="0.5" />
  <rect
     style="fill:#d3d3d3;fill-opacity:1;stroke-width:0.5"
     id="rect3"
     width="7"
     height="7"
     x="6"
     y="3"
     ry="0.5" />
  <path
     id="path1"
     style="opacity:0.2;fill:#000000;stroke-width:1"
     d="m 7,4 v 1 h 5 V 4 Z m 0,2 v 1 h 5 V 6 Z m 0,2 v 1 h 3 V 8 Z" />
  <rect
     style="fill:#e4e4e4;fill-opacity:1;stroke-width:0.5"
     id="rect4"
     width="7"
     height="7"
     x="3"
     y="6"
     ry="0.5" />
  <path
     id="path4"
     style="opacity:0.5;fill:#000000;stroke-width:1"
     d="M 4,7 V 8 H 9 V 7 Z m 0,2 v 1 H 9 V 9 Z m 0,2 v 1 h 3 v -1 z" />
  <path
     id="rect5"
     style="opacity:0.1;fill:#ffffff;fill-opacity:1;stroke-width:0.5"
     d="M 6.5,3 C 6.2230005,3 6,3.2230003 6,3.5 V 4 C 6,3.7230003 6.2230005,3.5 6.5,3.5 h 6 C 12.777,3.5 13,3.7230003 13,4 V 3.5 C 13,3.2230003 12.777,3 12.5,3 Z" />
  <path
     id="rect6"
     style="opacity:0.1;fill:#ffffff;fill-opacity:1;stroke-width:0.5"
     d="M 3.5,6 C 3.2230003,6 3,6.2230005 3,6.5 V 7 C 3,6.7230005 3.2230003,6.5 3.5,6.5 h 6 C 9.777,6.5 10,6.7230005 10,7 V 6.5 C 10,6.2230005 9.777,6 9.5,6 Z" />
  <path
     id="rect639"
     style="fill:#ffffff;stroke-linecap:square;opacity:0.2"
     d="M 4 0 C 1.7840022 0 0 1.7840022 0 4 L 0 5 C 0 2.7840022 1.7840022 1 4 1 L 12 1 C 14.215998 1 16 2.7840022 16 5 L 16 4 C 16 1.7840022 14.215998 0 12 0 L 4 0 z " />
</svg>
