<?xml version="1.0" encoding="UTF-8" standalone="no"?>
<!-- Created with Inkscape (http://www.inkscape.org/) -->

<svg
   width="16"
   height="16"
   viewBox="0 0 16 16"
   version="1.1"
   id="svg5"
   inkscape:version="1.3.2 (091e20ef0f, 2023-11-25, custom)"
   sodipodi:docname="dragonplayer.svg"
   xmlns:inkscape="http://www.inkscape.org/namespaces/inkscape"
   xmlns:sodipodi="http://sodipodi.sourceforge.net/DTD/sodipodi-0.dtd"
   xmlns="http://www.w3.org/2000/svg"
   xmlns:svg="http://www.w3.org/2000/svg">
  <sodipodi:namedview
     id="namedview7"
     pagecolor="#ffffff"
     bordercolor="#000000"
     borderopacity="0.25"
     inkscape:showpageshadow="2"
     inkscape:pageopacity="0.0"
     inkscape:pagecheckerboard="0"
     inkscape:deskcolor="#d1d1d1"
     inkscape:document-units="px"
     showgrid="false"
     inkscape:zoom="52.4375"
     inkscape:cx="7.9904648"
     inkscape:cy="8"
     inkscape:window-width="1878"
     inkscape:window-height="1052"
     inkscape:window-x="0"
     inkscape:window-y="0"
     inkscape:window-maximized="1"
     inkscape:current-layer="svg5" />
  <defs
     id="defs2" />
  <rect
     style="fill:#413d58;fill-opacity:1;stroke-width:1.14286;stroke-linecap:square"
     id="rect396"
     width="16"
     height="16"
     x="0"
     y="0"
     ry="4" />
  <path
     style="fill:#00d6cc"
     d="m 9,5.1999715 c 0,0 0,2.4 -1.2,3.2 -1.2,0.8 -3.6,1.1999995 -5.2,2.0000005 -1.6,0.8 -2,2 -2,2 0,0 1.6,-1.221793 2.4,-1.221793 0.8,0 2,-0.378207 2,-0.378207 0,0 0.9640304,-0.256122 2.1640304,-0.256122 C 8.3640304,10.543849 9.4,10.399972 9.4,10.399972 L 9.8,7.1999715 Z"
     id="path1" />
  <path
     style="fill:#000000;opacity:0.2"
     d="m 9.4004,6.9 c 0,0 0.0752,1.4 -1.1252,2.2 -1.2,0.8 -4.2884,1.2956 -5.8,2.1252 C 1.3688,11.832 0.6,12.900401 0.6,12.900401 c 0,0 1.6,-0.800001 2.4,-0.800001 0.8,0 2,0.4 2,0.4 0,0 0.8,-1 2,-1 1.2,0 3.2,1 3.2,1 l -0.4,-4.8 z"
     id="path2-3" />
  <path
     style="fill:#365d78"
     d="m 9.4004,6.3995715 c 0,0 0.0752,1.4 -1.1252,2.2 -1.2,0.8 -4.2884,1.2956005 -5.8,2.1251995 -1.1064,0.6068 -1.8752,1.675201 -1.8752,1.675201 0,0 1.6,-0.800001 2.4,-0.800001 0.8,0 2,0.4 2,0.4 0,0 0.8,-1 2,-1 1.2,0 3.2,1 3.2,1 L 9.8,7.1999715 Z"
     id="path2" />
  <path
     id="path3-6"
     style="fill:#000000;opacity:0.2"
     d="M 7.90625 2.9003906 C 7.8847587 2.8995335 7.8615142 2.9028191 7.8339844 2.9082031 C 7.6238442 2.9533521 7.0541202 3.7720778 6.7148438 4.0976562 C 6.3270981 4.4697463 6.2954867 4.2988148 5.8457031 4.546875 C 5.3959188 4.7949348 5.1198274 5.2035966 4.9492188 5.5136719 C 4.7786105 5.8237464 4.3469083 5.9345169 3.8984375 6.3828125 C 3.4499667 6.8311077 3 7.0884579 3 7.9101562 C 3.018652 7.9256562 2.9408359 8.031492 3.1269531 8.0625 C 3.3130709 8.093508 3.410963 8.0240599 3.5195312 7.8535156 C 3.6281003 7.682975 4.7003804 7.1812901 5.3828125 6.8867188 C 6.0652442 6.5921474 6.4995441 6.4391022 6.7011719 6.1445312 C 6.9027993 5.8499599 6.9697913 5.6784745 7.3730469 5.5234375 C 7.7763021 5.3684001 8.5785953 5.7510489 9.1679688 6.6347656 C 9.7573414 7.5184783 10.01551 8.2149949 10 9.9824219 C 9.984492 11.749848 9.209545 12.698669 8.4960938 13.876953 C 8.1728911 14.410732 7.0309565 15.288208 5.9902344 16 L 10.251953 16 C 10.267687 15.970805 10.290477 15.932376 10.302734 15.908203 C 10.480419 15.557772 11.844904 11.82313 12.179688 9.4355469 C 12.239017 9.0124129 12.89609 8.9119947 12.703125 8.40625 C 12.556671 8.0224048 11.557422 7.1711036 11.535156 7.125 C 11.445466 6.9392802 11.977972 6.7516958 11.792969 6.4667969 C 11.530099 6.0619825 10.740098 5.5870897 10.630859 5.4960938 C 10.444742 5.3410567 10.72013 5.223154 10.90625 5.0371094 C 10.679086 4.577291 10.263361 4.3682463 9.6601562 4.2910156 C 9.3499606 4.2910156 9.5793922 3.9047946 9.75 3.71875 C 9.4421125 3.4023843 8.6655821 3.5039059 8.140625 3.609375 C 7.911129 3.5851988 8.22862 2.9132472 7.90625 2.9003906 z " />
  <path
     style="fill:#167ddd"
     d="m 7.8330938,2.4077839 c -0.2101404,0.045149 -0.7789734,0.8650464 -1.1182502,1.1906252 -0.387746,0.3720904 -0.418966,0.2003772 -0.86875,0.4484376 -0.4497848,0.24806 -0.726266,0.6563304 -0.8968748,0.966406 -0.1706084,0.3100748 -0.60231,0.420454 -1.0507812,0.86875 -0.4484712,0.4482956 -0.8976564,0.7056448 -0.8976564,1.527344 0.018652,0.0155 -0.059555,0.122898 0.1265624,0.153906 0.186118,0.031008 0.2836192,-0.039612 0.3921876,-0.2101564 C 3.6281004,7.1825555 4.7011608,6.6812619 5.3835936,6.3866903 6.066026,6.0921187 6.4991532,5.9382927 6.7007812,5.6437215 6.9024088,5.3491499 6.9701816,5.1780087 7.3734376,5.0229715 7.7766932,4.8679339 8.5785948,5.2506291 9.1679688,6.1343467 9.757342,7.0180603 10.01551,7.7145743 10,9.482003 9.984492,11.249431 9.2087644,12.198248 8.4953124,13.376533 8.090736,14.044703 6.4020796,15.256254 5.2367188,15.999971 h 4.7367188 c 0.1167794,-0.207633 0.2573844,-0.448809 0.3296874,-0.591405 0.177685,-0.350431 1.54256,-4.085071 1.877344,-6.4726569 0.05933,-0.4231344 0.71484,-0.5247236 0.521875,-1.0304688 -0.146454,-0.3838456 -1.14414,-1.2351464 -1.166406,-1.28125 -0.08969,-0.18572 0.442034,-0.3729132 0.257031,-0.6578124 -0.26287,-0.4048148 -1.053261,-0.8785352 -1.1625,-0.9695312 -0.186118,-0.1550372 0.08888,-0.2733304 0.275,-0.4593752 -0.227164,-0.4598188 -0.641326,-0.6688628 -1.2445314,-0.7460936 -0.310196,0 -0.082327,-0.3870648 0.088281,-0.5731096 C 9.4413308,2.9019023 8.6658638,3.0042055 8.1409062,3.1096747 7.8961102,3.0838867 8.2735722,2.3216395 7.8330938,2.4077839 Z"
     id="path3" />
  <path
     id="path3-9"
     style="fill:#ffffff;opacity:0.2"
     d="M 7.90625 2.4003906 C 7.8847587 2.3995335 7.8615142 2.4028191 7.8339844 2.4082031 C 7.6238442 2.4533521 7.0541202 3.2720778 6.7148438 3.5976562 C 6.3270981 3.9697463 6.2954867 3.7988148 5.8457031 4.046875 C 5.3959188 4.2949348 5.1198274 4.7035966 4.9492188 5.0136719 C 4.7786105 5.3237464 4.3469083 5.4345169 3.8984375 5.8828125 C 3.4499667 6.3311077 3 6.5884579 3 7.4101562 C 3.014463 7.4221752 2.9726806 7.4871817 3.0390625 7.53125 C 3.1563718 6.9942468 3.5274707 6.753634 3.8984375 6.3828125 C 4.3469083 5.9345169 4.7786105 5.8237464 4.9492188 5.5136719 C 5.1198274 5.2035966 5.3959188 4.7949348 5.8457031 4.546875 C 6.2954867 4.2988148 6.3270981 4.4697463 6.7148438 4.0976562 C 7.0541202 3.7720778 7.6238442 2.9533521 7.8339844 2.9082031 C 8.2744623 2.8220588 7.8958292 3.583587 8.140625 3.609375 C 8.5643636 3.5242417 9.1509201 3.4425631 9.5234375 3.5800781 C 9.5614508 3.4587812 9.6631702 3.3134351 9.75 3.21875 C 9.4421143 2.9023843 8.6655821 3.0039059 8.140625 3.109375 C 7.911129 3.0851988 8.22862 2.4132472 7.90625 2.4003906 z M 9.6855469 3.7949219 C 9.5311929 3.9936484 9.3876939 4.2910156 9.6601562 4.2910156 C 10.106016 4.3481008 10.44738 4.4793593 10.6875 4.7285156 C 10.754276 4.6707479 10.834213 4.6091173 10.90625 4.5371094 C 10.682379 4.0839553 10.27461 3.8748233 9.6855469 3.7949219 z M 10.808594 5.1210938 C 10.64095 5.2604519 10.475225 5.3664499 10.630859 5.4960938 C 10.728864 5.5777318 11.37165 5.9682301 11.693359 6.3398438 C 11.794994 6.2321551 11.88784 6.1128965 11.792969 5.9667969 C 11.591817 5.6570272 11.085954 5.309196 10.808594 5.1210938 z M 11.724609 6.8046875 C 11.62117 6.9215777 11.48653 7.0243112 11.535156 7.125 C 11.555801 7.1677475 12.414524 7.9017006 12.65625 8.3144531 C 12.732841 8.2061531 12.76991 8.0812874 12.703125 7.90625 C 12.594987 7.6228269 12.025588 7.0854997 11.724609 6.8046875 z M 9.9960938 9.6113281 C 9.9444199 11.295318 9.1917125 12.22812 8.4960938 13.376953 C 8.0915178 14.045122 6.4016878 15.256284 5.2363281 16 L 5.9902344 16 C 7.0309565 15.288208 8.1728911 14.410732 8.4960938 13.876953 C 9.2095448 12.698669 9.98449 11.749848 10 9.9824219 C 10.001169 9.8491672 9.9980604 9.7329471 9.9960938 9.6113281 z " />
  <path
     style="fill:#000000;opacity:0.1"
     d="m 13.8004,4.9 c -0.4,0 -0.4,1.2 -1.6,2.4 -1.2,1.2 -1.6,1.2 -1.6,1.2 0,0 1.2,0.8 1.2,2.4 1.2,0.800001 1.2,2.4 1.2,2.4 l 1.6,-4.4 -0.4,-3.2 z"
     id="path4-2" />
  <path
     style="fill:#365d78"
     d="m 13.8004,4.3995715 c -0.4,0 -0.4,1.2 -1.6,2.4 -1.2,1.2 -1.6,1.2 -1.6,1.2 0,0 1.2,0.8 1.2,2.3999995 1.2,0.800001 1.2,2.4 1.2,2.4 l 1.6,-4.3999995 -0.4,-3.2 z"
     id="path4" />
  <path
     style="fill:#ffffff"
     d="M 5.4,4.7750743 C 5.434868,4.6378315 5.5714556,4.5108271 5.791408,4.4393651 c 0.2199528,-0.071462 0.3834972,-0.039932 0.4061136,0.048256 0.023668,0.092292 -0.1244184,0.2234032 -0.3492104,0.2824244 -0.2231884,0.058602 -0.3941748,0.014768 -0.4483108,0.00503 z"
     id="path5" />
  <path
     style="fill:#2e3436"
     d="m 5.74218,4.4573511 c -0.02062,0.00858 -0.035804,0.023448 -0.054944,0.033764 -0.00698,0.040374 -0.00805,0.090422 0.013256,0.1577068 0.01686,0.053203 0.03536,0.106924 0.058365,0.1378844 0.033328,-0.00695 0.058358,-0.00631 0.094068,-0.015688 C 5.856945,4.7306843 5.847305,4.6764553 5.827909,4.6152719 5.805429,4.5443339 5.772341,4.4843835 5.742179,4.4573471 Z"
     id="path6" />
  <path
     style="fill:#000000;opacity:0.2"
     d="m 13.8,4.9 c 0.4,0 1.52,2.4 1.12,6.000001 C 14.52,14.499999 12.6,15.3 12.6,15.3 c 0,0 -2.8,-0.4 -3.6,-0.4 -0.8,0 -1.2,0.4 -1.2,0.4 0,0 -1.2,-0.800001 -2.8,-0.800001 -1.6,0 -3.6,1.6 -3.6,1.6 0,0 0.4,-1.6 2.8,-2.399999 2.4,-0.8 6.3196,-0.0636 7.6,-1.6 4,-4.8 1.6,-7.2 2,-7.2"
     id="path7-9" />
  <path
     style="fill:#00d6cc"
     d="m 13.8,4.3999715 c 0.4,0 1.52,2.4 1.12,6.0000005 -0.4,3.599999 -2.32,4.4 -2.32,4.4 0,0 -2.8,-0.4 -3.6,-0.4 -0.8,0 -1.2,0.4 -1.2,0.4 0,0 -1.2,-0.800001 -2.8,-0.800001 -1.6,0 -3.6,1.6 -3.6,1.6 0,0 0.4,-1.6 2.8,-2.4 2.4,-0.8 6.3196,-0.0636 7.6,-1.6 4,-4.7999995 1.6,-7.1999995 2,-7.1999995"
     id="path7" />
  <path
     id="path7-7"
     style="fill:#ffffff;opacity:0.2"
     d="M 13.800781 4.4003906 C 13.690215 4.4003906 13.793012 4.5902871 13.916016 4.9570312 C 14.293098 5.2529623 14.963487 6.8246465 15.001953 9.1796875 C 15.065786 6.269222 14.153566 4.4003906 13.800781 4.4003906 z M 14.146484 6.6386719 C 14.085605 7.8227799 13.570629 9.4757922 11.800781 11.599609 C 10.520383 13.136008 6.5992164 12.39922 4.1992188 13.199219 C 1.7992212 13.999217 1.4003906 15.599609 1.4003906 15.599609 C 1.4003906 15.599609 1.5730888 15.465497 1.8398438 15.28125 C 2.227503 14.76615 2.9324102 14.121488 4.1992188 13.699219 C 6.5992164 12.89922 10.520383 13.636008 11.800781 12.099609 C 13.83567 9.6577426 14.212975 7.8383055 14.146484 6.6386719 z " />
  <path
     id="rect639"
     style="fill:#ffffff;stroke-linecap:square;opacity:0.1"
     d="M 4 0 C 1.7840022 0 0 1.7840022 0 4 L 0 5 C 0 2.7840022 1.7840022 1 4 1 L 12 1 C 14.215998 1 16 2.7840022 16 5 L 16 4 C 16 1.7840022 14.215998 0 12 0 L 4 0 z " />
</svg>
