<?xml version="1.0" encoding="UTF-8" standalone="no"?>
<!-- Created with Inkscape (http://www.inkscape.org/) -->

<svg
   width="16"
   height="16"
   viewBox="0 0 16 16"
   version="1.1"
   id="svg5"
   inkscape:version="1.3 (1:1.3+202307231459+0e150ed6c4)"
   sodipodi:docname="evince.svg"
   xmlns:inkscape="http://www.inkscape.org/namespaces/inkscape"
   xmlns:sodipodi="http://sodipodi.sourceforge.net/DTD/sodipodi-0.dtd"
   xmlns="http://www.w3.org/2000/svg"
   xmlns:svg="http://www.w3.org/2000/svg">
  <sodipodi:namedview
     id="namedview7"
     pagecolor="#ffffff"
     bordercolor="#000000"
     borderopacity="0.25"
     inkscape:showpageshadow="2"
     inkscape:pageopacity="0.0"
     inkscape:pagecheckerboard="0"
     inkscape:deskcolor="#d1d1d1"
     inkscape:document-units="px"
     showgrid="false"
     inkscape:zoom="44.875"
     inkscape:cx="8"
     inkscape:cy="7.9888579"
     inkscape:window-width="1920"
     inkscape:window-height="1008"
     inkscape:window-x="0"
     inkscape:window-y="0"
     inkscape:window-maximized="1"
     inkscape:current-layer="svg5" />
  <defs
     id="defs2" />
  <rect
     style="fill:#ff4d39;fill-opacity:1;stroke-width:1.14286;stroke-linecap:square"
     id="rect396"
     width="16"
     height="16"
     x="0"
     y="0"
     ry="4" />
  <path
     style="opacity:0.2;fill:#000000;stroke-width:2"
     d="M 0.26067804,13.103173 C 3.242468,12.243089 6.371482,11.184271 8.660932,9.069535 9.587928,8.192317 10.279826,6.558627 9.822756,5.278823 9.35195,3.964975 7.5246,3.433761 6.240064,3.697813 4.348822,4.024643 2.427316,5.750639 2.152614,7.718931 c -0.27289,1.74164 1.0088,3.017246 2.507254,3.809678 2.002034,1.06426 4.400096,1.152274 6.587452,0.713498 1.487082,-0.313744 3.512966,-0.921768 4.75868,-1.793932 L 15.994,7.854173 c -2.145422,2.358546 -5.991936,3.7554 -9.189106,3.486654 C 5.225528,11.208547 3.434394,10.672717 2.98636,9.067607 2.556446,7.579197 3.60196,5.718809 4.928364,5.033135 5.880568,4.515351 7.43675,4.190293 8.385552,4.886855 9.275666,5.560779 9.161866,7.177151 8.559752,8.005641 7.578068,9.348967 5.88888,9.894491 4.55326,10.851543 3.205516,11.747963 1.764464,12.504409 0.26068804,13.103175 Z"
     id="path3" />
  <path
     style="fill:#ffffff;stroke-width:2"
     d="M 0.26067804,12.6035 C 3.242468,11.743416 6.371482,10.684598 8.660932,8.569862 9.587928,7.692644 10.279826,6.058954 9.822756,4.77915 9.35195,3.465302 7.5246,2.934088 6.240064,3.19814 4.348822,3.52497 2.427316,5.250966 2.152614,7.219258 c -0.27289,1.74164 1.0088,3.017246 2.507254,3.809678 2.002034,1.06426 4.400096,1.152274 6.587452,0.713498 1.487082,-0.313744 3.512966,-0.921768 4.75868,-1.793932 L 15.994,7.3545 C 13.848578,9.713046 10.002064,11.1099 6.804894,10.841154 5.225528,10.708874 3.434394,10.173044 2.98636,8.567934 2.556446,7.079524 3.60196,5.219136 4.928364,4.533462 5.880568,4.015678 7.43675,3.69062 8.385552,4.387182 9.275666,5.061106 9.161866,6.677478 8.559752,7.505968 7.578068,8.849294 5.88888,9.394818 4.55326,10.35187 3.205516,11.24829 1.764464,12.004736 0.26068804,12.603502 Z"
     id="path4" />
  <path
     id="rect639"
     style="fill:#ffffff;stroke-linecap:square;opacity:0.2"
     d="M 4 0 C 1.7840022 0 0 1.7840022 0 4 L 0 5 C 0 2.7840022 1.7840022 1 4 1 L 12 1 C 14.215998 1 16 2.7840022 16 5 L 16 4 C 16 1.7840022 14.215998 0 12 0 L 4 0 z " />
</svg>
