<?xml version="1.0" encoding="UTF-8" standalone="no"?>
<!-- Created with Inkscape (http://www.inkscape.org/) -->

<svg
   width="16"
   height="16"
   viewBox="0 0 16 16"
   version="1.1"
   id="svg5"
   inkscape:version="1.3 (0e150ed6c4, 2023-07-21)"
   sodipodi:docname="firewall-config.svg"
   xmlns:inkscape="http://www.inkscape.org/namespaces/inkscape"
   xmlns:sodipodi="http://sodipodi.sourceforge.net/DTD/sodipodi-0.dtd"
   xmlns="http://www.w3.org/2000/svg"
   xmlns:svg="http://www.w3.org/2000/svg">
  <sodipodi:namedview
     id="namedview7"
     pagecolor="#ffffff"
     bordercolor="#000000"
     borderopacity="0.25"
     inkscape:showpageshadow="2"
     inkscape:pageopacity="0.0"
     inkscape:pagecheckerboard="0"
     inkscape:deskcolor="#d1d1d1"
     inkscape:document-units="px"
     showgrid="false"
     inkscape:zoom="48.9375"
     inkscape:cx="7.9897829"
     inkscape:cy="8"
     inkscape:window-width="1920"
     inkscape:window-height="984"
     inkscape:window-x="0"
     inkscape:window-y="29"
     inkscape:window-maximized="1"
     inkscape:current-layer="svg5" />
  <defs
     id="defs2" />
  <rect
     style="fill:#4d4d4d;fill-opacity:1;stroke-width:1.14286;stroke-linecap:square"
     id="rect396"
     width="16"
     height="16"
     x="0"
     y="0"
     ry="4" />
  <path
     id="path1"
     style="opacity:0.2;fill:#000000"
     d="M 4 2.5 C 2.8920011 2.5 2 3.3920011 2 4.5 L 2 4.7011719 C 2 5.1443704 2.3345012 5.5 2.75 5.5 L 6.25 5.5 C 6.6654988 5.5 7 5.1443704 7 4.7011719 L 7 3.2988281 C 7 2.8556296 6.6654988 2.5 6.25 2.5 L 4 2.5 z M 8.75 2.5 C 8.3345014 2.5 8 2.8556296 8 3.2988281 L 8 4.7011719 C 8 5.1443704 8.3345014 5.5 8.75 5.5 L 13.25 5.5 C 13.666 5.5 14 5.1443704 14 4.7011719 L 14 4.5 C 14 3.3920011 13.107999 2.5 12 2.5 L 8.75 2.5 z M 3 6.5 C 2.4460018 6.5 2 6.9460018 2 7.5 L 2 9.5 C 2 10.053998 2.4460018 10.5 3 10.5 L 4 10.5 C 4.5539982 10.5 5 10.053998 5 9.5 L 5 7.5 C 5 6.9460018 4.5539982 6.5 4 6.5 L 3 6.5 z M 6.625 6.5 C 6.2787009 6.5 6 6.7672103 6 7.0996094 L 6 9.9003906 C 6 10.232789 6.2787009 10.5 6.625 10.5 L 9.375 10.5 C 9.7209987 10.5 10 10.232789 10 9.9003906 L 10 7.0996094 C 10 6.7672103 9.7209987 6.5 9.375 6.5 L 6.625 6.5 z M 12 6.5 C 11.446003 6.5 11 6.9460018 11 7.5 L 11 9.5 C 11 10.053998 11.446003 10.5 12 10.5 L 13 10.5 C 13.553997 10.5 14 10.053998 14 9.5 L 14 7.5 C 14 6.9460018 13.553997 6.5 13 6.5 L 12 6.5 z M 2.75 11.5 C 2.3345012 11.5 2 11.855831 2 12.298828 L 2 12.5 C 2 13.607999 2.8920011 14.5 4 14.5 L 6.25 14.5 C 6.6654988 14.5 7 14.144169 7 13.701172 L 7 12.298828 C 7 11.855831 6.6654988 11.5 6.25 11.5 L 2.75 11.5 z M 8.75 11.5 C 8.3345014 11.5 8 11.855831 8 12.298828 L 8 13.701172 C 8 14.144169 8.3345014 14.5 8.75 14.5 L 12 14.5 C 13.107999 14.5 14 13.607999 14 12.5 L 14 12.298828 C 14 11.855831 13.666 11.5 13.25 11.5 L 8.75 11.5 z " />
  <path
     id="path2"
     style="fill:#f45c49"
     d="M 4 2 C 2.8920011 2 2 2.8920011 2 4 L 2 4.2011719 C 2 4.6443704 2.3345012 5 2.75 5 L 6.25 5 C 6.6654988 5 7 4.6443704 7 4.2011719 L 7 2.7988281 C 7 2.3556296 6.6654988 2 6.25 2 L 4 2 z M 8.75 2 C 8.3345012 2 8 2.3556296 8 2.7988281 L 8 4.2011719 C 8 4.6443704 8.3345012 5 8.75 5 L 13.25 5 C 13.666 5 14 4.6443704 14 4.2011719 L 14 4 C 14 2.8920011 13.107999 2 12 2 L 8.75 2 z M 3 6 C 2.4460018 6 2 6.4460018 2 7 L 2 9 C 2 9.5539984 2.4460018 10 3 10 L 4 10 C 4.5539982 10 5 9.5539984 5 9 L 5 7 C 5 6.4460018 4.5539982 6 4 6 L 3 6 z M 6.625 6 C 6.2787009 6 6 6.2672103 6 6.5996094 L 6 9.4003906 C 6 9.7327893 6.2787009 10 6.625 10 L 9.375 10 C 9.7209991 10 10 9.7327893 10 9.4003906 L 10 6.5996094 C 10 6.2672103 9.7209991 6 9.375 6 L 6.625 6 z M 12 6 C 11.446003 6 11 6.4460018 11 7 L 11 9 C 11 9.5539984 11.446003 10 12 10 L 13 10 C 13.553997 10 14 9.5539984 14 9 L 14 7 C 14 6.4460018 13.553997 6 13 6 L 12 6 z M 2.75 11 C 2.3345012 11 2 11.355831 2 11.798828 L 2 12 C 2 13.107999 2.8920011 14 4 14 L 6.25 14 C 6.6654988 14 7 13.644169 7 13.201172 L 7 11.798828 C 7 11.355831 6.6654988 11 6.25 11 L 2.75 11 z M 8.75 11 C 8.3345012 11 8 11.355831 8 11.798828 L 8 13.201172 C 8 13.644169 8.3345012 14 8.75 14 L 12 14 C 13.107999 14 14 13.107999 14 12 L 14 11.798828 C 14 11.355831 13.666 11 13.25 11 L 8.75 11 z " />
  <path
     id="rect639"
     style="fill:#ffffff;stroke-linecap:square;opacity:0.1"
     d="M 4 0 C 1.7840022 0 0 1.7840022 0 4 L 0 5 C 0 2.7840022 1.7840022 1 4 1 L 12 1 C 14.215998 1 16 2.7840022 16 5 L 16 4 C 16 1.7840022 14.215998 0 12 0 L 4 0 z " />
</svg>
