<?xml version="1.0" encoding="UTF-8" standalone="no"?>
<!-- Created with Inkscape (http://www.inkscape.org/) -->

<svg
   width="16"
   height="16"
   viewBox="0 0 16 16"
   version="1.1"
   id="svg5"
   inkscape:version="1.2.2 (1:1.2.2+202305151914+b0a8486541)"
   sodipodi:docname="github-desktop.svg"
   xmlns:inkscape="http://www.inkscape.org/namespaces/inkscape"
   xmlns:sodipodi="http://sodipodi.sourceforge.net/DTD/sodipodi-0.dtd"
   xmlns="http://www.w3.org/2000/svg"
   xmlns:svg="http://www.w3.org/2000/svg">
  <sodipodi:namedview
     id="namedview7"
     pagecolor="#ffffff"
     bordercolor="#000000"
     borderopacity="0.25"
     inkscape:showpageshadow="2"
     inkscape:pageopacity="0.0"
     inkscape:pagecheckerboard="0"
     inkscape:deskcolor="#d1d1d1"
     inkscape:document-units="px"
     showgrid="false"
     inkscape:zoom="50.375"
     inkscape:cx="7.9900744"
     inkscape:cy="8"
     inkscape:window-width="1920"
     inkscape:window-height="1008"
     inkscape:window-x="0"
     inkscape:window-y="0"
     inkscape:window-maximized="1"
     inkscape:current-layer="svg5" />
  <defs
     id="defs2" />
  <rect
     style="fill:#8034a9;fill-opacity:1;stroke-width:1.14286;stroke-linecap:square"
     id="rect396"
     width="16"
     height="16"
     x="0"
     y="0"
     ry="4" />
  <path
     id="path2242"
     style="fill:#000000;opacity:0.2"
     d="M 11.662109 3.5117188 C 11.426161 3.5007198 10.759795 3.9520236 9.7167969 4.6699219 C 9.1250215 4.4932811 8.5671314 4.3956906 8 4.4003906 C 7.4970335 4.4044906 6.7916527 4.4890611 6.1621094 4.6699219 C 5.1194104 3.9520236 4.5865091 3.5025721 4.3496094 3.5136719 C 4.2706095 3.5172819 4.2324219 3.5292969 4.2324219 3.5292969 C 3.8360243 4.5473952 4.0870075 5.6996189 4.1621094 5.8867188 C 3.6964098 6.4034192 3.0097656 7.4640842 3.0097656 8.2714844 C 3.0097656 11.106082 4.4108454 12.139472 6.0273438 12.326172 C 5.819524 12.511002 5.6306031 12.838677 5.5644531 13.316406 C 5.1497035 13.505766 4.0947129 13.831491 3.4453125 12.701172 C 3.4453125 12.701172 3.0607974 11.98969 2.3300781 11.9375 C 2.3300781 11.9375 1.6202227 11.9301 2.28125 12.388672 C 2.28125 12.388672 2.7586541 12.616085 3.0898438 13.470703 C 3.0898438 13.470703 3.5159677 14.808207 5.5410156 14.361328 L 5.5410156 16 L 10 16 L 10 15.410156 C 10.0018 15.066047 10.003906 14.524525 10.003906 13.691406 C 10.003906 13.001597 9.9387361 12.548712 9.6777344 12.320312 C 11.299145 12.137303 13 11.113302 13 8.2714844 C 13 7.4640832 12.320034 6.4035192 11.853516 5.8867188 C 11.928156 5.6996199 12.178578 4.5454021 11.78125 3.5273438 C 11.781249 3.5273438 11.742959 3.5154187 11.664062 3.5117188 L 11.662109 3.5117188 z " />
  <path
     id="path2059"
     style="fill:#ffffff"
     d="M 11.662109 3.1113281 C 11.426161 3.1003291 10.759796 3.551632 9.7167969 4.2695312 C 9.1250219 4.0928895 8.5671314 3.9952999 8 4 C 7.4970335 4.0041 6.7916527 4.0886682 6.1621094 4.2695312 C 5.1194104 3.551632 4.5865091 3.1021816 4.3496094 3.1132812 C 4.2706115 3.1168912 4.2324219 3.1289062 4.2324219 3.1289062 C 3.8360243 4.1470054 4.087009 5.2992283 4.1621094 5.4863281 C 3.6964098 6.0030287 3.0097656 7.0636935 3.0097656 7.8710938 C 3.0097656 10.705691 4.4108453 11.739081 6.0273438 11.925781 C 5.8195238 12.110611 5.6306031 12.438286 5.5644531 12.916016 C 5.1497035 13.105375 4.0947129 13.4311 3.4453125 12.300781 C 3.4453125 12.300781 3.0607974 11.589299 2.3300781 11.537109 C 2.3300781 11.537109 1.6202205 11.52971 2.28125 11.988281 C 2.28125 11.988281 2.7586541 12.215694 3.0898438 13.070312 C 3.0898438 13.070312 3.5159677 14.407816 5.5410156 13.960938 L 5.5410156 16 L 10 16 L 10 15.009766 C 10.0018 14.665656 10.003906 14.124135 10.003906 13.291016 C 10.003906 12.601206 9.9387356 12.148322 9.6777344 11.919922 C 11.299145 11.736912 13 10.712911 13 7.8710938 C 13 7.0636926 12.320034 6.0031286 11.853516 5.4863281 C 11.928156 5.2992293 12.178578 4.1450121 11.78125 3.1269531 C 11.781249 3.1269531 11.742959 3.1150281 11.664062 3.1113281 L 11.662109 3.1113281 z " />
  <path
     id="rect639"
     style="fill:#ffffff;stroke-linecap:square;opacity:0.1"
     d="M 4 0 C 1.7840022 0 0 1.7840022 0 4 L 0 5 C 0 2.7840022 1.7840022 1 4 1 L 12 1 C 14.215998 1 16 2.7840022 16 5 L 16 4 C 16 1.7840022 14.215998 0 12 0 L 4 0 z " />
</svg>
