<?xml version="1.0" encoding="UTF-8" standalone="no"?>
<!-- Created with Inkscape (http://www.inkscape.org/) -->

<svg
   width="16"
   height="16"
   viewBox="0 0 16 16"
   version="1.1"
   id="svg5"
   inkscape:version="1.3 (0e150ed6c4, 2023-07-21)"
   sodipodi:docname="gnome-logs.svg"
   xmlns:inkscape="http://www.inkscape.org/namespaces/inkscape"
   xmlns:sodipodi="http://sodipodi.sourceforge.net/DTD/sodipodi-0.dtd"
   xmlns="http://www.w3.org/2000/svg"
   xmlns:svg="http://www.w3.org/2000/svg">
  <sodipodi:namedview
     id="namedview7"
     pagecolor="#ffffff"
     bordercolor="#000000"
     borderopacity="0.25"
     inkscape:showpageshadow="2"
     inkscape:pageopacity="0.0"
     inkscape:pagecheckerboard="0"
     inkscape:deskcolor="#d1d1d1"
     inkscape:document-units="px"
     showgrid="false"
     inkscape:zoom="45.5625"
     inkscape:cx="8"
     inkscape:cy="8"
     inkscape:window-width="1920"
     inkscape:window-height="937"
     inkscape:window-x="0"
     inkscape:window-y="32"
     inkscape:window-maximized="1"
     inkscape:current-layer="svg5" />
  <defs
     id="defs2" />
  <rect
     style="fill:#e4e4e4;fill-opacity:1;stroke-width:1.14286;stroke-linecap:square"
     id="rect396"
     width="16"
     height="16"
     x="0"
     y="0"
     ry="4" />
  <path
     id="path4"
     style="fill:#b0b0b0"
     d="M 2.5 3 C 2.2238587 3 2 3.2238586 2 3.5 C 2 3.7761414 2.2238587 4 2.5 4 C 2.7761408 4 3 3.7761414 3 3.5 C 3 3.2238586 2.7761408 3 2.5 3 z M 4 3 L 4 4 L 12 4 L 12 3 L 4 3 z M 13.5 3 C 13.223857 3 13 3.2238586 13 3.5 C 13 3.7761414 13.223857 4 13.5 4 C 13.776142 4 14 3.7761414 14 3.5 C 14 3.2238586 13.776142 3 13.5 3 z M 2.5 6 C 2.2238587 6 2 6.2238583 2 6.5 C 2 6.7761417 2.2238587 7 2.5 7 C 2.7761408 7 3 6.7761417 3 6.5 C 3 6.2238583 2.7761408 6 2.5 6 z M 4 6 L 4 7 L 12 7 L 12 6 L 4 6 z M 13.5 6 C 13.223857 6 13 6.2238583 13 6.5 C 13 6.7761417 13.223857 7 13.5 7 C 13.776142 7 14 6.7761417 14 6.5 C 14 6.2238583 13.776142 6 13.5 6 z M 2.5 9 C 2.2238587 9 2 9.2238583 2 9.5 C 2 9.7761417 2.2238587 10 2.5 10 C 2.7761408 10 3 9.7761417 3 9.5 C 3 9.2238583 2.7761408 9 2.5 9 z M 4 9 L 4 10 L 12 10 L 12 9 L 4 9 z M 13.5 9 C 13.223857 9 13 9.2238583 13 9.5 C 13 9.7761417 13.223857 10 13.5 10 C 13.776142 10 14 9.7761417 14 9.5 C 14 9.2238583 13.776142 9 13.5 9 z M 2.5 12 C 2.2238587 12 2 12.223858 2 12.5 C 2 12.776142 2.2238587 13 2.5 13 C 2.7761408 13 3 12.776142 3 12.5 C 3 12.223858 2.7761408 12 2.5 12 z M 4 12 L 4 13 L 12 13 L 12 12 L 4 12 z M 13.5 12 C 13.223857 12 13 12.223858 13 12.5 C 13 12.776142 13.223857 13 13.5 13 C 13.776142 13 14 12.776142 14 12.5 C 14 12.223858 13.776142 12 13.5 12 z " />
  <path
     id="rect639"
     style="fill:#ffffff;stroke-linecap:square;opacity:0.2"
     d="M 4 0 C 1.7840022 0 0 1.7840022 0 4 L 0 5 C 0 2.7840022 1.7840022 1 4 1 L 12 1 C 14.215998 1 16 2.7840022 16 5 L 16 4 C 16 1.7840022 14.215998 0 12 0 L 4 0 z " />
  <path
     style="opacity:0.1;fill:#000000;stroke-width:0.5"
     d="m 4.3027291,8.702148 -1.7500001,1.75 0.4951171,0.495117 1.75,-1.75 z"
     id="path6" />
  <path
     style="fill:#6e6e6e;stroke-width:0.5;-inkscape-stroke:none"
     d="m 4.3027291,8.202148 -1.7500002,1.75 0.4951172,0.495117 1.75,-1.75 z"
     id="path7" />
  <path
     style="opacity:0.1;fill:#000000;stroke-width:0.5"
     d="m 2.67356,10.000337 a 0.8030482,0.8028544 0 0 0 -0.5515177,0.243027 l -1.87346077,1.873009 a 0.8030482,0.8028544 0 1 0 1.13505457,1.135434 l 1.873461,-1.873662 A 0.8030482,0.8028544 0 0 0 2.67356,10.000337 Z"
     id="path8" />
  <path
     style="fill:#4f4f4f;stroke-width:0.5"
     d="M 2.67356,9.500337 A 0.8030482,0.8028544 0 0 0 2.1220423,9.743364 l -1.87346077,1.873009 a 0.8030482,0.8028544 0 1 0 1.13505457,1.135434 l 1.873461,-1.873662 A 0.8030482,0.8028544 0 0 0 2.67356,9.500337 Z"
     id="path9" />
  <circle
     style="opacity:0.3;fill:#328fff;fill-opacity:1;stroke-width:0.708335"
     id="path12"
     cx="7.4999943"
     cy="5.5"
     r="4.25" />
  <path
     style="opacity:0.1;fill:#000000;stroke-width:0.5"
     d="m 7.5009711,1.4999999 c -2.482184,0 -4.5009765,2.0187927 -4.5009765,4.5009766 0,2.4821835 2.0187925,4.4990235 4.5009765,4.4990235 2.4821839,0 4.4990239,-2.01684 4.4990239,-4.4990235 0,-2.4821839 -2.01684,-4.5009766 -4.4990239,-4.5009766 z m -0.001,1 c 1.9357899,0 3.4999999,1.5642103 3.4999999,3.5000001 0,1.9357905 -1.56421,3.5 -3.4999999,3.5 -1.93579,0 -3.5,-1.5642095 -3.5,-3.5 0,-1.9357898 1.56421,-3.5000001 3.5,-3.5000001 z"
     id="path10" />
  <path
     style="fill:#328fff;stroke-width:0.5"
     d="M 7.5009711,1 C 5.0187871,1 2.9999946,3.0187926 2.9999946,5.5009765 2.9999946,7.9831605 5.0187871,10 7.5009711,10 9.983155,10 11.999995,7.9831605 11.999995,5.5009765 11.999995,3.0187926 9.983155,1 7.5009711,1 Z m -9.765e-4,1 c 1.9357904,0 3.5000004,1.5642103 3.5000004,3.5 0,1.9357905 -1.56421,3.5 -3.5000004,3.5 -1.93579,0 -3.5,-1.5642095 -3.5,-3.5 0,-1.9357897 1.56421,-3.5 3.5,-3.5 z"
     id="path11" />
</svg>
