<?xml version="1.0" encoding="UTF-8" standalone="no"?>
<!-- Created with Inkscape (http://www.inkscape.org/) -->

<svg
   width="16"
   height="16"
   viewBox="0 0 16 16"
   version="1.1"
   id="svg5"
   inkscape:version="1.3 (0e150ed6c4, 2023-07-21)"
   sodipodi:docname="gnome-todo.svg"
   xmlns:inkscape="http://www.inkscape.org/namespaces/inkscape"
   xmlns:sodipodi="http://sodipodi.sourceforge.net/DTD/sodipodi-0.dtd"
   xmlns="http://www.w3.org/2000/svg"
   xmlns:svg="http://www.w3.org/2000/svg">
  <sodipodi:namedview
     id="namedview7"
     pagecolor="#ffffff"
     bordercolor="#000000"
     borderopacity="0.25"
     inkscape:showpageshadow="2"
     inkscape:pageopacity="0.0"
     inkscape:pagecheckerboard="0"
     inkscape:deskcolor="#d1d1d1"
     inkscape:document-units="px"
     showgrid="false"
     inkscape:zoom="50.1875"
     inkscape:cx="8"
     inkscape:cy="8"
     inkscape:window-width="1850"
     inkscape:window-height="1011"
     inkscape:window-x="70"
     inkscape:window-y="32"
     inkscape:window-maximized="1"
     inkscape:current-layer="svg5" />
  <defs
     id="defs2" />
  <rect
     style="fill:#c48f61;fill-opacity:1;stroke-width:1.14286;stroke-linecap:square"
     id="rect396"
     width="16"
     height="16"
     x="0"
     y="0"
     ry="4" />
  <rect
     style="opacity:0.2;fill:#000000;fill-opacity:1"
     id="rect1746"
     width="10"
     height="10"
     x="3"
     y="3.5"
     ry="1" />
  <rect
     style="fill:#ffffff;fill-opacity:1"
     id="rect1748"
     width="10"
     height="10"
     x="3"
     y="3"
     ry="1" />
  <path
     id="path3"
     style="color:#000000;fill:#5f5f5f;stroke-linecap:round;-inkscape-stroke:none"
     d="M 6.532908,3.6110775 A 0.5,0.5 0 0 0 6.1305643,3.7731869 L 5.2497049,4.7360775 4.8278299,4.3786556 a 0.5,0.5 0 0 0 -0.7050781,0.060547 0.5,0.5 0 0 0 0.060547,0.7050781 l 1.15625,0.9746094 1.5292968,-1.6699218 A 0.5,0.5 0 0 0 6.8375955,3.7419369 0.5,0.5 0 0 0 6.532908,3.6110775 Z m -0.054687,3.375 A 0.5,0.5 0 0 0 6.1305643,7.1481869 L 5.2497049,8.1110775 4.8278299,7.7536556 a 0.5,0.5 0 0 0 -0.7050781,0.060547 0.5,0.5 0 0 0 0.060547,0.7050781 L 5.3395488,9.49389 6.8688456,7.8239683 A 0.5,0.5 0 0 0 6.8375955,7.1169369 0.5,0.5 0 0 0 6.478221,6.9860775 Z m 0.054687,3.3749995 a 0.5,0.5 0 0 0 -0.4023437,0.16211 l -0.8808594,0.96289 -0.421875,-0.357422 a 0.5,0.5 0 0 0 -0.7050781,0.06055 0.5,0.5 0 0 0 0.060547,0.705078 l 1.15625,0.97461 1.5292968,-1.669922 A 0.5,0.5 0 0 0 6.8375956,10.49194 0.5,0.5 0 0 0 6.5329081,10.36108 Z" />
  <path
     id="path4"
     style="color:#000000;fill:#c8c8c8;stroke-linecap:round;-inkscape-stroke:none"
     d="m 8.4997049,4.9997494 a 0.5,0.5 0 0 0 -0.5,0.5 0.5,0.5 0 0 0 0.5,0.5 h 3.0253911 a 0.5,0.5 0 0 0 0.5,-0.5 0.5,0.5 0 0 0 -0.5,-0.5 z m 0,3 a 0.5,0.5 0 0 0 -0.5,0.5 0.5,0.5 0 0 0 0.5,0.5 h 3.0253911 a 0.5,0.5 0 0 0 0.5,-0.5 0.5,0.5 0 0 0 -0.5,-0.5 z m 0,2.9999996 a 0.5,0.5 0 0 0 -0.5,0.5 0.5,0.5 0 0 0 0.5,0.5 h 3.0253911 a 0.5,0.5 0 0 0 0.5,-0.5 0.5,0.5 0 0 0 -0.5,-0.5 z" />
  <path
     id="rect639"
     style="fill:#ffffff;stroke-linecap:square;opacity:0.1"
     d="M 4 0 C 1.7840022 0 0 1.7840022 0 4 L 0 5 C 0 2.7840022 1.7840022 1 4 1 L 12 1 C 14.215998 1 16 2.7840022 16 5 L 16 4 C 16 1.7840022 14.215998 0 12 0 L 4 0 z " />
</svg>
