<?xml version="1.0" encoding="UTF-8" standalone="no"?>
<!-- Created with Inkscape (http://www.inkscape.org/) -->

<svg
   width="16"
   height="16"
   viewBox="0 0 16 16"
   version="1.1"
   id="svg5"
   inkscape:version="1.3 (0e150ed6c4, 2023-07-21)"
   sodipodi:docname="gufw.svg"
   xmlns:inkscape="http://www.inkscape.org/namespaces/inkscape"
   xmlns:sodipodi="http://sodipodi.sourceforge.net/DTD/sodipodi-0.dtd"
   xmlns="http://www.w3.org/2000/svg"
   xmlns:svg="http://www.w3.org/2000/svg">
  <sodipodi:namedview
     id="namedview7"
     pagecolor="#ffffff"
     bordercolor="#000000"
     borderopacity="0.25"
     inkscape:showpageshadow="2"
     inkscape:pageopacity="0.0"
     inkscape:pagecheckerboard="0"
     inkscape:deskcolor="#d1d1d1"
     inkscape:document-units="px"
     showgrid="false"
     inkscape:zoom="48.9375"
     inkscape:cx="7.9897829"
     inkscape:cy="8"
     inkscape:window-width="1920"
     inkscape:window-height="984"
     inkscape:window-x="0"
     inkscape:window-y="29"
     inkscape:window-maximized="1"
     inkscape:current-layer="svg5" />
  <defs
     id="defs2" />
  <rect
     style="fill:#afb7e3;fill-opacity:1;stroke-width:1.14286;stroke-linecap:square"
     id="rect396"
     width="16"
     height="16"
     x="0"
     y="0"
     ry="4" />
  <path
     style="opacity:0.2;fill:#000000;stroke-width:0.5"
     d="M 4.5820313,3.4999999 C 4.3934889,3.5000611 4.2325541,3.6391798 4.2026367,3.8281249 3.8535631,6.0315527 3.9855629,7.7663798 4.3696289,9.120117 c 0.00572,0.020165 0.012662,0.036205 0.018555,0.055664 0.2153079,0.7392464 0.5043469,1.365862 0.8325194,1.88916 0.1737032,0.276984 0.357108,0.525133 0.5444337,0.747559 2.305e-4,2.75e-4 2.5e-4,7e-4 5e-4,9.5e-4 0.8185675,0.971574 1.7083861,1.447796 2.15332,1.651855 0.092798,0.04256 0.1986734,0.04625 0.2939458,0.0098 0.7331664,-0.280993 1.8163382,-1.083438 2.6518542,-2.627436 0.675825,-1.2489065 1.169945,-2.9776018 1.133301,-5.2773439 -1.43e-4,-0.00899 -0.0012,-0.017495 -0.0015,-0.026368 -0.0094,-0.5360265 -0.04675,-1.1015913 -0.118166,-1.7006812 A 0.38406573,0.38982505 0 0 0 11.497558,3.4999999 H 9.9609376 9.9345726 Z"
     id="path1" />
  <path
     style="fill:#3f51b5;stroke-width:0.5"
     d="m 4.5817975,3 c -0.1885424,6.12e-5 -0.3491596,0.1390236 -0.379077,0.3279687 -0.3490736,2.2034278 -0.217327,3.9385276 0.166739,5.2922649 0.2169253,0.7646079 0.5591248,1.0110599 0.8958643,1.5480184 0.1737307,0.277027 0.3125842,0.921926 0.4999417,1.144379 0.818758,0.972127 1.7086091,1.44868 2.153669,1.652796 0.092798,0.04256 0.1984489,0.04596 0.2937213,0.0095 0.7331674,-0.280998 1.8166722,-1.083402 2.6521882,-2.6274 0.675826,-1.248907 1.169888,-2.9776277 1.133244,-5.2773695 -0.0087,-0.5434017 -0.400714,-0.8728773 -0.473237,-1.481245 -0.02331,-0.195732 0.0954,-0.355348 -0.09885,-0.3554059 L 9.9608576,3.0000253 Z"
     id="path2" />
  <path
     id="path3"
     style="opacity:0.1;fill:#ffffff;stroke-width:0.5"
     d="M 4.5820318,3 C 4.3934895,3.000061 4.2330431,3.1391802 4.2031256,3.3281249 4.0467164,4.3154146 3.9879663,5.2076443 4.0039069,6.014648 4.0163599,5.3427297 4.0783379,4.615814 4.2031256,3.8281249 4.2330436,3.6391801 4.3934895,3.5000609 4.5820318,3.4999999 h 5.3525383 0.026365 1.5371089 a 0.38406573,0.38982505 0 0 1 0.380859,0.34375 c 0.0717,0.6014482 0.108959,1.1691323 0.118165,1.7070309 0.0025,-0.153623 0.0034,-0.3096872 10e-4,-0.4687499 -5.8e-5,-0.00385 6.1e-5,-0.00787 0,-0.011719 -6.9e-5,-0.00435 -8.5e-4,-0.00839 -10e-4,-0.012695 -0.009,-0.5398964 -0.04616,-1.1099046 -0.118163,-1.713867 A 0.38406573,0.38982505 0 0 0 11.498046,3 H 9.9609371 9.9345721 Z" />
  <path
     id="path4"
     style="opacity:0.2;fill:#000000;stroke-width:0.5"
     d="m 9.9345701,3.4999999 -5.458007,5.4580072 c 0.089109,0.2705034 0.1876324,0.5249914 0.2949218,0.7636714 0.1549826,0.2274429 0.3238335,0.4272545 0.493164,0.6972655 0.080907,0.129012 0.1543019,0.338196 0.2285156,0.546875 0.089361,0.121918 0.1795516,0.237521 0.2714843,0.34668 l 9.75e-4,10e-4 c 0.078143,0.09275 0.1573354,0.179756 0.2363281,0.263672 L 11.996093,5.583984 c 1.81e-4,-0.00953 8e-4,-0.018769 10e-4,-0.028321 -0.0021,-0.1231748 -0.0056,-0.2476468 -0.01074,-0.3740234 C 11.921623,4.7172924 11.591497,4.3934183 11.52539,3.8388671 11.50638,3.6792592 11.57879,3.5456209 11.50196,3.5009765 a 0.38406573,0.38982505 0 0 0 -0.0039,-9.766e-4 z" />
  <path
     style="fill:#ffffff;stroke-width:0.5"
     d="M 9.9345701,3 4.3583984,8.5761721 C 4.5762945,9.35963 4.8776958,10.017988 5.220703,10.564941 c 0.1739125,0.277317 0.3573608,0.525904 0.544922,0.748536 l 6.231933,-6.231934 c -0.0083,-0.5470012 -0.04607,-1.1253435 -0.11914,-1.7382813 A 0.38406573,0.38982505 0 0 0 11.497558,3 Z"
     id="path5" />
  <path
     id="rect639"
     style="fill:#ffffff;stroke-linecap:square;opacity:0.2"
     d="M 4 0 C 1.7840022 0 0 1.7840022 0 4 L 0 5 C 0 2.7840022 1.7840022 1 4 1 L 12 1 C 14.215998 1 16 2.7840022 16 5 L 16 4 C 16 1.7840022 14.215998 0 12 0 L 4 0 z " />
</svg>
