<?xml version="1.0" encoding="UTF-8" standalone="no"?>
<!-- Created with Inkscape (http://www.inkscape.org/) -->

<svg
   width="16"
   height="16"
   viewBox="0 0 16 16"
   version="1.1"
   id="svg5"
   inkscape:version="1.3 (0e150ed6c4, 2023-07-21)"
   sodipodi:docname="help-browser.svg"
   xmlns:inkscape="http://www.inkscape.org/namespaces/inkscape"
   xmlns:sodipodi="http://sodipodi.sourceforge.net/DTD/sodipodi-0.dtd"
   xmlns="http://www.w3.org/2000/svg"
   xmlns:svg="http://www.w3.org/2000/svg">
  <sodipodi:namedview
     id="namedview7"
     pagecolor="#ffffff"
     bordercolor="#000000"
     borderopacity="0.25"
     inkscape:showpageshadow="2"
     inkscape:pageopacity="0.0"
     inkscape:pagecheckerboard="0"
     inkscape:deskcolor="#d1d1d1"
     inkscape:document-units="px"
     showgrid="false"
     inkscape:zoom="49.25"
     inkscape:cx="8"
     inkscape:cy="8"
     inkscape:window-width="1920"
     inkscape:window-height="1004"
     inkscape:window-x="0"
     inkscape:window-y="0"
     inkscape:window-maximized="1"
     inkscape:current-layer="svg5"
     showguides="false" />
  <defs
     id="defs2" />
  <rect
     style="fill:#435ece;fill-opacity:1;stroke-width:1.14286;stroke-linecap:square"
     id="rect396"
     width="16"
     height="16"
     x="0"
     y="0"
     ry="4" />
  <path
     style="fill:#000000;opacity:0.2"
     d="M 8.125,13.45 H 6.875 V 12.2 h 1.25 z M 9.419,8.4063 8.8562,8.9813 C 8.4062,9.4375 8.125,9.8125 8.125,10.75 H 6.875 V 10.4375 C 6.875,9.75 7.1562,9.125 7.6063,8.6688 L 8.3812,7.8813 C 8.6125,7.6563 8.75,7.3438 8.75,7 8.75,6.3125 8.1875,5.75 7.5,5.75 6.8125,5.75 6.25,6.45 6.25,7.45 H 5 C 5,5.45 6.1188,4.5 7.5,4.5 8.8812,4.5 10,5.6188 10,7 10,7.55 9.775,8.05 9.419,8.4063 Z"
     id="path1" />
  <path
     style="fill:#ffffff"
     d="M 8.125,12.95 H 6.875 V 11.7 h 1.25 z M 9.419,7.9063 8.8562,8.4813 C 8.4062,8.9375 8.125,9.3125 8.125,10.25 H 6.875 V 9.9375 C 6.875,9.25 7.1562,8.625 7.6063,8.1688 L 8.3812,7.3813 C 8.6125,7.1563 8.75,6.8438 8.75,6.5 8.75,5.8125 8.1875,5.25 7.5,5.25 6.8125,5.25 6.25,5.95 6.25,6.95 H 5 C 5,4.95 6.1188,4 7.5,4 8.8812,4 10,5.1188 10,6.5 10,7.05 9.775,7.55 9.419,7.9063 Z"
     id="path2" />
  <path
     id="rect639"
     style="fill:#ffffff;stroke-linecap:square;opacity:0.1"
     d="M 4 0 C 1.7840022 0 0 1.7840022 0 4 L 0 5 C 0 2.7840022 1.7840022 1 4 1 L 12 1 C 14.215998 1 16 2.7840022 16 5 L 16 4 C 16 1.7840022 14.215998 0 12 0 L 4 0 z " />
</svg>
