<?xml version="1.0" encoding="UTF-8" standalone="no"?>
<!-- Created with Inkscape (http://www.inkscape.org/) -->

<svg
   width="16"
   height="16"
   viewBox="0 0 16 16"
   version="1.1"
   id="svg5"
   inkscape:version="1.3 (0e150ed6c4, 2023-07-21)"
   sodipodi:docname="hwloc.svg"
   xmlns:inkscape="http://www.inkscape.org/namespaces/inkscape"
   xmlns:sodipodi="http://sodipodi.sourceforge.net/DTD/sodipodi-0.dtd"
   xmlns="http://www.w3.org/2000/svg"
   xmlns:svg="http://www.w3.org/2000/svg">
  <sodipodi:namedview
     id="namedview7"
     pagecolor="#ffffff"
     bordercolor="#000000"
     borderopacity="0.25"
     inkscape:showpageshadow="2"
     inkscape:pageopacity="0.0"
     inkscape:pagecheckerboard="0"
     inkscape:deskcolor="#d1d1d1"
     inkscape:document-units="px"
     showgrid="false"
     inkscape:zoom="50.1875"
     inkscape:cx="8"
     inkscape:cy="8"
     inkscape:window-width="1850"
     inkscape:window-height="1011"
     inkscape:window-x="70"
     inkscape:window-y="32"
     inkscape:window-maximized="1"
     inkscape:current-layer="svg5" />
  <defs
     id="defs2" />
  <rect
     style="fill:#00897b;fill-opacity:1;stroke-width:1.14286;stroke-linecap:square"
     id="rect396"
     width="16"
     height="16"
     x="0"
     y="0"
     ry="4" />
  <rect
     style="opacity:0.2;fill:#000000"
     width="9.1379995"
     height="9.1379995"
     x="7.103662"
     y="-4.2161202"
     ry="1.1160001"
     transform="rotate(45)"
     id="rect2-5" />
  <rect
     style="fill:#76d740"
     width="9.1379995"
     height="9.1379995"
     x="6.7499242"
     y="-4.5698576"
     ry="1.1160001"
     transform="rotate(45)"
     id="rect2" />
  <path
     id="path2-3"
     style="opacity:0.2;fill:#000000"
     d="m 7.0525794,2.9860469 -0.433593,0.4335938 c 0.355534,-0.135475 0.767627,-0.060498 1.05664,0.2285156 L 12.865079,8.835656 c 0.277068,0.277067 0.357195,0.670436 0.244141,1.015625 L 13.527189,9.435266 C 13.502339,9.120645 13.368964,8.812198 13.128751,8.571984 L 7.9412514,3.3844844 C 7.6939764,3.1372092 7.3768184,3.0051116 7.0525794,2.9860469 Z m -2.052734,3.0820312 c -0.116051,0 -0.2333414,0.043888 -0.3222656,0.1328126 L 2.6951579,8.183313 c -0.1778485,0.177848 -0.1778485,0.464729 0,0.642578 l 1.9824219,1.982422 c 0.1778485,0.177848 0.4647296,0.177848 0.6425781,0 L 7.3025794,8.825891 c 0.177849,-0.177849 0.177849,-0.46473 0,-0.642578 L 5.3201579,6.2008907 C 5.2312337,6.1119664 5.1158964,6.0680781 4.9998454,6.0680781 Z m 2.998047,2.9980469 c -0.116051,0 -0.233342,0.04389 -0.322266,0.132813 l -1.9824216,1.982421 c -0.1778485,0.177849 -0.1778485,0.46473 0,0.642579 l 1.9824216,1.982421 c 0.177849,0.177849 0.4647305,0.177849 0.6425785,0 l 1.9824211,-1.982421 c 0.177849,-0.177849 0.177849,-0.46473 0,-0.642579 L 8.3182049,9.198938 C 8.2292849,9.110018 8.1139439,9.066125 7.9978924,9.066125 Z" />
  <path
     style="fill:#ffffff"
     d="M 7.0513588,2.4871074 6.617765,2.9207011 C 6.9733003,2.785226 7.3871008,2.8609355 7.6761147,3.1499491 L 12.863858,8.337693 c 0.277068,0.277067 0.358416,0.669215 0.245362,1.014405 L 13.525967,8.93535 C 13.501117,8.620729 13.369208,8.31277 13.128995,8.072556 L 7.9412514,2.8848125 C 7.693976,2.6375371 7.3755976,2.5061721 7.0513588,2.4871074 Z"
     id="path2" />
  <rect
     style="fill:#ffffff"
     width="3.7119999"
     height="3.7119999"
     x="7.3399234"
     y="0.27014253"
     ry="0.454"
     transform="rotate(45)"
     id="rect3" />
  <path
     style="fill:#9ee976"
     d="M 4.6145211,5.7604155 4.4383735,5.9365628 C 4.58281,5.8815258 4.7509161,5.9122818 4.8683282,6.0296948 L 6.9758491,8.137216 c 0.1125585,0.112558 0.1456062,0.271868 0.099678,0.412102 L 7.244831,8.380014 C 7.234736,8.252199 7.1811474,8.127091 7.0835608,8.029504 L 4.9760398,5.9219832 C 4.8755845,5.8215274 4.7462432,5.7681604 4.6145211,5.7604155 Z"
     id="path3" />
  <rect
     style="fill:#ffffff"
     width="3.7119999"
     height="3.7119999"
     x="11.579924"
     y="0.27014253"
     ry="0.454"
     transform="rotate(45)"
     id="rect4" />
  <path
     style="fill:#9ee976"
     d="M 7.614521,8.760415 7.4383738,8.936563 c 0.1444361,-0.05504 0.3125426,-0.02428 0.4299543,0.09313 l 2.1075218,2.107521 c 0.1125571,0.112558 0.1456051,0.271869 0.09968,0.412102 l 0.169304,-0.169304 c -0.0101,-0.127815 -0.06368,-0.252923 -0.161271,-0.35051 L 7.9760397,8.921983 C 7.8755844,8.821527 7.7462431,8.76816 7.614521,8.760415 Z"
     id="path4" />
  <rect
     style="fill:#6c6c6c"
     width="1.318"
     height="1.318"
     x="9.3099241"
     y="2.4401424"
     ry="0.161"
     transform="rotate(45)"
     id="rect5" />
  <path
     style="fill:#ffffff"
     d="m 4.7223276,8.450865 -0.06252,0.06252 c 0.051264,-0.01953 0.1109306,-0.0086 0.1526036,0.03306 l 0.7480226,0.748023 c 0.039951,0.03995 0.051681,0.09649 0.035378,0.146267 l 0.060091,-0.06009 c -0.0036,-0.04537 -0.022605,-0.08977 -0.05724,-0.124406 L 4.8506398,8.508215 c -0.035655,-0.03565 -0.081562,-0.0546 -0.1283137,-0.05734 z"
     id="path5" />
  <rect
     style="fill:#6c6c6c"
     width="1.318"
     height="1.318"
     x="7.8099236"
     y="2.4401424"
     ry="0.161"
     transform="rotate(45)"
     id="rect6" />
  <path
     style="fill:#ffffff"
     d="m 3.6638481,7.3849196 -0.06252,0.06252 c 0.051264,-0.019534 0.110931,-0.00862 0.152604,0.033056 L 4.5019547,8.228518 c 0.039951,0.03995 0.05168,0.09649 0.035378,0.146267 l 0.060091,-0.06009 c -0.0036,-0.04537 -0.022601,-0.08977 -0.05724,-0.124406 L 3.7921607,7.4422657 C 3.7565057,7.4066107 3.710599,7.3876695 3.663847,7.3849204 Z"
     id="path6" />
  <rect
     style="fill:#6c6c6c"
     width="1.318"
     height="1.318"
     x="9.3199234"
     y="0.96014249"
     ry="0.161"
     transform="rotate(45)"
     id="rect7" />
  <path
     style="fill:#ffffff"
     d="m 5.7735984,7.4119684 -0.06252,0.06252 c 0.051264,-0.019534 0.1109307,-0.00862 0.1526037,0.033056 L 6.6117047,8.255567 c 0.039951,0.03995 0.051681,0.09649 0.035378,0.146267 l 0.060091,-0.06009 c -0.0036,-0.04537 -0.022605,-0.08977 -0.05724,-0.124406 L 5.9019107,7.4693145 C 5.8662557,7.4336595 5.8203489,7.4147182 5.7735969,7.4119691 Z"
     id="path7" />
  <rect
     style="fill:#6c6c6c"
     width="1.318"
     height="1.318"
     x="7.7699237"
     y="0.98014247"
     ry="0.161"
     transform="rotate(45)"
     id="rect8" />
  <path
     style="fill:#ffffff"
     d="m 4.6681288,6.3236228 -0.06252,0.06252 c 0.051264,-0.019534 0.1109307,-0.00862 0.1526037,0.033056 l 0.7480226,0.7480226 c 0.039951,0.039951 0.051681,0.096494 0.035378,0.1462673 l 0.060091,-0.060091 c -0.0036,-0.045365 -0.022605,-0.08977 -0.05724,-0.1244062 L 4.7964411,6.3809689 C 4.7607861,6.3453139 4.7148795,6.3263726 4.6681273,6.3236239 Z"
     id="path8" />
  <path
     id="rect2-3"
     style="opacity:0.2;fill:#ffffff"
     d="m 8.0037516,2.002 c -0.2852707,1e-7 -0.5704734,0.1095359 -0.7890625,0.328125 L 2.3318759,7.2148899 C 2.0488036,7.4979621 1.9514954,7.8920425 2.0350008,8.253952 2.0803913,8.056684 2.1775976,7.8691696 2.3318766,7.7148906 L 7.2146898,2.8301258 c 0.4371782,-0.4371783 1.1409471,-0.4371783 1.5781251,0 L 13.67758,7.7148913 C 13.831859,7.86917 13.929066,8.056686 13.974455,8.253954 14.057965,7.8920437 13.960655,7.4979634 13.677581,7.2148916 L 8.7928139,2.330125 C 8.5742249,2.1115359 8.2890219,2.002 8.0037516,2.002 Z" />
  <path
     id="rect639"
     style="fill:#ffffff;stroke-linecap:square;opacity:0.1"
     d="M 4 0 C 1.7840022 0 0 1.7840022 0 4 L 0 5 C 0 2.7840022 1.7840022 1 4 1 L 12 1 C 14.215998 1 16 2.7840022 16 5 L 16 4 C 16 1.7840022 14.215998 0 12 0 L 4 0 z " />
</svg>
