<?xml version="1.0" encoding="UTF-8" standalone="no"?>
<!-- Created with Inkscape (http://www.inkscape.org/) -->

<svg
   width="16"
   height="16"
   viewBox="0 0 16 16"
   version="1.1"
   id="svg5"
   inkscape:version="1.2.2 (1:1.2.2+202305151914+b0a8486541)"
   sodipodi:docname="internet-chat.svg"
   xmlns:inkscape="http://www.inkscape.org/namespaces/inkscape"
   xmlns:sodipodi="http://sodipodi.sourceforge.net/DTD/sodipodi-0.dtd"
   xmlns="http://www.w3.org/2000/svg"
   xmlns:svg="http://www.w3.org/2000/svg">
  <sodipodi:namedview
     id="namedview7"
     pagecolor="#ffffff"
     bordercolor="#000000"
     borderopacity="0.25"
     inkscape:showpageshadow="2"
     inkscape:pageopacity="0.0"
     inkscape:pagecheckerboard="0"
     inkscape:deskcolor="#d1d1d1"
     inkscape:document-units="px"
     showgrid="false"
     inkscape:zoom="50.375"
     inkscape:cx="7.9900744"
     inkscape:cy="8"
     inkscape:window-width="1920"
     inkscape:window-height="1008"
     inkscape:window-x="0"
     inkscape:window-y="0"
     inkscape:window-maximized="1"
     inkscape:current-layer="svg5" />
  <defs
     id="defs2" />
  <rect
     style="fill:#fbc02d;fill-opacity:1;stroke-width:1.14286;stroke-linecap:square"
     id="rect396"
     width="16"
     height="16"
     x="0"
     y="0"
     ry="4" />
  <path
     d="M 12,6.4999999 H 7.0000001 c -0.554,0 -1.0000001,0.446 -1.0000001,1 V 10.5 c 0,0.554 0.4460001,1 1.0000001,1 H 11 l 2,2 V 7.4999999 c 0,-0.554 -0.446,-1 -1,-1 z"
     style="opacity:0.2;fill:#000000;stroke-width:0.5;stroke-linecap:round;stroke-linejoin:round"
     id="path768" />
  <path
     d="M 12,6.0000004 H 7.0000001 C 6.4460001,6.0000004 6,6.4459999 6,6.9999999 V 10 c 0,0.554 0.4460001,1 1.0000001,1 H 11 l 2,2 V 6.9999999 c 0,-0.5540005 -0.446,-1 -1,-0.9999995 z"
     style="fill:#ffecb3;fill-opacity:1;stroke-width:0.5;stroke-linecap:round;stroke-linejoin:round"
     id="path712" />
  <path
     d="m 4,3.4999999 h 5 c 0.5540002,0 1,0.446 1,1 v 3 c 0,0.554 -0.4459998,1 -1,1 H 5 L 3,10.5 V 4.4999999 c 0,-0.554 0.446,-1 1,-1 z"
     style="opacity:0.2;fill:#000000;stroke-width:0.5;stroke-linecap:round;stroke-linejoin:round"
     id="path740" />
  <path
     d="M 3.9999998,2.9999999 H 9 c 0.5540002,0 1,0.446 1,1 v 3 c 0,0.554 -0.4459998,1 -1,1 H 4.9999998 L 2.9999998,10 V 3.9999999 c 0,-0.554 0.446,-1 1,-1 z"
     style="fill:#ffffff;fill-opacity:1;stroke-width:0.5;stroke-linecap:round;stroke-linejoin:round"
     id="path684" />
  <path
     id="rect639"
     style="fill:#ffffff;stroke-linecap:square;opacity:0.2"
     d="M 4 0 C 1.7840022 0 0 1.7840022 0 4 L 0 5 C 0 2.7840022 1.7840022 1 4 1 L 12 1 C 14.215998 1 16 2.7840022 16 5 L 16 4 C 16 1.7840022 14.215998 0 12 0 L 4 0 z " />
</svg>
