<?xml version="1.0" encoding="UTF-8" standalone="no"?>
<!-- Created with Inkscape (http://www.inkscape.org/) -->

<svg
   width="16"
   height="16"
   viewBox="0 0 16 16"
   version="1.1"
   id="svg5"
   inkscape:version="1.2.2 (1:1.2.2+202305151914+b0a8486541)"
   sodipodi:docname="io.github.celluloid_player.Celluloid.svg"
   xmlns:inkscape="http://www.inkscape.org/namespaces/inkscape"
   xmlns:sodipodi="http://sodipodi.sourceforge.net/DTD/sodipodi-0.dtd"
   xmlns="http://www.w3.org/2000/svg"
   xmlns:svg="http://www.w3.org/2000/svg">
  <sodipodi:namedview
     id="namedview7"
     pagecolor="#ffffff"
     bordercolor="#000000"
     borderopacity="0.25"
     inkscape:showpageshadow="2"
     inkscape:pageopacity="0.0"
     inkscape:pagecheckerboard="0"
     inkscape:deskcolor="#d1d1d1"
     inkscape:document-units="px"
     showgrid="false"
     inkscape:zoom="50.375"
     inkscape:cx="8"
     inkscape:cy="8"
     inkscape:window-width="1920"
     inkscape:window-height="1008"
     inkscape:window-x="0"
     inkscape:window-y="0"
     inkscape:window-maximized="1"
     inkscape:current-layer="svg5" />
  <defs
     id="defs2" />
  <rect
     style="fill:#3a5996;fill-opacity:1;stroke-width:1.14286;stroke-linecap:square"
     id="rect396"
     width="16"
     height="16"
     x="0"
     y="0"
     ry="4" />
  <path
     d="m 8,5.5 c -1.65685,0 -3,1.34315 -3,3 0,1.65685 1.34315,3 3,3 1.65685,0 3,-1.34315 3,-3 0,-1.65685 -1.34315,-3 -3,-3 z M 7,7 h 0.26563 0.0273 c 0.0512,-4.5e-4 0.10193,0.0112 0.14648,0.0371 l 2.04883,1.20117 c 0.0909,0.0516 0.13672,0.15625 0.13672,0.26172 0,0.10547 -0.0458,0.21015 -0.13672,0.26172 L 7.43941,9.96288 c -0.0445,0.0259 -0.0953,0.0374 -0.14648,0.0371 H 7.26563 7 Z"
     style="opacity:0.2;fill:#000000"
     id="path750" />
  <path
     d="M 8,5 C 6.34315,5 5,6.34315 5,8 5,9.65685 6.34315,11 8,11 9.65685,11 11,9.65685 11,8 11,6.34315 9.65685,5 8,5 Z M 7,6.5 h 0.26563 0.0273 c 0.0512,-4.5e-4 0.10193,0.0112 0.14648,0.0371 l 2.04883,1.20117 c 0.0909,0.0516 0.13672,0.15625 0.13672,0.26172 0,0.10547 -0.0458,0.21015 -0.13672,0.26172 L 7.43941,9.46288 c -0.0445,0.0259 -0.0953,0.0374 -0.14648,0.0371 H 7.26563 7 Z"
     style="fill:#ffffff"
     id="path722" />
  <path
     d="M 2,3 V 4 H 3 V 3 Z m 11,0 v 1 h 1 V 3 Z M 2,5 V 6 H 3 V 5 Z m 11,0 v 1 h 1 V 5 Z M 2,7 V 8 H 3 V 7 Z m 11,0 v 1 h 1 V 7 Z M 2,9 v 1 H 3 V 9 Z m 11,0 v 1 h 1 V 9 Z M 2,11 v 1 h 1 v -1 z m 11,0 v 1 h 1 V 11 Z M 2,13 v 1 h 1 v -1 z m 11,0 v 1 h 1 v -1 z"
     style="opacity:0.3;fill:#000000;stroke-width:0.25"
     id="path694" />
  <path
     id="rect639"
     style="fill:#ffffff;stroke-linecap:square;opacity:0.2"
     d="M 4 0 C 1.7840022 0 0 1.7840022 0 4 L 0 5 C 0 2.7840022 1.7840022 1 4 1 L 12 1 C 14.215998 1 16 2.7840022 16 5 L 16 4 C 16 1.7840022 14.215998 0 12 0 L 4 0 z " />
</svg>
