<?xml version="1.0" encoding="UTF-8" standalone="no"?>
<!-- Created with Inkscape (http://www.inkscape.org/) -->

<svg
   width="16"
   height="16"
   viewBox="0 0 16 16"
   version="1.1"
   id="svg5"
   inkscape:version="1.3 (0e150ed6c4, 2023-07-21)"
   sodipodi:docname="kmahjongg.svg"
   xmlns:inkscape="http://www.inkscape.org/namespaces/inkscape"
   xmlns:sodipodi="http://sodipodi.sourceforge.net/DTD/sodipodi-0.dtd"
   xmlns="http://www.w3.org/2000/svg"
   xmlns:svg="http://www.w3.org/2000/svg">
  <sodipodi:namedview
     id="namedview7"
     pagecolor="#ffffff"
     bordercolor="#000000"
     borderopacity="0.25"
     inkscape:showpageshadow="2"
     inkscape:pageopacity="0.0"
     inkscape:pagecheckerboard="0"
     inkscape:deskcolor="#d1d1d1"
     inkscape:document-units="px"
     showgrid="false"
     inkscape:zoom="48.9375"
     inkscape:cx="7.9897829"
     inkscape:cy="8"
     inkscape:window-width="1920"
     inkscape:window-height="984"
     inkscape:window-x="0"
     inkscape:window-y="29"
     inkscape:window-maximized="1"
     inkscape:current-layer="svg5" />
  <defs
     id="defs2" />
  <rect
     style="fill:#c2352a;fill-opacity:1;stroke-width:1.14286;stroke-linecap:square"
     id="rect396"
     width="16"
     height="16"
     x="0"
     y="0"
     ry="4" />
  <path
     d="m 6.723022,3.582003 c -0.0895,0.0658 -0.1119,0.1644 -0.1119,0.2796 0,0.21382 0.089504,0.47696 0.13426,0.57564 0,0 0.067134,1.1513 0.089508,1.2829 C 6.6335,5.736589 6.27547,5.753039 6.14124,5.785929 H 5.96223 c -0.3804,0.0165 -0.7384,0.0329 -0.8951,0.148 L 5,5.983271 5.06713,6.049062 c 0.11188,0.098682 0.15664,0.37829 0.20139,0.67437 0.11188,0.60855 0.24614,1.3651 0.91745,1.6612 l 0.13426,0.049341 v -0.11513 c 0,0 0.022418,-0.049341 0.022418,-0.11513 0,-0.049341 -0.022418,-0.13158 -0.044727,-0.24671 0.17901,0.016445 0.55942,0.049342 0.69365,0.049342 0.0224,0.1316 0.6042,5.4937 0.6042,5.4937 h 0.2238 c 0,0 0.24615,-5.2959 0.24615,-5.4605 0.15663,0 0.85031,0.016445 1.0517,0.032896 -0.0447,0.0987 -0.2237,0.5099 -0.2237,0.5099 l 0.3132,-0.2138 c 0.0895,-0.0494 2.0362,-1.3487 1.7682,-2.204 -0.09,-0.2796 -0.403,-0.477 -0.918,-0.5756 h -0.04486 c -0.2909,0 -1.186,0.016445 -1.8573,0.049341 0.022427,-0.42763 0.022427,-0.65791 0.022427,-0.77305 v -0.14803 c 0,-0.082237 0.11188,-0.19737 0.20139,-0.27961 0.089515,-0.098682 0.2014,-0.18092 0.2014,-0.27961 0,-0.032896 -0.022419,-0.065792 -0.044727,-0.098682 -0.1339,-0.1481 -1.1185,-0.5264 -1.5436,-0.5593 -0.1343,0.0164 -0.2238,0.0329 -0.2686,0.0822 z m 0.022419,2.6974 h 0.11188 c 0,0.14803 0.06713,1.1842 0.089504,1.3322 -0.179,-0.0165 -0.6041,-0.0494 -0.7384,-0.0494 -0.0672,-0.2138 -0.0895,-0.4441 -0.1119,-0.6743 -0.0224,-0.1974 -0.0447,-0.3948 -0.0895,-0.5757 0.20139,0 0.73844,-0.032896 0.73844,-0.032896 z m 1.365,0.5098 c 0,0 0.022364,-0.39474 0.022364,-0.52632 0.29089,0.032896 0.67129,0.049342 1.0293,0.049342 h 0.40278 c 0,0.065791 -0.022417,0.14803 -0.022417,0.14803 -0.04473,0.36184 -0.11188,0.78946 -0.31328,1.2171 -0.13425,0 -0.96218,-0.032896 -1.1412,-0.049341 0,-0.11513 0.022418,-0.83882 0.022418,-0.83882 z"
     style="opacity:0.2;fill:#000000"
     id="path2" />
  <path
     fill="#ffffff"
     d="m 6.723022,3.082 c -0.0895,0.0658 -0.1119,0.1644 -0.1119,0.2796 0,0.21382 0.089504,0.47696 0.13426,0.57564 0,0 0.067134,1.1513 0.089508,1.2829 C 6.6335,5.236586 6.27547,5.253036 6.14124,5.285926 H 5.96223 c -0.3804,0.0165 -0.7384,0.0329 -0.8951,0.148 L 5,5.483268 5.06713,5.549059 c 0.11188,0.098682 0.15664,0.37829 0.20139,0.67437 0.11188,0.60855 0.24614,1.3651 0.91745,1.6612 L 6.32023,7.93397 V 7.81884 c 0,0 0.022418,-0.049341 0.022418,-0.11513 0,-0.049341 -0.022418,-0.13158 -0.044727,-0.24671 0.17901,0.016445 0.55942,0.049342 0.69365,0.049342 0.0224,0.1316 0.6042,5.4937 0.6042,5.4937 h 0.2238 c 0,0 0.24615,-5.2959 0.24615,-5.4605 0.15663,0 0.85031,0.016445 1.0517,0.032896 -0.0447,0.0987 -0.2237,0.5099 -0.2237,0.5099 l 0.3132,-0.2138 c 0.0895,-0.0494 2.0362,-1.3487 1.7682,-2.204 -0.09,-0.2796 -0.403,-0.477 -0.918,-0.5756 h -0.04486 c -0.2909,0 -1.186,0.016445 -1.8573,0.049341 0.022427,-0.42763 0.022427,-0.65791 0.022427,-0.77305 v -0.14803 c 0,-0.082237 0.11188,-0.19737 0.20139,-0.27961 0.089515,-0.098682 0.2014,-0.18092 0.2014,-0.27961 0,-0.032896 -0.022419,-0.065792 -0.044727,-0.098682 -0.1339,-0.1481 -1.1185,-0.5264 -1.5436,-0.5593 -0.1343,0.0164 -0.2238,0.0329 -0.2686,0.0822 z m 0.022419,2.6974 h 0.11188 c 0,0.14803 0.06713,1.1842 0.089504,1.3322 -0.179,-0.0165 -0.6041,-0.0494 -0.7384,-0.0494 -0.0672,-0.2138 -0.0895,-0.4441 -0.1119,-0.6743 -0.0224,-0.1974 -0.0447,-0.3948 -0.0895,-0.5757 0.20139,0 0.73844,-0.032896 0.73844,-0.032896 z m 1.365,0.5098 c 0,0 0.022364,-0.39474 0.022364,-0.52632 0.29089,0.032896 0.67129,0.049342 1.0293,0.049342 h 0.40278 c 0,0.065791 -0.022417,0.14803 -0.022417,0.14803 -0.04473,0.36184 -0.11188,0.78946 -0.31328,1.2171 -0.13425,0 -0.96218,-0.032896 -1.1412,-0.049341 0,-0.11513 0.022418,-0.83882 0.022418,-0.83882 z"
     id="path1" />
  <path
     id="rect639"
     style="fill:#ffffff;stroke-linecap:square;opacity:0.2"
     d="M 4 0 C 1.7840022 0 0 1.7840022 0 4 L 0 5 C 0 2.7840022 1.7840022 1 4 1 L 12 1 C 14.215998 1 16 2.7840022 16 5 L 16 4 C 16 1.7840022 14.215998 0 12 0 L 4 0 z " />
</svg>
