<?xml version="1.0" encoding="UTF-8" standalone="no"?>
<!-- Created with Inkscape (http://www.inkscape.org/) -->

<svg
   width="16"
   height="16"
   viewBox="0 0 16 16"
   version="1.1"
   id="svg5"
   inkscape:version="1.2.2 (1:1.2.2+202305151914+b0a8486541)"
   sodipodi:docname="kmines.svg"
   xmlns:inkscape="http://www.inkscape.org/namespaces/inkscape"
   xmlns:sodipodi="http://sodipodi.sourceforge.net/DTD/sodipodi-0.dtd"
   xmlns="http://www.w3.org/2000/svg"
   xmlns:svg="http://www.w3.org/2000/svg">
  <sodipodi:namedview
     id="namedview7"
     pagecolor="#ffffff"
     bordercolor="#000000"
     borderopacity="0.25"
     inkscape:showpageshadow="2"
     inkscape:pageopacity="0.0"
     inkscape:pagecheckerboard="0"
     inkscape:deskcolor="#d1d1d1"
     inkscape:document-units="px"
     showgrid="false"
     inkscape:zoom="50.375"
     inkscape:cx="7.9900744"
     inkscape:cy="8"
     inkscape:window-width="1920"
     inkscape:window-height="1008"
     inkscape:window-x="0"
     inkscape:window-y="0"
     inkscape:window-maximized="1"
     inkscape:current-layer="svg5" />
  <defs
     id="defs2" />
  <rect
     style="fill:#c0c0c0;fill-opacity:1;stroke-width:1.14286;stroke-linecap:square"
     id="rect396"
     width="16"
     height="16"
     x="0"
     y="0"
     ry="4" />
  <path
     d="m 7.7497652,3.5000003 c -0.6925005,0 -1.2500005,0.5575 -1.2500005,1.25 v 0.043946 C 6.1552947,4.9329994 5.8318742,5.1193606 5.5388272,5.3476566 l -0.03711,-0.021485 C 4.9019957,4.9799221 4.1409366,5.1834811 3.7946866,5.7832036 l -0.25,0.4335935 C 3.1984366,6.8165196 3.4019956,7.577578 4.0017181,7.923828 l 0.041015,0.023435 c -0.02709,0.1830345 -0.041445,0.36772 -0.04297,0.552737 0.0015,0.185017 0.01588,0.369705 0.04297,0.5527346 l -0.041015,0.023435 C 3.4019956,9.4224196 3.1984366,10.183478 3.5446866,10.783201 l 0.25,0.433594 c 0.34625,0.599722 1.1073091,0.803281 1.7070311,0.457031 l 0.04004,-0.02343 c 0.2920845,0.228404 0.614507,0.415087 0.958008,0.554687 V 12.5 c 0,0.554 0.5353955,1 1.200196,1 h 0.599609 c 0.6647999,0 1.2001952,-0.446 1.2001952,-1 v -0.293945 c 0.34447,-0.139054 0.6678901,-0.325415 0.9609371,-0.553711 l 0.03711,0.02149 c 0.599723,0.34625 1.360781,0.142691 1.707032,-0.457031 l 0.249999,-0.433594 c 0.34625,-0.599722 0.142692,-1.3607809 -0.457031,-1.7070309 l -0.04102,-0.023435 C 11.983888,8.8697015 11.998248,8.685017 11.999763,8.5 11.998263,8.314983 11.983883,8.130295 11.956793,7.9472655 l 0.04101,-0.023435 c 0.599723,-0.34625 0.803281,-1.1073084 0.457031,-1.7070309 L 12.20484,5.7832061 c -0.346243,-0.599726 -1.107305,-0.803284 -1.707028,-0.457034 l -0.04004,0.023435 C 10.165691,5.1212056 9.8432669,4.9345224 9.4997654,4.7949222 v -0.044922 c 0,-0.6925 -0.5575008,-1.25 -1.2500002,-1.25 z"
     style="opacity:0.2;stroke-width:0.5"
     id="path378" />
  <path
     d="m 7.7500002,3.0000001 c -0.6925005,0 -1.2500005,0.5575 -1.2500005,1.25 v 0.043945 c -0.34447,0.1390536 -0.6678905,0.325415 -0.9609375,0.5537107 l -0.03711,-0.021484 C 4.9022302,4.4799219 4.1411715,4.6834807 3.7949217,5.2832031 l -0.25,0.433594 c -0.34625,0.5997225 -0.1426913,1.360781 0.4570312,1.7070314 l 0.041016,0.023435 C 4.0158799,7.6302975 4.0015229,7.814983 4.0000009,8 c 0.00152,0.185017 0.01588,0.369705 0.042968,0.5527345 l -0.041016,0.023435 C 3.4022304,8.9224195 3.1986716,9.6834781 3.5449217,10.283201 l 0.25,0.433594 c 0.3462499,0.599722 1.1073085,0.803281 1.707031,0.457031 l 0.04004,-0.02343 c 0.2920845,0.228404 0.614507,0.415087 0.958008,0.554687 V 12 c 0,0.554 0.535396,1 1.200196,1 h 0.599608 c 0.6647999,0 1.2001957,-0.446 1.2001957,-1 V 11.706055 C 9.8444699,11.567001 10.167891,11.38064 10.460938,11.152344 l 0.03711,0.02149 c 0.599722,0.34625 1.36078,0.142692 1.707031,-0.457031 l 0.249999,-0.433594 C 12.801328,9.6834816 12.59777,8.922423 11.998048,8.576173 L 11.957033,8.552738 C 11.984123,8.3697015 11.998483,8.185017 12.000003,8 11.998503,7.814983 11.984123,7.630295 11.957033,7.447266 l 0.04102,-0.023435 c 0.599722,-0.3462504 0.80328,-1.1073089 0.45703,-1.7070314 L 12.205079,5.2832056 C 11.858832,4.6834801 11.09777,4.4799219 10.498047,4.826172 l -0.04004,0.023437 C 10.165926,4.6212055 9.8435019,4.4345222 9.5000004,4.294922 V 4.25 C 9.5000004,3.5575 8.9424996,3 8.2500002,3 Z"
     style="fill:#4f4f4f;stroke-width:0.5"
     id="path300" />
  <path
     id="path406"
     style="opacity:0.1;fill:#ffffff;stroke-width:0.5"
     d="m 7.7500002,3.0000002 c -0.6924995,0 -1.25,0.5575007 -1.25,1.25 v 0.043946 C 6.1555307,4.432999 5.8321092,4.6193609 5.5390627,4.8476564 l -0.03711,-0.021484 C 4.9022312,4.4799223 4.1411715,4.6834814 3.794922,5.2832031 l -0.25,0.433594 C 3.3854855,5.9929491 3.3446063,6.3025026 3.4033204,6.5908206 3.4298394,6.4627966 3.4757864,6.3365431 3.544922,6.2167971 l 0.25,-0.433594 C 4.1411715,5.1834816 4.9022312,4.9799223 5.5019532,5.3261721 l 0.03711,0.021485 C 5.8321097,5.1193616 6.1555312,4.9329995 6.5000007,4.793946 v -0.043946 c 0,-0.6924993 0.5575005,-1.25 1.25,-1.25 h 0.5 c 0.6924989,0 1.2500002,0.5575007 1.2500002,1.25 v 0.044922 c 0.343501,0.1396001 0.6659261,0.3262836 0.9580081,0.5546871 l 0.04004,-0.023435 c 0.599722,-0.3462496 1.36079,-0.1426935 1.707031,0.4570315 l 0.25,0.4335935 c 0.06914,0.119746 0.115082,0.2459995 0.141601,0.3740235 0.05871,-0.2883175 0.01783,-0.5978715 -0.141601,-0.8740235 l -0.25,-0.4335935 C 11.858837,4.6834783 11.09777,4.4799223 10.498047,4.8261721 l -0.04004,0.023437 C 10.165927,4.6212058 9.8435009,4.4345222 9.5000004,4.2949221 v -0.044922 c 0,-0.6924993 -0.5575013,-1.25 -1.2500002,-1.25 z M 4.0029298,7.9248045 c -6.8e-4,0.025065 -0.00273,0.050117 -0.00293,0.075195 6.85e-4,0.083391 0.00485,0.166865 0.010742,0.25 0.00718,-0.101315 0.017347,-0.202197 0.032226,-0.3027345 z m 7.9941412,0 -0.04004,0.02246 c 0.01488,0.100535 0.02504,0.2014195 0.03222,0.3027345 0.0059,-0.083135 0.01006,-0.1666095 0.01074,-0.25 -2.04e-4,-0.02508 -0.0023,-0.050132 -0.003,-0.075195 z m -7.9941412,0.650391 -9.75e-4,0.001 C 3.5219774,8.853286 3.2970241,9.3960236 3.4033204,9.9091796 3.4721164,9.5713556 3.6783835,9.2629851 4.0019532,9.0761721 l 0.041016,-0.023435 C 4.0195512,8.894516 4.0072512,8.7350385 4.0029292,8.575198 Z m 7.9941412,0 c -0.0043,0.15984 -0.01662,0.319312 -0.04004,0.4775391 l 0.04101,0.023435 c 0.32357,0.186813 0.529837,0.4951835 0.598632,0.8330075 0.106297,-0.513156 -0.118656,-1.0558936 -0.598632,-1.3330076 z" />
  <path
     id="rect639"
     style="fill:#ffffff;stroke-linecap:square;opacity:0.2"
     d="M 4 0 C 1.7840022 0 0 1.7840022 0 4 L 0 5 C 0 2.7840022 1.7840022 1 4 1 L 12 1 C 14.215998 1 16 2.7840022 16 5 L 16 4 C 16 1.7840022 14.215998 0 12 0 L 4 0 z " />
</svg>
