<?xml version="1.0" encoding="UTF-8" standalone="no"?>
<!-- Created with Inkscape (http://www.inkscape.org/) -->

<svg
   width="16"
   height="16"
   viewBox="0 0 16 16"
   version="1.1"
   id="svg5"
   inkscape:version="1.3.2 (091e20ef0f, 2023-11-25, custom)"
   sodipodi:docname="kontact.svg"
   xmlns:inkscape="http://www.inkscape.org/namespaces/inkscape"
   xmlns:sodipodi="http://sodipodi.sourceforge.net/DTD/sodipodi-0.dtd"
   xmlns="http://www.w3.org/2000/svg"
   xmlns:svg="http://www.w3.org/2000/svg">
  <sodipodi:namedview
     id="namedview7"
     pagecolor="#ffffff"
     bordercolor="#000000"
     borderopacity="0.25"
     inkscape:showpageshadow="2"
     inkscape:pageopacity="0.0"
     inkscape:pagecheckerboard="0"
     inkscape:deskcolor="#d1d1d1"
     inkscape:document-units="px"
     showgrid="false"
     inkscape:zoom="49.6875"
     inkscape:cx="7.9899371"
     inkscape:cy="8"
     inkscape:window-width="1920"
     inkscape:window-height="1008"
     inkscape:window-x="0"
     inkscape:window-y="0"
     inkscape:window-maximized="1"
     inkscape:current-layer="svg5" />
  <defs
     id="defs2" />
  <rect
     style="fill:#f5b35d;fill-opacity:1;stroke-width:1.14286;stroke-linecap:square"
     id="rect396"
     width="16"
     height="16"
     x="0"
     y="0"
     ry="4" />
  <path
     d="M 8,4.5002 C 5.7909,4.5002 4.0001,6.291 4.0001,8.5001 4.0001,10.709 5.7909,12.5 8,12.5 h 2.4999 c 0,0 0.4687,0 0.5,-0.5 0,-0.5 -0.5,-0.5 -0.5,-0.5 H 8 C 6.3432,11.5 5.0001,10.1569 5.0001,8.5001 5.0001,6.8433 6.3432,5.5002 8,5.5002 c 1.6568,0 2.9999,1.3431 2.9999,2.9999 v 0.5 c 0,0.2761 -0.2239,0.5 -0.5,0.5 -0.2761,0 -0.5,-0.2239 -0.5,-0.5 v -0.5 c 0,-1.1045 -0.8954,-2 -2,-2 -1.1045,0 -2,0.8954 -2,2 0,1.1045 0.8954,1.9999 2,1.9999 0.5231,0 0.9951,-0.2053 1.3515,-0.5341 0.285,0.3385 0.7055,0.534 1.1485,0.534 0.8282,0 1.5002,-0.6716 1.5002,-1.5 v -0.5 C 12.0001,6.291 10.2089,4.5 7.9999,4.5 Z m 0,2.9999 c 0.5523,0 1,0.4477 1,1 C 9,9.0523 8.5523,9.5 8,9.5 7.4477,9.5 7,9.0523 7,8.5 7,7.9477 7.4477,7.5 8,7.5 Z"
     style="opacity:0.2;fill:#000000"
     id="path1" />
  <path
     style="fill:#4d4d4d;fill-opacity:1"
     d="M 7.9999,4.0002 C 5.7908,4.0002 4,5.791 4,8.0001 4,10.209 5.7908,12 7.9999,12 h 2.4999 c 0,0 0.4687,0 0.5,-0.5 0,-0.5 -0.5,-0.5 -0.5,-0.5 H 7.9999 C 6.3431,11 5,9.6569 5,8.0001 5,6.3433 6.3431,5.0002 7.9999,5.0002 c 1.6568,0 2.9999,1.3431 2.9999,2.9999 v 0.5 c 0,0.2761 -0.2239,0.5 -0.5,0.5 -0.2761,0 -0.5,-0.2239 -0.5,-0.5 v -0.5 c 0,-1.1045 -0.8954,-2 -2,-2 -1.1045,0 -2,0.8954 -2,2 0,1.1045 0.8954,1.9999 2,1.9999 0.5231,0 0.9951,-0.2053 1.3515,-0.5341 0.285,0.3385 0.7055,0.534 1.1485,0.534 0.8282,0 1.5002,-0.6716 1.5002,-1.5 v -0.5 C 12,5.791 10.2088,4 7.9998,4 Z m 0,2.9999 c 0.5523,0 1,0.4477 1,1 0,0.5522 -0.4477,0.9999 -1,0.9999 -0.5523,0 -1,-0.4477 -1,-1 0,-0.5523 0.4477,-1 1,-1 z"
     id="path4" />
  <path
     id="rect639"
     style="fill:#ffffff;stroke-linecap:square;opacity:0.2"
     d="M 4 0 C 1.7840022 0 0 1.7840022 0 4 L 0 5 C 0 2.7840022 1.7840022 1 4 1 L 12 1 C 14.215998 1 16 2.7840022 16 5 L 16 4 C 16 1.7840022 14.215998 0 12 0 L 4 0 z " />
</svg>
