<?xml version="1.0" encoding="UTF-8" standalone="no"?>
<!-- Created with Inkscape (http://www.inkscape.org/) -->

<svg
   width="16"
   height="16"
   viewBox="0 0 16 16"
   version="1.1"
   id="svg5"
   inkscape:version="1.3 (0e150ed6c4, 2023-07-21)"
   sodipodi:docname="krita.svg"
   xmlns:inkscape="http://www.inkscape.org/namespaces/inkscape"
   xmlns:sodipodi="http://sodipodi.sourceforge.net/DTD/sodipodi-0.dtd"
   xmlns="http://www.w3.org/2000/svg"
   xmlns:svg="http://www.w3.org/2000/svg">
  <sodipodi:namedview
     id="namedview7"
     pagecolor="#ffffff"
     bordercolor="#000000"
     borderopacity="0.25"
     inkscape:showpageshadow="2"
     inkscape:pageopacity="0.0"
     inkscape:pagecheckerboard="0"
     inkscape:deskcolor="#d1d1d1"
     inkscape:document-units="px"
     showgrid="false"
     inkscape:zoom="50.1875"
     inkscape:cx="8"
     inkscape:cy="8"
     inkscape:window-width="1850"
     inkscape:window-height="1011"
     inkscape:window-x="70"
     inkscape:window-y="32"
     inkscape:window-maximized="1"
     inkscape:current-layer="svg5" />
  <defs
     id="defs2" />
  <path
     id="rect396"
     style="fill:#e040fb;fill-opacity:1;stroke-width:1.14286;stroke-linecap:square"
     d="M 4 0 C 2.3975815 0 1.0241983 0.93458654 0.38476562 2.2890625 L 8 8 L 15.615234 2.2890625 C 14.975802 0.93458654 13.602418 0 12 0 L 4 0 z M 15.615234 2.2890625 C 15.665225 2.3949541 15.709055 2.5045484 15.75 2.6152344 C 15.709222 2.5042784 15.665292 2.3950959 15.615234 2.2890625 z M 0.38476562 2.2890625 C 0.33470847 2.3950959 0.29077756 2.5042784 0.25 2.6152344 C 0.29094473 2.5045484 0.33477541 2.3949541 0.38476562 2.2890625 z M 0.20898438 2.7285156 C 0.19174552 2.7802112 0.17532548 2.8321416 0.16015625 2.8847656 C 0.17553021 2.8319715 0.19154164 2.7803837 0.20898438 2.7285156 z M 15.791016 2.7285156 C 15.808458 2.7803837 15.82447 2.8319715 15.839844 2.8847656 C 15.824675 2.8321416 15.808254 2.7802112 15.791016 2.7285156 z M 0.09375 3.1386719 C 0.085275721 3.1775519 0.077653606 3.2165586 0.0703125 3.2558594 C 0.077763398 3.2166395 0.085164319 3.1774697 0.09375 3.1386719 z M 15.90625 3.1386719 C 15.914836 3.1774697 15.922237 3.2166395 15.929688 3.2558594 C 15.922346 3.2165586 15.914724 3.1775519 15.90625 3.1386719 z " />
  <path
     id="rect1"
     style="opacity:1;fill:#18ffff;fill-opacity:1"
     d="M 0.38476562 2.2890625 C 0.13992155 2.8077025 0 3.3864207 0 4 L 0 12 C 0 14.215998 1.7840022 16 4 16 L 8 16 L 8 8 L 0.38476562 2.2890625 z " />
  <path
     id="rect2"
     style="opacity:1;fill:#fdfd4b;fill-opacity:1"
     d="M 15.615234 2.2890625 L 8 8 L 8 16 L 12 16 C 14.215998 16 16 14.215998 16 12 L 16 4 C 16 3.3864207 15.860078 2.8077025 15.615234 2.2890625 z " />
  <path
     style="fill:#000000;opacity:0.1"
     d="M 11.320128,9.600313 C 6.8196802,13.547269 3.138763,10.388358 2.568437,9.078 c 0.3372632,2.27441 1.8961922,4.309739 4.2512432,5.09303 1.7786432,0.591566 4.6168688,0.577836 5.8892948,-1.675876 z"
     id="path5-7" />
  <path
     id="rect639"
     style="fill:#ffffff;stroke-linecap:square;opacity:0.2"
     d="M 4 0 C 1.7840022 0 0 1.7840022 0 4 L 0 5 C 0 2.7840022 1.7840022 1 4 1 L 12 1 C 14.215998 1 16 2.7840022 16 5 L 16 4 C 16 1.7840022 14.215998 0 12 0 L 4 0 z " />
  <path
     style="fill:#4883f7"
     d="M 11.320128,9.1 C 6.8196801,13.046956 3.1387629,9.8880444 2.5684369,8.5776867 c 0.3372632,2.2744103 1.8961922,4.3097393 4.2512432,5.0930303 1.7786432,0.591566 4.6168689,0.577836 5.8892949,-1.675876 z"
     id="path5" />
  <path
     style="fill:#000000;opacity:0.1"
     d="M 9.470284,9.161846 C 8.3171593,10.223879 6.0986974,8.539279 5.1623116,7.48127 4.199209,6.3930704 0.60301081,2.7228657 0.34015561,2.4848319 0.07731311,2.246807 -0.13202054,1.9528569 0.10039941,1.6603958 0.34235521,1.3755728 0.67695251,1.5170823 0.96714831,1.7218201 1.2573629,1.9265652 5.637803,4.6423927 6.915303,5.3479969 8.1573511,6.0340266 10.285132,7.8289885 9.470284,9.161846 Z"
     id="path4-0" />
  <path
     style="fill:#000000;opacity:0.1"
     d="m 11.301516,10.595193 c -0.367623,0.165522 -0.327866,0.285159 -0.654283,0.23355 C 10.422099,10.793143 8.4717615,9.339742 8.4717615,9.339742 8.3729055,9.106514 8.4914895,8.785889 8.7142402,8.532125 8.9208386,8.265485 9.215484,8.085251 9.468015,8.132213 c 0,0 1.849043,1.57618 1.930932,1.7854 0.118728,0.303346 -0.0086,0.289792 -0.09743,0.67758 z"
     id="path6-9" />
  <path
     style="fill:#000000;opacity:0.1"
     d="m 11.544963,13.754834 c 1.382501,-0.847027 1.751526,-2.340961 1.205632,-3.420516 -0.424211,-0.838915 -1.120743,-0.997523 -1.601834,-0.591885 -0.477253,0.402403 -0.519325,0.881903 -0.376963,1.358129 0.290324,0.971284 1.491323,1.652523 0.773165,2.654272 z"
     id="path7-3" />
  <path
     style="fill:#4f4f4f"
     d="M 9.470284,8.6618456 C 8.3171593,9.7238787 6.0986974,8.039279 5.1623116,6.98127 4.199209,5.8930704 0.60301082,2.2228657 0.34015562,1.9848319 0.07731312,1.746807 -0.13202055,1.4528569 0.10039942,1.1603958 0.34235522,0.87557284 0.67695252,1.0170823 0.96714832,1.2218201 1.2573629,1.4265652 5.637803,4.1423927 6.915303,4.8479969 8.1573511,5.5340266 10.285132,7.3289885 9.470284,8.6618456 Z"
     id="path4" />
  <path
     style="fill:#9b9b9b"
     d="m 11.301516,10.095193 c -0.367623,0.165522 -0.327866,0.285159 -0.654283,0.23355 C 10.422099,10.293146 8.4717615,8.8397417 8.4717615,8.8397417 8.3729054,8.6065141 8.4914895,8.2858893 8.7142402,8.0321251 8.9208386,7.7654845 9.215484,7.5852509 9.468015,7.6322125 c 0,0 1.849043,1.5761803 1.930932,1.7854003 0.118728,0.3033465 -0.0086,0.2897918 -0.09743,0.6775802 z"
     id="path6" />
  <path
     style="fill:#3f3f3f"
     d="m 11.544963,13.254834 c 1.382501,-0.847027 1.751526,-2.340961 1.205632,-3.4205164 -0.424211,-0.8389142 -1.120743,-0.9975229 -1.601834,-0.5918843 -0.477253,0.4024024 -0.519325,0.8819027 -0.376963,1.3581287 0.290324,0.971284 1.491323,1.652523 0.773165,2.654272 z"
     id="path7" />
</svg>
