<?xml version="1.0" encoding="UTF-8" standalone="no"?>
<!-- Created with Inkscape (http://www.inkscape.org/) -->

<svg
   width="16"
   height="16"
   viewBox="0 0 16 16"
   version="1.1"
   id="svg5"
   inkscape:version="1.2.2 (1:1.2.2+202305151914+b0a8486541)"
   sodipodi:docname="minecraft.svg"
   xmlns:inkscape="http://www.inkscape.org/namespaces/inkscape"
   xmlns:sodipodi="http://sodipodi.sourceforge.net/DTD/sodipodi-0.dtd"
   xmlns="http://www.w3.org/2000/svg"
   xmlns:svg="http://www.w3.org/2000/svg">
  <sodipodi:namedview
     id="namedview7"
     pagecolor="#ffffff"
     bordercolor="#000000"
     borderopacity="0.25"
     inkscape:showpageshadow="2"
     inkscape:pageopacity="0.0"
     inkscape:pagecheckerboard="0"
     inkscape:deskcolor="#d1d1d1"
     inkscape:document-units="px"
     showgrid="false"
     inkscape:zoom="50.375"
     inkscape:cx="7.9900744"
     inkscape:cy="8"
     inkscape:window-width="1920"
     inkscape:window-height="1008"
     inkscape:window-x="0"
     inkscape:window-y="0"
     inkscape:window-maximized="1"
     inkscape:current-layer="svg5" />
  <defs
     id="defs2" />
  <rect
     style="fill:#4caf50;fill-opacity:1;stroke-width:1.14286;stroke-linecap:square"
     id="rect396"
     width="16"
     height="16"
     x="0"
     y="0"
     ry="4" />
  <path
     d="M 3,4 V 7 H 6 V 4 Z M 6,7 V 9 H 4 v 4 h 2 v -2 h 3 v 2 h 2 V 9 H 9 V 7 Z m 3,0 h 3 V 4 H 9 Z"
     style="fill:#212121;fill-opacity:1;stroke-width:1.5"
     id="path1223" />
  <path
     id="path1179"
     style="opacity:0.3;fill:#ffffff;stroke-width:1.5"
     d="M 3,7 V 7.5 H 6 V 7 Z m 6,0 v 0.5 h 3 V 7 Z m -3,4 v 0.5 H 9 V 11 Z m -2,2 v 0.5 H 6 V 13 Z m 5,0 v 0.5 h 2 V 13 Z" />
  <path
     d="M 3,3.5 V 4 H 6 V 3.5 Z m 6,0 V 4 h 3 V 3.5 Z"
     style="opacity:0.3;fill:#000000;stroke-width:1.5"
     id="path1221" />
  <path
     id="rect639"
     style="fill:#ffffff;stroke-linecap:square;opacity:0.2"
     d="M 4 0 C 1.7840022 0 0 1.7840022 0 4 L 0 5 C 0 2.7840022 1.7840022 1 4 1 L 12 1 C 14.215998 1 16 2.7840022 16 5 L 16 4 C 16 1.7840022 14.215998 0 12 0 L 4 0 z " />
</svg>
