<?xml version="1.0" encoding="UTF-8" standalone="no"?>
<!-- Created with Inkscape (http://www.inkscape.org/) -->

<svg
   width="16"
   height="16"
   viewBox="0 0 16 16"
   version="1.1"
   id="svg5"
   inkscape:version="1.3 (0e150ed6c4, 2023-07-21)"
   sodipodi:docname="org.gnome.Adwaita1.Demo.svg"
   xmlns:inkscape="http://www.inkscape.org/namespaces/inkscape"
   xmlns:sodipodi="http://sodipodi.sourceforge.net/DTD/sodipodi-0.dtd"
   xmlns="http://www.w3.org/2000/svg"
   xmlns:svg="http://www.w3.org/2000/svg">
  <sodipodi:namedview
     id="namedview7"
     pagecolor="#ffffff"
     bordercolor="#000000"
     borderopacity="0.25"
     inkscape:showpageshadow="2"
     inkscape:pageopacity="0.0"
     inkscape:pagecheckerboard="0"
     inkscape:deskcolor="#d1d1d1"
     inkscape:document-units="px"
     showgrid="false"
     inkscape:zoom="48.9375"
     inkscape:cx="7.9897829"
     inkscape:cy="8"
     inkscape:window-width="1920"
     inkscape:window-height="984"
     inkscape:window-x="0"
     inkscape:window-y="29"
     inkscape:window-maximized="1"
     inkscape:current-layer="svg5" />
  <defs
     id="defs2" />
  <rect
     style="fill:#48de78;fill-opacity:1;stroke-width:1.14286;stroke-linecap:square"
     id="rect396"
     width="16"
     height="15"
     x="0"
     y="1"
     ry="4" />
  <path
     id="path300"
     style="opacity:1;fill:#3686e3;fill-opacity:1"
     d="m 0,8.0000002 h 16 v -4 C 16,1.784002 14.215998,0 12,0 H 4 C 1.7840022,0 0,1.784002 0,4.0000002 Z" />
  <path
     id="path5"
     style="opacity:0.2;stroke-width:0.5"
     d="M 8,4.4999999 V 8 H 7.5 L 8,8.4999999 10.5,11 11,11.5 v -3 H 10.5 V 8 h -2 L 12,4.5 Z M 8,8.5 H 3 l 5,5 z" />
  <path
     style="fill:#ffffff;stroke-width:0.5"
     d="m 3,8 h 5 v 5 z m 0,0"
     id="path6" />
  <path
     style="fill:#9ae5ff;stroke-width:0.57143"
     d="M 12,4 H 8.0000005 v 4.0000004 z m 0,0"
     id="path7" />
  <path
     style="fill:#97ffbe;stroke-width:0.6"
     d="m 8.0000005,8 h 3.0000005 v 3 z m 0,0"
     id="path8" />
  <path
     id="rect639"
     style="fill:#ffffff;stroke-linecap:square;opacity:0.2"
     d="M 4 0 C 1.7840022 0 0 1.7840022 0 4 L 0 5 C 0 2.7840022 1.7840022 1 4 1 L 12 1 C 14.215998 1 16 2.7840022 16 5 L 16 4 C 16 1.7840022 14.215998 0 12 0 L 4 0 z " />
</svg>
