<?xml version="1.0" encoding="UTF-8" standalone="no"?>
<!-- Created with Inkscape (http://www.inkscape.org/) -->

<svg
   width="16"
   height="16"
   viewBox="0 0 16 16"
   version="1.1"
   id="svg5"
   inkscape:version="1.3 (0e150ed6c4, 2023-07-21)"
   sodipodi:docname="org.gnome.baobab.svg"
   xmlns:inkscape="http://www.inkscape.org/namespaces/inkscape"
   xmlns:sodipodi="http://sodipodi.sourceforge.net/DTD/sodipodi-0.dtd"
   xmlns="http://www.w3.org/2000/svg"
   xmlns:svg="http://www.w3.org/2000/svg">
  <sodipodi:namedview
     id="namedview7"
     pagecolor="#ffffff"
     bordercolor="#000000"
     borderopacity="0.25"
     inkscape:showpageshadow="2"
     inkscape:pageopacity="0.0"
     inkscape:pagecheckerboard="0"
     inkscape:deskcolor="#d1d1d1"
     inkscape:document-units="px"
     showgrid="false"
     inkscape:zoom="45.5625"
     inkscape:cx="8"
     inkscape:cy="8"
     inkscape:window-width="1920"
     inkscape:window-height="937"
     inkscape:window-x="0"
     inkscape:window-y="32"
     inkscape:window-maximized="1"
     inkscape:current-layer="svg5" />
  <defs
     id="defs2" />
  <rect
     style="fill:#fff55d;fill-opacity:1;stroke-width:1.14286;stroke-linecap:square"
     id="rect396"
     width="16"
     height="14"
     x="0"
     y="2"
     ry="4" />
  <path
     id="rect1"
     style="opacity:0.2;fill:#000000"
     d="M 4 0.5 C 1.7840022 0.5 0 2.2840022 0 4.5 L 0 12 C 0 13.235998 0.55624092 14.335746 1.4316406 15.068359 L 8 8.5 L 16 8.5 L 16 4.5 C 16 2.2840022 14.215998 0.5 12 0.5 L 4 0.5 z " />
  <path
     id="rect2"
     style="opacity:1;fill:#4098fe;fill-opacity:1"
     d="M 8 0 L 8 8 L 16 8 L 16 4 C 16 1.7840022 14.215998 0 12 0 L 8 0 z " />
  <path
     id="rect3"
     style="opacity:1;fill:#24db65;fill-opacity:1"
     d="M 4 0 C 1.7840022 0 0 1.7840022 0 4 L 0 12 C 0 13.107999 0.4469226 14.107079 1.1699219 14.830078 L 8 8 L 8 0 L 4 0 z " />
  <path
     id="rect639"
     style="fill:#ffffff;stroke-linecap:square;opacity:0.2"
     d="M 4 0 C 1.7840022 0 0 1.7840022 0 4 L 0 5 C 0 2.7840022 1.7840022 1 4 1 L 12 1 C 14.215998 1 16 2.7840022 16 5 L 16 4 C 16 1.7840022 14.215998 0 12 0 L 4 0 z " />
  <rect
     style="opacity:1;fill:#2379e0;fill-opacity:1"
     id="rect4"
     width="8"
     height="2"
     x="8"
     y="6" />
  <path
     id="rect5"
     style="opacity:1;fill:#25a068;fill-opacity:1"
     d="M 8 7 L 0.71484375 14.285156 C 0.85056193 14.480407 1.0023324 14.662489 1.1699219 14.830078 L 8 8 L 8 7 z " />
</svg>
