<?xml version="1.0" encoding="UTF-8" standalone="no"?>
<!-- Created with Inkscape (http://www.inkscape.org/) -->

<svg
   width="16"
   height="16"
   viewBox="0 0 16 16"
   version="1.1"
   id="svg5"
   inkscape:version="1.2.2 (1:1.2.2+202305151914+b0a8486541)"
   sodipodi:docname="org.gnome.Photos.svg"
   xmlns:inkscape="http://www.inkscape.org/namespaces/inkscape"
   xmlns:sodipodi="http://sodipodi.sourceforge.net/DTD/sodipodi-0.dtd"
   xmlns="http://www.w3.org/2000/svg"
   xmlns:svg="http://www.w3.org/2000/svg">
  <sodipodi:namedview
     id="namedview7"
     pagecolor="#ffffff"
     bordercolor="#000000"
     borderopacity="0.25"
     inkscape:showpageshadow="2"
     inkscape:pageopacity="0.0"
     inkscape:pagecheckerboard="0"
     inkscape:deskcolor="#d1d1d1"
     inkscape:document-units="px"
     showgrid="false"
     inkscape:zoom="50.375"
     inkscape:cx="8"
     inkscape:cy="8"
     inkscape:window-width="1920"
     inkscape:window-height="1008"
     inkscape:window-x="0"
     inkscape:window-y="0"
     inkscape:window-maximized="1"
     inkscape:current-layer="svg5" />
  <defs
     id="defs2" />
  <rect
     style="fill:#4d4d4d;fill-opacity:1;stroke-width:1.14286;stroke-linecap:square"
     id="rect396"
     width="16"
     height="16"
     x="0"
     y="0"
     ry="4" />
  <g
     id="g2457"
     transform="translate(-416.50011,-140.99962)">
    <path
       d="m 424.50006,143.5001 c -0.36994,0 -0.71465,0.10847 -1.00258,0.2953 -0.007,0.005 -0.0143,0.01 -0.0215,0.014 l -3.48746,1.99213 c -0.29718,0.1541 -0.55483,0.3891 -0.7352,0.69842 -0.16696,0.28638 -0.24636,0.59855 -0.24588,0.907 h -0.007 v 4.18582 h 0.0102 c -2.1e-4,0.30858 0.0765,0.62065 0.24348,0.907 0.17378,0.29811 0.42008,0.52791 0.70417,0.68201 0.006,0.004 0.0128,0.008 0.019,0.012 l 3.59967,2.05775 c 0.27123,0.15748 0.58671,0.24843 0.92379,0.24843 0.37111,0 0.71644,-0.10968 1.00493,-0.29765 0.006,-0.004 0.0128,-0.007 0.019,-0.012 l 3.43972,-1.96635 c 0.31675,-0.15278 0.59333,-0.39903 0.78294,-0.7242 0.16696,-0.28638 0.24636,-0.59854 0.24588,-0.90701 h 0.007 v -4.18581 h -0.0102 c 10e-5,-0.30836 -0.0766,-0.62085 -0.24347,-0.90701 -0.17378,-0.29809 -0.42009,-0.52791 -0.70418,-0.68201 -0.0258,-0.014 -0.0523,-0.0294 -0.0788,-0.0422 l -3.53997,-2.02494 C 425.15219,143.59287 424.83744,143.5 424.4999,143.5 Z"
       style="opacity:0.2;fill:#000000;fill-opacity:1;stroke-width:0.741592"
       id="path3729"
       sodipodi:nodetypes="csccsccccscccscccsccccsscccc" />
    <path
       d="m 423.58336,147.42956 -0.91425,0.52266 -1.83088,1.04762 -0.41297,0.23672 -0.50367,0.28592 c -0.87583,0.50058 -1.17406,1.61018 -0.66839,2.47728 0.17379,0.29811 0.42009,0.52792 0.70419,0.68202 0.006,0.004 0.0128,0.006 0.0191,0.0102 l 3.59971,2.05776 1.8476,-3.12412 -2.75469,-1.57497 v -0.002 c -0.002,-0.32073 -0.002,-0.69321 0.002,-0.996 -0.0199,-0.66576 0.32979,-1.28799 0.91188,-1.62183 z"
       style="fill:#3584e4;fill-opacity:1;stroke-width:0.741599"
       id="path4886" />
    <path
       d="m 422.66911,148.99984 v 4.18585 c 0,1.00125 0.81967,1.81399 1.83089,1.81399 0.37113,0 0.71647,-0.10969 1.00497,-0.29764 0.006,-0.004 0.0128,-0.007 0.0191,-0.012 l 3.56152,-2.03662 -1.8476,-3.1218 -2.73559,1.56324 -0.002,-0.002 c -0.29133,-0.16322 -0.58151,-0.32939 -0.8689,-0.49927 -0.59234,-0.31583 -0.96115,-0.92756 -0.96199,-1.59372 z"
       style="fill:#a347ba;fill-opacity:1;stroke-width:0.741599"
       id="path4857" />
    <path
       d="m 426.32373,146.90693 v 3.14523 c -0.28595,0.16673 -0.57433,0.32975 -0.86412,0.48983 -0.57239,0.3501 -1.29314,0.36041 -1.87625,0.0282 l 0.91664,0.52266 1.83089,1.04762 0.41297,0.2367 0.50367,0.28594 c 0.87583,0.50058 1.9936,0.20383 2.49927,-0.66326 0.16695,-0.28637 0.24634,-0.59854 0.24587,-0.907 H 430 v -4.18584 z"
       style="fill:#e83c44;fill-opacity:1;stroke-width:0.741599"
       id="path4827" />
    <path
       id="path4740"
       style="fill:#ff912f;fill-opacity:1;stroke-width:0.741599"
       d="m 425.4238,143.25079 -1.8476,3.12411 2.75469,1.57497 v 0.002 c 0.004,0.3208 0.002,0.69329 -0.002,0.99607 0.0199,0.66577 -0.32978,1.288 -0.91187,1.62185 l 0.91425,-0.52266 1.83088,-1.04763 0.41297,-0.23671 0.50367,-0.28592 c 0.87587,-0.50069 1.17406,-1.61019 0.66839,-2.47729 -0.17378,-0.2981 -0.42009,-0.52791 -0.70419,-0.68201 -0.0258,-0.014 -0.0523,-0.0294 -0.0787,-0.0421 z" />
    <path
       d="m 424.5,143.00001 c -0.36994,0 -0.71464,0.10846 -1.00257,0.29531 -0.007,0.005 -0.0143,0.0102 -0.0215,0.014 l -3.56152,2.03432 1.8476,3.12414 2.73559,-1.56324 0.002,0.002 c 0.29133,0.16315 0.58151,0.32933 0.8689,0.49921 0.59232,0.31581 0.96111,0.9276 0.96199,1.59371 v -4.18583 c 0,-1.00126 -0.81967,-1.81401 -1.83089,-1.81401 z"
       style="fill:#f6d32d;fill-opacity:1;stroke-width:0.741599"
       id="path4770" />
    <path
       id="path4915"
       style="fill:#33d17a;fill-opacity:1;stroke-width:0.741599"
       d="m 420.79764,145.09293 c -0.61831,0.0137 -1.21259,0.33796 -1.54444,0.90699 -0.16695,0.28638 -0.24634,0.59855 -0.24587,0.90701 H 419 v 4.18584 h 0.0167 c -0.002,-0.62916 0.3247,-1.2427 0.91426,-1.57966 l 0.50367,-0.2836 0.41297,-0.23903 c 0,0 2.63771,-1.5023 2.74513,-1.57028 -0.0364,0.0208 -0.0728,0.0448 -0.10743,0.0678 0.0183,-0.0102 0.0365,-0.0203 0.0549,-0.0304 0.5724,-0.35008 1.29317,-0.36047 1.87625,-0.0282 l -0.91664,-0.52264 -1.83089,-1.04762 -0.41297,-0.23672 -0.50367,-0.28591 c -0.30106,-0.17212 -0.63095,-0.25093 -0.95483,-0.24374 z"
       sodipodi:nodetypes="sccccccccccccccccs" />
    <path
       d="m 422.66672,147.95373 v 2.09338 l 1.83328,1.0468 1.83328,-1.0468 v -2.09338 L 424.5,146.90693 Z"
       style="fill:#3e384f;fill-opacity:1;stroke-width:0.741599"
       id="path4798" />
    <path
       id="path3785"
       style="opacity:0.2;fill:#ffffff;fill-opacity:1;stroke-width:0.741592"
       d="m 424.5,142.99968 c -0.36994,0 -0.71598,0.10809 -1.00391,0.29492 -0.007,0.005 -0.0143,0.01 -0.0215,0.0137 l -3.48633,1.99219 c -0.29718,0.1541 -0.55596,0.3899 -0.73633,0.69922 -0.16696,0.28638 -0.24462,0.5978 -0.24414,0.90625 H 419 v 0.50195 h 0.008 c -4.8e-4,-0.30845 0.0791,-0.62182 0.2461,-0.9082 0.18037,-0.30932 0.43719,-0.54317 0.73437,-0.69727 l 3.48828,-1.99218 c 0.007,-0.004 0.0145,-0.0106 0.0215,-0.0156 0.28793,-0.18683 0.63201,-0.29492 1.00195,-0.29492 0.33754,0 0.65242,0.094 0.92383,0.25195 l 3.53906,2.02344 c 0.0265,0.0128 0.0543,0.029 0.0801,0.043 0.28409,0.1541 0.52934,0.38355 0.70312,0.68164 0.16687,0.28616 0.24424,0.59984 0.24414,0.9082 H 430 v -0.50195 h -0.01 c 10e-5,-0.30836 -0.0773,-0.62009 -0.24414,-0.90625 -0.17378,-0.29809 -0.42098,-0.52754 -0.70507,-0.68164 -0.0258,-0.014 -0.0516,-0.0302 -0.0781,-0.043 l -3.53906,-2.02539 c -0.27141,-0.15791 -0.58629,-0.25 -0.92383,-0.25 z" />
  </g>
  <path
     id="rect639"
     style="fill:#ffffff;stroke-linecap:square;opacity:0.2"
     d="M 4 0 C 1.7840022 0 0 1.7840022 0 4 L 0 5 C 0 2.7840022 1.7840022 1 4 1 L 12 1 C 14.215998 1 16 2.7840022 16 5 L 16 4 C 16 1.7840022 14.215998 0 12 0 L 4 0 z " />
</svg>
