<?xml version="1.0" encoding="UTF-8" standalone="no"?>
<!-- Created with Inkscape (http://www.inkscape.org/) -->

<svg
   width="16"
   height="16"
   viewBox="0 0 16 16"
   version="1.1"
   id="svg5"
   inkscape:version="1.2.2 (1:1.2.2+202305151914+b0a8486541)"
   sodipodi:docname="preferences-desktop-color.svg"
   xmlns:inkscape="http://www.inkscape.org/namespaces/inkscape"
   xmlns:sodipodi="http://sodipodi.sourceforge.net/DTD/sodipodi-0.dtd"
   xmlns="http://www.w3.org/2000/svg"
   xmlns:svg="http://www.w3.org/2000/svg">
  <sodipodi:namedview
     id="namedview7"
     pagecolor="#ffffff"
     bordercolor="#000000"
     borderopacity="0.25"
     inkscape:showpageshadow="2"
     inkscape:pageopacity="0.0"
     inkscape:pagecheckerboard="0"
     inkscape:deskcolor="#d1d1d1"
     inkscape:document-units="px"
     showgrid="false"
     inkscape:zoom="50.375"
     inkscape:cx="7.9900744"
     inkscape:cy="8"
     inkscape:window-width="1920"
     inkscape:window-height="1008"
     inkscape:window-x="0"
     inkscape:window-y="0"
     inkscape:window-maximized="1"
     inkscape:current-layer="svg5" />
  <defs
     id="defs2" />
  <rect
     style="fill:#4d4d4d;fill-opacity:1;stroke-width:1.14286;stroke-linecap:square"
     id="rect396"
     width="16"
     height="16"
     x="0"
     y="0"
     ry="4" />
  <path
     d="M 7.9988349,3.5 C 7.1395128,3.50154 6.3597031,4.0719853 6.0023796,4.9604493 5.0712312,4.8326293 4.1980375,5.2387365 3.767182,6.0000001 3.3384624,6.76235 3.4313623,7.738941 4.0049986,8.5 3.4313623,9.261059 3.3384624,10.237652 3.767182,11 4.1978949,11.761466 5.0711185,12.167777 6.0023796,12.040039 6.3598299,12.928312 7.1396118,13.498548 7.9988349,13.5 8.8584949,13.4988 9.6387536,12.928361 9.9962188,12.03955 10.927232,12.167228 11.800143,11.761138 12.230953,11 12.67815,10.207635 12.548012,9.223075 11.982495,8.48291 c 0.0039,0.0051 0.0086,0.0099 0.0125,0.01514 0.57225,-0.760915 0.664403,-1.7364772 0.235957,-2.4980453 -0.362939,-0.6431513 -1.047142,-1.0412749 -1.828504,-1.0639649 -0.134826,-0.0031 -0.27073,0.00509 -0.4062311,0.024415 C 9.6387527,4.07164 8.8584929,3.5011284 7.9988338,3.5000007 Z m 3.4372361,4.447754 c 0.01339,0.0098 0.02571,0.02029 0.03886,0.03028 -0.01315,-0.01 -0.02548,-0.02051 -0.03886,-0.03028 z m 0.198027,0.159668 c 0.02184,0.01938 0.04185,0.0401 0.06292,0.06006 -0.02112,-0.01996 -0.04106,-0.04068 -0.06292,-0.06006 z m 0.182295,0.178711 c 0.01749,0.01879 0.03358,0.03841 0.05045,0.05762 -0.01685,-0.01918 -0.03295,-0.03885 -0.05045,-0.05762 z"
     style="opacity:0.2;fill:#000000;stroke-width:0.486654"
     id="path1897" />
  <g
     id="g1912"
     transform="matrix(0.47366472,0,0,0.5,0.42126264,2e-8)">
    <path
       d="m 24.251822,16 c 0,4.418278 -3.694546,8 -8.251999,8 -4.557454,0 -8.2520002,-3.581722 -8.2520002,-8 0,-4.418278 3.6945462,-8.0000002 8.2520002,-8 4.557453,5e-7 8.251999,3.581723 8.251999,8 z"
       style="fill:#278df2"
       id="path1614" />
    <path
       d="m 20.640822,21 c 0,2.761423 -2.077846,5 -4.640999,5 -2.563154,0 -4.641001,-2.238576 -4.641001,-5 0,-2.761424 2.077847,-5 4.641001,-5 2.563153,0 4.640999,2.238577 4.640999,5 z"
       style="fill:#ffc107"
       id="path1643" />
    <path
       d="m 13.854715,22.397582 c -2.46648,1.380617 -5.5050368,0.754948 -6.7868062,-1.397471 -1.28177,-2.15242 -0.321372,-5.016513 2.1451082,-6.397131 2.46648,-1.380618 5.505037,-0.754949 6.786807,1.397472 1.281768,2.15242 0.321371,5.016512 -2.145109,6.39713 z"
       style="fill:#fb8300"
       id="path1473" />
    <path
       d="m 9.213598,17.397277 c 2.466481,1.380617 5.505038,0.754949 6.786807,-1.397471 1.28177,-2.15242 0.321372,-5.016512 -2.145109,-6.3971303 C 11.388816,8.2220579 8.3502594,8.847727 7.0684898,11.000147 5.7867203,13.152567 6.7471181,16.01666 9.213598,17.397277 Z"
       style="fill:#fa3e30"
       id="path1501" />
    <path
       d="m 15.999847,6 c -2.563417,-2e-7 -4.641476,2.2385761 -4.641476,5 0,2.761424 2.078059,5 4.641476,5 C 14.717872,13.847634 15.678467,10.983291 18.14532,9.602539 18.787466,9.2451754 19.493442,9.0126931 20.215249,8.9208985 19.460824,7.143427 17.814155,6.0024317 15.999847,6 Z m 0,10 c 2.010662,-0.0016 3.791735,-1.39761 4.411819,-3.458008 -0.14458,0.476121 -0.354759,0.926133 -0.623497,1.334961 C 18.16762,13.942573 16.754868,14.734303 15.999847,16 Z m 4.411819,-3.458008 c 0.0435,-0.14522 0.08081,-0.29251 0.111807,-0.441406 -0.031,0.148896 -0.0683,0.296186 -0.111807,0.441406 z M 20.269642,9.053711 c 0.05853,0.1492214 0.110301,0.3014191 0.155118,0.4560545 C 20.37994,9.3551301 20.32818,9.2029324 20.269642,9.053711 Z m 0.162169,0.4765625 c 0.03655,0.1303916 0.06813,0.2623371 0.09468,0.3955071 -0.02655,-0.13317 -0.05813,-0.2651155 -0.09468,-0.3955071 z m 0.120872,0.5175785 c 0.0183,0.105892 0.03341,0.212393 0.04532,0.319336 -0.01191,-0.106943 -0.02702,-0.213444 -0.04532,-0.319336 z m 0.06749,0.518554 c 0.01288,0.144134 0.01993,0.288801 0.02115,0.433594 -0.0012,-0.144793 -0.0083,-0.28946 -0.02115,-0.433594 z m 0.01107,0.654297 c -0.0034,0.109583 -0.01009,0.219018 -0.02014,0.328125 0.01005,-0.109107 0.01677,-0.218542 0.02014,-0.328125 z m -0.03626,0.44336 c -0.01542,0.130035 -0.03558,0.259367 -0.06044,0.387695 0.02486,-0.128328 0.04502,-0.25766 0.06044,-0.387695 z"
       style="fill:#a544c9"
       id="path1529" />
    <path
       d="M 19.859838,13.87207 C 18.210459,13.91731 16.766122,14.713575 16,16 c 2.563416,0 4.641475,2.238576 4.641475,5 -0.0018,0.717949 -0.147129,1.427057 -0.426073,2.079101 1.965069,0.255354 3.807722,-0.556825 4.717021,-2.079101 1.281974,-2.152367 0.321379,-5.016709 -2.145475,-6.397461 -0.90004,-0.503619 -1.920312,-0.758231 -2.92711,-0.730469 z"
       style="fill:#009688"
       id="path1585" />
    <path
       d="m 21.073089,8.8720703 c -1.006933,-0.027655 -2.027304,0.2271295 -2.927364,0.7309573 -2.466386,1.3807004 -3.426907,4.2444934 -2.145474,6.3967294 0.766167,-1.286255 2.210333,-2.082449 3.859587,-2.127687 1.006798,-0.02776 2.02707,0.22685 2.92711,0.730469 0.66311,0.371158 1.216253,0.850154 1.647383,1.393067 C 25.642044,14.473954 25.836655,12.523086 24.932674,11 24.166595,9.7136416 22.72237,8.9173875 21.073089,8.8720703 Z M 16.000251,16 c 0.756147,1.267563 2.171879,2.059635 3.795122,2.123292 C 18.955299,16.839436 17.569186,16.00009 16.000251,16 Z"
       style="fill:#03a9f4"
       id="path1557" />
    <path
       d="m 16.000485,15.999756 c -7.9997742,8.000162 -3.999887,4.000082 0,0 z m 0,2.44e-4 c 0.814377,1.61694 2.214779,2.317036 3.795122,2.123291 C 18.955533,16.839435 17.56942,16.00009 16.000485,16 Z"
       style="fill:#ffc107"
       id="path1671" />
  </g>
  <path
     id="path1935"
     style="opacity:0.2;fill:#ffffff;stroke-width:0.486654"
     d="M 7.9989732,3 C 7.1396501,3.0015382 6.3598735,3.5724742 6.0025504,4.4609375 5.0714028,4.3331174 4.1982995,4.7387372 3.7674448,5.5000001 3.5471506,5.8917268 3.4652756,6.3395796 3.5148852,6.786133 3.5463982,6.5116336 3.6298973,6.2445871 3.7674448,6.0000001 4.1982995,5.2387375 5.0714031,4.8331174 6.0025504,4.9609375 6.3598735,4.0724742 7.1396501,3.50154 7.9989732,3.5 c 0.859657,0.00113 1.6398853,0.5721273 1.9973488,1.4609375 0.1355,-0.01933 0.271304,-0.027514 0.406129,-0.024414 0.78136,0.02269 1.466038,0.4203255 1.828975,1.0634767 0.138104,0.2454806 0.220356,0.5134695 0.251635,0.7890624 0.05019,-0.4474837 -0.03083,-0.8965797 -0.251635,-1.2890624 -0.362937,-0.6431511 -1.047615,-1.0407867 -1.828975,-1.0634767 -0.134825,-0.0031 -0.270629,0.00508 -0.406129,0.024414 C 9.6388585,3.5721274 8.8586302,3.0011277 7.9989732,3 Z m 4.1602928,5.248047 c -0.04986,0.08506 -0.103025,0.169259 -0.163747,0.25 -0.0039,-0.0052 -0.009,-0.0095 -0.01295,-0.01465 0.281073,0.367877 0.454726,0.795451 0.503269,1.2304685 C 12.543219,9.215864 12.424629,8.700672 12.159267,8.248045 Z M 3.8396048,8.249997 C 3.569797,8.709453 3.4586168,9.223726 3.5148852,9.7138645 3.5618222,9.291371 3.7263248,8.869991 4.0052023,8.499997 3.9442273,8.4191 3.8896671,8.335248 3.8396048,8.249997 Z" />
  <path
     id="rect639"
     style="fill:#ffffff;stroke-linecap:square;opacity:0.1"
     d="M 4 0 C 1.7840022 0 0 1.7840022 0 4 L 0 5 C 0 2.7840022 1.7840022 1 4 1 L 12 1 C 14.215998 1 16 2.7840022 16 5 L 16 4 C 16 1.7840022 14.215998 0 12 0 L 4 0 z " />
</svg>
