<?xml version="1.0" encoding="UTF-8" standalone="no"?>
<!-- Created with Inkscape (http://www.inkscape.org/) -->

<svg
   width="16"
   height="16"
   viewBox="0 0 16 16"
   version="1.1"
   id="svg5"
   inkscape:version="1.3.2 (091e20ef0f, 2023-11-25, custom)"
   sodipodi:docname="preferences-desktop-tablet.svg"
   xmlns:inkscape="http://www.inkscape.org/namespaces/inkscape"
   xmlns:sodipodi="http://sodipodi.sourceforge.net/DTD/sodipodi-0.dtd"
   xmlns="http://www.w3.org/2000/svg"
   xmlns:svg="http://www.w3.org/2000/svg">
  <sodipodi:namedview
     id="namedview7"
     pagecolor="#ffffff"
     bordercolor="#000000"
     borderopacity="0.25"
     inkscape:showpageshadow="2"
     inkscape:pageopacity="0.0"
     inkscape:pagecheckerboard="0"
     inkscape:deskcolor="#d1d1d1"
     inkscape:document-units="px"
     showgrid="false"
     inkscape:zoom="50.25"
     inkscape:cx="8"
     inkscape:cy="8"
     inkscape:window-width="1920"
     inkscape:window-height="1008"
     inkscape:window-x="0"
     inkscape:window-y="0"
     inkscape:window-maximized="1"
     inkscape:current-layer="svg5" />
  <defs
     id="defs2" />
  <rect
     style="fill:#bdbdbd;fill-opacity:1;stroke-width:1.14286;stroke-linecap:square"
     id="rect396"
     width="16"
     height="16"
     x="0"
     y="0"
     ry="4" />
  <path
     id="path5511"
     style="opacity:0.2;fill:#000000"
     d="M 4 0 C 1.7840022 0 0 1.7840022 0 4 L 0 12 C 0 14.215998 1.7840022 16 4 16 L 4 0 z " />
  <path
     id="rect639"
     style="fill:#ffffff;stroke-linecap:square;opacity:0.2"
     d="M 4 0 C 1.7840022 0 0 1.7840022 0 4 L 0 5 C 0 2.7840022 1.7840022 1 4 1 L 12 1 C 14.215998 1 16 2.7840022 16 5 L 16 4 C 16 1.7840022 14.215998 0 12 0 L 4 0 z " />
  <path
     d="m 14.572111,1.5005823 c -0.275,-0.013 -0.484,0.196 -0.484,0.196 l -7.0880001,7.088 v 1.7149997 h 1.715 L 15.803111,3.4115823 c 0,0 0.443,-0.443 0,-0.886 l -0.83,-0.829 c -0.138,-0.1380001 -0.276,-0.19 -0.401,-0.196 z"
     style="opacity:0.2;fill:#000000"
     id="path4963" />
  <path
     d="m 14.572111,1.0005823 c -0.275,-0.0130001 -0.484,0.196 -0.484,0.196 l -7.0880001,7.088 V 9.999582 h 1.715 L 15.803111,2.9115823 c 0,0 0.443,-0.443 0,-0.8860001 l -0.83,-0.8289999 c -0.138,-0.138 -0.276,-0.19 -0.401,-0.196 z"
     style="fill:#4f4f4f"
     id="path4935" />
</svg>
