<?xml version="1.0" encoding="UTF-8" standalone="no"?>
<!-- Created with Inkscape (http://www.inkscape.org/) -->

<svg
   width="16"
   height="16"
   viewBox="0 0 16 16"
   version="1.1"
   id="svg5"
   inkscape:version="1.3 (0e150ed6c4, 2023-07-21)"
   sodipodi:docname="preferences-desktop-gaming.svg"
   xmlns:inkscape="http://www.inkscape.org/namespaces/inkscape"
   xmlns:sodipodi="http://sodipodi.sourceforge.net/DTD/sodipodi-0.dtd"
   xmlns="http://www.w3.org/2000/svg"
   xmlns:svg="http://www.w3.org/2000/svg">
  <sodipodi:namedview
     id="namedview7"
     pagecolor="#ffffff"
     bordercolor="#000000"
     borderopacity="0.25"
     inkscape:showpageshadow="2"
     inkscape:pageopacity="0.0"
     inkscape:pagecheckerboard="0"
     inkscape:deskcolor="#d1d1d1"
     inkscape:document-units="px"
     showgrid="false"
     inkscape:zoom="50.1875"
     inkscape:cx="8"
     inkscape:cy="8"
     inkscape:window-width="1850"
     inkscape:window-height="1011"
     inkscape:window-x="70"
     inkscape:window-y="32"
     inkscape:window-maximized="1"
     inkscape:current-layer="svg5" />
  <defs
     id="defs2" />
  <rect
     style="fill:#e4e4e4;fill-opacity:1;stroke-width:1.14286;stroke-linecap:square"
     id="rect396"
     width="16"
     height="16"
     x="0"
     y="0"
     ry="4" />
  <path
     d="m 10.25027,5.49979 c 2.30152,0 2.7752,-0.26972 2.9715,1.2913 l 0.7302,4.02242 c 0.0304,0.1436 0.0464,0.78951 0.0484,0.93628 0,1.24263 -0.931,1.68909 -1.50008,1.75 -0.85276,0.005 -1.31027,-0.37324 -1.66009,-1.20749 L 10.10038,10.49989 H 5.7501 c -2.09124,0 -2.25002,-0.92258 -2.25002,-3.0001 0,-1.3687 -0.55461,-2 2.25002,-2 z"
     style="opacity:0.1;fill:#000000;fill-opacity:1;stroke-width:1.50002;stroke-linecap:square"
     id="path4021" />
  <path
     d="m 10.25027,5 c 2.30152,0 2.7752,-0.26972 2.9715,1.2913 l 0.7302,4.02242 c 0.0304,0.1436 0.0464,0.78951 0.0484,0.93628 0,1.24263 -0.931,1.68909 -1.50008,1.75 -0.85276,0.005 -1.31027,-0.37324 -1.66009,-1.20749 L 10.10038,10.0001 H 5.7501 C 3.65886,10.0001 3.50008,9.07752 3.50008,7 3.50008,5.6313 2.94547,5 5.7501,5 Z"
     style="fill:#b8b8b8;fill-opacity:1;stroke-width:1.50002;stroke-linecap:square"
     id="path3717"
     sodipodi:nodetypes="sccccccssss" />
  <path
     d="M 5.7501,4.5 C 3.44858,4.5 2.98038,5.61821 2.78408,7.17923 L 2.0484,10.81372 C 2.018,10.95732 2.002,11.60323 2,11.75 c 0,1.24263 0.931,1.68909 1.50008,1.75 0.85276,0.005 1.31027,-0.37324 1.66009,-1.20749 L 6.20008,9.5 h 4.8 c 1.65097,0 2.25022,-0.4225 2.25022,-2.5 0,-1.3687 -0.62722,-2.5 -2.25022,-2.5 z"
     style="opacity:0.2;fill:#000000;fill-opacity:1;stroke-width:1.50002;stroke-linecap:square"
     id="path4049" />
  <path
     d="M 5.7501,4 C 3.44858,4 2.98038,5.11821 2.78408,6.67923 L 2.0484,10.31372 C 2.018,10.45732 2.002,11.10323 2,11.25 2,12.49263 2.931,12.93909 3.50008,13 4.35284,13.005 4.81035,12.62676 5.16017,11.79251 L 6.20008,9 h 4.8 C 12.65105,9 13.2503,8.5775 13.2503,6.5 13.2503,5.1313 12.62308,4 11.00008,4 Z"
     style="fill:#6f6f6f;fill-opacity:1;stroke-width:1.50002;stroke-linecap:square"
     id="path3661"
     sodipodi:nodetypes="sccccccssss" />
  <path
     id="path4077"
     style="opacity:0.2;fill:#000000;stroke-width:2"
     d="m 5,5.5 v 1 H 4 v 1 h 1 v 1 h 1 v -1 h 1 v -1 H 6 v -1 z m 5.5,0 A 0.5,0.49989319 0 0 0 10,6 0.5,0.49989319 0 0 0 10.5,6.5 0.5,0.49989319 0 0 0 11,6 0.5,0.49989319 0 0 0 10.5,5.5 Z m -1,1 A 0.5,0.49989319 0 0 0 9,7 0.5,0.49989319 0 0 0 9.5,7.5 0.5,0.49989319 0 0 0 10,7 0.5,0.49989319 0 0 0 9.5,6.5 Z m 2,0 A 0.5,0.49989319 0 0 0 11,7 0.5,0.49989319 0 0 0 11.5,7.5 0.5,0.49989319 0 0 0 12,7 0.5,0.49989319 0 0 0 11.5,6.5 Z m -1,1 A 0.5,0.49989319 0 0 0 10,8 0.5,0.49989319 0 0 0 10.5,8.5 0.5,0.49989319 0 0 0 11,8 0.5,0.49989319 0 0 0 10.5,7.5 Z" />
  <path
     id="path4105"
     style="fill:#ffffff;stroke-width:2"
     d="M 5,5 V 6 H 4 V 7 H 5 V 8 H 6 V 7 H 7 V 6 H 6 V 5 Z m 5.5,0 C 10.22382,5 9.99994,5.22387 10,5.5 9.99994,5.77613 10.22382,6 10.5,6 10.77618,6 11.00006,5.77613 11,5.5 11.00006,5.22387 10.77618,5 10.5,5 Z m -1,1 C 9.22382,6 8.99994,6.22387 9,6.5 8.99994,6.77613 9.22382,7 9.5,7 9.77618,7 10.00006,6.77613 10,6.5 10.00006,6.22387 9.77618,6 9.5,6 Z m 2,0 C 11.22382,6 10.99994,6.22387 11,6.5 10.99994,6.77613 11.22382,7 11.5,7 11.77618,7 12.00006,6.77613 12,6.5 12.00006,6.22387 11.77618,6 11.5,6 Z m -1,1 C 10.22382,7 9.99994,7.22387 10,7.5 9.99994,7.77613 10.22382,8 10.5,8 10.77618,8 11.00006,7.77613 11,7.5 11.00006,7.22387 10.77618,7 10.5,7 Z"
     sodipodi:nodetypes="cccccccccccccscscsscscsscscsscscs" />
  <path
     id="rect639"
     style="fill:#ffffff;stroke-linecap:square;opacity:0.2"
     d="M 4 0 C 1.7840022 0 0 1.7840022 0 4 L 0 5 C 0 2.7840022 1.7840022 1 4 1 L 12 1 C 14.215998 1 16 2.7840022 16 5 L 16 4 C 16 1.7840022 14.215998 0 12 0 L 4 0 z " />
</svg>
