<?xml version="1.0" encoding="UTF-8" standalone="no"?>
<!-- Created with Inkscape (http://www.inkscape.org/) -->

<svg
   width="16"
   height="16"
   viewBox="0 0 16 16"
   version="1.1"
   id="svg5"
   inkscape:version="1.2.2 (1:1.2.2+202305151914+b0a8486541)"
   sodipodi:docname="preferences-desktop.svg"
   xmlns:inkscape="http://www.inkscape.org/namespaces/inkscape"
   xmlns:sodipodi="http://sodipodi.sourceforge.net/DTD/sodipodi-0.dtd"
   xmlns="http://www.w3.org/2000/svg"
   xmlns:svg="http://www.w3.org/2000/svg">
  <sodipodi:namedview
     id="namedview7"
     pagecolor="#ffffff"
     bordercolor="#000000"
     borderopacity="0.25"
     inkscape:showpageshadow="2"
     inkscape:pageopacity="0.0"
     inkscape:pagecheckerboard="0"
     inkscape:deskcolor="#d1d1d1"
     inkscape:document-units="px"
     showgrid="false"
     inkscape:zoom="50.375"
     inkscape:cx="7.9900744"
     inkscape:cy="8"
     inkscape:window-width="1920"
     inkscape:window-height="1008"
     inkscape:window-x="0"
     inkscape:window-y="0"
     inkscape:window-maximized="1"
     inkscape:current-layer="svg5" />
  <defs
     id="defs2" />
  <rect
     style="fill:#e4e4e4;fill-opacity:1;stroke-width:1.14286;stroke-linecap:square"
     id="rect396"
     width="16"
     height="16"
     x="0"
     y="0"
     ry="4" />
  <path
     id="rect398"
     style="fill:#b6b6b6;fill-opacity:1;stroke-width:5;stroke-linecap:round;stroke-linejoin:round"
     d="M 8 3 C 7.4459706 3 7 3.4459706 7 4 L 7 10 C 7 10 9 10.00018 9 10 L 9 4 C 9 3.4459706 8.5540294 3 8 3 z M 13 3 C 12.446001 3 12 3.4459706 12 4 L 12 8 L 14 8 L 14 4 C 14 3.4459706 13.553999 3 13 3 z " />
  <path
     d="m 8.0000002,3 c -0.554,0 -1,0.446 -1,1 v 0.5 c 0,-0.554 0.446,-1 1,-1 0.554,0 1,0.446 1,1 V 4 c 0,-0.554 -0.446,-1 -1,-1 z M 13,3 c -0.554,0 -1,0.446 -1,1 v 0.5 c 0,-0.554 0.446,-1 1,-1 0.554,0 1,0.446 1,1 V 4 C 14,3.446 13.554,3 13,3 Z"
     style="opacity:0.2;fill:#000000;fill-opacity:1;stroke-width:5;stroke-linecap:round;stroke-linejoin:round"
     id="path589" />
  <rect
     style="fill:#3584e4;fill-opacity:1;stroke-width:5;stroke-linecap:round;stroke-linejoin:round"
     id="rect451"
     width="2"
     height="10"
     x="1.999944"
     y="3"
     ry="1.0000536" />
  <path
     id="rect453"
     style="fill:#3584e4;fill-opacity:1;stroke-width:5;stroke-linecap:round;stroke-linejoin:round"
     d="m 9.000055,10.000405 v 1.9999 c 0,0.55403 -0.446,1.00005 -1,1.00005 -0.554,0 -1,-0.44602 -1,-1.00005 v -1.9999 c -1.1e-4,-2.3e-4 2,0 2,0 z"
     sodipodi:nodetypes="cssscc" />
  <path
     id="rect458"
     style="fill:#3584e4;fill-opacity:1;stroke-width:5;stroke-linecap:round;stroke-linejoin:round"
     d="m 14.000055,8.0004042 v 3.9999008 c 0,0.55403 -0.446,1.00005 -1,1.00005 -0.554,0 -1,-0.44602 -1,-1.00005 V 8.0004042 Z"
     sodipodi:nodetypes="cssscc" />
  <path
     d="m 3.000055,3.5003542 c -1.10457,0 -2,0.89543 -2,2 0,1.10457 0.89543,2 2,2 1.10457,0 2,-0.89543 2,-2 0,-1.10457 -0.89543,-2 -2,-2 z m 10,3 c -1.10457,0 -2,0.89543 -2,2 0,1.1045705 0.89543,2.0000008 2,2.0000008 1.10457,0 2,-0.8954303 2,-2.0000008 0,-1.10457 -0.89543,-2 -2,-2 z m -5,2 c -1.10457,0 -2,0.89543 -2,2.0000008 0,1.10457 0.89543,2 2,2 1.10457,0 2,-0.89543 2,-2 0,-1.1045708 -0.89543,-2.0000008 -2,-2.0000008 z"
     style="opacity:0.2;fill:#000000;fill-opacity:1;stroke-width:5;stroke-linecap:round;stroke-linejoin:round"
     id="path2347" />
  <path
     id="path2293"
     style="fill:#ffffff;fill-opacity:1;stroke-width:5;stroke-linecap:round;stroke-linejoin:round"
     d="m 3.000045,3.0001742 a 2,2 0 0 0 -2,2 2,2 0 0 0 2,2 2,2 0 0 0 2,-2 2,2 0 0 0 -2,-2 z m 10,3 a 2,2 0 0 0 -2,2 2,2 0 0 0 2,2.0000008 2,2 0 0 0 2,-2.0000008 2,2 0 0 0 -2,-2 z m -5,2 a 2,2 0 0 0 -2,2.0000008 2,2 0 0 0 2,2 2,2 0 0 0 2,-2 2,2 0 0 0 -2,-2.0000008 z" />
  <path
     id="rect639"
     style="fill:#ffffff;stroke-linecap:square;opacity:0.2"
     d="M 4 0 C 1.7840022 0 0 1.7840022 0 4 L 0 5 C 0 2.7840022 1.7840022 1 4 1 L 12 1 C 14.215998 1 16 2.7840022 16 5 L 16 4 C 16 1.7840022 14.215998 0 12 0 L 4 0 z " />
</svg>
