<?xml version="1.0" encoding="UTF-8" standalone="no"?>
<!-- Created with Inkscape (http://www.inkscape.org/) -->

<svg
   width="16"
   height="16"
   viewBox="0 0 16 16"
   version="1.1"
   id="svg5"
   inkscape:version="1.3 (0e150ed6c4, 2023-07-21)"
   sodipodi:docname="qvidcap.svg"
   xmlns:inkscape="http://www.inkscape.org/namespaces/inkscape"
   xmlns:sodipodi="http://sodipodi.sourceforge.net/DTD/sodipodi-0.dtd"
   xmlns="http://www.w3.org/2000/svg"
   xmlns:svg="http://www.w3.org/2000/svg">
  <sodipodi:namedview
     id="namedview7"
     pagecolor="#ffffff"
     bordercolor="#000000"
     borderopacity="0.25"
     inkscape:showpageshadow="2"
     inkscape:pageopacity="0.0"
     inkscape:pagecheckerboard="0"
     inkscape:deskcolor="#d1d1d1"
     inkscape:document-units="px"
     showgrid="false"
     inkscape:zoom="50"
     inkscape:cx="7.99"
     inkscape:cy="8"
     inkscape:window-width="1920"
     inkscape:window-height="1004"
     inkscape:window-x="0"
     inkscape:window-y="0"
     inkscape:window-maximized="1"
     inkscape:current-layer="svg5"
     showguides="false" />
  <defs
     id="defs2" />
  <rect
     style="fill:#ded4c3;fill-opacity:1;stroke-width:1.14286;stroke-linecap:square"
     id="rect396"
     width="16"
     height="16"
     x="0"
     y="0"
     ry="4" />
  <rect
     style="opacity:0.2;fill:#000000"
     width="2"
     height="3.5"
     x="10"
     y="9"
     id="rect1" />
  <rect
     style="opacity:0.2;fill:#000000"
     width="2"
     height="3.5"
     x="4"
     y="9"
     id="rect2" />
  <rect
     style="fill:#3f3f3f"
     width="2"
     height="3.5"
     x="10"
     y="8.5"
     id="rect3" />
  <rect
     style="fill:#3f3f3f"
     width="2"
     height="3.5"
     x="4"
     y="8.5"
     id="rect4" />
  <rect
     style="opacity:0.2;fill:#000000"
     width="8"
     height="10"
     x="-11.5"
     y="-13"
     ry="1"
     transform="matrix(0,-1,-1,0,0,0)"
     id="rect5" />
  <rect
     style="fill:#89774f"
     width="8"
     height="10"
     x="-11"
     y="-13"
     ry="1"
     transform="matrix(0,-1,-1,0,0,0)"
     id="rect6" />
  <rect
     style="opacity:0.2;fill:#000000"
     width="8"
     height="6"
     x="4"
     y="4.5"
     ry="0.75"
     id="rect7" />
  <rect
     style="fill:#d4cebf"
     width="8"
     height="6"
     x="4"
     y="4"
     ry="0.75"
     id="rect8" />
  <path
     id="path8"
     style="opacity:0.1;fill:#ffffff"
     d="M 4,3 C 3.446002,3 3,3.446002 3,4 v 0.5 c 0,-0.553998 0.446002,-1 1,-1 h 8 c 0.553998,0 1,0.446002 1,1 V 4 C 13,3.446002 12.553998,3 12,3 Z" />
  <path
     id="path9"
     style="opacity:0.2;fill:#ffffff"
     d="M 4.75,4 C 4.3345,4 4,4.3345 4,4.75 v 0.5 C 4,4.8345 4.3345,4.5 4.75,4.5 h 6.5 C 11.6655,4.5 12,4.8345 12,5.25 V 4.75 C 12,4.3345 11.6655,4 11.25,4 Z" />
  <path
     id="rect639"
     style="fill:#ffffff;stroke-linecap:square;opacity:0.2"
     d="M 4 0 C 1.7840022 0 0 1.7840022 0 4 L 0 5 C 0 2.7840022 1.7840022 1 4 1 L 12 1 C 14.215998 1 16 2.7840022 16 5 L 16 4 C 16 1.7840022 14.215998 0 12 0 L 4 0 z " />
</svg>
