<?xml version="1.0" encoding="UTF-8" standalone="no"?>
<!-- Created with Inkscape (http://www.inkscape.org/) -->

<svg
   width="16"
   height="16"
   viewBox="0 0 16 16"
   version="1.1"
   id="svg5"
   inkscape:version="1.3 (0e150ed6c4, 2023-07-21)"
   sodipodi:docname="reddit.svg"
   xmlns:inkscape="http://www.inkscape.org/namespaces/inkscape"
   xmlns:sodipodi="http://sodipodi.sourceforge.net/DTD/sodipodi-0.dtd"
   xmlns="http://www.w3.org/2000/svg"
   xmlns:svg="http://www.w3.org/2000/svg">
  <sodipodi:namedview
     id="namedview7"
     pagecolor="#ffffff"
     bordercolor="#000000"
     borderopacity="0.25"
     inkscape:showpageshadow="2"
     inkscape:pageopacity="0.0"
     inkscape:pagecheckerboard="0"
     inkscape:deskcolor="#d1d1d1"
     inkscape:document-units="px"
     showgrid="false"
     inkscape:zoom="48.9375"
     inkscape:cx="7.9897829"
     inkscape:cy="8"
     inkscape:window-width="1920"
     inkscape:window-height="984"
     inkscape:window-x="0"
     inkscape:window-y="29"
     inkscape:window-maximized="1"
     inkscape:current-layer="svg5" />
  <defs
     id="defs2" />
  <rect
     style="fill:#ff5836;fill-opacity:1;stroke-width:1.14286;stroke-linecap:square"
     id="rect396"
     width="16"
     height="16"
     x="0"
     y="0"
     ry="4" />
  <path
     style="fill:#000000;opacity:0.2"
     d="m 8.4999999,3.5000071 a 0.50005002,0.49997122 0 0 0 -0.046874,0.00195 0.50005002,0.49997122 0 0 0 -0.451172,0.427667 L 7.6367192,6.5171071 A 4.0000003,3.4994487 0 0 0 4.8027347,7.9055601 1,0.99984245 0 0 0 4.0000001,7.501327 1,0.99984245 0 0 0 3,8.5011693 1,0.99984245 0 0 0 4.0000001,9.501012 1,0.99984245 0 0 0 4.0468751,9.4990621 4.0000003,3.4994487 0 0 0 4.0000001,10.000936 4.0000003,3.4994487 0 0 0 8.0000003,13.500385 4.0000003,3.4994487 0 0 0 12,10.000936 4.0000003,3.4994487 0 0 0 11.95507,9.4990621 1,0.99984245 0 0 0 12,9.501012 1,0.99984245 0 0 0 13,8.5011693 1,0.99984245 0 0 0 12,7.501327 1,0.99984245 0 0 0 11.197267,7.9055601 4.0000003,3.4994487 0 0 0 8.6425786,6.5522576 L 8.9238287,4.5955348 10.054689,4.8240143 a 1,0.99984245 0 0 0 0.945312,0.6776276 1,0.99984245 0 0 0 1,-0.9998424 1,0.99984245 0 0 0 -1,-0.9998424 1,0.99984245 0 0 0 -0.75,0.3397902 L 8.5996093,3.5097712 a 0.50005002,0.49997122 0 0 0 -0.09961,-0.00976 z m -2.5,5.001165 H 6.4999997 6.9999998 V 9.0010935 9.501015 H 6.4999997 5.9999999 V 9.0010935 Z m 3.0000002,0 H 9.4999999 10 V 9.0010935 9.501015 H 9.4999999 9.0000001 V 9.0010935 Z M 6.0019527,10.491093 a 0.50005002,0.49997122 0 0 1 0.4199223,0.23629 c 0,0 0.4465685,0.745037 1.5878907,0.775269 1.116651,0.0277 1.5644531,-0.759646 1.5644531,-0.759646 a 0.50006643,0.49998762 0 1 1 0.8554692,0.517497 c -1e-6,0 -0.8169762,1.280473 -2.4433599,1.240039 C 6.384616,12.458982 5.5800777,11.274173 5.5800777,11.274174 a 0.50005002,0.49997122 0 0 1 0.421875,-0.783081 z"
     id="path1" />
  <path
     style="fill:#ffffff"
     d="m 8.4999999,3.0000071 a 0.50005002,0.49997122 0 0 0 -0.046874,0.00195 0.50005002,0.49997122 0 0 0 -0.451172,0.427667 L 7.6367192,6.0171071 A 4.0000003,3.4994487 0 0 0 4.8027347,7.4055601 1,0.99984245 0 0 0 4.0000001,7.001327 1,0.99984245 0 0 0 3,8.0011693 1,0.99984245 0 0 0 4.0000001,9.0010121 1,0.99984245 0 0 0 4.0468751,8.9990621 4.0000003,3.4994487 0 0 0 4.0000001,9.5009361 4.0000003,3.4994487 0 0 0 8.0000003,13.000385 4.0000003,3.4994487 0 0 0 12,9.5009361 4.0000003,3.4994487 0 0 0 11.95507,8.9990621 1,0.99984245 0 0 0 12,9.0010121 1,0.99984245 0 0 0 13,8.0011693 1,0.99984245 0 0 0 12,7.001327 1,0.99984245 0 0 0 11.197267,7.4055601 4.0000003,3.4994487 0 0 0 8.6425786,6.0522576 L 8.9238287,4.0955348 10.054689,4.3240143 a 1,0.99984245 0 0 0 0.945312,0.6776276 1,0.99984245 0 0 0 1,-0.9998424 1,0.99984245 0 0 0 -1,-0.9998424 1,0.99984245 0 0 0 -0.75,0.3397902 L 8.5996093,3.0097712 a 0.50005002,0.49997122 0 0 0 -0.09961,-0.00976 z m -2.5,5.001165 H 6.4999997 6.9999998 V 8.5010935 9.0010149 H 6.4999997 5.9999999 V 8.5010935 Z M 9,8.0011721 H 9.5 10 V 8.5010935 9.0010149 H 9.5 9 V 8.5010935 Z M 6.0019527,9.9910933 A 0.50005002,0.49997122 0 0 1 6.421875,10.227383 c 0,0 0.4465685,0.745037 1.5878907,0.775269 1.1166513,0.0277 1.5644533,-0.759646 1.5644533,-0.759646 a 0.50006643,0.49998762 0 1 1 0.855469,0.517497 c -1e-6,0 -0.816976,1.280473 -2.4433599,1.240039 C 6.384616,11.958982 5.5800777,10.774173 5.5800777,10.774174 a 0.50005002,0.49997122 0 0 1 0.421875,-0.7830807 z"
     id="path2" />
  <path
     id="rect639"
     style="fill:#ffffff;stroke-linecap:square;opacity:0.2"
     d="M 4 0 C 1.7840022 0 0 1.7840022 0 4 L 0 5 C 0 2.7840022 1.7840022 1 4 1 L 12 1 C 14.215998 1 16 2.7840022 16 5 L 16 4 C 16 1.7840022 14.215998 0 12 0 L 4 0 z " />
</svg>
