<?xml version="1.0" encoding="UTF-8" standalone="no"?>
<!-- Created with Inkscape (http://www.inkscape.org/) -->

<svg
   width="16"
   height="16"
   viewBox="0 0 16 16"
   version="1.1"
   id="svg5"
   inkscape:version="1.2.2 (1:1.2.2+202305151914+b0a8486541)"
   sodipodi:docname="scrcpy.svg"
   xmlns:inkscape="http://www.inkscape.org/namespaces/inkscape"
   xmlns:sodipodi="http://sodipodi.sourceforge.net/DTD/sodipodi-0.dtd"
   xmlns="http://www.w3.org/2000/svg"
   xmlns:svg="http://www.w3.org/2000/svg">
  <sodipodi:namedview
     id="namedview7"
     pagecolor="#ffffff"
     bordercolor="#000000"
     borderopacity="0.25"
     inkscape:showpageshadow="2"
     inkscape:pageopacity="0.0"
     inkscape:pagecheckerboard="0"
     inkscape:deskcolor="#d1d1d1"
     inkscape:document-units="px"
     showgrid="false"
     inkscape:zoom="50.375"
     inkscape:cx="8"
     inkscape:cy="8"
     inkscape:window-width="1920"
     inkscape:window-height="1008"
     inkscape:window-x="0"
     inkscape:window-y="0"
     inkscape:window-maximized="1"
     inkscape:current-layer="svg5" />
  <defs
     id="defs2" />
  <rect
     style="fill:#e4e4e4;fill-opacity:1;stroke-width:1.14286;stroke-linecap:square"
     id="rect396"
     width="16"
     height="16"
     x="0"
     y="0"
     ry="4" />
  <path
     id="rect391"
     style="fill:#077063;fill-opacity:1;stroke-width:2;stroke-linecap:square"
     d="M 4 0 C 1.7840022 0 0 1.7840022 0 4 L 0 12 L 16 12 L 16 4 C 16 1.7840022 14.215998 0 12 0 L 4 0 z " />
  <path
     id="path834"
     style="fill:#30dd81"
     d="m 3.5918,4.984652 c -0.1679,0.001 -0.33732,0.0589 -0.47657,0.17578 -0.31831,0.26708 -0.35887,0.73835 -0.0918,1.05664 l 1.04101,1.24023 c -1.14301,0.98231 -1.91272,2.38333 -2.06445,3.96485 -0.0276,0.57747 0.58203,0.57812 0.58203,0.57812 h 10.82031 c 0,0 0.62611,-0.001 0.59571,-0.60742 -0.15829,-1.57004 -0.92582,-2.9593 -2.0625,-3.93555 l 1.04101,-1.24023 c 0.26708,-0.31829 0.2265,-0.78957 -0.0918,-1.05664 -0.3183,-0.26708 -0.78957,-0.2265 -1.05665,0.0918 l -1.15039,1.3711 C 9.87116,6.224802 8.9615,6.000272 8,6.000272 c -0.96206,0 -1.87093,0.22403 -2.67773,0.62305 L 4.17188,5.254182 C 4.02165,5.075152 3.80768,4.982652 3.5918,4.984652 Z"
     sodipodi:nodetypes="csccccccccsscsccc" />
  <path
     d="m 5,9.500272 c -0.55228,0 -1,0.44772 -1,1 0,0.55228 0.44772,1 1,1 0.55228,0 1,-0.44772 1,-1 0,-0.55228 -0.44772,-1 -1,-1 z m 6,0 c -0.55228,0 -1,0.44772 -1,1 0,0.55228 0.44772,1 1,1 0.55228,0 1,-0.44772 1,-1 0,-0.55228 -0.44772,-1 -1,-1 z"
     style="opacity:0.2;fill:#000000;fill-opacity:1;stroke-width:2;stroke-linecap:square"
     id="path2856" />
  <path
     d="m 3.5918,5.484912 c -0.1679,0.001 -0.33732,0.0589 -0.47657,0.17578 -0.31831,0.26708 -0.35887,0.73835 -0.0918,1.05664 l 1.04101,1.24023 c -1.14301,0.98231 -1.91272,2.38333 -2.06445,3.96485 -9.1e-4,0.57812 0.58203,0.57812 0.58203,0.57812 h 10.82031 c 0,0 0.59678,0.002 0.59767,-0.60742 -0.15829,-1.57004 -0.92778,-2.9593 -2.06446,-3.93555 l 1.04101,-1.24023 c 0.26708,-0.31829 0.2265,-0.78957 -0.0918,-1.05664 -0.3183,-0.26708 -0.78957,-0.2265 -1.05665,0.0918 l -1.15039,1.3711 C 9.87116,6.725062 8.9615,6.500532 8,6.500532 c -0.96206,0 -1.87093,0.22403 -2.67773,0.62305 L 4.17188,5.754442 C 4.02165,5.575412 3.80768,5.482912 3.5918,5.484912 Z"
     style="opacity:0.2;fill:#000000"
     id="path2912"
     sodipodi:nodetypes="csccccccccsscsccc" />
  <path
     d="m 3.5918,4.984652 c -0.1679,0.001 -0.33732,0.0589 -0.47657,0.17578 -0.31831,0.26708 -0.35887,0.73835 -0.0918,1.05664 l 1.04101,1.24023 c -1.14301,0.98231 -1.91272,2.38333 -2.06445,3.96485 -9.1e-4,0.57812 0.58203,0.57812 0.58203,0.57812 h 10.82031 c 0,0 0.59874,0 0.59767,-0.60742 -0.15829,-1.57004 -0.92778,-2.9593 -2.06446,-3.93555 l 1.04101,-1.24023 c 0.26708,-0.31829 0.2265,-0.78957 -0.0918,-1.05664 -0.3183,-0.26708 -0.78957,-0.2265 -1.05665,0.0918 l -1.15039,1.3711 C 9.87116,6.224802 8.9615,6.000272 8,6.000272 c -0.96206,0 -1.87093,0.22403 -2.67773,0.62305 L 4.17188,5.254182 C 4.02165,5.075152 3.80768,4.982652 3.5918,4.984652 Z"
     style="fill:#30dd81"
     id="path2884"
     sodipodi:nodetypes="csccccccccsscsccc" />
  <path
     id="path3119"
     style="opacity:0.2;fill:#ffffff"
     d="m 3.5918,4.984652 c -0.1679,9.9e-4 -0.33732,0.0589 -0.47657,0.17578 -0.24665,0.20695 -0.3254,0.53628 -0.22461,0.82226 0.0433,-0.1214 0.11834,-0.23309 0.22461,-0.32226 0.13925,-0.11688 0.30867,-0.17479 0.47657,-0.17578 0.21588,-0.002 0.42985,0.0905 0.58008,0.26953 l 1.15039,1.36914 C 6.12906,6.724302 7.03794,6.500272 8,6.500272 c 0.9615,0 1.87119,0.22452 2.67773,0.62305 l 1.15039,-1.3711 c 0.26708,-0.3183 0.73835,-0.35887 1.05665,-0.0918 0.10627,0.0892 0.18136,0.20086 0.22461,0.32226 0.10079,-0.28598 0.022,-0.61532 -0.22461,-0.82226 -0.3183,-0.26708 -0.78957,-0.22651 -1.05665,0.0918 l -1.15039,1.3711 C 9.87119,6.224792 8.9615,6.000272 8,6.000272 c -0.96206,0 -1.87094,0.22403 -2.67773,0.62305 L 4.17188,5.254182 C 4.02165,5.075152 3.80768,4.982652 3.5918,4.984652 Z m 0.23437,2.68945 C 2.81541,8.640672 2.1409,9.953532 2,11.422152 c -1.3e-4,0.0833 0.0126,0.15382 0.0332,0.21484 0.21188,-1.46467 0.95729,-2.75672 2.03125,-3.67969 z m 8.34766,0 -0.23828,0.2832 c 1.06992,0.91891 1.81351,2.20503 2.02929,3.66211 0.0214,-0.0644 0.0353,-0.13852 0.0352,-0.22656 -0.14693,-1.45741 -0.8211,-2.75864 -1.82617,-3.71875 z" />
  <path
     d="m 5,9.500272 c -0.55228,0 -1,0.44772 -1,1 0,0.55228 0.44772,1 1,1 0.55228,0 1,-0.44772 1,-1 0,-0.55228 -0.44772,-1 -1,-1 z m 6,0 c -0.55228,0 -1,0.44772 -1,1 0,0.55228 0.44772,1 1,1 0.55228,0 1,-0.44772 1,-1 0,-0.55228 -0.44772,-1 -1,-1 z"
     style="opacity:0.2;fill:#000000;fill-opacity:1;stroke-width:2;stroke-linecap:square"
     id="path3091" />
  <path
     id="path2766"
     style="fill:#ffffff;fill-opacity:1;stroke-width:2;stroke-linecap:square"
     d="m 5,9.000272 c -0.55228,0 -1,0.44772 -1,1 0,0.55228 0.44772,1 1,1 0.55228,0 1,-0.44772 1,-1 0,-0.55228 -0.44772,-1 -1,-1 z m 6,0 c -0.55228,0 -1,0.44772 -1,1 0,0.55228 0.44772,1 1,1 0.55228,0 1,-0.44772 1,-1 0,-0.55228 -0.44772,-1 -1,-1 z"
     sodipodi:nodetypes="ssssssssss" />
  <path
     id="rect639"
     style="fill:#ffffff;stroke-linecap:square;opacity:0.2"
     d="M 4 0 C 1.7840022 0 0 1.7840022 0 4 L 0 5 C 0 2.7840022 1.7840022 1 4 1 L 12 1 C 14.215998 1 16 2.7840022 16 5 L 16 4 C 16 1.7840022 14.215998 0 12 0 L 4 0 z " />
</svg>
