<?xml version="1.0" encoding="UTF-8" standalone="no"?>
<!-- Created with Inkscape (http://www.inkscape.org/) -->

<svg
   width="16"
   height="16"
   viewBox="0 0 16 16"
   version="1.1"
   id="svg5"
   inkscape:version="1.2.2 (1:1.2.2+202305151914+b0a8486541)"
   sodipodi:docname="software-properties.svg"
   xmlns:inkscape="http://www.inkscape.org/namespaces/inkscape"
   xmlns:sodipodi="http://sodipodi.sourceforge.net/DTD/sodipodi-0.dtd"
   xmlns="http://www.w3.org/2000/svg"
   xmlns:svg="http://www.w3.org/2000/svg">
  <sodipodi:namedview
     id="namedview7"
     pagecolor="#ffffff"
     bordercolor="#000000"
     borderopacity="0.25"
     inkscape:showpageshadow="2"
     inkscape:pageopacity="0.0"
     inkscape:pagecheckerboard="0"
     inkscape:deskcolor="#d1d1d1"
     inkscape:document-units="px"
     showgrid="false"
     inkscape:zoom="50.375"
     inkscape:cx="8"
     inkscape:cy="8"
     inkscape:window-width="1920"
     inkscape:window-height="1008"
     inkscape:window-x="0"
     inkscape:window-y="0"
     inkscape:window-maximized="1"
     inkscape:current-layer="svg5" />
  <defs
     id="defs2" />
  <rect
     style="fill:#546e7a;fill-opacity:1;stroke-width:1.14286;stroke-linecap:square"
     id="rect396"
     width="16"
     height="16"
     x="0"
     y="0"
     ry="4" />
  <path
     d="m 8.524079,2.5000233 c -0.10365,-6e-4 -0.1438,0.0816 -0.35407,0.72154 l -0.20926,0.63615 -0.31892,0.0285 c -0.17564,0.0159 -0.37846,0.0412 -0.45033,0.0561 -0.095,0.0197 -0.13928,0.0202 -0.16239,8.6e-4 -0.0175,-0.0145 -0.16557,-0.25458 -0.32895,-0.5332 -0.32653,-0.55682 -0.39283,-0.6462 -0.48465,-0.6462 -0.0965,0 -0.74309,0.25752 -0.79018,0.31473 -0.0231,0.0281 -0.0414,0.0857 -0.041,0.12723 3e-4,0.0415 0.0584,0.34511 0.12891,0.67549 0.0705,0.33039 0.12399,0.61206 0.11886,0.62528 -0.005,0.0132 -0.0819,0.0686 -0.17076,0.12388 -0.0889,0.0553 -0.25051,0.17191 -0.35826,0.25865 -0.10775,0.0867 -0.20593,0.1582 -0.21847,0.1582 -0.0125,0 -0.26442,-0.13687 -0.55998,-0.30385 -0.60772,-0.34332 -0.63664,-0.35657 -0.72237,-0.32393 -0.0926,0.0352 -0.54743,0.61236 -0.54743,0.69474 0,0.0893 0.022,0.1171 0.48549,0.63281 0.22159,0.24656 0.40262,0.46584 0.40262,0.48716 0,0.0213 -0.0464,0.13324 -0.1038,0.24861 -0.0574,0.11537 -0.13414,0.28768 -0.16992,0.38253 -0.0358,0.0948 -0.0783,0.18313 -0.0946,0.1967 -0.0183,0.0152 -0.28553,0.0274 -0.69392,0.0318 -0.81933,0.009 -0.74725,-0.0307 -0.82449,0.45703 -0.0299,0.18889 -0.0553,0.37192 -0.0561,0.4068 -0.003,0.12994 0.0522,0.15878 0.71902,0.37835 l 0.63532,0.20926 0.0276,0.31138 c 0.0155,0.17153 0.0402,0.37568 0.0544,0.45284 0.0143,0.0772 0.0198,0.14982 0.0126,0.16155 -0.007,0.0117 -0.25283,0.16294 -0.54576,0.33649 -0.29293,0.17356 -0.55622,0.3421897 -0.58593,0.3741597 -0.0297,0.032 -0.0544,0.0865 -0.0544,0.12137 0,0.10207 0.26179,0.74619 0.31976,0.78683 0.0758,0.0531 0.1412,0.0453 0.79603,-0.0946 0.3299,-0.0705 0.61109,-0.12287 0.62443,-0.11719 0.0133,0.006 0.0693,0.0823 0.12472,0.17076 0.0554,0.0885 0.17252,0.2505 0.26032,0.35993 0.10925,0.13616 0.15449,0.21197 0.14398,0.23939 -0.008,0.0221 -0.14372,0.26901 -0.30134,0.54911 -0.32307,0.57411 -0.34167,0.61403 -0.32059,0.69809 0.0215,0.086 0.61574,0.56104 0.70145,0.56083 0.0884,-2.3e-4 0.13073,-0.0325 0.62611,-0.48047 0.24115,-0.21805 0.45656,-0.39961 0.47879,-0.40346 0.0222,-0.004 0.1369,0.041 0.2553,0.0996 0.11839,0.0586 0.29947,0.13631 0.40178,0.17243 0.10231,0.0361 0.18824,0.067 0.19085,0.0687 0.003,10e-4 0.0103,0.31347 0.0176,0.69307 0.0163,0.84772 -0.0224,0.77377 0.45116,0.85044 0.35585,0.0576 0.4962,0.058 0.55329,8.6e-4 0.0199,-0.0199 0.12932,-0.32097 0.24358,-0.6688 l 0.20759,-0.63197 0.23939,-0.0184 c 0.13136,-0.0101 0.3357,-0.0349 0.45452,-0.0544 0.21509,-0.0354 0.21663,-0.0353 0.26116,0.0184 0.0246,0.0297 0.17755,0.28079 0.34068,0.55831 0.16312,0.27752 0.31995,0.5243 0.34821,0.54743 0.0774,0.0633 0.13264,0.0532 0.50641,-0.0896 0.35646,-0.13615 0.42797,-0.18586 0.42773,-0.29799 -7e-5,-0.0349 -0.0584,-0.3386 -0.12974,-0.6755 -0.0713,-0.33689 -0.12433,-0.62174 -0.11802,-0.63197 0.006,-0.0102 0.0885,-0.0707 0.18331,-0.13476 0.0948,-0.0641 0.25339,-0.18261 0.3524,-0.26367 0.099,-0.0811 0.19042,-0.1473 0.20256,-0.14732 0.0121,-2e-5 0.2712,0.13904 0.57589,0.30887 0.6229,0.3472 0.61905,0.34548 0.70144,0.32477 0.0877,-0.022 0.56083,-0.61733 0.56083,-0.70563 0,-0.0826 -0.02,-0.10828 -0.49135,-0.63364 -0.21163,-0.23587 -0.38852,-0.44818 -0.39257,-0.47209 -0.004,-0.0239 0.0367,-0.13089 0.0904,-0.23773 0.0537,-0.10683 0.13025,-0.27833 0.17075,-0.38085 0.0405,-0.10252 0.0842,-0.1968897 0.0971,-0.2100997 0.0139,-0.0143 0.29526,-0.0288 0.69391,-0.036 0.63957,-0.0115 0.67288,-0.0149 0.7207,-0.0628 0.0392,-0.0393 0.0624,-0.1279 0.10798,-0.40848 0.032,-0.19704 0.0584,-0.38105 0.0586,-0.40932 9e-4,-0.11421 -0.0678,-0.14912 -0.71986,-0.36578 l -0.63615,-0.21094 -0.0268,-0.31055 c -0.0149,-0.17078 -0.0389,-0.37448 -0.0536,-0.452 -0.0146,-0.0775 -0.0207,-0.1505 -0.0134,-0.16239 0.007,-0.0119 0.25292,-0.16335 0.54575,-0.33649 0.29284,-0.17315 0.55623,-0.3411 0.58594,-0.37333 0.0297,-0.0322 0.0544,-0.0858 0.0544,-0.11886 0,-0.0947 -0.2579,-0.73728 -0.31473,-0.78431 -0.0722,-0.0598 -0.12156,-0.0547 -0.69559,0.0678 -0.674,0.14379 -0.71023,0.15021 -0.73493,0.13309 -0.0116,-0.008 -0.0731,-0.093 -0.13643,-0.18917 -0.0633,-0.0961 -0.17903,-0.25273 -0.25699,-0.34821 -0.078,-0.0955 -0.14144,-0.18393 -0.14146,-0.19587 -10e-6,-0.0119 0.13947,-0.27066 0.30971,-0.57589 0.17024,-0.30523 0.31562,-0.57803 0.32394,-0.60602 0.0288,-0.0968 -0.0312,-0.17192 -0.33315,-0.41434 -0.32173,-0.25834 -0.37812,-0.28225 -0.49302,-0.2034 -0.0326,0.0224 -0.26167,0.22239 -0.50809,0.44447 -0.24642,0.22209 -0.46515,0.4043 -0.48632,0.4043 -0.0212,0 -0.13252,-0.0477 -0.24777,-0.10547 -0.11524,-0.0577 -0.27997,-0.12904 -0.36578,-0.15905 -0.2514,-0.0879 -0.24013,-0.0513 -0.24023,-0.77761 -8e-5,-0.57737 -0.004,-0.63428 -0.046,-0.70396 -0.0278,-0.0457 -0.073,-0.0809 -0.11384,-0.0896 -0.10373,-0.0221 -0.68705,-0.11024 -0.73158,-0.11053 z"
     style="opacity:0.1;fill:#000000"
     id="path2144"
     sodipodi:nodetypes="scccscssscscssssssssssscsssccccssssscsscsssscsscsssscscsssssscssssssssssssssccccccsssssssssssssssssscsss" />
  <path
     d="m 8.524079,2.0000533 c -0.10365,-6e-4 -0.1438,0.0816 -0.35407,0.72154 l -0.20926,0.63615 -0.31892,0.0285 c -0.17564,0.0159 -0.37846,0.0412 -0.45033,0.0561 -0.095,0.0197 -0.13928,0.0202 -0.16239,8.6e-4 -0.0175,-0.0145 -0.16557,-0.25458 -0.32895,-0.5332 -0.32653,-0.55682 -0.39283,-0.6462 -0.48465,-0.6462 -0.0965,0 -0.74309,0.25752 -0.79018,0.31473 -0.0231,0.0281 -0.0414,0.0857 -0.041,0.12723 3e-4,0.0415 0.0584,0.34511 0.12891,0.67549 0.0705,0.33039 0.12399,0.61206 0.11886,0.62528 -0.005,0.0132 -0.0819,0.0686 -0.17076,0.12388 -0.0889,0.0553 -0.25051,0.17191 -0.35826,0.25865 -0.10775,0.0867 -0.20593,0.1582 -0.21847,0.1582 -0.0125,0 -0.26442,-0.13687 -0.55998,-0.30385 -0.60772,-0.34332 -0.63664,-0.35657 -0.72237,-0.32393 -0.0926,0.0352 -0.54743,0.61236 -0.54743,0.69474 0,0.0893 0.022,0.1171 0.48549,0.63281 0.22159,0.24656 0.40262,0.46584 0.40262,0.48716 0,0.0213 -0.0464,0.13324 -0.1038,0.24861 -0.0574,0.11537 -0.13414,0.28768 -0.16992,0.38253 -0.0358,0.0948 -0.0783,0.18313 -0.0946,0.1967 -0.0183,0.0152 -0.28553,0.0274 -0.69392,0.0318 -0.81933,0.009 -0.74725,-0.0307 -0.82449,0.45703 -0.0299,0.18889 -0.0553,0.37192 -0.0561,0.4068 -0.003,0.12994 0.0522,0.15878 0.71902,0.37835 l 0.63532,0.20926 0.0276,0.31138 c 0.0155,0.17153 0.0402,0.37568 0.0544,0.45284 0.0143,0.0772 0.0198,0.14982 0.0126,0.16155 -0.007,0.0117 -0.25283,0.16294 -0.54576,0.33649 -0.29293,0.17356 -0.55622,0.34219 -0.58593,0.37416 -0.0297,0.032 -0.0544,0.0865 -0.0544,0.12137 0,0.10207 0.26179,0.7461897 0.31976,0.7868297 0.0758,0.0531 0.1412,0.0453 0.79603,-0.0946 0.3299,-0.0705 0.61109,-0.12287 0.62443,-0.11719 0.0133,0.006 0.0693,0.0823 0.12472,0.17076 0.0554,0.0885 0.17252,0.2505 0.26032,0.35993 0.10925,0.13616 0.15449,0.21197 0.14398,0.23939 -0.008,0.0221 -0.14372,0.26901 -0.30134,0.54911 -0.32307,0.57411 -0.34167,0.61403 -0.32059,0.69809 0.0215,0.086 0.61574,0.56104 0.70145,0.56083 0.0884,-2.3e-4 0.13073,-0.0325 0.62611,-0.48047 0.24115,-0.21805 0.45656,-0.39961 0.47879,-0.40346 0.0222,-0.004 0.1369,0.041 0.2553,0.0996 0.11839,0.0586 0.29947,0.13631 0.40178,0.17243 0.10231,0.0361 0.18824,0.067 0.19085,0.0687 0.003,0.001 0.0103,0.31347 0.0176,0.69307 0.0163,0.84772 -0.0224,0.77377 0.45116,0.85044 0.35585,0.0576 0.4962,0.058 0.55329,8.6e-4 0.0199,-0.0199 0.12932,-0.32097 0.24358,-0.6688 l 0.20759,-0.63197 0.23939,-0.0184 c 0.13136,-0.0101 0.3357,-0.0349 0.45452,-0.0544 0.21509,-0.0354 0.21663,-0.0353 0.26116,0.0184 0.0246,0.0297 0.17755,0.28079 0.34068,0.55831 0.16312,0.27752 0.31995,0.5243 0.34821,0.54743 0.0774,0.0633 0.13264,0.0532 0.50641,-0.0896 0.35646,-0.13615 0.42797,-0.18586 0.42773,-0.29799 -7e-5,-0.0349 -0.0584,-0.3386 -0.12974,-0.6755 -0.0713,-0.33689 -0.12433,-0.62174 -0.11802,-0.63197 0.006,-0.0102 0.0885,-0.0707 0.18331,-0.13476 0.0948,-0.0641 0.25339,-0.18261 0.3524,-0.26367 0.099,-0.0811 0.19042,-0.1473 0.20256,-0.14732 0.0121,-2e-5 0.2712,0.13904 0.57589,0.30887 0.6229,0.3472 0.61905,0.34548 0.70144,0.32477 0.0877,-0.022 0.56083,-0.61733 0.56083,-0.70563 0,-0.0826 -0.02,-0.10828 -0.49135,-0.63364 -0.21163,-0.23587 -0.38852,-0.44818 -0.39257,-0.47209 -0.004,-0.0239 0.0367,-0.13089 0.0904,-0.23773 0.0537,-0.1068297 0.13025,-0.2783297 0.17075,-0.3808497 0.0405,-0.10252 0.0842,-0.19689 0.0971,-0.2101 0.0139,-0.0143 0.29526,-0.0288 0.69391,-0.036 0.63957,-0.0115 0.67288,-0.0149 0.7207,-0.0628 0.0392,-0.0393 0.0624,-0.1279 0.10798,-0.40848 0.032,-0.19704 0.0584,-0.38105 0.0586,-0.40932 9e-4,-0.11421 -0.0678,-0.14912 -0.71986,-0.36578 l -0.63615,-0.21094 -0.0268,-0.31055 c -0.0149,-0.17078 -0.0389,-0.37448 -0.0536,-0.452 -0.0146,-0.0775 -0.0207,-0.1505 -0.0134,-0.16239 0.007,-0.0119 0.25292,-0.16335 0.54575,-0.33649 0.29284,-0.17315 0.55623,-0.3411 0.58594,-0.37333 0.0297,-0.0322 0.0544,-0.0858 0.0544,-0.11886 0,-0.0947 -0.2579,-0.73728 -0.31473,-0.78431 -0.0722,-0.0598 -0.12156,-0.0547 -0.69559,0.0678 -0.674,0.14379 -0.71023,0.15021 -0.73493,0.13309 -0.0116,-0.008 -0.0731,-0.093 -0.13643,-0.18917 -0.0633,-0.0961 -0.17903,-0.25273 -0.25699,-0.34821 -0.078,-0.0955 -0.14144,-0.18393 -0.14146,-0.19587 -10e-6,-0.0119 0.13947,-0.27066 0.30971,-0.57589 0.17024,-0.30523 0.31562,-0.57803 0.32394,-0.60602 0.0288,-0.0968 -0.0312,-0.17192 -0.33315,-0.41434 -0.32173,-0.25834 -0.37812,-0.28225 -0.49302,-0.2034 -0.0326,0.0224 -0.26167,0.22239 -0.50809,0.44447 -0.24642,0.22209 -0.46515,0.4043 -0.48632,0.4043 -0.0212,0 -0.13252,-0.0477 -0.24777,-0.10547 -0.11524,-0.0577 -0.27997,-0.12904 -0.36578,-0.15905 -0.2514,-0.0879 -0.24013,-0.0513 -0.24023,-0.77761 -8e-5,-0.57737 -0.004,-0.63428 -0.046,-0.70396 -0.0278,-0.0457 -0.073,-0.0809 -0.11384,-0.0896 -0.10373,-0.0221 -0.68705,-0.11024 -0.73158,-0.11053 z"
     style="fill:#768b95"
     id="path2172"
     sodipodi:nodetypes="scccscssscscssssssssssscsssccccssssscsscsssscsscsssscscsssssscssssssssssssssccccccsssssssssssssssssscsss" />
  <path
     id="path2200"
     style="opacity:0.1;fill:#ffffff"
     d="m 8.523479,2.0000033 c -0.10365,-6e-4 -0.14325,0.0808 -0.35352,0.7207 l -0.20898,0.63672 -0.31836,0.0293 c -0.17564,0.0159 -0.3793,0.0398 -0.45117,0.0547 -0.095,0.0197 -0.139,0.0213 -0.16211,0.002 -0.0175,-0.0145 -0.1667,-0.25458 -0.33008,-0.5332 -0.32653,-0.55682 -0.39256,-0.64649 -0.48438,-0.64649 -0.0965,0 -0.74197,0.25725 -0.78906,0.31445 -0.0231,0.0281 -0.0414,0.0854 -0.041,0.12696 1.9e-4,0.0267 0.0266,0.17683 0.0625,0.35742 0.11134,-0.0757 0.67723,-0.29883 0.76757,-0.29883 0.0918,0 0.15785,0.0897 0.48438,0.64649 0.16338,0.27862 0.31258,0.5187 0.33008,0.5332 0.0231,0.0193 0.0671,0.0177 0.16211,-0.002 0.0719,-0.0149 0.27553,-0.0388 0.45117,-0.0547 l 0.31836,-0.0293 0.20898,-0.63672 c 0.21027,-0.63994 0.24987,-0.7213 0.35352,-0.7207 0.0445,2.9e-4 0.62869,0.0892 0.73242,0.11133 0.0408,0.009 0.0855,0.0422 0.11328,0.0879 0.042,0.0697 0.0468,0.12771 0.0469,0.70508 10e-5,0.72631 -0.0112,0.68944 0.24023,0.77734 0.0858,0.03 0.24999,0.1005 0.36523,0.1582 0.11525,0.0578 0.22685,0.10547 0.24805,0.10547 0.0212,0 0.23991,-0.1822 0.48633,-0.40429 0.24642,-0.22208 0.47521,-0.42096 0.50781,-0.44336 0.1149,-0.0788 0.17046,-0.0552 0.49219,0.20312 0.0878,0.0705 0.15051,0.12502 0.20117,0.17188 0.0734,-0.13634 0.12806,-0.24182 0.13281,-0.25782 0.0288,-0.0968 -0.032,-0.17164 -0.33398,-0.41406 -0.32173,-0.25834 -0.37729,-0.28197 -0.49219,-0.20312 -0.0326,0.0224 -0.26139,0.22128 -0.50781,0.44336 -0.24642,0.22209 -0.46516,0.40429 -0.48633,0.40429 -0.0212,0 -0.1328,-0.0477 -0.24805,-0.10547 -0.11524,-0.0577 -0.27942,-0.12819 -0.36523,-0.1582 -0.2514,-0.0879 -0.24013,-0.051 -0.24023,-0.77734 -8e-5,-0.57737 -0.005,-0.6354 -0.0469,-0.70508 -0.0278,-0.0457 -0.0724,-0.0792 -0.11328,-0.0879 -0.10373,-0.0221 -0.68789,-0.11104 -0.73242,-0.11133 z m -4.85742,1.9082 c -0.0243,-0.002 -0.043,0.004 -0.0645,0.0117 -0.0926,0.0352 -0.54687,0.61098 -0.54687,0.69336 0,0.0573 0.0217,0.10434 0.15039,0.25586 0.14163,-0.19344 0.33798,-0.42698 0.39648,-0.44922 0.0857,-0.0326 0.11494,-0.0191 0.72266,0.32422 0.29556,0.16698 0.54805,0.30274 0.56055,0.30274 0.0125,0 0.111,-0.0715 0.21875,-0.15821 0.10775,-0.0867 0.26852,-0.20251 0.35742,-0.25781 0.0889,-0.0553 0.16687,-0.1118 0.17187,-0.125 0.004,-0.0103 -0.0324,-0.20266 -0.0801,-0.43555 -0.0275,0.0191 -0.0571,0.039 -0.0918,0.0606 -0.0889,0.0553 -0.24967,0.17107 -0.35742,0.25781 -0.10775,0.0867 -0.20621,0.15821 -0.21875,0.15821 -0.0125,0 -0.26499,-0.13576 -0.56055,-0.30274 -0.45579,-0.25749 -0.58542,-0.32989 -0.6582,-0.33594 z m 7.94531,1.20118 c -0.0559,0.10386 -0.1543,0.28117 -0.1543,0.2871 2e-5,0.0119 0.0626,0.10177 0.14063,0.19727 0.078,0.0955 0.19451,0.25156 0.25781,0.34766 0.0633,0.0962 0.12316,0.18145 0.13476,0.18945 0.0247,0.0171 0.0623,0.011 0.73633,-0.13281 0.57403,-0.1225 0.62312,-0.12816 0.69532,-0.0684 0.0321,0.0266 0.12538,0.24069 0.20312,0.4414 0.0137,-0.0101 0.0523,-0.0344 0.0566,-0.0391 0.0297,-0.0322 0.0547,-0.0861 0.0547,-0.11914 0,-0.0947 -0.25763,-0.73617 -0.31445,-0.7832 -0.0722,-0.0598 -0.12129,-0.0541 -0.69532,0.0684 -0.674,0.14379 -0.71163,0.14993 -0.73633,0.13281 -0.0116,-0.008 -0.0714,-0.0933 -0.13476,-0.18945 -0.0603,-0.0916 -0.16665,-0.23582 -0.24414,-0.33203 z m -7.80469,0.94335 c -0.0513,0.10811 -0.10726,0.2344 -0.13672,0.3125 -0.0358,0.0948 -0.0794,0.1837 -0.0957,0.19727 -0.0183,0.0152 -0.28497,0.0268 -0.69336,0.0312 -0.81933,0.009 -0.74698,-0.0307 -0.82422,0.45703 -0.0299,0.18889 -0.0558,0.37137 -0.0566,0.40625 -10e-4,0.0494 0.007,0.0849 0.0527,0.12109 0.002,-0.0126 0.002,-0.0146 0.004,-0.0273 0.0772,-0.48773 0.005,-0.44803 0.82422,-0.45703 0.40839,-0.004 0.67506,-0.0161 0.69336,-0.0312 0.0163,-0.0136 0.0599,-0.10247 0.0957,-0.19727 0.0358,-0.0949 0.11252,-0.26744 0.16992,-0.38281 0.0574,-0.11537 0.10352,-0.22675 0.10352,-0.24804 0,-0.0113 -0.0554,-0.0839 -0.13672,-0.18165 z m 8.79297,1.45899 c -0.0107,0.007 -0.0478,0.0295 -0.0488,0.0312 -0.007,0.0119 -9.3e-4,0.0846 0.0137,0.16211 0.0147,0.0775 0.0378,0.28039 0.0527,0.45117 l 0.0273,0.31055 0.63477,0.21093 c 0.40557,0.13476 0.58623,0.20087 0.66406,0.25782 0.0301,-0.18728 0.0565,-0.36357 0.0566,-0.39063 9e-4,-0.11421 -0.0686,-0.15053 -0.7207,-0.36719 l -0.63477,-0.21093 -0.0273,-0.31055 c -0.005,-0.0547 -0.0115,-0.0883 -0.0176,-0.14453 z m -9.19922,1.49023 c -0.0622,0.0428 -0.24806,0.15658 -0.49805,0.30469 -0.29293,0.17356 -0.55622,0.34303 -0.58593,0.375 -0.0297,0.032 -0.0527,0.0862 -0.0527,0.12109 0,0.0435 0.0504,0.18821 0.10938,0.3398497 0.0796,-0.0589 0.27883,-0.1875397 0.52929,-0.3359397 0.29293,-0.17355 0.53988,-0.32424 0.54688,-0.33594 0.007,-0.0117 6.3e-4,-0.0849 -0.0137,-0.16211 -0.01,-0.0524 -0.022,-0.18702 -0.0352,-0.30664 z m 8.79102,1.4570297 c -0.0147,0.0313 -0.0281,0.0661 -0.041,0.0918 -0.0537,0.10684 -0.0938,0.21438 -0.0898,0.23828 0.004,0.0239 0.18095,0.23679 0.39257,0.47266 0.16814,0.1874 0.26504,0.29731 0.3379,0.38281 0.0836,-0.11396 0.15429,-0.21795 0.15429,-0.25 0,-0.0826 -0.0208,-0.10745 -0.49219,-0.63281 -0.10125,-0.11286 -0.19149,-0.21872 -0.26171,-0.30274 z m -7.80274,0.94922 c -0.0554,0.10111 -0.0752,0.14159 -0.1582,0.28907 -0.32307,0.57411 -0.34139,0.6132 -0.32031,0.69726 0.006,0.0238 0.0602,0.0796 0.13086,0.14453 0.047,-0.0861 0.10804,-0.19712 0.18945,-0.34179 0.15762,-0.2801 0.29278,-0.52673 0.30078,-0.54883 0.0105,-0.0274 -0.0333,-0.10408 -0.14258,-0.24024 z m 6.0586,1.04688 c -0.0263,0.0197 -0.0775,0.0541 -0.0801,0.0586 -0.006,0.0102 0.0478,0.29397 0.11914,0.63086 0.0241,0.1138 0.0431,0.20755 0.0625,0.30469 0.05,-0.0393 0.0665,-0.0778 0.0664,-0.12891 -7e-5,-0.0349 -0.0576,-0.33888 -0.1289,-0.67578 -0.0155,-0.073 -0.0258,-0.12359 -0.0391,-0.18945 z" />
  <path
     d="m 7.000109,5.5000033 h 1.99993 v 3 h 2 l -3,2.9999997 -3,-2.9999997 h 1.99993 z"
     style="opacity:0.2;fill:#000000;stroke-width:1.06904"
     id="path2284" />
  <path
     d="m 7.000109,5.0000033 h 1.99993 v 3 h 2 l -3,2.9999997 -3,-2.9999997 h 1.99993 z"
     style="fill:#ffffff;stroke-width:1.06904"
     id="path2256"
     sodipodi:nodetypes="cccccccc" />
  <path
     id="rect639"
     style="fill:#ffffff;stroke-linecap:square;opacity:0.1"
     d="M 4 0 C 1.7840022 0 0 1.7840022 0 4 L 0 5 C 0 2.7840022 1.7840022 1 4 1 L 12 1 C 14.215998 1 16 2.7840022 16 5 L 16 4 C 16 1.7840022 14.215998 0 12 0 L 4 0 z " />
</svg>
