<?xml version="1.0" encoding="UTF-8" standalone="no"?>
<!-- Created with Inkscape (http://www.inkscape.org/) -->

<svg
   width="16"
   height="16"
   viewBox="0 0 16 16"
   version="1.1"
   id="svg5"
   inkscape:version="1.3 (0e150ed6c4, 2023-07-21)"
   sodipodi:docname="stardew-valley.svg"
   xmlns:inkscape="http://www.inkscape.org/namespaces/inkscape"
   xmlns:sodipodi="http://sodipodi.sourceforge.net/DTD/sodipodi-0.dtd"
   xmlns="http://www.w3.org/2000/svg"
   xmlns:svg="http://www.w3.org/2000/svg">
  <sodipodi:namedview
     id="namedview7"
     pagecolor="#ffffff"
     bordercolor="#000000"
     borderopacity="0.25"
     inkscape:showpageshadow="2"
     inkscape:pageopacity="0.0"
     inkscape:pagecheckerboard="0"
     inkscape:deskcolor="#d1d1d1"
     inkscape:document-units="px"
     showgrid="false"
     inkscape:zoom="50.25"
     inkscape:cx="7.9900498"
     inkscape:cy="7.9800995"
     inkscape:window-width="1920"
     inkscape:window-height="1008"
     inkscape:window-x="0"
     inkscape:window-y="0"
     inkscape:window-maximized="1"
     inkscape:current-layer="svg5" />
  <defs
     id="defs2" />
  <rect
     style="fill:#4cb8eb;fill-opacity:1;stroke-width:1.14286;stroke-linecap:square"
     id="rect396"
     width="16"
     height="16"
     x="0"
     y="0"
     ry="4" />
  <path
     style="opacity:0.2;fill:#000000;stroke-width:0.499995"
     d="m 5.25008,4.5002429 c -0.6628342,8e-4 -1.2098032,0.5188377 -1.2465693,1.180652 -0.00355,0.02987 -0.00304,0.059795 -0.00293,0.089355 8.1e-6,5e-4 -8.7e-6,9.5e-4 0,0.0015 0.00483,0.2719592 0.098272,0.534937 0.2661106,0.7490159 0.206817,0.2806386 0.7333898,0.488764 0.7333898,0.8549368 0,0.7081558 -0.4999949,1.2079952 -0.4999949,2.207985 0,2.0836524 2.450349,2.9167224 3.6166639,2.9167224 0.5849881,0 1.0518978,-0.113888 1.3486188,-0.229002 C 10.703004,11.736451 11.189381,10.440653 12.500006,9.7504375 12.374497,9.5841127 12.333681,9.3338828 12.000011,9.2502101 12.167356,9.0420492 12.208173,9.0420492 12.500006,9.0002127 12.291845,8.7502152 12.117042,8.5016827 11.825208,8.5016827 12.325203,8.3761735 13,7.1257262 13,6.5002226 12.833675,6.9165448 11.407555,8.0002073 8.9912527,8.0002073 7.3053804,7.8551473 6.8847204,6.261328 6.3174522,5.1017993 6.094514,4.7342545 5.6927125,4.5007204 5.25008,4.5002429 Z"
     id="path7" />
  <path
     style="fill:#d8bfa2;stroke-width:0.499995"
     d="m 5.25008,4 c -0.6628342,7.9e-4 -1.2098032,0.5188377 -1.2465693,1.180652 -0.00355,0.02987 -0.00304,0.059795 -0.00293,0.089355 8.1e-6,5e-4 -8.7e-6,9.5e-4 0,0.0015 0.00483,0.2719592 0.098272,0.534937 0.2661106,0.7490159 0.206817,0.2806386 0.7333898,0.488764 0.7333898,0.8549368 0,0.7081558 -0.4999949,1.2079952 -0.4999949,2.207985 0,2.0836523 2.450349,2.9167223 3.6166639,2.9167223 0.5849881,0 1.0518978,-0.113888 1.3486188,-0.229002 C 10.703004,11.236208 11.189381,9.9404101 12.500006,9.2501946 12.374497,9.0838698 12.333681,8.8336399 12.000011,8.7499672 12.167356,8.5418063 12.208173,8.5418063 12.500006,8.4999697 12.291845,8.2499723 12.117042,8.0014398 11.825208,8.0014398 12.325203,7.8759306 13,6.6254833 13,5.9999797 12.833675,6.4163019 11.407555,7.4999644 8.9912527,7.4999644 7.3053804,7.3549044 6.8847204,5.7610851 6.3174522,4.6015564 6.094514,4.2340115 5.6927125,4.0004777 5.25008,4 Z"
     id="path8" />
  <path
     id="path12"
     style="opacity:0.2;fill:#ffffff;stroke-width:0.499995"
     d="M 5.2500785,4.000248 C 4.5872456,4.001038 4.039787,4.5190872 4.0030209,5.1809 c -0.00355,0.02987 -0.00305,0.059307 -0.00293,0.088867 8.2e-6,5e-4 -8.6e-6,0.00145 0,0.00195 0.00139,0.078216 0.011575,0.1556614 0.027343,0.2314426 0.1156422,-0.5740666 0.6207686,-1.0021988 1.222644,-1.0029163 0.4426315,4.775e-4 0.8444345,0.2340121 1.0673722,0.6015564 0.5672672,1.1595267 0.9879315,2.753348 2.6738008,2.898408 2.0158891,0 3.3393511,-0.7533663 3.8202741,-1.2451043 0.1151,-0.2777872 0.188474,-0.5498274 0.188474,-0.7548753 C 12.833675,6.4165489 11.407549,7.5002124 8.9912512,7.5002124 7.3053824,7.3551529 6.8847179,5.7613306 6.3174507,4.6018044 6.094513,4.2342602 5.69271,4.0007257 5.2500785,4.000248 Z M 4.9629721,7.2131058 C 4.8475886,7.7624587 4.5000862,8.2490293 4.5000862,9.0832043 c 0,0.083718 0.00503,0.1644298 0.012695,0.244138 0.074292,-0.833895 0.4872996,-1.3074562 0.4872996,-1.9521286 0,-0.057902 -0.014122,-0.1112174 -0.037109,-0.1621079 z m 7.2762939,0.9882715 c -0.139949,0.1563319 -0.282832,0.2678373 -0.414059,0.3007779 0.118233,0 0.216822,0.04236 0.306638,0.1074209 0.08584,-0.070057 0.167934,-0.08067 0.36816,-0.1093739 -0.0889,-0.1067699 -0.172291,-0.2119383 -0.260739,-0.2988249 z m 0.123045,0.8203041 c -0.168296,0.028225 -0.227378,0.060682 -0.362301,0.2285132 0.117088,0.02936 0.196531,0.080126 0.25781,0.1396471 0.07772,-0.048915 0.158096,-0.095363 0.242185,-0.1396471 -0.05131,-0.067994 -0.0889,-0.149632 -0.137694,-0.2285132 z" />
  <path
     id="rect639"
     style="fill:#ffffff;stroke-linecap:square;opacity:0.2"
     d="M 4 0 C 1.7840022 0 0 1.7840022 0 4 L 0 5 C 0 2.7840022 1.7840022 1 4 1 L 12 1 C 14.215998 1 16 2.7840022 16 5 L 16 4 C 16 1.7840022 14.215998 0 12 0 L 4 0 z " />
</svg>
