<?xml version="1.0" encoding="UTF-8" standalone="no"?>
<!-- Created with Inkscape (http://www.inkscape.org/) -->

<svg
   width="16"
   height="16"
   viewBox="0 0 16 16"
   version="1.1"
   id="svg5"
   inkscape:version="1.3.2 (1:1.3.2+202404261509+091e20ef0f)"
   sodipodi:docname="sticky.svg"
   xmlns:inkscape="http://www.inkscape.org/namespaces/inkscape"
   xmlns:sodipodi="http://sodipodi.sourceforge.net/DTD/sodipodi-0.dtd"
   xmlns="http://www.w3.org/2000/svg"
   xmlns:svg="http://www.w3.org/2000/svg">
  <sodipodi:namedview
     id="namedview7"
     pagecolor="#ffffff"
     bordercolor="#000000"
     borderopacity="0.25"
     inkscape:showpageshadow="2"
     inkscape:pageopacity="0.0"
     inkscape:pagecheckerboard="0"
     inkscape:deskcolor="#d1d1d1"
     inkscape:document-units="px"
     showgrid="false"
     inkscape:zoom="49.9375"
     inkscape:cx="7.9899875"
     inkscape:cy="8"
     inkscape:window-width="1920"
     inkscape:window-height="1006"
     inkscape:window-x="0"
     inkscape:window-y="0"
     inkscape:window-maximized="1"
     inkscape:current-layer="svg5"
     showguides="false" />
  <defs
     id="defs2" />
  <rect
     style="fill:#ba68c8;fill-opacity:1;stroke-width:1.14286;stroke-linecap:square"
     id="rect396"
     width="16"
     height="16"
     x="0"
     y="0"
     ry="4" />
  <path
     style="opacity:0.2;fill:#000000;stroke-width:0.5"
     d="M 3.7142855,3.5 C 3.7142855,3.5 3,3.5 3,4.2142857 V 12.785715 C 3,13.5 3.7142855,13.5 3.7142855,13.5 H 9.5 L 13,10 V 4.2142857 C 13,3.5 12.285714,3.5 12.285714,3.5 Z"
     id="path2" />
  <path
     style="fill:#fff176;stroke-width:0.5"
     d="M 3.7142855,3 C 3.7142855,3 3,3 3,3.7142857 V 12.285715 C 3,13 3.7142855,13 3.7142855,13 H 9.5 L 13,9.5 V 3.7142857 C 13,3 12.285714,3 12.285714,3 Z"
     id="path3" />
  <path
     style="fill:#fff9c4;stroke-width:0.5"
     d="M 13,9.5 H 10.025 C 9.7352,9.5 9.5,9.7352 9.5,10.025 V 13 Z"
     id="path4" />
  <path
     style="fill:#ffeb3b;stroke-width:0.5"
     d="M 3.7138672,3 C 3.7138672,3 3,2.9995815 3,3.7138672 V 5 H 13 V 3.7138672 C 13,2.9995815 12.286133,3 12.286133,3 Z"
     id="path6" />
  <rect
     style="opacity:0.2;fill:#000000;stroke-width:0.5"
     width="10"
     height="0.5"
     x="3"
     y="5"
     id="rect6" />
  <path
     id="rect639"
     style="fill:#ffffff;stroke-linecap:square;opacity:0.2"
     d="M 4 0 C 1.7840022 0 0 1.7840022 0 4 L 0 5 C 0 2.7840022 1.7840022 1 4 1 L 12 1 C 14.215998 1 16 2.7840022 16 5 L 16 4 C 16 1.7840022 14.215998 0 12 0 L 4 0 z " />
</svg>
