<?xml version="1.0" encoding="UTF-8" standalone="no"?>
<!-- Created with Inkscape (http://www.inkscape.org/) -->

<svg
   width="16"
   height="16"
   viewBox="0 0 16 16"
   version="1.1"
   id="svg5"
   inkscape:version="1.2.2 (1:1.2.2+202305151914+b0a8486541)"
   sodipodi:docname="thunderbird.svg"
   xmlns:inkscape="http://www.inkscape.org/namespaces/inkscape"
   xmlns:sodipodi="http://sodipodi.sourceforge.net/DTD/sodipodi-0.dtd"
   xmlns="http://www.w3.org/2000/svg"
   xmlns:svg="http://www.w3.org/2000/svg">
  <sodipodi:namedview
     id="namedview7"
     pagecolor="#ffffff"
     bordercolor="#000000"
     borderopacity="0.25"
     inkscape:showpageshadow="2"
     inkscape:pageopacity="0.0"
     inkscape:pagecheckerboard="0"
     inkscape:deskcolor="#d1d1d1"
     inkscape:document-units="px"
     showgrid="false"
     inkscape:zoom="50.375"
     inkscape:cx="8"
     inkscape:cy="8"
     inkscape:window-width="1920"
     inkscape:window-height="1008"
     inkscape:window-x="0"
     inkscape:window-y="0"
     inkscape:window-maximized="1"
     inkscape:current-layer="svg5" />
  <defs
     id="defs2" />
  <rect
     style="fill:#294668;fill-opacity:1;stroke-width:1.14286;stroke-linecap:square"
     id="rect396"
     width="16"
     height="16"
     x="0"
     y="0"
     ry="4" />
  <g
     id="g3067"
     transform="translate(-416,-140)">
    <path
       id="path2855"
       style="opacity:0.2;fill:#000000;stroke-width:1.20022"
       d="m 422.79945,142.5019 c -0.89469,0.0253 -1.39287,0.83584 -1.77204,1.5775 -0.14115,0.071 -0.28231,0.14528 -0.42192,0.22267 -0.74593,0.50151 -1.35645,1.19503 -1.8283,1.95488 -0.41504,0.7326 -0.66597,1.5464 -0.75946,2.38148 -0.0556,0.84664 0.0422,1.70895 0.36099,2.50102 0.24711,0.69619 0.68073,1.30955 1.23762,1.78611 0.73934,0.49335 1.32622,0.85009 2.13301,0.81571 -0.002,-10e-4 -0.005,-0.004 -0.007,-0.005 -0.0356,-0.0307 -0.072,-0.0523 -0.11017,-0.068 -0.35683,-0.22214 -1.01991,-0.73209 -1.22824,-1.87518 0.24949,0.48863 1.00738,1.05607 1.34544,1.20481 0,0 -0.27792,-0.45904 -0.27425,-0.78758 0.002,-0.23217 0.0979,-0.48391 0.0797,-0.71256 l -2.27835,-0.59772 c -2.3e-4,-7.2e-4 2.3e-4,-0.002 0,-0.002 -0.18963,-0.60048 -0.30352,-1.21921 -0.37268,-1.8541 -0.008,-0.14201 -0.0254,-0.29802 0.0258,-0.26017 0.19144,0.30343 0.23726,0.29418 0.56958,0.46645 -0.2865,-1.07222 0.0948,-2.26541 0.56256,-3.13624 0.0672,-0.0769 0.13967,-0.15251 0.21095,-0.22736 0.01,0.17925 0.0354,0.3608 0.0563,0.53442 -0.005,0.11389 0.10617,0.35096 0.0516,0.37504 -0.11017,0.33289 -0.20019,0.66331 0.0633,0.95399 0.0834,-0.37624 0.5226,-0.45821 0.84617,-0.61646 0.8453,-0.82391 1.64465,-0.96714 2.70964,-0.88368 0.58612,0 0.92014,-0.15173 1.50014,-0.41254 0.88981,0.372 1.27203,0.9527 1.50014,1.91268 0.0859,0.7215 -1.07352,2.45161 -1.50014,2.99795 0.008,0.001 1.28747,-0.56804 1.79783,-1.05245 -0.36412,2.81552 -2.38885,4.40963 -3.29797,4.80281 0.70366,0.0474 1.66747,-0.39182 2.32991,-0.79696 -0.30294,0.32462 -0.62767,0.67621 -0.82977,0.79696 0.79083,-0.22143 1.53784,-0.30155 2.03692,-0.66569 -2e-4,0 0.40669,-0.22063 0.82976,-0.70319 0.0563,-0.0642 0.15301,-0.15427 0.21096,-0.22737 0.036,-0.0455 0.068,-0.0902 0.10313,-0.13594 0.006,-0.007 0.0128,-0.0159 0.0188,-0.0234 0.89044,-1.08929 1.32602,-2.44339 1.29387,-3.67068 0.006,-1.48774 -0.59831,-2.77882 -1.61266,-3.84646 -0.73354,-0.7721 -1.56558,-1.24451 -2.31585,-1.50015 -0.82374,-0.23653 -1.80945,-0.35548 -2.61352,-0.2883 -0.12574,0.005 -0.27845,0.0136 -0.44771,0.0281 -0.0272,-0.0754 0.0177,-0.30826 0.0985,-0.36566 -0.17957,0.0168 -0.34585,0.24767 -0.49926,0.41254 -0.0311,0.006 -0.0583,0.0123 -0.0867,0.0187 0.13994,-0.24249 0.28573,-0.51436 0.45238,-0.73132 -0.51915,0.0968 -0.74714,0.5074 -1.00087,0.88368 -0.078,0.0257 -0.15788,0.0531 -0.2344,0.082 0.18693,-0.55292 0.55405,-0.83964 1.06651,-1.26341 z m -3.53003,8.39613 h 0.002 c 0.002,0.003 0.003,0.0155 0.007,0.0375 -0.002,-0.009 -0.008,-0.0359 -0.009,-0.0375 z" />
    <path
       d="m 419.90142,151.89405 c 0.52054,0.7487 1.08346,1.22788 1.85058,1.34616 -0.29985,-0.17336 -1.11388,-0.65889 -1.34886,-1.94822 0.24946,0.48858 1.00824,1.05616 1.34626,1.20488 0,0 -0.27886,-0.45854 -0.27519,-0.78705 0.002,-0.23214 0.0974,-0.48387 0.0792,-0.7125 l -2.28199,-0.60016 c 0.0136,0.0205 0.0613,0.69697 0.63003,1.49689 z"
       style="fill:#304776;stroke-width:0.749781"
       id="path3199" />
    <path
       d="m 427.59829,146.77093 -3.89704,-1.36665 -4.17636,0.2783 -1.06589,1.33017 c 0.18966,1.2296 0.0718,2.56065 0.73231,3.63491 l 6.90812,2.11871 1.49262,-2.61821 z"
       style="opacity:0.2;stroke-width:0.749853"
       id="path3256" />
    <path
       d="m 427.59697,146.49609 -3.89667,-1.36651 -4.17596,0.27827 -1.06578,1.33004 c 0.18964,1.22949 0.0718,2.56041 0.73224,3.63456 l 6.90745,2.11851 1.49248,-2.61796 z"
       style="fill:#ebebeb;stroke-width:0.749781"
       id="path3228" />
    <path
       d="m 419.6243,145.32795 0.70354,0.10044 0.19315,-0.94153 -0.38631,0.1883 z"
       style="fill:#3f7da7;fill-rule:evenodd;stroke-width:0.749781"
       id="path3312" />
    <path
       d="m 427.2813,147.52047 -0.57817,-1.89931 -7.07188,-0.071 -0.0401,0.0494 -0.0663,0.083 2.97512,3.34045 z"
       style="opacity:0.25;stroke-width:0.749853"
       id="path3284" />
    <path
       d="m 427.28001,147.24548 -0.57812,-1.89912 -7.07119,-0.071 -0.0401,0.0494 -0.0662,0.083 2.97483,3.34013 z"
       style="fill:#f7f7f7;stroke-width:0.749781"
       id="path3340" />
    <path
       d="m 423.68509,142.92903 c -7.2e-4,1.7e-4 -0.88907,0.005 -1.27684,0.1288 -0.64614,0.14912 -1.22585,0.42398 -1.80021,0.74233 -0.7458,0.50141 -1.35657,1.19564 -1.82832,1.95535 -0.41498,0.73247 -0.66642,1.54722 -0.7599,2.38215 -0.0556,0.84649 0.0413,1.70904 0.36004,2.50098 0.24707,0.69605 0.682,1.30969 1.23879,1.78616 0.73919,0.49325 1.32672,0.84978 2.13335,0.81541 -0.76712,-0.11832 -1.33004,-0.67264 -1.85058,-1.42134 -0.56873,-0.7999 -0.61647,-1.40094 -0.62994,-1.42143 l 0.007,0.002 c -0.19001,-0.60103 -0.3031,-1.22262 -0.37234,-1.85814 -0.008,-0.14202 -0.0265,-0.29604 0.0246,-0.25818 0.19141,0.30334 0.23646,0.2923 0.56872,0.46453 -0.28644,-1.07202 0.0958,-2.26405 0.56352,-3.1347 0.95962,-1.09861 2.35987,-1.98738 3.6215,-2.68423 z m -1.93309,10.31118 c -0.0377,-0.0341 -0.0772,-0.0559 -0.11772,-0.0726 0.044,0.0283 0.0864,0.0545 0.11772,0.0726 z"
       style="fill:#2f67a4;stroke-width:0.749781"
       id="path3171" />
    <path
       d="m 422.80172,142.00004 c -1.01527,0.027 -1.51832,1.0668 -1.91843,1.86925 -0.14412,0.25506 -0.33642,0.5577 -0.4623,0.79861 -0.24093,0.37966 -0.14237,0.8356 -0.0924,1.25096 -0.005,0.11376 0.1074,0.35278 0.0528,0.37687 -0.11016,0.33282 -0.20191,0.66215 0.0616,0.95274 0.0834,-0.37617 0.52359,-0.45729 0.84711,-0.61551 0.84512,-0.82374 1.64464,-0.96748 2.70942,-0.88404 0.58602,0 0.91966,-0.15259 1.49955,-0.41335 0.88965,0.37193 1.27149,0.95313 1.49956,1.9129 0.0859,0.72138 -1.07265,2.45213 -1.49917,2.99838 -6e-5,0 -0.004,7.3e-4 -0.004,7.3e-4 0,0 0.002,-1e-5 0.002,0 0.008,0.001 1.28863,-0.56941 1.7989,-1.05373 -0.36406,2.81497 -2.38951,4.40951 -3.29847,4.80262 1.21001,0.0815 3.21889,-1.27946 3.06899,-1.42299 -0.14992,-0.14353 -1.13788,1.16512 -1.56942,1.42299 0.79066,-0.2214 1.53876,-0.30184 2.03773,-0.6659 -1.9e-4,0 0.40543,-0.22072 0.82842,-0.70318 0.0563,-0.0642 0.15295,-0.15324 0.21088,-0.22634 0.036,-0.0455 0.0692,-0.092 0.10452,-0.1377 0.006,-0.007 0.0133,-0.0146 0.0193,-0.0223 0.89028,-1.08909 1.32385,-2.44316 1.29169,-3.67021 0.006,-1.48747 -0.59746,-2.77868 -1.6116,-3.84613 -0.73341,-0.77197 -1.56634,-1.24421 -2.31647,-1.4998 -0.97188,-0.27908 -2.17097,-0.39806 -3.02871,-0.23576 -0.0812,0.0271 -0.0335,-0.3184 0.0668,-0.38968 -0.24049,0.0224 -0.45556,0.42743 -0.65043,0.54609 0.15991,-0.26496 0.32418,-0.59543 0.51655,-0.84584 -0.71513,0.13352 -0.87631,0.85887 -1.31594,1.27564 0.14485,-0.77443 0.54735,-1.07686 1.15009,-1.57536 z"
       style="fill:#4a96e1;stroke-width:1.19999"
       id="path3023" />
    <path
       d="m 420.966,145.90837 c 1.24976,-0.036 0.46506,-0.81052 2.13301,-2.24934 -1.35888,0.70357 -2.65225,0.7026 -2.13139,2.24934 h -0.001 z"
       style="fill:#4271a3;stroke-width:0.749781"
       id="path3077" />
    <path
       d="m 421.6767,145.49373 c -0.11988,0.21887 -0.39942,0.30708 -0.5541,0.22469 -0.15807,-0.0824 -0.15723,-0.35784 -0.0348,-0.57671 0.11808,-0.21888 0.63993,-0.12067 0.64248,-0.12067 0.002,0 0.0662,0.25465 -0.0535,0.47269 z"
       style="fill:#ffffff;stroke-width:0.749781"
       id="path3105" />
    <path
       d="m 421.1168,146.70609 c 0,0 0.0769,-0.0742 0.0368,-0.20994 -0.47945,0.15852 -0.75772,-0.30039 -0.75605,-0.30039 10e-4,0 -0.30041,0.71559 0.0454,1.05271 0.0373,-0.35286 0.65602,-0.52391 0.6577,-0.52391"
       style="fill:#5c5f60;stroke-width:0.749781"
       id="path3133" />
  </g>
  <path
     id="rect639"
     style="fill:#ffffff;stroke-linecap:square;opacity:0.1"
     d="M 4 0 C 1.7840022 0 0 1.7840022 0 4 L 0 5 C 0 2.7840022 1.7840022 1 4 1 L 12 1 C 14.215998 1 16 2.7840022 16 5 L 16 4 C 16 1.7840022 14.215998 0 12 0 L 4 0 z " />
</svg>
