<?xml version="1.0" encoding="UTF-8" standalone="no"?>
<!-- Created with Inkscape (http://www.inkscape.org/) -->

<svg
   width="16"
   height="16"
   viewBox="0 0 16 16"
   version="1.1"
   id="svg5"
   inkscape:version="1.2.2 (1:1.2.2+202305151914+b0a8486541)"
   sodipodi:docname="virtualbox.svg"
   xmlns:inkscape="http://www.inkscape.org/namespaces/inkscape"
   xmlns:sodipodi="http://sodipodi.sourceforge.net/DTD/sodipodi-0.dtd"
   xmlns="http://www.w3.org/2000/svg"
   xmlns:svg="http://www.w3.org/2000/svg">
  <sodipodi:namedview
     id="namedview7"
     pagecolor="#ffffff"
     bordercolor="#000000"
     borderopacity="0.25"
     inkscape:showpageshadow="2"
     inkscape:pageopacity="0.0"
     inkscape:pagecheckerboard="0"
     inkscape:deskcolor="#d1d1d1"
     inkscape:document-units="px"
     showgrid="false"
     inkscape:zoom="50.375"
     inkscape:cx="8"
     inkscape:cy="8"
     inkscape:window-width="1920"
     inkscape:window-height="1008"
     inkscape:window-x="0"
     inkscape:window-y="0"
     inkscape:window-maximized="1"
     inkscape:current-layer="svg5" />
  <defs
     id="defs2" />
  <rect
     style="fill:#1263eb;fill-opacity:1;stroke-width:1.14286;stroke-linecap:square"
     id="rect396"
     width="16"
     height="16"
     x="0"
     y="0"
     ry="4" />
  <path
     d="m 4,2.5 c -1.108,0 -2,0.892 -2,2 v 2 H 4.35547 L 5.59375,10.04688 7.55469,4.27931 8.97461,7.72462 10.41797,3.80274 12.35742,9.5 H 14 v -5 c 0,-1.108 -0.892,-2 -2,-2 z M 10.38086,6.79688 9.02539,10.47657 7.64453,7.12306 5.60547,13.11328 3.64453,7.5 H 2 v 5 c 0,1.10801 0.892,2 2,2 h 8 c 1.108,0 2,-0.89199 2,-2 v -2 h -2.35742 z"
     style="opacity:0.2;fill:#000000;fill-opacity:1"
     id="path2433"
     sodipodi:nodetypes="ssccccccccsssccccccssssccc" />
  <path
     d="M 4,2 C 2.892,2 2,2.892 2,4 V 6 H 4.35547 L 5.59375,9.54687 7.55469,3.7793 8.97461,7.22461 10.41797,3.30273 12.35742,9 H 14 V 4 C 14,2.892 13.108,2 12,2 Z M 10.38086,6.29687 9.02539,9.97656 7.64453,6.62305 5.60547,12.61328 3.64453,7 H 2 v 5 c 0,1.108 0.892,2 2,2 h 8 c 1.108,0 2,-0.892 2,-2 v -2 h -2.35742 z"
     style="fill:#4bd0ff;fill-opacity:1"
     id="path1922"
     sodipodi:nodetypes="ssccccccccsssccccccssssccc" />
  <path
     id="path2461"
     style="opacity:0.2;fill:#ffffff;fill-opacity:1"
     d="M 4,2 C 2.892,2 2,2.892 2,4 v 0.5 c 0,-1.108 0.892,-2 2,-2 h 8 c 1.108,0 2,0.892 2,2 V 4 C 14,2.892 13.108,2 12,2 Z M 10.38086,6.29688 9.02539,9.97656 7.64453,6.62305 5.60547,12.61328 3.64453,7 H 2 V 7.5 H 3.64453 L 5.60547,13.11328 7.64453,7.12305 9.02539,10.47656 10.38086,6.79688 11.64258,10.5 H 14 V 10 h -2.35742 z" />
  <path
     id="rect639"
     style="fill:#ffffff;stroke-linecap:square;opacity:0.2"
     d="M 4 0 C 1.7840022 0 0 1.7840022 0 4 L 0 5 C 0 2.7840022 1.7840022 1 4 1 L 12 1 C 14.215998 1 16 2.7840022 16 5 L 16 4 C 16 1.7840022 14.215998 0 12 0 L 4 0 z " />
</svg>
