<?xml version="1.0" encoding="UTF-8" standalone="no"?>
<!-- Created with Inkscape (http://www.inkscape.org/) -->

<svg
   width="16"
   height="16"
   viewBox="0 0 16 16"
   version="1.1"
   id="svg5"
   inkscape:version="1.2.2 (1:1.2.2+202305151914+b0a8486541)"
   sodipodi:docname="visual-studio-code.svg"
   xmlns:inkscape="http://www.inkscape.org/namespaces/inkscape"
   xmlns:sodipodi="http://sodipodi.sourceforge.net/DTD/sodipodi-0.dtd"
   xmlns="http://www.w3.org/2000/svg"
   xmlns:svg="http://www.w3.org/2000/svg">
  <sodipodi:namedview
     id="namedview7"
     pagecolor="#ffffff"
     bordercolor="#000000"
     borderopacity="0.25"
     inkscape:showpageshadow="2"
     inkscape:pageopacity="0.0"
     inkscape:pagecheckerboard="0"
     inkscape:deskcolor="#d1d1d1"
     inkscape:document-units="px"
     showgrid="false"
     inkscape:zoom="50.375"
     inkscape:cx="7.9900744"
     inkscape:cy="8"
     inkscape:window-width="1920"
     inkscape:window-height="1008"
     inkscape:window-x="0"
     inkscape:window-y="0"
     inkscape:window-maximized="1"
     inkscape:current-layer="svg5" />
  <defs
     id="defs2" />
  <rect
     style="fill:#efefef;fill-opacity:1;stroke-width:1.14286;stroke-linecap:square"
     id="rect396"
     width="16"
     height="16"
     x="0"
     y="0"
     ry="4" />
  <path
     d="M 12.646268,4.559278 10.587137,3.5620863 C 10.34881,3.4466609 10.063947,3.49535 9.8768791,3.6834892 L 3.135992,9.7902912 c -0.1813133,0.1662844 -0.1811083,0.4533848 4.5e-4,0.6193938 l 0.5506148,0.503445 c 0.1484286,0.135738 0.3719665,0.14571 0.5317751,0.0238 L 12.336426,4.8179731 c 0.272328,-0.2077936 0.663489,-0.012425 0.663489,0.3313839 v -0.02405 c 0,-0.2413382 -0.137454,-0.4613392 -0.353647,-0.5660322 z"
     style="opacity:0.2;fill:#000000;stroke-width:0.499995"
     id="path692" />
  <path
     d="m 10.587147,13.437885 c -0.238407,0.115318 -0.523265,0.06659 -0.7103379,-0.121563 0.2304829,0.231816 0.6246089,0.06761 0.6246089,-0.260242 V 3.9436978 c 0,-0.3278565 -0.394126,-0.4920509 -0.6246089,-0.2602201 C 10.063882,3.495324 10.34874,3.4465649 10.587147,3.5618873 l 2.058781,0.9958217 c 0.216348,0.104638 0.353922,0.324719 0.353922,0.5661622 v 6.7520828 c 0,0.241436 -0.137574,0.461511 -0.353922,0.56615 z"
     style="opacity:0.2;fill:#000000;stroke-width:0.499995"
     id="path720" />
  <path
     d="M 12.646268,4.0594717 10.587137,3.0622805 C 10.34881,2.9468551 10.063947,2.9955441 9.8768791,3.1836829 L 3.135992,9.2904854 c -0.1813133,0.1662844 -0.1811083,0.4533837 4.5e-4,0.6193932 l 0.5506148,0.5034454 c 0.1484286,0.135738 0.3719665,0.14571 0.5317751,0.0238 L 12.336426,4.3181667 c 0.272328,-0.2077935 0.663489,-0.012425 0.663489,0.3313839 v -0.02405 c 0,-0.2413378 -0.137454,-0.4613387 -0.353647,-0.5660317 z"
     style="fill:#0072b0;stroke-width:0.499995"
     id="path418"
     sodipodi:nodetypes="cccccccccscc" />
  <path
     id="path502"
     style="opacity:0.1;fill:#ffffff;stroke-width:0.499995"
     d="m 10.30662,3.0000876 c -0.158078,0.0026 -0.312762,0.066005 -0.4296809,0.1835923 L 3.135787,9.2900679 C 2.9747085,9.4377965 2.9586936,9.6798392 3.084033,9.8486567 c 0.0154,-0.02061 0.03205,-0.040525 0.051754,-0.058594 L 9.8769391,3.6836752 C 10.064007,3.4955359 10.348565,3.4461804 10.586892,3.5616058 l 1.675765,0.8124924 0.07324,-0.055663 c 0.272333,-0.2077935 0.664059,-0.012755 0.664059,0.3310514 v -0.024415 c 0,-0.2413378 -0.137319,-0.4607317 -0.353512,-0.5654242 L 10.586893,3.0616095 c -0.08937,-0.043285 -0.185423,-0.063095 -0.280272,-0.061523 z" />
  <path
     d="m 3.9488044,5.7534798 c -0.094414,0.0042 -0.1874983,0.04054 -0.2617126,0.1083965 L 3.136322,6.3652851 C 2.9547637,6.5312896 2.9545187,6.8186304 3.135832,6.9849024 l 6.7410871,6.3314266 c 0.2304779,0.231816 0.6244989,0.06761 0.6244989,-0.260249 V 10.748017 L 4.2188219,5.8379506 C 4.1389176,5.7769826 4.0432185,5.7492586 3.9488044,5.7534798 Z"
     style="opacity:0.2;fill:#000000;stroke-width:0.499995"
     id="path664" />
  <path
     d="m 12.646358,11.940617 -2.059136,0.997194 c -0.238327,0.115398 -0.523185,0.06671 -0.7102579,-0.121405 L 3.136077,6.4845755 C 2.9547637,6.3183036 2.9549737,6.0311913 3.136527,5.8651868 L 3.6871418,5.3617215 C 3.8355754,5.2260038 4.0591083,5.2160114 4.2189169,5.3379465 L 12.336511,11.681905 C 12.608844,11.889691 13,11.694354 13,11.350516 v 0.02407 c 0,0.241319 -0.137449,0.461317 -0.353642,0.566035 z"
     style="fill:#008eda;stroke-width:0.499995"
     id="path312"
     sodipodi:nodetypes="cccccccccscc" />
  <path
     id="path446"
     style="opacity:0.1;fill:#ffffff;stroke-width:0.499995"
     d="m 3.9482794,5.252996 c -0.094414,0.0042 -0.1865233,0.04054 -0.2607376,0.1083975 L 3.136767,5.8652953 C 2.9749385,6.0132619 2.9575786,6.2567707 3.084033,6.4258371 c 0.01575,-0.021205 0.03245,-0.04202 0.052734,-0.060547 L 3.6875418,5.8623653 C 3.8359704,5.7266481 4.0589783,5.7160162 4.2187869,5.8379506 l 8.0448451,6.2880274 0.382811,-0.185545 c 0.216193,-0.104717 0.353512,-0.324105 0.353512,-0.565424 v -0.02442 c 0,0.343839 -0.390751,0.538838 -0.663079,0.331052 L 4.2187869,5.3379562 C 4.1388826,5.2769892 4.0426935,5.2487752 3.9482794,5.252996 Z" />
  <path
     d="m 10.587252,12.938085 c -0.238402,0.115318 -0.523265,0.06659 -0.7103329,-0.121562 0.2304779,0.231815 0.6246039,0.06761 0.6246039,-0.260243 V 3.4438984 c 0,-0.3278564 -0.394126,-0.4920509 -0.6246039,-0.2602205 C 10.063987,2.9955241 10.34885,2.9467651 10.587252,3.062088 l 2.058786,0.9958212 c 0.216348,0.1046385 0.353917,0.3247194 0.353917,0.5661622 v 6.7520826 c 0,0.241436 -0.137569,0.461512 -0.353917,0.56615 z"
     style="fill:#1eacf8;stroke-width:0.499995"
     id="path390"
     sodipodi:nodetypes="ccsscccsscc" />
  <path
     id="path558"
     style="opacity:0.2;fill:#ffffff;stroke-width:0.499995"
     d="m 10.30662,3.0000876 c -0.138949,0.00235 -0.274327,0.052847 -0.3847613,0.1445301 0.2332073,-0.1717829 0.5800743,-0.00854 0.5800743,0.2988252 v 0.08496 c 0.02895,0.00905 0.05704,0.0197 0.08496,0.033205 l 2.059551,0.9960842 c 0.216348,0.104638 0.353512,0.3249585 0.353512,0.5664012 V 4.6240979 c 0,-0.2414428 -0.137164,-0.4617632 -0.353512,-0.5664012 L 10.586893,3.0616125 c -0.0894,-0.043245 -0.185413,-0.063123 -0.280272,-0.061523 z m 0.195313,9.5565514 c 0,0.307365 -0.346867,0.470595 -0.5800743,0.298826 0.1622883,0.134727 0.3804413,0.17856 0.5800743,0.116209 z" />
  <path
     id="rect639"
     style="fill:#ffffff;stroke-linecap:square;opacity:0.2"
     d="M 4 0 C 1.7840022 0 0 1.7840022 0 4 L 0 5 C 0 2.7840022 1.7840022 1 4 1 L 12 1 C 14.215998 1 16 2.7840022 16 5 L 16 4 C 16 1.7840022 14.215998 0 12 0 L 4 0 z " />
</svg>
