<?xml version="1.0" encoding="UTF-8" standalone="no"?>
<!-- Created with Inkscape (http://www.inkscape.org/) -->

<svg
   width="16"
   height="16"
   viewBox="0 0 16 16"
   version="1.1"
   id="svg5"
   inkscape:version="1.3 (0e150ed6c4, 2023-07-21)"
   sodipodi:docname="vscodium.svg"
   xmlns:inkscape="http://www.inkscape.org/namespaces/inkscape"
   xmlns:sodipodi="http://sodipodi.sourceforge.net/DTD/sodipodi-0.dtd"
   xmlns="http://www.w3.org/2000/svg"
   xmlns:svg="http://www.w3.org/2000/svg">
  <sodipodi:namedview
     id="namedview7"
     pagecolor="#ffffff"
     bordercolor="#000000"
     borderopacity="0.25"
     inkscape:showpageshadow="2"
     inkscape:pageopacity="0.0"
     inkscape:pagecheckerboard="0"
     inkscape:deskcolor="#d1d1d1"
     inkscape:document-units="px"
     showgrid="false"
     inkscape:zoom="50.1875"
     inkscape:cx="8"
     inkscape:cy="8"
     inkscape:window-width="1850"
     inkscape:window-height="1011"
     inkscape:window-x="70"
     inkscape:window-y="32"
     inkscape:window-maximized="1"
     inkscape:current-layer="svg5" />
  <defs
     id="defs2" />
  <rect
     style="fill:#e4e4e4;fill-opacity:1;stroke-width:1.14286;stroke-linecap:square"
     id="rect396"
     width="16"
     height="16"
     x="0"
     y="0"
     ry="4" />
  <path
     d="m 7.8203798,3.5995711 c -0.29289,0.1879 -0.37737,0.57718 -0.18861,0.86904 1.03746,1.60665 1.28233,2.81848 1.17611,3.88049 -0.42941,2.0336799 -1.36281,2.4462509 -2.17851,2.4462509 -0.79639,0 -0.58312,-1.3106709 0.0157,-1.6942909 0.35735,-0.22311 0.81509,-0.36813 1.16637,-0.36813 0.34813,0 0.63034,-0.28131 0.63034,-0.6284 0,-0.34719 -0.28221,-0.6285 -0.63034,-0.6285 -0.41031,0 -0.81282,0.0862 -1.18854,0.23297 0.0768,-0.36217 0.10506,-0.7536 0.007,-1.16965 -0.15065,-0.63177 -0.58437,-1.23524 -1.33745,-1.82022 -0.13186,-0.10271 -0.29916,-0.14869 -0.46511,-0.12814 -0.16596,0.0203 -0.31691,0.10588 -0.41965,0.23748 -0.21366,0.27401 -0.1642,0.66894 0.1107,0.88208 0.61352,0.47652 0.81611,0.82925 0.88538,1.11959 0.0692,0.29032 0.0135,0.60181 -0.1256,1.02978 -0.17786,0.57676 -0.38434,1.09165 -0.47487,1.58538 -0.0445,0.24304 -0.0483,0.50751 -0.0599,0.7188199 -0.44183,-0.4306299 -0.61475,-0.9991899 -0.61475,-1.8299699 -1.3e-4,-0.34709 -0.28234,-0.6285 -0.63035,-0.6284 -0.3478,2.7e-4 -0.62961,0.28154 -0.62972,0.6284 0,1.13466 0.3318,2.2143109 1.22107,2.9345609 0.80502,0.76695 2.85216,0.48349 2.85216,1.71473 0,0.34749 0.50862,0.51663 0.85663,0.51663 0.35694,0 0.80615,-0.23862 0.80615,-0.51663 0,-1.39698 1.4722102,-2.24603 3.8957702,-2.24234 0.34812,3.5e-4 0.63056,-0.280591 0.63106,-0.627671 3.7e-4,-0.3471799 -0.28099,-0.6290999 -0.62911,-0.6297299 -0.16573,-1.7e-4 -0.32728,0.006 -0.48657,0.0148 0.27095,-0.63722 0.39112,-1.33878 0.36629,-2.09659 -0.012,-0.34699 -0.30276,-0.61895 -0.65056,-0.60767 -0.34822,0.0106 -0.621,0.30203 -0.60961,0.64922 0.0329,0.99221 -0.004,1.87821 -0.74355,2.34527 -0.21018,0.13268 -0.4545502,0.2478399 -0.6862802,0.2478399 0.17991,-0.4893199 0.3157902,-1.0058599 0.3714202,-1.5625999 0.0354,-0.35531 0.0393,-0.77742 -10e-4,-1.10532 -0.0629,-0.50801 -0.1388602,-1.08417 0.054,-1.51817 0.17323,-0.37378 0.56137,-0.53029 1.13126,-0.53029 0.34782,-2.6e-4 0.62965,-0.28163 0.62974,-0.62841 1.6e-4,-0.34719 -0.28173,-0.62879 -0.62974,-0.6291 -0.84688,0 -1.4888302,0.44571 -1.8527402,0.9842 -0.19027,-0.4064 -0.422,-0.82523 -0.70197,-1.25873 -0.0904,-0.14008 -0.23287,-0.23851 -0.39616,-0.27392 -0.0809,-0.0174 -0.16441,-0.0191 -0.24588,-0.004 -0.0814,0.0147 -0.1593,0.0452 -0.22898,0.0899 z"
     style="display:inline;opacity:0.2;fill:#000000;fill-opacity:1;stroke-width:0.102629;enable-background:new"
     id="path2906" />
  <path
     d="m 7.8203798,3.0996211 c -0.29289,0.1879 -0.37737,0.57718 -0.18861,0.86904 1.03746,1.60665 1.28233,2.81848 1.17611,3.88049 -0.42941,2.03368 -1.36281,2.4462499 -2.17851,2.4462499 -0.79639,0 -0.58312,-1.3106699 0.0157,-1.6942899 0.35735,-0.22311 0.81509,-0.36813 1.16637,-0.36813 0.34813,0 0.63034,-0.28131 0.63034,-0.6284 0,-0.34719 -0.28221,-0.6285 -0.63034,-0.6285 -0.41031,0 -0.81282,0.0862 -1.18854,0.23297 0.0768,-0.36217 0.10506,-0.7536 0.007,-1.16965 -0.15065,-0.63177 -0.58437,-1.23524 -1.33745,-1.82022 -0.13186,-0.10271 -0.29916,-0.14869 -0.46511,-0.12814 -0.16596,0.0204 -0.31691,0.10588 -0.41965,0.23748 -0.21366,0.27401 -0.1642,0.66894 0.1107,0.88208 0.61352,0.47652 0.81611,0.82925 0.88538,1.11959 0.0692,0.29032 0.0135,0.60181 -0.1256,1.02978 -0.17786,0.57676 -0.38434,1.09165 -0.47487,1.58538 -0.0445,0.24304 -0.0483,0.50751 -0.0599,0.71882 -0.44183,-0.43063 -0.61475,-0.99919 -0.61475,-1.82997 -1.3e-4,-0.34709 -0.28234,-0.6285 -0.63035,-0.6284 -0.3478,2.7e-4 -0.62961,0.28154 -0.62972,0.6284 0,1.13466 0.3318,2.2143099 1.22107,2.9345609 0.80502,0.76695 2.85216,0.48349 2.85216,1.71473 0,0.34749 0.50862,0.51663 0.85663,0.51663 0.35694,0 0.80615,-0.23862 0.80615,-0.51663 0,-1.39698 1.4722102,-2.246031 3.8957702,-2.242341 0.34812,3.5e-4 0.63056,-0.2805899 0.63106,-0.6276699 3.7e-4,-0.34718 -0.28099,-0.6291 -0.62911,-0.62973 -0.16573,-1.7e-4 -0.32728,0.006 -0.48657,0.0148 0.27095,-0.63722 0.39112,-1.33878 0.36629,-2.09659 -0.012,-0.34699 -0.30276,-0.61895 -0.65056,-0.60767 -0.34822,0.0106 -0.621,0.30203 -0.60961,0.64922 0.0329,0.99221 -0.004,1.87821 -0.74355,2.34527 -0.21018,0.13268 -0.4545502,0.24784 -0.6862802,0.24784 0.17991,-0.48932 0.3157902,-1.00586 0.3714202,-1.5626 0.0354,-0.35531 0.0393,-0.77742 -10e-4,-1.10532 -0.0629,-0.50801 -0.1388602,-1.08417 0.054,-1.51817 0.17323,-0.37378 0.56137,-0.53029 1.13126,-0.53029 0.34782,-2.6e-4 0.62965,-0.28163 0.62974,-0.62841 1.6e-4,-0.34719 -0.28173,-0.62879 -0.62974,-0.6291 -0.84688,0 -1.4888302,0.44571 -1.8527402,0.9842 -0.19027,-0.4064 -0.422,-0.82523 -0.70197,-1.25873 -0.0904,-0.14008 -0.23287,-0.23851 -0.39616,-0.27392 -0.0809,-0.0174 -0.16441,-0.0191 -0.24588,-0.004 -0.0814,0.0147 -0.1593,0.0452 -0.22898,0.0899 z"
     style="display:inline;fill:#2689fd;fill-opacity:1;stroke-width:0.102629;enable-background:new"
     id="path2086"
     sodipodi:nodetypes="cccscsssccccccscscccccssscccccccscscccsccscccc" />
  <path
     id="rect639"
     style="fill:#ffffff;stroke-linecap:square;opacity:0.2"
     d="M 4 0 C 1.7840022 0 0 1.7840022 0 4 L 0 5 C 0 2.7840022 1.7840022 1 4 1 L 12 1 C 14.215998 1 16 2.7840022 16 5 L 16 4 C 16 1.7840022 14.215998 0 12 0 L 4 0 z " />
</svg>
