<?xml version="1.0" encoding="UTF-8" standalone="no"?>
<!-- Created with Inkscape (http://www.inkscape.org/) -->

<svg
   width="16"
   height="16"
   viewBox="0 0 16 16"
   version="1.1"
   id="svg5"
   inkscape:version="1.3.2 (091e20ef0f, 2023-11-25, custom)"
   sodipodi:docname="wayland.svg"
   xmlns:inkscape="http://www.inkscape.org/namespaces/inkscape"
   xmlns:sodipodi="http://sodipodi.sourceforge.net/DTD/sodipodi-0.dtd"
   xmlns="http://www.w3.org/2000/svg"
   xmlns:svg="http://www.w3.org/2000/svg">
  <sodipodi:namedview
     id="namedview7"
     pagecolor="#ffffff"
     bordercolor="#000000"
     borderopacity="0.25"
     inkscape:showpageshadow="2"
     inkscape:pageopacity="0.0"
     inkscape:pagecheckerboard="0"
     inkscape:deskcolor="#d1d1d1"
     inkscape:document-units="px"
     showgrid="false"
     inkscape:zoom="51.375"
     inkscape:cx="8"
     inkscape:cy="8"
     inkscape:window-width="1920"
     inkscape:window-height="1008"
     inkscape:window-x="0"
     inkscape:window-y="0"
     inkscape:window-maximized="1"
     inkscape:current-layer="svg5" />
  <defs
     id="defs2" />
  <rect
     style="fill:#fbe7b3;fill-opacity:1;stroke-width:1.14286;stroke-linecap:square"
     id="rect396"
     width="16"
     height="16"
     x="0"
     y="0"
     ry="4" />
  <path
     id="rect639"
     style="fill:#ffffff;stroke-linecap:square;opacity:0.2"
     d="M 4 0 C 1.7840022 0 0 1.7840022 0 4 L 0 5 C 0 2.7840022 1.7840022 1 4 1 L 12 1 C 14.215998 1 16 2.7840022 16 5 L 16 4 C 16 1.7840022 14.215998 0 12 0 L 4 0 z " />
  <circle
     style="opacity:0.2;fill:#000000"
     id="path1"
     cx="8"
     cy="8.5"
     r="5" />
  <circle
     style="opacity:1;fill:#f3b616;fill-opacity:1"
     id="path2"
     cx="8"
     cy="8"
     r="5" />
  <path
     id="path3"
     style="opacity:0.2;fill:#ffffff;fill-opacity:1"
     d="M 8 3 A 5 5 0 0 0 3 8 A 5 5 0 0 0 3.0175781 8.25 A 5 5 0 0 1 8 3.5 A 5 5 0 0 1 12.988281 8.1679688 A 5 5 0 0 0 13 8 A 5 5 0 0 0 8 3 z " />
  <path
     style="opacity:0.2;stroke-width:0.5"
     d="m 11.724525,3.5 c 0.176524,1.03e-5 0.275175,0.1397706 0.29595,0.4192862 L 11.797508,5.235645 h 0.05452 l 0.116821,-0.097509 h 0.03116 v 0.029253 c -0.160964,0.123519 -0.316728,0.461545 -0.46729,1.014083 -0.05712,0.4745468 -0.153176,0.9133325 -0.288164,1.3163615 -0.119423,0.416039 -0.179133,0.799569 -0.179126,1.150596 l -0.225857,0.692307 c -5e-6,0.058508 0.08566,0.117013 0.257009,0.1755135 -0.03116,0.136515 -0.07789,0.204771 -0.140186,0.204769 v 0.039005 h 0.05452 v 0.02925 c -8e-6,0.07151 -0.08827,0.1072625 -0.264798,0.10726 l 0.03115,0.039005 v 0.136511 h -0.05452 c 0.03634,0.136515 0.11422,0.204769 0.233646,0.204769 v 0.06825 h -0.233646 v 0.03901 c 0.07787,2e-6 0.116818,0.05851 0.116823,0.175516 l -0.327101,0.13651 0.03115,0.039 v 0.02926 c -5e-6,0.04551 -0.03895,0.06826 -0.116823,0.06826 v 0.039 c 0.09864,2e-6 0.14797,0.02275 0.147975,0.06826 -0.140191,0.05851 -0.324511,0.347779 -0.552959,0.867822 C 9.788156,12.269232 9.585664,12.5 9.414331,12.5 H 9.352025 C 9.2222185,12.395991 9.115779,12.051461 9.0327105,11.466412 8.7004115,10.57584 8.534264,10.052547 8.534269,9.8965325 8.534264,9.493503 8.427825,9.3143865 8.214954,8.859347 8.1578365,8.6578335 8.1188965,8.3054515 8.098131,7.9999205 H 7.957945 C 7.604878,8.66948 7.4205585,9.0027125 7.404984,9.3797395 7.3063335,9.60076 7.2284505,9.867282 7.17134,10.179306 c 0.212874,0.07151 0.319313,0.139763 0.3193155,0.204766 v 0.039 c -0.166152,-0.026 -0.282973,-0.07475 -0.3504695,-0.146262 -0.07269,0.175516 -0.1687448,0.46302 -0.2881607,1.262584 -0.09346,0.370532 -0.2102828,0.510565 -0.3504666,0.510565 -0.3946025,-0.162513 -0.7243012,-0.383803 -0.9890964,-0.754336 -0.041538,4e-6 -0.109037,-0.185264 -0.202492,-0.555795 -0.057115,2e-6 -0.096055,-0.185265 -0.116823,-0.555797 C 4.995846,9.657495 4.860853,9.256231 4.7881633,8.5801735 V 7.5660875 H 4.7570093 L 4.616823,7.6050925 v -0.039005 c 0,-0.045495 0.046729,-0.068249 0.1401863,-0.068253 L 4.7258578,6.9127847 V 6.454495 L 4.5,4.7420507 V 4.1179983 C 4.5986506,3.727975 4.7699907,3.5329595 5.0140183,3.5329493 l 0.093462,0.097509 -0.093457,-0.029252 c 0.3790229,0.5200507 0.602285,1.2086604 0.6697815,1.5661832 h 0.2647977 v 0.068256 H 5.7461108 v 0.078007 c 0.07788,0.29903 0.1349927,0.4485438 0.1713402,0.4485363 h 0.062306 l 0.1401859,-0.039004 0.031152,0.039004 0.031154,-0.039004 0.031152,0.039004 v 0.029252 C 6.1095565,5.8694538 6.0394648,5.9767135 6.0031197,6.1132185 h -0.02336 v 0.068254 H 6.034277 C 6.1069642,7.26707 6.2419597,7.839203 6.439261,8.398247 l 0.116823,0.097507 h 0.062303 c 0.077881,5e-6 0.2414323,0.1198255 0.4906553,-0.640742 C 7.2699965,7.51049 7.386817,7.2582185 7.459509,6.9981919 L 7.428359,6.8909318 C 7.589309,6.6374161 7.755456,6.5106571 7.9267985,6.5106494 h 0.054517 c 0.109032,7.7e-6 0.1869125,0.071512 0.233646,0.2145197 C 8.360336,6.9396917 8.477159,7.211465 8.565428,7.6404945 l 0.436138,1.014083 C 9.058674,8.7260895 9.08723,8.8073445 9.087235,8.8983505 9.248187,9.2818835 9.393564,9.376491 9.5233735,9.5 h 0.093458 c 0.1090295,2.5e-6 0.2544065,-0.5655435 0.4361355,-1.514626 0.03115,5e-6 0.116818,-0.253516 0.257009,-0.760563 V 7.185806 L 10.161806,7.117549 10.044983,7.156554 H 9.8970075 V 7.078547 L 10.192957,7.049292 h 0.233842 c 0.223255,-0.8385618 0.428342,-1.4886167 0.615264,-1.950162 0.0623,-0.9490698 0.14797,-1.4236086 0.257009,-1.4236163 L 11.724534,3.5"
     id="path4" />
  <path
     style="fill:#ffffff;stroke-width:0.5"
     d="m 11.724525,3 c 0.176524,1.03e-5 0.275175,0.1397706 0.29595,0.4192862 L 11.797508,4.735645 h 0.05452 l 0.116821,-0.097509 h 0.03116 v 0.029253 c -0.160964,0.123519 -0.316728,0.461545 -0.46729,1.014083 -0.05712,0.4745468 -0.153176,0.9133322 -0.288164,1.3163615 -0.119423,0.416039 -0.179133,0.799569 -0.179126,1.150596 l -0.225857,0.692307 c -5e-6,0.058508 0.08566,0.117013 0.257009,0.1755135 -0.03116,0.136515 -0.07789,0.204771 -0.140186,0.204769 v 0.039005 h 0.05452 v 0.02925 c -8e-6,0.07151 -0.08827,0.1072625 -0.264798,0.10726 l 0.03115,0.039005 v 0.1365105 h -0.05452 c 0.03634,0.1365155 0.11422,0.204769 0.233646,0.204769 v 0.068254 h -0.233646 v 0.039005 c 0.07787,2.5e-6 0.116818,0.058508 0.116823,0.1755165 l -0.327101,0.13651 0.03115,0.039 v 0.02926 c -5e-6,0.04551 -0.03895,0.06826 -0.116823,0.06826 v 0.039 c 0.09864,2e-6 0.14797,0.02275 0.147975,0.06826 -0.140191,0.05851 -0.324511,0.347779 -0.552959,0.867822 C 9.788156,11.769232 9.585664,12 9.414331,12 H 9.352025 C 9.2222185,11.895991 9.115779,11.551461 9.0327105,10.966412 8.7004115,10.07584 8.534264,9.552547 8.534269,9.3965325 8.534264,8.993503 8.427825,8.8143865 8.214954,8.359347 8.1578365,8.1578335 8.1188965,7.8054515 8.098131,7.4999205 H 7.957945 C 7.604878,8.16948 7.4205585,8.5027125 7.404984,8.8797395 7.3063335,9.10076 7.2284505,9.367282 7.17134,9.679306 7.384214,9.750815 7.490653,9.819069 7.4906555,9.884072 v 0.039005 c -0.166152,-0.026 -0.282973,-0.074755 -0.3504695,-0.146262 -0.07269,0.175516 -0.1687448,0.46302 -0.2881607,1.262584 -0.09346,0.370532 -0.2102828,0.510565 -0.3504666,0.510565 -0.3946025,-0.162513 -0.7243012,-0.383803 -0.9890964,-0.754336 -0.041538,4e-6 -0.109037,-0.185264 -0.202492,-0.555795 -0.057115,2e-6 -0.096055,-0.185265 -0.116823,-0.555797 C 4.995846,9.157495 4.860853,8.756231 4.7881633,8.0801735 V 7.0660875 H 4.7570093 L 4.616823,7.1050925 v -0.039005 c 0,-0.045495 0.046729,-0.068249 0.1401863,-0.068254 L 4.7258578,6.4127847 V 5.954495 L 4.5,4.2420507 V 3.6179983 C 4.5986506,3.227975 4.7699907,3.0329595 5.0140183,3.0329493 l 0.093462,0.097509 -0.093457,-0.029252 c 0.3790229,0.5200506 0.602285,1.2086604 0.6697815,1.5661832 h 0.2647977 v 0.068256 H 5.7461108 v 0.078007 c 0.07788,0.29903 0.1349927,0.4485438 0.1713402,0.4485363 h 0.062306 l 0.1401859,-0.039004 0.031152,0.039004 0.031154,-0.039004 0.031152,0.039004 v 0.029252 C 6.1095565,5.3694538 6.0394648,5.4767135 6.0031197,5.6132185 h -0.02336 v 0.068254 H 6.034277 C 6.1069642,6.76707 6.2419597,7.339203 6.439261,7.898247 l 0.116823,0.097507 h 0.062303 c 0.077881,5e-6 0.2414323,0.1198255 0.4906553,-0.640742 C 7.2699965,7.01049 7.386817,6.7582183 7.459509,6.4981919 L 7.428359,6.3909318 C 7.589309,6.1374161 7.755456,6.0106571 7.9267985,6.0106494 h 0.054517 c 0.109032,7.7e-6 0.1869125,0.071512 0.233646,0.2145197 C 8.360336,6.4396917 8.477159,6.7114652 8.565428,7.1404945 l 0.436138,1.014083 C 9.058674,8.2260895 9.08723,8.3073445 9.087235,8.3983505 9.248187,8.7818835 9.393564,8.876491 9.5233735,9 h 0.093458 c 0.1090295,2.5e-6 0.2544065,-0.5655435 0.4361355,-1.514626 0.03115,5e-6 0.116818,-0.253516 0.257009,-0.760563 V 6.6858075 L 10.161806,6.617551 10.044983,6.656555 H 9.8970075 V 6.578548 L 10.192957,6.549295 h 0.233842 c 0.223255,-0.838562 0.428342,-1.488617 0.615264,-1.9501623 0.0623,-0.9490698 0.14797,-1.4236086 0.257009,-1.4236163 L 11.724534,3"
     id="path5" />
</svg>
