<?xml version="1.0" encoding="UTF-8" standalone="no"?>
<!-- Created with Inkscape (http://www.inkscape.org/) -->

<svg
   width="16"
   height="16"
   viewBox="0 0 16 16"
   version="1.1"
   id="svg5"
   inkscape:version="1.3 (0e150ed6c4, 2023-07-21)"
   sodipodi:docname="winecfg.svg"
   xmlns:inkscape="http://www.inkscape.org/namespaces/inkscape"
   xmlns:sodipodi="http://sodipodi.sourceforge.net/DTD/sodipodi-0.dtd"
   xmlns="http://www.w3.org/2000/svg"
   xmlns:svg="http://www.w3.org/2000/svg">
  <sodipodi:namedview
     id="namedview7"
     pagecolor="#ffffff"
     bordercolor="#000000"
     borderopacity="0.25"
     inkscape:showpageshadow="2"
     inkscape:pageopacity="0.0"
     inkscape:pagecheckerboard="0"
     inkscape:deskcolor="#d1d1d1"
     inkscape:document-units="px"
     showgrid="false"
     inkscape:zoom="50.1875"
     inkscape:cx="8"
     inkscape:cy="7.9800747"
     inkscape:window-width="1850"
     inkscape:window-height="1011"
     inkscape:window-x="70"
     inkscape:window-y="32"
     inkscape:window-maximized="1"
     inkscape:current-layer="svg5" />
  <defs
     id="defs2" />
  <rect
     style="fill:#ac3131;fill-opacity:1;stroke-width:1.14286;stroke-linecap:square"
     id="rect396"
     width="16"
     height="14"
     x="0"
     y="0"
     ry="4" />
  <path
     id="rect1"
     style="opacity:1;fill:#e7dbd0;fill-opacity:1"
     d="M 4 7 C 1.3615576 7.0037608 0 8 0 8 L 0 12 C 0 14.215998 1.7840022 16 4 16 L 12 16 C 14.215998 16 16 14.215998 16 12 L 16 8 C 16 8 14.49082 8.8408328 12 8.5 C 9.5091817 8.1591672 7.7643312 6.9946343 4 7 z " />
  <path
     id="rect1-3"
     style="fill:#ffffff;fill-opacity:1;opacity:0.2"
     d="M 4 7 C 1.3615602 7.00376 0 8 0 8 L 0 8.5 C 0 8.5 1.3615602 7.50376 4 7.5 C 7.7643274 7.4946343 9.5091842 8.6591683 12 9 C 14.490818 9.3408327 16 8.5 16 8.5 L 16 8 C 16 8 14.490818 8.8408327 12 8.5 C 9.5091842 8.1591683 7.7643274 6.9946343 4 7 z " />
  <path
     id="path1250"
     style="opacity:0.2;fill:#000000;stroke-width:0.499986"
     d="M 6.9741899,3.5001875 C 6.8679435,3.5117373 6.7729864,3.598466 6.7534867,3.7033125 L 6.5425493,4.773625 C 6.1633238,4.9217081 5.8086628,5.1251958 5.4956743,5.3751875 L 4.4527055,5.023625 C 4.3445593,4.9864012 4.2139285,5.0346771 4.1558305,5.133 L 3.1538774,6.867375 c -0.056423,0.09975 -0.030381,0.2377523 0.056641,0.3125 L 4.038643,7.9064375 c -0.029214,0.1948034 -0.046875,0.3908066 -0.046875,0.59375 0,0.2029274 0.017677,0.3989306 0.046875,0.59375 L 3.210518,9.8205 C 3.123496,9.89525 3.0974544,10.033255 3.153877,10.132999 l 1.0019535,1.734377 c 0.058098,0.09835 0.1887438,0.146597 0.296875,0.109374 l 1.0429688,-0.351563 c 0.3128385,0.249982 0.6675375,0.45347 1.046875,0.601562 l 0.2109374,1.070313 c 0.021415,0.112032 0.12989,0.201575 0.2441407,0.203125 h 2.0039062 c 0.1142467,-0.0015 0.2207685,-0.09109 0.2421875,-0.203125 l 0.2109375,-1.070313 c 0.3793368,-0.148081 0.7359904,-0.351595 1.0488274,-0.601562 l 1.041016,0.351562 c 0.108137,0.03722 0.238782,-0.01103 0.296875,-0.109374 L 12.84333,10.132999 C 12.89976,10.033249 12.87564,9.8951977 12.78864,9.8205 L 11.958564,9.0939375 c 0.02921,-0.1948044 0.04687,-0.3908076 0.04687,-0.59375 0,-0.2029284 -0.01767,-0.3989316 -0.04687,-0.59375 L 12.788642,7.179875 c 0.08701,-0.07469 0.111106,-0.2127433 0.05469,-0.3125 L 11.841379,5.133 C 11.783379,5.034653 11.6525,4.9864011 11.544504,5.023625 L 10.503486,5.3751875 C 10.190498,5.1251958 9.8338954,4.9216949 9.4546586,4.773625 L 9.2437211,3.7033125 C 9.2222221,3.5912911 9.1157803,3.5017375 9.0015336,3.5001875 H 6.9976274 c -0.0078,-2.5e-4 -0.015627,-2.5e-4 -0.023437,0 z m 1.0253906,3 c 1.1045684,0 2,0.8954316 2,2 0,1.1045684 -0.8954316,1.9999995 -2,1.9999995 -1.1045684,0 -2,-0.8954311 -2,-1.9999995 0,-1.1045684 0.8954316,-2 2,-2 z" />
  <path
     id="path1082"
     style="fill:#ffffff;stroke-width:0.499986"
     d="m 6.9741899,3.0001875 v 0.00195 C 6.867943,3.0136937 6.7729864,3.0984662 6.7534867,3.2033125 L 6.5425493,4.273625 C 6.1633238,4.4217081 5.8086628,4.6251961 5.4956743,4.8751875 L 4.4527055,4.523625 C 4.3445593,4.4864012 4.2139285,4.5346796 4.1558305,4.633 L 3.1538774,6.367375 c -0.056423,0.099747 -0.030381,0.2377527 0.056641,0.3125 L 4.038643,7.4064375 c -0.029214,0.1948034 -0.046875,0.3908066 -0.046875,0.59375 0,0.2029274 0.017677,0.3989306 0.046875,0.59375 L 3.210518,9.3205 C 3.123496,9.39525 3.0974544,9.5332533 3.153877,9.633 l 1.0019535,1.734376 c 0.058098,0.09835 0.1887438,0.146597 0.296875,0.109374 l 1.0429688,-0.351563 c 0.3128385,0.249982 0.6675375,0.45347 1.046875,0.601562 l 0.2109374,1.070313 c 0.021415,0.112032 0.12989,0.201575 0.2441407,0.203125 h 2.0039062 c 0.1142467,-0.0015 0.2207685,-0.09109 0.2421875,-0.203125 l 0.2109375,-1.070313 c 0.3793368,-0.148081 0.7359904,-0.351593 1.0488274,-0.601562 l 1.041016,0.351562 c 0.108137,0.03722 0.238782,-0.01104 0.296875,-0.109374 L 12.84333,9.633 C 12.89976,9.53325 12.87564,9.3951977 12.78864,9.3205 L 11.958564,8.5939375 c 0.02921,-0.1948034 0.04687,-0.3908076 0.04687,-0.59375 0,-0.2029284 -0.01767,-0.3989316 -0.04687,-0.59375 L 12.788647,6.679875 c 0.08701,-0.074693 0.111106,-0.2127432 0.05469,-0.3125 L 11.841384,4.633 C 11.783384,4.534653 11.652505,4.4864011 11.544509,4.523625 L 10.503486,4.8751875 C 10.190498,4.6251961 9.8338954,4.4216949 9.4546586,4.273625 L 9.2437211,3.2033125 C 9.2222221,3.0912911 9.1157803,3.0017375 9.0015336,3.0001875 H 6.9976274 c -0.0078,-2.5e-4 -0.015627,-2.5e-4 -0.023437,0 z m 1.0253906,3 c 1.1045684,0 2,0.8954316 2,2 0,1.1045684 -0.8954316,1.9999995 -2,1.9999995 -1.1045684,0 -2,-0.8954311 -2,-1.9999995 0,-1.1045684 0.8954316,-2 2,-2 z" />
  <path
     id="rect639"
     style="fill:#ffffff;stroke-linecap:square;opacity:0.1"
     d="M 4 0 C 1.7840022 0 0 1.7840022 0 4 L 0 5 C 0 2.7840022 1.7840022 1 4 1 L 12 1 C 14.215998 1 16 2.7840022 16 5 L 16 4 C 16 1.7840022 14.215998 0 12 0 L 4 0 z " />
</svg>
