<?xml version="1.0" encoding="UTF-8" standalone="no"?>
<!-- Created with Inkscape (http://www.inkscape.org/) -->

<svg
   width="16"
   height="16"
   viewBox="0 0 16 16"
   version="1.1"
   id="svg5"
   inkscape:version="1.3 (0e150ed6c4, 2023-07-21)"
   sodipodi:docname="workspace-switcher-right-top.svg"
   xmlns:inkscape="http://www.inkscape.org/namespaces/inkscape"
   xmlns:sodipodi="http://sodipodi.sourceforge.net/DTD/sodipodi-0.dtd"
   xmlns="http://www.w3.org/2000/svg"
   xmlns:svg="http://www.w3.org/2000/svg">
  <sodipodi:namedview
     id="namedview7"
     pagecolor="#ffffff"
     bordercolor="#000000"
     borderopacity="0.25"
     inkscape:showpageshadow="2"
     inkscape:pageopacity="0.0"
     inkscape:pagecheckerboard="0"
     inkscape:deskcolor="#d1d1d1"
     inkscape:document-units="px"
     showgrid="false"
     inkscape:zoom="48.9375"
     inkscape:cx="8"
     inkscape:cy="8"
     inkscape:window-width="1920"
     inkscape:window-height="984"
     inkscape:window-x="0"
     inkscape:window-y="29"
     inkscape:window-maximized="1"
     inkscape:current-layer="svg5" />
  <defs
     id="defs2" />
  <rect
     style="fill:#0245c5;fill-opacity:1;stroke-width:1.14286;stroke-linecap:square"
     id="rect396"
     width="16"
     height="16"
     x="0"
     y="0"
     ry="4" />
  <path
     id="rect1240"
     style="fill:#ffffff;fill-opacity:1;opacity:0.2"
     d="m 8,0 v 16 h 4 c 2.215998,0 4,-1.784002 4,-4 V 4 C 16,1.7840022 14.215998,0 12,0 Z"
     sodipodi:nodetypes="ccssssc" />
  <path
     id="rect1721"
     style="fill:#ffffff;fill-opacity:1;opacity:0.1"
     d="M 4,0 C 1.7840022,0 0,1.7840022 0,4 V 8 H 16 V 4 C 16,1.7840022 14.215998,0 12,0 Z"
     sodipodi:nodetypes="ssccsss" />
  <path
     id="rect639"
     style="fill:#ffffff;stroke-linecap:square;opacity:0.1"
     d="M 4 0 C 1.7840066 0 0 1.7840066 0 4 L 0 5 C 0 2.7840066 1.7840066 1 4 1 L 8 1 L 12 1 C 14.215994 1 16 2.7840066 16 5 L 16 4 C 16 1.7840066 14.215994 0 12 0 L 8 0 L 4 0 z " />
  <rect
     style="opacity:0.1;fill:#000000"
     id="rect1"
     width="9"
     height="9"
     x="7"
     y="0.5"
     ry="1.5" />
  <rect
     style="opacity:1;fill:#ebebeb;fill-opacity:1"
     id="rect3"
     width="9"
     height="9"
     x="7"
     y="0"
     ry="1.5" />
</svg>
