<?xml version="1.0" encoding="UTF-8" standalone="no"?>
<!-- Created with Inkscape (http://www.inkscape.org/) -->

<svg
   width="16"
   height="16"
   viewBox="0 0 16 16"
   version="1.1"
   id="svg5"
   inkscape:version="1.3 (0e150ed6c4, 2023-07-21)"
   sodipodi:docname="xfwm4.svg"
   xmlns:inkscape="http://www.inkscape.org/namespaces/inkscape"
   xmlns:sodipodi="http://sodipodi.sourceforge.net/DTD/sodipodi-0.dtd"
   xmlns="http://www.w3.org/2000/svg"
   xmlns:svg="http://www.w3.org/2000/svg">
  <sodipodi:namedview
     id="namedview7"
     pagecolor="#ffffff"
     bordercolor="#000000"
     borderopacity="0.25"
     inkscape:showpageshadow="2"
     inkscape:pageopacity="0.0"
     inkscape:pagecheckerboard="0"
     inkscape:deskcolor="#d1d1d1"
     inkscape:document-units="px"
     showgrid="false"
     inkscape:zoom="48.9375"
     inkscape:cx="8"
     inkscape:cy="8"
     inkscape:window-width="1920"
     inkscape:window-height="984"
     inkscape:window-x="0"
     inkscape:window-y="29"
     inkscape:window-maximized="1"
     inkscape:current-layer="svg5" />
  <defs
     id="defs2" />
  <rect
     style="fill:#beddeb;fill-opacity:1;stroke-width:1.14286;stroke-linecap:square"
     id="rect396"
     width="16"
     height="16"
     x="0"
     y="0"
     ry="4" />
  <rect
     style="opacity:0.2;fill:#000000;stroke-width:0.5"
     id="rect3"
     width="7"
     height="6"
     x="6"
     y="3.5"
     ry="0.5" />
  <rect
     style="opacity:0.2;fill:#000000;stroke-width:0.5"
     id="rect2"
     width="7"
     height="6"
     x="4"
     y="5.5"
     ry="0.5" />
  <rect
     style="opacity:0.2;fill:#000000;stroke-width:0.5"
     id="rect1"
     width="7"
     height="6"
     x="2"
     y="7.5"
     ry="0.5" />
  <rect
     style="fill:#007dde;fill-opacity:1;stroke-width:0.5"
     id="rect8"
     width="7"
     height="6"
     x="6"
     y="3"
     ry="0.5" />
  <path
     id="path5"
     style="opacity:0.1;fill:#ffffff;stroke-width:0.5"
     d="M 6.5,3 C 6.223001,3 6,3.2230006 6,3.5 V 4 C 6,3.7230005 6.223001,3.5 6.5,3.5 h 6 C 12.776999,3.5 13,3.7230005 13,4 V 3.5 C 13,3.2230006 12.776999,3 12.5,3 Z" />
  <rect
     style="fill:#2fbce5;fill-opacity:1;stroke-width:0.5"
     id="rect7"
     width="7"
     height="6"
     x="4"
     y="5"
     ry="0.5" />
  <path
     id="path4"
     style="opacity:0.2;fill:#ffffff;stroke-width:0.5"
     d="M 4.5,5 C 4.223001,5 4,5.2230005 4,5.5 V 6 C 4,5.7230005 4.223001,5.5 4.5,5.5 h 6 C 10.776999,5.5 11,5.7230005 11,6 V 5.5 C 11,5.2230005 10.776999,5 10.5,5 Z" />
  <rect
     style="fill:#e4e4e4;fill-opacity:1;stroke-width:0.6"
     id="rect6"
     width="7"
     height="6"
     x="2"
     y="7"
     ry="0.5" />
  <path
     d="M 4.085938,8.379 3.378906,9.086032 4.792969,10.500094 3.378907,11.914157 4.085938,12.621188 5.5,11.207125 6.914062,12.621188 7.621094,11.914157 6.207031,10.500094 7.621094,9.086032 6.914063,8.379001 5.5,9.793063 Z"
     style="opacity:0.1;fill:#000000;fill-opacity:1"
     id="path2" />
  <path
     d="M 4.085938,7.878906 3.378906,8.585938 4.792969,10 3.378907,11.414063 4.085938,12.121094 5.5,10.707031 6.914062,12.121094 7.621094,11.414062 6.207031,10 7.621094,8.585938 6.914063,7.878907 5.5,9.292969 Z"
     style="fill:#189ce1;fill-opacity:1"
     id="path1" />
  <path
     id="path3"
     style="opacity:0.2;fill:#ffffff;stroke-width:0.5"
     d="M 2.5,7 C 2.223001,7 2,7.223001 2,7.5 V 8 C 2,7.723001 2.223001,7.5 2.5,7.5 h 6 C 8.776999,7.5 9,7.723001 9,8 V 7.5 C 9,7.223001 8.776999,7 8.5,7 Z" />
  <path
     id="rect639"
     style="fill:#ffffff;stroke-linecap:square;opacity:0.2"
     d="M 4 0 C 1.7840022 0 0 1.7840022 0 4 L 0 5 C 0 2.7840022 1.7840022 1 4 1 L 12 1 C 14.215998 1 16 2.7840022 16 5 L 16 4 C 16 1.7840022 14.215998 0 12 0 L 4 0 z " />
</svg>
