<?xml version="1.0" encoding="UTF-8" standalone="no"?>
<!-- Created with Inkscape (http://www.inkscape.org/) -->

<svg
   width="16"
   height="16"
   viewBox="0 0 16 16"
   version="1.1"
   id="svg5"
   inkscape:version="1.3.2 (091e20ef0f, 2023-11-25, custom)"
   sodipodi:docname="yast-snapper.svg"
   xmlns:inkscape="http://www.inkscape.org/namespaces/inkscape"
   xmlns:sodipodi="http://sodipodi.sourceforge.net/DTD/sodipodi-0.dtd"
   xmlns="http://www.w3.org/2000/svg"
   xmlns:svg="http://www.w3.org/2000/svg">
  <sodipodi:namedview
     id="namedview7"
     pagecolor="#ffffff"
     bordercolor="#000000"
     borderopacity="0.25"
     inkscape:showpageshadow="2"
     inkscape:pageopacity="0.0"
     inkscape:pagecheckerboard="0"
     inkscape:deskcolor="#d1d1d1"
     inkscape:document-units="px"
     showgrid="false"
     inkscape:zoom="50.25"
     inkscape:cx="8"
     inkscape:cy="7.9900498"
     inkscape:window-width="1920"
     inkscape:window-height="1020"
     inkscape:window-x="0"
     inkscape:window-y="31"
     inkscape:window-maximized="1"
     inkscape:current-layer="svg5"
     showguides="false" />
  <defs
     id="defs2" />
  <rect
     style="fill:#5db43e;fill-opacity:1;stroke-width:1.14286;stroke-linecap:square"
     id="rect396"
     width="16"
     height="16"
     x="0"
     y="0"
     ry="4" />
  <path
     id="path1"
     d="M 8.0078125,4.5001923 C 7.6184129,4.4962923 7.2325215,4.551883 6.8574219,4.6505829 5.1092236,5.1008825 3.8074844,6.7537815 3.8339844,8.4923798 H 3 L 4.3339844,10.412302 C 4.7783839,9.7723023 5.2214161,9.1323792 5.6660156,8.4923798 H 4.8339844 C 4.8305844,7.7642805 5.1144411,7.0398855 5.6191406,6.4962861 6.5678397,5.4009871 8.3464231,5.142593 9.6074219,5.8751923 10.025921,6.4015918 10.954796,5.8231949 10.466797,5.2833954 9.7727976,4.7640959 8.8844116,4.5019923 8.0078125,4.5001923 Z m 3.6582035,2.0800781 -1.332032,1.9199219 h 0.832032 c 0.0042,0.7700992 -0.316511,1.5373547 -0.875,2.0898437 -0.9643994,1.016519 -2.674786,1.241036 -3.8964848,0.529297 -0.4227695,-0.53121 -1.3666207,0.04095 -0.8632812,0.589843 0.986499,0.73639 2.3445231,0.972241 3.5449219,0.650391 1.7788981,-0.4265 3.1134741,-2.098123 3.0898441,-3.8574216 H 13 C 12.55548,7.8621461 12.110005,7.2202598 11.666016,6.5802704 Z"
     style="opacity:0.2;fill:#000000" />
  <path
     id="path2"
     d="M 8.0078125 4 C 7.6184129 3.9961 7.2325215 4.0516907 6.8574219 4.1503906 C 5.1092236 4.6006902 3.8074844 6.2535892 3.8339844 7.9921875 L 3 7.9921875 L 4.3339844 9.9121094 C 4.7783839 9.27211 5.2214161 8.6321869 5.6660156 7.9921875 L 4.8339844 7.9921875 C 4.8305844 7.2640882 5.1144411 6.5396932 5.6191406 5.9960938 C 6.5678397 4.9007948 8.3464231 4.6424007 9.6074219 5.375 C 10.025921 5.9013995 10.954796 5.3230026 10.466797 4.7832031 C 9.7727976 4.2639036 8.8844116 4.0018 8.0078125 4 z M 11.666016 6.0800781 L 10.333984 8 L 11.166016 8 C 11.170266 8.7700992 10.849505 9.5373543 10.291016 10.089844 C 9.3266166 11.106363 7.61623 11.33088 6.3945312 10.619141 C 5.9717617 10.087931 5.0279105 10.660095 5.53125 11.208984 C 6.517749 11.945374 7.8757731 12.181225 9.0761719 11.859375 C 10.85507 11.432875 12.189646 9.7612514 12.166016 8.0019531 L 13 8.0019531 C 12.55548 7.3619538 12.110005 6.7200675 11.666016 6.0800781 z "
     style="fill:#ffffff" />
  <path
     id="rect639"
     style="fill:#ffffff;stroke-linecap:square;opacity:0.2"
     d="M 4 0 C 1.7840022 0 0 1.7840022 0 4 L 0 5 C 0 2.7840022 1.7840022 1 4 1 L 12 1 C 14.215998 1 16 2.7840022 16 5 L 16 4 C 16 1.7840022 14.215998 0 12 0 L 4 0 z " />
</svg>
