<?xml version="1.0" encoding="UTF-8" standalone="no"?>
<!-- Created with Inkscape (http://www.inkscape.org/) -->

<svg
   width="16"
   height="16"
   viewBox="0 0 16 16"
   version="1.1"
   id="svg5"
   inkscape:version="1.3 (0e150ed6c4, 2023-07-21)"
   sodipodi:docname="yuzu.svg"
   xmlns:inkscape="http://www.inkscape.org/namespaces/inkscape"
   xmlns:sodipodi="http://sodipodi.sourceforge.net/DTD/sodipodi-0.dtd"
   xmlns="http://www.w3.org/2000/svg"
   xmlns:svg="http://www.w3.org/2000/svg">
  <sodipodi:namedview
     id="namedview7"
     pagecolor="#ffffff"
     bordercolor="#000000"
     borderopacity="0.25"
     inkscape:showpageshadow="2"
     inkscape:pageopacity="0.0"
     inkscape:pagecheckerboard="0"
     inkscape:deskcolor="#d1d1d1"
     inkscape:document-units="px"
     showgrid="false"
     inkscape:zoom="50.1875"
     inkscape:cx="8"
     inkscape:cy="8"
     inkscape:window-width="1850"
     inkscape:window-height="1011"
     inkscape:window-x="70"
     inkscape:window-y="32"
     inkscape:window-maximized="1"
     inkscape:current-layer="svg5" />
  <defs
     id="defs2" />
  <rect
     style="fill:#e4e4e4;fill-opacity:1;stroke-width:1.14286;stroke-linecap:square"
     id="rect396"
     width="16"
     height="16"
     x="0"
     y="0"
     ry="4" />
  <path
     id="path3"
     style="opacity:0.1;fill:#000000"
     d="M 6,2.5 C 3.7244246,2.7544153 2.0027169,4.7102482 2,7 c 0.00272,2.289752 1.7244245,4.245584 4,4.5 h 1 v -9 z M 6,3.5058594 V 10.492188 C 4.2799211,10.243917 3.0025412,8.737902 3,7 3.0015719,5.2613563 4.2791882,3.7542364 6,3.5058594 Z M 8,4.5 v 9 H 9 C 11.275576,13.245584 12.997283,11.289752 13,9 12.99927,6.7087559 11.277057,4.7545825 9,4.5 Z M 9,5.5117188 C 10.720078,5.7599888 11.997459,7.262098 12,9 c -0.0016,1.738643 -1.279189,3.245763 -3,3.494141 z" />
  <path
     id="path1"
     style="fill:#0ab9e6"
     d="M 6,2 C 3.7244223,2.2544156 2.0027169,4.2102459 2,6.5 2.0027168,8.7897542 3.7244222,10.745584 6,11 H 7 V 2 Z M 6,3.0058594 V 9.992188 C 4.2799194,9.743917 3.0025412,8.2379037 3,6.5 3.0015719,4.7613546 4.2791865,3.2542367 6,3.0058594 Z" />
  <path
     id="path2"
     style="fill:#ff3c28"
     d="m 8,4 v 9 H 9 C 11.275578,12.745584 12.997283,10.789754 13,8.5 12.99927,6.2087536 11.277059,4.2545828 9,4 Z M 9,5.0117188 C 10.72008,5.2599891 11.997459,6.7620963 12,8.5 c -0.0016,1.738645 -1.279187,3.245763 -3,3.494141 z" />
  <path
     id="rect639"
     style="fill:#ffffff;stroke-linecap:square;opacity:0.2"
     d="M 4 0 C 1.7840022 0 0 1.7840022 0 4 L 0 5 C 0 2.7840022 1.7840022 1 4 1 L 12 1 C 14.215998 1 16 2.7840022 16 5 L 16 4 C 16 1.7840022 14.215998 0 12 0 L 4 0 z " />
</svg>
