<?xml version="1.0" encoding="UTF-8" standalone="no"?>
<svg
   height="22"
   viewBox="0 0 22 22"
   width="22"
   version="1.1"
   id="svg1"
   sodipodi:docname="list-drag-handle-symbolic.svg"
   inkscape:version="1.4.3 (0d15f75042, 2025-12-25)"
   xmlns:inkscape="http://www.inkscape.org/namespaces/inkscape"
   xmlns:sodipodi="http://sodipodi.sourceforge.net/DTD/sodipodi-0.dtd"
   xmlns="http://www.w3.org/2000/svg"
   xmlns:svg="http://www.w3.org/2000/svg">
  <defs
     id="defs1">
    <style
       id="current-color-scheme"
       type="text/css">
        .ColorScheme-Text { color:#dfdfdf; } .ColorScheme-Highlight { color:#4285f4; } .ColorScheme-NeutralText { color:#ff9800; } .ColorScheme-PositiveText { color:#4caf50; } .ColorScheme-NegativeText { color:#f44336; }
     </style>
  </defs>
  <sodipodi:namedview
     id="namedview1"
     pagecolor="#ffffff"
     bordercolor="#000000"
     borderopacity="0.25"
     inkscape:showpageshadow="2"
     inkscape:pageopacity="0.0"
     inkscape:pagecheckerboard="0"
     inkscape:deskcolor="#d1d1d1"
     inkscape:zoom="36.590909"
     inkscape:cx="11"
     inkscape:cy="11"
     inkscape:window-width="1920"
     inkscape:window-height="1008"
     inkscape:window-x="0"
     inkscape:window-y="0"
     inkscape:window-maximized="1"
     inkscape:current-layer="svg1" />
  <path
     id="path1"
     style="fill:currentColor"
     class="ColorScheme-Text"
     d="M 7.5,3 C 6.667968,3 5.9999999,3.671875 6,4.5 6,5.328125 6.667968,6 7.5,6 8.328125,6 8.9999999,5.328125 9,4.5 9,3.671875 8.3281249,3 7.5,3 Z m 6,0 C 12.667968,3 12,3.671875 12,4.5 12,5.328125 12.667968,6 13.5,6 14.328125,6 15,5.328125 15,4.5 15,3.671875 14.328125,3 13.5,3 Z m -6,6 C 6.667968,9 6,9.671875 6,10.5 6,11.328125 6.667968,12 7.5,12 8.328125,12 9,11.328125 9,10.5 9,9.671875 8.328125,9 7.5,9 Z m 6,0 C 12.667968,9 12,9.671875 12,10.5 12,11.328125 12.667968,12 13.5,12 14.328125,12 15,11.328125 15,10.5 15,9.671875 14.328125,9 13.5,9 Z m -6,6 C 6.667968,15 6,15.671875 6,16.5 6,17.328125 6.667968,18 7.5,18 8.328125,18 9,17.328125 9,16.5 9,15.671875 8.328125,15 7.5,15 Z m 6,0 C 12.667968,15 12,15.671875 12,16.5 12,17.328125 12.667968,18 13.5,18 14.328125,18 15,17.328125 15,16.5 15,15.671875 14.328125,15 13.5,15 Z" />
</svg>
