<?xml version="1.0" encoding="UTF-8" standalone="no"?>
<!-- Created with Inkscape (http://www.inkscape.org/) -->

<svg
   width="128"
   height="128"
   viewBox="0 0 128 128"
   version="1.1"
   id="svg5"
   inkscape:version="1.4 (e7c3feb100, 2024-10-09)"
   sodipodi:docname="ark.svg"
   xmlns:inkscape="http://www.inkscape.org/namespaces/inkscape"
   xmlns:sodipodi="http://sodipodi.sourceforge.net/DTD/sodipodi-0.dtd"
   xmlns="http://www.w3.org/2000/svg"
   xmlns:svg="http://www.w3.org/2000/svg">
  <sodipodi:namedview
     id="namedview7"
     pagecolor="#ffffff"
     bordercolor="#000000"
     borderopacity="0.25"
     inkscape:showpageshadow="2"
     inkscape:pageopacity="0.0"
     inkscape:pagecheckerboard="0"
     inkscape:deskcolor="#d1d1d1"
     inkscape:document-units="px"
     showgrid="false"
     inkscape:zoom="6.296875"
     inkscape:cx="64"
     inkscape:cy="64"
     inkscape:window-width="1920"
     inkscape:window-height="1011"
     inkscape:window-x="0"
     inkscape:window-y="0"
     inkscape:window-maximized="1"
     inkscape:current-layer="g2780" />
  <defs
     id="defs2" />
  <rect
     style="opacity:0.2;fill:#000000;stroke-width:8;stroke-linecap:square"
     id="rect234"
     width="112"
     height="112"
     x="8"
     y="9"
     ry="24" />
  <rect
     style="fill:#4f4f4f;fill-opacity:1;stroke-width:8;stroke-linecap:square"
     id="rect396"
     width="112"
     height="112"
     x="8"
     y="8"
     ry="24" />
  <g
     id="g2780"
     transform="matrix(2,0,0,2,-576,-280)">
    <rect
       style="opacity:0.2;fill:#ffffff;fill-opacity:1"
       id="rect2693"
       width="10"
       height="30"
       x="315"
       y="144" />
    <path
       id="rect2365"
       style="fill:#ffffff"
       d="m 320,144 v 3 h 3 v -3 z m 0,3 h -3 v 3 h 3 z m 0,3 v 3 h 3 v -3 z m 0,3 h -3 v 3 h 3 z m 0,3 v 3 h 3 v -3 z m 0,3 h -3 v 3 h 3 z m 0,3 v 3 h 3 v -3 z m 0,3 h -3 v 3 h 3 z" />
    <path
       style="fill:#363636;fill-opacity:1"
       d="m 320,165 c 3.75,0 3.75,5.6 5,5.6 v 7 c 0,0.7756 -0.5575,1.4 -1.25,1.4 h -7.5 c -0.6925,0 -1.25,-0.6244 -1.25,-1.4 v -7 c 1.25,0 1.25,-5.6 5,-5.6 z"
       id="path2369" />
    <path
       d="M 319.66797,171.5 C 317.08264,171.5 315,173.60272 315,176.21094 v 9.57812 c 0,2.60822 2.08264,4.71094 4.66797,4.71094 h 0.66406 c 2.58533,0 4.66797,-2.10272 4.66797,-4.71094 v -9.57812 C 325,173.60272 322.91736,171.5 320.33203,171.5 Z M 320,181.5 c 2.20914,0 4,1.79288 4,4.00195 0,2.20908 -1.79086,3.99805 -4,3.99805 -2.20914,0 -4,-1.78897 -4,-3.99805 0,-2.20907 1.79086,-4.00195 4,-4.00195 z"
       style="opacity:0.2;fill:#000000"
       id="path2570" />
    <path
       style="fill:#ffffff"
       d="M 319.66797,171 C 317.08264,171 315,173.10272 315,175.71094 v 9.57812 c 0,2.60822 2.08264,4.71094 4.66797,4.71094 h 0.66406 C 322.91736,190 325,187.89728 325,185.28906 v -9.57812 C 325,173.10272 322.91736,171 320.33203,171 Z M 320,181 c 2.20914,0 4,1.79288 4,4.00195 0,2.20908 -1.79086,3.99805 -4,3.99805 -2.20914,0 -4,-1.78897 -4,-3.99805 C 316,182.79288 317.79086,181 320,181 Z"
       id="path2373" />
    <path
       style="fill:#909090"
       d="M 319.98437,167.00012 A 1.0001,0.99660733 0 0 0 319,168.01025 v 5.97905 a 1.0001,0.99660733 0 1 0 2,0 v -5.97905 a 1.0001,0.99660733 0 0 0 -1.01563,-1.01013 z"
       id="path2375" />
  </g>
  <path
     id="path1040"
     style="opacity:0.1;fill:#ffffff;stroke-width:8;stroke-linecap:square"
     d="M 32,8 C 18.704026,8 8,18.704027 8,32 v 1 C 8,19.704013 18.704013,9 32,9 h 64 c 13.29599,0 24,10.704013 24,24 V 32 C 120,18.704027 109.29597,8 96,8 Z" />
</svg>
