<?xml version="1.0" encoding="UTF-8" standalone="no"?>
<!-- Created with Inkscape (http://www.inkscape.org/) -->

<svg
   width="128"
   height="128"
   viewBox="0 0 128 128"
   version="1.1"
   id="svg5"
   inkscape:version="1.4 (e7c3feb100, 2024-10-09)"
   sodipodi:docname="dconf-editor.svg"
   xmlns:inkscape="http://www.inkscape.org/namespaces/inkscape"
   xmlns:sodipodi="http://sodipodi.sourceforge.net/DTD/sodipodi-0.dtd"
   xmlns="http://www.w3.org/2000/svg"
   xmlns:svg="http://www.w3.org/2000/svg">
  <sodipodi:namedview
     id="namedview7"
     pagecolor="#ffffff"
     bordercolor="#000000"
     borderopacity="0.25"
     inkscape:showpageshadow="2"
     inkscape:pageopacity="0.0"
     inkscape:pagecheckerboard="0"
     inkscape:deskcolor="#d1d1d1"
     inkscape:document-units="px"
     showgrid="false"
     inkscape:zoom="6.140625"
     inkscape:cx="64"
     inkscape:cy="64"
     inkscape:window-width="1920"
     inkscape:window-height="1011"
     inkscape:window-x="0"
     inkscape:window-y="0"
     inkscape:window-maximized="1"
     inkscape:current-layer="svg5" />
  <defs
     id="defs2" />
  <rect
     style="opacity:0.2;fill:#000000;stroke-width:8;stroke-linecap:square"
     id="rect234"
     width="112"
     height="112"
     x="8"
     y="9"
     ry="24" />
  <rect
     style="fill:#3a3a3a;fill-opacity:1;stroke-width:8;stroke-linecap:square"
     id="rect396"
     width="112"
     height="96"
     x="8"
     y="24"
     ry="24" />
  <path
     id="rect1233"
     style="fill:#4f4f4f;fill-opacity:1;stroke-width:8;stroke-linecap:square"
     d="M 32,8.0000004 H 96 C 109.296,8.0000004 120,18.704 120,32 V 52 H 8.0000004 V 32 C 8.0000004,18.704 18.704,8.0000004 32,8.0000004 Z" />
  <path
     style="fill:#3584e4;stroke-width:4"
     d="M 91.4304,72 H 72.56956 C 65.62812,72 60,77.373816 60,84.002072 60,90.630324 65.62812,96 72.56956,96 H 91.4304 c 6.94148,0 9.77108,-5.369676 9.77108,-11.997928 C 101.20148,77.373816 98.37188,72 91.4304,72 Z"
     id="path4513" />
  <path
     id="path4515"
     style="opacity:0.1;fill:#000000;stroke-width:4"
     d="M 72.570312,72 C 65.62884,72 60,77.371752 60,84 c 0,0.142234 0.0071,0.284824 0.01562,0.425782 C 60.329992,78.06458 65.830794,73 72.570312,73 h 18.859376 c 6.714218,0 9.573362,5.031848 9.753902,11.359376 0.006,-0.119904 0.0195,-0.238322 0.0195,-0.359376 0,-6.628248 -2.83196,-12 -9.773432,-12 z" />
  <path
     style="opacity:0.2;fill:#000000;stroke-width:4"
     d="m 80,85 c 0,6.626864 5.37336,12 12,12 6.63072,0 12,-5.373136 12,-12 0,-6.626868 -5.36928,-12 -12,-12 -6.62664,0 -12,5.373132 -12,12 z m 0,0"
     id="path4517" />
  <path
     style="fill:#5f5f5f;fill-opacity:1;stroke-width:4"
     d="m 80,84 c 0,6.626864 5.37336,12 12,12 6.63072,0 12,-5.373136 12,-12 0,-6.626868 -5.36928,-12 -12,-12 -6.62664,0 -12,5.373132 -12,12 z m 0,0"
     id="path4519" />
  <rect
     style="opacity:0.2;fill:#000000;fill-opacity:1;stroke-width:14.1421;stroke-linecap:round;stroke-linejoin:round"
     id="rect4964"
     width="112"
     height="1"
     x="8"
     y="52" />
  <path
     id="path4523"
     style="fill:#dedede;fill-opacity:1;stroke-width:4"
     d="m 40,24 v 8 h 8 v -8 z m 32,0 v 8 h 32 v -8 z" />
  <path
     id="path4529"
     style="fill:#a4a4a4;fill-opacity:1;stroke-width:4"
     d="M 31.33592,16 22,44 h 4.41408 L 35.7422,16 Z m 32,0 L 54,44 h 4.53124 l 9.32812,-28 z" />
  <path
     style="fill:#3584e4;stroke-width:4"
     d="m 72,40 h 32 v 4 H 72 Z m 0,0"
     id="path4531" />
  <path
     id="rect4966"
     style="fill:#7a7a7a;fill-opacity:1;stroke-width:20;stroke-linecap:round;stroke-linejoin:round"
     d="m 24,72 v 8 h 28 v -8 z m 0,20 v 8 h 16 v -8 z" />
  <path
     id="path1040"
     style="opacity:0.1;fill:#ffffff;stroke-width:8;stroke-linecap:square"
     d="M 32,8 C 18.704013,8 8.0000004,18.704014 8.0000004,32 v 1 C 8.0000004,19.704014 18.704013,9 32,9 h 64 c 13.29599,0 24,10.704014 24,24 V 32 C 120,18.704014 109.29599,8 96,8 Z" />
</svg>
