<?xml version="1.0" encoding="UTF-8" standalone="no"?>
<!-- Created with Inkscape (http://www.inkscape.org/) -->

<svg
   width="128"
   height="128"
   viewBox="0 0 128 128"
   version="1.1"
   id="svg5"
   inkscape:version="1.4 (e7c3feb100, 2024-10-09)"
   sodipodi:docname="google-photos.svg"
   xmlns:inkscape="http://www.inkscape.org/namespaces/inkscape"
   xmlns:sodipodi="http://sodipodi.sourceforge.net/DTD/sodipodi-0.dtd"
   xmlns="http://www.w3.org/2000/svg"
   xmlns:svg="http://www.w3.org/2000/svg">
  <sodipodi:namedview
     id="namedview7"
     pagecolor="#ffffff"
     bordercolor="#000000"
     borderopacity="0.25"
     inkscape:showpageshadow="2"
     inkscape:pageopacity="0.0"
     inkscape:pagecheckerboard="0"
     inkscape:deskcolor="#d1d1d1"
     inkscape:document-units="px"
     showgrid="false"
     inkscape:zoom="5.609375"
     inkscape:cx="64"
     inkscape:cy="64"
     inkscape:window-width="1920"
     inkscape:window-height="1011"
     inkscape:window-x="0"
     inkscape:window-y="0"
     inkscape:window-maximized="1"
     inkscape:current-layer="svg5" />
  <defs
     id="defs2" />
  <rect
     style="opacity:0.2;fill:#000000;stroke-width:8;stroke-linecap:square"
     id="rect234"
     width="112"
     height="112"
     x="8"
     y="9"
     ry="24" />
  <rect
     style="fill:#4f4f4f;fill-opacity:1;stroke-width:8;stroke-linecap:square"
     id="rect396"
     width="112"
     height="112"
     x="8"
     y="8"
     ry="24" />
  <path
     d="m 66,25 c -1.108,0 -2,0.892 -2,2 V 63 C 64,50.57176 55.04564,43 44,43 33.0701,43 24,52.06766 24,63 c 0,1.108 0.892,2 2,2 h 36 c -12.42824,0 -20,8.95434 -20,20 0,10.92988 9.06766,20 20,20 1.108,0 2,-0.892 2,-2 V 67 c 0,12.42822 8.95434,20 20,20 10.92988,0 20,-9.06768 20,-20 0,-1.108 -0.892,-2 -2,-2 H 66 C 78.42822,65 86,56.04564 86,45 86,34.0701 76.93232,25 66,25 Z"
     style="opacity:0.2;fill:#000000;fill-opacity:1;stroke-width:3.64222"
     id="path2829"
     sodipodi:nodetypes="sscssscssscssscss" />
  <path
     id="path418"
     style="fill:#ffba00;fill-opacity:1;stroke-width:3.64222"
     d="m 44,42 c -10.9299,0 -20,9.06766 -20,20 0,1.108 0.892,2 2,2 H 64 V 62 C 64,49.57176 55.04566,42 44,42 Z"
     sodipodi:nodetypes="ssccss" />
  <path
     d="m 84,86 c 10.9299,0 20,-9.06766 20,-20 0,-1.108 -0.892,-2 -2,-2 H 64 v 2 c 0,12.42824 8.95434,20 20,20 z"
     style="fill:#2684fc;fill-opacity:1;stroke-width:3.64222"
     id="path1093"
     sodipodi:nodetypes="ssscss" />
  <path
     d="M 86,44 C 86,33.0701 76.93234,24 66,24 c -1.108,0 -2,0.892 -2,2 v 38 h 2 c 12.42824,0 20,-8.95434 20,-20 z"
     style="fill:#ea4335;fill-opacity:1;stroke-width:3.64222"
     id="path1037"
     sodipodi:nodetypes="ssscss" />
  <path
     d="m 42,84 c 0,10.9299 9.06766,20 20,20 1.108,0 2,-0.892 2,-2 V 64 H 62 C 49.57176,64 42,72.95434 42,84 Z"
     style="fill:#00ac47;fill-opacity:1;stroke-width:3.64222"
     id="path1065"
     sodipodi:nodetypes="ssscss" />
  <path
     id="path1040"
     style="opacity:0.1;fill:#ffffff;stroke-width:8;stroke-linecap:square"
     d="M 32,8 C 18.704026,8 8,18.704028 8,32 v 1 C 8,19.704014 18.704014,9 32,9 h 64 c 13.29599,0 24,10.704014 24,24 V 32 C 120,18.704028 109.29597,8 96,8 Z" />
</svg>
