<?xml version="1.0" encoding="UTF-8" standalone="no"?>
<!-- Created with Inkscape (http://www.inkscape.org/) -->

<svg
   width="128"
   height="128"
   viewBox="0 0 128 128"
   version="1.1"
   id="svg5"
   inkscape:version="1.4 (e7c3feb100, 2024-10-09)"
   sodipodi:docname="google-chrome-canary.svg"
   xmlns:inkscape="http://www.inkscape.org/namespaces/inkscape"
   xmlns:sodipodi="http://sodipodi.sourceforge.net/DTD/sodipodi-0.dtd"
   xmlns="http://www.w3.org/2000/svg"
   xmlns:svg="http://www.w3.org/2000/svg">
  <sodipodi:namedview
     id="namedview7"
     pagecolor="#ffffff"
     bordercolor="#000000"
     borderopacity="0.25"
     inkscape:showpageshadow="2"
     inkscape:pageopacity="0.0"
     inkscape:pagecheckerboard="0"
     inkscape:deskcolor="#d1d1d1"
     inkscape:document-units="px"
     showgrid="false"
     inkscape:zoom="6.296875"
     inkscape:cx="64"
     inkscape:cy="64"
     inkscape:window-width="1920"
     inkscape:window-height="1011"
     inkscape:window-x="0"
     inkscape:window-y="0"
     inkscape:window-maximized="1"
     inkscape:current-layer="svg5" />
  <defs
     id="defs2" />
  <rect
     style="opacity:0.2;fill:#000000;stroke-width:8;stroke-linecap:square"
     id="rect234"
     width="112"
     height="112"
     x="8"
     y="9"
     ry="24" />
  <rect
     style="fill:#4f4f4f;fill-opacity:1;stroke-width:8;stroke-linecap:square"
     id="rect396"
     width="112"
     height="112"
     x="8"
     y="8"
     ry="24" />
  <g
     id="g361"
     transform="scale(2)">
    <ellipse
       style="opacity:0.2;fill:#000000;fill-opacity:1;stroke-width:5;stroke-linecap:round;stroke-linejoin:round"
       id="path4197"
       cx="31.999994"
       cy="32.499985"
       rx="20"
       ry="19.999985" />
    <path
       d="m 31.999963,12.000019 c -7.402539,0 -13.860783,4.024593 -17.319041,10.002428 l 0.652399,11.664128 8.006234,3.333463 8.660408,-4.999886 V 22.000085 H 49.317816 C 45.858968,16.023726 39.401612,12.000019 31.999963,12.000019 Z"
       style="fill:#ff8f00;fill-opacity:1;stroke-width:0.0781246"
       id="path371" />
    <path
       d="m 12.000124,32.000152 c 0,11.045635 8.953909,19.999835 19.999838,19.999835 l 8.771735,-4.689174 -0.111328,-10.310775 -8.660407,-4.999886 -8.660405,4.999886 -8.658635,-14.997591 c -1.701874,2.94188 -2.680915,6.354016 -2.680915,9.99741"
       style="fill:#ffc107;fill-opacity:1;stroke-width:0.0781246"
       id="path399" />
    <path
       d="m 31.999962,32.000152 8.660404,4.999886 -8.660404,14.999949 c 11.04563,0 19.999833,-8.9542 19.999833,-19.999835 0,-3.643984 -0.97936,-7.057361 -2.682188,-10.000067 H 31.999754 Z"
       style="fill:#ffd180;fill-opacity:1;stroke-width:0.0781246"
       id="path427" />
    <circle
       style="opacity:0.2;fill:#000000;stroke-width:4;stroke-linecap:square"
       id="path501"
       cx="32.00024"
       cy="32.5"
       r="10" />
    <ellipse
       style="opacity:1;fill:#ffffff;fill-opacity:1;stroke-width:4;stroke-linecap:square"
       id="path499"
       cx="32.000172"
       cy="32.000153"
       rx="10.000068"
       ry="10.000067" />
    <ellipse
       style="opacity:1;fill:#ffb300;fill-opacity:1;stroke-width:4;stroke-linecap:square"
       id="path1204"
       cx="32.000172"
       cy="32.000019"
       rx="8"
       ry="7.9999962" />
    <path
       id="path1132"
       style="opacity:0.2;fill:#ffffff;fill-opacity:1;stroke-width:5;stroke-linecap:round;stroke-linejoin:round"
       d="m 32,12 c -11.04569,2e-6 -20.000008,8.95432 -20,20 0.0026,0.112023 0.0073,0.223975 0.01172,0.335938 a 20,19.999985 0 0 1 0.04687,-0.669922 c 0.0067,-0.101766 0.01519,-0.203353 0.02344,-0.304688 A 20,19.999985 0 0 1 32,12.5 20,19.999985 0 0 1 51.992188,32.207031 C 51.994626,32.138015 51.998261,32.069039 52,32 52.000008,20.95432 43.04569,12.000003 32,12 Z" />
  </g>
  <path
     id="path1040"
     style="opacity:0.1;fill:#ffffff;stroke-width:8;stroke-linecap:square"
     d="M 32,8 C 18.704026,8 8,18.704027 8,32 v 1 C 8,19.704013 18.704013,9 32,9 h 64 c 13.29599,0 24,10.704013 24,24 V 32 C 120,18.704027 109.29597,8 96,8 Z" />
</svg>
