<?xml version="1.0" encoding="UTF-8" standalone="no"?>
<!-- Created with Inkscape (http://www.inkscape.org/) -->

<svg
   width="128"
   height="128"
   viewBox="0 0 128 128"
   version="1.1"
   id="svg5"
   inkscape:version="1.4 (e7c3feb100, 2024-10-09)"
   sodipodi:docname="google-drive.svg"
   xmlns:inkscape="http://www.inkscape.org/namespaces/inkscape"
   xmlns:sodipodi="http://sodipodi.sourceforge.net/DTD/sodipodi-0.dtd"
   xmlns="http://www.w3.org/2000/svg"
   xmlns:svg="http://www.w3.org/2000/svg">
  <sodipodi:namedview
     id="namedview7"
     pagecolor="#ffffff"
     bordercolor="#000000"
     borderopacity="0.25"
     inkscape:showpageshadow="2"
     inkscape:pageopacity="0.0"
     inkscape:pagecheckerboard="0"
     inkscape:deskcolor="#d1d1d1"
     inkscape:document-units="px"
     showgrid="false"
     inkscape:zoom="6.296875"
     inkscape:cx="64"
     inkscape:cy="64"
     inkscape:window-width="1920"
     inkscape:window-height="1011"
     inkscape:window-x="0"
     inkscape:window-y="0"
     inkscape:window-maximized="1"
     inkscape:current-layer="svg5" />
  <defs
     id="defs2" />
  <rect
     style="opacity:0.2;fill:#000000;stroke-width:8.00001;stroke-linecap:square"
     id="rect234"
     width="112"
     height="112"
     x="8"
     y="9.000001"
     ry="24" />
  <rect
     style="fill:#4f4f4f;fill-opacity:1;stroke-width:8.00001;stroke-linecap:square"
     id="rect396"
     width="112"
     height="112"
     x="8"
     y="8"
     ry="24" />
  <g
     id="g1050">
    <path
       d="m 55.101559,27 c -1.539518,0 -3.033062,0.4372 -4.33203,1.167969 -1.29897,0.779487 -2.406024,1.85074 -3.175782,3.214843 L 23.156249,74.257808 c -0.755604,1.334686 -1.155244,3.203734 -1.15625,4.742188 0,1.510258 0.38649,2.66324 1.15625,4.027344 l 5.195312,9.109374 3.703126,6.48047 c 0.769758,1.364106 1.876812,2.435356 3.175782,3.214846 C 36.529437,102.61152 38.019071,103 39.558591,103 h 48.882812 c 1.53952,0 3.02916,-0.4372 4.32812,-1.16797 1.29897,-0.77949 2.40603,-1.85074 3.17579,-3.214846 l 1.53906,-2.679688 7.359367,-12.910156 C 105.6135,81.663236 106,80.510254 106,78.999996 h -0.0468 c 0,-1.510256 -0.3865,-3.378086 -1.15625,-4.742188 L 92.624993,52.82031 80.406245,31.382812 C 79.636485,30.018709 78.529433,28.947456 77.230465,28.167969 75.931497,27.388481 74.437953,27 72.898433,27 Z m 8.898438,24.359374 15.53906,27.640622 H 48.460935 Z"
       style="opacity:0.2;fill:#000000;stroke-width:1.33333"
       id="path560"
       sodipodi:nodetypes="scccccccssscccccccccssscccc" />
    <path
       style="fill:#00832d;stroke-width:2"
       d="M 64,50.358974 C 69.202898,43.111324 74.148383,35.70709 77.230243,27.16923 75.931273,26.389744 74.439863,26 72.900343,26 H 55.099656 C 53.560138,26 52.068728,26.438462 50.76976,27.16923 54.213464,35.154456 58.623628,42.884348 64,50.358974 Z"
       id="path2178" />
    <path
       style="fill:#0066da;stroke-width:2"
       d="m 28.350516,91.135893 3.704466,6.47949 c 0.76976,1.36411 1.87629,2.435897 3.175258,3.215387 C 40.178074,93.684523 46.28219,87.536013 48.46048,78 H 22 c 0,1.510256 0.38488,2.661538 1.154638,4.025642 z"
       id="path2180" />
    <path
       style="fill:#00ac47;stroke-width:2"
       d="M 64,50.358974 50.76976,27.16923 c -1.29897,0.779488 -2.4055,1.851282 -3.175258,3.215386 L 23.154638,73.25641 C 22.399036,74.591094 22.001006,76.461546 22,78 h 26.46048 z"
       id="path2182" />
    <path
       style="fill:#ea4335;stroke-width:2"
       d="m 92.769763,100.83077 c 1.29897,-0.77949 2.4055,-1.851277 3.17526,-3.215387 l 1.53951,-2.67948 7.360837,-12.910261 C 105.61513,80.661538 106,79.510256 106,78 H 79.537593 l 5.63079,10.846153 z"
       id="path2184" />
    <path
       style="fill:#2684fc;stroke-width:2"
       d="M 79.539523,78 H 48.46048 L 35.23024,100.83077 C 36.52921,101.61025 38.020618,102 39.560138,102 h 48.879725 c 1.53952,0 3.03093,-0.43846 4.3299,-1.16923 z"
       id="path2186" />
    <path
       style="fill:#ffba00;stroke-width:2"
       d="M 92.625433,51.820512 80.405503,30.384616 c -0.76976,-1.364104 -1.87629,-2.435898 -3.17526,-3.215386 L 64,50.358974 79.539513,78 H 105.9519 c 0,-1.510256 -0.38488,-3.379488 -1.15464,-4.74359 z"
       id="path2188" />
    <path
       id="path805"
       style="opacity:0.2;fill:#ffffff;stroke-width:1.33333"
       d="M 55.101562 26 C 53.562046 26 52.068498 26.4372 50.769531 27.167969 C 49.470563 27.947455 48.363507 29.018711 47.59375 30.382812 L 23.15625 73.257812 C 22.400647 74.592497 22.001006 76.461548 22 78 C 22 78.168166 22.021671 78.318425 22.03125 78.478516 C 22.108724 77.05193 22.482515 75.447886 23.15625 74.257812 L 47.59375 31.382812 C 48.363507 30.018711 49.470563 28.947455 50.769531 28.167969 C 52.068498 27.4372 53.562046 27 55.101562 27 L 72.898438 27 C 74.437956 27 75.931502 27.388482 77.230469 28.167969 C 78.529435 28.947455 79.636491 30.018711 80.40625 31.382812 L 92.625 52.820312 L 104.79688 74.257812 C 105.54094 75.576404 105.91843 77.359792 105.94336 78.841797 C 105.973 78.569075 106 78.295873 106 78 L 105.95312 78 C 105.95312 76.489746 105.56662 74.621913 104.79688 73.257812 L 92.625 51.820312 L 80.40625 30.382812 C 79.636491 29.018711 78.529435 27.947455 77.230469 27.167969 C 75.931502 26.388482 74.437956 26 72.898438 26 L 55.101562 26 z M 49.023438 78 L 48.460938 79 L 79.539062 79 L 78.976562 78 L 49.023438 78 z " />
  </g>
  <path
     id="path1040"
     style="opacity:0.1;fill:#ffffff;stroke-width:8.00001;stroke-linecap:square"
     d="M 31.999999,8 C 18.704027,8 8,18.704029 8,31.999999 V 33 C 8,19.704014 18.704013,8.9999998 31.999999,8.9999998 h 64 C 109.29598,8.9999998 120,19.704014 120,33 V 31.999999 C 120,18.704029 109.29597,8 95.999999,8 Z" />
</svg>
