<?xml version="1.0" encoding="UTF-8" standalone="no"?>
<!-- Created with Inkscape (http://www.inkscape.org/) -->

<svg
   width="128"
   height="128"
   viewBox="0 0 128 128"
   version="1.1"
   id="svg5"
   inkscape:version="1.4 (e7c3feb100, 2024-10-09)"
   sodipodi:docname="libreoffice-base.svg"
   xmlns:inkscape="http://www.inkscape.org/namespaces/inkscape"
   xmlns:sodipodi="http://sodipodi.sourceforge.net/DTD/sodipodi-0.dtd"
   xmlns="http://www.w3.org/2000/svg"
   xmlns:svg="http://www.w3.org/2000/svg">
  <sodipodi:namedview
     id="namedview7"
     pagecolor="#ffffff"
     bordercolor="#000000"
     borderopacity="0.25"
     inkscape:showpageshadow="2"
     inkscape:pageopacity="0.0"
     inkscape:pagecheckerboard="0"
     inkscape:deskcolor="#d1d1d1"
     inkscape:document-units="px"
     showgrid="false"
     inkscape:zoom="6.484375"
     inkscape:cx="64"
     inkscape:cy="64"
     inkscape:window-width="1920"
     inkscape:window-height="1011"
     inkscape:window-x="0"
     inkscape:window-y="0"
     inkscape:window-maximized="1"
     inkscape:current-layer="svg5" />
  <defs
     id="defs2" />
  <rect
     style="opacity:0.2;fill:#000000;stroke-width:8;stroke-linecap:square"
     id="rect234"
     width="112"
     height="112"
     x="8"
     y="9"
     ry="24" />
  <rect
     style="fill:#4f4f4f;fill-opacity:1;stroke-width:8;stroke-linecap:square"
     id="rect396"
     width="112"
     height="112"
     x="8"
     y="8"
     ry="24" />
  <path
     d="m 47,39 c -8.28,0 -15,1.62 -15,4 v 6 c 0,2.38 6.72,4 15,4 8.28,0 15,-1.62 15,-4 v -6 c 0,-2.38 -6.72,-4 -15,-4 z m 25,10 c -2.22,0 -4,1.78 -4,4 v 32 c 0,2.22 1.78,4 4,4 h 20 c 2.22,0 4,-1.78 4,-4 V 53 c 0,-2.22 -1.78,-4 -4,-4 z m 0,4 h 8 v 8 h -8 z m 12,0 h 8 v 8 h -8 z m -52,0 v 8 c 0,2.38 6.72,4 15,4 8.28,0 15,-1.62 15,-4 v -8 c 0,2.38 -6.72,4 -15,4 -8.28,0 -15,-1.62 -15,-4 z m 40,12 h 8 v 8 h -8 z m 12,0 h 8 v 8 h -8 z m -52,0 v 8 c 0,2.38 6.72,4 15,4 8.28,0 15,-1.62 15,-4 v -8 c 0,2.38 -6.72,4 -15,4 -8.28,0 -15,-1.62 -15,-4 z m 40,12 h 8 v 8 h -8 z m 12,0 h 8 v 8 h -8 z m -52,0 v 8 c 0,2.38 6.72,4 15,4 8.28,0 15,-1.62 15,-4 v -8 c 0,2.38 -6.72,4 -15,4 -8.28,0 -15,-1.62 -15,-4 z"
     style="opacity:0.2;fill:#000000;stroke-width:2"
     id="path416" />
  <path
     d="m 47,38 c -8.28,0 -15,1.62 -15,4 v 6 c 0,2.380002 6.72,4 15,4 8.28,0 15,-1.619998 15,-4 V 42 C 62,39.62 55.28,38 47,38 Z M 32,52 v 8 c 0,2.38 6.72,4 15,4 8.28,0 15,-1.62 15,-4 v -8 c 0,2.380002 -6.72,4 -15,4 -8.28,0 -15,-1.619998 -15,-4 z m 0,12 v 8 c 0,2.38 6.72,4 15,4 8.28,0 15,-1.62 15,-4 v -8 c 0,2.38 -6.72,4 -15,4 -8.28,0 -15,-1.62 -15,-4 z m 0,12 v 8 c 0,2.38 6.72,4 15,4 8.28,0 15,-1.62 15,-4 v -8 c 0,2.38 -6.72,4 -15,4 -8.28,0 -15,-1.62 -15,-4 z"
     style="fill:#8b3ea7;stroke-width:2;fill-opacity:1"
     id="path310" />
  <path
     d="m 72,48 c -2.216,0 -4,1.784 -4,4 v 32 c 0,2.216 1.784,4 4,4 h 20 c 2.216,0 4,-1.784 4,-4 V 52 c 0,-2.216 -1.784,-4 -4,-4 z m 0,4 h 8 v 8 h -8 z m 12,0 h 8 v 8 H 84 Z M 72,64 h 8 v 8 h -8 z m 12,0 h 8 v 8 H 84 Z M 72,76 h 8 v 8 h -8 z m 12,0 h 8 v 8 h -8 z"
     style="fill:#ebd9f1;stroke-width:2"
     id="path388" />
  <path
     id="path1040"
     style="opacity:0.1;fill:#ffffff;stroke-width:8;stroke-linecap:square"
     d="M 32,8 C 18.704026,8 8,18.704027 8,32 v 1 C 8,19.704013 18.704013,9 32,9 h 64 c 13.29599,0 24,10.704013 24,24 V 32 C 120,18.704027 109.29597,8 96,8 Z" />
</svg>
