<?xml version="1.0" encoding="UTF-8" standalone="no"?>
<!-- Created with Inkscape (http://www.inkscape.org/) -->

<svg
   width="128"
   height="128"
   viewBox="0 0 128 128"
   version="1.1"
   id="svg5"
   inkscape:version="1.3.2 (091e20ef0f, 2023-11-25, custom)"
   sodipodi:docname="preferences-desktop-launch-feedback.svg"
   xmlns:inkscape="http://www.inkscape.org/namespaces/inkscape"
   xmlns:sodipodi="http://sodipodi.sourceforge.net/DTD/sodipodi-0.dtd"
   xmlns="http://www.w3.org/2000/svg"
   xmlns:svg="http://www.w3.org/2000/svg">
  <sodipodi:namedview
     id="namedview7"
     pagecolor="#ffffff"
     bordercolor="#000000"
     borderopacity="0.25"
     inkscape:showpageshadow="2"
     inkscape:pageopacity="0.0"
     inkscape:pagecheckerboard="0"
     inkscape:deskcolor="#d1d1d1"
     inkscape:document-units="px"
     showgrid="false"
     inkscape:zoom="6.421875"
     inkscape:cx="64"
     inkscape:cy="64"
     inkscape:window-width="1920"
     inkscape:window-height="1008"
     inkscape:window-x="0"
     inkscape:window-y="0"
     inkscape:window-maximized="1"
     inkscape:current-layer="svg5" />
  <defs
     id="defs2" />
  <rect
     style="opacity:0.2;fill:#000000;stroke-width:8;stroke-linecap:square"
     id="rect234"
     width="112"
     height="112"
     x="8"
     y="9"
     ry="24" />
  <rect
     style="fill:#aeaeae;fill-opacity:1;stroke-width:8;stroke-linecap:square"
     id="rect396"
     width="112"
     height="112"
     x="8"
     y="8"
     ry="24" />
  <path
     id="path1"
     style="opacity:0.2;fill:#000000;stroke-width:3.33144"
     d="m 104,25.003188 c 0,0 -11.994536,-0.32804 -23.984376,5.671876 -3.664584,1.665716 -7.66856,4.324812 -11,7.656248 C 63.628696,43.718244 55.261456,53.644 48.671872,61.65944 H 34.031248 L 27.375,71.643816 38.671876,74.706312 c 0.0332,0.40312 0.13996,0.964816 0.453128,1.734376 l -1.75,3.859376 c 0,0 -0.669032,1.341568 4.328124,6.671872 5.3303,5.333624 7,4.656248 7,4.656248 l 4.140624,-1.875 c 0.61968,0.1932 1.075176,0.2656 1.375,0.2656 l 3.140624,11.609376 10,-6.671872 V 79.878184 c 8.072072,-6.52628 17.968872,-14.720232 23.312496,-19.890624 3.33144,-3.331432 6.004472,-7.335416 8,-10.999996 C 104.33198,36.99772 104,25.003188 104,25.003188 Z M 80.671872,41.659436 c 3.664584,0 6.67188,3.003964 6.67188,6.671876 0,3.66458 -3.010632,6.656248 -6.67188,6.656248 -3.667912,0 -6.656248,-2.991668 -6.656248,-6.656248 0,-3.667912 2.988336,-6.671876 6.656248,-6.671876 z M 33.031248,81.643808 c -0.666288,0.67296 -1.661836,1.3304 -2.328124,2 -7.662304,7.65564 -6.656248,21.312502 -6.656248,21.312502 0,0 13.646864,1.00605 21.3125,-6.656254 0.669616,-0.66632 1.333712,-1.6618 2,-2.32812 -0.666288,-0.33312 -0.989964,-0.66352 -1.656252,-1 -6.33306,4.997184 -16,4.32812 -16,4.32812 0,0 -0.669032,-9.673592 4.328124,-16 -0.33648,-0.66632 -0.666856,-0.989928 -1,-1.656248 z" />
  <path
     id="path2"
     style="fill:#ffffff;stroke-width:3.33144"
     d="m 103.99664,24.003188 c 0,0 -11.994536,-0.32804 -23.984376,5.671876 -3.664576,1.665716 -7.66856,4.324812 -10.999992,7.656248 C 63.625336,42.718244 55.258104,52.644 48.66852,60.65944 H 34.027892 l -6.656248,9.984376 11.296876,3.062496 c 0.0332,0.40312 0.13996,0.964816 0.453128,1.734376 l -1.75,3.859376 c 0,0 -0.669032,1.341568 4.328124,6.671872 5.3303,5.333624 6.999996,4.656248 6.999996,4.656248 l 4.140624,-1.875 c 0.61968,0.1932 1.075168,0.2656 1.375,0.2656 l 3.140624,11.609376 10,-6.671872 V 78.878184 c 8.072072,-6.52628 17.968872,-14.720232 23.312496,-19.890624 3.33144,-3.331436 6.004472,-7.335416 8,-10.999996 5.660108,-11.989844 5.328128,-23.984376 5.328128,-23.984376 z M 80.668512,40.659436 c 3.664584,0 6.67188,3.003964 6.67188,6.671876 0,3.66458 -3.010632,6.656252 -6.67188,6.656252 -3.667912,0 -6.656248,-2.991672 -6.656248,-6.656252 0,-3.667912 2.988336,-6.671876 6.656248,-6.671876 z m -47.64062,39.984372 c -0.666288,0.67296 -1.661836,1.3304 -2.328124,2 -7.662304,7.65564 -6.656248,21.312502 -6.656248,21.312502 0,0 13.64686,1.00605 21.3125,-6.656254 0.669616,-0.66632 1.333712,-1.6618 2,-2.32812 -0.666288,-0.33312 -0.989964,-0.66352 -1.656252,-1 -6.33306,4.997184 -16,4.32812 -16,4.32812 0,0 -0.669032,-9.673592 4.328124,-16 -0.33648,-0.66632 -0.666856,-0.989928 -1,-1.656248 z" />
  <path
     id="path1040"
     style="opacity:0.2;fill:#ffffff;stroke-width:8;stroke-linecap:square"
     d="M 32,8 C 18.70404,8 8,18.70404 8,32 v 1 C 8,19.704042 18.70404,9 32,9 h 64 c 13.29596,0 24,10.704042 24,24 V 32 C 120,18.70404 109.29596,8 96,8 Z" />
</svg>
