<?xml version="1.0" encoding="UTF-8" standalone="no"?>
<!-- Created with Inkscape (http://www.inkscape.org/) -->

<svg
   width="128"
   height="128"
   viewBox="0 0 128 128"
   version="1.1"
   id="svg5"
   inkscape:version="1.4 (e7c3feb100, 2024-10-09)"
   sodipodi:docname="preferences-system-login.svg"
   xmlns:inkscape="http://www.inkscape.org/namespaces/inkscape"
   xmlns:sodipodi="http://sodipodi.sourceforge.net/DTD/sodipodi-0.dtd"
   xmlns="http://www.w3.org/2000/svg"
   xmlns:svg="http://www.w3.org/2000/svg">
  <sodipodi:namedview
     id="namedview7"
     pagecolor="#ffffff"
     bordercolor="#000000"
     borderopacity="0.25"
     inkscape:showpageshadow="2"
     inkscape:pageopacity="0.0"
     inkscape:pagecheckerboard="0"
     inkscape:deskcolor="#d1d1d1"
     inkscape:document-units="px"
     showgrid="false"
     inkscape:zoom="6.140625"
     inkscape:cx="64"
     inkscape:cy="64"
     inkscape:window-width="1920"
     inkscape:window-height="1011"
     inkscape:window-x="0"
     inkscape:window-y="0"
     inkscape:window-maximized="1"
     inkscape:current-layer="svg5" />
  <defs
     id="defs2" />
  <rect
     style="opacity:0.2;fill:#000000;stroke-width:8;stroke-linecap:square"
     id="rect234"
     width="112"
     height="112"
     x="8"
     y="9"
     ry="24" />
  <rect
     style="fill:#4d4d4d;fill-opacity:1;stroke-width:8;stroke-linecap:square"
     id="rect396"
     width="112"
     height="112"
     x="8"
     y="8"
     ry="24" />
  <path
     id="rect1"
     style="opacity:0.2;fill:#000000;stroke-width:8"
     d="m 30,37 c -3.32399,0 -6,2.676008 -6,6 v 8 c 0,3.323988 2.67601,6 6,6 h 68 c 3.32399,0 6,-2.676012 6,-6 v -8 c 0,-3.323992 -2.67601,-6 -6,-6 z m 0,36 c -3.32399,0 -6,2.676012 -6,6 v 8 c 0,3.323988 2.67601,6 6,6 h 68 c 3.32399,0 6,-2.676012 6,-6 v -8 c 0,-3.323988 -2.67601,-6 -6,-6 z" />
  <path
     id="rect2"
     style="opacity:1;fill:#2f2f2f;fill-opacity:1;stroke-width:8"
     d="m 30,36 c -3.323996,0 -6,2.676004 -6,6 v 8 c 0,3.323996 2.676004,6 6,6 h 68 c 3.324,0 6,-2.676004 6,-6 v -8 c 0,-3.323996 -2.676,-6 -6,-6 z m 0,36 c -3.323996,0 -6,2.676004 -6,6 v 8 c 0,3.323996 2.676004,6 6,6 h 68 c 3.324,0 6,-2.676004 6,-6 v -8 c 0,-3.323996 -2.676,-6 -6,-6 z" />
  <path
     id="path8"
     style="fill:#ff4f4f;fill-opacity:1;stroke-width:12"
     d="m 34,76 c -3.313698,0 -6,2.686304 -6,6 0,3.313696 2.686302,6 6,6 3.3137,0 6,-2.686304 6,-6 0,-3.313696 -2.6863,-6 -6,-6 z m 18,0 c -3.313696,0 -6,2.686304 -6,6 0,3.313696 2.686304,6 6,6 3.313696,0 6,-2.686304 6,-6 0,-3.313696 -2.686304,-6 -6,-6 z m 18,0 c -3.313696,0 -6,2.686304 -6,6 0,3.313696 2.686304,6 6,6 3.313696,0 6,-2.686304 6,-6 0,-3.313696 -2.686304,-6 -6,-6 z" />
  <path
     id="path9"
     style="fill:#4fa0ff;fill-opacity:1;stroke-width:12"
     d="m 34,40 c -3.313702,0 -6,2.6863 -6,6 0,3.3137 2.686298,6 6,6 3.313704,0 6,-2.6863 6,-6 0,-3.3137 -2.686296,-6 -6,-6 z m 18,0 c -3.3137,0 -6,2.6863 -6,6 0,3.3137 2.6863,6 6,6 3.3137,0 6,-2.6863 6,-6 0,-3.3137 -2.6863,-6 -6,-6 z m 18,0 c -3.3137,0 -6,2.6863 -6,6 0,3.3137 2.6863,6 6,6 3.3137,0 6,-2.6863 6,-6 0,-3.3137 -2.6863,-6 -6,-6 z" />
  <path
     id="path1040"
     style="opacity:0.1;fill:#ffffff;stroke-width:8;stroke-linecap:square"
     d="M 32,8 C 18.704026,8 8,18.704028 8,32 v 1 C 8,19.704028 18.704026,9 32,9 h 64 c 13.29597,0 24,10.704028 24,24 V 32 C 120,18.704028 109.29597,8 96,8 Z" />
</svg>
