<?xml version="1.0" encoding="UTF-8" standalone="no"?>
<!-- Created with Inkscape (http://www.inkscape.org/) -->

<svg
   width="128"
   height="128"
   viewBox="0 0 128 128"
   version="1.1"
   id="svg5"
   inkscape:version="1.3 (1:1.3+202307231459+0e150ed6c4)"
   sodipodi:docname="preferences-sound.svg"
   xmlns:inkscape="http://www.inkscape.org/namespaces/inkscape"
   xmlns:sodipodi="http://sodipodi.sourceforge.net/DTD/sodipodi-0.dtd"
   xmlns="http://www.w3.org/2000/svg"
   xmlns:svg="http://www.w3.org/2000/svg">
  <sodipodi:namedview
     id="namedview7"
     pagecolor="#ffffff"
     bordercolor="#000000"
     borderopacity="0.25"
     inkscape:showpageshadow="2"
     inkscape:pageopacity="0.0"
     inkscape:pagecheckerboard="0"
     inkscape:deskcolor="#d1d1d1"
     inkscape:document-units="px"
     showgrid="false"
     inkscape:zoom="5.609375"
     inkscape:cx="64"
     inkscape:cy="63.910864"
     inkscape:window-width="1920"
     inkscape:window-height="1008"
     inkscape:window-x="0"
     inkscape:window-y="0"
     inkscape:window-maximized="1"
     inkscape:current-layer="svg5" />
  <defs
     id="defs2" />
  <rect
     style="opacity:0.2;fill:#000000;stroke-width:8;stroke-linecap:square"
     id="rect234"
     width="112"
     height="112"
     x="8"
     y="9"
     ry="24" />
  <rect
     style="fill:#bdbdbd;fill-opacity:1;stroke-width:8;stroke-linecap:square"
     id="rect396"
     width="112"
     height="112"
     x="8"
     y="8"
     ry="24" />
  <path
     d="M 62,33 42,53 H 26 v 24 h 16 l 20,20 z m 12,0 v 8 c 11.42672,1.52388 19.99756,11.80888 20,24 -0.002,12.19112 -8.57328,22.47612 -20,24 v 8 C 89.9974,94.96816 101.99656,81.25482 102,65 101.996,48.74518 89.9974,35.03184 74,33 Z m 0,16 V 81 C 80.85604,79.98408 85.99852,73.1274 86,65 85.99852,56.8726 80.85604,50.01592 74,49 Z"
     style="opacity:0.2;fill:#000000;stroke-width:8.03244;stroke-linecap:round;stroke-linejoin:round"
     id="path1142" />
  <path
     d="M 62,32 42,52 H 26 v 24 h 16 l 20,20 z m 12,0 v 8 c 11.42672,1.52388 19.99756,11.80888 20,24 -0.002,12.19112 -8.57328,22.47612 -20,24 v 8 C 89.9974,93.96814 101.99656,80.25482 102,64 101.996,47.74518 89.9974,34.03184 74,32 Z m 0,16 V 80 C 80.85604,78.98408 85.99852,72.1274 86,64 85.99852,55.8726 80.85604,49.01592 74,48 Z"
     style="fill:#5f5f5f;fill-opacity:1;stroke-width:8.03244;stroke-linecap:round;stroke-linejoin:round"
     id="path1114"
     sodipodi:nodetypes="cccccccccccccccccc" />
  <path
     id="path1040"
     style="opacity:0.2;fill:#ffffff;stroke-width:8;stroke-linecap:square"
     d="M 32 8 C 18.704039 8 8 18.704041 8 32 L 8 33 C 8 19.704027 18.704027 9 32 9 L 96 9 C 109.29598 9 120 19.704027 120 33 L 120 32 C 120 18.704041 109.29596 8 96 8 L 32 8 z " />
</svg>
