<?xml version="1.0" encoding="UTF-8" standalone="no"?>
<!-- Created with Inkscape (http://www.inkscape.org/) -->

<svg
   width="128"
   height="128"
   viewBox="0 0 128 128"
   version="1.1"
   id="svg5"
   inkscape:version="1.4.3 (0d15f75042, 2025-12-25)"
   sodipodi:docname="xbox.svg"
   xmlns:inkscape="http://www.inkscape.org/namespaces/inkscape"
   xmlns:sodipodi="http://sodipodi.sourceforge.net/DTD/sodipodi-0.dtd"
   xmlns="http://www.w3.org/2000/svg"
   xmlns:svg="http://www.w3.org/2000/svg">
  <sodipodi:namedview
     id="namedview7"
     pagecolor="#ffffff"
     bordercolor="#000000"
     borderopacity="0.25"
     inkscape:showpageshadow="2"
     inkscape:pageopacity="0.0"
     inkscape:pagecheckerboard="0"
     inkscape:deskcolor="#d1d1d1"
     inkscape:document-units="px"
     showgrid="false"
     inkscape:zoom="6.4921875"
     inkscape:cx="64"
     inkscape:cy="64"
     inkscape:window-width="1920"
     inkscape:window-height="1012"
     inkscape:window-x="0"
     inkscape:window-y="0"
     inkscape:window-maximized="1"
     inkscape:current-layer="svg5" />
  <defs
     id="defs2" />
  <rect
     style="opacity:0.2;fill:#000000;stroke-width:8;stroke-linecap:square"
     id="rect234"
     width="112"
     height="112"
     x="8"
     y="9"
     ry="24" />
  <rect
     style="fill:#4d4d4d;fill-opacity:1;stroke-width:8;stroke-linecap:square"
     id="rect396"
     width="112"
     height="112"
     x="8"
     y="8"
     ry="24" />
  <path
     id="path1040"
     style="opacity:0.2;fill:#ffffff;stroke-width:8;stroke-linecap:square"
     d="M 32,8 C 18.704014,8 8,18.704014 8,32 v 1 C 8,19.704 18.704,9 32,9 h 64 c 13.296,0 24,10.704 24,24 V 32 C 120,18.704014 109.29598,8 96,8 Z" />
  <path
     style="opacity:0.2;stroke-width:4"
     d="m 60.01114,104.8357 c -6.16276,-0.59009 -12.401764,-2.80181 -17.761172,-6.29687 -4.490972,-2.92727 -5.504456,-4.13256 -5.504456,-6.53478 0,-4.825805 5.3092,-13.27957 14.393413,-22.914455 5.15764,-5.473525 12.34319,-11.88564 13.119575,-11.712785 1.51187,0.33736 13.59006,12.11238 18.112645,17.656525 7.150215,8.76322 10.436155,15.941065 8.766225,19.140615 -1.269195,2.43195 -9.146515,7.18621 -14.932705,9.01227 -4.769915,1.50544 -11.034025,2.14294 -16.193525,1.64948 z M 30.679444,86.98681 c -3.732246,-5.722575 -5.617892,-11.35594 -6.527242,-19.50396 -0.301256,-2.6903 -0.19526,-4.228275 0.681548,-9.75198 1.090664,-6.87676 5.011658,-14.840782 9.725782,-19.738146 2.006524,-2.081612 2.185044,-2.137372 4.632298,-1.3103 2.96609,1.003632 6.13673,3.193044 11.055405,7.638772 l 2.87311,2.59644 -1.571375,1.923632 c -7.278534,8.930487 -14.960598,21.596727 -17.852298,29.430652 -1.571376,4.25615 -2.203644,8.53089 -1.524884,10.310485 0.455604,1.2025 0.0372,0.754585 -1.49699,-1.592805 z M 96.18715,87.95978 C 96.55631,86.16067 96.08955,82.85797 94.997,79.525525 92.63063,72.30959 84.71891,58.88598 77.454325,49.75848 l -2.28733,-2.873372 2.475155,-2.270256 c 3.230145,-2.964436 5.47284,-4.739384 7.894055,-6.247624 1.908895,-1.189492 4.637885,-2.24238 5.811295,-2.24238 0.72246,0 3.2692,2.64848 5.32408,5.52928 3.18366,4.4606 5.52491,9.878367 6.71134,15.509872 0.76709,3.642825 0.83125,11.43028 0.12368,15.06381 -0.58577,2.981165 -1.81312,6.84516 -3.00327,9.466685 -0.90191,1.963595 -3.12415,5.778335 -4.10044,7.01987 -0.50211,0.638425 -0.50211,0.63749 -0.22317,-0.739715 z M 60.67131,34.762508 c -3.35289,-1.700604 -8.52448,-3.52666 -11.380846,-4.019184 -1.000468,-0.17194 -2.708524,-0.26948 -3.793612,-0.21376 -2.357992,0.11896 -2.25292,-0.0038 1.527676,-1.788884 3.142747,-1.48408 5.764802,-2.356682 9.325962,-3.103834 4.00282,-0.84101 11.52961,-0.850302 15.4692,-0.0205 4.25387,0.896764 9.2646,2.759992 12.087495,4.497764 l 0.840545,0.514834 -1.9247,-0.09664 c -3.827085,-0.19316 -9.40407,1.352244 -15.392025,4.262784 -1.805685,0.879106 -3.3752,1.579796 -3.490495,1.561208 -0.11436,-0.0224 -1.58626,-0.738784 -3.272925,-1.593732 z"
     id="path2" />
  <path
     style="fill:#1fa510;fill-opacity:1;stroke-width:4"
     d="m 60.01114,103.8357 c -6.16276,-0.59009 -12.401764,-2.80181 -17.761172,-6.29687 -4.490972,-2.92727 -5.504456,-4.13256 -5.504456,-6.53478 0,-4.825805 5.3092,-13.27957 14.393413,-22.914455 5.15764,-5.473525 12.34319,-11.88564 13.119575,-11.712785 1.51187,0.33736 13.59006,12.11238 18.112645,17.656525 7.150215,8.76322 10.436155,15.941065 8.766225,19.140615 -1.269195,2.43195 -9.146515,7.18621 -14.932705,9.01227 -4.769915,1.50544 -11.034025,2.14294 -16.193525,1.64948 z M 30.679444,85.98681 c -3.732246,-5.722575 -5.617892,-11.355935 -6.527242,-19.50396 -0.301258,-2.6903 -0.19526,-4.228275 0.681548,-9.75198 1.090664,-6.876758 5.011658,-14.840782 9.725782,-19.738146 2.006524,-2.081612 2.185044,-2.137372 4.632298,-1.310298 2.96609,1.003632 6.13673,3.193042 11.055405,7.63877 l 2.87311,2.59644 -1.571375,1.923632 c -7.278534,8.930487 -14.960598,21.596727 -17.852298,29.430652 -1.571376,4.25615 -2.203644,8.53089 -1.524884,10.310485 0.455604,1.2025 0.0372,0.754585 -1.49699,-1.592805 z M 96.18715,86.95978 C 96.55631,85.16067 96.08955,81.85797 94.997,78.52553 92.63063,71.30959 84.71891,57.88598 77.454325,48.75848 l -2.28733,-2.873372 2.475155,-2.270256 c 3.230145,-2.964436 5.47284,-4.739384 7.894055,-6.247624 1.908895,-1.189492 4.637885,-2.24238 5.811295,-2.24238 0.72246,0 3.2692,2.64848 5.32408,5.52928 3.18366,4.460598 5.52491,9.878367 6.71134,15.509872 0.76709,3.642825 0.83125,11.43028 0.12368,15.06381 -0.58577,2.981165 -1.81312,6.845155 -3.00327,9.466685 -0.90191,1.963595 -3.12415,5.778335 -4.10044,7.01987 -0.50211,0.638425 -0.50211,0.63749 -0.22317,-0.739715 z M 60.67131,33.762508 c -3.35289,-1.700604 -8.52448,-3.52666 -11.380846,-4.019184 -1.000468,-0.1719 -2.708524,-0.269486 -3.793612,-0.213744 -2.357992,0.11896 -2.25292,-0.0038 1.527676,-1.788884 3.142747,-1.484082 5.764802,-2.356684 9.325962,-3.103836 4.00282,-0.841008 11.52961,-0.8503 15.4692,-0.0205 4.25387,0.896766 9.2646,2.759996 12.087495,4.497768 l 0.840545,0.51483 -1.9247,-0.09666 c -3.827085,-0.19314 -9.40407,1.352246 -15.392025,4.262786 -1.805685,0.879106 -3.3752,1.579796 -3.490495,1.561208 -0.11436,-0.0224 -1.58626,-0.738784 -3.272925,-1.593732 z"
     id="path3" />
</svg>
