<?xml version="1.0" encoding="UTF-8" standalone="no"?>
<!-- Created with Inkscape (http://www.inkscape.org/) -->

<svg
   width="256"
   height="256"
   viewBox="0 0 256 256"
   version="1.1"
   id="svg5"
   inkscape:version="1.2.2 (1:1.2.2+202305151914+b0a8486541)"
   sodipodi:docname="user-trash-full.svg"
   xmlns:inkscape="http://www.inkscape.org/namespaces/inkscape"
   xmlns:sodipodi="http://sodipodi.sourceforge.net/DTD/sodipodi-0.dtd"
   xmlns="http://www.w3.org/2000/svg"
   xmlns:svg="http://www.w3.org/2000/svg">
  <sodipodi:namedview
     id="namedview7"
     pagecolor="#ffffff"
     bordercolor="#000000"
     borderopacity="0.25"
     inkscape:showpageshadow="2"
     inkscape:pageopacity="0.0"
     inkscape:pagecheckerboard="0"
     inkscape:deskcolor="#d1d1d1"
     inkscape:document-units="px"
     showgrid="false"
     inkscape:zoom="3.2421875"
     inkscape:cx="128"
     inkscape:cy="128"
     inkscape:window-width="1920"
     inkscape:window-height="1008"
     inkscape:window-x="0"
     inkscape:window-y="0"
     inkscape:window-maximized="1"
     inkscape:current-layer="svg5" />
  <defs
     id="defs2" />
  <rect
     style="opacity:0.2;fill:#000000;fill-opacity:1;stroke-width:8;stroke-linecap:square"
     id="rect1972"
     width="175.99998"
     height="223.99998"
     x="40"
     y="18"
     ry="23.999998" />
  <rect
     style="fill:#c9c9c9;fill-opacity:1;stroke-width:8;stroke-linecap:square"
     id="rect2026"
     width="175.99998"
     height="223.99998"
     x="40"
     y="16"
     ry="23.999998" />
  <rect
     style="fill:#7e7e7e;fill-opacity:1;stroke-width:8;stroke-linecap:square"
     id="rect2112"
     width="175.99998"
     height="71.999992"
     x="40"
     y="16"
     ry="23.999998" />
  <rect
     style="fill:#e0e0e0;fill-opacity:1;stroke-width:8;stroke-linecap:square"
     id="rect406"
     width="119.99999"
     height="31.999998"
     x="68.000008"
     y="40"
     ry="7.9999995" />
  <rect
     style="opacity:0.2;fill:#000000;stroke-width:8;stroke-linecap:square"
     id="rect408"
     width="71.999992"
     height="27.999998"
     x="64.000008"
     y="45.999989"
     ry="7.9999995" />
  <rect
     style="fill:#fefefe;fill-opacity:1;stroke-width:8;stroke-linecap:square"
     id="rect404"
     width="71.999992"
     height="31.999998"
     x="64.000008"
     y="47.999996"
     ry="7.9999995" />
  <rect
     style="opacity:0.2;fill:#000000;fill-opacity:1;stroke-width:8;stroke-linecap:square"
     id="rect1611"
     width="71.999992"
     height="27.999998"
     x="120.00002"
     y="53.999989"
     ry="7.9999995" />
  <rect
     style="fill:#f5f5f5;fill-opacity:1;stroke-width:8;stroke-linecap:square"
     id="rect1609"
     width="71.999992"
     height="27.999998"
     x="120.00002"
     y="55.999996"
     ry="7.9999995" />
  <path
     id="rect2107"
     style="fill:#a6a6a6;fill-opacity:1;stroke-width:8;stroke-linecap:square"
     d="m 64.000002,16 c -13.295987,0 -24,10.704013 -24,23.999996 v 24.000001 c 0,13.295987 10.704013,23.999998 24,23.999998 H 191.99999 c 13.29599,0 23.99999,-10.704011 23.99999,-23.999998 V 39.999996 C 215.99998,26.704013 205.29598,16 191.99999,16 Z m 0,15.999999 H 191.99999 c 4.432,0 8,3.568002 8,7.999997 v 24.000001 c 0,4.431996 -3.568,7.999999 -8,7.999999 H 64.000002 c -4.431996,0 -7.999999,-3.568003 -7.999999,-7.999999 V 39.999996 c 0,-4.431995 3.568003,-7.999997 7.999999,-7.999997 z"
     sodipodi:nodetypes="ssssssssssssssssss" />
  <path
     id="rect3237"
     style="opacity:0.2;fill:#ffffff;fill-opacity:1;stroke-width:8;stroke-linecap:square"
     d="M 64.00001,16 C 50.704035,16 40.000012,26.704027 40.000012,39.999998 v 2 C 40.000012,28.704023 50.704035,18 64.00001,18 h 128 C 205.29598,18 216,28.704023 216,41.999998 v -2 C 216,26.704027 205.29598,16 192.00001,16 Z" />
  <rect
     style="opacity:0.3;fill:#000000;stroke-width:16;stroke-linecap:square"
     id="rect776"
     width="15.999999"
     height="119.99999"
     x="60.000008"
     y="103.99999"
     ry="7.9999995" />
  <rect
     style="opacity:0.3;fill:#000000;stroke-width:16;stroke-linecap:square"
     id="rect830"
     width="15.999999"
     height="119.99999"
     x="100.00001"
     y="103.99999"
     ry="7.9999995" />
  <rect
     style="opacity:0.3;fill:#000000;stroke-width:16;stroke-linecap:square"
     id="rect832"
     width="15.999999"
     height="119.99999"
     x="140"
     y="103.99999"
     ry="7.9999995" />
  <rect
     style="opacity:0.3;fill:#000000;stroke-width:16;stroke-linecap:square"
     id="rect834"
     width="15.999999"
     height="119.99999"
     x="180"
     y="103.99999"
     ry="7.9999995" />
</svg>
