<?xml version="1.0" encoding="UTF-8" standalone="no"?>
<svg
   width="256"
   height="256"
   version="1"
   id="svg3"
   sodipodi:docname="user-bookmarks.svg"
   inkscape:version="1.3 (0e150ed6c4, 2023-07-21)"
   xmlns:inkscape="http://www.inkscape.org/namespaces/inkscape"
   xmlns:sodipodi="http://sodipodi.sourceforge.net/DTD/sodipodi-0.dtd"
   xmlns="http://www.w3.org/2000/svg"
   xmlns:svg="http://www.w3.org/2000/svg">
  <defs
     id="defs3" />
  <sodipodi:namedview
     id="namedview3"
     pagecolor="#ffffff"
     bordercolor="#000000"
     borderopacity="0.25"
     inkscape:showpageshadow="2"
     inkscape:pageopacity="0.0"
     inkscape:pagecheckerboard="0"
     inkscape:deskcolor="#d1d1d1"
     inkscape:zoom="3.0585938"
     inkscape:cx="127.83653"
     inkscape:cy="128"
     inkscape:window-width="1920"
     inkscape:window-height="984"
     inkscape:window-x="0"
     inkscape:window-y="29"
     inkscape:window-maximized="1"
     inkscape:current-layer="svg3" />
  <path
     style="opacity:0.2;stroke-width:4"
     d="m 128.00012,17.996 c -10.45758,0.149472 -17.92187,6.447176 -21.42189,16.87502 l 0.14064,-0.468756 -16.437522,47.593804 H 34.87504 c -0.1208,-0.0019 -0.238568,-0.0019 -0.359376,0 -6.61702,0.21448 -12.577554,4.10088 -16.781266,9.218764 -9.091378,10.435978 -7.169679,29.263878 4.375004,37.046908 L 65.671948,160.0899 48.76568,212.6212 c -0.0188,0.0584 -0.0292,0.1134 -0.04688,0.1718 -2.583244,8.48608 -0.15404,17.22246 6.343756,23.20316 0.04696,0.044 0.09256,0.0976 0.14064,0.1406 7.808336,6.9415 18.791392,7.82372 27.6094,2.07812 0.16776,-0.1086 0.32272,-0.22656 0.4844,-0.34376 l 44.703144,-31.875 44.70317,31.87504 c 0.16168,0.1172 0.31664,0.23528 0.4844,0.34376 8.81801,5.74558 19.80106,4.86336 27.60941,-2.07814 0.048,-0.0432 0.0934,-0.0964 0.1406,-0.1406 6.4978,-5.9807 8.92698,-14.71706 6.34374,-23.20314 -0.018,-0.0584 -0.028,-0.1136 -0.0472,-0.1718 l -16.90628,-52.53131 43.56254,-31.82816 c 11.54468,-7.78303 13.46638,-26.61093 4.375,-37.046914 -4.2037,-5.117884 -10.16424,-9.00428 -16.78126,-9.218764 -0.1208,-0.0019 -0.23856,-0.0019 -0.35936,0 h -55.40626 l -16.43753,-47.5938 0.14064,0.468752 C 145.922,24.443176 138.45771,18.145472 128.00012,17.996 Z"
     id="path1" />
  <path
     style="fill:#ffbc2c;stroke-width:4"
     d="m 128,16 c -10.45759,0.149472 -17.91404,6.447158 -21.41406,16.875 l 0.125,-0.46875 L 90.281248,80 H 34.875 c -0.1208,-0.0019 -0.238566,-0.0019 -0.359376,0 -6.61702,0.21448 -12.58535,4.100864 -16.789062,9.218752 -9.0913772,10.435976 -7.16187,29.256028 4.382814,37.039058 l 43.5625,31.84375 -16.906252,52.52344 c -0.019,0.0582 -0.03708,0.1134 -0.05468,0.1718 -2.58324,8.48608 -0.15406,17.23024 6.343752,23.21094 0.04724,0.0442 0.10816,0.0896 0.15624,0.1328 7.808336,6.9415 18.775744,7.82372 27.593752,2.07814 0.16776,-0.1086 0.33832,-0.22656 0.5,-0.34376 L 128,204 l 44.69531,31.875 c 0.16168,0.1172 0.33224,0.23526 0.5,0.34376 8.81802,5.74558 19.78541,4.86336 27.59375,-2.07814 0.048,-0.0432 0.109,-0.0886 0.1562,-0.1328 6.4978,-5.9807 8.92698,-14.72486 6.34374,-23.21094 -0.018,-0.0584 -0.0354,-0.1138 -0.0546,-0.1718 l -16.90628,-52.52352 43.5625,-31.84375 c 11.54468,-7.78303 13.4742,-26.603078 4.38282,-37.039058 C 234.06972,84.100864 228.1014,80.21448 221.48438,80 c -0.1208,-0.0019 -0.23858,-0.0019 -0.35938,0 h -55.40625 l -16.42969,-47.59375 0.125,0.46875 C 145.91404,22.447158 138.45758,16.149472 128,16 Z"
     id="path2" />
  <path
     id="path3"
     style="opacity:0.2;fill:#ffffff;stroke-width:4"
     d="m 128,16 c -10.45758,0.149472 -17.91405,6.447168 -21.41406,16.875 l 0.125,-0.46875 L 90.281248,80 H 34.875 c -0.1208,-0.0019 -0.238568,-0.0019 -0.359376,0 -6.617012,0.21448 -12.585354,4.100868 -16.789062,9.218752 -4.102262,4.708976 -5.936089,11.122128 -5.679687,17.460938 0.17008,-5.66867 2.009087,-11.247466 5.679687,-15.460938 C 21.930272,86.100868 27.898612,82.21448 34.515624,82 34.636424,81.9981 34.7542,81.9981 34.875,82 h 55.406248 l 16.429692,-47.59375 -0.125,0.46875 C 110.08595,24.447168 117.54242,18.149472 128,18 c 10.45757,0.149472 17.91405,6.447168 21.41406,16.875 l -0.125,-0.46875 L 165.71875,82 H 221.125 c 0.1208,-0.0019 0.23858,-0.0019 0.35938,0 6.61702,0.21448 12.58534,4.100868 16.78906,9.218752 3.65206,4.1922 5.50116,9.735878 5.6875,15.374998 0.23616,-6.31076 -1.60382,-12.687342 -5.6875,-17.374998 C 234.06972,84.100868 228.1014,80.21448 221.48438,80 c -0.1208,-0.0019 -0.23858,-0.0019 -0.35938,0 h -55.40625 l -16.42969,-47.59375 0.125,0.46875 C 145.91405,22.447168 138.45757,16.149472 128,16 Z M 65.148436,159.71875 48.765624,210.625 c -0.0188,0.0582 -0.0372,0.1134 -0.05468,0.1718 -0.777064,2.5527 -1.049676,5.12346 -0.945312,7.64062 0.09072,-1.87164 0.373288,-3.7615 0.945312,-5.64062 0.0174,-0.0584 0.03588,-0.1138 0.05468,-0.1718 l 16.906252,-52.52344 z m 125.703124,0 -0.52344,0.38281 16.90626,52.52344 c 0.02,0.0582 0.037,0.1134 0.0546,0.1718 0.56804,1.86602 0.85198,3.7427 0.94532,5.60156 0.0994,-2.50478 -0.1722,-5.06204 -0.94532,-7.60156 -0.018,-0.0584 -0.0356,-0.1138 -0.0546,-0.1718 z" />
</svg>
