<?xml version="1.0" encoding="UTF-8" standalone="no"?>
<svg
   width="24"
   height="24"
   version="1.1"
   id="svg2"
   sodipodi:docname="accessories-dictionary-symbolic.svg"
   inkscape:version="1.4.3 (0d15f75042, 2025-12-25)"
   xmlns:inkscape="http://www.inkscape.org/namespaces/inkscape"
   xmlns:sodipodi="http://sodipodi.sourceforge.net/DTD/sodipodi-0.dtd"
   xmlns="http://www.w3.org/2000/svg"
   xmlns:svg="http://www.w3.org/2000/svg">
  <defs
     id="defs2">
    <style
       id="current-color-scheme"
       type="text/css">
        .ColorScheme-Text { color:#4d4d4d; } .ColorScheme-Highlight { color:#4285f4; } .ColorScheme-NeutralText { color:#ff9800; } .ColorScheme-PositiveText { color:#4caf50; } .ColorScheme-NegativeText { color:#f44336; }
     </style>
  </defs>
  <sodipodi:namedview
     id="namedview2"
     pagecolor="#ffffff"
     bordercolor="#000000"
     borderopacity="0.25"
     inkscape:showpageshadow="2"
     inkscape:pageopacity="0.0"
     inkscape:pagecheckerboard="0"
     inkscape:deskcolor="#d1d1d1"
     inkscape:zoom="24.166667"
     inkscape:cx="11.97931"
     inkscape:cy="12"
     inkscape:window-width="1440"
     inkscape:window-height="828"
     inkscape:window-x="0"
     inkscape:window-y="0"
     inkscape:window-maximized="1"
     inkscape:current-layer="svg2" />
  <path
     style="fill:currentColor"
     class="ColorScheme-Text"
     d="m 14.03,5.15 c -0.15,0 -0.3,0.01 -0.46,0.03 C 13,5.26 12.32,5.53 11.55,5.94 10.01,5.09 8.81,5.04 7.81,5.3 6.74,5.57 5.87,6.02 4.52,5.98 L 4,5.96 V 20 H 19 V 5.98 L 18.48,6 C 16.97,6.05 16.21,5.61 15.23,5.32 14.87,5.21 14.47,5.14 14.03,5.15 Z M 8.74,6.14 c 0.62,-0.07 1.3,0.08 2.26,0.6 v 8.64 C 9.9,14.75 8.79,14.7 7.82,14.94 7.16,15.1 6.57,15.28 6,15.43 V 6.79 C 6.8,6.65 7.47,6.42 8.05,6.27 8.29,6.21 8.51,6.16 8.74,6.14 Z m 5.6,0 c 0.2,0.02 0.4,0.07 0.61,0.14 0.53,0.15 1.19,0.4 2.05,0.55 v 8.6 C 16.43,15.28 15.84,15.09 15.19,14.93 14.21,14.69 13.1,14.75 12,15.41 V 6.8 c 0.7,-0.38 1.25,-0.59 1.68,-0.66 0.24,-0.03 0.45,-0.03 0.66,0 z m -0.54,9.61 c 0.37,-0.01 0.75,0.05 1.15,0.15 0.64,0.16 1.32,0.43 2.05,0.63 V 18 H 6 v -1.46 c 0.72,-0.2 1.41,-0.47 2.05,-0.63 1.08,-0.27 2,-0.3 3.15,0.74 l 0.34,0.3 0.33,-0.31 c 0.7,-0.64 1.31,-0.87 1.93,-0.89 z"
     id="path1" />
  <path
     style="fill-opacity:0.35;fill:currentColor"
     class="ColorScheme-Text"
     d="m 4.94,18.75 v -2.19 l 4.22,-1.13 2.34,0.6 2.39,-0.67 3.74,1 v 2.45 z"
     id="path2" />
</svg>
