<?xml version="1.0" encoding="UTF-8" standalone="no"?>
<svg
   width="24"
   height="24"
   version="1.1"
   id="svg2"
   sodipodi:docname="accessories-screenshot-symbolic.svg"
   inkscape:version="1.4.3 (0d15f75042, 2025-12-25)"
   xmlns:inkscape="http://www.inkscape.org/namespaces/inkscape"
   xmlns:sodipodi="http://sodipodi.sourceforge.net/DTD/sodipodi-0.dtd"
   xmlns="http://www.w3.org/2000/svg"
   xmlns:svg="http://www.w3.org/2000/svg">
  <defs
     id="defs2">
    <style
       id="current-color-scheme"
       type="text/css">
        .ColorScheme-Text { color:#4d4d4d; } .ColorScheme-Highlight { color:#4285f4; } .ColorScheme-NeutralText { color:#ff9800; } .ColorScheme-PositiveText { color:#4caf50; } .ColorScheme-NegativeText { color:#f44336; }
     </style>
  </defs>
  <sodipodi:namedview
     id="namedview2"
     pagecolor="#ffffff"
     bordercolor="#000000"
     borderopacity="0.25"
     inkscape:showpageshadow="2"
     inkscape:pageopacity="0.0"
     inkscape:pagecheckerboard="0"
     inkscape:deskcolor="#d1d1d1"
     inkscape:zoom="24.166667"
     inkscape:cx="11.97931"
     inkscape:cy="12"
     inkscape:window-width="1440"
     inkscape:window-height="828"
     inkscape:window-x="0"
     inkscape:window-y="0"
     inkscape:window-maximized="1"
     inkscape:current-layer="svg2" />
  <path
     id="path1"
     style="fill:currentColor"
     class="ColorScheme-Text"
     d="M 6,4 C 4,4 4,6 4,6 v 9 c 0,0 0,2 2,2 H 7 V 14.980469 H 6 V 6 h 12 v 5 h 2 V 6 c 0,0 0,-2 -2,-2 z m 6.029297,7 -1,1 H 9 c -0.47,0.06 -1,0.54 -1,1 v 6 c 0,0.46 0.53,1 1,1 h 10 c 0.47,0 1,-0.54 1,-1 v -6 c 0,-0.46 -0.53,-1 -1,-1 h -1.970703 l -1,-1 z M 14,13 c 1.66,0 3,1.34 3,3 0,1.65 -1.34,3 -3,3 -1.66,0 -3,-1.35 -3,-3 0,-1.66 1.34,-3 3,-3 z m 0,1 c -1.1,0 -2,0.89 -2,2 0,1.1 0.9,2 2,2 1.11,0 2,-0.9 2,-2 0,-1.11 -0.89,-2 -2,-2 z" />
</svg>
