<?xml version="1.0" encoding="UTF-8" standalone="no"?>
<svg
   width="24"
   height="24"
   version="1.1"
   id="svg1"
   sodipodi:docname="inkscape-symbolic.svg"
   inkscape:version="1.4.3 (0d15f75042, 2025-12-25)"
   xmlns:inkscape="http://www.inkscape.org/namespaces/inkscape"
   xmlns:sodipodi="http://sodipodi.sourceforge.net/DTD/sodipodi-0.dtd"
   xmlns="http://www.w3.org/2000/svg"
   xmlns:svg="http://www.w3.org/2000/svg">
  <defs
     id="defs1">
    <style
       id="current-color-scheme"
       type="text/css">
        .ColorScheme-Text { color:#4d4d4d; } .ColorScheme-Highlight { color:#4285f4; } .ColorScheme-NeutralText { color:#ff9800; } .ColorScheme-PositiveText { color:#4caf50; } .ColorScheme-NegativeText { color:#f44336; }
     </style>
  </defs>
  <sodipodi:namedview
     id="namedview1"
     pagecolor="#ffffff"
     bordercolor="#000000"
     borderopacity="0.25"
     inkscape:showpageshadow="2"
     inkscape:pageopacity="0.0"
     inkscape:pagecheckerboard="0"
     inkscape:deskcolor="#d1d1d1"
     inkscape:zoom="24.166667"
     inkscape:cx="11.97931"
     inkscape:cy="12"
     inkscape:window-width="1440"
     inkscape:window-height="828"
     inkscape:window-x="0"
     inkscape:window-y="0"
     inkscape:window-maximized="1"
     inkscape:current-layer="svg1" />
  <path
     style="fill:currentColor"
     class="ColorScheme-Text"
     d="m 12,4 c -0.45,0 -0.9,0.17 -1.24,0.53 l -6.19,6.38 c -0.34,0.35 -0.52,0.81 -0.53,1.27 0,0.01 0,0.02 0,0.03 0,1.37 3.65,0.04 3.98,1.71 0.18,0.91 -1.99,0.49 -1.99,1.4 0,1.07 3.07,0.34 3.95,1.21 0.36,0.88 -1.18,0.74 -0.9,1.56 0.51,0.53 1.67,0.23 1.89,1.09 0.26,0.98 1.92,0.81 2.89,0.09 0.52,-0.53 -0.79,-0.77 -0.28,-1.31 0.52,-0.53 3.06,-0.42 3.08,-1.58 -0.24,-0.73 -1.2,-0.85 -1.21,-1.71 -0.05,-0.73 0.78,-0.52 3.42,-1.24 1.05,-0.5 1.09,-0.76 1.09,-1.22 0,-0.01 0,-0.02 0,-0.03 -0.01,-0.46 -0.22,-0.92 -0.56,-1.27 L 13.24,4.53 C 12.89,4.17 12.45,4 12,4 Z m 0.12,1.34 c 0.47,0 1.75,1.58 2.89,2.77 0.33,0.43 -0.12,0.87 -0.12,0.87 L 12.5,7.67 11.44,9.1 10.51,7.7 9.95,9.88 8.3,8.89 8.74,8.33 11.32,5.68 c 0.19,-0.2 0.35,-0.34 0.8,-0.34 z m 7.09,9.58 c -0.13,-0.01 -0.25,0 -0.34,0.03 -0.17,0.05 -0.97,0.08 -0.9,0.68 0.72,0.31 1.82,0.55 1.95,-0.06 0.1,-0.45 -0.33,-0.64 -0.71,-0.65 z M 6.87,16.94 C 6.8,16.95 6.75,16.97 6.69,17 c -0.55,0.21 -0.92,0.65 -0.41,0.84 0.51,0.19 0.86,-0.01 1.31,-0.25 0.45,-0.24 0.43,-0.28 0.4,-0.37 -0.06,0.01 -0.47,-0.24 -0.9,-0.28 -0.07,-0.01 -0.15,-0.01 -0.22,0 z"
     id="path1" />
</svg>
