<?xml version="1.0" encoding="UTF-8" standalone="no"?>
<svg
   width="24"
   height="24"
   version="1.1"
   id="svg3193"
   sodipodi:docname="org.gnome.Settings-thunderbolt-symbolic.svg"
   inkscape:version="1.4.3 (0d15f75042, 2025-12-25)"
   xmlns:inkscape="http://www.inkscape.org/namespaces/inkscape"
   xmlns:sodipodi="http://sodipodi.sourceforge.net/DTD/sodipodi-0.dtd"
   xmlns="http://www.w3.org/2000/svg"
   xmlns:svg="http://www.w3.org/2000/svg">
  <defs
     id="defs2">
    <style
       id="current-color-scheme"
       type="text/css">
        .ColorScheme-Text { color:#4d4d4d; } .ColorScheme-Highlight { color:#4285f4; } .ColorScheme-NeutralText { color:#ff9800; } .ColorScheme-PositiveText { color:#4caf50; } .ColorScheme-NegativeText { color:#f44336; }
     </style>
  </defs>
  <sodipodi:namedview
     id="namedview3195"
     pagecolor="#ffffff"
     bordercolor="#000000"
     borderopacity="0.25"
     inkscape:showpageshadow="2"
     inkscape:pageopacity="0.0"
     inkscape:pagecheckerboard="0"
     inkscape:deskcolor="#d1d1d1"
     showgrid="false"
     inkscape:zoom="24.166667"
     inkscape:cx="11.97931"
     inkscape:cy="12"
     inkscape:window-width="1440"
     inkscape:window-height="828"
     inkscape:window-x="0"
     inkscape:window-y="0"
     inkscape:window-maximized="1"
     inkscape:current-layer="svg3193" />
  <path
     id="path1"
     style="fill:currentColor;fill-opacity:1"
     class="ColorScheme-Text"
     d="M 15,4 10.816406,5.1132812 8,12 h 4 L 10.486328,14.777344 9.2949219,13.419922 8.515625,19.269531 13.478516,15.761719 11.748047,15.447266 16,10 H 12 Z M 9.7050781,5.3867188 C 6.9668754,6.3370756 5,8.9382781 5,12 c 0,2.263921 1.0766871,4.275448 2.7441406,5.554688 L 8.0722656,15.09375 C 7.4012681,14.242474 7,13.167956 7,12 7,10.636657 7.5468027,9.4019799 8.4316406,8.5 Z M 15.130859,5.7382812 14.236328,7.5273438 C 15.874747,8.3482863 17,10.042652 17,12 c 0,2.267905 -1.510621,4.182936 -3.580078,4.794922 l -2.894531,2.044922 C 11.001245,18.942049 11.493754,19 12,19 c 3.865969,0 7,-3.134031 7,-7 0,-2.7403718 -1.575237,-5.1124389 -3.869141,-6.2617188 z" />
</svg>
