<?xml version="1.0" encoding="UTF-8" standalone="no"?>
<!-- Created with Inkscape (http://www.inkscape.org/) -->

<svg
   width="24"
   height="24"
   viewBox="0 0 24 24"
   version="1.1"
   id="svg5"
   inkscape:version="1.4.3 (0d15f75042, 2025-12-25)"
   sodipodi:docname="org.gnome.SoundRecorder-symbolic.svg"
   xmlns:inkscape="http://www.inkscape.org/namespaces/inkscape"
   xmlns:sodipodi="http://sodipodi.sourceforge.net/DTD/sodipodi-0.dtd"
   xmlns="http://www.w3.org/2000/svg"
   xmlns:svg="http://www.w3.org/2000/svg">
  <sodipodi:namedview
     id="namedview7"
     pagecolor="#ffffff"
     bordercolor="#666666"
     borderopacity="1.0"
     inkscape:showpageshadow="2"
     inkscape:pageopacity="0.0"
     inkscape:pagecheckerboard="0"
     inkscape:deskcolor="#d1d1d1"
     inkscape:document-units="px"
     showgrid="false"
     showguides="false"
     inkscape:zoom="24.166667"
     inkscape:cx="11.97931"
     inkscape:cy="12"
     inkscape:window-width="1440"
     inkscape:window-height="828"
     inkscape:window-x="0"
     inkscape:window-y="0"
     inkscape:window-maximized="1"
     inkscape:current-layer="svg5" />
  <defs
     id="defs2">
    <style
       id="current-color-scheme"
       type="text/css">
        .ColorScheme-Text { color:#4d4d4d; } .ColorScheme-Highlight { color:#4285f4; } .ColorScheme-NeutralText { color:#ff9800; } .ColorScheme-PositiveText { color:#4caf50; } .ColorScheme-NegativeText { color:#f44336; }
     </style>
    <inkscape:path-effect
       effect="bspline"
       id="path-effect1577"
       is_visible="true"
       lpeversion="1"
       weight="33.333333"
       steps="2"
       helper_size="0"
       apply_no_weight="true"
       apply_with_weight="true"
       only_selected="false"
       uniform="false" />
  </defs>
  <path
     id="path1"
     style="fill:currentColor;fill-opacity:1;stroke-width:4;stroke-linecap:round;stroke-linejoin:round"
     class="ColorScheme-Text"
     d="M 10.5,5 C 10.223,5 10,5.2230003 10,5.5 v 13 c 0,0.277 0.223,0.5 0.5,0.5 0.277,0 0.5,-0.223 0.5,-0.5 V 5.5 C 11,5.2230003 10.777,5 10.5,5 Z m 6,2 C 16.223,7 16,7.2230003 16,7.5 v 9 c 0,0.277 0.223,0.5 0.5,0.5 0.277,0 0.5,-0.223 0.5,-0.5 v -9 C 17,7.2230003 16.777,7 16.5,7 Z m -12,3 C 4.2230003,10 4,10.223 4,10.5 v 3 C 4,13.777 4.2230003,14 4.5,14 4.7769997,14 5,13.777 5,13.5 v -3 C 5,10.223 4.7769997,10 4.5,10 Z" />
  <path
     id="path2"
     style="opacity:0.5;fill:currentColor;fill-opacity:1;stroke-width:4;stroke-linecap:round;stroke-linejoin:round"
     class="ColorScheme-Text"
     d="M 7.5,8 C 7.2230003,8 7,8.2230003 7,8.5 v 7 C 7,15.777 7.2230003,16 7.5,16 7.7769997,16 8,15.777 8,15.5 v -7 C 8,8.2230003 7.7769997,8 7.5,8 Z m 6,1 C 13.223,9 13,9.2230003 13,9.5 v 5 c 0,0.277 0.223,0.5 0.5,0.5 0.277,0 0.5,-0.223 0.5,-0.5 v -5 C 14,9.2230003 13.777,9 13.5,9 Z m 6,1 C 19.223,10 19,10.223 19,10.5 v 3 c 0,0.277 0.223,0.5 0.5,0.5 0.277,0 0.5,-0.223 0.5,-0.5 v -3 C 20,10.223 19.777,10 19.5,10 Z" />
</svg>
