<?xml version="1.0" encoding="UTF-8" standalone="no"?>
<!-- Created with Inkscape (http://www.inkscape.org/) -->

<svg
   width="64"
   height="64"
   viewBox="0 0 64 64"
   version="1.1"
   id="svg5"
   inkscape:version="1.2.2 (1:1.2.2+202305151914+b0a8486541)"
   sodipodi:docname="dialog-information.svg"
   xmlns:inkscape="http://www.inkscape.org/namespaces/inkscape"
   xmlns:sodipodi="http://sodipodi.sourceforge.net/DTD/sodipodi-0.dtd"
   xmlns="http://www.w3.org/2000/svg"
   xmlns:svg="http://www.w3.org/2000/svg">
  <sodipodi:namedview
     id="namedview7"
     pagecolor="#ffffff"
     bordercolor="#666666"
     borderopacity="1.0"
     inkscape:showpageshadow="2"
     inkscape:pageopacity="0.0"
     inkscape:pagecheckerboard="0"
     inkscape:deskcolor="#d1d1d1"
     inkscape:document-units="px"
     showgrid="false"
     inkscape:zoom="12.96875"
     inkscape:cx="31.961446"
     inkscape:cy="32"
     inkscape:window-width="1920"
     inkscape:window-height="1008"
     inkscape:window-x="0"
     inkscape:window-y="0"
     inkscape:window-maximized="1"
     inkscape:current-layer="svg5" />
  <defs
     id="defs2" />
  <circle
     style="opacity:0.2;fill:#000000;fill-opacity:1;stroke:none;stroke-width:4.30769;stroke-linecap:round;stroke-linejoin:round;stroke-dasharray:none;stroke-opacity:1"
     id="path2871"
     cx="32"
     cy="33.000126"
     r="28" />
  <circle
     style="opacity:1;fill:#1e88e5;fill-opacity:1;stroke:none;stroke-width:4.30769;stroke-linecap:round;stroke-linejoin:round;stroke-dasharray:none;stroke-opacity:1"
     id="path2873"
     cx="32"
     cy="32"
     r="28" />
  <path
     id="path2840"
     style="opacity:0.2;fill:#ffffff;fill-opacity:1;stroke-width:4;stroke-linecap:square"
     d="M 31.999998,4 A 28,28 0 0 0 3.9999985,32 28,28 0 0 0 4.0351545,32.5 28,28 0 0 1 31.999998,4.9999996 28,28 0 0 1 59.98242,32.251953 28,28 0 0 0 60,32 28,28 0 0 0 32,4 Z" />
  <path
     d="m 32,14 c -2.209137,0 -4,1.790863 -4,4 0,2.209137 1.790863,4 4,4 2.209137,0 4,-1.790863 4,-4 0,-2.209137 -1.790863,-4 -4,-4 z m -3,14 v 24 h 6 V 28 Z"
     style="fill:#000000;fill-opacity:1;stroke-width:9;stroke-linecap:round;stroke-linejoin:round;opacity:0.2"
     id="path298" />
  <path
     id="path1122"
     style="fill:#ffffff;fill-opacity:1;stroke-width:9;stroke-linecap:round;stroke-linejoin:round"
     d="m 32,13 c -2.209137,0 -4,1.790863 -4,4 0,2.209137 1.790863,4 4,4 2.209137,0 4,-1.790863 4,-4 0,-2.209137 -1.790863,-4 -4,-4 z m -3,14 v 24 h 6 V 27 Z" />
</svg>
