<?xml version="1.0" encoding="UTF-8" standalone="no"?>
<!-- Created with Inkscape (http://www.inkscape.org/) -->

<svg
   width="64"
   height="64"
   viewBox="0 0 64 64"
   version="1.1"
   id="svg5"
   inkscape:version="1.4.3 (0d15f75042, 2025-12-25)"
   sodipodi:docname="system-suspend-hibernate.svg"
   xmlns:inkscape="http://www.inkscape.org/namespaces/inkscape"
   xmlns:sodipodi="http://sodipodi.sourceforge.net/DTD/sodipodi-0.dtd"
   xmlns="http://www.w3.org/2000/svg"
   xmlns:svg="http://www.w3.org/2000/svg">
  <sodipodi:namedview
     id="namedview7"
     pagecolor="#ffffff"
     bordercolor="#000000"
     borderopacity="0.25"
     inkscape:showpageshadow="2"
     inkscape:pageopacity="0.0"
     inkscape:pagecheckerboard="0"
     inkscape:deskcolor="#d1d1d1"
     inkscape:document-units="px"
     showgrid="false"
     inkscape:zoom="12.3125"
     inkscape:cx="31.959391"
     inkscape:cy="31.959391"
     inkscape:window-width="1920"
     inkscape:window-height="1008"
     inkscape:window-x="0"
     inkscape:window-y="0"
     inkscape:window-maximized="1"
     inkscape:current-layer="svg5" />
  <defs
     id="defs2" />
  <circle
     style="opacity:0.2;fill:#000000"
     id="path1"
     cx="32"
     cy="33"
     r="28" />
  <circle
     style="fill:#673ab7;fill-opacity:1"
     id="path2"
     cx="32"
     cy="32"
     r="28" />
  <path
     id="path3"
     style="opacity:0.2;fill:#ffffff;fill-opacity:1"
     d="M 32,4 A 28,28 0 0 0 4,32 28,28 0 0 0 4.0351562,32.5 28,28 0 0 1 32,5 28,28 0 0 1 59.982422,32.251953 28,28 0 0 0 60,32 28,28 0 0 0 32,4 Z" />
  <path
     id="path4"
     style="opacity:0.2;stroke-width:1.90476"
     d="M 32,13 C 20.954325,13 12,21.95433 12,32.999998 12,44.045671 20.954325,53 32,53 43.045672,53 52.000002,44.045671 52.000002,32.999998 52.000002,21.95433 43.045672,13 32,13 Z m 0,5.999998 c 7.731971,0 14,6.26803 14,14 0,7.731971 -6.268029,14 -14,14 -7.731971,0 -14,-6.268029 -14,-14 0,-7.73197 6.268029,-14 14,-14 z m 0,8.000005 c -3.313706,0 -6.000002,2.686295 -6.000002,5.999995 C 25.999998,36.313704 28.686294,39 32,39 c 3.313706,0 6.000002,-2.686296 6.000002,-6.000002 0,-3.3137 -2.686296,-5.999995 -6.000002,-5.999995 z" />
  <path
     id="path5"
     style="fill:#ffffff;stroke-width:1.90476"
     d="m 32,12 c -11.045675,0 -20,8.954325 -20,20 0,11.045672 8.954325,20.000002 20,20.000002 11.045672,0 20.000002,-8.95433 20.000002,-20.000002 0,-11.045675 -8.95433,-20 -20.000002,-20 z m 0,6 c 7.731971,0 14,6.268029 14,14 0,7.731971 -6.268029,14 -14,14 -7.731971,0 -14,-6.268029 -14,-14 0,-7.731971 6.268029,-14 14,-14 z m 0,7.999998 c -3.313706,0 -6.000002,2.686296 -6.000002,6.000002 0,3.313706 2.686296,6.000002 6.000002,6.000002 3.313706,0 6.000002,-2.686296 6.000002,-6.000002 0,-3.313706 -2.686296,-6.000002 -6.000002,-6.000002 z" />
</svg>
