<?xml version="1.0" encoding="UTF-8" standalone="no"?>
<!-- Created with Inkscape (http://www.inkscape.org/) -->

<svg
   width="64"
   height="64"
   viewBox="0 0 64 64"
   version="1.1"
   id="svg5"
   inkscape:version="1.3 (0e150ed6c4, 2023-07-21)"
   sodipodi:docname="system-suspend.svg"
   xmlns:inkscape="http://www.inkscape.org/namespaces/inkscape"
   xmlns:sodipodi="http://sodipodi.sourceforge.net/DTD/sodipodi-0.dtd"
   xmlns="http://www.w3.org/2000/svg"
   xmlns:svg="http://www.w3.org/2000/svg">
  <sodipodi:namedview
     id="namedview7"
     pagecolor="#ffffff"
     bordercolor="#000000"
     borderopacity="0.25"
     inkscape:showpageshadow="2"
     inkscape:pageopacity="0.0"
     inkscape:pagecheckerboard="0"
     inkscape:deskcolor="#d1d1d1"
     inkscape:document-units="px"
     showgrid="false"
     inkscape:zoom="12.3125"
     inkscape:cx="32"
     inkscape:cy="32"
     inkscape:window-width="1920"
     inkscape:window-height="1004"
     inkscape:window-x="0"
     inkscape:window-y="0"
     inkscape:window-maximized="1"
     inkscape:current-layer="svg5" />
  <defs
     id="defs2" />
  <rect
     style="opacity:0.2;fill:#000000;stroke-width:4.00002;stroke-linecap:square"
     id="rect234"
     width="55.999996"
     height="55.999996"
     x="4"
     y="4.9999995"
     ry="12" />
  <rect
     style="fill:#00bcd4;fill-opacity:1;stroke-width:4.00002;stroke-linecap:square"
     id="rect396"
     width="55.999996"
     height="55.999996"
     x="4"
     y="4"
     ry="12" />
  <path
     id="path2"
     style="opacity:0.2;stroke-width:1.90476"
     d="M 32 13 C 20.954336 13 12 21.954343 12 33 C 12 44.045662 20.954336 53 32 53 C 43.045661 53 52 44.045662 52 33 C 52 21.954343 43.045661 13 32 13 z M 32 19 C 39.731963 19 46 25.268038 46 33 C 46 40.731963 39.731963 47 32 47 C 24.268037 47 18 40.731963 18 33 C 18 25.268038 24.268037 19 32 19 z M 25 30 C 23.338004 30 22 31.338003 22 33 C 22 34.661996 23.338004 36 25 36 L 39 36 C 40.661997 36 42 34.661996 42 33 C 42 31.338003 40.661997 30 39 30 L 25 30 z " />
  <path
     id="path3"
     style="fill:#ffffff;stroke-width:1.90476"
     d="M 32 12 C 20.954336 12 12 20.954336 12 32 C 12 43.045661 20.954336 52 32 52 C 43.045661 52 52 43.045661 52 32 C 52 20.954336 43.045661 12 32 12 z M 32 18 C 39.731963 18 46 24.268037 46 32 C 46 39.731963 39.731963 46 32 46 C 24.268037 46 18 39.731963 18 32 C 18 24.268037 24.268037 18 32 18 z M 25 29 C 23.338004 29 22 30.338003 22 32 C 22 33.661996 23.338004 35 25 35 L 39 35 C 40.661997 35 42 33.661996 42 32 C 42 30.338003 40.661997 29 39 29 L 25 29 z " />
  <path
     id="path1040"
     style="opacity:0.2;fill:#ffffff;stroke-width:4.00002;stroke-linecap:square"
     d="M 16,4 C 9.352013,4 4,9.3520134 4,16 v 1.000002 C 4,10.352013 9.352013,5.0000001 16,5.0000001 H 48.000003 C 54.647985,5.0000001 60,10.352013 60,17.000002 V 16 C 60,9.3520134 54.647985,4 48.000003,4 Z" />
</svg>
