<?xml version="1.0" encoding="UTF-8" standalone="no"?>
<!-- Created with Inkscape (http://www.inkscape.org/) -->

<svg
   width="64"
   height="64"
   viewBox="0 0 64 64"
   version="1.1"
   id="svg5"
   inkscape:version="1.4.3 (0d15f75042, 2025-12-25)"
   sodipodi:docname="system-switch-user.svg"
   xmlns:inkscape="http://www.inkscape.org/namespaces/inkscape"
   xmlns:sodipodi="http://sodipodi.sourceforge.net/DTD/sodipodi-0.dtd"
   xmlns="http://www.w3.org/2000/svg"
   xmlns:svg="http://www.w3.org/2000/svg">
  <sodipodi:namedview
     id="namedview7"
     pagecolor="#ffffff"
     bordercolor="#000000"
     borderopacity="0.25"
     inkscape:showpageshadow="2"
     inkscape:pageopacity="0.0"
     inkscape:pagecheckerboard="0"
     inkscape:deskcolor="#d1d1d1"
     inkscape:document-units="px"
     showgrid="false"
     inkscape:zoom="12.5"
     inkscape:cx="31.96"
     inkscape:cy="31.96"
     inkscape:window-width="1920"
     inkscape:window-height="1008"
     inkscape:window-x="0"
     inkscape:window-y="0"
     inkscape:window-maximized="1"
     inkscape:current-layer="svg5" />
  <defs
     id="defs2" />
  <circle
     style="opacity:0.2;fill:#000000"
     id="path1"
     cx="32"
     cy="33"
     r="28" />
  <circle
     style="fill:#3f51b5;fill-opacity:1"
     id="path2"
     cx="32"
     cy="32"
     r="28" />
  <path
     id="path3"
     style="opacity:0.2;fill:#ffffff;fill-opacity:1"
     d="M 32,4 A 28,28 0 0 0 4,32 28,28 0 0 0 4.0351562,32.5 28,28 0 0 1 32,5 28,28 0 0 1 59.982422,32.251953 28,28 0 0 0 60,32 28,28 0 0 0 32,4 Z" />
  <path
     id="path4"
     style="opacity:0.2;stroke-width:2"
     d="m 42,13 c -1.513658,0 -3.02732,0.980951 -3,2.941406 V 39 H 32 L 42,52 52,39 H 45 V 15.941406 C 45.027322,13.980951 43.513658,13 42,13 Z M 22,14 12,27 h 7 v 23.058594 c -0.05464,3.92091 6.054642,3.92091 6,0 V 27 h 7 z" />
  <path
     id="path5"
     style="fill:#ffffff;stroke-width:2"
     d="m 42,12 c -1.513658,0 -3.02732,0.980951 -3,2.941406 V 38 H 32 L 42,51 52,38 H 45 V 14.941406 C 45.027322,12.980951 43.513658,12 42,12 Z M 22,13 12,26 h 7 v 23.058594 c -0.05464,3.92091 6.054642,3.92091 6,0 V 26 h 7 z" />
</svg>
