<?xml version="1.0" encoding="UTF-8" standalone="no"?>
<!-- Created with Inkscape (http://www.inkscape.org/) -->

<svg
   width="64"
   height="64"
   viewBox="0 0 64 64"
   version="1.1"
   id="svg5"
   inkscape:version="1.3 (0e150ed6c4, 2023-07-21)"
   sodipodi:docname="weather-clear-night.svg"
   xmlns:inkscape="http://www.inkscape.org/namespaces/inkscape"
   xmlns:sodipodi="http://sodipodi.sourceforge.net/DTD/sodipodi-0.dtd"
   xmlns="http://www.w3.org/2000/svg"
   xmlns:svg="http://www.w3.org/2000/svg">
  <sodipodi:namedview
     id="namedview7"
     pagecolor="#ffffff"
     bordercolor="#000000"
     borderopacity="0.25"
     inkscape:showpageshadow="2"
     inkscape:pageopacity="0.0"
     inkscape:pagecheckerboard="0"
     inkscape:deskcolor="#d1d1d1"
     inkscape:document-units="px"
     showgrid="false"
     inkscape:zoom="12.234375"
     inkscape:cx="31.959132"
     inkscape:cy="32"
     inkscape:window-width="1920"
     inkscape:window-height="984"
     inkscape:window-x="0"
     inkscape:window-y="29"
     inkscape:window-maximized="1"
     inkscape:current-layer="svg5" />
  <defs
     id="defs2" />
  <path
     style="opacity:0.2;fill:#000000;stroke-width:2.24998"
     d="m 39.751385,6.0039364 c -2.337034,0.115758 -3.702648,2.6859392 -2.490582,4.6874426 2.044786,3.377883 3.740092,7.248978 3.740542,11.197553 0,11.978464 -10.256056,22.354044 -22.232804,22.361122 -2.62311,-0.02056 -5.223746,-1.248956 -7.668899,-2.199086 C 8.3535331,40.985458 5.8151775,44.001114 7.3335947,46.525164 12.35113,54.86643 21.378749,59.981236 31.112811,60.000052 h 0.0042 c 15.322824,0 27.81077,-12.48794 27.81077,-27.810816 C 58.924665,20.656572 51.782285,10.300591 41.002839,6.2010906 40.603819,6.0496746 40.177761,5.9825458 39.751515,6.0039366 Z"
     id="path3" />
  <path
     style="fill:#ffcc42;stroke-width:2.24998"
     d="m 39.751385,5.0039362 c -2.337034,0.115758 -3.702648,2.6859394 -2.490582,4.6874418 2.044786,3.377885 3.740092,7.248982 3.740542,11.197555 0,11.978463 -10.256056,22.354043 -22.232806,22.361121 -2.623108,-0.02056 -5.223746,-1.248956 -7.668897,-2.199086 -2.7461093,-1.06551 -5.2844649,1.950146 -3.7660477,4.474196 5.0175337,8.341266 14.0451547,13.456074 23.7792167,13.474888 h 0.0042 c 15.322824,0 27.81077,-12.48794 27.81077,-27.810816 C 58.924665,19.656572 51.782285,9.3005912 41.002839,5.2010908 40.603819,5.0496748 40.177763,4.9825458 39.751515,5.0039368 Z"
     id="path4" />
  <path
     id="path1"
     style="opacity:0.2;fill:#ffffff;stroke-width:2.24998"
     d="m 39.750011,5.0039584 c -1.926274,0.095414 -3.187612,1.8601484 -2.894532,3.5976562 0.223616,-1.3576188 1.341418,-2.520726 2.894532,-2.5976562 0.426248,-0.021384 0.854886,0.043893 1.253906,0.1953126 10.605498,4.033348 17.685134,14.125696 17.914062,25.433593 0.0024,-0.148596 0.01172,-0.29617 0.01172,-0.445312 C 58.926499,19.6549 51.783353,9.2987678 41.003917,5.199271 40.604897,5.0478512 40.176259,4.9825744 39.750011,5.0039584 Z M 40.988293,21.410208 C 40.696325,33.16686 30.572239,43.243076 18.769542,43.250052 16.146437,43.229488 13.546721,42.000962 11.101573,41.050834 8.7457215,40.136746 6.5495535,42.227654 6.9296981,44.433646 7.2339031,42.657 9.1095655,41.27792 11.101573,42.050834 c 2.445148,0.950128 5.044864,2.178658 7.667969,2.199218 11.976739,-0.0071 22.230469,-10.380924 22.230469,-22.359376 -1.8e-5,-0.159752 -0.0062,-0.320996 -0.01172,-0.480468 z" />
</svg>
