<?xml version="1.0" encoding="UTF-8" standalone="no"?>
<!-- Created with Inkscape (http://www.inkscape.org/) -->

<svg
   width="64"
   height="64"
   viewBox="0 0 64 64"
   version="1.1"
   id="svg5"
   inkscape:version="1.3 (0e150ed6c4, 2023-07-21)"
   sodipodi:docname="weather-few-clouds.svg"
   xmlns:inkscape="http://www.inkscape.org/namespaces/inkscape"
   xmlns:sodipodi="http://sodipodi.sourceforge.net/DTD/sodipodi-0.dtd"
   xmlns="http://www.w3.org/2000/svg"
   xmlns:svg="http://www.w3.org/2000/svg">
  <sodipodi:namedview
     id="namedview7"
     pagecolor="#ffffff"
     bordercolor="#000000"
     borderopacity="0.25"
     inkscape:showpageshadow="2"
     inkscape:pageopacity="0.0"
     inkscape:pagecheckerboard="0"
     inkscape:deskcolor="#d1d1d1"
     inkscape:document-units="px"
     showgrid="false"
     inkscape:zoom="12.234375"
     inkscape:cx="31.959132"
     inkscape:cy="32"
     inkscape:window-width="1920"
     inkscape:window-height="984"
     inkscape:window-x="0"
     inkscape:window-y="29"
     inkscape:window-maximized="1"
     inkscape:current-layer="svg5" />
  <defs
     id="defs2" />
  <path
     style="opacity:0.2;fill:#000000;stroke-width:2"
     d="m 32,5 -8,8 H 12 v 12 l -8,8 8,8 v 12 h 12 l 8,8 8,-8 H 52 V 41 l 8,-8 -8,-8 V 13 H 40 Z"
     id="path3" />
  <path
     style="fill:#ff8a47;stroke-width:2"
     d="m 32,4 -8,8 H 12 v 12 l -8,8 8,8 v 12 h 12 l 8,8 8,-8 H 52 V 40 l 8,-8 -8,-8 V 12 H 40 Z"
     id="path4" />
  <path
     id="path5"
     style="opacity:0.2;fill:#ffffff;stroke-width:2"
     d="m 32,4 -8,8 H 12 v 1 h 12 l 8,-8 8,8 H 52 V 12 H 40 Z M 12,24 4,32 4.5,32.5 12,25 Z m 40,0 v 1 L 59.5,32.5 60,32 Z" />
  <circle
     style="opacity:0.2;fill:#000000;stroke-width:4;stroke-linecap:round;stroke-linejoin:round"
     id="path9"
     cx="32"
     cy="33"
     r="16" />
  <circle
     style="fill:#ffcc42;fill-opacity:1;stroke-width:4;stroke-linecap:round;stroke-linejoin:round"
     id="path10"
     cx="32"
     cy="32"
     r="16" />
  <path
     id="path11"
     style="opacity:0.2;fill:#ffffff;fill-opacity:1;stroke-width:4;stroke-linecap:round;stroke-linejoin:round"
     d="M 32,16 A 16,16 0 0 0 16,32 16,16 0 0 0 16.03516,32.511718 16,16 0 0 1 32,17 16,16 0 0 1 47.980468,32.25 16,16 0 0 0 48,32 16,16 0 0 0 32,16 Z" />
  <path
     id="path1"
     style="opacity:0.2;fill:#000000;fill-opacity:1;stroke-width:2;stroke-linecap:round;stroke-linejoin:round"
     d="M 42,34 A 12,12 0 0 0 30.703124,42.03125 8,8 0 0 0 30,42 a 8,8 0 0 0 -8,8 8,8 0 0 0 8,8 H 42 54 A 8,8 0 0 0 62,50 8,8 0 0 0 54,42 8,8 0 0 0 53.328124,42.04688 12,12 0 0 0 42,34 Z" />
  <path
     id="path2"
     style="fill:#f2f2f2;fill-opacity:1;stroke-width:2;stroke-linecap:round;stroke-linejoin:round"
     d="M 42,33 A 12,12 0 0 0 30.703124,41.03125 8,8 0 0 0 30,41 a 8,8 0 0 0 -8,8 8,8 0 0 0 8,8 H 54 A 8,8 0 0 0 62,49 8,8 0 0 0 54,41 8,8 0 0 0 53.328124,41.04688 12,12 0 0 0 42,33 Z" />
</svg>
