<?xml version="1.0" encoding="UTF-8" standalone="no"?>
<!-- Created with Inkscape (http://www.inkscape.org/) -->

<svg
   width="64"
   height="64"
   viewBox="0 0 64 64"
   version="1.1"
   id="svg5"
   inkscape:version="1.3 (0e150ed6c4, 2023-07-21)"
   sodipodi:docname="weather-showers-scattered.svg"
   xmlns:inkscape="http://www.inkscape.org/namespaces/inkscape"
   xmlns:sodipodi="http://sodipodi.sourceforge.net/DTD/sodipodi-0.dtd"
   xmlns="http://www.w3.org/2000/svg"
   xmlns:svg="http://www.w3.org/2000/svg">
  <sodipodi:namedview
     id="namedview7"
     pagecolor="#ffffff"
     bordercolor="#000000"
     borderopacity="0.25"
     inkscape:showpageshadow="2"
     inkscape:pageopacity="0.0"
     inkscape:pagecheckerboard="0"
     inkscape:deskcolor="#d1d1d1"
     inkscape:document-units="px"
     showgrid="false"
     inkscape:zoom="12.234375"
     inkscape:cx="31.959132"
     inkscape:cy="32"
     inkscape:window-width="1920"
     inkscape:window-height="984"
     inkscape:window-x="0"
     inkscape:window-y="29"
     inkscape:window-maximized="1"
     inkscape:current-layer="svg5"
     showguides="false" />
  <defs
     id="defs2" />
  <path
     id="path1"
     style="opacity:0.2;fill:#000000;stroke-width:2.712;stroke-linecap:round;stroke-linejoin:round"
     d="M 18 44 C 18 44 14 47.790872 14 50 C 14 52.209128 15.790872 54 18 54 C 20.20913 54 22 52.209128 22 50 C 22 47.790872 18 44 18 44 z M 32 44 C 32 44 28 47.790872 28 50 C 28 52.209128 29.790872 54 32 54 C 34.20913 54 36 52.209128 36 50 C 36 47.790872 32 44 32 44 z M 46 44 C 46 44 42 47.790872 42 50 C 42 52.209128 43.79087 54 46 54 C 48.20913 54 50 52.209128 50 50 C 50 47.790872 46 44 46 44 z " />
  <path
     id="path2"
     style="fill:#83e0f7;fill-opacity:1;stroke-width:2;stroke-linecap:round;stroke-linejoin:round"
     d="M 18 43 C 18 43 14 46.790874 14 49 C 14 51.209126 15.790874 53 18 53 C 20.209128 53 22 51.209126 22 49 C 22 46.790874 18 43 18 43 z M 32 43 C 32 43 28 46.790874 28 49 C 28 51.209126 29.790872 53 32 53 C 34.209126 53 36 51.209126 36 49 C 36 46.790874 32 43 32 43 z M 46 43 C 46 43 42 46.790874 42 49 C 42 51.209126 43.790872 53 46 53 C 48.209126 53 50 51.209126 50 49 C 50 46.790874 46 43 46 43 z " />
  <path
     id="path4"
     style="opacity:0.2;fill:#000000;stroke-width:4"
     d="M 32 10 C 24.955709 10.0068 19.013394 15.246328 18.125 22.234375 C 17.427078 22.080535 16.71467 22.00196 16 22 C 10.477163 22 6 26.477163 6 32 C 6 37.522837 10.477163 42 16 42 L 48 42 C 53.522837 42 58 37.522837 58 32 C 58 26.477163 53.522837 22 48 22 C 47.289994 22.0084 46.582879 22.092 45.890625 22.25 C 45.008699 15.249649 39.055487 9.999784 32 10 z " />
  <path
     id="path3"
     style="fill:#f2f2f2;fill-opacity:1;stroke-width:4"
     d="M 32 9 C 24.955709 9.0068 19.013394 14.246328 18.125 21.234375 C 17.427078 21.080535 16.71467 21.00196 16 21 C 10.477163 21 6 25.477164 6 31 C 6 36.522837 10.477163 41 16 41 L 48 41 C 53.522837 41 58 36.522837 58 31 C 58 25.477164 53.522837 21 48 21 C 47.289994 21.0084 46.582879 21.092 45.890625 21.25 C 45.008699 14.249633 39.055487 8.999784 32 9 z " />
</svg>
