<?xml version="1.0" encoding="UTF-8" standalone="no"?>
<!-- Created with Inkscape (http://www.inkscape.org/) -->

<svg
   width="64"
   height="64"
   viewBox="0 0 64 64"
   version="1.1"
   id="svg5"
   inkscape:version="1.3 (0e150ed6c4, 2023-07-21)"
   sodipodi:docname="weather-snow-scattered.svg"
   xmlns:inkscape="http://www.inkscape.org/namespaces/inkscape"
   xmlns:sodipodi="http://sodipodi.sourceforge.net/DTD/sodipodi-0.dtd"
   xmlns="http://www.w3.org/2000/svg"
   xmlns:svg="http://www.w3.org/2000/svg">
  <sodipodi:namedview
     id="namedview7"
     pagecolor="#ffffff"
     bordercolor="#000000"
     borderopacity="0.25"
     inkscape:showpageshadow="2"
     inkscape:pageopacity="0.0"
     inkscape:pagecheckerboard="0"
     inkscape:deskcolor="#d1d1d1"
     inkscape:document-units="px"
     showgrid="false"
     inkscape:zoom="12.234375"
     inkscape:cx="31.959132"
     inkscape:cy="32"
     inkscape:window-width="1920"
     inkscape:window-height="984"
     inkscape:window-x="0"
     inkscape:window-y="29"
     inkscape:window-maximized="1"
     inkscape:current-layer="svg5"
     showguides="false" />
  <defs
     id="defs2" />
  <path
     id="path4"
     style="opacity:0.2;fill:#000000;stroke-width:4"
     d="M 32 10 C 24.955709 10.0068 19.013394 15.246328 18.125 22.234375 C 17.427078 22.080535 16.71467 22.00196 16 22 C 10.477163 22 6 26.477163 6 32 C 6 37.522837 10.477163 42 16 42 L 48 42 C 53.522837 42 58 37.522837 58 32 C 58 26.477163 53.522837 22 48 22 C 47.289994 22.0084 46.582879 22.092 45.890625 22.25 C 45.008699 15.249649 39.055487 9.999784 32 10 z " />
  <path
     id="path3"
     style="fill:#f2f2f2;fill-opacity:1;stroke-width:4"
     d="M 32 9 C 24.955709 9.0068 19.013394 14.246328 18.125 21.234375 C 17.427078 21.080535 16.71467 21.00196 16 21 C 10.477163 21 6 25.477164 6 31 C 6 36.522837 10.477163 41 16 41 L 48 41 C 53.522837 41 58 36.522837 58 31 C 58 25.477164 53.522837 21 48 21 C 47.289994 21.0084 46.582879 21.092 45.890625 21.25 C 45.008699 14.249633 39.055487 8.999784 32 9 z " />
  <path
     id="path11"
     style="opacity:0.2;fill:#000000;fill-opacity:1;stroke-width:1.68325"
     d="m 18.250002,45.000001 -1.828125,1.773438 -2.421876,0.726562 0.589844,2.5 -0.589844,2.500001 2.421876,0.726562 1.828125,1.773438 1.828125,-1.773438 2.421876,-0.726562 -0.589844,-2.500001 0.589844,-2.5 -2.421876,-0.726562 z m 14.000002,0 -1.828124,1.773438 -2.421877,0.726562 0.589844,2.5 -0.589844,2.500001 2.421877,0.726562 1.828124,1.773438 1.828124,-1.773438 2.421877,-0.726562 -0.589844,-2.500001 0.589844,-2.5 -2.421877,-0.726562 z m 14.000002,0 -1.828124,1.773438 -2.421876,0.726562 0.589844,2.5 -0.589844,2.500001 2.421876,0.726562 1.828124,1.773438 1.828124,-1.773438 2.421877,-0.726562 -0.589844,-2.500001 0.589844,-2.5 -2.421877,-0.726562 z"
     sodipodi:nodetypes="ccccccccccccccccccccccccccccccccccccccc" />
  <path
     d="m 18.250002,44 -1.828125,1.773439 -2.421876,0.726562 0.589844,2.5 -0.589844,2.5 2.421876,0.726562 1.828125,1.773439 1.828125,-1.773439 2.421876,-0.726562 -0.589844,-2.5 0.589844,-2.5 -2.421876,-0.726562 z m 14.000002,0 -1.828124,1.773439 -2.421877,0.726562 0.589844,2.5 -0.589844,2.5 2.421877,0.726562 1.828124,1.773439 1.828124,-1.773439 2.421877,-0.726562 -0.589844,-2.5 0.589844,-2.5 -2.421877,-0.726562 z m 14.000002,0 -1.828124,1.773439 -2.421876,0.726562 0.589844,2.5 -0.589844,2.5 2.421876,0.726562 1.828124,1.773439 1.828124,-1.773439 2.421877,-0.726562 -0.589844,-2.5 0.589844,-2.5 -2.421877,-0.726562 z"
     style="fill:#edfafe;fill-opacity:1;stroke-width:1.68325"
     id="path12" />
</svg>
