<?xml version="1.0" encoding="UTF-8" standalone="no"?>
<!-- Created with Inkscape (http://www.inkscape.org/) -->

<svg
   width="64"
   height="64"
   viewBox="0 0 64 64"
   version="1.1"
   id="svg5"
   inkscape:version="1.3 (0e150ed6c4, 2023-07-21)"
   sodipodi:docname="weather-snow-scattered.svg"
   xmlns:inkscape="http://www.inkscape.org/namespaces/inkscape"
   xmlns:sodipodi="http://sodipodi.sourceforge.net/DTD/sodipodi-0.dtd"
   xmlns="http://www.w3.org/2000/svg"
   xmlns:svg="http://www.w3.org/2000/svg">
  <sodipodi:namedview
     id="namedview7"
     pagecolor="#ffffff"
     bordercolor="#000000"
     borderopacity="0.25"
     inkscape:showpageshadow="2"
     inkscape:pageopacity="0.0"
     inkscape:pagecheckerboard="0"
     inkscape:deskcolor="#d1d1d1"
     inkscape:document-units="px"
     showgrid="false"
     inkscape:zoom="12.234375"
     inkscape:cx="31.959132"
     inkscape:cy="32"
     inkscape:window-width="1920"
     inkscape:window-height="984"
     inkscape:window-x="0"
     inkscape:window-y="29"
     inkscape:window-maximized="1"
     inkscape:current-layer="svg5"
     showguides="false" />
  <defs
     id="defs2" />
  <path
     d="m 32.000004,10 c -7.044305,0.0068 -12.986606,5.246317 -13.875002,12.234378 -0.697924,-0.15384 -1.410328,-0.2324 -2.125,-0.23436 C 10.477153,22.000018 6,26.477171 6,32.00002 c 0,5.522849 4.477153,10.000001 10.000002,10.000001 0.415444,-0.0028 0.830312,-0.0316 1.242188,-0.08592 v 0.07812 h 30.476568 v -0.0156 c 0.09364,0.0092 0.1874,0.0168 0.28124,0.0236 C 53.522847,42.000221 58,37.523069 58,32.00022 58,26.477371 53.522847,22.000218 47.999998,22.000218 c -0.710008,0.0084 -1.41712,0.092 -2.109376,0.25 C 45.008694,15.249853 39.055505,9.9998 32.000004,10.000016 Z"
     style="opacity:0.2;fill:#000000;stroke-width:4"
     id="path4" />
  <path
     d="m 32.000004,9 c -7.044305,0.0068 -12.986606,5.246317 -13.875002,12.234378 -0.697924,-0.15384 -1.410328,-0.2324 -2.125,-0.23436 C 10.477153,21.000018 6,25.477171 6,31.000019 c 0,5.522849 4.477153,10.000002 10.000002,10.000002 0.415444,-0.0028 0.830312,-0.0316 1.242188,-0.08592 v 0.07812 h 30.476568 v -0.0156 c 0.09364,0.0092 0.1874,0.0168 0.28124,0.0236 C 53.522847,41.000221 58,36.523068 58,31.000219 58,25.477371 53.522847,21.000218 47.999998,21.000218 c -0.710008,0.0084 -1.41712,0.092 -2.109376,0.25 C 45.008694,14.249837 39.055505,8.999784 32.000004,9 Z"
     style="fill:#f2f2f2;fill-opacity:1;stroke-width:4"
     id="path3" />
  <path
     id="path11"
     style="opacity:0.2;fill:#000000;fill-opacity:1;stroke-width:1.68325"
     d="m 18.250002,45.000001 -1.828125,1.773438 -2.421876,0.726562 0.589844,2.5 -0.589844,2.500001 2.421876,0.726562 1.828125,1.773438 1.828125,-1.773438 2.421876,-0.726562 -0.589844,-2.500001 0.589844,-2.5 -2.421876,-0.726562 z m 14.000002,0 -1.828124,1.773438 -2.421877,0.726562 0.589844,2.5 -0.589844,2.500001 2.421877,0.726562 1.828124,1.773438 1.828124,-1.773438 2.421877,-0.726562 -0.589844,-2.500001 0.589844,-2.5 -2.421877,-0.726562 z m 14.000002,0 -1.828124,1.773438 -2.421876,0.726562 0.589844,2.5 -0.589844,2.500001 2.421876,0.726562 1.828124,1.773438 1.828124,-1.773438 2.421877,-0.726562 -0.589844,-2.500001 0.589844,-2.5 -2.421877,-0.726562 z"
     sodipodi:nodetypes="ccccccccccccccccccccccccccccccccccccccc" />
  <path
     d="m 18.250002,44 -1.828125,1.773439 -2.421876,0.726562 0.589844,2.5 -0.589844,2.5 2.421876,0.726562 1.828125,1.773439 1.828125,-1.773439 2.421876,-0.726562 -0.589844,-2.5 0.589844,-2.5 -2.421876,-0.726562 z m 14.000002,0 -1.828124,1.773439 -2.421877,0.726562 0.589844,2.5 -0.589844,2.5 2.421877,0.726562 1.828124,1.773439 1.828124,-1.773439 2.421877,-0.726562 -0.589844,-2.5 0.589844,-2.5 -2.421877,-0.726562 z m 14.000002,0 -1.828124,1.773439 -2.421876,0.726562 0.589844,2.5 -0.589844,2.5 2.421876,0.726562 1.828124,1.773439 1.828124,-1.773439 2.421877,-0.726562 -0.589844,-2.5 0.589844,-2.5 -2.421877,-0.726562 z"
     style="fill:#edfafe;fill-opacity:1;stroke-width:1.68325"
     id="path12" />
</svg>
