<?xml version="1.0" encoding="UTF-8" standalone="no"?>
<!-- Created with Inkscape (http://www.inkscape.org/) -->

<svg
   width="96"
   height="96"
   viewBox="0 0 96 96"
   version="1.1"
   id="svg5"
   inkscape:version="1.3.2 (1:1.3.2+202404261509+091e20ef0f)"
   sodipodi:docname="folder-black-games.svg"
   xmlns:inkscape="http://www.inkscape.org/namespaces/inkscape"
   xmlns:sodipodi="http://sodipodi.sourceforge.net/DTD/sodipodi-0.dtd"
   xmlns="http://www.w3.org/2000/svg"
   xmlns:svg="http://www.w3.org/2000/svg">
  <sodipodi:namedview
     id="namedview7"
     pagecolor="#ffffff"
     bordercolor="#000000"
     borderopacity="0.25"
     inkscape:showpageshadow="2"
     inkscape:pageopacity="0.0"
     inkscape:pagecheckerboard="0"
     inkscape:deskcolor="#d1d1d1"
     inkscape:document-units="px"
     showgrid="false"
     inkscape:zoom="8.3229167"
     inkscape:cx="47.939925"
     inkscape:cy="48"
     inkscape:window-width="1920"
     inkscape:window-height="1006"
     inkscape:window-x="0"
     inkscape:window-y="0"
     inkscape:window-maximized="1"
     inkscape:current-layer="svg5" />
  <defs
     id="defs2" />
  <path
     d="m 12.000224,13 c -3.3239878,0 -5.9999831,2.675995 -5.9999831,5.999982 0.038775,19.959923 0,39.957282 0,59.999828 0,3.323988 2.6759953,5.999983 5.9999831,5.999983 H 84.000018 C 87.324005,84.999793 90,82.323798 90,78.99981 V 27.999957 c 0,-3.323988 -2.675995,-5.999983 -5.999982,-5.999983 H 48.000121 L 45.000129,17.499987 C 43.156314,14.734262 42.324134,13 39.000147,13 Z"
     style="opacity:0.2;fill:#000000;fill-opacity:1;stroke-width:5.99998;stroke-linecap:square"
     id="path2595" />
  <path
     d="m 12.000224,12 c -3.3239878,0 -5.9999831,2.675996 -5.9999831,5.999983 0.038775,19.959922 0,39.957281 0,59.999828 0,3.323987 2.6759953,5.999983 5.9999831,5.999983 H 84.000018 C 87.324005,83.999794 90,81.323798 90,77.999811 V 26.999957 C 90,23.67597 87.324005,20.999974 84.000018,20.999974 H 48.000121 L 45.000129,16.499987 C 43.156314,13.734263 42.324134,12 39.000147,12 Z"
     style="fill:#3a3a3a;fill-opacity:1;stroke-width:5.99998;stroke-linecap:square"
     id="path2567" />
  <path
     id="path2855"
     style="opacity:0.1;fill:#ffffff;fill-opacity:1;stroke-width:5.99998;stroke-linecap:square"
     d="m 12,12 c -3.3239812,0 -6,2.67602 -6,6 6.473e-4,0.333241 2.074e-4,0.666349 0,1 0,-3.323984 2.6760163,-6 6,-6 h 27 c 3.323984,0 4.156187,1.734278 6,4.5 l 3,4.5 h 36 c 3.323984,0 6,2.676015 6,6 v -1 c 0,-3.323981 -2.676019,-6 -6,-6 H 48 L 45,16.5 C 43.156188,13.734281 42.323981,12 39,12 Z" />
  <rect
     style="opacity:0.2;fill:#000000;fill-opacity:1;stroke-width:5.99998;stroke-linecap:square"
     id="rect2667"
     width="83.999756"
     height="47.999863"
     x="6.0002408"
     y="35"
     ry="5.9999828" />
  <rect
     style="opacity:1;fill:#f2f2f2;fill-opacity:1;stroke-width:5.99998;stroke-linecap:square"
     id="rect3435"
     width="71.999794"
     height="38"
     x="11.999982"
     y="26.999956"
     ry="4.4999871" />
  <rect
     style="opacity:1;fill:#4f4f4f;fill-opacity:1;stroke-width:5.99998;stroke-linecap:square"
     id="rect2727"
     width="83.999756"
     height="47.999863"
     x="6.0002408"
     y="35.999928"
     ry="5.9999828" />
  <path
     id="path5"
     style="opacity:0.5;fill:#ffffff;stroke-width:1.5"
     d="M 40.095703 48 C 39.642705 48.0015 39.121888 48.145171 38.587891 48.451172 C 36.642398 49.54617 34.848951 53.135171 33.876953 57.785156 C 33.047457 61.736144 32.744784 67.132694 33.238281 69.304688 C 33.668781 71.172183 34.411378 72 35.734375 72 C 37.696368 71.964 40.163114 69.62882 41.724609 66.486328 C 42.855606 64.747834 45.474009 63.955971 48 64.042969 C 50.525991 63.948469 53.148301 64.747834 54.279297 66.486328 C 55.840792 69.628819 58.305585 71.964 60.267578 72 C 61.590575 72 62.333172 71.172183 62.763672 69.304688 C 63.257171 67.132694 62.954496 61.736143 62.125 57.785156 C 61.153002 53.13517 59.361509 49.54617 57.416016 48.451172 C 56.882016 48.145172 56.390952 47.9985 55.939453 48 C 55.487956 48.003 55.075546 48.154172 54.685547 48.451172 C 53.697051 49.20567 51.635989 50.012625 48 50.015625 C 44.364011 50.018625 42.30295 49.20567 41.314453 48.451172 C 40.924455 48.154172 40.550202 47.997 40.095703 48 z M 40 53 L 43 53 L 43 56 L 46 56 L 46 59 L 43 59 L 43 62 L 40 62 L 40 59 L 37 59 L 37 56 L 40 56 L 40 53 z M 54.5 53 C 55.327996 53 56 53.672003 56 54.5 C 56 55.327997 55.327996 56 54.5 56 C 53.672003 56 53 55.327997 53 54.5 C 53 53.672003 53.672003 53 54.5 53 z M 51.5 56 C 52.327996 56 53 56.672003 53 57.5 C 53 58.327997 52.327996 59 51.5 59 C 50.672003 59 50 58.327997 50 57.5 C 50 56.672003 50.672003 56 51.5 56 z M 57.5 56 C 58.327997 56 59 56.672003 59 57.5 C 59 58.327997 58.327997 59 57.5 59 C 56.672003 59 56 58.327997 56 57.5 C 56 56.672003 56.672003 56 57.5 56 z M 54.5 59 C 55.327996 59 56 59.672003 56 60.5 C 56 61.327997 55.327996 62 54.5 62 C 53.672003 62 53 61.327997 53 60.5 C 53 59.672003 53.672003 59 54.5 59 z " />
</svg>
