<?xml version="1.0" encoding="UTF-8" standalone="no"?>
<svg
   width="24"
   height="24"
   version="1.1"
   id="svg2"
   sodipodi:docname="password-manager-symbolic.svg"
   inkscape:version="1.4.3 (0d15f75042, 2025-12-25)"
   xmlns:inkscape="http://www.inkscape.org/namespaces/inkscape"
   xmlns:sodipodi="http://sodipodi.sourceforge.net/DTD/sodipodi-0.dtd"
   xmlns="http://www.w3.org/2000/svg"
   xmlns:svg="http://www.w3.org/2000/svg">
  <defs
     id="defs2">
    <style
       id="current-color-scheme"
       type="text/css">
        .ColorScheme-Text { color:#dfdfdf; } .ColorScheme-Highlight { color:#4285f4; } .ColorScheme-NeutralText { color:#ff9800; } .ColorScheme-PositiveText { color:#4caf50; } .ColorScheme-NegativeText { color:#f44336; }
     </style>
  </defs>
  <sodipodi:namedview
     id="namedview2"
     pagecolor="#ffffff"
     bordercolor="#000000"
     borderopacity="0.25"
     inkscape:showpageshadow="2"
     inkscape:pageopacity="0.0"
     inkscape:pagecheckerboard="0"
     inkscape:deskcolor="#d1d1d1"
     inkscape:zoom="24.166667"
     inkscape:cx="11.97931"
     inkscape:cy="12"
     inkscape:window-width="1440"
     inkscape:window-height="828"
     inkscape:window-x="0"
     inkscape:window-y="0"
     inkscape:window-maximized="1"
     inkscape:current-layer="svg2" />
  <path
     style="fill:currentColor"
     class="ColorScheme-Text"
     d="M 8.5,5 C 6.01,5 4,7.02 4,9.5 4,11.99 6.01,14 8.5,14 c 1.9,0 3.6,-1.2 4.24,-3 H 16 v 2 h 3 v -2 h 1 V 8 H 12.74 C 12.1,6.21 10.4,5.01 8.5,5 Z m 0,3 C 9.33,8 10,8.68 10,9.5 10,10.33 9.33,11 8.5,11 7.67,11 7,10.33 7,9.5 7,8.68 7.67,8 8.5,8 Z"
     id="path1" />
  <path
     style="opacity:0.35;fill:currentColor"
     class="ColorScheme-Text"
     d="m 13.24,12.13 c -0.5,0.9 -1.22,1.64 -2.09,2.15 l 1.6,1.59 -1.42,1.41 2.12,2.12 1.42,-1.42 0.7,0.71 2.13,-2.12 z"
     id="path2" />
</svg>
