<?xml version="1.0" encoding="UTF-8" standalone="no"?>
<!-- Created with Inkscape (http://www.inkscape.org/) -->

<svg
   width="24"
   height="24"
   viewBox="0 0 24 24"
   version="1.1"
   id="svg5"
   inkscape:version="1.4.3 (0d15f75042, 2025-12-25)"
   sodipodi:docname="preferences-system-sharing-symbolic.svg"
   xmlns:inkscape="http://www.inkscape.org/namespaces/inkscape"
   xmlns:sodipodi="http://sodipodi.sourceforge.net/DTD/sodipodi-0.dtd"
   xmlns="http://www.w3.org/2000/svg"
   xmlns:svg="http://www.w3.org/2000/svg">
  <sodipodi:namedview
     id="namedview7"
     pagecolor="#ffffff"
     bordercolor="#000000"
     borderopacity="0.25"
     inkscape:showpageshadow="2"
     inkscape:pageopacity="0.0"
     inkscape:pagecheckerboard="0"
     inkscape:deskcolor="#d1d1d1"
     inkscape:document-units="px"
     showgrid="false"
     inkscape:zoom="24.166667"
     inkscape:cx="11.97931"
     inkscape:cy="12"
     inkscape:window-width="1440"
     inkscape:window-height="828"
     inkscape:window-x="0"
     inkscape:window-y="0"
     inkscape:window-maximized="1"
     inkscape:current-layer="svg5" />
  <defs
     id="defs2">
    <style
       id="current-color-scheme"
       type="text/css">
        .ColorScheme-Text { color:#dfdfdf; } .ColorScheme-Highlight { color:#4285f4; } .ColorScheme-NeutralText { color:#ff9800; } .ColorScheme-PositiveText { color:#4caf50; } .ColorScheme-NegativeText { color:#f44336; }
     </style>
  </defs>
  <path
     id="path345"
     style="fill:currentColor;fill-opacity:1"
     class="ColorScheme-Text"
     d="m 16,4 c -1.659998,0 -3,1.3500017 -3,3 0,0.2299997 0.03984,0.4401565 0.08984,0.6601562 l -3.2207032,2 C 9.3591411,9.2501567 8.7099993,9 8,9 6.3400017,9 5,10.350002 5,12 c 0,1.659999 1.3400017,3 3,3 0.7099993,0 1.3608599,-0.240391 1.8808594,-0.650391 l 3.2089846,2 C 13.039844,16.559609 13,16.77 13,17 c 0,1.659998 1.340002,3 3,3 1.659998,0 3,-1.340002 3,-3 0,-1.649998 -1.340002,-3 -3,-3 -0.709999,0 -1.359141,0.250157 -1.869141,0.660156 l -3.220703,-2 C 10.960156,12.440157 11,12.23 11,12 11,11.77 10.96016,11.559609 10.91016,11.349609 L 14.130859,9.3496094 C 14.640859,9.759609 15.290001,10 16,10 17.659998,10 19,8.6599983 19,7 19,5.3500017 17.659998,4 16,4 Z m 0,2 a 1,1 0 0 1 1,1 1,1 0 0 1 -1,1 1,1 0 0 1 -1,-1 1,1 0 0 1 1,-1 z m -8,5 a 1,1 0 0 1 1,1 1,1 0 0 1 -1,1 1,1 0 0 1 -1,-1 1,1 0 0 1 1,-1 z m 8,5 a 1,1 0 0 1 1,1 1,1 0 0 1 -1,1 1,1 0 0 1 -1,-1 1,1 0 0 1 1,-1 z" />
</svg>
