<?xml version="1.0" encoding="UTF-8" standalone="no"?>
<!-- Created with Inkscape (http://www.inkscape.org/) -->

<svg
   width="128"
   height="128"
   viewBox="0 0 128 128"
   version="1.1"
   id="svg5"
   inkscape:version="1.2.2 (1:1.2.2+202305151914+b0a8486541)"
   sodipodi:docname="user-trash-full.svg"
   xmlns:inkscape="http://www.inkscape.org/namespaces/inkscape"
   xmlns:sodipodi="http://sodipodi.sourceforge.net/DTD/sodipodi-0.dtd"
   xmlns="http://www.w3.org/2000/svg"
   xmlns:svg="http://www.w3.org/2000/svg">
  <sodipodi:namedview
     id="namedview7"
     pagecolor="#ffffff"
     bordercolor="#000000"
     borderopacity="0.25"
     inkscape:showpageshadow="2"
     inkscape:pageopacity="0.0"
     inkscape:pagecheckerboard="0"
     inkscape:deskcolor="#d1d1d1"
     inkscape:document-units="px"
     showgrid="false"
     inkscape:zoom="6.484375"
     inkscape:cx="64"
     inkscape:cy="64"
     inkscape:window-width="1920"
     inkscape:window-height="1008"
     inkscape:window-x="0"
     inkscape:window-y="0"
     inkscape:window-maximized="1"
     inkscape:current-layer="svg5" />
  <defs
     id="defs2" />
  <rect
     style="opacity:0.2;fill:#000000;fill-opacity:1;stroke-width:4;stroke-linecap:square"
     id="rect1972"
     width="88"
     height="112"
     x="19.999994"
     y="9"
     ry="12" />
  <rect
     style="fill:#c9c9c9;fill-opacity:1;stroke-width:4;stroke-linecap:square"
     id="rect2026"
     width="88"
     height="112"
     x="19.999994"
     y="8"
     ry="12" />
  <rect
     style="fill:#7e7e7e;fill-opacity:1;stroke-width:4;stroke-linecap:square"
     id="rect2112"
     width="88"
     height="36"
     x="19.999994"
     y="8"
     ry="12" />
  <rect
     style="fill:#e0e0e0;fill-opacity:1;stroke-width:4;stroke-linecap:square"
     id="rect406"
     width="60"
     height="16"
     x="34"
     y="20"
     ry="4" />
  <rect
     style="opacity:0.2;fill:#000000;stroke-width:4;stroke-linecap:square"
     id="rect408"
     width="36"
     height="14"
     x="32"
     y="22.999996"
     ry="4" />
  <rect
     style="fill:#fefefe;fill-opacity:1;stroke-width:4;stroke-linecap:square"
     id="rect404"
     width="36"
     height="16"
     x="32"
     y="24"
     ry="4" />
  <rect
     style="opacity:0.2;fill:#000000;fill-opacity:1;stroke-width:4;stroke-linecap:square"
     id="rect1611"
     width="36"
     height="14"
     x="60.000004"
     y="26.999996"
     ry="4" />
  <rect
     style="fill:#f5f5f5;fill-opacity:1;stroke-width:4;stroke-linecap:square"
     id="rect1609"
     width="36"
     height="14"
     x="60.000004"
     y="28"
     ry="4" />
  <path
     id="rect2107"
     style="fill:#a6a6a6;fill-opacity:1;stroke-width:4;stroke-linecap:square"
     d="M 31.999996,8 C 25.352002,8 19.999995,13.352007 19.999995,19.999999 V 32 c 0,6.647994 5.352007,12 12.000001,12 h 63.999998 c 6.647996,0 11.999996,-5.352006 11.999996,-12 V 19.999999 C 107.99999,13.352007 102.64799,8 95.999994,8 Z m 0,8 h 63.999998 c 2.215998,0 4,1.784001 4,3.999999 V 32 c 0,2.215998 -1.784002,4 -4,4 H 31.999996 c -2.215998,0 -4,-1.784002 -4,-4 V 19.999999 c 0,-2.215998 1.784002,-3.999999 4,-3.999999 z"
     sodipodi:nodetypes="ssssssssssssssssss" />
  <path
     id="rect3237"
     style="opacity:0.2;fill:#ffffff;fill-opacity:1;stroke-width:4;stroke-linecap:square"
     d="M 32,8 C 25.352012,8 20,13.352014 20,20 v 1 C 20,14.352012 25.352012,9 32,9 h 64 c 6.64799,0 12,5.352012 12,12 V 20 C 108,13.352014 102.64799,8 96,8 Z" />
  <rect
     style="opacity:0.3;fill:#000000;stroke-width:8;stroke-linecap:square"
     id="rect776"
     width="8"
     height="60"
     x="30"
     y="52"
     ry="4" />
  <rect
     style="opacity:0.3;fill:#000000;stroke-width:8;stroke-linecap:square"
     id="rect830"
     width="8"
     height="60"
     x="50"
     y="52"
     ry="4" />
  <rect
     style="opacity:0.3;fill:#000000;stroke-width:8;stroke-linecap:square"
     id="rect832"
     width="8"
     height="60"
     x="70"
     y="52"
     ry="4" />
  <rect
     style="opacity:0.3;fill:#000000;stroke-width:8;stroke-linecap:square"
     id="rect834"
     width="8"
     height="60"
     x="90"
     y="52"
     ry="4" />
</svg>
