<?xml version="1.0" encoding="UTF-8" standalone="no"?>
<svg
   width="22"
   height="22"
   version="1.1"
   id="svg3"
   sodipodi:docname="applications-utilities-symbolic.svg"
   inkscape:version="1.4.3 (0d15f75042, 2025-12-25)"
   xmlns:inkscape="http://www.inkscape.org/namespaces/inkscape"
   xmlns:sodipodi="http://sodipodi.sourceforge.net/DTD/sodipodi-0.dtd"
   xmlns="http://www.w3.org/2000/svg"
   xmlns:svg="http://www.w3.org/2000/svg">
  <defs
     id="defs3">
    <style
       id="current-color-scheme"
       type="text/css">
        .ColorScheme-Text { color:#4d4d4d; } .ColorScheme-Highlight { color:#4285f4; } .ColorScheme-NeutralText { color:#ff9800; } .ColorScheme-PositiveText { color:#4caf50; } .ColorScheme-NegativeText { color:#f44336; }
     </style>
  </defs>
  <sodipodi:namedview
     id="namedview3"
     pagecolor="#ffffff"
     bordercolor="#000000"
     borderopacity="0.25"
     inkscape:showpageshadow="2"
     inkscape:pageopacity="0.0"
     inkscape:pagecheckerboard="0"
     inkscape:deskcolor="#d1d1d1"
     inkscape:zoom="36.681818"
     inkscape:cx="10.986369"
     inkscape:cy="11"
     inkscape:window-width="1920"
     inkscape:window-height="1010"
     inkscape:window-x="0"
     inkscape:window-y="0"
     inkscape:window-maximized="1"
     inkscape:current-layer="svg3" />
  <path
     id="path1"
     style="fill:currentColor"
     class="ColorScheme-Text"
     d="M 6,3 C 4.3380017,3 3,4.3380017 3,6 v 10 c 0,1.661998 1.3380017,3 3,3 1.6619983,0 3,-1.338002 3,-3 V 6 C 9,4.3380017 7.6619983,3 6,3 Z M 6,5 C 6.5539994,5 7,5.4460006 7,6 V 16 C 7,16.553999 6.5539994,17 6,17 5.4460006,17 5,16.553999 5,16 V 6 C 5,5.4460006 5.4460006,5 6,5 Z" />
  <path
     style="fill:currentColor"
     class="ColorScheme-Text"
     d="M 8.41,3 C 9.28,3.71 9.88,4.79 9.88,6 V 7 H 12 c -0.07,-1.09 1.25,-2 2,-2 0.68,0 1,0.01 1,1 v 1 h 1.22 C 17.45,6.4 18,5.03 18,4.31 18,3.58 15.61,3 14.31,3 Z"
     id="path2" />
  <path
     style="fill:currentColor"
     class="ColorScheme-Text"
     d="m 10,8 v 4.31 c 2.77,2.66 6.13,2.41 6.13,2.41 0,0 0.35,-1.52 -1.91,-4.03 L 11.84,8 Z m 2.98,2.53 1.68,1.74 c -1.8,0.16 -2.15,-0.86 -1.68,-1.74 z"
     id="path3" />
</svg>
