<?xml version="1.0" encoding="UTF-8" standalone="no"?>
<!-- Created with Inkscape (http://www.inkscape.org/) -->

<svg
   width="22"
   height="22"
   viewBox="0 0 22 22"
   version="1.1"
   id="svg5"
   inkscape:version="1.3.2 (091e20ef0f, 2023-11-25, custom)"
   sodipodi:docname="applications-all-symbolic.svg"
   xmlns:inkscape="http://www.inkscape.org/namespaces/inkscape"
   xmlns:sodipodi="http://sodipodi.sourceforge.net/DTD/sodipodi-0.dtd"
   xmlns="http://www.w3.org/2000/svg"
   xmlns:svg="http://www.w3.org/2000/svg">
  <sodipodi:namedview
     id="namedview7"
     pagecolor="#ffffff"
     bordercolor="#000000"
     borderopacity="0.25"
     inkscape:showpageshadow="2"
     inkscape:pageopacity="0.0"
     inkscape:pagecheckerboard="0"
     inkscape:deskcolor="#d1d1d1"
     inkscape:document-units="px"
     showgrid="false"
     inkscape:zoom="36.545455"
     inkscape:cx="11"
     inkscape:cy="11"
     inkscape:window-width="1920"
     inkscape:window-height="1008"
     inkscape:window-x="0"
     inkscape:window-y="0"
     inkscape:window-maximized="1"
     inkscape:current-layer="svg5" />
  <defs
     id="defs2">
    <style
       id="current-color-scheme"
       type="text/css">
        .ColorScheme-Text { color:#dfdfdf; } .ColorScheme-Highlight { color:#4285f4; } .ColorScheme-NeutralText { color:#ff9800; } .ColorScheme-PositiveText { color:#4caf50; } .ColorScheme-NegativeText { color:#f44336; }
     </style>
  </defs>
  <path
     id="path296"
     style="fill:currentColor;fill-opacity:1"
     class="ColorScheme-Text"
     d="M 5,4 C 4.4460012,4 4,4.4460012 4,5 v 4 c 0,0.553999 0.4460012,1 1,1 h 4 c 0.553999,0 1,-0.446001 1,-1 V 5 C 10,4.4460012 9.553999,4 9,4 Z m 8,0 c -0.553999,0 -1,0.4460012 -1,1 v 4 c 0,0.553999 0.446001,1 1,1 h 4 c 0.553998,0 1,-0.446001 1,-1 V 5 C 18,4.4460012 17.553998,4 17,4 Z M 6,6 H 8 V 8 H 6 Z m 8,0 h 2 v 2 h -2 z m -9,6 c -0.5539988,0 -1,0.446002 -1,1 v 4 c 0,0.553998 0.4460012,1 1,1 h 4 c 0.553999,0 1,-0.446002 1,-1 V 13 C 10,12.446002 9.553999,12 9,12 Z m 8,0 c -0.553999,0 -1,0.446002 -1,1 v 4 c 0,0.553998 0.446001,1 1,1 h 4 c 0.553998,0 1,-0.446002 1,-1 v -4 c 0,-0.553998 -0.446002,-1 -1,-1 z m -7,2 h 2 v 2 H 6 Z m 8,0 h 2 v 2 h -2 z" />
</svg>
