<?xml version="1.0" encoding="UTF-8" standalone="no"?>
<!-- Created with Inkscape (http://www.inkscape.org/) -->

<svg
   width="22"
   height="22"
   viewBox="0 0 22 22"
   version="1.1"
   id="svg5"
   inkscape:version="1.4.3 (0d15f75042, 2025-12-25)"
   sodipodi:docname="edit-clear-list.svg"
   xmlns:inkscape="http://www.inkscape.org/namespaces/inkscape"
   xmlns:sodipodi="http://sodipodi.sourceforge.net/DTD/sodipodi-0.dtd"
   xmlns="http://www.w3.org/2000/svg"
   xmlns:svg="http://www.w3.org/2000/svg">
  <sodipodi:namedview
     id="namedview7"
     pagecolor="#ffffff"
     bordercolor="#000000"
     borderopacity="0.25"
     inkscape:showpageshadow="2"
     inkscape:pageopacity="0.0"
     inkscape:pagecheckerboard="0"
     inkscape:deskcolor="#d1d1d1"
     inkscape:document-units="px"
     showgrid="false"
     inkscape:zoom="36.681818"
     inkscape:cx="10.986369"
     inkscape:cy="11"
     inkscape:window-width="1920"
     inkscape:window-height="1010"
     inkscape:window-x="0"
     inkscape:window-y="0"
     inkscape:window-maximized="1"
     inkscape:current-layer="svg5" />
  <defs
     id="defs2">
    <style
       id="current-color-scheme"
       type="text/css">
        .ColorScheme-Text { color:#dfdfdf; } .ColorScheme-Highlight { color:#4285f4; } .ColorScheme-NeutralText { color:#ff9800; } .ColorScheme-PositiveText { color:#4caf50; } .ColorScheme-NegativeText { color:#f44336; }
     </style>
  </defs>
  <path
     id="path1"
     style="fill:currentColor;stroke-linecap:square"
     class="ColorScheme-Text"
     d="m 11,4 a 7,7 0 0 0 -7,7 7,7 0 0 0 7,7 7,7 0 0 0 7,-7 7,7 0 0 0 -7,-7 z m 0,2 a 5,5 0 0 1 5,5 5,5 0 0 1 -5,5 5,5 0 0 1 -5,-5 5,5 0 0 1 5,-5 z M 8,8 V 9 C 8,9.276 8.099297,9.53765 8.2792969,9.71875 L 9.560547,11 8.2792969,12.28125 C 8.0992971,12.46225 8,12.7239 8,13 v 1 h 1 c 0.28,0 0.540703,-0.10025 0.720703,-0.28125 L 11,12.433594 12.279297,13.71875 C 12.459296,13.89975 12.72,14 13,14 h 1 v -1 c 0,-0.2761 -0.0993,-0.53785 -0.279297,-0.71875 L 12.439453,11 13.720703,9.71875 C 13.900703,9.53765 14,9.276 14,9 V 8 H 13 C 12.72,8 12.459296,8.1002502 12.279297,8.28125 L 11,9.558594 9.720703,8.28125 C 9.540703,8.1002502 9.28,8 9,8 Z" />
</svg>
