<?xml version="1.0" encoding="UTF-8" standalone="no"?>
<!-- Created with Inkscape (http://www.inkscape.org/) -->

<svg
   width="16"
   height="16"
   viewBox="0 0 16 16"
   version="1.1"
   id="svg5"
   inkscape:version="1.2.2 (1:1.2.2+202305151914+b0a8486541)"
   sodipodi:docname="audio-speakers-symbolic.svg"
   xmlns:inkscape="http://www.inkscape.org/namespaces/inkscape"
   xmlns:sodipodi="http://sodipodi.sourceforge.net/DTD/sodipodi-0.dtd"
   xmlns="http://www.w3.org/2000/svg"
   xmlns:svg="http://www.w3.org/2000/svg">
  <sodipodi:namedview
     id="namedview7"
     pagecolor="#ffffff"
     bordercolor="#000000"
     borderopacity="0.25"
     inkscape:showpageshadow="2"
     inkscape:pageopacity="0.0"
     inkscape:pagecheckerboard="0"
     inkscape:deskcolor="#d1d1d1"
     inkscape:document-units="px"
     showgrid="false"
     inkscape:zoom="51.875"
     inkscape:cx="6.2168675"
     inkscape:cy="8"
     inkscape:window-width="1920"
     inkscape:window-height="1008"
     inkscape:window-x="0"
     inkscape:window-y="0"
     inkscape:window-maximized="1"
     inkscape:current-layer="svg5" />
  <defs
     id="defs2" />
  <path
     id="path971"
     d="M 8,1 4,5 H 1 v 6 h 3 l 4,4 z M 9.9999996,1 V 2.5 C 12.319998,3.239999 14,5.430003 14,8 c 0,2.569997 -1.680002,4.760001 -4.0000004,5.5 V 15 C 13.149997,14.220001 15.5,11.399997 15.5,8 15.5,4.600003 13.149997,1.779999 9.9999996,1 Z m 0,4 v 6 c 1.0599994,-0.579999 1.7890634,-1.700001 1.7890624,-3 0,-1.299999 -0.719063,-2.420001 -1.7890624,-3 z M 6,6 v 4 L 5,9 H 3 V 7 h 2 z"
     style="fill:#4d4d4d;stroke:none;stroke-width:4;-inkscape-stroke:none;fill-opacity:1" />
</svg>
