<?xml version="1.0" encoding="UTF-8" standalone="no"?>
<!-- Created with Inkscape (http://www.inkscape.org/) -->

<svg
   width="16"
   height="16"
   viewBox="0 0 16 16"
   version="1.1"
   id="svg5"
   inkscape:version="1.2.2 (1:1.2.2+202305151914+b0a8486541)"
   sodipodi:docname="input-mouse-symbolic.svg"
   xmlns:inkscape="http://www.inkscape.org/namespaces/inkscape"
   xmlns:sodipodi="http://sodipodi.sourceforge.net/DTD/sodipodi-0.dtd"
   xmlns="http://www.w3.org/2000/svg"
   xmlns:svg="http://www.w3.org/2000/svg">
  <sodipodi:namedview
     id="namedview7"
     pagecolor="#ffffff"
     bordercolor="#000000"
     borderopacity="0.25"
     inkscape:showpageshadow="2"
     inkscape:pageopacity="0.0"
     inkscape:pagecheckerboard="0"
     inkscape:deskcolor="#d1d1d1"
     inkscape:document-units="px"
     showgrid="false"
     showguides="true"
     inkscape:zoom="51.875"
     inkscape:cx="7.9903614"
     inkscape:cy="8"
     inkscape:window-width="1920"
     inkscape:window-height="1008"
     inkscape:window-x="0"
     inkscape:window-y="0"
     inkscape:window-maximized="1"
     inkscape:current-layer="svg5" />
  <defs
     id="defs2" />
  <path
     d="m 6.9999998,0 c -2.7699944,0 -5,2.2300056 -5,5 v 6 c 0,2.769994 2.2300056,5 5,5 H 8.9999999 C 11.769994,16 14,13.769994 14,11 V 5 C 14,2.2300056 11.769994,0 8.9999999,0 Z m 0,2 H 8.9999999 C 10.661996,2 12,3.3380034 12,5 v 6 c 0,1.661996 -1.338004,3 -3.0000001,3 H 6.9999998 C 5.3380032,14 3.9999999,12.661996 3.9999999,11 V 5 c 0,-1.6619966 1.3380033,-3 2.9999999,-3 z m 1,1 c -0.5539994,0 -1,0.4460006 -1,1 v 2 c 0,0.5539994 0.4460006,1 1,1 C 8.5539993,7 8.9999999,6.5539994 8.9999999,6 V 4 c 0,-0.5539994 -0.4460006,-1 -1.0000001,-1 z"
     style="fill:#4d4d4d;stroke-width:4;stroke-linecap:square;fill-opacity:1"
     id="path402" />
</svg>
