<?xml version="1.0" encoding="UTF-8" standalone="no"?>
<!-- Created with Inkscape (http://www.inkscape.org/) -->

<svg
   width="16"
   height="16"
   viewBox="0 0 16 16"
   version="1.1"
   id="svg5"
   inkscape:version="1.2.2 (1:1.2.2+202305151914+b0a8486541)"
   sodipodi:docname="video-display-symbolic.svg"
   xmlns:inkscape="http://www.inkscape.org/namespaces/inkscape"
   xmlns:sodipodi="http://sodipodi.sourceforge.net/DTD/sodipodi-0.dtd"
   xmlns="http://www.w3.org/2000/svg"
   xmlns:svg="http://www.w3.org/2000/svg">
  <sodipodi:namedview
     id="namedview7"
     pagecolor="#ffffff"
     bordercolor="#000000"
     borderopacity="0.25"
     inkscape:showpageshadow="2"
     inkscape:pageopacity="0.0"
     inkscape:pagecheckerboard="0"
     inkscape:deskcolor="#d1d1d1"
     inkscape:document-units="px"
     showgrid="false"
     showguides="true"
     inkscape:zoom="51.875"
     inkscape:cx="7.9903614"
     inkscape:cy="8"
     inkscape:window-width="1920"
     inkscape:window-height="1008"
     inkscape:window-x="0"
     inkscape:window-y="0"
     inkscape:window-maximized="1"
     inkscape:current-layer="svg5" />
  <defs
     id="defs2" />
  <path
     id="rect339"
     style="fill:#4d4d4d;fill-opacity:1;stroke-width:4;stroke-linecap:square"
     d="M 2 1 C 0.89200441 1 0 1.8920044 0 3 L 0 11 C 0 12.107996 0.89200441 13 2 13 L 14 13 C 15.107996 13 16 12.107996 16 11 L 16 3 C 16 1.8920044 15.107996 1 14 1 L 2 1 z M 2 3 L 14 3 L 14 11 L 2 11 L 2 3 z M 5 14 C 4.4460012 14 4 14.446002 4 15 L 4 16 L 12 16 L 12 15 C 12 14.446002 11.553998 14 11 14 L 5 14 z " />
</svg>
