<?xml version="1.0" encoding="UTF-8" standalone="no"?>
<!-- Created with Inkscape (http://www.inkscape.org/) -->

<svg
   width="16"
   height="16"
   viewBox="0 0 16 16"
   version="1.1"
   id="svg402"
   inkscape:version="1.2.2 (1:1.2.2+202305151914+b0a8486541)"
   sodipodi:docname="folder-brown-vbox.svg"
   xmlns:inkscape="http://www.inkscape.org/namespaces/inkscape"
   xmlns:sodipodi="http://sodipodi.sourceforge.net/DTD/sodipodi-0.dtd"
   xmlns="http://www.w3.org/2000/svg"
   xmlns:svg="http://www.w3.org/2000/svg">
  <sodipodi:namedview
     id="namedview404"
     pagecolor="#ffffff"
     bordercolor="#000000"
     borderopacity="0.25"
     inkscape:showpageshadow="2"
     inkscape:pageopacity="0.0"
     inkscape:pagecheckerboard="0"
     inkscape:deskcolor="#d1d1d1"
     inkscape:document-units="px"
     showgrid="false"
     inkscape:zoom="50.375"
     inkscape:cx="8"
     inkscape:cy="8"
     inkscape:window-width="1920"
     inkscape:window-height="1008"
     inkscape:window-x="0"
     inkscape:window-y="0"
     inkscape:window-maximized="1"
     inkscape:current-layer="svg402" />
  <defs
     id="defs399" />
  <path
     d="m 3.0000002,2 c -1.1045674,0 -2,0.8954327 -2,2 v 9.000001 c 0,1.104568 0.8954304,2 2,2 H 13 c 1.104569,0 2,-0.895432 2,-2 V 6 C 15,4.8954327 14.104567,4 13,4 H 9.0000001 l -2,-2 z"
     style="fill:#a0887e;fill-opacity:1"
     id="path392" />
  <path
     d="m 9.5078127,5.9998502 c -0.226197,-0.0033 -0.426432,0.145679 -0.488282,0.363281 l -0.519531,1.81836 -0.519531,-1.81836 c -0.145329,-0.514341 -0.887736,-0.47268 -0.97461,0.05469 L 6.4003905,10.046726 5.9843749,8.3787562 C 5.9288437,8.1563652 5.7292185,8.0002072 5.4999999,7.9998502 h -1.5 v 1 h 1.109375 l 0.90625,3.6210948 c 0.1312371,0.52663 0.8896726,0.496355 0.9785156,-0.03906 L 7.6289057,8.7713372 8.0195308,10.136573 c 0.138999,0.481983 0.821939,0.481983 0.960938,0 l 0.488281,-1.7070318 0.5468752,2.1914068 c 0.05553,0.222389 0.255157,0.378546 0.484375,0.378903 H 12 V 9.9998508 H 10.890625 L 9.9843753,6.3787562 c -0.0548,-0.219598 -0.250265,-0.375009 -0.4765626,-0.378906 z"
     style="opacity:0.5;fill:#000000;stroke-linejoin:round;-inkscape-stroke:none"
     id="path411" />
</svg>
