<?xml version="1.0" encoding="UTF-8" standalone="no"?>
<!-- Created with Inkscape (http://www.inkscape.org/) -->

<svg
   width="16"
   height="16"
   viewBox="0 0 16 16"
   version="1.1"
   id="svg5"
   inkscape:version="1.3 (1:1.3+202307231459+0e150ed6c4)"
   sodipodi:docname="user-trash-full.svg"
   xmlns:inkscape="http://www.inkscape.org/namespaces/inkscape"
   xmlns:sodipodi="http://sodipodi.sourceforge.net/DTD/sodipodi-0.dtd"
   xmlns="http://www.w3.org/2000/svg"
   xmlns:svg="http://www.w3.org/2000/svg">
  <sodipodi:namedview
     id="namedview7"
     pagecolor="#ffffff"
     bordercolor="#000000"
     borderopacity="0.25"
     inkscape:showpageshadow="2"
     inkscape:pageopacity="0.0"
     inkscape:pagecheckerboard="0"
     inkscape:deskcolor="#d1d1d1"
     inkscape:document-units="px"
     showgrid="false"
     inkscape:zoom="44.875"
     inkscape:cx="8"
     inkscape:cy="7.9888579"
     inkscape:window-width="1920"
     inkscape:window-height="1008"
     inkscape:window-x="0"
     inkscape:window-y="0"
     inkscape:window-maximized="1"
     inkscape:current-layer="svg5" />
  <defs
     id="defs2" />
  <rect
     style="fill:#c9c9c9;fill-opacity:1;stroke-width:1.14286;stroke-linecap:square"
     id="rect4364"
     width="11"
     height="16"
     x="2"
     y="0"
     ry="2" />
  <rect
     style="fill:#7e7e7e;fill-opacity:1;stroke-width:2;stroke-linecap:square"
     id="rect4393"
     width="11"
     height="5"
     x="2"
     y="0"
     ry="2" />
  <rect
     style="fill:#e0e0e0;fill-opacity:1;stroke-width:2;stroke-linecap:square"
     id="rect4432"
     width="6"
     height="3"
     x="5"
     y="2" />
  <rect
     style="fill:#fefefe;fill-opacity:1;stroke-width:2;stroke-linecap:square"
     id="rect4503"
     width="7"
     height="1.5"
     x="4"
     y="3" />
  <rect
     style="opacity:0.3;fill:#000000;stroke-width:1.36626;stroke-linecap:square"
     id="rect776"
     width="1"
     height="7"
     x="4"
     y="7" />
  <rect
     style="opacity:0.3;fill:#000000;stroke-width:1.36626;stroke-linecap:square"
     id="rect830"
     width="1"
     height="7"
     x="7"
     y="7" />
  <rect
     style="opacity:0.3;fill:#000000;stroke-width:1.36626;stroke-linecap:square"
     id="rect832"
     width="1"
     height="7"
     x="10"
     y="7" />
  <path
     id="rect1"
     style="fill:#a6a6a6;fill-opacity:1;stroke-linecap:round;stroke-linejoin:round"
     d="M 4,0 C 2.8920011,0 2,0.8920011 2,2 v 1 c 0,1.1079989 0.8920011,2 2,2 h 7 c 1.107999,0 2,-0.8920011 2,-2 V 2 C 13,0.8920011 12.107999,0 11,0 Z m 0,1 h 7 c 0.553999,0 1,0.4460006 1,1 v 1 c 0,0.5539994 -0.446001,1 -1,1 H 4 C 3.4460006,4 3,3.5539994 3,3 V 2 C 3,1.4460006 3.4460006,1 4,1 Z" />
</svg>
