<?xml version="1.0" encoding="UTF-8" standalone="no"?>
<svg
   width="24"
   height="24"
   version="1.1"
   id="svg2"
   sodipodi:docname="playlist-symbolic.svg"
   inkscape:version="1.4.3 (0d15f75042, 2025-12-25)"
   xmlns:inkscape="http://www.inkscape.org/namespaces/inkscape"
   xmlns:sodipodi="http://sodipodi.sourceforge.net/DTD/sodipodi-0.dtd"
   xmlns="http://www.w3.org/2000/svg"
   xmlns:svg="http://www.w3.org/2000/svg">
  <sodipodi:namedview
     id="namedview2"
     pagecolor="#ffffff"
     bordercolor="#000000"
     borderopacity="0.25"
     inkscape:showpageshadow="2"
     inkscape:pageopacity="0.0"
     inkscape:pagecheckerboard="0"
     inkscape:deskcolor="#d1d1d1"
     inkscape:zoom="24.291667"
     inkscape:cx="12"
     inkscape:cy="12"
     inkscape:window-width="1440"
     inkscape:window-height="831"
     inkscape:window-x="0"
     inkscape:window-y="0"
     inkscape:window-maximized="1"
     inkscape:current-layer="svg2" />
  <defs
     id="defs1">
    <style
       id="current-color-scheme"
       type="text/css">
   .ColorScheme-Text { color:#4d4d4d; } .ColorScheme-Highlight { color:#4285f4; } .ColorScheme-NeutralText { color:#ff9800; } .ColorScheme-PositiveText { color:#4caf50; } .ColorScheme-NegativeText { color:#f44336; }
  </style>
  </defs>
  <path
     style="fill:currentColor"
     class="ColorScheme-Text"
     d="M 7,7 V 9 H 17 V 7 Z m 0,4 v 2 h 6 v -2 z m 0,4 v 2 h 4 v -2 z"
     id="path1" />
  <path
     style="fill:currentColor"
     class="ColorScheme-Text"
     d="m 14,11 v 4.09 C 13.85,15.04 13.67,15 13.5,15 12.67,15 12,15.67 12,16.5 12,17.33 12.67,18 13.5,18 14.33,18 15,17.33 15,16.5 V 13 h 3 v 2.09 C 17.85,15.04 17.67,15 17.5,15 16.67,15 16,15.67 16,16.5 16,17.33 16.67,18 17.5,18 18.33,18 19,17.33 19,16.5 V 11 Z"
     id="path2" />
</svg>
