<?xml version="1.0" encoding="UTF-8" standalone="no"?>
<!-- Created with Inkscape (http://www.inkscape.org/) -->

<svg
   width="32"
   height="32"
   viewBox="0 0 32 32.000002"
   version="1.1"
   id="svg5"
   inkscape:version="1.2.2 (1:1.2.2+202305151914+b0a8486541)"
   sodipodi:docname="application-vnd.ms-excel.svg"
   xmlns:inkscape="http://www.inkscape.org/namespaces/inkscape"
   xmlns:sodipodi="http://sodipodi.sourceforge.net/DTD/sodipodi-0.dtd"
   xmlns="http://www.w3.org/2000/svg"
   xmlns:svg="http://www.w3.org/2000/svg">
  <sodipodi:namedview
     id="namedview7"
     pagecolor="#ffffff"
     bordercolor="#000000"
     borderopacity="0.25"
     inkscape:showpageshadow="2"
     inkscape:pageopacity="0.0"
     inkscape:pagecheckerboard="0"
     inkscape:deskcolor="#d1d1d1"
     inkscape:document-units="px"
     showgrid="false"
     inkscape:zoom="25.1875"
     inkscape:cx="16"
     inkscape:cy="16"
     inkscape:window-width="1920"
     inkscape:window-height="1008"
     inkscape:window-x="0"
     inkscape:window-y="0"
     inkscape:window-maximized="1"
     inkscape:current-layer="svg5" />
  <defs
     id="defs2" />
  <path
     id="rect234"
     style="opacity:0.2;stroke-width:0.5;stroke-linecap:round;stroke-linejoin:round"
     d="m 7,3 h 12 l 8,8 v 18 c 0,1.108 -0.892,2 -2,2 H 7 C 5.892,31 5,30.108 5,29 V 5 C 5,3.892 5.892,3 7,3 Z" />
  <path
     id="rect448"
     style="fill:#e0e0e0;fill-opacity:1;stroke-width:0.5;stroke-linecap:round;stroke-linejoin:round"
     d="m 7,2 h 12 l 3,5 5,3 v 18 c 0,1.108 -0.892,2 -2,2 H 7 C 5.892,30 5,29.108 5,28 V 4 C 5,2.892 5.892,2 7,2 Z" />
  <rect
     style="opacity:0.2;fill:#000000;fill-opacity:1;stroke-width:2;stroke-linecap:square"
     id="rect2906"
     width="12"
     height="16"
     x="12.000004"
     y="13"
     ry="0.99999964" />
  <path
     d="m 13,12 h 10.000004 c 0.554,0 1,0.446001 1,1 v 3 L 18,18 12,16 v -3 c 0,-0.553999 0.446,-1 1,-1 z"
     style="fill:#33c481;stroke-width:2;stroke-linecap:square;fill-opacity:1"
     id="path1933" />
  <path
     d="m 12,16 h 6 l 6,4.000001 4e-6,4 L 18,24 12,20.000001 Z"
     style="fill:#107c41;fill-opacity:1;stroke-width:1.92154;stroke-linecap:square"
     id="path2238" />
  <path
     id="path2072"
     style="fill:#21a366;fill-opacity:1;stroke-width:1.92154;stroke-linecap:square"
     d="M 13 12 A 1 1.000001 0 0 0 12 13 L 12 16 L 18 16 L 18 12 L 13 12 z M 18 16 L 18 20 L 24 20 L 24 16 L 18 16 z " />
  <path
     d="m 24.000004,24 v 3 c 0,0.554 -0.446,1 -1,1 H 13 c -0.554,0 -1,-0.446 -1,-1 v -7 l 6.000002,2.01e-4 L 18,24 Z"
     style="fill:#185c37;fill-opacity:1;stroke-width:2;stroke-linecap:square"
     id="path2597" />
  <path
     id="path1961"
     style="opacity:0.2;fill:#ffffff;stroke-width:2;stroke-linecap:square"
     d="m 13,12.000002 c -0.554,0 -1,0.446 -1,1 v 1 c 0,-0.554 0.446,-1 1,-1 h 10.000004 c 0.554,0 1,0.446 1,1 v -1 c 0,-0.554 -0.446,-1 -1,-1 z" />
  <path
     d="m 12,16.000202 v 0.999999 h 6.000004 v -0.999999 z m 0,3.999999 v 1 h 12.000004 v -1 z m 6,4 v 1 h 6.000004 v -1 z"
     style="opacity:0.2;fill:#000000;fill-opacity:1;stroke-width:2;stroke-linecap:square"
     id="path2886" />
  <rect
     style="opacity:0.2;fill:#000000;stroke-width:2;stroke-linecap:square"
     id="rect1099"
     width="8"
     height="8"
     x="8"
     y="17"
     ry="1" />
  <rect
     style="fill:#0d7239;fill-opacity:1;stroke-width:2;stroke-linecap:square"
     id="rect1101"
     width="8"
     height="8"
     x="8"
     y="15.999998"
     ry="1" />
  <path
     d="M 27,11 H 21 C 19.892,11 19,10.108 19,9 V 2 l 8,8 z"
     style="opacity:0.2;fill:#000000;stroke-width:0.5;stroke-linecap:round;stroke-linejoin:round"
     id="path611" />
  <path
     id="rect600"
     style="fill:#f5f5f5;fill-opacity:1;stroke-width:0.5;stroke-linecap:round;stroke-linejoin:round"
     d="M 27,10 H 21 C 19.892,10 19,9.108 19,8 V 2 Z" />
  <path
     id="path1133"
     style="opacity:0.2;fill:#ffffff;fill-opacity:1;stroke-width:0.5;stroke-linecap:round;stroke-linejoin:round"
     d="M 7,2 C 5.892002,2 5,2.8920022 5,4 V 5 C 5,3.8920021 5.892002,3 7,3 h 12 l 7,7 h 1 L 19,2 Z" />
  <path
     id="rect485"
     style="opacity:1;fill:#ffffff;stroke-width:2.4;stroke-linecap:square"
     d="m 9,17 1.9,3 -1.9,3 h 1 L 11.5,20.75 13,23 h 1 L 12.1,20 14,17 H 13 L 11.5,19.25 10,17 Z"
     sodipodi:nodetypes="ccccccccccccc" />
</svg>
