<?xml version="1.0" encoding="UTF-8" standalone="no"?>
<!-- Created with Inkscape (http://www.inkscape.org/) -->

<svg
   width="32"
   height="32"
   viewBox="0 0 32 32.000002"
   version="1.1"
   id="svg5"
   inkscape:version="1.2.2 (1:1.2.2+202305151914+b0a8486541)"
   sodipodi:docname="application-x-rar.svg"
   xmlns:inkscape="http://www.inkscape.org/namespaces/inkscape"
   xmlns:sodipodi="http://sodipodi.sourceforge.net/DTD/sodipodi-0.dtd"
   xmlns="http://www.w3.org/2000/svg"
   xmlns:svg="http://www.w3.org/2000/svg">
  <sodipodi:namedview
     id="namedview7"
     pagecolor="#ffffff"
     bordercolor="#000000"
     borderopacity="0.25"
     inkscape:showpageshadow="2"
     inkscape:pageopacity="0.0"
     inkscape:pagecheckerboard="0"
     inkscape:deskcolor="#d1d1d1"
     inkscape:document-units="px"
     showgrid="false"
     inkscape:zoom="25.1875"
     inkscape:cx="16"
     inkscape:cy="16"
     inkscape:window-width="1920"
     inkscape:window-height="1008"
     inkscape:window-x="0"
     inkscape:window-y="0"
     inkscape:window-maximized="1"
     inkscape:current-layer="svg5" />
  <defs
     id="defs2" />
  <rect
     style="opacity:0.2;fill:#000000;fill-opacity:1;stroke-width:2;stroke-linecap:square"
     id="rect1785"
     width="28"
     height="28"
     x="1.999999"
     y="3"
     ry="3" />
  <rect
     style="opacity:1;fill:#d0b07c;fill-opacity:1;stroke-width:2;stroke-linecap:square"
     id="rect1787"
     width="28"
     height="28"
     x="2.0000019"
     y="2"
     ry="3" />
  <rect
     style="opacity:0.2;fill:#000000"
     width="6"
     height="13.3"
     x="13"
     y="2"
     id="rect3337" />
  <path
     id="rect3339"
     style="fill:#ffffff"
     d="m 16,2 v 2 h 2 V 2 Z m 0,2 h -2 v 2 h 2 z m 0,2 v 2 h 2 V 6 Z m 0,2 h -2 v 2 h 2 z m 0,2 v 2 h 2 v -2 z m 0,2 h -2 v 2 h 2 z" />
  <path
     style="fill:#4b4b4b"
     d="m 16,12 c 2.25,0 2.25,2.8 3,2.8 v 3.5 c 0,0.3878 -0.3345,0.7 -0.75,0.7 h -4.5 C 13.3345,19 13,18.6878 13,18.3 v -3.5 c 0.75,0 0.75,-2.8 3,-2.8 z"
     id="path3343" />
  <path
     style="opacity:0.2;fill:#000000"
     d="M 15.80078,16 C 14.24958,16 13,17.249581 13,18.800781 v 5.398438 C 13,25.750419 14.24958,27 15.80078,27 h 0.39844 C 17.75042,27 19,25.750419 19,24.199219 V 18.800781 C 19,17.249581 17.75042,16 16.19922,16 Z M 16,22 a 2,2 0 0 1 2,2 2,2 0 0 1 -2,2 2,2 0 0 1 -2,-2 2,2 0 0 1 2,-2 z"
     id="path3347" />
  <path
     style="fill:#ffffff"
     d="M 15.80078,15 C 14.24958,15 13,16.249581 13,17.800781 v 5.398438 C 13,24.750419 14.24958,26 15.80078,26 h 0.39844 C 17.75042,26 19,24.750419 19,23.199219 V 17.800781 C 19,16.249581 17.75042,15 16.19922,15 Z M 16,21 a 2,2 0 0 1 2,2 2,2 0 0 1 -2,2 2,2 0 0 1 -2,-2 2,2 0 0 1 2,-2 z"
     id="path3349" />
  <path
     style="fill:#909090"
     d="m 15.98438,13.0001 a 1,0.82954037 0 0 0 -0.98428,0.840798 v 3.31783 a 1,0.82954037 0 1 0 1.9998,0 v -3.31783 A 1,0.82954037 0 0 0 15.98438,13.0001 Z"
     id="path3351" />
  <path
     id="rect814"
     style="opacity:0.1;fill:#ffffff;stroke-width:2;stroke-linecap:square"
     d="M 5,2 C 3.3380017,2 2,3.3380017 2,5 V 6 C 2,4.3380017 3.3380017,3 5,3 h 22 c 1.661998,0 3,1.3380017 3,3 V 5 C 30,3.3380017 28.661998,2 27,2 Z" />
  <g
     id="g1143"
     transform="translate(-6,-11)">
    <rect
       style="opacity:0.2;fill:#000000;fill-opacity:1;stroke-width:2;stroke-linecap:square"
       id="rect640"
       width="20"
       height="10"
       x="18"
       y="33"
       ry="1.5" />
    <rect
       style="fill:#7e57c2;fill-opacity:1;stroke-width:2;stroke-linecap:square"
       id="rect241"
       width="20"
       height="10"
       x="18"
       y="32"
       ry="1.5" />
    <path
       d="M 31.45898,34.010565 C 31.19973,34.031935 31.00016,34.248486 31,34.508612 v 3.976564 2.023437 c 0,0.276142 0.22386,0.5 0.5,0.5 0.27614,0 0.5,-0.223858 0.5,-0.5 v -1.359375 l 2.1875,1.75 c 0.2157,0.172725 0.5306,0.137733 0.70312,-0.07813 0.17274,-0.215689 0.13776,-0.530599 -0.0781,-0.703125 l -1.66016,-1.328125 c 0.42527,-0.131834 0.87551,-0.341093 1.23633,-0.710937 C 34.75127,37.707259 35,37.162392 35,36.508613 35,35.835003 34.75686,35.280654 34.39258,34.90119 34.02829,34.521728 33.57092,34.311849 33.14062,34.186347 32.28003,33.935341 31.45898,34.010565 31.45898,34.010565 Z M 32,35.055488 c 0.25144,3.83e-4 0.4426,-0.03171 0.85937,0.08984 0.31971,0.09325 0.61234,0.242745 0.81055,0.449219 C 33.86814,35.801021 34,36.057221 34,36.508609 c 0,0.421221 -0.12627,0.666198 -0.32617,0.871094 -0.1999,0.204896 -0.49743,0.359429 -0.82031,0.458984 C 32.43846,37.966662 32.25427,37.941631 32,37.950015 Z m -4,-1.050782 c -0.85834,0 -1.40467,0.62966 -1.66602,1.152345 -0.26134,0.522683 -0.32812,1.027343 -0.32812,1.027343 -0.004,0.02327 -0.006,0.04677 -0.006,0.07031 v 2.25 2 c 0,0.276142 0.22386,0.5 0.5,0.5 0.27614,0 0.5,-0.223858 0.5,-0.5 v -1.499997 h 2 v 1.5 c 0,0.276142 0.22386,0.5 0.5,0.5 0.27614,0 0.5,-0.223858 0.5,-0.5 v -2 -2.25 c -3.4e-4,-0.02355 -0.002,-0.04704 -0.006,-0.07031 0,0 -0.0668,-0.504661 -0.32812,-1.027343 C 29.40468,34.634367 28.85833,34.004706 28,34.004706 Z m 0,1.000001 c 0.39166,0 0.59533,0.24534 0.77148,0.597656 0.17187,0.343724 0.22576,0.687706 0.22852,0.705078 v 1.697266 h -2 v -1.697266 c 0.003,-0.01737 0.0566,-0.361355 0.22852,-0.705078 C 27.40467,35.250048 27.60833,35.004707 28,35.004707 Z M 21.45898,34.016425 C 21.19973,34.037795 21.00016,34.254346 21,34.514472 v 3.97461 2.025391 c 0,0.276142 0.22386,0.5 0.5,0.5 0.27614,0 0.5,-0.223858 0.5,-0.5 v -1.359375 l 2.1875,1.75 c 0.2157,0.172725 0.5306,0.137733 0.70312,-0.07813 0.17274,-0.215689 0.13776,-0.530599 -0.0781,-0.703125 l -1.66211,-1.328125 c 0.42597,-0.131782 0.87678,-0.342355 1.23828,-0.712891 C 24.75127,37.711166 25,37.168251 25,36.514473 25,35.840862 24.75686,35.28456 24.39258,34.905097 24.02829,34.525634 23.57092,34.315756 23.14062,34.190253 22.28003,33.939247 21.45898,34.016425 21.45898,34.016425 Z M 22,35.059394 c 0.25142,3.77e-4 0.44254,-0.03173 0.85937,0.08984 0.31971,0.09325 0.61234,0.242745 0.81055,0.449219 C 23.86814,35.804927 24,36.06308 24,36.514469 c 0,0.42122 -0.12627,0.664245 -0.32617,0.86914 -0.1999,0.204896 -0.49743,0.359429 -0.82031,0.458985 C 22.43846,37.970569 22.25427,37.945537 22,37.953922 Z"
       style="opacity:0.2;fill:#000000;stroke-linecap:round;stroke-linejoin:round;-inkscape-stroke:none"
       id="path2029" />
    <path
       d="M 31.45898,33.010565 C 31.19973,33.031935 31.00016,33.248486 31,33.508612 v 3.976563 2.023437 c 0,0.276142 0.22386,0.5 0.5,0.5 0.27614,0 0.5,-0.223858 0.5,-0.5 v -1.359375 l 2.1875,1.75 c 0.2157,0.172725 0.5306,0.137733 0.70312,-0.07813 0.17274,-0.215689 0.13776,-0.530599 -0.0781,-0.703125 L 33.15236,37.789857 C 33.57763,37.658023 34.02787,37.448764 34.38869,37.07892 34.75127,36.707258 35,36.162391 35,35.508612 35,34.835002 34.75686,34.280653 34.39258,33.90119 34.02829,33.521728 33.57092,33.311849 33.14062,33.186347 32.28003,32.935341 31.45898,33.010565 31.45898,33.010565 Z M 32,34.055487 c 0.25144,3.83e-4 0.4426,-0.03171 0.85937,0.08984 0.31971,0.09325 0.61234,0.242745 0.81055,0.449219 C 33.86814,34.80102 34,35.05722 34,35.508608 c 0,0.421221 -0.12627,0.666198 -0.32617,0.871094 -0.1999,0.204896 -0.49743,0.359429 -0.82031,0.458984 C 32.43846,36.966661 32.25427,36.94163 32,36.950014 Z m -4,-1.050781 c -0.85834,0 -1.40467,0.62966 -1.66602,1.152344 -0.26134,0.522683 -0.32812,1.027343 -0.32812,1.027343 -0.004,0.02327 -0.006,0.04677 -0.006,0.07031 v 2.25 2 c 0,0.276142 0.22386,0.5 0.5,0.5 0.27614,0 0.5,-0.223858 0.5,-0.5 v -1.499997 h 2 v 1.5 c 0,0.276142 0.22386,0.5 0.5,0.5 0.27614,0 0.5,-0.223858 0.5,-0.5 v -2 -2.25 c -3.4e-4,-0.02355 -0.002,-0.04704 -0.006,-0.07031 0,0 -0.0668,-0.504661 -0.32812,-1.027343 C 29.40468,33.634367 28.85833,33.004706 28,33.004706 Z m 0,1 c 0.39166,0 0.59533,0.24534 0.77148,0.597656 0.17187,0.343724 0.22576,0.687706 0.22852,0.705078 v 1.697266 H 27 V 35.30744 c 0.003,-0.01737 0.0566,-0.361355 0.22852,-0.705078 C 27.40467,34.250047 27.60833,34.004706 28,34.004706 Z M 21.45898,33.016425 C 21.19973,33.037795 21.00016,33.254346 21,33.514472 v 3.974609 2.025391 c 0,0.276142 0.22386,0.5 0.5,0.5 0.27614,0 0.5,-0.223858 0.5,-0.5 v -1.359375 l 2.1875,1.75 c 0.2157,0.172725 0.5306,0.137733 0.70312,-0.07813 0.17274,-0.215689 0.13776,-0.530599 -0.0781,-0.703125 l -1.66211,-1.328125 c 0.42597,-0.131782 0.87678,-0.342355 1.23828,-0.712891 C 24.75127,36.711165 25,36.16825 25,35.514472 25,34.840861 24.75686,34.284559 24.39258,33.905097 24.02829,33.525634 23.57092,33.315756 23.14062,33.190253 22.28003,32.939247 21.45898,33.016425 21.45898,33.016425 Z M 22,34.059393 c 0.25142,3.77e-4 0.44254,-0.03173 0.85937,0.08984 0.31971,0.09325 0.61234,0.242745 0.81055,0.449219 C 23.86814,34.804926 24,35.063079 24,35.514468 c 0,0.42122 -0.12627,0.664245 -0.32617,0.86914 -0.1999,0.204896 -0.49743,0.359429 -0.82031,0.458985 C 22.43846,36.970568 22.25427,36.945536 22,36.953921 Z"
       style="fill:#ffffff;stroke-linecap:round;stroke-linejoin:round;-inkscape-stroke:none"
       id="path1948" />
    <path
       id="rect750"
       style="opacity:0.1;fill:#ffffff;fill-opacity:1;stroke-width:1.5;stroke-linecap:square"
       d="M 19.5,32 C 18.669,32 18,32.669001 18,33.5 v 1 C 18,33.669001 18.669,33 19.5,33 h 17 c 0.830999,0 1.5,0.669001 1.5,1.5 v -1 C 38,32.669001 37.330999,32 36.5,32 Z" />
  </g>
</svg>
