<?xml version="1.0" encoding="UTF-8" standalone="no"?>
<!-- Created with Inkscape (http://www.inkscape.org/) -->

<svg
   width="32"
   height="32"
   viewBox="0 0 32 32.000002"
   version="1.1"
   id="svg5"
   inkscape:version="1.3 (1:1.3+202307231459+0e150ed6c4)"
   sodipodi:docname="application-json.svg"
   xmlns:inkscape="http://www.inkscape.org/namespaces/inkscape"
   xmlns:sodipodi="http://sodipodi.sourceforge.net/DTD/sodipodi-0.dtd"
   xmlns="http://www.w3.org/2000/svg"
   xmlns:svg="http://www.w3.org/2000/svg">
  <sodipodi:namedview
     id="namedview7"
     pagecolor="#ffffff"
     bordercolor="#000000"
     borderopacity="0.25"
     inkscape:showpageshadow="2"
     inkscape:pageopacity="0.0"
     inkscape:pagecheckerboard="0"
     inkscape:deskcolor="#d1d1d1"
     inkscape:document-units="px"
     showgrid="false"
     inkscape:zoom="22.53125"
     inkscape:cx="16"
     inkscape:cy="16"
     inkscape:window-width="1920"
     inkscape:window-height="1008"
     inkscape:window-x="0"
     inkscape:window-y="0"
     inkscape:window-maximized="1"
     inkscape:current-layer="svg5" />
  <defs
     id="defs2" />
  <path
     id="rect234"
     style="opacity:0.2;stroke-width:0.5;stroke-linecap:round;stroke-linejoin:round"
     d="m 7,3 h 12 l 8,8 v 18 c 0,1.108 -0.892,2 -2,2 H 7 C 5.892,31 5,30.108 5,29 V 5 C 5,3.892 5.892,3 7,3 Z" />
  <path
     id="rect448"
     style="fill:#e0e0e0;fill-opacity:1;stroke-width:0.5;stroke-linecap:round;stroke-linejoin:round"
     d="m 7,2 h 12 l 3,5 5,3 v 18 c 0,1.108 -0.892,2 -2,2 H 7 C 5.892,30 5,29.108 5,28 V 4 C 5,2.892 5.892,2 7,2 Z" />
  <path
     d="m 14.228962,15.000115 c -0.0189,-2.36e-4 -0.0378,4.15e-4 -0.0566,0.002 -0.0539,0.0033 -0.10713,0.0138 -0.1582,0.03125 0,0 -0.37435,0.12296 -0.8086,0.349609 -0.43422,0.22665 -0.96128,0.544797 -1.30078,1.089844 -0.37789,0.606598 -0.23471,1.256181 -0.11719,1.644532 0.11752,0.388359 0.18082,0.558324 0.0723,0.818359 -0.053,0.126977 -0.37702,0.403347 -0.73242,0.576172 -0.35564,0.172856 -0.67773,0.263672 -0.67773,0.263672 -0.32264,0.08295 -0.5149202,0.411307 -0.42774,0.730468 -0.076,0.313408 0.11383,0.629749 0.42774,0.712891 0,0 0.32234,0.09085 0.67773,0.263672 0.35541,0.172816 0.67943,0.451149 0.73242,0.578125 0.10855,0.260006 0.0453,0.429969 -0.0723,0.818359 -0.11752,0.388359 -0.2607,1.037835 0.11719,1.644532 0.33952,0.545037 0.86656,0.86121 1.30078,1.08789 0.43422,0.226649 0.8086,0.34961 0.8086,0.34961 0.77533,0.285866 1.17072,-0.896206 0.37695,-1.126954 0,0 -0.28393,-0.09438 -0.62695,-0.273437 -0.34304,-0.179047 -0.71017,-0.45584 -0.83985,-0.664063 -0.14672,-0.235526 -0.0993,-0.317222 0.01,-0.677734 0.1091,-0.360521 0.30652,-0.958615 0.0332,-1.613281 -0.24205,-0.579761 -0.72558,-0.886102 -1.1582,-1.107422 0.43256,-0.22129 0.91609,-0.529585 1.1582,-1.109375 0.27332,-0.654656 0.0759,-1.25277 -0.0332,-1.613281 -0.1091,-0.360521 -0.15647,-0.442219 -0.01,-0.677735 0.1297,-0.208213 0.49685,-0.484996 0.83985,-0.664062 0.34304,-0.179048 0.62695,-0.273438 0.62695,-0.273438 0.64164,-0.201303 0.5124,-1.137523 -0.16016,-1.160203 z m 3.53906,0 c -0.6716,0.02461 -0.79907,0.959384 -0.1582,1.160156 0,0 0.28391,0.09439 0.62695,0.273438 0.343,0.179057 0.71015,0.45584 0.83985,0.664062 0.14671,0.235517 0.0993,0.317213 -0.01,0.677735 -0.1091,0.360501 -0.30653,0.960567 -0.0332,1.615234 0.24206,0.57974 0.7256,0.886092 1.1582,1.107422 -0.43257,0.22127 -0.9161,0.527612 -1.1582,1.107422 -0.27331,0.654657 -0.0759,1.25277 0.0332,1.613281 0.1091,0.360511 0.15648,0.442208 0.01,0.677734 -0.12968,0.208223 -0.49682,0.485016 -0.83985,0.664063 -0.34302,0.179057 -0.62695,0.273437 -0.62695,0.273437 -0.79377,0.230748 -0.39838,1.41282 0.37695,1.126954 0,0 0.37438,-0.12296 0.8086,-0.34961 0.43419,-0.226669 0.96123,-0.542853 1.30078,-1.08789 0.37789,-0.606658 0.2347,-1.256083 0.11719,-1.644532 -0.11752,-0.388389 -0.18082,-0.558353 -0.0723,-0.818359 0.053,-0.126977 0.37701,-0.40531 0.73242,-0.578125 0.35539,-0.172816 0.67773,-0.263672 0.67773,-0.263672 0.31391,-0.08314 0.50372,-0.399483 0.42774,-0.712891 0.0872,-0.319161 -0.1051,-0.647522 -0.42774,-0.730468 0,0 -0.32209,-0.09082 -0.67773,-0.263672 -0.3554,-0.172816 -0.67942,-0.449195 -0.73242,-0.576172 -0.10856,-0.260036 -0.0453,-0.429999 0.0723,-0.818359 0.11751,-0.38836 0.26071,-1.037934 -0.11719,-1.644532 -0.33947,-0.545037 -0.86653,-0.863184 -1.30078,-1.089844 -0.43424,-0.226649 -0.81055,-0.349609 -0.81055,-0.349609 -0.0505,-0.01728 -0.103,-0.02779 -0.15625,-0.03125 -0.0195,-0.0016 -0.039,-0.002 -0.0586,-0.002 h -0.002 z"
     style="fill:#1c59a5;fill-opacity:1;fill-rule:evenodd"
     id="path1045" />
  <path
     d="M 27,11 H 21 C 19.892,11 19,10.108 19,9 V 2 l 8,8 z"
     style="opacity:0.2;fill:#000000;stroke-width:0.5;stroke-linecap:round;stroke-linejoin:round"
     id="path611" />
  <path
     id="rect600"
     style="fill:#f5f5f5;fill-opacity:1;stroke-width:0.5;stroke-linecap:round;stroke-linejoin:round"
     d="M 27,10 H 21 C 19.892,10 19,9.108 19,8 V 2 Z" />
  <path
     id="path1133"
     style="opacity:0.2;fill:#ffffff;fill-opacity:1;stroke-width:0.5;stroke-linecap:round;stroke-linejoin:round"
     d="M 7,2 C 5.892002,2 5,2.8920022 5,4 V 5 C 5,3.8920021 5.892002,3 7,3 h 12 l 7,7 h 1 L 19,2 Z" />
</svg>
