<?xml version="1.0" encoding="UTF-8" standalone="no"?>
<!-- Created with Inkscape (http://www.inkscape.org/) -->

<svg
   width="32"
   height="32"
   viewBox="0 0 32 32.000002"
   version="1.1"
   id="svg5"
   inkscape:version="1.2.2 (1:1.2.2+202305151914+b0a8486541)"
   sodipodi:docname="audio-x-generic.svg"
   xmlns:inkscape="http://www.inkscape.org/namespaces/inkscape"
   xmlns:sodipodi="http://sodipodi.sourceforge.net/DTD/sodipodi-0.dtd"
   xmlns="http://www.w3.org/2000/svg"
   xmlns:svg="http://www.w3.org/2000/svg">
  <sodipodi:namedview
     id="namedview7"
     pagecolor="#ffffff"
     bordercolor="#000000"
     borderopacity="0.25"
     inkscape:showpageshadow="2"
     inkscape:pageopacity="0.0"
     inkscape:pagecheckerboard="0"
     inkscape:deskcolor="#d1d1d1"
     inkscape:document-units="px"
     showgrid="false"
     inkscape:zoom="25.1875"
     inkscape:cx="15.980149"
     inkscape:cy="16"
     inkscape:window-width="1920"
     inkscape:window-height="1008"
     inkscape:window-x="0"
     inkscape:window-y="0"
     inkscape:window-maximized="1"
     inkscape:current-layer="svg5" />
  <defs
     id="defs2" />
  <path
     id="rect234"
     style="opacity:0.2;stroke-width:0.5;stroke-linecap:round;stroke-linejoin:round"
     d="m 7,3 h 12 l 8,8 v 18 c 0,1.108 -0.892,2 -2,2 H 7 C 5.892,31 5,30.108 5,29 V 5 C 5,3.892 5.892,3 7,3 Z" />
  <path
     id="rect448"
     style="fill:#e0e0e0;fill-opacity:1;stroke-width:0.5;stroke-linecap:round;stroke-linejoin:round"
     d="m 7,2 h 12 l 3,5 5,3 v 18 c 0,1.108 -0.892,2 -2,2 H 7 C 5.892,30 5,29.108 5,28 V 4 C 5,2.892 5.892,2 7,2 Z" />
  <path
     d="m 13,15 v 7.50195 C 12.5675,22.1767 12.04115,22.00056 11.5,22 10.11929,22 9,23.11929 9,24.5 9,25.88071 10.11929,27 11.5,27 12.88071,27 14,25.88071 14,24.5 V 17 h 7 v 5.50195 C 20.5675,22.1767 20.04115,22.00056 19.5,22 18.11929,22 17,23.11929 17,24.5 17,25.88071 18.11929,27 19.5,27 20.88071,27 22,25.88071 22,24.5 V 15"
     style="opacity:0.2;fill:#000000;fill-opacity:1;stroke:none;stroke-width:4.16667;stroke-linecap:round;stroke-linejoin:round"
     id="path2464"
     sodipodi:nodetypes="cccsssccccsssc" />
  <path
     d="m 13,14 v 7.50195 C 12.5675,21.1767 12.04115,21.00056 11.5,21 10.11929,21 9,22.11929 9,23.5 9,24.88071 10.11929,26 11.5,26 12.88071,26 14,24.88071 14,23.5 V 16 h 7 v 5.50195 C 20.5675,21.1767 20.04115,21.00056 19.5,21 18.11929,21 17,22.11929 17,23.5 17,24.88071 18.11929,26 19.5,26 20.88071,26 22,24.88071 22,23.5 V 14"
     style="fill:#ff9800;fill-opacity:1;stroke:none;stroke-width:4.16667;stroke-linecap:round;stroke-linejoin:round"
     id="path2492"
     sodipodi:nodetypes="cccsssccccsssc" />
  <path
     d="M 27,11 H 21 C 19.892,11 19,10.108 19,9 V 2 l 8,8 z"
     style="opacity:0.2;fill:#000000;stroke-width:0.5;stroke-linecap:round;stroke-linejoin:round"
     id="path611" />
  <path
     id="rect600"
     style="fill:#f5f5f5;fill-opacity:1;stroke-width:0.5;stroke-linecap:round;stroke-linejoin:round"
     d="M 27,10 H 21 C 19.892,10 19,9.108 19,8 V 2 Z" />
  <path
     id="path1133"
     style="opacity:0.2;fill:#ffffff;fill-opacity:1;stroke-width:0.5;stroke-linecap:round;stroke-linejoin:round"
     d="M 7,2 C 5.892002,2 5,2.8920022 5,4 V 5 C 5,3.8920021 5.892002,3 7,3 h 12 l 7,7 h 1 L 19,2 Z" />
</svg>
