<?xml version="1.0" encoding="UTF-8" standalone="no"?>
<!-- Created with Inkscape (http://www.inkscape.org/) -->

<svg
   width="32"
   height="32"
   viewBox="0 0 32 32.000002"
   version="1.1"
   id="svg5"
   inkscape:version="1.3 (0e150ed6c4, 2023-07-21)"
   sodipodi:docname="inode-symlink.svg"
   xmlns:inkscape="http://www.inkscape.org/namespaces/inkscape"
   xmlns:sodipodi="http://sodipodi.sourceforge.net/DTD/sodipodi-0.dtd"
   xmlns="http://www.w3.org/2000/svg"
   xmlns:svg="http://www.w3.org/2000/svg">
  <sodipodi:namedview
     id="namedview7"
     pagecolor="#ffffff"
     bordercolor="#000000"
     borderopacity="0.25"
     inkscape:showpageshadow="2"
     inkscape:pageopacity="0.0"
     inkscape:pagecheckerboard="0"
     inkscape:deskcolor="#d1d1d1"
     inkscape:document-units="px"
     showgrid="false"
     inkscape:zoom="24.46875"
     inkscape:cx="16"
     inkscape:cy="16"
     inkscape:window-width="1920"
     inkscape:window-height="984"
     inkscape:window-x="0"
     inkscape:window-y="29"
     inkscape:window-maximized="1"
     inkscape:current-layer="svg5" />
  <defs
     id="defs2" />
  <path
     id="rect234"
     style="opacity:0.2;stroke-width:0.5;stroke-linecap:round;stroke-linejoin:round"
     d="m 7,3 h 12 l 8,8 v 18 c 0,1.108 -0.892,2 -2,2 H 7 C 5.892,31 5,30.108 5,29 V 5 C 5,3.892 5.892,3 7,3 Z" />
  <path
     id="rect448"
     style="fill:#4f6772;fill-opacity:1;stroke-width:0.5;stroke-linecap:round;stroke-linejoin:round"
     d="m 7,2 h 12 l 3,5 5,3 v 18 c 0,1.108 -0.892,2 -2,2 H 7 C 5.892,30 5,29.108 5,28 V 4 C 5,2.892 5.892,2 7,2 Z" />
  <path
     style="opacity:0.2;fill:#000000"
     d="m 12,13.999997 0.545673,0.564281 c 0.412627,0.468865 0.877418,0.894489 1.301682,1.352285 0.0047,0.0043 0.01191,0.0069 0.01683,0.01119 l 0.688702,0.712188 c -1.198143,1.260054 -2.570992,3.431258 -2.549279,5.205305 -0.04756,1.18103 0.41033,2.324867 1.141827,3.229079 1.189694,1.473234 2.970523,2.346137 4.770432,2.775417 0.259329,0.06256 1.582673,0.340216 0.858172,-0.06836 -1.242137,-0.605727 -2.568523,-1.291092 -3.262017,-2.565365 -0.757785,-1.208233 -0.23237,-2.944159 0.58774,-4.179905 0.346415,-0.448452 0.784051,-1.117108 1.254807,-1.498949 L 20,22.2728 v -4.302951 -3.969852 h -0.0025 z"
     id="path5" />
  <path
     style="fill:#ffffff"
     d="m 12,13 0.545673,0.564281 c 0.412627,0.468865 0.877418,0.894489 1.301682,1.352285 0.0047,0.0043 0.01191,0.0069 0.01683,0.01119 l 0.688702,0.712188 c -1.198143,1.260054 -2.570992,3.431258 -2.549279,5.205305 -0.04756,1.18103 0.41033,2.324867 1.141827,3.229079 1.189694,1.473234 2.970523,2.346137 4.770432,2.775417 0.259329,0.06256 1.582673,0.340216 0.858172,-0.06836 -1.242137,-0.605727 -2.568523,-1.291092 -3.262017,-2.565365 -0.757785,-1.208233 -0.23237,-2.944159 0.58774,-4.179905 0.346415,-0.448452 0.784051,-1.117108 1.254807,-1.498949 L 20,21.272803 V 16.969852 13 h -0.0025 z"
     id="path6" />
  <path
     d="M 27,11 H 21 C 19.892,11 19,10.108 19,9 V 2 l 8,8 z"
     style="opacity:0.2;fill:#000000;stroke-width:0.5;stroke-linecap:round;stroke-linejoin:round"
     id="path611" />
  <path
     id="rect600"
     style="fill:#839ea9;fill-opacity:1;stroke-width:0.5;stroke-linecap:round;stroke-linejoin:round"
     d="M 27,10 H 21 C 19.892,10 19,9.108 19,8 V 2 Z" />
  <path
     id="path1133"
     style="opacity:0.1;fill:#ffffff;fill-opacity:1;stroke-width:0.5;stroke-linecap:round;stroke-linejoin:round"
     d="M 7,2 C 5.892002,2 5,2.8920022 5,4 V 5 C 5,3.8920021 5.892002,3 7,3 h 12 l 7,7 h 1 L 19,2 Z" />
</svg>
