<?xml version="1.0" encoding="UTF-8" standalone="no"?>
<!-- Created with Inkscape (http://www.inkscape.org/) -->

<svg
   width="32"
   height="32"
   viewBox="0 0 32 32.000002"
   version="1.1"
   id="svg5"
   inkscape:version="1.3 (0e150ed6c4, 2023-07-21)"
   sodipodi:docname="text-enriched.svg"
   xmlns:inkscape="http://www.inkscape.org/namespaces/inkscape"
   xmlns:sodipodi="http://sodipodi.sourceforge.net/DTD/sodipodi-0.dtd"
   xmlns="http://www.w3.org/2000/svg"
   xmlns:svg="http://www.w3.org/2000/svg">
  <sodipodi:namedview
     id="namedview7"
     pagecolor="#ffffff"
     bordercolor="#000000"
     borderopacity="0.25"
     inkscape:showpageshadow="2"
     inkscape:pageopacity="0.0"
     inkscape:pagecheckerboard="0"
     inkscape:deskcolor="#d1d1d1"
     inkscape:document-units="px"
     showgrid="false"
     inkscape:zoom="25.1875"
     inkscape:cx="15.980149"
     inkscape:cy="15.980149"
     inkscape:window-width="1850"
     inkscape:window-height="1011"
     inkscape:window-x="70"
     inkscape:window-y="32"
     inkscape:window-maximized="1"
     inkscape:current-layer="svg5" />
  <defs
     id="defs2" />
  <path
     id="rect234"
     style="opacity:0.2;stroke-width:0.5;stroke-linecap:round;stroke-linejoin:round"
     d="m 7,3 h 12 l 8,8 v 18 c 0,1.108 -0.892,2 -2,2 H 7 C 5.892,31 5,30.108 5,29 V 5 C 5,3.892 5.892,3 7,3 Z" />
  <path
     id="rect448"
     style="fill:#e0e0e0;fill-opacity:1;stroke-width:0.5;stroke-linecap:round;stroke-linejoin:round"
     d="m 7,2 h 12 l 3,5 5,3 v 18 c 0,1.108 -0.892,2 -2,2 H 7 C 5.892,30 5,29.108 5,28 V 4 C 5,2.892 5.892,2 7,2 Z" />
  <path
     id="path2519"
     style="opacity:0.2;fill:#000000;fill-opacity:1;stroke-width:0.5"
     d="M 11.5,16 9,22 h 1 l 0.83398,-2 h 2.33204 L 14,22 h 1 l -2.5,-6 z m 5.5,1 v 1 h 6 V 17 Z M 12,17.199219 12.75,19 h -1.5 z M 17,20 v 1 h 6 v -1 z m -8,4 v 1 h 10 v -1 z" />
  <path
     id="path2408"
     style="fill:#757575;fill-opacity:1;stroke-width:0.5"
     d="M 11.5 15 L 9 21 L 10 21 L 10.833984 19 L 13.166016 19 L 14 21 L 15 21 L 12.5 15 L 11.5 15 z M 17 16 L 17 17 L 23 17 L 23 16 L 17 16 z M 12 16.199219 L 12.75 18 L 11.25 18 L 12 16.199219 z M 17 19 L 17 20 L 23 20 L 23 19 L 17 19 z M 9 23 L 9 24 L 19 24 L 19 23 L 9 23 z " />
  <path
     d="M 27,11 H 21 C 19.892,11 19,10.108 19,9 V 2 l 8,8 z"
     style="opacity:0.2;fill:#000000;stroke-width:0.5;stroke-linecap:round;stroke-linejoin:round"
     id="path611" />
  <path
     id="rect600"
     style="fill:#f5f5f5;fill-opacity:1;stroke-width:0.5;stroke-linecap:round;stroke-linejoin:round"
     d="M 27,10 H 21 C 19.892,10 19,9.108 19,8 V 2 Z" />
  <path
     id="path1133"
     style="opacity:0.2;fill:#ffffff;fill-opacity:1;stroke-width:0.5;stroke-linecap:round;stroke-linejoin:round"
     d="M 7,2 C 5.892002,2 5,2.8920022 5,4 V 5 C 5,3.8920021 5.892002,3 7,3 h 12 l 7,7 h 1 L 19,2 Z" />
</svg>
