<?xml version="1.0" encoding="UTF-8" standalone="no"?>
<svg
   width="16"
   height="16"
   version="1.1"
   id="svg1"
   sodipodi:docname="timer-symbolic.svg"
   inkscape:version="1.4.3 (0d15f75042, 2025-12-25)"
   xmlns:inkscape="http://www.inkscape.org/namespaces/inkscape"
   xmlns:sodipodi="http://sodipodi.sourceforge.net/DTD/sodipodi-0.dtd"
   xmlns="http://www.w3.org/2000/svg"
   xmlns:svg="http://www.w3.org/2000/svg">
  <defs
     id="defs1">
    <style
       id="current-color-scheme"
       type="text/css">
        .ColorScheme-Text { color:#4d4d4d; } .ColorScheme-Highlight { color:#4285f4; } .ColorScheme-NeutralText { color:#ff9800; } .ColorScheme-PositiveText { color:#4caf50; } .ColorScheme-NegativeText { color:#f44336; }
     </style>
  </defs>
  <sodipodi:namedview
     id="namedview1"
     pagecolor="#ffffff"
     bordercolor="#000000"
     borderopacity="0.25"
     inkscape:showpageshadow="2"
     inkscape:pageopacity="0.0"
     inkscape:pagecheckerboard="0"
     inkscape:deskcolor="#d1d1d1"
     inkscape:zoom="51.9375"
     inkscape:cx="8.2888087"
     inkscape:cy="8"
     inkscape:window-width="1920"
     inkscape:window-height="1012"
     inkscape:window-x="0"
     inkscape:window-y="0"
     inkscape:window-maximized="1"
     inkscape:current-layer="svg1" />
  <path
     id="path1"
     style="fill:currentColor"
     class="ColorScheme-Text"
     d="M 2 1 C 1.446 1 1 1.446 1 2 L 1 3 L 2 3 L 2 6.2070312 L 4 8.2070312 L 4 8.7929688 L 2 10.792969 L 2 13 L 1 13 L 1 14 C 1 14.554 1.446 15 2 15 L 14 15 C 14.554 15 15 14.554 15 14 L 15 13 L 14 13 L 14 10.792969 L 12 8.7929688 L 12 8.2070312 L 14 6.2070312 L 14 3 L 15 3 L 15 2 C 15 1.446 14.554 1 14 1 L 2 1 z M 4 3 L 12 3 L 12 5.7929688 L 10 7.7929688 L 10 9.2070312 L 12 11.207031 L 12 13 L 10 13 L 9 12 L 7 12 L 6 13 L 4 13 L 4 11.207031 L 6 9.2070312 L 6 7.7929688 L 4 5.7929688 L 4 3 z M 5 5 L 7 7 L 9 7 L 11 5 L 5 5 z " />
</svg>
