<?xml version="1.0" encoding="UTF-8" standalone="no"?>
<svg
   width="22"
   height="22"
   version="1.1"
   id="svg4"
   sodipodi:docname="libreoffice-impress-symbolic.svg"
   inkscape:version="1.4.3 (0d15f75042, 2025-12-25)"
   xmlns:inkscape="http://www.inkscape.org/namespaces/inkscape"
   xmlns:sodipodi="http://sodipodi.sourceforge.net/DTD/sodipodi-0.dtd"
   xmlns="http://www.w3.org/2000/svg"
   xmlns:svg="http://www.w3.org/2000/svg">
  <defs
     id="defs4">
    <style
       id="current-color-scheme"
       type="text/css">
        .ColorScheme-Text { color:#4d4d4d; } .ColorScheme-Highlight { color:#4285f4; } .ColorScheme-NeutralText { color:#ff9800; } .ColorScheme-PositiveText { color:#4caf50; } .ColorScheme-NegativeText { color:#f44336; }
     </style>
  </defs>
  <sodipodi:namedview
     id="namedview4"
     pagecolor="#ffffff"
     bordercolor="#000000"
     borderopacity="0.25"
     inkscape:showpageshadow="2"
     inkscape:pageopacity="0.0"
     inkscape:pagecheckerboard="0"
     inkscape:deskcolor="#d1d1d1"
     inkscape:zoom="26.363636"
     inkscape:cx="10.981034"
     inkscape:cy="11"
     inkscape:window-width="1440"
     inkscape:window-height="828"
     inkscape:window-x="0"
     inkscape:window-y="0"
     inkscape:window-maximized="1"
     inkscape:current-layer="svg4" />
  <path
     id="path1"
     style="fill:currentColor"
     class="ColorScheme-Text"
     d="M 7.5,11 C 7.22,11 7,11.22 7,11.5 v 4 C 7,15.78 7.22,16 7.5,16 h 7 c 0.28,0 0.5,-0.22 0.5,-0.5 v -4 C 15,11.22 14.78,11 14.5,11 Z m 1,1 C 8.78,12 9,12.22 9,12.5 9,12.78 8.78,13 8.5,13 8.22,13 8,12.78 8,12.5 8,12.22 8.22,12 8.5,12 Z m 2,0 h 3 c 0.28,0 0.5,0.22 0.5,0.5 0,0.28 -0.22,0.5 -0.5,0.5 h -3 C 10.22,13 10,12.78 10,12.5 10,12.22 10.22,12 10.5,12 Z m -2,2 C 8.78,14 9,14.22 9,14.5 9,14.78 8.78,15 8.5,15 8.22,15 8,14.78 8,14.5 8,14.22 8.22,14 8.5,14 Z m 2,0 h 3 c 0.28,0 0.5,0.22 0.5,0.5 0,0.28 -0.22,0.5 -0.5,0.5 h -3 C 10.22,15 10,14.78 10,14.5 10,14.22 10.22,14 10.5,14 Z" />
  <path
     id="path2"
     style="fill:currentColor"
     class="ColorScheme-Text"
     d="M 5,3 C 4.4477,3 4,3.44772 4,4 v 14 c 0,0.552 0.4477,1 1,1 h 12 c 0.556,0 1,-0.452 1,-1 V 10.5 C 18,10.2426 17.878453,9.878053 17.689453,9.689453 L 11.279297,3.2753906 C 11.091797,3.0878506 10.7701,3 10.5,3 Z m 9.5,0 c -0.552,0 -0.692516,0.5145956 -0.353516,0.8535156 l 3,3 C 17.497484,7.2041156 18,6.942 18,6.5 v -3 C 18,3.21996 17.78,3 17.5,3 Z M 6,5 h 4 l 6,6 v 6 H 6 Z" />
</svg>
