<?xml version="1.0" encoding="UTF-8" standalone="no"?>
<!-- Created with Inkscape (http://www.inkscape.org/) -->

<svg
   width="22"
   height="22"
   viewBox="0 0 22 22"
   version="1.1"
   id="svg5"
   inkscape:version="1.4.3 (0d15f75042, 2025-12-25)"
   sodipodi:docname="preferences-system-sharing-symbolic.svg"
   xmlns:inkscape="http://www.inkscape.org/namespaces/inkscape"
   xmlns:sodipodi="http://sodipodi.sourceforge.net/DTD/sodipodi-0.dtd"
   xmlns="http://www.w3.org/2000/svg"
   xmlns:svg="http://www.w3.org/2000/svg">
  <sodipodi:namedview
     id="namedview7"
     pagecolor="#ffffff"
     bordercolor="#000000"
     borderopacity="0.25"
     inkscape:showpageshadow="2"
     inkscape:pageopacity="0.0"
     inkscape:pagecheckerboard="0"
     inkscape:deskcolor="#d1d1d1"
     inkscape:document-units="px"
     showgrid="false"
     inkscape:zoom="26.363636"
     inkscape:cx="10.981034"
     inkscape:cy="11"
     inkscape:window-width="1440"
     inkscape:window-height="828"
     inkscape:window-x="0"
     inkscape:window-y="0"
     inkscape:window-maximized="1"
     inkscape:current-layer="svg5" />
  <defs
     id="defs2">
    <style
       id="current-color-scheme"
       type="text/css">
        .ColorScheme-Text { color:#4d4d4d; } .ColorScheme-Highlight { color:#4285f4; } .ColorScheme-NeutralText { color:#ff9800; } .ColorScheme-PositiveText { color:#4caf50; } .ColorScheme-NegativeText { color:#f44336; }
     </style>
  </defs>
  <path
     id="path345"
     style="fill:currentColor;fill-opacity:1"
     class="ColorScheme-Text"
     d="m 15,3 c -1.659998,0 -3,1.3500017 -3,3 0,0.2299997 0.03984,0.4401565 0.08984,0.6601562 l -3.2207032,2 C 8.3591411,8.2501567 7.7099993,8 7,8 5.3400017,8 4,9.350002 4,11 c 0,1.659999 1.3400017,3 3,3 0.7099993,0 1.3608599,-0.240391 1.8808594,-0.650391 l 3.2089846,2 C 12.039844,15.559609 12,15.77 12,16 c 0,1.659998 1.340002,3 3,3 1.659998,0 3,-1.340002 3,-3 0,-1.649998 -1.340002,-3 -3,-3 -0.709999,0 -1.359141,0.250157 -1.869141,0.660156 l -3.220703,-2 C 9.960156,11.440157 10,11.23 10,11 10,10.77 9.96016,10.559609 9.91016,10.349609 L 13.130859,8.3496094 C 13.640859,8.759609 14.290001,9 15,9 16.659998,9 18,7.6599983 18,6 18,4.3500017 16.659998,3 15,3 Z m 0,2 a 1,1 0 0 1 1,1 1,1 0 0 1 -1,1 1,1 0 0 1 -1,-1 1,1 0 0 1 1,-1 z m -8,5 a 1,1 0 0 1 1,1 1,1 0 0 1 -1,1 1,1 0 0 1 -1,-1 1,1 0 0 1 1,-1 z m 8,5 a 1,1 0 0 1 1,1 1,1 0 0 1 -1,1 1,1 0 0 1 -1,-1 1,1 0 0 1 1,-1 z" />
</svg>
