<?xml version="1.0" encoding="UTF-8" standalone="no"?>
<!-- Created with Inkscape (http://www.inkscape.org/) -->

<svg
   width="22"
   height="22"
   viewBox="0 0 22 22"
   version="1.1"
   id="svg5"
   inkscape:version="1.4.3 (0d15f75042, 2025-12-25)"
   sodipodi:docname="system-users-symbolic.svg"
   xmlns:inkscape="http://www.inkscape.org/namespaces/inkscape"
   xmlns:sodipodi="http://sodipodi.sourceforge.net/DTD/sodipodi-0.dtd"
   xmlns="http://www.w3.org/2000/svg"
   xmlns:svg="http://www.w3.org/2000/svg">
  <sodipodi:namedview
     id="namedview7"
     pagecolor="#ffffff"
     bordercolor="#000000"
     borderopacity="0.25"
     inkscape:showpageshadow="2"
     inkscape:pageopacity="0.0"
     inkscape:pagecheckerboard="0"
     inkscape:deskcolor="#d1d1d1"
     inkscape:document-units="px"
     showgrid="false"
     inkscape:zoom="26.363636"
     inkscape:cx="10.981034"
     inkscape:cy="11"
     inkscape:window-width="1440"
     inkscape:window-height="828"
     inkscape:window-x="0"
     inkscape:window-y="0"
     inkscape:window-maximized="1"
     inkscape:current-layer="svg5"
     showguides="true" />
  <defs
     id="defs2">
    <style
       id="current-color-scheme"
       type="text/css">
        .ColorScheme-Text { color:#4d4d4d; } .ColorScheme-Highlight { color:#4285f4; } .ColorScheme-NeutralText { color:#ff9800; } .ColorScheme-PositiveText { color:#4caf50; } .ColorScheme-NegativeText { color:#f44336; }
     </style>
  </defs>
  <path
     d="m 14,4 c 1.3789,0 2.5,1.1211 2.5,2.5 0,1.3788999 -1.1211,2.4999999 -2.5,2.4999999 -1.3789,0 -2.5,-1.1211 -2.5,-2.4999999 C 11.5,5.1211 12.6211,4 14,4 Z M 8,6.9999999 c 1.3789,0 2.5,1.1211 2.5,2.5000001 C 10.5,10.8789 9.3789,12 8,12 6.6211,12 5.5,10.8789 5.5,9.5 5.5,8.1210999 6.6211,6.9999999 8,6.9999999 Z M 16,10 c 1.6601,0 3,1.3399 3,3 v 3 h -5.0742 c 0,-0.72989 -0.20391,-1.4129 -0.55469,-2 h 3.6289 v -1 c 0,-0.554 -0.446,-1 -1,-1 h -5.5645 c 0.53753,-0.5217 0.89937,-1.2067 1.0176,-1.9492 0.17578,-0.03125 0.35938,-0.05078 0.54688,-0.05078 h 4 z m -6,3 c 1.6601,0 3,1.3399 3,3 v 3 H 3 v -3 c 0,-1.6601 1.3399,-3 3,-3 z m 0,2 H 6 c -0.554,0 -1,0.446 -1,1 v 1 h 6 v -1 c 0,-0.554 -0.446,-1 -1,-1 z"
     style="fill:currentColor;fill-opacity:1"
     class="ColorScheme-Text"
     id="path296" />
</svg>
