<?xml version="1.0" encoding="UTF-8" standalone="no"?>
<!-- Created with Inkscape (http://www.inkscape.org/) -->

<svg
   width="64"
   height="64"
   viewBox="0 0 64 64"
   version="1.1"
   id="svg5"
   inkscape:version="1.4 (e7c3feb100, 2024-10-09)"
   sodipodi:docname="ark.svg"
   xmlns:inkscape="http://www.inkscape.org/namespaces/inkscape"
   xmlns:sodipodi="http://sodipodi.sourceforge.net/DTD/sodipodi-0.dtd"
   xmlns="http://www.w3.org/2000/svg"
   xmlns:svg="http://www.w3.org/2000/svg">
  <sodipodi:namedview
     id="namedview7"
     pagecolor="#ffffff"
     bordercolor="#000000"
     borderopacity="0.25"
     inkscape:showpageshadow="2"
     inkscape:pageopacity="0.0"
     inkscape:pagecheckerboard="0"
     inkscape:deskcolor="#d1d1d1"
     inkscape:document-units="px"
     showgrid="false"
     inkscape:zoom="12.59375"
     inkscape:cx="32"
     inkscape:cy="32"
     inkscape:window-width="1920"
     inkscape:window-height="1011"
     inkscape:window-x="0"
     inkscape:window-y="0"
     inkscape:window-maximized="1"
     inkscape:current-layer="g2780" />
  <defs
     id="defs2" />
  <rect
     style="opacity:0.2;fill:#000000;stroke-width:4;stroke-linecap:square"
     id="rect234"
     width="56"
     height="56"
     x="4"
     y="5"
     ry="12" />
  <rect
     style="fill:#4f4f4f;stroke-width:4;stroke-linecap:square;fill-opacity:1"
     id="rect396"
     width="56"
     height="56"
     x="4"
     y="4"
     ry="12" />
  <g
     id="g2780"
     transform="translate(-288,-140)">
    <rect
       style="opacity:0.2;fill:#ffffff;fill-opacity:1"
       id="rect2693"
       width="10"
       height="30"
       x="315"
       y="144" />
    <path
       id="rect2365"
       style="fill:#ffffff"
       d="m 320,144 v 3 h 3 v -3 z m 0,3 h -3 v 3 h 3 z m 0,3 v 3 h 3 v -3 z m 0,3 h -3 v 3 h 3 z m 0,3 v 3 h 3 v -3 z m 0,3 h -3 v 3 h 3 z m 0,3 v 3 h 3 v -3 z m 0,3 h -3 v 3 h 3 z" />
    <path
       style="fill:#363636;fill-opacity:1"
       d="m 320,165 c 3.75,0 3.75,5.6 5,5.6 v 7 c 0,0.7756 -0.5575,1.4 -1.25,1.4 h -7.5 c -0.6925,0 -1.25,-0.6244 -1.25,-1.4 v -7 c 1.25,0 1.25,-5.6 5,-5.6 z"
       id="path2369" />
    <path
       d="M 319.66797,172 C 317.08264,172 315,174.10272 315,176.71094 v 9.57812 c 0,2.60822 2.08264,4.71094 4.66797,4.71094 h 0.66406 C 322.91736,191 325,188.89728 325,186.28906 v -9.57812 C 325,174.10272 322.91736,172 320.33203,172 Z M 320,182 c 2.20914,0 4,1.79288 4,4.00195 0,2.20908 -1.79086,3.99805 -4,3.99805 -2.20914,0 -4,-1.78897 -4,-3.99805 C 316,183.79288 317.79086,182 320,182 Z"
       style="opacity:0.2;fill:#000000"
       id="path2570" />
    <path
       style="fill:#ffffff"
       d="M 319.66797,171 C 317.08264,171 315,173.10272 315,175.71094 v 9.57812 c 0,2.60822 2.08264,4.71094 4.66797,4.71094 h 0.66406 C 322.91736,190 325,187.89728 325,185.28906 v -9.57812 C 325,173.10272 322.91736,171 320.33203,171 Z M 320,181 c 2.20914,0 4,1.79288 4,4.00195 0,2.20908 -1.79086,3.99805 -4,3.99805 -2.20914,0 -4,-1.78897 -4,-3.99805 C 316,182.79288 317.79086,181 320,181 Z"
       id="path2373" />
    <path
       style="fill:#909090"
       d="M 319.98437,167.00012 A 1.0001,0.99660733 0 0 0 319,168.01025 v 5.97905 a 1.0001,0.99660733 0 1 0 2,0 v -5.97905 a 1.0001,0.99660733 0 0 0 -1.01563,-1.01013 z"
       id="path2375" />
  </g>
  <path
     d="M 16,4.0000002 C 9.3520066,4.0000002 4,9.352007 4,16 v 1 C 4,10.352007 9.3520066,5 16,5 h 32 c 6.647993,0 12,5.352007 12,12 V 16 C 60,9.352007 54.647993,4.0000002 48,4.0000002 Z"
     style="opacity:0.1;fill:#ffffff;stroke-width:4;stroke-linecap:square"
     id="path1040" />
</svg>
