<?xml version="1.0" encoding="UTF-8" standalone="no"?>
<!-- Created with Inkscape (http://www.inkscape.org/) -->

<svg
   width="64"
   height="64"
   viewBox="0 0 64 64"
   version="1.1"
   id="svg5"
   inkscape:version="1.4.3 (0d15f75042, 2025-12-25)"
   sodipodi:docname="filelight.svg"
   xmlns:inkscape="http://www.inkscape.org/namespaces/inkscape"
   xmlns:sodipodi="http://sodipodi.sourceforge.net/DTD/sodipodi-0.dtd"
   xmlns="http://www.w3.org/2000/svg"
   xmlns:svg="http://www.w3.org/2000/svg">
  <sodipodi:namedview
     id="namedview7"
     pagecolor="#ffffff"
     bordercolor="#000000"
     borderopacity="0.25"
     inkscape:showpageshadow="2"
     inkscape:pageopacity="0.0"
     inkscape:pagecheckerboard="0"
     inkscape:deskcolor="#d1d1d1"
     inkscape:document-units="px"
     showgrid="false"
     inkscape:zoom="12.984375"
     inkscape:cx="32"
     inkscape:cy="32"
     inkscape:window-width="1920"
     inkscape:window-height="1012"
     inkscape:window-x="0"
     inkscape:window-y="0"
     inkscape:window-maximized="1"
     inkscape:current-layer="svg5" />
  <defs
     id="defs2" />
  <rect
     style="opacity:0.2;fill:#000000;stroke-width:4;stroke-linecap:square"
     id="rect234"
     width="56"
     height="56"
     x="4"
     y="5"
     ry="12" />
  <rect
     style="fill:#4d4d4d;fill-opacity:1;stroke-width:4;stroke-linecap:square"
     id="rect396"
     width="56"
     height="56"
     x="4"
     y="4"
     ry="12" />
  <path
     id="path1040"
     style="opacity:0.2;fill:#ffffff;stroke-width:4;stroke-linecap:square"
     d="M 16,4 C 9.3520066,4 4,9.352007 4,16 v 1 C 4,10.352006 9.3520066,5 16,5 h 32 c 6.647992,0 12,5.352006 12,12 V 16 C 60,9.352007 54.647992,4 48,4 Z" />
  <path
     id="path11"
     style="opacity:0.2;fill:#000000;fill-opacity:1;stroke-width:0"
     d="M 32,13 A 20,20 0 0 0 12,33 h 20 z m 0,20 V 53 A 20,20 0 0 0 52,33 Z" />
  <path
     id="path11-0"
     style="fill:#514694;fill-opacity:1;stroke-width:0"
     d="M 32,12 A 20,20 0 0 0 12,32 h 20 z m 0,20 V 52 A 20,20 0 0 0 52,32 Z" />
  <path
     style="opacity:0.2;fill:#000000;stroke-width:2"
     d="m 32,17 c -8.836556,0 -16,7.163444 -16,16 0,8.836556 7.163444,16 16,16 8.836556,0 16,-7.163444 16,-16 H 42 32 V 23 Z"
     id="path4-3" />
  <path
     style="fill:#2d7ad6;stroke-width:2"
     d="m 32,15.998 c -8.836556,0 -16,7.163444 -16,16 0,8.836556 7.163444,16 16,16 8.836556,0 16,-7.163444 16,-16 H 42 32 v -10 z"
     id="path4" />
  <path
     style="opacity:0.2;fill:#000000;stroke-width:2"
     d="M 32,21 A 12,12 0 0 0 20,33 12,12 0 0 0 32,45 12,12 0 0 0 44,33 12,12 0 0 0 32,21 Z"
     id="path6-0" />
  <path
     style="fill:#07c486;stroke-width:2"
     d="M 32,20 A 12,12 0 0 0 20,32 12,12 0 0 0 32,44 12,12 0 0 0 44,32 12,12 0 0 0 32,20 Z"
     id="path6" />
  <circle
     style="opacity:0.2;fill:#000000;fill-opacity:1;stroke-width:0"
     id="path12"
     cx="32"
     cy="33"
     r="8" />
  <path
     style="fill:#ffffff;stroke-width:2"
     d="m 32,24 a 8,8 0 0 1 8,8 8,8 0 0 1 -8,8 8,8 0 0 1 -8,-8 8,8 0 0 1 8,-8 z"
     id="path8" />
  <path
     id="path11-0-2"
     style="opacity:0.2;fill:#ffffff;fill-opacity:1;stroke-width:0"
     d="M 32,12 C 20.954304,12 12,20.954304 12,32 h 0.02344 C 12.544469,21.418888 21.289628,13 32,13 Z" />
  <path
     id="path4-6"
     style="opacity:0.2;fill:#ffffff;stroke-width:2"
     d="m 32,16 c -8.836556,0 -16,7.163444 -16,16 0,0.16606 0.0026,0.331252 0.0078,0.496094 C 16.273836,23.892586 23.331944,17 32,17 Z" />
  <path
     id="path6-1"
     style="opacity:0.2;fill:#ffffff;stroke-width:2"
     d="M 32,20 A 12,12 0 0 0 20,32 12,12 0 0 0 20.03126,32.507812 12,12 0 0 1 32,21 12,12 0 0 1 43.96875,32.507812 12,12 0 0 0 44,32 12,12 0 0 0 32,20 Z" />
</svg>
