<?xml version="1.0" encoding="UTF-8" standalone="no"?>
<!-- Created with Inkscape (http://www.inkscape.org/) -->

<svg
   width="64"
   height="64"
   viewBox="0 0 64 64"
   version="1.1"
   id="svg5"
   inkscape:version="1.4 (e7c3feb100, 2024-10-09)"
   sodipodi:docname="gnome-power-statistics.svg"
   xmlns:inkscape="http://www.inkscape.org/namespaces/inkscape"
   xmlns:sodipodi="http://sodipodi.sourceforge.net/DTD/sodipodi-0.dtd"
   xmlns="http://www.w3.org/2000/svg"
   xmlns:svg="http://www.w3.org/2000/svg">
  <sodipodi:namedview
     id="namedview7"
     pagecolor="#ffffff"
     bordercolor="#000000"
     borderopacity="0.25"
     inkscape:showpageshadow="2"
     inkscape:pageopacity="0.0"
     inkscape:pagecheckerboard="0"
     inkscape:deskcolor="#d1d1d1"
     inkscape:document-units="px"
     showgrid="false"
     inkscape:zoom="12.28125"
     inkscape:cx="32"
     inkscape:cy="32"
     inkscape:window-width="1920"
     inkscape:window-height="1011"
     inkscape:window-x="0"
     inkscape:window-y="0"
     inkscape:window-maximized="1"
     inkscape:current-layer="svg5" />
  <defs
     id="defs2" />
  <rect
     style="opacity:0.2;fill:#000000;stroke-width:4;stroke-linecap:square"
     id="rect234"
     width="56"
     height="56"
     x="4"
     y="5"
     ry="12" />
  <rect
     style="fill:#4f4f4f;fill-opacity:1;stroke-width:4;stroke-linecap:square"
     id="rect396"
     width="56"
     height="56"
     x="4"
     y="4"
     ry="12" />
  <path
     d="M 47.35546,15.8125 46.5,17.355468 33.96094,39.9375 19.1875,27.644532 18.25,26.855468 17.39844,27.730468 4,41.128906 v 3.75 L 18.41796,30.457032 33.48046,43.019532 34.71094,44.0625 35.5,42.644532 47.98046,20.1875 60,32.207032 v -3.75 L 48.60546,17.0625 Z"
     style="fill:#fed966;fill-opacity:1;stroke-width:2"
     id="path1" />
  <path
     d="m 48,16 c -2.20914,0 -4,1.790862 -4,4 0,2.209138 1.79086,4 4,4 2.20914,0 4,-1.790862 4,-4 0,-2.209138 -1.79086,-4 -4,-4 z M 18,26 c -2.20914,0 -4,1.790862 -4,4 0,2.209138 1.79086,4 4,4 2.20914,0 4,-1.790862 4,-4 0,-2.209138 -1.79086,-4 -4,-4 z m 16,14 c -2.20914,0 -4,1.790862 -4,4 0,2.209138 1.79086,4 4,4 2.20914,0 4,-1.790862 4,-4 0,-2.209138 -1.79086,-4 -4,-4 z"
     style="opacity:0.2;fill:#000000;fill-opacity:1;stroke-width:2;stroke-linecap:round;stroke-linejoin:round"
     id="path2" />
  <path
     d="m 48,15 c -2.20914,0 -4,1.790862 -4,4 0,2.209138 1.79086,4 4,4 2.20914,0 4,-1.790862 4,-4 0,-2.209138 -1.79086,-4 -4,-4 z M 18,25 c -2.20914,0 -4,1.790862 -4,4 0,2.209138 1.79086,4 4,4 2.20914,0 4,-1.790862 4,-4 0,-2.209138 -1.79086,-4 -4,-4 z m 16,14 c -2.20914,0 -4,1.790862 -4,4 0,2.209138 1.79086,4 4,4 2.20914,0 4,-1.790862 4,-4 0,-2.209138 -1.79086,-4 -4,-4 z"
     style="opacity:1;fill:#fecd38;fill-opacity:1;stroke-width:2;stroke-linecap:round;stroke-linejoin:round"
     id="path3" />
  <path
     id="path1040"
     style="opacity:0.1;fill:#ffffff;stroke-width:4;stroke-linecap:square"
     d="M 16,4 C 9.3520132,4 4,9.3520136 4,16 v 1 C 4,10.352014 9.3520132,5 16,5 h 32 c 6.647986,0 12,5.352014 12,12 V 16 C 60,9.3520136 54.647986,4 48,4 Z" />
</svg>
