<?xml version="1.0" encoding="UTF-8" standalone="no"?>
<!-- Created with Inkscape (http://www.inkscape.org/) -->

<svg
   width="64"
   height="64"
   viewBox="0 0 64 64"
   version="1.1"
   id="svg5"
   inkscape:version="1.4 (e7c3feb100, 2024-10-09)"
   sodipodi:docname="inkscape.svg"
   xmlns:inkscape="http://www.inkscape.org/namespaces/inkscape"
   xmlns:sodipodi="http://sodipodi.sourceforge.net/DTD/sodipodi-0.dtd"
   xmlns="http://www.w3.org/2000/svg"
   xmlns:svg="http://www.w3.org/2000/svg">
  <sodipodi:namedview
     id="namedview7"
     pagecolor="#ffffff"
     bordercolor="#000000"
     borderopacity="0.25"
     inkscape:showpageshadow="2"
     inkscape:pageopacity="0.0"
     inkscape:pagecheckerboard="0"
     inkscape:deskcolor="#d1d1d1"
     inkscape:document-units="px"
     showgrid="false"
     inkscape:zoom="12.59375"
     inkscape:cx="32.079404"
     inkscape:cy="32"
     inkscape:window-width="1920"
     inkscape:window-height="1011"
     inkscape:window-x="0"
     inkscape:window-y="0"
     inkscape:window-maximized="1"
     inkscape:current-layer="svg5" />
  <defs
     id="defs2" />
  <rect
     style="opacity:0.2;fill:#000000;stroke-width:4;stroke-linecap:square"
     id="rect234"
     width="56"
     height="56"
     x="4"
     y="5"
     ry="12" />
  <rect
     style="fill:#4f4f4f;stroke-width:4;stroke-linecap:square;fill-opacity:1"
     id="rect396"
     width="56"
     height="56"
     x="4"
     y="4"
     ry="12" />
  <path
     d="m 31.995811,12 c -1.19686,4.8e-4 -2.36004,0.44957 -3.2773,1.39844 l -16.32393,16.85949 c -0.89946,0.93055 -1.37661,2.1567 -1.39451,3.37112 -2.6e-4,0.0184 0,0.0619 0,0.082 -1.6e-4,3.61311 9.12956,0.10596 9.99983,4.52347 0.47089,2.3908 -3.99993,1.29377 -3.99993,3.69925 0,2.8217 7.91042,0.52064 9.80061,3.20705 1.44689,2.05638 -2.74952,2.14463 -1.60153,4.11331 0.98474,1.68876 4.50638,0.60924 5.09365,2.87893 0.67081,2.59262 3.98967,2.30175 6.42959,0.24609 1.49569,-1.26014 -1.69897,-2.04719 -0.33984,-3.45315 1.35902,-1.40606 6.97881,-1.14361 6.61707,-4.19535 -0.23939,-2.01967 -1.96127,-2.24211 -1.99996,-4.52346 -0.1352,-1.93204 2.16858,-1.36635 9.12874,-3.28909 2.78307,-1.3076 2.88165,-2.00282 2.87105,-3.20705 -2.2e-4,-0.0239 0,-0.0566 0,-0.082 -0.016,-1.21433 -0.57717,-2.44061 -1.47653,-3.37112 L 35.276991,13.39844 C 34.359551,12.44947 33.195971,12.00048 31.999711,12 Z m 18.78874,28.0041 c -0.38157,-0.0154 -0.76365,0.024 -1.03514,0.12109 -0.51176,0.18876 -2.93803,0.29733 -2.73824,2.65627 2.19643,1.17892 5.54607,2.11647 5.94522,-0.24219 0.29966,-1.76876 -1.02698,-2.48103 -2.17184,-2.53517 z m -31.23775,6.01957 c -0.21401,0.0326 -0.36115,0.14376 -0.57031,0.25 -1.67255,0.84898 -2.79305,2.63766 -1.23044,3.41799 1.56284,0.78015 2.61044,-0.0482 3.98039,-1.01563 1.37018,-0.96792 1.32956,-1.14226 1.23046,-1.51563 -0.18999,0.0507 -1.43431,-0.98283 -2.74605,-1.13673 -0.2186,-0.0245 -0.45009,-0.0325 -0.66405,0 z"
     style="opacity:0.2;fill:#000000;fill-rule:evenodd;stroke-width:1.99997"
     id="path900" />
  <path
     d="m 31.995811,11.00037 c -1.19686,4.8e-4 -2.36004,0.44957 -3.2773,1.39844 L 12.394581,29.2583 c -0.89946,0.93055 -1.37661,2.1567 -1.39451,3.37112 -2.6e-4,0.0184 0,0.0619 0,0.082 -1.6e-4,3.61311 9.12956,0.10596 9.99983,4.52347 0.47089,2.3908 -3.99993,1.29377 -3.99993,3.69925 0,2.8217 7.91042,0.52064 9.80061,3.20705 1.44689,2.05638 -2.74952,2.14463 -1.60153,4.11331 0.98474,1.68876 4.50638,0.60924 5.09365,2.87893 0.67081,2.59262 3.98967,2.30175 6.42959,0.24609 1.49569,-1.26014 -1.69897,-2.04719 -0.33984,-3.45315 1.35902,-1.40606 6.97881,-1.14361 6.61707,-4.19535 -0.23939,-2.01967 -1.96127,-2.24211 -1.99996,-4.52346 -0.1352,-1.93204 2.16858,-1.36635 9.12874,-3.28909 2.78307,-1.3076 2.88165,-2.00282 2.87105,-3.20705 -2.2e-4,-0.0239 0,-0.0566 0,-0.082 -0.016,-1.21433 -0.57717,-2.44061 -1.47653,-3.37112 L 35.276991,12.39881 c -0.91744,-0.94897 -2.08102,-1.39796 -3.27728,-1.39844 z m 18.78874,28.0041 c -0.38157,-0.0154 -0.76365,0.024 -1.03514,0.12109 -0.51176,0.18876 -2.93803,0.29733 -2.73824,2.65627 2.19643,1.17892 5.54607,2.11647 5.94522,-0.24219 0.29966,-1.76876 -1.02698,-2.48103 -2.17184,-2.53517 z m -31.23775,6.01957 c -0.21401,0.0326 -0.36115,0.14376 -0.57031,0.25 -1.67255,0.84898 -2.79305,2.63766 -1.23044,3.41799 1.56284,0.78015 2.61044,-0.0482 3.98039,-1.01563 1.37018,-0.96792 1.32956,-1.14226 1.23046,-1.51563 -0.18999,0.0507 -1.43431,-0.98283 -2.74605,-1.13673 -0.2186,-0.0245 -0.45009,-0.0325 -0.66405,0 z"
     style="fill:#efefef;fill-rule:evenodd;stroke-width:1.99997;fill-opacity:1"
     id="path872"
     sodipodi:nodetypes="sccsccssssscsccscccsscccccccccccc" />
  <path
     id="path928"
     style="opacity:0.2;fill:#ffffff;fill-rule:evenodd;stroke-width:1.99997"
     d="m 31.996041,11 c -1.19686,4.8e-4 -2.36008,0.44957 -3.27734,1.39844 l -16.32422,16.85937 c -0.89946,0.93055 -1.37663,2.15668 -1.39453,3.3711 -2.6e-4,0.0184 0,0.0619 0,0.082 -10e-6,0.13578 0.0162,0.25853 0.041,0.375 0.13114,-1.03035 0.58828,-2.03645 1.35351,-2.82813 l 16.32422,-16.85937 c 0.91726,-0.94887 2.08048,-1.39796 3.27734,-1.39844 h 0.0039 c 1.19626,4.8e-4 2.3599,0.44947 3.27734,1.39844 l 16.2461,16.85937 c 0.8154,0.84365 1.34797,1.93069 1.45312,3.03125 0.0177,-0.18252 0.0253,-0.37124 0.0234,-0.57812 -2.2e-4,-0.0239 0,-0.0566 0,-0.082 -0.016,-1.21433 -0.5772,-2.44059 -1.47656,-3.3711 L 35.277251,12.39844 C 34.359851,11.44947 33.196211,11.00048 31.999951,11 Z m -11.05468,27.01953 c -0.5897,1.37287 -3.94141,0.82963 -3.94141,2.91406 0,0.18086 0.0344,0.341 0.0957,0.48243 0.61487,-1.72422 4.33659,-0.98684 3.9043,-3.18164 -0.015,-0.076 -0.0388,-0.14348 -0.0586,-0.21485 z m 29.84375,0.98438 c -0.38157,-0.0154 -0.76367,0.024 -1.03516,0.12109 -0.51176,0.18876 -2.93807,0.29731 -2.73828,2.65625 0.0285,0.0153 0.061,0.0297 0.0898,0.0449 0.43592,-1.43489 2.2177,-1.54229 2.64844,-1.70117 0.27149,-0.0971 0.65359,-0.13649 1.03516,-0.12109 0.90882,0.043 1.92866,0.5025 2.16211,1.57421 0.003,-0.0139 0.007,-0.0249 0.01,-0.0391 0.29966,-1.76876 -1.02701,-2.48101 -2.17187,-2.53515 z m -9.74414,0.70312 c -0.0367,0.14727 -0.0544,0.30853 -0.041,0.5 0.037,2.18167 1.60999,2.48517 1.95703,4.27344 0.0575,-0.22545 0.0757,-0.47403 0.043,-0.75 -0.22049,-1.8602 -1.69672,-2.19953 -1.95898,-4.02344 z m -21.16407,5.29492 c -0.11194,-10e-4 -0.2231,0.005 -0.33007,0.0215 -0.21401,0.0326 -0.36116,0.14376 -0.57032,0.25 -1.33105,0.67563 -2.30754,1.94601 -1.86523,2.83008 0.2659,-0.68135 0.98782,-1.38471 1.86523,-1.83008 0.20916,-0.10624 0.35631,-0.2174 0.57032,-0.25 0.21395,-0.0325 0.44546,-0.0245 0.66406,0 0.96436,0.11314 1.88543,0.69681 2.38476,0.98047 0.45967,-0.41168 0.43108,-0.58097 0.36133,-0.84375 -0.18999,0.0507 -1.43435,-0.98282 -2.74609,-1.13672 -0.1093,-0.0122 -0.22204,-0.0205 -0.33399,-0.0215 z m 7.08789,0.42578 c -0.54653,0.91636 -2.46985,1.35471 -1.82422,2.69727 0.54584,-0.92494 2.47841,-1.36068 1.82422,-2.69727 z m 9.23438,3.73243 c -0.50962,0.78226 0.34627,1.37432 0.74414,1.99414 0.58226,-0.7328 -0.35243,-1.31666 -0.74414,-1.99414 z" />
  <path
     d="m 32.074901,15 c 1.23173,0.01 4.60681,4.1872 7.61808,7.31518 0.84702,1.13653 -0.32763,2.30135 -0.32763,2.30135 l -6.30715,-3.45208 -2.78507,3.78109 -2.45706,-3.69809 -1.47503,5.75314 -4.34111,-2.63006 1.14703,-1.48004 6.79816,-6.98587 c 0.52146,-0.53157 0.92079,-0.91354 2.12976,-0.90412 z"
     style="opacity:0.2;fill:#000000;fill-rule:evenodd;stroke-width:2.00005"
     id="path1012" />
  <path
     d="m 32.074921,13.9995 c 1.23173,0.01 4.60681,4.1872 7.61808,7.31518 0.84702,1.13653 -0.32763,2.30135 -0.32763,2.30135 l -6.30715,-3.45208 -2.78507,3.78109 -2.45706,-3.69809 -1.47503,5.75314 -4.34111,-2.63006 1.14703,-1.48004 6.79816,-6.98587 c 0.52146,-0.53157 0.92079,-0.91354 2.12976,-0.90412 z"
     style="fill:#3d3d3d;fill-rule:evenodd;stroke-width:2.00005;fill-opacity:1"
     id="path984"
     sodipodi:nodetypes="cccccccccccc" />
  <path
     d="M 16,4.0000002 C 9.3520066,4.0000002 4,9.352007 4,16 v 1 C 4,10.352007 9.3520066,5 16,5 h 32 c 6.647993,0 12,5.352007 12,12 V 16 C 60,9.352007 54.647993,4.0000002 48,4.0000002 Z"
     style="opacity:0.1;fill:#ffffff;stroke-width:4;stroke-linecap:square"
     id="path1040" />
</svg>
