<?xml version="1.0" encoding="UTF-8" standalone="no"?>
<!-- Created with Inkscape (http://www.inkscape.org/) -->

<svg
   width="64"
   height="64"
   viewBox="0 0 64 64"
   version="1.1"
   id="svg5"
   inkscape:version="1.4 (e7c3feb100, 2024-10-09)"
   sodipodi:docname="libreoffice-writer.svg"
   xmlns:inkscape="http://www.inkscape.org/namespaces/inkscape"
   xmlns:sodipodi="http://sodipodi.sourceforge.net/DTD/sodipodi-0.dtd"
   xmlns="http://www.w3.org/2000/svg"
   xmlns:svg="http://www.w3.org/2000/svg">
  <sodipodi:namedview
     id="namedview7"
     pagecolor="#ffffff"
     bordercolor="#000000"
     borderopacity="0.25"
     inkscape:showpageshadow="2"
     inkscape:pageopacity="0.0"
     inkscape:pagecheckerboard="0"
     inkscape:deskcolor="#d1d1d1"
     inkscape:document-units="px"
     showgrid="false"
     inkscape:zoom="12.96875"
     inkscape:cx="32"
     inkscape:cy="32"
     inkscape:window-width="1920"
     inkscape:window-height="1011"
     inkscape:window-x="0"
     inkscape:window-y="0"
     inkscape:window-maximized="1"
     inkscape:current-layer="svg5" />
  <defs
     id="defs2" />
  <rect
     style="opacity:0.2;fill:#000000;stroke-width:4;stroke-linecap:square"
     id="rect234"
     width="56"
     height="56"
     x="4"
     y="5"
     ry="12" />
  <rect
     style="fill:#4f4f4f;stroke-width:4;stroke-linecap:square;fill-opacity:1"
     id="rect396"
     width="56"
     height="56"
     x="4"
     y="4"
     ry="12" />
  <path
     d="M 16.13672,21.5 C 16.05162,21.64724 16,21.81701 16,22 c 0,0.554 0.446,1 1,1 h 12 c 0.554,0 1,-0.446 1,-1 0,-0.18299 -0.0516,-0.35276 -0.13672,-0.5 C 29.69066,21.79853 29.37101,22 29,22 H 17 c -0.37101,0 -0.69066,-0.20147 -0.86328,-0.5 z m 0,4 C 16.05162,25.64724 16,25.81701 16,26 c 0,0.554 0.446,1 1,1 h 12 c 0.554,0 1,-0.446 1,-1 0,-0.18299 -0.0516,-0.35276 -0.13672,-0.5 C 29.69066,25.79853 29.37101,26 29,26 H 17 c -0.37101,0 -0.69066,-0.20147 -0.86328,-0.5 z M 34,28 v 1 c 0,1.108 0.892,2 2,2 h 10 c 1.108,0 2,-0.892 2,-2 v -1 c 0,1.108 -0.892,2 -2,2 H 36 c -1.108,0 -2,-0.892 -2,-2 z M 16.13672,29.5 C 16.05162,29.64724 16,29.81701 16,30 c 0,0.554 0.446,1 1,1 h 12 c 0.554,0 1,-0.446 1,-1 0,-0.18299 -0.0516,-0.35276 -0.13672,-0.5 C 29.69066,29.79853 29.37101,30 29,30 H 17 c -0.37101,0 -0.69066,-0.20147 -0.86328,-0.5 z m 0,6 C 16.05162,35.64724 16,35.81701 16,36 c 0,0.554 0.446,1 1,1 h 30 c 0.554,0 1,-0.446 1,-1 0,-0.18299 -0.0516,-0.35276 -0.13672,-0.5 C 47.69066,35.79853 47.37101,36 47,36 H 17 c -0.37101,0 -0.69066,-0.20147 -0.86328,-0.5 z m 0,4 C 16.05162,39.64724 16,39.81701 16,40 c 0,0.554 0.446,1 1,1 h 30 c 0.554,0 1,-0.446 1,-1 0,-0.18299 -0.0516,-0.35276 -0.13672,-0.5 C 47.69066,39.79853 47.37101,40 47,40 H 17 c -0.37101,0 -0.69066,-0.20147 -0.86328,-0.5 z m 0,4 C 16.05162,43.64724 16,43.81701 16,44 c 0,0.554 0.446,1 1,1 h 12 c 0.554,0 1,-0.446 1,-1 0,-0.18299 -0.0516,-0.35276 -0.13672,-0.5 C 29.69066,43.79853 29.37101,44 29,44 H 17 c -0.37101,0 -0.69066,-0.20147 -0.86328,-0.5 z"
     style="opacity:0.2;fill:#000000;stroke-width:2"
     id="path515" />
  <path
     d="m 17,20 c -0.554,0 -1,0.446 -1,1 0,0.554 0.446,1 1,1 h 12 c 0.554,0 1,-0.446 1,-1 0,-0.554 -0.446,-1 -1,-1 z m 0,4 c -0.554,0 -1,0.446 -1,1 0,0.554 0.446,1 1,1 h 12 c 0.554,0 1,-0.446 1,-1 0,-0.554 -0.446,-1 -1,-1 z m 0,4 c -0.554,0 -1,0.446 -1,1 0,0.554 0.446,1 1,1 h 12 c 0.554,0 1,-0.446 1,-1 0,-0.554 -0.446,-1 -1,-1 z m 0,6 c -0.554,0 -1,0.446 -1,1 0,0.554 0.446,1 1,1 h 30 c 0.554,0 1,-0.446 1,-1 0,-0.554 -0.446,-1 -1,-1 z m 0,4 c -0.554,0 -1,0.446 -1,1 0,0.554 0.446,1 1,1 h 30 c 0.554,0 1,-0.446 1,-1 0,-0.554 -0.446,-1 -1,-1 z m 0,4 c -0.554,0 -1,0.446 -1,1 0,0.554 0.446,1 1,1 h 12 c 0.554,0 1,-0.446 1,-1 0,-0.554 -0.446,-1 -1,-1 z"
     style="fill:#ffffff;stroke-width:2"
     id="path407" />
  <path
     d="m 36,20 c -1.108,0 -2,0.892 -2,2 v 6 c 0,1.108 0.892,2 2,2 h 10 c 1.108,0 2,-0.892 2,-2 v -6 c 0,-1.108 -0.892,-2 -2,-2 z m 2,3 6,5 h -8 z m 7,-1 c 0.55228,0 1,0.44772 1,1 0,0.55228 -0.44772,1 -1,1 -0.55228,0 -1,-0.44772 -1,-1 0,-0.55228 0.44772,-1 1,-1 z"
     style="fill:#1b83d4;fill-opacity:1;stroke-width:2"
     id="path487" />
  <path
     d="M 16,4.0000002 C 9.3520066,4.0000002 4,9.352007 4,16 v 1 C 4,10.352007 9.3520066,5 16,5 h 32 c 6.647993,0 12,5.352007 12,12 V 16 C 60,9.352007 54.647993,4.0000002 48,4.0000002 Z"
     style="opacity:0.1;fill:#ffffff;stroke-width:4;stroke-linecap:square"
     id="path1040" />
</svg>
