<?xml version="1.0" encoding="UTF-8" standalone="no"?>
<!-- Created with Inkscape (http://www.inkscape.org/) -->

<svg
   width="64"
   height="64"
   viewBox="0 0 64 64"
   version="1.1"
   id="svg5"
   inkscape:version="1.4 (e7c3feb100, 2024-10-09)"
   sodipodi:docname="sound-recorder.svg"
   xmlns:inkscape="http://www.inkscape.org/namespaces/inkscape"
   xmlns:sodipodi="http://sodipodi.sourceforge.net/DTD/sodipodi-0.dtd"
   xmlns="http://www.w3.org/2000/svg"
   xmlns:svg="http://www.w3.org/2000/svg">
  <sodipodi:namedview
     id="namedview7"
     pagecolor="#ffffff"
     bordercolor="#000000"
     borderopacity="0.25"
     inkscape:showpageshadow="2"
     inkscape:pageopacity="0.0"
     inkscape:pagecheckerboard="0"
     inkscape:deskcolor="#d1d1d1"
     inkscape:document-units="px"
     showgrid="false"
     inkscape:zoom="12.234375"
     inkscape:cx="31.959132"
     inkscape:cy="31.959132"
     inkscape:window-width="1920"
     inkscape:window-height="1011"
     inkscape:window-x="0"
     inkscape:window-y="0"
     inkscape:window-maximized="1"
     inkscape:current-layer="svg5" />
  <defs
     id="defs2" />
  <rect
     style="opacity:0.2;fill:#000000;stroke-width:4;stroke-linecap:square"
     id="rect234"
     width="56"
     height="56"
     x="4"
     y="5"
     ry="12" />
  <rect
     style="fill:#4f4f4f;fill-opacity:1;stroke-width:4;stroke-linecap:square"
     id="rect396"
     width="56"
     height="56"
     x="4"
     y="4"
     ry="12" />
  <path
     id="rect1"
     style="fill:#ff4e4a;stroke-width:2;stroke-linecap:round;stroke-linejoin:round;fill-opacity:1"
     d="m 28,12 c -1.107998,0 -2,0.892001 -2,2 v 36 c 0,1.107998 0.892002,2 2,2 1.107998,0 2,-0.892002 2,-2 V 14 c 0,-1.107999 -0.892002,-2 -2,-2 z m 16,6 c -1.107998,0 -2,0.892002 -2,2 v 24 c 0,1.107998 0.892002,2 2,2 1.107998,0 2,-0.892002 2,-2 V 20 c 0,-1.107998 -0.892002,-2 -2,-2 z M 12,28 c -1.107999,0 -2,0.892002 -2,2 v 4 c 0,1.107998 0.892001,2 2,2 1.107999,0 2,-0.892002 2,-2 v -4 c 0,-1.107998 -0.892001,-2 -2,-2 z" />
  <path
     id="rect2"
     style="fill:#ffb8b7;fill-opacity:1;stroke-width:2;stroke-linecap:round;stroke-linejoin:round"
     d="m 20,22 c -1.107998,0 -2,0.892002 -2,2 v 16 c 0,1.107998 0.892002,2 2,2 1.107998,0 2,-0.892002 2,-2 V 24 c 0,-1.107998 -0.892002,-2 -2,-2 z m 16,2 c -1.107998,0 -2,0.892002 -2,2 v 12 c 0,1.107998 0.892002,2 2,2 1.107998,0 2,-0.892002 2,-2 V 26 c 0,-1.107998 -0.892002,-2 -2,-2 z m 16,4 c -1.107998,0 -2,0.892002 -2,2 v 4 c 0,1.107998 0.892002,2 2,2 1.107998,0 2,-0.892002 2,-2 v -4 c 0,-1.107998 -0.892002,-2 -2,-2 z" />
  <path
     id="rect6"
     style="opacity:0.2;fill:#000000;stroke-width:2;stroke-linecap:round;stroke-linejoin:round"
     d="m 10,34 v 1 c 0,1.107994 0.892003,2 2,2 1.107997,0 2,-0.892006 2,-2 v -1 c 0,1.107994 -0.892004,2 -2,2 -1.107996,0 -2,-0.892006 -2,-2 z m 40,0 v 1 c 0,1.10799 0.89201,2 2,2 1.10799,0 2,-0.89201 2,-2 v -1 c 0,1.10799 -0.89201,2 -2,2 -1.10799,0 -2,-0.89201 -2,-2 z m -16,4 v 1 c 0,1.10799 0.89201,2 2,2 1.10799,0 2,-0.89201 2,-2 v -1 c 0,1.10799 -0.89201,2 -2,2 -1.10799,0 -2,-0.89201 -2,-2 z m -16,2 v 1 c 0,1.10799 0.892008,2 2,2 1.10799,0 2,-0.89201 2,-2 v -1 c 0,1.10799 -0.89201,2 -2,2 -1.107992,0 -2,-0.89201 -2,-2 z m 24,4 v 1 c 0,1.10799 0.89201,2 2,2 1.10799,0 2,-0.89201 2,-2 v -1 c 0,1.10799 -0.89201,2 -2,2 -1.10799,0 -2,-0.89201 -2,-2 z m -16,6 v 1 c 0,1.10799 0.89201,2 2,2 1.10799,0 2,-0.89201 2,-2 v -1 c 0,1.10799 -0.89201,2 -2,2 -1.10799,0 -2,-0.89201 -2,-2 z" />
  <path
     id="path1040"
     style="opacity:0.1;fill:#ffffff;stroke-width:4;stroke-linecap:square"
     d="M 16,4 C 9.3520132,4 4,9.3520136 4,16 v 1 C 4,10.352014 9.3520132,5 16,5 h 32 c 6.647986,0 12,5.352014 12,12 V 16 C 60,9.3520136 54.647986,4 48,4 Z" />
</svg>
